<?xml version="1.0" encoding="utf-8"?>
<!-- Generator: Adobe Illustrator 23.0.1, SVG Export Plug-In . SVG Version: 6.00 Build 0)  -->
<svg version="1.1" id="Layer_1" xmlns="http://www.w3.org/2000/svg" xmlns:xlink="http://www.w3.org/1999/xlink" x="0px" y="0px"
	 viewBox="0 0 200 200" style="enable-background:new 0 0 200 200;" xml:space="preserve">
<style type="text/css">
	.st0{fill:#0D0E0F;}
</style>
<path d="M105.9,29.5c17.3,0.1,31.2,13.8,31.2,31.6c0,5.6,1.1,7.4,7.2,7.4c16.4-0.1,29.8,11.8,31.8,27.5c2,15.2-7.7,29.8-22.8,34.3
	c-3.4,1-6.9,1.4-10.4,1c-4.6-0.5-5.8,1.2-5.7,5.8c0.1,16.4-9.3,28.9-23.8,32.4c-20.4,4.9-38.9-9.8-39.1-31.6c0-5.2-1.1-6.8-6.6-6.7
	c-18.3,0.2-32.3-13.5-32.4-30.9C35.1,82.5,49,68.5,67.5,68.5c5.1,0,6.7-1,6.7-6.5C74.4,43.2,88.1,29.5,105.9,29.5z"/>
</svg>
