<?xml version="1.0" encoding="utf-8"?>
<!-- Generator: Adobe Illustrator 23.0.1, SVG Export Plug-In . SVG Version: 6.00 Build 0)  -->
<svg version="1.1" id="Layer_1" xmlns="http://www.w3.org/2000/svg" xmlns:xlink="http://www.w3.org/1999/xlink" x="0px" y="0px"
	 viewBox="0 0 200 200" style="enable-background:new 0 0 200 200;" xml:space="preserve">
<path d="M-114.5,100c-47.3,0-85.6,38.3-85.6,85.6s38.3,85.6,85.6,85.6s85.6-38.3,85.6-85.6S-67.2,100-114.5,100z M-114.5,208.7
	c-12.8,0-23.1-10.3-23.1-23.1c0-12.8,10.3-23.1,23.1-23.1c12.8,0,23.1,10.3,23.1,23.1C-91.4,198.4-101.7,208.7-114.5,208.7z"/>
<path d="M127.1,278.2c17.6,17.6,27.2,40.9,27.3,65.8h-1.2c0-50.6-41.2-91.8-91.8-91.8c-24.5,0-47.6,9.6-64.9,26.9
	c-17.3,17.3-26.9,40.4-26.9,64.9h-1.2c0-24.9,9.7-48.2,27.3-65.8C13.1,260.7,36.5,251,61.3,251C86.2,251,109.5,260.7,127.1,278.2z"
	/>
<path d="M122.6,282.8c15.7,15.7,25.4,37.3,25.4,61.2h-1.2c0-47.1-38.3-85.4-85.4-85.4c-47.1,0-85.4,38.3-85.4,85.4h-1.2
	c0-47.8,38.9-86.6,86.6-86.6C85.2,257.4,106.9,267.1,122.6,282.8z"/>
<path d="M118.1,287.3c15.2,15.2,23.5,35.3,23.5,56.7h-1.2c0-21.1-8.2-41-23.1-55.9C102.3,273.2,82.4,265,61.3,265
	c-21.1,0-41,8.2-55.9,23.1c-14.9,14.9-23.1,34.8-23.1,55.9l-1.2,0c0-21.4,8.3-41.6,23.5-56.7c15.2-15.2,35.3-23.5,56.7-23.5
	C82.8,263.8,102.9,272.1,118.1,287.3z"/>
<path d="M113.5,291.9c13.4,13.4,21.6,31.8,21.6,52.2H134c0-40.1-32.6-72.6-72.6-72.6c-40.1,0-72.6,32.6-72.6,72.6h-1.2
	c0-40.7,33.1-73.8,73.8-73.8C81.7,270.2,100.1,278.5,113.5,291.9z"/>
<path d="M109,296.4c12.2,12.2,19.8,29.1,19.8,47.7h-1.2c0-36.5-29.7-66.2-66.2-66.2c-36.5,0-66.2,29.7-66.2,66.2h-1.2
	c0-37.2,30.3-67.4,67.4-67.4C79.9,276.6,96.8,284.2,109,296.4z"/>
<path d="M104.5,300.9c11.1,11.1,17.9,26.3,17.9,43.1h-1.2c0-33-26.8-59.8-59.8-59.8c-16,0-31,6.2-42.3,17.5C7.7,313,1.5,328,1.5,344
	l-1.2,0c0-16.3,6.4-31.6,17.9-43.2S45,283,61.3,283C78.2,283,93.4,289.8,104.5,300.9z"/>
<path d="M99.9,305.4c9.9,9.9,16,23.5,16,38.6h-1.2c0-29.5-24-53.4-53.4-53.4c-29.5,0-53.4,24-53.4,53.4H6.7
	c0-30.1,24.5-54.6,54.6-54.6C76.4,289.4,90,295.5,99.9,305.4z"/>
<g>
	<path d="M-144.7,196.2l-21.3,0l10.6-10.6L-144.7,196.2z"/>
	<path d="M-125,215.9l-60.7,0l10.6-10.6h39.4L-125,215.9z"/>
	<path d="M-66,274.9l-178.7,0l10.5-10.5h157.7L-66,274.9z"/>
	<path d="M-85.6,255.4l-139.6,0l10.6-10.6l118.3,0L-85.6,255.4z"/>
	<path d="M-105.3,235.7l-100.1,0l10.6-10.6l78.9,0L-105.3,235.7z"/>
</g>
<polygon points="-115.6,142.7 -87.7,199.3 -25.3,208.3 -70.5,252.4 -59.8,314.5 -115.6,285.2 -171.4,314.5 -160.8,252.4 
	-205.9,208.3 -143.5,199.3 "/>
<g>
	<path d="M-93.7,298.2c-22.9,0-44.4-8.9-60.5-25.1c-13-13-20.2-30.4-20.2-48.9c0-18.5,7.2-35.8,20.2-48.9
		c10.6-10.6,24.6-16.4,39.5-16.4s29,5.8,39.5,16.4c8.6,8.6,13.3,19.9,13.3,32c0,12.1-4.7,23.5-13.3,32c-7,7-16.2,10.8-26.1,10.8
		c-9.8,0-19.1-3.8-26.1-10.8c-11.7-11.7-11.7-30.8,0-42.6c4.7-4.7,10.9-7.2,17.5-7.2c6.6,0,12.8,2.6,17.5,7.2
		c7.9,7.9,7.9,20.8,0,28.8c-6.6,6.6-17.3,6.6-23.9,0c-5.5-5.5-5.5-14.5,0-20l4.3,4.3c-3.1,3.1-3.1,8.2,0,11.4
		c4.2,4.2,11.1,4.2,15.3,0c5.6-5.6,5.6-14.6,0-20.2c-3.5-3.5-8.2-5.4-13.2-5.4c-5,0-9.6,1.9-13.2,5.4c-4.5,4.5-7,10.6-7,17
		c0,6.4,2.5,12.4,7,17c5.8,5.8,13.5,9,21.8,9s16-3.2,21.8-9c7.4-7.4,11.5-17.3,11.5-27.7s-4.1-20.3-11.5-27.7
		c-9.4-9.4-21.9-14.6-35.2-14.6c-13.3,0-25.8,5.2-35.2,14.6c-11.9,11.9-18.5,27.7-18.5,44.6c0,16.8,6.6,32.7,18.5,44.6
		c15,15,35,23.3,56.2,23.3s41.2-8.3,56.2-23.3l4.3,4.3C-49.3,289.3-70.8,298.2-93.7,298.2z"/>
</g>
<polygon points="-101.2,147.7 -189.8,212.1 -155.9,316.3 -46.4,316.3 -12.5,212.1 "/>
<polygon points="-66.6,127.5 -131.1,127.5 -176.7,173.1 -176.7,237.5 -131.1,283.1 -66.6,283.1 -21.1,237.5 -21.1,173.1 "/>
<polygon points="-93.8,115.8 -158.5,146.9 -174.4,216.9 -129.7,273.1 -57.8,273.1 -13.1,216.9 -29,146.9 "/>
<path d="M-39.3,240.6c-24.8,18.3-49.1,36.3-74.7,55.1c0-8.2-0.3-15.5,0.1-22.6c0.3-4.9-1-6.4-6.2-6.4c-30.1,0.3-60.1,0-90.2,0.2
	c-4.8,0-6.5-1-6.4-6.2c0.4-14,0.3-28,0-41.9c-0.1-4.4,1.1-5.6,5.6-5.6c30.3,0.2,60.6,0,90.8,0.2c5.1,0,6.6-1.3,6.3-6.3
	c-0.4-6.7-0.1-13.4-0.1-21.5C-88.5,204.4-64.1,222.4-39.3,240.6z"/>
<path d="M-134.1,203c4.5-6.3,7.4-12.9,12.2-18.3c8.7-9.7,18.6-17.3,32.2-17.6c19.7-0.5,36.9,16.2,38.4,36
	c1.2,16.9-3.5,31.7-13.2,45.3c-15.2,21.1-34.4,38.2-54.1,54.9c-4.9,4.1-9.9,10.7-15.2,11c-5.4,0.4-10.2-6.9-15.1-11
	c-17.4-14.4-34.1-29.5-48.3-47.1c-12-14.8-20.7-30.8-19.3-50.7c1.1-15.6,7.8-27.6,21.9-34.6c14.1-7,27.4-4.3,39.6,5
	C-145.8,182.9-139.6,192.5-134.1,203z"/>
<path d="M-48.5,91.6c-20.6,1.2-41.8,7.2-56.6,21.6c-15.9,15.5-21.8,38.2-24,60.4c-0.8-21.6-9.5-43.2-24.7-58.6
	c-15.2-15.3-36.8-24.2-58.4-24c22.8-3.8,43.9-9.1,60.2-26.9c13.7-14.9,21.3-35.3,20.7-55.5c3.4,21.4,9.3,40.9,22.8,56
	c7.4,8.3,17.8,13.2,28.4,16.8S-60,89.2-48.5,91.6z"/>
<path d="M-140.9,106.5c5.3-12.8,0.1-22.4-13.4-29.5c-8.9-4.7-8.1-11,0.6-15.5c12.8-6.6,16.6-16.4,12.9-30.1
	c-2.3-8.3-0.3-14.8,10.4-11.8c14.3,4.1,24.6,0.7,31.6-13.1c4.6-9.2,11.3-8.2,15.6,0.3c6.5,12.8,15.6,17,29.6,13.1
	c11.6-3.3,15.9,2.2,11.8,13.5C-46.5,45.9-42,54-30.6,59.9c12,6.3,10.6,13.2-0.4,19c-11.5,6-15.1,14.3-10.7,26.8
	c3.7,10.6,0.3,17.5-11.8,13.4c-13.3-4.5-21.9-1.3-28.4,10.9c-6.3,12-13.5,10.5-19.1-0.5c-6-11.7-14.2-15.3-26.7-10.5
	C-137.1,122.4-142.9,119.7-140.9,106.5z"/>
<path d="M107.9,169c-32.4-0.1-62.5-27.3-65.8-60.5c-4.2-42.2,26.3-72,57.2-76.6c21.1-3.2,39.3,2,55.9,14.9c4,3.1,4.3,4.9,0.4,8.6
	c-13.4,12.9-26.2,26.5-39.7,39.2c-4.8,4.5-3.9,6.7,0.3,10.7c13,12.5,25.3,25.8,38.5,38.1c5.3,5,3.8,7.2-1,10.9
	C140.9,164.1,126.6,169.3,107.9,169z"/>
</svg>
