<?xml version="1.0" encoding="utf-8"?>
<!-- Generator: Adobe Illustrator 17.0.0, SVG Export Plug-In . SVG Version: 6.00 Build 0)  -->
<!DOCTYPE svg PUBLIC "-//W3C//DTD SVG 1.1//EN" "http://www.w3.org/Graphics/SVG/1.1/DTD/svg11.dtd">
<svg version="1.1" id="Layer_1" xmlns="http://www.w3.org/2000/svg" xmlns:xlink="http://www.w3.org/1999/xlink" x="0px" y="0px"
	 width="114.56px" height="114.737px" viewBox="88.632 35.983 114.56 114.737"
	 enable-background="new 88.632 35.983 114.56 114.737" xml:space="preserve">
<g>
	<g>
		<path fill="#6E7382" d="M145.912,150.611c-31.573,0-57.26-25.687-57.26-57.26s25.687-57.26,57.26-57.26s57.26,25.687,57.26,57.26
			S177.485,150.611,145.912,150.611z M145.912,36.828c-31.167,0-56.523,25.356-56.523,56.523s25.356,56.523,56.523,56.523
			s56.523-25.356,56.523-56.523S177.078,36.828,145.912,36.828z"/>
	</g>
	<g>
		<path fill="#6E7382" d="M145.912,143.71c-27.767,0-50.358-22.591-50.358-50.358c0-27.768,22.591-50.358,50.358-50.358
			s50.358,22.591,50.358,50.358C196.269,121.119,173.679,143.71,145.912,143.71z M145.912,43.73
			c-27.361,0-49.621,22.26-49.621,49.622c0,27.361,22.26,49.621,49.621,49.621s49.621-22.26,49.621-49.621
			C195.533,65.99,173.273,43.73,145.912,43.73z"/>
	</g>
	<g>
		<path fill="#6E7382" d="M145.912,136.808c-23.962,0-43.456-19.494-43.456-43.456s19.494-43.456,43.456-43.456
			s43.456,19.494,43.456,43.456S169.873,136.808,145.912,136.808z M145.912,50.632c-23.556,0-42.72,19.164-42.72,42.72
			s19.164,42.72,42.72,42.72s42.72-19.164,42.72-42.72S169.467,50.632,145.912,50.632z"/>
	</g>
	<g>
		<path fill="#6E7382" d="M145.912,129.906c-20.156,0-36.554-16.398-36.554-36.554s16.398-36.554,36.554-36.554
			s36.554,16.398,36.554,36.554S166.068,129.906,145.912,129.906z M145.912,57.534c-19.75,0-35.818,16.068-35.818,35.818
			s16.068,35.818,35.818,35.818s35.818-16.068,35.818-35.818S165.662,57.534,145.912,57.534z"/>
	</g>
	<g>
		<path fill="#6E7382" d="M145.912,123.004c-16.351,0-29.653-13.302-29.653-29.652s13.302-29.652,29.653-29.652
			s29.653,13.302,29.653,29.652S162.262,123.004,145.912,123.004z M145.912,64.436c-15.944,0-28.916,12.972-28.916,28.916
			s12.972,28.916,28.916,28.916s28.916-12.972,28.916-28.916S161.856,64.436,145.912,64.436z"/>
	</g>
	<g>
		<path fill="#6E7382" d="M145.912,116.102c-12.545,0-22.751-10.206-22.751-22.751s10.206-22.751,22.751-22.751
			c12.545,0,22.751,10.206,22.751,22.751S158.456,116.102,145.912,116.102z M145.912,71.337c-12.139,0-22.014,9.875-22.014,22.014
			s9.875,22.014,22.014,22.014s22.014-9.875,22.014-22.014S158.05,71.337,145.912,71.337z"/>
	</g>
	<g>
		<path fill="#6E7382" d="M145.912,109.201c-8.739,0-15.849-7.11-15.849-15.849s7.11-15.849,15.849-15.849
			c8.739,0,15.849,7.11,15.849,15.849S154.651,109.201,145.912,109.201z M145.912,78.239c-8.333,0-15.112,6.779-15.112,15.112
			s6.779,15.112,15.112,15.112s15.112-6.779,15.112-15.112S154.245,78.239,145.912,78.239z"/>
	</g>
	<g>
		<path fill="#6E7382" d="M145.912,102.299c-4.933,0-8.947-4.014-8.947-8.947c0-4.933,4.014-8.947,8.947-8.947
			c4.933,0,8.947,4.014,8.947,8.947C154.859,98.285,150.845,102.299,145.912,102.299z M145.912,85.141
			c-4.527,0-8.211,3.683-8.211,8.211c0,4.527,3.683,8.211,8.211,8.211s8.211-3.683,8.211-8.211
			C154.122,88.824,150.439,85.141,145.912,85.141z"/>
	</g>
</g>
</svg>
