<?xml version="1.0" encoding="utf-8"?>
<!-- Generator: Adobe Illustrator 23.0.1, SVG Export Plug-In . SVG Version: 6.00 Build 0)  -->
<svg version="1.1" id="Layer_1" xmlns="http://www.w3.org/2000/svg" xmlns:xlink="http://www.w3.org/1999/xlink" x="0px" y="0px"
	 viewBox="0 0 200 200" style="enable-background:new 0 0 200 200;" xml:space="preserve">
<path d="M99.8,71.1c4.5-6.3,7.4-12.9,12.2-18.3c8.7-9.7,18.6-17.3,32.2-17.6c19.7-0.5,36.9,16.2,38.4,36
	c1.2,16.9-3.5,31.7-13.2,45.3c-15.2,21.1-34.4,38.2-54.1,54.9c-4.9,4.1-9.9,10.7-15.2,11c-5.4,0.4-10.2-6.9-15.1-11
	c-17.4-14.4-34.1-29.5-48.3-47.1c-12-14.8-20.7-30.8-19.3-50.7c1.1-15.6,7.8-27.6,21.9-34.6c14.1-7,27.4-4.3,39.6,5
	C88.1,51.1,94.3,60.6,99.8,71.1z"/>
</svg>
