<?xml version="1.0" encoding="utf-8"?>
<!-- Generator: Adobe Illustrator 23.0.1, SVG Export Plug-In . SVG Version: 6.00 Build 0)  -->
<svg version="1.1" id="Layer_1" xmlns="http://www.w3.org/2000/svg" xmlns:xlink="http://www.w3.org/1999/xlink" x="0px" y="0px"
	 viewBox="0 0 200 200" style="enable-background:new 0 0 200 200;" xml:space="preserve">
<path d="M165.8,82.1C183.3,99.7,193,123,193,147.9h-1.2c0-50.6-41.2-91.8-91.8-91.8c-24.5,0-47.6,9.6-64.9,26.9S8.2,123.4,8.2,147.9
	l-1.2,0c0-24.9,9.7-48.2,27.3-65.8C51.8,64.5,75.2,54.8,100,54.8C124.8,54.8,148.2,64.5,165.8,82.1z"/>
<path d="M161.2,86.7c15.7,15.7,25.4,37.3,25.4,61.2h-1.2c0-47.1-38.3-85.4-85.4-85.4c-47.1,0-85.4,38.3-85.4,85.4h-1.2
	c0-47.8,38.9-86.6,86.6-86.6C123.9,61.3,145.5,71,161.2,86.7z"/>
<path d="M156.7,91.2c15.2,15.2,23.5,35.3,23.5,56.7H179c0-21.1-8.2-41-23.1-55.9C141,77.1,121.1,68.8,100,68.8
	c-21.1,0-41,8.2-55.9,23.1C29.2,106.9,21,126.8,21,147.9l-1.2,0c0-21.4,8.3-41.6,23.5-56.7S78.6,67.7,100,67.7
	C121.4,67.7,141.6,76,156.7,91.2z"/>
<path d="M152.2,95.7c13.4,13.4,21.6,31.8,21.6,52.2h-1.2c0-40.1-32.6-72.6-72.6-72.6c-40.1,0-72.6,32.6-72.6,72.6h-1.2
	c0-40.7,33.1-73.8,73.8-73.8C120.3,74.1,138.8,82.3,152.2,95.7z"/>
<path d="M147.6,100.2c12.2,12.2,19.8,29.1,19.8,47.7h-1.2c0-36.5-29.7-66.2-66.2-66.2c-36.5,0-66.2,29.7-66.2,66.2l-1.2,0
	c0-37.2,30.3-67.4,67.4-67.4C118.6,80.5,135.4,88,147.6,100.2z"/>
<path d="M143.1,104.8c11.1,11.1,17.9,26.3,17.9,43.1h-1.2c0-33-26.8-59.8-59.8-59.8c-16,0-31,6.2-42.3,17.5s-17.5,26.3-17.5,42.3
	l-1.2,0c0-16.3,6.4-31.6,17.9-43.2S83.7,86.9,100,86.9C116.8,86.9,132.1,93.7,143.1,104.8z"/>
<path d="M138.6,109.3c9.9,9.9,16,23.5,16,38.6h-1.2c0-29.5-24-53.4-53.4-53.4c-29.5,0-53.4,24-53.4,53.4l-1.2,0
	c0-30.1,24.5-54.6,54.6-54.6C115,93.3,128.7,99.4,138.6,109.3z"/>
</svg>
