<?xml version="1.0" encoding="utf-8"?>
<!-- Generator: Adobe Illustrator 23.0.1, SVG Export Plug-In . SVG Version: 6.00 Build 0)  -->
<svg version="1.1" id="Layer_1" xmlns="http://www.w3.org/2000/svg" xmlns:xlink="http://www.w3.org/1999/xlink" x="0px" y="0px"
	 viewBox="0 0 200 200" style="enable-background:new 0 0 200 200;" xml:space="preserve">
<g>
	<path d="M22.7,55l33.2-33.2c-5.9,3.4-11.4,7.4-16.3,12l-4.9,4.9C30.1,43.7,26.1,49.1,22.7,55z"/>
	<path d="M12.8,81.5l69.6-69.6c-1.9,0.4-3.8,0.8-5.7,1.4L14.1,75.8C13.6,77.6,13.2,79.5,12.8,81.5z"/>
	<path d="M11,99.1c0,0.2,0,0.4,0,0.6l89.5-89.5c-0.2,0-0.4,0-0.6,0c-1.3,0-2.6,0-3.9,0.1l-85,85C11,96.6,11,97.8,11,99.1z"/>
	<path d="M12.4,114.8L115.7,11.5c-1.2-0.2-2.5-0.4-3.8-0.6L11.8,111C12,112.3,12.2,113.6,12.4,114.8z"/>
	<path d="M15.8,127.9l113-113c-1.1-0.4-2.2-0.7-3.3-1.1L14.7,124.6C15.1,125.7,15.4,126.8,15.8,127.9z"/>
	<path d="M20.7,139.5L140.4,19.8c-1-0.5-1.9-1-2.9-1.4L19.2,136.6C19.7,137.6,20.2,138.5,20.7,139.5z"/>
	<path d="M26.8,149.8L150.7,26c-0.9-0.6-1.7-1.2-2.6-1.8l-123,123C25.7,148.1,26.3,149,26.8,149.8z"/>
	<path d="M34.2,159L159.9,33.3c-0.8-0.7-1.5-1.4-2.3-2L32.1,156.7C32.8,157.5,33.5,158.2,34.2,159z"/>
	<path d="M42.6,167.1L168,41.7c-0.7-0.8-1.3-1.6-2-2.3L40.2,165.1C41,165.8,41.8,166.4,42.6,167.1z"/>
	<path d="M52.1,174.1L175,51.2c-0.6-0.9-1.1-1.8-1.8-2.6L49.4,172.4C50.3,173,51.2,173.6,52.1,174.1z"/>
	<path d="M62.7,180L180.8,61.8c-0.5-1-0.9-2-1.4-2.9L59.8,178.5C60.7,179,61.7,179.5,62.7,180z"/>
	<path d="M74.7,184.5L185.4,73.8c-0.3-1.1-0.7-2.2-1-3.3L71.4,183.5C72.5,183.8,73.6,184.1,74.7,184.5z"/>
	<path d="M88.3,187.4l99.9-99.9c-0.2-1.3-0.4-2.5-0.6-3.8L84.5,186.8C85.8,187,87,187.2,88.3,187.4z"/>
	<path d="M100,188.1c1.4,0,2.7,0,4.1-0.1l84.8-84.8c0.1-1.4,0.1-2.7,0.1-4.1c0-0.1,0-0.2,0-0.3l-89.3,89.3
		C99.8,188.1,99.9,188.1,100,188.1z"/>
	<path d="M123.7,184.9l62.1-62.1c0.5-1.9,1-3.8,1.4-5.7L118,186.3C119.9,185.9,121.8,185.5,123.7,184.9z"/>
	<path d="M177,143.8l-32.4,32.4C158,168.3,169.2,157.2,177,143.8z"/>
</g>
</svg>
