<?xml version="1.0" encoding="utf-8"?>
<!-- Generator: Adobe Illustrator 23.0.1, SVG Export Plug-In . SVG Version: 6.00 Build 0)  -->
<svg version="1.1" id="Layer_1" xmlns="http://www.w3.org/2000/svg" xmlns:xlink="http://www.w3.org/1999/xlink" x="0px" y="0px"
	 viewBox="0 0 200 200" style="enable-background:new 0 0 200 200;" xml:space="preserve">
<style type="text/css">
	.st0{fill:#0D0E0F;}
</style>
<path d="M144.5,71.5c-0.2,3.3,0,7.2-1.6,10.7c-2.1,4.7-0.9,6.5,4.4,7.7c14.5,3.3,24.2,12.5,29,26.5c6.2,17.9-1.5,37.7-18.1,47.3
	c-16.4,9.5-37.2,6.4-50-8.2c-3.7-4.2-5.2-5.1-9.3-0.3c-11.7,13.7-30.1,17.5-46.1,10.5c-15.6-6.8-25.7-23.5-24.1-39.7
	c1.8-18.5,13.9-32.5,31.9-36.3c5.4-1.1,6.6-2.4,5-8.2C61.1,65.2,65.8,51,78.8,40.3c12.6-10.4,26.9-12.3,42-5.6
	C135.5,41.2,144.3,55.1,144.5,71.5z"/>
</svg>
