<?xml version="1.0" encoding="utf-8"?>
<!-- Generator: Adobe Illustrator 23.0.1, SVG Export Plug-In . SVG Version: 6.00 Build 0)  -->
<svg version="1.1" id="Layer_1" xmlns="http://www.w3.org/2000/svg" xmlns:xlink="http://www.w3.org/1999/xlink" x="0px" y="0px"
	 viewBox="0 0 200 200" style="enable-background:new 0 0 200 200;" xml:space="preserve">
<g>
	<path d="M114.4,169.6c-22.9,0-44.4-8.9-60.5-25.1c-13-13-20.2-30.4-20.2-48.9c0-18.5,7.2-35.8,20.2-48.9
		c10.6-10.6,24.6-16.4,39.5-16.4s29,5.8,39.5,16.4c8.6,8.6,13.3,19.9,13.3,32s-4.7,23.5-13.3,32c-7,7-16.2,10.8-26.1,10.8
		c-9.8,0-19.1-3.8-26.1-10.8c-11.7-11.7-11.7-30.8,0-42.6c4.7-4.7,10.9-7.2,17.5-7.2c6.6,0,12.8,2.6,17.5,7.2
		c7.9,7.9,7.9,20.8,0,28.8c-6.6,6.6-17.3,6.6-23.9,0c-5.5-5.5-5.5-14.5,0-20l4.3,4.3c-3.1,3.1-3.1,8.2,0,11.4
		c4.2,4.2,11.1,4.2,15.3,0c5.6-5.6,5.6-14.6,0-20.2c-3.5-3.5-8.2-5.4-13.2-5.4c-5,0-9.6,1.9-13.2,5.4c-4.5,4.5-7,10.6-7,17
		c0,6.4,2.5,12.4,7,17c5.8,5.8,13.5,9,21.8,9s16-3.2,21.8-9c7.4-7.4,11.5-17.3,11.5-27.7s-4.1-20.3-11.5-27.7
		c-9.4-9.4-21.9-14.6-35.2-14.6c-13.3,0-25.8,5.2-35.2,14.6C46.3,63,39.8,78.8,39.8,95.6c0,16.8,6.6,32.7,18.5,44.6
		c15,15,35,23.3,56.2,23.3s41.2-8.3,56.2-23.3l4.3,4.3C158.8,160.7,137.3,169.6,114.4,169.6z"/>
</g>
</svg>
