<svg width="26" height="23" viewBox="0 0 26 23" fill="none" xmlns="http://www.w3.org/2000/svg">
<path fill-rule="evenodd" clip-rule="evenodd" d="M0 11.4999C0 10.7942 0.572081 10.2222 1.27778 10.2222H24.2778C24.9835 10.2222 25.5556 10.7942 25.5556 11.4999C25.5556 12.2056 24.9835 12.7777 24.2778 12.7777H1.27778C0.572081 12.7777 0 12.2056 0 11.4999Z" />
<path fill-rule="evenodd" clip-rule="evenodd" d="M5.11176 15.3333C5.81746 15.3333 6.38954 15.9053 6.38954 16.611V20.4444H8.9451V16.611C8.9451 15.9053 9.51718 15.3333 10.2229 15.3333C10.9286 15.3333 11.5007 15.9053 11.5007 16.611V21.7221C11.5007 22.4278 10.9286 22.9999 10.2229 22.9999H5.11176C4.40606 22.9999 3.83398 22.4278 3.83398 21.7221V16.611C3.83398 15.9053 4.40606 15.3333 5.11176 15.3333Z" />
<path fill-rule="evenodd" clip-rule="evenodd" d="M15.3325 15.3333C16.0382 15.3333 16.6102 15.9053 16.6102 16.611V17.8888H19.1658V16.611C19.1658 15.9053 19.7379 15.3333 20.4436 15.3333C21.1493 15.3333 21.7214 15.9053 21.7214 16.611V19.1666C21.7214 19.8723 21.1493 20.4444 20.4436 20.4444H15.3325C14.6268 20.4444 14.0547 19.8723 14.0547 19.1666V16.611C14.0547 15.9053 14.6268 15.3333 15.3325 15.3333Z" />
<path fill-rule="evenodd" clip-rule="evenodd" d="M14.0547 3.83344C14.0547 3.12774 14.6268 2.55566 15.3325 2.55566H20.4436C21.1493 2.55566 21.7214 3.12774 21.7214 3.83344V6.389C21.7214 7.09469 21.1493 7.66677 20.4436 7.66677C19.7379 7.66677 19.1658 7.09469 19.1658 6.389V5.11122H16.6102V6.389C16.6102 7.09469 16.0382 7.66677 15.3325 7.66677C14.6268 7.66677 14.0547 7.09469 14.0547 6.389V3.83344Z" />
<path fill-rule="evenodd" clip-rule="evenodd" d="M3.83398 1.27778C3.83398 0.572081 4.40606 0 5.11176 0H10.2229C10.9286 0 11.5007 0.572081 11.5007 1.27778V6.38889C11.5007 7.09459 10.9286 7.66667 10.2229 7.66667C9.51718 7.66667 8.9451 7.09459 8.9451 6.38889V2.55556H6.38954V6.38889C6.38954 7.09459 5.81746 7.66667 5.11176 7.66667C4.40606 7.66667 3.83398 7.09459 3.83398 6.38889V1.27778Z" />
</svg>
