<svg width="23" height="23" viewBox="0 0 23 23" fill="none" xmlns="http://www.w3.org/2000/svg">
<path fill-rule="evenodd" clip-rule="evenodd" d="M17.4901 5.45763C17.2527 5.23148 16.9371 5.10489 16.6084 5.10489H12.7822V1.27822C12.7819 0.939321 12.6471 0.614397 12.4075 0.374757C12.1678 0.135118 11.8429 0.00033943 11.504 0H1.27822C0.93932 0.000338476 0.614396 0.135117 0.374756 0.374756C0.135116 0.614396 0.000338312 0.93932 0 1.27822V11.504C0.000337359 11.8429 0.135115 12.1678 0.374755 12.4075C0.614395 12.6471 0.939319 12.7819 1.27822 12.7822H5.10442V16.6089C5.10442 16.9479 5.23909 17.273 5.4788 17.5127C5.48884 17.5228 5.49905 17.5326 5.50938 17.5423C5.74678 17.7685 6.06242 17.8951 6.39111 17.8951H10.2173V21.7218C10.2176 22.0607 10.3524 22.3856 10.5921 22.6252C10.8317 22.8649 11.1566 22.9997 11.4955 23H21.7213C22.0602 22.9997 22.3851 22.8649 22.6248 22.6252C22.8644 22.3856 22.9992 22.0607 22.9995 21.7218V11.496C22.9992 11.1571 22.8644 10.8322 22.6248 10.5925C22.3851 10.3529 22.0602 10.2181 21.7213 10.2178H17.8951V6.39111C17.8951 6.05211 17.7604 5.72698 17.5207 5.48727C17.5107 5.47721 17.5004 5.46733 17.4901 5.45763ZM11.4955 17.8951H16.6169C16.9559 17.8951 17.281 17.7604 17.5207 17.5207C17.7604 17.281 17.8951 16.9559 17.8951 16.6169L17.8951 11.496H21.7213L21.7226 21.7218H11.4955V17.8951ZM11.504 5.10489H6.38264C6.04364 5.10489 5.71851 5.23956 5.4788 5.47928C5.23909 5.71899 5.10442 6.04411 5.10442 6.38312V11.504H1.27822L1.27694 1.27822L11.504 1.27822L11.504 5.10489Z" fill="#2B3377"/>
</svg>
