<svg width="19" height="23" viewBox="0 0 19 23" fill="none" xmlns="http://www.w3.org/2000/svg">
<path d="M12.5455 20.9091H14.6364V18.8182H12.5455V20.9091ZM16.7273 8.36364H18.8182V6.27273H16.7273V8.36364ZM0 4.18182V18.8182C0 19.9682 0.940909 20.9091 2.09091 20.9091H6.27273V18.8182H2.09091V4.18182H6.27273V2.09091H2.09091C0.940909 2.09091 0 3.03182 0 4.18182ZM16.7273 2.09091V4.18182H18.8182C18.8182 3.03182 17.8773 2.09091 16.7273 2.09091ZM8.36364 23H10.4545V0H8.36364V23ZM16.7273 16.7273H18.8182V14.6364H16.7273V16.7273ZM12.5455 4.18182H14.6364V2.09091H12.5455V4.18182ZM16.7273 12.5455H18.8182V10.4545H16.7273V12.5455ZM16.7273 20.9091C17.8773 20.9091 18.8182 19.9682 18.8182 18.8182H16.7273V20.9091Z" />
</svg>
