<svg width="26" height="24" viewBox="0 0 26 24" fill="none" xmlns="http://www.w3.org/2000/svg">
<path fill-rule="evenodd" clip-rule="evenodd" d="M24.3981 0C25.0398 0 25.56 0.520164 25.56 1.16182V22.0745C25.56 22.7162 25.0398 23.2364 24.3981 23.2364C23.7565 23.2364 23.2363 22.7162 23.2363 22.0745V1.16182C23.2363 0.520164 23.7565 0 24.3981 0Z" fill="#2B3377"/>
<path fill-rule="evenodd" clip-rule="evenodd" d="M0 4.64723C0 4.00558 0.520164 3.48541 1.16182 3.48541H19.7509C20.3926 3.48541 20.9127 4.00558 20.9127 4.64723V9.2945C20.9127 9.93616 20.3926 10.4563 19.7509 10.4563H1.16182C0.520164 10.4563 0 9.93616 0 9.2945V4.64723ZM2.32364 5.80905V8.13269H18.5891V5.80905H2.32364Z" fill="#2B3377"/>
<path fill-rule="evenodd" clip-rule="evenodd" d="M6.9707 13.9418C6.9707 13.3001 7.49087 12.78 8.13252 12.78H19.7507C20.3924 12.78 20.9125 13.3001 20.9125 13.9418V18.5891C20.9125 19.2307 20.3924 19.7509 19.7507 19.7509H8.13252C7.49087 19.7509 6.9707 19.2307 6.9707 18.5891V13.9418ZM9.29434 15.1036V17.4272H18.5889V15.1036H9.29434Z" fill="#2B3377"/>
</svg>
