<svg width="24" height="23" viewBox="0 0 24 23" fill="none" xmlns="http://www.w3.org/2000/svg">
<path d="M12.9376 16.6751C13.9288 16.6751 14.8795 16.2813 15.5804 15.5804C16.2813 14.8795 16.6751 13.9288 16.6751 12.9376V3.73752C16.6751 2.74627 16.2813 1.79562 15.5804 1.0947C14.8795 0.393774 13.9288 0 12.9376 0H3.73752C2.74627 0 1.79562 0.393774 1.0947 1.0947C0.393774 1.79562 0 2.74627 0 3.73752V12.9376C0 13.9288 0.393774 14.8795 1.0947 15.5804C1.79562 16.2813 2.74627 16.6751 3.73752 16.6751H12.9376Z" />
<path d="M6.32617 17.8248H8.05118V19.2623C8.05118 20.3732 8.95279 21.2748 10.0637 21.2748H19.2638C19.7975 21.2748 20.3094 21.0628 20.6868 20.6854C21.0642 20.3079 21.2763 19.796 21.2763 19.2623V10.0622C21.2763 9.52848 21.0642 9.01659 20.6868 8.63917C20.3094 8.26175 19.7975 8.04972 19.2638 8.04972H17.8262V6.32471H19.2638C19.7546 6.32471 20.2406 6.42138 20.694 6.60921C21.1475 6.79704 21.5595 7.07234 21.9066 7.4194C22.2536 7.76646 22.529 8.17849 22.7168 8.63194C22.9046 9.0854 23.0013 9.57141 23.0013 10.0622V19.2623C23.0013 19.7531 22.9046 20.2391 22.7168 20.6926C22.529 21.146 22.2536 21.5581 21.9066 21.9051C21.5595 22.2522 21.1475 22.5275 20.694 22.7153C20.2406 22.9031 19.7546 22.9998 19.2638 22.9998H10.0637C9.57288 22.9998 9.08687 22.9031 8.63341 22.7153C8.17995 22.5275 7.76793 22.2522 7.42087 21.9051C7.07381 21.5581 6.7985 21.146 6.61067 20.6926C6.42285 20.2391 6.32617 19.7531 6.32617 19.2623V17.8248Z" />
</svg>
