<svg width="26" height="29" viewBox="0 0 26 29" fill="none" xmlns="http://www.w3.org/2000/svg">
<path fill-rule="evenodd" clip-rule="evenodd" d="M0 1.278C0 0.57218 0.57218 0 1.278 0H24.282C24.9878 0 25.56 0.57218 25.56 1.278C25.56 1.98382 24.9878 2.556 24.282 2.556H1.278C0.57218 2.556 0 1.98382 0 1.278Z" fill="#2B3377"/>
<path fill-rule="evenodd" clip-rule="evenodd" d="M3.83398 6.38995C3.83398 5.68413 4.40616 5.11195 5.11198 5.11195H10.224C10.9298 5.11195 11.502 5.68413 11.502 6.38995V26.838C11.502 27.5438 10.9298 28.116 10.224 28.116H5.11198C4.40616 28.116 3.83398 27.5438 3.83398 26.838V6.38995ZM6.38998 7.66795V25.56H8.94598V7.66795H6.38998Z" fill="#2B3377"/>
<path fill-rule="evenodd" clip-rule="evenodd" d="M14.0576 6.38995C14.0576 5.68413 14.6298 5.11195 15.3356 5.11195H20.4476C21.1534 5.11195 21.7256 5.68413 21.7256 6.38995V19.17C21.7256 19.8758 21.1534 20.448 20.4476 20.448H15.3356C14.6298 20.448 14.0576 19.8758 14.0576 19.17V6.38995ZM16.6136 7.66795V17.892H19.1696V7.66795H16.6136Z" fill="#2B3377"/>
</svg>
