<svg width="26" height="29" viewBox="0 0 26 29" fill="none" xmlns="http://www.w3.org/2000/svg">
<path fill-rule="evenodd" clip-rule="evenodd" d="M0 26.8381C0 26.1322 0.57218 25.5601 1.278 25.5601H24.282C24.9878 25.5601 25.56 26.1322 25.56 26.8381C25.56 27.5439 24.9878 28.1161 24.282 28.1161H1.278C0.57218 28.1161 0 27.5439 0 26.8381Z" fill="#2B3377"/>
<path fill-rule="evenodd" clip-rule="evenodd" d="M3.83398 1.278C3.83398 0.57218 4.40616 0 5.11198 0H10.224C10.9298 0 11.502 0.57218 11.502 1.278V21.726C11.502 22.4318 10.9298 23.004 10.224 23.004H5.11198C4.40616 23.004 3.83398 22.4318 3.83398 21.726V1.278ZM6.38998 2.556V20.448H8.94598V2.556H6.38998Z" fill="#2B3377"/>
<path fill-rule="evenodd" clip-rule="evenodd" d="M14.0576 8.94621C14.0576 8.24039 14.6298 7.66821 15.3356 7.66821H20.4476C21.1534 7.66821 21.7256 8.24039 21.7256 8.94621V21.7262C21.7256 22.432 21.1534 23.0042 20.4476 23.0042H15.3356C14.6298 23.0042 14.0576 22.432 14.0576 21.7262V8.94621ZM16.6136 10.2242V20.4482H19.1696V10.2242H16.6136Z" fill="#2B3377"/>
</svg>
