<svg width="23" height="23" viewBox="0 0 23 23" fill="none" xmlns="http://www.w3.org/2000/svg">
<path d="M4.41242 0.547852C4.58329 0.547852 4.74716 0.615728 4.86798 0.73655C4.9888 0.857372 5.05668 1.02124 5.05668 1.19211V17.9428H21.8074C21.9782 17.9428 22.1421 18.0107 22.2629 18.1315C22.3838 18.2523 22.4516 18.4162 22.4516 18.5871C22.4516 18.7579 22.3838 18.9218 22.2629 19.0426C22.1421 19.1634 21.9782 19.2313 21.8074 19.2313H19.2303V21.8084C19.2303 21.9792 19.1625 22.1431 19.0416 22.2639C18.9208 22.3847 18.757 22.4526 18.5861 22.4526C18.4152 22.4526 18.2514 22.3847 18.1305 22.2639C18.0097 22.1431 17.9418 21.9792 17.9418 21.8084V19.2313H4.41242C4.24155 19.2313 4.07768 19.1634 3.95686 19.0426C3.83604 18.9218 3.76816 18.7579 3.76816 18.5871V5.05766H1.19113C1.02026 5.05766 0.856395 4.98978 0.735574 4.86896C0.614752 4.74814 0.546875 4.58427 0.546875 4.4134C0.546875 4.24253 0.614752 4.07866 0.735574 3.95784C0.856395 3.83702 1.02026 3.76914 1.19113 3.76914H3.76816V1.19211C3.76816 1.02124 3.83604 0.857372 3.95686 0.73655C4.07768 0.615728 4.24155 0.547852 4.41242 0.547852ZM7.63371 4.4134C7.63371 4.24253 7.70159 4.07866 7.82241 3.95784C7.94323 3.83702 8.1071 3.76914 8.27797 3.76914H18.5861C18.757 3.76914 18.9208 3.83702 19.0416 3.95784C19.1625 4.07866 19.2303 4.24253 19.2303 4.4134V14.7215C19.2303 14.8924 19.1625 15.0563 19.0416 15.1771C18.9208 15.2979 18.757 15.3658 18.5861 15.3658C18.4152 15.3658 18.2514 15.2979 18.1305 15.1771C18.0097 15.0563 17.9418 14.8924 17.9418 14.7215V5.05766H8.27797C8.1071 5.05766 7.94323 4.98978 7.82241 4.86896C7.70159 4.74814 7.63371 4.58427 7.63371 4.4134Z" fill="#2B3377"/>
<path fill-rule="evenodd" clip-rule="evenodd" d="M4.41317 1.09524C4.38754 1.09524 4.36295 1.10542 4.34483 1.12354C4.32671 1.14167 4.31653 1.16625 4.31653 1.19188V4.31653H1.19188C1.16625 4.31653 1.14167 4.32671 1.12354 4.34483C1.10542 4.36295 1.09524 4.38754 1.09524 4.41317C1.09524 4.4388 1.10542 4.46338 1.12354 4.4815C1.14167 4.49962 1.16625 4.5098 1.19188 4.5098H4.31653V18.5868C4.31653 18.6125 4.32671 18.637 4.34483 18.6552C4.36295 18.6733 4.38753 18.6835 4.41317 18.6835H18.4902V21.8081C18.4902 21.8338 18.5004 21.8583 18.5185 21.8765C18.5366 21.8946 18.5612 21.9048 18.5868 21.9048C18.6125 21.9048 18.637 21.8946 18.6552 21.8765C18.6733 21.8583 18.6835 21.8338 18.6835 21.8081V18.6835H21.8081C21.8338 18.6835 21.8583 18.6733 21.8765 18.6552C21.8946 18.637 21.9048 18.6125 21.9048 18.5868C21.9048 18.5612 21.8946 18.5366 21.8765 18.5185C21.8583 18.5004 21.8338 18.4902 21.8081 18.4902H4.5098V1.19188C4.5098 1.16625 4.49962 1.14167 4.4815 1.12354C4.46338 1.10542 4.4388 1.09524 4.41317 1.09524ZM3.57038 0.349093C3.7939 0.125572 4.09706 0 4.41317 0C4.72927 0 5.03243 0.125572 5.25595 0.349093C5.47947 0.572613 5.60504 0.875771 5.60504 1.19188V17.395H21.8081C22.1242 17.395 22.4274 17.5205 22.6509 17.7441C22.8744 17.9676 23 18.2707 23 18.5868C23 18.9029 22.8744 19.2061 22.6509 19.4296C22.4274 19.6531 22.1242 19.7787 21.8081 19.7787H19.7787V21.8081C19.7787 22.1242 19.6531 22.4274 19.4296 22.6509C19.2061 22.8744 18.9029 23 18.5868 23C18.2707 23 17.9676 22.8744 17.7441 22.6509C17.5205 22.4274 17.395 22.1242 17.395 21.8081V19.7787H4.41317C4.09706 19.7787 3.7939 19.6531 3.57038 19.4296C3.34686 19.2061 3.22129 18.9029 3.22129 18.5868V5.60504H1.19188C0.875771 5.60504 0.572613 5.47947 0.349093 5.25595C0.125572 5.03243 0 4.72927 0 4.41317C0 4.09706 0.125572 3.7939 0.349093 3.57038C0.572613 3.34686 0.875771 3.22129 1.19188 3.22129H3.22129V1.19188C3.22129 0.875771 3.34686 0.572613 3.57038 0.349093ZM8.27871 4.31653C8.25308 4.31653 8.2285 4.32671 8.21038 4.34483C8.19225 4.36296 8.18207 4.38754 8.18207 4.41317C8.18207 4.4388 8.19225 4.46338 8.21038 4.4815C8.2285 4.49962 8.25308 4.5098 8.27871 4.5098H18.4902V14.7213C18.4902 14.7469 18.5004 14.7715 18.5185 14.7896C18.5366 14.8077 18.5612 14.8179 18.5868 14.8179C18.6125 14.8179 18.637 14.8077 18.6552 14.7896C18.6733 14.7715 18.6835 14.7469 18.6835 14.7213V4.41317C18.6835 4.38753 18.6733 4.36295 18.6552 4.34483C18.637 4.32671 18.6125 4.31653 18.5868 4.31653H8.27871ZM7.43593 3.57038C7.65945 3.34686 7.96261 3.22129 8.27871 3.22129H18.5868C18.9029 3.22129 19.2061 3.34686 19.4296 3.57038C19.6531 3.7939 19.7787 4.09706 19.7787 4.41317V14.7213C19.7787 15.0374 19.6531 15.3406 19.4296 15.5641C19.2061 15.7876 18.9029 15.9132 18.5868 15.9132C18.2707 15.9132 17.9676 15.7876 17.7441 15.5641C17.5205 15.3406 17.395 15.0374 17.395 14.7213V5.60504H8.27871C7.96261 5.60504 7.65945 5.47947 7.43593 5.25595C7.21241 5.03243 7.08684 4.72927 7.08684 4.41317C7.08684 4.09706 7.21241 3.7939 7.43593 3.57038Z" fill="#2B3377"/>
</svg>
