<svg width="20" height="20" viewBox="0 0 20 20" fill="none" xmlns="http://www.w3.org/2000/svg">
<path d="M12.8249 5.19956H1.97499C1.45137 5.20014 0.949361 5.40841 0.579104 5.77868C0.208848 6.14895 0.000582302 6.65098 0 7.17462V18.0249C0.000582302 18.5486 0.208848 19.0506 0.579104 19.4209C0.949361 19.7911 1.45137 19.9994 1.97499 20H12.8249C13.3486 19.9994 13.8506 19.7911 14.2208 19.4209C14.5911 19.0506 14.7993 18.5486 14.7999 18.0249V7.17462C14.7993 6.65098 14.5911 6.14895 14.2208 5.77868C13.8506 5.40841 13.3486 5.20014 12.8249 5.19956ZM12.3999 17.5999H2.39999V7.59963H12.3999V17.5999ZM10.4 1.20004C10.4 0.881767 10.5265 0.576533 10.7515 0.351482C10.9766 0.126432 11.2818 0 11.6 0H13.2C13.5183 0 13.8235 0.126432 14.0486 0.351482C14.2736 0.576533 14.4 0.881767 14.4 1.20004C14.4 1.51831 14.2736 1.82354 14.0486 2.04859C13.8235 2.27364 13.5183 2.40007 13.2 2.40007H11.6C11.2818 2.40007 10.9766 2.27364 10.7515 2.04859C10.5265 1.82354 10.4 1.51831 10.4 1.20004ZM20 2.00006V2.80008C20 3.11835 19.8736 3.42359 19.6485 3.64864C19.4235 3.87369 19.1183 4.00012 18.8 4.00012C18.4817 4.00012 18.1765 3.87369 17.9515 3.64864C17.7264 3.42359 17.6 3.11835 17.6 2.80008V2.40007H17.2C16.8818 2.40007 16.5765 2.27364 16.3515 2.04859C16.1264 1.82354 16 1.51831 16 1.20004C16 0.881767 16.1264 0.576533 16.3515 0.351482C16.5765 0.126432 16.8818 0 17.2 0H18C18.5303 0.000608752 19.0386 0.211524 19.4135 0.586476C19.7885 0.961428 19.9994 1.4698 20 2.00006ZM20 6.8002V8.40025C20 8.71852 19.8736 9.02376 19.6485 9.24881C19.4235 9.47386 19.1183 9.60029 18.8 9.60029C18.4817 9.60029 18.1765 9.47386 17.9515 9.24881C17.7264 9.02376 17.6 8.71852 17.6 8.40025V6.8002C17.6 6.48193 17.7264 6.1767 17.9515 5.95165C18.1765 5.7266 18.4817 5.60017 18.8 5.60017C19.1183 5.60017 19.4235 5.7266 19.6485 5.95165C19.8736 6.1767 20 6.48193 20 6.8002ZM20 12.4004V13.2004C19.9994 13.7307 19.7885 14.239 19.4135 14.614C19.0386 14.9889 18.5303 15.1998 18 15.2005H17.2C16.8818 15.2005 16.5765 15.074 16.3515 14.849C16.1264 14.6239 16 14.3187 16 14.0004C16 13.6821 16.1264 13.3769 16.3515 13.1519C16.5765 12.9268 16.8818 12.8004 17.2 12.8004H17.6V12.4004C17.6 12.0821 17.7264 11.7769 17.9515 11.5518C18.1765 11.3268 18.4817 11.2003 18.8 11.2003C19.1183 11.2003 19.4235 11.3268 19.6485 11.5518C19.8736 11.7769 20 12.0821 20 12.4004ZM4.80008 2.80008V2.00006C4.80068 1.4698 5.01159 0.961428 5.38653 0.586476C5.76147 0.211524 6.26982 0.000608752 6.80007 0H7.60006C7.91832 0 8.22354 0.126432 8.44859 0.351482C8.67363 0.576533 8.80006 0.881767 8.80006 1.20004C8.80006 1.51831 8.67363 1.82354 8.44859 2.04859C8.22354 2.27364 7.91832 2.40007 7.60006 2.40007H7.20006V2.80008C7.20006 3.11835 7.07364 3.42359 6.84859 3.64864C6.62355 3.87369 6.31833 4.00012 6.00007 4.00012C5.68181 4.00012 5.37659 3.87369 5.15155 3.64864C4.9265 3.42359 4.80008 3.11835 4.80008 2.80008Z" />
</svg>
