<svg width="23" height="23" viewBox="0 0 23 23" fill="none" xmlns="http://www.w3.org/2000/svg">
<path d="M2.3 22.9999H16.1C16.71 22.9999 17.295 22.7575 17.7263 22.3262C18.1577 21.8949 18.4 21.3099 18.4 20.6999V6.89985C18.4 6.28986 18.1577 5.70484 17.7263 5.27351C17.295 4.84217 16.71 4.59985 16.1 4.59985H2.3C1.69 4.59985 1.10499 4.84217 0.673654 5.27351C0.242321 5.70484 0 6.28986 0 6.89985V20.6999C0 21.3099 0.242321 21.8949 0.673654 22.3262C1.10499 22.7575 1.69 22.9999 2.3 22.9999ZM4.6 12.6499H8.05V9.19985H10.35V12.6499H13.8V14.9499H10.35V18.3999H8.05V14.9499H4.6V12.6499Z" />
<path d="M20.6984 0H6.89844V2.3H20.6984V16.1H22.9984V2.3C22.9984 1.03155 21.9669 0 20.6984 0Z" />
</svg>
