<svg width="22" height="23" viewBox="0 0 22 23" fill="none" xmlns="http://www.w3.org/2000/svg">
<path d="M21.0833 4.14H17.4167V1.84C17.4167 0.825125 16.5945 0 15.5833 0H6.41667C5.40547 0 4.58333 0.825125 4.58333 1.84V4.14H0.916667C0.409635 4.14 0 4.55113 0 5.06V5.98C0 6.1065 0.103125 6.21 0.229167 6.21H1.95937L2.66693 21.2463C2.71276 22.2266 3.52057 23 4.4974 23H17.5026C18.4823 23 19.2872 22.2295 19.3331 21.2463L20.0406 6.21H21.7708C21.8969 6.21 22 6.1065 22 5.98V5.06C22 4.55113 21.5904 4.14 21.0833 4.14ZM15.3542 4.14H6.64583V2.07H15.3542V4.14Z" />
</svg>
