<svg width="23" height="21" viewBox="0 0 23 21" fill="none" xmlns="http://www.w3.org/2000/svg">
<path d="M10.9683 14.9446C10.9906 14.9731 11.0192 14.9962 11.0517 15.0121C11.0843 15.0279 11.12 15.0362 11.1562 15.0362C11.1925 15.0362 11.2282 15.0279 11.2608 15.0121C11.2933 14.9962 11.3219 14.9731 11.3442 14.9446L14.6851 10.7178C14.8074 10.5626 14.697 10.333 14.4972 10.333H12.2868V0.238636C12.2868 0.107386 12.1794 0 12.0482 0H10.2584C10.1271 0 10.0197 0.107386 10.0197 0.238636V10.33H7.81534C7.61548 10.33 7.50511 10.5597 7.62742 10.7148L10.9683 14.9446ZM22.0739 13.9006H20.2841C20.1528 13.9006 20.0455 14.008 20.0455 14.1392V18.733H2.26705V14.1392C2.26705 14.008 2.15966 13.9006 2.02841 13.9006H0.238636C0.107386 13.9006 0 14.008 0 14.1392V20.0455C0 20.5734 0.426562 21 0.954545 21H21.358C21.8859 21 22.3125 20.5734 22.3125 20.0455V14.1392C22.3125 14.008 22.2051 13.9006 22.0739 13.9006Z" fill="white"/>
</svg>
