<svg width="23" height="21" viewBox="0 0 23 21" fill="none" xmlns="http://www.w3.org/2000/svg">
<path d="M15.0014 14.2502H0.751655C0.620732 14.2505 0.492014 14.2165 0.378299 14.1516C0.264585 14.0867 0.169837 13.9932 0.103477 13.8803C0.0371174 13.7675 0.00145752 13.6392 4.37396e-05 13.5083C-0.00137004 13.3774 0.0315116 13.2484 0.0954188 13.1341L7.22027 0.384369C7.28534 0.267826 7.38033 0.17076 7.49545 0.103192C7.61056 0.035623 7.74162 0 7.8751 0C8.00858 0 8.13964 0.035623 8.25475 0.103192C8.36986 0.17076 8.46486 0.267826 8.52993 0.384369L15.6548 13.1341C15.7186 13.2482 15.7514 13.3769 15.7502 13.5076C15.7489 13.6383 15.7135 13.7663 15.6474 13.8791C15.5814 13.9919 15.4871 14.0855 15.3737 14.1505C15.2604 14.2156 15.132 14.25 15.0014 14.2502Z" />
<path d="M15.001 6.00049C14.4881 6.00037 13.9766 6.05252 13.4743 6.15611L16.965 12.403C17.1563 12.7454 17.2548 13.1319 17.2506 13.5241C17.2465 13.9163 17.1398 14.3007 16.9413 14.639C16.7428 14.9773 16.4594 15.2578 16.119 15.4527C15.7786 15.6477 15.3932 15.7502 15.001 15.7503H7.84473C8.26055 17.0725 9.03466 18.2536 10.0811 19.1626C11.1276 20.0715 12.4054 20.6726 13.7729 20.8992C15.1403 21.1259 16.5438 20.9691 17.8275 20.4464C19.1112 19.9237 20.225 19.0554 21.0451 17.938C21.8653 16.8207 22.3597 15.4978 22.4736 14.1165C22.5875 12.7351 22.3163 11.3491 21.6902 10.1125C21.0641 8.87594 20.1075 7.83703 18.9267 7.11116C17.7459 6.38528 16.3871 6.00083 15.001 6.00049Z" />
</svg>
