<svg width="21" height="21" viewBox="0 0 21 21" fill="none" xmlns="http://www.w3.org/2000/svg">
<path d="M1.16667 0H17.5L20.6582 3.15817C20.877 3.37691 20.9999 3.67361 21 3.983V19.8333C21 20.1428 20.8771 20.4395 20.6583 20.6583C20.4395 20.8771 20.1428 21 19.8333 21H1.16667C0.857247 21 0.560501 20.8771 0.341709 20.6583C0.122916 20.4395 0 20.1428 0 19.8333V1.16667C0 0.857247 0.122916 0.560501 0.341709 0.341709C0.560501 0.122916 0.857247 0 1.16667 0ZM4.66667 1.16667V7H15.1667V1.16667H4.66667ZM3.5 10.5V18.6667H17.5V10.5H3.5ZM11.6667 2.33333H14V5.83333H11.6667V2.33333Z" fill="white"/>
</svg>
