<svg width="20" height="20" viewBox="0 0 20 20" fill="none" xmlns="http://www.w3.org/2000/svg">
<path fill-rule="evenodd" clip-rule="evenodd" d="M2.04545 2C1.98518 2 1.92737 2.02634 1.88475 2.07322C1.84213 2.12011 1.81818 2.1837 1.81818 2.25V4.75C1.81818 4.8163 1.84213 4.87989 1.88475 4.92678C1.92737 4.97366 1.98518 5 2.04545 5H17.9545C18.0148 5 18.0726 4.97366 18.1153 4.92678C18.1579 4.87989 18.1818 4.81631 18.1818 4.75V2.25C18.1818 2.18369 18.1579 2.12011 18.1153 2.07322C18.0726 2.02634 18.0148 2 17.9545 2H2.04545ZM0.5991 0.65901C0.982697 0.237054 1.50297 0 2.04545 0H17.9545C18.497 0 19.0173 0.237053 19.4009 0.65901C19.7845 1.08097 20 1.65326 20 2.25V4.75C20 5.34674 19.7845 5.91903 19.4009 6.34099C19.0173 6.76295 18.497 7 17.9545 7H2.04545C1.50297 7 0.982697 6.76295 0.5991 6.34099C0.215503 5.91903 0 5.34674 0 4.75V2.25C0 1.65326 0.215503 1.08097 0.5991 0.65901Z" />
<path fill-rule="evenodd" clip-rule="evenodd" d="M1.875 11.6667C1.81975 11.6667 1.76676 11.6886 1.72769 11.7277C1.68862 11.7668 1.66667 11.8197 1.66667 11.875V18.125C1.66667 18.1803 1.68862 18.2332 1.72769 18.2723C1.76676 18.3114 1.81975 18.3333 1.875 18.3333H8.125C8.18025 18.3333 8.23324 18.3114 8.27231 18.2723C8.31138 18.2332 8.33333 18.1803 8.33333 18.125V11.875C8.33333 11.8197 8.31138 11.7668 8.27231 11.7277C8.23324 11.6886 8.18025 11.6667 8.125 11.6667H1.875ZM0.549175 10.5492C0.900805 10.1975 1.37772 10 1.875 10H8.125C8.62228 10 9.09919 10.1975 9.45082 10.5492C9.80245 10.9008 10 11.3777 10 11.875V18.125C10 18.6223 9.80246 19.0992 9.45082 19.4508C9.09919 19.8025 8.62228 20 8.125 20H1.875C1.37772 20 0.900807 19.8025 0.549175 19.4508C0.197544 19.0992 0 18.6223 0 18.125V11.875C0 11.3777 0.197545 10.9008 0.549175 10.5492Z" />
<path fill-rule="evenodd" clip-rule="evenodd" d="M15.25 11.6667C15.1837 11.6667 15.1201 11.6886 15.0732 11.7277C15.0263 11.7668 15 11.8197 15 11.875V18.125C15 18.1803 15.0263 18.2332 15.0732 18.2723C15.1201 18.3114 15.1837 18.3333 15.25 18.3333H17.75C17.8163 18.3333 17.8799 18.3114 17.9268 18.2723C17.9737 18.2332 18 18.1803 18 18.125V11.875C18 11.8197 17.9737 11.7668 17.9268 11.7277C17.8799 11.6886 17.8163 11.6667 17.75 11.6667H15.25ZM13.659 10.5492C14.081 10.1975 14.6533 10 15.25 10H17.75C18.3467 10 18.919 10.1975 19.341 10.5492C19.7629 10.9008 20 11.3777 20 11.875V18.125C20 18.6223 19.7629 19.0992 19.341 19.4508C18.919 19.8025 18.3467 20 17.75 20H15.25C14.6533 20 14.081 19.8025 13.659 19.4508C13.237 19.0992 13 18.6223 13 18.125V11.875C13 11.3777 13.2371 10.9008 13.659 10.5492Z" />
</svg>
