<svg width="26" height="26" viewBox="0 0 26 26" fill="none" xmlns="http://www.w3.org/2000/svg">
<path d="M20.3124 4.33333C20.7748 4.33333 21.2326 4.4244 21.6598 4.60134C22.087 4.77827 22.4751 5.03762 22.802 5.36456C23.129 5.6915 23.3883 6.07963 23.5652 6.5068C23.7422 6.93396 23.8333 7.3918 23.8333 7.85416V20.3125C23.8333 20.7749 23.7422 21.2327 23.5652 21.6599C23.3883 22.087 23.129 22.4752 22.802 22.8021C22.4751 23.129 22.087 23.3884 21.6598 23.5653C21.2326 23.7423 20.7748 23.8333 20.3124 23.8333H7.85409C7.39172 23.8333 6.93389 23.7423 6.50672 23.5653C6.07955 23.3884 5.69142 23.129 5.36448 22.8021C5.03754 22.4752 4.7782 22.087 4.60126 21.6599C4.42432 21.2327 4.33325 20.7749 4.33325 20.3125V13.5438C4.84675 13.7583 5.39167 13.9122 5.95825 14.001V20.3125C5.95825 20.5378 5.99725 20.7545 6.06984 20.956L12.3781 14.7799C12.8105 14.3566 13.385 14.1092 13.9897 14.086C14.5944 14.0628 15.1861 14.2653 15.6498 14.6542L15.7884 14.7799L22.0956 20.9571C22.1682 20.7556 22.2083 20.5389 22.2083 20.3125V7.85416C22.2083 7.35136 22.0085 6.86914 21.653 6.51361C21.2974 6.15807 20.8152 5.95833 20.3124 5.95833H14.0009C13.9147 5.40019 13.7612 4.85455 13.5438 4.33333H20.3124ZM13.6055 15.8643L13.5145 15.9402L7.22359 22.1011C7.42075 22.1704 7.63309 22.2083 7.85409 22.2083H20.3124C20.5323 22.2083 20.7447 22.1704 20.9408 22.1011L14.652 15.9412C14.5148 15.8068 14.3344 15.7253 14.1428 15.7112C13.9513 15.6971 13.7609 15.7514 13.6055 15.8643V15.8643ZM17.6063 8.125C18.2533 8.125 18.8738 8.38203 19.3314 8.83956C19.7889 9.29708 20.0459 9.91762 20.0459 10.5647C20.0459 11.2117 19.7889 11.8322 19.3314 12.2898C18.8738 12.7473 18.2533 13.0043 17.6063 13.0043C16.9592 13.0043 16.3387 12.7473 15.8811 12.2898C15.4236 11.8322 15.1666 11.2117 15.1666 10.5647C15.1666 9.91762 15.4236 9.29708 15.8811 8.83956C16.3387 8.38203 16.9592 8.125 17.6063 8.125V8.125ZM7.04159 1.08333C7.82405 1.08333 8.59884 1.23745 9.32174 1.53688C10.0446 1.83631 10.7015 2.2752 11.2548 2.82848C11.808 3.38177 12.2469 4.03861 12.5464 4.76151C12.8458 5.4844 12.9999 6.2592 12.9999 7.04166C12.9999 7.82412 12.8458 8.59892 12.5464 9.32182C12.2469 10.0447 11.808 10.7016 11.2548 11.2548C10.7015 11.8081 10.0446 12.247 9.32174 12.5464C8.59884 12.8459 7.82405 13 7.04159 13C5.46134 13 3.94581 12.3722 2.82841 11.2548C1.711 10.1374 1.08325 8.62191 1.08325 7.04166C1.08325 5.46141 1.711 3.94589 2.82841 2.82848C3.94581 1.71108 5.46134 1.08333 7.04159 1.08333V1.08333ZM17.6063 9.75C17.4993 9.75 17.3933 9.77107 17.2945 9.81201C17.1957 9.85295 17.1058 9.91296 17.0302 9.98861C16.9545 10.0643 16.8945 10.1541 16.8536 10.2529C16.8127 10.3517 16.7916 10.4577 16.7916 10.5647C16.7916 10.6716 16.8127 10.7776 16.8536 10.8764C16.8945 10.9753 16.9545 11.0651 17.0302 11.1407C17.1058 11.2164 17.1957 11.2764 17.2945 11.3173C17.3933 11.3583 17.4993 11.3793 17.6063 11.3793C17.8223 11.3793 18.0295 11.2935 18.1823 11.1407C18.3351 10.9879 18.4209 10.7807 18.4209 10.5647C18.4209 10.3486 18.3351 10.1414 18.1823 9.98861C18.0295 9.83583 17.8223 9.75 17.6063 9.75V9.75ZM7.04159 3.24999L6.94409 3.25758C6.83586 3.27735 6.73621 3.32961 6.65842 3.40741C6.58062 3.48521 6.52836 3.58485 6.50859 3.69308L6.49992 3.79166V6.5H3.78942L3.69192 6.50866C3.58369 6.52843 3.48405 6.5807 3.40625 6.65849C3.32845 6.73629 3.27619 6.83593 3.25642 6.94416L3.24775 7.04166L3.25642 7.13916C3.27619 7.24739 3.32845 7.34703 3.40625 7.42483C3.48405 7.50263 3.58369 7.55489 3.69192 7.57466L3.78942 7.58333H6.49992V10.2949L6.50859 10.3924C6.52836 10.5006 6.58062 10.6003 6.65842 10.6781C6.73621 10.7559 6.83586 10.8081 6.94409 10.8279L7.04159 10.8377L7.13909 10.8279C7.24732 10.8081 7.34696 10.7559 7.42475 10.6781C7.50255 10.6003 7.55481 10.5006 7.57459 10.3924L7.58325 10.2949V7.58333H10.297L10.3945 7.57466C10.5027 7.55489 10.6024 7.50263 10.6802 7.42483C10.758 7.34703 10.8102 7.24739 10.83 7.13916L10.8387 7.04166L10.83 6.94416C10.8102 6.83578 10.7577 6.73603 10.6797 6.65822C10.6017 6.58041 10.5018 6.52824 10.3934 6.50866L10.2959 6.5H7.58325V3.79166L7.57459 3.69416C7.55501 3.58573 7.50284 3.48585 7.42503 3.40785C7.34721 3.32984 7.24746 3.27742 7.13909 3.25758L7.04159 3.24999Z"  fill="#1E2351"/>
</svg>
