<svg width="11" height="451" viewBox="0 0 11 451" fill="none" xmlns="http://www.w3.org/2000/svg">
<path d="M11 360.116C11 360.745 10.9052 361.255 10.7884 361.255L0.211538 361.255C0.094769 361.255 -2.23192e-08 360.745 -4.98196e-08 360.116C-7.732e-08 359.486 0.0947689 358.976 0.211538 358.976L10.7884 358.976C10.9054 358.976 11 359.486 11 360.116Z" fill="#2B3377"/>
<path d="M7.77436 404.987C7.77436 405.459 7.70328 405.842 7.6157 405.842L0.211876 405.842C0.124299 405.842 0.0532226 405.459 0.0532226 404.987C0.0532226 404.516 0.124299 404.133 0.211876 404.133L7.6157 404.133C7.70349 404.133 7.77436 404.516 7.77436 404.987Z" fill="#2B3377"/>
<path d="M4.52125 413.961C4.52125 414.197 4.48571 414.389 4.44192 414.389L0.211163 414.389C0.167374 414.389 0.131836 414.197 0.131836 413.961C0.131836 413.725 0.167374 413.534 0.211163 413.534L4.44192 413.534C4.48571 413.534 4.52125 413.725 4.52125 413.961Z" fill="#2B3377"/>
<path d="M4.52125 422.937C4.52125 423.173 4.48571 423.365 4.44192 423.365L0.211163 423.365C0.167374 423.365 0.131836 423.173 0.131836 422.937C0.131836 422.701 0.167374 422.51 0.211163 422.51L4.44192 422.51C4.48571 422.51 4.52125 422.7 4.52125 422.937Z" fill="#2B3377"/>
<path d="M4.52125 431.911C4.52125 432.147 4.48571 432.339 4.44192 432.339L0.211163 432.339C0.167374 432.339 0.131836 432.147 0.131836 431.911C0.131836 431.676 0.167374 431.484 0.211163 431.484L4.44192 431.484C4.48571 431.484 4.52125 431.676 4.52125 431.911Z" fill="#2B3377"/>
<path d="M4.52125 440.886C4.52125 441.122 4.48571 441.313 4.44192 441.313L0.211163 441.313C0.167374 441.313 0.131836 441.122 0.131836 440.886C0.131836 440.65 0.167374 440.459 0.211163 440.459L4.44192 440.459C4.48571 440.459 4.52125 440.65 4.52125 440.886Z" fill="#2B3377"/>
<path d="M2.82894 418.45C2.82894 418.686 2.7934 418.877 2.74962 418.877L0.211163 418.877C0.167374 418.877 0.131836 418.686 0.131836 418.45C0.131836 418.214 0.167374 418.023 0.211163 418.023L2.74962 418.023C2.7934 418.023 2.82894 418.213 2.82894 418.45Z" fill="#2B3377"/>
<path d="M2.82894 409.474C2.82894 409.71 2.7934 409.902 2.74962 409.902L0.211163 409.902C0.167374 409.902 0.131836 409.71 0.131836 409.474C0.131836 409.239 0.167374 409.047 0.211163 409.047L2.74962 409.047C2.7934 409.047 2.82894 409.239 2.82894 409.474Z" fill="#2B3377"/>
<path d="M2.82894 427.424C2.82894 427.66 2.7934 427.852 2.74962 427.852L0.211163 427.852C0.167374 427.852 0.131836 427.66 0.131836 427.424C0.131836 427.188 0.167374 426.997 0.211163 426.997L2.74962 426.997C2.7934 426.997 2.82894 427.187 2.82894 427.424Z" fill="#2B3377"/>
<path d="M2.82894 436.399C2.82894 436.635 2.7934 436.826 2.74962 436.826L0.211163 436.826C0.167374 436.826 0.131836 436.635 0.131836 436.399C0.131836 436.163 0.167374 435.971 0.211163 435.971L2.74962 435.971C2.7934 435.971 2.82894 436.163 2.82894 436.399Z" fill="#2B3377"/>
<path d="M2.82894 445.373C2.82894 445.609 2.79341 445.8 2.74962 445.8L0.211163 445.8C0.167374 445.8 0.131836 445.609 0.131836 445.373C0.131836 445.137 0.167374 444.945 0.211163 444.945L2.74962 444.945C2.79341 444.945 2.82894 445.137 2.82894 445.373Z" fill="#2B3377"/>
<path d="M4.52125 369.09C4.52125 369.326 4.48571 369.518 4.44192 369.518L0.211163 369.518C0.167374 369.518 0.131836 369.326 0.131836 369.09C0.131836 368.854 0.167374 368.663 0.211163 368.663L4.44192 368.663C4.48571 368.663 4.52125 368.854 4.52125 369.09Z" fill="#2B3377"/>
<path d="M4.52125 378.064C4.52125 378.3 4.48571 378.491 4.44192 378.491L0.211163 378.491C0.167374 378.491 0.131836 378.3 0.131836 378.064C0.131836 377.828 0.167374 377.636 0.211163 377.636L4.44192 377.636C4.48571 377.636 4.52125 377.828 4.52125 378.064Z" fill="#2B3377"/>
<path d="M4.52125 387.038C4.52125 387.274 4.48571 387.466 4.44192 387.466L0.211163 387.466C0.167374 387.466 0.131836 387.274 0.131836 387.038C0.131836 386.802 0.167374 386.611 0.211163 386.611L4.44192 386.611C4.48571 386.611 4.52125 386.802 4.52125 387.038Z" fill="#2B3377"/>
<path d="M4.52125 396.013C4.52125 396.249 4.48571 396.44 4.44192 396.44L0.211163 396.44C0.167374 396.44 0.131836 396.249 0.131836 396.013C0.131836 395.777 0.167374 395.586 0.211163 395.586L4.44192 395.586C4.48571 395.586 4.52125 395.777 4.52125 396.013Z" fill="#2B3377"/>
<path d="M2.82894 373.577C2.82894 373.813 2.79341 374.004 2.74962 374.004L0.211163 374.004C0.167374 374.004 0.131836 373.813 0.131836 373.577C0.131836 373.341 0.167374 373.15 0.211163 373.15L2.74962 373.15C2.79341 373.15 2.82894 373.341 2.82894 373.577Z" fill="#2B3377"/>
<path d="M2.82894 364.603C2.82894 364.839 2.79341 365.03 2.74962 365.03L0.211163 365.03C0.167374 365.03 0.131836 364.839 0.131836 364.603C0.131836 364.367 0.167374 364.175 0.211163 364.175L2.74962 364.175C2.79341 364.175 2.82894 364.367 2.82894 364.603Z" fill="#2B3377"/>
<path d="M2.82894 382.551C2.82894 382.787 2.79341 382.979 2.74962 382.979L0.211163 382.979C0.167374 382.979 0.131836 382.787 0.131836 382.551C0.131836 382.315 0.167374 382.124 0.211163 382.124L2.74962 382.124C2.79341 382.124 2.82894 382.315 2.82894 382.551Z" fill="#2B3377"/>
<path d="M2.82894 391.526C2.82894 391.762 2.79341 391.953 2.74962 391.953L0.211163 391.953C0.167374 391.953 0.131836 391.762 0.131836 391.526C0.131836 391.29 0.167374 391.098 0.211163 391.098L2.74962 391.098C2.79341 391.098 2.82894 391.29 2.82894 391.526Z" fill="#2B3377"/>
<path d="M2.82894 400.501C2.82894 400.737 2.79341 400.929 2.74962 400.929L0.211163 400.929C0.167374 400.929 0.131836 400.737 0.131836 400.501C0.131836 400.265 0.167374 400.074 0.211163 400.074L2.74962 400.074C2.79341 400.074 2.82894 400.264 2.82894 400.501Z" fill="#2B3377"/>
<path d="M11 270.371C11 271.001 10.9052 271.511 10.7884 271.511L0.211538 271.511C0.094769 271.511 -2.23194e-08 271.001 -4.98202e-08 270.371C-7.73209e-08 269.742 0.0947689 269.232 0.211538 269.232L10.7884 269.232C10.9054 269.232 11 269.742 11 270.371Z" fill="#2B3377"/>
<path d="M7.77435 315.244C7.77435 315.716 7.70328 316.099 7.6157 316.099L0.211876 316.099C0.124299 316.099 0.0532226 315.716 0.0532226 315.244C0.0532226 314.772 0.124299 314.389 0.211876 314.389L7.6157 314.389C7.70349 314.389 7.77435 314.772 7.77435 315.244Z" fill="#2B3377"/>
<path d="M4.52125 324.218C4.52125 324.454 4.48571 324.646 4.44192 324.646L0.211163 324.646C0.167374 324.646 0.131836 324.454 0.131836 324.218C0.131836 323.982 0.167374 323.791 0.211163 323.791L4.44192 323.791C4.48571 323.791 4.52125 323.982 4.52125 324.218Z" fill="#2B3377"/>
<path d="M4.52125 333.192C4.52125 333.428 4.48571 333.62 4.44192 333.62L0.211163 333.62C0.167374 333.62 0.131836 333.428 0.131836 333.192C0.131836 332.956 0.167374 332.765 0.211163 332.765L4.44192 332.765C4.48571 332.765 4.52125 332.956 4.52125 333.192Z" fill="#2B3377"/>
<path d="M4.52125 342.167C4.52125 342.403 4.48571 342.594 4.44192 342.594L0.211163 342.594C0.167374 342.594 0.131836 342.403 0.131836 342.167C0.131836 341.931 0.167374 341.739 0.211163 341.739L4.44192 341.739C4.48571 341.739 4.52125 341.931 4.52125 342.167Z" fill="#2B3377"/>
<path d="M4.52125 351.141C4.52125 351.377 4.48571 351.568 4.44192 351.568L0.211163 351.568C0.167374 351.568 0.131836 351.377 0.131836 351.141C0.131836 350.905 0.167374 350.714 0.211163 350.714L4.44192 350.714C4.48571 350.714 4.52125 350.905 4.52125 351.141Z" fill="#2B3377"/>
<path d="M2.82894 328.705C2.82894 328.941 2.79341 329.133 2.74962 329.133L0.211163 329.133C0.167374 329.133 0.131836 328.941 0.131836 328.705C0.131836 328.469 0.167374 328.278 0.211163 328.278L2.74962 328.278C2.79341 328.278 2.82894 328.469 2.82894 328.705Z" fill="#2B3377"/>
<path d="M2.82894 319.731C2.82894 319.967 2.7934 320.158 2.74962 320.158L0.211163 320.158C0.167374 320.158 0.131836 319.967 0.131836 319.731C0.131836 319.495 0.167374 319.303 0.211163 319.303L2.74962 319.303C2.7934 319.303 2.82894 319.495 2.82894 319.731Z" fill="#2B3377"/>
<path d="M2.82894 337.68C2.82894 337.915 2.79341 338.107 2.74962 338.107L0.211163 338.107C0.167374 338.107 0.131836 337.915 0.131836 337.68C0.131836 337.444 0.167374 337.252 0.211163 337.252L2.74962 337.252C2.79341 337.252 2.82894 337.444 2.82894 337.68Z" fill="#2B3377"/>
<path d="M2.82894 346.654C2.82894 346.89 2.79341 347.082 2.74962 347.082L0.211163 347.082C0.167374 347.082 0.131836 346.89 0.131836 346.654C0.131836 346.418 0.167374 346.227 0.211163 346.227L2.74962 346.227C2.79341 346.227 2.82894 346.418 2.82894 346.654Z" fill="#2B3377"/>
<path d="M2.82894 355.628C2.82894 355.864 2.79341 356.056 2.74962 356.056L0.211163 356.056C0.167374 356.056 0.131836 355.864 0.131836 355.628C0.131836 355.392 0.167374 355.201 0.211163 355.201L2.74962 355.201C2.79341 355.201 2.82894 355.392 2.82894 355.628Z" fill="#2B3377"/>
<path d="M4.52125 279.346C4.52125 279.582 4.48571 279.773 4.44192 279.773L0.211163 279.773C0.167374 279.773 0.131836 279.582 0.131836 279.346C0.131836 279.11 0.167374 278.919 0.211163 278.919L4.44192 278.919C4.48571 278.919 4.52125 279.11 4.52125 279.346Z" fill="#2B3377"/>
<path d="M4.52125 288.321C4.52125 288.557 4.48571 288.748 4.44192 288.748L0.211163 288.748C0.167374 288.748 0.131836 288.557 0.131836 288.321C0.131836 288.085 0.167374 287.893 0.211163 287.893L4.44192 287.893C4.48571 287.893 4.52125 288.085 4.52125 288.321Z" fill="#2B3377"/>
<path d="M4.52125 297.295C4.52125 297.531 4.48571 297.722 4.44192 297.722L0.211163 297.722C0.167374 297.722 0.131836 297.531 0.131836 297.295C0.131836 297.059 0.167374 296.867 0.211163 296.867L4.44192 296.867C4.48571 296.867 4.52125 297.059 4.52125 297.295Z" fill="#2B3377"/>
<path d="M4.52125 306.269C4.52125 306.505 4.48571 306.697 4.44192 306.697L0.211163 306.697C0.167374 306.697 0.131836 306.505 0.131836 306.269C0.131836 306.033 0.167374 305.842 0.211163 305.842L4.44192 305.842C4.48571 305.842 4.52125 306.033 4.52125 306.269Z" fill="#2B3377"/>
<path d="M2.82894 283.833C2.82894 284.069 2.79341 284.261 2.74962 284.261L0.211163 284.261C0.167374 284.261 0.131836 284.069 0.131836 283.833C0.131836 283.597 0.167374 283.406 0.211163 283.406L2.74962 283.406C2.79341 283.406 2.82894 283.597 2.82894 283.833Z" fill="#2B3377"/>
<path d="M2.82894 274.859C2.82894 275.095 2.7934 275.286 2.74962 275.286L0.211163 275.286C0.167374 275.286 0.131836 275.095 0.131836 274.859C0.131836 274.623 0.167374 274.431 0.211163 274.431L2.74962 274.431C2.7934 274.431 2.82894 274.623 2.82894 274.859Z" fill="#2B3377"/>
<path d="M2.82894 292.807C2.82894 293.043 2.79341 293.235 2.74962 293.235L0.211163 293.235C0.167374 293.235 0.131836 293.043 0.131836 292.807C0.131836 292.572 0.167374 292.38 0.211163 292.38L2.74962 292.38C2.79341 292.38 2.82894 292.572 2.82894 292.807Z" fill="#2B3377"/>
<path d="M2.82894 301.782C2.82894 302.018 2.79341 302.209 2.74962 302.209L0.211163 302.209C0.167374 302.209 0.131836 302.018 0.131836 301.782C0.131836 301.546 0.167374 301.355 0.211163 301.355L2.74962 301.355C2.79341 301.355 2.82894 301.546 2.82894 301.782Z" fill="#2B3377"/>
<path d="M2.82894 310.757C2.82894 310.993 2.7934 311.184 2.74962 311.184L0.211163 311.184C0.167374 311.184 0.131836 310.993 0.131836 310.757C0.131836 310.521 0.167374 310.329 0.211163 310.329L2.74962 310.329C2.7934 310.329 2.82894 310.521 2.82894 310.757Z" fill="#2B3377"/>
<path d="M11 180.628C11 181.259 10.9052 181.768 10.7884 181.768L0.211538 181.768C0.094769 181.768 -2.22697e-08 181.259 -4.98204e-08 180.628C-7.73711e-08 179.998 0.0947689 179.489 0.211538 179.489L10.7884 179.489C10.9054 179.489 11 179.998 11 180.628Z" fill="#2B3377"/>
<path d="M7.77435 225.5C7.77435 225.972 7.70328 226.355 7.6157 226.355L0.211876 226.355C0.124299 226.355 0.0532226 225.972 0.0532226 225.5C0.0532226 225.028 0.124299 224.645 0.211876 224.645L7.6157 224.645C7.70349 224.645 7.77435 225.028 7.77435 225.5Z" fill="#2B3377"/>
<path d="M4.52125 234.474C4.52125 234.71 4.48571 234.902 4.44192 234.902L0.211163 234.902C0.167374 234.902 0.131836 234.71 0.131836 234.474C0.131836 234.239 0.167374 234.047 0.211163 234.047L4.44192 234.047C4.48571 234.047 4.52125 234.239 4.52125 234.474Z" fill="#2B3377"/>
<path d="M4.52125 243.449C4.52125 243.684 4.48571 243.876 4.44192 243.876L0.211163 243.876C0.167374 243.876 0.131836 243.684 0.131836 243.449C0.131836 243.213 0.167374 243.021 0.211163 243.021L4.44192 243.021C4.48571 243.021 4.52125 243.213 4.52125 243.449Z" fill="#2B3377"/>
<path d="M4.52125 252.423C4.52125 252.659 4.48571 252.851 4.44192 252.851L0.211163 252.851C0.167374 252.851 0.131836 252.659 0.131836 252.423C0.131836 252.187 0.167374 251.996 0.211163 251.996L4.44192 251.996C4.48571 251.996 4.52125 252.187 4.52125 252.423Z" fill="#2B3377"/>
<path d="M4.52125 261.397C4.52125 261.633 4.48571 261.825 4.44192 261.825L0.211163 261.825C0.167374 261.825 0.131836 261.633 0.131836 261.397C0.131836 261.161 0.167374 260.97 0.211163 260.97L4.44192 260.97C4.48571 260.97 4.52125 261.161 4.52125 261.397Z" fill="#2B3377"/>
<path d="M2.82894 238.961C2.82894 239.197 2.7934 239.389 2.74962 239.389L0.211163 239.389C0.167374 239.389 0.131836 239.197 0.131836 238.961C0.131836 238.725 0.167374 238.534 0.211163 238.534L2.74962 238.534C2.7934 238.534 2.82894 238.725 2.82894 238.961Z" fill="#2B3377"/>
<path d="M2.82894 229.987C2.82894 230.223 2.7934 230.415 2.74962 230.415L0.211163 230.415C0.167374 230.415 0.131836 230.223 0.131836 229.987C0.131836 229.751 0.167374 229.56 0.211163 229.56L2.74962 229.56C2.7934 229.56 2.82894 229.751 2.82894 229.987Z" fill="#2B3377"/>
<path d="M2.82894 247.936C2.82894 248.172 2.7934 248.363 2.74962 248.363L0.211163 248.363C0.167374 248.363 0.131836 248.172 0.131836 247.936C0.131836 247.7 0.167374 247.508 0.211163 247.508L2.74962 247.508C2.7934 247.508 2.82894 247.7 2.82894 247.936Z" fill="#2B3377"/>
<path d="M2.82894 256.91C2.82894 257.146 2.7934 257.337 2.74962 257.337L0.211163 257.337C0.167374 257.337 0.131836 257.146 0.131836 256.91C0.131836 256.674 0.167374 256.483 0.211163 256.483L2.74962 256.483C2.7934 256.483 2.82894 256.674 2.82894 256.91Z" fill="#2B3377"/>
<path d="M2.82894 265.885C2.82894 266.121 2.7934 266.312 2.74962 266.312L0.211163 266.312C0.167374 266.312 0.131836 266.121 0.131836 265.885C0.131836 265.649 0.167374 265.457 0.211163 265.457L2.74962 265.457C2.7934 265.457 2.82894 265.649 2.82894 265.885Z" fill="#2B3377"/>
<path d="M4.52125 189.602C4.52125 189.838 4.48571 190.03 4.44192 190.03L0.211163 190.03C0.167374 190.03 0.131836 189.838 0.131836 189.602C0.131836 189.366 0.167374 189.175 0.211163 189.175L4.44192 189.175C4.48571 189.175 4.52125 189.366 4.52125 189.602Z" fill="#2B3377"/>
<path d="M4.52125 198.577C4.52125 198.813 4.48571 199.004 4.44192 199.004L0.211163 199.004C0.167374 199.004 0.131836 198.813 0.131836 198.577C0.131836 198.341 0.167374 198.15 0.211163 198.15L4.44192 198.15C4.48571 198.15 4.52125 198.341 4.52125 198.577Z" fill="#2B3377"/>
<path d="M4.52125 207.551C4.52125 207.787 4.48571 207.979 4.44192 207.979L0.211163 207.979C0.167374 207.979 0.131836 207.787 0.131836 207.551C0.131836 207.315 0.167374 207.124 0.211163 207.124L4.44192 207.124C4.48571 207.124 4.52125 207.315 4.52125 207.551Z" fill="#2B3377"/>
<path d="M4.52125 216.526C4.52125 216.762 4.48571 216.953 4.44192 216.953L0.211163 216.953C0.167374 216.953 0.131836 216.762 0.131836 216.526C0.131836 216.29 0.167374 216.098 0.211163 216.098L4.44192 216.098C4.48571 216.098 4.52125 216.29 4.52125 216.526Z" fill="#2B3377"/>
<path d="M2.82894 194.089C2.82894 194.325 2.7934 194.516 2.74962 194.516L0.211163 194.516C0.167374 194.516 0.131836 194.325 0.131836 194.089C0.131836 193.853 0.167374 193.661 0.211163 193.661L2.74962 193.661C2.7934 193.661 2.82894 193.853 2.82894 194.089Z" fill="#2B3377"/>
<path d="M2.82894 185.115C2.82894 185.351 2.7934 185.542 2.74962 185.542L0.211163 185.542C0.167374 185.542 0.131836 185.351 0.131836 185.115C0.131836 184.879 0.167374 184.688 0.211163 184.688L2.74962 184.688C2.7934 184.688 2.82894 184.879 2.82894 185.115Z" fill="#2B3377"/>
<path d="M2.82894 203.064C2.82894 203.3 2.7934 203.492 2.74962 203.492L0.211163 203.492C0.167374 203.492 0.131836 203.3 0.131836 203.064C0.131836 202.828 0.167374 202.637 0.211163 202.637L2.74962 202.637C2.7934 202.637 2.82894 202.828 2.82894 203.064Z" fill="#2B3377"/>
<path d="M2.82894 212.038C2.82894 212.274 2.7934 212.466 2.74962 212.466L0.211163 212.466C0.167374 212.466 0.131836 212.274 0.131836 212.038C0.131836 211.803 0.167374 211.611 0.211163 211.611L2.74962 211.611C2.7934 211.611 2.82894 211.803 2.82894 212.038Z" fill="#2B3377"/>
<path d="M2.82894 221.012C2.82894 221.247 2.7934 221.439 2.74962 221.439L0.211163 221.439C0.167374 221.439 0.131836 221.247 0.131836 221.012C0.131836 220.776 0.167374 220.584 0.211163 220.584L2.74962 220.584C2.7934 220.584 2.82894 220.776 2.82894 221.012Z" fill="#2B3377"/>
<path d="M11 90.8847C11 91.5149 10.9052 92.0244 10.7884 92.0244L0.211538 92.0244C0.094769 92.0244 -2.22697e-08 91.5149 -4.98204e-08 90.8847C-7.73711e-08 90.2544 0.0947689 89.7449 0.211538 89.7449L10.7884 89.7449C10.9054 89.7449 11 90.2544 11 90.8847Z" fill="#2B3377"/>
<path d="M7.77436 135.756C7.77436 136.228 7.70328 136.611 7.6157 136.611L0.211876 136.611C0.124299 136.611 0.0532226 136.228 0.0532226 135.756C0.0532226 135.284 0.124299 134.901 0.211876 134.901L7.6157 134.901C7.70349 134.901 7.77436 135.284 7.77436 135.756Z" fill="#2B3377"/>
<path d="M4.52125 144.73C4.52125 144.966 4.48571 145.158 4.44192 145.158L0.211163 145.158C0.167374 145.158 0.131836 144.966 0.131836 144.73C0.131836 144.494 0.167374 144.303 0.211163 144.303L4.44192 144.303C4.48571 144.303 4.52125 144.494 4.52125 144.73Z" fill="#2B3377"/>
<path d="M4.52125 153.705C4.52125 153.941 4.48571 154.132 4.44192 154.132L0.211163 154.132C0.167374 154.132 0.131836 153.941 0.131836 153.705C0.131836 153.469 0.167374 153.277 0.211163 153.277L4.44192 153.277C4.48571 153.277 4.52125 153.469 4.52125 153.705Z" fill="#2B3377"/>
<path d="M4.52125 162.68C4.52125 162.915 4.48571 163.107 4.44192 163.107L0.211163 163.107C0.167374 163.107 0.131836 162.915 0.131836 162.68C0.131836 162.444 0.167374 162.252 0.211163 162.252L4.44192 162.252C4.48571 162.252 4.52125 162.444 4.52125 162.68Z" fill="#2B3377"/>
<path d="M4.52125 171.654C4.52125 171.89 4.48571 172.081 4.44192 172.081L0.211163 172.081C0.167374 172.081 0.131836 171.89 0.131836 171.654C0.131836 171.418 0.167374 171.226 0.211163 171.226L4.44192 171.226C4.48571 171.226 4.52125 171.418 4.52125 171.654Z" fill="#2B3377"/>
<path d="M2.82894 149.218C2.82894 149.454 2.7934 149.645 2.74962 149.645L0.211163 149.645C0.167374 149.645 0.131836 149.454 0.131836 149.218C0.131836 148.982 0.167374 148.79 0.211163 148.79L2.74962 148.79C2.7934 148.79 2.82894 148.982 2.82894 149.218Z" fill="#2B3377"/>
<path d="M2.82894 140.243C2.82894 140.478 2.7934 140.67 2.74962 140.67L0.211163 140.67C0.167374 140.67 0.131836 140.478 0.131836 140.243C0.131836 140.007 0.167374 139.815 0.211163 139.815L2.74962 139.815C2.7934 139.815 2.82894 140.007 2.82894 140.243Z" fill="#2B3377"/>
<path d="M2.82894 158.191C2.82894 158.427 2.7934 158.619 2.74962 158.619L0.211163 158.619C0.167374 158.619 0.131836 158.427 0.131836 158.191C0.131836 157.955 0.167374 157.764 0.211163 157.764L2.74962 157.764C2.7934 157.764 2.82894 157.955 2.82894 158.191Z" fill="#2B3377"/>
<path d="M2.82894 167.166C2.82894 167.402 2.7934 167.594 2.74962 167.594L0.211163 167.594C0.167374 167.594 0.131836 167.402 0.131836 167.166C0.131836 166.93 0.167374 166.739 0.211163 166.739L2.74962 166.739C2.7934 166.739 2.82894 166.93 2.82894 167.166Z" fill="#2B3377"/>
<path d="M2.82894 176.14C2.82894 176.376 2.7934 176.567 2.74962 176.567L0.211163 176.567C0.167374 176.567 0.131836 176.376 0.131836 176.14C0.131836 175.904 0.167374 175.713 0.211163 175.713L2.74962 175.713C2.7934 175.713 2.82894 175.904 2.82894 176.14Z" fill="#2B3377"/>
<path d="M4.52125 99.8587C4.52125 100.095 4.48571 100.286 4.44192 100.286L0.211163 100.286C0.167374 100.286 0.131836 100.095 0.131836 99.8587C0.131836 99.6228 0.167374 99.4314 0.211163 99.4314L4.44192 99.4314C4.48571 99.4314 4.52125 99.6228 4.52125 99.8587Z" fill="#2B3377"/>
<path d="M4.52125 108.833C4.52125 109.069 4.48571 109.261 4.44192 109.261L0.211163 109.261C0.167374 109.261 0.131836 109.069 0.131836 108.833C0.131836 108.597 0.167374 108.406 0.211163 108.406L4.44192 108.406C4.48571 108.406 4.52125 108.597 4.52125 108.833Z" fill="#2B3377"/>
<path d="M4.52125 117.807C4.52125 118.043 4.48571 118.235 4.44192 118.235L0.211163 118.235C0.167374 118.235 0.131836 118.043 0.131836 117.807C0.131836 117.572 0.167374 117.38 0.211163 117.38L4.44192 117.38C4.48571 117.38 4.52125 117.572 4.52125 117.807Z" fill="#2B3377"/>
<path d="M4.52125 126.782C4.52125 127.018 4.48571 127.209 4.44192 127.209L0.211163 127.209C0.167374 127.209 0.131836 127.018 0.131836 126.782C0.131836 126.546 0.167374 126.355 0.211163 126.355L4.44192 126.355C4.48571 126.355 4.52125 126.546 4.52125 126.782Z" fill="#2B3377"/>
<path d="M2.82894 104.345C2.82894 104.581 2.7934 104.772 2.74962 104.772L0.211163 104.772C0.167374 104.772 0.131836 104.581 0.131836 104.345C0.131836 104.109 0.167374 103.918 0.211163 103.918L2.74962 103.918C2.7934 103.918 2.82894 104.109 2.82894 104.345Z" fill="#2B3377"/>
<path d="M2.82894 95.3714C2.82894 95.6073 2.7934 95.7988 2.74962 95.7988L0.211163 95.7988C0.167374 95.7988 0.131836 95.6073 0.131836 95.3714C0.131836 95.1355 0.167374 94.944 0.211163 94.944L2.74962 94.944C2.7934 94.944 2.82894 95.1355 2.82894 95.3714Z" fill="#2B3377"/>
<path d="M2.82894 113.321C2.82894 113.557 2.7934 113.748 2.74962 113.748L0.211163 113.748C0.167374 113.748 0.131836 113.557 0.131836 113.321C0.131836 113.085 0.167374 112.893 0.211163 112.893L2.74962 112.893C2.7934 112.893 2.82894 113.085 2.82894 113.321Z" fill="#2B3377"/>
<path d="M2.82894 122.294C2.82894 122.53 2.7934 122.721 2.74962 122.721L0.211163 122.721C0.167374 122.721 0.131836 122.53 0.131836 122.294C0.131836 122.058 0.167374 121.866 0.211163 121.866L2.74962 121.866C2.7934 121.866 2.82894 122.058 2.82894 122.294Z" fill="#2B3377"/>
<path d="M2.82894 131.269C2.82894 131.505 2.7934 131.697 2.74962 131.697L0.211163 131.697C0.167374 131.697 0.131836 131.505 0.131836 131.269C0.131836 131.033 0.167374 130.842 0.211163 130.842L2.74962 130.842C2.7934 130.842 2.82894 131.033 2.82894 131.269Z" fill="#2B3377"/>
<path d="M11 1.13958C11 1.76984 10.9052 2.2793 10.7884 2.2793L0.211538 2.2793C0.094769 2.2793 -2.2269e-08 1.76984 -4.98188e-08 1.13958C-7.73686e-08 0.509311 0.0947689 -0.000144724 0.211538 -0.000144729L10.7884 -0.000145192C10.9054 -0.000145197 11 0.51045 11 1.13958Z" fill="#2B3377"/>
<path d="M7.77435 46.0124C7.77435 46.4842 7.70328 46.8672 7.6157 46.8672L0.211876 46.8672C0.124299 46.8672 0.0532226 46.4842 0.0532226 46.0124C0.0532226 45.5406 0.124299 45.1576 0.211876 45.1576L7.6157 45.1576C7.70349 45.1576 7.77435 45.5394 7.77435 46.0124Z" fill="#2B3377"/>
<path d="M4.52125 54.9871C4.52125 55.2231 4.48571 55.4146 4.44192 55.4146L0.211163 55.4146C0.167374 55.4146 0.131836 55.2231 0.131836 54.9871C0.131836 54.7512 0.167374 54.5597 0.211163 54.5597L4.44192 54.5597C4.48571 54.5597 4.52125 54.7512 4.52125 54.9871Z" fill="#2B3377"/>
<path d="M4.52125 63.9613C4.52125 64.1972 4.48571 64.3887 4.44192 64.3887L0.211163 64.3887C0.167374 64.3887 0.131836 64.1972 0.131836 63.9613C0.131836 63.7253 0.167374 63.5339 0.211163 63.5339L4.44192 63.5339C4.48571 63.5339 4.52125 63.7253 4.52125 63.9613Z" fill="#2B3377"/>
<path d="M4.52125 72.9359C4.52125 73.1718 4.48571 73.3633 4.44192 73.3633L0.211163 73.3633C0.167374 73.3633 0.131836 73.1718 0.131836 72.9359C0.131836 72.6999 0.167374 72.5085 0.211163 72.5085L4.44192 72.5085C4.48571 72.5085 4.52125 72.6999 4.52125 72.9359Z" fill="#2B3377"/>
<path d="M4.52125 81.91C4.52125 82.1459 4.48571 82.3374 4.44192 82.3374L0.211163 82.3374C0.167374 82.3374 0.131836 82.1459 0.131836 81.91C0.131836 81.6741 0.167374 81.4826 0.211163 81.4826L4.44192 81.4826C4.48571 81.4826 4.52125 81.6741 4.52125 81.91Z" fill="#2B3377"/>
<path d="M2.82894 59.474C2.82894 59.7099 2.7934 59.9014 2.74962 59.9014L0.211163 59.9014C0.167374 59.9014 0.131836 59.7099 0.131836 59.474C0.131836 59.238 0.167374 59.0466 0.211163 59.0466L2.74962 59.0466C2.7934 59.0466 2.82894 59.238 2.82894 59.474Z" fill="#2B3377"/>
<path d="M2.82894 50.4984C2.82894 50.7343 2.7934 50.9258 2.74962 50.9258L0.211163 50.9258C0.167374 50.9258 0.131836 50.7343 0.131836 50.4984C0.131836 50.2625 0.167374 50.071 0.211163 50.071L2.74962 50.071C2.7934 50.071 2.82894 50.2625 2.82894 50.4984Z" fill="#2B3377"/>
<path d="M2.82894 68.4476C2.82894 68.6835 2.7934 68.875 2.74962 68.875L0.211163 68.875C0.167374 68.875 0.131836 68.6835 0.131836 68.4476C0.131836 68.2117 0.167374 68.0202 0.211163 68.0202L2.74962 68.0202C2.7934 68.0202 2.82894 68.2117 2.82894 68.4476Z" fill="#2B3377"/>
<path d="M2.82894 77.4227C2.82894 77.6586 2.7934 77.8501 2.74962 77.8501L0.211163 77.8501C0.167374 77.8501 0.131836 77.6586 0.131836 77.4227C0.131836 77.1868 0.167374 76.9953 0.211163 76.9953L2.74962 76.9953C2.7934 76.9953 2.82894 77.1868 2.82894 77.4227Z" fill="#2B3377"/>
<path d="M2.82894 86.3958C2.82894 86.6318 2.7934 86.8232 2.74962 86.8232L0.211163 86.8232C0.167374 86.8232 0.131836 86.6318 0.131836 86.3958C0.131836 86.1599 0.167374 85.9684 0.211163 85.9684L2.74962 85.9684C2.7934 85.9684 2.82894 86.1599 2.82894 86.3958Z" fill="#2B3377"/>
<path d="M4.52125 10.1141C4.52125 10.35 4.48571 10.5415 4.44192 10.5415L0.211163 10.5415C0.167374 10.5415 0.131836 10.35 0.131836 10.1141C0.131836 9.87818 0.167374 9.6867 0.211163 9.6867L4.44192 9.6867C4.48571 9.6867 4.52125 9.87818 4.52125 10.1141Z" fill="#2B3377"/>
<path d="M4.52125 19.0897C4.52125 19.3256 4.48571 19.5171 4.44192 19.5171L0.211163 19.5171C0.167374 19.5171 0.131836 19.3256 0.131836 19.0897C0.131836 18.8538 0.167374 18.6623 0.211163 18.6623L4.44192 18.6623C4.48571 18.6623 4.52125 18.8526 4.52125 19.0897Z" fill="#2B3377"/>
<path d="M4.52125 28.0638C4.52125 28.2997 4.48571 28.4912 4.44192 28.4912L0.211163 28.4912C0.167374 28.4912 0.131836 28.2997 0.131836 28.0638C0.131836 27.8279 0.167374 27.6365 0.211163 27.6365L4.44192 27.6365C4.48571 27.6365 4.52125 27.8279 4.52125 28.0638Z" fill="#2B3377"/>
<path d="M4.52125 37.038C4.52125 37.2739 4.48571 37.4653 4.44192 37.4653L0.211163 37.4653C0.167374 37.4653 0.131836 37.2739 0.131836 37.038C0.131836 36.802 0.167374 36.6106 0.211163 36.6106L4.44192 36.6106C4.48571 36.6106 4.52125 36.802 4.52125 37.038Z" fill="#2B3377"/>
<path d="M2.82894 14.6009C2.82894 14.8368 2.7934 15.0283 2.74962 15.0283L0.211163 15.0283C0.167374 15.0283 0.131836 14.8368 0.131836 14.6009C0.131836 14.365 0.167374 14.1735 0.211163 14.1735L2.74962 14.1735C2.7934 14.1735 2.82894 14.365 2.82894 14.6009Z" fill="#2B3377"/>
<path d="M2.82894 5.62777C2.82894 5.8637 2.79341 6.05518 2.74962 6.05518L0.211163 6.05518C0.167374 6.05518 0.131836 5.8637 0.131836 5.62777C0.131836 5.39185 0.167374 5.20037 0.211163 5.20037L2.74962 5.20037C2.79341 5.20037 2.82894 5.39185 2.82894 5.62777Z" fill="#2B3377"/>
<path d="M2.82894 23.5765C2.82894 23.8124 2.7934 24.0039 2.74962 24.0039L0.211163 24.0039C0.167374 24.0039 0.131836 23.8124 0.131836 23.5765C0.131836 23.3406 0.167374 23.1491 0.211163 23.1491L2.74962 23.1491C2.7934 23.1491 2.82894 23.3406 2.82894 23.5765Z" fill="#2B3377"/>
<path d="M2.82894 32.5501C2.82894 32.7861 2.7934 32.9775 2.74962 32.9775L0.211163 32.9775C0.167374 32.9775 0.131836 32.7861 0.131836 32.5501C0.131836 32.3142 0.167374 32.1227 0.211163 32.1227L2.74962 32.1227C2.7934 32.1227 2.82894 32.3142 2.82894 32.5501Z" fill="#2B3377"/>
<path d="M2.82894 41.5252C2.82894 41.7612 2.7934 41.9526 2.74962 41.9526L0.211163 41.9526C0.167374 41.9526 0.131836 41.7612 0.131836 41.5252C0.131836 41.2893 0.167374 41.0978 0.211163 41.0978L2.74962 41.0978C2.7934 41.0978 2.82894 41.2893 2.82894 41.5252Z" fill="#2B3377"/>
</svg>
