<svg width="9" height="5" viewBox="0 0 9 5" fill="none" xmlns="http://www.w3.org/2000/svg">
<path d="M9 4.7543C9 4.82801 8.97462 4.88943 8.92386 4.93857C8.86294 4.97952 8.7868 5 8.69543 5L7.53807 5C7.41624 5 7.3198 4.97543 7.24873 4.92629C7.16751 4.87715 7.08122 4.79934 6.98985 4.69287L4.50761 1.70762L2.02538 4.69287C1.93401 4.79934 1.85279 4.87715 1.78173 4.92629C1.70051 4.97543 1.59391 5 1.46193 5L0.319797 5C0.218274 5 0.142132 4.97543 0.0913704 4.92629C0.0304569 4.87715 -7.87593e-09 4.81982 -1.07399e-08 4.7543C-1.36039e-08 4.68878 0.0456854 4.60278 0.137056 4.49631L3.63959 0.356265C3.75127 0.225225 3.85787 0.135135 3.95939 0.0859955C4.06091 0.0286654 4.18274 -1.82833e-07 4.32487 -1.89046e-07L4.69036 -2.05022e-07C4.83249 -2.11235e-07 4.95431 0.0286653 5.05584 0.0859955C5.14721 0.135135 5.24873 0.225225 5.36041 0.356265L8.87817 4.49631C8.95939 4.59459 9 4.68059 9 4.7543Z" />
</svg>
