<svg width="9" height="5" viewBox="0 0 9 5" fill="none" xmlns="http://www.w3.org/2000/svg">
<path d="M-1.07399e-08 0.2457C-7.51793e-09 0.17199 0.0253811 0.110565 0.0761423 0.0614247C0.137056 0.0204746 0.213198 -3.84083e-07 0.304568 -3.80089e-07L1.46193 -3.295e-07C1.58376 -3.24174e-07 1.6802 0.0245697 1.75127 0.0737097C1.83249 0.12285 1.91878 0.200655 2.01015 0.307125L4.49239 3.29238L6.97462 0.307125C7.06599 0.200655 7.14721 0.12285 7.21827 0.0737099C7.29949 0.0245699 7.40609 -6.96719e-08 7.53807 -6.39029e-08L8.6802 -1.39788e-08C8.78173 -9.54106e-09 8.85787 0.02457 8.90863 0.07371C8.96954 0.12285 9 0.18018 9 0.2457C9 0.31122 8.95431 0.397215 8.86294 0.503685L5.36041 4.64373C5.24873 4.77477 5.14213 4.86486 5.04061 4.914C4.93909 4.97133 4.81726 5 4.67513 5L4.30964 5C4.16751 5 4.04569 4.97133 3.94416 4.914C3.85279 4.86486 3.75127 4.77477 3.63959 4.64373L0.121828 0.503685C0.0406093 0.405405 -1.39619e-08 0.31941 -1.07399e-08 0.2457Z"  />
</svg>
