<svg width="14" height="16" viewBox="0 0 14 16" fill="none" xmlns="http://www.w3.org/2000/svg">
<path d="M0.571429 16C0.419048 16 0.281905 15.9467 0.16 15.84C0.0533335 15.7181 0 15.581 0 15.4286V0.57143C0 0.40381 0.0533335 0.266667 0.16 0.16C0.281905 0.0533333 0.419048 0 0.571429 0H7.54286C9.46286 0 10.8876 0.396191 11.8171 1.18857C12.7619 1.96572 13.2343 3.0781 13.2343 4.52571C13.2343 5.28762 13.0362 5.93524 12.64 6.46857C12.259 6.98667 11.8248 7.36762 11.3371 7.61143C11.9619 7.90095 12.4876 8.36571 12.9143 9.00571C13.341 9.64571 13.5543 10.3619 13.5543 11.1543C13.5543 12.6781 13.0514 13.8667 12.0457 14.72C11.04 15.5733 9.60762 16 7.74857 16H0.571429ZM7.08571 6.35429C7.69524 6.35429 8.16 6.20191 8.48 5.89714C8.8 5.57714 8.96 5.15809 8.96 4.64C8.96 4.13714 8.8 3.73333 8.48 3.42857C8.16 3.12381 7.69524 2.97143 7.08571 2.97143H4.11429V6.35429H7.08571ZM7.29143 13.0286C7.91619 13.0286 8.40381 12.8457 8.75429 12.48C9.10476 12.1143 9.28 11.6724 9.28 11.1543C9.28 10.6057 9.10476 10.1562 8.75429 9.80571C8.40381 9.44 7.91619 9.25714 7.29143 9.25714H4.11429V13.0286H7.29143Z" />
</svg>
