<svg width="27" height="17" viewBox="0 0 27 17" fill="none" xmlns="http://www.w3.org/2000/svg">
<path d="M0.473239 16.2746C0.353052 16.2746 0.240376 16.2296 0.135211 16.1394C0.0450704 16.0493 0 15.9366 0 15.8014L0.0450704 15.5986L5.47606 1.06338C5.58122 0.687793 5.84413 0.5 6.26479 0.5H8.72113C9.11174 0.5 9.37465 0.687793 9.50986 1.06338L14.9408 15.5986C14.9559 15.6437 14.9634 15.7113 14.9634 15.8014C14.9634 15.9366 14.9183 16.0493 14.8282 16.1394C14.738 16.2296 14.6329 16.2746 14.5127 16.2746H12.5521C12.3568 16.2746 12.2066 16.2296 12.1014 16.1394C11.9962 16.0493 11.9286 15.9516 11.8986 15.8465L10.8394 13.0972H4.14648L3.08732 15.8465C2.96714 16.1319 2.7493 16.2746 2.4338 16.2746H0.473239ZM10.0507 10.5056L7.48169 3.54225L4.93521 10.5056H10.0507Z" />
<path d="M20.1996 16.5C19.4335 16.5 18.7273 16.3498 18.0813 16.0493C17.4504 15.7338 16.9471 15.3131 16.5715 14.7873C16.2109 14.2615 16.0306 13.6831 16.0306 13.0521C16.0306 12.0305 16.4438 11.2042 17.2701 10.5732C18.0964 9.94225 19.2306 9.51408 20.6729 9.28873L23.7602 8.83803V8.36479C23.7602 7.70376 23.595 7.20798 23.2644 6.87747C22.9339 6.54695 22.4006 6.38169 21.6644 6.38169C21.1687 6.38169 20.763 6.47934 20.4475 6.67465C20.1471 6.85493 19.9067 7.03521 19.7264 7.21549C19.5461 7.4108 19.4259 7.5385 19.3658 7.59859C19.3058 7.77887 19.1931 7.86901 19.0278 7.86901H17.2926C17.1574 7.86901 17.0372 7.82394 16.932 7.7338C16.8419 7.64366 16.7968 7.52347 16.7968 7.37324C16.8119 6.99765 16.9921 6.56948 17.3377 6.08873C17.6982 5.60798 18.2466 5.19484 18.9827 4.8493C19.7189 4.50376 20.6203 4.33099 21.687 4.33099C23.4597 4.33099 24.7518 4.72911 25.563 5.52535C26.3743 6.3216 26.7799 7.36573 26.7799 8.65775V15.7338C26.7799 15.884 26.7273 16.0117 26.6222 16.1169C26.532 16.2221 26.4043 16.2746 26.2391 16.2746H24.4137C24.2635 16.2746 24.1358 16.2221 24.0306 16.1169C23.9255 16.0117 23.8729 15.884 23.8729 15.7338V14.8549C23.5424 15.3357 23.0691 15.7338 22.4532 16.0493C21.8522 16.3498 21.1011 16.5 20.1996 16.5ZM20.9658 14.3592C21.7921 14.3592 22.4682 14.0887 22.994 13.5479C23.5198 13.007 23.7827 12.2183 23.7827 11.1817V10.7085L21.5292 11.069C20.6579 11.2042 19.9968 11.4221 19.5461 11.7225C19.1104 12.023 18.8926 12.3911 18.8926 12.8268C18.8926 13.3075 19.0954 13.6831 19.5011 13.9535C19.9067 14.2239 20.395 14.3592 20.9658 14.3592Z"  
/>
</svg>
