<svg width="17" height="16" viewBox="0 0 17 18" fill="none" xmlns="http://www.w3.org/2000/svg">
<path d="M0.537651 18C0.401104 18 0.273092 17.9486 0.153614 17.8457C0.0512048 17.7429 0 17.6143 0 17.46L0.0512048 17.2286L6.22138 0.642858C6.34086 0.214286 6.63956 0 7.11747 0H9.90813C10.3519 0 10.6506 0.214286 10.8042 0.642858L16.9744 17.2286C16.9915 17.28 17 17.3571 17 17.46C17 17.6143 16.9488 17.7429 16.8464 17.8457C16.744 17.9486 16.6245 18 16.488 18H14.2605C14.0387 18 13.868 17.9486 13.7485 17.8457C13.629 17.7429 13.5522 17.6314 13.5181 17.5114L12.3148 14.3743H4.71084L3.50753 17.5114C3.37098 17.8371 3.12349 18 2.76506 18H0.537651ZM11.4187 11.4171L8.5 3.47143L5.60693 11.4171H11.4187Z" fill="#2B3377"/>
</svg>
