<svg width="32" height="26" viewBox="0 0 32 26" fill="none" xmlns="http://www.w3.org/2000/svg">
<path d="M8.48 21C8.3581 21 8.24381 20.9543 8.13714 20.8629C8.04571 20.7714 8 20.6571 8 20.52L8.04571 20.3143L13.5543 5.57143C13.661 5.19048 13.9276 5 14.3543 5H16.8457C17.2419 5 17.5086 5.19048 17.6457 5.57143L23.1543 20.3143C23.1695 20.36 23.1771 20.4286 23.1771 20.52C23.1771 20.6571 23.1314 20.7714 23.04 20.8629C22.9486 20.9543 22.8419 21 22.72 21H20.7314C20.5333 21 20.381 20.9543 20.2743 20.8629C20.1676 20.7714 20.099 20.6724 20.0686 20.5657L18.9943 17.7771H12.2057L11.1314 20.5657C11.0095 20.8552 10.7886 21 10.4686 21H8.48ZM18.1943 15.1486L15.5886 8.08572L13.0057 15.1486H18.1943Z" />
<path d="M0.8 26C0.358172 26 -1.15615e-08 25.6418 -2.58234e-08 25.2L-8.13436e-07 0.799999C-8.27698e-07 0.358171 0.358171 -1.56562e-08 0.799999 -3.49691e-08C1.24183 -5.4282e-08 1.6 0.358171 1.6 0.799999L1.6 25.2C1.6 25.6418 1.24183 26 0.8 26Z" />
<path d="M30.8 26C30.3582 26 30 25.6418 30 25.2L30 0.799999C30 0.358171 30.3582 -1.56562e-08 30.8 -3.49691e-08C31.2418 -5.4282e-08 31.6 0.358171 31.6 0.799999L31.6 25.2C31.6 25.6418 31.2418 26 30.8 26Z" />
</svg>
