<svg width="26" height="26" viewBox="0 0 26 26" fill="none" xmlns="http://www.w3.org/2000/svg">
<path d="M5.89016 21.2113C5.76825 21.2113 5.65397 21.1656 5.5473 21.0742C5.45587 20.9828 5.41016 20.8685 5.41016 20.7313L5.45587 20.5256L10.9644 5.78276C11.0711 5.40181 11.3378 5.21133 11.7644 5.21133L14.2559 5.21133C14.6521 5.21133 14.9187 5.40181 15.0559 5.78276L20.5644 20.5256C20.5797 20.5713 20.5873 20.6399 20.5873 20.7313C20.5873 20.8685 20.5416 20.9828 20.4502 21.0742C20.3587 21.1656 20.2521 21.2113 20.1302 21.2113H18.1416C17.9435 21.2113 17.7911 21.1656 17.6844 21.0742C17.5778 20.9828 17.5092 20.8837 17.4787 20.777L16.4044 17.9885H9.61587L8.54158 20.777C8.41968 21.0666 8.19873 21.2113 7.87873 21.2113H5.89016ZM15.6044 15.3599L12.9987 8.29704L10.4159 15.3599L15.6044 15.3599Z" />
<path d="M26 24.8C26 25.2418 25.6418 25.6 25.2 25.6L0.799999 25.6C0.358171 25.6 -3.13124e-08 25.2418 -6.99382e-08 24.8C-1.08564e-07 24.3582 0.358171 24 0.799999 24L25.2 24C25.6418 24 26 24.3582 26 24.8Z" />
<path d="M26 0.8C26 1.24183 25.6418 1.6 25.2 1.6L0.799999 1.6C0.358171 1.6 -3.13124e-08 1.24183 -6.99382e-08 0.800002C-1.08564e-07 0.358175 0.358171 2.4801e-06 0.799999 2.44147e-06L25.2 4.27566e-07C25.6418 3.8894e-07 26 0.358173 26 0.8Z" />
</svg>
