<svg width="23" height="20" viewBox="0 0 23 20" fill="none" xmlns="http://www.w3.org/2000/svg">
<path fill-rule="evenodd" clip-rule="evenodd" d="M0 10C0 9.38638 0.497461 8.88892 1.11111 8.88892H21.1111C21.7248 8.88892 22.2222 9.38638 22.2222 10C22.2222 10.6137 21.7248 11.1111 21.1111 11.1111H1.11111C0.497461 11.1111 0 10.6137 0 10Z" fill="#2B3377"/>
<path fill-rule="evenodd" clip-rule="evenodd" d="M4.4451 13.3334C5.05875 13.3334 5.55621 13.8308 5.55621 14.4445V17.7778H7.77843V14.4445C7.77843 13.8308 8.27589 13.3334 8.88954 13.3334C9.50319 13.3334 10.0007 13.8308 10.0007 14.4445V18.8889C10.0007 19.5026 9.50319 20 8.88954 20H4.4451C3.83145 20 3.33398 19.5026 3.33398 18.8889V14.4445C3.33398 13.8308 3.83145 13.3334 4.4451 13.3334Z" fill="#2B3377"/>
<path fill-rule="evenodd" clip-rule="evenodd" d="M13.3333 13.3334C13.9469 13.3334 14.4444 13.8308 14.4444 14.4445V15.5556H16.6666V14.4445C16.6666 13.8308 17.1641 13.3334 17.7777 13.3334C18.3914 13.3334 18.8888 13.8308 18.8888 14.4445V16.6667C18.8888 17.2804 18.3914 17.7778 17.7777 17.7778H13.3333C12.7196 17.7778 12.2222 17.2804 12.2222 16.6667V14.4445C12.2222 13.8308 12.7196 13.3334 13.3333 13.3334Z" fill="#2B3377"/>
<path fill-rule="evenodd" clip-rule="evenodd" d="M12.2222 3.33352C12.2222 2.71987 12.7196 2.22241 13.3333 2.22241H17.7777C18.3914 2.22241 18.8888 2.71987 18.8888 3.33352V5.55574C18.8888 6.16939 18.3914 6.66686 17.7777 6.66686C17.1641 6.66686 16.6666 6.16939 16.6666 5.55574V4.44463H14.4444V5.55574C14.4444 6.16939 13.9469 6.66686 13.3333 6.66686C12.7196 6.66686 12.2222 6.16939 12.2222 5.55574V3.33352Z" fill="#2B3377"/>
<path fill-rule="evenodd" clip-rule="evenodd" d="M3.33398 1.11111C3.33398 0.497461 3.83145 0 4.4451 0H8.88954C9.50319 0 10.0007 0.497461 10.0007 1.11111V5.55556C10.0007 6.16921 9.50319 6.66667 8.88954 6.66667C8.27589 6.66667 7.77843 6.16921 7.77843 5.55556V2.22222H5.55621V5.55556C5.55621 6.16921 5.05875 6.66667 4.4451 6.66667C3.83145 6.66667 3.33398 6.16921 3.33398 5.55556V1.11111Z" fill="#2B3377"/>
</svg>
