<svg width="46" height="46" viewBox="0 0 46 46" fill="none" xmlns="http://www.w3.org/2000/svg">
<path d="M29.3379 11.8943H4.51792C3.3201 11.8957 2.17173 12.3721 1.32474 13.2191C0.477754 14.0661 0.00133205 15.2146 0 16.4124V41.2333C0.00133205 42.4311 0.477754 43.5795 1.32474 44.4266C2.17173 45.2736 3.3201 45.75 4.51792 45.7514H29.3379C30.5357 45.75 31.6841 45.2736 32.5311 44.4266C33.3781 43.5795 33.8545 42.4311 33.8558 41.2333V16.4124C33.8545 15.2146 33.3781 14.0661 32.5311 13.2191C31.6841 12.3721 30.5357 11.8957 29.3379 11.8943ZM28.3657 40.261H5.49013V17.3847H28.3657V40.261ZM23.7908 2.74516C23.7908 2.0171 24.08 1.31886 24.5948 0.80404C25.1096 0.289222 25.8078 0 26.5359 0H30.196C30.924 0 31.6222 0.289222 32.137 0.80404C32.6518 1.31886 32.941 2.0171 32.941 2.74516C32.941 3.47323 32.6518 4.17147 32.137 4.68629C31.6222 5.20111 30.924 5.49033 30.196 5.49033H26.5359C25.8078 5.49033 25.1096 5.20111 24.5948 4.68629C24.08 4.17147 23.7908 3.47323 23.7908 2.74516ZM45.7514 4.57527V6.40538C45.7514 7.13344 45.4621 7.83169 44.9473 8.34651C44.4325 8.86132 43.7343 9.15054 43.0063 9.15054C42.2782 9.15054 41.58 8.86132 41.0652 8.34651C40.5504 7.83169 40.2612 7.13344 40.2612 6.40538V5.49033H39.3462C38.6182 5.49033 37.9199 5.20111 37.4051 4.68629C36.8903 4.17147 36.6011 3.47323 36.6011 2.74516C36.6011 2.0171 36.8903 1.31886 37.4051 0.80404C37.9199 0.289222 38.6182 0 39.3462 0H41.1762C42.3892 0.00139256 43.5521 0.483876 44.4098 1.3416C45.2675 2.19933 45.75 3.36226 45.7514 4.57527ZM45.7514 15.5559V19.2161C45.7514 19.9442 45.4621 20.6424 44.9473 21.1573C44.4325 21.6721 43.7343 21.9613 43.0063 21.9613C42.2782 21.9613 41.58 21.6721 41.0652 21.1573C40.5504 20.6424 40.2612 19.9442 40.2612 19.2161V15.5559C40.2612 14.8279 40.5504 14.1296 41.0652 13.6148C41.58 13.1 42.2782 12.8108 43.0063 12.8108C43.7343 12.8108 44.4325 13.1 44.9473 13.6148C45.4621 14.1296 45.7514 14.8279 45.7514 15.5559ZM45.7514 28.3667V30.1968C45.75 31.4098 45.2675 32.5727 44.4098 33.4305C43.5521 34.2882 42.3892 34.7707 41.1762 34.7721H39.3462C38.6182 34.7721 37.9199 34.4828 37.4051 33.968C36.8903 33.4532 36.6011 32.755 36.6011 32.0269C36.6011 31.2988 36.8903 30.6006 37.4051 30.0858C37.9199 29.571 38.6182 29.2817 39.3462 29.2817H40.2612V28.3667C40.2612 27.6386 40.5504 26.9404 41.0652 26.4256C41.58 25.9107 42.2782 25.6215 43.0063 25.6215C43.7343 25.6215 44.4325 25.9107 44.9473 26.4256C45.4621 26.9404 45.7514 27.6386 45.7514 28.3667ZM10.9805 6.40538V4.57527C10.9819 3.36226 11.4644 2.19933 12.3221 1.3416C13.1798 0.483876 14.3426 0.00139256 15.5556 0H17.3857C18.1137 0 18.8119 0.289222 19.3267 0.80404C19.8415 1.31886 20.1307 2.0171 20.1307 2.74516C20.1307 3.47323 19.8415 4.17147 19.3267 4.68629C18.8119 5.20111 18.1137 5.49033 17.3857 5.49033H16.4706V6.40538C16.4706 7.13344 16.1814 7.83169 15.6666 8.34651C15.1518 8.86132 14.4536 9.15054 13.7256 9.15054C12.9975 9.15054 12.2993 8.86132 11.7845 8.34651C11.2697 7.83169 10.9805 7.13344 10.9805 6.40538Z" fill="#2B3377"/>
</svg>
