<svg width="53" height="53" viewBox="0 0 53 53" fill="none" xmlns="http://www.w3.org/2000/svg">
<circle cx="26.5" cy="26.5" r="25.75" stroke="#2B3377" stroke-width="1.5"/>
<path d="M35.0156 30.1231C38.5351 31.1893 42.4004 32.359 42.4004 25.8375C42.4004 22.5618 41.429 19.3596 39.6091 16.6359C37.7892 13.9122 35.2025 11.7894 32.1761 10.5358C29.1497 9.2822 25.8195 8.95421 22.6067 9.59328C19.3939 10.2323 16.4427 11.8098 14.1264 14.1261C11.8101 16.4424 10.2327 19.3935 9.59364 22.6063C8.95457 25.8192 9.28257 29.1493 10.5361 32.1757C11.7897 35.2021 13.9126 37.7888 16.6363 39.6087C19.36 41.4287 22.5621 42.4 25.8379 42.4C29.9702 42.4 29.6183 39.2863 29.2518 36.0235C28.9951 33.7441 28.7301 31.3922 29.9785 29.9782C30.9412 28.8871 32.9184 29.4875 35.0156 30.1231ZM25.8379 19.6266C25.4301 19.6266 25.0263 19.5463 24.6495 19.3902C24.2727 19.2341 23.9304 19.0054 23.642 18.717C23.3536 18.4287 23.1249 18.0863 22.9688 17.7095C22.8128 17.3328 22.7324 16.9289 22.7324 16.5211C22.7324 16.1133 22.8128 15.7095 22.9688 15.3327C23.1249 14.9559 23.3536 14.6136 23.642 14.3252C23.9304 14.0369 24.2727 13.8081 24.6495 13.652C25.0263 13.496 25.4301 13.4157 25.8379 13.4157C26.6615 13.4157 27.4514 13.7428 28.0338 14.3252C28.6162 14.9076 28.9434 15.6975 28.9434 16.5211C28.9434 17.3447 28.6162 18.1346 28.0338 18.717C27.4514 19.2994 26.6615 19.6266 25.8379 19.6266V19.6266ZM35.1543 25.8375C34.3307 25.8375 33.5408 25.5103 32.9584 24.928C32.376 24.3456 32.0488 23.5557 32.0488 22.7321C32.0488 21.9084 32.376 21.1186 32.9584 20.5362C33.5408 19.9538 34.3307 19.6266 35.1543 19.6266C35.9779 19.6266 36.7678 19.9538 37.3502 20.5362C37.9326 21.1186 38.2598 21.9084 38.2598 22.7321C38.2598 23.5557 37.9326 24.3456 37.3502 24.928C36.7678 25.5103 35.9779 25.8375 35.1543 25.8375V25.8375ZM19.627 22.7321C19.627 23.1399 19.5466 23.5437 19.3906 23.9205C19.2345 24.2972 19.0058 24.6396 18.7174 24.928C18.429 25.2163 18.0867 25.4451 17.7099 25.6011C17.3331 25.7572 16.9293 25.8375 16.5215 25.8375C16.1137 25.8375 15.7099 25.7572 15.3331 25.6011C14.9563 25.4451 14.614 25.2163 14.3256 24.928C14.0372 24.6396 13.8085 24.2972 13.6524 23.9205C13.4963 23.5437 13.416 23.1399 13.416 22.7321C13.416 21.9084 13.7432 21.1186 14.3256 20.5362C14.908 19.9538 15.6979 19.6266 16.5215 19.6266C17.3451 19.6266 18.135 19.9538 18.7174 20.5362C19.2998 21.1186 19.627 21.9084 19.627 22.7321V22.7321ZM20.6621 36.1891C19.8385 36.1891 19.0486 35.8619 18.4662 35.2795C17.8838 34.6971 17.5566 33.9072 17.5566 33.0836C17.5566 32.26 17.8838 31.4701 18.4662 30.8877C19.0486 30.3053 19.8385 29.9782 20.6621 29.9782C21.4857 29.9782 22.2756 30.3053 22.858 30.8877C23.4404 31.4701 23.7676 32.26 23.7676 33.0836C23.7676 33.9072 23.4404 34.6971 22.858 35.2795C22.2756 35.8619 21.4857 36.1891 20.6621 36.1891Z" fill="#2B3377"/>
<path d="M36.6715 41.075C36.573 41.075 36.4892 41.0403 36.4203 40.9708C36.3513 40.9013 36.3168 40.8169 36.3168 40.7177V37.8146H33.4796C33.3811 37.8146 33.2974 37.7799 33.2284 37.7104C33.1595 37.6409 33.125 37.5516 33.125 37.4424V36.6683C33.125 36.5591 33.1595 36.4747 33.2284 36.4152C33.2974 36.3457 33.3811 36.311 33.4796 36.311H36.3168V33.4823C36.3168 33.3731 36.3513 33.2888 36.4203 33.2292C36.4892 33.1597 36.573 33.125 36.6715 33.125H37.5285C37.6369 33.125 37.7206 33.1597 37.7797 33.2292C37.8487 33.2888 37.8832 33.3731 37.8832 33.4823V36.311H40.7204C40.8287 36.311 40.9125 36.3457 40.9716 36.4152C41.0405 36.4747 41.075 36.5591 41.075 36.6683V37.4424C41.075 37.5516 41.0405 37.6409 40.9716 37.7104C40.9026 37.7799 40.8189 37.8146 40.7204 37.8146H37.8832V40.7177C37.8832 40.8169 37.8487 40.9013 37.7797 40.9708C37.7206 41.0403 37.6369 41.075 37.5285 41.075H36.6715Z" fill="#2B3377"/>
</svg>
