<svg width="20" height="20" viewBox="0 0 20 20" fill="none" xmlns="http://www.w3.org/2000/svg">
<path d="M18.3333 3.6H15.1449V1.6C15.1449 0.7175 14.43 0 13.5507 0H5.57971C4.70041 0 3.98551 0.7175 3.98551 1.6V3.6H0.797101C0.356205 3.6 0 3.9575 0 4.4V5.2C0 5.31 0.0896739 5.4 0.199275 5.4H1.7038L2.31907 18.475C2.35892 19.3275 3.06137 20 3.91078 20H15.2197C16.0716 20 16.7715 19.33 16.8114 18.475L17.4266 5.4H18.9312C19.0408 5.4 19.1304 5.31 19.1304 5.2V4.4C19.1304 3.9575 18.7742 3.6 18.3333 3.6ZM13.3514 3.6H5.77899V1.8H13.3514V3.6Z" fill="#2B3377"/>
</svg>
