<svg width="20" height="20" viewBox="0 0 20 20" fill="none" xmlns="http://www.w3.org/2000/svg">
<path d="M2.00001 20.0001H14.0001C14.5305 20.0001 15.0392 19.7894 15.4143 19.4143C15.7894 19.0392 16.0001 18.5305 16.0001 18.0001V6.00001C16.0001 5.46958 15.7894 4.96087 15.4143 4.58579C15.0392 4.21071 14.5305 4 14.0001 4H2.00001C1.46958 4 0.960865 4.21071 0.58579 4.58579C0.210715 4.96087 0 5.46958 0 6.00001V18.0001C0 18.5305 0.210715 19.0392 0.58579 19.4143C0.960865 19.7894 1.46958 20.0001 2.00001 20.0001ZM4.00003 11H7.00004V8.00003H9.00006V11H12.0001V13.0001H9.00006V16.0001H7.00004V13.0001H4.00003V11Z" fill="#2B3377"/>
<path d="M18.0001 0H6V2.00001H18.0001V14.0001H20.0001V2.00001C20.0001 0.897006 19.1031 0 18.0001 0Z" fill="#2B3377"/>
</svg>
