<svg width="54" height="51" viewBox="0 0 54 51" fill="none" xmlns="http://www.w3.org/2000/svg">
<path d="M36.2694 34.0149H1.91656C1.60094 34.0156 1.29063 33.9345 1.01649 33.7796C0.742347 33.6247 0.513931 33.4015 0.353953 33.1321C0.193974 32.8627 0.108006 32.5566 0.104598 32.2441C0.101189 31.9316 0.180459 31.6236 0.334525 31.3509L17.5109 0.917484C17.6678 0.639296 17.8968 0.407602 18.1743 0.246317C18.4518 0.0850315 18.7678 0 19.0896 0C19.4114 0 19.7273 0.0850315 20.0048 0.246317C20.2823 0.407602 20.5113 0.639296 20.6682 0.917484L37.8446 31.3509C37.9984 31.6231 38.0777 31.9305 38.0746 32.2424C38.0714 32.5543 37.9861 32.86 37.8269 33.1292C37.6677 33.3984 37.4403 33.6218 37.1671 33.7771C36.8939 33.9325 36.5844 34.0144 36.2694 34.0149Z" fill="#2B3377"/>
<path d="M36.0865 14.2388C34.8684 14.2385 33.6534 14.365 32.4604 14.6163L40.7514 29.7708C41.2057 30.6015 41.4396 31.5391 41.4297 32.4905C41.4198 33.442 41.1666 34.3743 40.6952 35.195C40.2237 36.0157 39.5504 36.6963 38.742 37.1692C37.9335 37.6421 37.0181 37.8909 36.0865 37.891H19.0894C20.077 41.0986 21.9156 43.964 24.4011 46.1689C26.8866 48.3739 29.9217 49.8322 33.1696 50.382C36.4174 50.9318 39.7508 50.5515 42.7999 49.2834C45.8489 48.0153 48.4943 45.909 50.4423 43.1983C52.3902 40.4877 53.5647 37.2786 53.8351 33.9275C54.1056 30.5763 53.4615 27.2142 51.9744 24.2143C50.4873 21.2144 48.2153 18.6941 45.4107 16.9332C42.6061 15.1722 39.3786 14.2396 36.0865 14.2388Z" fill="#2B3377"/>
</svg>
