<svg width="17" height="20" viewBox="0 0 17 20" fill="none" xmlns="http://www.w3.org/2000/svg">
<path d="M10.9091 18.1818H12.7273V16.3636H10.9091V18.1818ZM14.5455 7.27273H16.3636V5.45455H14.5455L14.5455 7.27273ZM0 3.63636L0 16.3636C0 17.3636 0.818182 18.1818 1.81818 18.1818H5.45455L5.45455 16.3636H1.81818L1.81818 3.63636L5.45455 3.63636L5.45455 1.81818L1.81818 1.81818C0.818182 1.81818 0 2.63636 0 3.63636ZM14.5455 1.81818V3.63636L16.3636 3.63636C16.3636 2.63636 15.5455 1.81818 14.5455 1.81818ZM7.27273 20H9.09091L9.09091 0L7.27273 0L7.27273 20ZM14.5455 14.5455H16.3636L16.3636 12.7273H14.5455V14.5455ZM10.9091 3.63636L12.7273 3.63636V1.81818L10.9091 1.81818V3.63636ZM14.5455 10.9091H16.3636V9.09091H14.5455V10.9091ZM14.5455 18.1818C15.5455 18.1818 16.3636 17.3636 16.3636 16.3636H14.5455V18.1818Z" fill="#2B3377"/>
</svg>
