<svg width="20" height="20" viewBox="0 0 20 20" fill="none" xmlns="http://www.w3.org/2000/svg">
<path fill-rule="evenodd" clip-rule="evenodd" d="M0.18517 0.192504C0.43383 -0.0623547 0.839022 -0.0644208 1.09019 0.187889L6.20984 5.33075C6.46101 5.58306 6.46304 5.9942 6.21438 6.24906C5.96572 6.50391 5.56053 6.50598 5.30936 6.25367L0.189718 1.11081C-0.0614525 0.858503 -0.0634887 0.447362 0.18517 0.192504Z" fill="#2B3377"/>
<path fill-rule="evenodd" clip-rule="evenodd" d="M6.21438 13.699C6.46304 13.9538 6.46101 14.365 6.20984 14.6173L1.09019 19.7601C0.839022 20.0124 0.43383 20.0104 0.18517 19.7555C-0.0634887 19.5007 -0.0614526 19.0895 0.189718 18.8372L5.30936 13.6944C5.56053 13.442 5.96572 13.4441 6.21438 13.699Z" fill="#2B3377"/>
<path fill-rule="evenodd" clip-rule="evenodd" d="M13.5495 13.6967C13.7994 13.4431 14.2046 13.4431 14.4545 13.6967L19.5229 18.8395C19.7728 19.0931 19.7728 19.5042 19.5229 19.7578C19.273 20.0114 18.8678 20.0114 18.6178 19.7578L13.5495 14.615C13.2996 14.3614 13.2996 13.9502 13.5495 13.6967Z" fill="#2B3377"/>
<path fill-rule="evenodd" clip-rule="evenodd" d="M19.472 0.19019C19.7219 0.443778 19.7219 0.854924 19.472 1.10851L14.4035 6.25137C14.1536 6.50496 13.7484 6.50496 13.4985 6.25137C13.2486 5.99778 13.2486 5.58664 13.4985 5.33305L18.567 0.19019C18.8169 -0.0633968 19.2221 -0.0633968 19.472 0.19019Z" fill="#2B3377"/>
<path fill-rule="evenodd" clip-rule="evenodd" d="M13.8228 0.649351C13.8228 0.290724 14.1093 0 14.4627 0H19.0703C19.4238 0 19.7103 0.290724 19.7103 0.649351V5.32468C19.7103 5.6833 19.4238 5.97403 19.0703 5.97403C18.7169 5.97403 18.4304 5.6833 18.4304 5.32468V1.2987H14.4627C14.1093 1.2987 13.8228 1.00798 13.8228 0.649351Z" fill="#2B3377"/>
<path fill-rule="evenodd" clip-rule="evenodd" d="M19.0703 14.0259C19.4238 14.0259 19.7103 14.3166 19.7103 14.6752V19.3506C19.7103 19.7092 19.4238 19.9999 19.0703 19.9999H14.4627C14.1093 19.9999 13.8228 19.7092 13.8228 19.3506C13.8228 18.9919 14.1093 18.7012 14.4627 18.7012H18.4304V14.6752C18.4304 14.3166 18.7169 14.0259 19.0703 14.0259Z" fill="#2B3377"/>
<path fill-rule="evenodd" clip-rule="evenodd" d="M0.639949 14.0259C0.993383 14.0259 1.2799 14.3166 1.2799 14.6752V18.7012H5.24758C5.60102 18.7012 5.88753 18.9919 5.88753 19.3506C5.88753 19.7092 5.60102 19.9999 5.24758 19.9999H0.639949C0.286515 19.9999 0 19.7092 0 19.3506V14.6752C0 14.3166 0.286515 14.0259 0.639949 14.0259Z" fill="#2B3377"/>
<path fill-rule="evenodd" clip-rule="evenodd" d="M0 0.649351C0 0.290724 0.286515 0 0.639949 0H5.24758C5.60102 0 5.88753 0.290724 5.88753 0.649351C5.88753 1.00798 5.60102 1.2987 5.24758 1.2987H1.2799V5.32468C1.2799 5.6833 0.993383 5.97403 0.639949 5.97403C0.286515 5.97403 0 5.6833 0 5.32468V0.649351Z" fill="#2B3377"/>
</svg>
