<svg width="49" height="53" viewBox="0 0 49 53" fill="none" xmlns="http://www.w3.org/2000/svg">
<path fill-rule="evenodd" clip-rule="evenodd" d="M16.6532 3.4186L17.54 3.15673C19.2417 2.65475 21.0296 2.69909 22.7272 3.18518C23.2325 3.32991 23.8064 3.53656 24.3268 3.78504C24.8472 3.53656 25.4211 3.32991 25.9264 3.18518C27.6248 2.69825 29.4127 2.65391 31.1136 3.15673L32.0004 3.4186C33.2085 1.7219 35.1445 -0.214903 37.1373 0.019354C39.1143 0.251938 40.5224 2.3795 41.1917 4.0695C42.1463 6.48068 42.2441 9.19723 41.7321 11.7297C42.7637 12.7755 43.7677 14.0422 44.5784 15.1909C46.6013 18.0572 48.1926 21.3853 48.6536 24.89L48.1717 29.1509L46.6766 26.2102C46.9678 28.2064 46.8632 30.2519 46.4148 32.2448C44.1123 42.4685 40.1199 44.5952 32.1895 49.8593L34.0343 47.3159C31.2432 49.5305 27.8607 51.2431 24.7878 52.5173L24.3276 52.708L23.8675 52.5173C20.7945 51.2431 17.412 49.5305 14.621 47.3159L16.4658 49.8593C8.53534 44.5952 4.54292 42.4685 2.2405 32.2448C1.79207 30.2528 1.68749 28.2072 1.97864 26.2102L0.483574 29.1509L0 24.8908C0.460985 21.3861 2.0531 18.058 4.07524 15.1917C4.88594 14.043 5.8899 12.7763 6.92147 11.7306C6.40945 9.19806 6.5065 6.48151 7.46194 4.07033C8.13124 2.38033 9.5393 0.252775 11.5163 0.0201906C13.5091 -0.214903 15.4451 1.7219 16.6532 3.4186Z" fill="#E9E4E4"/>
<path fill-rule="evenodd" clip-rule="evenodd" d="M24.3278 5.15197C24.3278 5.15197 21.3511 3.28627 17.8816 4.31031C17.8816 4.31031 19.5724 4.19904 20.66 5.4222C20.1078 4.97795 18.2346 4.02502 16.1982 4.91436C16.1982 4.91436 13.8163 0.960431 11.657 1.21477C9.49764 1.4691 6.75014 6.12162 8.24269 12.1236C8.24269 12.1236 2.14531 17.8086 1.19238 25.0488C1.19238 25.0488 2.4306 22.3808 5.70184 20.3168C5.70184 20.3168 1.78221 24.7392 3.41365 31.982C4.27454 35.8029 6.33015 41.2661 12.0218 45.5639C12.0218 45.5639 10.4548 43.1895 10.4071 39.4665C10.4071 39.4665 10.8463 45.8182 24.3278 51.4078C37.8085 45.8182 38.2486 39.4665 38.2486 39.4665C38.2009 43.1904 36.6339 45.5639 36.6339 45.5639C42.3246 41.2661 44.3811 35.8029 45.242 31.982C46.8726 24.7401 42.9538 20.3168 42.9538 20.3168C46.225 22.3808 47.4632 25.0488 47.4632 25.0488C46.5103 17.8077 40.4129 12.1236 40.4129 12.1236C41.9055 6.12162 39.1588 1.4691 36.9986 1.21477C34.8393 0.960431 32.4574 4.91436 32.4574 4.91436C30.421 4.02502 28.547 4.97795 27.9956 5.4222C29.0832 4.19988 30.7741 4.31031 30.7741 4.31031C27.3046 3.28627 24.3278 5.15197 24.3278 5.15197Z" fill="#00051F"/>
<path fill-rule="evenodd" clip-rule="evenodd" d="M33.3784 7.66458C33.3784 7.66458 33.8302 5.75957 34.8793 4.56318C35.941 3.35174 37.6093 2.86649 39.0633 5.85495C39.0633 5.85495 36.7291 3.45715 36.1895 6.37868C34.9613 6.31928 33.9808 7.11575 33.3784 7.66458Z" fill="#E9E4E4"/>
<path fill-rule="evenodd" clip-rule="evenodd" d="M39.0631 5.85492C39.0631 5.85492 36.7289 3.45713 36.1892 6.37866C35.6672 6.35356 35.1894 6.48323 34.7661 6.68319C35.3635 4.40085 37.604 3.28897 39.0631 5.85492Z" fill="#8E8278"/>
<path fill-rule="evenodd" clip-rule="evenodd" d="M26.1449 14.0297C26.1449 14.0297 27.5823 13.7628 28.8238 14.6145C28.8238 14.6145 28.7569 14.0088 28.521 13.7159C28.521 13.7159 29.1058 13.7419 29.4446 14.0447C29.4446 14.0447 30.943 12.2376 32.7292 12.2794C32.7292 12.2794 31.4567 11.8787 30.4913 12.1874C30.4913 12.1874 33.0062 10.7501 35.501 11.9716C35.501 11.9716 34.1666 9.23075 32.3804 8.92287C30.5942 8.61499 27.8324 11.7147 25.9441 12.9061C25.9441 12.9061 26.8218 12.8032 27.4275 12.5572C27.0477 13.2081 26.621 13.68 26.1449 14.0297ZM33.1944 14.9458C33.1944 14.9458 34.5138 13.5394 35.8892 13.9812C37.2646 14.4229 38.62 17.2867 38.4142 19.011C38.4142 19.011 37.7775 17.7686 36.423 17.1219C36.423 17.1219 37.8084 21.1151 35.1396 23.9279C35.1396 23.9279 35.0367 21.218 32.1628 19.5339C32.1628 19.5339 31.6701 18.0355 30.4385 17.2139C30.4385 17.2139 31.691 18.5283 31.4651 20.1497C31.4651 20.1497 35.2425 22.2438 34.2988 27.3355C34.2988 27.3355 33.601 24.8925 30.3775 23.7631C30.3775 23.7631 33.6211 25.4673 32.8204 29.2656C32.8204 29.2656 32.1227 26.0421 27.4409 25.5702C24.9469 25.3184 25.1627 23.8836 26.083 22.8194C26.8904 21.8865 28.2993 21.4665 28.0976 19.308C28.0976 19.308 29.0732 18.4864 29.1142 17.2959C29.1142 17.2959 27.5187 19.3281 24.3278 18.7634C21.1377 19.3281 19.5414 17.2959 19.5414 17.2959C19.5824 18.4864 20.5579 19.308 20.5579 19.308C20.3563 21.4665 21.7652 21.8865 22.5725 22.8194C23.4928 23.8827 23.7087 25.3184 21.2147 25.5702C16.5337 26.0421 15.8351 29.2656 15.8351 29.2656C15.0344 25.4673 18.2781 23.7631 18.2781 23.7631C15.0545 24.8925 14.3568 27.3355 14.3568 27.3355C13.4122 22.2438 17.1904 20.1497 17.1904 20.1497C16.9646 18.5274 18.217 17.2139 18.217 17.2139C16.9855 18.0355 16.4927 19.5339 16.4927 19.5339C13.618 21.2172 13.516 23.9279 13.516 23.9279C10.8471 21.1151 12.2326 17.1219 12.2326 17.1219C10.8772 17.7686 10.2414 19.011 10.2414 19.011C10.0364 17.2867 11.3909 14.4221 12.7663 13.9812C14.1418 13.5394 15.4611 14.9458 15.4611 14.9458C14.7625 15.3725 14.2062 16.1338 13.9426 16.896C16.9194 14.2472 20.9126 15.8385 20.9126 15.8385C20.4918 15.3256 19.9781 15.1608 19.9781 15.1608C22.616 14.0724 24.3278 15.6845 24.3278 15.6845C24.3278 15.6845 26.0387 14.0732 28.6774 15.1608C28.6774 15.1608 28.1637 15.3248 27.7429 15.8385C27.7429 15.8385 31.7362 14.2472 34.7129 16.896C34.4494 16.1338 33.893 15.3725 33.1944 14.9458ZM22.5106 14.0297C22.5106 14.0297 21.0733 13.7628 19.8317 14.6145C19.8317 14.6145 19.8986 14.0088 20.1346 13.7159C20.1346 13.7159 19.5498 13.7419 19.2109 14.0447C19.2109 14.0447 17.7125 12.2376 15.9263 12.2794C15.9263 12.2794 17.1988 11.8787 18.1643 12.1874C18.1643 12.1874 15.6494 10.7501 13.1545 11.9716C13.1545 11.9716 14.489 9.23075 16.2752 8.92287C18.0614 8.61499 20.8231 11.7147 22.7114 12.9061C22.7114 12.9061 21.8338 12.8032 21.228 12.5572C21.6079 13.2081 22.0346 13.68 22.5106 14.0297Z" fill="#E9E4E4"/>
<path fill-rule="evenodd" clip-rule="evenodd" d="M30.4385 17.2147C30.4385 17.2147 31.8357 17.7602 32.6614 18.9749C32.6614 18.9749 34.3765 19.1498 35.5194 20.8724C35.5194 20.8724 36.4087 17.9032 35.5353 15.7673C35.5353 15.7673 36.3769 16.0768 36.7099 16.4107C36.7099 16.4107 36.6949 14.9892 35.7679 13.9468C35.808 13.9568 35.8482 13.9677 35.8883 13.9811C37.2638 14.4228 38.6191 17.2866 38.4133 19.0109C38.4133 19.0109 37.7766 17.7685 36.4221 17.1218C36.4221 17.1218 37.8076 21.1151 35.1387 23.9278C35.1387 23.9278 35.0358 21.218 32.162 19.5338C32.1628 19.5347 31.67 18.0354 30.4385 17.2147ZM29.1141 17.2967C29.1141 17.2967 29.4145 18.4353 28.5728 19.4911C28.5728 19.4911 29.1919 21.2297 28.0014 22.5474C28.0014 22.5474 28.9384 22.0713 29.1367 20.6892C29.1367 20.6892 29.3191 21.6103 29.0974 22.2453C29.0974 22.2453 32.2414 22.4043 33.7181 24.992C33.7181 24.992 33.6587 22.0387 31.4659 20.1496C31.4659 20.1496 35.2433 22.2437 34.2996 27.3354C34.2996 27.3354 33.6018 24.8925 30.3783 23.763C30.3783 23.763 33.6219 25.4672 32.8212 29.2655C32.8212 29.2655 32.1235 26.042 27.4417 25.5701C24.9477 25.3183 25.1635 23.8835 26.0838 22.8201C26.8912 21.8873 28.3001 21.4673 28.0984 19.3088C28.0976 19.3088 29.0723 18.4872 29.1141 17.2967Z" fill="#8E8278"/>
<path fill-rule="evenodd" clip-rule="evenodd" d="M35.5014 11.9715C35.5014 11.9715 32.8117 8.61407 29.6358 11.9648C29.6358 11.9648 30.1796 11.0478 31.3902 10.361C28.9665 11.0303 28.5549 12.6826 26.8247 13.992C27.3568 14.0087 28.1215 14.1325 28.8234 14.6144C28.8234 14.6144 28.7565 14.0087 28.5206 13.7159C28.5206 13.7159 29.1054 13.7418 29.4442 14.0447C29.4442 14.0447 30.9426 12.2375 32.7288 12.2794C32.7288 12.2794 31.4563 11.8786 30.4908 12.1873C30.4917 12.1865 33.0066 10.75 35.5014 11.9715Z" fill="#8E8278"/>
<path fill-rule="evenodd" clip-rule="evenodd" d="M9.5517 20.244C9.5517 20.244 7.13885 26.0352 10.2001 29.8695C10.2001 29.8695 9.24382 27.0567 11.9821 24.4941C11.9821 24.4941 10.6184 27.5604 12.8096 30.3757C15.0007 33.1909 15.7846 34.9671 15.5295 39.4406C15.5295 39.4406 15.1396 37.0888 13.4671 35.6908C13.4671 35.6908 12.8054 40.5257 15.2626 43.2966C11.0367 41.1105 12.1319 34.5546 9.00203 32.5894C9.00203 32.5894 10.206 34.4333 9.42202 37.1139C9.29904 34.0451 7.96294 32.8203 7.24427 30.5221C6.3909 27.7963 5.99768 25.0463 9.5517 20.244Z" fill="#E9E4E4"/>
<path fill-rule="evenodd" clip-rule="evenodd" d="M39.1032 20.244C39.1032 20.244 41.516 26.0352 38.4548 29.8695C38.4548 29.8695 39.4111 27.0567 36.6728 24.4941C36.6728 24.4941 38.0365 27.5604 35.8453 30.3757C33.6542 33.1909 32.8703 34.9671 33.1254 39.4406C33.1254 39.4406 33.5153 37.0888 35.1877 35.6908C35.1877 35.6908 35.8495 40.5257 33.3923 43.2966C37.6182 41.1105 36.523 34.5546 39.6529 32.5894C39.6529 32.5894 38.4489 34.4333 39.2329 37.1139C39.3559 34.0451 40.692 32.8203 41.4106 30.5221C42.264 27.7963 42.6572 25.0463 39.1032 20.244Z" fill="#E9E4E4"/>
<path fill-rule="evenodd" clip-rule="evenodd" d="M33.125 39.4414C33.125 39.4414 33.5149 37.0896 35.1873 35.6916C35.1873 35.6916 35.8491 40.5265 33.3919 43.2975C37.6177 41.1113 36.5226 34.5555 39.6524 32.5902C39.6524 32.5902 38.4485 34.4342 39.2324 37.1147C39.3554 34.046 40.6915 32.8211 41.4102 30.5229C42.2635 27.7963 42.6568 25.0463 39.1027 20.244C43.7695 29.1717 37.5491 30.4258 36.638 34.4007C36.638 34.4007 36.2097 32.924 36.8606 31.4474C36.8614 31.4474 33.5182 34.0493 33.125 39.4414Z" fill="#8E8278"/>
<path fill-rule="evenodd" clip-rule="evenodd" d="M15.2767 7.66458C15.2767 7.66458 14.8249 5.75957 13.7758 4.56318C12.7141 3.35174 11.0459 2.86649 9.5918 5.85495C9.5918 5.85495 11.926 3.45715 12.4656 6.37868C13.6938 6.31928 14.6743 7.11575 15.2767 7.66458Z" fill="#E9E4E4"/>
<path fill-rule="evenodd" clip-rule="evenodd" d="M24.3275 27.3706C17.9817 27.3045 15.4575 32.5695 21.6369 36.4406C21.6369 36.4406 20.6212 34.9539 20.3761 33.1476C20.3761 33.1476 21.3725 36.7225 24.3275 37.4002C27.2825 36.7225 28.279 33.1476 28.279 33.1476C28.0347 34.9539 27.0181 36.4406 27.0181 36.4406C33.1975 32.5695 30.6734 27.3045 24.3275 27.3706Z" fill="#E9E4E4"/>
<path fill-rule="evenodd" clip-rule="evenodd" d="M24.3276 37.4001C27.2826 36.7224 28.2791 33.1475 28.2791 33.1475C28.0348 34.9538 27.0183 36.4405 27.0183 36.4405C32.1861 33.2035 31.2667 28.9928 27.1161 27.7386C28.4179 29.9833 27.429 32.8614 27.429 32.8614C27.3337 31.829 26.6351 30.861 26.6351 30.861C27.8105 35.0517 24.3276 37.4001 24.3276 37.4001Z" fill="#8E8278"/>
<path fill-rule="evenodd" clip-rule="evenodd" d="M18.2168 17.2147C18.2168 17.2147 16.8196 17.7602 15.9939 18.9749C15.9939 18.9749 14.2788 19.1498 13.1359 20.8724C13.1359 20.8724 12.2466 17.9032 13.12 15.7673C13.12 15.7673 12.2784 16.0768 11.9454 16.4107C11.9454 16.4107 11.9605 14.9892 12.8874 13.9468C12.8473 13.9568 12.8071 13.9677 12.767 13.9811C11.3915 14.4228 10.0362 17.2866 10.242 19.0109C10.242 19.0109 10.8787 17.7685 12.2332 17.1218C12.2332 17.1218 10.8477 21.1151 13.5166 23.9278C13.5166 23.9278 13.6195 21.218 16.4933 19.5338C16.4925 19.5347 16.9853 18.0354 18.2168 17.2147ZM19.5412 17.2967C19.5412 17.2967 19.2408 18.4353 20.0825 19.4911C20.0825 19.4911 19.4634 21.2297 20.6539 22.5474C20.6539 22.5474 19.7169 22.0713 19.5186 20.6892C19.5186 20.6892 19.3362 21.6103 19.5579 22.2453C19.5579 22.2453 16.4139 22.4043 14.9372 24.992C14.9372 24.992 14.9966 22.0387 17.1894 20.1496C17.1894 20.1496 13.412 22.2437 14.3557 27.3354C14.3557 27.3354 15.0535 24.8925 18.277 23.763C18.277 23.763 15.0334 25.4672 15.8341 29.2655C15.8341 29.2655 16.5318 26.042 21.2136 25.5701C23.7076 25.3183 23.4918 23.8835 22.5715 22.8201C21.7641 21.8873 20.3552 21.4673 20.5569 19.3088C20.5577 19.3088 19.583 18.4872 19.5412 17.2967Z" fill="#8E8278"/>
<path fill-rule="evenodd" clip-rule="evenodd" d="M13.1533 11.9715C13.1533 11.9715 15.8431 8.61407 19.019 11.9648C19.019 11.9648 18.4751 11.0478 17.2645 10.361C19.6883 11.0303 20.0999 12.6826 21.83 13.992C21.2979 14.0087 20.5333 14.1325 19.8313 14.6144C19.8313 14.6144 19.8983 14.0087 20.1342 13.7159C20.1342 13.7159 19.5494 13.7418 19.2105 14.0447C19.2105 14.0447 17.7121 12.2375 15.9259 12.2794C15.9259 12.2794 17.1984 11.8786 18.1639 12.1873C18.1631 12.1865 15.6482 10.75 13.1533 11.9715Z" fill="#8E8278"/>
<path fill-rule="evenodd" clip-rule="evenodd" d="M15.5304 39.4414C15.5304 39.4414 15.1406 37.0896 13.4681 35.6916C13.4681 35.6916 12.8063 40.5265 15.2635 43.2975C11.0377 41.1113 12.1329 34.5555 9.00301 32.5902C9.00301 32.5902 10.2069 34.4342 9.423 37.1147C9.30002 34.046 7.96391 32.8211 7.24524 30.5229C6.39188 27.7963 5.99866 25.0463 9.55268 20.244C4.88594 29.1717 11.1063 30.4258 12.0174 34.4007C12.0174 34.4007 12.4458 32.924 11.7949 31.4474C11.794 31.4474 15.1372 34.0493 15.5304 39.4414Z" fill="#8E8278"/>
<path fill-rule="evenodd" clip-rule="evenodd" d="M24.3276 37.4001C21.3727 36.7224 20.3762 33.1475 20.3762 33.1475C20.6205 34.9538 21.637 36.4405 21.637 36.4405C16.4691 33.2035 17.3886 28.9928 21.5391 27.7386C20.2373 29.9833 21.2262 32.8614 21.2262 32.8614C21.3216 31.829 22.0202 30.861 22.0202 30.861C20.8447 35.0517 24.3276 37.4001 24.3276 37.4001Z" fill="#8E8278"/>
<path fill-rule="evenodd" clip-rule="evenodd" d="M9.5918 5.85492C9.5918 5.85492 11.926 3.45713 12.4656 6.37866C12.9877 6.35356 13.4654 6.48323 13.8887 6.68319C13.2914 4.40085 11.0509 3.28897 9.5918 5.85492Z" fill="#8E8278"/>
</svg>
