<svg width="20" height="20" viewBox="0 0 20 20" fill="none" xmlns="http://www.w3.org/2000/svg">
<path fill-rule="evenodd" clip-rule="evenodd" d="M5.70583 0C5.41913 0 5.18672 0.232412 5.18672 0.519108V5.2632H0.526312C0.235638 5.2632 0 5.49884 0 5.78951C0 6.08018 0.235638 6.31582 0.526312 6.31582H5.18672V9.47374H0.526314C0.235639 9.47374 0 9.70938 0 10.0001C0 10.2907 0.235639 10.5264 0.526315 10.5264H5.18672V13.6841H0.526316C0.23564 13.6841 0 13.9197 0 14.2104C0 14.5011 0.23564 14.7367 0.526316 14.7367H5.18672V19.4809C5.18672 19.7676 5.41913 20 5.70583 20C5.99252 20 6.22493 19.7676 6.22493 19.4809V14.7367H9.33581V19.4809C9.33581 19.7676 9.56822 20 9.85492 20C10.1416 20 10.374 19.7676 10.374 19.4809V14.7367H13.4859V19.4809C13.4859 19.7676 13.7183 20 14.005 20C14.2917 20 14.5242 19.7676 14.5242 19.4809V14.7367L19.1842 14.7367C19.4748 14.7367 19.7105 14.5011 19.7105 14.2104C19.7105 13.9197 19.4748 13.6841 19.1842 13.6841L14.5242 13.6841V10.5264L19.1842 10.5264C19.4748 10.5264 19.7105 10.2907 19.7105 10.0001C19.7105 9.70938 19.4748 9.47374 19.1842 9.47374L14.5242 9.47374V6.31582L19.1842 6.31582C19.4748 6.31582 19.7105 6.08018 19.7105 5.78951C19.7105 5.49883 19.4748 5.2632 19.1842 5.2632L14.5242 5.2632V0.519108C14.5242 0.232412 14.2917 0 14.005 0C13.7183 0 13.4859 0.232412 13.4859 0.519108V5.2632H10.374V0.519108C10.374 0.232412 10.1416 0 9.85492 0C9.56822 0 9.33581 0.232412 9.33581 0.519108V5.2632H6.22493V0.519108C6.22493 0.232412 5.99252 0 5.70583 0ZM13.4859 6.31582H10.374V9.47374H13.4859V6.31582ZM13.4859 10.5264H10.374V13.6841H13.4859V10.5264ZM9.33581 10.5264V13.6841H6.22493V10.5264H9.33581ZM9.33581 6.31582V9.47374H6.22493V6.31582H9.33581Z" fill="#2B3377"/>
</svg>
