<svg width="22" height="22" viewBox="0 0 22 22" fill="none" xmlns="http://www.w3.org/2000/svg">
<path d="M11.0001 0.600098C13.7583 0.600098 16.4036 1.69581 18.354 3.64619C20.3044 5.59657 21.4001 8.24185 21.4001 11.0001C21.4001 13.7583 20.3044 16.4036 18.354 18.354C16.4036 20.3044 13.7583 21.4001 11.0001 21.4001C8.24185 21.4001 5.59657 20.3044 3.64619 18.354C1.69581 16.4036 0.600098 13.7583 0.600098 11.0001C0.600098 8.24185 1.69581 5.59657 3.64619 3.64619C5.59657 1.69581 8.24185 0.600098 11.0001 0.600098ZM11.0001 1.9001C9.80507 1.9001 8.62174 2.13548 7.51768 2.59279C6.41362 3.05011 5.41044 3.72041 4.56543 4.56543C3.72041 5.41044 3.05011 6.41362 2.59279 7.51768C2.13548 8.62174 1.9001 9.80507 1.9001 11.0001C1.9001 12.1951 2.13548 13.3785 2.59279 14.4825C3.05011 15.5866 3.72041 16.5898 4.56543 17.4348C5.41044 18.2798 6.41362 18.9501 7.51768 19.4074C8.62174 19.8647 9.80507 20.1001 11.0001 20.1001C13.4136 20.1001 15.7282 19.1413 17.4348 17.4348C19.1413 15.7282 20.1001 13.4136 20.1001 11.0001C20.1001 8.58663 19.1413 6.27201 17.4348 4.56543C15.7282 2.85884 13.4136 1.9001 11.0001 1.9001ZM11.0001 15.5501C11.2587 15.5501 11.5067 15.6528 11.6895 15.8357C11.8724 16.0185 11.9751 16.2665 11.9751 16.5251C11.9751 16.7837 11.8724 17.0317 11.6895 17.2145C11.5067 17.3974 11.2587 17.5001 11.0001 17.5001C10.7415 17.5001 10.4935 17.3974 10.3107 17.2145C10.1278 17.0317 10.0251 16.7837 10.0251 16.5251C10.0251 16.2665 10.1278 16.0185 10.3107 15.8357C10.4935 15.6528 10.7415 15.5501 11.0001 15.5501ZM11.0001 5.1501C11.6605 5.15018 12.3053 5.35148 12.8485 5.72718C13.3916 6.10287 13.8075 6.63514 14.0405 7.25309C14.2736 7.87103 14.3129 8.54532 14.1532 9.18616C13.9934 9.82699 13.6423 10.404 13.1464 10.8402L12.9462 11.0027L12.6615 11.2146L12.5484 11.3082C12.4773 11.369 12.4096 11.4337 12.3456 11.5019C11.9049 11.9699 11.6501 12.6147 11.6501 13.6001C11.6501 13.7725 11.5816 13.9378 11.4597 14.0597C11.3378 14.1816 11.1725 14.2501 11.0001 14.2501C10.8277 14.2501 10.6624 14.1816 10.5405 14.0597C10.4186 13.9378 10.3501 13.7725 10.3501 13.6001C10.3501 12.2845 10.731 11.3225 11.3966 10.6127C11.5398 10.461 11.6945 10.3206 11.8594 10.1928L12.1805 9.9523L12.3339 9.8223C12.5698 9.60113 12.7469 9.32478 12.8495 9.01812C12.952 8.71146 12.9767 8.38412 12.9212 8.06556C12.8658 7.747 12.732 7.44722 12.532 7.19321C12.3319 6.9392 12.0718 6.73892 11.7751 6.61042C11.4784 6.48191 11.1544 6.42921 10.8322 6.45705C10.5101 6.48489 10.1999 6.5924 9.92963 6.7699C9.65936 6.9474 9.43747 7.18933 9.28394 7.4739C9.13041 7.75847 9.05005 8.07675 9.0501 8.4001C9.05027 8.57249 8.98195 8.73789 8.86018 8.85991C8.7384 8.98193 8.57314 9.05057 8.40075 9.05075C8.22836 9.05092 8.06296 8.9826 7.94094 8.86083C7.81892 8.73905 7.75027 8.57379 7.7501 8.4014C7.74993 7.97449 7.83386 7.55174 7.99712 7.15728C8.16037 6.76282 8.39973 6.40439 8.70154 6.10246C9.00335 5.80053 9.36168 5.56102 9.75608 5.39761C10.1505 5.2342 10.5732 5.1501 11.0001 5.1501Z" fill="white"/>
</svg>
