<svg width="48" height="49" viewBox="0 0 48 49" fill="none" xmlns="http://www.w3.org/2000/svg">
<rect x="0.5" y="0.5" width="47" height="48" rx="23.5" stroke="#2B3377"/>
<path d="M32.8125 16H16.1875C15.8726 16 15.5705 16.1279 15.3478 16.3557C15.1251 16.5834 15 16.8922 15 17.2143V31.7857C15 32.1078 15.1251 32.4166 15.3478 32.6443C15.5705 32.8721 15.8726 33 16.1875 33H32.8125C33.1274 33 33.4295 32.8721 33.6522 32.6443C33.8749 32.4166 34 32.1078 34 31.7857V17.2143C34 16.8922 33.8749 16.5834 33.6522 16.3557C33.4295 16.1279 33.1274 16 32.8125 16V16ZM19.1088 18.4286C19.461 18.4286 19.8054 18.5354 20.0984 18.7355C20.3913 18.9357 20.6196 19.2201 20.7544 19.553C20.8892 19.8858 20.9245 20.252 20.8558 20.6053C20.787 20.9587 20.6174 21.2832 20.3683 21.5379C20.1192 21.7927 19.8018 21.9662 19.4563 22.0364C19.1107 22.1067 18.7526 22.0706 18.4271 21.9328C18.1016 21.7949 17.8234 21.5615 17.6277 21.2619C17.432 20.9624 17.3275 20.6102 17.3275 20.25C17.3275 19.7669 17.5152 19.3036 17.8492 18.9621C18.1833 18.6205 18.6363 18.4286 19.1088 18.4286V18.4286ZM17.375 29.9643V27.475L20.9375 23.7836C21.0487 23.6705 21.1992 23.607 21.3561 23.607C21.513 23.607 21.6634 23.6705 21.7747 23.7836L23.3125 25.3196L18.7525 29.9643H17.375ZM31.625 29.9643H20.4328L24.1319 26.1818L27.3381 22.9032C27.4494 22.7901 27.5999 22.7267 27.7567 22.7267C27.9136 22.7267 28.0641 22.7901 28.1753 22.9032L31.625 26.4307V29.9643Z" fill="#2B3377"/>
</svg>
