<svg width="21" height="20" viewBox="0 0 21 20" fill="none" xmlns="http://www.w3.org/2000/svg">
<path d="M4.60254 16.5713C4.5073 16.5713 4.41802 16.5356 4.33468 16.4641C4.26325 16.3927 4.22754 16.3034 4.22754 16.1963L4.26325 16.0356L8.56682 4.51772C8.65016 4.2201 8.85849 4.07129 9.19182 4.07129H11.1383C11.4478 4.07129 11.6561 4.2201 11.7633 4.51772L16.0668 16.0356C16.0787 16.0713 16.0847 16.1249 16.0847 16.1963C16.0847 16.3034 16.049 16.3927 15.9775 16.4641C15.9061 16.5356 15.8228 16.5713 15.7275 16.5713H14.174C14.0192 16.5713 13.9002 16.5356 13.8168 16.4641C13.7335 16.3927 13.6799 16.3153 13.6561 16.232L12.8168 14.0534L7.51325 14.0534L6.67397 16.232C6.57873 16.4582 6.40611 16.5713 6.15611 16.5713H4.60254ZM12.1918 11.9999L10.1561 6.482L8.13825 11.9999H12.1918Z" fill="#2B3377"/>
<path d="M20.3125 19.375C20.3125 19.7202 20.0327 20 19.6875 20L0.625002 20C0.279823 20 1.88289e-06 19.7202 1.85271e-06 19.375C1.82253e-06 19.0298 0.279823 18.75 0.625002 18.75L19.6875 18.75C20.0327 18.75 20.3125 19.0298 20.3125 19.375Z" fill="#2B3377"/>
<path d="M20.3125 0.625C20.3125 0.970178 20.0327 1.25 19.6875 1.25L0.625002 1.25C0.279823 1.25 1.88289e-06 0.97018 1.85271e-06 0.625002C1.82253e-06 0.279824 0.279823 1.75131e-06 0.625002 1.72114e-06L19.6875 1.73849e-07C20.0327 1.43672e-07 20.3125 0.279822 20.3125 0.625Z" fill="#2B3377"/>
</svg>
