<svg width="464" height="343" viewBox="0 0 464 343" fill="none" xmlns="http://www.w3.org/2000/svg">
<path d="M407.226 190.347C407.226 93.3774 328.632 14.7683 231.682 14.7683C134.732 14.7683 56.1383 93.3774 56.1383 190.347C56.1383 248.537 84.448 300.106 128.035 332.054H335.328C378.916 300.106 407.226 248.537 407.226 190.347Z" fill="#EBEBEC"/>
<path d="M106.162 333.082C105.92 333.082 105.678 332.997 105.482 332.824L104.711 332.138C104.289 331.76 104.253 331.111 104.631 330.688C105.01 330.266 105.658 330.23 106.081 330.607L106.843 331.286C107.268 331.662 107.307 332.311 106.931 332.736C106.729 332.965 106.447 333.082 106.162 333.082Z" fill="#E4E5E6"/>
<path d="M97.9137 325.317C97.6508 325.317 97.3887 325.217 97.1881 325.017C96.6995 324.529 96.2135 324.038 95.7303 323.545C95.3333 323.14 95.3402 322.49 95.7454 322.093C96.1505 321.697 96.8008 321.703 97.1977 322.108C97.6755 322.596 98.156 323.082 98.6392 323.564C99.0402 323.966 99.0409 324.615 98.6405 325.016C98.44 325.216 98.1765 325.317 97.9137 325.317ZM365.63 325.138C365.367 325.138 365.104 325.038 364.904 324.838C364.502 324.437 364.502 323.788 364.903 323.386C365.385 322.903 365.865 322.417 366.343 321.928C366.739 321.523 367.39 321.515 367.794 321.911C368.2 322.308 368.208 322.958 367.812 323.363C367.329 323.857 366.844 324.348 366.356 324.837C366.156 325.038 365.892 325.138 365.63 325.138ZM89.4574 316.3C89.172 316.3 88.8887 316.182 88.6861 315.951C88.2309 315.432 87.7778 314.912 87.3275 314.388C86.9579 313.958 87.0064 313.31 87.4363 312.94C87.8661 312.57 88.5136 312.618 88.8839 313.049C89.3294 313.567 89.7777 314.082 90.2281 314.596C90.6025 315.022 90.56 315.671 90.1343 316.045C89.9399 316.216 89.6983 316.3 89.4574 316.3ZM374.073 316.111C373.833 316.111 373.592 316.027 373.397 315.856C372.971 315.482 372.928 314.833 373.302 314.407C373.753 313.893 374.201 313.377 374.645 312.858C375.014 312.427 375.661 312.378 376.093 312.747C376.523 313.116 376.572 313.764 376.203 314.195C375.754 314.719 375.301 315.241 374.846 315.761C374.643 315.992 374.359 316.111 374.073 316.111ZM81.6042 306.755C81.2962 306.755 80.9923 306.618 80.7904 306.355C80.3695 305.807 79.9513 305.258 79.5358 304.706C79.195 304.253 79.286 303.609 79.7391 303.268C80.1922 302.928 80.8356 303.018 81.1771 303.472C81.5878 304.018 82.0012 304.561 82.4173 305.102C82.7629 305.551 82.6794 306.197 82.2304 306.542C82.0429 306.686 81.8225 306.755 81.6042 306.755ZM381.915 306.553C381.697 306.553 381.477 306.484 381.291 306.341C380.841 305.996 380.756 305.351 381.101 304.901C381.517 304.358 381.931 303.814 382.342 303.267C382.682 302.814 383.326 302.722 383.779 303.062C384.233 303.402 384.325 304.047 383.984 304.5C383.57 305.052 383.152 305.603 382.732 306.151C382.528 306.415 382.223 306.553 381.915 306.553ZM74.3888 296.72C74.0583 296.72 73.7331 296.561 73.536 296.266C73.1514 295.693 72.7701 295.118 72.3916 294.54C72.0809 294.066 72.213 293.429 72.6873 293.118C73.161 292.807 73.7982 292.939 74.1089 293.414C74.4833 293.985 74.8604 294.555 75.2403 295.121C75.5565 295.592 75.4312 296.229 74.9603 296.546C74.7844 296.664 74.586 296.72 74.3888 296.72ZM389.119 296.506C388.923 296.506 388.725 296.45 388.549 296.332C388.078 296.016 387.952 295.378 388.267 294.907C388.648 294.34 389.024 293.77 389.398 293.197C389.709 292.722 390.345 292.589 390.82 292.899C391.294 293.21 391.427 293.846 391.117 294.321C390.738 294.899 390.358 295.476 389.973 296.05C389.775 296.346 389.451 296.506 389.119 296.506ZM67.8422 286.237C67.4876 286.237 67.1434 286.055 66.9531 285.726C66.6068 285.129 66.2646 284.531 65.9244 283.93C65.6451 283.437 65.8183 282.81 66.3111 282.531C66.8053 282.251 67.4308 282.425 67.7108 282.918C68.0475 283.511 68.3863 284.104 68.7285 284.695C69.0133 285.186 68.8463 285.814 68.3555 286.099C68.194 286.192 68.0167 286.237 67.8422 286.237ZM395.655 286.01C395.48 286.01 395.303 285.966 395.141 285.872C394.65 285.588 394.483 284.961 394.766 284.469C395.108 283.877 395.448 283.283 395.783 282.687C396.062 282.192 396.689 282.02 397.181 282.297C397.676 282.575 397.851 283.201 397.572 283.695C397.232 284.298 396.89 284.898 396.544 285.497C396.354 285.826 396.009 286.01 395.655 286.01ZM61.9943 275.351C61.6165 275.351 61.2531 275.141 61.0738 274.78C60.7678 274.162 60.4646 273.542 60.1648 272.922C59.9184 272.411 60.1327 271.796 60.6433 271.55C61.1532 271.303 61.7671 271.518 62.0142 272.028C62.3106 272.642 62.6103 273.256 62.9129 273.867C63.1647 274.375 62.9567 274.992 62.4488 275.243C62.303 275.317 62.1477 275.351 61.9943 275.351ZM401.491 275.107C401.338 275.107 401.183 275.073 401.037 275.001C400.529 274.751 400.32 274.135 400.571 273.626C400.873 273.013 401.173 272.398 401.469 271.781C401.715 271.27 402.33 271.053 402.839 271.301C403.35 271.546 403.566 272.16 403.32 272.67C403.02 273.294 402.717 273.916 402.411 274.536C402.233 274.897 401.869 275.107 401.491 275.107ZM56.8727 264.105C56.4702 264.105 56.089 263.867 55.9248 263.473C55.6599 262.836 55.3984 262.199 55.1404 261.559C54.9275 261.033 55.1821 260.434 55.7078 260.223C56.2334 260.009 56.8316 260.264 57.0445 260.79C57.2998 261.423 57.5585 262.055 57.8206 262.683C58.0383 263.208 57.7912 263.809 57.2676 264.026C57.1376 264.079 57.0041 264.105 56.8727 264.105ZM406.599 263.846C406.469 263.846 406.335 263.822 406.207 263.768C405.683 263.551 405.434 262.95 405.652 262.426C405.914 261.795 406.173 261.161 406.428 260.526C406.64 259.999 407.237 259.743 407.764 259.956C408.289 260.168 408.545 260.766 408.333 261.292C408.075 261.934 407.814 262.574 407.549 263.213C407.385 263.608 407.002 263.846 406.599 263.846ZM52.4998 252.548C52.0727 252.548 51.6737 252.28 51.5286 251.852C51.3062 251.201 51.0865 250.547 50.8715 249.893C50.6943 249.354 50.9872 248.773 51.5259 248.597C52.0638 248.42 52.6442 248.712 52.8222 249.251C53.0357 249.899 53.252 250.545 53.4717 251.19C53.6552 251.727 53.3684 252.31 52.8318 252.493C52.7216 252.53 52.61 252.548 52.4998 252.548ZM410.959 252.272C410.849 252.272 410.738 252.255 410.629 252.217C410.092 252.035 409.805 251.452 409.987 250.915C410.206 250.268 410.423 249.618 410.635 248.968C410.812 248.429 411.392 248.134 411.93 248.31C412.47 248.487 412.764 249.066 412.587 249.606C412.373 250.264 412.153 250.921 411.93 251.576C411.785 252.004 411.386 252.272 410.959 252.272ZM48.8963 240.73C48.4432 240.73 48.0291 240.429 47.9059 239.971C47.7265 239.306 47.5513 238.64 47.3789 237.972C47.2372 237.423 47.5678 236.863 48.1167 236.722C48.6649 236.576 49.2255 236.91 49.3671 237.46C49.5376 238.12 49.7107 238.779 49.888 239.436C50.0358 239.984 49.7114 240.547 49.1639 240.695C49.0749 240.719 48.9846 240.73 48.8963 240.73ZM414.548 240.436C414.459 240.436 414.37 240.425 414.281 240.402C413.733 240.254 413.409 239.692 413.555 239.144C413.732 238.483 413.905 237.82 414.075 237.157C414.214 236.607 414.772 236.273 415.323 236.416C415.873 236.556 416.204 237.115 416.064 237.665C415.893 238.336 415.717 239.006 415.538 239.675C415.416 240.134 415.001 240.436 414.548 240.436ZM46.0777 228.702C45.5979 228.702 45.1695 228.365 45.0716 227.877C44.9368 227.202 44.8054 226.525 44.6781 225.849C44.5733 225.292 44.9395 224.754 45.4967 224.649C46.0538 224.544 46.5904 224.911 46.6958 225.468C46.8224 226.138 46.9518 226.807 47.0852 227.474C47.1961 228.031 46.8354 228.571 46.2796 228.682C46.2119 228.696 46.1441 228.702 46.0777 228.702ZM417.349 228.389C417.283 228.389 417.216 228.383 417.149 228.37C416.592 228.26 416.23 227.72 416.34 227.163C416.473 226.491 416.603 225.819 416.728 225.145C416.832 224.587 417.371 224.221 417.925 224.324C418.483 224.427 418.851 224.964 418.747 225.521C418.62 226.203 418.489 226.883 418.355 227.562C418.259 228.051 417.83 228.389 417.349 228.389ZM44.0532 216.516C43.546 216.516 43.1052 216.14 43.0368 215.624C42.9464 214.943 42.8595 214.26 42.7767 213.576C42.7076 213.014 43.1086 212.502 43.6713 212.433C44.2332 212.37 44.7458 212.765 44.8143 213.328C44.8971 214.004 44.9826 214.68 45.0716 215.354C45.1462 215.916 44.7513 216.433 44.1894 216.508C44.1442 216.513 44.0983 216.516 44.0532 216.516ZM419.355 216.183C419.311 216.183 419.266 216.18 419.222 216.174C418.659 216.101 418.263 215.586 418.336 215.023C418.424 214.344 418.51 213.663 418.591 212.982C418.66 212.419 419.175 212.012 419.733 212.084C420.296 212.152 420.697 212.663 420.63 213.226C420.547 213.915 420.461 214.602 420.372 215.288C420.305 215.805 419.863 216.183 419.355 216.183ZM42.828 204.222C42.2921 204.222 41.8411 203.807 41.8048 203.265C41.7589 202.576 41.7165 201.887 41.6775 201.197C41.6453 200.631 42.0786 200.146 42.6446 200.114C43.2065 200.095 43.6952 200.515 43.7274 201.081C43.7657 201.763 43.8081 202.446 43.8533 203.126C43.891 203.693 43.4632 204.182 42.8978 204.22C42.8746 204.222 42.8513 204.222 42.828 204.222ZM420.56 203.871C420.538 203.871 420.515 203.87 420.493 203.869C419.927 203.832 419.498 203.343 419.535 202.777C419.579 202.095 419.619 201.413 419.656 200.73C419.688 200.164 420.153 199.734 420.738 199.76C421.304 199.791 421.738 200.276 421.707 200.842C421.669 201.532 421.628 202.221 421.584 202.91C421.548 203.454 421.097 203.871 420.56 203.871ZM42.4009 191.867C41.8349 191.867 41.3756 191.409 41.3743 190.842L41.3736 190.347C41.3736 189.821 41.3757 189.296 41.3798 188.771C41.3845 188.207 41.8431 187.753 42.4064 187.753C42.4092 187.753 42.4126 187.753 42.4153 187.753C42.982 187.758 43.4379 188.222 43.4331 188.789C43.429 189.308 43.4269 189.827 43.4269 190.347L43.4276 190.838C43.429 191.405 42.9704 191.866 42.403 191.867C42.4023 191.867 42.4016 191.867 42.4009 191.867ZM420.964 191.515C420.398 191.515 419.938 191.055 419.938 190.488V190.347C419.937 189.71 419.934 189.074 419.927 188.437C419.922 187.87 420.377 187.406 420.944 187.4C420.947 187.4 420.951 187.4 420.954 187.4C421.517 187.4 421.975 187.854 421.981 188.418C421.987 189.06 421.99 189.702 421.991 190.345V190.487C421.991 191.055 421.531 191.515 420.964 191.515ZM42.7664 179.514C42.7452 179.514 42.7233 179.513 42.7021 179.512C42.1361 179.477 41.7056 178.99 41.7411 178.424C41.7843 177.734 41.8301 177.044 41.8801 176.356C41.9212 175.79 42.416 175.366 42.9786 175.406C43.544 175.448 43.969 175.939 43.9279 176.504C43.8786 177.185 43.8321 177.866 43.7904 178.55C43.7568 179.095 43.3051 179.514 42.7664 179.514ZM420.576 179.161C420.039 179.161 419.587 178.744 419.552 178.2C419.508 177.517 419.461 176.835 419.411 176.154C419.368 175.589 419.793 175.096 420.359 175.054C420.918 175.012 421.417 175.437 421.458 176.002C421.509 176.69 421.558 177.379 421.602 178.069C421.638 178.635 421.209 179.123 420.643 179.16C420.621 179.16 420.599 179.161 420.576 179.161ZM43.9293 167.21C43.8862 167.21 43.8424 167.207 43.7986 167.202C43.236 167.131 42.8383 166.617 42.9102 166.054C42.9971 165.368 43.0888 164.683 43.1833 164C43.2606 163.438 43.7835 163.045 44.3413 163.123C44.9026 163.201 45.2954 163.72 45.2174 164.282C45.1236 164.958 45.0333 165.635 44.947 166.313C44.88 166.832 44.4385 167.21 43.9293 167.21ZM419.391 166.857C418.883 166.857 418.441 166.48 418.374 165.962C418.286 165.284 418.195 164.607 418.101 163.931C418.022 163.37 418.413 162.85 418.974 162.771C419.542 162.695 420.055 163.084 420.133 163.645C420.23 164.328 420.322 165.013 420.41 165.698C420.482 166.261 420.086 166.776 419.524 166.849C419.479 166.854 419.435 166.857 419.391 166.857ZM45.8902 155.008C45.8252 155.008 45.7595 155.002 45.6931 154.988C45.1366 154.88 44.7732 154.341 44.8813 153.784C45.0134 153.106 45.149 152.429 45.2879 151.753C45.4015 151.198 45.9436 150.841 46.5 150.954C47.0551 151.069 47.4131 151.611 47.2988 152.167C47.1612 152.836 47.0271 153.506 46.8963 154.177C46.8012 154.667 46.3714 155.008 45.8902 155.008ZM417.406 154.659C416.925 154.659 416.496 154.32 416.4 153.83C416.268 153.159 416.132 152.489 415.993 151.821C415.878 151.266 416.235 150.722 416.789 150.607C417.346 150.494 417.888 150.847 418.003 151.403C418.144 152.079 418.281 152.756 418.414 153.435C418.524 153.991 418.161 154.531 417.604 154.64C417.539 154.653 417.472 154.659 417.406 154.659ZM48.6471 142.959C48.5602 142.959 48.4726 142.948 48.385 142.925C47.8367 142.78 47.5096 142.218 47.654 141.67C47.8299 141.002 48.0099 140.335 48.194 139.669C48.3446 139.123 48.9093 138.8 49.4568 138.952C50.003 139.103 50.324 139.668 50.1734 140.215C49.992 140.873 49.8148 141.532 49.6402 142.194C49.5177 142.655 49.1016 142.959 48.6471 142.959ZM414.627 142.617C414.173 142.617 413.757 142.313 413.636 141.854C413.46 141.193 413.282 140.534 413.099 139.876C412.947 139.33 413.266 138.764 413.813 138.612C414.358 138.461 414.926 138.78 415.077 139.327C415.262 139.992 415.443 140.659 415.62 141.326C415.766 141.875 415.44 142.437 414.891 142.583C414.803 142.605 414.715 142.617 414.627 142.617ZM52.1891 131.118C52.0809 131.118 51.9708 131.101 51.8619 131.064C51.3246 130.883 51.0351 130.301 51.2158 129.764C51.4362 129.107 51.6607 128.45 51.8879 127.796C52.0741 127.26 52.6593 126.976 53.1945 127.163C53.7304 127.349 54.0138 127.934 53.8276 128.469C53.6025 129.117 53.3807 129.767 53.1624 130.418C53.0186 130.847 52.6182 131.118 52.1891 131.118ZM411.063 130.782C410.634 130.782 410.234 130.512 410.09 130.084C409.872 129.436 409.649 128.79 409.423 128.145C409.236 127.61 409.518 127.024 410.054 126.837C410.591 126.651 411.175 126.933 411.362 127.467C411.59 128.119 411.814 128.772 412.034 129.426C412.217 129.964 411.928 130.546 411.391 130.728C411.282 130.765 411.171 130.782 411.063 130.782ZM56.5134 119.509C56.3833 119.509 56.2512 119.484 56.1239 119.432C55.599 119.217 55.3485 118.616 55.5641 118.092C55.8269 117.451 56.0938 116.811 56.3635 116.174C56.5845 115.651 57.1896 115.408 57.7091 115.628C58.2313 115.849 58.4757 116.452 58.2546 116.974C57.9876 117.605 57.7241 118.237 57.4634 118.871C57.3012 119.269 56.9179 119.509 56.5134 119.509ZM406.727 119.208C406.324 119.208 405.942 118.968 405.777 118.573C405.517 117.943 405.254 117.315 404.989 116.689C404.768 116.167 405.01 115.564 405.532 115.343C406.055 115.12 406.658 115.365 406.879 115.886C407.148 116.519 407.413 117.153 407.676 117.789C407.892 118.313 407.643 118.913 407.119 119.13C406.991 119.182 406.857 119.208 406.727 119.208ZM61.5905 108.215C61.4386 108.215 61.2853 108.181 61.1395 108.11C60.6303 107.861 60.4195 107.246 60.6686 106.736C60.9732 106.114 61.2812 105.494 61.5919 104.876C61.8465 104.369 62.4646 104.165 62.9704 104.42C63.4768 104.675 63.6808 105.292 63.4255 105.798C63.1175 106.41 62.8129 107.024 62.5125 107.639C62.3352 108.003 61.9697 108.215 61.5905 108.215ZM401.654 107.967C401.274 107.967 400.91 107.756 400.732 107.393C400.431 106.781 400.127 106.172 399.82 105.565C399.564 105.059 399.767 104.441 400.273 104.185C400.779 103.929 401.396 104.132 401.653 104.639C401.963 105.253 402.27 105.869 402.574 106.487C402.825 106.996 402.615 107.611 402.106 107.862C401.96 107.933 401.806 107.967 401.654 107.967ZM67.3946 97.2829C67.2214 97.2829 67.0455 97.2391 66.8847 97.146C66.3925 96.864 66.2228 96.2362 66.5055 95.7447C66.8498 95.1443 67.1974 94.546 67.5479 93.9497C67.8353 93.4609 68.465 93.2973 68.953 93.5848C69.4417 93.8724 69.6053 94.5015 69.3178 94.9903C68.9708 95.5804 68.6272 96.1725 68.2864 96.7661C68.0968 97.0974 67.7505 97.2829 67.3946 97.2829ZM395.85 97.0762C395.495 97.0762 395.15 96.8913 394.96 96.5607C394.62 95.9706 394.277 95.3818 393.93 94.7952C393.642 94.3071 393.804 93.6773 394.292 93.389C394.78 93.1015 395.41 93.2617 395.699 93.7512C396.049 94.3447 396.396 94.9396 396.739 95.5366C397.021 96.0281 396.852 96.6558 396.361 96.9386C396.201 97.0317 396.024 97.0762 395.85 97.0762ZM73.8995 86.7569C73.7044 86.7569 73.5073 86.7014 73.3321 86.5851C72.8598 86.2715 72.7311 85.6335 73.0453 85.1611C73.4279 84.5854 73.8139 84.0111 74.202 83.4394C74.5209 82.9698 75.1581 82.848 75.6284 83.1677C76.0972 83.4867 76.219 84.1247 75.9001 84.5943C75.5161 85.1598 75.1342 85.728 74.7557 86.2975C74.5579 86.596 74.2314 86.7569 73.8995 86.7569ZM389.349 86.583C389.017 86.583 388.692 86.4228 388.494 86.1257C388.115 85.5575 387.735 84.9921 387.351 84.4286C387.031 83.9597 387.152 83.321 387.621 83.0013C388.091 82.683 388.729 82.8035 389.048 83.2717C389.436 83.8413 389.82 84.4129 390.203 84.9866C390.518 85.4583 390.39 86.0963 389.918 86.4105C389.743 86.5276 389.545 86.583 389.349 86.583ZM81.0751 76.6813C80.8581 76.6813 80.6391 76.6129 80.4536 76.4712C80.0026 76.1275 79.9157 75.4833 80.2593 75.0322C80.6781 74.4825 81.1004 73.9348 81.5248 73.3899C81.8739 72.9429 82.5193 72.8634 82.9662 73.2112C83.4132 73.5603 83.4932 74.2052 83.1449 74.6522C82.7246 75.191 82.3071 75.7325 81.8923 76.2767C81.6897 76.5423 81.3845 76.6813 81.0751 76.6813ZM382.175 76.5314C381.866 76.5314 381.561 76.3924 381.359 76.1282C380.945 75.586 380.528 75.0459 380.108 74.5085C379.758 74.0614 379.838 73.4166 380.285 73.0668C380.731 72.7176 381.377 72.7957 381.726 73.2434C382.151 73.7869 382.572 74.3325 382.992 74.8809C383.336 75.3313 383.25 75.9762 382.799 76.3205C382.612 76.4629 382.392 76.5314 382.175 76.5314ZM88.888 67.0966C88.6484 67.0966 88.4082 67.0131 88.2138 66.844C87.7867 66.4709 87.7415 65.8226 88.1139 65.3947C88.5677 64.8738 89.0242 64.3549 89.4834 63.8394C89.8606 63.4156 90.5094 63.378 90.9331 63.7552C91.3567 64.1324 91.3937 64.7813 91.0173 65.2051C90.5628 65.7158 90.1117 66.2285 89.6628 66.744C89.4595 66.9775 89.1741 67.0966 88.888 67.0966ZM374.361 66.9638C374.075 66.9638 373.79 66.8447 373.587 66.6126C373.138 66.0978 372.686 65.5857 372.232 65.0757C371.855 64.6526 371.892 64.0037 372.315 63.6258C372.738 63.2479 373.388 63.2856 373.764 63.7093C374.223 64.2234 374.679 64.741 375.134 65.2605C375.507 65.6877 375.464 66.3367 375.036 66.7098C374.841 66.8803 374.6 66.9638 374.361 66.9638ZM97.3031 58.0431C97.0417 58.0431 96.7802 57.9438 96.5797 57.7453C96.1772 57.3455 96.1745 56.6958 96.5742 56.2933C97.0602 55.8031 97.5488 55.3157 98.041 54.831C98.4441 54.4326 99.0943 54.4367 99.4927 54.8413C99.891 55.2452 99.8862 55.8956 99.4824 56.2933C98.9958 56.7732 98.5125 57.2558 98.0314 57.7405C97.8315 57.9418 97.5673 58.0431 97.3031 58.0431ZM365.939 57.9205C365.675 57.9205 365.411 57.8192 365.21 57.6173C364.729 57.1326 364.245 56.6506 363.759 56.1721C363.354 55.7744 363.349 55.124 363.747 54.7201C364.145 54.3156 364.795 54.3108 365.198 54.7085C365.691 55.1932 366.18 55.6799 366.667 56.1701C367.067 56.5726 367.064 57.223 366.662 57.6227C366.462 57.8213 366.2 57.9205 365.939 57.9205ZM106.286 49.5557C106.002 49.5557 105.72 49.4386 105.517 49.21C105.141 48.7849 105.18 48.1366 105.605 47.7601C106.121 47.3028 106.641 46.8475 107.162 46.3964C107.59 46.0247 108.238 46.0712 108.611 46.5011C108.982 46.9297 108.935 47.5787 108.506 47.9497C107.991 48.396 107.477 48.8458 106.966 49.2983C106.771 49.4708 106.529 49.5557 106.286 49.5557ZM356.947 49.44C356.706 49.44 356.464 49.3551 356.268 49.1826C355.757 48.7301 355.242 48.2803 354.725 47.834C354.296 47.4636 354.249 46.8147 354.62 46.3854C354.989 45.9576 355.638 45.909 356.067 46.2793C356.59 46.7312 357.11 47.1857 357.628 47.6437C358.053 48.0195 358.093 48.6685 357.717 49.0929C357.514 49.323 357.231 49.44 356.947 49.44ZM115.797 41.6721C115.491 41.6721 115.188 41.5352 114.986 41.2744C114.638 40.826 114.72 40.1811 115.168 39.8341C115.713 39.4117 116.261 38.992 116.81 38.5751C117.261 38.2328 117.905 38.3211 118.248 38.773C118.591 39.2248 118.502 39.869 118.051 40.2119C117.507 40.6241 116.966 41.0396 116.426 41.4572C116.239 41.6016 116.017 41.6721 115.797 41.6721ZM347.42 41.5585C347.201 41.5585 346.98 41.4887 346.792 41.3442C346.252 40.926 345.709 40.5104 345.163 40.0976C344.712 39.7553 344.622 39.1111 344.964 38.6586C345.307 38.2068 345.951 38.1185 346.403 38.4594C346.954 38.8763 347.503 39.2967 348.049 39.7191C348.497 40.0661 348.58 40.711 348.233 41.1594C348.03 41.4209 347.727 41.5585 347.42 41.5585ZM125.797 34.4252C125.468 34.4252 125.143 34.2671 124.946 33.9734C124.628 33.5031 124.751 32.8651 125.221 32.5474C125.792 32.1613 126.365 31.778 126.941 31.3987C127.414 31.0866 128.051 31.2173 128.363 31.6904C128.675 32.1634 128.545 32.8007 128.071 33.1129C127.503 33.4887 126.936 33.868 126.371 34.2493C126.195 34.3684 125.995 34.4252 125.797 34.4252ZM337.399 34.3109C337.201 34.3109 337.001 34.2541 336.825 34.1357C336.258 33.753 335.689 33.3737 335.118 32.9972C334.645 32.685 334.514 32.0484 334.825 31.5747C335.139 31.1016 335.775 30.9709 336.247 31.2823C336.825 31.663 337.4 32.0463 337.973 32.4331C338.443 32.7501 338.567 33.3888 338.249 33.8584C338.052 34.1528 337.728 34.3109 337.399 34.3109ZM136.243 27.8471C135.89 27.8471 135.547 27.665 135.356 27.3385C135.07 26.849 135.234 26.2199 135.723 25.9338C136.317 25.586 136.914 25.2417 137.512 24.9001C138.005 24.6194 138.632 24.7905 138.912 25.2827C139.193 25.7756 139.022 26.4027 138.53 26.6834C137.938 27.0209 137.348 27.3618 136.76 27.7061C136.597 27.8013 136.419 27.8471 136.243 27.8471ZM326.923 27.7308C326.747 27.7308 326.569 27.6856 326.406 27.5904C325.816 27.2454 325.223 26.9038 324.628 26.5649C324.134 26.2849 323.962 25.6579 324.242 25.165C324.522 24.6714 325.151 24.4996 325.642 24.7802C326.244 25.1225 326.843 25.4676 327.441 25.816C327.931 26.1015 328.096 26.7306 327.81 27.2208C327.62 27.548 327.276 27.7308 326.923 27.7308ZM147.09 21.9666C146.713 21.9666 146.351 21.7585 146.171 21.3984C145.917 20.8912 146.123 20.2744 146.63 20.0211C147.245 19.713 147.862 19.4084 148.481 19.1072C148.99 18.8587 149.604 19.0709 149.853 19.5809C150.101 20.0909 149.889 20.7057 149.379 20.9535C148.767 21.252 148.157 21.5525 147.548 21.8571C147.401 21.9317 147.245 21.9666 147.09 21.9666ZM316.037 21.8475C315.883 21.8475 315.727 21.8126 315.58 21.7394C314.966 21.434 314.352 21.1315 313.736 20.8323C313.226 20.5852 313.013 19.9704 313.26 19.4604C313.507 18.9497 314.121 18.7368 314.632 18.9846C315.255 19.2865 315.876 19.5919 316.496 19.9006C317.004 20.1532 317.21 20.77 316.958 21.2773C316.777 21.6387 316.414 21.8475 316.037 21.8475ZM158.293 16.8104C157.892 16.8104 157.512 16.5742 157.346 16.182C157.126 15.6597 157.371 15.0572 157.894 14.8375C158.527 14.5705 159.163 14.3069 159.8 14.0468C160.326 13.8339 160.924 14.0851 161.139 14.6102C161.353 15.1353 161.1 15.735 160.575 15.9492C159.946 16.2059 159.317 16.4668 158.691 16.7303C158.561 16.7844 158.426 16.8104 158.293 16.8104ZM304.782 16.6893C304.65 16.6893 304.515 16.6632 304.386 16.6092C303.754 16.3442 303.121 16.0827 302.486 15.8246C301.96 15.6117 301.708 15.0127 301.921 14.487C302.134 13.9619 302.73 13.7093 303.259 13.9215C303.901 14.1823 304.542 14.4473 305.181 14.7149C305.704 14.934 305.95 15.5364 305.73 16.0588C305.565 16.4524 305.184 16.6893 304.782 16.6893ZM169.825 12.3942C169.399 12.3942 169.001 12.1272 168.855 11.7028C168.669 11.1668 168.954 10.5822 169.489 10.3966C170.142 10.1707 170.796 9.94893 171.451 9.73055C171.987 9.55051 172.57 9.84145 172.749 10.3802C172.929 10.9183 172.638 11.4995 172.101 11.6789C171.452 11.8952 170.806 12.1149 170.161 12.3374C170.049 12.3757 169.936 12.3942 169.825 12.3942ZM293.208 12.2806C293.098 12.2806 292.985 12.2628 292.875 12.2245C292.227 12.002 291.577 11.7822 290.925 11.5666C290.387 11.3886 290.095 10.8074 290.274 10.2686C290.452 9.73055 291.033 9.43824 291.571 9.61691C292.23 9.83461 292.887 10.0564 293.542 10.2823C294.078 10.4665 294.364 11.0511 294.18 11.5871C294.033 12.0129 293.635 12.2806 293.208 12.2806ZM181.631 8.74339C181.18 8.74339 180.766 8.44355 180.641 7.98762C180.491 7.44065 180.813 6.87587 181.36 6.72595C182.026 6.54385 182.693 6.36518 183.362 6.18993C183.909 6.04685 184.471 6.37476 184.615 6.92311C184.759 7.47145 184.43 8.0328 183.882 8.17656C183.221 8.34976 182.561 8.52638 181.902 8.70643C181.811 8.73107 181.72 8.74339 181.631 8.74339ZM281.389 8.64961C281.3 8.64961 281.209 8.63797 281.119 8.61332C280.459 8.43396 279.799 8.25871 279.138 8.08689C278.589 7.94449 278.26 7.38383 278.402 6.8348C278.544 6.28508 279.106 5.95375 279.654 6.09888C280.323 6.27276 280.99 6.44938 281.657 6.63079C282.204 6.77935 282.527 7.34412 282.379 7.8911C282.255 8.34839 281.841 8.64961 281.389 8.64961ZM193.65 5.87639C193.172 5.87639 192.745 5.54095 192.645 5.05422C192.532 4.49903 192.89 3.95684 193.447 3.8432C194.122 3.7056 194.8 3.57074 195.479 3.43999C196.033 3.33388 196.574 3.6967 196.681 4.25395C196.788 4.81119 196.424 5.34927 195.868 5.45675C195.196 5.58613 194.526 5.71894 193.857 5.85517C193.787 5.86886 193.718 5.87639 193.65 5.87639ZM269.363 5.8052C269.295 5.8052 269.227 5.79835 269.158 5.78466C268.489 5.6498 267.819 5.51836 267.147 5.39034C266.591 5.28423 266.224 4.74616 266.331 4.1896C266.437 3.63235 266.974 3.26611 267.532 3.3729C268.211 3.50229 268.888 3.63509 269.565 3.77201C270.12 3.88428 270.48 4.42578 270.368 4.98165C270.27 5.46839 269.841 5.8052 269.363 5.8052ZM205.831 3.80418C205.326 3.80418 204.886 3.43109 204.815 2.91629C204.739 2.35425 205.132 1.83671 205.693 1.75936C206.377 1.66626 207.062 1.57589 207.747 1.49032C208.311 1.42049 208.823 1.81823 208.893 2.38164C208.964 2.94436 208.565 3.45779 208.003 3.5283C207.325 3.61319 206.648 3.70218 205.971 3.7946C205.925 3.80076 205.878 3.80418 205.831 3.80418ZM257.176 3.75626C257.13 3.75626 257.084 3.75353 257.037 3.74668C256.362 3.65563 255.684 3.56801 255.006 3.48449C254.443 3.41535 254.044 2.9026 254.113 2.33988C254.182 1.77647 254.697 1.376 255.257 1.44651C255.944 1.53139 256.629 1.6197 257.312 1.71212C257.874 1.78811 258.268 2.30496 258.192 2.86768C258.123 3.38249 257.682 3.75626 257.176 3.75626ZM218.122 2.53156C217.588 2.53156 217.137 2.11807 217.099 1.57726C217.059 1.0118 217.485 0.520961 218.05 0.480572C218.738 0.431967 219.427 0.386784 220.117 0.34571C220.682 0.309427 221.17 0.742763 221.204 1.30891C221.238 1.87505 220.806 2.36178 220.241 2.39533C219.558 2.4364 218.876 2.4809 218.195 2.52882C218.171 2.53087 218.147 2.53156 218.122 2.53156ZM244.884 2.50691C244.86 2.50691 244.836 2.50623 244.813 2.50486C244.132 2.45762 243.45 2.4145 242.767 2.37479C242.201 2.34193 241.77 1.85657 241.802 1.29042C241.835 0.724279 242.323 0.289575 242.887 0.324488C243.577 0.364878 244.266 0.40869 244.955 0.455926C245.52 0.495631 245.947 0.985787 245.908 1.55125C245.869 2.09275 245.419 2.50691 244.884 2.50691ZM230.474 2.05715C229.91 2.05715 229.45 1.60191 229.447 1.03713C229.443 0.470303 229.9 0.00752975 230.467 0.0034223C230.872 0.000684 231.278 0.000684575 231.684 0L232.539 0.0020526C233.107 0.0047909 233.564 0.466879 233.561 1.03371C233.558 1.59917 233.099 2.05578 232.534 2.05578C232.533 2.05578 232.532 2.05578 232.53 2.05578L231.682 2.05373C231.281 2.05441 230.881 2.05441 230.48 2.05715C230.478 2.05715 230.476 2.05715 230.474 2.05715Z" fill="#E4E5E6"/>
<path d="M357.204 333.081C356.921 333.081 356.639 332.964 356.436 332.736C356.059 332.311 356.098 331.662 356.522 331.286L357.284 330.607C357.705 330.228 358.355 330.263 358.733 330.685C359.112 331.106 359.077 331.755 358.655 332.135L357.885 332.822C357.689 332.995 357.446 333.081 357.204 333.081Z" fill="#E4E5E6"/>
<path d="M255.122 37.807C255.072 37.807 255.02 37.8036 254.967 37.7954L253.957 37.6461C253.396 37.5647 253.007 37.0437 253.088 36.4823C253.169 35.9217 253.694 35.5308 254.251 35.6136L255.273 35.7649C255.833 35.8491 256.22 36.3728 256.135 36.9335C256.059 37.4421 255.622 37.807 255.122 37.807Z" fill="white"/>
<path d="M309.498 325.82C309.144 325.82 308.799 325.637 308.609 325.308C308.325 324.818 308.492 324.189 308.983 323.905C309.568 323.565 310.152 323.221 310.733 322.873C311.219 322.581 311.85 322.739 312.142 323.227C312.434 323.714 312.275 324.344 311.788 324.635C311.199 324.988 310.607 325.336 310.012 325.681C309.851 325.776 309.673 325.82 309.498 325.82ZM315.893 321.9C315.557 321.9 315.227 321.735 315.03 321.431C314.723 320.954 314.859 320.318 315.334 320.01C315.903 319.642 316.469 319.271 317.033 318.896C317.505 318.582 318.141 318.709 318.457 319.182C318.771 319.654 318.643 320.291 318.171 320.606C317.6 320.986 317.025 321.361 316.45 321.735C316.279 321.846 316.084 321.9 315.893 321.9ZM322.092 317.676C321.772 317.676 321.457 317.528 321.257 317.249C320.926 316.787 321.032 316.146 321.492 315.815C322.043 315.42 322.591 315.022 323.136 314.619C323.591 314.284 324.234 314.379 324.572 314.837C324.908 315.293 324.811 315.936 324.354 316.273C323.802 316.68 323.248 317.084 322.69 317.484C322.508 317.613 322.298 317.676 322.092 317.676ZM328.081 313.158C327.779 313.158 327.479 313.025 327.276 312.77C326.924 312.326 326.998 311.679 327.442 311.328C327.973 310.906 328.501 310.481 329.026 310.054C329.466 309.696 330.113 309.761 330.471 310.202C330.829 310.642 330.763 311.289 330.323 311.646C329.791 312.079 329.256 312.509 328.718 312.936C328.53 313.085 328.305 313.158 328.081 313.158ZM333.847 308.355C333.56 308.355 333.275 308.235 333.073 308.003C332.7 307.575 332.744 306.926 333.171 306.554C333.682 306.109 334.188 305.659 334.692 305.206C335.115 304.828 335.763 304.863 336.143 305.284C336.522 305.705 336.487 306.355 336.065 306.734C335.554 307.193 335.039 307.649 334.522 308.101C334.327 308.271 334.086 308.355 333.847 308.355ZM339.376 303.281C339.106 303.281 338.838 303.176 338.637 302.967C338.243 302.558 338.255 301.908 338.663 301.515C339.152 301.044 339.637 300.571 340.119 300.094C340.522 299.695 341.172 299.699 341.571 300.103C341.97 300.506 341.966 301.156 341.563 301.555C341.074 302.038 340.582 302.518 340.088 302.994C339.889 303.185 339.632 303.281 339.376 303.281ZM344.656 297.946C344.403 297.946 344.15 297.852 343.951 297.666C343.539 297.277 343.52 296.626 343.91 296.214C344.375 295.721 344.837 295.225 345.296 294.725C345.68 294.307 346.33 294.282 346.746 294.664C347.163 295.048 347.191 295.697 346.807 296.114C346.342 296.62 345.875 297.123 345.402 297.623C345.2 297.837 344.928 297.946 344.656 297.946ZM349.675 292.362C349.438 292.362 349.201 292.281 349.007 292.115C348.576 291.746 348.527 291.098 348.896 290.668C349.337 290.152 349.774 289.634 350.208 289.113C350.572 288.677 351.219 288.618 351.655 288.983C352.09 289.346 352.149 289.994 351.785 290.429C351.345 290.957 350.902 291.481 350.454 292.003C350.252 292.24 349.963 292.362 349.675 292.362ZM354.419 286.543C354.199 286.543 353.977 286.473 353.79 286.328C353.342 285.979 353.261 285.335 353.609 284.887C354.025 284.351 354.438 283.812 354.847 283.271C355.189 282.818 355.832 282.729 356.285 283.071C356.737 283.413 356.827 284.057 356.485 284.509C356.071 285.058 355.652 285.604 355.231 286.147C355.028 286.407 354.725 286.543 354.419 286.543ZM358.881 280.501C358.677 280.501 358.472 280.441 358.293 280.316C357.828 279.991 357.715 279.35 358.041 278.886C358.43 278.329 358.817 277.771 359.199 277.21C359.52 276.742 360.158 276.622 360.626 276.941C361.095 277.262 361.215 277.9 360.896 278.369C360.509 278.936 360.117 279.501 359.723 280.064C359.522 280.349 359.204 280.501 358.881 280.501ZM363.046 274.25C362.858 274.25 362.668 274.199 362.498 274.092C362.018 273.789 361.875 273.155 362.179 272.675C362.541 272.101 362.9 271.525 363.255 270.947C363.552 270.463 364.184 270.313 364.667 270.609C365.15 270.906 365.302 271.538 365.005 272.021C364.645 272.607 364.281 273.191 363.914 273.773C363.719 274.081 363.386 274.25 363.046 274.25ZM366.904 267.804C366.732 267.804 366.558 267.761 366.398 267.671C365.905 267.392 365.731 266.765 366.012 266.271C366.346 265.682 366.677 265.088 367.003 264.492C367.277 263.995 367.9 263.815 368.397 264.086C368.894 264.358 369.076 264.983 368.804 265.48C368.473 266.084 368.137 266.685 367.798 267.284C367.609 267.617 367.262 267.804 366.904 267.804ZM370.447 261.176C370.291 261.176 370.134 261.141 369.985 261.066C369.479 260.811 369.276 260.193 369.532 259.687C369.837 259.08 370.139 258.473 370.436 257.862C370.683 257.351 371.299 257.14 371.808 257.389C372.318 257.636 372.53 258.252 372.282 258.761C371.98 259.381 371.674 259.998 371.364 260.612C371.184 260.97 370.822 261.176 370.447 261.176ZM373.665 254.383C373.525 254.383 373.384 254.355 373.248 254.294C372.73 254.062 372.497 253.455 372.728 252.937C373.004 252.319 373.275 251.696 373.542 251.071C373.766 250.551 374.366 250.31 374.891 250.532C375.412 250.755 375.653 251.359 375.43 251.88C375.159 252.514 374.883 253.146 374.603 253.775C374.433 254.156 374.058 254.383 373.665 254.383ZM376.55 247.441C376.426 247.441 376.302 247.419 376.179 247.371C375.651 247.167 375.388 246.572 375.593 246.043C375.837 245.411 376.079 244.775 376.316 244.138C376.513 243.606 377.106 243.336 377.636 243.533C378.168 243.731 378.438 244.321 378.241 244.853C378 245.5 377.756 246.144 377.508 246.785C377.351 247.191 376.962 247.441 376.55 247.441ZM379.093 240.364C378.986 240.364 378.877 240.347 378.769 240.311C378.231 240.133 377.94 239.551 378.119 239.013C378.333 238.369 378.543 237.722 378.749 237.073C378.92 236.533 379.496 236.235 380.038 236.405C380.578 236.577 380.878 237.154 380.706 237.695C380.498 238.352 380.285 239.008 380.068 239.662C379.924 240.091 379.524 240.364 379.093 240.364ZM381.289 233.168C381.198 233.168 381.105 233.156 381.013 233.131C380.467 232.978 380.148 232.411 380.3 231.865C380.483 231.21 380.66 230.555 380.834 229.896C380.979 229.348 381.54 229.021 382.09 229.166C382.638 229.311 382.964 229.873 382.819 230.422C382.643 231.089 382.463 231.753 382.278 232.417C382.151 232.871 381.738 233.168 381.289 233.168ZM383.132 225.873C383.057 225.873 382.981 225.865 382.905 225.847C382.352 225.722 382.005 225.172 382.13 224.619C382.28 223.955 382.426 223.291 382.569 222.624C382.687 222.07 383.229 221.715 383.786 221.834C384.341 221.953 384.695 222.499 384.576 223.053C384.432 223.727 384.285 224.401 384.133 225.073C384.025 225.549 383.601 225.873 383.132 225.873ZM384.618 218.494C384.558 218.494 384.499 218.489 384.438 218.479C383.88 218.379 383.507 217.848 383.605 217.289C383.723 216.622 383.836 215.954 383.944 215.284C384.035 214.724 384.564 214.34 385.122 214.435C385.682 214.526 386.062 215.053 385.971 215.613C385.861 216.292 385.747 216.97 385.627 217.646C385.54 218.143 385.107 218.494 384.618 218.494ZM385.74 211.071C385.697 211.071 385.653 211.068 385.61 211.063C385.047 210.992 384.649 210.478 384.72 209.915C384.805 209.244 384.885 208.57 384.962 207.895C385.025 207.332 385.531 206.92 386.098 206.991C386.661 207.055 387.066 207.563 387.002 208.127C386.924 208.81 386.843 209.492 386.757 210.173C386.692 210.692 386.249 211.071 385.74 211.071ZM386.502 203.604C386.475 203.604 386.449 203.603 386.421 203.6C385.856 203.557 385.434 203.063 385.478 202.497C385.53 201.822 385.579 201.145 385.622 200.468C385.659 199.902 386.137 199.476 386.713 199.509C387.279 199.546 387.708 200.035 387.671 200.6C387.627 201.287 387.577 201.972 387.524 202.657C387.483 203.194 387.033 203.604 386.502 203.604ZM386.905 196.107C386.894 196.107 386.884 196.107 386.873 196.106C386.306 196.089 385.861 195.615 385.879 195.048C385.899 194.372 385.915 193.694 385.926 193.015C385.935 192.455 386.393 192.005 386.952 192.005C386.958 192.005 386.964 192.005 386.97 192.005C387.536 192.015 387.988 192.482 387.979 193.049C387.967 193.737 387.951 194.425 387.931 195.111C387.914 195.668 387.458 196.107 386.905 196.107ZM386.95 188.6C386.392 188.6 385.934 188.152 385.924 187.591C385.911 186.914 385.896 186.237 385.876 185.561C385.859 184.994 386.304 184.52 386.87 184.503C387.445 184.471 387.911 184.931 387.928 185.498C387.948 186.183 387.965 186.868 387.977 187.554C387.987 188.121 387.536 188.589 386.968 188.599C386.963 188.6 386.957 188.6 386.95 188.6ZM386.64 181.104C386.103 181.104 385.652 180.687 385.616 180.143C385.573 179.465 385.524 178.789 385.471 178.115C385.427 177.55 385.849 177.055 386.414 177.011C386.968 176.956 387.474 177.388 387.518 177.954C387.572 178.638 387.621 179.324 387.666 180.011C387.703 180.577 387.273 181.065 386.707 181.102C386.685 181.103 386.663 181.104 386.64 181.104ZM385.972 173.627C385.456 173.627 385.012 173.239 384.953 172.716C384.877 172.041 384.796 171.368 384.71 170.697C384.639 170.134 385.037 169.62 385.599 169.548C386.161 169.479 386.676 169.874 386.748 170.437C386.835 171.118 386.916 171.8 386.994 172.484C387.058 173.048 386.653 173.556 386.089 173.62C386.049 173.625 386.01 173.627 385.972 173.627ZM384.944 166.191C384.449 166.191 384.014 165.834 383.931 165.33C383.822 164.659 383.708 163.991 383.591 163.323C383.492 162.765 383.865 162.232 384.424 162.134C384.984 162.037 385.514 162.408 385.613 162.967C385.732 163.643 385.847 164.32 385.958 164.998C386.05 165.558 385.67 166.086 385.111 166.178C385.055 166.186 384.999 166.191 384.944 166.191ZM383.557 158.815C383.083 158.815 382.657 158.484 382.554 158.001C382.413 157.337 382.267 156.675 382.116 156.015C381.99 155.462 382.337 154.912 382.89 154.787C383.444 154.659 383.993 155.008 384.119 155.56C384.271 156.23 384.419 156.9 384.562 157.573C384.68 158.128 384.326 158.674 383.772 158.792C383.7 158.807 383.628 158.815 383.557 158.815ZM381.814 151.513C381.359 151.513 380.943 151.208 380.822 150.748C380.649 150.092 380.471 149.439 380.289 148.786C380.137 148.239 380.456 147.673 381.002 147.52C381.545 147.367 382.114 147.687 382.268 148.234C382.452 148.895 382.632 149.558 382.808 150.223C382.953 150.771 382.625 151.334 382.077 151.478C381.988 151.502 381.901 151.513 381.814 151.513ZM379.717 144.306C379.281 144.306 378.877 144.026 378.738 143.588C378.534 142.942 378.324 142.298 378.111 141.656C377.932 141.118 378.222 140.536 378.76 140.357C379.3 140.176 379.879 140.469 380.058 141.007C380.275 141.66 380.488 142.314 380.696 142.969C380.866 143.51 380.567 144.087 380.026 144.258C379.924 144.29 379.819 144.306 379.717 144.306ZM377.278 137.223C376.862 137.223 376.47 136.968 376.316 136.554C376.08 135.921 375.841 135.289 375.597 134.659C375.392 134.131 375.654 133.536 376.183 133.331C376.713 133.127 377.307 133.389 377.511 133.918C377.758 134.556 378.001 135.196 378.239 135.837C378.437 136.369 378.167 136.96 377.635 137.158C377.518 137.203 377.396 137.223 377.278 137.223ZM374.499 130.273C374.1 130.273 373.721 130.04 373.555 129.65C373.288 129.029 373.019 128.409 372.744 127.792C372.514 127.274 372.748 126.668 373.266 126.438C373.786 126.206 374.39 126.441 374.622 126.959C374.9 127.585 375.174 128.213 375.442 128.843C375.665 129.365 375.424 129.968 374.902 130.191C374.771 130.247 374.633 130.273 374.499 130.273ZM371.386 123.463C371.005 123.463 370.64 123.251 370.462 122.885C370.165 122.277 369.865 121.672 369.562 121.068C369.307 120.561 369.51 119.944 370.017 119.689C370.523 119.434 371.141 119.637 371.396 120.144C371.704 120.756 372.008 121.37 372.308 121.986C372.556 122.496 372.345 123.111 371.835 123.359C371.69 123.43 371.537 123.463 371.386 123.463ZM367.944 116.809C367.582 116.809 367.23 116.616 367.044 116.276C366.718 115.682 366.389 115.091 366.057 114.502C365.777 114.008 365.952 113.382 366.445 113.103C366.937 112.825 367.564 112.997 367.844 113.492C368.18 114.089 368.514 114.688 368.844 115.289C369.117 115.786 368.935 116.41 368.438 116.683C368.28 116.768 368.111 116.809 367.944 116.809ZM364.184 110.325C363.838 110.325 363.502 110.151 363.308 109.835C362.955 109.257 362.597 108.683 362.237 108.111C361.934 107.632 362.078 106.997 362.557 106.694C363.034 106.393 363.671 106.535 363.973 107.015C364.339 107.595 364.701 108.177 365.059 108.763C365.356 109.246 365.203 109.878 364.72 110.175C364.552 110.277 364.367 110.325 364.184 110.325ZM360.115 104.03C359.787 104.03 359.465 103.873 359.266 103.582C358.884 103.022 358.5 102.465 358.111 101.911C357.785 101.446 357.899 100.806 358.362 100.481C358.828 100.155 359.467 100.267 359.793 100.732C360.186 101.293 360.576 101.857 360.962 102.425C361.282 102.894 361.161 103.532 360.693 103.852C360.516 103.973 360.314 104.03 360.115 104.03ZM355.745 97.936C355.433 97.936 355.126 97.7949 354.924 97.5273C354.517 96.9865 354.106 96.4484 353.691 95.9137C353.343 95.466 353.425 94.8205 353.874 94.4727C354.321 94.1256 354.967 94.2071 355.314 94.6548C355.734 95.1977 356.151 95.7426 356.564 96.2909C356.905 96.7441 356.815 97.3876 356.362 97.7292C356.177 97.8682 355.96 97.936 355.745 97.936ZM351.087 92.0568C350.793 92.0568 350.501 91.9309 350.298 91.6872C349.864 91.1669 349.427 90.648 348.987 90.1332C348.618 89.7026 348.669 89.0536 349.1 88.6853C349.532 88.3163 350.18 88.3677 350.547 88.7983C350.993 89.3199 351.436 89.8443 351.875 90.3714C352.238 90.8075 352.179 91.4544 351.744 91.8179C351.552 91.9781 351.319 92.0568 351.087 92.0568ZM346.148 86.407C345.871 86.407 345.593 86.2954 345.391 86.0736C344.934 85.5746 344.473 85.0783 344.009 84.5854C343.62 84.1726 343.639 83.5222 344.052 83.1334C344.463 82.7445 345.115 82.7637 345.503 83.1765C345.974 83.6769 346.442 84.1801 346.905 84.6867C347.289 85.105 347.26 85.7546 346.842 86.1373C346.645 86.318 346.397 86.407 346.148 86.407ZM340.946 80.9996C340.684 80.9996 340.423 80.9003 340.223 80.7018C339.742 80.2246 339.257 79.7509 338.769 79.2806C338.361 78.887 338.349 78.2366 338.743 77.8286C339.138 77.4199 339.787 77.4097 340.194 77.8019C340.689 78.2791 341.18 78.759 341.668 79.2429C342.071 79.6421 342.074 80.2924 341.675 80.6949C341.474 80.8983 341.209 80.9996 340.946 80.9996ZM335.486 75.8475C335.242 75.8475 334.997 75.7612 334.801 75.5846C334.296 75.1307 333.789 74.6803 333.278 74.2332C332.852 73.8595 332.809 73.2105 333.182 72.784C333.555 72.3582 334.204 72.3144 334.631 72.6888C335.147 73.1413 335.661 73.5973 336.172 74.0559C336.594 74.4352 336.629 75.0842 336.25 75.5065C336.048 75.7325 335.767 75.8475 335.486 75.8475ZM329.784 70.9616C329.556 70.9616 329.326 70.8863 329.136 70.7303C328.61 70.3017 328.082 69.8759 327.551 69.4542C327.107 69.1017 327.033 68.4561 327.385 68.0118C327.739 67.5682 328.385 67.4943 328.828 67.8468C329.367 68.2747 329.902 68.7053 330.434 69.14C330.874 69.4987 330.939 70.1456 330.581 70.5844C330.377 70.8329 330.083 70.9616 329.784 70.9616ZM323.853 66.3551C323.641 66.3551 323.428 66.2901 323.244 66.1546C322.698 65.7513 322.149 65.3522 321.599 64.9559C321.138 64.6245 321.034 63.9831 321.364 63.5224C321.695 63.0616 322.338 62.9583 322.797 63.2876C323.355 63.6887 323.911 64.094 324.464 64.502C324.92 64.8388 325.018 65.4816 324.68 65.9382C324.478 66.2107 324.168 66.3551 323.853 66.3551ZM317.705 62.0382C317.509 62.0382 317.312 61.9828 317.137 61.8657C316.572 61.4892 316.004 61.1161 315.435 60.7471C314.959 60.4384 314.824 59.8031 315.132 59.3266C315.44 58.8508 316.076 58.7153 316.551 59.0233C317.129 59.3971 317.703 59.775 318.275 60.1563C318.746 60.4705 318.875 61.1079 318.561 61.5802C318.363 61.8773 318.036 62.0382 317.705 62.0382ZM311.354 58.0225C311.174 58.0225 310.993 57.9753 310.827 57.8767C310.244 57.5275 309.66 57.1825 309.073 56.8416C308.583 56.5561 308.417 55.9277 308.701 55.4375C308.987 54.9467 309.616 54.7824 310.105 55.0658C310.7 55.4115 311.293 55.7613 311.883 56.1153C312.369 56.4069 312.527 57.0374 312.236 57.5241C312.043 57.8445 311.703 58.0225 311.354 58.0225ZM304.815 54.3176C304.652 54.3176 304.485 54.2779 304.331 54.1957C303.733 53.8753 303.133 53.5591 302.529 53.2469C302.026 52.9861 301.829 52.3665 302.09 51.8634C302.351 51.3595 302.971 51.163 303.473 51.4232C304.085 51.7395 304.694 52.0605 305.3 52.3857C305.8 52.6534 305.989 53.2756 305.721 53.7754C305.535 54.1204 305.181 54.3176 304.815 54.3176ZM298.101 50.9337C297.954 50.9337 297.804 50.9015 297.661 50.8338C297.048 50.5428 296.432 50.256 295.815 49.9733C295.299 49.7378 295.072 49.1285 295.308 48.6123C295.544 48.0961 296.154 47.8702 296.669 48.1057C297.296 48.3926 297.92 48.6835 298.542 48.9786C299.054 49.2216 299.272 49.8343 299.03 50.3463C298.854 50.7167 298.485 50.9337 298.101 50.9337ZM291.229 47.8791C291.098 47.8791 290.964 47.8538 290.836 47.8004C290.208 47.5396 289.578 47.2829 288.946 47.0296C288.421 46.8187 288.164 46.2211 288.375 45.6947C288.586 45.1682 289.182 44.9129 289.71 45.123C290.35 45.3791 290.987 45.6392 291.623 45.9035C292.148 46.1211 292.395 46.7222 292.178 47.2459C292.013 47.6402 291.632 47.8791 291.229 47.8791ZM284.214 45.1614C284.099 45.1614 283.981 45.1415 283.866 45.1004C283.227 44.8704 282.585 44.6445 281.941 44.4227C281.405 44.2379 281.121 43.6533 281.305 43.1172C281.489 42.5805 282.073 42.2944 282.611 42.4813C283.262 42.7058 283.912 42.9344 284.561 43.1672C285.094 43.3589 285.372 43.9469 285.18 44.4809C285.029 44.8999 284.634 45.1614 284.214 45.1614ZM277.071 42.7893C276.971 42.7893 276.87 42.7749 276.771 42.7441C276.12 42.5456 275.468 42.3512 274.814 42.1609C274.269 42.0027 273.957 41.4325 274.115 40.8883C274.273 40.3433 274.844 40.0312 275.388 40.1893C276.05 40.3824 276.711 40.5788 277.37 40.7801C277.913 40.9458 278.219 41.5194 278.053 42.0623C277.917 42.5039 277.511 42.7893 277.071 42.7893ZM269.834 40.7719C269.751 40.7719 269.666 40.7616 269.582 40.7404C268.925 40.5747 268.267 40.4125 267.607 40.255C267.055 40.1236 266.714 39.5698 266.847 39.018C266.977 38.4662 267.531 38.1253 268.083 38.2574C268.753 38.4169 269.42 38.5806 270.085 38.749C270.636 38.8879 270.968 39.4465 270.829 39.9963C270.711 40.4618 270.293 40.7719 269.834 40.7719ZM262.515 39.1111C262.447 39.1111 262.379 39.1042 262.311 39.0906C261.646 38.9564 260.982 38.827 260.315 38.7017C259.757 38.597 259.39 38.0603 259.495 37.503C259.6 36.9451 260.139 36.5768 260.693 36.6836C261.369 36.8102 262.044 36.9417 262.716 37.0772C263.272 37.1895 263.632 37.731 263.52 38.2869C263.422 38.7743 262.993 39.1111 262.515 39.1111Z" fill="white"/>
<path d="M303.829 328.953C303.46 328.953 303.103 328.753 302.919 328.404C302.656 327.902 302.849 327.281 303.351 327.017L304.252 326.54C304.751 326.273 305.374 326.463 305.641 326.963C305.908 327.463 305.718 328.085 305.218 328.352L304.305 328.836C304.153 328.916 303.99 328.953 303.829 328.953Z" fill="white"/>
<path d="M94.4353 225.847C93.9754 225.847 93.5565 225.536 93.4401 225.069C93.2731 224.4 93.1109 223.731 92.9528 223.059C92.8235 222.507 93.1657 221.955 93.7173 221.825C94.269 221.693 94.822 222.037 94.9521 222.59C95.1074 223.252 95.2676 223.913 95.4325 224.572C95.5701 225.122 95.2354 225.68 94.6851 225.817C94.6009 225.837 94.5174 225.847 94.4353 225.847ZM92.8029 218.498C92.3211 218.498 91.8913 218.158 91.7961 217.667C91.6647 216.99 91.5381 216.311 91.4169 215.632C91.317 215.073 91.6887 214.54 92.2465 214.44C92.8022 214.341 93.3382 214.712 93.4381 215.271C93.5579 215.94 93.6824 216.608 93.8118 217.275C93.9199 217.832 93.5558 218.371 92.9994 218.479C92.9337 218.492 92.8679 218.498 92.8029 218.498ZM91.5655 211.069C91.061 211.069 90.6216 210.697 90.5498 210.184C90.4546 209.501 90.365 208.818 90.2794 208.132C90.2096 207.57 90.6093 207.057 91.1719 206.987C91.7373 206.919 92.2472 207.317 92.3177 207.879C92.4012 208.554 92.4901 209.229 92.5839 209.9C92.6619 210.462 92.2697 210.981 91.7085 211.059C91.6606 211.065 91.6127 211.069 91.5655 211.069ZM90.7263 203.584C90.1986 203.584 89.7503 203.18 89.7045 202.645C89.6456 201.959 89.5915 201.271 89.5429 200.583C89.5026 200.016 89.9283 199.526 90.4943 199.485C91.0535 199.434 91.5511 199.871 91.5908 200.437C91.6387 201.116 91.6921 201.793 91.7503 202.47C91.7989 203.035 91.38 203.532 90.8153 203.58C90.7852 203.583 90.7558 203.584 90.7263 203.584ZM90.2835 196.068C89.7318 196.068 89.276 195.63 89.2582 195.074C89.2356 194.386 89.2178 193.697 89.2055 193.006C89.1946 192.439 89.6456 191.971 90.213 191.961C90.7681 191.939 91.2479 192.402 91.2581 192.969C91.2711 193.65 91.2883 194.33 91.3102 195.008C91.3286 195.575 90.8844 196.049 90.3177 196.068C90.3061 196.068 90.2951 196.068 90.2835 196.068ZM90.2356 188.537C90.2288 188.537 90.2212 188.537 90.2144 188.537C89.6477 188.525 89.1973 188.056 89.2089 187.489C89.2226 186.801 89.2411 186.113 89.2644 185.427C89.2829 184.861 89.7373 184.39 90.3253 184.436C90.892 184.455 91.3362 184.93 91.3163 185.497C91.2937 186.174 91.2753 186.852 91.2616 187.531C91.2506 188.09 90.7927 188.537 90.2356 188.537ZM90.5819 181.021C90.5566 181.021 90.532 181.021 90.5066 181.019C89.9406 180.977 89.5163 180.485 89.5573 179.92C89.6073 179.232 89.662 178.545 89.7216 177.859C89.7702 177.294 90.2657 176.876 90.8331 176.925C91.3978 176.974 91.816 177.472 91.7667 178.037C91.7078 178.713 91.6544 179.391 91.6052 180.07C91.5655 180.61 91.1144 181.021 90.5819 181.021ZM91.3232 173.532C91.28 173.532 91.2369 173.529 91.1938 173.523C90.6312 173.453 90.2322 172.939 90.3034 172.376C90.3896 171.691 90.4806 171.008 90.5765 170.326C90.6552 169.764 91.1774 169.374 91.7359 169.452C92.2971 169.531 92.6886 170.05 92.6092 170.612C92.5148 171.283 92.4251 171.957 92.3402 172.633C92.2752 173.152 91.8331 173.532 91.3232 173.532ZM92.4607 166.09C92.4005 166.09 92.3389 166.085 92.2773 166.074C91.7188 165.973 91.3485 165.439 91.4491 164.881C91.5716 164.201 91.6989 163.524 91.831 162.849C91.9392 162.292 92.4778 161.928 93.0356 162.038C93.5921 162.146 93.9548 162.686 93.8467 163.242C93.7167 163.908 93.5914 164.576 93.4703 165.245C93.3806 165.742 92.948 166.09 92.4607 166.09ZM93.9945 158.721C93.9158 158.721 93.8371 158.713 93.757 158.694C93.2054 158.563 92.8638 158.01 92.9939 157.458C93.1527 156.787 93.3163 156.117 93.4839 155.449C93.6222 154.899 94.1807 154.567 94.7296 154.704C95.2799 154.842 95.6132 155.4 95.475 155.95C95.3093 156.608 95.1485 157.268 94.9918 157.931C94.8802 158.402 94.4593 158.721 93.9945 158.721ZM95.9192 151.443C95.8234 151.443 95.7262 151.429 95.6297 151.401C95.0855 151.242 94.7741 150.671 94.9343 150.127C95.1286 149.465 95.3278 148.805 95.5311 148.147C95.6988 147.605 96.2723 147.303 96.8158 147.47C97.3572 147.637 97.6604 148.213 97.4927 148.755C97.2915 149.403 97.0957 150.054 96.9041 150.706C96.7727 151.153 96.3627 151.443 95.9192 151.443ZM98.2319 144.28C98.1183 144.28 98.0033 144.261 97.8903 144.221C97.3558 144.032 97.0752 143.446 97.2641 142.911C97.4934 142.26 97.7275 141.612 97.9663 140.966C98.1628 140.433 98.7534 140.164 99.2852 140.358C99.817 140.554 100.089 141.145 99.893 141.677C99.6576 142.314 99.4269 142.953 99.2011 143.594C99.0518 144.017 98.6556 144.28 98.2319 144.28ZM100.924 137.251C100.794 137.251 100.66 137.226 100.532 137.172C100.008 136.955 99.7596 136.354 99.9765 135.83C100.24 135.195 100.507 134.563 100.779 133.933C101.003 133.413 101.608 133.172 102.128 133.396C102.649 133.621 102.889 134.225 102.664 134.746C102.397 135.367 102.133 135.99 101.874 136.616C101.71 137.012 101.328 137.251 100.924 137.251ZM103.981 130.396C103.833 130.396 103.681 130.364 103.539 130.294C103.028 130.05 102.811 129.437 103.056 128.925C103.352 128.305 103.653 127.687 103.959 127.071C104.21 126.564 104.826 126.356 105.335 126.608C105.843 126.861 106.05 127.477 105.798 127.985C105.497 128.591 105.201 129.2 104.909 129.811C104.732 130.18 104.364 130.396 103.981 130.396ZM107.399 123.71C107.233 123.71 107.065 123.669 106.909 123.584C106.411 123.312 106.227 122.688 106.499 122.19C106.828 121.587 107.162 120.986 107.499 120.387C107.778 119.894 108.403 119.718 108.897 119.997C109.392 120.276 109.566 120.902 109.288 121.396C108.955 121.986 108.626 122.58 108.301 123.175C108.115 123.516 107.763 123.71 107.399 123.71ZM111.171 117.211C110.986 117.211 110.8 117.162 110.633 117.058C110.149 116.76 110 116.128 110.297 115.645C110.659 115.059 111.023 114.477 111.393 113.896C111.697 113.418 112.331 113.276 112.81 113.581C113.289 113.886 113.43 114.52 113.125 114.999C112.76 115.571 112.4 116.145 112.045 116.723C111.852 117.038 111.515 117.211 111.171 117.211ZM115.283 110.92C115.082 110.92 114.878 110.861 114.7 110.737C114.234 110.415 114.117 109.775 114.44 109.309C114.832 108.742 115.228 108.179 115.628 107.619C115.957 107.158 116.599 107.051 117.06 107.38C117.521 107.71 117.628 108.352 117.299 108.813C116.905 109.365 116.515 109.919 116.129 110.477C115.929 110.766 115.609 110.92 115.283 110.92ZM119.726 104.853C119.506 104.853 119.285 104.782 119.098 104.638C118.65 104.291 118.568 103.646 118.915 103.197C119.337 102.653 119.762 102.111 120.191 101.572C120.545 101.129 121.191 101.056 121.634 101.409C122.077 101.763 122.15 102.409 121.796 102.853C121.373 103.383 120.955 103.917 120.539 104.454C120.336 104.716 120.033 104.853 119.726 104.853ZM124.484 99.0278C124.247 99.0278 124.009 98.9457 123.814 98.7793C123.385 98.409 123.336 97.7607 123.706 97.3308C124.156 96.8084 124.609 96.2895 125.067 95.7747C125.443 95.351 126.092 95.312 126.516 95.6885C126.941 96.065 126.979 96.714 126.603 97.1384C126.152 97.6464 125.706 98.1571 125.262 98.6719C125.06 98.9067 124.773 99.0278 124.484 99.0278ZM129.546 93.4602C129.29 93.4602 129.034 93.365 128.835 93.1747C128.426 92.7818 128.412 92.1321 128.804 91.7227C129.281 91.2251 129.762 90.7315 130.246 90.2406C130.644 89.8367 131.294 89.8326 131.697 90.2311C132.101 90.6295 132.105 91.2791 131.707 91.683C131.23 92.1663 130.756 92.6531 130.287 93.1439C130.085 93.3541 129.815 93.4602 129.546 93.4602ZM134.896 88.1657C134.622 88.1657 134.348 88.0568 134.146 87.8412C133.759 87.4277 133.78 86.7774 134.194 86.3892C134.697 85.9182 135.202 85.45 135.712 84.9858C136.13 84.6032 136.78 84.6333 137.162 85.0529C137.544 85.4719 137.514 86.1215 137.095 86.5035C136.593 86.9615 136.094 87.4236 135.598 87.8884C135.4 88.0733 135.147 88.1657 134.896 88.1657ZM140.521 83.1608C140.229 83.1608 139.939 83.0369 139.736 82.7966C139.37 82.3632 139.425 81.7149 139.858 81.3494C140.385 80.9051 140.916 80.4635 141.449 80.0261C141.888 79.6667 142.534 79.731 142.894 80.1698C143.254 80.6087 143.189 81.2556 142.75 81.615C142.225 82.0456 141.702 82.4803 141.183 82.9184C140.99 83.0807 140.755 83.1608 140.521 83.1608ZM146.403 78.4584C146.093 78.4584 145.785 78.3181 145.583 78.0511C145.242 77.5986 145.331 76.9544 145.783 76.6121C146.334 76.1966 146.887 75.7838 147.442 75.3758C147.899 75.041 148.542 75.1375 148.878 75.5955C149.213 76.0521 149.115 76.6949 148.658 77.0311C148.11 77.4336 147.564 77.8402 147.022 78.251C146.837 78.3906 146.62 78.4584 146.403 78.4584ZM152.53 74.073C152.201 74.073 151.877 73.9149 151.678 73.6212C151.361 73.1509 151.484 72.5129 151.953 72.1952C152.525 71.8091 153.1 71.4265 153.677 71.0479C154.151 70.7364 154.788 70.8699 155.098 71.3436C155.409 71.818 155.277 72.4547 154.803 72.7655C154.234 73.1386 153.667 73.5158 153.104 73.8964C152.927 74.0162 152.728 74.073 152.53 74.073ZM158.883 70.019C158.534 70.019 158.195 69.8417 158.002 69.5213C157.71 69.0359 157.866 68.4047 158.352 68.1117C158.944 67.7558 159.538 67.4039 160.135 67.0568C160.626 66.7707 161.254 66.9384 161.539 67.4278C161.824 67.918 161.658 68.5464 161.168 68.8319C160.579 69.1749 159.994 69.5206 159.411 69.8718C159.245 69.9717 159.063 70.019 158.883 70.019ZM165.444 66.3079C165.076 66.3079 164.72 66.11 164.536 65.763C164.27 65.2619 164.46 64.6403 164.961 64.374C165.572 64.0495 166.184 63.7305 166.8 63.4149C167.306 63.1561 167.923 63.3567 168.181 63.8605C168.44 64.3651 168.24 64.9846 167.736 65.2427C167.129 65.5535 166.526 65.8684 165.925 66.1874C165.771 66.2689 165.606 66.3079 165.444 66.3079ZM297.694 66.1874C297.532 66.1874 297.367 66.1491 297.215 66.0683C296.614 65.7513 296.011 65.4378 295.405 65.1284C294.9 64.871 294.7 64.2521 294.958 63.7469C295.215 63.2424 295.835 63.0411 296.339 63.2992C296.953 63.612 297.565 63.9304 298.174 64.2521C298.675 64.517 298.867 65.1379 298.602 65.6397C298.418 65.9882 298.062 66.1874 297.694 66.1874ZM172.196 62.9507C171.809 62.9507 171.439 62.7303 171.265 62.3558C171.026 61.8417 171.25 61.2311 171.764 60.9922C172.39 60.7012 173.019 60.4144 173.651 60.1323C174.17 59.9003 174.775 60.133 175.007 60.6512C175.238 61.1688 175.006 61.7767 174.488 62.0074C173.866 62.2853 173.246 62.568 172.628 62.8542C172.489 62.9199 172.341 62.9507 172.196 62.9507ZM290.948 62.848C290.803 62.848 290.658 62.8172 290.518 62.7529C289.902 62.4681 289.283 62.1874 288.662 61.9115C288.143 61.6808 287.91 61.0736 288.141 60.5561C288.371 60.0379 288.981 59.8051 289.495 60.0351C290.126 60.3158 290.753 60.5999 291.378 60.8888C291.893 61.1263 292.117 61.737 291.879 62.2518C291.707 62.6269 291.336 62.848 290.948 62.848ZM179.122 59.9584C178.715 59.9584 178.33 59.7147 178.169 59.3136C177.957 58.7871 178.213 58.1895 178.74 57.9787C179.382 57.7213 180.026 57.4686 180.672 57.2208C181.202 57.0168 181.796 57.2831 181.998 57.8116C182.201 58.3415 181.937 58.935 181.408 59.1383C180.77 59.3827 180.137 59.6312 179.504 59.8845C179.378 59.9345 179.25 59.9584 179.122 59.9584ZM284.033 59.8749C283.906 59.8749 283.778 59.851 283.652 59.8017C283.022 59.5504 282.389 59.3033 281.754 59.061C281.225 58.859 280.959 58.2648 281.162 57.7349C281.364 57.2051 281.958 56.9381 282.487 57.1421C283.131 57.3879 283.773 57.6391 284.413 57.8938C284.94 58.1039 285.197 58.7009 284.987 59.228C284.826 59.6298 284.441 59.8749 284.033 59.8749ZM186.202 57.3413C185.774 57.3413 185.375 57.0723 185.23 56.6444C185.047 56.1077 185.335 55.5245 185.872 55.3417C186.527 55.1192 187.184 54.9015 187.843 54.6886C188.383 54.5147 188.962 54.8104 189.136 55.3506C189.31 55.8907 189.014 56.4692 188.474 56.6431C187.825 56.8532 187.177 57.0675 186.533 57.2865C186.423 57.3235 186.312 57.3413 186.202 57.3413ZM276.969 57.2763C276.86 57.2763 276.75 57.2592 276.641 57.2222C275.998 57.0052 275.353 56.7923 274.706 56.5842C274.166 56.4103 273.869 55.8318 274.043 55.2924C274.216 54.7529 274.793 54.4551 275.334 54.629C275.991 54.8406 276.645 55.0562 277.297 55.276C277.835 55.4574 278.123 56.0399 277.941 56.5773C277.797 57.0059 277.397 57.2763 276.969 57.2763ZM193.399 55.1123C192.95 55.1123 192.538 54.8152 192.411 54.362C192.258 53.8158 192.577 53.2489 193.123 53.0963C193.786 52.9107 194.451 52.7286 195.118 52.5527C195.669 52.4083 196.228 52.7341 196.373 53.2818C196.518 53.8301 196.191 54.3922 195.644 54.5373C194.987 54.7119 194.33 54.8905 193.677 55.074C193.584 55.1 193.491 55.1123 193.399 55.1123ZM269.777 55.0596C269.685 55.0596 269.593 55.0473 269.501 55.0213C268.847 54.8392 268.192 54.6612 267.534 54.4887C266.986 54.3449 266.658 53.7829 266.802 53.2345C266.947 52.6862 267.51 52.3576 268.056 52.5027C268.723 52.678 269.389 52.8587 270.052 53.0436C270.599 53.1955 270.918 53.7617 270.766 54.3086C270.638 54.7625 270.226 55.0596 269.777 55.0596ZM200.697 53.2749C200.227 53.2749 199.803 52.9498 199.696 52.4719C199.573 51.9181 199.921 51.3698 200.475 51.2459C201.147 51.0959 201.82 50.9501 202.496 50.8098C203.051 50.6934 203.595 51.0508 203.711 51.6059C203.826 52.1611 203.47 52.7047 202.915 52.8204C202.249 52.9594 201.585 53.1024 200.922 53.251C200.847 53.2667 200.772 53.2749 200.697 53.2749ZM262.476 53.2325C262.403 53.2325 262.327 53.2243 262.253 53.2079C261.59 53.0607 260.926 52.9183 260.261 52.7807C259.706 52.6657 259.349 52.1228 259.464 51.5676C259.579 51.0117 260.125 50.6558 260.676 50.7701C261.351 50.9097 262.026 51.0542 262.698 51.2034C263.251 51.3266 263.6 51.8743 263.477 52.4288C263.372 52.9066 262.947 53.2325 262.476 53.2325ZM208.083 51.8305C207.591 51.8305 207.156 51.4752 207.071 50.9734C206.977 50.4141 207.355 49.8849 207.914 49.7905C208.593 49.6761 209.274 49.5673 209.956 49.4625C210.511 49.3742 211.04 49.7617 211.127 50.3224C211.212 50.883 210.827 51.4067 210.267 51.4923C209.595 51.595 208.924 51.7025 208.255 51.8154C208.196 51.8257 208.139 51.8305 208.083 51.8305ZM255.089 51.7983C255.033 51.7983 254.976 51.7942 254.919 51.7839C254.25 51.6724 253.579 51.5662 252.907 51.4642C252.346 51.3794 251.96 50.8557 252.045 50.295C252.131 49.7336 252.655 49.3468 253.214 49.4338C253.896 49.5372 254.577 49.6453 255.256 49.7583C255.814 49.8514 256.193 50.3806 256.099 50.9399C256.017 51.443 255.581 51.7983 255.089 51.7983ZM215.536 50.7817C215.02 50.7817 214.577 50.3949 214.517 49.8705C214.453 49.3071 214.858 48.7985 215.421 48.7342C216.105 48.6561 216.791 48.5835 217.477 48.5158C218.045 48.4596 218.544 48.8724 218.601 49.4365C218.657 50.0013 218.244 50.5038 217.68 50.5599C217.002 50.627 216.327 50.6989 215.653 50.7749C215.614 50.7797 215.575 50.7817 215.536 50.7817ZM247.634 50.7605C247.596 50.7605 247.558 50.7584 247.519 50.7543C246.845 50.679 246.169 50.6078 245.491 50.5414C244.927 50.4867 244.514 49.9849 244.569 49.4201C244.624 48.856 245.123 48.4398 245.691 48.498C246.378 48.5651 247.064 48.6369 247.747 48.7136C248.311 48.7766 248.717 49.2852 248.653 49.8486C248.594 50.3723 248.15 50.7605 247.634 50.7605ZM223.033 50.1307C222.494 50.1307 222.042 49.7104 222.009 49.1654C221.975 48.5993 222.406 48.1126 222.972 48.079C223.659 48.0373 224.348 48.001 225.037 47.9688C225.607 47.9489 226.084 48.3809 226.11 48.9477C226.136 49.5146 225.698 49.9945 225.131 50.0205C224.451 50.0513 223.772 50.0876 223.095 50.1286C223.075 50.13 223.054 50.1307 223.033 50.1307ZM240.133 50.119C240.113 50.119 240.093 50.1184 240.072 50.1177C239.394 50.078 238.716 50.0424 238.035 50.0123C237.469 49.9869 237.03 49.507 237.056 48.9402C237.081 48.3734 237.54 47.9311 238.127 47.9606C238.817 47.9914 239.505 48.027 240.192 48.0674C240.758 48.1009 241.19 48.587 241.156 49.1524C241.125 49.698 240.673 50.119 240.133 50.119ZM230.556 49.8753C229.992 49.8753 229.534 49.4208 229.529 48.8567C229.525 48.2892 229.981 47.8264 230.547 47.8216C230.926 47.8189 231.304 47.8175 231.682 47.8175L232.616 47.8202C233.183 47.8237 233.639 48.2864 233.636 48.854C233.632 49.4187 233.173 49.874 232.609 49.874C232.607 49.874 232.604 49.874 232.602 49.874L231.682 49.8705C231.309 49.8705 230.937 49.8719 230.565 49.8747C230.561 49.8753 230.558 49.8753 230.556 49.8753Z" fill="white"/>
<path d="M59.9342 332.054C64.8526 335.659 69.9701 339.008 75.2588 342.095H388.106C394.431 338.403 399.378 335.025 403.431 332.054H59.9342V332.054Z" fill="#EBEBEC"/>
<path d="M463.365 331.055H0V333.109H463.365V331.055Z" fill="#2A3477"/>
<path d="M86.2583 296.197H53.02V306.232H86.2583V296.197Z" fill="#FFCE7B" stroke="#2A3477" stroke-width="3" stroke-miterlimit="10"/>
<path d="M82.5466 330.532H56.731L55.2362 306.232H84.0421L82.5466 330.532Z" fill="#FFCE7B" stroke="#2A3477" stroke-width="3" stroke-miterlimit="10"/>
<path d="M86.4328 265.819C84.3207 265.819 82.6089 267.532 82.6089 269.644V274.358H78.8233V269.784C78.8233 264.712 74.7118 260.599 69.6395 260.599C64.5671 260.599 60.4557 264.711 60.4557 269.784V283.157H56.2423V278.443C56.2423 276.33 54.5298 274.618 52.4176 274.618C50.3055 274.618 48.5937 276.331 48.5937 278.443V283.157V287.52V287.774C48.5937 289.449 49.9509 290.807 51.6257 290.807H60.4557V296.197H78.8233V282.007H87.2254C88.8996 282.007 90.2575 280.65 90.2575 278.975V278.721V274.357V269.643C90.2568 267.531 88.5443 265.819 86.4328 265.819Z" fill="white" stroke="#2A3477" stroke-width="3" stroke-miterlimit="10"/>
<path d="M62.5083 294.144V288.754H51.6257C51.0864 288.754 50.647 288.314 50.647 287.775V278.443C50.647 277.467 51.4416 276.672 52.4176 276.672C53.3943 276.672 54.1883 277.467 54.1883 278.443V285.211H62.5076V269.785C62.5076 265.853 65.706 262.653 69.6381 262.653C73.5702 262.653 76.7686 265.853 76.7686 269.785V276.412H84.6608V269.645C84.6608 268.668 85.4554 267.873 86.4315 267.873C87.4082 267.873 88.2021 268.668 88.2021 269.645V278.976C88.2021 279.516 87.7634 279.955 87.2234 279.955H76.7679V294.144H62.5083V294.144Z" fill="#B2D348"/>
<path d="M73.9179 269.188H72.549V270.215H73.9179V269.188Z" fill="#2A3477"/>
<path d="M73.9179 286.809H72.549V284.965H73.9179V286.809ZM73.9179 281.278H72.549V279.434H73.9179V281.278ZM73.9179 275.746H72.549V273.903H73.9179V275.746Z" fill="#2A3477"/>
<path d="M73.9179 290.495H72.549V291.522H73.9179V290.495Z" fill="#2A3477"/>
<path d="M70.1097 265.337H68.7408V266.364H70.1097V265.337Z" fill="#2A3477"/>
<path d="M70.1097 282.958H68.7408V281.115H70.1097V282.958ZM70.1097 277.427H68.7408V275.583H70.1097V277.427ZM70.1097 271.896H68.7408V270.052H70.1097V271.896Z" fill="#2A3477"/>
<path d="M70.1097 286.645H68.7408V287.672H70.1097V286.645Z" fill="#2A3477"/>
<path d="M66.1324 268.675H64.7635V269.701H66.1324V268.675Z" fill="#2A3477"/>
<path d="M66.1324 286.296H64.7635V284.452H66.1324V286.296ZM66.1324 280.764H64.7635V278.921H66.1324V280.764ZM66.1324 275.233H64.7635V273.389H66.1324V275.233Z" fill="#2A3477"/>
<path d="M66.1324 289.982H64.7635V291.009H66.1324V289.982Z" fill="#2A3477"/>
<path d="M328.966 283.353H134.398V167.436C134.398 162.873 138.097 159.173 142.659 159.173H320.704C325.267 159.173 328.966 162.873 328.966 167.436V283.353H328.966Z" fill="white" stroke="#2A3477" stroke-width="3" stroke-miterlimit="10"/>
<path d="M319.701 168.44H143.664V274.087H319.701V168.44Z" fill="#2A3477"/>
<path d="M316.767 303.121H146.598C139.86 303.121 134.398 297.658 134.398 290.919V283.353H328.966V290.919C328.966 297.658 323.504 303.121 316.767 303.121Z" fill="#D8D9DA" stroke="#2A3477" stroke-width="3" stroke-miterlimit="10"/>
<path d="M257.162 303.121H206.83V324.376H257.162V303.121Z" fill="#D3D5D6" stroke="#2A3477" stroke-width="3" stroke-miterlimit="10"/>
<path d="M282.177 331.736H181.813V328.836C181.813 326.373 183.81 324.376 186.273 324.376H277.718C280.181 324.376 282.177 326.373 282.177 328.836V331.736V331.736Z" fill="white" stroke="#2A3477" stroke-width="3" stroke-miterlimit="10"/>
<path d="M314.271 192.279H301.267V266.063H314.271V192.279Z" fill="#E4E5E6" stroke="#2A3477" stroke-width="3" stroke-miterlimit="10"/>
<path d="M165.726 192.279H149.984V262.603H165.726V192.279Z" fill="#E6E7E8" stroke="#2A3477" stroke-width="3" stroke-miterlimit="10"/>
<path d="M171.169 243.064H149.984V254.563H171.169V243.064Z" fill="#E6E7E8" stroke="#2A3477" stroke-width="3" stroke-miterlimit="10"/>
<path d="M314.271 175.872H149.984V186.803H314.271V175.872Z" fill="#E6E7E8" stroke="#2A3477" stroke-width="3" stroke-miterlimit="10"/>
<path d="M297.826 191.987H270.485V219.783H297.826V191.987Z" fill="#EBEBEC"/>
<path d="M294.526 195.995H273.822V198.048H294.526V195.995Z" fill="#006290"/>
<path d="M294.526 200.901H273.822V202.955H294.526V200.901Z" fill="#006290"/>
<path d="M294.526 205.978H273.822V208.031H294.526V205.978Z" fill="#006290"/>
<path d="M277.329 195.281H275.276V198.762H277.329V195.281Z" fill="#2A3477"/>
<path d="M280.367 200.188H278.314V203.667H280.367V200.188Z" fill="#2A3477"/>
<path d="M278.442 205.265H276.388V208.745H278.442V205.265Z" fill="#2A3477"/>
<path d="M294.526 211.397H273.822V215.675H294.526V211.397Z" fill="#2A3477"/>
<path d="M257.195 199.693H202.896V254.003H257.195V199.693Z" fill="white"/>
<path d="M258.221 252.976H256.168V255.029H258.221V252.976Z" fill="#2A3477"/>
<path d="M252.15 255.029H250.14V252.976H252.15V255.029ZM246.122 255.029H244.112V252.976H246.122V255.029ZM240.093 255.029H238.083V252.976H240.093V255.029ZM234.065 255.029H232.055V252.976H234.065V255.029ZM228.036 255.029H226.027V252.976H228.036V255.029ZM222.008 255.029H219.999V252.976H222.008V255.029ZM215.98 255.029H213.97V252.976H215.98V255.029ZM209.951 255.029H207.942V252.976H209.951V255.029Z" fill="#2A3477"/>
<path d="M203.923 252.976H201.87V255.029H203.923V252.976Z" fill="#2A3477"/>
<path d="M203.923 248.956H201.87V246.946H203.923V248.956ZM203.923 242.926H201.87V240.917H203.923V242.926ZM203.923 236.897H201.87V234.887H203.923V236.897ZM203.923 230.867H201.87V228.857H203.923V230.867ZM203.923 224.838H201.87V222.828H203.923V224.838ZM203.923 218.809H201.87V216.798H203.923V218.809ZM203.923 212.779H201.87V210.769H203.923V212.779ZM203.923 206.749H201.87V204.739H203.923V206.749Z" fill="#2A3477"/>
<path d="M203.923 198.666H201.87V200.72H203.923V198.666Z" fill="#2A3477"/>
<path d="M252.15 200.72H250.14V198.666H252.15V200.72ZM246.122 200.72H244.112V198.666H246.122V200.72ZM240.093 200.72H238.083V198.666H240.093V200.72ZM234.065 200.72H232.055V198.666H234.065V200.72ZM228.036 200.72H226.027V198.666H228.036V200.72ZM222.008 200.72H219.999V198.666H222.008V200.72ZM215.98 200.72H213.97V198.666H215.98V200.72ZM209.951 200.72H207.942V198.666H209.951V200.72Z" fill="#2A3477"/>
<path d="M258.221 198.666H256.168V200.72H258.221V198.666Z" fill="#2A3477"/>
<path d="M258.221 248.956H256.168V246.946H258.221V248.956ZM258.221 242.926H256.168V240.916H258.221V242.926ZM258.221 236.897H256.168V234.887H258.221V236.897ZM258.221 230.867H256.168V228.857H258.221V230.867ZM258.221 224.838H256.168V222.828H258.221V224.838ZM258.221 218.809H256.168V216.798H258.221V218.809ZM258.221 212.778H256.168V210.768H258.221V212.778ZM258.221 206.749H256.168V204.739H258.221V206.749Z" fill="#2A3477"/>
<path d="M229.192 244.98C238.423 244.98 245.906 237.495 245.906 228.263C245.906 219.03 238.423 211.545 229.192 211.545C219.961 211.545 212.478 219.03 212.478 228.263C212.478 237.495 219.961 244.98 229.192 244.98Z" fill="#FFCF30"/>
<path d="M240.735 103.221H156.053V111.156H240.735V103.221Z" fill="#FBAE31" stroke="#2A3477" stroke-width="2.71" stroke-miterlimit="10" stroke-linecap="round" stroke-linejoin="round"/>
<path d="M240.735 108.343H156.053C155.54 108.343 155.125 107.928 155.125 107.416C155.125 106.903 155.54 106.488 156.053 106.488H240.735C241.247 106.488 241.662 106.904 241.662 107.416C241.663 107.928 241.247 108.343 240.735 108.343Z" fill="#2A3477"/>
<path d="M240.735 111.156L251.731 107.416L240.735 103.221V111.156Z" fill="#F8F8F9" stroke="#2A3477" stroke-width="2.71" stroke-miterlimit="10" stroke-linecap="round" stroke-linejoin="round"/>
<path d="M156.053 103.221H152.075V111.156H156.053V103.221Z" fill="#F8F8F9" stroke="#2A3477" stroke-width="2.71" stroke-miterlimit="10" stroke-linecap="round" stroke-linejoin="round"/>
<path d="M152.075 103.221H148.096V111.156H152.075V103.221Z" fill="#F8F8F9" stroke="#2A3477" stroke-width="2.71" stroke-miterlimit="10" stroke-linecap="round" stroke-linejoin="round"/>
<path d="M141.668 107.19C141.668 109.381 143.444 111.157 145.635 111.157H148.096V103.222H145.635C143.444 103.222 141.668 104.998 141.668 107.19Z" fill="#F3CEDF" stroke="#2A3477" stroke-width="2.71" stroke-miterlimit="10" stroke-linecap="round" stroke-linejoin="round"/>
<path d="M108.862 123.366C115.562 123.366 120.993 117.934 120.993 111.232C120.993 104.531 115.562 99.099 108.862 99.099C102.162 99.099 96.731 104.531 96.731 111.232C96.731 117.934 102.162 123.366 108.862 123.366Z" fill="#FFE043"/>
<path d="M116.098 132.015H101.625V129.014C101.625 127.289 100.77 125.65 99.338 124.632C94.4757 121.172 91.9186 115.55 92.497 109.592C93.2731 101.598 99.917 95.2428 107.951 94.8094C112.524 94.5664 116.859 96.1546 120.169 99.2913C123.481 102.43 125.305 106.67 125.305 111.232C125.305 116.549 122.71 121.563 118.365 124.645C116.944 125.652 116.096 127.286 116.096 129.014V132.015H116.098ZM103.679 129.962H114.045V129.014C114.045 126.621 115.216 124.361 117.179 122.969C120.982 120.272 123.253 115.883 123.253 111.232C123.253 107.24 121.656 103.528 118.758 100.782C115.862 98.0365 112.069 96.642 108.063 96.8597C101.033 97.239 95.2211 102.798 94.5421 109.79C94.0349 115.007 96.2737 119.93 100.53 122.957C102.502 124.36 103.68 126.624 103.68 129.014V129.962H103.679Z" fill="#2A3477"/>
<path d="M116.983 133.171H100.74V135.225H116.983V133.171Z" fill="#2A3477"/>
<path d="M116.983 136.495H100.74V138.548H116.983V136.495Z" fill="#2A3477"/>
<path d="M114.683 139.904H103.041V141.958H114.683V139.904Z" fill="#2A3477"/>
<path d="M111.513 131.5C111.465 131.5 111.415 131.497 111.366 131.49C110.804 131.408 110.415 130.888 110.496 130.327L113.331 110.671C112.834 110.883 112.267 111.037 111.65 111.057C110.672 111.09 109.727 110.783 108.862 110.147C107.997 110.783 107.066 111.089 106.074 111.057C105.458 111.037 104.89 110.883 104.393 110.67L107.228 130.327C107.309 130.888 106.92 131.409 106.358 131.49C105.798 131.568 105.277 131.181 105.195 130.62L102.024 108.636C101.959 108.186 102.198 107.747 102.61 107.557C103.022 107.367 103.511 107.47 103.811 107.81C103.818 107.818 104.866 108.969 106.15 109.003C106.837 109.018 107.488 108.715 108.136 108.066C108.538 107.665 109.187 107.665 109.588 108.066C110.24 108.718 110.87 109.02 111.586 109.003C112.864 108.962 113.903 107.822 113.913 107.81C114.214 107.469 114.702 107.366 115.114 107.556C115.526 107.747 115.764 108.185 115.699 108.635L112.528 130.619C112.455 131.131 112.015 131.5 111.513 131.5Z" fill="#2A3477"/>
<path d="M113.751 141.958H103.973V232.012H113.751V141.958Z" fill="#2A3477" stroke="#2A3477" stroke-width="3" stroke-miterlimit="10" stroke-linecap="round" stroke-linejoin="round"/>
<path d="M108.861 233.039C108.294 233.039 107.835 232.579 107.835 232.012V140.931C107.835 140.364 108.294 139.904 108.861 139.904C109.429 139.904 109.888 140.364 109.888 140.931V232.012C109.888 232.579 109.429 233.039 108.861 233.039Z" fill="#2A3477"/>
<path d="M103.973 232.012L108.861 248.188L113.751 232.012H103.973Z" fill="#F8F8F9" stroke="#2A3477" stroke-width="3" stroke-miterlimit="10" stroke-linecap="round" stroke-linejoin="round"/>
<path d="M333.352 124.193H142.295V144.789H333.352V124.193Z" fill="#FBAE31"/>
<path d="M156.293 134.508H154.24V144.79H156.293V134.508Z" fill="#2A3477"/>
<path d="M171.242 130.302H169.188V144.79H171.242V130.302Z" fill="#2A3477"/>
<path d="M186.19 134.508H184.137V144.79H186.19V134.508Z" fill="#2A3477"/>
<path d="M201.139 130.302H199.085V144.79H201.139V130.302Z" fill="#2A3477"/>
<path d="M216.087 134.508H214.034V144.79H216.087V134.508Z" fill="#2A3477"/>
<path d="M231.036 130.302H228.983V144.79H231.036V130.302Z" fill="#2A3477"/>
<path d="M245.984 134.508H243.931V144.79H245.984V134.508Z" fill="#2A3477"/>
<path d="M260.933 130.302H258.88V144.79H260.933V130.302Z" fill="#2A3477"/>
<path d="M275.882 134.508H273.829V144.79H275.882V134.508Z" fill="#2A3477"/>
<path d="M290.831 130.302H288.777V144.79H290.831V130.302Z" fill="#2A3477"/>
<path d="M305.779 134.508H303.726V144.79H305.779V134.508Z" fill="#2A3477"/>
<path d="M320.728 130.302H318.674V144.79H320.728V130.302Z" fill="#2A3477"/>
<path d="M390.09 233.477H343.853V243.492H390.09V233.477Z" fill="#F68A1F"/>
<path d="M382.578 233.139H381.255V243.829H382.578V233.139Z" fill="#2A3477"/>
<path d="M372.913 233.139H371.591V243.829H372.913V233.139Z" fill="#2A3477"/>
<path d="M363.249 233.139H361.927V243.829H363.249V233.139Z" fill="#2A3477"/>
<path d="M353.584 233.139H352.262V243.829H353.584V233.139Z" fill="#2A3477"/>
<path d="M381.574 211.09L341.473 234.107L346.457 242.793L386.557 219.776L381.574 211.09Z" fill="#FFDD00"/>
<path d="M380.223 223.828L374.904 214.556L373.757 215.214L379.076 224.486L380.223 223.828Z" fill="#2A3477"/>
<path d="M371.841 228.6L366.521 219.328L365.375 219.986L370.694 229.258L371.841 228.6Z" fill="#2A3477"/>
<path d="M363.461 233.412L358.142 224.14L356.995 224.798L362.314 234.07L363.461 233.412Z" fill="#2A3477"/>
<path d="M355.075 238.223L349.756 228.951L348.609 229.609L353.929 238.881L355.075 238.223Z" fill="#2A3477"/>
<path d="M361.099 195.033L339.664 236.011L348.536 240.654L369.971 199.676L361.099 195.033Z" fill="#50C9F0"/>
<path d="M366.781 206.499L357.31 201.544L356.697 202.716L366.168 207.671L366.781 206.499Z" fill="#2A3477"/>
<path d="M362.3 215.088L352.829 210.132L352.216 211.304L361.687 216.26L362.3 215.088Z" fill="#2A3477"/>
<path d="M357.791 223.624L348.322 218.669L347.709 219.841L357.178 224.796L357.791 223.624Z" fill="#2A3477"/>
<path d="M353.328 232.224L343.858 227.268L343.245 228.44L352.715 233.396L353.328 232.224Z" fill="#2A3477"/>
<path d="M363.549 258.044H284.668V268.309H363.549V258.044Z" fill="white" stroke="#2A3477" stroke-width="3" stroke-miterlimit="10"/>
<path d="M358.387 262.149H289.829V264.203H358.387V262.149Z" fill="#2A3477"/>
<path d="M302.527 265.438C303.776 265.438 304.788 264.425 304.788 263.176C304.788 261.927 303.776 260.914 302.527 260.914C301.278 260.914 300.266 261.927 300.266 263.176C300.266 264.425 301.278 265.438 302.527 265.438Z" fill="#F1F2F2" stroke="#2A3477" stroke-width="3" stroke-miterlimit="10"/>
<path d="M415.582 108.122H359.591V164.124H415.582V108.122Z" fill="white"/>
<path d="M416.609 165.151H414.651V164.124H414.556V163.193H414.651V163.097H415.582V163.193H416.609V165.151Z" fill="#2A3477"/>
<path d="M410.918 165.151H409.052V163.097H410.918V165.151ZM405.318 165.151H403.451V163.097H405.318V165.151ZM399.719 165.151H397.853V163.097H399.719V165.151ZM394.119 165.151H392.252V163.097H394.119V165.151ZM388.519 165.151H386.653V163.097H388.519V165.151ZM382.92 165.151H381.053V163.097H382.92V165.151ZM377.32 165.151H375.453V163.097H377.32V165.151ZM371.72 165.151H369.854V163.097H371.72V165.151ZM366.121 165.151H364.254V163.097H366.121V165.151Z" fill="#2A3477"/>
<path d="M360.521 165.151H358.564V163.193H359.591V163.097H360.521V163.193H360.617V164.124H360.521V165.151Z" fill="#2A3477"/>
<path d="M360.617 159.459H358.564V157.592H360.617V159.459ZM360.617 153.859H358.564V151.991H360.617V153.859ZM360.617 148.258H358.564V146.391H360.617V148.258ZM360.617 142.657H358.564V140.79H360.617V142.657ZM360.617 137.057H358.564V135.19H360.617V137.057ZM360.617 131.456H358.564V129.589H360.617V131.456ZM360.617 125.855H358.564V123.987H360.617V125.855ZM360.617 120.254H358.564V118.387H360.617V120.254ZM360.617 114.654H358.564V112.787H360.617V114.654Z" fill="#2A3477"/>
<path d="M360.521 109.148H359.591V109.053H358.564V107.095H360.521V108.122H360.617V109.053H360.521V109.148Z" fill="#2A3477"/>
<path d="M410.918 109.148H409.052V107.095H410.918V109.148ZM405.319 109.148H403.451V107.095H405.319V109.148ZM399.719 109.148H397.853V107.095H399.719V109.148ZM394.119 109.148H392.253V107.095H394.119V109.148ZM388.519 109.148H386.653V107.095H388.519V109.148ZM382.92 109.148H381.053V107.095H382.92V109.148ZM377.32 109.148H375.453V107.095H377.32V109.148ZM371.72 109.148H369.854V107.095H371.72V109.148ZM366.122 109.148H364.254V107.095H366.122V109.148Z" fill="#2A3477"/>
<path d="M415.582 109.148H414.651V109.053H414.556V108.122H414.651V107.095H416.609V109.053H415.582V109.148Z" fill="#2A3477"/>
<path d="M416.609 159.459H414.556V157.592H416.609V159.459ZM416.609 153.859H414.556V151.992H416.609V153.859ZM416.609 148.258H414.556V146.391H416.609V148.258ZM416.609 142.657H414.556V140.79H416.609V142.657ZM416.609 137.057H414.556V135.19H416.609V137.057ZM416.609 131.456H414.556V129.589H416.609V131.456ZM416.609 125.855H414.556V123.988H416.609V125.855ZM416.609 120.254H414.556V118.387H416.609V120.254ZM416.609 114.654H414.556V112.787H416.609V114.654Z" fill="#2A3477"/>
<path d="M362.587 105.125H356.594V111.119H362.587V105.125Z" fill="#FFFBCA" stroke="#2A3477" stroke-width="3" stroke-miterlimit="10"/>
<path d="M418.578 105.125H412.585V111.119H418.578V105.125Z" fill="#FFFBCA" stroke="#2A3477" stroke-width="3" stroke-miterlimit="10"/>
<path d="M362.587 161.127H356.594V167.121H362.587V161.127Z" fill="#FFFBCA" stroke="#2A3477" stroke-width="3" stroke-miterlimit="10"/>
<path d="M418.578 161.127H412.585V167.121H418.578V161.127Z" fill="#FFFBCA" stroke="#2A3477" stroke-width="3" stroke-miterlimit="10"/>
<path d="M64.1483 207.653H37.4915V234.315H64.1483V207.653Z" fill="white"/>
<path d="M64.8327 234.999H63.6294V234.314H63.4638V233.796H63.6294V233.63H64.1482V233.796H64.8327V234.999Z" fill="#2A3477"/>
<path d="M61.659 234.999H60.6741V233.63H61.659V234.999V234.999ZM58.7029 234.999H57.7173V233.63H58.7029V234.999ZM55.7468 234.999H54.7619V233.63H55.7468V234.999V234.999ZM52.7907 234.999H51.8051V233.63H52.7907V234.999ZM49.8339 234.999H48.849V233.63H49.8339V234.999ZM46.8785 234.999H45.8929V233.63H46.8785V234.999ZM43.9218 234.999H42.9368V233.63H43.9218V234.999ZM40.9663 234.999H39.9814V233.63H40.9663V234.999V234.999Z" fill="#2A3477"/>
<path d="M38.0096 234.999H36.807V233.796H37.4914V233.63H38.0096V233.796H38.1759V234.314H38.0096V234.999Z" fill="#2A3477"/>
<path d="M38.1759 231.824H36.807V230.838H38.1759V231.824ZM38.1759 228.868H36.807V227.882H38.1759V228.868ZM38.1759 225.912H36.807V224.926H38.1759V225.912ZM38.1759 222.954H36.807V221.969H38.1759V222.954ZM38.1759 219.998H36.807V219.012H38.1759V219.998ZM38.1759 217.04H36.807V216.055H38.1759V217.04ZM38.1759 214.084H36.807V213.098H38.1759V214.084ZM38.1759 211.128H36.807V210.142H38.1759V211.128Z" fill="#2A3477"/>
<path d="M38.0096 208.337H37.4914V208.17H36.807V206.968H38.0096V207.653H38.1759V208.17H38.0096V208.337Z" fill="#2A3477"/>
<path d="M61.6583 208.337H60.6734V206.968H61.6583V208.337V208.337ZM58.7029 208.337H57.718V206.968H58.7029V208.337ZM55.7468 208.337H54.7612V206.968H55.7468V208.337ZM52.79 208.337H51.8051V206.968H52.79V208.337V208.337ZM49.8339 208.337H48.8484V206.968H49.8339V208.337ZM46.8779 208.337H45.893V206.968H46.8779V208.337V208.337ZM43.9218 208.337H42.9362V206.968H43.9218V208.337ZM40.9657 208.337H39.9808V206.968H40.9657V208.337V208.337Z" fill="#2A3477"/>
<path d="M64.1482 208.337H63.6294V208.17H63.4638V207.653H63.6294V206.968H64.8327V208.17H64.1482V208.337Z" fill="#2A3477"/>
<path d="M64.8327 231.824H63.4638V230.838H64.8327V231.824ZM64.8327 228.868H63.4638V227.882H64.8327V228.868ZM64.8327 225.912H63.4638V224.926H64.8327V225.912ZM64.8327 222.954H63.4638V221.969H64.8327V222.954ZM64.8327 219.998H63.4638V219.012H64.8327V219.998ZM64.8327 217.041H63.4638V216.055H64.8327V217.041ZM64.8327 214.084H63.4638V213.099H64.8327V214.084ZM64.8327 211.128H63.4638V210.142H64.8327V211.128Z" fill="#2A3477"/>
<path d="M60.2394 211.562H41.4003V230.405H60.2394V211.562Z" fill="#FFCF30"/>
<path d="M38.8309 206.312H36.152V208.992H38.8309V206.312Z" fill="white" stroke="#2A3477" stroke-width="2" stroke-miterlimit="10"/>
<path d="M65.487 206.312H62.8081V208.992H65.487V206.312Z" fill="white" stroke="#2A3477" stroke-width="2" stroke-miterlimit="10"/>
<path d="M38.8309 232.974H36.152V235.654H38.8309V232.974Z" fill="white" stroke="#2A3477" stroke-width="2" stroke-miterlimit="10"/>
<path d="M65.487 232.974H62.8081V235.654H65.487V232.974Z" fill="white" stroke="#2A3477" stroke-width="2" stroke-miterlimit="10"/>
<path d="M294.399 88.226L285.068 78.8938C284.808 78.6337 284.808 78.212 285.068 77.9519L286.621 76.3999C286.881 76.1398 287.302 76.1398 287.563 76.3999L296.893 85.7321C297.153 85.9922 297.153 86.4139 296.893 86.674L295.341 88.226C295.08 88.4861 294.659 88.4861 294.399 88.226Z" fill="#F89F70" stroke="#2A3477" stroke-width="3" stroke-miterlimit="10"/>
<path d="M295.319 84.1582L289.135 77.973L294.494 72.6128C296.202 70.9048 298.971 70.9048 300.678 72.6128C302.386 74.3208 302.386 77.0899 300.678 78.7979L295.319 84.1582Z" fill="#F89F70" stroke="#2A3477" stroke-width="3" stroke-miterlimit="10"/>
<path d="M292.24 86.0661L287.228 81.053L272.65 95.6337C272.224 96.0596 272.045 96.6627 272.185 97.2001C272.324 97.7374 272.145 98.3406 271.719 98.7664L270.855 99.631C270.397 100.089 270.359 100.794 270.771 101.205L272.091 102.525C272.502 102.937 273.207 102.9 273.665 102.442L274.529 101.577C274.955 101.151 275.558 100.972 276.095 101.112C276.633 101.251 277.236 101.072 277.661 100.646L292.24 86.0661Z" fill="white" stroke="#2A3477" stroke-width="3" stroke-miterlimit="10"/>
<path d="M341.533 313.12C331.252 313.12 322.918 321.456 322.918 331.739V332.053H360.148V331.739C360.148 321.456 351.813 313.12 341.533 313.12Z" fill="white" stroke="#2A3477" stroke-width="3" stroke-miterlimit="10"/>
<path d="M100.473 82.3113H99.1046V85.9053H100.473V82.3113Z" fill="#2A3477"/>
<path d="M100.473 88.2383H99.1046V91.8323H100.473V88.2383Z" fill="#2A3477"/>
<path d="M98.6227 86.3872H95.0294V87.7564H98.6227V86.3872Z" fill="#2A3477"/>
<path d="M104.549 86.3872H100.955V87.7564H104.549V86.3872Z" fill="#2A3477"/>
<path d="M256.852 95.5337H255.484V99.1277H256.852V95.5337Z" fill="#2A3477"/>
<path d="M256.852 101.461H255.484V105.055H256.852V101.461Z" fill="#2A3477"/>
<path d="M255.002 99.6096H251.408V100.979H255.002V99.6096Z" fill="#2A3477"/>
<path d="M260.928 99.6096H257.334V100.979H260.928V99.6096Z" fill="#2A3477"/>
<path d="M385.472 189.296H384.103V192.89H385.472V189.296Z" fill="#2A3477"/>
<path d="M385.472 195.223H384.103V198.817H385.472V195.223Z" fill="#2A3477"/>
<path d="M383.621 193.372H380.027V194.741H383.621V193.372Z" fill="#2A3477"/>
<path d="M389.547 193.372H385.954V194.741H389.547V193.372Z" fill="#2A3477"/>
<path d="M421.643 90.0244H420.274V93.6184H421.643V90.0244Z" fill="#2A3477"/>
<path d="M421.643 95.9514H420.274V99.5454H421.643V95.9514Z" fill="#2A3477"/>
<path d="M419.793 94.1003H416.199V95.4695H419.793V94.1003Z" fill="#2A3477"/>
<path d="M425.718 94.1003H422.125V95.4695H425.718V94.1003Z" fill="#2A3477"/>
<path d="M88.8879 69.3796H87.519V72.9737H88.8879V69.3796Z" fill="#2A3477"/>
<path d="M88.8879 75.3074H87.519V78.9014H88.8879V75.3074Z" fill="#2A3477"/>
<path d="M87.0372 73.4563H83.4439V74.8255H87.0372V73.4563Z" fill="#2A3477"/>
<path d="M92.9631 73.4563H89.3698V74.8255H92.9631V73.4563Z" fill="#2A3477"/>
<path d="M319.683 115.703C319.488 115.703 319.296 115.699 319.104 115.69L319.193 113.787C319.765 113.814 320.353 113.793 320.926 113.72L321.17 115.609C320.68 115.672 320.179 115.703 319.683 115.703ZM313.265 113.75C312.694 113.366 312.154 112.928 311.657 112.445L312.983 111.078C313.399 111.483 313.85 111.85 314.327 112.17L313.265 113.75ZM326.834 113.214L325.652 111.721C326.101 111.365 326.524 110.963 326.905 110.529L328.335 111.786C327.878 112.306 327.373 112.786 326.834 113.214ZM308.55 107.138C308.373 106.469 308.257 105.781 308.204 105.093L310.102 104.947C310.146 105.52 310.243 106.094 310.39 106.651L308.55 107.138ZM331.013 106.249L329.141 105.909C329.242 105.348 329.294 104.769 329.294 104.187H331.198C331.198 104.882 331.135 105.577 331.013 106.249ZM328.753 100.997C328.56 100.452 328.318 99.9226 328.033 99.4229L329.686 98.4802C330.027 99.0779 330.317 99.7111 330.547 100.363L328.753 100.997ZM311.073 99.9062L309.37 99.0567C309.677 98.4405 310.043 97.847 310.458 97.2918L311.982 98.4337C311.636 98.8965 311.33 99.3921 311.073 99.9062ZM324.394 95.8049C323.889 95.5201 323.358 95.2826 322.816 95.0957L323.435 93.2959C324.085 93.5191 324.722 93.8053 325.327 94.1448L324.394 95.8049ZM316.038 95.2881L315.317 93.5253C315.953 93.2651 316.62 93.0598 317.297 92.916L317.691 94.7794C317.126 94.8985 316.57 95.0697 316.038 95.2881Z" fill="#2A3477"/>
<path d="M161.287 314.909H120.306V298.582H122.36V312.855H161.287V314.909Z" fill="#2A3477"/>
<path d="M339.482 135.19H337.429V148.258H339.482V135.19Z" fill="#2A3477"/>
<path d="M369.855 177.944H343.854V179.998H369.855V177.944Z" fill="#2A3477"/>
<path d="M84.0421 158.433H55.4867V160.486H84.0421V158.433Z" fill="#2A3477"/>
<path d="M72.5491 166.779H50.647V168.833H72.5491V166.779Z" fill="#2A3477"/>
<path d="M90.3253 183.409H64.1483V185.463H90.3253V183.409Z" fill="#2A3477"/>
<path d="M52.7246 222.559H45.2604C45.1918 222.559 45.1244 222.541 45.0649 222.507C45.0053 222.473 44.9557 222.424 44.9209 222.365C44.8861 222.306 44.8675 222.239 44.8667 222.17C44.866 222.102 44.8832 222.034 44.9167 221.974L48.6487 215.296C48.6828 215.235 48.7326 215.184 48.7929 215.149C48.8532 215.113 48.9218 215.094 48.9918 215.094C49.0617 215.094 49.1303 215.113 49.1906 215.149C49.2509 215.184 49.3007 215.235 49.3348 215.296L53.0668 221.974C53.1002 222.034 53.1175 222.101 53.1168 222.17C53.1161 222.238 53.0976 222.305 53.063 222.364C53.0284 222.424 52.979 222.473 52.9196 222.507C52.8602 222.541 52.793 222.559 52.7246 222.559Z" fill="white"/>
<path d="M52.7245 218.237C52.4558 218.237 52.1879 218.265 51.9248 218.319L53.7532 221.591C53.8534 221.77 53.905 221.973 53.9028 222.178C53.9007 222.384 53.8448 222.585 53.7408 222.762C53.6369 222.94 53.4884 223.086 53.3101 223.189C53.1318 223.291 52.9299 223.344 52.7245 223.344H48.976C49.1938 224.037 49.5992 224.656 50.1474 225.132C50.6955 225.608 51.3649 225.923 52.0812 226.042C52.7974 226.16 53.5326 226.078 54.205 225.804C54.8774 225.531 55.4608 225.076 55.8904 224.49C56.3201 223.905 56.5791 223.212 56.6387 222.489C56.6983 221.765 56.5563 221.039 56.2283 220.391C55.9004 219.744 55.3993 219.199 54.7808 218.819C54.1623 218.439 53.4505 218.238 52.7245 218.237Z" fill="white"/>
<path d="M220.867 221.694C220.867 220.34 221.569 218.922 222.667 218.094C222.667 218.855 223.288 219.894 224.467 219.894C225.183 219.894 225.87 220.179 226.376 220.685C226.882 221.192 227.167 221.878 227.167 222.594C227.167 222.942 227.096 223.271 226.976 223.576C227.643 224.106 228.301 224.649 228.948 225.204L227.076 227.076C226.521 226.428 225.979 225.771 225.449 225.104C225.136 225.228 224.803 225.293 224.467 225.294C222.478 225.294 220.867 223.683 220.867 221.694ZM231.803 227.858L233.01 226.651C233.569 226.939 234.188 227.091 234.817 227.094C235.891 227.094 236.921 226.668 237.68 225.908C238.44 225.149 238.867 224.119 238.867 223.044C238.867 222.392 238.697 221.784 238.423 221.238L235.267 224.394L233.467 222.594L236.623 219.438C236.064 219.15 235.445 218.998 234.817 218.994C233.743 218.994 232.712 219.421 231.953 220.181C231.193 220.94 230.767 221.97 230.767 223.044C230.767 223.697 230.936 224.305 231.21 224.851L221.767 234.294L223.567 236.094L229.73 229.931C231.425 231.67 233.221 233.308 235.109 234.835L236.392 235.869L237.742 234.519L236.708 233.237C235.18 231.349 233.543 229.553 231.803 227.858V227.858Z" fill="#2A3477"/>
<path d="M369 120V126H379V150H385V126H395V120H369ZM407 130H389V136H395V150H401V136H407V130Z" fill="#2B3377"/>
</svg>
