<svg width="46" height="46" viewBox="0 0 46 46" fill="none" xmlns="http://www.w3.org/2000/svg">
<path d="M0 9.15C0 5.70731 1.78425 2.1045 4.575 0C4.575 1.93294 6.15337 4.575 9.15 4.575C10.97 4.575 12.7156 5.29801 14.0025 6.58498C15.2895 7.87195 16.0125 9.61745 16.0125 11.4375C16.0125 12.3205 15.8318 13.1577 15.5275 13.9332C17.2243 15.2798 18.8953 16.6586 20.5395 18.069L15.7815 22.827C14.3717 21.1823 12.9929 19.5114 11.6457 17.8151C10.8516 18.1319 10.005 18.2964 9.15 18.3C4.09462 18.3 0 14.2054 0 9.15ZM27.7977 24.8148L30.8652 21.7473C32.2857 22.4786 33.8586 22.8649 35.4562 22.875C38.1863 22.875 40.8046 21.7905 42.735 19.86C44.6655 17.9296 45.75 15.3113 45.75 12.5812C45.75 10.9228 45.3199 9.37646 44.6223 7.99024L36.6 16.0125L32.025 11.4375L40.0473 3.41524C38.6268 2.68393 37.0539 2.29758 35.4562 2.2875C32.7262 2.2875 30.1079 3.37202 28.1775 5.30247C26.247 7.23292 25.1625 9.85118 25.1625 12.5812C25.1625 14.2397 25.5925 15.786 26.2902 17.1723L2.2875 41.175L6.8625 45.75L22.5273 30.0852C26.8355 34.5055 31.4009 38.6676 36.1997 42.5498L39.4594 45.1781L42.8906 41.7469L40.2623 38.4872C36.3801 33.6884 32.218 29.123 27.7977 24.8148Z" fill="#2B3377"/>
</svg>
