<svg width="20" height="20" viewBox="0 0 20 20" fill="none" xmlns="http://www.w3.org/2000/svg">
<path d="M11.2501 14.5002C12.1121 14.5002 12.9388 14.1578 13.5483 13.5483C14.1578 12.9388 14.5002 12.1121 14.5002 11.2501V3.25004C14.5002 2.38808 14.1578 1.56142 13.5483 0.951915C12.9388 0.342414 12.1121 0 11.2501 0H3.25004C2.38808 0 1.56142 0.342414 0.951915 0.951915C0.342414 1.56142 0 2.38808 0 3.25004V11.2501C0 12.1121 0.342414 12.9388 0.951915 13.5483C1.56142 14.1578 2.38808 14.5002 3.25004 14.5002H11.2501Z" fill="#2B3377"/>
<path d="M5.50049 15.4999H7.00051V16.7499C7.00051 17.7159 7.78452 18.4999 8.75053 18.4999H16.7506C17.2148 18.4999 17.6599 18.3156 17.9881 17.9874C18.3163 17.6592 18.5007 17.214 18.5007 16.7499V8.7498C18.5007 8.28566 18.3163 7.84054 17.9881 7.51235C17.6599 7.18415 17.2148 6.99978 16.7506 6.99978H15.5006V5.49976H16.7506C17.1774 5.49976 17.6001 5.58382 17.9944 5.74715C18.3887 5.91048 18.747 6.14988 19.0488 6.45167C19.3506 6.75347 19.59 7.11175 19.7533 7.50606C19.9166 7.90037 20.0007 8.323 20.0007 8.7498V16.7499C20.0007 17.1767 19.9166 17.5993 19.7533 17.9936C19.59 18.388 19.3506 18.7462 19.0488 19.048C18.747 19.3498 18.3887 19.5892 17.9944 19.7526C17.6001 19.9159 17.1774 19.9999 16.7506 19.9999H8.75053C8.32373 19.9999 7.90111 19.9159 7.50679 19.7526C7.11248 19.5892 6.7542 19.3498 6.4524 19.048C6.15061 18.7462 5.91121 18.388 5.74788 17.9936C5.58455 17.5993 5.50049 17.1767 5.50049 16.7499V15.4999Z" fill="#2B3377"/>
</svg>
