<svg width="20" height="20" viewBox="0 0 20 20" fill="none" xmlns="http://www.w3.org/2000/svg">
<path d="M1.11111 0H16.6667L19.6744 3.00778C19.8828 3.2161 19.9999 3.49867 20 3.79333V18.8889C20 19.1836 19.8829 19.4662 19.6746 19.6746C19.4662 19.8829 19.1836 20 18.8889 20H1.11111C0.816426 20 0.533811 19.8829 0.325437 19.6746C0.117063 19.4662 0 19.1836 0 18.8889V1.11111C0 0.816426 0.117063 0.533811 0.325437 0.325437C0.533811 0.117063 0.816426 0 1.11111 0ZM4.44444 1.11111V6.66667H14.4444V1.11111H4.44444ZM3.33333 10V17.7778H16.6667V10H3.33333ZM11.1111 2.22222H13.3333V5.55556H11.1111V2.22222Z" fill="#2B3377"/>
</svg>
