<svg width="46" height="41" viewBox="0 0 46 41" fill="none" xmlns="http://www.w3.org/2000/svg">
<path fill-rule="evenodd" clip-rule="evenodd" d="M4.60227 4.5C4.46665 4.5 4.33658 4.55926 4.24068 4.66475C4.14478 4.77024 4.09091 4.91332 4.09091 5.0625V10.6875C4.09091 10.8367 4.14478 10.9798 4.24068 11.0852C4.33658 11.1907 4.46665 11.25 4.60227 11.25H40.3977C40.5334 11.25 40.6634 11.1907 40.7593 11.0852C40.8552 10.9798 40.9091 10.8367 40.9091 10.6875V5.0625C40.9091 4.91331 40.8552 4.77024 40.7593 4.66475C40.6634 4.55926 40.5334 4.5 40.3977 4.5H4.60227ZM1.34798 1.48277C2.21107 0.533371 3.38167 0 4.60227 0H40.3977C41.6183 0 42.7889 0.533369 43.652 1.48277C44.5151 2.43218 45 3.71985 45 5.0625V10.6875C45 12.0302 44.5151 13.3178 43.652 14.2672C42.7889 15.2166 41.6183 15.75 40.3977 15.75H4.60227C3.38167 15.75 2.21107 15.2166 1.34798 14.2672C0.484882 13.3178 0 12.0302 0 10.6875V5.0625C0 3.71984 0.484882 2.43217 1.34798 1.48277Z" fill="#2B3377"/>
<path fill-rule="evenodd" clip-rule="evenodd" d="M4.21875 21.5C4.09443 21.5 3.9752 21.5494 3.88729 21.6373C3.79939 21.7252 3.75 21.8444 3.75 21.9688V36.0312C3.75 36.1556 3.79939 36.2748 3.88729 36.3627C3.9752 36.4506 4.09443 36.5 4.21875 36.5H18.2812C18.4056 36.5 18.5248 36.4506 18.6127 36.3627C18.7006 36.2748 18.75 36.1556 18.75 36.0312V21.9688C18.75 21.8444 18.7006 21.7252 18.6127 21.6373C18.5248 21.5494 18.4056 21.5 18.2812 21.5H4.21875ZM1.23564 18.9856C2.02681 18.1945 3.09987 17.75 4.21875 17.75H18.2812C19.4001 17.75 20.4732 18.1945 21.2644 18.9856C22.0555 19.7768 22.5 20.8499 22.5 21.9688V36.0312C22.5 37.1501 22.0555 38.2232 21.2644 39.0144C20.4732 39.8055 19.4001 40.25 18.2812 40.25H4.21875C3.09987 40.25 2.02682 39.8055 1.23564 39.0144C0.444474 38.2232 0 37.1501 0 36.0312V21.9688C0 20.8499 0.444476 19.7768 1.23564 18.9856Z" fill="#2B3377"/>
<path fill-rule="evenodd" clip-rule="evenodd" d="M34.5625 21.5C34.4133 21.5 34.2702 21.5494 34.1648 21.6373C34.0593 21.7252 34 21.8444 34 21.9688V36.0312C34 36.1556 34.0593 36.2748 34.1648 36.3627C34.2702 36.4506 34.4133 36.5 34.5625 36.5H40.1875C40.3367 36.5 40.4798 36.4506 40.5852 36.3627C40.6907 36.2748 40.75 36.1556 40.75 36.0312V21.9688C40.75 21.8444 40.6907 21.7252 40.5852 21.6373C40.4798 21.5494 40.3367 21.5 40.1875 21.5H34.5625ZM30.9828 18.9856C31.9322 18.1945 33.2198 17.75 34.5625 17.75H40.1875C41.5302 17.75 42.8178 18.1945 43.7672 18.9856C44.7166 19.7768 45.25 20.8499 45.25 21.9688V36.0312C45.25 37.1501 44.7166 38.2232 43.7672 39.0144C42.8178 39.8055 41.5302 40.25 40.1875 40.25H34.5625C33.2198 40.25 31.9322 39.8055 30.9828 39.0144C30.0334 38.2232 29.5 37.1501 29.5 36.0312V21.9688C29.5 20.8499 30.0334 19.7768 30.9828 18.9856Z" fill="#2B3377"/>
</svg>
