<svg width="46" height="20" viewBox="0 0 46 20" fill="none" xmlns="http://www.w3.org/2000/svg">
<path d="M12.8 4H3.052L5.9216 1.1312L4.8 0L0 4.8L4.8 9.6L5.9216 8.468L3.0544 5.6H12.8C14.073 5.6 15.2939 6.10571 16.1941 7.00589C17.0943 7.90606 17.6 9.12696 17.6 10.4C17.6 11.673 17.0943 12.8939 16.1941 13.7941C15.2939 14.6943 14.073 15.2 12.8 15.2H6.4V16.8H12.8C14.4974 16.8 16.1252 16.1257 17.3255 14.9255C18.5257 13.7253 19.2 12.0974 19.2 10.4C19.2 8.70261 18.5257 7.07475 17.3255 5.87452C16.1252 4.67428 14.4974 4 12.8 4Z" fill="#2B3377"/>
<path d="M32.8001 16L42.5481 16L39.6785 18.8688L40.8001 20L45.6001 15.2L40.8001 10.4L39.6785 11.532L42.5457 14.4L32.8001 14.4C31.5271 14.4 30.3062 13.8943 29.406 12.9941C28.5058 12.0939 28.0001 10.873 28.0001 9.6C28.0001 8.32696 28.5058 7.10606 29.406 6.20589C30.3062 5.30571 31.5271 4.8 32.8001 4.8L39.2001 4.8L39.2001 3.2L32.8001 3.2C31.1027 3.2 29.4748 3.87429 28.2746 5.07452C27.0744 6.27475 26.4001 7.90262 26.4001 9.6C26.4001 11.2974 27.0744 12.9253 28.2746 14.1255C29.4748 15.3257 31.1027 16 32.8001 16Z" fill="#C4C4C4"/>
</svg>
