<svg width="19" height="18" viewBox="0 0 19 18" fill="none" xmlns="http://www.w3.org/2000/svg">
<path d="M12.3073 12.2484H0.817034C0.711464 12.2487 0.607672 12.2213 0.515979 12.1689C0.424286 12.1166 0.347886 12.0412 0.294376 11.9502C0.240867 11.8592 0.212113 11.7558 0.210973 11.6502C0.209833 11.5446 0.236347 11.4406 0.287878 11.3485L6.033 1.06775C6.08546 0.973774 6.16206 0.895505 6.25488 0.841021C6.34771 0.786537 6.45339 0.757812 6.56102 0.757812C6.66865 0.757813 6.77433 0.786537 6.86715 0.841021C6.95997 0.895505 7.03657 0.973774 7.08904 1.06775L12.8342 11.3485C12.8856 11.4405 12.9121 11.5443 12.9111 11.6496C12.91 11.755 12.8815 11.8583 12.8282 11.9492C12.775 12.0402 12.6989 12.1156 12.6075 12.1681C12.5162 12.2206 12.4126 12.2483 12.3073 12.2484Z" />
<path d="M12.3075 5.59625C11.894 5.59616 11.4815 5.63821 11.0765 5.72174L13.8912 10.7589C14.0455 11.035 14.1249 11.3467 14.1215 11.6629C14.1182 11.9792 14.0322 12.2891 13.8722 12.5619C13.7121 12.8347 13.4835 13.0609 13.2091 13.2181C12.9346 13.3753 12.6238 13.458 12.3075 13.458H6.53711C6.87241 14.5242 7.49661 15.4766 8.34042 16.2095C9.18423 16.9424 10.2146 17.4271 11.3173 17.6099C12.4199 17.7926 13.5516 17.6662 14.5867 17.2447C15.6218 16.8232 16.5199 16.1231 17.1812 15.2221C17.8426 14.3211 18.2413 13.2544 18.3331 12.1406C18.4249 11.0267 18.2063 9.90914 17.7014 8.91201C17.1965 7.91487 16.4252 7.07715 15.4731 6.49184C14.5209 5.90653 13.4252 5.59653 12.3075 5.59625Z" />
</svg>
