<svg width="21" height="15" viewBox="0 0 21 15" fill="none" xmlns="http://www.w3.org/2000/svg">
<path d="M20.6073 7.05556C20.6073 7.05556 16.7588 0 10.3447 0C3.93052 0 0.0820312 7.05556 0.0820312 7.05556C0.0820312 7.05556 3.93052 14.1111 10.3447 14.1111C16.7588 14.1111 20.6073 7.05556 20.6073 7.05556ZM1.58679 7.05556C2.20705 6.11284 2.92047 5.23482 3.71628 4.43474C5.36728 2.78117 7.62506 1.28283 10.3447 1.28283C13.0643 1.28283 15.3207 2.78117 16.9743 4.43474C17.7701 5.23482 18.4835 6.11284 19.1038 7.05556C19.0294 7.16716 18.9473 7.29031 18.8537 7.42501C18.4239 8.04077 17.7889 8.86178 16.9743 9.67637C15.3207 11.3299 13.063 12.8283 10.3447 12.8283C7.62506 12.8283 5.36857 11.3299 3.715 9.67637C2.91919 8.87629 2.20578 7.99827 1.58551 7.05556H1.58679Z" />
<path d="M10.3454 3.84887C9.4948 3.84887 8.67907 4.18676 8.07763 4.7882C7.47618 5.38964 7.1383 6.20537 7.1383 7.05594C7.1383 7.90651 7.47618 8.72224 8.07763 9.32368C8.67907 9.92512 9.4948 10.263 10.3454 10.263C11.1959 10.263 12.0117 9.92512 12.6131 9.32368C13.2146 8.72224 13.5524 7.90651 13.5524 7.05594C13.5524 6.20537 13.2146 5.38964 12.6131 4.7882C12.0117 4.18676 11.1959 3.84887 10.3454 3.84887ZM5.85547 7.05594C5.85547 5.86514 6.32851 4.72312 7.17053 3.8811C8.01255 3.03908 9.15457 2.56604 10.3454 2.56604C11.5362 2.56604 12.6782 3.03908 13.5202 3.8811C14.3622 4.72312 14.8353 5.86514 14.8353 7.05594C14.8353 8.24673 14.3622 9.38876 13.5202 10.2308C12.6782 11.0728 11.5362 11.5458 10.3454 11.5458C9.15457 11.5458 8.01255 11.0728 7.17053 10.2308C6.32851 9.38876 5.85547 8.24673 5.85547 7.05594Z" />
</svg>
