<svg width="21" height="18" viewBox="0 0 21 18" fill="none" xmlns="http://www.w3.org/2000/svg">
<path d="M14.5424 10.2725C14.7255 9.7832 14.8184 9.26475 14.8166 8.7423C14.8166 7.58229 14.3557 6.46979 13.5355 5.64954C12.7152 4.82928 11.6027 4.36847 10.4427 4.36847C9.92671 4.36907 9.41497 4.46192 8.93164 4.64263L9.95815 5.70102C10.1142 5.67606 10.2719 5.66327 10.43 5.66277C11.2502 5.66106 12.0378 5.98395 12.6207 6.56093C13.2037 7.13791 13.5346 7.92212 13.5414 8.7423C13.5409 8.90033 13.5281 9.05807 13.5031 9.21412L14.5424 10.2725Z" />
<path d="M20.3455 8.44305C18.1969 4.4709 14.4287 2.0672 10.2589 2.0672C9.1236 2.06986 7.99591 2.25279 6.91797 2.60915L7.94448 3.64204C8.70056 3.44663 9.478 3.34597 10.2589 3.34237C13.8485 3.34237 17.113 5.34439 19.0576 8.71721C18.3442 9.96854 17.3986 11.0722 16.2713 11.9689L17.1767 12.8743C18.4813 11.8218 19.5647 10.5217 20.3646 9.04876L20.5304 8.74272L20.3455 8.44305Z" />
<path d="M1.58759 0.950002L4.43122 3.79363C2.63381 4.95092 1.16481 6.55168 0.165772 8.44163L0 8.74129L0.165772 9.04733C2.31443 13.0195 6.08256 15.4232 10.2524 15.4232C11.8799 15.4229 13.4863 15.0545 14.9514 14.3457L18.1393 17.5336L19.2551 16.5772L2.67786 0L1.58759 0.950002ZM7.80404 7.16646L12.044 11.4064C11.5649 11.7029 11.0134 11.8618 10.45 11.8655C10.0406 11.8655 9.63531 11.7845 9.25734 11.6273C8.87937 11.4701 8.53622 11.2396 8.24764 10.9493C7.95906 10.6589 7.73074 10.3143 7.57583 9.93542C7.42091 9.55649 7.34246 9.15066 7.34498 8.74129C7.35217 8.1844 7.51087 7.63998 7.80404 7.16646ZM6.87955 6.24196C6.28304 7.08319 6.00346 8.10836 6.09029 9.13595C6.17712 10.1635 6.62477 11.1273 7.35398 11.8565C8.08318 12.5857 9.0469 13.0333 10.0745 13.1202C11.1021 13.207 12.1273 12.9274 12.9685 12.3309L13.9886 13.351C12.8077 13.8558 11.5367 14.1161 10.2524 14.1161C6.66277 14.1161 3.39833 12.1141 1.45369 8.74129C2.38693 7.08881 3.73097 5.70524 5.35572 4.72451L6.87955 6.24196Z" />
</svg>
