<svg width="29" height="29" viewBox="0 0 29 29" fill="none" xmlns="http://www.w3.org/2000/svg">
<path fill-rule="evenodd" clip-rule="evenodd" d="M0.311573 0.595146C0.667682 0.230159 1.24796 0.2272 1.60767 0.588537L8.9396 7.95372C9.29931 8.31505 9.30223 8.90386 8.94612 9.26884C8.59001 9.63383 8.00973 9.63679 7.65002 9.27545L0.318086 1.91027C-0.0416205 1.54894 -0.0445366 0.960133 0.311573 0.595146Z" />
<path fill-rule="evenodd" clip-rule="evenodd" d="M8.94612 19.938C9.30223 20.303 9.29931 20.8918 8.9396 21.2532L1.60767 28.6183C1.24797 28.9797 0.667682 28.9767 0.311573 28.6117C-0.0445366 28.2467 -0.0416206 27.6579 0.318086 27.2966L7.65002 19.9314C8.00973 19.5701 8.59001 19.5731 8.94612 19.938Z" />
<path fill-rule="evenodd" clip-rule="evenodd" d="M19.451 19.9347C19.809 19.5716 20.3892 19.5716 20.7471 19.9347L28.0056 27.2999C28.3635 27.6631 28.3635 28.2519 28.0056 28.615C27.6477 28.9782 27.0674 28.9782 26.7095 28.615L19.451 21.2499C19.0931 20.8867 19.0931 20.2979 19.451 19.9347Z" />
<path fill-rule="evenodd" clip-rule="evenodd" d="M27.9326 0.591833C28.2905 0.955 28.2905 1.54381 27.9326 1.90698L20.6739 9.27216C20.316 9.63532 19.7357 9.63532 19.3778 9.27216C19.0199 8.90899 19.0199 8.32018 19.3778 7.95701L26.6365 0.591833C26.9944 0.228666 27.5747 0.228666 27.9326 0.591833Z" />
<path fill-rule="evenodd" clip-rule="evenodd" d="M19.8423 1.2494C19.8423 0.735809 20.2526 0.319458 20.7588 0.319458H27.3574C27.8636 0.319458 28.2739 0.735809 28.2739 1.2494V7.94502C28.2739 8.45862 27.8636 8.87497 27.3574 8.87497C26.8513 8.87497 26.441 8.45862 26.441 7.94502V2.17935H20.7588C20.2526 2.17935 19.8423 1.763 19.8423 1.2494Z" />
<path fill-rule="evenodd" clip-rule="evenodd" d="M27.3574 20.4063C27.8636 20.4063 28.2739 20.8227 28.2739 21.3363V28.0319C28.2739 28.5455 27.8636 28.9618 27.3574 28.9618H20.7588C20.2526 28.9618 19.8423 28.5455 19.8423 28.0319C19.8423 27.5183 20.2526 27.1019 20.7588 27.1019H26.441V21.3363C26.441 20.8227 26.8513 20.4063 27.3574 20.4063Z" />
<path fill-rule="evenodd" clip-rule="evenodd" d="M0.962869 20.4063C1.46903 20.4063 1.87935 20.8227 1.87935 21.3363V27.1019H7.56154C8.0677 27.1019 8.47803 27.5183 8.47803 28.0319C8.47803 28.5455 8.0677 28.9618 7.56154 28.9618H0.962869C0.45671 28.9618 0.0463867 28.5455 0.0463867 28.0319V21.3363C0.0463867 20.8227 0.45671 20.4063 0.962869 20.4063Z" />
<path fill-rule="evenodd" clip-rule="evenodd" d="M0.0463867 1.2494C0.0463867 0.735809 0.45671 0.319458 0.962869 0.319458H7.56154C8.0677 0.319458 8.47803 0.735809 8.47803 1.2494C8.47803 1.763 8.0677 2.17935 7.56154 2.17935H1.87935V7.94502C1.87935 8.45862 1.46903 8.87497 0.962869 8.87497C0.45671 8.87497 0.0463867 8.45862 0.0463867 7.94502V1.2494Z" />
</svg>
