<svg width="21" height="21" viewBox="0 0 21 21" fill="none" xmlns="http://www.w3.org/2000/svg">
<path fill-rule="evenodd" clip-rule="evenodd" d="M6.70526 0.361084C6.41458 0.361084 6.17894 0.596724 6.17894 0.887401V5.69735H1.45354C1.15883 5.69735 0.919922 5.93626 0.919922 6.23097C0.919922 6.52568 1.15883 6.76459 1.45354 6.76459H6.17894V9.96635H1.45355C1.15883 9.96635 0.919922 10.2053 0.919922 10.5C0.919922 10.7947 1.15883 11.0336 1.45355 11.0336H6.17894V14.2354H1.45355C1.15883 14.2354 0.919922 14.4743 0.919922 14.769C0.919922 15.0637 1.15883 15.3026 1.45355 15.3026H6.17894V20.1125C6.17894 20.4032 6.41458 20.6389 6.70526 20.6389C6.99593 20.6389 7.23158 20.4032 7.23158 20.1125V15.3026H10.3853V20.1125C10.3853 20.4032 10.6209 20.6389 10.9116 20.6389C11.2023 20.6389 11.4379 20.4032 11.4379 20.1125V15.3026H14.5933V20.1125C14.5933 20.4032 14.829 20.6389 15.1197 20.6389C15.4103 20.6389 15.646 20.4032 15.646 20.1125V15.3026L20.3705 15.3026C20.6652 15.3026 20.9042 15.0637 20.9042 14.769C20.9042 14.4743 20.6652 14.2354 20.3705 14.2354L15.646 14.2354V11.0336L20.3705 11.0336C20.6652 11.0336 20.9042 10.7947 20.9042 10.5C20.9042 10.2053 20.6652 9.96635 20.3705 9.96635L15.646 9.96635V6.76459L20.3705 6.76459C20.6652 6.76459 20.9042 6.52568 20.9042 6.23097C20.9042 5.93626 20.6652 5.69735 20.3705 5.69735L15.646 5.69735V0.887402C15.646 0.596724 15.4103 0.361084 15.1197 0.361084C14.829 0.361084 14.5933 0.596724 14.5933 0.887401V5.69735H11.4379V0.887401C11.4379 0.596724 11.2023 0.361084 10.9116 0.361084C10.6209 0.361084 10.3853 0.596724 10.3853 0.887402V5.69735H7.23158V0.887402C7.23158 0.596724 6.99593 0.361084 6.70526 0.361084ZM14.5933 6.76459H11.4379V9.96635H14.5933V6.76459ZM14.5933 11.0336H11.4379V14.2354H14.5933V11.0336ZM10.3853 11.0336V14.2354H7.23158V11.0336H10.3853ZM10.3853 6.76459V9.96635H7.23158V6.76459H10.3853Z" />
</svg>
