<?xml version="1.0" encoding="utf-8"?>
<!-- Generator: Adobe Illustrator 17.0.0, SVG Export Plug-In . SVG Version: 6.00 Build 0)  -->
<!DOCTYPE svg PUBLIC "-//W3C//DTD SVG 1.1//EN" "http://www.w3.org/Graphics/SVG/1.1/DTD/svg11.dtd">
<svg version="1.1" id="Layer_1" xmlns="http://www.w3.org/2000/svg" xmlns:xlink="http://www.w3.org/1999/xlink" x="0px" y="0px"
	 width="180px" height="103.717px" viewBox="0 0 180 103.717" enable-background="new 0 0 180 103.717" xml:space="preserve">
<path fill="#7FB952" d="M124.598,82.838c0,7.351-6.212,13.253-13.564,12.114c-0.104,0-0.207,0-0.311,0
	c-4.556-0.725-8.801-2.174-12.943-3.935c-10.975-4.556-22.158-4.659-33.444-1.139c-4.556,1.346-8.905,3.106-13.046,5.177
	c-9.629,4.866-18.327,4.142-26.403-3.003c-0.414-0.414-0.828-0.828-1.139-1.242c-0.725-0.828-1.657-1.553-2.174-2.589
	c0.207,0,0.414-0.104,0.518,0c1.553,1.346,3.52,1.76,5.384,2.381c1.346,0.518,2.692,0.828,4.142,0.932
	c2.796,0.104,5.695,0,8.387-0.932c3.52-1.242,6.73-3.106,10.251-4.556c1.76-0.725,3.624-1.242,5.384-1.864
	c2.071-0.725,4.142-1.346,6.212-1.967c2.278-0.725,4.659-0.932,6.937-1.139c3.106-0.207,6.212-0.207,9.215,0
	c2.899,0.104,5.798,0.725,8.594,1.657c1.553,0.518,3.624,0.828,4.97,1.657c0.311,0.207,0.932,0.104,1.242,0.311
	c0.518,0.311,1.45,0.104,1.967,0.311c6.109,1.45,11.907,4.556,18.223,3.727c2.796-0.311,5.281-1.657,7.766-3.003
	c2.899-1.657,4.142-3.935,3.417-7.144c-0.104-0.207-0.311-0.518,0.104-0.621c0.104,0,0.311,0.311,0.518,0.518
	c0,0.207,0.104,0.414,0.104,0.518c-0.311,0.518,0,1.139,0,1.657C125.013,81.388,124.598,82.113,124.598,82.838z"/>
<path fill="#E6435E" d="M43.112,4.665c1.864,0.207,3.417,1.035,5.177,1.346c1.76,0.311,3.52,0.725,5.281,1.139
	c4.245,0.828,8.387,0.207,12.528-0.104C69.101,6.839,72,6.218,74.899,5.389c2.071-0.518,4.245-0.932,6.316-1.553
	c3.313-0.932,6.627-1.864,9.836-2.899c0.932-0.311,1.864-0.414,2.692-0.828c0.932-0.414,1.76,0.414,2.071,1.346
	c0.311,1.035,0.207,1.864-0.932,2.381C93.018,4.664,90.947,5.182,88.98,5.7c-2.899,0.932-6.005,1.864-9.112,2.381
	c-1.76,0.311-3.624,0.621-5.384,0.932C69.41,10.048,64.233,9.531,59.16,9.427c-3.003,0-6.109-0.725-9.008-1.657
	c-1.967-0.621-3.935-1.346-5.798-2.174C43.837,5.493,43.423,5.079,43.112,4.665z"/>
<path fill="#E6435E" d="M155.557,36.555c0.207,2.071-0.414,4.556-0.621,7.041c-0.104,1.45-0.932,1.967-2.278,1.76
	s-1.657-1.346-1.45-2.278c1.242-5.281,1.553-10.561,0.828-15.945c-0.311-2.589-0.725-5.177-1.346-7.766
	c-0.414-1.657-0.828-3.313-1.45-4.866c-0.207-0.414-0.414-1.242,0.207-1.45c0.725-0.207,0.828,0.518,1.035,1.035
	c2.589,5.281,4.245,10.768,4.866,16.67C155.454,32.517,155.454,34.277,155.557,36.555z"/>
<path fill="#E6435E" d="M159.388,24.855c0,0.828-0.207,1.553-1.242,1.553c-0.932,0.104-1.242-0.725-1.346-1.553
	c-0.207-3.727-1.035-7.144-2.485-10.561c-0.414-0.932-0.621-1.967-0.932-2.899c-0.207-0.414-0.207-0.932,0.311-1.035
	c0.414-0.104,0.828-0.104,1.035,0.414C156.903,15.226,158.456,19.885,159.388,24.855z"/>
<path fill="#E6435E" d="M171.192,43.285c0.104,0.932-0.414,1.139-1.242,1.035c-3.003-0.518-5.902-0.518-8.49,1.553
	c-0.414,0.311-1.035,0.414-1.45,0c-0.311-0.414,0-0.828,0.414-1.242c2.278-3.003,7.144-3.831,10.043-2.589
	C170.985,42.25,171.192,42.664,171.192,43.285z"/>
<path fill="#F7C24D" d="M10.704,84.909c-0.207,0-0.414,0-0.621-0.104c-0.518-0.207-1.035-0.518-1.45-0.932
	c-0.828-0.828-1.45-1.864-1.76-3.003c-1.139-4.038,3.935-1.035,4.866,0.518c0.621,0.932,0.828,2.381,0,3.106
	C11.532,84.702,11.118,84.805,10.704,84.909z"/>
<path fill="#F7C24D" d="M7.08,75.072c-0.207,0-0.414,0.104-0.621,0c-1.139-0.207-1.76-1.346-2.071-2.485
	c-5.798-16.152-5.902-34.376,0-50.528c0.518-1.553,1.139-3.106,1.967-4.556c0.207-0.414,0.828-1.967,1.45-1.553
	c0.518,0.311,0.207,1.45,0.104,1.864C2.318,34.484,2.421,53.018,8.22,69.688c0.414,1.035,0.725,2.174,0.621,3.313
	C8.633,74.037,8.012,74.865,7.08,75.072z"/>
<path fill="#7FB952" d="M12.05,40.179c0-8.594,2.174-15.635,6.005-22.158c0.311-0.621,0.621-1.346,1.346-1.45
	c0.828-0.104,1.553-0.104,2.174,0.621c0.621,0.725,0.414,1.45,0,2.071c-1.657,2.485-3.003,5.074-4.142,7.869
	c-2.381,6.109-3.106,12.425-2.899,18.844c0,0.725,0.621,1.967-0.621,2.174c-1.45,0.207-1.139-1.242-1.346-1.967
	C12.153,43.907,11.946,41.629,12.05,40.179z"/>
<path fill="#7FB952" d="M116.833,6.425c4.452-0.414,8.283,1.139,11.597,3.935c5.488,4.763,7.869,10.975,8.18,18.12
	c0.207,3.624,0.104,7.248-0.621,10.768c-0.207,0.828-0.207,1.967-1.45,1.657c-1.139-0.207-1.035-1.242-0.932-2.071
	c0.932-5.902,1.346-11.804-0.725-17.602c-2.692-7.662-7.662-12.736-15.635-14.703C117.144,6.528,117.04,6.528,116.833,6.425z"/>
<path fill="#7FB952" d="M55.744,15.847c4.763,0.311,9.422,0.414,14.082,0.311c4.97-0.104,9.733-1.139,14.496-2.381
	c0.621-0.207,1.242-0.207,1.864-0.311c0.518-0.104,0.828-0.104,1.035,0.414s-0.104,0.932-0.621,1.139
	c-1.76,0.932-3.624,1.242-5.591,1.553c-5.281,0.932-10.561,1.242-15.945,1.035C61.853,17.504,58.747,16.882,55.744,15.847z"/>
<path fill="#7FB952" d="M19.608,76.522c-3.624-6.523-6.627-13.046-6.212-20.501c0-0.104,0-0.207,0-0.311
	c0.207-0.621,0.104-1.553,1.139-1.45c1.035,0.104,0.932,0.828,0.932,1.553c0.104,3.831,0.414,7.662,1.553,11.389
	c0.828,2.485,1.553,5.074,2.381,7.558C19.608,75.176,19.815,75.694,19.608,76.522z"/>
<path fill="#7FB952" d="M91.465,80.871c0.932-0.207,1.657,0.207,2.381,0.518c4.142,1.76,8.49,2.485,12.943,2.278
	c1.657-0.104,3.313,0,5.074,0c0.621,0,1.242,0.311,1.242,0.932c0.104,0.725-0.518,1.035-1.139,1.139
	c-6.937,0.311-13.874,0.207-19.88-4.038C91.88,81.595,91.465,81.492,91.465,80.871z"/>
<path fill="#7FB952" d="M25.821,12.844c0,1.553-1.242,2.899-2.692,2.899c-1.346,0-1.657-0.828-1.657-1.864
	c0-1.45,1.242-2.796,2.485-2.899C25.406,10.981,25.717,11.912,25.821,12.844z"/>
<path fill="#7FB952" d="M135.47,58.195l2.485-10.872c0.621-4.349,1.139-8.594,1.76-12.943c0.414-2.899,0.104-5.695,0.311-8.594
	c0.311-3.003-0.621-5.902-1.242-8.801c-0.414-1.864-1.346-3.727-2.174-5.488c-0.518-0.932-1.035-1.967-1.242-3.106
	c5.488,4.142,8.594,9.733,10.043,16.256c1.45,6.316,0.828,12.736,0.207,19.155c-0.518,4.556-1.346,9.112-2.174,13.564
	C140.647,55.917,137.955,56.435,135.47,58.195"/>
<path fill="#A1CE54" d="M139.198,17.814c-0.414-1.657-1.139-3.21-1.864-4.763c-0.725-1.45-1.76-2.899-1.967-4.556
	c-0.311-0.207-0.518-0.518-0.828-0.725c-8.18-5.384-17.188-6.005-26.506-4.142c-7.558,1.553-14.703,4.349-22.054,6.523
	c-10.251,3.106-20.605,4.245-31.269,2.692c-5.695-0.828-11.079-2.589-16.567-4.038C25.822,5.492,15.882,11.29,11.222,24.854
	c-0.518,1.45-0.828,3.003-1.139,4.452c-3.106,16.359-0.932,32.305,5.073,47.732c1.553,4.038,3.624,7.869,6.523,11.182
	c0.207,0,0.414-0.104,0.518,0c1.76,1.553,4.142,1.864,6.212,2.692c0.725,0.311,1.553,0.518,2.381,0.518
	c3.106,0.104,6.316,0.207,9.215-0.828c3.52-1.242,6.73-3.106,10.251-4.556c1.76-0.725,3.624-1.242,5.384-1.864
	c2.071-0.725,4.142-1.346,6.212-1.967c2.278-0.725,4.659-0.932,6.937-1.139c3.106-0.207,6.212-0.207,9.215,0
	c2.899,0.104,5.798,0.725,8.594,1.657c0.518,0.207,0.932,0.311,1.45,0.518c1.967,0.621,3.831,1.45,5.798,2.174
	c3.624,1.45,7.455,2.174,7.455,2.174c3.831,0.932,7.869,1.553,11.804,1.035c2.796-0.311,5.281-1.657,7.766-3.003
	c2.899-1.657,4.142-3.935,3.417-7.144c-0.104-0.207-0.311-0.518,0.104-0.621c0.104,0,0.311,0.311,0.518,0.518
	c0.104-1.139,0.311-2.278,0.725-3.417c0.932-4.556,2.692-8.801,5.591-12.632c1.035-1.864,2.485-3.106,4.142-4.349l1.346-4.659
	c0.104-0.725,0.311-1.346,0.518-2.071s0.414-1.346,0.518-2.071c0.725-3.417,1.139-6.834,1.553-10.354
	c0.518-3.624,0.828-7.248,0.828-10.975C140.233,24.752,140.026,21.231,139.198,17.814z"/>
<path fill="#FFFFFF" d="M94.468,66.893c0-0.828,0-3.21,0-4.038c0-0.104,0-0.725,0-1.553s0-1.864,0-2.381
	c0-1.45,0.104-1.967,0.621-2.485l0.207-0.207h3.624c1.967,0,4.038,0.104,4.452,0.104c0.932,0,0.932,0,1.242,0.311
	c0.518,0.518,0.311,0.932-0.518,0.725c-0.104,0-0.311-0.104-0.311-0.104c-0.725,0.104-1.242,0.104-2.174,0.104
	c-0.621,0-1.139,0-1.242,0s-0.725,0-1.346,0s-1.139,0.104-1.242,0.104c0,0,0,0.104,0.104,0.311c0.207,0.414,0.207,0.725,0.207,2.071
	s0,1.553,0,4.452c0,1.035,0,2.071,0,2.174c0,0.207,0,0.621,0,0.932v0.621h1.035c1.864,0,2.589,0,2.796,0.104
	c0.725,0.207,1.139,0.725,1.035,1.035c-0.104,0.104-0.104,0.104-0.621,0.104c-0.207,0-0.518,0-0.725,0.104
	c-0.311,0.104-1.553,0.207-1.76,0.207c0,0-0.414,0-0.932,0l-0.828,0.104v0.207c0,1.035,0,1.553,0,2.174c0,0.414,0,0.932,0,1.035
	v0.311h0.207c0.104,0,1.035,0,1.967,0s1.864,0,2.071-0.104c0.414,0,0.725,0,1.139,0.311c0.621,0.311,1.035,0.725,0.932,0.932
	c-0.104,0.207-0.207,0.207-0.828,0.207c-0.311,0-1.035,0.104-1.553,0.104c-0.621,0.104-1.657,0.104-3.003,0.104
	c-1.139,0-2.381,0.104-2.899,0.104h-0.932l-0.207-0.207c-0.311-0.311-0.621-0.932-0.518-1.035c0,0,0.104-0.104,0-0.104
	c0-0.104-0.104-0.518-0.104-1.035c0-0.518,0-1.139,0-1.346C94.468,71.034,94.365,68.135,94.468,66.893z"/>
<path fill="#FFFFFF" d="M87.324,27.858c0.104-0.932,0.104-2.589,0.104-3.831c0-0.828,0-0.828,0.104-0.932
	c0.207-0.311,0.932-0.414,1.553-0.207c0.725,0.207,1.242,0.414,1.657,0.932c0.518,0.518,0.518,0.518,0.518,1.553
	s-0.104,4.245-0.207,4.866c0,0.414,0,0.725,0,1.035c0,0.414-0.104,3.003-0.207,3.106c0,0.104,0,0.311,0,0.725
	c0,0.311,0,0.725-0.104,0.828c0,0.207-0.104,0.518-0.104,0.725s0,0.518,0,0.621c-0.104,0.725-0.104,1.035-0.207,1.139
	c-0.104,0.414-0.104,0.518-0.207,0.725c0,0.207-0.207,0.621-0.311,1.035c-0.104,0.104-0.104,0.311-0.104,0.311
	s-0.104,0.104-0.104,0.207c-0.104,0.104-0.104,0.207-0.207,0.311c-0.207,0.518-0.725,0.932-1.242,1.346
	c-0.311,0.207-0.725,0.414-1.035,0.518c-0.414,0.104-0.621,0.104-1.242,0c-0.828-0.104-1.035-0.207-1.553-0.414
	c-1.346-0.414-2.381-1.242-2.278-1.76c0.104-0.311,0.621-0.207,1.45,0.207l0.311,0.104l0.104-0.104
	c0.104-0.104,0.207-0.104,0.311-0.207c0.311-0.104,0.725-0.518,0.932-0.828c0.104-0.104,0.207-0.207,0.207-0.311
	c0.104,0,0.414-0.621,0.414-0.725c0,0,0-0.104,0.104-0.104c0-0.104,0.104-0.207,0.104-0.311c0.207-0.725,0.207-0.932,0.311-1.035
	c0,0,0.104-0.207,0.104-0.311s0-0.311,0.104-0.311c0-0.104,0.104-0.311,0.104-0.932c0-0.414,0.104-0.932,0.104-1.139
	c0.104-0.207,0.104-0.725,0.104-1.45v-1.035l-0.207,0.518c-0.311,0.725-0.518,1.346-0.518,1.45v0.104c0,0-0.104,0.207-0.207,0.414
	c-0.104,0.207-0.207,0.518-0.207,0.621c-0.104,0.104-0.104,0.207-0.104,0.207l-0.104,0.104l-0.104,0.104
	c0,0-0.104,0.207-0.207,0.414s-0.207,0.414-0.207,0.414s-0.104,0.104-0.104,0.207c-0.104,0.104-0.207,0.207-0.311,0.311
	c-0.311,0.311-0.828,0.414-1.553,0.311c-0.932-0.207-1.657-0.518-2.174-1.035c-0.414-0.518-0.828-0.828-0.828-1.035
	c0-0.104-0.104-0.207-0.104-0.311c-0.104-0.104-0.104-0.414-0.207-0.518c0-0.104-0.104-0.414-0.104-0.518
	c-0.104-0.104-0.104-0.311-0.104-0.311c0-0.104,0-0.414,0-0.725c-0.104-0.932,0-3.313,0.104-4.038
	c0.104-0.518,0.207-1.657,0.207-2.071c0-0.104,0-0.518,0.104-0.725s0.104-0.518,0.104-0.518c0-0.104,0.104-0.621,0.207-1.139
	c0-0.207,0.104-0.311,0.104-0.311l0.104-0.104c0-0.207,0.104-0.414,0.414-0.518c0.932-0.414,3.106,0.414,3.52,1.346
	c0.104,0.207,0.104,0.207,0,0.518c0,0.207-0.104,0.311-0.104,0.414s0,0.207-0.104,0.414c0,0.207,0,0.414-0.104,0.518
	c0,0.104-0.104,0.311-0.104,0.414c0,0.518-0.104,1.139-0.207,1.242c0,0.104,0,0.207,0,0.207c0,0.104-0.104,1.346-0.207,1.553
	c0,0.104,0,0.311-0.104,0.621c0,0.311,0,0.621-0.104,0.828c-0.104,0.621,0,2.796,0.104,3.21c0,0.207,0,0.207,0.104,0.104
	s0.311-0.311,0.518-0.518c0.207-0.311,0.414-0.518,0.414-0.518s0.104-0.207,0.311-0.311c0.207-0.311,0.621-0.828,0.932-1.45
	c0.104-0.104,0.207-0.311,0.311-0.518c0.207-0.311,0.414-0.725,0.828-1.346c0.311-0.518,0.311-0.725,0.311-0.932
	C87.324,28.79,87.324,28.272,87.324,27.858z"/>
<path fill="#A1CE54" d="M69.825,16.158c4.97-0.104,9.733-1.139,14.496-2.381c0.621-0.207,1.242-0.207,1.864-0.311
	c0.518-0.104,0.828-0.104,1.035,0.414s-0.104,0.932-0.621,1.139c-1.76,0.932-3.624,1.242-5.591,1.553
	c-5.281,0.932-10.561,1.242-15.945,1.035c-3.21-0.104-6.42-0.725-9.422-1.76C60.403,16.261,65.166,16.365,69.825,16.158z"/>
<path fill="#FFFFFF" d="M77.902,28.583c-0.104-0.311-0.207-0.518-0.207-0.725c0-0.104-0.104-0.207-0.104-0.311
	s-0.104-0.311-0.104-0.414s-0.104-0.414-0.207-0.518c-0.104-0.207-0.207-0.311-0.207-0.311c0-0.104-0.104-0.207-0.207-0.414
	c-0.311-0.518-0.725-0.828-1.243-1.035c-0.828-0.414-1.45-0.518-2.174-0.414c-0.518,0-0.518,0-0.828,0.207
	c-0.207,0.104-0.311,0.207-0.414,0.311c-0.104,0.207-0.518,1.035-0.828,1.657c-0.104,0.311-0.207,0.621-0.311,0.725
	c-0.104,0.414-0.725,1.864-0.828,2.278c-0.311,0.932-0.725,2.692-0.932,3.728c0,0.207,0,0.104-0.104-0.828
	c0-0.518-0.104-1.242-0.104-1.553c0-0.311-0.104-1.553-0.207-2.796l-0.104-2.174l-0.207-0.207c-0.207-0.311-0.518-0.518-0.932-0.621
	c-0.828-0.311-1.864-0.311-2.381-0.104c-0.311,0.207-0.414,0.414-0.518,0.518c0,0.104,0,1.243,0.207,3.935
	c0,0.828,0.104,1.657,0.104,1.76c0,0.207,0.207,3.106,0.207,3.417c0,0.104,0.104,0.311,0.104,0.414c0,0.311,0.207,3.003,0.207,3.52
	c0,0.207,0.104,0.828,0.104,1.243c0.104,0.518,0.104,0.932,0.104,0.932c0,0.311,0.104,1.139,0.104,1.346c0,0.104,0,0.207,0,0.311
	c-0.104,0.621,1.035,1.346,2.485,1.45c0.311,0,0.828,0,1.139-0.104c0.104,0,0.207-0.104,0.311-0.207l0.104-0.207l-0.104-0.932
	c0-1.139-0.104-1.657,0-2.589v-0.313l0.311,0.104c0.311,0.104,1.035,0.311,1.657,0.311c0.414,0,0.621,0,1.346-0.104
	c0.518-0.104,1.139-0.207,1.243-0.207c0.725-0.207,1.346-0.621,1.76-1.139c0.311-0.311,0.621-0.725,0.621-0.828
	s0.207-0.414,0.207-0.311c0.104-0.104,0.104-0.207,0.104-0.207c0-0.104,0-0.311,0.104-0.414c0.104-0.104,0.104-0.311,0.104-0.311
	c0-0.104,0.104-0.104,0.104-0.207c0,0,0.104-0.207,0.104-0.311c0-0.207,0.104-0.311,0.104-0.414
	c0.104-0.104,0.311-0.725,0.311-0.932c0-0.311,0.207-1.243,0.207-1.346c0.104-0.207,0.104-0.414,0.104-0.725
	c0-0.207,0-0.621,0-0.932C78.212,30.653,78.005,28.997,77.902,28.583z M74.071,32.828c0,0.104-0.104,0.414-0.104,0.621
	s-0.104,0.518-0.207,0.725c-0.104,0.207-0.104,0.414-0.104,0.414c0,0.104,0,0.207-0.207,0.311c-0.104,0.104-0.104,0.311-0.207,0.518
	c0,0.104-0.104,0.414-0.207,0.518c-0.104,0.104-0.104,0.311-0.207,0.414c0,0.104-0.104,0.207-0.207,0.311
	c-0.104,0.104-0.104,0.207-0.104,0.207c0,0.104-0.518,0.725-0.621,0.725c0,0-0.104,0.104-0.207,0.207
	c-0.104,0.104-0.311,0.207-0.414,0.207c-0.207,0-0.311,0.104-0.414,0.104c-0.104,0.104-0.725,0.207-0.725,0.311
	c0-0.104,0-0.828,0.104-1.035c0.104-0.104,0.104-0.311,0.104-0.414c0-0.207,0.104-0.518,0.104-0.828
	c0-0.311,0.104-0.621,0.104-0.725c0.104-0.621,0.414-2.071,0.518-2.381c0,0,0.104-0.311,0.104-0.414
	c0-0.207,0.104-0.311,0.104-0.414c0.207-0.518,0.207-0.725,0.207-0.725s0.104-0.207,0.207-0.414
	c0.104-0.207,0.207-0.518,0.207-0.518c0-0.104,0-0.104,0-0.104s0-0.104,0.104-0.311c0.104-0.311,0.414-0.932,0.621-1.45
	c0-0.104,0.207-0.414,0.207-0.518c0.104,0,0.207-0.207,0.311-0.414c0-0.207,0.207-0.311,0.207-0.414
	c0-0.104,0.104-0.207,0.207-0.311c0.104-0.207,0.104-0.207,0.104-0.104v0.104c0.104,0.207,0.207,0.518,0.207,1.035
	c0,0.104,0.104,0.414,0.104,0.518c0.104,0.207,0.207,1.657,0.207,1.76c0,0.104,0,0.311,0,0.621
	C74.278,31.792,74.174,32.517,74.071,32.828z"/>
<path fill="#FFFFFF" d="M63.509,25.994c-0.104-0.311-0.207-0.518-0.207-0.725c0-0.104-0.104-0.207-0.104-0.311
	s-0.104-0.311-0.104-0.414c0-0.104-0.104-0.414-0.207-0.518c-0.104-0.207-0.207-0.311-0.207-0.311c0-0.104-0.104-0.207-0.207-0.414
	c-0.311-0.518-0.725-0.828-1.243-1.035c-0.828-0.414-1.45-0.518-2.174-0.414c-0.518,0-0.518,0-0.828,0.207
	c-0.207,0.104-0.311,0.207-0.414,0.311c-0.104,0.207-0.518,1.035-0.828,1.657c-0.104,0.311-0.207,0.621-0.311,0.725
	c-0.104,0.414-0.725,1.864-0.828,2.278c-0.311,0.932-0.725,2.692-0.932,3.727c0,0.207,0,0.104-0.104-0.828
	c0-0.518-0.104-1.243-0.104-1.553s-0.104-1.553-0.207-2.796l-0.104-2.174l-0.207-0.207c-0.207-0.311-0.518-0.518-0.932-0.621
	c-0.828-0.311-1.864-0.311-2.381-0.104c-0.311,0.207-0.414,0.414-0.518,0.518c0,0.207,0,1.243,0.104,4.142
	c0,0.828,0.104,1.657,0.104,1.76c0,0.207,0.207,3.106,0.207,3.417c0,0.104,0.104,0.311,0.104,0.414c0,0.311,0.207,3.003,0.207,3.52
	c0,0.207,0.104,0.828,0.104,1.243c0.104,0.518,0.104,0.932,0.104,0.932c0,0.311,0.104,1.139,0.104,1.346c0,0.104,0,0.207,0,0.311
	c-0.104,0.621,1.035,1.346,2.485,1.45c0.311,0,0.828,0,1.139-0.104c0.104,0,0.207-0.104,0.311-0.207l0.104-0.207l-0.104-0.932
	c-0.104-1.139-0.104-1.657,0-2.589v-0.311l0.311,0.104c0.311,0.104,1.035,0.311,1.657,0.311c0.414,0,0.621,0,1.346-0.104
	c0.518-0.104,1.139-0.207,1.243-0.207c0.725-0.207,1.346-0.621,1.76-1.139c0.311-0.311,0.621-0.828,0.621-0.828
	s0.207-0.414,0.311-0.518s0.104-0.207,0.104-0.207c0-0.104,0-0.311,0.104-0.414c0.104-0.104,0.104-0.311,0.104-0.311
	c0-0.104,0.104-0.104,0.104-0.207c0,0,0.104-0.207,0.104-0.311c0-0.207,0.104-0.311,0.104-0.414
	c0.104-0.104,0.311-0.725,0.311-0.932c0-0.311,0.207-1.243,0.207-1.346c0.104-0.207,0.104-0.414,0.104-0.725
	c0-0.207,0-0.621,0-0.932C63.82,28.065,63.613,26.408,63.509,25.994z M59.575,30.343c0,0.104-0.104,0.414-0.104,0.621
	s-0.104,0.518-0.207,0.725c-0.104,0.207-0.104,0.414-0.104,0.414s0,0.104-0.104,0.207c-0.104,0.104-0.104,0.311-0.207,0.518
	c0,0.104-0.104,0.414-0.207,0.518c-0.104,0.104-0.104,0.311-0.207,0.414c0,0.104-0.104,0.207-0.207,0.311
	c-0.104,0.104-0.104,0.207-0.104,0.207c0,0.104-0.518,0.725-0.621,0.725c0,0-0.104,0.104-0.207,0.207
	c-0.104,0.104-0.311,0.207-0.414,0.207c-0.207,0-0.311,0.104-0.414,0.104c-0.207,0.104-0.828,0.207-0.932,0.311
	c0-0.104,0-0.828,0.104-1.035c0.104-0.104,0.104-0.311,0.104-0.414c0-0.207,0.104-0.518,0.104-0.828
	c0-0.311,0.104-0.621,0.104-0.725c0.104-0.621,0.414-2.071,0.518-2.381c0,0,0.104-0.311,0.104-0.414
	c0-0.207,0.104-0.311,0.104-0.414c0.207-0.518,0.207-0.725,0.207-0.725s0.104-0.207,0.207-0.414s0.207-0.518,0.207-0.518
	c0-0.104,0-0.104,0-0.104s0-0.104,0.104-0.311c0.104-0.311,0.414-0.932,0.621-1.45c0-0.104,0.207-0.414,0.207-0.518
	c0.104,0,0.207-0.207,0.311-0.414c0-0.207,0.104-0.311,0.207-0.414c0-0.104,0.104-0.207,0.207-0.311
	c0.104-0.207,0.104-0.207,0.104-0.104c0,0,0,0.104,0.104,0.207c0.104,0.207,0.207,0.518,0.207,1.035
	c0,0.104,0.104,0.414,0.104,0.518c0.104,0.207,0.207,1.657,0.207,1.76c0,0.104,0,0.311,0,0.621
	C59.782,29.307,59.678,30.032,59.575,30.343z"/>
<path fill="#FFFFFF" d="M19.608,76.522c-3.624-6.523-6.627-13.046-6.212-20.501c0-0.104,0-0.207,0-0.311
	c0.207-0.621,0.104-1.553,1.139-1.45c1.035,0.104,0.932,0.828,0.932,1.553c0.104,3.831,0.414,7.662,1.553,11.389
	c0.828,2.485,1.553,5.074,2.381,7.558C19.608,75.176,19.815,75.694,19.608,76.522z"/>
<path fill="#FFFFFF" d="M21.575,19.264c-1.657,2.485-3.003,5.074-4.142,7.869c-2.381,6.109-3.106,12.425-2.899,18.844
	c0,0.725,0.621,1.967-0.621,2.174c-1.45,0.207-1.139-1.242-1.346-1.967c-0.414-2.278-0.621-4.556-0.518-6.005
	c0-8.594,2.174-15.635,6.005-22.158c0.311-0.621,0.621-1.346,1.346-1.45c0.828-0.104,1.553-0.104,2.174,0.621
	C22.197,17.918,21.99,18.539,21.575,19.264z"/>
<path fill="#FFFFFF" d="M21.472,13.88c0-1.45,1.242-2.796,2.485-2.899c1.346,0,1.657,0.932,1.76,1.864
	c0,1.553-1.242,2.899-2.692,2.899C21.886,15.743,21.575,14.915,21.472,13.88z"/>
<path fill="#FFFFFF" d="M38.349,44.114c0,0.207,0,0.311-0.104,0.414c-0.207,0.311-0.725,0.518-1.553,0.621
	c-1.035,0.104-2.071-0.207-2.381-0.621c0-0.104-0.104-0.311-0.104-0.518s0-0.414,0-0.518c0,0-0.104-0.932-0.207-2.071l-0.104-1.967
	l-0.413,0.104c-0.207,0-0.828,0.104-1.346,0.207c-0.518,0.103-1.242,0.207-1.553,0.311s-0.621,0.104-0.621,0.104
	s-0.207,0-0.414,0.104c-0.311,0-0.311,0-0.311,0.104s0,0.311,0,0.621c0.104,0.311,0.104,0.518,0,0.621c0,0,0,0.828,0.104,1.76
	c0.104,2.278,0.207,2.174-0.104,2.381c-0.311,0.311-0.518,0.414-0.932,0.414c-0.207,0-0.518,0-0.518,0
	c-0.621-0.104-1.242-0.311-1.657-0.725c-0.311-0.311-0.518-0.518-0.621-0.828c0-0.207-0.104-1.035-0.311-3.624
	c0-0.725-0.104-1.45-0.104-1.553c0-0.207,0-0.621-0.104-1.553c0-0.414,0-0.828-0.104-0.932c0-0.104,0-0.414-0.104-1.139
	c0-0.311-0.104-0.725-0.104-0.828c0-0.104,0-0.828-0.104-1.553c0-0.725-0.104-2.174-0.207-3.003
	c-0.207-2.485-0.207-2.796-0.104-2.899c0-0.104,0.104-0.207,0.207-0.207c0.207-0.104,0.828-0.207,1.242-0.207
	c0.932,0.104,1.967,0.518,2.278,1.035c0.104,0.207,0.207,0.311,0.311,2.381c0,0.518,0.104,1.242,0.104,1.553
	c0,0.311,0,0.621,0,0.725s0.104,1.346,0.207,2.692c0.104,1.346,0.207,2.589,0.207,2.796s0,0.311,0,0.414c0,0,0.518,0,1.553-0.104
	c0.828-0.104,1.864-0.207,2.278-0.207l0.828-0.104l-0.104-1.864c-0.104-1.035-0.207-3.003-0.311-4.452
	c-0.104-1.45-0.207-2.692-0.207-2.796s0-0.311-0.104-0.414c0-0.518-0.104-1.553,0-1.657c0.311-0.725,2.071-1.035,3.21-0.518
	c0.621,0.207,0.725,0.414,0.828,1.242c0,0.311,0,0.518,0,0.621c0.104,1.035,0.207,3.52,0.311,4.452c0,0.518,0.311,4.452,0.311,4.97
	c0,0.104,0,0.207,0,0.311s0.104,1.139,0.104,2.174c0.104,1.76,0.207,2.796,0.207,3.106C38.349,43.803,38.349,43.803,38.349,44.114z"
	/>
<path fill="#FFFFFF" d="M50.36,46.392c0-0.207-0.104-1.864-0.207-3.003c-0.104-0.725-0.207-2.692-0.207-3.21
	c-0.104-1.243-0.207-3.106-0.311-3.52c-0.104-0.414-0.104-0.621-0.311-1.864c-0.104-0.207-0.104-0.621-0.207-0.932
	s-0.207-0.725-0.207-0.932s-0.104-0.414-0.104-0.414c-0.104,0-0.104-0.207-0.104-0.311s-0.104-0.518-0.207-0.932
	c-0.104-0.311-0.311-0.725-0.311-0.828c-0.104-0.104-0.104-0.207-0.207-0.311c0-0.104-0.207-0.311-0.311-0.518
	c-0.207-0.414-0.621-0.828-1.035-1.139c-0.309-0.31-1.241-0.62-2.173-0.724c-1.243-0.104-1.864,0.104-2.278,1.035
	c-0.104,0.104-0.207,0.207-0.311,0.414c-0.311,0.414-0.725,1.346-1.139,2.589c0,0.207-0.104,0.414-0.104,0.414
	s-0.104,0.311-0.207,0.621c-0.104,0.518-0.207,0.621-0.311,1.035c0,0.207-0.207,0.828-0.207,0.932s0,0.207,0,0.311
	c-0.104,0.311,0,0.414-0.104,0.828c-0.104,0.207-0.104,0.621-0.104,0.932s0,0.621,0,0.621c-0.104,0.104-0.104,0.311-0.104,0.518
	s0,0.518,0,0.518c0,0.207,0,1.035,0,1.346s0,0.621,0,1.139c0,0.311,0,0.621,0,1.139c-0.104,0.414-0.104,1.76-0.104,2.381
	c0,0.207,0.104,0.828,0.104,1.45l0.104,1.243l0.104,0.104c0.311,0.311,1.139,0.414,1.243,0.104c0-0.104,0-0.311,0-0.725
	c0-0.311,0-0.828,0-1.139s0-0.621,0-0.725s0-0.104,0.104-0.104c0,0,0.621-0.104,1.243-0.104c1.035-0.104,1.553-0.207,2.071-0.311
	c0.104,0,0.311-0.104,0.414-0.104c0.207,0,0.414-0.104,0.518-0.104s0.311-0.104,0.414-0.104c0.207,0,0.207,0,0.207,0.104
	c-0.104,0.104,0,0.311,0,0.414c0.104,0.104,0.104,0.414,0.104,0.725c0,0.932,0.104,1.243,0.207,1.45
	c0.311,0.414,1.243,0.932,2.278,0.725c0.311,0,1.035,0,1.243-0.104C50.256,47.22,50.463,46.806,50.36,46.392z M46.011,42.768
	L45.7,42.871c-0.207,0-0.828,0.104-1.346,0.104c-1.035,0.104-2.174,0.207-2.589,0.311c-0.725,0.207-0.725,0.207-0.725,0
	c0-0.104,0-0.725-0.104-2.278c-0.104-0.414-0.104-0.932-0.104-1.139s0-0.518,0-0.725c0-0.414,0.104-2.174,0.104-2.381
	c0-0.104,0-0.207,0-0.311c0.104-0.518,0.414-2.071,0.725-3.106c0.311-0.932,0.621-1.76,1.139-2.381
	c0.104-0.207,0.725-0.725,0.932-0.932c0.104-0.104,0.104-0.104,0.207,0c0,0,0.104,0.207,0.104,0.311s0.104,0.207,0.104,0.207
	c0.104,0,0.104,0,0.104,0.104c0,0,0,0.207,0.104,0.311c0.207,0.414,0.207,0.621,0.311,1.139c0.104,0.414,0.207,1.035,0.311,1.243
	c0,0.104,0.104,0.311,0.104,0.414c0.104,0.104,0.104,0.311,0.104,0.414c0,0.104,0.104,0.311,0.104,0.518s0,0.621,0.104,0.932
	c0.104,0.414,0.104,0.725,0.104,0.828c0.104,0.104,0.104,0.207,0.104,0.311c0,0.207,0.311,3.728,0.311,4.245
	c0,0.207,0,0.311,0,0.414c0,0,0,0.207,0,0.414s0,0.518,0.104,0.621v0.309H46.011z"/>
<path fill="#FFFFFF" d="M58.436,72.587c-0.311,0-1.035,0.207-1.553,0.311c-0.621,0.104-1.657,0.311-2.899,0.518
	c-1.035,0.207-2.381,0.414-2.899,0.414l-0.932,0.104l-0.207-0.104c-0.311-0.207-0.725-0.828-0.621-0.932v-0.104
	c0-0.104-0.104-0.518-0.207-1.035c-0.104-0.518-0.104-1.035-0.207-1.346c-0.104-0.621-0.518-3.52-0.621-4.763
	c-0.104-0.828-0.414-3.21-0.518-4.038c0-0.104-0.104-0.725-0.207-1.553c-0.104-0.828-0.207-1.864-0.311-2.381
	c-0.207-1.45-0.104-1.967,0.311-2.485l0.104-0.207l3.624-0.414c1.967-0.207,4.038-0.414,4.452-0.518
	c0.932-0.104,0.932-0.104,1.346,0.207c0.621,0.414,0.414,0.828-0.414,0.725c-0.104,0-0.311,0-0.311,0
	c-0.725,0.104-1.242,0.311-2.174,0.414c-0.621,0.104-1.139,0.207-1.242,0.207s-0.725,0.104-1.346,0.207
	c-0.621,0.104-1.139,0.207-1.242,0.207c0,0,0,0.104,0.104,0.207c0.207,0.311,0.311,0.621,0.518,1.967s0.207,1.553,0.518,4.349
	c0.104,1.035,0.207,2.071,0.311,2.174c0,0.207,0.104,0.621,0.104,0.932l0.104,0.621l1.035-0.104
	c1.864-0.207,2.589-0.311,2.796-0.207c0.725,0.104,1.242,0.621,1.139,0.932c0,0.104-0.104,0.104-0.621,0.207
	c-0.207,0-0.518,0.104-0.725,0.104c-0.311,0.104-1.45,0.414-1.657,0.414c0,0-0.414,0.104-0.932,0.104l-0.828,0.207v0.207
	c0.104,1.035,0.207,1.553,0.311,2.174c0.104,0.414,0.104,0.828,0.207,1.035v0.311h0.207c0.104,0,1.035-0.104,1.967-0.311
	c0.932-0.104,1.864-0.311,2.071-0.311c0.414-0.104,0.725-0.104,1.242,0.104c0.621,0.207,1.035,0.518,1.035,0.828
	C59.161,72.38,59.057,72.484,58.436,72.587z"/>
<path fill="#FFFFFF" d="M70.343,59.024c0-0.207,0-0.621,0-0.932s0-0.725,0-0.932s0-0.414,0-0.414s0-0.207,0-0.311
	c0-0.207,0-0.621-0.104-1.035s-0.207-0.828-0.207-0.932c0-0.207,0-0.311-0.104-0.414c0-0.104-0.104-0.414-0.207-0.621
	c-0.104-0.414-0.518-0.828-0.828-1.243c-0.311-0.311-1.139-0.828-2.071-1.035c-1.139-0.311-1.76-0.104-2.381,0.725
	c0,0-0.207,0.207-0.311,0.311c-0.414,0.311-0.932,1.243-1.553,2.381c-0.104,0.207-0.207,0.414-0.207,0.414
	c0,0.104-0.207,0.311-0.311,0.621c-0.207,0.414-0.311,0.621-0.414,0.932c-0.104,0.207-0.414,0.828-0.414,0.932
	s-0.104,0.207-0.104,0.311c-0.104,0.311-0.104,0.311-0.207,0.725c-0.104,0.207-0.207,0.621-0.207,0.932s-0.104,0.621-0.104,0.621
	s-0.104,0.207-0.104,0.414c-0.104,0.207-0.104,0.518-0.104,0.518c0,0.207-0.104,0.932-0.207,1.243
	c-0.104,0.311-0.104,0.621-0.207,1.139c-0.104,0.311-0.104,0.621-0.207,1.139c-0.104,0.518-0.311,1.76-0.414,2.381
	c0,0.207-0.104,0.828-0.104,1.45l-0.104,1.139l0.104,0.104c0.311,0.414,1.035,0.621,1.243,0.311c0,0,0.104-0.207,0.104-0.621
	c0-0.311,0.104-0.828,0.104-1.139c0.104-0.311,0.104-0.621,0.104-0.725s0-0.104,0.104-0.104c0,0,0.621,0.104,1.243,0.104
	c1.035,0,1.553,0,2.071,0c0.104,0,0.311,0,0.414,0c0.207,0,0.414,0,0.518,0s0.311,0,0.414,0c0.207,0.104,0.207,0.104,0.207,0.207
	c0,0.104,0,0.311,0,0.414c-0.104,0.104-0.104,0.414-0.104,0.725c-0.104,0.932-0.104,1.243,0,1.45
	c0.207,0.518,1.035,1.139,2.071,1.346c0.311,0.104,1.035,0.104,1.243,0.104c0.414-0.104,0.725-0.414,0.621-0.828
	c0-0.207,0.104-1.864,0.207-3.003c0.104-0.725,0.311-2.692,0.311-3.21c0.104-1.243,0.207-3.106,0.207-3.52
	C70.447,60.68,70.343,60.37,70.343,59.024z M66.409,57.367c0,0.207,0,0.311,0,0.414c0,0.104,0,0.311,0,0.518s0,0.621,0,0.932
	c0,0.414,0,0.725,0,0.828c0,0.104,0,0.207,0,0.311c0,0.207-0.207,3.727-0.311,4.245c0,0.207,0,0.311,0,0.414
	c0.104,0,0,0.207,0,0.414s-0.104,0.518-0.104,0.725v0.311h-0.311c-0.207,0-0.828-0.104-1.346-0.104c-1.035,0-2.174,0-2.589,0
	c-0.725,0.104-0.725,0.104-0.725-0.104c0.104-0.104,0.104-0.725,0.311-2.278c0-0.414,0.104-0.932,0.104-1.139
	s0.104-0.518,0.104-0.725c0-0.518,0.311-2.174,0.414-2.381c0-0.104,0-0.207,0-0.311c0.104-0.414,0.621-1.864,1.139-2.899
	c0.414-0.828,0.828-1.657,1.45-2.174c0.207-0.207,0.932-0.725,1.139-0.828c0.104-0.104,0.104-0.104,0.207,0
	c0.104,0.104,0.104,0.311,0.104,0.414c0.104,0.104,0.104,0.207,0.104,0.207s0,0,0,0.104c0,0,0.104,0.207,0.104,0.311
	c0.104,0.414,0.104,0.621,0.104,1.139c0,0.414,0.104,1.035,0.104,1.242C66.409,57.056,66.409,57.263,66.409,57.367z"/>
<path fill="#FFFFFF" d="M81.422,62.958c-0.104,0.621-0.518,1.76-0.621,2.071c-0.311,0.725-0.828,1.139-1.346,1.035
	c-0.207,0-0.518-0.104-0.621-0.311c-0.104-0.104-0.104-0.518,0.207-1.242c0.104-0.207,0.311-0.932,0.311-1.139
	c0-0.104,0.104-0.311,0.104-0.414c0-0.104,0.104-0.311,0.104-0.518s0.104-0.414,0.104-0.518s0.104-0.518,0.104-0.932
	c0-0.828,0-1.242-0.311-2.071c-0.104-0.207-0.311-0.621-0.311-0.725c-0.104-0.104-0.311,0.104-0.518,0.311
	c-0.311,0.311-0.828,0.932-0.828,0.932c0,0.104-0.104,0.104-0.207,0.311c-0.104,0.104-0.104,0.207-0.104,0.207
	s-0.104,0.104-0.104,0.207c-0.207,0.311-0.207,0.311-0.621,1.139c-0.104,0.104-0.104,0.311-0.104,0.311s0,0.104-0.104,0.207
	s-0.207,0.518-0.311,0.932c0,0.104-0.104,0.311-0.104,0.414s-0.104,0.207-0.104,0.311s0,0.207-0.104,0.207
	c0,0-0.104,0.207-0.104,0.311s0,0.414-0.104,0.518c0,0.414,0,0.932,0,1.346c0,0.311,0.104,0.414,0.311,0.932l0.311,0.621
	l0.725,0.621c2.692,2.589,2.485,2.485,2.899,3.313c0.207,0.414,0.207,1.242,0,1.45c-0.104,0-0.104,0.104-0.104,0.207
	s-0.518,0.725-0.828,0.932c-0.311,0.207-1.035,0.518-1.657,0.621c-0.621,0.104-1.139,0.104-1.76,0.104
	c-1.139-0.207-1.553-0.414-2.589-1.346c-0.414-0.414-0.621-0.828-0.621-1.139c0-0.104,0.207-0.311,0.311-0.311
	c0.311,0,0.621,0.207,0.932,0.621c0.104,0.207,0.621,0.621,0.828,0.725c0.104,0,0.932-0.104,1.035-0.104
	c0.104-0.104,0.518-0.414,0.518-0.518c0.104-0.207,0.207-0.518,0.207-0.725c0-0.104-0.104-0.311-0.104-0.518
	c0-0.414-0.104-0.518-0.518-0.932c-0.207-0.207-0.518-0.518-0.725-0.725s-0.518-0.518-0.621-0.518
	c-0.104-0.104-0.311-0.207-0.414-0.414c-0.104-0.104-0.311-0.414-0.518-0.518c-0.725-0.828-1.035-1.242-1.346-2.071
	c-0.104-0.207-0.104-0.414-0.207-0.414c-0.104-0.207-0.207-1.346-0.104-1.76c0-0.104,0.104-0.311,0.104-0.518
	c0-0.104,0.104-0.207,0.104-0.311s0.104-0.207,0.104-0.414c0.104-0.311,0.104-0.311,0.311-1.035
	c0.104-0.207,0.104-0.414,0.104-0.518s0-0.104,0-0.104v-0.104c0-0.104,0.104-0.104,0.104-0.207c0.104-0.104,0.104-0.207,0.207-0.414
	c0.104-0.104,0.104-0.311,0.104-0.311c0-0.104,0.104-0.104,0.104-0.104s0-0.104,0.104-0.104c0,0,0.104-0.104,0.104-0.207
	c0.104-0.104,0.104-0.311,0.207-0.414s0.207-0.311,0.207-0.311c0-0.104,0.104-0.207,0.104-0.207c0.104,0,0.104-0.104,0.104-0.104
	s0.311-0.518,0.621-0.725c0,0,0.104-0.207,0.311-0.311c0.104-0.207,0.207-0.311,0.311-0.311s0.104-0.104,0.311-0.207
	c0.311-0.311,0.932-0.621,1.346-0.725c0.207-0.104,0.414-0.104,1.035-0.104c0.725,0,1.035,0.104,1.76,0.311
	c0.621,0.207,1.45,0.725,1.553,1.035c0,0.104,0.104,0.207,0.207,0.311c0.207,0.311,0.311,0.828,0.518,1.45
	C81.733,59.852,81.629,62.026,81.422,62.958z"/>
<path fill="#FFFFFF" d="M87.842,54.985c0.104,0.104,0.104,0.207,0.207,1.035c0.104,0.518,0.207,1.035,0.104,1.139
	c0,0.207,0.207,1.553,0.414,3.003c0.104,0.518,0.104,0.932,0.104,1.035s0,0.621,0.104,1.242c0.104,0.621,0.207,1.45,0.207,1.76
	c0.104,0.414,0.104,1.035,0.207,1.346c0,0.311,0.104,0.932,0.104,1.242c0.104,1.139,0.311,2.589,0.518,4.245
	c0,0.518,0.104,1.035,0.104,1.139c0,0.207-0.207,0.414-0.414,0.518s-0.828,0.207-1.242,0.207c-1.035,0-2.174-0.414-2.381-0.828
	c-0.104-0.207-0.414-2.381-0.518-3.21c-0.104-0.621-0.207-1.553-0.311-2.381c-0.207-1.035-0.414-2.899-0.414-3.106
	s-0.207-1.45-0.207-1.553c-0.104-0.207-0.104-0.311-0.104-0.932c0-0.311-0.104-0.828-0.104-1.035
	c-0.104-0.621-0.311-2.071-0.414-3.21c0-0.414-0.104-0.828-0.104-0.932c0,0-0.207,0-1.139,0.104
	c-0.828,0.104-1.242,0.207-1.45,0.104c-0.828,0-1.346-0.311-1.139-0.725c0-0.104,0.207-0.207,0.414-0.207
	c0.414-0.104,0.621-0.207,3.417-0.828c0.518-0.104,2.174-0.414,3.624-0.621c2.899-0.518,2.899-0.414,3.417-0.311
	c0.518,0.207,0.621,0.414,0.414,0.621c-0.104,0.104-0.311,0.207-1.035,0.311c-0.414,0.104-0.828,0.207-1.139,0.311
	c-0.207,0.104-0.518,0.104-0.621,0.207c-0.414,0.104-0.932,0.207-1.035,0.207C87.738,54.778,87.738,54.882,87.842,54.985z"/>
<path fill="#A1CE54" d="M111.967,85.841c-6.937,0.311-13.874,0.207-19.88-4.038c-0.207-0.207-0.621-0.311-0.621-0.828
	c0.932-0.207,1.657,0.207,2.381,0.518c4.142,1.76,8.49,2.485,12.943,2.278c1.657-0.104,3.313,0,5.074,0
	c0.621,0,1.242,0.311,1.242,0.932C113.209,85.426,112.691,85.841,111.967,85.841z"/>
<path fill="#FFFFFF" d="M121.596,56.124c-0.104-0.207-0.518-0.725-0.725-1.035c-0.207-0.311-0.828-0.725-1.139-0.932
	c-0.207-0.104-0.518-0.207-0.725-0.311c-0.311-0.104-0.414-0.207-0.828-0.207h-0.518l-0.311,0.207
	c-0.414,0.104-1.035,0.725-1.45,1.035c-0.621,0.518-1.139,1.139-1.657,2.071c-0.311,0.518-0.725,1.139-0.828,1.346
	c-0.104,0.207-0.207,0.414-0.311,0.518c-0.311,0.518-1.243,2.381-1.553,3.106c-0.311,0.725-1.035,2.381-1.243,3.003
	c0,0.104-0.104,0.207-0.207,0.207h-0.104l0.104-0.621c0.104-0.311,0.104-0.725,0.104-0.828c0-0.104,0-0.207,0-0.414
	s0.104-0.414,0.104-0.621c0-0.104,0.104-0.932,0.207-1.76c0.104-0.828,0.207-1.864,0.311-2.381c0-0.414,0.207-1.139,0.207-1.657
	c0-0.414,0.104-1.243,0.207-1.76l0.104-0.932l-0.207-0.311c-0.311-0.621-0.828-1.035-1.553-1.346s-1.45-0.311-1.864,0.104
	l-0.207,0.207l-0.104,0.311c0,0.207-0.104,0.518-0.104,0.725c-0.104,0.932-0.311,3.003-0.518,4.452c0,0.104,0,0.311,0,0.518
	s0,0.621-0.104,0.932s-0.104,0.621-0.104,0.725c-0.104,0.621-0.104,0.932-0.207,1.346c0,0.311-0.104,1.035-0.207,1.76
	c-0.104,0.725-0.207,1.76-0.311,2.485c-0.207,1.346-0.311,2.071-0.414,3.21c-0.104,0.621-0.104,0.725,0,0.932
	c0.207,0.518,0.932,1.035,1.864,1.346c0.414,0.104,1.139,0.207,1.45,0.104c0.311-0.104,0.518-0.311,0.518-0.414
	c0,0,0-0.104,0.104-0.207c0.104-0.207,0.518-1.139,0.621-1.45c0.207-0.621,0.518-1.45,0.621-1.45c0,0,0.104,0.207,0.207,0.414
	c0.207,0.518,0.518,1.035,1.035,1.657c0.932,1.139,1.967,1.76,3.003,1.864c0.207,0,0.518,0,0.621,0
	c0.518-0.104,1.243-0.621,1.967-1.45c1.035-1.139,1.553-2.071,1.553-2.381c0-0.104-0.104-0.207-0.104-0.207
	c-0.104,0-0.311,0.207-0.518,0.518c-0.414,0.518-1.139,1.346-1.553,1.657c-0.311,0.207-0.932,0.518-1.139,0.621
	c-0.104,0-0.311,0.104-0.414,0.104h-0.207l-0.207-0.311c-0.414-0.518-1.035-1.657-1.035-1.76c0,0,0-0.104-0.104-0.311
	c-0.104-0.104-0.104-0.311-0.207-0.414c0,0-0.104-0.311-0.311-0.518c-0.207-0.311-0.311-0.518-0.311-0.518
	c0-0.104,0.104-0.104,0.207-0.104s0.311-0.104,0.518-0.104c0.207-0.104,0.311-0.104,0.414-0.104c0.104,0,0.621-0.104,0.828-0.207
	c0.104,0,0.414-0.104,0.621-0.207c0.828-0.207,1.76-0.828,2.589-1.657c0.207-0.207,0.414-0.311,0.414-0.414
	c0.104-0.207,0.311-0.518,0.518-0.725c0.104-0.104,0.207-0.207,0.207-0.207s0-0.104,0.104-0.207c0.104,0,0.207-0.207,0.207-0.207
	c0-0.104,0-0.104,0.104-0.104c0.104-0.104,0.311-0.414,0.311-0.518s0.104-0.104,0.104-0.207c0.104-0.104,0.104-0.104,0.104-0.207
	c0,0,0.104-0.207,0.207-0.311c0.104-0.104,0.207-0.311,0.207-0.311v-0.104c0,0,0.104-0.207,0.207-0.414
	c0.104-0.104,0.207-0.311,0.207-0.414c0-0.104,0-0.207,0.104-0.311c0-0.104,0.104-0.207,0.104-0.311s0.104-0.311,0.104-0.518
	s0.104-0.414,0.104-0.518C121.596,57.885,121.699,56.539,121.596,56.124z M117.765,55.4c0,0.311-0.104,1.76-0.207,1.864
	c0,0.104-0.207,0.725-0.207,0.932c-0.104,0.104-0.104,0.207-0.104,0.207c-0.104,0-0.311,0.518-0.311,0.621
	c0,0.104-0.104,0.104-0.104,0.207c0,0-0.104,0.104-0.104,0.207c-0.104,0.207-0.207,0.414-0.311,0.518c0,0-0.104,0.104-0.104,0.207
	c-0.104,0.207-0.207,0.414-0.414,0.621c0,0.104-0.104,0.207-0.207,0.311c-0.104,0.104-0.104,0.207-0.207,0.311
	c-0.104,0.104-0.104,0.207-0.104,0.207c0,0.104,0,0.104-0.104,0.207c-0.104,0-0.207,0.104-0.207,0.207s-0.104,0.207-0.104,0.207
	c0,0.104-0.207,0.311-0.414,0.518c-0.104,0.104-1.035,0.932-1.243,1.035c-0.104,0.104-0.207,0.104-0.311,0.207
	c0,0-0.104,0.104-0.207,0.104c0,0-0.104,0.104-0.207,0.104c-0.104,0-0.207,0.104-0.311,0.104c-0.207,0.104-0.207,0.104-0.207,0
	c0.104-0.311,0.725-1.553,0.725-1.657c0,0,0-0.207,0.104-0.311c0-0.104,0.104-0.207,0.104-0.207v-0.104c0,0,0-0.104,0.104-0.207
	c0.104-0.104,0.311-0.414,0.414-0.725c0.104-0.311,0.311-0.518,0.311-0.621s0.104-0.414,0.311-0.725
	c0.725-1.139,1.139-1.864,1.657-2.485c0.311-0.311,1.243-1.243,1.553-1.553l0.414-0.414V55.4H117.765z"/>
<path fill="#A1CE54" d="M135.988,39.351c-0.207,0.828-0.207,1.967-1.45,1.657c-1.139-0.207-1.035-1.242-0.932-2.071
	c0.932-5.902,1.346-11.804-0.725-17.602c-2.692-7.662-7.662-12.736-15.635-14.703c-0.104,0-0.311-0.104-0.414-0.207
	c4.452-0.414,8.283,1.139,11.597,3.935c5.488,4.763,7.869,10.975,8.18,18.12C136.816,32.103,136.713,35.727,135.988,39.351z"/>
<path fill="#F7C24D" d="M179.889,76.522c0.104,1.139-0.207,2.174-0.311,3.313c-0.725,5.488-2.485,10.561-5.798,15.013
	c-4.349,7.248-13.667,10.665-21.64,7.869c-1.242-0.414-2.485-1.346-4.038-0.828c0.518-1.139,0.725-2.485,1.553-3.21
	c1.139-0.932,3.21-0.104,3.831-1.45c0.207-0.311-1.553-1.346-1.242-1.346c0.311-0.104-0.104-0.311-0.104-0.621l2.381,0.725
	c0.828-1.864,0.828-3.727,1.139-5.798c1.139-5.073,1.657-10.147,0.311-15.013c-0.104-0.725-0.311-1.346-0.725-1.967
	c-1.139-0.828-0.518-2.174-1.035-3.21c-0.518-1.139-1.657-1.967-1.864-3.313c-0.311-0.725-0.621-1.45-1.242-1.967
	c0-0.207-0.104-0.414-0.104-0.621c1.45-1.657,2.899-3.417,4.452-5.073c1.139-1.139,2.174-2.381,3.52-3.21l5.488-3.106
	c-2.692-1.45-7.455,2.692-7.455,2.692c-1.346,1.035-2.589,2.071-3.831,3.313c-1.242,1.139-2.381,2.381-3.52,3.624
	c-0.621-0.725-1.346-1.346-1.967-2.071c0.311,0.311,2.381-2.278,2.485-2.485c2.071-2.278,4.452-4.349,7.041-6.005l1.139-0.828
	c1.76-1.035,3.624-1.864,5.591-2.278c3.417-0.828,6.627,0,9.112,2.589c1.346,1.346,2.485,2.796,3.21,4.556
	c1.139,1.864,1.76,4.038,2.278,6.212C179.889,66.893,180.2,71.656,179.889,76.522z"/>
<path fill="#E6435E" d="M156.8,78.8c-0.207-1.242-0.414-2.381-0.828-3.624c-1.035-3.935-2.796-7.558-4.97-10.975
	c-1.76-2.589-4.452-5.591-7.558-6.627c-2.796-1.553-5.488-1.035-8.076,0.725c-1.657,1.242-3.21,2.485-4.142,4.349
	c-2.899,3.727-4.659,7.973-5.591,12.632c0,0.104-0.104,0.311-0.207,0.414c-0.104,0.207-0.104,0.311-0.207,0.518
	c-0.104,0.311-0.207,0.621-0.311,0.932s-0.104,0.621-0.207,1.035c-0.104,0.932-0.104,1.864-0.207,2.796
	c-0.311,4.142,0.311,8.076,1.553,12.011c0.104,0.207,0.207,0.414,0.311,0.621c1.242,2.899,3.106,5.281,5.591,7.144
	c2.381,1.76,4.97,2.485,7.766,2.899c1.45,0.207,3.313-0.104,4.763-0.414c1.967-0.414,4.142-1.657,5.798-2.899
	c2.071-1.346,3.727-3.313,4.659-5.591c0.725-1.657,1.242-3.417,1.553-5.177C157.317,85.944,157.317,82.32,156.8,78.8z
	 M130.19,75.901c-0.311,0.932-0.621,1.967-1.035,2.899c-0.311,0.932-0.725,1.967-1.139,2.899c0-1.035,0-2.071,0.104-3.106
	s0.311-2.071,0.414-3.106c0.414-2.071,0.932-4.142,1.76-6.005c0.725-1.967,1.76-3.831,3.003-5.591
	c0.207-0.311,0.414-0.518,0.621-0.828c1.139-1.45,2.381-2.692,3.935-3.52c-1.346,1.553-2.278,3.417-3.21,5.177
	s-1.657,3.624-2.381,5.488S130.914,74.037,130.19,75.901z M154.729,74.865c-0.104,0.104-0.207,0.104-0.311,0.207
	C154.522,74.969,154.625,74.969,154.729,74.865C154.729,74.865,154.832,74.762,154.729,74.865
	C154.832,74.762,154.729,74.865,154.729,74.865z"/>
</svg>
