<?xml version="1.0" encoding="utf-8"?>
<!-- Generator: Adobe Illustrator 17.0.0, SVG Export Plug-In . SVG Version: 6.00 Build 0)  -->
<!DOCTYPE svg PUBLIC "-//W3C//DTD SVG 1.1//EN" "http://www.w3.org/Graphics/SVG/1.1/DTD/svg11.dtd">
<svg version="1.1" id="Layer_1" xmlns="http://www.w3.org/2000/svg" xmlns:xlink="http://www.w3.org/1999/xlink" x="0px" y="0px"
	 width="180px" height="81.984px" viewBox="10 59.008 180 81.984" enable-background="new 10 59.008 180 81.984"
	 xml:space="preserve">
<path fill="#2593CF" d="M46.942,73.442c-3.023-3.074-6.631-6.391-10.492-8.428c-1.214-0.637-3.266-1.416-4.644-1.01
	c-0.767,0.224-2.511,2.186-3.119,2.721c-1.437,1.259-2.873,2.51-4.309,3.761C38.111,74.81,51.362,82.104,60.03,93.835
	C56.982,86.228,52.726,79.309,46.942,73.442z"/>
<g>
	<path fill="#2593CF" d="M35.454,122.388c-0.706,0.519-1.406,1.055-2.091,1.599c-0.065,0.049-0.085,0.116-0.091,0.184
		c-0.1,0.099-0.149,0.249-0.091,0.391c0.432,1.044,0.826,1.985,1.034,3.057c-0.989-0.574-1.91-1.227-2.769-1.998
		c-0.015-0.009-0.022-0.009-0.029-0.018c-0.122-0.201-0.436-0.302-0.609-0.04c-0.664,0.959-1.452,1.755-2.376,2.419
		c0.317-1.131,0.516-2.31,0.453-3.478c-0.017-0.277-0.406-0.192-0.454,0.026l-0.008-0.001c0.037-0.081,0.038-0.188-0.025-0.27
		c-0.59-0.78-1.254-1.505-1.909-2.23c1.037-0.05,2.04,0.043,3.074,0.33c0.187,0.053,0.445-0.019,0.5-0.229
		c0.303-1.14,0.514-2.287,0.688-3.445c0.666,0.985,1.3,1.991,1.87,3.038c0.154,0.287,0.501,0.253,0.668,0.075h0.191
		c-0.32,0.182-0.166,0.76,0.261,0.686C34.307,122.368,34.883,122.344,35.454,122.388z"/>
	<path fill="#2593CF" d="M34.806,122.059c-0.867,0.447-1.696,0.975-2.536,1.47c-0.358,0.211-0.489,0.578-0.336,0.969
		c0.399,1.018,0.889,2.002,1.377,2.979c0.24,0.48,1.068,0.246,0.921-0.307c-0.237-0.889-0.492-1.777-0.782-2.652
		c0.718-0.412,1.438-0.823,2.128-1.279C36.257,122.791,35.513,121.694,34.806,122.059z"/>
</g>
<path fill="#2593CF" d="M175.817,94.847c3.411,0.893,5.319,1.61,3.213,5.014c-6.815-3.846-14.698-5.204-22.428-4.541
	c3.762-1.145,7.654-1.717,11.638-1.58C170.788,93.825,173.345,94.199,175.817,94.847z"/>
<path fill="#2593CF" d="M93.645,119.281h-4.976v7.775h-9.745v-7.775H64.462v-7.697l13.322-20.449h10.885v20.449h4.976
	C93.645,111.584,93.645,119.281,93.645,119.281z M78.924,111.584v-10.567l-6.698,10.567H78.924z"/>
<g>
	<path fill="#2593CF" d="M123.826,108.589c-0.267,0-0.532-0.045-0.795-0.136c-0.763-0.268-1.313-0.868-1.648-1.804
		c-0.189-0.564-0.284-1.213-0.284-1.946c0-0.345,0.023-0.685,0.07-1.021c0.151-1.047,0.526-1.814,1.125-2.301
		c0.453-0.379,0.964-0.569,1.532-0.569c0.271,0,0.539,0.047,0.802,0.142c0.763,0.267,1.311,0.869,1.643,1.804
		c0.193,0.564,0.291,1.213,0.291,1.945c0,0.346-0.024,0.686-0.071,1.021c-0.151,1.048-0.526,1.814-1.125,2.302
		C124.913,108.401,124.399,108.589,123.826,108.589z M123.826,106.798c0.328,0,0.578-0.243,0.75-0.73
		c0.125-0.405,0.188-0.859,0.188-1.364c0-0.504-0.063-0.959-0.188-1.363c-0.172-0.487-0.422-0.731-0.75-0.731
		c-0.323,0-0.57,0.244-0.743,0.731c-0.129,0.404-0.194,0.859-0.194,1.363c0,0.505,0.065,0.959,0.194,1.364
		C123.256,106.555,123.503,106.798,123.826,106.798z"/>
	<path fill="#2593CF" d="M131.649,96.422c0.22,0.112,0.393,0.239,0.518,0.381s0.214,0.293,0.269,0.453
		c0.054,0.159,0.086,0.324,0.097,0.495c0.011,0.17,0.017,0.344,0.017,0.52c0,0.246-0.089,0.456-0.266,0.63
		c-0.177,0.175-0.388,0.262-0.634,0.262c-0.25,0-0.462-0.087-0.637-0.262c-0.175-0.174-0.262-0.384-0.262-0.63
		c0-0.039,0.008-0.072,0.022-0.1c0.016-0.028,0.029-0.053,0.042-0.074c0.018-0.017,0.028-0.033,0.032-0.048
		c0.005-0.015-0.002-0.027-0.019-0.036c-0.087-0.039-0.229-0.061-0.427-0.065c-0.25-0.004-0.485,0.024-0.705,0.084
		c-0.061,0.017-0.105,0.049-0.136,0.097c-0.116,0.211-0.207,0.707-0.271,1.487c-0.021,0.241-0.041,0.504-0.059,0.789h1.875
		c0.246,0,0.457,0.088,0.634,0.265s0.265,0.387,0.265,0.633c0,0.25-0.088,0.462-0.265,0.637s-0.388,0.262-0.634,0.262h-1.939
		c-0.009,0.345-0.015,0.701-0.02,1.067c-0.013,1.418-0.02,3.027-0.02,4.829c0,0.25-0.087,0.462-0.262,0.637
		c-0.174,0.175-0.385,0.262-0.63,0.262c-0.25,0-0.463-0.087-0.637-0.262c-0.175-0.175-0.262-0.387-0.262-0.637
		c0-1.552,0.006-3.17,0.019-4.855c0.018-1.568,0.065-2.829,0.143-3.782c0.086-1.013,0.241-1.724,0.466-2.134
		c0.155-0.306,0.334-0.533,0.536-0.682c0.203-0.149,0.432-0.258,0.686-0.327c0.393-0.116,0.811-0.17,1.254-0.162
		C130.906,96.166,131.31,96.253,131.649,96.422z"/>
</g>
<path fill="#E03638" d="M31.41,101.853c8.042-1.842,16.156-2.056,24.24-0.987c-16.161,0.043-31.872,8.019-42.028,20.574
	c-0.935-2.254-1.611-4.595-1.905-7.036c-0.491-4.041,1.827-5.706,4.98-7.284C21.371,104.781,26.321,103.021,31.41,101.853z"/>
<path fill="#E03638" d="M182.304,67.276c0.366,3.014-1.198,2.854-3.785,3.846c-2.06,0.786-4.098,1.648-6.105,2.572
	c-4.304,1.992-8.471,4.319-12.424,6.929c-3.465,2.289-6.784,4.8-9.921,7.509c-0.595,0.511-1.587,1.16-2.442,1.923
	c3.793-6.624,8.417-12.637,14.194-17.72c3.442-3.03,7.211-5.685,11.21-7.921c1.755-0.984,4.197-2.694,6.174-3.007
	c1.824-0.29,1.465-0.038,2.053,1.595C181.685,64.17,182.151,66.047,182.304,67.276z"/>
<path fill="#E03638" d="M172.826,121.999c1.496,3.274-0.191,4.022-2.846,5.846c-1.236,0.847-2.518,1.61-3.831,2.335
	c-1.168-11.378-7.562-21.642-17.475-27.411c3.556,0.237,6.647,2.648,9.57,4.556c3.053,1.984,6.036,4.083,8.661,6.616
	C169.308,116.268,171.429,118.939,172.826,121.999z"/>
<path fill="#E03638" d="M99.554,96.987v11.766h-4.5V96.987h-3.208V93.28h10.916v3.707H99.554z"/>
<path fill="#E03638" d="M117.237,93.28v15.473h-4.749v-6.019h-3.627v6.019h-4.749V93.28h4.749v5.69h3.627v-5.69H117.237z"/>
<path fill="#E03638" d="M102.467,111.584v9.049c0,1.389-0.125,2.446-0.374,3.172s-0.735,1.301-1.457,1.726
	c-0.722,0.425-1.701,0.637-2.936,0.637c-1.088,0-2.07-0.116-2.946-0.347v-3.43c0.617,0.175,1.192,0.263,1.726,0.263
	c0.631,0,1.08-0.145,1.347-0.437c0.266-0.291,0.4-0.819,0.4-1.583v-9.049L102.467,111.584L102.467,111.584z"/>
<path fill="#E03638" d="M116.472,111.584v9.512c0,1.803-0.535,3.099-1.605,3.888c-1.069,0.789-2.464,1.184-4.182,1.184
	c-1.81,0-3.264-0.379-4.361-1.136c-1.098-0.757-1.647-1.992-1.647-3.704v-9.744h4.483v9.228c0,0.688,0.145,1.189,0.435,1.505
	c0.291,0.316,0.754,0.474,1.39,0.474c0.532,0,0.967-0.114,1.307-0.342c0.339-0.228,0.542-0.486,0.609-0.774
	c0.066-0.287,0.1-0.848,0.1-1.684v-8.407L116.472,111.584L116.472,111.584z"/>
<path fill="#E03638" d="M128.9,122.422v3.525h-10.07v-14.363h4.409v10.838H128.9z"/>
<path fill="#E03638" d="M140.635,111.584l-4.496,8.281v6.082h-4.283v-6.082l-4.832-8.281h4.825l2.518,4.735l2.413-4.735H140.635z"/>
<g>
	<path fill="#E03638" d="M81.686,67.104v18.994h-5.831v-7.389h-4.453v7.389h-5.831V67.104h5.831v6.985h4.453v-6.985H81.686z"/>
	<path fill="#E03638" d="M99.052,86.099h-5.288c-0.13-0.603-0.195-1.262-0.195-1.976c-1.002,1.512-2.519,2.268-4.55,2.268
		c-1.67,0-2.92-0.426-3.75-1.28c-0.831-0.854-1.246-1.832-1.246-2.937c0-1.493,0.679-2.702,2.039-3.625
		c1.359-0.923,3.769-1.478,7.229-1.663v-0.32c0-0.622-0.142-1.035-0.424-1.239c-0.283-0.204-0.698-0.306-1.246-0.306
		c-1.28,0-1.995,0.515-2.143,1.545l-5.065-0.473c0.724-2.959,3.187-4.439,7.389-4.439c1.141,0,2.189,0.113,3.145,0.341
		s1.712,0.582,2.268,1.064c0.557,0.482,0.93,0.993,1.121,1.531c0.19,0.538,0.285,1.572,0.285,3.103v5.649
		C98.621,84.419,98.764,85.338,99.052,86.099z M93.291,79.475c-2.366,0.25-3.548,1.006-3.548,2.268c0,0.854,0.468,1.28,1.405,1.28
		c0.594,0,1.1-0.176,1.517-0.529s0.626-1.132,0.626-2.338V79.475z"/>
	<path fill="#E03638" d="M107.054,90.565h-5.553V71.947h5.107v2.004c0.714-1.531,2.045-2.296,3.993-2.296
		c1.688,0,3.011,0.656,3.966,1.969c0.956,1.313,1.434,3.101,1.434,5.364c0,2.264-0.489,4.063-1.468,5.399
		c-0.979,1.336-2.271,2.003-3.876,2.003c-1.577,0-2.778-0.603-3.604-1.809v5.984H107.054z M107.054,80.922
		c0,0.631,0.144,1.12,0.431,1.468c0.288,0.348,0.645,0.522,1.072,0.522c0.667,0,1.127-0.309,1.377-0.925
		c0.251-0.617,0.376-1.565,0.376-2.846c0-1.475-0.144-2.512-0.432-3.11c-0.287-0.598-0.719-0.897-1.294-0.897
		c-0.344,0-0.685,0.135-1.022,0.404c-0.339,0.269-0.508,0.709-0.508,1.322C107.054,76.86,107.054,80.922,107.054,80.922z"/>
	<path fill="#E03638" d="M123.766,90.565h-5.553V71.947h5.107v2.004c0.714-1.531,2.045-2.296,3.993-2.296
		c1.688,0,3.011,0.656,3.966,1.969c0.956,1.313,1.434,3.101,1.434,5.364c0,2.264-0.489,4.063-1.468,5.399s-2.271,2.003-3.876,2.003
		c-1.577,0-2.778-0.603-3.604-1.809L123.766,90.565L123.766,90.565z M123.766,80.922c0,0.631,0.144,1.12,0.431,1.468
		c0.288,0.348,0.645,0.522,1.072,0.522c0.667,0,1.127-0.309,1.377-0.925c0.251-0.617,0.376-1.565,0.376-2.846
		c0-1.475-0.144-2.512-0.432-3.11c-0.287-0.598-0.719-0.897-1.294-0.897c-0.344,0-0.685,0.135-1.022,0.404
		c-0.339,0.269-0.508,0.709-0.508,1.322C123.766,76.86,123.766,80.922,123.766,80.922z"/>
	<path fill="#E03638" d="M147.769,71.947l-5.552,15.334c-0.428,1.16-1.04,2.066-1.837,2.721c-0.799,0.654-2.027,0.981-3.688,0.981
		c-0.399,0-1.327-0.042-2.783-0.125V86.92c0.724,0.111,1.392,0.167,2.004,0.167c1.595,0,2.393-0.353,2.393-1.057
		c0-0.232-0.078-0.552-0.236-0.96l-5.079-13.122h5.939l2.34,7.552l2.443-7.552L147.769,71.947L147.769,71.947z"/>
</g>
<path fill="#E03638" d="M156.826,63.015c0.855,0.557,1.732,1.091,2.61,1.625c-1.053,0.298-2.152,0.61-3.083,1.129
	c-0.038,0.015-0.061,0.053-0.076,0.092c-0.099,0.008-0.198,0.061-0.244,0.16c-0.519,1.076-0.801,2.32-1.107,3.51
	c-0.412-0.878-0.687-1.816-0.794-2.793c-0.015-0.122-0.092-0.183-0.183-0.214c-0.061-0.259-0.321-0.458-0.588-0.259
	c-0.916,0.656-1.893,1.168-2.938,1.519c0.664-1.007,1.313-2.022,1.847-3.098c0.084-0.168-0.038-0.351-0.183-0.389
	c-0.427-0.908-0.839-1.809-1.229-2.724c0.885,0.351,1.732,0.771,2.602,1.183c0.267,0.13,0.496-0.061,0.527-0.282
	c0.58-1.03,1.297-1.976,2.122-2.824c0.282,0.946,0.366,1.915,0.191,2.907C156.246,62.893,156.589,63.084,156.826,63.015z"/>
<path fill="#E03638" d="M159.02,63.91c-1.485,0.44-3.015,1.158-4.396,1.855c-0.203,0.102-0.365,0.376-0.347,0.604
	c0.064,0.802,0.129,1.604,0.204,2.405c0.042,0.446,0.781,0.64,0.856,0.116c0.095-0.665,0.182-1.332,0.269-1.999
	c1.341-0.456,2.746-0.989,3.971-1.658C160.297,64.841,159.809,63.676,159.02,63.91z"/>
<path fill="#1D1D1B" d="M60.698,80.837c0.062,0.189-0.244,0.28-0.322,0.105c-2.668-5.58-7.193-9.022-11.89-12.807
	c-0.627-0.508,0.057-1.526,0.716-1.039C53.943,70.609,58.857,75.053,60.698,80.837z"/>
<path fill="#1D1D1B" d="M50.543,94.065c0.204,0.138,0.023,0.492-0.206,0.39c-4.426-1.95-8.7-3-13.473-3.737
	c-0.696-0.107-0.625-1.12,0.085-1.103C41.691,89.767,46.577,91.508,50.543,94.065z"/>
<path fill="#1D1D1B" d="M59.647,112.894c0.508-0.137,1.018,0.592,0.532,1.044c-6.208,5.742-10.062,13.703-10.299,22.203
	c-0.036,1.36,0.416,3.431-1.111,4.17c-2.084,1.017-6.649-1.311-8.386-2.111c-0.311-0.139-0.463-0.442-0.361-0.77
	c1.729-5.53,4.344-10.732,7.913-15.316c2.976-3.834,6.62-8.007,11.412-9.389C59.487,112.69,59.595,112.775,59.647,112.894z
	 M51.526,123.777c1.765-3.912,4.287-7.322,7.377-10.267c-5.291,2.208-9.582,8.099-12.515,12.763
	c-1.606,2.555-2.963,5.259-4.055,8.083c-0.411,1.063-1.163,2.168-0.426,3.228c0.894,1.302,4.022,1.038,5.141,0.719
	c2.418-0.685,1.533-1.803,1.728-4.038c0.107-1.186,0.275-2.367,0.511-3.535C49.772,128.341,50.519,126.003,51.526,123.777z"/>
<path fill="#1D1D1B" d="M45.115,133.131c0.094-0.322,0.6-0.137,0.492,0.176c-0.255,0.73-0.467,1.487-0.782,2.19
	c-0.074,0.17-0.37,0.132-0.331-0.072C44.637,134.656,44.903,133.888,45.115,133.131z"/>
<path fill="#1D1D1B" d="M44.068,132.415c0.193-0.215,0.565,0.021,0.378,0.259c-0.891,1.133-1.343,2.322-1.439,3.762
	c-0.004,0.145-0.242,0.165-0.254,0.019C42.628,134.998,43.103,133.512,44.068,132.415z"/>
<path fill="#1D1D1B" d="M48.201,107.906c0.201-0.023,0.309,0.254,0.118,0.354c-1.885,0.918-3.705,1.787-5.388,3.066
	c-1.577,1.187-2.754,2.649-4.125,4.044c-0.516,0.534-1.205-0.254-0.887-0.803C39.862,111.118,44.3,108.37,48.201,107.906z"/>
<path fill="#1D1D1B" d="M35.034,85.196c0.437,0.087,0.529,0.584,0.158,0.824c-1.506,0.97-3.045,1.862-4.658,2.632
	c0.08,0.052,0.135,0.133,0.157,0.242c0.255,1.551,0.252,3.173,0.345,4.742c0.04,0.57,0.278,1.552-0.289,1.952
	c-0.639,0.448-1.186-0.306-1.606-0.706c-1.105-1.058-2.208-2.13-3.238-3.259c-1.685,1.791-3.645,3.193-5.916,4.142
	c-0.324,0.136-0.79-0.176-0.615-0.553c1.028-2.201,1.891-4.553,3.161-6.629c-0.065,0.049-0.143,0.065-0.215,0.006
	c-1.528-1.22-2.888-2.635-4.282-4.005c-0.242-0.241,0.023-0.595,0.306-0.596c1.854-0.025,3.806-0.027,5.637,0.344
	c0.656-1.756,1.455-3.469,2.289-5.142c0.119-0.251,0.525-0.35,0.653-0.034c0.67,1.629,1.394,3.246,2.009,4.901
	c0.074-0.063,0.176-0.094,0.304-0.068C31.169,84.391,33.098,84.793,35.034,85.196z M33.851,85.839
	c-1.56-0.312-3.12-0.632-4.688-0.945c-0.105-0.023-0.178-0.075-0.242-0.141c-0.164,0.14-0.433,0.158-0.551-0.104
	c-0.654-1.436-1.206-2.918-1.781-4.386c-0.64,1.542-1.332,3.073-2.119,4.536c-0.053,0.095-0.133,0.135-0.217,0.136
	c-0.057,0.042-0.12,0.067-0.212,0.068c-1.618-0.064-3.22-0.226-4.831-0.274c1.158,1.154,2.324,2.308,3.366,3.582
	c0.063,0.074,0.048,0.172-0.011,0.244c0.141-0.142,0.358,0.02,0.321,0.208c-0.442,1.948-1.299,3.834-2.16,5.658
	c1.808-0.909,3.416-2.108,4.797-3.632c0.259-0.286,0.71,0.024,0.716,0.346c0.648,0.532,1.263,1.093,1.885,1.654
	c0.38,0.336,0.744,0.677,1.115,1.02c0.264,0.242,0.646,0.953,0.966,0.473c0.095-0.146-0.087-1.247-0.097-1.423
	c-0.032-0.477-0.064-0.954-0.096-1.423c-0.058-0.831-0.147-1.665-0.121-2.497c0.013-0.167,0.105-0.275,0.232-0.326
	c-0.149-0.149-0.172-0.442,0.068-0.576C31.432,87.328,32.651,86.603,33.851,85.839z"/>
<g>
	<path fill="#1D1D1B" d="M61.609,101.206c0.455,0.058,0.403,0.728-0.055,0.708c-18.347-0.892-36.216,6.497-47.555,21.172
		c-0.298,0.383-0.926,0.388-1.141-0.088c-1.569-3.459-4.445-10.509-1.752-13.959c1.393-1.783,4.184-2.73,6.154-3.664
		c2.534-1.197,5.14-2.228,7.802-3.101c11.528-3.777,24.105-4.48,35.938-1.712c0.3,0.077,0.401,0.353,0.366,0.618
		C61.449,101.193,61.526,101.199,61.609,101.206z M55.65,100.867c-8.084-1.07-16.199-0.856-24.24,0.987
		c-5.088,1.168-10.039,2.928-14.713,5.268c-3.153,1.578-5.471,3.243-4.98,7.284c0.293,2.441,0.969,4.782,1.905,7.036
		C23.778,108.886,39.489,100.91,55.65,100.867z"/>
	<path fill="#1D1D1B" d="M26.87,107.602c0.277-0.116,0.44,0.248,0.198,0.406c-1.847,1.212-3.86,2.204-5.734,3.383
		c-0.153,0.103-0.317-0.155-0.171-0.266C22.879,109.819,24.856,108.403,26.87,107.602z"/>
	<path fill="#1D1D1B" d="M26.699,105.859c0.276-0.109,0.483,0.29,0.205,0.422c-0.865,0.4-1.512,0.939-2.127,1.665
		c-0.143,0.173-0.375,0.002-0.276-0.19C24.95,106.903,25.815,106.204,26.699,105.859z"/>
</g>
<path fill="#1D1D1B" d="M61.495,94.17c0.163,0.464-0.203,0.849-0.566,0.89c0.205,0.322-0.232,0.717-0.49,0.398
	C50.77,83.42,37.492,75.787,22.846,71.378c-0.486-0.145-0.557-0.809-0.204-1.118c2.422-2.116,4.829-4.249,7.272-6.341
	c1.352-1.151,2.104-2.072,3.919-1.779c1.678,0.268,3.506,1.879,4.851,2.787c2.132,1.436,4.168,3.009,6.095,4.712
	C52.274,76.251,58.153,84.742,61.495,94.17z M60.029,93.835c-3.047-7.607-7.303-14.526-13.087-20.393
	c-3.023-3.074-6.631-6.392-10.492-8.428c-1.214-0.637-3.266-1.416-4.644-1.01c-0.767,0.224-2.511,2.186-3.119,2.721
	c-1.437,1.259-2.873,2.51-4.309,3.761C38.111,74.81,51.362,82.104,60.029,93.835z"/>
<path fill="#1D1D1B" d="M34.41,71.095c0.291,0.199-0.037,0.671-0.31,0.451c-1.039-0.823-2.166-1.385-3.374-1.899
	c-0.17-0.074-0.083-0.313,0.09-0.269C32.106,69.715,33.304,70.358,34.41,71.095z"/>
<path fill="#1D1D1B" d="M32.919,71.867c0.276,0.19-0.017,0.619-0.302,0.436c-1.502-0.966-3.066-1.73-4.788-2.223
	c-0.247-0.073-0.105-0.429,0.137-0.38C29.741,70.113,31.424,70.81,32.919,71.867z"/>
<path fill="#1D1D1B" d="M36.549,121.792c0.27,0.067,0.337,0.493,0.118,0.652c-0.923,0.648-1.881,1.255-2.83,1.855
	c0.771,1.108,1.107,2.611,1.211,3.928c0.029,0.324-0.271,0.538-0.564,0.37c-1.173-0.665-2.249-1.506-3.2-2.46
	c-0.871,1.272-2.009,2.317-3.353,3.07c-0.296,0.168-0.622-0.171-0.522-0.469c0.482-1.379,0.721-2.784,1.022-4.207
	c0.048-0.218,0.437-0.303,0.454-0.026c0.063,1.168-0.136,2.347-0.453,3.478c0.924-0.663,1.713-1.46,2.376-2.419
	c0.173-0.262,0.487-0.161,0.609,0.04c0.007,0.008,0.015,0.009,0.029,0.018c0.859,0.771,1.78,1.424,2.769,1.998
	c-0.208-1.072-0.602-2.014-1.034-3.057c-0.058-0.142-0.008-0.291,0.091-0.391c0.005-0.069,0.026-0.136,0.091-0.184
	c0.685-0.544,1.385-1.079,2.091-1.599c-0.571-0.044-1.147-0.02-1.714,0.097c-0.427,0.074-0.581-0.504-0.261-0.686
	c0.032-0.021,0.071-0.033,0.118-0.044C34.593,121.549,35.563,121.57,36.549,121.792z"/>
<path fill="#1D1D1B" d="M33.336,121.375c0.087,0.167,0.052,0.318-0.048,0.425c-0.167,0.178-0.514,0.213-0.668-0.075
	c-0.57-1.047-1.204-2.053-1.87-3.038c-0.174,1.158-0.385,2.305-0.688,3.445c-0.055,0.21-0.313,0.282-0.5,0.229
	c-1.034-0.287-2.037-0.38-3.074-0.33c0.656,0.724,1.319,1.449,1.909,2.23c0.063,0.081,0.062,0.188,0.025,0.27
	c-0.064,0.14-0.224,0.228-0.36,0.102c-0.938-0.838-1.792-1.761-2.655-2.678c-0.184-0.198-0.055-0.571,0.216-0.611
	c1.284-0.176,2.526-0.103,3.774,0.185c0.323-1.307,0.554-2.613,0.697-3.957c0.041-0.326,0.5-0.528,0.715-0.236
	C31.757,118.627,32.595,119.963,33.336,121.375z"/>
<path fill="#1D1D1B" d="M189.797,110.003c0.336,0.191,0.221,0.633-0.099,0.763c-1.442,0.557-2.9,1.076-4.373,1.557
	c0.427,1.87,0.45,3.762,0.13,5.655c-0.053,0.328-0.527,0.42-0.74,0.191c-1.19-1.252-2.213-2.602-3.121-4.06
	c-1.175,1.168-2.564,2.099-4.067,2.793c-0.313,0.145-0.824-0.107-0.664-0.519c0.626-1.603,1.259-3.197,2.076-4.716
	c-1.045-1.213-2.03-2.457-3.121-3.632c-0.252-0.275-0.069-0.694,0.305-0.717c1.557-0.099,3.144-0.008,4.655,0.389
	c0.038,0.008,0.061,0.023,0.084,0.038c0.694-1.564,1.45-3.083,2.266-4.586c0.168-0.313,0.649-0.229,0.74,0.099
	c0.343,1.236,0.702,2.472,1.045,3.709c0.046,0.031,0.084,0.076,0.099,0.145c0.076,0.412,0.145,0.809,0.198,1.221
	c0.038,0,0.076-0.008,0.122,0C186.913,108.652,188.393,109.209,189.797,110.003z M184.959,111.865
	c1.206-0.542,2.411-1.053,3.632-1.549c-1.107-0.534-2.266-0.931-3.48-1.183c-0.298-0.061-0.343-0.351-0.237-0.565
	c-0.023-0.023-0.046-0.031-0.053-0.061c-0.046-0.145-0.084-0.29-0.122-0.435c-0.16,0-0.313-0.076-0.366-0.267
	c-0.336-1.129-0.656-2.259-0.977-3.388c-0.687,1.252-1.396,2.488-2.175,3.686c-0.031,0.053-0.076,0.076-0.122,0.092
	c-0.053,0.191-0.237,0.359-0.504,0.313c-1.175-0.229-2.335-0.366-3.518-0.366c0.87,1.007,1.679,2.083,2.305,3.243
	c0,0.008,0,0.015,0.008,0.023c0.061,0.046,0.099,0.114,0.076,0.206c-0.328,1.351-0.786,2.656-1.282,3.945
	c1.145-0.649,2.167-1.442,3.136-2.381c0.321-0.313,0.74-0.015,0.748,0.32c0.817,1.175,1.717,2.289,2.671,3.343
	c0.145-1.48,0.053-2.938-0.259-4.419C184.364,112.063,184.685,111.834,184.959,111.865z"/>
<path fill="#1D1D1B" d="M171.513,84.187c0.466-0.038,0.466,0.687,0,0.725c-4.266,0.321-8.539,0.633-12.248,2.969
	c-0.114,0.069-0.214-0.107-0.107-0.176C162.844,85.202,167.171,84.583,171.513,84.187z"/>
<path fill="#1D1D1B" d="M170.994,105.149c0.382,0.351-0.145,1.038-0.557,0.725c-4.113-3.159-8.204-4.953-13.446-5.166
	c-0.244-0.008-0.244-0.366,0-0.374C161.982,100.128,167.255,101.761,170.994,105.149z"/>
<path fill="#1D1D1B" d="M160.799,128.051c0.046,0.756-1.099,0.733-1.16,0c-0.733-7.845-4.029-14.354-10.684-18.826
	c-0.099-0.069-0.008-0.221,0.092-0.16C155.556,113.116,160.364,120.267,160.799,128.051z"/>
<path fill="#1D1D1B" d="M184.127,69.809c0.076,0.321-0.107,0.618-0.412,0.725c-6.921,2.297-13.576,5.296-19.841,9.058
	c-2.953,1.778-5.823,3.701-8.577,5.784c-0.885,0.672-7.639,5.357-8.112,7.166c-0.397,0.16-0.748,0.404-1.023,0.74
	c-0.046-0.13-0.076-0.252-0.099-0.374c-0.069,0.122-0.137,0.252-0.206,0.374c-0.198,0.389-0.725,0.046-0.565-0.328
	c6.624-15.491,20.108-27.48,35.683-33.516c0.29-0.114,0.649,0.122,0.717,0.404C182.502,63.17,183.311,66.49,184.127,69.809z
	 M178.519,71.122c2.587-0.992,4.151-0.832,3.785-3.846c-0.153-1.229-0.618-3.106-1.045-4.273c-0.588-1.633-0.229-1.885-2.053-1.595
	c-1.976,0.313-4.418,2.022-6.174,3.007c-3.999,2.236-7.769,4.892-11.21,7.921c-5.777,5.082-10.401,11.096-14.194,17.72
	c0.855-0.763,1.847-1.412,2.442-1.923c3.136-2.709,6.456-5.22,9.921-7.509c3.953-2.61,8.12-4.937,12.424-6.929
	C174.421,72.77,176.458,71.908,178.519,71.122z"/>
<path fill="#1D1D1B" d="M175.42,66.62c0.298-0.168,0.572,0.29,0.267,0.458c-1.389,0.778-2.824,1.534-4.258,2.221
	c-0.191,0.099-0.359-0.176-0.168-0.29C172.612,68.169,174.016,67.375,175.42,66.62z"/>
<path fill="#1D1D1B" d="M174.1,65.803c0.183-0.069,0.313,0.244,0.13,0.321c-2.144,0.923-4.144,2.022-6.097,3.304
	c-0.114,0.076-0.259-0.114-0.153-0.198C169.819,67.772,171.902,66.62,174.1,65.803z"/>
<g>
	<path fill="#1D1D1B" d="M175.199,124.884c0.061,0.198,0,0.473-0.16,0.618c-2.824,2.396-5.823,4.449-9.096,6.197
		c-0.427,0.229-0.893-0.061-0.923-0.534c-0.855-11.767-7.486-22.169-17.552-28.243c-0.084-0.053-0.13-0.114-0.153-0.183
		c-0.58-0.153-0.504-1.152,0.206-1.213c5.952-0.542,12.401,5.09,16.789,8.516C169.3,113.933,173.383,118.733,175.199,124.884z
		 M169.979,127.845c2.656-1.824,4.342-2.572,2.846-5.846c-1.396-3.06-3.518-5.731-5.922-8.059c-2.625-2.534-5.609-4.632-8.661-6.616
		c-2.923-1.908-6.013-4.319-9.57-4.556c9.913,5.769,16.308,16.033,17.475,27.411C167.461,129.455,168.743,128.692,169.979,127.845z"
		/>
	<path fill="#1D1D1B" d="M170.78,120.961c0.137,0.244-0.198,0.511-0.389,0.298c-0.992-1.076-1.877-2.411-2.671-3.64
		c-0.13-0.198,0.168-0.435,0.328-0.252C169.002,118.474,170.025,119.702,170.78,120.961z"/>
	<path fill="#1D1D1B" d="M170.468,123.319c0.092,0.252-0.328,0.427-0.443,0.183c-0.672-1.381-1.419-2.656-2.228-3.961
		c-0.099-0.153,0.122-0.32,0.252-0.191C169.086,120.442,169.941,121.908,170.468,123.319z"/>
</g>
<path fill="#1D1D1B" d="M180.899,95.832c0.198,0.076,0.282,0.229,0.252,0.443c-0.267,1.549-0.679,2.701-1.488,3.945
	c0.008,0.008,0.023,0.015,0.038,0.023c0.145,0.084,0.015,0.29-0.13,0.221c-0.023-0.008-0.038-0.015-0.061-0.031
	c0,0.008-0.008,0.008-0.008,0.008c-0.214-0.107-0.443-0.198-0.687-0.252c0.008-0.015,0.015-0.031,0.031-0.046
	c-8.219-3.602-16.697-5.151-25.664-3.617c-0.496,0.084-0.664-0.557-0.206-0.748C161.997,92.115,171.887,92.169,180.899,95.832z
	 M179.03,99.861c2.106-3.404,0.198-4.121-3.213-5.014c-2.473-0.649-5.029-1.023-7.578-1.107c-3.983-0.137-7.875,0.435-11.638,1.58
	C164.332,94.657,172.215,96.015,179.03,99.861z"/>
<g>
	<path fill="#1D1D1B" d="M160.542,64.435c0.275,0.176,0.229,0.595-0.084,0.694c-1.213,0.351-2.518,0.817-3.785,0.954
		c0.008,0.031,0.015,0.069,0.008,0.114c-0.168,1.519-0.801,3.075-1.229,4.541c-0.099,0.343-0.557,0.397-0.748,0.099
		c-0.717-1.16-1.068-2.404-1.068-3.747c-1.244,0.878-2.61,1.496-4.09,1.839c-0.351,0.076-0.71-0.305-0.488-0.633
		c0.832-1.259,1.664-2.541,2.633-3.709c-0.008-0.008-0.015-0.008-0.023-0.015c-0.778-1.099-1.374-2.32-1.87-3.564
		c-0.107-0.267,0.206-0.557,0.465-0.465c1.129,0.382,2.259,0.832,3.289,1.442c0.618-1.244,1.435-2.343,2.457-3.297
		c0.221-0.206,0.527-0.099,0.626,0.16c0.435,1.114,0.557,2.259,0.443,3.434c0.031,0.008,0.061,0.015,0.099,0.031
		C158.314,62.992,159.428,63.725,160.542,64.435z M159.436,64.641c-0.878-0.534-1.755-1.068-2.61-1.625
		c-0.237,0.069-0.58-0.122-0.527-0.458c0.176-0.992,0.092-1.961-0.191-2.907c-0.824,0.847-1.541,1.793-2.122,2.824
		c-0.03,0.221-0.259,0.412-0.527,0.282c-0.87-0.412-1.717-0.832-2.602-1.183c0.389,0.916,0.801,1.816,1.229,2.724
		c0.145,0.038,0.267,0.221,0.183,0.389c-0.534,1.076-1.183,2.091-1.847,3.098c1.046-0.351,2.022-0.862,2.938-1.519
		c0.267-0.198,0.527,0,0.588,0.259c0.092,0.031,0.168,0.092,0.183,0.214c0.107,0.977,0.382,1.915,0.794,2.793
		c0.305-1.19,0.588-2.434,1.107-3.51c0.046-0.099,0.145-0.153,0.244-0.16c0.015-0.038,0.038-0.076,0.076-0.092
		C157.284,65.251,158.383,64.938,159.436,64.641z"/>
</g>
<path fill="#1D1D1B" d="M175.687,67.077c0.305-0.168,0.03-0.626-0.267-0.458c-1.404,0.755-2.808,1.549-4.159,2.389
	c-0.191,0.114-0.023,0.389,0.168,0.29C172.864,68.611,174.298,67.856,175.687,67.077z"/>
<path fill="#1D1D1B" d="M174.23,66.124c0.183-0.076,0.053-0.389-0.13-0.321c-2.198,0.817-4.281,1.969-6.12,3.426
	c-0.107,0.084,0.038,0.275,0.153,0.198C170.086,68.146,172.085,67.047,174.23,66.124z"/>
<path fill="#1D1D1B" d="M170.391,121.259c0.191,0.214,0.527-0.053,0.389-0.298c-0.755-1.259-1.778-2.488-2.732-3.594
	c-0.16-0.183-0.458,0.053-0.328,0.252C168.514,118.847,169.399,120.183,170.391,121.259z"/>
<path fill="#1D1D1B" d="M170.025,123.503c0.114,0.244,0.534,0.069,0.443-0.183c-0.527-1.412-1.381-2.877-2.419-3.968
	c-0.13-0.13-0.351,0.038-0.252,0.191C168.606,120.847,169.353,122.121,170.025,123.503z"/>
<path fill="#1D1D1B" d="M176.527,84.469c-0.038,0-0.061-0.008-0.092-0.031c-0.702-0.626-1.412-1.244-2.114-1.87
	c-0.206-0.183-0.053-0.603,0.229-0.572c0.923,0.099,1.839,0.198,2.747,0.32c0.443-0.939,0.862-1.877,1.19-2.869
	c0.092-0.29,0.519-0.313,0.603,0l0.824,2.991c0.008,0.023,0.008,0.053,0.008,0.076c0.878-0.16,1.816-0.107,2.694,0
	c0.237,0.031,0.443,0.328,0.214,0.527c-0.626,0.534-1.274,1.053-1.923,1.58c0.237,0.923,0.229,1.984,0.313,2.93
	c0.031,0.29-0.351,0.389-0.534,0.221c-0.71-0.626-1.404-1.267-2.091-1.931c-0.893,0.954-2.015,1.656-3.228,2.137
	c-0.259,0.107-0.496-0.198-0.435-0.435c0.29-1.129,0.809-2.205,1.595-3.068C176.527,84.469,176.527,84.469,176.527,84.469z
	 M180.648,84.293c0.412-0.404,0.824-0.801,1.236-1.19c-0.679,0-1.335,0.069-2.03,0.114c-0.244,0.023-0.366-0.214-0.336-0.412
	c-0.092-0.023-0.168-0.084-0.206-0.206c-0.191-0.687-0.382-1.374-0.572-2.06c-0.29,0.71-0.641,1.381-1.084,1.999
	c0.038,0.191-0.076,0.435-0.298,0.42c-0.656-0.053-1.305-0.13-1.961-0.198c0.435,0.473,0.87,0.939,1.305,1.412
	c0.076,0.084,0.061,0.183,0.008,0.244c0.13,0.031,0.244,0.183,0.168,0.328c-0.412,0.733-0.771,1.458-1.03,2.236
	c0.832-0.435,1.572-0.992,2.266-1.656c0.191-0.183,0.427-0.099,0.534,0.069c0.023,0.008,0.038,0,0.061,0.008
	c0.603,0.465,1.198,0.946,1.786,1.427c-0.114-0.756-0.237-1.541-0.191-2.274C180.319,84.362,180.495,84.271,180.648,84.293z"/>
<path fill="#1D1D1B" d="M27.068,108.008c0.242-0.157,0.079-0.522-0.198-0.406c-2.014,0.801-3.991,2.217-5.707,3.523
	c-0.146,0.111,0.017,0.369,0.171,0.266C23.208,110.212,25.222,109.22,27.068,108.008z"/>
<path fill="#1D1D1B" d="M26.903,106.281c0.278-0.132,0.072-0.53-0.205-0.422c-0.884,0.345-1.749,1.043-2.198,1.896
	c-0.099,0.191,0.133,0.362,0.276,0.19C25.392,107.22,26.038,106.681,26.903,106.281z"/>
</svg>
