<?xml version="1.0" encoding="utf-8"?>
<!-- Generator: Adobe Illustrator 17.0.0, SVG Export Plug-In . SVG Version: 6.00 Build 0)  -->
<!DOCTYPE svg PUBLIC "-//W3C//DTD SVG 1.1//EN" "http://www.w3.org/Graphics/SVG/1.1/DTD/svg11.dtd">
<svg version="1.1" id="Layer_1" xmlns="http://www.w3.org/2000/svg" xmlns:xlink="http://www.w3.org/1999/xlink" x="0px" y="0px"
	 width="165.429px" height="180px" viewBox="0 0 165.429 180" enable-background="new 0 0 165.429 180" xml:space="preserve">
<path fill="#2593CF" d="M117.921,96.602c-2.488,0.925-5.277,1.416-7.737,1.849l-1.213,0.216c-8.128,1.477-17.233,2.201-27.837,2.214
	c-10.741,0.014-19.484-0.751-27.515-2.408l-0.487-0.098c-2.863-0.576-8.82-1.773-9.318-5.035c-0.03-0.199-0.051-0.401-0.073-0.603
	l-0.008-0.073l0.031-0.119c0.048-0.083,0.016-0.178-0.03-0.241l-0.039-0.053l-0.005-0.064c-0.096-1.309-0.051-2.671-0.008-3.988
	l0.018-0.553l0.371,0.41c1.368,1.515,4.168,2.373,5.513,2.785c5.481,1.68,11.314,2.309,16.35,2.767
	c11.629,1.057,23.599,0.895,35.578-0.482c4.88-0.56,10.589-1.371,15.942-3.139c0.39-0.128,0.823-0.274,1.275-0.442
	c2.001-0.744,3.365-1.566,4.168-2.513l0.386-0.455c0,0,0.048,3.551,0.058,4.566c0.015,1.473-0.214,2.356-1.548,3.388
	C120.739,95.348,119.472,96.025,117.921,96.602L117.921,96.602z"/>
<path fill="#2593CF" d="M118.286,174.945c-3.106,1.155-6.441,1.746-9.667,2.319c-7.134,1.267-15.06,1.941-24.234,2.06
	c-8.63,0.112-16.831-0.412-24.374-1.557c-3.608-0.548-7.775-1.277-11.571-3.008c-1.425-0.648-2.434-1.408-3.086-2.323
	c-0.537-0.752-0.468-1.939-0.412-2.894l0.034-0.656l0.307,0.155c0.478,0.241,0.954,0.454,1.391,0.641
	c4.885,2.094,10.398,2.761,15.73,3.407c5.19,0.629,10.776,0.981,17.147,1.085c13.224,0.215,24.765-0.803,35.283-3.112
	c2.02-0.444,4.236-0.93,6.311-1.702c1.08-0.401,2.006-0.835,2.83-1.326l0.333-0.198l0.01,0.73c0.021,1.079,0.042,2.194-0.624,3.137
	c-0.806,1.142-2.268,1.848-3.335,2.362C119.71,174.379,119.013,174.675,118.286,174.945z"/>
<path d="M63.666,77.598c-5.4,0.715-10.919,1.677-15.919,3.882c-1.752,0.774-4.375,2.146-4.66,4.284
	c-0.017,0.048-0.03,0.1-0.03,0.159c0.018,1.454,0.032,2.909,0.048,4.363c0.006,0.61-0.053,1.305-0.053,1.985
	c-1.633,1.266-2.407,2.55-2.431,4.602c-0.021,1.816,0.001,3.633,0.018,5.449c0.059,6.409,0.167,12.817,0.272,19.225
	c0.217,13.248,0.507,26.498,0.641,39.748c0.012,1.142,0.057,2.37,0.006,3.474c-0.083,1.828,1.24,3.088,2.761,3.997
	c-0.003,0.022-0.013,0.04-0.012,0.064c0.013,2.302-0.138,3.773,1.782,5.312c2.896,2.321,7.243,3.086,10.77,3.764
	c8.818,1.695,17.901,2.132,26.863,2.09c9.41-0.045,18.89-0.783,28.118-2.67c3.747-0.766,7.728-1.7,10.941-3.87
	c2.155-1.454,2.179-3.206,2.196-5.606c0-0.069-0.013-0.128-0.036-0.179c0.62-0.44,1.189-0.932,1.686-1.491
	c1.259-1.418,0.915-3.644,0.923-5.389c0.057-11.838-0.241-23.662-0.638-35.491c-0.228-6.819-0.145-13.651-0.151-20.474
	c-0.002-2.695-0.001-5.391-0.063-8.087c-0.055-2.419-0.414-3.894-2.493-5.469c-0.052-0.039-0.105-0.061-0.158-0.076
	c0.015-1.986-0.064-3.986-0.107-5.971c0.362-3.472-6.055-5.212-8.291-5.88c-7.901-2.359-16.443-2.802-24.646-3.028
	C91.003,76.317,77.922,76.448,63.666,77.598z M50.124,81.486c4.606-1.705,9.559-2.478,14.412-3.102
	c1.203,1.094,2.407,2.185,3.62,3.265c-0.338,2.621,0.512,5.265,2.842,6.698c1.664,1.024,4.359,1.309,5.799-0.268
	c1.464-1.603,1.265-4.033,0.191-5.811c-1.384-2.293-4.084-3.132-6.639-2.803c-0.46-0.522-1.655-0.861-2.118-1.382
	c4.063-0.372,8.861-0.776,12.94-0.883c0.061,0.328,0.151,0.656,0.307,0.98c0.93,1.926,3.292,2.265,5.179,1.945
	c1.778-0.301,3.106-1.462,3.934-2.947c0.023,0.004,0.041,0.014,0.066,0.015c6.725,0.18,13.472,0.642,20.089,1.901
	c2.671,0.508,5.322,1.191,7.849,2.203c1.548,0.619,3.53,1.512,4.302,3.099c0.073,0.149,0.114,0.295,0.149,0.44
	c-0.001,0.016-0.009,0.029-0.009,0.047c0.005,0.254,0.005,0.508,0.009,0.763c-1.141,4.912-23.7,7.064-26.548,7.311
	c-12.072,1.049-24.373,0.92-36.391-0.666c-4.867-0.642-10.856-1.222-14.919-4.232C41.216,85.115,47.942,82.294,50.124,81.486z
	 M44.035,93.306c-0.033-0.214-0.054-0.431-0.077-0.649c0.093-0.159,0.059-0.349-0.044-0.487c-0.095-1.295-0.051-2.639-0.008-3.964
	c1.377,1.525,4.093,2.383,5.613,2.849c5.298,1.624,10.894,2.276,16.396,2.777c11.821,1.074,23.836,0.872,35.624-0.482
	c5.372-0.617,10.839-1.449,15.986-3.149c1.695-0.559,4.208-1.449,5.543-3.023c0.017,1.323,0.037,2.645,0.05,3.968
	c0.015,1.482-0.239,2.264-1.461,3.21c-3.419,2.649-8.617,3.347-12.726,4.094c-9.147,1.662-18.513,2.199-27.797,2.21
	c-9.17,0.012-18.472-0.548-27.47-2.404C51.213,97.748,44.54,96.613,44.035,93.306z M98.268,172.856
	c-2.907,0.266-5.823,0.45-8.744,0.56c-0.291-22.668-0.59-45.336-0.885-68.004c-0.017-1.327-0.035-2.653-0.052-3.979
	c2.881-0.102,5.762-0.282,8.634-0.539c-0.002,0.018-0.01,0.033-0.01,0.052c0.294,22.679,0.59,45.358,0.886,68.036
	c0.016,1.195,0.031,2.39,0.047,3.586C98.146,172.698,98.196,172.791,98.268,172.856z M60.425,103.999
	c-0.015-1.202-0.031-2.404-0.047-3.607c2.867,0.395,5.762,0.666,8.659,0.835c-0.005,0.029-0.016,0.053-0.016,0.085
	c0.3,22.679,0.59,45.358,0.886,68.036c0.016,1.195,0.031,2.391,0.047,3.586c0.001,0.07,0.016,0.131,0.04,0.182
	c-0.181-0.012-0.363-0.019-0.544-0.031c-2.716-0.189-5.431-0.448-8.135-0.798C61.016,149.523,60.722,126.761,60.425,103.999z
	 M60.421,172.16c-2.556-0.351-5.101-0.778-7.62-1.324c-0.288-0.062-0.643-0.138-1.031-0.222
	c-0.301-22.696-0.591-45.392-0.887-68.088c-0.018-1.356-0.036-2.713-0.053-4.068c2.826,0.784,5.721,1.366,8.655,1.801
	c0.299,22.644,0.589,45.289,0.884,67.934C60.386,169.515,60.404,170.838,60.421,172.16z M70.844,172.857
	c-0.297-22.679-0.59-45.358-0.886-68.037c-0.015-1.183-0.03-2.367-0.046-3.551c2.895,0.152,5.781,0.223,8.635,0.255
	c0.287,22.673,0.589,45.345,0.885,68.018c0.017,1.325,0.034,2.651,0.052,3.976c-2.924-0.052-5.842-0.175-8.751-0.358
	C70.798,173.082,70.845,172.984,70.844,172.857z M79.489,105.531c-0.017-1.332-0.035-2.665-0.052-3.997
	c0.344,0.003,0.692,0.01,1.035,0.012c2.403,0.016,4.813-0.016,7.224-0.089c0.293,22.655,0.59,45.31,0.884,67.965
	c0.018,1.343,0.035,2.688,0.053,4.031c-2.753,0.09-5.507,0.11-8.259,0.073C80.077,150.861,79.784,128.196,79.489,105.531z
	 M99.034,172.49c-0.294-22.679-0.59-45.358-0.886-68.036c-0.016-1.195-0.031-2.39-0.047-3.586c-0.001-0.023-0.01-0.038-0.013-0.058
	c2.89-0.275,5.769-0.637,8.63-1.097c0.289,22.622,0.588,45.243,0.883,67.865c0.018,1.382,0.037,2.764,0.054,4.147
	c-0.429,0.062-0.86,0.125-1.283,0.186c-2.472,0.36-4.958,0.642-7.45,0.88C98.989,172.714,99.036,172.616,99.034,172.49z
	 M107.657,103.384c-0.017-1.271-0.033-2.541-0.05-3.813c1.517-0.255,3.03-0.53,4.534-0.845c1.294-0.271,2.688-0.564,4.073-0.947
	c0.294,22.648,0.589,45.296,0.885,67.944c0.018,1.4,0.037,2.8,0.055,4.2c0,0.002,0.001,0.002,0.001,0.004
	c-2.82,0.767-5.759,1.245-8.61,1.665C108.25,148.857,107.952,126.121,107.657,103.384z M42.446,164.76
	c0.381-10.559-0.27-21.24-0.452-31.801c-0.144-8.378-0.289-16.756-0.401-25.134c-0.039-2.887-0.074-5.772-0.086-8.659
	c-0.01-2.51-0.239-4.098,1.621-5.793c0.021,0.125,0.046,0.249,0.079,0.368c0.734,2.662,4.464,3.817,6.753,4.49
	c0.003,0.001,0.007,0.001,0.01,0.003c-0.019,0.051-0.033,0.106-0.032,0.17c0.295,22.728,0.592,45.456,0.888,68.183
	c0.017,1.276,0.034,2.55,0.05,3.825C47.499,169.619,42.328,168.03,42.446,164.76z M123.511,171.575
	c-0.753,1.067-2.116,1.743-3.25,2.29c-3.623,1.749-7.753,2.482-11.682,3.179c-7.973,1.416-16.108,1.951-24.196,2.057
	c-8.13,0.105-16.297-0.334-24.338-1.555c-3.909-0.593-7.896-1.341-11.512-2.99c-1.141-0.52-2.26-1.216-2.997-2.25
	c-0.546-0.766-0.403-2.07-0.353-3.066c0.482,0.243,0.962,0.459,1.404,0.648c4.935,2.116,10.569,2.791,15.859,3.431
	c5.673,0.687,11.391,0.985,17.102,1.077c11.801,0.192,23.788-0.582,35.335-3.117c2.908-0.639,6.437-1.406,9.207-3.053
	C124.102,169.384,124.203,170.595,123.511,171.575z M126.659,161.195c-0.004,0.919-0.008,1.838-0.041,2.757
	c-0.064,1.832-2.062,2.956-3.486,3.703c-1.603,0.841-3.322,1.48-5.091,2.006c-0.294-22.666-0.59-45.332-0.885-67.998
	c-0.018-1.381-0.036-2.761-0.054-4.141c2.233-0.691,4.38-1.663,5.975-3.225c0.565-0.553,0.873-1.257,0.939-2.024
	c1.366,1.155,1.717,2.213,1.776,3.967c0.054,1.592,0.058,3.187,0.068,4.781c0.026,4.413,0.008,8.827,0.02,13.24
	c0.02,7.484,0.368,14.945,0.535,22.424C126.596,144.852,126.698,153.026,126.659,161.195z"/>
<path d="M8.028,96.533C7.363,96.591,6.7,96.66,6.039,96.755c-0.408-0.525-0.837-1.032-1.275-1.532
	c-0.197-0.225-0.387-0.462-0.599-0.674c-0.088-0.087-0.201-0.198-0.337-0.174c-0.13,0.023-0.199,0.142-0.239,0.258
	c-0.086,0.255-0.136,0.524-0.197,0.786c-0.163,0.701-0.316,1.403-0.438,2.113c-0.736,0.266-1.458,0.569-2.176,0.879
	c-0.179,0.078-0.365,0.147-0.538,0.239c-0.095,0.051-0.195,0.112-0.229,0.22c-0.085,0.265,0.34,0.456,0.508,0.559
	c0.73,0.443,1.462,0.88,2.218,1.278c0.028,0.808,0.095,1.614,0.171,2.419c0.017,0.182,0.022,0.372,0.061,0.551
	c0.023,0.106,0.069,0.235,0.186,0.269c0.122,0.036,0.228-0.023,0.326-0.091c0.158-0.11,0.3-0.243,0.446-0.368
	c0.6-0.518,1.194-1.042,1.762-1.595c0.711,0.205,1.43,0.376,2.151,0.538c0.236,0.053,0.473,0.119,0.713,0.153
	c0.121,0.017,0.275,0.02,0.351-0.097c0.075-0.116,0.035-0.254-0.006-0.375c-0.078-0.227-0.178-0.447-0.271-0.668
	c-0.284-0.672-0.576-1.339-0.898-1.993c0.387-0.572,0.749-1.159,1.101-1.751c0.143-0.24,0.305-0.478,0.425-0.73
	c0.06-0.126,0.121-0.266,0.028-0.393c-0.087-0.119-0.27-0.115-0.401-0.108C8.598,96.48,8.313,96.508,8.028,96.533z M3.229,103.633
	c-0.001,0-0.002,0.001-0.002,0.002C3.229,103.634,3.228,103.634,3.229,103.633L3.229,103.633z M8.092,96.848
	c0.204-0.017,0.407-0.036,0.611-0.051c0.045-0.003,0.2-0.031,0.29-0.023c-0.009,0.021-0.018,0.042-0.03,0.062
	c-0.039,0.072-0.081,0.142-0.123,0.213c-0.094,0.158-0.187,0.316-0.28,0.474c-0.369,0.619-0.745,1.233-1.152,1.829
	c-0.039,0.057-0.033,0.113-0.006,0.157v0.001c0.339,0.681,0.642,1.377,0.937,2.077c0.077,0.185,0.159,0.368,0.23,0.555
	c0.015,0.04,0.029,0.081,0.04,0.123c-0.045-0.006-0.09-0.012-0.135-0.022c-0.179-0.038-0.357-0.079-0.535-0.119
	c-0.754-0.17-1.506-0.347-2.248-0.564c-0.006-0.002-0.01,0-0.016-0.001c-0.017-0.005-0.034-0.006-0.052-0.005
	c-0.001,0-0.002,0-0.003,0c-0.018,0.002-0.035,0.009-0.052,0.019c-0.003,0.002-0.006,0.004-0.009,0.006
	c-0.009,0.006-0.017,0.009-0.025,0.016c-0.586,0.575-1.203,1.116-1.824,1.653c-0.125,0.106-0.247,0.218-0.378,0.317
	c-0.016,0.012-0.034,0.021-0.051,0.033c-0.008-0.041-0.014-0.083-0.019-0.125c-0.015-0.138-0.028-0.275-0.04-0.413
	c-0.077-0.812-0.146-1.624-0.171-2.44c0.012-0.055-0.007-0.113-0.074-0.148c-0.78-0.407-1.533-0.859-2.285-1.315
	c-0.11-0.067-0.225-0.132-0.327-0.212H0.364c0.158-0.105,0.387-0.175,0.557-0.249c0.741-0.32,1.484-0.632,2.243-0.905
	c0.074-0.026,0.098-0.085,0.089-0.142c0.12-0.716,0.277-1.424,0.442-2.131c0.051-0.217,0.096-0.436,0.156-0.651
	c0.012-0.044,0.027-0.088,0.042-0.131c0.236,0.193,0.432,0.477,0.629,0.702c0.456,0.521,0.904,1.048,1.327,1.596
	c0.048,0.062,0.112,0.069,0.166,0.045C6.708,96.978,7.399,96.908,8.092,96.848z"/>
<g>
	<path d="M71.541,36.118c-5.307,0.79-10.483,2.138-15.466,3.97c-0.23-0.092-0.455-0.194-0.688-0.278
		c-0.098-0.569-0.221-1.133-0.352-1.695c-0.049-0.21-0.089-0.426-0.158-0.63c-0.031-0.093-0.087-0.188-0.191-0.207
		c-0.109-0.019-0.2,0.07-0.27,0.14c-0.17,0.17-0.322,0.36-0.48,0.541c-0.351,0.402-0.695,0.808-1.023,1.229
		c-0.53-0.077-1.063-0.132-1.596-0.178c-0.228-0.02-0.457-0.042-0.686-0.054c-0.105-0.005-0.252-0.008-0.322,0.087
		c-0.075,0.102-0.026,0.214,0.023,0.315c0.097,0.202,0.227,0.393,0.341,0.586c0.283,0.476,0.573,0.947,0.884,1.405
		c-0.111,0.225-0.205,0.457-0.309,0.685c-2.318,1.031-4.581,2.182-6.789,3.432c-0.058-0.046-0.111-0.098-0.169-0.144
		c0.112-0.768,0.197-1.539,0.266-2.311c0.034-0.356,0.26-1.197-0.216-1.373c-0.169-0.062-0.348,0.026-0.495,0.102
		c-0.288,0.148-0.563,0.324-0.841,0.488c-0.613,0.361-1.219,0.732-1.81,1.126c-0.635-0.315-1.28-0.606-1.932-0.887
		c-0.318-0.135-0.633-0.281-0.957-0.399c-0.154-0.056-0.355-0.094-0.499,0.009c-0.162,0.115-0.194,0.294-0.17,0.48
		c0.043,0.334,0.13,0.663,0.203,0.991c0.159,0.719,0.33,1.435,0.527,2.144c-0.546,0.557-1.068,1.137-1.581,1.724
		c-0.225,0.26-0.8,0.717-0.678,1.123c0.126,0.423,0.924,0.358,1.247,0.391c0.461,0.045,0.923,0.071,1.384,0.104
		c-2.642,1.81-5.187,3.772-7.602,5.901c-0.16,0.02-0.321,0.031-0.481,0.054c-0.408-0.525-0.838-1.032-1.275-1.532
		c-0.197-0.225-0.387-0.462-0.599-0.674c-0.088-0.087-0.201-0.198-0.337-0.174c-0.13,0.023-0.199,0.142-0.239,0.258
		c-0.086,0.255-0.136,0.524-0.197,0.786c-0.163,0.701-0.316,1.404-0.438,2.113c-0.736,0.266-1.458,0.569-2.176,0.879
		c-0.179,0.078-0.365,0.147-0.538,0.239c-0.095,0.051-0.195,0.112-0.229,0.22c-0.085,0.266,0.34,0.456,0.508,0.559
		c0.643,0.39,1.29,0.771,1.951,1.129c-1.147,1.164-2.273,2.353-3.351,3.593c-1.258,1.447-2.444,2.946-3.587,4.472
		c-0.096-0.488-0.19-0.976-0.303-1.46c-0.061-0.262-0.111-0.53-0.197-0.786c-0.039-0.116-0.108-0.235-0.239-0.258
		c-0.136-0.024-0.249,0.087-0.337,0.174c-0.212,0.211-0.402,0.449-0.599,0.674c-0.437,0.501-0.867,1.007-1.275,1.532
		c-0.661-0.096-1.324-0.164-1.989-0.222c-0.285-0.024-0.57-0.052-0.855-0.067c-0.131-0.007-0.314-0.01-0.401,0.108
		c-0.093,0.127-0.032,0.266,0.028,0.393c0.121,0.252,0.283,0.49,0.425,0.73c0.353,0.593,0.714,1.18,1.101,1.751
		c-0.322,0.654-0.615,1.322-0.898,1.993c-0.093,0.221-0.193,0.441-0.271,0.668c-0.041,0.12-0.081,0.259-0.006,0.375
		c0.076,0.117,0.229,0.114,0.351,0.097c0.24-0.034,0.477-0.1,0.713-0.153c0.379-0.085,0.753-0.189,1.13-0.283
		c-1.367,2.173-2.624,4.407-3.769,6.695c-0.496,0.297-0.991,0.595-1.472,0.915c-0.635-0.315-1.28-0.606-1.932-0.887
		c-0.318-0.135-0.633-0.281-0.957-0.399c-0.154-0.056-0.355-0.094-0.499,0.009c-0.162,0.115-0.194,0.294-0.17,0.48
		c0.043,0.334,0.13,0.663,0.203,0.991c0.159,0.719,0.33,1.435,0.527,2.144c-0.546,0.557-1.068,1.137-1.581,1.724
		c-0.225,0.26-0.8,0.717-0.678,1.123c0.126,0.423,0.924,0.358,1.247,0.391c0.783,0.077,1.567,0.143,2.352,0.177
		c-3.519,9.042-5.382,18.726-5.382,28.592c0,0.138,0.112,0.25,0.25,0.25s0.25-0.112,0.25-0.25c0-9.783,1.859-19.226,5.244-27.969
		c0.297,0.538,0.594,1.076,0.91,1.604c0.133,0.219,0.396,0.853,0.747,0.806c0.404-0.054,0.511-0.51,0.653-0.832
		c0.353-0.802,0.695-1.608,1.002-2.429c0.91-0.153,1.81-0.352,2.709-0.558c0.284-0.066,0.801-0.134,0.812-0.52
		c0.01-0.353-0.452-0.636-0.68-0.839c-0.63-0.561-1.267-1.115-1.93-1.638c0.112-0.768,0.197-1.539,0.266-2.311
		c0.034-0.356,0.26-1.197-0.216-1.373c-0.169-0.062-0.348,0.026-0.495,0.102c-0.074,0.038-0.143,0.084-0.216,0.125
		c1.128-2.171,2.351-4.286,3.671-6.338c0.051-0.014,0.103-0.024,0.154-0.039c0.568,0.553,1.162,1.077,1.762,1.595
		c0.146,0.125,0.288,0.258,0.446,0.368c0.098,0.068,0.204,0.127,0.326,0.091c0.117-0.034,0.163-0.163,0.186-0.269
		c0.039-0.179,0.044-0.369,0.061-0.551c0.076-0.805,0.143-1.611,0.171-2.419c0.756-0.398,1.488-0.835,2.218-1.278
		c0.168-0.102,0.593-0.293,0.508-0.559c-0.034-0.108-0.134-0.169-0.229-0.22c-0.172-0.092-0.359-0.161-0.538-0.239
		c-0.678-0.293-1.361-0.574-2.055-0.83c2.135-2.879,4.471-5.603,6.973-8.168c0.034,0.657,0.084,1.313,0.146,1.969
		c0.017,0.182,0.022,0.372,0.061,0.551c0.023,0.106,0.069,0.235,0.186,0.269c0.122,0.036,0.228-0.023,0.326-0.091
		c0.158-0.11,0.3-0.243,0.446-0.368c0.6-0.518,1.194-1.042,1.762-1.595c0.711,0.205,1.43,0.376,2.151,0.538
		c0.236,0.053,0.473,0.119,0.713,0.153c0.121,0.017,0.275,0.02,0.351-0.097c0.075-0.116,0.035-0.254-0.006-0.375
		c-0.078-0.227-0.178-0.447-0.271-0.668c-0.284-0.672-0.576-1.339-0.898-1.993c0.387-0.572,0.749-1.159,1.101-1.751
		c0.143-0.24,0.305-0.478,0.425-0.73c0.06-0.126,0.121-0.266,0.028-0.393c-0.087-0.119-0.27-0.115-0.401-0.108
		c-0.285,0.014-0.57,0.042-0.855,0.067c-0.132,0.011-0.263,0.032-0.394,0.044c2.354-2.039,4.82-3.954,7.408-5.708
		c0.019,0.001,0.038,0.003,0.058,0.004c0.395,0.756,0.824,1.493,1.262,2.225c0.133,0.219,0.396,0.853,0.747,0.806
		c0.403-0.054,0.511-0.51,0.653-0.832c0.353-0.802,0.695-1.608,1.002-2.429c0.91-0.153,1.81-0.352,2.709-0.558
		c0.284-0.066,0.801-0.134,0.812-0.52c0.01-0.353-0.452-0.636-0.68-0.839c-0.426-0.379-0.867-0.742-1.305-1.108
		c1.946-1.105,3.946-2.126,5.993-3.064c-0.023,0.054-0.049,0.106-0.072,0.159c-0.074,0.178-0.155,0.354-0.218,0.536
		c-0.033,0.096-0.065,0.208-0.005,0.301c0.061,0.094,0.184,0.091,0.281,0.078c0.192-0.027,0.383-0.08,0.572-0.122
		c0.579-0.13,1.156-0.268,1.726-0.432c0.456,0.444,0.932,0.864,1.414,1.28c0.117,0.1,0.231,0.207,0.358,0.295
		c0.079,0.055,0.164,0.102,0.262,0.073c0.094-0.027,0.13-0.131,0.149-0.216c0.031-0.144,0.036-0.296,0.049-0.442
		c0.061-0.646,0.115-1.292,0.137-1.941c0.606-0.319,1.194-0.67,1.78-1.025c0.135-0.082,0.476-0.235,0.408-0.448
		c-0.028-0.087-0.107-0.136-0.184-0.177c-0.138-0.074-0.288-0.129-0.431-0.192c-0.119-0.051-0.24-0.095-0.359-0.145
		c4.745-1.718,9.705-2.994,14.84-3.758c0.137-0.02,0.231-0.147,0.21-0.284C71.805,36.192,71.677,36.098,71.541,36.118z
		 M10.03,84.908c-0.007,0-0.013-0.005-0.02-0.005c-0.006,0-0.01-0.003-0.016-0.004c-0.852-0.03-1.699-0.105-2.547-0.188
		c-0.174-0.017-0.347-0.034-0.522-0.052c-0.002,0-0.003-0.001-0.005-0.001c0.001-0.001,0.002-0.002,0.002-0.003
		c0.123-0.148,0.253-0.291,0.378-0.437c0.551-0.63,1.109-1.254,1.7-1.849c0.005-0.005,0.006-0.012,0.011-0.017
		c0.025-0.025,0.043-0.054,0.057-0.087c0.001-0.004,0.002-0.006,0.004-0.01c0.011-0.03,0.015-0.063,0.014-0.1
		c0-0.005,0-0.01-0.001-0.016c-0.002-0.02,0.002-0.039-0.005-0.061c-0.219-0.764-0.4-1.537-0.571-2.312
		c-0.05-0.225-0.127-0.467-0.167-0.704c0.005,0.002,0.011,0.004,0.016,0.006c0.234,0.091,0.464,0.195,0.695,0.294
		c0.703,0.303,1.402,0.615,2.085,0.96c0.083,0.07,0.199,0.092,0.319,0.011c0.254-0.171,0.52-0.323,0.778-0.485
		C11.437,81.508,10.711,83.199,10.03,84.908z M14.111,78.691c0,0.001,0,0.003,0,0.005c-0.013,0.232-0.038,0.464-0.06,0.695
		c-0.071,0.784-0.151,1.566-0.27,2.344c-0.049,0.097-0.041,0.214,0.075,0.305c0.701,0.547,1.37,1.133,2.034,1.724
		c0.113,0.101,0.224,0.203,0.336,0.306c-0.068,0.017-0.136,0.036-0.204,0.052c-0.944,0.217-1.889,0.428-2.846,0.584
		c-0.143,0.023-0.209,0.12-0.216,0.228c-0.303,0.83-0.65,1.641-1.006,2.451c-0.05,0.113-0.095,0.251-0.152,0.378
		c-0.074-0.116-0.143-0.234-0.215-0.351c-0.395-0.66-0.779-1.326-1.141-2.004c0.836-2.099,1.759-4.155,2.768-6.166
		c0.063-0.037,0.123-0.079,0.186-0.116C13.626,78.991,13.865,78.815,14.111,78.691z M16.764,71.746
		c-0.487,0.126-0.976,0.244-1.466,0.355c-0.178,0.04-0.356,0.081-0.535,0.119c-0.045,0.01-0.09,0.016-0.135,0.022
		c0.011-0.042,0.025-0.083,0.04-0.123c0.071-0.187,0.153-0.371,0.23-0.555c0.296-0.7,0.599-1.396,0.937-2.077v-0.001
		c0.027-0.045,0.033-0.101-0.006-0.157c-0.406-0.595-0.783-1.209-1.152-1.829c-0.094-0.158-0.187-0.316-0.28-0.474
		c-0.042-0.071-0.083-0.141-0.123-0.213c-0.011-0.02-0.021-0.041-0.03-0.062c0.091-0.008,0.245,0.02,0.29,0.023
		c0.204,0.015,0.408,0.034,0.611,0.051c0.693,0.06,1.385,0.131,2.073,0.233c0.054,0.024,0.118,0.017,0.166-0.045
		c0.423-0.548,0.871-1.075,1.327-1.596c0.198-0.226,0.393-0.509,0.629-0.702c0.016,0.043,0.03,0.087,0.042,0.131
		c0.06,0.214,0.105,0.434,0.156,0.651c0.131,0.563,0.245,1.13,0.352,1.699C18.793,68.678,17.751,70.196,16.764,71.746z
		 M20.01,73.611L20.01,73.611c0.001,0.001,0,0.001,0.002,0.002C20.011,73.612,20.01,73.611,20.01,73.611z M22.314,68.674
		c0.17,0.074,0.399,0.143,0.557,0.249c0,0,0,0-0.001,0c-0.102,0.08-0.216,0.144-0.327,0.212c-0.752,0.456-1.505,0.908-2.285,1.315
		c-0.067,0.035-0.086,0.093-0.074,0.148c-0.024,0.816-0.094,1.628-0.171,2.44c-0.012,0.138-0.025,0.276-0.04,0.413
		c-0.005,0.042-0.011,0.083-0.019,0.125c-0.017-0.012-0.035-0.021-0.051-0.033c-0.131-0.099-0.253-0.211-0.378-0.318
		c-0.621-0.537-1.238-1.078-1.824-1.653c-0.008-0.008-0.017-0.011-0.025-0.016c-0.003-0.002-0.005-0.004-0.009-0.006
		c-0.014-0.008-0.027-0.012-0.041-0.015c0.823-1.264,1.686-2.5,2.579-3.714C20.918,68.082,21.618,68.373,22.314,68.674z
		 M27.32,58.555c-0.682-0.368-1.349-0.762-2.011-1.163c-0.11-0.067-0.225-0.132-0.327-0.212h-0.001
		c0.158-0.106,0.387-0.175,0.557-0.249c0.741-0.32,1.484-0.632,2.243-0.905c0.074-0.026,0.098-0.085,0.089-0.142
		c0.12-0.716,0.277-1.424,0.442-2.131c0.051-0.217,0.096-0.436,0.156-0.651c0.012-0.044,0.027-0.088,0.042-0.131
		c0.236,0.193,0.432,0.477,0.629,0.703c0.456,0.521,0.904,1.048,1.327,1.596c0.048,0.062,0.112,0.069,0.166,0.045
		c0.034-0.005,0.068-0.007,0.101-0.011C29.564,56.348,28.43,57.437,27.32,58.555z M27.84,61.869
		c0.002-0.001,0.001-0.001,0.002-0.002l0,0C27.842,61.868,27.841,61.869,27.84,61.869z M32.706,55.082
		c0.203-0.017,0.407-0.036,0.611-0.051c0.045-0.003,0.2-0.031,0.29-0.023c-0.009,0.021-0.018,0.042-0.03,0.062
		c-0.039,0.072-0.081,0.143-0.123,0.213c-0.094,0.158-0.187,0.316-0.28,0.474c-0.369,0.619-0.745,1.233-1.152,1.829
		c-0.039,0.057-0.033,0.113-0.006,0.157v0.001c0.339,0.681,0.642,1.377,0.937,2.077c0.077,0.185,0.159,0.368,0.23,0.555
		c0.015,0.04,0.029,0.081,0.04,0.123c-0.045-0.006-0.09-0.012-0.135-0.022c-0.179-0.038-0.357-0.079-0.535-0.119
		c-0.754-0.17-1.506-0.347-2.247-0.564c-0.006-0.002-0.01,0-0.016-0.001c-0.017-0.005-0.034-0.006-0.052-0.005
		c-0.001,0-0.002,0-0.003,0c-0.018,0.002-0.035,0.009-0.052,0.019c-0.003,0.002-0.006,0.004-0.009,0.006
		c-0.009,0.006-0.017,0.008-0.025,0.016c-0.586,0.575-1.203,1.116-1.824,1.653c-0.125,0.106-0.247,0.218-0.378,0.317
		c-0.016,0.012-0.034,0.021-0.051,0.033c-0.008-0.041-0.014-0.083-0.019-0.125c-0.016-0.138-0.028-0.276-0.04-0.413
		c-0.07-0.74-0.13-1.481-0.159-2.224c1.33-1.349,2.721-2.637,4.146-3.889C32.119,55.15,32.411,55.107,32.706,55.082z M39.511,48.497
		c-0.721-0.036-1.44-0.095-2.159-0.166c-0.174-0.017-0.347-0.034-0.522-0.052c-0.002,0-0.003-0.001-0.005-0.001
		c0-0.001,0.002-0.002,0.002-0.003c0.123-0.148,0.253-0.291,0.378-0.437c0.552-0.63,1.109-1.254,1.7-1.849
		c0.005-0.005,0.006-0.012,0.011-0.017c0.025-0.025,0.043-0.054,0.057-0.087c0.001-0.004,0.002-0.006,0.003-0.01
		c0.011-0.03,0.015-0.063,0.014-0.1c0-0.005-0.001-0.01-0.001-0.016c-0.002-0.02,0.002-0.039-0.005-0.061
		c-0.219-0.764-0.4-1.537-0.571-2.312c-0.05-0.225-0.128-0.467-0.167-0.704c0.005,0.002,0.011,0.004,0.016,0.006
		c0.234,0.091,0.464,0.195,0.695,0.294c0.703,0.303,1.402,0.615,2.085,0.96c0.083,0.07,0.199,0.092,0.319,0.011
		c0.633-0.427,1.284-0.823,1.942-1.211c0.227-0.133,0.465-0.309,0.712-0.434c0,0.001,0,0.003,0,0.005
		c-0.013,0.232-0.038,0.464-0.06,0.695c-0.071,0.784-0.151,1.566-0.27,2.344c-0.049,0.097-0.041,0.214,0.075,0.305
		c0.051,0.04,0.099,0.082,0.149,0.122C42.418,46.643,40.946,47.539,39.511,48.497z M45.796,47.384
		c0.113,0.101,0.224,0.203,0.336,0.306c-0.068,0.017-0.136,0.036-0.204,0.052c-0.945,0.217-1.89,0.428-2.847,0.584
		c-0.143,0.023-0.209,0.12-0.216,0.228c-0.303,0.83-0.65,1.641-1.006,2.451c-0.05,0.113-0.095,0.251-0.152,0.378
		c-0.074-0.116-0.143-0.234-0.215-0.351c-0.448-0.75-0.889-1.504-1.292-2.28c1.362-0.906,2.756-1.765,4.176-2.586
		C44.857,46.563,45.33,46.969,45.796,47.384z M50.889,39.804c-0.075-0.127-0.15-0.254-0.225-0.38
		c-0.034-0.057-0.067-0.113-0.098-0.171c-0.009-0.016-0.017-0.033-0.024-0.049c0.073-0.006,0.197,0.016,0.233,0.019
		c0.164,0.012,0.327,0.027,0.49,0.041c0.556,0.048,1.111,0.105,1.663,0.187c0.043,0.019,0.095,0.014,0.133-0.036
		c0.339-0.44,0.699-0.863,1.064-1.281c0.159-0.181,0.315-0.408,0.505-0.564c0.013,0.035,0.024,0.07,0.034,0.105
		c0.048,0.172,0.084,0.348,0.125,0.522c0.132,0.567,0.258,1.136,0.354,1.71c-0.007,0.046,0.012,0.093,0.072,0.114
		c0.168,0.06,0.33,0.136,0.496,0.2c-1.384,0.516-2.757,1.058-4.108,1.651c0.073-0.157,0.136-0.318,0.213-0.472v-0.001
		c0.021-0.036,0.026-0.081-0.005-0.126C51.487,40.793,51.185,40.301,50.889,39.804z M55.167,44.707L55.167,44.707
		c0.001,0.001,0,0.001,0.002,0.001C55.168,44.708,55.168,44.707,55.167,44.707z M57.016,40.746c0.136,0.059,0.32,0.115,0.447,0.2
		l0,0c-0.082,0.064-0.174,0.116-0.262,0.17c-0.603,0.366-1.208,0.729-1.833,1.055c-0.054,0.028-0.069,0.075-0.059,0.119
		c-0.02,0.654-0.076,1.306-0.137,1.958c-0.01,0.111-0.02,0.221-0.032,0.332c-0.004,0.033-0.009,0.067-0.015,0.1
		c-0.014-0.009-0.028-0.017-0.041-0.026c-0.105-0.079-0.203-0.169-0.303-0.255c-0.498-0.431-0.993-0.865-1.463-1.326
		c-0.006-0.006-0.013-0.009-0.02-0.013c-0.002-0.002-0.004-0.003-0.007-0.005c-0.014-0.008-0.028-0.013-0.042-0.015
		c-0.001,0-0.002,0-0.003,0c-0.014-0.001-0.028,0-0.041,0.004c-0.005,0.001-0.008,0-0.013,0.001
		c-0.595,0.174-1.199,0.316-1.803,0.453c-0.143,0.032-0.286,0.065-0.429,0.096c-0.036,0.008-0.072,0.013-0.108,0.018
		c0.009-0.033,0.02-0.066,0.032-0.098c0.057-0.15,0.123-0.297,0.185-0.445s0.134-0.291,0.198-0.438
		c1.685-0.762,3.392-1.486,5.14-2.129C56.606,40.583,56.813,40.658,57.016,40.746z"/>
	<path d="M114.022,38.417c-0.285,0.014-0.57,0.042-0.855,0.067c-0.665,0.058-1.328,0.127-1.989,0.222
		c-0.408-0.525-0.837-1.032-1.275-1.532c-0.197-0.225-0.387-0.462-0.599-0.674c-0.088-0.087-0.201-0.198-0.337-0.174
		c-0.13,0.023-0.199,0.142-0.239,0.258c-0.086,0.255-0.136,0.524-0.197,0.786c-0.163,0.701-0.316,1.403-0.438,2.113
		c-0.736,0.266-1.458,0.569-2.176,0.879c-0.179,0.078-0.365,0.147-0.538,0.239c-0.095,0.051-0.195,0.112-0.229,0.22
		c-0.085,0.266,0.34,0.456,0.508,0.559c0.73,0.443,1.462,0.88,2.218,1.278c0.028,0.808,0.095,1.614,0.171,2.419
		c0.017,0.182,0.022,0.372,0.061,0.551c0.023,0.106,0.069,0.235,0.186,0.269c0.122,0.036,0.229-0.023,0.326-0.091
		c0.158-0.11,0.3-0.243,0.446-0.368c0.6-0.518,1.194-1.042,1.762-1.595c0.711,0.205,1.43,0.376,2.151,0.538
		c0.236,0.053,0.473,0.119,0.713,0.153c0.121,0.017,0.275,0.02,0.351-0.097c0.075-0.116,0.035-0.254-0.006-0.375
		c-0.078-0.227-0.178-0.447-0.271-0.668c-0.284-0.672-0.576-1.339-0.898-1.993c0.387-0.572,0.749-1.159,1.101-1.751
		c0.143-0.24,0.305-0.478,0.425-0.73c0.06-0.126,0.121-0.266,0.028-0.393C114.336,38.407,114.153,38.411,114.022,38.417z
		 M108.365,45.586c0.002-0.001,0.001-0.001,0.002-0.002l0,0C108.367,45.585,108.366,45.586,108.365,45.586z M114.103,38.787
		c-0.039,0.072-0.081,0.142-0.123,0.213c-0.094,0.158-0.187,0.316-0.28,0.474c-0.369,0.619-0.745,1.233-1.152,1.829
		c-0.039,0.057-0.033,0.113-0.006,0.157v0.001c0.339,0.681,0.642,1.377,0.937,2.077c0.077,0.185,0.159,0.368,0.23,0.555
		c0.015,0.04,0.029,0.081,0.04,0.123c-0.045-0.006-0.09-0.012-0.135-0.022c-0.179-0.038-0.357-0.079-0.535-0.119
		c-0.754-0.17-1.506-0.347-2.247-0.564c-0.006-0.002-0.01,0-0.016-0.001c-0.017-0.005-0.034-0.006-0.052-0.005
		c-0.001,0-0.002,0-0.003,0c-0.018,0.002-0.035,0.009-0.052,0.019c-0.003,0.002-0.006,0.004-0.009,0.006
		c-0.009,0.006-0.018,0.009-0.026,0.016c-0.586,0.575-1.203,1.116-1.824,1.653c-0.125,0.106-0.247,0.218-0.378,0.318
		c-0.016,0.012-0.034,0.021-0.051,0.033c-0.008-0.041-0.014-0.083-0.019-0.125c-0.016-0.138-0.028-0.276-0.04-0.413
		c-0.077-0.812-0.146-1.624-0.171-2.44c0.012-0.055-0.007-0.113-0.074-0.148c-0.78-0.407-1.533-0.859-2.285-1.315
		c-0.11-0.067-0.225-0.132-0.327-0.212h-0.001c0.158-0.105,0.387-0.175,0.557-0.249c0.741-0.32,1.484-0.632,2.243-0.905
		c0.074-0.026,0.098-0.085,0.089-0.142c0.12-0.716,0.277-1.424,0.442-2.131c0.051-0.217,0.096-0.436,0.156-0.651
		c0.012-0.044,0.027-0.088,0.042-0.131c0.236,0.193,0.432,0.477,0.629,0.702c0.456,0.521,0.904,1.048,1.327,1.596
		c0.048,0.062,0.112,0.069,0.166,0.045c0.688-0.102,1.38-0.172,2.073-0.233c0.204-0.017,0.407-0.036,0.611-0.051
		c0.045-0.003,0.2-0.031,0.29-0.023C114.123,38.746,114.114,38.767,114.103,38.787z"/>
	<path d="M130.941,48.066c-0.581-0.52-1.169-1.032-1.78-1.518c0.109-0.728,0.192-1.459,0.262-2.192
		c0.032-0.334,0.079-0.672,0.081-1.009c0.001-0.188-0.053-0.362-0.227-0.456c-0.155-0.084-0.35-0.022-0.496,0.052
		c-0.308,0.157-0.603,0.34-0.901,0.513c-0.612,0.358-1.217,0.725-1.809,1.115c-0.635-0.319-1.282-0.614-1.934-0.897
		c-0.296-0.129-0.591-0.27-0.895-0.382c-0.155-0.057-0.344-0.123-0.504-0.041c-0.451,0.233-0.124,1.04-0.047,1.389
		c0.163,0.758,0.341,1.513,0.546,2.261c-0.594,0.6-1.159,1.227-1.716,1.861c-0.201,0.229-0.625,0.567-0.572,0.915
		c0.059,0.382,0.58,0.386,0.87,0.417c0.917,0.095,1.835,0.183,2.757,0.224c0.404,0.778,0.843,1.536,1.29,2.289
		c0.18,0.302,0.343,0.742,0.75,0.746c0.355,0.004,0.539-0.657,0.644-0.891c0.346-0.78,0.682-1.564,0.981-2.363
		c0.779-0.13,1.551-0.291,2.322-0.464c0.317-0.071,1.117-0.105,1.19-0.54C131.822,48.68,131.196,48.297,130.941,48.066z
		 M130.999,48.928c-0.171,0.039-0.341,0.077-0.511,0.115c-0.831,0.186-1.663,0.363-2.505,0.497c-0.006,0.001-0.01,0.005-0.016,0.006
		c-0.092,0.009-0.179,0.058-0.221,0.174c-0.313,0.849-0.672,1.679-1.039,2.507c-0.057,0.125-0.111,0.251-0.17,0.375
		c-0.072-0.119-0.133-0.25-0.197-0.356c-0.451-0.76-0.895-1.523-1.297-2.31c-0.02-0.106-0.097-0.194-0.243-0.199
		c-0.969-0.038-1.932-0.133-2.896-0.233c-0.069-0.007-0.139-0.019-0.209-0.027c0.098-0.115,0.196-0.231,0.296-0.345
		c0.587-0.667,1.179-1.33,1.809-1.959c0.104-0.104,0.098-0.221,0.038-0.312c-0.213-0.757-0.388-1.524-0.554-2.293
		c-0.05-0.227-0.103-0.454-0.144-0.683c0-0.002,0-0.003-0.001-0.005c0.26,0.094,0.518,0.239,0.759,0.344
		c0.7,0.304,1.394,0.618,2.075,0.965c0.129,0.066,0.242,0.03,0.316-0.05c0.636-0.426,1.292-0.821,1.952-1.207
		c0.217-0.126,0.433-0.258,0.654-0.376c0.005-0.003,0.011-0.005,0.016-0.008c-0.011,0.24-0.058,0.49-0.08,0.719
		c-0.076,0.791-0.161,1.58-0.285,2.364c-0.004,0.023,0.002,0.04,0.003,0.061c0,0.005,0,0.01,0.001,0.016
		c0.003,0.036,0.011,0.068,0.026,0.097c0.002,0.003,0.003,0.006,0.005,0.009c0.018,0.031,0.039,0.057,0.067,0.079
		c0.005,0.005,0.007,0.011,0.013,0.015c0.659,0.518,1.289,1.07,1.913,1.628c0.143,0.129,0.288,0.256,0.429,0.387
		c0.001,0,0.002,0.002,0.003,0.002C131.002,48.927,131,48.928,130.999,48.928z"/>
</g>
<path d="M165.189,100.184c-0.172-0.092-0.359-0.161-0.538-0.239c-0.718-0.31-1.44-0.612-2.176-0.879
	c-0.122-0.709-0.275-1.412-0.438-2.113c-0.061-0.262-0.111-0.53-0.197-0.786c-0.039-0.116-0.108-0.235-0.239-0.258
	c-0.136-0.024-0.249,0.087-0.337,0.174c-0.211,0.211-0.402,0.449-0.599,0.674c-0.147,0.168-0.284,0.345-0.429,0.515
	c-0.773-3.527-1.774-6.97-3.002-10.304c0.548-0.036,1.096-0.07,1.642-0.123c0.323-0.032,1.121,0.032,1.247-0.391
	c0.122-0.406-0.453-0.863-0.678-1.123c-0.513-0.587-1.035-1.167-1.581-1.724c0.197-0.709,0.368-1.425,0.527-2.144
	c0.073-0.328,0.16-0.658,0.203-0.991c0.024-0.186-0.008-0.365-0.17-0.48c-0.144-0.103-0.345-0.065-0.499-0.009
	c-0.325,0.118-0.64,0.264-0.957,0.399c-0.651,0.281-1.296,0.571-1.932,0.887c-0.07-0.047-0.145-0.088-0.216-0.134
	c-1.131-2.444-2.379-4.823-3.746-7.124c0.006-0.007,0.016-0.005,0.021-0.013c0.075-0.116,0.035-0.254-0.006-0.375
	c-0.078-0.227-0.178-0.447-0.271-0.668c-0.284-0.672-0.576-1.339-0.898-1.993c0.387-0.571,0.749-1.159,1.101-1.751
	c0.143-0.24,0.305-0.478,0.425-0.73c0.06-0.126,0.121-0.266,0.028-0.393c-0.087-0.119-0.27-0.115-0.401-0.108
	c-0.285,0.014-0.57,0.042-0.855,0.067c-0.665,0.058-1.328,0.127-1.989,0.222c-0.408-0.525-0.837-1.032-1.275-1.532
	c-0.197-0.225-0.387-0.462-0.599-0.674c-0.088-0.087-0.201-0.198-0.337-0.174c-0.13,0.023-0.199,0.142-0.239,0.258
	c-0.006,0.019-0.009,0.039-0.015,0.059c-1.796-2.339-3.704-4.588-5.745-6.71c0.7-0.375,1.382-0.779,2.061-1.19
	c0.168-0.102,0.593-0.293,0.508-0.559c-0.035-0.108-0.134-0.169-0.229-0.22c-0.172-0.092-0.359-0.161-0.538-0.239
	c-0.718-0.31-1.44-0.612-2.176-0.879c-0.122-0.709-0.275-1.412-0.438-2.113c-0.061-0.262-0.111-0.53-0.197-0.786
	c-0.039-0.116-0.108-0.235-0.239-0.258c-0.136-0.024-0.249,0.087-0.337,0.174c-0.211,0.211-0.402,0.449-0.599,0.674
	c-0.437,0.5-0.867,1.007-1.275,1.532c-0.19-0.028-0.382-0.041-0.573-0.064c-13.98-12.616-32.483-20.311-52.752-20.311
	c-2.076,0-4.175,0.082-6.238,0.244c-0.138,0.011-0.241,0.131-0.229,0.269c0.011,0.138,0.131,0.243,0.269,0.229
	c2.05-0.16,4.135-0.242,6.199-0.242c19.884,0,38.05,7.461,51.877,19.714c-0.18-0.018-0.36-0.045-0.54-0.06
	c-0.285-0.024-0.57-0.052-0.855-0.067c-0.131-0.007-0.314-0.01-0.401,0.108c-0.093,0.127-0.032,0.266,0.028,0.393
	c0.121,0.252,0.283,0.49,0.425,0.73c0.353,0.593,0.714,1.18,1.101,1.751c-0.322,0.654-0.615,1.322-0.898,1.993
	c-0.093,0.221-0.193,0.441-0.271,0.668c-0.041,0.12-0.081,0.259-0.006,0.375c0.076,0.117,0.229,0.114,0.351,0.097
	c0.24-0.034,0.477-0.1,0.713-0.153c0.721-0.162,1.44-0.333,2.151-0.538c0.568,0.553,1.162,1.077,1.762,1.595
	c0.146,0.125,0.288,0.258,0.446,0.368c0.098,0.068,0.204,0.127,0.326,0.091c0.117-0.034,0.162-0.163,0.186-0.269
	c0.039-0.179,0.044-0.369,0.061-0.551c0.062-0.657,0.112-1.315,0.146-1.974c2.053,2.149,3.97,4.428,5.772,6.798
	c-0.008,0.036-0.018,0.071-0.027,0.106c-0.163,0.701-0.316,1.404-0.438,2.113c-0.736,0.266-1.458,0.569-2.176,0.879
	c-0.179,0.078-0.365,0.147-0.537,0.239c-0.095,0.051-0.195,0.112-0.229,0.22c-0.085,0.266,0.34,0.456,0.508,0.559
	c0.73,0.443,1.462,0.88,2.218,1.278c0.028,0.808,0.095,1.614,0.171,2.419c0.017,0.182,0.022,0.372,0.061,0.551
	c0.023,0.106,0.069,0.235,0.186,0.269c0.122,0.036,0.228-0.023,0.326-0.091c0.158-0.11,0.3-0.243,0.446-0.368
	c0.6-0.518,1.194-1.042,1.762-1.595c0.711,0.205,1.43,0.376,2.151,0.538c0.155,0.035,0.313,0.067,0.47,0.101
	c1.278,2.137,2.455,4.341,3.53,6.602c-0.27-0.166-0.533-0.341-0.806-0.501c-0.278-0.164-0.554-0.34-0.841-0.488
	c-0.147-0.076-0.326-0.164-0.495-0.102c-0.476,0.176-0.25,1.017-0.216,1.373c0.07,0.773,0.154,1.543,0.266,2.311
	c-0.663,0.523-1.299,1.077-1.93,1.638c-0.228,0.203-0.69,0.486-0.68,0.839c0.012,0.386,0.529,0.454,0.812,0.52
	c0.899,0.206,1.799,0.405,2.709,0.558c0.306,0.821,0.649,1.627,1.002,2.429c0.142,0.322,0.25,0.778,0.653,0.832
	c0.351,0.047,0.615-0.587,0.747-0.806c0.438-0.732,0.867-1.469,1.262-2.225c0.065-0.003,0.13-0.011,0.195-0.015
	c1.289,3.477,2.324,7.074,3.114,10.761c-0.143,0.175-0.295,0.343-0.434,0.521c-0.661-0.096-1.324-0.164-1.989-0.222
	c-0.285-0.024-0.57-0.052-0.855-0.067c-0.131-0.007-0.314-0.01-0.401,0.108c-0.093,0.127-0.032,0.266,0.028,0.393
	c0.121,0.252,0.283,0.49,0.425,0.73c0.353,0.593,0.714,1.18,1.101,1.751c-0.322,0.654-0.615,1.322-0.898,1.993
	c-0.093,0.221-0.193,0.441-0.271,0.668c-0.041,0.12-0.081,0.259-0.006,0.375c0.076,0.117,0.229,0.114,0.351,0.097
	c0.24-0.034,0.477-0.1,0.713-0.153c0.721-0.162,1.44-0.333,2.151-0.538c0.394,0.384,0.81,0.743,1.223,1.107
	c0.385,3.13,0.6,6.312,0.6,9.545c0,0.138,0.112,0.25,0.25,0.25s0.25-0.112,0.25-0.25c0-3.059-0.195-6.071-0.538-9.038
	c0.138,0.119,0.274,0.245,0.424,0.349c0.098,0.068,0.204,0.127,0.326,0.091c0.117-0.034,0.162-0.163,0.186-0.269
	c0.039-0.179,0.044-0.369,0.061-0.551c0.076-0.805,0.143-1.611,0.171-2.419c0.756-0.398,1.488-0.835,2.218-1.278
	c0.168-0.102,0.593-0.293,0.508-0.559C165.384,100.296,165.285,100.235,165.189,100.184z M139.376,62.509
	C139.376,62.51,139.376,62.509,139.376,62.509c0.001,0.001,0,0.001,0.002,0.002C139.377,62.511,139.377,62.51,139.376,62.509z
	 M139.38,61.936c-0.012,0.138-0.025,0.276-0.04,0.413c-0.005,0.042-0.011,0.083-0.019,0.125c-0.017-0.012-0.035-0.021-0.051-0.033
	c-0.131-0.099-0.253-0.211-0.378-0.318c-0.621-0.537-1.238-1.078-1.824-1.653c-0.008-0.008-0.017-0.011-0.025-0.016
	c-0.003-0.002-0.005-0.004-0.009-0.006c-0.017-0.01-0.034-0.017-0.052-0.019c-0.001,0-0.002,0-0.003,0
	c-0.018-0.002-0.035-0.001-0.052,0.005c-0.006,0.001-0.01,0-0.016,0.001c-0.742,0.217-1.494,0.394-2.247,0.564
	c-0.178,0.04-0.356,0.081-0.535,0.119c-0.045,0.01-0.09,0.016-0.135,0.022c0.011-0.042,0.025-0.083,0.04-0.123
	c0.071-0.187,0.153-0.371,0.23-0.555c0.296-0.7,0.599-1.396,0.937-2.077v-0.001c0.027-0.045,0.033-0.101-0.006-0.157
	c-0.406-0.595-0.783-1.209-1.152-1.829c-0.094-0.158-0.187-0.316-0.28-0.474c-0.042-0.071-0.083-0.141-0.123-0.213
	c-0.012-0.02-0.021-0.041-0.03-0.062c0.091-0.008,0.245,0.02,0.29,0.023c0.204,0.015,0.408,0.034,0.611,0.051
	c0.345,0.03,0.688,0.078,1.032,0.116c1.38,1.24,2.706,2.536,3.995,3.87C139.51,60.454,139.45,61.195,139.38,61.936z M139.795,59.254
	c-1.102-1.137-2.228-2.25-3.396-3.318c0.062,0.009,0.125,0.012,0.187,0.021c0.054,0.024,0.118,0.017,0.166-0.045
	c0.423-0.548,0.871-1.075,1.327-1.596c0.198-0.226,0.393-0.509,0.629-0.703c0.016,0.043,0.03,0.088,0.042,0.131
	c0.06,0.214,0.105,0.434,0.156,0.651c0.165,0.707,0.321,1.415,0.442,2.131c-0.009,0.058,0.015,0.116,0.089,0.142
	c0.76,0.272,1.503,0.585,2.243,0.905c0.17,0.074,0.399,0.143,0.557,0.249c0,0,0,0-0.001,0c-0.102,0.08-0.216,0.144-0.327,0.212
	C141.213,58.456,140.514,58.871,139.795,59.254z M145.419,75.148c0.002-0.001,0.001-0.001,0.002-0.002l0,0
	C145.421,75.147,145.42,75.148,145.419,75.148z M150.134,73.637c-0.754-0.17-1.506-0.347-2.248-0.564
	c-0.006-0.002-0.01,0-0.016-0.001c-0.017-0.005-0.034-0.006-0.052-0.005c-0.001,0-0.002,0-0.003,0
	c-0.018,0.002-0.035,0.009-0.052,0.019c-0.003,0.002-0.006,0.004-0.009,0.006c-0.009,0.006-0.017,0.008-0.025,0.016
	c-0.586,0.575-1.203,1.116-1.824,1.653c-0.125,0.106-0.247,0.218-0.378,0.317c-0.016,0.012-0.034,0.021-0.051,0.033
	c-0.008-0.041-0.014-0.083-0.019-0.125c-0.015-0.138-0.028-0.276-0.04-0.413c-0.077-0.812-0.146-1.624-0.171-2.44
	c0.012-0.055-0.007-0.113-0.074-0.148c-0.78-0.407-1.533-0.859-2.285-1.315c-0.11-0.067-0.225-0.132-0.327-0.212h-0.001
	c0.158-0.106,0.387-0.175,0.557-0.249c0.741-0.32,1.484-0.632,2.243-0.905c0.074-0.026,0.098-0.085,0.089-0.142
	c0.113-0.673,0.261-1.339,0.415-2.004c1.573,2.092,3.045,4.262,4.406,6.508C150.225,73.657,150.18,73.647,150.134,73.637z
	 M146.013,66.525c0.012-0.048,0.021-0.097,0.035-0.145c0.012-0.044,0.027-0.088,0.042-0.131c0.236,0.193,0.432,0.477,0.629,0.703
	c0.456,0.521,0.904,1.048,1.327,1.596c0.048,0.062,0.112,0.069,0.166,0.045c0.688-0.102,1.38-0.172,2.073-0.233
	c0.203-0.017,0.407-0.036,0.611-0.051c0.045-0.003,0.2-0.031,0.29-0.023c-0.009,0.021-0.018,0.042-0.03,0.062
	c-0.039,0.072-0.081,0.143-0.123,0.213c-0.094,0.158-0.187,0.316-0.28,0.474c-0.369,0.619-0.745,1.233-1.151,1.829
	c-0.039,0.057-0.033,0.113-0.006,0.157v0.001c0.339,0.681,0.642,1.377,0.938,2.077c0.016,0.039,0.032,0.079,0.049,0.118
	C149.173,70.906,147.646,68.674,146.013,66.525z M156.331,86.435c-0.006,0-0.011,0.003-0.016,0.004
	c-0.092-0.003-0.184,0.036-0.241,0.146c-0.414,0.805-0.872,1.585-1.336,2.361c-0.071,0.117-0.141,0.236-0.215,0.351
	c-0.057-0.127-0.102-0.264-0.152-0.378c-0.356-0.809-0.703-1.62-1.006-2.451c-0.007-0.108-0.073-0.204-0.216-0.227
	c-0.957-0.156-1.902-0.368-2.846-0.584c-0.068-0.016-0.136-0.035-0.204-0.052c0.112-0.103,0.223-0.206,0.336-0.306
	c0.664-0.591,1.333-1.177,2.034-1.724c0.116-0.091,0.125-0.208,0.075-0.305c-0.119-0.778-0.199-1.56-0.27-2.344
	c-0.022-0.231-0.047-0.463-0.06-0.695c0-0.002,0-0.003,0-0.005c0.246,0.125,0.485,0.301,0.712,0.434
	c0.529,0.312,1.048,0.64,1.563,0.975c0.719,1.57,1.388,3.167,2.005,4.791C156.439,86.428,156.385,86.433,156.331,86.435z
	 M155.153,81.874c0.01-0.007,0.024-0.006,0.033-0.014c0.683-0.345,1.382-0.657,2.085-0.96c0.231-0.099,0.461-0.203,0.695-0.294
	c0.005-0.002,0.011-0.004,0.016-0.006c-0.04,0.237-0.118,0.479-0.167,0.704c-0.171,0.775-0.353,1.548-0.571,2.312
	c-0.006,0.022-0.003,0.04-0.005,0.061c-0.001,0.005-0.001,0.01-0.001,0.016c-0.001,0.036,0.003,0.069,0.014,0.1
	c0.001,0.003,0.002,0.006,0.004,0.01c0.014,0.033,0.032,0.062,0.057,0.087c0.005,0.005,0.006,0.012,0.011,0.017
	c0.591,0.594,1.148,1.219,1.7,1.849c0.126,0.146,0.255,0.289,0.378,0.437c0.001,0.001,0.002,0.002,0.002,0.003
	c-0.002,0-0.003,0-0.005,0.001c-0.174,0.018-0.348,0.035-0.522,0.052c-0.618,0.061-1.236,0.11-1.855,0.148
	C156.445,84.864,155.821,83.357,155.153,81.874z M159.895,103.13c-0.008-0.008-0.017-0.011-0.025-0.016
	c-0.003-0.002-0.005-0.004-0.009-0.006c-0.017-0.01-0.034-0.017-0.052-0.019c-0.001,0-0.002,0-0.003,0
	c-0.018-0.002-0.035-0.001-0.052,0.005c-0.006,0.001-0.01,0-0.016,0.001c-0.742,0.217-1.494,0.394-2.247,0.564
	c-0.178,0.04-0.356,0.081-0.535,0.119c-0.045,0.01-0.09,0.016-0.135,0.022c0.011-0.042,0.025-0.083,0.04-0.123
	c0.071-0.187,0.153-0.371,0.23-0.555c0.296-0.7,0.599-1.396,0.937-2.077v-0.001c0.027-0.045,0.033-0.101-0.006-0.157
	c-0.406-0.595-0.783-1.209-1.152-1.829c-0.094-0.158-0.187-0.316-0.28-0.474c-0.042-0.071-0.083-0.141-0.123-0.213
	c-0.012-0.02-0.021-0.041-0.03-0.062c0.091-0.008,0.245,0.02,0.29,0.023c0.204,0.015,0.408,0.034,0.611,0.051
	c0.693,0.06,1.385,0.131,2.073,0.233c0.054,0.024,0.118,0.017,0.166-0.045c0.105-0.136,0.222-0.263,0.33-0.397
	c0.404,1.935,0.744,3.892,1.001,5.876C160.569,103.745,160.221,103.45,159.895,103.13z M162.202,105.169
	C162.203,105.169,162.203,105.169,162.202,105.169c0.001,0.001,0,0.001,0.002,0.002C162.204,105.17,162.203,105.169,162.202,105.169
	z M165.063,100.481c-0.102,0.08-0.216,0.144-0.327,0.212c-0.752,0.456-1.505,0.908-2.285,1.315
	c-0.067,0.035-0.086,0.093-0.074,0.148c-0.024,0.816-0.094,1.628-0.171,2.44c-0.012,0.138-0.025,0.276-0.04,0.413
	c-0.005,0.042-0.011,0.083-0.019,0.125c-0.017-0.012-0.035-0.021-0.051-0.033c-0.131-0.099-0.253-0.211-0.378-0.318
	c-0.084-0.073-0.164-0.151-0.248-0.224c-0.283-2.327-0.668-4.621-1.151-6.881c0.196-0.233,0.384-0.474,0.585-0.703
	c0.198-0.226,0.393-0.509,0.629-0.703c0.016,0.043,0.03,0.087,0.042,0.131c0.06,0.214,0.105,0.434,0.156,0.651
	c0.165,0.707,0.321,1.415,0.442,2.131c-0.009,0.058,0.015,0.116,0.089,0.142c0.76,0.272,1.503,0.585,2.243,0.905
	C164.677,100.306,164.906,100.375,165.063,100.481L165.063,100.481z"/>
<path fill="#F2DCA5" d="M121.194,82.366c-1.977-1.233-4.218-1.974-6.468-2.576c-9.391-2.51-19.225-2.741-28.918-2.666
	c-0.97,0-2.014,0.008-3.073,0.031c-0.177,0.002-0.354,0.004-0.531,0.006c-5.841,0.073-11.742,0.174-17.543,0.827
	c-4.589,0.516-9.115,1.378-13.498,2.844c-2.21,0.739-4.451,1.669-6.202,3.249c-0.875,0.789-1.495,1.428-1.042,2.645
	c0.4,1.073,1.431,1.882,2.401,2.417c2.243,1.237,4.776,1.839,7.29,2.331c5.979,1.169,12.055,1.791,18.138,2.115
	c12.56,0.669,25.205,0.07,37.591-2.111c3.866-0.681,7.748-1.529,11.283-3.236c1.275-0.616,2.654-1.593,2.671-3.008
	C123.307,83.995,122.246,83.022,121.194,82.366z"/>
<path fill="#F2DCA5" d="M41.581,51.463c-0.052-0.082-0.216-0.354-0.216-0.354c-0.423-0.708-0.91-1.532-1.342-2.371
	c-0.023-0.045-0.053-0.065-0.099-0.065h-0.025l-0.04-0.01c-0.849-0.025-1.716-0.103-2.522-0.183l-0.522-0.052h-0.364l0.27-0.256
	c0.072-0.087,0.153-0.18,0.235-0.273l0.137-0.158c0.528-0.603,1.1-1.245,1.707-1.856l0.175,0.002l-0.139-0.056l0.005-0.09
	c-0.233-0.817-0.42-1.631-0.572-2.319c-0.019-0.086-0.042-0.174-0.066-0.264c-0.039-0.148-0.078-0.299-0.103-0.447l-0.044-0.26
	l0.246,0.096c0.183,0.07,0.348,0.142,0.512,0.213l0.203,0.088c0.625,0.27,1.363,0.595,2.094,0.964
	c0.051,0.037,0.073,0.046,0.096,0.046c0.022,0,0.047-0.009,0.073-0.026c0.691-0.466,1.405-0.895,1.949-1.215
	c0.085-0.05,0.173-0.107,0.261-0.164c0.15-0.097,0.303-0.196,0.459-0.275l0.218-0.11v0.244c-0.011,0.196-0.028,0.38-0.046,0.562
	l-0.015,0.152c-0.064,0.702-0.145,1.531-0.271,2.353c-0.038,0.092-0.029,0.127,0.019,0.164c0.726,0.567,1.407,1.165,2.042,1.73
	c0.094,0.084,0.544,0.497,0.544,0.497l-0.478,0.119c-0.956,0.219-1.893,0.429-2.856,0.586c-0.06,0.01-0.088,0.037-0.091,0.089
	c-0.316,0.884-0.675,1.721-1.018,2.501c-0.023,0.052-0.045,0.11-0.067,0.168c-0.027,0.07-0.054,0.142-0.085,0.21l-0.114,0.254
	L41.581,51.463z"/>
<path fill="#F2DCA5" d="M11.675,87.842c-0.052-0.082-0.216-0.354-0.216-0.354c-0.423-0.708-0.91-1.532-1.342-2.371
	c-0.023-0.045-0.053-0.065-0.099-0.065H9.993l-0.04-0.01c-0.849-0.025-1.716-0.103-2.522-0.183l-0.522-0.052H6.545l0.27-0.256
	c0.072-0.087,0.153-0.18,0.235-0.273l0.137-0.158c0.528-0.603,1.1-1.245,1.707-1.856l0.175,0.002L8.93,82.21l0.005-0.09
	c-0.233-0.817-0.42-1.631-0.572-2.319c-0.019-0.086-0.042-0.174-0.066-0.264c-0.039-0.148-0.078-0.299-0.103-0.447L8.15,78.83
	l0.246,0.096c0.183,0.07,0.348,0.142,0.512,0.213l0.203,0.088c0.625,0.27,1.363,0.595,2.094,0.964
	c0.051,0.037,0.073,0.046,0.096,0.046c0.022,0,0.047-0.009,0.073-0.026c0.691-0.466,1.405-0.895,1.949-1.215
	c0.085-0.05,0.173-0.107,0.261-0.164c0.15-0.097,0.303-0.196,0.459-0.275l0.218-0.11v0.244c-0.011,0.196-0.028,0.38-0.046,0.562
	L14.2,79.405c-0.064,0.702-0.145,1.531-0.271,2.353c-0.038,0.092-0.029,0.127,0.019,0.164c0.726,0.567,1.407,1.165,2.042,1.73
	c0.094,0.084,0.544,0.497,0.544,0.497l-0.478,0.119c-0.956,0.219-1.893,0.429-2.856,0.586c-0.06,0.01-0.088,0.037-0.091,0.089
	c-0.316,0.884-0.675,1.721-1.018,2.501c-0.023,0.052-0.045,0.11-0.067,0.168c-0.027,0.07-0.054,0.142-0.085,0.21l-0.114,0.254
	L11.675,87.842z"/>
<path fill="#F2DCA5" d="M126.672,52.667c0.042-0.088,0.172-0.378,0.172-0.378c0.333-0.754,0.717-1.631,1.043-2.517
	c0.018-0.048,0.044-0.071,0.09-0.076l0.025-0.003l0.038-0.015c0.84-0.129,1.691-0.312,2.481-0.489l0.512-0.116l0.362-0.044
	l-0.299-0.221c-0.082-0.077-0.174-0.16-0.267-0.242l-0.156-0.14c-0.598-0.534-1.244-1.102-1.92-1.635l-0.173,0.023l0.131-0.073
	l-0.016-0.089c0.131-0.839,0.218-1.67,0.285-2.372c0.008-0.088,0.021-0.178,0.033-0.27c0.021-0.151,0.041-0.306,0.048-0.457
	l0.012-0.263l-0.232,0.125c-0.173,0.092-0.328,0.183-0.482,0.274l-0.191,0.112c-0.588,0.344-1.28,0.757-1.96,1.212
	c-0.046,0.043-0.067,0.055-0.09,0.058c-0.022,0.003-0.047-0.003-0.075-0.017c-0.743-0.379-1.503-0.717-2.083-0.969
	c-0.091-0.04-0.184-0.085-0.279-0.131c-0.16-0.078-0.325-0.157-0.489-0.217l-0.229-0.083l0.03,0.242
	c0.034,0.193,0.074,0.373,0.114,0.553l0.033,0.149c0.149,0.689,0.331,1.502,0.556,2.302c0.049,0.087,0.044,0.122,0.001,0.165
	c-0.652,0.651-1.254,1.328-1.815,1.966c-0.083,0.095-0.479,0.56-0.479,0.56l0.489,0.06c0.975,0.101,1.931,0.195,2.906,0.234
	c0.06,0.003,0.092,0.026,0.101,0.078c0.421,0.839,0.88,1.626,1.315,2.358c0.029,0.049,0.058,0.103,0.087,0.159
	c0.035,0.066,0.071,0.134,0.11,0.198l0.144,0.238L126.672,52.667z"/>
<path fill="#F2DCA5" d="M154.649,89.378c0.052-0.082,0.216-0.354,0.216-0.354c0.423-0.708,0.91-1.532,1.342-2.371
	c0.023-0.045,0.053-0.065,0.099-0.065h0.025l0.04-0.01c0.849-0.025,1.716-0.103,2.522-0.183l0.522-0.052h0.364l-0.27-0.256
	c-0.072-0.087-0.153-0.18-0.235-0.273l-0.137-0.158c-0.528-0.603-1.1-1.245-1.707-1.856l-0.175,0.002l0.139-0.056l-0.005-0.09
	c0.233-0.817,0.42-1.631,0.572-2.319c0.019-0.086,0.042-0.174,0.066-0.264c0.039-0.148,0.078-0.299,0.103-0.447l0.044-0.26
	l-0.246,0.096c-0.183,0.07-0.348,0.142-0.512,0.213l-0.203,0.088c-0.625,0.27-1.363,0.595-2.094,0.964
	c-0.051,0.037-0.073,0.046-0.096,0.046c-0.022,0-0.047-0.009-0.073-0.026c-0.691-0.466-1.405-0.895-1.949-1.215
	c-0.085-0.05-0.173-0.107-0.261-0.164c-0.15-0.097-0.303-0.196-0.459-0.275l-0.218-0.11v0.244c0.011,0.196,0.028,0.38,0.046,0.562
	l0.015,0.152c0.064,0.702,0.145,1.531,0.271,2.353c0.038,0.092,0.029,0.127-0.019,0.164c-0.726,0.567-1.407,1.165-2.042,1.73
	c-0.094,0.084-0.544,0.497-0.544,0.497l0.478,0.119c0.956,0.219,1.893,0.429,2.856,0.586c0.06,0.01,0.088,0.037,0.091,0.089
	c0.316,0.884,0.675,1.721,1.018,2.501c0.023,0.052,0.045,0.11,0.067,0.168c0.027,0.07,0.054,0.142,0.085,0.21l0.114,0.254
	L154.649,89.378z"/>
<g>
	<path d="M92.421,82.359l-1.779-3.25v-8.506c0-0.552-0.447-1-1-1s-1,0.448-1,1v7.827c-0.008,0.011-0.018,0.018-0.025,0.029
		l-2.543,3.826c-0.306,0.46-0.181,1.081,0.279,1.387c0.457,0.303,1.081,0.18,1.387-0.279l0.515-0.775l-0.009,0.167
		c-0.029,0.552,0.394,1.023,0.945,1.052c0.019,0.001,0.036,0.001,0.055,0.001c0.527,0,0.969-0.413,0.998-0.946l0.017-0.316
		l0.407,0.743c0.182,0.332,0.524,0.52,0.878,0.52c0.162,0,0.327-0.04,0.479-0.123C92.509,83.452,92.687,82.844,92.421,82.359z"/>
	<path d="M83.039,79.199v-8.595c0-0.552-0.447-1-1-1s-1,0.448-1,1v7.77c-0.024,0.03-0.053,0.055-0.074,0.087l-2.542,3.826
		c-0.306,0.46-0.18,1.081,0.28,1.386c0.459,0.305,1.08,0.18,1.386-0.28l0.515-0.775l-0.009,0.169
		c-0.029,0.551,0.394,1.022,0.945,1.052c0.019,0.001,0.036,0.001,0.055,0.001c0.527,0,0.969-0.414,0.998-0.947l0.017-0.316
		l0.407,0.743c0.182,0.332,0.524,0.52,0.878,0.52c0.162,0,0.327-0.04,0.479-0.123c0.484-0.265,0.662-0.873,0.396-1.357
		L83.039,79.199z"/>
</g>
<path fill="#E03638" d="M87.917,101.227l-0.227,0.006c-2.456,0.075-4.883,0.105-7.216,0.09l-1.263-0.015l0.943,72.439l0.218,0.003
	c2.855,0.037,5.637,0.013,8.269-0.073l0.219-0.008L87.917,101.227z M81.18,108.396c-0.002-0.027,0.013-0.055,0.045-0.06
	c0.592-0.098,1.182-0.202,1.772-0.304c0.254-0.579,0.512-1.157,0.763-1.738c0.014-0.026,0.034-0.036,0.055-0.036
	c0.001,0,0.003,0,0.005,0c0.001,0,0.004,0,0.004-0.001c0.02,0,0.04,0.009,0.054,0.035c0.267,0.575,0.539,1.147,0.809,1.719
	c0.589,0.086,1.179,0.174,1.766,0.256c0.036,0.003,0.05,0.032,0.048,0.059c0.004,0.021,0,0.042-0.016,0.06
	c-0.421,0.451-0.836,0.907-1.254,1.361c0.108,0.626,0.213,1.252,0.322,1.879c0.013,0.045-0.021,0.1-0.07,0.095
	c-0.013,0-0.026-0.004-0.038-0.015c-0.521-0.291-1.048-0.58-1.571-0.868c-0.517,0.302-1.035,0.604-1.549,0.909
	c-0.011,0.011-0.024,0.015-0.037,0.016c-0.049,0.006-0.085-0.048-0.073-0.094c0.093-0.63,0.182-1.259,0.274-1.888
	c-0.43-0.442-0.858-0.887-1.289-1.327C81.18,108.438,81.177,108.418,81.18,108.396z M81.328,119.785
	c-0.002-0.027,0.014-0.055,0.046-0.059c0.592-0.099,1.182-0.202,1.772-0.304c0.255-0.579,0.511-1.156,0.763-1.739
	c0.013-0.025,0.033-0.035,0.054-0.035c0.001,0,0.003,0,0.003,0c0.002,0,0.005,0,0.006,0c0.021,0,0.041,0.009,0.055,0.034
	c0.267,0.575,0.538,1.147,0.808,1.721c0.589,0.085,1.177,0.172,1.768,0.256c0.035,0.003,0.049,0.03,0.046,0.057
	c0.005,0.022,0,0.042-0.015,0.063c-0.42,0.45-0.836,0.906-1.253,1.36c0.107,0.626,0.212,1.252,0.322,1.88
	c0.013,0.043-0.022,0.098-0.07,0.093c-0.014,0.001-0.026-0.004-0.039-0.013c-0.521-0.292-1.047-0.58-1.57-0.87
	c-0.517,0.303-1.035,0.605-1.55,0.91c-0.011,0.01-0.023,0.014-0.038,0.015c-0.049,0.005-0.084-0.049-0.073-0.093
	c0.094-0.631,0.183-1.259,0.274-1.888c-0.43-0.443-0.858-0.888-1.289-1.326C81.329,119.826,81.325,119.807,81.328,119.785z
	 M81.478,131.175c-0.003-0.029,0.013-0.055,0.045-0.06c0.592-0.098,1.181-0.202,1.772-0.304c0.254-0.58,0.511-1.156,0.763-1.738
	c0.014-0.025,0.033-0.035,0.054-0.036c0.001,0,0.004,0,0.004-0.001c0.002,0.001,0.005,0.001,0.005,0.001
	c0.02,0,0.04,0.009,0.054,0.034c0.266,0.574,0.538,1.146,0.809,1.721c0.59,0.084,1.178,0.172,1.767,0.255
	c0.035,0.003,0.049,0.031,0.046,0.057c0.005,0.021,0.001,0.042-0.015,0.062c-0.42,0.451-0.836,0.906-1.253,1.36
	c0.107,0.627,0.212,1.253,0.321,1.88c0.014,0.043-0.021,0.099-0.07,0.095c-0.014,0.001-0.026-0.004-0.039-0.014
	c-0.521-0.292-1.047-0.581-1.571-0.87c-0.517,0.303-1.036,0.606-1.55,0.91c-0.011,0.01-0.023,0.015-0.037,0.016
	c-0.049,0.004-0.085-0.049-0.073-0.094c0.093-0.629,0.182-1.258,0.273-1.886c-0.43-0.444-0.858-0.887-1.289-1.328
	C81.478,131.215,81.474,131.195,81.478,131.175z M81.625,142.564c-0.002-0.029,0.014-0.056,0.045-0.06
	c0.593-0.099,1.182-0.203,1.772-0.304c0.254-0.58,0.511-1.157,0.763-1.739c0.014-0.026,0.034-0.036,0.054-0.036
	c0.001,0.001,0.003,0,0.004-0.001c0.002,0.001,0.005,0.001,0.006,0.001c0.02,0,0.04,0.009,0.054,0.035
	c0.266,0.574,0.538,1.147,0.808,1.72c0.589,0.085,1.178,0.172,1.767,0.255c0.035,0.004,0.049,0.03,0.047,0.059
	c0.005,0.021,0.001,0.042-0.016,0.061c-0.42,0.45-0.836,0.906-1.253,1.359c0.107,0.627,0.212,1.253,0.321,1.88
	c0.013,0.043-0.021,0.1-0.069,0.096c-0.015,0-0.026-0.005-0.038-0.015c-0.522-0.291-1.048-0.581-1.571-0.869
	c-0.517,0.302-1.035,0.605-1.55,0.909c-0.011,0.01-0.024,0.015-0.038,0.016c-0.049,0.005-0.084-0.05-0.072-0.093
	c0.093-0.63,0.183-1.258,0.274-1.887c-0.431-0.443-0.858-0.887-1.289-1.328C81.626,142.605,81.622,142.585,81.625,142.564z
	 M81.773,153.953c-0.002-0.027,0.014-0.055,0.046-0.06c0.593-0.097,1.182-0.202,1.772-0.304c0.254-0.58,0.512-1.157,0.763-1.738
	c0.013-0.026,0.034-0.037,0.053-0.036c0.001,0,0.004,0,0.004-0.001c0.002,0.001,0.005,0.001,0.006,0.002
	c0.02-0.002,0.041,0.008,0.054,0.033c0.267,0.575,0.538,1.148,0.809,1.72c0.59,0.087,1.178,0.174,1.767,0.257
	c0.035,0.005,0.049,0.03,0.047,0.059c0.005,0.021,0.001,0.043-0.015,0.061c-0.42,0.451-0.835,0.906-1.253,1.36
	c0.107,0.627,0.212,1.253,0.321,1.879c0.014,0.044-0.02,0.1-0.07,0.095c-0.013,0.001-0.026-0.004-0.038-0.014
	c-0.521-0.291-1.048-0.581-1.572-0.869c-0.516,0.304-1.034,0.605-1.549,0.91c-0.011,0.01-0.023,0.015-0.039,0.015
	c-0.049,0.005-0.084-0.049-0.073-0.094c0.093-0.63,0.183-1.258,0.274-1.886c-0.43-0.444-0.858-0.887-1.288-1.328
	C81.774,153.993,81.77,153.974,81.773,153.953z M87.226,165.334c-0.42,0.451-0.836,0.906-1.253,1.36
	c0.106,0.625,0.212,1.252,0.321,1.88c0.014,0.044-0.02,0.1-0.069,0.095c-0.013,0-0.026-0.004-0.038-0.014
	c-0.521-0.292-1.048-0.58-1.571-0.869c-0.517,0.303-1.035,0.604-1.549,0.91c-0.011,0.01-0.023,0.014-0.038,0.015
	c-0.049,0.005-0.084-0.049-0.073-0.093c0.093-0.63,0.183-1.26,0.274-1.888c-0.43-0.444-0.859-0.886-1.289-1.327
	c-0.018-0.019-0.022-0.039-0.019-0.061c-0.002-0.027,0.013-0.054,0.045-0.06c0.593-0.098,1.182-0.202,1.772-0.304
	c0.254-0.58,0.511-1.156,0.763-1.738c0.014-0.026,0.034-0.035,0.054-0.035c0.001,0,0.004,0,0.004-0.001c0.002,0,0.005,0,0.006,0
	c0.021,0,0.04,0.008,0.053,0.034c0.267,0.575,0.539,1.147,0.809,1.72c0.589,0.085,1.178,0.173,1.767,0.255
	c0.035,0.005,0.049,0.032,0.047,0.06C87.246,165.293,87.243,165.315,87.226,165.334z"/>
<path fill="#E03638" d="M70.195,173.021c-0.011-0.025-0.018-0.055-0.018-0.089l-0.343-26.445
	c-0.195-15.058-0.39-30.118-0.576-45.222l0.04-0.245l-0.247-0.014c-2.986-0.175-5.893-0.455-8.642-0.834l-0.257-0.035l0.942,72.347
	l0.192,0.026c2.579,0.334,5.32,0.603,8.148,0.799l0.925,0.057L70.195,173.021z M62.107,106.124
	c-0.002-0.027,0.014-0.053,0.046-0.053c0.593-0.013,1.183-0.033,1.775-0.05c0.254-0.543,0.512-1.082,0.764-1.627
	c0.014-0.024,0.034-0.03,0.054-0.027c0.001,0.001,0.004,0,0.005,0c0.002,0,0.004,0,0.005,0.001c0.019,0.003,0.04,0.015,0.054,0.042
	c0.266,0.61,0.539,1.221,0.81,1.832c0.591,0.169,1.18,0.34,1.771,0.507c0.034,0.009,0.049,0.038,0.047,0.065
	c0.005,0.021,0.001,0.042-0.015,0.059c-0.422,0.39-0.838,0.784-1.256,1.178c0.106,0.64,0.211,1.28,0.321,1.922
	c0.014,0.046-0.02,0.097-0.07,0.084c-0.013-0.002-0.027-0.008-0.038-0.02c-0.523-0.366-1.05-0.728-1.575-1.091
	c-0.518,0.229-1.036,0.455-1.553,0.688c-0.011,0.007-0.022,0.011-0.037,0.008c-0.049,0.001-0.085-0.06-0.074-0.103
	c0.093-0.616,0.184-1.229,0.275-1.844c-0.431-0.505-0.86-1.007-1.292-1.509C62.107,106.166,62.103,106.145,62.107,106.124z
	 M62.255,117.513c-0.002-0.027,0.014-0.053,0.046-0.052c0.593-0.014,1.183-0.033,1.775-0.051c0.255-0.542,0.513-1.083,0.765-1.626
	c0.014-0.024,0.034-0.032,0.053-0.028c0.001,0,0.004,0,0.005,0c0.002,0,0.005,0,0.006,0.001c0.02,0.003,0.04,0.015,0.053,0.043
	c0.268,0.611,0.54,1.221,0.81,1.832c0.591,0.169,1.18,0.341,1.771,0.507c0.036,0.009,0.049,0.038,0.047,0.066
	c0.005,0.021,0.001,0.042-0.016,0.058c-0.42,0.39-0.837,0.784-1.255,1.178c0.107,0.641,0.211,1.281,0.322,1.923
	c0.013,0.045-0.021,0.096-0.07,0.083c-0.013,0-0.027-0.008-0.038-0.017c-0.523-0.367-1.05-0.73-1.574-1.092
	c-0.518,0.229-1.037,0.455-1.553,0.687c-0.01,0.007-0.022,0.011-0.038,0.009c-0.049-0.001-0.084-0.061-0.073-0.104
	c0.094-0.615,0.183-1.229,0.275-1.843c-0.431-0.505-0.861-1.008-1.291-1.51C62.256,117.554,62.251,117.535,62.255,117.513z
	 M62.404,128.902c-0.003-0.028,0.012-0.053,0.045-0.053c0.593-0.013,1.184-0.033,1.776-0.051c0.255-0.542,0.512-1.081,0.763-1.624
	c0.014-0.025,0.034-0.031,0.055-0.029c0.001,0,0.004,0,0.003,0.001c0.002-0.001,0.004,0,0.005,0c0.021,0.003,0.04,0.015,0.055,0.044
	c0.266,0.61,0.538,1.22,0.81,1.831c0.59,0.169,1.18,0.341,1.77,0.508c0.035,0.008,0.049,0.037,0.047,0.065
	c0.004,0.021,0,0.043-0.016,0.058c-0.42,0.391-0.837,0.784-1.255,1.179c0.107,0.64,0.211,1.28,0.322,1.922
	c0.013,0.046-0.021,0.096-0.07,0.085c-0.014,0-0.027-0.009-0.039-0.02c-0.523-0.366-1.05-0.729-1.573-1.091
	c-0.518,0.228-1.037,0.454-1.553,0.685c-0.01,0.01-0.024,0.012-0.038,0.011c-0.048-0.001-0.085-0.062-0.073-0.105
	c0.094-0.614,0.183-1.229,0.275-1.843c-0.43-0.505-0.86-1.007-1.291-1.509C62.404,128.943,62.4,128.922,62.404,128.902z
	 M62.552,140.292c-0.002-0.029,0.013-0.053,0.045-0.054c0.594-0.012,1.184-0.033,1.775-0.05c0.255-0.542,0.512-1.082,0.764-1.625
	c0.014-0.025,0.034-0.031,0.055-0.028c0,0,0.003,0,0.003,0.001c0.002-0.001,0.005,0,0.005,0c0.02,0.003,0.04,0.015,0.054,0.043
	c0.268,0.61,0.54,1.22,0.81,1.831c0.59,0.171,1.18,0.341,1.77,0.508c0.035,0.008,0.05,0.037,0.047,0.066
	c0.004,0.021,0,0.042-0.016,0.058c-0.42,0.391-0.838,0.783-1.256,1.178c0.108,0.641,0.212,1.28,0.323,1.922
	c0.013,0.046-0.021,0.097-0.07,0.085c-0.013,0-0.027-0.008-0.038-0.019c-0.523-0.366-1.05-0.729-1.573-1.092
	c-0.518,0.228-1.037,0.455-1.553,0.686c-0.011,0.008-0.023,0.012-0.038,0.011c-0.049-0.001-0.084-0.061-0.072-0.104
	c0.093-0.615,0.182-1.23,0.274-1.846c-0.431-0.503-0.86-1.006-1.292-1.509C62.552,140.333,62.548,140.313,62.552,140.292z
	 M62.7,151.681c-0.002-0.027,0.013-0.053,0.045-0.053c0.593-0.014,1.184-0.034,1.776-0.051c0.255-0.542,0.512-1.081,0.764-1.626
	c0.013-0.025,0.034-0.031,0.054-0.028c0.001,0,0.003-0.001,0.005,0.001c0.002-0.001,0.004,0,0.005,0
	c0.02,0.004,0.04,0.014,0.053,0.042c0.268,0.611,0.54,1.221,0.811,1.831c0.59,0.17,1.18,0.341,1.77,0.507
	c0.036,0.009,0.05,0.038,0.048,0.066c0.005,0.021,0,0.042-0.016,0.059c-0.421,0.39-0.837,0.783-1.255,1.177
	c0.107,0.642,0.211,1.281,0.322,1.923c0.014,0.045-0.021,0.095-0.069,0.083c-0.015,0-0.028-0.008-0.039-0.019
	c-0.522-0.366-1.049-0.728-1.574-1.093c-0.517,0.23-1.037,0.457-1.553,0.688c-0.011,0.008-0.022,0.011-0.038,0.011
	c-0.049-0.002-0.084-0.062-0.072-0.104c0.093-0.616,0.182-1.231,0.274-1.845c-0.431-0.503-0.861-1.007-1.292-1.508
	C62.701,151.722,62.696,151.702,62.7,151.681z M68.163,163.819c-0.421,0.391-0.837,0.784-1.256,1.179
	c0.107,0.64,0.211,1.279,0.321,1.921c0.015,0.047-0.02,0.097-0.069,0.085c-0.014-0.002-0.027-0.009-0.039-0.02
	c-0.523-0.366-1.05-0.729-1.575-1.091c-0.517,0.228-1.036,0.455-1.553,0.687c-0.011,0.008-0.023,0.011-0.037,0.009
	c-0.049,0.001-0.085-0.061-0.074-0.104c0.093-0.615,0.184-1.229,0.275-1.844c-0.431-0.505-0.861-1.007-1.292-1.509
	c-0.018-0.022-0.022-0.041-0.018-0.063c-0.002-0.027,0.013-0.053,0.045-0.053c0.594-0.013,1.184-0.033,1.775-0.05
	c0.255-0.543,0.512-1.082,0.764-1.626c0.013-0.024,0.034-0.03,0.054-0.028c0.001,0.001,0.004,0,0.005,0c0.002,0,0.004,0,0.005,0.001
	c0.02,0.003,0.04,0.015,0.054,0.043c0.267,0.609,0.539,1.22,0.81,1.831c0.591,0.17,1.18,0.342,1.77,0.508
	c0.035,0.008,0.05,0.037,0.047,0.065C68.183,163.782,68.179,163.803,68.163,163.819z"/>
<path fill="#E03638" d="M50.162,98.401c0-0.028,0.005-0.055,0.018-0.089l0.032-0.209l-0.189-0.086
	c-2.055-0.604-5.881-1.729-6.6-4.335c-0.031-0.112-0.054-0.228-0.074-0.347l-0.068-0.402l-0.302,0.275
	c-1.75,1.594-1.729,3.123-1.702,5.239l0.007,0.72c0.012,2.887,0.047,5.773,0.086,8.661c0.105,7.925,0.241,15.848,0.377,23.773
	l0.023,1.363c0.057,3.295,0.161,6.659,0.261,9.912c0.222,7.187,0.452,14.618,0.19,21.877c-0.093,2.574,2.721,4.497,8.603,5.877
	l0.278,0.065L50.162,98.401z M43.182,102.766c-0.003-0.028,0.013-0.051,0.046-0.047c0.594,0.074,1.186,0.143,1.779,0.214
	c0.254-0.505,0.513-1.006,0.766-1.511c0.013-0.022,0.034-0.027,0.054-0.021c0.001,0.001,0.003,0.002,0.003,0.002
	c0.003,0.001,0.005,0.001,0.006,0.002c0.021,0.005,0.04,0.019,0.053,0.05c0.268,0.649,0.541,1.298,0.813,1.947
	c0.591,0.256,1.181,0.513,1.773,0.767c0.036,0.015,0.05,0.047,0.048,0.073c0.005,0.021,0.001,0.042-0.017,0.054
	c-0.421,0.329-0.839,0.661-1.258,0.992c0.108,0.654,0.213,1.309,0.324,1.965c0.013,0.048-0.022,0.094-0.071,0.074
	c-0.013-0.003-0.025-0.013-0.037-0.023c-0.524-0.442-1.053-0.882-1.577-1.322c-0.52,0.151-1.04,0.301-1.557,0.456
	c-0.01,0.007-0.023,0.008-0.036,0.003c-0.05-0.009-0.086-0.073-0.074-0.113c0.094-0.6,0.183-1.202,0.275-1.8
	c-0.431-0.567-0.862-1.134-1.295-1.697C43.182,102.808,43.178,102.787,43.182,102.766z M43.348,114.222
	c-0.018-0.025-0.021-0.046-0.018-0.066c-0.002-0.028,0.013-0.05,0.046-0.046c0.594,0.072,1.186,0.142,1.778,0.212
	c0.256-0.505,0.514-1.005,0.767-1.509c0.013-0.023,0.034-0.027,0.054-0.021c0.001,0,0.002,0,0.003,0.001
	c0.003,0.001,0.005,0.002,0.006,0.002c0.02,0.006,0.041,0.02,0.053,0.05c0.268,0.649,0.541,1.298,0.813,1.949
	c0.591,0.255,1.181,0.512,1.773,0.766c0.036,0.015,0.049,0.047,0.049,0.074c0.004,0.022,0,0.042-0.016,0.056
	c-0.422,0.326-0.84,0.659-1.259,0.99c0.108,0.654,0.212,1.308,0.323,1.964c0.013,0.048-0.021,0.094-0.07,0.075
	c-0.014-0.004-0.026-0.013-0.038-0.025c-0.524-0.443-1.052-0.882-1.578-1.322c-0.519,0.15-1.039,0.301-1.556,0.456
	c-0.01,0.006-0.023,0.007-0.037,0.004c-0.05-0.01-0.085-0.072-0.073-0.114c0.094-0.601,0.182-1.202,0.275-1.801
	C44.211,115.352,43.78,114.785,43.348,114.222z M43.478,125.545c-0.002-0.029,0.013-0.05,0.046-0.047
	c0.594,0.073,1.186,0.144,1.779,0.213c0.255-0.504,0.513-1.005,0.766-1.51c0.013-0.022,0.033-0.026,0.053-0.021
	c0.001,0,0.003,0.001,0.003,0.001c0.003,0.001,0.005,0.003,0.007,0.003c0.02,0.005,0.039,0.02,0.053,0.05
	c0.267,0.647,0.541,1.298,0.812,1.947c0.591,0.255,1.181,0.513,1.773,0.768c0.036,0.014,0.049,0.044,0.048,0.071
	c0.005,0.023,0,0.043-0.016,0.056c-0.422,0.329-0.839,0.66-1.259,0.991c0.108,0.655,0.213,1.309,0.324,1.966
	c0.013,0.048-0.021,0.093-0.071,0.074c-0.013-0.003-0.026-0.013-0.038-0.025c-0.523-0.443-1.052-0.882-1.577-1.323
	c-0.52,0.15-1.039,0.302-1.556,0.457c-0.011,0.007-0.024,0.008-0.037,0.005c-0.049-0.01-0.085-0.074-0.073-0.115
	c0.094-0.599,0.182-1.2,0.276-1.8c-0.432-0.566-0.862-1.133-1.295-1.697C43.479,125.587,43.475,125.565,43.478,125.545z
	 M43.627,136.935c-0.003-0.029,0.013-0.052,0.046-0.048c0.594,0.074,1.186,0.143,1.778,0.213c0.255-0.505,0.513-1.005,0.766-1.51
	c0.013-0.023,0.034-0.027,0.054-0.021c0.001,0,0.002,0.001,0.003,0.001c0.003,0.001,0.005,0.001,0.006,0.002
	c0.02,0.005,0.04,0.02,0.053,0.051c0.268,0.648,0.541,1.296,0.812,1.947c0.591,0.256,1.181,0.513,1.773,0.767
	c0.036,0.016,0.05,0.046,0.048,0.073c0.005,0.022,0.001,0.042-0.016,0.055c-0.421,0.329-0.839,0.661-1.258,0.993
	c0.108,0.653,0.212,1.308,0.323,1.964c0.013,0.047-0.021,0.093-0.071,0.074c-0.013-0.003-0.026-0.012-0.038-0.025
	c-0.524-0.442-1.052-0.882-1.577-1.322c-0.52,0.151-1.039,0.303-1.557,0.458c-0.01,0.006-0.023,0.008-0.036,0.003
	c-0.05-0.009-0.086-0.072-0.074-0.115c0.095-0.599,0.184-1.2,0.276-1.799c-0.432-0.567-0.862-1.134-1.295-1.698
	C43.627,136.976,43.622,136.954,43.627,136.935z M43.776,148.324c-0.002-0.029,0.012-0.051,0.045-0.047
	c0.594,0.073,1.187,0.142,1.778,0.212c0.256-0.505,0.514-1.005,0.767-1.509c0.013-0.023,0.034-0.027,0.054-0.022
	c0.001,0,0.003,0.001,0.003,0.001c0.003,0.001,0.005,0.001,0.006,0.002c0.021,0.005,0.041,0.021,0.054,0.051
	c0.267,0.648,0.541,1.298,0.812,1.948c0.591,0.255,1.181,0.513,1.773,0.766c0.036,0.015,0.05,0.046,0.048,0.073
	c0.004,0.022,0.001,0.043-0.016,0.055c-0.422,0.329-0.839,0.66-1.259,0.991c0.109,0.655,0.213,1.309,0.324,1.965
	c0.013,0.047-0.021,0.094-0.071,0.074c-0.013-0.004-0.026-0.012-0.037-0.024c-0.524-0.442-1.052-0.881-1.578-1.322
	c-0.519,0.151-1.038,0.301-1.556,0.457c-0.01,0.007-0.023,0.007-0.037,0.004c-0.049-0.009-0.085-0.074-0.074-0.114
	c0.094-0.601,0.183-1.202,0.275-1.801c-0.432-0.566-0.862-1.133-1.294-1.696C43.776,148.366,43.772,148.344,43.776,148.324z
	 M49.248,161.245c-0.422,0.327-0.839,0.66-1.259,0.99c0.108,0.654,0.213,1.31,0.323,1.965c0.014,0.048-0.021,0.093-0.07,0.074
	c-0.013-0.002-0.026-0.012-0.037-0.024c-0.523-0.441-1.052-0.882-1.577-1.321c-0.52,0.151-1.039,0.302-1.557,0.456
	c-0.01,0.007-0.023,0.008-0.037,0.004c-0.049-0.009-0.085-0.073-0.074-0.114c0.094-0.601,0.183-1.201,0.276-1.801
	c-0.432-0.566-0.863-1.133-1.295-1.696c-0.017-0.024-0.021-0.045-0.019-0.067c-0.001-0.027,0.014-0.05,0.047-0.044
	c0.593,0.073,1.185,0.14,1.778,0.212c0.255-0.505,0.513-1.006,0.766-1.511c0.013-0.022,0.033-0.026,0.054-0.02
	c0.001,0,0.002,0.001,0.003,0.001c0.003,0.002,0.005,0.002,0.007,0.002c0.02,0.006,0.04,0.021,0.053,0.052
	c0.267,0.647,0.541,1.296,0.812,1.947c0.591,0.255,1.182,0.512,1.773,0.767c0.036,0.014,0.049,0.046,0.048,0.072
	C49.268,161.211,49.265,161.232,49.248,161.245z"/>
<path fill="#E03638" d="M107.56,147.305c-0.208-15.865-0.416-31.73-0.618-47.596l-0.003-0.259l-0.256,0.041
	c-2.791,0.449-5.69,0.817-8.615,1.096l-0.222,0.052l0.033,0.232l0.932,71.622c0.001,0.058-0.017,0.106-0.057,0.152l-0.367,0.422
	l0.557-0.053c2.763-0.264,5.203-0.553,7.461-0.882l1.477-0.214L107.56,147.305z M99.828,106.393
	c-0.001-0.028,0.011-0.057,0.047-0.068c0.586-0.182,1.17-0.368,1.756-0.552c0.254-0.619,0.512-1.234,0.763-1.853
	c0.012-0.028,0.032-0.041,0.053-0.044c0,0,0.001,0,0.004,0c0.002-0.002,0.003-0.002,0.004-0.001c0.02-0.004,0.041,0.002,0.054,0.027
	c0.266,0.538,0.538,1.069,0.808,1.606c0.591,0.002,1.182,0.006,1.775,0.004c0.033-0.001,0.05,0.024,0.047,0.052
	c0.004,0.021,0,0.042-0.017,0.063c-0.418,0.513-0.834,1.027-1.252,1.541c0.109,0.613,0.214,1.224,0.322,1.837
	c0.014,0.042-0.019,0.103-0.069,0.105c-0.014,0.002-0.027,0-0.038-0.008c-0.522-0.218-1.047-0.432-1.569-0.646
	c-0.515,0.377-1.034,0.751-1.548,1.131c-0.01,0.013-0.022,0.02-0.036,0.021c-0.049,0.014-0.084-0.036-0.073-0.082
	c0.094-0.645,0.183-1.288,0.273-1.931c-0.428-0.383-0.855-0.765-1.286-1.145C99.829,106.435,99.825,106.414,99.828,106.393z
	 M99.976,117.782c-0.001-0.027,0.011-0.057,0.047-0.066c0.586-0.182,1.169-0.369,1.756-0.554c0.254-0.618,0.512-1.235,0.762-1.853
	c0.013-0.027,0.032-0.04,0.053-0.044c0.001,0.001,0.001,0,0.005,0.001c0-0.001,0.002-0.002,0.004-0.002
	c0.02-0.004,0.04,0.003,0.054,0.027c0.266,0.537,0.538,1.07,0.807,1.605c0.59,0.001,1.182,0.007,1.775,0.004
	c0.033,0,0.05,0.024,0.047,0.053c0.004,0.019,0.001,0.041-0.017,0.062c-0.418,0.513-0.833,1.027-1.252,1.542
	c0.11,0.612,0.214,1.225,0.323,1.836c0.014,0.042-0.019,0.103-0.07,0.106c-0.014,0.002-0.027-0.001-0.037-0.009
	c-0.523-0.217-1.047-0.431-1.569-0.645c-0.515,0.376-1.034,0.752-1.547,1.132c-0.011,0.012-0.023,0.019-0.036,0.019
	c-0.049,0.014-0.084-0.036-0.072-0.082c0.093-0.643,0.182-1.286,0.272-1.931c-0.429-0.382-0.855-0.765-1.285-1.145
	C99.977,117.825,99.973,117.804,99.976,117.782z M100.124,129.171c-0.001-0.027,0.012-0.058,0.048-0.067
	c0.586-0.181,1.17-0.368,1.756-0.553c0.255-0.617,0.511-1.236,0.763-1.852c0.012-0.028,0.032-0.041,0.053-0.045
	c0.001,0,0.002,0,0.006,0c0.001,0,0.002-0.001,0.004-0.002c0.02-0.003,0.04,0.004,0.054,0.029c0.266,0.537,0.537,1.069,0.806,1.603
	c0.592,0.003,1.183,0.007,1.776,0.005c0.033-0.001,0.048,0.024,0.047,0.053c0.003,0.02,0,0.041-0.016,0.063
	c-0.419,0.513-0.834,1.027-1.253,1.541c0.11,0.614,0.214,1.224,0.323,1.837c0.013,0.043-0.02,0.104-0.07,0.106
	c-0.015,0.001-0.027-0.001-0.038-0.01c-0.521-0.217-1.047-0.431-1.569-0.645c-0.514,0.376-1.034,0.752-1.547,1.131
	c-0.011,0.012-0.023,0.02-0.036,0.021c-0.049,0.014-0.084-0.036-0.073-0.083c0.093-0.644,0.183-1.287,0.272-1.93
	c-0.428-0.382-0.855-0.765-1.285-1.145C100.125,129.214,100.121,129.193,100.124,129.171z M100.273,140.562
	c-0.002-0.029,0.011-0.058,0.047-0.069c0.586-0.182,1.17-0.367,1.756-0.553c0.255-0.616,0.513-1.234,0.763-1.852
	c0.012-0.028,0.032-0.041,0.053-0.045c0.001,0,0.002-0.001,0.005,0.001c0.001-0.001,0.002-0.001,0.004-0.001
	c0.02-0.004,0.04,0.002,0.054,0.027c0.266,0.536,0.538,1.069,0.807,1.605c0.591,0,1.182,0.008,1.775,0.004
	c0.034,0,0.05,0.024,0.047,0.052c0.004,0.021,0.001,0.041-0.016,0.062c-0.418,0.514-0.834,1.028-1.252,1.542
	c0.109,0.615,0.214,1.225,0.322,1.837c0.014,0.043-0.02,0.104-0.069,0.106c-0.014,0.003-0.028-0.001-0.038-0.009
	c-0.522-0.217-1.047-0.43-1.57-0.645c-0.513,0.377-1.033,0.752-1.546,1.131c-0.011,0.013-0.022,0.02-0.036,0.022
	c-0.049,0.013-0.084-0.036-0.073-0.083c0.094-0.645,0.182-1.286,0.273-1.93c-0.429-0.383-0.855-0.766-1.286-1.145
	C100.273,140.603,100.269,140.582,100.273,140.562z M100.421,151.951c-0.001-0.029,0.012-0.058,0.048-0.068
	c0.585-0.181,1.169-0.368,1.755-0.552c0.255-0.619,0.512-1.235,0.763-1.853c0.012-0.028,0.032-0.04,0.053-0.044
	c0.001,0,0.002-0.001,0.006,0c0-0.001,0.002-0.001,0.004-0.002c0.02-0.004,0.041,0.003,0.054,0.027
	c0.266,0.537,0.537,1.07,0.807,1.605c0.591,0.002,1.182,0.007,1.775,0.004c0.033,0,0.049,0.025,0.047,0.053
	c0.003,0.02,0,0.04-0.016,0.063c-0.419,0.512-0.835,1.026-1.253,1.542c0.109,0.612,0.214,1.223,0.322,1.836
	c0.013,0.042-0.018,0.105-0.068,0.106c-0.014,0.002-0.027-0.001-0.038-0.009c-0.522-0.217-1.047-0.431-1.57-0.646
	c-0.514,0.377-1.033,0.753-1.546,1.133c-0.012,0.012-0.022,0.019-0.037,0.02c-0.049,0.013-0.085-0.036-0.073-0.083
	c0.094-0.644,0.183-1.287,0.272-1.93c-0.428-0.383-0.854-0.765-1.285-1.145C100.421,151.993,100.418,151.971,100.421,151.951z
	 M105.864,162.573c-0.419,0.512-0.834,1.027-1.252,1.542c0.109,0.612,0.214,1.224,0.322,1.836c0.014,0.042-0.019,0.104-0.069,0.106
	c-0.014,0.001-0.027,0-0.038-0.009c-0.522-0.218-1.047-0.432-1.569-0.645c-0.514,0.375-1.034,0.751-1.547,1.131
	c-0.01,0.012-0.023,0.019-0.036,0.022c-0.05,0.012-0.085-0.036-0.073-0.083c0.094-0.644,0.183-1.287,0.273-1.93
	c-0.429-0.383-0.854-0.765-1.286-1.146c-0.018-0.016-0.022-0.037-0.018-0.057c-0.001-0.028,0.011-0.057,0.048-0.067
	c0.585-0.182,1.17-0.369,1.756-0.553c0.254-0.619,0.512-1.234,0.762-1.852c0.012-0.029,0.032-0.042,0.052-0.045
	c0.001,0,0.002-0.001,0.006,0c0.001,0,0.002-0.001,0.004-0.001c0.021-0.004,0.04,0.003,0.054,0.027
	c0.267,0.538,0.537,1.07,0.808,1.605c0.591,0.001,1.182,0.006,1.775,0.004c0.033-0.001,0.049,0.024,0.047,0.052
	C105.884,162.53,105.881,162.551,105.864,162.573z"/>
<path fill="#E03638" d="M126.638,136.68c-0.06-2.667-0.142-5.333-0.224-7.998c-0.146-4.725-0.298-9.61-0.31-14.422
	c-0.005-1.804-0.005-3.608-0.005-5.411c0-2.61,0-5.22-0.015-7.83l-0.003-0.433c-0.008-1.427-0.016-2.902-0.065-4.354
	c-0.058-1.71-0.37-2.875-1.856-4.13l-0.33-0.279l-0.037,0.431c-0.063,0.734-0.365,1.385-0.873,1.883
	c-1.136,1.112-2.646,2.009-4.616,2.741c-0.417,0.155-0.841,0.298-1.268,0.43l-0.159,0.05l0.945,72.602l0.283-0.085
	c0.799-0.237,1.527-0.479,2.226-0.739l0,0c1.06-0.394,2.011-0.814,2.905-1.283c1.235-0.648,3.534-1.855,3.605-3.893
	c0.032-0.912,0.037-1.823,0.041-2.764C126.918,153.696,126.838,145.676,126.638,136.68z M118.67,103.33
	c-0.003-0.027,0.012-0.059,0.046-0.074c0.586-0.269,1.168-0.543,1.752-0.814c0.256-0.656,0.511-1.313,0.762-1.968
	c0.012-0.03,0.032-0.046,0.053-0.051c0.002-0.001,0.003-0.001,0.007-0.002c0.001,0,0.002-0.001,0.003-0.001
	c0.02-0.006,0.04-0.002,0.055,0.02c0.264,0.497,0.535,0.992,0.804,1.489c0.59-0.086,1.181-0.17,1.772-0.259
	c0.034-0.005,0.049,0.018,0.047,0.045c0.005,0.021,0,0.043-0.016,0.067c-0.418,0.574-0.833,1.152-1.251,1.729
	c0.109,0.597,0.215,1.195,0.322,1.793c0.014,0.041-0.019,0.106-0.068,0.116c-0.015,0.005-0.028,0.004-0.038-0.002
	c-0.521-0.142-1.045-0.279-1.568-0.416c-0.514,0.453-1.03,0.907-1.542,1.362c-0.011,0.013-0.024,0.022-0.037,0.027
	c-0.049,0.02-0.083-0.025-0.073-0.073c0.094-0.66,0.182-1.317,0.272-1.972c-0.428-0.321-0.854-0.643-1.284-0.96
	C118.67,103.372,118.666,103.352,118.67,103.33z M118.818,114.719c-0.001-0.026,0.012-0.058,0.046-0.074
	c0.585-0.27,1.168-0.542,1.752-0.812c0.255-0.657,0.511-1.315,0.762-1.97c0.011-0.028,0.031-0.045,0.052-0.051
	c0.002,0,0.004,0,0.007-0.002c0.001,0,0.001-0.001,0.003-0.001c0.02-0.006,0.04-0.001,0.054,0.019
	c0.265,0.499,0.537,0.994,0.805,1.49c0.591-0.086,1.181-0.169,1.773-0.259c0.034-0.004,0.049,0.017,0.046,0.045
	c0.005,0.02,0.001,0.041-0.015,0.066c-0.418,0.574-0.832,1.152-1.25,1.73c0.108,0.597,0.214,1.194,0.322,1.793
	c0.013,0.04-0.02,0.105-0.069,0.116c-0.016,0.003-0.027,0.003-0.038-0.004c-0.521-0.141-1.045-0.278-1.567-0.415
	c-0.513,0.454-1.031,0.908-1.543,1.362c-0.011,0.013-0.023,0.023-0.036,0.026c-0.05,0.021-0.084-0.024-0.074-0.071
	c0.094-0.659,0.182-1.317,0.272-1.974c-0.427-0.32-0.853-0.641-1.284-0.957C118.819,114.761,118.814,114.741,118.818,114.719z
	 M118.966,126.108c-0.002-0.027,0.011-0.058,0.047-0.072c0.586-0.271,1.167-0.545,1.752-0.814c0.255-0.656,0.51-1.314,0.761-1.968
	c0.012-0.03,0.031-0.047,0.052-0.053c0.001,0,0.002,0,0.006,0c0.001,0,0.001-0.002,0.004-0.001c0.02-0.006,0.04-0.004,0.054,0.018
	c0.264,0.5,0.537,0.992,0.805,1.49c0.59-0.086,1.181-0.17,1.773-0.259c0.033-0.006,0.048,0.016,0.046,0.045
	c0.005,0.019,0.001,0.042-0.015,0.066c-0.417,0.574-0.832,1.152-1.25,1.729c0.108,0.599,0.213,1.195,0.322,1.793
	c0.014,0.04-0.02,0.105-0.069,0.116c-0.015,0.005-0.027,0.003-0.037-0.003c-0.522-0.141-1.045-0.279-1.568-0.415
	c-0.513,0.453-1.03,0.906-1.542,1.362c-0.011,0.013-0.023,0.023-0.036,0.026c-0.05,0.021-0.084-0.024-0.074-0.071
	c0.094-0.659,0.182-1.316,0.273-1.974c-0.427-0.32-0.854-0.64-1.285-0.958C118.966,126.15,118.962,126.132,118.966,126.108z
	 M119.114,137.498c-0.001-0.027,0.012-0.058,0.046-0.074c0.586-0.269,1.168-0.542,1.753-0.813c0.255-0.657,0.511-1.314,0.761-1.969
	c0.012-0.03,0.032-0.046,0.053-0.052c0.001-0.001,0.003,0,0.006-0.001c0.001,0,0.002-0.002,0.003-0.002
	c0.02-0.006,0.041-0.002,0.055,0.02c0.265,0.499,0.537,0.992,0.805,1.49c0.589-0.087,1.18-0.17,1.772-0.26
	c0.033-0.006,0.048,0.018,0.045,0.046c0.005,0.02,0.001,0.042-0.015,0.066c-0.417,0.574-0.832,1.153-1.25,1.731
	c0.108,0.596,0.214,1.194,0.321,1.791c0.014,0.04-0.02,0.106-0.069,0.116c-0.015,0.005-0.027,0.004-0.037-0.003
	c-0.521-0.141-1.044-0.278-1.568-0.416c-0.513,0.454-1.029,0.907-1.542,1.364c-0.012,0.013-0.024,0.022-0.037,0.026
	c-0.05,0.019-0.084-0.024-0.074-0.072c0.095-0.659,0.182-1.316,0.273-1.973c-0.427-0.321-0.854-0.641-1.284-0.958
	C119.115,137.54,119.11,137.519,119.114,137.498z M119.262,148.887c-0.002-0.027,0.012-0.059,0.047-0.074
	c0.585-0.27,1.167-0.543,1.752-0.812c0.256-0.656,0.511-1.315,0.762-1.969c0.011-0.031,0.031-0.046,0.052-0.052
	c0-0.002,0.002-0.002,0.005-0.003c0.001,0.001,0.002-0.001,0.004-0.001c0.02-0.007,0.04-0.002,0.054,0.019
	c0.265,0.498,0.537,0.993,0.805,1.49c0.589-0.086,1.18-0.171,1.773-0.259c0.033-0.005,0.048,0.017,0.046,0.045
	c0.005,0.02,0,0.041-0.016,0.067c-0.417,0.574-0.832,1.151-1.25,1.729c0.108,0.597,0.213,1.195,0.322,1.793
	c0.013,0.04-0.02,0.106-0.069,0.115c-0.014,0.004-0.027,0.004-0.037-0.001c-0.522-0.142-1.045-0.279-1.568-0.416
	c-0.513,0.453-1.03,0.907-1.543,1.362c-0.011,0.013-0.023,0.021-0.036,0.026c-0.05,0.021-0.084-0.025-0.073-0.072
	c0.095-0.66,0.181-1.316,0.273-1.973c-0.427-0.32-0.854-0.641-1.284-0.958C119.263,148.929,119.258,148.909,119.262,148.887z
	 M124.695,158.727c-0.417,0.575-0.833,1.152-1.25,1.729c0.108,0.597,0.215,1.195,0.322,1.793c0.014,0.041-0.02,0.107-0.069,0.116
	c-0.014,0.004-0.027,0.004-0.037-0.002c-0.521-0.142-1.045-0.279-1.567-0.416c-0.514,0.453-1.03,0.907-1.543,1.362
	c-0.01,0.013-0.023,0.022-0.036,0.026c-0.049,0.02-0.084-0.024-0.073-0.072c0.094-0.659,0.182-1.317,0.273-1.973
	c-0.427-0.321-0.854-0.643-1.284-0.958c-0.018-0.014-0.022-0.034-0.018-0.056c-0.003-0.027,0.011-0.059,0.046-0.073
	c0.586-0.27,1.168-0.543,1.752-0.814c0.256-0.657,0.511-1.313,0.762-1.968c0.012-0.031,0.032-0.046,0.053-0.051
	c0.001-0.001,0.003-0.001,0.007-0.004c0.001,0,0.002-0.001,0.003-0.001c0.02-0.006,0.04-0.001,0.054,0.02
	c0.265,0.498,0.537,0.992,0.805,1.489c0.59-0.086,1.181-0.169,1.773-0.258c0.032-0.006,0.048,0.016,0.045,0.044
	C124.716,158.68,124.712,158.702,124.695,158.727z"/>
<path fill="#E03638" d="M50.786,43.592c0.01-0.035,0.021-0.07,0.034-0.104c0.041-0.108,0.086-0.214,0.131-0.32l0.054-0.128
	c0.213-0.505,0.469-1.098,0.754-1.67c0.014-0.025,0.013-0.043,0-0.062c-0.348-0.51-0.664-1.03-0.926-1.471l-0.225-0.38
	c-0.034-0.057-0.067-0.115-0.099-0.173c-0.01-0.017-0.018-0.036-0.026-0.055l-0.036-0.082l0.089-0.008
	c0.06-0.005,0.145,0.006,0.201,0.013l0.042,0.005c0.116,0.009,0.233,0.019,0.349,0.029l0.142,0.012
	c0.456,0.04,1.058,0.097,1.667,0.187c0.039,0.015,0.056,0.01,0.073-0.012c0.365-0.474,0.744-0.915,1.067-1.284
	c0.047-0.054,0.094-0.112,0.142-0.171c0.115-0.141,0.233-0.288,0.371-0.4l0.07-0.058l0.031,0.086
	c0.013,0.036,0.025,0.073,0.036,0.11c0.035,0.125,0.064,0.252,0.092,0.378l0.033,0.147c0.125,0.537,0.255,1.116,0.355,1.714
	c-0.004,0.045,0.008,0.054,0.021,0.06c0.59,0.212,1.151,0.445,1.813,0.731c0.04,0.017,0.084,0.034,0.13,0.052
	c0.078,0.03,0.16,0.062,0.234,0.099c0.033,0.017,0.065,0.035,0.094,0.054l0.074,0.049l-0.071,0.055
	c-0.069,0.054-0.146,0.1-0.222,0.146l-0.047,0.028c-0.615,0.373-1.218,0.735-1.837,1.057c-0.023,0.012-0.031,0.027-0.026,0.049
	c-0.019,0.7-0.08,1.387-0.136,1.977c-0.01,0.111-0.02,0.222-0.032,0.333c-0.004,0.035-0.009,0.07-0.016,0.104l-0.018,0.098
	l-0.082-0.057c-0.025-0.015-0.034-0.021-0.043-0.028c-0.077-0.058-0.15-0.121-0.223-0.185l-0.083-0.072
	c-0.453-0.391-0.976-0.849-1.467-1.329l-0.034-0.015l-0.009,0.003l-0.031,0.001c-0.594,0.175-1.215,0.321-1.796,0.452l-0.097,0.022
	c-0.111,0.025-0.222,0.05-0.333,0.074c-0.038,0.008-0.076,0.014-0.114,0.018l-0.095,0.012L50.786,43.592z"/>
<path fill="#E03638" d="M14.55,72.221c0.012-0.044,0.026-0.088,0.043-0.13c0.051-0.134,0.107-0.266,0.163-0.398l0.068-0.16
	c0.266-0.629,0.585-1.369,0.94-2.082c0.018-0.031,0.017-0.053,0-0.078c-0.434-0.636-0.827-1.284-1.154-1.833l-0.28-0.474
	c-0.042-0.071-0.084-0.143-0.124-0.216c-0.012-0.021-0.023-0.044-0.033-0.068l-0.044-0.102l0.111-0.01
	c0.075-0.007,0.181,0.008,0.251,0.017l0.052,0.006c0.145,0.011,0.29,0.023,0.435,0.036l0.177,0.015
	c0.569,0.05,1.319,0.121,2.078,0.233c0.048,0.018,0.07,0.012,0.091-0.015c0.455-0.591,0.928-1.14,1.33-1.6
	c0.059-0.067,0.117-0.139,0.177-0.213c0.143-0.176,0.29-0.358,0.462-0.499l0.088-0.072l0.039,0.107
	c0.017,0.045,0.031,0.091,0.044,0.137c0.043,0.155,0.079,0.313,0.115,0.471l0.042,0.183c0.156,0.669,0.318,1.39,0.443,2.136
	c-0.005,0.056,0.011,0.067,0.026,0.075c0.736,0.265,1.434,0.555,2.26,0.912c0.05,0.022,0.105,0.043,0.162,0.065
	c0.097,0.038,0.2,0.077,0.291,0.124c0.041,0.021,0.081,0.043,0.117,0.067l0.092,0.062l-0.088,0.069
	c-0.087,0.067-0.182,0.125-0.276,0.182l-0.058,0.035c-0.767,0.465-1.518,0.916-2.289,1.318c-0.028,0.015-0.038,0.033-0.032,0.061
	c-0.024,0.873-0.1,1.729-0.17,2.464c-0.012,0.138-0.025,0.276-0.04,0.415c-0.005,0.044-0.012,0.087-0.02,0.13l-0.022,0.123
	l-0.102-0.071c-0.031-0.019-0.043-0.026-0.054-0.035c-0.096-0.072-0.187-0.151-0.277-0.23l-0.104-0.09
	c-0.564-0.488-1.217-1.058-1.828-1.657l-0.042-0.019l-0.012,0.004l-0.039,0.002c-0.74,0.218-1.514,0.4-2.239,0.563l-0.121,0.027
	c-0.138,0.031-0.276,0.062-0.415,0.092c-0.047,0.01-0.094,0.017-0.141,0.023l-0.118,0.014L14.55,72.221z"/>
<path fill="#E03638" d="M113.827,44.195c-0.012-0.044-0.026-0.088-0.043-0.13c-0.051-0.134-0.107-0.266-0.163-0.398l-0.068-0.16
	c-0.266-0.629-0.585-1.369-0.94-2.082c-0.018-0.031-0.017-0.053,0-0.078c0.434-0.636,0.827-1.284,1.154-1.833l0.28-0.474
	c0.042-0.071,0.084-0.143,0.124-0.216c0.012-0.021,0.023-0.044,0.033-0.068l0.044-0.102l-0.111-0.01
	c-0.075-0.007-0.181,0.008-0.251,0.017l-0.052,0.006c-0.145,0.011-0.29,0.023-0.435,0.036l-0.177,0.015
	c-0.569,0.05-1.319,0.121-2.078,0.233c-0.048,0.018-0.07,0.012-0.091-0.015c-0.455-0.591-0.928-1.14-1.33-1.6
	c-0.059-0.067-0.117-0.139-0.177-0.213c-0.143-0.176-0.29-0.358-0.462-0.499l-0.088-0.072l-0.039,0.107
	c-0.016,0.045-0.031,0.091-0.044,0.137c-0.043,0.155-0.079,0.313-0.115,0.471l-0.042,0.183c-0.156,0.669-0.318,1.39-0.443,2.136
	c0.005,0.056-0.011,0.067-0.026,0.075c-0.736,0.265-1.434,0.555-2.26,0.912c-0.05,0.022-0.105,0.043-0.162,0.065
	c-0.097,0.038-0.2,0.077-0.291,0.124c-0.041,0.021-0.081,0.043-0.117,0.067l-0.092,0.062l0.088,0.069
	c0.087,0.067,0.182,0.125,0.276,0.182l0.058,0.035c0.767,0.465,1.518,0.916,2.289,1.318c0.028,0.015,0.038,0.033,0.032,0.061
	c0.024,0.873,0.1,1.729,0.17,2.464c0.012,0.138,0.025,0.276,0.04,0.415c0.005,0.044,0.012,0.087,0.02,0.13l0.022,0.123l0.102-0.071
	c0.031-0.019,0.043-0.026,0.054-0.035c0.096-0.072,0.187-0.151,0.277-0.23l0.104-0.09c0.564-0.488,1.217-1.058,1.828-1.657
	l0.042-0.019l0.012,0.004l0.039,0.002c0.74,0.218,1.514,0.4,2.239,0.563l0.121,0.027c0.138,0.031,0.276,0.062,0.415,0.092
	c0.047,0.01,0.094,0.017,0.141,0.023l0.118,0.014L113.827,44.195z"/>
<g>
	<path fill="#2593CF" d="M109.643,60.949c0,0,7.51-2.75,6.95-5.38c-0.55-2.53-6.2-0.72-6.63-0.58c0.47-0.3,6.29-3.98,5.21-6.15
		c-1.13-2.27-13.32,5.65-14.45,4.88c-1.41-0.74-0.52-10.23-2.54-18.63c-0.49-2.06-1.16-4.06-2.09-5.84
		c-0.54-1.05-1.17-2.02-1.9-2.89c-0.05-0.07-0.11-0.14-0.18-0.21c-0.3-0.35-0.63-0.69-0.97-0.99c-0.63-0.59-1.32-1.09-2.08-1.52
		l-0.34,0.86l-1.68-0.54c-0.02-0.01-0.03-0.01-0.05-0.02h-0.01l-1.87-0.61l0.06-0.17l0.28-0.84c-0.74-0.15-1.52-0.23-2.36-0.26
		h-0.04c-2.45,0-4.67,0.16-6.66,0.53c-2.22,0.4-4.16,1.05-5.83,2c-3.78,2.14-6.15,5.78-7.16,11.45l-0.01-0.01l-5.38,2.79l4.86,2.28
		c-0.02,0.4-0.03,0.8-0.04,1.22c-0.28,15.3,2.97,17.29,4.39,17.21c0,0,4.61,11.73,16.93,11.2c12.33-0.54,17.08-5.6,17.08-5.6
		c5.95,0.71,15.3-0.42,15.16-2.55C118.153,60.449,109.643,60.949,109.643,60.949z M74.223,36.029c-0.86,0-1.56-0.84-1.56-1.88
		c0-1.05,0.7-1.89,1.56-1.89s1.56,0.84,1.56,1.89C75.783,35.189,75.083,36.029,74.223,36.029z M92.203,26.779v-0.66l0.53,0.4
		l0.63-0.2l-0.22,0.62l0.39,0.54l-0.67-0.01l-0.39,0.53l-0.19-0.64l-0.63-0.2L92.203,26.779z M87.103,25.929v-0.66l0.53,0.4
		l0.63-0.2l-0.22,0.62l0.39,0.54l-0.67-0.02l-0.39,0.54l-0.19-0.64l-0.63-0.2L87.103,25.929z M82.853,24.229v-0.66l0.53,0.4
		l0.63-0.2l-0.22,0.62l0.39,0.54l-0.67-0.02l-0.39,0.54l-0.19-0.64l-0.63-0.2L82.853,24.229z M89.428,64.506
		c-11.844-1.454-7.935-8.824-4.19-8.797c-0.795-5.303,2.03-8.132,5.261-5.492c3.229,2.641,9.47,9.061,14.792,7.151
		C105.291,57.368,101.271,65.961,89.428,64.506z"/>
</g>
<path fill="#E03638" d="M99.453,27.379c-0.01-0.01-0.01-0.01-0.01-0.01l0.48-0.89l0.18-0.34l8.69-16.09c0,0-5.1-4.68-12.11-7.65
	c-7.01-2.98-14.56-2.34-14.56-2.34l-3.69,17.78l-0.02,0.06l-0.22,1.07c0,0-0.03,0-0.09,0.01c-0.86,0.05-7.47,0.52-7.56,2.01
	c0,1.01,0.72,2.27,1.92,3.6c2.48,2.74,6.96,5.8,11.26,7.67c3.79,1.65,9.96,2.67,14.46,2.83c3.07,0.11,5.36-0.18,5.62-0.94
	C104.423,32.319,99.733,27.649,99.453,27.379z M105.183,11.549l-6.54,14.48l-0.15,0.33h-4.57l0.09-0.21l0.3-0.73l6.09-14.65
	L105.183,11.549z M97.783,28.329l-0.67-0.02l-0.39,0.54l-0.19-0.64l-0.63-0.2l0.55-0.38v-0.66l0.53,0.4l0.63-0.2l-0.22,0.62
	L97.783,28.329z M80.783,21.529l-0.67-0.02l-0.39,0.54l-0.19-0.64l-0.63-0.2l0.55-0.38v-0.67l0.53,0.41l0.63-0.2l-0.22,0.62
	L80.783,21.529z M83.513,24.909l-0.39,0.54l-0.19-0.64l-0.63-0.2l0.55-0.38v-0.66l0.53,0.4l0.63-0.2l-0.22,0.62l0.39,0.54
	L83.513,24.909z M88.433,26.629l-0.67-0.02l-0.39,0.54l-0.19-0.64l-0.63-0.2l0.55-0.38v-0.66l0.53,0.4l0.63-0.2l-0.22,0.62
	L88.433,26.629z M92.203,26.779v-0.66l0.53,0.4l0.63-0.2l-0.22,0.62l0.39,0.54l-0.67-0.01l-0.39,0.53l-0.19-0.64l-0.63-0.2
	L92.203,26.779z M96.793,8.879l-5.83,14.76l-0.34,0.86l-1.68-0.54c-0.02-0.01-0.03-0.01-0.05-0.02l-1.88-0.61l0.06-0.17l0.28-0.84
	l4.97-14.72L96.793,8.879z M84.253,3.249l4.14,2.55l-5.13,15.28l-0.08,0.23l-3.4-2.34l0.04-0.13L84.253,3.249z"/>
<path fill="#2593CF" d="M133.916,61.12c0.012-0.044,0.026-0.088,0.043-0.13c0.051-0.134,0.107-0.266,0.163-0.398l0.068-0.16
	c0.266-0.629,0.585-1.368,0.94-2.082c0.018-0.031,0.017-0.053,0-0.078c-0.434-0.636-0.827-1.284-1.154-1.833l-0.28-0.474
	c-0.042-0.071-0.084-0.143-0.124-0.216c-0.012-0.021-0.023-0.044-0.033-0.068l-0.044-0.102l0.111-0.01
	c0.075-0.007,0.181,0.008,0.251,0.017l0.052,0.006c0.145,0.011,0.29,0.023,0.435,0.036l0.177,0.015
	c0.569,0.05,1.319,0.121,2.078,0.233c0.048,0.018,0.07,0.012,0.091-0.015c0.455-0.591,0.928-1.14,1.33-1.6
	c0.059-0.067,0.117-0.139,0.177-0.213c0.143-0.176,0.29-0.358,0.462-0.499l0.088-0.072l0.039,0.107
	c0.017,0.045,0.031,0.091,0.044,0.137c0.043,0.155,0.079,0.313,0.115,0.471l0.042,0.183c0.156,0.669,0.318,1.39,0.443,2.136
	c-0.005,0.056,0.011,0.067,0.026,0.075c0.736,0.265,1.434,0.555,2.26,0.912c0.05,0.022,0.105,0.043,0.162,0.065
	c0.097,0.038,0.2,0.077,0.291,0.124c0.041,0.021,0.081,0.043,0.117,0.067l0.092,0.062l-0.088,0.069
	c-0.087,0.067-0.182,0.125-0.276,0.182l-0.058,0.035c-0.767,0.465-1.518,0.916-2.289,1.318c-0.028,0.015-0.038,0.033-0.032,0.061
	c-0.024,0.873-0.1,1.729-0.17,2.464c-0.012,0.138-0.025,0.276-0.04,0.415c-0.005,0.044-0.012,0.087-0.02,0.13l-0.022,0.123
	l-0.102-0.071c-0.031-0.019-0.043-0.026-0.054-0.035c-0.096-0.072-0.187-0.151-0.277-0.23l-0.104-0.09
	c-0.564-0.488-1.217-1.058-1.828-1.657l-0.042-0.019l-0.012,0.004l-0.039,0.002c-0.74,0.218-1.514,0.4-2.239,0.563l-0.121,0.027
	c-0.138,0.031-0.276,0.062-0.415,0.092c-0.047,0.01-0.094,0.017-0.141,0.023l-0.118,0.014L133.916,61.12z"/>
<path fill="#2593CF" d="M156.743,103.779c0.012-0.044,0.026-0.088,0.043-0.13c0.051-0.134,0.107-0.266,0.163-0.398l0.068-0.16
	c0.266-0.629,0.585-1.368,0.94-2.082c0.018-0.031,0.017-0.053,0-0.078c-0.434-0.636-0.827-1.284-1.154-1.833l-0.28-0.474
	c-0.042-0.071-0.084-0.143-0.124-0.216c-0.012-0.021-0.023-0.044-0.033-0.068l-0.044-0.102l0.111-0.01
	c0.075-0.007,0.181,0.008,0.251,0.017l0.052,0.006c0.145,0.011,0.29,0.023,0.435,0.036l0.177,0.015
	c0.569,0.05,1.319,0.121,2.078,0.233c0.048,0.018,0.07,0.012,0.091-0.015c0.455-0.591,0.928-1.14,1.33-1.6
	c0.059-0.067,0.117-0.139,0.177-0.213c0.143-0.176,0.29-0.358,0.462-0.499l0.088-0.072l0.039,0.107
	c0.016,0.045,0.031,0.091,0.044,0.137c0.043,0.155,0.079,0.313,0.115,0.471l0.042,0.183c0.156,0.669,0.318,1.39,0.443,2.136
	c-0.005,0.056,0.011,0.067,0.026,0.075c0.736,0.265,1.434,0.555,2.26,0.912c0.05,0.022,0.105,0.043,0.162,0.065
	c0.097,0.038,0.2,0.077,0.291,0.124c0.041,0.021,0.081,0.043,0.117,0.067l0.092,0.062l-0.088,0.069
	c-0.087,0.067-0.182,0.125-0.276,0.182l-0.058,0.035c-0.767,0.465-1.518,0.916-2.289,1.318c-0.028,0.015-0.038,0.033-0.032,0.061
	c-0.024,0.873-0.1,1.729-0.17,2.464c-0.012,0.138-0.025,0.276-0.04,0.415c-0.005,0.044-0.012,0.087-0.02,0.13l-0.022,0.123
	l-0.102-0.071c-0.031-0.019-0.043-0.026-0.054-0.035c-0.096-0.072-0.187-0.151-0.277-0.23l-0.104-0.09
	c-0.564-0.488-1.217-1.058-1.828-1.657l-0.042-0.019l-0.012,0.004l-0.039,0.002c-0.74,0.218-1.514,0.4-2.239,0.563l-0.121,0.027
	c-0.138,0.031-0.276,0.062-0.415,0.092c-0.047,0.01-0.094,0.017-0.141,0.023l-0.118,0.014L156.743,103.779z"/>
<path fill="#E03638" d="M150.881,73.757c-0.012-0.044-0.026-0.088-0.043-0.13c-0.051-0.134-0.107-0.266-0.163-0.398l-0.068-0.16
	c-0.266-0.629-0.585-1.369-0.94-2.082c-0.018-0.031-0.017-0.053,0-0.078c0.434-0.636,0.827-1.284,1.154-1.833l0.28-0.474
	c0.042-0.071,0.084-0.143,0.124-0.216c0.012-0.021,0.023-0.044,0.033-0.068l0.044-0.102l-0.111-0.01
	c-0.075-0.007-0.181,0.008-0.251,0.017l-0.052,0.006c-0.145,0.011-0.29,0.023-0.435,0.036l-0.177,0.015
	c-0.569,0.05-1.319,0.121-2.078,0.233c-0.048,0.018-0.07,0.012-0.091-0.015c-0.455-0.591-0.928-1.14-1.33-1.6
	c-0.059-0.067-0.117-0.139-0.177-0.213c-0.143-0.176-0.29-0.358-0.462-0.499l-0.088-0.072l-0.039,0.107
	c-0.017,0.045-0.031,0.091-0.044,0.137c-0.043,0.155-0.079,0.313-0.115,0.471l-0.042,0.183c-0.156,0.669-0.318,1.39-0.443,2.136
	c0.005,0.056-0.011,0.067-0.026,0.075c-0.736,0.265-1.434,0.555-2.26,0.912c-0.05,0.022-0.105,0.043-0.162,0.065
	c-0.097,0.038-0.2,0.077-0.291,0.124c-0.041,0.021-0.081,0.043-0.117,0.067l-0.092,0.062l0.088,0.069
	c0.087,0.067,0.182,0.125,0.276,0.182l0.058,0.035c0.767,0.465,1.518,0.916,2.289,1.318c0.028,0.015,0.038,0.033,0.032,0.061
	c0.024,0.873,0.1,1.729,0.17,2.464c0.012,0.138,0.025,0.276,0.04,0.415c0.005,0.044,0.012,0.087,0.02,0.13l0.022,0.123l0.102-0.071
	c0.031-0.019,0.043-0.026,0.054-0.035c0.096-0.072,0.187-0.151,0.277-0.23l0.104-0.09c0.564-0.488,1.217-1.058,1.828-1.657
	l0.042-0.019l0.012,0.004l0.039,0.002c0.74,0.218,1.514,0.4,2.239,0.563l0.121,0.027c0.138,0.031,0.276,0.062,0.415,0.092
	c0.047,0.01,0.094,0.017,0.141,0.023l0.118,0.014L150.881,73.757z"/>
<path fill="#2593CF" d="M8.689,102.244c-0.012-0.044-0.026-0.088-0.043-0.13c-0.051-0.134-0.107-0.266-0.163-0.398l-0.068-0.16
	c-0.266-0.629-0.585-1.368-0.94-2.082c-0.018-0.031-0.017-0.053,0-0.078c0.434-0.636,0.827-1.284,1.154-1.833l0.28-0.474
	c0.042-0.071,0.084-0.143,0.124-0.216c0.012-0.021,0.023-0.044,0.033-0.068l0.044-0.102l-0.111-0.01
	c-0.075-0.007-0.181,0.008-0.251,0.017l-0.052,0.006c-0.145,0.011-0.29,0.023-0.435,0.036l-0.177,0.015
	C7.515,96.817,6.765,96.888,6.006,97c-0.048,0.018-0.07,0.012-0.091-0.015c-0.455-0.591-0.928-1.14-1.33-1.6
	c-0.059-0.067-0.117-0.139-0.177-0.213c-0.143-0.176-0.29-0.358-0.462-0.499l-0.088-0.072l-0.039,0.107
	c-0.017,0.045-0.031,0.091-0.044,0.137C3.732,95,3.696,95.158,3.66,95.316l-0.042,0.183c-0.156,0.669-0.318,1.39-0.443,2.136
	c0.005,0.056-0.011,0.067-0.026,0.075c-0.736,0.265-1.434,0.555-2.26,0.912c-0.05,0.022-0.105,0.043-0.162,0.065
	c-0.097,0.038-0.2,0.077-0.291,0.124c-0.041,0.021-0.081,0.043-0.117,0.067L0.227,98.94l0.088,0.069
	c0.087,0.067,0.182,0.125,0.276,0.182l0.058,0.035c0.767,0.465,1.518,0.916,2.289,1.318c0.028,0.015,0.038,0.033,0.032,0.061
	c0.024,0.873,0.1,1.729,0.17,2.464c0.012,0.138,0.025,0.276,0.04,0.415c0.005,0.044,0.012,0.087,0.02,0.13l0.022,0.123l0.102-0.071
	c0.031-0.019,0.043-0.026,0.054-0.035c0.096-0.072,0.187-0.151,0.277-0.23l0.104-0.09c0.564-0.488,1.217-1.058,1.828-1.657
	l0.042-0.019l0.012,0.004l0.039,0.002c0.74,0.218,1.514,0.4,2.239,0.563l0.121,0.027c0.138,0.031,0.276,0.062,0.415,0.092
	c0.047,0.01,0.094,0.017,0.141,0.023l0.118,0.014L8.689,102.244z"/>
<path fill="#2593CF" d="M98.643,26.029c-1.06-0.1-2.61-0.29-4.33-0.61c-0.42-0.08-0.84-0.17-1.27-0.26c-1.36-0.31-2.78-0.7-4.1-1.2
	c-0.02-0.01-0.03-0.01-0.05-0.02h-0.01c-0.6-0.23-1.2-0.5-1.81-0.78c-0.72-0.34-1.43-0.71-2.12-1.1c-0.58-0.32-1.15-0.65-1.69-0.98
	c-1.37-0.83-2.58-1.63-3.44-2.24c-0.87-0.6-1.39-1-1.39-1l-0.02,0.06l-0.31,1.08l-0.76,2.65c0,0,0.33,0.38,0.95,0.96
	c1.31,1.24,3.93,3.44,7.62,5.13c3.45,1.58,7.59,1.68,10.18,1.53c1.52-0.08,2.5-0.25,2.5-0.25l0.86-1.62l0.47-0.9l0.18-0.34
	C100.103,26.139,99.553,26.119,98.643,26.029z M79.453,20.829v-0.67l0.53,0.41l0.63-0.2l-0.22,0.62l0.39,0.54l-0.67-0.02l-0.39,0.54
	l-0.19-0.64l-0.63-0.2L79.453,20.829z M83.513,24.909l-0.39,0.54l-0.19-0.64l-0.63-0.2l0.55-0.38v-0.66l0.53,0.4l0.63-0.2
	l-0.22,0.62l0.39,0.54L83.513,24.909z M87.763,26.609l-0.39,0.54l-0.19-0.64l-0.63-0.2l0.55-0.38v-0.66l0.53,0.4l0.63-0.2
	l-0.22,0.62l0.39,0.54L87.763,26.609z M92.863,27.469l-0.39,0.53l-0.19-0.64l-0.63-0.2l0.55-0.38v-0.66l0.53,0.4l0.63-0.2
	l-0.22,0.62l0.39,0.54L92.863,27.469z M97.113,28.309l-0.39,0.54l-0.19-0.64l-0.63-0.2l0.55-0.38v-0.66l0.53,0.4l0.63-0.2
	l-0.22,0.62l0.39,0.54L97.113,28.309z"/>
<path fill="#2593CF" d="M33.302,60.478c-0.012-0.044-0.026-0.088-0.043-0.13c-0.051-0.134-0.107-0.266-0.163-0.398l-0.068-0.16
	c-0.266-0.629-0.585-1.369-0.94-2.082c-0.018-0.031-0.017-0.053,0-0.078c0.434-0.636,0.827-1.284,1.154-1.833l0.28-0.474
	c0.042-0.071,0.084-0.143,0.124-0.216c0.012-0.021,0.023-0.044,0.033-0.068l0.044-0.102l-0.111-0.01
	c-0.075-0.007-0.181,0.008-0.251,0.017l-0.052,0.006c-0.145,0.011-0.29,0.023-0.435,0.036l-0.177,0.015
	c-0.569,0.05-1.319,0.121-2.078,0.233c-0.048,0.018-0.07,0.012-0.091-0.015c-0.455-0.591-0.928-1.14-1.33-1.6
	c-0.059-0.067-0.117-0.139-0.177-0.213c-0.143-0.176-0.29-0.358-0.462-0.499l-0.088-0.072l-0.039,0.107
	c-0.016,0.045-0.031,0.091-0.044,0.137c-0.043,0.155-0.079,0.313-0.115,0.471l-0.042,0.183c-0.156,0.669-0.318,1.39-0.443,2.136
	c0.005,0.056-0.011,0.067-0.026,0.075c-0.736,0.265-1.434,0.555-2.26,0.912c-0.05,0.022-0.105,0.043-0.162,0.065
	c-0.097,0.038-0.2,0.077-0.291,0.124c-0.041,0.021-0.081,0.043-0.117,0.067l-0.092,0.062l0.088,0.069
	c0.087,0.067,0.182,0.125,0.276,0.182l0.058,0.035c0.767,0.465,1.518,0.916,2.289,1.318c0.028,0.015,0.038,0.033,0.032,0.061
	c0.024,0.873,0.1,1.729,0.17,2.464c0.012,0.138,0.025,0.276,0.04,0.415c0.005,0.044,0.012,0.087,0.02,0.13l0.022,0.123l0.102-0.071
	c0.031-0.019,0.043-0.026,0.054-0.035c0.096-0.072,0.187-0.151,0.277-0.23l0.104-0.09c0.564-0.488,1.217-1.058,1.828-1.657
	l0.042-0.019l0.012,0.004l0.039,0.002c0.74,0.218,1.514,0.4,2.239,0.563l0.121,0.027c0.138,0.031,0.276,0.062,0.415,0.092
	c0.047,0.01,0.094,0.017,0.141,0.023l0.118,0.014L33.302,60.478z"/>
</svg>
