<?xml version="1.0" encoding="utf-8"?>
<!-- Generator: Adobe Illustrator 17.0.0, SVG Export Plug-In . SVG Version: 6.00 Build 0)  -->
<!DOCTYPE svg PUBLIC "-//W3C//DTD SVG 1.1//EN" "http://www.w3.org/Graphics/SVG/1.1/DTD/svg11.dtd">
<svg version="1.1" id="Layer_1" xmlns="http://www.w3.org/2000/svg" xmlns:xlink="http://www.w3.org/1999/xlink" x="0px" y="0px"
	 width="180px" height="133.232px" viewBox="0 0 180 133.232" enable-background="new 0 0 180 133.232" xml:space="preserve">
<polygon fill="#F9B747" points="104.969,71.016 102.189,117.476 99.729,117.476 100.159,110.356 102.519,70.876 "/>
<path fill="#F9B747" d="M100.159,110.356c-1.51-10.81-3.77-23.66-3.92-24.49l-2.42,0.42c0.04,0.26,3.53,19.98,4.78,31.19h2.45
	C100.819,115.336,100.509,112.906,100.159,110.356z"/>
<path fill="none" d="M103.248,68.719l1.878,0.048l-1.836-0.234C103.275,68.595,103.262,68.657,103.248,68.719z"/>
<path fill="#E03638" d="M105.738,34.96c-3.735-0.353-9.719,0.613-11.86,9.194c-0.564,2.013-0.623,4.121-0.346,6.218
	c5.424,1.256,10.345,7.269,10.24,14.328c-0.019,1.271-0.198,2.559-0.483,3.834l1.836,0.234c0,0,9.456-5.878,11.82-16.627
	C119.309,41.391,112.886,35.636,105.738,34.96z"/>
<path fill="#E03638" d="M105.096,71.59l0.03-2.443h-1.981c-0.183,0.727-0.399,1.448-0.642,2.157L105.096,71.59z"/>
<path fill="#29469D" d="M101.71,71.216l0.792,0.087c0.243-0.709,0.459-1.43,0.642-2.157h-0.326L101.71,71.216z"/>
<polygon fill="#29469D" points="93.249,84.515 92.809,86.88 97.508,86.075 95.953,83.909 "/>
<path fill="none" stroke="#010101" stroke-width="2.4527" stroke-miterlimit="10" d="M88.812,33.384"/>
<path fill="#29469D" d="M93.532,50.372c-1.47-0.34-2.975-0.351-4.429,0.085c-4.049,1.216-9.647,4.086-9.597,13.564l1.167-0.17
	l0.637-1.291l0.637,1.291l1.425,0.207l-1.03,1.005l0.243,1.419l-1.274-0.67l-1.275,0.67l0.244-1.419l-0.768-0.749
	c0.006,0.322-0.001,0.631,0.018,0.968c0.583,10.507,13.776,18.795,13.776,18.795l2.452-0.583c0,0,4.485-5.592,6.745-12.191
	l-0.792-0.087l1.108-2.07h0.326c0.036-0.142,0.07-0.285,0.104-0.427c0.014-0.062,0.027-0.124,0.041-0.185
	c0.286-1.275,0.464-2.563,0.483-3.834C103.877,57.641,98.956,51.627,93.532,50.372z M95.543,52.942l0.396-0.801l0.395,0.801
	l0.884,0.128l-0.64,0.624l0.151,0.881l-0.792-0.416l-0.791,0.416l0.152-0.881l-0.641-0.624L95.543,52.942z M92.741,55.744
	l0.395-0.801l0.396,0.801l0.885,0.128l-0.64,0.624l0.151,0.881l-0.791-0.416l-0.791,0.416l0.152-0.881l-0.641-0.624L92.741,55.744z
	 M87.678,52.644l0.637-1.291l0.637,1.291l1.424,0.207l-1.03,1.005l0.243,1.419l-1.274-0.67l-1.275,0.67l0.244-1.419l-1.031-1.005
	L87.678,52.644z M83.94,59.478l0.152-0.881l-0.64-0.624l0.884-0.129l0.395-0.801l0.396,0.801l0.885,0.129l-0.64,0.624l0.151,0.881
	l-0.792-0.415L83.94,59.478z M85.341,69.985l0.152-0.881l-0.641-0.624l0.884-0.128l0.395-0.802l0.396,0.802l0.884,0.128l-0.64,0.624
	l0.151,0.881l-0.792-0.416L85.341,69.985z M88.324,77.689l-0.791-0.416l-0.792,0.416l0.152-0.881l-0.64-0.624l0.884-0.128
	l0.396-0.801l0.395,0.801l0.884,0.128l-0.639,0.624L88.324,77.689z M88.441,64.381l0.243-1.419l-1.031-1.005l1.425-0.207
	l0.637-1.291l0.637,1.291l1.425,0.207l-1.031,1.005l0.244,1.419l-1.275-0.669L88.441,64.381z M91.18,70.856l0.637-1.29l0.637,1.29
	l1.424,0.208l-1.03,1.005l0.243,1.419l-1.274-0.67l-1.275,0.67l0.244-1.419l-1.031-1.005L91.18,70.856z M93.791,81.892l-1.274-0.67
	l-1.274,0.67l0.244-1.419l-1.031-1.005l1.425-0.207l0.637-1.29l0.637,1.29l1.425,0.207l-1.031,1.005L93.791,81.892z M95.238,66.066
	l-0.792,0.416l0.152-0.881l-0.64-0.624l0.884-0.128l0.396-0.802l0.395,0.802l0.885,0.128l-0.64,0.624l0.151,0.881L95.238,66.066z
	 M98.13,76.288l-0.791-0.415l-0.792,0.415l0.152-0.88l-0.64-0.624l0.884-0.128l0.396-0.801l0.395,0.801l0.885,0.128l-0.64,0.624
	L98.13,76.288z M101.253,69.966l0.244,1.419l-1.275-0.67l-1.274,0.67l0.244-1.419l-1.031-1.005l1.425-0.207l0.637-1.29l0.637,1.29
	l1.425,0.207L101.253,69.966z M101.253,61.561l0.244,1.42l-1.275-0.67l-1.274,0.67l0.244-1.42l-1.031-1.005l1.425-0.207l0.637-1.29
	l0.637,1.29l1.425,0.207L101.253,61.561z"/>
<path fill="#E03638" d="M40.176,103.825v8.234h-4.802V95.506h4.802v6.657h3.917v-6.657h4.802v16.553h-4.802v-8.234H40.176z"/>
<path fill="#E03638" d="M57.044,99.52c4.042,0,6.063,2.134,6.063,6.403c0,4.268-2.021,6.403-6.063,6.403
	c-4.05,0-6.076-2.134-6.076-6.403S52.994,99.52,57.044,99.52z M57.031,100.599c-0.978,0-1.467,1.775-1.467,5.324
	s0.489,5.323,1.467,5.323c0.987,0,1.48-1.774,1.48-5.323S58.018,100.599,57.031,100.599z"/>
<path fill="#E03638" d="M82.885,112.059h-4.426v-9.18c0-0.8-0.234-1.2-0.703-1.2c-1.084,0-1.625,1.152-1.625,3.456v6.924h-4.426
	v-8.986c0-0.913-0.21-1.37-0.631-1.37c-1.099,0-1.649,1.148-1.649,3.444v6.912h-4.426v-12.26c1.495,0,2.971-0.101,4.426-0.303v2.11
	c1.043-1.398,2.328-2.098,3.856-2.098c1.277,0,2.227,0.659,2.85,1.977c0.986-1.334,2.219-2.001,3.699-2.001
	c2.037,0,3.055,1.031,3.055,3.092C82.885,102.576,82.885,112.059,82.885,112.059z"/>
<path fill="#E03638" d="M94.126,107.584l1.783,0.521c-0.186,2.822-1.852,4.232-4.996,4.232c-4.075,0-6.112-2.033-6.112-6.1
	c0-1.972,0.542-3.59,1.625-4.851s2.47-1.891,4.159-1.891c3.533,0,5.299,2.28,5.299,6.839h-6.452c0,3.201,0.813,4.802,2.438,4.802
	c1.52,0,2.28-0.905,2.28-2.716C94.151,108.178,94.143,107.899,94.126,107.584z M89.421,104.965h2.644
	c0-2.846-0.429-4.269-1.286-4.269c-0.776,0-1.213,1.055-1.31,3.165L89.421,104.965z"/>
<path fill="#E03638" d="M110.728,99.52c4.042,0,6.063,2.134,6.063,6.403c0,4.268-2.021,6.403-6.063,6.403
	c-4.05,0-6.076-2.134-6.076-6.403C104.652,101.654,106.678,99.52,110.728,99.52z M110.715,100.599c-0.978,0-1.467,1.775-1.467,5.324
	s0.489,5.323,1.467,5.323c0.987,0,1.48-1.774,1.48-5.323S111.702,100.599,110.715,100.599z"/>
<path fill="#E03638" d="M125.049,99.835v1.37h-1.747v10.853h-4.426v-10.853h-1.552v-1.37h1.552v-1.091
	c0-1.002,0.354-1.835,1.062-2.498c0.707-0.663,1.594-0.994,2.662-0.994c2.134,0,3.201,0.801,3.201,2.401
	c0,0.121-0.004,0.275-0.012,0.461l-2.098,0.74c0.113-0.42,0.17-0.752,0.17-0.994c0-0.857-0.299-1.286-0.898-1.286
	c-0.517,0-0.776,0.376-0.776,1.128c0,0.461,0.372,1.172,1.115,2.134L125.049,99.835L125.049,99.835z"/>
<path fill="#E03638" d="M140.559,99.871v1.37h-1.965v8.646c0,0.542,0.174,0.813,0.522,0.813c0.251,0,0.4-0.182,0.449-0.546
	l1.261,0.121c-0.348,1.277-1.455,1.916-3.323,1.916c-2.223,0-3.335-0.946-3.335-2.837v-8.113h-1.479v-1.37h1.479v-2.159
	c1.528-0.42,3.003-1.026,4.426-1.819v3.978L140.559,99.871L140.559,99.871z"/>
<path fill="#E03638" d="M141.929,112.059V95.506c1.309,0,2.785-0.085,4.426-0.255v6.682c0.954-1.608,2.3-2.413,4.038-2.413
	c2.053,0,3.08,0.922,3.08,2.765v9.774h-4.426v-9.289c0-0.704-0.234-1.055-0.704-1.055c-0.485,0-0.938,0.451-1.358,1.352
	c-0.421,0.902-0.631,1.869-0.631,2.904v6.088C146.354,112.059,141.929,112.059,141.929,112.059z"/>
<path fill="#E03638" d="M164.715,107.584l1.783,0.521c-0.186,2.822-1.852,4.232-4.996,4.232c-4.075,0-6.112-2.033-6.112-6.1
	c0-1.972,0.542-3.59,1.625-4.851s2.47-1.891,4.159-1.891c3.533,0,5.299,2.28,5.299,6.839h-6.452c0,3.201,0.813,4.802,2.438,4.802
	c1.52,0,2.28-0.905,2.28-2.716C164.739,108.178,164.731,107.899,164.715,107.584z M160.01,104.965h2.644
	c0-2.846-0.429-4.269-1.286-4.269c-0.776,0-1.213,1.055-1.31,3.165L160.01,104.965z"/>
<polygon fill="#29469D" points="58.728,166.353 20.153,166.616 27.687,148.257 20.153,132.616 58.728,132.352 "/>
<polygon fill="#29469D" points="140.163,165.775 181.667,165.512 173.561,147.255 181.667,131.511 164.987,131.774 "/>
<path fill="#E03638" d="M188.448,107.641c0.068,1.55-0.02,3.129-0.02,4.699c-5.001-1.638-10.197-2.827-15.462-3.012
	c3.432-1.531,7-2.671,10.714-3.276C186.606,105.574,188.331,104.628,188.448,107.641z"/>
<path fill="#E03638" d="M188.256,109.375c-4.426-1.867-9.658-2.205-14.326-1.163c-0.862,0.193-0.667,1.545,0.207,1.532
	c4.774-0.074,8.896,0.758,13.345,2.441C189.261,112.858,189.939,110.086,188.256,109.375z"/>
<path fill="#E03638" d="M27.033,113.416c-5.264,0.185-10.461,1.375-15.462,3.012c0-1.57-0.088-3.149-0.019-4.699
	c0.117-3.012,1.843-2.067,4.767-1.589C20.033,110.745,23.602,111.885,27.033,113.416z"/>
<path fill="#E03638" d="M25.848,111.762c-4.701,0.447-9.76,1.511-14.152,3.257c-0.898,0.357-0.555,1.579,0.396,1.438
	c4.699-0.702,9.387-1.519,14.091-2.22C27.574,114.029,27.261,111.627,25.848,111.762z"/>
<g>
	<path fill="#29469D" d="M69.106,132.72h-1.592v8.185h1.697c2.223,0,3.334-1.272,3.334-3.815
		C72.545,134.177,71.398,132.72,69.106,132.72z"/>
	<polygon fill="#29469D" points="102.566,136.099 107.598,136.099 105.179,127.013 	"/>
	<path fill="#29469D" d="M35.633,117.331v34.001l130.342-0.966v-34.001L35.633,117.331z M71.704,142.602H61.567v-20.5h9.116
		c4.696,0,7.043,1.677,7.043,5.031c0,2.383-1.417,3.91-4.25,4.581c3.415,0.681,5.122,2.493,5.122,5.437
		C78.598,140.785,76.3,142.602,71.704,142.602z M91.393,142.602c-0.41-0.951-0.615-2.138-0.615-3.559l-0.03-1.217l-0.03-1.532
		c0-2.363-0.951-3.544-2.854-3.544h-1.021v9.852h-5.947v-20.5h8.816c2.293,0,4.125,0.483,5.497,1.449
		c1.371,0.966,2.057,2.26,2.057,3.882c0,2.484-1.471,4.1-4.415,4.851c1.511,0.561,2.49,1.177,2.936,1.847
		c0.445,0.671,0.748,1.972,0.909,3.905c0.19,2.303,0.576,3.824,1.156,4.565h-6.459C91.393,142.601,91.393,142.602,91.393,142.602z
		 M109.37,142.602l-1.217-4.445h-6.173l-1.307,4.445h-2.328l6.067-20.5h5.226l5.707,20.5H109.37z M125.785,142.602h-5.332
		l-5.437-20.5h6.008l4.055,15.529l4.43-15.529h2.223L125.785,142.602z M147.817,142.602h-14.538v-20.5h13.291v2.057h-7.344v6.203
		h6.172v2.057h-6.172v8.125h8.591L147.817,142.602L147.817,142.602z"/>
	<path fill="#29469D" d="M71.885,127.268c0-2.313-0.897-3.469-2.688-3.469h-1.682v7.223h1.832
		C71.038,131.023,71.885,129.771,71.885,127.268z"/>
	<path fill="#29469D" d="M88.044,123.994h-1.202v7.059h1.202c2.252,0,3.379-1.176,3.379-3.529
		C91.423,125.171,90.297,123.994,88.044,123.994z"/>
</g>
<polygon fill="#1D1D1B" points="35.633,151.332 58.728,166.353 58.728,151.137 "/>
<path fill="#1D1D1B" d="M181.916,94.129c0.429,0.263,0.4,0.838,0,1.102c-3.812,2.583-7.292,5.528-10.909,8.365
	c-0.244,0.195-0.546,0.029-0.585-0.205c-0.38,0.039-0.819-0.273-0.712-0.77c1.033-4.66,3.042-8.891,5.859-12.742
	c0.214-0.292,0.653-0.419,0.936-0.117C178.134,91.477,179.908,92.91,181.916,94.129z M180.464,94.704
	c-1.589-1.024-3.012-2.203-4.309-3.578c-2.466,3.48-4.143,7.302-5.147,11.455C173.815,99.608,177.11,97.053,180.464,94.704z"/>
<path fill="#1D1D1B" d="M181.741,122.147c0.224,0.244,0.302,0.712,0,0.955c-1.745,1.404-3.597,2.632-5.576,3.714
	c-0.419,0.234-0.838,0-1.004-0.409c-1.365-3.48-2.866-6.893-4.358-10.314c-0.263-0.614,0.439-1.18,0.887-0.887
	c0.088,0.049,0.156,0.127,0.214,0.244c1.57,3.198,2.944,6.483,4.26,9.788c1.433-0.819,2.788-1.716,4.114-2.71
	c-2.564-2.827-5.518-5.089-8.491-7.439c-0.292-0.234-0.575-0.458-0.868-0.692c-0.117-0.097,0.01-0.312,0.156-0.263
	C175.277,115.703,178.787,118.842,181.741,122.147z"/>
<path fill="#1D1D1B" d="M189.316,104.161c0.351-0.01,0.712,0.322,0.682,0.673c-0.234,2.817-0.312,5.606-0.234,8.423
	c0.01,0.41-0.439,0.78-0.838,0.643c-5.723-1.95-11.504-2.983-17.451-3.939c-0.234-0.039-0.283-0.273-0.214-0.458
	c-0.244-0.292-0.273-0.741,0.166-0.946C177.1,105.896,183.057,104.424,189.316,104.161z"/>
<path fill="#E03638" d="M188.429,112.34c0-1.57,0.088-3.149,0.02-4.699c-0.117-3.012-1.843-2.067-4.767-1.589
	c-3.714,0.604-7.283,1.745-10.714,3.276C178.231,109.513,183.428,110.702,188.429,112.34z"/>
<path fill="#1D1D1B" d="M30.289,106.709c0.107,0.497-0.331,0.809-0.712,0.77c-0.039,0.234-0.341,0.4-0.585,0.205
	c-3.617-2.837-7.097-5.781-10.909-8.365c-0.4-0.263-0.429-0.838,0-1.102c2.008-1.219,3.783-2.652,5.411-4.368
	c0.283-0.302,0.721-0.175,0.936,0.117C27.248,97.818,29.256,102.049,30.289,106.709z M28.993,106.67
	c-1.004-4.153-2.681-7.975-5.147-11.455c-1.297,1.375-2.72,2.554-4.309,3.578C22.89,101.142,26.185,103.696,28.993,106.67z"/>
<path fill="#1D1D1B" d="M29.188,119.616c0.078,0.166,0.097,0.361,0.01,0.565c-1.492,3.422-2.993,6.834-4.358,10.314
	c-0.166,0.409-0.585,0.643-1.004,0.409c-1.979-1.082-3.831-2.31-5.576-3.714c-0.302-0.244-0.224-0.712,0-0.955
	c2.954-3.305,6.464-6.444,10.665-8.014c0.078-0.029,0.146,0.02,0.175,0.078c-0.039,0-0.088,0-0.136,0.01
	c-0.331,0.039-0.575,0.39-0.507,0.663c0,0.01,0,0.01,0,0.01c-3.051,2.427-6.093,4.728-8.735,7.633
	c1.326,0.994,2.681,1.891,4.114,2.71c1.316-3.305,2.691-6.59,4.26-9.788c0.136-0.263,0.351-0.351,0.565-0.312
	c0,0,0.01,0.01,0.019,0.01c0.049,0.029,0.107,0.039,0.156,0.039c0.049,0.029,0.097,0.049,0.136,0.088
	c-0.01,0.01-0.01,0.02-0.01,0.02C28.924,119.529,29.071,119.646,29.188,119.616z"/>
<path fill="#1D1D1B" d="M28.573,112.646c0.439,0.205,0.41,0.653,0.166,0.946c0.068,0.185,0.02,0.419-0.214,0.458
	c-5.947,0.955-11.728,1.989-17.451,3.939c-0.4,0.136-0.848-0.234-0.838-0.643c0.078-2.817,0-5.606-0.234-8.423
	c-0.029-0.351,0.331-0.682,0.682-0.673C16.943,108.512,22.9,109.984,28.573,112.646z M11.571,116.428
	c5.001-1.638,10.197-2.827,15.462-3.012c-3.432-1.531-7-2.671-10.714-3.276c-2.925-0.478-4.65-1.423-4.767,1.589
	C11.484,113.28,11.571,114.859,11.571,116.428z"/>
<polygon fill="#1D1D1B" points="163.259,150.666 140.163,165.759 140.163,150.47 "/>
</svg>
