<?xml version="1.0" encoding="utf-8"?>
<!-- Generator: Adobe Illustrator 17.0.0, SVG Export Plug-In . SVG Version: 6.00 Build 0)  -->
<!DOCTYPE svg PUBLIC "-//W3C//DTD SVG 1.1//EN" "http://www.w3.org/Graphics/SVG/1.1/DTD/svg11.dtd">
<svg version="1.1" id="Layer_1" xmlns="http://www.w3.org/2000/svg" xmlns:xlink="http://www.w3.org/1999/xlink" x="0px" y="0px"
	 width="145.548px" height="180px" viewBox="27.226 10 145.548 180" enable-background="new 27.226 10 145.548 180"
	 xml:space="preserve">
<path fill="#12163B" d="M172.656,118.9c0.014-0.507-0.194-0.926-0.563-1.278c-0.744-0.71-1.66-1.123-2.59-1.506
	c-2.599-1.069-5.333-1.666-8.072-2.219c-2.954-0.597-5.944-0.943-8.944-1.246c-3.413-0.344-6.825-0.596-10.254-0.669
	c-2.71-0.057-5.416,0.031-8.124,0.044c-3.969,0.019-7.884,0.433-11.771,1.209c-4.128,0.825-8.122,2.033-11.946,3.825
	c-3.031,1.42-6.256,2.27-9.595,2.438c-3.867,0.195-7.569-0.772-11.045-2.375c-4.302-1.983-8.788-3.268-13.415-4.152
	c-4.18-0.799-8.411-0.956-12.649-1.007c-5.484-0.067-10.952,0.124-16.415,0.702c-4.919,0.521-9.781,1.266-14.537,2.644
	c-1.39,0.403-2.737,0.915-3.987,1.647c-0.681,0.4-1.395,0.861-1.421,1.757c-0.07,2.336-0.114,4.673-0.099,7.01
	c0.005,0.778,0.03,1.574,0.228,2.343c0.13,0.504,0.298,1.012,0.907,1.066c0.906,0.081,1.455,0.629,1.915,1.325
	c0.66,0.998,1.048,2.115,1.327,3.261c0.328,1.347,0.65,2.692,0.836,4.078c0.205,1.526,0.663,3.018,1.002,4.526
	c0.085,0.377,0.088,0.644,0.407,1.947c0.926,3.779,2.237,7.391,4.466,10.629c2.93,4.257,6.924,6.952,11.9,8.24
	c3.746,0.969,7.551,1.025,11.386,0.804c4.12-0.237,8.158-0.878,12.074-2.2c7.997-2.7,13.96-7.778,17.802-15.309
	c2.318-4.544,3.607-9.402,4.347-14.424c0.161-1.093,0.659-2.014,1.64-2.554c1.68-0.925,3.388-0.909,5.047,0.081
	c0.89,0.531,1.463,1.33,1.612,2.356c0.519,3.577,1.329,7.078,2.585,10.472c1.322,3.571,3.1,6.889,5.52,9.84
	c4.714,5.748,10.892,9.046,18.047,10.653c2.686,0.603,5.412,0.944,8.169,1.091c3.437,0.183,6.852,0.165,10.236-0.56
	c4.513-0.966,8.395-3.023,11.45-6.543c2.566-2.956,4.223-6.39,5.325-10.111c1.099-3.711,1.68-7.539,2.493-11.315
	c0.382-1.774,0.787-3.546,1.822-5.086c0.372-0.554,0.824-1.081,1.526-1.14c0.792-0.067,1.109-0.509,1.221-1.205
	c0.059-0.366,0.109-0.734,0.148-1.102C172.945,124.226,172.583,121.564,172.656,118.9z M92.06,130.7
	c-0.491,3.622-1.192,7.194-2.452,10.638c-1.821,4.979-4.567,9.327-8.739,12.679c-2.091,1.68-4.403,2.995-6.9,3.978
	c-4.274,1.683-8.726,2.458-13.302,2.602c-0.807,0.025-1.611,0.148-2.151,0.107c-2.943-0.039-5.588-0.259-8.163-1.051
	c-3.923-1.206-6.972-3.538-9.152-7.014c-2.321-3.7-3.43-7.814-4.111-12.07c-0.556-3.479-0.728-6.992-0.764-10.507
	c-0.018-1.743,0.129-3.485,0.475-5.209c0.581-2.896,2.229-4.864,4.95-5.978c2.142-0.877,4.383-1.348,6.664-1.621
	c4.625-0.553,9.275-0.732,13.928-0.646c4.19,0.077,8.39,0.076,12.554,0.649c3.952,0.544,7.828,1.4,11.413,3.24
	c2.172,1.114,4.099,2.516,5.184,4.813C92.312,127.04,92.309,128.856,92.06,130.7z M163.329,136.573
	c-0.219,2.836-0.625,5.642-1.361,8.391c-1.074,4.016-2.666,7.77-5.674,10.766c-2.416,2.407-5.376,3.776-8.685,4.427
	c-2.627,0.517-5.279,0.582-7.954,0.472c-2.978-0.122-5.922-0.441-8.82-1.12c-4.506-1.056-8.651-2.883-12.219-5.894
	c-3.357-2.834-5.762-6.354-7.495-10.365c-1.89-4.376-2.855-8.983-3.33-13.694c-0.381-3.781,1.469-6.436,4.58-8.341
	c2.989-1.83,6.298-2.766,9.699-3.454c4.391-0.889,8.842-1.006,13.298-1.088c1.244-0.023,2.487-0.12,3.734-0.086
	c4.475,0.098,8.954,0.147,13.395,0.798c1.99,0.292,3.94,0.758,5.813,1.529c2.95,1.216,4.495,3.462,4.968,6.554
	C163.843,129.169,163.615,132.869,163.329,136.573z"/>
<path fill="#29469D" d="M100.077,171.324c0.093-0.39,0.172-0.784,0.223-1.182c0-0.003,0.001-0.007,0.002-0.01
	c0.054-0.42,0.079-0.842,0.087-1.264c0.001-0.068,0.001-0.135,0.001-0.203c0.002-3.526-1.622-6.986-5.017-8.575
	c-3.012-1.41-6.609-1.161-9.702,0.062c-3.093,1.223-5.751,3.334-8.184,5.601c-1.975,1.841-3.987,3.873-6.118,5.761
	c-4.384,3.885-9.274,7.16-15.39,6.915c-2.551-0.102-5.178-0.986-6.86-2.907s-2.149-4.996-0.65-7.063
	c-3.594,1.065-5.389,4.958-5.179,8.757l0,0c0,0.001,0,0.001,0,0.002c0.021,0.379,0.065,0.755,0.126,1.129
	c0.01,0.061,0.022,0.122,0.033,0.183c0.057,0.31,0.127,0.615,0.212,0.917c0.025,0.09,0.049,0.179,0.077,0.268
	c0.086,0.277,0.186,0.547,0.297,0.813c0.038,0.092,0.07,0.185,0.111,0.276c0.155,0.342,0.325,0.677,0.522,0.995
	c2.808,4.549,8.303,6.693,13.574,7.587c2.316,0.393,4.661,0.594,7.008,0.612c1.565,0.012,3.13-0.059,4.688-0.209
	c0.779-0.075,1.556-0.17,2.33-0.285c1.548-0.23,3.085-0.539,4.601-0.925c1.038-0.264,2.12-0.575,3.225-0.934
	s2.235-0.764,3.367-1.219c4.527-1.818,9.098-4.414,12.382-7.854c0.41-0.43,0.801-0.873,1.168-1.33
	c0.735-0.913,1.379-1.879,1.912-2.899c0.266-0.51,0.505-1.034,0.713-1.571c0.147-0.379,0.265-0.769,0.369-1.163
	C100.031,171.514,100.054,171.42,100.077,171.324z"/>
<path fill="#C52928" d="M155.965,180.525c0.095-0.231,0.187-0.462,0.264-0.701c0.04-0.124,0.072-0.25,0.107-0.376
	c0.064-0.23,0.124-0.461,0.172-0.695c0.026-0.127,0.048-0.254,0.069-0.382c0.041-0.245,0.073-0.49,0.096-0.737
	c0.011-0.117,0.022-0.233,0.029-0.35c0.017-0.273,0.021-0.545,0.017-0.818c-0.001-0.091,0-0.182-0.003-0.272
	c-0.013-0.333-0.042-0.663-0.085-0.991c-0.004-0.03-0.005-0.061-0.01-0.092c-0.107-0.754-0.294-1.489-0.56-2.182c0,0,0,0,0-0.001
	l0,0c-0.807-2.102-2.331-3.818-4.532-4.47c1.499,2.067,1.032,5.142-0.65,7.063c-1.682,1.921-4.308,2.805-6.86,2.907
	c-6.116,0.246-11.006-3.03-15.39-6.915c-2.131-1.888-4.143-3.92-6.117-5.761c-2.432-2.268-5.091-4.379-8.184-5.601
	c-3.093-1.222-6.69-1.472-9.702-0.062c-3.341,1.565-4.968,4.941-5.017,8.409c0,0.021,0,0.041,0,0.062
	c-0.004,0.462,0.016,0.924,0.068,1.385c0.001,0.009,0.001,0.017,0.002,0.026c0.05,0.439,0.13,0.873,0.23,1.303
	c0.019,0.084,0.041,0.166,0.062,0.25c0.109,0.422,0.233,0.841,0.39,1.247c3.326,8.599,14.465,13.693,22.767,15.807
	c6.065,1.545,12.453,1.855,18.628,0.808c0.988-0.168,1.985-0.379,2.969-0.642c0.657-0.175,1.308-0.374,1.949-0.597
	c1.282-0.447,2.521-0.995,3.671-1.661c1.726-1,3.253-2.266,4.428-3.861c0.196-0.266,0.382-0.541,0.557-0.825
	c0.189-0.307,0.356-0.627,0.506-0.956C155.884,180.739,155.921,180.631,155.965,180.525z"/>
<path fill="#C52928" d="M102.458,28.824l-2.852,71.946l-2.852-71.946c-0.064-1.62,1.231-2.968,2.852-2.968l0,0
	C101.226,25.856,102.522,27.205,102.458,28.824z"/>
<path fill="#C52928" d="M157.122,53.83l-52.89,48.856l48.856-52.89c1.1-1.19,2.969-1.228,4.115-0.082l0,0
	C158.35,50.861,158.313,52.73,157.122,53.83z"/>
<path fill="#C52928" d="M46.122,49.796l48.857,52.89L42.089,53.83c-1.191-1.1-1.228-2.969-0.082-4.115l0,0
	C43.153,48.568,45.023,48.605,46.122,49.796z"/>
<path fill="#29469D" d="M121.814,58.756l-10.491,22.646c-0.748,1.616-3.185,0.657-2.631-1.036l7.759-23.721
	c0.253-0.775,1.106-1.176,1.865-0.878l2.731,1.075C121.806,57.141,122.156,58.016,121.814,58.756z"/>
<path fill="#29469D" d="M149.644,88.681l-23.432,8.595c-1.672,0.613-2.716-1.788-1.128-2.593l22.261-11.287
	c0.727-0.369,1.614-0.049,1.939,0.698l1.171,2.692C150.78,87.534,150.409,88.401,149.644,88.681z"/>
<path fill="#29469D" d="M48.116,88.317l23.165,9.292c1.653,0.663,2.768-1.706,1.205-2.558L50.573,83.104
	c-0.715-0.39-1.612-0.097-1.959,0.64L47.363,86.4C47.015,87.136,47.36,88.014,48.116,88.317z"/>
<path fill="#29469D" d="M80.974,57.274l8.595,23.432c0.613,1.672-1.788,2.716-2.593,1.128l-11.287-22.26
	c-0.369-0.727-0.049-1.614,0.698-1.939l2.692-1.171C79.827,56.138,80.694,56.509,80.974,57.274z"/>
<polygon fill="#C52928" points="168.741,37.745 167.387,41.736 169.908,45.113 165.694,45.059 163.261,48.499 162.01,44.476 
	157.986,43.225 161.427,40.792 161.373,36.578 164.75,39.098 "/>
<polygon fill="#C52928" points="30.47,37.745 34.461,39.098 37.838,36.578 37.784,40.792 41.225,43.225 37.2,44.476 35.95,48.499 
	33.517,45.059 29.303,45.113 31.823,41.736 "/>
<polygon fill="#C52928" points="99.513,10 101.457,13.739 105.639,14.257 102.684,17.261 103.483,21.398 99.713,19.516 
	96.025,21.555 96.65,17.388 93.572,14.51 97.728,13.817 "/>
<g>
	<path fill="#C52928" d="M162.967,124.06h-53.79c0.79-1.11,1.88-2.05,3.19-2.85c0.73-0.44,1.48-0.84,2.24-1.18h45.67
		C161.607,121.04,162.487,122.4,162.967,124.06z"/>
	<path fill="#C52928" d="M163.597,132.1h-55.49c-0.13-0.84-0.23-1.69-0.32-2.54c-0.05-0.51-0.06-1.01-0.03-1.48h55.8
		C163.637,129.42,163.647,130.76,163.597,132.1z"/>
	<path fill="#C52928" d="M163.357,136.13c-0.01,0.15-0.02,0.29-0.03,0.44c-0.09,1.2-0.22,2.39-0.39,3.58h-53
		c-0.44-1.33-0.8-2.67-1.1-4.02H163.357z"/>
	<path fill="#C52928" d="M162.167,144.18c-0.06,0.26-0.13,0.52-0.2,0.78c-0.3,1.1-0.63,2.19-1.02,3.24h-47.14
		c-0.86-1.27-1.61-2.61-2.26-4.02H162.167z"/>
	<path fill="#C52928" d="M159.027,152.23c-0.76,1.25-1.65,2.42-2.73,3.5c-0.18,0.18-0.36,0.35-0.55,0.52h-33.36
		c-1.32-0.75-2.57-1.63-3.77-2.64c-0.53-0.44-1.03-0.9-1.51-1.38H159.027z"/>
	<path fill="#C52928" d="M146.987,160.27c-2.43,0.41-4.87,0.46-7.33,0.36c-1.51-0.06-3.02-0.17-4.51-0.36H146.987z"/>
</g>
<path fill="#29469D" d="M91.157,130.04l0.26-1.54l-1.12-1.1l1.55-0.22l0.16-0.32c-0.11-0.53-0.27-1.04-0.51-1.55
	c-1.09-2.3-3.02-3.7-5.19-4.81c-2.11-1.08-4.32-1.82-6.6-2.36l0.22,1.23l-1.39-0.73l-1.39,0.73l0.26-1.55l-0.2-0.2
	c-0.77-0.13-1.54-0.25-2.31-0.36c-2.79-0.39-5.59-0.51-8.4-0.57l0.27,0.04l-1.12,1.09l0.27,1.55l-1.39-0.73l-1.39,0.73l0.27-1.55
	l-1.13-1.09l0.75-0.11c-0.23,0-0.45-0.01-0.68-0.01c-3.25-0.06-6.49,0.02-9.72,0.25l-0.99,0.96l0.27,1.55l-1.39-0.73l-1.39,0.73
	l0.27-1.55l-0.63-0.6c-0.12,0.01-0.23,0.02-0.35,0.03c-2.28,0.28-4.52,0.75-6.67,1.63c-2.72,1.11-4.37,3.08-4.95,5.97
	c-0.07,0.37-0.13,0.75-0.19,1.12l0.59,1.21l1.55,0.22l-1.12,1.1l0.27,1.54l-1.39-0.73l-0.17,0.09c0,0.22-0.01,0.44-0.01,0.66
	c0.02,2.22,0.11,4.43,0.3,6.63l0.57,1.16l1.55,0.22l-1.12,1.1l0.27,1.54l-0.85-0.44c0.02,0.1,0.02,0.2,0.04,0.3
	c0.68,4.25,1.79,8.37,4.11,12.07c0.29,0.47,0.61,0.91,0.93,1.34l0.31-0.04l0.69-1.41l0.69,1.41l1.56,0.22l-1.13,1.1l0.21,1.18
	c1.68,1.44,3.64,2.52,5.9,3.21c2.57,0.79,5.22,1.01,8.16,1.05c0.54,0.04,1.34-0.08,2.15-0.1c4.58-0.15,9.03-0.92,13.3-2.61
	c2.5-0.98,4.81-2.29,6.9-3.97c4.17-3.36,6.92-7.7,8.74-12.68c0.36-1,0.67-2,0.95-3.02l-0.26-0.25l0.33-0.05
	c0.65-2.4,1.1-4.85,1.43-7.32c0.05-0.4,0.09-0.8,0.12-1.19L91.157,130.04z M44.247,144.59l0.27,1.54l-1.39-0.73l-1.39,0.73
	l0.27-1.54l-1.13-1.1l1.56-0.22l0.69-1.41l0.69,1.41l1.56,0.22L44.247,144.59z M44.247,133.92l0.27,1.54l-1.39-0.73l-1.39,0.73
	l0.27-1.54l-1.13-1.1l1.56-0.22l0.69-1.41l0.69,1.41l1.56,0.22L44.247,133.92z M44.247,123.25l0.27,1.54l-1.39-0.73l-1.39,0.73
	l0.27-1.54l-1.13-1.1l1.56-0.22l0.69-1.41l0.69,1.41l1.56,0.22L44.247,123.25z M51.907,151.38l-1.39-0.73l-1.39,0.73l0.27-1.54
	l-1.13-1.1l1.55-0.22l0.7-1.41l0.69,1.41l1.55,0.22l-1.12,1.1L51.907,151.38z M51.637,139.17l0.27,1.54l-1.39-0.73l-1.39,0.73
	l0.27-1.54l-1.13-1.1l1.55-0.22l0.7-1.41l0.69,1.41l1.55,0.22L51.637,139.17z M51.637,128.5l0.27,1.54l-1.39-0.73l-1.39,0.73
	l0.27-1.54l-1.13-1.1l1.55-0.22l0.7-1.41l0.69,1.41l1.55,0.22L51.637,128.5z M58.257,155.26l0.27,1.54l-1.39-0.73l-1.39,0.73
	l0.27-1.54l-1.13-1.1l1.56-0.22l0.69-1.41l0.69,1.41l1.56,0.22L58.257,155.26z M58.257,144.59l0.27,1.54l-1.39-0.73l-1.39,0.73
	l0.27-1.54l-1.13-1.1l1.56-0.22l0.69-1.41l0.69,1.41l1.56,0.22L58.257,144.59z M58.257,133.92l0.27,1.54l-1.39-0.73l-1.39,0.73
	l0.27-1.54l-1.13-1.1l1.56-0.22l0.69-1.41l0.69,1.41l1.56,0.22L58.257,133.92z M58.257,123.25l0.27,1.54l-1.39-0.73l-1.39,0.73
	l0.27-1.54l-1.13-1.1l1.56-0.22l0.69-1.41l0.69,1.41l1.56,0.22L58.257,123.25z M65.917,151.38l-1.39-0.73l-1.39,0.73l0.27-1.54
	l-1.13-1.1l1.55-0.22l0.7-1.41l0.69,1.41l1.55,0.22l-1.12,1.1L65.917,151.38z M65.647,139.17l0.27,1.54l-1.39-0.73l-1.39,0.73
	l0.27-1.54l-1.13-1.1l1.55-0.22l0.7-1.41l0.69,1.41l1.55,0.22L65.647,139.17z M65.647,128.5l0.27,1.54l-1.39-0.73l-1.39,0.73
	l0.27-1.54l-1.13-1.1l1.55-0.22l0.7-1.41l0.69,1.41l1.55,0.22L65.647,128.5z M72.537,156.8l-1.39-0.73l-1.39,0.73l0.27-1.54
	l-1.13-1.1l1.56-0.22l0.69-1.41l0.69,1.41l1.56,0.22l-1.13,1.1L72.537,156.8z M72.267,144.59l0.27,1.54l-1.39-0.73l-1.39,0.73
	l0.27-1.54l-1.13-1.1l1.56-0.22l0.69-1.41l0.69,1.41l1.56,0.22L72.267,144.59z M72.267,133.92l0.27,1.54l-1.39-0.73l-1.39,0.73
	l0.27-1.54l-1.13-1.1l1.56-0.22l0.69-1.41l0.69,1.41l1.56,0.22L72.267,133.92z M72.267,123.25l0.27,1.54l-1.39-0.73l-1.39,0.73
	l0.27-1.54l-1.13-1.1l1.56-0.22l0.69-1.41l0.69,1.41l1.56,0.22L72.267,123.25z M79.927,151.38l-1.39-0.73l-1.39,0.73l0.26-1.54
	l-1.12-1.1l1.55-0.22l0.7-1.41l0.69,1.41l1.55,0.22l-1.12,1.1L79.927,151.38z M79.657,139.17l0.27,1.54l-1.39-0.73l-1.39,0.73
	l0.26-1.54l-1.12-1.1l1.55-0.22l0.7-1.41l0.69,1.41l1.55,0.22L79.657,139.17z M79.657,128.5l0.27,1.54l-1.39-0.73l-1.39,0.73
	l0.26-1.54l-1.12-1.1l1.55-0.22l0.7-1.41l0.69,1.41l1.55,0.22L79.657,128.5z M86.547,146.13l-1.39-0.73l-1.39,0.73l0.27-1.54
	l-1.13-1.1l1.56-0.22l0.69-1.41l0.69,1.41l1.56,0.22l-1.13,1.1L86.547,146.13z M86.277,133.92l0.27,1.54l-1.39-0.73l-1.39,0.73
	l0.27-1.54l-1.13-1.1l1.56-0.22l0.69-1.41l0.69,1.41l1.56,0.22L86.277,133.92z M86.277,123.25l0.27,1.54l-1.39-0.73l-1.39,0.73
	l0.27-1.54l-1.13-1.1l1.56-0.22l0.69-1.41l0.69,1.41l1.56,0.22L86.277,123.25z"/>
</svg>
