<?xml version="1.0" encoding="utf-8"?>
<!-- Generator: Adobe Illustrator 23.0.1, SVG Export Plug-In . SVG Version: 6.00 Build 0)  -->
<svg version="1.1" id="Layer_1" xmlns="http://www.w3.org/2000/svg" xmlns:xlink="http://www.w3.org/1999/xlink" x="0px" y="0px"
	 viewBox="0 0 180 478.07" style="enable-background:new 0 0 180 478.07;" xml:space="preserve">
<style type="text/css">
	.st0{fill:#F79432;}
	.st1{fill:#AE5E1F;}
	.st2{fill:#B73125;}
	.st3{fill:#54B248;}
	.st4{fill:#EBEBEC;}
	.st5{fill:none;}
	.st6{fill:#2B2E46;}
	.st7{fill:#9BCC53;}
	.st8{fill:#DEA362;}
	.st9{fill:#EDEDEE;}
	.st10{fill:#C4BB9F;}
	.st11{fill:#CDCFD0;}
	.st12{fill:#F79432;stroke:#AE5E1F;stroke-miterlimit:10;}
</style>
<g>
	<path class="st1" d="M0.28,175.26l28.69,266.71c2.21,20.51,20.09,36.1,41.42,36.1h40.54c21.41,0,39.32-15.69,41.44-36.29
		l27.38-266.65c1.54-14.98-3.95-29.84-14.96-40.48L151.1,121.4c-6.31-6.1-10.79-13.75-12.95-22.12l-0.95-3.66
		c-1.29-5.01-1.78-10.16-1.31-15.31c1.94-21.32,3.39-83.4-45.94-80.19C40.87,3.3,41.52,63.24,43.25,84.13
		c0.43,5.19-0.09,10.36-1.44,15.4l0,0c-2.2,8.22-6.64,15.72-12.85,21.72l-13.74,13.29C4.15,145.24-1.34,160.2,0.28,175.26z"/>
	<path class="st0" d="M5.56,177.34l27,259.6c2.08,19.97,18.91,35.14,38.98,35.14h38.15c20.15,0,37.01-15.27,39-35.32l25.77-259.55
		c1.45-14.58-3.72-29.04-14.08-39.41l-12.88-12.88c-5.94-5.94-10.15-13.38-12.19-21.53l-0.89-3.57c-1.22-4.87-1.68-9.89-1.24-14.9
		c1.82-20.75,3.19-81.17-43.23-78.06C43.76,9.97,44.37,68.31,46,88.64c0.4,5.05-0.09,10.09-1.36,14.99l0,0
		c-2.07,8-6.25,15.3-12.09,21.14l-12.94,12.94C9.2,148.12,4.03,162.68,5.56,177.34z"/>
	<path class="st4" d="M15.79,184.8c0,6.3,0.62,12.7,1.29,18.88c0,11.26,2.5,23.09,3.71,34.3c1.26,11.67,2.53,23.33,3.79,35
		c2.53,23.33,5.05,46.66,7.58,69.99c2.32,21.46,4.65,42.93,6.97,64.39c1.85,17.1,6.38,32.82,21.52,42.92
		c11.66,7.78,26.48,10.22,40.28,7.79c13.46-2.37,26.51-9.68,33.45-21.45c5.6-9.48,6.82-20.83,7.92-31.79
		c6.87-68.41,13.75-136.82,20.62-205.23c1.48-14.75,2.68-30.77-5.27-43.28c-6.79-10.68-19.08-16.76-26.45-27.05
		c-8.05-11.24-9.17-25.95-8.79-39.77s1.95-27.93-1.72-41.26c-3.67-13.33-14.3-25.98-28.1-26.81c-14.37-0.86-26.74,11.45-31.4,25.07
		c-4.65,13.62-3.55,28.42-3.47,42.82c0.08,14.4-1.21,29.67-9.66,41.33c-7.16,9.87-18.69,16.01-25.35,26.22
		C17.35,165.09,15.79,174.82,15.79,184.8z"/>
</g>
</svg>
