<?xml version="1.0" encoding="utf-8"?>
<!-- Generator: Adobe Illustrator 25.2.1, SVG Export Plug-In . SVG Version: 6.00 Build 0)  -->
<svg version="1.1" id="Layer_1" xmlns="http://www.w3.org/2000/svg" xmlns:xlink="http://www.w3.org/1999/xlink" x="0px" y="0px"
	 viewBox="0 0 180 293.5" style="enable-background:new 0 0 180 293.5;" xml:space="preserve">
<style type="text/css">
	.st0{fill:#F79432;}
	.st1{fill:#AE5E1F;}
	.st2{fill:#B73125;}
	.st3{fill:#54B248;}
	.st4{fill:#EBEBEC;}
	.st5{fill:none;}
	.st6{fill:#2B2E46;}
	.st7{fill:#9BCC53;}
	.st8{fill:#DEA362;}
	.st9{fill:#EDEDEE;}
	.st10{fill:#C4BB9F;}
	.st11{fill:#CDCFD0;}
	.st12{fill:#F79432;stroke:#AE5E1F;stroke-miterlimit:10;}
</style>
<g>
	<path class="st8" d="M60,40.7c4.1-2.6,8.1-3.3,12.3-0.4c1,0.7,2.6,1.5,3.4,1.1c7.5-3.7,14.8-0.4,22.1,0.6c5.5,0.8,8.2-3.4,10.1-7.2
		c1.6-3.2,2.2-8.2-1.4-10.2C98.7,20.2,98,12.1,95,5.1c-11.8-6.3-23.5-7.4-35.3,0c-4.3,6.7-6.2,14.6-12.3,20.6
		c-4.5,4.4-2,10.3,1.3,14.7C52,44.8,56.4,43,60,40.7z"/>
	<path class="st8" d="M179.9,55.9c-0.5-3.4-3.1-6.2-6.1-7.9c-0.7-0.4-1.4-0.7-2.1-0.8c-1.9-0.2-3.7,1.3-4.7,3c-1,1.7-1.7,3.6-3.1,5
		c-1.4,1.4-3.9,2-5.2,0.5c-0.8-0.8-1.2-2.3-2.3-2.4c-0.9-0.1-1.6,0.8-2.1,1.6c-3.6,5.8-7.4,12.1-6.7,18.9c0.1,1.4,0.5,2.9,0.1,4.3
		c-0.3,1-0.9,1.8-1.5,2.6c-3.1,4.2-6.3,8.4-9.4,12.7c-0.5,0.6-1,1.3-1.7,1.5c-2.8,0.8-4-5.1-6.9-4.6c-0.4,7.4-1,14.8-1.8,22.2
		c-0.7,6.9-2.3,14.2-2.4,21.1c0,2.6,7.7-3.1,8.6-3.9c2.5-2.2,4.7-5,8.4-4c2.1,0.6,4.3,1.3,6.3,0.6c2.6-1,3.6-4.1,4.2-6.8
		c2.2-9.4,3.6-19,4.3-28.7c0.2-2.8,0.4-5.8,2.1-8.1c1.4-1.9,3.7-3,5.8-4.2c5.8-3.3,10.7-8.2,14.1-14
		C179.1,61.8,180.3,58.9,179.9,55.9z"/>
	<path class="st8" d="M118.9,234.1c-3-1.3-4,1.8-5.8,3.4c-4.4,3.9-9.5,4.7-15.1,3.2c-3.5-0.9-6.9-2.8-10.7-2.3c0,2-0.1,3.9-0.1,5.9
		c0.2,1,0.4,2,0.6,2.9c1.8,6,3.5,12.1,5.3,18.1c6.5,1.7,13,1.8,19.7,1.2c4-6.9,6.5-14.4,8-22.2c-0.1-1.2,0-2.5-0.3-3.7
		C119.9,238.5,121.8,235.4,118.9,234.1z"/>
	<path class="st8" d="M90.8,284.5c-0.3,0.6-0.5,1.1-0.8,1.7c8.3,4.6,16,1.6,23.8-1.7c1.8-0.8,2.2-1.8,0.6-3.2
		C106.5,281.6,98.2,279.6,90.8,284.5z"/>
	<path class="st8" d="M64.3,238c-5.2,1.5-10.8,5.3-16,1.4c-5.1-3.7-8.4-2.5-11.7,1.9c0.1,1,0.1,1.9,0.2,2.9c0.1,1.6,0.2,3.2,0.7,4.7
		c0.6,1.5,1.6,2.9,2.3,4.3c1.7,3.4,1.8,7.3,3.6,10.6c0.2,0.3,1.2,2.8,1.5,2.8c6.5,0.2,13.1,0.5,19.5-1.3c1.4-7,2.7-14,4.1-21.1
		c1.4-0.5,1.1-1.9,1.6-3C70,236.9,67.8,237,64.3,238z"/>
	<path class="st8" d="M56.3,114.7c0.7-0.9,1.4-1.7,2-2.6c0,0,0,0,0,0c0.4-0.4,0.9-0.9,1.3-1.3C72.9,98.3,82.5,82.9,92.6,68
		c-0.1-0.9-0.2-1.4-0.4-2.3c-3.7-2.5-7.6,0-11,0.5c-7.3,1-14.5-0.8-21.7,0.8c-4.6,0.7-9.5,1-13.3,4c-12.5,9.7-24.8,19.7-37.1,29.6
		c-8.5,6.9-10.3,15.4-8.3,26.4C3,139.2,9,150.4,8.7,163.1c-0.2,8.8-0.9,17.9,6.4,25c1.4,1.4,1.5,4.1,2.3,6.2c0.1,0.4,4.4,0,4.9-0.1
		c1.1-0.2,2.2-0.5,3-1.4c2.6-2.7,1.3-5.7,2.5-8.9c0.4-1.2,0.6-2.3,0.9-3.4c0.5-2.1-0.8-4.6-1.2-6.6c-0.4-1.7-0.5-3.6-1.2-5.2
		c-0.3-0.6-0.6-1.1-0.8-1.7c-0.9-3,0.9-5.1-2-7.2c-2.7-1.8-2.6-5.2-2.3-8c1.5-11.3,3.2-22.4,3.8-33.8c2-1.7,4.3-1.9,6.8-1.2
		c0,0,0,0,0,0c-0.6,1.6-0.8,3.3-0.6,5.1c0.5,3.9,0.9,8.8,1.4,12.2c1.6-0.6,4.2-0.8,5.8-1.5C43.4,126,49.1,118.6,56.3,114.7z"/>
	<path class="st8" d="M43.2,279.4c-2.1,1.6-1.2,2.9,0.5,3.9c5.6,3.2,11.7,4.8,18.1,3.8c2.4-0.4,5.1-1.4,5.1-4.8
		C59.2,279.5,51.4,277.9,43.2,279.4z"/>
</g>
<path class="st9" d="M92.6,65.5c-1.4-0.4-2.9-0.7-4.3-0.7c-2.5,0-4.9,0.8-7.4,1.3c-7.1,1.2-14.5-0.7-21.5,0.9
	c-0.1-2.3-2.8-3.7-5.1-4.1c-2.3-0.4-4.9-0.4-6.6-2.1c-2.1-2.1-1.5-5.5-1.4-8.4c0.2-5.7-2.1-11.5-6.3-15.5c-1.9-1.8-4.2-3.3-5.3-5.7
	C34.1,29.6,34,27.8,34,26c0-2.1,0.1-4.3,0.8-6.3c0.7-1.9,1.9-3.7,3.1-5.3c2.3-3.2,4.9-6.7,8.5-8.5c4-2,8.9-2.1,13.1-0.7
	c-2.8,6.3-5.7,12.6-10,18c-1.6,2.1-3.5,4.1-4.2,6.7c-0.7,3.1,0.6,6.4,2.3,9.1c1.3,1.9,3,3.8,5.3,4.2c3.4,0.5,6.2-2.5,9.3-3.8
	c3-1.3,6.6-1.1,9.5,0.6c1.1,0.7,2.2,1.6,3.5,1.5c0.7,0,1.4-0.4,2.1-0.7c6.1-2.5,12.9,0.1,19.4,1.1c1.7,0.3,3.4,0.4,5-0.2
	c2.6-0.9,4.2-3.4,5.5-5.8c1.6-3,2.8-6.8,0.9-9.4c-0.8-1.1-2-1.8-3-2.6c-5.7-4.3-8-11.7-10-18.6c7-2.5,15.7,1,18.9,7.7
	c0.3,0.7,0.6,1.4,1.1,1.9c0.8,0.8,1.9,1.1,2.8,1.7c1.7,1.3,1.9,3.8,1.6,5.9c-0.2,2.1-0.7,4.3,0.1,6.3c0.2,0.5,0.6,1.1,0.6,1.7
	c0.1,1.8-2.2,2.6-3.9,3.2c-3.5,1.3-6.2,4.4-6.9,8.1c-0.6,3.2,0.2,6.5-0.2,9.7c-0.4,3.1-1.9,6-4.3,8c-1,0.8-2.1,1.6-2.9,2.6
	c-0.8,1-1.1,2.6-0.3,3.6c0.5,0.7,1.5,1,1.8,1.8c0.6,1.3-0.9,2.6-2.3,2.6c-1.4,0-2.6-0.9-3.7-1.7C96.3,67.1,94.5,66.1,92.6,65.5z"/>
<g>
	<path class="st1" d="M64.3,265.4c-6.4,1.7-13,1.5-19.5,1.3c2.3,3.5,0.9,6.4-1.7,8.9c0,1.3,0,2.5,0.1,3.8c8.2-1.5,16,0.1,23.7,2.9
		c0,3.4-2.7,4.4-5.1,4.8c-6.4,1.1-12.5-0.6-18.1-3.8c-1.8-1-2.6-2.3-0.5-3.9c0-1.3,0-2.5-0.1-3.8c-5.6,8.2-4.8,10.9,4.1,13.6
		c3.7,1.1,7.7,2.1,11.5,2.3c6.7,0.3,9.4-3.1,8.1-9.3C67.7,276.3,61.8,271.5,64.3,265.4z"/>
	<path class="st1" d="M111.6,275.5c-3.9-3.6,1.9-5.9,1.1-9c-6.6,0.5-13.2,0.4-19.7-1.2c0.5,4.4,1.4,8.8-1.5,12.9
		c-1.3,1.8-1.1,4.1-0.8,6.3c7.4-4.9,15.7-3,23.6-3.2c1.5,1.4,1.2,2.4-0.6,3.2c-7.7,3.4-15.5,6.4-23.8,1.7c-0.7,5.2,3.2,6.1,6.8,6.9
		c4.2,1,8.4-0.5,12.3-1.8c3.2-1,7.9-0.6,8.7-5.4C118.9,280.7,115.8,277.8,111.6,275.5z"/>
</g>
<g>
	<g>
		<path class="st0" d="M140.7,162.6c-3.1-10.1-1.8-21.2-7.3-30.7c-0.5-0.8-1.3-1.3-2.2-1.5h0c-1.3-0.2-2.4,0.6-2.9,1.8
			c-0.6,1.4-3.1,0.7-4.6,1.5c-11,5.3-23,7.5-34.7,7.8c-18.2,0.4-36.6,2.7-54.6-2.5c-1.1-0.3-2.4,0.2-5.3,0.5
			c16.8,9,33.4,10,50.2,9.7c16.7-0.3,33.1-2.9,51.1-7.8c-5.2,6.5-3.2,12.6-4.3,19.1c-0.5-1.5-0.9-2.1-1-2.8c-0.4-3.3,0.5-8.1-4.2-8
			c-4.3,0.1-6.9,3.3-7.9,8.3c-2.6,12.3-3,24.9-5.8,37.2c-2.9,12.6-2.9,25.8-9.1,38.8c-1.7-3.3-0.8-5.5-0.4-7.8
			c3.7-19.5,5.2-39.1,2.2-58.8c-1-6.1-4.1-7.4-9.1-3.6c-5.6,4.2-8.4,10.4-9.9,16.9c-1.9,8.4-5.3,16.5-5,25.3c0.1,1.8-1,3.7-2.8,5.4
			c0-11.6-0.1-23.2,0.1-34.8c0.1-4-0.9-7.8-1.7-11.7c-0.5-2.6-2.2-3.8-4.8-3.7c-2.3,0.1-3.4,1.5-4.1,3.6c-1.8,6-1.7,12.1-3,18.2
			c0-5.7,0-11.3,0-17c0-2.8,0-6.1-3.7-6.1c-3.7,0-3.7,3.3-3.7,6.1c-0.3,19-0.5,37.9,3.4,56.8c-4-4.2-5-9.6-6.4-14.8
			c-3.1-12.4-3.4-25.4-7.4-37.6c-1.5-4.4-2.3-9.1-6.4-12.1c-1.6-1.2-0.7-5.3-4.1-4c-2.2,0.9-2.1,3.7-2.7,5.8c-1.1,3.2,1.1,7-1.7,9.9
			c0,3.4,2,6.5,1.2,10c0.2,1.3,0.2,2.5-0.9,3.3c0,10.2-1.1,11.4-9.7,11.1c-0.8,1.2-2.1,2.3-1.3,4c4.9,10.8,6.3,22.6,9.7,33.9
			c1.4,4.7,3.1,11.1,10.8,9.3c3.3-4.4,6.6-5.6,11.7-1.9c5.3,3.9,10.8,0,16-1.4c3.6-1,5.7-1.1,5.7,3.3c2.6-6.9,7.3-7.5,13.3-4.6
			c1.3,0.6,2.7,1.1,4,1.6c3.8-0.5,7.2,1.4,10.7,2.3c5.6,1.5,10.7,0.7,15.1-3.2c1.8-1.6,2.8-4.7,5.8-3.4c2.9,1.3,1.1,4.4,1.6,6.6
			c0.3,1.2,0.2,2.4,0.3,3.7c1.5-1.6,1.2-3.7,1.2-5.6c0.1-2.6,1.6-4,3.8-3.1c7,2.8,7.3-2.2,8-6.5c2-13.4,4-26.7,5.7-40.1
			C140.6,180.2,143.3,171.1,140.7,162.6z"/>
		<path class="st0" d="M63.4,127.6c18.1-6.1,31.3-18.1,40-35.1c0.8-1.5,1.7-4.5,1.5-4.6c-6.1-2.6-1.6-5.1-0.1-7.7
			c0.9-1.5,1.5-3.6-0.3-4.6c-1.6-0.9-2.7,0.7-3.4,2c-2.6,5-7.5,8.6-9.1,14.3c-0.5,1.7-1.3,3.8-3.4,2.7c-1.6-0.9-1.1-3.2-0.2-4.7
			c2.3-4.1,4.2-8.3,5.8-12.8c1.4-4-0.2-5.5-3.3-6.7C81.5,84.6,72.2,99,59.7,110.8c-0.4,0.4-0.9,0.9-1.3,1.3
			c-0.7,0.9-2.2,2.3-2.9,3.1c-0.7,3.8-4.3,5.5-6.3,8.6C51.9,130.6,58.7,129.1,63.4,127.6z"/>
		<path class="st0" d="M85.4,123c-0.8,1.9-1.3,4,0.1,5.6c1.8,2.1,3.4,0.1,5.1-0.8c6.4-3.3,9.6-9.7,14.3-14.7
			c-0.2,3.9-1.4,7.2-3.5,10.4c-2.1,3.2-3.3,7.3-0.7,10.4c3.1,3.8,4.7-1.6,7.2-2.1c1.4-0.3,2.9-0.4,4.4-0.6c2.4-0.4,4.3-2,4.8-4.2
			c2.7-13.3,6.1-26.5,4.4-41.5c-5.2,10.3-5.5,20.9-10.5,32.1c0.4-14.5,6.1-26.4,4.4-40.6c-1.9,2.1-2.7,2.9-3.4,3.9
			c-0.7,1-1.4,2-1.8,3.2c-5.7,13.5-12,26.5-22.9,36.7C86.5,121.4,85.8,122.1,85.4,123z"/>
	</g>
</g>
<path d="M61.4,18.3c-0.4-0.3-0.4-0.7,0-1.6c0.7-1.3,2-2.3,3.5-2.6c0.6-0.1,1.2-0.1,1.7,0.1c0.5,0.2,1,0.7,1,1.3
	c0,0.8-0.6,1.4-1.3,1.8C65.6,17.9,62.4,19,61.4,18.3z"/>
<path d="M91.3,17.8c0.3-0.3,0.3-0.8-0.3-1.6c-0.9-1.2-2.3-2-3.8-2.1c-0.6,0-1.2,0-1.7,0.3c-0.5,0.3-0.9,0.9-0.8,1.5
	c0.1,0.8,0.8,1.3,1.5,1.6C87.1,18,90.4,18.7,91.3,17.8z"/>
<path class="st1" d="M79.1,149c-16.8,0.3-33.3-0.7-50.2-9.7c3-0.3,4.3-0.8,5.3-0.5c18,5.2,36.4,2.9,54.6,2.5
	c11.8-0.3,24.2-2.4,35.2-7.7c2.2-14.4,3-29,4-43.6c-0.9-3.9,2.1-9.3-2-11.6c-5.4-3-10.4-6.8-16-9.4c-3.5-2.4-10.9-4.6-14.3-5.5
	c-1.1-0.3-2.2,0.2-2.7,1.2c0,0-0.5,1.1-0.5,1.1c-0.5,1.5-1,3-1.5,4.5c3.1,1.2,4.7,2.7,3.3,6.7c-1.6,4.4-3.5,8.6-5.8,12.8
	c-0.9,1.5-1.4,3.8,0.2,4.7c2.1,1.2,2.9-1,3.4-2.7c1.6-5.7,6.4-9.3,9.1-14.3c0.7-1.3,1.8-3,3.4-2c1.8,1.1,1.2,3.1,0.3,4.6
	c-1.5,2.6-6,5.1,0.1,7.7c0.1,0.1-0.8,3.1-1.5,4.6c-8.7,16.9-21.9,28.9-40,35.1c-4.7,1.6-10.4,2.9-13.2-3.9c-0.2-0.6,2.9-3.4,3.3-3.9
	c1.2-1.5,2.1-3.2,2.8-5c-3.6,1.9-7.5,4-10.6,6.7c-3,2.6-5.4,5.9-8.7,8.1c-2.7,1.8-6.2,2.9-8.3,5.5c-1.8,2.2-2.7,5-3.1,7.8
	c-0.9,6,0.2,12.1-0.4,18.2c0.8,2.9-0.9,6.3,1.6,8.9c2.8-2.9,0.6-6.7,1.7-9.9c0.7-2,0.5-4.9,2.7-5.8c3.4-1.3,2.6,2.8,4.1,4
	c4,3,4.9,7.7,6.4,12.1c4,12.2,4.3,25.2,7.4,37.6c1.3,5.2,2.4,10.5,6.4,14.8c-3.9-18.9-3.7-37.8-3.4-56.8c0-2.8,0-6.1,3.7-6.1
	c3.7,0,3.7,3.3,3.7,6.1c0,5.7,0,11.3,0,17c1.3-6.1,1.2-12.3,3-18.2c0.7-2.2,1.8-3.5,4.1-3.6c2.6-0.1,4.2,1.1,4.8,3.7
	c0.8,3.9,1.8,7.6,1.7,11.7c-0.2,11.6-0.1,23.2-0.1,34.8c1.7-1.7,2.8-3.6,2.8-5.4c-0.3-8.9,3.1-17,5-25.3c1.5-6.5,4.2-12.7,9.9-16.9
	c5-3.8,8.2-2.5,9.1,3.6c3.1,19.7,1.6,39.3-2.2,58.8c-0.4,2.3-1.3,4.4,0.4,7.8c6.2-13,6.3-26.3,9.1-38.8c2.8-12.2,3.1-24.9,5.8-37.2
	c1.1-5,3.6-8.2,7.9-8.3c4.7-0.1,3.9,4.7,4.2,8c0.1,0.7,0.4,1.3,1,2.8c1.1-6.5-0.9-12.6,4.3-19.1C112.2,146.1,95.8,148.7,79.1,149z
	 M85.4,123c0.4-0.9,1.1-1.6,1.8-2.3c10.9-10.2,17.3-23.2,22.9-36.7c0.5-1.1,1.1-2.2,1.8-3.2c0.7-0.9,1.5-1.7,3.4-3.9
	c1.6,14.2-4,26.1-4.4,40.6c5.1-11.2,5.4-21.7,10.5-32.1c1.7,15-1.7,28.2-4.4,41.5c-0.4,2.2-2.3,3.8-4.8,4.2
	c-1.5,0.2-2.9,0.3-4.4,0.6c-2.5,0.5-4.1,6-7.2,2.1c-2.6-3.1-1.4-7.2,0.7-10.4c2.1-3.1,3.3-6.4,3.5-10.4c-4.8,5-7.9,11.4-14.3,14.7
	c-1.7,0.9-3.3,2.9-5.1,0.8C84.1,127,84.6,124.9,85.4,123z"/>
</svg>
