<?xml version="1.0" encoding="utf-8"?>
<!-- Generator: Adobe Illustrator 23.0.1, SVG Export Plug-In . SVG Version: 6.00 Build 0)  -->
<svg version="1.1" id="Layer_1" xmlns="http://www.w3.org/2000/svg" xmlns:xlink="http://www.w3.org/1999/xlink" x="0px" y="0px"
	 viewBox="0 0 180 279.4" style="enable-background:new 0 0 180 279.4;" xml:space="preserve">
<style type="text/css">
	.st0{fill:#F79432;}
	.st1{fill:#AE5E1F;}
	.st2{fill:#B73125;}
	.st3{fill:#54B248;}
	.st4{fill:#EBEBEC;}
	.st5{fill:none;}
	.st6{fill:#2B2E46;}
	.st7{fill:#9BCC53;}
	.st8{fill:#DEA362;}
	.st9{fill:#EDEDEE;}
	.st10{fill:#C4BB9F;}
	.st11{fill:#CDCFD0;}
	.st12{fill:#F79432;stroke:#AE5E1F;stroke-miterlimit:10;}
</style>
<g>
	<path class="st0" d="M130.9,17.07c0,0-18.75,26.11-8.03,54.9c0,0,52.22-0.67,56.91,58.92c4.69,59.59-64.27,141.94-64.27,141.94h-51
		c0,0-68.96-82.35-64.27-141.94s56.91-58.92,56.91-58.92c10.71-28.79-8.03-54.9-8.03-54.9H130.9z"/>
	<polyline class="st1" points="67.01,272.83 73.58,279.4 106.24,279.4 112.42,273.1 67.01,273.1 	"/>
	<polygon class="st1" points="130.9,17.07 141.5,0 39.06,0 49.1,17.07 	"/>
</g>
<g>
	<path class="st1" d="M90.12,84.66c-25.82,0.07-46.7,21-46.74,46.86c0,25.93,21.03,47.2,47.47,46.91
		c25.43-0.28,46.28-20.89,46.31-46.85C137.2,105.61,116.19,84.59,90.12,84.66z M90.35,176.85c-24.94,0.04-45.1-20-45.37-44.79
		c-0.27-25.27,20.08-45.79,45.3-45.81c24.87,0.01,45.06,20.01,45.3,44.86C135.82,156.35,115.49,176.81,90.35,176.85z"/>
	<path class="st2" d="M132.72,122.55c-0.13-0.72-0.34-1.43-0.56-2.13c-0.17-0.54-0.55-0.79-0.97-0.67
		c-1.63,0.45-3.26,0.92-4.89,1.38c-0.54,0.15-1.08,0.31-1.58,0.46c-0.84-2.7-1.87-5.25-3.27-7.65c0.62-0.36,1.21-0.71,1.84-1.07
		c0.34,0.6,0.7,1.17,0.99,1.77c0.48,1.02,0.91,2.05,1.36,3.08c0.29,0.67,0.63,0.83,1.31,0.59c1.05-0.37,2.09-0.74,3.14-1.11
		c0.65-0.23,0.89-0.7,0.63-1.34c-0.42-1.03-0.83-2.06-1.31-3.06c-0.51-1.06-1.05-2.13-1.68-3.12c-0.98-1.54-2.05-3.02-3.1-4.52
		c-0.27-0.39-0.77-0.45-1.15-0.16c-0.38,0.29-0.76,0.58-1.13,0.88c-1.14,0.92-2.27,1.86-3.42,2.78c-0.22,0.18-0.47,0.31-0.72,0.48
		c-1.75-2.18-3.71-4.11-5.9-5.82c0.44-0.58,0.85-1.13,1.27-1.68c0.36,0.26,0.68,0.45,0.96,0.7c1.07,0.99,2.12,1.99,3.18,3
		c0.39,0.37,0.89,0.39,1.28,0.03c0.83-0.77,1.66-1.55,2.48-2.34c0.57-0.55,0.59-0.92,0.05-1.49c-0.5-0.53-1.04-1.03-1.56-1.54
		c-0.34-0.34-0.65-0.71-1.02-1.01c-0.82-0.67-1.66-1.32-2.51-1.95c-1.05-0.77-2.13-1.5-3.2-2.25c-0.37-0.26-0.74-0.51-1.13-0.73
		c-0.61-0.34-1.08-0.2-1.42,0.4c-0.63,1.13-1.25,2.25-1.87,3.38c-0.42,0.77-0.85,1.54-1.28,2.32c-2.48-1.32-5.01-2.44-7.77-3.13
		c0.2-0.69,0.4-1.35,0.6-2.04c0.86,0.24,1.68,0.43,2.47,0.71c0.89,0.32,1.75,0.72,2.62,1.08c0.66,0.27,1,0.15,1.31-0.5
		c0.47-0.99,0.93-1.98,1.39-2.97c0.36-0.76,0.22-1.15-0.56-1.5c-0.64-0.29-1.28-0.61-1.95-0.82c-2.12-0.66-4.24-1.31-6.39-1.87
		c-1.05-0.28-2.16-0.36-3.25-0.49c-0.63-0.08-1.06,0.19-1.11,0.65c-0.14,1.24-0.26,2.48-0.39,3.72c-0.09,0.97-0.17,1.94-0.26,2.95
		c-2.83-0.31-5.6-0.29-8.4,0.06c-0.09-0.71-0.18-1.38-0.27-2.08c0.16-0.02,0.25-0.04,0.33-0.05c1.67-0.08,3.33-0.16,5-0.22
		c0.72-0.03,1.05-0.32,1.08-1.03c0.05-1.16,0.1-2.31,0.16-3.47c0.02-0.41-0.18-0.67-0.52-0.8c-0.25-0.09-0.52-0.12-0.79-0.13
		c-2.39-0.04-4.78,0.11-7.14,0.52c-1.53,0.26-3.06,0.59-4.58,0.93c-0.71,0.16-0.9,0.6-0.71,1.28c0.57,1.94,1.13,3.89,1.69,5.83
		c0.04,0.12,0.06,0.25,0.08,0.35c-2.65,0.89-5.22,1.88-7.61,3.31c-0.36-0.62-0.72-1.22-1.1-1.87c0.87-0.45,1.69-0.9,2.54-1.31
		c0.84-0.4,1.7-0.74,2.54-1.15c0.47-0.23,0.58-0.59,0.4-1.1c-0.39-1.09-0.78-2.17-1.17-3.26c-0.22-0.61-0.73-0.86-1.31-0.61
		c-1.33,0.59-2.65,1.19-3.96,1.81c-0.51,0.24-1,0.55-1.49,0.84c-1.07,0.64-2.14,1.25-3.18,1.93c-0.72,0.46-1.38,1-2.06,1.52
		c-0.37,0.28-0.44,0.82-0.15,1.2c0.33,0.43,0.66,0.85,1,1.26c0.94,1.15,1.88,2.29,2.82,3.44c0.08,0.1,0.19,0.21,0.22,0.33
		c0.03,0.12,0,0.3-0.07,0.38c-0.59,0.55-1.22,1.06-1.79,1.63c-0.99,0.98-1.95,1.97-2.9,2.98c-0.33,0.34-0.6,0.74-0.92,1.14
		c-0.58-0.43-1.12-0.85-1.69-1.28c0.31-0.4,0.57-0.79,0.88-1.13c0.93-1.02,1.89-2.02,2.83-3.03c0.43-0.46,0.43-0.8,0-1.26
		c-0.8-0.85-1.6-1.7-2.41-2.54c-0.47-0.48-0.82-0.51-1.32-0.06c-0.48,0.43-0.91,0.9-1.37,1.35c-0.4,0.4-0.83,0.78-1.19,1.22
		c-0.67,0.82-1.33,1.66-1.95,2.51c-0.76,1.04-1.49,2.1-2.22,3.16c-0.27,0.39-0.54,0.79-0.78,1.21c-0.29,0.51-0.23,1.15,0.12,1.35
		c0.62,0.37,1.24,0.73,1.87,1.07c0.91,0.5,1.82,0.98,2.73,1.46c0.44,0.24,0.89,0.46,1.36,0.7c-1.32,2.52-2.45,5.06-3.11,7.82
		c-0.71-0.21-1.37-0.4-2.06-0.59c0.26-0.9,0.47-1.77,0.77-2.62c0.3-0.86,0.69-1.69,1.03-2.54c0.24-0.59,0.11-0.93-0.47-1.21
		c-1.03-0.49-2.06-0.97-3.1-1.44c-0.72-0.33-1.08-0.16-1.42,0.56c-1.07,2.28-1.77,4.69-2.38,7.12c-0.36,1.45-0.55,2.95-0.77,4.43
		c-0.12,0.77,0.22,1.15,0.98,1.22c1.42,0.12,2.84,0.23,4.26,0.37c0.68,0.06,1.36,0.17,2.07,0.26c-0.28,2.73-0.26,5.4,0.06,8.12
		c-0.71,0.09-1.38,0.17-2.08,0.25c-0.02-0.14-0.03-0.22-0.03-0.29c-0.07-1.59-0.15-3.18-0.21-4.77c-0.03-0.73-0.3-1.03-1.03-1.07
		c-1.11-0.06-2.22-0.1-3.33-0.15c-0.68-0.03-1.03,0.29-1.06,0.98c-0.02,0.54-0.04,1.09,0,1.62c0.19,2.21,0.36,4.43,0.64,6.63
		c0.15,1.2,0.48,2.38,0.78,3.55c0.17,0.67,0.58,0.83,1.24,0.65c1.42-0.4,2.83-0.78,4.25-1.19c0.67-0.19,1.33-0.4,1.96-0.6
		c0.86,2.69,1.87,5.25,3.27,7.66c-0.61,0.36-1.2,0.71-1.83,1.07c-0.28-0.49-0.6-0.96-0.84-1.47c-0.52-1.11-1.02-2.24-1.51-3.36
		c-0.3-0.69-0.64-0.85-1.34-0.6c-1.03,0.36-2.06,0.73-3.1,1.09c-0.7,0.24-0.93,0.73-0.62,1.41c0.61,1.37,1.22,2.73,1.87,4.08
		c0.43,0.89,0.88,1.77,1.42,2.6c0.86,1.31,1.8,2.58,2.71,3.86c0.36,0.5,0.82,0.57,1.31,0.19c0.63-0.49,1.25-0.98,1.86-1.48
		c0.24-0.2,0.46-0.42,0.71-0.62c0.43-0.35,0.87-0.68,1.31-1.02c0.42-0.32,0.84-0.65,1.27-0.99c1.77,2.24,3.74,4.14,5.92,5.86
		c-0.45,0.59-0.86,1.13-1.35,1.78c-1.38-1.29-2.69-2.51-4-3.74c-0.46-0.44-0.91-0.48-1.37-0.05c-0.83,0.77-1.65,1.56-2.48,2.34
		c-0.51,0.48-0.57,0.85-0.09,1.35c0.86,0.91,1.74,1.82,2.67,2.65c0.8,0.72,1.68,1.35,2.54,1.98c1.03,0.75,2.08,1.47,3.12,2.19
		c0.39,0.27,0.79,0.54,1.21,0.78c0.55,0.31,1.05,0.15,1.36-0.39c0.28-0.5,0.58-0.98,0.86-1.48c0.47-0.85,0.92-1.72,1.38-2.57
		c0.3-0.56,0.62-1.12,0.93-1.69c2.47,1.33,5.01,2.44,7.76,3.14c-0.19,0.67-0.38,1.33-0.58,2.05c-0.88-0.25-1.71-0.45-2.51-0.73
		c-0.92-0.33-1.8-0.74-2.71-1.1c-0.53-0.21-0.89-0.08-1.12,0.41c-0.54,1.12-1.06,2.25-1.58,3.38c-0.16,0.34-0.14,0.71,0.24,0.9
		c0.73,0.38,1.45,0.82,2.22,1.06c2.37,0.74,4.77,1.43,7.17,2.07c0.85,0.23,1.75,0.27,2.63,0.37c0.65,0.07,1.08-0.2,1.13-0.68
		c0.14-1.4,0.27-2.81,0.41-4.21c0.08-0.8,0.17-1.6,0.25-2.42c2.82,0.31,5.58,0.29,8.37-0.06c0.09,0.71,0.18,1.38,0.27,2.09
		c-0.22,0.02-0.38,0.05-0.54,0.06c-1.64,0.07-3.27,0.13-4.91,0.2c-0.6,0.03-0.93,0.36-0.96,0.96c-0.05,1.16-0.1,2.31-0.16,3.47
		c-0.02,0.47,0.17,0.78,0.62,0.91c0.2,0.06,0.41,0.07,0.62,0.08c2.4,0.05,4.78-0.1,7.14-0.51c1.56-0.27,3.12-0.6,4.66-0.96
		c0.69-0.16,0.88-0.6,0.69-1.25c-0.57-1.97-1.14-3.95-1.72-5.92c-0.03-0.1-0.05-0.2-0.07-0.28c2.65-0.89,5.21-1.87,7.61-3.31
		c0.37,0.62,0.72,1.22,1.1,1.86c-0.85,0.45-1.66,0.9-2.49,1.31c-0.84,0.4-1.71,0.74-2.55,1.13c-0.49,0.23-0.62,0.61-0.44,1.12
		c0.38,1.09,0.77,2.17,1.16,3.26c0.23,0.63,0.74,0.87,1.35,0.59c1.46-0.66,2.91-1.34,4.36-2.02c0.36-0.17,0.7-0.41,1.05-0.61
		c1.08-0.65,2.17-1.27,3.22-1.95c0.7-0.45,1.35-0.99,2.03-1.49c0.38-0.28,0.45-0.82,0.16-1.2c-0.39-0.51-0.79-1.01-1.2-1.51
		c-0.81-0.98-1.62-1.96-2.43-2.94c-0.15-0.19-0.31-0.37-0.42-0.58c-0.05-0.09-0.01-0.3,0.07-0.37c0.59-0.55,1.22-1.06,1.79-1.63
		c0.99-0.98,1.95-1.98,2.91-2.99c0.33-0.34,0.6-0.74,0.92-1.13c0.58,0.44,1.12,0.85,1.7,1.28c-0.33,0.42-0.62,0.83-0.95,1.19
		c-0.92,1.01-1.86,2-2.79,3c-0.39,0.42-0.4,0.78-0.01,1.19c0.81,0.86,1.62,1.72,2.44,2.57c0.47,0.49,0.84,0.5,1.36,0.03
		c0.45-0.41,0.88-0.85,1.3-1.3c0.8-0.87,1.65-1.7,2.37-2.63c0.98-1.26,1.87-2.6,2.79-3.91c0.36-0.52,0.7-1.05,1.02-1.59
		c0.38-0.65,0.22-1.17-0.43-1.53c-1.5-0.84-3.01-1.68-4.51-2.51c-0.36-0.2-0.75-0.35-1.15-0.53c1.32-2.53,2.45-5.06,3.12-7.83
		c0.7,0.2,1.37,0.39,2.07,0.59c-0.29,0.95-0.53,1.87-0.84,2.75c-0.29,0.82-0.66,1.61-0.98,2.42c-0.23,0.58-0.09,0.93,0.44,1.18
		c1.06,0.5,2.14,0.95,3.18,1.48c0.6,0.3,1.05,0.08,1.34-0.53c0.3-0.64,0.61-1.28,0.82-1.95c0.65-2.12,1.31-4.24,1.87-6.39
		c0.28-1.07,0.36-2.19,0.5-3.29c0.1-0.8-0.21-1.14-0.99-1.21c-1.12-0.1-2.25-0.18-3.37-0.28c-0.98-0.09-1.96-0.22-2.9-0.32
		c0.05-1.4,0.14-2.73,0.13-4.07c-0.01-1.34-0.12-2.69-0.18-4.07c0.65-0.08,1.31-0.16,2.01-0.25c0.03,0.17,0.06,0.3,0.07,0.43
		c0.07,1.56,0.14,3.12,0.19,4.68c0.02,0.61,0.32,0.99,0.85,1.02c1.19,0.06,2.37,0.11,3.56,0.16c0.6,0.02,0.95-0.3,1.01-0.9
		c0.01-0.13,0.01-0.27,0.01-0.41C133.66,128.79,133.27,125.66,132.72,122.55z M132.04,131.52c-0.75,0-1.51,0-2.33,0
		c0-0.35,0.02-0.7,0-1.04c-0.09-1.5-0.18-2.99-0.3-4.49c-0.05-0.69-0.53-1.02-1.22-0.9c-1.08,0.19-2.16,0.37-3.24,0.54
		c-0.56,0.09-0.79,0.45-0.73,1.08c0.13,1.36,0.33,2.72,0.34,4.08c0.01,1.63-0.12,3.26-0.24,4.89c-0.06,0.83,0.14,1.16,0.97,1.28
		c2.02,0.29,4.04,0.59,6.06,0.89c0.06,0.01,0.11,0.03,0.2,0.05c-0.28,3.3-1.43,6.35-2.5,9.48c-0.76-0.33-1.45-0.63-2.16-0.94
		c0.27-0.73,0.57-1.42,0.79-2.13c0.34-1.09,0.65-2.18,0.94-3.28c0.15-0.58-0.09-0.98-0.67-1.12c-1.11-0.27-2.22-0.53-3.33-0.77
		c-0.59-0.12-0.9,0.1-1.07,0.69c-0.31,1.05-0.57,2.11-0.93,3.14c-0.34,0.97-0.77,1.92-1.21,2.86c-0.44,0.95-0.94,1.87-1.41,2.81
		c-0.25,0.49-0.17,0.85,0.31,1.15c0.63,0.4,1.29,0.76,1.92,1.15c0.77,0.47,1.52,0.97,2.28,1.44c0.49,0.3,1.01,0.58,1.54,0.89
		c-1.77,2.79-3.71,5.37-6.02,7.67c-0.59-0.55-1.14-1.07-1.6-1.51c1.25-1.52,2.46-2.97,3.65-4.45c0.4-0.5,0.3-0.89-0.22-1.26
		c-0.89-0.64-1.77-1.28-2.66-1.91c-0.62-0.44-0.91-0.35-1.38,0.22c-0.91,1.1-1.8,2.21-2.8,3.22c-1.09,1.11-2.29,2.1-3.44,3.15
		c-0.19,0.17-0.42,0.33-0.53,0.54c-0.11,0.22-0.17,0.53-0.09,0.75c0.11,0.33,0.32,0.64,0.54,0.93c0.8,1.09,1.61,2.17,2.42,3.25
		c0.35,0.46,0.69,0.93,1.07,1.43c-2.68,1.94-5.47,3.55-8.52,4.79c-0.28-0.71-0.56-1.41-0.86-2.16c0.41-0.16,0.81-0.29,1.18-0.48
		c0.94-0.47,1.86-0.98,2.79-1.47c0.34-0.18,0.7-0.34,1.03-0.54c0.65-0.39,0.73-0.8,0.32-1.44c-0.57-0.9-1.12-1.8-1.69-2.71
		c-0.34-0.55-0.81-0.66-1.38-0.34c-0.76,0.43-1.49,0.92-2.28,1.28c-1.51,0.68-3.06,1.31-4.6,1.92c-0.57,0.22-1.19,0.31-1.78,0.48
		c-0.58,0.17-0.75,0.56-0.61,1.15c0.5,2.04,0.98,4.08,1.47,6.12c0.02,0.08,0.03,0.17,0.04,0.25c-1.26,0.51-8.26,1.39-9.62,1.11
		c0-0.74,0-1.48,0-2.27c0.17-0.01,0.33-0.01,0.49-0.03c1.71-0.12,3.41-0.21,5.12-0.37c0.7-0.06,0.94-0.48,0.81-1.18
		c-0.19-1.09-0.4-2.19-0.6-3.28c-0.11-0.56-0.36-0.75-0.95-0.69c-0.93,0.09-1.85,0.23-2.78,0.3c-2.15,0.15-4.29,0.09-6.42-0.17
		c-0.32-0.04-0.69,0.02-0.98,0.15c-0.17,0.07-0.3,0.37-0.34,0.58c-0.23,1.45-0.42,2.91-0.64,4.37c-0.1,0.69-0.23,1.38-0.36,2.14
		c-0.83-0.13-1.65-0.19-2.42-0.39c-1.55-0.41-3.09-0.88-4.62-1.35c-0.7-0.21-1.39-0.47-2.09-0.71c-0.22-0.07-0.33-0.18-0.22-0.43
		c0.28-0.61,0.54-1.23,0.82-1.87c0.41,0.17,0.79,0.37,1.18,0.49c1.4,0.44,2.8,0.87,4.21,1.28c0.57,0.17,0.98-0.08,1.13-0.66
		c0.29-1.13,0.56-2.27,0.81-3.42c0.11-0.48-0.19-0.85-0.74-1.01c-1.08-0.31-2.18-0.57-3.23-0.96c-1.85-0.7-3.68-1.46-5.37-2.5
		c-0.67-0.41-1-0.32-1.41,0.34c-1.05,1.71-2.09,3.42-3.14,5.14c-0.09,0.14-0.18,0.28-0.3,0.47c-0.35-0.25-0.7-0.48-1.03-0.72
		c-1.46-1.08-2.93-2.13-4.35-3.25c-0.7-0.55-1.32-1.21-1.99-1.82c-0.26-0.23-0.19-0.4,0.03-0.62c0.44-0.45,0.85-0.93,1.26-1.39
		c1.41,1.48,2.86,2.67,4.37,3.8c0.54,0.4,0.91,0.33,1.3-0.2c0.64-0.88,1.28-1.77,1.92-2.65c0.43-0.6,0.36-0.9-0.2-1.36
		c-1.6-1.33-3.22-2.64-4.6-4.21c-0.71-0.81-1.4-1.64-2.12-2.44c-0.4-0.45-0.72-0.47-1.22-0.12c-1.29,0.92-2.58,1.84-3.87,2.77
		c-0.48,0.35-0.95,0.71-1.47,1.1c-1.93-2.71-3.55-5.49-4.75-8.52c0.7-0.29,1.4-0.58,2.14-0.89c0.19,0.47,0.34,0.92,0.55,1.35
		c0.45,0.9,0.93,1.78,1.4,2.67c0.19,0.36,0.36,0.72,0.57,1.06c0.37,0.59,0.8,0.65,1.39,0.28c0.91-0.59,1.83-1.14,2.74-1.71
		c0.53-0.33,0.64-0.79,0.33-1.34c-0.42-0.74-0.9-1.46-1.25-2.24c-0.67-1.49-1.28-3-1.88-4.53c-0.23-0.58-0.33-1.21-0.49-1.82
		c-0.19-0.68-0.55-0.86-1.26-0.69c-2.1,0.51-4.2,1-6.28,1.5c-0.5-1.11-1.36-8.02-1.12-9.65c0.74,0,1.48,0,2.29,0
		c0.01,0.15,0.02,0.31,0.03,0.46c0.1,1.66,0.18,3.33,0.3,4.99c0.06,0.8,0.51,1.09,1.29,0.95c1.03-0.18,2.07-0.35,3.11-0.51
		c0.61-0.1,0.9-0.44,0.8-1.07c-0.33-2.02-0.4-4.06-0.33-6.11c0.03-0.99,0.14-1.98,0.24-2.96c0.08-0.74-0.17-1.09-0.91-1.2
		c-2.03-0.3-4.07-0.6-6.1-0.89c-0.07-0.01-0.14-0.03-0.21-0.05c0.01-1.75,1.56-7.55,2.54-9.45c0.69,0.3,1.38,0.6,2.11,0.91
		c-0.3,0.79-0.63,1.54-0.87,2.32c-0.33,1.06-0.61,2.13-0.87,3.21c-0.12,0.5,0.12,0.86,0.62,0.98c1.15,0.29,2.3,0.56,3.46,0.8
		c0.54,0.11,0.85-0.14,1.01-0.71c0.32-1.11,0.58-2.24,0.99-3.31c0.69-1.84,1.45-3.65,2.47-5.34c0.39-0.64,0.29-0.98-0.35-1.37
		c-1.38-0.85-2.75-1.7-4.13-2.54c-0.47-0.29-0.96-0.55-1.49-0.85c1.76-2.79,3.72-5.38,5.99-7.66c0.61,0.55,1.17,1.06,1.68,1.53
		c-0.47,0.54-0.89,1.02-1.31,1.51c-0.43,0.49-0.89,0.98-1.31,1.48c-0.37,0.45-0.73,0.91-1.07,1.39c-0.39,0.54-0.31,0.9,0.23,1.3
		c0.89,0.64,1.77,1.28,2.66,1.91c0.61,0.43,0.91,0.33,1.38-0.25c0.84-1.03,1.68-2.08,2.61-3.02c1.14-1.15,2.37-2.2,3.56-3.29
		c0.18-0.16,0.35-0.32,0.52-0.5c0.3-0.31,0.33-0.66,0.08-1.02c-0.51-0.72-1.02-1.44-1.55-2.15c-0.6-0.82-1.23-1.63-1.83-2.45
		c-0.19-0.26-0.34-0.56-0.52-0.88c2.65-1.88,5.42-3.52,8.47-4.74c0.28,0.7,0.56,1.39,0.85,2.12c-0.23,0.12-0.45,0.23-0.67,0.34
		c-1.11,0.56-2.22,1.12-3.33,1.68c-0.35,0.18-0.71,0.33-1.04,0.53c-0.6,0.37-0.66,0.8-0.29,1.38c0.56,0.88,1.11,1.78,1.67,2.66
		c0.42,0.67,0.84,0.75,1.54,0.34c0.74-0.43,1.46-0.9,2.24-1.25c1.47-0.66,2.97-1.27,4.48-1.86c0.57-0.22,1.19-0.31,1.78-0.48
		c0.6-0.18,0.79-0.58,0.64-1.18c-0.52-2.11-1.02-4.22-1.53-6.33c0.97-0.52,7.75-1.34,9.62-1.18c0,0.75,0,1.51,0,2.34
		c-0.32,0-0.65-0.02-0.97,0c-1.44,0.09-2.88,0.16-4.31,0.28c-1,0.08-1.26,0.49-1.06,1.48c0.19,0.94,0.35,1.89,0.51,2.84
		c0.14,0.8,0.4,1,1.19,0.88c3.05-0.46,6.1-0.47,9.16-0.07c0.74,0.1,1.09-0.16,1.2-0.91c0.29-1.96,0.58-3.92,0.88-5.88
		c0.02-0.14,0.06-0.29,0.09-0.42c1.72,0.01,7.71,1.63,9.44,2.57c-0.3,0.7-0.6,1.4-0.92,2.13c-0.52-0.21-0.99-0.45-1.49-0.61
		c-1.29-0.4-2.58-0.79-3.88-1.15c-0.64-0.18-1.02,0.05-1.18,0.69c-0.28,1.11-0.54,2.22-0.79,3.33c-0.11,0.48,0.12,0.85,0.61,1
		c0.54,0.17,1.08,0.36,1.64,0.48c1.54,0.33,2.95,0.99,4.35,1.67c0.98,0.48,1.95,0.98,2.92,1.48c0.48,0.24,0.84,0.14,1.14-0.35
		c1.08-1.75,2.14-3.5,3.22-5.25c0.08-0.14,0.18-0.27,0.3-0.47c0.39,0.27,0.75,0.52,1.11,0.78c1.37,1.01,2.76,2.01,4.11,3.05
		c0.7,0.54,1.33,1.16,1.97,1.77c0.49,0.46,0.47,0.47-0.01,0.93c-0.4,0.39-0.77,0.8-1.12,1.16c-1.06-0.93-2.05-1.83-3.07-2.7
		c-0.42-0.36-0.87-0.69-1.32-1.01c-0.52-0.37-0.89-0.3-1.26,0.21c-0.65,0.9-1.3,1.79-1.94,2.69c-0.4,0.57-0.32,0.88,0.21,1.32
		c1.02,0.85,2.07,1.69,3.02,2.62c1.13,1.13,2.17,2.35,3.25,3.53c0.06,0.07,0.11,0.14,0.17,0.21c0.74,0.81,0.85,0.86,1.75,0.23
		c1.39-0.97,2.73-1.99,4.1-2.98c0.31-0.23,0.65-0.43,1.03-0.67c1.92,2.68,3.52,5.48,4.73,8.49c-0.71,0.29-1.39,0.58-2.14,0.89
		c-0.17-0.44-0.31-0.87-0.51-1.27c-0.46-0.93-0.95-1.84-1.43-2.75c-0.19-0.36-0.36-0.72-0.58-1.06c-0.37-0.59-0.8-0.65-1.39-0.28
		c-0.91,0.58-1.83,1.14-2.75,1.71c-0.53,0.33-0.64,0.78-0.33,1.34c0.45,0.8,0.95,1.57,1.33,2.4c0.65,1.45,1.24,2.92,1.82,4.4
		c0.23,0.58,0.33,1.21,0.49,1.82c0.17,0.63,0.56,0.82,1.2,0.67c2.11-0.52,4.22-1.02,6.32-1.52
		C131.37,122.72,132.26,129.7,132.04,131.52z"/>
	<path class="st1" d="M89.75,99.44c-16.95,0.19-32.43,14.33-31.54,33.81c0.75,16.22,14.12,30.36,32.14,30.43
		c17.57-0.04,32.42-14.35,32.04-32.9C122.05,113.89,108.21,99.23,89.75,99.44z M90.16,162.08c-16.89-0.07-30.34-13.64-30.43-30.56
		c0.17-17.11,13.57-29.73,28.91-30.45c18.58-0.88,32.16,13.96,32.18,30.33C120.84,148.53,107.12,162.15,90.16,162.08z"/>
</g>
</svg>
