<?xml version="1.0" encoding="utf-8"?>
<!-- Generator: Adobe Illustrator 23.0.1, SVG Export Plug-In . SVG Version: 6.00 Build 0)  -->
<svg version="1.1" id="Layer_1" xmlns="http://www.w3.org/2000/svg" xmlns:xlink="http://www.w3.org/1999/xlink" x="0px" y="0px"
	 viewBox="0 0 180 203.59" style="enable-background:new 0 0 180 203.59;" xml:space="preserve">
<style type="text/css">
	.st0{fill:#F79432;}
	.st1{fill:#AE5E1F;}
	.st2{fill:#B73125;}
	.st3{fill:#54B248;}
	.st4{fill:#EBEBEC;}
	.st5{fill:none;}
	.st6{fill:#2B2E46;}
	.st7{fill:#9BCC53;}
	.st8{fill:#DEA362;}
	.st9{fill:#EDEDEE;}
	.st10{fill:#C4BB9F;}
	.st11{fill:#CDCFD0;}
	.st12{fill:#F79432;stroke:#AE5E1F;stroke-miterlimit:10;}
</style>
<g>
	<path class="st2" d="M40.01,11.13c4.23,4.49,6.77,9.48,5.15,15.68C43.01,35,34.37,39.65,26.22,37.09
		c-7.87-2.47-12.06-11.43-8.86-19.62c3.5-8.97,9.9-15.21,19.48-16.92c9.94-1.77,18.52,1.45,25.08,9.37
		c2.72,3.28,4.52,7.05,6.02,11.02c0.59,1.56,0.16,4.2,3.07,4.1c2.61-0.09,5.18,0.37,7.05-2.55C81.68,16.86,85.71,11.5,90,5.41
		c3.93,5.66,7.73,10.85,11.21,16.25c1.81,2.81,4.07,3.45,7.22,3.42c3.57-0.03,3.14-2.83,3.85-4.72
		c5.94-15.9,20.09-23.81,34.26-18.93c8.13,2.81,13.44,8.65,16.35,16.57c2.55,6.94-0.26,14.31-6.41,17.89
		c-5.91,3.45-13.66,2.17-18.33-3.03c-4.72-5.26-5.03-12.42-0.76-18.5c0.75-1.07,1.62-2.05,2.55-3.21
		c-10.12-0.45-17.82,7.46-18.3,18.56c-0.41,9.55,3.01,18.03,7.75,26.02c7.48,12.59,17.64,23.16,26.47,34.73
		c8.95,11.73,18.2,23.24,22.31,37.82c4.89,17.35-0.11,31.22-15.05,41.46c-7.98,5.47-16.86,8.88-26.15,11.37
		c-5.51,1.48-6.27,3.27-3.26,8.01c2.95,4.63,5.97,9.21,9.38,14.46c-35.66,0-70.44,0-106.31,0c3.28-5.04,6.36-9.71,9.37-14.43
		c3.09-4.85,2.4-6.55-3.08-8.03c-9.08-2.45-17.82-5.72-25.66-11.04C1.22,159.11-3.64,144.28,2.67,125.58
		c4.69-13.91,13.73-25.1,22.57-36.41c7.08-9.07,14.55-17.85,21.32-27.14c7.07-9.71,12.26-20.26,11.77-32.85
		C58,20.91,50.86,9.71,40.01,11.13z M69.38,42.01c-6.17,18.76-18.91,33.58-28.84,49.99c-4.06,6.71-8.37,13.28-12.24,20.09
		c-11.63,20.49-0.71,32.14,16.99,38.79c0.89,0.34,2.1,0.81,2.66-0.09c3.74-6.07,9.8-4.6,15.08-4.19c5.66,0.43,6.48-1.79,6.45-6.76
		C69.28,107.22,69.38,74.61,69.38,42.01z M111.61,41.92c-0.52,1.54-0.73,1.88-0.74,2.21c-0.02,32.77,0,65.54-0.07,98.3
		c-0.01,2.71,0.42,3.99,3.69,4.11c6.2,0.22,13.27-2.42,17.95,4.42c0.25,0.36,1.81,0.07,2.63-0.25
		c19.36-7.35,27.94-19.78,15.96-39.92c-7.03-11.82-14.56-23.36-22.07-34.88C122.2,65.54,115.66,55.08,111.61,41.92z M75.2,146.3
		c0.43-0.01,0.87-0.03,1.3-0.04c0-36.06,0-72.13,0-108.19c-0.43,0-0.87,0.01-1.3,0.01C75.2,74.15,75.2,110.22,75.2,146.3z
		 M104.65,37.96c-0.35,0-0.7,0.01-1.05,0.01c0,36.09,0,72.17,0,108.26c0.35,0,0.7-0.01,1.05-0.01
		C104.65,110.14,104.65,74.05,104.65,37.96z M99.24,146.3c0.4,0,0.8,0,1.21,0c0-36.12,0-72.23,0-108.35c-0.4,0-0.8,0-1.21,0
		C99.24,74.06,99.24,110.18,99.24,146.3z M87.42,147.38c2.79-5.72,2.45-106.45,0-109.72C87.42,74.01,87.42,110.17,87.42,147.38z
		 M92.71,37.98c-3.15,4.95-2.66,105.45,0,108.67C92.71,110.19,92.71,74.09,92.71,37.98z M95.44,147.38
		c2.83-5.82,2.46-106.48,0-109.65C95.44,74.03,95.44,110.16,95.44,147.38z M71.4,146.3c0.38,0,0.77,0,1.15,0
		c0-36.09,0-72.17,0-108.26c-0.38,0-0.77,0.01-1.15,0.01C71.4,74.13,71.4,110.22,71.4,146.3z M79.39,146.32c0.38,0,0.77,0,1.15,0
		c0-36.08,0-72.17,0-108.25c-0.38,0-0.77,0-1.15,0C79.39,74.15,79.39,110.23,79.39,146.32z M84.58,38.48
		c-0.42,0.01-0.85,0.02-1.27,0.04c0,35.92,0,71.83,0,107.75c0.42,0,0.85,0,1.27,0C84.58,110.33,84.58,74.41,84.58,38.48z
		 M107.19,146.27c0.39,0.01,0.78,0.02,1.17,0.04c0-36.08,0-72.15,0-108.23c-0.39,0-0.78,0-1.17,0.01
		C107.19,74.15,107.19,110.21,107.19,146.27z M90.49,30.32c-5.92,0-11.85-0.02-17.77,0.01c-1.25,0.01-2.87-0.41-2.98,1.65
		c-0.13,2.26,1.63,1.69,2.82,1.69c11.66,0.03,23.32,0.03,34.98,0.01c1.24,0,2.91,0.41,2.67-1.8c-0.22-2.03-1.85-1.53-3.07-1.54
		C101.57,30.3,96.03,30.32,90.49,30.32z"/>
</g>
</svg>
