<?xml version="1.0" encoding="utf-8"?>
<!-- Generator: Adobe Illustrator 23.0.1, SVG Export Plug-In . SVG Version: 6.00 Build 0)  -->
<svg version="1.1" id="Layer_1" xmlns="http://www.w3.org/2000/svg" xmlns:xlink="http://www.w3.org/1999/xlink" x="0px" y="0px"
	 viewBox="0 0 180 415.77" style="enable-background:new 0 0 180 415.77;" xml:space="preserve">
<style type="text/css">
	.st0{fill:#F79432;}
	.st1{fill:#AE5E1F;}
	.st2{fill:#B73125;}
	.st3{fill:#54B248;}
	.st4{fill:#EBEBEC;}
	.st5{fill:none;}
	.st6{fill:#2B2E46;}
	.st7{fill:#9BCC53;}
	.st8{fill:#DEA362;}
	.st9{fill:#EDEDEE;}
	.st10{fill:#C4BB9F;}
	.st11{fill:#CDCFD0;}
	.st12{fill:#F79432;stroke:#AE5E1F;stroke-miterlimit:10;}
</style>
<g>
	<path d="M93.47,317.52h0.61c11.3,0,19.93,10.08,18.18,21.25l-8.06,51.48H82.56l-7.31-51.75C73.69,327.42,82.29,317.52,93.47,317.52
		z"/>
	<path class="st2" d="M16.3,266.7c0,0-26.05-85.33-12.29-117.27s63.9-89.95,63.9-89.95V0l44.18,0v59.48c0,0,50.14,58,63.9,89.95
		S163.7,266.7,163.7,266.7h-12.23v-72.55H28.1l0.49,72.55H16.3z"/>
	<polygon class="st0" points="36.95,159.75 145.08,159.75 104.29,69.31 104.29,13.27 75.78,13.27 75.78,68.81 	"/>
	<path d="M64.11,233.29l-24.6-5.48c-0.21-0.05-0.42-0.04-0.62,0.02l-11.83,3.59c-1,0.3-1.9-0.7-1.48-1.66l2.81-6.45
		c0.13-0.29,0.36-0.52,0.65-0.64l12.2-5.1c0.27-0.11,0.57-0.13,0.84-0.04l21.79,6.89c0.45,0.14,0.78,0.53,0.85,1.01l0.88,6.51
		C65.71,232.77,64.95,233.47,64.11,233.29z"/>
	<path d="M116.72,233.29l24.6-5.48c0.21-0.05,0.42-0.04,0.62,0.02l11.83,3.59c1,0.3,1.9-0.7,1.48-1.66l-2.81-6.45
		c-0.13-0.29-0.36-0.52-0.65-0.64l-12.2-5.1c-0.27-0.11-0.57-0.13-0.84-0.04l-21.79,6.89c-0.45,0.14-0.78,0.53-0.85,1.01l-0.88,6.51
		C115.12,232.77,115.88,233.47,116.72,233.29z"/>
</g>
</svg>
