<?xml version="1.0" encoding="utf-8"?>
<!-- Generator: Adobe Illustrator 23.0.1, SVG Export Plug-In . SVG Version: 6.00 Build 0)  -->
<svg version="1.1" id="Layer_1" xmlns="http://www.w3.org/2000/svg" xmlns:xlink="http://www.w3.org/1999/xlink" x="0px" y="0px"
	 viewBox="0 0 180 304.27" style="enable-background:new 0 0 180 304.27;" xml:space="preserve">
<style type="text/css">
	.st0{fill:#F79432;}
	.st1{fill:#AE5E1F;}
	.st2{fill:#B73125;}
	.st3{fill:#54B248;}
	.st4{fill:#EBEBEC;}
	.st5{fill:none;}
	.st6{fill:#2B2E46;}
	.st7{fill:#9BCC53;}
	.st8{fill:#DEA362;}
	.st9{fill:#EDEDEE;}
	.st10{fill:#C4BB9F;}
	.st11{fill:#CDCFD0;}
	.st12{fill:#F79432;stroke:#AE5E1F;stroke-miterlimit:10;}
</style>
<g>
	<path class="st0" d="M180,147.6v-41.43c0,0-58.26,9.06-58.26,9.06c4.3-0.67,11.36-28,13.14-32.75c4.55-12.1,6.92-25.21,5.18-38.12
		c-2.12-15.76-10.92-31.05-24.89-38.67c-14.83-8.08-33.54-6.75-49.11-1.09c-7.91,2.88-15.22,7.38-20.64,13.83
		C21.76,46.61,38.98,92.1,57,118.47L0.03,104.41L0,147.38l59.13-8.49c6.82-0.98,13.49,2.57,16.48,8.78l0,0
		c1.37,2.83,1.85,6.01,1.4,9.12L55.7,304.27h70.57l-18.69-151.31c-0.23-1.82-0.04-3.68,0.55-5.42v0c1.89-5.6,7.49-9.05,13.34-8.23
		L180,147.6z M103.1,105.02c-0.37,0.76-0.77,1.56-1.47,2.03c-1.3,0.88-3.04,0.35-4.56-0.05c-3.42-0.89-7.07-0.89-10.49-0.01
		c-1.83,0.47-3.87,1.16-5.54,0.45c-0.18-0.08-0.36-0.17-0.53-0.29c-0.74-0.49-1.25-1.25-1.72-2c-7.34-11.54-13.41-23.86-18.86-36.4
		c-2.22-5.11-4.37-10.38-4.74-15.94c-0.46-6.98,2.02-14.04,6.44-19.47c9.61-11.8,25.84-14.65,39.84-9.5
		c6.97,2.57,13.19,7.67,16.08,14.51c2.35,5.56,2.4,11.82,1.77,17.83C117.53,73.35,110.64,89.52,103.1,105.02z"/>
	<circle class="st2" cx="90.98" cy="126.56" r="10.47"/>
</g>
</svg>
