<?xml version="1.0" encoding="utf-8"?>
<!-- Generator: Adobe Illustrator 23.0.1, SVG Export Plug-In . SVG Version: 6.00 Build 0)  -->
<svg version="1.1" id="Layer_1" xmlns="http://www.w3.org/2000/svg" xmlns:xlink="http://www.w3.org/1999/xlink" x="0px" y="0px"
	 viewBox="0 0 180 244.95" style="enable-background:new 0 0 180 244.95;" xml:space="preserve">
<style type="text/css">
	.st0{fill:none;stroke:#231F20;stroke-miterlimit:10;}
	.st1{fill:#231F20;stroke:#FFFFFF;stroke-width:0.75;stroke-miterlimit:10;}
	.st2{fill:#FFFFFF;}
	.st3{fill:#020202;}
	.st4{fill:none;stroke:#020202;stroke-miterlimit:10;}
	.st5{fill:#020202;stroke:#FFFFFF;stroke-miterlimit:10;}
	.st6{fill:none;}
	.st7{fill:none;stroke:#020202;stroke-width:2;stroke-linecap:round;stroke-miterlimit:10;}
	.st8{fill:none;stroke:#000000;stroke-miterlimit:10;}
</style>
<g>
	<path d="M105.37,55.71l13.34,37.33h22.16l14.77-37.55l-27.07-28.3L105.37,55.71z M118.71,64.89c-3.56,0-6.45-2.89-6.45-6.47
		c0-3.56,2.89-6.45,6.45-6.45c3.56,0,6.47,2.89,6.47,6.45C125.18,62,122.28,64.89,118.71,64.89z M140.94,51.96
		c3.58,0,6.47,2.89,6.47,6.45c0,3.58-2.89,6.47-6.47,6.47c-3.56,0-6.45-2.89-6.45-6.47C134.49,54.85,137.38,51.96,140.94,51.96z"/>
	<path d="M101.23,47.13c1.07,1.07,2.81,1.07,3.88,0l3.08-3.08c1.07-1.07,1.07-2.81,0-3.88L92.05,24.03c-1.07-1.07-2.81-1.07-3.88,0
		l-3.08,3.08c-1.07,1.07-1.07,2.81,0,3.88L101.23,47.13z"/>
	<path d="M141.1,96.99h-22.82c-1.51,0-2.74,1.23-2.74,2.74v4.36c0,1.51,1.23,2.74,2.74,2.74h22.82c1.51,0,2.74-1.23,2.74-2.74v-4.36
		C143.84,98.22,142.61,96.99,141.1,96.99z"/>
	<path d="M179.2,27.11l-3.08-3.08c-1.07-1.07-2.81-1.07-3.88,0L156.1,40.16c-1.07,1.07-1.07,2.81,0,3.88l3.08,3.08
		c1.07,1.07,2.81,1.07,3.88,0l16.14-16.14C180.27,29.92,180.27,28.18,179.2,27.11z"/>
	<path d="M116.02,30.15h2.25c0.78,0,1.41-0.63,1.41-1.41V1.41c0-0.78-0.63-1.41-1.41-1.41h-2.25c-0.78,0-1.41,0.63-1.41,1.41v27.33
		C114.6,29.52,115.23,30.15,116.02,30.15z"/>
	<path d="M139.82,30.15h2.25c0.78,0,1.41-0.63,1.41-1.41V1.41c0-0.78-0.63-1.41-1.41-1.41h-2.25c-0.78,0-1.41,0.63-1.41,1.41v27.33
		C138.41,29.52,139.04,30.15,139.82,30.15z"/>
	<path d="M51.38,158.27C23.01,158.27,0,181.28,0,209.66c0,9.71,2.7,18.79,7.38,26.54c1.97-20.76,19.45-37,40.72-37
		c22.6,0,40.92,18.32,40.92,40.92c0,1.64-0.12,3.25-0.31,4.83c8.71-9.21,14.05-21.62,14.05-35.29l8.05-116.62l-10.06-32.5
		L51.38,158.27z"/>
</g>
</svg>
