<?xml version="1.0" encoding="utf-8"?>
<!-- Generator: Adobe Illustrator 23.0.1, SVG Export Plug-In . SVG Version: 6.00 Build 0)  -->
<svg version="1.1" id="Layer_1" xmlns="http://www.w3.org/2000/svg" xmlns:xlink="http://www.w3.org/1999/xlink" x="0px" y="0px"
	 viewBox="0 0 180 96.26" style="enable-background:new 0 0 180 96.26;" xml:space="preserve">
<style type="text/css">
	.st0{fill:none;stroke:#231F20;stroke-miterlimit:10;}
	.st1{fill:#231F20;stroke:#FFFFFF;stroke-width:0.75;stroke-miterlimit:10;}
	.st2{fill:#FFFFFF;}
	.st3{fill:#020202;}
	.st4{fill:none;stroke:#020202;stroke-miterlimit:10;}
	.st5{fill:#020202;stroke:#FFFFFF;stroke-miterlimit:10;}
	.st6{fill:none;}
	.st7{fill:none;stroke:#020202;stroke-width:2;stroke-linecap:round;stroke-miterlimit:10;}
	.st8{fill:none;stroke:#000000;stroke-miterlimit:10;}
</style>
<path class="st3" d="M127.77,20.72l-6.52,0.04c4.41,2.45,7.39,7.14,7.39,12.54c0,7.92-6.42,14.34-14.34,14.34
	S99.96,41.22,99.96,33.3c0-5.6,3.21-10.43,7.89-12.8C110.67,2.96,105.32,0,105.32,0c-4.32,1.51-6.26,11.55-6.26,11.55
	c-7.55-3.35-14.72,0-14.72,0C82.13,2.12,74.89,0,74.89,0c-2.14,11.98-0.04,18.19,1.63,21.04l-0.05,0c4.15,2.51,6.93,7.06,6.93,12.26
	c0,7.92-6.42,14.34-14.34,14.34S54.72,41.22,54.72,33.3c0-5.14,2.71-9.64,6.78-12.17l-3.23,0.02C6.04,15.54,0,66.04,0,66.04
	c68.63-30.22,91.08,30.22,91.08,30.22C120.86,34.53,180,64.32,180,64.32C174.82,18.56,127.77,20.72,127.77,20.72z"/>
</svg>
