<?xml version="1.0" encoding="utf-8"?>
<!-- Generator: Adobe Illustrator 23.0.1, SVG Export Plug-In . SVG Version: 6.00 Build 0)  -->
<svg version="1.1" id="Layer_1" xmlns="http://www.w3.org/2000/svg" xmlns:xlink="http://www.w3.org/1999/xlink" x="0px" y="0px"
	 viewBox="0 0 180 127.02" style="enable-background:new 0 0 180 127.02;" xml:space="preserve">
<style type="text/css">
	.st0{fill:none;stroke:#231F20;stroke-miterlimit:10;}
	.st1{fill:#231F20;stroke:#FFFFFF;stroke-width:0.75;stroke-miterlimit:10;}
	.st2{fill:#FFFFFF;}
	.st3{fill:#020202;}
	.st4{fill:none;stroke:#020202;stroke-miterlimit:10;}
	.st5{fill:#020202;stroke:#FFFFFF;stroke-miterlimit:10;}
	.st6{fill:none;}
	.st7{fill:none;stroke:#020202;stroke-width:2;stroke-linecap:round;stroke-miterlimit:10;}
	.st8{fill:none;stroke:#000000;stroke-miterlimit:10;}
</style>
<g>
	
		<ellipse transform="matrix(0.7071 -0.7071 0.7071 0.7071 -28.3958 129.7558)" class="st3" cx="142.43" cy="99.15" rx="7.79" ry="7.79"/>
	<path class="st3" d="M142.7,49.62L142.7,49.62l-0.36-0.01c-0.36-0.01-0.71-0.03-1.07-0.03c-0.43,0-0.86,0.02-1.29,0.03l-21.73,0.05
		V1.68c0-0.93-0.75-1.68-1.68-1.68c-0.93,0-1.68,0.75-1.68,1.68v47.99l-44.6,0.11v0c-1.31-0.13-2.63-0.2-3.97-0.2
		c-6.46,0-12.54,1.59-17.89,4.39l0,0c0,0-15.59-4.24-17.88-15.56V25.79c1.76,0.98,3.77,1.54,5.92,1.54c6.74,0,12.2-5.46,12.2-12.2
		c0-6.74-5.46-12.2-12.2-12.2c-6.31,0-11.5,4.79-12.14,10.94C23.64,7.2,17.7,2.34,11.01,2.99C4.31,3.64-0.6,9.61,0.06,16.32
		c0.66,6.71,6.62,11.61,13.33,10.96c1.5-0.15,2.91-0.57,4.19-1.2v27.53c0,13.48,2.16,26.92,6.79,39.59
		c2.65,7.24,6.01,13.98,9.99,16.96c0,0,0,0,0.01,0c6.62,9.66,17.5,16.17,29.94,16.81l0,0h0.01c0.67,0.03,1.34,0.05,2.01,0.05
		c0.65,0,1.3-0.02,1.95-0.05l73.01,0.05c21.38,0,38.72-17.34,38.72-38.72C180,67.39,163.43,50.37,142.7,49.62z M116.58,66.38
		c-4.64,0-8.4-3.76-8.4-8.4c0-4.06,2.89-7.41,6.72-8.19v3.81c-1.76,0.68-3.02,2.37-3.02,4.37c0,2.59,2.1,4.7,4.7,4.7
		c2.59,0,4.7-2.1,4.7-4.7c0-2-1.26-3.7-3.02-4.37v-3.81c3.83,0.78,6.72,4.13,6.72,8.19C124.98,62.62,121.22,66.38,116.58,66.38z
		 M149.04,110.15h-14.37c-5.94,0-10.75-4.81-10.75-10.75c0-5.94,4.81-10.75,10.75-10.75h14.37c5.94,0,10.75,4.81,10.75,10.75
		C159.79,105.34,154.97,110.15,149.04,110.15z"/>
</g>
</svg>
