<?xml version="1.0" encoding="utf-8"?>
<!-- Generator: Adobe Illustrator 23.0.1, SVG Export Plug-In . SVG Version: 6.00 Build 0)  -->
<svg version="1.1" id="Layer_1" xmlns="http://www.w3.org/2000/svg" xmlns:xlink="http://www.w3.org/1999/xlink" x="0px" y="0px"
	 viewBox="0 0 180 284.31" style="enable-background:new 0 0 180 284.31;" xml:space="preserve">
<style type="text/css">
	.st0{fill:none;stroke:#231F20;stroke-miterlimit:10;}
	.st1{fill:#231F20;stroke:#FFFFFF;stroke-width:0.75;stroke-miterlimit:10;}
	.st2{fill:#FFFFFF;}
	.st3{fill:#020202;}
	.st4{fill:none;stroke:#020202;stroke-miterlimit:10;}
	.st5{fill:#020202;stroke:#FFFFFF;stroke-miterlimit:10;}
	.st6{fill:none;}
	.st7{fill:none;stroke:#020202;stroke-width:2;stroke-linecap:round;stroke-miterlimit:10;}
	.st8{fill:none;stroke:#000000;stroke-miterlimit:10;}
</style>
<g>
	<path class="st3" d="M127.25,152.97v-0.11c14.97-11.05,27.51-26.82,35.61-40.71c8.31-14.27,13.03-31.18,10.16-47.43
		c-1.96-11.11-7.38-21.34-14.42-30.23c0.02-0.08,0.04-0.15,0.04-0.23V6.47c0-3.58-2.91-6.47-6.47-6.47c-3.58,0-6.47,2.89-6.47,6.47
		v14.61c-9.76-8.41-21.19-14.93-33.63-18.24c-16.13-4.3-33.58-3.08-49.18,2.87c-10.33,3.94-19.82,9.95-28.04,17.39V6.47
		c0-3.58-2.91-6.47-6.47-6.47c-1.79,0-3.42,0.72-4.57,1.9c-1.18,1.16-1.9,2.78-1.9,4.57v27.79c0,0.89,0.19,1.73,0.51,2.51
		C14.91,46.87,9.34,58.65,8.18,71.17c-0.4,4.24-0.27,8.5,0.27,12.71c1.16,8.9,4.24,17.58,8.48,25.49
		c4.49,8.37,10.25,15.98,16.57,23.09c-0.02,0.02-0.06,0.04-0.08,0.08c0.65,0.67,1.31,1.37,1.96,2.02c1.92,2.09,3.86,4.15,5.82,6.16
		c4.11,4.2,8.5,8.33,13.13,12.04l0.02,0.21c4.32,60.11-28.17,86.9-29.56,88.02l-0.02,0.02c4.39,5.54,9.15,10.77,14.08,15.81
		c12.9,13.18,28.31,25.8,46.68,27.32c27.05,2.23,52.35-18.47,69.4-40.5l-0.78-0.74C152.87,241.71,122.93,212.97,127.25,152.97z
		 M52.26,98.05c-14.61,0-26.44-11.83-26.44-26.42c0-14.59,11.83-26.44,26.44-26.44c14.59,0,26.42,11.85,26.42,26.44
		C78.68,86.23,66.85,98.05,52.26,98.05z M95.46,107.67c0,3.56-2.89,6.47-6.47,6.47c-3.56,0-6.45-2.91-6.45-6.47V88.44
		c0-3.58,2.89-6.47,6.45-6.47c1.79,0,3.42,0.72,4.57,1.9c1.18,1.16,1.9,2.78,1.9,4.57V107.67z M99.32,71.64
		c0-14.59,11.83-26.44,26.42-26.44c14.59,0,26.44,11.85,26.44,26.44c0,14.59-11.85,26.42-26.44,26.42
		C111.15,98.05,99.32,86.23,99.32,71.64z"/>
	<circle class="st3" cx="125.73" cy="71.64" r="17.41"/>
	<path class="st3" d="M52.26,54.22c-9.61,0-17.41,7.8-17.41,17.41s7.8,17.41,17.41,17.41c9.61,0,17.39-7.8,17.39-17.41
		S61.88,54.22,52.26,54.22z"/>
	<path class="st3" d="M50.22,154.14c-2.4-2-10.48-8.9-19.9-18.78c-6.32-6.62-13.28-14.59-19.54-23.32
		c-4.64,10.82-17.81,47.06-5.95,87.01c0,0.02,0,0.04,0.02,0.06c3.1,10.44,7.91,21.12,15.01,31.67c1.22,1.83,2.51,3.65,3.88,5.46
		C30.15,230.02,53.46,203.79,50.22,154.14z"/>
	<path class="st3" d="M170.72,112.17c-6.03,8.41-12.71,16.13-18.87,22.6c-0.51-0.51-1.01-0.97-1.54-1.41l0.76,2.21
		c-9.34,9.78-17.31,16.59-19.69,18.57c-3.27,49.5,17.92,77.12,24.03,83.97c8.92-11.87,14.88-24.03,18.7-35.97v-0.02
		c1.56-4.87,2.76-9.7,3.65-14.44C184.39,152.69,174.56,122.2,170.72,112.17z"/>
</g>
</svg>
