<?xml version="1.0" encoding="utf-8"?>
<!-- Generator: Adobe Illustrator 23.0.1, SVG Export Plug-In . SVG Version: 6.00 Build 0)  -->
<svg version="1.1" id="Layer_1" xmlns="http://www.w3.org/2000/svg" xmlns:xlink="http://www.w3.org/1999/xlink" x="0px" y="0px"
	 viewBox="0 0 180 271.88" style="enable-background:new 0 0 180 271.88;" xml:space="preserve">
<style type="text/css">
	.st0{fill:none;stroke:#231F20;stroke-miterlimit:10;}
	.st1{fill:#231F20;stroke:#FFFFFF;stroke-width:0.75;stroke-miterlimit:10;}
	.st2{fill:#FFFFFF;}
	.st3{fill:#020202;}
	.st4{fill:none;stroke:#020202;stroke-miterlimit:10;}
	.st5{fill:#020202;stroke:#FFFFFF;stroke-miterlimit:10;}
	.st6{fill:none;}
	.st7{fill:none;stroke:#020202;stroke-width:2;stroke-linecap:round;stroke-miterlimit:10;}
	.st8{fill:none;stroke:#000000;stroke-miterlimit:10;}
</style>
<g>
	<path class="st3" d="M24.74,15.6h12.68v74.45c0,2.26,1.84,4.1,4.1,4.1h4.46c2.26,0,4.1-1.84,4.1-4.1v-79.5V5.05V4.9
		c0-0.58-0.12-1.12-0.34-1.62C49.03,1.37,47.2,0,45.04,0H24.74c-2.79,0-5.05,2.26-5.05,5.05v5.49C19.69,13.34,21.95,15.6,24.74,15.6
		z"/>
	<path class="st3" d="M112.78,73.95c-23.71,0-43.02,19.29-43.02,42.99c0,3.04,0.31,6.02,0.91,8.89l-28.8,46.24
		c-18.93,2.6-34.55,15.51-41.02,32.88c-3.13,8.42,2.56,17.42,11.29,18.55c0-0.22-0.02-0.47-0.02-0.69
		c0-20.33,16.46-36.79,36.79-36.79c20.31,0,36.79,16.46,36.79,36.79c0,20.33-16.49,36.79-36.79,36.79c-0.42,0-0.82-0.04-1.24-0.07
		c1.02,8.89,10.09,14.55,18.57,11.51c20.49-7.38,34.93-27.42,33.86-50.66c-0.22-4.8-1.16-9.44-2.64-13.84l18.11-24.48
		c-0.51,0.02-1,0.04-1.51,0.04c-13.71,0-24.88-11.15-24.88-24.88c0-1.4,0.11-2.8,0.36-4.13c1.02-6.11,4.29-11.49,8.93-15.22
		c4.27-3.47,9.69-5.53,15.6-5.53c11.78,0,21.64,8.2,24.22,19.17c10.6-7.82,17.49-20.42,17.49-34.57
		C155.78,93.23,136.49,73.95,112.78,73.95z M98.05,127.58c-5.87,0-10.64-4.78-10.64-10.64c0-5.87,4.78-10.64,10.64-10.64
		c5.87,0,10.64,4.78,10.64,10.64C108.7,122.8,103.92,127.58,98.05,127.58z M127.83,127.58c-5.87,0-10.64-4.78-10.64-10.64
		c0-5.87,4.78-10.64,10.64-10.64c5.87,0,10.64,4.78,10.64,10.64C138.47,122.8,133.69,127.58,127.83,127.58z"/>
	<path class="st3" d="M180,111.25c0-11.42-9.26-20.68-20.68-20.68v41.37C170.74,131.94,180,122.68,180,111.25z"/>
	<path class="st3" d="M65.38,129.91V88.54c-11.42,0-20.68,9.26-20.68,20.68C44.69,120.65,53.96,129.91,65.38,129.91z"/>
	<path class="st3" d="M171.57,230.49h-12.26v-73.64c0-2.26-1.84-4.1-4.1-4.1h-4.46c-2.26,0-4.1,1.84-4.1,4.1v76.67
		c-0.27,0.62-0.43,1.3-0.43,2.02v5.49c0,1.11,0.37,2.13,0.97,2.96c0.7,1.24,2.02,2.09,3.55,2.09h0.52h3.94h16.36
		c2.79,0,5.05-2.26,5.05-5.05v-5.49C176.62,232.75,174.36,230.49,171.57,230.49z"/>
	<path class="st3" d="M124.25,162.15c-3.78,1-7.4,1.4-10.8,1.4c-10.33,0-18.6-3.67-22.02-5.47c0.47,12.11,10.44,21.8,22.64,21.8
		c1.13,0,2.22-0.09,3.31-0.24c10.95-1.6,19.35-11.04,19.35-22.42c0-0.2,0-0.4-0.02-0.58C132.49,159.33,128.27,161.09,124.25,162.15z
		"/>
	<path class="st3" d="M122.32,160.33c4.18-0.93,8.53-2.62,12.91-5.38l1.4-0.04c-0.02-0.27-0.07-0.53-0.11-0.8
		c-0.04-0.42-0.11-0.82-0.2-1.22c-2.02-10.42-11.22-18.33-22.24-18.33c-5.27,0-10.13,1.82-13.98,4.84
		c-4.58,3.6-7.73,8.89-8.49,14.93c-0.07,0.4-0.11,0.82-0.13,1.24c-0.02,0.18-0.02,0.38-0.04,0.58l1-0.04
		C96.52,158.26,108.39,163.49,122.32,160.33z"/>
</g>
</svg>
