<?xml version="1.0" encoding="utf-8"?>
<!-- Generator: Adobe Illustrator 23.0.1, SVG Export Plug-In . SVG Version: 6.00 Build 0)  -->
<svg version="1.1" id="Layer_1" xmlns="http://www.w3.org/2000/svg" xmlns:xlink="http://www.w3.org/1999/xlink" x="0px" y="0px"
	 viewBox="0 0 180 140.37" style="enable-background:new 0 0 180 140.37;" xml:space="preserve">
<style type="text/css">
	.st0{fill:none;stroke:#231F20;stroke-miterlimit:10;}
	.st1{fill:#231F20;stroke:#FFFFFF;stroke-width:0.75;stroke-miterlimit:10;}
	.st2{fill:#FFFFFF;}
	.st3{fill:#020202;}
	.st4{fill:none;stroke:#020202;stroke-miterlimit:10;}
	.st5{fill:#020202;stroke:#FFFFFF;stroke-miterlimit:10;}
	.st6{fill:none;}
	.st7{fill:none;stroke:#020202;stroke-width:2;stroke-linecap:round;stroke-miterlimit:10;}
	.st8{fill:none;stroke:#000000;stroke-miterlimit:10;}
</style>
<g>
	<path d="M175.45,62.46c-1.2,0-1.82,2.09-1.87,4.27h-5.03c-1.98-25.12-22.74-44.96-48.25-45.45L103.64,4.35l0,0.01
		C101,1.67,97.34,0,93.28,0c-8.02,0-14.52,6.5-14.52,14.52c0,3.72,1.41,7.1,3.71,9.67c-19,6.88-32.58,25.08-32.58,46.46
		c0,21.15,13.29,39.19,31.98,46.23c-1.94,2.47-3.11,5.58-3.11,8.96c0,8.02,6.5,14.52,14.52,14.52c4.58,0,8.66-2.13,11.32-5.44
		l0,0.01l15.07-14.89c27.12-0.19,49.05-22.23,49.05-49.39c0-0.8-0.02-1.59-0.06-2.38h4.99c0.19,1.78,0.79,3.28,1.81,3.28
		c2.51,0,4.55-2.03,4.55-4.55C180,64.49,177.96,62.46,175.45,62.46z M126.55,89.4c-10.35,0-18.75-8.39-18.75-18.75
		s8.39-18.75,18.75-18.75c10.35,0,18.75,8.39,18.75,18.75S136.9,89.4,126.55,89.4z"/>
	<ellipse transform="matrix(0.9732 -0.2298 0.2298 0.9732 -12.8475 30.9647)" cx="126.55" cy="70.65" rx="10.01" ry="10.01"/>
	<path d="M29.04,52.48c0-8.02-6.5-14.52-14.52-14.52S0,44.46,0,52.48S6.5,67,14.52,67C6.5,67,0,73.51,0,81.53s6.5,14.52,14.52,14.52
		s14.52-6.5,14.52-14.52c8.02,0,14.52-6.5,14.52-14.52S37.06,52.48,29.04,52.48z"/>
</g>
</svg>
