<?xml version="1.0" encoding="utf-8"?>
<!-- Generator: Adobe Illustrator 23.0.1, SVG Export Plug-In . SVG Version: 6.00 Build 0)  -->
<svg version="1.1" id="Layer_1" xmlns="http://www.w3.org/2000/svg" xmlns:xlink="http://www.w3.org/1999/xlink" x="0px" y="0px"
	 viewBox="0 0 180 332" style="enable-background:new 0 0 180 332;" xml:space="preserve">
<style type="text/css">
	.st0{fill:none;stroke:#231F20;stroke-miterlimit:10;}
	.st1{fill:#231F20;stroke:#FFFFFF;stroke-width:0.75;stroke-miterlimit:10;}
	.st2{fill:#FFFFFF;}
	.st3{fill:#020202;}
	.st4{fill:none;stroke:#020202;stroke-miterlimit:10;}
	.st5{fill:#020202;stroke:#FFFFFF;stroke-miterlimit:10;}
	.st6{fill:none;}
	.st7{fill:none;stroke:#020202;stroke-width:2;stroke-linecap:round;stroke-miterlimit:10;}
	.st8{fill:none;stroke:#000000;stroke-miterlimit:10;}
</style>
<path d="M172.36,149.51c-8.7-14.17-22.31-23-36.42-23.63c-11.8-0.54-22.95,4.64-32.82,10.62c-9.35,5.66-20.64,11.23-31.3,13.78
	c-9.73,2.33-21.43,0.64-27.26-7.49c-5.88-8.2-3.14-20.81,4.9-26.9c7-5.3,16.38-5.96,24.5-9.32c20.13-8.32,25.33-29.09,24.1-49
	l5.26-7.2l-8.58-35.99h-3.48V1.27C91.27,0.57,90.7,0,90,0s-1.27,0.57-1.27,1.27v13.11h-3.51l-8.76,36.18l6.36,7.99
	c0.76,12.61-0.87,21-5.28,26.94c-4.36,5.87-11.68,9.47-19.44,13.27c-2.96,1.45-6.02,2.95-8.99,4.62
	c-12.76,7.17-26.02,21.45-21.37,38.09c3.1,11.11,13.77,19.27,28.53,21.83c11.98,2.07,24.27,0.78,35.56-3.74
	c5.85-2.34,11.29-5.48,16.56-8.52c17.06-9.84,38.04-20.9,54.14-2.15c9.36,10.9,9.55,28.59,0.42,39.69
	c-5.75,6.99-14.8,10.85-23.77,10.98c-10.97,0.16-18.49-5.9-27.48-11.16c-6.43-3.76-13.86-6.11-21.48-8.1
	c-18.93-4.94-40.08-2.29-58.03,7.29c-9.44,5.04-22.04,14.18-28.49,29.14c-6.25,14.5-4.46,31.09,4.57,42.27
	c10.4,12.88,30.02,16.24,42.85,7.34c8.9-6.17,12.7-15.93,16.05-24.55c2.51-6.44,4.87-12.51,8.92-16.47
	c5.64-5.51,15.57-6.25,21.68-1.62c6.06,4.6,7.79,14.36,3.63,20.48c-3.68,5.42-10.9,8.24-18.54,11.22
	c-8.1,3.16-17.28,6.74-23.82,14.24c-17.37,19.92-1.26,48.9,4.04,58.42c1.39,2.51,3.99,3.92,6.67,3.92c1.25,0,2.52-0.31,3.7-0.96
	c5.62-3.13,4.67-8.19,1.27-12.28c-4.19-5.05-8.23-10.43-10.53-16.64c-2.66-7.18-2.58-15.85,2.13-21.89
	c3.89-4.99,10.19-7.39,16.29-9.06c12.16-3.34,23.97-7.43,31.41-18.39c8.72-12.84,5.5-31.71-7.03-41.21
	c-12.19-9.24-30.44-7.99-41.55,2.86c-6.05,5.91-6,14.44-8.02,22.06c-2,7.53-7.09,14.51-14.44,17.52
	c-7.35,3.01-16.33,1.61-22.41-3.49s-9.02-13.7-7.34-21.47c2.71-12.44,15.51-22.31,26.15-27.98c14.6-7.79,31.73-9.97,47-5.98
	c6.43,1.68,12.62,4.41,19.18,7.3c5.84,2.57,11.88,5.24,18.29,7.2c18.18,5.56,35.29,2.85,45.75-7.27
	C184.07,188.28,181.95,165.13,172.36,149.51z"/>
</svg>
