<?xml version="1.0" encoding="utf-8"?>
<!-- Generator: Adobe Illustrator 23.0.1, SVG Export Plug-In . SVG Version: 6.00 Build 0)  -->
<svg version="1.1" id="Layer_1" xmlns="http://www.w3.org/2000/svg" xmlns:xlink="http://www.w3.org/1999/xlink" x="0px" y="0px"
	 viewBox="0 0 180 67.74" style="enable-background:new 0 0 180 67.74;" xml:space="preserve">
<style type="text/css">
	.st0{fill:none;stroke:#231F20;stroke-miterlimit:10;}
	.st1{fill:#231F20;stroke:#FFFFFF;stroke-width:0.75;stroke-miterlimit:10;}
	.st2{fill:#FFFFFF;}
	.st3{fill:#020202;}
	.st4{fill:none;stroke:#020202;stroke-miterlimit:10;}
	.st5{fill:#020202;stroke:#FFFFFF;stroke-miterlimit:10;}
	.st6{fill:none;}
	.st7{fill:none;stroke:#020202;stroke-width:2;stroke-linecap:round;stroke-miterlimit:10;}
	.st8{fill:none;stroke:#000000;stroke-miterlimit:10;}
</style>
<path d="M178.03,50.76c-1.21-1.21-2.88-1.96-4.74-1.96h-1.78c0-1.28-0.45-2.47-1.22-3.39c-0.77-0.93-1.85-1.58-3.11-1.82
	l-38.63-7.14c-0.57-5.33-5.07-9.46-10.54-9.46c-4.9,0-9.02,3.33-10.23,7.86c-1.05-2.38-3.44-4.05-6.21-4.05
	c-3.36,0-6.14,2.44-6.69,5.64h-1.52c-0.55-3.2-3.33-5.64-6.69-5.64c-3.36,0-6.14,2.44-6.69,5.64h-1.52
	c-0.55-3.2-3.33-5.64-6.69-5.64c-3.36,0-6.14,2.44-6.69,5.64h-1.52c-0.28-1.71-1.22-3.2-2.54-4.22c-0.26-0.2-0.55-0.39-0.84-0.55
	c-0.98-0.56-2.11-0.87-3.31-0.87c-3.36,0-6.15,2.43-6.68,5.64c-0.07,0.37-0.11,0.76-0.11,1.15c0,1.45,0.45,2.78,1.22,3.88
	c-0.05,0.02-0.11,0.05-0.15,0.06c-1.57,0.63-3.24,1.08-5.02,1.34c-1.21,0.18-2.48,0.27-3.77,0.27c-1.71,0-3.39-0.17-5.01-0.47
	c-9.26-1.78-16.48-8.5-16.48-18.31c0-8.53,5.13-14.69,12.47-17.29c0.35-0.13,0.73-0.23,1.09-0.35h35.01c1.77,0,3.21-1.44,3.21-3.21
	s-1.44-3.21-3.21-3.21H34.43C33.02,0.11,31.58,0,30.12,0C13.48,0,0,13.48,0,30.12c0,16.63,13.48,30.11,30.12,30.11
	c2.81,0,5.54-0.39,8.11-1.11v8.63h19c2.84,0,5.14-2.3,5.14-5.14c0-2.84-2.3-5.14-5.14-5.14H49.4v-4.23
	c1.79-1.48,3.41-3.18,4.79-5.04c0.47,0.13,10.8,3,10.8,14h34.16v5.54h19c2.84,0,5.14-2.3,5.14-5.14c0-0.14-0.03-0.27-0.04-0.4h50.04
	c3.7,0,6.7-3,6.7-6.7C180,53.64,179.25,51.97,178.03,50.76z M118.02,30.81c3.36,0,6.15,2.43,6.68,5.64
	c0.07,0.37,0.11,0.76,0.11,1.15c0,3.75-3.04,6.79-6.79,6.79c-3.75,0-6.79-3.04-6.79-6.79c0-0.39,0.04-0.78,0.11-1.15
	C111.87,33.24,114.66,30.81,118.02,30.81z M144.23,54.3c-1.34,0-2.43-1.09-2.43-2.43c0-1.34,1.09-2.42,2.43-2.42
	s2.43,1.08,2.43,2.42C146.67,53.21,145.57,54.3,144.23,54.3z M150.64,58.23c-1.34,0-2.43-1.08-2.43-2.42c0-1.34,1.09-2.43,2.43-2.43
	s2.42,1.09,2.42,2.43C153.06,57.15,151.98,58.23,150.64,58.23z M155.49,54.3c-1.34,0-2.43-1.09-2.43-2.43
	c0-1.34,1.09-2.42,2.43-2.42s2.42,1.08,2.42,2.42C157.92,53.21,156.84,54.3,155.49,54.3z M161.12,58.23c-1.34,0-2.42-1.08-2.42-2.42
	c0-1.34,1.08-2.43,2.42-2.43c1.34,0,2.43,1.09,2.43,2.43C163.55,57.15,162.46,58.23,161.12,58.23z M166.76,54.3
	c-1.34,0-2.43-1.09-2.43-2.43c0-1.34,1.09-2.42,2.43-2.42c1.34,0,2.42,1.08,2.42,2.42C169.18,53.21,168.1,54.3,166.76,54.3z
	 M171.61,58.23c-1.34,0-2.43-1.08-2.43-2.42c0-1.34,1.09-2.43,2.43-2.43s2.42,1.09,2.42,2.43
	C174.03,57.15,172.95,58.23,171.61,58.23z"/>
</svg>
