<?xml version="1.0" encoding="utf-8"?>
<!-- Generator: Adobe Illustrator 17.0.0, SVG Export Plug-In . SVG Version: 6.00 Build 0)  -->
<!DOCTYPE svg PUBLIC "-//W3C//DTD SVG 1.1//EN" "http://www.w3.org/Graphics/SVG/1.1/DTD/svg11.dtd">
<svg version="1.1" id="Layer_1" xmlns="http://www.w3.org/2000/svg" xmlns:xlink="http://www.w3.org/1999/xlink" x="0px" y="0px"
	 width="180px" height="142.034px" viewBox="0 0 180 142.034" enable-background="new 0 0 180 142.034" xml:space="preserve">
<g>
	<path fill="#70C7AE" d="M90,28.065c-36.458,0-66.012,6.032-66.012,13.473c0,0.398,0.09,0.792,0.255,1.181
		c1.882,0.321,3.85,0.629,5.908,0.921v0.001c0,5.015,26.795,9.08,59.849,9.08s59.849-4.065,59.849-9.08V43.64
		c2.058-0.292,4.026-0.6,5.908-0.921c0.166-0.389,0.255-0.783,0.255-1.181C156.012,34.097,126.458,28.065,90,28.065z"/>
</g>
<g>
	<path fill="#4D4D4F" d="M179.998,32.906c0.006-0.599-0.151-1.192-0.437-1.781l-0.1,0.082c-0.1-0.12-10.939-12.011-88.712-12.011
		c-77.824,0-90.027,12.108-90.14,12.231L0.39,31.225C0.13,31.789-0.009,32.358,0,32.93c0,3.785,9.21,7.226,24.242,9.788
		c-0.166-0.389-0.255-0.783-0.255-1.181c0-7.441,29.555-13.473,66.012-13.473c36.458,0,66.012,6.032,66.012,13.473
		c0,0.398-0.09,0.792-0.255,1.181C170.79,40.156,180,36.715,180,32.93C180,32.922,179.998,32.914,179.998,32.906z"/>
</g>
<g>
	<path fill="#70C7AE" d="M90.749,19.197c77.773,0,88.612,11.891,88.712,12.011l0.1-0.082c-0.221-0.454-0.516-0.904-0.895-1.35
		c-4.386-2.977-22.419-11.185-87.918-11.185c-69.529,0-86.638,9.398-89.924,11.859c-0.173,0.258-0.316,0.517-0.436,0.777
		l0.219,0.202C0.722,31.305,12.925,19.197,90.749,19.197z"/>
</g>
<g>
	<circle fill="#70C7AE" cx="17.224" cy="39.963" r="0.912"/>
</g>
<g>
	<circle fill="#70C7AE" cx="13.684" cy="37.307" r="0.912"/>
</g>
<g>
	<circle fill="#70C7AE" cx="15.506" cy="34.727" r="0.911"/>
</g>
<g>
	<circle fill="#70C7AE" cx="20.993" cy="32.375" r="0.911"/>
</g>
<g>
	<circle fill="#70C7AE" cx="31.919" cy="30.123" r="0.911"/>
</g>
<g>
	<circle fill="#70C7AE" cx="46.69" cy="28.065" r="0.911"/>
</g>
<g>
	<circle fill="#70C7AE" cx="64.546" cy="26.835" r="0.911"/>
</g>
<g>
	<circle fill="#70C7AE" cx="84.375" cy="26.353" r="0.911"/>
</g>
<g>
	<circle fill="#70C7AE" cx="104.457" cy="26.582" r="0.911"/>
</g>
<g>
	<circle fill="#70C7AE" cx="123.173" cy="27.545" r="0.911"/>
</g>
<g>
	<circle fill="#70C7AE" cx="139.866" cy="28.959" r="0.911"/>
</g>
<g>
	<circle fill="#70C7AE" cx="153.068" cy="30.946" r="0.911"/>
</g>
<g>
	<circle fill="#70C7AE" cx="162.123" cy="33.714" r="0.911"/>
</g>
<g>
	<circle fill="#70C7AE" cx="166.068" cy="36.294" r="0.911"/>
</g>
<g>
	<circle fill="#70C7AE" cx="165.105" cy="39.026" r="0.911"/>
</g>
<g>
	<circle fill="#70C7AE" cx="159.847" cy="40.796" r="0.911"/>
</g>
<g>
	<path fill="#4D4D4F" d="M90.225,5.994h0.18c19.797,0.018,27.04,2.759,29.357,4.037C114.306,4.088,102.959,0,89.838,0
		c-13.4,0-24.947,4.264-30.262,10.413c2.303-1.284,10.001-4.4,30.469-4.419H90.225z"/>
</g>
<g>
	<path fill="#636466" d="M120.68,11.116c-0.054-0.07-0.114-0.139-0.169-0.209l-0.189,0.222c-0.057-0.048-5.001-4.505-29.917-4.527
		h-0.18h-0.18c-25.008,0.023-30.844,4.762-30.899,4.81l-0.197-0.231l0,0c-6.325,1.107-51.463,9.316-58.124,19.268
		C4.11,27.988,21.22,18.59,90.749,18.59c65.499,0,83.531,8.208,87.918,11.185C170.302,19.906,125.216,11.9,120.68,11.116z"/>
</g>
<g>
	<path fill="#70C7AE" d="M90.046,6.601h0.18h0.18c24.915,0.023,29.86,4.479,29.917,4.527l0.189-0.222
		c-0.236-0.296-0.485-0.588-0.749-0.876c-2.317-1.278-9.56-4.019-29.357-4.037h-0.18h-0.18c-20.469,0.02-28.166,3.137-30.47,4.42
		c-0.219,0.253-0.431,0.508-0.628,0.767l0.197,0.231C59.202,11.364,65.038,6.624,90.046,6.601z"/>
</g>
<g>
	<ellipse fill="#4D4D4F" cx="90.749" cy="44.988" rx="51.899" ry="7.733"/>
</g>
<g>
	<ellipse fill="#04967F" cx="89.914" cy="49.161" rx="25.191" ry="3.559"/>
</g>
<g>
	<path fill="#70C7AE" d="M111.033,49.161h-0.006c0-1.966-9.514-3.559-21.25-3.559s-21.25,1.594-21.25,3.559l-12.014,92.873h66.974
		L111.033,49.161z"/>
</g>
<g>
	<path fill="#70C7AE" d="M111.033,49.161h-0.006c0-1.966-9.514-3.559-21.25-3.559s-21.25,1.594-21.25,3.559l-12.014,92.873h66.974
		L111.033,49.161z"/>
</g>
<path fill="#04967F" d="M109.52,101.857c1.465-2.684,1.663-5.293-0.713-7.469c-2.769-2.536-6.057-4.537-8.895-7.016
	c-2.513-2.194-11.067-7.414-7.698-11.414c1.525-1.811,0.095-3.24-1.858-2.573c-1.954,0.667-3.508-3.663-3.717-4.86
	c0,0-0.429-3.334-0.953-1.954c-1.193,3.141-2.071,3.41-5.297,3.363c-2.21-0.032-3.665,0.119-2.497,2.759
	c1.028,2.323,2.546,3.638,4.083,5.47c2.026,2.415,0.816,5.332-0.303,7.914c-2.25,5.19-3.262,11.326-8.186,14.807
	c-2.123,1.501-4.593,4.179,0.002,2.666c4.05-1.334,4.908-3.717,6.242-6.338c1.334-2.621,5.575,3.05,3.097,7.386
	s-4.241,9.149-1.191,6.862c3.049-2.287,4.241-5.098,3.717-9.385c-0.081-0.663,3.262,1.751,3.492,2.073
	c0.736,1.029,1.39,1.966,2.047,2.813c-0.046,0.16-0.085,0.324-0.107,0.493c-0.066,0.511-0.007,1.014,0.151,1.49
	c-0.619,0.015-1.108,0.183-1.108,0.39c0,0.217,0.536,0.393,1.197,0.393c0.092,0,0.181-0.004,0.267-0.011
	c0.209,0.344,0.475,0.664,0.787,0.951c-0.438,0.454-0.672,0.929-0.524,1.077c0.153,0.154,0.657-0.101,1.124-0.569
	c0.008-0.008,0.015-0.017,0.023-0.025c0.503,0.332,1.084,0.588,1.72,0.746c0,0.025-0.002,0.048-0.002,0.073
	c0,0.661,0.176,1.197,0.393,1.197c0.21,0,0.379-0.501,0.391-1.131c0.993,0.109,1.943-0.036,2.756-0.377
	c0.043,0.01,0.081,0.022,0.124,0.032c-0.544,3.402-3.707,4.801-6.662,5.532c0.524,4.223,5.217,0.432,6.458-1.209
	c0.88-1.164,1.725-2.501,3.342-2.61c3.251-0.218,2.563,3.168,1.925,5.206c-0.762,2.437-3.44,6.51-1.783,8.978
	c0.341,0.506,3.383-4.306,3.635-4.823c1.602-3.283,1.239-6.995,1.286-10.531C106.337,108.357,107.697,105.197,109.52,101.857z
	 M88.577,95.657c-0.786-0.209-1.685-0.943-2.032-1.673c-0.876-1.844-1.561-3.794-2.145-5.755c-0.571-1.917,0.112-3.087,1.915-3.923
	c0.922-0.428,1.791-0.383,2.452,0.349c1.241,1.376,2.879,1.716,4.573,1.995c0.533,0.088,1.068,0.199,1.58,0.364
	c2.022,0.653,2.651,1.913,2.006,3.956C95.287,94.633,92.406,96.676,88.577,95.657z M105.305,100.613
	c-1.601,0.923-3.748,0.634-4.67-0.87c-0.709-1.156-1.063-2.531-1.574-3.809c0.17-1.454,0.722-2.391,1.968-2.944
	c1.299-0.576,2.322-0.219,3.117,0.878c0.692,0.955,1.477,1.88,1.968,2.935C106.929,98.552,106.558,99.891,105.305,100.613z"/>
</svg>
