<?xml version="1.0" encoding="utf-8"?>
<!-- Generator: Adobe Illustrator 17.0.0, SVG Export Plug-In . SVG Version: 6.00 Build 0)  -->
<!DOCTYPE svg PUBLIC "-//W3C//DTD SVG 1.1//EN" "http://www.w3.org/Graphics/SVG/1.1/DTD/svg11.dtd">
<svg version="1.1" id="Layer_1" xmlns="http://www.w3.org/2000/svg" xmlns:xlink="http://www.w3.org/1999/xlink" x="0px" y="0px"
	 width="137.555px" height="180px" viewBox="0 0 137.555 180" enable-background="new 0 0 137.555 180" xml:space="preserve">
<path fill="#818385" d="M107.441,34.095c-0.178-0.201-0.367-0.402-0.556-0.592c-0.852-0.84-1.798-1.574-2.828-2.189
	c-0.237-0.154-0.485-0.296-0.745-0.414c-0.58-0.319-1.183-0.592-1.81-0.828c-0.284-0.095-0.568-0.201-0.864-0.284
	c-0.509-0.154-1.041-0.284-1.585-0.379c-0.331-0.071-0.662-0.118-0.994-0.154c-0.592-0.083-1.207-0.118-1.822-0.118
	c-8.388,0-15.179,6.803-15.179,15.179v81.953h30.359V44.317C111.416,40.377,109.914,36.781,107.441,34.095z"/>
<path fill="#818385" d="M47.391,34.095c-0.178-0.201-0.367-0.402-0.556-0.592c-0.852-0.84-1.798-1.574-2.828-2.189
	c-0.237-0.154-0.485-0.296-0.745-0.414c-0.58-0.319-1.183-0.592-1.81-0.828c-0.284-0.095-0.568-0.201-0.864-0.284
	c-0.509-0.154-1.041-0.284-1.585-0.379c-0.331-0.071-0.663-0.118-0.994-0.154c-0.592-0.083-1.207-0.118-1.822-0.118
	c-8.388,0-15.179,6.803-15.179,15.179v81.953h30.359V44.317C51.366,40.377,49.864,36.781,47.391,34.095z"/>
<path fill="#F2F2F2" d="M96.237,49.326v75.873H36.83V51.787h0.012c-0.094-11.26,1.072-22.873,4.193-34.215
	c1.637-5.96,3.828-11.848,6.643-17.561L47.689,0h37.713c2.827,5.712,5.017,11.601,6.655,17.573
	C94.942,28.09,96.155,38.843,96.237,49.326z"/>
<path fill="#818385" d="M75.095,35.522H58.311c-3.58,0-6.478,2.897-6.478,6.478c0,3.569,2.897,6.478,6.478,6.478h16.783
	c3.58,0,6.478-2.909,6.478-6.478C81.572,38.419,78.675,35.522,75.095,35.522z"/>
<path fill="#818385" d="M85.402,0c-4.77,4.947-11.46,8.009-18.856,8.009S52.448,4.947,47.678,0.012L47.689,0H85.402z"/>
<path fill="#818385" d="M49,125.198c-1.089,2.615-1.763,4.058-1.775,4.082H22.783c0,0-0.686-1.443-1.775-4.082H49z"/>
<path fill="#FCB533" d="M34.995,150.558c0,0-3.934-6.897-7.694-21.279h-4.518C26.475,163.811,34.995,180,34.995,180
	s8.538-16.189,12.23-50.72h-4.536C38.929,143.661,34.995,150.558,34.995,150.558z"/>
<path fill="#818385" d="M111.416,125.198c-1.089,2.615-1.763,4.058-1.775,4.082H85.199c0,0-0.686-1.443-1.775-4.082H111.416z"/>
<path fill="#FCB533" d="M97.411,150.558c0,0-3.934-6.897-7.694-21.279h-4.518C88.891,163.811,97.411,180,97.411,180
	s8.538-16.189,12.23-50.72h-4.536C101.345,143.661,97.411,150.558,97.411,150.558z"/>
<path fill="#F2F2F2" d="M47.682,125.198"/>
<path fill="#DCDDDE" d="M36.836,63.989c0,0-2.944,20.906-20.611,33.272S0.03,122.584,0.03,125.234h36.806V63.989z"/>
<path fill="#DCDDDE" d="M96.237,63.989c0,0,2.944,20.906,20.611,33.272s16.195,25.322,16.195,27.972H96.237V63.989z"/>
<path fill="#818385" d="M92.056,17.573H41.035c1.637-5.96,3.828-11.848,6.643-17.561L47.689,0h37.713
	C88.228,5.712,90.419,11.601,92.056,17.573z"/>
</svg>
