<?xml version="1.0" encoding="utf-8"?>
<!-- Generator: Adobe Illustrator 17.0.0, SVG Export Plug-In . SVG Version: 6.00 Build 0)  -->
<!DOCTYPE svg PUBLIC "-//W3C//DTD SVG 1.1//EN" "http://www.w3.org/Graphics/SVG/1.1/DTD/svg11.dtd">
<svg version="1.1" id="Layer_1" xmlns="http://www.w3.org/2000/svg" xmlns:xlink="http://www.w3.org/1999/xlink" x="0px" y="0px"
	 width="180px" height="53.024px" viewBox="0 0 180 53.024" enable-background="new 0 0 180 53.024" xml:space="preserve">
<path fill="#636466" d="M90,28.065c-36.458,0-66.012,6.032-66.012,13.473c0,0.398,0.09,0.792,0.255,1.181
	c1.882,0.321,3.85,0.629,5.908,0.921v0.001c0,5.015,26.795,9.08,59.849,9.08s59.849-4.065,59.849-9.08V43.64
	c2.058-0.292,4.026-0.6,5.908-0.921c0.166-0.389,0.255-0.783,0.255-1.181C156.012,34.097,126.458,28.065,90,28.065z"/>
<path fill="#4D4D4F" d="M179.998,32.906c0.006-0.599-0.151-1.192-0.437-1.781l-0.1,0.082c-0.1-0.12-10.939-12.011-88.712-12.011
	c-77.824,0-90.027,12.108-90.14,12.231L0.39,31.225C0.13,31.789-0.009,32.358,0,32.93c0,3.785,9.21,7.226,24.242,9.788
	c-0.166-0.389-0.255-0.783-0.255-1.181c0-7.441,29.555-13.473,66.012-13.473c36.458,0,66.012,6.032,66.012,13.473
	c0,0.398-0.09,0.792-0.255,1.181C170.79,40.156,180,36.715,180,32.93C180,32.922,179.998,32.914,179.998,32.906z"/>
<path fill="#70C7AE" d="M90.749,19.197c77.773,0,88.612,11.891,88.712,12.011l0.1-0.082c-0.221-0.454-0.516-0.904-0.895-1.35
	c-4.386-2.977-22.419-11.185-87.918-11.185c-69.529,0-86.638,9.398-89.924,11.859c-0.173,0.258-0.316,0.517-0.436,0.777l0.219,0.202
	C0.722,31.305,12.925,19.197,90.749,19.197z"/>
<circle fill="#70C7AE" cx="17.224" cy="39.963" r="0.912"/>
<circle fill="#70C7AE" cx="13.684" cy="37.307" r="0.912"/>
<circle fill="#70C7AE" cx="15.506" cy="34.727" r="0.911"/>
<circle fill="#70C7AE" cx="20.993" cy="32.375" r="0.911"/>
<circle fill="#70C7AE" cx="31.919" cy="30.123" r="0.911"/>
<circle fill="#70C7AE" cx="46.69" cy="28.065" r="0.911"/>
<circle fill="#70C7AE" cx="64.546" cy="26.835" r="0.911"/>
<circle fill="#70C7AE" cx="84.375" cy="26.353" r="0.911"/>
<circle fill="#70C7AE" cx="104.457" cy="26.582" r="0.911"/>
<circle fill="#70C7AE" cx="123.173" cy="27.546" r="0.911"/>
<circle fill="#70C7AE" cx="139.866" cy="28.96" r="0.911"/>
<circle fill="#70C7AE" cx="153.068" cy="30.946" r="0.911"/>
<circle fill="#70C7AE" cx="162.123" cy="33.714" r="0.911"/>
<circle fill="#70C7AE" cx="166.068" cy="36.294" r="0.911"/>
<circle fill="#70C7AE" cx="165.105" cy="39.026" r="0.911"/>
<circle fill="#70C7AE" cx="159.847" cy="40.796" r="0.911"/>
<path fill="#4D4D4F" d="M90.225,5.994h0.18c19.797,0.018,27.04,2.759,29.357,4.037C114.306,4.088,102.959,0,89.838,0
	c-13.4,0-24.947,4.264-30.262,10.413c2.303-1.284,10.001-4.4,30.469-4.419H90.225z"/>
<path fill="#636466" d="M120.68,11.116c-0.054-0.07-0.114-0.139-0.169-0.209l-0.189,0.222c-0.057-0.048-5.001-4.505-29.917-4.527
	h-0.18h-0.18c-25.008,0.023-30.844,4.762-30.899,4.81l-0.197-0.231l0,0c-6.325,1.107-51.463,9.316-58.124,19.268
	C4.11,27.988,21.22,18.59,90.749,18.59c65.499,0,83.531,8.208,87.918,11.185C170.302,19.906,125.216,11.9,120.68,11.116z"/>
<path fill="#70C7AE" d="M90.046,6.601h0.18h0.18c24.915,0.023,29.86,4.479,29.917,4.527l0.189-0.222
	c-0.236-0.296-0.485-0.588-0.749-0.876c-2.317-1.278-9.56-4.019-29.357-4.037h-0.18h-0.18c-20.469,0.02-28.166,3.137-30.47,4.421
	c-0.219,0.253-0.431,0.508-0.628,0.767l0.197,0.231C59.202,11.364,65.038,6.624,90.046,6.601z"/>
<ellipse fill="#4D4D4F" cx="90.749" cy="44.988" rx="51.899" ry="7.733"/>
<ellipse fill="#04967F" cx="89.914" cy="49.161" rx="25.191" ry="3.559"/>
<ellipse fill="#04967F" cx="89.914" cy="49.161" rx="25.191" ry="3.559"/>
<path fill="#70C7AE" d="M89.914,50.899c-10.807,0-18.015-0.908-21.454-1.739c3.439-0.83,10.647-1.738,21.454-1.738
	s18.015,0.908,21.454,1.738C107.929,49.991,100.721,50.899,89.914,50.899z"/>
<path fill="#70C7AE" d="M90.749,53.024c-25.66,0-52.203-3.006-52.203-8.036s26.542-8.036,52.203-8.036s52.203,3.006,52.203,8.036
	S116.409,53.024,90.749,53.024z M90.749,37.559c-30.863,0-51.596,3.841-51.596,7.429s20.733,7.429,51.596,7.429
	s51.596-3.841,51.596-7.429C142.345,41.4,121.612,37.559,90.749,37.559z"/>
</svg>
