<?xml version="1.0" encoding="utf-8"?>
<!-- Generator: Adobe Illustrator 17.0.0, SVG Export Plug-In . SVG Version: 6.00 Build 0)  -->
<!DOCTYPE svg PUBLIC "-//W3C//DTD SVG 1.1//EN" "http://www.w3.org/Graphics/SVG/1.1/DTD/svg11.dtd">
<svg version="1.1" id="Layer_1" xmlns="http://www.w3.org/2000/svg" xmlns:xlink="http://www.w3.org/1999/xlink" x="0px" y="0px"
	 width="124.922px" height="180px" viewBox="0 0 124.922 180" enable-background="new 0 0 124.922 180" xml:space="preserve">
<g>
	<path fill="#DCDDDE" d="M4.407,70.532l0.58,1.018c0.647,1.186,1.622,2.161,2.809,2.809l1.018,0.58l-1.018,0.58
		c-1.189,0.644-2.165,1.62-2.809,2.809l-0.58,1.018l-0.58-1.018c-0.641-1.191-1.618-2.167-2.809-2.809L0,74.938l1.018-0.58
		c1.189-0.644,2.165-1.62,2.809-2.809L4.407,70.532z"/>
</g>
<g>
	<path fill="#DCDDDE" d="M26.023,37.32l1.018,1.832c1.122,2.045,2.806,3.726,4.854,4.844l1.822,1.018l-1.822,1.017
		c-2.049,1.121-3.733,2.805-4.854,4.854l-1.018,1.821l-1.017-1.821c-1.118-2.047-2.799-3.732-4.844-4.854l-1.832-1.017l1.832-1.018
		c2.044-1.12,3.724-2.8,4.844-4.844L26.023,37.32z"/>
</g>
<g>
	<path fill="#DCDDDE" d="M27.975,151.084l1.117-0.352c1.296-0.382,2.455-1.13,3.338-2.153l0.781-0.873l0.352,1.117
		c0.379,1.298,1.127,2.458,2.153,3.338l0.873,0.781l-1.117,0.352c-1.299,0.376-2.46,1.124-3.338,2.153l-0.782,0.872L31,155.204
		c-0.379-1.298-1.127-2.458-2.153-3.338L27.975,151.084z"/>
</g>
<g>
	<path fill="#DCDDDE" d="M0.07,122.948l2.005-0.608c2.236-0.666,4.234-1.957,5.759-3.723l1.379-1.566l0.61,1.995
		c0.663,2.239,1.955,4.241,3.721,5.769l1.566,1.379l-1.995,0.61c-2.237,0.661-4.239,1.949-5.767,3.711l-1.381,1.576l-0.608-2.005
		c-0.663-2.234-1.952-4.231-3.713-5.757L0.07,122.948z"/>
</g>
<g>
	<path fill="#DCDDDE" d="M119.972,73.904l0.656,1.174c0.72,1.319,1.803,2.405,3.121,3.128l1.174,0.656l-1.174,0.656
		c-1.317,0.721-2.4,1.804-3.121,3.121l-0.656,1.174l-0.656-1.174c-0.723-1.318-1.808-2.401-3.128-3.121l-1.174-0.656l1.174-0.656
		c1.32-0.722,2.405-1.808,3.128-3.128L119.972,73.904z"/>
</g>
<g>
	<path fill="#DCDDDE" d="M101.979,3.94c-4.952-5.128-13.124-5.269-18.252-0.317c-5.128,4.953-5.27,13.124-0.317,18.252
		c4.952,5.128,13.124,5.27,18.252,0.317C106.79,17.24,106.931,9.068,101.979,3.94z"/>
</g>
<rect x="88.449" y="31.94" fill="#818385" width="10.333" height="10.621"/>
<path fill="#4E4E50" d="M98.181,64.73c-0.009-3.595-3.811-6.508-8.501-6.508c-0.022,0-0.043,0.005-0.065,0.005H43.031
	c-0.022,0-0.043-0.005-0.065-0.005c-4.696,0-8.503,2.92-8.503,6.521c0,0.016,0.006,0.031,0.006,0.047v59.456
	c0,0.016-0.006,0.031-0.006,0.047c0,3.602,3.807,6.521,8.503,6.521c0.034,0,0.064-0.007,0.098-0.008h46.618
	c4.698,0,8.508-2.907,8.508-6.51v-59.56L98.181,64.73z"/>
<polygon fill="#FAFAFA" points="86.142,70.611 44.797,70.229 45.251,122.677 44.974,123.764 86.846,123.623 86.591,122.675 "/>
<path fill="#4E4E50" d="M89.109,52.189c-0.035-1.14-1.145-2.05-2.508-2.05c-1.381,0-2.491,0.91-2.527,2.05h-0.007v0.054v9.908v0.054
	h0.007c0.035,1.14,1.145,2.05,2.508,2.05c1.381,0,2.491-0.91,2.527-2.05h0.007v-0.054v-9.908v-0.054
	C89.116,52.189,89.109,52.189,89.109,52.189z"/>
<path fill="#4E4E50" d="M47.801,52.189c-0.035-1.14-1.145-2.05-2.508-2.05c-1.381,0-2.491,0.91-2.527,2.05h-0.007v0.054v9.908v0.054
	h0.007c0.035,1.14,1.145,2.05,2.508,2.05c1.381,0,2.491-0.91,2.527-2.05h0.007v-0.054v-9.908v-0.054
	C47.808,52.189,47.801,52.189,47.801,52.189z"/>
<ellipse fill="#818385" cx="65.785" cy="59.831" rx="20.788" ry="17.269"/>
<ellipse fill="#FAFAFA" cx="65.785" cy="58.222" rx="20.788" ry="17.269"/>
<path fill="#DCDDDE" d="M47.807,69.12"/>
<path fill="#4E4E50" d="M82.916,58.623c0,0.363-0.018,0.727-0.055,1.09c-0.674,7.358-8.055,13.141-17.076,13.141
	c-9.458,0-17.131-6.374-17.131-14.231c0-2.18,0.583-4.239,1.658-6.101c4.264-2.029,9.75-3.255,15.727-3.255
	c5.668,0,10.861,1.09,15.035,2.937c0.62,0.273,1.221,0.575,1.786,0.878v4.451C82.898,57.896,82.916,58.259,82.916,58.623z"/>
<path fill="#FAFAFA" d="M57.302,51.576c-1.885,0.634-3.567,1.634-4.915,2.891c-2.396,4.101-1.564,9.189,2.513,12.611
	c1.385,1.162,3.003,2.004,4.727,2.546c-1.118-0.486-2.145-1.133-3.068-1.908c-5.167-4.336-5.124-11.359,0.096-15.651
	C56.862,51.895,57.082,51.736,57.302,51.576z"/>
<path fill="#818385" d="M74.649,89.508H56.352c-1.276,0-2.278,0.848-2.278,1.892v7.858c0,1.045,1.021,1.892,2.278,1.892h18.297
	c1.257,0,2.278-0.848,2.278-1.892V91.4C76.927,90.356,75.906,89.508,74.649,89.508z"/>
<path fill="#DCDDDE" d="M74.621,88.863H56.324c-1.276,0-2.278,0.848-2.278,1.892v7.858c0,1.045,1.021,1.892,2.278,1.892h18.297
	c1.257,0,2.278-0.848,2.278-1.892v-7.858C76.899,89.711,75.878,88.863,74.621,88.863z"/>
<path fill="#818385" d="M58.82,91.145c-1.176,0-2.13,0.792-2.13,1.769s0.954,1.769,2.13,1.769s2.13-0.792,2.13-1.769
	S59.997,91.145,58.82,91.145z M58.82,94.495c-1.05,0-1.902-0.707-1.902-1.58s0.852-1.58,1.902-1.58s1.902,0.708,1.902,1.58
	S59.871,94.495,58.82,94.495z"/>
<ellipse fill="#D72027" cx="58.82" cy="92.914" rx="1.532" ry="1.273"/>
<path fill="#818385" d="M63.969,91.145c-1.176,0-2.13,0.792-2.13,1.769s0.954,1.769,2.13,1.769s2.13-0.792,2.13-1.769
	S65.145,91.145,63.969,91.145z M63.969,94.495c-1.05,0-1.902-0.707-1.902-1.58s0.852-1.58,1.902-1.58c1.05,0,1.902,0.708,1.902,1.58
	S65.019,94.495,63.969,94.495z"/>
<ellipse fill="#818385" cx="63.969" cy="92.914" rx="1.532" ry="1.273"/>
<path fill="#D72027" d="M70.581,98.426L70.581,98.426L70.581,98.426z"/>
<path fill="#D72027" d="M67.564,96.093L67.564,96.093c-0.18,0.001-0.326,0.122-0.326,0.271c0,0.002,0.001,0.005,0.001,0.007v0.857
	c0,0.002-0.001,0.005-0.001,0.007c0,0.149,0.145,0.27,0.325,0.271l0.001,0.001h7.732l0.001-0.001l0,0
	c0.18,0,0.326-0.121,0.326-0.271v-0.001v-0.869v-0.001c0-0.15-0.146-0.271-0.326-0.271l0,0h-0.001
	C75.296,96.093,67.564,96.093,67.564,96.093z"/>
<path fill="#D72027" d="M67.564,94.2L67.564,94.2c-0.18,0.001-0.326,0.122-0.326,0.271c0,0.002,0.001,0.005,0.001,0.007v0.857
	c0,0.002-0.001,0.005-0.001,0.007c0,0.149,0.145,0.27,0.325,0.271l0.001,0.001h7.732l0.001-0.001l0,0
	c0.18,0,0.326-0.121,0.326-0.271v-0.001v-0.869v-0.001c0-0.15-0.146-0.271-0.326-0.271l0,0h-0.001
	C75.296,94.2,67.564,94.2,67.564,94.2z"/>
<path fill="#D72027" d="M67.564,92.308L67.564,92.308c-0.18,0.001-0.326,0.122-0.326,0.271c0,0.002,0.001,0.005,0.001,0.007v0.857
	c0,0.002-0.001,0.005-0.001,0.007c0,0.149,0.145,0.27,0.325,0.271l0.001,0.001h7.732l0.001-0.001l0,0
	c0.18,0,0.326-0.121,0.326-0.271v-0.001V92.58v-0.001c0-0.15-0.146-0.271-0.326-0.271l0,0h-0.001H67.564z"/>
<ellipse fill="#FAFAFA" cx="76.473" cy="56.172" rx="3.474" ry="2.886"/>
<ellipse fill="#FAFAFA" cx="72.999" cy="61.369" rx="2.3" ry="1.911"/>
<path fill="#818385" d="M90.616,70.339"/>
<path fill="#FAFAFA" d="M98.229,111.885"/>
<path fill="#818385" d="M69.509,112.836v-11.688H66.32v13.081c0,0.863,0.856,1.575,1.913,1.575h18.299l-0.026-2.968L69.509,112.836
	L69.509,112.836z"/>
<rect x="66.327" y="102.298" fill="#4E4E50" width="3.182" height="0.686"/>
<rect x="66.327" y="104.35" fill="#4E4E50" width="3.182" height="0.686"/>
<rect x="66.327" y="106.402" fill="#4E4E50" width="3.182" height="0.686"/>
<rect x="66.327" y="108.454" fill="#4E4E50" width="3.182" height="0.686"/>
<rect x="66.327" y="110.507" fill="#4E4E50" width="3.182" height="0.686"/>
<rect x="70.31" y="112.836" fill="#4E4E50" width="0.826" height="2.967"/>
<rect x="72.78" y="112.836" fill="#4E4E50" width="0.826" height="2.967"/>
<rect x="75.25" y="112.836" fill="#4E4E50" width="0.826" height="2.967"/>
<rect x="77.72" y="112.836" fill="#4E4E50" width="0.826" height="2.967"/>
<rect x="80.191" y="112.836" fill="#4E4E50" width="0.826" height="2.967"/>
<path fill="#FAFAFA" d="M94.08,84.313c2.588,0,4.702-1.756,4.702-3.906V42.561H88.449v41.752H94.08z"/>
<rect x="88.449" y="68.595" fill="#DCDDDE" width="10.334" height="6.434"/>
<rect x="88.449" y="72.805" fill="#D72027" width="10.334" height="1.396"/>
<rect x="88.449" y="70.629" fill="#D72027" width="10.334" height="1.396"/>
<rect x="34.464" y="111.981" fill="#818385" width="10.333" height="10.621"/>
<path fill="#FAFAFA" d="M39.166,70.229c-2.588,0-4.702,1.756-4.702,3.906v37.846h10.333V70.229H39.166z"/>
<rect x="34.464" y="79.513" fill="#DCDDDE" width="10.334" height="6.434"/>
<rect x="34.464" y="80.341" fill="#D72027" width="10.334" height="1.396"/>
<rect x="34.464" y="82.518" fill="#D72027" width="10.334" height="1.396"/>
<polygon fill="#FAFAFA" points="62.437,171.014 44.974,171.014 44.974,123.764 62.437,123.638 "/>
<polygon fill="#FAFAFA" points="86.951,171.014 69.489,171.014 69.489,123.682 86.846,123.623 "/>
<rect x="79.961" y="131.091" fill="#DCDDDE" width="6.991" height="15.86"/>
<rect x="79.961" y="132.834" fill="#D72027" width="6.991" height="1.396"/>
<rect x="79.961" y="135.29" fill="#D72027" width="6.991" height="1.396"/>
<rect x="44.974" y="131.091" fill="#DCDDDE" width="6.991" height="15.86"/>
<rect x="44.974" y="132.834" fill="#D72027" width="6.991" height="1.396"/>
<rect x="44.974" y="135.29" fill="#D72027" width="6.991" height="1.396"/>
<path fill="#FAFAFA" d="M93.373,36.85l-0.003-5.345c0-0.241-0.148-0.45-0.336-0.45l-1.514,0.001l-0.003,0.004
	c-0.183,0.002-0.331,0.2-0.332,0.446l0,0l0,0c0,0.001,0,0.002,0,0.003s0,0.002,0,0.003l0.003,5.359c0,0.001,0,0.002,0,0.003
	s0,0.002,0,0.003l0,0l0,0c0.001,0.246,0.15,0.445,0.333,0.446l0.003,0.004l1.514-0.001l0.003-0.004h0.001
	c0.186,0,0.336-0.202,0.335-0.45C93.377,36.864,93.374,36.858,93.373,36.85z"/>
<path fill="#FAFAFA" d="M96.08,36.85l-0.003-5.345c0-0.241-0.148-0.45-0.336-0.45l-1.514,0.001l-0.003,0.004
	c-0.183,0.002-0.331,0.2-0.332,0.446l0,0l0,0c0,0.001,0,0.002,0,0.003s0,0.002,0,0.003l0.003,5.359c0,0.001,0,0.002,0,0.003
	s0,0.002,0,0.003l0,0l0,0c0.001,0.246,0.15,0.445,0.333,0.446l0.003,0.004l1.514-0.001l0.003-0.004h0.001
	c0.186,0,0.336-0.202,0.335-0.45C96.084,36.864,96.081,36.858,96.08,36.85z"/>
<path fill="#FAFAFA" d="M98.788,36.85l-0.003-5.345c0-0.241-0.148-0.45-0.336-0.45l-1.514,0.001l-0.003,0.004
	c-0.183,0.002-0.331,0.2-0.332,0.446l0,0l0,0c0,0.001,0,0.002,0,0.003s0,0.002,0,0.003l0.003,5.359c0,0.001,0,0.002,0,0.003
	s0,0.002,0,0.003l0,0l0,0c0.001,0.246,0.15,0.445,0.333,0.446l0.003,0.004l1.514-0.001l0.003-0.004h0.001
	c0.185,0,0.335-0.202,0.335-0.45C98.791,36.864,98.788,36.858,98.788,36.85z"/>
<path fill="#FAFAFA" d="M39.379,122.2l-0.003-5.345c0-0.241-0.148-0.45-0.336-0.45l-1.514,0.001l-0.003,0.004
	c-0.183,0.002-0.331,0.2-0.332,0.446l0,0l0,0c0,0.001,0,0.002,0,0.003s0,0.002,0,0.003l0.003,5.359c0,0.001,0,0.002,0,0.003
	s0,0.002,0,0.003l0,0l0,0c0.001,0.246,0.15,0.445,0.333,0.446l0.003,0.004l1.514-0.001l0.003-0.004h0.001
	c0.185,0,0.335-0.202,0.335-0.45C39.383,122.215,39.38,122.208,39.379,122.2z"/>
<path fill="#FAFAFA" d="M36.652,122.2l-0.003-5.345c0-0.241-0.148-0.45-0.336-0.45l-1.514,0.001l-0.003,0.004
	c-0.183,0.002-0.331,0.2-0.332,0.446l0,0l0,0c0,0.001,0,0.002,0,0.003s0,0.002,0,0.003l0.003,5.359c0,0.001,0,0.002,0,0.003
	s0,0.002,0,0.003l0,0l0,0c0.001,0.246,0.15,0.445,0.333,0.446l0.003,0.004l1.514-0.001l0.003-0.004h0.001
	c0.185,0,0.335-0.202,0.335-0.45C36.656,122.215,36.653,122.208,36.652,122.2z"/>
<path fill="#FAFAFA" d="M42.087,122.2l-0.003-5.345c0-0.241-0.148-0.45-0.336-0.45l-1.514,0.001l-0.003,0.004
	c-0.183,0.002-0.331,0.2-0.332,0.446l0,0l0,0c0,0.001,0,0.002,0,0.003s0,0.002,0,0.003l0.003,5.359c0,0.001,0,0.002,0,0.003
	s0,0.002,0,0.003l0,0l0,0c0.001,0.246,0.15,0.445,0.333,0.446l0.003,0.004l1.514-0.001l0.003-0.004h0.001
	c0.185,0,0.335-0.202,0.335-0.45C42.09,122.215,42.087,122.208,42.087,122.2z"/>
<path fill="#FAFAFA" d="M44.794,122.2l-0.003-5.345c0-0.241-0.148-0.45-0.336-0.45l-1.514,0.001l-0.003,0.004
	c-0.183,0.002-0.331,0.2-0.332,0.446l0,0l0,0c0,0.001,0,0.002,0,0.003s0,0.002,0,0.003l0.003,5.359c0,0.001,0,0.002,0,0.003
	s0,0.002,0,0.003l0,0l0,0c0.001,0.246,0.15,0.445,0.333,0.446l0.003,0.004l1.514-0.001l0.003-0.004h0.001
	c0.185,0,0.335-0.202,0.335-0.45C44.797,122.215,44.794,122.208,44.794,122.2z"/>
<path fill="#DCDDDE" d="M90.658,33.663l0.018-7.805c0.001-0.352-0.147-0.658-0.334-0.658l-1.514-0.004l-0.003,0.006
	c-0.183,0.002-0.332,0.292-0.334,0.651l0,0l0,0c0,0.001,0,0.003,0,0.004s0,0.003,0,0.004l-0.018,7.826c0,0.001,0,0.003,0,0.004
	c0,0.001,0,0.003,0,0.004l0,0l0,0c0,0.359,0.148,0.65,0.331,0.653l0.003,0.006l1.514,0.004l0.003-0.005h0.001
	c0.185,0,0.336-0.293,0.337-0.656C90.661,33.684,90.658,33.674,90.658,33.663z"/>
<path fill="#818385" d="M108.378,3.552c0.261,0.383,0.226,0.947-0.071,1.646c-1.564-1.635-9.461,1.579-17.919,7.318
	c-6.916,4.695-12.12,9.666-13.27,12.446c-0.042-0.03-0.079-0.076-0.106-0.122c-1.295-1.904,4.679-8.214,13.341-14.092
	C99.015,4.871,107.083,1.648,108.378,3.552z"/>
<path fill="#DCDDDE" d="M93.378,34.792l-4.526,0.011c-0.204,0-0.381,0.158-0.38,0.357l0.003,1.605l0.003,0.003
	c0.002,0.194,0.17,0.351,0.379,0.352l0,0l0,0c0.001,0,0.002,0,0.002,0c0.001,0,0.002,0,0.002,0l4.538-0.011c0.001,0,0.002,0,0.002,0
	c0.001,0,0.002,0,0.002,0l0,0l0,0c0.208-0.002,0.376-0.159,0.377-0.354l0.003-0.003l-0.003-1.605l-0.003-0.003v-0.001
	c0-0.196-0.171-0.355-0.382-0.355C93.391,34.789,93.385,34.792,93.378,34.792z"/>
<rect x="86.142" y="70.611" fill="#FAFAFA" width="2.307" height="13.703"/>
<path fill="#818385" d="M62.435,171.149V180H38.208v-0.008c-0.017,0-0.033,0.008-0.05,0.008c-1.861,0-3.449-1.133-4.111-2.754
	c-0.215-0.521-0.331-1.092-0.331-1.687c0-2.448,1.985-4.442,4.442-4.442c0.116,0,0.223,0.025,0.339,0.033h23.938V171.149z"/>
<rect x="39.778" y="171.152" fill="#DCDDDE" width="10.391" height="2.268"/>
<path fill="#DCDDDE" d="M62.435,177.246V180H38.158c-0.703,0-1.357-0.157-1.944-0.447c-0.182-0.083-0.364-0.19-0.529-0.298
	c-0.728-0.488-1.299-1.191-1.638-2.01h28.388V177.246z"/>
<path fill="#818385" d="M36.214,177.246v2.308c-0.182-0.083-0.364-0.19-0.529-0.298v-2.01H36.214z"/>
<rect x="38.398" y="177.246" fill="#818385" width="0.538" height="2.754"/>
<rect x="41.5" y="177.246" fill="#818385" width="0.538" height="2.754"/>
<rect x="44.602" y="177.246" fill="#818385" width="0.538" height="2.754"/>
<rect x="47.704" y="177.246" fill="#818385" width="0.538" height="2.754"/>
<rect x="50.805" y="177.246" fill="#818385" width="0.538" height="2.754"/>
<rect x="53.907" y="177.246" fill="#818385" width="0.538" height="2.754"/>
<rect x="57.009" y="177.246" fill="#818385" width="0.538" height="2.754"/>
<path fill="#818385" d="M69.479,171.149V180h24.228v-0.008c0.017,0,0.033,0.008,0.05,0.008c1.861,0,3.449-1.133,4.111-2.754
	c0.215-0.521,0.331-1.092,0.331-1.687c0-2.448-1.985-4.442-4.442-4.442c-0.116,0-0.223,0.025-0.339,0.033H69.479V171.149z"/>
<rect x="81.745" y="171.152" fill="#DCDDDE" width="10.391" height="2.268"/>
<path fill="#DCDDDE" d="M69.479,177.246V180h24.277c0.703,0,1.357-0.157,1.944-0.447c0.182-0.083,0.364-0.19,0.529-0.298
	c0.728-0.488,1.299-1.191,1.638-2.01H69.479V177.246z"/>
<path fill="#818385" d="M95.7,177.246v2.308c0.182-0.083,0.364-0.19,0.529-0.298v-2.01H95.7z"/>
<rect x="92.979" y="177.246" fill="#818385" width="0.538" height="2.754"/>
<rect x="89.877" y="177.246" fill="#818385" width="0.538" height="2.754"/>
<rect x="86.775" y="177.246" fill="#818385" width="0.538" height="2.754"/>
<rect x="83.673" y="177.246" fill="#818385" width="0.538" height="2.754"/>
<rect x="80.571" y="177.246" fill="#818385" width="0.538" height="2.754"/>
<rect x="77.469" y="177.246" fill="#818385" width="0.538" height="2.754"/>
<rect x="74.368" y="177.246" fill="#818385" width="0.538" height="2.754"/>
<rect x="60.111" y="177.246" fill="#818385" width="0.538" height="2.754"/>
</svg>
