<?xml version="1.0" encoding="utf-8"?>
<!-- Generator: Adobe Illustrator 17.0.0, SVG Export Plug-In . SVG Version: 6.00 Build 0)  -->
<!DOCTYPE svg PUBLIC "-//W3C//DTD SVG 1.1//EN" "http://www.w3.org/Graphics/SVG/1.1/DTD/svg11.dtd">
<svg version="1.1" id="Layer_1" xmlns="http://www.w3.org/2000/svg" xmlns:xlink="http://www.w3.org/1999/xlink" x="0px" y="0px"
	 width="60.164px" height="180px" viewBox="0 0 60.164 180" enable-background="new 0 0 60.164 180" xml:space="preserve">
<path fill="#F2F2F2" d="M51.438,64.916v2.23c-0.043,3.132-0.221,6.231-0.494,9.253c-1.166,12.675-4.179,24.166-6.903,32.499
	c-1.507,4.622-2.928,8.265-3.899,10.606c-0.783,1.881-1.268,2.92-1.277,2.937H21.279c0,0-0.494-1.038-1.277-2.937
	C15.193,107.91-0.69,64.243,16.504,29.437c3.235-6.58,7.661-12.836,13.568-18.505c5.899,5.669,10.325,11.917,13.568,18.497
	C49.259,40.784,51.344,53.092,51.438,64.916z"/>
<path fill="#DCDDDE" d="M25.981,122.445H21.27c-0.017-0.034-2.449-5.211-5.169-13.55c-2.729-8.33-5.737-19.82-6.906-32.497
	c-0.271-3.025-0.449-6.118-0.491-9.253v-2.229c0.059-7.711,0.974-15.626,3.152-23.345c1.178-4.169,2.729-8.287,4.72-12.287
	c3.229-6.525,7.635-12.728,13.49-18.354c0,0-4.237,6.127-7.83,18.354c-1.051,3.576-2.042,7.669-2.864,12.287
	C16.075,60.12,15.643,87.1,25.981,122.445z"/>
<path fill="#F26322" d="M40.142,119.504c-0.783,1.881-1.268,2.92-1.277,2.937H21.279c0,0-0.494-1.038-1.277-2.937H40.142z"/>
<path fill="#F26322" d="M30.066,158.932c0,0-6.649-11.648-9.306-36.492h-1.081c0,39.399,10.387,57.559,10.387,57.559
	s10.387-18.161,10.387-57.559h-1.081C36.715,147.285,30.066,158.932,30.066,158.932z"/>
<path fill="#FCB533" d="M30.066,137.75c0,0-2.83-4.962-5.536-15.309h-3.77c2.657,24.844,9.306,36.492,9.306,36.492
	s6.649-11.648,9.306-36.492h-3.77C32.896,132.788,30.066,137.75,30.066,137.75z"/>
<path fill="#818385" d="M34.267,51.939c-0.066-0.075-0.137-0.15-0.208-0.221c-0.319-0.314-0.673-0.589-1.058-0.819
	c-0.089-0.058-0.181-0.111-0.279-0.155c-0.217-0.119-0.443-0.221-0.677-0.31c-0.106-0.035-0.212-0.075-0.323-0.106
	c-0.19-0.058-0.389-0.106-0.593-0.142c-0.124-0.027-0.248-0.044-0.372-0.058c-0.221-0.031-0.451-0.044-0.682-0.044
	c-3.138,0-5.678,2.545-5.678,5.678c0,0.23,0.013,0.46,0.044,0.682c0.013,0.124,0.031,0.248,0.058,0.372
	c0.035,0.204,0.084,0.403,0.142,0.593c0.031,0.111,0.066,0.217,0.111,0.323c0.084,0.235,0.186,0.465,0.301,0.682
	c0.049,0.093,0.102,0.186,0.159,0.274c0.23,0.385,0.505,0.739,0.819,1.058c0.071,0.075,0.142,0.142,0.217,0.212
	c1.009,0.921,2.354,1.483,3.828,1.483c3.133,0,5.678-2.54,5.678-5.678C35.754,54.289,35.192,52.943,34.267,51.939z M30.076,60.613
	c-1.244,0-2.376-0.469-3.239-1.244c-0.075-0.066-0.15-0.137-0.221-0.208c-0.31-0.319-0.58-0.682-0.801-1.075
	c-0.049-0.097-0.097-0.195-0.142-0.292c-0.106-0.23-0.195-0.469-0.266-0.717c-0.031-0.115-0.062-0.235-0.084-0.35
	c-0.044-0.212-0.071-0.425-0.089-0.646c-0.004-0.106-0.009-0.212-0.009-0.319V55.66c0.053-2.593,2.151-4.687,4.744-4.744h0.106
	c0.106,0,0.212,0.004,0.314,0.009c0.221,0.018,0.438,0.044,0.646,0.088c0.119,0.022,0.235,0.049,0.345,0.084
	c0.248,0.066,0.491,0.155,0.721,0.266c0.097,0.044,0.195,0.093,0.292,0.142c0.394,0.217,0.757,0.487,1.075,0.801
	c0.075,0.071,0.146,0.142,0.208,0.221c0.774,0.859,1.244,1.991,1.244,3.235C34.922,58.44,32.753,60.613,30.076,60.613z"/>
<path fill="#818385" d="M32.935,53.154c-0.045-0.051-0.094-0.103-0.142-0.151c-0.217-0.214-0.459-0.402-0.722-0.558
	c-0.06-0.039-0.124-0.075-0.19-0.106c-0.148-0.082-0.302-0.151-0.462-0.211c-0.072-0.024-0.145-0.051-0.22-0.072
	c-0.13-0.039-0.266-0.072-0.405-0.097c-0.085-0.018-0.169-0.03-0.254-0.039c-0.151-0.021-0.308-0.03-0.465-0.03
	c-2.14,0-3.873,1.736-3.873,3.873c0,0.157,0.009,0.314,0.03,0.465c0.009,0.085,0.021,0.169,0.039,0.254
	c0.024,0.139,0.057,0.275,0.097,0.405c0.021,0.075,0.045,0.148,0.075,0.22c0.057,0.16,0.127,0.317,0.205,0.465
	c0.033,0.063,0.069,0.127,0.109,0.187c0.157,0.263,0.344,0.504,0.558,0.722c0.048,0.051,0.097,0.097,0.148,0.145
	c0.688,0.628,1.606,1.011,2.611,1.011c2.137,0,3.873-1.733,3.873-3.873C33.949,54.757,33.566,53.84,32.935,53.154z"/>
<path fill="#818385" d="M33.056,66.178c-0.047-0.053-0.098-0.107-0.148-0.157c-0.227-0.223-0.478-0.419-0.752-0.582
	c-0.063-0.041-0.129-0.079-0.198-0.11c-0.154-0.085-0.315-0.157-0.481-0.22c-0.076-0.025-0.151-0.053-0.23-0.076
	c-0.135-0.041-0.277-0.076-0.422-0.101c-0.088-0.019-0.176-0.031-0.264-0.041c-0.157-0.022-0.321-0.031-0.485-0.031
	c-2.231,0-4.037,1.809-4.037,4.037c0,0.164,0.009,0.327,0.031,0.485c0.009,0.088,0.022,0.176,0.041,0.264
	c0.025,0.145,0.06,0.286,0.101,0.422c0.022,0.079,0.047,0.154,0.079,0.23c0.06,0.167,0.132,0.33,0.214,0.485
	c0.035,0.066,0.072,0.132,0.113,0.195c0.164,0.274,0.359,0.526,0.582,0.752c0.05,0.053,0.101,0.101,0.154,0.151
	c0.717,0.655,1.674,1.054,2.722,1.054c2.228,0,4.037-1.806,4.037-4.037C34.113,67.849,33.714,66.892,33.056,66.178z M30.076,72.346
	c-0.884,0-1.69-0.334-2.303-0.884c-0.053-0.047-0.107-0.098-0.157-0.148c-0.22-0.227-0.412-0.485-0.57-0.765
	c-0.035-0.069-0.069-0.138-0.101-0.208c-0.076-0.164-0.138-0.334-0.189-0.51c-0.022-0.082-0.044-0.167-0.06-0.249
	c-0.031-0.151-0.05-0.302-0.063-0.459c-0.003-0.076-0.006-0.151-0.006-0.227v-0.072c0.038-1.844,1.529-3.332,3.373-3.373h0.076
	c0.076,0,0.151,0.003,0.223,0.006c0.157,0.013,0.312,0.031,0.459,0.063c0.085,0.016,0.167,0.035,0.245,0.06
	c0.176,0.047,0.349,0.11,0.513,0.189c0.069,0.031,0.138,0.066,0.208,0.101c0.28,0.154,0.538,0.346,0.765,0.57
	c0.054,0.05,0.104,0.101,0.148,0.157c0.551,0.61,0.884,1.416,0.884,2.3C33.522,70.801,31.98,72.346,30.076,72.346z"/>
<path fill="#818385" d="M32.109,67.042c-0.032-0.036-0.067-0.073-0.101-0.107c-0.155-0.152-0.326-0.285-0.513-0.397
	c-0.043-0.028-0.088-0.054-0.135-0.075c-0.105-0.058-0.215-0.107-0.328-0.15c-0.052-0.017-0.103-0.036-0.157-0.052
	c-0.092-0.028-0.189-0.052-0.288-0.069c-0.06-0.013-0.12-0.021-0.18-0.028c-0.107-0.015-0.219-0.021-0.331-0.021
	c-1.522,0-2.754,1.234-2.754,2.754c0,0.112,0.006,0.223,0.021,0.331c0.006,0.06,0.015,0.12,0.028,0.18
	c0.017,0.099,0.041,0.195,0.069,0.288c0.015,0.054,0.032,0.105,0.054,0.157c0.041,0.114,0.09,0.225,0.146,0.331
	c0.024,0.045,0.049,0.09,0.077,0.133c0.112,0.187,0.245,0.358,0.397,0.513c0.034,0.036,0.069,0.069,0.105,0.103
	c0.489,0.446,1.142,0.719,1.857,0.719c1.52,0,2.754-1.232,2.754-2.754C32.83,68.182,32.557,67.53,32.109,67.042z"/>
<path fill="#818385" d="M32.29,77.787c-0.035-0.04-0.073-0.08-0.11-0.117c-0.168-0.166-0.355-0.311-0.559-0.433
	c-0.047-0.03-0.096-0.058-0.147-0.082c-0.115-0.063-0.234-0.117-0.358-0.164c-0.056-0.019-0.112-0.04-0.171-0.056
	c-0.101-0.03-0.206-0.056-0.313-0.075c-0.065-0.014-0.131-0.023-0.196-0.03c-0.117-0.016-0.239-0.023-0.36-0.023
	c-1.658,0-3,1.345-3,3c0,0.122,0.007,0.243,0.023,0.36c0.007,0.065,0.016,0.131,0.03,0.196c0.019,0.108,0.044,0.213,0.075,0.313
	c0.016,0.058,0.035,0.115,0.058,0.171c0.044,0.124,0.098,0.246,0.159,0.36c0.026,0.049,0.054,0.098,0.084,0.145
	c0.122,0.203,0.267,0.391,0.433,0.559c0.037,0.04,0.075,0.075,0.115,0.112c0.533,0.486,1.244,0.783,2.023,0.783c1.656,0,3-1.342,3-3
	C33.076,79.028,32.779,78.317,32.29,77.787z M30.076,82.37c-0.657,0-1.256-0.248-1.712-0.657c-0.04-0.035-0.079-0.072-0.117-0.11
	c-0.164-0.168-0.306-0.36-0.423-0.568c-0.026-0.051-0.051-0.103-0.075-0.154c-0.056-0.122-0.103-0.248-0.14-0.379
	c-0.016-0.061-0.033-0.124-0.044-0.185c-0.023-0.112-0.037-0.224-0.047-0.341c-0.002-0.056-0.005-0.112-0.005-0.168v-0.054
	c0.028-1.37,1.136-2.476,2.507-2.507h0.056c0.056,0,0.112,0.002,0.166,0.005c0.117,0.009,0.231,0.023,0.341,0.047
	c0.063,0.012,0.124,0.026,0.182,0.044c0.131,0.035,0.26,0.082,0.381,0.14c0.051,0.023,0.103,0.049,0.154,0.075
	c0.208,0.115,0.4,0.257,0.568,0.423c0.04,0.037,0.077,0.075,0.11,0.117c0.409,0.454,0.657,1.052,0.657,1.709
	C32.636,81.222,31.491,82.37,30.076,82.37z"/>
<path fill="#818385" d="M31.586,78.429c-0.024-0.027-0.049-0.054-0.075-0.08c-0.115-0.113-0.242-0.212-0.381-0.295
	c-0.032-0.021-0.065-0.04-0.1-0.056c-0.078-0.043-0.16-0.08-0.244-0.112c-0.038-0.013-0.077-0.027-0.116-0.038
	c-0.069-0.021-0.14-0.038-0.214-0.051c-0.045-0.01-0.089-0.016-0.134-0.021c-0.08-0.011-0.163-0.016-0.246-0.016
	c-1.131,0-2.047,0.917-2.047,2.047c0,0.083,0.005,0.166,0.016,0.246c0.005,0.045,0.011,0.089,0.021,0.134
	c0.013,0.073,0.03,0.145,0.051,0.214c0.011,0.04,0.024,0.078,0.04,0.116c0.03,0.085,0.067,0.167,0.108,0.246
	c0.018,0.033,0.037,0.067,0.057,0.099c0.083,0.139,0.182,0.266,0.295,0.381c0.026,0.027,0.051,0.051,0.078,0.077
	c0.364,0.332,0.849,0.534,1.38,0.534c1.129,0,2.047-0.916,2.047-2.047C32.122,79.276,31.92,78.791,31.586,78.429z"/>
<path fill="#F26322" d="M9.22,76.398l-0.017-0.059L0,103.887v13.846v31.209l18.88-27.777c0.297,0.407,0.559,0.839,0.797,1.28h1.619
	C21.261,122.377,11.55,101.743,9.22,76.398z"/>
<path fill="#F26322" d="M50.961,76.339l-0.017,0.059c-2.33,25.345-12.041,45.979-12.075,46.047h1.619
	c0.237-0.441,0.5-0.873,0.797-1.28l18.88,27.777v-31.209v-13.846L50.961,76.339z"/>
<path fill="#F26322" d="M43.64,29.429C43.64,29.429,43.641,29.429,43.64,29.429c-0.002-0.006-0.005-0.011-0.007-0.016
	c-0.021-0.043-0.039-0.087-0.061-0.13h-0.007c-3.04-6.13-7.125-11.965-12.46-17.315V1.624L30.047,0l-0.991,1.624V11.95
	c-5.349,5.353-9.437,11.199-12.473,17.333h-0.009c-1.991,4-3.542,8.118-4.72,12.287h36.429C47.12,37.452,45.589,33.383,43.64,29.429
	z"/>
</svg>
