<?xml version="1.0" encoding="utf-8"?>
<!-- Generator: Adobe Illustrator 17.0.0, SVG Export Plug-In . SVG Version: 6.00 Build 0)  -->
<!DOCTYPE svg PUBLIC "-//W3C//DTD SVG 1.1//EN" "http://www.w3.org/Graphics/SVG/1.1/DTD/svg11.dtd">
<svg version="1.1" id="Layer_1" xmlns="http://www.w3.org/2000/svg" xmlns:xlink="http://www.w3.org/1999/xlink" x="0px" y="0px"
	 width="180px" height="142.034px" viewBox="0 0 180 142.034" enable-background="new 0 0 180 142.034" xml:space="preserve">
<g>
	<path fill="#70C7AE" d="M90,28.065c-36.458,0-66.012,6.032-66.012,13.473c0,0.398,0.09,0.792,0.255,1.181
		c1.882,0.321,3.85,0.629,5.908,0.921v0.001c0,5.015,26.795,9.08,59.849,9.08s59.849-4.065,59.849-9.08V43.64
		c2.058-0.292,4.026-0.6,5.908-0.921c0.166-0.389,0.255-0.783,0.255-1.181C156.012,34.097,126.458,28.065,90,28.065z"/>
</g>
<g>
	<path fill="#4D4D4F" d="M179.998,32.906c0.006-0.599-0.151-1.192-0.437-1.781l-0.1,0.082c-0.1-0.12-10.939-12.011-88.712-12.011
		c-77.824,0-90.027,12.108-90.14,12.231L0.39,31.225C0.13,31.789-0.009,32.358,0,32.93c0,3.785,9.21,7.226,24.242,9.788
		c-0.166-0.389-0.255-0.783-0.255-1.181c0-7.441,29.555-13.473,66.012-13.473c36.458,0,66.012,6.032,66.012,13.473
		c0,0.398-0.09,0.792-0.255,1.181C170.79,40.156,180,36.715,180,32.93C180,32.922,179.998,32.914,179.998,32.906z"/>
</g>
<g>
	<path fill="#70C7AE" d="M90.749,19.197c77.773,0,88.612,11.891,88.712,12.011l0.1-0.082c-0.221-0.454-0.516-0.904-0.895-1.35
		c-4.386-2.977-22.419-11.185-87.918-11.185c-69.529,0-86.638,9.398-89.924,11.859c-0.173,0.258-0.316,0.517-0.436,0.777
		l0.219,0.202C0.722,31.305,12.925,19.197,90.749,19.197z"/>
</g>
<g>
	<circle fill="#70C7AE" cx="17.224" cy="39.963" r="0.912"/>
</g>
<g>
	<circle fill="#70C7AE" cx="13.683" cy="37.307" r="0.912"/>
</g>
<g>
	<circle fill="#70C7AE" cx="15.506" cy="34.727" r="0.911"/>
</g>
<g>
	<circle fill="#70C7AE" cx="20.993" cy="32.375" r="0.911"/>
</g>
<g>
	<circle fill="#70C7AE" cx="31.919" cy="30.123" r="0.911"/>
</g>
<g>
	<circle fill="#70C7AE" cx="46.69" cy="28.065" r="0.911"/>
</g>
<g>
	<circle fill="#70C7AE" cx="64.546" cy="26.835" r="0.911"/>
</g>
<g>
	<circle fill="#70C7AE" cx="84.375" cy="26.353" r="0.911"/>
</g>
<g>
	<circle fill="#70C7AE" cx="104.457" cy="26.582" r="0.911"/>
</g>
<g>
	<circle fill="#70C7AE" cx="123.173" cy="27.545" r="0.911"/>
</g>
<g>
	<circle fill="#70C7AE" cx="139.866" cy="28.959" r="0.911"/>
</g>
<g>
	<circle fill="#70C7AE" cx="153.068" cy="30.946" r="0.911"/>
</g>
<g>
	<circle fill="#70C7AE" cx="162.123" cy="33.714" r="0.911"/>
</g>
<g>
	<circle fill="#70C7AE" cx="166.068" cy="36.294" r="0.911"/>
</g>
<g>
	<circle fill="#70C7AE" cx="165.105" cy="39.026" r="0.911"/>
</g>
<g>
	<circle fill="#70C7AE" cx="159.847" cy="40.796" r="0.911"/>
</g>
<g>
	<path fill="#4D4D4F" d="M90.225,5.994h0.18c19.797,0.018,27.04,2.759,29.357,4.037C114.306,4.088,102.959,0,89.838,0
		c-13.4,0-24.947,4.264-30.262,10.413c2.303-1.284,10.001-4.4,30.469-4.419H90.225z"/>
</g>
<g>
	<path fill="#636466" d="M120.68,11.116c-0.054-0.07-0.114-0.139-0.169-0.209l-0.189,0.222c-0.057-0.048-5.001-4.505-29.917-4.527
		h-0.18h-0.18c-25.008,0.023-30.844,4.762-30.899,4.81l-0.197-0.231l0,0c-6.325,1.107-51.463,9.316-58.124,19.268
		C4.11,27.988,21.22,18.59,90.749,18.59c65.499,0,83.531,8.208,87.918,11.185C170.302,19.906,125.216,11.9,120.68,11.116z"/>
</g>
<g>
	<path fill="#70C7AE" d="M90.046,6.601h0.18h0.18c24.915,0.023,29.86,4.479,29.917,4.527l0.189-0.222
		c-0.236-0.296-0.485-0.588-0.749-0.876c-2.317-1.278-9.56-4.019-29.357-4.037h-0.18h-0.18c-20.469,0.02-28.166,3.137-30.47,4.42
		c-0.219,0.253-0.431,0.508-0.628,0.767l0.197,0.231C59.202,11.364,65.038,6.624,90.046,6.601z"/>
</g>
<g>
	<ellipse fill="#4D4D4F" cx="90.749" cy="44.988" rx="51.899" ry="7.733"/>
</g>
<g>
	<ellipse fill="#04967F" cx="89.914" cy="49.161" rx="25.191" ry="3.559"/>
</g>
<g>
	<path fill="#70C7AE" d="M111.033,49.161h-0.006c0-1.966-9.514-3.559-21.25-3.559s-21.25,1.594-21.25,3.559l-12.014,92.873h66.974
		L111.033,49.161z"/>
</g>
<g>
	<path fill="#70C7AE" d="M111.033,49.161h-0.006c0-1.966-9.514-3.559-21.25-3.559s-21.25,1.594-21.25,3.559l-12.014,92.873h66.974
		L111.033,49.161z"/>
</g>
<g>
	<g>
		<path fill="#04967F" d="M85.221,134.294c-0.078-0.055-0.17-0.097-0.253-0.147c-0.18-0.111-0.355-0.226-0.539-0.332
			c-0.695-0.396-1.022-0.963-0.917-1.778c0.074-0.571,0.147-1.151,0.166-1.727c0.037-0.963,0.046-1.925,0.023-2.888
			c-0.005-0.18-0.193-0.424-0.364-0.52c-0.474-0.272-0.732-0.668-0.659-1.184c0.088-0.622,0.235-1.244,0.442-1.838
			c0.456-1.303,0.511-2.625-0.184-3.8c-0.755-1.276-0.778-2.483-0.18-3.804c0.184,0.497,0.359,0.967,0.548,1.469
			c0.548-0.93,0.94-1.833,0.783-2.883c-0.023-0.147,0.051-0.304,0.051-0.461c0.005-0.424,0.051-0.857-0.023-1.267
			c-0.129-0.709-0.465-0.935-1.174-0.917c-0.332,0.005-0.663,0.046-0.986,0.018c-0.737-0.055-1.059-0.484-0.838-1.174
			c0.002-0.005,0.004-0.01,0.005-0.015c0.055-0.054,0.113-0.105,0.165-0.162c0.671-0.74,1.18-1.59,1.636-2.472
			c0.304-0.589,0.57-1.195,0.784-1.823c0.149-0.437,0.273-0.881,0.34-1.339c0.084-0.57,0.04-1.129-0.128-1.677
			c-0.27-0.88-0.814-1.545-1.618-1.992c-0.623-0.346-1.298-0.487-2.025-0.492c-0.696,0.003-1.378,0.144-2.009,0.492
			c-0.641,0.353-1.126,0.855-1.436,1.518c-0.347,0.741-0.431,1.519-0.286,2.322c0.1,0.556,0.273,1.092,0.477,1.617
			c0.272,0.699,0.597,1.374,0.971,2.024c0.362,0.63,0.757,1.238,1.245,1.779c0.044,0.049,0.092,0.092,0.137,0.138
			c0.041,0.191,0.06,0.392,0.046,0.608c-0.014,0.18-0.193,0.465-0.341,0.502c-0.442,0.097-0.912,0.138-1.368,0.129
			c-0.907-0.018-1.253,0.299-1.322,1.216c-0.023,0.332-0.111,0.677-0.253,0.981c-0.465,1.018-0.737,2.063-0.682,3.196
			c0.014,0.304-0.069,0.659-0.221,0.926c-0.392,0.668-0.511,1.354-0.392,2.114c0.083,0.493,0.217,1.009,0.152,1.492
			c-0.12,0.889-0.373,1.759-0.557,2.639c-0.074,0.359-0.318,0.765,0.134,1.018c0.037,0.023,0.368-0.465,0.548-0.723
			c0.17-0.244,0.313-0.507,0.47-0.755c0.189,0.193,0.368,0.405,0.571,0.585c0.097,0.092,0.267,0.212,0.355,0.184
			c0.106-0.041,0.244-0.244,0.221-0.345c-0.106-0.456-0.18-0.958-0.428-1.336c-0.212-0.332-0.267-0.567-0.175-0.944
			c0.207-0.838,0.419-1.69,0.479-2.547c0.041-0.626,0.124-1.184,0.433-1.746c0.322-0.59,0.511-1.253,0.788-1.953
			c0.078,0.24,0.12,0.405,0.18,0.562c0.415,1.147,0.309,2.22-0.387,3.252c-0.216,0.322-0.359,0.746-0.387,1.133
			c-0.184,2.538-0.364,5.076-0.461,7.618c-0.037,1.032,0.097,2.082,0.235,3.114c0.143,1.032-0.345,1.626-1.165,2.105
			c-0.336,0.198-1.091,0.286-0.52,1.004c0.018,0.023-0.078,0.12-0.092,0.189c-0.028,0.157-0.106,0.391-0.037,0.461
			c0.115,0.115,0.355,0.189,0.511,0.152c0.253-0.06,0.484-0.221,0.723-0.345c0.659-0.341,1.308-0.7,1.981-1.018
			c0.442-0.207,0.378-0.502,0.184-0.801c-0.649-1.013-0.594-2.142-0.497-3.247c0.092-1.073,0.516-2.151,0.433-3.196
			c-0.138-1.773,0.649-3.353,0.695-5.016c0.719,0,1.363,0,2.054,0c0.06,0.332,0.129,0.705,0.193,1.082
			c0.18,1.041,0.391,2.082,0.534,3.132c0.129,0.949,0.18,1.911,0.285,2.865c0.175,1.529,0.47,3.058-0.387,4.509
			c-0.083,0.138,0.055,0.553,0.207,0.645c0.737,0.442,1.515,0.811,2.275,1.216c0.332,0.175,0.659,0.368,0.981,0
			C85.484,135.515,85.341,134.377,85.221,134.294z M80.972,107.642c0.34-0.744,0.914-1.22,1.695-1.449
			c0.114-0.034,0.238-0.044,0.358-0.045c0.128-0.002,0.178,0.051,0.16,0.177c-0.019,0.13-0.049,0.264-0.103,0.382
			c-0.343,0.75-0.879,1.319-1.627,1.675c-0.157,0.075-0.328,0.128-0.498,0.168c-0.16,0.037-0.186,0.003-0.18-0.212
			C80.788,108.125,80.864,107.878,80.972,107.642z M78.795,108.212c-0.621-0.393-1.079-0.926-1.351-1.611
			c-0.039-0.097-0.052-0.206-0.063-0.31c-0.009-0.086,0.029-0.123,0.115-0.138c0.16-0.027,0.314,0.008,0.464,0.056
			c0.612,0.193,1.1,0.552,1.453,1.092c0.195,0.298,0.374,0.797,0.379,1.084c0.003,0.171-0.025,0.198-0.195,0.168
			C79.305,108.5,79.043,108.369,78.795,108.212z"/>
	</g>
</g>
<g>
	<g>
		<path fill="#04967F" d="M98.136,124.284c-0.476-1.261-0.597-2.546-0.389-3.871c0.207-1.319,0.293-2.616-0.556-3.789
			c-0.12-0.165-0.144-0.441-0.125-0.658c0.128-1.466-0.228-2.829-0.799-4.163c-0.176-0.411-0.279-0.864-0.352-1.307
			c-0.161-0.971-0.38-1.798-1.817-1.628c-0.382,0.045-0.791,0.077-1.155-0.014c-0.341-0.086-0.81-0.27-0.924-0.538
			c-0.083-0.194-0.096-0.438-0.063-0.695c0.055-0.055,0.114-0.106,0.167-0.164c0.8-0.882,1.405-1.893,1.949-2.945
			c0.362-0.701,0.679-1.423,0.933-2.171c0.177-0.521,0.325-1.049,0.405-1.595c0.1-0.679,0.048-1.345-0.153-1.998
			c-0.322-1.048-0.969-1.84-1.927-2.372c-0.742-0.412-1.546-0.58-2.412-0.587c-0.829,0.003-1.641,0.171-2.393,0.585
			c-0.763,0.42-1.341,1.019-1.71,1.808c-0.413,0.883-0.513,1.809-0.34,2.766c0.12,0.662,0.325,1.3,0.568,1.926
			c0.324,0.833,0.711,1.636,1.157,2.41c0.431,0.75,0.901,1.474,1.483,2.119c0.074,0.082,0.154,0.156,0.231,0.233
			c0.107,0.662-0.262,1.158-1.033,1.232c-0.364,0.035-0.74,0.042-1.102-0.004c-1.211-0.154-1.73,0.325-1.846,1.77
			c-0.024,0.297-0.083,0.611-0.212,0.875c-0.682,1.399-1.035,2.857-0.951,4.422c0.016,0.303-0.074,0.664-0.24,0.914
			c-0.598,0.9-0.688,1.874-0.511,2.892c0.28,1.61,0.27,3.183-0.383,4.72c-0.161,0.38-0.232,0.815-0.256,1.23
			c-0.012,0.21,0.172,0.432,0.267,0.648c0.072-0.003,0.143-0.006,0.215-0.01c0.33-0.715,0.661-1.431,0.991-2.146
			c0.067-0.006,0.134-0.012,0.2-0.018c0.188,0.274,0.356,0.565,0.573,0.814c0.121,0.139,0.324,0.209,0.489,0.31
			c0.099-0.166,0.271-0.326,0.285-0.499c0.056-0.679-0.108-1.303-0.62-1.795c-0.259-0.249-0.343-0.504-0.205-0.877
			c0.527-1.424,0.835-2.888,0.675-4.422c-0.011-0.104,0.022-0.224,0.067-0.322c0.506-1.111,1.017-2.22,1.517-3.307
			c0.052,0.179,0.116,0.454,0.212,0.717c0.529,1.451,0.335,2.799-0.512,4.085c-0.207,0.314-0.368,0.696-0.423,1.066
			c-0.155,1.049-0.203,2.115-0.37,3.162c-0.29,1.82,0.053,3.65-0.183,5.485c-0.175,1.355,0.079,2.763,0.132,4.149
			c0.11,2.883,0.48,2.721-1.946,4.183c-0.547,0.33-0.56,0.53-0.198,0.876c-0.049,0.39-0.208,0.743-0.095,0.946
			c0.217,0.39,0.641,0.28,0.976,0.1c0.355-0.191,0.67-0.458,1.026-0.649c0.622-0.335,1.239-0.701,1.9-0.936
			c0.6-0.213,0.778-0.496,0.453-1.067c-0.16-0.282-0.426-0.561-0.447-0.855c-0.089-1.265-0.187-2.539-0.124-3.802
			c0.058-1.149,0.458-2.287,0.457-3.43c-0.001-1.426,0.169-2.802,0.494-4.178c0.193-0.818,0.322-1.652,0.458-2.366
			c0.882,0,1.694,0,2.562,0c0.089,0.509,0.194,1.114,0.301,1.719c0.212,1.194,0.58,2.385,0.598,3.581
			c0.021,1.423,0.258,2.797,0.448,4.191c0.244,1.795,0.477,3.605-0.582,5.279c-0.276,0.436-0.042,0.744,0.438,0.915
			c0.591,0.21,1.165,0.479,1.72,0.774c0.423,0.225,0.791,0.554,1.207,0.795c0.346,0.199,0.793,0.331,1.04-0.058
			c0.126-0.198-0.046-0.585-0.094-0.974c0.366-0.328,0.346-0.54-0.174-0.857c-0.461-0.282-0.947-0.542-1.349-0.895
			c-0.284-0.25-0.605-0.629-0.631-0.971c-0.064-0.862,0.026-1.736,0.061-2.605c0.05-1.232,0.139-2.463,0.145-3.695
			c0.003-0.687-0.154-1.372-0.194-2.061c-0.123-2.138-0.185-4.281-0.361-6.414c-0.048-0.582-0.341-1.184-0.653-1.697
			c-0.932-1.533-0.74-3.046-0.095-4.496c0.409,0.926,0.849,1.901,1.267,2.884c0.124,0.291,0.277,0.611,0.267,0.912
			c-0.049,1.449,0.167,2.847,0.688,4.198c0.14,0.363,0.1,0.658-0.208,0.935c-0.495,0.445-0.643,1.052-0.617,1.685
			c0.009,0.206,0.206,0.403,0.317,0.604c0.17-0.13,0.362-0.239,0.503-0.395c0.209-0.23,0.382-0.492,0.669-0.872
			c0.416,0.882,0.755,1.602,1.094,2.322c0.079-0.013,0.158-0.025,0.237-0.038c0.078-0.216,0.241-0.442,0.215-0.645
			C98.409,125.204,98.303,124.728,98.136,124.284z M91.746,103.595c0.405-0.886,1.089-1.453,2.018-1.726
			c0.136-0.04,0.284-0.052,0.426-0.054c0.152-0.002,0.212,0.061,0.19,0.211c-0.022,0.155-0.058,0.314-0.123,0.455
			c-0.409,0.893-1.047,1.57-1.937,1.995c-0.188,0.089-0.391,0.153-0.594,0.2c-0.191,0.045-0.221,0.004-0.215-0.253
			C91.527,104.17,91.618,103.876,91.746,103.595z M89.154,104.274c-0.74-0.468-1.285-1.103-1.609-1.918
			c-0.046-0.115-0.062-0.245-0.075-0.37c-0.011-0.102,0.035-0.147,0.137-0.164c0.19-0.032,0.373,0.01,0.552,0.066
			c0.729,0.23,1.31,0.657,1.731,1.3c0.232,0.354,0.446,0.949,0.452,1.291c0.003,0.204-0.03,0.236-0.232,0.2
			C89.761,104.616,89.449,104.46,89.154,104.274z"/>
	</g>
</g>
<g>
	<g>
		<path fill="#04967F" d="M107.357,124.783c-0.184-0.88-0.438-1.75-0.557-2.639c-0.064-0.484,0.069-0.999,0.152-1.492
			c0.12-0.76,0-1.446-0.392-2.114c-0.152-0.267-0.235-0.622-0.221-0.926c0.055-1.133-0.216-2.179-0.682-3.196
			c-0.143-0.304-0.23-0.649-0.253-0.981c-0.069-0.917-0.415-1.234-1.322-1.216c-0.456,0.009-0.926-0.032-1.368-0.129
			c-0.147-0.037-0.327-0.322-0.341-0.502c-0.014-0.216,0.005-0.417,0.046-0.608c0.045-0.047,0.094-0.09,0.137-0.138
			c0.488-0.542,0.883-1.15,1.245-1.779c0.374-0.65,0.7-1.325,0.971-2.024c0.204-0.525,0.377-1.061,0.477-1.617
			c0.145-0.803,0.061-1.581-0.286-2.322c-0.31-0.662-0.796-1.165-1.436-1.518c-0.631-0.348-1.313-0.489-2.009-0.492
			c-0.727,0.006-1.403,0.146-2.025,0.492c-0.804,0.447-1.347,1.111-1.618,1.992c-0.168,0.548-0.213,1.107-0.129,1.677
			c0.068,0.459,0.192,0.902,0.34,1.339c0.213,0.628,0.479,1.234,0.784,1.823c0.456,0.883,0.965,1.732,1.636,2.472
			c0.052,0.057,0.11,0.108,0.165,0.162c0.002,0.005,0.004,0.01,0.005,0.015c0.221,0.691-0.101,1.119-0.838,1.174
			c-0.322,0.028-0.654-0.014-0.986-0.018c-0.709-0.018-1.046,0.207-1.174,0.917c-0.074,0.41-0.028,0.843-0.023,1.267
			c0,0.157,0.074,0.313,0.051,0.461c-0.157,1.05,0.235,1.953,0.783,2.883c0.189-0.502,0.364-0.972,0.548-1.469
			c0.599,1.322,0.576,2.529-0.18,3.804c-0.695,1.174-0.64,2.496-0.184,3.8c0.207,0.594,0.355,1.216,0.442,1.838
			c0.074,0.516-0.184,0.912-0.659,1.184c-0.17,0.097-0.359,0.341-0.364,0.52c-0.023,0.963-0.014,1.925,0.023,2.888
			c0.018,0.576,0.092,1.156,0.166,1.727c0.106,0.815-0.221,1.382-0.917,1.778c-0.184,0.106-0.359,0.221-0.539,0.332
			c-0.083,0.051-0.175,0.092-0.253,0.147c-0.12,0.083-0.263,1.221-0.152,1.34c0.322,0.368,0.649,0.175,0.981,0
			c0.76-0.405,1.538-0.774,2.275-1.216c0.152-0.092,0.29-0.507,0.207-0.645c-0.857-1.451-0.562-2.98-0.387-4.509
			c0.106-0.953,0.156-1.916,0.286-2.865c0.143-1.05,0.355-2.091,0.534-3.132c0.064-0.378,0.134-0.751,0.193-1.082
			c0.691,0,1.336,0,2.054,0c0.046,1.663,0.834,3.242,0.695,5.016c-0.083,1.045,0.341,2.123,0.433,3.196
			c0.097,1.105,0.152,2.234-0.497,3.247c-0.193,0.299-0.258,0.594,0.184,0.801c0.672,0.318,1.322,0.677,1.98,1.018
			c0.239,0.124,0.47,0.286,0.723,0.345c0.157,0.037,0.396-0.037,0.511-0.152c0.069-0.069-0.009-0.304-0.037-0.461
			c-0.014-0.069-0.11-0.166-0.092-0.189c0.571-0.719-0.184-0.806-0.52-1.004c-0.82-0.479-1.308-1.073-1.165-2.105
			c0.138-1.032,0.272-2.082,0.235-3.114c-0.097-2.542-0.276-5.08-0.461-7.618c-0.028-0.387-0.17-0.811-0.387-1.133
			c-0.695-1.032-0.801-2.105-0.387-3.252c0.06-0.157,0.101-0.322,0.18-0.562c0.276,0.7,0.465,1.363,0.788,1.953
			c0.309,0.562,0.392,1.119,0.433,1.746c0.06,0.857,0.272,1.709,0.479,2.547c0.092,0.378,0.037,0.613-0.175,0.944
			c-0.249,0.378-0.322,0.88-0.428,1.336c-0.023,0.101,0.115,0.304,0.221,0.345c0.088,0.028,0.258-0.092,0.355-0.184
			c0.203-0.18,0.382-0.392,0.571-0.585c0.157,0.249,0.299,0.511,0.47,0.755c0.18,0.258,0.511,0.746,0.548,0.723
			C107.675,125.548,107.431,125.142,107.357,124.783z M102.382,107.301c0.353-0.54,0.841-0.899,1.453-1.092
			c0.15-0.047,0.304-0.082,0.464-0.056c0.086,0.014,0.124,0.052,0.115,0.138c-0.011,0.105-0.024,0.214-0.063,0.31
			c-0.272,0.685-0.73,1.218-1.351,1.611c-0.248,0.157-0.51,0.288-0.803,0.34c-0.169,0.03-0.198,0.003-0.195-0.168
			C102.008,108.098,102.187,107.598,102.382,107.301z M100.341,108.382c-0.748-0.356-1.284-0.925-1.627-1.675
			c-0.054-0.119-0.084-0.252-0.103-0.382c-0.018-0.126,0.032-0.179,0.16-0.177c0.12,0.002,0.244,0.012,0.358,0.045
			c0.78,0.229,1.354,0.705,1.694,1.449c0.108,0.236,0.184,0.483,0.196,0.696c0.006,0.215-0.02,0.25-0.18,0.212
			C100.669,108.51,100.499,108.457,100.341,108.382z"/>
	</g>
</g>
<g>
	<g>
		<path fill="#04967F" d="M115.295,124.67c-0.157-0.748-0.372-1.488-0.474-2.243c-0.055-0.411,0.059-0.85,0.129-1.268
			c0.102-0.646,0-1.229-0.333-1.797c-0.129-0.227-0.2-0.529-0.188-0.787c0.047-0.963-0.184-1.852-0.579-2.717
			c-0.121-0.258-0.196-0.552-0.215-0.834c-0.059-0.779-0.352-1.049-1.124-1.034c-0.388,0.008-0.787-0.027-1.163-0.11
			c-0.125-0.031-0.278-0.274-0.29-0.427c-0.016-0.235,0.004-0.454,0.067-0.654c0.001-0.004,0.003-0.007,0.004-0.01
			c0.028-0.029,0.058-0.056,0.085-0.086c0.415-0.46,0.75-0.977,1.058-1.512c0.318-0.553,0.595-1.126,0.826-1.72
			c0.174-0.447,0.32-0.902,0.406-1.374c0.123-0.683,0.052-1.344-0.243-1.974c-0.263-0.563-0.676-0.99-1.221-1.29
			c-0.537-0.296-1.116-0.416-1.708-0.418c-0.618,0.005-1.192,0.124-1.722,0.419c-0.683,0.38-1.145,0.945-1.375,1.693
			c-0.143,0.466-0.181,0.941-0.109,1.426c0.057,0.39,0.163,0.767,0.289,1.138c0.181,0.534,0.408,1.049,0.666,1.549
			c0.388,0.75,0.82,1.472,1.391,2.101c0.025,0.027,0.053,0.05,0.078,0.077c0.001,0.003,0.003,0.006,0.004,0.009v0.004
			c0.024,0.059,0.043,0.117,0.063,0.176c0.188,0.587-0.086,0.951-0.713,0.998c-0.274,0.023-0.556-0.012-0.838-0.016
			c-0.603-0.016-0.889,0.176-0.998,0.779c-0.063,0.348-0.023,0.716-0.02,1.077c0,0.133,0.063,0.266,0.043,0.392
			c-0.133,0.893,0.2,1.66,0.666,2.451c0.16-0.427,0.309-0.826,0.466-1.249c0.509,1.124,0.489,2.149-0.153,3.234
			c-0.591,0.998-0.544,2.122-0.157,3.23c0.176,0.505,0.301,1.034,0.376,1.562c0.063,0.438-0.157,0.775-0.56,1.006
			c-0.145,0.082-0.305,0.29-0.309,0.442c-0.02,0.818-0.012,1.636,0.02,2.455c0.016,0.489,0.078,0.983,0.141,1.468
			c0.09,0.693-0.188,1.174-0.779,1.511c-0.157,0.09-0.305,0.188-0.458,0.282c-0.071,0.043-0.149,0.078-0.215,0.125
			c-0.102,0.07-0.223,1.038-0.129,1.139c0.274,0.313,0.552,0.149,0.834,0c0.646-0.345,1.308-0.658,1.934-1.034
			c0.129-0.078,0.247-0.431,0.176-0.548c-0.728-1.233-0.478-2.533-0.329-3.833c0.09-0.81,0.133-1.629,0.243-2.435
			c0.121-0.893,0.301-1.777,0.454-2.662c0.055-0.321,0.114-0.638,0.164-0.92c0.587,0,1.135,0,1.746,0
			c0.039,1.413,0.709,2.756,0.591,4.263c-0.07,0.889,0.29,1.805,0.368,2.717c0.082,0.94,0.129,1.899-0.423,2.76
			c-0.164,0.254-0.219,0.505,0.157,0.681c0.572,0.27,1.124,0.576,1.683,0.865c0.204,0.106,0.399,0.243,0.615,0.294
			c0.133,0.031,0.337-0.031,0.435-0.129c0.059-0.059-0.008-0.258-0.031-0.391c-0.012-0.059-0.094-0.141-0.078-0.161
			c0.485-0.611-0.157-0.685-0.442-0.853c-0.697-0.407-1.112-0.912-0.99-1.789c0.117-0.877,0.231-1.77,0.2-2.647
			c-0.082-2.161-0.235-4.318-0.391-6.475c-0.024-0.329-0.145-0.689-0.329-0.963c-0.591-0.877-0.681-1.789-0.329-2.764
			c0.051-0.133,0.086-0.274,0.153-0.478c0.235,0.595,0.395,1.159,0.669,1.66c0.262,0.478,0.333,0.951,0.368,1.484
			c0.051,0.728,0.231,1.452,0.407,2.165c0.078,0.321,0.031,0.521-0.149,0.803c-0.211,0.321-0.274,0.748-0.364,1.135
			c-0.02,0.086,0.098,0.258,0.188,0.294c0.074,0.024,0.219-0.078,0.301-0.157c0.172-0.153,0.325-0.333,0.485-0.497
			c0.133,0.211,0.254,0.435,0.399,0.642c0.153,0.219,0.435,0.634,0.466,0.615C115.565,125.32,115.358,124.975,115.295,124.67z
			 M109.755,110.756c-0.145-0.034-0.29-0.079-0.424-0.143c-0.636-0.303-1.091-0.786-1.383-1.424
			c-0.046-0.101-0.072-0.214-0.088-0.325c-0.015-0.107,0.028-0.152,0.136-0.151c0.102,0.001,0.207,0.01,0.304,0.038
			c0.663,0.195,1.151,0.599,1.44,1.232c0.092,0.201,0.157,0.41,0.167,0.591C109.913,110.758,109.891,110.788,109.755,110.756z
			 M110.744,110.615c0.004-0.244,0.157-0.668,0.322-0.921c0.3-0.459,0.715-0.764,1.235-0.928c0.128-0.04,0.258-0.07,0.394-0.047
			c0.073,0.012,0.106,0.044,0.098,0.117c-0.009,0.089-0.021,0.182-0.053,0.264c-0.232,0.582-0.62,1.036-1.148,1.369
			c-0.211,0.133-0.433,0.244-0.682,0.289C110.766,110.784,110.742,110.761,110.744,110.615z"/>
	</g>
</g>
<g>
	<g>
		<path fill="#04967F" d="M75.519,132.754c-0.067-0.047-0.145-0.082-0.215-0.125c-0.153-0.094-0.301-0.192-0.458-0.282
			c-0.591-0.337-0.869-0.818-0.779-1.511c0.063-0.485,0.125-0.979,0.141-1.468c0.031-0.818,0.039-1.636,0.02-2.455
			c-0.004-0.153-0.164-0.36-0.309-0.442c-0.403-0.231-0.622-0.568-0.56-1.006c0.074-0.529,0.2-1.057,0.376-1.562
			c0.388-1.108,0.435-2.232-0.157-3.23c-0.642-1.084-0.662-2.11-0.153-3.234c0.157,0.423,0.305,0.822,0.466,1.249
			c0.466-0.791,0.799-1.558,0.666-2.451c-0.02-0.125,0.043-0.258,0.043-0.392c0.004-0.36,0.043-0.728-0.02-1.077
			c-0.11-0.603-0.395-0.795-0.998-0.779c-0.282,0.004-0.564,0.039-0.838,0.016c-0.626-0.047-0.9-0.411-0.713-0.998
			c0.02-0.059,0.039-0.117,0.063-0.176v-0.004c0.001-0.003,0.003-0.006,0.004-0.009c0.025-0.026,0.054-0.05,0.078-0.077
			c0.571-0.629,1.003-1.351,1.391-2.101c0.259-0.5,0.485-1.016,0.666-1.549c0.126-0.372,0.232-0.749,0.289-1.138
			c0.071-0.484,0.034-0.96-0.109-1.426c-0.23-0.748-0.692-1.313-1.375-1.693c-0.529-0.294-1.104-0.414-1.722-0.419
			c-0.592,0.002-1.171,0.122-1.708,0.418c-0.544,0.3-0.957,0.727-1.221,1.29c-0.295,0.63-0.366,1.291-0.243,1.974
			c0.085,0.473,0.232,0.928,0.406,1.374c0.231,0.594,0.508,1.168,0.826,1.72c0.308,0.535,0.643,1.052,1.058,1.512
			c0.027,0.03,0.058,0.057,0.086,0.086c0.001,0.004,0.003,0.007,0.004,0.01c0.063,0.2,0.082,0.419,0.067,0.654
			c-0.012,0.153-0.164,0.395-0.29,0.427c-0.376,0.082-0.775,0.117-1.163,0.11c-0.771-0.016-1.065,0.254-1.123,1.034
			c-0.02,0.282-0.094,0.575-0.215,0.834c-0.395,0.865-0.626,1.754-0.579,2.717c0.012,0.258-0.059,0.56-0.188,0.787
			c-0.333,0.568-0.435,1.151-0.333,1.797c0.07,0.419,0.184,0.857,0.129,1.268c-0.102,0.756-0.317,1.496-0.474,2.243
			c-0.063,0.305-0.27,0.65,0.114,0.865c0.031,0.02,0.313-0.395,0.466-0.615c0.145-0.208,0.266-0.431,0.399-0.642
			c0.161,0.164,0.313,0.345,0.485,0.497c0.082,0.078,0.227,0.18,0.301,0.157c0.09-0.035,0.208-0.207,0.188-0.294
			c-0.09-0.388-0.153-0.814-0.364-1.135c-0.18-0.282-0.227-0.482-0.149-0.803c0.176-0.713,0.356-1.437,0.407-2.165
			c0.035-0.532,0.106-1.006,0.368-1.484c0.274-0.501,0.435-1.065,0.669-1.66c0.067,0.204,0.102,0.345,0.153,0.478
			c0.352,0.975,0.262,1.887-0.329,2.764c-0.184,0.274-0.305,0.634-0.329,0.963c-0.156,2.157-0.309,4.314-0.391,6.475
			c-0.031,0.877,0.082,1.77,0.2,2.647c0.121,0.877-0.294,1.382-0.99,1.789c-0.286,0.168-0.928,0.243-0.442,0.853
			c0.016,0.02-0.067,0.102-0.078,0.161c-0.023,0.133-0.09,0.333-0.031,0.391c0.098,0.098,0.301,0.16,0.435,0.129
			c0.215-0.051,0.411-0.188,0.615-0.294c0.56-0.29,1.112-0.595,1.683-0.865c0.376-0.176,0.321-0.427,0.157-0.681
			c-0.552-0.861-0.505-1.821-0.423-2.76c0.078-0.912,0.438-1.828,0.368-2.717c-0.118-1.507,0.552-2.85,0.591-4.263
			c0.611,0,1.159,0,1.746,0c0.051,0.282,0.11,0.599,0.164,0.92c0.153,0.885,0.333,1.77,0.454,2.662
			c0.11,0.806,0.153,1.625,0.243,2.435c0.149,1.3,0.399,2.6-0.329,3.833c-0.071,0.117,0.047,0.47,0.176,0.548
			c0.626,0.376,1.288,0.689,1.934,1.034c0.282,0.149,0.56,0.313,0.834,0C75.742,133.792,75.621,132.825,75.519,132.754z
			 M70.739,110.758c-0.249-0.045-0.471-0.156-0.682-0.289c-0.528-0.334-0.917-0.787-1.148-1.369
			c-0.033-0.082-0.044-0.175-0.053-0.264c-0.008-0.073,0.025-0.105,0.098-0.117c0.136-0.023,0.266,0.007,0.394,0.047
			c0.52,0.164,0.935,0.469,1.235,0.928c0.166,0.253,0.318,0.678,0.322,0.921C70.907,110.761,70.883,110.784,70.739,110.758z
			 M71.741,110.575c0.01-0.181,0.075-0.391,0.167-0.591c0.289-0.633,0.777-1.037,1.44-1.232c0.097-0.029,0.202-0.037,0.304-0.038
			c0.108-0.001,0.151,0.044,0.136,0.151c-0.016,0.11-0.041,0.224-0.088,0.325c-0.292,0.637-0.747,1.121-1.383,1.424
			c-0.134,0.064-0.279,0.109-0.424,0.143C71.758,110.788,71.736,110.758,71.741,110.575z"/>
	</g>
</g>
</svg>
