<?xml version="1.0" encoding="utf-8"?>
<!-- Generator: Adobe Illustrator 17.0.0, SVG Export Plug-In . SVG Version: 6.00 Build 0)  -->
<!DOCTYPE svg PUBLIC "-//W3C//DTD SVG 1.1//EN" "http://www.w3.org/Graphics/SVG/1.1/DTD/svg11.dtd">
<svg version="1.1" id="Layer_1" xmlns="http://www.w3.org/2000/svg" xmlns:xlink="http://www.w3.org/1999/xlink" x="0px" y="0px"
	 width="180px" height="128.145px" viewBox="0 25.927 180 128.145" enable-background="new 0 25.927 180 128.145"
	 xml:space="preserve">
<rect x="97.013" y="82.341" transform="matrix(-0.4388 0.8986 -0.8986 -0.4388 223.4148 33.7178)" fill="#818385" width="8.331" height="8.564"/>
<path fill="#4E4E50" d="M79.104,61.134c-0.008-2.899-3.073-5.247-6.854-5.247c-0.018,0-0.034,0.004-0.052,0.004h-37.56
	c-0.018,0-0.034-0.004-0.052-0.004c-3.786,0-6.856,2.354-6.856,5.258c0,0.013,0.005,0.025,0.005,0.038v47.938
	c0,0.013-0.005,0.025-0.005,0.038c0,2.904,3.069,5.258,6.856,5.258c0.027,0,0.052-0.006,0.079-0.006h37.587
	c3.788,0,6.86-2.344,6.86-5.249V61.139L79.104,61.134z"/>
<polygon fill="#DCDDDE" points="68.493,64.761 37.105,64.921 36.428,107.854 36.205,108.731 70.05,108.731 69.759,107.853 "/>
<path fill="#4E4E50" d="M71.789,51.022c-0.028-0.919-0.923-1.653-2.022-1.653c-1.113,0-2.009,0.734-2.037,1.653h-0.005v0.044v7.988
	v0.044h0.005c0.028,0.919,0.923,1.653,2.022,1.653c1.113,0,2.009-0.734,2.037-1.653h0.005v-0.044v-7.988v-0.044H71.789z"/>
<path fill="#4E4E50" d="M38.484,51.022c-0.028-0.919-0.923-1.653-2.022-1.653c-1.113,0-2.009,0.734-2.037,1.653h-0.005v0.044v7.988
	v0.044h0.005c0.028,0.919,0.923,1.653,2.022,1.653c1.113,0,2.009-0.734,2.037-1.653h0.005v-0.044v-7.988v-0.044H38.484z"/>
<path fill="#FAFAFA" d="M67.951,64.673H37.513c-0.799,0-1.446,0.538-1.446,1.202v40.778c0,0.664,0.648,1.202,1.446,1.202h30.438
	c0.799,0,1.446-0.538,1.446-1.202V65.874C69.397,65.211,68.75,64.673,67.951,64.673z"/>
<ellipse fill="#818385" cx="52.984" cy="57.183" rx="16.76" ry="13.924"/>
<ellipse fill="#FAFAFA" cx="52.984" cy="55.886" rx="16.76" ry="13.924"/>
<path fill="#4E4E50" d="M66.796,56.209c0,0.293-0.015,0.586-0.044,0.879c-0.544,5.932-6.495,10.595-13.768,10.595
	c-7.626,0-13.812-5.139-13.812-11.474c0-1.758,0.47-3.418,1.337-4.919c3.438-1.636,7.861-2.624,12.681-2.624
	c4.57,0,8.757,0.879,12.122,2.368c0.5,0.22,0.984,0.464,1.44,0.708v3.589C66.782,55.623,66.796,55.916,66.796,56.209z"/>
<path fill="#FAFAFA" d="M46.145,50.528c-1.52,0.511-2.876,1.317-3.962,2.331c-1.932,3.306-1.261,7.409,2.026,10.168
	c1.116,0.937,2.421,1.616,3.811,2.053c-0.902-0.392-1.73-0.914-2.474-1.538c-4.166-3.496-4.131-9.158,0.077-12.619
	C45.79,50.785,45.967,50.656,46.145,50.528z"/>
<path fill="#818385" d="M60.131,81.111H45.379c-1.029,0-1.837,0.684-1.837,1.526v6.335c0,0.842,0.823,1.526,1.837,1.526h14.752
	c1.014,0,1.837-0.684,1.837-1.526v-6.335C61.968,81.795,61.145,81.111,60.131,81.111z"/>
<path fill="#DCDDDE" d="M60.108,80.591H45.356c-1.029,0-1.837,0.684-1.837,1.526v6.335c0,0.842,0.823,1.526,1.837,1.526h14.752
	c1.014,0,1.837-0.684,1.837-1.526v-6.335C61.945,81.274,61.122,80.591,60.108,80.591z"/>
<path fill="#818385" d="M47.369,82.431c-0.948,0-1.717,0.639-1.717,1.427s0.769,1.427,1.717,1.427c0.948,0,1.717-0.639,1.717-1.427
	S48.317,82.431,47.369,82.431z M47.369,85.132c-0.847,0-1.534-0.57-1.534-1.274s0.687-1.274,1.534-1.274s1.534,0.57,1.534,1.274
	S48.216,85.132,47.369,85.132z"/>
<ellipse fill="#D62027" cx="47.369" cy="83.858" rx="1.235" ry="1.026"/>
<path fill="#818385" d="M51.52,82.431c-0.948,0-1.717,0.639-1.717,1.427s0.769,1.427,1.717,1.427s1.717-0.639,1.717-1.427
	S52.468,82.431,51.52,82.431z M51.52,85.132c-0.847,0-1.534-0.57-1.534-1.274s0.687-1.274,1.534-1.274s1.534,0.57,1.534,1.274
	S52.366,85.132,51.52,85.132z"/>
<ellipse fill="#818385" cx="51.52" cy="83.858" rx="1.235" ry="1.026"/>
<rect x="56.851" y="88.302" fill="#D62027" width="0" height="0"/>
<path fill="#D62027" d="M54.419,86.42L54.419,86.42c-0.145,0.001-0.263,0.098-0.263,0.219c0,0.002,0.001,0.004,0.001,0.006v0.691
	c0,0.002-0.001,0.004-0.001,0.006c0,0.12,0.117,0.218,0.262,0.218l0.001,0.001h6.234l0.001-0.001h0c0.145,0,0.263-0.098,0.263-0.218
	l0-0.001V86.64c0,0,0-0.001,0-0.001c0-0.121-0.118-0.219-0.263-0.219l0,0l0,0H54.419z"/>
<path fill="#D62027" d="M54.419,84.894L54.419,84.894c-0.145,0.001-0.263,0.098-0.263,0.219c0,0.002,0.001,0.004,0.001,0.006v0.691
	c0,0.002-0.001,0.004-0.001,0.006c0,0.12,0.117,0.218,0.262,0.218l0.001,0.001h6.234l0.001-0.001h0c0.145,0,0.263-0.098,0.263-0.218
	l0-0.001v-0.7c0,0,0-0.001,0-0.001c0-0.121-0.118-0.219-0.263-0.219l0,0l0,0H54.419z"/>
<path fill="#D62027" d="M54.419,83.369L54.419,83.369c-0.145,0.001-0.263,0.098-0.263,0.219c0,0.002,0.001,0.004,0.001,0.006v0.691
	c0,0.002-0.001,0.004-0.001,0.006c0,0.12,0.117,0.218,0.262,0.218l0.001,0.001h6.234l0.001-0.001h0c0.145,0,0.263-0.098,0.263-0.218
	l0-0.001v-0.7l0-0.001c0-0.121-0.118-0.219-0.263-0.219l0,0l0,0H54.419z"/>
<ellipse fill="#FAFAFA" cx="61.601" cy="54.233" rx="2.801" ry="2.327"/>
<ellipse fill="#FAFAFA" cx="58.801" cy="58.423" rx="1.855" ry="1.541"/>
<path fill="#818385" d="M73.004,65.655"/>
<path fill="#FAFAFA" d="M79.143,99.153"/>
<path fill="#818385" d="M55.931,99.92v-9.424H53.36v10.547c0,0.696,0.691,1.27,1.543,1.27l14.694,0l-0.061-2.393H55.931z"/>
<rect x="53.36" y="91.423" fill="#4E4E50" width="2.566" height="0.553"/>
<rect x="53.36" y="93.078" fill="#4E4E50" width="2.566" height="0.553"/>
<rect x="53.36" y="94.732" fill="#4E4E50" width="2.566" height="0.553"/>
<rect x="53.36" y="96.387" fill="#4E4E50" width="2.566" height="0.553"/>
<rect x="53.36" y="98.042" fill="#4E4E50" width="2.566" height="0.553"/>
<rect x="56.632" y="99.92" fill="#4E4E50" width="0.666" height="2.393"/>
<rect x="58.624" y="99.92" fill="#4E4E50" width="0.666" height="2.393"/>
<rect x="60.616" y="99.92" fill="#4E4E50" width="0.666" height="2.393"/>
<rect x="62.607" y="99.92" fill="#4E4E50" width="0.666" height="2.393"/>
<rect x="64.599" y="99.92" fill="#4E4E50" width="0.666" height="2.393"/>
<path fill="#FAFAFA" d="M67.246,69.634c0.916-1.875,2.936-2.785,4.493-2.024L99.159,81l-3.656,7.486L65.254,73.714L67.246,69.634z"
	/>
<rect x="71.974" y="71.8" transform="matrix(-0.4388 0.8986 -0.8986 -0.4388 176.3998 38.6229)" fill="#DCDDDE" width="8.332" height="5.188"/>
<rect x="70.748" y="73.233" transform="matrix(-0.4388 0.8986 -0.8986 -0.4388 174.099 38.8629)" fill="#D62027" width="8.332" height="1.125"/>
<rect x="72.325" y="74.003" transform="matrix(-0.4388 0.8986 -0.8986 -0.4388 177.0595 38.554)" fill="#D62027" width="8.332" height="1.125"/>
<path fill="#818385" d="M27.853,107.792h1.527h5.035h1.527l0.12-0.307c0-0.007,0-0.007,0-0.013v-8.243h-8.33v3.935v4.322
	c0,0,0,0,0,0.007L27.853,107.792z"/>
<path fill="#FAFAFA" d="M31.522,65.567c-2.086,0-3.791,1.416-3.791,3.149V99.23h8.331V65.567H31.522z"/>
<rect x="27.73" y="73.053" fill="#DCDDDE" width="8.332" height="5.188"/>
<rect x="27.73" y="73.72" fill="#D62027" width="8.332" height="1.125"/>
<rect x="27.73" y="75.475" fill="#D62027" width="8.332" height="1.125"/>
<path fill="#DCDDDE" d="M20.925,39.033l0.821,1.477c0.905,1.649,2.263,3.004,3.914,3.906l1.469,0.821l-1.469,0.82
	c-1.652,0.904-3.01,2.262-3.914,3.914l-0.821,1.469l-0.82-1.469c-0.901-1.651-2.257-3.009-3.906-3.914l-1.477-0.82l1.477-0.821
	c1.648-0.903,3.003-2.258,3.906-3.906L20.925,39.033z"/>
<path fill="#DCDDDE" d="M22.499,130.758l0.901-0.284c1.045-0.308,1.979-0.911,2.691-1.736l0.63-0.704l0.284,0.901
	c0.305,1.046,0.908,1.981,1.736,2.691l0.704,0.63l-0.901,0.284c-1.048,0.303-1.983,0.906-2.691,1.736l-0.63,0.703l-0.284-0.901
	c-0.305-1.046-0.908-1.982-1.736-2.691L22.499,130.758z"/>
<path fill="#DCDDDE" d="M0,108.073l1.617-0.491c1.803-0.537,3.414-1.578,4.643-3.002l1.112-1.263l0.492,1.609
	c0.535,1.805,1.576,3.419,3,4.651l1.262,1.112l-1.608,0.492c-1.804,0.533-3.417,1.571-4.65,2.992l-1.113,1.271l-0.491-1.617
	c-0.535-1.801-1.574-3.412-2.994-4.642L0,108.073z"/>
<path fill="#DCDDDE" d="M96.673,56.756l0.529,0.946c0.581,1.064,1.454,1.939,2.516,2.522l0.946,0.529l-0.946,0.529
	c-1.062,0.582-1.935,1.455-2.516,2.516l-0.529,0.946l-0.529-0.946c-0.583-1.062-1.458-1.936-2.522-2.516l-0.946-0.529l0.946-0.529
	c1.064-0.582,1.939-1.457,2.522-2.522L96.673,56.756z"/>
<rect x="36.205" y="108.731" fill="#FAFAFA" width="14.08" height="38.096"/>
<rect x="55.97" y="108.731" fill="#FAFAFA" width="14.08" height="38.096"/>
<rect x="64.414" y="114.638" fill="#DCDDDE" width="5.636" height="12.787"/>
<rect x="64.414" y="116.044" fill="#D62027" width="5.636" height="1.125"/>
<rect x="64.414" y="118.024" fill="#D62027" width="5.636" height="1.125"/>
<rect x="36.205" y="114.638" fill="#DCDDDE" width="5.636" height="12.787"/>
<rect x="36.205" y="116.044" fill="#D62027" width="5.636" height="1.125"/>
<rect x="36.205" y="118.024" fill="#D62027" width="5.636" height="1.125"/>
<path fill="#FAFAFA" d="M31.694,107.47l-0.002-4.309c0-0.194-0.12-0.363-0.271-0.363l-1.221,0.001l-0.002,0.003
	c-0.148,0.001-0.267,0.162-0.268,0.36l0,0v0c0,0.001,0,0.001,0,0.002s0,0.001,0,0.002l0.002,4.321c0,0.001,0,0.001,0,0.002
	s0,0.001,0,0.002l0,0l0,0c0.001,0.198,0.121,0.358,0.268,0.36l0.002,0.003l1.221-0.001l0.002-0.003c0,0,0.001,0,0.001,0
	c0.149,0,0.27-0.163,0.27-0.363C31.697,107.482,31.694,107.476,31.694,107.47z"/>
<path fill="#FAFAFA" d="M29.495,107.47l-0.002-4.309c0-0.194-0.12-0.363-0.271-0.363l-1.221,0.001l-0.002,0.003
	c-0.148,0.001-0.267,0.162-0.268,0.36l0,0v0c0,0.001,0,0.001,0,0.002s0,0.001,0,0.002l0.002,4.321c0,0.001,0,0.001,0,0.002
	s0,0.001,0,0.002l0,0l0,0c0.001,0.198,0.121,0.358,0.268,0.36l0.002,0.003l1.221-0.001l0.002-0.003c0,0,0.001,0,0.001,0
	c0.149,0,0.27-0.163,0.27-0.363C29.498,107.482,29.495,107.476,29.495,107.47z"/>
<path fill="#FAFAFA" d="M33.877,107.47l-0.002-4.309c0-0.194-0.12-0.363-0.271-0.363l-1.221,0.001l-0.002,0.003
	c-0.148,0.001-0.267,0.162-0.268,0.36l0,0v0c0,0.001,0,0.001,0,0.002s0,0.001,0,0.002l0.002,4.321c0,0.001,0,0.001,0,0.002
	s0,0.001,0,0.002l0,0l0,0c0.001,0.198,0.121,0.358,0.268,0.36l0.002,0.003l1.221-0.001l0.002-0.003c0,0,0.001,0,0.001,0
	c0.149,0,0.27-0.163,0.27-0.363C33.879,107.482,33.877,107.476,33.877,107.47z"/>
<path fill="#FAFAFA" d="M36.059,107.47l-0.002-4.309c0-0.194-0.12-0.363-0.271-0.363l-1.221,0.001l-0.002,0.003
	c-0.148,0.001-0.267,0.162-0.268,0.36l0,0v0c0,0.001,0,0.001,0,0.002s0,0.001,0,0.002l0.002,4.321c0,0.001,0,0.001,0,0.002
	c0,0.001,0,0.001,0,0.002l0,0l0,0c0.001,0.198,0.121,0.358,0.268,0.36l0.002,0.003l1.221-0.001l0.002-0.003c0,0,0.001,0,0.001,0
	c0.149,0,0.27-0.163,0.27-0.363C36.062,107.482,36.06,107.476,36.059,107.47z"/>
<rect x="69.397" y="67.353" fill="#FAFAFA" width="1.86" height="9.356"/>
<path fill="#818385" d="M50.283,146.936v7.136H30.749v-0.007c-0.013,0-0.027,0.007-0.04,0.007c-1.501,0-2.781-0.914-3.315-2.221
	c-0.173-0.42-0.267-0.88-0.267-1.361c0-1.974,1.601-3.581,3.581-3.581c0.093,0,0.18,0.02,0.273,0.027H50.283z"/>
<rect x="32.016" y="146.938" fill="#DCDDDE" width="8.378" height="1.829"/>
<path fill="#DCDDDE" d="M50.283,151.852v2.221H30.709c-0.567,0-1.094-0.127-1.567-0.36c-0.147-0.067-0.293-0.153-0.427-0.24
	c-0.587-0.393-1.047-0.96-1.32-1.621H50.283z"/>
<path fill="#818385" d="M29.142,151.852v1.861c-0.147-0.067-0.293-0.153-0.427-0.24v-1.621H29.142z"/>
<rect x="30.903" y="151.852" fill="#818385" width="0.433" height="2.221"/>
<rect x="33.404" y="151.852" fill="#818385" width="0.433" height="2.221"/>
<rect x="35.904" y="151.852" fill="#818385" width="0.433" height="2.221"/>
<rect x="38.405" y="151.852" fill="#818385" width="0.433" height="2.221"/>
<rect x="40.906" y="151.852" fill="#818385" width="0.433" height="2.221"/>
<rect x="43.407" y="151.852" fill="#818385" width="0.433" height="2.221"/>
<rect x="45.908" y="151.852" fill="#818385" width="0.433" height="2.221"/>
<path fill="#818385" d="M55.962,146.936v7.136h19.534v-0.007c0.013,0,0.027,0.007,0.04,0.007c1.501,0,2.781-0.914,3.315-2.221
	c0.173-0.42,0.267-0.88,0.267-1.361c0-1.974-1.601-3.581-3.581-3.581c-0.093,0-0.18,0.02-0.273,0.027H55.962z"/>
<rect x="65.852" y="146.938" fill="#DCDDDE" width="8.378" height="1.829"/>
<path fill="#DCDDDE" d="M55.962,151.852v2.221h19.574c0.567,0,1.094-0.127,1.567-0.36c0.147-0.067,0.293-0.153,0.427-0.24
	c0.587-0.393,1.047-0.96,1.32-1.621H55.962z"/>
<path fill="#818385" d="M77.104,151.852v1.861c0.147-0.067,0.293-0.153,0.427-0.24v-1.621H77.104z"/>
<rect x="74.91" y="151.852" fill="#818385" width="0.433" height="2.221"/>
<rect x="72.409" y="151.852" fill="#818385" width="0.433" height="2.221"/>
<rect x="69.908" y="151.852" fill="#818385" width="0.433" height="2.221"/>
<rect x="67.407" y="151.852" fill="#818385" width="0.433" height="2.221"/>
<rect x="64.906" y="151.852" fill="#818385" width="0.433" height="2.221"/>
<rect x="62.405" y="151.852" fill="#818385" width="0.433" height="2.221"/>
<rect x="59.904" y="151.852" fill="#818385" width="0.433" height="2.221"/>
<rect x="48.409" y="151.852" fill="#818385" width="0.433" height="2.221"/>
<rect x="103.394" y="19.35" transform="matrix(0.8924 0.4512 -0.4512 0.8924 49.6649 -37.9966)" fill="#DCDDDE" width="2.224" height="131.584"/>
<path fill="#FAFAFA" d="M101.383,86.94l3.871,1.893c0.174,0.085,0.274,0.267,0.207,0.402l-0.536,1.097l-0.004,0.001
	c-0.066,0.132-0.262,0.169-0.441,0.083l0,0l0,0c-0.001,0-0.001,0-0.002-0.001c-0.001,0-0.001-0.001-0.002-0.001l-3.881-1.898
	c-0.001,0-0.001,0-0.002-0.001s-0.001-0.001-0.002-0.001l0,0l0,0c-0.178-0.088-0.269-0.266-0.205-0.399l-0.002-0.003l0.536-1.097
	l0.003-0.001c0,0,0-0.001,0-0.001c0.066-0.134,0.265-0.172,0.445-0.084C101.374,86.932,101.378,86.937,101.383,86.94z"/>
<path fill="#FAFAFA" d="M100.259,88.781l3.871,1.893c0.174,0.085,0.274,0.267,0.207,0.402l-0.536,1.097l-0.004,0.001
	c-0.066,0.132-0.262,0.169-0.441,0.083l0,0l0,0c-0.001,0-0.001,0-0.002-0.001c-0.001,0-0.001-0.001-0.002-0.001l-3.881-1.898
	c-0.001,0-0.001,0-0.002-0.001c-0.001,0-0.001-0.001-0.002-0.001l0,0l0,0c-0.178-0.088-0.269-0.266-0.205-0.399l-0.002-0.003
	l0.536-1.097l0.003-0.001c0,0,0-0.001,0-0.001c0.066-0.134,0.265-0.172,0.445-0.084C100.249,88.773,100.253,88.777,100.259,88.781z"
	/>
<path fill="#FAFAFA" d="M102.341,84.979l3.871,1.893c0.174,0.085,0.274,0.267,0.207,0.402l-0.536,1.097l-0.004,0.001
	c-0.066,0.132-0.262,0.169-0.441,0.083l0,0l0,0c-0.001,0-0.001,0-0.002-0.001c-0.001,0-0.001-0.001-0.002-0.001l-3.881-1.898
	c-0.001,0-0.001,0-0.002-0.001c-0.001,0-0.001-0.001-0.002-0.001l0,0l0,0c-0.178-0.088-0.269-0.266-0.205-0.399l-0.002-0.003
	l0.536-1.097l0.003-0.001c0,0,0-0.001,0-0.001c0.066-0.134,0.265-0.172,0.445-0.084C102.332,84.971,102.336,84.976,102.341,84.979z"
	/>
<path fill="#FAFAFA" d="M103.299,83.017l3.871,1.893c0.174,0.085,0.274,0.267,0.207,0.402l-0.536,1.097l-0.004,0.001
	c-0.066,0.132-0.262,0.169-0.441,0.083l0,0l0,0c-0.001,0-0.001,0-0.002-0.001c-0.001,0-0.001-0.001-0.002-0.001l-3.881-1.898
	c-0.001,0-0.001,0-0.002-0.001c-0.001,0-0.001-0.001-0.002-0.001l0,0l0,0c-0.178-0.088-0.269-0.266-0.205-0.399l-0.002-0.003
	l0.536-1.097l0.003-0.001l0-0.001c0.066-0.134,0.265-0.172,0.445-0.084C103.29,83.01,103.293,83.014,103.299,83.017z"/>
<rect x="124.647" y="35.861" transform="matrix(0.8972 0.4417 -0.4417 0.8972 38.9839 -60.6474)" fill="#D62027" width="50.187" height="35.077"/>
</svg>
