<?xml version="1.0" encoding="utf-8"?>
<!-- Generator: Adobe Illustrator 17.0.0, SVG Export Plug-In . SVG Version: 6.00 Build 0)  -->
<!DOCTYPE svg PUBLIC "-//W3C//DTD SVG 1.1//EN" "http://www.w3.org/Graphics/SVG/1.1/DTD/svg11.dtd">
<svg version="1.1" id="Layer_1" xmlns="http://www.w3.org/2000/svg" xmlns:xlink="http://www.w3.org/1999/xlink" x="0px" y="0px"
	 width="86.219px" height="180px" viewBox="160.5 0 86.219 180" enable-background="new 160.5 0 86.219 180" xml:space="preserve">
<path fill="#F2F2F2" d="M225.401,57.475v2.374c-0.045,3.335-0.236,6.634-0.526,9.851c-1.242,13.494-4.45,25.728-7.35,34.601
	c-1.604,4.921-3.117,8.8-4.151,11.292c-0.834,2.003-1.35,3.108-1.359,3.127h-18.722c0,0-0.526-1.106-1.359-3.127
	c-5.12-12.343-22.031-58.834-3.725-95.89c3.444-7.006,8.156-13.667,14.446-19.703c6.28,6.036,10.993,12.688,14.446,19.693
	C223.081,31.782,225.302,44.887,225.401,57.475z"/>
<path fill="#DCDDDE" d="M225.387,57.475v2.374c-0.045,3.335-0.236,6.634-0.526,9.851c-1.242,13.494-4.45,25.728-7.35,34.601
	c-2.9,8.872-5.492,14.382-5.51,14.418h-5.012C230.1,39.73,202.641,0,202.641,0C219.787,16.458,225.224,37.6,225.387,57.475z"/>
<path fill="#DCDDDE" d="M179.887,57.475v2.374c0.045,3.335,0.236,6.634,0.526,9.851c1.242,13.494,4.45,25.728,7.35,34.601
	c2.9,8.872,5.492,14.382,5.51,14.418h5.012C175.174,39.73,202.633,0,202.633,0C185.487,16.458,180.05,37.6,179.887,57.475z"/>
<path fill="#D72027" d="M213.372,115.592c-0.834,2.003-1.35,3.108-1.359,3.127h-18.724c0,0-0.526-1.106-1.359-3.127H213.372z"/>
<g>
	<path fill="#D72027" d="M211.234,39.9c-0.136-0.154-0.281-0.308-0.426-0.453c-0.652-0.643-1.378-1.205-2.166-1.677
		c-0.181-0.118-0.372-0.227-0.571-0.317c-0.444-0.245-0.906-0.453-1.387-0.634c-0.217-0.072-0.435-0.154-0.662-0.217
		c-0.39-0.118-0.798-0.217-1.214-0.29c-0.254-0.054-0.507-0.091-0.761-0.118c-0.453-0.063-0.924-0.091-1.396-0.091
		c-6.425,0-11.627,5.211-11.627,11.627c0,0.471,0.027,0.942,0.091,1.396c0.027,0.254,0.063,0.507,0.118,0.761
		c0.072,0.417,0.172,0.825,0.29,1.214c0.063,0.227,0.136,0.444,0.227,0.662c0.172,0.48,0.381,0.952,0.616,1.396
		c0.1,0.19,0.208,0.381,0.326,0.562c0.471,0.788,1.033,1.513,1.677,2.166c0.145,0.154,0.29,0.29,0.444,0.435
		c2.066,1.885,4.821,3.036,7.839,3.036c6.416,0,11.627-5.202,11.627-11.627C214.279,44.712,213.129,41.957,211.234,39.9z
		 M202.652,57.662c-2.547,0-4.867-0.961-6.634-2.547c-0.154-0.136-0.308-0.281-0.453-0.426c-0.634-0.653-1.187-1.396-1.64-2.202
		c-0.1-0.199-0.199-0.398-0.289-0.599l-0.001,0.001c-0.217-0.471-0.399-0.961-0.544-1.468c-0.063-0.235-0.127-0.48-0.172-0.717l0,0
		c-0.091-0.435-0.145-0.869-0.181-1.322c-0.009-0.217-0.018-0.435-0.018-0.653v-0.207c0.109-5.311,4.404-9.597,9.715-9.715h0.217
		c0.217,0,0.435,0.009,0.643,0.018c0.453,0.036,0.897,0.091,1.323,0.181c0.245,0.045,0.48,0.1,0.707,0.172
		c0.507,0.136,1.006,0.317,1.477,0.544c0.199,0.091,0.399,0.19,0.598,0.29c0.807,0.444,1.55,0.997,2.202,1.64
		c0.154,0.145,0.299,0.29,0.426,0.453c1.586,1.758,2.547,4.078,2.547,6.625C212.576,53.212,208.135,57.662,202.652,57.662z"/>
	<path fill="#D72027" d="M194.161,46.08l6.833-6.833C197.55,39.918,194.831,42.636,194.161,46.08z"/>
	<path fill="#D72027" d="M202.652,39.093c-0.217,0-0.435,0.009-0.652,0.027l-7.966,7.966c-0.018,0.208-0.027,0.426-0.027,0.643
		c0,0.281,0.018,0.562,0.045,0.843l9.434-9.434C203.214,39.111,202.933,39.093,202.652,39.093z"/>
	<path fill="#D72027" d="M204.266,39.246h-0.009l-10.096,10.105c0.1,0.544,0.254,1.061,0.453,1.559l11.21-11.21
		C205.326,39.501,204.809,39.347,204.266,39.246z"/>
	<path fill="#D72027" d="M206.441,39.972l-11.555,11.555c0.408,0.833,0.943,1.594,1.595,2.247l12.216-12.216
		C208.035,40.915,207.274,40.38,206.441,39.972z"/>
	<path fill="#D72027" d="M209.123,42.012l-12.189,12.189c1.522,1.35,3.525,2.166,5.718,2.166c4.767,0,8.637-3.861,8.637-8.637
		C211.289,45.536,210.473,43.534,209.123,42.012z"/>
</g>
<path fill="#F26322" d="M202.651,157.57c0,0-7.079-12.401-9.907-38.851h-1.151c0,41.946,11.058,61.281,11.058,61.281
	s11.058-19.335,11.058-61.281h-1.151C209.73,145.169,202.651,157.57,202.651,157.57z"/>
<path fill="#FCB533" d="M202.652,135.018c0,0-3.013-5.283-5.894-16.299h-4.014c2.828,26.451,9.907,38.851,9.907,38.851
	s7.079-12.401,9.907-38.851h-4.014C205.666,129.735,202.652,135.018,202.652,135.018z"/>
<g>
	<path fill="#D72027" d="M217.083,19.693c-3.652,3.788-8.773,6.135-14.446,6.135c-5.664,0-10.793-2.347-14.446-6.126
		c3.445-7.005,8.157-13.666,14.447-19.702C208.918,6.036,213.63,12.688,217.083,19.693z"/>
	<path fill="#D72027" d="M246.719,102.277c0-12.351-8.291-22.762-19.613-25.974c-0.001,0-0.001,0-0.002-0.001
		c-0.955-0.279-1.927-0.495-2.927-0.657c-0.001,0-0.002,0-0.003-0.001l0.002,0.006c-3.289,24.192-12.142,43.003-12.173,43.069h1.718
		c2.438-4.522,7.214-7.594,12.715-7.594c5.492,0,10.268,3.072,12.706,7.594h1.973l0.002,0.004c0.001-0.001,0.002-0.003,0.003-0.004
		h0.151l-0.045-0.134C244.672,114.057,246.719,108.401,246.719,102.277z"/>
	<path fill="#D72027" d="M181.643,79.209c-0.169-1.047-0.325-2.109-0.474-3.178c-0.354,0.086-0.708,0.17-1.056,0.272
		c-0.735,0.208-1.456,0.45-2.164,0.718c-10.198,3.857-17.449,13.707-17.449,25.256c0,5.307,1.542,10.259,4.193,14.433
		c0.409,0.644,0.84,1.273,1.301,1.878c0.026,0.044,0.062,0.087,0.105,0.131h0.005h0.048c2.438-4.522,7.214-7.594,12.706-7.594
		c5.501,0,10.277,3.072,12.715,7.594h1.718C193.261,118.657,185.261,101.663,181.643,79.209z"/>
</g>
</svg>
