<?xml version="1.0" encoding="utf-8"?>
<!-- Generator: Adobe Illustrator 25.2.1, SVG Export Plug-In . SVG Version: 6.00 Build 0)  -->
<svg version="1.1" id="Layer_1" xmlns="http://www.w3.org/2000/svg" xmlns:xlink="http://www.w3.org/1999/xlink" x="0px" y="0px"
	 viewBox="0 0 180 244.1" style="enable-background:new 0 0 180 244.1;" xml:space="preserve">
<style type="text/css">
	.st0{fill:#DEDFE0;}
	.st1{fill:#FDC214;}
	.st2{fill:#EA1C71;}
	.st3{fill:#F2D9AE;}
	.st4{fill:#424143;}
	.st5{fill:#BABCBE;}
	.st6{fill:#1CBFD3;}
	.st7{fill:#FFFFFF;}
	.st8{fill:#878787;}
	.st9{fill:none;stroke:#1CBFD3;stroke-linecap:square;stroke-miterlimit:10;}
	.st10{fill:none;stroke:#1CBFD3;stroke-linecap:square;stroke-miterlimit:10;stroke-dasharray:6.03,6.03;}
	.st11{fill:#F8E7CD;}
	.st12{fill:none;stroke:#FDC214;stroke-linecap:round;stroke-miterlimit:10;}
</style>
<g>
	
		<ellipse transform="matrix(0.7071 -0.7071 0.7071 0.7071 -37.4637 87.8196)" class="st6" cx="87.3" cy="89.1" rx="73.9" ry="73.9"/>
	<path class="st2" d="M80,41.6c-2.9-0.2-5.8,0.3-8.4,1.4c-12.3,5-17.9,19.3-12.3,31.3c3.2,6.8,9.8,11.9,17.1,13.2
		c5.4,1,12,0.6,15.1,5.1c1.8,2.7,1.7,6.3,0.6,9.4c-1,3.1-2.8,5.9-4,8.9c-3.9,9.8-1.7,20.8,0.6,31c0.3,1.2,0.6,2.6,1.5,3.4
		c1.4,1.3,3.7,1,5.5,0.4c9.7-3.4,15.3-13.4,23.5-19.7c3.6-2.8,7.9-5.1,10.3-9c2.4-3.9,2.5-9.1,5.4-12.6c3-3.6,8.4-4.9,10.8-9
		c0.3-0.4,0.5-1,0.4-1.5c-0.1-0.7-0.6-1.3-1.2-1.8c-5.8-5.5-9.8-12.8-11.5-20.7c-0.8-3.8-1.3-8.2-4.6-10.2c-3-1.9-6.9-0.9-10.5-0.5
		c-6.4,0.6-13-1.3-18-5.3c-4.9-3.9-8.4-9.6-14-12.4C84.3,42.2,82.2,41.7,80,41.6z"/>
	<path class="st2" d="M97.1,153c0,0,0.2-1.4,4.3-5.2c4-3.8,7.6-4.3,7.1,1.2C107.9,154.6,96,158.2,97.1,153z"/>
	<path class="st1" d="M180,90.8c0-19.4-5.5-38.2-16-54.4C153.8,20.6,139.4,8,122.4,0l-2.9,6.1c2.6,1.2,5.1,2.6,7.5,4l-5.2,9
		C110.3,12.8,97,9.3,83,9.3c-45.8,0-83,37.2-83,83c0,29.6,15.6,55.6,39,70.3l-5.6,9.7c-2.1-1.2-4.2-2.5-6.2-3.8l-3.8,5.6
		c15.5,10.5,33.5,16.3,52.1,17.1v31.2c-25.9,0.4-46.1,4-46.1,8.2v5.3c0,4.6,23,8.3,51.3,8.3c28.4,0,51.3-3.7,51.3-8.3v-5.3
		c0-4.3-20.2-7.8-46.1-8.2V191C138.5,187.6,180,144,180,90.8z M3.1,92.3c0-44.1,35.9-79.9,79.9-79.9c44.1,0,79.9,35.9,79.9,79.9
		c0,44.1-35.9,79.9-79.9,79.9C38.9,172.3,3.1,136.4,3.1,92.3z M44.2,165.7c11.6,6.1,24.8,9.6,38.8,9.6c45.8,0,83-37.2,83-83
		c0-29.5-15.5-55.5-38.8-70.2l5.1-8.8c25.3,17.3,41.1,46.3,41.1,77.5c0,51.6-42,93.7-93.7,93.7c-14.3,0-28.2-3.2-40.8-9.4
		L44.2,165.7z"/>
	<path class="st2" d="M102.3,14.5c-2.8-0.6-5.7-0.8-8.6-0.7c-3.9,0.2-7.9,1.4-11.2,3.5c-1.5,1-3.5,2.3-3.7,4.3
		c-0.2,2.1,1,4.1,2.3,5.7c1.7,2.2,3.8,4.3,6.3,5.6c2.5,1.3,5.6,1.7,8.2,0.7c4.3-1.8,6.8-7.2,11.5-7.7c2.6-0.3,5.1,1.1,7.3,2.5
		c4.7,3.1,9.1,6.7,13.1,10.7c1.6,1.6,3.2,3.3,3.8,5.5c0.7,2.5-0.1,5.2,0.3,7.8c0.7,4,4.3,6.8,7,9.7c4.7,4.9,7.7,11.2,9.9,17.6
		c1.3,3.9,2.4,7.9,4.5,11.4c2.2,3.5,5.7,6.4,9.8,6.6c1.3-17.3-3.3-35.1-12.9-49.6s-24-25.8-40.4-31.5
		C107.3,15.7,104.8,15,102.3,14.5z"/>
</g>
</svg>
