<?xml version="1.0" encoding="utf-8"?>
<!-- Generator: Adobe Illustrator 25.2.1, SVG Export Plug-In . SVG Version: 6.00 Build 0)  -->
<svg version="1.1" id="Layer_1" xmlns="http://www.w3.org/2000/svg" xmlns:xlink="http://www.w3.org/1999/xlink" x="0px" y="0px"
	 viewBox="0 0 180 185.7" style="enable-background:new 0 0 180 185.7;" xml:space="preserve">
<style type="text/css">
	.st0{fill:#DEDFE0;}
	.st1{fill:#FDC214;}
	.st2{fill:#EA1C71;}
	.st3{fill:#F2D9AE;}
	.st4{fill:#424143;}
	.st5{fill:#BABCBE;}
	.st6{fill:#1CBFD3;}
	.st7{fill:#FFFFFF;}
	.st8{fill:#878787;}
	.st9{fill:none;stroke:#1CBFD3;stroke-linecap:square;stroke-miterlimit:10;}
	.st10{fill:none;stroke:#1CBFD3;stroke-linecap:square;stroke-miterlimit:10;stroke-dasharray:6.03,6.03;}
	.st11{fill:#F8E7CD;}
	.st12{fill:none;stroke:#FDC214;stroke-linecap:round;stroke-miterlimit:10;}
</style>
<g>
	<ellipse transform="matrix(0.7071 -0.7071 0.7071 0.7071 -43.9686 92.07)" class="st0" cx="89.2" cy="99.1" rx="73.5" ry="73.5"/>
	<path class="st1" d="M31.3,163.2c-0.2,0.2-0.3,0.3-0.5,0.5l-3,3.6c-2.8,3.3-2.3,8.3,1,11.1c3.3,2.8,8.3,2.3,11.1-1l3-3.6
		c0.3-0.4,0.6-0.8,0.8-1.2C39.3,169.9,35.1,166.7,31.3,163.2z"/>
	<path class="st1" d="M148.4,163.8c-0.3-0.3-0.6-0.7-0.9-0.9c-3.8,3.5-7.8,6.6-12.1,9.4c0.3,0.6,0.6,1.1,1,1.6l3,3.6
		c2.8,3.3,7.7,3.8,11.1,1c3.3-2.8,3.8-7.7,1-11.1L148.4,163.8z"/>
	<g>
		<rect x="86.2" y="27.9" class="st8" width="3.6" height="10.4"/>
	</g>
	<g>
		<g>
			<line class="st2" x1="52.2" y1="38.1" x2="57.4" y2="47.1"/>
			<rect x="53" y="37.4" transform="matrix(0.866 -0.5 0.5 0.866 -13.9504 33.1206)" class="st2" width="3.6" height="10.4"/>
		</g>
	</g>
	<g>
		<g>
			<line class="st2" x1="26.3" y1="64.8" x2="35.3" y2="70"/>
			<rect x="29" y="62.2" transform="matrix(0.5 -0.866 0.866 0.5 -42.9826 60.3948)" class="st2" width="3.6" height="10.4"/>
		</g>
	</g>
	<g>
		<g>
			<rect x="17.2" y="99.1" class="st2" width="10.4" height="3.6"/>
		</g>
	</g>
	<g>
		<g>
			<line class="st2" x1="27.4" y1="136.7" x2="36.4" y2="131.6"/>
			<rect x="26.7" y="132.3" transform="matrix(0.866 -0.5 0.5 0.866 -62.7939 33.9327)" class="st2" width="10.4" height="3.6"/>
		</g>
	</g>
	<g>
		<g>
			<line class="st2" x1="54.2" y1="162.7" x2="59.3" y2="153.7"/>
			<rect x="51.6" y="156.4" transform="matrix(0.5 -0.866 0.866 0.5 -108.5958 128.2373)" class="st2" width="10.4" height="3.6"/>
		</g>
	</g>
	<g>
		<g>
			<rect x="88.5" y="161.4" class="st2" width="3.6" height="10.4"/>
		</g>
	</g>
	<g>
		<g>
			<line class="st2" x1="126.1" y1="161.5" x2="120.9" y2="152.6"/>
			<rect x="121.7" y="151.9" transform="matrix(0.866 -0.5 0.5 0.866 -61.9822 82.7811)" class="st2" width="3.6" height="10.4"/>
		</g>
	</g>
	<g>
		<g>
			<line class="st2" x1="152" y1="134.8" x2="143" y2="129.6"/>
			<rect x="145.7" y="127" transform="matrix(0.5 -0.866 0.866 0.5 -40.7586 193.8435)" class="st2" width="3.6" height="10.4"/>
		</g>
	</g>
	<g>
		<g>
			<rect x="150.7" y="96.9" class="st2" width="10.4" height="3.6"/>
		</g>
	</g>
	<g>
		<g>
			<line class="st2" x1="150.9" y1="62.9" x2="141.9" y2="68.1"/>
			<rect x="141.2" y="63.7" transform="matrix(0.866 -0.5 0.5 0.866 -13.1363 81.9661)" class="st2" width="10.4" height="3.6"/>
		</g>
	</g>
	<g>
		<g>
			<line class="st2" x1="124.1" y1="37" x2="119" y2="46"/>
			<rect x="116.4" y="39.7" transform="matrix(0.5 -0.866 0.866 0.5 24.8566 126.0111)" class="st2" width="10.4" height="3.6"/>
		</g>
	</g>
	<g>
		<g>
			<rect x="86.2" y="27.9" class="st2" width="3.6" height="10.4"/>
		</g>
	</g>
	<path class="st2" d="M93.2,99.8c0,2.7-1.8,4.8-4.1,4.8c-2.3,0-4.1-2.2-4.1-4.8c0-2.7,1.8-4.8,4.1-4.8C91.4,95,93.2,97.2,93.2,99.8z
		"/>
	<path class="st1" d="M172.8,16l1.8-2.1c2.8-3.3,2.3-8.3-1-11.1h0c-3.3-2.8-8.3-2.3-11.1,1l-1.6,1.9c-15.7-8.3-36.6-4.1-50.8,10.8
		c-6.7-1.7-13.7-2.6-20.9-2.6c-6.5,0-12.8,0.7-18.8,2.1C56.4,1.3,36-3.2,20.4,4.3l-1.2-1.5c-2.8-3.3-7.7-3.8-11.1-1
		c-3.3,2.8-3.8,7.7-1,11.1l1,1.2c-11.4,14.2-10.7,36,2,52.2C5.7,76.6,3.3,87.9,3.3,99.8c0,47.4,38.5,85.9,85.9,85.9
		c47.4,0,85.9-38.5,85.9-85.9c0-11.2-2.2-21.8-6.1-31.6C182.3,52.3,183.6,30.6,172.8,16z M89.2,178.1c-43.1,0-78.2-35.1-78.2-78.2
		c0-43.1,35.1-78.2,78.2-78.2c43.1,0,78.2,35.1,78.2,78.2C167.4,143,132.3,178.1,89.2,178.1z"/>
</g>
</svg>
