<?xml version="1.0" encoding="utf-8"?>
<!-- Generator: Adobe Illustrator 25.2.1, SVG Export Plug-In . SVG Version: 6.00 Build 0)  -->
<svg version="1.1" id="Layer_1" xmlns="http://www.w3.org/2000/svg" xmlns:xlink="http://www.w3.org/1999/xlink" x="0px" y="0px"
	 viewBox="0 0 180 195.4" style="enable-background:new 0 0 180 195.4;" xml:space="preserve">
<style type="text/css">
	.st0{fill:#DEDFE0;}
	.st1{fill:#FDC214;}
	.st2{fill:#EA1C71;}
	.st3{fill:#F2D9AE;}
	.st4{fill:#424143;}
	.st5{fill:#BABCBE;}
	.st6{fill:#1CBFD3;}
	.st7{fill:#FFFFFF;}
	.st8{fill:#878787;}
	.st9{fill:none;stroke:#1CBFD3;stroke-linecap:square;stroke-miterlimit:10;}
	.st10{fill:none;stroke:#1CBFD3;stroke-linecap:square;stroke-miterlimit:10;stroke-dasharray:6.03,6.03;}
	.st11{fill:#F8E7CD;}
	.st12{fill:none;stroke:#FDC214;stroke-linecap:round;stroke-miterlimit:10;}
</style>
<g>
	<path class="st0" d="M166,169.5H13.2c-2.4,0-4.3-1.9-4.3-4.3v-11.1c0-2.4,1.9-4.3,4.3-4.3H166c2.4,0,4.3,1.9,4.3,4.3v11.1
		C170.3,167.6,168.4,169.5,166,169.5z"/>
	<path d="M26.6,169.5v19.8c0,3.3,2.7,6,6,6h10.9c3.3,0,6-2.7,6-6v-19.8H26.6z"/>
	<path d="M129.7,169.5v19.8c0,3.3,2.7,6,6,6h10.9c3.3,0,6-2.7,6-6v-19.8H129.7z"/>
	<path class="st1" d="M174,21.3h-19.1C150.2,8.8,139.1,0,126.1,0h-73C40.2,0,29,8.8,24.4,21.3H6c-3.3,0-6,2.7-6,6v9.8v33.5v1.5h14.3
		c1.6,0,2.9-1.3,2.9-2.9V40c0-1.6-1.3-2.9-2.9-2.9h-11V29c0-2.5,2-4.4,4.4-4.4h15.5C22.4,27.7,22,31,22,34.4v46.4
		c-5.5,6.3-8.8,14.5-8.8,23.5v45.5H166v-45.5c0-9-3.3-17.2-8.8-23.5V34.4c0-3.4-0.5-6.7-1.3-9.8h16.3c2.5,0,4.4,2,4.4,4.4v8.1h-11
		c-1.6,0-2.9,1.3-2.9,2.9v29.3c0,1.6,1.3,2.9,2.9,2.9H180v-1.5V37.1v-9.8C180,24,177.3,21.3,174,21.3z M85.9,68.5H49.1
		c-7.4,0-14.3,2.2-20,6.1v-26c0-16.1,12.6-29.2,28.1-29.2h28.8V68.5z M151.2,75.3c-5.9-4.3-13.2-6.8-21-6.8H94.3V19.3h28.7
		c15.5,0,28.1,13.1,28.1,29.2V75.3z"/>
	<path class="st0" d="M49.4,145.4H18.3v-22.3h31.1c6.2,0,11.2,5,11.2,11.2l0,0C60.6,140.4,55.6,145.4,49.4,145.4z"/>
	<path class="st0" d="M129.2,145.4h31.1v-22.3h-31.1c-6.2,0-11.2,5-11.2,11.2l0,0C118.1,140.4,123.1,145.4,129.2,145.4z"/>
	<rect x="65" y="124.4" class="st0" width="50" height="3.4"/>
	<rect x="65" y="132.8" class="st0" width="50" height="3.4"/>
	<rect x="65" y="141.2" class="st0" width="50" height="3.4"/>
</g>
</svg>
