<?xml version="1.0" encoding="utf-8"?>
<!-- Generator: Adobe Illustrator 25.2.1, SVG Export Plug-In . SVG Version: 6.00 Build 0)  -->
<svg version="1.1" id="Layer_1" xmlns="http://www.w3.org/2000/svg" xmlns:xlink="http://www.w3.org/1999/xlink" x="0px" y="0px"
	 viewBox="0 0 180 260" style="enable-background:new 0 0 180 260;" xml:space="preserve">
<style type="text/css">
	.st0{fill:#DEDFE0;}
	.st1{fill:#FDC214;}
	.st2{fill:#EA1C71;}
	.st3{fill:#F2D9AE;}
	.st4{fill:#424143;}
	.st5{fill:#BABCBE;}
	.st6{fill:#1CBFD3;}
	.st7{fill:#FFFFFF;}
	.st8{fill:#878787;}
	.st9{fill:none;stroke:#1CBFD3;stroke-linecap:square;stroke-miterlimit:10;}
	.st10{fill:none;stroke:#1CBFD3;stroke-linecap:square;stroke-miterlimit:10;stroke-dasharray:6.03,6.03;}
	.st11{fill:#F8E7CD;}
	.st12{fill:none;stroke:#FDC214;stroke-linecap:round;stroke-miterlimit:10;}
</style>
<g>
	<path class="st2" d="M169.5,229.5c5,8.9,12,18.6,9.8,28.2c-16-8.3-35.2-13.4-56.3-15.8c-9.7-1.1-19.8-1.6-30.2-1.6
		c-11.3,0-22.4,0.6-33,1.9c-1.7,0.2-3.4,0.4-5.1,0.7c-20.1,2.9-38.5,8.4-53.8,17.1c-0.2-0.5-0.3-1-0.4-1.5
		c-1.7-10.4,4.9-20.2,9.7-29.5c15.1-29.2,15.5-63,14.8-96.2c-0.1-5.8-0.3-11.6-0.4-17.3C24,88.2,23.9,59.2,9.8,35.8
		c-2.6-4.4-5.7-8.5-7.8-13.2C0,18-0.9,12.5,1.1,7.8C5.9-3.6,26.4,0.8,36,0.9c15.3,0.2,30.6,0.3,45.9,0.5c30.6,0.3,61.2,0.7,91.9,1
		c1.6,0,3.4,0.1,4.5,1.2c0.9,0.8,1.2,2.1,1.4,3.3c1.9,11.6-6.4,22.1-11.9,32.5c-8.9,16.9-11.1,36.4-12.4,55.4
		c-1.9,28.4-2.3,56.9,0.7,85.2C158,197.2,161.1,214.5,169.5,229.5z"/>
	<path class="st1" d="M59.8,49.4v192.8c10.6-1.3,21.6-1.9,33-1.9c10.4,0,20.5,0.5,30.2,1.6V49.4H59.8z M83.8,167.6c-5,0-9-4-9-9
		s4-9,9-9s9,4,9,9S88.7,167.6,83.8,167.6z"/>
	<path class="st7" d="M59.8,49.4v192.8c-1.7,0.2-3.4,0.4-5.1,0.7V49.4H59.8z"/>
</g>
</svg>
