<?xml version="1.0" encoding="utf-8"?>
<!-- Generator: Adobe Illustrator 17.0.0, SVG Export Plug-In . SVG Version: 6.00 Build 0)  -->
<!DOCTYPE svg PUBLIC "-//W3C//DTD SVG 1.1//EN" "http://www.w3.org/Graphics/SVG/1.1/DTD/svg11.dtd">
<svg version="1.1" id="Layer_1" xmlns="http://www.w3.org/2000/svg" xmlns:xlink="http://www.w3.org/1999/xlink" x="0px" y="0px"
	 width="180px" height="161.458px" viewBox="10 19.271 180 161.458" enable-background="new 10 19.271 180 161.458"
	 xml:space="preserve">
<path fill="#E23C2F" d="M58.247,71.435c-0.905-5.883-1.81-11.766-2.715-17.648c-0.316-2.057-0.634-4.137-0.461-6.211
	c0.319-3.825,2.298-7.35,4.807-10.255c6.911-8.003,17.577-11.751,28.018-13.425c-0.593-1.387,0.419-3.038,1.781-3.685
	s2.944-0.561,4.449-0.46c0.917,0.061,1.88,0.137,2.648,0.641s1.237,1.591,0.754,2.373c9.532-0.834,19.287,1.067,27.808,5.42
	c3.022,1.544,5.965,3.458,7.923,6.229c4.457,6.308,2.681,15.024,4.983,22.397c9.037-1.09,18.131-1.703,27.233-1.837
	c2.275-0.033,4.551-0.036,6.827-0.01c1.204,0.014,4.691,0.431,2.391,2.16c-1.526,1.147-4.152,1.595-5.963,2.132
	c-2.07,0.614-4.166,1.141-6.273,1.61c-3.971,0.884-7.986,1.562-12.002,2.208c-11.55,1.866-23.132,3.527-34.735,5.02
	c-11.741,1.511-23.506,2.85-35.306,3.799c-7.388,0.594-14.888,1.03-22.159-0.41C58.252,71.465,58.25,71.45,58.247,71.435z"/>
<path fill="#E23C2F" d="M70.482,120.838c-13.188,7.04-30.867,13.276-40.506,25.046c-3.021,3.689-5.194,7.983-7.342,12.24
	c-3.872,7.671-7.744,15.343-11.617,23.014c60,0,120,0.001,180,0.001c-4.209-7.755-8.419-15.51-12.628-23.265
	c-2.967-5.465-6.003-11.024-10.478-15.342c-3.517-3.393-7.786-5.886-12.024-8.318c-7.811-4.483-15.671-8.88-23.58-13.188
	c-7.185,9.466-18.962,15.27-30.846,15.201s-23.593-6.007-30.669-15.555C70.69,120.726,70.586,120.782,70.482,120.838z"/>
<g>
	<path fill="#FFFFFF" d="M61.628,57.14c0.015-0.041,0.028-0.1,0.023-0.139c-0.006-0.058,0.002-0.156,0.034-0.217
		c0.014-0.041,0.04-0.16,0.05-0.24c0.008-0.098,0.05-0.239,0.08-0.32c0.047-0.103,0.053-0.22,0.051-0.239
		c-0.005-0.039,0.025-0.119,0.057-0.181c0.013-0.06,0.043-0.141,0.04-0.16c-0.002-0.019,0.012-0.06,0.025-0.119
		c0.015-0.041,0.04-0.16,0.068-0.26c0.029-0.081,0.074-0.203,0.108-0.246c0.03-0.062,0.061-0.143,0.074-0.202
		c-0.005-0.038,0.008-0.098,0.026-0.12c0.019-0.002,0.045-0.102,0.093-0.205c0.024-0.12,0.074-0.203,0.091-0.224
		c0.017-0.022,0.035-0.043,0.03-0.081c-0.002-0.019,0.01-0.079,0.046-0.102c0.017-0.021,0.049-0.083,0.045-0.122
		c0.025-0.119,0.438-0.769,0.714-1.072c0.342-0.408,0.398-0.434,0.823-0.618c0.224-0.084,0.3-0.112,0.683-0.155
		c0.519-0.039,0.793-0.032,1.177,0.1c0.222,0.072,0.531,0.231,0.662,0.352c0.261,0.243,0.598,0.982,0.748,1.626
		c0.013,0.115,0.054,0.305,0.108,0.435c0.073,0.303,0.225,1.472,0.201,1.766c-0.008,0.273-0.044,0.472-0.113,0.557
		c-0.104,0.109-0.555,0.083-0.648-0.062c-0.024-0.036-0.079-0.341-0.124-0.744c-0.066-0.576-0.143-1.092-0.219-1.239
		c-0.002-0.019-0.034-0.132-0.045-0.228c-0.03-0.094-0.041-0.19-0.062-0.207c0,0-0.007-0.057-0.034-0.132
		c-0.037-0.151-0.149-0.45-0.245-0.614c-0.077-0.166-0.219-0.384-0.238-0.382c-0.038,0.004-0.523,0.701-0.571,0.785
		c-0.013,0.06-0.065,0.123-0.082,0.145c-0.017,0.021-0.031,0.062-0.027,0.1c0.002,0.019-0.032,0.062-0.066,0.105
		c-0.032,0.062-0.098,0.166-0.147,0.25c-0.028,0.1-0.077,0.183-0.093,0.205c0,0-0.015,0.04-0.009,0.098
		c0.002,0.019-0.023,0.139-0.071,0.222c-0.096,0.186-0.287,0.733-0.312,0.852c0.005,0.038-0.008,0.098-0.026,0.119
		c0.002,0.019-0.013,0.06-0.011,0.079c-0.015,0.04-0.039,0.16-0.065,0.279c-0.045,0.121-0.067,0.26-0.08,0.32
		c-0.032,0.237-0.088,0.593-0.091,0.749c-0.008,0.098-0.015,0.196-0.048,0.258c-0.045,0.121-0.062,0.299-0.047,0.608
		c-0.004,0.136-0.028,0.275-0.04,0.336c-0.015,0.04-0.044,0.121-0.04,0.159c0.006,0.057,0,0.175-0.008,0.273
		c-0.009,0.098-0.036,0.199-0.032,0.237c0.005,0.039,0.02,0.173,0.014,0.29c0.016,0.659,0.034,0.988,0.069,1.12
		c0.03,0.094,0.067,0.245,0.099,0.358c0.015,0.134,0.052,0.286,0.061,0.362c0.049,0.092,0.084,0.224,0.114,0.318
		s0.082,0.204,0.107,0.26c0.045,0.053,0.091,0.106,0.091,0.106c0.006,0.058,0.15,0.294,0.169,0.292
		c0.037-0.004,0.198-0.139,0.34-0.253c0.247-0.222,0.643-0.675,0.809-0.927c0.063-0.125,0.067-0.261,0.006-0.799
		c-0.043-0.208-0.054-0.304-0.135-1.19l-0.05-0.441l-0.209,0.043c-0.189,0.041-0.228,0.046-0.352-0.018
		c-0.082-0.03-0.166-0.098-0.192-0.153c-0.048-0.073-0.048-0.073,0.036-0.199l0.084-0.106l1.017-0.116
		c0.555-0.083,1.112-0.146,1.243-0.18c0.398-0.084,0.699-0.002,0.927,0.284l0.07,0.108l0.24,2.111
		c0.133,1.171,0.281,2.301,0.305,2.512c0.061,0.362,0.066,0.401,0.016,0.484c-0.013,0.06-0.1,0.147-0.155,0.173
		c-0.234,0.163-0.75,0.241-1.18,0.212c-0.414-0.05-0.678-0.137-0.992-0.334c-0.063-0.051-0.149-0.119-0.192-0.153
		c-0.091-0.106-0.182-0.407-0.23-0.829c-0.019-0.173-0.035-0.307-0.054-0.305s-0.066,0.105-0.111,0.227
		c-0.165,0.427-0.199,0.47-0.329,0.698c-0.161,0.291-0.342,0.408-0.705,0.469c-0.627,0.13-1.702-0.098-2.109-0.421
		c-0.448-0.357-0.495-0.429-0.81-0.977c-0.169-0.292-0.382-0.793-0.397-0.927c-0.004-0.039-0.034-0.132-0.063-0.227
		c-0.03-0.094-0.061-0.187-0.048-0.247c-0.004-0.038-0.015-0.134-0.044-0.208c-0.058-0.169-0.139-0.879-0.143-1.092
		c-0.009-0.077,0-0.175,0.015-0.216c-0.004-0.038-0.011-0.096,0.002-0.155c-0.005-0.038,0.005-0.117,0.018-0.177
		c-0.014-0.29-0.003-0.37,0.012-0.41s0.028-0.256,0.03-0.587c0.006-0.117,0.03-0.256,0.042-0.316
		c0.015-0.04,0.023-0.138,0.014-0.215c-0.008-0.076,0.002-0.156,0.036-0.199c0.032-0.062,0.062-0.142,0.048-0.258
		C61.62,57.238,61.631,57.159,61.628,57.14z"/>
	<path fill="#FFFFFF" d="M75.053,55.887c0.013,0.115,0.013,0.29,0.006,0.388c0.009,0.427,0.005,1.069-0.008,1.303
		c-0.008,0.099-0.015,0.216-0.027,0.275c0,0.175-0.036,0.548-0.07,0.747c-0.008,0.098-0.015,0.215-0.011,0.254
		c-0.034,0.217-0.086,0.787-0.121,0.986c-0.043,0.141-0.049,0.258-0.045,0.297c0.002,0.019-0.012,0.06-0.011,0.079
		c-0.015,0.021-0.044,0.122-0.069,0.242c-0.024,0.139-0.061,0.317-0.091,0.399c-0.029,0.08-0.058,0.162-0.056,0.181
		s-0.013,0.06-0.026,0.12c-0.062,0.143-0.131,0.384-0.131,0.384c0.002,0.019-0.152,0.542-0.201,0.626
		c0.004,0.038-0.045,0.121-0.077,0.183c-0.029,0.082-0.093,0.205-0.14,0.307c-0.379,0.607-0.761,0.826-1.559,0.819
		c-0.312-0.004-0.708-0.075-1.095-0.225c-0.446-0.163-0.682-0.351-1.093-0.887c-0.043-0.034-0.091-0.125-0.097-0.183
		c-0.027-0.056-0.08-0.186-0.108-0.26c-0.049-0.092-0.103-0.222-0.111-0.298c-0.093-0.301-0.158-0.527-0.2-0.561
		c-0.002-0.019-0.031-0.094-0.039-0.17c-0.063-0.207-0.236-1.043-0.246-1.139c-0.026-0.055-0.052-0.285-0.08-0.535
		c-0.027-0.23-0.076-0.497-0.109-0.61c-0.029-0.094-0.051-0.286-0.045-0.403c0.004-0.136-0.014-0.29-0.04-0.346
		c-0.025-0.055-0.032-0.113,0.002-0.155c-0.006-0.057,0.002-0.156-0.009-0.251c-0.009-0.077-0.007-0.233-0.018-0.329
		c0.023-0.313,0.021-0.838,0.006-0.972c-0.009-0.077,0.016-0.197,0.028-0.275c0.031-0.062,0.044-0.122,0.02-0.158
		c-0.004-0.038,0-0.175,0.023-0.314c0.004-0.137,0.022-0.313,0.032-0.393c-0.009-0.077,0.004-0.136,0.021-0.158
		c0.018-0.021,0.031-0.081,0.022-0.158s-0.018-0.153-0.004-0.194c0.017-0.022,0.028-0.1,0.021-0.158
		c0.013-0.06,0.026-0.119,0.044-0.141c-0.002-0.019,0.012-0.06,0.008-0.098s0.022-0.139,0.031-0.237
		c0.03-0.081,0.084-0.282,0.123-0.461c0.039-0.16,0.08-0.32,0.095-0.361s0.059-0.162,0.085-0.282
		c0.065-0.279,0.109-0.401,0.244-0.591c0.046-0.102,0.113-0.207,0.127-0.248c0.128-0.247,0.198-0.314,0.396-0.453
		c0.126-0.072,0.291-0.169,0.404-0.201c0.318-0.114,0.899-0.141,1.393-0.061c0.378,0.074,1.324,0.53,1.709,0.836
		c0.317,0.236,0.484,0.509,0.614,0.961c0.275,0.883,0.273,0.863,0.377,1.785C75.007,55.309,75.061,55.788,75.053,55.887z
		 M74.138,54.844c-0.072-0.458-0.104-0.571-0.291-1.017c-0.146-0.43-0.223-0.597-0.459-0.959c-0.164-0.253-0.255-0.36-0.423-0.477
		c-0.174-0.155-0.193-0.153-0.206-0.094c-0.033,0.043-0.065,0.105-0.1,0.147c-0.033,0.043-0.101,0.129-0.114,0.188
		c-0.03,0.081-0.057,0.181-0.091,0.224c-0.013,0.06-0.057,0.181-0.087,0.263c-0.088,0.243-0.119,0.325-0.151,0.387
		c-0.026,0.1-0.067,0.26-0.085,0.438c-0.016,0.196-0.032,0.236-0.089,0.418c-0.013,0.06-0.04,0.16-0.055,0.201
		c0.005,0.038-0.002,0.156-0.01,0.253c-0.026,0.119-0.046,0.278-0.037,0.355c-0.031,0.081-0.036,0.198-0.032,0.237
		c-0.013,0.06-0.026,0.119-0.026,0.119c-0.016,0.021-0.029,0.081-0.023,0.138s0.005,0.214-0.001,0.331
		c-0.004,0.137-0.019,0.352-0.024,0.47c0.015,0.134-0.006,0.292,0,0.35c-0.071,0.397,0.111,2.34,0.276,3.118
		c0.171,0.816,0.348,1.516,0.393,1.569c0.022,0.017,0.049,0.091,0.061,0.187c0.028,0.075,0.038,0.171,0.057,0.168
		c0.024,0.037,0.482-0.54,0.476-0.598c0,0,0.015-0.041,0.049-0.083c0.049-0.084,0.16-0.29,0.208-0.393
		c0.015-0.04,0.062-0.143,0.091-0.224c0.093-0.205,0.36-0.935,0.386-1.055c0.012-0.059,0.04-0.16,0.072-0.221
		c0.099-0.323,0.248-1.234,0.323-1.943C74.323,56.475,74.312,55.873,74.138,54.844z"/>
	<path fill="#FFFFFF" d="M84.015,49.6c0.501-0.038,0.698-0.021,1.195,0.078c0.397,0.072,0.996,0.373,1.113,0.555
		c0.023,0.036,0.113,0.142,0.18,0.213c0.139,0.198,0.289,0.492,0.414,0.905c0.124,0.414,0.21,1.843,0.14,2.433
		c-0.031,0.412-0.18,1.148-0.266,1.411c-0.177,0.506-0.474,0.793-0.805,0.791c-0.137-0.004-0.338-0.059-0.425-0.146
		c-0.105-0.066-0.08-0.36,0.064-0.804c0.043-0.141,0.143-0.619,0.147-0.755c-0.006-0.057,0.019-0.177,0.029-0.256
		c0.013-0.06,0.034-0.218,0.037-0.354c-0.013-0.115,0.006-0.292,0.016-0.371c-0.009-0.077,0-0.35-0.028-0.599
		c-0.042-0.54-0.09-0.787-0.329-1.343c-0.055-0.149-0.22-0.403-0.284-0.454c-0.062-0.032-0.205,0.081-0.341,0.253
		c-0.189,0.216-0.453,0.634-0.465,0.695c-0.015,0.04-0.066,0.104-0.096,0.185c-0.032,0.062-0.063,0.123-0.061,0.143
		c0,0-0.03,0.081-0.079,0.164c-0.11,0.227-0.096,0.186-0.32,0.775c-0.047,0.103-0.074,0.203-0.07,0.241
		c0.002,0.019-0.008,0.098-0.04,0.161c-0.03,0.08-0.112,0.382-0.163,0.621c-0.008,0.098-0.036,0.198-0.029,0.256
		c-0.015,0.041-0.023,0.139-0.036,0.198c0.009,0.077-0.004,0.137-0.021,0.158c-0.018,0.021-0.025,0.119-0.016,0.196
		c0.011,0.096,0.009,0.252,0.001,0.35c0.009,0.252,0.049,0.597,0.119,0.88c0.022,0.192,0.07,0.284,0.259,0.574l0.236,0.361
		l0.491,0.372c1.92,1.511,1.792,1.409,2.105,1.937c0.146,0.256,0.206,0.793,0.087,0.943c-0.036,0.023-0.045,0.103-0.061,0.142
		c-0.008,0.099-0.312,0.503-0.489,0.659c-0.196,0.159-0.656,0.386-1.012,0.504c-0.395,0.123-0.737,0.181-1.167,0.171
		c-0.761-0.03-1.046-0.134-1.751-0.695c-0.278-0.221-0.486-0.509-0.504-0.662c-0.011-0.096,0.09-0.243,0.186-0.254
		c0.172-0.02,0.421,0.108,0.618,0.318c0.112,0.123,0.47,0.374,0.614,0.436c0.04,0.015,0.572-0.104,0.644-0.151
		s0.293-0.325,0.323-0.406c0.078-0.164,0.114-0.363,0.08-0.495c-0.028-0.074-0.066-0.226-0.098-0.339
		c-0.049-0.266-0.117-0.355-0.395-0.576c-0.128-0.103-0.364-0.29-0.516-0.428c-0.171-0.136-0.361-0.27-0.426-0.321
		c-0.08-0.03-0.209-0.132-0.296-0.219c-0.107-0.086-0.259-0.224-0.366-0.309c-0.538-0.464-0.763-0.73-1.016-1.245
		c-0.071-0.109-0.125-0.239-0.148-0.274c-0.094-0.145-0.213-0.85-0.207-1.143c0.008-0.098,0.012-0.235,0.003-0.312
		c0.013-0.06,0.021-0.157,0.019-0.176c0.015-0.041,0.021-0.158,0.025-0.295c0.015-0.216,0.012-0.235,0.135-0.696
		c0.02-0.158,0.063-0.299,0.058-0.337c-0.004-0.038-0.008-0.076,0.009-0.098c0,0,0.015-0.04,0.011-0.079
		c0.015-0.04,0.027-0.1,0.041-0.141c0.035-0.043,0.079-0.164,0.087-0.262c0.028-0.1,0.056-0.201,0.074-0.222
		c0.013-0.04,0.028-0.081,0.045-0.103c-0.002-0.019,0.013-0.06,0.028-0.1c-0.002-0.019,0.028-0.101,0.058-0.163
		c0.032-0.062,0.077-0.183,0.125-0.267c0.052-0.064,0.115-0.188,0.128-0.248c-0.006-0.057,0.023-0.139,0.04-0.16
		c0.036-0.023,0.053-0.045,0.051-0.064s0.196-0.333,0.329-0.523c0.017-0.021,0.083-0.126,0.148-0.231
		c0.083-0.126,0.132-0.209,0.151-0.212c0.019-0.002,0.089-0.068,0.16-0.134c0.152-0.193,0.57-0.454,0.832-0.542
		C83.497,49.659,83.611,49.627,84.015,49.6z"/>
	<path fill="#FFFFFF" d="M88.813,60.699c-0.032-0.113-0.093-0.65-0.268-2.361c-0.038-0.501-0.088-0.942-0.095-0.999
		c-0.013-0.115-0.048-0.422-0.098-1.039c-0.033-0.288-0.045-0.559-0.07-0.614c-0.011-0.096-0.028-0.25-0.08-0.71
		c-0.024-0.211-0.05-0.441-0.059-0.518c-0.006-0.057-0.04-0.521-0.099-1.039c-0.036-0.482-0.138-1.384-0.184-1.962
		c-0.162-1.595-0.184-1.787-0.155-1.868c0.015-0.04,0.086-0.107,0.158-0.154c0.146-0.094,0.544-0.179,0.837-0.153
		c0.606,0.028,1.3,0.319,1.53,0.623c0.091,0.126,0.117,0.181,0.255,1.565c0.041,0.365,0.075,0.827,0.097,1.019
		c0.022,0.191,0.048,0.422,0.037,0.502c0.008,0.076,0.098,0.863,0.18,1.748c0.1,0.883,0.193,1.708,0.207,1.823
		c0.013,0.115,0.026,0.231,0.028,0.249c0.02,0.017,0.327-0.018,0.997-0.113c0.556-0.063,1.226-0.158,1.495-0.189l0.518-0.059
		l-0.138-1.209c-0.076-0.672-0.206-1.979-0.294-2.921c-0.105-0.922-0.179-1.749-0.185-1.807c-0.005-0.038-0.02-0.172-0.05-0.266
		c-0.041-0.365-0.074-1.002-0.045-1.083c0.177-0.487,1.319-0.714,2.108-0.434c0.425,0.146,0.517,0.272,0.574,0.771
		c0.019,0.172,0.041,0.364,0.046,0.403c0.074,0.652,0.244,2.324,0.308,2.881c0.035,0.307,0.29,2.902,0.332,3.267
		c0.006,0.058,0.017,0.153,0.026,0.231c0.011,0.096,0.083,0.729,0.145,1.441c0.131,1.152,0.185,1.806,0.231,2.034
		c0.018,0.153,0.022,0.192,0.024,0.386c-0.003,0.136-0.016,0.197-0.084,0.281c-0.148,0.232-0.483,0.366-1.001,0.425
		c-0.672,0.076-1.35-0.079-1.537-0.35c-0.026-0.055-0.061-0.188-0.078-0.342c-0.015-0.134-0.032-0.287-0.037-0.326
		c-0.002-0.019-0.072-0.633-0.152-1.343l-0.13-1.308l-0.247,0.048c-0.132,0.035-0.55,0.121-0.894,0.18
		c-0.341,0.077-0.797,0.168-0.987,0.209c-0.209,0.043-0.38,0.083-0.38,0.083c-0.017,0.021-0.133,0.034-0.267,0.049
		c-0.21,0.024-0.23,0.026-0.221,0.103c-0.015,0.041,0.007,0.232,0.046,0.403c0.041,0.19,0.061,0.362,0.044,0.384
		c0,0,0.039,0.52,0.107,1.115c0.148,1.48,0.159,1.401,0.02,1.553c-0.19,0.196-0.338,0.272-0.624,0.323
		c-0.134,0.015-0.308,0.016-0.366,0.022c-0.433-0.048-0.799-0.182-1.118-0.437C88.986,61.029,88.875,60.906,88.813,60.699z"/>
	<path fill="#FFFFFF" d="M98.101,60.344l-0.085-0.068l-0.081-0.71c-0.044-0.384-0.074-0.827-0.09-0.962
		c-0.007-0.407-0.027-1.261-0.021-1.553c-0.02-0.348-0.001-0.525-0.027-0.755c-0.016-0.309-0.006-0.563-0.03-0.774
		c-0.007-0.232-0.004-0.719-0.001-0.855c-0.002-0.019,0-0.175,0.004-0.312c0.006-0.117,0.01-0.254,0.023-0.314
		c-0.002-0.019-0.004-0.213,0.012-0.409c-0.002-0.175,0.005-0.467,0.026-0.625c0.024-0.294,0.022-0.314,0.058-0.512
		c0.013-0.06,0.021-0.158,0.016-0.196c0.011-0.079,0.099-0.497,0.125-0.616c0.05-0.239,0.095-0.361,0.177-0.662
		c0.055-0.2,0.113-0.382,0.108-0.421c0.017-0.021,0.061-0.142,0.086-0.262c0.24-0.805,0.478-1.454,0.678-1.73
		c0.066-0.104,0.133-0.209,0.164-0.271c0.283-0.596,0.669-0.795,1.435-0.727c0.607,0.048,1.211,0.232,1.468,0.436
		c0.276,0.202,0.54,0.463,0.704,0.717c0.072,0.128,0.188,0.289,0.213,0.345c0.046,0.053,0.096,0.145,0.123,0.219
		c0.028,0.074,0.114,0.317,0.219,0.559c0.087,0.262,0.176,0.524,0.187,0.62c0.03,0.094,0.039,0.17,0.06,0.187
		c0.021,0.017,0.056,0.149,0.069,0.264c0.035,0.132,0.086,0.418,0.147,0.606c0.044,0.209,0.093,0.476,0.125,0.589
		c0.147,0.78,0.186,0.951,0.219,1.239c0.05,0.266,0.206,1.473,0.317,2.278c0.036,0.325,0.142,1.596,0.182,2.117
		c0.063,0.731,0.19,1.845,0.223,1.958c0.087,0.262-0.04,0.51-0.321,0.6c-0.15,0.055-0.63,0.11-0.785,0.109
		c-0.665-0.042-1.298-0.3-1.49-0.629c-0.074-0.128-0.117-0.336-0.163-0.914c-0.02-0.173-0.044-0.384-0.055-0.479
		c-0.03-0.095-0.043-0.21-0.028-0.25c0.011-0.079,0.009-0.098-0.125-0.083c-0.058,0.007-0.19,0.041-0.265,0.069
		c-0.074,0.028-0.226,0.065-0.341,0.078c-0.094,0.03-0.226,0.064-0.284,0.07c-0.338,0.097-0.682,0.156-1.354,0.232
		c-0.423,0.048-0.787,0.089-0.806,0.091c-0.04-0.015-0.057,0.006-0.05,0.064c0.004,0.039,0.028,0.25,0.033,0.463
		c0.022,0.192,0.041,0.539,0.048,0.772c0.031,0.268,0.027,0.405-0.006,0.448C98.866,60.587,98.339,60.549,98.101,60.344z
		 M99.287,57.779c0.283-0.072,0.989-0.191,1.677-0.289c0.345-0.039,0.727-0.101,0.842-0.114l0.21-0.043l-0.024-0.212
		c-0.013-0.115-0.018-0.328-0.032-0.462c0.004-0.136-0.011-0.271-0.033-0.288c-0.004-0.038-0.017-0.153-0.031-0.268
		c0.002-0.312-0.281-2.651-0.334-2.761c-0.023-0.037-0.034-0.132-0.04-0.19c0.013-0.06-0.033-0.288-0.079-0.516
		c-0.044-0.209-0.094-0.476-0.107-0.591c-0.013-0.115-0.046-0.247-0.072-0.302c-0.026-0.056-0.039-0.171-0.048-0.248
		c-0.011-0.096-0.041-0.189-0.048-0.247c-0.056-0.149-0.135-0.51-0.206-0.793c-0.057-0.325-0.115-0.493-0.217-0.714
		c-0.05-0.091-0.083-0.205-0.085-0.224c-0.004-0.038-0.027-0.075-0.049-0.091c0,0-0.047-0.072-0.075-0.147
		c-0.011-0.096-0.06-0.187-0.103-0.221c-0.045-0.053-0.045-0.053-0.117-0.006c-0.123,0.111-0.523,0.526-0.606,0.652
		c-0.301,0.423-0.53,0.974-0.695,1.576c-0.193,0.702-0.37,1.714-0.373,2.025c0.009,0.077-0.002,0.156,0.001,0.175
		c-0.026,0.119-0.012,1.265,0.003,1.574c-0.002,0.155,0.004,0.369,0.017,0.484s0.033,0.463,0.066,0.751
		c0.077,1.022,0.105,1.445,0.092,1.506C98.815,57.91,98.815,57.91,99.287,57.779z"/>
	<path fill="#FFFFFF" d="M109.586,54.003c0.205-0.937,0.202-0.956,0.158-1.69c0.008-0.098,0.01-0.254,0.02-0.333
		c0.013-0.06,0-0.174-0.004-0.213c-0.014-0.115,0.002-0.156,0.065-0.454c0.011-0.079,0.029-0.256,0.032-0.393
		c0.034-0.393,0.057-0.531,0.19-0.721c0.115-0.188,0.188-0.236,0.484-0.366c0.147-0.075,0.223-0.083,0.531-0.119
		c0.308-0.016,0.427-0.01,0.605,0.028c0.399,0.091,0.752,0.284,0.898,0.54c0.07,0.108,0.073,0.128,0.047,0.247
		c-0.01,0.079-0.019,0.177-0.014,0.216c0.004,0.038-0.004,0.136-0.036,0.198c-0.025,0.12-0.057,0.356-0.092,0.73
		c-0.008,0.098-0.012,0.235-0.023,0.314c0.006,0.057,0.006,0.213,0.016,0.309c0.014,0.115,0.005,0.214-0.01,0.254
		c-0.045,0.122,0.265,2.497,0.358,2.642c0.005,0.039,0.032,0.113,0.041,0.19c0.009,0.076,0.063,0.206,0.072,0.284
		c0.06,0.187,0.156,0.526,0.191,0.658c0.004,0.038,0.055,0.15,0.083,0.223c0.05,0.091,0.096,0.165,0.096,0.165
		c0.005,0.038,0.006,0.057,0.028,0.074c0.105,0.066,0.473-0.461,0.674-0.912c0.168-0.408,0.386-1.405,0.395-1.833
		c-0.011-0.096,0.016-0.372,0.024-0.644c0.04-0.51,0.06-1.018,0.05-1.269c0.008-0.098,0.01-0.254,0.019-0.352
		c-0.009-0.077,0.007-0.273-0.006-0.388c-0.015-0.465-0.206-2.154-0.273-2.399c-0.032-0.113-0.073-0.302-0.086-0.418
		c-0.089-0.437-0.198-0.891-0.257-1.06c-0.026-0.055-0.058-0.168-0.087-0.242c-0.025-0.056-0.06-0.188-0.068-0.265
		c-0.045-0.053-0.082-0.204-0.113-0.298c-0.032-0.113-0.087-0.262-0.118-0.356c-0.086-0.243-0.087-0.262,0.04-0.335
		c0.128-0.073,0.36-0.079,0.542-0.022c0.243,0.089,0.521,0.31,0.725,0.559c0.55,0.734,0.742,1.393,0.949,3.392
		c0.104,1.077,0.125,1.268,0.109,1.989c-0.002,0.487-0.021,0.663-0.085,1.137c-0.03,0.237-0.056,0.532-0.081,0.651
		c-0.062,0.648-0.142,1.143-0.26,1.643c-0.045,0.121-0.097,0.342-0.119,0.499c-0.04,0.16-0.08,0.32-0.078,0.34
		c-0.015,0.041-0.067,0.26-0.139,0.483c-0.091,0.399-0.18,0.642-0.216,0.666c-0.017,0.021-0.049,0.083-0.059,0.162
		c-0.106,0.265-0.389,0.511-0.82,0.657c-0.205,0.081-0.763,0.126-1.079,0.084c-0.785-0.066-1.333-0.276-1.791-0.71
		c-0.106-0.066-0.199-0.211-0.247-0.283c-0.028-0.074-0.076-0.166-0.117-0.181c-0.023-0.035-0.028-0.074-0.032-0.113
		c-0.002-0.019-0.049-0.091-0.073-0.128c-0.129-0.277-0.249-0.477-0.232-0.498c0.015-0.041-0.052-0.286-0.126-0.433l-0.049-0.091
		l-0.002,0.156c-0.011,0.078-0.017,0.196-0.03,0.256c-0.012,0.06-0.015,0.215-0.02,0.333c-0.006,0.117-0.008,0.273-0.023,0.313
		c-0.073,0.378-0.108,0.576-0.14,0.638c-0.015,0.04-0.047,0.102-0.042,0.141c-0.013,0.059-0.044,0.141-0.095,0.204
		c-0.031,0.062-0.062,0.143-0.075,0.184c-0.006,0.117-0.354,0.487-0.499,0.563c-0.206,0.081-0.491,0.134-0.802,0.13
		c-0.566-0.013-0.883-0.075-1.213-0.232c-0.476-0.257-0.538-0.289-0.649-0.412c-0.066-0.07-0.135-0.159-0.177-0.194
		c-0.064-0.051-0.188-0.289-0.27-0.494c-0.023-0.036-0.073-0.128-0.1-0.203c-0.048-0.072-0.102-0.202-0.13-0.277
		c-0.182-0.581-0.298-0.918-0.328-1.012c-0.044-0.035-0.082-0.204-0.099-0.358c-0.037-0.152-0.075-0.323-0.08-0.361
		c-0.026-0.055-0.062-0.206-0.08-0.36c-0.035-0.132-0.083-0.379-0.121-0.55c-0.037-0.151-0.095-0.495-0.145-0.762
		c-0.03-0.268-0.078-0.515-0.1-0.533c-0.002-0.019-0.253-2.051-0.257-2.089c0.019-0.002-0.004-0.213-0.013-0.465
		c-0.092-1.156-0.098-1.369-0.111-1.66c0.001-0.156-0.003-0.369-0.015-0.465c-0.03-0.094-0.026-0.23-0.013-0.29
		c0.011-0.079,0.012-0.235-0.002-0.369c-0.027-0.23-0.01-0.252,0.071-0.397c0.16-0.291,0.397-0.434,0.836-0.504
		c0.668-0.115,1.369,0.077,1.643,0.435c0.114,0.143,0.114,0.143,0.14,0.373c0.013,0.115,0.011,0.271-0.002,0.33
		c0.006,0.057,0.006,0.214,0.003,0.369c0.015,0.134,0.011,0.271,0.014,0.291c0.002,0.019,0.003,0.194,0.007,0.407
		c0.027,0.23,0.04,0.521,0.059,0.693c0.018,0.154,0.044,0.559,0.064,0.907c0.039,0.345,0.062,0.712,0.073,0.808
		c0.022,0.366,0.129,1.307,0.198,1.572c0.032,0.113,0.087,0.417,0.117,0.686c0.032,0.287,0.083,0.554,0.108,0.61
		c0.023,0.036,0.051,0.111,0.056,0.149c-0.005,0.136,0.084,0.574,0.151,0.819c0.035,0.132,0.075,0.322,0.106,0.416
		c0.032,0.113,0.074,0.303,0.127,0.433c0.032,0.113,0.094,0.319,0.129,0.452c0.033,0.113,0.086,0.244,0.111,0.298l0.05,0.091
		l0.106-0.264c0.061-0.143,0.119-0.324,0.167-0.408C109.178,55.722,109.331,55.179,109.586,54.003z"/>
	<path fill="#FFFFFF" d="M118.283,45.376c0.325-0.056,1.417-0.2,2.395-0.311c1.939-0.221,1.9-0.216,2.243-0.099
		c0.305,0.121,0.423,0.302,0.283,0.434c-0.088,0.087-0.182,0.118-0.719,0.179c-0.247,0.048-0.572,0.104-0.724,0.14
		c-0.169,0.039-0.359,0.08-0.436,0.088c-0.269,0.031-0.632,0.091-0.668,0.115c-0.017,0.021-0.013,0.06,0.034,0.132
		c0.048,0.072,0.058,0.168,0.12,0.706c0.041,0.365,0.079,0.691,0.063,0.731c-0.006,0.117,0.078,1.022,0.165,1.964
		c0.037,0.326,0.05,0.616,0.054,0.655c-0.014,0.041,0.008,0.408,0.054,0.811c0.045,0.403,0.085,0.923,0.094,1.175
		c0.031,0.269,0.055,0.655,0.084,0.904c0.006,0.232,0.05,0.616,0.055,0.829c0.046,0.754,0.132,1.677,0.241,2.812
		c0.018,0.328,0.055,0.654,0.042,0.714c-0.005,0.118-0.144,0.27-0.293,0.325c-0.167,0.078-0.531,0.119-0.785,0.109
		c-0.682-0.019-1.4-0.346-1.531-0.642c-0.032-0.113-0.193-1.534-0.22-2.113c-0.029-0.424-0.08-1.041-0.121-1.581
		c-0.081-0.71-0.177-1.904-0.174-2.04c0.002-0.156-0.066-0.926-0.079-1.041c-0.036-0.152-0.045-0.228-0.05-0.616
		c-0.022-0.192-0.04-0.52-0.062-0.712c-0.028-0.424-0.116-1.367-0.185-2.136c-0.014-0.29-0.025-0.561-0.028-0.58
		c0.018-0.021-0.157-0.021-0.714,0.043c-0.538,0.061-0.789,0.07-0.966,0.051c-0.549-0.035-0.886-0.269-0.716-0.482
		c0.015-0.041,0.161-0.116,0.294-0.151C116.298,45.698,116.431,45.664,118.283,45.376z"/>
	<path fill="#FFFFFF" d="M130.079,43.646c0.491,0.041,0.858,0.194,1.176,0.43c0.364,0.289,0.367,0.308,0.439,0.942
		c0.074,0.652,0.277,2.787,0.297,3.135c0.009,0.252,0.032,0.463,0.054,0.655c0.05,0.266,0.164,1.945,0.153,2.024
		c0.005,0.038,0.006,0.233,0.031,0.444c0.002,0.194,0.033,0.463,0.024,0.561c-0.003,0.136,0.002,0.349-0.002,0.486
		c0.015,0.134,0.018,0.329,0.024,0.386c-0.004,0.487-0.003,0.661-0.032,0.742c-0.03,0.256-0.04,0.336-0.046,0.453
		c0.017,0.154-0.049,0.433-0.135,0.695c-0.029,0.081-0.038,0.179-0.036,0.198s-0.029,0.081-0.062,0.143
		c-0.034,0.043-0.08,0.145-0.091,0.225c-0.118,0.325-0.37,0.683-0.669,0.97c-0.173,0.175-0.446,0.342-0.634,0.403
		c-0.262,0.088-0.416,0.106-0.806,0.091c-0.564-0.013-0.703-0.037-1.062-0.113c-0.916-0.187-1.665-0.627-1.604-0.945
		c0.016-0.197,0.366-0.198,0.951-0.011l0.222,0.072l0.068-0.085c0.033-0.043,0.142-0.113,0.215-0.161
		c0.181-0.117,0.423-0.379,0.516-0.583c0.047-0.103,0.117-0.169,0.134-0.19c0.035-0.024,0.203-0.431,0.195-0.508
		c-0.002-0.019,0.013-0.06,0.029-0.082c0.015-0.04,0.045-0.121,0.055-0.2c0.043-0.472,0.062-0.649,0.097-0.692
		c0.015-0.021,0.024-0.119,0.018-0.176c-0.031-0.095-0.001-0.175,0.015-0.216c0.015-0.04,0.013-0.234,0.011-0.584
		c-0.031-0.268-0.031-0.618-0.027-0.754c0.021-0.158,0.001-0.506-0.049-0.947l-0.06-0.693l-0.093,0.38
		c-0.141,0.463-0.227,0.901-0.219,0.978c0.002,0.019-0.013,0.06-0.011,0.079c-0.017,0.021-0.061,0.143-0.104,0.284
		c-0.023,0.139-0.08,0.32-0.091,0.399c-0.032,0.062-0.042,0.14-0.04,0.16c0.002,0.019-0.032,0.062-0.049,0.083
		s-0.03,0.081-0.028,0.1c0.002,0.019-0.039,0.159-0.122,0.286c-0.062,0.143-0.125,0.267-0.121,0.306
		c-0.017,0.02-0.049,0.083-0.082,0.125c-0.052,0.064-0.117,0.169-0.15,0.23c-0.167,0.234-0.524,0.351-1.009,0.348
		c-0.587-0.031-1.09-0.187-1.494-0.491c-0.342-0.273-0.581-0.497-0.614-0.611c-0.024-0.036-0.073-0.128-0.101-0.202
		c-0.049-0.091-0.105-0.241-0.155-0.332c-0.03-0.094-0.087-0.262-0.118-0.356c-0.049-0.091-0.061-0.187-0.062-0.206
		c-0.005-0.039-0.028-0.249-0.09-0.457c-0.128-0.608-0.304-2.162-0.264-2.653c0.019-0.352-0.006-1.088-0.039-1.376
		c-0.009-0.076-0.016-0.309,0.005-0.467c0.022-0.158,0.023-0.313,0.021-0.333c-0.006-0.057-0.01-0.427,0.015-0.721
		c-0.013-0.115,0.014-0.216,0.014-0.216c0.018-0.021,0.032-0.062,0.028-0.1c-0.015-0.134,0.065-0.28,0.193-0.352
		c0.583-0.339,2.043,0.02,2.378,0.566c0.074,0.128,0.075,0.146,0.057,0.323c-0.006,0.118-0.013,0.235-0.03,0.256
		c-0.015,0.041-0.002,0.156-0.007,0.273c0.013,0.115,0.011,0.271-0.002,0.331c-0.011,0.079-0.015,0.216-0.025,0.294
		c0.017,0.31,0.023,0.717-0.006,0.798c0.006,0.057,0.013,0.115,0.013,0.115c0.006,0.057,0.043,0.889,0.016,0.99
		c0.004,0.038,0.006,0.232,0.006,0.407c0.019,0.172,0.028,0.424,0.025,0.561c0.008,0.408,0.226,1.821,0.33,2.042
		c0.032,0.113,0.032,0.113,0.084,0.068c0.035-0.043,0.151-0.211,0.266-0.399c0.134-0.19,0.234-0.338,0.232-0.357
		c0.019-0.002,0.083-0.126,0.165-0.251c0.13-0.229,0.302-0.598,0.448-1.023c0.047-0.102,0.09-0.243,0.138-0.327
		c0.128-0.247,0.236-0.493,0.397-0.958c0.131-0.385,0.162-0.466,0.144-0.62c-0.011-0.096-0.029-0.424-0.062-0.712
		c-0.032-0.618-0.132-1.676-0.221-2.463c-0.059-0.518-0.062-0.537,0.006-0.623C129.197,43.746,129.667,43.615,130.079,43.646z"/>
</g>
<g>
	<g>
		<path fill="#FFFFFF" d="M70.8,154.028c-0.058-0.154-0.058-0.212-0.058-1.313c0.019-0.618,0.019-1.217,0.019-1.333
			c0-0.097,0-0.213,0-0.232s0-0.154,0-0.289c0-0.348,0-0.541,0.019-1.642c0-0.542,0-1.41,0-1.932c0-0.503,0-0.947,0-0.985
			c0.019-0.464,0.039-2.395,0.039-3.013c0.019-0.58,0.038-0.793,0.057-0.831c0.019-0.019,0.213-0.038,0.734-0.019
			c0.657,0,0.695,0,0.831,0.057c0.309,0.136,0.772,0.541,0.85,0.754c0.038,0.077,0.038,0.734,0.019,2.762c0,0.155,0,0.502,0,0.734
			c0,0.946-0.019,2.723-0.038,4.597c-0.019,1.062-0.019,1.99-0.019,2.047c0,0.174,0,0.908,0,1.159v0.193l-0.27,0.019
			c-0.155,0.019-0.502,0.019-0.811,0.019h-0.541l-0.213-0.116C71.128,154.492,70.877,154.241,70.8,154.028z"/>
		<path fill="#FFFFFF" d="M76.555,141.899c0.329-0.019,1.43-0.039,2.415-0.039c1.951,0,1.912,0,2.24,0.155
			c0.29,0.155,0.387,0.348,0.232,0.463c-0.097,0.078-0.193,0.097-0.734,0.097c-0.251,0.019-0.58,0.039-0.734,0.058
			c-0.173,0.019-0.367,0.038-0.444,0.038c-0.27,0-0.638,0.019-0.676,0.039c-0.019,0.019-0.019,0.057,0.019,0.135
			c0.039,0.078,0.039,0.173,0.039,0.715c0,0.367,0,0.695-0.019,0.733c-0.019,0.117-0.038,1.024-0.057,1.97
			c0,0.329-0.019,0.618-0.019,0.657c-0.019,0.039-0.039,0.406-0.039,0.811c0,0.406-0.019,0.928-0.039,1.179
			c0,0.27-0.019,0.657-0.019,0.908c-0.019,0.232-0.019,0.618-0.039,0.831c-0.039,0.754-0.058,1.681-0.078,2.82
			c-0.019,0.328-0.019,0.657-0.038,0.714c-0.019,0.117-0.174,0.252-0.329,0.29c-0.174,0.058-0.541,0.058-0.792,0.019
			c-0.676-0.096-1.352-0.502-1.449-0.811c-0.019-0.116-0.019-1.545,0.019-2.125c0.019-0.424,0.039-1.043,0.058-1.583
			c0-0.715,0.039-1.912,0.057-2.047c0.019-0.155,0.039-0.927,0.039-1.043c-0.019-0.155-0.019-0.232,0.019-0.618
			c0-0.193,0.019-0.521,0.019-0.715c0.019-0.425,0.039-1.371,0.057-2.144c0.019-0.29,0.039-0.56,0.039-0.58
			c0.019-0.019-0.155-0.039-0.715-0.039c-0.541,0-0.792-0.019-0.966-0.057c-0.541-0.096-0.849-0.367-0.657-0.56
			c0.019-0.039,0.174-0.096,0.309-0.116C74.547,141.995,74.682,141.976,76.555,141.899z"/>
		<path fill="#FFFFFF" d="M84.337,141.126c0.038,0.117,0.019,0.387-0.058,0.677c0,0.057-0.057,0.27-0.077,0.444
			c-0.116,0.599-0.116,0.638-0.213,0.715c-0.038,0.039-0.116,0.077-0.155,0.096c-0.116,0.039-0.367,0.058-0.521,0.039
			c-0.135-0.039-0.347-0.116-0.463-0.212c-0.232-0.155-0.329-0.521-0.348-1.333c-0.019-0.503,0-0.599,0.135-0.716
			C83.024,140.489,84.222,140.701,84.337,141.126z"/>
		<path fill="#FFFFFF" d="M89.165,142.227c0.503,0.019,0.695,0.058,1.179,0.213c0.386,0.116,0.946,0.483,1.043,0.676
			c0.019,0.039,0.096,0.155,0.155,0.232c0.116,0.213,0.232,0.521,0.309,0.946c0.077,0.425,0,1.855-0.135,2.434
			c-0.078,0.406-0.309,1.12-0.425,1.371c-0.232,0.482-0.56,0.733-0.889,0.695c-0.135-0.019-0.328-0.097-0.406-0.193
			c-0.096-0.077-0.039-0.367,0.155-0.792c0.058-0.135,0.212-0.599,0.232-0.734c0-0.057,0.039-0.174,0.058-0.251
			c0.019-0.058,0.057-0.213,0.077-0.348c0-0.116,0.039-0.289,0.058-0.367c0-0.077,0.039-0.347,0.039-0.598
			c0.019-0.542,0-0.793-0.174-1.372c-0.039-0.154-0.174-0.424-0.232-0.482c-0.058-0.039-0.213,0.058-0.368,0.212
			c-0.212,0.193-0.521,0.58-0.541,0.638c-0.019,0.039-0.077,0.096-0.116,0.174c-0.039,0.057-0.077,0.116-0.077,0.135
			c0,0-0.039,0.077-0.097,0.154c-0.135,0.213-0.116,0.174-0.406,0.734c-0.057,0.096-0.096,0.193-0.096,0.232
			c0,0.019-0.019,0.097-0.058,0.155c-0.038,0.078-0.154,0.368-0.232,0.599c-0.019,0.096-0.057,0.193-0.057,0.251
			c-0.019,0.039-0.039,0.135-0.058,0.193c0,0.077-0.019,0.135-0.039,0.155c-0.019,0.019-0.039,0.116-0.039,0.193
			c0,0.096-0.019,0.251-0.038,0.348c-0.019,0.251-0.019,0.598,0.019,0.888c0,0.193,0.038,0.29,0.193,0.599l0.193,0.386l0.444,0.425
			c1.738,1.719,1.622,1.603,1.873,2.163c0.116,0.27,0.116,0.811-0.019,0.946c-0.039,0.019-0.057,0.097-0.077,0.135
			c-0.019,0.097-0.368,0.464-0.56,0.599c-0.213,0.135-0.695,0.309-1.063,0.386c-0.406,0.078-0.753,0.096-1.178,0.039
			c-0.753-0.116-1.023-0.251-1.661-0.889c-0.251-0.251-0.425-0.56-0.425-0.714c0-0.097,0.116-0.232,0.213-0.232
			c0.173,0,0.406,0.155,0.579,0.386c0.097,0.135,0.425,0.425,0.56,0.503c0.039,0.019,0.58-0.039,0.657-0.078
			c0.077-0.038,0.328-0.29,0.367-0.367c0.096-0.155,0.155-0.348,0.135-0.483c-0.019-0.077-0.039-0.232-0.058-0.347
			c-0.019-0.27-0.077-0.367-0.328-0.618c-0.116-0.116-0.329-0.328-0.464-0.482c-0.155-0.155-0.328-0.309-0.386-0.367
			c-0.077-0.039-0.193-0.155-0.27-0.251c-0.096-0.097-0.232-0.252-0.329-0.348c-0.482-0.521-0.676-0.811-0.869-1.352
			c-0.058-0.116-0.097-0.251-0.117-0.29c-0.077-0.155-0.116-0.869-0.077-1.159c0.019-0.096,0.039-0.232,0.039-0.308
			c0.019-0.058,0.038-0.155,0.038-0.174c0.019-0.039,0.039-0.155,0.058-0.29c0.039-0.212,0.039-0.232,0.213-0.676
			c0.038-0.155,0.096-0.29,0.096-0.329c0-0.038,0-0.077,0.019-0.096c0,0,0.019-0.039,0.019-0.077
			c0.019-0.039,0.038-0.097,0.057-0.135c0.039-0.039,0.096-0.155,0.116-0.252c0.039-0.096,0.078-0.193,0.097-0.212
			c0.019-0.039,0.038-0.077,0.057-0.096c0-0.019,0.019-0.058,0.039-0.097c0-0.019,0.039-0.096,0.077-0.154
			c0.039-0.058,0.097-0.174,0.155-0.252c0.058-0.057,0.135-0.173,0.155-0.232c0-0.058,0.039-0.135,0.058-0.155
			c0.038-0.019,0.057-0.039,0.057-0.057c0-0.019,0.232-0.309,0.386-0.483c0.019-0.019,0.097-0.116,0.174-0.213
			c0.096-0.115,0.155-0.193,0.174-0.193c0.019,0,0.096-0.058,0.174-0.116c0.173-0.174,0.618-0.386,0.888-0.444
			C88.643,142.227,88.759,142.207,89.165,142.227z"/>
		<path fill="#FFFFFF" d="M104.208,141.513c0.483,0.096,0.831,0.29,1.12,0.56c0.329,0.328,0.329,0.347,0.329,0.984
			c0,0.657-0.039,2.801-0.058,3.148c-0.019,0.252-0.019,0.464-0.019,0.657c0.019,0.27-0.057,1.95-0.077,2.028
			c0,0.039-0.019,0.232-0.019,0.444c-0.019,0.193-0.019,0.463-0.039,0.56c-0.019,0.135-0.039,0.347-0.057,0.482
			c0,0.135-0.019,0.329-0.019,0.386c-0.058,0.483-0.078,0.657-0.116,0.734c-0.058,0.251-0.078,0.329-0.097,0.444
			c0,0.155-0.096,0.425-0.212,0.676c-0.039,0.077-0.058,0.174-0.058,0.193s-0.038,0.078-0.077,0.135
			c-0.039,0.039-0.096,0.135-0.116,0.213c-0.155,0.309-0.444,0.637-0.773,0.888c-0.193,0.155-0.482,0.29-0.676,0.329
			c-0.27,0.058-0.425,0.058-0.811,0c-0.56-0.077-0.695-0.116-1.043-0.232c-0.889-0.29-1.584-0.811-1.487-1.12
			c0.038-0.193,0.386-0.155,0.946,0.096l0.212,0.096l0.078-0.077c0.038-0.039,0.154-0.096,0.232-0.135
			c0.193-0.096,0.463-0.329,0.58-0.521c0.057-0.097,0.135-0.155,0.155-0.174c0.038-0.019,0.251-0.406,0.251-0.482
			c0-0.019,0.019-0.058,0.038-0.078c0.019-0.039,0.058-0.116,0.078-0.193c0.096-0.463,0.135-0.637,0.174-0.676
			c0.019-0.019,0.038-0.116,0.038-0.173c-0.019-0.097,0.019-0.174,0.039-0.213c0.019-0.038,0.039-0.232,0.077-0.58
			c0-0.27,0.039-0.618,0.058-0.753c0.039-0.155,0.058-0.502,0.058-0.946l0.019-0.695l-0.135,0.367
			c-0.193,0.444-0.328,0.869-0.328,0.946c0,0.019-0.019,0.058-0.019,0.078c-0.019,0.019-0.077,0.135-0.135,0.27
			c-0.039,0.135-0.116,0.309-0.135,0.386c-0.039,0.058-0.058,0.135-0.058,0.155c0,0.019-0.038,0.057-0.057,0.077
			c-0.019,0.019-0.039,0.078-0.039,0.097s-0.058,0.154-0.155,0.27c-0.077,0.135-0.155,0.251-0.155,0.29
			c-0.019,0.019-0.057,0.077-0.096,0.116c-0.058,0.057-0.135,0.155-0.174,0.212c-0.193,0.213-0.56,0.29-1.043,0.232
			c-0.58-0.096-1.062-0.308-1.43-0.657c-0.308-0.309-0.521-0.56-0.541-0.676c-0.019-0.039-0.057-0.135-0.077-0.212
			c-0.039-0.097-0.078-0.251-0.116-0.348c-0.019-0.096-0.058-0.27-0.078-0.367c-0.039-0.096-0.039-0.193-0.039-0.213
			c0-0.038,0-0.251-0.038-0.463c-0.058-0.618-0.058-2.183,0.038-2.666c0.058-0.347,0.117-1.082,0.117-1.371
			c0-0.077,0.019-0.309,0.057-0.463c0.039-0.155,0.058-0.309,0.058-0.329c0-0.057,0.039-0.425,0.096-0.715
			c0-0.116,0.039-0.212,0.039-0.212c0.019-0.019,0.039-0.058,0.039-0.097c0-0.134,0.096-0.27,0.232-0.328
			c0.618-0.27,2.028,0.251,2.298,0.831c0.058,0.135,0.058,0.155,0.019,0.328c-0.019,0.117-0.039,0.232-0.058,0.252
			c-0.019,0.038-0.019,0.154-0.038,0.27c0,0.116-0.019,0.27-0.039,0.328c-0.019,0.078-0.039,0.213-0.058,0.29
			c-0.019,0.309-0.057,0.715-0.096,0.792c0,0.058,0,0.116,0,0.116c0,0.058-0.057,0.889-0.096,0.985c0,0.039-0.019,0.232-0.039,0.406
			c0,0.174-0.019,0.425-0.039,0.56c-0.038,0.406,0.019,1.835,0.097,2.067c0.019,0.116,0.019,0.116,0.077,0.078
			c0.039-0.039,0.174-0.193,0.309-0.368c0.155-0.173,0.27-0.308,0.27-0.328c0.019,0,0.096-0.116,0.193-0.232
			c0.155-0.212,0.368-0.56,0.56-0.966c0.058-0.096,0.117-0.232,0.174-0.308c0.155-0.232,0.29-0.464,0.502-0.908
			c0.174-0.367,0.213-0.444,0.213-0.598c0-0.097,0.019-0.425,0.019-0.715c0.038-0.618,0.057-1.681,0.057-2.472
			c0-0.521,0-0.541,0.078-0.618C103.32,141.513,103.802,141.435,104.208,141.513z"/>
		<path fill="#FFFFFF" d="M112.724,147.461c0,0.116-0.019,0.29-0.039,0.387c-0.039,0.424-0.116,1.062-0.155,1.294
			c-0.019,0.096-0.039,0.213-0.057,0.27c-0.019,0.174-0.097,0.541-0.155,0.734c-0.019,0.096-0.039,0.212-0.039,0.251
			c-0.058,0.212-0.174,0.772-0.232,0.966c-0.058,0.135-0.078,0.251-0.078,0.29c0,0.019-0.019,0.057-0.019,0.077
			c-0.019,0.019-0.057,0.116-0.096,0.232c-0.039,0.135-0.096,0.308-0.135,0.386c-0.039,0.077-0.077,0.155-0.077,0.173
			c0,0.019-0.019,0.058-0.039,0.117c-0.078,0.135-0.174,0.367-0.174,0.367c0,0.019-0.212,0.521-0.27,0.599
			c0,0.038-0.057,0.116-0.096,0.173c-0.039,0.078-0.116,0.193-0.174,0.29c-0.444,0.56-0.85,0.734-1.642,0.638
			c-0.309-0.039-0.695-0.155-1.062-0.348c-0.425-0.212-0.638-0.425-0.985-1.005c-0.039-0.038-0.077-0.135-0.077-0.193
			c-0.019-0.058-0.058-0.193-0.078-0.27c-0.039-0.096-0.077-0.232-0.077-0.309c-0.058-0.309-0.097-0.541-0.135-0.58
			c0-0.019-0.019-0.096-0.019-0.173c-0.039-0.213-0.116-1.063-0.116-1.159c-0.019-0.058-0.019-0.29-0.019-0.541
			c0-0.232-0.019-0.502-0.039-0.618c-0.019-0.096-0.019-0.289,0-0.406c0.019-0.135,0.019-0.29,0-0.347
			c-0.019-0.058-0.019-0.116,0.019-0.155c0-0.058,0.019-0.155,0.019-0.251c0-0.078,0.019-0.232,0.019-0.329
			c0.057-0.309,0.116-0.831,0.116-0.966c0-0.077,0.038-0.193,0.057-0.27c0.039-0.057,0.058-0.116,0.039-0.155
			c0-0.038,0.019-0.173,0.058-0.308c0.019-0.135,0.057-0.309,0.077-0.387c0-0.077,0.019-0.135,0.039-0.154
			c0.019-0.019,0.039-0.078,0.039-0.155c0-0.078,0-0.155,0.019-0.193c0.019-0.019,0.039-0.096,0.039-0.155
			c0.019-0.057,0.039-0.116,0.058-0.135c0-0.019,0.019-0.057,0.019-0.096c0-0.039,0.038-0.135,0.057-0.232
			c0.039-0.078,0.116-0.27,0.174-0.444c0.057-0.155,0.116-0.309,0.135-0.348c0.019-0.038,0.077-0.155,0.116-0.27
			c0.096-0.27,0.155-0.386,0.309-0.559c0.057-0.097,0.135-0.193,0.155-0.232c0.155-0.232,0.232-0.29,0.444-0.406
			c0.135-0.058,0.309-0.135,0.425-0.155c0.329-0.077,0.908-0.038,1.391,0.096c0.368,0.117,1.256,0.677,1.604,1.024
			c0.289,0.27,0.424,0.56,0.502,1.024c0.174,0.908,0.174,0.888,0.174,1.815C112.744,146.882,112.744,147.365,112.724,147.461z
			 M111.933,146.322c-0.019-0.464-0.039-0.58-0.174-1.044c-0.097-0.444-0.155-0.618-0.348-1.004
			c-0.135-0.271-0.212-0.387-0.367-0.522c-0.155-0.173-0.174-0.173-0.193-0.116c-0.038,0.039-0.077,0.096-0.116,0.135
			c-0.038,0.039-0.116,0.116-0.135,0.174c-0.038,0.077-0.077,0.174-0.116,0.212c-0.019,0.058-0.077,0.174-0.116,0.252
			c-0.116,0.232-0.155,0.308-0.193,0.367c-0.038,0.096-0.096,0.251-0.135,0.425c-0.038,0.193-0.057,0.232-0.135,0.406
			c-0.019,0.057-0.057,0.155-0.077,0.193c0,0.039-0.019,0.155-0.039,0.252c-0.039,0.116-0.077,0.27-0.077,0.347
			c-0.039,0.077-0.058,0.193-0.058,0.232c-0.019,0.058-0.039,0.117-0.039,0.117c-0.019,0.019-0.038,0.077-0.038,0.135
			c0,0.057-0.019,0.212-0.039,0.328c-0.019,0.135-0.058,0.348-0.077,0.464c0,0.135-0.039,0.29-0.039,0.347
			c-0.116,0.386-0.155,2.337-0.078,3.129c0.078,0.831,0.174,1.545,0.213,1.604c0.019,0.019,0.039,0.096,0.039,0.193
			c0.019,0.078,0.019,0.174,0.038,0.174c0.019,0.039,0.541-0.482,0.541-0.541c0,0,0.019-0.039,0.058-0.077
			c0.057-0.078,0.193-0.27,0.251-0.368c0.019-0.038,0.078-0.135,0.116-0.212c0.116-0.193,0.464-0.889,0.503-1.005
			c0.019-0.057,0.057-0.155,0.096-0.212c0.135-0.309,0.386-1.198,0.541-1.894C111.933,147.964,111.99,147.365,111.933,146.322z"/>
		<path fill="#FFFFFF" d="M113.842,146.92c0.019-0.193,0.039-0.367,0.039-0.406c-0.019-0.155,0.057-0.733,0.077-0.772
			c0.019-0.019,0.019-0.116,0.019-0.251c0-0.116,0-0.252,0.019-0.309c0.019-0.058,0.039-0.213,0.039-0.367
			c0.019-0.135,0.039-0.309,0.039-0.368c0.038-0.29,0.096-1.062,0.077-1.101c0-0.019,0-0.077,0.019-0.135
			c0.039-0.096,0.077-0.502,0.057-0.888c0-0.117,0.019-0.174,0.058-0.212c0.425-0.465,2.086-0.058,2.511,0.598
			c0.038,0.057,0.057,0.135,0.057,0.251c0,0.29-0.038,0.792-0.096,1.333c-0.039,0.309-0.058,0.695-0.077,0.869
			c0,0.174-0.019,0.348-0.019,0.386c-0.019,0.058-0.039,0.174-0.039,0.27c0,0.309-0.058,0.811-0.096,0.889
			c-0.019,0.057-0.019,0.116-0.019,0.155c0,0.347-0.019,0.541-0.039,0.695c-0.019,0.116-0.039,0.27-0.039,0.367
			c-0.096,1.41-0.116,1.738-0.116,2.395c0,0.482,0,0.695,0.039,1.448c0.019,0.347,0.116,1.178,0.155,1.178
			c0.019,0,0.367-0.347,0.463-0.502c0.193-0.251,0.329-0.425,0.329-0.464c0,0,0.039-0.077,0.077-0.135
			c0.213-0.308,0.503-0.984,0.715-1.642c0.135-0.425,0.213-0.657,0.386-1.101c0.309-0.753,0.368-1.043,0.387-2.183
			c0.019-0.753,0.038-1.391,0.077-1.583c0-0.097,0.019-0.329,0.019-0.483c0-0.135,0.019-0.347,0.039-0.425c0-0.077,0-0.27,0-0.425
			c0.019-0.135,0.019-0.328,0.038-0.386c0.019-0.135,0.039-0.251,0.058-0.618c0.019-0.116,0.039-0.252,0.058-0.27
			c0.019-0.019,0.019-0.155,0.038-0.309c0-0.155,0.019-0.308,0.039-0.347c0.019-0.019,0.096-0.078,0.174-0.117
			c0.116-0.057,0.193-0.077,0.463-0.096c0.368,0,0.58,0.019,0.946,0.135c0.329,0.117,0.618,0.27,0.812,0.463
			c0.173,0.175,0.212,0.29,0.173,0.465c0,0.057-0.019,0.193-0.019,0.289c-0.019,0.116-0.038,0.251-0.038,0.348
			c-0.019,0.057-0.039,0.155-0.019,0.155c0,0.019,0,0.116-0.019,0.212c-0.019,0.096-0.039,0.386-0.058,0.618
			c-0.019,0.251-0.038,0.521-0.038,0.618c-0.019,0.096-0.019,0.348-0.039,0.58c0,0.232-0.019,0.482-0.019,0.56
			c-0.019,0.077-0.039,0.347-0.039,0.618s-0.019,0.521-0.019,0.541c-0.019,0.078-0.058,1.43-0.058,1.758
			c0.019,0.116,0.019,0.27,0.019,0.308c-0.019,0.734,0,2.106,0.039,2.743c0,0.155,0.019,0.368,0.038,0.483
			c0.097,0.676,0.116,0.908,0.039,1.043c-0.058,0.116-0.116,0.155-0.348,0.27c-0.27,0.116-0.541,0.116-0.869,0.039
			c-0.27-0.078-0.406-0.135-0.734-0.367c-0.29-0.193-0.444-0.368-0.521-0.522s-0.155-0.637-0.193-1.023
			c-0.038-0.599-0.057-0.946-0.057-1.12c0-0.096-0.019-0.135-0.019-0.096c-0.039,0.057-0.174,0.541-0.29,0.908
			c-0.058,0.174-0.116,0.348-0.116,0.367c-0.058,0.117-0.096,0.252-0.116,0.29c0,0.039-0.116,0.29-0.251,0.58
			c-0.117,0.251-0.425,0.657-0.657,0.889c-0.251,0.251-0.463,0.328-0.888,0.347c-0.174,0-0.406-0.019-0.541-0.039
			c-0.869-0.154-1.796-0.811-1.912-1.352c-0.019-0.038-0.058-0.193-0.097-0.309c-0.038-0.116-0.077-0.251-0.077-0.289
			c0-0.039-0.019-0.155-0.039-0.232c-0.019-0.077-0.039-0.251-0.039-0.367s-0.019-0.309-0.057-0.406
			c-0.019-0.116-0.039-0.27-0.039-0.348c0-0.077,0-0.482,0-0.908c0-1.005,0.019-1.777,0.058-2.028
			c0.019-0.116,0.038-0.348,0.038-0.521C113.803,147.404,113.823,147.094,113.842,146.92z"/>
		<path fill="#FFFFFF" d="M127.728,144.661c0.309-0.618,0.599-1.082,0.927-1.468c0.232-0.252,0.638-0.657,0.85-0.793l0.213-0.135
			l0.328-0.019c0.27,0,0.348,0,0.58,0.078c0.155,0.039,0.367,0.116,0.483,0.154c0.232,0.117,0.657,0.368,0.792,0.522
			c0.174,0.155,0.463,0.521,0.521,0.637c0.096,0.213,0.116,1.044,0.039,1.642c0,0.078-0.039,0.232-0.039,0.368
			c-0.019,0.135-0.039,0.289-0.058,0.328c-0.019,0.058-0.057,0.174-0.057,0.232c-0.039,0.078-0.058,0.174-0.078,0.213
			c-0.019,0.039-0.057,0.193-0.077,0.309c-0.039,0.116-0.077,0.251-0.096,0.27c0,0-0.019,0.038-0.019,0.077
			c0,0.019-0.039,0.116-0.096,0.213c-0.078,0.077-0.117,0.193-0.117,0.212c0,0.039-0.019,0.096-0.057,0.135
			c-0.019,0.039-0.058,0.096-0.058,0.116c0,0.078-0.116,0.29-0.174,0.329c-0.038,0-0.057,0.039-0.057,0.077
			c0,0.019-0.039,0.116-0.096,0.174c-0.039,0.077-0.078,0.155-0.078,0.155c0,0.019-0.039,0.096-0.096,0.155
			c-0.096,0.135-0.232,0.347-0.309,0.502c-0.019,0.039-0.116,0.174-0.212,0.29c-0.483,0.599-1.044,1.043-1.565,1.275
			c-0.155,0.077-0.329,0.155-0.386,0.173c-0.135,0.078-0.444,0.193-0.521,0.193c-0.039,0-0.155,0.019-0.27,0.077
			c-0.117,0.039-0.27,0.078-0.348,0.097c-0.057,0.019-0.116,0.038-0.116,0.057c0,0,0.096,0.135,0.212,0.29
			c0.117,0.135,0.213,0.29,0.232,0.348c0.039,0.038,0.096,0.173,0.174,0.27c0.057,0.096,0.116,0.193,0.116,0.212
			c0,0.096,0.463,0.734,0.792,1.101l0.155,0.155l0.135-0.019c0.077-0.019,0.193-0.057,0.251-0.096
			c0.135-0.058,0.482-0.309,0.676-0.502c0.251-0.232,0.695-0.812,0.889-1.198c0.116-0.212,0.251-0.367,0.308-0.347
			c0.019,0,0.058,0.057,0.078,0.096c0.057,0.232-0.232,0.811-0.831,1.661c-0.444,0.618-0.831,0.985-1.179,1.062
			c-0.077,0.019-0.251,0.019-0.386,0.019c-0.657,0.019-1.391-0.347-2.047-1.005c-0.386-0.386-0.618-0.657-0.792-0.984
			c-0.078-0.135-0.174-0.252-0.174-0.252c-0.039,0-0.193,0.58-0.29,0.966c-0.038,0.193-0.27,0.869-0.328,0.985
			c-0.039,0.058-0.058,0.135-0.058,0.174c0,0.096-0.135,0.232-0.29,0.309c-0.212,0.077-0.676,0.096-0.966,0.019
			c-0.637-0.135-1.139-0.425-1.294-0.773c-0.058-0.135-0.078-0.193-0.058-0.637c0-0.734,0.019-1.256,0.039-2.106
			c0-0.444,0.019-1.178,0.019-1.642c0.019-0.464,0.019-0.985,0.038-1.14c0.019-0.251,0.019-0.444,0.019-0.888
			c0-0.039,0-0.251,0-0.464c0.019-0.193,0.019-0.463,0.019-0.598c0-0.117,0-0.252,0-0.309c0.039-0.966,0.058-2.298,0.058-2.956
			c0-0.116,0-0.328,0.019-0.463l0.019-0.232l0.135-0.155c0.27-0.27,0.715-0.347,1.236-0.193c0.503,0.135,0.869,0.368,1.12,0.772
			l0.135,0.213l-0.019,0.618c-0.019,0.348-0.019,0.869-0.038,1.179c0,0.308-0.019,0.811-0.019,1.12
			c-0.019,0.308-0.019,1.023-0.039,1.564c0,0.541-0.019,1.082-0.019,1.179c-0.019,0.135-0.019,0.289-0.019,0.386
			c0,0.116,0,0.232,0,0.27c0,0.057,0,0.309,0,0.56l-0.019,0.444l0.096-0.039c0.077-0.039,0.096-0.078,0.135-0.155
			c0.096-0.425,0.444-1.526,0.618-2.047c0.155-0.483,0.638-1.758,0.793-2.125c0.038-0.038,0.096-0.212,0.173-0.367
			C127.361,145.414,127.554,145.008,127.728,144.661z M127.863,146.457c-0.096,0.232-0.174,0.444-0.174,0.463
			c-0.019,0.039-0.096,0.213-0.173,0.425c-0.078,0.193-0.155,0.406-0.193,0.483c-0.039,0.057-0.057,0.135-0.057,0.155
			c0,0.019,0,0.057-0.019,0.077c-0.019,0.019-0.058,0.096-0.078,0.174c-0.038,0.096-0.057,0.193-0.077,0.232
			c-0.019,0.039-0.309,0.908-0.368,1.12c-0.019,0.057,0,0.057,0.136,0c0.057-0.039,0.135-0.078,0.173-0.116
			c0.039-0.019,0.097-0.058,0.155-0.058c0.039-0.019,0.096-0.057,0.135-0.077c0.039-0.039,0.116-0.097,0.174-0.135
			c0.135-0.097,0.676-0.676,0.734-0.773c0.096-0.135,0.212-0.308,0.251-0.347c0.019-0.019,0.057-0.078,0.077-0.135
			c0.019-0.058,0.078-0.135,0.116-0.174c0.039-0.039,0.058-0.096,0.058-0.116c0-0.019,0.019-0.078,0.057-0.116
			c0.039-0.039,0.078-0.135,0.117-0.232c0.038-0.077,0.096-0.173,0.135-0.232c0.116-0.135,0.193-0.29,0.232-0.406
			c0.019-0.058,0.039-0.135,0.058-0.155c0.057-0.057,0.135-0.232,0.154-0.328c0.019-0.039,0.039-0.135,0.058-0.174
			s0.039-0.096,0.039-0.116c0-0.097,0.096-0.406,0.135-0.425c0-0.019,0.019-0.078,0.019-0.155c0-0.116,0.077-0.58,0.096-0.618
			c0.039-0.077,0.057-1.043,0.039-1.197l-0.039-0.096l-0.174,0.174c-0.193,0.232-0.734,0.869-0.908,1.139
			C128.442,145.163,128.211,145.646,127.863,146.457z"/>
		<path fill="#FFFFFF" d="M71.968,167.624c0-0.097,0-0.193,0-0.251c0-0.039,0-0.483,0-0.985c0-0.483,0-1.005,0-1.159
			c0-0.135,0-0.27,0-0.309c0-0.154,0.078-0.618,0.116-0.676c0.039-0.096,0.252-0.193,0.425-0.212c0.097,0,0.309-0.019,0.503-0.019
			c0.27-0.019,0.386-0.019,0.463-0.058c0.29-0.135,1.197-0.347,1.951-0.444c0.869-0.097,2.086,0.27,2.878,0.85
			c0.27,0.212,0.541,0.637,0.695,1.12c0.096,0.252,0.096,0.27,0.096,0.754c0,0.58-0.019,0.946-0.077,1.023
			c-0.019,0.039-0.058,0.155-0.058,0.252c-0.019,0.096-0.038,0.232-0.057,0.27c-0.019,0.057-0.058,0.135-0.058,0.173
			c0,0.097,0,0.116-0.096,0.329c-0.039,0.058-0.078,0.155-0.078,0.212c0,0.039-0.038,0.135-0.077,0.193s-0.058,0.116-0.058,0.135
			c0,0.039-0.212,0.521-0.251,0.56c0,0.019-0.019,0.058-0.019,0.096c0,0.039-0.038,0.116-0.096,0.174
			c-0.058,0.077-0.116,0.155-0.116,0.174s-0.309,0.502-0.348,0.541c-0.038,0.038-0.289,0.347-0.289,0.367
			c0,0.019,0.077,0.058,0.173,0.096c0.232,0.097,0.638,0.329,0.869,0.503c0.096,0.077,0.27,0.251,0.367,0.406
			c0.155,0.212,0.213,0.29,0.232,0.425c0.019,0.077,0.057,0.212,0.077,0.27c0.019,0.057,0.058,0.135,0.077,0.173
			c0.058,0.174,0.117,0.677,0.097,0.812c0,0.057-0.019,0.289-0.039,0.482c0,0.29-0.019,0.444-0.058,0.521
			c-0.019,0.078-0.057,0.193-0.057,0.232c0,0.057-0.096,0.232-0.174,0.406c-0.155,0.232-0.212,0.328-0.463,0.56
			c-0.425,0.386-0.715,0.541-1.179,0.657c-0.212,0.038-1.545,0.077-2.008,0.038c-0.174-0.019-0.406-0.077-0.599-0.135
			c-0.212-0.057-0.347-0.077-0.444-0.077c-0.598,0.039-0.985-0.019-1.409-0.174c-0.464-0.193-0.715-0.444-0.812-0.792
			c-0.038-0.155-0.096-3.284-0.096-5.08c0-1.854,0-2.125,0-2.221C71.968,167.797,71.968,167.701,71.968,167.624z M74.595,164.765
			c0.096,0.116,0.096,0.232,0.058,0.347c-0.058,0.116-0.078,0.985-0.058,1.7c0,0.328,0,1.236,0,2.008c0,0.792,0.019,1.43,0.039,1.43
			c0,0,0.019-0.019,0.019-0.058c0.019-0.039,0.096-0.135,0.173-0.232c0.097-0.097,0.193-0.232,0.232-0.29
			c0.038-0.078,0.096-0.155,0.116-0.193c0.116-0.096,0.386-0.521,0.386-0.58c0-0.019,0.019-0.077,0.058-0.096
			c0.019-0.039,0.057-0.077,0.057-0.096c0-0.039,0.096-0.251,0.213-0.464c0.116-0.27,0.193-0.444,0.193-0.521
			c0-0.039,0.019-0.116,0.058-0.174c0.019-0.038,0.039-0.135,0.057-0.212c0.039-0.058,0.058-0.155,0.058-0.193
			c0.019-0.019,0.077-0.251,0.135-0.521c0.116-0.637,0.116-1.082,0.019-1.468c-0.058-0.135-0.116-0.29-0.155-0.348
			c-0.019-0.038-0.096-0.116-0.135-0.193c-0.039-0.058-0.116-0.116-0.135-0.135c-0.135-0.039-0.521-0.019-0.889,0.038
			c-0.212,0.039-0.425,0.078-0.463,0.078C74.499,164.611,74.499,164.63,74.595,164.765z M76.508,171.95l-0.039-0.077l-0.116,0.096
			c-0.057,0.039-0.193,0.155-0.251,0.232c-0.212,0.193-0.56,0.406-0.792,0.483c-0.096,0.019-0.309,0.039-0.444,0.039h-0.251
			l0.019,0.792c0,0.425,0.019,1.043,0.019,1.352s0.019,0.618,0.038,0.676l0.019,0.096l0.213-0.019c0.096,0,0.29-0.039,0.386-0.058
			c0.212-0.058,0.309-0.116,0.482-0.309c0.058-0.057,0.155-0.155,0.213-0.212c0.135-0.135,0.309-0.483,0.367-0.657
			c0-0.039,0.058-0.174,0.096-0.271c0.058-0.077,0.097-0.193,0.097-0.232s0-0.077,0.019-0.096c0.038-0.039,0.077-0.444,0.096-0.85
			c0-0.155-0.096-0.753-0.135-0.869C76.546,172.047,76.508,171.989,76.508,171.95z"/>
		<path fill="#FFFFFF" d="M80.35,175.484c-0.058-0.154-0.058-0.212-0.058-1.313c0.019-0.618,0.019-1.217,0.019-1.333
			c0-0.097,0-0.213,0-0.232s0-0.154,0-0.289c0-0.348,0-0.541,0.019-1.642c0-0.542,0-1.41,0-1.932c0-0.503,0-0.947,0-0.985
			c0.019-0.464,0.039-2.395,0.039-3.013c0.019-0.58,0.038-0.793,0.057-0.831c0.019-0.019,0.213-0.039,0.734-0.019
			c0.657,0,0.695,0,0.831,0.057c0.309,0.135,0.772,0.542,0.85,0.754c0.038,0.077,0.038,0.734,0.019,2.762c0,0.155,0,0.502,0,0.734
			c0,0.946-0.019,2.723-0.038,4.597c-0.019,1.062-0.019,1.99-0.019,2.047c0,0.174,0,0.908,0,1.159v0.193l-0.27,0.019
			c-0.155,0.019-0.502,0.019-0.811,0.019H81.18l-0.213-0.116C80.678,175.948,80.427,175.697,80.35,175.484z"/>
		<path fill="#FFFFFF" d="M88.789,166.117c0.309-0.618,0.599-1.082,0.927-1.469c0.232-0.251,0.638-0.657,0.85-0.792l0.213-0.135
			l0.328-0.019c0.27,0,0.348,0,0.58,0.078c0.155,0.038,0.367,0.116,0.483,0.155c0.232,0.116,0.657,0.367,0.792,0.521
			c0.174,0.155,0.463,0.521,0.521,0.637c0.096,0.213,0.116,1.044,0.039,1.642c0,0.078-0.039,0.232-0.039,0.368
			c-0.019,0.135-0.039,0.289-0.058,0.328c-0.019,0.058-0.057,0.174-0.057,0.232c-0.039,0.078-0.058,0.174-0.078,0.213
			c-0.019,0.039-0.057,0.193-0.077,0.309c-0.039,0.116-0.077,0.251-0.096,0.27c0,0-0.019,0.038-0.019,0.077
			c0,0.019-0.039,0.116-0.096,0.213c-0.078,0.077-0.117,0.193-0.117,0.212c0,0.039-0.019,0.096-0.057,0.135
			c-0.019,0.039-0.058,0.096-0.058,0.116c0,0.078-0.116,0.29-0.174,0.329c-0.038,0-0.057,0.039-0.057,0.077
			c0,0.019-0.039,0.116-0.096,0.174c-0.039,0.077-0.078,0.155-0.078,0.155c0,0.019-0.039,0.096-0.096,0.155
			c-0.096,0.135-0.232,0.347-0.309,0.502c-0.019,0.039-0.116,0.174-0.212,0.29c-0.483,0.599-1.044,1.043-1.565,1.275
			c-0.155,0.077-0.329,0.155-0.386,0.173c-0.135,0.078-0.444,0.193-0.521,0.193c-0.039,0-0.155,0.019-0.27,0.077
			c-0.117,0.039-0.27,0.078-0.348,0.097c-0.057,0.019-0.116,0.038-0.116,0.057c0,0,0.096,0.135,0.212,0.29
			c0.117,0.135,0.213,0.29,0.232,0.348c0.038,0.038,0.096,0.173,0.174,0.27c0.057,0.096,0.116,0.193,0.116,0.212
			c0,0.096,0.463,0.734,0.792,1.101l0.155,0.155l0.135-0.019c0.077-0.019,0.193-0.057,0.251-0.096
			c0.135-0.058,0.482-0.309,0.676-0.502c0.251-0.232,0.695-0.812,0.889-1.198c0.116-0.212,0.251-0.367,0.308-0.347
			c0.019,0,0.058,0.057,0.078,0.096c0.057,0.232-0.232,0.811-0.831,1.661c-0.444,0.618-0.831,0.985-1.179,1.062
			c-0.077,0.019-0.251,0.019-0.386,0.019c-0.657,0.019-1.391-0.347-2.047-1.005c-0.386-0.386-0.618-0.657-0.792-0.984
			c-0.078-0.135-0.174-0.252-0.174-0.252c-0.039,0-0.193,0.58-0.29,0.966c-0.038,0.193-0.27,0.869-0.328,0.985
			c-0.039,0.058-0.058,0.135-0.058,0.174c0,0.096-0.135,0.232-0.29,0.309c-0.212,0.077-0.676,0.096-0.966,0.019
			c-0.637-0.135-1.14-0.425-1.294-0.773c-0.058-0.135-0.078-0.193-0.058-0.637c0-0.734,0.019-1.256,0.039-2.106
			c0-0.444,0.019-1.178,0.019-1.642c0.019-0.464,0.019-0.985,0.038-1.14c0.019-0.251,0.019-0.444,0.019-0.888
			c0-0.039,0-0.251,0-0.464c0.019-0.193,0.019-0.463,0.019-0.598c0-0.117,0-0.252,0-0.309c0.039-0.966,0.058-2.298,0.058-2.956
			c0-0.116,0-0.328,0.019-0.463l0.019-0.232l0.135-0.154c0.27-0.27,0.715-0.348,1.236-0.193c0.503,0.135,0.869,0.367,1.12,0.772
			l0.135,0.213l-0.019,0.618c-0.019,0.348-0.019,0.869-0.038,1.179c0,0.308-0.019,0.811-0.019,1.12
			c-0.019,0.308-0.019,1.023-0.039,1.564c0,0.541-0.019,1.082-0.019,1.179c-0.019,0.135-0.019,0.289-0.019,0.386
			c0,0.116,0,0.232,0,0.27c0,0.057,0,0.309,0,0.56l-0.019,0.444l0.097-0.039c0.077-0.039,0.096-0.078,0.135-0.155
			c0.096-0.425,0.444-1.526,0.618-2.047c0.155-0.483,0.638-1.758,0.793-2.125c0.038-0.038,0.096-0.212,0.173-0.367
			C88.422,166.87,88.615,166.464,88.789,166.117z M88.924,167.914c-0.096,0.232-0.174,0.444-0.174,0.463
			c-0.019,0.039-0.096,0.213-0.173,0.425c-0.078,0.193-0.155,0.406-0.193,0.483c-0.039,0.057-0.057,0.135-0.057,0.155
			c0,0.019,0,0.057-0.019,0.077c-0.019,0.019-0.058,0.096-0.078,0.174c-0.038,0.096-0.057,0.193-0.077,0.232
			c-0.019,0.039-0.309,0.908-0.367,1.12c-0.019,0.057,0,0.057,0.135,0c0.057-0.039,0.135-0.078,0.173-0.116
			c0.039-0.019,0.097-0.058,0.155-0.058c0.039-0.019,0.096-0.057,0.135-0.077c0.039-0.039,0.116-0.097,0.174-0.135
			c0.135-0.097,0.676-0.676,0.734-0.773c0.096-0.135,0.212-0.308,0.251-0.347c0.019-0.019,0.057-0.078,0.077-0.135
			c0.019-0.058,0.078-0.135,0.116-0.174c0.039-0.039,0.058-0.096,0.058-0.116c0-0.019,0.019-0.078,0.057-0.116
			c0.039-0.039,0.078-0.135,0.117-0.232c0.038-0.077,0.096-0.173,0.135-0.232c0.116-0.135,0.193-0.29,0.232-0.406
			c0.019-0.058,0.039-0.135,0.058-0.155c0.057-0.057,0.135-0.232,0.154-0.328c0.019-0.039,0.039-0.135,0.058-0.174
			s0.039-0.096,0.039-0.116c0-0.097,0.096-0.406,0.135-0.425c0-0.019,0.019-0.078,0.019-0.155c0-0.116,0.077-0.58,0.096-0.618
			c0.039-0.077,0.057-1.043,0.039-1.197l-0.039-0.096l-0.174,0.174c-0.193,0.232-0.734,0.869-0.908,1.139
			C89.504,166.619,89.272,167.102,88.924,167.914z"/>
		<path fill="#FFFFFF" d="M96.802,163.355c0.329-0.019,1.43-0.039,2.415-0.039c1.951,0,1.912,0,2.24,0.155
			c0.29,0.155,0.387,0.347,0.232,0.464c-0.097,0.077-0.193,0.096-0.734,0.096c-0.251,0.019-0.58,0.039-0.734,0.057
			c-0.173,0.019-0.367,0.039-0.444,0.039c-0.27,0-0.638,0.019-0.676,0.039c-0.019,0.019-0.019,0.057,0.019,0.135
			c0.039,0.077,0.039,0.174,0.039,0.715c0,0.367,0,0.695-0.019,0.733c-0.019,0.117-0.038,1.024-0.057,1.97
			c0,0.329-0.019,0.618-0.019,0.657c-0.019,0.039-0.039,0.406-0.039,0.811c0,0.406-0.019,0.928-0.039,1.179
			c0,0.27-0.019,0.657-0.019,0.908c-0.019,0.232-0.019,0.618-0.039,0.831c-0.039,0.754-0.058,1.681-0.078,2.82
			c-0.019,0.328-0.019,0.657-0.038,0.714c-0.019,0.117-0.174,0.252-0.329,0.29c-0.174,0.058-0.541,0.058-0.792,0.019
			c-0.676-0.096-1.352-0.502-1.449-0.811c-0.019-0.116-0.019-1.545,0.019-2.125c0.019-0.424,0.039-1.043,0.058-1.583
			c0-0.715,0.039-1.912,0.057-2.047c0.019-0.155,0.039-0.927,0.039-1.043c-0.019-0.155-0.019-0.232,0.019-0.618
			c0-0.193,0.019-0.521,0.019-0.715c0.019-0.425,0.039-1.371,0.057-2.144c0.019-0.29,0.039-0.56,0.039-0.58
			c0.019-0.019-0.155-0.039-0.715-0.039c-0.541,0-0.792-0.019-0.966-0.057c-0.541-0.097-0.849-0.368-0.657-0.56
			c0.019-0.039,0.174-0.096,0.309-0.116C94.794,163.451,94.929,163.432,96.802,163.355z"/>
		<path fill="#FFFFFF" d="M102.749,175.253c-0.019-0.116-0.019-0.657,0-2.376c0.019-0.502,0.019-0.946,0.019-1.004
			c0-0.116,0-0.425,0.019-1.044c0-0.29,0.019-0.56,0-0.618c0-0.096,0-0.251,0-0.715c0-0.212,0-0.444,0-0.521
			c0-0.058,0.019-0.521,0.019-1.044c0.019-0.482,0.019-1.39,0.038-1.97c0.019-1.603,0.019-1.796,0.058-1.874
			c0.019-0.038,0.096-0.096,0.174-0.135c0.155-0.077,0.56-0.116,0.849-0.057c0.599,0.096,1.256,0.464,1.449,0.792
			c0.077,0.135,0.096,0.193,0.077,1.584c0,0.367-0.019,0.831-0.019,1.023c0,0.193,0,0.425-0.019,0.502c0,0.078,0,0.869-0.019,1.758
			c0,0.888,0,1.719,0,1.834s0,0.232,0,0.251c0.019,0.019,0.328,0.019,1.004,0c0.56,0,1.236-0.019,1.507-0.019h0.522v-1.218
			c0-0.676,0.019-1.989,0.038-2.935c0-0.927,0.019-1.758,0.019-1.816c0-0.039,0-0.174-0.019-0.27c0-0.367,0.039-1.005,0.078-1.082
			c0.232-0.464,1.391-0.56,2.144-0.193c0.406,0.193,0.483,0.329,0.483,0.831c0,0.174,0,0.368,0,0.406
			c0,0.657-0.019,2.337-0.019,2.897c0,0.309-0.039,2.917-0.039,3.284c0,0.058,0,0.155,0,0.232c0,0.096,0,0.733-0.019,1.448
			c0,1.159-0.019,1.816,0,2.047c0,0.155,0,0.193-0.019,0.386c-0.019,0.135-0.038,0.193-0.116,0.27
			c-0.173,0.213-0.521,0.309-1.043,0.309c-0.676,0-1.333-0.232-1.487-0.521c-0.019-0.058-0.039-0.193-0.039-0.348
			c0-0.135,0-0.289,0-0.328c0-0.019,0-0.637,0-1.352l0.019-1.314l-0.251,0.019c-0.135,0.019-0.56,0.058-0.908,0.078
			c-0.347,0.038-0.811,0.077-1.004,0.096c-0.213,0.019-0.387,0.039-0.387,0.039c-0.019,0.019-0.135,0.019-0.27,0.019
			c-0.212,0-0.232,0-0.232,0.078c-0.019,0.039-0.019,0.232,0,0.406c0.019,0.193,0.019,0.367,0,0.386c0,0-0.019,0.521-0.019,1.12
			c-0.019,1.487,0,1.41-0.155,1.545c-0.212,0.173-0.367,0.232-0.657,0.251c-0.135,0-0.309-0.019-0.367-0.019
			c-0.425-0.096-0.773-0.27-1.062-0.56C102.884,175.601,102.788,175.466,102.749,175.253z"/>
		<path fill="#FFFFFF" d="M112.133,165.46c0-0.077,0-0.173,0-0.232c0-0.155,0-0.831,0-0.927c0-0.039,0.019-0.116,0.058-0.155
			c0.077-0.077,0.328-0.193,0.444-0.193c0.038,0,0.116-0.038,0.193-0.077c0.213-0.155,0.521-0.251,1.12-0.309
			c1.333-0.155,1.758-0.135,2.646,0.213c0.096,0.038,0.29,0.116,0.425,0.212c0.135,0.078,0.328,0.174,0.425,0.232
			c0.251,0.136,0.618,0.425,1.023,0.831c0.309,0.329,0.406,0.444,0.734,0.947c0.155,0.212,0.406,0.714,0.482,0.908
			c0.155,0.425,0.232,0.657,0.27,0.695c0.019,0.039,0.039,0.155,0.039,0.251c0.019,0.116,0.039,0.251,0.058,0.309
			c0.077,0.174,0.057,1.178-0.019,1.371c0,0.057-0.019,0.135-0.039,0.193c-0.039,0.309-0.116,0.618-0.155,0.734
			c-0.039,0.077-0.058,0.155-0.058,0.174c0,0.077-0.173,0.637-0.251,0.792c-0.038,0.096-0.077,0.212-0.116,0.27
			c0,0.058-0.039,0.116-0.057,0.135c0,0-0.019,0.039-0.019,0.058c0,0.038-0.29,0.657-0.329,0.676
			c-0.019,0.019-0.057,0.077-0.096,0.173c-0.058,0.058-0.116,0.174-0.155,0.232c-0.039,0.077-0.077,0.135-0.096,0.155
			c0,0.038-0.097,0.155-0.193,0.308c-0.096,0.135-0.155,0.252-0.155,0.27c0,0.078-0.521,0.618-0.966,1.024
			c-0.541,0.502-0.888,0.772-1.352,1.005c-0.444,0.232-0.811,0.328-1.352,0.386c-0.116,0-0.251,0.019-0.329,0.039
			c-0.116,0.019-0.463,0.038-0.637,0.019c-0.329-0.057-0.754-0.212-1.024-0.406c-0.154-0.077-0.232-0.173-0.347-0.328
			c-0.116-0.193-0.116-0.213-0.116-0.425c0-0.135,0-0.386,0-0.599c0-0.425,0-0.328,0-0.908c0-0.251,0-1.005-0.019-1.7
			c-0.019-1.545-0.019-1.468-0.019-1.97c0.019-0.097,0.019-0.213,0.019-0.252c-0.019-0.521-0.039-3.225-0.039-3.573
			C112.133,165.788,112.133,165.538,112.133,165.46z M114.47,164.456l0.096,0.096c0.174,0.193,0.193,0.27,0.213,0.676
			c0,0.213,0,0.541,0,0.734s0,0.541,0,0.792s0,0.599,0,0.754c0,0.173,0,0.521,0,0.733c0,0.251,0.019,0.521,0,0.638
			c0,0.116,0,0.251,0,0.308c0,0.058,0,0.406,0.019,0.773c0,0.386,0,0.772,0,0.869c0,0.174,0,0.213,0,0.368
			c0,0.057,0.019,0.598,0,1.197c0,0.927,0.019,2.337,0.038,2.434c0,0.019,0.058-0.019,0.155-0.135
			c0.058-0.038,0.135-0.135,0.174-0.193c0.058-0.039,0.135-0.135,0.174-0.193c0.039-0.057,0.077-0.116,0.096-0.135
			c0.039-0.019,0.29-0.347,0.386-0.482c0.039-0.058,0.097-0.117,0.097-0.135c0.019-0.019,0.038-0.039,0.038-0.058
			c0,0,0.039-0.077,0.117-0.174c0.057-0.077,0.116-0.173,0.116-0.193c0,0,0.038-0.078,0.096-0.155
			c0.039-0.058,0.096-0.174,0.116-0.232c0.039-0.038,0.078-0.135,0.116-0.193c0.019-0.039,0.058-0.096,0.058-0.135
			c0-0.019,0.019-0.078,0.039-0.116c0.038-0.019,0.077-0.116,0.116-0.213c0.019-0.096,0.096-0.27,0.173-0.406
			c0.058-0.135,0.135-0.328,0.174-0.425c0.039-0.116,0.078-0.232,0.096-0.29c0.019-0.038,0.078-0.232,0.135-0.406
			c0.039-0.173,0.117-0.386,0.136-0.463c0.019-0.058,0.057-0.193,0.057-0.27c0.019-0.078,0.058-0.251,0.096-0.406
			c0.058-0.232,0.078-0.387,0.097-0.618c0.019-0.057,0.038-0.251,0.057-0.444c0.058-0.579,0.039-1.139-0.057-1.661
			c-0.097-0.386-0.309-0.984-0.483-1.294c-0.116-0.193-0.444-0.541-0.618-0.618c-0.406-0.212-0.966-0.308-1.777-0.328h-0.346
			V164.456z"/>
		<path fill="#FFFFFF" d="M120.765,175.948l-0.078-0.077v-0.715c0-0.386,0.019-0.831,0.019-0.966
			c0.039-0.406,0.116-1.256,0.155-1.545c0.019-0.347,0.058-0.521,0.058-0.753c0.019-0.309,0.057-0.56,0.057-0.773
			c0.019-0.232,0.078-0.715,0.096-0.85c0-0.019,0.019-0.173,0.039-0.308c0.019-0.116,0.039-0.251,0.058-0.309
			c0-0.019,0.019-0.212,0.057-0.406c0.019-0.174,0.058-0.464,0.097-0.618c0.057-0.289,0.057-0.308,0.116-0.502
			c0.019-0.058,0.038-0.155,0.038-0.193c0.019-0.077,0.155-0.482,0.193-0.598c0.077-0.232,0.135-0.348,0.251-0.638
			c0.078-0.193,0.155-0.367,0.155-0.406c0.019-0.019,0.077-0.135,0.116-0.251c0.329-0.772,0.638-1.391,0.869-1.642
			c0.077-0.096,0.155-0.193,0.193-0.251c0.348-0.56,0.754-0.715,1.507-0.56c0.598,0.116,1.178,0.367,1.409,0.599
			c0.251,0.232,0.483,0.521,0.618,0.792c0.057,0.135,0.155,0.309,0.173,0.367c0.039,0.058,0.078,0.155,0.097,0.232
			s0.077,0.328,0.155,0.579c0.057,0.27,0.116,0.541,0.116,0.638c0.019,0.096,0.019,0.174,0.039,0.193
			c0.019,0.019,0.038,0.155,0.038,0.27c0.019,0.135,0.039,0.425,0.078,0.618c0.019,0.212,0.038,0.482,0.057,0.599
			c0.058,0.792,0.078,0.966,0.078,1.255c0.019,0.27,0.038,1.488,0.057,2.299c0,0.328-0.038,1.603-0.057,2.124
			c-0.019,0.734-0.019,1.855,0,1.97c0.057,0.27-0.097,0.502-0.386,0.56c-0.155,0.039-0.638,0.039-0.793,0.019
			c-0.657-0.117-1.256-0.444-1.409-0.793c-0.058-0.135-0.078-0.347-0.058-0.927c0-0.174,0-0.386,0-0.482
			c-0.019-0.097-0.019-0.213,0-0.251c0.019-0.078,0.019-0.097-0.116-0.097c-0.058,0-0.193,0.019-0.27,0.039
			c-0.078,0.019-0.232,0.039-0.348,0.039c-0.096,0.019-0.232,0.038-0.29,0.038c-0.347,0.058-0.695,0.078-1.371,0.078
			c-0.425,0-0.792,0-0.811,0c-0.038-0.019-0.057,0-0.057,0.057c0,0.039,0,0.252-0.019,0.464c0,0.193-0.019,0.541-0.039,0.772
			c0,0.27-0.019,0.406-0.057,0.444C121.499,176.277,120.978,176.18,120.765,175.948z M122.233,173.534
			c0.29-0.039,1.005-0.078,1.7-0.097c0.347,0,0.733-0.019,0.849-0.019l0.213-0.019v-0.213c0-0.116,0.019-0.328,0.019-0.463
			c0.019-0.135,0.019-0.27,0-0.29c0-0.039,0-0.155,0-0.27c0.038-0.309,0.019-2.666-0.019-2.782
			c-0.019-0.039-0.019-0.135-0.019-0.193c0.019-0.057,0-0.29-0.019-0.521c-0.019-0.212-0.039-0.482-0.039-0.599
			c0-0.116-0.019-0.251-0.038-0.308c-0.019-0.058-0.019-0.174-0.019-0.251c0-0.097-0.019-0.193-0.019-0.252
			c-0.039-0.154-0.077-0.521-0.116-0.811c-0.019-0.328-0.058-0.502-0.135-0.733c-0.039-0.097-0.058-0.213-0.058-0.232
			c0-0.038-0.019-0.077-0.039-0.096c0,0-0.038-0.077-0.057-0.155c0-0.096-0.039-0.193-0.078-0.232
			c-0.038-0.058-0.038-0.058-0.116-0.019c-0.135,0.096-0.579,0.464-0.676,0.58c-0.347,0.386-0.637,0.908-0.869,1.487
			c-0.27,0.676-0.56,1.661-0.599,1.97c0,0.077-0.019,0.154-0.019,0.173c-0.039,0.117-0.155,1.256-0.174,1.565
			c-0.019,0.155-0.038,0.367-0.038,0.482c0,0.117-0.019,0.464-0.019,0.754c-0.039,1.023-0.058,1.448-0.078,1.507
			C121.75,173.611,121.75,173.611,122.233,173.534z"/>
		<path fill="#FFFFFF" d="M134.825,162.969c0.483,0.096,0.831,0.29,1.12,0.56c0.329,0.328,0.329,0.347,0.329,0.984
			c0,0.657-0.039,2.801-0.058,3.148c-0.019,0.252-0.019,0.464-0.019,0.657c0.019,0.27-0.057,1.95-0.077,2.028
			c0,0.039-0.019,0.232-0.019,0.444c-0.019,0.193-0.019,0.463-0.039,0.56c-0.019,0.135-0.039,0.347-0.057,0.482
			c0,0.135-0.019,0.329-0.019,0.386c-0.058,0.483-0.078,0.657-0.116,0.734c-0.058,0.251-0.078,0.329-0.097,0.444
			c0,0.155-0.096,0.425-0.212,0.676c-0.039,0.077-0.058,0.174-0.058,0.193s-0.038,0.078-0.077,0.135
			c-0.039,0.039-0.096,0.135-0.116,0.213c-0.155,0.309-0.444,0.637-0.773,0.888c-0.193,0.155-0.482,0.29-0.676,0.329
			c-0.27,0.058-0.425,0.058-0.811,0c-0.56-0.077-0.695-0.116-1.043-0.232c-0.889-0.29-1.584-0.811-1.487-1.12
			c0.038-0.193,0.386-0.155,0.946,0.096l0.212,0.096l0.078-0.077c0.038-0.039,0.154-0.096,0.232-0.135
			c0.193-0.096,0.463-0.329,0.58-0.521c0.057-0.097,0.135-0.155,0.155-0.174c0.038-0.019,0.251-0.406,0.251-0.482
			c0-0.019,0.019-0.058,0.038-0.078c0.019-0.039,0.058-0.116,0.078-0.193c0.096-0.463,0.135-0.637,0.174-0.676
			c0.019-0.019,0.038-0.116,0.038-0.173c-0.019-0.097,0.019-0.174,0.039-0.213c0.019-0.038,0.039-0.232,0.077-0.58
			c0-0.27,0.039-0.618,0.058-0.753c0.039-0.155,0.058-0.502,0.058-0.946l0.019-0.695l-0.135,0.367
			c-0.193,0.444-0.328,0.869-0.328,0.946c0,0.019-0.019,0.058-0.019,0.078c-0.019,0.019-0.077,0.135-0.135,0.27
			c-0.039,0.135-0.116,0.309-0.135,0.386c-0.039,0.058-0.058,0.135-0.058,0.155c0,0.019-0.038,0.057-0.057,0.077
			c-0.019,0.019-0.039,0.078-0.039,0.097s-0.058,0.154-0.155,0.27c-0.077,0.135-0.155,0.251-0.155,0.29
			c-0.019,0.019-0.057,0.077-0.096,0.116c-0.058,0.057-0.135,0.155-0.174,0.212c-0.193,0.213-0.56,0.29-1.043,0.232
			c-0.58-0.096-1.062-0.308-1.43-0.657c-0.308-0.309-0.521-0.56-0.541-0.676c-0.019-0.039-0.057-0.135-0.077-0.212
			c-0.039-0.097-0.078-0.251-0.116-0.348c-0.019-0.096-0.058-0.27-0.078-0.367c-0.039-0.096-0.039-0.193-0.039-0.213
			c0-0.038,0-0.251-0.038-0.463c-0.058-0.618-0.058-2.183,0.038-2.666c0.058-0.347,0.117-1.082,0.117-1.371
			c0-0.077,0.019-0.309,0.057-0.463c0.039-0.155,0.058-0.309,0.058-0.329c0-0.058,0.039-0.425,0.096-0.715
			c0-0.116,0.039-0.212,0.039-0.212c0.019-0.019,0.039-0.058,0.039-0.097c0-0.135,0.096-0.27,0.232-0.328
			c0.618-0.27,2.028,0.251,2.298,0.831c0.058,0.135,0.058,0.155,0.019,0.328c-0.019,0.117-0.039,0.232-0.058,0.252
			c-0.019,0.038-0.019,0.154-0.038,0.27c0,0.116-0.019,0.27-0.039,0.328c-0.019,0.078-0.039,0.213-0.058,0.29
			c-0.019,0.309-0.057,0.715-0.096,0.792c0,0.058,0,0.116,0,0.116c0,0.058-0.057,0.889-0.096,0.985c0,0.039-0.019,0.232-0.039,0.406
			c0,0.174-0.019,0.425-0.039,0.56c-0.038,0.406,0.019,1.835,0.097,2.067c0.019,0.116,0.019,0.116,0.077,0.078
			c0.039-0.039,0.174-0.193,0.309-0.368c0.155-0.173,0.27-0.308,0.27-0.328c0.019,0,0.096-0.116,0.193-0.232
			c0.155-0.212,0.368-0.56,0.56-0.966c0.058-0.096,0.117-0.232,0.174-0.308c0.155-0.232,0.29-0.464,0.502-0.908
			c0.174-0.367,0.213-0.444,0.213-0.598c0-0.097,0.019-0.425,0.019-0.715c0.038-0.618,0.057-1.681,0.057-2.472
			c0-0.521,0-0.541,0.078-0.618C133.937,162.969,134.419,162.891,134.825,162.969z"/>
	</g>
</g>
</svg>
