<?xml version="1.0" encoding="utf-8"?>
<!-- Generator: Adobe Illustrator 17.0.0, SVG Export Plug-In . SVG Version: 6.00 Build 0)  -->
<!DOCTYPE svg PUBLIC "-//W3C//DTD SVG 1.1//EN" "http://www.w3.org/Graphics/SVG/1.1/DTD/svg11.dtd">
<svg version="1.1" id="Layer_1" xmlns="http://www.w3.org/2000/svg" xmlns:xlink="http://www.w3.org/1999/xlink" x="0px" y="0px"
	 width="166.644px" height="180px" viewBox="0 0 166.644 180" enable-background="new 0 0 166.644 180" xml:space="preserve">
<path fill="#9CD0D8" d="M150.773,96.45c-0.05,0.218-0.105,0.429-0.163,0.638c-0.015,0.059-0.032,0.117-0.05,0.175
	c-0.021,0.079-0.045,0.156-0.068,0.233c-0.019,0.063-0.039,0.126-0.058,0.188c-0.024,0.075-0.049,0.149-0.074,0.222
	c-0.019,0.061-0.04,0.12-0.062,0.178c-0.111,0.32-0.232,0.627-0.363,0.922c-0.024,0.057-0.05,0.115-0.075,0.173
	c-0.03,0.061-0.057,0.121-0.086,0.181c-0.026,0.055-0.051,0.108-0.08,0.161c-0.119,0.237-0.243,0.466-0.376,0.684
	c-0.054,0.09-0.108,0.177-0.163,0.263c-0.095,0.146-0.194,0.291-0.296,0.431c-0.025,0.033-0.051,0.069-0.075,0.102
	c-0.027,0.032-0.051,0.067-0.077,0.099c-0.037,0.048-0.075,0.096-0.115,0.143c-0.001,0.002-0.002,0.005-0.004,0.008
	c-0.039,0.046-0.079,0.092-0.118,0.138c-0.019,0.023-0.038,0.044-0.058,0.067c-0.03,0.035-0.058,0.067-0.089,0.1
	c-0.038,0.04-0.076,0.082-0.114,0.123c-0.038,0.04-0.077,0.08-0.115,0.118c-0.156,0.157-0.316,0.307-0.483,0.446
	c-0.039,0.034-0.08,0.069-0.12,0.1c-0.03,0.021-0.056,0.045-0.086,0.068c-0.04,0.032-0.083,0.064-0.125,0.096
	c-0.049,0.035-0.096,0.07-0.145,0.105c-0.042,0.03-0.082,0.058-0.124,0.084c-0.025,0.018-0.052,0.034-0.077,0.052
	c-0.037,0.025-0.074,0.048-0.109,0.071c-0.184,0.115-0.372,0.222-0.566,0.321c-0.038,0.02-0.076,0.039-0.114,0.057
	c-0.019,0.008-0.037,0.018-0.055,0.027c-0.043,0.019-0.084,0.04-0.13,0.059c-0.05,0.024-0.1,0.046-0.15,0.067
	c-0.145,0.062-0.29,0.12-0.44,0.174c-0.058,0.021-0.117,0.042-0.176,0.061c-0.109,0.037-0.221,0.07-0.335,0.104
	c-0.055,0.015-0.109,0.031-0.165,0.045c-0.031,0.008-0.061,0.017-0.092,0.024c-0.044,0.011-0.09,0.023-0.137,0.033
	c-0.059,0.015-0.121,0.029-0.182,0.04c-0.036,0.008-0.073,0.015-0.108,0.023c-0.056,0.011-0.111,0.023-0.168,0.032
	c-0.056,0.012-0.112,0.02-0.167,0.03c-0.148,0.024-0.296,0.045-0.447,0.062c-0.033,0.005-0.069,0.008-0.106,0.012
	c-0.096,0.011-0.194,0.019-0.291,0.027c-0.013,0.001-0.026,0.002-0.038,0.002c-0.01,0.001-0.02,0.001-0.03,0.002
	c-0.086,0.006-0.169,0.013-0.255,0.018c-0.118,0.005-0.234,0.01-0.355,0.013c-0.095,0.002-0.193,0.004-0.29,0.004
	c-0.002,0-0.004,0-0.004,0c-0.052,0-0.106,0-0.159-0.001c-0.054-0.001-0.106-0.002-0.159-0.004h-0.014
	c-0.05-0.001-0.101-0.004-0.151-0.005c-0.055-0.002-0.109-0.005-0.164-0.007h-0.001c0.063-0.221,0.115-0.447,0.155-0.676
	c0.013-0.077,0.025-0.153,0.036-0.23c0.04-0.289,0.061-0.582,0.063-0.875c0.004-0.489-0.045-0.981-0.146-1.462
	c-0.021-0.101-0.045-0.201-0.071-0.301c-0.093-0.358-0.217-0.709-0.37-1.048c0.36-0.117,0.708-0.265,1.034-0.444
	c0.391-0.214,0.753-0.47,1.074-0.763c0.268-0.245,0.508-0.514,0.714-0.805c0.107-0.151,0.203-0.308,0.291-0.47
	c0.058-0.107,0.112-0.218,0.161-0.328c0.05-0.111,0.095-0.224,0.136-0.338c0.061-0.171,0.112-0.345,0.152-0.521
	c0.013-0.058,0.026-0.117,0.037-0.176c0.019-0.097,0.034-0.194,0.046-0.291c0.005-0.04,0.009-0.08,0.013-0.12
	c0.006-0.057,0.011-0.113,0.015-0.17c0.003-0.048,0.006-0.097,0.008-0.145s0.002-0.096,0.002-0.144c0-0.051,0.001-0.102-0.001-0.154
	c-0.003-0.095-0.007-0.189-0.016-0.283c-0.004-0.039-0.007-0.077-0.012-0.118c-0.001-0.006-0.002-0.012-0.002-0.018
	c-0.001-0.001-0.001-0.004-0.001-0.005c-0.007-0.059-0.015-0.12-0.025-0.18c-0.001-0.01-0.002-0.02-0.005-0.027
	c-0.008-0.051-0.019-0.102-0.03-0.153c-0.011-0.056-0.024-0.113-0.038-0.169c-0.007-0.029-0.014-0.057-0.024-0.086
	c-0.01-0.043-0.023-0.087-0.036-0.13c-0.005-0.015-0.01-0.03-0.015-0.045c-0.017-0.057-0.037-0.114-0.057-0.17
	c-0.023-0.062-0.046-0.123-0.073-0.181c-0.02-0.045-0.039-0.093-0.062-0.137c-0.014-0.031-0.026-0.059-0.042-0.089
	c-0.023-0.044-0.045-0.088-0.071-0.132c-0.882-1.597-2.844-2.546-4.999-2.422c-1.813,0.105-3.475,0.874-4.941,1.55l0.725,1.572
	c1.392-0.642,2.831-1.307,4.316-1.393c1.225-0.071,2.746,0.375,3.385,1.529c0.472,0.857,0.37,2.068-0.251,2.944
	c-0.606,0.857-1.668,1.436-2.843,1.553l-1.524,0.15l0.914,1.228c1.304,1.755,1.18,4.477-0.272,5.944
	c-2.658,2.687-6.739,2.401-6.687,2.448l-22.413,14.15l-6.231,3.933l-0.314,0.199l-0.001,0.001c-0.049-0.168-0.099-0.331-0.148-0.493
	c-0.023-0.073-0.045-0.146-0.067-0.219c-0.006-0.02-0.012-0.04-0.018-0.059c-0.029-0.094-0.057-0.184-0.086-0.275
	c0-0.001,0-0.001-0.001-0.002c-0.043-0.134-0.084-0.268-0.127-0.399c-0.02-0.065-0.042-0.131-0.063-0.195
	c-0.02-0.064-0.042-0.128-0.062-0.192c-0.054-0.165-0.108-0.33-0.162-0.489c-0.049-0.144-0.098-0.287-0.145-0.425
	c-0.005-0.014-0.01-0.029-0.014-0.043c-0.02-0.055-0.039-0.108-0.057-0.163c-0.015-0.044-0.03-0.087-0.045-0.131
	c-0.015-0.043-0.032-0.087-0.046-0.131c-0.008-0.021-0.015-0.042-0.023-0.063c-0.036-0.101-0.073-0.2-0.106-0.297
	c-0.118-0.324-0.228-0.627-0.337-0.91c-0.004-0.011-0.007-0.02-0.011-0.031c-0.014-0.036-0.029-0.071-0.043-0.107
	c-0.015-0.043-0.031-0.084-0.048-0.126c-0.106-0.271-0.205-0.525-0.299-0.757c-0.03-0.073-0.058-0.143-0.086-0.211
	c-0.015-0.037-0.03-0.071-0.045-0.107c-0.013-0.034-0.027-0.068-0.042-0.102c-0.013-0.035-0.029-0.065-0.042-0.1
	c-0.014-0.032-0.026-0.063-0.04-0.095c-0.013-0.032-0.026-0.063-0.039-0.093c-0.025-0.061-0.05-0.12-0.075-0.176
	c-0.001-0.004-0.002-0.006-0.005-0.01c-0.007-0.019-0.015-0.038-0.025-0.057c-0.002-0.005-0.005-0.011-0.007-0.015
	c-0.012-0.029-0.025-0.059-0.038-0.087c-0.021-0.049-0.04-0.094-0.061-0.139c-0.006-0.014-0.012-0.026-0.017-0.039
	c-0.006-0.013-0.011-0.025-0.017-0.038c-0.01-0.02-0.018-0.042-0.027-0.061c-0.008-0.019-0.017-0.038-0.026-0.057
	c-0.001-0.004-0.004-0.007-0.005-0.01c-0.017-0.038-0.031-0.07-0.048-0.105c-0.008-0.019-0.018-0.039-0.026-0.057
	c-0.025-0.056-0.048-0.105-0.068-0.146c-0.01-0.02-0.018-0.038-0.026-0.055c-0.019-0.042-0.035-0.074-0.045-0.095
	c-0.005-0.011-0.01-0.017-0.012-0.024c-0.001-0.001-0.001-0.001-0.001-0.001l-0.001-0.001c0,0.005,0.001,0.007,0.002,0.011
	c0.002,0.006,0.005,0.015,0.008,0.026c0.007,0.03,0.019,0.071,0.032,0.127c0.007,0.018,0.012,0.039,0.018,0.061
	c0.008,0.03,0.017,0.062,0.026,0.098c0.01,0.037,0.021,0.077,0.032,0.121c0.006,0.024,0.013,0.048,0.02,0.075
	c0.007,0.027,0.014,0.059,0.023,0.089c0.007,0.027,0.014,0.056,0.023,0.086c0.008,0.033,0.017,0.068,0.026,0.104
	c0.079,0.303,0.175,0.688,0.286,1.152c0.012,0.05,0.025,0.101,0.037,0.155c0.026,0.106,0.051,0.217,0.077,0.332
	c0.015,0.059,0.031,0.121,0.044,0.183c0.096,0.41,0.201,0.865,0.31,1.366c0.01,0.048,0.02,0.096,0.032,0.144
	c0.031,0.145,0.064,0.295,0.096,0.449c0.021,0.095,0.042,0.193,0.063,0.291c0.013,0.058,0.025,0.119,0.038,0.18
	c0.023,0.102,0.043,0.207,0.065,0.312c0.058,0.278,0.118,0.566,0.177,0.865c0.026,0.118,0.05,0.237,0.073,0.357
	c0.038,0.186,0.076,0.375,0.113,0.566c0.024,0.128,0.05,0.255,0.075,0.387c0.391,2.018,0.808,4.398,1.203,7.084
	c0.017,0.112,0.033,0.225,0.05,0.339c0.045,0.315,0.09,0.638,0.137,0.96c0.025,0.18,0.05,0.36,0.074,0.541
	c0.026,0.181,0.05,0.364,0.075,0.548c0.025,0.183,0.05,0.369,0.073,0.554c0.025,0.188,0.048,0.374,0.073,0.564l0.044,0.349
	c0.032,0.263,0.065,0.529,0.096,0.796c0.024,0.194,0.046,0.389,0.069,0.584c0.068,0.587,0.134,1.184,0.2,1.79
	c0.129,1.209,0.25,2.266,0.364,3.21c-0.015,0.018-0.033,0.035-0.051,0.052c-3.245,3.226-6.989,5.546-10.973,7.134
	c-0.314,0.126-0.629,0.246-0.947,0.363c-0.315,0.115-0.632,0.227-0.949,0.333c-9.281,3.125-19.612,2.566-27.905,0.428
	c-0.754-0.194-1.492-0.401-2.209-0.62c-0.314-0.095-0.623-0.193-0.929-0.293c-0.311-0.101-0.616-0.205-0.918-0.309
	c-0.159-0.056-0.319-0.112-0.476-0.169c-5.049-1.819-8.415-4.387-10.482-6.433c-0.023-0.023-0.045-0.045-0.068-0.067
	c0.131-1.048,0.27-2.239,0.418-3.631c0.065-0.607,0.132-1.204,0.2-1.79c0.023-0.195,0.045-0.39,0.069-0.584
	c0.031-0.266,0.064-0.533,0.096-0.796l0.044-0.349c0.025-0.19,0.048-0.376,0.073-0.564c0.023-0.186,0.048-0.371,0.073-0.554
	c0.025-0.184,0.049-0.368,0.075-0.548c0.024-0.181,0.049-0.362,0.074-0.541c0.046-0.322,0.092-0.645,0.137-0.96
	c0.017-0.114,0.033-0.227,0.05-0.339c0.395-2.686,0.811-5.067,1.203-7.084c0.025-0.132,0.051-0.258,0.075-0.387
	c0.037-0.192,0.075-0.381,0.113-0.566c0.023-0.12,0.046-0.239,0.073-0.357c0.059-0.299,0.119-0.587,0.177-0.865
	c0.023-0.105,0.043-0.209,0.065-0.312c0.013-0.061,0.025-0.121,0.038-0.18c0.021-0.099,0.042-0.196,0.063-0.291
	c0.032-0.153,0.065-0.303,0.096-0.449c0.012-0.048,0.023-0.096,0.032-0.144c0.109-0.501,0.214-0.955,0.31-1.366
	c0.013-0.062,0.029-0.124,0.044-0.183c0.026-0.115,0.051-0.226,0.077-0.332c0.012-0.054,0.025-0.105,0.037-0.155
	c0.111-0.464,0.207-0.848,0.286-1.152c0.01-0.036,0.018-0.07,0.026-0.104c0.008-0.03,0.015-0.058,0.023-0.086
	c0.008-0.03,0.015-0.062,0.023-0.089c0.007-0.027,0.014-0.051,0.02-0.075c0.011-0.044,0.023-0.084,0.032-0.121
	c0.01-0.036,0.018-0.068,0.026-0.098c0.006-0.021,0.011-0.043,0.018-0.061c0.013-0.056,0.025-0.098,0.032-0.127
	c0.004-0.011,0.006-0.02,0.008-0.026c0.001-0.004,0.002-0.006,0.002-0.011c-0.01,0.017-0.029,0.057-0.059,0.121
	c-0.008,0.017-0.017,0.035-0.026,0.055c-0.026,0.055-0.057,0.123-0.094,0.203c-0.017,0.035-0.031,0.067-0.048,0.105
	c-0.011,0.021-0.02,0.044-0.031,0.067c-0.01,0.019-0.018,0.04-0.027,0.061c-0.006,0.013-0.011,0.025-0.017,0.038
	c-0.037,0.086-0.079,0.178-0.123,0.281c-0.01,0.019-0.018,0.038-0.025,0.057c-0.086,0.2-0.182,0.427-0.288,0.683
	c-0.027,0.068-0.056,0.138-0.086,0.211c-0.108,0.268-0.224,0.563-0.346,0.883c-0.014,0.036-0.029,0.071-0.043,0.107
	c-0.004,0.011-0.007,0.02-0.011,0.031c-0.148,0.388-0.303,0.811-0.465,1.271c-0.014,0.044-0.031,0.088-0.046,0.131
	c-0.015,0.044-0.03,0.087-0.045,0.131c-0.024,0.068-0.048,0.137-0.071,0.206c-0.048,0.138-0.096,0.281-0.145,0.425
	c-0.094,0.281-0.19,0.573-0.287,0.876c-0.043,0.131-0.084,0.264-0.127,0.399c0,0,0,0.001-0.001,0.002
	c-0.029,0.09-0.057,0.181-0.086,0.275c-0.006,0.019-0.012,0.039-0.018,0.059c-0.023,0.073-0.045,0.145-0.067,0.219
	c-0.049,0.162-0.099,0.325-0.148,0.493l-0.001-0.001l-0.314-0.199l-6.231-3.933l-22.413-14.15c0.052-0.048-4.029,0.239-6.687-2.448
	c-1.453-1.467-1.576-4.189-0.272-5.944l0.914-1.228l-1.524-0.15c-1.175-0.117-2.238-0.696-2.843-1.553
	c-0.621-0.877-0.723-2.088-0.251-2.944c0.639-1.154,2.159-1.6,3.385-1.529c1.485,0.086,2.924,0.751,4.316,1.393l0.724-1.572
	c-1.466-0.676-3.128-1.445-4.941-1.55c-2.154-0.124-4.117,0.826-4.999,2.422c-0.026,0.044-0.049,0.088-0.071,0.132
	c-0.015,0.03-0.027,0.058-0.042,0.089C8.8,92.92,8.781,92.968,8.761,93.013c-0.026,0.058-0.05,0.119-0.073,0.181
	c-0.02,0.056-0.04,0.113-0.057,0.17c-0.006,0.015-0.011,0.03-0.015,0.045c-0.013,0.043-0.026,0.087-0.036,0.13
	c-0.01,0.029-0.017,0.057-0.024,0.086c-0.014,0.056-0.027,0.113-0.038,0.169c-0.011,0.051-0.021,0.102-0.03,0.153
	c-0.002,0.007-0.004,0.018-0.005,0.027c-0.01,0.059-0.018,0.12-0.025,0.18c0,0.001,0,0.004-0.001,0.005
	c-0.001,0.006-0.001,0.012-0.002,0.018c-0.005,0.04-0.008,0.079-0.012,0.118c-0.009,0.094-0.013,0.188-0.016,0.283
	c-0.001,0.051-0.001,0.102-0.001,0.154c0,0.048,0.001,0.096,0.002,0.144c0.002,0.048,0.004,0.097,0.008,0.145
	c0.004,0.057,0.009,0.113,0.015,0.17c0.004,0.04,0.008,0.08,0.013,0.12c0.013,0.097,0.027,0.195,0.046,0.291
	c0.011,0.058,0.023,0.118,0.037,0.176c0.04,0.176,0.092,0.35,0.152,0.521c0.04,0.114,0.086,0.227,0.136,0.338
	c0.049,0.111,0.102,0.221,0.161,0.328c0.087,0.162,0.184,0.319,0.291,0.47c0.206,0.291,0.445,0.562,0.714,0.805
	c0.321,0.293,0.683,0.548,1.074,0.763c0.326,0.178,0.673,0.327,1.034,0.444c-0.153,0.339-0.277,0.69-0.37,1.048
	c-0.026,0.1-0.05,0.201-0.071,0.301c-0.102,0.482-0.15,0.973-0.146,1.462c0.002,0.294,0.023,0.586,0.063,0.875
	c0.011,0.077,0.023,0.153,0.036,0.23c0.039,0.228,0.092,0.454,0.155,0.676h-0.005c-0.055,0.002-0.109,0.005-0.164,0.007
	c-0.05,0.001-0.101,0.004-0.151,0.005h-0.014c-0.054,0.001-0.106,0.002-0.159,0.004c-0.054,0.001-0.107,0.001-0.159,0.001
	c0,0-0.001,0-0.004,0c-0.098,0-0.195-0.001-0.29-0.004c-0.12-0.004-0.237-0.008-0.355-0.013c-0.086-0.005-0.169-0.012-0.255-0.018
	c-0.023-0.001-0.045-0.004-0.068-0.005c-0.098-0.008-0.195-0.017-0.291-0.027c-0.037-0.004-0.073-0.007-0.106-0.012
	c-0.151-0.017-0.3-0.038-0.447-0.062c-0.055-0.01-0.111-0.018-0.167-0.03c-0.057-0.01-0.112-0.021-0.168-0.032
	c-0.036-0.007-0.073-0.014-0.108-0.023c-0.061-0.012-0.123-0.025-0.182-0.04c-0.046-0.011-0.093-0.023-0.137-0.033
	c-0.031-0.007-0.061-0.015-0.092-0.024c-0.056-0.014-0.111-0.03-0.165-0.045c-0.114-0.033-0.226-0.067-0.335-0.104
	c-0.059-0.019-0.118-0.039-0.176-0.061c-0.15-0.054-0.295-0.112-0.44-0.174c-0.05-0.02-0.1-0.043-0.15-0.067
	c-0.045-0.019-0.087-0.04-0.13-0.059c-0.018-0.01-0.036-0.019-0.055-0.027c-0.038-0.018-0.076-0.037-0.114-0.057
	c-0.194-0.099-0.382-0.206-0.566-0.321c-0.036-0.024-0.073-0.046-0.109-0.071c-0.025-0.018-0.052-0.035-0.077-0.052
	c-0.042-0.026-0.082-0.055-0.124-0.084c-0.049-0.035-0.096-0.07-0.145-0.105c-0.042-0.032-0.084-0.064-0.125-0.096
	c-0.03-0.023-0.056-0.046-0.086-0.068c-0.04-0.031-0.081-0.065-0.12-0.1c-0.167-0.139-0.327-0.289-0.483-0.446
	c-0.038-0.038-0.077-0.077-0.115-0.118c-0.038-0.04-0.076-0.082-0.114-0.123c-0.031-0.033-0.059-0.065-0.089-0.1
	c-0.02-0.023-0.039-0.044-0.058-0.067c-0.039-0.046-0.079-0.092-0.118-0.138c-0.001-0.004-0.002-0.006-0.004-0.008
	c-0.04-0.046-0.079-0.095-0.115-0.143c-0.026-0.032-0.05-0.067-0.077-0.099c-0.024-0.033-0.05-0.069-0.075-0.102
	c-0.102-0.139-0.201-0.284-0.296-0.431c-0.055-0.086-0.109-0.173-0.163-0.263c-0.133-0.218-0.257-0.447-0.376-0.684
	c-0.029-0.052-0.054-0.106-0.08-0.161c-0.029-0.059-0.056-0.12-0.086-0.181c-0.025-0.057-0.051-0.115-0.075-0.173
	c-0.131-0.295-0.252-0.602-0.363-0.922c-0.021-0.058-0.043-0.118-0.062-0.178c-0.025-0.074-0.05-0.148-0.074-0.222
	c-0.019-0.062-0.039-0.125-0.058-0.188c-0.023-0.077-0.046-0.155-0.068-0.233c-0.018-0.058-0.035-0.115-0.05-0.175
	c-0.058-0.208-0.113-0.42-0.163-0.638c-1.077-4.553-0.811-7.874,0.79-9.875c1.294-1.614,3.517-2.417,6.598-2.379
	c2.653,0.03,5.083,0.608,7.222,1.715l38.669,20.039l20.92,0.859l20.92-0.859l38.669-20.039c2.139-1.108,4.57-1.686,7.222-1.715
	c3.081-0.038,5.304,0.765,6.598,2.379C151.584,88.575,151.85,91.897,150.773,96.45z"/>
<path fill="#3A51A3" d="M106.408,142.974l0.398,1.023l-9.539,4.912l-48.581-5.184l-0.33-0.034l-0.523-0.057l0.034-0.455l1.012-12.62
	c0.227-0.978,0.455-1.91,0.694-2.785l-10.937-6.913l-2.933-1.978l0.75-1.455l6.06-11.733l13.143,0.25l0.159,0.011l28.298,0.546
	l23.227,0.443l4.98,13.245l0.625,1.66l-10.085,5.719l0.966,6.071l2.16,7.833L106.408,142.974z"/>
<g>
	<path d="M152.453,96.849c-1.387,5.878-4.991,8.936-10.471,8.936c-0.443,0-0.898-0.023-1.376-0.068
		c-0.193,0.296-0.409,0.557-0.648,0.807c-1.535,1.546-3.081,2.081-4.548,2.081c-0.432,0-0.853-0.046-1.262-0.136l-21.204,13.382
		l-9.38,5.923c0.91,3.343,1.774,7.492,2.285,12.302c0.057,0.466,0.102,0.932,0.136,1.398c0.023,0.136,0.034,0.262,0.045,0.398
		c-0.5,0.568-1,1.114-1.535,1.637c-0.011,0.023-0.034,0.034-0.046,0.057c-0.102-1.137-0.205-2.228-0.318-3.263
		c-0.057-0.614-0.125-1.205-0.193-1.796c-0.023-0.193-0.046-0.387-0.068-0.58c-0.034-0.273-0.068-0.534-0.102-0.796l-0.045-0.352
		c-0.023-0.193-0.046-0.375-0.068-0.557c-0.023-0.193-0.046-0.375-0.068-0.557c-0.034-0.182-0.057-0.375-0.08-0.546
		c-0.023-0.182-0.046-0.364-0.08-0.546c-0.046-0.318-0.091-0.648-0.136-0.966c-0.011-0.114-0.034-0.227-0.046-0.33
		c-0.398-2.695-0.807-5.071-1.205-7.083c-0.023-0.136-0.045-0.261-0.068-0.387c-0.045-0.193-0.08-0.387-0.114-0.568
		c-0.023-0.125-0.046-0.239-0.08-0.364c-0.057-0.296-0.114-0.58-0.171-0.864c-0.023-0.102-0.045-0.205-0.068-0.307
		c-0.011-0.068-0.023-0.125-0.034-0.182c-0.023-0.102-0.046-0.193-0.068-0.296c-0.034-0.148-0.068-0.296-0.091-0.443
		c-0.011-0.045-0.023-0.102-0.034-0.148c-0.114-0.5-0.216-0.955-0.318-1.364c-0.011-0.057-0.023-0.125-0.034-0.182
		c-0.034-0.114-0.057-0.227-0.08-0.33c-0.011-0.057-0.023-0.102-0.034-0.159c-0.114-0.466-0.216-0.841-0.296-1.148
		c0-0.034-0.011-0.068-0.023-0.102c-0.011-0.034-0.011-0.057-0.023-0.091c-0.011-0.023-0.011-0.057-0.023-0.091
		c0-0.023-0.011-0.045-0.023-0.068c-0.011-0.045-0.023-0.091-0.023-0.125c-0.011-0.034-0.023-0.068-0.034-0.091
		c0-0.023-0.011-0.045-0.011-0.068c-0.011-0.057-0.034-0.091-0.034-0.125c0.011,0.023,0.023,0.045,0.045,0.091
		c0.011,0.011,0.023,0.034,0.023,0.045c0.023,0.045,0.045,0.091,0.068,0.148c0.011,0.023,0.023,0.045,0.034,0.057
		c0.011,0.034,0.023,0.068,0.045,0.102c0,0.011,0,0.011,0,0.011c0.011,0.023,0.023,0.046,0.034,0.057
		c0,0.023,0.011,0.045,0.023,0.068c0.011,0.011,0.011,0.023,0.011,0.034c0.011,0.011,0.011,0.023,0.023,0.034
		c0.023,0.045,0.034,0.091,0.057,0.148c0.011,0.023,0.034,0.057,0.045,0.08c0,0.011,0,0.011,0,0.023
		c0.011,0.011,0.023,0.034,0.023,0.057c0.011,0,0.011,0,0.011,0.011c0.023,0.046,0.045,0.114,0.068,0.171
		c0.023,0.034,0.034,0.057,0.045,0.091s0.023,0.068,0.034,0.102c0.023,0.034,0.034,0.057,0.045,0.091s0.034,0.068,0.045,0.102
		c0.011,0.034,0.023,0.08,0.046,0.114c0.023,0.068,0.057,0.136,0.08,0.205c0.102,0.239,0.193,0.489,0.307,0.762
		c0.011,0.034,0.023,0.08,0.046,0.125c0.011,0.034,0.023,0.068,0.045,0.102v0.034c0.114,0.284,0.227,0.591,0.341,0.91
		c0.034,0.102,0.068,0.193,0.102,0.296c0.011,0.023,0.023,0.045,0.023,0.068c0.023,0.045,0.034,0.091,0.046,0.125
		c0.023,0.045,0.034,0.091,0.045,0.136c0.023,0.057,0.046,0.102,0.057,0.159c0.011,0.011,0.011,0.034,0.023,0.045
		c0.045,0.136,0.091,0.284,0.136,0.421c0.057,0.159,0.114,0.33,0.171,0.489c0.011,0.068,0.034,0.125,0.057,0.193
		s0.045,0.136,0.068,0.193c0.034,0.136,0.08,0.261,0.125,0.398c0,0,0,0,0,0.011c0.023,0.091,0.057,0.182,0.091,0.273
		c0,0.011,0.011,0.034,0.011,0.057c0.023,0.068,0.045,0.148,0.068,0.216c0.045,0.159,0.102,0.318,0.148,0.489l0.318-0.193
		l8.925-5.65l19.544-12.358l1.967-1.251c0,0,2.99,0.659,4.889-1.273c1.455-1.467,1.58-4.184,0.273-5.946l-0.91-1.228l1.523-0.148
		c1.171-0.114,2.24-0.694,2.842-1.546c0.625-0.887,0.728-2.092,0.25-2.945c-0.637-1.16-2.16-1.603-3.388-1.535
		c-1.478,0.091-2.922,0.75-4.309,1.398l-0.728-1.58c1.467-0.671,3.127-1.444,4.946-1.546c2.149-0.125,4.116,0.83,4.991,2.422
		c0.034,0.046,0.057,0.091,0.08,0.136c0.011,0.023,0.023,0.057,0.034,0.091c0.023,0.045,0.046,0.091,0.068,0.136
		c0.023,0.057,0.046,0.114,0.068,0.182c0.023,0.045,0.046,0.114,0.057,0.17c0.011,0.011,0.011,0.023,0.011,0.046
		c0.023,0.034,0.034,0.08,0.046,0.125c0,0.023,0.011,0.057,0.023,0.08l0.034,0.171c0.011,0.057,0.023,0.102,0.034,0.159
		c0,0,0,0.011,0,0.023c0.011,0.057,0.023,0.125,0.023,0.182c0,0.011,0.011,0.011,0.011,0.023c0,0.034,0,0.08,0.011,0.114
		c0,0.091,0.011,0.182,0.011,0.273c0.011,0.341-0.011,0.694-0.08,1.035c-0.011,0.057-0.023,0.125-0.046,0.182
		c-0.034,0.171-0.091,0.352-0.148,0.523c-0.034,0.114-0.08,0.227-0.136,0.33c-0.045,0.114-0.102,0.227-0.159,0.33
		c-0.091,0.159-0.182,0.318-0.296,0.477c-0.205,0.284-0.443,0.557-0.705,0.796c-0.33,0.296-0.682,0.557-1.08,0.762
		c-0.33,0.182-0.671,0.33-1.035,0.443c0.159,0.341,0.284,0.694,0.375,1.057c0.023,0.091,0.046,0.193,0.068,0.296
		c0.159,0.773,0.193,1.569,0.08,2.342c-0.011,0.068-0.023,0.148-0.034,0.227c-0.034,0.227-0.091,0.455-0.148,0.671
		c0.045,0.011,0.102,0.011,0.159,0.011c0.114,0,0.216,0.011,0.33,0.011h0.455c0.114-0.011,0.227-0.011,0.352-0.023
		c0.08,0,0.171-0.011,0.25-0.011h0.034c0.011,0,0.023-0.011,0.034-0.011c0.102,0,0.193-0.011,0.296-0.023
		c0.034,0,0.068-0.011,0.102-0.011c0.148-0.023,0.296-0.034,0.443-0.068c0.057,0,0.114-0.011,0.171-0.023
		c0.057-0.011,0.114-0.023,0.171-0.034c0.034-0.011,0.068-0.011,0.102-0.023c0.068-0.011,0.125-0.023,0.182-0.045
		c0.046,0,0.091-0.023,0.136-0.023c0.034-0.011,0.068-0.023,0.091-0.034c0.057-0.011,0.114-0.023,0.171-0.045
		c0.114-0.023,0.227-0.057,0.33-0.102c0.068-0.011,0.125-0.034,0.182-0.057c0.148-0.057,0.296-0.114,0.443-0.17
		c0.046-0.023,0.091-0.046,0.148-0.068c0.046-0.023,0.08-0.046,0.125-0.057c0.023-0.011,0.034-0.023,0.057-0.034
		c0.034-0.011,0.08-0.034,0.114-0.057c0.193-0.091,0.387-0.205,0.568-0.318c0.034-0.023,0.068-0.045,0.114-0.068
		c0.023-0.023,0.046-0.034,0.068-0.057c0.046-0.023,0.091-0.057,0.125-0.08c0.057-0.034,0.102-0.068,0.148-0.114
		c0.045-0.023,0.08-0.057,0.125-0.091c0.034-0.023,0.057-0.045,0.091-0.068c0.034-0.034,0.08-0.068,0.114-0.102
		c0.171-0.136,0.33-0.284,0.489-0.443c0.034-0.034,0.068-0.08,0.114-0.114c0.034-0.045,0.068-0.091,0.114-0.125
		c0.023-0.034,0.057-0.068,0.091-0.102c0.011-0.023,0.034-0.045,0.057-0.068c0.034-0.045,0.08-0.091,0.114-0.136c0,0,0,0,0-0.011
		c0.046-0.045,0.08-0.091,0.125-0.136c0.023-0.034,0.046-0.068,0.068-0.102c0.023-0.034,0.057-0.068,0.08-0.102
		c0.102-0.136,0.205-0.284,0.296-0.432c0.057-0.08,0.114-0.171,0.159-0.261c0.136-0.216,0.261-0.443,0.375-0.682
		c0.034-0.057,0.057-0.102,0.08-0.159c0.034-0.057,0.057-0.125,0.091-0.182c0.023-0.057,0.046-0.114,0.08-0.171
		c0.125-0.296,0.25-0.603,0.352-0.921c0.023-0.057,0.046-0.125,0.068-0.182c0.023-0.08,0.046-0.148,0.068-0.227
		c0.023-0.057,0.046-0.125,0.068-0.182c0.023-0.08,0.046-0.159,0.057-0.239c0.023-0.057,0.045-0.114,0.057-0.17
		c0.057-0.205,0.114-0.421,0.159-0.637c1.08-4.559,0.819-7.879-0.784-9.88c-1.296-1.614-3.525-2.41-6.606-2.376
		c-2.649,0.034-5.082,0.603-7.22,1.717l-38.667,20.033l-13.382,0.557l-7.538,0.307l-20.76-0.853l-0.159-0.011L16.989,85.912
		c-2.149-1.114-4.57-1.683-7.231-1.717c-3.081-0.034-5.298,0.762-6.594,2.376c-1.603,2.001-1.865,5.321-0.784,9.88
		c0.045,0.216,0.102,0.432,0.159,0.637c0.011,0.057,0.034,0.114,0.045,0.17c0.023,0.08,0.045,0.159,0.068,0.239
		c0.023,0.057,0.045,0.125,0.057,0.182c0.023,0.08,0.057,0.148,0.08,0.227c0.023,0.057,0.034,0.125,0.057,0.182
		c0.114,0.318,0.239,0.625,0.364,0.921c0.023,0.057,0.057,0.114,0.08,0.171s0.057,0.125,0.08,0.182
		c0.034,0.057,0.057,0.102,0.08,0.159c0.125,0.239,0.25,0.466,0.375,0.682c0.057,0.091,0.114,0.182,0.17,0.261
		c0.091,0.148,0.193,0.296,0.296,0.432c0.023,0.034,0.045,0.068,0.068,0.102c0.034,0.034,0.057,0.068,0.08,0.102
		c0.034,0.046,0.08,0.091,0.114,0.136c0,0.011,0.011,0.011,0.011,0.011c0.034,0.046,0.08,0.091,0.114,0.136
		c0.023,0.023,0.034,0.046,0.057,0.068c0.034,0.034,0.057,0.068,0.091,0.102s0.08,0.08,0.114,0.125
		c0.034,0.034,0.08,0.08,0.114,0.114c0.159,0.159,0.318,0.307,0.489,0.443c0.034,0.034,0.08,0.068,0.114,0.102
		c0.034,0.023,0.057,0.045,0.091,0.068c0.034,0.034,0.08,0.068,0.125,0.091c0.045,0.045,0.091,0.08,0.148,0.114
		c0.034,0.023,0.08,0.057,0.114,0.08s0.057,0.034,0.08,0.057c0.034,0.023,0.08,0.046,0.114,0.068
		c0.182,0.114,0.375,0.227,0.568,0.318c0.034,0.023,0.068,0.045,0.114,0.057c0.011,0.011,0.034,0.023,0.057,0.034
		c0.034,0.011,0.08,0.034,0.125,0.057c0.046,0.023,0.102,0.045,0.148,0.068l0.443,0.17c0.057,0.023,0.114,0.046,0.17,0.057
		c0.114,0.046,0.227,0.08,0.341,0.102c0.057,0.023,0.102,0.034,0.159,0.045c0.034,0.011,0.068,0.023,0.091,0.034
		c0.045,0,0.091,0.023,0.136,0.023c0.068,0.023,0.125,0.034,0.182,0.045c0.045,0.011,0.08,0.011,0.114,0.023
		c0.057,0.011,0.114,0.023,0.171,0.034c0.057,0.011,0.114,0.023,0.159,0.023c0.148,0.034,0.296,0.045,0.455,0.068
		c0.034,0,0.068,0.011,0.102,0.011c0.102,0.011,0.193,0.023,0.296,0.023c0.023,0,0.046,0.011,0.068,0.011
		c0.08,0,0.171,0.011,0.25,0.011c0.114,0.011,0.239,0.011,0.352,0.023h0.455c0.114,0,0.216-0.011,0.33-0.011
		c0.045,0,0.102,0,0.159-0.011c-0.057-0.216-0.114-0.443-0.148-0.671c-0.023-0.08-0.034-0.148-0.046-0.227
		c-0.102-0.773-0.08-1.569,0.091-2.342c0.023-0.102,0.045-0.205,0.068-0.296c0.091-0.364,0.216-0.716,0.375-1.057
		c-0.364-0.114-0.716-0.262-1.035-0.443c-0.398-0.205-0.762-0.466-1.08-0.762c-0.262-0.239-0.5-0.512-0.716-0.796
		c-0.102-0.159-0.205-0.318-0.284-0.477c-0.057-0.102-0.114-0.216-0.159-0.33c-0.057-0.102-0.102-0.216-0.136-0.33
		c-0.068-0.171-0.114-0.352-0.159-0.523c-0.011-0.057-0.023-0.125-0.034-0.182c-0.068-0.341-0.091-0.694-0.08-1.035
		c0-0.091,0-0.182,0.011-0.273c0-0.034,0.011-0.08,0.011-0.114c0-0.011,0-0.011,0-0.023c0.011-0.057,0.023-0.125,0.034-0.182
		c0-0.011,0-0.023,0-0.023c0.011-0.057,0.023-0.102,0.034-0.159l0.034-0.171c0.011-0.023,0.011-0.057,0.023-0.08
		c0.011-0.046,0.023-0.091,0.034-0.125c0.011-0.023,0.011-0.034,0.023-0.046c0.011-0.057,0.034-0.125,0.057-0.17
		c0.023-0.068,0.045-0.125,0.068-0.182c0.023-0.045,0.045-0.091,0.057-0.136c0.023-0.034,0.034-0.068,0.046-0.091
		c0.023-0.045,0.045-0.091,0.068-0.136c0.887-1.592,2.854-2.547,5.002-2.422c1.819,0.102,3.479,0.875,4.946,1.546l-0.728,1.58
		c-1.387-0.648-2.831-1.307-4.32-1.398c-1.217-0.068-2.74,0.375-3.377,1.535c-0.477,0.853-0.375,2.058,0.25,2.945
		c0.603,0.853,1.66,1.433,2.842,1.546l1.523,0.148l-0.921,1.228c-1.296,1.762-1.171,4.479,0.273,5.946
		c1.91,1.933,4.9,1.273,4.9,1.273l1.956,1.251h0.011l15.167,9.596l13.302,8.413l0.318,0.193c0.045-0.171,0.102-0.33,0.148-0.489
		c0.023-0.068,0.045-0.148,0.068-0.216c0-0.023,0.011-0.045,0.011-0.057c0.034-0.102,0.057-0.182,0.091-0.273
		c0-0.011,0-0.011,0-0.011c0.046-0.125,0.08-0.261,0.125-0.398c0.102-0.296,0.193-0.591,0.284-0.875
		c0.057-0.136,0.102-0.284,0.148-0.421c0.023-0.068,0.046-0.136,0.068-0.205c0.023-0.045,0.034-0.091,0.046-0.136
		c0.023-0.034,0.034-0.08,0.045-0.125c0.171-0.466,0.318-0.887,0.466-1.273c0.011-0.011,0.011-0.023,0.011-0.034
		c0.023-0.034,0.034-0.068,0.046-0.102c0.125-0.318,0.239-0.614,0.341-0.887c0.034-0.068,0.068-0.136,0.091-0.205
		c0.102-0.262,0.205-0.489,0.284-0.682c0.011-0.023,0.023-0.045,0.034-0.057c0.034-0.102,0.08-0.193,0.114-0.284
		c0.011-0.011,0.011-0.023,0.023-0.034c0.011-0.023,0.011-0.046,0.023-0.068c0.011-0.023,0.023-0.046,0.034-0.068
		c0.011-0.034,0.034-0.068,0.046-0.102c0.034-0.08,0.068-0.148,0.091-0.205c0.011-0.011,0.023-0.034,0.034-0.045
		c0-0.011,0.011-0.023,0.023-0.034c0,0.023,0,0.045-0.011,0.068s-0.011,0.045-0.011,0.068c-0.011,0.023-0.023,0.057-0.034,0.091
		c-0.011,0.034-0.023,0.08-0.034,0.125c0,0.023-0.011,0.045-0.011,0.068c-0.011,0.034-0.023,0.068-0.023,0.091
		c-0.011,0.034-0.023,0.057-0.023,0.091c-0.011,0.034-0.023,0.068-0.034,0.102c-0.08,0.307-0.171,0.682-0.284,1.148
		c-0.011,0.057-0.023,0.102-0.034,0.159c-0.023,0.102-0.046,0.216-0.08,0.33c-0.011,0.057-0.034,0.125-0.045,0.182
		c-0.091,0.409-0.193,0.864-0.307,1.364c-0.011,0.046-0.023,0.102-0.034,0.148c-0.034,0.148-0.057,0.296-0.091,0.443
		c-0.023,0.102-0.046,0.193-0.068,0.296c-0.011,0.057-0.023,0.114-0.034,0.182c-0.023,0.102-0.045,0.205-0.068,0.307
		c-0.057,0.284-0.114,0.568-0.182,0.864c-0.023,0.125-0.046,0.239-0.068,0.364c-0.034,0.182-0.08,0.375-0.114,0.568
		c-0.023,0.125-0.045,0.25-0.068,0.387c-0.398,2.012-0.807,4.389-1.205,7.083c-0.023,0.102-0.034,0.216-0.057,0.33
		c-0.046,0.318-0.091,0.648-0.136,0.966c-0.023,0.182-0.046,0.364-0.068,0.546c-0.023,0.171-0.057,0.364-0.08,0.546
		s-0.046,0.364-0.068,0.557c-0.023,0.182-0.046,0.364-0.068,0.557l-0.046,0.352c-0.034,0.262-0.068,0.523-0.102,0.796
		c-0.023,0.193-0.046,0.387-0.068,0.58c-0.068,0.591-0.136,1.182-0.193,1.796c-0.114,1.091-0.227,2.228-0.33,3.422
		c-0.011,0.091-0.011,0.182-0.023,0.273c-0.023-0.023-0.045-0.046-0.068-0.068c-0.08-0.08-0.159-0.159-0.239-0.239
		c-0.171-0.182-0.33-0.352-0.489-0.512c-0.296-0.33-0.568-0.648-0.796-0.921c0.068-0.728,0.148-1.455,0.227-2.183
		c0.364-3.547,0.944-6.742,1.58-9.516c0.227-0.978,0.455-1.91,0.694-2.785l-10.937-6.913l-19.639-12.386
		c-0.409,0.091-0.83,0.136-1.273,0.136c-1.455,0-3.013-0.534-4.536-2.081c-0.239-0.25-0.455-0.512-0.648-0.807
		c-0.477,0.046-0.932,0.068-1.387,0.068c-5.48,0-9.073-3.058-10.471-8.936c-1.205-5.093-0.819-8.913,1.126-11.358
		c1.649-2.046,4.332-3.07,7.97-3.024c2.933,0.034,5.616,0.671,8.004,1.91l38.667,20.033l20.124,0.773L96.7,104.41l38.667-20.033
		c2.388-1.239,5.071-1.876,8.004-1.91c3.638-0.046,6.321,0.978,7.97,3.024C153.283,87.936,153.658,91.756,152.453,96.849z"/>
</g>
<path fill="#9CD0D8" d="M93.14,143.69c0,2.814-0.213,5.255-0.61,7.368c-0.315,0.115-0.632,0.227-0.949,0.333
	c-9.281,3.125-19.612,2.566-27.905,0.428c-0.754-0.194-1.492-0.401-2.209-0.62c-0.314-0.095-0.623-0.193-0.929-0.293
	c-0.345-2.07-0.529-4.46-0.529-7.217c0-8.702,1.915-13.78,5-16.67c2.986-2.796,7.067-3.544,11.566-3.544
	C85.723,123.477,93.14,125.949,93.14,143.69z"/>
<g>
	<path d="M88.882,126.302c-3.438-3.253-8.152-3.69-12.308-3.69c-5.721,0-9.52,1.211-12.317,3.929
		c-3.442,3.344-5.114,8.953-5.114,17.149c0,2.607,0.165,4.897,0.476,6.907c0.302,0.105,0.608,0.327,0.918,0.428
		c0.306,0.1,0.615,0.197,0.929,0.293c-0.397-2.172-0.594-4.79-0.594-7.628c0-6.015,0.916-10.506,2.787-13.615
		c0.526-0.872,1.125-1.635,1.802-2.292c2.45-2.381,5.876-3.442,11.111-3.442c3.816,0,8.122,0.383,11.12,3.218
		c3.082,2.916,4.581,8.192,4.581,16.131c0,3.002-0.246,5.665-0.695,7.82c0.318-0.106,0.634-0.218,0.949-0.333
		c0.318-0.117,0.633-0.237,0.947-0.363c0.353-2.084,0.528-4.535,0.528-7.124C94.005,135.25,92.329,129.562,88.882,126.302z"/>
</g>
<path fill="#9CD0D8" d="M76.897,65.263c-1.627,11.98,2.302,24.676,10.602,33.502c1.755,1.867,3.708,3.582,5.963,4.798
	c2.031,1.095,4.27,1.764,6.54,2.172c7.766,1.393,16.128-0.386,22.415-5.152c1.253-0.951,2.417-2.02,3.475-3.186
	c4.247-4.68,6.796-10.916,6.678-17.231c-0.099-5.283-1.959-10.385-4.297-15.124c-1.768-3.584-3.875-7.088-6.876-9.726
	c-5.122-4.503-12.357-5.978-19.156-5.455c-5.365,0.411-10.56,1.944-15.63,3.676c-4.567,1.561-7.553,2.187-8.887,7.451
	C77.367,62.399,77.092,63.826,76.897,65.263z"/>
<g>
	<path d="M93.065,104.3c-2.064-1.113-4.084-2.736-6.175-4.961c-4.142-4.405-7.327-9.9-9.212-15.89
		c-1.871-5.948-2.427-12.275-1.609-18.297l0,0c0.199-1.471,0.483-2.94,0.845-4.367c1.35-5.326,4.335-6.327,8.466-7.712
		c0.312-0.105,0.633-0.212,0.961-0.324c4.907-1.677,10.222-3.289,15.836-3.719c7.906-0.608,14.928,1.402,19.772,5.661
		c3.361,2.953,5.546,6.887,7.074,9.984c2.902,5.883,4.295,10.802,4.383,15.479c0.119,6.358-2.394,12.849-6.894,17.809
		c-1.096,1.208-2.303,2.315-3.59,3.291c-6.31,4.783-14.934,6.767-23.068,5.308c-0.451-0.081-0.89-0.17-1.317-0.267
		C96.477,105.825,94.676,105.169,93.065,104.3z M102.304,50.695c-5.428,0.416-10.62,1.992-15.423,3.634
		c-0.332,0.113-0.655,0.222-0.97,0.328c-4.031,1.352-6.251,2.097-7.377,6.537c-0.346,1.366-0.618,2.772-0.808,4.181l0,0
		c-1.618,11.914,2.263,24.182,10.382,32.817c1.966,2.092,3.847,3.608,5.751,4.635c1.788,0.964,3.845,1.646,6.291,2.085
		c7.683,1.378,15.818-0.49,21.762-4.995c1.204-0.913,2.335-1.95,3.361-3.082c4.217-4.648,6.572-10.718,6.461-16.654
		c-0.083-4.422-1.421-9.116-4.211-14.77c-1.46-2.959-3.538-6.709-6.679-9.468c-2.88-2.532-6.226-3.917-9.409-4.639
		C107.905,50.505,104.575,50.521,102.304,50.695z"/>
</g>
<g>
	<path d="M105.171,107.029c-1.776,0-3.557-0.154-5.316-0.47c-2.623-0.471-4.844-1.21-6.789-2.259
		c-2.064-1.113-4.084-2.736-6.176-4.961c-4.142-4.405-7.327-9.9-9.211-15.89c-1.871-5.948-2.427-12.275-1.609-18.297l0.063-0.465
		l0.43-0.188c0.926-0.406,1.959-0.752,3.052-1.119c0.316-0.106,0.64-0.215,0.973-0.329c4.908-1.678,10.224-3.29,15.835-3.719
		c7.907-0.608,14.93,1.403,19.774,5.661c3.359,2.951,5.544,6.885,7.073,9.983c2.904,5.883,4.296,10.801,4.383,15.479
		c0.045,2.388-0.276,4.802-0.955,7.175l-0.054,0.187l-0.131,0.144c-1.096,1.208-2.303,2.315-3.589,3.291
		C117.977,104.999,111.609,107.029,105.171,107.029z M77.665,65.848c-1.454,11.766,2.432,23.824,10.443,32.345
		c1.966,2.092,3.847,3.608,5.751,4.635c1.788,0.964,3.845,1.646,6.291,2.085c1.664,0.298,3.351,0.445,5.031,0.445
		c6.075,0,12.075-1.91,16.732-5.44c1.152-0.874,2.238-1.862,3.229-2.937c0.597-2.153,0.878-4.337,0.838-6.496
		c-0.082-4.423-1.42-9.116-4.211-14.77c-1.46-2.96-3.539-6.71-6.677-9.467c-6.075-5.341-14.225-5.582-18.542-5.25
		c-5.425,0.415-10.618,1.992-15.422,3.634c-0.335,0.115-0.663,0.225-0.982,0.332C79.225,65.273,78.409,65.547,77.665,65.848z"/>
</g>
<path fill="#9CD0D8" d="M76.25,65.263c1.627,11.98-2.302,24.676-10.602,33.502c-1.755,1.867-3.708,3.582-5.963,4.798
	c-2.031,1.095-4.27,1.764-6.54,2.172c-7.766,1.393-16.128-0.386-22.415-5.152c-1.253-0.951-2.417-2.02-3.475-3.186
	c-4.247-4.68-6.796-10.916-6.678-17.231c0.099-5.283,1.959-10.385,4.297-15.124c1.768-3.584,3.875-7.088,6.876-9.726
	c5.122-4.503,12.357-5.978,19.156-5.455c5.365,0.411,10.56,1.944,15.63,3.676c4.567,1.561,7.553,2.187,8.887,7.451
	C75.78,62.399,76.055,63.826,76.25,65.263z"/>
<g>
	<path d="M54.61,106.292c-0.428,0.097-0.866,0.186-1.317,0.267c-8.135,1.459-16.758-0.526-23.068-5.308
		c-1.286-0.976-2.494-2.083-3.589-3.291c-4.501-4.96-7.014-11.451-6.894-17.809c0.088-4.677,1.481-9.596,4.383-15.479
		c1.528-3.097,3.713-7.031,7.074-9.984c4.844-4.258,11.866-6.269,19.772-5.661c5.614,0.43,10.929,2.042,15.836,3.719
		c0.329,0.112,0.649,0.22,0.961,0.324c4.131,1.386,7.116,2.387,8.466,7.712c0.361,1.427,0.645,2.896,0.845,4.367l0,0
		c0.818,6.023,0.261,12.35-1.609,18.297c-1.884,5.99-5.069,11.485-9.212,15.89c-2.091,2.225-4.111,3.848-6.175,4.961
		C58.471,105.169,56.671,105.825,54.61,106.292z M41.711,51.305c-3.183,0.722-6.529,2.108-9.409,4.639
		c-3.14,2.759-5.219,6.509-6.679,9.468c-2.79,5.655-4.128,10.348-4.211,14.77c-0.111,5.936,2.244,12.006,6.461,16.654
		c1.026,1.132,2.157,2.169,3.361,3.082c5.944,4.505,14.08,6.372,21.762,4.995c2.445-0.439,4.503-1.121,6.291-2.085
		c1.903-1.026,3.784-2.542,5.751-4.635c8.119-8.635,12-20.903,10.382-32.817l0,0c-0.191-1.409-0.463-2.816-0.808-4.181
		c-1.125-4.441-3.346-5.186-7.377-6.537c-0.315-0.106-0.639-0.214-0.97-0.328c-4.803-1.642-9.995-3.218-15.423-3.634
		C48.572,50.521,45.242,50.505,41.711,51.305z"/>
</g>
<g>
	<path d="M47.976,107.029c-6.439,0-12.806-2.029-17.752-5.778c-1.286-0.976-2.494-2.083-3.589-3.291l-0.131-0.144l-0.054-0.187
		c-0.678-2.373-1-4.787-0.955-7.175c0.087-4.678,1.48-9.596,4.383-15.479c1.528-3.098,3.714-7.032,7.073-9.983
		c4.844-4.258,11.867-6.269,19.774-5.661c5.611,0.43,10.927,2.042,15.835,3.719c0.333,0.114,0.657,0.223,0.973,0.329
		c1.093,0.367,2.126,0.714,3.052,1.119l0.43,0.188l0.063,0.465c0.818,6.023,0.261,12.35-1.609,18.297
		c-1.884,5.99-5.069,11.485-9.212,15.89c-2.091,2.225-4.111,3.848-6.175,4.961c-1.946,1.049-4.167,1.788-6.789,2.259
		C51.534,106.874,49.752,107.029,47.976,107.029z M28.006,96.98c0.991,1.076,2.077,2.063,3.229,2.938
		c5.944,4.505,14.08,6.372,21.762,4.995c2.445-0.439,4.503-1.121,6.291-2.085c1.903-1.026,3.784-2.542,5.751-4.635
		c8.012-8.521,11.897-20.579,10.443-32.345c-0.744-0.301-1.56-0.575-2.481-0.884c-0.319-0.107-0.646-0.217-0.982-0.332
		c-4.803-1.642-9.996-3.219-15.421-3.634c-4.317-0.332-12.467-0.091-18.542,5.25c-3.138,2.757-5.217,6.508-6.677,9.467
		c-2.791,5.654-4.129,10.347-4.211,14.77C27.127,92.643,27.409,94.828,28.006,96.98z"/>
</g>
<path fill="#9CD0D8" d="M109.573,76.535c-4.125-15.583-13.062-22.458-32.999-21.541C56.637,54.077,47.7,60.952,43.575,76.535
	s5.042,27.881,5.042,27.881c12.833,18.333,27.958,15.647,27.958,15.647s15.125,2.686,27.957-15.647
	C104.531,104.416,113.697,92.118,109.573,76.535z"/>
<g>
	<path d="M78.706,121.039c-1.09,0-1.831-0.087-2.133-0.13c-0.771,0.11-4.42,0.506-9.407-0.994
		c-5.038-1.516-12.464-5.351-19.228-15.01c-0.175-0.236-2.414-3.319-4.178-8.307c-1.66-4.693-3.179-12.021-0.994-20.277
		c2.21-8.35,5.677-13.891,10.909-17.436c5.444-3.689,12.721-5.191,22.898-4.728c10.177-0.463,17.454,1.039,22.898,4.728
		c5.232,3.545,8.699,9.086,10.909,17.436c2.185,8.256,0.666,15.583-0.994,20.277c-1.763,4.986-4.001,8.068-4.178,8.307
		c-6.765,9.66-14.19,13.494-19.229,15.01C82.944,120.829,80.403,121.039,78.706,121.039z M76.574,119.214l0.146,0.025
		c0.035,0.006,3.72,0.617,8.874-0.955c4.761-1.452,11.792-5.119,18.252-14.348l0.015-0.02c0.022-0.03,2.259-3.07,3.969-7.932
		c1.569-4.459,3.004-11.416,0.934-19.236c-4.215-15.924-13.23-21.79-32.152-20.92l-0.038,0.002l-0.038-0.002
		c-18.922-0.87-27.937,4.995-32.152,20.92c-2.07,7.82-0.634,14.777,0.934,19.236c1.71,4.861,3.947,7.902,3.97,7.932l0.014,0.02
		c6.46,9.229,13.491,12.896,18.252,14.348c5.154,1.572,8.84,0.961,8.876,0.955L76.574,119.214z"/>
</g>
<path fill="#9CD0D8" d="M79.013,104.474c-0.064,0.118-3.261,5.866-9.642,8.65c-4.077,1.781-9.454,2.35-16.142-0.534
	c0,0-5.101-2.028-6.481-3.689c-1.38-1.663-2.509-4.255-2.509-4.255l-0.293-5.519l-1.798-4.683c0,0-1.296-3.306-1.087-3.576
	s0.878-4.649,3.512-4.634c0.029,0,0.06,0,0.089,0.003c2.591,0.053,4.558,1.808,5.054,5.155c0.502,3.387,2.038,11.094,8.739,11.164
	s10.257-2.341,12.319-5.812c0,0,5.615,2.085,6.369,5.101C77.879,104.789,78.962,104.488,79.013,104.474z"/>
<path d="M83.762,106.724c-0.29,0.485-0.594,0.92-0.909,1.31c-2.038,2.532-4.503,3.182-6.424,3.213
	c-0.557,0.008-1.069-0.035-1.511-0.099c1.764-1.429,3.224-3.161,4.249-5.102c0.999,0.472,2.231,0.707,3.689,0.707
	C83.151,106.752,83.452,106.742,83.762,106.724z"/>
<path fill="#E16760" d="M82.854,108.034c-2.038,2.532-4.503,3.182-6.424,3.213C78.794,107.885,81.243,107.655,82.854,108.034z"/>
<path d="M87.74,105.237c-0.099-0.45-0.545-0.736-0.996-0.637c-0.583,0.128-1.125,0.227-1.631,0.301c-0.004,0-0.007,0.001-0.01,0.001
	c-3.151,0.461-4.847-0.053-5.755-0.67c-0.068-0.047-0.132-0.095-0.192-0.142c-1.022-0.812-1.055-1.872-1.055-1.933
	c0-0.459-0.368-0.832-0.826-0.838c-0.461-0.004-0.84,0.365-0.846,0.827c-0.001,0.071-0.003,1.654,1.346,2.955
	c-1.155,2.258-2.963,4.216-5.189,5.692c-0.046,0.029-0.091,0.06-0.137,0.089c-1.59,1.033-3.387,1.82-5.306,2.297
	c-4.298,1.068-9.256,0.616-13.958-1.271c-2.744-1.101-6.296-3.136-7.631-6.573c-0.555-1.427-0.693-2.98-0.839-4.623
	c-0.149-1.685-0.305-3.427-0.944-5.075c-0.205-0.528-0.454-1.034-0.696-1.522c-0.453-0.916-0.879-1.78-0.966-2.683
	c-0.107-1.14,0.355-2.223,0.762-2.928c0.28-0.485,0.545-0.813,0.832-1.033c0.985-0.751,2.544-0.355,3.422,0.442
	c0.889,0.807,1.483,2.04,1.866,3.88c0.105,0.506,0.194,1.034,0.279,1.546c0.184,1.104,0.373,2.245,0.762,3.352
	c0.899,2.567,2.818,4.723,5.264,5.916c2.722,1.327,6.04,1.442,9.107,0.321c2.718-0.995,5.245-2.985,7.115-5.601
	c0.268-0.376,0.181-0.899-0.195-1.167c-0.375-0.269-0.898-0.181-1.167,0.194c-1.675,2.346-3.923,4.123-6.328,5.003
	c-2.641,0.967-5.484,0.875-7.799-0.254c-2.053-1.001-3.664-2.811-4.42-4.966c-0.34-0.97-0.51-1.992-0.691-3.073
	c-0.088-0.528-0.178-1.073-0.291-1.613c-0.459-2.202-1.214-3.721-2.379-4.778c-1.385-1.257-3.803-1.87-5.558-0.532
	c-0.471,0.358-0.873,0.843-1.267,1.526c-0.76,1.316-1.098,2.672-0.978,3.922c0.114,1.21,0.631,2.255,1.13,3.266
	c0.236,0.477,0.459,0.927,0.635,1.387c0.553,1.426,0.691,2.977,0.838,4.619c0.149,1.686,0.305,3.431,0.945,5.08
	c1.554,3.996,5.516,6.294,8.567,7.518c3.232,1.298,6.585,1.957,9.801,1.957c1.785,0,3.529-0.203,5.183-0.615
	c1.994-0.496,3.87-1.299,5.55-2.351c0.591,0.177,1.753,0.459,3.193,0.459c0.434,0,0.893-0.025,1.369-0.086
	c2.461-0.318,5.838-1.684,8.135-6.336c0.424-0.07,0.86-0.153,1.309-0.252C87.553,106.134,87.839,105.688,87.74,105.237z
	 M74.919,111.148c1.764-1.429,3.224-3.161,4.249-5.102c0.999,0.472,2.231,0.707,3.689,0.707c0.293,0,0.594-0.01,0.905-0.028
	C81.045,111.263,77.117,111.468,74.919,111.148z"/>
<path d="M60.657,104.897c0.496,0.99,0.672,2.115,0.666,3.222c0.671-1.318,0.755-2.921,0.226-4.302
	c0.495-0.311,1.138-0.625,1.626-0.303c0.15,0.099,0.261,0.247,0.358,0.399c0.502,0.784,0.722,1.745,0.612,2.669
	c0.572-0.359,0.712-1.123,0.736-1.798c0.024-0.655-0.01-1.312-0.1-1.961c-0.015-0.106-0.031-0.216-0.001-0.319
	c0.063-0.217,0.309-0.33,0.534-0.34c0.522-0.024,0.997,0.36,1.227,0.83c0.23,0.47,0.26,1.01,0.259,1.533
	c0.295-0.009,0.53-0.279,0.598-0.567c0.069-0.287,0.01-0.588-0.048-0.877c-0.155-0.768-0.311-1.536-0.466-2.303
	c0.058,0.288-2.605,1.126-2.905,1.209c-1.057,0.293-2.151,0.45-3.247,0.465c-0.484,0.007-2.519-0.462-2.114,0.348
	c0.143,0.286,0.853,0.568,1.105,0.812C60.105,103.982,60.42,104.423,60.657,104.897z"/>
<path fill="#FDDF4E" d="M79.918,128.978c-0.14,0.334-0.343,0.638-0.572,0.918c-0.184,0.227-0.391,0.441-0.645,0.588
	c-0.068,0.039-0.138,0.073-0.209,0.101c-0.438,0.174-0.926,0.156-1.393,0.134c-0.093-0.005-0.2,0-0.313,0.007
	c-0.362,0.023-0.792,0.073-1.068-0.033c-0.002-0.001-0.006-0.002-0.008-0.004c-0.049-0.019-0.098-0.043-0.144-0.073
	c-0.023-0.013-0.045-0.027-0.068-0.044c-0.682-0.477-1.136-1.827-1.262-2.51c-0.194-1.056,0.011-2.194,0.626-3.074
	c0.341-0.487,0.73-0.895,1.135-1.304c0.489-0.496,0.999-0.992,1.469-1.633c0.503,1.23,1.001,1.67,1.57,2.454
	c0.465,0.64,0.725,1.384,0.947,2.144C80.203,127.409,80.222,128.248,79.918,128.978z"/>
<path fill="#FDDF4E" d="M58.801,132.324c-0.13,0.705-0.611,2.122-1.33,2.554c-0.05,0.031-0.1,0.056-0.152,0.076
	c-0.362,0.139-0.99,0.008-1.381,0.026c-0.136,0.006-0.272,0.012-0.412,0.012c-0.203,0.002-0.407-0.006-0.606-0.042
	c-0.128-0.023-0.255-0.056-0.376-0.105c-0.01-0.004-0.019-0.008-0.029-0.012c-0.062-0.026-0.121-0.055-0.181-0.089
	c-0.253-0.145-0.459-0.36-0.645-0.588c-0.228-0.28-0.432-0.584-0.571-0.918c-0.306-0.73-0.287-1.568-0.064-2.328
	c0.221-0.76,0.481-1.504,0.946-2.144c0.221-0.302,0.429-0.554,0.633-0.821c0.324-0.421,0.629-0.879,0.939-1.633
	c0.857,1.169,1.849,1.859,2.603,2.938C58.79,130.13,58.996,131.268,58.801,132.324z"/>
<path fill="#E16760" d="M60.056,137.939v9.012h-8.351v-9.012c0-1.378,0.897-2.546,2.139-2.952c0.224-0.074,0.458-0.121,0.701-0.142
	c0.044-0.005,0.088-0.007,0.133-0.01c0.044-0.001,0.088-0.002,0.132-0.002h2.141c0.177,0,0.351,0.014,0.52,0.044
	C58.939,135.124,60.056,136.401,60.056,137.939z"/>
<path fill="#FDDF4E" d="M100.023,133.238c-0.139,0.334-0.343,0.639-0.571,0.918c-0.186,0.227-0.391,0.443-0.645,0.588
	c-0.068,0.039-0.138,0.073-0.209,0.101c-0.438,0.174-0.927,0.156-1.393,0.134c-0.093-0.005-0.2,0-0.313,0.007
	c-0.363,0.023-0.792,0.073-1.068-0.033c-0.004-0.001-0.006-0.002-0.01-0.004c-0.049-0.019-0.096-0.044-0.143-0.073
	c-0.023-0.013-0.045-0.027-0.068-0.044c-0.682-0.477-1.136-1.827-1.262-2.51c-0.195-1.055,0.011-2.194,0.626-3.073
	c0.341-0.488,0.73-0.896,1.135-1.304c0.489-0.497,0.998-0.993,1.468-1.635c0.503,1.23,1.001,1.67,1.572,2.454
	c0.465,0.64,0.725,1.384,0.946,2.144C100.31,131.67,100.329,132.508,100.023,133.238z"/>
<path fill="#E16760" d="M101.438,137.939v9.012h-8.351v-9.012c0-1.373,0.89-2.536,2.124-2.947c0.149-0.05,0.303-0.088,0.462-0.114
	c0.126-0.023,0.256-0.036,0.388-0.042c0.044-0.001,0.088-0.002,0.132-0.002h2.141c0.089,0,0.177,0.004,0.265,0.012
	C100.188,134.98,101.438,136.313,101.438,137.939z"/>
<path fill="#E16760" d="M78.491,130.585c-0.087-0.008-0.176-0.012-0.265-0.012h-2.141c-0.044,0-0.088,0.001-0.132,0.002
	c-0.044-0.001-0.088-0.002-0.133-0.002h-0.322c0.023,0.017,0.045,0.031,0.068,0.044c-0.158,0.026-0.313,0.064-0.462,0.114
	c-1.234,0.41-2.124,1.574-2.124,2.947v9.012h5.945h2.407v-9.012C81.331,132.052,80.083,130.72,78.491,130.585z"/>
<g>
	<path d="M76.182,131.651c-0.263,0-0.532-0.027-0.785-0.125c-1.523-0.586-2.019-3.191-2.04-3.302l0,0
		c-0.245-1.329,0.036-2.695,0.772-3.746c0.425-0.608,0.908-1.095,1.375-1.566c0.44-0.444,0.855-0.863,1.24-1.387l0.942-1.285
		l0.603,1.475c0.333,0.815,0.646,1.211,1.041,1.712c0.136,0.172,0.276,0.35,0.425,0.554c0.55,0.756,0.845,1.61,1.082,2.419
		c0.298,1.02,0.263,2.058-0.097,2.922c-0.16,0.383-0.39,0.755-0.704,1.14c-0.187,0.229-0.484,0.562-0.89,0.796
		c-0.723,0.417-1.512,0.381-2.089,0.354c-0.083-0.004-0.226,0.006-0.365,0.016C76.53,131.639,76.357,131.651,76.182,131.651z
		 M76.03,129.857c0.101,0.021,0.374,0.002,0.539-0.01c0.189-0.013,0.384-0.027,0.57-0.018c0.415,0.019,0.845,0.039,1.116-0.118
		c0.151-0.087,0.3-0.258,0.399-0.379c0.204-0.249,0.347-0.478,0.44-0.698c0.204-0.489,0.215-1.104,0.031-1.734
		c-0.221-0.756-0.444-1.363-0.812-1.869c-0.128-0.176-0.258-0.34-0.383-0.499c-0.213-0.271-0.431-0.546-0.648-0.886
		c-0.171,0.18-0.342,0.352-0.51,0.522c-0.433,0.437-0.843,0.85-1.18,1.333c-0.457,0.653-0.636,1.55-0.479,2.4l0,0
		C75.273,128.774,75.761,129.733,76.03,129.857z"/>
</g>
<g>
	<path d="M56.854,135.911c-0.175,0-0.348-0.012-0.511-0.023c-0.138-0.01-0.281-0.02-0.364-0.016
		c-0.576,0.026-1.365,0.063-2.088-0.354c-0.401-0.231-0.687-0.547-0.89-0.796c-0.314-0.385-0.545-0.757-0.704-1.14
		c-0.361-0.864-0.395-1.902-0.097-2.922c0.236-0.81,0.531-1.663,1.082-2.419c0.149-0.204,0.289-0.382,0.425-0.554
		c0.396-0.502,0.708-0.898,1.042-1.712l0.603-1.475l0.942,1.285c0.385,0.525,0.8,0.944,1.24,1.388
		c0.467,0.471,0.95,0.958,1.375,1.566c0.736,1.052,1.017,2.417,0.772,3.746l0,0c-0.02,0.111-0.517,2.716-2.04,3.302
		C57.386,135.884,57.117,135.911,56.854,135.911z M56.018,134.087c0.149,0,0.301,0.011,0.449,0.021
		c0.165,0.012,0.438,0.031,0.539,0.01c0.268-0.124,0.757-1.083,0.917-1.956l0,0c0.157-0.85-0.023-1.747-0.479-2.4
		c-0.337-0.482-0.747-0.895-1.18-1.333c-0.169-0.17-0.339-0.342-0.51-0.523c-0.218,0.34-0.435,0.615-0.648,0.886
		c-0.125,0.159-0.254,0.323-0.383,0.499c-0.368,0.506-0.591,1.113-0.812,1.869c-0.184,0.63-0.173,1.246,0.031,1.734
		c0.092,0.221,0.236,0.449,0.44,0.698c0.099,0.121,0.247,0.292,0.399,0.379c0.252,0.145,0.622,0.141,1.116,0.118
		C55.937,134.088,55.978,134.087,56.018,134.087z"/>
</g>
<path fill="#E16760" d="M122.579,155.089c-0.203,4.59-3.742,10.596-5.863,12.87c-2.512,2.691-5.769,4.379-9.05,5.752
	c-5.404,2.259-11.058,3.796-16.799,4.566c-3.886,0.52-7.802,0.69-11.718,0.78c-0.768,0.019-1.535,0.033-2.303,0.048
	c-0.091,0.001-0.183,0.004-0.274,0.005c-0.091-0.001-0.183-0.004-0.274-0.005c-4.682-0.084-9.373-0.206-14.021-0.828
	c-5.741-0.77-11.395-2.307-16.799-4.566c-3.281-1.373-6.538-3.061-9.05-5.752c-2.122-2.273-5.661-8.28-5.863-12.87
	c-0.067-1.506,0.225-2.859,1.043-3.877c3.858-4.797,13.601-4.437,18.819-4.565c8.714-0.213,17.429-0.316,26.145-0.313
	c0.859,0,1.718,0,2.577,0.002c7.857,0.015,15.713,0.119,23.568,0.311c5.218,0.127,14.961-0.232,18.819,4.565
	C122.354,152.23,122.646,153.583,122.579,155.089z"/>
<g>
	<path d="M76.571,180.002l-0.286-0.005c-4.804-0.087-9.495-0.216-14.128-0.836c-5.819-0.78-11.547-2.337-17.024-4.627
		c-2.895-1.211-6.574-2.984-9.358-5.966c-2.363-2.533-5.897-8.776-6.103-13.439c-0.082-1.844,0.335-3.35,1.239-4.476
		c3.754-4.667,12.265-4.789,17.898-4.87c0.567-0.008,1.103-0.016,1.595-0.028c8.506-0.208,17.163-0.313,25.735-0.313
		c1.004,0,2.007,0,3.011,0.002c7.826,0.015,15.762,0.12,23.587,0.311c0.492,0.012,1.028,0.02,1.595,0.028
		c5.632,0.081,14.144,0.202,17.898,4.87c0.905,1.125,1.322,2.631,1.239,4.476c-0.206,4.663-3.739,10.906-6.102,13.439
		c-2.784,2.983-6.464,4.755-9.358,5.966c-5.478,2.29-11.205,3.847-17.024,4.627c-4.104,0.549-8.276,0.706-11.816,0.788
		c-0.768,0.019-1.537,0.033-2.307,0.048L76.571,180.002z M76.14,147.226c-8.559,0-17.199,0.105-25.691,0.313
		c-0.501,0.012-1.041,0.02-1.613,0.028c-5.298,0.076-13.305,0.191-16.533,4.204c-0.625,0.777-0.91,1.88-0.847,3.278
		c0.194,4.385,3.71,10.25,5.624,12.301c2.537,2.718,5.843,4.325,8.742,5.538c5.333,2.23,10.909,3.745,16.573,4.505
		c4.538,0.607,9.173,0.735,13.918,0.82l0.258,0.005l0.263-0.005c0.761-0.014,1.526-0.028,2.292-0.048
		c3.493-0.081,7.605-0.235,11.622-0.773c5.664-0.759,11.24-2.275,16.573-4.505c2.899-1.213,6.205-2.819,8.742-5.538
		c1.914-2.051,5.431-7.916,5.624-12.3l0,0c0.062-1.398-0.223-2.501-0.847-3.278c-3.228-4.013-11.234-4.128-16.533-4.204
		c-0.572-0.008-1.112-0.016-1.613-0.028c-7.811-0.191-15.734-0.295-23.548-0.31C78.144,147.226,77.142,147.227,76.14,147.226z"/>
</g>
<g>
	<path d="M82.224,143.582H72.088v-9.904c0-2.204,1.793-3.997,3.997-3.997h2.141c2.204,0,3.997,1.793,3.997,3.997L82.224,143.582
		L82.224,143.582z M73.872,141.798h6.567v-8.12c0-1.22-0.993-2.213-2.213-2.213h-2.141c-1.22,0-2.213,0.993-2.213,2.213
		C73.872,133.678,73.872,141.798,73.872,141.798z"/>
</g>
<g>
	<path d="M60.949,147.843H50.813v-9.904c0-2.204,1.793-3.997,3.997-3.997h2.141c2.204,0,3.997,1.793,3.997,3.997L60.949,147.843
		L60.949,147.843z M52.597,146.058h6.567v-8.12c0-1.22-0.993-2.213-2.213-2.213H54.81c-1.22,0-2.213,0.993-2.213,2.213
		C52.597,137.938,52.597,146.058,52.597,146.058z"/>
</g>
<g>
	<path d="M95.503,135.787c-1.523-0.586-2.019-3.191-2.04-3.302l0,0c-0.245-1.329,0.037-2.695,0.772-3.746
		c0.425-0.608,0.908-1.095,1.375-1.566c0.44-0.444,0.855-0.863,1.24-1.388l0.942-1.285l0.603,1.475
		c0.333,0.815,0.646,1.211,1.042,1.712c0.136,0.172,0.276,0.35,0.425,0.554c0.55,0.756,0.845,1.609,1.082,2.419
		c0.298,1.02,0.263,2.058-0.097,2.922c-0.16,0.382-0.39,0.755-0.704,1.14c-0.204,0.249-0.489,0.565-0.89,0.796
		c-0.723,0.416-1.512,0.38-2.088,0.354c-0.083-0.004-0.226,0.006-0.364,0.016c-0.164,0.011-0.336,0.023-0.511,0.023
		C96.025,135.911,95.757,135.884,95.503,135.787z M97.245,134.089c0.494,0.023,0.864,0.028,1.116-0.118
		c0.151-0.087,0.3-0.258,0.399-0.379c0.204-0.249,0.347-0.478,0.44-0.698c0.204-0.489,0.215-1.104,0.031-1.734
		c-0.221-0.756-0.444-1.364-0.812-1.869c-0.128-0.176-0.258-0.34-0.383-0.499c-0.214-0.271-0.431-0.546-0.648-0.886
		c-0.171,0.18-0.342,0.353-0.51,0.523c-0.433,0.437-0.843,0.85-1.18,1.333c-0.457,0.653-0.636,1.55-0.479,2.4l0,0
		c0.161,0.873,0.649,1.832,0.917,1.956c0.101,0.021,0.374,0.002,0.539-0.01c0.148-0.01,0.3-0.021,0.449-0.021
		C97.165,134.087,97.205,134.088,97.245,134.089z"/>
</g>
<g>
	<path d="M92.194,137.938c0-2.204,1.793-3.997,3.997-3.997h2.141c2.204,0,3.997,1.793,3.997,3.997v9.904H92.193L92.194,137.938
		L92.194,137.938z M100.545,137.938c0-1.22-0.993-2.213-2.213-2.213h-2.141c-1.22,0-2.213,0.993-2.213,2.213v8.12h6.567
		C100.545,146.058,100.545,137.938,100.545,137.938z"/>
</g>
<path fill="#FDDF4E" d="M123.518,142.78c-15.643-0.199-31.301-0.005-46.947,0c-15.645-0.005-31.304-0.199-46.947,0
	c-4.445,0.056-5.917,3.488-5.531,7.915v0.004c0.008,0.092,0.018,0.184,0.027,0.277c0.159,1.53,0.885,3.071,1.987,4.114
	c0.782,0.741,1.752,1.231,2.843,1.29c3.107,0.164,5.388-2.986,8.404-3.751c3.724-0.945,7.213,1.881,10.778,3.311
	c3.261,1.309,6.974,1.453,10.326,0.401c3.525-1.105,6.731-3.492,10.425-3.556c2.652-0.046,5.179,1.12,7.686,2.184
	c2.508-1.065,5.035-2.231,7.686-2.184c3.694,0.064,6.9,2.451,10.425,3.556c3.352,1.052,7.065,0.908,10.326-0.401
	c3.565-1.43,7.055-4.255,10.778-3.311c3.016,0.765,5.296,3.915,8.404,3.751c1.091-0.058,2.062-0.548,2.843-1.29
	c1.102-1.043,1.827-2.584,1.987-4.114c0.01-0.093,0.019-0.186,0.027-0.277v-0.004C129.435,146.268,127.962,142.836,123.518,142.78z"
	/>
<g>
	<path d="M99.281,157.934c-1.641,0-3.283-0.247-4.865-0.743c-1.32-0.414-2.59-0.997-3.818-1.561
		c-2.147-0.986-4.175-1.917-6.355-1.954c-2.277-0.039-4.478,0.899-6.806,1.893c-0.172,0.074-0.344,0.147-0.517,0.22l-0.349,0.148
		l-0.349-0.148c-0.172-0.073-0.344-0.147-0.517-0.22c-2.327-0.994-4.524-1.928-6.805-1.893c-2.18,0.038-4.208,0.969-6.355,1.954
		c-1.228,0.564-2.498,1.147-3.818,1.561c-3.572,1.12-7.452,0.97-10.926-0.424c-0.998-0.4-1.987-0.904-2.944-1.392
		c-2.514-1.281-4.888-2.49-7.283-1.882c-1.14,0.289-2.192,0.983-3.307,1.718c-1.617,1.066-3.288,2.169-5.364,2.059
		c-1.243-0.066-2.422-0.597-3.41-1.533c-1.232-1.167-2.077-2.913-2.26-4.669c-0.328-3.155,0.243-5.661,1.653-7.245
		c1.12-1.259,2.711-1.91,4.726-1.936c10.562-0.134,21.302-0.089,31.689-0.045c5.005,0.021,10.181,0.043,15.269,0.045
		c5.088-0.002,10.263-0.023,15.268-0.045c10.387-0.044,21.127-0.089,31.689,0.045l0,0c2.016,0.025,3.606,0.677,4.726,1.935
		c1.41,1.584,1.982,4.089,1.653,7.245c-0.183,1.756-1.028,3.502-2.261,4.669c-0.987,0.936-2.166,1.466-3.409,1.533
		c-2.078,0.109-3.748-0.993-5.364-2.059c-1.114-0.735-2.166-1.429-3.307-1.718c-2.395-0.607-4.769,0.602-7.283,1.882
		c-0.957,0.488-1.946,0.992-2.944,1.392C103.406,157.543,101.345,157.934,99.281,157.934z M84.103,151.89
		c0.057,0,0.113,0.001,0.17,0.002c2.553,0.044,4.849,1.098,7.069,2.117c1.178,0.541,2.395,1.1,3.608,1.48
		c3.134,0.983,6.679,0.846,9.727-0.378c0.924-0.37,1.877-0.856,2.799-1.326c2.697-1.374,5.485-2.794,8.531-2.022
		c1.432,0.363,2.662,1.174,3.85,1.958c1.439,0.949,2.796,1.843,4.287,1.767c1.027-0.055,1.805-0.599,2.277-1.046
		c0.933-0.883,1.573-2.214,1.713-3.559c0.275-2.643-0.144-4.674-1.211-5.874c-0.773-0.869-1.922-1.319-3.416-1.338l0,0
		c-10.547-0.134-21.279-0.089-31.659-0.044c-5.007,0.021-10.184,0.043-15.276,0.045c-5.092-0.002-10.269-0.023-15.276-0.045
		c-10.379-0.044-21.113-0.089-31.659,0.044c-1.494,0.019-2.643,0.469-3.416,1.338c-1.068,1.2-1.486,3.231-1.211,5.874
		c0.14,1.345,0.78,2.675,1.713,3.558c0.472,0.447,1.249,0.991,2.277,1.046c1.488,0.08,2.848-0.818,4.286-1.767
		c1.189-0.784,2.418-1.595,3.85-1.958c3.046-0.773,5.834,0.648,8.531,2.022c0.922,0.47,1.875,0.955,2.798,1.326
		c3.048,1.223,6.593,1.361,9.727,0.378c1.213-0.38,2.43-0.939,3.608-1.48c2.22-1.019,4.515-2.073,7.069-2.117
		c2.663-0.043,5.14,1.012,7.537,2.036c0.055,0.023,0.11,0.047,0.165,0.07c0.055-0.023,0.11-0.047,0.164-0.07
		C79.082,152.925,81.507,151.89,84.103,151.89z"/>
</g>
<path d="M141.763,53.463c0,0-0.174,0.678-0.479,1.864c-0.302,1.185-0.711,2.885-1.115,4.939c-0.427,2.047-0.867,4.45-1.134,7.038
	c-0.253,2.578-0.424,5.374,0.045,8.039c0.24,1.317,0.669,2.61,1.44,3.579l0.657,0.765c0.213,0.283,0.452,0.584,0.635,0.88
	c0.399,0.586,0.709,1.211,1.001,1.826c1.101,2.506,1.409,5.035,1.471,7.153c0.074,2.128-0.133,3.887-0.323,5.102
	c-0.18,1.218-0.379,1.895-0.379,1.895s0.059-0.701,0.11-1.92c0.035-1.22,0.034-2.965-0.156-5.028
	c-0.229-2.051-0.662-4.451-1.721-6.746c-0.277-0.564-0.568-1.135-0.937-1.661c-0.342-0.524-0.759-0.997-1.241-1.563
	c-0.943-1.211-1.386-2.671-1.638-4.092c-0.247-1.432-0.274-2.869-0.23-4.267c0.048-1.399,0.183-2.765,0.383-4.073
	c0.391-2.618,0.941-5.017,1.468-7.056C140.732,56.071,141.763,53.463,141.763,53.463z"/>
<path fill="#E16760" d="M153.156,37.272c-0.226-8.328-5.856-14.931-12.574-14.749c-4.452,0.121-8.253,3.201-10.253,7.682
	c0-0.008-0.001-0.018-0.001-0.026c-0.025,0.056-0.042,0.118-0.066,0.174c-0.216,0.498-0.415,1.009-0.585,1.539
	c-0.009,0.028-0.02,0.053-0.029,0.081c-0.177,0.561-0.321,1.14-0.443,1.731c-0.031,0.148-0.053,0.298-0.08,0.448
	c-0.082,0.456-0.147,0.919-0.194,1.389c-0.017,0.172-0.037,0.343-0.049,0.517c-0.045,0.616-0.07,1.239-0.052,1.874
	c0.206,7.556,4.863,13.673,10.741,14.61l-0.532,2.208c0,0,2.281,2.649,5.541,0.652l-1.271-2.973c0.14-0.032,0.281-0.058,0.419-0.095
	c0.184-0.05,0.363-0.114,0.544-0.174c0.185-0.061,0.37-0.12,0.551-0.192c0.192-0.076,0.378-0.163,0.566-0.251
	c0.107-0.05,0.218-0.09,0.324-0.144c-0.008-0.001-0.015-0.002-0.023-0.003C150.214,49.287,153.331,43.715,153.156,37.272z"/>
<path d="M154.627,69.574c0,0-0.256,0.409-0.703,1.125c-0.449,0.713-1.078,1.741-1.78,2.999c-0.717,1.248-1.529,2.719-2.274,4.344
	c-0.727,1.627-1.473,3.392-1.823,5.208c-0.174,0.898-0.269,1.821-0.099,2.642c0.042,0.204,0.086,0.406,0.166,0.589l0.248,0.645
	c0.161,0.5,0.288,1,0.322,1.49c0.1,0.988-0.069,1.945-0.355,2.774c-0.272,0.84-0.698,1.552-1.113,2.171
	c-0.832,1.246-1.743,2.084-2.4,2.628c-0.65,0.554-1.077,0.794-1.077,0.794s0.333-0.356,0.876-0.995
	c0.522-0.655,1.264-1.6,1.934-2.83c0.333-0.616,0.612-1.317,0.826-2.061c0.21-0.747,0.294-1.557,0.209-2.368
	c-0.035-0.412-0.15-0.806-0.275-1.189l-0.128-0.326l-0.123-0.341c-0.102-0.253-0.159-0.513-0.209-0.774
	c-0.197-1.05-0.065-2.085,0.134-3.067c0.453-1.96,1.246-3.768,2.116-5.374c0.868-1.609,1.77-3.048,2.588-4.248
	C153.347,71.024,154.627,69.574,154.627,69.574z"/>
<path fill="#3A51A3" d="M160.923,48.358c-3.042-0.939-6.321,0.274-8.703,2.849c0.002-0.006,0.004-0.013,0.005-0.018
	c-0.03,0.032-0.056,0.071-0.086,0.104c-0.26,0.286-0.51,0.586-0.746,0.904c-0.013,0.018-0.028,0.034-0.041,0.052
	c-0.248,0.338-0.478,0.697-0.695,1.068c-0.056,0.095-0.107,0.193-0.16,0.29c-0.159,0.289-0.308,0.586-0.448,0.892
	c-0.052,0.113-0.104,0.225-0.153,0.341c-0.172,0.407-0.331,0.822-0.465,1.256c-1.594,5.162,0.156,10.372,3.92,12.354l-0.866,1.372
	c0,0,0.937,2.317,3.602,1.713l-0.179-2.307c0.102,0.013,0.203,0.028,0.305,0.034c0.137,0.009,0.273,0.006,0.41,0.007
	c0.139,0.001,0.278,0.003,0.417-0.004c0.147-0.007,0.293-0.024,0.44-0.04c0.084-0.009,0.169-0.011,0.253-0.023
	c-0.005-0.002-0.01-0.005-0.015-0.007c3.589-0.508,6.977-3.565,8.336-7.967C167.809,55.536,165.513,49.775,160.923,48.358z"/>
<g>
	<path fill="#E16760" d="M19.303,11.784c0,0.101,0.007,0.27,0.021,0.507c0.014,0.238,0.026,0.443,0.033,0.616
		c0.007,0.172,0.003,0.381-0.011,0.626c-0.014,0.245-0.037,0.457-0.064,0.637c-0.03,0.18-0.077,0.368-0.141,0.562
		s-0.151,0.353-0.259,0.475c-0.109,0.122-0.252,0.223-0.433,0.302c-0.18,0.079-0.385,0.119-0.615,0.119
		c-0.173-0.014-0.332-0.054-0.475-0.119c-0.144-0.064-0.263-0.13-0.356-0.194c-0.094-0.064-0.17-0.169-0.226-0.313
		c-0.058-0.144-0.105-0.26-0.141-0.345c-0.036-0.087-0.061-0.231-0.075-0.433c-0.014-0.201-0.021-0.342-0.021-0.421
		c0-0.079,0.003-0.234,0.01-0.464c0.008-0.231,0.011-0.368,0.011-0.411c0.014-1.785-0.014-3.262-0.087-4.428
		c-0.129-0.029-0.23-0.051-0.302-0.066c-0.289-0.043-0.573-0.079-0.854-0.108c-0.281-0.029-0.515-0.047-0.702-0.054
		c-0.188-0.007-0.396-0.003-0.626,0.011c-0.231,0.014-0.396,0.029-0.497,0.043S13.241,8.358,13.04,8.38
		c-0.202,0.021-0.318,0.039-0.346,0.053c-0.23,1.887-0.403,3.896-0.517,6.027c-0.016,0.043-0.019,0.094-0.011,0.152
		c0.007,0.058,0.007,0.115,0,0.172c-0.008,0.058-0.019,0.112-0.032,0.162c-0.014,0.051-0.04,0.094-0.077,0.13
		c-0.036,0.036-0.09,0.054-0.161,0.054c-0.072-0.014-0.127-0.047-0.162-0.098c-0.037-0.05-0.058-0.115-0.066-0.194
		c-0.007-0.079-0.007-0.159,0-0.238c0.008-0.079,0.018-0.165,0.032-0.26c0.014-0.093,0.022-0.154,0.022-0.183
		c0.13-2.246,0.288-4.155,0.475-5.725c-0.159-0.029-0.281-0.13-0.368-0.302c-0.159-0.36,0.014-0.669,0.518-0.929
		c0.288-1.93,0.648-3.506,1.08-4.731c0.087-0.273,0.173-0.511,0.259-0.713c0.087-0.201,0.205-0.424,0.356-0.669
		c0.152-0.244,0.306-0.443,0.465-0.594c0.158-0.151,0.356-0.276,0.594-0.377c0.238-0.101,0.493-0.137,0.766-0.109
		c0.403,0.029,0.771,0.17,1.103,0.422c0.331,0.252,0.612,0.608,0.843,1.069c0.23,0.461,0.432,0.943,0.604,1.447
		c0.173,0.505,0.313,1.106,0.422,1.804c0.108,0.698,0.194,1.328,0.259,1.89c0.066,0.562,0.111,1.214,0.141,1.955
		c0.028,0.742,0.047,1.315,0.053,1.718C19.299,10.719,19.303,11.208,19.303,11.784z M13.06,6.946
		c0.907-0.245,1.995-0.324,3.262-0.238c-0.202-1.729-0.547-3.212-1.037-4.45c-0.043-0.115-0.119-0.234-0.226-0.356
		c-0.108-0.122-0.249-0.184-0.422-0.184c-0.172,0-0.323,0.13-0.453,0.39c-0.504,1.008-0.929,2.635-1.275,4.882
		C12.966,6.975,13.016,6.96,13.06,6.946z M18.352,6.773c0.072,0,0.101-0.036,0.087-0.108c-0.173-3.326-0.857-5.322-2.053-5.984
		c-0.072-0.028-0.122-0.013-0.151,0.043c-0.029,0.058-0.014,0.109,0.043,0.152c1.138,0.618,1.785,2.556,1.944,5.81
		c0.014,0.058,0.05,0.087,0.108,0.087H18.352z"/>
	<path fill="#E16760" d="M27.511,5.434c0.043,0.647,0.043,1.451,0,2.408C27.468,8.8,27.4,9.733,27.306,10.64
		c-0.093,0.907-0.288,1.79-0.583,2.646c-0.295,0.857-0.666,1.501-1.112,1.933c-0.475,0.49-1.04,0.753-1.695,0.789
		c-0.656,0.036-1.268-0.192-1.836-0.681c-0.57-0.49-0.947-1.196-1.134-2.117c-0.058-0.288,0.007-0.454,0.194-0.497
		c0.1,0,0.183,0.062,0.248,0.184c0.066,0.122,0.122,0.273,0.173,0.453c0.05,0.181,0.083,0.292,0.098,0.335
		c0.273,0.518,0.633,0.756,1.079,0.713c0.231-0.029,0.433-0.115,0.605-0.259c0.173-0.144,0.303-0.324,0.389-0.541
		c0.39-1.008,0.655-1.973,0.799-2.894c-0.259,0.332-0.533,0.594-0.82,0.788c-0.289,0.194-0.62,0.31-0.994,0.346
		c-0.375,0.036-0.749-0.069-1.124-0.314c-0.547-0.331-0.965-0.856-1.252-1.577c-0.289-0.719-0.419-1.483-0.389-2.289
		c0.028-0.806,0.151-1.581,0.366-2.323c0.217-0.742,0.558-1.35,1.026-1.825c0.469-0.475,0.984-0.698,1.546-0.669
		c0.777,0.043,1.375,0.562,1.792,1.555c-0.042-0.533-0.003-0.918,0.119-1.156c0.122-0.238,0.451-0.406,0.984-0.507
		c0.302-0.043,0.565-0.018,0.788,0.075c0.223,0.093,0.392,0.209,0.507,0.345c0.115,0.138,0.205,0.342,0.27,0.616
		c0.066,0.273,0.104,0.496,0.119,0.669c0.014,0.172,0.022,0.417,0.022,0.734C27.503,5.304,27.511,5.39,27.511,5.434z M21.009,5.217
		c0.1-0.331,0.281-0.662,0.54-0.994c0.26-0.331,0.541-0.554,0.843-0.669c0.331-0.13,0.663-0.108,0.994,0.064
		c0.058,0.043,0.104,0.033,0.141-0.032c0.036-0.064,0.018-0.111-0.054-0.14c-0.375-0.217-0.764-0.245-1.167-0.087
		c-0.36,0.144-0.673,0.396-0.939,0.756s-0.451,0.713-0.551,1.058c-0.029,0.058-0.008,0.101,0.064,0.13h0.022
		C20.958,5.304,20.995,5.275,21.009,5.217z M24.703,9.3c0.087-1.05,0.108-2.232,0.064-3.542c-0.129-0.461-0.389-0.872-0.777-1.231
		c-0.202-0.217-0.403-0.26-0.605-0.13c-0.173,0.101-0.356,0.443-0.551,1.026c-0.194,0.583-0.339,1.217-0.432,1.901
		c-0.094,0.684-0.054,1.326,0.119,1.923c0.172,0.597,0.49,0.954,0.95,1.069C23.918,10.417,24.328,10.078,24.703,9.3z M26.906,3.618
		c0.043-0.057,0.043-0.108,0-0.151c-0.302-0.259-0.608-0.389-0.917-0.389c-0.311,0-0.552,0.08-0.724,0.238
		c-0.058,0.043-0.062,0.094-0.011,0.151c0.05,0.058,0.104,0.066,0.162,0.022c0.13-0.13,0.324-0.194,0.583-0.194
		c0.26,0,0.511,0.101,0.756,0.302c0.014,0.029,0.036,0.043,0.066,0.043C26.848,3.641,26.877,3.634,26.906,3.618z"/>
	<path fill="#E16760" d="M34.424,10.898c0.159,0.014,0.231,0.165,0.217,0.454c-0.058,0.647-0.184,1.224-0.379,1.728
		c-0.194,0.504-0.432,0.904-0.713,1.199c-0.281,0.295-0.591,0.518-0.928,0.669c-0.339,0.151-0.688,0.212-1.048,0.184
		c-0.36-0.029-0.713-0.138-1.058-0.324c-0.822-0.446-1.426-1.228-1.815-2.344s-0.561-2.279-0.518-3.488
		c0.043-1.21,0.238-2.34,0.584-3.392c0.302-0.95,0.705-1.678,1.209-2.182c0.504-0.504,0.997-0.763,1.48-0.777
		c0.482-0.014,0.936,0.143,1.361,0.475c0.424,0.331,0.737,0.792,0.939,1.382c0.303,1.023,0.356,2.023,0.162,3.002
		s-0.554,1.836-1.08,2.57c-0.525,0.735-1.077,1.181-1.652,1.34c0.087,0.591,0.23,1.061,0.432,1.414
		c0.201,0.353,0.429,0.565,0.681,0.637s0.5,0.061,0.745-0.032c0.244-0.093,0.461-0.281,0.648-0.562s0.316-0.616,0.389-1.005
		c0-0.029,0.003-0.108,0.011-0.238c0.007-0.13,0.018-0.238,0.032-0.324c0.014-0.085,0.047-0.172,0.097-0.259
		C34.269,10.942,34.337,10.898,34.424,10.898z M30.104,4.461c0.173-0.547,0.54-0.907,1.101-1.08c0.475-0.158,0.9-0.093,1.275,0.195
		c0.058,0.042,0.108,0.036,0.151-0.022s0.037-0.1-0.021-0.13c-0.432-0.345-0.922-0.432-1.469-0.259
		c-0.634,0.202-1.045,0.612-1.231,1.231c-0.014,0.072,0.007,0.115,0.064,0.13c0.014,0,0.029,0,0.043,0
		C30.06,4.527,30.089,4.504,30.104,4.461z M31.378,6.297c-0.36,1.469-0.49,2.737-0.389,3.802c0.057-0.013,0.137-0.032,0.238-0.053
		c0.1-0.022,0.191-0.04,0.27-0.054s0.159-0.036,0.238-0.064c0.079-0.029,0.148-0.066,0.205-0.109
		c0.647-0.403,1.119-1.134,1.414-2.192c0.295-1.059,0.292-1.963-0.011-2.711c-0.072-0.173-0.172-0.331-0.302-0.475
		c-0.13-0.144-0.281-0.245-0.454-0.303c-0.172-0.057-0.338,0-0.496,0.173C31.874,4.527,31.637,5.188,31.378,6.297z"/>
	<path fill="#E16760" d="M43.324,9.991c-0.014,0.922,0.01,1.649,0.075,2.182c0.064,0.533,0.151,0.965,0.259,1.296
		c0.108,0.332,0.169,0.548,0.184,0.648c0.085,0.49-0.087,0.915-0.518,1.275c-0.505,0.403-1.008,0.403-1.512,0
		c-1.023-0.849-1.419-3.111-1.188-6.783c0.028-0.403,0.064-0.82,0.108-1.254c0.014-0.259,0.036-0.475,0.064-0.647
		c0.029-0.173,0.083-0.368,0.162-0.584c0.079-0.215,0.173-0.389,0.281-0.518c0.108-0.129,0.255-0.233,0.443-0.313
		c0.187-0.079,0.411-0.104,0.669-0.075c0.374,0.058,0.663,0.194,0.864,0.411c0.202,0.215,0.316,0.504,0.346,0.864
		c0.028,0.361,0.028,0.709,0,1.048c-0.03,0.339-0.077,0.756-0.141,1.252C43.356,9.29,43.324,9.689,43.324,9.991z M43.28,1.459
		c0.432,0.159,0.742,0.443,0.928,0.853c0.188,0.411,0.223,0.818,0.109,1.221c-0.159,0.576-0.497,0.957-1.016,1.145
		c-0.519,0.188-0.986,0.13-1.405-0.173c-0.345-0.244-0.557-0.572-0.636-0.983c-0.08-0.411-0.043-0.792,0.108-1.145
		c0.151-0.353,0.403-0.626,0.756-0.822C42.477,1.361,42.862,1.329,43.28,1.459z M43.086,8.004c0.158-1.023,0.064-1.728-0.281-2.117
		c-0.188-0.201-0.425-0.302-0.713-0.302c-0.072,0-0.109,0.037-0.109,0.108c0,0.087,0.037,0.123,0.109,0.109
		c0.23,0,0.417,0.079,0.561,0.238c0.303,0.331,0.375,0.979,0.217,1.944c-0.014,0.058,0.014,0.093,0.087,0.108h0.021
		C43.035,8.091,43.071,8.062,43.086,8.004z M43.95,3.381c0.187-0.402,0.093-0.806-0.281-1.209C43.337,1.827,43,1.711,42.653,1.827
		c-0.072,0.029-0.093,0.075-0.064,0.14c0.029,0.064,0.072,0.083,0.13,0.054c0.259-0.087,0.525,0.014,0.799,0.302
		c0.302,0.332,0.381,0.656,0.238,0.973c-0.029,0.072-0.008,0.122,0.064,0.151c0.014,0,0.029,0,0.043,0
		C43.907,3.446,43.935,3.424,43.95,3.381z"/>
	<path fill="#E16760" d="M50.71,8.544c0.547,0.491,0.922,1.12,1.124,1.891c0.201,0.771,0.194,1.538-0.022,2.3
		c-0.215,0.764-0.612,1.376-1.188,1.836c-0.49,0.389-1.04,0.63-1.652,0.723c-0.613,0.094-1.181,0.043-1.706-0.151
		c-0.526-0.194-0.994-0.507-1.404-0.939c-0.411-0.432-0.648-0.983-0.713-1.652c-0.064-0.671,0.054-1.43,0.356-2.279
		c0.014,0,0.022-0.014,0.022-0.043c0.042-0.087,0.076-0.151,0.097-0.194c0.022-0.043,0.058-0.104,0.108-0.183
		c0.051-0.08,0.101-0.112,0.152-0.098c0.05,0.014,0.119,0.029,0.204,0.043c0.072,0.043,0.119,0.101,0.141,0.173
		c0.021,0.072,0.018,0.151-0.011,0.238c-0.029,0.085-0.064,0.165-0.108,0.238s-0.09,0.151-0.141,0.238
		c-0.05,0.085-0.082,0.151-0.097,0.194c-0.361,0.893-0.382,1.613-0.066,2.159c0.274,0.462,0.732,0.713,1.372,0.756
		c0.64,0.043,1.185-0.215,1.631-0.777s0.54-1.339,0.281-2.333c-0.072-0.274-0.209-0.518-0.411-0.735
		c-0.202-0.215-0.396-0.377-0.583-0.486c-0.188-0.108-0.446-0.244-0.778-0.41c-0.331-0.165-0.568-0.292-0.713-0.379
		c-0.23-0.143-0.446-0.305-0.647-0.486c-0.202-0.18-0.375-0.374-0.518-0.583c-0.144-0.209-0.266-0.432-0.368-0.669
		c-0.101-0.238-0.173-0.49-0.217-0.756c-0.043-0.266-0.058-0.536-0.043-0.811c0.029-0.647,0.191-1.198,0.486-1.652
		s0.655-0.774,1.08-0.962c0.424-0.187,0.882-0.273,1.371-0.259c0.49,0.014,0.947,0.13,1.372,0.345
		c0.424,0.217,0.781,0.54,1.069,0.973c0.288,0.432,0.454,0.928,0.497,1.49c0.013,0.318-0.066,0.483-0.239,0.497
		c-0.114-0.014-0.191-0.072-0.226-0.173c-0.036-0.101-0.058-0.226-0.064-0.379c-0.008-0.151-0.019-0.255-0.032-0.313
		c-0.173-0.446-0.518-0.727-1.037-0.842c-0.346-0.087-0.652-0.051-0.918,0.108c-0.266,0.159-0.454,0.382-0.562,0.669
		c-0.108,0.289-0.144,0.602-0.108,0.939c0.036,0.339,0.148,0.631,0.334,0.875c0.245,0.332,0.727,0.674,1.448,1.026
		C50.004,8.065,50.479,8.343,50.71,8.544z M46.93,3.273c0.058-0.029,0.069-0.075,0.032-0.14c-0.036-0.066-0.082-0.075-0.14-0.032
		c-0.721,0.403-1.167,1.051-1.339,1.944c-0.144,0.849,0.05,1.598,0.583,2.246c0.029,0.029,0.058,0.043,0.087,0.043
		c0.029,0,0.05-0.007,0.064-0.022c0.058-0.042,0.064-0.093,0.022-0.151c-0.505-0.604-0.685-1.296-0.541-2.073
		c0.043-0.245,0.122-0.486,0.238-0.724c0.115-0.238,0.255-0.451,0.422-0.637C46.523,3.54,46.714,3.389,46.93,3.273z"/>
	<path fill="#E16760" d="M60.604,9.991c-0.014,0.922,0.01,1.649,0.076,2.182c0.064,0.533,0.151,0.965,0.259,1.296
		c0.108,0.332,0.169,0.548,0.184,0.648c0.085,0.49-0.087,0.915-0.519,1.275c-0.505,0.403-1.008,0.403-1.512,0
		c-1.023-0.849-1.419-3.111-1.188-6.783c0.028-0.403,0.064-0.82,0.108-1.254c0.014-0.259,0.036-0.475,0.064-0.647
		c0.029-0.173,0.083-0.368,0.162-0.584c0.079-0.215,0.173-0.389,0.281-0.518s0.255-0.233,0.443-0.313
		c0.187-0.079,0.411-0.104,0.669-0.075c0.374,0.058,0.663,0.194,0.864,0.411c0.202,0.215,0.316,0.504,0.346,0.864
		c0.028,0.361,0.028,0.709,0,1.048c-0.03,0.339-0.077,0.756-0.141,1.252C60.636,9.29,60.604,9.689,60.604,9.991z M60.561,1.459
		c0.432,0.159,0.742,0.443,0.928,0.853c0.188,0.411,0.223,0.818,0.109,1.221c-0.159,0.576-0.497,0.957-1.016,1.145
		s-0.986,0.13-1.405-0.173c-0.345-0.244-0.557-0.572-0.636-0.983c-0.08-0.411-0.043-0.792,0.108-1.145
		c0.151-0.353,0.403-0.626,0.756-0.822C59.757,1.361,60.142,1.329,60.561,1.459z M60.366,8.004c0.158-1.023,0.064-1.728-0.281-2.117
		c-0.188-0.201-0.425-0.302-0.713-0.302c-0.072,0-0.109,0.037-0.109,0.108c0,0.087,0.037,0.123,0.109,0.109
		c0.23,0,0.417,0.079,0.561,0.238c0.303,0.331,0.375,0.979,0.217,1.944c-0.014,0.058,0.014,0.093,0.087,0.108h0.021
		C60.315,8.091,60.351,8.062,60.366,8.004z M61.23,3.381c0.187-0.402,0.093-0.806-0.281-1.209c-0.332-0.345-0.67-0.461-1.016-0.345
		c-0.072,0.029-0.093,0.075-0.064,0.14c0.029,0.064,0.072,0.083,0.13,0.054c0.259-0.087,0.525,0.014,0.799,0.302
		c0.302,0.332,0.381,0.656,0.238,0.973c-0.029,0.072-0.008,0.122,0.064,0.151c0.014,0,0.029,0,0.043,0
		C61.187,3.446,61.216,3.424,61.23,3.381z"/>
	<path fill="#E16760" d="M70.324,13.469c0.188,0.433,0.216,0.865,0.087,1.297c-0.13,0.432-0.44,0.719-0.929,0.864
		c-0.273,0.058-0.514,0.058-0.723,0c-0.21-0.058-0.382-0.18-0.519-0.368c-0.138-0.187-0.242-0.356-0.313-0.507
		c-0.072-0.151-0.155-0.374-0.249-0.669s-0.17-0.501-0.226-0.616c-0.231-0.561-0.541-1.101-0.929-1.62
		c-0.072-0.1-0.177-0.191-0.313-0.27c-0.138-0.079-0.263-0.137-0.379-0.173c-0.115-0.036-0.23-0.093-0.345-0.172
		s-0.202-0.177-0.259-0.292c0.057,0.49,0.122,0.965,0.194,1.426c0.013,0.144,0.071,0.414,0.172,0.811
		c0.101,0.396,0.165,0.702,0.194,0.918c0.029,0.215-0.007,0.464-0.108,0.745s-0.288,0.5-0.562,0.658
		c-0.259,0.101-0.485,0.159-0.681,0.173c-0.194,0.014-0.374-0.043-0.54-0.173c-0.165-0.129-0.31-0.27-0.432-0.421
		s-0.227-0.342-0.313-0.573c-0.087-0.23-0.159-0.443-0.216-0.637c-0.058-0.194-0.108-0.4-0.151-0.615
		c-0.461-2.405-0.605-5.163-0.432-8.274c0.014-0.273,0.024-0.45,0.032-0.528c0.008-0.08,0.026-0.245,0.054-0.497
		c0.029-0.252,0.064-0.432,0.108-0.54c0.043-0.109,0.104-0.252,0.183-0.432c0.08-0.18,0.177-0.306,0.292-0.379
		c0.115-0.072,0.255-0.137,0.421-0.194c0.165-0.058,0.356-0.079,0.573-0.064c0.403,0.072,0.687,0.215,0.854,0.432
		c0.165,0.215,0.255,0.528,0.27,0.939c0.014,0.411,0.007,0.933-0.022,1.567c-0.014,0.158-0.021,0.281-0.021,0.366
		c0.273-0.893,0.605-1.601,0.994-2.127c0.389-0.525,0.777-0.838,1.166-0.939c0.39-0.101,0.771-0.075,1.146,0.075
		c0.374,0.151,0.698,0.44,0.971,0.864c0.273,0.425,0.461,0.926,0.562,1.501c0.187,1.08,0.148,2.125-0.119,3.132
		c-0.266,1.008-0.695,1.793-1.286,2.355C69.266,11.144,69.864,12.13,70.324,13.469z M64.665,4.332
		c0.057-0.692-0.072-1.174-0.389-1.448c-0.245-0.187-0.555-0.217-0.929-0.087c-0.072,0.029-0.098,0.075-0.076,0.141
		c0.021,0.064,0.068,0.09,0.14,0.075c0.303-0.115,0.547-0.101,0.735,0.043c0.259,0.215,0.36,0.634,0.302,1.252
		c-0.014,0.072,0.014,0.108,0.087,0.108h0.021C64.614,4.418,64.651,4.39,64.665,4.332z M65.118,9.581
		c0.245,0.217,0.536,0.295,0.875,0.238s0.616-0.209,0.832-0.453c0.332-0.403,0.576-0.854,0.735-1.35
		c0.158-0.497,0.234-0.973,0.227-1.426c-0.008-0.454-0.05-0.875-0.13-1.263c-0.079-0.39-0.187-0.703-0.323-0.94
		c-0.138-0.238-0.256-0.363-0.356-0.377c-0.346-0.043-0.692,0.281-1.037,0.971c-0.462,0.907-0.756,2.01-0.886,3.305
		C65.068,8.702,65.09,9.134,65.118,9.581z M68.229,3.122C68.186,3.18,68.192,3.23,68.25,3.273c0.346,0.231,0.62,0.602,0.822,1.112
		c0.201,0.512,0.316,1.066,0.345,1.663c0.029,0.598-0.026,1.21-0.162,1.836c-0.137,0.626-0.364,1.17-0.681,1.631
		c-0.029,0.058-0.014,0.108,0.043,0.151c0.014,0.014,0.029,0.022,0.043,0.022c0.043,0,0.079-0.022,0.108-0.066
		C69.2,8.975,69.477,8.201,69.6,7.3c0.122-0.9,0.072-1.739-0.151-2.517c-0.223-0.777-0.58-1.339-1.069-1.684
		C68.323,3.058,68.273,3.064,68.229,3.122z"/>
	<path fill="#E16760" d="M79.18,13.469c0.188,0.433,0.217,0.865,0.087,1.297s-0.44,0.719-0.929,0.864
		c-0.273,0.058-0.514,0.058-0.723,0c-0.21-0.058-0.382-0.18-0.519-0.368c-0.138-0.187-0.242-0.356-0.313-0.507
		c-0.072-0.151-0.155-0.374-0.249-0.669s-0.17-0.501-0.226-0.616c-0.231-0.561-0.541-1.101-0.929-1.62
		c-0.072-0.1-0.177-0.191-0.313-0.27c-0.138-0.079-0.263-0.137-0.379-0.173c-0.115-0.036-0.23-0.093-0.345-0.172
		s-0.202-0.177-0.259-0.292c0.057,0.49,0.122,0.965,0.194,1.426c0.013,0.144,0.071,0.414,0.172,0.811
		c0.101,0.396,0.165,0.702,0.194,0.918c0.029,0.215-0.007,0.464-0.108,0.745s-0.288,0.5-0.562,0.658
		c-0.259,0.101-0.485,0.159-0.681,0.173c-0.194,0.014-0.374-0.043-0.54-0.173c-0.165-0.129-0.31-0.27-0.432-0.421
		s-0.226-0.342-0.313-0.573c-0.087-0.23-0.159-0.443-0.217-0.637c-0.058-0.194-0.108-0.4-0.151-0.615
		c-0.461-2.405-0.605-5.163-0.432-8.274c0.014-0.273,0.024-0.45,0.032-0.528c0.008-0.08,0.026-0.245,0.054-0.497
		c0.029-0.252,0.064-0.432,0.108-0.54c0.043-0.109,0.104-0.252,0.183-0.432c0.08-0.18,0.177-0.306,0.292-0.379
		c0.115-0.072,0.255-0.137,0.421-0.194c0.165-0.058,0.356-0.079,0.573-0.064c0.403,0.072,0.687,0.215,0.854,0.432
		c0.165,0.215,0.255,0.528,0.27,0.939c0.014,0.411,0.007,0.933-0.022,1.567c-0.014,0.158-0.021,0.281-0.021,0.366
		c0.273-0.893,0.605-1.601,0.994-2.127c0.389-0.525,0.777-0.838,1.166-0.939c0.39-0.101,0.771-0.075,1.146,0.075
		c0.374,0.151,0.698,0.44,0.971,0.864c0.273,0.425,0.461,0.926,0.562,1.501c0.187,1.08,0.148,2.125-0.119,3.132
		c-0.266,1.008-0.695,1.793-1.286,2.355C78.122,11.144,78.719,12.13,79.18,13.469z M73.521,4.332
		c0.057-0.692-0.072-1.174-0.389-1.448c-0.245-0.187-0.555-0.217-0.929-0.087c-0.072,0.029-0.098,0.075-0.076,0.141
		c0.021,0.064,0.068,0.09,0.14,0.075c0.303-0.115,0.547-0.101,0.735,0.043c0.259,0.215,0.36,0.634,0.302,1.252
		c-0.014,0.072,0.014,0.108,0.087,0.108h0.021C73.47,4.418,73.507,4.39,73.521,4.332z M73.974,9.581
		c0.245,0.217,0.536,0.295,0.875,0.238s0.616-0.209,0.832-0.453c0.332-0.403,0.576-0.854,0.735-1.35
		c0.158-0.497,0.234-0.973,0.226-1.426c-0.008-0.454-0.05-0.875-0.13-1.263c-0.079-0.39-0.187-0.703-0.323-0.94
		c-0.138-0.238-0.256-0.363-0.356-0.377c-0.346-0.043-0.692,0.281-1.037,0.971c-0.462,0.907-0.756,2.01-0.886,3.305
		C73.924,8.702,73.945,9.134,73.974,9.581z M77.085,3.122c-0.043,0.058-0.037,0.108,0.021,0.151c0.346,0.231,0.62,0.602,0.822,1.112
		c0.201,0.512,0.316,1.066,0.345,1.663c0.029,0.598-0.026,1.21-0.162,1.836s-0.364,1.17-0.681,1.631
		c-0.029,0.058-0.014,0.108,0.043,0.151c0.014,0.014,0.029,0.022,0.043,0.022c0.043,0,0.079-0.022,0.108-0.066
		c0.432-0.647,0.709-1.421,0.832-2.322c0.122-0.9,0.072-1.739-0.151-2.517c-0.223-0.777-0.58-1.339-1.069-1.684
		C77.178,3.058,77.128,3.064,77.085,3.122z"/>
	<path fill="#E16760" d="M86.049,10.898c0.159,0.014,0.231,0.165,0.217,0.454c-0.058,0.647-0.184,1.224-0.379,1.728
		c-0.194,0.504-0.432,0.904-0.713,1.199s-0.591,0.518-0.928,0.669c-0.339,0.151-0.688,0.212-1.048,0.184
		c-0.36-0.029-0.713-0.138-1.058-0.324c-0.822-0.446-1.426-1.228-1.815-2.344s-0.561-2.279-0.519-3.488
		c0.043-1.21,0.238-2.34,0.584-3.392c0.302-0.95,0.705-1.678,1.209-2.182c0.504-0.504,0.997-0.763,1.48-0.777
		c0.482-0.014,0.936,0.143,1.361,0.475c0.424,0.331,0.737,0.792,0.939,1.382c0.303,1.023,0.356,2.023,0.162,3.002
		s-0.554,1.836-1.08,2.57c-0.525,0.735-1.077,1.181-1.652,1.34c0.087,0.591,0.23,1.061,0.432,1.414
		c0.201,0.353,0.429,0.565,0.681,0.637c0.252,0.072,0.5,0.061,0.745-0.032c0.244-0.093,0.461-0.281,0.648-0.562
		c0.187-0.281,0.316-0.616,0.389-1.005c0-0.029,0.003-0.108,0.011-0.238c0.007-0.13,0.018-0.238,0.032-0.324
		c0.014-0.085,0.047-0.172,0.097-0.259C85.895,10.942,85.963,10.898,86.049,10.898z M81.729,4.461
		c0.173-0.547,0.54-0.907,1.101-1.08c0.475-0.158,0.9-0.093,1.275,0.195c0.058,0.042,0.108,0.036,0.151-0.022
		c0.043-0.058,0.037-0.1-0.021-0.13c-0.432-0.345-0.922-0.432-1.469-0.259c-0.634,0.202-1.045,0.612-1.231,1.231
		c-0.014,0.072,0.007,0.115,0.064,0.13c0.014,0,0.029,0,0.043,0C81.686,4.527,81.715,4.504,81.729,4.461z M83.004,6.297
		c-0.36,1.469-0.49,2.737-0.389,3.802c0.057-0.013,0.137-0.032,0.238-0.053c0.1-0.022,0.191-0.04,0.27-0.054
		c0.079-0.014,0.159-0.036,0.238-0.064c0.079-0.029,0.148-0.066,0.205-0.109c0.647-0.403,1.119-1.134,1.414-2.192
		c0.295-1.059,0.292-1.963-0.011-2.711c-0.072-0.173-0.172-0.331-0.302-0.475c-0.13-0.144-0.281-0.245-0.454-0.303
		c-0.172-0.057-0.338,0-0.496,0.173C83.5,4.527,83.263,5.188,83.004,6.297z"/>
	<path fill="#E16760" d="M92.292,13.664c0.26,0.143,0.266,0.389,0.022,0.734c-0.245,0.345-0.483,0.597-0.713,0.756
		c-0.476,0.345-1.106,0.511-1.891,0.496c-0.785-0.014-1.386-0.252-1.803-0.713c-0.318-0.345-0.558-0.939-0.724-1.782
		c-0.165-0.842-0.252-1.806-0.26-2.894c-0.007-1.087,0.003-2.002,0.032-2.743s0.072-1.479,0.13-2.214
		c0-0.058,0.008-0.209,0.022-0.454c0.013-0.244,0.024-0.417,0.032-0.517c0.007-0.101,0.029-0.266,0.064-0.497
		c0.036-0.23,0.079-0.4,0.13-0.507c0.05-0.108,0.115-0.241,0.194-0.4c0.079-0.159,0.177-0.273,0.292-0.345
		c0.114-0.072,0.252-0.133,0.41-0.184c0.159-0.05,0.346-0.068,0.562-0.053c0.417,0.072,0.713,0.23,0.886,0.475
		c0.173,0.244,0.255,0.594,0.249,1.047c-0.008,0.454-0.04,1.03-0.098,1.729s-0.108,1.537-0.151,2.516
		c-0.043,0.98-0.014,2.111,0.087,3.392c0,0.072,0.079,0.583,0.238,1.533c0.043,0.318,0.209,0.541,0.496,0.669
		c0.547,0.26,0.929,0.346,1.145,0.26c0.043-0.029,0.098-0.064,0.162-0.108c0.066-0.043,0.115-0.083,0.152-0.119
		c0.036-0.037,0.085-0.066,0.151-0.087C92.174,13.631,92.235,13.635,92.292,13.664z M89.462,4.332
		c0.072-0.692-0.058-1.174-0.389-1.448c-0.23-0.187-0.533-0.217-0.907-0.087c-0.072,0.029-0.098,0.075-0.076,0.141
		c0.021,0.064,0.068,0.09,0.14,0.075c0.303-0.115,0.541-0.101,0.713,0.043c0.274,0.215,0.382,0.634,0.324,1.252
		c-0.014,0.072,0.014,0.108,0.087,0.108C89.427,4.418,89.462,4.39,89.462,4.332z"/>
	<path fill="#E16760" d="M98.513,10.898c0.159,0.014,0.231,0.165,0.216,0.454c-0.058,0.647-0.184,1.224-0.379,1.728
		c-0.194,0.504-0.432,0.904-0.713,1.199s-0.591,0.518-0.928,0.669c-0.339,0.151-0.688,0.212-1.048,0.184
		c-0.36-0.029-0.713-0.138-1.058-0.324c-0.822-0.446-1.426-1.228-1.815-2.344s-0.561-2.279-0.518-3.488
		c0.043-1.21,0.238-2.34,0.584-3.392c0.302-0.95,0.705-1.678,1.209-2.182c0.504-0.504,0.997-0.763,1.48-0.777
		c0.482-0.014,0.936,0.143,1.361,0.475c0.424,0.331,0.737,0.792,0.939,1.382c0.303,1.023,0.356,2.023,0.162,3.002
		s-0.554,1.836-1.08,2.57c-0.525,0.735-1.077,1.181-1.652,1.34c0.087,0.591,0.23,1.061,0.432,1.414
		c0.201,0.353,0.429,0.565,0.681,0.637c0.252,0.072,0.5,0.061,0.745-0.032c0.244-0.093,0.461-0.281,0.648-0.562
		c0.187-0.281,0.316-0.616,0.389-1.005c0-0.029,0.003-0.108,0.011-0.238c0.007-0.13,0.018-0.238,0.032-0.324
		c0.014-0.085,0.047-0.172,0.097-0.259C98.359,10.942,98.427,10.898,98.513,10.898z M94.193,4.461
		c0.173-0.547,0.54-0.907,1.101-1.08c0.475-0.158,0.9-0.093,1.275,0.195c0.058,0.042,0.108,0.036,0.151-0.022
		c0.043-0.058,0.037-0.1-0.021-0.13c-0.432-0.345-0.922-0.432-1.469-0.259c-0.634,0.202-1.045,0.612-1.231,1.231
		c-0.014,0.072,0.007,0.115,0.064,0.13c0.014,0,0.029,0,0.043,0C94.15,4.527,94.179,4.504,94.193,4.461z M95.468,6.297
		c-0.36,1.469-0.49,2.737-0.389,3.802c0.057-0.013,0.137-0.032,0.238-0.053c0.1-0.022,0.191-0.04,0.27-0.054
		c0.079-0.014,0.159-0.036,0.238-0.064c0.079-0.029,0.148-0.066,0.205-0.109c0.647-0.403,1.119-1.134,1.414-2.192
		c0.295-1.059,0.292-1.963-0.011-2.711c-0.072-0.173-0.172-0.331-0.302-0.475c-0.13-0.144-0.281-0.245-0.454-0.303
		c-0.172-0.057-0.338,0-0.496,0.173C95.964,4.527,95.727,5.188,95.468,6.297z"/>
	<path fill="#E16760" d="M107.025,5.023c0.13,0.735,0.148,1.477,0.054,2.225c-0.094,0.749-0.278,1.408-0.551,1.976
		c-0.274,0.57-0.62,1.045-1.037,1.426c-0.419,0.382-0.889,0.584-1.416,0.605c-0.525,0.022-1.084-0.14-1.674-0.486
		c-0.042-0.028-0.079-0.05-0.108-0.064c0.058,0.562,0.13,1.116,0.216,1.663c0.013,0.144,0.071,0.414,0.172,0.811
		c0.101,0.396,0.165,0.702,0.194,0.918c0.029,0.215-0.007,0.464-0.108,0.745s-0.288,0.5-0.562,0.658
		c-0.215,0.101-0.417,0.155-0.604,0.162c-0.188,0.008-0.35-0.021-0.486-0.087c-0.138-0.064-0.266-0.165-0.389-0.302
		s-0.228-0.281-0.314-0.432c-0.085-0.151-0.165-0.324-0.238-0.518c-0.072-0.194-0.129-0.374-0.172-0.54
		c-0.043-0.165-0.087-0.342-0.13-0.53c-0.461-2.405-0.605-5.163-0.432-8.274c0.014-0.273,0.024-0.45,0.032-0.528
		c0.008-0.08,0.026-0.245,0.054-0.497c0.029-0.252,0.064-0.432,0.108-0.54c0.043-0.109,0.104-0.252,0.183-0.432
		c0.08-0.18,0.177-0.306,0.292-0.379c0.115-0.072,0.255-0.137,0.421-0.194c0.165-0.058,0.356-0.079,0.573-0.064
		c0.403,0.072,0.687,0.215,0.854,0.432c0.165,0.215,0.255,0.528,0.27,0.939c0.014,0.411,0.007,0.933-0.022,1.567
		c-0.014,0.158-0.021,0.281-0.021,0.366c0.23-0.748,0.5-1.368,0.809-1.857s0.627-0.832,0.952-1.026
		c0.323-0.194,0.651-0.281,0.983-0.259c0.331,0.021,0.637,0.14,0.918,0.356c0.281,0.215,0.525,0.511,0.734,0.885
		C106.79,4.124,106.938,4.548,107.025,5.023z M101.754,4.332c0.057-0.692-0.072-1.174-0.389-1.448
		c-0.245-0.187-0.555-0.217-0.929-0.087c-0.072,0.029-0.098,0.075-0.076,0.141c0.021,0.064,0.068,0.09,0.14,0.075
		c0.303-0.115,0.547-0.101,0.735,0.043c0.259,0.215,0.36,0.634,0.302,1.252c-0.014,0.072,0.014,0.108,0.087,0.108h0.021
		C101.703,4.418,101.74,4.39,101.754,4.332z M103.914,9.365c0.332-0.403,0.576-0.854,0.735-1.35
		c0.158-0.497,0.234-0.973,0.226-1.426c-0.008-0.454-0.05-0.875-0.13-1.263c-0.079-0.39-0.187-0.703-0.323-0.94
		c-0.138-0.238-0.256-0.363-0.356-0.377c-0.346-0.043-0.692,0.281-1.037,0.971c-0.462,0.907-0.756,2.01-0.886,3.305
		c0.014,0.403,0.036,0.835,0.064,1.296c0.245,0.217,0.536,0.295,0.875,0.238S103.698,9.609,103.914,9.365z M105.858,9.624
		c0.432-0.647,0.709-1.421,0.832-2.322c0.122-0.9,0.072-1.739-0.151-2.517c-0.223-0.777-0.58-1.339-1.069-1.684
		c-0.058-0.043-0.108-0.037-0.151,0.021s-0.037,0.108,0.021,0.151c0.461,0.318,0.793,0.85,0.994,1.599
		c0.202,0.749,0.245,1.555,0.13,2.419c-0.115,0.864-0.382,1.605-0.799,2.225c-0.029,0.058-0.014,0.108,0.043,0.151
		c0.014,0.014,0.029,0.022,0.043,0.022C105.793,9.689,105.829,9.667,105.858,9.624z"/>
	<path fill="#E16760" d="M113.635,4.742c0.331,0.115,0.612,0.292,0.842,0.53c0.231,0.238,0.407,0.493,0.53,0.767
		c0.122,0.273,0.209,0.608,0.259,1.004c0.051,0.396,0.077,0.771,0.077,1.124s-0.026,0.767-0.077,1.242
		c-0.05,0.475-0.104,0.882-0.161,1.22c-0.058,0.339-0.127,0.742-0.205,1.21c-0.08,0.467-0.133,0.824-0.162,1.069
		c-0.014,0.1-0.037,0.295-0.066,0.583c-0.029,0.289-0.053,0.504-0.076,0.648c-0.021,0.143-0.068,0.331-0.14,0.561
		c-0.072,0.231-0.159,0.404-0.26,0.518c-0.101,0.115-0.244,0.217-0.432,0.303c-0.187,0.087-0.41,0.129-0.669,0.129
		c-0.403-0.057-0.709-0.212-0.918-0.464s-0.31-0.547-0.302-0.886c0.007-0.338,0.024-0.687,0.053-1.047
		c0-0.087,0.026-0.281,0.077-0.583c0.05-0.303,0.1-0.637,0.151-1.005c0.05-0.368,0.108-0.778,0.172-1.231
		c0.066-0.454,0.119-0.897,0.162-1.329c0.043-0.432,0.083-0.838,0.119-1.22c0.037-0.381,0.051-0.713,0.043-0.994
		c-0.007-0.281-0.04-0.472-0.097-0.573c-0.159-0.331-0.432-0.366-0.822-0.108c-0.547,0.375-0.971,1.138-1.275,2.291
		c0.043,1.252,0.165,2.541,0.368,3.866c0.014,0.144,0.072,0.414,0.173,0.811c0.1,0.396,0.165,0.702,0.194,0.918
		c0.029,0.215-0.008,0.464-0.108,0.745c-0.101,0.281-0.289,0.5-0.562,0.658c-0.217,0.101-0.417,0.155-0.605,0.162
		c-0.188,0.008-0.35-0.021-0.486-0.087c-0.137-0.064-0.266-0.165-0.389-0.302s-0.226-0.281-0.313-0.432s-0.165-0.324-0.238-0.518
		c-0.072-0.194-0.13-0.374-0.173-0.54c-0.043-0.165-0.085-0.342-0.129-0.53c-0.462-2.405-0.605-5.163-0.433-8.274
		c0.029-0.316,0.051-0.547,0.066-0.691c0.014-0.144,0.05-0.342,0.108-0.594s0.141-0.433,0.249-0.541
		c0.108-0.108,0.266-0.205,0.475-0.291c0.209-0.087,0.464-0.115,0.767-0.087c0.215,0.029,0.395,0.072,0.54,0.129
		c0.144,0.058,0.259,0.144,0.345,0.26c0.087,0.115,0.148,0.231,0.184,0.345c0.036,0.115,0.057,0.3,0.064,0.551
		c0.007,0.252,0.003,0.483-0.011,0.692c-0.014,0.209-0.029,0.53-0.043,0.962s-0.029,0.828-0.043,1.188
		c0.346-0.864,0.785-1.498,1.318-1.901C112.31,4.599,112.929,4.512,113.635,4.742z M110.179,3.814
		c-0.016-0.188-0.094-0.339-0.238-0.454c-0.144-0.115-0.324-0.187-0.541-0.217c-0.215-0.028-0.429-0.003-0.637,0.077
		c-0.209,0.079-0.342,0.204-0.4,0.377c-0.014,0.072,0.011,0.119,0.076,0.141c0.066,0.021,0.112-0.004,0.141-0.077
		c0.029-0.1,0.122-0.183,0.281-0.248c0.158-0.066,0.331-0.083,0.519-0.054c0.374,0.029,0.575,0.188,0.604,0.475
		c0,0.058,0.029,0.087,0.087,0.087h0.022C110.163,3.907,110.192,3.872,110.179,3.814z M114.456,11.504
		c0.13-0.533,0.234-1.098,0.313-1.695c0.079-0.597,0.115-1.199,0.108-1.804c-0.007-0.605-0.097-1.141-0.27-1.609
		c-0.173-0.469-0.432-0.789-0.777-0.962c-0.058-0.029-0.101-0.011-0.13,0.053c-0.029,0.066-0.014,0.112,0.043,0.141
		c0.533,0.273,0.835,1.011,0.907,2.214c0.072,1.202-0.064,2.402-0.411,3.597c-0.014,0.072,0.014,0.115,0.087,0.129h0.022
		C114.405,11.568,114.441,11.547,114.456,11.504z"/>
	<path fill="#E16760" d="M122.47,12.584c0,0.058,0.003,0.234,0.01,0.528c0.008,0.295,0.008,0.505,0,0.627
		c-0.007,0.122-0.021,0.316-0.043,0.583c-0.021,0.266-0.064,0.464-0.129,0.594c-0.066,0.13-0.152,0.273-0.26,0.432
		s-0.249,0.27-0.421,0.335c-0.173,0.064-0.382,0.097-0.626,0.097c-0.217-0.014-0.404-0.053-0.562-0.119
		c-0.159-0.064-0.281-0.165-0.368-0.302c-0.087-0.138-0.159-0.263-0.217-0.379c-0.058-0.114-0.097-0.281-0.119-0.496
		c-0.021-0.217-0.036-0.379-0.043-0.486c-0.007-0.108-0.007-0.292,0-0.551c0.008-0.259,0.011-0.417,0.011-0.475
		c0.014-1.196-0.008-2.268-0.064-3.219c-0.058-0.014-0.108-0.029-0.151-0.043c-0.721-0.101-1.621-0.108-2.7-0.021
		c-0.13,1.066-0.245,2.246-0.346,3.542c-0.014,0.289-0.036,0.634-0.064,1.037c-0.029,0.605-0.122,0.907-0.281,0.907
		c-0.043,0-0.083-0.014-0.119-0.042c-0.037-0.029-0.061-0.066-0.075-0.109c-0.014-0.043-0.026-0.087-0.032-0.129
		c-0.008-0.043-0.011-0.094-0.011-0.152c0-0.057,0.003-0.108,0.011-0.151c0.007-0.043,0.014-0.09,0.021-0.14
		c0.008-0.051,0.011-0.09,0.011-0.119c0.115-1.829,0.244-3.377,0.389-4.644c-0.144-0.043-0.259-0.144-0.345-0.303
		c-0.144-0.345,0.021-0.647,0.496-0.907c0.245-1.599,0.547-2.909,0.907-3.931c0.072-0.23,0.148-0.432,0.228-0.605
		c0.079-0.172,0.18-0.36,0.302-0.562c0.122-0.201,0.252-0.366,0.389-0.496c0.137-0.13,0.306-0.234,0.508-0.313
		c0.201-0.079,0.424-0.111,0.67-0.098c0.36,0.014,0.684,0.127,0.971,0.335c0.289,0.209,0.533,0.507,0.735,0.896
		c0.201,0.39,0.381,0.799,0.54,1.231s0.281,0.947,0.368,1.544c0.087,0.598,0.162,1.138,0.227,1.621
		c0.066,0.482,0.108,1.04,0.13,1.673c0.021,0.634,0.036,1.135,0.043,1.502C122.465,11.643,122.47,12.08,122.47,12.584z
		 M116.983,8.264c0.705-0.217,1.548-0.303,2.527-0.26c-0.029-0.288-0.061-0.551-0.097-0.788c-0.037-0.238-0.077-0.461-0.119-0.669
		c-0.043-0.209-0.08-0.382-0.109-0.518s-0.068-0.288-0.119-0.454c-0.05-0.165-0.087-0.276-0.108-0.334
		c-0.022-0.058-0.061-0.165-0.119-0.324s-0.094-0.245-0.108-0.26c-0.043-0.129-0.094-0.238-0.152-0.323
		c-0.058-0.087-0.108-0.138-0.151-0.152c-0.043-0.013-0.09-0.018-0.14-0.01c-0.051,0.007-0.094,0.029-0.13,0.064
		c-0.036,0.037-0.069,0.072-0.097,0.108c-0.03,0.037-0.051,0.069-0.066,0.098C117.609,5.174,117.27,6.448,116.983,8.264z
		 M121.691,9.105c0.058,0,0.087-0.036,0.087-0.108c-0.173-3.341-0.864-5.336-2.074-5.983c-0.058-0.029-0.104-0.014-0.14,0.043
		c-0.037,0.058-0.019,0.108,0.053,0.151c1.124,0.605,1.772,2.535,1.944,5.789c0.014,0.072,0.051,0.108,0.109,0.108H121.691z"/>
	<path fill="#E16760" d="M126.509,4.504c0.417-0.864,0.994-1.375,1.728-1.533c0.893-0.188,1.642,0.259,2.247,1.339
		c0.978,1.729,1.273,4.659,0.885,8.792c0,0.058-0.007,0.151-0.021,0.281c-0.029,0.288-0.051,0.511-0.066,0.669
		s-0.05,0.377-0.108,0.658s-0.13,0.504-0.215,0.669c-0.087,0.165-0.195,0.332-0.324,0.497c-0.13,0.165-0.295,0.276-0.497,0.334
		s-0.432,0.058-0.691,0c-0.332-0.072-0.598-0.241-0.799-0.507c-0.202-0.266-0.295-0.565-0.281-0.896c0-0.014,0.014-0.234,0.043-0.66
		c0.029-0.424,0.053-0.817,0.076-1.177c0.021-0.36,0.047-0.893,0.076-1.599c0.029-0.705,0.043-1.346,0.043-1.922
		s-0.008-1.297-0.022-2.161c-0.043-2.074-0.396-3.017-1.058-2.83c-0.749,0.202-1.217,1.607-1.404,4.212
		c0.043,1.21,0.159,2.441,0.346,3.694c0.013,0.144,0.071,0.414,0.172,0.811c0.101,0.396,0.165,0.702,0.194,0.918
		c0.029,0.215-0.007,0.464-0.108,0.745s-0.288,0.5-0.562,0.658c-0.215,0.101-0.417,0.155-0.604,0.162
		c-0.188,0.008-0.35-0.021-0.486-0.087c-0.138-0.064-0.266-0.165-0.389-0.302s-0.228-0.281-0.314-0.432
		c-0.085-0.151-0.165-0.324-0.238-0.518c-0.072-0.194-0.129-0.374-0.172-0.54c-0.043-0.165-0.087-0.342-0.13-0.53
		c-0.461-2.405-0.605-5.163-0.432-8.274c0.014-0.273,0.024-0.45,0.032-0.528c0.008-0.08,0.026-0.245,0.054-0.497
		c0.029-0.252,0.064-0.432,0.108-0.54c0.043-0.109,0.104-0.252,0.183-0.432c0.08-0.18,0.177-0.306,0.292-0.379
		c0.115-0.072,0.255-0.137,0.421-0.194c0.165-0.058,0.356-0.079,0.573-0.064c0.417,0.072,0.709,0.223,0.875,0.453
		c0.165,0.231,0.252,0.562,0.259,0.994c0.008,0.432-0.01,0.987-0.053,1.663C126.257,5.095,126.379,4.779,126.509,4.504z
		 M125.753,4.332c0.071-0.692-0.051-1.174-0.368-1.448c-0.245-0.187-0.555-0.217-0.929-0.087c-0.072,0.029-0.097,0.075-0.076,0.141
		c0.022,0.064,0.069,0.09,0.141,0.075c0.302-0.115,0.54-0.101,0.713,0.043c0.273,0.215,0.381,0.634,0.324,1.252
		c-0.016,0.072,0.013,0.108,0.085,0.108C125.716,4.418,125.753,4.39,125.753,4.332z M130.754,8.803c0.064,0,0.097-0.029,0.097-0.087
		c0.014-0.633-0.014-1.235-0.087-1.803c-0.072-0.57-0.183-1.106-0.334-1.61s-0.364-0.922-0.637-1.252
		c-0.274-0.332-0.597-0.526-0.973-0.584c-0.058-0.013-0.093,0.014-0.108,0.087s0.014,0.115,0.087,0.13
		c0.576,0.087,1.029,0.58,1.361,1.48c0.331,0.899,0.496,2.084,0.496,3.553C130.656,8.775,130.688,8.803,130.754,8.803z"/>
	<path fill="#E16760" d="M137.784,2.668c0.403,0.016,0.764,0.141,1.08,0.379s0.467,0.565,0.454,0.983
		c-0.058,0.419-0.281,0.656-0.669,0.713c-0.39,0.058-1.024,0.037-1.902-0.064c-0.1-0.014-0.151,0.029-0.151,0.13
		c0,0.129-0.01,0.662-0.032,1.598c-0.021,0.937-0.026,1.916-0.011,2.938c0.014,1.023,0.058,2.138,0.13,3.349
		c0.014,0.13,0.043,0.356,0.087,0.681s0.064,0.58,0.064,0.767s-0.014,0.403-0.043,0.647c-0.029,0.245-0.119,0.45-0.27,0.616
		c-0.151,0.165-0.356,0.291-0.615,0.377c-0.346,0.087-0.648,0.079-0.907-0.021c-0.26-0.101-0.454-0.289-0.584-0.562
		s-0.226-0.54-0.291-0.799c-0.066-0.259-0.112-0.554-0.141-0.886c-0.188-2.275-0.238-4.975-0.151-8.101
		c0-0.302,0.007-0.525,0.021-0.669c0-0.1-0.05-0.151-0.151-0.151c-0.159,0-0.295,0.008-0.411,0.021
		c-0.058,0-0.241,0.022-0.551,0.066c-0.31,0.043-0.551,0.058-0.723,0.043c-0.188-0.014-0.343-0.104-0.465-0.27
		c-0.122-0.165-0.162-0.342-0.119-0.53c0.115-0.605,0.512-0.973,1.188-1.101C132.65,2.808,132.7,2.8,132.773,2.8l0.085-0.021
		c0.245-0.058,1.04-0.098,2.387-0.119C136.592,2.636,137.439,2.64,137.784,2.668z M138.843,3.943
		c0.057-0.029,0.071-0.071,0.043-0.129c-0.115-0.303-0.407-0.522-0.875-0.66c-0.469-0.137-0.944-0.191-1.426-0.162
		c-0.483,0.029-0.933,0.051-1.35,0.066c-0.318,0.014-0.512,0.021-0.584,0.021s-0.108,0.037-0.108,0.108
		c0,0.072,0.036,0.109,0.108,0.109s0.266-0.008,0.584-0.022c2.073-0.158,3.225,0.051,3.455,0.626
		c0.029,0.043,0.066,0.066,0.109,0.066C138.814,3.965,138.829,3.957,138.843,3.943z"/>
	<path fill="#E16760" d="M140.506,14.83c0.029,0.072,0.043,0.223,0.043,0.454c0,0.23-0.083,0.518-0.249,0.864
		c-0.165,0.345-0.379,0.597-0.637,0.756c-0.087,0.014-0.155-0.003-0.205-0.054c-0.051-0.05-0.072-0.104-0.064-0.162
		c0.007-0.058,0.024-0.101,0.053-0.129c0.058-0.014,0.094-0.115,0.109-0.303c-0.087,0.014-0.181,0.022-0.281,0.022
		c-0.462,0-0.721-0.231-0.778-0.692c-0.043-0.49,0.122-0.878,0.497-1.167c0.172-0.143,0.374-0.215,0.605-0.215
		C140.131,14.204,140.434,14.413,140.506,14.83z"/>
</g>
<path fill="#E16760" d="M77.251,59.157c0.261-0.018,0.522-0.041,0.783-0.067c0.217-0.022,0.435-0.044,0.651-0.071
	c0.262-0.033,0.523-0.073,0.784-0.114c0.2-0.032,0.4-0.061,0.6-0.098c0.056-0.01,0.112-0.019,0.168-0.03
	c0.221-0.042,0.441-0.093,0.662-0.141c0.209-0.045,0.418-0.089,0.626-0.14c0.106-0.026,0.212-0.051,0.318-0.079
	c0.119-0.031,0.236-0.068,0.354-0.1c0.043-0.012,0.086-0.024,0.13-0.037c0.199-0.056,0.398-0.108,0.596-0.168
	c0.166-0.051,0.331-0.108,0.497-0.162c0.155-0.051,0.31-0.104,0.465-0.159c0.139-0.049,0.279-0.094,0.417-0.145
	c0.243-0.09,0.483-0.192,0.724-0.29c0.145-0.059,0.29-0.114,0.434-0.176c0.066-0.029,0.134-0.054,0.2-0.083
	c0.448-0.197,0.892-0.406,1.331-0.63l0,0l-5.798-18.655l-0.227-0.729l0,0l-4.783-15.392l-0.23-0.741l0,0l-0.358-1.153l-0.41,1.289
	l0,0l-0.001,0.004l-0.503,1.582l0,0l-1.069,3.362l-0.434,1.365l0,0l-0.872,2.742l0,0l-0.604,1.899l0,0l-0.842,2.646l0,0
	l-0.608,1.912l0,0l-0.808,2.542l0,0l-0.613,1.927l0,0l-0.772,2.429l0,0l-0.593,1.865l-0.76,2.389l0,0l-0.621,1.951l0,0l-0.697,2.192
	l0,0l-0.439,1.381l-0.992,3.119c0.47,0.244,0.947,0.471,1.428,0.683c0.007,0.003,0.013,0.006,0.02,0.009
	c-0.001-0.001-0.002-0.002-0.003-0.002c2.471,1.089,5.075,1.754,7.71,2.01c-0.01,0.002-0.02,0.004-0.03,0.006
	c0.098,0.01,0.196,0.01,0.294,0.019c0.397,0.034,0.795,0.059,1.193,0.075c0.168,0.007,0.336,0.013,0.505,0.017
	c0.361,0.007,0.722,0.003,1.084-0.005c0.014,0.003,0.028,0.007,0.042,0.01c0.096-0.003,0.193-0.012,0.289-0.015
	c0.086-0.003,0.172-0.006,0.257-0.01C76.915,59.181,77.082,59.169,77.251,59.157z"/>
<path d="M108.764,76.749c-0.307-1.267-1.168-3.805-1.168-3.805l-7.145,4.946c0.231-2.787,0.462-5.573,0.694-8.368
	c-17.58,0-34.969,0-52.554,0c0.604,7.237,1.198,14.363,1.792,21.483c6.704,0,13.252,0,19.836,0
	c0.509-6.043,1.011-12.013,1.515-17.997c2.155,0,4.186,0,6.272,0c0.511,6.064,1.013,12.033,1.516,17.997c6.66,0,13.209,0,19.839,0
	c0.216-2.601,0.43-5.188,0.645-7.777L108.764,76.749z"/>
</svg>
