<?xml version="1.0" encoding="utf-8"?>
<!-- Generator: Adobe Illustrator 17.0.0, SVG Export Plug-In . SVG Version: 6.00 Build 0)  -->
<!DOCTYPE svg PUBLIC "-//W3C//DTD SVG 1.1//EN" "http://www.w3.org/Graphics/SVG/1.1/DTD/svg11.dtd">
<svg version="1.1" id="Layer_1" xmlns="http://www.w3.org/2000/svg" xmlns:xlink="http://www.w3.org/1999/xlink" x="0px" y="0px"
	 width="162.079px" height="180px" viewBox="0 0 162.079 180" enable-background="new 0 0 162.079 180" xml:space="preserve">
<g>
	<path d="M35.177,87.444c-0.259,0.193-0.437,0.487-0.437,0.834c0,0.36,0.191,0.662,0.465,0.853c-0.405,0.275-0.67,0.739-0.67,1.265
		c0,0.737,0.521,1.351,1.214,1.497c0.083,0.907,0.335,4.277-0.277,6.432l0.655,0.186c0.641-2.257,0.398-5.626,0.305-6.634
		c0.666-0.165,1.162-0.763,1.162-1.48c0-0.659-0.419-1.216-1.004-1.431c0.161-0.186,0.269-0.421,0.269-0.687
		c0-0.458-0.295-0.84-0.702-0.987c2.885-3.453,3.507-10.813,3.513-10.89l0.015-0.191l-1.786,0.96l1.882-1.725l0.006-0.036
		c1.112-7.195-0.845-10.161-0.929-10.284l-0.105-0.153l-0.077,0.169c-0.109,0.239-0.614,0.743-1.023,1.124l0.619-1.209l-0.004-0.032
		c-0.25-1.967-1.879-2.582-2.241-2.695c-0.013-0.208-0.033-0.884,0.127-1.726c0.438,0.254,1,0.116,1.264-0.319
		c0.164-0.27,0.159-0.585,0.041-0.854c0.43-0.022,0.842-0.249,1.083-0.645c0.369-0.607,0.197-1.385-0.372-1.791
		c0.004-0.005,0.011-0.006,0.014-0.012c0.02-0.039,0.488-0.966,0.428-1.954c-0.003-0.056-0.049-0.098-0.104-0.098
		c-0.002,0-0.004,0-0.006,0c-0.058,0.003-0.102,0.053-0.098,0.111c0.056,0.93-0.401,1.838-0.406,1.846c0,0.001,0,0.002,0,0.003
		c-0.621-0.315-1.389-0.109-1.757,0.496c-0.301,0.496-0.241,1.107,0.101,1.536c-0.206,0.066-0.395,0.194-0.516,0.394
		c-0.227,0.373-0.146,0.832,0.148,1.129c-0.197,0.944-0.169,1.695-0.154,1.91c-1.892,1.078-1.352,3.397-1.006,4.399
		c-0.719-0.912-1.054-2.57-1.057-2.59l-0.049-0.249l-0.141,0.211c-2.404,3.606-2.374,4.978-2.371,5.035l0.001,0.034l2.643,3.303
		l-2.926-2.002L30.9,70.678C30.118,81.92,33.889,86.293,35.177,87.444z M35.799,87.219c-0.16,0-0.308,0.041-0.444,0.105
		c-0.75-0.656-2.519-2.568-3.556-6.65l3.147,1.785c0.044,0.685,0.098,1.37,0.195,2.05c0.032,0.231,0.063,0.462,0.109,0.691
		c0.044,0.229,0.078,0.46,0.136,0.686C35.486,86.34,35.608,86.794,35.799,87.219c-0.088-0.215-0.156-0.438-0.21-0.664
		c-0.06-0.224-0.106-0.452-0.149-0.68c-0.05-0.227-0.076-0.458-0.113-0.687c-0.038-0.229-0.062-0.46-0.086-0.691
		c-0.081-0.677-0.121-1.358-0.151-2.04l3.672-1.8c-0.523,2.274-1.409,4.926-2.85,6.586C35.874,87.238,35.84,87.219,35.799,87.219z
		 M39.585,75.34l-3.061,2.806l2.919-1.569c-0.041,0.406-0.158,1.422-0.395,2.699l-3.99,1.974c-0.027-1.667,0.015-3.335,0.106-5.001
		l4.635-2.675C39.747,74.134,39.681,74.717,39.585,75.34z M39.887,72.318l-4.638,2.663c0.036-0.54,0.067-1.081,0.114-1.621
		c0.073-0.755,0.14-1.51,0.215-2.264l0.03,0.02l4.181-1.99C39.892,70.022,39.94,71.081,39.887,72.318z M33.603,64.446
		c0.146,0.609,0.594,2.185,1.426,2.821l0.344,0.263l-0.186-0.391c-0.016-0.033-1.55-3.334,0.753-4.619
		c0.275,0.078,1.857,0.605,2.114,2.498l-1.094,2.139l0.408-0.355c0.047-0.041,1.045-0.911,1.401-1.414
		c0.164,0.301,0.532,1.078,0.806,2.391l-3.853,1.945c0.068-0.639,0.132-1.278,0.213-1.915l0.335-2.772l-0.437,2.759
		c-0.096,0.641-0.177,1.285-0.259,1.929l-3.501-2.608C32.4,66.426,32.878,65.551,33.603,64.446z M34.878,73.462l-3.474-4.343
		c0.005-0.083,0.032-0.336,0.175-0.785l3.84,2.652c-0.038,0.322-0.077,0.644-0.108,0.967l-0.138,1.391
		c-0.051,0.548-0.087,1.098-0.127,1.647l-4.017-2.764c0.015-0.44,0.036-0.888,0.066-1.352L34.878,73.462z M31.007,73.564
		l3.948,2.681c-0.076,1.666-0.122,3.335-0.069,5.004l-3.423-2.137C31.177,77.54,31.003,75.702,31.007,73.564z"/>
	<path d="M46.562,72.243c-0.315,0.236-0.521,0.609-0.521,1.033c0,0.438,0.219,0.823,0.551,1.058
		c-0.485,0.338-0.803,0.898-0.803,1.534c0,0.928,0.677,1.693,1.563,1.841c0.103,1.136,0.406,5.246-0.343,7.881l0.655,0.186
		c0.778-2.739,0.486-6.826,0.372-8.074c0.854-0.174,1.496-0.929,1.496-1.834c0-0.803-0.509-1.483-1.219-1.748
		c0.196-0.227,0.319-0.52,0.319-0.843c0-0.56-0.357-1.033-0.855-1.214c3.525-4.227,4.286-13.224,4.294-13.319l0.019-0.234
		l-2.185,1.174l2.302-2.11l0.007-0.045c1.36-8.804-1.034-12.433-1.137-12.583l-0.128-0.187l-0.094,0.207
		c-0.133,0.292-0.751,0.909-1.252,1.375l0.757-1.479l-0.005-0.039c-0.306-2.407-2.299-3.159-2.742-3.297
		c-0.016-0.255-0.04-1.081,0.155-2.11c0.536,0.311,1.224,0.14,1.547-0.392c0.2-0.329,0.212-0.719,0.069-1.048
		c0.519-0.033,1.015-0.308,1.305-0.787c0.451-0.742,0.241-1.694-0.456-2.191c0.005-0.006,0.013-0.007,0.017-0.015
		c0.024-0.048,0.597-1.182,0.524-2.391c-0.004-0.068-0.061-0.12-0.128-0.12c-0.003,0-0.005,0-0.008,0
		c-0.071,0.004-0.124,0.065-0.12,0.135c0.069,1.137-0.491,2.248-0.496,2.259c-0.001,0.001,0,0.002,0,0.004
		c-0.76-0.386-1.699-0.134-2.15,0.607c-0.367,0.604-0.295,1.348,0.118,1.873c-0.252,0.081-0.478,0.245-0.626,0.488
		c-0.28,0.461-0.193,1.041,0.176,1.404c-0.236,1.144-0.202,2.053-0.184,2.314c-2.315,1.319-1.654,4.156-1.231,5.382
		c-0.88-1.116-1.289-3.145-1.294-3.168l-0.06-0.304l-0.172,0.258c-2.941,4.412-2.904,6.091-2.901,6.16l0.002,0.042l3.234,4.042
		l-3.58-2.449l-0.016,0.223C40.387,65.459,44.973,70.817,46.562,72.243z M47.336,71.98c-0.196,0-0.38,0.047-0.547,0.125
		c-0.92-0.805-3.08-3.145-4.348-8.134l3.85,2.184c0.054,0.838,0.12,1.676,0.239,2.508c0.039,0.283,0.077,0.565,0.134,0.845
		c0.054,0.28,0.096,0.563,0.167,0.84C46.953,70.905,47.103,71.46,47.336,71.98c-0.108-0.263-0.191-0.536-0.257-0.813
		c-0.074-0.275-0.13-0.553-0.183-0.832c-0.061-0.277-0.093-0.561-0.138-0.841c-0.047-0.28-0.075-0.563-0.105-0.846
		c-0.099-0.829-0.148-1.662-0.185-2.496l4.493-2.203c-0.639,2.777-1.72,6.013-3.475,8.046C47.437,71.989,47.388,71.98,47.336,71.98z
		 M51.969,57.445l-3.745,3.433l3.571-1.92c-0.05,0.497-0.193,1.74-0.483,3.302l-4.882,2.415c-0.034-2.04,0.018-4.081,0.129-6.119
		l5.671-3.272C52.166,55.97,52.085,56.683,51.969,57.445z M52.338,53.747l-5.681,3.263c0.044-0.663,0.089-1.325,0.146-1.987
		c0.089-0.924,0.169-1.848,0.261-2.772l0.038,0.026l5.116-2.434C52.344,50.939,52.403,52.234,52.338,53.747z M44.649,44.116
		c0.179,0.745,0.727,2.673,1.745,3.452l0.42,0.321l-0.227-0.478c-0.019-0.041-1.897-4.079,0.921-5.652
		c0.336,0.095,2.272,0.74,2.587,3.056l-1.339,2.617l0.499-0.434c0.058-0.05,1.279-1.115,1.714-1.731
		c0.201,0.368,0.651,1.318,0.986,2.925l-4.719,2.382c0.083-0.782,0.165-1.565,0.264-2.345l0.41-3.392l-0.535,3.376
		c-0.117,0.785-0.217,1.572-0.316,2.36l-4.286-3.192C43.175,46.538,43.765,45.464,44.649,44.116z M46.209,55.148l-4.251-5.314
		c0.006-0.101,0.038-0.41,0.214-0.961l4.7,3.245c-0.047,0.394-0.095,0.788-0.132,1.183l-0.169,1.701
		c-0.062,0.669-0.113,1.34-0.162,2.011l-4.908-3.377c0.019-0.539,0.043-1.087,0.081-1.655L46.209,55.148z M41.472,55.273l4.83,3.281
		c-0.093,2.039-0.149,4.081-0.084,6.122l-4.189-2.615C41.681,60.137,41.468,57.888,41.472,55.273z"/>
	<path d="M125.131,75.445l1.882,1.725l-1.786-0.96l0.015,0.191c0.006,0.078,0.629,7.437,3.513,10.89
		c-0.407,0.147-0.702,0.529-0.702,0.987c0,0.266,0.107,0.501,0.269,0.687c-0.585,0.215-1.004,0.772-1.004,1.431
		c0,0.718,0.496,1.315,1.162,1.48c-0.093,1.009-0.336,4.377,0.305,6.634l0.655-0.186c-0.612-2.154-0.36-5.525-0.277-6.432
		c0.693-0.146,1.214-0.76,1.214-1.496c0-0.526-0.266-0.99-0.67-1.265c0.274-0.191,0.465-0.493,0.465-0.853
		c0-0.348-0.178-0.641-0.437-0.834c1.288-1.151,5.06-5.523,4.278-16.766l-0.013-0.182l-2.926,2.002l2.643-3.303l0.001-0.034
		c0.002-0.057,0.033-1.429-2.371-5.035l-0.141-0.211l-0.049,0.249c-0.004,0.019-0.338,1.678-1.057,2.59
		c0.346-1.002,0.886-3.321-1.006-4.399c0.015-0.215,0.043-0.966-0.154-1.91c0.294-0.297,0.375-0.756,0.148-1.129
		c-0.121-0.2-0.31-0.328-0.516-0.394c0.342-0.429,0.402-1.04,0.101-1.536c-0.368-0.605-1.135-0.811-1.757-0.496
		c0-0.001,0-0.002,0-0.003c-0.005-0.009-0.462-0.917-0.406-1.846c0.004-0.058-0.04-0.107-0.098-0.111c-0.002,0-0.004,0-0.006,0
		c-0.055,0-0.101,0.043-0.104,0.098c-0.06,0.988,0.408,1.915,0.428,1.954c0.003,0.006,0.01,0.007,0.014,0.012
		c-0.569,0.406-0.741,1.184-0.372,1.79c0.241,0.396,0.653,0.623,1.083,0.645c-0.118,0.269-0.124,0.584,0.041,0.854
		c0.264,0.435,0.826,0.573,1.264,0.319c0.16,0.842,0.14,1.518,0.127,1.726c-0.362,0.113-1.99,0.728-2.241,2.695l-0.004,0.032
		l0.618,1.209c-0.409-0.381-0.915-0.885-1.023-1.124l-0.077-0.169l-0.105,0.153c-0.084,0.123-2.04,3.088-0.929,10.284
		L125.131,75.445z M128.388,78.146l-3.061-2.806c-0.095-0.623-0.162-1.206-0.213-1.766l4.635,2.675
		c0.091,1.666,0.133,3.334,0.106,5.001l-3.99-1.974c-0.237-1.277-0.354-2.292-0.395-2.699L128.388,78.146z M129.557,87.324
		c-0.136-0.064-0.284-0.105-0.444-0.105c-0.04,0-0.075,0.019-0.114,0.023c-1.441-1.661-2.327-4.312-2.85-6.586l3.672,1.8
		c-0.03,0.682-0.07,1.363-0.151,2.04c-0.024,0.231-0.047,0.462-0.086,0.691c-0.037,0.229-0.063,0.461-0.113,0.687
		c-0.043,0.228-0.089,0.456-0.15,0.68c-0.054,0.226-0.122,0.449-0.21,0.664c0.191-0.425,0.314-0.879,0.413-1.333
		c0.058-0.226,0.092-0.457,0.136-0.686c0.046-0.229,0.077-0.46,0.109-0.691c0.097-0.68,0.151-1.365,0.195-2.05l3.147-1.785
		C132.076,84.756,130.307,86.668,129.557,87.324z M133.45,79.112l-3.423,2.137c0.053-1.668,0.007-3.337-0.069-5.004l3.948-2.681
		C133.909,75.702,133.735,77.54,133.45,79.112z M130.034,73.462l3.782-2.588c0.03,0.464,0.051,0.912,0.066,1.352l-4.017,2.764
		c-0.04-0.549-0.076-1.099-0.127-1.647l-0.138-1.391c-0.031-0.323-0.07-0.645-0.108-0.967l3.84-2.652
		c0.143,0.449,0.171,0.702,0.175,0.785L130.034,73.462z M126.142,65.388c0.356,0.503,1.354,1.374,1.401,1.414l0.408,0.355
		l-1.094-2.139c0.258-1.893,1.839-2.42,2.114-2.498c2.303,1.285,0.768,4.586,0.753,4.619l-0.186,0.391l0.344-0.263
		c0.832-0.636,1.28-2.212,1.426-2.821c0.725,1.105,1.204,1.98,1.53,2.67l-3.501,2.608c-0.082-0.644-0.163-1.287-0.259-1.929
		l-0.437-2.759l0.335,2.772c0.081,0.637,0.145,1.276,0.213,1.915l-3.853-1.945C125.611,66.465,125.978,65.688,126.142,65.388z
		 M125.123,69.127l4.181,1.99l0.03-0.02c0.075,0.754,0.142,1.51,0.215,2.264c0.047,0.54,0.078,1.08,0.114,1.621l-4.638-2.663
		C124.972,71.081,125.02,70.022,125.123,69.127z"/>
	<path d="M83.868,80.259c-13.702,0-24.85,11.148-24.85,24.85s11.148,24.85,24.85,24.85s24.85-11.148,24.85-24.85
		S97.571,80.259,83.868,80.259z M83.868,126.828c-11.976,0-21.719-9.743-21.719-21.719S71.892,83.39,83.868,83.39
		c11.976,0,21.719,9.743,21.719,21.719S95.844,126.828,83.868,126.828z"/>
	<path d="M83.868,85.755c-10.672,0-19.355,8.682-19.355,19.355s8.683,19.355,19.355,19.355s19.354-8.682,19.354-19.355
		S94.54,85.755,83.868,85.755z M83.868,123.848c-10.333,0-18.739-8.407-18.739-18.739S73.536,86.37,83.868,86.37
		c10.332,0,18.739,8.407,18.739,18.739S94.201,123.848,83.868,123.848z"/>
	<path d="M95.379,93.289c-0.486,0-0.881,0.394-0.881,0.881c0,0.133,0.034,0.255,0.086,0.368l-3.001,3.001
		c-0.585-0.596-1.241-1.118-1.95-1.567l2.181-3.732c0.151,0.046,0.31,0.066,0.473,0.023c0.47-0.123,0.752-0.605,0.628-1.075
		c-0.123-0.47-0.605-0.752-1.075-0.628c-0.47,0.123-0.752,0.605-0.628,1.075c0.034,0.128,0.098,0.239,0.177,0.334l-2.186,3.741
		c-0.584-0.332-1.202-0.609-1.847-0.829l1.21-4.361c0.157,0.006,0.317-0.015,0.464-0.098c0.423-0.239,0.572-0.777,0.333-1.2
		c-0.239-0.423-0.777-0.572-1.2-0.333s-0.572,0.777-0.333,1.2c0.065,0.116,0.156,0.206,0.257,0.278l-1.21,4.361
		c-0.767-0.222-1.57-0.356-2.398-0.402l0.065-4.595c0.154-0.034,0.302-0.095,0.424-0.213c0.349-0.339,0.356-0.897,0.017-1.245
		c-0.339-0.349-0.896-0.356-1.245-0.017c-0.349,0.339-0.356,0.897-0.017,1.245c0.093,0.095,0.203,0.16,0.319,0.204l-0.065,4.596
		c-0.037,0-0.072-0.006-0.109-0.006c-0.372,0-0.74,0.019-1.103,0.056L82.304,89.9c0.112-0.054,0.216-0.128,0.299-0.231
		c0.307-0.377,0.249-0.932-0.128-1.239c-0.378-0.307-0.932-0.249-1.239,0.128c-0.307,0.377-0.249,0.932,0.128,1.239
		c0.131,0.107,0.285,0.154,0.441,0.174l0.462,4.456c-0.826,0.123-1.622,0.335-2.377,0.634l-1.558-4.14
		c0.095-0.081,0.176-0.179,0.231-0.3c0.201-0.443,0.004-0.965-0.439-1.165c-0.443-0.201-0.965-0.004-1.165,0.439
		c-0.201,0.443-0.004,0.965,0.439,1.166c0.154,0.07,0.315,0.076,0.471,0.056l1.558,4.141c-0.427,0.193-0.836,0.414-1.231,0.658
		l-2.17-3.714c0.08-0.096,0.144-0.206,0.177-0.335c0.123-0.47-0.158-0.952-0.628-1.075c-0.47-0.123-0.952,0.158-1.075,0.628
		c-0.123,0.47,0.158,0.952,0.628,1.075c0.164,0.043,0.323,0.022,0.474-0.023l2.167,3.71c-0.691,0.473-1.317,1.03-1.88,1.646
		l-3.058-3.058c0.053-0.113,0.087-0.236,0.087-0.369c0-0.486-0.394-0.881-0.881-0.881c-0.486,0-0.881,0.394-0.881,0.881
		c0,0.486,0.394,0.881,0.881,0.881c0.169,0,0.318-0.06,0.452-0.143l3.062,3.061c-1.559,1.874-2.498,4.282-2.498,6.91
		c0,5.972,4.842,10.814,10.814,10.814c5.972,0,10.814-4.842,10.814-10.814c0-2.768-1.049-5.285-2.759-7.198l3.004-3.004
		c0.134,0.083,0.283,0.143,0.452,0.143c0.486,0,0.881-0.394,0.881-0.881C96.26,93.683,95.866,93.289,95.379,93.289z"/>
	<path d="M151.28,59.342c0.867,19.927-5.873,36.6-16.628,49.002L117.949,86.77c-0.76-2.674-0.472-7.768-0.382-9.062
		c0.883-0.151,1.556-0.914,1.556-1.84c0-0.636-0.319-1.196-0.803-1.534c0.333-0.235,0.551-0.62,0.551-1.058
		c0-0.424-0.207-0.797-0.521-1.033c1.588-1.426,6.175-6.784,5.221-20.502l-0.016-0.223l-3.58,2.449l3.234-4.042l0.002-0.042
		c0.003-0.069,0.04-1.748-2.901-6.16l-0.172-0.258l-0.06,0.304c-0.005,0.023-0.414,2.053-1.294,3.168
		c0.424-1.226,1.084-4.063-1.231-5.382c0.019-0.261,0.052-1.17-0.184-2.314c0.369-0.363,0.457-0.942,0.176-1.404
		c-0.148-0.244-0.374-0.407-0.626-0.488c0.413-0.525,0.485-1.268,0.118-1.873c-0.45-0.741-1.389-0.992-2.15-0.607
		c-0.001-0.001,0-0.002,0-0.004c-0.006-0.011-0.565-1.122-0.496-2.259c0.004-0.07-0.049-0.131-0.12-0.135c-0.003,0-0.005,0-0.008,0
		c-0.067,0-0.123,0.052-0.128,0.12c-0.073,1.209,0.5,2.344,0.524,2.391c0.004,0.007,0.012,0.008,0.017,0.015
		c-0.696,0.497-0.907,1.448-0.456,2.191c0.291,0.478,0.786,0.754,1.305,0.787c-0.143,0.329-0.131,0.718,0.069,1.048
		c0.323,0.532,1.011,0.703,1.547,0.392c0.195,1.029,0.171,1.855,0.155,2.11c-0.443,0.138-2.435,0.89-2.742,3.297l-0.005,0.039
		l0.757,1.479c-0.501-0.466-1.119-1.083-1.252-1.375l-0.094-0.207l-0.128,0.187c-0.102,0.15-2.497,3.779-1.137,12.583l0.007,0.045
		l2.302,2.11l-2.185-1.174l0.019,0.234c0.008,0.095,0.768,9.092,4.294,13.319c-0.497,0.181-0.854,0.654-0.854,1.214
		c0,0.324,0.123,0.616,0.319,0.843c-0.711,0.266-1.219,0.945-1.219,1.748c0,0.901,0.637,1.652,1.484,1.831
		c-0.152,1.179-0.571,4.91-0.022,7.641l-12.54-16.197c0.024-0.349,0.047-0.634,0.066-0.837c1.02-0.148,1.806-1.018,1.806-2.079
		c0-0.717-0.359-1.348-0.905-1.729c0.375-0.264,0.621-0.699,0.621-1.192c0-0.478-0.233-0.898-0.588-1.165
		c1.79-1.607,6.96-7.646,5.884-23.108l-0.018-0.251l-4.035,2.76l3.645-4.556l0.002-0.047c0.003-0.078,0.045-1.971-3.27-6.943
		l-0.194-0.291l-0.068,0.343c-0.005,0.026-0.466,2.314-1.458,3.571c0.478-1.382,1.222-4.579-1.387-6.066
		c0.021-0.294,0.058-1.319-0.207-2.609c0.416-0.409,0.515-1.062,0.199-1.582c-0.167-0.275-0.422-0.459-0.705-0.551
		c0.466-0.591,0.547-1.43,0.133-2.111c-0.507-0.835-1.566-1.119-2.423-0.684c-0.001-0.001,0-0.003,0-0.004
		c-0.006-0.012-0.637-1.265-0.56-2.547c0.005-0.079-0.056-0.148-0.135-0.153c-0.003,0-0.006,0-0.009,0
		c-0.076,0-0.139,0.059-0.144,0.136c-0.083,1.363,0.563,2.641,0.591,2.695c0.004,0.008,0.014,0.01,0.019,0.017
		c-0.784,0.56-1.022,1.633-0.513,2.469c0.328,0.539,0.886,0.849,1.471,0.887c-0.161,0.37-0.148,0.81,0.078,1.181
		c0.364,0.599,1.14,0.793,1.743,0.442c0.22,1.16,0.193,2.091,0.175,2.378c-0.499,0.156-2.745,1.003-3.09,3.716l-0.006,0.044
		l0.853,1.667c-0.565-0.526-1.262-1.221-1.411-1.55l-0.106-0.233l-0.145,0.211c-0.116,0.169-2.814,4.259-1.281,14.182l0.008,0.05
		l2.595,2.379l-2.463-1.324l0.021,0.264c0.009,0.107,0.866,10.248,4.84,15.012c-0.561,0.204-0.963,0.737-0.963,1.368
		c0,0.365,0.139,0.695,0.36,0.951c-0.77,0.288-1.322,1.008-1.364,1.867L90.935,51.879c0.025-0.371,0.05-0.674,0.069-0.887
		c1.02-0.149,1.806-1.018,1.806-2.079c0-0.717-0.359-1.348-0.905-1.729c0.375-0.264,0.621-0.699,0.621-1.192
		c0-0.478-0.233-0.898-0.588-1.165c1.79-1.607,6.96-7.646,5.884-23.108l-0.018-0.251l-4.035,2.76l3.645-4.556l0.002-0.047
		c0.003-0.078,0.045-1.971-3.27-6.943l-0.194-0.291l-0.068,0.343c-0.005,0.026-0.466,2.314-1.458,3.571
		c0.478-1.382,1.222-4.579-1.387-6.067c0.021-0.294,0.058-1.319-0.207-2.609c0.416-0.409,0.515-1.062,0.199-1.582
		c-0.167-0.275-0.422-0.459-0.705-0.55c0.466-0.591,0.547-1.43,0.133-2.111c-0.507-0.835-1.566-1.119-2.423-0.684
		c-0.001-0.001,0-0.003,0-0.004c-0.006-0.012-0.637-1.265-0.56-2.547C87.482,0.074,87.421,0.005,87.341,0c-0.003,0-0.006,0-0.009,0
		c-0.076,0-0.139,0.059-0.144,0.136c-0.083,1.363,0.563,2.641,0.591,2.695c0.004,0.008,0.014,0.01,0.019,0.017
		c-0.785,0.56-1.022,1.633-0.513,2.469c0.328,0.539,0.886,0.849,1.471,0.887c-0.161,0.37-0.148,0.81,0.078,1.181
		c0.364,0.599,1.14,0.793,1.743,0.442c0.22,1.16,0.193,2.091,0.175,2.378c-0.499,0.156-2.745,1.003-3.09,3.716l-0.006,0.044
		l0.853,1.667c-0.565-0.526-1.262-1.221-1.411-1.55l-0.106-0.233l-0.145,0.211c-0.116,0.169-2.814,4.259-1.281,14.182l0.008,0.05
		l2.595,2.379l-2.463-1.324l0.021,0.264c0.009,0.107,0.866,10.248,4.84,15.012c-0.561,0.204-0.963,0.737-0.963,1.368
		c0,0.365,0.139,0.695,0.36,0.951c-0.784,0.293-1.345,1.034-1.369,1.915l-6.774-8.75l-5.574,8.282
		c-0.172-0.67-0.661-1.207-1.301-1.446c0.221-0.256,0.36-0.586,0.36-0.951c0-0.631-0.403-1.164-0.963-1.368
		c3.973-4.764,4.831-14.905,4.84-15.012l0.021-0.264l-2.463,1.324l2.595-2.379l0.008-0.05c1.533-9.923-1.166-14.013-1.281-14.182
		l-0.145-0.211l-0.106,0.233c-0.15,0.33-0.847,1.024-1.411,1.55l0.853-1.667l-0.006-0.044c-0.345-2.713-2.591-3.56-3.09-3.716
		c-0.018-0.287-0.045-1.218,0.175-2.378c0.604,0.351,1.379,0.157,1.743-0.442c0.226-0.371,0.239-0.811,0.078-1.181
		c0.585-0.037,1.144-0.348,1.471-0.887c0.509-0.837,0.271-1.91-0.513-2.469c0.005-0.007,0.015-0.008,0.019-0.017
		c0.027-0.054,0.673-1.333,0.591-2.695C77.718,0.059,77.655,0,77.579,0c-0.003,0-0.006,0-0.009,0
		c-0.079,0.005-0.14,0.073-0.135,0.153c0.078,1.282-0.553,2.534-0.56,2.547c-0.001,0.001,0,0.003,0,0.004
		c-0.857-0.435-1.915-0.151-2.423,0.684c-0.414,0.681-0.333,1.519,0.133,2.111c-0.284,0.091-0.539,0.276-0.705,0.55
		c-0.316,0.52-0.217,1.173,0.199,1.582c-0.266,1.29-0.228,2.314-0.207,2.608c-2.609,1.487-1.865,4.685-1.387,6.067
		c-0.992-1.257-1.453-3.545-1.458-3.571l-0.068-0.343l-0.194,0.291c-3.315,4.972-3.273,6.865-3.27,6.943l0.002,0.047l3.645,4.556
		l-4.035-2.76l-0.018,0.251c-1.076,15.462,4.094,21.501,5.884,23.108c-0.355,0.266-0.588,0.687-0.588,1.165
		c0,0.494,0.246,0.928,0.621,1.192c-0.546,0.381-0.905,1.012-0.905,1.729c0,1.061,0.786,1.931,1.806,2.079
		c0.017,0.193,0.039,0.458,0.062,0.782L61.368,70.497c-0.036-0.962-0.097-1.746-0.139-2.199c0.983-0.18,1.73-1.036,1.73-2.071
		c0-0.905-0.573-1.671-1.374-1.971c0.221-0.256,0.36-0.586,0.36-0.951c0-0.631-0.403-1.164-0.963-1.368
		c3.973-4.764,4.831-14.905,4.84-15.012l0.021-0.264l-2.463,1.324l2.595-2.379l0.008-0.05c1.533-9.923-1.166-14.013-1.281-14.182
		l-0.145-0.211l-0.106,0.233c-0.15,0.33-0.847,1.024-1.411,1.55l0.853-1.667l-0.006-0.044c-0.345-2.713-2.591-3.56-3.09-3.716
		c-0.018-0.287-0.045-1.218,0.175-2.378c0.604,0.351,1.379,0.157,1.743-0.442c0.226-0.371,0.239-0.811,0.078-1.181
		c0.585-0.037,1.144-0.348,1.471-0.887c0.509-0.837,0.271-1.91-0.513-2.469c0.005-0.007,0.015-0.008,0.019-0.017
		c0.027-0.054,0.673-1.333,0.591-2.695c-0.005-0.077-0.068-0.136-0.144-0.136c-0.003,0-0.006,0-0.009,0
		c-0.079,0.005-0.14,0.073-0.135,0.153c0.078,1.282-0.553,2.534-0.56,2.547c-0.001,0.001,0,0.003,0,0.004
		c-0.857-0.435-1.915-0.151-2.423,0.684c-0.414,0.681-0.333,1.519,0.133,2.111c-0.284,0.091-0.539,0.276-0.705,0.551
		c-0.316,0.52-0.217,1.173,0.199,1.582c-0.266,1.29-0.228,2.314-0.207,2.609c-2.609,1.487-1.865,4.685-1.387,6.067
		c-0.992-1.257-1.453-3.545-1.458-3.571l-0.068-0.343l-0.194,0.291c-3.315,4.972-3.273,6.865-3.27,6.943l0.002,0.047l3.645,4.556
		l-4.035-2.76l-0.018,0.251c-1.076,15.462,4.094,21.501,5.884,23.108c-0.355,0.266-0.588,0.687-0.588,1.165
		c0,0.494,0.246,0.928,0.621,1.192c-0.546,0.381-0.905,1.012-0.905,1.729c0,1.061,0.786,1.931,1.806,2.079
		c0.051,0.564,0.143,1.755,0.162,3.174l-27.387,40.691C19.559,98.324,11.173,78.3,13.59,54.483
		c-18.935,26.812-21.534,74.32,14.713,105.885c30.081,26.195,76.613,26.869,107.865-2.169
		C168.824,127.858,166.678,83.232,151.28,59.342z M122.882,62.06l-4.189,2.615c0.065-2.041,0.009-4.084-0.084-6.122l4.83-3.281
		C123.444,57.888,123.231,60.137,122.882,62.06z M118.703,55.148l4.627-3.166c0.037,0.568,0.062,1.116,0.081,1.655l-4.908,3.377
		c-0.049-0.671-0.099-1.341-0.162-2.011l-0.169-1.701c-0.038-0.395-0.085-0.789-0.132-1.183l4.7-3.245
		c0.176,0.551,0.209,0.859,0.214,0.961L118.703,55.148z M113.941,45.268c0.435,0.616,1.657,1.681,1.714,1.731l0.499,0.434
		l-1.339-2.617c0.315-2.317,2.251-2.961,2.587-3.056c2.818,1.572,0.94,5.611,0.921,5.652l-0.227,0.478l0.42-0.321
		c1.018-0.779,1.566-2.707,1.745-3.452c0.885,1.348,1.475,2.423,1.874,3.266l-4.286,3.192c-0.1-0.787-0.199-1.575-0.316-2.36
		l-0.535-3.376l0.41,3.392c0.099,0.781,0.182,1.563,0.264,2.345l-4.719-2.382C113.291,46.586,113.74,45.636,113.941,45.268z
		 M112.694,49.843l5.116,2.434l0.038-0.026c0.092,0.924,0.172,1.848,0.261,2.772c0.057,0.662,0.103,1.324,0.146,1.987l-5.681-3.263
		C112.509,52.234,112.568,50.939,112.694,49.843z M116.689,60.878l-3.745-3.433c-0.117-0.762-0.198-1.475-0.261-2.161l5.671,3.272
		c0.112,2.038,0.163,4.079,0.129,6.119l-4.882-2.415c-0.29-1.562-0.433-2.805-0.483-3.302L116.689,60.878z M113.949,63.949
		l4.493,2.203c-0.037,0.834-0.085,1.667-0.185,2.496c-0.029,0.283-0.058,0.566-0.105,0.846c-0.045,0.28-0.077,0.564-0.138,0.841
		c-0.053,0.279-0.109,0.558-0.183,0.832c-0.066,0.276-0.149,0.549-0.257,0.813c0.234-0.52,0.384-1.075,0.506-1.631
		c0.071-0.277,0.112-0.559,0.167-0.84c0.056-0.28,0.095-0.563,0.134-0.845c0.119-0.832,0.185-1.67,0.239-2.508l3.85-2.184
		c-1.268,4.989-3.428,7.329-4.348,8.134c-0.167-0.078-0.351-0.125-0.547-0.125c-0.052,0-0.101,0.009-0.151,0.015
		C115.669,69.962,114.588,66.726,113.949,63.949z M65.704,45.462l-4.221,3.87l4.025-2.164c-0.056,0.56-0.218,1.961-0.545,3.722
		l-5.51,2.726c-0.038-2.3,0.026-4.602,0.152-6.9l6.394-3.689C65.927,43.799,65.836,44.603,65.704,45.462z M66.12,41.295
		l-6.403,3.677c0.049-0.747,0.101-1.494,0.165-2.24c0.1-1.041,0.19-2.083,0.294-3.124l0.043,0.03l5.767-2.744
		C66.128,38.129,66.194,39.589,66.12,41.295z M57.455,30.439c0.202,0.84,0.819,3.013,1.967,3.89l0.474,0.362l-0.256-0.539
		c-0.022-0.046-2.138-4.598,1.038-6.37c0.379,0.107,2.56,0.834,2.916,3.445l-1.509,2.95l0.563-0.489
		c0.065-0.056,1.442-1.257,1.932-1.951c0.227,0.415,0.733,1.486,1.111,3.297l-5.319,2.685c0.093-0.882,0.186-1.764,0.298-2.643
		l0.463-3.823l-0.603,3.805c-0.132,0.885-0.244,1.772-0.357,2.66l-4.83-3.597C55.793,33.169,56.458,31.958,57.455,30.439z
		 M59.213,42.873l-4.791-5.989c0.006-0.114,0.043-0.462,0.241-1.083l5.297,3.658c-0.053,0.444-0.107,0.888-0.149,1.333l-0.19,1.918
		c-0.07,0.754-0.127,1.51-0.182,2.266l-5.532-3.806c0.021-0.607,0.049-1.225,0.091-1.865L59.213,42.873z M53.874,43.014l5.444,3.698
		c-0.105,2.298-0.168,4.6-0.095,6.901l-4.721-2.948C54.109,48.496,53.869,45.962,53.874,43.014z M54.966,52.818l4.34,2.461
		c0.061,0.945,0.135,1.889,0.269,2.827c0.044,0.319,0.087,0.637,0.15,0.953c0.061,0.316,0.108,0.634,0.188,0.946
		c0.138,0.627,0.307,1.253,0.57,1.839c-0.122-0.297-0.215-0.604-0.289-0.916c-0.083-0.309-0.147-0.624-0.206-0.938
		c-0.069-0.313-0.105-0.632-0.155-0.948c-0.053-0.316-0.085-0.635-0.118-0.953c-0.112-0.934-0.167-1.873-0.208-2.813l5.064-2.483
		c-0.72,3.13-1.938,6.777-3.917,9.069c-0.056-0.007-0.112-0.017-0.17-0.017c-0.221,0-0.429,0.053-0.617,0.141
		C58.831,61.078,56.395,58.441,54.966,52.818z M149.275,103.499c3.967-7.676,6.183-16.198,6.912-24.837
		c-0.194,4.335-0.82,8.654-1.855,12.88c-1.06,4.219-2.561,8.334-4.494,12.242c-3.867,7.824-9.55,14.725-16.368,20.173
		c-5.384,4.248-11.457,7.612-17.899,9.941l0.941-1.097c5.914-2.331,11.49-5.511,16.448-9.486
		C139.733,117.983,145.335,111.177,149.275,103.499z M91.31,132.149l-15.761,0.354c-12.784-1.316-25.164-6.348-35.481-14.362
		l41.825-63.09l46.68,59.482C117.955,124.085,104.72,130.186,91.31,132.149z M114.924,133.391l-0.897,1.045
		c-1.257,0.418-2.522,0.809-3.803,1.146c-1.544,0.404-3.106,0.73-4.674,1.017l0.966-0.749c1.189-0.26,2.372-0.546,3.544-0.874
		C111.702,134.517,113.321,133.976,114.924,133.391z M83.972,150.078c-0.892,0-1.615-0.723-1.615-1.615
		c0-0.892,0.723-1.615,1.615-1.615c0.892,0,1.615,0.723,1.615,1.615C85.587,149.354,84.864,150.078,83.972,150.078z M86.741,155.462
		c0,1.529-1.24,2.769-2.769,2.769c-1.529,0-2.769-1.24-2.769-2.769c0-1.529,1.24-2.769,2.769-2.769
		C85.501,152.693,86.741,153.933,86.741,155.462z M84.359,136.626c4.289,0.655,8.639,0.843,12.952,0.536
		c2.486-0.162,4.957-0.494,7.403-0.954l-0.91,0.705c-0.851,0.131-1.706,0.231-2.562,0.326l-10.412,0.234
		C88.656,137.323,86.494,137.046,84.359,136.626z M78.6,136.626c-3.413,0.671-6.896,0.974-10.381,0.98l-0.722-0.365
		C71.202,137.384,74.923,137.188,78.6,136.626z M66.351,137.581c-0.242-0.007-0.483-0.01-0.725-0.02
		c-1.552-0.071-3.1-0.224-4.643-0.415l-0.664-0.585c1.717,0.263,3.442,0.47,5.176,0.587L66.351,137.581z M81.871,47.993l22.2,28.451
		c0.011,0.039,0.019,0.079,0.03,0.118l0.254,0.246l27.208,34.869c-0.778,0.787-1.573,1.553-2.384,2.3L81.837,53.652l-42.418,63.983
		c-0.872-0.694-1.729-1.409-2.569-2.146L81.871,47.993z M134.099,108.969c-0.64,0.72-1.291,1.426-1.957,2.116l-27.716-35.52
		c-0.248-1.736-0.25-3.677-0.191-5.169L134.099,108.969z M110.41,50.664l-4.721,2.948c0.073-2.301,0.01-4.603-0.095-6.901
		l5.444-3.698C111.043,45.962,110.803,48.496,110.41,50.664z M105.699,42.873l5.215-3.568c0.042,0.64,0.07,1.258,0.091,1.865
		l-5.532,3.806c-0.055-0.756-0.112-1.512-0.182-2.266l-0.19-1.918c-0.042-0.445-0.096-0.889-0.149-1.333l5.297-3.658
		c0.198,0.621,0.235,0.969,0.241,1.083L105.699,42.873z M100.332,31.737c0.491,0.694,1.867,1.894,1.932,1.951l0.563,0.489
		l-1.509-2.95c0.356-2.611,2.537-3.338,2.916-3.445c3.176,1.772,1.06,6.324,1.038,6.37l-0.256,0.539l0.474-0.362
		c1.148-0.878,1.765-3.051,1.967-3.89c0.997,1.519,1.662,2.731,2.112,3.681l-4.83,3.597c-0.112-0.888-0.224-1.775-0.357-2.66
		l-0.603-3.805l0.463,3.823c0.112,0.88,0.205,1.762,0.298,2.643l-5.319-2.685C99.599,33.223,100.106,32.152,100.332,31.737z
		 M98.927,36.894l5.767,2.744l0.043-0.03c0.104,1.041,0.194,2.083,0.294,3.124c0.064,0.746,0.116,1.493,0.165,2.24l-6.403-3.677
		C98.718,39.589,98.784,38.129,98.927,36.894z M103.429,49.332l-4.221-3.87c-0.132-0.859-0.223-1.663-0.294-2.436l6.394,3.689
		c0.126,2.298,0.19,4.6,0.152,6.9l-5.51-2.726c-0.327-1.761-0.488-3.161-0.545-3.722L103.429,49.332z M100.342,52.793l5.064,2.483
		c-0.041,0.94-0.096,1.879-0.208,2.813c-0.033,0.319-0.065,0.638-0.118,0.953c-0.05,0.316-0.086,0.635-0.155,0.948
		c-0.06,0.315-0.123,0.629-0.206,0.938c-0.075,0.312-0.168,0.619-0.289,0.916c0.264-0.586,0.432-1.212,0.57-1.839
		c0.08-0.312,0.126-0.63,0.188-0.946c0.064-0.316,0.107-0.634,0.15-0.953c0.134-0.938,0.208-1.882,0.269-2.827l4.34-2.462
		c-1.429,5.623-3.864,8.26-4.901,9.168c-0.188-0.088-0.395-0.141-0.617-0.141c-0.058,0-0.113,0.011-0.17,0.017
		C102.28,59.57,101.061,55.923,100.342,52.793z M103.678,68.297c-0.001,0.012-0.002,0.023-0.004,0.035l-0.03-0.039
		C103.655,68.296,103.667,68.295,103.678,68.297z M103.577,69.547c-0.082,1.323-0.118,3.242,0.138,5.107L91.093,58.479
		c-0.278-1.771-0.284-3.795-0.224-5.345L103.577,69.547z M97.047,33.35l-4.721,2.948c0.073-2.301,0.01-4.603-0.095-6.9l5.444-3.698
		C97.68,28.648,97.44,31.182,97.047,33.35z M92.336,25.559l5.215-3.568c0.042,0.64,0.07,1.258,0.091,1.865l-5.532,3.806
		c-0.055-0.756-0.112-1.512-0.182-2.266l-0.19-1.918c-0.042-0.445-0.096-0.889-0.149-1.333l5.297-3.658
		c0.198,0.621,0.235,0.969,0.241,1.083L92.336,25.559z M86.969,14.423c0.491,0.694,1.867,1.894,1.932,1.951l0.563,0.489l-1.509-2.95
		c0.356-2.611,2.537-3.338,2.916-3.445c3.176,1.772,1.06,6.324,1.038,6.37l-0.256,0.539l0.474-0.362
		c1.148-0.878,1.765-3.051,1.967-3.89c0.997,1.519,1.662,2.731,2.112,3.681l-4.83,3.597c-0.112-0.888-0.224-1.775-0.357-2.66
		l-0.603-3.805l0.463,3.823c0.112,0.88,0.205,1.762,0.298,2.643l-5.319-2.685C86.236,15.909,86.743,14.838,86.969,14.423z
		 M85.564,19.58l5.767,2.744l0.043-0.03c0.104,1.041,0.194,2.083,0.294,3.124c0.064,0.746,0.116,1.493,0.165,2.24l-6.403-3.678
		C85.355,22.275,85.421,20.815,85.564,19.58z M90.066,32.018l-4.221-3.87c-0.132-0.859-0.223-1.663-0.294-2.436l6.394,3.689
		c0.126,2.298,0.19,4.6,0.152,6.9l-5.51-2.726c-0.327-1.761-0.488-3.161-0.545-3.722L90.066,32.018z M86.979,35.479l5.064,2.483
		c-0.041,0.94-0.096,1.879-0.208,2.813c-0.033,0.319-0.065,0.637-0.118,0.953c-0.05,0.316-0.086,0.635-0.155,0.948
		c-0.06,0.315-0.123,0.629-0.206,0.938c-0.075,0.312-0.168,0.619-0.289,0.916c0.264-0.586,0.432-1.212,0.57-1.839
		c0.08-0.312,0.126-0.63,0.188-0.946c0.064-0.316,0.107-0.634,0.151-0.953c0.134-0.938,0.208-1.882,0.269-2.827l4.34-2.462
		c-1.429,5.623-3.864,8.26-4.901,9.168c-0.188-0.088-0.395-0.141-0.617-0.141c-0.058,0-0.113,0.011-0.17,0.017
		C88.917,42.257,87.698,38.609,86.979,35.479z M90.315,50.984c-0.003,0.027-0.005,0.053-0.008,0.083l-0.079-0.102
		C90.257,50.972,90.286,50.978,90.315,50.984z M81.868,41.507l8.343,10.776c-0.083,1.376-0.115,3.376,0.175,5.289l-8.567-10.98
		l-7.285,10.921c0.288-1.95,0.246-3.982,0.159-5.347L81.868,41.507z M79.067,28.148l-4.221,3.87l4.025-2.164
		c-0.056,0.56-0.218,1.961-0.545,3.722l-5.51,2.726c-0.038-2.3,0.026-4.602,0.152-6.9l6.394-3.689
		C79.29,26.486,79.199,27.289,79.067,28.148z M79.483,23.981l-6.403,3.678c0.049-0.747,0.1-1.494,0.165-2.24
		c0.1-1.041,0.19-2.083,0.294-3.124l0.043,0.03l5.767-2.744C79.491,20.815,79.557,22.275,79.483,23.981z M70.818,13.125
		c0.202,0.84,0.819,3.013,1.967,3.89l0.474,0.362l-0.256-0.539c-0.022-0.046-2.138-4.598,1.038-6.37
		c0.379,0.107,2.56,0.834,2.916,3.445l-1.509,2.95l0.563-0.489c0.065-0.056,1.442-1.257,1.932-1.951
		c0.227,0.415,0.733,1.486,1.111,3.297l-5.319,2.685c0.093-0.882,0.186-1.764,0.298-2.643l0.463-3.823l-0.603,3.805
		c-0.132,0.885-0.244,1.772-0.357,2.66l-4.83-3.597C69.156,15.855,69.821,14.644,70.818,13.125z M72.576,25.559l-4.791-5.989
		c0.006-0.114,0.043-0.462,0.241-1.083l5.297,3.658c-0.053,0.444-0.107,0.888-0.149,1.333l-0.19,1.918
		c-0.07,0.754-0.127,1.51-0.182,2.266l-5.532-3.806c0.021-0.607,0.049-1.225,0.091-1.865L72.576,25.559z M67.237,25.7l5.444,3.698
		c-0.105,2.298-0.168,4.6-0.095,6.9l-4.721-2.948C67.472,31.182,67.232,28.648,67.237,25.7z M68.329,35.504l4.34,2.462
		c0.061,0.945,0.135,1.889,0.269,2.827c0.044,0.319,0.087,0.637,0.15,0.953c0.061,0.316,0.108,0.634,0.188,0.946
		c0.138,0.627,0.307,1.253,0.57,1.839c-0.122-0.297-0.215-0.604-0.289-0.916c-0.083-0.309-0.147-0.624-0.206-0.938
		c-0.069-0.313-0.105-0.632-0.155-0.948c-0.053-0.316-0.085-0.635-0.118-0.953c-0.112-0.934-0.167-1.873-0.208-2.813l5.064-2.483
		c-0.72,3.13-1.938,6.777-3.917,9.069c-0.056-0.007-0.112-0.017-0.17-0.017c-0.221,0-0.429,0.053-0.617,0.141
		C72.193,43.764,69.758,41.127,68.329,35.504z M60.695,72.966c-0.042,1.457-0.187,2.988-0.54,4.23l0.655,0.186
		c0.462-1.626,0.587-3.675,0.585-5.457l12.647-18.791c0.061,1.595,0.052,3.687-0.25,5.492l-37.561,56.312
		c-0.788-0.707-1.562-1.432-2.32-2.177L60.695,72.966z M13.685,103.499c3.94,7.678,9.542,14.484,16.315,19.817
		c6.729,5.394,14.591,9.338,22.901,11.66c1.944,0.545,3.916,0.988,5.905,1.344l0.729,0.642c-2.288-0.338-4.559-0.794-6.798-1.38
		c-8.433-2.216-16.393-6.218-23.247-11.625c-6.818-5.448-12.501-12.349-16.368-20.173c-1.933-3.909-3.435-8.023-4.494-12.242
		c-1.035-4.225-1.661-8.545-1.855-12.88C7.501,87.301,9.718,95.823,13.685,103.499z M64.327,175.163c0,0.17-0.138,0.308-0.308,0.308
		s-0.308-0.138-0.308-0.308v-25.46c0-0.17,0.138-0.308,0.308-0.308s0.308,0.138,0.308,0.308V175.163z M67.327,170.432
		c0,0.17-0.138,0.308-0.308,0.308s-0.308-0.138-0.308-0.308v-25.46c0-0.17,0.138-0.308,0.308-0.308s0.308,0.138,0.308,0.308V170.432
		z M70.294,173.922c0,0.17-0.138,0.308-0.308,0.308s-0.308-0.138-0.308-0.308v-25.46c0-0.17,0.138-0.308,0.308-0.308
		s0.308,0.138,0.308,0.308V173.922z M51.211,141.331c-8.638-2.299-16.81-6.329-23.945-11.728
		c-7.094-5.444-13.139-12.32-17.337-20.227c-2.097-3.949-3.747-8.129-4.913-12.436c-1.142-4.313-1.83-8.741-2.029-13.187
		c0.735,8.863,3.205,17.574,7.497,25.322c4.266,7.756,10.227,14.543,17.279,19.876c7.014,5.391,15.096,9.368,23.614,11.773
		c4.26,1.205,8.642,1.995,13.064,2.316c4.421,0.346,8.884,0.19,13.283-0.481C68.968,144.247,59.835,143.621,51.211,141.331z
		 M83.972,173.922c-3.398,0-6.153-2.755-6.153-6.153c0-3.398,2.755-6.153,6.153-6.153c3.398,0,6.153,2.755,6.153,6.153
		C90.125,171.167,87.37,173.922,83.972,173.922z M97.256,175.163c0,0.17-0.138,0.308-0.308,0.308c-0.17,0-0.308-0.138-0.308-0.308
		v-25.46c0-0.17,0.138-0.308,0.308-0.308c0.17,0,0.308,0.138,0.308,0.308V175.163z M100.256,170.432c0,0.17-0.138,0.308-0.308,0.308
		s-0.308-0.138-0.308-0.308v-25.46c0-0.17,0.138-0.308,0.308-0.308s0.308,0.138,0.308,0.308V170.432z M103.223,173.922
		c0,0.17-0.138,0.308-0.308,0.308c-0.17,0-0.308-0.138-0.308-0.308v-25.46c0-0.17,0.138-0.308,0.308-0.308
		c0.17,0,0.308,0.138,0.308,0.308V173.922z M153.03,109.377c-4.198,7.907-10.243,14.783-17.337,20.227
		c-7.135,5.399-15.307,9.429-23.945,11.728c-8.624,2.29-17.757,2.916-26.513,1.229c4.399,0.671,8.863,0.828,13.283,0.481
		c4.422-0.321,8.804-1.111,13.064-2.316c8.518-2.406,16.6-6.382,23.614-11.773c7.052-5.333,13.013-12.12,17.279-19.876
		c4.292-7.748,6.763-16.459,7.497-25.322c-0.199,4.446-0.888,8.874-2.029,13.187C156.777,101.247,155.127,105.427,153.03,109.377z"
		/>
	<path d="M93.808,77.946l0.228,0.106L81.845,62.026L71.697,79.602h0C78.285,75.261,86.648,74.635,93.808,77.946z"/>
</g>
</svg>
