<?xml version="1.0" encoding="utf-8"?>
<!-- Generator: Adobe Illustrator 17.0.0, SVG Export Plug-In . SVG Version: 6.00 Build 0)  -->
<!DOCTYPE svg PUBLIC "-//W3C//DTD SVG 1.1//EN" "http://www.w3.org/Graphics/SVG/1.1/DTD/svg11.dtd">
<svg version="1.1" id="Layer_1" xmlns="http://www.w3.org/2000/svg" xmlns:xlink="http://www.w3.org/1999/xlink" x="0px" y="0px"
	 width="82.955px" height="180px" viewBox="0 0 82.955 180" enable-background="new 0 0 82.955 180" xml:space="preserve">
<g>
	<g>
		<path d="M41.477,82.955C18.606,82.955,0,64.348,0,41.477S18.606,0,41.477,0s41.478,18.606,41.478,41.477
			S64.348,82.955,41.477,82.955z M41.477,0.743c-22.461,0-40.734,18.273-40.734,40.734s18.273,40.735,40.734,40.735
			s40.735-18.274,40.735-40.735S63.938,0.743,41.477,0.743z"/>
	</g>
	<g>
		<path d="M41.477,77.709c-19.978,0-36.231-16.254-36.231-36.232c0-19.978,16.254-36.231,36.231-36.231
			c19.978,0,36.232,16.254,36.232,36.231C77.709,61.456,61.456,77.709,41.477,77.709z M41.477,5.989
			c-19.568,0-35.488,15.92-35.488,35.488s15.92,35.489,35.488,35.489s35.489-15.921,35.489-35.489S61.046,5.989,41.477,5.989z"/>
	</g>
	<g>
		<path d="M23.696,102.222h-2.771V76.729l2.771,1.423V102.222z M21.668,101.479h1.284V78.606l-1.284-0.66V101.479z"/>
	</g>
	<g>
		<path d="M45.827,116.478h-3.761V82.212h3.761V116.478z M42.809,115.735h2.275v-32.78h-2.275V115.735z"/>
	</g>
	<g>
		<g>
			<path d="M22.316,140.931l-0.038-0.021c-2.129-1.149-1.532-3.704-1.153-4.8c-0.778,0.987-1.14,2.781-1.144,2.802l-0.053,0.269
				l-0.152-0.228c-2.601-3.901-2.568-5.386-2.565-5.447l0.002-0.037l2.859-3.574l-3.165,2.166l-0.014-0.197
				c-1.011-14.542,5.021-18.464,5.082-18.502l0.075-0.047l0.063,0.062c3.523,3.459,4.26,12.206,4.267,12.294l0.017,0.207
				l-1.932-1.038l2.036,1.866l0.006,0.039c1.203,7.785-0.914,10.993-1.005,11.126l-0.113,0.166l-0.083-0.183
				c-0.118-0.259-0.664-0.804-1.107-1.216l0.669,1.308l-0.004,0.035c-0.303,2.384-2.483,2.934-2.505,2.939L22.316,140.931z
				 M21.733,135.27l-0.201,0.423c-0.017,0.036-1.677,3.607,0.814,4.998c0.297-0.084,2.009-0.654,2.288-2.702l-1.184-2.314
				l0.441,0.384c0.051,0.044,1.131,0.986,1.516,1.53c0.4-0.731,1.913-4.047,0.882-10.768l-3.312-3.036l3.158,1.697
				c-0.134-1.338-1.007-8.734-4.114-11.876c-0.677,0.493-5.793,4.686-4.917,18.046l4.092-2.8l-3.759,4.699
				c0.013,0.234,0.184,1.71,2.38,5.056c0.158-0.659,0.643-2.364,1.543-3.052L21.733,135.27z"/>
		</g>
	</g>
	<g>
		<g>
			<circle cx="22.193" cy="112.822" r="1.146"/>
		</g>
	</g>
	<g>
		<g>
			<circle cx="22.48" cy="110.53" r="1.655"/>
		</g>
	</g>
	<g>
		<g>
			<circle cx="23.082" cy="143.634" r="1.009"/>
		</g>
	</g>
	<g>
		<g>
			<circle cx="23.914" cy="145.489" r="1.457"/>
		</g>
	</g>
	<g>
		<g>
			<path d="M22.595,143.764c-0.511-1.565-0.382-2.908-0.376-2.964l0.225,0.023c-0.001,0.013-0.129,1.354,0.366,2.871L22.595,143.764
				z"/>
		</g>
	</g>
	<g>
		<g>
			<path d="M25.122,148.903c-0.002,0-0.005,0-0.007,0c-0.062-0.004-0.11-0.057-0.106-0.12c0.061-1.006-0.434-1.988-0.439-1.998
				c-0.028-0.056-0.006-0.124,0.049-0.152c0.056-0.029,0.124-0.006,0.152,0.049c0.022,0.042,0.528,1.046,0.463,2.115
				C25.231,148.857,25.181,148.903,25.122,148.903z"/>
		</g>
	</g>
	<g>
		<g>
			<path d="M22.193,113.968c-0.095,0.233-0.169,0.474-0.227,0.719c-0.065,0.243-0.115,0.489-0.162,0.736
				c-0.054,0.245-0.082,0.496-0.122,0.744c-0.041,0.248-0.067,0.498-0.093,0.748c-0.12,0.998-0.166,2.003-0.199,3.007
				c-0.051,2.01,0.007,4.022,0.119,6.03c0.068,1.003,0.125,2.008,0.212,3.01c0.096,1.002,0.176,2.005,0.285,3.005
				c0.112,1,0.207,2.003,0.333,3.001l0.363,2.999l-0.473-2.985c-0.149-0.996-0.263-1.998-0.397-2.997
				c-0.07-0.499-0.12-1.001-0.168-1.502l-0.149-1.505c-0.093-1.004-0.158-2.01-0.232-3.015c-0.093-2.014-0.154-4.032-0.066-6.049
				c0.054-1.007,0.12-2.015,0.263-3.015c0.034-0.25,0.068-0.5,0.118-0.748c0.048-0.248,0.085-0.497,0.147-0.742
				C21.854,114.918,21.987,114.427,22.193,113.968z"/>
		</g>
	</g>
	<g>
		<g>
			<path d="M17.517,134.475l4.468-3.086l4.64,2.208c0,0-0.029,0.616-0.235,1.46l-4.376-2.209l-3.949,2.941L17.517,134.475z"/>
		</g>
	</g>
	<g>
		<g>
			<polygon points="16.92,130.265 21.47,127.135 26.736,130.159 26.646,128.804 21.385,125.768 16.92,128.801 			"/>
		</g>
	</g>
	<g>
		<g>
			<polygon points="17.712,121.136 21.34,119.078 25.537,121.136 25.841,122.628 21.287,120.375 17.357,122.829 			"/>
		</g>
	</g>
	<g>
		<path d="M22.849,109.249l-0.739-0.083c0.005-0.045,0.492-4.516-0.275-7.214l0.715-0.203
			C23.357,104.588,22.87,109.059,22.849,109.249z"/>
	</g>
	<g>
		<path d="M62.029,102.222h-2.77v-24.07l2.77-1.423V102.222z M60.002,101.479h1.284V77.947l-1.284,0.66V101.479z"/>
	</g>
	<g>
		<g>
			<g>
				<path d="M60.597,140.921c-0.022-0.005-2.201-0.555-2.505-2.939l-0.004-0.035l0.669-1.308c-0.443,0.412-0.99,0.958-1.107,1.216
					l-0.083,0.183l-0.113-0.166c-0.091-0.133-2.208-3.341-1.005-11.126l0.006-0.039l2.036-1.866l-1.932,1.038l0.017-0.207
					c0.007-0.088,0.744-8.835,4.267-12.294l0.063-0.062l0.075,0.047c0.061,0.038,6.094,3.96,5.082,18.502l-0.014,0.197l-3.165-2.166
					l2.859,3.574l0.002,0.037c0.003,0.061,0.035,1.546-2.565,5.447l-0.152,0.228l-0.053-0.269c-0.004-0.021-0.366-1.815-1.144-2.802
					c0.379,1.096,0.976,3.651-1.153,4.8l-0.038,0.021L60.597,140.921z M61.594,135.554c0.9,0.689,1.385,2.393,1.543,3.052
					c2.196-3.346,2.367-4.822,2.38-5.056l-3.759-4.699l4.092,2.8c0.877-13.36-4.24-17.553-4.917-18.046
					c-3.107,3.143-3.98,10.538-4.114,11.876l3.158-1.697l-3.312,3.036c-1.03,6.721,0.483,10.037,0.882,10.768
					c0.385-0.544,1.465-1.486,1.516-1.53l0.441-0.384l-1.184,2.314c0.279,2.048,1.99,2.618,2.288,2.702
					c2.491-1.39,0.831-4.962,0.814-4.998l-0.201-0.423L61.594,135.554z"/>
			</g>
		</g>
		<g>
			<g>
				<circle cx="60.761" cy="112.822" r="1.146"/>
			</g>
		</g>
		<g>
			<g>
				<circle cx="60.475" cy="110.53" r="1.655"/>
			</g>
		</g>
		<g>
			<g>
				<circle cx="59.873" cy="143.634" r="1.009"/>
			</g>
		</g>
		<g>
			<g>
				<circle cx="59.041" cy="145.489" r="1.457"/>
			</g>
		</g>
		<g>
			<g>
				<path d="M60.36,143.764c0.511-1.565,0.382-2.908,0.376-2.964l-0.225,0.023c0.001,0.013,0.129,1.354-0.366,2.871L60.36,143.764z"
					/>
			</g>
		</g>
		<g>
			<g>
				<path d="M57.833,148.903c0.002,0,0.005,0,0.007,0c0.062-0.004,0.11-0.057,0.106-0.12c-0.061-1.006,0.434-1.988,0.439-1.998
					c0.028-0.056,0.006-0.124-0.049-0.152c-0.056-0.029-0.124-0.006-0.152,0.049c-0.022,0.042-0.528,1.046-0.463,2.115
					C57.724,148.857,57.773,148.903,57.833,148.903z"/>
			</g>
		</g>
		<g>
			<g>
				<path d="M60.761,113.968c0.095,0.233,0.169,0.474,0.227,0.719c0.065,0.243,0.115,0.489,0.162,0.736
					c0.054,0.245,0.082,0.496,0.122,0.744c0.041,0.248,0.067,0.498,0.093,0.748c0.12,0.998,0.166,2.003,0.199,3.007
					c0.051,2.01-0.007,4.022-0.119,6.03c-0.068,1.003-0.125,2.008-0.212,3.01c-0.096,1.002-0.176,2.005-0.285,3.005
					c-0.112,1-0.207,2.003-0.333,3.001l-0.363,2.999l0.473-2.985c0.149-0.996,0.263-1.998,0.397-2.997
					c0.07-0.499,0.12-1.001,0.168-1.502l0.149-1.505c0.093-1.004,0.158-2.01,0.232-3.015c0.093-2.014,0.154-4.032,0.066-6.049
					c-0.054-1.007-0.12-2.015-0.263-3.015c-0.034-0.25-0.068-0.5-0.118-0.748c-0.048-0.248-0.085-0.497-0.147-0.742
					C61.101,114.918,60.968,114.427,60.761,113.968z"/>
			</g>
		</g>
		<g>
			<g>
				<path d="M65.438,134.475l-4.468-3.086l-4.64,2.208c0,0,0.029,0.616,0.235,1.46l4.376-2.209l3.949,2.941L65.438,134.475z"/>
			</g>
		</g>
		<g>
			<g>
				<polygon points="66.035,130.265 61.484,127.135 56.218,130.159 56.308,128.804 61.57,125.768 66.035,128.801 				"/>
			</g>
		</g>
		<g>
			<g>
				<polygon points="65.243,121.136 61.615,119.078 57.418,121.136 57.113,122.628 61.668,120.375 65.598,122.829 				"/>
			</g>
		</g>
	</g>
	<g>
		<path d="M60.105,109.249c-0.021-0.189-0.507-4.661,0.298-7.5l0.715,0.203c-0.766,2.697-0.28,7.169-0.275,7.214L60.105,109.249z"/>
	</g>
	<g>
		<g>
			<g>
				<path d="M43.858,169.161c-0.03-0.007-2.989-0.754-3.402-3.991l-0.006-0.047l0.909-1.776c-0.602,0.56-1.344,1.3-1.504,1.652
					l-0.113,0.248l-0.154-0.225c-0.123-0.18-2.998-4.537-1.365-15.109l0.008-0.053l2.764-2.534l-2.624,1.41l0.023-0.281
					c0.01-0.119,1.011-11.998,5.794-16.695l0.086-0.085l0.103,0.064c0.083,0.052,8.275,5.378,6.902,25.125l-0.019,0.267
					l-4.298-2.941l3.883,4.853l0.002,0.05c0.004,0.083,0.048,2.099-3.484,7.397l-0.207,0.31l-0.072-0.365
					c-0.006-0.028-0.497-2.465-1.553-3.805c0.514,1.489,1.326,4.958-1.565,6.518l-0.052,0.028L43.858,169.161z M45.212,161.873
					c1.223,0.935,1.881,3.25,2.096,4.145c2.982-4.544,3.214-6.548,3.232-6.866l-5.104-6.381l5.556,3.802
					c1.191-18.142-5.757-23.836-6.676-24.505c-4.219,4.267-5.404,14.31-5.587,16.127l4.288-2.305l-4.497,4.122
					c-1.399,9.127,0.656,13.629,1.198,14.622c0.523-0.739,1.989-2.018,2.059-2.078l0.599-0.521l-1.608,3.142
					c0.379,2.782,2.703,3.556,3.106,3.67c3.383-1.888,1.129-6.737,1.106-6.786l-0.273-0.574L45.212,161.873z"/>
			</g>
		</g>
		<g>
			<g>
				<circle cx="44.081" cy="131.004" r="1.556"/>
			</g>
		</g>
		<g>
			<g>
				<circle cx="43.692" cy="127.892" r="2.248"/>
			</g>
		</g>
		<g>
			<g>
				<circle cx="42.875" cy="172.845" r="1.37"/>
			</g>
		</g>
		<g>
			<g>
				<circle cx="41.745" cy="175.364" r="1.979"/>
			</g>
		</g>
		<g>
			<g>
				<path d="M43.536,173.022c0.694-2.125,0.519-3.949,0.511-4.025l-0.306,0.031c0.002,0.018,0.175,1.839-0.497,3.899L43.536,173.022
					z"/>
			</g>
		</g>
		<g>
			<g>
				<path d="M40.105,180c0.003,0,0.006,0,0.009,0c0.085-0.005,0.149-0.078,0.144-0.163c-0.083-1.366,0.589-2.7,0.596-2.713
					c0.039-0.076,0.009-0.168-0.067-0.207c-0.075-0.039-0.168-0.008-0.207,0.067c-0.029,0.057-0.717,1.42-0.629,2.871
					C39.956,179.937,40.024,180,40.105,180z"/>
			</g>
		</g>
		<g>
			<g>
				<path d="M44.081,132.56c0.13,0.316,0.229,0.644,0.308,0.976c0.089,0.33,0.156,0.664,0.22,1c0.073,0.333,0.112,0.673,0.165,1.01
					c0.056,0.336,0.091,0.676,0.126,1.016c0.163,1.355,0.226,2.72,0.27,4.084c0.069,2.729-0.009,5.461-0.161,8.188
					c-0.092,1.363-0.17,2.727-0.287,4.088c-0.131,1.36-0.239,2.722-0.387,4.081c-0.152,1.358-0.281,2.719-0.453,4.076l-0.493,4.073
					l0.642-4.053c0.203-1.353,0.357-2.713,0.538-4.069c0.095-0.678,0.163-1.359,0.228-2.04l0.202-2.043
					c0.127-1.363,0.215-2.729,0.315-4.095c0.127-2.735,0.21-5.476,0.09-8.214c-0.073-1.368-0.163-2.737-0.357-4.094
					c-0.047-0.339-0.092-0.679-0.16-1.015c-0.065-0.337-0.115-0.675-0.2-1.008C44.542,133.851,44.362,133.184,44.081,132.56z"/>
			</g>
		</g>
		<g>
			<g>
				<path d="M50.431,160.408l-6.068-4.19l-6.301,2.998c0,0,0.039,0.836,0.319,1.983l5.943-3l5.362,3.994L50.431,160.408z"/>
			</g>
		</g>
		<g>
			<g>
				<polygon points="51.242,154.691 45.063,150.44 37.912,154.547 38.035,152.706 45.179,148.584 51.242,152.702 				"/>
			</g>
		</g>
		<g>
			<g>
				<polygon points="50.167,142.295 45.241,139.5 39.541,142.295 39.128,144.32 45.312,141.261 50.649,144.593 				"/>
			</g>
		</g>
	</g>
	<g>
		<path d="M43.323,126.138c-0.028-0.255-0.687-6.303,0.401-10.133l0.715,0.203c-1.048,3.688-0.385,9.786-0.377,9.847L43.323,126.138
			z"/>
	</g>
	<g>
		<g>
			<path d="M40.789,41.89c0.235,1.382,0.916,2.572,1.829,3.462c0.922,0.928,2.078,1.571,3.327,1.796
				c-0.512,0.233-1.059,0.396-1.638,0.469c-0.403,0.051-0.802,0.057-1.194,0.023c-0.392-0.03-0.773-0.073-1.148-0.168
				c-0.747-0.184-1.458-0.518-2.1-0.972c-1.283-0.927-2.285-2.254-2.649-3.93c-0.361-1.664,0.013-3.367,1.003-4.665
				c0.492-0.657,1.13-1.231,1.881-1.683c0.376-0.222,0.777-0.429,1.206-0.571c0.429-0.138,0.881-0.24,1.349-0.3
				c0.676-0.085,1.337-0.076,1.97,0.013c-1.356,0.555-2.453,1.483-3.132,2.615C40.817,39.15,40.555,40.51,40.789,41.89z"/>
		</g>
	</g>
	<g>
		<rect x="28.637" y="3.1" transform="matrix(0.9241 0.3821 -0.3821 0.9241 16.0075 -8.2694)" width="0.372" height="66.133"/>
	</g>
	<g>
		<rect x="21.065" y="35.981" transform="matrix(0.3827 0.9239 -0.9239 0.3827 66.8299 -27.6844)" width="66.134" height="0.372"/>
	</g>
	<g>
		<rect x="53.945" y="13.93" transform="matrix(0.9241 0.3821 -0.3821 0.9241 22.0666 -17.1183)" width="0.372" height="66.134"/>
	</g>
	<g>
		<rect x="-4.243" y="46.811" transform="matrix(0.3827 0.9239 -0.9239 0.3827 61.2132 2.3831)" width="66.133" height="0.372"/>
	</g>
	<g>
		<rect x="6.654" y="33.492" width="69.718" height="0.372"/>
	</g>
	<g>
		<rect x="6.654" y="48.632" width="69.718" height="0.372"/>
	</g>
	<g>
		<rect x="46.085" y="15.861" transform="matrix(0.4813 0.8765 -0.8765 0.4813 68 -14.522)" width="0.371" height="68.672"/>
	</g>
	<g>
		<rect x="2.415" y="50.012" transform="matrix(0.8764 0.4815 -0.4815 0.8764 28.7099 -11.4789)" width="68.61" height="0.371"/>
	</g>
	<g>
		<rect x="36.534" y="-1.513" transform="matrix(0.4736 0.8807 -0.8807 0.4736 48.0684 -15.1633)" width="0.371" height="68.291"/>
	</g>
	<g>
		<rect x="12.094" y="32.447" transform="matrix(0.8808 0.4736 -0.4736 0.8808 20.9715 -18.0213)" width="68.353" height="0.371"/>
	</g>
	<g>
		<g>
			<circle cx="49.787" cy="57.456" r="1.655"/>
		</g>
	</g>
	<g>
		<g>
			<circle cx="59.394" cy="48.818" r="1.655"/>
		</g>
	</g>
	<g>
		<g>
			<circle cx="59.704" cy="33.678" r="1.655"/>
		</g>
	</g>
	<g>
		<g>
			<circle cx="49.787" cy="25.412" r="1.655"/>
		</g>
	</g>
	<g>
		<g>
			<circle cx="33.13" cy="25.412" r="1.655"/>
		</g>
	</g>
	<g>
		<g>
			<circle cx="23.294" cy="33.678" r="1.655"/>
		</g>
	</g>
	<g>
		<g>
			<circle cx="23.294" cy="48.818" r="1.655"/>
		</g>
	</g>
	<g>
		<g>
			<circle cx="33.263" cy="57.456" r="1.655"/>
		</g>
	</g>
</g>
</svg>
