<?xml version="1.0" encoding="utf-8"?>
<!-- Generator: Adobe Illustrator 17.0.0, SVG Export Plug-In . SVG Version: 6.00 Build 0)  -->
<!DOCTYPE svg PUBLIC "-//W3C//DTD SVG 1.1//EN" "http://www.w3.org/Graphics/SVG/1.1/DTD/svg11.dtd">
<svg version="1.1" id="Layer_1" xmlns="http://www.w3.org/2000/svg" xmlns:xlink="http://www.w3.org/1999/xlink" x="0px" y="0px"
	 width="82.955px" height="180px" viewBox="0 0 82.955 180" enable-background="new 0 0 82.955 180" xml:space="preserve">
<g>
	<path d="M75.004,55.266l-0.012-0.037c1.747-4.243,2.718-8.885,2.718-13.751c0-14.485-8.547-27.006-20.86-32.799l-0.016-0.033
		l-0.036,0.01c-4.656-2.182-9.846-3.409-15.319-3.409c-19.978,0-36.232,16.253-36.232,36.231c0,14.465,8.523,26.971,20.808,32.776
		l0.011,0.025l0.028-0.008c4.673,2.201,9.887,3.439,15.386,3.439c15.091,0,28.052-9.277,33.492-22.426L75.004,55.266z
		 M46.404,38.257c-0.664-1.012-1.63-1.805-2.77-2.256c0.035-0.127,0.074-0.272,0.116-0.434c1.208-2.411,5.701-10.493,12.264-11.928
		c0.72-0.157,1.457-0.255,2.198-0.321c-0.262,2.195-0.817,4.519-1.815,6.876c-0.023,0.053-1.876,4.102-5.715,7.24
		C49.301,37.529,47.859,37.778,46.404,38.257z M49.519,38.308c-0.747,0.516-1.553,0.988-2.426,1.39
		c-0.086-0.27-0.195-0.529-0.317-0.781C47.696,38.624,48.615,38.429,49.519,38.308z M45.345,42.441l0.32,0.763L45,43.439
		L45.345,42.441z M44.961,39.608l0.487,0.265l-0.17,0.49L44.961,39.608z M44.501,38.512l-0.677-1.611
		c0.826,0.425,1.521,1.067,2.013,1.851l-0.142,0.41L44.501,38.512z M41.342,44.726l-2.178-0.882l-1.231-2.196l1.314-2.743
		l2.267-1.173l2.403,1.307l0.997,2.375l-0.81,2.339L41.342,44.726z M43.995,46.854c-0.008-0.015-0.018-0.032-0.026-0.046
		c0.005-0.002,0.009-0.004,0.014-0.007C43.987,46.819,43.991,46.837,43.995,46.854z M42.382,45.148l1.411-0.497l-0.325,0.937
		L42.382,45.148z M43.226,46.291l-0.009,0.026c-0.544,0.196-1.128,0.309-1.739,0.309c-0.27,0-0.533-0.027-0.791-0.067l-0.381-0.68
		l1.018-0.359L43.226,46.291z M37.489,40.856l-0.452-0.807l1.115-0.577L37.489,40.856z M37.541,42.467l0.522,0.93l-0.81-0.328
		L37.541,42.467z M36.803,39.333c0.534-1.159,1.482-2.089,2.657-2.592l-0.775,1.618L36.803,39.333z M37.096,41.675l-0.534,1.115
		l-0.063-0.026c-0.107-0.412-0.169-0.842-0.169-1.287c0-0.341,0.035-0.673,0.099-0.995L37.096,41.675z M36.93,43.741l1.713,0.694
		l0.581,1.037l-0.673,0.237c-0.697-0.484-1.267-1.135-1.656-1.895L36.93,43.741z M38.527,46.569
		c0.466,0.271,0.972,0.478,1.508,0.614c-0.614,1.401-1.409,2.638-2.278,3.724C37.825,49.505,38.049,48.038,38.527,46.569z
		 M39.416,46.192l0.178-0.062l0.095,0.169C39.597,46.265,39.505,46.231,39.416,46.192z M39.936,45.221l-0.191-0.34l0.537,0.218
		L39.936,45.221z M41.523,36.892l-0.894-0.487c0.277-0.046,0.559-0.076,0.849-0.076c0.327,0,0.645,0.034,0.955,0.092L41.523,36.892z
		 M43.037,36.945l0.419,0.999l-1.145-0.623L43.037,36.945z M40.726,37.304l-0.946,0.489l0.382-0.796L40.726,37.304z M46.11,40.233
		l0.413,0.225c0.066,0.33,0.102,0.67,0.102,1.019c0,0.535-0.082,1.051-0.234,1.536L45.71,41.39L46.11,40.233z M43.041,35.313
		c-0.089,0.181-0.158,0.328-0.208,0.437c-0.436-0.103-0.888-0.164-1.355-0.164c-0.468,0-0.922,0.061-1.359,0.165
		c-0.206-0.388-0.423-0.764-0.652-1.124c-0.615-3.252-1.61-11.223,2.122-16.069c0.01,0.014,0.022,0.026,0.032,0.04
		C45.444,23.793,43.786,32.332,43.041,35.313z M39.026,36.127c-1.329,0.611-2.395,1.699-2.971,3.047
		c-0.365-0.081-0.951-0.201-1.697-0.322c-5.255-3.387-7.912-9.071-7.932-9.112c-0.434-1.174-0.76-2.335-1.001-3.471
		c1.344,0.243,2.721,0.6,4.116,1.107c0.063,0.024,5.812,2.302,9.212,7.518C38.872,35.492,38.973,35.916,39.026,36.127z
		 M36.039,43.738c-0.039,0.011-0.08,0.023-0.128,0.037c0.041-0.021,0.082-0.042,0.119-0.061
		C36.033,43.722,36.035,43.73,36.039,43.738z M35.68,40.461c-0.058,0.331-0.094,0.669-0.094,1.016c0,0.526,0.076,1.034,0.206,1.52
		c-0.513,0.254-1.419,0.726-2.522,1.4c-3.821,0.744-10.449,1.391-14.789-1.769c-0.071-0.052-0.138-0.112-0.208-0.165
		c0.11-0.097,0.214-0.201,0.326-0.295c4.456-3.703,11.862-3.152,15.513-2.591C34.614,39.893,35.132,40.192,35.68,40.461z
		 M33.557,45.115c1.443-0.293,2.469-0.593,2.82-0.701c0.387,0.669,0.9,1.254,1.509,1.724c-0.664,1.954-0.903,3.892-0.909,5.686
		c-2.94,3.24-6.313,4.835-6.356,4.856c-2.333,1.023-4.644,1.612-6.833,1.911c0.056-0.803,0.151-1.601,0.311-2.379
		C25.148,51.099,30.22,47.189,33.557,45.115z M40.782,47.324c0.229,0.027,0.46,0.045,0.696,0.045c0.626,0,1.228-0.1,1.795-0.282
		c0.184,0.337,0.565,1.009,1.123,1.872c0.704,5.867-1.818,11.015-1.845,11.069c-0.522,0.996-1.097,1.921-1.705,2.787
		c-0.555-0.877-1.074-1.81-1.54-2.809c-0.022-0.048-1.513-3.496-1.571-7.895C38.899,50.781,39.987,49.193,40.782,47.324z
		 M44.16,45.863l0.529-1.528l1.265-0.445l0.03,0.071C45.551,44.743,44.92,45.397,44.16,45.863z M46.62,44.344
		c0.291,0.074,0.583,0.149,0.872,0.206c2.935,1.807,9.468,6.452,10.419,12.49c0.07,0.446,0.121,0.897,0.156,1.351
		c-0.295-0.029-0.591-0.053-0.883-0.097c-5.575-0.849-9.992-6.463-12.073-9.623c-0.099-0.737-0.25-1.485-0.458-2.238
		C45.467,45.909,46.145,45.192,46.62,44.344z M47.037,43.409c0.211-0.606,0.332-1.255,0.332-1.932c0-0.358-0.037-0.706-0.099-1.046
		c1.389-0.623,2.616-1.405,3.696-2.26c4.945-0.262,9.034,1.478,9.082,1.499c0.739,0.34,1.439,0.71,2.11,1.099
		c-0.659,0.444-1.351,0.87-2.085,1.267c-0.062,0.033-5.915,2.995-12.296,1.807C47.493,43.672,47.242,43.526,47.037,43.409z
		 M60.353,38.993c-0.209-0.092-3.835-1.638-8.454-1.606c3.442-3.09,5.085-6.684,5.179-6.897c1.05-2.48,1.624-4.924,1.885-7.228
		c6.217-0.324,12.635,2.077,14.077,2.656c-0.475,1.611-3.035,9.204-10.214,14.387C62.046,39.836,61.225,39.394,60.353,38.993z
		 M72.931,25.072c-2.008-0.784-7.956-2.862-13.891-2.569c0.512-6.004-1.05-10.93-1.753-12.784
		C63.977,13.062,69.466,18.455,72.931,25.072z M58.292,22.553c-0.819,0.069-1.634,0.184-2.436,0.359
		c-5.491,1.2-9.488,6.593-11.545,10.06c0.708-3.997,1.138-10.424-2.093-14.816c-0.046-0.062-0.095-0.122-0.141-0.184
		c4.572-5.29,12.663-7.938,14.34-8.44C56.939,10.797,58.88,16.034,58.292,22.553z M41.478,5.989c5.056,0,9.864,1.07,14.222,2.984
		c-2.457,0.773-9.693,3.378-14.098,8.398c-4.245-5.13-11.272-7.928-13.555-8.735C32.193,6.935,36.726,5.989,41.478,5.989z
		 M41.11,17.959c-3.557,4.457-3.227,11.303-2.647,15.243c-3.516-4.489-8.408-6.425-8.661-6.522c-1.537-0.56-3.053-0.941-4.528-1.191
		c-1.455-8.117,1.442-14.86,2.122-16.29C29.011,9.751,36.747,12.611,41.11,17.959z M26.533,9.3c-0.927,2.096-3.31,8.47-2.029,16.067
		c-7.417-1.033-13.64,1.29-15.659,2.17C12.292,19.5,18.625,12.988,26.533,9.3z M24.646,26.14c0.254,1.269,0.608,2.567,1.095,3.884
		c0.112,0.246,2.385,5.116,6.989,8.603c-4.036-0.464-10.433-0.495-14.604,2.972c-0.153,0.127-0.302,0.259-0.451,0.392
		c-5.275-4.358-8.292-11.987-8.889-13.61C10.219,27.714,16.771,24.965,24.646,26.14z M5.989,41.477
		c0-4.371,0.799-8.558,2.251-12.428c0.866,2.281,3.806,9.225,8.881,13.454c-4.693,4.542-7.114,11.567-7.824,13.911
		C7.179,51.871,5.989,46.812,5.989,41.477z M17.709,42.973c0.112,0.085,0.222,0.173,0.335,0.256
		c2.685,1.955,6.118,2.547,9.294,2.547c1.54,0,3.016-0.14,4.321-0.331c-3.298,2.275-7.325,5.921-8.289,10.616
		c-0.177,0.861-0.285,1.739-0.342,2.622c-6.543,0.707-11.858-1.117-13.148-1.613C10.36,55.419,12.806,47.68,17.709,42.973z
		 M10.042,57.919c1.531,0.544,5.263,1.667,9.981,1.667c0.952,0,1.948-0.053,2.969-0.159c-0.187,5.857,1.838,11.726,2.635,13.789
		C18.969,69.877,13.502,64.506,10.042,57.919z M23.75,59.341c2.295-0.301,4.722-0.91,7.175-1.985c0.191-0.088,3.221-1.52,6.075-4.45
		c0.2,4.109,1.541,7.211,1.629,7.407c0.525,1.126,1.116,2.171,1.749,3.146c-5.087,6.778-12.302,9.409-13.885,9.92
		C25.911,71.922,23.536,65.537,23.75,59.341z M41.478,76.966c-5.094,0-9.936-1.087-14.318-3.028
		c2.241-0.788,8.826-3.527,13.654-9.823c4.584,6.623,11.159,9.669,13.291,10.522C50.178,76.137,45.924,76.966,41.478,76.966z
		 M41.28,63.482c0.692-0.96,1.344-1.994,1.931-3.115c0.115-0.229,2.301-4.682,2.043-10.139c2.353,3.319,6.532,7.996,11.818,8.801
		c0.34,0.052,0.684,0.082,1.026,0.114c0.246,6.521-2.691,13.43-3.375,14.94C53.163,73.496,46.046,70.521,41.28,63.482z
		 M55.555,74.047c0.914-2.058,3.527-8.534,3.303-14.849c0.358,0.019,0.716,0.037,1.075,0.037c5.987,0,11.925-2.483,14.011-3.45
		C70.334,63.943,63.743,70.495,55.555,74.047z M58.818,58.452c-0.037-0.512-0.094-1.022-0.174-1.527
		c-0.875-5.56-6.038-9.873-9.377-12.129c0.572,0.052,1.138,0.086,1.689,0.086c5.155,0,9.24-2.073,9.462-2.189
		c0.865-0.467,1.673-0.974,2.437-1.504c7.538,4.703,10.642,12.122,11.234,13.702C72.58,55.616,65.468,58.815,58.818,58.452z
		 M63.507,40.724c6.729-4.985,9.418-12.005,10.131-14.228c2.131,4.555,3.328,9.63,3.328,14.982c0,4.474-0.84,8.753-2.358,12.699
		C73.682,51.899,70.484,45.194,63.507,40.724z"/>
	<path d="M62.029,102.223v-24.74c12.488-7.156,20.926-20.61,20.926-36.005C82.955,18.607,64.348,0,41.478,0
		C18.607,0,0,18.607,0,41.477c0,15.396,8.438,28.849,20.926,36.005v24.74h0.977c0.572,2.333,0.319,5.746,0.233,6.689
		c-0.748,0.159-1.311,0.822-1.311,1.618c0,0.562,0.282,1.057,0.71,1.356c-0.294,0.207-0.487,0.548-0.487,0.935
		c0,0.375,0.183,0.705,0.461,0.914c-1.405,1.261-5.46,5.999-4.616,18.129l0.014,0.197l3.165-2.166l-2.859,3.574l-0.002,0.037
		c-0.003,0.061-0.035,1.546,2.565,5.447l0.152,0.228l0.053-0.269c0.004-0.021,0.366-1.815,1.144-2.802
		c-0.375,1.084-0.959,3.593,1.088,4.759c-0.017,0.232-0.046,1.045,0.167,2.066c-0.318,0.321-0.406,0.817-0.16,1.221
		c0.131,0.216,0.335,0.355,0.558,0.426c-0.369,0.464-0.435,1.125-0.109,1.661c0.398,0.655,1.228,0.878,1.901,0.537
		c0,0.001,0,0.002,0,0.003c0.005,0.01,0.5,0.992,0.439,1.998c-0.004,0.062,0.044,0.116,0.106,0.12c0.002,0,0.005,0,0.007,0
		c0.059,0,0.109-0.046,0.113-0.106c0.065-1.069-0.442-2.072-0.463-2.114c-0.003-0.006-0.011-0.007-0.015-0.013
		c0.615-0.439,0.802-1.281,0.403-1.937c-0.26-0.428-0.706-0.674-1.172-0.698c0.128-0.291,0.134-0.631-0.044-0.924
		c-0.286-0.47-0.894-0.62-1.367-0.345c-0.173-0.911-0.152-1.642-0.138-1.868c0.391-0.122,2.153-0.787,2.424-2.915l0.004-0.035
		l-0.669-1.308c0.443,0.412,0.99,0.958,1.107,1.216l0.083,0.183l0.113-0.166c0.091-0.133,2.208-3.341,1.005-11.126l-0.006-0.039
		l-2.036-1.866l1.932,1.038l-0.017-0.207c-0.007-0.084-0.679-8.039-3.797-11.777c0.44-0.16,0.756-0.578,0.756-1.073
		c0-0.286-0.109-0.545-0.282-0.746c0.628-0.235,1.078-0.836,1.078-1.546c0-0.775-0.535-1.421-1.254-1.601
		c0.094-1.023,0.33-4.288-0.212-6.707h1.027v-23.28c5.393,2.57,11.421,4.013,17.782,4.013c0.197,0,0.392-0.012,0.589-0.015v33.537
		h1.54c-0.778,3.264-0.458,7.78-0.328,9.208c-1.043,0.195-1.834,1.106-1.834,2.206c0,0.965,0.611,1.781,1.464,2.099
		c-0.236,0.273-0.384,0.624-0.384,1.013c0,0.672,0.429,1.24,1.026,1.457c-4.233,5.076-5.147,15.879-5.156,15.993l-0.023,0.281
		l2.624-1.41l-2.764,2.534l-0.008,0.053c-1.633,10.571,1.242,14.928,1.365,15.109l0.154,0.225l0.113-0.248
		c0.16-0.351,0.902-1.091,1.504-1.652l-0.909,1.776l0.006,0.047c0.368,2.89,2.761,3.793,3.292,3.959
		c0.019,0.308,0.052,1.299-0.183,2.535c-0.644-0.376-1.472-0.17-1.861,0.469c-0.24,0.396-0.255,0.864-0.083,1.258
		c-0.623,0.04-1.218,0.37-1.567,0.945c-0.542,0.891-0.289,2.034,0.547,2.631c-0.006,0.007-0.016,0.009-0.021,0.018
		c-0.029,0.057-0.717,1.42-0.629,2.871c0.005,0.082,0.073,0.144,0.153,0.144c0.003,0,0.006,0,0.009,0
		c0.085-0.005,0.149-0.078,0.144-0.163c-0.083-1.366,0.589-2.7,0.596-2.713c0.001-0.001,0-0.003,0-0.004
		c0.913,0.463,2.041,0.161,2.581-0.729c0.441-0.726,0.355-1.619-0.142-2.249c0.302-0.097,0.574-0.294,0.752-0.586
		c0.337-0.554,0.231-1.25-0.212-1.685c0.283-1.374,0.243-2.466,0.221-2.779c2.779-1.584,1.987-4.991,1.478-6.463
		c1.056,1.34,1.548,3.776,1.553,3.805l0.072,0.365l0.206-0.31c3.532-5.297,3.487-7.313,3.484-7.397l-0.002-0.05l-3.883-4.853
		l4.298,2.941l0.019-0.267c1.146-16.472-4.361-22.905-6.269-24.618c0.378-0.284,0.626-0.732,0.626-1.241
		c0-0.526-0.263-0.989-0.662-1.27c0.582-0.406,0.964-1.078,0.964-1.842c0-1.127-0.833-2.052-1.915-2.214
		c-0.122-1.338-0.461-6.031,0.347-9.2h1.455V82.726c4.762-0.499,9.285-1.807,13.432-3.784v23.28h1.027
		c-0.542,2.419-0.306,5.684-0.212,6.707c-0.719,0.18-1.254,0.826-1.254,1.601c0,0.71,0.45,1.311,1.078,1.546
		c-0.174,0.201-0.282,0.459-0.282,0.746c0,0.495,0.316,0.913,0.756,1.073c-3.117,3.738-3.79,11.693-3.797,11.777l-0.017,0.207
		l1.932-1.038l-2.036,1.866l-0.006,0.039c-1.203,7.785,0.914,10.993,1.005,11.126l0.113,0.166l0.083-0.183
		c0.118-0.259,0.664-0.804,1.107-1.216l-0.669,1.308l0.004,0.035c0.271,2.128,2.033,2.793,2.424,2.915
		c0.014,0.225,0.035,0.957-0.138,1.868c-0.474-0.275-1.082-0.125-1.367,0.345c-0.178,0.293-0.172,0.633-0.044,0.924
		c-0.465,0.024-0.911,0.27-1.172,0.698c-0.399,0.656-0.213,1.498,0.403,1.937c-0.004,0.005-0.012,0.007-0.015,0.013
		c-0.022,0.042-0.528,1.046-0.463,2.114c0.004,0.06,0.054,0.106,0.113,0.106c0.002,0,0.005,0,0.007,0
		c0.062-0.004,0.11-0.057,0.106-0.12c-0.061-1.006,0.434-1.988,0.439-1.998c0-0.001,0-0.002,0-0.003
		c0.672,0.341,1.503,0.118,1.901-0.537c0.326-0.537,0.26-1.197-0.109-1.661c0.223-0.071,0.427-0.21,0.558-0.426
		c0.246-0.404,0.158-0.9-0.16-1.221c0.213-1.021,0.183-1.834,0.167-2.066c2.047-1.167,1.463-3.675,1.088-4.759
		c0.778,0.987,1.14,2.781,1.144,2.802l0.053,0.269l0.152-0.228c2.601-3.901,2.568-5.386,2.565-5.447l-0.002-0.037l-2.859-3.574
		l3.165,2.166l0.014-0.197c0.844-12.13-3.212-16.868-4.616-18.129c0.278-0.209,0.461-0.539,0.461-0.914
		c0-0.387-0.193-0.728-0.487-0.935c0.428-0.299,0.71-0.794,0.71-1.356c0-0.796-0.562-1.46-1.311-1.618
		c-0.086-0.944-0.339-4.356,0.233-6.689H62.029z M17.501,122.739l3.704-2.313c-0.057,1.805-0.008,3.611,0.075,5.414l-4.271,2.901
		C17.004,126.428,17.193,124.44,17.501,122.739z M17.438,133.55l3.759-4.699l-4.092,2.8c-0.033-0.502-0.055-0.987-0.071-1.463
		l4.34-2.986c0.043,0.593,0.088,1.186,0.143,1.778l0.149,1.504c0.033,0.349,0.076,0.698,0.117,1.046l-4.155,2.87
		C17.472,133.912,17.443,133.64,17.438,133.55z M25.407,137.588c-0.385-0.544-1.465-1.486-1.516-1.53l-0.441-0.384l1.184,2.314
		c-0.279,2.048-1.99,2.618-2.288,2.702c-2.491-1.39-0.831-4.962-0.814-4.998l0.201-0.423l-0.372,0.284
		c-0.9,0.689-1.385,2.393-1.543,3.052c-0.782-1.192-1.304-2.142-1.657-2.888l3.789-2.822c0.088,0.696,0.176,1.393,0.28,2.087
		l0.473,2.985l-0.363-2.999c-0.088-0.69-0.161-1.382-0.234-2.074l4.173,2.107C25.982,136.422,25.585,137.263,25.407,137.588z
		 M26.51,133.542l-4.524-2.152l-0.034,0.023c-0.081-0.817-0.152-1.634-0.231-2.451c-0.051-0.585-0.091-1.171-0.129-1.757
		l5.024,2.885C26.674,131.428,26.622,132.573,26.51,133.542z M26.135,125.482l-3.158-1.697l3.312,3.036
		c0.103,0.674,0.175,1.305,0.231,1.911l-5.015-2.894c-0.099-1.802-0.144-3.607-0.114-5.411l4.317,2.135
		C25.965,123.943,26.091,125.042,26.135,125.482z M25.4,121.069l-3.973-1.948c0.032-0.737,0.076-1.474,0.164-2.207
		c0.026-0.25,0.051-0.5,0.093-0.748c0.04-0.248,0.068-0.498,0.122-0.744c0.047-0.247,0.096-0.493,0.162-0.736
		c0.059-0.244,0.132-0.486,0.227-0.719c-0.207,0.46-0.339,0.951-0.447,1.443c-0.063,0.245-0.099,0.495-0.147,0.742
		c-0.05,0.248-0.084,0.498-0.118,0.748c-0.105,0.736-0.163,1.477-0.211,2.218l-3.405,1.931c1.121-4.412,3.031-6.48,3.845-7.192
		c0.147,0.069,0.31,0.11,0.484,0.11c0.046,0,0.089-0.008,0.133-0.013C23.879,115.752,24.835,118.614,25.4,121.069z M22.953,101.48
		h-1.284V77.947l1.284,0.66V101.48z M38.52,150.013l4.497-4.122l-4.288,2.305c0.06-0.597,0.23-2.086,0.578-3.964l5.872-2.905
		c0.041,2.451-0.028,4.902-0.162,7.351l-6.811,3.93C38.282,151.784,38.379,150.928,38.52,150.013z M38.077,154.453l6.822-3.918
		c-0.052,0.796-0.107,1.591-0.176,2.386c-0.107,1.109-0.203,2.219-0.313,3.328l-0.046-0.032l-6.143,2.923
		C38.069,157.825,37.998,156.27,38.077,154.453z M47.308,166.018c-0.215-0.894-0.873-3.21-2.096-4.145l-0.505-0.386l0.273,0.574
		c0.023,0.049,2.277,4.898-1.106,6.786c-0.404-0.114-2.728-0.888-3.106-3.67l1.608-3.142l-0.599,0.521
		c-0.069,0.06-1.536,1.339-2.059,2.078c-0.241-0.442-0.781-1.583-1.184-3.512l5.666-2.861c-0.1,0.939-0.199,1.879-0.318,2.816
		l-0.493,4.073l0.642-4.053c0.141-0.942,0.26-1.888,0.38-2.833l5.146,3.832C49.079,163.109,48.37,164.399,47.308,166.018z
		 M50.992,156.573l-5.556-3.802l5.104,6.381c-0.007,0.122-0.046,0.492-0.257,1.153l-5.643-3.897c0.056-0.473,0.114-0.946,0.159-1.42
		l0.202-2.043c0.075-0.804,0.136-1.609,0.194-2.414l5.893,4.055C51.066,155.233,51.036,155.891,50.992,156.573z M51.123,152.621
		l-5.8-3.939c0.112-2.448,0.179-4.9,0.101-7.351l5.029,3.14C50.873,146.78,51.128,149.48,51.123,152.621z M43.883,132.54
		c0.066,0.008,0.131,0.02,0.199,0.02c0.236,0,0.457-0.056,0.657-0.15c1.104,0.967,3.699,3.776,5.221,9.766l-4.623-2.622
		c-0.065-1.007-0.144-2.013-0.287-3.012c-0.047-0.339-0.092-0.679-0.16-1.015c-0.065-0.336-0.115-0.675-0.2-1.008
		c-0.147-0.668-0.327-1.335-0.607-1.959c0.13,0.316,0.229,0.644,0.308,0.976c0.089,0.33,0.156,0.664,0.22,1
		c0.073,0.333,0.112,0.673,0.165,1.01c0.056,0.336,0.091,0.676,0.126,1.016c0.119,0.995,0.178,1.996,0.222,2.997l-5.395,2.645
		C40.493,138.875,41.781,134.982,43.883,132.54z M45.084,115.735H42.81v-32.78h2.275V115.735z M41.478,82.212
		c-22.461,0-40.735-18.274-40.735-40.735c0-22.461,18.274-40.734,40.735-40.734s40.734,18.274,40.734,40.734
		C82.212,63.939,63.939,82.212,41.478,82.212z M56.666,126.82l3.312-3.036l-3.158,1.697c0.044-0.44,0.171-1.538,0.427-2.92
		l4.317-2.135c0.03,1.804-0.016,3.609-0.114,5.411l-5.015,2.894C56.491,128.125,56.562,127.494,56.666,126.82z M56.339,130.09
		l5.024-2.885c-0.038,0.586-0.079,1.172-0.129,1.757c-0.079,0.817-0.149,1.634-0.231,2.451l-0.034-0.023l-4.524,2.152
		C56.334,132.573,56.281,131.428,56.339,130.09z M63.137,138.606c-0.159-0.659-0.643-2.364-1.543-3.052l-0.372-0.284l0.201,0.423
		c0.017,0.036,1.677,3.607-0.814,4.998c-0.297-0.084-2.009-0.654-2.288-2.702l1.184-2.314l-0.441,0.384
		c-0.051,0.044-1.131,0.986-1.516,1.53c-0.178-0.325-0.575-1.166-0.872-2.587l4.173-2.107c-0.073,0.692-0.146,1.384-0.234,2.074
		l-0.363,2.999l0.473-2.985c0.104-0.694,0.192-1.39,0.28-2.087l3.789,2.822C64.442,136.464,63.92,137.415,63.137,138.606z
		 M65.85,131.651l-4.092-2.8l3.759,4.699c-0.005,0.09-0.034,0.362-0.189,0.849l-4.155-2.87c0.042-0.348,0.084-0.697,0.117-1.046
		l0.149-1.504c0.055-0.592,0.1-1.185,0.143-1.778l4.34,2.986C65.905,130.664,65.883,131.149,65.85,131.651z M65.947,128.741
		l-4.271-2.901c0.082-1.803,0.132-3.609,0.075-5.414l3.704,2.313C65.762,124.44,65.951,126.428,65.947,128.741z M60.761,113.968
		c0.174,0,0.336-0.041,0.484-0.11c0.813,0.712,2.724,2.781,3.845,7.192l-3.405-1.931c-0.048-0.741-0.106-1.482-0.211-2.218
		c-0.034-0.25-0.068-0.5-0.118-0.748c-0.048-0.248-0.085-0.497-0.147-0.742C61.101,114.918,60.968,114.427,60.761,113.968
		c0.095,0.233,0.169,0.474,0.227,0.719c0.065,0.243,0.115,0.489,0.162,0.736c0.054,0.245,0.082,0.496,0.122,0.744
		c0.041,0.248,0.067,0.498,0.093,0.748c0.088,0.733,0.131,1.47,0.164,2.207l-3.973,1.948c0.565-2.455,1.52-5.317,3.073-7.115
		C60.673,113.959,60.716,113.968,60.761,113.968z M60.002,101.48V78.606l1.284-0.66v23.533H60.002z"/>
</g>
</svg>
