<?xml version="1.0" encoding="utf-8"?>
<!-- Generator: Adobe Illustrator 17.0.0, SVG Export Plug-In . SVG Version: 6.00 Build 0)  -->
<!DOCTYPE svg PUBLIC "-//W3C//DTD SVG 1.1//EN" "http://www.w3.org/Graphics/SVG/1.1/DTD/svg11.dtd">
<svg version="1.1" id="Layer_1" xmlns="http://www.w3.org/2000/svg" xmlns:xlink="http://www.w3.org/1999/xlink" x="0px" y="0px"
	 width="141.51px" height="180px" viewBox="0 0 141.51 180" enable-background="new 0 0 141.51 180" xml:space="preserve">
<g>
	<path d="M109.615,77.863h31.895v-3.925H0v3.925h28.147c1.012,2.777,2.3,5.492,3.865,8.144c1.001,1.695,1.409,3.277,1.38,5.156
		c-0.047,2.985,0.168,5.965,1.703,8.63c2.473,4.299,2.444,8.911,1.821,13.607c-0.084,0.628-0.197,1.377-0.901,1.645
		c-0.865,0.328-0.975,0.93-0.991,1.747c-0.029,1.608-0.888,2.491-2.405,2.662c-4.541,0.51-7.427,5.277-7.319,8.533
		c1.043-2.202,2.05-4.178,4.738-4.938c-2.441,2.504-4.562,4.859-4.933,8.409c1.466-1.012,2.809-1.939,4.152-2.867
		c0.192-0.263,0.463-0.652,0.744-0.355c0.229,0.239-0.231,0.413-0.439,0.576c-0.786,0.817-1.545,1.658-2.357,2.447
		c-2.938,2.849-6.036,5.555-8.123,9.156c-0.481,0.828-1.529,1.821,0.917,2.213c-3.913,0.82-4.234,4.076-5.942,6.407
		c0.699,0.126,1.125,0.215,1.553,0.281c4.801,0.715,8.152-0.759,10.451-4.693c0.696-1.19,1.217-2.483,1.819-3.732
		c0.15-0.381,0.302-0.762,0.481-1.214c0.399,0.618-0.126,0.999-0.181,1.456c-0.465,1.448-0.928,2.896-1.459,4.554
		c3.198-2.029,4.922-4.715,5.513-8.194v2.255c3.048-4.525,4.418-9.329,2.846-14.706c0.891,1.38,0.925,2.933,1.222,4.594
		c1.9-3.585,2.247-6.89-0.428-9.999c-0.825-0.959-0.352-1.561,0.52-1.874c1.03-0.371,1.24-1.122,1.317-2.023
		c0.068-0.783,0.105-1.572,0.158-2.357c0.373-5.411,0.252-10.696-2.641-15.607c-1.43-2.423-1.028-5.251-0.991-8.215
		c1.582,1.679,2.97,3.122,4.326,4.594c2.481,2.691,5.335,4.917,8.525,6.683c0.725,0.402,0.983,0.757,0.933,1.577
		c-0.271,4.407,0.2,8.685,2.021,12.79c1.075,2.423,1.656,5.019,2.197,7.629c0.434,2.081-0.124,3.498-1.805,4.749
		c-2.218,1.65-3.863,3.795-4.428,6.572c-0.208,1.028-0.483,2.108-0.092,3.196c0.71-1.847,1.345-3.677,2.165-5.435
		c0.97-2.071,2.56-3.816,3.997-4.299c-4.746,8.168-8.772,16.414-6.662,26.558c0.536-1.353,0.938-2.37,1.343-3.39
		c0.152-0.003,0.302-0.005,0.455-0.011c-1.753,4.909-0.557,9.242,2.239,13.571c0.268-3.566,0.512-6.833,0.759-10.099
		c0.268,0.699,0.265,1.388,0.268,2.073c0.018,2.452,0.003,4.904,0.384,7.335c0.849,5.421,3.971,9.224,8.588,12.088
		c0.129-0.597-0.423-1.098,0.137-1.664c1.296,1.997,2.573,3.96,3.847,5.923c0.368-4.247,0.434-8.354-2.018-12.028
		c-0.904-1.353-1.501-2.862-1.574-4.515c-0.116-2.667-0.197-5.337-0.284-8.005c-0.063-1.939-0.481-3.779-1.288-5.561
		c-1.737-3.842-3.958-7.448-5.49-11.387c-0.016-0.226-0.323-0.51-0.037-0.652c0.213-0.105,0.244,0.258,0.342,0.426
		c1.666,3.109,3.02,6.396,5.245,9.219c0.053-2.767-0.084-5.492-0.473-8.196c-0.392-2.707-1.345-5.264-2.544-8.018
		c4.699,2.617,7.043,6.228,6.515,11.634c2.386-2.589,1.703-7.768-0.62-9.941c-1.913-1.792-3.703-3.721-6.063-4.977
		c-0.378-0.2-0.707-0.444-0.686-1.101c0.068-2.1,0.066-4.197,0.371-6.283c0.121-0.841,0.381-1.682,0.142-2.633
		c-2.058,0.849-1.629,2.712-1.918,4.312c-0.591-3.669-2.278-6.946-3.253-10.443c-0.799-2.88-1.185-5.821-0.983-8.814
		c0.037-0.52-0.034-1.248,0.946-0.757c5.511,2.778,11.4,4.068,17.534,4.328c0.788,0.032,0.957,0.363,0.883,1.059
		c-0.155,1.48-0.216,2.97-0.407,4.441c-0.47,3.613-1.293,7.164,0.323,10.801c0.486,1.093,0.242,2.271,1.435,3.374
		c1.014,0.941,1.051,2.97-0.079,4.465c-0.552,0.731-1.017,1.524-1.561,2.263c-0.922,1.251-1.414,2.659-1.727,4.239
		c0.823-0.279,1.138-1.217,2.158-1.177c-0.781,1.046-1.55,1.932-2.147,2.922c-0.594,0.988-0.978,2.089-0.717,3.535
		c0.625-0.725,1.12-1.298,1.614-1.874c0.055-0.1,0.108-0.2,0.16-0.302c0.131-0.152,0.263-0.305,0.394-0.46
		c0.068-0.105,0.137-0.21,0.208-0.315c0.116-0.26,0.2-0.552,0.552-0.623c0.192,0.415-0.105,0.602-0.371,0.802
		c-0.042,0.108-0.087,0.216-0.131,0.323c-0.118,0.166-0.239,0.334-0.36,0.499c-0.063,0.1-0.124,0.2-0.184,0.297
		c-1.114,2.129-2.533,4.171-2.102,7.043c0.531-0.738,0.883-1.23,1.232-1.719c0.192-0.218,0.202-0.862,0.604-0.544
		c0.352,0.281-0.15,0.652-0.357,0.949c-1.19,2.234-1.393,4.554-0.662,7.082c0.696-0.646,0.373-1.669,1.164-2.234
		c0.047,1.79-0.859,3.427-0.265,5.132c0.557,1.603,1.185,3.175,2,4.67c1.264,2.323,2.126,3.146,3.75,3.28
		c-2.641-3.742-1.338-8.015-2.115-11.983c0.507,0.226,0.279,0.98,0.917,1.198c0.883-2.102,1.427-4.281,1.96-6.462
		c0.26-1.054,0.639-2.097,0.476-3.211c-0.184-1.277,0.018-1.269,0.055-2.423c0.097-3.227,0.166-6.491-1.748-9.353
		c-0.415-0.623-0.796-1.211-0.654-2.042c0.499-2.925-0.473-5.542-2.118-7.834c-1.388-1.937-1.682-3.931-1.398-6.184
		c0.352-2.77,0.988-5.519,0.886-8.325c-0.039-1.112,0.405-1.296,1.343-1.293c4.1,0.016,8.076-0.702,11.918-2.136
		c1.863-0.694,3.719-1.409,5.611-2.129c0.321,2.139-0.237,4.102-0.56,6.065c-0.36,2.163-1.099,4.41-0.355,6.473
		c0.717,1.995-0.52,4.504,1.653,6.055c0.055,0.042,0.066,0.16,0.079,0.244c0.305,1.826,0.113,3.495-1.485,4.725
		c-0.899,0.694-1.811,1.374-2.68,2.105c-1.892,1.59-2.502,3.648-2.2,6.336c1.322-1.34,2.276-2.704,3.655-3.611
		c0.126-0.092,0.252-0.187,0.378-0.279c0.097-0.192,0.187-0.392,0.457-0.223c-0.084,0.137-0.168,0.271-0.255,0.405
		c-0.118,0.15-0.237,0.3-0.357,0.449c-1.311,2.1-2.683,4.168-3.921,6.312c-1.277,2.215-2.602,4.433-2.825,7.077
		c-0.074,0.859,0.024,1.671,0.817,2.205c0.786,0.526,0.928-0.604,1.511-0.61c0.039-0.003,0.082,0.021,0.263,0.076
		c-0.499,1.135-1.395,2.05-1.713,3.251c-0.334,1.254-0.315,2.502-0.081,3.763c0.221,1.185,0.352,2.399,1.093,3.605
		c1.059-2.41,2.042-4.641,3.025-6.875c-0.037,0.957-0.318,1.805-0.662,2.628c-0.352,0.846-0.612,1.716-0.786,2.615
		c-0.163,0.841-0.321,1.685-0.478,2.525c1.012-0.741,0.828-2.292,2.473-2.583c-0.528,2.394-1.112,4.696-0.342,7.243
		c0.631-1.277,0.759-2.528,1.456-3.535c0.081-0.171,0.039-0.484,0.363-0.363c0.042,0.016-0.042,0.36-0.068,0.554
		c-1.419,3.829,0.263,6.727,2.891,9.463c0.985-1.958,1.989-3.863,2.909-5.805c0.999-2.113,2.586-4.118,1.29-6.785
		c0.82,0.728,1.138,0.604,1.419-0.326c0.47-1.558,0.168-3.014-0.331-4.46c-0.712-2.063-1.945-3.863-2.975-5.766
		c-0.218-0.242-0.468-0.465-0.484-0.825c-0.116-0.145-0.234-0.289-0.35-0.434c-0.092-0.16-0.184-0.321-0.276-0.481
		c-0.039-0.163-0.473-0.189-0.184-0.439c0.116-0.1,0.318,0.016,0.371,0.218c0.234,0.053,0.281,0.258,0.347,0.444
		c0.105,0.147,0.21,0.294,0.315,0.444c0.179,0.263,0.355,0.523,0.531,0.786c1.056,1.511,2.113,3.022,3.374,4.828
		c1.976-5.616-0.194-10.128-2.843-14.619c1.112,0.095,1.466,0.951,2.1,1.487c0.426-1.246,0.286-2.433-0.018-3.621
		c-0.57-2.215-2.147-3.753-3.611-5.366c-0.625-0.689-1.217-1.385-1.099-2.415c0.105-0.912,0.173-1.829,0.286-2.741
		c0.302-2.415,0.045-4.736-1.437-6.738c-0.759-1.028-0.946-2.092-0.907-3.309c0.113-3.461,1.222-6.809,1.106-10.288
		c-0.01-0.363,0.184-0.507,0.494-0.667c5.371-2.77,9.755-6.72,13.536-11.387c0.147-0.181,0.281-0.47,0.66-0.365
		c0.026,1.217-0.16,2.418-0.415,3.608c-0.775,3.613-2.284,7.04-2.83,10.704c-0.507,3.39-1.679,6.706-1.259,10.217
		c0.037,0.313-0.118,0.707-0.31,0.975c-0.575,0.809-0.323,1.403,0.452,1.808c0.536,0.281,0.573,0.625,0.515,1.164
		c-0.147,1.382-0.426,2.749-0.11,4.17c0.16,0.728,0.568,1.545,0.082,2.294c-0.778,1.209-1.125,2.544-1.261,3.939
		c-0.242,2.428-0.441,4.856,0.223,7.408c0.639-1.206,0.507-2.544,1.385-3.495c0.273,0.389,0,0.673-0.084,0.996
		c-0.334,1.304-0.836,2.557-0.875,3.939c-0.095,3.38,1.55,6.199,2.841,9.132c0.384,0.87,1.338,1.75,1.437,2.391
		c0.255,1.621,0.717,3.224,0.791,4.896c0.097,2.31-0.526,4.467-1.091,6.762c0.985-0.208,1.664-0.736,2.05-1.437
		c2.102-3.826,4.05-7.71,2.452-12.333c0.801,0.087,0.678,0.907,1.256,1.051c0.286-2.263,0.607-4.515-0.639-6.622
		c-0.244-0.434-0.491-0.87-0.828-1.466c0.736,0.237,0.854,0.783,1.122,1.19c0.589,0.675,0.528,0.276,0.518-0.279
		c-0.055-2.746-1.366-4.898-3.138-6.859c-0.62-0.689-1.403-1.248-1.721-2.208c1.474,1.02,2.73,2.263,3.85,3.682
		c-0.124-3.083-2.239-4.891-4.218-6.869c0.872,0.499,1.745,1.001,2.641,1.511c0.047-0.179,0.102-0.268,0.087-0.339
		c-0.05-0.21-0.113-0.415-0.194-0.612c-0.82-1.955-2.236-3.429-3.926-4.622c-0.804-0.57-1.083-1.232-1.193-2.171
		c-0.189-1.632-0.029-3.235,0.126-4.846c0.079-0.809,0.045-1.592-0.368-2.284c-0.607-1.02-0.788-2.118-0.749-3.264
		c0.147-4.431,0.901-8.754,2.341-12.948c1.106-3.224,2.181-6.449,1.871-9.941c-0.06-0.688,0.281-1.261,0.649-1.808
		C106.917,84.226,108.48,81.088,109.615,77.863z M67.575,145.112c-0.155,0.124-0.147,0.589-0.463,0.334
		c-0.229-0.187,0.079-0.41,0.205-0.597c0.231-0.397,0.465-0.796,0.788-1.345C68.264,144.294,67.759,144.647,67.575,145.112z
		 M83.818,144.124c-0.029,0.06-0.074,0.108-0.134,0.134c-0.068,0.231-0.21,0.397-0.441,0.481c-0.058,0.113-0.116,0.223-0.173,0.336
		c-0.294,0.355-0.589,0.71-1.009,1.214c-0.213-0.943,0.449-1.138,0.744-1.54c0.06-0.063,0.124-0.124,0.187-0.187
		c0.145-0.142,0.292-0.284,0.439-0.428c0.089-0.084,0.179-0.171,0.268-0.255c0.126-0.176,0.231-0.586,0.476-0.339
		C84.383,143.756,84,143.955,83.818,144.124z M85.758,147.832c-0.103-0.042-0.205-0.084-0.308-0.126
		c0.846-1.608,1.695-3.214,2.541-4.822C87.692,144.754,86.467,146.165,85.758,147.832z M107.299,146.552
		c0.105,0.01,0.21,0.063,0.323,0.102c-0.05,0.105-0.081,0.176-0.113,0.244c-0.105-0.058-0.213-0.116-0.321-0.173
		C107.225,146.665,107.267,146.552,107.299,146.552z M103.089,148.399c0.071-0.155,0.129-0.315,0.192-0.476
		c0.068,0.079,0.137,0.158,0.239,0.276c-0.095,0.155-0.168,0.302-0.271,0.423C103.234,148.638,102.997,148.594,103.089,148.399z
		 M86.368,78.123c0.281,1.445,0.88,2.83,0.991,4.31c0.1,1.343-0.476,1.863-1.798,1.695c-1.863-0.236-3.658-0.773-5.408-1.43
		c-1.574-0.591-1.897-2.115-2.194-3.469c-0.102-0.464-0.23-0.916-0.362-1.367h8.694C86.314,77.952,86.349,78.029,86.368,78.123z
		 M76.967,80.333c-0.899-0.539-1.424-1.214-1.942-1.882c-0.149-0.193-0.289-0.393-0.434-0.589h1.704
		C76.555,78.643,76.787,79.455,76.967,80.333z M66.083,82.034c0.418,1.713-0.15,3.156-1.427,4.37
		c-1.077,1.027-2.189,2.002-3.372,2.901c-0.633,0.484-1.114,0.394-1.458-0.334c-0.799-1.698-1.443-3.448-1.816-5.287
		c-0.247-1.214-0.095-2.402,0.825-3.282c0.85-0.813,1.651-1.664,2.424-2.539h4.094C65.519,79.265,65.745,80.656,66.083,82.034z
		 M36.495,82.349c-0.883-0.034-1.198-0.42-0.762-1.364c0.484-1.046,0.982-2.083,1.475-3.122h10.358
		c-0.158,0.835-0.274,1.682-0.375,2.531c-0.179,1.498-0.67,1.995-2.171,2.055c-1.353,0.053-2.709,0.01-4.065,0.01v-0.097
		C39.467,82.362,37.98,82.402,36.495,82.349z M48.724,77.863h8.571c-0.076,0.214-0.158,0.425-0.234,0.639
		c-0.494,1.406-1.522,2.455-3.193,2.751c-1.453,0.258-2.872,0.71-4.352,0.87c-0.82,0.089-1.269-0.244-1.243-1.083
		C48.305,79.956,48.471,78.898,48.724,77.863z M58.623,77.863h1.04c-0.413,0.427-0.831,0.851-1.28,1.262
		C58.427,78.728,58.513,78.302,58.623,77.863z M68.789,82.299c0.513-1.454,0.785-2.935,0.974-4.436h3.375
		c0.921,1.154,1.879,2.28,2.812,3.425c0.925,1.138,1.235,2.507,0.696,4.036c-0.502,1.427-0.925,2.883-1.503,4.289
		c-0.3,0.725-0.665,0.823-1.285,0.439c-1.874-1.156-3.548-2.573-4.809-4.354C68.369,84.735,68.406,83.387,68.789,82.299z
		 M67.355,82.149c-0.393-1.447-0.595-2.872-0.731-4.287h1.93C68.351,79.464,67.963,80.975,67.355,82.149z M33.528,80.793
		c-0.495-0.955-0.913-1.935-1.286-2.931h3.504c-0.445,0.971-0.874,1.949-1.264,2.944C34.159,81.621,33.872,81.455,33.528,80.793z
		 M45.727,95.352c-3.845-3.006-7.219-6.462-9.91-10.554c-0.2-0.307-0.583-0.623-0.331-1.041c0.239-0.399,0.704-0.313,1.083-0.279
		c3.056,0.279,6.115,0.365,9.179,0.15c0.662-0.047,1.119,0.276,1.143,0.975c0.137,3.889,0.402,7.766,0.951,11.781
		C46.83,96.188,46.263,95.772,45.727,95.352z M48.862,95.199c-0.41-3.506-0.904-7.009-0.644-10.559
		c0.06-0.846,0.531-1.364,1.285-1.393c2.431-0.092,4.665-1.02,7.111-1.577c0.116,2.549,0.757,4.825,1.769,7.024
		c0.778,1.687,0.536,2.391-1.046,3.348c-2.231,1.353-4.491,2.654-6.838,3.805C49.658,96.261,48.983,96.222,48.862,95.199z
		 M51.088,98.584c-1.356-0.712-1.364-0.93-0.092-1.629c2.633-1.445,5.343-2.746,7.852-4.418c0.534-0.357,1.075-0.515,1.529,0.242
		c1.863,3.101,3.903,6.081,6.081,8.969c0.173,0.231,0.268,0.523,0.526,1.038C61.308,102.174,55.991,101.162,51.088,98.584z
		 M68.852,100.984c-0.434,0.717-0.97,0.641-1.435-0.003c-1.931-2.683-4.089-5.216-5.582-8.194c-0.804-1.603-0.736-1.779,0.686-2.941
		c1.385-1.13,2.88-2.137,3.902-3.656c0.16-0.239,0.455-0.389,0.657-0.554c0.418,0.013,0.594,0.284,0.765,0.518
		c1.406,1.926,3.214,3.435,5.103,4.843c0.752,0.562,0.975,1.085,0.554,1.979C72.185,95.783,70.445,98.34,68.852,100.984z
		 M82.733,100.208c-3.716,1.443-7.587,2.255-11.573,2.489c-0.502,0.029-1.159,0.263-1.443-0.273
		c-0.271-0.512,0.258-0.957,0.539-1.374c1.543-2.318,3.069-4.649,4.239-7.182c0.42-0.917,1.112-1.012,1.811-0.633
		c3.324,1.808,6.788,3.322,10.412,4.93C85.498,99.373,84.052,99.696,82.733,100.208z M87.658,89.418c0,1.966,0.039,3.934-0.016,5.9
		c-0.037,1.356-0.56,1.708-1.737,1.177c-2.859-1.285-5.71-2.586-8.472-4.084c-1.154-0.625-1.427-1.482-1.038-2.594
		c0.704-2.01,1.522-3.984,1.803-6.113c0.074-0.56,0.444-0.342,0.662-0.252c2.478,1.017,5.051,1.624,7.716,1.879
		c0.67,0.063,0.88,0.689,1.03,1.225C87.868,87.487,87.95,88.448,87.658,89.418z M88.204,80.735
		c-0.153-0.976-0.387-1.932-0.674-2.873h11.365c0.773,1.374,1.493,2.78,2.225,4.176c0.313,0.599,0.223,1.285-0.828,1.453
		c-2.591,0.415-5.19,0.657-7.264,0.773C88.775,84.341,88.769,84.341,88.204,80.735z M100.093,87.339
		c-2.709,3.332-5.863,6.202-9.329,8.727c-0.349,0.252-0.741,0.46-1.135,0.641c-0.505,0.234-0.815,0.163-0.794-0.523
		c0.095-3.143,0.205-6.283,0.053-9.429c-0.029-0.602,0.155-1.101,0.928-1.162c3.782-0.292,7.561-0.61,11.342-0.912
		c0.118-0.011,0.244,0.047,0.415,0.081C101.378,85.815,100.711,86.583,100.093,87.339z M103.817,81.243
		c-0.641,1.277-1.009,1.275-1.677,0.034c-0.613-1.141-1.227-2.281-1.853-3.414h5.015C104.856,79.005,104.375,80.136,103.817,81.243z
		"/>
	<path d="M108.455,40.353c-0.029-2.371-0.25-4.776-0.669-7.211c-2.025-11.773-9.68-22.315-20.106-28.094
		c-5.567-3.086-11.873-4.838-18.237-5.03c-5.958-0.18-11.887,1.029-17.316,3.394c-5.677,2.474-10.806,6.212-14.846,10.95
		c-4.926,5.777-7.863,12.904-9.019,20.372c-0.294,1.903-0.437,3.774-0.448,5.619H0v3.925h141.51v-3.925H108.455z M86.196,40.353
		c-2.82-0.855-5.717-1.164-8.696-1.305c1.784-1.4,3.843-2.344,5.454-3.909c0.83-0.808,1.764-1.442,2.759-2.017
		c0.708-0.408,1.413-0.565,2.206-0.31c1.432,0.462,2.894,0.845,4.3,1.381c1.118,0.423,1.221,0.924,0.474,1.848
		c-1.074,1.332-2.059,2.754-3.481,3.771c-0.311,0.223-0.632,0.41-0.965,0.541H86.196z M68.306,21.717
		c-0.771,3.037-1.336,6.098-1.366,9.284c-1.828-2.582-3.361-5.263-5.582-7.481c-0.641-0.641-0.961-1.72-0.703-2.84
		c0.364-1.592,0.961-3.096,1.501-4.624c0.283-0.798,0.754-0.877,1.415-0.457c1.7,1.086,3.174,2.42,4.425,4.005
		C68.51,20.258,68.483,21.025,68.306,21.717z M69.486,23.061c1.167,4.368,1.486,8.724-0.224,13.102
		c-0.034-2.216-1.437-4.132-1.125-6.457C68.439,27.461,68.522,25.189,69.486,23.061z M67.274,36.237
		c-3.808-3.169-5.754-7.056-6.766-11.589C62.987,26.309,66.665,32.523,67.274,36.237z M62.427,32.862
		c-2.68-1.418-5.322-2.759-8.226-3.499c-0.737-0.187-1.344-0.796-1.69-1.302c-1.297-1.897-1.597-4.135-1.612-6.395
		c-0.002-0.572,0.575-0.545,0.943-0.516c2.037,0.162,4.034,0.528,5.901,1.403c0.686,0.322,1.319,0.83,1.459,1.563
		C59.801,27.201,60.928,30.078,62.427,32.862z M65.464,37.031c-3.093-0.054-8.447-2.354-11.65-6.53
		c2.337,0.469,4.275,1.518,6.265,2.467C62.1,33.93,63.422,35.719,65.464,37.031z M52.639,31.1c2.054,2.162,4.209,4.179,6.889,5.634
		c-3.152,0.14-6.213,0.349-9.245,1.052c-1.002,0.233-2.135,0.029-2.948-0.988c-0.939-1.177-2.039-2.223-3.074-3.324
		c-0.715-0.762-0.45-1.292,0.388-1.698c1.661-0.798,3.408-1.327,5.216-1.651C50.958,29.931,51.917,30.338,52.639,31.1z
		 M63.943,38.893c-0.179,0.459-0.585,0.538-0.973,0.626c-4.044,0.916-8.056,1.086-11.977-0.548
		C55.314,37.989,59.619,37.397,63.943,38.893z M50.937,40.353h-3.11C48.788,39.989,49.833,40.03,50.937,40.353z M64.908,40.217
		c-0.017-1.759,1.427-3.177,3.287-3.226c1.727-0.047,3.26,1.494,3.255,3.273c0,0.03-0.007,0.059-0.008,0.089h-6.52
		C64.92,40.307,64.909,40.264,64.908,40.217z M77.301,35.021c2.076-0.916,4.061-2.046,6.388-2.349
		c-1.499,2.447-8.046,6.319-11.316,6.57C74.087,37.92,75.195,35.95,77.301,35.021z M71.282,37.466
		c0.69-4.879,3.155-8.41,6.562-11.402C76.672,30.329,74.864,34.233,71.282,37.466z M75.62,34.53c1.459-2.725,2.59-5.535,3.565-8.415
		c0.287-0.848,0.838-1.509,1.668-1.857c1.622-0.678,3.307-1.145,5.064-1.327c0.926-0.096,1.457,0.133,1.378,1.26
		c-0.133,1.978-0.668,3.845-1.349,5.678c-0.31,0.84-1.096,1.199-1.894,1.4C81.121,32.009,78.284,32.982,75.62,34.53z M77.212,24.715
		c-2.027,2.125-3.992,4.282-5.523,6.879c0.209-3.386-0.732-6.592-0.97-9.867c-0.069-0.968,0.209-1.698,0.968-2.354
		c1.14-0.985,2.113-2.16,3.383-3.007c0.673-0.452,1.167-0.558,1.597,0.344c0.907,1.889,1.491,3.865,1.695,5.938
		C78.448,23.531,77.738,24.164,77.212,24.715z M80.034,40.353h-3.427c0.65-0.178,1.322-0.275,2.05-0.165
		C79.113,40.257,79.573,40.307,80.034,40.353z M93.482,36.866c0.386-0.55,0.789-1.179,1.7-1.169
		c0.391-0.029,0.796,0.184,1.179,0.408c2.079,1.209,4.172,2.395,6.211,3.663c0.34,0.211,0.579,0.401,0.735,0.585H90.378
		C91.583,39.364,92.58,38.165,93.482,36.866z M100.678,23.786c0.342,0.007,0.403,0.381,0.518,0.622
		c1.597,3.319,2.663,6.808,3.246,10.444c0.179,1.128,0.307,2.263,0.454,3.363c-0.12,0.457,0.059,1.034-0.373,1.248
		c-0.371,0.184-0.771-0.192-1.093-0.423c-2.157-1.555-4.494-2.801-6.857-3.99c-0.916-0.464-1.221-1.022-0.681-1.909
		c1.698-2.784,2.86-5.825,4.27-8.749C100.28,24.152,100.329,23.779,100.678,23.786z M88.086,9.806
		c0.45-0.275,0.894,0.263,1.263,0.523c2.489,1.744,4.619,3.882,6.638,6.137c1.115,1.243,2.187,2.526,3.059,3.96
		c0.452,0.742,0.506,1.157-0.597,1.108c-1.427-0.066-2.86-0.017-4.292-0.017v-0.01c-1.388,0-2.781-0.066-4.167,0.02
		c-1.096,0.066-1.454-0.423-1.491-1.413c-0.083-2.204,0.096-4.415-0.243-6.609c-0.125-0.806-0.204-1.619-0.278-2.432
		C87.939,10.637,87.73,10.023,88.086,9.806z M88.393,24.302c0.118-1.027,0.634-1.536,1.641-1.614c2.737-0.211,5.474-0.044,8.208,0
		c0.85,0.015,1.167,0.516,0.823,1.324c-1.255,2.946-2.585,5.857-4.201,8.624c-0.445,0.759-0.494,0.737-1.555,0.658
		c-1.322-0.405-2.911-0.899-4.506-1.373c-0.73-0.219-1.472-0.396-2.206-0.592c0.253-0.715,0.486-1.437,0.767-2.142
		C87.986,27.616,88.204,25.96,88.393,24.302z M86.779,10.748c0.44,2.747,0.565,5.518,0.705,8.287c0,0.165,0,0.327-0.002,0.491
		c-0.02,2.106-0.138,2.251-2.253,2.452c-1.68,0.16-3.258,0.7-4.842,1.219c-0.612,0.201-0.943,0.165-0.948-0.641
		c-0.017-2.155-0.636-4.164-1.683-6.039c-0.521-0.934-0.391-1.717,0.491-2.341c2.297-1.626,4.784-2.929,7.29-4.191
		C86.281,9.608,86.654,9.961,86.779,10.748z M84.219,7.205c0.177,0.103,0.356,0.204,0.521,0.322c1.221,0.88,1.236,0.916-0.042,1.626
		c-2.489,1.383-5.002,2.727-7.493,4.105c-0.378,0.209-0.681,0.42-1.007-0.066c-2.056-3.064-3.997-6.206-6.14-9.309
		C75.026,4.136,79.861,4.677,84.219,7.205z M69.449,5.298c2.206,2.693,3.899,5.707,5.56,8.744c0.059,0.103,0.113,0.209,0.199,0.368
		c-0.253,0.302-0.477,0.649-0.771,0.914c-1.526,1.359-3.14,2.619-4.55,4.105c-0.369,0.388-0.59,0.427-0.882-0.12
		c-1.01-1.892-2.609-3.211-4.346-4.4c-1.324-0.902-1.457-1.371-0.671-2.73c1.307-2.253,2.69-4.462,4.024-6.7
		C68.434,4.775,68.815,4.524,69.449,5.298z M55.862,5.979c3.125-1.071,6.26-2.093,9.594-2.285c0.246-0.015,0.489-0.061,0.732-0.054
		c0.4,0.007,0.929-0.123,1.145,0.233c0.224,0.371-0.184,0.742-0.383,1.081c-1.405,2.381-2.825,4.749-4.221,7.135
		c-0.337,0.575-0.641,1.069-1.413,0.604c-2.941-1.766-6.157-2.97-9.216-4.491c-0.179-0.088-0.337-0.221-0.644-0.425
		C52.887,6.77,54.418,6.475,55.862,5.979z M50.624,10.236c0.042-1.01,0.504-1.169,1.361-0.794c2.688,1.172,5.405,2.28,7.945,3.759
		c1.437,0.835,1.671,1.425,1.017,2.911c-0.698,1.58-0.988,3.268-1.481,4.899c-0.179,0.59-0.369,0.843-1.096,0.553
		c-2.049-0.813-4.169-1.386-6.38-1.587c-0.808-0.076-1.287-0.56-1.437-1.415c-0.241-1.386-0.056-2.774-0.14-4.462
		C50.474,13.013,50.568,11.625,50.624,10.236z M51.039,28.022c0.084,0.319,0.489,0.83-0.307,0.857
		c-2.334,0.079-4.457,0.892-6.523,1.889c-0.904,0.435-1.639,0.339-2.201-0.568c-1.501-2.418-3.046-4.803-4.152-7.444
		c-0.287-0.688-0.172-0.939,0.55-1.069c2.54-0.454,5.108-0.587,7.353-0.688c3.317,0.059,3.968-0.639,4.255,3.15
		C50.113,25.459,50.703,26.727,51.039,28.022z M38.497,18.796c2.742-3.594,5.948-6.707,9.7-9.245
		c0.324-0.221,0.681-0.629,1.076-0.408c0.405,0.228,0.194,0.742,0.187,1.133c-0.034,2.653-0.106,5.309-0.115,7.963
		c-0.005,1.199-0.521,1.585-1.712,1.624c-2.978,0.096-5.948,0.344-8.921,0.531c-0.349,0.022-0.7,0.039-1.118,0.064
		C37.711,19.72,38.141,19.263,38.497,18.796z M34.689,25.022c0.361-0.855,0.641-2.046,1.511-2.189
		c0.543-0.091,0.887,1.199,1.28,1.887c1.194,2.083,2.334,4.199,3.511,6.294c0.366,0.651,0.415,1.091-0.373,1.543
		c-2.511,1.447-4.869,3.132-7.208,4.842c-0.523,0.383-1.064,0.749-1.892,0.887C32.07,33.638,32.915,29.221,34.689,25.022z
		 M33.404,38.832c2.494-1.993,5.226-3.629,7.933-5.304c0.644-0.398,1.265-0.297,1.752,0.295c1.349,1.644,2.597,3.381,4.358,4.626
		c0.504,0.359,0.113,0.533-0.125,0.712c-0.493,0.376-0.96,0.778-1.415,1.192H33.186C32.574,39.87,32.721,39.379,33.404,38.832z"/>
	<path d="M38.869,69.959c0.618,0.165,1.153,0.124,1.647-0.165c-1.07-2.224-1.318-4.573-1.441-6.962
		c-0.165-3.254-0.165-6.591-0.124-9.804c0-1.812,0.288-3.502,0.701-5.232c0.041-0.247,0.123-0.453,0.164-0.618
		c0.412-1.318,1.319-1.771,2.431-1.235c0.329,0.124,0.37,0.206,0.617,0.823c0.124-0.082,0.288-0.082,0.453-0.123
		c1.154-0.33,2.348-0.577,3.584-0.371c0.864,0.165,1.606,0.617,2.224,1.277c1.154,1.277,1.771,2.925,1.977,4.778
		c0.371,2.925-0.206,5.685-1.153,8.445c-0.824,2.266-1.896,4.366-3.213,6.262c-0.824,1.318-1.853,2.43-3.007,3.418
		c-0.989,0.783-2.101,1.071-3.255,1.195c-0.701,0.041-1.153-0.371-1.483-1.03C38.91,70.494,38.91,70.248,38.869,69.959z M42,68.682
		c0.288,0.082,0.412-0.124,0.535-0.33c0.536-0.658,1.071-1.318,1.525-2.018c2.224-3.667,3.872-7.703,5.026-11.987
		c0.33-1.195,0.536-2.513,0.412-3.79c-0.124-1.647-0.865-2.554-2.224-2.76c-1.525-0.288-3.007,0-4.491,0.412l-0.082,0.453
		c-0.124,1.318-0.288,2.595-0.411,3.913c-0.33,3.131-0.701,6.179-0.618,9.31C41.67,64.151,41.876,66.416,42,68.682z"/>
	<path d="M61.525,57.6c-0.124,0.124-0.206,0.247-0.288,0.288c-0.701,0.247-1.524-0.165-1.771-0.823
		c-0.124-0.33-0.206-0.701-0.33-1.03c-0.041-0.206-0.124-0.453-0.247-0.742c-0.165,0.124-0.33,0.206-0.453,0.288
		c-0.082,0.124-0.206,0.247-0.288,0.412c-1.235,1.977-2.018,5.973-2.101,8.363c-0.041,0.288,0,0.618-0.041,0.906
		c-0.041,0.165-0.165,0.371-0.288,0.412c-0.495,0.247-1.277-0.041-1.524-0.495c-0.206-0.37-0.371-0.741-0.453-1.153
		c-0.165-0.577-0.288-1.195-0.33-1.812c-0.206-2.143-0.165-6.056,0.536-8.115c0.082-0.288,0.206-0.536,0.33-0.824
		c0.165-0.288,0.412-0.495,0.782-0.536c0.577-0.082,1.195-0.041,1.731,0.288c0.412,0.206,0.495,0.371,0.371,0.865
		c-0.247,0.906-0.453,1.812-0.701,2.719c0,0.082,0,0.165-0.041,0.288H56.5c0.124-0.124,0.206-0.288,0.288-0.453
		c0.247-0.371,0.495-0.783,0.783-1.113c0.7-0.823,1.853-0.742,2.43,0.165c0.206,0.371,0.37,0.742,0.494,1.154
		c0.082,0.33,0.206,0.617,0.618,0.658C61.237,57.353,61.36,57.477,61.525,57.6z"/>
	<path d="M70.422,59.331c-0.494,1.565-1.112,3.007-2.348,4.119c-0.536,0.495-1.153,0.618-1.771,0.453
		c-1.524-0.33-2.595-1.195-3.007-2.76c-0.495-1.812-0.288-3.543,0.701-5.149c0.453-0.783,1.07-1.319,1.853-1.689
		c0.453-0.247,0.948-0.288,1.442-0.124c0.617,0.206,0.947,0.617,0.864,1.277c-0.124,1.277-0.864,2.266-1.936,2.842
		c-0.412,0.247-0.577,0.453-0.577,0.907c0,0.864-0.041,1.73,0.041,2.595c0,0.823,0.659,1.689,1.525,1.194
		c1.235-0.741,1.689-1.483,2.554-3.46C69.929,59.084,69.805,59.084,70.422,59.331z M65.974,57.6c0.701-0.576,1.154-1.153,1.36-1.936
		c0.081-0.288,0.164-0.577-0.124-0.824C66.592,55.458,66.056,56.612,65.974,57.6z"/>
	<path d="M82.451,59.661c-0.452,2.018-1.73,6.055-3.377,6.137c-0.742,0.041-1.36-0.206-1.854-0.701
		c-0.494-0.452-0.823-1.029-1.029-1.647c-0.618-1.689-0.577-2.842-0.495-4.49c-0.371,0.947-0.495,0.988-0.907,1.977
		c-0.124,0.247-0.206,0.536-0.33,0.783c-0.411,0.823-0.988,1.4-1.977,1.359c-1.029-0.082-1.895-0.495-2.348-1.524
		c-0.247-0.618-0.288-1.195-0.247-1.812c0.124-1.484,0.536-2.842,1.319-4.079c0.371-0.618,0.864-1.153,1.524-1.524
		c0.824-0.495,1.771-0.536,2.636-0.165c0.371,0.124,0.659,0.453,0.948,0.741c0.165,0.206,0.041,0.412-0.206,0.412
		c-0.206,0-0.412-0.041-0.618-0.124c-0.165-0.041-0.33-0.165-0.453-0.247c-1.483,0.948-3.007,5.52-2.348,6.962
		c0.371-0.165,0.495-0.536,0.659-0.865c0.618-1.318,1.194-2.636,1.812-3.995l0.701-1.195c0.206-0.33,0.495-0.453,0.865-0.412
		c0.246,0.041,0.494,0,0.741,0.041c0.701,0.041,0.989,0.288,0.989,0.989c0.041,0.988,0,1.977-0.082,2.966
		c-0.206,2.059-0.165,5.561,0.701,5.89c0.864,0,2.224-3.624,2.636-5.849C81.957,58.795,82.616,59.166,82.451,59.661z"/>
	<path d="M101.937,57.229c-0.041,0.124-0.082,0.288-0.165,0.412c-0.865,2.019-1.772,3.996-2.636,5.973
		c-0.577,1.277-1.236,1.606-2.554,1.154c-0.865-0.288-1.484-0.865-1.896-1.69c-0.412-0.864-0.535-1.812-0.494-2.801l0.246-2.389
		c0-0.124,0-0.247,0-0.371c-0.041,0-0.082,0-0.124-0.041c-1.524,1.854-1.853,4.12-2.43,6.344c-0.864,0.412-2.101-0.041-2.513-0.948
		c-0.33-0.906-0.452-1.853-0.494-2.801c-0.124-1.977,0.123-3.954,0.494-5.931c0.082-0.33,0.082-0.701,0.165-1.195
		c-0.247,0.124-0.371,0.124-0.453,0.247c-0.288,0.33-0.576,0.659-0.823,1.071c-1.113,1.73-1.813,3.624-2.266,5.602
		c-0.33,1.484-0.577,3.007-0.824,4.491c-0.041,0.247-0.124,0.412-0.33,0.577c-0.618,0.494-1.565,0.411-1.977-0.288
		c-0.124-0.165-0.247-0.371-0.288-0.618c-0.659-2.266-0.824-5.767-0.288-8.115c0.247-1.03,1.277-1.524,2.266-1.071
		c0.288,0.165,0.412,1.566,0.412,1.896c0,0.453,0,0.906-0.041,1.359c-0.041,0.536-0.082,1.03-0.041,1.607
		c0.041-0.165,0.082-0.288,0.165-0.453c0.412-1.195,0.783-2.389,1.236-3.584c0.37-0.989,0.906-1.895,1.606-2.678
		c0.453-0.536,0.989-0.824,1.647-0.865c1.525-0.041,2.513,0.865,2.595,2.349c0.041,0.782,0,1.565-0.041,2.348
		c0,0.247-0.041,0.494-0.082,0.906c0.206-0.206,0.33-0.33,0.412-0.453c0.536-0.7,1.195-1.235,1.977-1.606
		c0.783-0.33,1.525-0.206,2.266,0.206c0.288,0.165,0.494,0.495,0.576,0.824c0.082,0.495,0.165,0.988,0.206,1.483
		c0,0.948,0,1.895-0.041,2.842c0,0.783-0.041,1.524,0.288,2.43c0.165-0.247,0.288-0.371,0.371-0.536
		c0.453-0.947,0.948-1.853,1.401-2.801l1.318-2.678C101.071,56.901,101.319,56.86,101.937,57.229z"/>
</g>
</svg>
