<?xml version="1.0" encoding="utf-8"?>
<!-- Generator: Adobe Illustrator 23.0.1, SVG Export Plug-In . SVG Version: 6.00 Build 0)  -->
<svg version="1.1" id="Layer_1" xmlns="http://www.w3.org/2000/svg" xmlns:xlink="http://www.w3.org/1999/xlink" x="0px" y="0px"
	 viewBox="0 0 180 128.4" style="enable-background:new 0 0 180 128.4;" xml:space="preserve">
<style type="text/css">
	.st0{fill:none;stroke:#000000;stroke-miterlimit:10;}
	.st1{fill:#1E1E1E;}
	.st2{fill:#282828;}
	.st3{fill:#FBFBFB;}
</style>
<path d="M137.7,99.3c-7.3-4.9-14.2-11.2-17.3-19.4c2.2,2,5.7,0.9,8.5-0.3c9.1-4.1,18.3-9.6,23.4-18.2c5.1-8.6,4.7-21.2-3.2-27.3
	c-5.5-4.2-13.2-4.5-19.8-2.4c-6.6,2.1-12.3,6.2-17.9,10.3c0,0,0,0-0.1,0c3.6-5.8,7.3-11.8,8.7-18.5c1.4-6.7,0-14.4-5.2-18.8
	c-7-6-18.5-3.6-25,3c-6.5,6.6-8.9,16.1-10,25.3c-2.1-7.6-5.1-15-9-21.9C59.6-8.9,40.3,0.7,42.8,21.5c0.8,7,2.9,13.9,5.9,20.3
	C42.2,33.4,32.5,27.6,22,25.7C13.9,24.3,3.8,26.4,0.8,34c-2.2,5.5,0.3,11.8,3.8,16.5C11,59,21.2,64.6,31.9,65.2
	c-10.5,6.1-22,13.7-24,25.6c-0.5,2.8-0.4,5.9,1,8.4c2.7,4.9,9.1,6.4,14.7,6.3c12.7-0.3,25.1-6.5,32.8-16.5
	c-1.3,5.9-2.5,11.9-3.8,17.8c-1.5,7.1-2.3,15.9,3.6,20c5.7,3.9,13.7,0.2,18.6-4.8c6.4-6.5,10.6-15.1,11.7-24.1
	c2.3,4.4,4.6,8.8,6.9,13.2c2.4,4.6,6.2,9.9,11.3,9c4.2-0.8,6.3-5.5,7-9.8c1-6.6,0.1-13.4-2.5-19.5c10.4,7.5,21.2,14.8,33.1,19.7
	s25.2,7.1,37.7,4.2C164.9,113,150.3,107.7,137.7,99.3z M123.1,38.1c3-1.8,6.4-3.3,9.9-3.8c1.8-0.3,3.6-0.4,5.4-0.1
	c1.8,0.2,3.6,0.6,5.3,1.4c3.4,1.5,6,4.6,7.2,8c0.6,1.7,0.9,3.5,1,5.4c0.1,1.8,0,3.6-0.4,5.4c-0.4,1.8-1,3.5-1.8,5.1
	c-0.8,1.6-1.9,3.1-3,4.5c-2.3,2.7-5.1,5-8.1,6.8c-3,1.8-6.2,3.4-9.4,4.7c3.1-1.6,6.2-3.3,9.1-5.3c2.9-2,5.5-4.3,7.6-7
	c1.1-1.3,2-2.8,2.8-4.3c0.7-1.5,1.3-3.2,1.6-4.8c0.7-3.3,0.5-6.8-0.6-10c-1.1-3.1-3.4-5.8-6.5-7.3c-3-1.5-6.5-1.8-9.9-1.4
	c-3.4,0.4-6.7,1.7-9.7,3.3c-3.1,1.6-6,3.6-8.9,5.5C117.3,42.1,120.1,39.9,123.1,38.1z"/>
</svg>
