<?xml version="1.0" encoding="utf-8"?>
<!-- Generator: Adobe Illustrator 23.0.1, SVG Export Plug-In . SVG Version: 6.00 Build 0)  -->
<svg version="1.1" id="Layer_1" xmlns="http://www.w3.org/2000/svg" xmlns:xlink="http://www.w3.org/1999/xlink" x="0px" y="0px"
	 viewBox="0 0 180 180" style="enable-background:new 0 0 180 180;" xml:space="preserve">
<style type="text/css">
	.st0{fill:none;stroke:#000000;stroke-miterlimit:10;}
	.st1{fill:#1E1E1E;}
	.st2{fill:#282828;}
	.st3{fill:#FBFBFB;}
</style>
<path d="M163.9,85.8c0.3-0.2,0.7-0.5,1-0.7c5-3.8,10.1-7.6,15.1-11.3c-5.5-4.1-11-8.2-16.5-12.4c-1.6-1.2-3.3-2.6-3.9-4.5
	c-0.5-1.6-0.1-3.4,0.4-5c1.7-6.7,3.4-13.4,5.1-20.2c-6.4,0-12.9,0-19.3,0c-1.6,0-3.2,0-4.7-0.6c-3.2-1.2-4.8-4.8-5.5-8.1
	c-0.6-3.4-0.6-6.9-1.8-10.1c-0.6-1.7-1.6-3.2-3.2-4.2c-3.6-2.2-8.1,0.1-11.5,2.6c-3.3,2.5-7,5.5-11.1,4.9c-6.3-0.9-8.2-9-12.7-13.5
	C94,1.3,92.3,0.1,90.3,0c-3.8-0.3-6.8,3.3-8.6,6.7c-1.8,3.4-3.6,7.3-7.1,8.8c-6,2.5-11.8-3.3-17.6-6.4c-1.7-0.9-3.7-1.6-5.6-1.3
	c-4,0.7-5.8,5.4-6.3,9.4c-0.4,4-0.3,8.5-3,11.5c-4.7,5.3-13.1,2.4-19.1,2.5c-4.2,0.1-7.9,0.3-6.9,5c1.1,5.1,2.6,10.2,3.9,15.2
	c0.5,2,1,4.1,0.2,5.9c-0.6,1.6-2.1,2.7-3.4,3.7C11.2,65.3,5.6,69.5,0,73.8c5.7,4.1,11.3,8.3,17,12.4c1.4,1,2.8,2,3.4,3.6
	c0.8,1.9,0.3,4.1-0.2,6c-1.7,6.6-3.5,13.3-5.2,19.9c6.7,0,13.5,0.1,20.2,0.1c1.1,0,2.4,0,3.2,0.8c1.3,1.1,1.1,3.2,0.8,4.9
	c-3.9,19.5-7.8,39-11.7,58.6c15.3-16.4,30.6-32.8,45.9-49.2c4.6,5,9.1,9.9,13.7,14.9c0.9,1,1.9,2,3.2,1.9c0.9,0,1.6-0.6,2.3-1.1
	c5.6-4.9,8-14.3,15.3-15.5c7.6-1.3,13.3,7.7,20.9,8.9c0.7,0.1,1.5,0.1,2.2-0.2c0.8-0.5,1.1-1.5,1.4-2.4c1.1-4.2,2.2-8.4,3.2-12.6
	c0.7-2.8,1.6-5.7,3.8-7.4c2.3-1.7,5.4-1.7,8.2-1.7c4.6,0.1,9.3,0.2,13.9,0.3c0.9,0,2,0,2.6-0.7c0.7-0.8,0.4-2,0.2-3
	c-1.3-4.7-2.6-9.5-3.9-14.2c-0.7-2.8-1.5-5.8-0.2-8.4C161.1,88,162.5,86.8,163.9,85.8z M51.8,22.6c-0.7,1.7-0.8,3.5-0.9,5.5
	c-0.1,1.9-0.2,3.9-0.8,6c-0.6,2-2.1,4-4.1,5c-2,1.1-4.2,1.2-6.2,1.2c-2-0.1-4-0.4-5.8-0.7c-1-0.1-1.9-0.2-2.8-0.3
	c-1,0-1.9-0.1-2.8,0c-0.9,0.1-1.8,0.3-2.4,0.9c-0.6,0.6-0.7,1.7-0.6,2.6c-0.3-0.9-0.5-2,0.1-3c0.6-1,1.7-1.4,2.7-1.6
	c1-0.2,2-0.3,3-0.4c1-0.1,2-0.1,3,0c2,0.1,3.9,0.3,5.7,0.3c1.8,0,3.7-0.2,5.1-1c1.5-0.7,2.5-2.1,3.1-3.7c0.6-1.6,0.8-3.5,1-5.5
	c0.2-1.9,0.7-4,1.6-5.8c0.5-0.9,1.1-1.7,1.9-2.4c0.8-0.6,1.8-1,2.7-1.1C53.6,19.3,52.4,20.9,51.8,22.6z"/>
</svg>
