<?xml version="1.0" encoding="utf-8"?>
<!-- Generator: Adobe Illustrator 23.0.1, SVG Export Plug-In . SVG Version: 6.00 Build 0)  -->
<svg version="1.1" id="Layer_1" xmlns="http://www.w3.org/2000/svg" xmlns:xlink="http://www.w3.org/1999/xlink" x="0px" y="0px"
	 viewBox="0 0 180 147.6" style="enable-background:new 0 0 180 147.6;" xml:space="preserve">
<style type="text/css">
	.st0{fill:none;stroke:#000000;stroke-miterlimit:10;}
	.st1{fill:#1E1E1E;}
	.st2{fill:#282828;}
	.st3{fill:#FBFBFB;}
</style>
<g>
	<g>
		<path d="M99.2,88.7c3.2,8.2-1.6,23-9.8,30c-4.6,3.9-10.1,5.6-16,5.9c-5.9,0.3-11.4-1.2-16.6-4.1c-5.1-2.8-8.1-7.7-11.8-12
			c0.6,2.7,1.7,5.1,3.2,7.3c0.9,1.3,0.8,1.9-0.8,2.5c-12.9,4.3-30-0.3-36.6-12.4C3.1,91.1,8.6,72.5,23.5,65.1c1-0.5,1.6-0.3,2.9,0
			c-6.1-11.6-5.5-22.5,4.1-31.4c6.4-5.9,14.6-6,22.3-2.5c10.7,4.9,13.4,14.4,12.4,26.3c2.1-5.5,2-10.2,1.2-14.8
			c-0.4-2.4,0.2-2.7,2.2-3.1c14.8-3.1,28.6,10,31.3,22.2c2.4,11,0.9,21.4-7.5,29.8c-1.2,1.2-2.7,2.1-4,3.1
			C91,95.1,91,95.1,99.2,88.7z"/>
		<path d="M72.2,125.3c-5.3,0-10.6-1.4-15.7-4.2c-4.1-2.2-6.9-5.8-9.6-9.2c0.5,1.2,1.2,2.4,2,3.5c0.4,0.6,0.9,1.4,0.6,2.1
			c-0.3,0.8-1.1,1.2-1.8,1.4c-12.4,4.2-30.3,0.5-37.4-12.8c-3.9-7.2-4.7-15.9-2.2-23.8c2.5-7.8,7.8-14.1,15.1-17.8
			c0.7-0.4,1.3-0.4,1.9-0.4c-5.8-12-4.1-22.7,4.9-31c6.1-5.6,14.5-6.6,23.1-2.6c8.3,3.8,12.5,10.5,13,20.8c0.4-3.3,0.1-6.2-0.3-8.6
			c-0.5-2.9,0.5-3.4,2.7-3.9c7-1.4,14.4,0.5,20.8,5.5c5.7,4.5,10,10.9,11.4,17.2c2.7,12.4,0.1,22.6-7.7,30.4
			c-0.7,0.7-1.5,1.3-2.3,1.9c1.3-0.4,3.1-1.9,8.2-5.8l0.8-0.6l0.3,0.9c3.3,8.6-1.5,23.6-10,30.8c-4.4,3.7-9.9,5.7-16.4,6
			C73.1,125.3,72.6,125.3,72.2,125.3z M43.8,105.8l1.9,2.2c0.8,1,1.6,1.9,2.3,2.9c2.8,3.5,5.4,6.8,9.2,8.9c5.3,2.9,10.7,4.3,16.2,4
			c6.2-0.3,11.4-2.2,15.5-5.7c7.6-6.5,12.3-20.2,9.9-28.3c-7.5,5.9-7.8,6-10.6,5.5l-1.6-0.3l1.3-1c0.4-0.3,0.8-0.6,1.3-0.9
			c0.9-0.7,1.9-1.3,2.7-2.1c7.5-7.4,10-17.2,7.3-29.1c-2.7-12.4-16.7-24.6-30.5-21.7c-1.8,0.4-2,0.4-1.6,2.3c0.7,3.8,1.2,9-1.3,15.2
			l-1.8,4.6l0.4-4.9c1.1-13.2-2.8-21.3-12-25.6c-8.1-3.7-15.8-2.9-21.5,2.4c-8.9,8.2-10.3,18.5-4,30.6l0.7,1.4l-1.6-0.4
			c-1.1-0.3-1.6-0.4-2.3,0c-6.9,3.4-12,9.4-14.3,16.9c-2.4,7.5-1.6,15.8,2.1,22.7c6.6,12.2,23.8,16.1,35.7,12.1
			c0.8-0.3,0.9-0.5,0.9-0.5c0,0,0.1-0.2-0.4-0.9c-1.6-2.2-2.7-4.7-3.3-7.5L43.8,105.8z"/>
	</g>
	<g>
		<path d="M149.4,29.2c9.4,0.9,18.6,3.5,26.9,8.1c1.3,0.7,2.7,1.6,3.4,2.8c-22-11.9-50.2-11.5-71.9,1c-2,1.2-4.1,2.5-6.3,3.1
			c-1.9,0.5-4.2,0.7-5.9-0.4c1.1-2.3,5.9-4.1,8.2-5.2c3.3-1.7,6.7-3.2,10.2-4.5c6.7-2.5,13.8-4.2,21-4.9
			C139.7,28.8,144.6,28.8,149.4,29.2z"/>
	</g>
	<g>
		<path d="M149.4,44.3c-5.7-0.4-11.3-0.3-16.8,1c-11.2,2.6-20.8,9.9-29,18.1c-0.6-1.4-0.3-3.1,0.4-4.4c0.8-1.3,1.9-2.4,3.1-3.4
			c14.6-12.2,35.9-16.9,53.9-9.9C157.2,45.1,153.3,44.6,149.4,44.3z"/>
	</g>
	<g>
		<path d="M179.1,47.9c-0.7-0.1-1.3-0.5-1.9-0.9c-9-5.5-19.3-8.7-29.8-9.2c-10.5-0.5-21.1,1.7-30.6,6.3c-5.6,2.7-10.8,6.3-14.6,11.2
			c-0.8-1.6-1.6-3.5-1-5.2c0.5-1.4,1.8-2.3,3-3.1c18.5-11.6,42.5-14.5,62.8-6.2c4.6,1.9,8.9,4.2,12.9,7.1
			C179.7,48,179.4,48,179.1,47.9z"/>
	</g>
	<g>
		<path d="M0.4,16.2c0.3-0.9,0.7-1.6,1.4-1c0.4,0.3,0.4,0.9,0.2,1.4s-0.5,0.9-0.7,1.3c-0.4,1.1,0,2.3,0.8,3.1
			c0.8,0.8,1.8,1.3,2.9,1.8c0.5,0.2,1,0.4,1.5,0.1c0.3-0.3,0.4-0.7,0.4-1.2c0.2-1.4,0.8-2.8,1.9-3.6c1.2-0.8,2.9-0.8,3.8,0.3
			c0.9,1.1,0.7,2.7-0.1,3.9c-0.8,1.2-2,1.9-3.3,2.6c2.1,2.5,5.5,3.9,8.8,3.7c0.4,0,0.8-0.1,1.2,0.1c0.4,0.1,0.7,0.6,0.5,0.9
			c-0.1,0.3-0.5,0.4-0.9,0.5c-2.8,0.6-5.8,0-8.2-1.6c-1.5-1-2.7-2.4-4.3-3.2c-1.2-0.6-2.6-0.9-3.8-1.7c-1.6-1-2.5-2.7-2.7-4.5
			C0,18.8,0.1,17.3,0.4,16.2z M8.3,22.1c-0.1,1,0.2,1.2,1,0.8c0.9-0.5,1.5-1.2,2-2.1c0.2-0.4,0.4-0.9,0.1-1.2
			c-0.4-0.4-1-0.4-1.5-0.1C8.9,20.2,8.6,21.2,8.3,22.1z"/>
	</g>
	<g>
		<path d="M37.9,147.3c2.8-4.2,5.7-8.5,8.6-12.9c-2.3,0.2-4.4,0.4-6.8,0.2c4.3-3.5,8.4-6.8,12.5-10.1c0.1,0.1,0.2,0.2,0.3,0.3
			c-1.3,2.1-2.5,4.2-3.9,6.6c3.3,0,6.5,0,9.6,0c0.1,0.1,0.1,0.3,0.2,0.4c-6.8,5.3-13.5,10.5-20.3,15.8
			C38,147.5,37.9,147.4,37.9,147.3z"/>
	</g>
	<g>
		<path d="M51.6,1.8c0-0.1,0.1-0.3,0.1-0.4c0-0.4,0.1-0.8,0.1-1.2c0.5-0.2,0.5,0.1,0.7,0.4c0.5,1.2,1,2.3,1.4,3.4
			c2.3,5.3,4.7,10.5,7.6,15.5c1,1.7,1.9,3.3,2.9,5c-1-0.5-1.2-1.3-1.8-1.8c-1.8-2.5-3.7-5-5.5-7.5c-0.9-1.6-2-3-3.4-4.6
			c0.1,0.1-0.1,0.8-0.1,1c-0.2,1.5-0.4,2.9-0.8,4.4c-0.1,0.7-0.3,1.3-0.4,1.9c-0.2,0.6-0.5,1.4-0.5,2.1c0-0.4-0.5-1.1-0.7-1.5
			c-0.1-0.3-0.3-0.6-0.4-0.8c-0.4-0.7-0.7-1.4-1.1-2.1c-0.8-1.6-1.7-3.3-2.5-4.9C46,8.7,45,6.5,43.9,4.3c-0.1-0.1-0.2-0.3-0.2-0.4
			l0,0c-0.7-1.2-1.3-2.4-2-3.7c0.1-0.1,0.2-0.2,0.2-0.3c-0.1,0.1,3.4,3.9,3.7,4.3c1.7,2,3.3,4.1,5,6.2L51.6,1.8z"/>
	</g>
	<g>
		<polygon points="115.3,76.7 117.3,80.8 121.8,81.4 118.5,84.6 119.3,89.1 115.3,87 111.2,89.1 112,84.6 108.7,81.4 113.2,80.8 		
			"/>
	</g>
</g>
</svg>
