<?xml version="1.0" encoding="utf-8"?>
<!-- Generator: Adobe Illustrator 23.0.1, SVG Export Plug-In . SVG Version: 6.00 Build 0)  -->
<svg version="1.1" id="Layer_1" xmlns="http://www.w3.org/2000/svg" xmlns:xlink="http://www.w3.org/1999/xlink" x="0px" y="0px"
	 viewBox="0 0 180 91.4" style="enable-background:new 0 0 180 91.4;" xml:space="preserve">
<style type="text/css">
	.st0{fill:none;stroke:#000000;stroke-miterlimit:10;}
	.st1{fill:#1E1E1E;}
	.st2{fill:#282828;}
	.st3{fill:#FBFBFB;}
</style>
<path d="M175.1,51.9c-2-16.8-3.9-33.6-5.8-50.4c-0.2-1.6-0.9-1.5-2.1-1.4c-21.2,3-42.4,5.9-63.5,8.8c-15.8,2.2-31.6,4.4-47.5,6.3
	c-3.3,0.4-3.3,1.1-1.9,3.7c3.9,7.4,7.6,14.9,11.5,22.6c-12.8,2-25.3,4-37.8,5.9c-2.1,0.3-2.9,0.5-1.3,2.7c4.2,5.6,8.1,11.5,12.4,17
	c1.9,2.5,1.4,3.2-1.4,4.1C25.1,75.4,12.6,79.9,0,84.3c0.1,0.2,0.3,0.4,0.4,0.5C17,81.9,33.5,79,50.3,76c-2.2-6.7-4.3-13.1-6.6-20.1
	c10.1,1.2,19.9,2.3,29.8,3.4c1.5,0.2,1.9,1.1,2.4,2.1c3.8,7.5,7.7,14.9,11.5,22.4c0.9,1.8,2,2.5,4.1,2.6c9.3,0.3,18.5,0.9,27.7,1.4
	c16.4,1,32.8,2,49.2,3c3.8,0.2,7.6,0.4,11.5,0.6C178.3,78.1,176.7,65,175.1,51.9z M145,9.6c-6.3,1-12.6,1.8-18.9,2.7
	c-6.3,0.8-12.6,1.6-19,2.4c-6.3,0.7-12.7,1.4-19,1.9c6.3-1.1,12.6-2.2,18.9-3.1c6.3-1,12.6-1.8,18.9-2.7c6.3-0.8,12.6-1.6,19-2.3
	c6.3-0.7,12.7-1.4,19-1.9C157.6,7.6,151.3,8.7,145,9.6z"/>
</svg>
