<?xml version="1.0" encoding="utf-8"?>
<!-- Generator: Adobe Illustrator 23.0.1, SVG Export Plug-In . SVG Version: 6.00 Build 0)  -->
<svg version="1.1" id="Layer_1" xmlns="http://www.w3.org/2000/svg" xmlns:xlink="http://www.w3.org/1999/xlink" x="0px" y="0px"
	 viewBox="0 0 180 133.2" style="enable-background:new 0 0 180 133.2;" xml:space="preserve">
<style type="text/css">
	.st0{fill:none;stroke:#000000;stroke-miterlimit:10;}
	.st1{fill:#1E1E1E;}
	.st2{fill:#282828;}
	.st3{fill:#FBFBFB;}
</style>
<g>
	<g>
		<g>
			<path class="st1" d="M100.1,51.5c-0.4,0.7,0.4,1,0.4,1.5c0.1,0.9,0.2,1.8-0.5,2.3c-1.3,1-1.7,1.9-0.4,3c1.2-0.8,2.1-1.8,2-3.7
				c0-1.6,2-1.5,2.9-2.3c0.8-0.7,0.6-2.6,2.2-3c0.4-0.1,0.9-0.1,1.4-0.1c-0.2-2.6,0.8-3.5,3.4-3.3c-0.5-2.7,0.4-3.6,3.3-3.4l0,0
				c-0.2,0.4,0.2,0.3,0.4,0.4l0,0c0,0.2,0.1,0.4,0.4,0.4l0,0c0.8,2.7,0,3.7-2.8,3.7c0.5,2.4,0.1,3.1-2.4,3.7
				c-0.7,0.2-0.5,0.5-0.4,0.9c0,0.7,0,1.7-0.5,1.8c-2.6,0.5-2.3,3.5-4.1,4.5c-0.5,0.3-0.4,0.5-0.2,0.8c0.1,0.2,0.2,0.6,0.5,0.3
				c1-1.1,2.2-0.4,3.5-0.3c-0.4-1.2-0.7-2.4,0.1-3.4c0.8-1,2-1,3.1-0.9c-0.2-3.1,0.5-3.8,3.6-3.7c-0.7-2.8,0.3-3.9,3.3-3.5l0,0
				c-0.2,0.4,0.1,0.4,0.4,0.4l0,0c1.2,2.8,0.3,4.1-2.9,4c0.4,1.1,0.7,2.2-0.1,3.1c-0.8,1-1.9,0.9-3,0.8c0.7,3-0.3,4.2-3.5,4
				c0.2,1.1,0.1,2.1,1.8,1.3c1.5-0.6,2.6,0.5,3.1,2.5c3-0.9,4.1-0.3,4.4,2.6c1.1-0.9,2.3-1.5,3.5-0.4c0.7,0.6,1,1.6,0.5,2.4
				c-0.5,0.9-1.1,1.7-2.4,1.4c-1.5-0.4-2-1.4-1.9-2.9c-2.6,1.8-3.9,1.4-4.8-1.4c-2.6,1.3-3.8,0.8-4.7-2c-1.7,0.9-3.2,1-4.5-0.9
				c-0.9-1.3-1.3,0.8-2.5,0.1c0.7,0.8,1.3,1.2,1.4,1.7c0.3,0.8,0.8,0.9,1.5,0.7c2-0.6,2.5,2.1,3.7,2.1c1.8-0.1,3,0.1,3.6,1.9
				c0.2,0.6,0.5,0.4,0.9,0.2c2.1-0.6,3,0.1,3.4,2.5c1.1-0.5,2.3-1.2,3.4-0.2c1,0.8,0.9,1.9,0.6,3l0,0c-0.8,0.8-1.7,1.4-2.8,1
				c-1.1-0.4-1.5-1.3-1.5-2.4c-2.6,1.4-3.8,1-4.7-1.5c-2.3,1-2.6,1-4.3-1.1c-0.3-0.4-0.5-0.4-0.9-0.2c-1.5,0.6-2.8,0.2-3.6-1.3
				c-0.3-0.5-0.4-0.6-0.9-0.4c-0.8,0.3-0.1,0.6,0,0.9c0,0.1,0.1,0.2,0.2,0.3c1,1.8-1.4,3.2-1,4.1c0.6,1.7,0.9,2.9-0.6,4.1
				c-0.6,0.4-0.4,0.5-0.1,1c1.1,1.6,0.8,2.6-0.8,3.7c-0.6,0-1.3,0-1.9,0c-1.8-1-2.2-2.5-0.7-3.8c0.7-0.7,0.6-1,0-1.5
				c-0.4-0.4-0.8-1.3-0.5-1.6c1.3-1.6,0.7-3.3,0.5-5.1c-0.2-1.2,0.9-2,2.1-2.4c-0.4-0.7-0.7-1.2-1-1.9c-1,0.9-2.4,1.5-2,3.4
				c0.2,1-0.9,1.7-1.8,2.2c1.9,2.3,1.7,3.7-0.6,5c2,2.3,1.8,3.5-1,5c1.3,0.6,2,1.6,1.6,3c-0.3,1-1.1,1.5-2.2,1.5
				c-1.1-0.1-1.8-0.6-2-1.7c-0.3-1.4,0.3-2.4,1.7-2.8c-2.3-2.3-2.2-3.4,0.1-5c-2-2.1-2-3.6,0.4-5.1c-0.5-0.4-1-0.8-1.5-1.2
				c-1.4,2.8-2.6,3.1-5.3,1.2c-0.4,1.3-1.2,2.2-2.7,2.1C82,73.8,81.2,73.1,81,72c-0.2-1.1,0.1-2.1,1.1-2.6c1.3-0.7,2.4-0.3,3.4,0.9
				c0.4-1.2,1-2.2,2.2-2.5c1.3-0.3,2.2,0.4,3.3,1.8c-0.5-2.2,1.9-2.5,1.8-4.4c-1.4,0.9-2.7,1.6-4.1,0.5c-0.5-0.4-0.6,0.1-0.8,0.3
				c-1.1,1.2-2.3,1.5-3.7,0.6c-0.8-0.5-0.8,0-1.2,0.4c-1.3,1.5-2.7,1.4-4-0.2c-0.1-0.4-0.2-0.8-0.4-1.2c0.4-2.2,1.7-2.9,3.7-2
				c0.6,0.3,0.7,0.3,1-0.3c0.8-1.4,2.1-1.8,3.5-1c0.7,0.4,0.8-0.1,1.2-0.5c1.2-1.3,3.2-1.6,4-0.3c1,1.6,1.8,0.9,2.8,0.2
				c-0.8-1.1-1.4-2.2-3.3-2c-1.5,0.2-2.6-1.6-2.3-3.3c0.1-0.4,0.6-0.8-0.1-1.2c-2.4-1.4-2.5-1.7-1.8-4.2c-2.6-0.7-3.3-2.1-1.9-4.2
				c0.4,0,0.7-0.2,0.9-0.6c2.5-0.3,3.6,0.8,3.1,3.1c-0.2,0.7,0,0.7,0.6,0.8c0.9,0.1,2.2,0.8,2,1.5c-0.7,2.6,1.9,2.8,2.6,4.3
				c0.2,0.5,0.5,0.4,0.9,0.3c0.6-0.2,0.2-0.5,0.1-0.8c0-0.1-0.1-0.1-0.1-0.1c-0.3-1.7-0.8-3.2-2.3-4.6c-1-0.9-0.9-3.1-2.6-4.3
				c-0.8-0.5-0.5-2,0.4-2.8c0.2-0.1,0.4-0.3,0.6-0.4c2.3-0.6,3.7,0.7,3.3,2.8c-0.1,0.7-0.3,0.8,0.5,0.9c1.4,0.2,2.5,1.2,2.2,2.5
				c-0.3,1.7,0.5,1.7,1.6,1.7c0,0,0,0,0,0C99.5,51.6,99.7,51.9,100.1,51.5L100.1,51.5z M96.8,62.1c1.3,0.3,1.3,1.4,2,2
				c0.6-0.7,1.4-1.2,2.3-1.7c-1.1-0.5-1.3-1.4-1.9-2.3C98.8,61.2,97.9,61.6,96.8,62.1z"/>
		</g>
		<g>
			<path class="st1" d="M107,43.8c1,2.7-0.1,4.1-3.2,3.7c0.2,1.2,0.7,2.4-0.3,3.5c-1,1.1-2.2,1-3.4,0.5c0,0,0.1,0,0.1,0
				c-0.2-0.3-0.3-0.7-0.8-0.4c0,0,0,0,0,0c0.1-0.1,0.2-0.2,0.2-0.3c-1.1-3-0.1-4.5,3.1-4.3c-0.2-3.2,0.8-4.2,3.8-3.5
				c-0.2-1.2-0.8-2.4,0.4-3.4c1.1-0.9,2.2-0.4,3.3,0l0,0c1,3,0.1,4.1-2.8,3.9c-0.1-0.2-0.2-0.4-0.5-0.2
				C106.8,43.5,107,43.7,107,43.8z"/>
		</g>
		<g>
			<path class="st1" d="M85,55.5c0.3,0.4,0.6,0,0.9,0c1.5-0.1,2.6,0.6,2.9,2.1c0.3,1.2-0.2,2.3-1.4,2.8c-1.4,0.6-2.6,0.3-3.4-1
				c-0.1-0.2-0.3-0.4-0.4-0.7c-0.1,1.4-0.5,2.5-2,2.8c-1.8,0.4-2.5-0.9-3.1-2.1l0,0c0.9-3,2.6-3.5,5-1.3c0-0.9,0.9-1.4,0.7-2.4
				c0,0,0,0,0,0C84.8,56.3,85,56.1,85,55.5L85,55.5z"/>
		</g>
		<g>
			<path class="st1" d="M108.3,73.9c0,1.4-1.3,2.6-2.7,2.5c-1.5-0.1-2.6-1.3-2.5-2.7c0.1-1.4,1.4-2.5,2.8-2.4
				C107.2,71.3,108.4,72.6,108.3,73.9z"/>
		</g>
		<g>
			<path class="st1" d="M82.1,50.9c0.3,0.6,0.7,0,1.1,0c1.9,0.1,3,1.9,2.2,3.6c-0.1,0.3-0.7,0.5-0.4,1c0,0,0,0,0,0
				c-0.4-0.2-0.7-0.1-0.8,0.4c0,0,0,0,0,0c-1.3,0-2.5,0-3.2-1.4c-0.6-1.3,0-2.3,0.7-3.3l0,0C82,51.2,82.4,51.3,82.1,50.9L82.1,50.9z
				"/>
		</g>
		<g>
			<path class="st1" d="M105.3,76.8c1.3,0,2.4,1.1,2.4,2.4c0,1.4-1.1,2.6-2.5,2.5c-1.3-0.1-2.3-1.1-2.3-2.5
				C102.9,77.9,104,76.8,105.3,76.8z"/>
		</g>
		<g>
			<path class="st1" d="M116.7,56.6c1.3,0,2.4,1,2.5,2.3c0.1,1.4-1,2.5-2.5,2.5c-1.3,0-2.4-1.1-2.4-2.4
				C114.4,57.7,115.4,56.6,116.7,56.6z"/>
		</g>
		<g>
			<path class="st1" d="M89.9,76.3c0,1.3-1.1,2.3-2.4,2.4c-1.4,0-2.4-0.9-2.5-2.3c0-1.4,1.1-2.5,2.5-2.5
				C88.8,73.9,89.9,75,89.9,76.3z"/>
		</g>
		<g>
			<path class="st1" d="M113,77.5c-0.5-0.1-0.6,0.5-1,0.6c-1.1,0.6-2.2,0.5-3.1-0.4c-0.8-0.8-0.9-1.8-0.4-2.8
				c0.6-1.2,1.7-1.5,2.9-1.1c1.2,0.4,1.7,1.3,1.6,2.5C113.1,76.7,113,77.1,113,77.5L113,77.5z"/>
		</g>
		<g>
			<path class="st1" d="M98.8,46.6c-1.4,0-2.3-1.1-2.3-2.4c0-1.4,1.1-2.5,2.6-2.4c1.3,0.1,2.3,1.2,2.2,2.5
				C101.2,45.7,100.1,46.7,98.8,46.6z"/>
		</g>
		<g>
			<path class="st2" d="M86.4,46.3c-0.2,0.4-0.5,0.6-0.9,0.6c-0.1-0.1-0.1-0.3-0.2-0.3c-3.1-0.4-3.7-1.9-1.8-4.4l0,0.1
				c1.1-0.1,2.2-0.4,3.1,0.7C87.5,44.2,86.9,45.2,86.4,46.3z"/>
		</g>
		<g>
			<path class="st2" d="M91.7,43.2c-0.2,0.1-0.4,0.3-0.6,0.4c-0.6-0.1-1.1-0.1-1.7-0.3c-1.6-0.6-1.8-1.9-0.8-4l0,0
				c0.2,0,0.6,0.1,0.4-0.4l0,0.1c1.4,0,2.8-0.2,3.4,1.6C92.7,41.6,92.1,42.4,91.7,43.2z"/>
		</g>
		<g>
			<path class="st2" d="M121.7,58.8c1.5,0.1,2.3,0.9,2.4,2.2c0.1,1.4-0.8,2.2-2.2,2.4c-1.1,0.1-2.4-1-2.3-2.2
				C119.6,59.7,120.4,59,121.7,58.8z"/>
		</g>
		<g>
			<path class="st2" d="M98.2,82.5c0.6,0,1.3,0,1.9,0c-0.6,0.4-0.6,0.6,0,1c0.9,0.6,0.9,1.6,0.6,2.6c-0.4,0.9-1.2,1.4-2.1,1.3
				c-0.9,0-1.7-0.5-2-1.5c-0.3-1-0.1-1.9,0.7-2.6C97.6,83.1,98.2,83.2,98.2,82.5z"/>
		</g>
		<g>
			<path class="st1" d="M81.8,51.2c-0.3-0.5-0.6-0.1-0.9-0.1c-1.2,0.1-2.1-0.4-2.5-1.6c-0.4-1.1,0.1-2,1-2.6
				c0.9-0.6,1.8-0.5,2.6,0.3c0.9,0.9,1,1.8,0.4,2.9c-0.1,0.2-0.5,0.4-0.3,0.7c0,0,0,0,0,0C81.8,50.7,81.5,50.7,81.8,51.2L81.8,51.2z
				"/>
		</g>
		<g>
			<path class="st2" d="M78.9,65.5c0.1,0.4,0.2,0.8,0.4,1.2c-0.5,0-0.4,0.5-0.6,0.8c-1.1,1.9-2.8,1.9-4.2,0l0,0
				c-0.3-1.2,0-2.1,1-2.8C76.8,63.9,77.8,64.8,78.9,65.5z"/>
		</g>
		<g>
			<path class="st2" d="M78.5,59.5c0,0.4,0,0.8-0.1,1.2c-0.2,1.1-0.9,1.8-2,1.9c-1.1,0.1-1.9-0.5-2.3-1.6c-0.4-1.1,0-1.9,0.9-2.5
				c0.9-0.7,1.9-0.5,2.8,0.2C78,59,78,59.6,78.5,59.5C78.6,59.6,78.5,59.5,78.5,59.5z"/>
		</g>
		<g>
			<path class="st1" d="M77.6,56.6c-1.3,0-2.4-1-2.3-2.3c0.1-1.3,0.8-2.1,2.1-2.2c1.3-0.1,2.4,0.9,2.4,2.1
				C79.9,55.5,78.8,56.6,77.6,56.6z"/>
		</g>
		<g>
			<path class="st1" d="M79.9,77.6c0-1.3,1.1-2.3,2.3-2.3c1.2,0.1,2.2,1.2,2.1,2.4c-0.1,1.3-0.9,2-2.2,2.1
				C80.8,80,79.8,78.9,79.9,77.6z"/>
		</g>
		<g>
			<path class="st2" d="M102.5,41.9c-1.4,0-2.3-0.8-2.3-2.2c0-1.3,0.7-2.2,2.2-2.3c1.4,0,2.2,0.9,2.3,2.2
				C104.8,40.8,103.7,41.9,102.5,41.9z"/>
		</g>
		<g>
			<path class="st1" d="M89,81.8c0,1.3-0.8,2-2.2,2.1c-1.2,0.1-2.3-1-2.3-2.3c0-1.4,0.8-2.1,2.1-2.2C88,79.3,89,80.3,89,81.8z"/>
		</g>
		<g>
			<path class="st1" d="M107,84.5c0,1.3-1.2,2.4-2.4,2.2c-1.2-0.2-2.1-0.9-2.1-2.3c0-1.4,0.9-2.2,2.3-2.3
				C106.1,82.1,107.1,83.2,107,84.5z"/>
		</g>
		<g>
			<path class="st1" d="M122.8,55c0,1.3-1,2.4-2.3,2.2c-1.3-0.1-2.1-0.8-2.2-2.2c0-1.4,0.8-2.2,2.2-2.3
				C121.9,52.6,122.8,53.7,122.8,55z"/>
		</g>
		<g>
			<path class="st1" d="M113,77.5c0.7,0,0.6-0.8,1-1c0.9-0.6,1.8-0.8,2.7-0.2c0.9,0.5,1.3,1.4,1,2.5c-0.3,1.1-1.1,1.7-2.2,1.7
				c-1.1,0-1.8-0.6-2.1-1.6C113.2,78.4,113.4,77.8,113,77.5C113,77.5,113,77.5,113,77.5z"/>
		</g>
		<g>
			<path class="st1" d="M112.8,82.4c-0.1,1-0.8,1.8-2.2,1.8c-1.2,0-2.3-1-2.2-2.3c0.1-1.3,0.8-2.1,2.2-2.2
				C111.8,79.7,112.8,80.7,112.8,82.4z"/>
		</g>
		<g>
			<path class="st1" d="M76.3,72.6c0-1.3,1-2.4,2.2-2.3c1.4,0,2.1,0.9,2.2,2.3c0.1,1.4-0.8,2.1-2.1,2.3
				C77.5,74.9,76.3,73.8,76.3,72.6z"/>
		</g>
		<g>
			<path class="st1" d="M96.3,37.4c1.2,0.1,2.1,0.8,2.1,2.2c0,1.4-0.8,2.2-2.2,2.2c-1.3,0-2.1-0.8-2.2-2.1
				C93.9,38.4,94.9,37.4,96.3,37.4z"/>
		</g>
		<g>
			<path class="st1" d="M121.2,74.3c0.6,0.2,0.6-0.5,0.8-0.7c0.8-0.8,1.7-0.9,2.6-0.4c0.9,0.5,1.2,1.3,1,2.3
				c-0.2,0.9-0.9,1.6-1.9,1.6c-1.1,0.1-1.7-0.5-2.2-1.5C121.4,75.1,121.7,74.6,121.2,74.3C121.2,74.3,121.2,74.3,121.2,74.3z"/>
		</g>
		<g>
			<path class="st2" d="M99.8,36.8c-1.3-0.1-2.1-0.9-2.1-2.1c0-1.2,0.8-2,2-2.1c1.2,0,2,0.7,2.1,1.9
				C101.9,35.8,101.1,36.6,99.8,36.8z"/>
		</g>
		<g>
			<path class="st2" d="M71.4,63.6c-1.4-0.1-2.1-0.9-2.1-2.1c0-1.3,0.8-2.1,2.2-2.1c1.3,0.1,2.1,0.9,2,2.2
				C73.4,63,72.5,63.5,71.4,63.6z"/>
		</g>
		<g>
			<path class="st1" d="M112.3,87.8c-0.1,1-0.8,1.7-2,1.8c-1.2,0.1-2.2-1-2.1-2.2c0.1-1.3,0.9-2,2.1-2
				C111.4,85.4,112.3,86.4,112.3,87.8z"/>
		</g>
		<g>
			<path class="st1" d="M124,56.9c0.2-1.2,0.8-2,2.1-2c1.4,0,2.1,0.9,2.1,2.2c0,1.3-0.9,1.9-2.1,1.9C124.8,58.9,124.1,58.1,124,56.9
				z"/>
		</g>
		<g>
			<path class="st1" d="M126.5,60.9c1.3,0.1,2.1,0.8,2.2,2c0.1,1.3-0.7,2-1.9,2.2c-1.1,0.2-2.2-0.9-2.2-2.1
				C124.6,61.8,125.4,61.2,126.5,60.9z"/>
		</g>
		<g>
			<path class="st1" d="M114.9,42.6c0.5-0.4-0.1-0.7-0.1-1.1c-0.1-1.4,0.8-2.5,2-2.4c1.3,0.1,2.1,0.7,2.1,2.2c0,1.3-1,2.1-2.4,2
				c-0.3,0-0.6-0.5-0.9,0c0,0,0,0,0,0c0.3-0.5,0-0.5-0.4-0.4c0,0,0,0,0,0C115.3,42.6,115.4,42.3,114.9,42.6L114.9,42.6z"/>
		</g>
		<g>
			<path class="st1" d="M119.2,47.3c0.4-0.5-0.1-0.8-0.1-1.2c-0.1-1.4,0.7-2.4,2-2.4c1.4,0,2.1,0.8,2.1,2.1c0,1.3-1,2.1-2.4,2
				c-0.4,0-0.8-0.6-1.2-0.1c0,0,0,0,0,0c0-0.1,0.2-0.2,0-0.4C119.4,47,119.3,47.2,119.2,47.3L119.2,47.3z"/>
		</g>
		<g>
			<path class="st1" d="M127.8,69.3c-0.1,1.2-0.8,2-2.1,1.9c-1.4,0-2.1-0.9-2-2.2c0.1-1.2,0.9-2,2.2-1.9
				C127.1,67.2,127.8,68,127.8,69.3z"/>
		</g>
		<g>
			<path class="st1" d="M115.4,86.5c-1.1-0.2-1.9-0.9-1.9-2.1c0-1.2,0.8-2,2.1-2c1.2,0,2.2,1,2.1,2.2
				C117.5,85.8,116.8,86.5,115.4,86.5z"/>
		</g>
		<g>
			<path class="st1" d="M105.7,33.5c1.4,0,2.1,0.7,2.2,1.9c0.1,1.2-0.9,2.2-2.1,2.2c-1.3,0-2-0.9-2-2
				C103.8,34.4,104.5,33.5,105.7,33.5z"/>
		</g>
		<g>
			<path class="st1" d="M110.2,39.7c0.4-0.5-0.2-0.7-0.4-1c-0.4-1-0.3-1.9,0.5-2.6c0.8-0.6,1.6-0.7,2.5-0.1c0.8,0.6,1.2,1.3,0.8,2.3
				c-0.4,1.1-1.2,1.5-2.4,1.4C110.9,39.7,110.6,39.1,110.2,39.7C110.2,39.7,110.2,39.7,110.2,39.7z"/>
		</g>
		<g>
			<path class="st1" d="M104.3,91.5c-1.2-0.1-2-0.8-2-2c0-1.3,0.7-2,2-2.1c1.4-0.1,2.2,0.8,2.2,2.1
				C106.4,90.7,105.6,91.4,104.3,91.5z"/>
		</g>
		<g>
			<path class="st1" d="M88.3,87c-0.1,1.1-0.7,1.9-2,1.9c-1.4,0-2.1-0.8-2.1-2.1c0-1.3,0.9-2,2.1-2C87.5,84.8,88.3,85.5,88.3,87z"/>
		</g>
		<g>
			<path class="st1" d="M75.8,73.6c-0.1,1.3-0.8,2.1-2.1,2c-1.3,0-2-0.8-2-2c0-1.4,0.9-2.1,2.1-2.1C75.1,71.6,75.7,72.4,75.8,73.6z"
				/>
		</g>
		<g>
			<path class="st1" d="M76.5,49.7c-0.1,1.3-0.8,2-2,2c-1.3,0-2-0.7-2-2c0-1.3,0.7-2.1,2.1-2.1C75.8,47.6,76.4,48.4,76.5,49.7z"/>
		</g>
		<g>
			<path class="st1" d="M78.1,46.5c-1.6,0-2.3-0.8-2.3-2c-0.1-1.2,0.6-2.1,1.9-2.1c1.4,0,2.2,0.7,2.2,2.1
				C79.9,45.8,79.1,46.4,78.1,46.5z"/>
		</g>
		<g>
			<path class="st1" d="M83.3,83.5c-0.2,1.2-0.9,2-2.1,2c-1.4,0-2-0.9-2-2.2c0.1-1.3,0.9-1.9,2.1-1.9C82.5,81.5,83.1,82.3,83.3,83.5
				z"/>
		</g>
		<g>
			<path class="st1" d="M74.4,67.5c-0.6-0.1-0.4,0.4-0.5,0.7c-0.3,1.2-1.1,1.7-2.2,1.6c-1-0.1-1.8-0.7-1.8-1.8
				c-0.1-1.1,0.4-1.9,1.4-2.2c1.1-0.4,1.9,0.1,2.5,1.1C73.9,67.1,73.8,67.7,74.4,67.5C74.4,67.5,74.4,67.5,74.4,67.5z"/>
		</g>
		<g>
			<path class="st1" d="M74.9,79.2c0-1.5,0.8-2.2,1.9-2.3c1.2-0.1,2.1,0.6,2.1,1.9c0.1,1.4-0.7,2.2-2,2.2C75.7,81,75,80.3,74.9,79.2
				z"/>
		</g>
		<g>
			<path class="st1" d="M72.1,53.3c1.3,0.2,2.1,0.8,2.2,2.1c0,1.4-0.8,2.1-2.1,2.1c-1.2-0.1-2-0.8-2-2.1
				C70.2,54.1,71.1,53.5,72.1,53.3z"/>
		</g>
		<g>
			<path class="st1" d="M88.6,39.3c-0.2-0.5-0.6-0.1-0.9-0.2c-1-0.1-1.8-0.5-2-1.6c-0.2-1,0.1-1.8,1-2.3c0.8-0.5,1.6-0.3,2.3,0.3
				c0.9,0.7,0.9,1.6,0.5,2.6c-0.1,0.3-0.4,0.6-0.5,0.9c0,0,0-0.1,0-0.1C88.7,39,88.4,38.9,88.6,39.3L88.6,39.3z"/>
		</g>
		<g>
			<path class="st1" d="M120,82.2c-1.2-0.1-1.9-0.8-1.9-2c0-1.3,0.7-2,2-2.1c1.3,0,2.1,0.7,2.1,2.1C122.1,81.6,121.3,82.1,120,82.2z
				"/>
		</g>
		<g>
			<path class="st1" d="M93.4,37.2c-1.1-0.1-1.9-0.8-1.9-2c0-1.3,0.8-2.1,2.2-2.1c1.3,0,2,0.9,1.9,2.1
				C95.6,36.5,94.9,37.2,93.4,37.2z"/>
		</g>
		<g>
			<path class="st1" d="M100.3,90c0,1.2-0.7,1.9-2,2c-1.3,0-2.1-0.6-2.1-1.9c-0.1-1.4,0.7-2.1,2-2.2C99.5,87.9,100.1,88.7,100.3,90z
				"/>
		</g>
		<g>
			<path class="st1" d="M83.6,42.2c-0.3,0-0.7,0-1,0c-1.1,0.1-1.9-0.4-2.2-1.4c-0.3-1,0-1.9,1-2.4c0.9-0.5,1.8-0.3,2.5,0.4
				c0.7,0.8,0.7,1.7,0.2,2.6C83.9,41.7,83.4,41.8,83.6,42.2C83.6,42.3,83.6,42.2,83.6,42.2z"/>
		</g>
		<g>
			<path class="st1" d="M92.1,87.1c1.4,0.1,2,1,2,2.2c-0.1,1.2-0.9,2-2.1,1.9c-1.4-0.1-2-0.9-1.9-2.3C90.2,87.6,91,87,92.1,87.1z"/>
		</g>
		<g>
			<path class="st1" d="M124.1,53c-1.3-0.1-2-0.9-2-2.2c0-1.2,0.8-2,2.1-1.9c1.3,0,2,0.9,2,2.1C126.3,52.1,125.6,53,124.1,53z"/>
		</g>
		<g>
			<path class="st2" d="M97.2,31.8c-1.4-0.1-2.1-0.8-2.1-1.9c0-1,0.6-1.8,1.8-1.8c1.3,0,1.9,0.7,2,1.8C99,31.1,98.3,31.7,97.2,31.8z
				"/>
		</g>
		<g>
			<path class="st2" d="M69.1,72.8c1.1,0.2,1.9,0.8,1.8,2c0,1.1-0.7,1.8-1.8,1.8c-1.2,0-2-0.7-2-1.9C67.1,73.6,67.8,72.9,69.1,72.8z
				"/>
		</g>
		<g>
			<path class="st2" d="M91.6,92c1.2,0.1,2,0.7,2,1.8c0,1.2-0.7,1.9-1.9,1.9c-1.1,0-1.8-0.7-1.9-1.7C89.7,92.9,90.4,92.2,91.6,92z"
				/>
		</g>
		<g>
			<path class="st2" d="M77.7,84.9c-0.1,1.1-0.7,1.9-1.9,1.9c-1.2,0-1.9-0.7-1.9-1.9c0-1.1,0.7-1.8,1.8-1.9
				C76.8,83,77.5,83.7,77.7,84.9z"/>
		</g>
		<g>
			<path class="st2" d="M85.1,31c1.2,0.1,1.9,0.8,2,1.9c0,1.1-0.7,2-1.8,2c-1.1,0-2-0.7-2-1.8C83.3,31.9,84,31.2,85.1,31z"/>
		</g>
		<g>
			<path class="st2" d="M105.2,30.2c-0.1,1.2-0.8,1.9-2,1.9c-1.1,0-1.8-0.7-1.8-1.8c0-1.2,0.7-2,1.9-2
				C104.4,28.2,105.1,29,105.2,30.2z"/>
		</g>
		<g>
			<path class="st1" d="M130.2,72.9c-1.3-0.1-1.9-0.8-1.9-2c0-1.1,0.7-1.8,1.8-1.8c1.2,0,1.9,0.7,1.9,1.9
				C132.1,72.3,131.4,72.9,130.2,72.9z"/>
		</g>
		<g>
			<path class="st2" d="M131.5,67c-1.2-0.2-2-0.8-2-2c0-1.2,0.7-1.9,1.9-1.9c1.1,0,1.8,0.7,1.8,1.8C133.2,66.2,132.5,66.7,131.5,67z
				"/>
		</g>
		<g>
			<path class="st2" d="M127.6,45.2c1.1,0.2,2,0.8,1.9,2c0,1.1-0.7,1.9-1.9,1.9c-1.2,0-1.9-0.8-1.9-1.9
				C125.8,46,126.5,45.3,127.6,45.2z"/>
		</g>
		<g>
			<path class="st1" d="M129.9,76.7c-0.1,1.4-0.8,2.1-2.1,2.1c-1.1,0-1.8-0.8-1.8-1.8c0-1.1,0.6-2,1.8-2
				C129.1,74.9,129.7,75.7,129.9,76.7z"/>
		</g>
		<g>
			<path class="st1" d="M69,56.6c-0.1,1.1-0.7,1.9-1.9,1.8c-1.2-0.1-1.8-0.8-1.8-2c0-1.1,0.7-1.7,1.8-1.7
				C68.3,54.7,68.9,55.3,69,56.6z"/>
		</g>
		<g>
			<path class="st2" d="M111.2,31.5c-0.3,1.2-0.9,2-2,1.9c-1.1-0.1-1.9-0.8-1.8-2c0.1-1.2,0.8-1.9,2-1.8
				C110.5,29.7,111,30.5,111.2,31.5z"/>
		</g>
		<g>
			<path class="st2" d="M85.8,93.9c-1.1-0.2-1.9-0.7-1.9-2c0.1-1.2,0.8-1.9,2-1.8c1.1,0,1.8,0.8,1.8,1.8
				C87.7,93.1,87,93.8,85.8,93.9z"/>
		</g>
		<g>
			<path class="st1" d="M97.7,96.6c-1.1,0-1.9-0.7-1.9-1.9c0-1.1,0.7-1.9,1.9-1.9c1.2,0,1.8,0.7,1.9,1.8
				C99.7,95.7,99.1,96.5,97.7,96.6z"/>
		</g>
		<g>
			<path class="st2" d="M73.8,80.2c-0.2,1.1-0.9,1.9-2,1.8c-1.1,0-1.9-0.8-1.8-2c0.1-1.1,0.8-1.9,2-1.8
				C73.1,78.3,73.7,79.1,73.8,80.2z"/>
		</g>
		<g>
			<path class="st1" d="M67.3,66.9c1.1,0.1,1.9,0.8,1.8,1.9c-0.1,1.2-0.8,1.8-2,1.8c-1.2,0-1.8-0.8-1.8-1.8
				C65.3,67.7,66,66.9,67.3,66.9z"/>
		</g>
		<g>
			<path class="st2" d="M131.1,60.7c-1.1-0.1-1.9-0.8-1.8-2c0.1-1.1,0.9-1.8,2.1-1.8c1.1,0.1,1.7,0.9,1.7,1.9
				C133.1,60,132.4,60.7,131.1,60.7z"/>
		</g>
		<g>
			<path class="st1" d="M71.7,46.9c-1.4,0-2.1-0.7-2.1-1.8c0-1.1,0.7-1.9,1.9-1.9c1.2,0,1.8,0.7,1.9,1.8
				C73.5,46.1,72.8,46.9,71.7,46.9z"/>
		</g>
		<g>
			<path class="st2" d="M117.4,90.2c-0.2,1.3-0.9,2-2,1.9c-1.1-0.1-1.8-0.8-1.8-1.9c0-1.1,0.7-2,1.9-1.9
				C116.7,88.4,117.3,89.2,117.4,90.2z"/>
		</g>
		<g>
			<path class="st2" d="M92.9,30.9c-0.2,1.1-0.8,1.9-1.9,1.9c-1.2,0-1.9-0.8-1.9-1.9c0-1.1,0.8-1.9,1.9-1.9
				C92.1,29,92.8,29.7,92.9,30.9z"/>
		</g>
		<g>
			<path class="st1" d="M122.7,82.1c0.1-1.2,0.8-1.9,2-1.9c1.1,0,1.8,0.7,1.8,1.8c0,1.1-0.6,1.9-1.8,2
				C123.5,84,122.9,83.3,122.7,82.1z"/>
		</g>
		<g>
			<path class="st1" d="M116.8,34.1c-0.1,1.3-0.9,1.9-2,1.9c-1.1-0.1-1.8-0.9-1.7-2.1c0.1-1.1,0.8-1.7,1.9-1.7
				C116.2,32.2,116.7,33,116.8,34.1z"/>
		</g>
		<g>
			<path class="st1" d="M80.3,87.1c1.5,0,2.1,0.8,2.1,1.9c0,1.1-0.8,1.9-2,1.8c-1.1-0.1-1.8-0.8-1.8-1.9
				C78.6,87.8,79.3,87.1,80.3,87.1z"/>
		</g>
		<g>
			<path class="st1" d="M70.7,50.5c-0.1,1.3-0.8,2-1.9,2c-1.2,0-1.9-0.8-1.9-2c0-1.1,0.7-1.8,1.8-1.8C69.9,48.6,70.5,49.4,70.7,50.5
				z"/>
		</g>
		<g>
			<path class="st2" d="M122.4,86.5c-0.1,1.2-0.8,2-1.9,2c-1.1,0-1.9-0.6-1.9-1.7c-0.1-1.2,0.6-2,1.8-2.1
				C121.6,84.6,122.2,85.4,122.4,86.5z"/>
		</g>
		<g>
			<path class="st1" d="M126.1,41.9c-0.1,1.3-0.7,2-1.9,2c-1.1,0-1.8-0.7-1.8-1.8c0-1.2,0.6-1.9,1.8-2C125.4,40,126,40.8,126.1,41.9
				z"/>
		</g>
		<g>
			<path class="st1" d="M75.2,38.2c1.1,0.2,1.9,0.7,2,1.9c0,1.1-0.6,1.9-1.7,1.9c-1.1,0.1-2-0.5-2.1-1.7
				C73.3,39.1,74,38.5,75.2,38.2z"/>
		</g>
		<g>
			<path class="st1" d="M121.8,37.4c-0.1,1.4-0.8,2.1-2,2c-1.2-0.1-1.8-0.8-1.8-2c0.1-1.1,0.7-1.7,1.9-1.7
				C121.2,35.7,121.7,36.4,121.8,37.4z"/>
		</g>
		<g>
			<path class="st1" d="M104.1,96.2c-1.4,0-2.1-0.8-2.1-1.9c0-1.1,0.7-1.9,2-1.8c1.1,0.1,1.8,0.7,1.8,1.8
				C105.8,95.5,105.1,96.2,104.1,96.2z"/>
		</g>
		<g>
			<path class="st1" d="M131.9,52.9c-0.1,1.2-0.9,1.8-2,1.8c-1,0-1.8-0.7-1.8-1.9c0-1.2,0.7-1.9,1.9-1.9
				C131.2,50.9,131.8,51.6,131.9,52.9z"/>
		</g>
		<g>
			<path class="st1" d="M109.8,91c1.2,0.1,1.9,0.7,1.9,1.9c0,1.1-0.6,1.8-1.7,1.8c-1.2,0-1.9-0.6-2-1.8
				C108,91.7,108.7,91.1,109.8,91z"/>
		</g>
		<g>
			<path class="st1" d="M79.7,38c-1.1-0.1-1.7-0.8-1.7-2c0.1-1.1,0.7-1.7,1.8-1.7c1.2,0,1.9,0.7,1.9,1.9C81.7,37.4,81,37.9,79.7,38z
				"/>
		</g>
		<g>
			<path class="st1" d="M66.5,64.5c-1.2-0.1-1.8-0.8-1.8-2c0.1-1.2,0.8-1.8,2-1.7c1.1,0.1,1.7,0.8,1.7,1.9
				C68.4,63.9,67.7,64.5,66.5,64.5z"/>
		</g>
		<g>
			<path class="st2" d="M134.2,78.7c-0.2,1-0.7,1.8-1.8,1.8c-1,0-1.7-0.6-1.7-1.7c0-1.1,0.6-1.8,1.8-1.8
				C133.5,77,134,77.7,134.2,78.7z"/>
		</g>
		<g>
			<path class="st2" d="M117.4,96.6c-0.2,1.1-0.8,1.8-1.8,1.8c-1,0-1.7-0.7-1.7-1.7c0-1.1,0.7-1.8,1.8-1.8
				C116.7,94.9,117.3,95.6,117.4,96.6z"/>
		</g>
		<g>
			<path class="st2" d="M129.2,38.4c-0.2,1-0.7,1.7-1.8,1.6c-1.1,0-1.8-0.8-1.7-1.9c0.1-1,0.8-1.6,1.8-1.6
				C128.6,36.6,129.1,37.3,129.2,38.4z"/>
		</g>
		<g>
			<path class="st2" d="M65.7,44.1c1,0.2,1.7,0.7,1.7,1.8c0,1-0.6,1.7-1.7,1.7c-1.1,0-1.8-0.7-1.8-1.8
				C63.9,44.8,64.6,44.2,65.7,44.1z"/>
		</g>
		<g>
			<path class="st2" d="M63.4,53.4c-1-0.1-1.7-0.6-1.8-1.6c-0.1-1.2,0.6-1.8,1.7-1.9c1,0,1.7,0.7,1.7,1.7
				C65.1,52.6,64.5,53.2,63.4,53.4z"/>
		</g>
		<g>
			<path class="st2" d="M62,55.8c1,0.1,1.7,0.6,1.8,1.6c0.1,1.1-0.5,1.8-1.5,1.8c-1.1,0.1-1.9-0.5-1.9-1.6
				C60.3,56.6,61,56.1,62,55.8z"/>
		</g>
		<g>
			<path class="st2" d="M111.3,98c-0.1,0.9-0.6,1.7-1.6,1.8c-1.2,0.1-1.8-0.6-1.9-1.7c-0.1-1.1,0.7-1.7,1.7-1.7
				C110.4,96.2,111.1,96.9,111.3,98z"/>
		</g>
		<g>
			<path class="st2" d="M85.3,98.7c-1.1-0.1-1.7-0.8-1.7-1.8c0-1.1,0.7-1.7,1.7-1.7c1.1,0,1.8,0.7,1.8,1.8
				C87,98,86.4,98.6,85.3,98.7z"/>
		</g>
		<g>
			<path class="st2" d="M96.2,25.3c-0.1,1-0.6,1.7-1.6,1.8c-1.2,0-1.8-0.6-1.8-1.7c0-1.1,0.7-1.7,1.7-1.7
				C95.5,23.6,96.1,24.3,96.2,25.3z"/>
		</g>
		<g>
			<path class="st2" d="M84.4,28.7c0,1.3-0.6,1.8-1.6,1.9c-1,0-1.7-0.5-1.7-1.6c0-1.1,0.6-1.8,1.7-1.8
				C83.7,27.1,84.4,27.7,84.4,28.7z"/>
		</g>
		<g>
			<path class="st1" d="M105.2,99.2c-0.1,1.1-0.6,1.7-1.7,1.7c-1,0-1.7-0.5-1.7-1.6c0-1.1,0.6-1.8,1.7-1.8
				C104.6,97.6,105.1,98.2,105.2,99.2z"/>
		</g>
		<g>
			<path class="st1" d="M74.9,88.9c1.1,0.1,1.7,0.8,1.7,1.8c0,1.1-0.8,1.7-1.9,1.6c-1.1-0.1-1.6-0.8-1.5-1.8
				C73.2,89.5,73.9,89,74.9,88.9z"/>
		</g>
		<g>
			<path class="st2" d="M62.6,68.1c1.1,0.2,1.8,0.8,1.7,2c-0.1,1.1-0.8,1.6-1.8,1.5c-1-0.1-1.6-0.7-1.6-1.8
				C60.9,68.7,61.6,68.2,62.6,68.1z"/>
		</g>
		<g>
			<path class="st2" d="M74.5,35.9c-0.2,1.1-0.8,1.7-1.8,1.7c-1.1,0-1.7-0.7-1.7-1.7c0-1.1,0.7-1.7,1.9-1.7
				C74,34.3,74.3,35.1,74.5,35.9z"/>
		</g>
		<g>
			<path class="st2" d="M123.1,35.7c-1.1-0.2-1.8-0.8-1.7-1.9c0.1-1.1,0.8-1.6,1.8-1.6c1,0.1,1.7,0.7,1.7,1.8
				C124.8,35,124.2,35.6,123.1,35.7z"/>
		</g>
		<g>
			<path class="st2" d="M129.3,85.8c-1,0-1.8-0.5-1.8-1.6c-0.1-1.1,0.6-1.8,1.7-1.8c1.1,0,1.7,0.7,1.7,1.6
				C131,85,130.4,85.7,129.3,85.8z"/>
		</g>
		<g>
			<path class="st2" d="M130.9,45.1c-0.9-0.3-1.6-0.7-1.6-1.8c0.1-1.1,0.8-1.8,1.9-1.7c1,0.1,1.6,0.8,1.6,1.9
				C132.6,44.4,131.9,45,130.9,45.1z"/>
		</g>
		<g>
			<path class="st2" d="M135.5,56.4c-1.2,0-1.8-0.6-1.8-1.7c0-1,0.6-1.7,1.6-1.8c1.1,0,1.8,0.6,1.8,1.7
				C137.2,55.8,136.4,56.3,135.5,56.4z"/>
		</g>
		<g>
			<path class="st2" d="M68.7,81.3C68.5,82.4,68,83,66.9,83c-1.1,0-1.7-0.7-1.7-1.7c0-1.1,0.7-1.8,1.9-1.7
				C68.2,79.7,68.6,80.4,68.7,81.3z"/>
		</g>
		<g>
			<path class="st2" d="M118.2,32.1c-1.1-0.1-1.8-0.7-1.9-1.6c-0.1-1,0.5-1.8,1.6-1.8c1.1-0.1,1.8,0.6,1.9,1.7
				C119.9,31.4,119.2,31.9,118.2,32.1z"/>
		</g>
		<g>
			<path class="st2" d="M127,88.8c-0.2,0.9-0.7,1.6-1.8,1.6c-1.1,0-1.7-0.6-1.7-1.7c0-1.2,0.7-1.7,1.8-1.7
				C126.4,87.1,126.9,87.8,127,88.8z"/>
		</g>
		<g>
			<path class="st2" d="M70.2,84.6c1.4,0,2,0.6,2.1,1.6c0,1-0.5,1.7-1.6,1.7c-1.1,0-1.8-0.6-1.8-1.7C68.8,85.2,69.5,84.7,70.2,84.6z
				"/>
		</g>
		<g>
			<path class="st1" d="M81.6,94.2c-0.1,1.1-0.7,1.7-1.8,1.7c-1,0-1.7-0.6-1.7-1.7c0-1.1,0.7-1.7,1.8-1.7
				C81.1,92.6,81.5,93.3,81.6,94.2z"/>
		</g>
		<g>
			<path class="st2" d="M91.3,96.9c1,0.2,1.7,0.7,1.7,1.8c0,1.1-0.6,1.7-1.7,1.7c-1.1,0-1.7-0.7-1.7-1.8
				C89.6,97.5,90.4,97.1,91.3,96.9z"/>
		</g>
		<g>
			<path class="st1" d="M137.6,66.9c-0.1,1.2-0.7,1.8-1.7,1.8c-1,0-1.7-0.6-1.7-1.7c0-1.1,0.7-1.8,1.8-1.7
				C137.1,65.3,137.6,66,137.6,66.9z"/>
		</g>
		<g>
			<path class="st2" d="M68.6,42.3c-1-0.1-1.6-0.7-1.6-1.7c0-1,0.6-1.7,1.7-1.7c1.2,0,1.8,0.7,1.7,1.8
				C70.4,41.7,69.8,42.4,68.6,42.3z"/>
		</g>
		<g>
			<path class="st2" d="M77.5,33.7c-1.4-0.2-1.9-0.9-1.8-1.9c0.1-1,0.8-1.6,1.8-1.5c1.1,0.1,1.8,0.8,1.6,1.9
				C79,33.2,78.3,33.8,77.5,33.7z"/>
		</g>
		<g>
			<path class="st2" d="M134.2,71.2c1.5,0,2.2,0.6,2.2,1.6c0,1.1-0.6,1.8-1.8,1.7c-1.1,0-1.7-0.8-1.7-1.7
				C133,72,133.5,71.2,134.2,71.2z"/>
		</g>
		<g>
			<path class="st1" d="M108.4,25.9c0,1.1-0.6,1.7-1.7,1.7c-1.1,0.1-1.8-0.7-1.8-1.8c0-1,0.7-1.6,1.7-1.6
				C107.7,24.2,108.3,24.8,108.4,25.9z"/>
		</g>
		<g>
			<path class="st1" d="M122.3,92.8c-0.2,0.9-0.7,1.7-1.8,1.6c-1.2-0.1-1.7-0.8-1.7-1.9c0.1-1.1,0.8-1.5,1.8-1.5
				C121.8,91,122.1,91.8,122.3,92.8z"/>
		</g>
		<g>
			<path class="st2" d="M61.8,62c1,0.2,1.7,0.7,1.7,1.8c0,1.2-0.8,1.8-1.8,1.7c-1,0-1.6-0.7-1.6-1.8C60.1,62.6,60.9,62.2,61.8,62z"
				/>
		</g>
		<g>
			<path class="st1" d="M66,75.8c0,1.1-0.6,1.7-1.7,1.7c-1.1,0-1.7-0.6-1.7-1.8c0-1.1,0.7-1.6,1.7-1.6C65.4,74.1,66,74.7,66,75.8z"
				/>
		</g>
		<g>
			<path class="st2" d="M97.3,97.8c1,0.1,1.7,0.6,1.8,1.6c0,1.1-0.6,1.8-1.7,1.8c-1.1,0-1.6-0.7-1.7-1.7
				C95.6,98.5,96.2,97.9,97.3,97.8z"/>
		</g>
		<g>
			<path class="st1" d="M135.4,48.7c-0.1,1.1-0.6,1.8-1.7,1.8c-1.1,0-1.8-0.7-1.7-1.8c0-1,0.7-1.6,1.7-1.6
				C134.8,47.2,135.3,47.8,135.4,48.7z"/>
		</g>
		<g>
			<path class="st1" d="M136,59.1c1.1,0.1,1.8,0.6,1.8,1.6c0.1,1.2-0.6,1.8-1.7,1.8c-1,0-1.7-0.6-1.7-1.7
				C134.5,59.8,135.1,59.2,136,59.1z"/>
		</g>
		<g>
			<path class="st1" d="M102.3,25c-0.1,1-0.5,1.7-1.6,1.8c-1.1,0-1.7-0.5-1.8-1.6c0-1.1,0.5-1.7,1.6-1.8
				C101.6,23.4,102.1,24,102.3,25z"/>
		</g>
		<g>
			<path class="st1" d="M88.3,24.9c1.1,0,1.7,0.6,1.8,1.6c0.1,1-0.5,1.7-1.5,1.8c-1.1,0.1-1.8-0.5-1.8-1.7
				C86.7,25.6,87.3,25,88.3,24.9z"/>
		</g>
		<g>
			<path class="st1" d="M114.3,27.6c-0.1,1.2-0.6,1.8-1.7,1.7c-1,0-1.7-0.6-1.7-1.6c0-1.1,0.6-1.8,1.8-1.7
				C113.7,26,114.2,26.7,114.3,27.6z"/>
		</g>
		<g>
			<path class="st2" d="M135.3,86c-0.2,0.9-0.7,1.6-1.7,1.6c-1-0.1-1.5-0.7-1.5-1.7c0.1-0.9,0.7-1.4,1.6-1.4
				C134.7,84.4,135.2,85,135.3,86z"/>
		</g>
		<g>
			<path class="st1" d="M136.8,78.9c0.9,0.1,1.6,0.6,1.6,1.6c0,0.9-0.5,1.6-1.5,1.6c-1,0-1.6-0.5-1.6-1.5
				C135.3,79.7,135.9,79.2,136.8,78.9z"/>
		</g>
		<g>
			<path class="st2" d="M140.7,74.9c-0.2,0.9-0.7,1.6-1.7,1.5c-1-0.1-1.5-0.7-1.4-1.7c0.1-0.9,0.7-1.4,1.6-1.4
				C140.1,73.3,140.6,73.9,140.7,74.9z"/>
		</g>
		<g>
			<path class="st2" d="M66,34.6c1,0.1,1.6,0.7,1.6,1.6c0,0.9-0.6,1.5-1.4,1.5c-1,0.1-1.6-0.5-1.7-1.5C64.4,35.3,65.1,34.8,66,34.6z
				"/>
		</g>
		<g>
			<path class="st2" d="M80.4,26.3c-1.1,0-1.7-0.6-1.8-1.5c0-0.9,0.6-1.6,1.6-1.6c0.9,0,1.5,0.6,1.5,1.4
				C81.9,25.6,81.2,26.1,80.4,26.3z"/>
		</g>
		<g>
			<path class="st1" d="M105.6,20.5c-0.1,0.9-0.4,1.5-1.4,1.6c-1,0.1-1.6-0.4-1.6-1.4c0-0.9,0.4-1.5,1.3-1.6
				C104.9,19,105.5,19.5,105.6,20.5z"/>
		</g>
		<g>
			<path class="st2" d="M108.9,101.5c1.1,0.1,1.7,0.6,1.7,1.6c0,1-0.6,1.6-1.6,1.6c-0.8,0-1.4-0.5-1.5-1.5
				C107.5,102.2,108.1,101.7,108.9,101.5z"/>
		</g>
		<g>
			<path class="st2" d="M64.2,41.3c0,1.1-0.7,1.6-1.6,1.6c-0.9,0-1.4-0.6-1.5-1.5c0-1,0.5-1.6,1.5-1.7
				C63.5,39.7,64.1,40.4,64.2,41.3z"/>
		</g>
		<g>
			<path class="st2" d="M90.8,105.1c-0.9-0.2-1.6-0.6-1.5-1.7c0.1-1,0.7-1.5,1.7-1.5c0.9,0,1.4,0.7,1.4,1.6
				C92.4,104.5,91.7,105,90.8,105.1z"/>
		</g>
		<g>
			<path class="st2" d="M127.1,95c-0.2,0.8-0.6,1.6-1.6,1.5c-0.9,0-1.5-0.6-1.5-1.4c-0.1-1,0.5-1.6,1.5-1.7
				C126.3,93.3,126.9,94,127.1,95z"/>
		</g>
		<g>
			<path class="st2" d="M59.5,75.3c1,0,1.6,0.7,1.6,1.6c0,0.9-0.7,1.6-1.6,1.5c-0.8,0-1.5-0.6-1.5-1.5C58,75.9,58.6,75.4,59.5,75.3z
				"/>
		</g>
		<g>
			<path class="st2" d="M62.2,80.9c1,0.1,1.5,0.7,1.5,1.7C63.6,83.4,63,84,62.1,84c-1,0-1.6-0.6-1.6-1.6
				C60.6,81.4,61.2,80.9,62.2,80.9z"/>
		</g>
		<g>
			<path class="st2" d="M65.5,86c1,0.1,1.5,0.8,1.5,1.7c-0.1,0.8-0.6,1.4-1.5,1.4c-1,0-1.6-0.7-1.5-1.6C63.9,86.6,64.6,86.1,65.5,86
				z"/>
		</g>
		<g>
			<path class="st2" d="M71.8,31.7c-0.2,1.1-0.7,1.6-1.7,1.6c-0.9,0-1.4-0.6-1.4-1.5c0-0.9,0.5-1.6,1.6-1.5
				C71.2,30.2,71.6,30.9,71.8,31.7z"/>
		</g>
		<g>
			<path class="st1" d="M97.9,21.8c-1-0.1-1.6-0.6-1.5-1.6c0.1-0.9,0.6-1.4,1.5-1.4c0.9,0,1.5,0.5,1.5,1.4
				C99.5,21.3,98.9,21.8,97.9,21.8z"/>
		</g>
		<g>
			<path class="st2" d="M110.1,20.2c0.9,0.1,1.5,0.6,1.5,1.6c0,0.9-0.6,1.4-1.5,1.5c-1,0-1.6-0.6-1.6-1.5
				C108.5,20.9,109.1,20.3,110.1,20.2z"/>
		</g>
		<g>
			<path class="st2" d="M137.2,43.3c0.9,0.2,1.5,0.7,1.5,1.7c0,0.9-0.6,1.5-1.5,1.5c-0.9,0-1.6-0.5-1.6-1.5
				C135.7,43.9,136.3,43.5,137.2,43.3z"/>
		</g>
		<g>
			<path class="st1" d="M129.9,89.3c0.9,0,1.5,0.5,1.5,1.4c0,1-0.4,1.6-1.5,1.6c-0.9,0-1.5-0.5-1.5-1.4
				C128.4,89.9,128.9,89.3,129.9,89.3z"/>
		</g>
		<g>
			<path class="st2" d="M140.4,67.3c1.1,0,1.7,0.6,1.7,1.5c0,0.9-0.6,1.5-1.6,1.5c-0.9,0-1.4-0.6-1.5-1.4
				C138.9,68,139.5,67.4,140.4,67.3z"/>
		</g>
		<g>
			<path class="st2" d="M141.5,64.2c-1.6,0.1-2.1-0.6-2.1-1.5c0-0.9,0.6-1.5,1.6-1.5c0.9,0,1.4,0.5,1.5,1.4
				C142.6,63.7,142,64.2,141.5,64.2z"/>
		</g>
		<g>
			<path class="st1" d="M76.5,27.7c0,1.2-0.6,1.7-1.5,1.7c-1,0-1.6-0.5-1.5-1.6c0-0.9,0.6-1.4,1.5-1.4C76,26.3,76.4,26.9,76.5,27.7z
				"/>
		</g>
		<g>
			<path class="st2" d="M73.9,94.7c1.1,0,1.7,0.5,1.7,1.5c0,1-0.6,1.5-1.5,1.5c-0.9,0-1.5-0.6-1.5-1.4C72.5,95.4,73,94.8,73.9,94.7z
				"/>
		</g>
		<g>
			<path class="st2" d="M142.2,56.5c-0.1,1.1-0.6,1.7-1.6,1.7c-0.9,0-1.5-0.6-1.5-1.4c0-0.9,0.4-1.6,1.5-1.6
				C141.6,55.1,142,55.7,142.2,56.5z"/>
		</g>
		<g>
			<path class="st2" d="M98.5,104.5c-0.1,0.9-0.7,1.4-1.7,1.3c-0.8-0.1-1.4-0.6-1.4-1.6c0-1,0.7-1.6,1.6-1.5
				C97.9,102.8,98.4,103.4,98.5,104.5z"/>
		</g>
		<g>
			<path class="st1" d="M122.8,26.7c-0.1,0.9-0.5,1.4-1.5,1.5c-1,0-1.6-0.6-1.6-1.5c0-0.9,0.5-1.5,1.4-1.5
				C122.2,25.2,122.7,25.7,122.8,26.7z"/>
		</g>
		<g>
			<path class="st1" d="M132.2,34.5c-0.1,1-0.6,1.6-1.6,1.6c-1,0-1.5-0.6-1.5-1.6c0-0.9,0.5-1.4,1.4-1.5
				C131.5,33.1,132,33.6,132.2,34.5z"/>
		</g>
		<g>
			<path class="st1" d="M84.9,103.4c-0.9-0.1-1.5-0.6-1.5-1.5c0-1,0.5-1.6,1.6-1.5c1,0,1.5,0.6,1.5,1.6
				C86.4,103,85.8,103.4,84.9,103.4z"/>
		</g>
		<g>
			<path class="st1" d="M71,92.1c-0.1,1.1-0.6,1.6-1.7,1.6c-1,0-1.4-0.6-1.4-1.5c0-1,0.6-1.5,1.6-1.5C70.5,90.7,70.9,91.4,71,92.1z"
				/>
		</g>
		<g>
			<path class="st1" d="M104.6,104.1c-0.1,0.8-0.4,1.5-1.4,1.5c-1,0-1.6-0.4-1.7-1.5c0-1,0.6-1.6,1.6-1.6
				C104,102.6,104.5,103.2,104.6,104.1z"/>
		</g>
		<g>
			<path class="st2" d="M59.5,71c-0.2,0.9-0.6,1.5-1.6,1.5c-1,0-1.6-0.7-1.5-1.6c0-0.8,0.5-1.5,1.5-1.5C58.8,69.4,59.3,70,59.5,71z"
				/>
		</g>
		<g>
			<path class="st2" d="M139.3,52.2c-0.9-0.2-1.6-0.6-1.5-1.7c0-1,0.7-1.6,1.6-1.5c0.9,0,1.4,0.6,1.4,1.5
				C140.9,51.6,140.2,52.1,139.3,52.2z"/>
		</g>
		<g>
			<path class="st1" d="M59.6,52.7c0,0.9-0.5,1.5-1.4,1.5c-1,0-1.6-0.5-1.6-1.5c0-0.9,0.5-1.5,1.4-1.5C59,51.1,59.5,51.7,59.6,52.7z
				"/>
		</g>
		<g>
			<path class="st1" d="M79.3,101c-1,0-1.6-0.6-1.5-1.6c0-0.9,0.5-1.5,1.5-1.5c1,0,1.6,0.6,1.6,1.6C80.8,100.4,80.3,100.9,79.3,101z
				"/>
		</g>
		<g>
			<path class="st2" d="M85.9,23.9c-1-0.1-1.6-0.6-1.6-1.6c0-0.9,0.6-1.5,1.6-1.5c0.9,0,1.5,0.6,1.5,1.5
				C87.5,23.3,86.9,23.9,85.9,23.9z"/>
		</g>
		<g>
			<path class="st2" d="M127.8,30.4c-0.2,0.9-0.7,1.5-1.7,1.4c-0.9-0.1-1.4-0.7-1.4-1.5c0-0.9,0.6-1.6,1.6-1.5
				C127.3,28.8,127.7,29.4,127.8,30.4z"/>
		</g>
		<g>
			<path class="st2" d="M57.2,66.4c-1.1,0-1.6-0.5-1.6-1.5c0-0.9,0.5-1.5,1.4-1.5c1-0.1,1.6,0.5,1.7,1.4
				C58.7,65.7,58.1,66.3,57.2,66.4z"/>
		</g>
		<g>
			<path class="st2" d="M58.7,58.8c-0.1,0.9-0.6,1.5-1.6,1.5c-0.9,0-1.5-0.6-1.5-1.4c-0.1-1,0.5-1.6,1.5-1.6
				C58.1,57.2,58.5,57.8,58.7,58.8z"/>
		</g>
		<g>
			<path class="st2" d="M135.8,39.5c0,1-0.6,1.6-1.5,1.6c-0.8,0-1.4-0.5-1.5-1.5c0-1,0.5-1.6,1.5-1.7
				C135.1,37.9,135.8,38.5,135.8,39.5z"/>
		</g>
		<g>
			<path class="st1" d="M61.5,46.9c-0.2,0.8-0.6,1.5-1.6,1.5c-0.9,0-1.5-0.5-1.5-1.4c-0.1-1,0.5-1.6,1.5-1.6
				C60.9,45.3,61.3,45.9,61.5,46.9z"/>
		</g>
		<g>
			<path class="st1" d="M117.4,23.8c0,0.9-0.5,1.5-1.4,1.6c-1,0.1-1.6-0.4-1.6-1.4c0-0.9,0.4-1.5,1.3-1.6
				C116.7,22.3,117.3,22.8,117.4,23.8z"/>
		</g>
		<g>
			<path class="st1" d="M93.4,21c-0.1,0.8-0.5,1.4-1.4,1.4c-1,0-1.6-0.5-1.6-1.5c0-0.9,0.5-1.5,1.4-1.5C92.7,19.4,93.3,19.9,93.4,21
				z"/>
		</g>
		<g>
			<path class="st1" d="M115,102.6c1.1,0.1,1.5,0.7,1.5,1.7c-0.1,0.9-0.7,1.4-1.6,1.3c-0.9-0.1-1.4-0.6-1.4-1.5
				C113.4,103.1,114,102.6,115,102.6z"/>
		</g>
		<g>
			<path class="st2" d="M142.6,82.4c-0.1,0.9-0.5,1.5-1.4,1.5c-0.9,0-1.4-0.6-1.4-1.3c0-0.8,0.4-1.5,1.4-1.5
				C142.1,81,142.6,81.5,142.6,82.4z"/>
		</g>
		<g>
			<path class="st2" d="M53.7,65.9c-0.1,0.8-0.5,1.3-1.3,1.4c-0.9,0.1-1.4-0.5-1.5-1.3c-0.1-0.8,0.5-1.5,1.4-1.5
				C53.1,64.6,53.6,65.1,53.7,65.9z"/>
		</g>
		<g>
			<path class="st2" d="M59.7,35.4c0.8,0.1,1.4,0.6,1.4,1.4c0,0.9-0.5,1.5-1.4,1.4c-0.8,0-1.3-0.5-1.3-1.4
				C58.4,35.9,58.9,35.6,59.7,35.4z"/>
		</g>
		<g>
			<path class="st2" d="M102.6,107.6c0.8,0.1,1.4,0.6,1.4,1.4c0,0.8-0.5,1.4-1.3,1.4c-0.9,0-1.5-0.5-1.4-1.4
				C101.3,108.1,101.8,107.6,102.6,107.6z"/>
		</g>
		<g>
			<path class="st2" d="M130.3,95.8c0.8,0.1,1.3,0.6,1.3,1.4c0,0.8-0.5,1.4-1.3,1.4c-0.9,0-1.5-0.5-1.4-1.4
				C128.9,96.3,129.5,95.8,130.3,95.8z"/>
		</g>
		<g>
			<path class="st2" d="M69.4,25.8c0,1-0.5,1.5-1.3,1.5c-0.8,0-1.4-0.4-1.5-1.2c0-0.8,0.4-1.5,1.4-1.5
				C68.8,24.6,69.3,25.1,69.4,25.8z"/>
		</g>
		<g>
			<path class="st2" d="M108.6,106.7c0.8,0.1,1.4,0.5,1.4,1.3c0,0.8-0.5,1.5-1.4,1.5c-0.8,0-1.3-0.5-1.3-1.4
				C107.3,107.3,107.8,106.9,108.6,106.7z"/>
		</g>
		<g>
			<path class="st2" d="M143.5,78.2c-0.8-0.2-1.4-0.6-1.4-1.5c0.1-0.9,0.6-1.4,1.5-1.4c0.8,0.1,1.2,0.7,1.2,1.5
				C144.8,77.7,144.2,78,143.5,78.2z"/>
		</g>
		<g>
			<path class="st2" d="M114.9,17.8c-0.2,0.8-0.6,1.4-1.4,1.4c-0.9,0-1.4-0.5-1.4-1.3c-0.1-0.9,0.6-1.5,1.4-1.5
				C114.3,16.4,114.7,17,114.9,17.8z"/>
		</g>
		<g>
			<path class="st2" d="M76.7,19.3c-0.2,0.8-0.6,1.4-1.4,1.4c-0.9,0-1.5-0.6-1.4-1.5c0.1-0.8,0.7-1.3,1.5-1.2
				C76.2,17.9,76.6,18.5,76.7,19.3z"/>
		</g>
		<g>
			<path class="st2" d="M139.6,88c-0.2,0.8-0.7,1.3-1.5,1.3c-0.8,0-1.4-0.6-1.3-1.4c0-0.9,0.6-1.4,1.5-1.4
				C139.2,86.6,139.5,87.2,139.6,88z"/>
		</g>
		<g>
			<path class="st2" d="M145.7,63.3c0.9,0,1.4,0.5,1.5,1.3c0,0.9-0.6,1.5-1.4,1.4c-0.8,0-1.4-0.5-1.3-1.4
				C144.4,63.9,144.9,63.4,145.7,63.3z"/>
		</g>
		<g>
			<path class="st2" d="M57.3,82.1c0.8,0.1,1.4,0.5,1.4,1.3c0,0.8-0.5,1.4-1.3,1.5c-0.9,0-1.5-0.5-1.5-1.4
				C55.9,82.7,56.5,82.3,57.3,82.1z"/>
		</g>
		<g>
			<path class="st2" d="M53.7,59.8c-0.2,0.8-0.5,1.5-1.4,1.5c-0.9,0-1.5-0.6-1.4-1.4c0-0.8,0.6-1.3,1.4-1.3
				C53.1,58.5,53.5,59.1,53.7,59.8z"/>
		</g>
		<g>
			<path class="st2" d="M55,76.5c0.8,0.2,1.3,0.6,1.3,1.4c-0.1,0.9-0.6,1.4-1.5,1.3c-0.9-0.1-1.2-0.7-1.2-1.5
				C53.6,77,54.2,76.6,55,76.5z"/>
		</g>
		<g>
			<path class="st2" d="M137.7,37.2c-1,0-1.5-0.5-1.6-1.3c-0.1-0.9,0.5-1.5,1.4-1.5c0.8,0,1.4,0.5,1.4,1.3
				C138.9,36.5,138.5,37,137.7,37.2z"/>
		</g>
		<g>
			<path class="st2" d="M80.2,104.6c-0.2,0.7-0.5,1.3-1.4,1.3c-0.9,0-1.4-0.5-1.4-1.3c0-0.9,0.5-1.4,1.4-1.4
				C79.8,103.2,80.1,103.8,80.2,104.6z"/>
		</g>
		<g>
			<path class="st2" d="M54.4,53.7c-0.1,0.7-0.4,1.3-1.3,1.4c-0.9,0.1-1.5-0.5-1.5-1.4c0-0.8,0.5-1.4,1.3-1.4
				C53.7,52.4,54.2,52.9,54.4,53.7z"/>
		</g>
		<g>
			<path class="st2" d="M125.8,22.9c0,0.8-0.5,1.4-1.3,1.4c-0.8,0-1.4-0.4-1.4-1.3c0-0.9,0.5-1.4,1.3-1.4
				C125.3,21.6,125.7,22.2,125.8,22.9z"/>
		</g>
		<g>
			<path class="st2" d="M145.1,72.1c-0.9,0-1.4-0.4-1.5-1.2c-0.1-0.9,0.4-1.5,1.4-1.5c0.9,0,1.4,0.5,1.4,1.3
				C146.4,71.5,146,72.1,145.1,72.1z"/>
		</g>
		<g>
			<path class="st2" d="M121.5,107.7c0.9,0.1,1.4,0.6,1.4,1.4c0,0.9-0.6,1.5-1.5,1.4c-0.8,0-1.3-0.5-1.3-1.4
				C120.2,108.2,120.8,107.8,121.5,107.7z"/>
		</g>
		<g>
			<path class="st2" d="M95.2,14.2c0.8,0.2,1.4,0.6,1.4,1.4c0,1-0.6,1.4-1.5,1.4c-0.8-0.1-1.2-0.6-1.2-1.4
				C94,14.7,94.6,14.4,95.2,14.2z"/>
		</g>
		<g>
			<path class="st2" d="M101.3,17c-0.7-0.2-1.3-0.6-1.3-1.5c0-0.8,0.5-1.4,1.3-1.3c0.9,0,1.4,0.5,1.4,1.5
				C102.7,16.5,102.1,16.9,101.3,17z"/>
		</g>
		<g>
			<path class="st2" d="M140.7,42.4c-0.8-0.1-1.4-0.4-1.4-1.3c-0.1-0.9,0.5-1.4,1.4-1.5c0.9,0,1.3,0.6,1.4,1.3
				C142.1,41.8,141.5,42.3,140.7,42.4z"/>
		</g>
		<g>
			<path class="st2" d="M89.1,17.9c-0.6-0.1-1.2-0.5-1.2-1.3c0-0.8,0.4-1.4,1.2-1.4c1-0.1,1.5,0.5,1.5,1.4
				C90.6,17.3,90.1,17.8,89.1,17.9z"/>
		</g>
		<g>
			<path class="st2" d="M65.6,93.5c0,0.9-0.6,1.4-1.3,1.5c-0.9,0.1-1.5-0.6-1.5-1.4c0-0.8,0.6-1.3,1.4-1.3
				C65,92.2,65.5,92.7,65.6,93.5z"/>
		</g>
		<g>
			<path class="st2" d="M97.9,109c-0.1,0.8-0.6,1.4-1.3,1.4c-0.9,0-1.5-0.5-1.5-1.4c0-0.8,0.5-1.3,1.4-1.3
				C97.3,107.7,97.8,108.2,97.9,109z"/>
		</g>
		<g>
			<path class="st2" d="M54.6,71.9c0,1.1-0.6,1.6-1.4,1.5c-0.9,0-1.4-0.6-1.3-1.5c0.1-0.8,0.7-1.3,1.4-1.2
				C54.1,70.7,54.6,71.3,54.6,71.9z"/>
		</g>
		<g>
			<path class="st2" d="M108.8,16.3c0,0.9-0.6,1.4-1.3,1.4c-0.8,0-1.3-0.5-1.3-1.4c0-0.9,0.5-1.5,1.5-1.4
				C108.4,15,108.9,15.5,108.8,16.3z"/>
		</g>
		<g>
			<path class="st2" d="M55.9,47.7c0,0.9-0.5,1.4-1.3,1.5c-0.8,0.1-1.4-0.5-1.5-1.2c-0.1-0.9,0.4-1.5,1.4-1.5
				C55.3,46.5,55.7,47,55.9,47.7z"/>
		</g>
		<g>
			<path class="st2" d="M143.1,45.3c0.9,0.1,1.3,0.5,1.3,1.4c0,0.8-0.5,1.3-1.3,1.3c-0.9,0-1.4-0.5-1.3-1.5
				C141.8,45.6,142.4,45.3,143.1,45.3z"/>
		</g>
		<g>
			<path class="st2" d="M136,92.8c-0.1,0.8-0.5,1.3-1.4,1.3c-0.8,0-1.4-0.3-1.4-1.2c0-0.9,0.5-1.4,1.4-1.4
				C135.5,91.4,135.8,92,136,92.8z"/>
		</g>
		<g>
			<path class="st1" d="M56.8,43.6c-0.7-0.2-1.4-0.5-1.4-1.4c0-0.9,0.5-1.5,1.4-1.4c0.8,0,1.3,0.5,1.3,1.4
				C58.1,43,57.5,43.4,56.8,43.6z"/>
		</g>
		<g>
			<path class="st2" d="M146.2,52.4c0,0.9-0.5,1.4-1.3,1.5c-0.8,0-1.4-0.4-1.5-1.2c0-0.8,0.4-1.5,1.4-1.5
				C145.6,51.2,146.1,51.7,146.2,52.4z"/>
		</g>
		<g>
			<path class="st2" d="M129.4,25.3c0.8,0.1,1.3,0.5,1.4,1.3c0,0.9-0.6,1.5-1.4,1.4c-0.8,0-1.3-0.6-1.3-1.4
				C128.1,25.9,128.5,25.3,129.4,25.3z"/>
		</g>
		<g>
			<path class="st2" d="M69.9,97.7c0,1-0.5,1.5-1.2,1.6c-0.8,0-1.5-0.4-1.5-1.4c0-0.8,0.5-1.3,1.3-1.4C69.3,96.5,69.8,97,69.9,97.7z
				"/>
		</g>
		<g>
			<path class="st2" d="M91.8,108.2c0,1-0.6,1.5-1.3,1.5c-0.8,0-1.5-0.6-1.4-1.5c0.1-0.8,0.6-1.3,1.4-1.3
				C91.3,107,91.7,107.5,91.8,108.2z"/>
		</g>
		<g>
			<path class="st2" d="M120.5,20c-0.1,0.7-0.4,1.3-1.3,1.4c-0.9,0-1.4-0.4-1.5-1.2c-0.1-0.8,0.4-1.3,1.3-1.4
				C119.9,18.7,120.3,19.2,120.5,20z"/>
		</g>
		<g>
			<path class="st2" d="M122.4,100.2c0.9,0.1,1.4,0.6,1.4,1.4c0,0.9-0.6,1.4-1.5,1.3c-0.9-0.1-1.2-0.7-1.2-1.5
				C121.1,100.5,121.7,100.2,122.4,100.2z"/>
		</g>
		<g>
			<path class="st1" d="M63.3,30.6c1,0,1.5,0.5,1.5,1.3c0,0.8-0.5,1.3-1.3,1.4c-0.9,0-1.4-0.5-1.4-1.3C62,31.1,62.5,30.7,63.3,30.6z
				"/>
		</g>
		<g>
			<path class="st1" d="M84.7,18.3c0,0.7-0.5,1.3-1.3,1.3c-0.8,0-1.3-0.5-1.4-1.3c0-0.9,0.5-1.4,1.3-1.4
				C84.1,16.8,84.7,17.2,84.7,18.3z"/>
		</g>
		<g>
			<path class="st2" d="M84.5,105.5c1,0.1,1.4,0.6,1.4,1.4c0,0.9-0.6,1.4-1.5,1.3c-0.9-0.1-1.2-0.6-1.2-1.5
				C83.2,105.8,83.8,105.5,84.5,105.5z"/>
		</g>
		<g>
			<path class="st2" d="M60.4,87.5c1,0.1,1.4,0.7,1.3,1.5c0,0.9-0.5,1.3-1.4,1.2c-0.9-0.1-1.3-0.6-1.2-1.4
				C59.1,87.9,59.7,87.5,60.4,87.5z"/>
		</g>
		<g>
			<path class="st1" d="M147,58.6c0,0.9-0.5,1.3-1.3,1.3c-0.9,0-1.3-0.5-1.3-1.3c0-0.8,0.5-1.3,1.4-1.3
				C146.5,57.3,147,57.7,147,58.6z"/>
		</g>
		<g>
			<path class="st2" d="M135.2,100.5c-0.7-0.1-1.2-0.3-1.3-1.1c-0.1-0.8,0.3-1.3,1.1-1.3c0.7-0.1,1.1,0.3,1.2,1
				C136.3,99.9,135.8,100.3,135.2,100.5z"/>
		</g>
		<g>
			<path class="st2" d="M145.7,85.7c-0.7-0.1-1.2-0.5-1.2-1.2c0-0.7,0.3-1.3,1.1-1.3c0.7,0,1.3,0.3,1.3,1.1
				C146.9,85,146.4,85.5,145.7,85.7z"/>
		</g>
		<g>
			<path class="st2" d="M114.3,9.9c0.8,0.1,1.1,0.5,1.1,1.3c0,0.7-0.5,1.1-1.1,1.1c-0.7,0-1.2-0.4-1.2-1.2
				C113.1,10.3,113.6,9.9,114.3,9.9z"/>
		</g>
		<g>
			<path class="st2" d="M60.8,26.4c0.7,0.2,1.2,0.5,1.1,1.3c0,0.7-0.4,1.1-1.1,1.1c-0.8,0-1.2-0.5-1.3-1.2
				C59.5,26.9,60.1,26.5,60.8,26.4z"/>
		</g>
		<g>
			<path class="st2" d="M47.5,59.8c0.7,0.1,1.1,0.5,1.1,1.3c-0.1,0.7-0.5,1.2-1.3,1.1c-0.6-0.1-1.1-0.5-1.1-1.2
				C46.2,60.3,46.6,59.8,47.5,59.8z"/>
		</g>
		<g>
			<path class="st2" d="M51.4,79c-0.1,0.8-0.6,1.2-1.3,1.2c-0.6,0-1.1-0.5-1.1-1.2c0-0.8,0.5-1.2,1.3-1.2C51,77.8,51.2,78.4,51.4,79
				z"/>
		</g>
		<g>
			<path class="st2" d="M51.2,44.3c-0.8-0.1-1.2-0.5-1.3-1.2c0-0.7,0.4-1.1,1-1.2c0.7-0.1,1.2,0.3,1.3,1.1
				C52.4,43.8,51.8,44.1,51.2,44.3z"/>
		</g>
		<g>
			<path class="st2" d="M78.2,108.4c0.9,0.1,1.4,0.6,1.3,1.3c0,0.7-0.5,1.2-1.3,1.2c-0.6,0-1.1-0.5-1.1-1.2
				C77.1,108.8,77.6,108.5,78.2,108.4z"/>
		</g>
		<g>
			<path class="st2" d="M150.8,72.7c-0.2,0.7-0.6,1.2-1.4,1.1c-0.7-0.1-1.1-0.5-1.1-1.2c0-0.8,0.5-1.2,1.2-1.2
				C150.3,71.5,150.7,72,150.8,72.7z"/>
		</g>
		<g>
			<path class="st2" d="M62.1,22.1c-0.9,0-1.3-0.5-1.3-1.2c0-0.8,0.5-1.2,1.2-1.2c0.6,0,1.1,0.4,1.1,1.1
				C63.2,21.6,62.7,22,62.1,22.1z"/>
		</g>
		<g>
			<path class="st2" d="M52.5,83.5c0.8,0.1,1.2,0.5,1.2,1.2c0,0.7-0.4,1.1-1.1,1.1c-0.8,0-1.3-0.4-1.3-1.1
				C51.3,84,51.7,83.5,52.5,83.5z"/>
		</g>
		<g>
			<path class="st2" d="M49.7,73.2c-0.1,0.7-0.4,1.1-1.2,1.1c-0.8,0-1.3-0.5-1.3-1.2c0-0.7,0.5-1.2,1.3-1.1
				C49.4,72,49.7,72.5,49.7,73.2z"/>
		</g>
		<g>
			<path class="st2" d="M136.9,26.1c0.7,0.1,1.3,0.5,1.3,1.2c0,0.7-0.5,1.2-1.3,1.2c-0.7,0-1.1-0.4-1.1-1.1
				C135.7,26.6,136.2,26.2,136.9,26.1z"/>
		</g>
		<g>
			<path class="st2" d="M57,33.6c-0.8-0.1-1.2-0.5-1.2-1.3c0-0.7,0.5-1.1,1.2-1.1c0.8,0,1.2,0.5,1.2,1.3
				C58.1,33.2,57.6,33.5,57,33.6z"/>
		</g>
		<g>
			<path class="st2" d="M116.6,12.7c0.9,0,1.4,0.5,1.4,1.2c0,0.6-0.4,1.2-1.1,1.2c-0.7,0-1.3-0.3-1.3-1.1
				C115.5,13.2,116,12.8,116.6,12.7z"/>
		</g>
		<g>
			<path class="st2" d="M147.9,42.7c-0.1,0.8-0.6,1.2-1.3,1.1c-0.7,0-1.1-0.5-1.1-1.2c0-0.7,0.5-1.2,1.2-1.2
				C147.5,41.5,147.9,42,147.9,42.7z"/>
		</g>
		<g>
			<path class="st2" d="M60.2,94.9c0,0.8-0.4,1.3-1.2,1.3c-0.8,0-1.2-0.5-1.2-1.2c0-0.6,0.4-1.1,1.1-1.2
				C59.6,93.7,60.1,94.1,60.2,94.9z"/>
		</g>
		<g>
			<path class="st2" d="M109.5,113.1c-0.1,0.8-0.5,1.2-1.3,1.1c-0.8-0.1-1.2-0.6-1.1-1.3c0.1-0.6,0.5-1.1,1.2-1
				C109,112,109.4,112.4,109.5,113.1z"/>
		</g>
		<g>
			<path class="st2" d="M151.8,60.5c-0.2,0.8-0.6,1.2-1.4,1.1c-0.7-0.1-1.1-0.6-1-1.2c0.1-0.8,0.6-1.2,1.4-1.1
				C151.5,59.4,151.7,60,151.8,60.5z"/>
		</g>
		<g>
			<path class="st2" d="M72.9,108c-0.7-0.1-1.2-0.5-1.2-1.2c0-0.7,0.4-1.1,1.1-1.2c0.8-0.1,1.3,0.4,1.3,1.1
				C74.1,107.4,73.7,107.9,72.9,108z"/>
		</g>
		<g>
			<path class="st2" d="M85.3,111.7c-0.2,0.8-0.6,1.3-1.3,1.2c-0.7,0-1.2-0.5-1.1-1.3c0.1-0.6,0.5-1.1,1.2-1.1
				C84.9,110.5,85.2,111,85.3,111.7z"/>
		</g>
		<g>
			<path class="st2" d="M105.3,9.1c-0.1,0.8-0.6,1.3-1.3,1.3c-0.7,0-1.2-0.5-1.2-1.3c0-0.7,0.4-1.1,1.1-1.1
				C104.7,7.9,105.1,8.4,105.3,9.1z"/>
		</g>
		<g>
			<path class="st2" d="M131.6,103.2c-0.2,0.8-0.5,1.3-1.3,1.2c-0.8-0.1-1.1-0.6-1-1.3c0.1-0.7,0.6-1.1,1.2-1
				C131.2,102.1,131.6,102.6,131.6,103.2z"/>
		</g>
		<g>
			<path class="st2" d="M49.2,50.1C48.5,50,48,49.7,48,48.9c0-0.8,0.5-1.2,1.2-1.2c0.6,0,1.1,0.4,1.2,1.1C50.4,49.5,50,50,49.2,50.1
				z"/>
		</g>
		<g>
			<path class="st2" d="M93.9,11.1c-0.1,0.7-0.5,1.3-1.3,1.2c-0.7,0-1.2-0.6-1.2-1.3c0-0.7,0.5-1.1,1.1-1.1
				C93.4,9.8,93.8,10.4,93.9,11.1z"/>
		</g>
		<g>
			<path class="st2" d="M148.7,47.2c0.7,0.1,1.2,0.5,1.1,1.3c0,0.8-0.6,1.2-1.3,1.1c-0.6-0.1-1.1-0.5-1-1.2
				C147.5,47.7,148,47.3,148.7,47.2z"/>
		</g>
		<g>
			<path class="st2" d="M151.2,54.5c-0.1,0.8-0.6,1.2-1.4,1.1c-0.8,0-1.1-0.6-1-1.2c0.1-0.7,0.5-1.2,1.4-1.1
				C150.9,53.4,151.2,53.8,151.2,54.5z"/>
		</g>
		<g>
			<path class="st2" d="M141.9,32.2c-0.1,0.7-0.6,1.1-1.3,1c-0.7-0.1-1-0.6-1-1.3c0-0.7,0.5-1.1,1.2-1.1
				C141.5,30.8,142,31.3,141.9,32.2z"/>
		</g>
		<g>
			<path class="st2" d="M64.4,99.5c-0.1,0.8-0.6,1.2-1.3,1.1c-0.7,0-1.1-0.5-1.1-1.2c0-0.8,0.5-1.2,1.2-1.2
				C64,98.3,64.3,98.8,64.4,99.5z"/>
		</g>
		<g>
			<path class="st2" d="M101.9,115c-0.5,0-0.9-0.5-0.9-1.2c0-0.6,0.4-1.1,1.2-1.1c0.8,0,1.2,0.4,1.2,1.2
				C103.3,114.6,102.9,115,101.9,115z"/>
		</g>
		<g>
			<path class="st2" d="M67.7,104.6c-0.6-0.1-1.1-0.4-1.1-1.1c0-0.8,0.4-1.2,1.2-1.2c0.8,0,1.2,0.5,1.2,1.3
				C69,104.2,68.5,104.6,67.7,104.6z"/>
		</g>
		<g>
			<path class="st2" d="M86.6,11c0.7,0.1,1.2,0.5,1.2,1.2c0,0.7-0.5,1.2-1.2,1.2c-0.7,0-1.1-0.5-1.2-1.1
				C85.4,11.6,85.9,11.1,86.6,11z"/>
		</g>
		<g>
			<path class="st2" d="M49.1,54.7c0,0.9-0.5,1.3-1.2,1.3c-0.6,0-1.1-0.4-1.1-1.2c0-0.8,0.4-1.2,1.2-1.2
				C48.7,53.7,49,54.1,49.1,54.7z"/>
		</g>
		<g>
			<path class="st2" d="M145.3,37.2c-0.1,0.8-0.5,1.2-1.2,1.2c-0.8,0-1.2-0.4-1.2-1.2c0-0.7,0.5-1.1,1.2-1.1
				C144.9,36,145.1,36.6,145.3,37.2z"/>
		</g>
		<g>
			<path class="st2" d="M97.3,113.9c-0.1,0.8-0.5,1.1-1.3,1.1c-0.8,0-1.1-0.5-1-1.2c0-0.7,0.5-1.2,1.3-1.1
				C96.9,112.7,97.2,113.2,97.3,113.9z"/>
		</g>
		<g>
			<path class="st2" d="M130.2,20.3c-0.7-0.2-1.2-0.6-1.1-1.4c0.1-0.6,0.5-1.1,1.2-1.1c0.7,0,1.3,0.5,1.2,1.2
				C131.5,19.8,131,20.3,130.2,20.3z"/>
		</g>
		<g>
			<path class="st1" d="M56.6,90c0,0.7-0.4,1.2-1.2,1.2c-0.7,0-1.1-0.4-1.1-1.1c0-0.8,0.4-1.2,1.2-1.2C56.2,88.9,56.6,89.3,56.6,90z
				"/>
		</g>
		<g>
			<path class="st2" d="M83.7,117.6c-0.7-0.1-1.1-0.4-1.1-1c0-0.6,0.4-1,1-1c0.7,0,1,0.4,1,1C84.7,117.2,84.2,117.5,83.7,117.6z"/>
		</g>
		<g>
			<path class="st2" d="M78.9,114.5c-0.1,0.7-0.4,1.1-1.1,1.1c-0.6,0-1-0.4-1-1c0-0.6,0.5-1,1.1-1C78.5,113.6,78.8,114,78.9,114.5z"
				/>
		</g>
		<g>
			<path class="st1" d="M114.2,112.8c-0.8-0.1-1.2-0.4-1.2-1.1c0-0.8,0.5-1.2,1.2-1.2c0.7,0,1.1,0.4,1.1,1.1
				C115.3,112.4,114.9,112.8,114.2,112.8z"/>
		</g>
		<g>
			<path class="st2" d="M154.1,73.5c0.5,0.2,1,0.5,1,1.1c0,0.6-0.4,1-1,1c-0.6,0-1.1-0.4-1.1-1.1C153.1,73.9,153.5,73.6,154.1,73.5z
				"/>
		</g>
		<g>
			<path class="st2" d="M44,68.2c-0.1,0.5-0.4,1-1,1c-0.7,0-1.1-0.4-1-1.1c0-0.6,0.5-1,1.1-0.9C43.6,67.2,43.9,67.6,44,68.2z"/>
		</g>
		<g>
			<path class="st1" d="M48.8,67.1c0,0.7-0.4,1.1-1.1,1.1c-0.8,0-1.2-0.4-1.2-1.2c0-0.7,0.4-1.1,1.1-1.1
				C48.3,65.9,48.7,66.3,48.8,67.1z"/>
		</g>
		<g>
			<path class="st1" d="M123.5,16.3c0,0.8-0.5,1.2-1.2,1.1c-0.7,0-1.1-0.4-1.1-1.1c0-0.8,0.4-1.2,1.2-1.2
				C123.1,15.2,123.5,15.6,123.5,16.3z"/>
		</g>
		<g>
			<path class="st1" d="M150.5,65.5c0.7,0.1,1.1,0.5,1.1,1.3c-0.1,0.7-0.5,1-1.2,1c-0.8,0-1.2-0.5-1.1-1.3
				C149.3,65.8,149.8,65.5,150.5,65.5z"/>
		</g>
		<g>
			<path class="st1" d="M53.7,38.7c-0.8-0.1-1.2-0.5-1.2-1.2c0-0.8,0.4-1.2,1.2-1.2c0.8,0,1.1,0.6,1.1,1.3
				C54.8,38.4,54.3,38.7,53.7,38.7z"/>
		</g>
		<g>
			<path class="st2" d="M91.1,6.5c0,0.6-0.3,1.1-0.9,1.1c-0.7,0.1-1.1-0.4-1.1-1c0-0.6,0.4-1,1-1C90.6,5.6,91,6,91.1,6.5z"/>
		</g>
		<g>
			<path class="st2" d="M63.3,105.1c-0.1,0.6-0.4,1-1,1c-0.5,0-1-0.3-1.1-0.9c-0.1-0.7,0.4-1.1,1.1-1.1
				C62.9,104.1,63.2,104.6,63.3,105.1z"/>
		</g>
		<g>
			<path class="st2" d="M114.8,116.6c-0.1,0.6-0.4,1.1-1,1.1c-0.6,0.1-1-0.3-1.1-0.9c-0.1-0.7,0.4-1.1,1-1.2
				C114.3,115.6,114.6,116.1,114.8,116.6z"/>
		</g>
		<g>
			<path class="st1" d="M148,79.7c-0.8,0-1.2-0.4-1.2-1.2c0-0.7,0.4-1.1,1.1-1.1c0.8,0,1.2,0.4,1.2,1.2
				C149.1,79.3,148.7,79.7,148,79.7z"/>
		</g>
		<g>
			<path class="st2" d="M135.5,18.4c0.7,0,1.1,0.4,1.2,0.9c0,0.6-0.3,1-1,1.1c-0.6,0-1-0.3-1.1-0.9C134.6,18.9,135,18.6,135.5,18.4z
				"/>
		</g>
		<g>
			<path class="st2" d="M72.8,11.3c0.6,0.1,1,0.4,1,1c0,0.6-0.3,1-0.9,1.1c-0.7,0.1-1.1-0.4-1.1-1C71.7,11.8,72.2,11.5,72.8,11.3z"
				/>
		</g>
		<g>
			<path class="st2" d="M119.7,115.9c-0.7-0.2-1.1-0.5-1.1-1.1c0-0.7,0.5-1.1,1.2-1c0.6,0.1,0.9,0.5,0.9,1.1
				C120.6,115.6,120,115.7,119.7,115.9z"/>
		</g>
		<g>
			<path class="st2" d="M58.9,100.9c0,0.5-0.2,1-0.9,1c-0.6,0-1-0.3-1.1-0.9c0-0.6,0.3-1.1,0.9-1.1C58.4,99.8,58.8,100.2,58.9,100.9
				z"/>
		</g>
		<g>
			<path class="st2" d="M44,55.9c0,0.6-0.4,1-1,1.1C42.3,57,42,56.6,41.9,56c-0.1-0.6,0.3-1,1-1.1C43.5,54.9,43.8,55.3,44,55.9z"/>
		</g>
		<g>
			<path class="st2" d="M147.4,32.4c0.7,0,1,0.4,1,1c0,0.7-0.4,1-1,1c-0.6,0-1-0.4-1-1C146.4,32.7,146.8,32.4,147.4,32.4z"/>
		</g>
		<g>
			<path class="st2" d="M156.4,62.5c-0.1,0.6-0.5,0.9-1.1,0.9c-0.7,0-0.9-0.4-0.9-1.1c0-0.7,0.4-0.9,1.1-0.9
				C156.2,61.5,156.4,62,156.4,62.5z"/>
		</g>
		<g>
			<path class="st2" d="M72.3,113c-0.6-0.1-1-0.4-1-1.1c0-0.7,0.4-1,1-1c0.6,0,1,0.5,1,1.1C73.3,112.6,72.9,113,72.3,113z"/>
		</g>
		<g>
			<path class="st2" d="M51.6,91.2c-0.1,0.6-0.4,1-1,1c-0.6,0.1-1-0.4-1.1-0.9c-0.1-0.7,0.3-1.2,1-1.1
				C51.1,90.1,51.5,90.5,51.6,91.2z"/>
		</g>
		<g>
			<path class="st2" d="M41.5,62.1c0.1-0.6,0.5-1,1-1c0.6,0,1.1,0.4,1.1,1.1c0,0.6-0.4,1-1.1,0.9C41.9,63,41.7,62.6,41.5,62.1z"/>
		</g>
		<g>
			<path class="st2" d="M155.1,55.4c0.7,0,1,0.4,1,1c0,0.6-0.4,1-1,1c-0.6,0-1-0.3-1-1C154.1,55.7,154.5,55.4,155.1,55.4z"/>
		</g>
		<g>
			<path class="st2" d="M156.1,68.6c-0.1,0.6-0.4,1-1.1,1c-0.6,0-1-0.4-0.9-1.1c0-0.7,0.5-0.9,1.1-0.9C155.8,67.6,156,68,156.1,68.6
				z"/>
		</g>
		<g>
			<path class="st2" d="M136.3,105.6c-0.2,0.6-0.4,1-1.1,1c-0.6,0-1-0.5-0.9-1.1c0-0.6,0.4-1,1-1C136,104.5,136.2,105,136.3,105.6z"
				/>
		</g>
		<g>
			<path class="st2" d="M67.6,14.5c0.6,0.1,0.9,0.5,0.9,1.1c0,0.7-0.5,1-1.1,0.9c-0.6,0-1-0.5-0.9-1.1C66.6,14.8,67,14.5,67.6,14.5z
				"/>
		</g>
		<g>
			<path class="st2" d="M121,10.1c0,0.6-0.4,0.9-1,0.9c-0.7,0-0.9-0.4-0.9-1c0-0.7,0.4-1,1-0.9C120.7,9,121.1,9.4,121,10.1z"/>
		</g>
		<g>
			<path class="st2" d="M104.7,5.8c-0.1,0.6-0.4,1.1-1,1.1c-0.6,0-1-0.3-1-1c0-0.7,0.4-1,1-1.1C104.3,4.7,104.6,5.3,104.7,5.8z"/>
		</g>
		<g>
			<path class="st2" d="M50.9,32c0.6,0,1,0.5,1,1c0,0.6-0.4,1-1,1c-0.7,0-1.1-0.4-1-1.1C49.8,32.3,50.3,32,50.9,32z"/>
		</g>
		<g>
			<path class="st2" d="M152.4,79.5c0.5,0.1,1,0.3,0.9,1c0,0.6-0.3,1-1,1c-0.7,0-1-0.4-1-1C151.4,79.8,151.8,79.5,152.4,79.5z"/>
		</g>
		<g>
			<path class="st2" d="M125.2,113.4c-0.6-0.1-1-0.4-1-1c0-0.6,0.3-1,0.9-1.1c0.6,0,1,0.3,1,1C126.2,112.9,125.8,113.2,125.2,113.4z
				"/>
		</g>
		<g>
			<path class="st1" d="M89.5,116.9c0.8,0,1.1,0.4,1.1,1c0,0.6-0.4,1-1.1,0.9c-0.6,0-1-0.4-0.9-1C88.6,117.2,89,117,89.5,116.9z"/>
		</g>
		<g>
			<path class="st2" d="M106.8,117.9c0.1-0.5,0.3-0.9,1-0.9c0.6,0,1,0.4,1,1c0,0.7-0.4,1-1,1C107.3,119.1,106.8,118.7,106.8,117.9z"
				/>
		</g>
		<g>
			<path class="st2" d="M46.6,44c0,0.6-0.3,1-0.9,1.1c-0.6,0-1-0.3-1-1c0-0.6,0.3-1.1,0.9-1.1C46.2,43,46.6,43.3,46.6,44z"/>
		</g>
		<g>
			<path class="st2" d="M55.2,28c0,0.7-0.4,1-1,1c-0.6,0-1-0.4-0.9-1c0-0.7,0.4-1,1-1C54.9,27,55.2,27.4,55.2,28z"/>
		</g>
		<g>
			<path class="st2" d="M43.8,75.3c-0.6-0.2-1-0.5-0.9-1.1c0-0.6,0.4-1,1-1c0.6,0,1,0.4,1,1.1C44.8,74.9,44.4,75.1,43.8,75.3z"/>
		</g>
		<g>
			<path class="st2" d="M47.7,84.7c0.6,0.2,1.1,0.5,1,1.1c-0.1,0.6-0.4,1-1.1,1c-0.7,0-0.9-0.5-0.9-1.1
				C46.7,85.1,47.2,84.8,47.7,84.7z"/>
		</g>
		<g>
			<path class="st2" d="M46.5,80.1c-0.1,0.6-0.4,1-1.1,0.9c-0.7,0-1-0.5-1-1.1c0-0.6,0.5-1,1.1-0.9C46.1,79.1,46.5,79.5,46.5,80.1z"
				/>
		</g>
		<g>
			<path class="st2" d="M102.7,118.9c0,0.4-0.4,0.8-1,0.8c-0.6,0-1-0.3-1-1c0-0.7,0.3-1,1-1C102.4,117.7,102.7,118,102.7,118.9z"/>
		</g>
		<g>
			<path class="st2" d="M126.6,12.6c-0.1,0.6-0.4,1-1,1c-0.6,0-1-0.3-1-1c0-0.6,0.3-1,1-1C126.2,11.6,126.5,12,126.6,12.6z"/>
		</g>
		<g>
			<path class="st2" d="M54.9,96.3c-0.1,0.6-0.4,1-1.1,1c-0.6-0.1-1-0.4-0.9-1.1c0-0.6,0.5-1,1.1-1C54.6,95.2,54.9,95.7,54.9,96.3z"
				/>
		</g>
		<g>
			<path class="st2" d="M45,49.9c-0.1,0.6-0.4,1-1,1c-0.6,0-1-0.4-1.1-1c0-0.6,0.4-1,1-1C44.6,48.9,44.9,49.4,45,49.9z"/>
		</g>
		<g>
			<path class="st1" d="M85.1,8c0,0.7-0.4,0.9-1,0.9c-0.6,0-0.9-0.4-0.9-1c0-0.6,0.4-1,1-0.9C84.8,6.9,85.1,7.4,85.1,8z"/>
		</g>
		<g>
			<path class="st2" d="M96.5,8.9c-0.7-0.1-1.1-0.4-1.1-1c0-0.6,0.4-1,1-1c0.6,0,1,0.4,1,1C97.4,8.5,97,8.9,96.5,8.9z"/>
		</g>
		<g>
			<path class="st2" d="M144.1,27.4c0.6,0.1,1,0.4,0.9,1c-0.1,0.6-0.4,1-1.1,0.9c-0.7-0.1-1-0.5-1-1.1
				C143,27.6,143.5,27.4,144.1,27.4z"/>
		</g>
		<g>
			<path class="st2" d="M155.1,50.3c0,0.6-0.4,1-1,1c-0.6,0.1-1.1-0.2-1.1-0.9c0-0.6,0.3-1.1,1-1.1C154.7,49.3,155,49.7,155.1,50.3z
				"/>
		</g>
		<g>
			<path class="st2" d="M139.7,100.4c0.6,0,1,0.3,1,1c0,0.6-0.4,1-1,1c-0.6,0-1.1-0.3-1-0.9C138.7,100.8,139.1,100.4,139.7,100.4z"
				/>
		</g>
		<g>
			<path class="st2" d="M148.2,91.6c-0.1,0.6-0.3,1-1,1c-0.6,0-1-0.3-1.1-0.9c0-0.6,0.3-1,0.9-1C147.7,90.7,148,91.1,148.2,91.6z"/>
		</g>
		<g>
			<path class="st1" d="M151.2,38.7c0,0.6-0.3,1-1,1c-0.6,0-0.9-0.3-1-0.8c-0.1-0.6,0.2-1.1,0.9-1.1
				C150.8,37.8,151.2,38.1,151.2,38.7z"/>
		</g>
		<g>
			<path class="st2" d="M78.4,10.9c-0.7-0.1-1-0.5-1-1.1c0-0.7,0.4-1,1-1c0.6,0,1,0.4,0.9,1.1C79.3,10.6,78.9,10.8,78.4,10.9z"/>
		</g>
		<g>
			<path class="st2" d="M111.8,2c0.6,0.1,0.9,0.5,0.8,1.1c0,0.6-0.4,1-1,1c-0.7,0-1-0.5-1-1.2C110.7,2.3,111.1,2,111.8,2z"/>
		</g>
		<g>
			<path class="st2" d="M48.1,39.4c-0.7,0-1.1-0.3-1.2-0.9c0-0.6,0.3-1,1-1.1c0.6,0,1.1,0.3,1.1,0.9C49,39,48.6,39.3,48.1,39.4z"/>
		</g>
		<g>
			<path class="st2" d="M49.3,26c0.5,0.1,0.8,0.4,0.8,1c-0.1,0.5-0.4,0.7-0.9,0.7c-0.5-0.1-0.9-0.4-0.8-1
				C48.4,26.1,48.8,25.9,49.3,26z"/>
		</g>
		<g>
			<path class="st2" d="M45.1,89.7c-0.1,0.6-0.5,0.8-1,0.8c-0.5,0-0.7-0.4-0.7-0.9c0-0.6,0.4-0.8,1-0.7C44.9,89,45.1,89.3,45.1,89.7
				z"/>
		</g>
		<g>
			<path class="st2" d="M136.8,111.3c-0.5-0.1-0.8-0.4-0.8-0.9c0-0.5,0.4-0.8,0.8-0.8c0.5,0,0.9,0.4,0.8,0.9
				C137.6,111,137.3,111.3,136.8,111.3z"/>
		</g>
		<g>
			<path class="st2" d="M110.5,122.6c-0.1,0.4-0.3,0.8-0.8,0.8c-0.5,0-0.9-0.3-0.9-0.9c0-0.5,0.3-0.8,0.8-0.8
				C110.1,121.7,110.3,122.1,110.5,122.6z"/>
		</g>
		<g>
			<path class="st2" d="M59.3,109.4c-0.7,0.1-1-0.2-1.1-0.6c-0.1-0.6,0.3-0.9,0.8-1c0.5-0.1,0.8,0.2,0.9,0.7
				C59.9,109,59.6,109.3,59.3,109.4z"/>
		</g>
		<g>
			<path class="st2" d="M38.6,60.6c-0.1,0.6-0.4,0.8-1,0.7c-0.5,0-0.7-0.4-0.6-0.9c0-0.5,0.3-0.7,0.8-0.7
				C38.4,59.8,38.6,60.1,38.6,60.6z"/>
		</g>
		<g>
			<path class="st2" d="M154.7,87.2c0.4,0.1,0.7,0.3,0.7,0.8c0,0.5-0.4,0.9-0.9,0.9c-0.5,0-0.9-0.4-0.8-1
				C153.8,87.4,154.1,87.1,154.7,87.2z"/>
		</g>
		<g>
			<path class="st2" d="M160.9,58.9c0,0.2-0.2,0.5-0.7,0.6c-0.6,0.1-0.9-0.3-0.9-0.8c0-0.5,0.4-0.9,0.9-0.8
				C160.6,57.9,160.9,58.1,160.9,58.9z"/>
		</g>
		<g>
			<path class="st2" d="M41,42c0.5,0.2,0.9,0.4,0.8,1c-0.1,0.5-0.4,0.7-0.9,0.7c-0.6,0-0.9-0.4-0.8-0.9C40.2,42.3,40.6,42.1,41,42z"
				/>
		</g>
		<g>
			<path class="st2" d="M156.4,41.9c-0.5,0-0.8-0.3-0.8-0.7c-0.1-0.6,0.3-0.9,0.8-0.9c0.5,0,0.9,0.4,0.9,0.9
				C157.2,41.6,156.9,41.8,156.4,41.9z"/>
		</g>
		<g>
			<path class="st2" d="M141.3,105.6c0.4,0,0.8,0.2,0.9,0.7c0.1,0.6-0.2,0.9-0.7,1c-0.5,0.1-0.8-0.2-0.9-0.7
				C140.5,106.1,140.8,105.8,141.3,105.6z"/>
		</g>
		<g>
			<path class="st2" d="M158.4,75.7c0.6,0.1,0.9,0.4,0.9,1c0,0.4-0.3,0.8-0.8,0.7c-0.6,0-0.9-0.4-0.8-0.9
				C157.7,76,158.1,75.9,158.4,75.7z"/>
		</g>
		<g>
			<path class="st2" d="M158,47.6c-0.4-0.1-0.7-0.4-0.7-0.8c0-0.5,0.4-0.9,0.9-0.9c0.5,0.1,0.9,0.5,0.8,1
				C158.9,47.4,158.6,47.6,158,47.6z"/>
		</g>
		<g>
			<path class="st2" d="M132,114.7c-0.4,0-0.8-0.2-0.9-0.7c-0.1-0.5,0.2-0.9,0.7-1c0.6-0.1,0.9,0.4,0.9,0.8
				C132.8,114.4,132.4,114.6,132,114.7z"/>
		</g>
		<g>
			<path class="st2" d="M122,119.3c-0.1,0.6-0.4,0.9-1,0.9c-0.4,0-0.8-0.4-0.8-0.8c0.1-0.5,0.4-0.9,1-0.9
				C121.8,118.5,121.9,118.9,122,119.3z"/>
		</g>
		<g>
			<path class="st2" d="M101.1,2c-0.6,0-0.9-0.4-0.9-0.9c0-0.4,0.4-0.8,0.8-0.8c0.5,0,0.9,0.3,0.9,0.9C101.9,1.7,101.5,1.9,101.1,2z
				"/>
		</g>
		<g>
			<path class="st2" d="M39.1,54.6c0,0.5-0.3,0.8-0.8,0.8c-0.5,0-0.9-0.3-0.9-0.9c0-0.5,0.3-0.8,0.7-0.8
				C38.8,53.7,39,54.1,39.1,54.6z"/>
		</g>
		<g>
			<path class="st2" d="M125.2,6.6c0,0.5-0.4,0.8-0.8,0.8c-0.5,0-0.9-0.2-0.9-0.8c0-0.5,0.3-0.8,0.8-0.8
				C124.9,5.8,125.2,6.1,125.2,6.6z"/>
		</g>
		<g>
			<path class="st2" d="M76.3,3.2c0.5,0.1,0.8,0.4,0.8,0.8c0,0.5-0.4,0.9-1,0.9c-0.4,0-0.8-0.4-0.8-0.9C75.4,3.5,75.8,3.2,76.3,3.2z
				"/>
		</g>
		<g>
			<path class="st2" d="M39.6,72.5c-0.1,0.5-0.3,0.9-0.9,0.9c-0.5,0-0.7-0.3-0.8-0.8c-0.1-0.5,0.2-0.8,0.7-0.9
				C39.1,71.6,39.3,72.1,39.6,72.5z"/>
		</g>
		<g>
			<path class="st2" d="M83.2,2.3c0.5,0.1,0.8,0.4,0.8,1c0,0.5-0.3,0.8-0.8,0.8c-0.6,0-0.8-0.4-0.8-0.9C82.4,2.7,82.6,2.4,83.2,2.3z
				"/>
		</g>
		<g>
			<path class="st2" d="M134.6,11.9c0.7,0,1,0.3,1,0.8c0,0.4-0.3,0.8-0.8,0.8c-0.6,0-0.9-0.2-0.9-0.8
				C133.9,12.2,134.3,11.9,134.6,11.9z"/>
		</g>
		<g>
			<path class="st2" d="M38,67.4c-0.5,0-0.8-0.2-0.8-0.7c-0.1-0.6,0.3-0.9,0.8-0.9c0.6,0,0.9,0.4,0.8,0.9
				C38.8,67.1,38.5,67.4,38,67.4z"/>
		</g>
		<g>
			<path class="st2" d="M52.9,21.2c0.5,0,0.9,0.3,0.9,0.9c0,0.5-0.3,0.7-0.8,0.7c-0.6,0-0.9-0.3-0.9-0.9
				C52.1,21.5,52.4,21.2,52.9,21.2z"/>
		</g>
		<g>
			<path class="st2" d="M98.4,123.5c0,0.5-0.3,0.8-0.8,0.8c-0.6,0-0.8-0.4-0.8-0.9c0-0.5,0.4-0.7,0.9-0.7
				C98.2,122.7,98.3,123.1,98.4,123.5z"/>
		</g>
		<g>
			<path class="st2" d="M85.6,121.2c0.5,0,0.8,0.2,0.8,0.7c0,0.6-0.3,0.8-0.9,0.9c-0.5,0-0.8-0.3-0.8-0.7
				C84.7,121.6,85,121.2,85.6,121.2z"/>
		</g>
		<g>
			<path class="st2" d="M160.5,70.7c-0.1,0.5-0.5,0.9-1,0.8c-0.4,0-0.8-0.3-0.7-0.8c0.1-0.5,0.4-0.9,0.9-0.8
				C160.2,69.9,160.4,70.3,160.5,70.7z"/>
		</g>
		<g>
			<path class="st2" d="M51.6,99.8c0,0.6-0.3,0.9-0.8,0.9c-0.6,0.1-0.9-0.3-1-0.8c0-0.4,0.3-0.8,0.8-0.8
				C51.2,99,51.4,99.4,51.6,99.8z"/>
		</g>
		<g>
			<path class="st2" d="M150.1,97.2c0,0.5-0.3,0.8-0.7,0.9c-0.5,0.1-0.9-0.2-1-0.7c-0.1-0.5,0.2-0.8,0.7-0.9
				C149.6,96.4,149.9,96.7,150.1,97.2z"/>
		</g>
		<g>
			<path class="st2" d="M41.9,85c-0.5,0-0.8-0.2-0.9-0.7c-0.1-0.6,0.2-0.9,0.7-1c0.4-0.1,0.8,0.2,0.9,0.7
				C42.7,84.5,42.5,84.9,41.9,85z"/>
		</g>
		<g>
			<path class="st2" d="M40,79.3c-0.6,0-0.8-0.3-0.9-0.8c0-0.6,0.3-0.9,0.8-0.9c0.6,0,0.8,0.4,0.8,0.9C40.8,79,40.4,79.3,40,79.3z"
				/>
		</g>
		<g>
			<path class="st2" d="M41.5,33.2c0,0.5-0.4,0.7-0.9,0.7c-0.5,0-0.7-0.4-0.7-0.8c0-0.5,0.2-0.8,0.7-0.8
				C41.2,32.3,41.5,32.6,41.5,33.2z"/>
		</g>
		<g>
			<path class="st2" d="M47.3,94.1c0.5,0.2,0.8,0.5,0.7,1c-0.1,0.5-0.4,0.7-0.9,0.7c-0.6-0.1-0.8-0.4-0.7-1
				C46.5,94.3,46.9,94.1,47.3,94.1z"/>
		</g>
		<g>
			<path class="st2" d="M95,2c-0.6,0-0.9-0.3-0.8-0.9c0.1-0.5,0.4-0.7,0.8-0.7c0.6,0,0.8,0.4,0.8,0.9C95.8,1.9,95.5,2,95,2z"/>
		</g>
		<g>
			<path class="st1" d="M58,17.7c-0.1,0.5-0.4,0.8-0.9,0.8c-0.5,0-0.8-0.3-0.8-0.8c0-0.5,0.3-0.8,0.7-0.8
				C57.5,16.9,57.8,17.2,58,17.7z"/>
		</g>
		<g>
			<path class="st1" d="M54.7,105.3c-0.5,0-0.9-0.3-0.9-0.8c0-0.5,0.3-0.8,0.8-0.8c0.5,0,0.9,0.2,0.9,0.8
				C55.5,104.9,55.2,105.2,54.7,105.3z"/>
		</g>
		<g>
			<path class="st2" d="M65.3,11.9c-0.1,0.5-0.3,0.8-0.8,0.8c-0.6,0-0.8-0.4-0.8-0.9c0-0.5,0.3-0.8,0.8-0.8
				C65.1,11,65.3,11.4,65.3,11.9z"/>
		</g>
		<g>
			<path class="st1" d="M74.3,119.2c-0.6-0.2-1-0.4-0.9-1c0-0.5,0.4-0.8,0.8-0.8c0.6,0,0.8,0.4,0.8,0.9
				C75,118.8,74.6,119,74.3,119.2z"/>
		</g>
		<g>
			<path class="st1" d="M161,64.6c0,0.5-0.2,0.9-0.7,0.9c-0.6,0.1-0.9-0.3-0.9-0.8c0-0.5,0.3-0.8,0.7-0.9
				C160.6,63.8,160.9,64.2,161,64.6z"/>
		</g>
		<g>
			<path class="st1" d="M144.7,20.6c-0.1,0.5-0.4,0.8-1,0.8c-0.5,0-0.8-0.4-0.7-0.8c0-0.5,0.4-0.8,1-0.8
				C144.4,19.9,144.6,20.2,144.7,20.6z"/>
		</g>
		<g>
			<path class="st3" d="M99.4,51.2c0.5-0.3,0.6,0.1,0.8,0.4C99.7,51.9,99.5,51.6,99.4,51.2z"/>
		</g>
		<g>
			<path class="st3" d="M115.2,42.9c0.4-0.1,0.7-0.1,0.4,0.4C115.3,43.3,115.2,43.1,115.2,42.9z"/>
		</g>
		<g>
			<path class="st3" d="M114.8,42.5c0.5-0.3,0.5,0,0.4,0.4C115,42.9,114.7,43,114.8,42.5z"/>
		</g>
		<g>
			<path class="st3" d="M119.2,47.2c0.1,0,0.2-0.2,0.4,0c0.2,0.2,0,0.3,0,0.4C119.3,47.6,119,47.6,119.2,47.2z"/>
		</g>
		<g>
			<path class="st3" d="M107,43.8c-0.1-0.1-0.2-0.4-0.2-0.4c0.2-0.2,0.4,0,0.5,0.2C107.2,43.7,107.1,43.7,107,43.8z"/>
		</g>
		<g>
			<path class="st3" d="M84.3,55.9c0.1-0.5,0.3-0.6,0.8-0.4C85,56.1,84.8,56.3,84.3,55.9z"/>
		</g>
		<g>
			<path class="st3" d="M81.7,51.2c-0.3-0.5,0-0.5,0.4-0.4C82.4,51.3,82,51.2,81.7,51.2z"/>
		</g>
		<g>
			<path class="st3" d="M88.6,39.3c-0.2-0.5,0.2-0.4,0.4-0.4C89.2,39.4,88.8,39.3,88.6,39.3z"/>
		</g>
	</g>
	<g>
		<path d="M180,81.9c-3.3-1.6-6.6-3.5-9.7-5.5c-6.5-4.2-12.4-9.3-17.6-15.1c4.5-1.6,8.9-3.2,13.4-4.8c-4.8,0.6-9.6,1.3-14.3,1.9
			c4.1-1.8,8.2-3.6,12.2-5.4c-3.5,0.8-7.1,1.6-10.6,2.4c-1.2,0.3-2.5,0.5-3.4-0.3c-0.6-0.5-0.8-1.4-1-2.2
			c-1.3-7.5,1.3-15.6,6.7-20.9c-6.1,2.8-12.6,4.6-19.3,5.2c-2.8,0.3-6.4-0.2-7.2-3c-1.3,0.7-2.9-0.4-3.8-1.5
			c-3.4-4.3-3.3-10.3-2.5-15.7c0.7-4.9,1.7-9.7,3.1-14.5c0.2-0.8,0.9-1.9,0.1-2.5c-0.8-0.6-1.3,0.1-1.7,0.7c-1.4,1.8-2.4,4-3.7,5.9
			c-5.2,7.7-11.5,14.7-18.6,20.7c0.4-2.6,0.9-5.2,1.3-7.7c-1.7,2.9-3.4,5.8-5.1,8.6c1.3-5.2,2.6-10.4,3.9-15.7
			c-1.5,5.3-4,10.4-7.2,14.9c1.4-4.6,2.4-9.4,2.8-14.2c-1.7,4.5-3.4,8.9-5.1,13.4c-5.2-6.8-8.4-15-9-23.5C83.3,11.5,82.9,19.9,79,27
			c-1.4,2.6-3.5,5.1-6.4,5.8c-2.2,0.5-4.5-0.2-6.6-1c-6.9-2.7-13.1-7-18-12.6c3.9,6.1,5.5,13.6,4.7,20.7c-2.2-1.5-4.4-3-6.6-4.5
			c1.6,2.4,3.2,4.7,4.8,7.1c-3.1-1.2-6-3-8.4-5.3c1.3,2.5,3.1,4.7,5.4,6.3c-4.8,1.3-10,1.2-14.8-0.3c2.8,4.3,5.7,9.3,4.4,14.2
			c-1,3.8-4.4,6.5-7.7,8.7C20.6,72.4,10.5,77.4,0,81c10.7-2.4,22-2.3,32.6,0.3c-6.1,2.6-12.2,5.3-18.3,7.9c6.2-1.7,12.4-3.3,18.7-5
			c0.8-0.2,1.6-0.4,2.4-0.2c1.4,0.5,1.9,2.3,1.9,3.8c0.1,3.8-1,7.5-3,10.7c3.8-1.9,7.7-3.8,11.5-5.7c0.8-0.4,1.7-0.8,2.5-0.6
			c0.9,0.2,1.6,1.2,1.2,1.9c1.1-0.3,2.1-0.7,3.2-1c2.4,7.1,2.3,15.1-0.5,22.1c4.7-8.5,11.7-15.8,20-20.9c-0.7,2.9-1.4,5.9-2.1,8.8
			c1-1.9,2.1-3.9,3.1-5.8c0.4-0.7,0.7-1.4,1.4-1.7c1.9-1,3.7,1.5,4.3,3.5c2.9,8.9,4.6,18.2,5.2,27.5c0.3-7.9,1.7-15.7,4.1-23.2
			c0.5,3,1.1,6,1.6,9c0.2-3.7,0.4-7.3,0.6-11c1.3,5.8,2.7,11.5,4,17.3c0.1-5.9-0.5-11.9-2-17.6c2,2.6,3.4,5.7,4.2,8.9
			c0.2-2.1,0.3-4.2,0.5-6.3c4.6,9.9,9.2,19.7,13.7,29.6c1.1-12.4-4.3-25.5,0.3-37.1c0.6-1.4,1.5-3,3-3.4c1.5-0.4,3,0.4,4.3,1.3
			c5.5,3.6,10.6,7.8,15.1,12.5c-2.9-5.3-3.1-12.1-0.3-17.6c2.1,1.5,4.4,2.6,6.9,3.3c-1.7-1.8-3.6-3.5-5.7-4.9
			C147.9,79.6,164.5,80.7,180,81.9z"/>
	</g>
	<g>
		<polygon points="160.5,39.1 162.4,42.8 166.5,43.4 163.5,46.4 164.2,50.5 160.5,48.5 156.8,50.5 157.5,46.4 154.5,43.4 
			158.7,42.8 		"/>
	</g>
	<g>
		<polygon points="22.7,54.1 21.9,58.2 24.8,61.2 20.7,61.7 18.8,65.4 17,61.6 12.9,61 15.9,58.1 15.3,54 19,56 		"/>
	</g>
	<g>
		<polygon points="66.7,108.4 66.2,111 68.1,113 65.4,113.3 64.1,115.8 63,113.3 60.3,112.8 62.3,111 61.9,108.3 64.3,109.6 		"/>
	</g>
	<g>
		<polygon points="75.1,8.9 74.6,11.6 76.5,13.6 73.8,13.9 72.5,16.3 71.4,13.8 68.7,13.4 70.7,11.5 70.3,8.8 72.6,10.1 		"/>
	</g>
</g>
</svg>
