<?xml version="1.0" encoding="utf-8"?>
<!-- Generator: Adobe Illustrator 23.0.1, SVG Export Plug-In . SVG Version: 6.00 Build 0)  -->
<svg version="1.1" id="Layer_1" xmlns="http://www.w3.org/2000/svg" xmlns:xlink="http://www.w3.org/1999/xlink" x="0px" y="0px"
	 viewBox="0 0 180 153.3" style="enable-background:new 0 0 180 153.3;" xml:space="preserve">
<style type="text/css">
	.st0{fill:none;stroke:#000000;stroke-miterlimit:10;}
	.st1{fill:#1E1E1E;}
	.st2{fill:#282828;}
	.st3{fill:#FBFBFB;}
</style>
<path d="M138.9,0.6c-33.6-0.2-67.2,0.3-100.8,1C18.8,2.1,2.7,17.6,0.7,36.9c-1.5,14.6-0.2,29.3,0,43.9c0.3,24.5,17.2,40.9,41.7,41.1
	c21.2,0.2,42.4,0.4,63.7,0.6c3.5,0,5.8,0.6,7.5,4.5c8.7,19.1,25.3,25.3,45.5,27c-4.6-8.3-10.2-15.3-11.8-24.2
	c-0.9-4.9-0.5-7.6,4.9-9.6c15.4-5.8,25.1-16.9,26.5-33.6c1.2-14.3,1-28.7,1.2-43.1C180.3,18.9,163.4,0.8,138.9,0.6z M172.2,34.5
	c-0.3-0.8-0.5-1.7-0.9-2.5l-1-2.4c-0.3-0.8-0.8-1.5-1.2-2.3c-0.8-1.5-1.8-2.9-2.8-4.3c-1.1-1.3-2.2-2.6-3.4-3.8
	c-2.4-2.4-5.2-4.4-8.2-6.2c-3-1.7-6.2-3.2-9.5-4.4c3.6,0.3,7,1.3,10.3,2.8c3.3,1.5,6.3,3.6,8.9,6.1c1.3,1.2,2.4,2.7,3.6,4.1
	c0.9,1.6,2,3,2.7,4.7c1.6,3.3,2.2,6.9,2.5,10.4C172.8,36.1,172.5,35.3,172.2,34.5z"/>
</svg>
