<?xml version="1.0" encoding="utf-8"?>
<!-- Generator: Adobe Illustrator 23.0.1, SVG Export Plug-In . SVG Version: 6.00 Build 0)  -->
<svg version="1.1" id="Layer_1" xmlns="http://www.w3.org/2000/svg" xmlns:xlink="http://www.w3.org/1999/xlink" x="0px" y="0px"
	 viewBox="0 0 180 142.6" style="enable-background:new 0 0 180 142.6;" xml:space="preserve">
<style type="text/css">
	.st0{fill:none;stroke:#000000;stroke-miterlimit:10;}
	.st1{fill:#1E1E1E;}
	.st2{fill:#282828;}
	.st3{fill:#FBFBFB;}
</style>
<g>
	<path d="M180,91.5c-7.5,0.1-14.9-2.6-20.7-7.3c-4.1-3.4-7.5-9.4-4.7-13.9c1.6-2.6,4.9-3.9,8-3.8s6.1,1.1,9,2.2
		c-6.8-4-13.6-8-20.4-12.1c6.3-9.5,14-19.8,25.3-21.2c-2.3-0.3-4.6-0.7-6.9-1c0.8-1.8,1.6-3.5,2.3-5.3c-4.1,1.2-4.9,6.9-8.4,9.3
		c-3.9,2.6-9,0.1-13.7,0c-5.2,0-10.2,3.4-12,8.2c-2.6-9.3-0.5-19.8,5.6-27.3c1.9,2.9,6.5,3.6,9.2,1.3c-2,1.2-4.8-0.4-5.6-2.6
		c-0.9-2.2-0.4-4.6,0.2-6.9c-8.2,11.2-19.5,20-32.4,25.1c-1-6,1.7-11.9,3.6-17.6c1-2.8,1.7-5.8,1.8-8.8c0.1-2,0-7.1-2.1-8.2
		c-0.5,0.6,0,2.7,0.1,3.5c0,1.3,0,2.5-0.2,3.8c-0.3,2.5-1,5-2.1,7.3c-2.1,4.7-5.5,8.8-9.9,11.5c-2.4-2.3-5.3-4.1-8.4-5.2
		c0.6,2.5-1.5,5.1-4,5.6c-2.5,0.5-5.1-0.8-6.9-2.7c-0.3,2.7-0.6,5.3-0.9,8C79.3,22.8,73.5,11.5,68.3,0c2.8,10.7,3.8,22,2.9,33
		c-3.4-3.3-6.9-6.7-10.3-10c1.7,4.4-3.4,9.7-7.9,8.2c0.7,2.9,1.4,5.8,2,8.7c-6.9-1-12.9-5.6-16.9-11.3S31.8,16.2,30,9.5
		c0.2,3.2,0.3,6.5,0.5,9.7c-1.8-0.2-3.7-0.3-5.5-0.5c8.2,3.1,12,12.4,14.8,20.6c0.3,0.9,0.6,1.9,0.1,2.7c-0.4,0.7-1.2,1-1.9,1.2
		c-2.2,0.8-4.4,1.6-6.6,2.4c1.4,3.6,2.7,7.2,4.1,10.8C25.1,52.4,15.7,45.8,8.1,37.5c-0.6,3-2.8,5.7-5.7,6.9c2.5,1.2,5.9-0.1,6.8-2.7
		c6.5,7,13.1,14.1,19.6,21.1c-1.1,0.7-2.2,1.4-3.2,2.1c2.2,2.2,4.4,4.4,6.6,6.6c-9.6,0.2-19.1-0.8-28.4-2.9c1.1,1.2,1.4,3,0.7,4.5
		c7.2-1.5,15.1,0.7,20.5,5.7c0.7,0.7,1.5,1.5,1.6,2.5c0.1,0.9-0.3,1.8-0.7,2.7c-3.6,7-7.1,14.1-10.7,21.1c-1.3,2.6-2.8,5.4-5.6,6.3
		c-2,0.7-4.1,0.2-6.2,0.6s-4.1,2.4-3.2,4.3c2.1-1.6,5-1.4,7.6-2c5.8-1.3,9.7-6.5,13.7-10.8c4-4.3,9.7-8.4,15.4-6.8
		c0.9,0.3,1.8,0.7,2.4,1.4c1.8,2.2,0.2,5.5-1.7,7.6c-1.9,2.1-4.3,4.5-3.6,7.3c3-6.1,8.7-10.7,15.3-12.3c0.3,6.7,0.7,13.3,1,20
		c0.1,1.2,0.1,2.4-0.4,3.5c-1.3,2.5-4.8,2.6-7.1,4.3c-4.1,3.1-2.1,9.6,0.2,14.2c-0.1-2.9-0.2-5.8-0.3-8.8c0-1,0-2,0.5-2.8
		c1-1.5,3.2-1.3,4.9-1.8c3.8-1.2,5.1-5.8,6.1-9.6c2.7-10,7.4-19.4,13.7-27.5c0.2,4.6,0.4,9.2,0.6,13.8c4.4-3.7,8.9-7.4,13.3-11.2
		c6.1,10,9.9,21.4,11.1,33c0.9-11.5,1.8-23,2.6-34.6c2.4,1.7,4.8,3.3,7.2,5c-1.8-2.2,1-5.7,3.9-5.6s5.2,2.2,7.2,4.1
		c8.6,7.9,18.4,14.6,28.9,19.8c-2.7-5.4-9.5-7.2-13.3-11.9c-4.3-5.5-3.5-13.3-2.2-20.2c2.4,1.8,5,3.5,8,3.8s6.4-1.1,7.3-4
		c3.1,5.1,9.9,6,15.8,6.4c5.9,0.4,12.7,1.2,16,6.1c-0.2-1.2-0.3-2.4-0.5-3.6C176,92.7,178,92.1,180,91.5z"/>
</g>
</svg>
