<?xml version="1.0" encoding="utf-8"?>
<!-- Generator: Adobe Illustrator 23.0.1, SVG Export Plug-In . SVG Version: 6.00 Build 0)  -->
<svg version="1.1" id="Layer_1" xmlns="http://www.w3.org/2000/svg" xmlns:xlink="http://www.w3.org/1999/xlink" x="0px" y="0px"
	 viewBox="0 0 180 118.2" style="enable-background:new 0 0 180 118.2;" xml:space="preserve">
<style type="text/css">
	.st0{fill:none;stroke:#000000;stroke-miterlimit:10;}
	.st1{fill:#1E1E1E;}
	.st2{fill:#282828;}
	.st3{fill:#FBFBFB;}
</style>
<g>
	<g>
		<path d="M149.1,33.3c-0.6-0.2-1.3-0.4-2-0.6c-1.8-0.4-2.6-1.1-1.1-3c2-2.6,2.2-5.7,1.2-8.8c-1.1-3.3-3.9-4.6-7.1-3.2
			c-3.7,1.6-5.8,4.5-5.7,8.5c0,2.1-0.6,3.1-2.6,3.5c-0.5,0.1-0.9,0.4-1.3,0.6c-2.5,1.3-3.8,3.4-3.7,6.3c0.1,3.2,1.6,5.8,4.5,7.1
			c2.5,1.1,4.9,0.3,6.8-1.6c1.1-1.1,2.1-2.3,3.3-3.7c0.4,0.9,0.6,1.6,1,2.3c1.2,2.5,3.2,3.9,6,3.2c2.6-0.6,4.4-2.4,4.7-5.1
			C153.3,36,151.7,34.2,149.1,33.3z"/>
		<path d="M133.4,45.3c-0.9,0-1.8-0.2-2.7-0.6c-3.2-1.4-5-4.3-5.1-8c-0.1-3.2,1.4-5.7,4.3-7.2l0.2-0.1c0.4-0.2,0.9-0.5,1.4-0.6
			c1.3-0.2,1.8-0.6,1.8-2.4c-0.1-4.4,2.1-7.7,6.3-9.5c1.8-0.8,3.6-0.8,5.2-0.1c1.5,0.7,2.7,2.1,3.3,4c1.2,3.6,0.8,7-1.3,9.7
			c-0.4,0.5-0.5,0.8-0.5,0.9c0.1,0.1,0.4,0.2,1.1,0.4c0.8,0.2,1.5,0.4,2.1,0.6h0c4.3,1.5,4.8,4.4,4.6,6.6c-0.4,3-2.4,5.2-5.5,6
			c-3,0.8-5.6-0.6-7.2-3.7c-0.1-0.3-0.3-0.5-0.4-0.8c-0.8,0.9-1.5,1.7-2.2,2.5C137,44.5,135.2,45.3,133.4,45.3z M142.4,18.3
			c-0.6,0-1.3,0.1-2,0.4c-3.5,1.5-5.2,4-5.1,7.6c0,1.7-0.3,4-3.5,4.5c-0.2,0-0.5,0.2-0.8,0.3l-0.2,0.1c-2.2,1.1-3.2,2.9-3.1,5.3
			c0.1,3,1.4,5.1,3.9,6.2c1.9,0.9,3.8,0.4,5.6-1.4c0.7-0.7,1.4-1.5,2.1-2.4c0.4-0.4,0.7-0.8,1.1-1.3l1.1-1.2l0.6,1.5
			c0.1,0.3,0.2,0.6,0.4,0.9c0.2,0.5,0.4,1,0.6,1.4c1.2,2.3,2.7,3.2,4.8,2.7c1.3-0.3,3.6-1.3,4-4.2c0.2-1.4,0-3.3-3.2-4.4
			c-0.6-0.2-1.2-0.4-1.9-0.6c-1.1-0.3-2.2-0.7-2.6-1.7c-0.4-1.1,0.3-2.2,0.9-2.9c1.7-2.2,2-4.8,1-7.8c-0.4-1.3-1.2-2.3-2.2-2.7
			C143.4,18.4,142.9,18.3,142.4,18.3z"/>
	</g>
	<g>
		<path d="M176.1,17.3c-1.8-0.2-3.3,0.2-3.6,2.5c-0.4,2.6-1.6,0.9-2.5,0.3c-2.5-1.8-5.1-1.7-6.9,0.3c-1.8,2.1-1.4,5.5,0.8,7.4
			c1.6,1.4,4.3,0.9,6.2-1.5c1.1-1.3,2-1.6,3.7-1.1c2.5,0.7,5.2-1.7,5.2-4.3C178.7,19.1,178.2,17.5,176.1,17.3z"/>
		<path d="M166,29.6c-1.1,0-2-0.4-2.8-1c-2.6-2.3-3-6.4-0.9-8.9c2.1-2.4,5.4-2.6,8.3-0.4c0.2,0.1,0.4,0.3,0.5,0.5
			c0.1,0.1,0.2,0.2,0.3,0.2c0-0.1,0-0.2,0.1-0.3c0.3-1.7,1.3-3.7,4.8-3.4h0c3.2,0.3,3.6,3.5,3.8,4.5l0,0.1c0,1.7-0.8,3.4-2.3,4.4
			c-1.3,1-2.8,1.3-4.2,0.9c-1.3-0.4-1.7-0.2-2.6,0.8c-1.2,1.5-2.9,2.4-4.5,2.6C166.3,29.6,166.1,29.6,166,29.6z M166.5,19.8
			c-1,0-1.9,0.4-2.6,1.2c-1.4,1.7-1.1,4.5,0.7,6c0.5,0.5,1.2,0.5,1.7,0.5c1.1-0.1,2.2-0.8,3.1-1.8c1.4-1.7,2.7-2.1,4.8-1.5
			c0.8,0.2,1.6,0,2.4-0.5c0.9-0.7,1.4-1.7,1.4-2.7c-0.3-2.1-0.9-2.6-1.9-2.7c-1.9-0.2-2.3,0.5-2.5,1.6c-0.1,0.8-0.4,1.9-1.3,2.2
			c-1,0.4-1.8-0.4-2.4-0.9c-0.1-0.1-0.3-0.2-0.4-0.3C168.4,20.2,167.4,19.8,166.5,19.8z"/>
	</g>
	<path d="M117.6,49.5c-0.5-0.4-1-0.8-1.5-1.1c-3.8-3-8.5-6.6-14.5-4.1c4.5-4.1,7-9.7,7.4-16.7c0.5-9.2-2.3-16.8-8.4-22.3
		C93.9-1,84.4-1.7,75.1,3.4C70.2,6.1,66.2,9.9,62.9,15c-0.1-0.3-0.2-0.5-0.4-0.7c-3.3-6.6-9-10.9-15.7-11.6
		C40.2,1.9,33.7,4.8,29,10.5c-3.7,4.5-4.9,9.7-3.6,15.4c0,0.2,0.1,0.4,0.2,0.6c0.2,0.7,0.3,1,0.2,1.1c-0.1,0-0.5-0.2-0.7-0.3
		c-0.3-0.2-0.5-0.3-0.9-0.4c-1.5-0.6-3-1.1-4.6-1.1C11,25.6,3.7,31.4,0.9,40.6c-2.5,8.5,0.2,16.6,7,20.7c0.7,0.4,1.5,0.6,2.2,0.8
		c1.4,0.3,1.8,0.5,1.8,0.9c0.1,0.7-0.6,1.7-1.3,2.7c-0.4,0.6-0.7,1.1-1,1.7c-4.2,8.2-4.5,21,4.9,29.5c7.7,7,21,9.8,31.8,1.5
		c0,0,0,0,0.1,0c0,0,0,0,0,0c0.1,0.5,0.3,1,0.4,1.5c0.1,0.6,0.2,1.1,0.4,1.7c1.6,4.9,4.2,10.9,10.3,14.2c2.8,1.5,5.9,2.3,9.1,2.3
		c2.7,0,5.4-0.5,8.1-1.6c6.1-2.5,10.9-7.7,12.6-13.8c1.1-3.9,1.3-7.9,1.5-11.4c0.1-1.5,0.4-1.8,0.4-1.8c0,0,0.4-0.1,1.8,0.7
		c0.5,0.3,0.8,0.5,1.1,0.8c4.6,3.6,11.2,4.9,17.7,3.5c6.6-1.4,12-5.5,14.9-11.2C129.5,73.2,129.6,58.3,117.6,49.5z M121.3,81
		c-1.2,2.4-3,4.4-5.1,6c-2.1,1.6-4.6,2.7-7.1,3.2c-2.6,0.6-5.2,0.6-7.8,0.1c-2.5-0.5-5-1.6-6.9-3.3c2.1,1.4,4.5,2.3,7,2.6
		c2.5,0.3,5,0.2,7.4-0.5c4.8-1.2,9.1-4.4,11.3-8.8c1.1-2.2,1.9-4.6,2.3-7c0.4-2.4,0.5-5,0.1-7.4c-0.4-2.5-1.2-4.8-2.4-7
		c-1.2-2.2-2.9-4.1-4.9-5.7c2.1,1.4,4,3.3,5.4,5.4c1.4,2.2,2.4,4.6,2.9,7.2C124.6,70.9,123.7,76.3,121.3,81z"/>
</g>
</svg>
