<?xml version="1.0" encoding="utf-8"?>
<!-- Generator: Adobe Illustrator 17.0.0, SVG Export Plug-In . SVG Version: 6.00 Build 0)  -->
<!DOCTYPE svg PUBLIC "-//W3C//DTD SVG 1.1//EN" "http://www.w3.org/Graphics/SVG/1.1/DTD/svg11.dtd">
<svg version="1.1" id="Layer_1" xmlns="http://www.w3.org/2000/svg" xmlns:xlink="http://www.w3.org/1999/xlink" x="0px" y="0px"
	 width="143.131px" height="180px" viewBox="28.434 10 143.131 180" enable-background="new 28.434 10 143.131 180"
	 xml:space="preserve">
<path fill="#ED1C24" d="M112.974,190c22.618,0,41.472-9.102,48.526-13.014l10.066-5.577l-11.35-22.691l-10.799,5.567
	c-8.341,4.304-21.352,9.433-35.962,9.433c-27.13,0-56.12-16.741-56.12-63.731c0-46.968,28.989-63.703,56.12-63.703
	c14.046,0,26.558,4.883,34.582,8.98l10.809,5.52l11.279-22.707l-10.116-5.532C153.122,18.774,134.754,10,112.974,10
	c-51.355,0-84.539,35.323-84.539,89.987C28.434,154.668,61.619,190,112.974,190z M112.974,12.4c21.229,0,39.158,8.568,45.881,12.25
	l8.093,4.426l-9.172,18.467l-8.647-4.416c-8.259-4.217-21.153-9.243-35.673-9.243c-28.291,0-58.52,17.365-58.52,66.103
	c0,48.759,30.229,66.131,58.52,66.131c15.088,0,28.483-5.274,37.062-9.7l8.639-4.454l9.233,18.46l-8.052,4.461
	c-6.889,3.821-25.3,12.714-47.363,12.714c-49.897,0-82.139-34.39-82.139-87.613C30.835,46.781,63.077,12.4,112.974,12.4z"/>
<path fill="#F26649" d="M112.974,185.199c21.505,0,39.474-8.682,46.201-12.414l6.038-3.345l-7.117-14.229l-6.479,3.34
	c-8.817,4.548-22.596,9.967-38.163,9.967c-29.451,0-60.92-18.003-60.92-68.532c0-50.508,31.469-68.504,60.92-68.504
	c14.997,0,28.271,5.169,36.766,9.505l6.485,3.312l7.066-14.226l-6.07-3.319c-6.563-3.596-24.06-11.955-44.728-11.955
	c-48.439,0-79.739,33.438-79.739,85.186C33.235,151.752,64.535,185.199,112.974,185.199z M112.974,17.201
	c20.108,0,37.171,8.153,43.574,11.659l4.047,2.213l-4.96,9.986l-4.324-2.208c-8.729-4.456-22.385-9.768-37.857-9.768
	c-30.611,0-63.321,18.626-63.321,70.904c0,52.299,32.709,70.932,63.321,70.932c16.045,0,30.208-5.565,39.263-10.234l4.319-2.227
	l5,9.998l-4.025,2.229c-6.561,3.64-24.089,12.114-45.038,12.114c-46.981,0-77.338-32.505-77.338-82.812
	C35.636,49.697,65.993,17.201,112.974,17.201z"/>
<path fill="#FAB49B" d="M112.974,22.001c18.757,0,34.661,7.453,41.269,11.07l-0.748,1.504c-8.418-4.297-23.184-10.293-40.041-10.293
	c-32.932,0-68.121,19.888-68.121,75.706c0,55.837,35.189,75.732,68.121,75.732c17.461,0,32.77-6.287,41.463-10.768l0.768,1.534
	c-6.736,3.738-23.114,11.513-42.712,11.513c-44.065,0-72.538-30.621-72.538-78.011C40.437,52.612,68.909,22.001,112.974,22.001z"/>
</svg>
