<?xml version="1.0" encoding="utf-8"?>
<!-- Generator: Adobe Illustrator 25.2.1, SVG Export Plug-In . SVG Version: 6.00 Build 0)  -->
<svg version="1.1" id="Layer_1" xmlns="http://www.w3.org/2000/svg" xmlns:xlink="http://www.w3.org/1999/xlink" x="0px" y="0px"
	 viewBox="0 0 180 303.7" style="enable-background:new 0 0 180 303.7;" xml:space="preserve">
<style type="text/css">
	.st0{fill:#C06428;}
	.st1{fill:#9F3032;}
	.st2{fill:#DD3A3E;}
	.st3{fill:#7C2122;}
	.st4{fill:#F79421;}
	.st5{fill:#CB7028;}
	.st6{fill:#232426;}
	.st7{fill:#3A383A;}
	.st8{fill:#D8DADC;}
	.st9{fill:#FFFFFF;}
	.st10{fill:#D1DCDD;}
	.st11{fill:#1A1A1A;}
	.st12{fill:#CD2027;}
	.st13{fill:#010101;}
	.st14{fill:#E6E6E5;}
	.st15{fill:#9DCB3B;}
	.st16{fill:#D3D3D3;}
	.st17{fill:#4BC3C9;}
	.st18{fill:#B3B3B3;}
	.st19{opacity:0.59;}
	.st20{fill:#CCCCCC;}
	.st21{fill:#FAA61D;}
	.st22{fill:#E4841E;}
	.st23{fill:#CECECE;}
	.st24{fill:#F58021;}
	.st25{fill:#833615;}
	.st26{fill:#FBB580;}
	.st27{fill:#2A2523;}
	.st28{fill:url(#SVGID_1_);}
	.st29{fill:#4C4847;}
	.st30{fill:#77483C;}
	.st31{fill:#5F382D;}
</style>
<g>
	<path class="st13" d="M102.8,296.4c0,7.1-5.7,7.3-12.8,7.3l0,0c-7.1,0-12.8-0.2-12.8-7.3v-13.5c0-7.1,5.7-12.8,12.8-12.8l0,0
		c7.1,0,12.8,5.7,12.8,12.8V296.4z"/>
	<path class="st7" d="M180,193c0,49.7-40.3,90-90,90c-49.7,0-90-40.3-90-90c0-49.7,40.3-90,90-90C139.7,103,180,143.3,180,193z"/>
	<path class="st7" d="M180,62.7c0-24.7-40.3-44.8-90-44.8C40.3,17.9,0,38,0,62.7s40.3,44.8,90,44.8C139.7,107.5,180,87.4,180,62.7z"
		/>
	<path class="st13" d="M90,0C40.3,0,0,20.1,0,44.8c0,4.8,0,10.6,0,17.9C0,38,40.3,17.9,90,17.9c49.7,0,90,20.1,90,44.8
		c0-5.8,0-13.4,0-17.9C180,20.1,139.7,0,90,0z"/>
	<path class="st14" d="M162.5,193c0,40.1-32.5,72.5-72.5,72.5c-40.1,0-72.5-32.5-72.5-72.5c0-40.1,32.5-72.5,72.5-72.5
		C130.1,120.5,162.5,152.9,162.5,193z"/>
	<g>
		
			<rect x="68.8" y="135.1" transform="matrix(0.9234 -0.3839 0.3839 0.9234 -50.5794 38.2227)" class="st7" width="3.3" height="21.5"/>
		
			<rect x="107.9" y="229.4" transform="matrix(0.9235 -0.3835 0.3835 0.9235 -83.7166 60.365)" class="st7" width="3.3" height="21.5"/>
		<polygon class="st7" points="53.4,176 52.1,179.1 32.3,170.9 33.6,167.8 		"/>
		
			<rect x="135.5" y="201.8" transform="matrix(0.3838 -0.9234 0.9234 0.3838 -111.7249 257.5945)" class="st7" width="3.3" height="21.5"/>
		
			<rect x="32.1" y="210.8" transform="matrix(0.9242 -0.3818 0.3818 0.9242 -77.8916 32.4575)" class="st7" width="21.5" height="3.3"/>
		<polygon class="st7" points="146.4,167.8 147.7,170.9 127.9,179.1 126.6,176 		"/>
		
			<rect x="59.7" y="238.5" transform="matrix(0.383 -0.9238 0.9238 0.383 -178.347 213.271)" class="st7" width="21.5" height="3.3"/>
		<polygon class="st7" points="112.1,135.3 115.2,136.5 107,156.4 103.9,155.1 		"/>
	</g>
	<g>
		<rect x="86.3" y="120.5" class="st13" width="7.3" height="21.5"/>
		<rect x="86.3" y="244" class="st13" width="7.3" height="21.5"/>
		<rect x="17.5" y="189.3" class="st13" width="21.5" height="7.3"/>
		<rect x="141" y="189.3" class="st13" width="21.5" height="7.3"/>
	</g>
	<g>
		
			<rect x="42.7" y="138.6" transform="matrix(0.7071 -0.7072 0.7072 0.7071 -92.0068 76.4867)" class="st13" width="7.3" height="21.5"/>
		
			<rect x="130" y="225.9" transform="matrix(0.707 -0.7073 0.7073 0.707 -128.2074 163.9046)" class="st13" width="7.3" height="21.5"/>
		
			<rect x="35.6" y="233" transform="matrix(0.7071 -0.7071 0.7071 0.7071 -153.783 102.0672)" class="st13" width="21.5" height="7.3"/>
		
			<rect x="122.9" y="145.6" transform="matrix(0.7072 -0.707 0.707 0.7072 -66.4087 138.233)" class="st13" width="21.5" height="7.3"/>
	</g>
	<g>
		<path class="st12" d="M97.5,195.4l-13.7,29.1L70,253.7l6.3-31.6l6.3-31.6l2.9,1c-0.1,0.5-0.2,1-0.2,1.5c0,2.7,2.1,4.8,4.8,4.9
			c2.2,0,4-1.4,4.6-3.3L97.5,195.4z"/>
		<path class="st13" d="M110,132.3l-6.3,31.6l-6.3,31.6l-2.9-0.9c0.2-0.5,0.3-1,0.3-1.5c0-2.7-2.1-4.9-4.8-4.9c-2.2,0-4,1.4-4.7,3.3
			l-2.9-1l13.7-29.1L110,132.3z"/>
	</g>
</g>
</svg>
