<?xml version="1.0" encoding="utf-8"?>
<!-- Generator: Adobe Illustrator 25.2.1, SVG Export Plug-In . SVG Version: 6.00 Build 0)  -->
<svg version="1.1" id="Layer_1" xmlns="http://www.w3.org/2000/svg" xmlns:xlink="http://www.w3.org/1999/xlink" x="0px" y="0px"
	 viewBox="0 0 180 109" style="enable-background:new 0 0 180 109;" xml:space="preserve">
<style type="text/css">
	.st0{fill:#C06428;}
	.st1{fill:#9F3032;}
	.st2{fill:#DD3A3E;}
	.st3{fill:#7C2122;}
	.st4{fill:#F79421;}
	.st5{fill:#CB7028;}
	.st6{fill:#232426;}
	.st7{fill:#3A383A;}
	.st8{fill:#D8DADC;}
	.st9{fill:#FFFFFF;}
	.st10{fill:#D1DCDD;}
	.st11{fill:#1A1A1A;}
	.st12{fill:#CD2027;}
	.st13{fill:#010101;}
	.st14{fill:#E6E6E5;}
	.st15{fill:#9DCB3B;}
	.st16{fill:#D3D3D3;}
	.st17{fill:#4BC3C9;}
	.st18{fill:#B3B3B3;}
	.st19{opacity:0.59;}
	.st20{fill:#CCCCCC;}
	.st21{fill:#FAA61D;}
	.st22{fill:#E4841E;}
	.st23{fill:#CECECE;}
	.st24{fill:#F58021;}
	.st25{fill:#833615;}
	.st26{fill:#FBB580;}
	.st27{fill:#2A2523;}
	.st28{fill:url(#SVGID_1_);}
	.st29{fill:#4C4847;}
	.st30{fill:#77483C;}
	.st31{fill:#5F382D;}
</style>
<g>
	<g>
		<path class="st24" d="M117.4,76.5c-0.8,1.6-1.6,1.4-1.8,1.4c1.5-1.9-0.3-4.1-1.5-6.8c-1.2-2.7-0.2-3.7,1-4.2
			c-1.6-0.3-3.1,1.5-3.5,1.5c2.3-3.5,0-7.5-2.2-8.1c2.7,3.1-0.9,6.8-0.1,5c0.8-1.7-0.6-3.8-2.3-3.8c-1.6,0-2.5,0.3-2.2-2.2
			c0.3-2.5-0.2-3.8-1.4-3.2c-1.2,0.6-3.4,0.3-2.5-1.1c0.9-1.4,0.5-2.3,0.5-2c-0.1,1.2-2.2,3.4-2.5,3.6c1.1-1.1,1.4-4.9-1.6-6.7
			c-2.2-1.3-2.4-3-2.3-3.7c-0.5,1.7-2.5,2.6-2.3,2.3c1.6-1.6,0.8-4.8,0.8-5.8c0,2-2.7,2.7-5.6,3.6c-2.9,0.8-5.4,4.3-3.1,7.8
			c2.3,3.5,0.2,4.7-0.7,2.7c-0.9-1.9-2.1-2.4-2.1-2.4c2.1,2.4,2.7,5.6-2.1,6.6c-4.8,1-3.8,5.3-3.5,5.9c-2.9-2.9-1-5.4,0.2-6.1
			c-8.5,3.4-7.6,11-2.8,13.9c4.8,2.9,6,3.7,4.1,5.7c-0.4,0.4-0.7,0.3-1,1.1C76.6,81.4,76,79.3,76,78c0-2.3-3.7,8.7-0.4,11.4
			c0.1,0.1,0.2,0.1,0.2,0.2c0.3,0.6,0.6,1.9,0.8,4.5c0.4,4.8,15.5,6.1,25.7,6.1c10.1,0,12.3-8.9,11-10.2c-1.3-1.4-2.6-1.2,1.8-4.6
			C119.5,81.9,117.8,76.9,117.4,76.5z"/>
		<path class="st24" d="M95.2,46.3c0-0.1,0.1-0.2,0.1-0.3C95.2,46,95.2,46.1,95.2,46.3z"/>
		<path class="st24" d="M76.8,61c0.2-0.1,0.3-0.1,0.5-0.2C77.1,60.8,77,60.9,76.8,61z"/>
	</g>
	<path class="st25" d="M125.2,107.1c-0.6-4.3-1-8.6-1.2-12.9c-0.9,0-1.7,0.1-2.6,0.1c0-3.1-0.9-6.3-2.4-9
		c-7.7,2.2-15.4,4.3-23.3,4.8c-7.9,0.5-16.2-0.9-22.8-5.4c-0.5,0.4-1.1,0.9-1.6,1.3c0.9,0.8,1.7,1.7,2.6,2.5c-1.4-0.2-5.9-1.6-7.1-1
		c-1.5,0.8-2,4.7-2.5,6.3c3,1.5,6.2,2.5,9.5,3.1c-0.2,0-1.2,0.5-1.5,0.6c-0.7,0.2-1.4,0.2-2.1,0.2c-1.3-0.1-2.3-0.7-3.5-1
		c-1.2,2.4-1.5,5.4-2.2,8c9.9,5.4,22,2,33.2,2.4c9.3,0.3,18.8,3.3,27.7,0.6C125.2,107.6,125.2,107.4,125.2,107.1z"/>
	<g>
		<path class="st7" d="M33,95.4c-0.9-0.1-1.7-0.2-2.4-0.1c-4.7,0.3-6.5,3.9-8.1,6.7c-1.8,3.1,0.6,10.2,7.3,5.4
			c0.2-0.2,0.5-0.3,0.7-0.5c7.3-5.9,8.7-8.9,8.7-8.9L33,95.4z"/>
		<path class="st26" d="M31.2,97.7c0,0-3,2.7-3.4,5.1c-0.4,2.4,2.4,2.3,5.4-1.2c3-3.6,4.6-4.2,4.6-4.2L31.2,97.7z"/>
		<path class="st7" d="M21.9,93.1l-0.1-17.4c0,0,14.6-2.7,26.2-3.9c4.9-0.5,10,0.5,10.3,4.8c0.4,6-3.4,8.3-4.8,9.2
			c-3.1,2-2.4-0.1-10,3.5C35.2,93.3,24.2,94.2,21.9,93.1z"/>
		<path class="st26" d="M37.8,82.1c0,0,7.4-6.9,12.8-5.3c5.4,1.6,5.1,5.8-0.4,9.4C44.7,89.9,37.8,82.1,37.8,82.1z"/>
		<path class="st7" d="M12.1,93.7c-6.2-5.8-2.8-16-2.8-16l9.8,0.1c0,0,29.4,4.4,36.8,7.5c7.6,3.3,0.6,11.4-5.3,12.9
			c-3.5,1-8.8,0.6-17.2,0.8C24.1,99.2,16.1,97.4,12.1,93.7z"/>
		<g>
			<path class="st26" d="M24.6,39c-1.5-5.8,1.5-9.2,1.5-9.2l-7.9-3.2c0,0-0.4,4.4-2,11.5C18,39.9,22,38.6,24.6,39z"/>
			<path class="st26" d="M16.7,24.1c2.2,5.3,8.4,7.7,10.8,6.7c2.3-0.9,5.1-7.1,2.9-12.3c-2.2-5.3-7-8.2-10.8-6.7
				S14.5,18.9,16.7,24.1z"/>
		</g>
		<path class="st12" d="M30.3,51c-1.2-6.9-0.9-8.7-5.7-14.3c-4.6,0.8-7.9-2.1-7.9-2.1s-7.4,4.1-6.6,15c0.2,3.4,0.9,8.9-0.1,14.8
			c-1.2,6.9-1.6,17.3-1.6,17.3s12.1,4.1,24.9-1c0.1-0.8-2.6-2-2-9.3C31.8,64,31.8,60,30.3,51z"/>
		
			<rect x="70.6" y="26.7" transform="matrix(-0.7467 -0.6651 0.6651 -0.7467 94.7008 123.9466)" class="st25" width="0.6" height="34.6"/>
		<path class="st24" d="M79.7,34.2L79.7,34.2c1.1,1,2.9,0.9,3.9-0.2l1.9-2.1c1-1.1,0.9-2.9-0.2-3.9l0,0c-1.1-1-2.9-0.9-3.9,0.2
			l-1.9,2.1C78.4,31.4,78.5,33.2,79.7,34.2z"/>
		<path class="st25" d="M26.6,10.6L26.6,10.6c-1.2-1-3.1-1.7-6.5-1.6c-4.2,0.2-6.8,2.2-7.8,5.2c-1.9,6-1.1,14.6-4,17.1
			c-2.5,2.2-4.5,2.7-4.5,4.8c0,2.2,1.6,2.9,1.8,4.2c0.2,1.7,0.8,3.8-1.7,4c-2.8,0.2-3.6-1.8-3.6-1.8s-1.4,3.3,1.3,4.4
			c2.7,1.1,4.8,0.2,4.8,0.2s-0.7,3,1.3,4.5c2.1,1.5,5.2,0.1,5.2,0.1s-4.7-4.4,0.4-8c3.2-2.2,7.2-6.7,7.3-10.1
			c0.1-3.4-0.6-6.3-1.4-8.2c-0.5-1.1-2.2-4.3-2.2-4.3c0.1-0.9,0.6-1.9,1.3-2c0.8-0.1,2.3,1.3,2.3,1.3s9,1.6,10.5-4.6
			C29.2,12.2,26.6,10.6,26.6,10.6z"/>
		<path class="st26" d="M21.2,40.3c-3.7-0.1-6.8,7.8,1.1,14.3s10.8,8.1,15.6,9.4c4.8,1.3,19.3-7.8,22.2-9.3c2.9-1.5,8.5-2.7,9.3-4.4
			c0.7-1.7-0.7-6.4-3.7-5.3c-2.9,1.1-8.7,5.5-10.1,6.1c-5,2.4-15.9,3.7-15.9,3.7s-4.1-2.2-8.1-6.5C27.6,43.6,24.5,40.4,21.2,40.3z"
			/>
		<path class="st12" d="M8.3,24.1c0,0,8.8,1.2,15.5-2.6c6.8-3.9,9.5-12,9.5-12h-9.5l-12.2,7.4C11.6,16.8,10.8,21.4,8.3,24.1z"/>
		<path class="st12" d="M11,18.9c0,0-1.1-3.7,0.2-6.7s6.3-6.5,10-5.4s5.6,2.6,5.6,2.6s-1.7,4.9-6.8,7.4S11,18.9,11,18.9z"/>
	</g>
	<g>
		<g>
			<path class="st26" d="M160.4,34c2.2-5.6-0.8-10.2-0.8-10.2l7.9-3.2c0,0,0.6,4.3,2.2,11.3C168,33.8,163,33.6,160.4,34z"/>
			<path class="st26" d="M169,18.1c-2.2,5.3-8.4,7.7-10.8,6.7c-2.3-0.9-5.1-7.1-2.9-12.3c2.2-5.3,7-8.2,10.8-6.7
				C169.8,7.3,171.2,12.9,169,18.1z"/>
		</g>
		<path class="st7" d="M164,101.5c-1.7-3-3.6-6.9-8.7-7.1c-0.8,0-1.6,0-2.6,0.1l-6.6,2.7c0,0,1.5,3.3,9.3,9.5
			c0.3,0.2,0.5,0.4,0.8,0.5C163.3,112.4,165.9,104.8,164,101.5z"/>
		<path class="st26" d="M154.6,96.9c0,0,3.2,2.9,3.6,5.4c0.4,2.6-2.6,2.5-5.8-1.3c-3.2-3.8-4.9-4.4-4.9-4.4L154.6,96.9z"/>
		<path class="st12" d="M164.5,92l0.1-18.5c0,0-15.6-2.9-28-4.2c-5.2-0.5-10.7,0.5-11,5.1c-0.4,6.4,3.7,8.8,5.1,9.8
			c3.3,2.2,2.5-0.1,10.7,3.7C150.3,92.2,162.1,93.2,164.5,92z"/>
		<path class="st12" d="M177.9,75.8C177.8,75.8,177.8,75.7,177.9,75.8c-0.4-0.3-0.8-0.3-1.1-0.3c-10.2-0.5-20.1,2.9-30.2,4.4
			c-5.8,0.8-11.8,1.1-17.3,3.5c-4.9,2.2-8.3,7.3-3.6,11.9c2.4,2.4,5.9,3.2,9.3,3.8c8.6,1.6,17.4,2.2,26.1,0.9c4.2-0.6,8.5-1.7,12-4
			c3.6-2.3,6.4-6.1,6.8-10.3c0.3-3.1,0-11.3-0.9-14.3C178.9,71.1,178.1,76,177.9,75.8z"/>
		<g>
			<g>
				<path class="st25" d="M159.7,12.2c1.9,1.5,2,3.2,4.6,3.9c2.2,0.6,1.8,2.2,1.8,2.2l1.9,5.4c0,0,4.1-2.9,4.4-9.2
					c0.1-2.7-0.7-6.3-0.7-6.3s0.8-1.2,1.9-1.8c-0.5-0.6-3.1-0.4-3.9,0c-0.4-1.1-1.2-3.8-3.4-3.8c0.4,0.8,0.4,1.4,0.4,2.2
					c-0.3-0.7-2.4-1.4-3.8-1.5c0.3,0.7,0.6,0.9,0.8,1.6c-4.2-2.2-13.2,5-13.2,5S155.2,13.2,159.7,12.2z"/>
				<path class="st26" d="M163.7,16.4c0,0,0.1-2,2-1.8c1.9,0.2,2.1,2.9,0,4.5C163.7,20.7,163.7,16.4,163.7,16.4z"/>
			</g>
		</g>
		<path class="st7" d="M178.3,61.8c-0.1-2-0.2-5.6-0.1-8.1c0.3-7.6-1.3-15.7-3.7-18.7c-2-2.5-5.3-5.8-5.3-5.8s-4.5,5-8.5,3.8
			c-3.8,4.3-5.9,7.2-7.4,13c-0.6,2.2-0.1,16.4-1.2,28.1c-0.1,1.2-1.3,3.3-0.7,4.2c1.4,2.3,7.3,2.8,10.2,3.2
			c5.8,0.8,14.4,0.3,17.1-3.2C181.1,74.9,178.7,69.2,178.3,61.8z"/>
		<path class="st7" d="M172.5,14.6c0,0,2.3-6.5,1.4-8.5c-1.3-3-9.3-6.1-11.7-6.1c-2.5,0-5.9,6.6-5.9,6.6L172.5,14.6z"/>
		<path class="st7" d="M164.1,10.1c0,0-0.9,3.9-9.4,2.3c-4.7-0.9-7.3-4.8-7.3-4.8s4.7-0.9,9.5-2.6C160.9,6.4,164.1,10.1,164.1,10.1z
			"/>
		<polygon class="st7" points="172.5,14.6 173.1,12.8 156.9,5 156.3,6.6 		"/>
		
			<rect x="116.9" y="23.8" transform="matrix(0.7466 -0.6653 0.6653 0.7466 2.3552 88.3733)" class="st25" width="0.6" height="34.6"/>
		<path class="st24" d="M108.5,31.3L108.5,31.3c-1.1,1-2.9,0.9-3.9-0.2l-1.9-2.1c-1-1.1-0.9-2.9,0.2-3.9l0,0c1.1-1,2.9-0.9,3.9,0.2
			l1.9,2.1C109.7,28.5,109.6,30.3,108.5,31.3z"/>
		<path class="st26" d="M168.6,35.7c3.7-0.1,9.8,8.5,1.9,15c-7.9,6.4-15.5,9.1-20.3,10.4c-4.8,1.3-19.3-7.8-22.2-9.3
			c-2.9-1.5-8.5-2.7-9.3-4.4c-0.7-1.7,0.7-6.4,3.7-5.3s8.7,5.5,10.1,6.1c5,2.4,15.9,3.7,15.9,3.7s4.1-2.2,8.1-6.5
			C160.5,40.8,165.3,35.8,168.6,35.7z"/>
	</g>
</g>
</svg>
