<?xml version="1.0" encoding="utf-8"?>
<!-- Generator: Adobe Illustrator 25.2.1, SVG Export Plug-In . SVG Version: 6.00 Build 0)  -->
<svg version="1.1" id="Layer_1" xmlns="http://www.w3.org/2000/svg" xmlns:xlink="http://www.w3.org/1999/xlink" x="0px" y="0px"
	 viewBox="0 0 180 102.1" style="enable-background:new 0 0 180 102.1;" xml:space="preserve">
<style type="text/css">
	.st0{fill:#C06428;}
	.st1{fill:#9F3032;}
	.st2{fill:#DD3A3E;}
	.st3{fill:#7C2122;}
	.st4{fill:#F79421;}
	.st5{fill:#CB7028;}
	.st6{fill:#232426;}
	.st7{fill:#3A383A;}
	.st8{fill:#D8DADC;}
	.st9{fill:#FFFFFF;}
	.st10{fill:#D1DCDD;}
	.st11{fill:#1A1A1A;}
	.st12{fill:#CD2027;}
	.st13{fill:#010101;}
	.st14{fill:#E6E6E5;}
	.st15{fill:#9DCB3B;}
	.st16{fill:#D3D3D3;}
	.st17{fill:#4BC3C9;}
	.st18{fill:#B3B3B3;}
	.st19{opacity:0.59;}
	.st20{fill:#CCCCCC;}
	.st21{fill:#FAA61D;}
	.st22{fill:#E4841E;}
	.st23{fill:#CECECE;}
	.st24{fill:#F58021;}
	.st25{fill:#833615;}
	.st26{fill:#FBB580;}
	.st27{fill:#2A2523;}
	.st28{fill:url(#SVGID_1_);}
	.st29{fill:#4C4847;}
	.st30{fill:#77483C;}
	.st31{fill:#5F382D;}
</style>
<polygon points="0,68.5 5,76.3 7.2,75.4 5.3,66.7 "/>
<path class="st0" d="M5.3,66.8C4.8,68,4,68.8,2.7,69c-0.9,0.1-1.8-0.2-2.7-0.5l5,7.8l2.3-0.9L5.3,66.8z"/>
<path class="st1" d="M170.3,82.7c-0.1,0-0.2-0.1-0.3-0.3c0,0,0,0,0,0c-0.1-0.1-0.2-0.1-0.3-0.2c0,0,0,0,0,0
	c-0.4-0.4-1.1-0.9-1.9-1.6l0,0c-5.7-4.9-19.2-18-27.2-37.5C131.2,20.3,125.9,3.4,125,0.5c0-0.1-0.1-0.3-0.1-0.3c0,0,0,0,0,0
	c0-0.1,0-0.1,0-0.1l0,0c0,0,0,0,0,0c0,0,0,0,0,0c0,0-39.4,23-66.2,9.7c0,0,0,0,0,0.1c0,0,0,0,0,0c-0.1,0.1-0.2,0.4-0.3,0.9
	c0,0,0,0,0,0.1c-0.1,0.2-0.2,0.4-0.3,0.7c0,0.1-0.1,0.2-0.1,0.2c-0.1,0.2-0.2,0.4-0.3,0.7c0,0.1-0.1,0.2-0.1,0.3
	c-0.1,0.3-0.2,0.5-0.3,0.8c0,0.1-0.1,0.3-0.2,0.4c-0.1,0.3-0.2,0.6-0.4,0.9c-0.1,0.2-0.1,0.3-0.2,0.5c-0.1,0.3-0.3,0.6-0.4,0.9
	c-0.1,0.2-0.2,0.4-0.3,0.6c-0.1,0.3-0.3,0.6-0.4,1c-2.2,5.1-5.7,12.1-10.4,20c-0.3,0.5-0.7,1.1-1,1.6c0,0,0,0.1-0.1,0.2
	C37.9,49.1,30,59.9,20,69.5c-0.4,0.4-0.7,0.7-1.1,1.1c-0.8,0.8-1.6,1.5-2.5,2.3c0,0,1.5,0.4,4.2,1.1c11,3,40.9,11.4,57.2,17.5
	c0.7,0.2,1.3,0.5,1.9,0.7L170.3,82.7C170.4,82.7,170.3,82.7,170.3,82.7z"/>
<g>
	<polygon points="68.7,97.5 68.1,97.2 124.8,0 125,0.6 	"/>
</g>
<g>
	<polygon points="5.4,71.5 5,71.1 58.6,9.7 59,9.9 	"/>
</g>
<g>
	<path d="M176,80.5L124.8,0l-0.2,0.6l51,80.5C175.7,80.9,175.9,80.7,176,80.5z"/>
</g>
<polygon class="st0" points="175.3,76.9 173.5,85.1 176.4,86.1 180,78.4 "/>
<path d="M175.4,77.1c-0.1,1,0.2,2.5,2,2.8c0.9,0.2,1.9-0.4,2.6-1.4l0.1-0.1l-4.6-1.5C175.4,77,175.4,77,175.4,77.1z"/>
<polygon class="st0" points="63.7,93.7 67.2,102.1 70,101.1 68.9,91.8 "/>
<path d="M66.8,95c2.2-0.6,2-3.1,2-3.2l-5.2,1.9l0,0.1C64.6,94.5,66.1,95.3,66.8,95z"/>
<path class="st2" d="M79.8,92.2l90.6-9.5c0,0-19.5-14.6-29.8-39.7c-10.3-25.1-15.7-43-15.7-43s-7.6,36.3-17.1,53
	C96.7,72.4,82.6,89.4,79.8,92.2z"/>
<path class="st1" d="M125.1,7.5c0,0-0.9,37.6-4.2,55.1c-3,15.6-6.6,22.5-9.5,26.2l39.4-4.1c-5.9-5.8-16.4-18.2-18.8-33.2
	C128.8,31.8,125.1,7.5,125.1,7.5z"/>
<path class="st3" d="M116.1,88.4l28.5-3c-2.7-3.4-13-17.5-15.5-35.3c-2.8-20.5-3.7-38.7-3.7-38.7s0.4,37.9-1.6,52.5
	C122.4,74.2,118.5,83.5,116.1,88.4z"/>
</svg>
