<?xml version="1.0" encoding="utf-8"?>
<!-- Generator: Adobe Illustrator 25.2.1, SVG Export Plug-In . SVG Version: 6.00 Build 0)  -->
<svg version="1.1" id="Layer_1" xmlns="http://www.w3.org/2000/svg" xmlns:xlink="http://www.w3.org/1999/xlink" x="0px" y="0px"
	 viewBox="0 0 27.2 180" style="enable-background:new 0 0 27.2 180;" xml:space="preserve">
<style type="text/css">
	.st0{fill:#C06428;}
	.st1{fill:#9F3032;}
	.st2{fill:#DD3A3E;}
	.st3{fill:#7C2122;}
	.st4{fill:#F79421;}
	.st5{fill:#CB7028;}
	.st6{fill:#232426;}
	.st7{fill:#3A383A;}
	.st8{fill:#D8DADC;}
	.st9{fill:#FFFFFF;}
	.st10{fill:#D1DCDD;}
	.st11{fill:#1A1A1A;}
	.st12{fill:#CD2027;}
	.st13{fill:#010101;}
	.st14{fill:#E6E6E5;}
	.st15{fill:#9DCB3B;}
	.st16{fill:#D3D3D3;}
	.st17{fill:#4BC3C9;}
	.st18{fill:#B3B3B3;}
	.st19{opacity:0.59;}
	.st20{fill:#CCCCCC;}
	.st21{fill:#FAA61D;}
	.st22{fill:#E4841E;}
	.st23{fill:#CECECE;}
	.st24{fill:#F58021;}
	.st25{fill:#833615;}
	.st26{fill:#FBB580;}
	.st27{fill:#2A2523;}
	.st28{fill:url(#SVGID_1_);}
	.st29{fill:#4C4847;}
	.st30{fill:#77483C;}
	.st31{fill:#5F382D;}
</style>
<g>
	<path class="st14" d="M11.2,8.6C3,18.9,3,27.1,3,27.1v66.4h2.2h19.3V3V0C24.5,0,17.4,0.8,11.2,8.6z"/>
	<path class="st1" d="M24.5,82.5c-2.1-2.5-5.3-4.1-8.8-4.1h-4.1c-3.4,0-6.5,1.5-8.6,3.8C1.1,84.3,0,87,0,90v51.2c0,0,0,0,0.1,0
		c1.8,0,4.2,4.8,4.2,10.8c0,6-2.4,10.8-4.2,10.8c0,0,0,0-0.1,0v5.7c0,6.4,5.2,11.6,11.6,11.6h4.1c6.4,0,11.6-5.2,11.6-11.6V90
		C27.2,87.2,26.2,84.5,24.5,82.5z M16,170.5c0,1.3-1.1,2.4-2.4,2.4s-2.4-1.1-2.4-2.4c0-1.3,1.1-2.4,2.4-2.4S16,169.2,16,170.5z"/>
	<path class="st12" d="M24.5,85.7c-1.8-3.1-5.2-5.1-9-5.1h-3.7c-3.7,0-6.9,1.9-8.8,4.7c-1.1,1.7-1.7,3.6-1.7,5.8v48.4
		c3.3,0,6,4.9,6,12.4c0,7.5-2.7,12.8-6,12.8v3.3c0,5.8,4.7,10.5,10.5,10.5h3.7c5.8,0,10.5-4.7,10.5-10.5V91.1
		C26,89.1,25.4,87.2,24.5,85.7z M13.6,173c-1.3,0-2.4-1.1-2.4-2.4c0-1.3,1.1-2.4,2.4-2.4s2.4,1.1,2.4,2.4C16,171.9,15,173,13.6,173z
		"/>
	<path class="st1" d="M17.1,88.5c0,1.9-1.5,3.5-3.5,3.5c-1.9,0-3.5-1.5-3.5-3.5c0-1.9,1.5-3.5,3.5-3.5C15.5,85,17.1,86.6,17.1,88.5z
		"/>
	<path class="st20" d="M16,88.5c0,1.3-1.1,2.4-2.4,2.4c-1.3,0-2.4-1.1-2.4-2.4c0-1.3,1.1-2.4,2.4-2.4C14.9,86.1,16,87.1,16,88.5z"/>
	<path class="st1" d="M13.6,167.1c-1.9,0-3.5,1.6-3.5,3.5c0,1.9,1.5,3.5,3.5,3.5s3.5-1.6,3.5-3.5C17.1,168.6,15.5,167.1,13.6,167.1z
		 M13.6,173c-1.3,0-2.4-1.1-2.4-2.4c0-1.3,1.1-2.4,2.4-2.4s2.4,1.1,2.4,2.4C16,171.9,15,173,13.6,173z"/>
</g>
</svg>
