<?xml version="1.0" encoding="utf-8"?>
<!-- Generator: Adobe Illustrator 25.2.1, SVG Export Plug-In . SVG Version: 6.00 Build 0)  -->
<svg version="1.1" id="Layer_1" xmlns="http://www.w3.org/2000/svg" xmlns:xlink="http://www.w3.org/1999/xlink" x="0px" y="0px"
	 viewBox="0 0 180 195" style="enable-background:new 0 0 180 195;" xml:space="preserve">
<style type="text/css">
	.st0{fill:#C06428;}
	.st1{fill:#9F3032;}
	.st2{fill:#DD3A3E;}
	.st3{fill:#7C2122;}
	.st4{fill:#F79421;}
	.st5{fill:#CB7028;}
	.st6{fill:#232426;}
	.st7{fill:#3A383A;}
	.st8{fill:#D8DADC;}
	.st9{fill:#FFFFFF;}
	.st10{fill:#D1DCDD;}
	.st11{fill:#1A1A1A;}
	.st12{fill:#CD2027;}
	.st13{fill:#010101;}
	.st14{fill:#E6E6E5;}
	.st15{fill:#9DCB3B;}
	.st16{fill:#D3D3D3;}
	.st17{fill:#4BC3C9;}
	.st18{fill:#B3B3B3;}
	.st19{opacity:0.59;}
	.st20{fill:#CCCCCC;}
	.st21{fill:#FAA61D;}
	.st22{fill:#E4841E;}
	.st23{fill:#CECECE;}
	.st24{fill:#F58021;}
	.st25{fill:#833615;}
	.st26{fill:#FBB580;}
	.st27{fill:#2A2523;}
	.st28{fill:url(#SVGID_1_);}
	.st29{fill:#4C4847;}
	.st30{fill:#77483C;}
	.st31{fill:#5F382D;}
</style>
<g>
	<path class="st18" d="M140.5,139.2c0,0,4-6.4,7.5-9.3c3.5-2.9,7.4-4,8.5-3.5c1.1,0.5,13,8,13,13c0,5.1,0,13.8,0,13.8
		S137.3,161.8,140.5,139.2z"/>
	<g class="st19">
		<path class="st20" d="M162.6,138.9c-4.8-3.7-7.2-1.6-6.9-6.1c0.1-2.1,1.6-3.7,3.3-4.9c-1.3-0.8-2.2-1.4-2.5-1.5
			c-1.1-0.5-5.1,0.5-8.5,3.5c-3.5,2.9-7.5,9.3-7.5,9.3c-3.2,22.6,29,14.1,29,14.1s0-6.1,0-11.1C167.6,142.3,165.4,141.1,162.6,138.9
			z"/>
	</g>
	<g>
		<path class="st18" d="M61.1,137.6c-0.4-3-7.1-7.3-11.5-9.6c-4.4-2.3-6.2-3.7-8-5.7c-0.2-0.2-0.4-0.4-0.6-0.5
			c-0.5,0.4-1,0.8-1.5,1.4c-5.9,6.1-5.1,10.9-5.1,12.5c0,1.6,5.8,5.9,9,9.3c1.7,1.9,3.7,3.2,6.1,3.6c2.7-0.8,4.9-1.7,6-2.5
			C58.4,143.8,61.4,140.6,61.1,137.6z"/>
		<g>
			<path class="st18" d="M43.4,145c-3.2-3.5-9-7.7-9-9.3c0-0.5-0.1-1.4,0-2.5l-0.3-0.1l-3.5,7.2c0,0-7.7,1.1-12.8,3.5
				c-2.1,1-3.9,1.3-5.3,1.3c0.5,2.4,1.3,4.3,1.3,4.3s14.9,1.6,21.3,1.6c4,0,9.9-1,14.4-2.3C47.1,148.2,45.1,146.9,43.4,145z"/>
			<path class="st18" d="M30.6,140.2l3.5-7.2l0.3,0.1c0.2-2.3,1.1-5.9,5-10c0.5-0.6,1-1,1.5-1.4c-2-1.4-5.9-1.2-9,0.3
				c-3.4,1.8-4.6,3-8.7,4.6c-4.1,1.6-6.9,5.3-9.9,9.7c-1.6,2.4-1.4,5.8-0.8,8.5c1.4,0,3.2-0.3,5.3-1.3
				C22.9,141.3,30.6,140.2,30.6,140.2z"/>
		</g>
	</g>
	<g>
		<path class="st21" d="M159.4,107c-2.4,4.5-4.5,4-5.3,4c4.3-5.6-0.8-12-4.3-19.7c-3.5-7.7-0.5-10.9,2.9-12.2
			c-4.8-0.8-9,4.3-10.1,4.3c6.6-10.1,0-21.8-6.4-23.7c7.7,9-2.7,19.7-0.3,14.6c2.4-5.1-1.9-10.9-6.6-10.9c-4.8,0-7.2,0.8-6.4-6.4
			c0.8-7.2-0.5-11.2-4-9.3c-3.5,1.9-9.8,0.8-7.2-3.2c2.7-4,1.6-6.7,1.3-5.9c-0.2,3.3-6.5,9.9-7.2,10.6c3.2-3.2,4.2-14.3-4.5-19.4
			c-6.5-3.8-6.9-8.7-6.6-10.8c-1.6,5-7.2,7.5-6.7,6.8c4.8-4.5,2.4-13.8,2.4-16.8c0,5.9-7.7,8-16.2,10.4c-8.5,2.4-15.7,12.5-9,22.6
			c6.6,10.1,0.5,13.6-2.1,8c-2.7-5.6-6.1-6.9-6.1-6.9c6.1,6.9,8,16.2-6.1,19.2c-14.1,2.9-11.2,15.4-10.1,17.3
			c-8.5-8.3-2.9-15.8,0.5-17.8c-24.6,9.9-22.1,32.1-8.2,40.4c14.1,8.5,17.6,10.9,12,16.5c-1.2,1.2-2.1,1-3,3.1
			c-1.3-0.8-3.1-6.7-3.1-10.7c0-6.6-10.6,25.2-1.1,33.2c0.2,0.2,0.5,0.4,0.7,0.5c0.8,1.9,1.7,5.6,2.3,13.1
			c1.1,14.1,45.2,17.8,74.8,17.8c29.5,0,35.6-25.8,31.9-29.8c-3.7-4-7.4-3.5,5.3-13.3C165.5,122.7,160.7,108,159.4,107z"/>
		<path class="st21" d="M94.8,19.1c0.1-0.3,0.2-0.6,0.2-1C95,18,94.9,18.4,94.8,19.1z"/>
		<path class="st21" d="M41.3,61.7c0.4-0.2,0.9-0.4,1.3-0.5C42.3,61.2,41.8,61.4,41.3,61.7z"/>
	</g>
	<path class="st22" d="M51.8,150.6c1.9-1.3,3.7-2.6,5.1-4.3c1.6-2.1,2.4-4.7,3.8-7c1.6-2.5,4-4.4,6.1-6.5c2.2-2.1,4.2-4.4,5-7.3
		c0.8-2.9-0.2-6.4-2.8-7.8c-1.9-1-4.3-0.8-5.9-2.2c-1.5-1.3-1.7-3.7-0.9-5.5c0.8-1.8,2.4-3.2,4-4.3c-3.6-3.6-7.3-7.3-9.3-11.9
		c-3.6-8.4,1.2-16,7.5-21.6c-2.2,3.2-0.6,8.4,3,9.8c-0.3-4.2,2.3-8.4,6.1-10c1.5-0.6,3.5-1.4,3.3-3c-0.1-0.7-0.7-1.3-1-2
		c-1.4-2.6,1-5.5,3.1-7.5c2.1-2,4.4-5.1,2.8-7.6c1.8,1.3,1.8,4,1.2,6.1s-1.4,4.4-0.9,6.5c1,4.1,6.2,5.3,9.1,8.3
		c1.8,1.9,2.8,4.5,3.1,7.1c0.5,5.2-1.7,10.6-5.8,13.8c4.5-0.8,8.3-4.7,8.9-9.3c-1.1,6,4.6,12.1,2.4,17.8c-1.6,4.4-7,6-10.8,8.6
		c-0.7,0.5-1.5,1.3-1.2,2.1c0.2,0.6,0.9,0.9,1.5,1c4.3,1,8.3-2.4,11.4-5.6c3.1-3.2,6.7-6.8,11.2-6.4c-3.3,1.9-5,5.6-5.9,9.2
		c-1,3.6-1.4,7.5-3.1,10.8c-1.3,2.5-3.2,4.6-4.7,6.9c-1.6,2.3-2.8,4.8-3.7,7.4c-0.3,0.8-0.5,1.7-0.1,2.4c0.7,1.3,2.6,1.1,4,0.6
		c9.1-3.6,13.3-14.7,12.1-24.4c-0.3-2-0.7-4.1-0.2-6.1c0.5-2,2.3-3.9,4.4-3.6c-2.6,1.1-3.7,4.9-2.1,7.2c1.6,2.3,5.5,2.7,7.5,0.6
		c2.2-2.2,1.7-5.9,0.9-8.9c-2.1-7.8-5.7-16.1-2.6-23.5c0.2,3.5,0.9,7,2.1,10.4c0.4,1.2,1.4,2.7,2.7,2.3c1.6-0.5,1-2.9,0.1-4.3
		c8.6,3.9,13.7,14.1,11.7,23.3c2.4,0,3.9-3.6,2.2-5.3c4,2.9,5.2,8.6,3.8,13.4s-5.3,8.4-9.6,10.8c-4.3,2.4-9.2,3.6-14,4.8
		c-1,0.2-2.3,0.7-2.4,1.7c-0.1,0.4,0.1,0.8,0.2,1.2c1.5,3.8,5.8,6.4,9.9,5.7c2.4-0.4,4.5-1.6,6.7-2.4c2.2-0.8,4.9-1.2,6.9,0.2
		c1.3,0.9,2,2.4,2.5,4c1.5,5.5-0.7,11.5-4.5,15.8s-9,7-14.2,9.3c-8.8,3.8-18.2,6.5-27.7,6.3c-12-0.2-23.5-4.8-34.6-9.4
		c-4.5-1.8-9.1-3.7-12.8-6.9c-1.1-0.9-2.1-2-2.2-3.4c-0.1-1.1,0.6-2.2,1.3-3.1C47.7,153.2,49.8,151.9,51.8,150.6z"/>
	<path class="st18" d="M50,156.2c-0.4-0.9-1-1.8-1.8-2.7c-3.9-4.1-7.3-8.3-9-10.3c-1.2-1.3-4.1-1.4-7.5-1.2c0,0.1,0,0.2,0,0.4
		c0-0.1,0-0.2,0-0.4c-1.8,0.1-3.8,0.4-5.8,0.6c-5.7,0.7-10.3,3.4-15.3,4.3c-5,0.9-10.6,6.2-10.5,12.4c0,0,0.1,0.6,0.1,1.5
		c0.1,1.2,0.1,2.8-0.1,4c-0.4,2.1,1.1,2,3.5,5.3c2.5,3.4,3.6,3.7,9.8,4.3c5.5,0.5,6.8,1.1,10.9,2.4c0.6,0.2,1.2,0.4,1.9,0.6
		c5.7,1.8,9,3,12.1,0.9c3-2.1,12.6-15.6,12.6-15.6S51.5,159.6,50,156.2z"/>
	<g>
		<path class="st18" d="M12.3,160.7c0,0,5.7,0,8,1l0.2-0.2c0,0,4-5.3,5.9-12.2c1.7-6.4,5.3-5,5.1-7.2c-1.8,0.1-3.8,0.4-5.8,0.6
			c-5.7,0.7-10.3,3.4-15.3,4.3c-5,0.9-10.6,6.2-10.5,12.4c0,0,0.1,0.6,0.1,1.5C7.7,156.4,12.3,160.7,12.3,160.7z"/>
		<path class="st18" d="M21.3,162.6c-0.1-0.3-0.5-0.6-1-0.8c-2.4-1-8-1-8-1s-4.6-4.3-12.1,0.1c0.1,1.2,0.1,2.8-0.1,4
			c-0.4,2.1,1.1,2,3.5,5.3c2.5,3.4,3.6,3.7,9.8,4.3c5.5,0.5,6.8,1.1,10.9,2.4c0.4-0.5,0.6-1,0.5-1.5
			C24.5,172.7,21.9,164.4,21.3,162.6z"/>
	</g>
	<g>
		<path class="st20" d="M46.9,159.1c-2.4,0.5-6.4,2.7-10.1,6.4c-3.7,3.7-7.7,13-10.1,7.5c-2.4-5.6-3.7-10.9-3.7-10.9
			s1.1-2.9,2.7-6.9c0.9-2.3,1.1-5.1,1.1-7c-0.1,0.3-0.2,0.7-0.3,1.1c-1.9,6.9-5.9,12.2-5.9,12.2l-0.2,0.2c0.5,0.2,0.9,0.5,1,0.8
			c0.5,1.9,3.2,10.1,3.5,12.8c0.1,0.6-0.2,1.1-0.5,1.5c0.6,0.2,1.2,0.4,1.9,0.6c5.7,1.8,9,3,12.1,0.9c3-2.1,12.6-15.6,12.6-15.6
			s0.8-3.2-0.8-6.5C49.5,157.9,48.5,158.8,46.9,159.1z"/>
		<path class="st18" d="M39.1,143.2c-1.2-1.3-4.1-1.4-7.5-1.2c0.2,2-3,0.9-4.8,6.1c0,1.9-0.2,4.7-1.1,7c-1.6,4-2.7,6.9-2.7,6.9
			s1.3,5.3,3.7,10.9c2.4,5.6,6.4-3.7,10.1-7.5c3.7-3.7,7.7-5.8,10.1-6.4c1.6-0.4,2.6-1.2,3.1-2.9c-0.4-0.9-1-1.8-1.8-2.7
			C44.2,149.4,40.8,145.2,39.1,143.2z"/>
	</g>
	<g>
		<path class="st23" d="M105.9,174.5c-1.3-3.7-10.4-8.2-13.8-6.9c0,0-0.1,0-0.1,0c-1.4,1.5-2.4,3.1-2.7,4.3
			c-1.2,4.1-0.9,9.4-0.9,9.4s-3.2,6.7,1.8,10.8c4.8,3.9,5.7,2.9,14.9,1.9C109.2,187.7,107,177.6,105.9,174.5z"/>
	</g>
	<path class="st21" d="M156.6,51.6c0,0-5.3-0.3-1.6,5.8c3.7,6.1-2.1,7.7-2.1,7.7s3.5-3.5-0.3-6.9C148.8,54.8,152.6,51.9,156.6,51.6z
		"/>
	<path class="st21" d="M120.2,0c0,0-4.3,0.5-1.3,4.5c2.9,4-0.5,7.2-0.5,7.2s2.4-2.7-0.5-5.1C114.9,4.3,114.9,0,120.2,0z"/>
	<path class="st21" d="M110.4,15.2c0,0-3.7,3.2,0.3,7.7c4,4.5,0,8.2,0,8.2s1.1-4.3-1.6-7.7C106.4,20,107.7,17.3,110.4,15.2z"/>
	<path class="st18" d="M137.9,155.7c0,0,3-5.3,6.6-10.1c3.5-4.8,4.1-6.4,8-5.7c3.9,0.7,12.2,3.4,18.6,7.4c6.4,4.1,5.5,4.1,7.1,8.2
		c1.6,4.1,3.7,5.7-1.1,9.2c-4.8,3.5-7.8,5.5-17.6,4.8C149.7,168.8,137.3,161.5,137.9,155.7z"/>
	<path class="st21" d="M40.2,44.8c0,0,4.3,1.1,5.1,3.5c0.8,2.4,3.5,2.4,3.5,2.4s-3.7,1.3-4.8-1.3C42.8,46.7,41.2,44.8,40.2,44.8z"/>
	<path class="st21" d="M52.1,22.5c0,0-2.7,4.5,1.1,8.2c3.7,3.7,1.3,5.6,1.3,5.6s-0.8-4-2.9-5.1C49.5,30.2,48.4,25.1,52.1,22.5z"/>
	<g>
		<path class="st20" d="M164.5,168.1c-2.5-1.2-2.1-7.6-1.4-9.6c-2.1,7.5-7.3,0.7-9.4-1.8c-2.1-2.5-8.5-4.1-9.9-6.4
			c-0.5-0.8-0.6-1.9-0.5-3.1c-3,4.3-5.4,8.4-5.4,8.4c-0.5,5.9,11.9,13.1,21.6,13.8c4.6,0.3,7.7,0.1,10.3-0.7
			C167.6,168.9,165.6,168.6,164.5,168.1z"/>
	</g>
	<path class="st18" d="M119.1,173.7c0,0,1.8-10.5,6.4-15.3c4.6-4.8,8.5-6.9,16.5-5.7c8,1.2,17.9,9,19.9,13.3c2,4.3,0.2,11-10.1,15.1
		c-10.3,4.1-11.5,5-17.7,5C127.8,186.2,118.5,186.5,119.1,173.7z"/>
	<path class="st20" d="M143.4,176.9c-1.5-0.4-2.9-1-4.2-1.9c-5-3.6-4.8-9-6.4-14.2c-0.6,6.1-1.3,11.1-5.3,16.1
		c-1.8,2.3-4.2,4.3-7.1,4.6c1.3,2.6,4.4,3.9,7.3,4.4c8.5,1.6,17.2-1.5,25-5.3c2.4-1.2,4.8-2.5,6.7-4.4c1.9-1.9,3.2-4.6,2.9-7.2
		c-0.2,2.4-2.4,4.1-4.5,5.2c-2.9,1.6-6,2.8-9.3,3.1C146.9,177.5,145.1,177.4,143.4,176.9z"/>
	<g>
		<path class="st18" d="M161.8,166.1c-1.8-3.8-10-10.5-17.4-12.7c-2.2,0-4.8,0.1-6,0.7c-2.1,1.1-4.6,3.7-5.1,6.9
			c-0.1,0.3-0.1,0.7-0.1,1.1c0.3,2.4,1,6.2,1.7,7.8c1.1,2.3,6.6,6.2,8.5,7.4c1.9,1.2,18.3-1.3,19.1-8.4
			C162.4,167.9,162.2,167,161.8,166.1z"/>
	</g>
	<path class="st20" d="M178.6,156.5c0,0-2.1,2.9-4.8,4c-2.7,1.1-6.6,3.2-6.6,3.2s4-1.3,6.4-2.4c2.4-1.1,5.9-2.9,5.9-2.9l-1.2-2.8
		L178.6,156.5z"/>
	<path class="st18" d="M86.3,165.4c-0.6-0.5-1.1-1-1.7-1.5c-0.1-0.1-0.2-0.1-0.3-0.2c-0.5-0.4-0.9-0.8-1.4-1.2
		c-0.1-0.1-0.3-0.2-0.4-0.3c-1.8-1.8-3.8-3.3-5.6-4.4c-4.2-3-8.2-5.2-11-4.9c-5,0.5-14.2,7.3-18.6,8.2c-0.3,0.1-0.6,0.2-0.9,0.3
		c0,0,0,0,0,0c0,0,0,0,0,0c-0.6,0.2-1.2,0.5-1.8,0.9c0,0,0,0-0.1,0c0,0,0,0,0,0c-0.2,0.1-0.3,0.2-0.5,0.3c-0.1,0-0.1,0.1-0.2,0.1
		c-0.1,0.1-0.3,0.2-0.4,0.3c0,0,0,0,0,0c-0.2,0.1-0.3,0.2-0.5,0.4c0,0-0.1,0-0.1,0.1c-0.2,0.1-0.3,0.2-0.5,0.4c0,0,0,0,0,0
		c-0.2,0.1-0.3,0.3-0.5,0.4c0,0-0.1,0.1-0.1,0.1c-0.1,0.1-0.2,0.1-0.2,0.2c-0.3,0.2-0.5,0.5-0.8,0.7c0,0,0,0-0.1,0
		c-0.2,0.2-0.4,0.3-0.5,0.5c0,0,0,0,0,0c-0.5,0.5-1,1.1-1.5,1.6c0,0,0,0-0.1,0.1c-0.2,0.2-0.4,0.4-0.5,0.6c0,0,0,0,0,0
		c-0.3,0.4-0.5,0.7-0.8,1.1c0,0.1-0.1,0.1-0.1,0.2c0,0,0,0,0,0c-0.4,0.6-0.9,1.3-1.2,2c0,0,0,0,0,0c0,0,0,0.1-0.1,0.1
		c-0.2,0.4-0.4,0.8-0.6,1.3c0,0,0,0,0,0c-0.1,0.2-0.1,0.3-0.2,0.5c-0.2,0.5-0.4,1-0.5,1.5c0,0.1-0.1,0.3-0.1,0.4c0,0,0,0,0,0
		c-0.4,1.2-0.6,2.4-0.6,3.6c0,0-3.4,5.1,9.4,8.5c0.7,0.2,1.5,0.4,2.2,0.6c0.3,0.1,0.6,0.1,0.9,0.2c0.4,0.1,0.9,0.2,1.3,0.3
		c0.3,0.1,0.7,0.2,1,0.2c0.4,0.1,0.7,0.2,1.1,0.2c0.4,0.1,0.7,0.2,1.1,0.2c0.3,0.1,0.6,0.1,1,0.2c0.4,0.1,0.8,0.2,1.1,0.2
		c0.3,0.1,0.6,0.1,0.8,0.2c0.4,0.1,0.8,0.2,1.2,0.2c0.2,0,0.4,0.1,0.7,0.1c0.4,0.1,0.9,0.2,1.3,0.2c0,0,0.1,0,0.1,0
		c1.7,0.3,3.3,0.6,4.8,0.8c0,0,0.1,0,0.1,0c0.5,0.1,0.9,0.1,1.4,0.2c0.1,0,0.1,0,0.2,0c0.4,0.1,0.9,0.1,1.3,0.2c0.1,0,0.1,0,0.2,0
		c0.4,0.1,0.8,0.1,1.2,0.2c0.1,0,0.1,0,0.2,0c2.3,0.3,4.3,0.5,5.8,0.7c5.3,0.5,11.2-1.2,15.6-7.3C92.1,179.1,92.8,171.1,86.3,165.4z
		"/>
	<path class="st20" d="M19,129.4c0,0,2.8-2.3,4.3-2.7c1.4-0.4,2,0.4,2,0.4l8.7,3.5l-10.3-2l-7.6,4.1L19,129.4z"/>
	<g>
		<g>
			<path class="st18" d="M88.4,181.4c0,0-3.2,6.7,1.8,10.8c5,4.1,5.7,2.8,15.8,1.8c10.1-1.1,17.6-4.1,19-8.2
				c1.4-4.1,0.2-9.4-5.5-15.1c-5.7-5.7-11.4-8.7-16-9.6c-4.6-0.9-12.9,6.7-14.2,10.8C88,176.1,88.4,181.4,88.4,181.4z"/>
			<path class="st18" d="M108.9,188.6c0.8-2.1-1.6-10.9-2.9-14.1c-1.1-2.6-3.4-9.7-7.7-12c-4,2.3-8.2,6.7-9,9.5
				c-1.2,4.1-0.9,9.4-0.9,9.4s-3.2,6.7,1.8,10.8c5,4.1,5.7,2.8,15.8,1.8c2.9-0.3,5.6-0.8,8-1.4C110.9,191,108.6,189.4,108.9,188.6z"
				/>
			<g>
				<path class="st20" d="M122.9,175c0.1,0.6,0.2,1.1,0.2,1.6c0.4,3.4-4.4,7.8-8.9,8.5c-4.4,0.7-5.7-1.1-6-4.3
					c-0.4-3.2-3.2-7.8-3.2-7.8s0.9,3.5,1.4,6.7c0.5,3.2-0.2,8.2-3.9,11.7c-3.4,2.7-8.4,2.2-11.7,1.3c4.3,3.3,5.5,2.2,15,1.2
					c10.1-1.1,17.6-4.1,19-8.2C126,182.8,125.5,179,122.9,175z"/>
			</g>
		</g>
		<path class="st18" d="M91.2,169.7c-1.7,2.2,2.3,1.4,4.6,1.4c2.3,0,3.4-7.5,2.5-7.4C96.4,163.8,94.1,166.1,91.2,169.7z"/>
	</g>
</g>
</svg>
