<?xml version="1.0" encoding="utf-8"?>
<!-- Generator: Adobe Illustrator 17.0.0, SVG Export Plug-In . SVG Version: 6.00 Build 0)  -->
<!DOCTYPE svg PUBLIC "-//W3C//DTD SVG 1.1//EN" "http://www.w3.org/Graphics/SVG/1.1/DTD/svg11.dtd">
<svg version="1.1" id="Layer_1" xmlns="http://www.w3.org/2000/svg" xmlns:xlink="http://www.w3.org/1999/xlink" x="0px" y="0px"
	 width="171.214px" height="180px" viewBox="14.393 10 171.214 180" enable-background="new 14.393 10 171.214 180"
	 xml:space="preserve">
<g>
	<path fill="#B32025" d="M134.565,86.075c7.527-4.774,9.242-14.826,10.244-23.683c-9.399,0.281-17.64,6.215-24.56,12.582
		c-3.756,3.456-8.382,7.416-13.3,6.053c8.724-11.917,24.459-17.072,33.301-28.902c7.164-9.585,8.776-22.27,8.092-34.217
		c-0.103-1.806-0.27-3.67-1.128-5.263s-2.586-2.854-4.38-2.617c3.794,5.846,4.074,13.795,0.7,19.893
		c-1.288-4.171-2.617-8.428-5.193-11.952c-2.576-3.524-6.673-6.243-11.031-6c6.921,4.994,12.039,12.79,12.739,21.296
		c0.699,8.506-3.504,17.503-11.032,21.524c-1.422,0.76-3.182,1.334-4.602,0.57c-1.452-0.782-1.918-2.602-2.271-4.212
		c-2.438-11.114-6.383-21.895-11.695-31.957c-1.454,2.709-0.095,5.996,1.1,8.83c3.059,7.253,5.01,14.973,5.766,22.808
		c-7.319,0.816-14.862-0.486-21.483-3.709c1.657,4.625,7.609,5.508,12.335,6.847c3.91,1.107,7.589,3.024,10.737,5.594
		c0.659,0.537,1.356,1.266,1.21,2.103c-0.093,0.534-0.514,0.944-0.925,1.297c-2.898,2.488-6.504,4.142-10.28,4.715
		c0.374-1.793,0.748-3.586,1.122-5.378c-2.794,0.077-3.506,3.798-4.129,6.522c-0.949,4.15-3.692,7.856-7.382,9.978
		c-1.445-2.453-2.835-4.842-4.286-7.282c-0.006-0.009-0.016-0.018-0.022-0.027v-0.002l-0.417-0.524
		c-0.008-0.01-0.089-0.112-0.172-0.216l-2.079-2.61c-2.668-6.787,0.151-15.051,3.971-21.576c4.277-7.305,9.857-14.444,10.316-22.897
		c-2.195,4.653-4.95,9.042-8.188,13.041c-1.286,1.588-2.912,3.241-4.955,3.233c-2.523-0.01-4.252-2.5-5.32-4.786
		c-2.769-5.929-4.218-12.47-4.212-19.014c-3.217,5.222-2.044,12,0.044,17.766s5.021,11.445,5.054,17.578
		c0.032,6.133-4.234,12.907-10.367,12.862c-3.391-0.025-6.496-2.148-8.522-4.868s-3.144-5.993-4.173-9.225
		c-2.278-7.154-4.417-15.4-1.122-22.598c0.081-0.177,0.145-0.362,0.199-0.549c0.413-1.436-0.02-3.723-1.574-2.098
		c-1.224,1.28-1.988,3.664-2.602,5.295c-1.389,3.691-2.073,7.636-2.083,11.577c-0.01,3.947,0.656,7.9,1.991,11.616
		c0.665,1.852,1.496,3.645,2.49,5.343c0.5,0.854,2.298,4.437,3.313,4.6c-7.671-1.232-14.352-7.276-16.346-14.785
		c-2.182,7.594,4.048,15.339,11.262,18.562c7.214,3.224,15.371,3.466,22.999,5.526c4.464,1.206,9.629,4.568,8.604,9.077
		c-1.016,0.118-2.032,0.237-3.048,0.355c-0.6-3.252-4.406-4.643-7.624-5.401c-7.996-1.882-16.045-3.536-24.135-4.959
		c2.931,5.893,6.474,11.482,10.553,16.647c1.958,2.48,4.983,5.115,7.887,3.868c-2.385,5.158-6.501,9.497-11.527,12.15
		c-2.185,1.154-4.695,2.142-5.886,4.307c-1.794,3.263,0.468,7.419,3.502,9.579c4.032,2.871,9.446,3.621,14.167,2.134
		c2.643-0.833,5.91-2.182,7.841-0.194c1.516,1.561,0.993,4.113,0.36,6.195c-1.729,5.683-3.55,11.517-3.084,17.439
		c0.372,4.728,2.183,9.207,3.972,13.599c1.253,3.076,2.507,6.152,3.76,9.229c0.696-0.135,1.391-0.27,2.087-0.404
		c5.243,9.027,12.152,17.083,20.274,23.64c6.308-6.645,11.955-13.916,16.831-21.673c2.09-0.339,3.431-2.363,4.381-4.255
		c5.575-11.115,6.611-24.148,4.483-36.4c-2.128-12.251-7.26-23.808-13.48-34.575C125.912,89.344,130.857,88.427,134.565,86.075z"/>
	<path d="M176.09,99.183c2.005-0.036,4.01-0.073,6.016-0.109c0.315-0.006,0.645-0.008,0.924,0.137
		c0.28,0.145,0.483,0.489,0.362,0.779c-0.142,0.341-0.593,0.397-0.962,0.402c-4.933,0.06-9.865,0.121-14.798,0.181
		c-0.337,0.004-0.7,0-0.971-0.198c-0.236-0.172-0.331-0.528-0.165-0.776c0.227-0.34,0.975-0.259,1.333-0.266
		C170.582,99.283,173.336,99.233,176.09,99.183z"/>
	<path d="M155.147,95.259c-0.139,0.007-0.277,0.016-0.416,0.02c-0.396,0.012-0.645-0.188-0.688-0.568
		c-0.04-0.348,0.142-0.59,0.508-0.637c1.149-0.149,2.303-0.257,3.446-0.441c2.75-0.442,5.535-0.619,8.276-1.145
		c0.999-0.192,2.026-0.308,3.058-0.27c0.461,0.017,0.931-0.027,0.909,0.648c-0.019,0.606-0.458,0.591-0.886,0.612
		c-2.545,0.125-5.034,0.689-7.561,0.962c-2.219,0.24-4.428,0.566-6.641,0.854C155.15,95.283,155.148,95.271,155.147,95.259z"/>
	<path d="M159.635,109.092c1.334,0.341,2.708,0.462,4.065,0.691c1.898,0.32,3.783,0.708,5.711,0.864
		c0.927,0.075,1.831,0.411,2.752,0.594c0.491,0.098,0.676,0.38,0.572,0.826c-0.104,0.444-0.462,0.521-0.852,0.409
		c-2.299-0.658-4.7-0.712-7.03-1.205c-1.775-0.376-3.601-0.498-5.378-0.905c-0.482-0.11-1.11-0.087-0.99-0.808
		C158.595,108.905,159.154,109.036,159.635,109.092z"/>
	<path d="M160.189,72.2c0.261-0.021,0.498,0.037,0.677,0.225c0.482,0.508-0.483,1.181-0.888,1.372
		c-1.639,0.774-3.278,1.548-4.916,2.323c-0.718,0.339-1.378,0.789-2.103,1.117c-0.361,0.163-2.413,0.937-2.053-0.233
		c0.106-0.345,0.46-0.54,0.783-0.699c2.174-1.075,4.349-2.15,6.523-3.225C158.629,72.871,159.496,72.256,160.189,72.2z"/>
	<path d="M176.927,81.58c-0.357,0.026-0.599-0.141-0.681-0.476c-0.083-0.341,0.093-0.578,0.392-0.746
		c0.739-0.414,1.575-0.532,2.376-0.701c1.517-0.32,2.93-0.976,4.449-1.273c0.459-0.09,0.912-0.217,1.375-0.284
		c0.378-0.055,0.651,0.154,0.741,0.514c0.092,0.366-0.039,0.7-0.434,0.773c-2.719,0.498-5.317,1.433-7.97,2.17
		C177.096,81.579,177.01,81.573,176.927,81.58z"/>
	<path d="M141.487,91.154c-0.075-0.012-0.148-0.032-0.219-0.063c-0.696-0.3-0.333-0.988,0.187-1.185
		c1.851-0.699,3.817-0.899,5.693-1.51c2.797-0.911,5.693-1.605,8.532-2.38c2.865-0.782,5.735-1.546,8.598-2.333
		c2.655-0.73,5.303-1.487,7.958-2.219c0.426-0.118,0.873-0.16,1.308-0.248c0.349-0.071,0.891,0.086,0.884,0.525
		c-0.008,0.47-0.743,0.67-1.099,0.768c-7.705,2.115-15.405,4.249-23.107,6.369c-2.595,0.714-5.215,1.635-7.853,2.163
		C142.083,91.121,141.774,91.199,141.487,91.154z"/>
	<path d="M75.454,139.77c-0.099,0.186-0.165,0.412-0.309,0.564c-1.369,1.439-2.213,3.242-3.369,4.831
		c-1.706,2.344-3.399,4.705-4.953,7.15c-1.198,1.886-2.729,3.543-3.734,5.557c-0.173,0.347-0.478,0.608-0.806,0.825
		c-0.273,0.181-0.578,0.276-0.841,0.032c-0.287-0.265-0.256-0.596-0.04-0.905c0.916-1.311,1.841-2.616,2.751-3.931
		c0.895-1.294,1.767-2.605,2.665-3.898c1.543-2.22,3.124-4.415,4.638-6.654c0.821-1.214,1.515-2.514,2.477-3.629
		c0.225-0.261,0.418-0.587,0.854-0.589C75.229,139.121,75.341,139.401,75.454,139.77z"/>
	<path d="M66.886,124.577c0.269-0.003,0.517,0.048,0.584,0.35c0.253,1.141-5.029,3.686-6.042,4.371
		c-2.2,1.487-4.271,3.125-6.403,4.703c-1.761,1.304-3.868,2.204-5.408,3.792c-0.327,0.338-0.733,0.246-1.035-0.07
		c-0.308-0.321-0.079-0.596,0.143-0.871c0.646-0.8,1.582-1.206,2.395-1.777c1.651-1.16,3.325-2.287,4.986-3.432
		c3.12-2.151,6.235-4.308,9.357-6.455C65.892,124.894,66.326,124.581,66.886,124.577z"/>
	<path d="M161.312,100.741c-2.124,0.015-4.245,0.028-6.371,0.145c-2.286,0.126-4.585,0.084-6.877,0.035
		c-1.365-0.029-2.704,0.267-4.07,0.193c-0.476-0.026-0.928-0.146-1.396-0.185c-0.372-0.031-0.54-0.317-0.531-0.632
		c0.01-0.326,0.219-0.577,0.59-0.575c0.36,0.002,0.72,0.042,1.08,0.053c2.165,0.07,4.324-0.15,6.483-0.223
		c1.18-0.04,2.402-0.011,3.585-0.077c1.241-0.07,2.602,0.163,3.869,0.041c2.05-0.197,4.106,0.162,6.141-0.202
		c0.441-0.079,0.806,0.097,0.877,0.552c0.068,0.435-0.274,0.605-0.65,0.718C163.145,100.855,162.223,100.702,161.312,100.741z"/>
	<path d="M53.466,107.471c0.04,0.059,0.062,0.13,0.06,0.215c-0.005,0.17-0.126,0.314-0.254,0.427
		c-0.542,0.474-1.283,0.635-1.992,0.761c-1.523,0.268-3.059,0.448-4.595,0.627c-4.391,0.512-8.782,1.025-13.173,1.537
		c-0.536,0.063-1.431-0.135-0.982-0.87c0.286-0.468,1.748-0.403,2.208-0.467c2.002-0.278,4.005-0.556,6.007-0.834
		c3.925-0.545,7.849-1.09,11.774-1.635C52.854,107.184,53.305,107.233,53.466,107.471z"/>
	<path d="M163.978,142.082c-0.059,0.045-0.131,0.079-0.201,0.103c-0.74,0.25-1.514-0.21-2.16-0.65
		c-4.477-3.048-8.955-6.097-13.432-9.145c-0.549-0.374-0.926-1.083-0.071-1.149c0.753-0.059,1.661,0.646,2.244,1.041
		c4.467,3.021,8.935,6.042,13.402,9.063c0.191,0.129,0.408,0.319,0.354,0.544C164.094,141.968,164.043,142.032,163.978,142.082z"/>
	<path d="M59.922,122.898c-0.336,0.632-2.353,1.601-2.789,1.807c-1.316,0.621-2.675,1.163-3.976,1.813
		c-3.032,1.514-6.064,3.028-9.096,4.542c-0.312,0.156-0.639,0.316-0.988,0.318c-0.519,0.003-0.899-0.375-0.734-0.88
		c0.159-0.487,0.736-0.463,1.112-0.635c1.511-0.692,2.979-1.496,4.462-2.244c1.378-0.919,3.064-1.468,4.515-2.273
		c1.66-0.921,3.271-1.944,5.035-2.663c0.457-0.186,0.936-0.354,1.43-0.34C59.859,122.37,60.083,122.596,59.922,122.898z"/>
	<path d="M55.854,102.623c-3.017,0.061-6.034,0.128-9.051,0.194c-0.758,0.017-1.516,0.033-2.273,0.05
		c-0.382,0.008-0.8,0.005-1.097-0.235c-0.293-0.237-0.314-0.77,0.007-0.994c0.337-0.236,1.252-0.076,1.653-0.085
		c1.339-0.029,2.677-0.058,4.016-0.086c2.677-0.058,5.355-0.115,8.032-0.173c0.314-0.007,0.644-0.01,0.922,0.136
		s0.475,0.497,0.343,0.782c-0.221,0.478-1.042,0.382-1.469,0.39C56.576,102.608,56.215,102.616,55.854,102.623z"/>
	<path d="M28.385,79.541c-0.184-0.003-0.379-0.044-0.549-0.094c-4.108-1.2-8.217-2.4-12.325-3.6c-0.322-0.094-0.664-0.2-0.882-0.455
		c-0.842-0.98,0.805-0.976,1.326-0.827c4.043,1.161,8.076,2.354,12.099,3.58c0.269,0.082,0.548,0.17,0.755,0.36
		c0.207,0.191,0.319,0.516,0.181,0.761C28.869,79.479,28.637,79.545,28.385,79.541z"/>
	<path d="M29.802,121.816c-0.505,0.016-0.757-0.115-0.812-0.486c-0.072-0.487,0.228-0.711,0.637-0.817
		c1.548-0.402,3.109-0.758,4.646-1.197c1.777-0.507,3.603-0.823,5.355-1.429c0.985-0.341,2.006-0.583,3.051-0.702
		c0.452-0.051,0.807,0.089,0.872,0.55c0.067,0.468-0.245,0.665-0.694,0.744c-2.504,0.438-4.903,1.29-7.362,1.904
		C33.547,120.868,31.601,121.363,29.802,121.816z"/>
	<path d="M47.3,139.066c-0.032,0.311-0.278,0.534-0.574,0.7c-2.201,1.237-4.131,2.868-6.211,4.279
		c-1.535,1.041-3.083,2.06-4.616,3.103c-0.438,0.298-0.834,0.196-1.091-0.164c-0.262-0.368,0.042-0.65,0.335-0.899
		c0.932-0.792,2.026-1.341,3.013-2.056c2.42-1.753,4.909-3.412,7.373-5.103c0.342-0.235,0.696-0.461,1.13-0.49
		C47.061,138.409,47.301,138.572,47.3,139.066z"/>
	<path d="M150.853,96.016c-0.182,0.053-0.377,0.036-0.567,0.022c-1.92-0.137-3.743,0.361-5.629,0.616
		c-2.045,0.276-4.09,0.552-6.134,0.828c-0.397,0.054-0.831,0.1-1.174-0.107c-0.3-0.182-0.454-0.662-0.214-0.953
		c0.26-0.315,1.116-0.254,1.499-0.304c1.241-0.162,2.481-0.323,3.722-0.485c2.481-0.323,4.962-0.646,7.443-0.969
		c0.538-0.07,1.246-0.042,1.42,0.473c0.111,0.33,0.027,0.748-0.336,0.871C150.872,96.01,150.863,96.013,150.853,96.016z"/>
	<path d="M156.29,117.906c-0.767-0.155-1.548-0.292-2.259-0.57c-1.828-0.716-3.707-1.259-5.576-1.841
		c-0.604-0.188-1.18-0.46-1.781-0.66c-0.391-0.13-0.678-0.356-0.569-0.768c0.117-0.44,0.496-0.587,0.932-0.449
		c1.287,0.409,2.568,0.837,3.853,1.252c1.731,0.559,3.455,1.148,5.201,1.656c0.984,0.287,1.947,0.614,2.885,1.021
		c0.451,0.196,0.939,0.417,0.659,1.019c-0.273,0.586-0.736,0.383-1.203,0.176C157.732,118.432,157.005,118.182,156.29,117.906z"/>
	<path d="M60.55,161.246c-0.087,0.354-0.332,0.623-0.522,0.927c-1.163,1.857-2.703,3.455-3.794,5.346
		c-0.847,1.468-1.807,2.841-2.796,4.204c-0.146,0.201-0.306,0.397-0.485,0.569c-0.282,0.271-0.646,0.416-0.972,0.158
		c-0.344-0.272-0.248-0.643-0.007-0.966c0.646-0.865,1.274-1.743,1.904-2.618c0.491-0.682,0.807-1.452,1.277-2.128
		c1.344-1.931,2.742-3.825,4.106-5.743c0.229-0.321,0.51-0.421,0.86-0.324C60.387,160.746,60.488,160.987,60.55,161.246z"/>
	<path d="M75.082,125.316c0.308,0.078,0.544,0.199,0.644,0.5c0.106,0.32-0.038,0.54-0.285,0.709
		c-1.707,1.171-2.949,2.843-4.506,4.178c-1.512,1.296-2.817,2.819-4.37,4.074c-0.107,0.087-0.19,0.205-0.298,0.29
		c-0.32,0.251-0.66,0.301-0.974,0.006c-0.357-0.334-0.19-0.68,0.082-0.943c0.874-0.847,1.772-1.668,2.659-2.502
		c1.224-1.15,2.472-2.277,3.658-3.465c0.746-0.747,1.488-1.496,2.287-2.184C74.31,125.692,74.656,125.408,75.082,125.316z"/>
	<path d="M139.636,160.235c0.92,1.594,1.687,3.129,2.648,4.532c1.138,1.662,1.841,3.578,3.123,5.149
		c0.4,0.49,0.497,1.163,0.916,1.66c0.264,0.313,0.29,0.692-0.095,0.926c-0.374,0.227-0.75,0.16-1.014-0.234
		c-0.565-0.844-1.084-1.724-1.583-2.6c-1.296-2.276-2.67-4.504-4.01-6.754c-0.028-0.048-0.054-0.097-0.081-0.145
		C138.993,161.793,138.877,161.741,139.636,160.235z"/>
	<path d="M37.844,103.124c-0.091,0.015-0.182,0.028-0.272,0.04c-1.869,0.251-3.704,0.205-5.581,0.142
		c-1.77-0.059-3.569,0.11-5.317-0.247c-0.146-0.03-0.298-0.069-0.406-0.171c-0.248-0.234-0.121-0.684,0.159-0.878
		s0.644-0.205,0.985-0.21c3.835-0.048,7.67-0.096,11.505-0.143c0.314-0.004,0.742,0.104,0.719,0.417
		c-0.007,0.092-0.058,0.175-0.114,0.249C39.133,102.828,38.483,103.02,37.844,103.124z"/>
	<path d="M156.879,110.028c-0.68-0.148-1.416-0.368-2.189-0.454c-1.503-0.167-3.008-0.378-4.492-0.642
		c-1.655-0.294-3.314-0.569-4.973-0.843c-0.186-0.031-0.362-0.129-0.541-0.199c-0.398-0.156-0.443-0.482-0.334-0.822
		c0.105-0.33,0.365-0.435,0.719-0.373c2.382,0.416,4.765,0.832,7.151,1.226c1.604,0.265,3.246,0.297,4.81,0.818
		c0.421,0.14,0.602,0.364,0.564,0.777C157.559,109.895,157.295,110.019,156.879,110.028z"/>
	<path d="M55.675,144.82c-0.278-0.035-0.506-0.093-0.58-0.335c-0.093-0.303-0.071-0.584,0.198-0.833
		c1.587-1.471,3.168-2.947,4.738-4.435c0.947-0.897,1.862-1.827,2.809-2.723c0.341-0.323,0.725-0.604,1.106-0.88
		c0.376-0.272,0.721-0.213,1.012,0.162c0.296,0.381,0.045,0.651-0.22,0.843c-1.741,1.266-3.064,2.977-4.68,4.378
		c-1.046,0.907-1.999,1.923-2.984,2.899C56.656,144.31,56.216,144.675,55.675,144.82z"/>
	<path d="M53.548,67.788c0.069,0.453-0.112,0.599-0.306,0.705c-0.259,0.141-0.556,0.152-0.791-0.026
		c-2.903-2.188-6.006-4.087-8.957-6.205c-0.247-0.177-0.49-0.376-0.682-0.608c-0.233-0.281-0.25-0.632-0.008-0.916
		c0.262-0.307,0.601-0.277,0.884-0.022c1.656,1.49,3.641,2.509,5.443,3.791c1.03,0.732,2.01,1.549,3.14,2.145
		C52.833,66.95,53.288,67.387,53.548,67.788z"/>
	<path d="M56.435,94.918c-1.631-0.561-3.392-0.558-5.108-0.839c-1.062-0.174-2.116-0.393-3.192-0.486
		c-0.383-0.033-0.762-0.136-1.138-0.227c-0.386-0.094-0.539-0.357-0.471-0.746c0.071-0.411,0.362-0.555,0.725-0.502
		c2.897,0.427,5.793,0.864,8.687,1.312c0.297,0.046,0.58,0.183,0.871,0.275c0.348,0.11,0.502,0.36,0.425,0.702
		C57.147,94.792,56.841,94.913,56.435,94.918z"/>
	<path d="M154.393,62.535c-1.561,0.734-2.822,1.964-4.248,2.958c-0.883,0.615-1.791,1.193-2.628,1.875
		c-0.298,0.243-0.641,0.433-0.974,0.63c-0.342,0.201-0.635,0.119-0.858-0.207c-0.235-0.345-0.127-0.651,0.171-0.865
		c2.375-1.713,4.757-3.417,7.145-5.112c0.245-0.174,0.544-0.273,0.817-0.409c0.327-0.163,0.61-0.092,0.794,0.208
		C154.817,61.949,154.681,62.248,154.393,62.535z"/>
	<path d="M62.115,95.848c-0.241-0.048-0.479-0.103-0.71-0.169c-0.485-0.075-2.778-0.363-2.16-1.282
		c0.145-0.216,0.41-0.328,0.669-0.351c0.259-0.023,0.519,0.031,0.774,0.082c2.487,0.503,5.012,0.83,7.516,1.246
		c0.364,0.06,0.622,0.495,0.732,0.81c0.035,0.101,0.059,0.219,0.004,0.312c-0.054,0.093-0.168,0.129-0.273,0.151
		c-0.971,0.199-2.085-0.183-3.043-0.338C64.493,96.126,63.259,96.074,62.115,95.848z"/>
	<path d="M128.644,93.55c0.003-0.011,0.007-0.023,0.011-0.035c0.142-0.412,1.232-0.488,1.599-0.587
		c0.738-0.198,1.476-0.395,2.214-0.593c1.437-0.385,2.875-0.769,4.312-1.154c0.214-0.057,0.436-0.115,0.655-0.084
		c0.469,0.066,0.744,0.649,0.475,1.044c-0.235,0.344-0.828,0.354-1.195,0.402c-0.873,0.114-1.721,0.347-2.56,0.608
		C133.529,93.346,128.194,95.161,128.644,93.55z"/>
	<path d="M139.488,124.88c0.841,0.591,1.522,1.161,2.285,1.587c1.488,0.83,2.72,2.042,4.265,2.784
		c0.34,0.163,0.623,0.458,0.91,0.716c0.248,0.223,0.386,0.513,0.092,0.786c-0.234,0.217-0.497,0.475-0.869,0.211
		c-1.188-0.841-2.515-1.48-3.614-2.45c-0.463-0.409-1.041-0.631-1.563-0.916C139.913,127.007,139.807,125.996,139.488,124.88z"/>
	<path d="M45.75,117.625c-0.36-0.014-0.632-0.127-0.695-0.547c-0.062-0.413,0.148-0.647,0.495-0.746
		c0.476-0.136,0.971-0.201,1.45-0.326c1.887-0.493,3.781-0.962,5.65-1.517c0.681-0.202,0.671,0.198,0.86,0.605
		c0.288,0.621-0.208,0.563-0.494,0.641c-2.335,0.628-4.675,1.238-7.014,1.852C45.923,117.609,45.839,117.612,45.75,117.625z"/>
	<path d="M136.364,110.421c0.185-0.149,0.491-0.2,0.806-0.099c2.142,0.685,4.268,1.418,6.378,2.198
		c0.252,0.093,0.514,0.194,0.695,0.393s0.249,0.528,0.078,0.736c-0.208,0.252-0.602,0.187-0.916,0.098
		c-2.051-0.582-4.082-1.234-6.088-1.953c-0.331-0.119-0.677-0.25-0.905-0.517C136.099,110.912,136.146,110.598,136.364,110.421z"/>
	<path d="M141.488,82.774c-0.031-0.05-0.01-0.116,0.021-0.166c0.215-0.343,0.439-0.668,0.703-0.977
		c0.333-0.39,0.72-0.731,1.134-1.033c0.835-0.608,1.771-1.056,2.687-1.526c0.156-0.08,0.313-0.161,0.468-0.244
		c0.75-0.399,1.519-0.801,2.372-0.964c0.374-0.071,0.663,0.047,0.785,0.43c0.111,0.347-0.195,0.491-0.456,0.637
		c-0.695,0.388-1.396,0.765-2.102,1.131c-0.354,0.183-0.709,0.363-1.065,0.542c-0.31,0.157-0.633,0.378-0.962,0.488
		c-0.278,0.093-0.554,0.283-0.815,0.418c-0.295,0.152-0.589,0.305-0.884,0.457c-0.297,0.153-0.585,0.324-0.88,0.481
		c-0.252,0.133-0.592,0.359-0.883,0.379C141.571,82.831,141.526,82.818,141.488,82.774z"/>
	<path d="M39.106,132.155c0.546-0.07,0.777,0.098,0.87,0.434c0.096,0.351-0.078,0.637-0.383,0.739
		c-2.132,0.712-3.946,2.071-6.008,2.92c-0.346,0.142-0.705,0.14-0.911-0.295c-0.206-0.435,0.007-0.723,0.356-0.875
		c1.92-0.838,3.641-2.078,5.629-2.775C38.864,132.231,39.073,132.165,39.106,132.155z"/>
	<path d="M141.649,107.529c-1.164-0.32-2.378-0.585-3.622-0.684c-0.883-0.07-1.745-0.264-2.616-0.402
		c-0.795-0.125-0.561-0.85-0.817-1.284c-0.06-0.102,0.14-0.182,0.301-0.143c2.204,0.539,4.501,0.543,6.69,1.155
		c0.289,0.081,0.678,0.073,0.797,0.497C142.522,107.168,142.231,107.547,141.649,107.529z"/>
	<path d="M23.583,112.449c-0.224,0.023-0.451,0.02-0.65-0.082c-1.283-0.663,0.894-1.208,1.414-1.282
		c1.671-0.236,3.342-0.473,5.013-0.709c1.541-0.218,1.507,1.06,0.094,1.252c-1.888,0.258-3.775,0.528-5.662,0.795
		C23.723,112.432,23.653,112.442,23.583,112.449z"/>
	<path d="M61.821,89.389c-0.21,0.418-0.928,0.254-1.271,0.166c-1.347-0.342-2.882-0.883-4.006-1.729
		c-1.046-0.786,0.677-1.065,1.267-0.875c1.052,0.34,2.296,0.398,3.239,1.055c0.322,0.224,0.886,0.861,0.803,1.287
		C61.846,89.33,61.836,89.361,61.821,89.389z"/>
	<path d="M142.536,140.031c1.195,1.238,2.577,2.229,3.57,3.609c0.26,0.361,0.509,0.755,0.09,1.087
		c-0.418,0.332-0.813,0.111-1.136-0.281c-0.421-0.511-0.806-1.088-1.328-1.473C142.725,142.228,142.297,141.304,142.536,140.031z"/>
	<path d="M26.826,121.299c0.522-0.023,0.862,0.143,0.881,0.619c0.018,0.464-0.286,0.676-0.737,0.708
		c-1.079,0.077-2.1,0.416-3.127,0.718c-0.465,0.137-0.947,0.349-1.162-0.297c-0.193-0.581,0.255-0.771,0.694-0.918
		C24.525,121.745,25.716,121.527,26.826,121.299z"/>
	<path d="M132.901,99.92c1.42,0,2.72,0,4.021,0c0.478,0,0.929,0.07,0.921,0.683c-0.008,0.634-0.511,0.531-0.916,0.546
		c-0.966,0.035-1.935-0.074-2.9,0.092C133.032,101.412,133.155,100.584,132.901,99.92z"/>
	<path d="M131.534,97.071c0.357-0.426,2.036-0.317,2.373-0.285c0.219,0.021,0.445,0.046,0.637,0.153
		c0.192,0.107,0.345,0.317,0.316,0.535c-0.035,0.266-0.308,0.429-0.56,0.521c-0.345,0.126-0.71,0.196-1.077,0.207
		c-0.576,0.017-1.193-0.137-1.57-0.573C131.439,97.381,131.425,97.201,131.534,97.071z"/>
	<path d="M52.976,85.751c-0.195-0.211-0.484-0.302-0.76-0.384c-5.005-1.492-10.01-2.983-15.016-4.475
		c-1.575-0.469-3.151-0.939-4.738-1.368c-0.283-0.076-2.967-0.677-2.532,0.113c0.066,0.12,0.19,0.196,0.31,0.263
		c1.67,0.938,3.571,1.361,5.424,1.846c2.799,0.733,5.552,1.632,8.312,2.504l0,0l0,0c2.748,0.869,5.503,1.711,8.315,2.336
		c0.03,0.007,0.061,0.013,0.092,0.019c0.218,0.042,0.455,0.057,0.619-0.084C53.221,86.335,53.171,85.962,52.976,85.751z"/>
	<path fill="#FFFFFF" d="M77.898,88.925c0.339-2.713,0.867-5.627,1.428-8.31c0.075-0.315,0.228-0.716,0.555-0.736
		c0.391-0.011,0.417,0.512,0.338,0.858c-0.375,2.026-0.762,4.148-1.113,6.242c-0.144,1.052-0.301,1.971-0.389,2.609
		c1.024,0.107,3.168,0.335,4.784,0.621c0.035-0.255,0.325-2.617,0.325-2.617c0.3-2.199,0.543-4.211,0.637-5.139
		c0.214-2.275,1.408-1.755,1.408-1.755s0.92,0.159,0.546,2.899c-0.178,1.306-0.408,3.937-0.839,6.378c0,0-0.675,3.998-1.242,5.77
		c0,0-0.392,1.44-1.092,1.344c-0.924-0.126-0.539-1.761-0.539-1.761c0.146-0.825,0.469-2.955,0.66-4.357
		c-1.438-0.164-3.346-0.457-4.756-0.585c-0.208,1.757-0.415,3.514-0.559,5.28c0,0,0,0.714-0.382,0.662
		c-0.419-0.025-0.364-0.667-0.364-0.667C77.352,93.395,77.626,91.16,77.898,88.925z M84.041,89.343
		c0.023,0.068,0.11,0.144,0.174,0.153l0.032,0.004c0.1-0.018,0.204-0.069,0.25-0.16c0.045-0.092,0.058-0.187,0.035-0.255
		c-0.074-0.172-0.325-0.239-0.325-0.239c-0.032-0.004-0.068,0.024-0.068,0.024C84.017,89.047,83.963,89.202,84.041,89.343z
		 M84.176,91.211c0.017-0.128-0.042-0.168-0.106-0.177c-0.092-0.045-0.237,0.065-0.277,0.124c0,0,0,0-0.037,0.028
		c-0.053,0.155-0.071,0.282,0.02,0.327c0.028,0.037,0.028,0.037,0.059,0.041c0.064,0.009,0.096,0.013,0.169-0.042
		C84.109,91.461,84.222,91.347,84.176,91.211z M84.286,89.928l-0.004,0.032c-0.058,0.187-0.003,0.259,0.025,0.295
		c0.032,0.004,0.064,0.009,0.064,0.009c0.032,0.004,0.095,0.013,0.131-0.014c0.072-0.055,0.118-0.147,0.099-0.246
		c-0.019-0.1-0.046-0.136-0.11-0.145C84.431,89.818,84.322,89.9,84.286,89.928z M84.424,91.764
		c-0.113,0.115-0.121,0.178-0.099,0.246c0.028,0.036,0.055,0.072,0.119,0.081c0.096,0.013,0.2-0.037,0.213-0.133
		c0.041-0.059,0.017-0.128-0.01-0.163c-0.055-0.072-0.155-0.054-0.191-0.026C84.457,91.769,84.457,91.769,84.424,91.764z
		 M84.738,90.898c0.028,0.036,0.087,0.077,0.15,0.086c0.096,0.013,0.2-0.038,0.281-0.156c0.077-0.087,0.09-0.183,0.035-0.255
		c-0.051-0.104-0.214-0.094-0.246-0.099c-0.032-0.004-0.032-0.004-0.036,0.028C84.772,90.643,84.687,90.794,84.738,90.898z"/>
	<path fill="#FFFFFF" d="M92.103,85.931c0,0,0.856,0.15,1.257,1.016c0.27-0.548,0.636-0.855,1.046-0.767
		c0,0,1.101,0.021,0.844,1.187c-0.221,1.139-1.538,9.593-1.354,10.624c0,0,0.127,0.731-0.52,0.481
		c-0.588-0.21-1.372-1.356-1.296-3.585c-0.007-0.423,0.012-1.037,0.076-1.743c-0.812,1.902-2.39,4.9-4.038,4.61
		c-2.094-0.351-1.533-5.176-1.267-6.406C87.12,90.087,88.464,85.24,92.103,85.931z M87.897,91.524
		c-0.023-0.067-0.082-0.108-0.182-0.089c-0.128-0.017-0.268,0.06-0.318,0.184c-0.045,0.091-0.022,0.159,0.006,0.196
		c0.027,0.036,0.059,0.04,0.123,0.049c0.095,0.013,0.163-0.01,0.196-0.005c0,0,0,0,0.036-0.028
		C87.871,91.716,87.948,91.629,87.897,91.524z M88.638,92.048c-0.018-0.1-0.073-0.173-0.169-0.186
		c-0.15-0.086-0.364,0.048-0.395,0.044c-0.004,0.032-0.041,0.059-0.009,0.064c0.001,0.227,0.08,0.368,0.234,0.421
		c0,0,0.032,0.004,0.064,0.009c0.064,0.009,0.132-0.014,0.2-0.038C88.639,92.275,88.653,92.179,88.638,92.048z M88.338,91.39
		c0.024,0.068,0.051,0.104,0.115,0.113c0.064,0.009,0.141-0.078,0.177-0.106c0,0,0,0,0.004-0.032c0.022-0.16-0.038-0.2-0.065-0.237
		c-0.059-0.04-0.128-0.017-0.163,0.011C88.332,91.195,88.288,91.286,88.338,91.39z M89.043,92.168
		c-1.3,4.528-0.312,4.663-0.312,4.663c1.027-0.152,3.181-4.986,3.665-6.154c0.083-0.606,0.193-1.174,0.299-1.712
		c0.138-1.247-0.09-1.96-0.408-2.003C91.941,86.883,90.38,87.612,89.043,92.168z M93.063,92.685
		c0.055,0.072,0.087,0.077,0.151,0.086c0,0,0,0,0.032,0.004c0.1-0.019,0.185-0.17,0.194-0.233c0,0,0,0,0.004-0.032
		c-0.01-0.164-0.06-0.268-0.151-0.313c-0.064-0.009-0.136,0.046-0.209,0.101C93.002,92.417,92.98,92.576,93.063,92.685z
		 M93.44,91.828c-0.022,0.159,0.001,0.227,0.065,0.236l0.028,0.037c0.064,0.009,0.1-0.019,0.136-0.046
		c0.04-0.059,0.086-0.151,0.066-0.251c-0.023-0.068-0.082-0.108-0.115-0.113c-0.095-0.013-0.172,0.074-0.176,0.105L93.44,91.828z
		 M93.71,92.935c-0.013,0.096,0.015,0.132,0.046,0.136c0.032,0.004,0.032,0.004,0.064,0.009c0.064,0.009,0.132-0.014,0.136-0.046
		c0.032,0.004,0.036-0.027,0.036-0.027c0.054-0.155,0.03-0.223,0.003-0.259c-0.028-0.036-0.092-0.045-0.159-0.022
		C93.768,92.749,93.692,92.836,93.71,92.935z"/>
	<path fill="#FFFFFF" d="M102.956,88.226c-0.369,2.222-1.633,6.009-1.633,6.009c-1.951,5.966-3.582,4.834-3.582,4.834
		s-2.715-1.507-1.356-10.508c0,0,0.247-2.044,1.335-1.928c1.092,0.085,0.803,1.96,0.803,1.96c-0.289,2.59-0.877,8.32,0.037,8.997
		c0.882,0.672,2.989-6.668,3.603-9.505c0,0,0.081-0.833,0.464-0.781C102.85,87.335,103.088,87.497,102.956,88.226z M96.812,92.807
		c0.04-0.059,0.086-0.15,0.066-0.25c-0.023-0.068-0.082-0.109-0.114-0.113c-0.096-0.013-0.173,0.074-0.177,0.106
		c0,0,0,0-0.004,0.032c-0.022,0.159,0.002,0.227,0.066,0.236l0.032,0.004C96.712,92.826,96.776,92.835,96.812,92.807z
		 M97.279,93.423c-0.074-0.172-0.293-0.234-0.324-0.239c-0.032-0.004-0.037,0.027-0.068,0.023c-0.122,0.178-0.175,0.333-0.098,0.474
		c0.019,0.1,0.079,0.141,0.174,0.154l0.032,0.004c0.095,0.013,0.199-0.038,0.249-0.161C97.289,93.587,97.302,93.491,97.279,93.423z
		 M97.629,92.53c-0.091-0.045-0.155-0.054-0.191-0.026c-0.104,0.051-0.126,0.21-0.134,0.274L97.3,92.81
		c0.073,0.173,0.129,0.245,0.225,0.258c0.1-0.019,0.141-0.079,0.185-0.17C97.753,92.807,97.747,92.611,97.629,92.53z"/>
	<path fill="#FFFFFF" d="M104.827,94.487c-0.117,0.86-0.605,4.429,0.665,4.635c0,0,1.54,0.373,2.363-1.852
		c0,0,0.223-0.683,0.624-0.532c0.438,0.125,0.089,1.019,0.089,1.019c-1.193,2.79-3.593,2.3-3.593,2.3
		c-3.209-0.503-2.274-5.926-2.274-5.926s0.756-6.486,4.069-6.261c0,0,1.328,0.019,1.49,1.21
		C108.456,90.503,107.403,93.93,104.827,94.487z M103.473,93.231l0.032,0.004c0.064,0.009,0.096,0.013,0.132-0.014
		c0.072-0.055,0.118-0.146,0.094-0.214c-0.051-0.105-0.078-0.141-0.11-0.145c-0.095-0.013-0.172,0.074-0.172,0.074
		c-0.036,0.028-0.036,0.028-0.036,0.028C103.391,93.122,103.414,93.19,103.473,93.231z M103.983,94.015
		c-0.019-0.1-0.074-0.173-0.165-0.217c-0.15-0.086-0.359,0.016-0.359,0.016c-0.037,0.027-0.037,0.027-0.041,0.059
		c0.002,0.227,0.08,0.368,0.199,0.449c0,0,0.032,0.004,0.064,0.009c0.064,0.009,0.132-0.015,0.2-0.038
		C103.952,94.238,104.001,94.114,103.983,94.015z M104.411,93.262c-0.055-0.072-0.083-0.108-0.147-0.117
		c-0.128-0.017-0.245,0.129-0.281,0.156c-0.004,0.032-0.004,0.032-0.004,0.032c-0.026,0.191,0.025,0.295,0.084,0.336
		c0.028,0.036,0.028,0.036,0.059,0.04c0.064,0.009,0.1-0.018,0.173-0.073C104.371,93.548,104.457,93.398,104.411,93.262z
		 M104.981,93.599c0.749-0.255,1.681-1.134,2.229-2.779c0.706-2.078-0.295-2.118-0.295-2.118
		C106.07,88.716,105.281,92.115,104.981,93.599z"/>
	<path fill="#FFFFFF" d="M116.183,89.954c0,0,0.726-0.156,1.322,0.402c0.038-0.521,0.23-0.881,0.583-0.943
		c0,0,0.879-0.336,1.049,0.67c0.191,0.973,1.859,8.095,2.336,8.852c0,0,0.335,0.539-0.258,0.548
		c-0.533,0.022-1.523-0.634-2.177-2.425c-0.141-0.333-0.323-0.826-0.499-1.405c-0.033,1.768-0.322,4.649-1.721,4.948
		c-1.772,0.394-2.875-3.61-3.059-4.669C113.569,94.845,113.079,90.573,116.183,89.954z M114.646,95.734
		c-0.04-0.046-0.1-0.059-0.173-0.012c-0.107,0.027-0.193,0.134-0.193,0.247c-0.006,0.086,0.034,0.133,0.068,0.153
		c0.033,0.02,0.06,0.013,0.113-0.001c0.08-0.02,0.126-0.06,0.153-0.067c0,0,0,0,0.02-0.034
		C114.686,95.894,114.719,95.801,114.646,95.734z M115.4,95.912c-0.047-0.074-0.114-0.113-0.194-0.093
		c-0.147-0.02-0.273,0.155-0.299,0.161c0.007,0.026-0.013,0.06,0.014,0.053c0.074,0.18,0.181,0.266,0.321,0.258
		c0,0,0.026-0.007,0.053-0.014c0.053-0.014,0.1-0.053,0.146-0.094C115.475,96.091,115.454,96.011,115.4,95.912z M114.952,95.487
		c0.041,0.046,0.074,0.066,0.127,0.053c0.053-0.014,0.086-0.107,0.106-0.141c0,0,0,0-0.007-0.026
		c-0.034-0.134-0.094-0.146-0.128-0.167c-0.06-0.013-0.107,0.027-0.126,0.061C114.885,95.334,114.878,95.42,114.952,95.487z
		 M115.76,95.877c0.422,4.005,1.249,3.795,1.249,3.795c0.765-0.45,0.921-4.971,0.93-6.052c-0.129-0.506-0.224-0.992-0.312-1.452
		c-0.291-1.032-0.7-1.524-0.966-1.456C116.36,90.76,115.357,91.838,115.76,95.877z M119.111,94.997
		c0.067,0.04,0.094,0.033,0.147,0.019c0,0,0,0,0.026-0.007c0.073-0.047,0.092-0.194,0.079-0.247c0,0,0,0-0.007-0.026
		c-0.06-0.127-0.134-0.193-0.22-0.199c-0.053,0.014-0.093,0.08-0.133,0.147C118.977,94.804,119.011,94.937,119.111,94.997z
		 M119.134,94.197c0.034,0.133,0.074,0.18,0.127,0.166l0.034,0.02c0.053-0.014,0.073-0.047,0.093-0.08
		c0.013-0.06,0.019-0.147-0.028-0.22c-0.04-0.047-0.1-0.059-0.127-0.053c-0.08,0.02-0.113,0.114-0.106,0.14L119.134,94.197z
		 M119.704,94.988c0.02,0.08,0.054,0.1,0.08,0.093c0.026-0.007,0.026-0.007,0.053-0.014c0.053-0.014,0.1-0.053,0.093-0.08
		c0.026-0.007,0.02-0.033,0.02-0.033c-0.007-0.14-0.047-0.186-0.081-0.207c-0.034-0.02-0.087-0.006-0.134,0.034
		C119.69,94.821,119.657,94.915,119.704,94.988z"/>
	<path fill="#FFFFFF" d="M67.559,112.765c-0.328-2.303-0.546-4.813-0.685-7.14c-0.009-0.275,0.027-0.638,0.291-0.728
		c0.319-0.097,0.457,0.327,0.469,0.629c0.145,1.747,0.302,3.575,0.482,5.373c0.117,0.896,0.193,1.686,0.264,2.229
		c0.865-0.141,2.675-0.433,4.066-0.56c-0.028-0.217-0.318-2.221-0.318-2.221c-0.245-1.872-0.495-3.578-0.626-4.361
		c-0.333-1.916,0.764-1.756,0.764-1.756s0.791-0.075,1.096,2.258c0.145,1.112,0.545,3.323,0.737,5.423c0,0,0.339,3.433,0.27,5.014
		c0,0,0,1.27-0.596,1.348c-0.787,0.103-0.836-1.325-0.836-1.325c-0.065-0.709-0.276-2.531-0.432-3.725
		c-1.217,0.187-2.849,0.373-4.035,0.583c0.222,1.489,0.445,2.978,0.721,4.459c0,0,0.159,0.586-0.166,0.629
		c-0.349,0.073-0.448-0.466-0.448-0.466C68.11,116.556,67.835,114.66,67.559,112.765z M72.695,111.735
		c0.034,0.051,0.123,0.094,0.177,0.087l0.027-0.004c0.078-0.038,0.152-0.102,0.169-0.187c0.016-0.085,0.006-0.166-0.028-0.217
		c-0.099-0.125-0.32-0.124-0.32-0.124c-0.027,0.004-0.051,0.035-0.051,0.035C72.609,111.497,72.6,111.637,72.695,111.735z
		 M73.223,113.238c-0.014-0.109-0.072-0.128-0.126-0.121c-0.085-0.017-0.18,0.106-0.199,0.164c0,0,0,0-0.024,0.031
		c-0.009,0.139,0.005,0.248,0.09,0.264c0.031,0.024,0.031,0.024,0.058,0.02c0.054-0.007,0.082-0.011,0.129-0.072
		C73.224,113.459,73.292,113.34,73.223,113.238z M73.027,112.16l0.004,0.027c-0.006,0.166,0.055,0.214,0.086,0.237
		c0.027-0.004,0.054-0.007,0.054-0.007c0.027-0.004,0.081-0.011,0.104-0.041c0.047-0.061,0.064-0.147,0.026-0.224
		c-0.037-0.078-0.069-0.102-0.123-0.094C73.122,112.038,73.05,112.129,73.027,112.16z M73.551,113.637
		c-0.067,0.119-0.06,0.174-0.026,0.224c0.031,0.023,0.061,0.047,0.116,0.039c0.082-0.011,0.156-0.075,0.145-0.157
		c0.02-0.058-0.014-0.109-0.045-0.132c-0.061-0.047-0.14-0.01-0.163,0.021C73.579,113.634,73.579,113.634,73.551,113.637z
		 M73.615,112.856c0.031,0.023,0.089,0.044,0.143,0.037c0.082-0.011,0.156-0.076,0.196-0.191c0.044-0.089,0.033-0.17-0.028-0.217
		c-0.065-0.074-0.197-0.029-0.224-0.026c-0.027,0.004-0.027,0.004-0.023,0.031C73.586,112.639,73.55,112.782,73.615,112.856z"/>
	<path fill="#FFFFFF" d="M76.153,108.633c0.329-0.651,0.747-1.257,1.875-1.488c2.741-0.358,3.06,4.402,3.06,4.402
		s0.606,5.688-2.297,6.068c-2.822,0.369-3.483-4.263-3.483-4.263C74.813,109.774,76.153,108.633,76.153,108.633z M75.663,112.478
		c0.018,0.135,0.079,0.183,0.133,0.176c0.004,0.027,0.031,0.024,0.031,0.024c0.027-0.004,0.078-0.038,0.102-0.069
		c0.02-0.058,0.037-0.143,0.002-0.194c-0.065-0.074-0.092-0.071-0.123-0.094c-0.081,0.011-0.125,0.099-0.121,0.126
		C75.659,112.45,75.663,112.478,75.663,112.478z M76.18,113.265c0.038,0.078,0.123,0.094,0.177,0.087l0.027-0.004
		c0.081-0.011,0.156-0.076,0.168-0.188c0.016-0.085,0.009-0.139-0.028-0.217c-0.099-0.125-0.289-0.101-0.316-0.097
		c-0.031-0.023-0.027,0.004-0.051,0.035C76.093,113.028,76.084,113.167,76.18,113.265z M76.341,112.389c0,0,0,0,0.027-0.004
		c0.072,0.128,0.16,0.172,0.215,0.165c0.027-0.004,0.027-0.004,0.027-0.004c0.054-0.007,0.102-0.068,0.091-0.15
		c0.013-0.112-0.032-0.245-0.12-0.288c-0.089-0.044-0.14-0.01-0.166-0.006C76.313,112.172,76.334,112.335,76.341,112.389z
		 M77.101,112.925c0,0,0.514,3.934,1.925,3.75c1.167-0.153,1.536-2.602,1.386-4.596c-0.133-1.859-0.924-4.322-2.129-4.247
		c-1.146,0.095-1.31,1.165-1.31,1.165S76.674,110.082,77.101,112.925z"/>
	<path fill="#FFFFFF" d="M83.71,110.708c0,0,0.482,3.689,0.648,4.744c0,0,0.293,1.396-0.493,1.499
		c-0.597,0.078-0.923-1.149-0.923-1.149c-0.45-1.542-0.948-4.925-0.948-4.925c-0.304-2.113-0.486-4.352-0.605-5.468
		c-0.274-2.309,0.509-2.44,0.509-2.44s1.023-0.41,1.193,1.528C83.168,105.508,83.445,108.259,83.71,110.708z M82.712,111.308
		c0.054-0.007,0.105-0.042,0.125-0.099c0.071-0.092,0.08-0.231,0.012-0.332c-0.034-0.051-0.092-0.071-0.146-0.064
		c-0.109,0.014-0.173,0.16-0.166,0.215c0,0-0.027,0.004-0.023,0.031c0.045,0.132,0.086,0.237,0.171,0.254L82.712,111.308z
		 M83.06,111.648c-0.065-0.074-0.092-0.07-0.119-0.067c-0.081,0.011-0.125,0.099-0.125,0.099c0.004,0.027-0.024,0.031-0.024,0.031
		c0.018,0.135,0.079,0.183,0.137,0.202l0.027-0.004c0.027-0.004,0.078-0.037,0.101-0.068
		C83.082,111.811,83.098,111.726,83.06,111.648z M83.509,111.286c-0.041-0.105-0.076-0.156-0.157-0.145
		c-0.085-0.016-0.179,0.107-0.176,0.133c-0.027,0.004-0.024,0.03-0.02,0.058c0.049,0.159,0.117,0.261,0.206,0.304
		c0.027-0.004,0.027-0.004,0.054-0.007c0.027-0.004,0.078-0.038,0.101-0.069C83.565,111.5,83.578,111.388,83.509,111.286z"/>
	<path fill="#FFFFFF" d="M86.586,110.332c0,0,0.482,3.689,0.648,4.744c0,0,0.293,1.396-0.493,1.499
		c-0.597,0.078-0.923-1.149-0.923-1.149c-0.45-1.542-0.948-4.925-0.948-4.925c-0.304-2.113-0.486-4.352-0.605-5.468
		c-0.274-2.309,0.509-2.44,0.509-2.44s1.023-0.41,1.193,1.528C86.043,105.132,86.32,107.883,86.586,110.332z M85.588,110.932
		c0.054-0.007,0.105-0.042,0.125-0.099c0.071-0.092,0.08-0.231,0.012-0.332c-0.035-0.051-0.092-0.071-0.146-0.064
		c-0.109,0.014-0.173,0.16-0.166,0.215c0,0-0.027,0.004-0.023,0.031c0.045,0.132,0.086,0.237,0.171,0.254L85.588,110.932z
		 M85.936,111.272c-0.065-0.074-0.092-0.07-0.119-0.067c-0.081,0.011-0.125,0.099-0.125,0.099c0.004,0.027-0.024,0.031-0.024,0.031
		c0.018,0.135,0.079,0.183,0.137,0.202l0.027-0.004c0.027-0.004,0.078-0.038,0.101-0.069
		C85.957,111.435,85.973,111.35,85.936,111.272z M86.385,110.91c-0.041-0.105-0.076-0.156-0.157-0.145
		c-0.085-0.016-0.179,0.107-0.176,0.133c-0.027,0.004-0.024,0.03-0.02,0.058c0.049,0.159,0.117,0.261,0.206,0.304
		c0.027-0.004,0.027-0.004,0.054-0.007c0.027-0.004,0.078-0.038,0.101-0.069C86.441,111.124,86.453,111.011,86.385,110.91z"/>
	<path fill="#FFFFFF" d="M94.435,110.216c0,0,1.892,9.19-2.394,9.337c0,0-1.712,0.197-2.4-1.893c0,0-0.217-0.606,0.074-0.7
		c0.159-0.048,0.36,0.008,0.522,0.401c0.213,0.579,0.707,1.397,1.616,1.389c1.541-0.036,1.128-4.673,0.853-6.982
		c-0.389,1.458-1.122,3.237-2.479,3.415c-1.926,0.252-2.483-5.056-2.483-5.056s-0.181-1.384-0.238-2.453c0,0-0.118-1.751,0.75-1.864
		c0.919-0.147,1.007,1.58,1.04,2.045c0.038,0.712,0.123,1.363,0.206,2.208c0,0,0.366,4.064,0.977,4.094
		c0.693,0.02,1.879-2.508,1.814-5.122c-0.259-1.98-0.351-3.735,0.525-3.794c0,0,0.912-0.202,1.013,0.778
		C93.864,106.482,94.133,108.324,94.435,110.216z M88.465,110.776c-0.085-0.016-0.139-0.009-0.163,0.021
		c-0.101,0.068-0.083,0.204-0.049,0.255l0.004,0.027c0.072,0.128,0.16,0.172,0.215,0.165c0.027-0.004,0.027-0.004,0.027-0.004
		c0.054-0.007,0.098-0.095,0.114-0.181C88.602,110.979,88.557,110.847,88.465,110.776z M89.166,110.436
		c-0.099-0.125-0.293-0.127-0.293-0.127c-0.027,0.004-0.051,0.035-0.074,0.065c-0.064,0.147-0.046,0.282,0.022,0.384
		c0.038,0.078,0.123,0.094,0.205,0.084c0.081-0.011,0.155-0.076,0.168-0.188C89.238,110.564,89.227,110.483,89.166,110.436z
		 M89.153,111.183c-0.065-0.075-0.092-0.071-0.119-0.068c-0.081,0.011-0.125,0.099-0.125,0.099c0.004,0.027-0.024,0.03-0.024,0.03
		c0.018,0.136,0.079,0.183,0.137,0.203l0.027-0.004c0.027-0.004,0.078-0.037,0.102-0.069
		C89.171,111.318,89.19,111.26,89.153,111.183z M93.269,110.368c0.027-0.004,0.081-0.011,0.105-0.041
		c0.047-0.061,0.06-0.174,0.015-0.306c-0.038-0.078-0.099-0.125-0.181-0.114c-0.085-0.016-0.18,0.106-0.18,0.106
		c-0.023,0.031-0.02,0.058-0.02,0.058c0.052,0.187,0.12,0.288,0.206,0.304C93.241,110.372,93.269,110.368,93.269,110.368z
		 M93.817,110.766c-0.092-0.071-0.211-0.138-0.316-0.096c-0.078,0.037-0.098,0.095-0.121,0.126c0.014,0.108,0.137,0.202,0.167,0.226
		c0,0,0,0,0.027-0.004c0.058,0.02,0.112,0.013,0.14,0.009c0.081-0.011,0.105-0.041,0.128-0.072
		C93.889,110.894,93.855,110.843,93.817,110.766z M94.014,110.161c-0.065-0.074-0.092-0.07-0.119-0.067
		c-0.081,0.011-0.128,0.072-0.125,0.099c0.004,0.027-0.024,0.031-0.024,0.031c0.018,0.135,0.079,0.183,0.137,0.202l0.027-0.004
		c0.027-0.004,0.078-0.038,0.102-0.069C94.032,110.297,94.048,110.211,94.014,110.161z"/>
	<path fill="#FFFFFF" d="M100.032,117.418c0,0-0.341-0.494-0.042-0.716c0.307-0.28,0.698,0.281,0.698,0.281
		c0.518,0.698,1.197,0.709,1.197,0.709c1.696,0.132,2.39-5.563,2.39-5.563c0.385-2.606,0.759-5.539,0.892-6.643
		c0.216-2.068,1.328-1.579,1.328-1.579s0.806,0.149,0.439,2.639c-0.175,1.187-0.41,3.578-0.826,5.795c0,0-1.095,6.613-4.28,6.142
		C101.827,118.482,100.656,118.397,100.032,117.418z M104.744,111.754c0.016,0.091,0.098,0.132,0.156,0.141
		c0.029,0.004,0.029,0.004,0.029,0.004c0.087,0.013,0.187-0.061,0.228-0.143c0.042-0.083,0.055-0.17,0.034-0.232
		c-0.065-0.158-0.293-0.221-0.293-0.221c-0.029-0.004-0.062,0.02-0.066,0.049C104.725,111.484,104.674,111.625,104.744,111.754z
		 M104.877,113.459c-0.017-0.091-0.07-0.129-0.095-0.162c-0.112-0.046-0.249,0.082-0.282,0.106c0,0,0,0-0.004,0.029
		c-0.079,0.136-0.068,0.256-0.014,0.293c0.025,0.034,0.054,0.038,0.082,0.042c0.029,0.004,0.058,0.009,0.12-0.012
		C104.785,113.682,104.888,113.579,104.877,113.459z M104.99,112.292c-0.029-0.004-0.034,0.025-0.034,0.025
		c-0.054,0.17-0.005,0.236,0.019,0.269c0.029,0.004,0.058,0.009,0.058,0.009c0.058,0.009,0.087,0.013,0.12-0.012
		c0.067-0.049,0.137-0.128,0.092-0.223c-0.017-0.091-0.041-0.124-0.069-0.129C105.093,112.19,104.994,112.264,104.99,112.292z
		 M104.977,114.184c0.024,0.034,0.049,0.066,0.107,0.075c0,0,0,0,0.029,0.004c0.058,0.009,0.154-0.037,0.167-0.123
		c0.037-0.054,0.017-0.116,0.021-0.145c-0.049-0.067-0.17-0.055-0.203-0.03C104.964,114.064,104.956,114.122,104.977,114.184z
		 M105.362,113.176c0.024,0.033,0.078,0.071,0.136,0.079c0.087,0.013,0.182-0.032,0.257-0.14c0.071-0.079,0.084-0.165,0.034-0.232
		c-0.045-0.095-0.194-0.088-0.223-0.092c0,0-0.029-0.004-0.033,0.024C105.396,112.944,105.317,113.08,105.362,113.176z"/>
	<path fill="#FFFFFF" d="M109.129,109.502c0.528-0.573,1.135-1.075,2.364-0.983c2.925,0.432,1.862,5.423,1.862,5.423
		s-1.039,6.03-4.137,5.572c-3.011-0.445-2.338-5.404-2.338-5.404C107.417,110.284,109.129,109.502,109.129,109.502z
		 M107.501,113.314c-0.021,0.145,0.028,0.211,0.086,0.22c-0.004,0.029,0.025,0.034,0.025,0.034c0.029,0.004,0.091-0.017,0.124-0.041
		c0.037-0.054,0.079-0.137,0.059-0.199c-0.045-0.095-0.074-0.099-0.099-0.133c-0.087-0.013-0.157,0.066-0.162,0.095
		C107.506,113.285,107.501,113.314,107.501,113.314z M107.803,114.276c0.016,0.092,0.099,0.133,0.157,0.142l0.029,0.004
		c0.087,0.013,0.182-0.032,0.228-0.144c0.041-0.082,0.05-0.14,0.034-0.231c-0.065-0.158-0.268-0.188-0.297-0.192
		c-0.025-0.033-0.029-0.004-0.062,0.021C107.784,114.007,107.734,114.147,107.803,114.276z M108.225,113.421c0,0,0,0,0.029,0.004
		c0.037,0.153,0.115,0.224,0.173,0.232c0.029,0.004,0.029,0.004,0.029,0.004c0.058,0.009,0.124-0.041,0.137-0.127
		c0.046-0.112,0.039-0.261-0.04-0.331c-0.079-0.071-0.141-0.051-0.17-0.055C108.26,113.189,108.234,113.363,108.225,113.421z
		 M108.851,114.194c0,0-0.62,4.198,0.885,4.42c1.245,0.184,2.341-2.228,2.769-4.325c0.407-1.952,0.312-4.717-0.949-4.992
		c-1.207-0.237-1.688,0.816-1.688,0.816S109.242,111.145,108.851,114.194z"/>
	<path fill="#FFFFFF" d="M116.299,113.844c0,0-0.581,3.937-0.72,5.071c0,0-0.106,1.522-0.946,1.398
		c-0.637-0.094-0.614-1.452-0.614-1.452c-0.013-1.718,0.463-5.345,0.463-5.345c0.305-2.263,0.771-4.619,0.975-5.803
		c0.393-2.456,1.236-2.361,1.236-2.361s1.172-0.123,0.782,1.92C117.26,108.336,116.742,111.247,116.299,113.844z M115.097,114.17
		c0.058,0.009,0.12-0.012,0.157-0.066c0.099-0.074,0.15-0.215,0.109-0.338c-0.021-0.062-0.074-0.1-0.132-0.109
		c-0.116-0.017-0.224,0.115-0.233,0.172c0,0-0.029-0.004-0.033,0.025c0.007,0.149,0.019,0.269,0.102,0.311L115.097,114.17z
		 M115.356,114.622c-0.045-0.095-0.074-0.099-0.103-0.104c-0.087-0.013-0.157,0.065-0.157,0.065
		c-0.004,0.029-0.034,0.025-0.034,0.025c-0.021,0.145,0.028,0.211,0.082,0.248l0.029,0.004c0.029,0.004,0.091-0.016,0.124-0.041
		C115.33,114.796,115.372,114.713,115.356,114.622z M115.924,114.38c-0.012-0.12-0.032-0.182-0.119-0.195
		c-0.082-0.041-0.215,0.057-0.22,0.086c-0.029-0.004-0.034,0.024-0.038,0.054c0.004,0.178,0.044,0.303,0.122,0.373
		c0.029,0.004,0.029,0.004,0.058,0.009c0.029,0.004,0.091-0.017,0.124-0.041C115.919,114.617,115.965,114.505,115.924,114.38z"/>
	<path fill="#FFFFFF" d="M119.368,114.297c0,0-0.581,3.937-0.72,5.071c0,0-0.106,1.522-0.946,1.398
		c-0.637-0.094-0.614-1.452-0.614-1.452c-0.013-1.718,0.463-5.345,0.463-5.345c0.305-2.263,0.771-4.619,0.975-5.803
		c0.393-2.456,1.236-2.361,1.236-2.361s1.172-0.123,0.782,1.92C120.329,108.789,119.81,111.7,119.368,114.297z M118.166,114.623
		c0.058,0.009,0.12-0.012,0.157-0.066c0.099-0.074,0.15-0.215,0.109-0.338c-0.02-0.062-0.074-0.1-0.132-0.109
		c-0.116-0.017-0.224,0.115-0.233,0.172c0,0-0.029-0.004-0.033,0.025c0.007,0.149,0.019,0.269,0.102,0.311L118.166,114.623z
		 M118.425,115.075c-0.045-0.095-0.074-0.099-0.103-0.104c-0.087-0.013-0.157,0.065-0.157,0.065
		c-0.004,0.029-0.034,0.025-0.034,0.025c-0.021,0.145,0.028,0.211,0.082,0.248l0.029,0.004c0.029,0.004,0.091-0.016,0.124-0.041
		C118.399,115.249,118.44,115.166,118.425,115.075z M118.992,114.834c-0.012-0.12-0.032-0.182-0.119-0.195
		c-0.082-0.041-0.215,0.057-0.22,0.086c-0.029-0.004-0.034,0.024-0.038,0.054c0.004,0.178,0.044,0.303,0.122,0.373
		c0.029,0.004,0.029,0.004,0.058,0.009c0.029,0.004,0.091-0.017,0.124-0.041C118.987,115.07,119.033,114.958,118.992,114.834z"/>
	<path fill="#FFFFFF" d="M127.478,116.471c0,0-0.738,10.008-5.191,8.907c0,0-1.819-0.298-1.916-2.649c0,0-0.046-0.687,0.281-0.698
		c0.178-0.003,0.368,0.114,0.42,0.565c0.051,0.658,0.319,1.644,1.257,1.901c1.596,0.413,2.525-4.479,2.917-6.935
		c-0.826,1.386-2.1,3.003-3.548,2.789c-2.055-0.304-1.077-5.928-1.077-5.928s0.218-1.477,0.472-2.593c0,0,0.39-1.836,1.316-1.699
		c0.989,0.117,0.574,1.92,0.473,2.408c-0.169,0.744-0.272,1.439-0.433,2.332c0,0-0.81,4.288-0.191,4.498
		c0.707,0.223,2.666-2.032,3.362-4.74c0.312-2.113,0.73-3.945,1.648-3.75c0,0,0.997,0.059,0.815,1.096
		C127.98,112.462,127.719,114.436,127.478,116.471z M121.171,115.303c-0.082-0.041-0.14-0.05-0.174-0.026
		c-0.124,0.041-0.145,0.186-0.125,0.248l-0.004,0.029c0.037,0.153,0.115,0.224,0.173,0.232c0.029,0.004,0.029,0.004,0.029,0.004
		c0.058,0.009,0.129-0.069,0.17-0.152C121.253,115.552,121.245,115.403,121.171,115.303z M121.991,115.158
		c-0.066-0.157-0.264-0.217-0.264-0.217c-0.029-0.004-0.062,0.021-0.095,0.045c-0.109,0.132-0.13,0.277-0.089,0.401
		c0.017,0.091,0.099,0.133,0.186,0.146s0.182-0.032,0.228-0.144C122.028,115.311,122.041,115.224,121.991,115.158z M121.76,115.923
		c-0.045-0.096-0.074-0.1-0.103-0.104c-0.087-0.013-0.157,0.066-0.157,0.066c-0.004,0.029-0.034,0.024-0.034,0.024
		c-0.021,0.145,0.028,0.212,0.082,0.249l0.029,0.004c0.029,0.004,0.091-0.016,0.124-0.041
		C121.739,116.067,121.776,116.014,121.76,115.923z M126.233,116.287c0.029,0.004,0.087,0.013,0.12-0.012
		c0.067-0.049,0.112-0.161,0.105-0.31c-0.017-0.091-0.066-0.157-0.152-0.17c-0.083-0.042-0.216,0.057-0.216,0.057
		c-0.033,0.025-0.037,0.054-0.037,0.054c-0.001,0.207,0.039,0.332,0.122,0.373C126.203,116.283,126.233,116.287,126.233,116.287z
		 M126.681,116.856c-0.074-0.099-0.177-0.204-0.297-0.192c-0.091,0.016-0.129,0.069-0.162,0.095
		c-0.017,0.115,0.082,0.248,0.106,0.282c0,0,0,0,0.029,0.004c0.054,0.037,0.112,0.046,0.141,0.05
		c0.087,0.013,0.12-0.012,0.153-0.037C126.718,117.009,126.697,116.947,126.681,116.856z M127.06,116.291
		c-0.045-0.095-0.074-0.099-0.103-0.104c-0.087-0.013-0.153,0.037-0.157,0.065c-0.004,0.029-0.034,0.025-0.034,0.025
		c-0.021,0.145,0.028,0.211,0.082,0.248l0.029,0.004c0.029,0.004,0.091-0.016,0.124-0.041
		C127.039,116.436,127.081,116.353,127.06,116.291z"/>
	<path fill="#FFFFFF" d="M86.799,133.516c0,0-0.287-10.357,3.201-10.357c3.236,0,2.841,7.336,2.841,7.336s0.683-7.156,2.769-7.336
		c3.992-0.324,3.38,10.357,3.38,10.357s-0.144,4.531-0.539,6.58c0,0-0.252,1.655-1.114,1.655c-1.079,0-0.863-1.655-0.863-1.655
		c0.071-1.438,0.143-6.545,0.143-6.545s0.072-8.702-0.97-8.739c-1.331-0.072-2.158,9.745-2.158,9.745
		c-0.072,1.834-1.151,1.69-1.151,1.69c-1.115-0.036-1.008-1.51-1.008-1.51c-0.071-10.321-1.366-10.645-1.366-10.645
		c-2.086,0.144-2.05,9.494-2.05,9.494c0,2.445,0.036,4.89,0.18,7.372c0,0,0.144,0.791-0.359,0.791
		c-0.504,0.036-0.539-0.683-0.539-0.683C86.908,138.55,86.836,136.032,86.799,133.516z M91.834,133.372
		c0.036,0.036,0.108,0.072,0.18,0.072c0.108,0,0.252-0.072,0.324-0.216c0.036-0.108,0.036-0.216,0-0.288
		c-0.108-0.108-0.288-0.072-0.324-0.072c0,0-0.036,0-0.036,0.036C91.834,133.084,91.799,133.263,91.834,133.372z M92.158,134.379
		c-0.036,0-0.036,0.036-0.072,0.036c-0.108,0.216-0.108,0.396-0.036,0.539c0.072,0.072,0.144,0.144,0.252,0.144
		c0.144-0.036,0.216-0.108,0.288-0.216c0.036-0.108,0.036-0.215-0.036-0.287C92.446,134.414,92.194,134.379,92.158,134.379z
		 M92.769,134.163c0,0,0.036,0,0.072,0c0.036,0,0.072,0,0.108-0.036c0.072-0.072,0.143-0.18,0.108-0.288
		c-0.036-0.108-0.108-0.144-0.144-0.144c-0.108,0-0.18,0.108-0.216,0.108c0,0.036,0,0.036,0,0.036
		C92.662,134.055,92.697,134.127,92.769,134.163z M97.085,133.048c0.071,0.072,0.143,0.143,0.252,0.143
		c0.144-0.036,0.216-0.108,0.288-0.215c0.036-0.108,0.036-0.216-0.036-0.288c-0.108-0.18-0.36-0.216-0.395-0.216
		c0,0-0.036,0.036-0.072,0.036C97.013,132.724,97.013,132.904,97.085,133.048z M97.553,135.098c-0.036-0.144-0.108-0.18-0.144-0.18
		c-0.144-0.036-0.288,0.108-0.323,0.18c0,0,0,0,0,0.036c-0.072,0.18-0.036,0.323,0.036,0.359c0.036,0.036,0.072,0.036,0.108,0.036
		s0.108,0,0.144-0.072C97.481,135.385,97.588,135.241,97.553,135.098z M97.481,133.66c0,0,0,0.036-0.036,0.036
		c0,0.216,0.036,0.288,0.108,0.323c0,0,0.036,0,0.072,0c0.036,0,0.071,0,0.108-0.036c0.072-0.072,0.144-0.18,0.108-0.288
		c-0.036-0.108-0.108-0.144-0.144-0.144C97.588,133.516,97.516,133.623,97.481,133.66z M97.912,135.673
		c-0.144,0.144-0.108,0.216-0.108,0.288c0.036,0.036,0.072,0.071,0.144,0.071c0.036,0,0.036,0,0.036,0
		c0.072,0,0.18-0.071,0.216-0.18c0.036-0.072,0-0.144-0.036-0.18c-0.072-0.072-0.18-0.036-0.216,0
		C97.912,135.673,97.912,135.673,97.912,135.673z M98.092,134.666c0.036,0.036,0.108,0.072,0.18,0.072
		c0.108,0,0.252-0.072,0.323-0.216c0.036-0.108,0.036-0.216,0-0.288c-0.108-0.108-0.288-0.072-0.323-0.072c0,0-0.036,0-0.036,0.036
		C98.092,134.379,98.056,134.558,98.092,134.666z"/>
	<path fill="#FFFFFF" d="M102.91,135.601c0,0.97,0,4.998,1.439,5.034c0,0,1.762,0.18,2.337-2.409c0,0,0.144-0.791,0.611-0.683
		c0.504,0.072,0.252,1.115,0.252,1.115c-0.898,3.272-3.632,3.092-3.632,3.092c-3.632-0.072-3.416-6.221-3.416-6.221
		s-0.144-7.3,3.56-7.552c0,0,1.474-0.18,1.834,1.115C106.327,130.638,105.679,134.594,102.91,135.601z M101.22,134.414h0.036
		c0.072,0,0.108,0,0.144-0.036c0.072-0.072,0.108-0.18,0.072-0.251c-0.072-0.108-0.108-0.144-0.144-0.144
		c-0.108,0-0.18,0.108-0.18,0.108c-0.036,0.036-0.036,0.036-0.036,0.036C101.112,134.307,101.148,134.379,101.22,134.414z
		 M101.903,135.206c-0.036-0.108-0.108-0.18-0.216-0.216c-0.18-0.072-0.395,0.072-0.395,0.072c-0.036,0.036-0.036,0.036-0.036,0.072
		c0.036,0.252,0.144,0.395,0.288,0.467c0,0,0.036,0,0.072,0c0.072,0,0.144-0.036,0.216-0.072
		C101.903,135.457,101.939,135.313,101.903,135.206z M102.263,134.307c-0.072-0.072-0.108-0.108-0.18-0.108
		c-0.144,0-0.252,0.18-0.287,0.215c0,0.036,0,0.036,0,0.036c0,0.216,0.071,0.323,0.143,0.36c0.036,0.036,0.036,0.036,0.072,0.036
		c0.072,0,0.108-0.036,0.18-0.108C102.263,134.63,102.335,134.451,102.263,134.307z M102.946,134.594
		c0.792-0.395,1.691-1.511,2.05-3.417c0.467-2.409-0.647-2.302-0.647-2.302C103.414,129.02,103.054,132.904,102.946,134.594z"/>
	<path fill="#FFFFFF" d="M115.353,132.473c0.108,0.072,0.144,0.216,0.072,0.323c-0.072,0.144-0.18,0.252-0.504,0.18
		c-0.503-0.144-1.33-0.611-1.438-2.23c-0.036-0.288,0-0.504-0.072-0.611c0,0-1.079-1.367-2.626,9.745c0,0,0.144,1.87-0.898,1.87
		c-0.792,0-1.007-1.655-1.007-1.655c-0.324-2.086-0.396-6.58-0.396-6.58c0-1.187,0-2.302,0.036-3.417c0,0,0-2.122,1.258-2.122
		c1.187,0,1.079,2.194,1.079,2.194c-0.036,1.151-0.072,2.266-0.108,3.417c0,0,0,0.252,0,0.683c0.539-2.733,1.439-5.933,2.805-6.041
		c0,0,1.151-0.108,1.438,1.69C115.245,131.501,115.101,132.221,115.353,132.473z M109.383,134.27
		c-0.036-0.108-0.108-0.108-0.144-0.108c-0.108,0-0.144,0.072-0.18,0.108v0.036c0,0.18,0.072,0.251,0.108,0.288
		c0.036,0,0.036,0,0.072,0c0.036,0,0.072-0.036,0.108-0.072C109.419,134.451,109.455,134.342,109.383,134.27z M109.959,135.278
		c-0.108-0.072-0.18-0.036-0.216,0c-0.144,0.072-0.144,0.252-0.108,0.323c0,0,0,0,0,0.036c0.072,0.144,0.18,0.252,0.288,0.252
		c0.072-0.036,0.144-0.108,0.18-0.216C110.103,135.529,110.066,135.35,109.959,135.278z M110.354,134.199
		c-0.108-0.18-0.395-0.216-0.395-0.216c-0.036,0-0.072,0.036-0.072,0.036c-0.144,0.216-0.144,0.395-0.072,0.539
		c0.072,0.072,0.144,0.144,0.252,0.144c0.144,0,0.216-0.108,0.288-0.216C110.39,134.379,110.39,134.27,110.354,134.199z
		 M110.965,135.169c-0.036-0.072-0.072-0.108-0.144-0.108s-0.144,0.108-0.18,0.144v0.036c0,0.18,0.072,0.251,0.108,0.251
		s0.036,0.036,0.072,0.036c0.036,0,0.072-0.036,0.108-0.072C111.001,135.385,111.037,135.278,110.965,135.169z"/>
	<path fill="#FFFFFF" d="M123.516,132.473c0.108,0.072,0.144,0.216,0.072,0.323c-0.072,0.144-0.18,0.252-0.504,0.18
		c-0.503-0.144-1.33-0.611-1.438-2.23c-0.036-0.288,0-0.504-0.072-0.611c0,0-1.079-1.367-2.626,9.745c0,0,0.144,1.87-0.898,1.87
		c-0.792,0-1.007-1.655-1.007-1.655c-0.324-2.086-0.396-6.58-0.396-6.58c0-1.187,0-2.302,0.036-3.417c0,0,0-2.122,1.258-2.122
		c1.187,0,1.079,2.194,1.079,2.194c-0.036,1.151-0.072,2.266-0.108,3.417c0,0,0,0.252,0,0.683c0.539-2.733,1.439-5.933,2.805-6.041
		c0,0,1.151-0.108,1.438,1.69C123.409,131.501,123.265,132.221,123.516,132.473z M117.546,134.27
		c-0.036-0.108-0.108-0.108-0.144-0.108c-0.108,0-0.144,0.072-0.18,0.108v0.036c0,0.18,0.072,0.251,0.108,0.288
		c0.036,0,0.036,0,0.072,0c0.036,0,0.072-0.036,0.108-0.072C117.583,134.451,117.618,134.342,117.546,134.27z M118.122,135.278
		c-0.108-0.072-0.18-0.036-0.216,0c-0.144,0.072-0.144,0.252-0.108,0.323c0,0,0,0,0,0.036c0.072,0.144,0.18,0.252,0.288,0.252
		c0.072-0.036,0.144-0.108,0.18-0.216C118.266,135.529,118.23,135.35,118.122,135.278z M118.518,134.199
		c-0.108-0.18-0.395-0.216-0.395-0.216c-0.036,0-0.072,0.036-0.072,0.036c-0.144,0.216-0.144,0.395-0.072,0.539
		c0.072,0.072,0.144,0.144,0.252,0.144c0.144,0,0.216-0.108,0.288-0.216C118.553,134.379,118.553,134.27,118.518,134.199z
		 M119.129,135.169c-0.036-0.072-0.072-0.108-0.144-0.108s-0.144,0.108-0.18,0.144v0.036c0,0.18,0.072,0.251,0.108,0.251
		s0.036,0.036,0.072,0.036c0.036,0,0.072-0.036,0.108-0.072C119.165,135.385,119.201,135.278,119.129,135.169z"/>
	<path fill="#FFFFFF" d="M133.513,135.477c0,0,0.899,13.571-4.711,12.976c0,0-2.265-0.039-2.805-3.174c0,0-0.18-0.913,0.216-0.992
		c0.216-0.039,0.467,0.079,0.611,0.675c0.18,0.873,0.683,2.143,1.87,2.301c2.014,0.238,2.266-6.508,2.302-9.88
		c-0.755,2.023-2.014,4.444-3.812,4.444c-2.553,0-2.373-7.738-2.373-7.738s0-2.024,0.108-3.572c0,0,0.144-2.54,1.295-2.54
		c1.223-0.039,1.042,2.461,1.007,3.136c-0.072,1.032-0.072,1.984-0.108,3.213c0,0-0.215,5.913,0.576,6.072
		c0.899,0.159,2.877-3.254,3.236-7.024c0-2.897,0.18-5.436,1.33-5.357c0,0,1.223-0.119,1.187,1.309
		C133.405,130.001,133.441,132.699,133.513,135.477z M125.637,135.16c-0.108-0.039-0.18-0.039-0.216,0
		c-0.143,0.079-0.143,0.278-0.108,0.358v0.039c0.072,0.198,0.18,0.278,0.252,0.278c0.036,0,0.036,0,0.036,0
		c0.072,0,0.144-0.119,0.18-0.238C125.781,135.477,125.746,135.279,125.637,135.16z M126.609,134.803
		c-0.108-0.198-0.36-0.238-0.36-0.238c-0.036,0-0.072,0.04-0.108,0.079c-0.108,0.199-0.108,0.397-0.036,0.556
		c0.036,0.119,0.144,0.159,0.252,0.159s0.215-0.079,0.252-0.238C126.681,135.001,126.681,134.882,126.609,134.803z M126.465,135.874
		c-0.072-0.12-0.108-0.12-0.144-0.12c-0.108,0-0.18,0.12-0.18,0.12c0,0.039-0.036,0.039-0.036,0.039
		c0,0.199,0.072,0.278,0.144,0.318h0.036c0.036,0,0.108-0.039,0.144-0.079C126.465,136.073,126.5,135.993,126.465,135.874z
		 M131.967,135.477c0.036,0,0.108,0,0.144-0.039c0.072-0.079,0.108-0.238,0.072-0.437c-0.036-0.119-0.108-0.198-0.216-0.198
		c-0.108-0.039-0.252,0.119-0.252,0.119c-0.036,0.04-0.036,0.079-0.036,0.079c0.036,0.278,0.108,0.437,0.216,0.477
		C131.931,135.477,131.967,135.477,131.967,135.477z M132.614,136.152c-0.108-0.119-0.252-0.238-0.395-0.198
		c-0.108,0.039-0.144,0.119-0.18,0.159c0,0.158,0.144,0.317,0.18,0.357c0,0,0,0,0.036,0c0.072,0.039,0.144,0.039,0.18,0.039
		c0.108,0,0.144-0.039,0.18-0.079C132.686,136.35,132.65,136.271,132.614,136.152z M132.974,135.319
		c-0.072-0.119-0.108-0.119-0.144-0.119c-0.108,0-0.18,0.079-0.18,0.119c0,0.04-0.036,0.04-0.036,0.04
		c0,0.198,0.072,0.278,0.144,0.317h0.036c0.036,0,0.108-0.039,0.143-0.079C132.974,135.518,133.009,135.398,132.974,135.319z"/>
	<path fill="#FFFFFF" d="M88.312,154.698c-0.453-6.006,2.642-6.893,2.642-6.893s0.987-0.368,1.758,0.15c0,0,0.228,0.15,0.15,0.342
		c-0.049,0.214-0.31,0.198-0.448,0.139c-0.083-0.041-0.627-0.226-1.166,0.003c-0.59,0.236-1.663,1.497-1.192,6.307
		c0,0,0.258,5.333,2.089,5.447c1.515,0.08,2.072-1.163,2.242-1.627c0,0,0.093-0.272,0.358-0.231
		c0.269,0.067,0.109,0.608,0.109,0.608c-0.731,2.07-2.754,2.059-2.754,2.059C88.668,161.132,88.312,154.698,88.312,154.698z
		 M88.818,155.174c0.032,0.048,0.116,0.088,0.167,0.081c0.025-0.003,0.025-0.003,0.025-0.003c0.073-0.036,0.143-0.097,0.157-0.177
		c0.041-0.084,0.005-0.156-0.028-0.204c-0.093-0.117-0.275-0.118-0.301-0.115c-0.025,0.003-0.022,0.029-0.047,0.033
		C88.736,154.951,88.727,155.082,88.818,155.174z M89.346,156.579c-0.04-0.098-0.093-0.117-0.119-0.113
		c-0.105-0.012-0.193,0.104-0.212,0.158c0,0,0,0,0.004,0.026c-0.034,0.134,0.005,0.233,0.06,0.251
		c0.029,0.022,0.054,0.019,0.08,0.015c0.025-0.003,0.076-0.01,0.095-0.065C89.322,156.79,89.385,156.678,89.346,156.579z
		 M89.389,155.562c-0.01-0.076-0.065-0.095-0.09-0.092c-0.08-0.015-0.146,0.072-0.142,0.097c-0.025,0.003-0.022,0.029-0.022,0.029
		c-0.005,0.156,0.053,0.2,0.082,0.222c0.026-0.003,0.051-0.007,0.051-0.007c0.051-0.007,0.077-0.01,0.098-0.039
		C89.41,155.715,89.45,155.632,89.389,155.562z M89.834,156.928c-0.058-0.044-0.156-0.005-0.153,0.021
		c-0.025,0.003-0.025,0.003-0.025,0.003c-0.088,0.116-0.081,0.167-0.049,0.214c0.029,0.022,0.058,0.043,0.109,0.037l0.026-0.003
		c0.051-0.007,0.12-0.068,0.135-0.148C89.87,157.001,89.837,156.953,89.834,156.928z M90.003,156.076
		c0.041-0.084,0.03-0.16-0.002-0.207c-0.087-0.066-0.211-0.023-0.237-0.02c0,0-0.025,0.003-0.022,0.029
		c-0.085,0.141-0.093,0.271-0.057,0.345c0.029,0.022,0.083,0.041,0.134,0.034C89.897,156.246,89.966,156.184,90.003,156.076z"/>
	<path fill="#FFFFFF" d="M95.861,159.299c-0.43-1.445-0.913-4.621-0.913-4.621c-0.295-1.983-0.477-4.084-0.593-5.132
		c-0.268-2.167,0.466-2.293,0.466-2.293s0.959-0.39,1.128,1.429c0.077,0.949,0.35,3.531,0.611,5.829c0,0,0.121,0.891,0.259,1.91
		c0.278-2.346,0.848-5.976,1.9-6.249c1.681-0.41,2.04,1.849,2.193,3.359c0.125,1.305,0.495,4.211,0.595,4.95
		c0.057,0.614-0.02,1.195-0.445,1.305c-0.451,0.113-0.99-0.229-1.27-1.902c-0.417-2.303-0.495-6.701-1.03-6.628
		c-0.513,0.044-1.412,4.496-1.517,8.115c0.005,0.415-0.054,0.941-0.512,1.003C96.173,160.449,95.861,159.299,95.861,159.299z
		 M95.715,155.74c0.076-0.01,0.124-0.043,0.142-0.097c0.044-0.058,0.059-0.138-0.005-0.233c-0.036-0.073-0.093-0.117-0.148-0.136
		c-0.156-0.004-0.27,0.115-0.292,0.143c-0.025,0.003-0.022,0.029-0.018,0.054c0.071,0.146,0.165,0.263,0.271,0.275
		C95.689,155.744,95.715,155.74,95.715,155.74z M95.724,154.857c0.003,0.025,0.003,0.025,0.003,0.025
		c0.094,0.117,0.151,0.161,0.228,0.151c0,0,0,0,0.025-0.003c0.051-0.007,0.07-0.061,0.085-0.142c0.012-0.105-0.031-0.229-0.14-0.266
		c-0.083-0.041-0.134-0.034-0.156-0.004C95.7,154.679,95.721,154.832,95.724,154.857z M96.099,155.325
		c0.004,0.026,0.004,0.026,0.004,0.026c0.017,0.127,0.075,0.171,0.104,0.193c0.026-0.004,0.026-0.004,0.026-0.004
		c0.05-0.007,0.073-0.036,0.094-0.065c0.048-0.032,0.037-0.108,0.002-0.182c-0.036-0.073-0.087-0.066-0.112-0.062
		C96.14,155.242,96.125,155.321,96.099,155.325z M100.01,154.716c0.003,0.025,0.029,0.022,0.029,0.022
		c0.051-0.007,0.098-0.039,0.117-0.094c0.066-0.087,0.074-0.218,0.009-0.313c-0.033-0.047-0.087-0.066-0.138-0.059
		c-0.102,0.014-0.136,0.148-0.154,0.202C99.894,154.628,99.93,154.701,100.01,154.716z M100.255,154.994
		c-0.077,0.01-0.095,0.065-0.117,0.094c0.003,0.025,0.003,0.025,0.003,0.025c0.017,0.128,0.075,0.172,0.104,0.193
		c0.025-0.003,0.025-0.003,0.025-0.003c0.051-0.007,0.073-0.036,0.095-0.065c0.044-0.058,0.059-0.137,0.001-0.182
		C100.331,154.983,100.28,154.99,100.255,154.994z M100.478,154.73c0.024,0.178,0.115,0.27,0.194,0.285
		c0.003,0.025,0.029,0.022,0.029,0.022c0.05-0.007,0.073-0.036,0.094-0.065c0.044-0.058,0.056-0.163,0.013-0.287
		c-0.036-0.073-0.093-0.117-0.144-0.11c-0.105-0.012-0.168,0.1-0.19,0.13C100.475,154.705,100.453,154.733,100.478,154.73z"/>
	<path fill="#FFFFFF" d="M106.865,152.306c0.083,0.041,0.123,0.139,0.082,0.222c-0.037,0.109-0.103,0.196-0.339,0.176
		c-0.37-0.054-1.001-0.305-1.232-1.44c-0.053-0.2-0.048-0.357-0.11-0.426c0,0-0.895-0.864-0.922,7.153c0,0,0.282,1.31-0.456,1.41
		c-0.561,0.076-0.872-1.075-0.872-1.075c-0.43-1.445-0.913-4.621-0.913-4.621c-0.114-0.841-0.221-1.63-0.303-2.423
		c0,0-0.204-1.502,0.687-1.623c0.841-0.114,0.975,1.45,0.975,1.45c0.085,0.818,0.167,1.611,0.252,2.429c0,0,0.024,0.178,0.066,0.483
		c0.119-1.987,0.448-4.339,1.405-4.547c0,0,0.804-0.187,1.181,1.058C106.695,151.629,106.663,152.153,106.865,152.306z
		 M102.811,154.154c-0.036-0.073-0.087-0.066-0.112-0.062c-0.076,0.01-0.095,0.065-0.117,0.093l0.004,0.026
		c0.017,0.127,0.075,0.171,0.104,0.193c0.026-0.003,0.026-0.003,0.051-0.007c0.026-0.004,0.047-0.033,0.07-0.061
		C102.854,154.278,102.869,154.198,102.811,154.154z M103.316,154.812c-0.084-0.041-0.131-0.008-0.153,0.021
		c-0.095,0.065-0.078,0.192-0.046,0.239c0,0,0,0,0.003,0.025c0.065,0.095,0.152,0.161,0.228,0.151
		c0.047-0.033,0.091-0.091,0.107-0.17C103.442,154.976,103.399,154.852,103.316,154.812z M103.492,154.01
		c-0.094-0.117-0.301-0.115-0.301-0.115c-0.026,0.003-0.048,0.032-0.048,0.032c-0.081,0.167-0.064,0.294,0.001,0.389
		c0.058,0.044,0.116,0.088,0.192,0.078c0.102-0.014,0.143-0.097,0.183-0.181C103.534,154.133,103.524,154.057,103.492,154.01z
		 M104.018,154.638c-0.033-0.047-0.061-0.069-0.112-0.062s-0.092,0.09-0.113,0.119l0.003,0.025c0.017,0.128,0.075,0.171,0.1,0.168
		s0.029,0.022,0.054,0.019s0.047-0.033,0.069-0.061C104.064,154.787,104.08,154.708,104.018,154.638z"/>
	<path fill="#FFFFFF" d="M109.667,158.616c-0.561,0.076-0.872-1.075-0.872-1.075c-0.43-1.445-0.913-4.621-0.913-4.621
		c-0.114-0.84-0.221-1.63-0.303-2.423c0,0-0.204-1.502,0.687-1.623c0.841-0.114,0.975,1.45,0.975,1.45
		c0.085,0.818,0.167,1.611,0.252,2.429c0,0,0.47,3.462,0.631,4.452C110.123,157.206,110.405,158.516,109.667,158.616z
		 M108.631,153.856c-0.084-0.041-0.131-0.008-0.156-0.004c-0.07,0.061-0.049,0.214-0.042,0.265c0,0,0,0,0.003,0.025
		c0.091,0.091,0.148,0.136,0.225,0.125c0.077-0.01,0.095-0.065,0.11-0.144C108.783,154.017,108.74,153.893,108.631,153.856z
		 M107.632,148.028c-0.042-0.306,0.156-0.566,0.436-0.604c0.28-0.038,0.541,0.16,0.582,0.466c0.038,0.28-0.16,0.54-0.44,0.578
		C107.93,148.506,107.67,148.308,107.632,148.028z M108.935,153.607c0.025-0.003,0.073-0.036,0.095-0.065
		c0.095-0.065,0.128-0.199,0.089-0.297c-0.036-0.073-0.09-0.092-0.116-0.088c-0.105-0.012-0.19,0.13-0.215,0.133
		c0.003,0.025,0.003,0.025,0.003,0.025c-0.005,0.156,0.005,0.233,0.063,0.277C108.884,153.614,108.909,153.611,108.935,153.607z
		 M109.029,154.113c0.017,0.127,0.075,0.171,0.126,0.164c0.003,0.026,0.029,0.022,0.029,0.022c0.025-0.003,0.073-0.036,0.094-0.065
		c0.019-0.054,0.034-0.134,0.002-0.182c-0.061-0.07-0.09-0.092-0.116-0.088c-0.076,0.01-0.117,0.093-0.113,0.119L109.029,154.113z"
		/>
	<path fill="#FFFFFF" d="M113.536,158.09c0,0-1.687,0.177-2.177-1.52c0,0-0.161-0.419,0.16-0.54c0.295-0.118,0.47,0.403,0.47,0.403
		c0.225,0.514,0.585,1.062,1.432,0.999c0,0,0.945-0.103,0.718-1.394c-0.146-0.887-1.304-1.586-1.391-1.652
		c0,0-2.175-1.312-2.374-2.97c0,0-0.472-2.711,2.038-3.13c0,0,2.293-0.493,2.766,2.036c0,0,0.078,0.378-0.301,0.455
		c-0.28,0.038-0.379-0.311-0.379-0.311c-0.074-0.353-0.249-0.874-0.606-1.215c-0.242-0.252-0.728-0.394-1.176-0.255
		c0,0-1.042,0.349-0.696,1.936c0,0,0.128,0.942,1.537,2.151c1.409,1.209,1.903,1.79,1.986,2.971
		C115.542,156.055,115.638,157.909,113.536,158.09z M112.256,153.052c-0.061-0.07-0.087-0.066-0.112-0.063
		c-0.077,0.01-0.121,0.068-0.117,0.094c0.003,0.025-0.022,0.029-0.022,0.029c0.017,0.128,0.075,0.172,0.13,0.19l0.025-0.003
		c0.026-0.004,0.073-0.036,0.095-0.065C112.273,153.179,112.291,153.125,112.256,153.052z M112.51,153.018
		c0.065,0.095,0.152,0.161,0.203,0.154c0.025-0.003,0.025-0.003,0.025-0.003c0.048-0.032,0.092-0.09,0.106-0.17
		c-0.014-0.102-0.056-0.226-0.139-0.266c-0.084-0.041-0.131-0.008-0.153,0.021c-0.095,0.065-0.078,0.192-0.046,0.239
		C112.507,152.992,112.507,152.992,112.51,153.018z M112.997,153.548c-0.091-0.091-0.272-0.093-0.297-0.09
		c-0.026,0.004-0.026,0.004-0.047,0.033c-0.059,0.138-0.064,0.294-0.003,0.363c0.061,0.07,0.116,0.088,0.192,0.078l0.026-0.003
		c0.076-0.01,0.145-0.072,0.157-0.177C113.04,153.672,113.033,153.621,112.997,153.548z M113.232,153.179
		c-0.058-0.043-0.087-0.066-0.112-0.062l-0.025,0.003c-0.051,0.007-0.092,0.09-0.088,0.116c-0.026,0.003-0.022,0.029-0.022,0.029
		c0.017,0.128,0.075,0.172,0.126,0.165l0.029,0.022c0.025-0.003,0.073-0.036,0.095-0.065
		C113.253,153.331,113.268,153.252,113.232,153.179z"/>
	<path fill="#FFFFFF" d="M118.483,146.398c0.009,0.258-0.42,0.342-0.573,0.363c-0.051,0.007-0.229,0.031-0.48,0.091
		c0.141,1.226,0.339,3.066,0.542,4.75c0,0,0.445,3.466,0.605,4.456c0,0,0.282,1.31-0.456,1.41c-0.561,0.076-0.847-1.078-0.847-1.078
		c-0.43-1.446-0.913-4.621-0.913-4.621c-0.29-1.75-0.433-3.572-0.564-4.721c-0.305,0.041-0.56,0.076-0.637,0.087
		c-0.203,0.028-0.596,0.003-0.605-0.255c-0.009-0.258,0.417-0.368,0.569-0.389c0.051-0.007,0.306-0.042,0.611-0.083
		c-0.215-1.967,0.472-2.061,0.472-2.061s0.984-0.393,1.128,1.429c0.014,0.102,0.035,0.254,0.03,0.411
		c0.254-0.035,0.458-0.062,0.509-0.069C118.078,146.089,118.471,146.114,118.483,146.398z M116.829,152.353
		c0.032,0.048,0.109,0.037,0.16,0.03c0.025-0.003,0.05-0.007,0.076-0.01c0.073-0.036,0.117-0.093,0.136-0.148
		c0.03-0.16-0.092-0.299-0.092-0.299c-0.029-0.022-0.054-0.018-0.054-0.018c-0.175,0.049-0.266,0.14-0.303,0.249
		C116.735,152.236,116.771,152.309,116.829,152.353z M117.219,152.741c-0.084-0.041-0.135-0.034-0.156-0.004
		c-0.095,0.065-0.074,0.218-0.045,0.239c0.004,0.026,0.004,0.026,0.004,0.026c0.068,0.12,0.151,0.161,0.202,0.154
		c0.025-0.003,0.025-0.003,0.025-0.003c0.051-0.007,0.095-0.065,0.11-0.144C117.345,152.906,117.302,152.781,117.219,152.741z
		 M117.547,152.489c0.026-0.004,0.073-0.036,0.095-0.065c0.07-0.061,0.129-0.199,0.09-0.298c-0.036-0.073-0.09-0.091-0.116-0.088
		c-0.105-0.012-0.193,0.104-0.215,0.132c0.004,0.026,0.004,0.026,0.004,0.026c-0.03,0.16,0.005,0.233,0.063,0.277
		C117.493,152.47,117.522,152.493,117.547,152.489z M117.886,152.884c-0.036-0.073-0.091-0.091-0.116-0.088
		c-0.077,0.01-0.092,0.09-0.114,0.119l0.003,0.025c0.017,0.127,0.075,0.171,0.101,0.168c0.029,0.022,0.029,0.022,0.054,0.019
		s0.047-0.033,0.069-0.061C117.929,153.008,117.944,152.928,117.886,152.884z"/>
	<path fill="#FFFFFF" d="M104.919,161.562c0.776-0.023,0.662,1.416,0.639,1.804c-0.046,0.593-0.046,1.141-0.091,1.849
		c0,0,0,0.046,0,0.137c0.365-1.37,0.982-3.196,1.644-3.356c0,0,1.529-0.502,1.461,2.374c0.502-1.461,1.096-2.739,1.712-2.808
		c1.507-0.16,1.575,1.872,1.529,3.219c-0.046,1.164-0.068,3.767-0.091,4.429c0,0.548-0.137,1.05-0.548,1.096
		c-0.388,0.046-0.822-0.32-0.89-1.827c-0.069-2.077,0.388-5.958-0.114-5.958c-0.32,0-1.164,2.055-1.781,4.292
		c-0.114,0.571-0.297,1.027-0.617,1.05c0,0-0.776,0.205-0.662-1.735c0.091-1.735,0.091-3.265-0.091-3.31
		c-0.16-0.068-1.347,3.196-1.552,5.776c0,0.205,0,0.388,0,0.525c0,0,0.091,1.187-0.548,1.187c-0.525,0-0.639-1.05-0.639-1.05
		c-0.206-1.324-0.252-4.177-0.252-4.177s0-1.164,0.069-2.055C104.097,163.023,104.188,161.562,104.919,161.562z M104.713,165.329
		c0.023,0.137,0.091,0.251,0.206,0.274c0,0,0.023,0,0.046,0c0.046,0,0.091-0.023,0.114-0.068c0.068-0.046,0.068-0.114,0.046-0.205
		c-0.046-0.069-0.068-0.114-0.137-0.137c-0.114-0.023-0.251,0.068-0.274,0.091C104.713,165.283,104.69,165.306,104.713,165.329z
		 M105.124,165.968c-0.068-0.023-0.114-0.023-0.137,0c-0.068,0.046-0.068,0.16-0.068,0.205v0.023c0.068,0.114,0.114,0.16,0.182,0.16
		c0,0,0,0,0.023,0c0.046,0,0.091-0.046,0.091-0.114C105.238,166.151,105.215,166.036,105.124,165.968z M107.59,165.763
		c0,0.114,0.045,0.16,0.068,0.16s0.023,0.023,0.046,0.023c0.023,0,0.046-0.023,0.068-0.045c0.046-0.046,0.069-0.114,0.023-0.183
		c-0.023-0.046-0.069-0.069-0.091-0.069c-0.069,0-0.091,0.069-0.114,0.091V165.763z M108.001,166.059
		c0.046,0.023,0.091,0.046,0.137,0.046s0.068,0,0.114-0.023c0.069-0.023,0.114-0.068,0.114-0.114
		c0.023-0.091-0.091-0.16-0.091-0.183c-0.023,0-0.023,0-0.046,0c-0.137,0.023-0.228,0.091-0.251,0.16
		C107.955,165.991,107.978,166.036,108.001,166.059z M111.128,165.534c0.023,0.046,0.069,0.068,0.091,0.068
		c0.069,0,0.114-0.068,0.114-0.068c0.023-0.023,0.023-0.023,0.023-0.046c0-0.114-0.046-0.137-0.091-0.16
		c-0.023,0-0.068,0-0.114,0.046C111.128,165.397,111.105,165.466,111.128,165.534z M111.265,165.922
		c-0.068,0.068-0.091,0.183-0.046,0.274c0.046,0.046,0.069,0.068,0.114,0.068c0.091,0,0.16-0.114,0.16-0.16
		c0.023,0,0.023,0,0.023-0.023c0-0.114-0.046-0.205-0.114-0.228C111.357,165.854,111.311,165.877,111.265,165.922z"/>
	<path fill="#FFFFFF" d="M115.831,161.607c0,0,0.617,0.023,0.982,0.594c0.137-0.411,0.366-0.662,0.662-0.64
		c0,0,0.776-0.091,0.707,0.754c-0.046,0.822-0.16,6.895,0.069,7.602c0,0,0.16,0.502-0.32,0.388
		c-0.434-0.091-1.096-0.822-1.256-2.397c-0.046-0.297-0.091-0.731-0.114-1.233c-0.388,1.416-1.21,3.676-2.397,3.63
		c-1.507-0.046-1.575-3.493-1.507-4.383C112.726,165.009,113.206,161.471,115.831,161.607z M113.411,165.945
		c-0.023-0.045-0.068-0.068-0.137-0.045c-0.091,0-0.183,0.068-0.206,0.16c-0.023,0.068,0,0.114,0.023,0.137s0.046,0.023,0.091,0.023
		c0.068,0,0.114-0.023,0.137-0.023c0,0,0,0,0.023-0.023C113.411,166.082,113.457,166.014,113.411,165.945z M113.982,166.242
		c-0.023-0.069-0.068-0.114-0.137-0.114c-0.114-0.046-0.251,0.069-0.274,0.069c0,0.023-0.023,0.046,0,0.046
		c0.023,0.16,0.091,0.251,0.205,0.274c0,0,0.023,0,0.046,0c0.046,0,0.091-0.023,0.137-0.046
		C114.005,166.402,114.005,166.333,113.982,166.242z M113.708,165.808c0.023,0.046,0.046,0.068,0.091,0.068s0.091-0.068,0.114-0.091
		c0,0,0,0,0-0.023c0-0.114-0.046-0.137-0.069-0.16c-0.046-0.023-0.091,0-0.114,0.023
		C113.685,165.671,113.663,165.74,113.708,165.808z M114.279,166.288c-0.479,3.31,0.228,3.31,0.228,3.31
		c0.707-0.205,1.758-3.812,1.986-4.68c0-0.434,0.023-0.845,0.046-1.233c-0.023-0.89-0.252-1.37-0.479-1.37
		C115.809,162.292,114.781,162.954,114.279,166.288z M117.155,166.265c0.046,0.046,0.069,0.046,0.114,0.046c0,0,0,0,0.023,0
		c0.068-0.023,0.114-0.137,0.114-0.183c0,0,0,0,0-0.023c-0.023-0.114-0.068-0.183-0.137-0.205c-0.046,0-0.091,0.045-0.137,0.091
		C117.087,166.082,117.087,166.196,117.155,166.265z M117.338,165.626c0,0.114,0.023,0.16,0.068,0.16l0.023,0.023
		c0.046,0,0.068-0.023,0.091-0.046c0.023-0.046,0.046-0.114,0.023-0.183c-0.023-0.046-0.068-0.068-0.091-0.068
		c-0.068,0-0.114,0.068-0.114,0.091C117.338,165.603,117.338,165.626,117.338,165.626z M117.635,166.379
		c0,0.069,0.023,0.091,0.046,0.091c0.023,0,0.023,0,0.046,0c0.046,0,0.091-0.023,0.091-0.046c0.023,0,0.023-0.023,0.023-0.023
		c0.023-0.114,0-0.16-0.023-0.183s-0.069-0.023-0.114,0C117.658,166.242,117.612,166.31,117.635,166.379z"/>
	<path fill="#FFFFFF" d="M120.899,170.306c0,0-1.506-0.046-1.735-1.598c0,0-0.091-0.388,0.205-0.456
		c0.274-0.069,0.366,0.411,0.366,0.411c0.137,0.48,0.388,1.005,1.141,1.05c0,0,0.845,0.023,0.799-1.142
		c-0.023-0.799-0.959-1.552-1.027-1.621c0,0-1.758-1.415-1.735-2.899c0,0-0.091-2.443,2.169-2.511c0,0,2.078-0.16,2.192,2.123
		c0,0,0.023,0.342-0.319,0.365c-0.252,0-0.297-0.319-0.297-0.319c-0.023-0.32-0.114-0.799-0.388-1.142
		c-0.183-0.251-0.594-0.434-1.005-0.365c0,0-0.959,0.182-0.845,1.621c0,0,0,0.845,1.096,2.078s1.461,1.804,1.393,2.853
		C122.909,168.753,122.772,170.397,120.899,170.306z M120.375,165.717c-0.046-0.069-0.069-0.069-0.091-0.069
		c-0.069,0-0.114,0.046-0.114,0.069s-0.023,0.023-0.023,0.023c0,0.114,0.046,0.16,0.091,0.183h0.023
		c0.023,0,0.069-0.023,0.091-0.046C120.375,165.831,120.397,165.785,120.375,165.717z M120.603,165.717
		c0.046,0.091,0.114,0.16,0.16,0.16c0.023,0,0.023,0,0.023,0c0.046-0.023,0.091-0.068,0.114-0.137c0-0.091-0.023-0.205-0.091-0.251
		c-0.069-0.046-0.114-0.023-0.137,0c-0.091,0.046-0.091,0.16-0.069,0.205C120.603,165.694,120.603,165.694,120.603,165.717z
		 M120.968,166.242c-0.069-0.091-0.228-0.114-0.251-0.114s-0.023,0-0.046,0.023c-0.069,0.114-0.091,0.251-0.046,0.319
		c0.046,0.069,0.091,0.091,0.16,0.091h0.023c0.068,0,0.137-0.046,0.16-0.137C120.991,166.356,120.991,166.31,120.968,166.242z
		 M121.219,165.945c-0.046-0.045-0.068-0.068-0.091-0.068h-0.023c-0.046,0-0.091,0.068-0.091,0.091
		c-0.023,0-0.023,0.023-0.023,0.023c0,0.114,0.046,0.16,0.091,0.16l0.023,0.023c0.023,0,0.068-0.023,0.091-0.046
		C121.219,166.082,121.242,166.014,121.219,165.945z"/>
</g>
</svg>
