<?xml version="1.0" encoding="utf-8"?>
<!-- Generator: Adobe Illustrator 17.0.0, SVG Export Plug-In . SVG Version: 6.00 Build 0)  -->
<!DOCTYPE svg PUBLIC "-//W3C//DTD SVG 1.1//EN" "http://www.w3.org/Graphics/SVG/1.1/DTD/svg11.dtd">
<svg version="1.1" id="Layer_1" xmlns="http://www.w3.org/2000/svg" xmlns:xlink="http://www.w3.org/1999/xlink" x="0px" y="0px"
	 width="154.182px" height="180px" viewBox="22.909 10 154.182 180" enable-background="new 22.909 10 154.182 180"
	 xml:space="preserve">
<path fill="#B32025" d="M109.847,23.75L109.847,23.75c-0.906,2.585,1.444,5.133,4.094,4.439l0,0
	c4.672-1.224,8.972-3.577,12.522-6.851l0.606-0.559c1.935-1.785,2.057-4.8,0.272-6.735l-2.314-2.509
	c-1.785-1.935-4.8-2.057-6.735-0.272l-0.606,0.559C114.135,15.096,111.443,19.192,109.847,23.75z"/>
<path fill="#B32025" d="M95.504,28.019L95.504,28.019c2.698,0.473,4.83-2.26,3.713-4.762l0,0c-1.968-4.41-4.989-8.27-8.797-11.24
	l-0.65-0.507c-2.076-1.619-5.071-1.248-6.69,0.828l-2.099,2.692c-1.619,2.076-1.248,5.071,0.828,6.69l0.65,0.507
	C86.267,25.196,90.747,27.185,95.504,28.019z"/>
<path fill="#B32025" d="M106.335,22.772l-3.713-0.085c-0.811-0.019-1.484,0.624-1.502,1.435l-0.194,8.463
	c-0.019,0.811,0.624,1.484,1.435,1.502l3.712,0.085c0.811,0.019,1.484-0.624,1.502-1.435l0.194-8.463
	C107.788,23.463,107.146,22.79,106.335,22.772z"/>
<path fill="#B32025" d="M85.262,27.14c0,0-7.052-6.684-20.037-1.264c-0.63,0.263-0.729,1.115-0.164,1.498l4.955,3.36l-0.504,4.765
	c-0.083,0.784,0.856,1.253,1.427,0.711C73.552,33.729,78.949,29.183,85.262,27.14z"/>
<path fill="#B32025" d="M120.583,28.35c0,0,7.239-6.481,20.065-0.696c0.622,0.281,0.697,1.136,0.122,1.502l-5.048,3.218l0.369,4.777
	c0.061,0.786-0.891,1.229-1.447,0.67C132.102,35.268,126.835,30.571,120.583,28.35z"/>
<g>
	<circle fill="#B32025" cx="100" cy="112.909" r="77.091"/>
</g>
<g>
	<g>
		<path fill="#FFFFFF" d="M87.665,76.515c1.137,2.697,0.942,5.264-0.585,6.791c0,0,0,0-0.032,0
			c-0.032,0.032-0.877,0.715-1.625,0.585c-0.292-0.032-0.52-0.195-0.682-0.487c-0.292-0.487,0.13-0.845,0.65-1.3
			c0.975-0.877,2.632-2.339,1.657-5.946c-0.942-1.95-2.599-3.899-4.744-5.361c-2.079,6.271-4.776,13.452-6.856,16.181
			c-1.462,1.885-4.094,2.859-6.238,2.859c-0.975,0-1.852-0.195-2.469-0.617c-1.43-0.487-3.184-1.462-4.614-2.924
			c-1.04-1.105-2.307-2.892-2.242-5.134c0-3.379,1.917-6.693,5.361-9.39c2.924-2.242,6.596-3.704,9.358-3.704
			c1.397-0.032,2.697,0.162,3.932,0.52c0.325-1.072,0.65-2.144,1.007-3.314c2.892-9.845,5.264-19.82,6.011-22.939
			c-2.177,2.892-9.358,12.152-14.166,14.654c0,0.032-0.032,0.032-0.065,0.032c0,0.032-0.032,0.032-0.032,0.032
			c-0.715,0.357-1.397,0.552-1.982,0.552c-0.032,0-0.097,0-0.13,0c-0.747-0.032-1.3-0.39-1.69-1.105
			c-0.195-0.357-0.357-0.715-0.162-0.91c0.227-0.195,0.585-0.032,0.845,0.13c0.065,0.032,0.097,0.097,0.097,0.162
			c0,0.032,0,0.52,0.422,0.812c0.487,0.357,1.332,0.325,2.502-0.065c5.457-2.826,14.522-15.27,14.62-15.4
			c0.032-0.032,0.032-0.032,0.065-0.032v-0.032c0.032,0,0.032,0,0.065,0c0-0.032,0-0.032,0-0.032c0.032,0,0.032,0,0.065,0
			c0.032,0,3.249,0.325,3.249,4.159c0,1.43-2.177,10.072-5.069,19.528c-0.487,1.592-1.072,3.509-1.755,5.556
			C84.936,71.999,86.723,74.305,87.665,76.515z M62.451,86.003c1.917,1.95,4.549,3.119,6.043,3.119c1.69,0,4.776-3.607,9.91-20.145
			c-1.137-0.292-2.339-0.487-3.639-0.487c-0.065,0-0.097,0-0.162,0c-2.664,0-6.238,1.43-9.098,3.639
			c-1.917,1.495-5.199,4.679-5.199,9.033C60.242,83.273,61.444,84.93,62.451,86.003z M67.942,56.435
			c-0.065-0.162-0.097-0.292-0.097-0.39c-0.065-0.032-0.097-0.065-0.13-0.065c0,0.065,0.065,0.162,0.162,0.325
			C67.877,56.338,67.91,56.37,67.942,56.435z"/>
		<path fill="#FFFFFF" d="M69.21,90.087c-1.059,0-1.951-0.222-2.582-0.642c-1.699-0.585-3.403-1.668-4.68-2.975
			c-1.567-1.664-2.366-3.501-2.313-5.315c0-3.419,1.938-6.824,5.457-9.58c2.978-2.283,6.71-3.757,9.512-3.757
			c0.097-0.002,0.2-0.003,0.302-0.003c1.168,0,2.303,0.153,3.461,0.466c0.301-0.995,0.605-1.996,0.937-3.081
			c2.588-8.813,4.794-17.873,5.73-21.769c-3.052,3.978-9.14,11.447-13.461,13.742v0.097l-0.206,0.024
			c-0.745,0.367-1.456,0.561-2.059,0.561h-0.13c-0.854-0.037-1.476-0.441-1.909-1.235c-0.175-0.32-0.468-0.857-0.12-1.206
			c0.294-0.256,0.664-0.211,1.154,0.094c0.125,0.062,0.215,0.21,0.215,0.375c0,0.04,0.009,0.395,0.314,0.607
			c0.417,0.306,1.193,0.267,2.281-0.097c5.101-2.646,13.535-14,14.479-15.286l0.037-0.045v-0.115l0.38-0.065
			c0.035,0,3.499,0.329,3.499,4.409c0,1.416-2.086,9.813-5.08,19.601l-0.043,0.137c-0.454,1.483-1.015,3.317-1.653,5.242
			c2.265,1.517,4.141,3.747,5.163,6.146c1.194,2.832,0.956,5.472-0.638,7.065l-0.073,0.073h-0.051
			c-0.258,0.197-1.026,0.709-1.753,0.581c-0.355-0.039-0.658-0.251-0.858-0.612c-0.391-0.651,0.152-1.126,0.678-1.587
			c1.034-0.929,2.535-2.278,1.606-5.714c-0.911-1.875-2.461-3.664-4.371-5.03c-1.924,5.774-4.627,13.099-6.789,15.936
			C74.061,89.173,71.272,90.087,69.21,90.087z M67.085,89.138c0.536,0.294,1.264,0.449,2.124,0.449c1.94,0,4.56-0.854,6.041-2.763
			c2.272-2.982,5.246-11.372,6.816-16.106l0.078-0.234l-0.009-0.005l0.061-0.184c0.662-1.985,1.243-3.885,1.71-5.412l0.042-0.139
			c2.895-9.464,5.058-18.077,5.058-19.454c0-3.159-2.289-3.781-2.879-3.889v0.012l-0.101,0.013l-0.298,1.247
			c-0.775,3.24-3.135,13.098-5.947,22.669c-0.358,1.172-0.683,2.245-1.008,3.316l-0.072,0.236l-0.009-0.002l-0.049,0.158
			c-4.186,13.484-7.6,20.321-10.149,20.321C68.098,89.372,67.617,89.293,67.085,89.138z M74.603,68.74
			c-2.614,0-6.125,1.408-8.945,3.587c-1.905,1.485-5.102,4.609-5.102,8.835c-0.048,1.583,0.65,3.152,2.077,4.67
			c1.87,1.902,4.45,3.041,5.861,3.041c1.291,0,4.249-2.57,9.593-19.716c-1.159-0.28-2.248-0.416-3.322-0.416L74.603,68.74
			L74.603,68.74z M87.383,76.494c0.778,3.454-0.831,4.9-1.808,5.779c-0.63,0.552-0.777,0.74-0.62,1.001
			c0.127,0.229,0.284,0.344,0.495,0.367c0.066,0.011,0.117,0.015,0.168,0.015c0.536,0,1.138-0.429,1.259-0.535l0.094-0.063
			c1.382-1.452,1.557-3.853,0.462-6.447C87.418,76.573,87.4,76.534,87.383,76.494z M67.787,56.517
			c0.338,0.544,0.788,0.811,1.401,0.838h0.12c0.429,0,0.928-0.117,1.464-0.339c-1.044,0.28-1.756,0.229-2.229-0.119
			c-0.222-0.153-0.35-0.35-0.424-0.529L67.787,56.517z"/>
	</g>
	<g>
		<path fill="#FFFFFF" d="M110.016,65.955c-0.292,0.26-6.758,6.433-10.202,6.433c-0.195,0-0.552-0.065-0.942-0.195
			c-0.942,1.397-1.982,2.599-2.989,3.282c-0.552,0.357-1.072,0.552-1.56,0.552c-0.227,0-0.455-0.032-0.682-0.13
			c0,0,0-0.032-0.032-0.032c-3.542-1.885-3.672-4.711-3.152-6.758c0.877-3.542,4.386-7.116,6.303-7.116c0.455,0,0.91,0.26,1.3,0.585
			c0.65-0.357,1.235-0.357,1.657-0.292c0.715,0.162,1.332,0.585,1.82,1.105c0,0,0,0,0,0.032c0.487,0.52,0.78,1.137,0.78,1.56
			c0,0.812-1.397,4.061-3.184,6.823c0.292,0.097,0.52,0.13,0.682,0.13c3.249,0,9.813-6.238,9.877-6.303
			c0.097-0.065,0.227-0.065,0.325,0C110.081,65.728,110.081,65.858,110.016,65.955z M98.449,72.031
			c-0.487-0.195-1.007-0.487-1.495-0.91c-0.292-0.227-0.552-0.52-0.78-0.877c-0.845-1.235-0.942-2.827-0.26-4.679
			c-1.527,1.625-3.184,4.224-3.444,6.498c-0.195,1.56,0.325,2.729,1.527,3.477c0.487,0.13,1.04-0.032,1.657-0.422
			C96.597,74.468,97.572,73.331,98.449,72.031z M101.86,64.98c0-0.325-0.227-0.812-0.617-1.235c-0.65-0.292-1.527,0.13-2.404,1.137
			c-1.43,1.722-2.437,4.646-1.592,5.946c0.487,0.39,1.007,0.682,1.462,0.845C100.496,68.912,101.86,65.63,101.86,64.98z"/>
		<path fill="#FFFFFF" d="M94.322,76.278c-0.289,0-0.544-0.049-0.78-0.15l-0.152-0.096c-3.59-1.962-3.712-4.877-3.177-6.987
			c0.915-3.692,4.521-7.304,6.546-7.304c0.417,0,0.864,0.181,1.33,0.539c0.385-0.186,0.791-0.279,1.208-0.279
			c0.167,0,0.32,0.015,0.458,0.036c0.718,0.163,1.392,0.57,1.964,1.181l0.067,0.106c0.476,0.535,0.779,1.176,0.779,1.656
			c0,0.864-1.34,3.974-3.041,6.671c0.126,0.025,0.222,0.032,0.289,0.032c3.125,0,9.638-6.169,9.702-6.231
			c0.25-0.178,0.461-0.149,0.64-0.03l0.07,0.07c0.12,0.183,0.12,0.418,0,0.601l-0.043,0.049l-0.103,0.094
			c-2.08,1.925-7.244,6.402-10.266,6.402c-0.207,0-0.517-0.057-0.84-0.151c-1.005,1.463-2.023,2.565-2.952,3.195
			C95.402,76.084,94.847,76.278,94.322,76.278z M96.759,62.241c-1.817,0-5.21,3.49-6.061,6.926c-0.491,1.936-0.377,4.61,2.918,6.419
			c-1.119-0.809-1.588-2.002-1.395-3.553c0.279-2.441,2.065-5.103,3.51-6.639l0.842-0.895l-0.425,1.153
			c-0.653,1.774-0.576,3.271,0.232,4.451c0.166,0.261,0.349,0.483,0.546,0.667c-0.724-1.488,0.282-4.315,1.719-6.047
			c0.941-1.082,1.895-1.519,2.639-1.231v-0.003c-0.489-0.499-1.049-0.831-1.625-0.962c-0.097-0.014-0.225-0.027-0.364-0.027
			c-0.386,0-0.762,0.099-1.117,0.295l-0.149,0.082l-0.131-0.109C97.479,62.418,97.095,62.241,96.759,62.241z M94.097,75.307
			c0.389,0.09,0.861-0.046,1.424-0.401c0.785-0.542,1.666-1.497,2.55-2.767c-0.464-0.216-0.894-0.495-1.28-0.83
			c-0.303-0.235-0.585-0.552-0.827-0.932c-0.71-1.037-0.916-2.332-0.608-3.785c-1.202,1.5-2.417,3.579-2.636,5.499
			C92.539,73.531,93.002,74.612,94.097,75.307z M97.436,70.659c0.378,0.299,0.788,0.544,1.173,0.707
			c1.712-2.693,3.002-5.815,3.002-6.386c0-0.218-0.162-0.626-0.515-1.025c-0.537-0.204-1.299,0.209-2.068,1.092
			C97.683,66.667,96.704,69.455,97.436,70.659z"/>
	</g>
	<g>
		<path fill="#FFFFFF" d="M152.22,62.089c-0.13,0.032-0.26-0.032-0.292-0.162c-0.162-0.585-0.52-1.007-1.072-1.235
			c-3.119-1.365-11.827,3.054-19.528,6.986c-4.126,2.112-8.09,4.126-10.95,5.134c-2.924,9.618-7.181,20.99-10.917,20.99
			c-0.812,0-1.56-0.065-2.242-0.195c-0.032,0-0.032-0.032-0.065-0.032h-0.032c-3.282-0.747-5.134-3.119-5.134-6.791
			c0-5.296,7.343-9.455,14.654-12.932c1.722-4.971,3.152-9.585,3.802-11.762c-0.812,1.17-2.144,3.054-3.509,4.939
			c-2.859,3.964-4.029,5.361-4.581,5.881c-0.032,0.065-0.097,0.13-0.162,0.162c-0.195,0.13-0.26,0.13-0.325,0.13
			c-0.91,0-3.314-1.755-3.314-3.607c0-1.722,2.469-10.04,4.354-10.04c1.787,0,2.567,1.56,2.599,1.625c0,0.032,0,0.065,0,0.097
			c0,0.227-0.162,0.52-0.552,1.105c-0.78,1.235-2.177,3.509-3.217,7.213c-0.455,1.95-0.065,2.664,0.097,2.827
			c0.065,0.097,0.13,0.162,0.227,0.195c1.202-1.105,5.913-7.701,8.805-11.892c0,0,0,0,0-0.032c0.032,0,0.032-0.032,0.065-0.032
			c0,0,0.032-0.032,0.065-0.032s0.032,0,0.065,0c0.032,0,0.032,0,0.065,0c0.812,0.292,2.274,1.267,1.917,2.729
			c-0.032,0.065-0.065,0.162-0.097,0.292c-0.585,2.274-1.43,5.361-2.404,8.643c2.762-1.007,6.596-2.957,10.592-5.004
			c8.155-4.159,16.571-8.48,19.917-7.018c0.65,0.292,1.105,0.812,1.3,1.527C152.383,61.926,152.318,62.056,152.22,62.089z
			 M107.219,93.151c0,0,0,0,0.032,0c0.877,0.195,3.087-1.625,8.188-15.823c0.325-0.975,0.682-1.95,1.007-2.892
			c-7.051,3.379-14.004,7.376-14.004,12.347C102.443,88.894,103.093,92.273,107.219,93.151z"/>
		<path fill="#FFFFFF" d="M109.461,94.051c-0.824,0-1.594-0.067-2.289-0.199l-0.106-0.035c-3.436-0.782-5.328-3.28-5.328-7.034
			c0-5.357,7.054-9.469,14.702-13.113c1.282-3.707,2.478-7.438,3.31-10.155c-0.721,1.023-1.636,2.309-2.613,3.659
			c-2.35,3.259-3.851,5.187-4.585,5.891c-0.061,0.096-0.153,0.182-0.251,0.23c-0.188,0.129-0.301,0.156-0.435,0.156
			c-0.998,0-3.564-1.834-3.564-3.857c0-1.699,2.422-10.29,4.604-10.29c1.894,0,2.734,1.583,2.823,1.763l0.026,0.111v0.097
			c0,0.302-0.184,0.628-0.595,1.244c-0.687,1.088-2.123,3.363-3.184,7.142c-0.476,2.043,0.028,2.578,0.033,2.583
			c0.012,0.015,0.021,0.029,0.03,0.041c1.386-1.433,5.809-7.63,8.576-11.64v-0.172l0.162-0.021c0.012-0.007,0.023-0.014,0.036-0.02
			c0.044-0.029,0.106-0.057,0.182-0.057l0.215,0.015c1.039,0.375,2.45,1.489,2.075,3.024c-0.035,0.084-0.063,0.153-0.099,0.295
			c-0.377,1.466-1.161,4.429-2.265,8.17c2.812-1.084,6.67-3.061,10.097-4.815l0.226-0.115c6.961-3.55,14.159-7.222,18.174-7.222
			c0.676,0,1.259,0.105,1.731,0.312c0.731,0.329,1.229,0.913,1.441,1.69c0.064,0.26-0.064,0.519-0.292,0.595
			c-0.061,0.016-0.103,0.021-0.146,0.021c-0.226,0-0.414-0.145-0.469-0.359c-0.142-0.511-0.453-0.871-0.924-1.065
			c-0.357-0.156-0.809-0.234-1.347-0.234c-3.847,0-11.352,3.831-17.974,7.211c-3.704,1.896-7.896,4.042-10.86,5.104
			C116.325,86.97,112.584,94.051,109.461,94.051z M107.502,93.404c0.624,0.098,1.271,0.146,1.96,0.146
			c2.805,0,6.597-7.391,10.678-20.813l0.162-0.519c1.176-3.96,2.01-7.109,2.401-8.634c0.039-0.151,0.075-0.26,0.116-0.341
			c0.307-1.279-1.113-2.129-1.738-2.368h-0.016l-0.383,1.283c-0.82,2.75-2.25,7.286-3.804,11.772l-0.008,0.022l0.008-0.003
			l-0.195,0.565c-0.125,0.363-0.255,0.73-0.386,1.101c-0.209,0.591-0.421,1.19-0.62,1.789
			C111.955,87.767,109.206,93.144,107.502,93.404z M116.012,74.922c-6.677,3.236-13.319,7.161-13.319,11.86
			c0,2.35,0.794,5.319,4.578,6.124c0.056,0.005,0.079,0.008,0.103,0.008c0.662,0,2.749-1.527,7.831-15.671
			c0.198-0.596,0.411-1.198,0.621-1.792C115.888,75.274,115.951,75.097,116.012,74.922z M112.905,59.804
			c-1.63,0-4.104,8.006-4.104,9.79c0,1.688,2.253,3.357,3.064,3.357c0.024,0,0.052,0,0.172-0.079l-0.057-0.019
			c-0.182-0.061-0.286-0.188-0.355-0.292c-0.137-0.13-0.642-0.846-0.133-3.023c1.082-3.86,2.545-6.176,3.248-7.29
			c0.326-0.49,0.514-0.803,0.514-0.972v-0.035C115.11,60.98,114.376,59.804,112.905,59.804z"/>
	</g>
</g>
<g>
	<g>
		<g>
			<path fill="#FFFFFF" d="M145.059,91.109c-0.244,0.229-1.296,0.076-3.338-0.35c-2.577-0.488-4.954-0.854-7.119-1.097
				c-0.122,0.274-0.228,0.579-0.35,0.914c-0.579,1.616-1.205,3.796-1.86,6.082c-0.991,3.414-1.981,6.874-2.988,9.085
				c1.311,0.625,2.546,1.113,2.958,0.747c0.045-0.045,0.106-0.045,0.152,0c0.031,0.045,0.031,0.106-0.015,0.152
				c-0.504,0.457-1.738-0.03-3.171-0.716c-0.625,1.311-1.235,2.135-1.844,2.135c-1.083,0-1.768-0.259-2.21-0.671
				c-0.015,0-0.031-0.015-0.031-0.015c-0.793-0.732-0.793-1.905-0.793-2.789c0-0.244,0.092-0.426,0.259-0.518
				c0.457-0.289,1.479,0.106,2.728,0.701c0.991-2.179,1.89-5.487,2.668-8.368c0.763-2.82,1.418-5.243,2.027-6.342
				c0.107-0.167,0.229-0.381,0.396-0.594c-3.277-0.259-6.021-0.198-8.216,0.198c-3.216,0.579-4.298,1.707-4.816,2.24
				c-0.214,0.214-0.335,0.351-0.504,0.29c-0.716-0.259-0.396-1.479-0.381-1.525c0,0,0,0,0-0.015
				c1.296-3.506,8.17-3.018,14.588-1.875c0.503-0.381,1.25-0.746,2.393-0.991c0.045-0.015,0.092-0.015,0.137-0.015
				c0.746-0.137,1.647-0.229,2.759-0.229c2.088,0,3.613,0.488,4.512,0.899c1.128,0.488,1.936,1.159,2.195,1.768
				C145.334,90.561,145.288,90.866,145.059,91.109z M125.365,107.207c0.702-0.045,1.357-0.915,1.982-2.241
				c-0.915-0.442-1.753-0.793-2.241-0.793c-0.122,0-0.228,0.015-0.289,0.061c-0.107,0.062-0.153,0.184-0.153,0.351
				C124.664,105.454,124.664,106.536,125.365,107.207z M144.998,90.287c-0.442-1.067-2.941-2.546-6.509-2.546
				c-1.082,0-1.981,0.076-2.698,0.214c-0.015,0.015-0.031,0.015-0.061,0.015c-0.229,0-0.534,0.381-0.884,1.127
				c1.722,0.335,3.383,0.686,4.832,1.006c0.716,0.167,1.433,0.32,2.073,0.457c0.076,0.015,0.153,0.03,0.229,0.045h0.015
				c1.555,0.32,2.743,0.518,2.911,0.351C145.09,90.789,145.121,90.561,144.998,90.287z"/>
			<path fill="#FFFFFF" d="M127.484,108.31c-1.02,0-1.774-0.22-2.305-0.671h-0.004l-0.104-0.082
				c-0.871-0.806-0.871-2.059-0.871-2.973c0-0.332,0.142-0.601,0.389-0.736c0.128-0.083,0.309-0.128,0.521-0.128
				c0.567,0,1.382,0.329,2.203,0.712c0.957-2.195,1.838-5.458,2.55-8.098c0.77-2.843,1.429-5.277,2.051-6.398l0.078-0.125
				c0.025-0.042,0.053-0.085,0.081-0.131c-3.078-0.22-5.666-0.143-7.717,0.228c-3.12,0.562-4.169,1.642-4.673,2.16l-0.046,0.046
				c-0.228,0.228-0.453,0.412-0.729,0.313c-0.813-0.293-0.648-1.444-0.546-1.798l0.016-0.063c0.707-1.914,3.037-2.885,6.925-2.885
				c2.108,0,4.672,0.272,7.836,0.832c0.604-0.432,1.41-0.758,2.401-0.971c0.06-0.02,0.136-0.02,0.19-0.02
				c0.808-0.153,1.725-0.229,2.758-0.229c2.147,0,3.695,0.501,4.616,0.921c1.16,0.502,2.029,1.213,2.321,1.898
				c0.222,0.567,0.021,0.947-0.185,1.167c-0.359,0.339-1.005,0.26-3.571-0.276c-2.475-0.468-4.799-0.829-6.911-1.072
				c-0.072,0.179-0.142,0.371-0.215,0.574l-0.057,0.156c-0.584,1.628-1.23,3.884-1.855,6.065l-0.107,0.371
				c-0.909,3.134-1.849,6.372-2.792,8.524c0.739,0.346,1.679,0.745,2.205,0.745c0.123,0,0.212-0.022,0.258-0.063
				c0.117-0.117,0.356-0.128,0.495,0.011c0.131,0.186,0.112,0.378-0.015,0.505c-0.187,0.17-0.432,0.252-0.736,0.252
				c-0.649,0-1.571-0.378-2.496-0.813C128.742,107.675,128.132,108.31,127.484,108.31z M125.688,107.396
				c0.428,0.278,1.02,0.414,1.796,0.414c0.303,0,0.824-0.339,1.596-1.945l-0.004-0.002l0.102-0.224
				c0.962-2.114,1.931-5.452,2.867-8.681l0.107-0.37c0.627-2.188,1.276-4.452,1.865-6.097l0.057-0.156
				c0.102-0.28,0.195-0.539,0.3-0.774l0.074-0.168l0.183,0.021c0.443,0.05,0.896,0.105,1.359,0.166
				c-0.401-0.081-0.799-0.16-1.19-0.236l-0.314-0.062l0.136-0.29c0.163-0.348,0.315-0.62,0.462-0.821
				c-0.709,0.201-1.289,0.471-1.73,0.806l-0.088,0.066l-0.107-0.019c-3.183-0.566-5.752-0.842-7.854-0.842
				c-3.633,0-5.801,0.85-6.443,2.524l-0.011,0.042c-0.001,0.005-0.262,1.032,0.229,1.209c0.023-0.012,0.124-0.113,0.204-0.195
				c0.583-0.599,1.707-1.756,4.986-2.347c2.189-0.396,4.971-0.465,8.28-0.201l0.467,0.037l-0.29,0.367
				c-0.125,0.159-0.223,0.318-0.309,0.456l-0.073,0.118c-0.585,1.055-1.236,3.462-1.991,6.248c-0.746,2.766-1.666,6.176-2.677,8.406
				l0.003,0.002l-0.119,0.254l-0.001-0.001C126.922,106.445,126.32,107.186,125.688,107.396z M125.106,104.423
				c-0.111,0-0.146,0.015-0.147,0.016c-0.028,0.018-0.045,0.06-0.045,0.146c0,0.784,0,1.751,0.542,2.357
				c0.477-0.108,1-0.732,1.558-1.859C126.357,104.773,125.541,104.423,125.106,104.423z M135.216,88.915
				c1.45,0.286,2.968,0.603,4.516,0.945c0.652,0.152,1.302,0.292,1.895,0.419l0.403,0.083c0.864,0.175,2.052,0.407,2.57,0.407
				c0.127,0,0.166-0.014,0.167-0.015c0.042-0.046,0.102-0.143,0.002-0.365c-0.406-0.984-2.875-2.397-6.28-2.397
				c-1.014,0-1.891,0.067-2.607,0.201c-0.063,0.028-0.12,0.028-0.15,0.028C135.733,88.22,135.557,88.264,135.216,88.915z"/>
		</g>
		<g>
			<path fill="#FFFFFF" d="M157.672,96.658c-0.061,0-0.122-0.031-0.136-0.076c-0.076-0.305-0.259-0.518-0.549-0.671
				c-1.57-0.792-5.792,0.747-9.512,2.119c-2.668,0.976-4.954,1.814-6.082,1.753c-0.031,0-0.076,0-0.137,0
				c-0.473,1.357-1.586,3.14-2.607,3.826c-0.305,0.198-0.595,0.305-0.854,0.305c-0.137,0-0.259-0.03-0.381-0.076c0,0,0,0,0-0.015
				c-1.525-0.808-1.57-2.058-1.341-2.958c0.487-1.936,2.668-3.993,3.567-3.993c1.387,0,1.677,1.143,1.677,1.143
				c0.015,0.061,0,0.106-0.045,0.122c-0.046,0.031-0.092,0.015-0.122-0.015c0,0-0.382-0.366-1.433,0.046
				c-0.824,0.32-2.5,2.621-2.638,4.222c-0.061,0.609,0.122,1.036,0.518,1.28c0.259,0.076,0.579,0,0.93-0.244
				c1.021-0.671,2.058-2.393,2.515-3.674c-0.518-0.076-1.372-0.289-1.372-0.899c0-0.411,0.686-0.67,1.174-0.67
				c0.168,0,0.32,0.03,0.442,0.091c0.137,0.092,0.214,0.214,0.214,0.381c0,0.259-0.061,0.565-0.167,0.915
				c0.03,0,0.061,0.015,0.076,0.015c1.082,0.045,3.475-0.823,6.005-1.753c3.75-1.372,8.018-2.942,9.665-2.104
				c0.335,0.168,0.564,0.442,0.656,0.793C157.749,96.582,157.719,96.627,157.672,96.658z M141.301,98.655
				c0-0.091-0.045-0.152-0.122-0.198c-0.076-0.045-0.198-0.076-0.335-0.076c-0.472,0-0.976,0.244-0.976,0.473
				c0,0.473,0.793,0.64,1.25,0.701C141.225,99.188,141.301,98.884,141.301,98.655z"/>
			<path fill="#FFFFFF" d="M137.795,104.163c-0.153,0-0.297-0.028-0.467-0.091l-0.164-0.06v-0.043
				c-1.205-0.697-1.678-1.816-1.333-3.166c0.487-1.938,2.721-4.182,3.809-4.182c1.251,0,1.802,0.871,1.919,1.332
				c0.021,0.08,0.018,0.156-0.006,0.223c0.133,0.136,0.196,0.296,0.196,0.479c0,0.195-0.03,0.419-0.093,0.677
				c1.175-0.081,3.557-0.957,5.671-1.734l0.068-0.025c2.983-1.091,6.366-2.329,8.447-2.329c0.561,0,1.002,0.085,1.349,0.262
				c0.402,0.202,0.674,0.531,0.784,0.952c0.038,0.161-0.025,0.315-0.164,0.408l-0.063,0.042h-0.076c-0.173,0-0.327-0.103-0.375-0.25
				c-0.062-0.245-0.192-0.402-0.427-0.526c-0.245-0.124-0.596-0.188-1.037-0.188c-1.985,0-5.471,1.287-8.271,2.32
				c-2.614,0.956-4.845,1.771-6.049,1.771c-0.028,0-0.057,0-0.083-0.001c-0.509,1.35-1.603,3.083-2.642,3.781
				C138.433,104.047,138.1,104.163,137.795,104.163z M137.699,103.438c0.187,0.038,0.427-0.037,0.686-0.217
				c0.909-0.598,1.834-2.074,2.317-3.276c-0.829-0.181-1.281-0.563-1.281-1.092c0-0.083,0.016-0.161,0.045-0.233
				c-0.786,0.648-2.021,2.442-2.138,3.792C137.279,102.904,137.4,103.239,137.699,103.438z M139.64,97.122
				c-0.744,0-2.848,1.91-3.324,3.804c-0.236,0.926-0.039,1.677,0.585,2.242c-0.07-0.214-0.104-0.479-0.071-0.803
				c0.147-1.714,1.9-4.083,2.796-4.432c0.513-0.2,0.996-0.246,1.295-0.18C140.739,97.476,140.365,97.122,139.64,97.122z
				 M140.844,98.63c-0.374,0-0.691,0.175-0.73,0.251c0.004,0.142,0.326,0.3,0.824,0.392c0.064-0.234,0.113-0.458,0.113-0.618
				C141.018,98.652,140.939,98.63,140.844,98.63z"/>
		</g>
	</g>
</g>
<g>
	<path fill="#FFFFFF" d="M72.815,125.245c0.289,1.187,0.391,2.791,0.304,4.815c-0.029,0.636-0.058,1.46-0.087,2.472
		c-0.058,1.794-0.094,2.827-0.108,3.101c-0.015,0.275-0.037,0.456-0.065,0.542c-0.174,0.377-0.579,0.651-1.214,0.824
		c-0.376,0.116-0.81,0.188-1.301,0.217c-0.434,0.029-0.839,0.007-1.214-0.065c-0.376-0.072-0.695-0.18-0.954-0.326
		c-0.26-0.144-0.434-0.318-0.521-0.52c-0.058-0.087-0.087-0.332-0.087-0.738c0-0.405,0.015-0.795,0.044-1.171
		c0.028-0.115,0.058-0.405,0.087-0.868c0.028-0.462,0.043-0.809,0.043-1.041c0.087-1.533,0.188-2.776,0.304-3.73
		c0.087-1.012,0.115-1.85,0.087-2.516c-0.029-0.81-0.073-1.215-0.131-1.215s-0.275,0.362-0.651,1.084
		c-0.376,0.695-0.737,1.648-1.084,2.863c-0.347,1.157-0.694,2.544-1.041,4.164c-0.174,0.781-0.26,1.344-0.26,1.691
		c0,0.376,0.014,0.709,0.043,0.997c0.028,0.434-0.029,0.752-0.174,0.954c-0.232,0.26-0.636,0.456-1.214,0.586
		c-0.578,0.13-1.171,0.152-1.778,0.065c-0.434-0.058-0.796-0.158-1.084-0.304c-0.26-0.115-0.434-0.26-0.521-0.434
		c-0.029-0.087-0.058-0.521-0.087-1.301c0-0.751-0.015-1.344-0.043-1.778c-0.029-0.405-0.043-1.272-0.043-2.603
		c-0.029-1.272-0.058-2.386-0.087-3.339c-0.087-3.672-0.116-7.041-0.087-10.107c0.028-1.763,0.043-2.949,0.043-3.556
		c-0.028-0.781-0.043-1.763-0.043-2.949s0.015-1.88,0.043-2.082c0.029-0.434,0.159-0.752,0.391-0.954
		c0.375-0.375,0.896-0.578,1.561-0.608c0.521,0,0.954,0.13,1.301,0.391c0.347,0.232,0.564,0.607,0.651,1.127
		c0.087,0.608,0.158,2.024,0.217,4.251c0.028,1.186,0.115,2.805,0.261,4.858c0.144,2.082,0.26,4.583,0.347,7.503
		c0.028,0.926,0.058,1.447,0.087,1.562v0.26l0.26-0.954c0.174-0.751,0.375-1.402,0.607-1.952c0.289-0.781,0.63-1.337,1.019-1.669
		c0.391-0.332,0.947-0.543,1.67-0.63c0.636-0.087,1.214-0.071,1.735,0.044c0.694,0.145,1.272,0.434,1.735,0.868
		C72.295,123.597,72.642,124.321,72.815,125.245z"/>
	<path fill="#FFFFFF" d="M62.561,137.736c-0.249,0-0.502-0.019-0.755-0.055c-0.46-0.061-0.852-0.171-1.162-0.327
		c-0.302-0.134-0.518-0.319-0.631-0.546c-0.041-0.113-0.071-0.286-0.113-1.403c0-0.748-0.014-1.341-0.042-1.771
		c-0.029-0.403-0.043-1.261-0.043-2.619c-0.029-1.265-0.059-2.379-0.087-3.331c-0.087-3.67-0.116-7.072-0.087-10.116
		c0.028-1.764,0.043-2.949,0.043-3.555c-0.028-0.78-0.043-1.775-0.043-2.949c0-1.206,0.015-1.898,0.045-2.117
		c0.032-0.482,0.192-0.861,0.474-1.107c0.407-0.408,0.988-0.638,1.714-0.67h0.001c0.585,0,1.073,0.148,1.461,0.44
		c0.394,0.264,0.649,0.699,0.747,1.287c0.089,0.62,0.161,2.02,0.22,4.285c0.028,1.177,0.116,2.808,0.26,4.848
		c0.144,2.08,0.261,4.607,0.347,7.513c0.002,0.073,0.004,0.143,0.007,0.209c0.14-0.514,0.296-0.979,0.466-1.383
		c0.299-0.808,0.667-1.403,1.088-1.763c0.428-0.364,1.035-0.596,1.803-0.688c0.649-0.09,1.269-0.074,1.819,0.048
		c0.732,0.152,1.356,0.466,1.852,0.93c0.56,0.559,0.934,1.332,1.115,2.305c0.291,1.191,0.396,2.835,0.309,4.872
		c-0.029,0.636-0.059,1.457-0.087,2.468c-0.058,1.797-0.095,2.832-0.109,3.107c-0.021,0.398-0.054,0.537-0.077,0.606
		c-0.215,0.471-0.678,0.795-1.386,0.988c-0.386,0.119-0.843,0.196-1.353,0.226c-0.445,0.027-0.878,0.006-1.276-0.07
		c-0.4-0.076-0.747-0.195-1.029-0.352c-0.308-0.172-0.52-0.387-0.628-0.641c-0.045-0.059-0.107-0.234-0.107-0.836
		c0-0.409,0.015-0.81,0.045-1.19c0.021-0.098,0.05-0.282,0.086-0.864c0.028-0.455,0.042-0.796,0.042-1.024
		c0.089-1.576,0.189-2.802,0.306-3.761c0.084-0.982,0.113-1.818,0.085-2.475c-0.008-0.229-0.017-0.412-0.026-0.557
		c-0.075,0.135-0.168,0.309-0.284,0.53c-0.366,0.677-0.724,1.623-1.066,2.816c-0.346,1.156-0.694,2.551-1.036,4.148
		c-0.169,0.758-0.254,1.309-0.254,1.639c0,0.373,0.014,0.7,0.042,0.972c0.033,0.507-0.039,0.872-0.219,1.125
		c-0.287,0.325-0.727,0.541-1.363,0.685C63.31,137.695,62.935,137.736,62.561,137.736z M61.884,107.668
		c-0.586,0.026-1.056,0.206-1.384,0.535c-0.19,0.167-0.293,0.431-0.318,0.794c-0.021,0.15-0.042,0.612-0.042,2.065
		c0,1.167,0.014,2.156,0.043,2.94c0,0.616-0.015,1.804-0.043,3.569c-0.029,3.037,0,6.435,0.087,10.097
		c0.028,0.952,0.058,2.066,0.087,3.339c0,1.352,0.014,2.197,0.042,2.59c0.029,0.444,0.043,1.048,0.043,1.797
		c0.037,0.983,0.065,1.187,0.076,1.228c0.044,0.082,0.179,0.188,0.383,0.279c0.271,0.137,0.609,0.23,1.016,0.284
		c0.58,0.082,1.143,0.062,1.691-0.062c0.523-0.117,0.887-0.288,1.083-0.507c0.091-0.131,0.135-0.405,0.111-0.772
		c-0.029-0.284-0.043-0.618-0.043-1.014c0-0.367,0.089-0.954,0.266-1.746c0.344-1.608,0.696-3.016,1.045-4.181
		c0.351-1.226,0.722-2.206,1.104-2.911c0.633-1.215,0.702-1.215,0.87-1.215c0.3,0,0.337,0.257,0.381,1.456
		c0.029,0.676-0.001,1.533-0.088,2.546c-0.115,0.943-0.216,2.193-0.303,3.723c0,0.221-0.014,0.573-0.043,1.042
		c-0.041,0.64-0.073,0.826-0.094,0.912c-0.022,0.327-0.037,0.715-0.037,1.111c0,0.487,0.044,0.595,0.049,0.605
		c0.082,0.183,0.221,0.317,0.43,0.434c0.235,0.131,0.532,0.231,0.88,0.299c0.355,0.067,0.743,0.088,1.15,0.062
		c0.472-0.027,0.89-0.097,1.245-0.207c0.566-0.154,0.921-0.387,1.061-0.69l0,0c-0.002,0,0.024-0.105,0.042-0.45
		c0.014-0.274,0.05-1.306,0.108-3.096c0.028-1.014,0.058-1.839,0.087-2.476c0.085-1.989-0.015-3.586-0.297-4.744
		c-0.166-0.885-0.493-1.57-0.975-2.051c-0.422-0.395-0.965-0.666-1.609-0.8c-0.497-0.111-1.05-0.122-1.65-0.041
		c-0.672,0.08-1.19,0.273-1.542,0.572c-0.355,0.303-0.674,0.829-0.947,1.565c-0.227,0.54-0.426,1.184-0.597,1.922l-0.754,2.767
		v-2.129l0,0c-0.008,0-0.043-0.143-0.087-1.554c-0.086-2.899-0.203-5.42-0.346-7.493c-0.145-2.048-0.233-3.687-0.261-4.87
		c-0.058-2.214-0.13-3.635-0.214-4.222c-0.075-0.446-0.252-0.761-0.542-0.955C62.731,107.78,62.354,107.668,61.884,107.668z"/>
</g>
<g>
	<path fill="#FFFFFF" d="M83.702,130.975c0.491-0.031,0.882,0.046,1.171,0.23c0.173,0.092,0.231,0.199,0.173,0.322
		c-0.058,0.092-0.115,0.414-0.173,0.965c-0.116,1.042-0.261,1.808-0.434,2.298c-0.203,0.643-0.448,1.126-0.738,1.448
		c-0.26,0.275-0.607,0.482-1.041,0.62c-0.521,0.184-0.998,0.307-1.432,0.368c-0.232,0.031-0.578,0.05-1.041,0.057
		c-0.463,0.008-0.824-0.003-1.084-0.034c-0.608-0.061-1.257-0.207-1.952-0.437c-0.636-0.214-1.143-0.551-1.518-1.011
		c-0.26-0.337-0.463-0.888-0.607-1.655c-0.029-0.352-0.037-1.302-0.022-2.85c0.015-1.547,0.05-2.765,0.108-3.654
		c0.145-2.053,0.535-3.501,1.171-4.344c0.405-0.521,0.911-0.927,1.518-1.218c0.868-0.398,2.01-0.597,3.426-0.597
		c1.157,0,2.024,0.138,2.603,0.414c0.318,0.169,0.578,0.36,0.781,0.575c0.462,0.46,0.695,1.195,0.695,2.206
		c0,0.781-0.087,1.594-0.261,2.436c-0.173,1.042-0.289,1.586-0.347,1.632c-0.115,0.108-0.405,0.192-0.868,0.253
		c-0.202,0.031-0.636,0.054-1.301,0.069c-0.694,0-1.2,0.008-1.518,0.023h-0.475l-0.043,0.46c-0.029,0.337-0.044,1.096-0.044,2.275
		c0,1.211,0.028,1.954,0.087,2.23c0.115,0.72,0.289,1.341,0.521,1.862c0.058,0.123,0.101,0.207,0.13,0.253
		c0,0.015,0.015,0.023,0.043,0.023c0.145-0.046,0.361-0.276,0.651-0.69c0.318-0.521,0.521-1.118,0.608-1.793
		c0.028-0.245,0.043-0.632,0.043-1.161c0-0.529-0.015-0.854-0.043-0.977c-0.029-0.168,0.071-0.306,0.304-0.414
		C83.022,131.052,83.326,130.991,83.702,130.975z M80.536,128.125v0.115h0.347c0.115,0,0.361,0.008,0.738,0.023h0.477l0.044-0.115
		c0.173-0.306,0.318-0.866,0.434-1.678c0.26-1.716,0.071-2.857-0.564-3.424l-0.087-0.115l-0.087,0.138
		c-0.145,0.184-0.333,0.552-0.564,1.103c-0.289,0.736-0.492,1.609-0.608,2.62C80.579,127.39,80.536,127.835,80.536,128.125z"/>
	<path fill="#FFFFFF" d="M79.913,137.536c-0.349,0-0.623-0.013-0.838-0.039c-0.613-0.061-1.288-0.212-2-0.447
		c-0.682-0.23-1.23-0.597-1.633-1.091c-0.292-0.379-0.507-0.955-0.659-1.767c-0.034-0.389-0.041-1.328-0.026-2.897
		c0.015-1.551,0.051-2.785,0.108-3.669c0.149-2.122,0.549-3.586,1.221-4.478c0.429-0.552,0.97-0.985,1.609-1.293
		c0.901-0.413,2.088-0.622,3.535-0.622c1.206,0,2.092,0.143,2.71,0.438c0.351,0.186,0.635,0.396,0.855,0.63
		c0.504,0.5,0.763,1.302,0.763,2.377c0,0.795-0.089,1.632-0.266,2.487c-0.273,1.646-0.342,1.7-0.436,1.775
		c-0.144,0.137-0.454,0.235-0.99,0.307c-0.213,0.031-0.662,0.056-1.33,0.07c-0.693,0-1.196,0.008-1.512,0.022h-0.261l-0.021,0.233
		c-0.028,0.326-0.043,1.085-0.043,2.252c0,1.189,0.027,1.923,0.082,2.178c0.113,0.707,0.282,1.313,0.504,1.812
		c0.004,0.008,0.007,0.016,0.011,0.023c0.083-0.084,0.205-0.229,0.379-0.479c0.29-0.476,0.482-1.045,0.564-1.682
		c0.027-0.229,0.041-0.61,0.041-1.129c0-0.665-0.023-0.861-0.037-0.92c-0.032-0.18-0.012-0.488,0.443-0.697
		c0.259-0.12,0.597-0.189,1.005-0.207c0.511-0.026,0.984,0.058,1.316,0.27c0.33,0.174,0.356,0.446,0.265,0.639
		c-0.022,0.043-0.077,0.183-0.151,0.886c-0.12,1.071-0.266,1.842-0.446,2.354c-0.214,0.678-0.472,1.182-0.788,1.532
		c-0.293,0.311-0.679,0.542-1.151,0.691c-0.527,0.187-1.025,0.314-1.473,0.377c-0.248,0.033-0.608,0.053-1.072,0.06L79.913,137.536z
		 M81.229,121.734c-1.374,0-2.491,0.193-3.322,0.575c-0.565,0.271-1.046,0.656-1.425,1.144c-0.602,0.798-0.979,2.215-1.119,4.208
		c-0.057,0.873-0.093,2.098-0.107,3.639c-0.015,1.533-0.007,2.483,0.021,2.827c0.132,0.696,0.32,1.217,0.556,1.522
		c0.338,0.414,0.811,0.729,1.4,0.927c0.677,0.224,1.315,0.367,1.896,0.425c0.197,0.024,0.459,0.036,0.784,0.036l0.271-0.003
		c0.446-0.007,0.786-0.025,1.013-0.055c0.412-0.059,0.877-0.178,1.381-0.355c0.398-0.127,0.712-0.313,0.942-0.557
		c0.259-0.288,0.489-0.744,0.681-1.352c0.168-0.479,0.31-1.232,0.423-2.25c0.067-0.644,0.125-0.89,0.178-1.011
		c-0.011-0.008-0.026-0.018-0.047-0.028c-0.261-0.166-0.602-0.234-1.039-0.201c-0.346,0.014-0.621,0.068-0.82,0.161
		c-0.053,0.024-0.173,0.086-0.163,0.144c0.021,0.085,0.047,0.291,0.047,1.02c0,0.545-0.015,0.935-0.044,1.19
		c-0.091,0.709-0.308,1.345-0.643,1.894c-0.434,0.622-0.642,0.751-0.789,0.798l-0.076,0.012h-0.25l-0.028-0.18
		c-0.031-0.055-0.071-0.135-0.121-0.24c-0.241-0.544-0.423-1.19-0.541-1.929c-0.061-0.284-0.09-1.01-0.09-2.269
		c0-1.198,0.015-1.95,0.045-2.297l0.064-0.688h0.704c0.309-0.015,0.819-0.022,1.518-0.022c0.8-0.018,1.13-0.046,1.265-0.065
		c0.603-0.08,0.722-0.178,0.733-0.188l0,0c-0.014,0,0.064-0.238,0.272-1.49c0.171-0.832,0.257-1.635,0.257-2.396
		c0-0.938-0.209-1.62-0.621-2.028c-0.188-0.2-0.429-0.377-0.721-0.532C83.183,121.865,82.343,121.734,81.229,121.734z
		 M82.269,128.513h-0.648c-0.381-0.015-0.624-0.022-0.738-0.022h-0.597v-0.365c0-0.301,0.043-0.749,0.132-1.368
		c0.116-1.02,0.326-1.922,0.622-2.677c0.245-0.584,0.441-0.964,0.601-1.166l0.265-0.423l0.305,0.404
		c0.676,0.598,0.887,1.791,0.611,3.612c-0.122,0.85-0.273,1.427-0.463,1.764L82.269,128.513z M80.789,127.991h0.094
		c0.117,0,0.366,0.008,0.748,0.022h0.302c0.161-0.316,0.289-0.837,0.395-1.577c0.229-1.513,0.103-2.552-0.375-3.094
		c-0.125,0.202-0.273,0.509-0.449,0.927c-0.278,0.708-0.478,1.568-0.589,2.552C80.841,127.325,80.799,127.717,80.789,127.991z"/>
</g>
<g>
	<path fill="#FFFFFF" d="M106.573,118.306c0.028,0.174,0.022,1.344-0.021,3.513c-0.044,2.169-0.094,3.687-0.152,4.555
		c-0.145,2.949-0.326,5.118-0.543,6.506s-0.513,2.386-0.889,2.993c-0.319,0.491-0.767,0.824-1.345,0.997
		c-0.607,0.145-1.2,0.145-1.778,0c-0.463-0.145-0.853-0.391-1.171-0.738c-0.347-0.347-0.607-0.809-0.781-1.388
		c-0.145-0.405-0.275-1.041-0.39-1.908c-0.087-0.549-0.145-0.809-0.174-0.781c-0.145,0.405-0.376,1.287-0.694,2.646
		c-0.174,0.608-0.304,1.049-0.391,1.323c-0.087,0.275-0.181,0.484-0.282,0.629c-0.102,0.145-0.239,0.26-0.412,0.347
		c-0.318,0.145-0.738,0.232-1.258,0.26c-0.347,0.029-0.636,0.015-0.868-0.043c-0.578-0.145-1.056-0.405-1.431-0.781
		c-0.723-0.809-1.229-2.169-1.518-4.077c-0.145-1.07-0.26-2.863-0.347-5.379c0-0.462-0.029-0.997-0.087-1.604
		c-0.058-0.723-0.13-1.793-0.217-3.21c-0.086-2.169-0.072-4.265,0.044-6.289c0.201-2.949,0.434-5.017,0.694-6.203
		c0.145-0.751,0.34-1.308,0.586-1.67c0.245-0.361,0.586-0.614,1.019-0.759c0.347-0.115,0.722-0.159,1.127-0.13
		c0.405,0.028,0.708,0.13,0.911,0.303c0.115,0.087,0.202,0.188,0.261,0.304c0.058,0.116,0.101,0.289,0.13,0.521
		c0.028,0.231,0.058,0.607,0.087,1.127c0.058,1.071,0.058,2.415,0,4.034c-0.174,3.355-0.261,6.073-0.261,8.155
		c-0.028,5.321,0.028,8.617,0.174,9.889c0.115,1.475,0.217,2.212,0.304,2.212c0.028,0,0.231-0.65,0.607-1.951
		c0.376-1.359,0.695-2.386,0.954-3.08c0.145-0.405,0.347-0.679,0.608-0.824c0.288-0.145,0.664-0.217,1.127-0.217
		c0.925,0,1.547,0.361,1.865,1.084c0.26,0.521,0.534,1.72,0.824,3.6c0.144,0.868,0.231,1.316,0.26,1.344l0.217-0.781
		c0.318-1.59,0.564-4.048,0.738-7.374c0.201-3.961,0.217-7.85,0.043-11.667c0-0.115-0.007-0.275-0.022-0.478
		c-0.015-0.201-0.029-0.434-0.043-0.694c-0.015-0.26-0.022-0.448-0.022-0.564c-0.058-1.243-0.159-2.284-0.304-3.123l-0.13-0.607
		l0.044-0.217c0.058-0.115,0.101-0.245,0.13-0.391c0.028-0.375,0.304-0.564,0.824-0.564c0.261,0,0.456,0.037,0.586,0.108
		c0.13,0.073,0.267,0.225,0.413,0.456c0.086,0.145,0.173,0.246,0.26,0.304c0.087,0.116,0.158,0.376,0.217,0.781
		c0.028,0.318,0.115,1.186,0.26,2.603c0.115,0.839,0.174,2.313,0.174,4.424C106.559,117.395,106.573,118.219,106.573,118.306z"/>
	<path fill="#FFFFFF" d="M95.961,137.525c-0.224,0-0.425-0.021-0.597-0.065c-0.62-0.154-1.141-0.439-1.546-0.847
		c-0.762-0.851-1.293-2.266-1.589-4.216c-0.145-1.074-0.263-2.892-0.35-5.407c0-0.459-0.029-0.99-0.086-1.59
		c-0.058-0.729-0.13-1.799-0.217-3.219c-0.086-2.182-0.072-4.306,0.044-6.318c0.201-2.941,0.436-5.04,0.699-6.242
		c0.152-0.787,0.356-1.363,0.623-1.757c0.275-0.405,0.662-0.693,1.147-0.855c0.378-0.126,0.787-0.177,1.225-0.142
		c0.456,0.031,0.811,0.153,1.055,0.361c0.133,0.101,0.246,0.231,0.321,0.381c0.072,0.145,0.122,0.341,0.155,0.604
		c0.029,0.235,0.059,0.616,0.088,1.145c0.058,1.073,0.058,2.438,0,4.057c-0.173,3.339-0.261,6.078-0.261,8.146
		c-0.028,5.298,0.03,8.615,0.172,9.86c0.043,0.556,0.082,0.965,0.115,1.267c0.078-0.262,0.179-0.603,0.307-1.047
		c0.375-1.355,0.699-2.399,0.96-3.099c0.164-0.458,0.407-0.78,0.721-0.954c0.331-0.166,0.748-0.248,1.249-0.248
		c1.028,0,1.733,0.415,2.094,1.233c0.269,0.537,0.546,1.738,0.843,3.663c0.015,0.091,0.029,0.175,0.042,0.253
		c0.285-1.564,0.513-3.935,0.675-7.038c0.201-3.944,0.217-7.862,0.044-11.643c0-0.123-0.008-0.275-0.021-0.472
		c-0.015-0.202-0.03-0.437-0.044-0.699c-0.015-0.265-0.021-0.458-0.021-0.576c-0.058-1.224-0.159-2.264-0.301-3.08l-0.139-0.648
		l0.075-0.329c0.048-0.097,0.083-0.204,0.108-0.33c0.019-0.266,0.188-0.764,1.069-0.764c0.304,0,0.534,0.046,0.705,0.139
		c0.171,0.097,0.335,0.272,0.504,0.541c0.091,0.153,0.156,0.21,0.187,0.23l0.063,0.059c0.115,0.154,0.196,0.43,0.264,0.894
		c0.03,0.332,0.117,1.198,0.262,2.613c0.116,0.84,0.176,2.34,0.176,4.449c0.028,1.56,0.043,2.386,0.043,2.473
		c0.01,0.038,0.043,0.245-0.021,3.518c-0.044,2.163-0.096,3.699-0.153,4.566c-0.144,2.94-0.327,5.138-0.544,6.528
		c-0.224,1.433-0.525,2.442-0.923,3.085c-0.354,0.546-0.854,0.917-1.486,1.106c-0.672,0.16-1.296,0.157-1.911,0.003
		c-0.517-0.162-0.948-0.434-1.295-0.812c-0.367-0.366-0.651-0.869-0.835-1.484c-0.134-0.372-0.258-0.954-0.368-1.722
		c-0.114,0.437-0.25,0.992-0.407,1.663c-0.178,0.622-0.309,1.065-0.396,1.342c-0.095,0.3-0.198,0.527-0.315,0.695
		c-0.126,0.18-0.296,0.323-0.505,0.429c-0.356,0.163-0.798,0.256-1.356,0.286C96.19,137.52,96.072,137.525,95.961,137.525z
		 M95.056,107.357c-0.285,0-0.557,0.042-0.808,0.126c-0.385,0.128-0.676,0.345-0.892,0.662c-0.225,0.331-0.41,0.861-0.547,1.577
		c-0.259,1.184-0.491,3.258-0.689,6.172c-0.115,1.994-0.129,4.102-0.043,6.262c0.086,1.41,0.159,2.479,0.216,3.201
		c0.058,0.61,0.088,1.158,0.088,1.624c0.086,2.49,0.202,4.292,0.344,5.346c0.281,1.848,0.771,3.176,1.458,3.942
		c0.332,0.332,0.774,0.573,1.305,0.706c0.203,0.052,0.471,0.063,0.786,0.036c0.495-0.027,0.888-0.107,1.175-0.238
		c0.128-0.064,0.233-0.152,0.312-0.264c0.086-0.124,0.169-0.313,0.248-0.56c0.086-0.274,0.216-0.712,0.389-1.316
		c0.321-1.374,0.55-2.248,0.699-2.662l0.056-0.089l0.074-0.076l0.11-0.002c0.259,0,0.292,0.21,0.417,0.993
		c0.113,0.852,0.24,1.477,0.378,1.863c0.165,0.548,0.406,0.979,0.722,1.295c0.294,0.32,0.652,0.545,1.069,0.677
		c0.509,0.125,1.08,0.129,1.646-0.005c0.51-0.153,0.904-0.446,1.193-0.892c0.354-0.572,0.642-1.548,0.852-2.896
		c0.215-1.372,0.396-3.552,0.539-6.479c0.058-0.863,0.108-2.392,0.152-4.547c0.056-2.804,0.039-3.376,0.024-3.468
		c-0.003-0.127-0.018-0.949-0.046-2.508c0-2.092-0.058-3.568-0.173-4.395c-0.146-1.428-0.232-2.296-0.261-2.614
		c-0.06-0.408-0.121-0.569-0.152-0.628c-0.103-0.08-0.198-0.196-0.29-0.353c-0.149-0.235-0.257-0.328-0.32-0.364
		c-0.062-0.034-0.195-0.076-0.463-0.076c-0.55,0-0.566,0.225-0.575,0.332c-0.035,0.185-0.08,0.325-0.14,0.453l-0.027,0.136
		l0.118,0.555c0.147,0.847,0.251,1.908,0.311,3.164c0,0.124,0.007,0.308,0.021,0.562c0.014,0.26,0.027,0.49,0.042,0.689
		c0.016,0.211,0.023,0.377,0.023,0.496c0.173,3.785,0.158,7.719-0.044,11.68c-0.174,3.321-0.424,5.814-0.742,7.41l-0.334,1.203
		l-0.302-0.292c-0.075-0.073-0.104-0.101-0.333-1.482c-0.285-1.85-0.555-3.036-0.801-3.53c-0.283-0.64-0.818-0.945-1.642-0.945
		c-0.422,0-0.764,0.064-1.015,0.19c-0.196,0.108-0.362,0.34-0.485,0.684c-0.258,0.689-0.577,1.719-0.949,3.063
		c-0.617,2.135-0.617,2.135-0.848,2.135c-0.264,0-0.362,0-0.553-2.442c-0.146-1.273-0.204-4.518-0.175-9.909
		c0-2.075,0.088-4.823,0.261-8.166c0.057-1.601,0.057-2.95,0-4.008c-0.029-0.513-0.058-0.882-0.085-1.11
		c-0.032-0.252-0.075-0.379-0.106-0.44c-0.04-0.079-0.104-0.152-0.187-0.216c-0.173-0.146-0.431-0.229-0.778-0.253
		C95.203,107.36,95.129,107.357,95.056,107.357z"/>
</g>
<g>
	<path fill="#FFFFFF" d="M136.588,123.733c0.115,0.393,0.123,0.873,0.022,1.44c-0.102,0.567-0.282,1.047-0.543,1.44
		c-0.318,0.499-0.506,0.771-0.564,0.817c-0.289,0.227-0.925,0.348-1.908,0.363c-0.405,0.015-0.774,0.004-1.106-0.034
		c-0.333-0.038-0.6-0.094-0.803-0.17c-0.202-0.075-0.303-0.158-0.303-0.249c0-0.03,0.057-0.113,0.173-0.249
		c0.087-0.151,0.145-0.28,0.174-0.386c0.058-0.091,0.115-0.204,0.173-0.34c0.145-0.378,0.245-0.839,0.304-1.383
		c0.028-0.514,0.015-0.937-0.043-1.27l-0.044-0.09l-0.13,0.113c-0.405,0.363-0.824,0.953-1.257,1.769
		c-0.348,0.575-0.608,1.111-0.781,1.61c-0.665,1.709-1.157,3.727-1.474,6.056c-0.116,0.756-0.145,1.482-0.087,2.177
		c0.028,0.635,0.058,0.991,0.087,1.066c0.058,0.181,0.058,0.31,0,0.385c-0.116,0.152-0.492,0.28-1.127,0.386
		c-0.637,0.121-1.317,0.151-2.039,0.091c-0.897-0.06-1.447-0.196-1.648-0.408c-0.058-0.06-0.102-0.185-0.13-0.374
		c-0.029-0.189-0.058-0.382-0.087-0.579c-0.058-0.272-0.087-0.476-0.087-0.612c-0.029-0.181-0.058-0.325-0.087-0.431
		c-0.087-0.438-0.13-2.374-0.13-5.806c0.028-1.588,0.015-2.676-0.043-3.266c-0.058-1.512,0.014-2.653,0.217-3.425
		c0.028-0.212,0.13-0.363,0.303-0.454c0.174-0.091,0.478-0.166,0.911-0.227c0.925-0.136,1.749-0.106,2.472,0.091
		c0.348,0.09,0.565,0.287,0.651,0.59c0.145,0.514,0.245,1.474,0.304,2.88c0.028,0.847,0.058,1.384,0.087,1.611
		c0,0.227,0.014,0.439,0.043,0.635v0.227l0.044-0.159c0.028-0.076,0.115-0.363,0.26-0.862c0.145-0.605,0.332-1.194,0.564-1.769
		c0.318-0.741,0.592-1.293,0.824-1.656c0.231-0.378,0.564-0.68,0.997-0.907c0.462-0.257,1.156-0.393,2.082-0.408
		c0.578-0.015,1.07,0.015,1.475,0.09c0.548,0.091,1.026,0.272,1.431,0.545C136.169,122.901,136.444,123.279,136.588,123.733z"/>
	<path fill="#FFFFFF" d="M126.023,137.553c-0.239,0-0.483-0.011-0.732-0.031c-0.981-0.066-1.557-0.221-1.809-0.485
		c-0.097-0.1-0.157-0.257-0.196-0.508l-0.087-0.579c-0.06-0.279-0.09-0.497-0.09-0.65c-0.023-0.13-0.051-0.265-0.078-0.364
		c-0.095-0.474-0.139-2.389-0.139-5.872c0.029-1.572,0.015-2.662-0.042-3.242c-0.061-1.544,0.016-2.721,0.224-3.513
		c0.035-0.262,0.186-0.483,0.43-0.611c0.201-0.104,0.525-0.188,0.993-0.253c0.949-0.139,1.818-0.108,2.571,0.098
		c0.429,0.11,0.715,0.374,0.825,0.762c0.152,0.541,0.254,1.502,0.313,2.939c0.014,0.414,0.028,0.75,0.042,1.011
		c0.13-0.479,0.289-0.953,0.475-1.412c0.331-0.771,0.606-1.324,0.845-1.697c0.25-0.409,0.619-0.745,1.093-0.994
		c0.497-0.276,1.216-0.42,2.193-0.437c0.578-0.013,1.104,0.017,1.525,0.095c0.576,0.096,1.091,0.292,1.525,0.583
		c0.455,0.34,0.762,0.764,0.922,1.266c0.128,0.437,0.137,0.959,0.029,1.561c-0.107,0.601-0.303,1.116-0.58,1.534
		c-0.459,0.721-0.554,0.824-0.615,0.874c-0.34,0.266-1.014,0.401-2.061,0.417c-0.398,0.017-0.794,0.003-1.139-0.036
		c-0.356-0.039-0.639-0.1-0.862-0.184c-0.114-0.043-0.465-0.173-0.465-0.483c0-0.106,0.057-0.207,0.233-0.412
		c0.049-0.095,0.099-0.204,0.122-0.29l0.03-0.067c0.052-0.081,0.103-0.183,0.153-0.304c0.132-0.346,0.229-0.79,0.285-1.313
		c0.018-0.313,0.018-0.596,0.001-0.84c-0.319,0.346-0.657,0.851-1.006,1.505c-0.343,0.568-0.599,1.094-0.766,1.575
		c-0.658,1.691-1.149,3.71-1.462,6.008c-0.114,0.739-0.143,1.452-0.086,2.122c0.037,0.817,0.066,0.978,0.074,1.007
		c0.087,0.271,0.074,0.472-0.038,0.618c-0.109,0.143-0.354,0.325-1.285,0.48C126.961,137.511,126.5,137.553,126.023,137.553z
		 M125.616,121.858c-0.331,0-0.684,0.027-1.049,0.081c-0.505,0.07-0.73,0.148-0.831,0.201s-0.154,0.135-0.172,0.266
		c-0.202,0.773-0.272,1.901-0.215,3.381c0.058,0.585,0.072,1.693,0.043,3.281c0,3.397,0.042,5.334,0.125,5.752
		c0.027,0.096,0.059,0.248,0.089,0.44c0.003,0.156,0.03,0.345,0.084,0.601l0.09,0.593c0.029,0.19,0.064,0.238,0.066,0.24
		c0.069,0.073,0.354,0.254,1.481,0.33c0.71,0.058,1.366,0.028,1.976-0.087c0.788-0.131,0.95-0.266,0.974-0.289
		c-0.005-0.001-0.002-0.051-0.037-0.16c-0.018-0.044-0.054-0.14-0.099-1.132c-0.059-0.7-0.029-1.452,0.09-2.227
		c0.318-2.332,0.818-4.389,1.487-6.108c0.177-0.506,0.446-1.063,0.801-1.648c0.447-0.842,0.877-1.443,1.305-1.826l0.378-0.329
		l0.209,0.449c0.062,0.353,0.076,0.786,0.047,1.327c-0.063,0.579-0.17,1.065-0.32,1.459c-0.061,0.144-0.118,0.259-0.176,0.354
		c-0.037,0.119-0.099,0.253-0.188,0.407c-0.035,0.043-0.063,0.078-0.084,0.105c0.021,0.011,0.05,0.022,0.084,0.035
		c0.183,0.069,0.433,0.121,0.743,0.156c0.322,0.036,0.68,0.049,1.069,0.032c1.153-0.017,1.596-0.178,1.764-0.31
		c0.009-0.011,0.105-0.125,0.507-0.755c0.241-0.363,0.411-0.816,0.507-1.349c0.094-0.524,0.089-0.971-0.016-1.326
		c-0.128-0.401-0.368-0.731-0.732-1.004c-0.364-0.244-0.813-0.414-1.323-0.498c-0.393-0.073-0.868-0.101-1.429-0.088
		c-0.882,0.015-1.543,0.142-1.966,0.377c-0.398,0.208-0.701,0.483-0.905,0.818c-0.224,0.35-0.495,0.895-0.809,1.625
		c-0.223,0.553-0.408,1.136-0.55,1.729c-0.151,0.521-0.24,0.815-0.271,0.894l-0.527,1.914v-2.072
		c-0.027-0.174-0.043-0.399-0.043-0.635c-0.028-0.2-0.057-0.72-0.087-1.602c-0.057-1.377-0.155-2.327-0.294-2.822
		c-0.062-0.215-0.212-0.347-0.473-0.414C126.534,121.913,126.088,121.858,125.616,121.858z"/>
</g>
<g>
	<path fill="#FFFFFF" d="M146.651,136.28c0.115,0.257,0.087,0.471-0.087,0.641c-0.26,0.285-0.738,0.456-1.431,0.513
		c-0.492,0.057-1.127,0.057-1.909,0c-1.099-0.057-1.995-0.342-2.689-0.855c-0.666-0.484-1.171-1.097-1.518-1.838
		c-0.318-0.627-0.593-1.852-0.824-3.676c0-0.086-0.029-0.413-0.086-0.983c-0.116-1.738-0.073-3.99,0.13-6.754
		c0.058-0.712,0.101-1.282,0.13-1.71c0.028-0.626,0.058-1.168,0.087-1.624c0.028-0.37,0.071-0.869,0.13-1.496
		c0.115-1.624,0.275-3.206,0.477-4.745l0.261-1.924c0.115-0.883,0.201-1.524,0.26-1.924c0.058-0.342,0.101-0.684,0.13-1.025
		c0.058-0.455,0.158-0.769,0.304-0.941c0.26-0.313,0.773-0.498,1.54-0.556c0.765-0.057,1.395,0.042,1.886,0.299
		c0.232,0.114,0.376,0.285,0.434,0.512c0.087,0.286,0.058,1.212-0.086,2.779c-0.058,0.827-0.116,1.867-0.174,3.12
		c-0.087,1.14-0.13,2.052-0.13,2.736c-0.029,0.627-0.058,1.31-0.087,2.052c-0.029,0.57-0.058,1.596-0.087,3.077
		c-0.029,1.311-0.058,2.665-0.087,4.061c-0.086,3.734,0.058,6.326,0.434,7.779c0.174,0.712,0.405,1.254,0.695,1.624
		c0.144,0.2,0.303,0.271,0.477,0.214c0.375-0.171,0.809-0.185,1.301-0.042c0.288,0.086,0.434,0.199,0.434,0.342
		C146.564,136.024,146.593,136.138,146.651,136.28z"/>
	<path fill="#FFFFFF" d="M144.287,137.727c-0.323,0-0.684-0.015-1.081-0.044c-1.138-0.059-2.088-0.362-2.818-0.902
		c-0.696-0.506-1.233-1.157-1.597-1.934c-0.33-0.65-0.608-1.879-0.846-3.75c-0.002-0.137-0.065-0.779-0.087-0.99
		c-0.117-1.752-0.073-4.036,0.13-6.797c0.058-0.712,0.101-1.281,0.13-1.708c0.027-0.622,0.057-1.166,0.087-1.623
		c0.028-0.375,0.071-0.875,0.13-1.504c0.114-1.611,0.275-3.213,0.478-4.754l0.261-1.925c0.114-0.884,0.202-1.525,0.261-1.926
		c0.056-0.335,0.099-0.673,0.128-1.011c0.065-0.519,0.184-0.869,0.361-1.081c0.308-0.369,0.869-0.579,1.714-0.643
		c0.814-0.066,1.489,0.048,2.021,0.326c0.293,0.146,0.483,0.372,0.56,0.673c0.059,0.191,0.118,0.71-0.079,2.862
		c-0.059,0.82-0.115,1.858-0.173,3.109c-0.087,1.132-0.13,2.046-0.13,2.725c-0.029,0.638-0.059,1.321-0.087,2.062
		c-0.03,0.577-0.059,1.61-0.087,3.072c-0.029,1.313-0.059,2.665-0.087,4.062c-0.085,3.697,0.058,6.291,0.426,7.712
		c0.166,0.68,0.384,1.194,0.648,1.532c0.034,0.047,0.105,0.138,0.166,0.138c0.449-0.189,0.938-0.212,1.485-0.053
		c0.408,0.122,0.614,0.317,0.614,0.582c0,0.024,0.007,0.098,0.068,0.246c0.154,0.345,0.104,0.673-0.144,0.916
		c-0.297,0.326-0.818,0.521-1.585,0.583C144.908,137.712,144.614,137.727,144.287,137.727z M141.961,107.619
		c-0.124,0-0.254,0.005-0.388,0.015c-0.693,0.053-1.153,0.209-1.367,0.466c-0.078,0.093-0.185,0.309-0.248,0.813
		c-0.029,0.341-0.073,0.692-0.132,1.036c-0.058,0.393-0.144,1.032-0.258,1.913l-0.261,1.925c-0.201,1.531-0.361,3.123-0.476,4.729
		c-0.059,0.631-0.102,1.129-0.13,1.498c-0.028,0.451-0.058,0.991-0.086,1.616c-0.03,0.434-0.073,1.005-0.131,1.719
		c-0.201,2.735-0.244,4.996-0.13,6.717c0.076,0.763,0.087,0.933,0.087,1c0.225,1.756,0.494,2.965,0.797,3.563
		c0.331,0.706,0.814,1.292,1.443,1.749c0.651,0.482,1.511,0.753,2.554,0.807c0.773,0.059,1.393,0.057,1.867,0.002
		c0.635-0.052,1.061-0.197,1.275-0.433c0.075-0.075,0.138-0.161,0.043-0.372c-0.073-0.176-0.107-0.318-0.108-0.439
		c0,0.001-0.001,0.001-0.001,0.001c-0.01,0-0.066-0.051-0.254-0.107c-0.426-0.122-0.805-0.115-1.127,0.031
		c-0.089,0.031-0.154,0.042-0.218,0.042c-0.147,0-0.365-0.059-0.565-0.338c-0.307-0.392-0.55-0.953-0.734-1.71
		c-0.383-1.482-0.527-4.05-0.44-7.845c0.028-1.396,0.058-2.75,0.087-4.062c0.028-1.466,0.058-2.504,0.087-3.084
		c0.028-0.739,0.058-1.423,0.087-2.051c0-0.68,0.044-1.606,0.131-2.743c0.057-1.248,0.115-2.29,0.174-3.119
		c0.184-2.01,0.139-2.547,0.096-2.688c-0.043-0.169-0.139-0.279-0.305-0.361C142.961,107.715,142.503,107.619,141.961,107.619z"/>
</g>
<g>
	<path fill="#FFFFFF" d="M159.543,134.72c-0.058-0.454-0.086-1.204-0.086-2.278c0-1.055,0.029-1.954,0.087-2.673
		c0.028-0.602,0.043-3.521,0.043-8.437c0-5.052,0.014-8.102,0.043-9.325c0.077-3.41-0.047-4.04-0.104-4.152
		c-0.129-0.258-0.495-0.399-1.088-0.423c-0.502-0.027-0.887,0.023-1.194,0.152c-0.301,0.139-0.548,0.494-0.727,1.054
		c-0.196,0.614-0.412,1.977-0.641,4.05c-0.059,0.491-0.115,0.993-0.173,1.51c-0.201,1.661-0.347,3.108-0.433,4.305
		c-0.022,0.141-0.061,0.435-0.131,1.171c-0.085,1.286-0.158,2.508-0.216,3.656l-0.025,1.047c-0.096,0.195-0.325,0.245-0.591,0.047
		c-0.35-0.293-0.789-0.478-1.319-0.558c-0.66-0.142-1.298-0.109-1.978,0.081c-0.499,0.109-0.922,0.285-1.27,0.525
		c-0.648,0.457-1.202,1.268-1.644,2.407c-0.451,1.163-0.708,2.435-0.764,3.782c-0.058,1.598,0.084,2.918,0.421,3.923
		c0.438,1.39,1.156,2.167,2.198,2.38c0.724,0.16,1.316,0.11,1.78-0.146c0.161-0.074,0.611-0.473,1.673-2.735
		c1.064-2.301,1.064-2.301,1.268-2.301c0.294,0,0.294,0.288,0.294,0.811c0.057,0.81,0.157,1.636,0.3,2.438
		c0.179,1.019,0.346,1.357,0.43,1.469c0.171,0.266,0.577,0.45,1.187,0.55c0.534,0.081,1.107,0.054,1.68-0.082
		c0.225-0.029,0.438-0.101,0.657-0.216c0.278-0.147,0.38-0.249,0.416-0.296c0.036-0.056,0.102-0.232,0.038-0.678
		C159.619,135.623,159.573,135.263,159.543,134.72z M154.631,128.666l-0.911,1.812c-0.637,1.208-1.128,2.143-1.475,2.805
		c-0.087,0.172-0.173,0.345-0.26,0.517c-0.087,0.173-0.174,0.346-0.261,0.518c-0.028,0.029-0.05-0.165-0.065-0.583
		c-0.015-0.416-0.015-0.898,0-1.445c0.015-0.546,0.022-0.964,0.022-1.252c0.058-0.834,0.174-1.654,0.347-2.459
		c0.261-1.408,0.535-2.387,0.824-2.934l0.043-0.086l0.347,0.345c0.462,0.403,0.853,0.848,1.171,1.337l0.217,0.345L154.631,128.666
		L154.631,128.666z"/>
	<path fill="#FFFFFF" d="M160.16,135.662c-0.029-0.086-0.082-0.326-0.119-0.987c-0.056-0.443-0.084-1.195-0.084-2.233
		c0-1.042,0.028-1.928,0.086-2.642c0.028-0.617,0.044-3.546,0.044-8.468c0-5.048,0.014-8.094,0.043-9.313
		c0.078-3.46-0.043-4.163-0.156-4.389c-0.218-0.433-0.728-0.667-1.512-0.698c-0.558-0.029-1.03,0.033-1.419,0.194
		c-0.441,0.203-0.778,0.66-1.002,1.359c-0.209,0.655-0.425,2.012-0.66,4.146c-0.059,0.489-0.115,0.993-0.173,1.509
		c-0.203,1.666-0.35,3.122-0.432,4.303c-0.031,0.182-0.076,0.58-0.134,1.19c-0.087,1.295-0.16,2.521-0.218,3.684v0.566
		c-0.376-0.261-0.831-0.432-1.346-0.509c-0.699-0.151-1.453-0.119-2.188,0.087c-0.55,0.121-1.031,0.322-1.434,0.601
		c-0.733,0.516-1.347,1.403-1.825,2.637c-0.47,1.214-0.738,2.54-0.797,3.943c-0.06,1.66,0.091,3.039,0.445,4.097
		c0.489,1.553,1.355,2.467,2.57,2.715c0.839,0.186,1.564,0.112,2.108-0.189c0.302-0.138,0.789-0.6,1.901-2.971
		c0.283-0.61,0.486-1.046,0.634-1.355c0.061,0.734,0.155,1.466,0.282,2.179c0.154,0.879,0.32,1.414,0.512,1.667
		c0.245,0.383,0.74,0.631,1.519,0.759c0.229,0.034,0.462,0.052,0.694,0.052c0.386,0,0.782-0.048,1.151-0.137
		c0.258-0.031,0.527-0.12,0.803-0.265c0.282-0.149,0.472-0.292,0.59-0.448C160.196,136.517,160.237,136.178,160.16,135.662z
		 M159.836,136.605c-0.087,0.116-0.253,0.237-0.499,0.367c-0.246,0.129-0.485,0.209-0.716,0.237
		c-0.608,0.144-1.201,0.172-1.779,0.086c-0.694-0.115-1.142-0.33-1.344-0.647c-0.174-0.23-0.333-0.755-0.477-1.575
		c-0.145-0.82-0.246-1.647-0.304-2.481c0-0.373-0.015-0.561-0.044-0.561s-0.376,0.719-1.041,2.157
		c-0.81,1.726-1.403,2.675-1.778,2.847c-0.521,0.288-1.171,0.345-1.952,0.173c-1.128-0.23-1.924-1.079-2.386-2.546
		c-0.347-1.035-0.492-2.372-0.434-4.012c0.058-1.38,0.318-2.667,0.781-3.861c0.462-1.193,1.041-2.034,1.735-2.523
		c0.375-0.259,0.824-0.446,1.344-0.561c0.723-0.201,1.417-0.23,2.082-0.086c0.578,0.086,1.055,0.288,1.431,0.604
		c0.115,0.086,0.188,0.101,0.217,0.044c0-0.057,0-0.373,0-0.949c0.058-1.15,0.131-2.373,0.217-3.667
		c0.058-0.604,0.102-0.992,0.131-1.164c0.086-1.209,0.231-2.646,0.434-4.315c0.058-0.518,0.115-1.021,0.173-1.51
		c0.232-2.099,0.448-3.465,0.651-4.099c0.202-0.632,0.491-1.035,0.867-1.208c0.347-0.144,0.781-0.201,1.301-0.172
		c0.694,0.028,1.127,0.216,1.301,0.561c0.145,0.288,0.188,1.711,0.13,4.271c-0.029,1.237-0.043,4.344-0.043,9.319
		c0,5.034-0.015,7.852-0.044,8.456c-0.058,0.719-0.086,1.603-0.086,2.653s0.028,1.806,0.086,2.266
		c0.028,0.518,0.072,0.863,0.13,1.035C159.98,136.145,159.952,136.433,159.836,136.605z"/>
</g>
<g>
	<path fill="#FFFFFF" d="M88.256,161.943c0.013-0.072,0.012-0.145,0.001-0.217c-4.52,5.439-11.379,8.819-14.606,15.334
		c-0.142,0.288-0.582,0.056-0.44-0.229c3.28-6.621,10.291-9.994,14.803-15.571c-0.143-0.149-0.327-0.248-0.498-0.252
		c-0.379-0.009-0.684,0.276-0.977,0.528c-1.636,1.403-3.684,2.031-5.806,1.845c0.95,2.559-4.409,3.197-5.709,2.676
		c0.733,0.294-0.587,3.868-0.744,4.137c-0.786,1.341-2.066,2.153-3.449,2.296c1.508-0.156-1.452,8.55-1.6,9.088
		c1.782-0.976,5.159-2.973,7.168-0.517c-0.649-0.794,0.657-3.64,1.098-4.045c1.055-0.966,3.187-0.833,4.533-0.687
		c-0.655-1.771-0.31-3.816,0.671-5.003c0.981-1.186,2.501-1.562,3.972-1.241c-2.154-0.471,0.911-7.232,1.307-7.678
		C88.094,162.277,88.219,162.141,88.256,161.943z"/>
	<path fill="#FFFFFF" d="M72.02,161.627c0.974-0.327,1.938-0.375,2.85,0.159c0.922,0.54,1.231,1.554,2,2.171
		c2.232-1.58,3.651-3.864,6.287-5.012c0.09-0.039,0.183-0.08,0.244-0.156c0.073-0.092,0.084-0.217,0.091-0.335
		c0.005-0.083,0.011-0.166,0.016-0.249c-4.342,0.406-8.721-0.891-12.732-2.458c-0.292-0.114-0.074-0.551,0.216-0.437
		c3.951,1.543,8.269,2.817,12.547,2.401c0.006-0.095,0.012-0.19,0.019-0.286c0.009-0.143-0.879-1.06-0.999-1.282
		c-0.239-0.441-0.445-0.905-0.678-1.343c-0.627-1.182-1.138-2.412-1.544-3.689c-1.425,1.329-3.15,1.646-4.596,0.207
		c-0.749,1.1-1.244,1.66-2.701,1.475c-0.92-0.117-1.659-1-2.236-1.735c-0.234-0.299-0.442-0.679-0.403-1.073
		c-1.896,1.602-3.769,1.857-6.113,2.427c0.788,1.02,1.113,1.63,1.533,3.02c0.192,0.638,1.26,2.973,0.704,3.788
		c1.12-0.559,2.284-0.429,3.365,0.115C70.973,159.88,71.436,160.646,72.02,161.627z"/>
	<path fill="#FFFFFF" d="M84.337,152.572c-0.624,0.363-1.267,0.736-1.934,1.056c0.135,0.132,0.29,0.252,0.451,0.377
		c0.072,0.055,0.143,0.111,0.213,0.168c0.894,0.723,1.564,1.667,2.213,2.579c0.564,0.793,1.147,1.614,1.865,2.263
		c1.332,1.204,2.92,1.738,4.531,1.585c0.034-0.012,0.068-0.023,0.103-0.035c0.428-0.146,0.871-0.298,1.329-0.485
		c0.161-0.065,0.316-0.166,0.481-0.272c0.297-0.191,0.634-0.408,1.052-0.426c0.107-0.005,0.212,0.001,0.315,0.014
		c0.031-0.412,0.032-0.817-0.139-1.13c-0.091-0.167-0.232-0.313-0.382-0.467c-0.194-0.199-0.407-0.421-0.523-0.718
		c-0.039,0.056-0.099,0.097-0.172,0.11c-0.158,0.028-0.312,0.032-0.46,0.018c-0.692-0.066-1.261-0.526-1.568-0.831
		c-0.222-0.221-0.42-0.462-0.612-0.695c-0.238-0.289-0.462-0.562-0.726-0.797c-0.109-0.097-0.119-0.264-0.022-0.374
		c0.097-0.109,0.265-0.119,0.374-0.022c0.295,0.262,0.543,0.564,0.784,0.856c0.192,0.233,0.373,0.454,0.576,0.656
		c0.242,0.24,0.878,0.786,1.564,0.667c0.065-0.011,0.128,0.003,0.18,0.035c-0.027-0.528,0.298-1.018,0.647-1.272l0,0
		c0.134-0.097,0.269-0.165,0.404-0.215c-0.111-0.09-0.212-0.18-0.296-0.269c-0.526-0.558-0.976-1.211-1.33-1.904
		c-0.008-0.011-0.016-0.021-0.024-0.032c-0.453-0.613-0.882-1.193-1.464-1.609c-1.2-0.857-3.038-0.91-4.916-0.142
		C85.981,151.617,85.145,152.102,84.337,152.572z M90.177,157.568c0.065-0.131,0.224-0.184,0.355-0.119
		c1.003,0.499,2.161,0.656,3.261,0.441c0.143-0.028,0.283,0.066,0.311,0.209c0.028,0.144-0.066,0.283-0.209,0.311
		c-0.532,0.104-1.076,0.129-1.613,0.078c-0.688-0.065-1.364-0.255-1.985-0.565C90.165,157.858,90.112,157.699,90.177,157.568z"/>
	<path fill="#FFFFFF" d="M107.978,166.219c-0.248-1.09-0.504-2.218-1.105-3.14c-0.427-0.655-1.04-1.206-1.776-1.622
		c-0.036-0.003-0.072-0.004-0.108-0.008c-0.314-0.03-0.628-0.077-0.943-0.142c-0.11-0.023-0.247-0.048-0.404-0.077
		c-0.654-0.121-1.327-0.259-1.919-0.439c-0.025,0.101-0.053,0.196-0.084,0.287c0.635,0.84,1.312,1.656,2.023,2.429l0.042,0.046
		c0.17,0.184,0.346,0.375,0.497,0.591c0.31,0.445,0.484,0.947,0.651,1.432c0.048,0.138-0.026,0.289-0.164,0.336
		c-0.037,0.013-0.075,0.017-0.111,0.013c-0.1-0.01-0.19-0.076-0.225-0.177c-0.156-0.451-0.317-0.918-0.585-1.302
		c-0.13-0.187-0.287-0.356-0.452-0.536l-0.042-0.046c-0.663-0.72-1.298-1.477-1.896-2.257c-0.122,0.173-0.266,0.307-0.431,0.403
		c0.367,0.672,0.8,1.306,1.297,1.892c0.095,0.111,0.081,0.278-0.031,0.373c-0.057,0.048-0.128,0.068-0.196,0.062
		c-0.066-0.006-0.13-0.037-0.177-0.092c-0.542-0.64-1.013-1.334-1.408-2.072c-0.281,0.019-0.554-0.062-0.815-0.181
		c0.09,0.544,0.305,1.08,0.5,1.568c0.19,0.474,0.386,0.964,0.643,1.405c0.363,0.623,0.866,1.173,1.454,1.59
		c0.119,0.085,0.147,0.25,0.062,0.369c-0.057,0.08-0.15,0.119-0.241,0.11c-0.045-0.004-0.089-0.02-0.128-0.048
		c-0.649-0.461-1.203-1.068-1.604-1.755c-0.277-0.475-0.48-0.983-0.677-1.475c-0.25-0.625-0.528-1.324-0.573-2.063
		c-0.088-0.049-0.174-0.096-0.26-0.14c0.148,1.113-0.162,2.224-0.437,3.206c-0.049,0.177-0.101,0.361-0.156,0.55
		c0.04,0.454,0.123,0.921,0.267,1.418c0.506,1.746,1.329,3.008,2.448,3.75l0.001,0.001c1.251,0.837,2.857,1.035,4.273,1.21
		c1.661,0.205,3.375,0.416,5.046,0.189c-0.91-1.438-1.588-3.001-2.016-4.651C108.131,166.894,108.053,166.551,107.978,166.219z"/>
	<path fill="#FFFFFF" d="M101.261,155.789c0.227,0.009,0.461,0.019,0.687,0.092c0.196,0.063,0.372,0.184,0.517,0.346
		c0.766-0.458,1.483-0.992,2.14-1.6c0.107-0.099,0.275-0.093,0.374,0.015c0.099,0.107,0.093,0.275-0.014,0.374
		c-0.682,0.631-1.426,1.186-2.221,1.662c0.002,0.004,0.003,0.007,0.005,0.011c0.063,0.16,0.1,0.326,0.112,0.491
		c1.011,0.217,2.133,0.101,2.909-0.567c0.111-0.096,0.278-0.083,0.373,0.028s0.083,0.278-0.028,0.373
		c-0.782,0.673-1.799,0.872-2.77,0.78c-0.181-0.017-0.36-0.045-0.536-0.081c-0.029,0.101-0.067,0.198-0.117,0.289
		c-0.088,0.159-0.197,0.289-0.302,0.414c-0.018,0.022-0.035,0.043-0.053,0.065c0.825,0.175,1.662,0.303,2.5,0.377h0.001
		c0.145,0.014,0.252,0.142,0.239,0.287c-0.013,0.146-0.142,0.253-0.287,0.24c-0.038-0.003-0.076-0.007-0.114-0.011
		c-0.882-0.084-1.763-0.226-2.63-0.417c-0.12,0.311-0.159,0.672-0.199,1.049c-0.009,0.087-0.019,0.174-0.03,0.261
		c0.682,0.213,1.456,0.357,1.921,0.443c0.161,0.03,0.302,0.056,0.415,0.079c2.264,0.468,4.534-0.045,6.391-1.444l0.176-0.132
		c0.847-0.637,1.648-1.239,2.315-2.079c0.092-0.116,0.552-0.963,0.856-1.524c0.164-0.303,0.288-0.531,0.385-0.704
		c-1.722-0.005-3.42-0.437-4.937-1.261c-0.268-0.145-0.532-0.304-0.787-0.458c-0.624-0.375-1.214-0.73-1.874-0.922
		c-1.742-0.508-3.071,0.136-3.879,0.767c-0.113,0.088-0.222,0.181-0.329,0.279c-0.327,1.026-0.794,1.865-1.377,2.47
		C101.145,155.783,101.201,155.786,101.261,155.789z"/>
	<path fill="#FFFFFF" d="M92.938,149.976c0.065,1.583,0.843,3.348,2.032,4.608c0.16,0.17,0.386,0.344,0.654,0.511
		c0.08-0.001,0.16-0.002,0.237-0.001c0.219,0.001,0.416,0.001,0.597-0.041c-0.323-0.492-0.548-1.05-0.764-1.625
		c-0.134-0.357-0.261-0.707-0.347-1.069c-0.219-0.92-0.161-1.917,0.164-2.806c0.05-0.137,0.202-0.208,0.339-0.158
		c0.137,0.05,0.208,0.202,0.158,0.339c-0.289,0.793-0.341,1.681-0.146,2.502c0.079,0.333,0.195,0.652,0.328,1.006
		c0.216,0.576,0.427,1.098,0.728,1.548c0.027-0.028,0.055-0.056,0.082-0.089c0.077-0.097,0.15-0.201,0.224-0.305
		c0.002-0.002,0.003-0.005,0.005-0.007c-0.098-0.545-0.157-1.122-0.175-1.73c-0.039-1.352,0.117-2.707,0.267-4.018
		c0.017-0.145,0.15-0.251,0.293-0.233c0.145,0.017,0.249,0.148,0.233,0.293c-0.148,1.292-0.302,2.629-0.264,3.943
		c0.012,0.41,0.045,0.803,0.095,1.182c0.174-0.176,0.376-0.322,0.624-0.391c0.276-0.076,0.582-0.046,0.889,0.087
		c0.017-0.124,0.032-0.252,0.044-0.386c0.024-0.264,0.038-0.536,0.052-0.799c0.032-0.613,0.065-1.248,0.22-1.864
		c0.036-0.142,0.18-0.228,0.321-0.193c0.142,0.036,0.228,0.179,0.193,0.321c-0.142,0.567-0.172,1.148-0.205,1.764
		c-0.014,0.268-0.029,0.545-0.053,0.819c-0.021,0.231-0.051,0.444-0.088,0.648c0.335,0.291,0.586,0.697,0.691,1.149
		c0.014,0.06,0.026,0.122,0.038,0.184c0.029,0.154,0.057,0.299,0.121,0.398c0.004,0.007,0.01,0.012,0.015,0.018
		c0.839-0.76,1.449-2.054,1.744-3.731c0.301-1.715,0.226-3.671-0.192-4.982c-0.315-0.988-0.885-1.94-1.436-2.86l-1.432-2.391
		c-0.597,0.959-1.605,1.651-2.585,2.323c-0.55,0.377-1.118,0.767-1.596,1.194c-1.42,1.268-2.186,3.033-2.103,4.842H92.938z"/>
	<path fill="#FFFFFF" d="M98.264,161.602L98.264,161.602c-0.011-0.082-0.028-0.174-0.056-0.261c-0.07-0.011-0.14-0.018-0.209-0.013
		c-0.267,0.016-0.546,0.159-0.841,0.31c-0.356,0.182-0.75,0.383-1.157,0.345c-0.117-0.011-0.236-0.042-0.355-0.099
		c-0.77-0.368-0.774-1.454-0.74-1.904c0.001-0.017,0.003-0.035,0.005-0.053c-0.022-0.003-0.043-0.008-0.065-0.01
		c-0.061-0.006-0.121-0.008-0.181-0.005c-0.275,0.012-0.525,0.172-0.789,0.342c-0.178,0.114-0.361,0.232-0.568,0.316
		c-0.473,0.193-0.923,0.347-1.358,0.495c-2.221,0.76-3.689,1.262-3.51,5.52l0.001,0.032l-0.006,0.031
		c-0.385,1.951-0.153,3.97,0.106,5.934l5.014-2.251c0.569-0.256,1.158-0.52,1.655-0.878c1.488-1.072,2.074-2.823,2.636-4.835
		C98.12,163.633,98.405,162.615,98.264,161.602z M91.911,164.035c0.529-1.099,1.486-1.978,2.626-2.412
		c0.137-0.052,0.29,0.016,0.342,0.153s-0.017,0.29-0.153,0.342c-1.014,0.386-1.866,1.169-2.337,2.147
		c-0.049,0.103-0.156,0.159-0.264,0.149c-0.03-0.003-0.061-0.011-0.09-0.025C91.903,164.325,91.848,164.167,91.911,164.035z
		 M91.76,167.983c-0.053,0.036-0.115,0.051-0.174,0.045c-0.075-0.007-0.147-0.047-0.194-0.114c-0.083-0.121-0.052-0.285,0.069-0.368
		c1.377-0.943,2.421-2.336,2.94-3.922c0.045-0.139,0.196-0.215,0.334-0.169c0.139,0.046,0.215,0.195,0.169,0.334
		C94.349,165.486,93.233,166.975,91.76,167.983z M96.483,162.426c-0.211,0.478-0.311,1.027-0.408,1.559
		c-0.145,0.798-0.296,1.623-0.819,2.291c-0.058,0.073-0.147,0.108-0.234,0.1c-0.049-0.004-0.097-0.023-0.138-0.055
		c-0.115-0.09-0.135-0.256-0.045-0.372c0.442-0.564,0.575-1.291,0.715-2.059c0.102-0.562,0.208-1.142,0.445-1.678
		c0.059-0.133,0.215-0.194,0.349-0.135C96.482,162.135,96.542,162.292,96.483,162.426z"/>
	<path fill="#FFFFFF" d="M95.433,160.019c-0.041,0.549,0.053,1.201,0.441,1.387c0.298,0.142,0.643-0.034,1.043-0.239
		c0.331-0.169,0.672-0.344,1.049-0.367c0.515-0.032,0.969,0.223,1.408,0.469c0.471,0.264,0.878,0.493,1.256,0.315
		c0.45-0.212,0.603-0.915,0.654-1.315c0.013-0.105,0.025-0.212,0.036-0.319c0.057-0.534,0.115-1.085,0.416-1.552
		c0.077-0.12,0.164-0.223,0.248-0.323c0.093-0.111,0.181-0.217,0.245-0.331c0.132-0.239,0.143-0.569,0.028-0.861
		c-0.099-0.251-0.271-0.433-0.472-0.498c-0.156-0.051-0.345-0.058-0.544-0.066c-0.392-0.016-0.879-0.036-1.159-0.467
		c-0.121-0.187-0.162-0.4-0.197-0.588c-0.01-0.055-0.021-0.109-0.033-0.163c-0.112-0.482-0.438-0.898-0.85-1.084
		c-0.141-0.064-0.351-0.128-0.557-0.071c-0.311,0.086-0.543,0.412-0.788,0.757c-0.079,0.111-0.158,0.222-0.24,0.326
		c-0.475,0.602-1.05,0.599-1.557,0.596c-0.38-0.002-0.738-0.005-1.07,0.236l0,0c-0.265,0.193-0.493,0.571-0.417,0.922
		c0.054,0.247,0.234,0.433,0.444,0.648c0.168,0.173,0.342,0.352,0.467,0.583c0.287,0.528,0.231,1.133,0.176,1.718
		C95.449,159.828,95.44,159.924,95.433,160.019z M99.802,159.972c-0.03,0.104-0.172,0.185-0.275,0.165
		c-0.121-0.023-0.252-0.06-0.352-0.136c-0.003-0.002-0.004-0.004-0.007-0.006c-0.112-0.036-0.213-0.1-0.246-0.214
		c-0.033-0.115-0.012-0.259,0.024-0.372c0.054-0.172,0.195-0.318,0.378-0.345c0.201-0.029,0.386,0.095,0.472,0.272
		C99.893,159.537,99.862,159.765,99.802,159.972z M99.297,157.564c0.08-0.12,0.188-0.22,0.337-0.24
		c0.21-0.028,0.376,0.104,0.477,0.275c0.151,0.257,0.15,0.67-0.153,0.819c-0.174,0.085-0.376,0.046-0.546-0.029
		c-0.172-0.076-0.362-0.193-0.391-0.397C98.989,157.782,99.123,157.644,99.297,157.564z M98.521,155.833
		c0.029-0.099,0.128-0.181,0.223-0.195c0.083-0.012,0.152,0.015,0.204,0.063c0.081,0.038,0.148,0.112,0.165,0.215
		c0.013,0.078,0.006,0.164-0.002,0.243c-0.017,0.186-0.204,0.26-0.363,0.214c-0.12-0.034-0.23-0.11-0.272-0.222
		C98.427,156.055,98.453,155.931,98.521,155.833z M97.946,158.483c0.009-0.002,0.024-0.005,0.024-0.005l-0.021,0.006l0,0
		c0.015-0.004,0.03-0.008,0.044-0.013c0.065-0.017,0.133-0.016,0.197,0.007c0.189,0.07,0.209,0.276,0.17,0.446
		c-0.032,0.141-0.141,0.249-0.294,0.231c-0.135-0.015-0.28-0.064-0.336-0.201c-0.001-0.001-0.001-0.003-0.001-0.004
		c-0.091-0.07-0.123-0.2-0.084-0.309C97.689,158.519,97.825,158.461,97.946,158.483z M97.016,156.557
		c0.398-0.069,0.867,0.37,0.704,0.778c-0.09,0.226-0.344,0.329-0.566,0.37c-0.131,0.024-0.261,0.016-0.372-0.038
		c-0.049-0.014-0.096-0.035-0.139-0.065c-0.143-0.099-0.204-0.27-0.184-0.44C96.492,156.88,96.734,156.606,97.016,156.557z
		 M96.428,159.277c0.126-0.1,0.298-0.113,0.452-0.101c0.092,0.007,0.176,0.073,0.212,0.156c0.017,0.038,0.021,0.074,0.019,0.11
		c0.021,0.022,0.04,0.046,0.052,0.073c0.06,0.136-0.007,0.284-0.134,0.349c-0.03,0.015-0.062,0.028-0.096,0.04
		c-0.04,0.049-0.089,0.084-0.159,0.095c-0.087,0.013-0.171-0.02-0.231-0.082c-0.126-0.037-0.228-0.121-0.257-0.278
		C96.26,159.5,96.317,159.366,96.428,159.277z"/>
	<path fill="#FFFFFF" d="M114.205,160.371c0.425-0.513,0.82-1.049,1.248-1.56c0.025-0.03,0.042-0.063,0.056-0.096
		c0.024-0.024,0.053-0.052,0.091-0.086c0.85-0.747,3.637-3.02,4.681-1.641c-0.17-1.119-0.194-2.26,0.34-3.288s1.356-1.515,2.5-1.487
		c-0.342-1.3-0.954-2.457-0.872-3.893c0.034-0.601,0.725-2.126,1.585-1.997c-1.935-1.456-1.912-3.502-1.752-5.728
		c-0.743,0.78-3.526,4.206-4.388,3.705c0.29,1.087,0.619,1.999,0.168,3.198c-0.09,0.241-1.194,1.713-1.746,1.219
		c0.51,1.136,1.726,4.183-0.261,4.385c0.306,1.647-0.039,3.037-0.841,4.486c-0.128,0.232-0.298,0.461-0.316,0.72
		c-0.381,0.574-0.736,1.152-1.003,1.788C113.562,160.415,114.002,160.615,114.205,160.371z M116.055,155.85
		c2.012-2.568,2.832-5.611,3.825-8.659c0.09-0.277,0.528-0.161,0.438,0.116c-1.007,3.091-1.831,6.169-3.873,8.772
		C116.268,156.306,115.876,156.079,116.055,155.85z"/>
	<path fill="#FFFFFF" d="M139.437,150.5c-0.254,0.007-2.802-0.398-2.729-0.498c-1.389,1.903-4.458,2.269-6.255,0.744
		c-0.539,1.708-2.687,2.293-4.475,2.182c0.673,0.042-0.471,2.42-1.196,3.79c-5.375,3.061-11.546,4.644-17.724,4.564
		c-0.106,0.101-0.195,0.212-0.222,0.33c0.027,0.064,0.074,0.133,0.13,0.21c1.17,0.018,2.341-0.026,3.506-0.125
		c1.226,0.916,2.232,6.13,1.958,7.216c-0.03,0.12-0.07,0.248-0.03,0.363c0.11,0.317,0.598,0.216,0.949,0.152
		c0.988-0.179,1.941,0.504,2.353,1.358c0.411,0.854,0.406,1.839,0.393,2.789c0.895-0.46,2.026-0.453,2.883,0.02
		c0.857,0.472,1.411,1.393,1.412,2.346c0.219-0.085,0.433-0.152,0.643-0.203c2.543-0.622,4.391,1.101,6.801,1.185
		c-0.251-1.131-1.358-1.917-1.886-2.943c-0.136-0.266-0.965-3.176-0.816-3.15c-2.86-0.496-4.826-3.564-4.007-6.252
		c-2.209,0.305-3.957-1.673-4.736-3.626c0.306,0.767-3.267,0.742-5.138,0.668c2.36-0.251,4.694-0.736,6.957-1.45
		c0.032,0.061,0.096,0.104,0.18,0.074c0.003-0.001,0.007-0.002,0.01-0.003c1.131,0.941,2.372,1.727,3.704,2.35
		c-0.094,0.182-0.155,0.377-0.125,0.576c0.032,0.212,0.162,0.396,0.306,0.555c0.263,0.288,0.605,0.529,0.993,0.567
		c0.786,0.076,1.456-0.779,1.251-1.553c-0.043-0.16-0.119-0.309-0.218-0.442c0.394,0.074,0.791,0.138,1.189,0.195
		c-0.001,0.622,0.476,1.079,1.083,1.181c0.184,0.031,0.378,0.034,0.553-0.032c0.232-0.088,0.404-0.286,0.548-0.488
		c0.495-0.693,0.409-1.778-0.489-2.102c-0.2-0.072-0.399-0.076-0.586-0.029c-0.518,0.13-0.948,0.648-1.075,1.165
		c-0.559-0.081-1.117-0.172-1.668-0.291c-0.024-0.014-0.047-0.029-0.071-0.042c-0.213-0.114-0.46-0.176-0.698-0.145
		c-0.257-0.069-0.512-0.143-0.764-0.228c-1.148-0.387-2.248-0.913-3.349-1.418c1.2-0.327,2.457-0.367,3.671-0.117
		c-0.051,0.146-0.076,0.298-0.053,0.451c0.036,0.243,0.186,0.454,0.351,0.635c0.301,0.33,0.692,0.606,1.137,0.649
		c0.9,0.087,1.667-0.892,1.432-1.778c-0.116-0.437-0.443-0.801-0.842-1.014c-0.289-0.155-0.634-0.235-0.949-0.143
		c-0.354,0.104-0.612,0.406-0.819,0.711c-0.044,0.065-0.087,0.133-0.127,0.203c-0.905-0.194-1.832-0.235-2.746-0.121
		c1.461-0.55,2.885-1.198,4.261-1.939c-0.014,0.024-0.026,0.044-0.033,0.055c0.016-0.025,0.037-0.047,0.059-0.069
		c0.103-0.056,0.207-0.111,0.31-0.168c1.338-0.424,5.413,0.588,6.129,1.139c0.083,0.064,0.167,0.137,0.271,0.148
		c0.285,0.03,0.378-0.36,0.451-0.636c0.208-0.779,1.073-1.234,1.879-1.237s1.569,0.342,2.301,0.68
		c-0.043-0.809,0.36-1.627,1.028-2.086c0.667-0.459,1.576-0.542,2.315-0.212c0.011-0.189,0.034-0.367,0.068-0.537
		c0.411-2.061,2.396-2.806,3.307-4.525C141.417,149.941,140.418,150.473,139.437,150.5z M113.645,163.092
		c1.094,0.706,2.282,1.154,3.167,2.146c0.839,0.941,1.442,2.081,2.156,3.114c0.95,1.373,2.295,3.961,4.102,4.256
		c0.288,0.047,0.196,0.491-0.091,0.444c-1.652-0.269-2.879-2.291-3.759-3.54c-0.633-0.9-1.229-1.82-1.833-2.739
		c-0.551-0.837-1.148-1.611-1.998-2.165c-0.632-0.412-1.331-0.71-1.966-1.119C113.18,163.329,113.4,162.934,113.645,163.092z
		 M122.643,161.898c-0.149,0.117-0.273,0.272-0.382,0.43c-1.064-0.496-2.069-1.097-3.006-1.801c0.994,0.459,1.993,0.919,3.032,1.261
		C122.405,161.827,122.524,161.862,122.643,161.898z M136.828,153.129c-3.201,1.981-7.316,1.025-10.474,3.094
		c-0.244,0.16-0.471-0.232-0.227-0.392c3.164-2.072,7.274-1.114,10.464-3.088C136.838,152.59,137.077,152.975,136.828,153.129z"/>
	<path fill="#FFFFFF" d="M75.715,144.177c1.22,0.72,2.443,1.204,3.782,1.497c-0.337,0.463-0.778,0.753-1.373,0.903
		c-0.405,0.102-0.812,0.12-1.203,0.107c-0.023-0.302-0.173-0.599-0.454-0.778c-1.167-0.744-2.304,0.645-1.336,1.632
		c0.562,0.573,1.431,0.297,1.715-0.372c0.021-0.05,0.038-0.103,0.051-0.157c0.429,0.014,0.869-0.009,1.308-0.116
		c0.566-0.137,1.026-0.413,1.447-0.867c0.032-0.034,0.059-0.068,0.083-0.102c-0.032,0.044,0.748,0.75,0.823,0.818
		c0.298,0.271,0.606,0.529,0.923,0.779c0.45,0.354,0.915,0.688,1.387,1.011c-0.353-0.144-0.817-0.287-0.944-0.325
		c-0.619-0.187-0.94-0.382-1.469-0.461c-1.001-0.15-1.999-0.07-2.424,0.921c-0.114,0.266-0.039,0.471,0.067,0.685
		c0.106,0.215,0.2,0.334,0.418,0.478c0.634,0.417,1.401,0.491,2.138,0.238c0.816-0.28,1.504-0.797,2.356-1.002
		c0.099-0.024,0.218-0.037,0.3-0.124c0.029-0.03,0.036-0.061,0.031-0.091c0.057,0.038,0.113,0.076,0.17,0.114
		c0.489,0.322,0.98,0.635,1.475,0.95c0.558,0.355,1.135,0.723,1.696,1.097c0.026,0.017,0.053,0.027,0.08,0.029
		c0.047,0.004,0.094-0.012,0.129-0.049c0.013-0.009,0.021-0.026,0.026-0.035c0.003-0.006,0.005-0.013,0.007-0.02
		c0,0,0.003-0.008,0.002-0.009c0.01-0.053,0-0.133-0.063-0.175c-0.5-0.328-1.015-0.654-1.514-0.97
		c-0.024-0.015-0.047-0.03-0.071-0.046c0.032-0.048,0.06-0.109,0.082-0.195c0.106-0.426,0.386-0.764,0.723-1.126
		c0.698-0.749,1.187-1.647,0.906-2.689c-0.066-0.245-0.156-0.369-0.329-0.538c-0.173-0.169-0.345-0.3-0.639-0.287
		c-1.096,0.046-1.516,1.062-1.663,2.029c-0.09,0.586,0.059,1.093,0.138,1.632c0.042,0.287,0.094,0.523,0.159,0.776
		c-0.157-0.1-0.316-0.2-0.471-0.301c-0.638-1.085-1.034-2.278-1.227-3.705c0.476-0.049,0.91-0.379,1.087-0.873
		c0.189-0.526-0.014-1.183-0.561-1.482c-1.469-0.805-2.729,0.921-1.477,2.035c0.196,0.175,0.413,0.273,0.632,0.31
		c0.164,1.3,0.469,2.367,0.955,3.329c-0.053-0.106-0.344-0.23-0.445-0.3c-0.153-0.105-0.306-0.211-0.458-0.318
		c-0.299-0.212-0.593-0.429-0.882-0.654c-1.099-0.857-2.109-1.828-2.853-3.003c0.386-0.644,0.944-1.104,1.347-1.763
		c0.384-0.628,0.646-1.275,0.504-1.956c-0.043-0.207-0.115-0.328-0.255-0.464c-0.14-0.137-0.295-0.243-0.546-0.204
		c-0.937,0.145-1.379,1.057-1.53,1.966c-0.081,0.49-0.012,0.924-0.011,1.38c0,0.055,0.002,0.104,0.004,0.154
		c-0.42-0.892-0.665-1.85-0.755-2.828c0.183-0.062,0.361-0.159,0.521-0.291c0.449-0.369,0.644-1.051,0.291-1.576
		c-0.949-1.411-2.998-0.527-2.386,1.13c0.227,0.615,0.731,0.861,1.25,0.808c0.18,1.842,0.838,3.304,1.799,4.541
		c-1.129-0.276-2.204-0.726-3.308-1.378c0.002-0.004,0.005-0.009,0.007-0.013c0.221-0.516,0.078-1.195-0.45-1.531
		c-1.42-0.902-2.802,0.781-1.626,1.979C74.403,144.938,75.27,144.764,75.715,144.177z"/>
</g>
<g>
	<path fill="#FFFFFF" d="M45.619,129.248c0.68,0.559,1.356,1.122,2,1.713c1.034,0.949,1.998,1.932,3.063,2.833
		c-0.021,1.842,0.053,3.695-2.094,4.072c-1.99,0.35-2.594-1.04-2.951-2.44c-0.106-0.414-0.104-0.898-0.094-1.436
		C45.569,132.433,45.598,130.843,45.619,129.248z"/>
	<path fill="#FFFFFF" d="M45.605,119.724c0.693,0.577,1.385,1.156,2.071,1.741c0.992,0.845,2.211,1.625,3.196,2.538
		c-0.017,2.087-0.066,4.179-0.113,6.17c-0.424-0.418-0.85-0.834-1.295-1.228c-1.243-1.1-2.574-2.116-3.813-3.215
		c0.002-0.601,0.003-1.201,0.001-1.798C45.646,122.539,45.625,121.121,45.605,119.724z"/>
	<path fill="#FFFFFF" d="M45.201,112.719c0.647-0.137,1.319-0.165,2.017-0.026c1.294,0.258,2.359,0.938,3.347,1.706
		c0.183,1.895,0.27,3.988,0.3,6.156c-0.31-0.239-0.614-0.478-0.907-0.721c-1.439-1.196-2.869-2.397-4.316-3.585
		c0.023-0.897,0.013-1.79-0.151-2.684C45.398,113.281,45.3,113,45.201,112.719z"/>
	<path fill="#FFFFFF" d="M42.275,108.23c0.841-0.66,1.847-1.031,2.912-1.258c2.548,0.636,3.989,1.584,4.754,3.929
		c-0.706-0.335-1.461-0.592-2.293-0.72c-1.91-0.296-3.594,0.095-5.169,0.788c-0.934-0.04-1.794,0.051-2.59,0.329
		C40.187,110.127,41.332,108.97,42.275,108.23z"/>
</g>
<g>
	<path fill="#FFFFFF" d="M112.343,104.991c1.872,1.13,3.778,2.139,3.778,2.139c-0.722-2.387-4.866-7.904-4.866-7.904
		c-1.946,1.36-3.987,2.922-6.066,4.712c-1.118,0.963-2.166,1.921-3.147,2.865c1.217,0.898,2.811,1.913,4.785,2.807
		c2.195,0.994,4.204,1.542,5.795,1.855c0.042-1.284,0.03-2.666-0.063-4.132C112.507,106.528,112.433,105.747,112.343,104.991z"/>
	<path fill="#FFFFFF" d="M101.38,106.04c0,0-1.592,0.929-1.25,1.663c0.342,0.733,11.185,6.14,12.729,5.989
		c1.544-0.151,0.809-2.004,0.586-2.335C113.222,111.025,101.38,106.04,101.38,106.04z"/>
	<path fill="#FFFFFF" d="M115.718,106.876c-0.414,0.281-0.7,0.868-0.673,1.379c0.026,0.5,0.316,0.868,0.644,1.121
		c0.266,0.205,0.575,0.359,0.92,0.353c1.331-0.026,2.244-1.913,0.912-2.624C116.937,106.794,116.362,106.439,115.718,106.876z"/>
</g>
<path fill="#FFFFFF" d="M57.319,109.309c-0.68-0.714-1.603-1.23-2.517-1.639c-4.078-1.822-8.749-2.167-13.088-1.173
	c-2.499,0.573-11.826,3.661-8.891,7.667c0.696,0.95,2.084,1.316,3.157,0.833c1.02-0.459,1.625-1.503,2.447-2.262
	c1.721-1.589,4.267-1.83,6.61-1.849c2.859-0.023,5.864,0.206,8.274,1.746c1.03,0.658,2.094,1.584,3.296,1.363
	c1.447-0.266,2.069-2.191,1.485-3.541C57.905,110.023,57.639,109.644,57.319,109.309z"/>
<g>
	<path fill="#FFFFFF" d="M119.949,125.194c-0.084-0.565-0.331-1.123-0.737-1.676c-0.118-0.168-0.199-0.218-0.238-0.233
		c-0.153-0.064-0.377-0.173-0.675-0.328c-0.391-0.204-0.48-0.233-0.494-0.237c-0.078-0.01-0.191-0.052-0.332-0.127
		c-0.476-0.235-1.153-0.356-2.007-0.356c-0.943,0-1.728,0.131-2.33,0.388c-0.387,0.159-0.717,0.347-0.985,0.558
		c-0.357,0.273-0.69,0.629-0.99,1.058c-0.386,0.59-0.696,1.277-0.919,2.036c-0.026,0.139-0.1,0.4-0.219,0.776
		c-0.254,0.782-0.44,1.712-0.553,2.764c-0.17,1.492-0.1,2.882,0.21,4.132c0.247,1.104,0.827,1.863,1.776,2.33
		c0.604,0.303,1.419,0.492,2.423,0.565c0.523,0.028,1.086,0.015,1.647-0.045c0.686-0.086,1.284-0.26,1.775-0.518
		c0.323-0.154,0.618-0.38,0.885-0.672c0.298-0.324,0.56-0.758,0.778-1.288c0.164-0.442,0.321-0.996,0.464-1.638
		c0.14-0.73,0.328-2.174,0.561-4.282c0.026-0.396,0.048-0.917,0.063-1.555c0.018-0.815-0.004-1.08-0.019-1.165
		C120.03,125.618,120.024,125.528,119.949,125.194z M118.359,132.529c-0.013,0.239-1.284,0.368-2.944,0.319
		c0.126,0.153,0.212,0.341,0.212,0.555c0,0.488-0.396,0.884-0.884,0.884s-0.884-0.396-0.884-0.884c0-0.245,0.1-0.466,0.26-0.626
		c-1.631-0.132-2.856-0.395-2.843-0.632l0.036-0.664c0.067-0.067,0.131-0.136,0.194-0.206c0.412-0.463,0.701-0.98,0.878-1.525
		c0.113-0.348,0.165-0.712,0.185-1.077l0.042-0.767c0.075-1.387,1.293-2.441,2.691-2.299c1.309,0.133,2.258,1.318,2.187,2.632
		l-0.038,0.702c-0.02,0.368-0.007,0.738,0.069,1.099c0.117,0.556,0.348,1.098,0.705,1.599c0.055,0.077,0.111,0.152,0.171,0.226
		L118.359,132.529z"/>
	<path fill="#FFFFFF" d="M120.53,125.638c0-0.069-0.011-0.188-0.09-0.535c-0.093-0.629-0.37-1.262-0.822-1.877
		c-0.146-0.208-0.296-0.341-0.456-0.404c-0.141-0.059-0.351-0.161-0.632-0.309c-0.477-0.249-0.577-0.277-0.646-0.287
		c-0.002,0-0.049-0.007-0.184-0.078c-0.552-0.273-1.305-0.412-2.235-0.412c-1.011,0-1.861,0.145-2.524,0.427
		c-0.425,0.176-0.796,0.386-1.097,0.624c-0.396,0.302-0.765,0.694-1.099,1.172c-0.417,0.638-0.748,1.37-0.99,2.198
		c-0.027,0.141-0.098,0.391-0.209,0.742c-0.265,0.813-0.458,1.776-0.574,2.861c-0.177,1.55-0.102,2.999,0.221,4.302
		c0.276,1.237,0.963,2.133,2.04,2.663c0.662,0.331,1.54,0.538,2.614,0.616c0.188,0.01,0.379,0.016,0.571,0.016
		c0.379,0,0.77-0.021,1.165-0.063c0.749-0.094,1.405-0.286,1.942-0.567c0.373-0.179,0.72-0.442,1.029-0.782
		c0.336-0.366,0.63-0.849,0.875-1.442c0.176-0.473,0.339-1.049,0.487-1.719c0.146-0.762,0.332-2.178,0.568-4.339
		c0.029-0.411,0.051-0.94,0.066-1.589C120.566,126.194,120.558,125.782,120.53,125.638z M120.302,126.851
		c-0.015,0.643-0.037,1.168-0.065,1.576c-0.232,2.117-0.42,3.553-0.565,4.309c-0.145,0.65-0.303,1.21-0.477,1.679
		c-0.232,0.559-0.506,1.013-0.824,1.361c-0.289,0.317-0.607,0.559-0.954,0.725c-0.521,0.272-1.143,0.454-1.865,0.545
		c-0.579,0.061-1.143,0.076-1.692,0.045c-1.041-0.076-1.88-0.272-2.516-0.59c-1.012-0.499-1.648-1.33-1.908-2.495
		c-0.318-1.285-0.391-2.691-0.217-4.219c0.115-1.073,0.303-2.011,0.564-2.812c0.115-0.363,0.188-0.62,0.217-0.771
		c0.231-0.786,0.549-1.489,0.954-2.109c0.318-0.454,0.664-0.824,1.041-1.111c0.289-0.227,0.636-0.423,1.041-0.59
		c0.635-0.272,1.445-0.408,2.429-0.408c0.896,0,1.605,0.129,2.125,0.386c0.115,0.061,0.202,0.095,0.261,0.102
		c0.058,0.008,0.245,0.095,0.564,0.261c0.288,0.152,0.505,0.257,0.651,0.318c0.115,0.045,0.231,0.151,0.347,0.317
		c0.434,0.59,0.694,1.18,0.781,1.769c0.058,0.257,0.087,0.423,0.087,0.499C120.308,125.804,120.316,126.208,120.302,126.851z"/>
	<path fill="#FFFFFF" d="M114.742,132.519c-0.243,0-0.464,0.099-0.623,0.258c0.218,0.018,0.442,0.033,0.672,0.046
		c0.213,0.012,0.42,0.019,0.623,0.025C115.252,132.652,115.017,132.519,114.742,132.519z"/>
</g>
</svg>
