<?xml version="1.0" encoding="utf-8"?>
<!-- Generator: Adobe Illustrator 17.0.0, SVG Export Plug-In . SVG Version: 6.00 Build 0)  -->
<!DOCTYPE svg PUBLIC "-//W3C//DTD SVG 1.1//EN" "http://www.w3.org/Graphics/SVG/1.1/DTD/svg11.dtd">
<svg version="1.1" id="Layer_1" xmlns="http://www.w3.org/2000/svg" xmlns:xlink="http://www.w3.org/1999/xlink" x="0px" y="0px"
	 width="180px" height="104.535px" viewBox="10 47.732 180 104.535" enable-background="new 10 47.732 180 104.535"
	 xml:space="preserve">
<path opacity="0.44" fill="#00A3AA" enable-background="new    " d="M173.469,103.296c0.059,0.007,0.115,0.014,0.169,0.022
	c4.194,0.568,8.409,2.052,11.412,5.034c2.936,2.915,4.461,7.035,4.842,11.154s-0.298,8.267-1.261,12.29
	c-0.893,3.729-2.177,7.624-5.143,10.053c-2.497,2.045-5.854,2.744-9.082,2.785c-4.453,0.056-8.915-1.03-12.843-3.127
	c-2.068-1.104-4.036-2.532-5.288-4.514s-1.679-4.595-0.643-6.698c1.56-3.168,5.737-4.099,9.226-3.554
	c2.845,0.444,6.206,1.457,8.267-0.554c1.327-1.295,1.482-3.372,1.269-5.214c-0.51-4.413-2.706-8.61-6.041-11.546
	c-0.803-0.707-1.685-1.361-2.258-2.265C163.307,102.762,170.931,102.987,173.469,103.296z"/>
<path opacity="0.44" fill="#249F65" enable-background="new    " d="M123.447,119.209c0.341-0.087,0.677-0.196,1.006-0.327
	c2.599-1.036,4.583-3.305,5.696-5.871c1.113-2.567,1.429-5.416,1.388-8.213c-0.018-1.267-0.118-2.574-0.697-3.7
	c-0.931-1.809-2.884-2.795-4.566-3.939c-2.858-1.945-5.196-4.648-6.707-7.758c-1.019-2.096-1.701-4.42-3.268-6.145
	c-4.281-4.711-16.662-2.898-14.433,5.176c0.6,2.173,2.179,3.951,3.934,5.366c1.756,1.415,3.724,2.547,5.488,3.951
	c1.207,0.961,2.359,2.12,2.778,3.604c0.74,2.617-0.975,5.239-1.443,7.918c-0.532,3.042,0.696,6.33,3.093,8.278
	C117.84,119.273,120.804,119.886,123.447,119.209z"/>
<path opacity="0.44" fill="#B32025" enable-background="new    " d="M17.264,137.899c0.164,1.03-0.059,2.167-0.035,3.238
	c0.063,2.772,1.909,5.277,4.254,6.756s5.135,2.076,7.886,2.424c2.927,0.37,5.947,0.481,8.782-0.338
	c2.834-0.819,5.479-2.684,6.664-5.386c0.976-2.227,0.886-4.756,1.359-7.141c0.181-0.914,0.448-1.831,0.377-2.76
	c-0.2-2.605-2.94-4.29-5.515-4.732c-3.082-0.529-6.234,0.076-9.361,0.08c-4.101,0.005-8.615-1.35-10.666-4.902
	c-0.818-1.416-1.175-3.07-2.055-4.449c-3.982-6.238-8.464,3.693-8.881,7.194c-0.257,2.158,0.121,4.626,1.847,5.947
	c1.557,1.191,3.98,1.278,4.967,2.972C17.088,137.147,17.203,137.516,17.264,137.899z"/>
<path d="M95.002,95.889c0.061-0.043,0.126-0.08,0.194-0.108c0.314-0.131,0.666-0.124,1.006-0.114
	c1.743,0.049,3.486,0.097,5.228,0.146c6.348,0.177,12.65,0.429,18.819,2.051c0.486,0.128,1.259,0.834,1.37-0.402
	c0.662-7.4,0.602-14.737-1.9-21.865c-2.7-7.696-8.076-13.318-14.229-18.32c-3.085-2.508-6.326-4.812-9.66-6.98
	c-0.386-0.251-0.776-0.531-1.205-0.668c-0.408-0.13-0.856-0.628-1.251-0.266c-0.38,0.348-0.065,0.861,0.078,1.295
	c0.706,2.149,2.173,3.91,3.042,5.976c-0.247,0.049-0.494,0.097-0.74,0.146c-1.392-2.119-2.794-4.233-3.34-6.769
	c-0.241-1.119-1-1.086-1.647-0.547c-1.569,1.307-2.01,3.31-2.822,5.071c-0.094,0.205,0.362,0.65,0.539,0.996
	c0.688,1.346,0.178,2.924-1.127,3.514c-1.115,0.504-2.573-0.031-3.079-1.13c-0.61-1.324-0.044-2.938,1.382-3.402
	c0.769-0.251,1.116-0.657,1.369-1.326c0.182-0.481,0.422-0.942,0.656-1.402c2.564-5.038,3.567-4.813,8.199-2.388
	c3.439,1.801,6.527,4.311,9.656,6.658c8.71,6.534,14.559,14.959,16.646,25.783c0.992,5.142,1.056,10.32,0.38,15.501
	c-0.106,0.809-0.068,1.298,0.606,1.907c2.56,2.312,2.791,6.844,0.609,9.586c-0.19,0.239-0.513,0.341-0.395,0.827
	c0.824,3.38,0.516,4.16-2.241,5.962c3.264,4.017,3.923,8.88,4.239,13.777c0.115,1.774,0.144,3.407,1.49,4.717
	c-0.065,0.376-0.178,0.709-0.648,0.72c-0.106-0.94-0.62-1.323-1.575-1.467c-1.734-0.261-3.439-0.161-5.136,0.137
	c-0.818,0.144-1.792,0.283-1.998,1.327c-0.192,0.976,0.246,1.787,0.961,2.451c1.691,1.569,4.203,1.81,6.553,0.629
	c0.253,0.112,0.506,0.224,0.758,0.336c-0.465,0.424-0.3,0.638,0.161,1.01c2.665,2.148,2.997,5.73,0.657,8.2
	c-3.819,4.03-8.593,5.499-13.998,4.514c-3.242-0.591-4.795-2.582-5.075-5.897c-0.061-0.725-0.168-1.245-0.932-1.383
	c-0.969-0.175-2.173-1.05-2.878-0.116c-1.253,1.659-2.364,1.193-3.587,0.192c-0.142,0.135-0.284,0.208-0.284,0.28
	c0.018,3.782-1.164,5.384-4.824,6.195c-3.675,0.814-7.357,0.553-10.936-0.511c-2.946-0.876-4.446-3.233-4.329-6.318
	c0.046-1.203,0.33-1.708,1.636-2.817c-1.404-0.843-2.523-1.891-2.923-3.55c-0.193-0.802-0.187-1.689,0.378-2.096
	c1.145-0.827,0.784-1.708,0.589-2.766c-0.521-2.838,0.214-5.507,1.507-8.004c1.905-3.678,3.752-7.402,6.715-10.41
	c0.386-0.391,0.564-0.986,0.9-1.597c-1.511-0.805-3.226-1.439-3.04-3.619c0.159-1.869,1.519-2.884,2.793-3.997
	c-1.991-1.344-3.585-2.915-3.752-5.456c-0.079-0.206-0.159-0.412-0.238-0.617c-0.167-0.478-0.208-0.953,0.023-1.425
	c0.058-0.127,0.117-0.253,0.175-0.38c0.208-0.741,0.747-1.119,1.448-1.319c0.384-0.012,0.798,0.041,0.972-0.438
	c0.053-0.461-0.058-0.952,0.25-1.367c0.043-0.21,0.085-0.42,0.128-0.63c0.037-0.239,0.073-0.479,0.11-0.718
	c0.078-0.225,0.157-0.45,0.235-0.675c0.318-1.792,1.269-3.26,2.426-4.602c0.29-0.336,0.601-1.164,1.244-0.31
	c-0.282,0.105-0.442,0.307-0.482,0.605c-1.393,2.073-2.626,4.216-2.96,6.754c-0.467,0.78-0.051,1.016,0.656,1.027
	c0.953,0.015,1.906,0.011,2.859-0.009c0.459-0.01,0.631,0.131,0.414,0.579c-0.957,0.033-1.914,0.073-2.871,0.097
	c-1.431,0.035-2.842,0.115-3.8,1.416c-0.349,0.286-0.333,0.62-0.129,0.979c0.071,0.248,0.143,0.495,0.214,0.743
	c0.288,0.481,0.64,0.433,1.024,0.123c0.359,0.008,0.719,0.017,1.078,0.025c0.238,0.062,0.476,0.123,0.715,0.185l0.163-0.024
	l0.139,0.088c0,0.2,0,0.399,0.001,0.599c-0.23,0.014-0.46,0.021-0.688,0.045c-0.649,0.068-1.574-0.378-1.867,0.38
	c-0.312,0.807,0.338,1.458,1.014,1.971c1.141,0.866,2.248,1.777,3.428,2.717c-1.728,0.549-3.178,1.362-3.723,3.223
	c-0.259,0.884-0.046,1.611,0.624,2.174c0.704,0.592,1.572,1.296,2.461,0.74c1.991-1.245,4.164-1.22,6.351-1.237
	c0.734-0.006,1.241-0.054,1.567-0.918c0.678-1.795,2.184-2.768,3.938-3.372c3.663-1.261,7.642-0.153,8.982,2.656
	c0.451,0.945,1.019,1.208,1.921,1.377c2.022,0.378,3.699,1.4,4.625,3.273c0.641,1.297,1.696,1.316,2.77,1.16
	c1.671-0.243,2.839-1.226,3.288-2.9c0.314-1.17-0.249-1.954-1.207-2.608c-2.171-1.483-4.577-2.396-7.09-3.064
	c-5.247-1.395-10.705-1.595-15.984-2.796c-2.742-0.624-5.444-1.423-8.159-2.164c-0.287-0.078-0.743-0.137-0.614-0.622
	c0.066-0.25,0.333-0.261,0.569-0.167c0.216,0.05,0.432,0.1,0.648,0.149c1.13,0.225,2.26,0.449,3.39,0.674
	c0.169,0.04,0.339,0.081,0.508,0.121c0.348,0.334,0.795,0.29,1.223,0.318c1.317,0.498,2.651,0.928,4.067,1.037
	c0.142,0.056,0.284,0.112,0.425,0.168c1.493,0.246,2.986,0.491,4.479,0.737c2.299,0.34,4.598,0.681,6.897,1.021
	c1.185,0.253,2.369,0.505,3.554,0.758c0.768,0.372,1.561,0.667,2.414,0.771l-0.014-0.007c0.121,0.073,0.243,0.146,0.364,0.219
	c0.168,0.062,0.337,0.125,0.505,0.187c0.689,0.378,1.421,0.695,2.058,1.147c1.32,0.935,2.181,0.545,2.783-0.826
	c0.673-1.532,0.644-3.33,0.144-4.906c-0.218-0.688-0.54-1.348-1.011-1.901c-0.223-0.263-0.477-0.5-0.761-0.697
	c-0.267-0.185-0.707-0.266-0.936-0.464c-0.481-0.416-1.112-0.415-1.676-0.598c-0.467-0.087-0.934-0.174-1.402-0.261
	c-0.322-0.279-0.705-0.212-1.08-0.193c-0.231-0.036-0.461-0.072-0.692-0.108c-0.303-0.279-0.671-0.257-1.041-0.222
	c-1.247-0.367-2.523-0.475-3.817-0.419c-0.215-0.044-0.431-0.087-0.646-0.131c-0.578-0.249-1.179-0.214-1.784-0.15
	c-0.346-0.014-0.692-0.028-1.038-0.042c-1.26-0.27-2.531-0.387-3.819-0.273c-3.14,0.277-6.512-0.147-9.664-0.222
	C94.623,96.295,94.781,96.047,95.002,95.889z M88.311,123.692c-2.166,3.032-2.775,6.496-2.83,10.121
	c-0.011,0.706,0.288,0.903,0.949,1.116c1.627,0.524,2.13,1.741,1.716,3.419c-0.212,0.86-0.77,1.503-1.307,2.32c1.1,0,2.05,0,3.081,0
	c-0.377-1.285-0.798-2.48-1.075-3.708c-0.975-4.328-2.137-8.663-0.245-13.049c0.009-0.14,0.078-0.359,0.017-0.404
	C88.454,123.386,88.358,123.533,88.311,123.692z M112.006,123.68c1.694,1.29,3.376,2.596,5.092,3.857
	c0.298,0.219,0.679,0.575,1.095,0.367c0.491-0.247,0.137-0.727,0.133-1.087c-0.015-1.444-0.074-2.888-0.143-4.331
	c-0.127-2.659-0.461-5.27-1.683-7.697c-0.95-1.886-2.467-3.002-4.495-3.451c-0.483-0.107-0.949-0.264-1.13,0.573
	c-0.697,3.216-3.13,4.267-6.038,4.37c-2.966,0.105-5.661-0.705-7.169-3.554c-0.443-0.838-0.826-1.237-1.777-1.106
	c-0.854,0.118-1.737,0.04-2.589,0.165c-3.476,0.511-4.911,2.083-5.174,5.587c-0.117,1.561,0.611,2.129,2.098,1.646
	c1.317-0.427,2.409-1.272,3.816-2.121c-0.808,2.024-2.117,3.404-3.203,4.915c-1.755,2.439-2.678,5.129-2.388,8.119
	c0.346,3.565,1.107,7.056,2.353,10.428c0.482,1.306,1.069,2.557,1.998,3.611c0.42,0.477,0.91,1.047,1.594,0.823
	c0.556-0.182,0.738-0.82,0.895-1.396c0.463-1.691,0.355-3.441,0.563-5.157c0.105-0.87-0.381-2.245,0.689-2.416
	c1.209-0.193,1.427,1.246,1.807,2.184c0.129,0.319,0.209,0.657,0.315,0.986c0.497,1.536,1.044,3.05,1.863,4.451
	c0.355,0.608,0.781,1.367,1.471,1.315c0.808-0.061,1.096-0.935,1.287-1.664c0.318-1.209,0.581-2.433,0.881-3.707
	c0.345,0.155,0.653,0.308,0.971,0.433c2.244,0.886,3.304,0.197,3.361-2.186c0.017-0.693-0.054-1.396,0.034-2.078
	c0.179-1.387,0.888-1.745,2.183-1.181c2.215,0.965,2.624,2.46,1.421,5.203c0.293,0.207,0.535,0.036,0.795-0.09
	c3.273-1.592,4.541-5.15,3.056-8.648c-1.068-2.517-2.826-4.61-4.278-6.892C111.808,123.861,111.907,123.77,112.006,123.68z
	 M116.468,151.53c2.878-0.106,6.136-1.69,8.988-4.166c1.97-1.71,2.245-3.973,1.077-6.235c-0.727-1.407-2.378-1.869-5.097-1.261
	c-2.687,0.602-5.35,1.312-8.023,1.978c-1.06,0.264-2.116,0.536-3.057,1.128c-2.15,1.352-2.648,3.557-1.173,5.625
	C110.714,150.745,112.921,151.55,116.468,151.53z M96.505,142.397c-0.151,0.508-0.254,0.893-0.379,1.272
	c-0.778,2.356-2.162,2.686-3.929,0.928c-0.618-0.614-1.101-1.331-1.465-2.124c-0.198-0.431-0.42-0.743-0.997-0.776
	c-2.137-0.123-4.277-0.285-6.389,0.149c-1.145,0.235-2.247,0.68-2.582,1.999c-0.512,2.016,0.481,4.69,2.38,5.482
	c4.4,1.834,8.955,2.087,13.49,0.48c1.615-0.573,2.392-1.988,2.401-3.677C99.042,144.452,98.32,143.143,96.505,142.397z
	 M117.682,133.211c1.843-0.984,3.757-0.815,5.65-0.807c0.58,0.002,1.121,0.124,1.139-0.801c0.098-4.959-0.435-9.762-3.108-14.11
	c-0.791-1.287-1.793-2.005-3.419-1.538c1.19,3.761,1.307,7.61,1.303,11.47c-0.001,1.633-0.509,1.907-2.027,1.223
	c-0.691-0.311-1.203-1.019-2.153-1.046C116.44,129.277,117.321,131.046,117.682,133.211z M104.578,107.006
	c-1.782-0.036-3.693,0.528-4.871,1.431c-2.123,1.626-2.197,3.94-0.026,5.458c2.543,1.778,5.338,2.033,8.188,0.744
	c1.435-0.649,2.227-1.882,2.223-3.433c-0.004-1.455-0.707-2.637-2.021-3.388C106.987,107.199,105.807,107.002,104.578,107.006z
	 M87.143,116.574c-0.535,0.769-1.017,1.391-1.424,2.059c-2.359,3.861-4.994,7.592-5.555,12.279c-0.361,3.013,0.434,3.939,3.34,3.852
	c0.812-0.025,1.128-0.222,1.088-1.07c-0.074-1.558,0.195-3.092,0.497-4.617c0.658-3.33,2.294-6.175,4.514-8.757
	C87.488,119.645,87.415,119.533,87.143,116.574z M116.911,136.585c-1.132,2.096-2.634,3.529-4.788,4.189
	c-0.486,0.149-1.027,0.505-1.438-0.013c-0.425-0.535,0.061-0.967,0.37-1.362c0.703-0.901,1.228-1.826,0.674-3.007
	c-0.377-0.802-1.028-1.429-1.868-1.24c-0.743,0.167-0.377,1.075-0.462,1.656c-0.066,0.451,0.04,0.927-0.015,1.381
	c-0.291,2.394-1.391,3.27-3.753,2.739c-0.895-0.201-0.84,0.135-1.055,0.741c-0.445,1.251-0.398,2.006,1.207,1.86
	c0.794-0.072,1.561,1.105,2.327,0.228c2.02-2.313,4.854-2.688,7.575-3.364c1.403-0.349,2.889-0.412,4.327-1.182
	C118.675,138.64,117.636,137.952,116.911,136.585z M83.496,135.577c0-0.003,0-0.007,0-0.01c-0.404,0-0.812-0.034-1.213,0.007
	c-1.111,0.113-2.435-0.134-2.908,1.301c-0.418,1.268,0.452,2.737,1.949,3.488c1.888,0.949,4.161,0.544,5.34-0.96
	c0.643-0.82,0.964-1.768,0.595-2.753c-0.361-0.965-1.359-0.955-2.205-1.061C84.542,135.524,84.016,135.577,83.496,135.577z
	 M87.983,56.844c-0.075-1.003-0.656-1.549-1.543-1.544c-0.866,0.005-1.535,0.482-1.533,1.477c0.002,0.973,0.544,1.44,1.505,1.455
	C87.391,58.247,87.852,57.71,87.983,56.844z M96.779,136.825c-0.243,4.893-0.243,4.893,2.149,5.565
	C98.174,140.613,97.905,138.819,96.779,136.825z"/>
<path d="M166.253,73.118c-0.141,1.318-0.389,2.627-0.492,3.947c-0.33,4.219,1.655,7.423,4.565,10.205
	c0.689,0.659,1.611,0.528,2.433,0.712c2.578,0.58,3.387,2.308,2.101,4.588c-0.185,0.327-0.491,0.526-0.215,1.043
	c1.039,1.945-0.072,3.291-1.447,4.474c-0.556,0.479-1.054,0.831-0.619,1.685c0.16,0.314,0.161,0.907-0.036,1.17
	c-1.007,1.346-0.116,1.818,0.899,2.456c5.632,3.542,9.257,8.62,10.845,15.032c0.473,1.909,0.32,4.021,0.177,6.021
	c-0.177,2.483-1.374,3.762-3.781,4.247c-0.86,0.173-0.8,0.599-0.791,1.193c0.023,1.559,0.113,3.125,0.011,4.678
	c-0.229,3.49-2.094,4.822-5.481,4.029c-1.21-0.284-2.827-1.044-3.44,0.314c-0.538,1.191,1.136,1.871,1.984,2.662
	c0.943,0.88,2.091,0.844,3.252,0.746c3.132-0.265,4.036,0.812,3.226,3.853c-0.872,3.273-2.534,4.623-5.95,4.658
	c-2.306,0.024-4.625,0.152-6.916-0.252c-3.87-0.683-6.009-4.621-4.488-8.284c0.371-0.894,0.84-1.748,1.32-2.733
	c-1.263-0.298-2.414-0.542-3.549-0.846c-0.696-0.187-1.359,0.087-1.766,0.452c-0.512,0.46,0.074,1.048,0.361,1.495
	c1.042,1.623,1.516,3.311,1.056,5.257c-0.661,2.8-2.005,4.324-4.836,4.676c-2.972,0.369-5.996,0.563-8.967-0.02
	c-2.702-0.53-4.673-3.187-4.617-5.902c0.03-1.473,0.68-2.278,2.208-2.251c0.404,0.007,0.809,0.008,1.213,0.023
	c3.141,0.124,4.743-0.895,6.124-3.956c-2.067-0.482-4.159-0.857-5.945-2.106c-2.861-2.001-3.63-4.248-2.399-7.484
	c0.823-2.164,1.367-4.396,1.853-6.648c0.058-0.268,0.008-0.56,0.008-0.983c-1.272,0.688-2.361,1.23-2.143,2.956
	c0.09,0.714,0.029,1.86-1.393,1.603c-0.676-0.122-0.443,0.533-0.515,0.858c-0.452,2.044-1.355,2.977-2.841,2.88
	c-1.916-0.125-3.439-1.706-3.487-3.616c-0.045-1.763,0.618-3.268,1.732-4.582c0.38-0.449,0.633-0.846,0.703-1.486
	c0.683-6.221,3.926-10.958,8.778-14.683c0.629-0.483,1.09-0.94,1.343-1.679c0.132-0.386,0.351-0.613-0.126-0.982
	c-2.012-1.556-1.528-3.54-0.754-5.483c0.29-0.729,0.277-1.199-0.052-1.982c-0.548-1.303-0.831-2.811-0.824-4.23
	c0.007-1.623,1.518-1.828,2.766-2.062c0.573-0.108,1.082,0.026,1.027-0.908c-0.333-5.651,1.126-11.114,1.823-16.658
	c0.439-3.491,0.787-6.994,1.266-10.479c0.378-2.755,1.491-5.199,3.525-7.159c0.469-0.452,0.764-0.752,0.414-1.566
	c-0.548-1.275,0.261-2.617,1.492-2.786c1.392-0.19,2.305,0.565,2.404,1.878c0.06,0.8,0.479,1.164,0.872,1.7
	c1.033,1.409,2.662,2.566,2.215,4.682l-0.011-0.002c-0.805-1.231-1.586-2.48-2.429-3.685c-0.314-0.449-0.693-1.103-1.346-0.883
	c-1.308,0.441-2.682,0.614-3.677,1.913c-1.53,1.998-2.415,4.183-2.728,6.62c-0.508,3.945-0.858,7.912-1.436,11.846
	c-0.611,4.163-1.557,8.294-1.613,12.511c-0.046,3.472-0.379,3.028,2.932,2.788c5.524-0.401,11.029-1.092,16.582-1.038
	c0.151-0.003,0.302-0.005,0.454-0.007c-0.054-0.113-0.108-0.227-0.162-0.34c-3.088-3.083-4.495-6.788-3.885-11.126
	c0.685-4.868,1.119-9.702-0.822-14.545C167.088,65.235,166.675,69.18,166.253,73.118z M166.449,137.946
	c0.096,0.117,0.192,0.233,0.288,0.35c0.088,0.575,0.38,0.995,0.879,1.397c0.606-2.292-0.186-4.437,0.118-6.589
	c0.538,1.269,0.798,2.578,1.194,3.844c0.163,0.523,0.008,1.39,0.555,1.513c0.728,0.164,1.224-0.662,1.726-1.135
	c0.238-0.225,0.45-0.478,0.606-0.765c2.274-4.188,3.275-8.702,3.03-13.418c-0.153-2.943-1.405-5.561-3.358-7.811
	c-0.274-0.316-0.857-0.67-0.404-1.141c0.46-0.478,0.992-0.094,1.367,0.261c0.372,0.352,0.678,0.783,0.97,1.209
	c0.619,0.904,1.19,1.841,1.82,2.736c0.256,0.363,0.569,0.872,1.075,0.714c0.431-0.134,0.663-0.629,0.772-1.09
	c0.285-1.209,0.169-2.406-0.146-3.596c-0.999-3.776-3.141-7.028-4.788-10.508c-1.035-2.186-2.733-3.335-5.102-3.611
	c-0.875-0.102-1.725-0.411-1.334,1.106c0.203,0.789-0.555,1.208-1.186,1.508c-1.386,0.658-2.861,0.862-4.385,0.733
	c-0.093-0.51,0.063-0.782,0.743-0.78c0.405,0.001,0.808-0.055,1.203-0.145c0.905-0.205,2.378-0.135,2.761-1.261
	c0.263-0.772-0.696-1.042-1.008-1.604c0.352-0.033,0.674-0.119,0.844-0.475c2.349,0.143,4.758,0.052,6.688,1.781
	c0.723-1.573,0.491-1.983-1.035-2.024c-1.206-0.033-2.411-0.12-3.616-0.183c-0.175-0.035-0.35-0.07-0.524-0.104
	c-0.514-0.048-1.027-0.096-1.541-0.143c-0.112-0.258-0.319-0.534,0.125-0.691c0.363-0.129,1.118,0.073,1.508,0.099
	c1.828,0.121,3.943,0.743,5.699-0.197c0.912-0.488,1.823-1.311,2.088-2.347c0.136-0.53,0.151-1.06-0.186-1.489
	c-0.414-0.527-0.814,0.001-1.218,0.112c-1.164,0.319-2.319,0.651-3.534,0.769c-7.759,0.751-15.479,0.73-23.123-1.099
	c-0.202,0.799,0.247,1.241,0.778,1.614c1.114,0.783,2.382,1.111,3.724,1.224c4.249,0.358,8.497,0.729,12.746,1.095
	c-0.025,0.582-0.991,0.972-0.346,1.691c-1.877-0.39-3.753-0.603-5.592,0.166c-0.796,0.333-1.824,0.677-1.76,1.66
	c0.066,1.016,1.144,1.111,1.983,1.307c0.553,0.129,1.403-0.061,1.208,0.993c-3.292-0.296-4.362-1.188-4.05-3.448
	c-2.145,0.34-4.136,1.038-5.957,2.182c-1.055,0.663-1.846,1.547-2.013,2.864c-0.334,2.631-0.723,5.255-1.013,7.891
	c-0.167,1.517-0.008,3.018,0.745,4.612c0.603-0.661,1.05-1.174,1.523-1.661c0.236-0.243,0.524-0.525,0.881-0.208
	c0.295,0.261,0.04,0.546-0.088,0.771c-2.556,4.498-0.855,9.252-0.839,13.902c0.003,0.73,0.389,1.66,1.049,1.596
	c1.911-0.187,1.976,1.285,2.504,2.387c0.439,0.917,0.975,0.961,1.453,0.077c0.491-0.906,0.854-1.881,1.313-2.805
	c0.463-0.932,0.488-2.058,1.207-2.983c1.013,1.321,1.322,2.686,1.247,4.172c-0.041,0.806-0.111,1.619-0.046,2.419
	c0.088,1.082,0.175,2.546,1.375,2.665c1.016,0.101,1.256-1.322,1.479-2.248c0.392-1.63,0.68-3.285,1.058-5.166
	c1.146,2.16,1.816,4.164,1.629,6.357c-0.115,1.347,0.599,0.572,1.065,0.481c-0.081,0.865,0.215,1.14,1.169,1.234
	c0.915,0.09,1.186-0.859,1.949-0.784L166.449,137.946z M175.435,119.903c-0.094-0.071-0.189-0.143-0.283-0.214
	c0.006,0.136,0.012,0.271,0.019,0.407c1.595,6.056-0.339,11.583-2.47,17.161c0.506,0.129,1.116,0.272,1.719,0.439
	c2.948,0.814,4.642-0.356,4.735-3.391c0.048-1.554-0.11-3.114-0.187-4.671c-0.022-0.451,0.001-0.902-0.455-1.233
	c-0.977-0.709-1.051-1.686-0.799-2.788c0.088-0.386,0.417-1.135-0.09-1.2c-1.894-0.244-1.12-1.469-0.778-2.237
	C177.562,120.566,176.822,120.089,175.435,119.903z M167.917,94.437c0.36-0.038,0.718-0.083,1.074-0.139
	c1.637-0.255,3.403-0.645,4.657-1.806c0.324-0.3,0.623-0.639,0.797-1.044c0.381-0.891-0.071-1.728-0.876-2.165
	c-0.917-0.498-1.893-0.511-2.891-0.703c-0.175-0.027-0.461-0.07-0.636-0.097c-5.08-0.448-10.103,0.28-15.142,0.734
	c-2.574,0.232-5.161,0.318-7.739,0.519c-0.723,0.056-1.552,0.113-1.678,1.124c-0.113,0.897,0.27,1.564,0.999,2.047
	c0.531,0.352,1.112,0.573,1.746,0.698c3.639,0.715,7.326,0.734,11.011,0.78c0.049,0.005,0.097,0.011,0.146,0.016
	c1.378,0.279,2.919,0.204,4.34,0.206C165.104,94.609,166.521,94.584,167.917,94.437z M150.325,150.114
	c1.323-0.105,2.65-0.18,3.969-0.322c3.311-0.355,5.414-3.834,4.283-7.024c-0.474-1.338-1.103-2.692-1.722-3.872
	c-0.673-1.285-2.694,0.075-4.101-0.254c-0.942-0.22-1.207,0.421-1.656,1.048c-1.66,2.321-3.524,4.351-6.838,3.566
	c-0.383-0.091-0.809-0.052-1.209-0.012c-0.841,0.084-1.182,0.594-1.153,1.417c0.097,2.702,1.64,4.521,4.289,5.126
	C147.558,150.101,148.935,150.108,150.325,150.114z M170.879,150.114c0.001-0.02,0.002-0.041,0.004-0.061
	c0.921,0,1.848,0.065,2.763-0.012c3.062-0.256,4.47-1.515,5.072-4.45c0.432-2.105,0.043-2.683-2.168-2.418
	c-2.684,0.322-4.614-0.79-6.069-2.802c-0.658-0.911-1.207-0.889-1.928-0.382c-0.619,0.435-1.185,0.672-1.855,0.171
	c-1.585-1.186-1.919-1.122-2.827,0.538c-0.276,0.504-0.602,0.982-0.85,1.499c-1.594,3.32,0.442,7.13,4.077,7.598
	C168.351,149.956,169.618,150.011,170.879,150.114z M155.933,131.549c-0.837,1.327-1.354,2.221-1.945,3.064
	c-0.492,0.701-1.007,1.599-1.966,1.498c-0.971-0.102-1.23-1.105-1.569-1.895c-0.169-0.393-0.122-1.04-0.729-0.985
	c-2.395,0.214-2.706-1.512-2.7-3.139c0.015-3.836-0.967-7.654-0.051-11.683c-1.19,0.553-1.559,1.36-1.729,2.393
	c-0.457,2.786-1.095,5.531-2.082,8.187c-1.222,3.284-0.368,5.587,2.757,7.164c3.247,1.639,6.719,1.81,10.336,1.425
	C155.639,135.694,155.905,133.853,155.933,131.549z M145.746,105.943c-3.705,1.723-8.737,9.547-8.757,13.39
	c-0.004,0.686,0.243,0.72,0.822,0.653c1.339-0.155,2.498,0.287,3.404,1.301c0.296,0.331,0.536,0.571,0.995,0.233
	c1.169-0.86,2.243-1.837,3.085-3.001c0.576-0.796-0.229-1.622-0.295-2.451c-0.05-0.631-0.086-1.263-0.12-1.896
	C144.731,111.447,145.478,108.812,145.746,105.943z M173.36,104.68c1.209,2.331,2.549,4.409,3.499,6.704
	c1.041,2.513,1.68,5.025,0.613,7.686c-0.112,0.28-0.239,0.539,0.035,0.764c0.339,0.278,0.607,0.071,0.905-0.144
	c1.579-1.139,3.25-1.131,4.97-0.276C183.371,114.657,177.551,106.039,173.36,104.68z M177.556,123.38
	c0.682-0.607,1.302-1.158,2.091-1.861c-0.228,1.691-1.066,2.987-1.17,4.488c-0.101,1.465,0.563,1.995,1.92,1.937
	c1.954-0.085,3.252-1.814,3.358-4.486c0.09-2.291-0.862-3.75-2.519-3.862C179.303,119.467,177.729,121.039,177.556,123.38z
	 M140.882,124.96c0.475-2.117-0.025-3.377-1.406-3.942c-1.363-0.558-2.761-0.058-3.719,1.355c-0.763,1.124-1.136,2.39-1.154,3.735
	c-0.018,1.361,1.071,2.413,2.513,2.555c1.579,0.155,2.009-0.949,2.154-2.129c0.143-1.162,0.031-2.356,0.031-4.039
	C139.971,123.54,140.358,124.143,140.882,124.96z M158.641,98.177c-2.247-0.193-4.086-0.296-5.909-0.522
	c-1.864-0.231-3.814-0.002-5.553-0.968c-0.397-0.22-0.655-0.007-0.828,0.328c-0.683,1.328-1.041,2.723-0.325,4.123
	c0.376,0.735,0.976,1.299,1.934,0.616c1.967-1.402,4.253-1.925,6.58-2.362C155.798,99.156,157.117,99.071,158.641,98.177z
	 M160.918,133.682c-0.304,1.09-0.554,1.94-0.778,2.797c-0.389,1.487-0.382,1.489,1.292,1.622
	C161.355,136.718,161.757,135.298,160.918,133.682z M157.311,52.497c0.702-0.151,1.154-0.525,1.131-1.274
	c-0.023-0.736-0.472-1.207-1.17-1.195c-0.779,0.013-1.282,0.544-1.213,1.339C156.118,52.052,156.603,52.454,157.311,52.497z"/>
<path d="M21.752,127.174c0.997-3.017-0.409-4.79-2.747-6.65c-3.364-2.677-5.336-6.366-4.982-10.868
	c0.399-5.069,3.677-7.99,7.945-10.014c1.25-0.593,1.764-1.398,1.876-2.754c0.082-0.987-0.345-1.468-1.029-1.926
	c0.175-0.307,0.48-0.352,0.787-0.391c1.078,0.172,1.093,1.023,1.145,1.828c0.051,0.779-0.093,1.605,0.757,2.314
	c1.5-2.639,3.968-3.722,6.773-4.215c1.358-0.238,2.732-0.385,4.086-0.64c0.588-0.111,1.279-0.003,1.716-0.592
	c2.127-2.867,5.16-2.737,7.977-1.862c2.292,0.712,4.664,1.095,6.918,1.91c0.121,0.086,0.241,0.171,0.362,0.257h-0.001
	c-0.023,0.199-0.047,0.397-0.07,0.596c-0.141-0.014-0.282-0.027-0.423-0.041c-0.207-0.054-0.414-0.108-0.621-0.163
	c-1.386-0.132-3.216-1.572-3.61,1.245c-0.03,0.214-0.39,0.402-0.622,0.565c-2.424,1.702-7.528,1.363-9.683-0.726
	c-0.469-0.454-0.876-0.45-1.379-0.375c-1.54,0.229-3.09,0.418-4.613,0.73c-2.955,0.606-5.363,1.929-6.613,4.924
	c-1.061,2.541-1.624,5.168-1.703,7.889c-0.085,2.951,0.337,5.828,1.727,8.66c0.834-1.774,0.793-3.531,1.159-5.2
	c0.118-0.539-0.248-1.502,0.763-1.425c0.793,0.061,0.544,0.927,0.578,1.427c0.202,2.994,0.278,5.996,0.513,8.987
	c0.135,1.712,0.245,3.481,1.385,5.077c0.836-1.322,0.918-2.674,1.313-3.923c0.128-0.406,0.003-1.068,0.715-0.91
	c0.706,0.156,0.334,0.78,0.28,1.155c-0.766,5.297,1.652,9.625,4.177,13.929c0.506,0.862,0.86,0.633,1.354-0.037
	c0.716-0.972,1.346-2.245,2.336-2.727c2.07-1.009,2.765-2.744,3.377-4.681c0.176-0.558,0.308-1.367,1.209-1.137
	c0.855,0.219,0.617,0.934,0.605,1.569c-0.041,2.106-0.279,4.24,0.559,6.32c0.664-0.422,0.657-1.042,0.81-1.574
	c0.592-2.043,0.75-4.193,1.524-6.193c0.231-0.596,0.452-1.333,1.206-1.254c0.678,0.071,0.883,0.768,1.13,1.381
	c0.386,0.958-0.116,2.019,0.368,3.015c1.317-0.689,1.835-1.845,2.2-3.059c0.414-1.375,0.703-2.788,1.075-4.176
	c0.132-0.492,0.298-1.151,0.916-1.066c0.478,0.066,0.526,0.68,0.551,1.159c0.063,1.192,0.142,2.383,0.214,3.574
	c0.726-2.073,1.236-4.176,1.758-6.276c0.152-0.609,0.265-1.507,0.931-1.498c0.821,0.011,0.604,0.943,0.713,1.536
	c0.011,0.057,0.18,0.086,0.333,0.152c1.367-3.817,2.251-7.733,2.699-11.749c0.44-3.945,0.453-7.838-1.57-11.449
	c0.031-0.645,0.061-1.29,0.092-1.935c1.032,1.499,2.476,2.385,4.089,3.226c3.588,1.871,6.275,4.63,7.4,8.694
	c0.557,2.011,0.239,3.896-0.548,5.73c-1.247,2.906-3.094,5.396-5.479,7.477c-0.52,0.454-0.977,0.822-0.929,1.687
	c0.406,7.379-1.935,13.692-7.583,18.852c2.608,0.545,4.126,1.975,4.105,4.697c-0.016,2.094-0.715,3.188-2.801,3.507
	c-4.704,0.719-9.438,0.697-14.145-0.026c-1.181-0.181-2.219-0.815-2.444-2.134c-0.206-1.209,0.37-2.178,1.397-2.751
	c0.89-0.497,0.813-0.805,0.122-1.435c-1.743-1.589-2.833-1.447-5.52,0.908c0.432,0.36,0.897,0.675,1.272,1.075
	c1.194,1.27,0.975,3.446-0.652,3.883c-5.484,1.47-11.06,1.488-16.546-0.02c-1.496-0.411-1.468-2.028-1.427-3.402
	c0.051-1.719,0.786-2.988,2.352-3.727c1.116-0.526,2.325-0.64,3.92-0.672c-1.728-1.527-3.466-2.677-4.415-4.534
	c-0.079-0.119-0.158-0.237-0.236-0.356c-0.039-0.11-0.079-0.221-0.118-0.331c0.326,0.005,0.652,0.011,0.978,0.016
	c2.263,3.222,5.058,5.666,9.119,6.288c0.509,0.078,1.032,0.196,1.495,0.411c1.997,0.929,3.696,0.665,5.5-0.711
	c1.861-1.419,3.208-1.166,4.912,0.527c0.802,0.797,1.544,0.987,2.607,0.655c2.471-0.771,4.959-1.482,7.555-1.752
	c1.788-0.186,3.048-1.378,4.153-2.622c4.381-4.932,6.106-10.741,5.403-17.271c-0.137-1.272-0.266-2.476,0.204-3.733
	c1.846-4.939,0.458-9.725-0.763-14.524c-0.436,5.373-1.202,10.67-2.644,15.853c-0.261,0.938-0.615,1.852-0.963,2.764
	c-0.48,1.257-1.094,1.347-1.918-0.074c-0.563,2.343-1.078,4.496-1.601,6.646c-0.109,0.447-0.229,0.893-0.378,1.328
	c-0.132,0.384-0.308,0.828-0.811,0.731c-0.45-0.087-0.585-0.499-0.585-0.936c0.001-1.248,0-2.497-0.254-3.801
	c-0.351,0.938-0.708,1.874-1.052,2.814c-0.281,0.768-0.666,1.475-1.269,2.031c-0.572,0.527-1.343,0.931-2.039,0.689
	c-0.76-0.264-0.579-1.156-0.581-1.841c-0.002-0.711,0-1.422-0.195-2.147c-1.012,1.422-1.061,3.098-1.519,4.643
	c-0.294,0.993-0.495,2.016-0.83,2.994c-0.176,0.515-0.392,1.145-1.145,1.111c-0.75-0.034-1.065-0.509-1.277-1.189
	c-0.406-1.304-0.232-2.634-0.303-3.953c-0.017-0.322,0.098-0.701-0.422-1.031c-0.924,3.272-4.535,4.115-6.06,6.969
	c-0.739,1.383-1.916,0.248-2.377-0.655c-1.765-3.45-3.998-6.722-4.349-10.796c-1.596,1.616-2.054,1.504-2.719-0.614
	c-0.942-3-0.967-6.136-1.292-9.249c-0.165,0.067-0.316,0.079-0.351,0.149c-0.367,0.733-0.368,1.968-1.422,1.89
	c-1.05-0.078-1.224-1.268-1.442-2.137c-1.299-5.188-1.634-10.36,0.468-15.445c0.169-0.41,0.347-0.788-0.104-1.044
	c-0.603-0.342-0.636,0.291-0.765,0.585c-2.418,5.523-3.375,11.104-0.648,16.832c1.074,2.257,0.27,4.541,0.008,6.808
	c-0.224,1.946-0.499,3.886-0.752,5.829c-0.263-0.005-0.527-0.01-0.79-0.015c-0.017-0.218-0.035-0.435-0.052-0.653
	C21.934,128.175,21.834,127.673,21.752,127.174z M52.369,149.318c2.019,0.084,4.037,0.006,6.031-0.287
	c1.343-0.197,2.581-0.599,2.747-2.327c0.164-1.705-0.54-3.204-2.056-3.777c-0.685-0.259-1.451-0.428-2.18-0.428
	c-4.03,0-7.808,1.212-11.521,2.612c-0.945,0.356-1.978,1.003-1.762,2.266c0.228,1.34,1.465,1.501,2.537,1.657
	C48.22,149.331,50.294,149.394,52.369,149.318z M30.988,149.322c2.019,0.065,4.036,0.017,6.033-0.278
	c1.125-0.166,2.522-0.297,2.669-1.692c0.137-1.302-1.016-1.958-2.109-2.434c-0.525-0.229-1.059-0.462-1.612-0.601
	c-2.336-0.589-4.667-1.213-7.028-1.686c-1.462-0.294-2.972-0.362-4.436,0.161c-1.687,0.603-2.539,2.035-2.353,3.947
	c0.167,1.711,1.465,2.084,2.804,2.292C26.952,149.339,28.97,149.387,30.988,149.322z M22.325,122.143
	c0.607-2.256,0.629-4.166-0.504-6.057c-0.771-1.287-1.001-2.799-1.121-4.305c-0.294-3.699,0.213-7.298,1.473-10.881
	c-3.438,0.88-6.868,4.596-7.227,8.202C14.361,114.983,17.796,118.759,22.325,122.143z M65.242,120.57
	c3.809-3.21,7.01-6.727,6.344-11.976c-0.592-4.662-3.983-7.215-8.156-9.322C66.308,106.354,67.859,113.258,65.242,120.57z
	 M43.587,95.996c1.079,0.036,2.324-0.184,3.466-0.758c1.345-0.676,1.401-1.588,0.222-2.48c-1.681-1.271-6.092-1.153-7.724,0.176
	c-0.91,0.741-0.881,1.402,0.075,2.036C40.763,95.723,42.03,96.022,43.587,95.996z"/>
<path d="M60.762,95.041c-0.447,0.074-0.682-0.11-0.693-0.568c0.054-0.323,0.107-0.645,0.16-0.967
	c-0.065-0.513-0.117-1.028-0.197-1.538c-0.241-1.53-0.857-2.074-2.555-1.511c-3.813,1.264-7.732,0.713-11.403-0.46
	c-5.85-1.87-11.567-1.634-17.356-0.013c-0.433,0.121-0.908,0.093-1.363,0.135c-0.209,0.049-0.418,0.098-0.627,0.147l0.023-0.011
	c-0.039-0.228-0.077-0.455-0.115-0.682c3.905-1.012,7.824-1.882,11.897-1.927c3.414-0.038,6.522,1.319,9.79,1.934
	c3.497,0.659,6.958,1.042,10.324-0.556c0.95-0.451,1.633-1.112,1.579-2.245c-0.132-2.795,0.45-5.502,0.99-8.212
	c1.148-5.761-0.314-10.477-5.389-13.819c-3.364-2.215-6.681-4.501-10.034-6.732c-3.783-2.517-7.535-5.086-11.907-6.551
	c-2.358-0.79-4.497-0.698-6.468,0.998c-1.48,1.274-3.038,2.455-4.562,3.677c-0.363-0.009-0.725-0.018-1.088-0.027
	c2.16-2.625,4.957-4.447,7.896-6.026c1.287-0.692,2.715-0.085,4.032,0.339c2.872,0.925,5.467,2.426,8.037,3.965
	c5.092,3.049,9.931,6.485,14.86,9.783c4.989,3.339,6.582,8.057,5.622,13.83c-0.5,3.007-0.73,6.082-1.289,9.04
	c-0.388,2.055-0.28,3.809,0.098,5.731c0.136,0.693-0.164,1.471-0.265,2.21C60.759,94.983,60.762,95.041,60.762,95.041z"/>
<path d="M25.951,90.634c-1.084,0.043-2.255,0.565-3.126-0.566c-0.082-0.221-0.198-0.292-0.377-0.086l-0.006,0.096l-0.096,0.006
	c-0.075,0.152-0.149,0.303-0.224,0.455c-0.121,0.028-0.242,0.055-0.363,0.083c-0.5-0.587-0.492-0.712,0.096-1.569
	c0.602-1.247,0.146-2.563,0.251-3.843c0.046-0.454,0.092-0.909,0.138-1.363c0.234-0.2,0.254-0.458,0.201-0.736
	c0.038-0.331,0.076-0.662,0.115-0.993c0.329-0.274,0.287-0.645,0.264-1.012c0.045-0.36,0.09-0.719,0.135-1.079
	c0.223-0.194,0.235-0.445,0.189-0.71c0.159-2.113,1.399-3.726,2.533-5.372c1.173-1.703,2.479-3.316,3.618-5.041
	c1.388-2.103,1.844-4.449,1.325-6.93c-0.683-3.263-2.897-4.049-5.489-1.988c-0.176,0.14-0.371,0.254-0.558,0.381
	c-0.002-0.348-0.005-0.696-0.007-1.044c1.203-1.354,2.695-1.662,4.381-1.172c1.69,0.491,2.184,1.917,2.52,3.404
	c0.597,2.645,0.214,5.173-1.224,7.467c-1.19,1.898-2.497,3.726-3.794,5.555c-1.69,2.382-2.984,4.904-3.047,7.907
	c-0.322,0.291-0.281,0.666-0.239,1.04c-0.029,0.23-0.057,0.461-0.086,0.691c-0.34,0.294-0.297,0.678-0.253,1.063
	c-0.013,0.617-0.024,1.234-0.039,1.85c-0.029,1.178,0.121,2.262,1.426,2.748c0.354,0.334,0.696,0.332,1.025-0.036
	c0.236-0.01,0.471-0.019,0.707-0.029c0.266,0.147,0.531,0.294,0.797,0.441c-0.151,0.067-0.302,0.133-0.453,0.2
	C26.176,90.512,26.063,90.573,25.951,90.634z"/>
<path d="M96.561,84.738c-0.278,0.025-0.503-0.041-0.43-0.366c0.104-0.463,1.173-0.559,1.528-0.657
	c0.661-0.182,1.459-0.283,2.078-0.573c0.134-0.063,0.268-0.125,0.402-0.188c1.428-0.532,2.887-0.995,4.274-1.618
	c1.007-0.452,1.689-1.319,2.126-2.349c0.061-0.127,0.122-0.255,0.182-0.382c0.005-0.787,0.01-1.573,0.015-2.36
	c-0.074-0.231-0.148-0.462-0.222-0.692c-0.998-3.528-2.909-6.6-4.792-9.691c-0.252-0.414-0.953-0.724-0.537-1.414
	c0.146-0.262,0.38-0.284,0.522-0.063c2.354,3.662,4.812,7.276,5.749,11.638c0.035,0.164-0.002,0.342-0.005,0.514
	c-0.004,0.713-0.007,1.425-0.011,2.138c-0.206,2.018-1.59,3.074-3.235,3.867c-2.173,1.048-4.535,1.485-6.87,2
	C97.219,84.577,96.86,84.711,96.561,84.738z"/>
<path d="M21.768,56.114c0.363,0.009,0.725,0.018,1.088,0.027c-1.158,1.074-2.066,2.38-3.24,3.458
	c-0.39,0.358-1.137,1.367-0.182,2.135c0.743,0.598,1.452,1.837,2.446,0.248c0.11-0.176,0.366-0.259,0.554-0.386
	c0.17,0.168,0.34,0.335,0.509,0.503c-0.387,0.541-0.838,1.012-1.438,1.32c-0.485,0.109-0.969,0.219-1.454,0.328
	c-0.913-1.364-2.093-1.914-3.684-1.206c-0.183-0.281-0.426-0.47-0.771-0.503c0.421-0.488,0.934-0.695,1.596-0.738
	c1.146-0.074,1.763-0.994,2.083-1.889C19.775,58.011,20.567,56.933,21.768,56.114z"/>
<path d="M15.597,62.038c0.344,0.034,0.588,0.223,0.771,0.503c-0.253,0.382-0.585,0.734-0.744,1.152
	c-0.484,1.273,0.21,2.729,1.422,3.108c1.224,0.382,2.545-0.279,2.884-1.512c0.134-0.488,0.087-1.026,0.122-1.542
	c0.485-0.109,0.969-0.219,1.454-0.328c-0.167,0.222-0.334,0.443-0.501,0.665c-0.223,0.104-0.265,0.224-0.033,0.368
	c-0.005,0.224-0.01,0.449-0.016,0.673c-0.058,0.145-0.116,0.29-0.173,0.435c-0.403,1.469-1.51,2.171-2.889,2.261
	c-1.248,0.082-2.351-0.467-2.961-1.671C14.162,64.628,14.527,63.271,15.597,62.038z"/>
<path d="M60.762,95.041c0,0-0.002-0.057-0.003-0.057c-0.256,0.389,0.152,0.602,0.238,0.9c-0.031,0.645-0.061,1.29-0.092,1.935
	c-1.082-1.296-2.25-2.432-4.017-2.778c-1.216-0.238-2.542-0.064-3.622-0.874c0.023-0.199,0.047-0.397,0.07-0.596
	c1.87,0.42,3.915,0.164,5.568,1.416c0.48,0.364,0.712-0.079,1.019-0.262C60.353,94.468,60.671,94.433,60.762,95.041z"/>
<path d="M126.225,134.836c0.47-0.011,0.583-0.344,0.648-0.72c0.647,1.642-0.056,2.93-1.083,4.134
	c-0.253-0.112-0.506-0.224-0.758-0.336C125.831,137.043,126.232,136.019,126.225,134.836z"/>
<path d="M23.788,136.249c-0.326-0.005-0.652-0.011-0.978-0.016c-0.733-0.663-0.666-1.658-1.012-2.482
	c-0.092-0.22-0.15-0.608,0.269-0.689c0.397-0.077,0.343,0.201,0.451,0.484C22.872,134.472,23.354,135.351,23.788,136.249z"/>
<path d="M21.76,90.971c0.839,1.084,0.493,2.776,1.842,3.599c-0.308,0.039-0.613,0.084-0.787,0.391
	C21.655,93.845,20.935,92.612,21.76,90.971z"/>
<path d="M22.944,62.099c-0.17-0.168-0.34-0.335-0.509-0.503c0.46-0.994,1.465-1.477,2.134-2.274
	c0.002,0.348,0.005,0.696,0.007,1.044C24.031,60.944,23.488,61.521,22.944,62.099z"/>
<path d="M21.593,129.256c0.263,0.005,0.527,0.01,0.79,0.015c0.021,0.516,0.075,1.033,0.052,1.547
	c-0.02,0.443,0.396,1.199-0.396,1.21c-0.577,0.008-0.675-0.685-0.626-1.231C21.459,130.283,21.531,129.77,21.593,129.256z"/>
<path d="M97.647,58.234c0.455,0.933,1.484,1.56,1.46,2.747c-1.296-0.026-1.3-1.228-1.801-1.978
	C97.384,58.73,97.336,58.402,97.647,58.234z"/>
<path d="M97.647,58.234c-0.311,0.169-0.262,0.497-0.341,0.769c-0.714-0.603-1.05-1.471-1.552-2.223
	c0.247-0.049,0.493-0.097,0.74-0.146c0.001,0-0.005,0.055-0.009,0.055c-0.01,0.093-0.017,0.186-0.023,0.279
	c0.077-0.058,0.154-0.116,0.231-0.174C97.012,57.273,97.329,57.753,97.647,58.234z"/>
<path d="M22.106,85.21c-0.105,1.28,0.351,2.596-0.251,3.843C22.016,87.777,21.554,86.46,22.106,85.21z"/>
<path d="M21.752,127.174c0.082,0.499,0.182,1.001-0.211,1.429C21.611,128.127,21.681,127.65,21.752,127.174z"/>
<path d="M86.946,95.923c-0.174,0.479-0.588,0.425-0.972,0.438C86.298,96.215,86.622,96.069,86.946,95.923z"/>
<path d="M22.823,81.106c0.023,0.366,0.065,0.737-0.264,1.012C22.646,81.781,22.734,81.443,22.823,81.106z"/>
<path d="M22.444,83.111c0.053,0.278,0.034,0.536-0.201,0.736C22.31,83.601,22.377,83.356,22.444,83.111z"/>
<path d="M23.147,79.317c0.046,0.266,0.035,0.516-0.189,0.71C23.021,79.79,23.084,79.554,23.147,79.317z"/>
<path d="M106.516,75.553c0.074,0.231,0.148,0.462,0.222,0.692C106.664,76.014,106.59,75.784,106.516,75.553z"/>
<path d="M87.324,93.927c-0.043,0.21-0.085,0.42-0.128,0.63C87.239,94.347,87.281,94.137,87.324,93.927z"/>
<path d="M87.669,92.534c-0.078,0.225-0.157,0.45-0.235,0.675C87.512,92.983,87.591,92.759,87.669,92.534z"/>
<path d="M84.329,99.484c0.079,0.206,0.159,0.412,0.238,0.617C84.487,99.896,84.408,99.69,84.329,99.484z"/>
<path d="M96.688,83.983c-0.189,0.086-0.378,0.172-0.567,0.258c-0.001,0,0.025-0.037,0.025-0.037
	C96.327,84.131,96.507,84.057,96.688,83.983z"/>
<path d="M100.139,82.955c-0.134,0.063-0.268,0.125-0.402,0.188C99.872,83.08,100.006,83.017,100.139,82.955z"/>
<path d="M106.722,78.605c-0.061,0.127-0.122,0.255-0.182,0.382C106.601,78.86,106.662,78.733,106.722,78.605z"/>
<path d="M22.928,136.564c0.079,0.119,0.158,0.237,0.236,0.356C23.085,136.801,23.007,136.682,22.928,136.564z"/>
<path d="M84.527,97.68c-0.058,0.127-0.117,0.253-0.175,0.38C84.41,97.933,84.468,97.807,84.527,97.68z"/>
<path d="M20.783,65.56c0.058-0.145,0.116-0.29,0.173-0.435C20.898,65.27,20.84,65.415,20.783,65.56z"/>
<path d="M20.972,64.452c-0.232-0.144-0.19-0.264,0.033-0.368C20.994,64.207,20.983,64.329,20.972,64.452z"/>
<path d="M90.858,88.227c0.039-0.298,0.2-0.5,0.482-0.605c0.001,0.002-0.022,0.049-0.023,0.047
	C91.163,87.854,91.01,88.041,90.858,88.227z"/>
<path d="M91.827,96.578c0.217-0.448,0.044-0.588-0.414-0.579c-0.953,0.02-1.906,0.024-2.859,0.009
	c-0.707-0.011-1.123-0.248-0.656-1.027c-0.084,0.831,0.387,0.874,1.059,0.856c1.992-0.055,3.987-0.038,5.98-0.049
	c-0.11,0.259-0.22,0.518-0.329,0.778c-0.116,0.049-0.232,0.097-0.349,0.146C93.448,96.667,92.637,96.623,91.827,96.578z"/>
<path d="M106.077,95.99c-1.274-0.064-2.57,0.274-3.82-0.214C103.531,95.848,104.804,95.919,106.077,95.99z"/>
<path d="M96.565,84.778c0.257-0.079,0.515-0.158,0.772-0.237C97.08,84.62,96.822,84.699,96.565,84.778z"/>
<path d="M96.694,56.793c-0.077,0.058-0.154,0.116-0.231,0.174c0.006-0.093,0.013-0.185,0.023-0.279
	c0.004-0.001,0.14-0.015,0.14-0.015L96.694,56.793z"/>
<path d="M88.36,100.209c0.67-0.048,1.301-0.001,1.847,0.662c-0.749,0.479-1.293,0.105-1.847-0.063
	C88.36,100.609,88.36,100.409,88.36,100.209z"/>
<path d="M85.242,99.812c0.303,0.358,0.68,0.101,1.024,0.123C85.882,100.246,85.53,100.293,85.242,99.812z"/>
<path d="M85.157,98.091c-0.043,0.326-0.086,0.653-0.129,0.979C84.824,98.711,84.808,98.377,85.157,98.091z"/>
<path d="M87.343,99.96c0.238,0.062,0.476,0.123,0.715,0.185C87.819,100.084,87.581,100.022,87.343,99.96z"/>
<path d="M90.568,100.676c0.282-0.237,0.459-0.017,0.648,0.149C91,100.775,90.784,100.726,90.568,100.676z"/>
<path d="M100.404,102.974c0.142,0.056,0.284,0.112,0.425,0.168C100.687,103.086,100.545,103.03,100.404,102.974z"/>
<path d="M118.159,106.422c0.121,0.073,0.243,0.146,0.364,0.219C118.402,106.568,118.28,106.495,118.159,106.422z"/>
<path d="M164.658,98.713c-0.575,0.25-0.09,0.454,0.029,0.674c-0.17,0.356-0.492,0.442-0.844,0.475
	c-0.307-0.122-0.615-0.245-0.922-0.367c-0.645-0.719,0.32-1.109,0.346-1.691c0.523-0.044,1.05-0.119,1.517,0.219
	C164.34,98.179,164.546,98.455,164.658,98.713z"/>
<path d="M174.606,90.445c-0.077-0.117-0.154-0.235-0.232-0.352C174.452,90.21,174.529,90.327,174.606,90.445z"/>
<path d="M169.875,94.125c0.133-0.06,0.266-0.12,0.399-0.18C170.141,94.005,170.008,94.065,169.875,94.125z"/>
<path d="M159.213,94.385c0.191,0.029,0.382,0.058,0.573,0.087C159.595,94.444,159.404,94.415,159.213,94.385z"/>
<path d="M166.449,137.946c0.096,0.117,0.192,0.234,0.288,0.35C166.641,138.179,166.545,138.062,166.449,137.946z"/>
<path d="M167.452,94.457c0.152-0.047,0.303-0.095,0.455-0.142C167.756,94.362,167.604,94.409,167.452,94.457z"/>
<path d="M166.723,98.961c-0.175-0.035-0.349-0.07-0.524-0.105C166.374,98.891,166.548,98.926,166.723,98.961z"/>
<path d="M173.672,89.411c-0.111-0.082-0.222-0.164-0.334-0.246C173.449,89.247,173.56,89.329,173.672,89.411z"/>
<path d="M170.797,88.603c-0.191-0.034-0.382-0.068-0.573-0.103C170.416,88.535,170.606,88.569,170.797,88.603z"/>
<path d="M174.379,91.513c0.068-0.119,0.137-0.237,0.205-0.356C174.516,91.276,174.447,91.395,174.379,91.513z"/>
<path d="M52.975,93.313c0.206-0.034,0.333,0.042,0.362,0.257C53.216,93.485,53.096,93.399,52.975,93.313z"/>
<path d="M52.844,94.125c-0.253,0.124-0.448,0.024-0.62-0.163C52.43,94.016,52.637,94.07,52.844,94.125z"/>
<path d="M26.742,90.251c-0.266-0.147-0.531-0.294-0.797-0.441c0.23-0.08,0.46-0.16,0.69-0.24c0.038,0.227,0.076,0.455,0.115,0.682
	C26.752,90.254,26.742,90.251,26.742,90.251z"/>
<path d="M60.229,93.505c-0.053,0.322-0.106,0.645-0.16,0.967C59.907,94.115,60.032,93.804,60.229,93.505z"/>
<path d="M22.447,89.982c0.179-0.206,0.295-0.135,0.377,0.086C22.698,90.04,22.573,90.011,22.447,89.982z"/>
<path d="M25.951,90.634c0.113-0.061,0.226-0.122,0.339-0.183C26.176,90.512,26.063,90.573,25.951,90.634z"/>
<path d="M22.121,90.539c0.075-0.152,0.149-0.303,0.224-0.455C22.271,90.236,22.196,90.387,22.121,90.539z"/>
<path d="M26.728,90.265c0.209-0.049,0.418-0.098,0.627-0.147C27.195,90.373,26.986,90.423,26.728,90.265z"/>
<path d="M24.213,89.876c0.342-0.012,0.683-0.024,1.025-0.036C24.909,90.208,24.567,90.21,24.213,89.876z"/>
<path d="M23.404,82.483c-0.08,0.347-0.16,0.693-0.239,1.04C23.123,83.148,23.082,82.774,23.404,82.483z"/>
<path d="M23.079,84.214c-0.084,0.354-0.168,0.709-0.253,1.063C22.782,84.892,22.739,84.507,23.079,84.214z"/>
<path d="M111.71,123.951c-0.125-0.16-0.25-0.321-0.375-0.481c0.3-0.174,0.53-0.123,0.671,0.21
	C111.907,123.77,111.808,123.861,111.71,123.951z"/>
<path d="M166.082,137.597c0.002,0.008,0.005,0.016,0.007,0.024c-0.195,0.096-0.442-0.001-0.583-0.167
	c-0.142-0.166-0.203-0.383-0.26-0.594c-0.252-0.924-0.504-1.847-0.757-2.771c-0.18,0.91-0.361,1.82-0.541,2.73
	c-0.031,0.155-0.066,0.319-0.173,0.436c-0.107,0.117-0.313,0.158-0.421,0.042c-0.079-0.085-0.078-0.215-0.071-0.331
	c0.064-1.175,0.137-2.349,0.218-3.523c0.041-0.587,0.083-1.174,0.128-1.76c0.013-0.172-0.037-1.34,0.423-1.01
	c0.101,0.074,0.141,0.204,0.175,0.324C164.845,133.197,165.464,135.397,166.082,137.597z"/>
<path d="M21.784,127.071c0,0-1.915,5.708,1.6,10.241l1.013-0.235c0,0-2.641-3.353-1.736-9.904L21.784,127.071z"/>
<path d="M30.734,89.475l-4.783,1.159c0,0-2.137,0.845-3.222-0.429c0,0-0.721-0.07-0.729,1.148l-0.143,0.224l-0.424,1.133
	c0,0-0.438-1.47-0.034-2.85l0.477-0.636h0.823l2.94,0.757l2.39-0.505L30.734,89.475z"/>
<path d="M61.079,95.999c0,0-0.427-0.392-0.227-1.527l-0.053-1.64l-0.635,0.129c0,0-0.042,1.914-1.006,2.153
	c0,0-5.151-2.201-8.215-2.432l0.077,0.99c0,0,2.461,0.879,3.431,1.036l3.052,0.262l3.577,1.382L61.079,95.999L61.079,95.999z"/>
<path d="M21.23,62.673c0,0,3.005-3.461,4.05-4.008c1.045-0.547,0.838,0.394,0.838,0.394l-3.877,3.414L21.23,62.673z"/>
<path d="M85.975,100.825c0,0,3.157,0.227,5.867,0.978c2.71,0.752,10.416,2.158,10.416,2.158l18.044,4.242l1.564,0.188
	c0,0-2.184-3.697-22.195-5.502c0,0-10.829-3.534-14.428-3.076L85.975,100.825z"/>
<path d="M85.371,99.992c0,0-0.729-1.218,0.478-2.591l0.416-0.689l-1.024,0.535l-0.453,0.844v0.814c0,0,0.371,0.99,0.368,1.056
	S85.371,99.992,85.371,99.992z"/>
<path d="M90.568,96.624c0,0,34.045-0.299,33.445,5.618l0.273-0.753c0,0-0.507-1.467-0.555-1.49
	c-0.049-0.022-2.569-1.437-2.569-1.437s-7.706-1.756-7.771-1.756s-10.123-0.455-10.123-0.455l-0.234-0.532
	c0,0-10.419-0.27-11.102-0.044C91.25,96.003,90.568,96.624,90.568,96.624z"/>
<path d="M94.234,54.382l4.139,6.687c0.148,0.24,0.459,0.32,0.705,0.183l0,0c0.264-0.148,0.35-0.487,0.188-0.743l-4.507-7.096
	L94.234,54.382z"/>
</svg>
