<?xml version="1.0" encoding="utf-8"?>
<!-- Generator: Adobe Illustrator 17.0.0, SVG Export Plug-In . SVG Version: 6.00 Build 0)  -->
<!DOCTYPE svg PUBLIC "-//W3C//DTD SVG 1.1//EN" "http://www.w3.org/Graphics/SVG/1.1/DTD/svg11.dtd">
<svg version="1.1" id="Layer_1" xmlns="http://www.w3.org/2000/svg" xmlns:xlink="http://www.w3.org/1999/xlink" x="0px" y="0px"
	 width="178.469px" height="180px" viewBox="10.766 10 178.469 180" enable-background="new 10.766 10 178.469 180"
	 xml:space="preserve">
<path fill="#EC314F" d="M63.546,114.918c-0.019-1.85,0.659-3.561,1.159-5.291c0.248-0.857,0.072-1.16-0.697-1.336
	c-1.157-0.265-2.29-0.702-3.197-1.418c-1.447-1.143-2.16-0.615-2.849,0.802c-0.51,1.047-1.226,1.993-1.851,2.983
	c-0.18-0.995-1.021-0.588-1.593-0.752c0.881-1.509,1.733-3.037,2.658-4.518c0.415-0.665,0.506-1.17,0.034-1.888
	c-0.668-1.016-1.189-2.143-1.1-3.432c0.008-0.673,0.016-1.346,0.024-2.02c0.031-0.314,0.061-0.629,0.093-0.944
	c0.08-0.216,0.159-0.432,0.238-0.647c0.029-0.146,0.057-0.291,0.086-0.438c0.089-0.194,0.177-0.389,0.266-0.583
	c0.479-1.688,1.725-2.632,3.294-3.083c2.141-0.616,3.741,0.636,3.818,2.882c0.079,2.324-0.873,4.363-2.018,6.28
	c-0.559,0.936-0.323,1.286,0.531,1.673c1.348,0.611,2.8,0.851,4.199,1.276c2.306,0.701,2.942,1.747,2.358,4.103
	c-0.887,3.582-1.885,7.137-2.744,10.725c-0.312,1.303-0.584,2.657-0.351,4.017c0.071,0.416-0.024,1.012,0.608,1.148
	c0.6,0.13,1.018-0.166,1.329-0.649c0.508-0.79,1.066-1.553,1.509-2.378c2.505-4.66,4.654-9.49,6.502-14.438
	c0.626-1.676,0.739-3.546,1.065-5.33c0.151-0.825,0.427-1.61,0.923-2.268c0.538-0.715,1.207-1.316,2.243-0.948
	c1.08,0.384,1.428,1.223,1.224,2.246c-0.412,2.076-0.77,4.156-0.946,6.268c-0.182,2.196-0.035,4.36,0.811,6.406
	c0.832,2.012,1.812,2.236,3.47,0.844c2.838-2.384,4.727-5.534,6.814-8.524c0.484-0.693,0.004-1.21-0.184-1.78
	c-0.775-2.341-0.747-4.642,0.427-6.839c1.442-2.7,5.181-3.214,7.193-1.027c0.487,0.528,0.85,1.142,0.862,1.881
	c0.007,0.451,0.07,0.988-0.547,1.156c-0.489,0.133-0.774-0.127-0.973-0.539c-0.445-0.924-1.197-1.27-2.177-1.073
	c-0.967,0.195-1.198,0.993-1.436,1.811c-0.608,2.093,0.012,3.969,1.072,5.709c0.947,1.555,2.09,2.989,3.09,4.514
	c0.453,0.691,0.802,0.564,1.409,0.179c2.7-1.713,4.898-3.596,5.282-7.183c0.269-2.519,1.35-4.955,2.099-7.417
	c0.171-0.562,0.529-1.025-0.26-1.469c-6.142-3.457-12.259-6.93-19.148-8.796c-5.479-1.483-10.581-0.409-15.592,1.799
	c-0.753,0.331-1.488,0.704-2.249,1.016c-0.892,0.368-1.973,0.746-2.505-0.316c-0.617-1.232,0.532-1.726,1.405-2.203
	c3.046-1.663,6.362-2.374,9.77-2.768c8.544-0.99,16.043,2.122,23.353,5.95c2.132,1.116,4.208,2.339,6.375,3.55
	c1.296-2.961,2.586-5.853,4.282-8.54c0.486-0.769,1.02-1.475,1.967-1.624c0.551-0.087,1.226-0.305,1.619,0.313
	c0.328,0.518,0.033,1.004-0.271,1.467c-1.718,2.622-2.862,5.521-4.085,8.386c-0.534,1.251-0.57,2.017,0.864,2.728
	c2.101,1.042,4.073,2.353,6.068,3.598c0.808,0.505,1.151,0.401,1.504-0.534c0.586-1.55,1.479-2.946,2.84-3.968
	c1.606-1.207,3.299-1.314,4.754-0.325c1.355,0.921,1.82,2.653,1.227,4.575c-0.918,2.976-2.193,4.027-5.397,4.259
	c-0.64,0.047-0.829,0.326-0.921,0.796c-0.418,2.122-0.817,4.248-1.205,6.375c-0.037,0.201-0.071,0.489,0.241,0.568
	c0.372,0.095,0.54-0.186,0.669-0.44c0.559-1.1,1.068-2.217,2.043-3.053c1.529-1.31,2.836-0.929,3.401,1.021
	c0.416,1.438,0.361,2.917,0.404,4.39c0.652,0.214,0.642-0.399,0.82-0.68c1.786-2.845,3.539-5.719,6.018-8.032
	c1.381-1.289,2.831-2.635,4.982-1.676c2.143,0.955,2.872,2.785,2.968,4.977c-0.579,0-1.159,0-1.738,0
	c-1.959-0.728-2.261-0.463-2.056,1.805c-0.091,0.215-0.183,0.43-0.275,0.645c0.115-1.175,0.062-2.335-0.064-3.515
	c-0.139-1.298-0.683-1.309-1.606-0.772c-1.577,0.918-2.606,2.364-3.601,3.819c-1.861,2.721-3.46,5.596-4.99,8.515
	c-0.374,0.713-0.612,1.928-1.789,1.55c-0.939-0.302-0.723-1.329-0.734-2.139c-0.028-2.178-0.069-4.356-0.117-6.534
	c-0.013-0.587-0.044-1.359-0.612-1.525c-0.842-0.245-0.974,0.68-1.229,1.206c-1.236,2.542-2.012,5.249-2.729,7.973
	c-0.104,0.397-0.206,0.795-0.28,1.198c-0.157,0.858-0.395,1.662-1.482,1.628c-1.063-0.033-1.526-0.821-1.772-1.692
	c-0.534-1.894-0.385-3.855-0.436-5.827c-0.733,0.001-0.735,0.675-0.958,1.066c-1.554,2.709-3.133,5.396-5.368,7.621
	c-0.457,0.455-0.944,0.892-1.469,1.263c-1.97,1.389-3.485,1.007-4.558-1.183c-1.545-3.152-1.892-6.514-1.614-9.968
	c0.06-0.749,0.162-1.493,0.268-2.455c-1.326,0.839-2.405,1.634-3.584,2.231c-0.862,0.435-0.446,0.975-0.302,1.463
	c0.547,1.868,0.484,3.724-0.098,5.549c-0.891,2.795-3.624,4.594-6.548,4.341c-1.851-0.16-3.22-1.004-3.82-2.873
	c-0.558-1.74-0.18-3.229,1.111-4.505c1.187-1.172,2.628-1.995,4.082-2.743c0.904-0.466,0.882-0.854,0.397-1.564
	c-0.93-1.357-1.605-3.575-2.79-3.884c-1.254-0.326-1.771,2.141-2.775,3.26c-1.49,1.66-2.715,3.554-4.496,4.958
	c-4.068,3.206-7.529,2.044-8.784-2.974c-0.111-0.443-0.165-0.9-0.34-1.877c-0.747,1.72-1.309,2.993-1.853,4.274
	c-1.242,2.922-2.561,5.806-4.284,8.483c-0.444,0.69-0.939,1.357-1.486,1.968c-0.919,1.024-1.91,1.977-3.487,1.534
	c-1.709-0.481-2.208-1.93-2.353-3.389c-0.231-2.337-0.312-4.707,0.341-7.019c0.84-0.128,2.217,0.423,2.213-0.925
	C65.439,114.46,64.201,115.115,63.546,114.918z M126.558,96.799c0.427-0.672,1.46-1.206,1.201-2.007
	c-0.313-0.964-1.191,0.008-1.812-0.107c-0.113-0.021-0.225-0.055-0.331-0.097c-0.473-0.19-0.989-0.995-1.431-0.137
	c-0.399,0.774,0.304,1.29,0.835,1.731c0.345,0.286,0.78,0.462,1.175,0.687c-1.028,0.928-1.816,1.991-2.094,3.434
	c1.839,0.278,2.736-0.744,3.376-2.062C127.898,97.375,127.664,96.771,126.558,96.799z M58.482,96.165
	c-0.292,0.22-0.288,0.508-0.187,0.818c0.001,0.162,0.002,0.323,0.002,0.485c-0.021,0.151-0.041,0.302-0.061,0.453
	c0.45,1.268,0.953,2.505,2.036,3.548c1.025-1.809,1.763-3.569,2.1-5.48c0.14-0.788,0.048-1.573-0.771-1.948
	c-0.812-0.372-1.581-0.158-2.243,0.455C58.862,94.952,58.603,95.519,58.482,96.165z M109.344,120.126
	c0.232-0.104,0.403-0.154,0.542-0.249c0.194-0.131,0.396-0.27,0.542-0.448c4.403-5.37,7.916-11.181,9.025-18.189
	c0.091-0.576-0.153-0.828-0.621-1.082c-2.319-1.26-4.636-2.526-6.919-3.852c-0.886-0.515-1.111-0.303-1.383,0.642
	c-0.776,2.707-1.49,5.428-1.896,8.21C107.907,110.167,107.646,115.172,109.344,120.126z M96.901,115.528
	c-0.022-0.348-0.056-0.873-0.085-1.398c-0.029-0.505-0.285-0.85-0.775-0.596c-1.819,0.94-3.684,1.889-4.434,3.987
	c-0.461,1.291,0.28,2.281,1.675,2.439C95.536,120.216,96.88,118.636,96.901,115.528z"/>
<path fill="#EC314F" d="M79.766,165.071c2.852-0.672,2.874-0.672,2.884-3.763c0.012-4.065-0.265-8.104-1.416-12.032
	c-0.213-0.728-0.48-1.455-0.829-2.127c-1.261-2.429-2.736-2.653-4.657-0.744c-2.507,2.49-4.645,5.332-7.363,7.621
	c-1.404,1.183-2.852,2.278-4.665,2.758c-2.796,0.74-4.484-0.441-4.74-3.311c-0.251-2.812,0.455-5.483,1.225-8.137
	c1.112-3.835,2.603-7.527,4.462-11.061c0.323-0.615,0.752-1.201,1.232-1.701c0.827-0.861,1.826-1.399,2.971-0.599
	c1.101,0.769,1.071,1.854,0.589,2.983c-1.196,2.807-2.47,5.583-3.568,8.427c-1.202,3.112-2.4,6.246-2.731,9.61
	c-0.173,1.757,0.394,2.146,1.986,1.389c0.967-0.459,1.774-1.154,2.505-1.929c2.542-2.699,5.091-5.393,7.616-8.109
	c4.5-4.842,8.8-2.033,10.499,2.131c1.911,4.678,2.275,9.563,2.01,14.539c-0.065,1.22-0.564,2.742-0.019,3.565
	c0.446,0.674,2.154,0.499,3.294,0.737c0.517,0.108,1.014,0.3,1.591,0.114c-0.46-1.858-0.918-3.709-1.376-5.56
	c0.79-0.001,1.58-0.002,2.371-0.003c0.859,1.341,1.982,2.12,3.66,1.719c0.606,1.453,1.207,2.906,1.818,4.356
	c0.201,0.477,0.36,0.9,1.043,1.01c3.127,0.503,6.241,1.094,9.403,1.35c13.84,2.008,26.131,0.184,34.496-2.925
	c-1.108-0.457-2.208-0.578-3.331-0.565c-1.084,0.012-1.737-0.63-1.724-1.599c0.016-1.244,1.069-0.999,1.87-0.926
	c3.126,0.289,6.091,1.211,9.008,2.32c0.924,0.352,1.141,0.847,0.58,1.716c-1.504,2.332-3.235,4.483-5.144,6.488
	c-0.76,0.798-1.739,0.885-2.523,0.145c-0.824-0.778-0.397-1.605,0.332-2.259c0.651-0.585,1.333-1.135,1.875-1.878
	c-3.631,0.762-7.14,1.632-10.725,2.183c-6.094,0.937-12.188,1.046-18.302,0.305c-0.351-0.043-0.717-0.017-1.053-0.107
	c-3.258-0.87-5.919-0.417-7.312,3.125c-0.18,0.459-0.682,0.802-1.065,1.169c-2.588,2.483-5.311,2.503-7.94,0.036
	c-2.01-1.886-3.345-4.245-4.436-6.728c-0.353-0.804-0.77-1.18-1.616-1.297c-1.509-0.209-3.01-0.492-4.504-0.794
	c-0.574-0.116-0.89,0.111-1.145,0.556c-0.274-1.073-1.052-0.712-1.643-0.481c-0.553,0.217-0.94,0.745-0.763,1.397
	c0.217,0.799,0.941,0.447,1.465,0.527c0.226,0.034,0.461,0.015,0.692,0.02c-1.632,7.668-4.879,14.369-11.685,18.777
	c-3.313,2.146-7.003,3.014-10.957,2.168c-4.475-0.957-6.437-4.005-5.334-8.448c0.643-2.595,1.853-4.938,3.821-6.823
	c0.479,0.579,0.678,1.503,1.717,1.394c0.118-0.004,0.236-0.007,0.353-0.011c-1.173,1.676-2.299,3.378-2.891,5.364
	c-1.019,3.424,0.463,5.799,3.961,6.391c4.141,0.701,7.379-0.97,9.956-4.005c3.799-4.474,5.58-9.826,6.372-15.562
	c0.111-0.803,0.439-1.673-0.967-1.347c-0.146,0.053-0.292,0.104-0.437,0.157c-3.109,0.564-6.008,1.728-8.829,3.106
	c-0.793-0.94-2.099-0.112-2.949-0.857c1.838-1.348,3.864-2.29,6.087-2.803c0.112-0.005,0.213-0.042,0.304-0.108
	c0.213-0.26,0.501-0.26,0.797-0.233c0.22-0.083,0.439-0.168,0.659-0.251c0.239-0.039,0.478-0.077,0.717-0.116
	c0.233-0.077,0.466-0.154,0.698-0.231c0.37-0.037,0.74-0.073,1.109-0.11C79.359,165.151,79.562,165.11,79.766,165.071z
	 M107.334,170.257c-2.23-0.393-4.356-0.767-6.751-1.189c1.162,1.631,1.785,3.49,3.907,3.509
	C105.923,172.59,106.734,171.567,107.334,170.257z M99.031,170.461c-0.678,0.12-1.72-0.215-1.742,0.878
	c-0.013,0.628,0.607,1.321,1.407,1.223c0.926-0.113,1.725-0.834,1.784-1.647C100.534,170.169,99.547,170.651,99.031,170.461z"/>
<path fill="#EC314F" d="M93.638,159.871c-0.79,0.001-1.58,0.002-2.371,0.003c-0.957-4.333-1.649-8.682-0.505-13.09
	c0.998-3.846,3.685-5.061,7.234-3.305c1.978,0.979,3.743,2.28,5.099,4.006c0.731,0.929,1.088,0.732,1.716,0.001
	c3.637-4.23,8.283-5.575,13.678-4.686c0.742,0.122,1.284,0.079,1.351-0.852c0.02-0.28,0.184-0.554,0.302-0.822
	c0.772-1.752,2.056-2.551,3.383-2.114c1.269,0.418,1.507,1.56,0.916,3.61c-1.455,5.048-2.438,10.165-1.883,15.459
	c0.064,0.611-0.035,1.447,0.722,1.664c0.785,0.226,1.313-0.461,1.732-0.985c2.169-2.712,3.265-5.947,4.324-9.187
	c0.455-1.392,0.747-2.837,1.209-4.227c0.357-1.076,0.875-2.269,2.262-2.051c1.354,0.211,1.623,1.414,1.526,2.601
	c-0.264,3.224-0.595,6.444-0.871,9.668c-0.1,1.173-0.149,2.352-0.164,3.528c-0.005,0.423-0.174,1.034,0.481,1.16
	c0.556,0.107,0.621-0.475,0.795-0.798c0.969-1.794,2.24-3.312,3.932-4.456c0.366-0.248,0.795-0.719,1.247-0.312
	c0.544,0.489,0.069,1.077-0.233,1.394c-2.194,2.305-3.61,5.054-4.744,7.982c-0.33,0.853-1.024,1.325-1.896,1.377
	c-0.99,0.059-1.656-0.571-2.065-1.403c-1.113-2.263-1.434-4.697-1.442-7.187c-0.002-0.587,0-1.174,0-1.832
	c-0.845,0.064-0.811,0.828-1.054,1.254c-1.12,1.958-2.314,3.845-4.271,5.077c-2.278,1.433-3.733,0.935-4.616-1.599
	c-0.945-2.713-0.996-5.539-0.885-8.369c0.056-1.413-0.011-2.87,0.323-4.222c0.375-1.516-0.326-1.753-1.484-1.766
	c-0.577-0.007-1.17-0.175-1.807,0.129c0.743,2.907,0.247,5.805-0.139,8.707c-0.244,0.186-0.261,0.44-0.209,0.713
	c-0.536,4.313-1.931,8.373-3.565,12.373c-0.481,1.177-1.425,0.4-2.107,0.674c-0.303-0.215-0.678-0.264-0.412-0.885
	c2.013-4.715,3.236-9.67,4.349-14.656c0.227-0.036,0.499-0.059,0.511-0.346c0.012-0.292-0.256-0.331-0.484-0.372
	c0.033-0.24,0.066-0.48,0.099-0.72c0.227-0.201,0.224-0.457,0.17-0.725c-0.005-1.177,0.045-2.358-0.038-3.529
	c-0.048-0.675-0.116-1.453-0.928-1.753c-0.774-0.287-1.335,0.114-1.898,0.599c-1.615,1.388-2.927,3.049-4.334,4.629
	c-0.699,0.785-0.721,1.404-0.279,2.329c1.086,2.272,1.178,4.641,0.241,7.003c-0.45,1.134-1.116,2.13-2.467,2.24
	c-1.362,0.111-2.323-0.65-3.093-1.689c-0.649-0.875-0.983-1.853-1-2.954c-0.029-1.757,0.544-3.325,1.341-4.858
	c1.511-2.909,1.442-3.167-1.129-5.403c-0.488-0.424-0.978-0.873-1.537-1.182c-1.134-0.627-2.255-1.975-3.619-1.131
	c-1.313,0.812-0.846,2.426-0.789,3.742c0.165,3.842,1.458,7.458,2.298,11.165C95.598,159.695,94.536,159.156,93.638,159.871z
	 M105.118,152.297c-1.39,2-2.327,3.854-2.331,6.061c-0.001,0.823-0.108,1.845,0.891,2.069c1.009,0.226,1.588-0.64,1.919-1.47
	C106.472,156.759,106.104,154.612,105.118,152.297z"/>
<path fill="#EC314F" d="M113.883,52.518c-0.826,0.642-1.508,1.169-2.187,1.7c-6.196,4.848-12.078,2.816-12.957-4.89
	c-0.966-8.465,0.027-16.806,4.221-24.464c1.598-2.919,3.856-5.213,7.149-6.214c2.183-0.663,4.374-0.709,6.113,1.022
	c1.714,1.706,1.814,3.879,1.223,6.097c-0.984,3.691-3.312,6.582-5.751,9.383c-2.521,2.895-5.38,5.442-8.341,7.877
	c-0.389,0.319-0.86,0.526-0.865,1.209c-0.021,2.656,0.08,5.296,1.036,7.809c0.941,2.474,2.372,3.047,4.878,2.072
	c1.908-0.743,3.377-2.109,4.903-3.4c0.595-0.503,0.435-1.162,0.454-1.8c0.171-5.763,0.279-11.545,2.562-16.977
	c1.716-4.084,4.54-7.154,8.804-8.619c1.826-0.628,3.863-1.153,5.507,0.402c1.76,1.665,1.549,3.859,1.002,5.95
	c-1.036,3.968-3.47,7.161-6.01,10.259c-2.204,2.688-4.59,5.211-7.128,7.594c-1.706,1.602-1.439,6.894,0.376,8.351
	c0.79,0.635,1.653,0.769,2.647,0.425c1.835-0.636,3.27-1.845,4.655-3.12c2.343-2.157,4.488-4.501,6.465-6.999
	c0.327-0.413,0.677-0.826,1.083-1.158c0.318-0.261,0.782-0.397,1.133-0.07c0.373,0.348,0.18,0.735-0.086,1.097
	c-2.937,3.989-5.876,7.979-10.066,10.792c-0.729,0.489-1.517,0.912-2.324,1.257c-4.066,1.739-7.319,0.036-8.213-4.266
	C114.085,53.452,114.001,53.067,113.883,52.518z M102.655,41.18c0.2-0.055,0.399-0.054,0.519-0.15
	c3.259-2.632,6.363-5.448,8.947-8.748c1.977-2.524,4.066-5.073,3.851-8.63c-0.094-1.567-0.146-3.132-1.83-3.884
	c-1.886-0.841-3.571-0.308-5.041,1.004c-1.661,1.484-2.653,3.409-3.456,5.447C103.755,31.013,103.037,36.037,102.655,41.18z
	 M117.593,46.395c3.291-3.143,6.044-6.107,8.543-9.291c2.067-2.634,4.136-5.315,4.546-8.805c0.179-1.524,0.376-3.245-1.196-4.144
	c-1.563-0.894-3.063-0.134-4.393,0.855c-2.088,1.551-3.464,3.655-4.547,5.965C118.326,35.714,118.383,40.885,117.593,46.395z"/>
<path fill="#EC314F" d="M141.774,106.428c0.579,0,1.159,0,1.738,0c0.902,3.425,0.008,6.766-0.493,10.121
	c-0.145,0.972-0.394,1.926-0.338,3.008c1.439-1.827,2.733-3.795,4.35-5.447c2.359-2.409,3.813-5.103,4.56-8.439
	c0.823-3.677,3.062-6.719,5.901-9.233c1.489-1.318,3.171-2.237,5.264-2.045c2.641,0.241,4.34,3.793,2.861,5.977
	c-0.175,0.259-0.358,0.483-0.698,0.397c-0.323-0.081-0.467-0.341-0.488-0.657c-0.099-1.474-0.618-2.677-2.221-2.979
	c-1.606-0.303-2.712,0.659-3.582,1.796c-2.7,3.525-3.96,7.576-3.977,11.986c-0.003,0.768-0.182,1.977,0.958,2.226
	c0.972,0.212,1.382-0.767,1.824-1.422c1.217-1.8,2.341-3.662,3.556-5.462c0.822-1.218,1.713-2.391,2.614-3.553
	c0.652-0.842,1.486-1.36,2.587-0.89c1.223,0.523,0.864,1.652,0.646,2.46c-0.991,3.689-1.123,7.433-0.97,11.209
	c0.051,1.231,0.178,2.459,0.271,3.688c-1.387-0.236-2.774-0.472-4.162-0.708c-0.701-1.576-0.682-3.276-0.847-4.944
	c0-1.35,0-2.7,0-4.444c-0.285,0.675-0.41,0.974-0.536,1.273c-0.777,1.378-1.565,2.744-2.596,3.964
	c-2.592,3.066-5.432,2.782-7.345-0.921c-1.413,1.215-2.308,2.786-3.341,4.223c-1.849,2.574-3.582,5.232-5.426,7.81
	c-0.96,1.341-1.993,2.793-3.994,2.181c-1.108-0.339-1.674-2.591-1.24-4.615c0.796-3.719,2.007-7.347,2.425-11.149
	c0.109-0.989,0.244-1.975,0.367-2.962c0.091-0.215,0.183-0.43,0.275-0.645C140.755,108.032,141.421,107.41,141.774,106.428z"/>
<path fill="#EC314F" d="M82.311,34.649c1.98-0.11,3.08-0.949,3.75-3.031c1.202-3.733,2.74-7.394,5.424-10.397
	c1.262-1.413,2.744-2.357,4.755-2.286c1.138,0.04,1.498,0.548,1.212,1.575c-2.26,8.091-2.229,16.408-2.361,24.695
	c-0.063,3.987,0.091,7.997,1.94,11.714c0.499,1.002-0.139,1.462-1.111,1.34c-1.406-0.177-2.315-1.053-2.894-2.311
	c-1.25-2.715-1.739-5.602-1.86-8.553c-0.157-3.834,0.114-7.658,0.471-11.473c0.092-0.991-0.022-1.151-1.145-1.163
	c-3.022-0.032-4.341,1.383-5.042,4.225c-0.967,3.921-2.324,7.753-4.179,11.374c-0.782,1.527-1.689,2.969-3.018,4.094
	c-0.639,0.54-1.325,1.042-2.209,0.913c-0.566-0.082-1.255-0.194-1.433-0.859c-0.183-0.689,0.5-0.844,0.928-1.102
	c1.466-0.884,2.394-2.243,3.226-3.67c2.496-4.278,3.93-8.987,5.617-13.766c-0.784,0-1.428,0-2.072,0
	C82.31,35.527,82.31,35.088,82.311,34.649z M87.244,33.764c1.455-0.216,2.658-0.435,3.872-0.556
	c0.575-0.058,0.793-0.251,0.871-0.829c0.468-3.518,1.039-7.019,1.887-10.503C90.141,24.936,88.838,29.289,87.244,33.764z"/>
<path fill="#EC314F" d="M169.979,113.858c1.558-3.467,3.768-6.51,6.238-9.36c0.663-0.765,0.65-1.175-0.036-1.867
	c-1.434-1.448-2.541-3.097-2.562-5.255c-0.018-1.878,1.172-3.383,2.909-3.676c1.403-0.236,4.095,1.308,4.501,2.594
	c0.106,0.334,0.195,0.697-0.126,0.979c-0.263,0.23-0.562,0.139-0.827,0.01c-0.421-0.205-0.809-0.485-1.24-0.662
	c-0.496-0.204-1.048-0.882-1.545-0.203c-0.39,0.532,0.016,1.149,0.382,1.607c1.728,2.158,3.94,3.891,5.446,6.249
	c0.467,0.733,0.794,0.054,1.051-0.247c1.306-1.526,2.408-3.187,3.192-5.047c0.25-0.592,0.483-1.405,1.299-1.097
	c1.008,0.381,0.431,1.16,0.169,1.779c-0.86,2.02-2.005,3.876-3.514,5.462c-0.708,0.745-0.814,1.286-0.407,2.283
	c2.401,5.88,0.95,11.207-2.795,15.985c-2.011,2.566-4.866,3.028-7.199,1.608c-2.213-1.346-3.285-4.615-2.314-7.335
	c1.081-3.027,3.242-5.294,5.485-7.482c2.341-2.283,2.347-2.277,0.185-5.083c-2.69,2.53-4.6,5.616-6.45,8.747
	C171.205,113.312,170.594,113.895,169.979,113.858z M181.478,114.391c-0.016-0.353-0.037-0.706-0.047-1.059
	c-0.035-1.169,0.069-2.86-0.794-3.218c-0.868-0.359-1.584,1.258-2.335,2.028c-1.87,1.92-3.336,4.103-3.831,6.804
	c-0.229,1.251,0.091,2.37,1.207,3.078c1.122,0.712,2.149,0.212,3.092-0.47c0.627-0.452,1.104-1.039,1.463-1.735
	C181.118,118.113,181.54,116.309,181.478,114.391z"/>
<path fill="#EC314F" d="M18.903,88.716c-3.108,6.256-4.157,12.885-3.502,19.8c0.613,6.468,6.543,9.551,12.219,6.367
	c3.731-2.093,6.39-5.298,8.874-8.676c0.135-0.183,0.303-0.341,0.456-0.512c1.251,0.172,1.246,0.877,0.761,1.789
	c-2.873,3.934-6.234,7.352-10.673,9.496c-7.647,3.693-15.381-0.47-16.136-8.884c-0.582-6.489,0.668-12.741,3.898-18.498
	c0.312-0.557,0.744-1.048,1.119-1.571C16.914,88.259,17.908,88.488,18.903,88.716z"/>
<path fill="#EC314F" d="M49.898,123.425c-0.356,1.14-0.798,2.294-1.949,2.799c-1.643,0.72-2.979-0.552-2.902-2.802
	c0.145-4.254,1.008-8.378,2.499-12.363c0.573-1.534,1.236-3.034,1.885-4.539c0.279-0.646,0.869-1.544,0.242-1.918
	c-0.752-0.448-1.26,0.559-1.701,1.116c-1.206,1.522-2.342,3.098-3.531,4.634c-0.395,0.51-0.832,0.996-1.308,1.43
	c-1.964,1.785-3.76,1.237-4.34-1.334c-0.192-0.852-0.254-1.734-0.376-2.602c0.077-0.472,0.342-0.758,0.833-0.701
	c1.012,0.117,1.958-0.245,2.938-0.358c0.088,0.337,0.176,0.673,0.312,1.191c1.344-1.422,2.615-2.777,3.899-4.119
	c0.946-0.988,2.016-1.828,3.328-2.252c2.067-0.666,3.508,0.502,3.293,2.627c-0.257,2.535-1.307,4.859-1.986,7.282
	c-0.808,2.879-1.735,5.725-2.028,8.722c-0.363,0.257-0.571,0.688-1.124,0.73c-0.698,0.053-1.261,0.491-1.23,1.217
	c0.031,0.73,0.818,0.477,1.259,0.652C48.549,123.096,49.233,123.236,49.898,123.425z"/>
<path fill="#EC314F" d="M53.894,77.061c0.828,2.237-0.061,4.287-0.777,6.314c-1.441,4.076-3.93,7.586-6.264,11.172
	c-1.473,2.264-2.961,4.517-4.492,6.742c-0.558,0.812-0.855,1.641-0.732,2.617c-1.269,1.056-2.561-0.11-3.839,0.041
	c-0.699-5.871-0.714-11.732,0.263-17.577c0.106-0.634,0.292-1.254,0.44-1.881c1.586,0.579,2.194-1.225,3.462-1.422
	c0.116,0.001,0.231,0.002,0.347,0.002c-1.357,5.493-1.805,11.034-0.902,16.997c2.575-4.102,5.009-7.941,7.401-11.807
	c1.33-2.151,2.449-4.417,2.961-6.911c0.669-3.263-0.604-4.89-3.783-4.995c-0.118-0.239-0.236-0.478-0.355-0.717
	c0.115-0.117,0.23-0.233,0.345-0.35c1.416,0.459,2.832,1,4.245-0.006C51.334,77.232,53.115,76.674,53.894,77.061z M40.709,103.569
	c0.09-0.048,0.177-0.093,0.265-0.14c-0.082-0.052-0.164-0.141-0.248-0.144c-0.086-0.003-0.175,0.078-0.263,0.122
	C40.543,103.461,40.625,103.515,40.709,103.569z"/>
<path fill="#EC314F" d="M86.18,71.617c0.12-0.809,0.242-1.617,0.359-2.426c0.062-0.428-0.135-0.994,0.62-1.023
	c0.639-0.024,0.737,0.41,0.883,0.882c0.239,0.772,0.538,1.526,0.871,2.447c0.547-0.709,0.386-1.409,0.433-2.045
	c0.143-1.876,0.242-3.755,0.378-5.631c0.027-0.368-0.112-0.914,0.562-0.859c0.516,0.043,0.703,0.459,0.695,0.875
	c-0.024,1.175-0.096,2.349-0.184,3.522c-0.195,2.58-0.401,5.159-0.632,7.735c-0.046,0.504-0.073,1.15-0.819,1.138
	c-0.604-0.01-0.676-0.563-0.807-1.008c-0.245-0.836-0.478-1.675-0.779-2.731c-0.729,1.103-0.512,2.13-0.528,3.112
	c-0.01,0.547,0.001,1.133-0.7,1.23c-0.761,0.106-0.803-0.588-0.924-1.051c-0.915-3.506-1.786-7.024-2.694-10.533
	c-0.123-0.475-0.363-0.995,0.304-1.131c0.522-0.106,0.797,0.301,0.934,0.833c0.576,2.236,1.191,4.461,1.791,6.69
	C86.022,71.635,86.101,71.626,86.18,71.617z"/>
<path fill="#EC314F" d="M100.466,69.075c0.079,2.178,0.162,4.356,0.234,6.534c0.019,0.576,0.161,1.255-0.803,1.182
	c-0.859-0.065-0.599-0.707-0.61-1.189c-0.087-3.712-0.166-7.423-0.248-11.136c-0.015-0.675-0.193-1.654,0.602-1.739
	c0.773-0.083,1.213,0.787,1.421,1.573c0.58,2.187,1.165,4.373,1.748,6.559c0.161-0.011,0.321-0.023,0.482-0.034
	c0-2.286-0.016-4.573,0.012-6.859c0.007-0.534-0.134-1.351,0.748-1.278c0.809,0.067,0.68,0.812,0.643,1.399
	c-0.195,3.121-0.267,6.244-0.08,9.367c0.048,0.796,0.089,1.605-0.92,1.81c-1.141,0.23-1.161-0.735-1.368-1.432
	c-0.499-1.683-0.966-3.375-1.446-5.064c-0.148-0.24-0.004-0.654-0.514-0.766C100.404,68.392,100.434,68.734,100.466,69.075z"/>
<path fill="#EC314F" d="M18.903,88.716c-0.994-0.229-1.989-0.457-2.983-0.686c3.347-4.977,7.664-8.263,14.009-7.835
	c3.98,0.269,5.558,3.634,4.837,7.253c-0.115,0.577-0.397,1.429-1.23,1.19c-0.701-0.2-0.806-0.954-0.627-1.634
	c1.327-5.021-1.681-6.042-5.76-5.037c-2.499,0.616-4.475,2.032-6.12,3.938C20.263,86.793,19.608,87.777,18.903,88.716z"/>
<path fill="#EC314F" d="M169.979,113.858c0.615,0.037,1.227-0.546,1.844-0.011c-0.825,2.109-1.698,4.2-2.246,6.406
	c-0.063,0.119-0.128,0.237-0.191,0.356c-0.03,0.35-0.06,0.7-0.09,1.05c-0.331,0.277-0.272,0.66-0.281,1.025
	c-0.119,0.48-0.238,0.96-0.357,1.439c-0.348-0.001-0.696-0.001-1.044-0.002c-0.555,0.066-1.288-0.222-1.412,0.706
	c-0.252,0.122-0.347,0.33-0.329,0.601l-0.045,0.13c-2.189-1.283-2.958-3.44-3.516-5.724c0.201-0.949,0.943-0.739,1.481-0.558
	c0.783,0.263,1.561,0.229,2.349,0.247c0.02,0.228,0.04,0.455,0.059,0.683c0.033,0.256,0.012,0.592,0.374,0.569
	c0.125-0.008,0.233-0.294,0.348-0.454C167.742,118.072,168.698,115.889,169.979,113.858z"/>
<path fill="#EC314F" d="M42.3,83.067c-0.116,0-0.231-0.001-0.346-0.002c0.097-1.248-0.394-1.82-1.6-1.186
	c-0.839,0.441-0.586-0.409-0.878-0.594c0.727-2.593,1.975-4.833,4.295-6.348c0.101-0.081,0.203-0.163,0.304-0.244
	c2.817-1.802,5.854-1.733,8.169,0.185c-0.011,0.134-0.022,0.267-0.032,0.401c-1.414,1.006-2.83,0.465-4.245,0.006
	c-0.944,0.071-1.84-0.723-2.913-0.147c0.814,0.69,1.723,0.434,2.567,0.497c0.118,0.239,0.236,0.478,0.355,0.717
	c-1.151,0.455-2.203,1.041-3.058,1.98C43.666,79.711,43.058,81.426,42.3,83.067z"/>
<path fill="#EC314F" d="M130.566,74.756c-0.156,0.794-0.34,1.585-0.459,2.386c-0.084,0.565-0.173,1.124-0.905,1.001
	c-0.756-0.127-0.63-0.791-0.531-1.276c0.476-2.353,0.998-4.697,1.515-7.041c0.187-0.854,0.418-1.697,0.603-2.552
	c0.185-0.859,0.444-1.63,1.555-1.496c1.003,0.122,1.999,0.512,1.923,1.654c-0.167,2.47-0.069,5.056-1.736,7.155
	c-0.449,0.565-0.233,1.108-0.215,1.65c0.029,0.877,0.248,1.752,0.248,2.627c0,0.457,0.635,1.32-0.437,1.348
	c-0.828,0.022-0.941-0.695-0.983-1.393c-0.079-1.343-0.208-2.685-0.316-4.027C130.738,74.78,130.652,74.768,130.566,74.756z
	 M132.624,67.198c-1.034,1.764-1.15,3.758-1.688,5.636c-0.104,0.362,0.054,0.544,0.407,0.596c0.367,0.054,0.567-0.181,0.627-0.47
	C132.358,71.065,132.975,69.195,132.624,67.198z"/>
<path fill="#EC314F" d="M92.33,74.561c0.547-3.416,1.092-6.831,1.644-10.246c0.078-0.483-0.109-1.19,0.668-1.223
	c0.744-0.032,0.97,0.636,1.094,1.19c0.5,2.231,0.962,4.471,1.391,6.716c0.363,1.9,0.649,3.814,0.994,5.718
	c0.088,0.488,0.221,1.028-0.389,1.157c-0.498,0.105-0.876-0.244-0.974-0.795c-0.298-1.669-0.594-3.338-0.905-5.004
	c-0.101-0.543-0.018-1.252-0.931-1.174c-0.828,0.07-0.579,0.76-0.685,1.214c-0.214,0.912-0.385,1.837-0.529,2.764
	c-0.085,0.545-0.276,0.909-0.897,0.778C92.166,75.522,92.224,75.039,92.33,74.561z"/>
<path fill="#EC314F" d="M122.97,75.015c0.367-3.021,1.005-5.995,1.898-8.906c0.258-0.841,0.753-1.76,1.875-1.43
	c1.06,0.312,2.158,0.792,2.038,2.229c-0.25,2.995-0.936,5.888-2.162,8.64c-0.094,0.212-0.208,0.433-0.368,0.596
	c-0.653,0.663-1.295,1.507-2.374,1.127C122.818,76.899,122.961,75.904,122.97,75.015z M124.233,76.191
	c0.482-0.424,0.702-0.536,0.799-0.715c1.442-2.662,1.997-5.59,2.542-8.522c0.109-0.587-0.249-0.911-0.699-1.058
	c-0.678-0.221-0.702,0.445-0.829,0.809C125.031,69.645,124.535,72.687,124.233,76.191z"/>
<path fill="#EC314F" d="M103.637,129.122c-0.083,0.971-0.156,1.666-0.198,2.362c-0.026,0.426-0.001,0.791,0.611,0.829
	c1.344,0.083,1.649,1.043,1.81,2.183c0.252,1.78,0.055,3.536-0.212,5.279c-0.21,1.374-1.438,2.3-2.436,2.014
	c-0.971-0.28-1.907-2.176-1.603-3.23c0.144-0.502,0.425-0.917,0.973-0.82c0.712,0.126,0.761,0.617,0.439,1.194
	c-0.335,0.601,0.034,1.196,0.445,1.301c0.372,0.095,0.728-0.475,0.788-1.004c0.175-1.527,0.217-3.055,0.068-4.586
	c-0.039-0.404-0.004-0.83-0.652-0.785c-1.537,0.106-1.677-0.97-1.663-2.097c0.015-1.233-0.023-2.485,0.487-3.651
	c0.343-0.784,0.959-1.086,1.705-0.622c0.717,0.445,1.441,1.173,1.066,2.02C104.816,130.523,104.308,129.433,103.637,129.122z"/>
<path fill="#EC314F" d="M82.311,34.649c-0.001,0.439-0.001,0.879-0.002,1.319l-0.153,0.074l-0.167-0.033
	c-0.274-0.057-0.53-0.047-0.729,0.187c-0.484,0.048-0.968,0.094-1.452,0.142c-0.367-0.047-0.734-0.094-1.025,0.216
	c-3.739,0.648-7.444,0.67-11.112-0.487c-0.856-0.27-1.612-0.679-2.335-1.173c-0.653-0.446-0.987-1.017-0.47-1.782
	c0.556-0.823,1.254-0.601,1.76-0.05c2.365,2.572,5.432,2.686,8.583,2.568c0.368,0.046,0.738,0.106,1.055-0.167
	c0.828-0.062,1.657-0.125,2.485-0.187c0.274,0.053,0.526,0.035,0.715-0.207c0.48-0.045,0.96-0.089,1.44-0.134
	c0.221-0.051,0.442-0.102,0.663-0.153C81.815,34.739,82.063,34.693,82.311,34.649z"/>
<path fill="#EC314F" d="M117.69,75.918c0.255-3.428,0.63-7.16,1.457-10.827c0.143-0.634,0.202-1.459,1.195-1.492
	c1.065-0.035,2.117,0.001,3.003,0.681c0.194,0.149,0.374,0.424,0.125,0.756c-0.332,0.441-0.682,0.307-1.087,0.155
	c-1.076-0.405-1.922-0.358-2.121,1.062c-0.074,0.529-0.103,0.919,0.558,1.028c0.424,0.069,0.793,0.262,0.785,0.787
	c-0.008,0.528-0.439,0.78-0.812,0.764c-1.201-0.054-1.128,0.864-1.198,1.554c-0.218,2.16-0.582,4.309-0.497,6.497
	c0.024,0.61,0.351,1.622-0.77,1.589c-1.012-0.03-0.524-0.972-0.632-1.532C117.655,76.713,117.69,76.471,117.69,75.918z"/>
<path fill="#EC314F" d="M108.408,62.799c0.961,0,1.548-0.011,2.135,0.004c0.415,0.01,0.856,0.017,0.872,0.612
	c0.016,0.603-0.471,0.712-0.841,0.631c-1.372-0.301-1.298,0.538-1.391,1.483c-0.328,3.324-0.729,6.641-1.154,9.955
	c-0.061,0.482,0.107,1.366-0.843,1.214c-0.94-0.151-0.48-0.949-0.436-1.427c0.309-3.388,0.686-6.77,1.027-10.155
	c0.057-0.559,0.232-1.208-0.739-1.202c-0.426,0.002-0.855-0.27-0.784-0.762c0.101-0.703,0.691-0.437,1.121-0.422
	C107.845,62.743,108.313,62.792,108.408,62.799z"/>
<path fill="#EC314F" d="M54.519,109.908c0.572,0.164,1.414-0.244,1.593,0.752c-0.517,0.948-1.033,1.895-1.55,2.843
	c-1.094-0.123-1.241,0.256-0.567,1.07c-1.163,2.479-2.326,4.958-3.489,7.436c-0.253-0.121-0.506-0.242-0.758-0.363
	c-0.524-0.39-0.299-0.974-0.382-1.477c0.765-2.212,1.781-4.307,2.965-6.322c0.08-0.119,0.161-0.239,0.24-0.358
	C52.974,112.161,53.732,111.027,54.519,109.908z"/>
<path fill="#EC314F" d="M68.782,169.043c0.85,0.744,2.157-0.083,2.949,0.857c-1.893,1.27-3.748,2.59-5.455,4.106
	c-0.093,0.086-0.186,0.173-0.28,0.259l-0.079,0.079c-0.95,0.041-1.514,0.532-1.704,1.46c-1.038,0.109-1.237-0.815-1.716-1.394
	C64.179,172.138,66.28,170.355,68.782,169.043z"/>
<path fill="#EC314F" d="M77.005,77.644c0-0.034,0.168,0.463-0.468,0.502c-0.497,0.03-0.872-0.085-0.991-0.721
	c-0.655-3.51-1.358-7.011-2.042-10.515c-0.083-0.429-0.102-0.871,0.474-0.935c0.415-0.047,0.806,0.013,0.911,0.574
	C75.558,70.112,76.246,73.673,77.005,77.644z"/>
<path fill="#EC314F" d="M98.514,134.177c0.121-1.873,0.231-3.747,0.371-5.619c0.036-0.471-0.135-1.181,0.74-1.047
	c0.694,0.107,0.74,0.663,0.678,1.216c-0.383,3.394-0.271,6.801-0.287,10.205c-0.002,0.419,0.169,1.075-0.544,1.074
	c-0.602-0.001-0.906-0.43-0.901-1.067c0.014-1.585,0.005-3.171,0.005-4.756C98.555,134.181,98.535,134.179,98.514,134.177z"/>
<path fill="#EC314F" d="M37.79,103.945c1.278-0.151,2.571,1.015,3.839-0.041c0.503,0.9,0.217,1.953,0.558,2.884
	c-0.98,0.114-1.926,0.476-2.938,0.358c-0.491-0.057-0.756,0.229-0.833,0.701c-0.173-0.244-0.346-0.484-0.706-0.363
	c0.485-0.91,0.49-1.617-0.761-1.789C37.23,105.113,37.509,104.529,37.79,103.945z"/>
<path fill="#EC314F" d="M39.476,81.285c0.293,0.184,0.041,1.035,0.878,0.594c1.207-0.635,1.697-0.062,1.6,1.186
	c-1.268,0.196-1.876,2.001-3.462,1.422C38.731,83.392,38.924,82.284,39.476,81.285z"/>
<path fill="#EC314F" d="M49.366,120.168c0.082,0.505-0.142,1.088,0.382,1.477c0.048,0.478-0.151,1.009,0.303,1.399
	c-0.051,0.127-0.102,0.254-0.153,0.381c-0.665-0.189-1.349-0.33-1.988-0.584c-0.441-0.175-1.228,0.076-1.259-0.652
	c-0.031-0.726,0.532-1.164,1.23-1.217c0.553-0.042,0.761-0.473,1.124-0.73C49.126,120.218,49.246,120.193,49.366,120.168z"/>
<path fill="#EC314F" d="M81.321,95.211c-0.012,1.152-0.637,1.464-1.401,1.47c-0.725,0.006-1.22-0.345-1.188-1.2
	c0.032-0.853,0.471-1.386,1.272-1.395C80.796,94.078,81.293,94.585,81.321,95.211z"/>
<path fill="#EC314F" d="M86.652,168.735c-0.231-0.005-0.465,0.014-0.692-0.02c-0.525-0.078-1.248,0.274-1.465-0.527
	c-0.176-0.652,0.21-1.18,0.763-1.397c0.591-0.231,1.369-0.592,1.643,0.481C86.927,167.779,86.985,168.29,86.652,168.735z"/>
<path fill="#EC314F" d="M166.201,124.827c0.125-0.927,0.857-0.64,1.412-0.706c-0.054,0.614,0.056,1.1,0.835,1.054
	c-0.669,1.523-1.652,0.908-2.621,0.383c0,0,0.045-0.13,0.044-0.13c0.223,0.047,0.471,0.069,0.534-0.201
	C166.433,125.117,166.275,124.962,166.201,124.827z"/>
<path fill="#EC314F" d="M63.546,114.918c0.654,0.195,1.894-0.458,1.897,0.496c0.004,1.347-1.373,0.796-2.213,0.925
	c0.014-0.124,0.028-0.249,0.042-0.373C63.599,115.68,63.49,115.277,63.546,114.918L63.546,114.918z"/>
<path fill="#EC314F" d="M52.211,75.28c0.011-0.134,0.022-0.267,0.032-0.401c0.931,0.439,1.317,1.291,1.651,2.181
	C53.115,76.674,51.334,77.232,52.211,75.28z"/>
<path fill="#EC314F" d="M166.142,119.523c-0.788-0.018-1.566,0.015-2.349-0.247c-0.538-0.18-1.281-0.391-1.481,0.558
	c-0.317-0.408-0.442-0.862-0.337-1.373c1.387,0.236,2.774,0.472,4.162,0.708C166.138,119.287,166.14,119.405,166.142,119.523z"/>
<path fill="#EC314F" d="M168.449,125.175c-0.779,0.046-0.888-0.439-0.835-1.054c0.348,0.001,0.696,0.001,1.044,0.002
	C168.739,124.504,168.704,124.862,168.449,125.175z"/>
<path fill="#EC314F" d="M50.051,123.045c-0.454-0.39-0.256-0.921-0.303-1.399c0.253,0.121,0.506,0.242,0.758,0.363
	C50.354,122.354,50.203,122.7,50.051,123.045z"/>
<path fill="#EC314F" d="M53.995,114.573c-0.674-0.814-0.526-1.193,0.567-1.07C54.374,113.859,54.185,114.216,53.995,114.573z"/>
<path fill="#EC314F" d="M56.134,98.05c-0.008,0.673-0.016,1.346-0.024,2.02C55.851,99.393,55.871,98.72,56.134,98.05z"/>
<path fill="#EC314F" d="M166.923,120.321c-0.115,0.16-0.223,0.446-0.348,0.454c-0.362,0.023-0.341-0.312-0.374-0.569
	C166.407,120.461,166.64,120.543,166.923,120.321z"/>
<path fill="#EC314F" d="M76.265,35.465c-0.317,0.273-0.687,0.212-1.055,0.167C75.538,35.422,75.892,35.385,76.265,35.465z"/>
<path fill="#EC314F" d="M78.783,36.555c0.292-0.31,0.658-0.262,1.025-0.216C79.466,36.411,79.125,36.482,78.783,36.555z"/>
<path fill="#EC314F" d="M63.545,114.918c-0.056,0.359,0.053,0.76-0.276,1.048C63.202,115.576,63.328,115.234,63.545,114.918z"/>
<path fill="#EC314F" d="M169.015,122.685c0.01-0.365-0.051-0.749,0.281-1.025C169.202,122.001,169.109,122.343,169.015,122.685z"/>
<path fill="#EC314F" d="M81.26,36.197c0.198-0.234,0.455-0.245,0.729-0.187C81.745,36.072,81.502,36.134,81.26,36.197z"/>
<path fill="#EC314F" d="M79.465,35.07c-0.188,0.242-0.441,0.259-0.715,0.207C78.988,35.208,79.227,35.14,79.465,35.07z"/>
<path fill="#EC314F" d="M81.568,34.784c-0.221,0.051-0.442,0.102-0.663,0.153C81.126,34.886,81.347,34.835,81.568,34.784z"/>
<path fill="#EC314F" d="M76.63,165.649c-0.22,0.083-0.44,0.168-0.659,0.251C76.191,165.815,76.41,165.732,76.63,165.649z"/>
<path fill="#EC314F" d="M78.045,165.302c-0.233,0.077-0.466,0.154-0.698,0.231C77.579,165.455,77.812,165.378,78.045,165.302z"/>
<path fill="#EC314F" d="M115.233,154.937c-0.052-0.274-0.036-0.527,0.209-0.713C115.372,154.462,115.303,154.7,115.233,154.937z"/>
<path fill="#EC314F" d="M79.766,165.071c-0.204,0.041-0.408,0.08-0.612,0.121C79.359,165.151,79.562,165.11,79.766,165.071z"/>
<path fill="#EC314F" d="M169.386,120.609c0.063-0.119,0.128-0.237,0.191-0.356C169.513,120.372,169.45,120.49,169.386,120.609z"/>
<path fill="#EC314F" d="M56.817,95.438c-0.088,0.194-0.176,0.388-0.266,0.583C56.473,95.75,56.617,95.581,56.817,95.438z"/>
<path fill="#EC314F" d="M52.57,113.488c-0.08,0.119-0.161,0.239-0.24,0.358C52.411,113.726,52.49,113.607,52.57,113.488z"/>
<path fill="#EC314F" d="M44.075,74.694c-0.101,0.081-0.203,0.163-0.304,0.244C43.872,74.856,43.974,74.775,44.075,74.694z"/>
<path fill="#EC314F" d="M75.173,166.132c-0.09,0.066-0.191,0.102-0.304,0.108C74.944,166.13,75.045,166.095,75.173,166.132z"/>
<path fill="#EC314F" d="M56.465,96.458c-0.079,0.216-0.159,0.431-0.238,0.647C56.137,96.828,56.232,96.618,56.465,96.458z"/>
<path fill="#EC314F" d="M126.558,96.799c-0.121,0.024-0.242,0.047-0.363,0.07c-0.395-0.225-0.831-0.402-1.175-0.687
	c-0.531-0.44-1.233-0.957-0.835-1.731c0.442-0.859,0.957-0.054,1.431,0.137c0.106,0.043,0.218,0.076,0.331,0.097
	c0.622,0.116,1.499-0.857,1.812,0.107C128.019,95.594,126.986,96.127,126.558,96.799z"/>
<path fill="#EC314F" d="M141.774,106.428c-0.353,0.982-1.019,1.604-2.057,1.804C139.513,105.965,139.815,105.7,141.774,106.428z"/>
<path fill="#EC314F" d="M58.482,96.165c-0.062,0.273-0.125,0.545-0.187,0.818C58.194,96.672,58.188,96.385,58.482,96.165z"/>
<path fill="#EC314F" d="M58.295,97.468c0.176,0.177,0.12,0.324-0.061,0.453C58.255,97.769,58.275,97.618,58.295,97.468z"/>
<path fill="#EC314F" d="M96.562,159.488c0.245,0.701,0.49,1.401,0.735,2.102c-1.677,0.4-2.801-0.378-3.66-1.719
	C94.536,159.156,95.598,159.695,96.562,159.488z"/>
<path fill="#EC314F" d="M99.031,170.461c0.516,0.189,1.503-0.292,1.449,0.454c-0.059,0.813-0.858,1.534-1.784,1.647
	c-0.8,0.098-1.42-0.595-1.407-1.223C97.311,170.246,98.353,170.58,99.031,170.461z"/>
<path fill="#EC314F" d="M65.918,174.344c-0.45,0.483-0.9,0.966-1.35,1.449c-0.118,0.004-0.235,0.007-0.353,0.011
	C64.404,174.876,64.968,174.385,65.918,174.344z"/>
<path fill="#EC314F" d="M80.998,166.636c-0.146,0.053-0.292,0.104-0.437,0.157C80.706,166.74,80.852,166.689,80.998,166.636z"/>
<path fill="#EC314F" d="M113.496,152.444c0.009-0.239,0.018-0.479,0.027-0.718c0.228,0.041,0.495,0.081,0.484,0.372
	C113.996,152.384,113.723,152.408,113.496,152.444z"/>
<path fill="#EC314F" d="M113.622,151.005c0.057-0.242,0.113-0.483,0.17-0.725C113.846,150.548,113.849,150.804,113.622,151.005z"/>
<path fill="#EC314F" d="M47.622,75.636c-0.844-0.061-1.754,0.193-2.567-0.497c1.073-0.576,1.969,0.218,2.913,0.147
	C47.852,75.402,47.737,75.519,47.622,75.636z"/>
<path fill="#EC314F" d="M40.709,103.569c-0.084-0.055-0.165-0.108-0.246-0.162c0.087-0.045,0.176-0.125,0.263-0.122
	c0.084,0.003,0.166,0.092,0.248,0.144C40.886,103.476,40.799,103.522,40.709,103.569z"/>
<path fill="#EC314F" d="M166.201,124.827c0.074,0.135,0.231,0.29,0.205,0.401c-0.063,0.27-0.31,0.247-0.534,0.201
	C165.854,125.158,165.949,124.95,166.201,124.827z"/>
<path fill="#EC314F" d="M66.276,174.006c-0.093,0.086-0.186,0.173-0.28,0.259C66.09,174.178,66.183,174.092,66.276,174.006z"/>
<rect x="143.719" y="134.73" transform="matrix(-0.295 -0.9555 0.9555 -0.295 54.1321 317.5469)" fill="#EC314F" width="0.992" height="8.146"/>
<rect x="149.675" y="135.651" transform="matrix(-0.1151 -0.9934 0.9934 -0.1151 25.0082 309.081)" fill="#EC314F" width="0.992" height="15.501"/>
<path fill="#EC314F" d="M152.434,149.315c-3.373-0.414-8.482-1.039-8.734-1.058l0.028-0.991c0.11,0,3.08,0.358,8.825,1.065
	L152.434,149.315z"/>
<rect x="143.712" y="152.742" transform="matrix(-0.9637 -0.2671 0.2671 -0.9637 257.6179 341.5152)" fill="#EC314F" width="16.646" height="0.991"/>
<path fill="#EC314F" d="M153.046,159.561c-0.877-0.41-8.598-4.023-9.33-4.588l0.606-0.784c0.485,0.375,5.867,2.943,9.145,4.474
	L153.046,159.561z"/>
<rect x="46.797" y="138.313" transform="matrix(-0.9557 -0.2944 0.2944 -0.9557 58.6197 286.4415)" fill="#EC314F" width="8.145" height="0.992"/>
<rect x="37.166" y="142.919" transform="matrix(-0.9933 -0.1156 0.1156 -0.9933 72.9552 291.0606)" fill="#EC314F" width="15.502" height="0.993"/>
<path fill="#EC314F" d="M42.653,149.315l-0.121-0.984c5.745-0.707,8.715-1.065,8.825-1.065l0.029,0.991
	C51.134,148.276,46.025,148.901,42.653,149.315z"/>
<rect x="42.556" y="144.898" transform="matrix(-0.2668 -0.9637 0.9637 -0.2668 -93.128 235.5925)" fill="#EC314F" width="0.99" height="16.645"/>
<path fill="#EC314F" d="M42.04,159.561l-0.419-0.898c3.278-1.531,8.659-4.099,9.144-4.474l0.606,0.784
	C50.639,155.539,42.918,159.15,42.04,159.561z"/>
<path fill="#508734" d="M148.594,65.18c1.169-3.038,5.247-4.209,6.199-7.322c1.139-3.728-0.403-7.71-2.115-11.213
	c-0.865-1.77-1.809-3.726-1.088-5.635c0.79-2.093,3.15-3.072,5.328-2.56c2.853,0.67,4.615,3.454,5.068,6.265
	c0.409,2.549-0.078,5.148-0.593,7.677c5.417-7.331,6.148-17.393,3.585-26.141c-0.998-3.409-2.471-6.777-2.415-10.329
	c0.029-1.831,0.554-3.787,1.983-4.933c1.32-1.059,3.207-1.222,4.822-0.718s2.989,1.593,4.147,2.826
	c4.986,5.309,6.292,13.188,5.599,20.438c1.258-1.872,2.982-3.429,4.973-4.491c0.619-0.33,1.288-0.618,1.989-0.613
	c1.169,0.01,2.217,0.875,2.687,1.945c0.47,1.07,0.441,2.302,0.188,3.444c-0.994,4.503-5.283,7.734-9.799,8.671
	c-0.827,0.172-1.703,0.295-2.382,0.799c-0.818,0.608-1.177,1.636-1.547,2.586c-2.036,5.222-5.659,9.735-9.959,13.33
	c-2.519,2.107-5.306,3.87-8.181,5.446c-1.44,0.789-2.904,1.534-4.377,2.257c-1.108,0.543-2.755,1.664-3.877,0.577
	C148.384,67.055,148.146,66.344,148.594,65.18z"/>
<path fill="#508734" d="M57.099,65.18c-1.169-3.038-5.247-4.209-6.199-7.322c-1.139-3.728,0.403-7.71,2.115-11.213
	c0.865-1.77,1.809-3.726,1.088-5.635c-0.79-2.093-3.15-3.072-5.328-2.56c-2.853,0.67-4.615,3.454-5.068,6.265
	c-0.409,2.549,0.078,5.148,0.593,7.677C38.883,45.062,38.151,35,40.714,26.252c0.998-3.409,2.471-6.777,2.415-10.329
	c-0.029-1.831-0.554-3.787-1.983-4.933c-1.32-1.059-3.207-1.222-4.822-0.718s-2.989,1.593-4.147,2.826
	c-4.986,5.309-6.292,13.188-5.599,20.438c-1.258-1.872-2.982-3.429-4.973-4.491c-0.619-0.33-1.288-0.618-1.989-0.613
	c-1.169,0.01-2.217,0.875-2.687,1.945c-0.47,1.071-0.441,2.302-0.188,3.444c0.994,4.503,5.283,7.734,9.799,8.671
	c0.827,0.172,1.703,0.295,2.382,0.799c0.818,0.608,1.177,1.636,1.547,2.586c2.036,5.222,5.659,9.735,9.959,13.33
	c2.519,2.107,5.306,3.87,8.181,5.446c1.44,0.789,2.904,1.534,4.377,2.257c1.108,0.543,2.755,1.664,3.877,0.577
	C57.309,67.055,57.547,66.344,57.099,65.18z"/>
</svg>
