<?xml version="1.0" encoding="utf-8"?>
<!-- Generator: Adobe Illustrator 17.0.0, SVG Export Plug-In . SVG Version: 6.00 Build 0)  -->
<!DOCTYPE svg PUBLIC "-//W3C//DTD SVG 1.1//EN" "http://www.w3.org/Graphics/SVG/1.1/DTD/svg11.dtd">
<svg version="1.1" id="Layer_1" xmlns="http://www.w3.org/2000/svg" xmlns:xlink="http://www.w3.org/1999/xlink" x="0px" y="0px"
	 width="180px" height="160.2px" viewBox="0 0 180 160.2" enable-background="new 0 0 180 160.2" xml:space="preserve">
<path d="M81.32,143.396c-2.154,3.383-4.534,5.765-8.348,6.069c-0.589,0.047-0.834,0.431-1.104,0.879
	c-1.761,2.919-4.364,4.504-7.724,3.741c-3.55-0.805-5.178-3.711-5.588-7.051c-0.474-3.863-0.358-7.766,1.011-11.516
	c0.368-1.009,0.776-1.858,2.102-1.608c1.026,0.193,0.981-0.755,1.257-1.304c1.199-2.387,2.593-4.431,5.692-4.451
	c2.417-0.016,3.915,1.203,4.758,3.287c1.587,3.923,1.24,7.992,0.696,12.054c-0.122,0.914-0.313,1.819-0.494,2.855
	c4.06-1.117,5.689-4.238,7.11-7.586c1.098-2.588,0.533-5.329,0.847-7.988c0.132-1.122,0.341-2.061,1.707-2.331
	c2.261-0.447,3.218,0.335,3.207,2.7c-0.02,4.203-0.006,8.406-0.006,12.683c0.457-0.485,0.488-1.115,0.631-1.715
	c0.916-3.832,1.818-7.672,3.409-11.296c0.682-1.555,1.528-3.037,2.966-4.045c1.663-1.165,3.778-0.63,4.5,1.243
	c0.87,2.258,0.897,4.661,0.824,7.05c-0.023,0.753-0.536,1.089-1.241,1.16c-0.711,0.071-1.241-0.195-1.455-0.899
	c-0.419-1.373-0.808-2.754-1.271-4.344c-1.338,1.929-2.084,3.998-2.817,6.059c-1.81,5.091-2.806,10.385-3.71,15.689
	c-0.242,1.418-0.693,2.374-2.21,2.553c-1.62,0.191-2.45-0.803-2.939-2.11C82.008,150.173,81.617,147.016,81.32,143.396z
	 M62.951,138.413c0.019,0.043,0.03,0.092,0.059,0.126c0.018,0.021,0.062,0.02,0.095,0.029c-0.05-0.053-0.1-0.105-0.151-0.158
	c-0.055-0.028-0.11-0.056-0.165-0.084C62.842,138.355,62.896,138.384,62.951,138.413z M68.486,145.491
	c0.971-2.704,1.429-8.711,0.875-11.351c-0.076-0.361-0.208-0.713-0.339-1.06c-0.233-0.62-0.604-1.098-1.335-1.129
	c-0.669-0.029-1.012,0.436-1.285,0.933C64.301,136.698,64.946,142.872,68.486,145.491z M63.337,144.155
	c-0.041,2.162,0.171,3.799,0.838,5.354c0.257,0.6,0.704,1.107,1.455,0.9c0.836-0.23,1.422-0.874,1.731-1.619
	c0.271-0.653-0.547-0.706-0.897-0.973C65.282,146.914,64.344,145.792,63.337,144.155z M72.257,147.901
	c-0.041-0.108-0.052-0.257-0.125-0.298c-0.067-0.038-0.247,0.005-0.294,0.071c-0.116,0.161-0.06,0.331,0.141,0.372
	C72.059,148.063,72.164,147.953,72.257,147.901z"/>
<path fill="#B32025" d="M91.597,111.119c0.724-0.381,1.246-0.687,1.794-0.931c0.38-0.169,0.835-0.417,1.114,0.161
	c0.188,0.39,0.083,0.884-0.26,0.992c-3.946,1.236-2.344,4.312-2.196,6.798c0.209,3.518,0.309,3.515,3.423,1.862
	c0.564-0.299,1.178-0.722,1.634,0.018c0.457,0.742-0.014,1.318-0.643,1.717c-0.365,0.232-0.782,0.388-1.185,0.554
	c-5.229,2.154-6.163,1.592-6.765-3.962c-0.59-5.445-0.67-10.883,0.045-16.322c0.559-4.246,2.805-6.262,6.485-5.843
	c0.725,0.083,1.44,0.166,1.424,1.111c-0.018,1.099-0.92,0.938-1.525,0.828c-1.436-0.262-2.04,0.387-2.365,1.68
	C91.656,103.443,91.481,107.149,91.597,111.119z"/>
<path fill="#B32025" d="M74.056,66.681c0.011,0.678-0.561,0.934-1.187,0.923c-1.967-0.038-2.702,0.859-2.946,2.871
	c-0.681,5.6-0.826,11.4-0.129,17.004c0.001,0.005,0.001,0.01,0.002,0.015c0.089,0.712,0.192,1.423,0.309,2.131
	c0.104,0.629,0.32,1.295,0.32,1.933c0.002,0.191-0.023,0.39-0.124,0.552c-0.26,0.417-0.864,0.443-1.302,0.438
	c-0.489-0.006-1.028-0.054-1.371-0.403c-0.294-0.299-0.368-0.745-0.428-1.16c-0.247-1.719-0.494-3.438-0.65-5.167
	c-0.241-2.675-0.286-5.39-0.356-8.064c-0.07-2.672,0.219-5.374,0.795-7.983c0.067-0.304,0.145-0.649,0.115-0.959
	c-0.022-0.222-0.121-0.448-0.308-0.57c-0.11-0.072-0.242-0.103-0.372-0.118c-0.924-0.111-2.61,0.808-2.758-0.737
	c-0.124-1.296,1.051-1.04,1.756-1.108c2.43-0.23,4.868-0.35,7.302-0.524C73.435,65.701,74.045,65.894,74.056,66.681z"/>
<path fill="#B32025" d="M70.273,97.735c-0.31,0.001-0.631-0.019-0.928,0.042c-0.653,0.134-1.166,0.671-1.443,1.278
	s-0.353,1.283-0.42,1.946c-0.371,3.675-0.543,7.373-0.437,11.066c0.054,1.887,0.181,3.771,0.391,5.647
	c0.105,0.938,0.231,1.873,0.378,2.805c0.098,0.618,0.443,1.599-0.229,2.031c-0.268,0.172-0.601,0.208-0.918,0.195
	c-0.54-0.022-1.103-0.19-1.457-0.598c-0.373-0.428-0.449-1.032-0.508-1.597c-0.735-7.018-1.348-14.157-0.033-21.09
	c0.05-0.264,0.101-0.546-0.007-0.792c-0.203-0.461-0.831-0.532-1.327-0.44c-0.495,0.092-1.02,0.276-1.484,0.079
	c-0.582-0.246-0.761-1.127-0.32-1.581c0.336-0.346,0.864-0.395,1.345-0.424c2.466-0.148,4.932-0.297,7.397-0.445
	c0.244-0.015,0.496-0.028,0.727,0.054c0.61,0.218,0.766,1.173,0.258,1.574C70.981,97.703,70.634,97.733,70.273,97.735z"/>
<rect x="107.025" y="151.971" width="0.008" height="0.008"/>
<polygon points="108.917,153.482 108.913,153.482 108.913,153.478 "/>
<path fill="#B32025" d="M41.587,79.634c0.029,1.52-1.153,2.873-2.557,2.929c-1.399,0.056-2.711-1.232-2.78-2.729
	c-0.075-1.62,1.125-2.941,2.686-2.96C40.45,76.856,41.556,78.007,41.587,79.634z"/>
<path fill="#B32025" d="M139.817,79.058c1.562,0.014,2.709,1.295,2.663,2.977c-0.043,1.574-1.225,2.755-2.721,2.72
	c-1.462-0.035-2.611-1.305-2.604-2.878C137.163,80.337,138.383,79.045,139.817,79.058z"/>
<path fill="#B32025" d="M141.856,85.984c1.51-0.014,2.696,1.16,2.749,2.72c0.053,1.574-1.273,3.011-2.734,2.963
	c-1.448-0.048-2.632-1.333-2.634-2.862C139.234,87.22,140.369,85.998,141.856,85.984z"/>
<path fill="#B32025" d="M34.594,86.474c0.033-1.606,1.139-2.739,2.665-2.725c1.433,0.012,2.68,1.315,2.683,2.803
	c0.003,1.48-1.452,2.932-2.875,2.867C35.616,89.353,34.561,88.097,34.594,86.474z"/>
<path fill="#B32025" d="M138.668,87.571c0.042,1.528-1.097,2.85-2.541,2.95c-1.395,0.096-2.697-1.169-2.776-2.7
	c-0.085-1.632,1.111-3.001,2.617-2.994C137.464,84.833,138.626,86.014,138.668,87.571z"/>
<path fill="#B32025" d="M44.445,83.053c1.95,1.659,1.838,3.454-0.304,4.887c-2.547-1.048-2.685-1.609-0.888-3.492
	C43.676,84.006,44.049,83.519,44.445,83.053z"/>
<path fill="#B32025" d="M44.445,83.053c-0.396,0.466-0.77,0.953-1.191,1.395c-1.798,1.882-1.66,2.444,0.888,3.492
	c-1.364,0.812-2.448,0.189-3.188-0.875c-0.799-1.149-0.792-2.48,0.217-3.576C42.103,82.473,43.216,82.156,44.445,83.053z"/>
<path d="M154.671,135.948c-0.332-0.03-0.696,0.07-0.952,0.287c-0.516,0.437-0.705,1.137-0.884,1.788
	c-0.803,2.915-1.944,5.737-3.393,8.39c-1.183,2.166-2.845,5.625-5.176,6.752c-2.658,1.285-2.755-2.739-3.106-4.274
	c-0.41-1.795-0.772-3.601-1.085-5.416c-0.483-2.803-0.838-5.745,0.068-8.441c0.828-2.465,2.621-4.46,4.206-6.522
	c4.857-6.316,8.109-14.052,8.175-22.02c0.012-1.445-0.134-3.025-1.134-4.068c-1.086-1.133-2.924-1.272-4.381-0.688
	c-1.457,0.583-2.595,1.755-3.572,2.983c-5.378,6.761-6.99,15.68-8.43,24.199c-1.288-1.798-3.953-2.188-6.001-1.351
	s-3.553,2.635-4.678,4.54c-2.151,3.643-3.186,7.815-4.565,11.814c-1.379,4-3.242,8.031-6.551,10.668
	c-0.753,0.601-1.828,1.126-2.629,0.591c-0.419-0.28-0.628-0.779-0.806-1.251c-1.195-3.174-2.027-6.484-2.475-9.845
	c-0.181-1.357-0.295-2.765,0.115-4.072c0.57-1.815,2.053-3.164,3.405-4.502c6.693-6.622,11.562-15.367,12.35-24.75
	c0.145-1.723,0.148-3.491-0.374-5.139c-0.522-1.648-1.636-3.175-3.224-3.86c-1.584-0.684-3.459-0.448-5.004,0.319
	s-2.801,2.016-3.886,3.358c-2.903,3.592-4.734,7.942-6.014,12.379c-2.612,9.059-3.045,18.673-1.865,28.026
	c0.461,3.655,1.207,7.385,3.223,10.468c1.165,1.782,3.049,3.413,5.163,3.168c1.321-0.153,2.445-1.012,3.422-1.914
	c2.93-2.705,5.211-6.108,6.599-9.847c0.683,1.899,1.674,4.078,3.653,4.473c1.418,0.283,2.826-0.498,3.967-1.387
	c2.755-2.149,4.853-5.129,5.946-8.448c0.583,2.227,0.745,4.541,1.217,6.794s1.308,4.524,2.967,6.119
	c1.66,1.595,4.299,2.334,6.339,1.268c1.074-0.561,1.865-1.536,2.583-2.512c3.638-4.946,6.223-10.661,7.537-16.658
	c0.066-0.299,0.126-0.619,0.015-0.905C155.314,136.146,155.009,135.979,154.671,135.948z M147.707,102.985
	c0.056-0.049,0.113-0.098,0.17-0.147c-0.045,0.057-0.094,0.113-0.143,0.17c-0.06,0.053-0.121,0.102-0.181,0.151
	C147.605,103.101,147.654,103.041,147.707,102.985z M147.79,106.47c0.305-0.365,0.592-0.976,1.168-0.772
	c0.618,0.219,0.599,0.893,0.573,1.443c-0.12,2.389-0.637,4.699-1.383,6.967c-1.771,5.362-4.273,10.324-7.875,14.736
	c0.576-5.799,1.797-11.42,4.156-16.756C145.318,110.083,146.381,108.165,147.79,106.47z M144.011,106.481
	c0.034,0.015,0.045,0.075,0.068,0.113c-0.038,0.026-0.079,0.053-0.117,0.079c-0.03-0.057-0.06-0.117-0.09-0.173
	C143.916,106.492,143.973,106.466,144.011,106.481z M142.737,107.838c-0.011,0.049-0.019,0.098-0.03,0.147
	c-0.038,0.007-0.098,0.038-0.117,0.023c-0.03-0.03-0.038-0.087-0.053-0.128C142.601,107.864,142.669,107.853,142.737,107.838z
	 M114.553,108.267c0.576-0.81,1.262-1.571,2.012-2.223c1.575-1.36,2.747-0.987,3.278,1.014c1.294,4.874-0.877,10.031-2.901,14.389
	c-2.012,4.332-4.87,8.213-8.175,11.645c-0.287,0.298-1.806,1.444-1.815,1.803C107.187,125.064,108.981,116.119,114.553,108.267z
	 M134.531,134.265c-0.769,4.638-2.604,8.839-5.637,12.464c-0.52,0.618-1.258,1.255-2.095,1.002c-0.893-0.264-0.58-1.277-0.712-1.971
	c-0.106-0.543-0.023-1.119-0.023-1.684c0.192-3.15,0.912-6.179,2.076-9.099c0.347-0.863,0.757-1.726,1.273-2.494
	c0.754-1.115,1.699-2.208,3.229-1.564C134.037,131.504,134.776,132.788,134.531,134.265z M138.046,143.625
	c-0.03,0.026-0.075,0.041-0.117,0.057c-0.011,0.019-0.023,0.041-0.038,0.064c0.011-0.019,0.019-0.041,0.03-0.06
	c-0.015,0-0.03,0.004-0.045,0.004c-0.181,0.226-0.286,0.298-0.347,0.271c-0.158-0.072-0.132-0.192,0.041-0.234
	c0.098-0.026,0.203-0.03,0.305-0.038c0.03-0.038,0.064-0.083,0.102-0.132c-0.019,0.041-0.038,0.087-0.056,0.128
	c0.004,0,0.004-0.004,0.008-0.004c0.094-0.139,0.121-0.147,0.143-0.154C138.065,143.561,138.069,143.606,138.046,143.625z
	 M139.056,142.559c-0.053,0.049-0.109,0.102-0.162,0.151c0.008-0.034,0.008-0.079,0.03-0.098c0.034-0.03,0.083-0.041,0.124-0.06
	c0.049-0.162,0.098-0.328,0.147-0.494c0.045,0.034,0.094,0.064,0.143,0.098C139.244,142.287,139.15,142.423,139.056,142.559z
	 M139.806,153.858c-0.049-0.053-0.102-0.106-0.151-0.158c0.03,0.007,0.075,0.007,0.094,0.03c0.03,0.034,0.041,0.083,0.06,0.128
	c0.124,0.124,0.249,0.249,0.373,0.377C140.058,154.111,139.934,153.983,139.806,153.858z M140.623,154.736
	c-0.03-0.03-0.041-0.075-0.056-0.117c0.049,0.045,0.102,0.098,0.151,0.143C140.684,154.755,140.638,154.755,140.623,154.736z"/>
<path d="M53.918,131.65c0.063-0.37,0.125-0.739,0.187-1.109C54.043,130.911,53.981,131.28,53.918,131.65z"/>
<path d="M85.208,122.799c0.355-0.074,0.711-0.148,1.066-0.222C85.919,122.65,85.564,122.724,85.208,122.799z"/>
<path d="M64.092,103.778c-0.046,0.345-0.092,0.69-0.138,1.034C63.999,104.468,64.046,104.123,64.092,103.778z"/>
<path d="M130.392,58.552c-0.063,0.234-0.125,0.468-0.188,0.702C130.267,59.02,130.329,58.786,130.392,58.552z"/>
<path d="M141.299,156.878c0.301-0.059,0.572-0.029,0.762,0.25C141.807,157.045,141.553,156.962,141.299,156.878z"/>
<path d="M137.536,60.396c0.069-0.229,0.138-0.458,0.207-0.687C137.675,59.938,137.606,60.167,137.536,60.396z"/>
<path d="M79.874,111.84c-0.266,0.057-0.532,0.114-0.798,0.171C79.342,111.954,79.608,111.897,79.874,111.84z"/>
<path d="M77.727,119.92c-0.144-0.061-0.289-0.121-0.433-0.182C77.439,119.798,77.583,119.859,77.727,119.92z"/>
<path d="M82.532,111.542c-0.142,0.034-0.283,0.067-0.425,0.101C82.249,111.609,82.39,111.575,82.532,111.542z"/>
<path d="M140.175,110.143c-0.073,0.128-0.146,0.257-0.22,0.385C140.029,110.4,140.102,110.272,140.175,110.143z"/>
<path d="M84.75,72.498c-0.105-0.14-0.21-0.28-0.315-0.419C84.54,72.218,84.645,72.358,84.75,72.498z"/>
<path d="M37.534,150.441c-0.065-0.12-0.131-0.241-0.196-0.361C37.403,150.2,37.469,150.32,37.534,150.441z"/>
<path d="M143.954,157.099c0.14-0.069,0.28-0.139,0.419-0.208C144.233,156.96,144.093,157.03,143.954,157.099z"/>
<path d="M107.025,151.97c0.496,0.012,0.753,0.264,0.762,0.762C107.423,152.588,107.175,152.328,107.025,151.97z"/>
<path d="M105.881,150.462c0.372,0.139,0.618,0.405,0.777,0.762C106.157,151.216,105.908,150.952,105.881,150.462z"/>
<path d="M103.996,148.956c0.498,0.011,0.765,0.257,0.778,0.763C104.514,149.465,104.255,149.21,103.996,148.956z"/>
<path d="M139.049,142.552c0.048-0.165,0.096-0.329,0.144-0.494c0.048,0.032,0.096,0.063,0.144,0.095
	c-0.094,0.135-0.188,0.27-0.281,0.405L139.049,142.552z"/>
<path d="M137.829,143.848c-0.097,0.039-0.228,0.143-0.301,0.111c-0.158-0.069-0.132-0.189,0.044-0.234
	c0.113-0.029,0.234-0.027,0.351-0.039C137.893,143.737,137.864,143.788,137.829,143.848z"/>
<path d="M106.651,151.216c0.3,0.168,0.379,0.447,0.383,0.763C106.727,151.815,106.657,151.532,106.651,151.216z"/>
<path d="M108.155,153.101c0.316,0.005,0.594,0.085,0.763,0.382C108.602,153.479,108.319,153.408,108.155,153.101z"/>
<path d="M144.078,106.596c-0.039,0.026-0.077,0.053-0.116,0.079c-0.031-0.059-0.061-0.117-0.092-0.176
	c0.048-0.007,0.103-0.032,0.142-0.017C144.043,106.495,144.056,106.556,144.078,106.596z"/>
<path d="M142.709,107.984c-0.04,0.009-0.099,0.038-0.117,0.022c-0.032-0.027-0.038-0.084-0.056-0.128
	c0.067-0.013,0.134-0.027,0.201-0.04C142.728,107.886,142.718,107.935,142.709,107.984z"/>
<path d="M147.733,103.009c-0.06,0.05-0.119,0.1-0.179,0.151c0.051-0.059,0.102-0.118,0.153-0.177L147.733,103.009z"/>
<path d="M139.056,142.559c-0.054,0.05-0.108,0.1-0.163,0.149c0.009-0.033,0.007-0.078,0.029-0.096
	c0.034-0.029,0.084-0.041,0.127-0.06C139.049,142.552,139.056,142.559,139.056,142.559z"/>
<path d="M137.978,143.556c0.032-0.009,0.064-0.019,0.096-0.028c-0.008,0.032-0.006,0.077-0.026,0.095
	c-0.034,0.03-0.082,0.042-0.125,0.062C137.942,143.643,137.96,143.6,137.978,143.556z"/>
<path d="M104.765,149.709c0.129,0.133,0.258,0.266,0.386,0.399C105.023,149.975,104.894,149.842,104.765,149.709z"/>
<path d="M107.779,152.723c0.129,0.129,0.258,0.258,0.386,0.386C108.036,152.981,107.908,152.852,107.779,152.723z"/>
<path d="M147.707,102.983c0.057-0.049,0.114-0.097,0.171-0.145c-0.049,0.057-0.097,0.114-0.145,0.171
	C147.733,103.009,147.707,102.983,147.707,102.983z"/>
<path d="M139.806,153.859c-0.051-0.053-0.101-0.105-0.152-0.158c0.033,0.009,0.078,0.007,0.095,0.029
	c0.029,0.035,0.04,0.084,0.059,0.127L139.806,153.859z"/>
<path d="M139.808,153.857c0.125,0.126,0.25,0.252,0.375,0.378c-0.126-0.125-0.252-0.25-0.378-0.376
	C139.806,153.859,139.808,153.857,139.808,153.857z"/>
<path d="M140.184,154.234c0.125,0.126,0.251,0.252,0.376,0.378l0.002-0.002C140.435,154.485,140.31,154.36,140.184,154.234z"/>
<path d="M140.56,154.612c0.052,0.05,0.104,0.1,0.156,0.15c-0.032-0.008-0.076-0.006-0.094-0.027
	c-0.029-0.034-0.041-0.083-0.061-0.125C140.561,154.61,140.56,154.612,140.56,154.612z"/>
<path fill="#B32025" d="M71.624,25.022c-0.126,0.125-0.252,0.249-0.379,0.374l-0.011-0.013c0.123-0.127,0.247-0.253,0.37-0.38
	L71.624,25.022z"/>
<path fill="#B32025" d="M71.246,25.396c-0.124,0.128-0.248,0.255-0.372,0.383l-0.021-0.024c0.127-0.124,0.254-0.248,0.382-0.372
	L71.246,25.396z"/>
<path fill="#B32025" d="M70.874,25.779c-0.125,0.126-0.251,0.252-0.376,0.378l-0.023-0.026c0.126-0.125,0.252-0.251,0.377-0.376
	C70.853,25.755,70.874,25.779,70.874,25.779z"/>
<path fill="#B32025" d="M70.498,26.157c-0.126,0.126-0.251,0.251-0.377,0.377l-0.023-0.027c0.126-0.126,0.251-0.251,0.377-0.377
	L70.498,26.157z"/>
<path fill="#B32025" d="M70.121,26.534c-0.125,0.124-0.251,0.247-0.376,0.371l-0.022-0.022c0.125-0.125,0.25-0.25,0.375-0.375
	C70.098,26.508,70.121,26.534,70.121,26.534z"/>
<path d="M72.257,147.901c-0.093,0.052-0.198,0.161-0.278,0.145c-0.202-0.041-0.257-0.21-0.141-0.372
	c0.048-0.066,0.227-0.11,0.294-0.071C72.205,147.644,72.216,147.793,72.257,147.901z"/>
<path d="M62.95,138.413c-0.054-0.029-0.108-0.058-0.162-0.088c0.055,0.028,0.11,0.056,0.165,0.084L62.95,138.413z"/>
<path d="M62.954,138.41c0.05,0.053,0.1,0.105,0.151,0.158c-0.032-0.009-0.077-0.007-0.095-0.029
	c-0.029-0.034-0.04-0.083-0.059-0.126C62.95,138.413,62.954,138.41,62.954,138.41z"/>
<path d="M12.087,118.439c0.129,0.129,0.258,0.258,0.386,0.386C12.345,118.697,12.216,118.568,12.087,118.439z"/>
<path d="M12.464,118.816c0.142,0.129,0.284,0.258,0.427,0.387C12.749,119.074,12.606,118.945,12.464,118.816z"/>
<path d="M11.709,118.035c0.129,0.138,0.259,0.276,0.388,0.414C11.967,118.311,11.838,118.173,11.709,118.035z"/>
<path fill="#B32025" d="M118.722,40.072c0.049,0.059,0.098,0.118,0.147,0.177c-0.057-0.051-0.114-0.102-0.171-0.152
	C118.698,40.096,118.722,40.072,118.722,40.072z"/>
<path fill="#B32025" d="M116.825,41.212c0.053-0.051,0.106-0.101,0.159-0.152c-0.009,0.033-0.008,0.078-0.03,0.095
	C116.919,41.184,116.87,41.194,116.825,41.212C116.826,41.213,116.825,41.212,116.825,41.212z"/>
<path d="M147.924,44.445c-0.656-0.251-1.244,0.648-1.494,1.358c-1.454,4.127-4.347,7.73-8.062,10.042
	c0.361-4.301,0.206-8.646-0.46-12.911c-0.133-0.85-0.302-1.735-0.834-2.412c-1.003-1.277-3.004-1.353-4.449-0.614
	c-1.445,0.739-2.465,2.087-3.432,3.391c-3.299,4.443-6.598,8.886-9.897,13.329c-1.682-6.473,0.106-13.299,2.132-19.674
	c0.283-0.89,0.555-1.918,0.055-2.707c-0.422-0.665-1.279-0.928-2.066-0.91c-2.535,0.055-4.452,2.412-5.271,4.811
	c-0.819,2.4-0.923,5.009-1.846,7.371c-0.575,1.473-1.483,2.808-2.613,3.911c-1.272,1.243-2.844,2.23-4.555,2.735
	c-0.281,0.083-0.568,0.15-0.852,0.225c-0.039,0.01-0.458,0.085-0.466,0.118c1.092-4.359,2.193-8.805,1.893-13.288
	c-0.3-4.484-2.236-9.093-6.026-11.507c-3.706-2.361-8.662-2.212-12.614-0.291c-1.427,0.694-2.745,1.6-3.933,2.65
	c-1.196,1.056-2.262,2.256-3.206,3.541c-0.474,0.645-0.917,1.313-1.332,1.998c-0.187,0.309-0.437,0.639-0.52,0.995
	c-0.077,0.326-0.155,0.616-0.279,0.931c-0.568,1.448-0.866,2.998-0.904,4.552c-0.038,1.556,0.184,3.12,0.657,4.603
	c0.456,1.43,1.147,2.786,2.06,3.978c1.638,2.14,3.927,3.804,5.128,6.216c0.842,1.691,1.093,3.653,2.097,5.253
	c1.445,2.301,4.466,3.48,7.087,2.767c4.753-1.293,6.434-7.269,10.455-10.114c2.623-1.855,6.283-2.404,8.07-5.075
	c-0.39,3.304,0.114,6.71,1.444,9.759c0.26,0.596,0.574,1.206,1.115,1.567c1.43,0.954,3.265-0.348,4.44-1.603
	c3.997-4.268,7.528-8.972,10.509-14.002c0.772,4.172,0.945,8.453,0.514,12.674c-0.074,0.729-0.188,1.504-0.671,2.055
	c-0.425,0.484-1.065,0.71-1.679,0.906c-4.739,1.517-9.682,2.41-14.296,4.274c-4.614,1.864-9.024,4.905-11.128,9.415
	s-1.195,10.635,2.965,13.366c2.675,1.756,6.138,1.856,9.274,1.218c5.605-1.141,10.655-4.455,14.338-8.831s6.051-9.765,7.304-15.346
	c0.463-2.061,0.803-4.215,1.938-5.997c1.252-1.967,3.317-3.24,5.017-4.836c2.376-2.232,4.073-5.177,4.811-8.353
	c0.125-0.537,0.155-1.236-0.33-1.498C147.984,44.471,147.954,44.457,147.924,44.445z M90.531,38.046
	c-2.542,4.703-2.345,9.918-2.856,15.003c-0.007,0.109-0.109,0.204-0.17,0.314c-0.504-1.166-0.634-3.51-0.218-6.298
	c0.314-2.106,0.757-4.185,1.145-6.271c0.504-1.043,1.016-2.079,1.52-3.122C90.238,37.664,90.777,37.589,90.531,38.046z
	 M98.82,58.018c-0.934,1.329-2.004,2.536-3.299,3.551c-0.879,0.682-1.425,0.532-1.874-0.416c-0.109-0.225-0.259-0.423-0.375-0.648
	c-1.983-3.892-1.656-4.451,2.597-4.424c0.688,0,1.377-0.048,2.059,0.014c0.573,0.054,1.39-0.368,1.67,0.32
	C99.849,57.023,99.167,57.534,98.82,58.018z M102.214,51.052c-0.027,0.095-0.054,0.198-0.089,0.293
	c-0.205,0.627-0.45,1.247-0.92,1.704c-0.661,0.641-1.636,0.832-2.556,0.927c-1.956,0.205-3.953,0.102-5.882-0.307
	c-0.334-0.068-0.709-0.17-0.879-0.47c-0.123-0.211-0.116-0.47-0.102-0.716c0.259-4.799,0.982-9.57,2.147-14.226
	c0.259-1.016,0.518-2.154-0.02-3.047c-0.423-0.695-1.275-1.063-2.086-1.043c-0.975,0.034-1.881,0.552-2.549,1.261
	c-0.668,0.702-1.125,1.588-1.513,2.474c-1.874,4.274-2.42,8.984-3.02,13.612c-0.034,0.293-0.109,0.641-0.375,0.77
	c-0.252,0.123-0.552-0.007-0.797-0.143c-0.525-0.314-1.016-0.675-1.459-1.097c-0.443-0.416-0.838-0.879-1.186-1.384
	c-0.382-0.532-0.702-1.111-0.961-1.711c-0.266-0.6-0.477-1.22-0.634-1.854c-0.123-0.532-0.218-1.07-0.266-1.615
	c-0.061-0.675-0.061-1.35-0.02-2.024c0.041-0.668,0.136-1.336,0.266-2.004c0.129-0.661,0.307-1.316,0.511-1.963
	c0.211-0.648,0.45-1.288,0.716-1.909c0.068-0.157,0.136-0.314,0.204-0.464c0.068-0.157,0.123-0.32,0.218-0.457
	c0.027-0.041,0.061-0.068,0.096-0.109c0.048-0.041,0.082-0.102,0.123-0.164c0.075-0.116,0.15-0.239,0.232-0.361
	c0.327-0.47,0.675-0.934,1.043-1.37c0.375-0.443,0.77-0.859,1.186-1.261s0.852-0.777,1.309-1.125
	c0.457-0.354,0.934-0.682,1.418-0.988c0.491-0.3,1.002-0.579,1.52-0.832c0.518-0.245,1.05-0.47,1.595-0.661
	c0.191-0.061,0.375-0.13,0.566-0.184c2.665-0.832,5.678-0.927,8.132,0.409c2.44,1.322,4.001,3.885,4.812,6.537
	C104.525,40.575,103.728,46.021,102.214,51.052z M115.983,41.986c-0.32,1.684-0.648,3.367-0.995,5.051
	c-0.273-1.227-0.198-2.508-0.048-3.756c0.014-0.123,0.034-0.252,0.048-0.375c0.02-0.123,0.034-0.245,0.054-0.375
	c0.014-0.123,0.034-0.252,0.055-0.375s0.041-0.245,0.068-0.375c0.02-0.123,0.041-0.245,0.068-0.368s0.048-0.252,0.075-0.368
	c0.027-0.13,0.061-0.252,0.082-0.375c0.034-0.123,0.061-0.245,0.096-0.368c0.034-0.116,0.068-0.245,0.102-0.361
	c0.034-0.123,0.068-0.245,0.109-0.361c0.034-0.123,0.075-0.245,0.116-0.361c0.041-0.123,0.082-0.239,0.129-0.354
	c0.041-0.123,0.082-0.239,0.136-0.354c0.041-0.116,0.089-0.232,0.143-0.348c0.048-0.116,0.095-0.225,0.157-0.341
	c0.048-0.116,0.109-0.225,0.164-0.341c0.014-0.027,0.027-0.055,0.048-0.082c0-0.014,0.007-0.027,0.014-0.034
	c0.014-0.007,0.02-0.014,0.027-0.02c0.02-0.027,0.034-0.061,0.055-0.082c0.02-0.034,0.041-0.061,0.054-0.089
	c0.061-0.095,0.116-0.184,0.177-0.279C116.617,38.591,116.311,40.289,115.983,41.986z M117.108,40.957
	c-0.034,0.034-0.082,0.048-0.129,0.061c0.055-0.048,0.109-0.102,0.157-0.15C117.128,40.902,117.128,40.943,117.108,40.957z
	 M118.165,81.343c-3.231,2.099-6.646,2.495-10.04,0.348c-3.735-2.358-4.138-6.107-1.166-9.332c2.079-2.256,4.608-3.804,7.382-5.003
	c4.022-1.247,8.036-2.495,12.058-3.742c3.272-0.511,3.36-0.484,2.174,2.788C126.44,72.298,123.631,77.785,118.165,81.343z
	 M130.911,70.219c-1.207,3.544-2.767,6.912-5.446,9.7c4.656-6.987,6.544-14.805,7.191-23.012c0.511-4.192,0.177-8.425,0.463-12.637
	c0.784,3.551,0.464,7.13,0.627,10.688C133.154,60.11,132.595,65.27,130.911,70.219z"/>
<path d="M134.916,56.291c0.124,0.12,0.249,0.239,0.373,0.358C135.165,56.529,135.04,56.41,134.916,56.291z"/>
<path d="M136.806,58.558c0.115,0.115,0.229,0.229,0.344,0.344C137.035,58.787,136.92,58.672,136.806,58.558z"/>
<path d="M137.188,58.94c0.12,0.113,0.24,0.225,0.361,0.338C137.428,59.165,137.308,59.052,137.188,58.94z"/>
<path d="M97.027,0.767c-0.062-0.077-0.128-0.151-0.198-0.222c-0.268-0.272-0.606-0.5-0.986-0.54s-0.801,0.15-0.939,0.506
	c-0.204,0.527,0.233,1.108,0.429,1.581c0.528,1.28-0.045,2.807-1.041,3.769s-2.336,1.47-3.651,1.902
	c-4.904,1.609-10.044,2.494-15.204,2.617c-0.315,0.008-0.656,0.004-0.906-0.188c-0.525-0.403-0.26-1.217-0.248-1.879
	c0.027-1.562-1.804-2.668-3.335-2.358s-2.681,1.607-3.397,2.996c-0.248,0.482-0.466,0.994-0.846,1.382
	c-0.759,0.777-1.956,0.872-3.04,0.923c-4.927,0.228-9.896,0.507-14.657,1.799c-2.839,0.771-5.597,1.92-8.053,3.551
	c-2.22,1.474-4.778,3.492-5.214,6.305c-0.121,0.779,0.134,1.671,0.812,2.072c0.678,0.402,1.751,0.032,1.848-0.749
	c0.044-0.351-0.101-0.695-0.153-1.045c-0.171-1.13,0.614-2.175,1.444-2.96c2.584-2.445,5.987-3.833,9.404-4.823
	c5.407-1.566,11.064-2.264,16.69-2.059c0.253,0.009,0.534,0.033,0.703,0.221c0.192,0.212,0.157,0.539,0.111,0.821
	c-1.135,6.89-2.372,13.762-3.712,20.615c-1.061,5.427-2.193,10.864-4.072,16.065c-1.278,3.539-2.952,7.032-5.632,9.674
	c-1.691,1.668-3.9,2.997-6.275,2.959c4.953-7.496,6.754-17.006,4.885-25.794c-0.582-2.737-1.691-5.637-4.127-7.014
	c-2.768-1.565-6.47-0.529-8.697,1.741c-2.227,2.27-3.216,5.486-3.643,8.637c-1.023,7.556,0.862,15.468,5.182,21.752
	c0.506,0.735,1.064,1.668,0.639,2.453c-0.483,0.894-1.758,0.794-2.774,0.804s-2.323,0.791-1.892,1.711
	c0.119,0.253,0.353,0.434,0.602,0.562c2.188,1.127,4.59-1.333,7.051-1.371c0.877-0.013,1.723,0.287,2.58,0.475
	c3.861,0.846,7.958-0.679,10.981-3.225c3.023-2.546,5.123-6.009,6.912-9.534c5.98-11.781,9.07-25.016,8.924-38.227
	c-0.015-1.355,0.07-2.969,1.228-3.673c0.859-0.522,2.138-0.5,3.111-0.592c1.391-0.133,2.781-0.274,4.166-0.454
	c2.705-0.353,5.401-0.851,7.996-1.706c2.111-0.695,4.189-1.652,5.784-3.201c0.876-0.851,1.603-1.899,1.866-3.091
	C97.926,2.857,97.726,1.633,97.027,0.767z M44.558,61.312c-0.912,1.767-1.221,1.869-2.351,0.185
	c-3.327-4.951-4.872-10.486-4.996-16.424c-0.06-2.223,0.203-4.39,0.912-6.488c0.388-1.149,0.995-2.144,2.072-2.807
	c1.733-1.066,2.988-0.889,4.25,0.727c1.786,2.302,2.491,5.023,2.833,7.841C47.994,50.253,47.312,55.954,44.558,61.312z
	 M68.127,26.723c-0.562,3.391-1.162,6.846-2.099,10.125c-0.808,3.572-1.675,7.129-2.559,10.683
	c-0.162,0.651-0.502,1.449-1.173,1.441c0.233,0.002,1.316-5.657,1.439-6.211c0.472-2.117,0.926-4.237,1.363-6.361
	c0.873-4.248,1.675-8.511,2.405-12.787c0.62-3.633,1.005-7.336,1.75-10.943c0.044-0.212,0.094-0.433,0.235-0.596
	c0.141-0.164,0.402-0.246,0.578-0.121c0.194,0.137,0.185,0.423,0.155,0.659c-0.518,4.114-1.117,8.217-1.796,12.307
	C68.327,25.517,68.228,26.119,68.127,26.723z M71.245,25.396c-0.124,0.128-0.249,0.256-0.373,0.384
	c-0.124,0.124-0.249,0.249-0.373,0.377c-0.128,0.124-0.252,0.252-0.377,0.377c-0.128,0.124-0.252,0.249-0.377,0.369l-0.023-0.023
	c0.124-0.124,0.249-0.249,0.377-0.373c0.124-0.124,0.249-0.253,0.377-0.377c0.124-0.124,0.249-0.253,0.377-0.377
	s0.252-0.249,0.381-0.369c0.124-0.128,0.249-0.256,0.369-0.381l0.023,0.019C71.498,25.148,71.374,25.272,71.245,25.396z"/>
<path d="M52.832,138.711c-1.225,6.127-3.041,12.276-6.635,17.385c-1.579,2.249-3.964,4.45-6.684,4.058
	c-3.387-0.482-5.256-4.077-6.341-6.925c-3.38-8.866-4.197-18.474-4.985-27.931c0.094,1.104-0.821,2.89-1.134,3.968
	c-0.407,1.398-0.825,2.796-1.262,4.19c-0.87,2.773-1.82,5.527-2.928,8.222c-1.051,2.558-2.313,4.977-3.602,7.415
	c-0.983,1.861-2.216,4.141-4.431,4.717c-1.473,0.384-3.078-0.26-4.16-1.334c-2.178-2.155-2.649-5.407-3.033-8.293
	c-0.46-3.425-0.671-6.88-0.671-10.335c-0.008-6.748,0.769-13.478,1.918-20.12c0.294-1.68,0.576-3.346,1.017-5
	c0.452-1.68,2.886-3.971,4.552-2.001c0.678,0.803,0.535,1.993,0.354,3.029c-1.179,6.775-2.268,13.591-2.604,20.467
	c-0.166,3.47-0.139,6.952,0.173,10.414c0.128,1.443-0.007,8.888,2.276,8.711c0.328-0.026,0.595-0.268,0.821-0.509
	c1.752-1.891,2.393-4.537,3.387-6.846c1.277-2.969,2.389-6.01,3.38-9.084c1.937-6.025,3.414-12.185,4.793-18.361
	c0.241-1.085,0.497-2.212,1.164-3.105c0.663-0.897,1.858-1.5,2.913-1.13c1.507,0.528,1.794,2.498,1.839,4.092
	c0.2,7.076,0.603,14.156,1.53,21.179c0.452,3.406,1.047,6.786,1.752,10.151c0.641,3.056,1.323,6.187,3.056,8.839
	c3.286,5.023,6.044-3.937,6.955-6.138c1.379-3.331,2.43-6.79,3.191-10.309c1.428-6.601,1.967-13.459,1.5-20.2
	c-0.188-2.751-0.546-5.49-1.066-8.199c-0.437-2.276-1.601-4.812-1.518-7.121c0.015-0.414,0.09-0.852,0.373-1.157
	c0.456-0.501,1.307-0.433,1.854-0.03c0.543,0.399,0.852,1.044,1.108,1.669c1.006,2.43,1.616,5.004,2.054,7.596
	c0.46,2.709,0.727,5.441,0.837,8.18C54.829,125.501,54.132,132.189,52.832,138.711z"/>
<path fill="#B32025" d="M86.532,122.566c-0.709,0.559-1.888,0.382-2.733,0.423c-0.532,0.02-1.895-0.075-1.391-0.941
	c0.17-0.3,0.484-0.484,0.668-0.77c0.232-0.368,0.211-0.825,0.184-1.254c-0.068-1.172-0.136-2.338-0.205-3.51
	c-0.041-0.716,0.177-2.467-0.47-2.979c-0.668-0.525-2.352-0.402-3.156-0.361c-0.968,0.048-2.283,0.32-2.74,1.281
	c-0.538,1.138-0.15,2.679,0.034,3.865c0.123,0.845,0.525,1.097,0.988,1.595c0.082,0.095,0.177,0.204,0.266,0.327
	c1.022,1.35-4.172,1.356-4.73,1.356c-0.293,0-0.593-0.007-0.845-0.143c-0.252-0.143-0.423-0.464-0.3-0.723
	c0.068-0.136,0.198-0.225,0.314-0.327c0.777-0.688,0.709-1.909,0.6-2.945c-0.573-5.371-0.641-10.797-0.198-16.182
	c0.02-0.225,0.034-0.45-0.034-0.661c-0.095-0.266-0.314-0.457-0.484-0.675c-0.164-0.225-0.286-0.532-0.157-0.777
	c0.13-0.239,0.443-0.307,0.716-0.341c1.268-0.177,2.542-0.293,3.824-0.348c0.498-0.027,1.166,0.102,1.2,0.6
	c0.027,0.32-0.245,0.566-0.45,0.804c-0.832,0.941-0.879,2.318-0.879,3.572c-0.014,2.781-0.027,5.562-0.034,8.336
	c0,0.518,0.341,0.436,0.729,0.402c1.329-0.102,2.611-0.45,3.94-0.545c0.266-0.02,1.554,0.082,1.54-0.368
	c-0.15-3.817-0.211-7.627,0.15-11.438c0.055-0.545,0.286-1.316-0.423-1.54c-0.184-0.061-0.375-0.055-0.552-0.116
	c-0.416-0.15-0.6-0.736-0.348-1.097c0.225-0.314,0.648-0.395,1.029-0.443c0.907-0.13,1.82-0.211,2.733-0.252
	c0.334-0.02,0.695-0.027,0.988,0.136c0.3,0.157,0.504,0.545,0.348,0.845c-0.109,0.218-0.361,0.32-0.566,0.45
	c-0.777,0.511-0.934,1.561-1.016,2.488c-0.211,2.583-0.252,5.187-0.198,7.784c0.048,2.365,0.218,4.737,0.354,7.109
	c0.061,1.05,0.123,2.106,0.184,3.163c0.034,0.6-0.143,2.052,0.361,2.515c0.225,0.204,0.586,0.17,0.845,0.334
	c0.007,0.007,0.014,0.014,0.027,0.02C87.057,121.53,86.941,122.245,86.532,122.566z"/>
<path fill="#B32025" d="M86.437,72.897c-0.137-0.277-0.406-0.494-0.718-0.508c-0.304-0.014-0.621,0.13-0.903,0.017
	c-0.354-0.14-0.449-0.584-0.52-0.958c-0.289-1.508-1.006-2.932-2.047-4.061c-0.548-0.595-1.214-1.125-2.002-1.308
	c-0.657-0.153-1.356-0.052-1.985,0.194c-0.926,0.362-1.771,1.124-1.908,2.109c-0.077,0.556,0.076,1.116,0.252,1.649
	c0.176,0.533,0.379,1.067,0.406,1.628c0.064,1.34-1.067,1.586-1.684,2.53c-0.431,0.658-0.596,1.456-0.666,2.24
	c-0.121,1.363-0.189,2.739-0.058,4.103c0.305,3.163,1.009,6.699,2.92,9.323c0.669,0.919,1.611,1.69,2.724,1.921
	c0.851,0.177,1.808-0.014,2.484-0.573c0.871-0.72,1.11-1.85,1.449-2.869c0.421-1.266,0.613-2.653,0.789-3.977
	c0.368-2.771,0.417-5.584,0.141-8.366c-0.064-0.644-0.054-1.154,0.505-1.577c0.323-0.245,0.709-0.459,0.862-0.835
	C86.57,73.358,86.542,73.109,86.437,72.897z M79.41,68.173c0.49-0.271,0.852,0.124,1.127,0.418c1.096,1.164,1.534,2.63,1.952,4.356
	c-1.786-0.746-2.754-1.952-3.406-3.482C78.857,68.938,78.875,68.467,79.41,68.173z M82.869,79.141
	c-0.056,3.06-0.271,6.119-1.006,9.111c-0.117,0.475-0.166,1.13-0.697,1.221c-0.682,0.121-0.912-0.592-1.123-1.074
	c-1.221-2.788-1.522-5.776-1.824-8.76c-0.004-0.264-0.004-0.524-0.007-0.787c0.007-0.354,0.015-0.712,0.019-1.066
	c0.049-0.309,0.109-0.61,0.143-0.919c0.32-2.871,0.501-2.992,3.146-2.193c0.294,0.09,0.614,0.079,0.923,0.117
	C83.404,76.157,82.899,77.695,82.869,79.141z"/>
<g>
	<path fill="#B32025" d="M74.632,28.001"/>
</g>
<path fill="#508734" d="M35.379,80.554c-0.852-0.916-1.628-1.895-2.438-2.845c-0.075-0.068-0.124-0.151-0.151-0.245l-0.023-0.068
	c-1.375-2.784-1.108-5.565,0.041-8.338c0.094-0.23,0.226-0.452,0.283-0.693c0.226-1.032-0.113-1.571-1.255-1.466
	c-4.533,0.426-8.319-2.98-8.319-7.524c0-1.402-0.867-1.526-1.707-1.051c-3.255,1.831-6.394,1.292-9.454-0.347
	c-2.091-1.119-4.062-2.472-6.127-3.644c-0.554-0.316-1.289-1.281-1.891-0.29c-0.543,0.897,0.475,1.27,1.063,1.658
	c0.991,0.656,2.027,1.243,3.037,1.865c0.659,0.403,1.081,0.965,1.428,1.677c1.255,2.562,2.012,5.113,0.705,7.909
	c-0.52,1.115-0.023,1.752,1.187,1.971c0.855,0.154,1.699,0.426,2.513,0.735c4.058,1.53,5.332,3.983,4.326,8.263
	c-0.038,0.121-0.075,0.241-0.109,0.362c-0.064,0.124-0.128,0.252-0.192,0.377c-0.17,0.283-0.2,0.558,0.045,0.814
	c0.083,0.057,0.143,0.136,0.173,0.234c0.505,0.701,1.16,0.234,1.729,0.185c4.465-0.403,9.634,0.294,12.686,1.809
	c-1.948,0.976-3.892,1.549-5.931,1.888c-3.561,0.599-6.654-0.75-9.642-2.355c-1.315-0.705-2.023-0.486-2.619,0.791
	c-0.78,1.677-2.095,2.931-3.406,4.179c-0.848,0.384-1.692,0.787-2.634,0.874c-2.061-0.154-4.13-0.271-5.81-1.718
	c-0.392-0.343-0.723-1.017-1.383-0.452c-0.569,0.486-0.256,1.032,0.023,1.526c0.245,0.437,0.527,0.851,0.821,1.255
	c1.575,2.189,1.959,4.533,1.021,7.095c-0.712,1.944-1.631,3.783-2.698,5.55c-0.452,0.75-1.138,1.567-0.215,2.325
	c0.806,0.667,1.394-0.222,1.907-0.663c2.826-2.438,6.145-2.897,9.687-2.562c0.365,0.038,0.814-0.034,1.021,0.343
	c1.104,2.02,1.515,0.735,2.023-0.388c1.39-3.075,2.916-3.791,6.13-2.886c0.663,0.185,1.3,0.445,1.952,0.663
	c1.503,0.501,1.922,0.147,1.696-1.432c-0.716-4.917,1.854-9.209,6.541-11.002c1.164-0.448,2.291-0.998,3.399-1.567
	C36.136,82.683,36.521,81.786,35.379,80.554z M31.182,78.795c-2.867-4.333-6.692-7.762-10.565-11.134
	c-0.546-0.475-1.232-1.677-1.91-0.942c-0.878,0.95,0.369,1.631,1.029,2.208c2.686,2.351,5.316,4.763,7.694,7.438
	c0.607,0.686,1.16,1.417,1.639,2.359c-2.984-1.07-6.093-0.023-9.02-0.953c1.179-4.314-1.104-8.267-5.84-9.785
	c-1.454-0.463-2.178-0.885-1.692-2.592c0.528-1.861-0.154-3.693-0.848-5.757c2.419,1.187,4.846,2.182,7.223,1.481
	c2.822-0.829,3.681,0.494,4.646,2.69c1.247,2.848,3.222,5.113,6.707,5.2c1.194,0.03,0.678,0.761,0.584,1.274
	c-0.422,2.283-0.75,4.555,0.445,6.733c0.305,0.735,0.61,1.466,0.923,2.219C31.638,79.578,31.4,79.123,31.182,78.795z M22.93,94.213
	c0.057,0.821-0.43,0.656-0.976,0.516c-0.848-0.215-1.714-0.354-2.581-0.479c-1.842-0.271-3.474,0.32-4.412,1.865
	c-0.882,1.451-1.869,1.549-3.38,1.341c-2.472-0.343-4.966-0.2-7.702,1.232c1.413-3.252,2.102-6.134,1.221-9.258
	c-0.245-0.859,0.87-0.004,1.258-0.335c2.238,0.659,4.318,0.509,6.111-1.168c1.526-0.863,2.472-2.272,3.323-3.715
	c0.456-0.772,0.81-0.901,1.601-0.463c1.978,1.089,4.133,1.752,6.424,2.393c-1.835,1.658-3.896,2.581-6.187,3.075
	c-0.727,0.154-1.432,0.414-2.148,0.629c-1.368,0.298-2.498,0.995-3.402,2.05c-0.422,0.49-0.366,1.036,0.038,1.511
	c0.426,0.501,0.859,0.249,1.3-0.038c0.818-0.531,1.65-1.036,2.475-1.552c2.717-0.494,5.373-1.145,8.195-3.135
	C23.149,90.788,22.809,92.465,22.93,94.213z"/>
<path fill="#508734" d="M145.188,83.361c1.108,0.569,2.234,1.119,3.399,1.567c4.687,1.794,7.257,6.085,6.541,11.002
	c-0.226,1.579,0.192,1.933,1.696,1.432c0.652-0.219,1.289-0.479,1.952-0.663c3.214-0.904,4.74-0.188,6.13,2.886
	c0.509,1.123,0.919,2.408,2.023,0.388c0.207-0.377,0.656-0.305,1.021-0.343c3.542-0.335,6.861,0.124,9.687,2.562
	c0.512,0.441,1.1,1.33,1.907,0.663c0.923-0.757,0.237-1.575-0.215-2.325c-1.066-1.767-1.986-3.606-2.698-5.55
	c-0.938-2.562-0.554-4.906,1.021-7.095c0.294-0.403,0.576-0.818,0.821-1.255c0.279-0.494,0.592-1.04,0.023-1.526
	c-0.659-0.565-0.991,0.109-1.383,0.452c-1.68,1.447-3.749,1.564-5.81,1.718c-0.942-0.087-1.786-0.49-2.634-0.874
	c-1.311-1.247-2.626-2.502-3.406-4.179c-0.595-1.277-1.304-1.496-2.619-0.791c-2.988,1.605-6.081,2.954-9.642,2.355
	c-2.038-0.339-3.983-0.912-5.931-1.888c3.052-1.515,8.221-2.212,12.686-1.809c0.569,0.049,1.225,0.516,1.729-0.185
	c0.03-0.098,0.09-0.177,0.173-0.234c0.245-0.256,0.215-0.531,0.045-0.814c-0.064-0.124-0.128-0.252-0.192-0.377
	c-0.034-0.121-0.072-0.241-0.109-0.362c-1.006-4.28,0.268-6.733,4.326-8.263c0.814-0.309,1.658-0.58,2.513-0.735
	c1.209-0.219,1.707-0.855,1.187-1.971c-1.307-2.796-0.55-5.347,0.705-7.909c0.347-0.712,0.769-1.273,1.428-1.677
	c1.01-0.622,2.046-1.209,3.037-1.865c0.588-0.388,1.605-0.761,1.063-1.658c-0.603-0.991-1.338-0.026-1.891,0.29
	c-2.065,1.172-4.035,2.524-6.127,3.644c-3.059,1.639-6.198,2.178-9.454,0.347c-0.84-0.475-1.707-0.35-1.707,1.051
	c0,4.544-3.787,7.95-8.32,7.524c-1.142-0.106-1.481,0.433-1.255,1.466c0.057,0.241,0.188,0.463,0.283,0.693
	c1.149,2.773,1.417,5.554,0.041,8.338l-0.023,0.068c-0.026,0.094-0.075,0.177-0.151,0.245c-0.81,0.95-1.586,1.929-2.438,2.845
	C143.481,81.786,143.866,82.683,145.188,83.361z M147.807,79.232c0.313-0.754,0.618-1.485,0.923-2.219
	c1.194-2.178,0.867-4.45,0.445-6.733c-0.094-0.512-0.61-1.243,0.584-1.274c3.485-0.087,5.46-2.351,6.707-5.2
	c0.965-2.197,1.824-3.519,4.646-2.69c2.378,0.701,4.804-0.294,7.223-1.481c-0.693,2.065-1.375,3.896-0.848,5.757
	c0.486,1.707-0.237,2.129-1.692,2.592c-4.736,1.518-7.02,5.471-5.84,9.785c-2.928,0.931-6.036-0.117-9.02,0.953
	c0.479-0.942,1.032-1.673,1.639-2.359c2.378-2.675,5.008-5.087,7.694-7.438c0.659-0.576,1.907-1.258,1.029-2.208
	c-0.678-0.735-1.364,0.467-1.91,0.942c-3.873,3.372-7.698,6.801-10.565,11.134C148.602,79.123,148.364,79.578,147.807,79.232z
	 M155.912,88.682c2.822,1.989,5.478,2.641,8.195,3.135c0.825,0.516,1.658,1.021,2.475,1.552c0.441,0.286,0.874,0.539,1.3,0.038
	c0.403-0.475,0.46-1.021,0.038-1.511c-0.904-1.055-2.035-1.752-3.402-2.05c-0.716-0.215-1.421-0.475-2.148-0.629
	c-2.291-0.494-4.352-1.417-6.187-3.075c2.291-0.641,4.446-1.304,6.424-2.393c0.791-0.437,1.145-0.309,1.601,0.463
	c0.852,1.443,1.797,2.852,3.323,3.715c1.793,1.677,3.873,1.827,6.111,1.168c0.388,0.332,1.503-0.524,1.258,0.335
	c-0.882,3.124-0.192,6.006,1.221,9.258c-2.735-1.432-5.23-1.575-7.702-1.232c-1.511,0.207-2.498,0.109-3.38-1.341
	c-0.938-1.545-2.57-2.136-4.412-1.865c-0.867,0.124-1.733,0.264-2.581,0.479c-0.546,0.139-1.032,0.305-0.976-0.516
	C157.193,92.465,156.853,90.788,155.912,88.682z"/>
<path fill="#508734" d="M32.94,77.708c-0.074-0.067-0.124-0.148-0.151-0.244C32.916,77.499,32.967,77.58,32.94,77.708z"/>
</svg>
