<?xml version="1.0" encoding="utf-8"?>
<!-- Generator: Adobe Illustrator 25.2.1, SVG Export Plug-In . SVG Version: 6.00 Build 0)  -->
<svg version="1.1" id="Layer_1" xmlns="http://www.w3.org/2000/svg" xmlns:xlink="http://www.w3.org/1999/xlink" x="0px" y="0px"
	 viewBox="0 0 180 261.5" style="enable-background:new 0 0 180 261.5;" xml:space="preserve">
<style type="text/css">
	.st0{fill:#EFEFF0;}
	.st1{fill:#F3E96D;}
	.st2{fill:#E9E9EA;}
	.st3{fill:none;}
	.st4{fill:#B4C835;}
	.st5{fill:#DBE8F2;}
	.st6{fill:#6FCCD7;}
	.st7{fill:#F1F2F2;}
	.st8{fill:#FFFFFF;}
	.st9{fill:#663725;}
	.st10{fill:#2B1010;}
	.st11{fill:#F26622;}
	.st12{fill:none;stroke:#000000;stroke-miterlimit:10;}
	.st13{fill:#EFEFF0;stroke:#000000;stroke-width:0.75;stroke-miterlimit:10;}
	.st14{fill:#CD2A5B;}
	.st15{fill:#CE2C42;}
	.st16{fill:#E47925;}
	.st17{opacity:0.32;}
	.st18{fill:#77CCE7;}
	.st19{fill:#8C8582;}
	.st20{fill:#F7F4B2;}
	.st21{fill:#F37868;}
	.st22{fill:#FCDCD9;}
	.st23{fill:#EF453C;}
	.st24{fill:#2B141D;}
	.st25{fill:#2D131D;}
	.st26{opacity:0.75;}
	.st27{fill:#CDDCF1;}
	.st28{opacity:0.96;}
</style>
<path class="st12" d="M73.6,56.7c0,0-1.7,2.2-6.9,3.2"/>
<g>
	<path class="st13" d="M64.3,44.7c-0.5,0-0.4,0-0.9-0.1c-3.6-0.4-7.1-1-10.6-1.8c3-0.8,6.1-1.6,9.1-2.2c0.4-0.1,0.8-0.2,1.2-0.2
		 M77.2,45.8C77.5,45.8,77,45.8,77.2,45.8c0.4,0,0.8,0.1,1.2,0.1c8.8,0.6,17.6,1.1,26.4,1c9.2,0.1,18.5-0.4,27.6-1.1
		c7.9-0.6,15.9-1.1,23.6-2.8c-2.2-0.7-36.5-11.4-80.7-4.9c-0.6,0.1-0.6,0.1-1.2,0.2 M71.8,35.9L71.8,35.9c0.3,0,0.6-0.1,0.9-0.1
		c0.6-0.1,1.1-0.2,1.7-0.3c20.4-3.1,51.2-4.2,87.1,6.3c-0.6,4.6-0.2,9.3-0.4,14c-0.2,4.2-0.7,8.5-1.1,12.7c0,0.3-0.1,0.6-0.1,0.9
		c0,0.3-0.1,0.6-0.1,0.9c0,0.5-0.1,1-0.1,1.5c-8.7,1.1-17.2,2.8-26,3.5c-9.5,0.7-19.1,0.6-28.7,0.7c-0.1,0-0.2,0-0.3,0.1
		c-0.1,0-0.2-0.1-0.3-0.1c-4.9-0.1-9.9-0.1-14.8-0.1c-0.5,0-1,0-1.5,0c-3.8-0.1-7.5-0.2-11.3-0.5c-0.3,0-0.7,0-1-0.1
		c-0.1,0-0.1,0-0.2,0c-8.7-0.7-17.2-2.4-25.8-3.5c0-0.6-0.1-1.2-0.1-1.8c0-0.2,0-0.5-0.1-0.7c0-0.2,0-0.4-0.1-0.7
		c-0.4-4.3-0.9-8.6-1.1-13c-0.2-4.6,0.2-9.3-0.4-14c0,0,4.5-1.8,12.7-3.7c0.3-0.1,0.7-0.2,1.1-0.2"/>
	<g>
		<path class="st0" d="M179.8,222.5c-0.2,5.2-0.9,10.5-3.1,15.1c-2.1,4.6-5.9,8.3-10.2,11.1c-4.3,2.8-9.2,4.6-14.2,6.1
			c-5,1.5-10.2,2.6-15.3,3.4c-10.4,1.7-20.9,2.6-31.4,2.7c-0.3,0-0.5,0-0.7,0.1c-0.2,0-0.5-0.1-0.7-0.1c-10.5,0-21-0.9-31.4-2.7
			c-5.2-0.9-10.3-2-15.3-3.4c-5-1.5-9.9-3.4-14.2-6.1c-4.3-2.7-8-6.4-10.2-11.1c-2.2-4.6-2.9-9.8-3.1-15.1
			c-0.2-5.2-0.1-10.6-0.1-15.9l0.1-15.9c0.2-21.2,0.5-42.4,0.7-63.6l0.2-15.9c0.1-5.3,0.3-10.6,1.2-15.7c0.9-5.2,2.4-10.2,5-14.7
			c2.5-4.5,6.1-8.5,10.6-11.2c0.5-0.3,0.7-0.5,0.8-0.7c8.7,3.3,18.1,4.1,27.3,4.8c7,0.6,14.1,1,21.1,1.1c2.7,0,5.3,0,8,0
			c6.9,0,13.9-0.1,20.8-0.5c2.8-0.2,5.6-0.4,8.4-0.6c9.1-0.7,18.6-1.5,27.3-4.8c0.1,0.2,0.4,0.5,0.8,0.7c4.5,2.6,8.1,6.7,10.6,11.2
			c2.6,4.5,4.1,9.6,5,14.7c0.9,5.2,1.1,10.4,1.2,15.7l0.2,15.9c0.2,21.2,0.5,42.5,0.7,63.6l0.1,15.9
			C179.9,211.9,180,217.3,179.8,222.5z"/>
		<path d="M180,182.6l-0.1-39.8l-0.1-19.9c-0.1-6.6,0.1-13.3-0.3-20c-0.4-6.7-1.6-13.4-4.4-19.6c-1.4-3.1-3.2-6-5.5-8.6
			c-1.1-1.3-2.4-2.5-3.7-3.6c-0.7-0.5-1.4-1.1-2.1-1.5c-0.7-0.5-1.7-0.9-1.7-1.2l-0.2-0.6l-0.8,0.3c-0.3,0.1-0.6,0.2-0.9,0.3
			c-8.5,3.1-17.7,3.8-26.8,4.5l-7.1,0.5c-2.4,0.1-4.7,0.1-7.1,0.2L104.9,74h-7.1c-2.4,0-4.7-0.2-7.1-0.3L89,73.6l-1.6-0.1l-5-0.3
			L76.5,73c-0.1,0-0.3,0-0.4,0c-0.4,0-0.9-0.1-1.3-0.1c-8.5-0.6-17.1-1.4-25-4.2c-0.3-0.1-0.7-0.2-1-0.4l-0.5-0.2l-0.2,0.4
			c-0.1,0.3-0.8,0.6-1.4,1c-0.6,0.4-1.1,0.7-1.7,1.2c-1.1,0.8-2.1,1.7-3,2.7c-1.9,1.9-3.5,4.1-4.9,6.4c-0.7,1.2-1.3,2.3-1.9,3.5v0
			c-1.7,3.7-2.8,7.6-3.5,11.5c-0.2,1.3-0.4,2.5-0.6,3.8c-0.5,4-0.6,8-0.7,12.1l-0.1,15.9L30,158.2l-0.4,31.7l-0.1,11.4l0,4.4l0,15.9
			c0,1,0,2,0.1,3c0.3,4.3,1,8.6,2.8,12.7c2.1,5,6.1,9,10.6,11.9c4.5,2.9,9.6,4.8,14.7,6.3c5.1,1.5,10.3,2.6,15.5,3.5
			c10.5,1.7,21.1,2.4,31.6,2.5h0.1c7.8-0.1,15.7-0.6,23.5-1.6s15.6-2.4,23.1-4.6c3.8-1.1,7.5-2.5,11-4.2c3.5-1.8,6.9-4,9.6-6.8
			c2.8-2.8,4.8-6.3,5.9-10.1c1.2-3.8,1.6-7.7,1.8-11.6C180,209.2,180,195.9,180,182.6z M179.7,222.5c-0.2,3.9-0.6,7.8-1.8,11.6
			c-1.2,3.7-3.2,7.2-5.9,10c-2.7,2.8-6.1,5-9.6,6.7c-3.5,1.7-7.2,3-11,4c-7.6,2.1-15.3,3.4-23.1,4.2c-7.8,0.9-15.5,1.2-23.4,1.3
			h-0.1c-10.6-0.1-21-1-31.4-2.7c-5.2-0.8-10.4-1.9-15.4-3.3c-5-1.4-10-3.3-14.4-6.1c-4.4-2.7-8.2-6.6-10.3-11.3
			c-2.1-4.7-2.8-10-2.9-15.3l-0.1-15.8l0-15.9l0.2-31.7l0.4-31.7l0.2-15.9c0.1-5.3,0.4-10.5,1.4-15.7c0.9-5.1,2.6-10.2,5.3-14.6
			c1.3-2.2,2.9-4.3,4.8-6.1c0.9-0.9,1.9-1.8,2.9-2.5c0.5-0.4,1.1-0.7,1.6-1.1l0.8-0.5c0.2-0.1,0.4-0.3,0.6-0.5
			c-0.1,0-0.3-0.1-0.4-0.1l0.8-0.2c-0.1,0.2-0.2,0.3-0.3,0.4c0.4,0.2,0.8,0.3,1.2,0.4c8.2,2.9,17,3.7,25.5,4.4c0.3,0,0.6,0,1,0.1
			l0.3,0l1.9,0.1l9.5,0.5l1.5,0.1l1.1,0.1c2.4,0.1,4.7,0.3,7.1,0.3l7.1,0l14.3-0.3c2.4-0.1,4.8-0.1,7.1-0.2l7.1-0.5
			c8.9-0.7,17.9-1.4,26.5-4.3c0.4-0.1,0.8-0.3,1.2-0.4c-0.2-0.1-0.3-0.3-0.5-0.5l1,0.3c-0.2,0.1-0.3,0.1-0.5,0.2
			c0.3,0.2,0.5,0.4,0.8,0.5c0.3,0.2,0.7,0.4,1,0.6c0.7,0.4,1.3,0.9,2,1.4c1.3,1,2.4,2.1,3.5,3.4c2.1,2.4,3.9,5.2,5.2,8.2
			c2.7,5.9,3.9,12.5,4.4,19c0.5,6.6,0.4,13.2,0.6,19.9l0.3,19.9l0.7,39.8C179.8,195.9,179.8,209.2,179.7,222.5z"/>
	</g>
	<path d="M97.3,96.2L97.3,96.2c-1.1-2.9-2.1-5.6-3.1-8.4c0,0,0,0,0,0c-1.5-4-2.9-7.9-4.4-11.9c-0.1-0.2-0.2-0.4-0.2-0.7
		c-0.1-0.2-0.1-0.4-0.2-0.6c-0.1-0.3-0.2-0.6-0.4-1c-0.2-0.5-0.4-1.1-0.6-1.6c-3-8-6.1-16-9.1-24c-0.3-0.7-0.5-1.4-0.8-2.1
		c-1-2.6-2-5.2-3-7.8c-0.3-0.9-0.7-1.8-1.1-2.7c-1.5-3.8-3-7.6-4.4-11.3c-3.1-8-6.3-15.9-9.5-23.8L60.3,0H60c-1.1,0-2.2,0.3-3.2,0.6
		c-1,0.3-2,0.7-3,1.1c-2,0.9-3.9,1.9-5.7,2.9l-0.2,0.1L47.9,5c3.2,7.9,6.3,15.7,9.4,23.7c1.2,3.1,2.4,6.3,3.6,9.4
		c0.3,0.9,0.7,1.7,1,2.6c0.5,1.3,1,2.7,1.5,4c1,2.6,2,5.2,3.1,7.8c2.7,6.8,5.5,13.6,8.3,20.4c0.1,0.3,0.2,0.5,0.3,0.8
		c0.1,0.2,0.2,0.5,0.3,0.7c0.1,0.3,0.2,0.6,0.4,0.9c0.1,0.2,0.2,0.5,0.3,0.7c1.1,2.7,2.2,5.3,3.3,8c1.2,2.9,2.5,5.9,3.7,8.8
		c0.7,1.6,1.4,3.3,2.1,4.9c0.2,0.5,0.4,1,0.7,1.5c2,0.6,4,0.3,5.9-0.3c1.9-0.6,3.7-1.4,5.4-2.5l0.2-0.1L97.3,96.2z M96.5,96.4
		C96.5,96.3,96.5,96.3,96.5,96.4c0-0.1-0.1-0.2-0.1-0.3c-0.1,0.1-0.3,0.2-0.5,0.3c-1.4,0.9-2.8,1.6-4.4,2.2
		c-0.9,0.3-1.8,0.6-2.8,0.7c-0.9,0.1-1.9,0.1-2.8-0.1c-0.2-0.5-0.3-0.9-0.5-1.4c-0.6-1.7-1.2-3.3-1.9-5c-1.1-3-2.2-5.9-3.4-8.9
		c-1.1-2.8-2.2-5.7-3.3-8.5c0,0,0-0.1,0-0.1c0-0.1-0.1-0.1-0.1-0.2c0-0.2-0.1-0.3-0.2-0.5c-0.1-0.2-0.2-0.5-0.3-0.7
		c-0.1-0.3-0.2-0.5-0.3-0.8c-0.9-2.3-1.8-4.6-2.7-6.8c-1.2-3-2.3-5.9-3.5-8.9c-0.7-1.9-1.5-3.7-2.2-5.6c-0.4-1.1-0.9-2.2-1.3-3.3
		c-0.5-1.2-1-2.4-1.4-3.6c-0.6-1.5-1.2-3-1.8-4.4c-0.1-0.3-0.2-0.6-0.3-0.8c-0.3-0.6-0.5-1.2-0.7-1.7c-1-2.4-2-4.7-3-7.1
		c-0.3-0.8-0.7-1.6-1-2.4c-0.9-2.1-1.8-4.3-2.6-6.4c-1.2-2.9-2.4-5.9-3.6-8.9c-1.1-2.7-2.1-5.3-3.2-8c-0.1,0-0.1,0.1-0.2,0.1
		l0.1-0.4c0,0.1,0.1,0.1,0.1,0.2c1.8-1,3.6-1.9,5.5-2.6c1-0.4,2-0.7,3-1c0.9-0.2,1.8-0.4,2.7-0.4c0-0.1-0.1-0.2-0.1-0.3L60,0.9
		c-0.1,0-0.2,0-0.3,0c0.9,2.5,1.8,4.9,2.7,7.4c1.1,3,2.2,6,3.4,9c0.9,2.5,1.8,4.9,2.7,7.3c0.2,0.5,0.4,1.1,0.6,1.6
		c1.1,3,2.3,6,3.4,9c0.1,0.1,0.1,0.3,0.2,0.4c0.3,0.9,0.7,1.8,1,2.7c0.7,1.9,1.5,3.9,2.2,5.8c0.2,0.5,0.4,1,0.6,1.5
		c0.4,1,0.7,1.9,1.1,2.9c0.6,1.5,1.2,3,1.7,4.5c1.2,3,2.3,5.9,3.5,8.9c1.1,3,2.3,5.9,3.5,8.9c0.2,0.5,0.4,1.1,0.6,1.6
		c0.1,0.3,0.3,0.7,0.4,1c0.1,0.3,0.2,0.6,0.4,1c0.1,0.2,0.2,0.4,0.3,0.6c0.1,0.2,0.2,0.5,0.3,0.7c0.5,1.3,1,2.6,1.5,3.9
		c1.2,2.9,2.4,5.9,3.5,8.8c1,2.5,2,5,3,7.5c0.1,0,0.2-0.1,0.3-0.2L96.5,96.4L96.5,96.4z"/>
	<path class="st13" d="M13.6,85.5c-3.3,1.4-6.3,3.5-8.5,6.2c-2.2,2.7-3.5,6-4.2,9.6c-1.4,7.1-0.6,14.8-0.6,22.5
		c0.2,7.6,0.4,15.3,0.5,22.9c0.2,7.6,0.4,15.3,0.6,22.9c0.2,7.6,0.2,15.3,1.2,22.7c1,7.4,3.1,14.7,7.4,20.6
		c4.3,5.9,10.6,10.6,17.9,11.4c0.3,0,1.8,0.4,2.1,0.5c0-0.6-0.1-1.7-0.1-2.3c-0.2-5.4-0.1-10.5-0.1-15.9l0-5.3
		c-2.9,0-6.7,0.5-8.9-1.1c-2.3-1.7-4.2-3.9-5.4-6.4c-2.5-5-2.8-10.5-2.8-15.7c0-10.3,0.1-20.5,0-30.8c-0.2-10.3-0.4-20.6-0.6-30.8
		c0-2.6,0.2-5.2,0.8-7.8c0.6-2.6,1.6-5.1,3.4-7.3c1.8-2.1,4.3-3.5,6.9-4.1c2.4-0.6,6.1,0.9,8.4,1.4c0.2-1.2,0-2.2,0.2-3.4
		c0.8-4.1,1.9-8.2,3.8-11.9C28.3,82.7,20.1,82.7,13.6,85.5z"/>
	<path class="st14" d="M170.7,211.6c-0.7,7.7-1.7,15.7-6.1,22c-6.5,9.3-18.4,12.6-29.5,14.7c-28,5.4-58.4,6.9-83.9-6
		c-3.5-1.7-6.9-3.8-9.2-7c-2.8-3.9-3.5-8.9-4-13.7c-3.9-39,0.1-78.2,4.2-117.2c0.5-4.4,1.1-9.2,4.5-12.1c6.7-5.6,16.3,1.1,24.6,3.9
		c17.7,6,38.3-7.4,55.3,0.5c10.9,5.1,14-2.5,25.5-1.6c10.4,0.8,14.8,9.9,16.1,19C172.8,146.3,173.6,179.2,170.7,211.6z"/>
	<path class="st0" d="M155,115c1.7,4,2.7,8.1,3.6,12.2c0.4,2.1,0.8,4.1,1.1,6.2c0.3,2.1,0.5,4.2,0.6,6.3c0.1,2.1,0,4.2-0.1,6.4
		c-0.1,2.1-0.1,4.2-0.1,6.3c0.2,4.2,0.6,8.4,1.2,12.6c0.6,4.2,1.1,8.4,1.1,12.6c0.2,4.2,0.2,8.5-0.1,12.7c-0.8,8.4-2.5,16.9-6,24.7
		l-0.5-0.1l1.2-25c0.1-2.1,0.2-4.1,0.4-6.2c0.2-2.1,0.2-4.1,0.4-6.2l0.3-6.2c0.1-2.1,0.4-4.2,0.5-6.3c0.3-4.2,0.3-8.4-0.1-12.5
		c-0.4-4.2-1.6-8.3-2.4-12.4c-0.7-4.1-1.1-8.3-1.4-12.4c-0.3-4.2-0.5-8.4-0.3-12.6L155,115z"/>
	<circle cx="54.2" cy="227" r="2.2"/>
	<circle cx="54.5" cy="216.7" r="1.4"/>
	<circle cx="63.5" cy="218.7" r="1"/>
	<circle cx="46.9" cy="199.4" r="1.3"/>
	<circle cx="50.7" cy="194.3" r="0.7"/>
	<circle cx="62.4" cy="225.7" r="1"/>
	<circle cx="52.1" cy="206.5" r="2.2"/>
	<circle cx="54.8" cy="200.9" r="1.4"/>
	<circle cx="56.9" cy="213" r="1"/>
	<circle cx="49.9" cy="211.9" r="1"/>
	<path class="st12" d="M66.4,16.7c0,0-2.8,3.7-11.4,5.2"/>
	<path class="st12" d="M69.9,25.6c0,0-2.8,3.7-11.4,5.2"/>
	<path class="st12" d="M73.3,34.5c0,0-2.8,3.7-11.4,5.2"/>
	<path class="st12" d="M65.4,48.6c0.3,0,0.6-0.1,0.9-0.2c3.6-0.7,6-1.8,7.7-2.8c0.9-0.5,1.5-1,1.9-1.4c0.6-0.5,0.9-0.9,0.9-0.9"/>
	<path class="st12" d="M80.3,52.2c0,0-2.8,3.7-11.4,5.2"/>
	<path class="st12" d="M83.8,61.1c0,0-2.8,3.7-11.4,5.2"/>
	<path class="st12" d="M87.2,70c0,0-2.8,3.7-11.4,5.2"/>
	<path class="st12" d="M90.7,78.9c0,0-2.8,3.7-11.4,5.2"/>
	<path class="st12" d="M94.2,87.7c0,0-2.8,3.7-11.4,5.2"/>
</g>
</svg>
