<?xml version="1.0" encoding="utf-8"?>
<!-- Generator: Adobe Illustrator 25.2.1, SVG Export Plug-In . SVG Version: 6.00 Build 0)  -->
<svg version="1.1" id="Layer_1" xmlns="http://www.w3.org/2000/svg" xmlns:xlink="http://www.w3.org/1999/xlink" x="0px" y="0px"
	 viewBox="0 0 180 484" style="enable-background:new 0 0 180 484;" xml:space="preserve">
<style type="text/css">
	.st0{fill:#EFEFF0;}
	.st1{fill:#F3E96D;}
	.st2{fill:#E9E9EA;}
	.st3{fill:none;}
	.st4{fill:#B4C835;}
	.st5{fill:#DBE8F2;}
	.st6{fill:#6FCCD7;}
	.st7{fill:#F1F2F2;}
	.st8{fill:#FFFFFF;}
	.st9{fill:#663725;}
	.st10{fill:#2B1010;}
	.st11{fill:#F26622;}
	.st12{fill:none;stroke:#000000;stroke-miterlimit:10;}
	.st13{fill:#EFEFF0;stroke:#000000;stroke-width:0.75;stroke-miterlimit:10;}
	.st14{fill:#CD2A5B;}
	.st15{fill:#CE2C42;}
	.st16{fill:#E47925;}
	.st17{opacity:0.32;}
	.st18{fill:#77CCE7;}
	.st19{fill:#8C8582;}
	.st20{fill:#F7F4B2;}
	.st21{fill:#F37868;}
	.st22{fill:#FCDCD9;}
	.st23{fill:#EF453C;}
	.st24{fill:#2B141D;}
	.st25{fill:#2D131D;}
	.st26{opacity:0.75;}
	.st27{fill:#CDDCF1;}
	.st28{opacity:0.96;}
</style>
<g>
	<path d="M125.1,36.6c-2.6,0.4-5.2,1.5-7,3.4c-1.8,1.9-2.6,4.6-3,7.2l-2.1,16l-4.1,32l-8,64c-2.7,21.3-5.5,42.7-8.4,64l-8.6,64
		l-1.4-1.8l9.5,0.9l-1.7,1.3l10-70.9l10.3-70.9l10.1-70.9l2.5-17.7c0.4-2.9,0.9-6.3,3.6-8.3c2.7-2,6.5-1.3,8.9,0.8
		c1.2,1,2.1,2.6,2.2,4.2c0.2,1.6-0.2,3.2-0.9,4.6c-1.4,2.8-4,4.9-7,5.9c-5.9,2.1-12.7,0.6-17.4-3.5c-4.8-4.1-6.7-10.7-6.2-16.8
		c0.5-6.2,3.3-12,7.1-16.7c7.7-9.6,19.6-15.1,31.4-17.1c3-0.5,6-0.9,9-1c3-0.2,6-0.1,8-1.4c0.4-0.3,0.7-0.6,0.8-1.1
		c0.2-0.5,0.3-1.2,0.3-1.9c0.1-2.1,0.6-1.2-0.8-1.8c-1.2-0.2-2.7-0.2-4.2-0.2c-1.5,0-2.9,0.1-4.4,0.2c-11.7,0.9-23.2,4.4-33.2,10.5
		c-5,3.1-9.5,6.9-13.2,11.4c-3.7,4.5-6.4,9.8-7.6,15.5c-1.2,5.7-0.8,11.7,1.5,17.1c2.2,5.4,6.4,9.9,11.7,12.4
		c5.3,2.5,11.5,2.9,17.2,1.4c2.8-0.8,5.5-2.1,7.7-4.1c2.2-1.9,3.9-4.4,4.9-7.2c2-5.5,1.3-12.1-2.3-16.8c-1.8-2.3-4.1-4.3-6.9-5.4
		C131.1,36.5,128,36.2,125.1,36.6z M125,36.3c3-0.4,6.1-0.1,8.9,1c2.8,1,5.3,3,7.1,5.4c3.7,4.9,4.4,11.6,2.4,17.3
		c-1,2.9-2.7,5.5-5,7.5c-2.3,2-5,3.4-7.9,4.3c-5.8,1.7-12.2,1.4-17.9-1.1c-5.6-2.5-10.1-7.3-12.6-12.9c-2.6-5.6-3.1-12-2-18
		c1.1-6,3.8-11.7,7.6-16.5c3.8-4.8,8.6-8.8,13.7-12C129.8,4.8,141.7,1,153.8,0.1c1.5-0.1,3-0.2,4.6-0.1c1.5,0,3,0,4.7,0.3
		c0.8,0.2,1.9,0.3,2.8,1.7c0.4,0.7,0.2,1.6,0.2,1.8L166,4.9c-0.1,0.8-0.2,1.6-0.5,2.5c-0.3,0.9-1,1.9-1.8,2.4
		c-3.2,2-6.5,1.6-9.3,1.8c-2.9,0.2-5.9,0.5-8.8,1c-11.5,1.9-22.9,6.9-30.4,15.9c-3.7,4.5-6.4,9.9-7,15.7c-0.6,5.7,1.1,11.8,5.4,15.7
		c4.3,3.8,10.7,5.3,16.1,3.4c2.7-0.9,5.1-2.8,6.4-5.4c1.4-2.5,1.2-5.8-1-7.6c-2-1.9-5.4-2.5-7.6-0.8c-2.3,1.7-2.9,4.8-3.3,7.7
		L121.9,75l-9.5,71l-9.4,71l-9.6,71l-0.2,1.4l-1.5-0.1l-9.5-0.8l-1.6-0.1l0.2-1.6l8.7-63.9c2.9-21.3,5.9-42.6,8.9-63.9l9.3-63.9
		l4.6-31.9l2.3-16c0.4-2.6,1.2-5.4,3.2-7.4C119.7,37.8,122.4,36.7,125,36.3z"/>
	<g>
		<path class="st0" d="M177.2,257.3c-5.9-13.6-41.6-51.9-40.7-58.7c0.9-6.8,7.9-97.7-5.7-97.7c-4.7,0-13.1,0-22-0.1
			c0,0-19,0-35.9-0.1c-8.9,0-17.3,0-22-0.1c-13.6,0-7,90.9-6.2,97.7c0.8,6.8-35,44.9-41,58.5c-6,13.6-0.4,163.8-0.5,191.9
			c-0.1,28.1,6.7,32.4,32.3,33.3c16.9,0.6,40.4,0.5,54.5,0.3c14.1,0.2,37.6,0.5,54.5-0.1c25.6-0.8,32.4-5,32.5-33.1
			C176.8,421.1,183.1,271,177.2,257.3z"/>
		<path d="M177,257.4c-2.3-4.8-5.5-9.1-8.7-13.4c-3.2-4.3-6.5-8.5-9.8-12.7c-6.6-8.4-13.5-16.7-19.5-25.6c-0.7-1.1-1.4-2.3-2-3.5
			c-0.6-1.2-1.2-2.6-1-4.1c0.3-2.7,0.4-5.3,0.6-8c0.4-5.3,0.6-10.7,0.9-16c0.5-10.7,0.7-21.4,0.6-32.1c-0.2-10.6-0.5-21.4-2.7-31.7
			c-0.6-2.5-1.4-5.1-2.7-6.9c-0.4-0.4-0.7-0.8-1.1-1c-0.4-0.2-0.6-0.2-1.4-0.2l-4,0l-16.1,0l-32.1-0.1L61.8,102l-8,0l-2,0l-1,0
			c-0.2,0-0.4,0-0.6,0.1c-0.8,0.2-1.5,1.1-2.1,2.2c-2.2,4.4-2.9,9.9-3.6,15.1c-0.6,5.3-0.9,10.6-1.1,15.9
			c-0.4,10.7-0.3,21.4,0.1,32.1c0.2,5.3,0.4,10.7,0.7,16l0.5,8l0.3,4l0.2,2l0.1,1c0,0.4,0,0.9-0.1,1.2c-0.8,2.8-2.4,5-3.8,7.3
			c-1.5,2.2-3.1,4.4-4.7,6.5c-3.2,4.3-6.6,8.5-9.9,12.6c-6.6,8.4-13.6,16.6-19.4,25.5c-1.4,2.2-2.9,4.5-3.6,7
			c-0.6,2.5-0.9,5.2-1.1,7.9c-0.4,5.3-0.6,10.7-0.8,16c-0.5,21.4-0.2,42.8,0.2,64.2l1.6,64.2l0.8,32.1c0.1,5.4,0,10.7,0.5,15.9
			c0.5,5.2,1.5,10.5,4.5,14.4c3,3.9,8.1,5.5,13.2,6.3c5.2,0.8,10.5,1,15.8,1.1l32.1,0.1l64.2,0.1c5.3,0,10.7,0.1,16-0.3
			c5.2-0.4,10.6-1,15-3.3c4.5-2.2,7-6.7,8.1-11.7c1.1-5,1.4-10.3,1.5-15.6c0.4-21.5,1.3-42.8,2-64.3c0.8-21.4,1.5-42.8,1.9-64.2
			c0.2-10.7,0.3-21.4,0.2-32.1c-0.1-5.4-0.2-10.7-0.4-16.1c-0.1-2.7-0.3-5.3-0.5-8C178.1,262.6,177.9,259.9,177,257.4z M177.3,257.3
			c0.9,2.6,1.1,5.3,1.5,7.9c0.3,2.7,0.4,5.3,0.6,8c0.3,5.4,0.4,10.7,0.5,16.1c0.2,10.7,0.1,21.4,0.1,32.1
			c-0.1,21.4-0.4,42.8-0.7,64.3c-0.3,21.4-1,42.9-1.2,64.2c0,5.4-0.2,10.9-1.4,16.3c-0.7,2.7-1.5,5.5-3.2,7.9
			c-1.6,2.4-3.8,4.6-6.4,5.8c-5.2,2.6-10.8,3.1-16.2,3.6c-5.4,0.4-10.8,0.3-16.1,0.4c-21.4,0-42.9,0.2-64.3-0.1l-32.2-0.3
			c-5.4,0-10.8-0.3-16.2-1.2c-2.7-0.5-5.4-1-8.1-2.2c-2.6-1.2-5.2-2.8-6.9-5.2c-3.6-4.7-4.5-10.5-5.1-15.8
			c-0.5-5.4-0.3-10.8-0.4-16.2l-0.5-32.1l-1-64.3c-0.2-21.4-0.4-42.9,0.3-64.3c0.2-5.4,0.4-10.7,0.9-16.1c0.2-2.7,0.6-5.4,1.2-8
			c0.8-2.7,2.3-4.9,3.8-7.2c6-8.9,12.8-17.2,19.4-25.6c3.3-4.2,6.6-8.4,9.9-12.7c1.6-2.1,3.2-4.3,4.6-6.5c1.4-2.2,3-4.5,3.6-6.9
			c0.1-0.3,0-0.5,0.1-0.8l-0.1-1l-0.2-2l-0.3-4l-0.6-8c-0.4-5.3-0.6-10.7-0.9-16.1c-0.5-10.7-0.7-21.4-0.5-32.2
			c0.1-5.4,0.4-10.7,0.9-16.1c0.3-2.7,0.6-5.4,1.2-8.1c0.5-2.7,1.2-5.4,2.6-8c0.7-1.2,1.6-2.7,3.5-3.3c0.4-0.2,1-0.2,1.4-0.2l1,0
			l2,0l8,0l16.1,0l32.1,0.1l16.1,0.1l4,0c0.5,0,1.7,0.1,2.5,0.5c0.8,0.4,1.4,1,1.9,1.6c1.8,2.5,2.5,5.2,3.1,7.9
			c2.2,10.7,2.2,21.5,2.3,32.2c0,10.7-0.5,21.5-1.1,32.2c-0.3,5.4-0.7,10.7-1.1,16c-0.2,2.7-0.5,5.3-0.8,8c-0.2,1.2,0.3,2.4,0.8,3.6
			c0.6,1.2,1.2,2.3,1.9,3.5c5.8,9,12.7,17.2,19.2,25.7c3.3,4.2,6.6,8.4,9.8,12.8C171.8,248,175,252.4,177.3,257.3z"/>
	</g>
	<path class="st22" d="M129.1,201.9c0.5-4,3.2-67.3,2.2-78.9l-81.1-0.2c-0.7,11.1,2,73.4,2.4,77.3c0.8,6.4-35.9,47.1-41.4,60
		c-5.5,12.9-0.4,154.8-0.4,181.4c-0.1,26.6,6.1,30.6,29.4,31.5c15.4,0.6,36.8,0.5,49.6,0.3c12.8,0.2,34.2,0.4,49.6-0.1
		c23.3-0.7,29.5-4.8,29.5-31.3c0.1-26.6,5.8-168.5,0.5-181.4C164,247.6,128.3,208.3,129.1,201.9z"/>
	<path class="st3" d="M177.2,257.3c-5.9-13.6-41.6-51.9-40.7-58.7c0.9-6.8,7.9-97.7-5.7-97.7c-4.7,0-13.1,0-22-0.1
		c0,0-19,0-35.9-0.1c-8.9,0-17.3,0-22-0.1c-13.6,0-7,90.9-6.2,97.7c0.8,6.8-35,44.9-41,58.5c-6,13.6-0.4,163.8-0.5,191.9
		c-0.1,28.1,6.7,32.4,32.3,33.3c16.9,0.6,40.4,0.5,54.5,0.3c14.1,0.2,37.6,0.5,54.5-0.1c25.6-0.8,32.4-5,32.5-33.1
		C176.8,421.1,183.1,271,177.2,257.3z"/>
	<path class="st8" d="M144.5,276.5c1.2,3.4,1.9,6.7,2.6,10.1c0.7,3.4,1.1,6.7,1.5,10.1c0.3,3.4,0.6,6.7,0.7,10.1
		c0.1,3.4,0.1,6.7-0.3,10.1c-0.8,6.7-2.7,13.4-3,20.1c-0.4,6.7,0.2,13.4,1.3,20.1c0.5,3.4,1.1,6.7,1.5,10.1
		c0.4,3.4,0.6,6.7,0.8,10.1c0.4,6.7,0.9,13.4,0.7,20.1c-0.2,6.7-0.7,13.4-1.7,20.1c-0.9,6.7-2.1,13.4-4.1,20.1h-1.2
		c-2-6.7-3.2-13.4-4.1-20.1c-0.9-6.7-1.5-13.4-1.7-20.1c-0.2-6.7,0.3-13.4,0.7-20.1c0.2-3.4,0.4-6.7,0.8-10.1
		c0.4-3.4,1-6.7,1.5-10.1c1.1-6.7,1.8-13.4,1.3-20.1c-0.4-6.7-2.3-13.4-3-20.1c-0.4-3.4-0.5-6.7-0.3-10.1c0.1-3.4,0.3-6.7,0.7-10.1
		c0.3-3.4,0.8-6.7,1.5-10.1c0.6-3.4,1.4-6.7,2.6-10.1H144.5z"/>
</g>
</svg>
