<?xml version="1.0" encoding="utf-8"?>
<!-- Generator: Adobe Illustrator 25.2.1, SVG Export Plug-In . SVG Version: 6.00 Build 0)  -->
<svg version="1.1" id="Layer_1" xmlns="http://www.w3.org/2000/svg" xmlns:xlink="http://www.w3.org/1999/xlink" x="0px" y="0px"
	 viewBox="0 0 180 288.9" style="enable-background:new 0 0 180 288.9;" xml:space="preserve">
<style type="text/css">
	.st0{fill:#EFEFF0;}
	.st1{fill:#F3E96D;}
	.st2{fill:#E9E9EA;}
	.st3{fill:none;}
	.st4{fill:#B4C835;}
	.st5{fill:#DBE8F2;}
	.st6{fill:#6FCCD7;}
	.st7{fill:#F1F2F2;}
	.st8{fill:#FFFFFF;}
	.st9{fill:#663725;}
	.st10{fill:#2B1010;}
	.st11{fill:#F26622;}
	.st12{fill:none;stroke:#000000;stroke-miterlimit:10;}
	.st13{fill:#EFEFF0;stroke:#000000;stroke-width:0.75;stroke-miterlimit:10;}
	.st14{fill:#CD2A5B;}
	.st15{fill:#CE2C42;}
	.st16{fill:#E47925;}
	.st17{opacity:0.32;}
	.st18{fill:#77CCE7;}
	.st19{fill:#8C8582;}
	.st20{fill:#F7F4B2;}
	.st21{fill:#F37868;}
	.st22{fill:#FCDCD9;}
	.st23{fill:#EF453C;}
	.st24{fill:#2B141D;}
	.st25{fill:#2D131D;}
	.st26{opacity:0.75;}
	.st27{fill:#CDDCF1;}
	.st28{opacity:0.96;}
</style>
<g>
	<g>
		<path class="st5" d="M0.1,8.1c0,0,15.8,176.6,2,248.4C1,262.3,3.9,268.1,9,271.1c16.2,9.1,53.9,24.6,108.3,12.5
			c5.4-1.2,9.6-5.5,10.7-11c8-42,42.3-221.9,49.4-239.5C177.5,33.1,88.8,57.7,0.1,8.1z"/>
		<g>
			<path d="M0.1,8.1c2.4,26.5,4.3,53,5.7,79.6c1.5,26.6,2.4,53.2,2.5,79.8l-0.1,20l-0.6,20C7.3,214,7,220.7,6.5,227.3l-1,9.9l-0.5,5
				l-0.8,4.9l-1.5,9.9c-0.5,3.1,0.2,6.4,2,9c0.9,1.3,2,2.5,3.2,3.4c1.2,0.9,2.8,1.6,4.2,2.4c2.9,1.5,5.9,2.9,9,4.2
				c6.1,2.6,12.4,4.7,18.8,6.3c6.4,1.6,12.9,2.9,19.5,3.6c13.1,1.6,26.5,1.4,39.6-0.2c3.3-0.5,6.6-0.9,9.8-1.5l4.9-1
				c1.6-0.4,3.3-0.6,4.8-1.1c2.9-1,5.5-3,7.1-5.7c0.8-1.3,1.3-2.8,1.6-4.3l0.9-4.9c4.9-26.1,10.1-52.2,15.2-78.3
				c5.2-26.1,10.4-52.2,15.7-78.2c2.7-13,5.4-26,8.3-39c1.5-6.5,2.9-13,4.4-19.5c0.8-3.2,1.5-6.5,2.4-9.7c0.4-1.6,0.8-3.2,1.3-4.8
				l1.5-4.8l0.8,0.9c-14.9,3.6-30.2,5.3-45.5,5.8c-3.8,0-7.6,0.2-11.5,0.2l-11.5-0.3l-11.4-0.9L95,38.3l-2.8-0.4l-5.7-0.8l-5.7-0.8
				l-5.6-1.1c-3.7-0.8-7.5-1.4-11.2-2.3c-7.4-2-14.8-3.7-22-6.4l-5.4-1.8c-1.8-0.6-3.6-1.2-5.4-2l-10.5-4.5
				c-3.6-1.4-6.9-3.2-10.3-4.9L0.1,8.1z M0.1,8.1c13.5,7,27.4,13.6,42,18c7.2,2.6,14.6,4.2,22,6.1c3.7,0.9,7.5,1.4,11.2,2.2l5.6,1
				l5.7,0.7l5.7,0.7l2.8,0.4l2.8,0.2l11.4,0.8l11.4,0.3c3.8,0,7.6-0.1,11.4-0.2c15.2-0.6,30.4-2.3,45.2-5.9l1.1-0.3l-0.4,1.1
				l-1.5,4.7c-0.5,1.6-0.8,3.2-1.3,4.8c-0.9,3.2-1.6,6.4-2.4,9.7c-1.5,6.5-2.9,13-4.4,19.5c-2.8,13-5.5,26-8.1,39.1
				c-5.3,26.1-10.4,52.2-15.5,78.3l-15,78.4l-0.9,4.9c-0.3,1.7-1,3.4-1.9,5c-1.8,3.1-4.8,5.4-8.2,6.5c-1.7,0.6-3.3,0.7-5,1.1l-4.9,1
				c-3.3,0.6-6.6,1-9.9,1.5c-13.3,1.7-26.7,1.7-40,0.1c-6.6-0.8-13.2-2-19.7-3.7c-6.5-1.7-12.8-3.8-19-6.4c-3.1-1.3-6.1-2.7-9.1-4.3
				c-1.5-0.8-3-1.5-4.4-2.6c-1.4-1-2.6-2.3-3.6-3.8c-1.9-2.9-2.8-6.6-2.2-10.1l1.5-9.8l0.8-4.9l0.5-5l1-9.9
				c0.6-6.6,0.8-13.3,1.3-19.9L7,187.4l0.2-19.9c0-26.6-0.9-53.2-2.1-79.7C3.9,61.2,2.2,34.6,0.1,8.1z"/>
		</g>
	</g>
	<g>
		<path class="st5" d="M0.1,8.1c0,0,93.6-25.4,177.4,18.9c0,0,6.1,5.1-3.1,6.9C174.4,33.9,86.8,65.6,0.1,8.1z"/>
		<g>
			<path d="M0,8.1c3.8-1.2,7.4-1.9,11.2-2.7c3.7-0.8,7.5-1.5,11.2-2C29.9,2.2,37.4,1.3,45,0.7c15.2-1,30.4-1,45.6,0.5
				c15.1,1.5,30.1,4.5,44.7,8.7c14.6,4.1,28.8,9.8,42.4,16.6l0,0l0,0c0.7,0.6,1.3,1.4,1.8,2.3c0.5,0.9,0.6,2.1-0.1,3.1
				c-0.6,0.9-1.5,1.4-2.4,1.8c-0.9,0.4-1.8,0.6-2.7,0.8l0.1,0c-7.2,2.5-14.6,4.2-22.1,5.7c-7.5,1.4-15.1,2.4-22.6,2.9
				c-7.6,0.6-15.2,0.7-22.8,0.5c-7.6-0.3-15.2-1-22.8-2.1c-15.1-2.1-29.9-6.3-44-11.8C26,23.9,12.6,16.9,0,8.1z M0.2,8.1
				C13,16,26.6,23,40.7,28.3c14.2,5.2,28.9,8.9,43.8,11.1c14.9,2.1,30.1,2.7,45.2,1.7c15-1.1,30.1-3.3,44.5-7.8l0.1,0l0,0
				c0.8-0.2,1.7-0.4,2.5-0.7c0.8-0.3,1.5-0.7,1.9-1.3c0.4-0.6,0.4-1.3,0-2c-0.3-0.7-0.9-1.4-1.5-1.9l0.1,0.1
				c-6.7-3.5-13.5-6.9-20.6-9.6c-3.5-1.5-7.1-2.7-10.6-4c-3.6-1.1-7.2-2.3-10.9-3.3c-14.6-4-29.6-6.4-44.7-7.7
				C75.4,1.7,60.2,1.4,45.1,2.3C37.6,2.7,30,3.4,22.5,4.4C15.1,5.3,7.4,6.6,0.2,8.1z"/>
		</g>
	</g>
	<path class="st6" d="M11.9,67.6c3.2,61.7,6.4,124.1-4.4,184.9c-0.2,1.3-0.5,2.8,0.1,4c0.5,1.2,1.7,2,2.8,2.7
		c14.8,9.3,32.1,14.1,49.5,15.9s35,0.9,52.4-0.8c2.2-0.2,4.5-0.5,6.4-1.6c4.3-2.6,4.2-12.8,5-17.2c1.4-7.7,2.9-15.4,4.3-23.2
		c2.9-15.4,5.7-30.9,8.6-46.3c5.8-31.2,11.6-62.5,17.4-93.7c-24,3.6-48.5-0.1-72-6S35.7,72.5,11.9,67.6z"/>
	<path class="st7" d="M44.6,101.9l12.9,28c0,0,12.9,5.2,38.7-2.2c0,0,3-28.1,0-32.4C93.2,91.1,65.7,86.8,44.6,101.9z"/>
	<g>
		<path class="st7" d="M80.5,115.8l-5.2,30.4c0,0,7.7,11.6,33.2,20.2c0,0,18.4-21.5,18.3-26.7C126.7,134.5,106.4,115.4,80.5,115.8z"
			/>
		<path d="M80.5,115.9l-5,30.4l0-0.2c1.9,2.6,4.4,4.8,6.9,6.8c2.6,2,5.3,3.8,8.1,5.4c2.8,1.7,5.8,3.1,8.8,4.4c1.5,0.7,3,1.3,4.5,1.9
			l4.6,1.6l-0.1,0c4.7-5.6,9.2-11.3,13.3-17.2c1-1.5,2-3,2.9-4.6c0.8-1.6,1.9-3.2,1.9-4.9c-0.3-1.7-1.4-3.2-2.5-4.6
			c-1.1-1.4-2.4-2.7-3.8-3.9c-5.4-4.8-11.8-8.5-18.5-11.2C95,117.2,87.7,115.8,80.5,115.9z M80.5,115.8c7.3-0.2,14.6,1.2,21.4,3.8
			c6.8,2.6,13.2,6.3,18.7,11.2c1.4,1.2,2.7,2.5,3.8,3.9c1.1,1.4,2.3,2.9,2.6,4.9c-0.1,2-1.2,3.5-2,5.2c-0.9,1.6-1.9,3.1-3,4.6
			c-4.2,5.9-8.8,11.6-13.5,17.1l0,0.1l-0.1,0l-4.6-1.7l-4.5-1.9c-3-1.3-6-2.7-8.8-4.3c-2.9-1.6-5.6-3.4-8.2-5.4
			c-2.6-2-5.1-4.2-7.1-6.9l-0.1-0.1l0-0.1L80.5,115.8z"/>
	</g>
	<path class="st6" d="M94.9,123.6c-2.9,0.3-5.1,0.3-7,0.4c-0.9,0-2.2-0.1-3.1,0.8c-0.8,0.9-1.1,2.1-0.9,3.3c0,0.6,0.2,1.3,0.2,1.9
		c0.1,0.7,0,1.3,0,1.9c0,1.3,0,2.6-0.3,3.8c-0.5,2.5-1.3,5-3,7.4l-0.4,0c-1-2.7-1.1-5.3-1-7.9c0.1-1.3,0.4-2.6,0.8-3.8
		c0.3-1.3,0.7-2.5,1.4-3.8c0.3-0.7,0.6-1.3,1-1.9c0.3-0.6,0.7-1.2,1-1.8c0.7-1.2,1.7-2.6,3.3-3.3c1.5-0.7,3.2-0.4,4.5,0
		c1.4,0.5,2.6,1.2,3.5,2.5L94.9,123.6z"/>
	<path class="st6" d="M53,112.6c-1.5-1-2.4-2.8-2.5-4.7c-0.1-2,0.8-4,2.3-5.2c0.8-0.5,1.6-1,2.4-1.3c0.8-0.3,1.6-0.5,2.4-0.9
		c1.5-0.5,2.9-1.4,4.3-2.2c0.7-0.4,1.4-0.8,2.2-1.2c0.8-0.3,1.5-0.5,2.3-0.8c1.6-0.5,3.1-0.9,4.7-1c3.2-0.3,6.4,0.1,9.6,1.2l0,0.4
		c-3.1,1.5-6.1,2.1-9.1,2.7c-0.8,0.1-1.5,0.2-2.3,0.2l-2.3,0.2c-1.5,0.1-3,0.2-4.6,0.3c-1.6,0-3.1,0.5-4.4,1.2
		c-0.6,0.4-1.2,1-1.7,1.5c-0.4,0.6-0.8,1.2-1.2,1.8c-0.6,1.1-1.3,2-1.6,3.2c-0.4,1.2-0.4,2.6-0.3,4.2L53,112.6z"/>
	<path class="st8" d="M166.6,45.2c-1.9,3.1-4.9,5.2-8,6.9c-3.1,1.6-6.4,2.9-9.9,3.3c-1.7,0.1-3.5,0.2-5.2,0.1
		c-1.7-0.1-3.4-0.1-5.1,0c-3.4,0-6.7,0.7-10.1,1.2c-3.4,0.7-6.8,0.9-10.2,0.9c-3.4,0-6.8-0.2-10.2-0.7c-3.3-0.7-6.6-1.5-9.9-2.6
		c-3.2-1.2-6.4-2.5-9.4-4.3l0.1-0.6c3.5-0.3,6.8-0.1,10.2,0.1c3.3,0.1,6.6,0.4,9.8,0.8c3.3,0.2,6.5,0.9,9.7,1.4
		c3.2,0.3,6.5,1.1,9.8,1.5c3.3,0.6,6.6,0.7,9.9,0.2c1.6-0.3,3.2-0.8,4.8-1.4c1.6-0.6,3.1-1.3,4.6-1.8c6.1-2,12.2-3.3,18.6-5.6
		L166.6,45.2z"/>
</g>
</svg>
