<?xml version="1.0" encoding="utf-8"?>
<!-- Generator: Adobe Illustrator 25.2.1, SVG Export Plug-In . SVG Version: 6.00 Build 0)  -->
<svg version="1.1" id="Layer_1" xmlns="http://www.w3.org/2000/svg" xmlns:xlink="http://www.w3.org/1999/xlink" x="0px" y="0px"
	 viewBox="0 0 180 485.2" style="enable-background:new 0 0 180 485.2;" xml:space="preserve">
<style type="text/css">
	.st0{fill:#EFEFF0;}
	.st1{fill:#F3E96D;}
	.st2{fill:#E9E9EA;}
	.st3{fill:none;}
	.st4{fill:#B4C835;}
	.st5{fill:#DBE8F2;}
	.st6{fill:#6FCCD7;}
	.st7{fill:#F1F2F2;}
	.st8{fill:#FFFFFF;}
	.st9{fill:#663725;}
	.st10{fill:#2B1010;}
	.st11{fill:#F26622;}
	.st12{fill:none;stroke:#000000;stroke-miterlimit:10;}
	.st13{fill:#EFEFF0;stroke:#000000;stroke-width:0.75;stroke-miterlimit:10;}
	.st14{fill:#CD2A5B;}
	.st15{fill:#CE2C42;}
	.st16{fill:#E47925;}
	.st17{opacity:0.32;}
	.st18{fill:#77CCE7;}
	.st19{fill:#8C8582;}
	.st20{fill:#F7F4B2;}
	.st21{fill:#F37868;}
	.st22{fill:#FCDCD9;}
	.st23{fill:#EF453C;}
	.st24{fill:#2B141D;}
	.st25{fill:#2D131D;}
	.st26{opacity:0.75;}
	.st27{fill:#CDDCF1;}
	.st28{opacity:0.96;}
</style>
<g>
	<g>
		<path class="st0" d="M50.6,103.7c3.5,0,12.1,28.4,13.3,32.4c3.4,11.8,5.2,24.2,3.6,36.4c-2.3,17.7-13.1,34.1-19.3,50.8
			C35.1,258.7,25.1,299,32.9,336.8c2.9,14.1,8.6,27.6,17.7,38.9c7.9,9.9,21.3,16.3,33.3,19.1c28.1,6.5,65.8-3.3,81.7-28.6
			c23.9-38,10.7-95.7-4-134.4c-7.7-20.4-20.1-39.7-22.6-61.7c-2.5-22.1,5.7-46.5,14.6-66.3C153.6,103.7,50.6,103.7,50.6,103.7z"/>
		<path d="M50.6,103.5c1.1,0.2,1.5,1.1,2.1,1.8c0.5,0.8,0.9,1.6,1.3,2.4c0.8,1.6,1.6,3.3,2.3,4.9c1.4,3.3,2.6,6.7,3.9,10.1
			c2.4,6.8,4.8,13.6,6.4,20.7c1.6,7.1,2.6,14.3,2.4,21.6c0,7.3-1.5,14.6-3.8,21.5c-4.6,13.8-12.1,26.3-16.7,39.8
			c-4.9,13.5-9,27.2-12.1,41.2c-3.1,14-5,28.2-5,42.5c-0.1,7.1,0.5,14.3,1.6,21.3c1,7.1,2.7,14,5.2,20.7c2.5,6.7,5.7,13.1,9.7,19
			c2,2.9,4.2,5.8,6.8,8.2c2.6,2.5,5.4,4.6,8.4,6.5c6.1,3.8,12.7,6.6,19.7,8.3c6.9,1.7,14.1,2.3,21.3,2.1
			c14.2-0.5,28.5-4.2,40.8-11.4c6.1-3.6,11.7-8.2,16.1-13.7c2.2-2.7,4.2-5.7,5.8-8.9c0.8-1.6,1.8-3.1,2.4-4.7l2-4.9
			c0.7-1.6,1.2-3.3,1.7-5c0.5-1.7,1-3.4,1.5-5.1l1.1-5.2c0.4-1.7,0.7-3.5,0.9-5.3l0.6-5.3c0.2-1.8,0.2-3.6,0.3-5.3
			c0.3-3.6,0.2-7.1,0.1-10.7c-0.3-14.3-2.6-28.4-6-42.3c-3.3-13.9-7.8-27.6-13.1-40.8c-5.4-13.2-12.3-25.9-16.8-39.8
			c-2.3-6.9-3.8-14.2-4.2-21.5c-0.4-7.3,0.3-14.7,1.6-21.8c2.7-14.3,7.8-28,13.9-41.1l1,1.6l-51.5-0.4l-51.5-0.6V103.5z M50.6,103.5
			l51.5-0.6l51.5-0.4l1.7,0l-0.7,1.6c-5.8,13.1-10.6,26.7-13.1,40.7c-1.2,7-1.7,14.1-1.4,21.1c0.5,7,1.9,14,4.1,20.7
			c4.4,13.5,11.3,26.2,16.8,39.6c5.4,13.4,9.8,27.2,13.1,41.3c3.3,14.1,5.6,28.5,5.8,43c0,3.6,0.1,7.3-0.3,10.9
			c-0.1,1.8-0.2,3.6-0.4,5.4l-0.7,5.4c-0.2,1.8-0.5,3.6-1,5.4l-1.2,5.3c-0.5,1.8-1.1,3.5-1.6,5.2c-0.5,1.7-1,3.5-1.8,5.1l-2.1,5
			c-0.7,1.7-1.7,3.2-2.6,4.8c-1.7,3.2-3.8,6.3-6.1,9.1c-4.7,5.6-10.5,10.2-16.8,13.9c-12.6,7.2-27.1,10.8-41.6,11.2
			c-14.5,0.4-29.1-3.1-41.5-10.7c-3.1-1.9-6-4.1-8.7-6.6c-2.7-2.5-4.9-5.4-7-8.4c-4.1-5.9-7.6-12.4-10.2-19.2
			c-2.6-6.8-4.5-13.8-5.6-21c-1.2-7.1-1.9-14.4-2-21.6c-0.3-14.5,1.6-29,4.7-43.1c3-14.1,7.4-27.9,12.4-41.5
			c4.8-13.7,12.3-26.2,17-39.6c5.1-13.4,5-28.1,2-42c-1.5-7-3.6-13.8-5.8-20.7c-1.1-3.4-2.3-6.8-3.6-10.2c-0.6-1.7-1.3-3.3-2.1-4.9
			c-0.4-0.8-0.8-1.6-1.3-2.4c-0.5-0.7-1-1.6-1.7-1.7V103.5z"/>
	</g>
	<path d="M78.2,153.9c-3.1-19.4-6.2-39-8.9-58.7c-2.9-19.7-5.5-39.4-7.9-59.2l0.3,0.5c-9.9-6-19.8-12-29.8-17.9
		c-10-5.9-20-11.7-30.1-17.5L0,0.2l2,0L14.1,0l0.2,0l0.2,0.1c18.4,10.5,36.7,21.1,54.9,31.8l0.5,0.3l0.1,0.6l4,30
		c1.3,10,2.6,20,3.8,30c2.4,20.1,5,40.1,7.1,60.1l0,0.1l-0.1,0.1c-0.9,0.9-2,1.5-3.2,1.7C80.4,155.1,79.2,154.7,78.2,153.9z
		 M78.4,153.8c0.9,0.6,2.1,1,3.2,0.7c1.1-0.2,2.1-0.9,2.9-1.7l-0.1,0.2c-3.1-20-5.8-40-8.7-59.9c-1.5-10-2.8-20-4.1-30l-3.9-30
		l0.6,0.9C50,23.1,31.9,12.2,13.8,1.3l0.3,0.1L2,1.2l0.3-1c9.9,6,19.9,11.9,29.9,17.8c10,5.9,20,11.6,30.1,17.4l0.3,0.2l0.1,0.3
		c3,19.6,5.8,39.1,8.3,58.7C73.6,114.2,76,133.9,78.4,153.8z"/>
	<path class="st11" d="M69.4,177.9c-0.4,2.2-0.8,4.3-1.4,6.4c-3.1,12.2-8.4,23.7-13.1,35.3c-15.5,37.7-25.9,80-14.6,119.1
		c3.6,12.4,9.5,24.5,19.3,33.1c13.2,11.6,32,15.2,49.5,13.7c18.3-1.6,36.9-8.7,48.5-23c9.4-11.4,13.5-26.3,14.9-41
		c3.3-33.3-6-66.6-19.1-97.4c-8.4-19.6-18.6-39.7-17.4-61c0.2-2.7,2.1-9.5,0.3-11.7c-1.6-1.9-6.6-0.6-8.8-0.9
		c-7.5-1.1-14.2-5.3-21.8-6.1c-12.8-1.3-26.3,8-38,2.6C71.2,156.9,71.2,167.6,69.4,177.9z"/>
	<g>
		<path class="st0" d="M95.1,396.5c0,0,4.2,42-7.9,52.2c0,0-22.1,19.2-46.5,32.3v2.6h124.1v-3.4c0,0-46.3-24.2-51.3-36.3
			s-3.9-47.6-3.9-47.6L95.1,396.5z"/>
		<path d="M95.2,396.6c1.2,9,1.6,18.4,1,27.7c-0.3,4.6-0.9,9.3-2.1,13.9c-0.6,2.3-1.4,4.5-2.6,6.7c-1.1,2.1-2.9,4.2-4.6,5.7
			c-7.1,6-14.4,11.7-22.1,17c-7.6,5.3-15.6,10.1-23.8,14.4l0.5-0.8l-0.1,2.6l-0.9-0.9c10.3,0.2,20.7,0.3,31,0.4
			c10.3,0,20.7,0,31-0.2c20.7-0.4,41.4-0.7,62-0.8l-1.5,1.5l0-3.4l0.8,1.3c-8.3-4.3-16.4-8.9-24.3-13.8c-3.9-2.5-7.9-5-11.7-7.8
			c-3.8-2.7-7.6-5.5-11-8.9c-0.9-0.8-1.7-1.7-2.4-2.7c-0.8-0.9-1.5-2-2.1-3.2c-1.2-2.3-1.6-4.6-2.1-7c-0.9-4.7-1.3-9.3-1.6-14
			c-0.4-9.3-0.4-18.6,0.1-27.9l0.6,0.6L95.2,396.6z M95,396.4l14.6-0.6c0.3,0,0.6,0.2,0.6,0.5l0,0l0,0c0.1,9.3,0.3,18.5,1.1,27.7
			c0.4,4.6,0.9,9.2,1.8,13.6c0.5,2.2,1,4.4,2,6.3c0.5,0.9,1,1.8,1.8,2.6c0.7,0.8,1.4,1.7,2.3,2.4c6.6,6.2,14.5,11.2,22.2,16.1
			c7.9,4.8,15.9,9.5,24,13.8l0,0c0.5,0.3,0.8,0.8,0.8,1.3l0,3.4l0,0c0,0.8-0.7,1.5-1.5,1.5c-20.7-0.1-41.4-0.4-62-0.8
			c-10.3-0.2-20.7-0.2-31-0.2c-10.3,0.1-20.7,0.2-31,0.4c-0.5,0-0.9-0.4-0.9-0.8l0,0l0,0l-0.1-2.6c0-0.3,0.2-0.6,0.5-0.8l0,0
			c8-4.5,15.7-9.6,23.2-14.9c7.5-5.3,14.9-10.9,22-16.7c3.5-2.7,5.3-6.8,6.6-11.1c1.3-4.3,2.1-8.8,2.5-13.4
			C95.3,414.9,95.3,405.8,95,396.4z"/>
	</g>
</g>
</svg>
