<?xml version="1.0" encoding="utf-8"?>
<!-- Generator: Adobe Illustrator 25.2.1, SVG Export Plug-In . SVG Version: 6.00 Build 0)  -->
<svg version="1.1" id="Layer_1" xmlns="http://www.w3.org/2000/svg" xmlns:xlink="http://www.w3.org/1999/xlink" x="0px" y="0px"
	 viewBox="0 0 180 373.1" style="enable-background:new 0 0 180 373.1;" xml:space="preserve">
<style type="text/css">
	.st0{fill:#EFEFF0;}
	.st1{fill:#F3E96D;}
	.st2{fill:#E9E9EA;}
	.st3{fill:none;}
	.st4{fill:#B4C835;}
	.st5{fill:#DBE8F2;}
	.st6{fill:#6FCCD7;}
	.st7{fill:#F1F2F2;}
	.st8{fill:#FFFFFF;}
	.st9{fill:#663725;}
	.st10{fill:#2B1010;}
	.st11{fill:#F26622;}
	.st12{fill:none;stroke:#000000;stroke-miterlimit:10;}
	.st13{fill:#EFEFF0;stroke:#000000;stroke-width:0.75;stroke-miterlimit:10;}
	.st14{fill:#CD2A5B;}
	.st15{fill:#CE2C42;}
	.st16{fill:#E47925;}
	.st17{opacity:0.32;}
	.st18{fill:#77CCE7;}
	.st19{fill:#8C8582;}
	.st20{fill:#F7F4B2;}
	.st21{fill:#F37868;}
	.st22{fill:#FCDCD9;}
	.st23{fill:#EF453C;}
	.st24{fill:#2B141D;}
	.st25{fill:#2D131D;}
	.st26{opacity:0.75;}
	.st27{fill:#CDDCF1;}
	.st28{opacity:0.96;}
</style>
<g>
	<g>
		<path d="M98.2,244l9-0.5l-0.2,0.2c-1.7-27.7-3-55.4-4.4-83.1l-2.2-41.5l-1.9-41.6l-1.9-41.6l-0.9-20.8l-0.2-5.2
			c0-1.7-0.3-3.4-1.1-4.9c-1.6-3-5-4.8-8.4-4.5L2.8,2l0.5-0.5l0.2,9.1l-0.5-0.5l79.3-1.4c0.7,0,1.9,0,2.7,0.4
			c0.9,0.4,1.7,1.1,2.2,1.9c0.5,0.8,0.7,2,0.7,2.7l0.1,2.5l0.5,9.9l1,19.8l1.9,39.5c1.3,26.3,2.4,52.7,3.5,79.2L98.2,244z
			 M98.1,244.1l-4.2-79c-1.4-26.4-2.9-52.8-4.1-79.3l-1.9-39.7l-0.9-19.9l-0.5-9.9l-0.1-2.5c0-0.9-0.1-1.4-0.5-2
			c-0.3-0.6-0.9-1.1-1.5-1.3c-0.6-0.3-1.2-0.3-2.1-0.3L2.9,11.1l-0.5,0l0-0.5L2.3,1.6l0-0.5l0.5,0l83.2-1c3.5-0.4,7.3,1.5,9,4.7
			c0.9,1.5,1.3,3.4,1.3,5.1l0.3,5.2l1.1,20.8l2.2,41.5l2.2,41.5l1.9,41.6c1.2,27.7,2.6,55.4,3.6,83.1l0,0.2l-0.2,0L98.1,244.1z"/>
	</g>
	<g>
		<path class="st3" d="M95.4,244.1l9.1-0.4L93.1,8.8c-0.3-4.6-3.9-8.2-8.4-8.5c-0.1,0-0.2,0-0.4,0L0,1.6l0.1,9.1l80.1-1.2
			c2.1,0,3.9,1.6,4,3.8L95.4,244.1z"/>
	</g>
	<g>
		<path class="st0" d="M151.3,53.6c-21.5-16.1-44-16.8-55.6-16.7c-11.6-0.1-34.1,0.7-55.6,16.7C7.7,77.9,16,113.4,16,113.4h159.6
			C175.5,113.4,183.8,77.9,151.3,53.6z"/>
		<path d="M151.2,53.7c-6.3-4.6-13.1-8.3-20.4-11c-3.7-1.3-7.4-2.3-11.2-3.1c-3.8-0.8-7.6-1.3-11.5-1.6c-3.8-0.3-7.7-0.4-11.6-0.3
			c-3.9,0-7.7,0.1-11.6,0.4c-3.8,0.3-7.6,0.9-11.4,1.7c-3.8,0.8-7.5,1.7-11.1,3c-14.4,5-27.9,13.9-36.8,26.4
			c-8.8,12.6-12.2,29-9.4,44.1L16,113c26.6-0.2,53.2-0.6,79.8-0.7c13.3-0.1,26.6-0.1,39.9-0.1c13.3,0,26.6,0,39.9,0.2l-0.9,0.7
			c1.1-5.4,1.3-11.1,0.8-16.6c-0.5-5.6-1.7-11.1-3.8-16.3c-2.1-5.2-4.7-10.3-8.3-14.6c-1.6-2.3-3.7-4.2-5.6-6.3
			C155.6,57.3,153.4,55.6,151.2,53.7z M151.4,53.5c2.2,1.8,4.5,3.5,6.5,5.5c2,2,4.1,4,5.8,6.3c3.7,4.4,6.5,9.3,8.8,14.6
			c2.3,5.2,3.7,10.8,4.4,16.5c0.7,5.7,0.7,11.4-0.4,17.2l-0.1,0.7l-0.8,0c-13.3,0.2-26.6,0.2-39.9,0.2c-13.3,0.1-26.6,0-39.9-0.1
			c-26.6-0.1-53.2-0.4-79.8-0.7l-0.3,0l-0.1-0.3c-1.4-7.7-1.1-15.6,0.5-23.3c1.5-7.6,4.6-15,8.9-21.5c4.3-6.5,10-12.1,16.3-16.8
			C47.6,47.3,54.6,43.6,62,41c7.4-2.7,15.2-4.1,23-4.7c3.9-0.3,7.8-0.3,11.7-0.2c3.9,0.1,7.8,0.3,11.7,0.7
			C123.9,38.5,138.9,44.2,151.4,53.5z"/>
	</g>
	<g>
		<path class="st0" d="M178.2,105.4H109H82.5H13.3c0,0-3.7,2.5,0,14.2c3.7,11.7,25.3,129,30.9,154.9c5.6,25.9,0,81.5,0,87.6
			s2.5,9.9,27.2,9.9c1.5,0,3,0,4.4,0c22.6,0,40,0,40,0c1.5,0,2.9,0,4.4,0c24.7,0,27.2-3.7,27.2-9.9s-5.6-61.7,0-87.6
			c5.6-25.9,27.2-143.2,30.9-154.9C181.9,107.9,178.2,105.4,178.2,105.4z"/>
		<path d="M178.2,105.5l-41.3,0.4l-41.2,0.2l-82.4,0.3l0.5-0.2c-0.2,0.2-0.7,0.9-0.9,1.6c-0.2,0.7-0.3,1.5-0.4,2.2
			c-0.1,1.5,0.1,3.1,0.4,4.7c0.3,1.6,0.7,3.1,1.2,4.7c0.4,1.6,0.9,3.3,1.2,4.9c1.5,6.5,2.7,13,4,19.4l7.5,38.9
			c4.9,26,9.7,52,14.7,77.9l2,9.7c0.7,3.2,1.3,6.5,1.9,9.8c0.9,6.6,1.3,13.2,1.5,19.8c0.3,13.2-0.1,26.5-0.8,39.7L45,359.4
			c-0.1,1.6-0.2,3.3,0,4.8c0.2,1.5,1,2.8,2.2,3.7c2.5,1.7,5.8,2.3,9,2.7c6.5,0.8,13.1,0.7,19.7,0.6l19.8-0.1l19.8,0
			c6.6,0,13.2,0,19.7-0.8c3.2-0.4,6.5-1,8.9-2.7c1.1-0.8,1.8-2,2-3.4c0.2-1.5,0.1-3.1,0-4.7l-1.3-19.8c-0.7-13.2-1.2-26.5-0.9-39.7
			c0.2-6.6,0.5-13.3,1.4-19.9c0.5-3.3,1.1-6.6,1.8-9.8l2-9.7l15.4-77.8l7.9-38.9c1.4-6.5,2.7-12.9,4.3-19.4c0.4-1.6,0.8-3.2,1.3-4.8
			c0.5-1.6,1-3.1,1.3-4.8c0.3-1.6,0.5-3.2,0.5-4.9C179.6,108.4,179.3,106.6,178.2,105.5z M178.2,105.3c1.4,1.2,1.6,3,1.8,4.6
			c0.1,1.7-0.1,3.3-0.4,5c-0.3,1.6-0.7,3.2-1.2,4.8c-0.4,1.6-0.8,3.2-1.2,4.8c-1.4,6.4-2.7,12.9-3.9,19.4l-7.5,38.9l-14.6,77.9
			l-1.9,9.7c-0.7,3.3-1.3,6.5-1.8,9.7c-0.9,6.5-1.2,13.1-1.4,19.6c-0.3,13.2,0.2,26.4,1,39.5l1.2,19.8c0.1,1.6,0.2,3.4,0,5.2
			c-0.2,1.8-1.3,3.8-2.9,4.8c-1.5,1.1-3.2,1.7-4.9,2.2c-1.7,0.4-3.3,0.7-5,0.9c-6.7,0.8-13.3,0.7-19.9,0.7l-19.8,0l-19.8-0.1
			c-6.6,0-13.3,0-19.9-0.9c-1.7-0.2-3.3-0.5-5-1c-1.6-0.4-3.3-1.1-4.8-2.1c-1.5-1.1-2.5-2.9-2.7-4.6c-0.2-1.8-0.1-3.5,0-5.1
			l1.4-19.8c0.8-13.2,1.3-26.4,1.1-39.6c-0.2-6.6-0.5-13.2-1.3-19.7c-0.5-3.2-1.1-6.5-1.8-9.7l-1.9-9.7l-15.3-77.8l-7.8-38.9
			c-1.4-6.5-2.7-12.9-4.2-19.4c-0.3-1.6-0.8-3.2-1.2-4.7c-0.5-1.6-1-3.2-1.3-4.9c-0.3-1.7-0.5-3.4-0.5-5.1c0.1-0.9,0.1-1.8,0.4-2.7
			c0.3-0.9,0.6-1.7,1.6-2.6l0.2-0.2l0.3,0l82.4,0.3l41.3,0.2L178.2,105.3z"/>
	</g>
	<path class="st21" d="M168.5,117.7h-61.1H84.1H23c0,0-3.3,2.3,0,13.1c3.3,10.9,22.3,119.5,27.2,143.5c4.9,24,0,75.5,0,81.2
		c0,5.7,2.2,9.1,24,9.1c1.3,0,2.6,0,3.9,0c19.9,0,35.3,0,35.3,0c1.3,0,2.6,0,3.9,0c21.8,0,24-3.4,24-9.1c0-5.7-4.9-57.2,0-81.2
		s24-132.6,27.2-143.5C171.8,120,168.5,117.7,168.5,117.7z"/>
	<path class="st8" d="M148.3,138.5c0.5,5.8,0.2,11.6-0.1,17.3c-0.4,5.7-1,11.4-2.1,17c-1.2,5.6-3,11.1-4,16.8
		c-1,5.6-1.4,11.4-1.6,17.1c-0.1,5.8-0.4,11.5-1,17.2c-0.5,5.7-1.1,11.4-1.9,17.1c-1.9,11.3-4.2,22.5-7.8,33.6l-0.6-0.1
		c-0.5-11.6,0.3-23.1,1.5-34.5c0.7-5.7,1.7-11.3,2.7-17c1-5.6,2.2-11.3,3.6-16.8c1.4-5.6,2.5-11.2,3.1-16.9
		c0.6-5.7,0.3-11.5,0.7-17.2c0.4-5.7,1.4-11.4,2.5-17c1.2-5.6,2.5-11.2,4.5-16.7L148.3,138.5z"/>
</g>
</svg>
