<?xml version="1.0" encoding="utf-8"?>
<!-- Generator: Adobe Illustrator 25.2.1, SVG Export Plug-In . SVG Version: 6.00 Build 0)  -->
<svg version="1.1" id="Layer_1" xmlns="http://www.w3.org/2000/svg" xmlns:xlink="http://www.w3.org/1999/xlink" x="0px" y="0px"
	 viewBox="0 0 180 169.5" style="enable-background:new 0 0 180 169.5;" xml:space="preserve">
<style type="text/css">
	.st0{fill:#1B1B1B;}
	.st1{fill:#FFFFFF;}
	.st2{fill:#292929;}
	.st3{fill:none;stroke:#000000;stroke-width:0.25;}
	.st4{fill:none;stroke:#000000;stroke-width:0.5;stroke-miterlimit:10;}
	.st5{stroke:#000000;stroke-width:0.25;stroke-miterlimit:10;}
	.st6{fill:none;stroke:#000000;stroke-miterlimit:10;}
	.st7{stroke:#000000;stroke-miterlimit:10;}
	.st8{fill:none;stroke:#000000;stroke-width:0.25;stroke-miterlimit:10;}
</style>
<g>
	<g>
		<path d="M100.5,0.6c10.7,1.6,20.9,3.9,31.2,7.2c5.3,1.7,27.3,9,21.2,17.3c-0.1,0.2,0.1,0.4,0.3,0.3c9.5-6.8-6.5-14.9-11.9-17.3
			c-12.5-5.5-27-8.5-40.7-8.1C100.3,0,100.2,0.5,100.5,0.6z"/>
	</g>
	<g>
		<path d="M40.6,13.2C56.2,9,71.9,6.6,88,6.6c17-0.1,33.3,2.9,49.6,7.3c0.2,0.1,0.4-0.3,0.2-0.4c-15-6.6-32.2-8.3-48.4-8.4
			C73.1,5,55.8,7,40.6,13C40.5,13.1,40.5,13.2,40.6,13.2z"/>
	</g>
	<g>
		<g>
			<path d="M22.1,110.8c0.2,0,0.3-0.3,0.1-0.4c-5.2-2.5-9.8-4.8-12.9-9.9C6,95.1,6,88.9,5.2,82.8c0-0.2-0.3-0.3-0.4-0.1
				C2.3,94,8.7,111,22.1,110.8z"/>
		</g>
		<g>
			<path d="M8.9,49.8c2.4,1.2,4.3,1.3,6.9,0.3c2.5-0.9,4.3-2.5,5.2-4.9c0-0.1-0.1-0.1-0.1-0.1c-2.1,0.5-3.9,1.4-5.9,2.1
				c-2,0.7-4,1.3-6,2.1C8.8,49.4,8.7,49.7,8.9,49.8z"/>
		</g>
		<g>
			<path d="M36.3,113.4c-6.4,2.7-14.2,2-20.4-0.8c-6.8-3-11-8.6-12.7-15.7c-1.9-8.1-1.5-16.8,1.3-24.6c3-8.3,10.6-14.5,16.8-20.5
				c4.9-4.7,9.3-9.3,6.9-16.6c-1.3-3.8-5.5-5.6-9.1-4c-3.6,1.5-6.3,4.9-4.9,8.8c1.3,3.7,5.9,4.7,7.9,1.2c0.1-0.2-0.2-0.6-0.4-0.4
				c-4.2,3.2-7.7-2.4-4.7-5.8c1.9-2.1,5.3-2.9,7.6-1c3.7,3.1,1.5,9.3-1.2,12.1c-2.6,2.6-5.3,5.1-7.9,7.7C10.8,58.3,6.1,63.1,3.2,69
				c-2.6,5.2-3.5,11-3.7,16.7c-0.3,10.2,2.3,20.2,10.6,26.5c7.8,5.9,18.2,6.9,26.5,1.7C37,113.8,36.7,113.3,36.3,113.4z"/>
		</g>
		<g>
			<path d="M11.8,45.7c1.5,0.9,3.4,0.8,4.1-1c0.1-0.1-0.1-0.3-0.2-0.3c-1.1-0.4-2.2-0.5-3.3-1c-1-0.5-1.8-1.3-2.8-1.7
				c-0.2-0.1-0.4,0.1-0.4,0.3C9.4,43.4,10.5,45,11.8,45.7z"/>
		</g>
	</g>
	<g>
		<path d="M23.8,25.4c0.2,0.1,0.4-0.1,0.3-0.3C18,16.7,40.1,9.6,45.3,7.8c10.2-3.5,20.6-5.7,31.2-7.2c0.3,0,0.2-0.5-0.1-0.5
			C63.2-0.3,49.1,2.5,36.9,7.7C31.4,10,13.9,18.3,23.8,25.4z"/>
	</g>
	<g>
		<g>
			<path d="M156.9,45.1c-0.1,0-0.1,0-0.1,0.1c0.9,2.4,2.5,3.8,4.8,4.8c2.6,1.2,4.7,1.1,7.2-0.2c0.2-0.1,0.1-0.4-0.1-0.5
				c-2-0.8-3.9-1.4-6-2.1C160.8,46.6,158.9,45.6,156.9,45.1z"/>
		</g>
		<g>
			<path d="M167.5,100.9c6.4-6.8,8.4-18.8,3.9-27.2c-0.1-0.3-0.5-0.1-0.4,0.2c1.6,9.7,0,17.8-3.8,26.7
				C167.1,100.9,167.3,101.1,167.5,100.9z"/>
		</g>
		<g>
			<path d="M179.3,80.1c-1.2-10.6-9.2-20.9-17.6-27c-5.8-4.2-15.8-9-11.6-17.8c1.5-3.2,5.1-2.5,7.5-1c4.6,2.8,1.1,10.2-3.7,6.7
				c-0.2-0.2-0.5,0.2-0.4,0.4c2,3.5,6.6,2.5,7.9-1.2c1.4-3.9-1.3-7.3-4.9-8.8c-3.6-1.5-7.8,0.2-9.1,4c-2.1,6.4,0.9,11.4,6,15.1
				c3.2,2.4,6.6,4.4,9.7,7c3.6,2.9,6.4,6.9,8.9,10.8c4.1,6.4,5.7,13.2,4.4,20.7c-1.2,6.9-3.6,13.7-8.5,18.8
				c-5.4,5.6-13.9,7.3-21.4,6c-0.4-0.1-0.6,0.5-0.2,0.6c9.8,3.2,18.8,1,25.4-7.1C177.4,100.1,180.3,89.1,179.3,80.1z"/>
		</g>
		<g>
			<path d="M165.7,45.8c1.4-0.7,2.7-2.3,2.9-3.9c0-0.2-0.2-0.4-0.4-0.3c-1,0.4-1.8,1.3-2.8,1.7c-1.1,0.5-2.2,0.6-3.3,1
				c-0.1,0-0.2,0.2-0.2,0.3C162.5,46.4,164.2,46.5,165.7,45.8z"/>
		</g>
	</g>
	<g>
		<g>
			<path d="M27.7,148.2c4.9,6,16.3,5.7,22.3,2c0.3-0.2,0.2-0.6-0.2-0.6c-3.7,0.3-7.3,1-10.9,1c-4,0-7.4-1.5-11.1-2.6
				C27.7,148,27.6,148.1,27.7,148.2z"/>
		</g>
		<g>
			<path d="M132.5,151.9c5.5,2.2,15.1,1.7,17.5-4.7c0.1-0.3-0.3-0.5-0.5-0.3c-5,4.4-10.7,4.5-17,4.7
				C132.3,151.6,132.3,151.8,132.5,151.9z"/>
		</g>
		<g>
			<path d="M71.6,153.2c-6.1,1.6-12,3.2-14.8,9.4c-0.1,0.2,0.1,0.5,0.3,0.4c5.6-1.8,9.6-6.4,14.7-9.2
				C72.2,153.6,71.9,153.1,71.6,153.2z"/>
		</g>
		<g>
			<path d="M106.5,153.2c-0.4-0.1-0.6,0.4-0.3,0.6c5.1,2.8,9.1,7.4,14.7,9.2c0.3,0.1,0.4-0.2,0.3-0.4
				C118.5,156.5,112.5,154.8,106.5,153.2z"/>
		</g>
		<g>
			<path d="M149,121.2c-0.2-0.1-0.5,0.2-0.3,0.3c6.3,5.9,7.2,14.6,5.1,22.7c-1.9,7.5-8.4,10.7-15.6,11c-8.3,0.4-16.2-2.9-23.9-5.4
				c-5.4-1.8-12.7-4.1-18.2-1.6c-4.5,2.1-8,6.9-7.1,12c0.7,4.2,3.8,8.8,8.4,9.2c4.1,0.3,8.7-2.1,9-6.6c0.2-3.6-2-7.2-6-6.4
				c-0.7,0.1-0.6,1-0.2,1.3c3,2.1,4.9,5.3,1.1,8.1c-4,2.9-8.2-1.7-9.3-5.2c-1.4-4.6,2.3-8.9,6.4-10.2c3.3-1.1,7.2-0.1,10.4,0.7
				c10.6,2.5,21,8.3,32.2,6.6c8.1-1.2,13.6-6.1,15.5-14.2C158.2,136,156.9,124.8,149,121.2z"/>
		</g>
		<g>
			<path d="M162.9,127.3c-1.9-4-4.8-6.2-9-7.3c-0.4-0.1-0.7,0.4-0.4,0.7c2.2,2,4.6,4.2,6.1,6.7c1.6,2.7,2,6.7,2.3,9.8
				c0,0.3,0.5,0.5,0.6,0.2C164.2,133.8,164.6,130.8,162.9,127.3z"/>
		</g>
		<g>
			<path d="M23.5,120.6c0.3-0.3,0-0.8-0.4-0.7c-4,1-6.6,3-8.6,6.6c-2.1,3.7-1.7,7.1-0.1,10.7c0.2,0.3,0.6,0.1,0.6-0.2
				c0.3-2.9,0.8-6.4,2-9.1C18.3,125.2,21.2,122.7,23.5,120.6z"/>
		</g>
		<g>
			<path d="M80.8,148.2c-5.6-2.6-12.8-0.1-18.2,1.6c-7.9,2.5-15.4,5.5-23.9,5.4c-7.4,0-13.4-3.8-15.6-11c-2.4-7.9-0.9-16.9,5.1-22.7
				c0.2-0.2-0.1-0.4-0.3-0.3c-8.2,3.7-8.9,14.7-7.6,22.3c1.4,8.1,7.6,13,15.5,14.2c11.1,1.7,21.8-3.8,32.2-6.6
				c6.8-1.8,16.1-1.6,16.9,7.5c0.3,4-2.9,7.7-6.8,7.9c-2.8,0.2-4.8-2.2-5-4.7c-0.1-2.2,1.9-3.1,3.3-4.1c0.5-0.3,0.5-1.2-0.2-1.3
				c-4-0.9-6.2,2.7-6,6.4c0.3,4.5,4.9,6.9,8.9,6.6c4.7-0.4,7.7-5,8.4-9.2C88.7,155.1,85.2,150.3,80.8,148.2z"/>
		</g>
	</g>
	<g>
		<path d="M113.7,24c-1.2-0.3-1.8,1.7-2.2,3.5c-0.2,0.7-0.3,1.4-0.4,1.9c-0.1,0.3-0.2,1.2-0.3,1.2c-0.8,4-0.2,5,0.4,5.2
			c0.9,0.2,1.3-1.3,1.4-1.7c0.6-2.3,1.2-5,1.9-8.5C114.7,24.6,114.3,24.2,113.7,24z"/>
		<path d="M61.4,27.2c-0.1-0.4-0.3-1.3-0.3-1.3c0-0.1-0.3-1-0.4-1.2c-0.2-0.4-0.5-0.7-1-0.6c-0.5,0.1-0.7,0.5-0.6,1
			c0,0.2,0.1,1.3,0.2,1.5c0.1,0.3,0.4,1.7,0.5,2c0.1,0.5,0.5,1.9,0.5,1.9c0.1,0.2,0.3,1.2,0.4,1.4c0,0.1,0.1,0.4,0.1,0.3
			c0.5-0.1,1.1-0.3,1.6-0.4c0,0,0.1,0,0.1-0.1c0,0-0.4-2-0.6-2.8C61.8,28.8,61.5,27.7,61.4,27.2z"/>
		<path d="M145.6,19.9c-7.6-4.7-16.7-7-25.4-8.7c-10.3-2-20.9-2.8-31.4-2.7c-18.7,0.1-39.9,1.8-57.2,10.1c-2.5,1.2-3.7,2.9-1,5.3
			c1.1,1,2.3,1.9,3.3,2.9c2.4,2.2,4.6,4.5,7.1,6.6c-1.2,2.5-2.2,5.1-3.1,7.7C37,43.5,36,46,35.1,48.4c-1.5,4.3-0.5,4.8,3.4,4.1
			c32.8-5.3,66.4-8.6,99-0.8c3.4,0.8,4.4,0.4,3-3.9c-1.6-4.9-3.6-9.7-5.8-14.3c1.9-1.7,3.7-3.5,5.8-5.1c1.8-1.4,4-2.8,5.8-4.4
			C148.8,22,148.2,21.6,145.6,19.9z M56.9,39C56.8,39,56.8,39,56.9,39c-0.1,0-0.2,0-0.2,0.1c-0.3,0.1-0.5,0-0.6-0.3
			c-0.5-1.8-1-3.6-1.6-5.5c-0.1,0-1.5,0.5-1.5,0.5c0,0,0,0-0.1,0.1c0.6,1.7,1.1,3.5,1.7,5.3c0,0.4-0.5,0.6-0.9,0.8
			c-0.3,0.1-0.8,0.4-1,0c-1.5-4.5-3-9-4.5-13.6c-0.1-0.3,0-0.7,0.4-0.9c0.9-0.3,1.7-0.6,1.8-0.1c0.7,2.1,1.3,4.2,2,6.2
			c0,0.1,0,0.2,0.2,0.1c0.2-0.1,1-0.3,1.3-0.5c-0.6-2.1-1.3-4.3-1.9-6.4c-0.2-0.6,0.6-0.9,1.2-1.1c0,0,0.1,0,0.1,0c0,0,0,0,0.1,0
			c0.3-0.1,0.9-0.3,1.1,0.1c1.2,4.8,2.5,9.6,3.8,14.4C58.3,38.6,57.3,38.8,56.9,39z M65.6,37.2C65.6,37.2,65.5,37.2,65.6,37.2
			c-0.3,0-1.1,0.2-1.2,0.2c-0.4,0-0.5-0.3-0.6-0.6c-0.3-1-0.5-2-0.8-3c-0.5,0.1-1.1,0.3-1.6,0.4c0.2,0.9,0.5,2.1,0.8,2.9
			c0,0.1,0.1,0.5,0.1,0.6c0,0.1-0.1,0.3-0.3,0.3c-0.4,0.1-0.8,0.3-1.2,0.4c-0.1,0-0.3,0.1-0.4,0.1c-0.1,0-0.3-0.1-0.3-0.2
			c-1.1-4.1-2.2-8.3-3.3-12.4c-0.4-2.5,0.9-3.5,2.5-3.9c3.2-0.8,3.7,1.9,4.2,4.2c0,0.2,0.1,0.5,0.1,0.7c0.4,1.7,1,4.6,2.3,9.7
			c0,0,0,0,0,0.1C66,36.9,65.8,37.1,65.6,37.2z M70.2,36.4c-0.5,0.1-0.8-0.2-1-0.6c-1.8-4.6-3.7-9.2-5.7-13.8c0,0,0-0.1-0.1-0.1
			c-0.1-0.5,0.3-0.6,0.7-0.7c1.4-0.3,1.7-0.3,2,0.5c1.1,3.1,2.2,6.1,3.2,9.2c-0.1-3.3-0.1-6.6-0.1-9.8c0-0.7,0.5-1,1.3-1.1
			c0.4-0.1,1.2-0.2,1.3,0.3C71,32.2,71.9,36.1,70.2,36.4z M76.9,35.4c-0.3,0-0.7,0.1-1,0.1c-0.5,0.1-0.6-0.6-0.7-1c0,0,0,0,0,0
			c0,0,0-0.1,0-0.1c-0.1-1.3-1.4-11.7-1.5-14.5c0-0.1,0.1-0.2,0.2-0.3c0.1,0,0.8-0.2,0.9-0.2c0,0,0.4,0,0.5,0c0.1,0,0.2,0,0.2,0
			c0.2,0,0.4,0.1,0.4,0.3c0.4,5.2,0.8,10.3,1.3,15.5C77.2,35.2,77.1,35.4,76.9,35.4z M85.2,34.1c0,0.8-0.9,0.8-1.3,0.8
			c-0.7,0-1.2-4-3.6-10c0.3,3.3,0.5,6.5,0.8,9.8c0,0.5-1,0.5-1.2,0.5c0,0,0,0,0,0c-0.4,0-0.8,0-0.8-0.4c-0.5-4.9-0.9-9.9-1.4-14.8
			c-0.1-0.7,0.2-0.7,1.2-0.8c0.1,0,0.1,0,0.1,0c1.3-0.1,1.5-0.1,1.8,0.6c0.8,2.5,1.6,5.1,2.4,7.6c-0.1-2.6-0.2-5.1-0.3-7.7
			c0-0.9,2-1,2.5-0.3C85.2,24.3,85.2,29.2,85.2,34.1z M93.2,22.5c0,0.8,0,1.3-1,1.3c-1,0-1.3-0.1-1.3-1.1c0-0.2,0-0.4,0-0.6
			c0-0.6,0-1.1-0.5-1.1c-1.4,0-1.5,4.3-1.5,4.9c0,1.9,0.1,6.4,1.1,6.4c0,0,0,0,0.1,0c0,0,0,0,0,0c0.5,0,0.6-1.2,0.7-2.7
			c0-0.5,0-0.9,0-1.2c0,0,0,0,0,0c-0.2,0-0.8,0-0.8-0.3c0-0.7-0.2-1.8,0.9-1.8c1,0,2,0,2,0.8c0,0.3-0.1,2.2-0.2,3.1c0,0,0,0.1,0,0.1
			c-0.1,1.3-0.3,4.7-2.9,4.6c-2-0.1-2.6-3.2-2.8-4.1c-0.2-1.5-0.4-2.9-0.4-4.4c0-2.2,0-5.2,2.1-6.9c0.6-0.5,1.4-0.8,2.3-0.7
			C93.4,18.9,93.3,21,93.2,22.5z M105,30.6c-0.3,1.7-0.6,3.4-1,5.3c-0.2,0.5-0.6,0.5-1,0.5c0,0,0,0,0,0c-0.3-0.1-1.2-0.2-1.2-0.5
			c0-0.2,0-0.4,0-0.6c0.3-1.7,0.6-3.3,0.8-5c0,0,0,0,0,0c0,0,0,0,0,0c-0.5-0.6-2.3-0.6-1.4-7.7c0.1-0.7,0.2-1.4,0.3-2.3
			c0.1-0.3,0.6-0.3,1-0.2c0.6,0.1,1.5,0.1,1.5,0.6c-0.2,1.5-0.5,2.7-0.8,4.3c-0.2,1.5-0.2,3.4,0.8,3.6c1.1,0.2,1.4-1,2.3-6.2
			c0.1-0.4,0.2-0.8,0.2-1.2c0-0.5,1.3-0.3,2.1-0.2c0.2,0,0.4,0.1,0.4,0.3c0,0.2,0,0.4,0,0.6C107.8,27.5,107.5,30,105,30.6z
			 M110.8,37.6c-2.5-0.6-2.5-2.9-2.3-5.5c0.4-1.7,0.4-3.2,0.8-4.8c0.3-1.5,1-3.5,1.8-4.3c1-0.9,1.8-1.1,3.5-0.7
			c1.6,0.4,2.4,1.8,2,3.9c-0.5,2.2-0.9,4.6-1.5,6.6C114.2,36,113.1,38.2,110.8,37.6z M125.4,27.4c-0.1,0.2-0.1,0.3-0.2,0.5
			c-1,2.9-2.1,5.7-3.4,9c-0.6,1.5-1.7,3.8-3.8,3.1c-2.2-0.7-2.1-3.4-1.8-5.2c0.1-0.4,0.7-2.8,0.8-3.1c0.4-1.5,0.9-3,1.1-3.7
			c0.2-0.6,0.4-1.4,0.6-2.1c0.7-2.3,0.5-1.7,1.1-2c0.9,0.3,2,0.5,1.8,1.3c-0.5,1.4-0.9,2.7-1.2,3.8c-2.6,8.1-2.2,8.6-1.8,8.7
			c0.5,0.2,0.9-0.7,1.4-2.3c0.1-0.2,0.1-0.4,0.2-0.6c0.7-2.2,2-6.1,2.9-9.3c0.1-0.5,0.7-0.4,1.3-0.2C126,25.7,125.9,26,125.4,27.4z"
			/>
	</g>
	<g>
		<g>
			<path d="M44,62.4c0,0,0.1-2.3,1-4c0.1-5.2,3.4-5.1,3.4-5.1s2.1-0.2,2.8,4c0.7,4.2,0.3,11.6-2.8,12.3C43.3,70.8,44,62.4,44,62.4z
				 M44.8,62.8c0-0.1-0.1-0.1-0.1-0.1c-0.1,0-0.2,0.1-0.3,0.2c0,0.1,0,0.2,0,0.2c0.1,0.1,0.1,0.1,0.2,0.1c0,0,0.1,0,0.1,0
				c0,0,0,0,0.1,0C44.8,63,44.9,62.9,44.8,62.8z M45,61.9c0.1-0.1,0.1-0.2,0.1-0.2c0-0.1-0.1-0.1-0.1-0.1c-0.1,0-0.2,0.1-0.2,0.2
				c0,0.1,0,0.1,0,0.2c0,0,0.1,0,0.1,0C44.9,61.9,44.9,61.9,45,61.9C45,61.9,45,61.9,45,61.9z M45.4,63.6
				C45.4,63.6,45.4,63.6,45.4,63.6c0-0.2,0-0.3-0.1-0.3c-0.1,0-0.1,0-0.2,0c-0.1,0-0.1,0.2-0.1,0.3c0,0.1,0.1,0.1,0.1,0.1
				C45.3,63.8,45.3,63.7,45.4,63.6z M45.6,64.7C45.6,64.7,45.7,64.7,45.6,64.7c0.2-0.2,0.2-0.4,0.1-0.5c-0.1-0.1-0.2-0.1-0.3-0.1
				c-0.1,0-0.2,0.1-0.2,0.2c0,0.1,0,0.2,0,0.3C45.3,64.7,45.6,64.7,45.6,64.7z M45.3,62.4c0,0.1,0.1,0.1,0.1,0.1c0,0,0,0,0,0
				c0.1,0,0.2-0.1,0.2-0.1c0,0,0,0,0,0c0-0.2,0-0.3-0.1-0.3c0,0-0.1,0-0.2,0C45.3,62.1,45.3,62.3,45.3,62.4z M46.3,66.5
				c0.3,1.3,0.9,2.5,2.1,2.3c0.8-0.1,2-1.4,2.3-5c-2.4,0.7-3.8-0.1-4.6-1.3v0C46.1,62.5,45.9,64.8,46.3,66.5z M46.3,58.3
				c0,5.8,3.5,4.9,4.5,4.6c0-0.7,0.1-1.5,0-2.3c-0.2-6.5-2.3-6.3-2.3-6.3S46.3,54,46.3,58.3z"/>
			<path d="M47.6,70c-0.8,0-1.5-0.3-2.1-0.8c-2.1-1.9-1.8-6.6-1.7-6.9c0-0.2,0.2-2.3,1-4c0-2,0.5-3.5,1.5-4.4c1-1,2.2-0.9,2.2-0.9
				c0.1,0,2.4-0.2,3.1,4.2c0.7,3.9,0.5,11.9-3,12.7C48.2,70,47.9,70,47.6,70z M44.3,63.5c0,1.5,0.2,4.2,1.6,5.4
				c0.7,0.6,1.5,0.7,2.6,0.5c2.7-0.6,3.3-7.5,2.6-12c-0.6-3.8-2.4-3.7-2.5-3.7c-0.1,0-1,0-1.8,0.8c-0.8,0.8-1.3,2.2-1.3,4l0,0.1
				c-0.6,1.1-0.8,2.4-0.9,3.1c0,0,0-0.1,0-0.1c0.1-0.3,0.3-0.3,0.4-0.4l0.1,0c0.2,0,0.3,0.1,0.4,0.2l0,0l0,0.2c0,0,0,0,0,0
				c0.2-0.1,0.4-0.1,0.5,0.1l0-0.2l0.5,0.7c0.9,1.3,2.3,1.7,4.3,1.1l0.4-0.1l0,0.4c-0.3,3.7-1.5,5.2-2.5,5.3
				c-0.8,0.1-1.9-0.2-2.5-2.5c-0.1-0.5-0.2-1.1-0.2-1.6l-0.2,0l0,0c-0.1,0-0.4-0.1-0.6-0.3l0-0.1c-0.1-0.2-0.1-0.3,0-0.4
				c0-0.1,0-0.1,0.1-0.1l0,0c0,0,0,0,0,0c0,0-0.1-0.1-0.2-0.2c0-0.1,0-0.1,0-0.2l-0.1,0C44.5,63.5,44.4,63.5,44.3,63.5z M46.4,63.3
				c0,0.8,0,2.1,0.2,3.2l0,0c0.5,2.3,1.5,2.1,1.8,2.1c0.6-0.1,1.6-1.1,2-4.3C48.4,64.6,47.1,64,46.4,63.3z M45.7,63.8
				C45.7,63.8,45.7,63.8,45.7,63.8c0.1-0.4,0.1-0.8,0.1-1.1c-0.2,0.1-0.6,0.2-0.8-0.2l0,0c0-0.1,0-0.2,0-0.3l-0.1,0
				c-0.1,0-0.2,0-0.3-0.1c-0.1-0.1-0.1-0.2-0.1-0.3c-0.1,0.4-0.1,0.7-0.1,0.7l0,0c0,0,0,0,0,0.1c0.1-0.1,0.2-0.1,0.3-0.1
				c0.1,0,0.3,0,0.4,0.2c0.1,0.1,0.1,0.3,0.1,0.4c0.1,0,0.2,0,0.3,0l0.1,0.1c0.1,0.1,0.2,0.3,0.1,0.5L45.7,63.8z M45.3,63.5
				L45.3,63.5L45.3,63.5C45.3,63.5,45.3,63.5,45.3,63.5L45.3,63.5z M45.4,63.5L45.4,63.5L45.4,63.5L45.4,63.5z M44.5,62.9
				C44.5,62.9,44.5,62.9,44.5,62.9l0.3-0.1L44.5,62.9L44.5,62.9z M44.5,62.9L44.5,62.9C44.5,62.9,44.5,62.9,44.5,62.9L44.5,62.9z
				 M45.6,62.4L45.6,62.4L45.6,62.4z M45.5,62.3l-0.2,0.1L45.5,62.3L45.5,62.3z M45.6,62.3L45.6,62.3L45.6,62.3
				C45.6,62.3,45.6,62.3,45.6,62.3L45.6,62.3z M45.6,62.3C45.6,62.3,45.6,62.3,45.6,62.3L45.6,62.3c0,0,0-0.1-0.1-0.1c0,0,0,0,0,0
				L45.6,62.3z M45.6,62.3L45.6,62.3C45.6,62.3,45.6,62.3,45.6,62.3z M45.6,62.3L45.6,62.3C45.6,62.3,45.6,62.3,45.6,62.3z M45,61.8
				L45,61.8L45,61.8L45,61.8z M45,61.6l0.1,0.2C45,61.8,45,61.7,45,61.6C45,61.6,45,61.6,45,61.6L45,61.6z M44.8,61.6l0.2,0.2v0
				L44.8,61.6C44.8,61.6,44.8,61.6,44.8,61.6z M49.3,63.5c-0.6,0-1.2-0.1-1.7-0.5c-1.1-0.8-1.6-2.3-1.6-4.6c0-1.9,0.4-3.2,1.2-3.9
				c0.7-0.6,1.4-0.5,1.4-0.5c0,0,0.4,0,0.9,0.4c0.7,0.6,1.5,2.2,1.6,6.2c0,0.8,0,1.6,0,2.4l0,0.2l-0.2,0.1
				C50.5,63.3,49.9,63.5,49.3,63.5z M48.5,54.5c-0.2,0-0.5,0-0.9,0.4c-0.4,0.4-1,1.3-1,3.4c0,2.1,0.5,3.5,1.4,4.1
				c0.8,0.6,1.9,0.4,2.5,0.2c0-0.7,0.1-1.4,0-2.1C50.3,54.6,48.6,54.5,48.5,54.5L48.5,54.5C48.5,54.5,48.5,54.5,48.5,54.5z"/>
		</g>
		<g>
			<path d="M58,58.9c-0.6,0-2.5,5.3-3.2,9.7c0,0.5-0.2,1.1-0.8,1.1c-0.7,0-0.9-1.5-0.9-1.5c-0.3-1.8-0.3-5.8-0.3-5.8s0-1.6,0.1-2.9
				c0,0,0.1-2,1.1-2c1.1,0,0.9,2,0.9,2.5c-0.1,0.8-0.1,1.6-0.1,2.6c0,0,0,1,0,2.2c0.7-2.8,2-7.1,3.4-7.3c2.1-0.2,2.2,2.6,2.1,4.5
				c-0.1,1.6-0.1,5.2-0.1,6.2c0,0.8-0.2,1.5-0.8,1.5c-0.5,0.1-1.1-0.4-1.2-2.5C58,64.3,58.7,58.9,58,58.9z M53.5,63.2
				c0-0.1-0.1-0.1-0.1-0.1c-0.1,0-0.1,0.1-0.2,0.1c0,0,0,0,0,0c0,0.2,0.1,0.2,0.1,0.2h0c0.1,0,0.1,0,0.1,0
				C53.5,63.4,53.5,63.3,53.5,63.2z M54.3,62.8c-0.1-0.1-0.1-0.2-0.2-0.2c-0.2-0.1-0.3,0.1-0.4,0.1c0,0,0,0.1,0,0.1
				c0.1,0.2,0.2,0.3,0.3,0.3c0,0,0,0,0.1,0c0.1,0,0.1,0,0.2-0.1C54.3,63,54.3,62.9,54.3,62.8z M54,63.6c-0.1,0-0.2,0-0.2,0
				c-0.1,0.1-0.1,0.2-0.1,0.3v0c0.1,0.2,0.2,0.2,0.3,0.2c0.1,0,0.1-0.1,0.2-0.2C54.1,63.8,54.1,63.6,54,63.6z M58.8,63.6
				c0,0.2,0.1,0.2,0.1,0.3c0,0,0,0,0.1,0c0,0,0.1,0,0.1-0.1c0.1,0,0.1-0.1,0-0.2c0-0.1-0.1-0.1-0.1-0.1
				C58.9,63.4,58.8,63.5,58.8,63.6C58.8,63.6,58.8,63.6,58.8,63.6z M59.2,64.1c0,0.2,0,0.3,0.1,0.3h0c0.1,0,0.1,0,0.2-0.1
				c0.1-0.1,0.1-0.3,0.1-0.3c-0.1-0.1-0.1-0.1-0.2-0.1C59.3,63.8,59.2,64,59.2,64.1C59.2,64.1,59.2,64.1,59.2,64.1z M59.4,63.1
				c0,0.2,0.1,0.3,0.2,0.4c0,0,0,0,0.1,0c0,0,0.1,0,0.1,0c0.1-0.1,0.1-0.2,0.1-0.3c0-0.1-0.1-0.2-0.2-0.2
				C59.5,62.9,59.4,63,59.4,63.1L59.4,63.1z"/>
			<path d="M59.3,70c-0.2,0-0.5-0.1-0.7-0.2c-0.5-0.4-0.7-1.3-0.8-2.6c0-1.1,0-2.4,0.1-3.8c0.1-1.5,0.2-3.5,0-4.1
				c-0.6,0.9-2.2,5.2-2.8,9.3C55,69.9,54.3,70,54,70c-1,0-1.2-1.6-1.2-1.7c-0.3-1.8-0.3-5.7-0.4-5.8c0,0,0-1.6,0.1-2.9
				c0-0.2,0.2-2.3,1.4-2.3c0.3,0,0.5,0.1,0.7,0.3c0.5,0.5,0.5,1.6,0.5,2.5c0,0.5-0.1,0.9-0.1,1.3c0,0.4,0,0.8-0.1,1.2
				c1.6-5.2,2.6-5.3,3-5.3c0.6-0.1,1.1,0.1,1.5,0.5c1,0.9,1,2.8,1,4.3c0,1-0.1,2.6-0.1,4c0,0.9,0,1.7,0,2.1c0,1.5-0.6,1.8-1,1.8
				C59.3,70,59.3,70,59.3,70z M58.5,63.5C58.5,63.5,58.5,63.5,58.5,63.5c-0.1,1.3-0.1,2.7-0.1,3.7c0.1,1.5,0.4,2,0.6,2.1
				c0.1,0.1,0.2,0.1,0.3,0.1c0.5-0.1,0.5-0.9,0.5-1.2c0-0.4,0-1.2,0-2.1c0-0.6,0-1.2,0-1.8c0,0.1-0.1,0.1-0.1,0.2
				c-0.1,0.1-0.2,0.2-0.4,0.2l-0.1,0c-0.1,0-0.3-0.2-0.3-0.6h0L58.7,64c-0.1-0.1-0.2-0.2-0.2-0.5V63.5z M53.1,63.8
				c0,1.3,0.1,3.3,0.3,4.5c0,0.4,0.3,1.2,0.6,1.2c0.3,0,0.4-0.5,0.5-0.9c0.6-3.4,2.4-9.9,3.5-10l0,0c0.1,0,0.2,0.1,0.3,0.1
				c0.4,0.4,0.4,1.6,0.2,4.5h0.2c0.1-0.1,0.2-0.1,0.3-0.1c0,0,0,0,0,0l0-0.2l0.1-0.1c0.2-0.2,0.4-0.3,0.5-0.2c0.1,0,0.2,0,0.2,0.1
				c0-0.3,0-0.5,0-0.7c0-0.8,0.1-3-0.8-3.9c-0.3-0.2-0.6-0.3-1-0.3c-0.3,0-1.4,0.7-3.1,7.1l-0.6,2.3v-4c-0.1,0.1-0.1,0.1-0.2,0.1
				c0.1,0.2,0.2,0.4,0.1,0.6c-0.1,0.2-0.2,0.3-0.3,0.4l-0.1,0c-0.1,0-0.4,0-0.5-0.4l0-0.1c0,0,0,0,0-0.1
				C53.3,63.8,53.2,63.8,53.1,63.8z M59.5,64.2L59.5,64.2L59.5,64.2z M59.8,63.7C59.8,63.8,59.8,63.8,59.8,63.7
				c0.1,0.1,0.1,0.1,0.1,0.1C59.9,63.8,59.9,63.8,59.8,63.7C59.9,63.7,59.8,63.7,59.8,63.7z M54,63.8L54,63.8L54,63.8z M58.9,63.5
				C58.9,63.5,58.9,63.5,58.9,63.5L58.9,63.5z M53.2,63.3L53.2,63.3c0,0.1,0.1,0.1,0.1,0.1L53.2,63.3z M53.2,63.3
				C53.2,63.3,53.2,63.3,53.2,63.3L53.2,63.3L53.2,63.3z M53.4,63.3L53.4,63.3C53.4,63.3,53.4,63.3,53.4,63.3L53.4,63.3z M53.2,63.3
				l0.2,0C53.4,63.2,53.3,63.2,53.2,63.3C53.3,63.2,53.3,63.2,53.2,63.3z M59.5,63.2C59.5,63.2,59.5,63.2,59.5,63.2L59.5,63.2
				C59.5,63.2,59.5,63.2,59.5,63.2z M54,57.9C54,57.9,54,57.9,54,57.9c-0.6,0-0.8,1.4-0.9,1.7c-0.1,1.2-0.1,2.8-0.1,2.8
				c0,0,0,0.2,0,0.4c0.1-0.1,0.2-0.1,0.3-0.1l0-0.4h0.2c0.1-0.1,0.3-0.2,0.6-0.1c0.1,0,0.2,0.1,0.3,0.2c0-0.4,0-0.8,0.1-1.2
				c0-0.4,0-0.9,0.1-1.3c0.1-1.1,0-1.8-0.3-2.1C54.2,57.9,54.1,57.9,54,57.9z M53.4,62.6C53.4,62.6,53.4,62.6,53.4,62.6L53.4,62.6z"
				/>
		</g>
		<g>
			<path d="M75.3,53.8c0,0.4-0.6,0.4-0.6,0.4s-1.2,0-2,0c0.1,0.3,0.1,0.6,0.1,1.1c-0.1,1.2-0.2,4.4-0.2,7.2c0,0,0,4.3,0,5.5
				c0,0,0.1,1.6-0.8,1.6c-0.7,0-0.9-1.5-0.9-1.5c-0.3-1.8-0.3-5.8-0.3-5.8c-0.1-2.5,0.1-5.1,0.1-6.4c0-0.9,0.1-1.5,0.3-1.9
				c-1,0-2.4,0-2.6,0c-0.2,0-0.6-0.1-0.6-0.4c0-0.3,0.5-0.3,0.6-0.3s3.6,0,3.6,0s2.2,0,2.7,0C74.7,53.3,75.3,53.4,75.3,53.8z
				 M71.2,62.8c0-0.1-0.1-0.1-0.1-0.1h0c-0.1,0-0.2,0.1-0.3,0.2c-0.1,0.1-0.1,0.2,0,0.2c0,0.1,0.1,0.1,0.2,0.1c0,0,0.1,0,0.1,0
				c0,0,0,0,0.1,0C71.2,63,71.3,62.9,71.2,62.8z M71.4,61.9c0.1-0.1,0.1-0.2,0.1-0.2c0-0.1-0.1-0.1-0.1-0.1c-0.1,0-0.2,0.1-0.2,0.2
				c0,0.1,0,0.1,0,0.2c0,0,0.1,0,0.1,0S71.3,61.9,71.4,61.9C71.4,61.9,71.4,61.9,71.4,61.9z M71.8,63.6
				C71.8,63.6,71.8,63.6,71.8,63.6c0-0.2,0-0.3-0.1-0.3c-0.1,0-0.1,0-0.2,0c-0.1,0-0.1,0.2-0.1,0.3c0,0.1,0.1,0.1,0.1,0.1
				C71.7,63.8,71.8,63.7,71.8,63.6z M72.1,64.2c-0.1-0.1-0.2-0.1-0.3-0.1c-0.1,0-0.2,0.1-0.2,0.2c0,0.1,0,0.2,0,0.3
				c0.1,0.1,0.3,0.2,0.3,0.2c0,0,0.1,0,0.1,0C72.2,64.5,72.2,64.3,72.1,64.2z M71.7,62.4c0,0.1,0.1,0.1,0.1,0.1c0,0,0,0,0,0
				c0.1,0,0.2-0.1,0.2-0.1c0,0,0,0,0,0c0-0.2,0-0.3-0.1-0.3c-0.1,0-0.1,0-0.2,0C71.8,62.1,71.7,62.3,71.7,62.4z"/>
			<path d="M71.8,70c-0.9,0-1.2-1.5-1.2-1.7c-0.3-1.8-0.3-5.7-0.4-5.8c0-1.8,0-3.8,0.1-5.1c0-0.5,0-0.9,0-1.2c0-0.6,0.1-1.1,0.2-1.6
				c-1,0-2.1,0-2.2,0c-0.2,0-0.5-0.1-0.7-0.3c-0.1-0.1-0.2-0.3-0.2-0.5c0-0.4,0.4-0.6,0.9-0.6c0.2,0,3.5,0,3.5,0h2.7
				c0.1,0,0.5,0,0.8,0.3c0.1,0.1,0.2,0.3,0.2,0.5c0,0.5-0.5,0.7-0.9,0.7H73c0,0.2,0,0.5,0,0.8c-0.1,1.1-0.2,4.2-0.2,7.2
				c0,0,0,4.3,0,5.5c0,0.1,0.1,1.1-0.4,1.7C72.3,69.9,72.1,70,71.8,70z M70.9,63.5c0,1.3,0.1,3.5,0.3,4.7c0.1,0.5,0.3,1.2,0.6,1.2
				c0.1,0,0.2,0,0.2-0.1c0.2-0.2,0.3-0.9,0.2-1.2c0-0.6,0-1.9,0-3.1L72,65c-0.1,0-0.4-0.1-0.6-0.3l0-0.1c-0.1-0.2-0.1-0.3,0-0.4
				c0-0.1,0-0.1,0.1-0.1l0,0c0,0,0,0,0,0c0,0-0.1-0.1-0.2-0.2c0-0.1,0-0.1,0-0.2l-0.1,0C71,63.5,70.9,63.5,70.9,63.5z M72.1,63.8
				c0.1,0,0.1,0,0.2,0.1c0-0.5,0-1,0-1.2c-0.2,0.2-0.6,0.3-0.8-0.2l0,0c0-0.1,0-0.2,0-0.3h-0.1c-0.1,0-0.2,0-0.3-0.1
				c-0.1-0.1-0.1-0.1-0.1-0.2c0,0.2,0,0.4,0,0.6c0.2-0.1,0.5-0.1,0.6,0.2c0.1,0.1,0.1,0.3,0.1,0.4c0.1,0,0.2,0,0.3,0l0.1,0.1
				c0.1,0.1,0.2,0.3,0.1,0.5V63.8z M71.7,63.5L71.7,63.5L71.7,63.5C71.7,63.5,71.7,63.5,71.7,63.5L71.7,63.5z M71.8,63.5L71.8,63.5
				L71.8,63.5L71.8,63.5z M70.9,62.9C70.9,62.9,70.9,62.9,70.9,62.9l0.3-0.1L70.9,62.9L70.9,62.9z M70.9,62.9L70.9,62.9
				C70.9,62.9,70.9,62.9,70.9,62.9L70.9,62.9z M72,62.4L72,62.4L72,62.4z M71.9,62.3l-0.2,0.1L71.9,62.3L71.9,62.3z M72,62.3
				L72,62.3L72,62.3C72,62.3,72,62.3,72,62.3L72,62.3z M72,62.3C72,62.3,72,62.3,72,62.3c0,0,0-0.1-0.1-0.1
				C71.9,62.2,71.9,62.2,72,62.3L72,62.3z M72,62.3L72,62.3C72,62.3,72,62.3,72,62.3L72,62.3z M71.4,61.8L71.4,61.8L71.4,61.8
				L71.4,61.8z M71.2,61.7c0,0.1,0.1,0.1,0.1,0.1L71.2,61.7C71.2,61.7,71.2,61.7,71.2,61.7z M71.4,61.6l0.1,0.2
				C71.5,61.8,71.4,61.7,71.4,61.6C71.4,61.6,71.4,61.6,71.4,61.6L71.4,61.6z M71.2,61.6l0.2,0.2v0L71.2,61.6
				C71.2,61.6,71.2,61.6,71.2,61.6z M72,61.7c0.1,0,0.1,0,0.2,0.1c0,0,0,0,0,0c0.1-2.5,0.1-5.4,0.2-6.5c0-0.6,0-0.9-0.1-1l-0.1-0.4
				h2.4c0.1,0,0.3,0,0.3-0.1l0,0c0,0,0,0,0,0c0,0-0.2-0.1-0.3-0.1l-2.7,0c0,0-3.4,0-3.6,0c-0.2,0-0.3,0-0.3,0.1
				c0,0.1,0.2,0.1,0.3,0.1c0.2,0,1.6,0,2.6,0l0.4,0l-0.1,0.4c-0.2,0.5-0.2,1.1-0.2,1.8c0,0.3,0,0.8,0,1.3c0,1.2-0.1,2.8-0.1,4.3
				c0,0,0,0,0-0.1c0.1-0.3,0.3-0.3,0.4-0.4l0.1,0c0.2,0,0.3,0.1,0.4,0.2l0,0l0,0.2c0,0,0,0,0,0C71.9,61.7,71.9,61.7,72,61.7z"/>
		</g>
		<g>
			<path d="M76.1,68.3c-0.3-1.8-0.3-5.8-0.3-5.8c0-2.5,0.1-5.1,0.1-6.4c0-2.7,1-2.7,1-2.7s1.2-0.3,1.1,1.9c-0.1,1.2-0.2,4.4-0.2,7.2
				c0,0,0,1.1,0,2.4c0.7-2.8,2-7.2,3.4-7.3c2.1-0.2,2.2,2.6,2.1,4.5c-0.1,1.6-0.1,5.2-0.1,6.2c0,0.8-0.2,1.5-0.8,1.5
				c-0.6,0.1-1.2-0.4-1.2-2.5c-0.1-2.9,0.5-8.3-0.2-8.3c-0.6,0-2.5,5.3-3.2,9.7c-0.1,0.5-0.2,1.1-0.8,1.1
				C76.3,69.7,76.1,68.3,76.1,68.3z M76.5,63.9c0.1,0,0.2,0,0.2-0.1c0.1-0.1,0.1-0.2,0-0.3c0-0.1-0.1-0.2-0.2-0.2
				c-0.2,0-0.3,0.1-0.4,0.1c0,0,0,0,0,0.1C76.2,63.7,76.3,63.9,76.5,63.9C76.4,63.9,76.5,63.9,76.5,63.9z M76.6,62.8
				C76.6,62.8,76.6,62.8,76.6,62.8c0.1,0.2,0.2,0.3,0.3,0.3c0,0,0,0,0,0c0.1,0,0.1-0.1,0.1-0.2c0-0.1,0-0.3-0.1-0.3
				c-0.1-0.1-0.2-0.1-0.2,0C76.6,62.6,76.6,62.8,76.6,62.8z M77,63.4C77,63.5,77,63.5,77,63.4c0,0.2,0.1,0.3,0.1,0.3c0,0,0,0,0,0
				c0.1,0,0.1,0,0.1-0.1c0.1,0,0.1-0.1,0-0.2c0-0.1-0.1-0.1-0.1-0.1C77.1,63.4,77,63.4,77,63.4z M81.9,63.4
				C81.9,63.4,81.9,63.4,81.9,63.4c0.1,0,0.2,0,0.2-0.1c0.1-0.1,0.1-0.3,0.1-0.4c0-0.1-0.1-0.1-0.2-0.1c-0.1,0-0.2,0.2-0.2,0.2
				C81.8,63.2,81.8,63.3,81.9,63.4z M82.2,63.7c-0.1,0-0.1,0.1-0.2,0.1c0,0,0,0,0,0c0,0.2,0.1,0.2,0.1,0.3c0,0,0,0,0,0
				c0.1,0,0.1,0,0.1-0.1c0.1-0.1,0.1-0.2,0-0.2C82.2,63.7,82.2,63.7,82.2,63.7z M82.5,63.4c0,0.2,0.1,0.3,0.2,0.4c0,0,0,0,0,0
				c0.1,0,0.1,0,0.1-0.1c0.1-0.1,0.1-0.2,0.1-0.3c0-0.1-0.1-0.2-0.2-0.2C82.6,63.3,82.5,63.4,82.5,63.4
				C82.5,63.4,82.4,63.4,82.5,63.4z"/>
			<path d="M82.2,70c-0.3,0-0.5-0.1-0.7-0.3c-0.5-0.4-0.7-1.3-0.8-2.6c0-1.1,0-2.6,0.1-4c0.1-1.4,0.1-3.3,0-3.9
				c-0.6,0.9-2.1,5.2-2.8,9.3C77.9,69.6,77.6,70,77,70c-0.9,0-1.2-1.5-1.2-1.7c-0.3-1.8-0.3-5.7-0.4-5.8c0-1.9,0-3.8,0.1-5.2
				c0-0.5,0-0.9,0-1.2c0-2.8,1-3,1.2-3c0,0,0.4-0.1,0.9,0.2c0.4,0.4,0.6,1,0.6,2c-0.1,1.1-0.2,4.2-0.2,7.2v0.1
				c1.4-4.6,2.4-5.3,3-5.4c0.6-0.1,1.1,0.1,1.5,0.5c0.9,0.9,1,2.8,0.9,4.3c-0.1,1.6-0.1,5.2-0.1,6.1c-0.1,1.4-0.6,1.8-1,1.8
				C82.3,70,82.3,70,82.2,70z M81.5,63.3C81.5,63.3,81.5,63.3,81.5,63.3c-0.1,1.4-0.1,2.8-0.1,3.9c0,1.5,0.4,2,0.5,2.1
				c0.1,0.1,0.2,0.1,0.3,0.1c0.4,0,0.5-0.9,0.5-1.2c0-0.6,0-2.4,0-4c0,0-0.1,0-0.1,0h-0.1c0,0,0,0.1-0.1,0.1c0,0-0.2,0.2-0.3,0.2H82
				l-0.1-0.1c0,0-0.2-0.2-0.2-0.5l0-0.2h-0.1l0-0.2C81.5,63.4,81.5,63.3,81.5,63.3z M76.1,64c0,1.3,0.1,3.1,0.3,4.2l0,0
				c0.1,0.5,0.3,1.2,0.6,1.2c0.1,0,0.4,0,0.5-0.9c0.5-3.1,2.3-9.9,3.5-9.9c0,0,0,0,0,0c0.1,0,0.2,0,0.3,0.1c0.3,0.4,0.3,1.5,0.2,4.1
				c0.1-0.1,0.2-0.4,0.5-0.4c0.2,0,0.4,0.1,0.4,0.3c0,0.1,0.1,0.2,0.1,0.2c0.1,0,0.2-0.1,0.3,0c0,0,0,0,0.1,0c0-0.4,0-0.7,0-1
				c0-0.8,0.1-3.1-0.7-3.9c-0.3-0.2-0.6-0.3-1-0.3c-0.4,0-1.5,0.8-3.1,7.1l-0.6,2.3V64c-0.1,0-0.1,0.1-0.3,0.1H77L76.9,64
				c0,0,0,0,0,0c-0.1,0.1-0.2,0.2-0.4,0.2h-0.1C76.3,64.2,76.2,64.1,76.1,64z M82.2,64C82.2,64,82.2,64,82.2,64L82.2,64
				C82.2,64,82.2,64,82.2,64L82.2,64L82.2,64l0-0.1L82.2,64C82.1,64,82.1,64,82.2,64L82.2,64C82.2,64,82.2,64,82.2,64z M82,64
				C82,64,82.1,64,82,64L82,64l0-0.1C82,63.9,82,63.9,82,64z M76.5,63.7v0.2V63.7L76.5,63.7z M82.2,63.8L82.2,63.8L82.2,63.8
				L82.2,63.8z M82,63.8L82,63.8C82.1,63.8,82.1,63.8,82,63.8z M77.1,63.4L77.1,63.4C77.1,63.4,77.1,63.4,77.1,63.4L77.1,63.4z
				 M77.1,63.4C77.1,63.4,77.1,63.4,77.1,63.4L77.1,63.4z M76.9,53.7C76.9,53.7,76.9,53.7,76.9,53.7c-0.3,0.1-0.8,0.6-0.8,2.4
				c0,0.3,0,0.7,0,1.2c0,1.4-0.1,3.3-0.1,5.2c0,0,0,0.3,0,0.7c0.1-0.1,0.2-0.1,0.3-0.1c0,0,0,0,0,0l0-0.1v-0.1
				c0-0.3,0.1-0.4,0.2-0.5c0.1-0.1,0.3-0.1,0.5,0c0.2,0.1,0.3,0.4,0.3,0.7c0,0,0,0.1,0,0.1c0,0,0.1,0,0.1,0v-0.6
				c0.1-3,0.2-6.1,0.2-7.2c0-0.8-0.1-1.3-0.4-1.5C77.2,53.7,77,53.7,76.9,53.7z M76.7,62.8C76.7,62.9,76.7,62.9,76.7,62.8
				C76.7,62.9,76.7,62.8,76.7,62.8L76.7,62.8z M76.9,62.7C76.9,62.7,76.9,62.7,76.9,62.7C76.9,62.7,76.9,62.7,76.9,62.7
				C76.9,62.7,76.9,62.7,76.9,62.7z"/>
		</g>
		<g>
			<path d="M86.5,64.3c0,0.9,0,4.4,1.3,4.4c0,0,1.6,0.2,2.1-2.1c0,0,0.1-0.7,0.5-0.6c0.4,0.1,0.2,1,0.2,1c-0.8,2.9-3.2,2.7-3.2,2.7
				c-3.2-0.1-3-5.5-3-5.5s-0.1-6.4,3.1-6.7c0,0,1.3-0.2,1.6,1C89.5,59.9,88.9,63.4,86.5,64.3z M85,63.3L85,63.3c0.1,0,0.1,0,0.2,0
				c0.1-0.1,0.1-0.2,0.1-0.2c-0.1-0.1-0.1-0.1-0.1-0.1c-0.1,0-0.2,0.1-0.2,0.1c0,0,0,0,0,0C84.9,63.2,84.9,63.2,85,63.3z M85.6,64
				c0-0.1-0.1-0.2-0.2-0.2c-0.2-0.1-0.3,0.1-0.3,0.1c0,0,0,0,0,0.1c0,0.2,0.1,0.3,0.3,0.4c0,0,0,0,0.1,0c0.1,0,0.1,0,0.2-0.1
				C85.6,64.2,85.6,64.1,85.6,64z M85.9,63.2c-0.1-0.1-0.1-0.1-0.2-0.1c-0.1,0-0.2,0.2-0.3,0.2c0,0,0,0,0,0c0,0.2,0.1,0.3,0.1,0.3
				c0,0,0,0,0.1,0c0.1,0,0.1,0,0.2-0.1C85.9,63.4,86,63.3,85.9,63.2z M86.5,63.4c0.7-0.3,1.5-1.3,1.8-3c0.4-2.1-0.6-2-0.6-2
				C86.9,58.5,86.6,61.9,86.5,63.4z"/>
			<path d="M87.4,70C87.4,70,87.3,70,87.4,70c-0.8,0-1.5-0.3-2-0.8c-1.5-1.6-1.4-4.8-1.4-5c0-0.3-0.1-6.7,3.4-7
				c0.5-0.1,1.6,0.1,1.9,1.2c0.4,1.3-0.1,4.9-2.6,6c0,3.7,0.8,3.9,1,3.9c0.1,0,1.3,0.1,1.8-1.9c0-0.1,0.1-0.5,0.4-0.7
				c0.1-0.1,0.3-0.1,0.5-0.1c0.1,0,0.3,0.1,0.4,0.2c0.2,0.4,0.1,1,0.1,1.1C90.1,69.9,87.8,70,87.4,70z M84.7,63.4c0,0.5,0,0.8,0,0.8
				c0,0-0.1,3.1,1.2,4.5c0.4,0.4,0.9,0.6,1.5,0.7c0.1,0,2.2,0.1,2.9-2.5c0.1-0.2,0.1-0.5,0-0.6c-0.1,0-0.1,0.2-0.2,0.4
				c-0.6,2.5-2.4,2.4-2.4,2.4c-1,0-1.5-1.6-1.5-4.7v-0.2l0.2-0.1c2.3-0.8,2.8-4.2,2.4-5.4c-0.2-0.9-1.2-0.8-1.3-0.8
				c-2,0.1-2.6,3-2.8,4.8c0.1-0.1,0.2-0.1,0.3-0.1c0.2,0,0.3,0.2,0.4,0.3c0,0,0,0,0,0c0.1,0,0.2-0.1,0.3-0.1c0.2,0,0.3,0.1,0.4,0.2
				l0.1,0.1c0,0,0,0.1,0,0.1c0.3-4.9,1.2-5,1.5-5.1c0.1,0,0.4,0,0.7,0.3c0.4,0.4,0.4,1.1,0.2,2.1c-0.3,1.6-1,2.8-2,3.2l-0.5,0.2
				l0-0.4c0,0.1-0.1,0.1-0.1,0.2c-0.1,0.1-0.1,0.1-0.2,0.2c0.1,0.2,0,0.4-0.1,0.6l-0.1,0.1c-0.1,0-0.2,0.1-0.3,0.1l-0.2,0
				c-0.2-0.1-0.4-0.3-0.4-0.6l0-0.1l0.1-0.2c0,0,0.1,0,0.1-0.1l-0.1,0C84.8,63.5,84.7,63.4,84.7,63.4z M84.9,63c0,0,0,0.1,0,0.1
				L84.9,63L84.9,63z M85.1,63L85.1,63C85.1,63,85.1,63,85.1,63L85.1,63z M84.9,63L84.9,63C85,63,84.9,63,84.9,63z M87.8,58.7
				L87.8,58.7c-0.2,0-0.7,1.1-0.9,4.1c0.5-0.5,0.9-1.2,1.2-2.4c0.2-1.1,0-1.5-0.1-1.6C87.8,58.7,87.8,58.7,87.8,58.7z"/>
		</g>
		<g>
			<path d="M105.3,53.8c0,0.4-0.6,0.4-0.6,0.4s-1.2,0-2,0c0.1,0.3,0.1,0.6,0.1,1.1c-0.1,1.2-0.2,4.4-0.2,7.2c0,0,0,4.3,0,5.5
				c0,0,0.1,1.6-0.8,1.6c-0.7,0-0.9-1.5-0.9-1.5c-0.3-1.8-0.3-5.8-0.3-5.8c-0.1-2.5,0.1-5.1,0.1-6.4c0-0.9,0.1-1.5,0.3-1.9
				c-1,0-2.4,0-2.6,0c-0.2,0-0.6-0.1-0.6-0.4c0-0.3,0.5-0.3,0.6-0.3c0.2,0,3.6,0,3.6,0s2.2,0,2.7,0
				C104.7,53.3,105.3,53.4,105.3,53.8z M101.2,62.8c0-0.1-0.1-0.1-0.1-0.1h0c-0.1,0-0.2,0.1-0.3,0.2c-0.1,0.1-0.1,0.2,0,0.2
				c0,0.1,0.1,0.1,0.2,0.1c0,0,0.1,0,0.1,0c0,0,0,0,0.1,0C101.2,63,101.3,62.9,101.2,62.8z M101.4,61.9c0.1-0.1,0.1-0.2,0.1-0.2
				c0-0.1-0.1-0.1-0.1-0.1c-0.1,0-0.2,0.1-0.2,0.2c0,0.1,0,0.1,0,0.2c0,0,0.1,0,0.1,0C101.3,61.9,101.3,61.9,101.4,61.9
				C101.4,61.9,101.4,61.9,101.4,61.9z M101.8,63.6C101.8,63.6,101.8,63.6,101.8,63.6c0-0.2,0-0.3-0.1-0.3c-0.1,0-0.1,0-0.2,0
				c-0.1,0-0.1,0.2-0.1,0.3c0,0.1,0.1,0.1,0.1,0.1C101.7,63.8,101.7,63.7,101.8,63.6z M102.1,64.2c-0.1-0.1-0.2-0.1-0.3-0.1
				c-0.1,0-0.2,0.1-0.2,0.2c0,0.1,0,0.2,0,0.3c0.1,0.1,0.3,0.2,0.3,0.2c0,0,0.1,0,0.1,0C102.2,64.5,102.2,64.3,102.1,64.2z
				 M101.7,62.4c0,0.1,0.1,0.1,0.1,0.1c0,0,0,0,0,0c0.1,0,0.2-0.1,0.2-0.1c0,0,0,0,0,0c0-0.2,0-0.3-0.1-0.3c-0.1,0-0.1,0-0.2,0
				S101.7,62.3,101.7,62.4z"/>
			<path d="M101.8,70c-0.9,0-1.2-1.5-1.2-1.7c-0.3-1.8-0.3-5.7-0.4-5.8c0-1.8,0-3.8,0.1-5.2c0-0.5,0-0.9,0-1.2
				c0-0.6,0.1-1.1,0.2-1.6c-1,0-2.1,0-2.2,0c-0.2,0-0.5-0.1-0.7-0.3c-0.1-0.1-0.2-0.3-0.2-0.5c0-0.4,0.4-0.6,0.9-0.6
				c0.2,0,3.5,0,3.5,0h2.7c0.1,0,0.5,0,0.8,0.3c0.1,0.1,0.2,0.3,0.2,0.5c0,0.5-0.5,0.7-0.9,0.7H103c0,0.2,0,0.5,0,0.8
				c-0.1,1.1-0.2,4.2-0.2,7.2c0,0,0,4.3,0,5.5c0,0.1,0.1,1.1-0.4,1.7C102.3,69.9,102,70,101.8,70z M100.9,63.5
				c0,1.3,0.1,3.5,0.3,4.7c0.1,0.5,0.3,1.2,0.6,1.2c0.1,0,0.2,0,0.2-0.1c0.3-0.3,0.3-1,0.2-1.2c0-0.6,0-1.9,0-3.1l-0.2,0
				c-0.1,0-0.4-0.1-0.6-0.3l0-0.1c-0.1-0.2-0.1-0.3,0-0.5c0-0.1,0-0.1,0.1-0.1l0,0l0,0c0,0-0.1-0.1-0.2-0.3c0-0.1,0-0.1,0-0.2
				l-0.1,0C101,63.5,100.9,63.5,100.9,63.5z M102.1,63.8c0.1,0,0.1,0,0.2,0.1c0-0.5,0-1,0-1.2c-0.2,0.2-0.6,0.3-0.8-0.2l0,0
				c0-0.1,0-0.2,0-0.3h-0.1c-0.1,0-0.2,0-0.3-0.1c-0.1-0.1-0.1-0.1-0.1-0.2c0,0.2,0,0.4,0,0.6c0.2-0.1,0.5-0.1,0.6,0.2
				c0.1,0.1,0.1,0.3,0.1,0.4c0.1,0,0.2,0,0.3,0l0.1,0.1c0.1,0.1,0.2,0.3,0.1,0.5V63.8z M101.7,63.5L101.7,63.5L101.7,63.5
				C101.7,63.5,101.7,63.5,101.7,63.5L101.7,63.5z M101.8,63.5L101.8,63.5L101.8,63.5L101.8,63.5z M100.9,62.9
				C100.9,62.9,100.9,62.9,100.9,62.9l0.3-0.1L100.9,62.9L100.9,62.9z M100.9,62.9L100.9,62.9C100.9,62.9,100.9,62.9,100.9,62.9
				L100.9,62.9z M101.7,62.4l0.2-0.1l0,0L101.7,62.4z M101.9,62.3l-0.2,0.1L101.9,62.3z M101.4,61.8L101.4,61.8L101.4,61.8
				L101.4,61.8z M101.2,61.7c0,0.1,0.1,0.1,0.1,0.1L101.2,61.7C101.2,61.7,101.2,61.7,101.2,61.7z M101.4,61.6l0.1,0.2
				C101.4,61.8,101.4,61.7,101.4,61.6C101.4,61.6,101.4,61.6,101.4,61.6L101.4,61.6z M101.2,61.6l0.2,0.2v0L101.2,61.6
				C101.2,61.6,101.2,61.6,101.2,61.6z M102,61.7c0.1,0,0.1,0,0.2,0.1c0,0,0,0,0,0c0.1-2.8,0.2-5.5,0.2-6.5c0-0.6,0-0.9-0.1-1
				l-0.1-0.4h2.4c0.1,0,0.3,0,0.3-0.1l0,0c0,0,0,0,0,0c0,0-0.2-0.1-0.3-0.1l-2.7,0c0,0-3.4,0-3.6,0c-0.2,0-0.3,0-0.3,0.1
				c0,0.1,0.2,0.1,0.3,0.1c0.2,0,1.6,0,2.6,0l0.4,0l-0.1,0.4c-0.2,0.5-0.2,1.1-0.2,1.8c0,0.3,0,0.8,0,1.2c0,1.2-0.1,2.8-0.1,4.3
				c0,0,0,0,0-0.1c0.1-0.3,0.3-0.3,0.4-0.4l0.1,0c0.2,0,0.4,0.1,0.4,0.3c0,0.1,0,0.1,0,0.2C101.8,61.7,101.9,61.7,102,61.7z"/>
		</g>
		<g>
			<path d="M106.5,64.3c0,0.9,0,4.4,1.3,4.4c0,0,1.6,0.2,2.1-2.1c0,0,0.1-0.7,0.5-0.6c0.4,0.1,0.2,1,0.2,1c-0.8,2.9-3.2,2.7-3.2,2.7
				c-3.2-0.1-3-5.5-3-5.5s-0.1-6.4,3.1-6.7c0,0,1.3-0.2,1.6,1C109.5,59.9,108.9,63.4,106.5,64.3z M105,63.3L105,63.3
				c0.1,0,0.1,0,0.2,0c0.1-0.1,0.1-0.2,0.1-0.2c-0.1-0.1-0.1-0.1-0.1-0.1c-0.1,0-0.2,0.1-0.2,0.1c0,0,0,0,0,0
				C104.9,63.2,104.9,63.2,105,63.3z M105.6,64c0-0.1-0.1-0.2-0.2-0.2c-0.2-0.1-0.3,0.1-0.3,0.1c0,0,0,0,0,0.1
				c0,0.2,0.1,0.3,0.3,0.4c0,0,0,0,0.1,0c0.1,0,0.1,0,0.2-0.1C105.6,64.2,105.6,64.1,105.6,64z M105.9,63.2
				c-0.1-0.1-0.1-0.1-0.2-0.1c-0.1,0-0.2,0.2-0.3,0.2c0,0,0,0,0,0c0,0.2,0.1,0.3,0.1,0.3c0,0,0,0,0.1,0c0.1,0,0.1,0,0.2-0.1
				C105.9,63.4,106,63.3,105.9,63.2z M106.5,63.4c0.7-0.3,1.5-1.3,1.8-3c0.4-2.1-0.6-2-0.6-2C106.9,58.5,106.6,61.9,106.5,63.4z"/>
			<path d="M107.4,70C107.4,70,107.4,70,107.4,70c-0.8,0-1.5-0.3-2-0.8c-1.5-1.6-1.4-4.8-1.4-5c0-0.3-0.1-6.7,3.4-7
				c0.5-0.1,1.6,0.1,1.9,1.2c0.4,1.3-0.1,4.9-2.6,6c0,3.7,0.8,3.9,1,3.9c0.1,0,1.3,0.1,1.8-1.9c0-0.1,0.1-0.5,0.4-0.7
				c0.1-0.1,0.3-0.1,0.5-0.1c0.1,0,0.3,0.1,0.4,0.2c0.2,0.4,0.1,1,0.1,1.1C110.1,69.9,107.8,70,107.4,70z M104.7,63.4
				c0,0.5,0,0.8,0,0.8c0,0-0.1,3.1,1.2,4.5c0.4,0.4,0.9,0.6,1.5,0.7c0.1,0,2.2,0.1,2.9-2.5c0.1-0.2,0.1-0.5,0-0.6
				c-0.1,0-0.1,0.2-0.2,0.4c-0.6,2.5-2.4,2.4-2.4,2.4c-1,0-1.5-1.6-1.5-4.7v-0.2l0.2-0.1c2.3-0.8,2.8-4.2,2.4-5.4
				c-0.2-0.9-1.2-0.8-1.3-0.8c-2,0.1-2.6,3-2.8,4.8c0.1-0.1,0.2-0.1,0.3-0.1c0.2,0,0.3,0.2,0.4,0.3c0,0,0,0,0,0
				c0.1,0,0.2-0.1,0.3-0.1c0.2,0,0.3,0.1,0.4,0.2l0.1,0.1c0,0,0,0.1,0,0.1c0.3-4.9,1.2-5,1.5-5.1c0.1,0,0.4,0,0.7,0.3
				c0.4,0.4,0.4,1.1,0.2,2.1c-0.3,1.6-1,2.8-2,3.2l-0.5,0.2l0-0.4c0,0.1-0.1,0.1-0.1,0.2c-0.1,0.1-0.1,0.1-0.2,0.2
				c0.1,0.2,0,0.4-0.1,0.6l-0.1,0.1c-0.1,0-0.2,0.1-0.3,0.1l-0.2,0c-0.2-0.1-0.4-0.3-0.4-0.6l0-0.2l0.1-0.2c0,0,0.1,0,0.1-0.1
				l-0.1,0C104.8,63.5,104.7,63.4,104.7,63.4z M104.9,63c0,0,0,0.1,0,0.1L104.9,63L104.9,63z M105.1,63L105.1,63
				C105.2,63,105.2,63,105.1,63L105.1,63z M105,63L105,63C105,63,105,63,105,63z M107.8,58.7L107.8,58.7c-0.2,0-0.7,1.1-0.9,4.1
				c0.5-0.5,0.9-1.3,1.2-2.4c0.2-1.1,0-1.5-0.1-1.6C107.9,58.7,107.8,58.7,107.8,58.7z"/>
		</g>
		<g>
			<path d="M115.9,57.6c0,0,0.9,0,1.4,0.8c0.2-0.6,0.5-0.9,0.9-0.9c0,0,1.1-0.1,1,1c-0.1,1.1-0.2,9.6,0.1,10.6c0,0,0.2,0.7-0.4,0.5
				c-0.6-0.1-1.5-1.1-1.7-3.3c-0.1-0.4-0.1-1-0.2-1.7c-0.5,2-1.7,5.1-3.3,5c-2.1-0.1-2.2-4.9-2.1-6.1
				C111.5,62.4,112.2,57.5,115.9,57.6z M112.5,63.7c0-0.1-0.1-0.1-0.2-0.1c-0.1,0-0.3,0.1-0.3,0.2c0,0.1,0,0.2,0,0.2
				c0,0,0.1,0,0.1,0c0.1,0,0.2,0,0.2,0c0,0,0,0,0,0C112.5,63.9,112.6,63.8,112.5,63.7z M113.3,64.1c0-0.1-0.1-0.2-0.2-0.2
				c-0.2-0.1-0.3,0.1-0.4,0.1c0,0,0,0.1,0,0.1c0,0.2,0.1,0.3,0.3,0.4c0,0,0,0,0.1,0c0.1,0,0.1,0,0.2-0.1
				C113.3,64.3,113.3,64.2,113.3,64.1z M112.9,63.5c0,0.1,0.1,0.1,0.1,0.1c0.1,0,0.1-0.1,0.2-0.1c0,0,0,0,0,0c0-0.2-0.1-0.2-0.1-0.2
				c-0.1,0-0.1,0-0.2,0C112.9,63.3,112.8,63.4,112.9,63.5z M113.7,64.1c-0.7,4.6,0.3,4.6,0.3,4.6c1-0.3,2.4-5.3,2.8-6.5
				c0-0.6,0-1.2,0.1-1.7c0-1.2-0.3-1.9-0.7-1.9C115.8,58.6,114.4,59.5,113.7,64.1z M117.7,64.1c0.1,0.1,0.1,0.1,0.2,0.1c0,0,0,0,0,0
				c0.1,0,0.2-0.2,0.2-0.3c0,0,0,0,0,0c0-0.2-0.1-0.3-0.2-0.3c-0.1,0-0.1,0.1-0.2,0.1C117.6,63.9,117.6,64,117.7,64.1z M117.9,63.2
				c0,0.2,0,0.2,0.1,0.2l0,0c0.1,0,0.1,0,0.1-0.1c0-0.1,0.1-0.2,0-0.3c0-0.1-0.1-0.1-0.1-0.1C118,63.1,117.9,63.2,117.9,63.2
				L117.9,63.2z M118.4,64.3c0,0.1,0,0.1,0.1,0.1c0,0,0,0,0.1,0c0.1,0,0.1,0,0.1-0.1c0,0,0,0,0,0c0-0.2,0-0.2,0-0.3c0,0-0.1,0-0.2,0
				C118.4,64.1,118.3,64.2,118.4,64.3z"/>
			<path d="M118.9,70.1c-0.1,0-0.2,0-0.2,0c-0.8-0.2-1.8-1.4-2-3.6c0,0,0-0.1,0-0.2c-0.7,2-1.7,3.8-3.2,3.8c-0.5,0-0.9-0.2-1.2-0.6
				c-1.2-1.4-1.2-4.9-1.2-5.8c0.1-1.1,0.7-6.5,4.7-6.3c0.1,0,0.7,0,1.3,0.6c0.3-0.4,0.6-0.7,1-0.6c0,0,0.5-0.1,0.9,0.3
				c0.3,0.2,0.4,0.6,0.3,1.1c-0.1,1.2-0.2,9.5,0.1,10.4c0,0.1,0.1,0.5-0.1,0.8C119.3,70,119.2,70.1,118.9,70.1z M117.1,62.7l0.1,1.9
				c0,0.6,0.1,1.2,0.2,1.7c0.2,2.1,1,3,1.5,3.1c0.1,0,0.1,0,0.1,0l0,0c0,0,0-0.1-0.1-0.2c-0.2-0.5-0.2-2.5-0.2-4.6
				c-0.2,0.1-0.6,0-0.6-0.2c0,0-0.1,0-0.1,0l-0.1,0c-0.1,0-0.3,0-0.4-0.2c-0.2-0.2-0.2-0.5-0.1-0.7l0.1-0.1c0.1-0.1,0.1-0.1,0.2-0.2
				c0,0,0-0.1,0-0.1v0c0-0.2,0.2-0.4,0.5-0.4c0.2,0,0.3,0.1,0.4,0.3c0.1,0.2,0.1,0.4,0,0.5l-0.1,0.1c0,0-0.1,0.1-0.1,0.1
				c0,0,0,0,0,0.1c0.1-0.1,0.3-0.1,0.4,0c0-2.3,0.1-4.6,0.1-5.1c0-0.3,0-0.5-0.1-0.6c-0.2-0.2-0.5-0.1-0.5-0.1
				c-0.4,0-0.6,0.5-0.7,0.7l-0.2,0.6l-0.3-0.5c-0.4-0.6-1.1-0.7-1.1-0.7l0,0c-3.5-0.2-4,4.7-4.1,5.7c0.1-0.2,0.3-0.3,0.5-0.4
				c0.1,0,0.2,0,0.3,0c0-0.1,0.1-0.2,0.2-0.3c0.1-0.1,0.3-0.2,0.5-0.1l0.1,0.1c0.1,0.1,0.2,0.2,0.2,0.4v0.1c0.8-4.3,2.2-5.2,2.7-5.2
				c0,0,0,0,0,0c0.5,0,0.9,0.8,0.9,2.2c0,0.6-0.1,1.1-0.1,1.7l0,0.1c-0.2,0.6-1.7,6.3-3,6.7l-0.1,0c-0.1,0-0.2,0-0.4-0.2
				c-0.5-0.5-0.6-1.9-0.3-4.1c-0.1,0-0.2,0.1-0.2,0.1l-0.1,0c-0.1,0-0.4-0.1-0.5-0.4h-0.1c0,0-0.1,0-0.2,0c-0.1,0-0.2,0-0.3-0.1
				c0,0-0.1-0.1-0.1-0.2c0,1.4,0.2,4,1,4.9c0.2,0.3,0.5,0.4,0.8,0.4c0,0,0,0,0,0c1,0,2.2-1.8,3-4.8L117.1,62.7z M114,64.2
				c-0.5,3.2-0.1,4,0,4.2c0.6-0.5,1.7-3.5,2.4-6.2c0-0.6,0-1.2,0.1-1.7c0-1.2-0.3-1.5-0.4-1.6C115.9,59,114.6,60,114,64.2L114,64.2z
				 M118.5,64.3C118.5,64.3,118.5,64.3,118.5,64.3L118.5,64.3z M118.6,64.3L118.6,64.3C118.6,64.3,118.6,64.3,118.6,64.3L118.6,64.3
				C118.7,64.3,118.7,64.3,118.6,64.3L118.6,64.3C118.6,64.3,118.7,64.3,118.6,64.3c0-0.1,0-0.1,0-0.1V64.3l-0.2,0l0,0L118.6,64.3z
				 M113.1,64.2C113.1,64.2,113.1,64.2,113.1,64.2L113.1,64.2l0.2-0.1L113.1,64.2z M113.1,64.2C113.1,64.2,113.1,64.2,113.1,64.2
				l0.2-0.1L113.1,64.2z M117.9,63.9l-0.2,0.2L117.9,63.9L117.9,63.9z M117.9,63.9L117.9,63.9C117.9,63.9,117.9,63.9,117.9,63.9
				C117.9,63.9,117.9,63.9,117.9,63.9z M113.4,63.7C113.4,63.7,113.4,63.7,113.4,63.7c0.1,0,0.1-0.1,0.1-0.1L113.4,63.7
				C113.4,63.7,113.4,63.7,113.4,63.7z M112.9,63.5c0.1,0,0.2,0,0.2,0L112.9,63.5l0.2-0.1l0,0c0,0,0,0,0-0.1l0,0c0,0,0,0,0,0l0,0
				c0,0,0,0,0,0c0,0-0.1-0.1-0.2-0.1l0.1,0.1L112.9,63.5C112.9,63.5,112.9,63.5,112.9,63.5L112.9,63.5L112.9,63.5z M118.1,63.4
				C118.1,63.4,118.1,63.4,118.1,63.4L118.1,63.4l-0.1-0.1C117.9,63.3,118,63.3,118.1,63.4C118,63.3,118,63.4,118.1,63.4z
				 M118.2,63.3l-0.1,0.1C118.2,63.3,118.2,63.3,118.2,63.3C118.2,63.3,118.2,63.3,118.2,63.3z M118.1,63.2c0,0-0.1,0-0.1,0l0.1,0.1
				V63.2z"/>
		</g>
		<g>
			<path d="M121.6,57.6c1.1,0,0.9,2,0.9,2.5c-0.1,0.8-0.1,1.6-0.1,2.6c0,0,0,0.1,0,0.2c0.5-1.9,1.4-4.4,2.3-4.7c0,0,2.1-0.7,2,3.3
				c0.7-2,1.5-3.8,2.4-3.9c2.1-0.2,2.2,2.6,2.1,4.5c-0.1,1.6-0.1,5.2-0.1,6.2c0,0.8-0.2,1.5-0.8,1.5c-0.5,0.1-1.1-0.4-1.2-2.5
				c-0.1-2.9,0.5-8.3-0.2-8.3c-0.4,0-1.6,2.9-2.5,6c-0.2,0.8-0.4,1.4-0.9,1.5c0,0-1.1,0.3-0.9-2.4c0.1-2.4,0.1-4.5-0.1-4.6
				c-0.2-0.1-1.9,4.4-2.2,8c0,0.3,0,0.5,0,0.7c0,0,0.1,1.6-0.8,1.6c-0.7,0-0.9-1.5-0.9-1.5c-0.3-1.8-0.3-5.8-0.3-5.8s0-1.6,0.1-2.9
				C120.5,59.6,120.6,57.6,121.6,57.6z M121.3,62.8c0,0.2,0.1,0.3,0.3,0.4c0,0,0,0,0.1,0c0.1,0,0.1,0,0.2-0.1
				c0.1-0.1,0.1-0.2,0.1-0.3c-0.1-0.1-0.1-0.2-0.2-0.2C121.6,62.6,121.4,62.7,121.3,62.8C121.3,62.8,121.3,62.8,121.3,62.8z
				 M121.9,63.7c-0.1,0-0.2,0-0.2,0c-0.1,0.1-0.1,0.2-0.1,0.3v0c0.1,0.2,0.2,0.2,0.3,0.2c0,0,0,0,0,0c0.1,0,0.1-0.1,0.1-0.2
				C122.1,64,122,63.8,121.9,63.7z M125.3,63.4c0,0.2,0.1,0.2,0.1,0.2c0,0,0,0,0.1,0c0,0,0.1,0,0.1-0.1c0.1-0.1,0.1-0.2,0-0.3
				c0-0.1-0.1-0.1-0.1-0.1C125.4,63.3,125.4,63.4,125.3,63.4L125.3,63.4z M125.9,63.8c0.1,0,0.1,0.1,0.2,0.1c0.1,0,0.1,0,0.2,0
				c0.1,0,0.2-0.1,0.2-0.2c0-0.1-0.1-0.2-0.1-0.3c0,0,0,0-0.1,0c-0.2,0-0.3,0.1-0.3,0.2C125.8,63.7,125.9,63.8,125.9,63.8z
				 M130.2,63.1c0,0.1,0.1,0.1,0.1,0.1c0.1,0,0.2-0.1,0.2-0.1c0,0,0,0,0-0.1c0-0.2-0.1-0.2-0.1-0.2c0,0-0.1,0-0.2,0.1
				C130.2,62.9,130.2,63,130.2,63.1z M130.4,63.6c-0.1,0.1-0.1,0.3-0.1,0.4c0.1,0.1,0.1,0.1,0.2,0.1c0.1,0,0.2-0.2,0.2-0.2
				c0,0,0,0,0,0c0-0.2-0.1-0.3-0.2-0.3C130.6,63.5,130.5,63.6,130.4,63.6z"/>
			<path d="M130.2,70c-0.2,0-0.5-0.1-0.7-0.2c-0.5-0.4-0.7-1.3-0.8-2.6c0-1.1,0-2.4,0.1-3.8c0.1-1.5,0.2-3.5,0-4.1
				c-0.4,0.6-1.3,2.8-2.1,5.6c-0.1,0.7-0.4,1.6-1.1,1.7c0,0-0.3,0.1-0.7-0.2c-0.5-0.4-0.7-1.2-0.6-2.5c0.1-1.9,0.1-3.1,0.1-3.7
				c-0.5,1.3-1.5,4.6-1.7,7.2l0,0.7c0,0.1,0.1,1.1-0.4,1.7c-0.2,0.2-0.4,0.3-0.7,0.3c-1,0-1.2-1.6-1.2-1.7c-0.3-1.8-0.3-5.7-0.4-5.8
				c0,0,0-1.6,0.1-2.9c0-0.2,0.2-2.3,1.4-2.3c0.3,0,0.5,0.1,0.7,0.3c0.5,0.5,0.5,1.6,0.5,2.5c0,0.2,0,0.3,0,0.5
				c0.6-1.6,1.2-2.5,1.8-2.6c0,0,0.7-0.2,1.4,0.3c0.5,0.4,0.8,1,0.9,1.9c0.7-1.8,1.4-2.7,2.1-2.7c0.6-0.1,1.1,0.1,1.5,0.5
				c0.9,0.9,1,2.8,1,4.3c0,1-0.1,2.6-0.1,4c0,1,0,1.8,0,2.1c0,1.5-0.6,1.8-1,1.8C130.3,70,130.3,70,130.2,70z M128.9,58.6
				c0.1,0,0.2,0.1,0.3,0.1c0.4,0.4,0.4,1.7,0.2,4.7c-0.1,1.3-0.1,2.7-0.1,3.7c0.1,1.5,0.4,2,0.6,2.1c0.1,0.1,0.2,0.1,0.3,0.1
				c0.5-0.1,0.5-0.9,0.5-1.2c0-0.4,0-1.2,0-2.1c0-0.6,0-1.2,0-1.7c-0.1,0.1-0.2,0.1-0.3,0.1c-0.2,0-0.3-0.1-0.4-0.2l-0.1-0.1
				c-0.1-0.2-0.1-0.5,0.1-0.7c-0.1,0-0.2-0.1-0.2-0.2l0,0c-0.1-0.2,0-0.4,0.1-0.5c0.1-0.1,0.2-0.2,0.4-0.2l0.1,0
				c0.1,0,0.3,0.1,0.3,0.4c0-0.3,0-0.6,0-0.9c0-0.8,0.1-3-0.8-3.9c-0.3-0.2-0.6-0.3-1-0.3c-0.3,0-1,0.6-2.1,3.7l-0.5,1.6h0.1v0.2
				C127.2,61.5,128.2,58.6,128.9,58.6z M121.6,57.9c-0.5,0-0.8,1.2-0.8,1.7c-0.1,1.2-0.1,2.8-0.1,2.8c0,0,0.1,4,0.3,5.8
				c0,0.4,0.3,1.2,0.6,1.2c0.1,0,0.2,0,0.2-0.1c0.3-0.3,0.3-1,0.2-1.2l0-0.8c0.3-3.3,1.8-8,2.3-8.3l0.1-0.1l0.2,0.1
				c0.2,0.1,0.6,0.1,0.3,4.9c-0.1,1.5,0.2,1.9,0.3,2c0.1,0.1,0.2,0.1,0.2,0.1c0.1,0,0.4-0.1,0.6-1.2c0-0.1,0.1-0.3,0.2-0.7
				c-0.2,0.1-0.5,0-0.6-0.1l-0.1-0.1c0,0-0.1-0.1-0.1-0.1c0,0-0.1,0-0.1,0h-0.1l-0.1-0.1c-0.1-0.1-0.3-0.2-0.3-0.5v-0.2l0.1-0.1
				c0,0,0.1-0.2,0.4-0.2c0.2,0,0.3,0.1,0.4,0.3c0,0,0,0,0,0c0.1,0,0.2-0.1,0.3-0.1l0.2,0l0-1.7c0-1.8-0.4-2.5-0.8-2.8
				c-0.4-0.3-0.9-0.2-0.9-0.2c-0.5,0.1-1.3,1.3-2.1,4.4l-0.6,2.3v-0.7c-0.1,0-0.1,0-0.2,0c-0.3,0-0.5-0.2-0.5-0.4l0-0.1V64
				c0-0.1,0-0.4,0.2-0.5c-0.2-0.1-0.4-0.3-0.4-0.5l0,0l0-0.2l0-0.1l0.1-0.1c0.1-0.1,0.4-0.3,0.7-0.2c0.2,0.1,0.2,0.1,0.3,0.2
				c0-0.4,0-0.8,0.1-1.2c0-0.4,0-0.9,0.1-1.3c0-0.5,0.1-1.7-0.3-2.1C121.8,57.9,121.7,57.9,121.6,57.9L121.6,57.9z M121.8,64
				C121.7,64,121.7,64.1,121.8,64L121.8,64L121.8,64z M121.9,63.9C121.9,63.9,121.9,63.9,121.9,63.9
				C121.9,63.9,121.9,63.9,121.9,63.9z M125.4,63.4C125.4,63.4,125.3,63.4,125.4,63.4c0,0,0,0.1,0,0.1c0,0,0.1,0,0.1,0l0,0
				L125.4,63.4z M122,63.4C122,63.4,122,63.4,122,63.4L122,63.4L122,63.4C122.1,63.3,122.1,63.3,122,63.4
				C122,63.3,122,63.4,122,63.4z M125.4,63.4L125.4,63.4C125.4,63.4,125.4,63.4,125.4,63.4z M130.8,63.3
				C130.8,63.3,130.8,63.3,130.8,63.3C130.9,63.3,130.9,63.2,130.8,63.3L130.8,63.3z M130.4,63.1L130.4,63.1
				C130.5,63.1,130.5,63.1,130.4,63.1L130.4,63.1z M130.3,63.1C130.3,63.1,130.3,63.1,130.3,63.1L130.3,63.1L130.3,63.1z M130.3,63
				C130.3,63,130.3,63.1,130.3,63L130.3,63L130.3,63z M130.5,63L130.5,63C130.5,63,130.5,63,130.5,63L130.5,63z M130.4,63L130.4,63
				L130.4,63C130.5,62.9,130.5,62.9,130.4,63L130.4,63z M121.6,62.9C121.6,62.9,121.6,62.9,121.6,62.9
				C121.6,62.9,121.6,62.9,121.6,62.9C121.6,62.9,121.6,62.9,121.6,62.9z M130.3,62.9L130.3,62.9L130.3,62.9
				C130.4,62.9,130.4,62.9,130.3,62.9z"/>
		</g>
	</g>
	<g>
		<g>
			<path d="M20.6,82.3l2.3-2.2h1.3l0.2,0.8l-3.8,2.6V82.3z M20.6,80.1h1.6l-1.6,1.5V80.1z M20.6,84.1l3.9-2.7l0.4,1.5l-4.3,2.5V84.1
				z M20.6,85.9l4.4-2.6l0.5,1.9l-4.9,2.6V85.9z M20.6,88.4l5.1-2.6l0.5,1.8l-5.6,2.3V88.4z M24,90.1l-3.4,1.3v-1l5.7-2.3l0.3,1.1
				L24.2,90L24,89.3V90.1z M24,90.6v1.6l-3.4,0.9v-1.2L24,90.6z M20.6,93.6l3.4-0.9V94l-3.4,0.6V93.6z M20.6,95l3.4-0.6v1.4
				l-3.4,0.7V95z M20.6,97l3.4-0.7v2l-3.4,1.1V97z M24,101h-3.4v-1.1l3.4-1.1V101z M24.3,90.5l2.4-0.9l0.5,1.7L24.7,92L24.3,90.5z
				 M24.8,92.4l2.5-0.7l0.4,1.6l-2.5,0.4L24.8,92.4z M25.2,94.2l2.6-0.4l0.3,1.1l0.3-1.2l2.8-0.5l-0.3,1.3l-5.4,1L25.2,94.2z
				 M25.7,96l5.1-1l-0.3,1.2l-4.4,1.4L25.7,96z M26.2,98.1l4.2-1.3l-0.5,2l-3.3,1.1L26.2,98.1z M29.4,101h-2.4l-0.2-0.6l3-1
				L29.4,101z M31.9,90.5l-0.5,2.2l-2.8,0.5l0.5-1.9L31.9,90.5z M32,90l-2.8,0.8l0.6-2.3l5.8-2.1V89l-3.4,0.9v-0.6L32,90z
				 M30.4,86.4l5.2-2.1v1.6L30,87.9L30.4,86.4z M35.6,83.7l-5,2.1l0.6-2.2l4.5-2V83.7z M32,80.1h3.6v1L31.3,83L32,80.1z M32.2,90.4
				l3.4-0.9V92l-3.4,0.6V90.4z M32.2,93.1l3.4-0.6v1.1l-3.4,0.7V93.1z M32.2,94.8l3.4-0.7v0.5l-3.4,1.1V94.8z M32.2,96.2l3.4-1.1
				v1.8L32.2,98V96.2z M32.2,98.5l3.4-1.2v1.3l-3.4,1.4V98.5z M35.6,101h-3.4v-0.4l3.4-1.5V101z"/>
		</g>
		<g>
			<path d="M41.2,101h-3.6l3.7-0.7L41.2,101z M37.8,99.8l3.8-1.3l-0.2,1.2l-3.7,0.7L37.8,99.8z M45.3,96.5h-3.4L41.7,98l-3.8,1.3
				l0.1-0.8l10.3-5.5l0.1,0.7l0.3,2.1l-3.4,1.1L45.3,96.5z M38.4,96.1l4.8-2.5h1.7l-0.1-0.8l3.3-1.7l0.2,1.2l-10.1,5.4L38.4,96.1z
				 M38.6,94.7l3.9-2.1l-0.1,1h-0.2l-3.6,1.9L38.6,94.7z M38.8,93.6l0.2-0.9l3.9-2.5l-0.2,1.8l-3.8,2.1L38.8,93.6z M39.4,90.1
				l3.7-2.5l-0.3,2L39,92.1L39.4,90.1z M43.4,84.9L43.2,87l-3.7,2.4l0.4-2L43.4,84.9z M43.5,84.2L40,86.8l0.2-1.1l5.1-5.6H46
				l0.4,2.1l-2.8,2l0-0.4L43.5,84.2z M40.7,82.7l2.5-2.6h1.4l-4.3,4.7L40.7,82.7z M41.2,80.1h1.4l-1.7,1.7L41.2,80.1z M43.7,84.7
				l2.8-2l0.3,1.9l-2.9,1.9L43.7,84.7z M44,87l2.9-1.9l0.3,1.7l-3,1.9L44,87z M44.3,89.3l3-1.9l0.4,2L44.5,91L44.3,89.3z M44.6,91.5
				l3.2-1.7l0.2,0.8l-3.2,1.7L44.6,91.5z M45.4,97.3l3.4-1.1l0.2,1.5l-3.4,1L45.4,97.3z M45.9,101l-0.3-1.8l3.4-1l0.1,0.7l-2.7,2.2
				H45.9z M49.5,101h-2.3l2-1.6L49.5,101z"/>
		</g>
		<g>
			<path d="M51.6,80.1h3.6l-3.6,2.5V80.1z M51.6,83.2l3.6-2.5V82l-3.6,2.3V83.2z M51.6,84.8l3.6-2.3v1.9l-3.6,1.2V84.8z M51.6,86.2
				l3.6-1.2v1.6l-3.6,1.3V86.2z M55.2,88.9l-3.6,0.9v-1.3l3.6-1.3V88.9z M51.6,90.3l7.3-1.9L58,90.2l-6.5,2.3V90.3z M55.2,92v2
				l-3.6,1.6V93l6.2-2.2l0.1-0.3l0.8,1.9l-2.9,1.3L55.2,92z M51.6,96.2l3.6-1.6v0.8l-3.6,1.4V96.2z M51.6,97.2l3.6-1.4v1.5l-3.6,1.5
				V97.2z M51.6,99.4l3.6-1.5v1.5l-3.6,1.3V99.4z M52.3,101l2.9-1v1H52.3z M55.3,88.8l0.8-2l4.2-1.5l-1.1,2.5L55.3,88.8z M56,94.2
				l2.9-1.3l0.4,0.9l-3,1.2L56,94.2z M57,84.3l4.3-1.5l-0.8,1.8l-4.2,1.6L57,84.3z M56.5,95.4l3-1.2l0.5,1.1l-3,1.3L56.5,95.4z
				 M57.2,97.1l3.1-1.3l0.7,1.6l-3.2,1.1L57.2,97.1z M61.5,82.2l-4.3,1.5l1-2.4l3.9-0.3L61.5,82.2z M57.9,99l3.2-1.1l0.4,0.8
				l-3.1,1.6L57.9,99z M58.7,80.1h3.8l-0.2,0.4l-3.9,0.3L58.7,80.1z M62.5,101h-3.8l-0.1-0.2l3.1-1.6L62.5,101z"/>
		</g>
		<g>
			<path d="M68.1,83v1.3l-3.6,3.7v-3.3l6.6-4.7h1L69.4,83H68.1z M64.5,82.7l3.2-2.6h2.5l-5.8,4.1V82.7z M64.5,80.1H67L64.5,82V80.1z
				 M64.5,88.8l3.6-3.7v2.3l-3.6,2.5V88.8z M64.5,90.5l3.6-2.5v1.1h1.3l-4.8,3.7V90.5z M68.1,92v1l-3.6,4.2v-3.7l5.6-4.3h1.2
				L68.9,92H68.1z M64.5,97.9l3.6-4.2v2.4l-3.6,2.6V97.9z M64.5,101v-1.7l3.6-2.6v1.3h1.8l-2.6,2.9H64.5z M67.9,101l2.6-2.9h1.6
				l-1.8,2.9H67.9z M72.8,89.1V92h-3.3l2.5-2.9H72.8z M73.5,80.1V83H70l2.8-2.9H73.5z M73.5,98.1v2.9h-2.7l1.8-2.9H73.5z"/>
		</g>
		<g>
			<path d="M75.9,84.1c0-0.5,0-0.9,0.1-1.2l5.9-3c1.2,0.1,2,0.4,2.4,0.8L75.9,84.1z M79.9,83c-0.3,0.2-0.5,0.6-0.5,1.2v0.5l-3.6,0.9
				v-1L79.9,83z M79.4,86.2l-3.5,0.7c0-0.2,0-0.4,0-0.8v0l3.6-0.9V86.2z M75.9,94.2h3.6v0.3L75.9,96V94.2z M75.9,97v-0.5l3.6-1.5
				v1.4l-3.5,1.1C75.9,97.4,75.9,97.3,75.9,97z M75.9,97.9l3.5-1.1V97c0,0.4,0,0.6,0,0.7L76,98.5C76,98.3,75.9,98.2,75.9,97.9z
				 M76,87.4l3.5-0.7c0.1,0.3,0.3,0.7,0.7,1.1l-3.3,1.5C76.4,88.6,76.1,88,76,87.4z M80.9,79.8l-4.8,2.4
				C76.5,80.6,78.1,79.8,80.9,79.8L80.9,79.8z M76.2,98.9l3.6-0.9c0.2,0.2,0.5,0.4,1.1,0.4c0.8,0,1.3-0.3,1.4-1l3.6-0.9V97
				c0,0.5,0,0.9-0.1,1.2l-8.6,2.2C76.7,99.9,76.3,99.5,76.2,98.9z M77.3,89.6l3.3-1.5c0.4,0.4,0.8,0.7,1.3,1l-3.8,1.2
				C77.7,90,77.4,89.8,77.3,89.6z M80.8,101.4c-1.6,0-2.7-0.2-3.2-0.7l8-2C85.2,100.5,83.7,101.4,80.8,101.4z M79.1,91
				c-0.3-0.2-0.5-0.3-0.5-0.3l3.9-1.2c0,0,0.1,0.1,0.2,0.1c0.5,0.3,0.9,0.6,1.1,0.8L80.5,92C80.1,91.7,79.7,91.4,79.1,91z
				 M82.3,83.9c-0.1-0.8-0.6-1.2-1.4-1.2h0c-0.2,0-0.3,0-0.4,0l4.3-1.8c0.6,0.5,0.9,1.2,1,2L82.3,83.9z M80.9,92.3l3.3-1.6
				c0.5,0.4,0.8,0.9,1.1,1.3l-3.3,1.4C81.7,93.1,81.4,92.7,80.9,92.3z M82.3,94.6c0-0.3,0-0.5-0.1-0.7l3.3-1.4
				c0.3,0.5,0.4,1.1,0.4,1.9v0.1l-3.6,1.1V94.6z M82.3,84.4l3.5-0.9c0,0.1,0,0.4,0,0.7v0.7l-3.6,0.7V84.4z M85.8,87h-3.6v-0.9
				l3.6-0.7V87z M82.3,97V96l3.6-1.1v1.1L82.3,97z"/>
		</g>
		<g>
			<path d="M97.4,101h-3.6l3.7-0.7L97.4,101z M94,99.8l3.8-1.3l-0.2,1.2l-3.7,0.7L94,99.8z M101.5,96.5h-3.4L97.8,98l-3.8,1.3
				l0.1-0.8l10.3-5.5l0.1,0.7l0.3,2.1l-3.4,1.1L101.5,96.5z M94.6,96.1l4.8-2.5h1.7l-0.1-0.8l3.3-1.7l0.2,1.2l-10.1,5.4L94.6,96.1z
				 M94.8,94.7l3.9-2.1l-0.1,1h-0.2l-3.6,1.9L94.8,94.7z M94.9,93.6l0.2-0.9l3.9-2.5l-0.2,1.8l-3.8,2.1L94.9,93.6z M95.6,90.1
				l3.7-2.5l-0.3,2l-3.8,2.4L95.6,90.1z M99.6,84.9L99.3,87l-3.7,2.4l0.4-2L99.6,84.9z M99.7,84.2l-3.5,2.5l0.2-1.1l5.1-5.6h0.7
				l0.4,2.1l-2.8,2l0-0.4L99.7,84.2z M96.9,82.7l2.5-2.6h1.4l-4.3,4.7L96.9,82.7z M97.4,80.1h1.4L97,81.8L97.4,80.1z M99.9,84.7
				l2.8-2l0.3,1.9l-2.9,1.9L99.9,84.7z M100.2,87l2.9-1.9l0.3,1.7l-3,1.9L100.2,87z M100.4,89.3l3-1.9l0.4,2l-3.2,1.7L100.4,89.3z
				 M100.7,91.5l3.2-1.7l0.2,0.8l-3.2,1.7L100.7,91.5z M101.6,97.3l3.4-1.1l0.2,1.5l-3.4,1L101.6,97.3z M102.1,101l-0.3-1.8l3.4-1
				l0.1,0.7l-2.7,2.2H102.1z M105.7,101h-2.3l2-1.6L105.7,101z"/>
		</g>
		<g>
			<path d="M113.9,81.7l2-1.6h1.6v0.4l-3.6,2.8V81.7z M113.9,80.1h1.2l-1.2,1V80.1z M113.9,83.9l3.6-2.8v2l-3.6,1.4V83.9z
				 M113.9,85.1l3.6-1.4v1.5l-3.6,1.7V85.1z M113.9,87.3l3.6-1.7v1.2l-3.6,1.5V87.3z M117.7,89.1h2.7v-1.1l3.6-1.5v1.1l-10,4.7v-1.5
				L117.7,89.1z M113.9,88.9l3.6-1.5v1.2l-3.6,1.5V88.9z M117.5,92v1.2l-3.6,1.6v-2l10-4.7v2.1L120,92H117.5z M113.9,95.3l3.6-1.6
				v1.4l-3.6,1.1V95.3z M113.9,96.7l3.6-1.1v1.1l-3.6,1V96.7z M113.9,98.2l3.6-1v1.4l-3.6,0.9V98.2z M117.5,101h-3.6v-1l3.6-0.9V101
				z M120.4,80.1h3.6v0.4l-3.6,1.4V80.1z M120.4,82.5l3.6-1.4v1l-3.6,1.7V82.5z M120.4,84.3l3.6-1.7v1.6l-3.6,1.5V84.3z M120.4,86.2
				l3.6-1.5v1.2l-3.6,1.5V86.2z M120.4,92.3l3.6-1.6v2.4l-3.6,1.1V92.3z M120.4,94.7l3.6-1.1v1.1l-3.6,1V94.7z M120.4,96.3l3.6-1
				v1.6l-3.6,0.9V96.3z M120.4,98.3l3.6-0.9v1l-3.6,1V98.3z M123.9,101h-3.6v-1.1l3.6-1V101z"/>
		</g>
		<g>
			<path d="M126.9,82l2.1-1.8h1.5v0.9l-3.6,1.7V82z M126.9,80.1h1.3l-1.3,1.2V80.1z M126.9,83.4l3.6-1.7v1.4l-3.6,1.1V83.4z
				 M126.9,84.6l3.6-1.1v1.8l-3.6,1V84.6z M126.9,86.9l3.6-1v1.6l-3.6,0.5V86.9z M126.9,88.5l3.6-0.5v1.8l-3.6,0.5V88.5z
				 M126.9,90.7l3.6-0.5v1.4l-3.6,0.9V90.7z M126.9,93.1l3.6-0.9v1.7l-3.6,1.1V93.1z M126.9,95.5l3.6-1.1v1.5l-3.6,1V95.5z
				 M126.9,97.4l3.6-1V97c0,0.4,0,0.6,0.1,0.7l-3.4,1.1C127,98.4,127,97.9,126.9,97.4z M127.4,99.2l3.5-1.2c0.2,0.2,0.5,0.3,1,0.3
				c0.9,0,1.4-0.4,1.4-1.2l3.6-1.2V97c0,0.5,0,0.9-0.1,1.2l-8,2.6C128.1,100.4,127.6,99.9,127.4,99.2z M131.9,101.4
				c-1.2,0-2-0.1-2.4-0.3l7.2-2.4C136.3,100.5,134.7,101.4,131.9,101.4z M133.4,80.1h3.6v1l-3.6,1.1V80.1z M133.4,82.7l3.6-1.1v1.9
				l-3.6,1V82.7z M133.4,85.1l3.6-1v2.5l-3.6,0.5V85.1z M133.4,87.5l3.6-0.5v1.9l-3.6,0.5V87.5z M133.4,89.9l3.6-0.5V90l-3.6,0.9
				V89.9z M133.4,91.4l3.6-0.9v1.4l-3.6,1.1V91.4z M133.4,93.5l3.6-1.1V94l-3.6,1V93.5z M133.4,95.5l3.6-1v1.1l-3.6,1.2V95.5z"/>
		</g>
		<g>
			<path d="M139.7,84.2c0-0.3,0-0.6,0-0.8l5.4-3.6c0.7,0,1.2,0.1,1.5,0.2l-7,4.9V84.2z M144.7,82.7L144.7,82.7c-1,0-1.4,0.5-1.4,1.5
				v0.2l-3.6,1.9v-0.8l7.5-5.2c0.7,0.3,1.3,0.6,1.6,1.1l-3.2,1.7C145.5,82.8,145.2,82.7,144.7,82.7z M139.7,86.8l3.6-1.9v1.3
				l-3.6,1.8V86.8z M139.7,88.6l3.6-1.8v0.9l-3.6,1.9V88.6z M139.7,90.1l3.6-1.9v1l-3.6,2.2V90.1z M139.7,91.9l3.6-2.2v1.5l-3.6,2.1
				V91.9z M139.7,93.9l3.6-2.1v1.4l-3.6,1.4V93.9z M139.7,95.2l3.6-1.4v0.9l-3.6,1.4V95.2z M139.7,97v-0.4l3.6-1.4v1.5l-3.5,1.5
				C139.7,97.9,139.7,97.5,139.7,97z M144.3,79.8l-4.5,3C140.1,80.9,141.6,79.9,144.3,79.8z M139.9,98.6l3.3-1.4
				c0,0.6,0.1,0.9,0.3,1l-3.2,1.4C140.2,99.3,140,99,139.9,98.6z M140.6,100l3.6-1.6c0.1,0,0.2,0,0.4,0c0.8,0,1.2-0.3,1.3-0.8
				l3.7-1.6v1c0,0.3,0,0.5,0,0.6l-7.5,3.4C141.4,100.7,140.9,100.4,140.6,100z M144.7,101.4c-1,0-1.6-0.1-1.9-0.2l6.8-3.1
				C149.4,100.3,147.7,101.4,144.7,101.4z M146.1,92.1h-1v-1.4l2.7-1.6h1.9v1.5L146.1,92.1L146.1,92.1z M145.1,89.1h1.7l-1.7,1V89.1
				z M146.1,84.2c0-0.4,0-0.7-0.1-0.8l3.1-1.7c0.2,0.3,0.4,0.7,0.4,1.2l-3.4,1.8V84.2z M146.1,85.3l3.5-1.8c0,0.1,0,0.4,0,0.7v0.1
				l-3.6,1.9V85.3z M149.7,87h-3.6v-0.3l3.6-1.9V87z M146.1,92.5l3.6-1.4v1.1l-3.6,1.4V92.5z M146.1,94.1l3.6-1.4V94l-3.6,1.5V94.1z
				 M146.1,97v-1l3.6-1.5v1L146.1,97z"/>
		</g>
		<g>
			<path d="M156.2,83v1.3l-3.6,3.7v-3.3l6.6-4.7h1l-2.8,2.9H156.2z M152.6,82.7l3.2-2.6h2.5l-5.8,4.1V82.7z M152.6,80.1h2.4
				l-2.4,1.9V80.1z M152.6,88.8l3.6-3.7v2.3l-3.6,2.5V88.8z M152.6,90.5l3.6-2.5v1.1h1.3l-4.8,3.7V90.5z M156.2,92v1l-3.6,4.2v-3.7
				l5.6-4.3h1.2L157,92H156.2z M152.6,97.9l3.6-4.2v2.4l-3.6,2.6V97.9z M152.6,101v-1.7l3.6-2.6v1.3h1.8l-2.6,2.9H152.6z M156,101
				l2.6-2.9h1.6l-1.8,2.9H156z M160.9,89.1V92h-3.3l2.5-2.9H160.9z M161.6,80.1V83h-3.5l2.8-2.9H161.6z M161.6,98.1v2.9h-2.7
				l1.8-2.9H161.6z"/>
		</g>
	</g>
	<g>
		<g>
			<path d="M32.3,119.1h5.4c1.8,0,3.1,0.5,3.9,1.4c0.9,0.9,1.3,2.3,1.3,4.1V136c0,1.8-0.4,3.2-1.3,4.1c-0.9,0.9-2.2,1.4-3.9,1.4
				h-5.4V119.1z M37.7,138.4c0.6,0,1-0.2,1.3-0.5c0.3-0.3,0.5-0.9,0.5-1.7v-11.7c0-0.8-0.2-1.3-0.5-1.7c-0.3-0.3-0.8-0.5-1.3-0.5
				h-1.8v16H37.7z"/>
			<path d="M37.7,141.9H32v-23h5.7c1.8,0,3.2,0.5,4.2,1.5c0.9,1,1.4,2.5,1.4,4.3V136c0,1.9-0.5,3.3-1.4,4.3
				C40.9,141.4,39.5,141.9,37.7,141.9z M32.6,141.3h5.1c1.7,0,2.9-0.4,3.7-1.3c0.8-0.9,1.2-2.2,1.2-3.9v-11.3c0-1.7-0.4-3-1.2-3.9
				c-0.8-0.9-2.1-1.3-3.7-1.3h-5.1V141.3z M37.7,138.7h-2.1V122h2.1c0.7,0,1.2,0.2,1.6,0.6c0.4,0.4,0.5,1,0.5,1.9v11.7
				c0,0.9-0.2,1.5-0.5,1.9C38.8,138.5,38.3,138.7,37.7,138.7z M36.2,138.1h1.5c0.5,0,0.9-0.1,1.1-0.4c0.3-0.3,0.4-0.8,0.4-1.5v-11.7
				c0-0.7-0.1-1.2-0.4-1.5c-0.3-0.3-0.6-0.4-1.1-0.4h-1.5V138.1z"/>
		</g>
		<g>
			<path d="M45.3,119.1h3.5v22.4h-3.5V119.1z"/>
			<path d="M49.2,141.9H45v-23h4.1V141.9z M45.6,141.3h2.9v-21.8h-2.9V141.3z"/>
		</g>
		<g>
			<path d="M51.5,119.1h9.3v3.2H55v6.2h4.5v3.2H55v9.8h-3.5V119.1z"/>
			<path d="M55.3,141.9h-4.1v-23h9.9v3.8h-5.8v5.6h4.5v3.8h-4.5V141.9z M51.8,141.3h2.9v-9.8h4.5v-2.6h-4.5V122h5.8v-2.6h-8.7V141.3
				z"/>
		</g>
		<g>
			<path d="M62.5,119.1h9.3v3.2H66v6.2h4.5v3.2H66v9.8h-3.5V119.1z"/>
			<path d="M66.3,141.9h-4.1v-23h9.9v3.8h-5.8v5.6h4.5v3.8h-4.5V141.9z M62.8,141.3h2.9v-9.8h4.5v-2.6h-4.5V122h5.8v-2.6h-8.7V141.3
				z"/>
		</g>
		<g>
			<path d="M73.5,119.1h9.6v3.2h-6.1v5.9h4.8v3.2h-4.8v6.9h6.1v3.2h-9.6V119.1z"/>
			<path d="M83.4,141.9H73.2v-23h10.2v3.8h-6.1v5.3h4.8v3.8h-4.8v6.3h6.1V141.9z M73.8,141.3h9v-2.6h-6.1v-7.5h4.8v-2.6h-4.8V122
				h6.1v-2.6h-9V141.3z"/>
		</g>
		<g>
			<path d="M85.2,119.1h5.2c1.8,0,3.1,0.4,4,1.3c0.8,0.8,1.3,2.1,1.3,3.9v1.4c0,2.3-0.8,3.8-2.3,4.4v0.1c0.9,0.3,1.5,0.8,1.8,1.6
				s0.5,1.8,0.5,3.2v3.9c0,0.6,0,1.2,0.1,1.6c0,0.4,0.1,0.8,0.3,1.2h-3.6c-0.1-0.4-0.2-0.7-0.3-1c0-0.3-0.1-0.9-0.1-1.7v-4.1
				c0-1-0.2-1.7-0.5-2.1c-0.3-0.4-0.9-0.6-1.7-0.6h-1.2v9.6h-3.5V119.1z M90,128.8c0.7,0,1.2-0.2,1.6-0.5c0.4-0.4,0.5-1,0.5-1.8
				v-1.7c0-0.8-0.1-1.4-0.4-1.8c-0.3-0.4-0.7-0.5-1.4-0.5h-1.6v6.4H90z"/>
			<path d="M96.5,141.9h-4.3l-0.1-0.2c-0.1-0.4-0.2-0.7-0.3-1.1c0-0.3-0.1-0.9-0.1-1.8v-4.1c0-0.9-0.1-1.6-0.4-2
				c-0.3-0.3-0.8-0.5-1.5-0.5H89v9.6h-4.1v-23h5.5c1.9,0,3.3,0.5,4.2,1.4c0.9,0.9,1.3,2.3,1.3,4.1v1.4c0,2.2-0.7,3.6-1.9,4.4
				c0.6,0.3,1.1,0.8,1.4,1.5c0.4,0.8,0.6,1.9,0.6,3.3v3.9c0,0.6,0,1.1,0.1,1.5c0,0.4,0.1,0.7,0.3,1.1L96.5,141.9z M92.7,141.3h2.9
				c-0.1-0.3-0.1-0.5-0.2-0.8c0-0.4-0.1-0.9-0.1-1.6v-3.9c0-1.3-0.2-2.3-0.5-3c-0.3-0.7-0.8-1.2-1.6-1.4l-0.2-0.1V130l0.2-0.1
				c1.4-0.6,2.1-1.9,2.1-4.1v-1.4c0-1.7-0.4-2.9-1.2-3.7c-0.8-0.8-2-1.2-3.8-1.2h-4.9v21.8h2.9v-9.6h1.5c0.9,0,1.6,0.2,2,0.7
				c0.4,0.5,0.6,1.2,0.6,2.3v4.1c0,0.8,0,1.4,0.1,1.7C92.5,140.7,92.6,141,92.7,141.3z M90,129.1h-1.6v-7h1.9c0.7,0,1.3,0.2,1.6,0.7
				c0.3,0.4,0.5,1.1,0.5,2v1.7c0,0.9-0.2,1.6-0.6,2C91.4,128.8,90.8,129.1,90,129.1z M89,128.4h1c0.6,0,1.1-0.2,1.4-0.5
				c0.3-0.3,0.4-0.8,0.4-1.6v-1.7c0-0.7-0.1-1.3-0.4-1.6c-0.2-0.3-0.6-0.4-1.1-0.4H89V128.4z"/>
		</g>
		<g>
			<path d="M98.1,119.1h9.6v3.2h-6.1v5.9h4.8v3.2h-4.8v6.9h6.1v3.2h-9.6V119.1z"/>
			<path d="M108,141.9H97.8v-23H108v3.8h-6.1v5.3h4.8v3.8h-4.8v6.3h6.1V141.9z M98.4,141.3h9v-2.6h-6.1v-7.5h4.8v-2.6h-4.8V122h6.1
				v-2.6h-9V141.3z"/>
		</g>
		<g>
			<path d="M109.7,119.1h4.4l3.4,13.4h0.1v-13.4h3.1v22.4h-3.6l-4.2-16.4h-0.1v16.4h-3.1V119.1z"/>
			<path d="M121.1,141.9h-4.2l-3.7-14.5v14.5h-3.8v-23h5l2.9,11.5v-11.5h3.8V141.9z M117.4,141.3h3.1v-21.8h-2.5v13.4h-0.5l-0.1-0.2
				l-3.4-13.2H110v21.8h2.5v-16.4h0.5l0.1,0.2L117.4,141.3z"/>
		</g>
		<g>
			<path d="M124.5,140.4c-0.9-1-1.3-2.3-1.3-4.1v-12c0-1.8,0.4-3.1,1.3-4.1c0.9-1,2.2-1.4,3.9-1.4c1.7,0,3,0.5,3.9,1.4
				c0.9,1,1.3,2.3,1.3,4.1v2.4h-3.3v-2.6c0-1.4-0.6-2.1-1.8-2.1c-1.2,0-1.8,0.7-1.8,2.1v12.5c0,1.4,0.6,2,1.8,2c1.2,0,1.8-0.7,1.8-2
				v-3.4h3.3v3.2c0,1.8-0.4,3.1-1.3,4.1c-0.9,1-2.2,1.4-3.9,1.4C126.7,141.9,125.4,141.4,124.5,140.4z"/>
			<path d="M128.3,142.2c-1.8,0-3.1-0.5-4.1-1.5c-0.9-1-1.4-2.5-1.4-4.3v-12c0-1.8,0.5-3.3,1.4-4.3c0.9-1,2.3-1.5,4.1-1.5
				c1.8,0,3.1,0.5,4.1,1.5c0.9,1,1.4,2.5,1.4,4.3v2.7h-3.9v-2.9c0-1.6-0.8-1.8-1.5-1.8c-0.7,0-1.5,0.2-1.5,1.8v12.5
				c0,1.2,0.4,1.7,1.5,1.7s1.5-0.5,1.5-1.7v-3.7h3.9v3.5c0,1.8-0.5,3.3-1.4,4.3C131.5,141.7,130.1,142.2,128.3,142.2z M128.3,119.1
				c-1.6,0-2.8,0.5-3.6,1.3c-0.8,0.9-1.2,2.2-1.2,3.9v12c0,1.7,0.4,3,1.2,3.9c0.8,0.9,2,1.3,3.6,1.3c1.6,0,2.8-0.5,3.6-1.3
				c0.8-0.9,1.2-2.2,1.2-3.9v-2.9h-2.7v3.1c0,1.9-1.1,2.4-2.1,2.4c-0.9,0-2.1-0.4-2.1-2.4v-12.5c0-2,1.1-2.4,2.1-2.4
				c0.9,0,2.1,0.4,2.1,2.4v2.3h2.7v-2.1c0-1.7-0.4-3-1.2-3.9C131.2,119.6,129.9,119.1,128.3,119.1z"/>
		</g>
		<g>
			<path d="M135.6,119.1h9.6v3.2h-6.1v5.9h4.8v3.2h-4.8v6.9h6.1v3.2h-9.6V119.1z"/>
			<path d="M145.6,141.9h-10.2v-23h10.2v3.8h-6.1v5.3h4.8v3.8h-4.8v6.3h6.1V141.9z M136,141.3h9v-2.6h-6.1v-7.5h4.8v-2.6h-4.8V122
				h6.1v-2.6h-9V141.3z"/>
		</g>
	</g>
</g>
</svg>
