<?xml version="1.0" encoding="utf-8"?>
<!-- Generator: Adobe Illustrator 25.2.1, SVG Export Plug-In . SVG Version: 6.00 Build 0)  -->
<svg version="1.1" id="Layer_1" xmlns="http://www.w3.org/2000/svg" xmlns:xlink="http://www.w3.org/1999/xlink" x="0px" y="0px"
	 viewBox="0 0 180 175.9" style="enable-background:new 0 0 180 175.9;" xml:space="preserve">
<style type="text/css">
	.st0{fill:#1B1B1B;}
	.st1{fill:#FFFFFF;}
	.st2{fill:#292929;}
	.st3{fill:none;stroke:#000000;stroke-width:0.25;}
	.st4{fill:none;stroke:#000000;stroke-width:0.5;stroke-miterlimit:10;}
	.st5{stroke:#000000;stroke-width:0.25;stroke-miterlimit:10;}
	.st6{fill:none;stroke:#000000;stroke-miterlimit:10;}
	.st7{stroke:#000000;stroke-miterlimit:10;}
	.st8{fill:none;stroke:#000000;stroke-width:0.25;stroke-miterlimit:10;}
</style>
<g>
	<g>
		<path d="M25.2,83.7c0-0.1,0-0.2,0.1-0.2c0,0,0,0,0,0L25.2,83.7z"/>
	</g>
	<g>
		<path d="M46.5,75.2L46.5,75.2c0.1,0.1,0.2,0.2,0.3,0.3c0,0,0,0,0.1,0.1L46.5,75.2z"/>
	</g>
	<g>
		<path d="M53.8,56.3c-0.8-0.2-1.6,0.1-2,0.8c-0.7,1.4,0.7,2.9,2.1,2.1c0.6-0.3,0.4-0.2,0.2-0.1C55.2,58.3,55.2,56.7,53.8,56.3z"/>
	</g>
	<g>
		<path d="M50.5,66.5c-0.2-0.2-0.3-0.3-0.3-0.4c0.1,0.1,0.1,0.2,0.2,0.3c0.4,0.9,1.9,1.3,2.7,0.7c0.3-0.2,0.5-0.5,0.7-0.7
			c0.2-0.2,0.4-0.5,0.5-0.8c0.1-0.5,0-1-0.2-1.4c0-0.1-0.1-0.1-0.1-0.2c0,0-0.1-0.1-0.1-0.1c-0.4-0.6-1.1-0.9-2-0.7
			c-0.1,0-0.3,0-0.4,0.1C50,63.8,49.5,65.3,50.5,66.5z"/>
	</g>
	<g>
		<path d="M43.1,62.4c0.9,0.8,2.2,1.1,3.2,0.4c2.6-1.7,2.4-6-0.6-7.1c-3.1-1.1-6.2,3.5-3.8,5.9C42.3,62.1,42.7,62.3,43.1,62.4z"/>
	</g>
	<g>
		<path d="M60.5,98.7c0.3,1.3,1.2,2,2.1,2c0.1,0,0.3,0,0.4,0c0.1,0,0.2,0,0.3-0.1c0.2,0,0.4,0,0.5-0.1c2-1,1.8-3.1,0.1-4.3
			c-0.6-0.4-1.5-0.5-2.2-0.3C60.4,96.3,60.3,97.5,60.5,98.7z"/>
	</g>
	<g>
		<path d="M66.2,103.5c0.3,0.1,0.7,0,0.8-0.3c0.3-0.6-0.3-1.2-0.9-0.9c-0.2,0.1-0.2,0.1-0.1,0.1C65.6,102.6,65.7,103.3,66.2,103.5z"
			/>
	</g>
	<g>
		<path d="M39.8,67.6C39.8,67.6,39.7,67.6,39.8,67.6c-0.1-0.1-0.1-0.1-0.2-0.1C39.7,67.5,39.7,67.6,39.8,67.6z"/>
	</g>
	<g>
		<path d="M40.1,66.1c-0.4,0.1-0.7,0.4-0.7,0.8c0,0.2,0.1,0.4,0.2,0.5c0,0,0.1,0.1,0.1,0.1c0.2,0.3,0.6,0.4,0.9,0.2
			c0.1-0.1,0.2-0.1,0.3-0.2c0.2-0.2,0.3-0.5,0.2-0.7c0-0.1-0.1-0.3-0.1-0.4C40.8,66.1,40.5,66,40.1,66.1z"/>
	</g>
	<g>
		<path d="M65.6,92.5C65.6,92.5,65.6,92.5,65.6,92.5c0.1,0.1,0.1,0.1,0.1,0.1c0.2,0.2,0.4,0.3,0.8,0.3c0.1,0,0.1,0,0.2,0
			c0.6-0.2,0.8-0.8,0.3-1.3c0.1,0.1,0.1,0.1,0.1,0.2c0,0-0.1-0.1-0.1-0.1c-0.2-0.4-0.7-0.5-1.1-0.3c-0.1,0.1-0.2,0.2-0.3,0.3
			c-0.1,0.1-0.2,0.2-0.2,0.3C65.4,92.1,65.4,92.3,65.6,92.5z"/>
	</g>
	<g>
		<path d="M157.8,75.4C157.9,75.4,157.9,75.4,157.8,75.4C157.9,75.4,157.9,75.4,157.8,75.4c0.3,0.2,0.5,0.2,0.7,0.1c0,0,0.1,0,0.1,0
			c0.3-0.1,0.5-0.4,0.5-0.7c0-0.3-0.1-0.6-0.3-0.8c-0.4-0.3-0.9-0.3-1.1,0.1c-0.2,0.2-0.2,0.5-0.1,0.7
			C157.5,75.1,157.6,75.3,157.8,75.4z"/>
	</g>
	<g>
		<path d="M141.4,66.7c-0.3,0.6-0.2,1.2,0.1,1.7c0.3,0.8,1.1,1.2,2,1c0.1,0,0.1,0,0.2,0c0.7-0.1,1.1-0.6,1.2-1.1
			c0.7-0.8,0.2-2.2-0.9-2.6C142.8,65.2,141.8,65.7,141.4,66.7C141.4,66.6,141.4,66.6,141.4,66.7z"/>
	</g>
	<g>
		<path d="M141.1,60.4c0,0-0.1-0.1-0.1-0.1c-0.4-0.6-1.1-0.9-2-0.7c-0.1,0-0.3,0-0.4,0.1c-1.4,0.5-1.9,2.1-0.9,3.2
			c-0.2-0.2-0.3-0.3-0.3-0.4c0.1,0.1,0.1,0.2,0.2,0.3c0.4,0.9,1.9,1.3,2.7,0.7c0.3-0.2,0.5-0.5,0.7-0.7c0.2-0.2,0.4-0.5,0.5-0.8
			c0.1-0.5,0-1-0.2-1.4C141.2,60.5,141.2,60.5,141.1,60.4z"/>
	</g>
	<g>
		<path d="M62,67.7C62,67.7,62,67.8,62,67.7c-0.4,0.1-0.5,0.3-0.6,0.5c-0.3,0.3-0.1,0.9,0.3,1c0.5,0.2,0.9,0,1-0.4c0,0,0,0,0,0
			c0.1-0.2,0.1-0.5,0-0.7C62.7,67.8,62.4,67.7,62,67.7z"/>
	</g>
	<g>
		<path d="M148.5,62.2C148.5,62.2,148.6,62.2,148.5,62.2c0.7,0.2,1.4-0.4,1.2-1c-0.1-0.2-0.2-0.4-0.3-0.5c-0.2-0.3-0.6-0.5-1-0.4
			c-0.5,0.1-0.8,0.7-0.7,1.1c0,0,0,0.1,0,0.1c0,0.1,0,0.2,0.1,0.3C147.9,62.1,148.2,62.2,148.5,62.2z"/>
	</g>
	<g>
		<path d="M126.6,68.1c-0.1,0-0.1,0-0.2,0c0,0-0.1,0-0.1,0c-0.1,0-0.1,0-0.2,0c-0.8,0.4-0.8,1.2-0.1,1.7c0.2,0.2,0.6,0.3,0.9,0.2
			c0.5-0.1,0.6-0.6,0.5-1.1C127.4,68.5,127,68.2,126.6,68.1z"/>
	</g>
	<g>
		<path d="M137,67.9c0.2,0.3,0.7,0.6,1.1,0.4c0.5-0.2,0.7-0.5,0.9-1c0-0.1,0-0.3,0-0.4c0-0.1,0-0.1,0-0.2c-0.1-0.6-1-0.9-1.5-0.6
			C136.9,66.5,136.7,67.3,137,67.9z"/>
	</g>
	<g>
		<path d="M12,93.1c1.1,3.8,3,7.4,6.4,9.2c0.3,0.2,0.6-0.2,0.4-0.4c-1.4-2.5-2.4-5.1-3.2-7.8c0.6-0.5,1.1-1.2,1.6-1.8
			c0.9-1.1,2.1-3.2,1.4-4.7c0-0.1-0.1-0.1-0.2-0.1c-1.3,0.3-2.6,2.1-3.5,3.1c0,0-0.1,0.1-0.1,0.1c-0.2-0.9-0.3-1.9-0.4-2.8
			c1-0.6,1.8-1.7,2.5-2.6c0.9-1.2,2-2.7,1.8-4.2c0-0.1-0.1-0.2-0.2-0.2c-1.3,0.5-2.2,1.8-3,2.8c-0.4,0.5-0.8,0.9-1.3,1.3
			c-0.1-1.7-0.1-3.5,0.1-5.2c1.3-0.4,2.5-1.5,3.4-2.5c0.9-0.9,1.8-2.4,1.4-3.7c-0.1-0.2-0.2-0.2-0.4-0.2c-1,0.2-1.9,1-2.7,1.7
			c-0.4,0.4-0.9,0.8-1.4,1.1c0.2-1.3,0.5-2.7,0.8-4c0.7-0.2,1.4-0.6,2.1-0.9c1.4-0.8,2.8-2.3,3-4c0-0.1-0.2-0.3-0.3-0.2
			c-1.3,0.4-2.5,1.2-3.5,2c-0.1,0.1-0.2,0.1-0.4,0.2c0.6-1.8,1.3-3.5,2.1-5.1c0.9,0,2-0.2,2.7-0.4c1.8-0.5,3.2-1.5,4-3.3
			c0.1-0.2,0-0.3-0.2-0.3c-1.8,0.3-3.4,1-5.1,1.4c0.1-0.1,0.1-0.2,0.1-0.3c0.8-1.4,1.7-2.7,2.7-4c0.9,0,1.9-0.3,2.6-0.5
			c1.4-0.4,3.3-1.1,3.7-2.7c0-0.1,0-0.2-0.1-0.2c-1.4-0.1-2.7,0.7-4,1c0,0-0.1,0-0.1,0c1.3-1.4,2.7-2.7,4.2-3.9
			c0.7,0.3,1.6,0.4,2.4,0.4c1.3,0,3.6-0.2,4.1-1.7c0-0.1,0-0.2-0.1-0.2c-0.9-0.7-2.1-0.4-3.1-0.4c-0.2,0-0.5,0-0.7,0
			c1.3-0.9,2.7-1.7,4.1-2.4c0.5,0.2,1.1,0.3,1.5,0.4c1.1,0.1,3.2,0.3,4.1-0.5c0.1-0.1,0.1-0.2,0-0.3c-0.6-0.8-2-0.7-2.9-0.9
			c0,0,0,0,0,0c1.6-0.7,3.2-1.4,4.9-2c0,0.1,0.1,0.1,0.1,0.2c1.3,1.4,3.7,1.9,5.5,1.1c0.1,0,0.1-0.2,0.1-0.3c-0.3-0.9-1.1-1.6-2-2.2
			c1.2-0.3,2.5-0.7,3.7-0.9c0.4,0.6,1.1,1,1.8,1.5c1,0.6,1.8,0.6,2.9,0.2c0.2-0.1,0.4-0.3,0.2-0.5c-0.4-0.6-1-1.2-1.6-1.7
			c0.7-0.1,1.3-0.2,2-0.3c0.4-0.1,0.4-0.6,0-0.7c-0.8-0.1-1.5-0.1-2.3-0.1c0.6-0.7,1.2-1.4,1.7-2.1c0.1-0.2,0-0.5-0.3-0.5
			c-1.5,0.2-2.8,1.3-3.8,2.4c-0.1,0-0.1-0.1-0.2-0.1c-0.2,0-0.4,0.1-0.5,0.2c-1.3,0-2.5,0.1-3.8,0.3c0.3-0.4,0.7-0.8,1-1.2
			c0.5-0.5,0.9-1,1.3-1.6c0.2-0.3-0.1-0.7-0.4-0.7c-0.7,0.1-1.2,0.1-1.8,0.6c-0.7,0.5-1.2,1.1-1.8,1.7c-0.3,0.4-0.7,1-1,1.6
			c-1.6,0.3-3.2,0.7-4.7,1.2c0.2-0.5,0.4-0.9,0.7-1.4c0.5-0.9,1.8-2,1.7-3.1c0-0.1,0-0.1-0.1-0.1c-1.3-0.2-2.5,1.6-3.3,2.4
			c-0.8,0.9-1.6,2-2,3.2c-1.9,0.8-3.7,1.7-5.5,2.8c0,0,0,0,0,0c0.6-1.6,1.6-3.3,1.8-5.1c0-0.1-0.1-0.3-0.3-0.3
			c-1.8,0.2-3.1,2.3-3.9,3.8c-0.5,1-1.1,2.5-1,3.8c-1.4,1-2.6,2.1-3.9,3.3c0-0.2,0-0.3,0.1-0.5c0.4-1.6,0.8-3.2,1-4.8
			c0.1-0.4-0.5-0.5-0.7-0.3c-1.6,1.2-2.3,3-2.9,4.9c-0.3,1-0.7,2.6-0.3,3.8c-1.3,1.5-2.5,3.1-3.6,4.8C17,58.1,17,57.3,17,56.5
			c0-1.5,0.3-2.9,0-4.4c0-0.1-0.2-0.2-0.3-0.1c-2.6,1.7-2.4,7.2-1.6,9.8c0,0.1,0.1,0.2,0.2,0.3c-1.1,2.1-2,4.3-2.8,6.6
			c-0.1-0.2-0.2-0.5-0.2-0.7c-0.5-1.8-0.6-4.1-1.7-5.6c-0.2-0.2-0.5-0.2-0.6,0c-1.1,1.7-0.5,4.4-0.1,6.3c0.3,1.1,0.7,3.1,1.7,4.1
			c-0.5,2.2-0.7,4.4-0.9,6.7c-0.8-1.5-1.4-2.9-2.4-4.2C7.8,74.8,7.1,75,7,75.5c-0.5,2.6,0.8,7.9,3.6,9.1c0.1,1.3,0.2,2.7,0.4,4.1
			c-0.1-0.1-0.2-0.2-0.3-0.3c-1-1.1-2-2.6-3.6-2.8c-0.2,0-0.4,0.2-0.5,0.3c-0.4,1.8,1.2,3.6,2.2,4.9C9.6,91.8,10.8,92.9,12,93.1z"/>
	</g>
	<g>
		<path d="M131.5,37.6c0.5,0.7,1.1,1.4,1.7,2.1c-0.8,0-1.5,0.1-2.3,0.1c-0.4,0-0.4,0.6,0,0.7c0.7,0.1,1.3,0.2,2,0.3
			c-0.6,0.5-1.2,1.1-1.6,1.7c-0.1,0.2,0,0.5,0.2,0.5c1.1,0.4,1.8,0.3,2.9-0.2c0.7-0.4,1.4-0.8,1.8-1.5c1.3,0.3,2.5,0.6,3.7,0.9
			c-0.9,0.6-1.7,1.3-2,2.2c0,0.1,0,0.2,0.1,0.3c1.8,0.8,4.2,0.3,5.5-1.1c0.1-0.1,0.1-0.1,0.1-0.2c1.6,0.6,3.2,1.2,4.7,1.9
			c-1,0.1-2.2,0.2-2.8,0.9c-0.1,0.1,0,0.2,0,0.3c0.8,0.8,2.7,0.7,3.8,0.6c0.5,0,1.2-0.2,1.8-0.4c1.4,0.7,2.7,1.6,3.9,2.4
			c0,0-0.1,0-0.1,0c-1.2,0-2.6-0.4-3.6,0.4c-0.1,0-0.1,0.1-0.1,0.2c0.5,1.4,2.4,1.6,3.7,1.7c0.8,0.1,1.9,0,2.7-0.3
			c1.4,1.1,2.8,2.4,4.1,3.7c-1.2-0.4-2.5-1-3.8-0.9c-0.1,0-0.2,0.1-0.1,0.2c0.3,1.5,1.9,2.1,3.2,2.5c0.8,0.3,1.9,0.7,2.9,0.7
			c1,1.2,2,2.5,2.8,3.9c0.1,0.1,0.1,0.2,0.1,0.3c-0.8-0.2-1.5-0.4-2.3-0.7c-0.9-0.4-1.9-0.5-2.9-0.7c-0.2,0-0.3,0.1-0.2,0.3
			c0.8,1.6,1.9,2.4,3.5,3.1c0.8,0.3,2.1,0.7,3.2,0.6c0.8,1.7,1.6,3.5,2.2,5.3c-0.1,0-0.1-0.1-0.2-0.1c-1.3-0.8-2.5-1.8-3.9-2.2
			c-0.1,0-0.3,0.1-0.3,0.2c0.1,1.6,1.4,2.9,2.6,3.8c0.7,0.5,1.7,1,2.6,1.2c0.3,1.3,0.6,2.7,0.8,4c-0.4-0.3-0.9-0.6-1.3-0.9
			c-0.9-0.8-1.8-1.8-3-2c-0.2,0-0.3,0-0.4,0.2c-0.4,1.2,0.4,2.5,1.1,3.4c0.9,1.1,2.3,2.5,3.8,2.8c0.1,1.7,0.1,3.5,0,5.2
			c-0.5-0.4-0.9-0.9-1.3-1.3c-0.8-1-1.7-2.3-3-2.8c-0.1,0-0.2,0.1-0.2,0.2c-0.2,1.5,0.9,3.1,1.8,4.2c0.7,0.9,1.5,1.9,2.5,2.6
			c-0.1,0.9-0.3,1.9-0.4,2.8c0,0-0.1-0.1-0.1-0.1c-0.9-1-2.1-2.8-3.5-3.1c-0.1,0-0.1,0-0.2,0.1c-0.6,1.3,0.4,3.3,1.2,4.4
			c0.5,0.7,1.1,1.5,1.8,2.1c-0.8,2.7-1.8,5.4-3.1,7.8c-0.2,0.3,0.2,0.6,0.4,0.4c3.4-1.8,5.2-5.4,6.3-9.2c1.3-0.2,2.4-1.3,3.2-2.2
			c1.1-1.2,2.5-3.2,2.2-4.9c0-0.2-0.3-0.4-0.5-0.3c-1.6,0.2-2.6,1.8-3.6,2.8c-0.1,0.1-0.3,0.3-0.4,0.4c0.2-1.2,0.4-2.5,0.5-3.6
			c0-0.2,0-0.4,0-0.7c2.8-1.2,4.1-6.5,3.6-9.1c-0.1-0.5-0.8-0.7-1.2-0.3c-1,1.3-1.7,2.7-2.4,4.1c-0.1-2.2-0.4-4.4-0.9-6.5
			c1-1,1.4-2.9,1.7-4.1c0.5-1.8,1-4.6-0.1-6.3c-0.2-0.2-0.5-0.2-0.6,0c-1,1.4-1.2,3.5-1.6,5.1c-0.1,0.4-0.3,0.8-0.5,1.3
			c-0.7-2.3-1.7-4.5-2.7-6.6c0.1-0.1,0.2-0.2,0.2-0.4c0.9-2.6,1-8.1-1.6-9.8c-0.1-0.1-0.3,0-0.3,0.1c-0.3,1.3-0.1,2.5,0,3.8
			c0,1,0,1.9-0.1,2.9c-1.1-1.8-2.2-3.4-3.5-4.9c0.2-1.1-0.1-2.6-0.4-3.6c-0.5-1.9-1.3-3.7-2.9-4.9c-0.2-0.2-0.8-0.1-0.7,0.3
			c0.2,1.5,0.5,2.9,0.9,4.4c0.1,0.2,0.1,0.4,0.1,0.6c-1.2-1.1-2.5-2.2-3.8-3.2c0.1-1.2-0.6-2.6-1-3.6c-0.7-1.5-2.1-3.6-3.9-3.8
			c-0.1,0-0.3,0.1-0.3,0.3c0.2,1.6,1.1,3.1,1.6,4.6c0,0.1,0.1,0.2,0.1,0.3c-1.7-1-3.6-1.9-5.4-2.7c-0.4-1-1-2-1.7-2.8
			c-0.7-0.9-2.2-2.9-3.6-2.8c-0.1,0-0.1,0-0.1,0.1c-0.1,1.1,1.1,2.2,1.7,3.1c0.3,0.4,0.5,0.9,0.7,1.4c-1.5-0.5-3.1-0.9-4.7-1.2
			c-0.3-0.6-0.7-1.2-1-1.6c-0.5-0.7-1.1-1.2-1.8-1.7c-0.6-0.5-1.1-0.5-1.8-0.6c-0.3,0-0.6,0.4-0.4,0.7c0.7,1,1.6,1.8,2.3,2.8
			c-1.2-0.2-2.5-0.2-3.7-0.3c-0.1-0.1-0.3-0.3-0.5-0.2c-0.1,0-0.1,0-0.2,0.1c-1-1.2-2.3-2.3-3.8-2.4C131.6,37,131.4,37.4,131.5,37.6
			z"/>
	</g>
	<g>
		<path d="M73,39.7c0.1,0,0.3-0.1,0.2-0.3C68.6,32.8,61.4,29.5,54,27c-0.3-0.1-0.5,0.3-0.3,0.5C59.2,33,65.2,38.2,73,39.7z"/>
	</g>
	<g>
		<path d="M73.5,46.4c-5.6,2.7-8.1,8.7-9.7,14.3c-0.1,0.3,0.3,0.5,0.5,0.3c4.5-3.7,9-8.3,9.4-14.4C73.8,46.4,73.6,46.3,73.5,46.4z"
			/>
	</g>
	<g>
		<path d="M55.1,49c-0.2,0.2,0,0.5,0.2,0.5c5.9-0.5,12.1-1.7,16-6.5c0.1-0.1,0.1-0.3-0.1-0.3C65,41.8,59.7,45.2,55.1,49z"/>
	</g>
	<g>
		<path d="M113.4,39.4c-0.1,0.1,0.1,0.3,0.2,0.3c7.8-1.5,13.8-6.7,19.3-12.2c0.2-0.2,0-0.6-0.3-0.5C125.3,29.5,118,32.8,113.4,39.4z
			"/>
	</g>
	<g>
		<path d="M112.9,46.6c0.4,6.1,4.9,10.7,9.4,14.4c0.2,0.2,0.6,0,0.5-0.3c-1.6-5.6-4.1-11.6-9.7-14.3C113,46.3,112.9,46.4,112.9,46.6
			z"/>
	</g>
	<g>
		<path d="M131.5,49c-4.6-3.8-9.9-7.1-16.1-6.3c-0.2,0-0.2,0.2-0.1,0.3c3.9,4.8,10.1,6,16,6.5C131.5,49.5,131.7,49.2,131.5,49z"/>
	</g>
	<g>
		<g>
			<path d="M16.6,150.1h3.5l1.6,17.7h0.1l1.7-17.7h3.9l1.7,17.7h0.1l1.6-17.7H34l-2.3,23h-4.5l-1.6-15.5h-0.1l-1.6,15.5H19
				L16.6,150.1z"/>
			<path d="M31.9,173.5h-5.1l0-0.3l-1.3-12.7l-1.4,13h-5.4l0-0.3l-2.4-23.4h4.2l1.3,14.8l1.4-14.8h4.6l1.4,14.8l1.3-14.8h3.8l0,0.4
				L31.9,173.5z M27.4,172.8h3.9l2.3-22.4h-2.5l-1.6,17.7h-0.6l-0.1-0.3l-1.7-17.4h-3.3l-1.7,17.7h-0.6l-0.1-0.3l-1.6-17.4H17
				l2.3,22.4h4.2l1.6-15.5h0.6l0.1,0.3L27.4,172.8z"/>
		</g>
		<g>
			<path d="M35.8,150.1h3.6v23h-3.6V150.1z"/>
			<path d="M39.8,173.5h-4.3v-23.7h4.3V173.5z M36.1,172.8h3v-22.4h-3V172.8z"/>
		</g>
		<g>
			<path d="M44.9,153.4h-3.8v-3.3h11.2v3.3h-3.8v19.7h-3.6V153.4z"/>
			<path d="M48.9,173.5h-4.3v-19.7h-3.8v-4h11.9v4h-3.8V173.5z M45.3,172.8h3v-19.7H52v-2.6H41.5v2.6h3.8V172.8z"/>
		</g>
		<g>
			<path d="M54.1,150.1h3.6v9.4h3.9v-9.4h3.6v23h-3.6v-10.4h-3.9v10.4h-3.6V150.1z"/>
			<path d="M65.5,173.5h-4.3v-10.4H58v10.4h-4.3v-23.7H58v9.4h3.2v-9.4h4.3V173.5z M61.9,172.8h3v-22.4h-3v9.4h-4.5v-9.4h-3v22.4h3
				v-10.4h4.5V172.8z"/>
		</g>
		<g>
			<path d="M69.1,172c-0.9-1-1.4-2.4-1.4-4.3v-12.1c0-1.8,0.5-3.3,1.4-4.3c0.9-1,2.3-1.5,4.1-1.5c1.8,0,3.1,0.5,4.1,1.5
				c0.9,1,1.4,2.4,1.4,4.3v12.1c0,1.8-0.5,3.3-1.4,4.3c-0.9,1-2.3,1.5-4.1,1.5C71.4,173.5,70,173,69.1,172z M75,167.9v-12.6
				c0-1.5-0.6-2.3-1.9-2.3c-1.3,0-1.9,0.8-1.9,2.3v12.6c0,1.5,0.6,2.3,1.9,2.3C74.4,170.2,75,169.4,75,167.9z"/>
			<path d="M73.1,173.8c-1.9,0-3.3-0.5-4.3-1.6c-1-1.1-1.5-2.6-1.5-4.5v-12.1c0-1.9,0.5-3.4,1.5-4.5c1-1.1,2.5-1.6,4.3-1.6
				s3.3,0.5,4.3,1.6c1,1.1,1.5,2.6,1.5,4.5v12.1c0,1.9-0.5,3.4-1.5,4.5C76.5,173.3,75,173.8,73.1,173.8z M73.1,150.1
				c-1.7,0-3,0.5-3.8,1.4c-0.9,0.9-1.3,2.3-1.3,4v12.1c0,1.7,0.4,3.1,1.3,4c0.9,0.9,2.2,1.4,3.8,1.4c1.7,0,3-0.5,3.8-1.4
				c0.9-0.9,1.3-2.3,1.3-4v-12.1c0-1.7-0.4-3.1-1.3-4C76.1,150.6,74.8,150.1,73.1,150.1z M73.1,170.5c-1,0-2.2-0.5-2.2-2.6v-12.6
				c0-2.2,1.2-2.6,2.2-2.6c1,0,2.2,0.5,2.2,2.6v12.6C75.4,170.1,74.2,170.5,73.1,170.5z M73.1,153.4c-0.7,0-1.5,0.2-1.5,1.9v12.6
				c0,1.7,0.9,1.9,1.5,1.9c0.7,0,1.5-0.2,1.5-1.9v-12.6C74.7,153.6,73.8,153.4,73.1,153.4z"/>
		</g>
		<g>
			<path d="M82.3,172c-0.9-1-1.4-2.4-1.4-4.3v-17.6h3.6V168c0,0.8,0.2,1.4,0.5,1.7c0.3,0.4,0.8,0.5,1.4,0.5c0.6,0,1-0.2,1.4-0.5
				c0.3-0.3,0.5-0.9,0.5-1.7v-17.8h3.5v17.6c0,1.9-0.5,3.3-1.4,4.3c-0.9,1-2.3,1.5-4,1.5S83.2,173,82.3,172z"/>
			<path d="M86.3,173.8c-1.8,0-3.3-0.5-4.3-1.6l0,0c-1-1.1-1.5-2.6-1.5-4.5v-17.9h4.3V168c0,0.7,0.1,1.2,0.4,1.5
				c0.3,0.3,0.6,0.4,1.1,0.4s0.9-0.1,1.1-0.4c0.3-0.3,0.4-0.8,0.4-1.5v-18.2h4.2v17.9c0,1.9-0.5,3.5-1.5,4.5
				C89.6,173.3,88.2,173.8,86.3,173.8z M82.6,171.8c0.9,0.9,2.1,1.4,3.8,1.4s2.9-0.5,3.8-1.4c0.9-0.9,1.3-2.3,1.3-4.1v-17.2h-2.8
				V168c0,0.9-0.2,1.5-0.6,1.9c-0.4,0.4-0.9,0.6-1.6,0.6c-0.7,0-1.2-0.2-1.6-0.6c-0.4-0.4-0.6-1-0.6-1.9v-17.5h-3v17.2
				C81.3,169.5,81.7,170.8,82.6,171.8L82.6,171.8z"/>
		</g>
		<g>
			<path d="M97.1,153.4h-3.8v-3.3h11.2v3.3h-3.8v19.7h-3.6V153.4z"/>
			<path d="M101.1,173.5h-4.3v-19.7H93v-4h11.9v4h-3.8V173.5z M97.5,172.8h3v-19.7h3.8v-2.6H93.7v2.6h3.8V172.8z"/>
		</g>
	</g>
	<g>
		<g>
			<path d="M41.4,99.6c-0.9,0-1.6-0.2-2-0.5c-0.3-0.2-0.4-0.5-0.5-0.9c-0.3-0.7-0.5-1.5-0.7-2.3c-0.2-0.9-0.5-1.9-0.7-2.8l-0.2-0.8
				c-0.1-0.4-0.2-0.8-0.2-1.2c0-0.3-0.1-0.5-0.2-0.8c0-0.2-0.1-0.4-0.2-0.7c-0.1-0.4-0.1-0.8-0.2-1.1c-0.2,0.2-0.4,0.7-0.6,1.4
				c-0.3,0.7-0.5,1.5-0.9,2.4c-0.4,1.1-0.7,2.1-1.1,3.2c-0.4,1-0.7,1.8-1.1,2.4c-0.4,0.7-0.8,1.1-1.2,1.3c-0.4,0.2-0.8,0.3-1.4,0.3
				l-0.3,0c-0.2,0-0.4,0-0.6,0c-0.4,0-0.7-0.1-1-0.3c-0.3-0.2-0.5-0.5-0.6-1c-0.2-0.5-0.5-1.7-0.9-3.5c-0.4-1.9-0.9-4-1.3-6.5
				c-0.5-2.5-0.9-4.8-1.3-7.1c-0.4-2.3-0.5-4-0.5-5.3c0-0.7,0.1-1.1,0.2-1.3c0.2-0.3,0.6-0.5,1-0.8c0.4-0.3,0.8-0.6,1.3-0.8
				c0.5-0.2,0.9-0.3,1.3-0.3c0.7,0,1.1,0.5,1.1,1.5c0,1.3,0.1,3.2,0.4,5.5s0.6,4.6,0.9,6.7c0.3,2.2,0.6,3.7,0.8,4.5
				c0.2-0.2,0.6-1.1,1-2.5c0.9-3,1.8-6.5,2.7-10.5c0.4-1.6,0.6-2.7,0.7-3.3l0-0.1c0.2-1.3,1-1.9,2.4-1.9c1.4,0,2.1,0.3,2.3,0.9
				c0.1,0.3,0.1,0.5,0.1,0.8c0,1,0.1,2.7,0.3,5.1c0.4,5.3,1,9.1,1.6,11.3c0.6-1.7,1.6-5.6,3-11.5c0.6-2.4,1.1-4.3,1.5-5.9
				c0-0.2,0.1-0.3,0.2-0.4c0.3-0.3,0.7-0.4,1-0.4c0.5,0,0.9,0.2,1.5,0.5c0.5,0.3,1,0.8,1.3,1.2c0.4,0.5,0.5,1,0.5,1.4
				c0,0.1,0,0.2,0,0.3c-0.4,1.7-1,4-1.9,7.1c-0.9,3-1.8,6.1-2.8,9.1c-1,3-1.9,5.3-2.6,6.8c-0.2,0.3-0.5,0.5-0.9,0.6
				C42.3,99.5,41.9,99.6,41.4,99.6z"/>
		</g>
		<g>
			<path d="M53.4,98.5c-1,0-1.9-0.3-2.6-0.9c-0.7-0.6-1.3-1.4-1.7-2.3c-0.4-1-0.6-2-0.6-3.2c0-1.1,0.2-2.2,0.5-3.3
				c0.4-1.1,0.9-2.2,1.6-3.3c0.9-1.2,2-1.9,3.4-2.3c0.5-0.1,0.9-0.2,1.4-0.2c0.9,0,1.7,0.3,2.3,0.9c0.7,0.6,1,1.5,1,2.6
				c0,0.7-0.1,1.3-0.4,2c-0.2,0.7-0.6,1.3-1,1.9c-0.4,0.6-1,1-1.6,1.4c-0.6,0.4-1.4,0.5-2.2,0.5c-0.3,0-0.5,0-0.8-0.1h-0.1
				c-0.1,0-0.1,0.1-0.1,0.2c0,0.7,0.1,1.4,0.4,2c0.3,0.8,0.7,1.1,1.2,1.1c0.3,0,0.6-0.1,0.9-0.3c0.2-0.2,0.4-0.4,0.6-0.6l0,0
				c0.2-0.3,0.6-0.6,0.9-0.7c0.1,0,0.2,0,0.3,0c0.4,0,0.7,0.1,0.9,0.4c0.3,0.2,0.4,0.6,0.4,0.9l0,0.2c-0.1,0.8-0.6,1.5-1.4,2
				C55.7,98.2,54.5,98.5,53.4,98.5z M53.8,89.6c0.4,0,0.7-0.1,1.1-0.3c0.4-0.3,0.7-0.7,1-1.3c0.3-0.6,0.4-1.2,0.4-1.6
				c0-0.4-0.2-0.5-0.5-0.5c-0.2,0-0.4,0.1-0.6,0.3c-1,0.8-1.6,1.8-1.8,3c0,0.1,0,0.2,0,0.3c0,0.1,0,0.2,0.1,0.2
				C53.5,89.6,53.6,89.6,53.8,89.6z"/>
		</g>
	</g>
	<g>
		<g>
			<path d="M72.8,98.8c-0.6,0-1.1-0.1-1.6-0.2c-0.5-0.1-0.8-0.2-0.9-0.4c-0.4-0.7-0.7-1.5-0.9-2.3c-0.1-0.2-0.1-0.4-0.2-0.6
				c-0.1-0.4-0.3-0.7-0.4-1.1c-0.1-0.3-0.2-0.9-0.4-1.8c-0.2-0.9-0.4-1.8-0.6-2.8c-0.2-1-0.4-1.8-0.5-2.5c-0.2-0.7-0.3-1.1-0.3-1.3
				c0-0.1,0-0.1,0-0.2c0-0.3,0.2-0.5,0.5-0.8c0.3-0.3,0.8-0.6,1.3-0.8c0.5-0.2,1-0.3,1.5-0.3c0.4,0,0.7,0.1,1,0.2
				c0,0,0.1,0.1,0.1,0.1c0,0,0,0.1,0,0.1v0.1c0,3.1,0.5,6.2,1.5,9.1c0,0,0,0,0,0.1s0,0,0.1,0.1l0,0c0.4-0.9,0.8-1.9,1.1-3
				c0.3-1.1,0.6-2.2,0.8-3.2c0-0.2,0.1-0.6,0.1-0.9c0-0.5,0.1-0.9,0.1-1.3c0.1-0.4,0.3-0.7,0.6-0.9c0.5-0.2,1-0.3,1.6-0.3
				c0.4,0,0.8,0.1,1.1,0.2c0.3,0.2,0.5,0.4,0.5,0.8c0,0.2,0,0.3,0,0.5c0,0.6,0,1.2,0.1,1.8c0.1,0.5,0.2,1.1,0.3,2
				c0.2,0.9,0.4,1.7,0.6,2.5c0.2,0.8,0.5,1.4,0.8,1.7c0.1-0.3,0.2-0.6,0.3-0.9c0.1-0.2,0.1-0.4,0.2-0.5c0.2-0.5,0.4-1.3,0.7-2.2
				c0.3-0.9,0.5-1.9,0.7-2.9c0.2-1,0.3-1.8,0.3-2.5c0-0.2,0-0.3,0-0.4v0c0-0.1,0.1-0.2,0.3-0.3c0.2-0.1,0.4-0.1,0.7-0.1
				c0.3,0,0.6,0,1,0.1c0.4,0.1,0.7,0.2,1,0.4c0.3,0.2,0.6,0.5,0.8,0.8c0.2,0.3,0.3,0.7,0.3,1.1v0c0,0.5-0.2,1.3-0.5,2.5
				s-0.7,2.4-1,3.6s-0.7,2-0.9,2.5l-0.4,0.9c-0.3,0.7-0.6,1.5-0.9,2.2c-0.1,0.3-0.5,0.5-1.1,0.7c-0.6,0.1-1.2,0.2-1.9,0.2
				c-0.5,0-1,0-1.5-0.1s-0.7-0.2-0.8-0.4c-0.2-0.3-0.4-0.8-0.6-1.5C77.1,96,77,95.4,76.9,95c0-0.1,0-0.1-0.1-0.1c0,0,0,0-0.1,0
				c0,0,0,0,0,0.1l0,0c0,0-0.1,0.2-0.2,0.5c-0.1,0.3-0.3,0.6-0.5,1c-0.2,0.4-0.3,0.7-0.5,1c-0.1,0.3-0.2,0.4-0.2,0.5
				c-0.1,0.3-0.5,0.5-0.9,0.6C73.9,98.7,73.4,98.8,72.8,98.8z"/>
		</g>
		<g>
			<path d="M93.3,98.2c-0.4,0-0.8,0-1.1-0.1c-1-0.3-1.9-0.9-2.7-1.8c-0.3-0.4-0.5-0.8-0.8-1.2c-0.6-1.4-0.9-2.6-0.9-3.7
				c0-0.3,0-0.6,0-0.8c0-0.6,0.1-1.4,0.4-2.3c0.2-1.2,0.8-2.3,1.7-3.3c1.1-1.2,2.4-1.8,3.7-1.8c0.7,0,1.4,0.1,2.1,0.4
				c0.5,0.2,1,0.5,1.4,1c0.6,0.6,1,1.3,1.4,2.1c0.5,1.3,0.8,2.5,0.8,3.7c0,1.1-0.2,2.1-0.5,3.1l-0.2,0.5c-0.2,0.7-0.6,1.4-1.1,2.1
				c-0.3,0.4-0.6,0.8-1,1.1C95.4,97.8,94.4,98.2,93.3,98.2z M93.3,95.1c0.1,0,0.2,0,0.2,0c0.3-0.1,0.5-0.3,0.7-0.5
				c0.3-0.4,0.6-0.8,0.8-1.2c0.3-0.8,0.5-1.5,0.6-2.2c0-0.3,0-0.6,0-0.9c0-1.5-0.4-2.7-1.2-3.7c-0.2-0.3-0.5-0.4-0.8-0.4
				c-0.1,0-0.2,0-0.3,0.1c-0.7,0.3-1.2,1.1-1.7,2.3c-0.3,0.9-0.4,1.7-0.4,2.4c0,1.5,0.4,2.7,1.1,3.6C92.7,94.9,93,95.1,93.3,95.1z"
				/>
		</g>
		<g>
			<path d="M111.2,98.5c-0.3,0-0.6-0.1-1-0.2c-0.3-0.1-0.6-0.3-0.8-0.6c-0.1-0.1-0.1-0.2-0.2-0.3c0-0.1-0.1-0.2-0.1-0.3
				c0-0.1,0-0.2-0.1-0.3l0,0c0,0,0-0.1,0-0.1c0,0,0-0.1,0-0.1c0,0,0-0.1,0-0.1l0,0c0,0,0,0-0.1,0c0,0,0,0-0.1,0.1
				c0,0-0.1,0.1-0.1,0.1c-0.1,0.1-0.2,0.1-0.2,0.2c0,0-0.1,0.1-0.1,0.1c-0.5,0.4-0.9,0.7-1.5,0.9c-0.5,0.2-1.1,0.3-1.7,0.3
				c-0.3,0-0.5,0-0.8-0.1c-0.7-0.2-1.3-0.5-1.8-1c-0.5-0.5-0.9-1-1.2-1.6c-0.3-0.6-0.5-1.2-0.6-1.9c-0.2-0.8-0.2-1.8-0.2-2.8v-0.5
				c0-1.8,0.4-3.7,1.1-5.6c0.1-0.3,0.3-0.5,0.5-0.7c0.2-0.2,0.5-0.3,0.8-0.3l0.2,0c0.4,0,0.8,0.1,1.3,0.2c0.5,0.1,0.8,0.3,1,0.6
				c0.1,0.2,0.2,0.4,0.2,0.6c0,0.2,0,0.4-0.1,0.6c-0.3,0.7-0.5,1.4-0.6,2.1c-0.3,1.7-0.5,3-0.5,4.1c0,0.7,0.1,1.3,0.2,1.8
				c0.1,0.4,0.3,0.8,0.5,0.9c0.2,0.2,0.4,0.3,0.6,0.3c0.1,0,0.2,0,0.3,0c0.7-0.2,1.3-0.8,1.9-1.7c0.6-0.9,1-1.9,1.1-3
				c0-0.4,0.1-0.9,0.2-1.5c0.2-1.3,0.4-2.6,0.5-3.7c0-0.4,0.3-0.7,0.8-0.9c0.5-0.2,1-0.4,1.6-0.4c0.4,0,0.8,0.1,1.1,0.3
				c0.3,0.2,0.5,0.5,0.6,0.9c0,0.1,0,0.2,0,0.4c0,0.8-0.1,2.2-0.3,4.1c-0.1,1.1-0.2,2.2-0.3,3.4s-0.1,2.1-0.1,2.9
				c0,0.4,0,0.8,0.1,1.1c0,0.3,0.1,0.5,0.2,0.6c0.1,0.1,0.1,0.1,0.1,0.2c0,0.1,0,0.1-0.1,0.2s-0.1,0.1-0.1,0.2
				c-0.3,0.3-0.6,0.5-1,0.7S111.6,98.5,111.2,98.5z"/>
		</g>
		<g>
			<path d="M118.1,98.7c-0.1,0-0.3,0-0.7-0.1c-0.3,0-0.7-0.4-0.9-1.1c-0.4-1.4-0.7-3.3-0.7-5.8l0-1.9c0-1.9,0.1-3.9,0.2-6.1
				c0.1-2.2,0.3-4.1,0.4-5.6c0-0.6,0.2-1.1,0.7-1.5c0.5-0.4,1-0.7,1.6-0.8c0.3-0.1,0.6-0.1,0.8-0.1c0.9,0,1.4,0.4,1.4,1.1V77
				c-0.1,0.6-0.2,1.9-0.3,3.7c-0.1,1.9-0.2,4-0.3,6.2c-0.1,1.6-0.1,3-0.1,4.3c0,0.6,0,1.5,0,2.6c0,1.1,0.2,1.8,0.4,2.1
				c0.2,0.2,0.3,0.4,0.3,0.6c0,0.2-0.1,0.4-0.3,0.7c-0.2,0.3-0.6,0.6-1.2,1C119,98.6,118.6,98.7,118.1,98.7z"/>
		</g>
		<g>
			<path d="M132.8,99.3c-0.1,0-0.1,0-0.2,0c-0.6-0.1-1-0.5-1.3-1.1c-0.3-0.6-0.5-1.2-0.6-1.8c-0.1-0.6-0.2-1.1-0.2-1.4
				c-0.1,0.1-0.1,0.1-0.2,0.2l0,0.1c-0.5,0.9-1.2,1.6-2.1,2.2c-0.8,0.5-1.5,0.7-2.3,0.7c-0.3,0-0.9-0.1-1.5-0.3
				c-0.7-0.2-1.3-1-1.8-2.2c-0.3-0.8-0.4-1.7-0.4-2.7c0-0.6,0.1-1.2,0.2-1.8c0.3-2.1,1.1-4,2.5-5.6c0.6-0.8,1.4-1.4,2.4-1.8
				c0.4-0.2,0.9-0.3,1.3-0.3c0.6,0,1.1,0.2,1.7,0.5c0.1,0,0.1,0.1,0.2,0.1c0.1,0,0.1-0.1,0.1-0.2c0-1.4,0.2-3.2,0.3-5.6
				c0-0.4,0.2-0.7,0.6-1c0.5-0.4,1.3-0.7,2.3-0.9l0.2,0c0.1,0,0.2,0,0.3,0c0.3,0,0.6,0.1,0.8,0.3c0.3,0.2,0.4,0.5,0.4,0.9v0.1
				c-0.1,0.7-0.2,2-0.4,3.9c-0.4,4.4-0.6,8-0.6,10.8c0,0.4,0,1.1,0,2.1c0,1,0.2,1.7,0.5,2c0.2,0.2,0.3,0.4,0.3,0.6
				c0,0.1,0,0.2-0.1,0.3C134.3,98.6,133.5,99.3,132.8,99.3z M126,95.3c0.1,0,0.2,0,0.4-0.1c0.3-0.2,0.6-0.4,0.9-0.7
				c1.4-1.6,2.1-3.5,2.2-5.7c0-0.9-0.1-1.6-0.4-2.1c-0.1-0.3-0.3-0.5-0.6-0.5c-0.1,0-0.3,0.1-0.5,0.2c-0.4,0.2-0.8,0.5-1,0.9
				c-1.3,1.7-1.9,3.6-1.9,5.7l0,0.4c0,0.6,0.1,1.1,0.4,1.6C125.6,95.2,125.8,95.3,126,95.3z"/>
		</g>
		<g>
			<path d="M138.6,98.6c-0.4,0-0.8-0.1-1.1-0.3c-0.3-0.2-0.5-0.6-0.7-1c-0.2-0.9-0.3-2.1-0.3-3.6c0-1.7,0.1-3.4,0.2-5.1
				c0.2-1.7,0.3-3,0.5-3.9c0.1-0.3,0.4-0.6,0.9-0.8c0.5-0.2,1-0.3,1.6-0.3c0.4,0,0.7,0,1.1,0.1c0.3,0.1,0.6,0.2,0.8,0.4
				c0.1,0.1,0.2,0.2,0.2,0.4c0,0.2,0,0.3-0.1,0.5c-0.1,0.2-0.1,0.4-0.1,0.5c0.2-0.3,0.5-0.5,0.8-0.7c0.3-0.3,0.7-0.5,1.1-0.7
				c0.4-0.2,0.8-0.3,1.2-0.3c0.1,0,0.2,0,0.4,0c0.8,0.1,1.5,0.3,2.1,0.8c0.5,0.5,0.9,1.1,1.2,1.8c0.3,0.7,0.5,1.5,0.6,2.4
				c0.1,0.9,0.2,1.8,0.2,2.7c0,0.6,0,1.3,0,1.9s-0.1,1.2-0.1,1.7c0,0.7-0.1,1.3-0.1,1.7c0,0.2,0,0.4-0.1,0.6
				c-0.1,0.2-0.2,0.4-0.3,0.5c-0.2,0.1-0.4,0.2-0.6,0.3c-0.3,0.1-0.5,0.1-0.8,0.1c-0.5,0-0.8-0.1-1.1-0.2c-0.2-0.1-0.3-0.2-0.4-0.3
				c-0.1-0.1-0.2-0.3-0.2-0.5c-0.1-0.4-0.2-1-0.2-1.6c0-0.8,0-1.7,0.1-2.6c0-0.3,0-0.6,0.1-0.8c0-0.5,0-0.9,0-1.3
				c0-1.3-0.1-2.3-0.3-2.9c-0.2-0.6-0.5-0.9-0.9-0.9c-0.5,0-1,0.5-1.6,1.5c-0.6,1-1,2.3-1.4,3.9c-0.1,0.5-0.2,1-0.2,1.5
				c0,0.5,0,1,0,1.5v1.2l0,0.7c0,0.2,0,0.4-0.1,0.5c-0.1,0.1-0.2,0.2-0.4,0.3C139.7,98.5,139.1,98.6,138.6,98.6z"/>
		</g>
		<g>
			<path d="M151.7,77.6c-0.1,0-0.2,0-0.4,0c-0.3-0.1-0.5-0.3-0.8-0.5s-0.4-0.5-0.4-0.8v0c0-0.2,0.1-0.4,0.2-0.6l0.4-0.9
				c0.2-0.5,0.5-1,0.7-1.5c0.1-0.2,0.3-0.4,0.5-0.5s0.5-0.2,0.7-0.2c0.3,0,0.5,0.1,0.7,0.2c0.5,0.3,0.7,0.6,0.7,1.1
				c0,0.2,0,0.4-0.1,0.6c-0.4,0.8-0.9,1.7-1.3,2.5c-0.1,0.2-0.3,0.4-0.5,0.5C152.1,77.6,151.9,77.6,151.7,77.6z"/>
		</g>
		<g>
			<path d="M159.1,98.8c-0.3,0-0.5-0.1-0.8-0.2c-0.2-0.1-0.4-0.3-0.6-0.6c-0.2-0.3-0.2-0.7-0.3-1.2c-0.1-2.3-0.2-4.6-0.2-7
				c0-1.5,0-3.1,0.1-4.9c0-0.2-0.1-0.2-0.2-0.2h0c-0.3,0-0.7,0-1.3,0c-0.4,0-0.8-0.2-1.1-0.4c-0.3-0.3-0.4-0.6-0.4-0.9
				c0-0.1,0-0.3,0.1-0.4c0.2-0.5,0.5-0.9,1.1-1c0.3,0,0.6-0.1,0.9-0.1l0.7,0c0.2,0,0.3,0,0.4-0.1s0.1-0.2,0.1-0.3
				c0-0.5,0-1.1,0.1-1.6c0.1-0.6,0.1-1.2,0.1-2c0-0.4,0.2-0.7,0.5-1.1c0.3-0.3,0.8-0.6,1.2-0.8c0.5-0.2,1-0.3,1.4-0.3
				c0.4,0,0.7,0.1,1,0.3c0.3,0.2,0.4,0.5,0.4,0.8l0,0.2c0,0.2-0.1,0.5-0.1,1.1c-0.1,0.6-0.1,1.2-0.2,1.9c-0.1,0.7-0.1,1.1-0.1,1.4
				c0,0.1,0,0.2,0,0.2c0.1,0,0.1,0.1,0.2,0.1c0.1,0,0.2,0,0.2,0c0.1,0,0.3,0,0.6,0v0h0.9c0.4,0,0.7,0.2,1,0.4
				c0.3,0.2,0.4,0.6,0.4,0.9c0,0.4-0.1,0.7-0.4,1c-0.2,0.3-0.6,0.4-1,0.4c-0.4,0-0.9,0.1-1.6,0.1c-0.4,0-0.7,0-0.7,0
				c-0.1,0-0.1,0.1-0.1,0.2l0,0.4c-0.1,0.6-0.1,1.6-0.2,3c-0.1,1.4-0.1,2.7-0.1,4.1c0,2.6,0.1,3.9,0.3,4.1c0.2,0.1,0.3,0.3,0.3,0.5
				c0,0.4-0.3,0.8-0.9,1.2C160.3,98.6,159.7,98.8,159.1,98.8z"/>
		</g>
	</g>
	<g>
		<g>
			<path d="M33.4,108.5c0-0.3,0.3-0.6,0.6-0.6c0.3,0,1.6-0.1,2-0.1h0.7c2,0,4.1,0.9,4.6,3.1v0.9c0,2.7-1,5.5-2.8,7.5
				c-0.3,0.4-1,0.8-1.3,1.2c2.3,0.6,3.2,3,3.2,5.2c0,3.8-0.6,9-5.2,9h-0.9c-0.5-0.1-0.7-0.5-0.8-0.9l-0.3-3.6v-8.7L33.4,108.5z
				 M36,109.1c-0.3,0-1.1,0.1-1.1,0.1l-0.1,0.1c0,0-0.1,1.4-0.1,2c0,1.3,0,7.6,0,9h0.2c3.3-1.2,5.2-5.1,5.2-8.5c0-0.1,0-0.7,0-0.8
				c-0.3-1.4-2.1-1.9-3.3-1.9H36z M34.7,122v8.3c0,0.2,0.1,1.9,0.2,2.5c0,0.1,0.1,0.5,0.1,0.5h0.5c3.4,0,3.6-5.2,3.6-7.7
				c0-2.2-0.8-3.9-3.3-3.9C35.7,121.7,34.7,121.7,34.7,122z"/>
		</g>
		<g>
			<path d="M44.3,108.7c0-0.6,1.5-0.7,1.9-0.7c0.6,0,4.2-0.3,4.2,1c0,0.3-0.3,0.6-0.7,0.6h-0.1c-1.1-0.2-2.3-0.3-3.4-0.3h-0.5l0,0.1
				v1.1c0,1.5,0.2,8.9,0.3,10.3h0c0.4,0,2.2-0.4,2.6-0.5c0.4-0.1,0.5-0.1,0.8-0.1c0.4,0,0.7,0.2,0.7,0.6c0,0.3-0.1,0.6-0.5,0.7
				l-3.1,0.6c-0.2,0.2-0.3,0.3-0.5,0.3c0,0.2,0,1.2,0,1.5c0,0.3,0,1.3,0,1.5l0.4,7.5h0.1c1.4-0.3,2.8-0.6,4.2-0.6
				c0.5,0,0.8,0.1,0.8,0.7c0,0.3-0.2,0.6-0.5,0.6l-3.2,0.5c-0.2,0-1.2,0.2-1.3,0.2c0,0-0.3,0-0.4,0c-0.7,0-1-0.5-1.1-1.1l-0.7-22.5
				V108.7z"/>
		</g>
		<g>
			<path d="M67.6,110.2l-0.1-0.4h-0.1c-0.3,0.1-1.4,0.3-1.5,0.3c-0.3,0.1-0.3,0.3-0.7,0.3c-0.4,0-0.7-0.4-0.7-0.8
				c0-0.3,0.2-0.5,0.5-0.7c1.7-0.4,3.4-0.8,5.1-0.8h0.2c0.3,0,1.3,0.1,1.3,0.1h0.1c0.5,0.1,1.3,0.2,1.3,0.9c0,0.4-0.3,0.8-0.7,0.8
				h-0.2c-0.1,0-0.5-0.3-0.5-0.3c-0.3-0.1-1-0.1-1.5-0.1c-0.4,0-0.5,0-1,0.1c-0.1,0-0.2,0.2-0.2,0.3c0,1,0,4.6,0,5.6v6.3
				c0,1.8,0.4,10.1,0.5,11.9v0.3c0,0.4-0.3,0.7-0.7,0.7c-0.3,0-0.5-0.2-0.6-0.5C67.6,125.7,67.7,117.6,67.6,110.2z"/>
		</g>
		<g>
			<path d="M75.4,108.6c0-0.3,0.4-0.4,0.7-0.4c0.2,0,0.6,0.2,0.7,0.5L76.1,123l5.2-0.5l0.5-14.1c0-0.3,0.4-0.4,0.7-0.4
				c0.3,0,0.7,0.2,0.7,0.5l-1.1,25.8c0,0.3-0.4,0.5-0.7,0.5c-0.3,0-0.6-0.1-0.7-0.4c0-0.1,0-0.6,0-0.7c0-2.9,0.4-6.8,0.4-9.7h-0.8
				l-4.3,0.4l-0.2,9.7c0,0.4-0.3,0.5-0.6,0.5c-0.2,0-0.7,0-0.7-0.3v-5.1L75.4,108.6z"/>
		</g>
		<g>
			<path d="M87,108.7c0-0.6,1.5-0.7,1.9-0.7c0.6,0,4.2-0.3,4.2,1c0,0.3-0.3,0.6-0.7,0.6h-0.1c-1.1-0.2-2.3-0.3-3.4-0.3h-0.5l0,0.1
				v1.1c0,1.5,0.2,8.9,0.3,10.3h0c0.4,0,2.2-0.4,2.6-0.5c0.4-0.1,0.5-0.1,0.8-0.1c0.4,0,0.7,0.2,0.7,0.6c0,0.3-0.1,0.6-0.5,0.7
				l-3.1,0.6c-0.2,0.2-0.3,0.3-0.5,0.3c0,0.2,0,1.2,0,1.5c0,0.3,0,1.3,0,1.5l0.4,7.5h0.1c1.4-0.3,2.8-0.6,4.2-0.6
				c0.5,0,0.8,0.1,0.8,0.7c0,0.3-0.2,0.6-0.5,0.6l-3.2,0.5c-0.2,0-1.2,0.2-1.3,0.2c0,0-0.3,0-0.4,0c-0.7,0-1-0.5-1.1-1.1L87,110.6
				V108.7z"/>
		</g>
		<g>
			<path d="M108.1,129.4c0.2,0,0.3,0.1,0.4,0.2l0.2,0.2c0.3,1.2,1.1,3.7,2.7,3.7c1,0,1.8-0.8,1.8-1.8c0-0.7-0.2-1.4-0.5-2l-3.8-8.2
				c-0.9-2-1.6-4.5-1.6-6.7c0-2.7,1.5-6.9,4.8-6.9c2.2,0,3.1,2.2,3.1,4.1c0,0.8-0.1,1.7-0.3,2.5c-0.1,0.3-0.3,0.3-0.6,0.3
				c-0.5,0-0.7-0.2-0.7-0.7c0-0.7,0.2-1.4,0.2-2.1c0-1.1-0.4-2.7-1.8-2.7c-2.4,0-3.4,3.8-3.4,5.6c0,1.5,0.4,3.5,1,4.9
				c4.5,9.7,4.9,10.8,4.9,12c0,1.7-1.4,3.1-3.1,3.1c-1.8,0-2.8-1.5-3.4-3c-0.2-0.5-0.4-1.1-0.4-1.6
				C107.6,129.7,107.7,129.4,108.1,129.4z"/>
		</g>
		<g>
			<path d="M120.7,108.5c0.1-0.4,0.3-0.7,0.7-0.7c0.9,0,1.3,1.3,1.5,2.1c0,0,0,0.1,0,0.2c0.2,0.7,1.1,3.8,1.3,4.5
				c0.3,1.4,1.2,5.9,1.3,6.5l1.3,12.2v0.4c0,0.4-0.1,0.9-0.6,0.9c-0.3,0-0.6-0.3-0.7-0.6l-0.5-5.5l-0.1-0.1h-1.1c-1.5,0-2.5,0-4,0.2
				c0,0.3-0.1,1.5-0.1,1.8c0,0.5,0,3.4,0,3.9c0,0.3-0.3,0.6-0.7,0.6c-0.2,0-0.6-0.2-0.6-0.4C118.2,126,119,117.3,120.7,108.5z
				 M121.6,110.7c-0.8,4.8-1.6,10-1.8,16.4c0.2,0,1,0,1.1,0c0.6,0,3.2-0.2,3.8-0.2v-0.3c0-0.3-0.4-3.8-0.6-4.9
				c-0.2-1.1-1-5.5-1.2-6.4c-0.3-1.3-1.2-4.5-1.3-4.6L121.6,110.7z"/>
		</g>
		<g>
			<path d="M132.1,109.1l4.1,20.3c0.6-9.6,2-17.3,2.3-20.1c0,0,0-0.1,0-0.1s0,0,0-0.1c0.2-0.6,0.3-1.2,0.9-1.2c0.6,0,0.8,0.5,0.8,1
				l3.1,24v1c0,0-0.3,0.3-0.4,0.3c0,0-0.1,0-0.2,0c-0.4,0-0.7-0.3-0.8-0.7l-2.8-22.2l-2.2,21.8c0,0.5-0.1,1.1-0.7,1.1
				c-0.3,0-0.6-0.2-0.6-0.5l-4.6-22.5l-0.2,19.3c0,0.4,0.2,2.4,0.2,2.8v0.3c0,0.4-0.1,0.8-0.6,0.8c-0.4,0-0.6-0.3-0.7-0.6
				c-0.2-1.1-0.2-2.1-0.2-3.3l0.3-20.3l0.2-1.1c0.1-0.5,0.2-1.2,0.8-1.2C131.6,107.8,132,108.6,132.1,109.1z"/>
		</g>
		<g>
			<path d="M146.1,108.7c0-0.6,1.5-0.7,1.9-0.7c0.6,0,4.2-0.3,4.2,1c0,0.3-0.3,0.6-0.7,0.6h-0.1c-1.1-0.2-2.3-0.3-3.4-0.3h-0.5
				l0,0.1v1.1c0,1.5,0.2,8.9,0.3,10.3h0c0.4,0,2.2-0.4,2.6-0.5c0.4-0.1,0.5-0.1,0.8-0.1c0.4,0,0.7,0.2,0.7,0.6
				c0,0.3-0.1,0.6-0.5,0.7l-3.1,0.6c-0.2,0.2-0.3,0.3-0.5,0.3c0,0.2,0,1.2,0,1.5c0,0.3,0,1.3,0,1.5l0.4,7.5h0.1
				c1.4-0.3,2.8-0.6,4.2-0.6c0.5,0,0.8,0.1,0.8,0.7c0,0.3-0.2,0.6-0.5,0.6l-3.2,0.5c-0.2,0-1.2,0.2-1.3,0.2c0,0-0.3,0-0.4,0
				c-0.6,0-1-0.5-1.1-1.1l-0.7-22.5V108.7z"/>
		</g>
	</g>
	<g>
		<g>
			<path class="st0" d="M9,138.5c0,4.3,2.1,6.2,6.2,6.2c-4.1,0.5-5.9,0.9-6.1,6.6c-0.1-0.9-0.2-1.6-0.4-2.4
				c-0.5-2.4-1.7-3.6-4.1-3.9c-0.7-0.1-1.4-0.2-2.1-0.3C6.6,144.7,9,143.1,9,138.5z"/>
		</g>
		<g>
			<path class="st0" d="M8,137.7c-3,0.6-3.4,1.1-3.8,4c-0.1-2.7-1.5-4-4.2-3.9c3-0.3,3.5-0.7,4.2-4c0.1,1.2,0.2,2.1,0.8,2.9
				C5.7,137.4,6.7,137.5,8,137.7z"/>
		</g>
		<g>
			<path class="st0" d="M13.4,138.5c0.1,1.4,1.1,1.7,2,1.8c-0.9,0.1-1.9,0.4-1.9,1.8c-0.3-1.1-0.8-1.8-2-1.8
				C12.5,140.2,13.2,139.7,13.4,138.5z"/>
		</g>
	</g>
	<g>
		<g>
			<path class="st0" d="M175.5,112.2c-3,0.6-3.4,1.1-3.8,4c-0.1-2.7-1.5-4-4.2-3.9c3-0.3,3.5-0.7,4.2-4c0.1,1.2,0.2,2.1,0.8,2.9
				C173.3,111.9,174.3,112,175.5,112.2z"/>
		</g>
		<g>
			<path class="st0" d="M173.6,115.7c0.1,1.4,1.1,1.7,2,1.8c-0.9,0.1-1.9,0.4-1.9,1.8c-0.3-1.1-0.8-1.8-2-1.8
				C172.7,117.4,173.4,116.9,173.6,115.7z"/>
		</g>
	</g>
	<g>
		<g>
			<path d="M171.5,175.7c-0.8-0.3-1.5-0.9-2-1.8c-0.9-1.5-1.4-3.4-1.2-5.5c0.1-2.3,0.8-4,2.1-5.3c1.5-1.5,3.6-1.8,6.1-1.1
				c1.7,0.5,2.7,1.6,3,3.3c0.3,1.4,0.1,3-0.6,4.8c-0.7,1.7-1.6,3.1-2.9,4.2c-1.4,1.2-2.8,1.7-4.2,1.6
				C171.7,175.9,171.6,175.8,171.5,175.7z M177.6,160.8c-1,0.1-2.3,0-3.9-0.3c-2-0.3-3.3-0.8-3.9-1.3c-0.2-0.1-0.2-0.3-0.2-0.5v0v0
				v0v0v0l0-0.1v-0.1v0v-0.1V158c0,0,0-0.1,0-0.1c0.7-2.7,1-5.7,0.9-8.8c0-1.3-0.1-2.8-0.3-4.5c-0.1-0.8-0.3-2.3-0.5-4.6
				c-0.1-0.7-0.1-1.2-0.2-1.6v0c0-0.1,0-0.1,0-0.2c0,0,0-0.1,0-0.1c0-0.1,0-0.1,0-0.1c0-0.1-0.1-0.2-0.1-0.2c0-0.1-0.1-0.2-0.1-0.3
				c-0.1-0.3-0.1-0.6-0.1-0.8c0-0.2,0-0.3,0-0.4c0-0.2,0.1-0.4,0.3-0.5c0.2-0.1,0.8-0.2,1.8-0.1c0.8,0.1,1.8,0.2,2.9,0.4
				c1.1,0.2,2.1,0.4,2.9,0.6c1,0.2,1.6,0.5,1.8,0.8c0.3,0.5,0.5,1.9,0.7,4.3c0.2,2.3,0.2,4.8,0.2,7.5c0,3-0.2,5.4-0.4,7.3
				c-0.1,1.1-0.3,1.9-0.5,2.6c-0.2,0.7-0.5,1.2-0.9,1.4C177.9,160.8,177.8,160.8,177.6,160.8z M173.5,174.5c1.2-0.9,1.9-1.7,2.4-2.2
				c0.6-0.7,1-1.6,1.3-2.8c0.2-0.9,0.3-1.8,0.1-2.8c-0.1-0.9-0.5-1.8-1-2.6c-0.4-0.6-0.9-1.1-1.4-1.4c-1.6-0.2-2.9,0.2-3.8,1.1
				c-1.1,1-1.7,2.5-1.8,4.5c-0.1,1.9,0.2,3.5,1,4.7C171.1,174.5,172.2,174.9,173.5,174.5C173.4,174.5,173.4,174.5,173.5,174.5z
				 M170.6,158.2c0.8-2.9,1.3-6.6,1.4-10.9c0.1-4.7-0.2-8.2-1-10.4c-0.2,0-0.4,0-0.6,0c0,0-0.1,0-0.1,0c0,0.1,0,0.3,0.1,0.4
				c0,0.1,0,0.2,0,0.3l0.1,0.5c0.1,0.2,0.1,0.3,0.1,0.4c0.1,0.5,0.1,1,0.2,1.6c0.3,2.3,0.4,3.9,0.5,4.6c0.2,1.7,0.3,3.3,0.3,4.6
				C171.7,152.3,171.4,155.4,170.6,158.2z M171.1,158.7c0.7,0.2,1.5,0.5,2.6,0.6c1.4,0.2,2.6,0.3,3.6,0.3c0.1-0.1,0.1-0.1,0.2-0.1
				l0.1-0.1c0.1-0.1,0.2-0.3,0.3-0.6c0.2-0.5,0.3-1.3,0.5-2.3c0.2-1.9,0.4-4.3,0.4-7.2c0-2.6,0-5.1-0.2-7.4
				c-0.1-1.1-0.1-1.9-0.2-2.6c-0.1-0.5-0.2-0.9-0.2-1.1c-0.1,0-0.1-0.1-0.2-0.1c-0.2-0.1-0.6-0.2-0.9-0.3c-0.8-0.2-1.7-0.4-2.8-0.5
				c-0.9-0.2-1.8-0.3-2.5-0.3c0.7,2.4,1.1,5.9,0.9,10.4C172.5,151.9,172,155.7,171.1,158.7z M176.3,163.2c0.2,0.2,0.4,0.4,0.5,0.7
				c0.6,0.9,1,1.8,1.1,2.8c0.2,1,0.1,2.1-0.2,3.1c-0.2,0.5-0.3,1-0.5,1.5c0.3-0.5,0.6-1.1,0.8-1.6c0.6-1.6,0.8-2.9,0.6-4.1
				C178.3,164.3,177.5,163.5,176.3,163.2L176.3,163.2z"/>
		</g>
	</g>
	<g>
		<g>
			<path d="M115.9,159.9l-6.3-19h5.5l3.6,12.2h0.1l3.6-12.2h5.1l-6.3,19V174h-5.2V159.9z"/>
		</g>
		<g>
			<path d="M130.5,172.3c-1.4-1.5-2-3.5-2-6.2v-17.4c0-2.7,0.7-4.7,2-6.2s3.3-2.2,5.9-2.2c2.6,0,4.5,0.7,5.9,2.2
				c1.4,1.5,2,3.5,2,6.2v17.4c0,2.7-0.7,4.7-2,6.2c-1.4,1.5-3.3,2.2-5.9,2.2C133.9,174.5,131.9,173.8,130.5,172.3z M139.1,166.5
				v-18.1c0-2.2-0.9-3.3-2.7-3.3s-2.7,1.1-2.7,3.3v18.1c0,2.2,0.9,3.3,2.7,3.3S139.1,168.7,139.1,166.5z"/>
		</g>
		<g>
			<path d="M149.6,172.3c-1.3-1.4-2-3.5-2-6.2v-25.3h5.2v25.7c0,1.1,0.2,2,0.7,2.5c0.5,0.5,1.1,0.8,2,0.8c0.9,0,1.5-0.3,2-0.8
				c0.5-0.5,0.7-1.3,0.7-2.5v-25.7h5v25.3c0,2.7-0.7,4.7-2,6.2c-1.3,1.4-3.3,2.2-5.8,2.2S151,173.8,149.6,172.3z"/>
		</g>
	</g>
	<g>
		<path d="M120.5,20.9c-0.9-1.1-2.8-1.8-4.1-0.9c-1,0.8-1,2.2,0,3c-0.3-0.1-0.6-0.2-0.8-0.3c-0.2-0.1-0.4,0.1-0.2,0.3
			c0.2,0.1,0.3,0.2,0.5,0.3c-2,1.1-6,3.5-7.4,2.8c-0.9-0.5-2.2-3.1-2.8-3.9c-0.9-1.3-1.9-2.6-2.8-3.8c-3.5-4.6-7.1-9.2-10.8-13.6
			c0.9-0.1,1.8-0.5,2-1.5c0.4-1.6-1.2-2.7-2.5-3.1c-1.3-0.4-2.6,0.1-2.7,1.6c-0.1,1.2,0.8,2.1,1.8,2.5c-2.7,5.6-5.7,11.2-8.9,16.6
			c-0.7,1.2-1.4,2.4-2.2,3.6c-0.5,0.8-1.6,3.4-2.5,3.6c-0.8,0.2-2.7-1.5-3.6-2c-1.3-0.8-2.5-1.5-3.8-2.2c0,0,0-0.1,0-0.1
			c0.9-0.1,1.6-1.1,1.5-2.1c-0.3-1.6-2.3-2.6-3.8-2.4c-1.5,0.2-2.2,1.8-1.7,3.2c0.4,1.3,1.8,1.9,3.1,1.9c1.8,4.2,3.5,8.3,5.4,12.5
			c0.1,0.1,0.2,0.2,0.3,0.2l0,0.1c-0.1,0-0.3,0-0.4,0c-0.3,0-0.4,0.6-0.1,0.6c12.1,2.1,24.6,2.3,36.8,1.6c0.5,0,0.6-0.5,0.5-0.8
			c0.2,0,0.3-0.1,0.4-0.2c2-4.7,3.7-9.5,5.6-14.3c0.9,0.3,1.7,0.3,2.6,0C121.2,23.4,121.4,22,120.5,20.9z M69,23.1
			c-0.2-0.1-0.4,0.2-0.2,0.4c0,0,0.1,0,0.1,0c-0.7,0-1.4-0.1-2-0.7c-0.6-0.6-0.8-1.7-0.2-2.4c0.7-0.8,2-0.4,2.8,0
			c0.5,0.3,0.9,0.7,1,1.2C70.7,22.6,70,23.6,69,23.1z M94.5,20.4c1.2,0,2.4,0.7,3,1.7c0.2,0.3-0.3,0.6-0.4,0.3
			c-0.6-0.9-1.5-1.5-2.6-1.6C94.3,20.8,94.2,20.4,94.5,20.4z M93.4,21.5c1.1-0.1,2.3,0.3,3.1,1.1c0.2,0.2-0.1,0.5-0.3,0.3
			c-0.8-0.7-1.7-1-2.8-1.1C93.2,21.8,93.2,21.5,93.4,21.5z M89.7,2.2c-0.1-0.4,0-0.9,0.3-1.2c0.5-0.5,1.3-0.2,1.9,0
			c0.9,0.4,2,1.3,1.5,2.4c-0.2,0.5-0.7,0.7-1.3,0.8c0-0.2,0-0.4-0.3-0.4C91,3.6,89.9,3.2,89.7,2.2z M84.9,36.5
			c-1.6-0.3-3.1-0.2-4.7,0c-0.2,0-0.3-0.2-0.1-0.3c1.6-0.3,3.3-0.4,4.9-0.2C85.3,36.1,85.2,36.5,84.9,36.5z M86.1,35.4
			c-1.7,0-3.3,0-5,0c-0.2,0-0.2-0.4,0-0.4c1.7-0.1,3.3-0.1,5-0.2C86.4,34.9,86.4,35.4,86.1,35.4z M96.1,30.9c-2.2,1.1-5.7-0.2-7-2.3
			c-1.1-1.9-0.6-4.1,1-5.4c0-0.2,0-0.3,0.2-0.4c2.3-1.1,5.7,0,7.3,2C99.1,26.9,98.3,29.8,96.1,30.9z M120.1,22.9
			c-0.5,0.8-1.7,0.7-2.7,0.4c0-0.2-0.2-0.3-0.3-0.4c0.1-0.2,0.1-0.4-0.1-0.6c-0.7-0.4-0.5-1.3,0-1.7c0.4-0.3,1-0.3,1.5-0.1
			C119.3,20.8,120.9,21.8,120.1,22.9z"/>
	</g>
</g>
</svg>
