<?xml version="1.0" encoding="utf-8"?>
<!-- Generator: Adobe Illustrator 25.2.1, SVG Export Plug-In . SVG Version: 6.00 Build 0)  -->
<svg version="1.1" id="Layer_1" xmlns="http://www.w3.org/2000/svg" xmlns:xlink="http://www.w3.org/1999/xlink" x="0px" y="0px"
	 viewBox="0 0 180 122.5" style="enable-background:new 0 0 180 122.5;" xml:space="preserve">
<style type="text/css">
	.st0{fill:#1B1B1B;}
	.st1{fill:#FFFFFF;}
	.st2{fill:#292929;}
	.st3{fill:none;stroke:#000000;stroke-width:0.25;}
	.st4{fill:none;stroke:#000000;stroke-width:0.5;stroke-miterlimit:10;}
	.st5{stroke:#000000;stroke-width:0.25;stroke-miterlimit:10;}
	.st6{fill:none;stroke:#000000;stroke-miterlimit:10;}
	.st7{stroke:#000000;stroke-miterlimit:10;}
	.st8{fill:none;stroke:#000000;stroke-width:0.25;stroke-miterlimit:10;}
</style>
<g>
	<g>
		<g>
			<path d="M38.2,47.1c-0.1,0.5-0.3,0.8-0.6,1.1c-0.3,0.3-0.7,0.5-1.2,0.5c-0.1,0-0.2,0-0.2,0c-0.3,0-0.6-0.1-0.9-0.3
				c-0.2-0.1-0.5-0.3-0.6-0.5c-0.2-0.2-0.3-0.4-0.4-0.7c-0.1-0.3-0.1-0.5-0.1-0.7c0-0.1,0-0.2,0-0.3c0-0.5,0.1-1.2,0.2-2.1
				c0.1-0.9,0.2-1.8,0.4-2.8c0.2-1,0.4-2,0.6-3c0.3-1,0.6-1.9,1-2.7c0.4-0.8,0.8-1.5,1.4-2c0.5-0.5,1.1-0.8,1.8-0.8
				c0.6,0,1.1,0.2,1.6,0.5c0.5,0.3,0.9,0.7,1.3,1.2c0.4,0.5,0.7,1.1,1,1.7c0.3,0.6,0.5,1.3,0.7,2c0.2,0.7,0.4,1.3,0.5,1.9
				c0.1,0.6,0.3,1.1,0.4,1.6c0.1,0.4,0.2,0.8,0.3,1.2c0.1,0.5,0.2,0.9,0.3,1.4c0.1,0.5,0.1,0.9,0.2,1.4c0,0.5,0.1,0.9,0.1,1.2
				c0,0.6-0.2,1.1-0.5,1.3c-0.4,0.3-0.8,0.4-1.2,0.4c-0.3,0-0.5,0-0.8-0.1c-0.2-0.1-0.5-0.2-0.7-0.4c-0.2-0.2-0.4-0.4-0.5-0.6
				c-0.1-0.2-0.2-0.5-0.2-0.8c0-0.1,0-0.1,0-0.2c0-0.1,0-0.2,0-0.2c0-0.2,0-0.4,0-0.6c0-0.2-0.1-0.4-0.1-0.6c0-0.2-0.1-0.4-0.1-0.6
				c0-0.2-0.1-0.4-0.1-0.6c-0.5,0-1,0-1.5,0c-0.5,0-1,0.1-1.5,0.1c-0.1,0.5-0.1,1.1-0.2,1.6C38.3,46,38.2,46.5,38.2,47.1z
				 M37.3,46.4c0.1-0.4,0.1-0.7,0.1-1.1c0-0.3,0.1-0.7,0.1-1.2c0.1-0.4,0.1-0.9,0.2-1.4c0.6,0,1.1-0.1,1.7-0.1c0.6,0,1.1,0,1.7,0
				c0.2,0,0.3,0,0.4,0c0.1,0,0.3,0,0.4,0c0.2,0.9,0.3,1.6,0.4,2.3c0.1,0.7,0.1,1.1,0.1,1.4c0,0.4,0.1,0.7,0.4,0.9
				c0.2,0.2,0.6,0.4,0.9,0.4c0.4,0,0.7-0.1,0.9-0.4c0.2-0.2,0.4-0.6,0.4-0.9c0-0.2,0-0.4,0-0.7c0-0.3-0.1-0.7-0.1-1.2
				c-0.1-0.4-0.1-0.9-0.2-1.5c-0.1-0.5-0.2-1.1-0.3-1.7c0-0.1,0-0.1,0-0.1c-0.1-0.4-0.2-0.8-0.3-1.4c-0.1-0.5-0.3-1.1-0.5-1.7
				c-0.2-0.6-0.4-1.2-0.7-1.7c-0.2-0.6-0.5-1.1-0.8-1.5c-0.3-0.5-0.7-0.8-1.1-1.1c-0.4-0.3-0.8-0.4-1.3-0.4c-0.5,0-1,0.2-1.4,0.6
				c-0.4,0.4-0.8,0.9-1.1,1.5c-0.3,0.6-0.6,1.3-0.9,2c-0.2,0.8-0.4,1.6-0.6,2.4c-0.2,0.8-0.3,1.6-0.4,2.4c-0.1,0.8-0.2,1.5-0.3,2
				c-0.1,0.6-0.1,1.3-0.2,2c0,0.4,0.1,0.7,0.3,1c0.2,0.3,0.5,0.4,0.9,0.5c0,0,0.1,0,0.1,0c0.3,0,0.6-0.1,0.9-0.3
				C37.1,47,37.2,46.7,37.3,46.4z M41.4,40.1c-0.5,0-1.1,0-1.6,0c-0.5,0-1.1,0-1.6,0.1c0.1-0.6,0.2-1.1,0.3-1.6
				c0.1-0.5,0.2-1,0.3-1.4c0.1-0.4,0.2-0.7,0.4-0.9c0.1-0.2,0.2-0.3,0.4-0.3c0.1,0,0.2,0,0.3,0.1c0.1,0.1,0.3,0.3,0.4,0.7
				s0.3,0.7,0.4,1.1c0.1,0.4,0.3,0.8,0.4,1.2C41.2,39.5,41.3,39.9,41.4,40.1z M40,37.3c-0.2,0.4-0.3,0.8-0.4,1.1s-0.2,0.8-0.3,1.2
				c0.2,0,0.5,0,0.7,0s0.5,0,0.7,0c-0.1-0.4-0.2-0.8-0.4-1.2C40.2,38,40.1,37.6,40,37.3z"/>
		</g>
		<g>
			<path d="M48.2,35.6c0.3,0,0.6,0.1,0.9,0.2c0.3,0.1,0.5,0.4,0.7,0.7c0.4-0.2,0.7-0.3,1.1-0.3c0.4-0.1,0.8-0.1,1.2-0.1
				c0.9,0,1.6,0.1,2.3,0.4c0.6,0.3,1.2,0.7,1.6,1.1c0.4,0.5,0.8,1.1,1,1.7c0.3,0.7,0.4,1.4,0.5,2.2c0.1,0.6,0.1,1.3,0.1,1.9
				c0,0.6,0,1.3-0.1,1.9c0,0.3-0.1,0.6-0.1,0.9c0,0.3-0.1,0.6-0.1,0.9c-0.1,0.5-0.3,0.9-0.7,1.1c-0.3,0.2-0.7,0.3-1.1,0.3
				c-0.3,0-0.6,0-0.9-0.1c-0.3-0.1-0.5-0.2-0.7-0.4c-0.2-0.2-0.4-0.4-0.5-0.7c-0.1-0.3-0.1-0.6-0.1-0.9c0.1-0.6,0.2-1.2,0.2-1.8
				c0.1-0.6,0.1-1.2,0.1-1.8c0-0.2,0-0.4,0-0.7c0-0.3,0-0.6-0.1-0.9c-0.1-0.3-0.1-0.6-0.3-0.9c-0.1-0.3-0.3-0.5-0.4-0.6
				c-0.1,0-0.1,0-0.2,0s-0.1,0-0.2,0c-0.6,0-1,0.2-1.4,0.5s-0.6,0.7-0.8,1.2c0,0.6,0.1,1.1,0.1,1.7c0,0.6,0.1,1.1,0.1,1.7
				c0,0.3,0.1,0.6,0.1,0.9s0.1,0.6,0.2,0.9c0.1,0.5,0,0.9-0.2,1.3c-0.3,0.4-0.6,0.7-1.1,0.8c-0.1,0-0.1,0-0.2,0c-0.1,0-0.1,0-0.2,0
				c-0.2,0-0.5,0-0.7-0.1c-0.2-0.1-0.5-0.2-0.7-0.3c-0.2-0.1-0.4-0.3-0.5-0.5c-0.1-0.2-0.2-0.4-0.3-0.6c-0.1-0.3-0.1-0.6-0.2-1
				c0-0.3-0.1-0.6-0.1-1c-0.2-1.3-0.3-2.6-0.3-3.9c0-1.3-0.1-2.6-0.1-3.9c0-0.3,0.1-0.5,0.2-0.8c0.1-0.2,0.3-0.4,0.4-0.6
				c0.2-0.2,0.4-0.3,0.6-0.4S47.9,35.6,48.2,35.6z M49.2,37.3c0-0.3-0.2-0.6-0.4-0.8c-0.2-0.2-0.5-0.3-0.9-0.3
				c-0.4,0-0.7,0.1-0.9,0.4c-0.2,0.2-0.4,0.6-0.4,0.9c0,0.3,0,0.7,0,1.1c0,0.3,0,0.7,0,1.1c0,0.4,0,0.9,0.1,1.4c0,0.4,0,0.9,0,1.4
				c0,0.5,0.1,1.1,0.1,1.6c0,0.6,0.1,1.1,0.2,1.6c0.1,0.5,0.1,1,0.2,1.4c0.1,0.3,0.2,0.5,0.5,0.7c0.2,0.2,0.5,0.3,0.8,0.3
				c0.1,0,0.1,0,0.1,0c0,0,0.1,0,0.1,0c0.3-0.1,0.6-0.3,0.8-0.6c0.2-0.3,0.2-0.6,0.1-1c-0.1-0.3-0.1-0.7-0.2-1.1
				c0-0.4-0.1-0.8-0.1-1.3s-0.1-0.9-0.1-1.4c0-0.5-0.1-1-0.1-1.4c0.2-0.6,0.6-1.1,1-1.5s1-0.6,1.7-0.6c0.2,0,0.4,0,0.6,0.1
				c0.4,0.1,0.7,0.3,0.9,0.7c0.2,0.4,0.4,0.9,0.5,1.4c0.1,0.5,0.1,1.1,0.1,1.7c0,0.6,0,1.2-0.1,1.7c0,0.5-0.1,1.1-0.2,1.8
				c-0.1,0.4,0,0.7,0.2,0.9c0.2,0.3,0.5,0.5,0.8,0.5c0,0,0.1,0,0.2,0c0.3,0,0.6-0.1,0.8-0.3c0.2-0.2,0.4-0.4,0.4-0.8
				c0.1-0.9,0.2-1.8,0.3-2.5c0-0.7,0-1.5,0-2.3c0-0.8-0.2-1.6-0.4-2.4c-0.2-0.8-0.6-1.4-1.1-2c-0.5-0.6-1.1-0.9-2-1.1
				c-0.2,0-0.4-0.1-0.6-0.1s-0.4,0-0.6,0C50.9,36.5,50,36.8,49.2,37.3z"/>
		</g>
		<g>
			<path d="M67.1,33.8c0.2,1.6,0.3,3.3,0.4,4.9c0.1,1.6,0.1,3.3,0.1,4.9c0,0.6,0,1.1,0,1.7c0,0.6,0,1.1-0.1,1.7
				c0,0.5-0.2,0.8-0.6,1.2c-0.3,0.3-0.7,0.5-1.2,0.5c-0.1,0-0.2,0-0.2,0c-0.1,0-0.2,0-0.2,0c-0.3-0.1-0.5-0.2-0.7-0.3
				c-0.2-0.1-0.4-0.3-0.5-0.5c-0.1-0.2-0.2-0.4-0.3-0.7c-0.1-0.2-0.1-0.5-0.1-0.7c0-0.6,0-1.1,0.1-1.7c0-0.6,0-1.1,0-1.7
				c0-3.1-0.2-6.2-0.5-9.3c0-0.2,0-0.5,0.1-0.7c0.1-0.2,0.2-0.4,0.3-0.6c0.1-0.2,0.3-0.3,0.5-0.4c0.2-0.1,0.4-0.2,0.7-0.2
				c0.6,0,1.2,0.1,1.6,0.4C66.8,32.7,67.1,33.1,67.1,33.8z M64.9,32.4c-0.4,0-0.6,0.2-0.9,0.4c-0.2,0.3-0.3,0.6-0.3,0.9
				c0.1,0.8,0.1,1.5,0.2,2.1c0,0.6,0.1,1.4,0.2,2.2c0.1,0.8,0.1,1.7,0.1,2.7c0,0.9,0,1.9,0,2.9c0,1,0,1.9-0.1,2.8
				c0,0.3,0.1,0.6,0.3,0.9c0.2,0.3,0.5,0.4,0.8,0.4h0.1c0,0,0.1,0,0.1,0c0.3,0,0.6-0.1,0.9-0.3c0.2-0.2,0.4-0.5,0.4-0.9
				c0.1-1,0.1-1.9,0.1-2.9s0-2,0-3c0-1-0.1-1.9-0.1-2.8s-0.1-1.6-0.2-2.3c-0.1-0.7-0.1-1.4-0.2-2.1c0-0.3-0.2-0.6-0.4-0.8
				c-0.2-0.2-0.5-0.3-0.9-0.3C65,32.4,65,32.4,64.9,32.4C65,32.4,64.9,32.4,64.9,32.4z"/>
		</g>
		<g>
			<path d="M69.9,35.6c0.3,0,0.6,0.1,0.9,0.2c0.3,0.1,0.5,0.4,0.7,0.7c0.4-0.2,0.7-0.3,1.1-0.3c0.4-0.1,0.8-0.1,1.2-0.1
				c0.9,0,1.6,0.1,2.3,0.4c0.6,0.3,1.2,0.7,1.6,1.1c0.4,0.5,0.8,1.1,1,1.7c0.3,0.7,0.4,1.4,0.5,2.2c0.1,0.6,0.1,1.3,0.1,1.9
				c0,0.6,0,1.3-0.1,1.9c0,0.3-0.1,0.6-0.1,0.9c0,0.3-0.1,0.6-0.1,0.9c-0.1,0.5-0.3,0.9-0.7,1.1c-0.3,0.2-0.7,0.3-1.1,0.3
				c-0.3,0-0.6,0-0.9-0.1c-0.3-0.1-0.5-0.2-0.7-0.4c-0.2-0.2-0.4-0.4-0.5-0.7c-0.1-0.3-0.1-0.6-0.1-0.9c0.1-0.6,0.2-1.2,0.2-1.8
				c0.1-0.6,0.1-1.2,0.1-1.8c0-0.2,0-0.4,0-0.7c0-0.3,0-0.6-0.1-0.9c-0.1-0.3-0.1-0.6-0.3-0.9c-0.1-0.3-0.3-0.5-0.4-0.6
				c-0.1,0-0.1,0-0.2,0c0,0-0.1,0-0.2,0c-0.6,0-1,0.2-1.4,0.5S72.2,41,72,41.5c0,0.6,0.1,1.1,0.1,1.7c0,0.6,0.1,1.1,0.1,1.7
				c0,0.3,0.1,0.6,0.1,0.9c0,0.3,0.1,0.6,0.2,0.9c0.1,0.5,0,0.9-0.2,1.3c-0.3,0.4-0.6,0.7-1.1,0.8c-0.1,0-0.1,0-0.2,0
				c-0.1,0-0.1,0-0.2,0c-0.2,0-0.5,0-0.7-0.1c-0.2-0.1-0.5-0.2-0.7-0.3c-0.2-0.1-0.4-0.3-0.5-0.5c-0.1-0.2-0.2-0.4-0.3-0.6
				c-0.1-0.3-0.1-0.6-0.2-1c0-0.3-0.1-0.6-0.1-1c-0.2-1.3-0.3-2.6-0.3-3.9c0-1.3-0.1-2.6-0.1-3.9c0-0.3,0.1-0.5,0.2-0.8
				c0.1-0.2,0.3-0.4,0.4-0.6c0.2-0.2,0.4-0.3,0.6-0.4C69.4,35.6,69.7,35.6,69.9,35.6z M71,37.3c0-0.3-0.2-0.6-0.4-0.8
				c-0.2-0.2-0.5-0.3-0.9-0.3c-0.4,0-0.7,0.1-0.9,0.4c-0.2,0.2-0.4,0.6-0.4,0.9c0,0.3,0,0.7,0,1.1c0,0.3,0,0.7,0,1.1
				c0,0.4,0,0.9,0.1,1.4c0,0.4,0,0.9,0,1.4c0,0.5,0.1,1.1,0.1,1.6c0,0.6,0.1,1.1,0.2,1.6c0.1,0.5,0.1,1,0.2,1.4
				c0.1,0.3,0.2,0.5,0.5,0.7c0.2,0.2,0.5,0.3,0.8,0.3c0.1,0,0.1,0,0.1,0c0,0,0.1,0,0.1,0c0.3-0.1,0.6-0.3,0.8-0.6
				c0.2-0.3,0.2-0.6,0.1-1c-0.1-0.3-0.1-0.7-0.2-1.1c0-0.4-0.1-0.8-0.1-1.3c0-0.5-0.1-0.9-0.1-1.4c0-0.5-0.1-1-0.1-1.4
				c0.2-0.6,0.6-1.1,1-1.5s1-0.6,1.7-0.6c0.2,0,0.4,0,0.6,0.1c0.4,0.1,0.7,0.3,0.9,0.7c0.2,0.4,0.4,0.9,0.5,1.4
				c0.1,0.5,0.1,1.1,0.1,1.7c0,0.6,0,1.2-0.1,1.7c0,0.5-0.1,1.1-0.2,1.8c-0.1,0.4,0,0.7,0.2,0.9c0.2,0.3,0.5,0.5,0.8,0.5
				c0,0,0.1,0,0.2,0c0.3,0,0.6-0.1,0.8-0.3c0.2-0.2,0.4-0.4,0.4-0.8c0.1-0.9,0.2-1.8,0.3-2.5c0-0.7,0-1.5,0-2.3
				c0-0.8-0.2-1.6-0.4-2.4c-0.2-0.8-0.6-1.4-1.1-2c-0.5-0.6-1.1-0.9-2-1.1c-0.2,0-0.4-0.1-0.6-0.1c-0.2,0-0.4,0-0.6,0
				C72.7,36.5,71.8,36.8,71,37.3z"/>
		</g>
		<g>
			<path d="M84.5,41.7c0.2-0.6,0.4-1.3,0.6-1.9c0.2-0.6,0.4-1.3,0.5-1.9c0.1-0.2,0.1-0.4,0.2-0.7c0-0.2,0.1-0.5,0.1-0.7
				c0.1-0.5,0.3-0.9,0.6-1.2c0.4-0.3,0.8-0.4,1.3-0.4c0.3,0,0.5,0.1,0.7,0.3c0.2,0.2,0.5,0.4,0.6,0.6s0.3,0.5,0.4,0.8
				c0.1,0.3,0.1,0.5,0.1,0.8c0,0.3-0.1,0.6-0.1,0.9c-0.1,0.3-0.1,0.6-0.2,0.9c-0.3,1.2-0.6,2.4-1,3.6c-0.4,1.2-0.8,2.4-1.3,3.5
				L87,46.8c-0.1,0.2-0.2,0.5-0.4,0.7c-0.1,0.2-0.3,0.4-0.5,0.6c-0.2,0.2-0.4,0.3-0.6,0.4c-0.2,0.1-0.5,0.2-0.8,0.2
				c-0.4,0-0.7-0.1-1-0.3c-0.3-0.2-0.5-0.4-0.7-0.7c-0.2-0.3-0.4-0.6-0.6-0.9c-0.2-0.3-0.3-0.6-0.4-0.9c-0.5-1.3-1-2.7-1.4-4
				c-0.4-1.4-0.8-2.7-1.2-4.1c-0.1-0.2-0.1-0.5-0.1-0.7c0-0.2,0.1-0.4,0.2-0.6c0.1-0.2,0.3-0.4,0.4-0.5c0.2-0.1,0.4-0.3,0.6-0.3
				c0.2-0.1,0.4-0.1,0.6-0.1c0.5,0,0.9,0.1,1.2,0.4c0.3,0.3,0.6,0.7,0.7,1.3c0.2,0.8,0.4,1.5,0.7,2.3C84.1,40.2,84.3,41,84.5,41.7z
				 M84.3,47.7c0.1,0,0.2,0,0.3,0c0.4-0.1,0.7-0.3,1-0.6c0.2-0.3,0.5-0.8,0.7-1.4c0.1-0.3,0.3-0.7,0.5-1.2c0.2-0.5,0.3-1,0.5-1.5
				c0.2-0.5,0.4-1.1,0.5-1.6c0.2-0.6,0.3-1.1,0.5-1.6c0.1-0.5,0.3-1,0.4-1.5c0.1-0.5,0.2-0.9,0.2-1.2c0-0.3-0.1-0.6-0.3-0.9
				c-0.2-0.3-0.5-0.4-0.8-0.4c0,0-0.1,0-0.1,0c-0.3,0-0.6,0.1-0.9,0.3c-0.2,0.2-0.4,0.5-0.4,0.8c0,0.3-0.1,0.8-0.3,1.4
				c-0.2,0.6-0.3,1.3-0.6,2.1c-0.2,0.6-0.4,1.2-0.6,1.8c-0.2,0.6-0.4,1.1-0.6,1.7c-0.2-0.7-0.5-1.4-0.7-2.2s-0.5-1.5-0.7-2.2
				c-0.2-0.7-0.4-1.4-0.7-2.3c-0.1-0.3-0.2-0.5-0.4-0.7c-0.2-0.2-0.5-0.2-0.8-0.2c-0.1,0-0.1,0-0.2,0c-0.1,0-0.1,0-0.2,0
				c-0.3,0.1-0.6,0.3-0.8,0.6c-0.2,0.3-0.2,0.6-0.1,0.9c0.2,0.6,0.3,1.1,0.4,1.5c0.1,0.5,0.3,1,0.5,1.5s0.4,1.2,0.5,1.8
				c0.2,0.6,0.4,1.2,0.6,1.8c0.2,0.6,0.4,1.1,0.5,1.5c0.3,0.7,0.5,1.2,0.8,1.5C83.6,47.6,83.9,47.7,84.3,47.7z"/>
		</g>
		<g>
			<path d="M94.3,48.6c-0.6,0-1.2-0.1-1.7-0.3c-0.5-0.2-1-0.5-1.3-0.9s-0.7-0.8-0.9-1.3c-0.2-0.5-0.4-1-0.5-1.6
				c-0.1-0.5-0.1-1.1,0-1.7c0.1-0.6,0.2-1.1,0.4-1.7c0.2-0.5,0.4-1,0.8-1.5c0.3-0.5,0.7-0.9,1.1-1.2c0.4-0.3,0.8-0.5,1.3-0.7
				c0.5-0.2,1-0.2,1.5-0.2c0.4,0,0.8,0.1,1.2,0.2s0.7,0.3,1.1,0.4c0.3,0.2,0.7,0.4,0.9,0.7c0.3,0.3,0.5,0.6,0.7,1
				c0.2,0.6,0.4,1.2,0.5,1.9c0.1,0.7,0.1,1.3,0.1,1.9c0,0.2,0,0.5,0,0.7c0,0.2,0,0.4,0.1,0.7c0,0,0,0,0,0.1s0,0,0,0.1
				c0,0.1,0,0.2,0.1,0.3c0,0.1,0,0.3,0.1,0.4c0,0.1,0.1,0.3,0.1,0.4c0,0.1,0.1,0.2,0.1,0.3c0.1,0.2,0.2,0.4,0.3,0.6
				c0,0.2,0.1,0.5,0,0.7c0,0.2-0.1,0.4-0.2,0.6c-0.1,0.2-0.3,0.4-0.5,0.5c-0.2,0.1-0.3,0.2-0.5,0.2c-0.2,0-0.3,0.1-0.5,0.1
				c-0.4,0-0.8-0.1-1.2-0.3c-0.4-0.2-0.7-0.5-0.9-0.8c-0.3,0.1-0.6,0.2-0.9,0.3C95,48.5,94.7,48.6,94.3,48.6z M92.4,38.8
				c-0.4,0.3-0.7,0.7-1,1.1c-0.3,0.4-0.5,0.9-0.7,1.4c-0.2,0.5-0.3,1-0.3,1.5c-0.1,0.5,0,1,0,1.5c0.1,0.5,0.2,0.9,0.4,1.3
				c0.2,0.4,0.4,0.8,0.7,1.1c0.3,0.3,0.6,0.6,1,0.8c0.4,0.2,0.9,0.3,1.4,0.3c0.4,0,0.9-0.1,1.3-0.2c0.4-0.1,0.8-0.3,1.2-0.5
				c0.1,0.3,0.2,0.6,0.3,0.7c0,0.1,0.1,0.2,0.1,0.2c0.1,0.2,0.3,0.3,0.5,0.4c0.2,0.1,0.4,0.1,0.6,0.1c0.3,0,0.5-0.1,0.7-0.3
				c0.3-0.2,0.5-0.5,0.5-0.8c0-0.3,0-0.7-0.2-1c0-0.1-0.1-0.2-0.1-0.3c0-0.1-0.1-0.3-0.1-0.5c0-0.2-0.1-0.5-0.2-0.9v-0.1
				c0-0.2,0-0.4-0.1-0.7c0-0.2,0-0.5,0-0.7c0-0.6-0.1-1.3-0.1-1.9c-0.1-0.6-0.2-1.2-0.4-1.7c-0.2-0.6-0.6-1-1.2-1.3
				C96,38.2,95.5,38,94.9,38c-0.5,0-0.9,0.1-1.3,0.2C93.1,38.4,92.7,38.6,92.4,38.8z M92.9,44c-0.1-0.6,0-1.2,0.1-1.8
				c0.2-0.6,0.5-1.1,0.9-1.4c0.3-0.2,0.6-0.3,1-0.3c0.1,0,0.2,0,0.3,0c0.1,0,0.2,0.1,0.2,0.2c0.1,0.3,0.2,0.7,0.3,1.2
				c0,0.5,0.1,1,0.1,1.5c0,0.2,0,0.3,0,0.5c0,0.1,0,0.3,0,0.5c-0.2,0.2-0.5,0.4-0.9,0.6s-0.7,0.3-1,0.3c-0.2,0-0.3,0-0.4-0.1
				c-0.1-0.1-0.2-0.2-0.3-0.3c-0.1-0.1-0.1-0.3-0.2-0.4C92.9,44.3,92.9,44.2,92.9,44z M94.7,41.5c-0.2,0.1-0.3,0.3-0.5,0.5
				c-0.1,0.2-0.2,0.5-0.3,0.7c-0.1,0.2-0.1,0.5-0.1,0.8c0,0.3,0,0.5,0,0.7c0,0.1,0.1,0.2,0.1,0.3c0,0.1,0.1,0.2,0.1,0.3
				c0.2,0,0.4-0.1,0.7-0.3c0.2-0.1,0.4-0.3,0.6-0.4c0-0.1,0-0.2,0-0.3c0-0.1,0-0.2,0-0.3c0-0.1,0-0.3,0-0.5c0-0.2,0-0.4,0-0.6
				c0-0.2,0-0.4-0.1-0.6c0-0.2-0.1-0.4-0.1-0.6C94.9,41.4,94.8,41.4,94.7,41.5z"/>
		</g>
		<g>
			<path d="M104.5,31.7c0,1.4,0,2.8,0,4.2c0,1.4,0,2.8,0.1,4.2c0,0.5,0,1.1,0.1,1.7c0,0.6,0.1,1.2,0.1,1.9c0.1,0.6,0.1,1.2,0.2,1.8
				c0.1,0.6,0.2,1.1,0.3,1.6c0.1,0.5,0.1,0.9-0.2,1.3c-0.2,0.4-0.6,0.7-1.1,0.8c-0.1,0-0.3,0.1-0.5,0.1c-0.2,0-0.4,0-0.7-0.1
				c-0.2-0.1-0.5-0.2-0.7-0.3c-0.2-0.1-0.4-0.3-0.5-0.5c-0.2-0.2-0.3-0.4-0.3-0.6c-0.1-0.5-0.3-1.1-0.4-1.8
				c-0.1-0.6-0.2-1.3-0.2-1.9c-0.1-0.7-0.1-1.3-0.1-2c0-0.6-0.1-1.2-0.1-1.8c0-1-0.1-2-0.1-3.1c0-1,0-2,0-3.1c0-0.5,0-0.9,0-1.4
				c0-0.5,0-0.9,0-1.4c0-0.5,0.2-0.9,0.5-1.2c0.3-0.3,0.8-0.5,1.2-0.5c0.3,0,0.5,0,0.8,0.1c0.3,0.1,0.5,0.2,0.7,0.4
				c0.2,0.2,0.4,0.4,0.5,0.6C104.4,31.1,104.5,31.4,104.5,31.7z M100.9,31.4c0,0.7,0,1.4,0,2c0,0.6,0,1.3,0,2.1s0,1.6,0,2.5
				c0,0.9,0,1.8,0.1,2.7c0,0.9,0.1,1.8,0.2,2.7c0.1,0.9,0.2,1.7,0.3,2.4c0.1,0.7,0.2,1.4,0.4,1.9c0.1,0.3,0.2,0.5,0.4,0.7
				c0.2,0.2,0.5,0.3,0.8,0.3c0.1,0,0.2,0,0.3,0c0.3-0.1,0.6-0.3,0.8-0.6c0.2-0.3,0.2-0.6,0.1-1c-0.1-0.5-0.3-1.1-0.4-1.8
				c-0.1-0.7-0.2-1.5-0.2-2.3c-0.1-0.8-0.1-1.7-0.1-2.6c0-0.9-0.1-1.7-0.1-2.6c0-0.8,0-1.7,0-2.4c0-0.8,0-1.4,0-2c0-0.6,0-1.2,0-1.9
				c0-0.3-0.1-0.5-0.2-0.8c-0.2-0.2-0.4-0.4-0.6-0.5c-0.1,0-0.2-0.1-0.4-0.1c-0.4,0-0.7,0.1-0.9,0.3
				C101.1,30.8,100.9,31.1,100.9,31.4z"/>
		</g>
		<g>
			<path d="M105.6,36.7c0-0.5,0.2-0.9,0.5-1.3c0.3-0.3,0.8-0.5,1.3-0.5c0.3,0,0.5,0.1,0.8,0.2c0.3,0.1,0.5,0.3,0.7,0.5
				c0.2,0.2,0.4,0.4,0.5,0.7c0.1,0.2,0.2,0.5,0.2,0.8c0,0.9,0,1.7,0.1,2.6c0,0.9,0.2,1.8,0.3,2.6c0,0.1,0.1,0.2,0.1,0.4
				c0,0.2,0.1,0.4,0.1,0.6c0.1,0.2,0.1,0.4,0.2,0.7c0.1,0.2,0.1,0.4,0.2,0.6c0.1,0.1,0.2,0.3,0.3,0.4c0.1,0.1,0.2,0.2,0.4,0.2
				c0.2,0,0.4-0.1,0.6-0.4c0.2-0.3,0.3-0.6,0.4-1.1c0.1-0.4,0.2-0.9,0.3-1.5c0.1-0.5,0.1-1,0.2-1.5c0-0.5,0.1-0.9,0.1-1.4
				c0-0.4,0-0.7,0-0.9c0-0.5,0.2-0.9,0.5-1.2c0.3-0.3,0.8-0.5,1.3-0.5c0.3,0,0.5,0.1,0.8,0.2c0.3,0.1,0.5,0.3,0.7,0.5
				c0.2,0.2,0.4,0.4,0.5,0.7c0.1,0.2,0.2,0.5,0.2,0.8c0,0.3,0,0.6,0,0.9c0,0.3,0,0.6-0.1,0.9c0,0.5-0.1,1.1-0.2,1.7
				c-0.1,0.6-0.2,1.2-0.4,1.9c-0.2,0.6-0.4,1.2-0.6,1.8c-0.2,0.6-0.6,1.1-0.9,1.6c-0.4,0.5-0.8,0.8-1.3,1.1
				c-0.5,0.3-1.1,0.4-1.7,0.4c-0.9,0-1.6-0.2-2.2-0.6c-0.6-0.4-1.2-0.9-1.7-1.5c-0.5-0.6-0.8-1.3-1.1-2c-0.3-0.8-0.5-1.5-0.6-2.2
				c-0.2-1-0.3-2-0.4-3C105.6,38.7,105.6,37.7,105.6,36.7z M108.6,36.7c0-0.4-0.1-0.7-0.3-0.9c-0.2-0.2-0.5-0.4-0.9-0.4
				c-0.4,0-0.7,0.1-0.9,0.4c-0.2,0.2-0.4,0.5-0.4,0.9c0,0.2,0,0.5,0,1c0,0.4,0,0.9,0,1.4c0,0.5,0.1,1.1,0.1,1.7
				c0.1,0.6,0.2,1.2,0.3,1.8c0.1,0.6,0.3,1.3,0.5,1.9c0.2,0.7,0.5,1.3,0.9,1.8c0.4,0.5,0.8,1,1.4,1.4c0.5,0.4,1.2,0.5,1.9,0.5
				c0.6,0,1.1-0.1,1.6-0.4c0.4-0.3,0.8-0.6,1.2-1.1c0.3-0.5,0.6-1,0.8-1.6c0.2-0.6,0.4-1.2,0.5-1.8c0.1-0.6,0.3-1.2,0.3-1.8
				c0.1-0.6,0.1-1.1,0.2-1.6c0-0.5,0-1,0.1-1.5c0-0.4-0.1-0.7-0.4-0.9c-0.2-0.2-0.5-0.4-0.9-0.4c-0.4,0-0.7,0.1-0.9,0.4
				c-0.2,0.2-0.4,0.5-0.4,0.9c0,0.7,0,1.4-0.1,1.9c0,0.5-0.1,1.1-0.2,1.7c-0.1,0.6-0.2,1.2-0.4,1.7c-0.2,0.5-0.4,1-0.6,1.3
				c-0.2,0.4-0.6,0.5-0.9,0.5c-0.4,0-0.8-0.2-1.1-0.5c-0.3-0.4-0.5-0.8-0.7-1.4c-0.2-0.6-0.3-1.2-0.4-1.9c-0.1-0.7-0.2-1.4-0.2-2
				c-0.1-0.7-0.1-1.3-0.1-1.8C108.6,37.4,108.6,37,108.6,36.7z"/>
		</g>
		<g>
			<path d="M121.6,48.6c-0.6,0-1.2-0.1-1.7-0.3c-0.5-0.2-1-0.5-1.3-0.9c-0.4-0.4-0.7-0.8-0.9-1.3c-0.2-0.5-0.4-1-0.5-1.6
				c-0.1-0.5-0.1-1.1,0-1.7c0.1-0.6,0.2-1.1,0.4-1.7c0.2-0.5,0.4-1,0.8-1.5c0.3-0.5,0.7-0.9,1.1-1.2c0.4-0.3,0.8-0.5,1.3-0.7
				s1-0.2,1.5-0.2c0.4,0,0.8,0.1,1.2,0.2s0.7,0.3,1.1,0.4c0.3,0.2,0.7,0.4,0.9,0.7c0.3,0.3,0.5,0.6,0.7,1c0.2,0.6,0.4,1.2,0.5,1.9
				c0.1,0.7,0.1,1.3,0.1,1.9c0,0.2,0,0.5,0,0.7c0,0.2,0,0.4,0.1,0.7c0,0,0,0,0,0.1s0,0,0,0.1c0,0.1,0,0.2,0.1,0.3
				c0,0.1,0,0.3,0.1,0.4c0,0.1,0.1,0.3,0.1,0.4c0,0.1,0.1,0.2,0.1,0.3c0.1,0.2,0.2,0.4,0.3,0.6c0,0.2,0.1,0.5,0,0.7
				c0,0.2-0.1,0.4-0.2,0.6c-0.1,0.2-0.3,0.4-0.5,0.5c-0.2,0.1-0.3,0.2-0.5,0.2c-0.2,0-0.3,0.1-0.5,0.1c-0.4,0-0.8-0.1-1.2-0.3
				c-0.4-0.2-0.7-0.5-0.9-0.8c-0.3,0.1-0.6,0.2-0.9,0.3C122.2,48.5,121.9,48.6,121.6,48.6z M119.6,38.8c-0.4,0.3-0.7,0.7-1,1.1
				c-0.3,0.4-0.5,0.9-0.7,1.4c-0.2,0.5-0.3,1-0.3,1.5c-0.1,0.5,0,1,0,1.5c0.1,0.5,0.2,0.9,0.4,1.3c0.2,0.4,0.4,0.8,0.7,1.1
				c0.3,0.3,0.6,0.6,1,0.8c0.4,0.2,0.9,0.3,1.4,0.3c0.4,0,0.9-0.1,1.3-0.2c0.4-0.1,0.8-0.3,1.2-0.5c0.1,0.3,0.2,0.6,0.3,0.7
				c0,0.1,0.1,0.2,0.1,0.2c0.1,0.2,0.3,0.3,0.5,0.4c0.2,0.1,0.4,0.1,0.6,0.1c0.3,0,0.5-0.1,0.7-0.3c0.3-0.2,0.5-0.5,0.5-0.8
				c0-0.3,0-0.7-0.2-1c0-0.1-0.1-0.2-0.1-0.3c0-0.1-0.1-0.3-0.1-0.5c0-0.2-0.1-0.5-0.2-0.9v-0.1c0-0.2,0-0.4-0.1-0.7
				c0-0.2,0-0.5,0-0.7c0-0.6-0.1-1.3-0.1-1.9c-0.1-0.6-0.2-1.2-0.4-1.7c-0.2-0.6-0.6-1-1.2-1.3c-0.5-0.3-1.1-0.4-1.7-0.4
				c-0.5,0-0.9,0.1-1.3,0.2C120.4,38.4,120,38.6,119.6,38.8z M120.1,44c-0.1-0.6,0-1.2,0.1-1.8c0.2-0.6,0.5-1.1,0.9-1.4
				c0.3-0.2,0.6-0.3,1-0.3c0.1,0,0.2,0,0.3,0c0.1,0,0.2,0.1,0.2,0.2c0.1,0.3,0.2,0.7,0.3,1.2c0,0.5,0.1,1,0.1,1.5c0,0.2,0,0.3,0,0.5
				c0,0.1,0,0.3,0,0.5c-0.2,0.2-0.5,0.4-0.9,0.6s-0.7,0.3-1,0.3c-0.2,0-0.3,0-0.4-0.1c-0.1-0.1-0.2-0.2-0.3-0.3
				c-0.1-0.1-0.1-0.3-0.2-0.4C120.2,44.3,120.1,44.2,120.1,44z M121.9,41.5c-0.2,0.1-0.3,0.3-0.5,0.5c-0.1,0.2-0.2,0.5-0.3,0.7
				c-0.1,0.2-0.1,0.5-0.1,0.8c0,0.3,0,0.5,0,0.7c0,0.1,0.1,0.2,0.1,0.3c0,0.1,0.1,0.2,0.1,0.3c0.2,0,0.4-0.1,0.7-0.3
				c0.2-0.1,0.4-0.3,0.6-0.4c0-0.1,0-0.2,0-0.3c0-0.1,0-0.2,0-0.3c0-0.1,0-0.3,0-0.5c0-0.2,0-0.4,0-0.6c0-0.2,0-0.4-0.1-0.6
				c0-0.2-0.1-0.4-0.1-0.6C122.2,41.4,122.1,41.4,121.9,41.5z"/>
		</g>
		<g>
			<path d="M130.1,30.1c0.3,0,0.5,0.1,0.8,0.2c0.3,0.1,0.5,0.3,0.7,0.5c0.2,0.2,0.4,0.4,0.5,0.7c0.1,0.3,0.2,0.5,0.1,0.8
				c-0.1,1-0.2,2-0.3,2.9c-0.1,1-0.1,2-0.2,2.9c0.5-0.3,1.1-0.6,1.7-0.8c0.6-0.2,1.2-0.3,1.8-0.3c0.7,0,1.3,0.2,2,0.5
				c0.6,0.3,1.2,0.7,1.6,1.2c0.3,0.4,0.6,0.8,0.8,1.3c0.2,0.5,0.3,1,0.3,1.5c0,0.1,0,0.3,0,0.4c0,0.1,0,0.3,0,0.4
				c0,0.9-0.3,1.8-0.7,2.6c-0.4,0.8-1,1.5-1.7,2.1c-0.7,0.6-1.5,1.1-2.4,1.5c-0.9,0.4-1.8,0.5-2.7,0.5c-0.1,0-0.3,0-0.4,0
				c-0.1,0-0.3,0-0.4,0c-0.2,0.2-0.4,0.4-0.6,0.5c-0.2,0.1-0.5,0.2-0.8,0.2c-0.2,0-0.5,0-0.7-0.1c-0.2-0.1-0.5-0.2-0.7-0.3
				c-0.2-0.1-0.4-0.3-0.5-0.5c-0.2-0.2-0.3-0.4-0.3-0.6c-0.2-0.5-0.3-1.1-0.3-1.7c-0.1-0.6-0.1-1.1-0.1-1.7c0-0.7-0.1-1.4-0.1-2.1
				s0-1.4,0-2.1c0-1.5,0.1-3,0.2-4.5c0.1-1.5,0.2-3,0.4-4.5c0-0.5,0.2-0.8,0.6-1.1c0.3-0.3,0.7-0.5,1.2-0.5
				C130,30,130.1,30,130.1,30.1z M131,48.2c0.2,0,0.3,0.1,0.5,0.1c0.2,0,0.4,0,0.5,0c0.8,0,1.6-0.2,2.5-0.5c0.8-0.3,1.6-0.8,2.2-1.3
				c0.7-0.6,1.2-1.2,1.6-2c0.4-0.8,0.6-1.6,0.7-2.4c0-0.1,0-0.3,0-0.4c0-0.1,0-0.3,0-0.4c0-0.5-0.2-1-0.4-1.5
				c-0.2-0.4-0.4-0.8-0.8-1.2c-0.3-0.3-0.7-0.6-1.1-0.8c-0.4-0.2-0.9-0.3-1.5-0.3c-0.9,0-1.7,0.2-2.5,0.6c-0.8,0.4-1.5,0.9-2.1,1.5
				c0-1,0.1-1.9,0.1-2.9s0.1-1.8,0.2-2.5c0.1-0.7,0.1-1.5,0.2-2.4c0-0.4-0.1-0.7-0.3-0.9c-0.2-0.3-0.5-0.4-0.8-0.4
				c-0.4,0-0.7,0.1-0.9,0.3c-0.3,0.2-0.4,0.5-0.5,0.9c-0.1,0.7-0.1,1.4-0.2,2c0,0.6-0.1,1.3-0.1,2.1c-0.1,0.8-0.1,1.6-0.1,2.5
				s-0.1,1.8-0.1,2.7c0,0.9,0,1.8,0,2.7c0,0.9,0.1,1.7,0.2,2.4c0.1,0.8,0.2,1.4,0.4,1.9c0.1,0.3,0.2,0.5,0.5,0.7s0.5,0.3,0.8,0.3
				c0.2,0,0.5-0.1,0.7-0.2C130.8,48.6,130.9,48.4,131,48.2z M133.6,40.6c0.2-0.1,0.5-0.3,0.8-0.4c0.3-0.1,0.6-0.1,0.9-0.1
				c0.3,0,0.5,0.1,0.7,0.2c0.2,0.1,0.3,0.2,0.4,0.4c0.1,0.2,0.2,0.4,0.2,0.6c0,0.2,0,0.4,0,0.6c0,0.5-0.2,1-0.4,1.5
				c-0.3,0.5-0.6,0.9-1.1,1.2c-0.4,0.3-0.9,0.6-1.4,0.8c-0.5,0.2-1,0.3-1.5,0.3c-0.2,0-0.4,0-0.6-0.1c-0.3-0.1-0.5-0.3-0.6-0.5
				c-0.1-0.2-0.1-0.5,0-0.9c0.1-0.3,0.2-0.7,0.4-1.1c0.2-0.4,0.4-0.7,0.7-1.1c0.2-0.3,0.5-0.6,0.8-0.9
				C133.1,40.9,133.4,40.7,133.6,40.6z M135.9,40.9c-0.3,0-0.6,0.1-0.9,0.2c-0.3,0.1-0.6,0.3-0.9,0.4c-0.3,0.2-0.5,0.4-0.7,0.6
				c-0.2,0.2-0.4,0.5-0.6,0.7c-0.1,0.1-0.2,0.3-0.3,0.5c-0.1,0.2-0.2,0.4-0.3,0.6c-0.1,0.2-0.1,0.4-0.2,0.6c0,0.2-0.1,0.4,0,0.6
				c0,0,0.1,0,0.1,0c0,0,0.1,0,0.1,0c0.4,0,0.8-0.1,1.3-0.3c0.5-0.2,0.9-0.4,1.2-0.7c0.4-0.3,0.7-0.7,0.9-1.1
				c0.2-0.4,0.4-0.8,0.4-1.3c0-0.2,0-0.3,0-0.5C136,41.2,135.9,41.1,135.9,40.9z"/>
		</g>
		<g>
			<path d="M144.4,31.7c0,1.4,0,2.8,0,4.2c0,1.4,0,2.8,0.1,4.2c0,0.5,0,1.1,0.1,1.7c0,0.6,0.1,1.2,0.1,1.9c0.1,0.6,0.1,1.2,0.2,1.8
				c0.1,0.6,0.2,1.1,0.3,1.6c0.1,0.5,0.1,0.9-0.2,1.3c-0.2,0.4-0.6,0.7-1.1,0.8c-0.1,0-0.3,0.1-0.5,0.1c-0.2,0-0.4,0-0.7-0.1
				c-0.2-0.1-0.5-0.2-0.7-0.3c-0.2-0.1-0.4-0.3-0.5-0.5c-0.2-0.2-0.3-0.4-0.3-0.6c-0.1-0.5-0.3-1.1-0.4-1.8
				c-0.1-0.6-0.2-1.3-0.2-1.9c-0.1-0.7-0.1-1.3-0.1-2c0-0.6-0.1-1.2-0.1-1.8c0-1-0.1-2-0.1-3.1c0-1,0-2,0-3.1c0-0.5,0-0.9,0-1.4
				c0-0.5,0-0.9,0-1.4c0-0.5,0.2-0.9,0.5-1.2c0.3-0.3,0.8-0.5,1.2-0.5c0.3,0,0.5,0,0.8,0.1c0.3,0.1,0.5,0.2,0.7,0.4
				c0.2,0.2,0.4,0.4,0.5,0.6C144.3,31.1,144.4,31.4,144.4,31.7z M140.9,31.4c0,0.7,0,1.4,0,2c0,0.6,0,1.3,0,2.1s0,1.6,0,2.5
				c0,0.9,0,1.8,0.1,2.7c0,0.9,0.1,1.8,0.2,2.7c0.1,0.9,0.2,1.7,0.3,2.4c0.1,0.7,0.2,1.4,0.4,1.9c0.1,0.3,0.2,0.5,0.4,0.7
				c0.2,0.2,0.5,0.3,0.8,0.3c0.1,0,0.2,0,0.3,0c0.3-0.1,0.6-0.3,0.8-0.6c0.2-0.3,0.2-0.6,0.1-1c-0.1-0.5-0.3-1.1-0.4-1.8
				c-0.1-0.7-0.2-1.5-0.2-2.3c-0.1-0.8-0.1-1.7-0.1-2.6c0-0.9-0.1-1.7-0.1-2.6c0-0.8,0-1.7,0-2.4c0-0.8,0-1.4,0-2c0-0.6,0-1.2,0-1.9
				c0-0.3-0.1-0.5-0.2-0.8c-0.2-0.2-0.4-0.4-0.6-0.5c-0.1,0-0.2-0.1-0.4-0.1c-0.4,0-0.7,0.1-0.9,0.3C141,30.8,140.9,31.1,140.9,31.4
				z"/>
		</g>
		<g>
			<path d="M146.3,42c-0.1-0.1-0.2-0.2-0.2-0.3c-0.1-0.1-0.2-0.2-0.2-0.3c-0.3-0.4-0.4-0.9-0.3-1.3c0.1-0.5,0.3-0.9,0.7-1.1
				c0.3-0.2,0.6-0.3,1-0.3c0.2,0,0.4,0,0.6,0.1c0.4-0.6,1-1.2,1.6-1.5c0.6-0.4,1.4-0.6,2.2-0.6c0.3,0,0.5,0,0.8,0.1l0.3,0.1
				c0.7,0.2,1.4,0.6,1.9,1.1c0.5,0.5,0.9,1.1,1.1,1.9c0.2,0.6,0.2,1.2,0.1,1.8c-0.1,0.6-0.4,1.2-0.8,1.8c-0.4,0.5-0.9,1-1.5,1.2
				c0.1,0,0.1,0,0.2,0c0.1,0,0.1,0,0.2,0c0.4,0,0.7,0.1,1,0.3c0.3,0.2,0.6,0.5,0.8,0.8c0.2,0.3,0.3,0.7,0.3,1.1
				c0,0.4-0.1,0.7-0.4,1.1c-0.4,0.5-0.9,1-1.5,1.2c-0.6,0.3-1.2,0.4-1.9,0.4c-0.5,0-1-0.1-1.5-0.2c-0.5-0.2-1-0.4-1.4-0.7
				c-0.4-0.3-0.8-0.6-1.2-1c-0.4-0.4-0.7-0.8-0.9-1.2l-0.2-0.4c-0.2-0.5-0.4-1.1-0.4-1.7c0-0.6,0-1.2,0-1.8c0,0-0.1-0.1-0.1-0.1
				S146.3,42,146.3,42z M146.5,39.3c-0.3,0.2-0.5,0.5-0.5,0.8c-0.1,0.3,0,0.7,0.2,0.9c0.1,0.1,0.1,0.2,0.2,0.3
				c0.1,0.1,0.2,0.2,0.3,0.3c0.1,0.1,0.2,0.2,0.4,0.4c-0.1,0.7-0.1,1.4,0,2.1c0.1,0.7,0.3,1.3,0.6,1.8c0.2,0.4,0.5,0.7,0.8,1
				c0.3,0.3,0.6,0.6,1,0.8s0.8,0.4,1.2,0.5s0.8,0.2,1.2,0.2c0.6,0,1.2-0.1,1.7-0.4c0.5-0.3,1-0.6,1.3-1.1c0.2-0.3,0.3-0.6,0.3-0.9
				c0-0.3-0.2-0.6-0.5-0.9c-0.2-0.2-0.5-0.3-0.8-0.3c-0.4,0-0.7,0.2-1,0.5c-0.3,0.3-0.6,0.5-1,0.5c-0.3,0-0.6-0.1-0.9-0.2
				c-0.3-0.1-0.5-0.3-0.7-0.5c-0.2-0.2-0.4-0.5-0.5-0.7c-0.1-0.3-0.2-0.6-0.2-0.9c0.3,0.1,0.6,0.2,1,0.3c0.3,0.1,0.7,0.1,1,0.1
				c0.4,0,0.9-0.1,1.2-0.2c0.4-0.1,0.7-0.4,1-0.6c0.3-0.3,0.5-0.6,0.7-0.9c0.2-0.4,0.3-0.7,0.4-1.2c0.1-0.5,0.1-1,0-1.6
				c-0.2-0.6-0.4-1.1-0.8-1.5c-0.4-0.4-0.9-0.6-1.5-0.8l-0.3-0.1c-0.1,0-0.2,0-0.3,0c-0.1,0-0.2,0-0.3,0c-0.8,0-1.5,0.2-2.1,0.7
				c-0.6,0.4-1.1,1-1.5,1.7c-0.2-0.2-0.5-0.3-0.7-0.3C147,39.1,146.7,39.2,146.5,39.3z M150,41c0.2-0.4,0.4-0.8,0.7-1
				c0.3-0.3,0.7-0.4,1.2-0.4c0.1,0,0.2,0.1,0.3,0.1c0.1,0,0.2,0.1,0.2,0.3c0,0.2,0,0.3,0,0.5c0,0.2-0.1,0.3-0.2,0.5
				c-0.1,0.1-0.2,0.2-0.3,0.3c-0.1,0.1-0.2,0.1-0.4,0.1h-0.1l-0.3,0c-0.2,0-0.4-0.1-0.6-0.1S150.1,41.1,150,41z M150.4,44.7
				c0,0.1,0.1,0.2,0.2,0.3c0.1,0.1,0.2,0.2,0.3,0.2c0.1,0.1,0.3,0.1,0.4,0.2c0.1,0,0.3,0.1,0.4,0.1c0.3,0,0.5-0.1,0.6-0.3
				c0.2-0.2,0.3-0.3,0.5-0.4c-0.2,0.1-0.5,0.1-0.7,0.1c-0.3,0-0.5,0-0.8,0c-0.2,0-0.3,0-0.5-0.1C150.8,44.7,150.6,44.7,150.4,44.7z
				 M151.5,40.6c-0.1,0.1-0.2,0.2-0.3,0.3c0.2,0,0.3,0,0.4-0.1c0.1,0,0.1-0.1,0.2-0.3L151.5,40.6z"/>
		</g>
	</g>
	<g>
		<path d="M110.4,5.3c3.1,2.6,4.1,6.5,5.4,10.3c0.1,0.2,0.4,0.2,0.4-0.1c1.1-8.8-7.6-15.3-15.7-15c-0.1,0-0.2,0.2,0,0.3
			C104,1.8,107.4,2.8,110.4,5.3z"/>
	</g>
	<g>
		<path d="M158.7,26.4c0-0.1-0.1-0.2-0.2-0.1c-2.1,1-4.2,3.4-3.5,5.8c0,0.1,0.2,0.2,0.3,0.1C157.2,31.1,158.3,28.5,158.7,26.4z"/>
	</g>
	<g>
		<path d="M121.5,9.2c0.9-1.1,1.5-2.6,2.3-3.8c0.8-1.2,1.8-2.4,1.9-3.8c0-0.2-0.2-0.2-0.3-0.2c-1.5,0.6-2.4,2.4-3.1,3.7
			c-0.6,1.2-1.3,2.7-1,4C121.3,9.2,121.5,9.2,121.5,9.2z"/>
	</g>
	<g>
		<path d="M118.1,13.9c0,0.1,0.2,0.1,0.2,0c1-2.6,1.4-9.4-1.6-11c-0.2-0.1-0.4,0-0.4,0.2c0,1.7,0.9,3.5,1.2,5.2
			C117.7,10.1,117.5,12.1,118.1,13.9z"/>
	</g>
	<g>
		<path d="M103.1,14.9c-0.1-0.1-0.2-0.2-0.3-0.3c-0.1-0.1-0.2-0.1-0.4-0.2c-0.2,0-0.3,0-0.5,0c-0.3,0-0.5,0.1-0.8,0.2
			c-0.2,0.1-0.4,0.3-0.6,0.6l2.7,0C103.3,15.2,103.2,15,103.1,14.9z"/>
	</g>
	<g>
		<path d="M72.9,12.2v2.1c0.1,0,0.3,0,0.5,0c0.2,0,0.4,0,0.6,0c0.2,0,0.4-0.1,0.6-0.1c0.2-0.1,0.4-0.1,0.5-0.2
			c0.1-0.1,0.3-0.2,0.4-0.3c0.1-0.1,0.1-0.3,0.1-0.4c0-0.2-0.1-0.3-0.1-0.4c-0.1-0.1-0.2-0.2-0.3-0.3c-0.1-0.1-0.3-0.2-0.5-0.2
			c-0.2-0.1-0.4-0.1-0.5-0.1c-0.2,0-0.4,0-0.6,0C73.2,12.1,73,12.1,72.9,12.2z"/>
	</g>
	<g>
		<path d="M59.7,15C63,5.3,72.1,2.6,81.3,0.3c0.2,0,0.1-0.3,0-0.3c-8.7,0.3-21.6,4.4-21.8,15C59.4,15.2,59.6,15.2,59.7,15z"/>
	</g>
	<g>
		<path d="M82.1,14.1c-0.1-0.1-0.2-0.2-0.3-0.3c-0.1-0.1-0.2-0.1-0.4-0.2c-0.2,0-0.3,0-0.5,0c-0.3,0-0.5,0.1-0.8,0.2
			c-0.2,0.1-0.4,0.3-0.6,0.6l2.7,0C82.2,14.3,82.1,14.2,82.1,14.1z"/>
	</g>
	<g>
		<path d="M162.7,17.4c-0.1-0.3-0.2-0.6-0.4-1c0.3-0.2,0.5-0.4,0.8-0.6c0.8-0.6,0.2-0.8-0.3-0.8c-0.4,0-0.8-0.1-1.2-0.1
			c-0.2-0.4-0.4-0.9-0.6-1.3c-0.1-0.2-0.4-0.2-0.4,0c-0.1,0.4-0.2,0.7-0.4,1.1c-0.6-0.1-1.2-0.1-1.8,0c-0.2,0-0.3,0.3-0.1,0.4
			c0.5,0.3,1,0.7,1.5,1.1c-0.1,0.5-0.2,1-0.4,1.6c0,0.2,0.2,0.4,0.4,0.3c0.4-0.3,0.9-0.6,1.3-0.9c0.2,0.2,0.5,0.4,0.8,0.6
			C162.9,18.4,163,18.3,162.7,17.4z"/>
	</g>
	<g>
		<path d="M75,16.2c-0.1-0.1-0.3-0.1-0.5-0.2c-0.2,0-0.4-0.1-0.6-0.1c-0.2,0-0.4,0-0.6,0c-0.2,0-0.4,0-0.5,0.1v2.2
			c0.1,0,0.2,0,0.4,0c0.2,0,0.3,0,0.5,0c0.2,0,0.4,0,0.6-0.1c0.2,0,0.4-0.1,0.6-0.2c0.2-0.1,0.3-0.2,0.4-0.4
			c0.1-0.1,0.1-0.3,0.1-0.6c0-0.2-0.1-0.3-0.2-0.5C75.2,16.4,75.1,16.3,75,16.2z"/>
	</g>
	<g>
		<path d="M166,32.8c-2.9-0.5-6.1,0.7-7.2,3.5c-0.1,0.1,0,0.3,0.2,0.3c2.8-0.2,5.2-1.6,7.1-3.6C166.1,32.9,166,32.8,166,32.8z"/>
	</g>
	<g>
		<path d="M59.4,21.9c0.1,0.1,0.1,0.2,0.2,0.3L59.4,21.9L59.4,21.9z"/>
	</g>
	<g>
		<path d="M163.8,27.6c-3.8,1.7-6.1,3.7-7.9,7.3c-0.1,0.2,0.1,0.3,0.3,0.2c3.1-2.2,5.4-4.4,7.8-7.4C164,27.7,163.9,27.6,163.8,27.6z
			"/>
	</g>
	<g>
		<path d="M171.3,14.5c-0.4,0.3-0.8,0.6-1.2,0.9c-0.3-0.2-0.6-0.5-1-0.7c-1.2-0.9-1.9-0.8-1.3,0.8c0.2,0.4,0.3,0.8,0.5,1.2
			c-0.3,0.2-0.6,0.4-0.9,0.6c-1.2,0.7-1.4,1.3,0.6,1.6c0.4,0.1,0.8,0.1,1.3,0.2c0.2,0.6,0.5,1.2,0.8,1.8c0.6,1.2,0.9,2.5,1.5,0.2
			c0.1-0.5,0.2-1,0.3-1.6c0.4,0.1,0.8,0.1,1.2,0.1c1.6,0.1,1.5-0.6,0.6-1.4c-0.4-0.3-0.8-0.6-1.2-1c0.1-0.5,0.2-1,0.3-1.4
			C173.3,13.6,172.7,13.4,171.3,14.5z"/>
	</g>
	<g>
		<path d="M175.3,26.4c-0.2-0.4-0.4-0.9-0.6-1.3c-0.1-0.2-0.4-0.2-0.4,0c-0.1,0.4-0.2,0.7-0.4,1.1c-0.6-0.1-1.2-0.1-1.8,0
			c-0.2,0-0.3,0.3-0.1,0.4c0.5,0.3,1,0.7,1.5,1.1c-0.1,0.5-0.2,1-0.4,1.6c0,0.2,0.2,0.4,0.4,0.3c0.4-0.3,0.9-0.6,1.3-0.9
			c0.2,0.2,0.5,0.4,0.8,0.6c0.8,0.5,1,0.5,0.7-0.4c-0.1-0.3-0.2-0.6-0.4-1c0.3-0.2,0.5-0.4,0.8-0.6c0.8-0.6,0.2-0.8-0.3-0.8
			C176.1,26.5,175.7,26.5,175.3,26.4z"/>
	</g>
	<g>
		<path d="M44.2,26.7C44.2,26.7,44.2,26.7,44.2,26.7c0,0.1,0,0.1,0,0.2V26.7z"/>
	</g>
	<g>
		<path d="M54.7,14.4c0.1,0.1,0.3-0.1,0.2-0.2c-0.2-1-0.7-2-1-3c-0.4-1.3-0.3-2.7-0.2-4.1c0-0.1-0.2-0.2-0.3-0.1
			C51.8,9.1,52.6,13,54.7,14.4z"/>
	</g>
	<g>
		<path d="M166.2,22.4c-0.4,0.4-0.8,0.8-1.2,1.3c-0.5-0.3-1.1-0.6-1.6-0.8c-0.4-0.2-0.7,0.2-0.6,0.6c0.3,0.6,0.6,1.2,0.9,1.8
			c-0.3,0.3-0.5,0.7-0.8,1c-0.2,0.3-0.1,0.8,0.4,0.6c0.5-0.1,0.9-0.2,1.4-0.3c0.3,0.4,0.6,0.9,1,1.3c0.6,0.8,1.1,0.5,1.1-0.1
			c0-0.4,0.1-0.9,0.1-1.3c0.5,0,1-0.1,1.4-0.1c0.4,0,0.6-0.5,0.2-0.7c-0.6-0.3-1.1-0.6-1.7-0.9c0-0.7,0-1.3,0-2
			C166.9,22.4,166.4,22.2,166.2,22.4z"/>
	</g>
	<g>
		<path d="M29.5,26.4c0-0.1,0.1-0.2,0.2-0.1c2.1,1,4.2,3.4,3.5,5.8c0,0.1-0.2,0.2-0.3,0.1C31.1,31.1,30,28.5,29.5,26.4z"/>
	</g>
	<g>
		<path d="M25.5,17.4c0.1-0.3,0.2-0.6,0.4-1c-0.3-0.2-0.5-0.4-0.8-0.6c-0.8-0.6-0.2-0.8,0.3-0.8c0.4,0,0.8-0.1,1.2-0.1
			c0.2-0.4,0.4-0.9,0.6-1.3c0.1-0.2,0.4-0.2,0.4,0c0.1,0.4,0.2,0.7,0.4,1.1c0.6-0.1,1.2-0.1,1.8,0c0.2,0,0.3,0.3,0.1,0.4
			c-0.5,0.3-1,0.7-1.5,1.1c0.1,0.5,0.2,1,0.4,1.6c0,0.2-0.2,0.4-0.4,0.3c-0.4-0.3-0.9-0.6-1.3-0.9c-0.2,0.2-0.5,0.4-0.8,0.6
			C25.4,18.4,25.2,18.3,25.5,17.4z"/>
	</g>
	<g>
		<path d="M22.3,32.8c2.9-0.5,6.1,0.7,7.2,3.5c0.1,0.1,0,0.3-0.2,0.3c-2.8-0.2-5.2-1.6-7.1-3.6C22.2,32.9,22.2,32.8,22.3,32.8z"/>
	</g>
	<g>
		<path d="M24.5,27.6c3.8,1.7,6.1,3.7,7.9,7.3c0.1,0.2-0.1,0.3-0.3,0.2c-3.1-2.2-5.4-4.4-7.8-7.4C24.3,27.7,24.4,27.6,24.5,27.6z"/>
	</g>
	<g>
		<path d="M17,14.5c0.4,0.3,0.8,0.6,1.2,0.9c0.3-0.2,0.6-0.5,1-0.7c1.2-0.9,1.9-0.8,1.3,0.8c-0.2,0.4-0.3,0.8-0.5,1.2
			c0.3,0.2,0.6,0.4,0.9,0.6c1.2,0.7,1.4,1.3-0.6,1.6c-0.4,0.1-0.8,0.1-1.3,0.2c-0.2,0.6-0.5,1.2-0.8,1.8c-0.6,1.2-0.9,2.5-1.5,0.2
			c-0.1-0.5-0.2-1-0.3-1.6c-0.4,0.1-0.8,0.1-1.2,0.1c-1.6,0.1-1.5-0.6-0.6-1.4c0.4-0.3,0.8-0.6,1.2-1c-0.1-0.5-0.2-1-0.3-1.4
			C15,13.6,15.6,13.4,17,14.5z"/>
	</g>
	<g>
		<path d="M13,26.4c0.2-0.4,0.4-0.9,0.6-1.3c0.1-0.2,0.4-0.2,0.4,0c0.1,0.4,0.2,0.7,0.4,1.1c0.6-0.1,1.2-0.1,1.8,0
			c0.2,0,0.3,0.3,0.1,0.4c-0.5,0.3-1,0.7-1.5,1.1c0.1,0.5,0.2,1,0.4,1.6c0,0.2-0.2,0.4-0.4,0.3c-0.4-0.3-0.9-0.6-1.3-0.9
			c-0.2,0.2-0.5,0.4-0.8,0.6c-0.8,0.5-1,0.5-0.7-0.4c0.1-0.3,0.2-0.6,0.4-1c-0.3-0.2-0.5-0.4-0.8-0.6c-0.8-0.6-0.2-0.8,0.3-0.8
			C12.2,26.5,12.6,26.5,13,26.4z"/>
	</g>
	<g>
		<path d="M22.1,22.4c0.4,0.4,0.8,0.8,1.2,1.3c0.5-0.3,1.1-0.6,1.6-0.8c0.4-0.2,0.7,0.2,0.6,0.6c-0.3,0.6-0.6,1.2-0.9,1.8
			c0.3,0.3,0.5,0.7,0.8,1c0.2,0.3,0.1,0.8-0.4,0.6c-0.5-0.1-0.9-0.2-1.4-0.3c-0.3,0.4-0.6,0.9-1,1.3c-0.6,0.8-1.1,0.5-1.1-0.1
			c0-0.4-0.1-0.9-0.1-1.3c-0.5,0-1-0.1-1.4-0.1c-0.4,0-0.6-0.5-0.2-0.7c0.6-0.3,1.1-0.6,1.7-0.9c0-0.7,0-1.3,0-2
			C21.4,22.4,21.8,22.2,22.1,22.4z"/>
	</g>
	<g>
		<path d="M56.6,14.3c0.3-2.1,0.7-4.1,1.6-6.1c0.9-2,2.5-3.6,3.9-5.2c0.1-0.1,0-0.4-0.2-0.3c-4.4,1.7-6.3,7.3-5.5,11.6
			C56.5,14.4,56.6,14.4,56.6,14.3z"/>
	</g>
	<g>
		<path d="M103.2,5.5C98.7,3.8,93.5,3,88.3,3.1c-2.1,0-7.8,0-13.9,2c-15.4,5-12.1,18.4,0.4,20.7c11,2,23.4,0.8,29.6-1.6
			C116.8,19.5,112.8,9,103.2,5.5z"/>
	</g>
	<g>
		<path d="M178.9,74.9c-1.6-0.6-3-1.4-4.5-2c-1.1-0.5-2.3-0.7-2.5,0.9c0,0.4-0.1,0.8-0.1,1.1c-6.4-0.5-12.9-0.8-19.4-0.8
			c-5-0.1-11.2,0.2-18.2,0.5c0,0,0,0,0,0c-1.1,0.1-2.2,0.1-3.2,0.2c0,0,0,0,0,0c-11.5,0.7-24.7,1.8-37.6,3c0,0,0,0,0-0.1
			c-0.3,0-0.6,0.1-0.9,0.1c0,0,0,0,0,0.1c-7.4,0.7-14.7,1.5-21.5,2.2c0-0.1,0-0.1,0.1-0.2c-0.8,0.1-1.7,0.2-2.5,0.3
			c0,0,0,0.1,0.1,0.1c-3.6,0.4-7.1,0.8-10.3,1.1c0,0,0-0.1,0-0.1c-1.8,0.2-3.7,0.4-5.5,0.7c0,0,0,0,0,0c-10.8,1.2-17.9,2.1-17.9,2.1
			C29.4,85,24.1,85.8,19,87.1c-0.3-0.8-0.9-1.5-1.4-2.1c-0.4-0.5-0.7-0.9-1.2-1.2c-0.5-0.4-0.9-0.9-1.5-1.1
			c-0.2-0.1-0.4,0.1-0.4,0.3c0.2,1,0.7,2.1,1.2,3c0.3,0.5,0.6,1.2,1.1,1.8c-0.7,0.2-1.4,0.4-2,0.6c-0.4-0.9-1.3-1.7-1.9-2.3
			c-0.7-0.7-1.8-1.5-2.8-1.8c-0.2-0.1-0.3,0.1-0.3,0.3c0.1,0.4,0.4,0.8,0.6,1.2c0.4,0.6,0.6,1.3,1.1,1.9c0.4,0.5,0.7,1,1.2,1.5
			c-0.7,0.2-1.3,0.5-2,0.7c-0.3-1.1-1.4-1.8-2.2-2.5c-0.8-0.6-2-1.4-3.1-1.5c-0.2,0-0.4,0.2-0.3,0.4C5.5,87,6.3,87.9,7,88.7
			c0.4,0.5,1,1.2,1.7,1.7C8.1,91,7.8,92,7.5,92.8C7.2,93.4,7.1,94,7,94.6C7,95.1,6.7,95.5,6.7,96c0,0.2,0.2,0.3,0.4,0.2
			c0.8-0.5,1.6-1.5,2.1-2.3c0.6-0.9,1.3-2,1.3-3.2c0.7,0,1.4-0.1,2.1-0.1c-0.2,0.4-0.3,0.9-0.4,1.4c-0.3,1.1-0.5,2.5-0.4,3.7
			c0,0.2,0.2,0.3,0.4,0.2c0.8-0.6,1.4-1.7,1.8-2.6c0.4-0.8,0.9-1.8,0.9-2.7c0.7,0,1.4-0.1,2.1-0.2c-0.1,0.5-0.2,1.1-0.3,1.6
			c-0.2,1-0.2,2.4,0,3.4c0,0.2,0.3,0.2,0.4,0.1c0.6-0.7,1.1-1.7,1.5-2.6c0.3-0.8,0.7-1.8,0.7-2.8c5.1-0.5,10.3-1.4,15.4-2.2
			c27.2-4.8,117.1-10.7,117.1-10.7c6.6-0.3,13.3-0.6,19.9-0.8c0,0.2,0,0.4,0,0.6c0,1.6,0.6,2.2,2.3,1.7c1.7-0.4,3.2-1.1,4.9-1.6
			C180.1,76.7,180.6,75.5,178.9,74.9z"/>
	</g>
	<g>
		<g>
			<path class="st1" d="M69.5,13.2h1.2l1.7,4.4l-0.8,1.1L69.5,13.2z M74.2,13.2l-2.2,6.2c-0.1,0.2-0.2,0.4-0.3,0.5
				c-0.1,0.1-0.3,0.2-0.5,0.3c-0.2,0.1-0.4,0.1-0.7,0.1h-0.3V19h0.3c0.1,0,0.3,0,0.4-0.1c0.1-0.1,0.2-0.2,0.2-0.3l1.9-5.4H74.2z"/>
		</g>
		<g>
			<path class="st1" d="M76.3,18c-0.3-0.2-0.6-0.4-0.7-0.7s-0.3-0.7-0.3-1.2v-0.8c0-0.5,0.1-0.8,0.3-1.2s0.4-0.6,0.7-0.7
				c0.3-0.2,0.7-0.3,1.2-0.3c0.5,0,0.8,0.1,1.2,0.3c0.3,0.2,0.6,0.4,0.7,0.7c0.2,0.3,0.3,0.7,0.3,1.2v0.8c0,0.5-0.1,0.8-0.3,1.2
				c-0.2,0.3-0.4,0.6-0.7,0.7c-0.3,0.2-0.7,0.3-1.2,0.3C77,18.3,76.7,18.2,76.3,18z M78.1,16.8c0.1-0.2,0.2-0.4,0.2-0.7v-0.8
				c0-0.3-0.1-0.5-0.2-0.7c-0.1-0.2-0.4-0.2-0.6-0.2c-0.3,0-0.5,0.1-0.6,0.2c-0.1,0.2-0.2,0.4-0.2,0.7v0.8c0,0.3,0.1,0.5,0.2,0.7
				c0.1,0.2,0.4,0.2,0.6,0.2S78,16.9,78.1,16.8z"/>
		</g>
		<g>
			<path class="st1" d="M82.8,16.3c0,0.2,0.1,0.4,0.2,0.6s0.3,0.2,0.6,0.2c0.2,0,0.4-0.1,0.6-0.2c0.1-0.1,0.2-0.3,0.2-0.6l0.1,1.1
				c-0.1,0.3-0.2,0.5-0.5,0.7c-0.2,0.2-0.5,0.3-0.8,0.3c-0.5,0-1-0.2-1.2-0.5c-0.3-0.3-0.4-0.8-0.4-1.5v-3.1h1.3V16.3z M84.4,13.2
				h1.3v5h-1.3V13.2z"/>
		</g>
		<g>
			<path class="st1" d="M91.3,17.9c-0.3-0.3-0.4-0.6-0.4-1.2c0-0.5,0.1-0.9,0.4-1.1c0.3-0.2,0.7-0.4,1.3-0.4h1.3l0.1,1h-1.3
				c-0.2,0-0.3,0-0.4,0.1c-0.1,0.1-0.1,0.2-0.1,0.4c0,0.2,0.1,0.3,0.2,0.4c0.1,0.1,0.3,0.1,0.6,0.1c0.4,0,0.6,0,0.8-0.1
				c0.2-0.1,0.3-0.2,0.3-0.4l0.1,0.7c0,0.2-0.1,0.3-0.2,0.5c-0.1,0.1-0.3,0.2-0.6,0.3c-0.2,0.1-0.5,0.1-0.7,0.1
				C92,18.3,91.6,18.2,91.3,17.9z M93.9,15c0-0.2-0.1-0.4-0.2-0.5c-0.2-0.1-0.4-0.2-0.7-0.2c-0.2,0-0.4,0-0.6,0.1
				c-0.2,0.1-0.3,0.1-0.5,0.3l-0.8-0.8c0.2-0.2,0.5-0.4,0.8-0.5c0.3-0.1,0.7-0.2,1.1-0.2c0.4,0,0.8,0.1,1.1,0.2
				c0.3,0.1,0.5,0.4,0.7,0.6c0.2,0.3,0.2,0.6,0.2,1v3.2h-1.2V15z"/>
		</g>
		<g>
			<path class="st1" d="M97.2,13.2h1.4v5h-1.4V13.2z M99.7,14.5c-0.1,0-0.2,0-0.3,0c-0.3,0-0.5,0.1-0.6,0.3
				c-0.1,0.2-0.2,0.4-0.2,0.7l-0.1-1.3c0.1-0.3,0.3-0.5,0.5-0.7c0.2-0.2,0.5-0.2,0.7-0.2c0.2,0,0.4,0,0.6,0.1
				c0.2,0.1,0.3,0.2,0.4,0.3l-0.8,1.1C99.9,14.5,99.8,14.5,99.7,14.5z"/>
		</g>
		<g>
			<path class="st1" d="M103.4,18.3c0,0-0.2-0.1-0.5-0.3c-0.3-0.2-0.6-0.4-0.8-0.8c-0.2-0.3-0.3-0.7-0.3-1.2v-0.6
				c0-0.5,0.1-0.9,0.3-1.3c0.2-0.4,0.4-0.6,0.8-0.8c0.3-0.2,0.7-0.3,1.2-0.3c0.4,0,0.8,0.1,1.1,0.3c0.3,0.2,0.6,0.5,0.7,1
				c0.2,0.4,0.2,0.9,0.2,1.5v0.3h-3.4v-0.9h2.2l0-0.1c0-0.3-0.1-0.5-0.3-0.7c-0.1-0.2-0.3-0.2-0.6-0.2c-0.3,0-0.6,0.1-0.7,0.3
				c-0.2,0.2-0.3,0.5-0.3,0.8v0.6c0,0.3,0.1,0.6,0.3,0.8c0.2,0.2,0.5,0.3,0.8,0.3c0.2,0,0.4,0,0.5-0.1c0.2-0.1,0.3-0.2,0.5-0.3
				l0.9,0.8c-0.3,0.2-0.6,0.4-0.9,0.6c-0.3,0.1-0.7,0.2-1,0.2C103.7,18.3,103.4,18.3,103.4,18.3z"/>
		</g>
	</g>
	<g>
		<g>
			<g>
				<path class="st1" d="M67.2,71.8c0.3,0.1,0.5,0.2,0.6,0.5c0.1,0.2,0.2,0.5,0.1,0.8c0,0-0.1,0.3-0.2,0.9c-0.1,0.6-0.3,1.3-0.6,2.2
					c-0.3,0.9-0.6,1.9-1,3c-0.4,1.1-0.8,2.3-1.3,3.5c-1.1,2.8-2.3,5-3.6,6.7c-1.7,2.2-3.5,3.3-5.4,3.3c-1,0-1.8-0.4-2.4-1.1
					c-0.5-0.6-0.9-1.5-1-2.6c-0.2-1.1-0.2-2.6,0-4.4c0.1-1.5,0.3-3.1,0.6-4.8c0.3-1.7,0.6-3.4,0.9-5.2c0.3-1.8,0.6-3.5,0.9-5.3
					c0.3-1.8,0.5-3.4,0.6-4.9c0.2-2.7,0.1-4.6-0.3-5.6c-0.4-1-1.1-1.2-1.9-0.6c-0.8,0.6-1.8,1.9-2.9,4c-1.1,2.1-2.3,4.8-3.4,8.3
					c-0.4,1-0.7,2-1,3c-0.3,0.9-0.6,1.8-0.8,2.6c-0.2,1.2-0.4,2.3-0.6,3.3c-0.2,1-0.4,1.7-0.7,2.3c-0.1,0.5-0.3,1-0.7,1.3
					c-0.4,0.4-0.8,0.7-1.4,0.9s-1.1,0.4-1.6,0.5c-0.6,0.1-1.1,0.1-1.6,0.1c-0.5,0-0.8-0.1-1.1-0.3c-0.3-0.2-0.4-0.4-0.3-0.7
					c0.4-1.6,0.7-3,1-4.3c0.3-1.3,0.6-2.7,0.9-4.2c0.3-1.6,0.6-3.1,0.9-4.7c0.4-2.6,0.7-4.9,0.9-6.7c0.1-1.8,0.2-3.3,0.1-4.4
					c-0.1-1.1-0.2-2-0.4-2.6c-0.2-0.6-0.4-1-0.6-1.3c-0.3-0.4-0.7-0.6-1.1-0.6c-0.1,0-0.3,0.1-0.5,0.2c-0.2,0.1-0.5,0.4-0.8,0.8
					c-0.3,0.4-0.7,1.1-1.2,1.9c-0.4,0.8-0.9,2-1.5,3.5c-0.4,1-0.7,2.1-1.1,3.3c-0.3,1.2-0.7,2.3-1,3.6c-0.3,1.2-0.6,2.5-1,3.7
					c-0.3,1.2-0.6,2.5-0.9,3.6c-0.1,0.6-0.3,1.1-0.4,1.5c-0.1,0.4-0.2,0.8-0.3,1.2c-0.1,0.4-0.2,0.7-0.2,1c-0.1,0.3-0.2,0.7-0.3,1
					c-0.1,0.3-0.1,0.6-0.2,0.9c-0.1,0.2-0.1,0.5-0.2,0.6c-0.2,0.6-0.5,1-0.9,1.4c-0.4,0.4-0.9,0.7-1.5,0.9c-0.5,0.2-1.1,0.4-1.7,0.4
					c-0.6,0.1-1.1,0-1.5-0.1c-0.4-0.1-0.8-0.3-1-0.7c-0.2-0.3-0.3-0.7-0.1-1.2c0,0,0.1-0.3,0.2-0.9c0.1-0.6,0.3-1.3,0.5-2.3
					c0.2-1,0.4-2.1,0.6-3.3c0.2-1.3,0.4-2.6,0.5-4c0.4-3.7,0.5-6.8,0.2-9.4c-0.3-2.6-0.8-4.7-1.7-6.1c-0.4-0.7-0.9-1.2-1.5-1.6
					c-0.5-0.3-1.1-0.5-1.6-0.5c-0.6,0-1.1,0.2-1.6,0.5c-0.5,0.3-1,0.8-1.5,1.4c1.7,0.9,3.1,2.3,4.1,4.4c0.7,1.3,1.2,2.6,1.5,4.1
					c0.3,1.5,0.4,2.8,0.3,4.2c-0.1,1.7-0.5,3-1.4,4.1c-0.9,1.2-2.1,1.8-3.7,1.8c-2.2,0-3.9-0.9-5.1-2.7c-1-1.6-1.5-3.5-1.5-6
					c0-1.7,0.2-3.4,0.7-5c0.1-0.4,0.2-0.7,0.4-1.1c0.1-0.3,0.3-0.7,0.4-1c-0.4-0.3-0.8-0.6-1.2-0.7c-0.3-0.2-0.7-0.2-1-0.2
					c-0.3,0-0.7,0-1,0.2c-0.3,0.1-0.8,0.3-1.2,0.5c0.1,0.3,0.2,0.7,0.3,1.1c0.1,0.4,0.1,0.8,0.2,1.1c0.1,1.3-0.2,2.5-0.7,3.6
					c-0.4,0.7-0.8,1.3-1.4,1.7c-0.6,0.4-1.2,0.6-1.9,0.6c-0.8,0-1.4-0.2-1.8-0.5c-0.4-0.3-0.6-0.6-0.8-0.9c-0.3-0.7-0.4-1.5-0.1-2.5
					c0.2-0.8,0.6-1.6,1.3-2.5c0.3-0.4,0.7-0.8,1-1.2c0.4-0.4,0.7-0.8,1.2-1.1c-0.7-0.7-1.7-0.9-3-0.6c-0.3,0-0.5,0-0.8-0.2
					S1.1,57,1.1,56.7c0-0.3,0-0.5,0.2-0.8c0.2-0.2,0.4-0.4,0.7-0.4C4,55.1,5.7,55.6,7,57c0.6-0.3,1.3-0.5,1.9-0.7
					c0.6-0.2,1.2-0.4,1.8-0.6c0.6-0.1,1.2-0.2,1.9-0.3c0.6,0,1.3,0,2,0.1c0.9-1.1,1.9-2,3-2.6c1.6-1,3.3-1.4,5.1-1.4
					c2.4,0,4.3,0.9,5.6,2.7c0.5,0.6,0.9,1.3,1.2,2.2c0.3,0.9,0.6,1.9,0.8,2.9c0.2,1.1,0.3,2.2,0.4,3.4c0.1,1.2,0.1,2.4,0.1,3.6
					c0.3-1,0.6-2.1,0.9-3.1c0.3-1,0.6-2,0.9-2.9c0.8-2.3,1.6-4.1,2.4-5.3c0.5-0.9,1.2-1.5,1.9-2c0.8-0.5,1.5-0.8,2.4-0.9
					c0.8-0.2,1.6-0.1,2.4,0.1c0.8,0.2,1.5,0.5,2.2,1c0.7,0.5,1.2,1.1,1.7,1.8c0.5,0.8,0.7,1.6,0.9,2.6c0,0.3,0,0.8,0,1.3
					s0,1.2-0.1,1.9c0,0.7-0.1,1.5-0.1,2.4c-0.1,0.9-0.1,1.8-0.2,2.7c0.8-2.1,1.7-3.9,2.5-5.4c0.7-1.4,1.5-2.4,2.2-3.2
					c1-1,2-1.7,3.2-1.9c1.2-0.3,2.3-0.2,3.3,0.3c1,0.4,1.9,1.2,2.7,2.3c0.8,1.1,1.2,2.5,1.4,4.1c0.1,0.9,0.1,1.9,0.1,3
					c-0.1,1.1-0.2,2.2-0.3,3.4c-0.2,1.2-0.3,2.4-0.6,3.7c-0.2,1.3-0.4,2.5-0.7,3.8c-0.1,0.8-0.3,1.6-0.4,2.6
					c-0.2,0.9-0.3,1.9-0.4,2.9c-0.1,1-0.2,1.9-0.3,2.8c-0.1,0.9-0.1,1.6-0.1,2.2c0,0.6,0.1,1,0.3,1.3c0.2,0.3,0.4,0.2,0.7-0.1
					c0.3-0.3,0.7-0.9,1.2-1.8c0.5-0.9,1.1-2.3,1.9-4c0.5-1.1,0.9-2.3,1.2-3.3c0.4-1.1,0.7-2.1,0.9-2.9c0.3-0.9,0.5-1.6,0.6-2.1
					s0.2-0.8,0.2-0.8c0.1-0.3,0.2-0.5,0.5-0.6C66.7,71.7,67,71.7,67.2,71.8z M6,63.6c0.4-0.7,0.5-1.6,0.5-2.5c0-0.2,0-0.4-0.1-0.5
					c0-0.2-0.1-0.3-0.1-0.5c-0.3,0.3-0.6,0.6-0.8,0.8c-0.3,0.3-0.5,0.6-0.7,0.9c-0.5,0.7-0.9,1.3-1,1.8c-0.1,0.5-0.1,0.8,0,1
					c0,0.1,0.2,0.2,0.3,0.2c0.2,0,0.3,0,0.4,0c0.4,0,0.7-0.1,0.9-0.4C5.7,64.2,5.9,63.9,6,63.6z M13.1,66.1c0,1,0.1,1.9,0.3,2.7
					c0.2,0.8,0.5,1.5,0.9,2.1c0.2,0.3,0.3,0.4,0.5,0.5c0.2,0,0.3,0,0.5-0.1c0.2-0.1,0.3-0.3,0.4-0.5c0.1-0.2,0.2-0.4,0.4-0.7
					c0.2-0.5,0.4-1,0.4-1.5c0.1-0.6,0.1-1.2,0.1-1.8c-0.1-1-0.3-2-0.7-3c-0.3-1-0.8-1.9-1.4-2.7l-0.3-0.5c-0.3,0.9-0.6,1.8-0.8,2.7
					C13.1,64.3,13.1,65.2,13.1,66.1z"/>
				<path class="st1" d="M55.9,93.6c-1.3,0-2.4-0.5-3.2-1.5c-0.7-0.7-1.1-1.8-1.3-3.1c-0.2-1.2-0.2-2.7,0-4.6
					c0.1-1.5,0.3-3.1,0.6-4.9c0.3-1.7,0.6-3.5,0.9-5.2c0.3-1.8,0.6-3.5,0.9-5.3c0.3-1.7,0.5-3.3,0.6-4.8c0.2-3.2,0-4.5-0.2-5.1
					C54.1,59,54,58.9,54,58.9c0,0-0.1,0-0.2,0.1c-0.5,0.3-1.3,1.2-2.6,3.6c-1.1,2-2.2,4.7-3.3,8.1c-0.4,1-0.7,2-1,3
					c-0.3,0.9-0.6,1.8-0.8,2.5c-0.2,1.2-0.4,2.3-0.6,3.3c-0.2,1-0.5,1.8-0.7,2.4c-0.1,0.7-0.5,1.3-1,1.8c-0.5,0.5-1,0.8-1.6,1.1
					c-0.6,0.3-1.2,0.5-1.9,0.6c-0.7,0.1-1.3,0.2-1.8,0.1c-0.6,0-1.2-0.2-1.6-0.5c-0.7-0.4-1-1.1-0.8-1.9c0.4-1.6,0.7-3,1-4.2
					c0.3-1.2,0.6-2.6,0.9-4.2c0.3-1.5,0.6-3.1,0.9-4.6c0.4-2.6,0.7-4.8,0.8-6.6c0.1-1.7,0.2-3.2,0.1-4.2c-0.1-1.3-0.2-2-0.4-2.4
					C39.2,56.3,39,56,39,56c-0.1-0.1-0.2-0.1-0.2-0.2c0,0-0.1,0-0.1,0l0,0c0,0-0.1,0.1-0.5,0.5c-0.3,0.4-0.7,1-1.1,1.8
					c-0.4,0.8-0.9,1.9-1.4,3.4c-0.4,1-0.7,2.1-1.1,3.2c-0.3,1.1-0.7,2.3-1,3.5c-0.3,1.2-0.6,2.4-1,3.7L31.4,77
					c-0.1,0.4-0.2,0.8-0.3,1.2c-0.1,0.4-0.2,0.7-0.2,1.1c-0.1,0.3-0.2,0.7-0.3,1c-0.1,0.3-0.1,0.6-0.2,0.9c-0.1,0.2-0.1,0.4-0.2,0.6
					c-0.2,0.8-0.6,1.4-1.2,1.9c-0.5,0.5-1.1,0.8-1.8,1.1c-0.6,0.3-1.3,0.4-1.9,0.5c-0.7,0.1-1.3,0-1.9-0.1c-0.7-0.2-1.2-0.6-1.5-1.1
					c-0.3-0.4-0.6-1.1-0.2-2.1c0-0.1,0.1-0.4,0.2-0.9c0.1-0.5,0.3-1.3,0.5-2.2c0.2-0.9,0.4-2,0.6-3.3c0.2-1.2,0.4-2.5,0.5-3.9
					c0-0.4,0.1-0.8,0.1-1.2c-0.2,1.2-0.7,2.2-1.4,3.1c-1.1,1.5-2.7,2.3-4.6,2.3c-2.6,0-4.6-1.1-6-3.2c-1.1-1.7-1.7-3.9-1.7-6.5
					c0-1.8,0.3-3.6,0.8-5.3c0.1-0.4,0.3-0.8,0.4-1.1c0-0.1,0.1-0.2,0.1-0.2c-0.1-0.1-0.2-0.1-0.3-0.2c-0.2-0.1-0.4-0.1-0.6-0.2
					c-0.2,0-0.4,0-0.6,0.1c-0.1,0-0.2,0.1-0.3,0.1c0,0.1,0,0.2,0.1,0.3c0.1,0.4,0.1,0.8,0.2,1.2c0.1,1.6-0.2,3-0.8,4.2
					c-0.4,0.9-1,1.6-1.8,2.1c-0.8,0.5-1.6,0.8-2.5,0.8c-1.1,0-1.9-0.2-2.5-0.7c-0.5-0.4-0.8-0.8-1-1.2c-0.5-1-0.5-2.1-0.2-3.3
					c0.2-0.9,0.7-1.8,1.4-2.8c0.4-0.5,0.7-0.9,1.1-1.3c0,0,0,0,0.1-0.1c-0.2,0-0.5,0-0.9,0.1c-0.6,0.1-1.1,0-1.6-0.3
					C0.4,58,0.1,57.5,0,56.9c-0.1-0.5,0-1,0.3-1.5c0.3-0.5,0.8-0.8,1.4-0.9c2.2-0.4,4.1,0.1,5.5,1.3c0.4-0.2,0.8-0.3,1.3-0.5
					c0.6-0.2,1.3-0.5,2-0.6c0.7-0.2,1.4-0.2,2-0.3c0.5,0,1.1,0,1.6,0c0.9-1,1.9-1.8,2.9-2.4c1.7-1,3.6-1.6,5.6-1.6
					c2.7,0,4.9,1.1,6.5,3.1c0.5,0.7,1,1.5,1.4,2.5c0.4,0.9,0.6,2,0.9,3.1c0.1,0.5,0.2,0.9,0.2,1.4c0.1-0.2,0.1-0.3,0.2-0.4
					c0.9-2.4,1.7-4.2,2.5-5.5c0.6-1,1.4-1.8,2.3-2.3c0.9-0.5,1.8-0.9,2.7-1.1c1-0.2,1.9-0.2,2.9,0.1c0.9,0.2,1.8,0.6,2.6,1.1
					c0.8,0.6,1.4,1.3,2,2.2c0.5,0.9,0.9,1.9,1,3c0,0.4,0,0.9,0,1.4c0,0.4,0,0.8,0,1.2c0-0.1,0.1-0.1,0.1-0.2
					c0.8-1.5,1.5-2.6,2.4-3.4c1.1-1.2,2.4-1.9,3.7-2.2c1.4-0.3,2.7-0.2,4,0.3c1.2,0.5,2.3,1.4,3.2,2.7c0.9,1.2,1.4,2.8,1.6,4.6
					c0.1,1,0.1,2,0.1,3.2c-0.1,1.1-0.2,2.3-0.3,3.5c-0.2,1.2-0.3,2.5-0.6,3.7c-0.2,1.3-0.4,2.5-0.7,3.8c-0.1,0.8-0.3,1.6-0.4,2.5
					c-0.1,0.9-0.3,1.9-0.4,2.8c-0.1,1-0.2,1.9-0.3,2.7c0,0.5-0.1,1-0.1,1.5c0.1-0.1,0.2-0.3,0.3-0.5c0.5-0.9,1.1-2.2,1.8-4
					c0.4-1.1,0.9-2.2,1.2-3.3c0.4-1.1,0.7-2,0.9-2.9c0.3-0.8,0.4-1.5,0.6-2.1c0.1-0.3,0.1-0.6,0.2-0.7l0-0.1c0.1-0.5,0.5-1,0.9-1.3
					c0.5-0.3,1.1-0.4,1.6-0.3c0.5,0.1,1,0.5,1.3,0.9c0.3,0.5,0.4,1,0.3,1.5c0,0.1-0.1,0.4-0.2,1c-0.1,0.6-0.3,1.3-0.6,2.2
					c-0.3,0.9-0.6,1.9-1,3c-0.4,1.1-0.8,2.3-1.3,3.5c-1.2,2.9-2.4,5.2-3.8,6.9C60.2,92.3,58.1,93.6,55.9,93.6z M54,56.7
					c0.2,0,0.4,0,0.5,0.1c0.6,0.2,1.2,0.7,1.5,1.5c0.5,1.2,0.6,3.1,0.4,6.1c-0.1,1.5-0.3,3.2-0.6,4.9c-0.3,1.8-0.6,3.5-0.9,5.3
					c-0.3,1.7-0.6,3.5-0.8,5.2c-0.3,1.7-0.5,3.3-0.6,4.7c-0.1,1.7-0.1,3.1,0,4.2c0.1,0.9,0.4,1.6,0.8,2c0.4,0.5,0.9,0.7,1.6,0.7
					c1.5,0,3-1,4.5-2.9c-0.4,0.3-0.7,0.4-1.1,0.3c-0.4,0-0.8-0.3-1-0.7c-0.3-0.4-0.4-1-0.5-1.8c0-0.7,0-1.4,0.1-2.4
					c0.1-0.9,0.2-1.8,0.3-2.8c0.1-1,0.3-1.9,0.4-2.9c0.2-0.9,0.3-1.8,0.4-2.6c0.2-1.3,0.5-2.5,0.7-3.8c0.2-1.2,0.4-2.5,0.5-3.6
					c0.1-1.2,0.3-2.3,0.3-3.3c0.1-1,0-2,0-2.8c-0.2-1.5-0.6-2.7-1.2-3.6c-0.6-0.9-1.4-1.6-2.2-1.9c-0.8-0.4-1.7-0.4-2.7-0.2
					c-0.4,0.1-0.8,0.2-1.2,0.4C53.5,56.8,53.8,56.7,54,56.7z M38.1,83.3c0.1,0,0.2,0.1,0.4,0.1c0.4,0,0.8,0,1.3-0.1
					c0.5-0.1,0.9-0.2,1.4-0.4c0.4-0.2,0.8-0.4,1.1-0.7c0.2-0.2,0.4-0.5,0.4-0.8l0.1-0.2c0.2-0.5,0.4-1.3,0.6-2.2
					c0.2-0.9,0.4-2,0.6-3.2l0-0.2c0.3-0.8,0.5-1.7,0.8-2.6c0.3-1,0.6-2,1-3c0.2-0.7,0.5-1.4,0.7-2l-2.1,5.5l0.8-7.7
					c0.1-0.9,0.2-1.8,0.2-2.7c0.1-0.8,0.1-1.6,0.1-2.3c0-0.7,0.1-1.3,0.1-1.8c0-0.5,0-0.9,0-1.2c-0.1-0.8-0.3-1.5-0.7-2.1
					c-0.4-0.6-0.8-1.1-1.4-1.5c-0.5-0.4-1.2-0.7-1.8-0.8c-0.7-0.2-1.3-0.2-2,0c-0.5,0.1-1.1,0.3-1.6,0.6c0.2-0.1,0.4-0.1,0.5-0.1
					c0.8,0,1.4,0.3,1.9,0.9c0.3,0.4,0.6,0.9,0.8,1.6c0.2,0.7,0.4,1.6,0.5,2.9c0.1,1.2,0,2.7-0.1,4.5c-0.1,1.8-0.4,4.1-0.9,6.8
					c-0.3,1.6-0.6,3.2-0.9,4.7c-0.3,1.6-0.7,3-0.9,4.2C38.8,80.6,38.5,81.9,38.1,83.3z M23.7,82.4L23.7,82.4l-0.1,0.2
					c-0.1,0.2,0,0.3,0,0.3c0,0.1,0.1,0.2,0.4,0.2c0.3,0.1,0.7,0.1,1.1,0.1c0.5,0,0.9-0.2,1.4-0.3c0.4-0.2,0.8-0.4,1.2-0.7
					c0.3-0.3,0.5-0.6,0.6-0.9c0-0.2,0.1-0.4,0.2-0.6c0.1-0.2,0.1-0.5,0.2-0.8c0.1-0.4,0.2-0.7,0.3-1c0.1-0.3,0.2-0.6,0.2-1
					c0.1-0.4,0.2-0.8,0.3-1.2l0.4-1.5l0.9-3.7c0.2-0.8,0.4-1.5,0.6-2.2l-1.4,4.7v-7.5c0-1.2,0-2.4-0.1-3.6c-0.1-1.2-0.2-2.3-0.4-3.3
					c-0.2-1-0.4-1.9-0.8-2.7c-0.3-0.8-0.7-1.4-1.1-1.9c-1.2-1.6-2.8-2.3-4.8-2.3c-1.3,0-2.6,0.3-3.7,0.8c0.3-0.1,0.6-0.1,0.9-0.1
					c0.8,0,1.5,0.2,2.2,0.6c0.7,0.4,1.3,1.1,1.8,1.9c1,1.6,1.6,3.8,1.9,6.6c0.3,2.7,0.2,5.9-0.2,9.6c-0.2,1.4-0.4,2.8-0.5,4
					c-0.2,1.3-0.4,2.4-0.6,3.3c-0.2,1-0.4,1.7-0.5,2.3C23.8,82,23.8,82.3,23.7,82.4z M13.8,72c1,1.2,2.2,1.8,3.9,1.8
					c1.3,0,2.2-0.5,2.9-1.4c0.7-0.9,1.1-2.1,1.2-3.5c0.1-1.2,0-2.5-0.3-3.9c-0.3-1.4-0.8-2.6-1.4-3.8c-1-1.8-2.2-3.1-3.7-3.9
					l-1.1-0.6l0.5-0.7c-0.1,0.1-0.2,0.2-0.2,0.3L15,56.7l-0.6-0.1c-0.7-0.1-1.3-0.1-1.8-0.1c-0.6,0-1.1,0.1-1.7,0.2
					c-0.3,0.1-0.6,0.2-1,0.3c0.1,0,0.3,0,0.4,0c0.5,0,0.9,0.1,1.4,0.3c0.4,0.2,0.9,0.5,1.4,0.8l0.6,0.5l0.1-0.3l1.5,2.1
					c0.6,0.9,1.1,1.9,1.5,3c0.4,1.1,0.6,2.2,0.7,3.3c0.1,0.7,0,1.4-0.1,2.1c-0.1,0.7-0.3,1.3-0.5,1.8c-0.1,0.3-0.3,0.6-0.4,0.8
					c-0.2,0.3-0.4,0.6-0.7,0.8c-0.4,0.3-0.9,0.4-1.4,0.2C14.2,72.3,14,72.2,13.8,72z M14.4,63.2c0,0.1,0,0.2-0.1,0.3
					c-0.2,0.9-0.2,1.7-0.2,2.6c0,0.9,0.1,1.7,0.3,2.4c0.1,0.5,0.3,1,0.5,1.4c0-0.1,0.1-0.2,0.1-0.2c0.2-0.4,0.3-0.8,0.4-1.2
					c0.1-0.5,0.1-1,0-1.6c-0.1-0.9-0.3-1.8-0.6-2.7C14.7,63.8,14.6,63.5,14.4,63.2z M18.4,56c1.4,1,2.5,2.3,3.4,4.1
					c0.7,1.3,1.3,2.8,1.6,4.3c0.2,0.8,0.3,1.5,0.4,2.3c0-1.5,0-2.9-0.1-4.2c-0.2-2.4-0.8-4.4-1.6-5.7c-0.3-0.5-0.7-1-1.1-1.2
					c-0.4-0.2-0.7-0.3-1.1-0.3c-0.4,0-0.7,0.1-1.1,0.4C18.6,55.8,18.5,55.9,18.4,56z M4.3,63.7C4.3,63.7,4.3,63.7,4.3,63.7
					C4.3,63.7,4.3,63.7,4.3,63.7z M51.3,58.5c-0.5,0.6-1,1.4-1.5,2.3C50.3,59.9,50.8,59.1,51.3,58.5z"/>
			</g>
			<g>
				<path class="st1" d="M80.2,71.8c0.3,0.1,0.4,0.3,0.5,0.6c0.1,0.3,0.1,0.5,0,0.8c-0.3,0.7-0.8,1.6-1.2,2.5
					c-0.5,0.9-1,1.8-1.6,2.7c-0.6,0.9-1.2,1.8-1.8,2.6c-0.7,0.8-1.3,1.6-2,2.3c-0.7,0.7-1.4,1.2-2.2,1.6c-0.7,0.4-1.5,0.6-2.3,0.6
					c-0.3,0-0.6,0-0.9-0.1c-0.3-0.1-0.7-0.3-1.1-0.6c-0.4-0.3-0.7-0.7-1-1.2c-0.3-0.5-0.6-1.2-0.8-2.1c-0.3-1.1-0.4-2.4-0.4-3.9
					c0-1.4,0.2-2.9,0.5-4.3c0.1-0.5,0.2-1,0.4-1.6c0.2-0.6,0.4-1.2,0.7-1.8c0.3-0.6,0.6-1.1,1.1-1.7c0.4-0.5,0.9-0.9,1.5-1.2
					c1.2-0.6,2.3-0.8,3.3-0.6c0.5,0.1,1,0.3,1.4,0.6s0.7,0.6,1,1.1c0.5,1,0.5,2.2-0.2,3.4c-0.7,1.2-1.9,2.3-3.6,3.2
					c-0.1,0.1-0.2,0.1-0.2,0.1L71,75.6c-0.1,0.8-0.2,1.5-0.2,2.3c0,0.7,0,1.4,0,2c0.1,0.6,0.2,1.1,0.3,1.4c0.2,0.4,0.4,0.5,0.7,0.5
					c0.3,0,0.6-0.2,1-0.6c0.4-0.3,0.8-0.8,1.2-1.3c0.4-0.5,0.9-1.2,1.3-1.8c0.5-0.7,0.9-1.4,1.3-2.1c0.4-0.7,0.8-1.4,1.1-2
					c0.3-0.6,0.6-1.2,0.9-1.7c0.1-0.3,0.3-0.4,0.6-0.5C79.7,71.7,79.9,71.7,80.2,71.8z M71.9,71.8c0.3-0.2,0.6-0.5,0.8-0.8
					c0.2-0.3,0.4-0.6,0.6-0.8c0.1-0.2,0.2-0.5,0.3-0.6c0-0.2,0-0.3-0.1-0.4c-0.1-0.1-0.2,0-0.4,0.1c-0.1,0.2-0.3,0.4-0.4,0.6
					c-0.2,0.3-0.3,0.6-0.4,0.9C72.1,71.2,72,71.5,71.9,71.8z"/>
				<path class="st1" d="M69.6,86.5c-0.3,0-0.7-0.1-1.2-0.2c-0.5-0.1-1-0.4-1.4-0.7c-0.5-0.4-0.9-0.8-1.3-1.5
					c-0.4-0.6-0.7-1.4-1-2.4c-0.3-1.2-0.4-2.6-0.4-4.1c0-1.5,0.2-3,0.5-4.5c0.1-0.5,0.2-1,0.4-1.7c0.2-0.6,0.5-1.3,0.8-1.9
					c0.3-0.7,0.7-1.3,1.2-1.9c0.5-0.6,1.1-1.1,1.8-1.5c1.4-0.7,2.7-1,4.1-0.7c0.7,0.1,1.3,0.4,1.8,0.7c0.6,0.4,1,0.9,1.3,1.4
					c0.5,1,0.9,2.5-0.2,4.4c-0.7,1.3-2,2.5-3.8,3.5l-0.1,0.4c-0.1,0.7-0.1,1.4-0.2,2.2c0,0.7,0,1.3,0,1.8c0,0.3,0.1,0.6,0.1,0.8
					c0,0,0.1-0.1,0.1-0.1c0.3-0.3,0.7-0.7,1.1-1.2c0.4-0.5,0.9-1.1,1.3-1.8c0.4-0.7,0.9-1.4,1.3-2c0.4-0.7,0.8-1.3,1.1-2
					c0.3-0.6,0.6-1.2,0.9-1.6c0.2-0.5,0.6-0.9,1.2-1.1c0.5-0.2,1.1-0.2,1.6,0.1l0,0c0.5,0.2,0.9,0.7,1.1,1.2
					c0.2,0.5,0.2,1.1-0.1,1.6c-0.4,0.8-0.8,1.6-1.3,2.5c-0.5,0.9-1,1.8-1.6,2.8c-0.6,0.9-1.2,1.8-1.9,2.7c-0.7,0.9-1.4,1.7-2.2,2.4
					c-0.8,0.7-1.6,1.3-2.4,1.7C71.4,86.3,70.5,86.5,69.6,86.5z M72,67.3c-0.6,0-1.3,0.2-2,0.6c-0.4,0.2-0.8,0.6-1.1,1
					c-0.4,0.5-0.7,1-0.9,1.5c-0.3,0.5-0.5,1.1-0.7,1.6c-0.2,0.6-0.3,1.1-0.4,1.5c-0.3,1.4-0.5,2.8-0.5,4.1c0,1.3,0.1,2.6,0.4,3.6
					c0.2,0.8,0.4,1.4,0.7,1.8c0.3,0.4,0.5,0.7,0.8,0.9c0.2,0.2,0.5,0.3,0.7,0.4c0.3,0.1,0.5,0.1,0.6,0.1c0.6,0,1.2-0.2,1.8-0.5
					c0.7-0.4,1.3-0.8,1.9-1.4c0.7-0.6,1.3-1.3,1.9-2.1c0.6-0.8,1.2-1.7,1.8-2.6c0.6-0.9,1.1-1.8,1.5-2.6c0.2-0.5,0.5-0.9,0.7-1.3
					c-0.1,0.2-0.2,0.4-0.3,0.6c-0.4,0.6-0.7,1.3-1.2,2c-0.4,0.7-0.9,1.4-1.3,2.1c-0.5,0.7-0.9,1.3-1.4,1.9c-0.5,0.6-0.9,1.1-1.3,1.5
					c-0.6,0.5-1.1,0.8-1.6,0.8c-0.8,0.1-1.4-0.4-1.8-1.1c-0.2-0.5-0.4-1.1-0.4-1.8c-0.1-0.6-0.1-1.3,0-2.2c0-0.8,0.1-1.6,0.2-2.3
					l0.2-1l-0.3,0.2l1.1-3.3c0.1-0.3,0.2-0.6,0.4-1c0.2-0.4,0.3-0.7,0.5-1c0.2-0.3,0.4-0.6,0.5-0.8c0.5-0.6,1.3-0.6,1.7-0.3
					c0.1,0.1,0.2,0.2,0.3,0.3c0,0,0-0.1-0.1-0.1c-0.1-0.2-0.4-0.5-0.6-0.7c-0.3-0.2-0.6-0.3-1-0.4C72.5,67.3,72.2,67.3,72,67.3z
					 M74,71c-0.1,0.2-0.3,0.4-0.5,0.7c-0.1,0.1-0.2,0.3-0.3,0.4C73.5,71.7,73.8,71.4,74,71z M72.5,69.3
					C72.5,69.3,72.5,69.3,72.5,69.3C72.5,69.3,72.5,69.3,72.5,69.3z"/>
			</g>
			<g>
				<path class="st1" d="M78.4,73c0-0.6,0.1-1,0.4-1.3c0.3-0.3,0.6-0.5,1-0.5c0.4-0.1,0.9-0.1,1.3,0s0.9,0.2,1.3,0.4
					c0.4,0.2,0.7,0.4,1,0.7c0.3,0.3,0.4,0.5,0.4,0.7l0,1.6c0.2-0.5,0.3-1,0.5-1.4c0.1-0.5,0.3-0.9,0.5-1.4c0.6-1.5,1.2-2.6,1.8-3.4
					c0.8-1.1,1.8-1.7,2.8-1.7c0.9,0,1.7,0.4,2.3,1.1c0.9,1.1,1.3,3.1,1.3,5.9c0.5-0.8,1.2-1.5,1.9-1.9c0.8-0.5,1.7-0.8,2.9-0.9
					c0.7,0,1.4,0,2,0.3s1.1,0.6,1.4,1c0.4,0.4,0.7,0.9,0.9,1.6c0.2,0.6,0.3,1.2,0.3,1.9c0,0.8-0.1,1.7-0.2,2.7c-0.1,1-0.2,2-0.3,3.1
					c-0.3,2-0.4,3.5-0.5,4.6c0,1.1,0.1,1.7,0.3,1.8c0.2,0.1,0.6-0.3,1-1.1c0.5-0.9,1-2.3,1.7-4.3c0.4-1.2,0.7-2.4,1.1-3.5
					c0.3-1.2,0.6-2.2,0.8-3.1c0.2-0.9,0.5-1.9,0.7-3.1c0.1-0.3,0.2-0.5,0.5-0.7c0.2-0.2,0.5-0.2,0.8-0.1c0.3,0,0.5,0.2,0.7,0.4
					c0.2,0.2,0.2,0.5,0.1,0.8c0,0-0.1,0.3-0.2,0.9c-0.1,0.6-0.3,1.3-0.5,2.2s-0.5,2-0.8,3.2c-0.3,1.2-0.7,2.4-1.1,3.6
					c-1,3-2,5.3-2.9,6.9c-1.4,2.4-2.8,3.6-4.4,3.6c-0.9,0-1.7-0.3-2.2-1c-0.4-0.5-0.7-1.1-0.9-1.9s-0.3-1.7-0.3-2.6c0-1,0-2,0.2-3.1
					c0.1-1.1,0.2-2.3,0.4-3.4c0.1-1,0.2-1.9,0.3-2.8c0.1-0.9,0.1-1.7,0.1-2.5c0-0.5,0-1-0.1-1.5c-0.1-0.5-0.2-0.8-0.3-1
					s-0.3-0.3-0.6-0.1c-0.2,0.1-0.6,0.5-1,1.1c-0.3,0.4-0.6,0.9-0.9,1.5c-0.3,0.6-0.6,1.2-0.9,2c-0.2,0.5-0.4,0.9-0.5,1.3
					c-0.2,0.4-0.3,0.8-0.4,1.2c-0.1,0.8-0.3,1.4-0.4,1.9c-0.1,0.5-0.2,0.8-0.2,0.8c-0.1,0.2-0.3,0.4-0.6,0.6
					c-0.3,0.2-0.7,0.4-1.1,0.6c-0.4,0.2-0.9,0.3-1.4,0.4c-0.5,0.1-0.9,0.1-1.3-0.1c-0.4-0.1-0.7-0.3-0.9-0.6
					c-0.2-0.3-0.3-0.8-0.1-1.4c0.1-0.6,0.3-1.2,0.4-1.7c0.1-0.5,0.2-1.1,0.3-1.8c0.1-0.7,0.2-1.4,0.3-2.1c0.1-0.6,0.1-1.3,0.2-2.1
					c0.1-0.8,0.1-1.4,0.1-2c0-0.6,0-1-0.1-1.1s-0.2,0-0.5,0.6c-0.5,1.3-1,2.7-1.4,4.2c-0.4,1.5-0.8,3-1.2,4.5l-0.5,2
					c-0.1,0.5-0.5,0.8-1,1c-0.6,0.2-1.2,0.3-1.8,0.2c-0.7,0-1.3-0.2-1.8-0.5c-0.6-0.3-0.9-0.7-0.9-1.1L78.4,73z"/>
				<path class="st1" d="M99.3,94.5c-1.2,0-2.2-0.5-3-1.3c-0.6-0.6-1-1.4-1.2-2.4C94.9,90,94.8,89,94.8,88c0-1,0-2.1,0.2-3.2
					c0.1-1.1,0.2-2.3,0.4-3.4c0.1-1,0.2-1.9,0.3-2.8c0.1-0.8,0.1-1.6,0.1-2.3c0-0.3,0-0.6,0-0.9c-0.2,0.4-0.5,0.8-0.7,1.3
					c-0.3,0.6-0.6,1.2-0.9,1.9c-0.2,0.4-0.3,0.9-0.5,1.3l-0.4,1.1c-0.1,0.8-0.3,1.4-0.4,1.9c-0.1,0.3-0.1,0.5-0.1,0.6l-0.1,0.3
					c-0.1,0.4-0.5,0.8-1,1.2c-0.4,0.3-0.8,0.5-1.4,0.7c-0.5,0.2-1.1,0.3-1.6,0.4c-0.6,0.1-1.2,0.1-1.7-0.1c-0.7-0.2-1.2-0.6-1.5-1.1
					c-0.4-0.6-0.5-1.3-0.3-2.2c0.1-0.6,0.3-1.2,0.4-1.7c0.1-0.4,0.1-0.8,0.2-1.2c-0.2,0.6-0.3,1.3-0.5,1.9l-0.5,1.9
					c-0.1,0.6-0.6,1.3-1.7,1.7c-0.7,0.2-1.5,0.3-2.2,0.3c-0.8-0.1-1.5-0.3-2.2-0.6c-1.1-0.6-1.4-1.4-1.5-1.9l0-0.1l0.2-10
					c0-0.8,0.2-1.5,0.7-2c0.4-0.5,1-0.7,1.6-0.9c0.5-0.1,1.1-0.1,1.7,0c0.6,0.1,1.1,0.3,1.6,0.5c0.4,0.2,0.7,0.4,1,0.6
					c0.6-1.5,1.2-2.6,1.8-3.5c1-1.4,2.3-2.1,3.6-2.1c1.2,0,2.3,0.5,3.1,1.5c0.7,0.9,1.2,2.3,1.4,4c0.1-0.1,0.3-0.2,0.4-0.3
					c0.9-0.6,2-0.9,3.4-1.1c1-0.1,1.8,0.1,2.5,0.4c0.7,0.3,1.3,0.7,1.8,1.3c0.5,0.5,0.9,1.2,1.1,1.9c0.2,0.7,0.4,1.5,0.4,2.3
					c0,0.9-0.1,1.8-0.2,2.8c-0.1,1-0.2,2-0.3,3.1c-0.2,1.1-0.3,2.1-0.3,2.9c0.3-0.7,0.6-1.5,0.9-2.4c0.4-1.2,0.7-2.3,1-3.5
					c0.3-1.2,0.6-2.2,0.8-3.1c0.2-0.9,0.5-1.9,0.7-3c0.1-0.6,0.5-1,0.9-1.3c0.5-0.3,1-0.4,1.6-0.3c0.5,0.1,1,0.4,1.3,0.9
					c0.3,0.5,0.4,1,0.3,1.6c0,0.1-0.1,0.4-0.2,0.9c-0.1,0.6-0.3,1.3-0.5,2.3c-0.2,0.9-0.5,2-0.8,3.2c-0.3,1.2-0.7,2.4-1.1,3.6
					c-1,3-2,5.4-3,7.1C102.9,93.1,101.2,94.5,99.3,94.5z M96.1,72.4c0.5,0,0.9,0.2,1.2,0.7c0.2,0.4,0.4,0.8,0.5,1.5
					c0.1,0.5,0.1,1.1,0.1,1.6c0,0.8,0,1.6-0.1,2.6c-0.1,0.9-0.2,1.8-0.3,2.8c-0.1,1.2-0.3,2.3-0.4,3.4c-0.1,1.1-0.2,2.1-0.2,3
					c0,0.9,0.1,1.7,0.3,2.4c0.1,0.6,0.4,1.1,0.7,1.4c0.4,0.4,0.8,0.6,1.4,0.6c1.4,0,2.6-1.7,3.4-3.1c0.4-0.7,0.8-1.5,1.2-2.4
					c0,0.1-0.1,0.1-0.1,0.2c-0.6,1.1-1,1.5-1.5,1.7c-0.3,0.1-0.7,0.1-1-0.1c-0.7-0.4-0.9-1.4-0.8-2.8c0-1.1,0.2-2.7,0.5-4.8
					c0.1-1,0.2-2.1,0.3-3c0.1-0.9,0.2-1.8,0.2-2.6c0-0.6-0.1-1.1-0.3-1.6c-0.2-0.5-0.4-0.9-0.7-1.2c-0.3-0.3-0.6-0.6-1.1-0.7
					c-0.4-0.2-0.9-0.2-1.5-0.2C97.2,72,96.6,72.1,96.1,72.4C96.1,72.4,96.1,72.4,96.1,72.4z M87.8,70.9l0.4,0.7
					c0.2,0.4,0.3,0.8,0.3,1.6c0,0.6,0,1.3-0.1,2.1c-0.1,0.8-0.1,1.5-0.2,2.1c-0.1,0.8-0.2,1.5-0.3,2.2c-0.1,0.7-0.2,1.3-0.3,1.8
					c-0.1,0.5-0.2,1.1-0.4,1.7c-0.1,0.4,0,0.6,0,0.6c0.1,0.1,0.1,0.2,0.3,0.2c0.3,0.1,0.6,0.1,0.9,0c0.4-0.1,0.8-0.2,1.2-0.3
					c0.4-0.1,0.7-0.3,0.9-0.5c0.1-0.1,0.1-0.1,0.2-0.1c0-0.1,0.1-0.3,0.1-0.7c0.1-0.5,0.2-1.1,0.4-1.9l0-0.2l0.4-1.2
					c0.2-0.4,0.3-0.9,0.5-1.4c0.3-0.8,0.6-1.5,0.9-2.1c0.2-0.3,0.3-0.6,0.5-0.9l-1.8,2.7l0.1-3.7c0.1-3.1-0.5-4.6-1-5.2
					c-0.4-0.5-0.9-0.7-1.5-0.7c-0.6,0-1.3,0.4-1.9,1.3c-0.5,0.6-0.9,1.5-1.4,2.5c0.2-0.3,0.5-0.6,1-0.7L87.8,70.9z M79.2,82.8
					c0,0.1,0.1,0.2,0.4,0.3c0.4,0.2,0.9,0.3,1.4,0.4c0.5,0,1,0,1.4-0.2c0.3-0.1,0.3-0.2,0.3-0.3l0.5-1.9c0.4-1.5,0.8-3,1.2-4.5
					c0-0.2,0.1-0.3,0.1-0.5l-1.8,5.5l0.2-8.5c0,0,0,0-0.1-0.1c-0.2-0.2-0.5-0.4-0.8-0.5c-0.3-0.2-0.7-0.3-1.1-0.3
					c-0.4-0.1-0.7-0.1-1,0c-0.2,0-0.3,0.1-0.5,0.2c-0.1,0.1-0.1,0.3-0.1,0.5v0L79.2,82.8z"/>
			</g>
			<g>
				<path class="st1" d="M117.5,89.5c-0.7,0-1.3-0.2-2-0.7c-0.7-0.4-1.2-1-1.6-1.8c-0.3-0.4-0.4-0.9-0.5-1.3c-0.1-0.5-0.1-1-0.1-1.4
					c0-1.1,0.4-2.2,1.1-3.4c0.4-0.6,0.9-1.2,1.5-1.6c0.6-0.4,1.3-0.8,2-1.2v-1c0-0.7-0.1-1.5-0.2-2.1c-0.1-0.7-0.2-1.3-0.4-1.8
					c-0.1-0.3-0.2-0.5-0.3-0.8c-0.1-0.3-0.2-0.5-0.3-0.6c-0.1-0.1-0.2-0.2-0.4-0.2c-0.1,0-0.3,0.2-0.5,0.5c-0.7,1-1.5,2.4-2.2,4.3
					c-0.3,0.7-0.5,1.5-0.7,2.1c-0.2,0.7-0.4,1.3-0.5,1.9l-0.2,2.4c0,0.3-0.2,0.6-0.5,0.8c-0.3,0.2-0.7,0.3-1.1,0.4
					c-0.4,0.1-0.9,0.1-1.4,0c-0.5-0.1-0.9-0.2-1.3-0.4c-0.4-0.2-0.7-0.5-1-0.8c-0.3-0.3-0.4-0.8-0.3-1.2l2-22.5
					c0-0.6,0.2-1.1,0.5-1.5c0.3-0.4,0.7-0.7,1.1-1c0.4-0.2,0.9-0.4,1.3-0.5c0.5-0.1,0.9,0,1.3,0.1c0.4,0.1,0.7,0.3,1,0.5
					c0.2,0.2,0.4,0.6,0.3,0.9l-1.1,15c0.2-0.3,0.4-0.6,0.6-0.9c0.2-0.3,0.4-0.6,0.6-0.8c1.2-1.7,2.6-2.5,4.1-2.5
					c0.5,0,0.9,0.1,1.3,0.2c0.4,0.1,0.8,0.4,1.2,0.7c0.6,0.5,1.2,1.2,1.6,2.2c0.3,0.7,0.6,1.5,0.7,2.3c0.2,0.8,0.2,1.6,0.3,2.3
					c0.9-0.4,1.6-0.9,2.3-1.4c0.7-0.5,1.1-1.2,1.4-2.1c0.1-0.3,0.3-0.5,0.5-0.6c0.3-0.1,0.5-0.2,0.8-0.1c0.3,0.1,0.5,0.3,0.6,0.5
					c0.1,0.3,0.2,0.5,0.1,0.8c-0.2,0.7-0.5,1.3-0.9,1.8c-0.4,0.5-0.8,1-1.3,1.4c-0.5,0.4-1,0.8-1.6,1.1c-0.6,0.3-1.2,0.6-1.8,0.8
					c0,1.3-0.2,2.5-0.4,3.7c-0.2,1.2-0.5,2.3-0.9,3.3c-0.5,1.2-1.1,2.2-1.8,2.9C119.4,89,118.5,89.5,117.5,89.5z M117.6,80.6
					c-0.7,0.4-1.2,0.9-1.5,1.4c-0.2,0.3-0.4,0.8-0.6,1.2c-0.1,0.5-0.2,0.9-0.3,1.3c0,0.4,0,0.8,0,1.1c0.1,0.3,0.2,0.4,0.4,0.4
					c0.2,0,0.4-0.2,0.6-0.5c0.2-0.3,0.4-0.8,0.5-1.3c0.2-0.5,0.3-1.1,0.5-1.8C117.4,81.7,117.5,81.1,117.6,80.6z"/>
				<path class="st1" d="M117.5,90.5c-0.9,0-1.8-0.3-2.6-0.8c-0.8-0.5-1.5-1.3-1.9-2.2c-0.3-0.5-0.5-1-0.6-1.6
					c-0.1-0.4-0.1-0.8-0.2-1.3c-0.4,0.2-0.8,0.4-1.3,0.5c-0.5,0.1-1.1,0.1-1.7,0c-0.6-0.1-1.1-0.3-1.7-0.5c-0.6-0.3-1-0.7-1.4-1.2
					c-0.4-0.6-0.6-1.2-0.5-2l1.9-22.5c0.1-0.8,0.3-1.5,0.7-2.1c0.4-0.5,0.9-1,1.4-1.3c0.5-0.3,1.1-0.5,1.7-0.6
					c0.6-0.1,1.2,0,1.7,0.1c0.6,0.1,1.1,0.4,1.5,0.8c0.5,0.5,0.7,1.1,0.6,1.7l-0.9,11.3c1.2-1.1,2.5-1.7,3.9-1.7
					c0.6,0,1.1,0.1,1.7,0.3c0.6,0.2,1.1,0.5,1.5,0.9c0.7,0.5,1.3,1.4,1.8,2.5c0.4,0.8,0.6,1.6,0.8,2.5c0.1,0.3,0.1,0.6,0.1,0.8
					c0.3-0.2,0.5-0.3,0.7-0.5c0.5-0.4,0.8-0.9,1-1.6c0.2-0.6,0.5-1,1-1.2c0.5-0.3,1-0.3,1.6-0.2l0.1,0c0.5,0.2,0.9,0.5,1.2,1
					c0.3,0.5,0.3,1,0.2,1.6c-0.3,0.8-0.6,1.5-1.1,2.2c-0.4,0.6-0.9,1.1-1.5,1.6c-0.5,0.4-1.1,0.8-1.8,1.2c-0.4,0.2-0.9,0.4-1.3,0.6
					c-0.1,1.1-0.2,2.2-0.4,3.2c-0.2,1.3-0.6,2.5-1,3.5c-0.5,1.3-1.2,2.4-2,3.2C120,90,118.8,90.5,117.5,90.5z M115.1,86.9
					c0.3,0.4,0.6,0.7,1,1c1.2,0.8,2.4,0.6,3.4-0.5c0.6-0.6,1.1-1.5,1.5-2.6c0.4-0.9,0.7-2,0.9-3.1c0.2-1.2,0.4-2.4,0.4-3.6l0.1-0.7
					l-0.1-1.4c0-0.7-0.1-1.4-0.3-2.2c-0.1-0.7-0.4-1.4-0.6-2c-0.3-0.8-0.8-1.4-1.3-1.8c-0.3-0.3-0.6-0.4-0.8-0.5
					c-0.3-0.1-0.6-0.2-1-0.2c-1,0-1.9,0.5-2.7,1.4c0.1-0.1,0.3-0.2,0.5-0.3c0.6-0.1,1.1,0.1,1.5,0.6c0.2,0.2,0.3,0.5,0.4,0.9
					l0.3,0.8c0.2,0.6,0.4,1.3,0.5,2.1c0.1,0.7,0.1,1.5,0.2,2.2l0,1.6l0.2-0.1l-0.4,2.3c-0.1,0.6-0.2,1.2-0.3,1.8
					c-0.1,0.7-0.3,1.3-0.5,1.9c-0.2,0.6-0.4,1.1-0.6,1.5c-0.5,0.9-1.1,1.1-1.5,1.1C115.5,87.1,115.3,87,115.1,86.9z M114.7,82.5
					c-0.2,0.4-0.3,0.9-0.4,1.3c0.1-0.3,0.1-0.6,0.2-0.9C114.6,82.7,114.6,82.6,114.7,82.5z M112.1,57.1c-0.1,0-0.3,0-0.4,0
					c-0.3,0-0.6,0.1-0.9,0.3c-0.3,0.2-0.6,0.4-0.8,0.7c-0.2,0.3-0.3,0.6-0.3,1l-2,22.5c0,0.3,0,0.4,0.1,0.5c0.2,0.2,0.4,0.4,0.6,0.5
					c0.3,0.2,0.6,0.3,1,0.3c0.4,0.1,0.7,0.1,1,0c0.3,0,0.5-0.1,0.7-0.2l0.2-2.6c0.2-0.6,0.3-1.3,0.5-1.9c0.2-0.7,0.4-1.4,0.7-2.2
					c0.4-0.9,0.7-1.8,1.1-2.5l-2.1,3.6l1.5-19.7c0-0.1,0-0.1,0-0.1c-0.1-0.1-0.3-0.2-0.5-0.2C112.5,57.2,112.3,57.1,112.1,57.1z
					 M116.2,73.4c-0.6,0.9-1.1,2-1.6,3.4c-0.2,0.7-0.5,1.4-0.7,2c-0.1,0.4-0.2,0.8-0.3,1.2c0.4-0.6,1-1.1,1.6-1.6
					c0.5-0.4,1-0.7,1.6-1v-0.4c0-0.7-0.1-1.4-0.2-2C116.5,74.5,116.4,73.9,116.2,73.4L116.2,73.4z M115.8,72.4
					C115.8,72.4,115.8,72.4,115.8,72.4C115.8,72.4,115.8,72.4,115.8,72.4z"/>
			</g>
			<g>
				<path class="st1" d="M141.1,71.8c0.3,0.1,0.4,0.3,0.5,0.6c0.1,0.3,0.1,0.5,0,0.8c-0.3,0.7-0.8,1.6-1.2,2.5
					c-0.5,0.9-1,1.8-1.6,2.7c-0.6,0.9-1.2,1.8-1.8,2.6s-1.3,1.6-2,2.3c-0.7,0.7-1.4,1.2-2.2,1.6c-0.7,0.4-1.5,0.6-2.3,0.6
					c-0.3,0-0.6,0-0.9-0.1c-0.3-0.1-0.7-0.3-1.1-0.6c-0.4-0.3-0.7-0.7-1-1.2c-0.3-0.5-0.6-1.2-0.8-2.1c-0.3-1.1-0.4-2.4-0.4-3.9
					c0-1.4,0.2-2.9,0.5-4.3c0.1-0.5,0.2-1,0.4-1.6c0.2-0.6,0.4-1.2,0.7-1.8c0.3-0.6,0.6-1.1,1.1-1.7c0.4-0.5,0.9-0.9,1.5-1.2
					c1.2-0.6,2.3-0.8,3.3-0.6c0.5,0.1,1,0.3,1.4,0.6s0.7,0.6,1,1.1c0.5,1,0.5,2.2-0.2,3.4c-0.7,1.2-1.9,2.3-3.6,3.2
					c-0.1,0.1-0.2,0.1-0.2,0.1l-0.1,0.9c-0.1,0.8-0.2,1.5-0.2,2.3c0,0.7,0,1.4,0,2c0.1,0.6,0.2,1.1,0.3,1.4c0.2,0.4,0.4,0.5,0.7,0.5
					c0.3,0,0.6-0.2,1-0.6c0.4-0.3,0.8-0.8,1.2-1.3c0.4-0.5,0.9-1.2,1.3-1.8c0.5-0.7,0.9-1.4,1.3-2.1c0.4-0.7,0.8-1.4,1.1-2
					c0.3-0.6,0.6-1.2,0.9-1.7c0.1-0.3,0.3-0.4,0.6-0.5S140.8,71.7,141.1,71.8z M132.8,71.8c0.3-0.2,0.6-0.5,0.8-0.8
					c0.2-0.3,0.4-0.6,0.6-0.8c0.1-0.2,0.2-0.5,0.3-0.6c0-0.2,0-0.3-0.1-0.4c-0.1-0.1-0.2,0-0.4,0.1c-0.1,0.2-0.3,0.4-0.4,0.6
					c-0.2,0.3-0.3,0.6-0.4,0.9C133,71.2,132.9,71.5,132.8,71.8z"/>
				<path class="st1" d="M130.4,86.5c-0.4,0-0.7-0.1-1.2-0.2c-0.5-0.1-1-0.4-1.4-0.7c-0.5-0.3-0.9-0.8-1.3-1.5
					c-0.4-0.6-0.7-1.4-1-2.4c-0.3-1.2-0.4-2.6-0.4-4.1c0-1.5,0.2-3,0.5-4.5c0.1-0.5,0.2-1,0.4-1.7c0.2-0.6,0.5-1.3,0.8-1.9
					c0.3-0.7,0.7-1.3,1.2-1.9c0.5-0.6,1.1-1.1,1.8-1.5c1.4-0.7,2.7-1,4.1-0.7c0.7,0.1,1.3,0.4,1.8,0.7c0.6,0.4,1,0.9,1.3,1.4
					c0.5,1,0.9,2.5-0.2,4.4c-0.7,1.3-2,2.5-3.8,3.5l-0.1,0.4c-0.1,0.7-0.1,1.4-0.2,2.2c0,0.7,0,1.3,0,1.8c0,0.3,0.1,0.6,0.1,0.8
					c0,0,0.1-0.1,0.1-0.1c0.3-0.3,0.7-0.7,1.1-1.2c0.4-0.5,0.9-1.1,1.3-1.8c0.4-0.7,0.9-1.4,1.3-2c0.4-0.7,0.8-1.3,1.1-2
					c0.3-0.6,0.6-1.2,0.9-1.6c0.2-0.5,0.6-0.9,1.2-1.1c0.5-0.2,1.1-0.2,1.6,0.1l0,0c0.5,0.2,0.9,0.7,1.1,1.2
					c0.2,0.5,0.2,1.1-0.1,1.6c-0.4,0.8-0.8,1.6-1.3,2.5c-0.5,0.9-1,1.8-1.6,2.8c-0.6,0.9-1.2,1.9-1.9,2.7c-0.7,0.9-1.4,1.7-2.2,2.4
					c-0.8,0.7-1.6,1.3-2.4,1.7C132.3,86.3,131.4,86.5,130.4,86.5z M132.9,67.3c-0.6,0-1.3,0.2-2,0.6c-0.4,0.2-0.8,0.6-1.1,1
					c-0.4,0.5-0.7,1-0.9,1.5c-0.3,0.5-0.5,1.1-0.7,1.6c-0.2,0.6-0.3,1.1-0.4,1.5c-0.3,1.4-0.5,2.8-0.5,4.1c0,1.3,0.1,2.6,0.4,3.6
					c0.2,0.8,0.4,1.4,0.7,1.8c0.3,0.4,0.5,0.7,0.8,0.9c0.2,0.2,0.5,0.3,0.7,0.4c0.3,0.1,0.5,0.1,0.6,0.1c0.6,0,1.2-0.2,1.8-0.5
					c0.7-0.4,1.3-0.8,1.9-1.4c0.7-0.6,1.3-1.3,1.9-2.1c0.6-0.8,1.2-1.7,1.8-2.6c0.6-0.9,1.1-1.8,1.5-2.6c0.2-0.5,0.5-0.9,0.7-1.3
					c-0.1,0.2-0.2,0.4-0.3,0.6c-0.4,0.6-0.7,1.3-1.2,2c-0.4,0.7-0.9,1.4-1.3,2.1c-0.5,0.7-0.9,1.4-1.4,1.9c-0.5,0.6-0.9,1.1-1.3,1.5
					c-0.6,0.5-1.1,0.8-1.6,0.8c-0.8,0.1-1.4-0.4-1.8-1.1c-0.2-0.5-0.4-1.1-0.4-1.8c-0.1-0.6-0.1-1.3,0-2.2c0-0.8,0.1-1.6,0.2-2.3
					l0.2-1l-0.3,0.3l1.1-3.3c0.1-0.3,0.2-0.6,0.4-1c0.2-0.4,0.3-0.7,0.5-1c0.2-0.3,0.4-0.6,0.5-0.8c0.6-0.6,1.3-0.6,1.7-0.3
					c0.1,0.1,0.2,0.2,0.3,0.3c0,0,0-0.1-0.1-0.1c-0.1-0.2-0.3-0.5-0.6-0.7c-0.3-0.2-0.6-0.3-1-0.4C133.3,67.3,133.1,67.3,132.9,67.3
					z M134.9,71c-0.1,0.2-0.3,0.4-0.5,0.6c-0.1,0.1-0.2,0.3-0.3,0.4C134.4,71.7,134.7,71.4,134.9,71z M133.4,69.4
					C133.4,69.4,133.4,69.4,133.4,69.4S133.4,69.4,133.4,69.4z"/>
			</g>
			<g>
				<path class="st1" d="M137.2,68.1c0-0.8,0.1-1.5,0.2-2.2c0.1-0.7,0.3-1.4,0.6-1.9c0.3-0.6,0.6-1,1-1.3c0.4-0.3,0.9-0.5,1.6-0.5
					c0.6,0,1.1,0.1,1.5,0.4c0.4,0.2,0.8,0.6,1,1c0.2,0.4,0.4,0.9,0.5,1.4c0.1,0.5,0.1,1,0.1,1.5c0,0.7-0.2,1.5-0.4,2.2
					c-0.2,0.7-0.4,1.4-0.7,2.1c0.3,0.1,0.7,0.2,1.1,0.2c0.4,0,0.9-0.1,1.3-0.2c0.5-0.1,0.9-0.2,1.3-0.4c0.4-0.2,0.7-0.4,0.9-0.5
					c0,0,0.1,0,0.1-0.1c0,0,0.1,0,0.1-0.1c0.4-0.4,0.9-0.6,1.5-0.6c0.6,0,1.2,0.1,1.7,0.2c0.5,0.2,1,0.4,1.3,0.7
					c0.3,0.3,0.5,0.6,0.4,0.9c0-0.1-0.1,0.2-0.3,0.8c-0.2,0.6-0.4,1.4-0.6,2.4c-0.2,1-0.5,2.1-0.7,3.3c-0.2,1.2-0.5,2.3-0.6,3.3
					c-0.2,1-0.3,1.9-0.3,2.5c-0.1,0.7,0,1,0.1,1c0.2,0,0.5-0.2,0.8-0.7c0.3-0.5,0.6-1.1,1-1.8c0.3-0.7,0.7-1.6,1-2.5
					c0.3-0.9,0.6-1.8,0.9-2.6c0.3-0.9,0.5-1.6,0.8-2.3c0.2-0.7,0.4-1.2,0.5-1.5c0.1-0.3,0.3-0.5,0.5-0.6c0.2-0.1,0.5-0.2,0.8-0.1
					c0.3,0.1,0.5,0.2,0.6,0.5c0.2,0.3,0.2,0.5,0.1,0.8c-0.1,0.5-0.4,1.2-0.7,2.2c-0.3,1-0.7,2.1-1.1,3.3c-0.4,1.2-0.9,2.4-1.5,3.7
					c-0.6,1.3-1.2,2.4-1.9,3.5c-0.7,1-1.4,1.9-2.2,2.6c-0.8,0.7-1.7,1-2.6,1c-0.8,0-1.5-0.3-1.9-0.9c-0.4-0.6-0.7-1.4-0.8-2.4
					c-0.1-1-0.1-2.1,0-3.3c0.1-1.2,0.3-2.5,0.5-3.8c0.2-1.3,0.5-2.5,0.8-3.6c0.3-1.2,0.6-2.2,0.8-3c-0.3,0.1-0.6,0.2-0.9,0.2
					c-0.3,0.1-0.6,0.1-1,0.2c-0.9,0.2-1.8,0.3-2.6,0.2s-1.7-0.2-2.4-0.6c-0.7-0.3-1.3-0.9-1.7-1.6C137.4,70.2,137.2,69.3,137.2,68.1
					z M141.1,68.5c0.2-0.6,0.3-1.2,0.5-2c0.1-0.7,0-1.3-0.3-1.9c-0.4,0.6-0.5,1.2-0.5,1.9C140.8,67.3,140.9,67.9,141.1,68.5z"/>
				<path class="st1" d="M146.9,90.5c-1.2,0-2.1-0.5-2.8-1.4c-0.5-0.8-0.8-1.7-1-2.9c-0.1-1.1-0.1-2.2,0-3.6
					c0.1-1.3,0.3-2.6,0.6-3.9c0.2-1.3,0.5-2.5,0.8-3.7c0.1-0.5,0.2-0.9,0.3-1.3l-0.2,0c-1,0.2-1.9,0.3-2.9,0.2c-1,0-2-0.3-2.8-0.7
					c-0.9-0.4-1.6-1.1-2.1-2s-0.8-2-0.8-3.3c0-0.8,0.1-1.6,0.2-2.4c0.1-0.8,0.4-1.6,0.7-2.2c0.3-0.7,0.8-1.3,1.3-1.7
					c0.6-0.5,1.4-0.7,2.2-0.7c0.8,0,1.5,0.2,2.1,0.5c0.6,0.3,1,0.8,1.4,1.3c0.3,0.5,0.5,1.1,0.6,1.7c0.1,0.6,0.1,1.2,0.1,1.8
					c-0.1,0.8-0.2,1.6-0.4,2.4c-0.1,0.3-0.2,0.6-0.3,0.9c0.2,0,0.5-0.1,0.7-0.1c0.4-0.1,0.8-0.2,1.1-0.4c0.4-0.2,0.6-0.3,0.7-0.4
					l0.2-0.1c0,0,0.1,0,0.1-0.1c0.6-0.5,1.3-0.7,2.1-0.8c0.7,0,1.4,0.1,2.1,0.3c0.7,0.2,1.3,0.5,1.7,1c0.9,0.8,0.8,1.6,0.7,2
					l-0.4,1.1c-0.2,0.6-0.3,1.3-0.5,2.1c-0.2,1-0.5,2-0.7,3.2c-0.1,0.6-0.2,1.2-0.3,1.8c0.1-0.2,0.1-0.3,0.2-0.5
					c0.3-0.9,0.6-1.8,0.9-2.6c0.3-0.9,0.5-1.6,0.8-2.3c0.2-0.7,0.4-1.2,0.5-1.5c0.2-0.5,0.5-0.9,1-1.2c0.5-0.3,1-0.4,1.6-0.2
					c0.5,0.1,1,0.5,1.3,1c0.3,0.5,0.4,1.1,0.2,1.7l-0.7,2.2c-0.3,1-0.7,2.1-1.1,3.3c-0.4,1.2-1,2.5-1.5,3.7c-0.6,1.3-1.2,2.5-2,3.6
					c-0.7,1.1-1.6,2.1-2.4,2.8C149.1,90,148,90.5,146.9,90.5z M147.9,70.7l-0.5,1.9c-0.2,0.8-0.5,1.8-0.8,3
					c-0.3,1.1-0.5,2.3-0.8,3.6c-0.2,1.2-0.4,2.5-0.5,3.7c-0.1,1.2-0.1,2.2,0,3.1c0.1,0.8,0.3,1.5,0.6,1.9c0.2,0.2,0.4,0.5,1,0.5
					c0.7,0,1.3-0.2,1.9-0.8c0.7-0.6,1.4-1.4,2-2.3c0.2-0.3,0.4-0.6,0.6-0.9c-0.4,0.5-0.8,0.9-1.5,0.9h-0.5l-0.4-0.4
					c-0.4-0.4-0.4-1-0.3-1.8c0.1-0.7,0.2-1.6,0.4-2.6c0.2-1,0.4-2.1,0.6-3.3c0.2-1.2,0.5-2.3,0.7-3.3c0.2-1,0.5-1.8,0.6-2.5
					c0.1-0.2,0.1-0.5,0.2-0.7c-0.2-0.2-0.5-0.4-0.9-0.5c-0.4-0.1-0.9-0.2-1.4-0.2c-0.4,0-0.7,0.2-0.8,0.3l-0.2,0.2
					c0,0-0.1,0.1-0.1,0.1c-0.2,0.1-0.4,0.3-0.6,0.4L147.9,70.7z M155.2,74.8c-0.2,0.6-0.4,1.3-0.7,2.1c-0.3,0.9-0.6,1.8-1,2.7
					c0,0,0,0,0,0.1c0.2-0.4,0.3-0.8,0.5-1.2c0.4-1.2,0.8-2.2,1.1-3.2L155.2,74.8z M141.1,71.9c0.2,0,0.5,0.1,0.7,0.1
					c0.5,0,1,0,1.5-0.1c-0.4,0-0.9-0.1-1.2-0.3l-0.8-0.4L141.1,71.9z M140.5,63.2c-0.4,0-0.7,0.1-0.9,0.3c-0.3,0.2-0.5,0.6-0.7,1
					c-0.2,0.5-0.4,1-0.5,1.6c-0.1,0.7-0.2,1.4-0.2,2.1c0,0.9,0.2,1.6,0.5,2.2c0.3,0.5,0.7,0.9,1.3,1.2c0.3,0.2,0.6,0.3,1,0.3l-0.8-3
					c-0.2-0.6-0.3-1.4-0.4-2.2c-0.1-0.9,0.2-1.8,0.7-2.6l0.6-0.9C140.8,63.2,140.7,63.2,140.5,63.2z M142.1,64l0.1,0.2
					c0,0,0,0.1,0.1,0.1C142.2,64.2,142.2,64.1,142.1,64C142.1,64,142.1,64,142.1,64z"/>
			</g>
		</g>
		<g>
			<g>
				<path d="M67.2,71.8c0.3,0.1,0.5,0.2,0.6,0.5c0.1,0.2,0.2,0.5,0.1,0.8c0,0-0.1,0.3-0.2,0.9c-0.1,0.6-0.3,1.3-0.6,2.2
					c-0.3,0.9-0.6,1.9-1,3c-0.4,1.1-0.8,2.3-1.3,3.5c-1.1,2.8-2.3,5-3.6,6.7c-1.7,2.2-3.5,3.3-5.4,3.3c-1,0-1.8-0.4-2.4-1.1
					c-0.5-0.6-0.9-1.5-1-2.6c-0.2-1.1-0.2-2.6,0-4.4c0.1-1.5,0.3-3.1,0.6-4.8c0.3-1.7,0.6-3.4,0.9-5.2c0.3-1.8,0.6-3.5,0.9-5.3
					c0.3-1.8,0.5-3.4,0.6-4.9c0.2-2.7,0.1-4.6-0.3-5.6c-0.4-1-1.1-1.2-1.9-0.6c-0.8,0.6-1.8,1.9-2.9,4c-1.1,2.1-2.3,4.8-3.4,8.3
					c-0.4,1-0.7,2-1,3c-0.3,0.9-0.6,1.8-0.8,2.6c-0.2,1.2-0.4,2.3-0.6,3.3c-0.2,1-0.4,1.7-0.7,2.3c-0.1,0.5-0.3,1-0.7,1.3
					c-0.4,0.4-0.8,0.7-1.4,0.9s-1.1,0.4-1.6,0.5c-0.6,0.1-1.1,0.1-1.6,0.1c-0.5,0-0.8-0.1-1.1-0.3c-0.3-0.2-0.4-0.4-0.3-0.7
					c0.4-1.6,0.7-3,1-4.3c0.3-1.3,0.6-2.7,0.9-4.2c0.3-1.6,0.6-3.1,0.9-4.7c0.4-2.6,0.7-4.9,0.9-6.7c0.1-1.8,0.2-3.3,0.1-4.4
					c-0.1-1.1-0.2-2-0.4-2.6c-0.2-0.6-0.4-1-0.6-1.3c-0.3-0.4-0.7-0.6-1.1-0.6c-0.1,0-0.3,0.1-0.5,0.2c-0.2,0.1-0.5,0.4-0.8,0.8
					c-0.3,0.4-0.7,1.1-1.2,1.9c-0.4,0.8-0.9,2-1.5,3.5c-0.4,1-0.7,2.1-1.1,3.3c-0.3,1.2-0.7,2.3-1,3.6c-0.3,1.2-0.6,2.5-1,3.7
					c-0.3,1.2-0.6,2.5-0.9,3.6c-0.1,0.6-0.3,1.1-0.4,1.5c-0.1,0.4-0.2,0.8-0.3,1.2c-0.1,0.4-0.2,0.7-0.2,1c-0.1,0.3-0.2,0.7-0.3,1
					c-0.1,0.3-0.1,0.6-0.2,0.9c-0.1,0.2-0.1,0.5-0.2,0.6c-0.2,0.6-0.5,1-0.9,1.4c-0.4,0.4-0.9,0.7-1.5,0.9c-0.5,0.2-1.1,0.4-1.7,0.4
					c-0.6,0.1-1.1,0-1.5-0.1c-0.4-0.1-0.8-0.3-1-0.7c-0.2-0.3-0.3-0.7-0.1-1.2c0,0,0.1-0.3,0.2-0.9c0.1-0.6,0.3-1.3,0.5-2.3
					c0.2-1,0.4-2.1,0.6-3.3c0.2-1.3,0.4-2.6,0.5-4c0.4-3.7,0.5-6.8,0.2-9.4c-0.3-2.6-0.8-4.7-1.7-6.1c-0.4-0.7-0.9-1.2-1.5-1.6
					c-0.5-0.3-1.1-0.5-1.6-0.5c-0.6,0-1.1,0.2-1.6,0.5c-0.5,0.3-1,0.8-1.5,1.4c1.7,0.9,3.1,2.3,4.1,4.4c0.7,1.3,1.2,2.6,1.5,4.1
					c0.3,1.5,0.4,2.8,0.3,4.2c-0.1,1.7-0.5,3-1.4,4.1c-0.9,1.2-2.1,1.8-3.7,1.8c-2.2,0-3.9-0.9-5.1-2.7c-1-1.6-1.5-3.5-1.5-6
					c0-1.7,0.2-3.4,0.7-5c0.1-0.4,0.2-0.7,0.4-1.1c0.1-0.3,0.3-0.7,0.4-1c-0.4-0.3-0.8-0.6-1.2-0.7c-0.3-0.2-0.7-0.2-1-0.2
					c-0.3,0-0.7,0-1,0.2c-0.3,0.1-0.8,0.3-1.2,0.5c0.1,0.3,0.2,0.7,0.3,1.1c0.1,0.4,0.1,0.8,0.2,1.1c0.1,1.3-0.2,2.5-0.7,3.6
					c-0.4,0.7-0.8,1.3-1.4,1.7c-0.6,0.4-1.2,0.6-1.9,0.6c-0.8,0-1.4-0.2-1.8-0.5c-0.4-0.3-0.6-0.6-0.8-0.9c-0.3-0.7-0.4-1.5-0.1-2.5
					c0.2-0.8,0.6-1.6,1.3-2.5c0.3-0.4,0.7-0.8,1-1.2c0.4-0.4,0.7-0.8,1.2-1.1c-0.7-0.7-1.7-0.9-3-0.6c-0.3,0-0.5,0-0.8-0.2
					S1.1,57,1.1,56.7c0-0.3,0-0.5,0.2-0.8c0.2-0.2,0.4-0.4,0.7-0.4C4,55.1,5.7,55.6,7,57c0.6-0.3,1.3-0.5,1.9-0.7
					c0.6-0.2,1.2-0.4,1.8-0.6c0.6-0.1,1.2-0.2,1.9-0.3c0.6,0,1.3,0,2,0.1c0.9-1.1,1.9-2,3-2.6c1.6-1,3.3-1.4,5.1-1.4
					c2.4,0,4.3,0.9,5.6,2.7c0.5,0.6,0.9,1.3,1.2,2.2c0.3,0.9,0.6,1.9,0.8,2.9c0.2,1.1,0.3,2.2,0.4,3.4c0.1,1.2,0.1,2.4,0.1,3.6
					c0.3-1,0.6-2.1,0.9-3.1c0.3-1,0.6-2,0.9-2.9c0.8-2.3,1.6-4.1,2.4-5.3c0.5-0.9,1.2-1.5,1.9-2c0.8-0.5,1.5-0.8,2.4-0.9
					c0.8-0.2,1.6-0.1,2.4,0.1c0.8,0.2,1.5,0.5,2.2,1c0.7,0.5,1.2,1.1,1.7,1.8c0.5,0.8,0.7,1.6,0.9,2.6c0,0.3,0,0.8,0,1.3
					s0,1.2-0.1,1.9c0,0.7-0.1,1.5-0.1,2.4c-0.1,0.9-0.1,1.8-0.2,2.7c0.8-2.1,1.7-3.9,2.5-5.4c0.7-1.4,1.5-2.4,2.2-3.2
					c1-1,2-1.7,3.2-1.9c1.2-0.3,2.3-0.2,3.3,0.3c1,0.4,1.9,1.2,2.7,2.3c0.8,1.1,1.2,2.5,1.4,4.1c0.1,0.9,0.1,1.9,0.1,3
					c-0.1,1.1-0.2,2.2-0.3,3.4c-0.2,1.2-0.3,2.4-0.6,3.7c-0.2,1.3-0.4,2.5-0.7,3.8c-0.1,0.8-0.3,1.6-0.4,2.6
					c-0.2,0.9-0.3,1.9-0.4,2.9c-0.1,1-0.2,1.9-0.3,2.8c-0.1,0.9-0.1,1.6-0.1,2.2c0,0.6,0.1,1,0.3,1.3c0.2,0.3,0.4,0.2,0.7-0.1
					c0.3-0.3,0.7-0.9,1.2-1.8c0.5-0.9,1.1-2.3,1.9-4c0.5-1.1,0.9-2.3,1.2-3.3c0.4-1.1,0.7-2.1,0.9-2.9c0.3-0.9,0.5-1.6,0.6-2.1
					s0.2-0.8,0.2-0.8c0.1-0.3,0.2-0.5,0.5-0.6C66.7,71.7,67,71.7,67.2,71.8z M6,63.6c0.4-0.7,0.5-1.6,0.5-2.5c0-0.2,0-0.4-0.1-0.5
					c0-0.2-0.1-0.3-0.1-0.5c-0.3,0.3-0.6,0.6-0.8,0.8c-0.3,0.3-0.5,0.6-0.7,0.9c-0.5,0.7-0.9,1.3-1,1.8c-0.1,0.5-0.1,0.8,0,1
					c0,0.1,0.2,0.2,0.3,0.2c0.2,0,0.3,0,0.4,0c0.4,0,0.7-0.1,0.9-0.4C5.7,64.2,5.9,63.9,6,63.6z M13.1,66.1c0,1,0.1,1.9,0.3,2.7
					c0.2,0.8,0.5,1.5,0.9,2.1c0.2,0.3,0.3,0.4,0.5,0.5c0.2,0,0.3,0,0.5-0.1c0.2-0.1,0.3-0.3,0.4-0.5c0.1-0.2,0.2-0.4,0.4-0.7
					c0.2-0.5,0.4-1,0.4-1.5c0.1-0.6,0.1-1.2,0.1-1.8c-0.1-1-0.3-2-0.7-3c-0.3-1-0.8-1.9-1.4-2.7l-0.3-0.5c-0.3,0.9-0.6,1.8-0.8,2.7
					C13.1,64.3,13.1,65.2,13.1,66.1z"/>
			</g>
			<g>
				<path d="M80.2,71.8c0.3,0.1,0.4,0.3,0.5,0.6c0.1,0.3,0.1,0.5,0,0.8c-0.3,0.7-0.8,1.6-1.2,2.5c-0.5,0.9-1,1.8-1.6,2.7
					c-0.6,0.9-1.2,1.8-1.8,2.6c-0.7,0.8-1.3,1.6-2,2.3c-0.7,0.7-1.4,1.2-2.2,1.6c-0.7,0.4-1.5,0.6-2.3,0.6c-0.3,0-0.6,0-0.9-0.1
					c-0.3-0.1-0.7-0.3-1.1-0.6c-0.4-0.3-0.7-0.7-1-1.2c-0.3-0.5-0.6-1.2-0.8-2.1c-0.3-1.1-0.4-2.4-0.4-3.9c0-1.4,0.2-2.9,0.5-4.3
					c0.1-0.5,0.2-1,0.4-1.6c0.2-0.6,0.4-1.2,0.7-1.8c0.3-0.6,0.6-1.1,1.1-1.7c0.4-0.5,0.9-0.9,1.5-1.2c1.2-0.6,2.3-0.8,3.3-0.6
					c0.5,0.1,1,0.3,1.4,0.6s0.7,0.6,1,1.1c0.5,1,0.5,2.2-0.2,3.4c-0.7,1.2-1.9,2.3-3.6,3.2c-0.1,0.1-0.2,0.1-0.2,0.1L71,75.6
					c-0.1,0.8-0.2,1.5-0.2,2.3c0,0.7,0,1.4,0,2c0.1,0.6,0.2,1.1,0.3,1.4c0.2,0.4,0.4,0.5,0.7,0.5c0.3,0,0.6-0.2,1-0.6
					c0.4-0.3,0.8-0.8,1.2-1.3c0.4-0.5,0.9-1.2,1.3-1.8c0.5-0.7,0.9-1.4,1.3-2.1c0.4-0.7,0.8-1.4,1.1-2c0.3-0.6,0.6-1.2,0.9-1.7
					c0.1-0.3,0.3-0.4,0.6-0.5C79.7,71.7,79.9,71.7,80.2,71.8z M71.9,71.8c0.3-0.2,0.6-0.5,0.8-0.8c0.2-0.3,0.4-0.6,0.6-0.8
					c0.1-0.2,0.2-0.5,0.3-0.6c0-0.2,0-0.3-0.1-0.4c-0.1-0.1-0.2,0-0.4,0.1c-0.1,0.2-0.3,0.4-0.4,0.6c-0.2,0.3-0.3,0.6-0.4,0.9
					C72.1,71.2,72,71.5,71.9,71.8z"/>
			</g>
			<g>
				<path d="M78.4,73c0-0.6,0.1-1,0.4-1.3c0.3-0.3,0.6-0.5,1-0.5c0.4-0.1,0.9-0.1,1.3,0s0.9,0.2,1.3,0.4c0.4,0.2,0.7,0.4,1,0.7
					c0.3,0.3,0.4,0.5,0.4,0.7l0,1.6c0.2-0.5,0.3-1,0.5-1.4c0.1-0.5,0.3-0.9,0.5-1.4c0.6-1.5,1.2-2.6,1.8-3.4
					c0.8-1.1,1.8-1.7,2.8-1.7c0.9,0,1.7,0.4,2.3,1.1c0.9,1.1,1.3,3.1,1.3,5.9c0.5-0.8,1.2-1.5,1.9-1.9c0.8-0.5,1.7-0.8,2.9-0.9
					c0.7,0,1.4,0,2,0.3s1.1,0.6,1.4,1c0.4,0.4,0.7,0.9,0.9,1.6c0.2,0.6,0.3,1.2,0.3,1.9c0,0.8-0.1,1.7-0.2,2.7c-0.1,1-0.2,2-0.3,3.1
					c-0.3,2-0.4,3.5-0.5,4.6c0,1.1,0.1,1.7,0.3,1.8c0.2,0.1,0.6-0.3,1-1.1c0.5-0.9,1-2.3,1.7-4.3c0.4-1.2,0.7-2.4,1.1-3.5
					c0.3-1.2,0.6-2.2,0.8-3.1c0.2-0.9,0.5-1.9,0.7-3.1c0.1-0.3,0.2-0.5,0.5-0.7c0.2-0.2,0.5-0.2,0.8-0.1c0.3,0,0.5,0.2,0.7,0.4
					c0.2,0.2,0.2,0.5,0.1,0.8c0,0-0.1,0.3-0.2,0.9c-0.1,0.6-0.3,1.3-0.5,2.2s-0.5,2-0.8,3.2c-0.3,1.2-0.7,2.4-1.1,3.6
					c-1,3-2,5.3-2.9,6.9c-1.4,2.4-2.8,3.6-4.4,3.6c-0.9,0-1.7-0.3-2.2-1c-0.4-0.5-0.7-1.1-0.9-1.9s-0.3-1.7-0.3-2.6c0-1,0-2,0.2-3.1
					c0.1-1.1,0.2-2.3,0.4-3.4c0.1-1,0.2-1.9,0.3-2.8c0.1-0.9,0.1-1.7,0.1-2.5c0-0.5,0-1-0.1-1.5c-0.1-0.5-0.2-0.8-0.3-1
					s-0.3-0.3-0.6-0.1c-0.2,0.1-0.6,0.5-1,1.1c-0.3,0.4-0.6,0.9-0.9,1.5c-0.3,0.6-0.6,1.2-0.9,2c-0.2,0.5-0.4,0.9-0.5,1.3
					c-0.2,0.4-0.3,0.8-0.4,1.2c-0.1,0.8-0.3,1.4-0.4,1.9c-0.1,0.5-0.2,0.8-0.2,0.8c-0.1,0.2-0.3,0.4-0.6,0.6
					c-0.3,0.2-0.7,0.4-1.1,0.6c-0.4,0.2-0.9,0.3-1.4,0.4c-0.5,0.1-0.9,0.1-1.3-0.1c-0.4-0.1-0.7-0.3-0.9-0.6
					c-0.2-0.3-0.3-0.8-0.1-1.4c0.1-0.6,0.3-1.2,0.4-1.7c0.1-0.5,0.2-1.1,0.3-1.8c0.1-0.7,0.2-1.4,0.3-2.1c0.1-0.6,0.1-1.3,0.2-2.1
					c0.1-0.8,0.1-1.4,0.1-2c0-0.6,0-1-0.1-1.1s-0.2,0-0.5,0.6c-0.5,1.3-1,2.7-1.4,4.2c-0.4,1.5-0.8,3-1.2,4.5l-0.5,2
					c-0.1,0.5-0.5,0.8-1,1c-0.6,0.2-1.2,0.3-1.8,0.2c-0.7,0-1.3-0.2-1.8-0.5c-0.6-0.3-0.9-0.7-0.9-1.1L78.4,73z"/>
			</g>
			<g>
				<path d="M117.5,89.5c-0.7,0-1.3-0.2-2-0.7c-0.7-0.4-1.2-1-1.6-1.8c-0.3-0.4-0.4-0.9-0.5-1.3c-0.1-0.5-0.1-1-0.1-1.4
					c0-1.1,0.4-2.2,1.1-3.4c0.4-0.6,0.9-1.2,1.5-1.6c0.6-0.4,1.3-0.8,2-1.2v-1c0-0.7-0.1-1.5-0.2-2.1c-0.1-0.7-0.2-1.3-0.4-1.8
					c-0.1-0.3-0.2-0.5-0.3-0.8c-0.1-0.3-0.2-0.5-0.3-0.6c-0.1-0.1-0.2-0.2-0.4-0.2c-0.1,0-0.3,0.2-0.5,0.5c-0.7,1-1.5,2.4-2.2,4.3
					c-0.3,0.7-0.5,1.5-0.7,2.1c-0.2,0.7-0.4,1.3-0.5,1.9l-0.2,2.4c0,0.3-0.2,0.6-0.5,0.8c-0.3,0.2-0.7,0.3-1.1,0.4
					c-0.4,0.1-0.9,0.1-1.4,0c-0.5-0.1-0.9-0.2-1.3-0.4c-0.4-0.2-0.7-0.5-1-0.8c-0.3-0.3-0.4-0.8-0.3-1.2l2-22.5
					c0-0.6,0.2-1.1,0.5-1.5c0.3-0.4,0.7-0.7,1.1-1c0.4-0.2,0.9-0.4,1.3-0.5c0.5-0.1,0.9,0,1.3,0.1c0.4,0.1,0.7,0.3,1,0.5
					c0.2,0.2,0.4,0.6,0.3,0.9l-1.1,15c0.2-0.3,0.4-0.6,0.6-0.9c0.2-0.3,0.4-0.6,0.6-0.8c1.2-1.7,2.6-2.5,4.1-2.5
					c0.5,0,0.9,0.1,1.3,0.2c0.4,0.1,0.8,0.4,1.2,0.7c0.6,0.5,1.2,1.2,1.6,2.2c0.3,0.7,0.6,1.5,0.7,2.3c0.2,0.8,0.2,1.6,0.3,2.3
					c0.9-0.4,1.6-0.9,2.3-1.4c0.7-0.5,1.1-1.2,1.4-2.1c0.1-0.3,0.3-0.5,0.5-0.6c0.3-0.1,0.5-0.2,0.8-0.1c0.3,0.1,0.5,0.3,0.6,0.5
					c0.1,0.3,0.2,0.5,0.1,0.8c-0.2,0.7-0.5,1.3-0.9,1.8c-0.4,0.5-0.8,1-1.3,1.4c-0.5,0.4-1,0.8-1.6,1.1c-0.6,0.3-1.2,0.6-1.8,0.8
					c0,1.3-0.2,2.5-0.4,3.7c-0.2,1.2-0.5,2.3-0.9,3.3c-0.5,1.2-1.1,2.2-1.8,2.9C119.4,89,118.5,89.5,117.5,89.5z M117.6,80.6
					c-0.7,0.4-1.2,0.9-1.5,1.4c-0.2,0.3-0.4,0.8-0.6,1.2c-0.1,0.5-0.2,0.9-0.3,1.3c0,0.4,0,0.8,0,1.1c0.1,0.3,0.2,0.4,0.4,0.4
					c0.2,0,0.4-0.2,0.6-0.5c0.2-0.3,0.4-0.8,0.5-1.3c0.2-0.5,0.3-1.1,0.5-1.8C117.4,81.7,117.5,81.1,117.6,80.6z"/>
			</g>
			<g>
				<path d="M141.1,71.8c0.3,0.1,0.4,0.3,0.5,0.6c0.1,0.3,0.1,0.5,0,0.8c-0.3,0.7-0.8,1.6-1.2,2.5c-0.5,0.9-1,1.8-1.6,2.7
					c-0.6,0.9-1.2,1.8-1.8,2.6s-1.3,1.6-2,2.3c-0.7,0.7-1.4,1.2-2.2,1.6c-0.7,0.4-1.5,0.6-2.3,0.6c-0.3,0-0.6,0-0.9-0.1
					c-0.3-0.1-0.7-0.3-1.1-0.6c-0.4-0.3-0.7-0.7-1-1.2c-0.3-0.5-0.6-1.2-0.8-2.1c-0.3-1.1-0.4-2.4-0.4-3.9c0-1.4,0.2-2.9,0.5-4.3
					c0.1-0.5,0.2-1,0.4-1.6c0.2-0.6,0.4-1.2,0.7-1.8c0.3-0.6,0.6-1.1,1.1-1.7c0.4-0.5,0.9-0.9,1.5-1.2c1.2-0.6,2.3-0.8,3.3-0.6
					c0.5,0.1,1,0.3,1.4,0.6s0.7,0.6,1,1.1c0.5,1,0.5,2.2-0.2,3.4c-0.7,1.2-1.9,2.3-3.6,3.2c-0.1,0.1-0.2,0.1-0.2,0.1l-0.1,0.9
					c-0.1,0.8-0.2,1.5-0.2,2.3c0,0.7,0,1.4,0,2c0.1,0.6,0.2,1.1,0.3,1.4c0.2,0.4,0.4,0.5,0.7,0.5c0.3,0,0.6-0.2,1-0.6
					c0.4-0.3,0.8-0.8,1.2-1.3c0.4-0.5,0.9-1.2,1.3-1.8c0.5-0.7,0.9-1.4,1.3-2.1c0.4-0.7,0.8-1.4,1.1-2c0.3-0.6,0.6-1.2,0.9-1.7
					c0.1-0.3,0.3-0.4,0.6-0.5S140.8,71.7,141.1,71.8z M132.8,71.8c0.3-0.2,0.6-0.5,0.8-0.8c0.2-0.3,0.4-0.6,0.6-0.8
					c0.1-0.2,0.2-0.5,0.3-0.6c0-0.2,0-0.3-0.1-0.4c-0.1-0.1-0.2,0-0.4,0.1c-0.1,0.2-0.3,0.4-0.4,0.6c-0.2,0.3-0.3,0.6-0.4,0.9
					C133,71.2,132.9,71.5,132.8,71.8z"/>
			</g>
			<g>
				<path d="M137.2,68.1c0-0.8,0.1-1.5,0.2-2.2c0.1-0.7,0.3-1.4,0.6-1.9c0.3-0.6,0.6-1,1-1.3c0.4-0.3,0.9-0.5,1.6-0.5
					c0.6,0,1.1,0.1,1.5,0.4c0.4,0.2,0.8,0.6,1,1c0.2,0.4,0.4,0.9,0.5,1.4c0.1,0.5,0.1,1,0.1,1.5c0,0.7-0.2,1.5-0.4,2.2
					c-0.2,0.7-0.4,1.4-0.7,2.1c0.3,0.1,0.7,0.2,1.1,0.2c0.4,0,0.9-0.1,1.3-0.2c0.5-0.1,0.9-0.2,1.3-0.4c0.4-0.2,0.7-0.4,0.9-0.5
					c0,0,0.1,0,0.1-0.1c0,0,0.1,0,0.1-0.1c0.4-0.4,0.9-0.6,1.5-0.6c0.6,0,1.2,0.1,1.7,0.2c0.5,0.2,1,0.4,1.3,0.7
					c0.3,0.3,0.5,0.6,0.4,0.9c0-0.1-0.1,0.2-0.3,0.8c-0.2,0.6-0.4,1.4-0.6,2.4c-0.2,1-0.5,2.1-0.7,3.3c-0.2,1.2-0.5,2.3-0.6,3.3
					c-0.2,1-0.3,1.9-0.3,2.5c-0.1,0.7,0,1,0.1,1c0.2,0,0.5-0.2,0.8-0.7c0.3-0.5,0.6-1.1,1-1.8c0.3-0.7,0.7-1.6,1-2.5
					c0.3-0.9,0.6-1.8,0.9-2.6c0.3-0.9,0.5-1.6,0.8-2.3c0.2-0.7,0.4-1.2,0.5-1.5c0.1-0.3,0.3-0.5,0.5-0.6c0.2-0.1,0.5-0.2,0.8-0.1
					c0.3,0.1,0.5,0.2,0.6,0.5c0.2,0.3,0.2,0.5,0.1,0.8c-0.1,0.5-0.4,1.2-0.7,2.2c-0.3,1-0.7,2.1-1.1,3.3c-0.4,1.2-0.9,2.4-1.5,3.7
					c-0.6,1.3-1.2,2.4-1.9,3.5c-0.7,1-1.4,1.9-2.2,2.6c-0.8,0.7-1.7,1-2.6,1c-0.8,0-1.5-0.3-1.9-0.9c-0.4-0.6-0.7-1.4-0.8-2.4
					c-0.1-1-0.1-2.1,0-3.3c0.1-1.2,0.3-2.5,0.5-3.8c0.2-1.3,0.5-2.5,0.8-3.6c0.3-1.2,0.6-2.2,0.8-3c-0.3,0.1-0.6,0.2-0.9,0.2
					c-0.3,0.1-0.6,0.1-1,0.2c-0.9,0.2-1.8,0.3-2.6,0.2s-1.7-0.2-2.4-0.6c-0.7-0.3-1.3-0.9-1.7-1.6C137.4,70.2,137.2,69.3,137.2,68.1
					z M141.1,68.5c0.2-0.6,0.3-1.2,0.5-2c0.1-0.7,0-1.3-0.3-1.9c-0.4,0.6-0.5,1.2-0.5,1.9C140.8,67.3,140.9,67.9,141.1,68.5z"/>
			</g>
		</g>
	</g>
	<g>
		<g>
			<path d="M43.3,108.7c0.4,0.5,0.6,1.2,0.6,2c0,3.4-2.1,7.2-6.2,11.4c-0.2,0.2-0.5,0.3-0.7,0.3c-0.2,0-0.3-0.1-0.4-0.1
				c-0.4-0.2-0.6-0.6-0.6-1c0.1-1.7-1.1-3.5-2.3-5.2c-1.2-1.7-2.3-3.3-2.3-5c0-1.1,0.3-2,0.8-2.7c0.5-0.7,1.3-1.1,2.1-1.2
				c1-0.1,2,0.5,2.8,1.4c0.2,0.3,0.5,0.6,0.7,1c0.3-0.3,0.5-0.7,0.9-1c0.9-0.8,2-1.2,3-1.1C42.3,107.8,42.9,108.1,43.3,108.7z
				 M41.8,110.7c0-0.3,0-0.9-0.5-1c-0.4-0.1-0.8,0.2-1.3,0.5c-0.5,0.4-1.1,1.2-1.5,2.7c-0.1,0.5-0.6,0.8-1.1,0.8
				c-0.5,0-0.9-0.4-0.9-0.9c-0.3-2.6-1.4-3.5-2-3.5h-0.1c-0.5,0-1,0.8-1,1.8c0,1.1,0.9,2.4,1.9,3.8c0.9,1.3,1.8,2.7,2.3,4.2
				C40.4,115.9,41.8,113.1,41.8,110.7z"/>
		</g>
		<g>
			<path d="M53.6,113.1c0,0.6-0.3,1.5-1.8,2.1c-0.7,0.3-1.6,0.5-2.8,0.7c-0.5,0.1-1,0.1-1.5,0.2l0,0.8c0.1,1.8,0.2,3.4,0.2,4.5
				c0,0.6-0.4,1-1,1c-0.6,0-1-0.5-1-1c0-1.1-0.1-2.6-0.2-4.4l-0.1-0.8h-0.1c-0.6,0-1-0.5-1-1c0-0.6,0.5-1,1-1h0
				c-0.2-4.2-0.3-8.6,0.4-11.6c0.2-0.9,0.6-1.6,1.1-2.1c0.6-0.5,1.3-0.8,2.1-0.8c0.8,0,2,0.3,3,2c0.7,1.1,1.2,2.6,1.6,4.6
				c0.1,0.6-0.3,1.1-0.8,1.2c-0.6,0.1-1.1-0.3-1.2-0.8c-0.3-1.6-0.8-3-1.3-3.8c-0.3-0.4-0.7-1-1.3-1c-0.8,0-1.1,0.7-1.2,1.3
				c-0.6,2.7-0.5,7.1-0.3,11c0.3,0,0.6-0.1,0.9-0.1c2.4-0.3,3-0.8,3.2-0.9c0.1-0.5,0.5-1,1-1C53.1,112.1,53.6,112.6,53.6,113.1z"/>
		</g>
		<g>
			<path d="M69.5,107.8c0.3,0.5,0.2,1.1-0.2,1.5c-0.7,0.5-1.7,0.8-3.3,1c0.1,3.7,0.3,7.6,0.8,9.9c0.1,0.5-0.2,1.1-0.8,1.2
				c-0.1,0-0.1,0-0.2,0c-0.5,0-0.9-0.3-1-0.8c-0.5-2.4-0.8-6.4-0.8-10.2c-0.8,0-1.4,0-1.9,0h-0.6c-0.6,0-1-0.5-1-1.1
				c0-0.6,0.5-1,1.1-1c0,0,1.1,0,2.4,0c0-2.4,0-4.6,0-6.2v-1.4c0-0.6,0.5-1,1-1c0.6,0,1,0.5,1,1v1.4c0,1.5,0,3.7,0,6
				c1.5-0.2,2-0.5,2.1-0.6C68.5,107.2,69.1,107.3,69.5,107.8z"/>
		</g>
		<g>
			<path d="M80.3,120.4c-0.1,0.5-0.5,1-1,1h-0.1c-0.6-0.1-1-0.5-1-1.1c0.3-3.7,0.3-6.1,0.3-7.8c-0.1-2.2-0.4-2.8-0.6-2.9l-0.1-0.1
				c-0.1,0-0.5,0.2-1.1,0.8c-0.4,0.4-1.1,1.1-1.9,2.3c-0.9,1.4-2.3,4.2-2.6,7.9c0,0.6-0.5,1-1,1c-0.6,0-1-0.5-1-1
				c-0.1-4.2,0.3-16.4,1-19.9c0.1-0.5,0.7-0.9,1.2-0.8c0.6,0.1,0.9,0.7,0.8,1.2c-0.4,2-0.7,7-0.9,11.6c0.3-0.5,0.5-1,0.8-1.3
				c1.2-1.9,3.1-3.9,4.6-3.9c0.6,0,1.2,0.3,1.6,0.7c0.7,0.8,1,2,1.1,4.3C80.7,114.1,80.6,116.5,80.3,120.4z"/>
		</g>
		<g>
			<path d="M82.9,119.3c-0.3-0.6-0.6-1.3-0.8-2.1h0c-0.6,0-1-0.4-1-1c0-0.5,0.3-0.9,0.8-1l0-0.8c0-2.2,0.5-4,1.6-5.2
				c0.5-0.6,1.1-1.1,1.7-1.4c0.6-0.3,1.3-0.4,2-0.4c1,0,1.9,0.3,2.5,1c0.6,0.6,0.9,1.4,0.9,2.2c0,1.6-0.9,3.3-2.4,4.6
				c-1.1,1-2.4,1.6-3.9,1.9c0.1,0.5,0.3,0.9,0.5,1.2c0.4,0.7,1,1.1,1.7,1.1c2.3,0,3.1-2,3.4-3.6c0.1-0.6,0.6-1,1.2-0.9
				c0.5,0.1,1,0.6,0.9,1.2c-0.1,0.9-0.4,2.2-1.2,3.3c-1,1.4-2.4,2.1-4.2,2.1C84.9,121.4,83.7,120.6,82.9,119.3z M83.8,115
				c1.1-0.3,2.1-0.8,2.9-1.5c1-0.9,1.7-2,1.7-3c0-0.5-0.4-1.1-1.3-1.1c-0.8,0-1.6,0.4-2.1,1.1C83.9,111.7,83.8,113.3,83.8,115z"/>
		</g>
		<g>
			<path d="M107.7,107.8c0.3,0.5,0.2,1.1-0.2,1.5c-0.7,0.5-1.7,0.8-3.3,1c0.1,3.7,0.3,7.6,0.8,9.9c0.1,0.5-0.2,1.1-0.8,1.2
				c-0.1,0-0.1,0-0.2,0c-0.5,0-0.9-0.3-1-0.8c-0.5-2.4-0.8-6.4-0.8-10.2c-0.8,0-1.4,0-1.9,0h-0.6c-0.6,0-1-0.5-1-1.1s0.5-1,1.1-1
				c0,0,1.1,0,2.4,0c0-2.4,0-4.6,0-6.2v-1.4c0-0.6,0.5-1,1-1s1,0.5,1,1v1.4c0,1.5,0,3.7,0,6c1.5-0.2,2-0.5,2.1-0.6
				C106.7,107.2,107.4,107.3,107.7,107.8z"/>
		</g>
		<g>
			<path d="M110.2,119.3c-0.3-0.6-0.6-1.3-0.8-2.1h0c-0.6,0-1-0.4-1-1c0-0.5,0.3-0.9,0.8-1l-0.1-0.8c0-2.2,0.5-4,1.6-5.2
				c0.5-0.6,1.1-1.1,1.7-1.4c0.7-0.3,1.3-0.4,2-0.4c1,0,1.9,0.3,2.5,1c0.6,0.6,0.9,1.4,0.9,2.2c0,1.6-0.9,3.3-2.4,4.6
				c-1.1,1-2.4,1.6-3.9,1.9c0.1,0.5,0.3,0.9,0.5,1.2c0.4,0.7,1,1.1,1.7,1.1c2.3,0,3.1-2,3.4-3.6c0.1-0.6,0.6-1,1.2-0.9
				c0.5,0.1,1,0.6,0.9,1.2c-0.1,0.9-0.4,2.2-1.3,3.3c-1,1.4-2.4,2.1-4.2,2.1C112.2,121.4,111,120.6,110.2,119.3z M111.1,115
				c1.1-0.3,2.1-0.8,2.9-1.5c1-0.9,1.7-2,1.7-3c0-0.5-0.4-1.1-1.3-1.1c-0.8,0-1.6,0.4-2.1,1.1C111.2,111.7,111.1,113.3,111.1,115z"
				/>
		</g>
		<g>
			<path d="M128.7,113.8c0.1,2,0.1,4.6-0.2,7.6c0,0.5-0.5,1-1,1h-0.1c-0.6-0.1-1-0.5-1-1.1c0.1-0.5,0.1-1,0.1-1.5
				c-0.5,0.4-1,0.8-1.6,1c-0.8,0.4-1.6,0.6-2.3,0.6c-0.4,0-0.8-0.1-1.1-0.2c-1.3-0.4-2.1-1.6-2.1-3.1c0-1.3,0.9-3.4,2.6-4.9
				c1.3-1.1,2.7-1.7,4.3-1.8c-0.2-0.7-0.3-1.2-0.4-1.5c-0.1-0.2-0.3-0.7-0.6-0.7c-1.2,0-2.7,1.1-3.2,1.5c-0.4,0.4-1.1,0.3-1.5-0.1
				c-0.4-0.4-0.3-1.1,0.1-1.5c0,0,0.6-0.5,1.4-1c1.1-0.7,2.2-1,3.2-1c0.5,0,1,0.2,1.5,0.5c0.4,0.3,0.7,0.8,1,1.4
				C128.3,110.2,128.6,111.8,128.7,113.8z M126.7,116.5c0-0.9,0-1.8-0.1-2.6c0-0.1,0-0.2,0-0.3c-1.2,0-2.2,0.4-3.2,1.2
				c-1.3,1.2-1.9,2.7-1.9,3.3c0,0.9,0.5,1,0.7,1.1c0.5,0.2,1.2,0.1,1.9-0.3c0.6-0.3,1.6-1,2.5-2.3L126.7,116.5z"/>
		</g>
		<g>
			<path d="M144.7,112.5c0.1,2.3,0.1,5,0.1,6.8v1.1c0,0.6-0.5,1-1,1s-1-0.5-1-1v-1.1c0-1.6,0-4.1-0.1-6.4c-0.1-1.9-0.2-3-0.3-3.6
				c-0.2,0.3-0.6,0.9-1,1.8c-0.7,1.5-1.2,3.4-1.7,4.9c-0.2,0.9-0.5,1.6-0.7,2.1c-0.1,0.3-0.2,0.6-0.3,0.8c-0.3,0.6-0.8,0.8-1.1,0.8
				c-0.2,0-0.9-0.1-1.2-1c-0.1-0.3-0.2-0.6-0.2-1.1c-0.1-0.8-0.1-1.8-0.1-2.8c0-1.2,0-2.5-0.1-3.5c-0.1-0.9-0.2-1.4-0.3-1.6
				c-0.2,0.2-0.6,0.7-1.1,2c-0.7,1.8-1.5,4.7-2.4,9c-0.1,0.5-0.5,0.8-1,0.8h0c-0.5,0-0.9-0.3-1-0.8c-0.7-3-0.7-8.5,0-13.4
				c0.1-0.6,0.6-1,1.2-0.9c0.6,0.1,1,0.6,0.9,1.2c-0.3,2-0.4,4.1-0.5,6.1c0.3-1.1,0.6-2,0.9-2.8c0.4-1.1,0.9-1.8,1.3-2.4
				c0.6-0.7,1.3-1.1,2-1.1c0.4,0,1.2,0.2,1.6,1.2c0.2,0.4,0.4,1,0.5,1.8c0.1,1.1,0.2,2.4,0.2,3.6c0.4-1.3,0.9-2.7,1.4-3.8
				c0.6-1.5,1.7-3.4,3.3-3.4c0.3,0,0.6,0.1,0.9,0.4c0.4,0.4,0.6,1,0.7,2.2C144.6,110.1,144.7,111.2,144.7,112.5z"/>
		</g>
	</g>
</g>
</svg>
