<?xml version="1.0" encoding="utf-8"?>
<!-- Generator: Adobe Illustrator 25.2.1, SVG Export Plug-In . SVG Version: 6.00 Build 0)  -->
<svg version="1.1" id="Layer_1" xmlns="http://www.w3.org/2000/svg" xmlns:xlink="http://www.w3.org/1999/xlink" x="0px" y="0px"
	 viewBox="0 0 180 173.1" style="enable-background:new 0 0 180 173.1;" xml:space="preserve">
<style type="text/css">
	.st0{fill:#1B1B1B;}
	.st1{fill:#FFFFFF;}
	.st2{fill:#292929;}
	.st3{fill:none;stroke:#000000;stroke-width:0.25;}
	.st4{fill:none;stroke:#000000;stroke-width:0.5;stroke-miterlimit:10;}
	.st5{stroke:#000000;stroke-width:0.25;stroke-miterlimit:10;}
	.st6{fill:none;stroke:#000000;stroke-miterlimit:10;}
	.st7{stroke:#000000;stroke-miterlimit:10;}
	.st8{fill:none;stroke:#000000;stroke-width:0.25;stroke-miterlimit:10;}
</style>
<g>
	<polygon points="2.7,0 9.2,13 14.1,13 9.7,4.3 171.5,4.3 167.1,13 171.9,13 178.5,0 	"/>
	<g>
		<path d="M44.7,15c0.4,0.4,0.6,0.8,0.6,1.3c0,0.8-0.2,1.4-0.7,1.7c-0.4,0.4-1.1,0.5-2.1,0.4c-2.1-0.2-3.8-0.3-5-0.3
			c-1.2-0.1-2.8-0.1-4.7-0.1c-0.9,4.4-1.7,8.8-2.4,13.2c-0.3,1.6-0.5,3.5-0.8,5.6c-0.3,2.1-0.5,3.9-0.6,5.2c0,0.7-0.3,1.2-0.9,1.6
			c-0.5,0.4-1.2,0.6-1.9,0.6c-0.8,0-1.4-0.2-1.8-0.6c-0.4-0.4-0.6-0.9-0.6-1.5c0-0.6,0.1-1.5,0.3-2.8c0.2-1.3,0.4-2.7,0.6-4.2
			c0.3-1.5,0.5-2.7,0.6-3.8c0.3-1.8,0.6-3.6,0.9-5.4c0.3-1.8,0.7-3.5,1-5.1c0.1-0.4,0.2-0.8,0.3-1.2c0.1-0.5,0.2-1,0.3-1.6
			c-2.3,0.1-4.2,0.3-5.5,0.6c-1.3,0.3-2.3,0.7-2.8,1.3c-0.6,0.6-0.8,1.3-0.8,2.2c0,0.8,0.2,1.6,0.7,2.3c0.1,0.2,0.1,0.3,0.1,0.5
			c0,0.5-0.3,0.9-0.8,1.3c-0.5,0.4-1.1,0.6-1.7,0.6c-0.4,0-0.7-0.1-1-0.4c-0.5-0.4-0.9-1-1.2-1.7c-0.3-0.8-0.5-1.6-0.5-2.6
			c0-2,0.7-3.7,2-4.9c1.3-1.2,3.3-2.1,6-2.7c2.7-0.6,6.2-0.9,10.4-0.9c2.6,0,4.7,0,6.3,0.1c1.6,0.1,2.9,0.3,4.1,0.5
			C43.8,14.4,44.3,14.6,44.7,15z"/>
		<path d="M60.2,36.4c0.2,0.3,0.3,0.7,0.3,1.2c0,1-0.2,1.7-0.7,2.2c-1.1,1.3-2.2,2.3-3.4,3.1c-1.2,0.8-2.5,1.2-4,1.2
			c-1.2,0-2.1-0.4-2.8-1.1c-0.6-0.7-0.9-1.7-0.9-3.1c0-0.7,0.2-1.9,0.5-3.6c0.3-1.5,0.5-2.5,0.5-3.1c0-0.4-0.1-0.6-0.4-0.6
			c-0.3,0-0.8,0.4-1.3,1.2c-0.6,0.8-1.1,1.9-1.7,3.2s-1,2.7-1.4,4.1c-0.5,1.9-1.6,2.9-3.4,2.9c-0.7,0-1.2-0.3-1.4-0.8
			c-0.2-0.5-0.3-1.4-0.3-2.8c0-0.8,0-1.4,0-1.8l0-2.9c0-3.7,0.4-7.5,1.1-11.5c0.8-4,1.9-7.3,3.3-10c1.5-2.7,3.2-4.1,5.3-4.1
			c1.1,0,2,0.5,2.7,1.4c0.7,0.9,1,2.2,1,3.7c0,2.4-0.7,4.9-2.1,7.5c-1.4,2.6-3.7,5.6-6.9,9.1c-0.1,1.2-0.1,2.5-0.1,3.8
			c0.8-2,1.7-3.7,2.6-5c1-1.3,1.9-2.2,2.9-2.7c0.9-0.5,1.8-0.8,2.6-0.8c1.5,0,2.3,0.8,2.3,2.3c0,0.9-0.3,2.6-0.8,5
			c-0.5,2.1-0.7,3.4-0.7,4.1c0,1,0.3,1.4,1,1.4c0.5,0,1-0.3,1.7-0.9c0.7-0.6,1.5-1.5,2.6-2.8c0.3-0.3,0.6-0.5,1-0.5
			C59.7,36,60,36.1,60.2,36.4z M47.4,15.7c-0.5,1.2-1,2.9-1.5,5c-0.5,2.1-0.9,4.4-1.2,6.8c1.5-1.7,2.7-3.6,3.7-5.7
			c1-2.1,1.4-3.9,1.4-5.6c0-0.8-0.1-1.3-0.3-1.8c-0.2-0.4-0.4-0.6-0.7-0.6C48.4,13.9,47.9,14.5,47.4,15.7z"/>
		<path d="M58.4,42.5c-0.9-1.1-1.3-2.5-1.3-4.2c0-1.9,0.4-3.7,1.3-5.4c0.9-1.7,2.1-3.1,3.5-4.1c1.5-1,3-1.6,4.7-1.6
			c0.5,0,0.9,0.1,1.1,0.3c0.2,0.2,0.3,0.6,0.4,1.1c0.5-0.1,1-0.1,1.6-0.1c1.2,0,1.8,0.4,1.8,1.3c0,0.5-0.2,1.7-0.5,3.6
			c-0.5,2.7-0.8,4.7-0.8,5.7c0,0.4,0.1,0.6,0.3,0.9c0.2,0.2,0.4,0.3,0.7,0.3c0.5,0,1-0.3,1.6-0.9c0.6-0.6,1.5-1.5,2.6-2.8
			c0.3-0.3,0.6-0.5,1-0.5c0.3,0,0.6,0.1,0.7,0.4c0.2,0.3,0.3,0.7,0.3,1.2c0,1-0.2,1.7-0.7,2.2c-1,1.2-2,2.2-3.1,3.1
			c-1.1,0.8-2.2,1.3-3.2,1.3c-0.8,0-1.5-0.3-2.2-0.8c-0.7-0.5-1.2-1.3-1.5-2.2c-1.2,2-2.8,3-4.7,3C60.5,44.1,59.3,43.6,58.4,42.5z
			 M64.7,39.6c0.5-0.6,0.8-1.4,1-2.5l1.3-6.6c-1,0-1.9,0.4-2.8,1.1c-0.8,0.7-1.5,1.7-2,2.9s-0.8,2.5-0.8,3.8c0,0.7,0.1,1.3,0.4,1.6
			c0.3,0.4,0.7,0.5,1.2,0.5C63.8,40.5,64.3,40.2,64.7,39.6z"/>
		<path d="M75,42.7c-0.4-1-0.6-2.5-0.6-4.6c0-3.1,0.4-6,1.3-8.8c0.2-0.7,0.6-1.2,1.1-1.5c0.5-0.3,1.2-0.5,2.1-0.5
			c0.5,0,0.8,0.1,1,0.2c0.2,0.1,0.3,0.3,0.3,0.7c0,0.4-0.2,1.2-0.5,2.6c-0.2,1-0.4,1.8-0.6,2.5c-0.1,0.7-0.3,1.6-0.4,2.6
			c0.8-2.1,1.7-3.7,2.6-5c1-1.3,1.9-2.2,2.9-2.8c0.9-0.5,1.8-0.8,2.6-0.8c1.6,0,2.3,0.8,2.3,2.3c0,0.9-0.3,2.6-0.8,5
			c-0.5,2.1-0.7,3.4-0.7,4.1c0,1,0.3,1.4,1,1.4c0.5,0,1-0.3,1.7-0.9c0.7-0.6,1.5-1.5,2.6-2.8c0.3-0.3,0.6-0.5,1-0.5
			c0.3,0,0.6,0.1,0.7,0.4c0.2,0.3,0.3,0.7,0.3,1.2c0,1-0.2,1.7-0.7,2.2c-1,1.3-2.1,2.3-3.3,3.1c-1.2,0.8-2.5,1.2-4,1.2
			c-1.2,0-2.1-0.4-2.8-1.1c-0.6-0.7-0.9-1.7-0.9-3.1c0-0.7,0.2-1.9,0.5-3.6c0.3-1.5,0.5-2.5,0.5-3.1c0-0.4-0.1-0.6-0.4-0.6
			c-0.3,0-0.7,0.4-1.3,1.2c-0.6,0.8-1.1,1.9-1.7,3.2c-0.6,1.3-1.1,2.7-1.4,4.1c-0.3,1.1-0.6,1.9-0.9,2.3c-0.3,0.4-0.9,0.6-1.6,0.6
			C76,44.1,75.4,43.6,75,42.7z"/>
		<path d="M108.8,41.8c0,0.6-0.3,1.1-0.8,1.6c-0.5,0.5-1.3,0.7-2.3,0.7c-1.7,0-3.1-0.5-4.2-1.6c-1.1-1.1-1.6-2.5-1.6-4.2
			c0-0.9,0.5-1.6,1.4-2c1-0.5,1.8-0.9,2.3-1.4c0.5-0.5,0.7-1.1,0.7-1.9c0-0.4-0.1-0.8-0.3-1c-0.2-0.2-0.4-0.3-0.7-0.3
			c-0.6,0-1.4,0.5-2.1,1.4s-1.5,2.1-2.2,3.6c-0.7,1.5-1.2,3-1.6,4.5c-0.3,1.1-0.6,1.9-0.9,2.3c-0.3,0.4-0.9,0.6-1.6,0.6
			c-0.7,0-1.3-0.3-1.6-0.8c-0.3-0.5-0.6-1.4-0.7-2.5c-0.1-1.1-0.2-2.8-0.2-4.9c0-3.7,0.4-7.5,1.1-11.5c0.8-4,1.9-7.3,3.3-10
			c1.5-2.7,3.2-4.1,5.3-4.1c1.1,0,2,0.5,2.7,1.4c0.7,0.9,1,2.2,1,3.7c0,2.4-0.7,4.9-2.1,7.5c-1.4,2.6-3.7,5.6-6.9,9.1
			c-0.1,1.2-0.1,2.5-0.1,3.8c1.1-3,2.5-5.1,3.9-6.5c1.5-1.3,2.9-2,4.1-2c1.2,0,2.2,0.4,2.9,1.2c0.7,0.8,1.1,1.8,1.1,3
			c0,1.3-0.3,2.5-1,3.6c-0.7,1.1-1.8,2.1-3.4,2.9c0.1,0.7,0.4,1.2,0.9,1.5c0.4,0.3,1.2,0.5,2.1,0.7C108.3,40.4,108.8,41,108.8,41.8z
			 M99.9,15.7c-0.5,1.2-1,2.9-1.5,5c-0.5,2.1-0.9,4.4-1.2,6.8c1.5-1.7,2.7-3.6,3.7-5.7c1-2.1,1.4-3.9,1.4-5.6c0-0.8-0.1-1.3-0.3-1.8
			c-0.2-0.4-0.4-0.6-0.7-0.6C100.9,13.9,100.4,14.5,99.9,15.7z"/>
		<path d="M139.3,36.5c0.2,0.3,0.3,0.7,0.3,1.1c0,0.5-0.1,1-0.3,1.3c-0.2,0.3-0.4,0.6-0.8,0.8l-6.9,4.6c-0.9,4.9-2.1,8.8-3.6,11.6
			c-1.5,2.8-3.3,4.2-5.6,4.2c-1.2,0-2.2-0.4-3-1.1c-0.8-0.8-1.1-1.7-1.1-3c0-1.1,0.3-2.3,0.8-3.4c0.5-1.2,1.5-2.5,2.9-4
			c1.4-1.5,3.4-3.3,5.9-5.2l0.1-0.8c0.2-0.9,0.4-2.1,0.6-3.8c-0.5,1.7-1.1,3-2,3.9c-0.9,0.9-1.8,1.3-2.7,1.3c-1.1,0-1.9-0.5-2.6-1.5
			c-0.7-1-1-2.2-1-3.7c0-1.8,0.1-3.4,0.4-4.9c0.2-1.5,0.6-3.1,1.2-4.7c0.2-0.7,0.6-1.2,1-1.5c0.4-0.3,1.1-0.5,2-0.5
			c0.5,0,0.9,0.1,1.1,0.3c0.2,0.2,0.3,0.4,0.3,0.8c0,0.2-0.1,0.8-0.4,1.9c-0.2,0.9-0.4,1.7-0.6,2.4c-0.2,1-0.4,1.9-0.5,2.8
			c-0.1,0.9-0.2,1.6-0.2,2.2c0,0.9,0.3,1.4,0.8,1.4c0.4,0,0.8-0.4,1.3-1.1c0.5-0.7,1.1-1.8,1.7-3.3c0.6-1.5,1.2-3.2,1.8-5.4
			c0.2-0.7,0.5-1.2,0.9-1.5c0.4-0.3,1-0.5,1.8-0.5c0.5,0,0.9,0.1,1.1,0.2c0.2,0.1,0.3,0.4,0.3,0.7c0,0.6-0.3,2.6-0.9,6.2l-0.9,5.8
			c1.8-1.4,3.6-2.6,5.4-3.8c0.3-0.2,0.6-0.3,0.8-0.3C138.8,36,139.1,36.2,139.3,36.5z M124.9,54.7c0.7-1.4,1.5-3.7,2.2-6.9
			c-1.8,1.6-3.2,3-4,4.2c-0.8,1.3-1.2,2.4-1.2,3.3c0,0.4,0.1,0.7,0.2,1c0.2,0.3,0.4,0.4,0.8,0.4C123.5,56.8,124.1,56.1,124.9,54.7z"
			/>
		<path d="M156.3,33.4c0.2,0.3,0.2,0.7,0.2,1.2c0,1.1-0.3,1.8-1,2c-1.4,0.5-3,0.8-4.7,0.9c-0.5,2-1.3,3.6-2.7,4.8
			c-1.3,1.2-2.9,1.8-4.5,1.8c-1.4,0-2.7-0.3-3.7-1c-1-0.7-1.8-1.6-2.3-2.8c-0.5-1.1-0.8-2.4-0.8-3.7c0-1.8,0.3-3.4,1-4.8
			c0.7-1.4,1.6-2.5,2.9-3.3c1.2-0.8,2.6-1.2,4-1.2c1.8,0,3.3,0.6,4.4,1.9c1.1,1.3,1.8,2.8,1.9,4.6c1.1-0.1,2.5-0.3,4-0.7
			c0.2,0,0.4-0.1,0.5-0.1C155.9,33,156.1,33.1,156.3,33.4z M145.8,39.4c0.6-0.6,0.9-1.5,1.1-2.7c-0.7-0.5-1.3-1.2-1.7-2
			c-0.4-0.8-0.6-1.7-0.6-2.6c0-0.4,0-0.8,0.1-1.1h-0.2c-1,0-1.7,0.5-2.4,1.4c-0.6,0.9-0.9,2.2-0.9,3.9c0,1.3,0.3,2.3,0.8,3
			c0.5,0.7,1.1,1,1.8,1C144.6,40.3,145.3,40,145.8,39.4z"/>
		<path d="M154.5,42.7c-0.7-0.9-1-2.2-1-3.8c0-1.8,0.1-3.4,0.4-4.9c0.2-1.5,0.6-3.1,1.2-4.7c0.2-0.7,0.6-1.2,1-1.5
			c0.4-0.3,1.1-0.5,2-0.5c0.5,0,0.9,0.1,1.1,0.3c0.2,0.2,0.3,0.4,0.3,0.8c0,0.2-0.1,0.8-0.4,1.9c-0.2,0.9-0.4,1.7-0.6,2.4
			c-0.5,2.5-0.7,4.2-0.7,5c0,0.5,0.1,0.9,0.2,1.1c0.1,0.2,0.3,0.3,0.6,0.3c0.4,0,0.8-0.4,1.4-1.1c0.5-0.7,1.1-1.8,1.7-3.3
			c0.6-1.5,1.2-3.2,1.7-5.3c0.2-0.7,0.5-1.2,0.9-1.5c0.4-0.3,1-0.5,1.8-0.5c0.5,0,0.9,0.1,1.1,0.4c0.2,0.3,0.3,0.7,0.3,1.2
			c0,0.6,0,1.3-0.1,2c-0.1,0.7-0.2,1.5-0.3,2.2c-0.2,1.5-0.4,2.9-0.6,4.2c-0.1,1.3-0.2,2.7-0.2,4.3c0,0.9-0.2,1.6-0.6,1.9
			c-0.4,0.4-1,0.6-1.8,0.6c-0.9,0-1.5-0.2-1.8-0.7c-0.3-0.5-0.5-1.4-0.5-2.7c0-0.3,0-0.8,0.1-1.8c-0.4,1.7-1,2.9-1.8,3.8
			c-0.8,0.9-1.7,1.3-2.6,1.3C156.1,44.1,155.2,43.7,154.5,42.7z"/>
	</g>
	<g>
		<path d="M132.7,80.7c-0.2,0-0.4,0-0.6,0.1v5.1c0.2,0.1,0.4,0.1,0.6,0.1c1.5,0,2.6-1.2,2.6-2.6S134.2,80.7,132.7,80.7z"/>
		<ellipse cx="23.3" cy="85.4" rx="4.2" ry="4.6"/>
		<path d="M31.8,80.7c-0.2,0-0.4,0-0.6,0.1v5.1c0.2,0.1,0.4,0.1,0.6,0.1c1.5,0,2.6-1.2,2.6-2.6S33.2,80.7,31.8,80.7z"/>
		<path d="M141.2,73.5h-4.8H44.8H40H0l1.6,3.2L11.4,96h40h4.8h68.7h4.8h38.8l9.8-19.3l1.6-3.2H141.2z M17.2,80.7h-3.5v4.4h2.5v1.5
			h-2.5v5.1h-1.5V79.2h5V80.7z M23.3,91.7c-3.2,0-5.8-2.8-5.8-6.2s2.6-6.2,5.8-6.2c3.2,0,5.8,2.8,5.8,6.2S26.5,91.7,23.3,91.7z
			 M35.7,91.7l-2.9-4.4c-0.3,0.1-0.7,0.1-1.1,0.1c-0.2,0-0.4,0-0.6,0v4.3h-1.5V79.2h2.1c2.3,0,4.1,1.9,4.1,4.1
			c0,1.4-0.7,2.6-1.7,3.3l2.8,4.3L35.7,91.7z M48.2,91.8l-0.9-1.2c1.7-1.3,1.7-1.7,1.7-2.3c0-0.1,0-0.1,0-0.2c0-0.6,0-1.2-2.1-1.9
			c-3-1.1-3.6-2.6-3.6-3.7c0-1.3,1.2-3.1,3.4-3.1c2.3,0,3.3,1.9,3.3,2l-1.3,0.7c0,0-0.7-1.2-2-1.2c-1.4,0-1.9,1.2-1.9,1.7
			c0,0.9,0.9,1.7,2.6,2.3c2.6,0.9,3.1,2,3.1,3.3c0,0.1,0,0.1,0,0.2C50.5,89.3,50.3,90.2,48.2,91.8z M56.5,87.9h-4.1v2.3h4.1v1.5
			h-5.6v-11v-1.5h1.5h3.9v1.5h-3.9v5.7h4.1V87.9z M64.6,80.6h-2.8v11.1h-1.7V80.6h-2.8v-1.5h7.3V80.6z M72.6,80.6h-2.8v11.1h-1.7
			V80.6h-2.8v-1.5h7.3V80.6z M75.5,91.7h-1.7V79.2l1.7,0V91.7z M82.2,91.7l-4.7-9.3l0,9.3h-1.5V79.2h1.5l4.7,9.3v-9.3h1.5l0,12.5
			H82.2z M94.2,90c-1,1-2.4,1.7-3.9,1.7c-3.2,0-5.8-2.8-5.8-6.3s2.6-6.3,5.8-6.3c1.9,0,3.5,0.9,4.6,2.4l-1.2,1.1
			c-0.8-1.1-2-1.9-3.4-1.9c-2.3,0-4.2,2.1-4.2,4.7c0,2.6,1.9,4.7,4.2,4.7c1.3,0,2.5-0.7,3.2-1.7c0.3-0.6,0.5-1.2,0.5-1.9h-2.2v-1.4
			h3.8C95.9,86.9,95.6,88.8,94.2,90z M110,80.6h-2.8v11.1h-1.7V80.6h-2.8v-1.5h7.3V80.6z M117.7,91.7h-1.5v-5.1h-4v5.1h-1.5V79.2
			h1.5v5.9h4v-5.9h1.5V91.7z M123.8,87.9h-4.1v2.3h4.1v1.5h-5.6v-11v-1.5h1.5h3.9v1.5h-3.9v5.7h4.1V87.9z M136.7,91.7l-2.9-4.4
			c-0.3,0.1-0.7,0.1-1.1,0.1c-0.2,0-0.4,0-0.6,0v4.3h-1.5V79.2h2.1c2.3,0,4.1,1.9,4.1,4.1c0,1.4-0.7,2.6-1.7,3.3l2.8,4.3L136.7,91.7
			z M140.5,91.7h-1.7V79.2l1.7,0V91.7z M150.9,90c-1,1-2.4,1.7-3.9,1.7c-3.2,0-5.8-2.8-5.8-6.3s2.6-6.3,5.8-6.3
			c1.9,0,3.5,0.9,4.6,2.4l-1.2,1.1c-0.8-1.1-2-1.9-3.4-1.9c-2.3,0-4.2,2.1-4.2,4.7c0,2.6,1.9,4.7,4.2,4.7c1.3,0,2.5-0.7,3.2-1.7
			c0.3-0.6,0.5-1.2,0.5-1.9h-2.2v-1.4h3.8C152.6,86.9,152.3,88.8,150.9,90z M160.4,91.7h-1.5v-5.1h-4v5.1h-1.5V79.2h1.5v5.9h4v-5.9
			h1.5V91.7z M168.2,80.6h-2.8v11.1h-1.7V80.6h-2.8v-1.5h7.3V80.6z"/>
	</g>
	<g>
		<polygon points="95.8,109.3 92.7,112.1 89.6,109.2 89.6,110.1 92.7,113 95.8,110.2 		"/>
		<path d="M126.4,102.7h-4.8H59.6h-4.8H33.6l9.5,18.8h21.2h4.8H112h4.8h21.7l9.5-18.8H126.4z M69.1,115h-3.5v2h3.5v1.3h-4.8v-9.4
			v-1.3h1.3H69v1.3h-3.4v4.9h3.5V115z M78.3,118.3h-1.4l-2.3-4.1l-2.3,4.1h-1.4l3-5.4l-3-5.4h1.4l2.3,4.1l2.3-4.1h1.4l-3,5.4
			L78.3,118.3z M83.3,116.2l-0.9-1.5l0.9-1.9l0.8,1.9L83.3,116.2z M85.2,118.3l-1.9-9l-1.9,9h-1.3l2.2-10.7h1.9l2.3,10.7H85.2z
			 M89.6,111.8v6.4h-1.3v-10.7h1.3l3.1,2.9l3.1-2.9H97v7l-0.1-0.2l-0.5-1.1l-0.6,1.1l-0.1,0.2v-2.7l-3.1,2.9L89.6,111.8z M97,118.3
			h-1.3v-1.8l0.1,0.2l0.6,0.9l0.5-0.9l0.1-0.1V118.3z M97,116.2l-0.5,0.9l-0.6-0.9l-0.3-0.6l0.3-0.7l0.6-1.2L97,115l0.3,0.7
			L97,116.2z M100.7,114.6c-0.2,0-0.4,0-0.5,0v3.7h-1.3v-10.7h1.8c1.9,0,3.5,1.6,3.5,3.5C104.3,113,102.7,114.6,100.7,114.6z
			 M110.7,118.3h-4.8v-10.7h1.3v9.4h3.5V118.3z M117.3,115h-3.5v2h3.5v1.3h-4.8v-9.4v-1.3h1.3h3.4v1.3h-3.4v4.9h3.5V115z"/>
		<path d="M100.7,108.8c-0.2,0-0.4,0-0.5,0.1v4.4c0.2,0,0.4,0.1,0.5,0.1c1.2,0,2.3-1,2.3-2.3C103,109.8,102,108.8,100.7,108.8z"/>
	</g>
	<g>
		<polygon points="56.2,96 51.4,96 54.8,102.7 59.6,102.7 		"/>
		<path d="M150.5,55.2l2.2-4.3H133c-0.5,1.6-1,3.1-1.6,4.3h14.2l-9.3,18.4h4.8L150.5,55.2z"/>
		<path d="M35.5,55.2h79.7c0.1-0.9,0.4-1.9,0.8-2.8c0.2-0.5,0.5-1,0.8-1.5H28.5l2.2,4.3L40,73.5h4.8L35.5,55.2z"/>
		<polygon points="121.5,102.7 126.4,102.7 129.8,96 124.9,96 		"/>
		<polygon points="90.6,163.6 69.2,121.5 64.3,121.5 90.6,173.1 116.8,121.5 112,121.5 		"/>
	</g>
</g>
</svg>
