<?xml version="1.0" encoding="utf-8"?>
<!-- Generator: Adobe Illustrator 25.2.1, SVG Export Plug-In . SVG Version: 6.00 Build 0)  -->
<svg version="1.1" id="Layer_1" xmlns="http://www.w3.org/2000/svg" xmlns:xlink="http://www.w3.org/1999/xlink" x="0px" y="0px"
	 viewBox="0 0 180 252.1" style="enable-background:new 0 0 180 252.1;" xml:space="preserve">
<style type="text/css">
	.st0{fill:#1B1B1B;}
	.st1{fill:#FFFFFF;}
	.st2{fill:#292929;}
	.st3{fill:none;stroke:#000000;stroke-width:0.25;}
	.st4{fill:none;stroke:#000000;stroke-width:0.5;stroke-miterlimit:10;}
	.st5{stroke:#000000;stroke-width:0.25;stroke-miterlimit:10;}
	.st6{fill:none;stroke:#000000;stroke-miterlimit:10;}
	.st7{stroke:#000000;stroke-miterlimit:10;}
	.st8{fill:none;stroke:#000000;stroke-width:0.25;stroke-miterlimit:10;}
</style>
<g>
	<g>
		<path d="M40.7,60.9l-4.8,14.9h-4.5l-2.8-9.1l-3,9.1h-4.5l-4.8-14.9h4.3l3,9.5l3.1-9.5h3.9l3,9.6l3.1-9.6H40.7z"/>
		<path d="M41.3,68.3c0-4.5,3.5-7.7,8.3-7.7c4.8,0,8.3,3.3,8.3,7.7c0,4.5-3.5,7.7-8.3,7.7C44.8,76.1,41.3,72.8,41.3,68.3z
			 M53.5,68.3c0-2.6-1.8-4.2-4-4.2s-4,1.7-4,4.2c0,2.6,1.8,4.2,4,4.2S53.5,70.9,53.5,68.3z"/>
		<path d="M66.5,71.8h-2.3v4H60V60.9h6.8c4.1,0,6.6,2.1,6.6,5.5c0,2.2-1.1,3.8-2.9,4.7l3.2,4.7h-4.5L66.5,71.8z M66.5,64.2h-2.3v4.4
			h2.3c1.7,0,2.6-0.8,2.6-2.2C69.2,65,68.3,64.2,66.5,64.2z"/>
		<path d="M81.5,70.4l-1.6,1.7v3.7h-4.2V60.9h4.2v6.2l5.8-6.2h4.6l-6.1,6.6l6.4,8.3h-4.9L81.5,70.4z"/>
		<path d="M109.8,72.5v3.3H97.9V60.9h11.7v3.3H102v2.5h6.6v3.1H102v2.7H109.8z"/>
		<path d="M115.3,64.2h-4.6v-3.3h13.3v3.3h-4.5v11.5h-4.2V64.2z"/>
		<path d="M139.8,60.9v14.9h-4.2V70h-5.7v5.8h-4.2V60.9h4.2v5.6h5.7v-5.6H139.8z"/>
		<path d="M142.7,60.9h4.2v14.9h-4.2V60.9z"/>
		<path d="M149.2,68.3c0-4.5,3.5-7.7,8.2-7.7c2.7,0,5,1,6.4,2.8l-2.7,2.4c-0.9-1.1-2.1-1.7-3.5-1.7c-2.4,0-4.1,1.7-4.1,4.2
			c0,2.5,1.7,4.2,4.1,4.2c1.4,0,2.6-0.6,3.5-1.7l2.7,2.4c-1.4,1.8-3.7,2.8-6.4,2.8C152.6,76.1,149.2,72.9,149.2,68.3z"/>
	</g>
	<path d="M114.5,63.2v0.3h0.4C114.9,63.3,114.8,63.2,114.5,63.2z"/>
	<path d="M16.2,252.1v-25.4H0V4.1C0,1.9,1.9,0,4.1,0h171.7c2.3,0,4.1,1.9,4.1,4.1v222.6H41.6L16.2,252.1z M3.7,223.1h16.2v20.2
		l20.2-20.2h136.3V4.1c0-0.3-0.2-0.5-0.5-0.5H4.1c-0.3,0-0.5,0.2-0.5,0.5V223.1z"/>
	<g>
		<path d="M86.7,20.7c-0.1-1.4-0.4-1.9-1.2-1.9c-2.3,0-4.3,5.9-4.3,9.1c0,2.1,0.4,2.6,1.7,2.6c1.6,0,3.2-2.9,3.8-6.7
			c-0.7-0.2-0.9-0.7-0.9-1.4C85.7,21.6,86.1,21,86.7,20.7z"/>
		<path d="M39.6,1.8c0,27.8,22.6,50.4,50.4,50.4c27.8,0,50.4-22.6,50.4-50.4H39.6z M70.9,33.4h-5.2l2.1-10l-3.1-12.2
			c-3,1.1-4.8,3.6-4.8,7.2c0,1.7,0.4,1.9,0.5,2.2c-2.2,0-3.5-0.8-3.5-3.1c0-4.3,6-8.4,11.4-8.4c0.5,0,0.9,0,1.3,0.1l2.8,11.6
			l4.8-11.5h2.1L73,23.4L70.9,33.4z M117.7,22c-1.8,0-0.9-2.1-1.9-2.1s-1.6,0.5-2.4,1.2l-2.6,12.3h-4.7l0.4-1.8
			c-1.5,1.7-3.2,2-4.3,2c-1.8,0-3-1.1-3.2-3.1c-1.6,2.7-3.4,3.1-4.8,3.1c-1.9,0-3.5-1.2-3.5-3.9c0-0.6,0.1-1.3,0.3-2.1l1-4.6
			c-0.8,0.3-1.8,0.6-2.7,0.7c-0.5,6-3.8,9.8-7.7,9.8c-3,0-5.2-1.4-5.2-5.1c0-3.7,2.2-11.5,8.9-11.5c2.8,0,4.1,1.8,4.1,5.2
			c0.1,0.1,0.3,0.1,0.4,0.1c0.8,0,1.7-0.3,2.6-0.6l0.9-4.3h4.7l-2.3,11c-0.1,0.3-0.1,0.6-0.1,0.9c0,0.7,0.3,1.3,1,1.3
			c1.3,0,2.1-1.2,2.6-2.9l2.2-10.4h4.7l-2.3,11c-0.1,0.4-0.1,0.7-0.1,1c0,0.9,0.4,1.2,1.3,1.2c1.3,0,2.1-1.2,2.6-2.8l2.2-10.4h4.7
			l-0.4,2c1.1-1,2.4-2,3.9-2c1.5,0,2.2,1.2,2.2,2.4C120,20.7,119.2,22,117.7,22z"/>
	</g>
	<g>
		<path d="M27.9,102.4c-1.3-0.8-2.5-1.6-3.7-2.4c-1.1-0.7-2-1.5-2.6-2.3c-0.6-0.7-0.9-1.5-0.9-2.4c0-0.8,0.2-1.6,0.7-2.3
			c0.5-0.7,1.1-1.2,1.9-1.6c0.8-0.4,1.8-0.6,2.8-0.6c1.2,0,2.7,0.4,4.4,1.1l1.2,4.5h0.8l-0.1-7.2l-0.3,0c-0.2,0-0.3,0-0.5,0.1
			c-0.2,0-0.4,0-0.6,0c-0.3,0-0.6,0-0.9,0c-0.3,0-1,0-1.9-0.1c-0.9-0.1-1.8-0.1-2.7-0.1c-1.9,0-3.5,0.4-4.8,1.1
			c-1.3,0.7-2.3,1.7-2.9,2.8c-0.6,1.1-0.9,2.3-0.9,3.4c0,1,0.2,2,0.6,2.9c0.4,0.8,1,1.7,1.8,2.5c0.9,0.9,2.4,2.1,4.4,3.4
			c2,1.3,3.4,2.5,4.3,3.3c0.8,0.8,1.2,1.8,1.2,3c0,0.6-0.1,1.2-0.4,1.8c-0.3,0.6-0.6,1.2-1.1,1.6c-0.5,0.5-1.1,0.9-1.9,1.2
			c-0.8,0.3-1.6,0.5-2.5,0.5l-0.1,0c-0.7,0-1.5-0.1-2.4-0.3c-0.9-0.2-1.7-0.4-2.4-0.7l-1.5-4.8h-0.8l0.3,7.4h0.3c0.1,0,0.2,0,0.5,0
			l0.6-0.1c0.4,0,1.4,0,3,0.1c1.1,0.1,2.1,0.1,2.9,0.1c2.3,0,4.1-0.4,5.6-1.3c1.4-0.9,2.5-1.9,3.1-3.2c0.6-1.2,0.9-2.5,0.9-3.6
			c0-2.1-0.8-3.9-2.4-5.5C30.3,104.1,29.3,103.2,27.9,102.4z M30.5,111.6c0-1.5-0.6-2.9-1.8-4.1c-0.4-0.4-1-0.9-1.7-1.4
			c-0.7-0.5-1.6-1.1-2.7-1.9c-1.1-0.7-1.9-1.3-2.5-1.7c-0.5-0.4-1.1-0.9-1.7-1.5c-1.4-1.4-2-2.8-2-4.4c0-1.2,0.3-2.4,1-3.4
			c0.3-0.5,0.7-0.9,1.1-1.3c-1.1,1.2-1.7,2.5-1.7,3.9c0,1.7,0.7,3.2,2.1,4.6c0.6,0.5,1.5,1.2,2.7,2c1.2,0.8,2.4,1.6,3.5,2.4
			c1.1,0.8,1.9,1.4,2.4,1.8c0.7,0.7,1.3,1.5,1.6,2.2c0.3,0.7,0.4,1.5,0.4,2.4c0,1-0.3,2-0.9,2.9c-0.5,0.8-1.3,1.5-2.3,2.1
			c0.7-0.5,1.3-1.1,1.7-1.9C30.2,113.6,30.5,112.6,30.5,111.6z"/>
		<path d="M56.4,91.9c-0.8-0.8-1.9-1.4-3.1-1.8c-1.2-0.4-3-0.6-5.1-0.6H34.5l0.1,0.8l4.8,0.7c0.1,1.1,0.3,2.6,0.4,4.5
			c0.1,2,0.2,3.8,0.2,5.5v4.6c0,0.8,0,2.1-0.1,3.8c-0.1,1.7-0.1,3.2-0.2,4.4c-0.1,1.1-0.2,2.2-0.3,3.2l-4.6,0.7l-0.2,0.8h15l0.7-0.7
			l-5.2-0.8c-0.1-0.6-0.2-1.4-0.2-2.2c-0.1-1-0.1-2.2-0.2-3.5c-0.1-1.4-0.1-2.2-0.1-2.6v-9.2c0-0.8,0.1-2.2,0.2-4.3
			c0.1-1.8,0.2-3,0.3-3.6c0.8-0.2,1.6-0.3,2.6-0.3c2.1,0,3.7,0.8,4.8,2.3c1.1,1.6,1.7,3.2,1.7,5c0,1.5-0.4,2.8-1.1,3.8
			c-0.7,1-1.7,1.7-2.8,2.2c-1.2,0.5-2.5,0.7-3.9,0.7c-0.5,0-0.9,0-1.2,0l-0.3,0v0.8l0.2,0c1.2,0.2,2.5,0.4,4,0.4
			c1.9,0,3.6-0.4,5-1.2c1.5-0.8,2.6-1.9,3.4-3.2c0.8-1.3,1.2-2.8,1.2-4.4c0-1-0.2-2.1-0.5-3.1C57.6,93.4,57.1,92.5,56.4,91.9z
			 M55.1,98.4c0-1.4-0.3-2.7-0.9-4c-0.6-1.2-1.4-2.3-2.6-3c-0.4-0.3-0.8-0.5-1.2-0.7c0.9,0.2,1.6,0.5,2.3,1c1.1,0.8,1.9,1.7,2.4,2.9
			c0.5,1.2,0.7,2.4,0.7,3.5c0,1.9-0.4,3.4-1.3,4.4c-0.8,1-1.8,1.7-2.7,2.1c0.9-0.5,1.6-1.2,2.2-2.2C54.7,101.4,55.1,100,55.1,98.4z
			 M41,116.9V90.8h0.7v26.1H41z"/>
		<path d="M78.4,116.3c-1,0.1-2.1,0.2-3.5,0.2c-2.4,0-4.4-0.2-5.9-0.6c-0.1-0.8-0.2-1.8-0.2-2.8c0-1.2-0.1-2.7-0.1-4.5
			c-0.1-1.3,0-2.7,0.1-4.1c1.3-0.1,2.8-0.2,4.3-0.2c1.2,0,2.4,0.1,3.5,0.2l0.9,3.5h0.9V99h-0.9l-0.9,3.3c-1.5,0.2-2.9,0.2-4.2,0.2
			c-0.5,0-1.7-0.1-3.6-0.2c-0.1-1-0.1-2.3-0.1-3.8c0-2.6,0.1-4.9,0.4-6.9c1.5-0.3,3.4-0.5,5.7-0.5c1.3,0,2.4,0,3.4,0.1l1.4,4.7h0.9
			L80,89.5H58.9v0.8l4.8,0.7c0.1,1.1,0.2,2.3,0.3,3.4c0.1,1.2,0.1,2.4,0.2,3.5c0,1.1,0.1,2,0.1,2.6v4.9c0,0.7,0,1.5,0,2.4
			c0,0.9-0.1,2-0.1,3.4c-0.1,1.3-0.1,2.5-0.2,3.6c-0.1,0.9-0.2,1.7-0.2,2.2l-4.6,0.7v0.8h21.3l0.5-6.6h-0.8L78.4,116.3z M66,90.9
			v26.1h-0.7V90.9H66z"/>
		<path d="M135.7,110.1l-4.3-5.2c-1.5-1.7-2.6-3.2-3.3-4.4c0.6-0.6,1.5-1.4,2.6-2.4c1.2-1.2,2.4-2.2,3.5-3.2c1.1-1,2-1.8,2.7-2.5
			c0.7-0.6,1.2-1.1,1.5-1.3l4-0.7v-0.7h-11.6v0.8l4.2,0.7c-1.3,1.5-3.3,3.5-5.8,5.9c-1.4,1.3-2.6,2.4-3.7,3.4
			c-0.9,0.8-1.7,1.4-2.4,2v-4.4c0-0.7,0-1.8,0.1-3.4c0.1-1.4,0.2-2.6,0.3-3.5l5-0.7v-0.8h-15.1v0.8l4.6,0.7c0.1,0.9,0.3,2.2,0.4,3.8
			c0.1,1.7,0.2,3.4,0.2,4.9v5.4c0,1.2,0,2.4-0.1,3.8c-0.1,1.4-0.1,2.9-0.2,4.4c-0.1,1.4-0.2,2.6-0.4,3.6l-4.3,0.6l-3.2-0.7
			c-1.4-2.5-2.6-5-3.7-7.6l-8.4-20.1h-1.9l-9,22.9c-0.7,1.7-1.5,3.3-2.3,4.8l-3.7,0.7v0.7h11.4v-0.8l-5-0.7c0.1-0.5,0.3-1.2,0.5-1.9
			c0.3-0.9,0.6-1.8,0.9-2.6c0.3-0.8,0.7-1.8,1.2-3h11.7c0.6,1.1,1.1,2.3,1.6,3.7c0.5,1.4,0.8,2.6,1,3.8l-5.2,0.7v0.8h14h0.2h14.8
			v-0.8l-5-0.7c-0.1-0.9-0.2-2.1-0.3-3.9c-0.1-1.9-0.2-3.2-0.2-3.9V105l1.5-1.4c1.1,1.2,2.4,2.6,3.7,4.2c1.4,1.7,2.8,3.4,4,5
			c1.1,1.5,2.1,2.9,2.8,4.1l-3.5,0.6v0.7h14.1v-0.7l-3.7-0.7C140.3,115.3,138.2,113,135.7,110.1z M93.5,107.7
			c-0.8,0-1.6-0.1-2.2-0.2c0.2-0.5,0.5-1.2,0.9-2.2c0.5-1.3,1-2.5,1.4-3.6c0.5-1.1,1-2.4,1.5-3.7c0.4-1,0.8-1.8,1.1-2.4
			c0.9,1.7,1.9,3.7,2.9,6.1c1.1,2.5,1.9,4.4,2.4,5.8C99.5,107.7,96.7,107.8,93.5,107.7z M97.1,92.5l10.2,24.4h-0.6l-9.9-23.6
			L97.1,92.5z M126,102.2l12.2,14.8h-0.8l-11.8-14.4L126,102.2z M119.8,117V90.9h0.8V117H119.8z"/>
		<path d="M161.4,104.9c-0.8-0.8-1.9-1.6-3.2-2.5c-1.3-0.8-2.5-1.6-3.7-2.4c-1.1-0.7-2-1.5-2.6-2.3c-0.6-0.7-0.9-1.5-0.9-2.4
			c0-0.8,0.2-1.6,0.7-2.3c0.5-0.7,1.1-1.2,1.9-1.6c0.8-0.4,1.8-0.6,2.8-0.6c1.2,0,2.7,0.4,4.4,1.1l1.2,4.5h0.8l-0.1-7.2l-0.3,0
			c-0.2,0-0.3,0-0.5,0.1c-0.2,0-0.4,0-0.6,0c-0.3,0-0.6,0-0.9,0c-0.3,0-1,0-1.9-0.1c-0.9-0.1-1.8-0.1-2.7-0.1
			c-1.9,0-3.5,0.4-4.8,1.1c-1.3,0.7-2.3,1.7-2.9,2.8c-0.6,1.1-0.9,2.3-0.9,3.4c0,1,0.2,2,0.6,2.9c0.4,0.8,1,1.7,1.8,2.5
			c0.9,0.9,2.4,2.1,4.4,3.4c2,1.3,3.4,2.5,4.3,3.3c0.8,0.8,1.2,1.8,1.2,3c0,0.6-0.1,1.2-0.4,1.8c-0.3,0.6-0.6,1.2-1.1,1.6
			c-0.5,0.5-1.1,0.9-1.9,1.2c-0.8,0.3-1.6,0.5-2.5,0.5l-0.1,0c-0.7,0-1.5-0.1-2.4-0.3c-0.9-0.2-1.7-0.4-2.4-0.7l-1.5-4.8h-0.8
			l0.3,7.4h0.3c0.1,0,0.2,0,0.5,0l0.6-0.1c0.4,0,1.4,0,3,0.1c1.1,0.1,2.1,0.1,2.9,0.1c2.3,0,4.1-0.4,5.6-1.3
			c1.4-0.9,2.5-1.9,3.1-3.2c0.6-1.2,0.9-2.5,0.9-3.6C163.8,108.3,163,106.5,161.4,104.9z M160.8,111.6c0-1.5-0.6-2.9-1.8-4.1
			c-0.4-0.4-1-0.9-1.7-1.4c-0.7-0.5-1.6-1.1-2.7-1.9c-1.1-0.7-1.9-1.3-2.5-1.7c-0.5-0.4-1.1-0.9-1.7-1.5c-1.4-1.4-2-2.8-2-4.4
			c0-1.2,0.3-2.4,1-3.4c0.3-0.5,0.7-0.9,1.1-1.3c-1.1,1.2-1.7,2.5-1.7,3.9c0,1.7,0.7,3.2,2.1,4.6c0.6,0.5,1.5,1.2,2.7,2
			c1.2,0.8,2.4,1.6,3.5,2.4c1.1,0.8,1.9,1.4,2.4,1.8c0.7,0.7,1.3,1.5,1.6,2.2c0.3,0.7,0.4,1.5,0.4,2.4c0,1-0.3,2-0.9,2.9
			c-0.5,0.8-1.3,1.5-2.3,2.1c0.7-0.5,1.3-1.1,1.7-1.9C160.5,113.6,160.8,112.6,160.8,111.6z"/>
	</g>
	<g>
		<path d="M27.4,157.9v1.3l-0.1,10l0.1,13.6H16.3l0.1-14.9l-0.1-9.1l0-0.9H27.4z"/>
		<path d="M48.2,159.2l-0.1,5.7l-0.1,5.4l0.1,12.6H36.9l0.1-14.6l-0.1-5l-0.1-4.2l-2.4,0.1l-3.5,0.1l-0.5,0c-0.6,0-0.9-0.2-0.9-0.7
			c0-0.4,0.2-0.6,0.5-0.7c0.1,0,0.4,0,0.9-0.1h22.4c0.8,0,1.2,0,1.4,0.1c0.2,0.1,0.4,0.3,0.4,0.6c0,0.4-0.3,0.6-0.9,0.6l-1.6-0.1
			l-4.2-0.1H48.2z"/>
		<path d="M56,178.6c0.2,0,0.5,0.2,0.8,0.5c0.9,1,2,1.8,3.4,2.4c1.3,0.6,2.6,0.9,3.9,0.9c1.4,0,2.1-0.4,2.1-1.3
			c0-0.5-0.2-1.2-0.7-1.9c-0.5-0.7-1.7-2-3.6-4.1c-2.4-2.6-4-4.5-4.8-5.7c-1-1.6-1.6-3.2-1.6-4.7c0-2.2,1-4.1,3-5.5
			c2-1.4,4.4-2.1,7.3-2.1c2,0,3.9,0.4,5.5,1.2c0.6,0.3,1.2,0.7,1.6,1.1c0.5,0.4,0.7,0.8,0.7,1c0,0.1-0.1,0.3-0.2,0.4
			s-0.3,0.2-0.4,0.2c-0.2,0-0.5-0.2-0.9-0.6c-0.7-0.6-1.5-1.1-2.6-1.5c-1.1-0.4-2.1-0.6-3.1-0.6c-0.6,0-1.1,0.1-1.5,0.4
			c-0.4,0.3-0.6,0.6-0.6,1c0,0.5,0.2,1.1,0.7,1.8c0.5,0.7,1.3,1.7,2.4,2.9c3.6,3.8,5.8,6.4,6.6,7.7c0.8,1.4,1.3,2.8,1.3,4.1
			c0,1.1-0.3,2.2-0.9,3.1c-0.6,1-1.4,1.8-2.5,2.4c-2,1.2-4.5,1.8-7.4,1.8c-2.7,0-5-0.7-7.1-2.1c-1.4-1-2.1-1.7-2.1-2.3
			c0-0.2,0.1-0.3,0.2-0.4C55.7,178.7,55.9,178.6,56,178.6z"/>
		<path d="M89.7,165.9c0,0.6,0,1.2,0,2v1.1l0.1,12.6l6.2-0.1l4.4,0c0.7,0,1.1,0.2,1.1,0.6c0,0.4-0.2,0.6-0.5,0.6c-0.1,0-0.6,0-1.5,0
			H78.6l0-1l0-6.1l0.1-6.5l-0.1-11.3H98c0.9,0,1.4,0,1.5,0.1c0.3,0.1,0.4,0.3,0.4,0.6c0,0.4-0.3,0.6-0.8,0.6h-0.1l-9.2-0.1l-0.1,5.7
			l2,0l6.4-0.1l1.4,0c0.5,0,0.9,0,1,0.1c0.2,0.1,0.2,0.3,0.2,0.5c0,0.5-0.4,0.7-1.2,0.7l-1.4,0L89.7,165.9z"/>
		<path d="M114.9,157.9l-0.1,3.8l-0.1,6.1l0,4.4l0.1,9.4l1.3,0l7.8-0.1l1.4,0c0.7,0,1.1,0.2,1.1,0.6c0,0.4-0.2,0.6-0.6,0.6
			c-0.1,0-0.4,0-0.8,0h-21.4l0.1-6.9l0-4.3l0-4.8l-0.1-7.3l0-1.6H114.9z"/>
		<path d="M139.8,165.9l0,4.4l0.1,11.7v0.8h-11.2l0.1-13.6l-0.1-11.4h19.4c0.9,0,1.4,0,1.5,0.1c0.3,0.1,0.4,0.3,0.4,0.6
			c0,0.4-0.3,0.6-0.8,0.6H149l-9.2-0.1l-0.1,5.7l2,0l6.4-0.1l1.4,0c0.5,0,0.9,0,1,0.1c0.2,0.1,0.2,0.3,0.2,0.5
			c0,0.5-0.4,0.7-1.2,0.7l-1.4,0L139.8,165.9z"/>
		<path d="M158.6,172.7h-1.2c-0.2-1.2-0.5-2.2-0.8-2.8s-1.2-2-2.6-4.2c-0.9-1.4-1.4-2.7-1.4-3.9c0-1.4,0.5-2.5,1.4-3.3
			c1.1-0.9,2.5-1.3,4.2-1.3c1.7,0,3.1,0.5,4.2,1.5c0.9,0.8,1.3,1.9,1.3,3.1c0,0.7-0.1,1.4-0.4,2c-0.2,0.6-0.7,1.4-1.3,2.3
			c-1.2,1.7-2,3-2.4,3.8S158.9,171.7,158.6,172.7z M158,175.3c1.6,0,3,0.4,4,1.2c1,0.8,1.6,1.8,1.6,2.9c0,1.2-0.5,2.2-1.5,2.9
			c-1,0.7-2.2,1.1-3.8,1.1c-1.6,0-3-0.4-4-1.1c-1-0.8-1.6-1.7-1.6-2.9c0-1.2,0.5-2.2,1.5-3C155.2,175.7,156.5,175.3,158,175.3z"/>
	</g>
	<g>
		<path d="M98.8,125.7c-0.6,1.5-1.5,2.8-2.5,4c0,0.1,0,0.3,0.1,0.4c0.2,0.7,0.2,1.3,0.1,2c-0.4,2.2-1.3,4.2-2.6,6
			c-0.2,0.3-0.5,0.5-0.7,0.8c-0.5,0.5-1,0.8-1.7,0.9c-0.7,0.1-1.3,0.2-2,0.2c-1.1-0.1-1.7-0.5-2-1.6c-0.1-0.3-0.1-0.7-0.1-1.1
			c0-0.2,0-0.4-0.1-0.6c-0.8,0.5-1.6,1-2.4,1.4c-0.8,0.5-1.7,0.7-2.7,0.9c0.1,0.1,0.1,0.2,0.2,0.2c1.2,0.7,1.6,1.9,1.8,3.1
			c0.2,1.6,0,3.2-0.6,4.7c-0.4,1-0.8,1.9-1.4,2.8c-1,1.5-2.4,1.9-4,1.8c-0.5,0-0.9-0.2-1.2-0.6c-0.3-0.3-0.6-0.7-0.8-1
			c-0.6-0.9-0.8-2-0.9-3.1c-0.2-2.4-0.1-4.9,0.5-7.3c0-0.1,0-0.3,0.1-0.4c0,0,0,0,0-0.1c-0.7,0.4-1.2,0.9-1.8,1.5
			c-0.1,0.1-0.2,0.3-0.4,0.4c-0.1,0.1-0.2,0.1-0.3,0.1c-0.2-0.3-0.1-0.7,0-0.9c0.2-0.3,0.3-0.5,0.5-0.7c0.5-0.6,1.2-1,1.8-1.4
			c0.4-0.2,0.6-0.5,0.7-0.9c0.4-1.2,0.9-2.4,1.4-3.5c0.6-1.3,1.4-2.5,2.4-3.5c0.4-0.4,0.7-0.7,1.2-1c1.3-0.9,2.8-1.3,4.3-1
			c0.2,0,0.5,0.1,0.7,0.2c0.6,0.3,0.9,0.7,1,1.3c0.1,0.4,0,0.9-0.1,1.3c-0.2,0.8-0.7,1.4-1.2,2c-0.9,1-2,1.8-3.2,2.5
			c-0.6,0.4-1.3,0.7-1.9,1c-0.3,0.2-0.5,0.4-0.6,0.7c-0.1,0.5-0.4,1-0.5,1.5c0.2,0,0.3,0,0.5,0c1.3-0.2,2.5-0.7,3.5-1.5
			c0.1-0.1,0.2-0.2,0.4-0.3c1.8-1.2,3.1-2.9,4.5-4.5c0.3-0.3,0.5-0.7,0.7-1c0.2-0.3,0.4-0.5,0.7-0.6c0-0.5,0.2-0.9,0.5-1.4
			c0.5-0.8,1.3-1.2,2.2-1.2c1,0,2,0,2.9,0.6c0.7-0.6,1.6-2,1.9-3.1c-0.1-0.1-0.3-0.1-0.4-0.2c-0.3-0.1-0.6-0.2-0.9-0.3
			c-0.7-0.3-1-0.9-0.9-1.6c0.1-0.6,0.6-1.1,1.2-1.3c0.7-0.2,1.3-0.1,2,0.2c0.4,0.2,0.6,0.5,0.6,0.8c0.1,0.3,0.1,0.6,0.2,1
			c0.3-0.1,0.7-0.2,1-0.4c1.5-0.7,3-0.5,4.4,0.1c0.8,0.3,1.1,0.9,1,1.8c-0.1,0.8-0.3,1.5-0.7,2.1c-0.7,1.6-1.5,3.3-2.1,4.9
			c-0.5,1.1-0.9,2.2-1.3,3.3c-0.2,0.4-0.3,0.8-0.3,1.3c0.2,0.1,0.3,0,0.4-0.1c0.7-0.5,1.3-1.1,1.8-1.7c1-1.1,1.9-2.2,2.9-3.3
			c0.6-0.7,1.2-1.4,1.9-2.1c0.2-0.2,0.3-0.4,0.6-0.4c0,0.2,0,0.4-0.1,0.5c-0.2,0.5-0.5,1-0.8,1.5c-1.1,1.7-2.4,3.4-3.9,4.8
			c-0.5,0.5-1,0.9-1.5,1.3c-0.9,0.6-1.9,0.7-3,0.6c-0.7-0.1-1.1-0.5-1.3-1.2c-0.2-0.6-0.2-1.3-0.1-1.9c0.1-0.6,0.2-1.2,0.3-1.8
			c0.4-1.7,1-3.3,1.7-4.8c0.4-1,0.8-2,1.2-3c0.1-0.3,0.2-0.5,0.3-0.9c-0.2,0-0.3,0-0.4,0C100.4,125.3,99.7,125.5,98.8,125.7z
			 M79.4,150.9c0.3-0.3,0.5-0.6,0.7-0.9c0.9-1.4,1.5-2.9,1.9-4.5c0.3-1.4,0.2-2.7-0.3-4c-0.3-0.7-0.7-1.3-1.4-1.7
			c-0.3-0.2-0.5-0.3-0.9-0.2c-0.1,0.1-0.1,0.3-0.2,0.5c-0.1,0.5-0.3,1-0.4,1.6c-0.4,1.9-0.7,3.8-0.7,5.8c0,0.7,0.1,1.3,0.3,2
			C78.6,150,78.9,150.5,79.4,150.9z M81,135.3c0.1,0,0.2,0,0.2-0.1c1.2-0.7,2.3-1.5,3.2-2.6c0.3-0.4,0.6-0.7,0.8-1.1
			c0.2-0.4,0.4-0.8,0.4-1.2c0-0.6-0.1-1.1-0.7-1.4c-0.2,0.1-0.4,0.3-0.6,0.4c-0.5,0.4-0.9,1-1.3,1.6c-0.8,1.3-1.4,2.8-2,4.2
			C81,135.1,81,135.2,81,135.3z M93.7,131.9c-0.7,0.2-1.4,0.3-2.1,0.5c-0.4,1-0.8,2-1,3.2c-0.1,0.7-0.2,1.5-0.1,2.2
			c0,0.2,0.1,0.3,0.2,0.5c0.1,0,0.2,0,0.2-0.1c0.2-0.2,0.3-0.4,0.4-0.5c0.9-1.2,1.5-2.6,2-4c0.1-0.4,0.3-0.8,0.4-1.3
			C93.7,132.3,93.7,132.1,93.7,131.9z M93.2,129.2c-0.7,0.4-1.1,0.9-1.4,1.6c0.1,0.2,0.2,0.3,0.3,0.5c0.1,0.2-0.2,0.3,0,0.5
			c0.7-0.3,1.3-0.7,1.7-1.2C93.7,130,93.6,129.6,93.2,129.2z M97.5,122.9c-0.5,0.2-0.6,0.6-0.7,1c-0.1,0.4,0.1,0.8,0.4,1
			c0.1,0.1,0.2,0.1,0.3,0.1c0.1,0,0.2-0.1,0.2-0.2c0.1-0.5,0.1-1,0-1.5C97.6,123.1,97.6,123,97.5,122.9z"/>
		<path d="M67.8,128.1c-0.5,1.4-0.8,2.9-1,4.5H16.2v-4.5H67.8z"/>
		<polygon points="67.7,142.7 16.2,142.7 16.2,138.2 66.8,138.2 		"/>
		<path d="M163.8,128.1v4.5h-49.8c-0.2-1.5-0.5-3-1-4.5H163.8z"/>
		<polygon points="163.8,138.2 163.8,142.7 113,142.7 113.9,138.2 		"/>
	</g>
	<g>
		<rect x="24.1" y="198.6" width="57.4" height="0.6"/>
		<rect x="98" y="198.6" width="57.4" height="0.6"/>
		<path d="M89.7,206l-7.3-7.3l7.3-7.3l7.3,7.3L89.7,206z M82.7,198.7l7,7l7-7l-7-7L82.7,198.7z"/>
		<path d="M89.7,204.9l-6.2-6.2l6.2-6.2l6.2,6.2L89.7,204.9z M83.8,198.7l5.8,5.8l5.8-5.8l-5.8-5.8L83.8,198.7z"/>
		<path d="M20.1,202.8l-3.9-3.9l3.9-3.9l3.9,3.9L20.1,202.8z M16.6,198.9l3.5,3.5l3.5-3.5l-3.5-3.5L16.6,198.9z"/>
		<path d="M20.1,202.2l-3.3-3.3l3.3-3.3l3.3,3.3L20.1,202.2z M17.2,198.9l2.9,2.9l2.9-2.9l-2.9-2.9L17.2,198.9z"/>
		<path d="M159.9,202.9L156,199l3.9-3.9l3.9,3.9L159.9,202.9z M156.3,199l3.5,3.5l3.5-3.5l-3.5-3.5L156.3,199z"/>
		<path d="M159.9,202.3l-3.3-3.3l3.3-3.3l3.3,3.3L159.9,202.3z M156.9,199l2.9,2.9l2.9-2.9l-2.9-2.9L156.9,199z"/>
	</g>
	<rect x="86.3" y="78" transform="matrix(0.7071 -0.7071 0.7071 0.7071 -31.1086 86.9287)" width="6.1" height="6.1"/>
	<polygon points="160.9,83.9 163.8,81.1 160.9,78.2 159.3,79.9 98.2,79.9 96.9,78.6 95.7,79.9 93.4,79.9 90.5,76.9 87.6,79.9 
		85.3,79.9 84,78.6 82.8,79.9 20.7,79.9 19.1,78.2 16.2,81.1 19.1,83.9 20.7,82.3 82.9,82.3 84,83.4 85.1,82.3 87.7,82.3 90.5,85.1 
		93.2,82.3 95.9,82.3 96.9,83.4 98,82.3 159.3,82.3 	"/>
</g>
</svg>
