<?xml version="1.0" encoding="utf-8"?>
<!-- Generator: Adobe Illustrator 25.2.1, SVG Export Plug-In . SVG Version: 6.00 Build 0)  -->
<svg version="1.1" id="Layer_1" xmlns="http://www.w3.org/2000/svg" xmlns:xlink="http://www.w3.org/1999/xlink" x="0px" y="0px"
	 viewBox="0 0 180 208.1" style="enable-background:new 0 0 180 208.1;" xml:space="preserve">
<style type="text/css">
	.st0{fill:#1B1B1B;}
	.st1{fill:#FFFFFF;}
	.st2{fill:#292929;}
	.st3{fill:none;stroke:#000000;stroke-width:0.25;}
	.st4{fill:none;stroke:#000000;stroke-width:0.5;stroke-miterlimit:10;}
	.st5{stroke:#000000;stroke-width:0.25;stroke-miterlimit:10;}
	.st6{fill:none;stroke:#000000;stroke-miterlimit:10;}
	.st7{stroke:#000000;stroke-miterlimit:10;}
	.st8{fill:none;stroke:#000000;stroke-width:0.25;stroke-miterlimit:10;}
</style>
<g>
	<path class="st4" d="M21.8,98h133c4.2,0,7.7,3.4,7.7,7.7v15.9c0,4.2-3.4,7.7-7.7,7.7h-133c-4.2,0-7.7-3.4-7.7-7.7v-15.9
		C14.1,101.4,17.5,98,21.8,98z"/>
	<path class="st4" d="M25,98h126.5c4.2,0,7.7,3.4,7.7,7.7v15.9c0,4.2-3.4,7.7-7.7,7.7H25c-4.2,0-7.7-3.4-7.7-7.7v-15.9
		C17.4,101.4,20.8,98,25,98z"/>
	<g>
		<path class="st5" d="M5.1,47.4H4.9c-0.7,0-1.4-0.1-2-0.4c-0.7-0.3-1.2-0.6-1.7-1.1c-0.5-0.5-0.9-1.1-1.1-1.7l1.8-0.7
			c0.1,1.2,0.5,2.1,1.2,2.8c0.3,0.3,0.7,0.5,1,0.7c0.4,0.2,0.7,0.2,1,0.2c0.5,0,0.9-0.1,1.3-0.3c0.4-0.2,0.7-0.5,1-0.8
			c0.2-0.3,0.4-0.7,0.4-1.1c0-0.8-0.4-1.5-1.2-2.1c-0.5-0.4-1.4-0.8-2.6-1.4c-1-0.4-1.8-0.8-2.5-1.3c-0.5-0.3-0.8-0.7-1-1.1
			S0,38,0,37.5c0-0.7,0.2-1.4,0.6-2c0.3-0.4,0.7-0.8,1.2-1.1c0.8-0.5,1.7-0.8,2.7-0.8c0.8,0,1.6,0.2,2.3,0.5
			c1.1,0.6,1.9,1.5,2.3,2.7l-1.7,0.6c0-0.9-0.3-1.7-0.8-2.4c-0.3-0.4-0.6-0.7-1.1-0.9c-0.4-0.2-0.8-0.3-1.3-0.3
			c-0.4,0-0.8,0.1-1.1,0.2c-0.8,0.3-1.3,0.8-1.6,1.5c-0.1,0.2-0.1,0.5-0.1,0.7c0,0.4,0.2,0.8,0.6,1.1c0.4,0.4,1.1,0.8,2.2,1.3
			c1.5,0.7,2.5,1.2,2.9,1.4c1,0.6,1.8,1.3,2.1,2c0.2,0.4,0.3,0.9,0.3,1.4c0,0.9-0.3,1.6-0.8,2.2c-0.4,0.5-0.9,0.9-1.6,1.2
			C6.5,47.2,5.8,47.4,5.1,47.4z"/>
		<path class="st5" d="M16.5,44.4v-6.9h2.1v9.8h-2.1v-2.2c-0.2,0.6-0.5,1.1-1,1.5c-0.5,0.4-1,0.7-1.7,0.7c-1,0-1.7-0.4-2.3-1
			c-0.5-0.6-0.8-1.4-0.8-2.3v-6.5H13v6.5c0,0.9,0.1,1.5,0.4,2c0.3,0.5,0.6,0.7,1.1,0.7c0.5,0,0.9-0.2,1.3-0.7
			C16.1,45.6,16.3,45.1,16.5,44.4z"/>
		<path class="st5" d="M25.7,47.4c-0.8,0-1.6-0.2-2.3-0.6c-0.7-0.4-1.4-1-1.9-1.7c-0.5-0.8-0.7-1.6-0.7-2.7c0-1.4,0.4-2.6,1.3-3.6
			c0.9-1,2-1.5,3.2-1.5c0.8,0,1.5,0.2,2.2,0.6s1.2,0.9,1.6,1.6l-1.7,0.8c-0.2-0.8-0.5-1.4-0.8-1.9s-0.8-0.7-1.2-0.7
			c-0.6,0-1.2,0.5-1.6,1.4c-0.5,0.9-0.7,2-0.7,3.4c0,0.6,0.1,1.3,0.3,2c0.2,0.7,0.6,1.3,1,1.7c0.5,0.5,1.1,0.7,1.9,0.7
			c0.6,0,1.1-0.2,1.6-0.6c0.5-0.4,0.9-0.9,1.2-1.5h0.4c-0.4,0.9-0.9,1.6-1.5,2C27.2,47.2,26.5,47.4,25.7,47.4z"/>
		<path class="st5" d="M35,47.4c-0.8,0-1.6-0.2-2.3-0.6c-0.7-0.4-1.4-1-1.9-1.7c-0.5-0.8-0.7-1.6-0.7-2.7c0-1.4,0.4-2.6,1.3-3.6
			c0.9-1,2-1.5,3.2-1.5c0.8,0,1.5,0.2,2.2,0.6s1.2,0.9,1.6,1.6l-1.7,0.8c-0.2-0.8-0.5-1.4-0.8-1.9c-0.4-0.5-0.8-0.7-1.2-0.7
			c-0.6,0-1.2,0.5-1.6,1.4c-0.5,0.9-0.7,2-0.7,3.4c0,0.6,0.1,1.3,0.3,2c0.2,0.7,0.6,1.3,1,1.7c0.5,0.5,1.1,0.7,1.9,0.7
			c0.6,0,1.1-0.2,1.6-0.6c0.5-0.4,0.9-0.9,1.2-1.5h0.4c-0.4,0.9-0.9,1.6-1.5,2C36.5,47.2,35.8,47.4,35,47.4z"/>
		<path class="st5" d="M41.7,42v0.4c0,0.6,0.1,1.3,0.3,2c0.2,0.7,0.6,1.3,1,1.7c0.5,0.5,1.1,0.7,1.9,0.7c0.6,0,1.1-0.2,1.6-0.6
			c0.5-0.4,0.9-0.9,1.2-1.5H48c-0.4,0.9-0.9,1.6-1.5,2c-0.6,0.4-1.3,0.7-2.1,0.7h-0.1c-0.8,0-1.6-0.2-2.3-0.6
			c-0.7-0.4-1.4-1-1.9-1.7c-0.5-0.8-0.7-1.6-0.7-2.7c0-0.8,0.2-1.6,0.5-2.4c0.4-0.8,0.9-1.4,1.6-1.9c0.7-0.5,1.5-0.7,2.6-0.7
			c0.5,0,1.1,0.1,1.7,0.4c0.6,0.3,1.1,0.7,1.5,1.4c0.4,0.7,0.6,1.6,0.7,2.9L41.7,42z M45.9,41.7v-0.2c0-1.1-0.2-2-0.5-2.7
			c-0.4-0.8-0.9-1.1-1.5-1.1c-0.4,0-0.7,0.2-1.1,0.5c-0.3,0.3-0.6,0.8-0.9,1.5c-0.2,0.5-0.3,1.2-0.3,2H45.9z"/>
		<path class="st5" d="M53.2,47.5c-1.3,0-2.3-0.4-3-1.1c-0.4-0.4-0.6-0.8-0.8-1.2l1.7-0.6c0,0.6,0.1,1.1,0.4,1.5
			c0.2,0.4,0.4,0.7,0.7,0.9c0.3,0.2,0.6,0.3,1,0.3c0.7,0,1.3-0.3,1.8-0.8c0.2-0.2,0.3-0.5,0.3-0.7c0-0.5-0.3-0.9-0.9-1.3
			c-0.4-0.2-0.8-0.4-1.2-0.6c-0.8-0.3-1.4-0.5-1.8-0.7c-0.4-0.2-0.7-0.4-1-0.6c-0.3-0.3-0.6-0.6-0.7-0.8c-0.2-0.3-0.3-0.7-0.3-1.2
			c0-0.7,0.2-1.3,0.6-1.8c0.3-0.3,0.7-0.6,1.2-0.8c0.5-0.2,1.1-0.3,1.6-0.3c0.3,0,0.5,0,0.8,0.1c0.9,0.1,1.6,0.5,2.1,1
			c0.4,0.4,0.7,0.8,0.8,1.3l-1.7,0.7c0-0.6-0.2-1.2-0.4-1.6c-0.4-0.7-1-1.1-1.8-1.1c-0.5,0-0.9,0.2-1.4,0.5c-0.4,0.3-0.7,0.7-0.7,1
			c0,0.2,0.1,0.4,0.3,0.7c0.4,0.4,1,0.8,1.9,1.1s1.4,0.6,1.6,0.7c0.8,0.4,1.4,0.9,1.8,1.6c0.2,0.4,0.3,0.7,0.3,1.2
			c0,0.2,0,0.4-0.1,0.6c-0.2,0.9-0.7,1.5-1.7,2C54.3,47.4,53.8,47.5,53.2,47.5z"/>
		<path class="st5" d="M61.8,47.5c-1.3,0-2.3-0.4-3-1.1c-0.4-0.4-0.6-0.8-0.8-1.2l1.7-0.6c0,0.6,0.1,1.1,0.4,1.5
			c0.2,0.4,0.4,0.7,0.7,0.9c0.3,0.2,0.6,0.3,1,0.3c0.7,0,1.3-0.3,1.8-0.8c0.2-0.2,0.3-0.5,0.3-0.7c0-0.5-0.3-0.9-0.9-1.3
			c-0.4-0.2-0.8-0.4-1.2-0.6C61,43.4,60.4,43.2,60,43c-0.4-0.2-0.7-0.4-1-0.6c-0.3-0.3-0.6-0.6-0.7-0.8c-0.2-0.3-0.3-0.7-0.3-1.2
			c0-0.7,0.2-1.3,0.6-1.8c0.3-0.3,0.7-0.6,1.2-0.8c0.5-0.2,1.1-0.3,1.6-0.3c0.3,0,0.5,0,0.8,0.1c0.9,0.1,1.6,0.5,2.1,1
			c0.4,0.4,0.7,0.8,0.8,1.3l-1.7,0.7c0-0.6-0.2-1.2-0.4-1.6c-0.4-0.7-1-1.1-1.8-1.1c-0.5,0-0.9,0.2-1.4,0.5c-0.4,0.3-0.7,0.7-0.7,1
			c0,0.2,0.1,0.4,0.3,0.7c0.4,0.4,1,0.8,1.9,1.1c0.9,0.4,1.4,0.6,1.6,0.7c0.8,0.4,1.4,0.9,1.8,1.6c0.2,0.4,0.3,0.7,0.3,1.2
			c0,0.2,0,0.4-0.1,0.6c-0.2,0.9-0.7,1.5-1.7,2C62.9,47.4,62.4,47.5,61.8,47.5z"/>
		<path class="st5" d="M77.5,47.4h-2.1V33.9h-4v-0.3h10.1v0.3h-4V47.4z"/>
		<path class="st5" d="M83.1,47.5c-1,0-1.8-0.3-2.6-1c-0.7-0.6-1.1-1.4-1.1-2.4c0.1-1,0.4-1.8,1.2-2.3c0.7-0.6,1.6-0.8,2.5-0.8
			c0.9,0,1.6,0.3,2.1,0.9c0-0.7-0.1-1.4-0.2-2c-0.1-0.6-0.3-1.1-0.6-1.5c-0.3-0.4-0.7-0.6-1.2-0.6c-0.5,0-0.9,0.2-1.2,0.7
			s-0.6,1.1-0.8,1.9l-1.7-0.7c0.4-0.7,1-1.2,1.6-1.6s1.4-0.6,2.2-0.6c1,0,2,0.3,2.8,0.9c0.8,0.6,1.3,1.4,1.3,2.6v6.5h-2.1v-0.8
			C84.6,47.2,83.9,47.5,83.1,47.5z M83.4,47.2c0.7,0,1.2-0.4,1.7-1.1v-3.6c-0.5-0.8-1-1.2-1.7-1.2c-0.1,0-0.2,0-0.3,0
			c-0.7,0.2-1.1,0.5-1.4,1.1c-0.3,0.6-0.4,1.2-0.4,1.8c0,0.8,0.2,1.5,0.5,2C82.3,46.9,82.8,47.2,83.4,47.2z"/>
		<path class="st5" d="M93.1,47.5c-1.3,0-2.3-0.4-3-1.1c-0.4-0.4-0.6-0.8-0.8-1.2l1.7-0.6c0,0.6,0.1,1.1,0.4,1.5
			c0.2,0.4,0.4,0.7,0.7,0.9c0.3,0.2,0.6,0.3,1,0.3c0.7,0,1.3-0.3,1.8-0.8c0.2-0.2,0.3-0.5,0.3-0.7c0-0.5-0.3-0.9-0.9-1.3
			c-0.4-0.2-0.8-0.4-1.2-0.6c-0.8-0.3-1.4-0.5-1.8-0.7c-0.4-0.2-0.7-0.4-1-0.6c-0.3-0.3-0.6-0.6-0.7-0.8c-0.2-0.3-0.3-0.7-0.3-1.2
			c0-0.7,0.2-1.3,0.6-1.8c0.3-0.3,0.7-0.6,1.2-0.8c0.5-0.2,1.1-0.3,1.6-0.3c0.3,0,0.5,0,0.8,0.1c0.9,0.1,1.6,0.5,2.1,1
			c0.4,0.4,0.7,0.8,0.8,1.3l-1.7,0.7c0-0.6-0.2-1.2-0.4-1.6c-0.4-0.7-1-1.1-1.8-1.1c-0.5,0-0.9,0.2-1.4,0.5c-0.4,0.3-0.7,0.7-0.7,1
			c0,0.2,0.1,0.4,0.3,0.7c0.4,0.4,1,0.8,1.9,1.1c0.9,0.4,1.4,0.6,1.6,0.7c0.8,0.4,1.4,0.9,1.8,1.6c0.2,0.4,0.3,0.7,0.3,1.2
			c0,0.2,0,0.4-0.1,0.6c-0.2,0.9-0.7,1.5-1.7,2C94.2,47.4,93.6,47.5,93.1,47.5z"/>
		<path class="st5" d="M101.1,38.9c0,2.2,0,4,0.1,5.2c0,1,0.2,1.8,0.5,2.2c0.3,0.5,0.7,0.7,1.1,0.7c0.4,0,0.8-0.2,1.2-0.6
			c0.4-0.4,0.6-0.9,0.8-1.7h0.3c-0.1,0.8-0.4,1.4-0.8,1.9c-0.4,0.5-1,0.7-1.8,0.8c-1,0-1.8-0.3-2.4-0.9c-0.6-0.6-0.9-1.4-1-2.4
			l0-5.2h-1.6v-0.3H99l0-2.2l2.2-0.9l0,3.1h2.9v0.3H101.1z"/>
		<path class="st5" d="M107.7,42v0.4c0,0.6,0.1,1.3,0.3,2c0.2,0.7,0.6,1.3,1,1.7c0.5,0.5,1.1,0.7,1.9,0.7c0.6,0,1.1-0.2,1.6-0.6
			c0.5-0.4,0.9-0.9,1.2-1.5h0.4c-0.4,0.9-0.9,1.6-1.5,2c-0.6,0.4-1.3,0.7-2.1,0.7h-0.1c-0.8,0-1.6-0.2-2.3-0.6
			c-0.7-0.4-1.4-1-1.9-1.7c-0.5-0.8-0.7-1.6-0.7-2.7c0-0.8,0.2-1.6,0.5-2.4c0.4-0.8,0.9-1.4,1.6-1.9c0.7-0.5,1.5-0.7,2.6-0.7
			c0.5,0,1.1,0.1,1.7,0.4c0.6,0.3,1.1,0.7,1.5,1.4c0.4,0.7,0.6,1.6,0.7,2.9L107.7,42z M112,41.7v-0.2c0-1.1-0.2-2-0.5-2.7
			c-0.4-0.8-0.9-1.1-1.5-1.1c-0.4,0-0.7,0.2-1.1,0.5c-0.3,0.3-0.6,0.8-0.9,1.5c-0.2,0.5-0.3,1.2-0.3,2H112z"/>
		<path class="st5" d="M119.3,47.5c-1.3,0-2.3-0.4-3-1.1c-0.4-0.4-0.6-0.8-0.8-1.2l1.7-0.6c0,0.6,0.1,1.1,0.4,1.5
			c0.2,0.4,0.4,0.7,0.7,0.9c0.3,0.2,0.6,0.3,1,0.3c0.7,0,1.3-0.3,1.8-0.8c0.2-0.2,0.3-0.5,0.3-0.7c0-0.5-0.3-0.9-0.9-1.3
			c-0.4-0.2-0.8-0.4-1.2-0.6c-0.8-0.3-1.4-0.5-1.8-0.7c-0.4-0.2-0.7-0.4-1-0.6c-0.3-0.3-0.6-0.6-0.7-0.8c-0.2-0.3-0.3-0.7-0.3-1.2
			c0-0.7,0.2-1.3,0.6-1.8c0.3-0.3,0.7-0.6,1.2-0.8c0.5-0.2,1.1-0.3,1.6-0.3c0.3,0,0.5,0,0.8,0.1c0.9,0.1,1.6,0.5,2.1,1
			c0.4,0.4,0.7,0.8,0.8,1.3l-1.7,0.7c0-0.6-0.2-1.2-0.4-1.6c-0.4-0.7-1-1.1-1.8-1.1c-0.5,0-0.9,0.2-1.4,0.5c-0.4,0.3-0.7,0.7-0.7,1
			c0,0.2,0.1,0.4,0.3,0.7c0.4,0.4,1,0.8,1.9,1.1c0.9,0.4,1.4,0.6,1.6,0.7c0.8,0.4,1.4,0.9,1.8,1.6c0.2,0.4,0.3,0.7,0.3,1.2
			c0,0.2,0,0.4-0.1,0.6c-0.2,0.9-0.7,1.5-1.7,2C120.3,47.4,119.8,47.5,119.3,47.5z"/>
		<path class="st5" d="M134.5,47.4h-0.2c-0.7,0-1.4-0.1-2-0.4c-0.7-0.3-1.2-0.6-1.7-1.1c-0.5-0.5-0.9-1.1-1.1-1.7l1.8-0.7
			c0.1,1.2,0.5,2.1,1.2,2.8c0.3,0.3,0.7,0.5,1,0.7c0.4,0.2,0.7,0.2,1,0.2c0.5,0,0.9-0.1,1.3-0.3c0.4-0.2,0.7-0.5,1-0.8
			c0.2-0.3,0.4-0.7,0.4-1.1c0-0.8-0.4-1.5-1.2-2.1c-0.5-0.4-1.4-0.8-2.6-1.4c-1-0.4-1.8-0.8-2.5-1.3c-0.5-0.3-0.8-0.7-1-1.1
			s-0.3-0.9-0.3-1.3c0-0.7,0.2-1.4,0.6-2c0.3-0.4,0.7-0.8,1.2-1.1c0.8-0.5,1.7-0.8,2.7-0.8c0.8,0,1.6,0.2,2.3,0.5
			c1.1,0.6,1.9,1.5,2.3,2.7l-1.7,0.6c0-0.9-0.3-1.7-0.8-2.4c-0.3-0.4-0.6-0.7-1.1-0.9c-0.4-0.2-0.8-0.3-1.3-0.3
			c-0.4,0-0.8,0.1-1.1,0.2c-0.8,0.3-1.3,0.8-1.6,1.5c-0.1,0.2-0.1,0.5-0.1,0.7c0,0.4,0.2,0.8,0.6,1.1c0.4,0.4,1.1,0.8,2.2,1.3
			c1.5,0.7,2.5,1.2,2.9,1.4c1,0.6,1.8,1.3,2.1,2c0.2,0.4,0.3,0.9,0.3,1.4c0,0.9-0.3,1.6-0.8,2.2c-0.4,0.5-0.9,0.9-1.6,1.2
			C135.9,47.2,135.2,47.4,134.5,47.4z"/>
		<path class="st5" d="M143.9,47.4h-2.3l-2.9-9.8h2.1l2.8,9.6l1.8-6.7l-0.8-2.8h2.1l2.8,9.5l2.6-9.5h0.3l-2.7,9.8h-2.3l-1.9-6.5
			L143.9,47.4z"/>
		<path class="st5" d="M155.5,42v0.4c0,0.6,0.1,1.3,0.3,2c0.2,0.7,0.6,1.3,1,1.7c0.5,0.5,1.1,0.7,1.9,0.7c0.6,0,1.1-0.2,1.6-0.6
			c0.5-0.4,0.9-0.9,1.2-1.5h0.4c-0.4,0.9-0.9,1.6-1.5,2c-0.6,0.4-1.3,0.7-2.1,0.7h-0.1c-0.8,0-1.6-0.2-2.3-0.6
			c-0.7-0.4-1.4-1-1.9-1.7c-0.5-0.8-0.7-1.6-0.7-2.7c0-0.8,0.2-1.6,0.5-2.4c0.4-0.8,0.9-1.4,1.6-1.9c0.7-0.5,1.5-0.7,2.6-0.7
			c0.5,0,1.1,0.1,1.7,0.4c0.6,0.3,1.1,0.7,1.5,1.4c0.4,0.7,0.6,1.6,0.7,2.9L155.5,42z M159.7,41.7v-0.2c0-1.1-0.2-2-0.5-2.7
			c-0.4-0.8-0.9-1.1-1.5-1.1c-0.4,0-0.7,0.2-1.1,0.5c-0.3,0.3-0.6,0.8-0.9,1.5c-0.2,0.5-0.3,1.2-0.3,2H159.7z"/>
		<path class="st5" d="M165.2,42v0.4c0,0.6,0.1,1.3,0.3,2c0.2,0.7,0.6,1.3,1,1.7c0.5,0.5,1.1,0.7,1.9,0.7c0.6,0,1.1-0.2,1.6-0.6
			c0.5-0.4,0.9-0.9,1.2-1.5h0.4c-0.4,0.9-0.9,1.6-1.5,2c-0.6,0.4-1.3,0.7-2.1,0.7h-0.1c-0.8,0-1.6-0.2-2.3-0.6
			c-0.7-0.4-1.4-1-1.9-1.7c-0.5-0.8-0.7-1.6-0.7-2.7c0-0.8,0.2-1.6,0.5-2.4c0.4-0.8,0.9-1.4,1.6-1.9c0.7-0.5,1.5-0.7,2.6-0.7
			c0.5,0,1.1,0.1,1.7,0.4c0.6,0.3,1.1,0.7,1.5,1.4c0.4,0.7,0.6,1.6,0.7,2.9L165.2,42z M169.4,41.7v-0.2c0-1.1-0.2-2-0.5-2.7
			c-0.4-0.8-0.9-1.1-1.5-1.1c-0.4,0-0.7,0.2-1.1,0.5c-0.3,0.3-0.6,0.8-0.9,1.5c-0.2,0.5-0.3,1.2-0.3,2H169.4z"/>
		<path class="st5" d="M176.1,38.9c0,2.2,0,4,0.1,5.2c0,1,0.2,1.8,0.5,2.2c0.3,0.5,0.7,0.7,1.1,0.7c0.4,0,0.8-0.2,1.2-0.6
			c0.4-0.4,0.6-0.9,0.8-1.7h0.3c-0.1,0.8-0.4,1.4-0.8,1.9c-0.4,0.5-1,0.7-1.8,0.8c-1,0-1.8-0.3-2.4-0.9c-0.6-0.6-0.9-1.4-1-2.4
			l0-5.2h-1.6v-0.3h1.6l0-2.2l2.2-0.9l0,3.1h2.9v0.3H176.1z"/>
	</g>
	<g>
		<path d="M106.5,1h-1.1c-0.3,0-0.5,0.2-0.5,0.5v0.6c0,0.3,0.2,0.5,0.5,0.5h-0.1L105,3.1h-2.9c0-0.3-0.3-0.5-0.6-0.5h-0.4
			c-0.3,0-0.6,0.3-0.6,0.6v2.1c0,0.3,0.3,0.6,0.6,0.6h0.4c0.3,0,0.5-0.2,0.6-0.5h1.7l-3.2,5.8h0l-2.8-2.3c0.5-0.2,0.8-0.6,0.8-1.1
			c0-0.7-0.5-1.2-1.2-1.2c-0.7,0-1.2,0.5-1.2,1.2c0,0.5,0.3,0.9,0.7,1.1L93.2,11l-1.9-2L91,5.3h1.3v0c0,0.3,0.3,0.6,0.6,0.6h0.4
			c0.3,0,0.6-0.3,0.6-0.6V3.2c0-0.3-0.3-0.6-0.6-0.6H93c-0.3,0-0.6,0.3-0.6,0.6v0h-1.5l-0.1-1.5h0.2c0.3,0,0.6-0.3,0.6-0.6V0.6
			c0-0.3-0.3-0.6-0.6-0.6h-2c-0.3,0-0.6,0.3-0.6,0.6v0.5c0,0.3,0.3,0.6,0.6,0.6h0.2L89,3.1h-1.5v0c0-0.3-0.3-0.6-0.6-0.6h-0.4
			c-0.3,0-0.6,0.3-0.6,0.6v2.1c0,0.3,0.3,0.6,0.6,0.6h0.4c0.3,0,0.6-0.3,0.6-0.6v0h1.3L88.6,9L86.7,11l-3.6-2.4
			c0.4-0.2,0.7-0.6,0.7-1.1c0-0.7-0.5-1.2-1.2-1.2c-0.7,0-1.2,0.5-1.2,1.2c0,0.5,0.3,1,0.8,1.1L79.3,11h0l-3.2-5.8h1.7
			c0,0.3,0.3,0.5,0.6,0.5h0.4c0.3,0,0.6-0.3,0.6-0.6V3.2c0-0.3-0.3-0.6-0.6-0.6h-0.4c-0.3,0-0.5,0.2-0.6,0.5h-2.9l-0.3-0.5h-0.1
			c0.3,0,0.5-0.2,0.5-0.5V1.5c0-0.3-0.2-0.5-0.5-0.5h-1.1c-0.3,0-0.5,0.2-0.5,0.5v0.6c0,0.3,0.2,0.5,0.5,0.5h0.1l4,12.7h24.9l4-12.7
			h0.1c0.3,0,0.5-0.2,0.5-0.5V1.5C107,1.2,106.8,1,106.5,1z"/>
	</g>
	<rect x="69.9" y="20.3" width="40.1" height="1"/>
	<rect x="50.9" y="25.5" width="78.1" height="1"/>
	<rect x="69.9" y="189.5" width="40.1" height="1"/>
	<rect x="50.9" y="184.4" width="78.1" height="1"/>
	<polygon points="92,198.8 89.9,194.3 87.8,198.8 83.2,199.5 86.5,203.1 85.7,208.1 89.9,205.7 94.1,208.1 93.3,203.1 96.7,199.5 	
		"/>
	<g>
		<path class="st1" d="M146.6,135.2c1.8,0,0.3-0.6-0.6-0.6C144.2,134.5,145.7,135.2,146.6,135.2L146.6,135.2z"/>
	</g>
	<g>
		<path class="st1" d="M144.7,185c0.2,0-0.8-2-1.4-2C143.2,183,144.1,185,144.7,185L144.7,185z"/>
	</g>
	<g>
		<circle class="st6" cx="113.6" cy="74.1" r="15.4"/>
		<circle cx="113.6" cy="73.2" r="13.5"/>
		<circle class="st1" cx="113.6" cy="73.2" r="5.5"/>
		<g>
			<path class="st1" d="M112.4,63.8c1.1,0,1.1-1.1,0-1.1C111.4,62.7,111.4,63.8,112.4,63.8L112.4,63.8z"/>
		</g>
		<g>
			<path class="st1" d="M120.8,65.1c1.2,0,0.2-0.4-0.4-0.4C119.1,64.7,120.2,65.1,120.8,65.1L120.8,65.1z"/>
		</g>
		<g>
			<path class="st1" d="M123.2,70.8c1.2,0,0.2-1.1-0.5-1.1C121.5,69.7,122.5,70.8,123.2,70.8L123.2,70.8z"/>
		</g>
		<g>
			<path class="st1" d="M123.2,77.4c0.7,0,0.1-1.6-0.6-1.6C122,75.8,122.6,77.4,123.2,77.4L123.2,77.4z"/>
		</g>
		<g>
			<path class="st1" d="M120.1,83.1c0.1,0-0.6-1.4-1-1.4C119.1,81.7,119.7,83.1,120.1,83.1L120.1,83.1z"/>
		</g>
		<g>
			<path class="st1" d="M106.9,67.4c0.9,0-0.4-1-0.9-1C105,66.4,106.4,67.4,106.9,67.4L106.9,67.4z"/>
		</g>
		<g>
			<path class="st1" d="M106.3,70.7c0.6,0-0.6-1.2-1-1.2C104.7,69.5,105.9,70.7,106.3,70.7L106.3,70.7z"/>
		</g>
		<g>
			<path class="st1" d="M103.4,74.7c0.6,0-0.6-1.2-1-1.2C101.7,73.5,102.9,74.7,103.4,74.7L103.4,74.7z"/>
		</g>
		<g>
			<path class="st1" d="M108,81.5c1.1,0,1.1-1.1,0-1.1C106.9,80.4,106.9,81.5,108,81.5L108,81.5z"/>
		</g>
		<g>
			<path class="st1" d="M115,81.7c0.9,0-0.4-1-0.9-1C113.2,80.7,114.5,81.7,115,81.7L115,81.7z"/>
		</g>
		<g>
			<path class="st1" d="M113.9,84.8c0.9,0-0.4-1-0.9-1C112,83.8,113.4,84.8,113.9,84.8L113.9,84.8z"/>
		</g>
		<g>
			<path class="st1" d="M120.4,78.8c0.9,0-0.4-1-0.9-1C118.5,77.8,119.9,78.8,120.4,78.8L120.4,78.8z"/>
		</g>
		<g>
			<path class="st1" d="M121.2,71.8c0.9,0-0.4-1-0.9-1C119.3,70.8,120.7,71.8,121.2,71.8L121.2,71.8z"/>
		</g>
		<g>
			<path class="st1" d="M110.1,63.3c0.9,0-0.4-1-0.9-1C108.3,62.3,109.6,63.3,110.1,63.3L110.1,63.3z"/>
		</g>
		<g>
			<path class="st1" d="M116.7,65.1c0.9,0-0.4-1-0.9-1C114.9,64,116.2,65.1,116.7,65.1L116.7,65.1z"/>
		</g>
		<g>
			<path class="st1" d="M108.5,77c0.6,0-0.6-1.2-1-1.2C106.9,75.8,108.1,77,108.5,77L108.5,77z"/>
		</g>
		<g>
			<path class="st1" d="M105.6,81c0.6,0-0.6-1.2-1-1.2C103.9,79.8,105.1,81,105.6,81L105.6,81z"/>
		</g>
	</g>
	<g>
		<path class="st7" d="M56.3,73.6c1.5,0.4,2.2,1.3,2.2,2.4l-0.3,5.4c-0.1,2.1-1.2,3.2-3.3,3.2h-5.6l1.1-21.4h4.8
			c2.5,0,3.7,1.3,3.5,3.9l-0.2,4.1c-0.1,1.2-0.8,2-2.1,2.3V73.6z M52.1,82h2.1c0.7,0,1.1-0.3,1.2-0.9l0.2-4.7c0.1-1-0.5-1.5-1.6-1.5
			h-1.5L52.1,82z M52.6,72.2h1.3c1.1,0,1.6-0.5,1.7-1.5l0.2-3.3c0.1-1-0.3-1.5-1.2-1.5H53L52.6,72.2z"/>
		<path class="st7" d="M73.5,63.2l-0.9,17.3c-0.1,2.7-1.3,4.1-3.6,4.1h-2.4c-2.2,0-3.3-1.4-3.2-4.1l0.9-17.3h2.8l-0.9,17.4
			c-0.1,0.9,0.3,1.4,1.1,1.4h1.2c0.8,0,1.2-0.5,1.2-1.4l0.9-17.4H73.5z"/>
		<path class="st7" d="M83.5,65.8l-1,18.8h-2.8l1-18.8H78l0.1-2.6h8.2l-0.1,2.6H83.5z"/>
	</g>
	<g>
		<path class="st8" d="M29.5,114.5c0-2,0-3.5,0-5.1c0-0.1,0-0.1,0-0.2c0-0.2,0-0.3,0.3-0.3c0.4,0,0.9,0,1.3,0c0.1,0,0.2,0.1,0.2,0.1
			c0,0.1,0,0.2,0,0.3c0,1.8,0,3.6,0,5.5c0,0.9,0,1.9,0,2.8c0,0.2,0,0.5,0,0.7c0,0.1,0.1,0.1,0.2,0.1c0,0,0.1,0,0.1,0
			c0.1,0,0.2,0,0.3,0c0.7,0,1.4,0,2.1,0c0.2,0,0.3,0,0.5,0c0,0,0.1,0.1,0.1,0.1c0,0,0,0.1,0,0.1c0,0.3,0,0.6,0,0.9c0,0,0,0.1,0,0.1
			c0,0-0.1,0.1-0.1,0.1c-0.1,0-0.2,0-0.3,0c-0.5,0-1,0-1.5,0c-0.2,0-0.4,0-0.7,0c-0.4,0-0.9,0-1.3,0c-0.2,0-0.4,0-0.6-0.1
			c-0.1,0-0.3-0.1-0.4-0.1c-0.1-0.1-0.2-0.2-0.2-0.3c0-0.3-0.1-0.5-0.1-0.8C29.6,117.1,29.5,115.5,29.5,114.5z"/>
		<path class="st8" d="M36,114c0-0.5,0-1.1,0-1.6c0-1,0.1-2,0.1-3c0-0.1,0-0.1,0-0.2c0-0.1,0.1-0.1,0.2-0.1c0.1,0,0.1,0,0.2,0
			c1.4,0,2.8,0,4.2,0c0.1,0,0.2,0,0.3,0c0.1,0,0.1,0,0.1,0.1c0,0,0,0,0,0.1c0,0.3,0,0.6,0,1c0,0.1-0.1,0.2-0.2,0.2
			c-0.1,0-0.2,0-0.4,0c-0.7,0-1.4,0-2.2,0c-0.1,0-0.2,0-0.3,0c0,0,0,0-0.1,0c0,0,0,0,0,0c0,0,0,0.1,0,0.1c0,1.1-0.1,2.2-0.1,3.3
			c0,0,0,0.1,0,0.1c0,0.1,0.1,0.1,0.2,0.1c0.7,0,1.4,0,2.1,0c0.7,0,0.6,0,0.6,0.4c0,0.2,0,0.5,0,0.7c0,0-0.1,0.1-0.1,0.1
			c-0.1,0-0.2,0-0.4,0c-0.7,0-1.3,0-2,0c-0.1,0-0.2,0-0.3,0c-0.1,0-0.1,0-0.1,0.1c0,0.1,0,0.1,0,0.2c0,0.8,0,1.7-0.1,2.5
			c0,0,0,0.1,0,0.1c0,0,0.1,0.1,0.1,0.1c0.1,0,0.2,0,0.3,0c0.7,0,1.5,0,2.2,0c0.1,0,0.3,0,0.4,0c0.1,0,0.1,0,0.1,0.1
			c0,0,0,0.1,0,0.1c0,0.3,0,0.6,0,0.9c0,0,0,0,0,0.1c0,0-0.1,0.1-0.1,0.1c-0.3,0-0.5,0-0.8,0c-0.8,0-1.6,0-2.4,0
			c-0.3,0-0.6,0-0.9-0.1c-0.5-0.1-0.6-0.1-0.7-0.5c-0.1-0.2-0.1-0.5-0.1-0.7c0-0.8,0-1.5,0.1-2.3c0-0.4,0-0.7,0-1.1
			C36,114.8,36,114.4,36,114C36,114,36,114,36,114z"/>
		<path class="st8" d="M45.6,114.9c0,1.4,0,2.8,0,4.2c0,0.1,0,0.2,0,0.3c0,0.1-0.1,0.1-0.2,0.1c-0.5,0-1,0-1.5,0
			c-0.1,0-0.1,0-0.1-0.1c0-0.1,0-0.2,0-0.3c0-0.5,0-1.1,0-1.6c0-2.3,0-4.6-0.1-6.9c0-0.1,0-0.2,0-0.4c0,0-0.1-0.1-0.1-0.1
			c-0.1,0-0.2,0-0.3,0c-0.4,0-0.7,0-1.1,0c-0.1,0-0.2,0-0.3,0c-0.1,0-0.1,0-0.1-0.1c0,0,0,0,0-0.1c0-0.3,0-0.6,0-1
			c0-0.1,0.1-0.1,0.2-0.1c0.1,0,0.1,0,0.2,0c1.6,0,3.2,0,4.8,0.1c0.1,0,0.2,0,0.2,0c0,0,0.1,0,0.1,0.1c0,0,0,0,0,0
			c0,0.4,0,0.7,0,1.1c0,0-0.1,0.1-0.1,0.1c-0.1,0-0.2,0-0.3,0c-0.3,0-0.7,0-1,0c-0.1,0-0.2,0-0.2,0c0,0-0.1,0-0.1,0.1
			c0,0.1,0,0.2,0,0.3c0,0.8,0,1.7,0,2.5C45.5,113.7,45.5,114.3,45.6,114.9C45.5,114.9,45.6,114.9,45.6,114.9z"/>
		<path class="st8" d="M61.1,110.1c-1.3,0-2.6,0-3.8,0c-0.1,0-0.3,0-0.4,0c-0.1,0-0.2,0-0.2,0.1c0,0,0,0.1,0,0.1c0,0.1,0,0.1,0,0.2
			c0,1.5,0,2.9,0,4.4c0,0,0,0,0,0c0,1.5,0,3,0,4.5c0,0.4,0,0.4-0.5,0.4c-0.3,0-0.6,0-0.9,0c-0.1,0-0.2,0-0.2,0c0,0-0.1,0-0.1-0.1
			c0,0,0-0.1,0-0.1c0-0.1,0-0.2,0-0.3c0-2.9,0-5.8,0-8.7c0-0.1,0-0.2,0-0.3c0-0.2,0-0.2-0.3-0.2c-0.6,0-1.3,0-1.9,0
			c-0.7,0-0.6,0.1-0.6-0.4c0-0.2,0-0.5,0-0.7c0,0,0.1-0.1,0.1-0.1c0.1,0,0.2,0,0.3,0c2.2,0,4.5,0,6.7,0c0.7,0,1.4,0,2.1,0
			c0.1,0,0.2,0,0.3,0c0.1,0,0.1,0,0.1,0.1c0,0,0,0,0,0c0,0.3,0,0.7,0,1c0,0.1-0.1,0.1-0.1,0.1C61.5,110.1,61.3,110.1,61.1,110.1z
			 M66.6,114.2C66.6,114.2,66.6,114.2,66.6,114.2c0,1.7,0,3.3,0,5c0,0.1,0,0.2,0,0.3c0,0-0.1,0.1-0.1,0.1c0,0,0,0,0,0
			c-0.5,0-1,0-1.5,0c0,0,0,0,0,0c-0.1,0-0.1,0-0.1-0.1c0-0.1,0-0.2,0-0.3c0-1.3,0-2.6,0-3.8c0-0.1,0-0.2,0-0.3c0,0-0.1-0.1-0.1-0.1
			c-0.1,0-0.1,0-0.2,0c-0.9,0-1.8,0-2.7,0c0,0-0.1,0-0.1,0c-0.4,0-0.4,0-0.4,0.3c0,1.3,0,2.7-0.1,4c0,0.1,0,0.2,0,0.3
			c0,0-0.1,0.1-0.1,0.1c0,0-0.1,0-0.1,0c-0.5,0-0.9,0-1.4,0c0,0-0.1,0-0.1,0c0,0-0.1,0-0.1,0c0-0.1,0-0.2,0-0.3
			c0-1.8,0.1-3.7,0.1-5.5c0-0.8,0-1.6,0-2.5c0-0.1,0-0.2,0-0.3c0-0.1,0.1-0.1,0.2-0.1c0.5,0,1,0,1.5,0c0.1,0,0.2,0,0.2,0.1
			c0,0.1,0,0.2,0,0.3c0,0.7,0,1.4,0,2c0,0.1,0,0.2,0,0.3c0,0.1,0.1,0.1,0.2,0.1c0.1,0,0.1,0,0.2,0c1,0,1.9,0,2.9-0.1
			c0,0,0.1,0,0.1,0c0,0,0.1,0,0.1-0.1c0,0,0-0.1,0-0.1c0-0.2,0-0.3,0-0.5c0-1.3,0-2.5,0-3.8c0-0.1,0-0.2,0-0.3c0-0.2,0-0.2,0.3-0.2
			c0.4,0,0.8,0,1.2,0c0,0,0.1,0,0.1,0c0.1,0,0.1,0,0.1,0.1c0,0.1,0,0.2,0,0.3c0,1.6,0,3.1,0,4.7C66.6,113.9,66.6,114.1,66.6,114.2z"
			/>
		<path class="st8" d="M74.9,117.2c0,0.7,0.1,1.4,0.1,2.2c0,0.1,0,0.2,0,0.3c0,0-0.1,0.1-0.1,0.1c-0.1,0-0.2,0-0.2,0
			c-0.4,0-0.8,0-1.1,0c-0.1,0-0.1,0-0.2,0c0,0-0.1,0-0.1-0.1c0-0.1,0-0.1,0-0.2c0-0.3,0-0.7-0.1-1c0-0.4-0.1-0.8-0.1-1.2
			c0-0.1-0.1-0.1-0.1-0.1c0,0-0.1,0-0.1,0c-0.7,0-1.4,0-2.2,0c-0.1,0-0.1,0-0.2,0c0,0-0.1,0-0.1,0.1c0,0,0,0,0,0.1
			c0,0.3-0.1,0.7-0.1,1c0,0.4-0.1,0.8-0.1,1.2c0,0,0,0,0,0.1c0,0-0.1,0.1-0.1,0.1c-0.4,0-0.8,0-1.3,0c-0.1,0-0.2,0-0.3,0
			c0,0-0.1,0-0.1,0c0,0,0-0.1,0-0.1c0-0.8,0.1-1.6,0.2-2.5c0-0.5,0.1-0.9,0.1-1.4c0-0.3,0.1-0.6,0.1-0.9c0.1-0.5,0.2-1.1,0.3-1.6
			c0.1-0.5,0.2-1,0.4-1.5c0.1-0.4,0.3-0.9,0.6-1.3c0.1-0.2,0.3-0.4,0.5-0.6c0.1-0.1,0.3-0.3,0.4-0.4c0.3-0.2,0.6-0.3,0.9-0.3
			c0.3,0,0.5,0.1,0.8,0.2c0.2,0.1,0.3,0.2,0.5,0.4c0.2,0.2,0.3,0.4,0.4,0.5c0.2,0.4,0.4,0.8,0.5,1.2c0.2,0.5,0.3,1.1,0.4,1.6
			c0.1,0.6,0.2,1.2,0.2,1.8c0.1,0.6,0.1,1.2,0.1,1.8C74.9,116.8,74.9,117,74.9,117.2C74.9,117.2,74.9,117.2,74.9,117.2z M71.7,116
			C71.7,116,71.7,116,71.7,116c0.3,0,0.6,0,0.9,0c0.1,0,0.2,0,0.2,0c0,0,0.1,0,0.1-0.1c0-0.1,0-0.1,0-0.2c-0.1-0.6-0.2-1.3-0.2-1.9
			c-0.1-0.7-0.2-1.3-0.4-2c-0.1-0.3-0.2-0.7-0.4-1c0,0-0.1-0.1-0.1-0.1c0,0-0.1,0-0.1,0c0,0-0.1,0.1-0.1,0.1
			c-0.2,0.3-0.3,0.6-0.4,0.9c-0.2,0.5-0.3,0.9-0.4,1.4c-0.1,0.4-0.1,0.9-0.2,1.3c-0.1,0.3-0.1,0.6-0.1,1c0,0.2,0,0.4,0,0.6
			c0,0,0.1,0.1,0.1,0.1c0.1,0,0.2,0,0.2,0C71.2,116,71.5,116,71.7,116z"/>
		<path class="st8" d="M79.1,114.9c0,1.4,0,2.8,0,4.2c0,0.1,0,0.2,0,0.3c0,0.1-0.1,0.1-0.2,0.1c-0.5,0-1,0-1.5,0
			c-0.1,0-0.1,0-0.1-0.1c0-0.1,0-0.2,0-0.3c0-0.5,0-1.1,0-1.6c0-2.3,0-4.6-0.1-6.9c0-0.1,0-0.2,0-0.4c0,0-0.1-0.1-0.1-0.1
			c-0.1,0-0.2,0-0.3,0c-0.4,0-0.7,0-1.1,0c-0.1,0-0.2,0-0.3,0c-0.1,0-0.1,0-0.1-0.1c0,0,0,0,0-0.1c0-0.3,0-0.6,0-1
			c0-0.1,0.1-0.1,0.2-0.1c0.1,0,0.1,0,0.2,0c1.6,0,3.2,0,4.8,0.1c0.1,0,0.2,0,0.2,0c0,0,0.1,0,0.1,0.1c0,0,0,0,0,0
			c0,0.4,0,0.7,0,1.1c0,0-0.1,0.1-0.1,0.1c-0.1,0-0.2,0-0.3,0c-0.3,0-0.7,0-1,0c-0.1,0-0.2,0-0.2,0c0,0-0.1,0-0.1,0.1
			c0,0.1,0,0.2,0,0.3c0,0.8,0,1.7,0,2.5C79.1,113.7,79.1,114.3,79.1,114.9C79.1,114.9,79.1,114.9,79.1,114.9z"/>
		<path class="st8" d="M87.7,116.8c0.2,0,0.4,0,0.7,0c0.1,0,0.2,0,0.2,0.1c0,0.2,0,0.4,0.1,0.5c0,0.2,0.1,0.3,0.2,0.4
			c0.2,0.3,0.6,0.4,1.1,0.4c0.5,0,0.9-0.1,1.3-0.3c0.2-0.1,0.3-0.2,0.4-0.3c0.3-0.6,0.3-1.1-0.3-1.7c-0.2-0.2-0.4-0.3-0.6-0.5
			c-0.3-0.2-0.6-0.4-1-0.5c-0.3-0.1-0.5-0.2-0.8-0.3c-0.2-0.1-0.5-0.2-0.7-0.3c-0.7-0.3-1.1-0.7-1.5-1.2c-0.3-0.4-0.4-0.9-0.5-1.3
			c0-0.4,0-0.9,0.2-1.3c0.1-0.4,0.4-0.7,0.7-1c0.5-0.5,1.2-0.8,2.1-0.9c0.4,0,0.7,0,1.1,0c0.6,0.1,1,0.3,1.4,0.6
			c0.2,0.2,0.4,0.5,0.5,0.7c0.2,0.4,0.2,0.8,0.3,1.2c0,0.1-0.1,0.1-0.1,0.1c0,0,0,0,0,0c-0.5,0-0.9,0-1.4,0c-0.1,0-0.2,0-0.2-0.1
			c0-0.2,0-0.4-0.1-0.6c0-0.1-0.1-0.3-0.2-0.4c-0.1-0.1-0.3-0.2-0.5-0.3c-0.1,0-0.2,0-0.2,0c-0.5,0.1-0.9,0.2-1.1,0.5
			c-0.2,0.2-0.3,0.4-0.3,0.6c-0.1,0.5-0.1,0.9,0.1,1.4c0,0.1,0.1,0.2,0.2,0.3c0.1,0.2,0.3,0.4,0.6,0.5c0.3,0.1,0.6,0.3,0.9,0.4
			c0.4,0.2,0.8,0.4,1.3,0.6c0.4,0.2,0.8,0.4,1.1,0.7c0.3,0.2,0.6,0.5,0.8,0.8c0.3,0.5,0.5,1,0.4,1.5c0,0.3-0.1,0.5-0.2,0.8
			c-0.4,0.8-1.2,1.3-2.3,1.6c-1.5,0.3-3.2-0.2-3.9-1.3c-0.2-0.4-0.4-0.8-0.4-1.3c0-0.1,0-0.1,0.2-0.1
			C87.2,116.9,87.5,116.9,87.7,116.8C87.7,116.8,87.7,116.8,87.7,116.8z"/>
		<path class="st8" d="M97.7,114.9c0,1.4,0,2.8,0,4.2c0,0.1,0,0.2,0,0.3c0,0.1-0.1,0.1-0.2,0.1c-0.5,0-1,0-1.5,0
			c-0.1,0-0.1,0-0.1-0.1c0-0.1,0-0.2,0-0.3c0-0.5,0-1.1,0-1.6c0-2.3,0-4.6-0.1-6.9c0-0.1,0-0.2,0-0.4c0,0-0.1-0.1-0.1-0.1
			c-0.1,0-0.2,0-0.3,0c-0.4,0-0.7,0-1.1,0c-0.1,0-0.2,0-0.3,0c-0.1,0-0.1,0-0.1-0.1c0,0,0,0,0-0.1c0-0.3,0-0.6,0-1
			c0-0.1,0.1-0.1,0.2-0.1c0.1,0,0.1,0,0.2,0c1.6,0,3.2,0,4.8,0.1c0.1,0,0.2,0,0.2,0c0,0,0.1,0,0.1,0.1c0,0,0,0,0,0
			c0,0.4,0,0.7,0,1.1c0,0-0.1,0.1-0.1,0.1c-0.1,0-0.2,0-0.3,0c-0.3,0-0.7,0-1,0c-0.1,0-0.2,0-0.2,0c0,0-0.1,0-0.1,0.1
			c0,0.1,0,0.2,0,0.3c0,0.8,0,1.7,0,2.5C97.6,113.7,97.6,114.3,97.7,114.9C97.6,114.9,97.7,114.9,97.7,114.9z"/>
		<path class="st8" d="M100,114.2c0-0.1,0-0.1,0-0.2c0-0.2,0-0.3,0-0.5c0-0.6,0.1-1.1,0.3-1.7c0.1-0.5,0.3-0.9,0.7-1.4
			c0.3-0.4,0.7-0.8,1.1-1.1c0.1-0.1,0.2-0.1,0.4-0.2c0.5-0.1,1-0.3,1.6-0.3c0.7,0,1.4,0.1,2,0.4c0.3,0.2,0.6,0.4,0.9,0.6
			c0.5,0.4,0.8,0.9,1,1.3c0.3,0.5,0.4,1.1,0.5,1.7c0.1,0.8,0.1,1.6,0.1,2.4c0,0.7-0.2,1.4-0.5,2.1c-0.1,0.3-0.3,0.6-0.5,0.9
			c-0.1,0.2-0.3,0.4-0.5,0.6c-0.5,0.5-1.2,0.7-2,0.8c-0.4,0-0.7,0.1-1.1,0.1c-1.1,0-2-0.4-2.7-1c-0.3-0.3-0.6-0.7-0.7-1
			c-0.2-0.4-0.3-0.8-0.4-1.2c-0.1-0.3-0.1-0.5-0.1-0.8c0-0.1,0-0.2,0-0.2c0-0.1,0-0.5,0-0.5C99.9,114.3,99.9,114.5,100,114.2z
			 M101.7,114.7c0,0.3,0,0.7,0.1,1c0,0.4,0.1,0.9,0.3,1.3c0.1,0.2,0.2,0.5,0.4,0.7c0.1,0.2,0.3,0.3,0.5,0.5c0.2,0.1,0.5,0.2,0.7,0.3
			c0.3,0,0.7,0,1,0c0.1,0,0.2,0,0.3,0c0.4-0.1,0.7-0.3,1-0.5c0.1-0.1,0.2-0.3,0.3-0.4c0.1-0.3,0.2-0.5,0.3-0.8
			c0.1-0.4,0.1-0.8,0.2-1.2c0.1-0.8,0.1-1.7-0.1-2.5c-0.1-0.4-0.2-0.7-0.3-1.1c-0.1-0.2-0.2-0.5-0.4-0.7c-0.1-0.2-0.3-0.3-0.5-0.5
			c-0.2-0.2-0.5-0.3-0.9-0.4c-0.3,0-0.6,0-0.8,0c-0.3,0-0.5,0.1-0.6,0.3c-0.2,0.2-0.3,0.3-0.4,0.5c-0.2,0.3-0.4,0.7-0.5,1
			C101.9,112.9,101.8,113.8,101.7,114.7z"/>
		<path class="st8" d="M110.4,114.4c0-1.7,0-3.3,0-5c0-0.1,0-0.2,0-0.3c0-0.1,0.1-0.1,0.2-0.1c0.1,0,0.2,0,0.3,0c0.5,0,1.1,0,1.6,0
			c0.6,0,1.2,0,1.8,0.2c1.3,0.3,2.2,0.9,2.7,1.8c0.2,0.4,0.3,0.7,0.3,1.1c0.1,0.5,0,1-0.2,1.4c-0.4,1-1.2,1.7-2.5,2.1
			c-0.5,0.2-1.1,0.3-1.7,0.3c-0.2,0-0.4,0-0.6,0c-0.1,0-0.2,0.1-0.2,0.1c0,0.1,0,0.2,0,0.3c0,1,0,2,0,3.1c0,0.1,0,0.2,0,0.3
			c0,0-0.1,0.1-0.1,0.1c-0.2,0-0.4,0-0.6,0c-0.3,0-0.6,0-0.9,0c-0.1,0-0.1,0-0.1-0.1c0-0.1,0-0.2,0-0.3
			C110.4,117.7,110.4,116,110.4,114.4C110.4,114.4,110.4,114.4,110.4,114.4z M112.2,112.4C112.2,112.4,112.2,112.4,112.2,112.4
			c0,0.6,0,1.2,0,1.8c0,0.1,0,0.2,0,0.3c0,0.1,0.1,0.1,0.2,0.1c0.5,0,1.1-0.1,1.6-0.2c0.1,0,0.1,0,0.2-0.1c0.5-0.2,0.8-0.4,1.1-0.8
			c0.1-0.1,0.1-0.2,0.2-0.3c0.1-0.3,0.2-0.7,0.2-1c0-0.2-0.1-0.5-0.2-0.7c-0.2-0.6-0.7-0.9-1.5-1.1c-0.5-0.1-1-0.1-1.5-0.1
			c0,0,0,0,0,0c-0.1,0-0.1,0-0.1,0.1c0,0.1,0,0.2,0,0.3C112.2,111.2,112.2,111.8,112.2,112.4z"/>
		<path class="st8" d="M126.9,115.2c0,0.1,0,0.2,0,0.3c0,0.7,0,1.5,0,2.2c0,0.6,0,1.2,0,1.8c0,0.1,0,0.1,0,0.2
			c0,0.1-0.1,0.1-0.1,0.1c0,0,0,0,0,0c-0.5,0-1,0-1.5,0c0,0-0.1,0-0.1,0c0,0-0.1,0-0.1,0c0-0.1,0-0.1,0-0.2c0-0.5,0-0.9,0-1.4
			c0-0.9,0-1.7,0.1-2.6c0-0.1,0-0.1,0-0.2c0,0,0-0.1-0.1-0.1c0,0-0.1,0-0.2-0.1c-0.4-0.1-0.7-0.3-0.9-0.6c-0.2-0.2-0.4-0.5-0.5-0.7
			c-0.2-0.3-0.3-0.6-0.4-1c-0.1-0.4-0.2-0.8-0.2-1.3c-0.1-0.9-0.1-1.7-0.1-2.6c0,0,0-0.1,0-0.1c0,0,0.1-0.1,0.1-0.1c0,0,0.1,0,0.1,0
			c0.5,0,0.9,0,1.4,0c0,0,0.1,0,0.1,0c0,0,0.1,0,0.1,0.1c0,0.1,0,0.2,0,0.2c0,0.6,0,1.1,0,1.7c0,0.6,0.1,1.2,0.2,1.7
			c0.1,0.3,0.1,0.5,0.3,0.8c0.1,0.1,0.1,0.2,0.2,0.3c0,0.1,0.1,0.1,0.2,0.2c0.1,0.1,0.4,0.1,0.6,0c0.2-0.1,0.3-0.1,0.4-0.2
			c0.1-0.1,0.2-0.3,0.3-0.4c0.2-0.3,0.2-0.5,0.3-0.8c0.1-0.4,0.2-0.8,0.2-1.2c0.1-0.8,0.1-1.5,0.2-2.3c0-0.1,0-0.1,0-0.2
			c0,0,0-0.1,0.1-0.1c0,0,0.1,0,0.1,0c0.5,0,0.9,0,1.4,0c0,0,0,0,0,0c0.1,0,0.1,0,0.1,0.1c0,0.1,0,0.1,0,0.2c0,0.4,0,0.7,0,1.1
			c0,0.7-0.1,1.4-0.3,2.1c-0.1,0.4-0.2,0.8-0.4,1.3c-0.1,0.2-0.2,0.4-0.4,0.6c-0.2,0.3-0.6,0.6-1,0.8
			C127,115.2,127,115.2,126.9,115.2z"/>
		<path class="st8" d="M130.4,114.2c0-0.1,0-0.1,0-0.2c0-0.2,0-0.3,0-0.5c0-0.6,0.1-1.1,0.3-1.7c0.1-0.5,0.3-0.9,0.7-1.4
			c0.3-0.4,0.7-0.8,1.1-1.1c0.1-0.1,0.2-0.1,0.4-0.2c0.5-0.1,1-0.3,1.6-0.3c0.7,0,1.4,0.1,2,0.4c0.3,0.2,0.6,0.4,0.9,0.6
			c0.5,0.4,0.8,0.9,1,1.3c0.3,0.5,0.4,1.1,0.5,1.7c0.1,0.8,0.1,1.6,0.1,2.4c0,0.7-0.2,1.4-0.5,2.1c-0.1,0.3-0.3,0.6-0.5,0.9
			c-0.1,0.2-0.3,0.4-0.5,0.6c-0.5,0.5-1.2,0.7-2,0.8c-0.4,0-0.7,0.1-1.1,0.1c-1.1,0-2-0.4-2.7-1c-0.3-0.3-0.6-0.7-0.7-1
			c-0.2-0.4-0.3-0.8-0.4-1.2c-0.1-0.3-0.1-0.5-0.1-0.8c0-0.1,0-0.2,0-0.2c0-0.1,0-0.5,0-0.5C130.3,114.3,130.3,114.5,130.4,114.2z
			 M132.1,114.7c0,0.3,0,0.7,0.1,1c0,0.4,0.1,0.9,0.3,1.3c0.1,0.2,0.2,0.5,0.4,0.7c0.1,0.2,0.3,0.3,0.5,0.5c0.2,0.1,0.5,0.2,0.7,0.3
			c0.3,0,0.7,0,1,0c0.1,0,0.2,0,0.3,0c0.4-0.1,0.7-0.3,1-0.5c0.1-0.1,0.2-0.3,0.3-0.4c0.1-0.3,0.2-0.5,0.3-0.8
			c0.1-0.4,0.1-0.8,0.2-1.2c0.1-0.8,0.1-1.7-0.1-2.5c-0.1-0.4-0.2-0.7-0.3-1.1c-0.1-0.2-0.2-0.5-0.4-0.7c-0.1-0.2-0.3-0.3-0.5-0.5
			c-0.2-0.2-0.5-0.3-0.9-0.4c-0.3,0-0.6,0-0.8,0c-0.3,0-0.5,0.1-0.6,0.3c-0.2,0.2-0.3,0.3-0.4,0.5c-0.2,0.3-0.4,0.7-0.5,1
			C132.3,112.9,132.2,113.8,132.1,114.7z"/>
		<path class="st8" d="M147.9,112.3c0,0.6,0,1.2,0,1.8c0,0.6-0.1,1.2-0.2,1.8c-0.1,0.4-0.1,0.8-0.2,1.2c-0.1,0.3-0.2,0.6-0.3,0.8
			c-0.2,0.3-0.4,0.7-0.7,0.9c-0.5,0.4-1.1,0.7-1.8,0.7c-1,0.1-1.8-0.1-2.5-0.6c-0.4-0.3-0.7-0.6-0.8-1c-0.1-0.3-0.2-0.5-0.2-0.8
			c-0.1-0.6-0.2-1.1-0.2-1.7c0-0.4-0.1-0.7-0.1-1.1c0-0.7-0.1-1.4-0.1-2.1c0-1-0.1-2-0.1-3c0-0.1,0-0.2,0-0.2c0-0.1,0-0.2,0.2-0.2
			c0.5,0,0.9,0,1.4,0c0.1,0,0.1,0,0.1,0.1c0,0.1,0,0.2,0,0.3c0,1,0.1,1.9,0.1,2.9c0,0.5,0,1.1,0.1,1.6c0.1,0.7,0.1,1.4,0.2,2.1
			c0.1,0.5,0.1,1,0.3,1.5c0,0.2,0.1,0.3,0.2,0.5c0.2,0.3,0.5,0.5,1,0.5c0.2,0,0.4,0,0.6-0.1c0.2-0.1,0.4-0.2,0.6-0.4
			c0.1-0.1,0.2-0.3,0.3-0.4c0.1-0.3,0.2-0.6,0.3-1c0.1-0.6,0.2-1.3,0.2-1.9c0.1-1.2,0.1-2.5,0.1-3.7c0-0.6,0-1.1,0-1.7
			c0-0.1,0-0.2,0-0.3c0-0.1,0.1-0.1,0.2-0.1c0.5,0,1,0,1.5,0c0.1,0,0.2,0,0.2,0.1c0,0,0,0.1,0,0.1
			C147.8,110.1,147.9,111.2,147.9,112.3C147.9,112.3,147.9,112.3,147.9,112.3z"/>
	</g>
	<g>
		<path d="M67.8,139.6v2.7h0.4c0.4,0,0.7-0.1,1-0.4s0.4-0.7,0.5-1.3h0.2v3.6h-0.2c0-0.3-0.1-0.6-0.2-0.7c-0.1-0.2-0.2-0.3-0.3-0.5
			c-0.3-0.3-0.6-0.5-1.1-0.5h-0.3v1.9c0,0.4,0.1,0.7,0.3,0.9c0.2,0.2,0.5,0.3,0.8,0.3h0.4v0.2h-4.1v-0.2h0.2c0.4,0,0.7-0.1,0.9-0.3
			c0.2-0.2,0.3-0.5,0.3-0.9v-3.6c0-0.4-0.1-0.7-0.3-0.9c-0.2-0.2-0.5-0.3-0.9-0.3h-0.2v-0.2H72v2.7h-0.1c0-0.2-0.1-0.4-0.1-0.6
			c-0.1-0.2-0.1-0.3-0.2-0.4c-0.1-0.3-0.3-0.6-0.5-0.8c-0.2-0.2-0.5-0.4-0.8-0.5c-0.3-0.1-0.6-0.2-1-0.2H67.8z"/>
		<path d="M72.8,144.3c0.2,0,0.4,0.1,0.5,0.2c0.1,0.1,0.2,0.3,0.2,0.5c0,0.2-0.1,0.4-0.2,0.5c-0.1,0.1-0.3,0.2-0.5,0.2
			c-0.2,0-0.4-0.1-0.5-0.2s-0.2-0.3-0.2-0.5c0-0.2,0.1-0.4,0.2-0.5C72.4,144.4,72.6,144.3,72.8,144.3z"/>
		<path d="M79.1,142.6h-1.4v1.7c0,0.4,0.1,0.7,0.3,0.9s0.5,0.3,0.9,0.3H79v0.2h-3.9v-0.2h0.2c0.4,0,0.7-0.1,0.9-0.3
			c0.2-0.2,0.3-0.5,0.3-0.9v-3.6c0-0.4-0.1-0.7-0.3-0.9c-0.2-0.2-0.5-0.3-0.9-0.3h-0.2v-0.2h4.8c0.7,0,1.2,0,1.5,0.1
			c0.4,0.1,0.7,0.3,0.9,0.5c0.1,0.1,0.2,0.3,0.3,0.5c0.1,0.2,0.1,0.3,0.1,0.5c0,0.5-0.2,0.8-0.7,1.1c-0.2,0.1-0.4,0.2-0.7,0.3
			s-0.6,0.1-0.9,0.2c-0.2,0-0.6,0-1.1,0v0c0.2,0.2,0.5,0.3,0.6,0.4c0.2,0.1,0.4,0.2,0.6,0.3c0.2,0.1,0.4,0.1,0.7,0.2l0.1,0.2
			c0.1,0.1,0.2,0.3,0.2,0.3c0,0.1,0.1,0.2,0.2,0.2c0.2,0.3,0.3,0.5,0.5,0.7c0.2,0.2,0.3,0.3,0.4,0.4c0.2,0.1,0.5,0.2,0.8,0.2h0.2
			v0.2h-2.3L79.1,142.6z M77.7,142.4h1.8c0.4,0,0.8-0.1,1-0.2c0.3-0.1,0.5-0.3,0.6-0.5s0.2-0.5,0.2-0.8c0-0.9-0.6-1.4-1.8-1.4h-1.8
			V142.4z"/>
		<path d="M85.6,144.3c0.2,0,0.4,0.1,0.5,0.2c0.1,0.1,0.2,0.3,0.2,0.5c0,0.2-0.1,0.4-0.2,0.5c-0.1,0.1-0.3,0.2-0.5,0.2
			c-0.2,0-0.4-0.1-0.5-0.2c-0.1-0.1-0.2-0.3-0.2-0.5c0-0.2,0.1-0.4,0.2-0.5C85.2,144.4,85.4,144.3,85.6,144.3z"/>
		<path d="M91.8,139.3c0.6,0,1.1,0.1,1.6,0.3c0.5,0.2,0.9,0.5,1.3,0.8c0.3,0.3,0.5,0.6,0.7,1c0.2,0.4,0.2,0.8,0.2,1.1
			c0,0.6-0.2,1.1-0.5,1.6c-0.3,0.5-0.8,0.9-1.3,1.2c-0.6,0.3-1.2,0.4-1.9,0.4c-0.5,0-1-0.1-1.5-0.2s-0.9-0.4-1.2-0.7
			c-0.3-0.3-0.6-0.6-0.8-1c-0.2-0.4-0.3-0.8-0.3-1.2c0-0.6,0.2-1.1,0.5-1.6c0.3-0.5,0.8-0.9,1.3-1.2
			C90.5,139.5,91.1,139.3,91.8,139.3z M91.9,139.5c-0.3,0-0.5,0-0.8,0.1c-0.2,0.1-0.4,0.2-0.6,0.4c-0.2,0.2-0.3,0.4-0.5,0.7
			c-0.1,0.3-0.2,0.5-0.3,0.9c-0.1,0.3-0.1,0.7-0.1,1c0,0.5,0.1,0.9,0.2,1.2c0.1,0.4,0.2,0.7,0.4,1c0.2,0.3,0.4,0.5,0.7,0.6
			c0.3,0.1,0.6,0.2,0.9,0.2c0.4,0,0.8-0.1,1.1-0.4c0.3-0.3,0.6-0.6,0.7-1.1c0.2-0.5,0.3-1,0.3-1.7c0-0.4,0-0.8-0.1-1.2
			c-0.1-0.4-0.2-0.7-0.4-0.9c-0.2-0.3-0.4-0.5-0.6-0.6c-0.1-0.1-0.3-0.1-0.4-0.2C92.2,139.5,92,139.5,91.9,139.5z"/>
		<path d="M98,144.3c0.2,0,0.4,0.1,0.5,0.2c0.1,0.1,0.2,0.3,0.2,0.5c0,0.2-0.1,0.4-0.2,0.5c-0.1,0.1-0.3,0.2-0.5,0.2
			c-0.2,0-0.4-0.1-0.5-0.2s-0.2-0.3-0.2-0.5c0-0.2,0.1-0.4,0.2-0.5C97.7,144.4,97.8,144.3,98,144.3z"/>
		<path d="M100.1,139.4h2.6l2.3,4.8l2.3-4.8h2.5v0.2h-0.2c-0.4,0-0.7,0.1-0.9,0.3c-0.2,0.2-0.3,0.5-0.3,0.9v3.6
			c0,0.4,0.1,0.7,0.3,0.9c0.2,0.2,0.5,0.3,0.9,0.3h0.2v0.2h-4v-0.2h0.3c0.4,0,0.7-0.1,0.8-0.3c0.2-0.2,0.3-0.5,0.3-0.9v-4.2h0
			l-2.7,5.5h-0.2l-2.7-5.5h0v4c0,0.3,0.1,0.5,0.2,0.7c0.1,0.2,0.3,0.3,0.5,0.4c0.2,0.1,0.5,0.2,0.8,0.2v0.2h-2.9v-0.2h0.1
			c0.4,0,0.7-0.1,0.9-0.4c0.2-0.2,0.3-0.6,0.3-1v-3.4c0-0.4-0.1-0.7-0.3-0.9c-0.2-0.2-0.5-0.3-0.9-0.3h-0.2V139.4z"/>
	</g>
	<g>
		<path d="M14.9,161.4h3.4c1.2,0,2,0.3,2.6,0.8c0.5,0.5,0.8,1.4,0.8,2.5v0.9c0,1.5-0.5,2.5-1.5,2.9v0c0.6,0.2,0.9,0.5,1.2,1
			c0.2,0.5,0.3,1.2,0.3,2v2.5c0,0.4,0,0.7,0,1c0,0.3,0.1,0.5,0.2,0.8h-2.3c-0.1-0.2-0.1-0.5-0.2-0.7c0-0.2,0-0.6,0-1.1v-2.6
			c0-0.7-0.1-1.1-0.3-1.4c-0.2-0.3-0.6-0.4-1.1-0.4h-0.8v6.2h-2.3V161.4z M18.1,167.6c0.5,0,0.8-0.1,1-0.4c0.2-0.2,0.3-0.6,0.3-1.2
			v-1.1c0-0.5-0.1-0.9-0.3-1.1c-0.2-0.2-0.5-0.4-0.9-0.4h-1v4.1H18.1z"/>
		<path d="M23.3,161.4h6.2v2.1h-3.9v3.8h3.1v2.1h-3.1v4.4h3.9v2.1h-6.2V161.4z"/>
		<path d="M32.6,161.4h3.1l2.4,14.5h-2.3l-0.4-2.9v0h-2.6l-0.4,2.8h-2.1L32.6,161.4z M35,171.1l-1-7.2h0l-1,7.2H35z"/>
		<path d="M39.8,175.1c-0.6-0.6-0.9-1.5-0.9-2.6v-7.8c0-1.1,0.3-2,0.9-2.6c0.6-0.6,1.4-0.9,2.5-0.9c1.1,0,1.9,0.3,2.5,0.9
			s0.9,1.5,0.9,2.6v1.5h-2.2v-1.7c0-0.9-0.4-1.3-1.1-1.3c-0.8,0-1.1,0.4-1.1,1.3v8.1c0,0.9,0.4,1.3,1.1,1.3c0.8,0,1.1-0.4,1.1-1.3
			v-2.2h2.2v2c0,1.1-0.3,2-0.9,2.6s-1.4,0.9-2.5,0.9C41.2,176.1,40.3,175.8,39.8,175.1z"/>
		<path d="M47,161.4h2.3v5.9h2.4v-5.9H54v14.5h-2.3v-6.5h-2.4v6.5H47V161.4z"/>
		<path d="M55.7,161.4H58v14.5h-2.3V161.4z"/>
		<path d="M59.7,161.4h2.9l2.2,8.7h0v-8.7h2v14.5h-2.3l-2.7-10.6h0v10.6h-2V161.4z"/>
		<path d="M69.2,175.1c-0.6-0.6-0.9-1.5-0.9-2.7v-7.6c0-1.2,0.3-2.1,0.9-2.7c0.6-0.6,1.4-0.9,2.5-0.9c1.1,0,1.9,0.3,2.5,0.9
			c0.6,0.6,0.9,1.5,0.9,2.7v1.2H73v-1.4c0-1-0.4-1.4-1.2-1.4s-1.2,0.5-1.2,1.4v7.9c0,0.9,0.4,1.4,1.2,1.4s1.2-0.5,1.2-1.4v-2.8h-1.1
			v-2.1h3.3v4.7c0,1.2-0.3,2.1-0.9,2.7c-0.6,0.6-1.4,0.9-2.5,0.9C70.6,176.1,69.8,175.8,69.2,175.1z"/>
		<path d="M79.9,161.4h2.9l2.2,8.7h0v-8.7h2v14.5h-2.3L82,165.3h0v10.6h-2V161.4z"/>
		<path d="M88.7,161.4h6.2v2.1H91v3.8h3.1v2.1H91v4.4h3.9v2.1h-6.2V161.4z"/>
		<path d="M95.7,161.4h2.2l1,11.1h0l1.1-11.1h2.5l1.1,11.1h0l1-11.1h2l-1.5,14.5h-2.8l-1-9.8h0l-1,9.8h-3L95.7,161.4z"/>
		<path d="M111.1,161.4h2.3v5.9h2.4v-5.9h2.3v14.5h-2.3v-6.5h-2.4v6.5h-2.3V161.4z"/>
		<path d="M119.8,161.4h6.2v2.1H122v3.8h3.1v2.1H122v4.4h3.9v2.1h-6.2V161.4z"/>
		<path d="M127.3,161.4h2.3v14.5h-2.3V161.4z"/>
		<path d="M132,175.1c-0.6-0.6-0.9-1.5-0.9-2.7v-7.6c0-1.2,0.3-2.1,0.9-2.7c0.6-0.6,1.4-0.9,2.5-0.9c1.1,0,1.9,0.3,2.5,0.9
			c0.6,0.6,0.9,1.5,0.9,2.7v1.2h-2.2v-1.4c0-1-0.4-1.4-1.2-1.4c-0.8,0-1.2,0.5-1.2,1.4v7.9c0,0.9,0.4,1.4,1.2,1.4
			c0.8,0,1.2-0.5,1.2-1.4v-2.8h-1.1v-2.1h3.3v4.7c0,1.2-0.3,2.1-0.9,2.7c-0.6,0.6-1.4,0.9-2.5,0.9
			C133.4,176.1,132.5,175.8,132,175.1z"/>
		<path d="M139.3,161.4h2.3v5.9h2.4v-5.9h2.3v14.5h-2.3v-6.5h-2.4v6.5h-2.3V161.4z"/>
		<path d="M149.8,163.4h-2.4v-2.1h7v2.1h-2.4v12.4h-2.3V163.4z"/>
		<path d="M156,175.1c-0.6-0.6-0.8-1.5-0.8-2.7v-0.8h2.2v1c0,0.9,0.4,1.4,1.2,1.4c0.4,0,0.7-0.1,0.9-0.3c0.2-0.2,0.3-0.6,0.3-1.1
			c0-0.6-0.1-1.1-0.4-1.6c-0.3-0.5-0.8-1-1.5-1.7c-0.9-0.8-1.6-1.6-2-2.2c-0.4-0.7-0.6-1.4-0.6-2.3c0-1.1,0.3-2,0.9-2.7
			c0.6-0.6,1.4-0.9,2.5-0.9c1.1,0,1.9,0.3,2.5,0.9c0.6,0.6,0.8,1.5,0.8,2.7v0.6h-2.2v-0.7c0-0.5-0.1-0.9-0.3-1.1
			c-0.2-0.2-0.5-0.3-0.8-0.3c-0.8,0-1.1,0.5-1.1,1.4c0,0.5,0.1,1,0.4,1.5c0.3,0.5,0.8,1,1.5,1.7c1,0.8,1.6,1.6,2,2.3
			c0.4,0.7,0.5,1.5,0.5,2.4c0,1.2-0.3,2.1-0.9,2.7c-0.6,0.6-1.4,1-2.6,1C157.4,176.1,156.6,175.8,156,175.1z"/>
	</g>
	<g>
		<path d="M39,81L22.6,70.7l0,3.5c-1.3,0-6.7-0.2-10.3-3.2c-5.6-4.7-7.3-13.7-7.3-13.7s-3.3,8.9,3.3,19.3c3.9,6.1,12.9,8.3,14.2,8.6
			l0,4L39,81z"/>
		<path d="M135.5,81l16.3-10.3l0,3.5c1.3,0,6.7-0.2,10.3-3.2c5.6-4.7,7.3-13.7,7.3-13.7s3.3,8.9-3.3,19.3
			c-3.9,6.1-12.9,8.3-14.2,8.6l0,4L135.5,81z"/>
	</g>
	<g>
		<path d="M53.7,140.4c-1.4,0-2.9-0.3-4.2-1l-2-1.1c-2-1.1-4.4-1.1-6.4,0l-2,1.1c-2.6,1.4-5.7,1.4-8.3,0l-2-1c-2-1.1-4.4-1.1-6.5,0
			l-3,1.6c-0.5,0.3-1.1,0.1-1.4-0.4c-0.3-0.5-0.1-1.1,0.4-1.4l3-1.6c2.6-1.4,5.7-1.4,8.4,0l2,1c2,1.1,4.4,1.1,6.4,0l2-1.1
			c2.6-1.4,5.7-1.4,8.3,0l2,1.1c2,1.1,4.4,1.1,6.4,0l1-0.5c0.5-0.3,1.1-0.1,1.4,0.4c0.3,0.5,0.1,1.1-0.4,1.4l-1,0.5
			C56.6,140.1,55.1,140.4,53.7,140.4z"/>
		<path d="M53.7,144.5c-1.4,0-2.9-0.3-4.2-1l-2-1.1c-2-1.1-4.4-1.1-6.4,0l-2,1.1c-2.6,1.4-5.7,1.4-8.3,0l-2-1.1
			c-2-1.1-4.4-1.1-6.4,0l-3,1.6c-0.5,0.3-1.1,0.1-1.4-0.4c-0.3-0.5-0.1-1.1,0.4-1.4l3-1.6c2.6-1.4,5.7-1.4,8.3,0l2,1.1
			c2,1.1,4.4,1.1,6.4,0l2-1.1c2.6-1.4,5.7-1.4,8.3,0l2,1.1c2,1.1,4.4,1.1,6.4,0l1-0.5c0.5-0.3,1.1-0.1,1.4,0.4
			c0.3,0.5,0.1,1.1-0.4,1.4l-1,0.5C56.6,144.1,55.1,144.5,53.7,144.5z"/>
		<path d="M53.7,148.5c-1.4,0-2.9-0.3-4.2-1l-2-1.1c-2-1.1-4.4-1.1-6.4,0l-2,1.1c-2.6,1.4-5.7,1.4-8.3,0l-2-1.1
			c-2-1.1-4.4-1.1-6.5,0l-3,1.6c-0.5,0.3-1.1,0.1-1.4-0.4c-0.3-0.5-0.1-1.1,0.4-1.4l3-1.6c2.6-1.4,5.7-1.4,8.4,0l2,1
			c2,1.1,4.4,1.1,6.4,0l2-1.1c2.6-1.4,5.7-1.4,8.3,0l2,1.1c2,1.1,4.4,1.1,6.4,0l1-0.5c0.5-0.3,1.1-0.1,1.4,0.4
			c0.3,0.5,0.1,1.1-0.4,1.4l-1,0.5C56.6,148.2,55.1,148.5,53.7,148.5z"/>
		<path d="M140.5,140.4c-1.4,0-2.9-0.3-4.2-1l-2-1.1c-2-1.1-4.4-1.1-6.4,0l-2,1.1c-2.6,1.4-5.7,1.4-8.3,0l-1-0.5
			c-0.5-0.3-0.7-0.9-0.4-1.4c0.3-0.5,0.9-0.7,1.4-0.4l1,0.5c2,1.1,4.4,1.1,6.4,0l2-1.1c2.6-1.4,5.7-1.4,8.3,0l2,1.1
			c2,1.1,4.4,1.1,6.4,0l2-1c2.6-1.4,5.8-1.4,8.4,0l3,1.6c0.5,0.3,0.7,0.9,0.4,1.4c-0.3,0.5-0.9,0.7-1.4,0.4l-3-1.6
			c-2-1.1-4.4-1.1-6.5,0l-2,1C143.4,140.1,142,140.4,140.5,140.4z"/>
		<path d="M140.5,144.5c-1.4,0-2.9-0.3-4.2-1l-2-1.1c-2-1.1-4.4-1.1-6.4,0l-2,1.1c-2.6,1.4-5.7,1.4-8.3,0l-1-0.5
			c-0.5-0.3-0.7-0.9-0.4-1.4c0.3-0.5,0.9-0.7,1.4-0.4l1,0.5c2,1.1,4.4,1.1,6.4,0l2-1.1c2.6-1.4,5.7-1.4,8.3,0l2,1.1
			c2,1.1,4.4,1.1,6.4,0l2-1.1c2.6-1.4,5.7-1.4,8.3,0l3,1.6c0.5,0.3,0.7,0.9,0.4,1.4c-0.3,0.5-0.9,0.7-1.4,0.4l-3-1.6
			c-2-1.1-4.4-1.1-6.4,0l-2,1.1C143.4,144.1,142,144.5,140.5,144.5z"/>
		<path d="M140.5,148.5c-1.4,0-2.9-0.3-4.2-1l-2-1.1c-2-1.1-4.4-1.1-6.4,0l-2,1.1c-2.6,1.4-5.7,1.4-8.3,0l-1-0.5
			c-0.5-0.3-0.7-0.9-0.4-1.4c0.3-0.5,0.9-0.7,1.4-0.4l1,0.5c2,1.1,4.4,1.1,6.4,0l2-1.1c2.6-1.4,5.7-1.4,8.3,0l2,1.1
			c2,1.1,4.4,1.1,6.4,0l2-1c2.6-1.4,5.8-1.4,8.4,0l3,1.6c0.5,0.3,0.7,0.9,0.4,1.4c-0.3,0.5-0.9,0.7-1.4,0.4l-3-1.6
			c-2-1.1-4.4-1.1-6.5,0l-2,1C143.4,148.2,142,148.5,140.5,148.5z"/>
	</g>
</g>
</svg>
