<?xml version="1.0" encoding="utf-8"?>
<!-- Generator: Adobe Illustrator 25.2.1, SVG Export Plug-In . SVG Version: 6.00 Build 0)  -->
<svg version="1.1" id="Layer_1" xmlns="http://www.w3.org/2000/svg" xmlns:xlink="http://www.w3.org/1999/xlink" x="0px" y="0px"
	 viewBox="0 0 180 224.9" style="enable-background:new 0 0 180 224.9;" xml:space="preserve">
<style type="text/css">
	.st0{fill:#1B1B1B;}
	.st1{fill:#FFFFFF;}
	.st2{fill:#292929;}
	.st3{fill:none;stroke:#000000;stroke-width:0.25;}
	.st4{fill:none;stroke:#000000;stroke-width:0.5;stroke-miterlimit:10;}
	.st5{stroke:#000000;stroke-width:0.25;stroke-miterlimit:10;}
	.st6{fill:none;stroke:#000000;stroke-miterlimit:10;}
	.st7{stroke:#000000;stroke-miterlimit:10;}
	.st8{fill:none;stroke:#000000;stroke-width:0.25;stroke-miterlimit:10;}
</style>
<g>
	<g>
		<g>
			<rect x="112.9" y="210.5" width="18.1" height="1.1"/>
		</g>
		<g>
			<rect x="46.3" y="210.5" width="18.1" height="1.1"/>
		</g>
	</g>
	<g>
		<g>
			<rect x="112.9" y="14.1" width="18.1" height="1.1"/>
		</g>
		<g>
			<rect x="46.3" y="14.1" width="18.1" height="1.1"/>
		</g>
	</g>
	<g>
		<polygon points="161,173.9 159.3,170.3 157.6,173.9 153.9,174.4 156.6,177.2 156,181.2 159.3,179.3 162.6,181.2 162,177.2 
			164.7,174.4 		"/>
	</g>
	<g>
		<polygon points="14.2,175.7 12.5,172.1 10.9,175.7 7.2,176.3 9.9,179.1 9.2,183 12.5,181.1 15.9,183 15.2,179.1 17.9,176.3 		"/>
	</g>
	<g>
		<path d="M101.7,208.7c-1.2-0.7-1.7-2.2-1.1-3.4c0.9-1.9-0.7-4-2.7-3.8c-1.4,0.2-2.7-0.8-2.9-2.1c-0.4-2-2.9-2.9-4.4-1.4
			c-1,0.9-2.6,0.9-3.6,0c-1.5-1.4-4-0.6-4.4,1.4c-0.3,1.4-1.5,2.3-2.9,2.1c-2.1-0.2-3.6,1.9-2.7,3.8c0.6,1.3,0.1,2.8-1.1,3.4
			c-1.8,1-1.8,3.6,0,4.7c1.2,0.7,1.7,2.2,1.1,3.4c-0.9,1.9,0.7,4,2.7,3.8c1.4-0.2,2.7,0.8,2.9,2.1c0.4,2,2.9,2.9,4.4,1.4
			c1-0.9,2.6-0.9,3.6,0c1.5,1.4,4,0.6,4.4-1.4c0.3-1.4,1.5-2.3,2.9-2.1c2.1,0.2,3.6-1.9,2.7-3.8c-0.6-1.3-0.1-2.8,1.1-3.4
			C103.5,212.4,103.5,209.7,101.7,208.7z M95.4,209.7l-2.8,2.9c-0.1,0.1-0.1,0.2-0.1,0.3l0.7,4.1c0,0.3-0.3,0.5-0.5,0.4l-3.4-1.9
			c-0.1-0.1-0.3-0.1-0.4,0l-3.4,1.9c-0.3,0.2-0.6-0.1-0.5-0.4l0.7-4.1c0-0.1,0-0.2-0.1-0.3l-2.8-2.9c-0.2-0.2-0.1-0.6,0.2-0.6
			l3.8-0.6c0.1,0,0.2-0.1,0.3-0.2l1.7-3.6c0.1-0.3,0.5-0.3,0.7,0l1.7,3.6c0.1,0.1,0.2,0.2,0.3,0.2l3.8,0.6
			C95.5,209.1,95.6,209.4,95.4,209.7z"/>
	</g>
	<g>
		<path d="M102.5,12.2c-1.3-0.7-1.8-2.3-1.2-3.7c0.9-2-0.7-4.3-2.9-4c-1.5,0.2-2.8-0.8-3.1-2.3c-0.4-2.2-3.1-3-4.7-1.5
			c-1.1,1-2.8,1-3.8,0c-1.6-1.5-4.3-0.6-4.7,1.5c-0.3,1.4-1.6,2.4-3.1,2.3c-2.2-0.3-3.8,2-2.9,4c0.6,1.3,0.1,2.9-1.2,3.7
			c-1.9,1.1-1.9,3.9,0,4.9c1.3,0.7,1.8,2.3,1.2,3.7c-0.9,2,0.7,4.3,2.9,4c1.5-0.2,2.8,0.8,3.1,2.3c0.4,2.2,3.1,3,4.7,1.5
			c1.1-1,2.8-1,3.8,0c1.6,1.5,4.3,0.6,4.7-1.5c0.3-1.4,1.6-2.4,3.1-2.3c2.2,0.3,3.8-2,2.9-4c-0.6-1.3-0.1-2.9,1.2-3.7
			C104.4,16,104.4,13.3,102.5,12.2z M85.5,22.4h-3.3V8h3.3V22.4z M97.9,10.7h-5.8v3.3h5v2.7h-5v5.6h-3.3V8h9.1V10.7z"/>
	</g>
	<g>
		<g>
			<path d="M44.2,52.6V53h-6.6v-0.4h0.5c0.3,0,0.5,0,0.7-0.1c0.2,0,0.4-0.1,0.5-0.3c0.1-0.2,0.2-0.4,0.3-0.7
				c0.1-0.3,0.1-0.7,0.1-1.3v-10c0-0.4,0-0.6,0-0.9c0-0.2,0-0.4-0.1-0.6c0-0.1-0.1-0.3-0.2-0.3c-0.1-0.1-0.2-0.2-0.3-0.2
				c-0.3-0.2-0.7-0.3-1.1-0.3h-0.5v-0.4h6.6v0.4h-0.5c-0.3,0-0.5,0-0.7,0.1c-0.2,0-0.4,0.1-0.5,0.3S42.1,38.6,42,39
				c-0.1,0.3-0.1,0.7-0.1,1.3v10c0,0.4,0,0.7,0,0.9c0,0.2,0,0.4,0.1,0.6s0.1,0.3,0.2,0.3c0.1,0.1,0.2,0.2,0.3,0.2
				c0.3,0.2,0.7,0.3,1,0.3H44.2z"/>
			<path d="M44.4,53.2h-7.1v-0.9h0.8c0.3,0,0.5,0,0.7-0.1c0.2,0,0.3-0.1,0.4-0.2c0.1-0.1,0.2-0.3,0.3-0.6c0.1-0.3,0.1-0.7,0.1-1.2
				v-10c0-0.3,0-0.6,0-0.9c0-0.2,0-0.4-0.1-0.5c0-0.1-0.1-0.2-0.1-0.3c-0.1-0.1-0.2-0.1-0.3-0.2c-0.3-0.2-0.6-0.2-0.9-0.2h-0.8v-0.9
				h7.1v0.9h-0.8c-0.3,0-0.5,0-0.7,0.1c-0.2,0-0.3,0.1-0.4,0.2c-0.1,0.1-0.2,0.3-0.3,0.6c-0.1,0.3-0.1,0.7-0.1,1.2v10
				c0,0.4,0,0.7,0,0.9c0,0.2,0,0.4,0.1,0.5c0,0.1,0.1,0.2,0.1,0.3c0.1,0.1,0.2,0.1,0.3,0.2c0.3,0.2,0.6,0.2,0.9,0.2h0.8V53.2z
				 M38.6,52.8h4.6c-0.3,0-0.5-0.1-0.8-0.3c-0.2-0.1-0.3-0.2-0.4-0.3c-0.1-0.1-0.2-0.3-0.3-0.4c-0.1-0.2-0.1-0.4-0.1-0.6
				c0-0.2,0-0.5,0-0.9v-10c0-0.5,0-1,0.1-1.3c0.1-0.4,0.2-0.6,0.4-0.8c0.2-0.2,0.4-0.3,0.6-0.4c0.1,0,0.2,0,0.3,0h-4.7
				c0.3,0,0.5,0.1,0.8,0.3c0.2,0.1,0.3,0.2,0.4,0.3c0.1,0.1,0.2,0.3,0.2,0.4c0,0.2,0.1,0.4,0.1,0.6c0,0.2,0,0.5,0,0.9v10
				c0,0.6,0,1-0.1,1.3c-0.1,0.4-0.2,0.6-0.4,0.8c-0.2,0.2-0.4,0.3-0.7,0.4C38.8,52.7,38.7,52.7,38.6,52.8z"/>
		</g>
		<g>
			<path d="M54.9,36.7v13.9c0,0.5,0,0.8,0.1,1.1c0.1,0.3,0.1,0.5,0.3,0.6c0.1,0.1,0.3,0.2,0.5,0.2c0.2,0,0.5,0,0.8,0V53h-5.1v-0.4
				c0.3,0,0.6,0,0.8-0.1c0.2,0,0.4-0.1,0.5-0.3c0.1-0.1,0.2-0.3,0.2-0.6c0-0.3,0.1-0.6,0.1-1v-9.5c0-0.7,0-1.3,0-1.7
				c0-0.4-0.1-0.7-0.1-0.9c-0.1-0.2-0.1-0.3-0.2-0.3c-0.1,0-0.2,0-0.4,0c-0.2,0-0.5,0.1-0.8,0.2L51.3,38l3.1-1.3H54.9z"/>
			<path d="M56.8,53.2h-5.6v-0.9h0.2c0.3,0,0.6,0,0.8-0.1c0.2,0,0.3-0.1,0.3-0.2c0.1-0.1,0.1-0.3,0.2-0.5c0-0.2,0-0.6,0-1v-9.5
				c0-0.7,0-1.3,0-1.7c0-0.4-0.1-0.6-0.1-0.8c0-0.1-0.1-0.2-0.1-0.2c-0.2,0-0.5-0.1-1,0.1l-0.2,0.1L51,37.9l3.4-1.4h0.7v14.1
				c0,0.5,0,0.8,0.1,1.1c0,0.2,0.1,0.4,0.2,0.5c0.1,0.1,0.2,0.1,0.4,0.2c0.2,0,0.5,0,0.8,0h0.2V53.2z M52.2,52.8h3.5
				c-0.2,0-0.4-0.1-0.6-0.3c-0.2-0.2-0.3-0.4-0.3-0.7c-0.1-0.3-0.1-0.7-0.1-1.2V36.9h-0.2l-2.8,1.1c0.4-0.1,0.7-0.1,1,0
				c0.2,0,0.3,0.2,0.4,0.5c0.1,0.2,0.1,0.5,0.1,0.9c0,0.4,0,1,0,1.7v9.5c0,0.4,0,0.7-0.1,1c0,0.3-0.1,0.5-0.3,0.7
				c-0.1,0.2-0.3,0.3-0.6,0.4C52.3,52.7,52.2,52.7,52.2,52.8z"/>
		</g>
		<g>
			<path d="M63,42.2c0.7,0,1.4,0.1,2,0.4c0.6,0.3,1.1,0.7,1.6,1.2c0.4,0.5,0.8,1.1,1.1,1.7c0.3,0.7,0.4,1.3,0.4,2.1
				c0,0.9-0.1,1.6-0.4,2.3c-0.3,0.7-0.7,1.3-1.1,1.8c-0.5,0.5-1,0.9-1.7,1.2c-0.6,0.3-1.3,0.4-2,0.4c-0.7,0-1.4-0.1-2-0.4
				c-0.6-0.3-1.1-0.7-1.6-1.2c-0.4-0.5-0.8-1.1-1-1.7c-0.2-0.7-0.4-1.4-0.4-2.1c0-0.8,0.1-1.5,0.4-2.1c0.3-0.7,0.6-1.3,1.1-1.8
				c0.5-0.5,1-0.9,1.6-1.2C61.6,42.3,62.2,42.2,63,42.2z M62.6,42.9c-0.3,0-0.6,0.1-1,0.2c-0.3,0.1-0.6,0.4-0.8,0.7
				c-0.2,0.3-0.4,0.7-0.6,1.2c-0.1,0.5-0.2,1.1-0.2,1.8c0,0.7,0.1,1.4,0.2,2.1c0.2,0.7,0.4,1.3,0.7,1.8c0.3,0.5,0.6,0.9,1,1.2
				c0.4,0.3,0.9,0.5,1.4,0.5c0.4,0,0.7-0.1,1-0.2c0.3-0.1,0.6-0.4,0.8-0.7c0.2-0.3,0.4-0.7,0.5-1.3c0.1-0.5,0.2-1.2,0.2-1.9
				c0-0.8-0.1-1.5-0.2-2.1c-0.1-0.7-0.4-1.2-0.6-1.7c-0.3-0.5-0.6-0.9-1-1.2C63.6,43.1,63.1,42.9,62.6,42.9z"/>
			<path d="M62.8,53.5c-0.7,0-1.5-0.2-2.1-0.5c-0.6-0.3-1.2-0.7-1.6-1.3c-0.5-0.5-0.8-1.1-1.1-1.8c-0.3-0.7-0.4-1.4-0.4-2.2
				c0-0.8,0.1-1.5,0.4-2.2c0.3-0.7,0.6-1.3,1.1-1.9c0.5-0.5,1-1,1.7-1.3c1.3-0.6,2.9-0.6,4.2,0c0.6,0.3,1.2,0.7,1.7,1.2
				c0.5,0.5,0.8,1.1,1.1,1.8c0.3,0.7,0.4,1.4,0.4,2.2c0,0.9-0.1,1.7-0.4,2.4c-0.3,0.7-0.7,1.4-1.2,1.9c-0.5,0.5-1.1,0.9-1.7,1.2
				C64.2,53.4,63.6,53.5,62.8,53.5z M63,42.4c-0.7,0-1.3,0.1-1.9,0.4c-0.6,0.3-1.1,0.7-1.5,1.2c-0.4,0.5-0.8,1.1-1,1.7
				c-0.3,0.6-0.4,1.3-0.4,2.1c0,0.7,0.1,1.4,0.4,2c0.2,0.6,0.6,1.2,1,1.7c0.4,0.5,0.9,0.9,1.5,1.1c1.1,0.5,2.5,0.6,3.8,0
				c0.6-0.3,1.1-0.6,1.6-1.1c0.5-0.5,0.8-1.1,1.1-1.7c0.3-0.7,0.4-1.4,0.4-2.3c0-0.7-0.1-1.4-0.4-2s-0.6-1.2-1-1.6
				c-0.4-0.5-0.9-0.8-1.5-1.1C64.3,42.6,63.6,42.4,63,42.4z M63.3,52.7c-0.5,0-1.1-0.2-1.5-0.5c-0.4-0.3-0.8-0.8-1.1-1.3
				c-0.3-0.5-0.5-1.1-0.7-1.8c-0.2-0.7-0.2-1.4-0.2-2.2c0-0.7,0.1-1.4,0.2-1.9c0.2-0.5,0.4-1,0.6-1.3c0.3-0.3,0.6-0.6,0.9-0.8
				c0.3-0.2,0.7-0.2,1.1-0.2c0.6,0,1.1,0.2,1.5,0.5c0.4,0.3,0.8,0.7,1.1,1.3c0.3,0.5,0.5,1.1,0.7,1.8c0.2,0.7,0.2,1.4,0.2,2.2
				c0,0.8-0.1,1.4-0.2,2c-0.1,0.5-0.3,1-0.6,1.3c-0.2,0.3-0.6,0.6-0.9,0.8C64.1,52.6,63.7,52.7,63.3,52.7z M62.6,43.2
				c-0.3,0-0.6,0.1-0.9,0.2c-0.3,0.1-0.5,0.3-0.7,0.6c-0.2,0.3-0.4,0.7-0.5,1.1c-0.1,0.5-0.2,1.1-0.2,1.8c0,0.7,0.1,1.4,0.2,2.1
				c0.1,0.7,0.4,1.2,0.6,1.7c0.3,0.5,0.6,0.9,1,1.2c0.4,0.3,0.8,0.4,1.2,0.4c0.3,0,0.6-0.1,0.9-0.2c0.3-0.1,0.5-0.3,0.7-0.6
				c0.2-0.3,0.4-0.7,0.5-1.2c0.1-0.5,0.2-1.1,0.2-1.8c0-0.7-0.1-1.4-0.2-2.1c-0.1-0.6-0.4-1.2-0.6-1.7c-0.3-0.5-0.6-0.8-1-1.1
				C63.5,43.3,63.1,43.2,62.6,43.2z"/>
		</g>
		<g>
			<path d="M74.7,42.2c0.7,0,1.4,0.1,2,0.4c0.6,0.3,1.1,0.7,1.6,1.2c0.4,0.5,0.8,1.1,1.1,1.7c0.3,0.7,0.4,1.3,0.4,2.1
				c0,0.9-0.1,1.6-0.4,2.3c-0.3,0.7-0.7,1.3-1.1,1.8c-0.5,0.5-1,0.9-1.7,1.2c-0.6,0.3-1.3,0.4-2,0.4c-0.7,0-1.4-0.1-2-0.4
				c-0.6-0.3-1.1-0.7-1.6-1.2c-0.4-0.5-0.8-1.1-1-1.7c-0.2-0.7-0.4-1.4-0.4-2.1c0-0.8,0.1-1.5,0.4-2.1c0.3-0.7,0.6-1.3,1.1-1.8
				c0.5-0.5,1-0.9,1.6-1.2C73.3,42.3,74,42.2,74.7,42.2z M74.3,42.9c-0.3,0-0.6,0.1-1,0.2c-0.3,0.1-0.6,0.4-0.8,0.7
				c-0.2,0.3-0.4,0.7-0.6,1.2c-0.1,0.5-0.2,1.1-0.2,1.8c0,0.7,0.1,1.4,0.2,2.1c0.2,0.7,0.4,1.3,0.7,1.8c0.3,0.5,0.6,0.9,1,1.2
				c0.4,0.3,0.9,0.5,1.4,0.5c0.4,0,0.7-0.1,1-0.2c0.3-0.1,0.6-0.4,0.8-0.7c0.2-0.3,0.4-0.7,0.5-1.3c0.1-0.5,0.2-1.2,0.2-1.9
				c0-0.8-0.1-1.5-0.2-2.1c-0.1-0.7-0.4-1.2-0.6-1.7c-0.3-0.5-0.6-0.9-1-1.2C75.3,43.1,74.8,42.9,74.3,42.9z"/>
			<path d="M74.6,53.5c-0.7,0-1.5-0.2-2.1-0.5c-0.6-0.3-1.2-0.7-1.6-1.3c-0.5-0.5-0.8-1.1-1.1-1.8c-0.3-0.7-0.4-1.4-0.4-2.2
				c0-0.8,0.1-1.5,0.4-2.2c0.3-0.7,0.6-1.3,1.1-1.9c0.5-0.5,1-1,1.7-1.3c1.3-0.6,2.9-0.6,4.2,0c0.6,0.3,1.2,0.7,1.7,1.2
				c0.5,0.5,0.8,1.1,1.1,1.8c0.3,0.7,0.4,1.4,0.4,2.2c0,0.9-0.1,1.7-0.4,2.4c-0.3,0.7-0.7,1.4-1.2,1.9c-0.5,0.5-1.1,0.9-1.7,1.2
				C76,53.4,75.3,53.5,74.6,53.5z M74.7,42.4c-0.7,0-1.3,0.1-1.9,0.4c-0.6,0.3-1.1,0.7-1.5,1.2c-0.4,0.5-0.8,1.1-1,1.7
				c-0.3,0.6-0.4,1.3-0.4,2.1c0,0.7,0.1,1.4,0.4,2c0.2,0.6,0.6,1.2,1,1.7c0.4,0.5,0.9,0.9,1.5,1.1c1.1,0.5,2.5,0.6,3.8,0
				c0.6-0.3,1.1-0.6,1.6-1.1c0.5-0.5,0.8-1.1,1.1-1.7c0.3-0.7,0.4-1.4,0.4-2.3c0-0.7-0.1-1.4-0.4-2c-0.2-0.6-0.6-1.2-1-1.6
				c-0.4-0.5-0.9-0.8-1.5-1.1C76,42.6,75.4,42.4,74.7,42.4z M75,52.7c-0.5,0-1.1-0.2-1.5-0.5c-0.4-0.3-0.8-0.8-1.1-1.3
				c-0.3-0.5-0.5-1.1-0.7-1.8c-0.2-0.7-0.2-1.4-0.2-2.2c0-0.7,0.1-1.4,0.2-1.9c0.2-0.5,0.4-1,0.6-1.3c0.3-0.3,0.6-0.6,0.9-0.8
				c0.3-0.2,0.7-0.2,1.1-0.2c0.6,0,1.1,0.2,1.5,0.5c0.4,0.3,0.8,0.7,1.1,1.3c0.3,0.5,0.5,1.1,0.7,1.8c0.2,0.7,0.2,1.4,0.2,2.2
				c0,0.8-0.1,1.4-0.2,2c-0.1,0.5-0.3,1-0.6,1.3c-0.2,0.3-0.6,0.6-0.9,0.8C75.8,52.6,75.4,52.7,75,52.7z M74.3,43.2
				c-0.3,0-0.6,0.1-0.9,0.2c-0.3,0.1-0.5,0.3-0.7,0.6c-0.2,0.3-0.4,0.7-0.5,1.1C72,45.6,72,46.2,72,46.9c0,0.7,0.1,1.4,0.2,2.1
				c0.1,0.7,0.4,1.2,0.6,1.7c0.3,0.5,0.6,0.9,1,1.2c0.4,0.3,0.8,0.4,1.2,0.4c0.3,0,0.6-0.1,0.9-0.2c0.3-0.1,0.5-0.3,0.7-0.6
				c0.2-0.3,0.4-0.7,0.5-1.2c0.1-0.5,0.2-1.1,0.2-1.8c0-0.7-0.1-1.4-0.2-2.1c-0.1-0.6-0.4-1.2-0.6-1.7c-0.3-0.5-0.6-0.8-1-1.1
				C75.2,43.3,74.8,43.2,74.3,43.2z"/>
		</g>
		<g>
			<path d="M84.4,36.7v10.4l2.7-2.4c0.2-0.2,0.4-0.4,0.6-0.5c0.1-0.1,0.3-0.2,0.3-0.3c0.1-0.1,0.1-0.2,0.1-0.2c0,0,0-0.1,0-0.2
				c0-0.2-0.1-0.3-0.2-0.4c-0.1-0.1-0.3-0.2-0.6-0.2v-0.4h4.6v0.4c-0.3,0-0.6,0-0.9,0.1c-0.3,0-0.5,0.1-0.7,0.2
				c-0.2,0.1-0.4,0.2-0.7,0.4c-0.2,0.2-0.5,0.3-0.7,0.6l-2.7,2.5l2.7,3.4c0.4,0.5,0.7,0.9,0.9,1.2c0.2,0.3,0.4,0.5,0.6,0.6
				c0.2,0.2,0.3,0.3,0.4,0.4c0.1,0.1,0.2,0.2,0.4,0.2c0.1,0.1,0.3,0.1,0.5,0.1s0.4,0,0.7,0V53h-5.1v-0.4c0.3,0,0.5-0.1,0.6-0.1
				c0.1-0.1,0.2-0.2,0.2-0.3c0-0.2-0.2-0.4-0.5-0.8l-3.2-4.1v3.4c0,0.4,0,0.6,0,0.8c0,0.2,0.1,0.4,0.1,0.5c0.1,0.1,0.1,0.2,0.2,0.3
				c0.1,0.1,0.1,0.1,0.2,0.2c0.1,0.1,0.2,0.1,0.4,0.1c0.2,0,0.4,0,0.7,0V53h-5.3v-0.4c0.4,0,0.6,0,0.9-0.1c0.2,0,0.4-0.1,0.5-0.3
				c0.1-0.1,0.2-0.3,0.3-0.6c0-0.2,0.1-0.6,0.1-1v-9.5c0-0.6,0-1.1,0-1.5c0-0.4,0-0.6-0.1-0.7c-0.1-0.3-0.1-0.5-0.3-0.6
				c-0.1-0.1-0.3-0.2-0.5-0.2c-0.2,0-0.4,0.1-0.7,0.2L80.7,38l3.1-1.3H84.4z"/>
			<path d="M92.6,53.2h-5.5v-0.9l0.2,0c0.4,0,0.5-0.1,0.5-0.1c0,0,0.1-0.1,0.1-0.2c0,0,0-0.2-0.4-0.7l-2.8-3.6v2.8
				c0,0.4,0,0.6,0,0.8c0,0.2,0.1,0.3,0.1,0.4c0,0.1,0.1,0.2,0.1,0.2c0.1,0.1,0.1,0.1,0.2,0.1c0.1,0,0.1,0.1,0.3,0.1
				c0.2,0,0.4,0,0.7,0l0.2,0v0.9h-5.8v-0.9h0.2c0.3,0,0.6,0,0.8-0.1c0.2,0,0.3-0.1,0.4-0.2c0.1-0.1,0.2-0.3,0.2-0.5
				c0-0.2,0.1-0.5,0.1-0.9v-9.5c0-0.6,0-1.1,0-1.5c0-0.4,0-0.6,0-0.7c-0.1-0.3-0.1-0.4-0.2-0.4c-0.1-0.1-0.2-0.1-0.3-0.1
				c-0.1,0-0.3,0-0.6,0.2l-0.2,0.1l-0.4-0.8l3.4-1.4h0.7v10.1l2.9-2.6c0.1-0.1,0.2-0.2,0.3-0.3c0.1-0.1,0.1-0.2,0.1-0.2
				c0,0,0,0,0-0.1c0-0.1,0-0.2-0.1-0.2c0,0-0.2-0.1-0.5-0.1l-0.2,0v-0.8h5v0.8l-0.2,0c-0.3,0-0.6,0-0.8,0.1c-0.2,0-0.5,0.1-0.7,0.2
				c-0.2,0.1-0.4,0.2-0.6,0.3c-0.2,0.1-0.4,0.3-0.7,0.6l-2.5,2.3l2.6,3.2c0.4,0.5,0.7,0.9,0.9,1.1c0.3,0.3,0.4,0.5,0.6,0.6
				c0.2,0.2,0.3,0.3,0.4,0.4c0.1,0.1,0.2,0.2,0.3,0.2c0.1,0.1,0.2,0.1,0.4,0.1c0.2,0,0.4,0,0.6,0h0.2V53.2z M87.7,52.8h3.9
				c-0.2,0-0.3-0.1-0.5-0.1c-0.2-0.1-0.3-0.2-0.4-0.3c-0.1-0.1-0.3-0.2-0.4-0.4c-0.1-0.1-0.3-0.3-0.6-0.6c-0.3-0.3-0.6-0.7-0.9-1.2
				l-2.8-3.6l2.8-2.6c0.3-0.2,0.5-0.4,0.7-0.6c0.2-0.2,0.5-0.3,0.7-0.4c0.2-0.1,0.5-0.2,0.8-0.2h-3.2c0.1,0,0.2,0.1,0.3,0.2
				c0.2,0.1,0.3,0.3,0.3,0.6c0,0.1,0,0.2-0.1,0.3c0,0.1-0.1,0.2-0.2,0.3c-0.1,0.1-0.2,0.2-0.3,0.4l-0.6,0.5l-2.6,2.3l3.1,4
				c0.5,0.6,0.5,0.8,0.5,1c0,0.2-0.1,0.4-0.2,0.5C88,52.7,87.8,52.7,87.7,52.8z M81.5,52.8h3.8c-0.2,0-0.4-0.1-0.5-0.1
				c-0.1,0-0.2-0.1-0.3-0.2c-0.1-0.1-0.2-0.2-0.2-0.4c-0.1-0.1-0.1-0.3-0.1-0.6c0-0.2,0-0.5,0-0.9V36.9h-0.2L81,38.1
				c0.3-0.1,0.5-0.1,0.6-0.1c0.2,0,0.5,0.1,0.6,0.2c0.2,0.1,0.3,0.4,0.4,0.7c0,0.1,0,0.4,0.1,0.8c0,0.4,0,0.9,0,1.5v9.5
				c0,0.4,0,0.8-0.1,1c-0.1,0.3-0.2,0.5-0.3,0.7c-0.2,0.2-0.4,0.3-0.7,0.3C81.6,52.7,81.5,52.8,81.5,52.8z"/>
		</g>
		<g>
			<path d="M94.7,46.4c0,0.8,0.1,1.5,0.3,2.1c0.2,0.6,0.5,1.1,0.8,1.6c0.3,0.4,0.8,0.8,1.2,1c0.5,0.2,0.9,0.3,1.5,0.3
				c0.7,0,1.3-0.2,1.8-0.6c0.5-0.4,0.9-1,1.3-1.9l0.4,0.2c-0.1,0.5-0.2,1-0.5,1.5c-0.2,0.5-0.5,0.9-0.9,1.3s-0.8,0.7-1.3,0.9
				c-0.5,0.2-1,0.4-1.6,0.4c-0.6,0-1.2-0.1-1.8-0.4c-0.6-0.3-1-0.6-1.5-1.1c-0.4-0.5-0.7-1-1-1.7c-0.2-0.7-0.4-1.4-0.4-2.2
				c0-0.9,0.1-1.7,0.4-2.4c0.2-0.7,0.6-1.3,1-1.8c0.4-0.5,0.9-0.9,1.5-1.1c0.6-0.3,1.2-0.4,1.9-0.4c0.6,0,1.1,0.1,1.6,0.3
				c0.5,0.2,0.9,0.5,1.3,0.9c0.4,0.4,0.6,0.8,0.8,1.3c0.2,0.5,0.3,1.1,0.3,1.8H94.7z M94.7,45.8h4.8c-0.1-1-0.3-1.7-0.7-2.1
				C98.5,43.2,98,43,97.3,43c-0.3,0-0.6,0.1-0.9,0.2c-0.3,0.1-0.6,0.3-0.8,0.5c-0.2,0.2-0.4,0.5-0.6,0.9
				C94.9,45,94.8,45.4,94.7,45.8z"/>
			<path d="M97.7,53.5c-0.7,0-1.3-0.1-1.9-0.4c-0.6-0.3-1.1-0.7-1.5-1.1c-0.4-0.5-0.8-1.1-1-1.8c-0.3-0.7-0.4-1.5-0.4-2.3
				c0-0.9,0.1-1.8,0.4-2.5c0.3-0.7,0.6-1.4,1.1-1.9c0.5-0.5,1-0.9,1.6-1.2c1.1-0.5,2.6-0.5,3.7-0.1c0.5,0.2,1,0.5,1.4,0.9
				c0.4,0.4,0.7,0.9,0.9,1.4c0.2,0.5,0.3,1.2,0.3,1.8v0.2H95c0,0.7,0.1,1.3,0.3,1.8c0.2,0.6,0.5,1.1,0.8,1.5
				c0.3,0.4,0.7,0.7,1.1,0.9c0.4,0.2,0.9,0.3,1.4,0.3c0.6,0,1.2-0.2,1.6-0.5c0.5-0.3,0.9-1,1.2-1.8l0.1-0.3l0.7,0.4l0,0.1
				c-0.1,0.5-0.3,1.1-0.5,1.6c-0.2,0.5-0.6,1-1,1.4c-0.4,0.4-0.8,0.7-1.4,1C98.9,53.4,98.3,53.5,97.7,53.5z M97.9,42.4
				c-0.6,0-1.3,0.1-1.8,0.4c-0.5,0.2-1,0.6-1.4,1.1c-0.4,0.5-0.7,1-1,1.7c-0.2,0.7-0.4,1.5-0.4,2.3c0,0.8,0.1,1.5,0.4,2.2
				c0.2,0.6,0.5,1.2,0.9,1.6c0.4,0.5,0.9,0.8,1.4,1c1,0.5,2.2,0.5,3.2,0c0.5-0.2,0.9-0.5,1.2-0.9c0.4-0.4,0.6-0.8,0.9-1.3
				c0.2-0.4,0.3-0.8,0.4-1.3c-0.3,0.8-0.7,1.4-1.2,1.8c-0.5,0.4-1.2,0.6-1.9,0.6c-0.5,0-1.1-0.1-1.6-0.4c-0.5-0.2-0.9-0.6-1.3-1.1
				c-0.4-0.4-0.7-1-0.9-1.6c-0.2-0.6-0.3-1.4-0.3-2.2v-0.2h7.2c0-0.5-0.1-1-0.3-1.4c-0.2-0.5-0.5-0.9-0.8-1.3
				c-0.3-0.3-0.7-0.6-1.2-0.8C99,42.5,98.5,42.4,97.9,42.4z M99.8,46h-5.3l0-0.2c0-0.5,0.1-0.9,0.3-1.3c0.2-0.4,0.4-0.7,0.6-0.9
				c0.2-0.3,0.5-0.5,0.9-0.6c0.3-0.1,0.7-0.2,1-0.2c0.7,0,1.3,0.3,1.8,0.7c0.4,0.5,0.7,1.3,0.7,2.3L99.8,46z M95,45.6h4.4
				c-0.1-0.8-0.3-1.4-0.6-1.7c-0.4-0.4-0.8-0.6-1.4-0.6c-0.3,0-0.6,0.1-0.8,0.2c-0.3,0.1-0.5,0.3-0.7,0.5c-0.2,0.2-0.4,0.5-0.5,0.8
				C95.1,45,95,45.2,95,45.6z"/>
		</g>
		<g>
			<path d="M110.8,51.8c-0.5,0.5-1,0.9-1.5,1.2c-0.5,0.2-1,0.3-1.6,0.3c-0.6,0-1.1-0.1-1.6-0.4c-0.5-0.3-1-0.6-1.4-1.1
				c-0.4-0.5-0.7-1-0.9-1.6c-0.2-0.6-0.3-1.3-0.3-2c0-0.7,0.1-1.4,0.4-2.2c0.2-0.7,0.6-1.4,1-1.9c0.4-0.6,1-1,1.6-1.4
				s1.3-0.5,2.1-0.5c0.9,0,1.7,0.3,2.3,0.9v-1.9c0-0.7,0-1.3,0-1.7s-0.1-0.7-0.1-0.9c-0.1-0.2-0.1-0.3-0.2-0.3
				c-0.1,0-0.2-0.1-0.4-0.1c-0.2,0-0.5,0.1-0.8,0.2L109,38l3.1-1.3h0.5v12.1c0,0.7,0,1.3,0,1.7c0,0.4,0.1,0.7,0.1,0.9
				c0.1,0.2,0.1,0.3,0.2,0.3c0.1,0,0.2,0.1,0.4,0.1c0.2,0,0.5-0.1,0.8-0.2l0.1,0.4l-3.1,1.3h-0.5V51.8z M110.8,51v-5.4
				c0-0.4-0.1-0.8-0.3-1.2c-0.2-0.3-0.3-0.6-0.6-0.9c-0.2-0.2-0.5-0.4-0.8-0.5c-0.3-0.1-0.5-0.2-0.8-0.2c-0.4,0-0.8,0.1-1.1,0.3
				c-0.3,0.2-0.6,0.5-0.9,0.9c-0.3,0.4-0.5,0.8-0.6,1.4c-0.1,0.5-0.2,1.1-0.2,1.8c0,0.8,0.1,1.5,0.3,2.1c0.2,0.6,0.4,1.1,0.7,1.5
				c0.3,0.4,0.6,0.7,1,0.9c0.4,0.2,0.8,0.3,1.2,0.3C109.5,52,110.1,51.7,110.8,51z"/>
			<path d="M111.4,53.5h-0.8v-1.2c-0.4,0.4-0.8,0.6-1.2,0.8c-1,0.5-2.3,0.5-3.4,0c-0.5-0.3-1-0.6-1.4-1.1c-0.4-0.5-0.7-1-1-1.7
				c-0.2-0.7-0.4-1.4-0.4-2.1c0-0.7,0.1-1.5,0.4-2.2c0.3-0.7,0.6-1.4,1.1-2c0.5-0.6,1-1.1,1.7-1.4c0.7-0.4,1.4-0.6,2.2-0.6
				c0.8,0,1.5,0.2,2.1,0.6v-1.4c0-0.7,0-1.3,0-1.7c0-0.4-0.1-0.6-0.1-0.8c0-0.1-0.1-0.2-0.1-0.2c-0.2-0.1-0.6-0.1-1,0.1l-0.2,0.1
				l-0.3-0.8l3.4-1.4h0.7v12.4c0,0.8,0,1.3,0,1.7c0,0.4,0.1,0.7,0.1,0.8c0,0.1,0.1,0.2,0.1,0.2c0.1,0,0.2,0,0.3,0
				c0.1,0,0.3,0,0.7-0.2l0.2-0.1l0.2,0.8L111.4,53.5z M111,53.1h0.3l2.6-1.1c-0.4,0.1-0.7,0.1-0.9,0c-0.2-0.1-0.3-0.2-0.4-0.5
				c-0.1-0.2-0.1-0.5-0.1-0.9c0-0.4,0-0.9,0-1.7V36.9h-0.2l-2.7,1.1c0.4-0.1,0.7-0.1,0.9,0c0.2,0.1,0.3,0.2,0.4,0.5
				c0.1,0.2,0.1,0.5,0.1,0.9c0,0.4,0,1,0,1.7v2.5l-0.4-0.4c-0.6-0.5-1.3-0.8-2.1-0.8c-0.7,0-1.4,0.2-1.9,0.5
				c-0.6,0.3-1.1,0.8-1.5,1.3c-0.4,0.5-0.8,1.2-1,1.9c-0.2,0.7-0.4,1.4-0.4,2.1c0,0.7,0.1,1.4,0.3,2c0.2,0.6,0.5,1.1,0.9,1.6
				c0.4,0.4,0.8,0.8,1.3,1c1,0.5,2.1,0.5,3,0c0.5-0.2,0.9-0.6,1.4-1.1l0.4-0.4V53.1z M108.8,52.3c-0.4,0-0.9-0.1-1.3-0.3
				c-0.4-0.2-0.8-0.6-1.1-1c-0.3-0.4-0.6-0.9-0.8-1.6c-0.2-0.6-0.3-1.3-0.3-2.1c0-0.7,0.1-1.3,0.2-1.9s0.4-1,0.6-1.4
				c0.3-0.4,0.6-0.7,1-1c0.6-0.4,1.4-0.5,2.1-0.2c0.3,0.1,0.6,0.3,0.8,0.6c0.2,0.3,0.5,0.6,0.6,0.9c0.2,0.4,0.3,0.8,0.3,1.2v5.5
				l-0.1,0.1C110.3,51.9,109.5,52.3,108.8,52.3z M108.3,43.1c-0.4,0-0.7,0.1-1,0.3c-0.3,0.2-0.6,0.5-0.8,0.8
				c-0.2,0.4-0.4,0.8-0.6,1.3c-0.1,0.5-0.2,1.1-0.2,1.7c0,0.8,0.1,1.4,0.3,2c0.2,0.6,0.4,1,0.7,1.4c0.3,0.4,0.6,0.7,1,0.8
				c0.9,0.5,1.9,0.3,2.9-0.6v-5.3c0-0.4-0.1-0.7-0.3-1.1s-0.3-0.6-0.5-0.8c-0.2-0.2-0.4-0.4-0.7-0.5
				C108.8,43.2,108.6,43.1,108.3,43.1z"/>
		</g>
		<g>
			<path d="M130.1,42.5v6.4c0,0.7,0,1.3,0,1.7c0,0.4,0.1,0.7,0.1,0.9c0.1,0.2,0.1,0.3,0.2,0.3c0.1,0,0.2,0.1,0.4,0.1
				c0.2,0,0.5-0.1,0.8-0.2l0.2,0.4l-3.1,1.3h-0.5v-2.2c-0.5,0.5-0.9,0.9-1.2,1.2c-0.3,0.3-0.6,0.5-0.9,0.7c-0.3,0.2-0.5,0.2-0.7,0.3
				c-0.2,0-0.5,0.1-0.8,0.1c-1,0-1.6-0.4-2.1-1.1c-0.4-0.7-0.6-1.7-0.6-3v-4.7c0-0.4,0-0.6-0.1-0.8c-0.1-0.2-0.1-0.4-0.3-0.5
				c-0.1-0.1-0.3-0.2-0.5-0.2c-0.2,0-0.5-0.1-0.8-0.1h-0.1v-0.4h3.7v7c0,0.5,0,0.9,0.1,1.2c0.1,0.3,0.2,0.6,0.4,0.7s0.3,0.3,0.6,0.3
				c0.2,0.1,0.4,0.1,0.7,0.1c0.3,0,0.7-0.1,1.1-0.3c0.4-0.2,0.9-0.6,1.5-1.2v-5.9c0-0.3,0-0.5-0.1-0.7c0-0.2-0.1-0.4-0.3-0.5
				c-0.1-0.1-0.3-0.2-0.5-0.3c-0.2-0.1-0.5-0.1-0.8-0.1v-0.4H130.1z"/>
			<path d="M128.8,53.5H128v-1.9c-0.3,0.3-0.6,0.6-0.8,0.8c-0.3,0.3-0.6,0.5-0.9,0.7c-0.3,0.2-0.6,0.3-0.8,0.3
				c-0.2,0-0.5,0.1-0.8,0.1c-1,0-1.8-0.4-2.3-1.2c-0.4-0.7-0.7-1.8-0.7-3.1v-4.7c0-0.3,0-0.6-0.1-0.8c0-0.2-0.1-0.3-0.2-0.4
				c-0.1-0.1-0.2-0.1-0.4-0.2c-0.2,0-0.4-0.1-0.7-0.1H120v-0.9h4.1v7.2c0,0.5,0,0.9,0.1,1.2c0.1,0.3,0.2,0.5,0.3,0.6
				c0.1,0.1,0.3,0.2,0.4,0.3c0.4,0.1,1,0.1,1.6-0.2c0.4-0.2,0.8-0.5,1.4-1.1v-5.8c0-0.3,0-0.5-0.1-0.7c0-0.2-0.1-0.3-0.2-0.4
				c-0.1-0.1-0.2-0.2-0.4-0.2c-0.2,0-0.5-0.1-0.8-0.1h-0.2v-0.9h4v6.6c0,0.7,0,1.3,0,1.7c0,0.4,0.1,0.7,0.1,0.8
				c0,0.1,0.1,0.2,0.1,0.2c0.2,0.1,0.5,0.1,1-0.1l0.2-0.1l0.3,0.8L128.8,53.5z M128.5,53.1h0.2l2.7-1.1c-0.4,0.1-0.7,0.1-0.9,0
				c-0.2-0.1-0.3-0.2-0.4-0.5c-0.1-0.2-0.1-0.5-0.1-0.9c0-0.4,0-1,0-1.7v-6.1h-2.8c0.1,0,0.2,0,0.3,0.1c0.3,0.1,0.5,0.2,0.6,0.3
				c0.2,0.2,0.3,0.4,0.3,0.6c0,0.2,0.1,0.5,0.1,0.8v6l-0.1,0.1c-0.6,0.6-1.1,1-1.5,1.2c-0.7,0.4-1.4,0.4-1.9,0.2
				c-0.3-0.1-0.5-0.2-0.7-0.4c-0.2-0.2-0.3-0.5-0.4-0.8c-0.1-0.3-0.2-0.8-0.2-1.3v-6.8H121c0.1,0,0.2,0,0.2,0c0.2,0,0.4,0.1,0.6,0.3
				c0.2,0.1,0.3,0.3,0.4,0.6c0.1,0.2,0.1,0.5,0.1,0.9v4.7c0,1.3,0.2,2.2,0.6,2.9c0.4,0.6,1,1,1.9,1c0.3,0,0.5,0,0.7-0.1
				c0.2,0,0.4-0.1,0.7-0.3c0.2-0.1,0.5-0.4,0.8-0.6c0.3-0.3,0.7-0.7,1.2-1.2l0.4-0.4V53.1z"/>
		</g>
		<g>
			<path d="M131.9,43.5l3.2-1.3h0.4v2.4c0.5-0.9,1.1-1.6,1.6-1.9c0.5-0.4,1.1-0.6,1.7-0.6c0.6,0,1.1,0.1,1.6,0.4
				c0.5,0.3,0.9,0.6,1.2,1.1c0.3,0.5,0.6,1,0.8,1.6c0.2,0.6,0.3,1.3,0.3,2c0,0.8-0.1,1.6-0.3,2.3c-0.2,0.7-0.5,1.3-1,1.9
				c-0.4,0.5-0.9,1-1.5,1.3c-0.6,0.3-1.3,0.5-2,0.5c-0.3,0-0.5,0-0.7,0c-0.2,0-0.4-0.1-0.6-0.1c-0.2-0.1-0.4-0.2-0.6-0.3
				c-0.2-0.1-0.4-0.3-0.6-0.5v3.2c0,0.4,0,0.7,0,0.9c0,0.2,0.1,0.4,0.1,0.5c0,0.1,0.1,0.2,0.2,0.3c0.1,0.1,0.2,0.1,0.3,0.2
				c0.2,0.1,0.6,0.2,1.2,0.2V58h-5.5v-0.4h0.3c0.2,0,0.5,0,0.7,0c0.2,0,0.4-0.1,0.5-0.2c0.1-0.1,0.2-0.3,0.3-0.6
				c0.1-0.3,0.1-0.7,0.1-1.2v-9.9c0-0.4,0-0.7,0-1c0-0.2-0.1-0.4-0.1-0.6c-0.1-0.1-0.2-0.2-0.3-0.3c-0.1,0-0.3-0.1-0.5-0.1
				c-0.1,0-0.2,0-0.3,0c-0.1,0-0.2,0.1-0.4,0.1L131.9,43.5z M135.6,45.4v3.9c0,0.8,0,1.4,0.1,1.7c0,0.2,0.1,0.4,0.3,0.6
				c0.1,0.2,0.3,0.4,0.5,0.5c0.2,0.2,0.4,0.3,0.7,0.4c0.3,0.1,0.6,0.1,0.9,0.1c0.4,0,0.8-0.1,1.2-0.3c0.3-0.2,0.6-0.5,0.9-0.9
				c0.2-0.4,0.4-0.8,0.5-1.3c0.1-0.5,0.2-1.1,0.2-1.7c0-0.7-0.1-1.3-0.2-1.8c-0.1-0.6-0.3-1-0.6-1.5c-0.2-0.4-0.5-0.7-0.9-1
				c-0.3-0.2-0.7-0.3-1.2-0.3c-0.2,0-0.3,0-0.5,0c-0.1,0-0.3,0.1-0.5,0.2c-0.2,0.1-0.4,0.2-0.6,0.5C136.2,44.7,135.9,45,135.6,45.4z
				"/>
			<path d="M137.6,58.2h-6v-0.9h0.5c0.2,0,0.4,0,0.6,0c0.1,0,0.2-0.1,0.3-0.2c0.1-0.1,0.2-0.3,0.2-0.5c0.1-0.3,0.1-0.6,0.1-1.1v-9.9
				c0-0.4,0-0.7,0-0.9c0-0.2-0.1-0.4-0.1-0.5c0-0.1-0.1-0.1-0.1-0.1c-0.1,0-0.3-0.1-0.6,0c-0.1,0-0.2,0.1-0.3,0.1l-0.2,0.1l-0.3-0.8
				l3.5-1.4h0.7v1.9c0.4-0.6,0.8-1.1,1.3-1.3c1.1-0.8,2.5-0.7,3.6-0.2c0.5,0.3,1,0.7,1.3,1.2c0.4,0.5,0.6,1.1,0.8,1.7
				c0.2,0.6,0.3,1.3,0.3,2.1c0,0.8-0.1,1.6-0.3,2.3c-0.2,0.7-0.6,1.4-1,2s-1,1-1.6,1.4c-0.6,0.3-1.3,0.5-2.1,0.5c-0.3,0-0.5,0-0.7,0
				c-0.2,0-0.4-0.1-0.7-0.1c-0.2-0.1-0.4-0.2-0.6-0.3c-0.1-0.1-0.2-0.1-0.2-0.2v2.7c0,0.4,0,0.6,0,0.9c0,0.2,0.1,0.4,0.1,0.5
				c0,0.1,0.1,0.1,0.1,0.2c0.1,0.1,0.1,0.1,0.2,0.2c0.1,0.1,0.4,0.1,1.1,0.1h0.2V58.2z M132.9,57.8h3.7c-0.2,0-0.4-0.1-0.5-0.1
				c-0.1-0.1-0.2-0.1-0.3-0.2c-0.1-0.1-0.2-0.2-0.3-0.4c0-0.1-0.1-0.3-0.1-0.6c0-0.2,0-0.5,0-0.9v-3.7l0.4,0.3
				c0.2,0.2,0.4,0.3,0.6,0.5c0.2,0.1,0.3,0.2,0.5,0.3c0.2,0.1,0.4,0.1,0.6,0.1c0.2,0,0.4,0,0.7,0c0.7,0,1.3-0.2,1.9-0.5
				c0.6-0.3,1-0.7,1.4-1.2c0.4-0.5,0.7-1.1,0.9-1.8c0.2-0.7,0.3-1.4,0.3-2.2c0-0.7-0.1-1.3-0.3-1.9c-0.2-0.6-0.4-1.1-0.8-1.6
				c-0.3-0.4-0.7-0.8-1.2-1.1c-0.9-0.5-2.1-0.5-3.1,0.1c-0.5,0.3-1,1-1.6,1.9l0,0.1c0.2-0.2,0.4-0.4,0.6-0.6
				c0.2-0.2,0.5-0.4,0.7-0.5c0.2-0.1,0.4-0.2,0.6-0.2c0.2,0,0.3,0,0.5,0c0.5,0,0.9,0.1,1.3,0.4c0.4,0.3,0.7,0.6,1,1
				c0.3,0.4,0.5,0.9,0.6,1.5c0.1,0.6,0.2,1.2,0.2,1.9c0,0.6-0.1,1.2-0.2,1.7c-0.1,0.5-0.3,1-0.6,1.4c-0.3,0.4-0.6,0.7-1,0.9
				c-0.4,0.2-0.8,0.3-1.3,0.3c-0.3,0-0.7,0-0.9-0.1c-0.3-0.1-0.5-0.2-0.8-0.4c-0.2-0.2-0.4-0.4-0.6-0.6c-0.2-0.2-0.3-0.5-0.3-0.7
				c-0.1-0.3-0.1-0.8-0.1-1.7v-6.8h-0.2l-2.6,1.1c0.3-0.1,0.5,0,0.7,0.1c0.2,0.1,0.3,0.2,0.4,0.4c0.1,0.2,0.1,0.4,0.2,0.6
				c0,0.3,0,0.6,0,1v9.9c0,0.5,0,0.9-0.1,1.2c-0.1,0.3-0.2,0.6-0.3,0.7C133.3,57.6,133.1,57.7,132.9,57.8z M135.8,45.5v3.8
				c0,1,0.1,1.4,0.1,1.6c0,0.2,0.1,0.4,0.2,0.6c0.1,0.2,0.3,0.3,0.5,0.5c0.2,0.1,0.4,0.2,0.6,0.3c0.6,0.2,1.3,0.2,1.9-0.2
				c0.3-0.2,0.6-0.5,0.8-0.8c0.2-0.3,0.4-0.8,0.5-1.3c0.1-0.5,0.2-1,0.2-1.6c0-0.6-0.1-1.2-0.2-1.8c-0.1-0.5-0.3-1-0.5-1.4
				c-0.2-0.4-0.5-0.7-0.8-0.9c-0.3-0.2-0.6-0.3-1-0.3c-0.2,0-0.3,0-0.5,0c-0.1,0-0.2,0.1-0.4,0.1c-0.2,0.1-0.3,0.2-0.6,0.4
				S136.1,45.1,135.8,45.5z"/>
		</g>
	</g>
	<g>
		<g>
			<path d="M132.1,66.4H40.6c-15.3,0-27.8,10.5-27.8,23.5v0.5c0,12.9,12.5,23.5,27.8,23.5h91.5c15.3,0,27.8-10.5,27.8-23.5v-0.5
				C159.9,76.9,147.4,66.4,132.1,66.4z"/>
		</g>
		<g>
			<path d="M132.5,64.1H40.2c-17,0-30.9,11.7-30.9,26v0c0,14.4,13.8,26,30.9,26h92.3c17,0,30.9-11.7,30.9-26v0
				C163.3,75.7,149.5,64.1,132.5,64.1z M161.5,90.4c0,13.7-13.2,24.8-29.4,24.8H40.6c-16.2,0-29.4-11.1-29.4-24.8v-0.5
				c0-13.7,13.2-24.8,29.4-24.8h91.5c16.2,0,29.4,11.1,29.4,24.8V90.4z"/>
		</g>
	</g>
	<g>
		<g>
			<path class="st1" d="M38,84.5h-3.3v-2.9h9.8v2.9h-3.3v17.3H38V84.5z"/>
		</g>
		<g>
			<path class="st1" d="M46,81.6h8.7v2.9h-5.5v5.3h4.4v2.9h-4.4v6.2h5.5v2.9H46V81.6z"/>
		</g>
		<g>
			<path class="st1" d="M58.9,81.6h4.3l3.3,20.2h-3.2l-0.6-4v0.1h-3.6l-0.6,4h-2.9L58.9,81.6z M62.4,95.1l-1.4-10h-0.1l-1.4,10H62.4
				z"/>
		</g>
		<g>
			<path class="st1" d="M68.1,81.6h4.5l2,14.5h0.1l2-14.5h4.5v20.2h-3V86.5h-0.1l-2.3,15.3h-2.7l-2.3-15.3h-0.1v15.3h-2.8V81.6z"/>
		</g>
		<g>
			<path class="st1" d="M87.5,81.6h3.1L92,97.2h0.1l1.5-15.6H97l1.5,15.6h0.1l1.4-15.6h2.7l-2.1,20.2h-4l-1.4-13.6h-0.1l-1.4,13.6
				h-4.2L87.5,81.6z"/>
		</g>
		<g>
			<path class="st1" d="M105.4,100.8c-0.8-0.9-1.2-2.1-1.2-3.8V86.4c0-1.6,0.4-2.9,1.2-3.8c0.8-0.9,2-1.3,3.6-1.3s2.8,0.4,3.6,1.3
				c0.8,0.9,1.2,2.1,1.2,3.8V97c0,1.6-0.4,2.9-1.2,3.8c-0.8,0.9-2,1.3-3.6,1.3S106.2,101.7,105.4,100.8z M110.6,97.2v-11
				c0-1.3-0.5-2-1.6-2s-1.6,0.7-1.6,2v11c0,1.3,0.5,2,1.6,2S110.6,98.6,110.6,97.2z"/>
		</g>
		<g>
			<path class="st1" d="M115.9,81.6h4.7c1.6,0,2.8,0.4,3.6,1.1c0.8,0.8,1.1,1.9,1.1,3.5v1.2c0,2.1-0.7,3.4-2.1,4v0.1
				c0.8,0.2,1.3,0.7,1.6,1.4c0.3,0.7,0.5,1.7,0.5,2.9v3.6c0,0.6,0,1,0.1,1.4c0,0.4,0.1,0.7,0.3,1.1h-3.2c-0.1-0.3-0.2-0.6-0.2-0.9
				c0-0.3-0.1-0.8-0.1-1.6v-3.7c0-0.9-0.1-1.6-0.4-1.9c-0.3-0.4-0.8-0.5-1.5-0.5h-1.1v8.7h-3.2V81.6z M120.3,90.3
				c0.6,0,1.1-0.2,1.4-0.5c0.3-0.3,0.5-0.9,0.5-1.6v-1.6c0-0.7-0.1-1.3-0.4-1.6c-0.3-0.3-0.7-0.5-1.2-0.5h-1.4v5.8H120.3z"/>
		</g>
		<g>
			<path class="st1" d="M127.6,81.6h3.2v8.5l4-8.5h3.2l-3.8,7.4l3.8,12.8h-3.3l-2.7-9l-1.3,2.6v6.4h-3.2V81.6z"/>
		</g>
	</g>
	<g>
		<g>
			<path d="M5.8,137.7H0v-0.1l1.9-0.4c0.1-0.8,0.2-1.8,0.2-3c0-1.2,0.1-2.3,0.1-3.4v-1.7c0-2.3-0.1-4.1-0.2-5.5L0,123.3v-0.1h5.8
				v0.1l-1.9,0.3c-0.1,0.6-0.1,1.2-0.1,1.7c0,0.5,0,1.1-0.1,1.9c0,0.7,0,1.4,0,2.1v2.2c0,0.4,0,1.1,0,2c0,0.9,0.1,1.7,0.1,2.3
				c0,0.6,0.1,1.1,0.1,1.4L5.8,137.7L5.8,137.7z M2.3,123.6v13.8h0.5v-13.8H2.3z"/>
		</g>
		<g>
			<path d="M6,123.3L6,123.3l3.9-0.1c0.3,0.5,0.6,1,1,1.6c0.4,0.6,0.8,1.2,1.1,1.6l3.4,4.9c0.5,0.6,0.8,1.1,1.1,1.5
				c0.3,0.3,0.6,0.8,1,1.3c0-0.5,0.1-0.9,0.1-1.3c0-0.4,0-0.8,0-1.1v-4.3c0-1.5-0.1-2.8-0.2-3.8l-1.9-0.4v-0.1H20v0.1l-1.9,0.4
				c-0.1,0.9-0.1,2.1-0.1,3.6v10.9h-0.1c-0.8-1.3-1.6-2.5-2.3-3.6l-4.7-6.8c-0.7-1-1.3-1.7-1.8-2.3C9,126.3,9,127.2,9,128v6.3
				c0,0.8,0.1,1.8,0.2,3l1.9,0.4v0.1H6.4v-0.1l1.9-0.3c0.1-0.5,0.1-1.2,0.1-2c0-0.9,0-1.7,0-2.4V128c0-0.6,0-1.1,0-1.7
				c0-0.6,0-1.1-0.1-1.7l-1-1L6,123.3z M8.3,123.6l9.3,13.3V136l-8.6-12.4H8.3z"/>
		</g>
		<g>
			<path d="M27.5,123.2h6.7c0.4,0,0.8,0,1.1,0c0.3,0,0.8-0.1,1.3-0.1l0.2,3.2h-0.1l-0.6-2.3c-0.5-0.1-1-0.2-1.5-0.2
				c-0.4,0-0.8,0-1.2,0.1c-0.4,0.1-0.7,0.2-1.2,0.3c0,0.6-0.1,1.2-0.1,1.8c0,0.6,0,1.1,0,1.6c0,0.5,0,0.8,0,1v3.3
				c0,0.9,0,1.8,0.1,2.9c0,1.1,0.1,1.9,0.2,2.6l1.9,0.4v0.1h-5.8v-0.1l1.9-0.4c0.2-1.5,0.2-3.2,0.2-5.3v-3.6c0-0.7,0-1.5,0-2.2
				c0-0.7-0.1-1.4-0.1-2.1c-0.3-0.1-0.6-0.2-1-0.3c-0.4-0.1-0.8-0.1-1.1-0.1c-0.6,0-1.1,0.1-1.6,0.2l-0.6,2.4h-0.1l0.2-3.3
				c0.2,0,0.4,0,0.7,0.1C27.1,123.2,27.3,123.2,27.5,123.2z M30.8,123.6v13.8h0.5v-13.8H30.8z"/>
		</g>
		<g>
			<path d="M37.1,123.2h5.6v0.1l-2,0.3c-0.1,0.4-0.1,1-0.1,1.9s-0.1,1.7-0.1,2.3c0,0.6,0,1.2,0,2.1c0.7,0.2,1.9,0.3,3.4,0.3
				c0.7,0,1.4,0,2.1-0.1c0.6,0,1.2-0.1,1.8-0.2c0-0.6,0.1-1.4,0.1-2.3c0-0.5,0-1.1,0-1.6c0-0.5,0-1-0.1-1.3c0-0.3-0.1-0.7-0.1-1.2
				l-2-0.3v-0.1h5.6v0.1l-1.6,0.3c-0.1,0.5-0.1,1.3-0.2,2.5c0,1.2-0.1,2.3-0.1,3.4v3.3c0,2,0.1,3.5,0.2,4.5l1.6,0.3v0.1h-5.6v-0.1
				l2-0.3c0.1-1.1,0.2-2.4,0.3-3.7c0-0.3,0-0.8,0-1.3c0-0.5,0-1-0.1-1.5h-7.2c0,0.5,0,1.3,0,2.3c0,0.6,0,1.4,0,2.2
				c0,0.8,0.1,1.5,0.2,2l2,0.3v0.1h-5.6v-0.1l1.5-0.3c0-0.3,0.1-0.7,0.1-1.4c0-0.7,0.1-1.5,0.1-2.3c0-0.9,0-1.6,0-2.2v-3.7
				c0-0.1,0-0.5,0-1c0-0.6,0-1.2-0.1-1.8c0-0.6-0.1-1-0.1-1.3L37.1,123.2L37.1,123.2z M39.1,123.6v13.8h0.5v-13.8H39.1z M48,123.6
				v13.8h0.5v-13.8H48z"/>
		</g>
		<g>
			<path d="M51.3,123.3L51.3,123.3l8.2-0.1l0.2,3.1h-0.1l-0.6-2.4c-0.4,0-0.9-0.1-1.5-0.1c-1,0-1.8,0.1-2.4,0.3
				c-0.1,1.1-0.2,2.3-0.2,3.7c0,0.9,0,1.6,0.1,2.1c0.8,0.1,1.3,0.1,1.5,0.1c0.6,0,1.2,0,1.8-0.1l0.3-1.7h0.1v4.2h-0.1l-0.4-1.8
				c-0.4-0.1-0.9-0.1-1.5-0.1c-0.7,0-1.3,0-1.8,0.1c-0.1,0.8-0.1,1.5-0.1,2.3c0,0.9,0,1.7,0,2.3c0,0.6,0,1.1,0.1,1.6
				c0.6,0.2,1.4,0.4,2.5,0.4c0.6,0,1.1,0,1.5-0.1l0.6-2.4h0.1l-0.2,3.1h-8.3v-0.1l1.8-0.3c0-0.3,0.1-0.7,0.1-1.2
				c0-0.6,0.1-1.2,0.1-1.9c0-0.7,0-1.3,0.1-1.7c0-0.5,0-0.9,0-1.2v-2.5c0-0.3,0-0.8,0-1.4c0-0.6,0-1.2-0.1-1.8
				c0-0.6-0.1-1.3-0.1-1.9L51.3,123.3z M53.6,123.6v13.8h0.5v-13.8H53.6z"/>
		</g>
		<g>
			<path d="M66,123.2h6.3c1.2,0,2.2,0.2,3,0.7c0.8,0.4,1.5,1,2,1.7c0.5,0.7,0.8,1.5,1,2.3c0.2,0.8,0.3,1.7,0.3,2.5
				c0,1-0.1,2-0.4,2.9c-0.3,0.9-0.7,1.7-1.2,2.3c-0.5,0.7-1.1,1.2-1.8,1.5c-0.7,0.4-1.4,0.5-2.2,0.5H66v-0.1l1.9-0.3
				c0.1-0.6,0.2-1.5,0.2-2.8c0.1-1.3,0.1-2.3,0.1-3.1v-2.6c0-1.9-0.1-3.6-0.2-5.2L66,123.2L66,123.2z M68.4,123.6v13.8h0.5v-13.8
				H68.4z M69.7,128.2v5.8c0,0.9,0,1.7,0.1,2.6c0.3,0.2,0.7,0.3,1.1,0.4c0.4,0.1,0.8,0.1,1.2,0.1c0.6,0,1.1-0.1,1.7-0.4
				c0.6-0.3,1.1-0.7,1.5-1.2c0.4-0.5,0.8-1.2,1.1-2.1c0.3-0.9,0.4-1.8,0.4-2.9c0-1.2-0.1-2.2-0.4-3c-0.3-0.8-0.7-1.5-1.2-2.1
				c-0.5-0.5-1.1-0.9-1.7-1.2c-0.6-0.3-1.3-0.4-2-0.4c-0.6,0-1.1,0.1-1.6,0.2c0,0.3-0.1,0.6-0.1,1.1c0,0.5-0.1,1-0.1,1.6
				C69.7,127.4,69.7,127.9,69.7,128.2z M71.1,123.4L71.1,123.4c0.7,0.1,1.4,0.2,2,0.3s1.1,0.4,1.5,0.7c0.4,0.3,0.7,0.6,1,1
				c0.3,0.4,0.6,0.8,0.8,1.4c0.2,0.5,0.4,1.1,0.5,1.7c0.1,0.6,0.2,1.3,0.2,2c0,1.5-0.3,2.8-0.8,3.9c-0.5,1-1.1,1.8-1.9,2.3
				c-0.7,0.5-1.5,0.7-2.1,0.7h-0.6v0.1h0.6c1.1,0,2.1-0.3,2.9-0.9c0.8-0.6,1.4-1.5,1.9-2.6c0.4-1.1,0.6-2.2,0.6-3.5
				c0-1.1-0.1-2.1-0.4-3s-0.7-1.6-1.1-2.2c-1-1.3-2.5-1.9-4.6-1.9H71.1z"/>
		</g>
		<g>
			<path d="M85.4,137.7h-5.8v-0.1l1.9-0.4c0.1-0.8,0.2-1.8,0.2-3c0-1.2,0.1-2.3,0.1-3.4v-1.7c0-2.3-0.1-4.1-0.2-5.5l-1.9-0.3v-0.1
				h5.8v0.1l-1.9,0.3c-0.1,0.6-0.1,1.2-0.1,1.7c0,0.5,0,1.1-0.1,1.9c0,0.7,0,1.4,0,2.1v2.2c0,0.4,0,1.1,0,2c0,0.9,0.1,1.7,0.1,2.3
				c0,0.6,0.1,1.1,0.1,1.4L85.4,137.7L85.4,137.7z M82,123.6v13.8h0.5v-13.8H82z"/>
		</g>
		<g>
			<path d="M97.1,135.1l-1.1,2.7c-0.5-0.1-0.8-0.1-1.1-0.1c-0.3,0-0.6,0-1.1,0.1c-0.5,0.1-0.8,0.1-1.1,0.1c-1,0-1.9-0.2-2.7-0.6
				c-0.8-0.4-1.4-1-2-1.7c-0.5-0.7-0.9-1.5-1.1-2.3c-0.3-0.9-0.4-1.7-0.4-2.6c0-1.1,0.1-2.2,0.4-3.1c0.3-0.9,0.7-1.8,1.2-2.4
				s1.2-1.2,1.9-1.6c0.7-0.4,1.5-0.5,2.3-0.5c0.2,0,0.4,0,0.4,0c0.1,0,0.2,0,0.4,0c0.2,0,0.4,0,0.6,0c0.7,0.1,1.2,0.1,1.6,0.1
				c0.8,0,1.4,0,1.6-0.1l0.1,3.3h-0.1l-0.5-2.2c-0.2,0-0.4-0.1-0.8-0.2c-0.4-0.1-0.8-0.2-1.1-0.2c-0.4-0.1-0.8-0.1-1.2-0.1
				c-1.1,0-2,0.3-2.7,0.8c-0.7,0.5-1.3,1.3-1.7,2.3c-0.4,1-0.6,2.2-0.6,3.5c0,1,0.1,1.9,0.4,2.8c0.3,0.9,0.6,1.6,1.1,2.2
				c0.5,0.6,1,1.1,1.7,1.4c0.6,0.3,1.3,0.5,2,0.5c0.7,0,1.3-0.1,1.9-0.5C96,136.4,96.5,135.8,97.1,135.1L97.1,135.1z M93.6,123.2
				h-0.9c-0.9,0-1.7,0.2-2.4,0.6c-0.7,0.4-1.4,0.9-1.9,1.6c-0.5,0.7-0.9,1.5-1.2,2.4c-0.3,0.9-0.4,1.8-0.4,2.9
				c0,0.9,0.1,1.8,0.4,2.7c0.3,0.8,0.7,1.6,1.2,2.3c0.5,0.7,1.2,1.2,1.9,1.5s1.6,0.6,2.5,0.6c0.4,0,0.7,0,0.8,0v-0.1
				c-1,0-1.9-0.1-2.7-0.5c-0.8-0.4-1.4-0.9-2-1.6c-0.5-0.7-0.9-1.4-1.2-2.3c-0.3-0.8-0.4-1.7-0.4-2.6c0-0.9,0.1-1.7,0.3-2.5
				c0.2-0.8,0.6-1.6,1-2.3s1-1.3,1.8-1.7c0.7-0.4,1.6-0.6,2.6-0.6h0.5V123.2z"/>
		</g>
		<g>
			<path d="M99.4,123.2h6.7c0.4,0,0.8,0,1.1,0c0.3,0,0.8-0.1,1.3-0.1l0.2,3.2h-0.1l-0.6-2.3c-0.5-0.1-0.9-0.2-1.5-0.2
				c-0.4,0-0.8,0-1.2,0.1c-0.4,0.1-0.7,0.2-1.2,0.3c0,0.6-0.1,1.2-0.1,1.8c0,0.6,0,1.1,0,1.6c0,0.5,0,0.8,0,1v3.3
				c0,0.9,0,1.8,0.1,2.9c0,1.1,0.1,1.9,0.2,2.6l1.9,0.4v0.1h-5.8v-0.1l1.9-0.4c0.2-1.5,0.2-3.2,0.2-5.3v-3.6c0-0.7,0-1.5,0-2.2
				c0-0.7-0.1-1.4-0.1-2.1c-0.3-0.1-0.6-0.2-1-0.3c-0.4-0.1-0.8-0.1-1.1-0.1c-0.6,0-1.1,0.1-1.6,0.2l-0.6,2.4h-0.1L98,123
				c0.2,0,0.4,0,0.7,0.1C98.9,123.2,99.2,123.2,99.4,123.2z M102.7,123.6v13.8h0.5v-13.8H102.7z"/>
		</g>
		<g>
			<path d="M114.8,137.7H109v-0.1l1.9-0.4c0.1-0.8,0.2-1.8,0.2-3c0-1.2,0.1-2.3,0.1-3.4v-1.7c0-2.3-0.1-4.1-0.2-5.5l-1.9-0.3v-0.1
				h5.8v0.1l-1.9,0.3c-0.1,0.6-0.1,1.2-0.1,1.7c0,0.5,0,1.1-0.1,1.9c0,0.7,0,1.4,0,2.1v2.2c0,0.4,0,1.1,0,2c0,0.9,0.1,1.7,0.1,2.3
				c0,0.6,0.1,1.1,0.1,1.4L114.8,137.7L114.8,137.7z M111.4,123.6v13.8h0.5v-13.8H111.4z"/>
		</g>
		<g>
			<path d="M121.7,123c1.1,0,2,0.2,2.8,0.7c0.8,0.5,1.4,1.1,2,1.8c0.5,0.8,0.9,1.6,1.1,2.4c0.2,0.9,0.4,1.7,0.4,2.5
				c0,0.9-0.1,1.8-0.4,2.7c-0.3,0.9-0.7,1.7-1.2,2.4c-0.5,0.7-1.2,1.3-1.9,1.7c-0.8,0.4-1.6,0.6-2.6,0.6c-1.4,0-2.5-0.4-3.5-1.2
				c-1-0.8-1.7-1.7-2.1-2.9c-0.5-1.1-0.7-2.3-0.7-3.3c0-1,0.1-1.9,0.4-2.8c0.3-0.9,0.7-1.7,1.3-2.4c0.5-0.7,1.2-1.3,2-1.7
				C119.9,123.2,120.8,123,121.7,123z M121.3,123.4L121.3,123.4c-0.7-0.1-1.4,0.1-2.1,0.5c-0.7,0.4-1.3,0.9-1.8,1.6
				c-0.5,0.7-0.9,1.4-1.2,2.3c-0.3,0.9-0.4,1.8-0.4,2.7c0,1.2,0.2,2.3,0.7,3.4c0.5,1.1,1.1,2,2,2.7c0.9,0.7,1.8,1,2.8,1.1v-0.1
				c-1-0.1-1.9-0.5-2.6-1.2c-0.8-0.7-1.3-1.5-1.7-2.6c-0.4-1-0.6-2.1-0.6-3.2c0-0.9,0.1-1.8,0.3-2.6c0.2-0.8,0.6-1.6,1-2.2
				c0.4-0.6,1-1.2,1.6-1.6C119.9,123.7,120.6,123.5,121.3,123.4z M121.7,123.7c-0.8,0-1.5,0.3-2.2,0.8c-0.7,0.5-1.2,1.3-1.6,2.3
				c-0.4,1-0.6,2.2-0.6,3.6c0,1.5,0.2,2.7,0.6,3.8c0.4,1,1,1.8,1.7,2.3c0.7,0.5,1.4,0.7,2.1,0.7c0.6,0,1.1-0.1,1.7-0.4
				c0.5-0.3,1-0.7,1.4-1.3c0.4-0.6,0.7-1.2,1-2.1c0.2-0.8,0.3-1.7,0.3-2.7c0-1.4-0.1-2.5-0.4-3.3s-0.6-1.5-1.1-2.2
				c-0.4-0.5-0.9-0.9-1.4-1.2C122.8,123.8,122.2,123.7,121.7,123.7z M122.1,123.3L122.1,123.3c0.5,0.1,1,0.3,1.5,0.6
				c0.5,0.3,1,0.7,1.4,1.2c0.4,0.5,0.8,1.3,1.1,2.2c0.3,0.9,0.4,2,0.4,3.3c0,0.8-0.1,1.6-0.2,2.4c-0.2,0.8-0.4,1.5-0.8,2.1
				c-0.3,0.6-0.8,1.2-1.4,1.6c-0.6,0.4-1.2,0.7-2,0.8v0.1c0.7,0,1.3-0.2,1.9-0.5c0.6-0.3,1.1-0.8,1.6-1.4c0.5-0.6,0.8-1.3,1.1-2.2
				c0.3-0.9,0.4-1.8,0.4-2.9c0-1.2-0.1-2.2-0.4-3.1c-0.3-0.9-0.7-1.6-1.1-2.2c-0.5-0.6-1-1-1.6-1.4
				C123.3,123.5,122.7,123.3,122.1,123.3z"/>
		</g>
		<g>
			<path d="M128.6,123.3L128.6,123.3l3.9-0.1c0.3,0.5,0.6,1,1,1.6c0.4,0.6,0.8,1.2,1.1,1.6l3.4,4.9c0.5,0.6,0.8,1.1,1.1,1.5
				c0.3,0.3,0.6,0.8,1,1.3c0-0.5,0.1-0.9,0.1-1.3c0-0.4,0-0.8,0-1.1v-4.3c0-1.5-0.1-2.8-0.2-3.8l-1.9-0.4v-0.1h4.6v0.1l-1.9,0.4
				c-0.1,0.9-0.1,2.1-0.1,3.6v10.9h-0.1c-0.8-1.3-1.6-2.5-2.3-3.6l-4.7-6.8c-0.7-1-1.3-1.7-1.8-2.3c-0.1,0.9-0.1,1.7-0.1,2.5v6.3
				c0,0.8,0.1,1.8,0.2,3l1.9,0.4v0.1h-4.7v-0.1l1.9-0.3c0.1-0.5,0.1-1.2,0.1-2c0-0.9,0-1.7,0-2.4V128c0-0.6,0-1.1,0-1.7
				c0-0.6,0-1.1-0.1-1.7l-1-1L128.6,123.3z M130.9,123.6l9.3,13.3V136l-8.6-12.4H130.9z"/>
		</g>
		<g>
			<path d="M149.3,123l3.3,10.3c0.4,1.3,0.9,2.7,1.5,4l1.3,0.3v0.1H150v-0.1l2.1-0.3c-0.1-0.7-0.2-1.4-0.4-2.1
				c-0.2-0.8-0.4-1.4-0.7-2h-4.8c-0.2,0.7-0.4,1.2-0.5,1.6c-0.1,0.4-0.2,0.9-0.4,1.3c-0.1,0.5-0.2,0.9-0.2,1.2l2,0.3v0.1h-4.3v-0.1
				l1.4-0.3c0.3-0.8,0.7-1.6,0.9-2.5l3.5-11.7H149.3z M148.5,125.8c-0.1,0.4-0.3,0.9-0.5,1.5c-0.2,0.7-0.4,1.3-0.6,1.9
				c-0.2,0.6-0.4,1.2-0.6,1.9c-0.2,0.7-0.3,1.1-0.4,1.3c0.3,0.1,0.7,0.1,1.1,0.1c0.4,0,0.8,0,1.1,0c0.9,0,1.6,0,2.2-0.1
				c-0.2-0.7-0.5-1.8-1-3.2C149.3,127.9,148.9,126.7,148.5,125.8z M148.6,125l4,12.3h0.5l-4.2-13.2L148.6,125z"/>
		</g>
		<g>
			<path d="M157.7,131.8v-3.1c0-0.8,0-1.7-0.1-2.7c0-1-0.1-1.8-0.2-2.4l-1.8-0.3v-0.1h5c1,0,1.7,0.2,2.3,0.7c0.6,0.5,1,1.1,1.2,1.7
				c0.2,0.6,0.3,1.2,0.3,1.6c0,0.6-0.1,1.2-0.3,1.7c-0.2,0.5-0.5,0.9-0.9,1.2c-0.4,0.3-0.7,0.5-1.1,0.5v0c0.3,0.2,0.6,0.4,0.9,0.7
				c0.2,0.2,0.4,0.6,0.6,1c0.2,0.4,0.5,1,0.9,1.7c0.4,0.7,0.7,1.3,0.9,1.7c0.2,0.4,0.4,0.7,0.6,1c0.4,0.6,0.9,0.8,1.3,0.8v0.1h-1.3
				c-0.7,0-1.3-0.3-1.8-0.9c-0.2-0.2-0.3-0.5-0.5-0.8c-0.2-0.3-0.4-0.8-0.8-1.5c-0.4-0.7-0.7-1.3-0.9-1.7c-0.3-0.5-0.5-0.8-0.6-1
				c-0.2-0.3-0.4-0.5-0.6-0.6s-0.4-0.1-0.8-0.1c-0.3,0-0.6,0-0.7,0.1c0,0.4,0,0.8,0,1.2v1.8c0,0.8,0.1,1.8,0.2,3.1l1.9,0.3v0.1h-5.7
				v-0.1l1.8-0.3c0.1-0.7,0.1-1.6,0.2-2.8C157.7,133.3,157.7,132.4,157.7,131.8z M157.9,123.6v13.8h0.6v-13.8H157.9z M159.3,127.3
				v1.6c0,0.6,0,1.1,0,1.6c0.2,0,0.5,0.1,0.9,0.1c0.7,0,1.2-0.1,1.6-0.4c0.4-0.3,0.7-0.7,0.9-1.1c0.2-0.5,0.3-1,0.3-1.5
				c0-0.5-0.1-1.1-0.2-1.5c-0.2-0.5-0.4-0.9-0.6-1.2c-0.3-0.3-0.6-0.6-0.9-0.7c-0.3-0.2-0.6-0.3-1-0.3c-0.3,0-0.5,0-0.7,0.1
				c0,0.4-0.1,0.9-0.1,1.6C159.3,126.2,159.3,126.8,159.3,127.3z M160,123.4L160,123.4c0.7,0.1,1.3,0.3,1.8,0.8
				c0.5,0.4,0.8,0.9,1,1.5c0.2,0.6,0.3,1.2,0.3,1.8c0,1.3-0.4,2.3-1.3,2.9l0,0c0.5-0.2,1-0.5,1.3-1.1c0.3-0.6,0.5-1.2,0.5-2
				c0-0.6-0.1-1.2-0.3-1.7c-0.2-0.5-0.4-0.9-0.7-1.2c-0.3-0.3-0.7-0.6-1.1-0.8c-0.4-0.2-0.8-0.3-1.2-0.3H160z M162,132.2l1.7,3.1
				c0.4,0.7,0.8,1.3,1.1,1.6c0.3,0.3,0.7,0.5,1.1,0.5v-0.1c-0.4-0.2-0.9-0.8-1.6-2l-1.3-2.5c-0.3-0.5-0.6-1-0.8-1.2
				c-0.2-0.3-0.6-0.5-0.9-0.6l0,0.1C161.5,131.3,161.8,131.7,162,132.2z"/>
		</g>
		<g>
			<path d="M167.6,123.6l-1.5-0.3v-0.1h6v0.1l-2.3,0.3c0.3,1,0.8,2.1,1.4,3.4c0.6,1.3,1.2,2.4,1.7,3.2c0.5-0.8,1.2-1.8,1.9-3.2
				c0.7-1.4,1.3-2.5,1.6-3.4l-2.2-0.3v-0.1h4.5v0.1l-1.3,0.3c-0.3,0.5-0.6,0.9-0.9,1.4c-0.3,0.5-0.6,1.1-1.1,2c-0.4,0.8-0.8,1.5-1,2
				c-0.3,0.5-0.6,1.2-1.1,2.3c0,0.8-0.1,1.7-0.1,2.7c0,1.4,0.1,2.5,0.2,3.3l1.9,0.3v0.1h-5.8v-0.1l1.9-0.3c0.1-0.4,0.1-1,0.2-1.7
				c0-0.7,0.1-1.4,0.1-2c0-0.5,0-1.2,0-2.2c-0.3-0.7-0.7-1.5-1.1-2.5c-0.5-1-0.9-1.9-1.4-2.8C168.5,125.1,168,124.3,167.6,123.6z
				 M171.8,137.3h0.5v-6.2l-3.6-7.6h-0.6l3.7,7.6V137.3z"/>
		</g>
		<g>
			<path d="M178.5,139.5L178.5,139.5c0.3-0.6,0.5-1.1,0.5-1.7c-0.3,0-0.5-0.1-0.7-0.4c-0.2-0.2-0.3-0.5-0.3-0.8
				c0-0.4,0.1-0.6,0.2-0.9c0.2-0.2,0.4-0.4,0.7-0.4c0.3,0,0.5,0.2,0.7,0.5c0.2,0.3,0.2,0.6,0.2,1c0,0.7-0.2,1.2-0.5,1.7
				C179.2,139,178.8,139.3,178.5,139.5z M179.1,137.5v-1.8c-0.5,0.1-0.7,0.4-0.7,0.9c0,0.2,0.1,0.4,0.2,0.6
				C178.7,137.4,178.8,137.5,179.1,137.5z"/>
		</g>
	</g>
	<g>
		<g>
			<path d="M48.8,150.2c-0.9,0-1.8,0-2.8,0c-0.1,0-0.2,0-0.3,0c-0.1,0-0.1,0-0.1,0.1c0,0,0,0.1,0,0.1c0,0,0,0.1,0,0.1
				c0,1,0,2.1,0,3.1c0,0,0,0,0,0c0,1.1,0,2.1,0,3.2c0,0.3,0,0.3-0.4,0.3c-0.2,0-0.4,0-0.7,0c-0.1,0-0.1,0-0.2,0c0,0-0.1,0-0.1,0
				c0,0,0-0.1,0-0.1c0-0.1,0-0.2,0-0.2c0-2.1,0-4.1,0-6.2c0-0.1,0-0.1,0-0.2c0-0.1,0-0.1-0.2-0.1c-0.5,0-0.9,0-1.4,0
				c-0.5,0-0.4,0-0.4-0.3c0-0.2,0-0.3,0-0.5c0,0,0-0.1,0.1-0.1c0.1,0,0.1,0,0.2,0c1.6,0,3.2,0,4.8,0c0.5,0,1,0,1.5,0
				c0.1,0,0.2,0,0.2,0c0,0,0.1,0,0.1,0.1c0,0,0,0,0,0c0,0.2,0,0.5,0,0.7c0,0,0,0.1-0.1,0.1C49,150.2,48.9,150.2,48.8,150.2z
				 M52.7,153.1C52.7,153.1,52.7,153.1,52.7,153.1c0,1.2,0,2.4,0,3.6c0,0.1,0,0.2,0,0.2c0,0,0,0.1-0.1,0.1c0,0,0,0,0,0
				c-0.3,0-0.7,0-1,0c0,0,0,0,0,0c0,0-0.1,0-0.1-0.1c0-0.1,0-0.2,0-0.2c0-0.9,0-1.8,0-2.7c0-0.1,0-0.2,0-0.2c0,0,0-0.1-0.1-0.1
				c0,0-0.1,0-0.1,0c-0.6,0-1.3,0-1.9,0c0,0,0,0-0.1,0c-0.3,0-0.3,0-0.3,0.2c0,0.9,0,1.9,0,2.8c0,0.1,0,0.1,0,0.2c0,0,0,0.1-0.1,0.1
				c0,0,0,0-0.1,0c-0.3,0-0.7,0-1,0c0,0,0,0-0.1,0c0,0,0,0,0,0c0-0.1,0-0.2,0-0.2c0-1.3,0-2.6,0.1-3.9c0-0.6,0-1.2,0-1.7
				c0-0.1,0-0.1,0-0.2c0-0.1,0-0.1,0.1-0.1c0.3,0,0.7,0,1,0c0.1,0,0.1,0,0.1,0.1c0,0.1,0,0.2,0,0.2c0,0.5,0,1,0,1.4
				c0,0.1,0,0.1,0,0.2c0,0,0.1,0.1,0.1,0.1c0,0,0.1,0,0.1,0c0.7,0,1.4,0,2.1,0c0,0,0.1,0,0.1,0c0,0,0.1,0,0.1,0c0,0,0-0.1,0-0.1
				c0-0.1,0-0.2,0-0.3c0-0.9,0-1.8,0-2.7c0-0.1,0-0.1,0-0.2c0-0.1,0-0.1,0.2-0.1c0.3,0,0.6,0,0.9,0c0,0,0.1,0,0.1,0
				c0,0,0.1,0,0.1,0.1c0,0.1,0,0.2,0,0.2c0,1.1,0,2.2,0,3.3C52.7,152.9,52.7,153,52.7,153.1z"/>
		</g>
		<g>
			<path d="M54.3,152.9c0-0.4,0-0.8,0-1.1c0-0.7,0-1.4,0.1-2.1c0,0,0-0.1,0-0.1c0-0.1,0-0.1,0.1-0.1c0,0,0.1,0,0.1,0c1,0,2,0,3,0
				c0.1,0,0.1,0,0.2,0c0,0,0.1,0,0.1,0.1c0,0,0,0,0,0c0,0.2,0,0.5,0,0.7c0,0.1,0,0.1-0.2,0.1c-0.1,0-0.2,0-0.3,0c-0.5,0-1,0-1.5,0
				c-0.1,0-0.2,0-0.2,0c0,0,0,0,0,0c0,0,0,0,0,0c0,0,0,0,0,0.1c0,0.8,0,1.6-0.1,2.3c0,0,0,0.1,0,0.1c0,0.1,0,0.1,0.1,0.1
				c0.5,0,1,0,1.5,0c0.5,0,0.4,0,0.4,0.3c0,0.2,0,0.3,0,0.5c0,0,0,0.1-0.1,0.1c-0.1,0-0.2,0-0.3,0c-0.5,0-0.9,0-1.4,0
				c-0.1,0-0.2,0-0.2,0c0,0-0.1,0-0.1,0.1c0,0,0,0.1,0,0.1c0,0.6,0,1.2,0,1.8c0,0,0,0.1,0,0.1c0,0,0,0,0.1,0c0.1,0,0.2,0,0.2,0
				c0.5,0,1.1,0,1.6,0c0.1,0,0.2,0,0.3,0c0,0,0.1,0,0.1,0.1c0,0,0,0,0,0.1c0,0.2,0,0.4,0,0.7c0,0,0,0,0,0c0,0-0.1,0.1-0.1,0.1
				c-0.2,0-0.4,0-0.6,0c-0.6,0-1.1,0-1.7,0c-0.2,0-0.4,0-0.7,0c-0.3,0-0.4-0.1-0.5-0.4c0-0.2-0.1-0.3-0.1-0.5c0-0.5,0-1.1,0-1.6
				c0-0.3,0-0.5,0-0.8C54.3,153.5,54.3,153.2,54.3,152.9C54.3,152.9,54.3,152.9,54.3,152.9z"/>
		</g>
		<g>
			<path d="M63.5,155.2C63.5,155.1,63.5,155.1,63.5,155.2c0.1-0.2,0.1-0.4,0.1-0.5c0.1-1.6,0.1-3.3,0-4.9c0-0.1,0-0.2,0-0.3
				c0-0.1,0-0.1,0.1-0.1c0.3,0,0.7,0,1,0c0,0,0,0,0.1,0c0,0,0,0,0,0c0,0.1,0,0.1,0,0.2c0,1.3,0,2.7,0,4c0,0.4,0,0.7,0,1.1
				c0,0.4,0,0.8-0.1,1.1c0,0.2-0.1,0.4-0.2,0.5c-0.1,0.1-0.1,0.2-0.2,0.3c-0.1,0-0.1,0.1-0.2,0.1c-0.2,0.1-0.4,0.1-0.6,0.1
				c-0.1,0-0.1,0-0.2-0.1c-0.1-0.1-0.2-0.1-0.3-0.2c-0.1-0.1-0.3-0.3-0.4-0.4c-0.2-0.3-0.3-0.5-0.5-0.8c-0.3-0.5-0.5-1-0.7-1.5
				c-0.3-0.7-0.5-1.3-0.8-2c-0.1-0.2-0.2-0.4-0.3-0.6c0,0,0,0,0,0c0,0,0,0,0,0c0,0,0,0,0,0c0,0.1,0,0.1,0,0.2c0,1.2,0,2.4,0,3.6
				c0,0.5,0,1,0,1.4c0,0.1,0,0.1,0,0.2c0,0.1,0,0.1-0.1,0.1c-0.4,0-0.7,0-1.1,0c0,0-0.1,0-0.1-0.1c0,0,0-0.1,0-0.1
				c0-0.2,0-0.4,0-0.7c0-0.5,0-1.1,0-1.6c0-1,0-2,0-3c0-0.3,0-0.6,0.1-1c0-0.1,0-0.3,0.1-0.4c0-0.2,0.1-0.3,0.3-0.4
				c0.1-0.1,0.2-0.1,0.3-0.1c0.1,0,0.2,0,0.3,0c0.1,0,0.2,0.1,0.3,0.1c0.2,0.1,0.3,0.2,0.4,0.3c0.1,0.1,0.3,0.3,0.4,0.4
				c0.2,0.3,0.4,0.7,0.6,1c0.3,0.5,0.5,1.1,0.7,1.6c0.2,0.6,0.5,1.2,0.7,1.9C63.3,154.8,63.3,155,63.5,155.2
				C63.4,155.1,63.4,155.1,63.5,155.2z"/>
		</g>
		<g>
			<path d="M70.6,157.1c-0.3,0-0.6,0-1,0c-0.1,0-0.1,0-0.2,0c0,0-0.1,0-0.1,0c0-0.3,0-0.5,0-0.8c0,0,0-0.1,0.1-0.1
				c0.1,0,0.2,0,0.2,0c0.1,0,0.2,0,0.3,0c0.1,0,0.1,0,0.1-0.1c0,0,0-0.1,0-0.1c0-0.6,0.1-1.3,0.1-1.9c0-0.6,0-1.1,0.1-1.7
				c0-0.6,0.1-1.2,0.1-1.8c0,0,0-0.1,0-0.1c0,0,0,0-0.1,0c-0.1,0-0.2,0-0.3,0c-0.1,0-0.2,0-0.2-0.1c0-0.2,0-0.5,0-0.7c0,0,0,0,0,0
				c0,0,0-0.1,0.1-0.1c0.1,0,0.1,0,0.2,0c0.7,0,1.4,0,2.1,0c0,0,0.1,0,0.1,0c0,0,0,0,0,0c0,0,0,0,0,0c0,0.2,0,0.5,0,0.7c0,0,0,0,0,0
				c0,0,0,0.1-0.1,0.1c-0.2,0-0.3,0-0.5,0c-0.1,0-0.1,0-0.1,0.1c0,0.1,0,0.1,0,0.2c0,0.8-0.1,1.6-0.1,2.4c0,0.1,0,0.2,0,0.3
				c0,0.8-0.1,1.7-0.1,2.5c0,0.1,0,0.2,0,0.3c0,0,0,0.1,0.1,0.1c0,0,0,0,0.1,0c0.3,0,0.3,0,0.3,0.2c0,0.2,0,0.3,0,0.5
				c0,0,0,0.1,0,0.1c0,0-0.1,0.1-0.1,0.1c-0.1,0-0.2,0-0.2,0C71.2,157.1,70.9,157.1,70.6,157.1C70.6,157.1,70.6,157.1,70.6,157.1z"
				/>
		</g>
		<g>
			<path d="M78.1,154.5C78.1,154.5,78.2,154.5,78.1,154.5c0.1,0,0.1-0.1,0.1-0.1c0.1-0.3,0.2-0.6,0.3-0.9c0.1-0.1,0.1-0.3,0.2-0.4
				c0.1-0.1,0.1-0.2,0.2-0.2c0.2-0.2,0.7-0.2,0.9,0c0.1,0.1,0.1,0.1,0.2,0.2c0,0.1,0.1,0.2,0.1,0.4c0.2,0.5,0.4,1.1,0.5,1.6
				c0.1,0.2,0.1,0.3,0.2,0.5c0,0.1,0,0.1,0.1,0.1c0,0,0.1,0,0.1-0.1c0-0.3,0.1-0.5,0.1-0.8c0-0.5,0.1-1,0.1-1.5c0,0,0-0.1,0-0.1
				c0-0.6,0.1-1.1,0.1-1.7c0-0.6,0-1.2,0.1-1.8c0,0,0-0.1,0-0.1c0-0.1,0-0.1,0.1-0.1c0.3,0,0.7,0,1,0c0,0,0.1,0,0.1,0.1
				c0,0,0,0.1,0,0.1c0,0.4,0,0.9-0.1,1.3c0,0,0,0.1,0,0.1c0,0.7-0.1,1.5-0.1,2.2c0,0.5,0,1-0.1,1.5c0,0.4-0.1,0.8-0.2,1.2
				c0,0.2-0.1,0.3-0.2,0.4c-0.1,0.1-0.2,0.2-0.3,0.3c-0.2,0.2-0.5,0.3-0.8,0.2c-0.1,0-0.2,0-0.3-0.1c-0.1-0.1-0.2-0.1-0.3-0.2
				c-0.2-0.1-0.3-0.3-0.4-0.4c-0.2-0.3-0.3-0.5-0.4-0.8c0,0,0-0.1-0.1-0.1c0,0,0,0,0,0c0,0,0,0,0,0c0,0,0,0,0,0.1
				c-0.1,0.3-0.2,0.5-0.3,0.8c-0.1,0.1-0.2,0.3-0.3,0.4c-0.1,0.1-0.1,0.2-0.2,0.2c0,0-0.1,0.1-0.2,0.1c-0.2,0.1-0.4,0.1-0.6,0
				c-0.2-0.1-0.3-0.2-0.4-0.3c-0.1-0.1-0.1-0.3-0.2-0.4c-0.1-0.2-0.1-0.4-0.2-0.7c0-0.2-0.1-0.5-0.1-0.7c0-0.2-0.1-0.4-0.1-0.7
				c0-0.4-0.1-0.8-0.1-1.2c-0.1-0.8-0.1-1.7-0.1-2.5c0-0.3,0-0.6,0-0.9c0,0,0-0.1,0-0.1c0,0,0,0,0.1,0c0,0,0.1,0,0.1,0
				c0.3,0,0.6,0,0.9,0c0,0,0.1,0,0.1,0c0,0,0.1,0,0.1,0c0,0,0,0.1,0,0.1c0,0.2,0,0.4,0,0.6c0,0.4,0,0.8,0.1,1.2c0,0,0,0.1,0,0.1
				c0,0.6,0.1,1.3,0.1,1.9C78,153.7,78.1,154.1,78.1,154.5C78.1,154.4,78.1,154.4,78.1,154.5z"/>
		</g>
		<g>
			<path d="M83.7,153.1c0-0.1,0-0.1,0-0.1c0-0.1,0-0.2,0-0.3c0-0.4,0.1-0.8,0.2-1.2c0.1-0.3,0.2-0.7,0.5-1c0.2-0.3,0.5-0.5,0.8-0.8
				c0.1-0.1,0.2-0.1,0.3-0.1c0.4-0.1,0.7-0.2,1.1-0.2c0.5,0,1,0.1,1.5,0.3c0.2,0.1,0.4,0.2,0.6,0.4c0.3,0.3,0.6,0.6,0.7,1
				c0.2,0.4,0.3,0.8,0.4,1.2c0.1,0.6,0.1,1.1,0,1.7c0,0.5-0.1,1-0.3,1.5c-0.1,0.2-0.2,0.4-0.3,0.6c-0.1,0.1-0.2,0.3-0.4,0.4
				c-0.4,0.3-0.9,0.5-1.4,0.6c-0.3,0-0.5,0-0.8,0c-0.8,0-1.5-0.2-1.9-0.7c-0.2-0.2-0.4-0.5-0.5-0.7c-0.1-0.3-0.2-0.6-0.3-0.9
				c0-0.2-0.1-0.4-0.1-0.5c0-0.1,0-0.1,0-0.2c0,0,0-0.3,0-0.4C83.7,153.2,83.7,153.3,83.7,153.1z M85,153.4c0,0.2,0,0.5,0,0.7
				c0,0.3,0.1,0.6,0.2,0.9c0.1,0.2,0.1,0.3,0.3,0.5c0.1,0.1,0.2,0.2,0.4,0.3c0.2,0.1,0.3,0.2,0.5,0.2c0.2,0,0.5,0,0.7,0
				c0.1,0,0.1,0,0.2,0c0.3-0.1,0.5-0.2,0.7-0.4c0.1-0.1,0.2-0.2,0.2-0.3c0.1-0.2,0.2-0.4,0.2-0.6c0.1-0.3,0.1-0.6,0.1-0.9
				c0-0.6,0.1-1.2,0-1.8c0-0.3-0.1-0.5-0.2-0.8c-0.1-0.2-0.2-0.3-0.3-0.5c-0.1-0.1-0.2-0.2-0.4-0.3c-0.2-0.1-0.4-0.2-0.6-0.3
				c-0.2,0-0.4,0-0.6,0c-0.2,0-0.3,0.1-0.5,0.2c-0.1,0.1-0.2,0.2-0.3,0.4c-0.2,0.2-0.3,0.5-0.3,0.7C85.1,152.1,85,152.8,85,153.4z"
				/>
		</g>
		<g>
			<path d="M96.3,151.7c0,0.4,0,0.8,0,1.3c0,0.4-0.1,0.9-0.1,1.3c0,0.3-0.1,0.6-0.2,0.9c0,0.2-0.1,0.4-0.2,0.6
				c-0.1,0.2-0.3,0.5-0.5,0.7c-0.4,0.3-0.8,0.5-1.3,0.5c-0.7,0.1-1.3-0.1-1.8-0.4c-0.3-0.2-0.5-0.4-0.6-0.7
				c-0.1-0.2-0.1-0.4-0.1-0.6c-0.1-0.4-0.1-0.8-0.2-1.2c0-0.2-0.1-0.5-0.1-0.8c0-0.5-0.1-1-0.1-1.5c0-0.7-0.1-1.4-0.1-2.1
				c0-0.1,0-0.1,0-0.2c0-0.1,0-0.1,0.2-0.1c0.3,0,0.7,0,1,0c0.1,0,0.1,0,0.1,0.1c0,0.1,0,0.2,0,0.2c0,0.7,0,1.4,0.1,2.1
				c0,0.4,0,0.8,0.1,1.1c0,0.5,0.1,1,0.1,1.5c0,0.4,0.1,0.7,0.2,1.1c0,0.1,0.1,0.2,0.1,0.4c0.1,0.2,0.4,0.3,0.7,0.4
				c0.1,0,0.3,0,0.4-0.1c0.2-0.1,0.3-0.2,0.4-0.3c0.1-0.1,0.1-0.2,0.2-0.3c0.1-0.2,0.1-0.5,0.2-0.7c0.1-0.5,0.1-0.9,0.2-1.4
				c0.1-0.9,0.1-1.7,0.1-2.6c0-0.4,0-0.8,0-1.2c0-0.1,0-0.1,0-0.2c0,0,0-0.1,0.1-0.1c0.3,0,0.7,0,1,0c0.1,0,0.1,0,0.1,0.1
				c0,0,0,0.1,0,0.1C96.3,150.2,96.3,150.9,96.3,151.7C96.3,151.7,96.3,151.7,96.3,151.7z"/>
		</g>
		<g>
			<path d="M97.7,153.3c0-1.4,0-2.5,0-3.6c0,0,0-0.1,0-0.1c0-0.2,0-0.2,0.2-0.2c0.3,0,0.6,0,0.9,0c0.1,0,0.1,0,0.1,0.1
				c0,0.1,0,0.1,0,0.2c0,1.3,0,2.6,0,3.9c0,0.7,0,1.3,0,2c0,0.2,0,0.3,0,0.5c0,0,0,0.1,0.1,0.1c0,0,0.1,0,0.1,0c0.1,0,0.2,0,0.2,0
				c0.5,0,1,0,1.5,0c0.1,0,0.2,0,0.4,0c0,0,0.1,0,0.1,0.1c0,0,0,0,0,0.1c0,0.2,0,0.4,0,0.6c0,0,0,0,0,0.1c0,0,0,0.1-0.1,0.1
				c-0.1,0-0.2,0-0.2,0c-0.4,0-0.7,0-1.1,0c-0.2,0-0.3,0-0.5,0c-0.3,0-0.6,0-0.9,0c-0.1,0-0.3,0-0.4,0c-0.1,0-0.2-0.1-0.3-0.1
				c-0.1-0.1-0.2-0.1-0.2-0.2c0-0.2-0.1-0.4-0.1-0.5C97.7,155.1,97.7,154,97.7,153.3z"/>
		</g>
		<g>
			<path d="M102.3,153.1c0-1.2,0-2.3,0-3.5c0,0,0-0.1,0-0.1c0-0.1,0.1-0.1,0.2-0.1c0.3,0,0.6,0,0.9,0c0.4,0,0.8,0.1,1.2,0.2
				c0.2,0,0.4,0.1,0.6,0.2c1,0.3,1.7,0.8,2.1,1.5c0.2,0.3,0.3,0.6,0.4,1c0.1,0.3,0.1,0.6,0.1,0.9c0,0.7-0.2,1.3-0.6,1.9
				c-0.3,0.4-0.6,0.7-1.1,1c-0.5,0.3-1.1,0.6-1.8,0.7c-0.3,0-0.5,0.1-0.8,0.1c-0.3,0-0.6,0-0.8,0c-0.1,0-0.1,0-0.2,0
				c0,0-0.1,0-0.1-0.1c0,0,0-0.1,0-0.1C102.2,155.5,102.3,154.3,102.3,153.1C102.3,153.1,102.3,153.1,102.3,153.1z M103.6,153.2
				C103.6,153.2,103.6,153.2,103.6,153.2c0,0.1,0,0.2,0,0.3c0,0.7,0,1.4,0,2.1c0,0.1,0,0.2,0,0.2c0,0,0,0,0,0.1c0,0,0,0,0,0
				c0.1,0,0.2,0,0.3,0c0.4-0.1,0.7-0.2,1-0.3c0.3-0.2,0.6-0.4,0.8-0.6c0.5-0.6,0.7-1.2,0.8-1.8c0-0.3,0-0.6-0.1-0.9
				c-0.1-0.2-0.2-0.5-0.3-0.7c-0.2-0.3-0.6-0.6-1.1-0.8c-0.3-0.1-0.5-0.2-0.8-0.2c-0.4-0.1-0.4-0.1-0.4,0.2
				C103.6,151.5,103.6,152.3,103.6,153.2z"/>
		</g>
		<g>
			<path d="M112.8,155c0.2,0,0.3,0,0.5,0c0.1,0,0.1,0,0.1,0.1c0,0.1,0,0.3,0.1,0.4c0,0.1,0.1,0.2,0.2,0.3c0.2,0.2,0.4,0.3,0.8,0.3
				c0.3,0,0.6-0.1,0.9-0.2c0.1-0.1,0.2-0.1,0.3-0.2c0.2-0.4,0.2-0.8-0.2-1.2c-0.1-0.1-0.3-0.2-0.5-0.3c-0.2-0.1-0.5-0.2-0.7-0.4
				c-0.2-0.1-0.4-0.2-0.5-0.2c-0.2-0.1-0.3-0.1-0.5-0.2c-0.5-0.2-0.8-0.5-1.1-0.8c-0.2-0.3-0.3-0.6-0.3-1c0-0.3,0-0.6,0.1-0.9
				c0.1-0.2,0.3-0.5,0.5-0.7c0.4-0.3,0.9-0.6,1.5-0.6c0.3,0,0.5,0,0.8,0c0.4,0.1,0.7,0.2,1,0.4c0.2,0.2,0.3,0.3,0.4,0.5
				c0.1,0.3,0.2,0.6,0.2,0.8c0,0,0,0.1-0.1,0.1c0,0,0,0,0,0c-0.3,0-0.7,0-1,0c-0.1,0-0.1,0-0.2-0.1c0-0.1,0-0.3-0.1-0.4
				c0-0.1-0.1-0.2-0.2-0.3c-0.1-0.1-0.2-0.2-0.4-0.2c-0.1,0-0.1,0-0.2,0c-0.4,0-0.6,0.2-0.8,0.4c-0.1,0.1-0.2,0.3-0.2,0.4
				c-0.1,0.3-0.1,0.7,0.1,1c0,0.1,0.1,0.1,0.1,0.2c0.1,0.1,0.2,0.3,0.4,0.3c0.2,0.1,0.4,0.2,0.7,0.3c0.3,0.1,0.6,0.3,0.9,0.4
				c0.3,0.1,0.6,0.3,0.8,0.5c0.2,0.2,0.4,0.3,0.6,0.5c0.2,0.3,0.3,0.7,0.3,1.1c0,0.2-0.1,0.4-0.2,0.6c-0.3,0.6-0.8,0.9-1.7,1.1
				c-1.1,0.2-2.3-0.1-2.8-0.9c-0.2-0.3-0.3-0.6-0.3-0.9c0-0.1,0-0.1,0.1-0.1C112.4,155,112.6,155,112.8,155
				C112.8,155,112.8,155,112.8,155z"/>
		</g>
		<g>
			<path d="M118.1,152.9c0-0.4,0-0.8,0-1.1c0-0.7,0-1.4,0.1-2.1c0,0,0-0.1,0-0.1c0-0.1,0-0.1,0.1-0.1c0,0,0.1,0,0.1,0c1,0,2,0,3,0
				c0.1,0,0.1,0,0.2,0c0,0,0.1,0,0.1,0.1c0,0,0,0,0,0c0,0.2,0,0.5,0,0.7c0,0.1,0,0.1-0.2,0.1c-0.1,0-0.2,0-0.3,0c-0.5,0-1,0-1.5,0
				c-0.1,0-0.2,0-0.2,0c0,0,0,0,0,0c0,0,0,0,0,0c0,0,0,0,0,0.1c0,0.8,0,1.6-0.1,2.3c0,0,0,0.1,0,0.1c0,0.1,0,0.1,0.1,0.1
				c0.5,0,1,0,1.5,0c0.5,0,0.4,0,0.4,0.3c0,0.2,0,0.3,0,0.5c0,0,0,0.1-0.1,0.1c-0.1,0-0.2,0-0.3,0c-0.5,0-0.9,0-1.4,0
				c-0.1,0-0.2,0-0.2,0c0,0-0.1,0-0.1,0.1c0,0,0,0.1,0,0.1c0,0.6,0,1.2,0,1.8c0,0,0,0.1,0,0.1c0,0,0,0,0.1,0c0.1,0,0.2,0,0.2,0
				c0.5,0,1.1,0,1.6,0c0.1,0,0.2,0,0.3,0c0,0,0.1,0,0.1,0.1c0,0,0,0,0,0.1c0,0.2,0,0.4,0,0.7c0,0,0,0,0,0c0,0-0.1,0.1-0.1,0.1
				c-0.2,0-0.4,0-0.6,0c-0.6,0-1.1,0-1.7,0c-0.2,0-0.4,0-0.7,0c-0.3,0-0.4-0.1-0.5-0.4c0-0.2-0.1-0.3-0.1-0.5c0-0.5,0-1.1,0-1.6
				c0-0.3,0-0.5,0-0.8C118.1,153.5,118.1,153.2,118.1,152.9C118.1,152.9,118.1,152.9,118.1,152.9z"/>
		</g>
		<g>
			<path d="M123,152.9c0-0.4,0-0.8,0-1.1c0-0.7,0-1.4,0.1-2.1c0,0,0-0.1,0-0.1c0-0.1,0-0.1,0.1-0.1c0,0,0.1,0,0.1,0c1,0,2,0,3,0
				c0.1,0,0.1,0,0.2,0c0,0,0.1,0,0.1,0.1c0,0,0,0,0,0c0,0.2,0,0.5,0,0.7c0,0.1,0,0.1-0.2,0.1c-0.1,0-0.2,0-0.3,0c-0.5,0-1,0-1.5,0
				c-0.1,0-0.2,0-0.2,0c0,0,0,0,0,0c0,0,0,0,0,0c0,0,0,0,0,0.1c0,0.8,0,1.6-0.1,2.3c0,0,0,0.1,0,0.1c0,0.1,0,0.1,0.1,0.1
				c0.5,0,1,0,1.5,0c0.5,0,0.4,0,0.4,0.3c0,0.2,0,0.3,0,0.5c0,0,0,0.1-0.1,0.1c-0.1,0-0.2,0-0.3,0c-0.5,0-0.9,0-1.4,0
				c-0.1,0-0.2,0-0.2,0c0,0-0.1,0-0.1,0.1c0,0,0,0.1,0,0.1c0,0.6,0,1.2,0,1.8c0,0,0,0.1,0,0.1c0,0,0,0,0.1,0c0.1,0,0.2,0,0.2,0
				c0.5,0,1.1,0,1.6,0c0.1,0,0.2,0,0.3,0c0,0,0.1,0,0.1,0.1c0,0,0,0,0,0.1c0,0.2,0,0.4,0,0.7c0,0,0,0,0,0c0,0-0.1,0.1-0.1,0.1
				c-0.2,0-0.4,0-0.6,0c-0.6,0-1.1,0-1.7,0c-0.2,0-0.4,0-0.7,0c-0.3,0-0.4-0.1-0.5-0.4c0-0.2-0.1-0.3-0.1-0.5c0-0.5,0-1.1,0-1.6
				c0-0.3,0-0.5,0-0.8C123,153.5,123,153.2,123,152.9C123,152.9,123,152.9,123,152.9z"/>
		</g>
	</g>
	<g>
		<g>
			<path d="M29.2,178.4l-3.8-11.6h3.4l2.2,7.4H31l2.2-7.4h3.1l-3.8,11.6v8.6h-3.2V178.4z"/>
		</g>
		<g>
			<path d="M38.2,186c-0.8-0.9-1.2-2.1-1.2-3.8v-10.6c0-1.6,0.4-2.9,1.2-3.8c0.8-0.9,2-1.3,3.6-1.3c1.6,0,2.8,0.4,3.6,1.3
				c0.8,0.9,1.2,2.1,1.2,3.8v10.6c0,1.6-0.4,2.9-1.2,3.8c-0.8,0.9-2,1.3-3.6,1.3C40.2,187.3,39,186.9,38.2,186z M43.4,182.4v-11
				c0-1.3-0.5-2-1.6-2c-1.1,0-1.6,0.7-1.6,2v11c0,1.3,0.5,2,1.6,2C42.9,184.4,43.4,183.8,43.4,182.4z"/>
		</g>
		<g>
			<path d="M49.8,186c-0.8-0.9-1.2-2.1-1.2-3.8v-15.4h3.2v15.7c0,0.7,0.1,1.2,0.4,1.5c0.3,0.3,0.7,0.5,1.2,0.5
				c0.5,0,0.9-0.2,1.2-0.5c0.3-0.3,0.4-0.8,0.4-1.5v-15.7h3.1v15.4c0,1.6-0.4,2.9-1.2,3.8c-0.8,0.9-2,1.3-3.5,1.3
				C51.8,187.3,50.7,186.9,49.8,186z"/>
		</g>
		<g>
			<path d="M60.4,166.8h4.7c1.6,0,2.8,0.4,3.6,1.1c0.8,0.8,1.1,1.9,1.1,3.5v1.2c0,2.1-0.7,3.4-2.1,4v0.1c0.8,0.2,1.3,0.7,1.6,1.4
				c0.3,0.7,0.5,1.7,0.5,2.9v3.6c0,0.6,0,1,0.1,1.4c0,0.4,0.1,0.7,0.3,1.1h-3.2c-0.1-0.3-0.2-0.6-0.2-0.9c0-0.3-0.1-0.8-0.1-1.6
				v-3.7c0-0.9-0.1-1.6-0.4-1.9c-0.3-0.4-0.8-0.5-1.5-0.5h-1.1v8.7h-3.2V166.8z M64.7,175.5c0.6,0,1.1-0.2,1.4-0.5
				c0.3-0.3,0.5-0.9,0.5-1.6v-1.6c0-0.7-0.1-1.3-0.4-1.6c-0.3-0.3-0.7-0.5-1.2-0.5h-1.4v5.8H64.7z"/>
		</g>
		<g>
			<path d="M76.6,166.8h4.7c1.6,0,2.8,0.4,3.6,1.3c0.8,0.8,1.2,2.1,1.2,3.7v2c0,1.6-0.4,2.9-1.2,3.7c-0.8,0.8-2,1.3-3.6,1.3h-1.5
				v8.2h-3.2V166.8z M81.3,175.9c0.5,0,0.9-0.1,1.2-0.4c0.3-0.3,0.4-0.8,0.4-1.5v-2.4c0-0.7-0.1-1.2-0.4-1.5
				c-0.3-0.3-0.7-0.4-1.2-0.4h-1.5v6.2H81.3z"/>
		</g>
		<g>
			<path d="M87.8,166.8H91V187h-3.2V166.8z"/>
		</g>
		<g>
			<path d="M94.4,186c-0.8-0.9-1.2-2.1-1.2-3.7v-10.9c0-1.6,0.4-2.8,1.2-3.7c0.8-0.9,2-1.3,3.5-1.3c1.5,0,2.7,0.4,3.5,1.3
				c0.8,0.9,1.2,2.1,1.2,3.7v2.1h-3v-2.3c0-1.3-0.5-1.9-1.6-1.9c-1.1,0-1.6,0.6-1.6,1.9v11.3c0,1.2,0.5,1.9,1.6,1.9
				c1.1,0,1.6-0.6,1.6-1.9v-3.1h3v2.9c0,1.6-0.4,2.8-1.2,3.7s-2,1.3-3.5,1.3C96.3,187.3,95.2,186.9,94.4,186z"/>
		</g>
		<g>
			<path d="M106.9,169.7h-3.3v-2.9h9.8v2.9h-3.3V187h-3.2V169.7z"/>
		</g>
		<g>
			<path d="M116.1,186c-0.8-0.9-1.2-2.1-1.2-3.8v-15.4h3.2v15.7c0,0.7,0.1,1.2,0.4,1.5c0.3,0.3,0.7,0.5,1.2,0.5s0.9-0.2,1.2-0.5
				c0.3-0.3,0.4-0.8,0.4-1.5v-15.7h3.1v15.4c0,1.6-0.4,2.9-1.2,3.8c-0.8,0.9-2,1.3-3.5,1.3C118,187.3,116.9,186.9,116.1,186z"/>
		</g>
		<g>
			<path d="M126.6,166.8h4.7c1.6,0,2.8,0.4,3.6,1.1c0.8,0.8,1.1,1.9,1.1,3.5v1.2c0,2.1-0.7,3.4-2.1,4v0.1c0.8,0.2,1.3,0.7,1.6,1.4
				c0.3,0.7,0.5,1.7,0.5,2.9v3.6c0,0.6,0,1,0.1,1.4c0,0.4,0.1,0.7,0.3,1.1h-3.2c-0.1-0.3-0.2-0.6-0.2-0.9c0-0.3-0.1-0.8-0.1-1.6
				v-3.7c0-0.9-0.1-1.6-0.4-1.9c-0.3-0.4-0.8-0.5-1.5-0.5h-1.1v8.7h-3.2V166.8z M130.9,175.5c0.6,0,1.1-0.2,1.4-0.5
				c0.3-0.3,0.5-0.9,0.5-1.6v-1.6c0-0.7-0.1-1.3-0.4-1.6c-0.3-0.3-0.7-0.5-1.2-0.5h-1.4v5.8H130.9z"/>
		</g>
		<g>
			<path d="M138.2,166.8h8.7v2.9h-5.5v5.3h4.4v2.9h-4.4v6.2h5.5v2.9h-8.7V166.8z"/>
		</g>
	</g>
</g>
</svg>
