<?xml version="1.0" encoding="utf-8"?>
<!-- Generator: Adobe Illustrator 25.2.1, SVG Export Plug-In . SVG Version: 6.00 Build 0)  -->
<svg version="1.1" id="Layer_1" xmlns="http://www.w3.org/2000/svg" xmlns:xlink="http://www.w3.org/1999/xlink" x="0px" y="0px"
	 viewBox="0 0 180 213" style="enable-background:new 0 0 180 213;" xml:space="preserve">
<style type="text/css">
	.st0{fill:#1B1B1B;}
	.st1{fill:#FFFFFF;}
	.st2{fill:#292929;}
	.st3{fill:none;stroke:#000000;stroke-width:0.25;}
	.st4{fill:none;stroke:#000000;stroke-width:0.5;stroke-miterlimit:10;}
	.st5{stroke:#000000;stroke-width:0.25;stroke-miterlimit:10;}
	.st6{fill:none;stroke:#000000;stroke-miterlimit:10;}
	.st7{stroke:#000000;stroke-miterlimit:10;}
	.st8{fill:none;stroke:#000000;stroke-width:0.25;stroke-miterlimit:10;}
</style>
<g>
	<g>
		<path d="M119.4,26.5c0-0.6-0.1-1.2-0.1-1.9c-0.3-1.7-0.7-3.4-1.3-5.1c-0.2-0.5-0.4-1.1-0.7-1.6c-2.6-5.1-7.2-11.8-14.4-14.9
			c-0.6-0.3-1.3-0.5-1.9-0.7c-2-0.7-4.1-1.1-6.1-1.2c-0.7,0-1.4-0.1-2.1,0c-0.4,0-0.7,0-1.1,0c-0.5-0.3-1.2-0.3-1.8-0.1
			c-0.2,0.1-0.4,0.2-0.6,0.3c-0.8,0.1-1.5,0.3-2.3,0.4c-0.3-0.7-0.9-1.2-1.7-1.5c-0.9-0.3-1.9-0.3-2.8,0.1c-1.4,0.6-2.4,2.2-2.7,4
			c0,0,0,0,0,0c-0.4,0.2-0.9,0.5-1.3,0.7c0-0.1-0.1-0.1-0.1-0.2c-0.2-0.3-0.4-0.5-0.6-0.7c-0.3-0.2-0.7-0.3-1-0.2
			c-0.5,0.1-1,0.5-1.3,1c-0.3,0.5-0.4,1-0.5,1.6C75,6.8,75,7.1,74.9,7.3c-0.2,0.7-0.7,1.4-1.3,1.4c-0.5,0.1-1-0.3-1.4-0.6
			c-0.4-0.3-0.9-0.6-1.4-0.7c-0.8-0.1-1.6,0.2-2.1,1c-0.4,0.6-0.6,1.3-0.6,2.2l0,0.3c0,0.9,0,1.8-0.7,2.2c-0.2,0.1-0.5,0.2-0.8,0.3
			c-0.2,0-0.5,0.1-0.7,0.2c-1,0.4-1.6,1.5-1.7,2.9c0,0.6,0,1.1,0.1,1.7c-0.2,0.1-0.3,0.2-0.5,0.3c-0.3,0.4-0.1,0.8,0,1.2l0,0.1
			c0.1,0.2,0.1,0.4,0,0.5c0,0,0,0-0.1,0c-0.1,0-0.2-0.1-0.2-0.2L63.3,20c-0.4-0.3-0.9-0.4-1.3-0.3c-0.3,0.1-0.5,0.3-0.6,0.6
			c-0.1,0.2-0.1,0.5,0.1,0.7c0.1,0.2,0.3,0.3,0.5,0.4c0.1,0,0.1,0.1,0.2,0.1c0.1,0.1,0.3,0.2,0.2,0.3c0,0.1-0.2,0.1-0.3,0.1l-0.1,0
			c-0.8,0.2-1.3,0.9-1.4,1.7c-0.1,0.4,0.1,0.9,0.3,1.3c-0.3,0.4-0.6,0.8-0.8,1.3c-0.5,1.1-0.7,2.5-0.5,4c0.1,1,0.3,1.9,0.7,2.7
			c-0.1,1.7,0.1,3.4,0.4,5c0.2,0.4,0.5,0.8,1,1.1c1.2,0.9,3,1,4.4,1.1c4.2,0.1,8.6,0.2,13.1,0.3c3.3,0.1,6.4,0.1,9.4,0.1
			c5.2,0,9.8-0.1,14.2-0.3c2-0.1,4-0.2,6-0.3c0.3,0,0.6,0,0.9,0c1,0,2.2,0,3.1-0.6c1.1-0.6,1.9-1.8,2.4-3.5c0.4-0.1,0.8-0.2,1.1-0.4
			C119.4,33.6,119.4,28.1,119.4,26.5z M98.1,3.7c0.3,0,0.5,0,0.8,0c0.2,0,0.4,0,0.5,0c0.3,0.1,0.6,0.2,0.9,0.3
			c0.1,0.1,0.3,0.1,0.4,0.1c0.4,0.2,0.8,0.4,1.2,0.8c0.3,0.3,0.6,0.6,0.8,0.9c0.1,0.1,0.1,0.2,0.2,0.4c0.1,0.2,0.2,0.4,0.3,0.6
			l-0.1,0.5C103.1,7.2,103,7,103,6.8l0-0.1c-0.1-0.3-0.2-0.7-0.5-0.9c-0.2-0.2-0.5-0.3-0.8-0.3c-0.2,0-0.4,0.1-0.5,0.3
			c-0.4,0.5,0.1,1.1,0.2,1.4c0.1,0.2,0.3,0.4,0.4,0.6c0,0.1,0.1,0.1,0.1,0.2c0,0.1,0,0.1,0.1,0.2c-0.6-0.3-1.1-0.6-1.7-0.9
			c-0.1-0.3-0.3-0.6-0.5-0.8c-0.5-0.7-1.1-1.4-2-2.1c-0.2-0.2-0.4-0.3-0.6-0.5c0.2,0,0.3-0.1,0.5-0.1C97.7,3.8,97.9,3.7,98.1,3.7z
			 M104.9,8.2c0.1,0.2,0.3,0.2,0.5,0.3c0.2,0,0.4-0.1,0.6-0.2c0.1-0.1,0.1-0.1,0.2-0.2c0.1-0.1,0.1-0.2,0.2-0.2
			c0.1-0.1,0.1-0.1,0.2-0.1c0.2,0.1,0.3,0.5,0.3,1.4c0,0.1,0,0.2,0,0.2c0,0.1,0,0.2,0,0.4c0,0.6,0,1.1-0.1,1.6
			c0,0.2-0.1,0.3-0.2,0.5c-0.5-0.4-0.9-0.8-1.4-1.2c-0.2-0.2-0.4-0.3-0.6-0.5c-0.7-0.6-1.4-1.1-2.2-1.6c0,0,0,0,0-0.1
			c0-0.3-0.1-0.6-0.3-0.8c0,0,0,0,0-0.1c-0.1-0.3-0.3-0.5-0.5-0.7c-0.3-0.4-0.4-0.7-0.2-0.8c0-0.1,0.1-0.1,0.2-0.1
			c0.1,0,0.3,0,0.4,0.1c0.2,0.2,0.3,0.5,0.4,0.8l0,0.1c0.1,0.4,0.3,0.8,0.7,1l0.3,0.1l0.1-0.4l0,0l0.1-0.7l0.1-0.2l0,0l0.1-0.5
			c0-0.1,0.1-0.3,0.1-0.3c0.1-0.1,0.1-0.1,0.2-0.1c0.1,0,0.3,0.1,0.4,0.2c0.2,0.3,0.1,0.6,0.1,1l0,0.1C104.7,7.6,104.7,8,104.9,8.2z
			 M108.3,10.2c0.2,0.1,0.4,0.2,0.6,0.3c0.1,0.1,0.2,0.1,0.4,0.2c0.2,0.1,0.4,0.3,0.7,0.4c0.1,0,0.2,0.1,0.2,0.1
			c0.3,0.2,0.5,0.4,0.7,0.5c0.9,0.7,1.5,1.3,1.9,2c0.9,1.3,1.3,3,1.1,4.6c-0.1,0.5-0.2,0.9-0.4,1.4c0,0,0,0.1,0,0.1l-0.9,0
			c-0.3-0.5-0.6-1-0.9-1.5c-0.1-0.2-0.2-0.4-0.3-0.5c-0.5-0.7-0.9-1.3-1.4-2c-0.1-0.1-0.1-0.2-0.2-0.3c-0.4-0.5-0.8-1.1-1.3-1.6
			c-0.2-0.2-0.3-0.4-0.5-0.6c-0.3-0.4-0.6-0.7-1-1c0.1-0.3,0.2-0.5,0.2-0.8c0.1-0.4,0.1-0.9,0.1-1.3c0,0,0-0.1,0-0.1
			c0.2,0,0.3,0.1,0.5,0.1C108,10.2,108.2,10.2,108.3,10.2z M116.3,25c-0.3,0.5-0.6,1-0.5,1.6c0,0.1,0,0.1,0,0.2l0.1,0.1c0,0,0,0,0,0
			c0.1,0.2,0.2,0.3,0.3,0.3l0,0l0.1,0l0,0c0.2,0,0.3-0.2,0.3-0.2c0,0,0.1-0.1,0.1-0.1c0,0,0,0,0.1,0c0.1,0.1,0.1,0.2,0.1,0.2
			c0,0.1-0.1,0.2-0.2,0.3c-0.1,0.1-0.2,0.2-0.3,0.3c-0.1,0.1-0.2,0.1-0.2,0.2c-0.1,0.2-0.2,0.3-0.2,0.5c0,0.1,0,0.2,0.1,0.2
			c0,0.1,0.1,0.1,0.2,0.2c0.4,0.3,0.5,1,0.2,1.5c-0.1,0.2-0.2,0.3-0.4,0.4c-0.1,0-0.1,0.1-0.2,0.1c-0.1,0-0.1,0.1-0.2,0.1
			c0-0.1,0-0.2,0-0.3c0-0.6-0.1-1.2-0.1-1.9c-0.1-0.5-0.2-1.1-0.3-1.6c0-0.1-0.1-0.3-0.1-0.4c-0.1-0.4-0.2-0.8-0.3-1.1
			c0.1-0.2,0.3-0.3,0.4-0.5c0,0,0-0.1,0.1-0.1c0.1-0.1,0.1-0.1,0.2-0.2c0.1-0.1,0.3-0.2,0.4-0.2c0.1,0,0.3,0,0.3,0.1
			C116.5,24.6,116.4,24.8,116.3,25z M116.9,32.4c-0.3,0.3-0.7,0.6-1.1,0.9c0,0-0.1,0.1-0.1,0.1c0-0.1,0-0.2,0-0.2
			c0.1-0.6,0.1-1.1,0.1-1.7c0-0.1,0-0.2,0-0.2c0.1,0,0.3-0.1,0.4-0.2c0.1,0,0.2-0.1,0.2-0.1c0.2-0.1,0.4-0.3,0.5-0.5
			c0.4-0.7,0.3-1.6-0.3-2.1c0,0,0,0,0,0c0,0,0,0,0-0.1c0,0,0,0,0,0c0-0.1,0.1-0.1,0.2-0.2c0.1,0,0.1-0.1,0.2-0.2
			c0.1,0,0.1,0.1,0.2,0.2c0.1,0,0.1,0.1,0.2,0.1c0.1,0.1,0.3,0.3,0.4,0.5C118.5,29.8,117.9,31.4,116.9,32.4z M115.4,23.7
			c0,0.1-0.1,0.2-0.1,0.3c-0.1,0.1-0.1,0.3-0.2,0.4c-0.1,0.1-0.2,0.2-0.3,0.3c-0.1-0.5-0.3-0.9-0.4-1.3c-0.2-0.5-0.4-1.1-0.6-1.6
			l0,0c-0.3-0.5-0.6-1.1-0.9-1.6l0.9,0l0.5,0c0.4,0,0.7,0,0.9,0.2c0.2,0.1,0.3,0.3,0.4,0.7C115.8,21.9,115.8,22.9,115.4,23.7z
			 M96.4,4L96.4,4c0.4,0.2,0.7,0.5,1,0.7c0.9,0.7,1.5,1.3,1.9,2c0,0.1,0.1,0.1,0.1,0.2c0,0-0.1,0-0.1-0.1c-0.6-0.3-1.3-0.5-1.9-0.7
			c-2-0.7-4.1-1.1-6.1-1.2c-0.5,0-1.1,0-1.6,0c0,0,0,0-0.1,0c0-0.1,0.1-0.1,0.1-0.2c0.1-0.1,0.1-0.2,0.2-0.3
			c0.1-0.1,0.2-0.2,0.3-0.4c0.1-0.1,0.1-0.1,0.2-0.2c0.1-0.1,0.3-0.2,0.4-0.3c0.1,0,0.1-0.1,0.2-0.1c0.2-0.1,0.4-0.2,0.7-0.3
			C92.1,3,92.3,3,92.6,2.9C93.7,2.8,95,3.2,96.4,4z M88.2,2.3c-0.1,0.1-0.2,0.3-0.3,0.3c-0.1,0-0.2,0-0.2-0.1c0,0,0,0-0.1-0.1
			c-0.1-0.1-0.2-0.2-0.2-0.3c0,0,0,0,0,0c0.4-0.1,0.9-0.2,1.3-0.3C88.5,2,88.3,2.2,88.2,2.3z M79.8,5c-0.1,0.2-0.1,0.3-0.2,0.4
			c0,0,0,0-0.1,0.1c-0.1,0.1-0.2,0.1-0.3,0.1c-0.1,0-0.2,0-0.3-0.1c0,0,0,0,0,0C79.2,5.3,79.5,5.1,79.8,5C79.8,5,79.8,5,79.8,5z
			 M65.9,13.9c0.2-0.1,0.4-0.1,0.6-0.1c0.3-0.1,0.7-0.1,1-0.3c0.8-0.5,0.9-1.6,0.9-2.6l0-0.3c0-0.8,0.2-1.5,0.6-2
			c0.4-0.6,1.1-0.9,1.7-0.8c0.4,0.1,0.8,0.4,1.2,0.7c0.5,0.4,1.1,0.8,1.8,0.7c0.9-0.1,1.5-1,1.8-1.8c0.1-0.3,0.1-0.5,0.2-0.8
			c0.1-0.5,0.2-1,0.5-1.4c0.2-0.4,0.6-0.7,1-0.7c0.2,0,0.4-0.1,0.7,0.1C77.8,4.7,78,5,78.2,5.2c0,0,0.1,0.1,0.1,0.1l0,0l0.2,0.2
			C78.6,5.8,78.8,6,79.3,6c0,0,0,0,0,0h0c0.8,0,1-1.1,1.1-1.5c0,0,0,0,0,0l0-0.2c0.3-1.6,1.2-3,2.4-3.6c0.7-0.3,1.6-0.4,2.4-0.1
			c0.7,0.2,1.2,0.7,1.4,1.2l0.1,0.1c0,0.1,0.1,0.2,0.2,0.3c0,0,0,0,0,0c0.1,0.1,0.1,0.2,0.2,0.3c0,0,0.1,0,0.1,0.1
			C87.3,2.9,87.4,3,87.5,3c0,0,0.1,0,0.2,0c0.1,0,0.1,0,0.2,0c0.1,0,0.1,0,0.2,0c0.3-0.1,0.4-0.3,0.6-0.4c0.3-0.3,0.6-0.7,1-1
			c0.2-0.1,0.4-0.2,0.5-0.3c0.5-0.2,1.1-0.2,1.5,0.1c0.1,0.1,0.2,0.1,0.3,0.2c0.1,0.1,0.2,0.3,0.3,0.4c0,0.1,0,0.1,0.1,0.2
			c0,0.1,0,0.2,0.1,0.2c-0.2,0-0.4,0.1-0.6,0.1c-0.3,0.1-0.5,0.2-0.8,0.3c-0.1,0-0.2,0.1-0.2,0.2c-0.2,0.1-0.3,0.2-0.5,0.3
			c-0.1,0.1-0.2,0.2-0.3,0.3c-0.1,0.1-0.3,0.2-0.4,0.4c-0.1,0.1-0.1,0.2-0.2,0.3c-0.1,0.1-0.2,0.3-0.3,0.4c-0.5,0-0.9,0.1-1.4,0.1
			c-0.4,0-0.8,0-1.2,0.1C86,5.1,85.5,5.2,85,5.3c-0.3,0.1-0.6,0.1-1,0.2c-0.6,0.1-1.1,0.3-1.7,0.5C82,6,81.8,6.1,81.5,6.2
			c-0.8,0.3-1.6,0.6-2.4,0.9c-0.6,0.2-1.2,0.4-1.7,0.7c-2.9,1.3-5.4,3.2-7.6,5.6c-0.5,0.5-1,1.1-1.5,1.6c-0.5,0.6-0.9,1.1-1.4,1.8
			c-0.1,0.2-0.3,0.4-0.4,0.6c-0.3,0.4-0.6,0.8-0.9,1.2c0,0,0,0-0.1,0c-0.3-0.3-0.7-0.5-1-0.5c0,0,0,0,0,0c-0.1-0.5-0.1-1-0.1-1.6
			C64.5,16,64.7,14.3,65.9,13.9z M62.2,22.4L62.2,22.4c0.3-0.1,0.5-0.2,0.7-0.4c0.2-0.4-0.1-0.7-0.4-0.9c-0.1,0-0.1-0.1-0.2-0.1
			c-0.1-0.1-0.3-0.1-0.4-0.3c-0.1-0.1,0-0.2,0-0.3c0-0.1,0.2-0.3,0.3-0.3c0.1,0,0.1,0,0.2,0c0.2,0,0.4,0.1,0.6,0.2l0.1,0
			c0.1,0.1,0.3,0.3,0.5,0.3c0,0,0,0,0,0c0.2,0,0.3-0.1,0.4-0.2c0.2-0.3,0.1-0.7,0-0.9l0-0.1c-0.1-0.3-0.2-0.6-0.1-0.7
			c0.1-0.1,0.3-0.2,0.4-0.2c0.1,0,0.3,0,0.5,0.1c0.1,0,0.1,0.1,0.2,0.1c0.1,0.1,0.2,0.1,0.3,0.2c-0.7,1-1.3,2.1-1.9,3.2
			c-0.3,0.6-0.6,1.2-0.9,1.8c-0.2,0.5-0.4,0.9-0.6,1.4c-0.1,0-0.1,0-0.2-0.1c-0.2-0.1-0.3-0.3-0.4-0.4c-0.2-0.3-0.3-0.7-0.3-1.1
			C61.2,23.1,61.6,22.6,62.2,22.4z M60.6,26.4c0.2-0.4,0.4-0.7,0.6-1.1c0.1,0.1,0.2,0.2,0.4,0.3c0.1,0.1,0.2,0.1,0.2,0.1
			c0,0.1,0,0.1-0.1,0.2c-0.3,0.8-0.5,1.6-0.7,2.5c0,0.2-0.1,0.3-0.1,0.5c-0.2,0.9-0.3,1.7-0.4,2.5c0,0.1,0,0.2,0,0.2
			c-0.1-0.5-0.3-1.1-0.3-1.6C59.9,28.7,60.1,27.5,60.6,26.4z M112.5,39c-0.8,0.5-1.9,0.5-2.9,0.5c-0.3,0-0.6,0-0.9,0
			c-2,0.1-4,0.2-6,0.3c-6.9,0.3-14.4,0.3-23.6,0.2c-4.5-0.1-9-0.2-13.1-0.3c-1.3,0-3-0.2-4.1-1c-0.4-0.3-0.6-0.6-0.8-0.9
			c-0.4-1.6-0.5-3.2-0.4-4.9c0.1-2.3,0.6-4.7,1.5-7.1c0.2-0.5,0.4-1,0.7-1.6c0.3-0.6,0.6-1.2,0.9-1.8c0.6-1.2,1.3-2.3,2-3.3
			c0.9-1.4,1.8-2.6,2.8-3.8c0.5-0.5,0.9-1.1,1.4-1.6c2.1-2.4,4.6-4.2,7.4-5.5c0.6-0.3,1.1-0.5,1.7-0.7c3.2-1.4,6.5-2.1,10-2.2
			c0.7,0,1.4,0,2.1,0c2,0.1,4,0.5,5.9,1.2c0.6,0.2,1.3,0.5,1.9,0.7c0.3,0.1,0.5,0.2,0.8,0.4c0.7,0.4,1.5,0.8,2.2,1.2
			c1.5,1,3,2.2,4.4,3.6c2.1,2.1,4,4.6,5.7,7.6c0.4,0.6,0.7,1.3,1.1,1.9c0.2,0.5,0.4,1.1,0.6,1.6c0.2,0.5,0.4,1.1,0.6,1.7
			c0.3,1.1,0.6,2.2,0.7,3.3c0.1,0.6,0.1,1.2,0.1,1.8c0,0.2,0,0.4,0,0.6c0,1-0.1,1.9-0.2,2.8c-0.1,0.6-0.2,1.2-0.4,1.8
			C114.3,37.2,113.5,38.4,112.5,39z M116.1,35.1c-0.2,0.1-0.5,0.2-0.7,0.3c0.1-0.4,0.2-0.9,0.3-1.4c0.2-0.1,0.4-0.2,0.5-0.4
			c0.1-0.1,0.2-0.1,0.3-0.2c0.3-0.2,0.5-0.4,0.8-0.7c1.1-1.1,1.8-3,1-4.4c-0.1-0.2-0.3-0.4-0.4-0.5c-0.1-0.1-0.1-0.1-0.2-0.2
			c-0.1-0.1-0.1-0.1-0.2-0.2c0.1-0.1,0.1-0.2,0.1-0.3c0-0.3-0.1-0.5-0.3-0.7c-0.2-0.1-0.4-0.1-0.6,0c-0.1,0.1-0.2,0.1-0.2,0.2
			c0,0,0,0,0,0c0,0-0.1-0.1-0.1-0.1c0,0,0,0,0,0c-0.1-0.4,0.2-0.9,0.5-1.4c0.1-0.2,0.3-0.6,0.2-0.9c-0.1-0.3-0.4-0.4-0.8-0.4
			c-0.1,0-0.2,0-0.3,0.1c0,0,0,0,0,0c0.4-0.9,0.4-2,0.1-2.9c-0.1-0.3-0.2-0.7-0.6-0.9c-0.4-0.3-0.8-0.3-1.2-0.3l-0.2,0
			c0,0,0-0.1,0-0.1c0.1-0.4,0.3-0.8,0.3-1.3c0.2-1.7-0.2-3.5-1.2-4.9c-0.5-0.7-1.1-1.4-2-2.1c-0.2-0.2-0.5-0.4-0.8-0.6
			c-0.1-0.1-0.2-0.1-0.4-0.2c-0.2-0.1-0.4-0.2-0.6-0.4c-0.1-0.1-0.3-0.1-0.4-0.2c-0.2-0.1-0.4-0.2-0.6-0.3c-0.2-0.1-0.3-0.1-0.5-0.1
			c-0.2-0.1-0.4-0.1-0.6-0.2c0-0.1,0-0.1,0-0.2c0,0,0-0.1,0-0.2c-0.1-0.8-0.2-1.6-0.6-1.8c-0.1-0.1-0.4-0.1-0.6,0.1
			c-0.1,0.1-0.2,0.2-0.3,0.3c0,0.1-0.1,0.1-0.1,0.2C105.5,8,105.4,8,105.4,8c0,0-0.1,0-0.1-0.1c-0.1-0.1-0.1-0.5,0-0.7l0-0.1
			c0-0.4,0-0.9-0.2-1.3c-0.2-0.3-0.4-0.4-0.7-0.5c-0.2,0-0.5,0.1-0.6,0.2c-0.1,0.1-0.1,0.2-0.2,0.3c0,0,0,0,0,0
			c-0.1-0.1-0.1-0.2-0.2-0.3c-0.1-0.1-0.1-0.2-0.2-0.3c-0.2-0.3-0.5-0.6-0.8-0.9c-0.2-0.2-0.4-0.3-0.6-0.5c-0.1-0.1-0.2-0.1-0.3-0.1
			c-0.1-0.1-0.3-0.2-0.4-0.2c-0.1,0-0.2-0.1-0.3-0.1c-0.2-0.1-0.3-0.1-0.5-0.2c-0.1,0-0.2,0-0.2-0.1c-0.2,0-0.3-0.1-0.5-0.1
			c-0.1,0-0.2,0-0.2,0c-0.2,0-0.4,0-0.5-0.1c-0.1,0-0.2,0-0.2,0c-0.2,0-0.3,0-0.5,0c-0.1,0-0.2,0-0.3,0c-0.2,0-0.3,0-0.5,0.1
			c-0.1,0-0.2,0.1-0.3,0.1c-0.1,0-0.2,0.1-0.3,0.1c-0.2-0.1-0.4-0.2-0.6-0.3C95.7,3.1,95.5,3,95.4,3c-0.3-0.1-0.5-0.2-0.8-0.3
			c-0.2-0.1-0.4-0.1-0.6-0.1c-0.1,0-0.2-0.1-0.3-0.1c-0.2,0-0.3,0-0.5,0c-0.1,0-0.3,0-0.4,0c0-0.1-0.1-0.3-0.1-0.4c0,0,0-0.1,0-0.1
			c-0.1-0.2-0.2-0.3-0.3-0.5c0.2,0,0.3,0,0.5,0c0.7,0,1.4,0,2.1,0c2,0.1,4,0.5,5.9,1.2c0.6,0.2,1.3,0.5,1.9,0.7
			c7,3.1,11.6,9.7,14.2,14.7c0.2,0.5,0.4,1.1,0.6,1.6c0.6,1.7,1,3.3,1.3,5c0.1,0.6,0.1,1.3,0.1,1.9C119,28.1,118.9,33.4,116.1,35.1z
			"/>
		<path d="M93.5,8.4c-0.2-0.1-0.5,0-0.6,0.1c-0.2,0.2-0.3,0.4-0.2,0.7c0,0.2,0.2,0.4,0.4,0.5c0.1,0,0.1,0,0.2,0c0.1,0,0.2,0,0.3-0.1
			c0.1-0.1,0.2-0.2,0.3-0.4C94.1,8.9,93.9,8.5,93.5,8.4z M93.5,9.2c0,0-0.1,0.1-0.2,0c-0.1,0-0.1-0.1-0.1-0.1c0-0.1,0-0.2,0.1-0.2
			c0,0,0.1,0,0.1,0c0,0,0,0,0.1,0c0.1,0,0.1,0.1,0.1,0.1C93.5,9,93.5,9.1,93.5,9.2z"/>
		<path d="M90.7,9.5L90.7,9.5c-0.4-0.1-0.7,0.1-0.8,0.4c-0.1,0.3,0,0.7,0.4,0.8c0.1,0,0.1,0,0.2,0c0.3,0,0.5-0.2,0.6-0.5
			C91.2,10,91.1,9.6,90.7,9.5z M90.7,10.2c0,0-0.1,0.2-0.2,0.1c-0.2-0.1-0.1-0.2-0.1-0.2c0,0,0.1-0.1,0.2-0.1c0,0,0,0,0.1,0
			C90.7,10,90.7,10.1,90.7,10.2z"/>
		<path d="M89.2,7.4L89.2,7.4c-0.4-0.1-0.7,0.1-0.8,0.4c-0.1,0.3,0,0.7,0.4,0.8c0.1,0,0.1,0,0.2,0c0.3,0,0.5-0.2,0.6-0.5
			C89.7,7.9,89.6,7.5,89.2,7.4z M89.2,8.1c0,0-0.1,0.2-0.2,0.1C88.8,8.1,88.8,8,88.8,8c0,0,0.1-0.1,0.2-0.1c0,0,0,0,0.1,0
			C89.2,7.9,89.2,8,89.2,8.1z"/>
	</g>
	<g>
		<rect x="108" y="46.4" class="st2" width="44" height="0.9"/>
		<rect x="108" y="51.9" class="st2" width="44" height="0.9"/>
		<rect x="25.4" y="46.4" class="st2" width="44" height="0.9"/>
		<rect x="25.4" y="51.9" class="st2" width="44" height="0.9"/>
	</g>
	<g>
		<rect x="25.5" y="107.7" width="54.1" height="0.9"/>
		<path d="M100.8,107.7c0,0.1,0,0.1,0,0.2c0,0.3,0,0.5,0,0.7h51.1v-0.9H100.8z"/>
	</g>
	<g>
		<polygon points="25.2,155.3 28.1,155.3 26.6,146.9 		"/>
		<path d="M109.3,143.1c-0.3-0.3-0.7-0.4-1.4-0.4c-0.6,0-1.1,0.1-1.4,0.4c-0.3,0.3-0.5,0.9-0.5,1.7l0,12.4c0,0.8,0.2,1.4,0.5,1.7
			c0.3,0.3,0.7,0.4,1.4,0.4c0.6,0,1.1-0.1,1.4-0.4c0.3-0.3,0.5-0.8,0.5-1.7l0-12.4C109.8,143.9,109.6,143.3,109.3,143.1z"/>
		<path d="M180,129.4L7.3,129.2l6.3,20.1L0,169.7l172.7,0.2l-6.3-20.1L180,129.4z M29.4,162.6l-0.7-3.7l-4.2,0l-0.7,3.7l-3.7,0
			l4.7-23.4l3.7,0l4.7,23.4H29.4z M53.2,162.6h-2L47.9,151l-3.2,11.6l-2,0l-2.9-23.4h3.7l1.3,11.6l2.1-7.9H49l2.1,7.9l1.3-11.6
			l3.7,0L53.2,162.6z M64.6,162.6l0-23.4l9.7,0l0,3.7l-6,0l0,5.9l4.1,0v3.7l-4.1,0l0,6.5l6,0l0,3.7L64.6,162.6z M93.8,157.1
			c0,1.8-0.6,3.3-1.7,4.4c-1,0.9-2.3,1.4-3.9,1.4c-1.6,0-2.9-0.5-3.9-1.4c-1.1-1.1-1.7-2.5-1.7-4.4v-3l3.7,0v3
			c0,0.8,0.2,1.4,0.5,1.7c0.3,0.3,0.7,0.4,1.4,0.4c0.6,0,1.1-0.1,1.4-0.4c0.3-0.3,0.5-0.8,0.5-1.7v-1.5c0-1-0.4-1.9-1.2-2.7
			c-0.2-0.2-0.6-0.4-1.4-0.9c-1-0.6-1.8-1-2.3-1.5c-0.8-0.7-1.4-1.5-1.8-2.4c-0.4-0.9-0.6-1.9-0.6-2.9v-0.6c0-1.8,0.6-3.3,1.7-4.4
			c1-0.9,2.3-1.4,3.9-1.4c1.6,0,2.9,0.5,3.9,1.4c1.1,1.1,1.7,2.5,1.7,4.4v2h-3.7v-2c0-0.8-0.2-1.4-0.5-1.7c-0.3-0.3-0.7-0.4-1.4-0.4
			c-0.6,0-1.1,0.1-1.4,0.4c-0.3,0.3-0.5,0.9-0.5,1.7v0.6c0,1,0.4,1.9,1.2,2.6c0.2,0.2,0.7,0.4,1.3,0.8c1.2,0.6,2,1.1,2.4,1.5
			c1.6,1.5,2.5,3.3,2.5,5.4V157.1z M111.8,161.5c-1,0.9-2.3,1.4-3.9,1.4s-2.9-0.5-3.9-1.4c-1.1-1.1-1.7-2.5-1.7-4.4l0-12.4
			c0-1.8,0.6-3.3,1.7-4.4c1-0.9,2.3-1.4,3.9-1.4s2.9,0.5,3.9,1.4c1.1,1.1,1.7,2.5,1.7,4.4l0,12.4C113.4,159,112.9,160.4,111.8,161.5
			z M134.2,162.6l0-11.6l-3,8h-2.1l-3-8l0,11.6h-3.7l0-23.4h2.1l5.6,12.9l5.6-13h2.1l0,23.4H134.2z M147.2,162.6l0-23.4l9.7,0l0,3.7
			l-6,0l0,5.9h4.1v3.7h-4.1l0,6.5l6,0l0,3.7L147.2,162.6z"/>
	</g>
	<g>
		<path class="st3" d="M76.3,45.3H78v5.3c0,0.4,0.4,0.8,0.8,0.8H81v1.4h-3.9c-0.4,0-0.8-0.4-0.8-0.8V45.3z"/>
		<path class="st3" d="M87.1,49.7h-2.8v1.8h3.1v1.4h-3.8c-0.6,0-1.1-0.5-1.1-1.1v-5.5c0-0.6,0.5-1.1,1.1-1.1h3.6v1.4h-2.9v1.6h2.8
			V49.7z"/>
		<path class="st3" d="M90.7,46.7h-2v-1.4h5.8v1.4h-2.1v6.1h-1.7V46.7z"/>
		<path class="st3" d="M95.9,51.1c0.5,0.2,1.2,0.5,1.9,0.5c0.8,0,1.2-0.3,1.2-0.8c0-0.5-0.4-0.7-1.3-1.1c-1.3-0.4-2.1-1.1-2.1-2.2
			c0-1.3,1.1-2.3,2.9-2.3c0.9,0,1.5,0.2,1.9,0.4L100,47c-0.3-0.1-0.8-0.4-1.6-0.4c-0.7,0-1.1,0.3-1.1,0.7c0,0.5,0.4,0.7,1.4,1.1
			c1.3,0.5,2,1.2,2,2.3c0,1.3-1,2.3-3.1,2.3c-0.9,0-1.7-0.2-2.1-0.5L95.9,51.1z"/>
	</g>
	<g>
		<path d="M30.2,58.3c0.6,0,2.6-0.1,4.5-0.1c3.6,0,3.5,0,4.2,0.4c0.5,0.4,0.7,0.8,0.4,1.1c-0.2,0.2-0.4,0.2-1.4,0.2
			c-0.5,0-1.1,0.1-1.4,0.1c-0.3,0-0.7,0.1-0.8,0.1c-0.5,0-1.2,0-1.3,0.1c0,0,0,0.1,0,0.3c0.1,0.2,0.1,0.4,0.1,1.7c0,0.9,0,1.6,0,1.7
			c0,0.3-0.1,2.4-0.1,4.7c0,0.8,0,1.5,0,1.6c0,0.1-0.1,1-0.1,1.9c0,1,0,2.2-0.1,2.8c0,0.6,0,1.6,0,2.2c0,0.5,0,1.5-0.1,2
			c-0.1,1.8-0.1,4-0.1,6.7c0,0.8,0,1.6-0.1,1.7c0,0.3-0.3,0.6-0.6,0.7c-0.3,0.1-1,0.1-1.5,0c-1.3-0.2-2.5-1.2-2.7-1.9
			c0-0.3,0-3.7,0-5c0-1,0.1-2.5,0.1-3.8c0-1.7,0.1-4.5,0.1-4.9c0-0.4,0.1-2.2,0.1-2.5c0-0.4,0-0.5,0-1.5c0-0.5,0-1.2,0-1.7
			c0-1,0.1-3.3,0.1-5.1c0-0.7,0.1-1.3,0.1-1.4c0,0-0.3-0.1-1.3-0.1c-1,0-1.5,0-1.8-0.1c-1-0.2-1.6-0.9-1.2-1.3
			c0-0.1,0.3-0.2,0.6-0.3C26.5,58.6,26.8,58.5,30.2,58.3z"/>
		<path d="M38,88.2L37.9,88v-1.7c0-0.9,0-2,0-2.3c0.1-1,0.2-3,0.3-3.7c0-0.8,0.1-1.2,0.1-1.8c0-0.7,0.1-1.3,0.1-1.8
			c0-0.5,0.1-1.7,0.2-2c0,0,0-0.4,0.1-0.7c0-0.3,0.1-0.6,0.1-0.7c0,0,0-0.5,0.1-1c0-0.4,0.1-1.1,0.2-1.5c0.1-0.7,0.1-0.7,0.2-1.2
			c0-0.1,0.1-0.4,0.1-0.5c0-0.2,0.3-1.1,0.4-1.4c0.1-0.5,0.3-0.8,0.5-1.5c0.1-0.5,0.3-0.9,0.3-1c0,0,0.1-0.3,0.2-0.6
			c0.6-1.8,1.2-3.3,1.6-3.9c0.1-0.2,0.3-0.5,0.4-0.6c0.6-1.3,1.4-1.7,2.8-1.3c1.1,0.3,2.2,0.9,2.6,1.4c0.5,0.5,0.9,1.2,1.1,1.9
			c0.1,0.3,0.3,0.7,0.3,0.9c0.1,0.1,0.1,0.4,0.2,0.5c0,0.2,0.1,0.8,0.3,1.4c0.1,0.6,0.2,1.3,0.2,1.5c0,0.2,0,0.4,0.1,0.5
			s0.1,0.4,0.1,0.6c0,0.3,0.1,1,0.1,1.5c0,0.5,0.1,1.1,0.1,1.4c0.1,1.9,0.1,2.3,0.1,3c0,0.6,0.1,3.5,0.1,5.5c0,0.8-0.1,3.8-0.1,5
			c0,1.7,0,4.4,0,4.7c0.1,0.6-0.2,1.2-0.7,1.3c-0.3,0.1-1.2,0.1-1.5,0c-1.2-0.3-2.3-1.1-2.6-1.9c-0.1-0.3-0.1-0.8-0.1-2.2
			c0-0.4,0-0.9,0-1.1c0-0.2,0-0.5,0-0.6c0-0.2,0-0.2-0.2-0.2c-0.1,0-0.4,0-0.5,0.1c-0.1,0-0.4,0.1-0.6,0.1c-0.2,0-0.4,0.1-0.5,0.1
			c-0.6,0.1-1.3,0.2-2.5,0.2c-0.8,0-1.5,0-1.5,0c-0.1,0-0.1,0-0.1,0.1c0,0.1,0,0.6,0,1.1c0,0.5,0,1.3-0.1,1.8c0,0.6,0,1-0.1,1.1
			C39.4,89,38.4,88.8,38,88.2z M40.8,82.5c0.5-0.1,1.9-0.2,3.2-0.2c0.6,0,1.4,0,1.6,0l0.4,0v-0.5c0-0.3,0-0.8,0-1.1
			c0-0.3,0-0.6,0-0.7c0-0.1,0-0.4,0-0.6c0.1-0.7,0-6.3,0-6.6c0-0.1,0-0.3,0-0.5c0-0.1,0-0.7,0-1.2c0-0.5-0.1-1.1-0.1-1.4
			c0-0.3,0-0.6-0.1-0.7c0-0.1,0-0.4,0-0.6c0-0.2,0-0.5,0-0.6c-0.1-0.4-0.1-1.2-0.2-1.9c0-0.8-0.1-1.2-0.2-1.7
			c-0.1-0.2-0.1-0.5-0.1-0.6c0-0.1,0-0.2-0.1-0.2c0,0-0.1-0.2-0.1-0.4c0-0.2-0.1-0.5-0.1-0.5c-0.1-0.1-0.1-0.1-0.2,0
			c-0.3,0.2-1.1,1.1-1.3,1.4c-0.6,0.9-1.2,2.2-1.6,3.5c-0.5,1.6-1,3.9-1.1,4.7c0,0.2,0,0.4,0,0.4c-0.1,0.3-0.3,3-0.3,3.7
			c0,0.4-0.1,0.9-0.1,1.1s0,1.1,0,1.8c-0.1,2.4-0.1,3.4-0.1,3.6C39.9,82.7,39.9,82.7,40.8,82.5z"/>
		<path d="M54.2,80.9c-0.1-0.3-0.1-2.2-0.1-4.5c0-0.5,0-1,0-1.2c0-0.2,0.1-0.6,0.1-0.9c0-0.3,0-0.6,0-0.6c0,0,0.1-0.2,0.1-0.4
			c0-0.2,0.1-0.5,0.1-0.8c0-0.2,0.1-0.6,0.1-0.9c0-0.3,0-0.5,0.1-0.6c0.1-0.4,0.2-0.7,0.2-0.9c0-0.1,0.1-0.5,0.1-0.8
			c0.1-0.3,0.2-0.7,0.2-0.9c0-0.1,0.1-0.3,0.1-0.4c0,0,0-0.1,0-0.2c0,0,0-0.2,0.1-0.3c0,0,0.1-0.3,0.1-0.6c0.1-0.3,0.1-0.6,0.2-0.6
			c0-0.1,0.2-0.6,0.2-0.7c0,0,0.2-0.6,0.4-1.1c0.4-1,0.6-1.4,1-2.2c0.1-0.2,0.3-0.5,0.4-0.6c0.3-0.5,1.1-1.4,1.5-1.6
			c1-0.6,2.7-0.7,4.1-0.2c0.5,0.1,1.3,0.7,1.7,1.1c0.2,0.3,0.4,0.5,0.6,0.9c0.4,0.9,0.4,1.1,0.6,3.5c0.2,2.8,0,5.5-0.2,6
			c-0.2,0.3-0.9,0.1-1.1-0.2c-0.1-0.1-0.1-0.2-0.1-0.7c0.1-1.1-0.1-3-0.5-4.6c-0.1-0.3-0.1-0.6-0.1-0.7c-0.1-0.5-0.6-2-0.8-2.2
			c-0.1-0.1-0.1-0.1-0.3,0.2c-0.3,0.2-0.5,0.6-0.8,1.2c-0.6,1.1-0.9,1.7-0.9,1.9c0,0-0.1,0.2-0.2,0.4c-0.1,0.1-0.2,0.3-0.2,0.4
			c0,0,0,0.2-0.1,0.2c-0.1,0.1-0.1,0.2-0.1,0.3c0,0-0.1,0.4-0.3,0.7c-0.1,0.4-0.2,0.7-0.2,0.7c0,0,0,0.3-0.1,0.5
			c-0.1,0.2-0.1,0.5-0.2,0.6c0,0.1-0.1,0.5-0.2,0.7c-0.3,1.1-0.3,1.7-0.4,2.7c-0.1,0.4-0.1,0.8-0.1,1c0,0.2,0,0.4,0,0.4
			c0,0,0,0.2-0.1,0.4c0,0.1,0,0.5,0,0.8c0,0.3-0.1,0.6-0.1,0.8c0,0.1-0.1,0.6-0.1,1.1c0,0.5,0,1,0,1.1c0,0,0,0.3,0,0.6
			c0,0.3,0,0.9,0,1.2c0,0.9,0.1,1.7,0.1,1.8c0,0.1,0.1,0.3,0.1,0.5s0,0.4,0.1,0.5c0,0,0.1,0.2,0.1,0.4c0,0.3,0,0.4,0.4,1.3
			c0.4,0.9,0.6,1.3,0.9,1.3c0.3,0,0.9-0.3,1.5-0.8c0.3-0.2,0.6-0.4,0.6-0.4s0.8-1,1.2-1.5c0.5-0.6,0.5-0.6,1.3-2.7
			c0.8-2,0.9-2.2,1.3-1.9c0.2,0.1,0.2,0.2,0.2,0.5c0,0.5-0.1,1-0.4,2.7c-0.4,1.9-0.5,2.3-1,3c-0.1,0.2-0.4,0.7-0.5,1
			c-0.2,0.5-0.8,1.4-1.2,1.8c-0.4,0.4-1,0.8-1.2,1c-0.6,0.3-1.3,0.4-2.1,0.3c-1-0.2-2.2-0.7-2.9-1.3c-1.1-1-1.7-1.7-2.1-2.6
			c0-0.1-0.1-0.4-0.2-0.5c-0.3-0.6-0.5-1.2-0.5-1.5c0-0.2-0.1-0.5-0.1-0.6c0-0.2-0.1-0.6-0.1-1C54.3,81.6,54.2,81.1,54.2,80.9z"/>
		<path d="M81.3,71.5c0,0.3,0,0.7-0.1,0.9c-0.1,1-0.2,2.5-0.3,3.1c0,0.2-0.1,0.5-0.1,0.6c0,0.4-0.2,1.3-0.3,1.7
			c0,0.2-0.1,0.5-0.1,0.6c-0.1,0.5-0.3,1.8-0.4,2.3c-0.1,0.3-0.1,0.6-0.1,0.7c0,0,0,0.1,0,0.2c0,0-0.1,0.3-0.2,0.5
			c-0.1,0.3-0.2,0.7-0.2,0.9c-0.1,0.2-0.1,0.4-0.1,0.4s0,0.1-0.1,0.3c-0.1,0.3-0.3,0.9-0.3,0.9c0,0-0.4,1.2-0.5,1.4
			c0,0.1-0.1,0.3-0.2,0.4c-0.1,0.2-0.2,0.5-0.3,0.7c-0.8,1.3-1.6,1.7-3,1.5c-0.6-0.1-1.3-0.4-2-0.8c-0.8-0.5-1.2-1-1.8-2.4
			c-0.1-0.1-0.1-0.3-0.1-0.5c0-0.1-0.1-0.5-0.1-0.6c-0.1-0.2-0.1-0.5-0.1-0.7c-0.1-0.7-0.2-1.3-0.2-1.4c0,0,0-0.2,0-0.4
			c-0.1-0.5-0.2-2.5-0.2-2.7c0-0.1,0-0.7,0-1.3c0-0.5,0-1.2-0.1-1.5c0-0.2,0-0.7,0-1c0-0.3,0-0.7,0-0.8c0-0.1,0-0.3,0-0.4
			c0-0.1,0-0.4,0-0.6c0-0.2,0-0.5,0-0.8c0.1-0.7,0.2-2,0.2-2.3c0-0.2,0.1-0.5,0.1-0.6c0.1-0.1,0.1-0.3,0.1-0.4c0-0.1,0-0.4,0.1-0.7
			c0-0.3,0.1-0.7,0.1-0.9c0-0.2,0-0.3,0.1-0.4c0,0,0.1-0.2,0.1-0.4c0-0.2,0-0.4,0-0.5c0,0,0.1-0.2,0.1-0.4c0-0.1,0.1-0.3,0.1-0.3
			c0,0,0-0.1,0-0.2c0-0.1,0.1-0.3,0.1-0.6c0.1-0.2,0.2-0.6,0.3-1.1c0.1-0.4,0.2-0.7,0.3-0.8c0-0.1,0.1-0.4,0.2-0.6
			c0.2-0.6,0.3-0.9,0.6-1.3c0.1-0.2,0.2-0.5,0.3-0.6c0.3-0.5,0.4-0.7,0.8-1c0.3-0.1,0.6-0.3,0.8-0.4c0.6-0.2,1.7-0.1,2.6,0.2
			c0.7,0.3,2.3,1.6,3,2.4c0.5,0.6,0.8,1.3,0.9,2.4c0.3,2.2,0.3,2.1,0.3,4.3C81.3,70.2,81.3,71.3,81.3,71.5z M79.8,68.8
			c0-1.1-0.1-1.4-0.3-2.5c-0.2-1.1-0.3-1.5-0.6-2.4c-0.3-0.6-0.4-0.9-0.7-1.2c-0.3-0.4-0.3-0.4-0.4-0.3c-0.1,0.1-0.1,0.2-0.2,0.3
			c-0.1,0.1-0.2,0.3-0.3,0.4c-0.1,0.2-0.1,0.4-0.2,0.5c0,0.1-0.1,0.4-0.2,0.6c-0.2,0.5-0.3,0.7-0.4,0.9c-0.1,0.2-0.2,0.6-0.3,1
			c-0.1,0.5-0.1,0.5-0.3,1c0,0.1-0.1,0.4-0.1,0.5c0,0.1,0,0.4-0.1,0.6c-0.1,0.3-0.1,0.6-0.1,0.8c-0.1,0.2-0.1,0.5-0.1,0.6
			c0,0.1-0.1,0.3-0.1,0.3c0,0-0.1,0.2-0.1,0.3s0,0.5-0.1,0.8c0,0.3-0.1,0.8-0.1,1.1c0,0.3-0.1,0.7-0.1,0.8c-0.2,0.9-0.3,5.5-0.1,7.4
			c0.1,2,0.3,3.7,0.4,3.8c0,0,0.1,0.2,0.1,0.5c0,0.2,0,0.4,0.1,0.4c0,0.1,1-1.1,1-1.3c0,0,0-0.1,0.1-0.2c0.1-0.2,0.4-0.6,0.5-0.9
			c0-0.1,0.1-0.3,0.2-0.5c0.2-0.5,0.9-2.1,0.9-2.4c0-0.1,0.1-0.4,0.2-0.5c0.3-0.7,0.7-2.8,1-4.5C79.8,72.7,79.9,71.3,79.8,68.8z"/>
		<path d="M95.5,68.5c0-0.2,0-0.5,0-0.6c0-0.1,0-1.1,0-2.3c0-1.1,0-2.4,0-2.7c0-0.3,0-0.6,0-0.7c0-0.4,0.1-1.5,0.2-1.6
			c0.1-0.2,0.5-0.5,0.8-0.5c0.2,0,0.6,0,0.9,0c0.5,0,0.7,0,0.9-0.1c0.5-0.3,2.2-0.8,3.6-1.1c1.6-0.2,3.9,0.6,5.3,2
			c0.5,0.5,1,1.5,1.3,2.7c0.2,0.6,0.2,0.6,0.2,1.8c0,1.4,0,2.2-0.1,2.4c0,0.1-0.1,0.4-0.1,0.6c0,0.2-0.1,0.6-0.1,0.6
			c0,0.1-0.1,0.3-0.1,0.4c0,0.2,0,0.3-0.2,0.8c-0.1,0.1-0.1,0.4-0.1,0.5c0,0.1-0.1,0.3-0.1,0.5s-0.1,0.3-0.1,0.3
			c0,0.1-0.4,1.2-0.5,1.3c0,0,0,0.1,0,0.2c0,0.1-0.1,0.3-0.2,0.4c-0.1,0.2-0.2,0.4-0.2,0.4c0,0-0.6,1.2-0.6,1.3
			c-0.1,0.1-0.5,0.8-0.5,0.9c0,0,0.1,0.1,0.3,0.2c0.4,0.2,1.2,0.8,1.6,1.2c0.2,0.2,0.5,0.6,0.7,1c0.3,0.5,0.4,0.7,0.4,1
			c0,0.2,0.1,0.5,0.1,0.6c0,0.1,0.1,0.3,0.1,0.4c0.1,0.4,0.2,1.6,0.2,1.9c0,0.1,0,0.7-0.1,1.1c0,0.7,0,1.1-0.1,1.2
			c0,0.2-0.1,0.5-0.1,0.5c0,0.1-0.2,0.6-0.3,1c-0.3,0.5-0.4,0.8-0.9,1.3c-0.8,0.9-1.3,1.3-2.2,1.6c-0.4,0.1-2.9,0.2-3.7,0.1
			c-0.3,0-0.8-0.2-1.1-0.3c-0.4-0.1-0.6-0.2-0.8-0.2c-1.1,0.1-1.8,0-2.6-0.4c-0.9-0.5-1.3-1.1-1.5-1.9c-0.1-0.4-0.2-7.8-0.2-12.1
			c0-4.4,0-5,0-5.3C95.5,68.9,95.5,68.6,95.5,68.5z M100.4,61.7c0.2,0.3,0.2,0.6,0.1,0.8c-0.1,0.3-0.1,2.3-0.1,4c0,0.8,0,2.9,0,4.8
			c0,1.9,0,3.4,0.1,3.4c0,0,0,0,0-0.1c0-0.1,0.2-0.3,0.3-0.5c0.2-0.2,0.4-0.6,0.4-0.7c0.1-0.2,0.2-0.4,0.2-0.5
			c0.2-0.2,0.7-1.2,0.7-1.4c0,0,0-0.2,0.1-0.2c0-0.1,0.1-0.2,0.1-0.2c0-0.1,0.2-0.6,0.4-1.1c0.2-0.6,0.4-1.1,0.4-1.2
			c0-0.1,0-0.3,0.1-0.4c0-0.1,0.1-0.3,0.1-0.5c0.1-0.1,0.1-0.4,0.1-0.5c0,0,0.1-0.6,0.3-1.2c0.2-1.5,0.2-2.6,0-3.5
			c-0.1-0.3-0.2-0.7-0.3-0.8c0-0.1-0.2-0.3-0.3-0.5c-0.1-0.1-0.2-0.3-0.3-0.3c-0.2-0.1-1,0-1.6,0.1c-0.4,0.1-0.8,0.2-0.9,0.2
			C100.2,61.3,100.2,61.4,100.4,61.7z M104,78.7l-0.1-0.2l-0.2,0.2c-0.1,0.1-0.4,0.4-0.5,0.5c-0.4,0.5-1,1-1.5,1.1
			c-0.2,0-0.6,0.1-0.8,0.1h-0.5l0,1.9c0,1,0,2.5,0,3.2c0,0.7,0,1.5,0.1,1.6l0,0.2l0.4,0c0.2,0,0.5-0.1,0.7-0.1
			c0.4-0.1,0.6-0.3,0.9-0.7c0.1-0.1,0.3-0.4,0.4-0.5c0.3-0.3,0.6-1.1,0.7-1.6c0-0.1,0.1-0.4,0.2-0.6c0.1-0.2,0.2-0.5,0.2-0.6
			c0-0.1,0-0.2,0-0.2c0.1-0.1,0.1-1.1,0.2-2c0-0.4-0.2-1.8-0.3-2.1C104,79,104,78.8,104,78.7z"/>
		<path d="M123.7,71.5c0,0.3,0,0.7-0.1,0.9c-0.1,1-0.2,2.5-0.3,3.1c0,0.2-0.1,0.5-0.1,0.6c0,0.4-0.2,1.3-0.3,1.7
			c0,0.2-0.1,0.5-0.1,0.6c-0.1,0.5-0.3,1.8-0.4,2.3c-0.1,0.3-0.1,0.6-0.1,0.7c0,0,0,0.1,0,0.2c0,0-0.1,0.3-0.2,0.5
			c-0.1,0.3-0.2,0.7-0.2,0.9c-0.1,0.2-0.1,0.4-0.1,0.4s0,0.1-0.1,0.3c-0.1,0.3-0.3,0.9-0.3,0.9c0,0-0.4,1.2-0.5,1.4
			c0,0.1-0.1,0.3-0.2,0.4c-0.1,0.2-0.2,0.5-0.3,0.7c-0.8,1.3-1.6,1.7-3,1.5c-0.6-0.1-1.3-0.4-2-0.8c-0.8-0.5-1.2-1-1.8-2.4
			c-0.1-0.1-0.1-0.3-0.1-0.5c0-0.1-0.1-0.5-0.1-0.6c-0.1-0.2-0.1-0.5-0.1-0.7c-0.1-0.7-0.2-1.3-0.2-1.4c0,0,0-0.2,0-0.4
			c-0.1-0.5-0.2-2.5-0.2-2.7c0-0.1,0-0.7,0-1.3c0-0.5,0-1.2-0.1-1.5c0-0.2,0-0.7,0-1c0-0.3,0-0.7,0-0.8c0-0.1,0-0.3,0-0.4
			c0-0.1,0-0.4,0-0.6c0-0.2,0-0.5,0-0.8c0.1-0.7,0.2-2,0.2-2.3c0-0.2,0.1-0.5,0.1-0.6c0.1-0.1,0.1-0.3,0.1-0.4c0-0.1,0-0.4,0.1-0.7
			c0-0.3,0.1-0.7,0.1-0.9c0-0.2,0-0.3,0.1-0.4c0,0,0.1-0.2,0.1-0.4c0-0.2,0-0.4,0-0.5c0,0,0.1-0.2,0.1-0.4c0-0.1,0.1-0.3,0.1-0.3
			c0,0,0-0.1,0-0.2c0-0.1,0.1-0.3,0.1-0.6c0.1-0.2,0.2-0.6,0.3-1.1c0.1-0.4,0.2-0.7,0.3-0.8c0-0.1,0.1-0.4,0.2-0.6
			c0.2-0.6,0.3-0.9,0.6-1.3c0.1-0.2,0.2-0.5,0.3-0.6c0.3-0.5,0.4-0.7,0.8-1c0.3-0.1,0.6-0.3,0.8-0.4c0.6-0.2,1.7-0.1,2.6,0.2
			c0.7,0.3,2.3,1.6,3,2.4c0.5,0.6,0.8,1.3,0.9,2.4c0.3,2.2,0.3,2.1,0.3,4.3C123.8,70.2,123.8,71.3,123.7,71.5z M122.3,68.8
			c0-1.1-0.1-1.4-0.3-2.5c-0.2-1.1-0.3-1.5-0.6-2.4c-0.3-0.6-0.4-0.9-0.7-1.2c-0.3-0.4-0.3-0.4-0.4-0.3c-0.1,0.1-0.1,0.2-0.2,0.3
			c-0.1,0.1-0.2,0.3-0.3,0.4c-0.1,0.2-0.1,0.4-0.2,0.5c0,0.1-0.1,0.4-0.2,0.6c-0.2,0.5-0.3,0.7-0.4,0.9c-0.1,0.2-0.2,0.6-0.3,1
			c-0.1,0.5-0.1,0.5-0.3,1c0,0.1-0.1,0.4-0.1,0.5c0,0.1,0,0.4-0.1,0.6c-0.1,0.3-0.1,0.6-0.1,0.8c-0.1,0.2-0.1,0.5-0.1,0.6
			c0,0.1-0.1,0.3-0.1,0.3c0,0-0.1,0.2-0.1,0.3s0,0.5-0.1,0.8c0,0.3-0.1,0.8-0.1,1.1c0,0.3-0.1,0.7-0.1,0.8c-0.2,0.9-0.3,5.5-0.1,7.4
			c0.1,2,0.3,3.7,0.4,3.8c0,0,0.1,0.2,0.1,0.5c0,0.2,0,0.4,0.1,0.4c0,0.1,1-1.1,1-1.3c0,0,0-0.1,0.1-0.2c0.1-0.2,0.4-0.6,0.5-0.9
			c0-0.1,0.1-0.3,0.2-0.5c0.2-0.5,0.9-2.1,0.9-2.4c0-0.1,0.1-0.4,0.2-0.5c0.3-0.7,0.7-2.8,1-4.5C122.3,72.7,122.4,71.3,122.3,68.8z"
			/>
		<path d="M127.2,70.2c0-0.5,0.1-0.9,0.1-1c0-0.4,0.1-1.7,0.1-1.8c0,0,0-0.3,0-0.6c0-0.3,0-0.6,0-0.7c0-0.1,0.1-0.5,0.1-0.9
			c0-0.3,0.1-0.7,0.1-0.9c0.1-0.7,0.2-2.5,0.1-2.6c0,0,0-0.2,0-0.3c0.1-0.2,0.1-1.2,0.1-2.1c0-0.3,0-0.4,0.1-0.5
			c0.8-1.1,3.9-0.1,4.7,1.4c0.1,0.1,0.1,0.3,0.1,0.6c0,0.7-0.1,1.9-0.2,3.2c-0.1,0.7-0.1,1.6-0.1,2.1c0,0.4,0,0.8,0,0.9
			c0,0.1-0.1,0.4-0.1,0.6c0,0.7-0.1,1.9-0.2,2.1c0,0.1,0,0.3,0,0.4c0,0.8,0,1.3-0.1,1.6c0,0.3-0.1,0.6-0.1,0.9
			c-0.2,3.3-0.2,4.1-0.2,5.7c0,1.1,0,1.6,0.1,3.4c0,0.8,0.2,2.8,0.3,2.8c0,0,0.7-0.8,0.9-1.2c0.4-0.6,0.6-1,0.6-1.1
			c0,0,0.1-0.2,0.1-0.3c0.4-0.7,0.9-2.3,1.3-3.9c0.3-1,0.4-1.6,0.7-2.6c0.6-1.8,0.7-2.5,0.7-5.2c0-1.8,0.1-3.3,0.1-3.8
			c0-0.2,0-0.8,0-1.1c0-0.3,0-0.8,0.1-1c0-0.2,0-0.6,0-1c0-0.3,0-0.8,0.1-0.9c0-0.3,0.1-0.6,0.1-1.5c0-0.3,0.1-0.6,0.1-0.6
			c0,0,0-0.4,0.1-0.7c0-0.4,0-0.7,0.1-0.8c0,0,0.2-0.2,0.3-0.3c0.2-0.1,0.4-0.2,0.9-0.2c0.7,0,1.1,0,1.8,0.3
			c0.6,0.3,1.1,0.6,1.5,1.1c0.3,0.4,0.4,0.7,0.3,1.1c0,0.1,0,0.5,0,0.7c0,0.3-0.1,0.6-0.1,0.8c0,0.1-0.1,0.4,0,0.4c0,0,0,0.3,0,0.5
			c0,0.2-0.1,0.9-0.1,1.5c0,0.6-0.1,1.2-0.1,1.5c0,0.2,0,0.8-0.1,1.4c0,0.5,0,1.1,0,1.3c0,0.2-0.1,0.8-0.1,1.5c0,0.6,0,1.2,0,1.3
			c0,0.2-0.1,3.4-0.1,4.2c0,0.3,0,0.6,0,0.7c0,1.7,0,5,0.1,6.5c0,0.4,0,0.9,0.1,1.1c0.2,1.6,0.2,2.2,0.1,2.5
			c-0.1,0.3-0.2,0.4-0.6,0.6c-0.5,0.3-1,0.3-1.6,0.1c-0.5-0.2-0.8-0.3-1.4-0.9c-0.5-0.5-0.8-0.9-1-1.2c-0.1-0.4-0.3-1.5-0.4-2.4
			c-0.1-1.4-0.1-2.2-0.1-2.7c0-0.2,0-0.3,0-0.2c-0.1,0.1-0.3,1.3-0.5,2.2c-0.1,0.4-0.2,0.8-0.2,0.9c-0.1,0.3-0.2,0.6-0.2,0.7
			c0,0.1-0.2,0.7-0.5,1.4c-0.2,0.6-0.8,1.6-1.2,2.1c-0.5,0.6-0.9,0.8-1.6,0.8c-0.3,0-0.8,0-1-0.1c-1.6-0.4-3.3-1.9-3.5-3.2
			c0-0.1-0.1-0.5-0.2-0.7c-0.1-0.3-0.1-0.6-0.1-0.7c0-0.1,0-0.4-0.1-0.6c0-0.2-0.1-0.6-0.1-0.9c0-0.3,0-0.7-0.1-1
			c0-0.3-0.1-0.6-0.1-0.8s0-1.1,0-2.2c0-2.4,0-4.2,0.1-4.8c0-0.3,0.1-0.8,0.1-1.2C127.2,71.4,127.2,70.7,127.2,70.2z"/>
		<path d="M149.8,58.3c0.6,0,2.6-0.1,4.5-0.1c3.6,0,3.5,0,4.2,0.4c0.5,0.4,0.7,0.8,0.4,1.1c-0.2,0.2-0.4,0.2-1.4,0.2
			c-0.5,0-1.1,0.1-1.4,0.1c-0.3,0-0.7,0.1-0.8,0.1c-0.5,0-1.2,0-1.3,0.1c0,0,0,0.1,0,0.3c0.1,0.2,0.1,0.4,0.1,1.7c0,0.9,0,1.6,0,1.7
			c0,0.3-0.1,2.4-0.1,4.7c0,0.8,0,1.5,0,1.6c0,0.1-0.1,1-0.1,1.9c0,1,0,2.2-0.1,2.8c0,0.6,0,1.6,0,2.2c0,0.5,0,1.5-0.1,2
			c-0.1,1.8-0.1,4-0.1,6.7c0,0.8,0,1.6-0.1,1.7c0,0.3-0.3,0.6-0.6,0.7c-0.3,0.1-1,0.1-1.5,0c-1.3-0.2-2.5-1.2-2.7-1.9
			c0-0.3,0-3.7,0-5c0-1,0.1-2.5,0.1-3.8c0-1.7,0.1-4.5,0.1-4.9c0-0.4,0.1-2.2,0.1-2.5c0-0.4,0-0.5,0-1.5c0-0.5,0-1.2,0-1.7
			c0-1,0.1-3.3,0.1-5.1c0-0.7,0.1-1.3,0.1-1.4c0,0-0.3-0.1-1.3-0.1c-1,0-1.5,0-1.8-0.1c-1-0.2-1.6-0.9-1.2-1.3
			c0-0.1,0.3-0.2,0.6-0.3C146.1,58.6,146.3,58.5,149.8,58.3z"/>
	</g>
	<path d="M108.1,104.9c-1.8-0.8-2.5-2.6-1.7-4.1c1.3-2.2-1-4.7-4.1-4.5c-2.1,0.2-4-0.9-4.4-2.5c-0.6-2.4-4.3-3.4-6.6-1.7v0
		c-1.5,1.1-3.9,1.1-5.4,0v0c-2.3-1.7-6-0.7-6.6,1.7c-0.4,1.6-2.3,2.7-4.4,2.5c-3.1-0.3-5.4,2.2-4.1,4.5c0.9,1.5,0.1,3.3-1.7,4.1
		c-2.7,1.2-2.7,4.3,0,5.5c1.8,0.8,2.5,2.6,1.7,4.1c-1.3,2.2,1,4.7,4.1,4.5c2.1-0.2,4,0.9,4.4,2.5c0.6,2.4,4.3,3.4,6.6,1.7
		c1.5-1.1,3.9-1.1,5.4,0c2.3,1.7,6,0.7,6.6-1.7c0.4-1.6,2.3-2.7,4.4-2.5c3.1,0.3,5.4-2.2,4.1-4.5c-0.9-1.5-0.1-3.3,1.7-4.1
		C110.8,109.2,110.8,106.1,108.1,104.9z"/>
	<g>
		<path class="st1" d="M79.2,103h0.2c0.4,0,0.7,0.3,0.7,0.6v2.6c0,0.3,0.3,0.6,0.7,0.6h0.4c0.4,0,0.7-0.3,0.7-0.6v-2.6
			c0-0.3,0.3-0.6,0.7-0.6h0.2c0.4,0,0.7,0.3,0.7,0.6v8.1c0,0.3-0.3,0.6-0.7,0.6h-0.2c-0.4,0-0.7-0.3-0.7-0.6v-3
			c0-0.3-0.3-0.6-0.7-0.6h-0.4c-0.4,0-0.7,0.3-0.7,0.6v3c0,0.3-0.3,0.6-0.7,0.6h-0.2c-0.4,0-0.7-0.3-0.7-0.6v-8.1
			C78.4,103.3,78.8,103,79.2,103z"/>
		<path class="st1" d="M85.5,111.9c-0.4-0.4-0.7-1-0.7-1.7v-4.9c0-0.7,0.2-1.3,0.7-1.7c0.4-0.4,1.1-0.6,1.9-0.6
			c0.8,0,1.5,0.2,1.9,0.6c0.4,0.4,0.7,1,0.7,1.7v4.9c0,0.7-0.2,1.3-0.7,1.7c-0.4,0.4-1.1,0.6-1.9,0.6
			C86.6,112.5,86,112.3,85.5,111.9z M88.3,110.2v-5.1c0-0.6-0.3-0.9-0.9-0.9c-0.6,0-0.9,0.3-0.9,0.9v5.1c0,0.6,0.3,0.9,0.9,0.9
			C88,111.2,88.3,110.9,88.3,110.2z"/>
		<path class="st1" d="M91.6,103h0.2c0.4,0,0.7,0.2,0.7,0.6l0.7,6.6h0l0.7-6.6c0-0.3,0.3-0.6,0.7-0.6h0.5c0.4,0,0.7,0.2,0.7,0.6
			l0.7,6.6h0l0.7-6.6c0-0.3,0.3-0.6,0.7-0.6l0,0c0.4,0,0.8,0.3,0.7,0.7l-0.9,8.1c0,0.3-0.3,0.6-0.7,0.6h-0.8c-0.4,0-0.7-0.2-0.7-0.6
			l-0.7-5.8h0l-0.7,5.8c0,0.3-0.3,0.6-0.7,0.6h-0.9c-0.4,0-0.7-0.2-0.7-0.6l-0.9-8.1C90.9,103.3,91.2,103,91.6,103z"/>
	</g>
	<g>
		<path d="M24.8,213h-4.6l0.7-11.8L16.4,181h4.5l2.7,13.9h0.1l3.9-13.9h4.5l-6.7,20.2L24.8,213z"/>
		<path d="M42.7,213c-3.7,0-5.5-1.8-5.3-5.4l1.2-21.1c0.2-3.7,2.1-5.5,5.8-5.5h4.4c3.7,0,5.4,1.8,5.2,5.5l-1.2,21.1
			c-0.2,3.6-2.1,5.4-5.9,5.4H42.7z M43.9,209.2h2.3c1.2,0,1.9-0.6,2-1.9l1.2-20.5c0.1-1.2-0.6-1.9-2-1.9h-2.2c-1.3,0-2,0.6-2.1,1.9
			L42,207.3C41.9,208.5,42.6,209.2,43.9,209.2z"/>
		<path d="M78.2,181l-1.5,26c-0.2,4-2.2,6.1-5.9,6.1H67c-3.7,0-5.4-2-5.2-6.1l1.5-25.9h4.6l-1.5,26c-0.1,1.4,0.5,2.1,1.9,2.1h1.9
			c1.2,0,1.9-0.7,2-2.1l1.5-26H78.2z"/>
		<path d="M102.4,213h-4.6l1.5-26.5c0.2-3.7,2.1-5.5,5.8-5.5h3.4c3.7,0,5.4,1.8,5.2,5.5l-1.5,26.5h-4.6l0.6-11.7h-5.3L102.4,213z
			 M108.6,197.4l0.6-10.7c0.1-1.2-0.6-1.9-1.9-1.9H106c-1.3,0-2,0.6-2.1,1.9l-0.6,10.7H108.6z"/>
		<path d="M123,181h9c3.5,0,5.2,1.8,5,5.5l-0.4,7.9c-0.2,2.8-1.2,4.6-3.1,5.3l2.5,13.3h-4.3l-2.3-12.9h-2.8l-0.7,12.9h-4.6L123,181z
			 M126.7,196.5h3c1.4,0,2.1-0.8,2.2-2.3l0.4-6.9c0.1-1.5-0.5-2.3-1.9-2.3h-3L126.7,196.5z"/>
		<path d="M144.1,213l1.8-32h11.4l-0.2,3.9h-6.8l-0.6,9.7h6l-0.2,3.9h-6l-0.6,10.7h6.8l-0.2,3.9H144.1z"/>
	</g>
	<g>
		<path d="M106.8,25.4c0,0.1,0.1,0.2,0.2,0.4C106.9,25.6,106.8,25.5,106.8,25.4z"/>
		<path d="M112.9,20.9c-0.2-0.1-0.4-0.2-0.7-0.2c-1-0.1-2,0.4-2.9,1c-1.3,0.8-2.8,1.9-2.8,3.4c0.6-0.9,1.3-1.8,2.2-2.4
			c1-0.5,2.3-0.6,3.1,0.1c1,0.9,0.8,2.5,0.3,3.7c-1.1,2.6-3.4,4.7-6.1,5.5c-2.7,0.8-5.8,0.3-8.2-1.3c-1.7-1.2-3-2.9-5-3.5
			c-1.7-0.5-3.6,0-4.8,1.2c-1.1-1.7-3.7-1.7-5.5-0.8c-1.8,0.9-3.2,2.5-4.9,3.5c-2.3,1.4-5.2,1.7-7.8,0.8c-2.6-0.8-4.7-2.8-5.8-5.3
			c-0.3-0.8-0.6-1.7-0.4-2.6c0.2-0.9,0.8-1.7,1.6-1.9c0.4-0.1,0.9,0,1.3,0.1c1.3,0.4,2.4,1.4,3,2.7c0.2-1-0.6-1.9-1.4-2.5
			c-0.9-0.8-1.9-1.6-3.1-1.8c-3.4-0.8-3.9,3-3.5,5.4c0.5,2.9,2.2,5.6,4.5,7.4c3.2,2.5,7.4,3.8,11.4,3.4c4.1-0.4,7.9-2.4,10.6-5.5
			c1.5,2.3,4,3.8,6.6,4.6c4,1.3,8.6,1.2,12.5-0.6c3.8-1.9,6.8-5.6,7.5-9.8c0.2-1,0.2-2.1-0.2-3.1C114.2,21.9,113.7,21.3,112.9,20.9z
			"/>
	</g>
</g>
</svg>
