<?xml version="1.0" encoding="utf-8"?>
<!-- Generator: Adobe Illustrator 25.2.1, SVG Export Plug-In . SVG Version: 6.00 Build 0)  -->
<svg version="1.1" id="Layer_1" xmlns="http://www.w3.org/2000/svg" xmlns:xlink="http://www.w3.org/1999/xlink" x="0px" y="0px"
	 viewBox="0 0 180 287.4" style="enable-background:new 0 0 180 287.4;" xml:space="preserve">
<style type="text/css">
	.st0{fill:#1B1B1B;}
	.st1{fill:#FFFFFF;}
	.st2{fill:#292929;}
	.st3{fill:none;stroke:#000000;stroke-width:0.25;}
	.st4{fill:none;stroke:#000000;stroke-width:0.5;stroke-miterlimit:10;}
	.st5{stroke:#000000;stroke-width:0.25;stroke-miterlimit:10;}
	.st6{fill:none;stroke:#000000;stroke-miterlimit:10;}
	.st7{stroke:#000000;stroke-miterlimit:10;}
	.st8{fill:none;stroke:#000000;stroke-width:0.25;stroke-miterlimit:10;}
</style>
<g>
	<path d="M90.3,127.2L90.3,127.2c0.2,0.2,0.3,0.4,0.5,0.6c0,0,0.1,0.1,0.1,0.1L90.3,127.2z"/>
	<g>
		<g>
			<path d="M17.1,111.5c-0.3-0.3-0.5-0.5-0.6-0.7c0.1,0.2,0.2,0.4,0.3,0.6c0.8,1.6,3.4,2.3,4.8,1.3c0.6-0.4,0.9-0.8,1.2-1.3
				c0.4-0.4,0.7-0.9,0.9-1.4c0.3-1,0-1.8-0.4-2.6c-0.1-0.1-0.2-0.3-0.3-0.4c0-0.1-0.1-0.1-0.2-0.2c-0.8-1-2-1.6-3.6-1.3
				c-0.3,0-0.5,0.1-0.8,0.2C16.2,106.6,15.2,109.4,17.1,111.5z"/>
			<g>
				<path d="M23.1,93c-1.4-0.4-2.9,0.2-3.6,1.5c-1.3,2.6,1.3,5.2,3.9,3.9c1-0.5,0.8-0.4,0.4-0.3C25.7,96.7,25.6,93.6,23.1,93z"/>
				<path d="M3.8,104.1c1.7,1.4,4,2,5.9,0.8c4.7-3.1,4.4-10.9-1.2-12.8c-5.7-2-11.3,6.4-6.9,10.7C2.2,103.5,3,103.9,3.8,104.1z"/>
			</g>
		</g>
		<g>
			<path d="M169.9,104.1c1.7,1.4,4,2,5.9,0.8c4.7-3.1,4.4-10.9-1.2-12.8c-5.7-2-11.3,6.4-6.9,10.7
				C168.3,103.5,169.1,103.9,169.9,104.1z"/>
			<path d="M159.3,111.8c-0.5,1-0.4,2.1,0.1,3c0.6,1.4,2.1,2.1,3.6,1.8c0.1,0,0.2,0,0.4-0.1c1.3-0.2,2-1.1,2.1-2
				c1.3-1.5,0.3-4.1-1.6-4.7c-2.2-0.8-3.9,0.1-4.5,1.8C159.4,111.7,159.3,111.7,159.3,111.8z"/>
			<path d="M158.8,100.4c0-0.1-0.1-0.1-0.1-0.2c-0.8-1-2-1.6-3.6-1.3c-0.3,0-0.5,0.1-0.8,0.2c-2.5,1-3.4,3.8-1.6,5.9
				c-0.3-0.3-0.5-0.5-0.6-0.7c0.1,0.2,0.2,0.4,0.3,0.6c0.8,1.7,3.4,2.3,4.8,1.3c0.6-0.4,0.9-0.8,1.2-1.3c0.4-0.4,0.7-0.9,0.9-1.4
				c0.3-1,0-1.8-0.4-2.6C159,100.7,158.9,100.5,158.8,100.4z"/>
		</g>
		<g>
			<path d="M45.5,44.6c7.1,5.8,14.2,11.5,21.4,17.3c-3.4,10.5-6.9,21-10.4,31.5c-3,8.8-3.1,12.8,6.5,5.3
				c8.3-6.5,16.6-13.1,24.9-19.7c9.1,7.5,18.2,15.1,27.1,22.9c8.2,7.2,10.1,5.2,7.2-4.2c-3.8-12.3-7.5-24.6-11.4-36.8
				c6.5-5,12.9-10.1,19.5-15c10.1-7.7,8.2-10.2-1.3-10.2c-8.7,0-17.3,0-26,0.1c-2.9-9.1-5.8-18.3-8.8-27.4C91-1.2,89.2-4.3,84.7,8.5
				c-3.2,9.1-6.2,18.2-9.3,27.3c-8.5,0-17,0-25.6,0C41.8,35.8,36.9,37.6,45.5,44.6z"/>
			<path d="M52.1,62.9c0.3,0,0.6-0.2,0.4-0.5c-8.3-12-21.4-18-34.8-22.6c-0.5-0.2-0.9,0.6-0.5,0.9C27,50.7,37.9,60.2,52.1,62.9z"/>
			<path d="M53,75c-10.1,4.8-14.7,15.7-17.5,25.9c-0.2,0.6,0.5,0.9,0.9,0.5c8.2-6.7,16.4-15,17.1-26.2C53.5,75.1,53.2,74.9,53,75z"
				/>
			<path d="M19.7,79.7c-0.4,0.3-0.1,1,0.4,1c10.6-0.9,21.9-3.1,29-11.8c0.1-0.2,0.1-0.5-0.1-0.6C37.7,66.8,28.1,72.8,19.7,79.7z"/>
			<path d="M125.5,62.4c-0.2,0.3,0.1,0.5,0.4,0.5c14.2-2.7,25.1-12.2,34.9-22.2c0.4-0.4,0-1.1-0.5-0.9
				C146.9,44.4,133.7,50.4,125.5,62.4z"/>
			<path d="M124.5,75.3c0.7,11.1,8.9,19.4,17.1,26.2c0.4,0.3,1.1,0,0.9-0.5C139.6,90.7,135,79.9,125,75
				C124.7,74.9,124.4,75.1,124.5,75.3z"/>
			<path d="M158.2,79.7c-8.3-6.9-18-13-29.3-11.4c-0.3,0-0.3,0.4-0.1,0.6c7.1,8.7,18.4,10.9,29,11.8C158.3,80.7,158.6,80,158.2,79.7
				z"/>
		</g>
	</g>
	<g>
		<path d="M4.6,137.8c-2.9,0-4.6-1.1-4.6-4.1c0-5.7,4.5-11.1,15-11.1c2,0,7.2,1.1,11.5,1.1c2.1,0,4-0.3,5.2-1
			c-1,1.9-1.6,3.1-3.6,12.8c1.8-2.1,3.7-2.5,5.1-2.5c2.7,0,4.7,1.4,4.7,4.8c0,3.5-2,8.6-2,11c0,1.1,0.4,1.8,1.7,1.8
			c1.9,0,2.6-1.5,3.6-3.7h1.8c-2.4,7-5.7,7.9-7.9,7.9c-3.7,0-5-2.4-5-4.8c0-2.9,1.9-8.1,1.9-10.9c0-1.4-0.5-2.2-1.5-2.2
			c-1.5,0-2.6,1.7-3.2,3.7c-0.7,3.7-1.6,8.3-2.6,13.9h-6.1l5.8-27.2c-1.7-0.1-3.7-0.5-5.6-0.7l-6,27.9H6.4l6.1-28.3
			c-4.8,0.2-8.6,2-8.6,8.7C4,137.1,4.5,137.5,4.6,137.8z"/>
		<path d="M61.5,133.2l-3.1,14.5c-0.1,0.6-0.2,1-0.2,1.4c0,1.2,0.6,1.8,1.7,1.8c1.7,0,2.8-1.9,3.5-4h1.8c-2.4,6.9-6.3,7.9-8.6,7.9
			c-2.4,0-3.9-1.4-4.2-3.9c-1.3,2-3.3,3.9-6.3,3.9c-2.9,0-5.7-1.8-5.7-6.9c0-5.8,3.5-14.9,10.9-14.9c2.4,0,3.5,0.9,3.5,2.2v0.3
			l0.5-2.3H61.5z M46.9,147.3c0,3.3,1.4,3.3,2.1,3.3c1.2,0,3-1.3,3.5-3.7l2-9.6c0-0.5-0.4-1.6-1.7-1.6
			C49.2,135.7,46.9,143.3,46.9,147.3z"/>
		<path d="M74.2,136.9c-1.5,0-2.7,1.8-3.3,3.9L68,154.5h-6.1l4.5-21.3h6.1l-0.5,2.2c1.8-2,3.7-2.4,5-2.4c2.7,0,4.7,1.4,4.7,4.8
			c0,3.5-2,8.6-2,11c0,1.1,0.4,1.8,1.7,1.8c1.9,0,2.6-1.5,3.6-3.7h1.8c-2.4,7-5.7,7.9-7.9,7.9c-3.7,0-5-2.4-5-4.8
			c0-2.9,1.9-8.1,1.9-10.9C75.8,137.7,75.3,136.9,74.2,136.9z"/>
		<path d="M105.1,133.2l-8.5,5.9c0.5-0.1,0.9-0.2,1.4-0.2c3.2,0,4.7,2.3,4.7,5c0,0.5,0,1.1-0.2,1.6l-0.5,2.1
			c-0.1,0.4-0.2,0.9-0.2,1.4c0,0.9,0.3,1.6,1.7,1.6c1,0,1.2-0.1,1.5-0.3c-0.2,3-2.9,4.4-4,4.4c-3.5,0-5.4-1.7-5.4-4.9
			c0-0.7,0.1-1.4,0.3-2.2l0.3-1.7c0.1-0.6,0.2-1.1,0.2-1.6c0-1.2-0.4-2-1.5-2c-1,0-2,0.6-3.2,1.6l-2.2,10.5h-6.1l6.2-29l6.3-0.9
			l-3.2,15l8.2-6.5H105.1z"/>
		<path d="M126.2,154.5l2.8-13.1l-4.1-16c-4,1.4-6.3,4.8-6.3,9.5c0,2.2,0.6,2.5,0.6,2.9c-2.9,0-4.6-1.1-4.6-4.1
			c0-5.7,7.8-11.1,15-11.1c0.6,0,1.2,0,1.7,0.1l3.7,15.3l6.3-15.1h2.8l-8.3,18.6l-2.8,13.1H126.2z"/>
		<path d="M157.3,139.7c0.2,0.1,0.3,0.1,0.5,0.1c2,0,4.7-1.3,6.6-2.6l0.4,1.1c-1.6,1.7-4.4,3-7.5,3.5c-0.7,7.9-4.9,12.8-10.2,12.8
			c-4,0-6.8-1.9-6.8-6.7c0-4.9,2.9-15.1,11.7-15.1C155.5,132.9,157.3,135.2,157.3,139.7z M153.6,142c-0.9-0.2-1.1-0.9-1.1-1.8
			c0-1.2,0.6-2,1.3-2.3c-0.1-1.8-0.5-2.5-1.6-2.5c-3,0-5.7,7.8-5.7,12c0,2.8,0.6,3.5,2.2,3.5C150.8,150.9,152.9,147,153.6,142z"/>
		<path d="M168.5,133.2l-3.1,14.5c-0.1,0.3-0.1,0.7-0.1,1.1c0,1,0.3,1.9,1.3,1.9c1.7,0,2.8-1.6,3.4-3.7l2.9-13.7h6.1l-3.1,14.5
			c-0.1,0.6-0.2,1-0.2,1.4c0,1.2,0.6,1.6,1.7,1.6c0.8,0,1-0.1,1.4-0.3c-0.2,3.1-2.4,4.4-4.7,4.4c-2.3,0-3.9-1.5-4.2-4
			c-2.1,3.5-4.6,4-6.3,4c-2.6,0-4.6-1.5-4.6-5.1c0-0.8,0.1-1.7,0.3-2.8l2.9-13.7H168.5z"/>
	</g>
	<g>
		<path d="M16.7,206.4L14.3,218c-0.1,0.4-0.1,0.8-0.1,1.1c0,1,0.4,1.5,1.4,1.5c1.3,0,2.2-1.5,2.8-3.2h1.4c-1.9,5.5-5,6.3-6.8,6.3
			c-1.9,0-3.1-1.1-3.3-3.1c-1.1,1.6-2.6,3.1-5.1,3.1c-2.3,0-4.5-1.4-4.5-5.5c0-4.6,2.8-11.9,8.7-11.9c1.9,0,2.8,0.7,2.8,1.7v0.2
			l0.4-1.8H16.7z M5,217.7c0,2.6,1.1,2.6,1.7,2.6c1,0,2.4-1,2.8-3l1.6-7.7c0-0.4-0.3-1.3-1.4-1.3C6.9,208.4,5,214.5,5,217.7z"/>
		<path d="M26.9,209.4c-1.2,0-2.1,1.4-2.6,3.1l-2.3,10.9H17l3.6-17h4.9l-0.4,1.8c1.4-1.6,2.9-1.9,4-1.9c2.2,0,3.8,1.1,3.8,3.8
			c0,2.8-1.6,6.9-1.6,8.8c0,0.8,0.3,1.4,1.4,1.4c0.6,0,0.9-0.1,1.1-0.2c-0.3,2.4-1.9,3.5-3.7,3.5c-2.6,0-3.4-1.9-3.4-3.8
			c0-2.3,1.5-6.5,1.5-8.7C28.1,210,27.7,209.4,26.9,209.4z"/>
		<path d="M52.3,202.2c1.5,4.1,2.9,9.5,4.1,11.7c0.7,0,1.3-0.1,2.1-0.1c2.3,0,2.4,2.3-0.1,2.5c-0.3,0-0.6,0-1,0
			c0.8,2.1,1.4,3.4,2.6,5.5c1.1,3.3-1.8,2.5-2.6,0.6c-1.2-3-2.1-4.1-2.8-6.1c-1.5,0-6.6,0.1-7.3,0.1c-1.3,2.5-2,3.8-2.9,6.8
			c-0.4,1.4-3.2,1.3-2.3-1.3c0.4-1.5,1.5-3.8,2.2-5.5c-2.4-0.1-2.4-2.2-0.5-2.2h1.4c1.4-3.2,2.8-8.6,4.2-11.8
			C50.3,200.4,51.9,200.5,52.3,202.2z M51,205.9c-1,2.6-2,6.3-2.7,8c0.5,0,4.4-0.1,5.2-0.1C52.6,211.9,52.1,209.2,51,205.9z"/>
		<path d="M72.7,212c0.2,1.6,1.2,4,2,6.2c0.9-2.1,1.6-4.1,2.2-6c1.4-5,2.4-7.8,3.5-10c0.6-1.1,2.3-1.1,2.5,0.2
			c0.7,3.5,0.6,5.3,1.8,10.4c0.5,2.2,2.2,7.2,3.2,8.9c0.6,1.8-1.9,2.7-2.5,1.3c-1-1.9-2.6-7.3-3.2-9.5c-0.3-1.2-0.7-4.1-1.1-6
			c-1.5,4.6-2,6.6-2.3,7.6c-1,2.8-2,5.3-3.1,7.2c-1.1,1.8-1.8,0.7-2.5-0.9c-1.1-2.8-2.3-5.8-2.9-8.6c-0.6-2.9-1.2-4.8-1.6-6
			c-0.3,1.7-2.5,12.4-4.1,15.7c-0.7,1.6-3,1.2-2.5-0.7c2.7-5.8,2.9-13.3,5.2-18.9c0.5-1.5,2.3-1.9,2.6-0.4
			C70.5,204.1,72.3,208.9,72.7,212z"/>
		<path d="M100.1,202.2c1.5,4.1,2.9,9.5,4.1,11.7c0.7,0,1.3-0.1,2.1-0.1c2.3,0,2.4,2.3-0.1,2.5c-0.3,0-0.6,0-1,0
			c0.8,2.1,1.4,3.4,2.6,5.5c1.1,3.3-1.8,2.5-2.6,0.6c-1.2-3-2.1-4.1-2.8-6.1c-1.5,0-6.6,0.1-7.3,0.1c-1.3,2.5-2,3.8-2.9,6.8
			c-0.4,1.4-3.2,1.3-2.3-1.3c0.4-1.5,1.5-3.8,2.2-5.5c-2.4-0.1-2.4-2.2-0.5-2.2h1.4c1.4-3.2,2.8-8.6,4.2-11.8
			C98.1,200.4,99.7,200.5,100.1,202.2z M98.8,205.9c-1,2.6-2,6.3-2.7,8c0.5,0,4.4-0.1,5.2-0.1C100.4,211.9,99.9,209.2,98.8,205.9z"
			/>
		<path d="M124.3,203.6c-4.8,8.5-8,14.3-11.1,17.4c2.2,0.4,8.5-0.2,10.9-0.2c1.4-0.1,1.2,2.4-0.1,2.5c-3.9,0.1-9.6,0.2-12.6,0
			c-2.2-0.1-2.1-2.1-0.6-3.2c4-3.3,8.7-13.3,11-16.6c-4.3-0.1-7.3,0.3-10.1,0.1c-0.8-0.1-0.7-2.3,0.4-2.3c5.9,0.3,4.8-0.4,11.1,0
			C124.9,201.4,125.1,202.6,124.3,203.6z"/>
		<path d="M138.5,203c0,1.4-1.5,1.7-2.2,0.6c-0.4-0.6-1.4-0.3-2.5-0.3c0,4.7,0,7.3,0.2,9.6c0.2,2.6,0.2,4.2,0.2,7.9
			c1.2,0.1,3,0.2,4.2,0c1.2-0.1,1,2.3-0.2,2.4c-1.8,0.2-5.2-0.2-9.9,0c-1,0.1-0.8-2.4,0.1-2.5c1-0.1,2.3,0,3.2,0
			c0.1-1.3,0-4.9-0.2-7.8c-0.1-2.3-0.1-4.8-0.3-9.5c-0.8,0-1,0-3.3,0.2c-1.4,0-0.8-2.3,0.1-2.4c4.7-0.2,2.1-0.2,8.4-0.2
			C137.5,201.1,138.5,201.7,138.5,203z"/>
		<path d="M149.6,210.4c1.5,2.6,4.9,6.7,6.2,8.4c-0.1-1.4-0.4-3.4-0.5-4.7l-0.5-11.7c-0.1-1.8,2.5-1.5,2.6,0.2
			c0.3,7.3,0.4,10.5,0.5,11.3c0.1,1.9,0.1,6.4,0.2,8.2c0,1.3-1.3,1.7-2.1,1c-2-2.6-5.2-6.7-7.9-10.6c-0.6-0.8-2.1-3.5-4.1-6.5
			c0,5.5,0.6,10.5,0.1,16.5c-0.6,1.7-2.7,0.7-2.6-0.5c0.7-8.3-0.4-12.2,0.1-19.9c0-1.1,1.3-1.3,2.1-0.6
			C145.7,203.9,148.6,209.2,149.6,210.4z"/>
		<path d="M178.6,206.8c0,0.7-2.2,1.5-2.5,0.2c-0.6-3-5.2-3.2-6.7-3c-1.9,0.1-3.2,1.2-4.1,2.3c-2.1,2.6-1.9,5.6-1.5,8.3
			c0.9,6.7,5.4,8,10.2,5.9c1.3-0.6,2.4-1.8,2.4-3.8c0-0.5,0.1-2.6,0.1-3.1c-1.3,0-4.4,0-5,0c-1.3,0-1.6-2.4-0.3-2.4
			c0.8,0,5.1,0,6.1-0.1c0.7-0.1,1.8,0.3,1.7,1.5c0,1.7,0,2.2,0,3.3c0,3.4-1,5.6-3.8,6.9c-6.8,2.8-12.8,0.4-14-8.4
			c-0.2-2.8-0.4-6.9,2.4-10c1.6-1.7,3.5-3,5.8-3C173.7,201.2,178.4,202.4,178.6,206.8z"/>
	</g>
	<g>
		<path d="M14.8,236.7h-5v26.1H5v-26.1H0v-4.9h14.8V236.7z"/>
		<path d="M21.8,236.7v7.8h5.5v4.9h-5.5v8.6h8v4.9H17v-31h12.8v4.9H21.8z"/>
		<path d="M43,257.9h-5.6l-0.9,4.9h-5l6.2-31h4.9l6.2,31h-5L43,257.9z M42.2,253.1L40.2,242l-1.9,11.1H42.2z"/>
		<path d="M71.7,231.9v31h-4.9v-15.4L62.9,258h-2.8l-3.9-10.6v15.4h-4.9v-31H54l7.4,17.2l7.4-17.2H71.7z"/>
		<path d="M87,262.9h-4.9v-31h7.3c2.1,0,3.8,0.6,5.1,1.9c1.5,1.4,2.2,3.3,2.2,5.8v3.4c0,2.5-0.7,4.4-2.2,5.8c-1.3,1.2-3,1.8-5.1,1.8
			H87V262.9z M87,245.6h2.5c0.8,0,1.4-0.2,1.8-0.5c0.4-0.4,0.7-1.2,0.7-2.2v-3.4c0-1-0.2-1.8-0.7-2.2c-0.4-0.4-1-0.5-1.8-0.5H87
			V245.6z"/>
		<path d="M112.3,262.9H99.5v-31h4.9V258h8V262.9z"/>
		<path d="M125.3,257.9h-5.6l-0.9,4.9h-5l6.2-31h4.9l6.2,31h-5L125.3,257.9z M124.5,253.1l-1.9-11.1l-1.9,11.1H124.5z"/>
		<path d="M140.5,252v10.9h-4.9V252l-6-20.1h5.1L138,243l3.4-11.1h5.1L140.5,252z"/>
		<path d="M153.3,236.7v7.8h5.5v4.9h-5.5v8.6h8v4.9h-12.8v-31h12.8v4.9H153.3z"/>
		<path d="M178.9,262.9h-5l-2.5-12.4h-2.2v12.4h-4.9v-31h7.3c2.1,0,3.8,0.6,5.1,1.9c1.5,1.4,2.2,3.3,2.2,5.8v3.3
			c0,2.5-0.7,4.4-2.2,5.8c-0.2,0.2-0.4,0.4-0.7,0.6L178.9,262.9z M174.1,239.5c0-1-0.2-1.8-0.7-2.2c-0.4-0.4-1-0.5-1.8-0.5h-2.5v8.8
			h2.5c0.8,0,1.4-0.2,1.8-0.5c0.4-0.4,0.7-1.2,0.7-2.2V239.5z"/>
	</g>
	<g>
		<path d="M7.1,163.5l-2.3,11.7h14.5l-0.3,1.8H4.4L2,189H0l5.5-27.3h18.3l-0.4,1.8H7.1z"/>
		<path d="M22.9,180.7c0-7,4.9-12.2,11.7-12.2c5.5,0,9,3.3,9,8.5c0,7-4.9,12.2-11.7,12.2C26.4,189.1,22.9,185.8,22.9,180.7z
			 M41.6,177c0-4.3-2.7-6.8-7.2-6.8c-5.5,0-9.6,4.4-9.6,10.3c0,4.3,2.7,6.8,7.2,6.8C37.6,187.4,41.6,183,41.6,177z"/>
		<path d="M61.2,168.4l-0.3,1.9c-0.2,0-0.4,0-0.6,0c-4.6,0-7.6,2.8-8.7,8.2L49.4,189h-1.9l4.1-20.4h1.9l-0.9,4.3
			C54.3,170,57.1,168.4,61.2,168.4z"/>
		<path d="M74.3,189v-21.4l-0.8-3.9l0.8-2.3h13.3c2.9,0,5.3,0.5,7.1,1.6c1.8,1.1,2.7,2.9,2.7,5.3c0,1.2-0.2,2.3-0.6,3.3
			c-0.4,1-1,1.8-1.8,2.3c1.8,0.6,3.1,1.4,3.9,2.6c0.8,1.2,1.3,2.6,1.3,4.2c0,2.8-0.8,4.9-2.5,6.3c-1.7,1.3-4.1,2-7.2,2H74.3z
			 M81.4,172.1h6.2c0.9,0,1.5-0.2,1.9-0.6c0.4-0.4,0.6-1,0.6-1.6c0-0.9-0.3-1.4-0.9-1.8c-0.6-0.3-1.2-0.5-2-0.5h-5.8V172.1z
			 M81.4,182.7h7.8c0.9,0,1.6-0.1,2.1-0.4c0.5-0.2,0.8-0.5,0.9-0.9c0.1-0.4,0.2-0.7,0.2-1.1c0-0.7-0.2-1.3-0.7-1.7
			c-0.5-0.5-1.2-0.7-2.1-0.7h-8.2V182.7z"/>
		<path d="M112.6,189.4c-2,0-3.8-0.3-5.3-0.9c-1.6-0.6-2.8-1.6-3.7-3s-1.3-3.3-1.3-5.7c0-1.7,0.3-3.2,0.9-4.4c0.6-1.2,1.4-2.2,2.4-3
			c1-0.8,2.1-1.3,3.3-1.7c1.2-0.4,2.5-0.5,3.8-0.5c2.2,0,4,0.2,5.2,0.7c1.2,0.4,2,0.8,2.4,1.1l1.9,6.2l-0.8,2.4h-12.1
			c0.2,1,0.7,1.8,1.4,2.4c0.8,0.7,2.1,1,3.9,1c1.4,0,2.6-0.2,3.6-0.5c1-0.3,1.8-0.6,2.4-0.8v5.2c-0.8,0.4-1.9,0.8-3.4,1.1
			C115.7,189.2,114.1,189.4,112.6,189.4z M109.2,178l5.4-0.8l-0.4-1.7c-0.2-0.1-0.4-0.2-0.8-0.2c-0.4-0.1-0.7-0.1-0.9-0.1
			c-0.7,0-1.3,0.2-1.8,0.5c-0.5,0.3-0.8,0.7-1.1,1.1C109.4,177.2,109.3,177.6,109.2,178z"/>
		<path d="M128.9,169.4l-5-5l5-5l5,5L128.9,169.4z M125.4,189V176l-0.8-3.1l0.8-2.4h7.1V189H125.4z"/>
		<path d="M136.8,189v-11.7l-0.8-4.3l1.2-2.4h5.8v1.7l0.4,0.2c0.3-0.3,0.7-0.6,1.2-0.9c0.5-0.4,1.1-0.7,1.9-1
			c0.7-0.3,1.5-0.4,2.5-0.4c2.3,0,4.1,0.7,5.3,2c1.2,1.3,1.8,3.2,1.8,5.6v5l0.8,3.9l-0.8,2.4h-7v-10.2c0-1-0.2-1.7-0.6-2.3
			c-0.4-0.5-1.1-0.8-2-0.8l-2.4,0.7V189H136.8z"/>
		<path d="M168.1,198.4c-0.7,0-1.4,0-2.2-0.1s-1.5-0.1-2-0.1l-4.8-2.3l1.9-5.1l6.1,2c3.5,0,5.2-1.4,5.2-4.3v-0.7l-0.4-0.2
			c-0.4,0.4-0.9,0.7-1.7,1.1c-0.8,0.4-2,0.6-3.7,0.6c-1.2,0-2.4-0.3-3.6-0.9c-1.1-0.6-2.1-1.6-2.8-2.9c-0.7-1.4-1.1-3.1-1.1-5.3
			c0-2.4,0.4-4.4,1.1-5.8c0.7-1.5,1.7-2.5,2.8-3.2c1.1-0.7,2.3-1,3.5-1c1.4,0,2.5,0.2,3.3,0.6c0.9,0.4,1.5,0.8,1.7,1.1v-1.3h7.1
			l0.4,2.3l-0.4,2.3l0,13.7c0,2.2-0.4,4.1-1.3,5.5c-0.9,1.4-2.1,2.4-3.7,3.1C172.1,198.1,170.2,198.4,168.1,198.4z M169.4,183.8
			c0.5,0,0.9-0.1,1.3-0.2c0.4-0.1,0.7-0.2,0.9-0.4v-7.3c-0.1-0.1-0.3-0.2-0.6-0.2c-0.3-0.1-0.7-0.1-1.2-0.1c-1,0-1.8,0.3-2.4,1
			c-0.6,0.7-0.9,1.7-0.9,3.2c0,1.4,0.3,2.5,0.9,3.1C167.9,183.5,168.6,183.8,169.4,183.8z"/>
	</g>
	<g>
		<g>
			<rect x="8.4" y="278.7" transform="matrix(-1 -4.405335e-10 4.405335e-10 -1 40.36 558.1332)" width="23.6" height="0.8"/>
			<rect x="7.7" y="278.1" width="24.9" height="2"/>
		</g>
		<circle cx="3" cy="279.1" r="3"/>
	</g>
	<g>
		<g>
			<rect x="148.1" y="278.7" width="23.6" height="0.8"/>
			<rect x="147.4" y="278.1" width="24.8" height="2"/>
		</g>
		<circle cx="177" cy="279.1" r="3"/>
	</g>
	<g>
		<path d="M40.6,274.5c0.4,0.7,0.9,1.2,1.6,1.5c0.2,0.1,0.3,0.2,0.5,0.2c0.2,0.1,0.3,0.1,0.5,0.2c0.2,0,0.3,0.1,0.5,0.1
			c0.2,0,0.4,0.1,0.5,0.1c0.7,0.1,1.4,0,2.1,0c1.4-0.2,2.7-0.5,4-0.8c0.7-0.1,1.3-0.2,2-0.3c0.7-0.1,1.3-0.1,2-0.1
			c2.7,0,5.3,0.4,7.8,1.4c2.3,0.9,4.5,2,6.8,3.2c-0.3,0.2-0.6,0.5-0.9,0.7c-0.3-0.1-0.7-0.3-1-0.4c-1.3-0.5-2.6-1-4-1.3
			c-1.4-0.3-2.8-0.5-4.2-0.4c-1.4,0-2.8,0.2-4.2,0.6c-0.7,0.2-1.4,0.4-2,0.8c-0.3,0.2-0.7,0.4-1,0.6c-0.3,0.3-0.6,0.6-0.8,0.9
			c-0.2,0.4-0.4,0.8-0.4,1.2c-0.1,0.4,0,0.9,0.1,1.3c0.2,0.8,0.7,1.4,1.3,1.9c0.3,0.3,0.6,0.5,0.9,0.7c0.2,0.1,0.3,0.2,0.5,0.3
			c0.2,0.1,0.3,0.1,0.5,0.2c0.7,0.2,1.4,0.4,2.1,0.5c1.5,0.1,2.9-0.1,4.3-0.5c1.4-0.4,2.6-1.1,3.8-1.8c1.2-0.7,2.3-1.6,3.3-2.4
			c0.3-0.3,0.6-0.5,1-0.8c1.9,0.8,3.8,1.7,5.8,2.3c1.3,0.4,2.7,0.7,4.1,0.8c1.4,0.1,2.8-0.1,4.1-0.4c1.3-0.4,2.6-0.9,3.8-1.6
			c1.2-0.7,2.3-1.6,3.2-2.5l-0.3-0.3c-1,0.9-2.1,1.7-3.2,2.4c-1.2,0.7-2.4,1.1-3.7,1.5c-1.3,0.3-2.6,0.4-3.9,0.3
			c-1.3-0.1-2.6-0.4-3.9-0.8c-1.8-0.6-3.4-1.4-5.2-2.1c0.3-0.2,0.6-0.4,0.9-0.7c1,0.5,2,0.9,3,1.2c1.3,0.4,2.7,0.8,4.1,0.9
			c0.3,0,0.7,0.1,1.1,0c0.4,0,0.8-0.1,1.2-0.2c0.2-0.1,0.4-0.1,0.6-0.3c0.2-0.1,0.4-0.3,0.5-0.4c0.3-0.3,0.6-0.7,0.6-1.2
			c0-0.2,0-0.5,0-0.7c-0.1-0.2-0.2-0.5-0.3-0.7c-0.2-0.4-0.6-0.7-0.9-0.9c-0.6-0.5-1.3-0.8-2-1c-0.7-0.2-1.5-0.3-2.2-0.3
			c-0.7,0-1.5,0.1-2.2,0.3c-0.7,0.2-1.4,0.4-2,0.7c-0.6,0.3-1.3,0.7-1.8,1c0,0,0,0,0,0c0,0,0,0,0,0c-2.4-1.1-4.9-2.5-7.5-3.4
			c-2.6-0.9-5.4-1.4-8.2-1.3c-0.7,0-1.4,0.1-2.1,0.2c-0.7,0.1-1.4,0.2-2,0.4c-1.3,0.3-2.6,0.7-3.9,0.9c-0.7,0.1-1.3,0.1-1.9,0.1
			c-0.2,0-0.3,0-0.5-0.1c-0.2,0-0.3-0.1-0.5-0.1c-0.2,0-0.3-0.1-0.5-0.1c-0.2,0-0.3-0.1-0.4-0.2c-0.5-0.3-1-0.7-1.3-1.2
			c-0.2-0.3-0.3-0.5-0.3-0.8c0-0.3,0-0.6,0.2-0.8c0.1-0.2,0.3-0.5,0.6-0.7c0.1,0,0.1-0.1,0.2-0.1l0.2-0.1c0.1-0.1,0.3-0.1,0.4-0.2
			c0.3-0.1,0.6-0.1,0.9-0.1c0.3,0,0.6,0.1,0.9,0.2c0.3,0.1,0.6,0.2,0.8,0.4c0.3,0.2,0.5,0.4,0.6,0.7c0.2,0.3,0.2,0.6,0.2,0.8
			c0,0.1-0.1,0.2-0.2,0.2c-0.1,0-0.2,0-0.3,0l-0.3,0.3c0.1,0.1,0.2,0.1,0.3,0.1c0.1,0,0.2,0,0.3-0.1c0.2-0.1,0.4-0.2,0.5-0.5
			c0.1-0.2,0.1-0.4,0.1-0.6c0-0.2-0.1-0.4-0.2-0.5c-0.2-0.3-0.4-0.6-0.7-0.8c-0.3-0.2-0.6-0.4-1-0.5c-0.7-0.2-1.5-0.3-2.2-0.1
			c-0.2,0-0.4,0.1-0.5,0.2l-0.2,0.1c-0.1,0-0.2,0.1-0.2,0.2c-0.3,0.2-0.6,0.5-0.8,0.8c-0.2,0.3-0.3,0.8-0.3,1.2
			C40.3,273.8,40.4,274.2,40.6,274.5z M66.8,281.5c-1.1,0.8-2.1,1.7-3.2,2.4c-1.1,0.7-2.3,1.3-3.5,1.7c-1.2,0.4-2.5,0.6-3.8,0.5
			c-0.6-0.1-1.2-0.2-1.8-0.4c-0.1,0-0.3-0.1-0.4-0.2c-0.1-0.1-0.3-0.1-0.4-0.2c-0.3-0.1-0.5-0.3-0.7-0.5c-0.4-0.4-0.8-0.9-1-1.4
			c-0.1-0.3-0.1-0.5-0.1-0.8c0-0.2,0.1-0.5,0.2-0.7c0.3-0.5,0.7-0.8,1.3-1.1c0.5-0.3,1.1-0.5,1.8-0.7c1.3-0.4,2.6-0.6,3.9-0.6
			c1.3,0,2.6,0.1,3.9,0.4c1.3,0.3,2.6,0.7,3.8,1.2c0.2,0.1,0.3,0.1,0.5,0.2C67,281.3,66.9,281.4,66.8,281.5z M74.3,278.5
			c1.2-0.3,2.5-0.4,3.7,0c0.6,0.2,1.1,0.4,1.6,0.8c0.2,0.2,0.4,0.4,0.6,0.5c0.1,0.1,0.1,0.2,0.1,0.3c0,0.1,0,0.2,0,0.3
			c0,0.2-0.1,0.4-0.3,0.6c-0.2,0.2-0.4,0.3-0.6,0.4c-0.5,0.2-1.1,0.2-1.8,0.1c-1.3-0.1-2.6-0.4-3.8-0.8c-0.8-0.2-1.5-0.5-2.2-0.9
			C72.4,279.2,73.3,278.8,74.3,278.5z"/>
		<path d="M92.9,282.8c1.2,0.7,2.5,1.2,3.8,1.6c1.3,0.3,2.8,0.5,4.1,0.4c1.4-0.1,2.8-0.4,4.1-0.8c2-0.6,3.9-1.5,5.8-2.3
			c0.3,0.3,0.6,0.5,1,0.8c1.1,0.9,2.2,1.7,3.3,2.4c1.2,0.7,2.4,1.4,3.8,1.8c1.4,0.4,2.8,0.6,4.3,0.5c0.7-0.1,1.4-0.2,2.1-0.5
			c0.2-0.1,0.3-0.1,0.5-0.2c0.2-0.1,0.3-0.2,0.5-0.3c0.3-0.2,0.6-0.4,0.9-0.7c0.6-0.5,1.1-1.1,1.3-1.9c0.1-0.4,0.2-0.8,0.1-1.3
			c0-0.4-0.2-0.8-0.4-1.2c-0.2-0.4-0.5-0.7-0.8-0.9c-0.3-0.3-0.6-0.5-1-0.6c-0.7-0.4-1.4-0.6-2-0.8c-1.4-0.4-2.8-0.6-4.2-0.6
			c-1.4,0-2.8,0.1-4.2,0.4c-1.4,0.3-2.7,0.8-4,1.3c-0.3,0.1-0.7,0.3-1,0.4c-0.3-0.2-0.6-0.5-0.9-0.7c2.3-1.1,4.5-2.3,6.8-3.2
			c2.5-0.9,5.1-1.4,7.8-1.4c0.7,0,1.3,0,2,0.1c0.7,0.1,1.3,0.2,2,0.3c1.3,0.3,2.6,0.6,4,0.8c0.7,0.1,1.4,0.1,2.1,0
			c0.2,0,0.4,0,0.5-0.1c0.2,0,0.4-0.1,0.5-0.1c0.2,0,0.3-0.1,0.5-0.2c0.2-0.1,0.3-0.1,0.5-0.2c0.7-0.3,1.2-0.9,1.6-1.5
			c0.2-0.3,0.3-0.7,0.3-1.1c0-0.4-0.1-0.8-0.3-1.2c-0.2-0.3-0.5-0.6-0.8-0.8c-0.1-0.1-0.2-0.1-0.2-0.2l-0.2-0.1
			c-0.2-0.1-0.3-0.1-0.5-0.2c-0.7-0.2-1.5-0.2-2.2,0.1c-0.3,0.1-0.7,0.3-1,0.5c-0.3,0.2-0.5,0.5-0.7,0.8c-0.1,0.2-0.2,0.3-0.2,0.5
			c0,0.2,0,0.4,0.1,0.6c0.1,0.2,0.3,0.4,0.5,0.5c0.1,0,0.2,0.1,0.3,0.1c0.1,0,0.3-0.1,0.3-0.1l-0.3-0.3c-0.1,0.1-0.2,0.1-0.3,0
			c-0.1,0-0.2-0.1-0.2-0.2c-0.1-0.2,0-0.5,0.2-0.8c0.2-0.3,0.4-0.5,0.6-0.7c0.2-0.2,0.5-0.3,0.8-0.4c0.3-0.1,0.6-0.1,0.9-0.2
			c0.3,0,0.6,0,0.9,0.1c0.1,0,0.3,0.1,0.4,0.2l0.2,0.1c0.1,0,0.1,0.1,0.2,0.1c0.2,0.2,0.5,0.4,0.6,0.7c0.1,0.3,0.2,0.5,0.2,0.8
			c0,0.3-0.1,0.6-0.3,0.8c-0.3,0.5-0.8,0.9-1.3,1.2c-0.1,0.1-0.3,0.1-0.4,0.2c-0.2,0-0.3,0.1-0.5,0.1c-0.2,0-0.3,0.1-0.5,0.1
			c-0.2,0-0.3,0.1-0.5,0.1c-0.6,0.1-1.3,0-1.9-0.1c-1.3-0.2-2.6-0.6-3.9-0.9c-0.7-0.2-1.4-0.3-2-0.4c-0.7-0.1-1.4-0.1-2.1-0.2
			c-2.8-0.1-5.6,0.4-8.2,1.3c-2.6,0.9-5,2.2-7.5,3.4c0,0,0,0,0,0l0,0c-0.6-0.4-1.2-0.7-1.8-1c-0.6-0.3-1.3-0.6-2-0.7
			c-0.7-0.2-1.4-0.3-2.2-0.3c-0.7,0-1.5,0.1-2.2,0.3c-0.7,0.2-1.4,0.5-2,1c-0.3,0.2-0.6,0.5-0.9,0.9c-0.1,0.2-0.2,0.4-0.3,0.7
			c-0.1,0.2-0.1,0.5,0,0.7c0.1,0.5,0.3,0.9,0.6,1.2c0.2,0.2,0.3,0.3,0.5,0.4c0.2,0.1,0.4,0.2,0.6,0.3c0.4,0.1,0.8,0.2,1.2,0.2
			c0.4,0,0.7,0,1.1,0c1.4-0.1,2.8-0.4,4.1-0.9c1-0.4,2-0.8,3-1.2c0.3,0.2,0.6,0.4,0.9,0.7c-1.7,0.8-3.4,1.6-5.2,2.1
			c-1.3,0.4-2.6,0.7-3.9,0.8c-1.3,0.1-2.6,0-3.9-0.3c-1.3-0.3-2.5-0.8-3.7-1.5c-1.2-0.6-2.3-1.4-3.2-2.4h-0.6l0.3,0.3
			C90.6,281.2,91.7,282.1,92.9,282.8z M112.6,281c1.3-0.5,2.5-0.9,3.8-1.2c1.3-0.3,2.6-0.4,3.9-0.4c1.3,0,2.6,0.3,3.9,0.6
			c0.6,0.2,1.2,0.4,1.8,0.7c0.5,0.3,1,0.7,1.3,1.1c0.1,0.2,0.2,0.5,0.2,0.7c0,0.2,0,0.5-0.1,0.8c-0.2,0.5-0.5,1-1,1.4
			c-0.2,0.2-0.5,0.4-0.7,0.5c-0.1,0.1-0.3,0.1-0.4,0.2c-0.1,0.1-0.3,0.1-0.4,0.2c-0.6,0.2-1.2,0.3-1.8,0.4c-1.3,0.1-2.6-0.1-3.8-0.5
			c-1.2-0.4-2.4-1-3.5-1.7c-1.1-0.7-2.2-1.5-3.2-2.4c-0.1-0.1-0.3-0.2-0.4-0.3C112.3,281.2,112.4,281.1,112.6,281z M105.5,280.6
			c-1.3,0.4-2.5,0.7-3.8,0.8c-0.6,0.1-1.3,0.1-1.8-0.1c-0.3-0.1-0.4-0.2-0.6-0.4c-0.2-0.2-0.3-0.4-0.3-0.6c0-0.1,0-0.2,0-0.3
			c0-0.1,0.1-0.2,0.1-0.3c0.1-0.2,0.3-0.4,0.6-0.5c0.5-0.4,1-0.6,1.6-0.8c1.2-0.3,2.5-0.3,3.7,0c1,0.2,1.9,0.7,2.8,1.2
			C107,280,106.3,280.3,105.5,280.6z"/>
	</g>
</g>
</svg>
