<?xml version="1.0" encoding="utf-8"?>
<!-- Generator: Adobe Illustrator 25.2.1, SVG Export Plug-In . SVG Version: 6.00 Build 0)  -->
<svg version="1.1" id="Layer_1" xmlns="http://www.w3.org/2000/svg" xmlns:xlink="http://www.w3.org/1999/xlink" x="0px" y="0px"
	 viewBox="0 0 180 192.4" style="enable-background:new 0 0 180 192.4;" xml:space="preserve">
<style type="text/css">
	.st0{fill:#1B1B1B;}
	.st1{fill:#FFFFFF;}
	.st2{fill:#292929;}
	.st3{fill:none;stroke:#000000;stroke-width:0.25;}
	.st4{fill:none;stroke:#000000;stroke-width:0.5;stroke-miterlimit:10;}
	.st5{stroke:#000000;stroke-width:0.25;stroke-miterlimit:10;}
	.st6{fill:none;stroke:#000000;stroke-miterlimit:10;}
	.st7{stroke:#000000;stroke-miterlimit:10;}
	.st8{fill:none;stroke:#000000;stroke-width:0.25;stroke-miterlimit:10;}
</style>
<g>
	<g>
		<path d="M33.3,38.7c-1.2-0.8-2.4-1.7-3.6-2.7c-1.3-1.1-2.7-2.4-4.4-3.1c-6.7-2.7-8.7,3.8-3.3,6.5c1.3,0.6,2.7,0.9,3.8,1.1
			c2.5,0.5,5.2,0.8,7.7,0.2C35.4,40.4,35.6,40.2,33.3,38.7z M25.9,38.2c-1.5,0.4-4.3-0.3-4.7-2c0-0.1,0-0.3,0.2-0.3
			c0.9-0.1,1.7,0.3,2.5,0.7c0.8,0.4,1.6,0.7,2.1,1.4C26,38.1,25.9,38.2,25.9,38.2z"/>
	</g>
	<g>
		<path d="M64.7,111.6c-6.4-0.9-5-0.9-11.6-0.8c-6.6-0.2-13.3-0.2-19.7,0.8c-0.1,0-0.1,0.2,0,0.3c6.4,0.9,13.1,0.9,19.7,0.8
			c6.6,0.2,5.2,0.2,11.6-0.8C64.9,111.8,64.9,111.6,64.7,111.6z"/>
	</g>
	<g>
		<path d="M55,115c-6.7-0.2-7.5-0.2-13.9,0.8c-0.1,0-0.1,0.2,0,0.3c6.4,1,7.3,0.9,13.9,0.8c6.7,0.2,3.3,0.2,9.7-0.8
			c0.1,0,0.1-0.2,0-0.3C58.3,114.8,61.6,114.8,55,115z"/>
	</g>
	<g>
		<path d="M64.7,107.4c-6.4-1-3.1-0.9-9.7-0.8c-6.7-0.2-7.5-0.2-13.9,0.8c-0.1,0-0.1,0.2,0,0.3c6.4,1,7.3,0.9,13.9,0.8
			c6.7,0.2,3.3,0.2,9.7-0.8C64.9,107.7,64.9,107.4,64.7,107.4z"/>
	</g>
	<g>
		<path d="M135.3,47.1v0.3h0.3C135.6,47.2,135.5,47.1,135.3,47.1z"/>
	</g>
	<g>
		<path d="M148.6,111.6c-6.4-0.9-13.1-0.9-19.7-0.8c-6.6-0.2-5.2-0.2-11.6,0.8c-0.1,0-0.1,0.2,0,0.3c6.4,0.9,5,0.9,11.6,0.8
			c6.6,0.2,13.3,0.2,19.7-0.8C148.7,111.8,148.7,111.6,148.6,111.6z"/>
	</g>
	<g>
		<path d="M127.1,115c-6.7-0.2-3.3-0.2-9.7,0.8c-0.1,0-0.1,0.2,0,0.3c6.4,1,3.1,0.9,9.7,0.8c6.7,0.2,7.5,0.2,13.9-0.8
			c0.1,0,0.1-0.2,0-0.3C134.5,114.8,133.7,114.8,127.1,115z"/>
	</g>
	<g>
		<path d="M126.7,47.1v0.3h0.3C127,47.2,126.9,47.1,126.7,47.1z"/>
	</g>
	<g>
		<path d="M152.1,30.2c1.5-0.2,2.9-0.9,4-1.8c1.2-1.1,2.2-3,1.3-4.6c-1-1.8-2.8-1.6-4.1-0.5c-0.8,0.6-1.2,2.2-1.4,3.1
			c-0.2,0.6-0.3,1.2-0.5,1.8c-0.1,0.3-0.2,0.5-0.3,0.7C150.3,30.1,150.5,30.4,152.1,30.2z M156,24.8c0.1-0.1,0.2,0,0.2,0.1
			c0.3,1-0.5,2.6-1.7,2.6c-0.1,0-0.2-0.1-0.2-0.2C154.7,26.3,155.3,25.3,156,24.8z"/>
	</g>
	<g>
		<path d="M69.4,22c1.8-1,1.4-2.6,1.4-2.6c-2,0-3.6,1-4.8,2.3c0,0-0.1,0-0.1,0.1C66.3,23.1,68.4,22.5,69.4,22z"/>
	</g>
	<g>
		<path d="M68.1,10.6L68.1,10.6c-0.4,0-2.2,1.4-4.5,4.3c-0.1,0.1-0.2,0.2-0.3,0.3C67.7,12.7,68.3,10.8,68.1,10.6z"/>
	</g>
	<g>
		<path d="M76.6,27.1c0.1,0,0.2,0,0.4-0.1c2.1-0.5,5.7-4.9,7.1-6.6c0.1,0,0.1-0.1,0.1-0.1h0c-0.4-0.4-1-0.8-1.8-0.8
			c-0.5,0-1.1,0.1-1.5,0.3C77.5,21.3,75.1,27.1,76.6,27.1z"/>
	</g>
	<g>
		<path d="M138.6,23.4c-0.9,6.3-5.4,11.8-10.9,15.3c-2.5,1.6-2.6,2.4,0.1,2.1c7-0.8,14.2-3.4,18.5-9.2c4.1-5.6,6.5-14,3.6-20.6
			c-2.1-4.8-9.9-7.8-12-0.9C136.5,14.6,139.3,18.7,138.6,23.4z M144.1,8.6c5.5,0.7,5.9,10.2,3.3,13.6c-0.2,0.2-0.5,0.1-0.5-0.1
			c-0.3-4.5-0.1-9.5-2.9-13.3C143.9,8.7,144,8.6,144.1,8.6z"/>
	</g>
	<g>
		<path d="M150.6,40.6c1.1-0.2,2.6-0.5,3.8-1.1c5.4-2.7,3.4-9.2-3.3-6.5c-1.6,0.6-3.1,1.9-4.4,3.1c-1.2,1-2.3,1.9-3.6,2.7
			c-2.3,1.5-2.1,1.6-0.2,2.1C145.5,41.4,148.2,41.1,150.6,40.6z M150.6,38c0.5-0.7,1.4-1,2.1-1.4c0.8-0.4,1.5-0.9,2.5-0.7
			c0.1,0,0.2,0.2,0.2,0.3c-0.4,1.7-3.2,2.4-4.7,2C150.6,38.2,150.5,38.1,150.6,38z"/>
	</g>
	<g>
		<path d="M20.4,28.3c1.1,0.9,2.5,1.6,4,1.8c1.6,0.2,1.8-0.1,1-1.4c-0.1-0.2-0.2-0.4-0.3-0.7c-0.2-0.6-0.4-1.2-0.5-1.8
			c-0.2-0.9-0.7-2.5-1.4-3.1c-1.3-1.1-3.1-1.3-4.1,0.5C18.3,25.3,19.2,27.3,20.4,28.3z M20.3,24.8c0-0.1,0.2-0.1,0.2-0.1
			c0.7,0.5,1.3,1.6,1.6,2.4c0,0.1,0,0.2-0.2,0.2C20.7,27.4,20,25.8,20.3,24.8z"/>
	</g>
	<g>
		<path d="M33.2,72.8c-0.4,0-0.6,0.2-0.6,0.6h0.6V72.8z"/>
	</g>
	<g>
		<path d="M117.3,107.7c6.4,1,3.1,0.9,9.7,0.8c6.7,0.2,7.5,0.2,13.9-0.8c0.1,0,0.1-0.2,0-0.3c-6.4-1-7.3-0.9-13.9-0.8
			c-6.7-0.2-3.3-0.2-9.7,0.8C117.2,107.4,117.2,107.7,117.3,107.7z"/>
	</g>
	<g>
		<path d="M48.6,40.8c2.7,0.3,2.6-0.5,0.1-2.1c-5.5-3.4-10-9-10.9-15.3c-0.7-4.7,2.2-8.8,0.7-13.3c-2.1-6.9-10-3.8-12,0.9
			c-2.9,6.7-0.5,15,3.6,20.6C34.4,37.4,41.6,40,48.6,40.8z M29.1,22.2c-2.6-3.4-2.2-12.9,3.3-13.6c0.1,0,0.2,0.1,0.1,0.2
			c-2.8,3.8-2.7,8.7-2.9,13.3C29.5,22.3,29.2,22.4,29.1,22.2z"/>
	</g>
	<g>
		<path d="M86.6,72.7c0,0.4,0.2,0.6,0.6,0.6V73c0-0.4-0.2-0.6-0.6-0.6V72.7z"/>
	</g>
	<g>
		<path d="M99.9,95.1h-0.3v0.3C99.8,95.4,99.9,95.3,99.9,95.1z"/>
	</g>
	<g>
		<path d="M110.6,49.3v0.3h0.3C110.9,49.4,110.8,49.3,110.6,49.3z"/>
	</g>
	<g>
		<path d="M129.9,12.7c-5.7-6.1-15.3-8.9-23.2-10.9C91.5-2,67.1,0.4,54.9,6.6c-16,8.2-16.3,22-0.1,30.5c12.1,6.3,27.9,6.4,41.2,5.5
			c11.6-0.8,25.4-3.5,33.7-12.2C135,25.1,134.9,18,129.9,12.7z"/>
	</g>
	<g>
		<g>
			<path class="st1" d="M70,22.3l-3.5-6.7h1.4l1.6,3.1c0.4,0.8,0.8,1.6,1.2,2.4h0.1c0.4-0.8,0.8-1.6,1.2-2.4l1.5-3.1h1.4l-3.5,6.7
				V26H70V22.3z"/>
			<path class="st1" d="M71.7,26.4h-2v-4l-3.7-7.1h2.2l1.7,3.3c0.1,0.3,0.3,0.6,0.4,0.8c0.2,0.3,0.3,0.7,0.5,1l0.2-0.5
				c0.2-0.5,0.5-0.9,0.7-1.4l1.6-3.3h2.1l-3.7,7.1V26.4z M70.3,25.7H71l0-3.5l3.2-6.2h-0.6l-1.4,2.9c-0.2,0.5-0.5,0.9-0.7,1.4
				l-0.6,1.2h-0.4l-0.2-0.2c-0.3-0.5-0.5-1.1-0.8-1.6l-0.4-0.8L67.7,16h-0.6l3.3,6.3V25.7z"/>
		</g>
		<g>
			<path class="st1" d="M77.6,22.2c0-2.6,1.8-4.1,3.8-4.1c2,0,3.8,1.5,3.8,4.1c0,2.6-1.8,4-3.8,4C79.3,26.2,77.6,24.8,77.6,22.2z
				 M83.8,22.2c0-1.8-1-3-2.5-3c-1.5,0-2.5,1.2-2.5,3c0,1.8,1,2.9,2.5,2.9C82.8,25.1,83.8,24,83.8,22.2z"/>
			<path class="st1" d="M81.4,26.6c-2.1,0-4.2-1.5-4.2-4.4c0-2.9,2.1-4.4,4.2-4.4c2.1,0,4.2,1.5,4.2,4.4
				C85.5,25.1,83.4,26.6,81.4,26.6z M81.4,18.5c-1.7,0-3.5,1.2-3.5,3.7c0,2.5,1.8,3.7,3.5,3.7c1.7,0,3.5-1.2,3.5-3.7
				C84.8,19.7,83,18.5,81.4,18.5z M81.4,25.5c-1.7,0-2.8-1.3-2.8-3.3c0-2,1.1-3.3,2.8-3.3s2.8,1.3,2.8,3.3
				C84.2,24.2,83,25.5,81.4,25.5z M81.4,19.6c-1.3,0-2.1,1-2.1,2.6c0,1.6,0.8,2.6,2.1,2.6s2.1-1,2.1-2.6
				C83.5,20.6,82.6,19.6,81.4,19.6z"/>
		</g>
		<g>
			<path class="st1" d="M88.5,23.1v-4.8h1.3V23c0,1.4,0.5,2.1,1.8,2.1c0.9,0,1.5-0.4,2.4-1.4v-5.3h1.3V26h-1.1l-0.1-1.3h-0.1
				c-0.8,0.9-1.7,1.5-2.9,1.5C89.4,26.2,88.5,25.2,88.5,23.1z"/>
			<path class="st1" d="M91.2,26.6c-1.4,0-3-0.6-3-3.5V18h2v5c0,1.5,0.6,1.8,1.4,1.8c0.7,0,1.3-0.3,2-1.2V18h2v8.4h-1.8l-0.1-1
				C93,26.2,92.2,26.6,91.2,26.6z M88.9,18.7v4.4c0,1.9,0.7,2.8,2.3,2.8c0.9,0,1.8-0.4,2.6-1.4l0.1-0.1h0.5l0.1,0.3l0.1,1H95v-7
				h-0.6v5.1l-0.1,0.1c-0.8,0.9-1.5,1.5-2.7,1.5c-1.4,0-2.1-0.8-2.1-2.5v-4.3H88.9z"/>
		</g>
		<g>
			<path class="st1" d="M100.3,18.3h1.1l0.1,1.8h0c0.8-1.3,2-2,3.4-2c0.6,0,1,0.1,1.5,0.3l-0.3,1.1c-0.5-0.2-0.8-0.3-1.4-0.3
				c-1.2,0-2.3,0.6-3.2,2.2V26h-1.3V18.3z"/>
			<path class="st1" d="M102,26.4h-2V18h1.8l0.1,1.3c0.9-0.9,2-1.5,3.2-1.5c0.7,0,1.2,0.1,1.7,0.4l0.3,0.1l-0.5,1.7l-0.3-0.1
				c-0.5-0.2-0.8-0.2-1.3-0.2c-1.1,0-2.1,0.6-2.8,2V26.4z M100.7,25.7h0.6v-4.2l0-0.1c0.9-1.6,2.1-2.4,3.5-2.4
				c0.5,0,0.8,0.1,1.2,0.2l0.1-0.5c-0.3-0.1-0.7-0.2-1.1-0.2c-1.3,0-2.4,0.7-3.1,1.9l-0.1,0.2h-0.5l-0.1-0.3l-0.1-1.5h-0.4V25.7z"/>
		</g>
	</g>
	<g>
		<g>
			<path d="M0.7,54.2h9.5c3.2,0,5.6,0.9,7.2,2.6c1.6,1.7,2.4,4.3,2.4,7.6v4.1c0,3.3-0.8,5.9-2.4,7.6c-1.6,1.7-4,2.6-7.2,2.6H7.2
				v16.8H0.7V54.2z M10.2,72.8c1.1,0,1.9-0.3,2.4-0.9c0.5-0.6,0.8-1.6,0.8-3V64c0-1.4-0.3-2.4-0.8-3c-0.5-0.6-1.3-0.9-2.4-0.9H7.2
				v12.7H10.2z"/>
			<path d="M7.9,96.1H0V53.5h10.2c3.4,0,6,0.9,7.7,2.8c1.7,1.9,2.6,4.6,2.6,8.1v4.1c0,3.5-0.9,6.2-2.6,8.1c-1.7,1.9-4.3,2.8-7.7,2.8
				H7.9V96.1z M1.4,94.7h5.1V77.9h3.8c3,0,5.3-0.8,6.7-2.4c1.5-1.6,2.2-4,2.2-7.1v-4.1c0-3.1-0.7-5.5-2.2-7.1
				c-1.5-1.6-3.7-2.4-6.7-2.4H1.4V94.7z M10.2,73.4H6.5v-14h3.8c1.3,0,2.2,0.4,2.9,1.1c0.7,0.7,1,1.9,1,3.5v4.9c0,1.6-0.3,2.7-1,3.5
				C12.5,73.1,11.5,73.4,10.2,73.4z M7.9,72.1h2.4c0.9,0,1.5-0.2,1.9-0.7c0.4-0.4,0.6-1.3,0.6-2.5V64c0-1.2-0.2-2.1-0.6-2.5
				c-0.4-0.4-1-0.7-1.9-0.7H7.9V72.1z"/>
		</g>
		<g>
			<path d="M23.7,54.2h9.6c3.3,0,5.8,0.8,7.3,2.3c1.5,1.5,2.3,3.9,2.3,7.2v2.5c0,4.3-1.4,7-4.2,8.1v0.1c1.6,0.5,2.7,1.4,3.3,2.9
				c0.6,1.5,1,3.4,1,5.8v7.2c0,1.2,0,2.1,0.1,2.9c0.1,0.7,0.3,1.4,0.6,2.1h-6.6c-0.2-0.7-0.4-1.3-0.5-1.9c-0.1-0.6-0.1-1.6-0.1-3.2
				v-7.5c0-1.9-0.3-3.2-0.9-3.9c-0.6-0.7-1.7-1.1-3.1-1.1h-2.2v17.7h-6.5V54.2z M32.5,71.9c1.3,0,2.3-0.3,2.9-1c0.6-0.7,1-1.8,1-3.4
				v-3.2c0-1.5-0.3-2.6-0.8-3.2c-0.5-0.7-1.4-1-2.5-1h-2.9v11.8H32.5z"/>
			<path d="M44.7,96.1h-8.1l-0.2-0.5c-0.2-0.7-0.4-1.4-0.5-2c-0.1-0.6-0.1-1.7-0.1-3.3v-7.5c0-2.1-0.4-3.1-0.8-3.5
				c-0.5-0.6-1.3-0.9-2.6-0.9h-1.5v17.7H23V53.5h10.3c3.5,0,6.1,0.9,7.8,2.5c1.7,1.7,2.5,4.2,2.5,7.6v2.5c0,3.9-1.2,6.6-3.4,8.1
				c1.1,0.6,1.9,1.5,2.5,2.7c0.7,1.5,1,3.6,1,6.1v7.2c0,1.2,0,2.1,0.1,2.8c0.1,0.7,0.2,1.3,0.5,1.9L44.7,96.1z M37.6,94.7h5.1
				c-0.1-0.5-0.2-0.9-0.3-1.4c-0.1-0.7-0.1-1.7-0.1-2.9v-7.2c0-2.3-0.3-4.2-0.9-5.5c-0.6-1.3-1.5-2.1-2.9-2.5L38,75v-1l0.4-0.3
				c2.6-1,3.8-3.5,3.8-7.5v-2.5c0-3-0.7-5.3-2.1-6.7c-1.4-1.4-3.7-2.1-6.8-2.1h-8.9v39.8h5.1V77.1h2.9c1.7,0,2.9,0.5,3.7,1.4
				c0.7,0.9,1.1,2.3,1.1,4.4v7.5c0,1.5,0,2.5,0.1,3.1C37.3,93.8,37.4,94.3,37.6,94.7z M32.5,72.6h-3V59.4h3.6c1.4,0,2.4,0.4,3,1.3
				c0.6,0.8,0.9,2,0.9,3.7v3.2c0,1.8-0.4,3-1.2,3.8C35.2,72.2,34,72.6,32.5,72.6z M30.9,71.2h1.7c1.1,0,1.9-0.3,2.4-0.8
				c0.5-0.5,0.8-1.5,0.8-2.9v-3.2c0-1.3-0.2-2.3-0.6-2.8c-0.4-0.5-1-0.7-2-0.7h-2.3V71.2z"/>
		</g>
		<g>
			<path d="M47.7,54.2h17.7v5.9H54.2V71h8.9v5.9h-8.9v12.7h11.2v5.9H47.7V54.2z"/>
			<path d="M66.1,96.1H47V53.5h19v7.3H54.9v9.5h8.9v7.3h-8.9v11.3h11.2V96.1z M48.4,94.7h16.3v-4.5H53.5v-14h8.9v-4.5h-8.9V59.4
				h11.2v-4.5H48.4V94.7z"/>
		</g>
		<g>
			<path d="M70.8,93.3c-1.6-1.8-2.4-4.3-2.4-7.7v-2.4h6.1v2.8c0,2.7,1.1,4,3.4,4c1.1,0,1.9-0.3,2.5-1c0.6-0.6,0.9-1.7,0.9-3.1
				c0-1.7-0.4-3.2-1.2-4.6c-0.8-1.3-2.2-2.9-4.4-4.7c-2.7-2.4-4.5-4.5-5.6-6.4c-1.1-1.9-1.6-4.1-1.6-6.4c0-3.3,0.8-5.8,2.5-7.6
				c1.6-1.8,4-2.7,7.2-2.7c3.1,0,5.4,0.9,7,2.7c1.6,1.8,2.4,4.3,2.4,7.7v1.7h-6.1v-2.1c0-1.4-0.3-2.4-0.8-3.1c-0.5-0.6-1.4-1-2.4-1
				c-2.2,0-3.2,1.3-3.2,3.9c0,1.5,0.4,2.9,1.2,4.2c0.8,1.3,2.3,2.9,4.4,4.7c2.7,2.4,4.6,4.5,5.6,6.4s1.5,4.2,1.5,6.8
				c0,3.4-0.8,6-2.5,7.8c-1.7,1.8-4.1,2.7-7.3,2.7C74.8,96,72.4,95.1,70.8,93.3z"/>
			<path d="M77.9,96.7c-3.3,0-5.9-1-7.6-2.9c-1.7-1.9-2.6-4.6-2.6-8.1v-3h7.5v3.5c0,2.9,1.4,3.3,2.7,3.3c0.9,0,1.5-0.2,2-0.7
				c0.5-0.5,0.7-1.4,0.7-2.7c0-1.6-0.4-3-1.1-4.2c-0.7-1.2-2.2-2.8-4.2-4.6c-2.7-2.4-4.7-4.6-5.7-6.6c-1.1-2-1.7-4.3-1.7-6.8
				c0-3.4,0.9-6.1,2.7-8c1.8-1.9,4.4-2.9,7.7-2.9c3.3,0,5.8,1,7.6,2.9c1.7,1.9,2.6,4.6,2.6,8.1v2.4h-7.5v-2.8c0-1.2-0.2-2.1-0.7-2.6
				c-0.4-0.5-1-0.7-1.9-0.7c-1.2,0-2.5,0.4-2.5,3.3c0,1.4,0.4,2.6,1.1,3.8c0.8,1.2,2.2,2.8,4.3,4.6c2.8,2.4,4.7,4.6,5.7,6.6
				c1.1,2,1.6,4.4,1.6,7.1c0,3.5-0.9,6.3-2.7,8.2C83.9,95.7,81.3,96.7,77.9,96.7z M69.1,84v1.7c0,3.1,0.8,5.6,2.2,7.2l0,0
				c1.5,1.6,3.7,2.5,6.6,2.5c3,0,5.2-0.8,6.8-2.5c1.5-1.7,2.3-4.1,2.3-7.3c0-2.5-0.5-4.6-1.4-6.4c-1-1.8-2.8-3.9-5.4-6.2
				c-2.2-1.9-3.7-3.5-4.5-4.9c-0.9-1.4-1.3-2.9-1.3-4.5c0-4,2.5-4.6,3.9-4.6c1.3,0,2.3,0.4,2.9,1.2c0.7,0.8,1,1.9,1,3.5V65h4.7v-1
				c0-3.1-0.7-5.6-2.2-7.2c-1.4-1.6-3.6-2.4-6.5-2.4c-2.9,0-5.2,0.8-6.7,2.5c-1.5,1.6-2.3,4-2.3,7.1c0,2.3,0.5,4.3,1.5,6.1
				c1,1.8,2.8,3.9,5.4,6.2c2.2,1.9,3.7,3.5,4.5,4.9c0.8,1.4,1.3,3.1,1.3,4.9c0,1.6-0.3,2.8-1,3.6c-0.7,0.8-1.7,1.2-3,1.2
				c-1.5,0-4-0.6-4-4.7V84H69.1z"/>
		</g>
		<g>
			<path d="M91.7,54.2h17.7v5.9H98.2V71h8.9v5.9h-8.9v12.7h11.2v5.9H91.7V54.2z"/>
			<path d="M110.1,96.1H91V53.5h19v7.3H98.9v9.5h8.9v7.3h-8.9v11.3h11.2V96.1z M92.4,94.7h16.3v-4.5H97.5v-14h8.9v-4.5h-8.9V59.4
				h11.2v-4.5H92.4V94.7z"/>
		</g>
		<g>
			<path d="M113.4,54.2h8.1l6.3,24.7h0.1V54.2h5.8v41.2H127l-7.8-30.1h-0.1v30.1h-5.8V54.2z"/>
			<path d="M134.4,96.1h-7.9l-6.7-25.8v25.8h-7.2V53.5h9.4l5.2,20.3V53.5h7.2V96.1z M127.6,94.7h5.4V54.9h-4.4v24.7h-1.2l-0.2-0.5
				L121,54.9h-6.9v39.8h4.4V64.6h1.2l0.3,0.5L127.6,94.7z"/>
		</g>
		<g>
			<path d="M140.8,93.4c-1.6-1.8-2.4-4.3-2.4-7.5V63.7c0-3.2,0.8-5.7,2.4-7.5c1.6-1.8,4-2.6,7.1-2.6c3.1,0,5.5,0.9,7.1,2.6
				c1.6,1.8,2.4,4.3,2.4,7.5v4.4h-6.1v-4.8c0-2.6-1.1-3.8-3.2-3.8c-2.2,0-3.2,1.3-3.2,3.8v23c0,2.5,1.1,3.8,3.2,3.8
				c2.2,0,3.2-1.3,3.2-3.8v-6.3h6.1v5.8c0,3.2-0.8,5.7-2.4,7.5c-1.6,1.8-4,2.6-7.1,2.6C144.8,96,142.5,95.1,140.8,93.4z"/>
			<path d="M147.9,96.7c-3.3,0-5.8-1-7.6-2.9c-1.7-1.9-2.6-4.6-2.6-7.9V63.7c0-3.4,0.9-6.1,2.6-7.9c1.8-1.9,4.3-2.9,7.6-2.9
				c3.3,0,5.8,1,7.6,2.9c1.7,1.9,2.6,4.6,2.6,7.9v5h-7.5v-5.5c0-2.8-1.4-3.1-2.5-3.1c-1.2,0-2.5,0.4-2.5,3.1v23
				c0,2.7,1.4,3.1,2.5,3.1c1.2,0,2.5-0.3,2.5-3.1v-7h7.5v6.5c0,3.4-0.9,6.1-2.6,7.9C153.8,95.7,151.2,96.7,147.9,96.7z M147.9,54.3
				c-2.9,0-5.1,0.8-6.6,2.4c-1.5,1.6-2.3,4-2.3,7v22.1c0,3,0.8,5.4,2.3,7c1.5,1.6,3.7,2.4,6.6,2.4c2.9,0,5.1-0.8,6.6-2.4
				c1.5-1.6,2.3-4,2.3-7v-5.1H152v5.6c0,3.9-2.5,4.5-3.9,4.5c-1.5,0-3.9-0.6-3.9-4.5v-23c0-3.9,2.5-4.5,3.9-4.5
				c1.5,0,3.9,0.6,3.9,4.5v4.1h4.7v-3.7c0-3-0.8-5.4-2.3-7C153,55.1,150.8,54.3,147.9,54.3z"/>
		</g>
		<g>
			<path d="M161.6,54.2h17.7v5.9h-11.2V71h8.9v5.9h-8.9v12.7h11.2v5.9h-17.7V54.2z"/>
			<path d="M180,96.1h-19V53.5h19v7.3h-11.2v9.5h8.9v7.3h-8.9v11.3H180V96.1z M162.3,94.7h16.3v-4.5h-11.2v-14h8.9v-4.5h-8.9V59.4
				h11.2v-4.5h-16.3V94.7z"/>
		</g>
	</g>
	<g>
		<g>
			<path d="M70.9,116.5h0.3c0.7,0,1.2-0.2,1.6-0.5c0.3-0.3,0.5-0.9,0.5-1.6c0-0.3,0.1-0.5,0.1-0.8s0-0.5,0-0.8c0-0.3,0-0.7,0-1.1
				c0-1.8-0.1-3.2-0.2-4.2c0-0.4-0.1-0.7-0.2-0.9c-0.1-0.2-0.2-0.4-0.4-0.5c-0.3-0.3-0.8-0.4-1.5-0.4h-0.3v-0.3h7.1v0.3h-0.3
				c-0.7,0-1.2,0.2-1.5,0.5c-0.3,0.3-0.5,0.9-0.5,1.6v6.6c0,0.7,0.2,1.2,0.5,1.6c0.3,0.3,0.9,0.5,1.5,0.5h0.3v0.3h-7.1V116.5z"/>
			<path d="M78.2,117h-7.5v-0.7h0.5c0.6,0,1.1-0.2,1.4-0.5c0.3-0.3,0.5-0.8,0.5-1.4c0-0.3,0.1-0.6,0.1-0.8c0-0.2,0-0.5,0-0.8
				c0-0.3,0-0.6,0-1.1c0-1.8-0.1-3.2-0.2-4.2c0-0.4-0.1-0.6-0.2-0.8c-0.1-0.2-0.2-0.3-0.3-0.5c-0.3-0.3-0.7-0.4-1.4-0.4h-0.5v-0.6
				h7.5v0.6h-0.5c-0.6,0-1.1,0.2-1.4,0.5c-0.3,0.3-0.5,0.8-0.5,1.4v6.6c0,0.6,0.2,1.1,0.5,1.4c0.3,0.3,0.8,0.5,1.4,0.5h0.5V117z
				 M71.7,116.7h5.5c-0.5-0.1-0.9-0.2-1.2-0.5c-0.4-0.4-0.6-0.9-0.6-1.7v-6.6c0-0.7,0.2-1.3,0.6-1.7c0.3-0.3,0.6-0.4,1.1-0.5h-5.3
				c0.4,0.1,0.7,0.2,1,0.4c0.2,0.2,0.3,0.4,0.4,0.6c0.1,0.2,0.2,0.5,0.2,0.9c0.1,0.9,0.1,2.3,0.2,4.2c0,0.4,0,0.8,0,1.1
				c0,0.3,0,0.6,0,0.8c0,0.2-0.1,0.5-0.1,0.8c0,0.7-0.2,1.3-0.6,1.6C72.6,116.4,72.2,116.6,71.7,116.7z"/>
		</g>
		<g>
			<path d="M90,105.8h0.3v3.9H90c-0.3-0.9-0.7-1.7-1.2-2.2c-0.3-0.4-0.7-0.7-1.2-1c-0.5-0.3-1-0.5-1.6-0.7c-0.6-0.2-1.2-0.2-1.8-0.2
				c-0.4,0-0.8,0.1-1.2,0.2c-0.4,0.1-0.6,0.3-0.9,0.6c-0.2,0.2-0.3,0.4-0.4,0.6c-0.1,0.2-0.2,0.4-0.2,0.6c0,0.4,0.1,0.7,0.4,1
				c0.1,0.1,0.3,0.3,0.6,0.4c0.3,0.1,0.6,0.2,1,0.4c0.4,0.1,1,0.3,1.7,0.4c0.2,0.1,0.3,0.1,0.4,0.1l0.4,0.1l0.6,0.2
				c1.1,0.3,1.9,0.5,2.3,0.7s0.9,0.5,1.3,0.8c0.3,0.3,0.5,0.6,0.6,0.9s0.2,0.7,0.2,1.1c0,0.4-0.1,0.8-0.3,1.2
				c-0.2,0.4-0.4,0.7-0.7,1c-0.4,0.4-0.9,0.7-1.5,0.9c-0.6,0.2-1.3,0.3-2,0.3c-0.5,0-1-0.1-1.5-0.2c-0.5-0.1-1-0.3-1.7-0.6
				c-0.4-0.2-0.8-0.3-1-0.4c-0.2-0.1-0.4-0.1-0.6-0.1c-0.4,0-0.7,0.1-1,0.3s-0.4,0.5-0.5,0.9h-0.3v-5.2h0.3c0.1,0.9,0.5,1.8,1.1,2.5
				c0.4,0.4,0.9,0.9,1.5,1.2c0.6,0.4,1.2,0.7,1.9,0.9s1.3,0.3,1.9,0.3c0.5,0,1-0.1,1.4-0.3c0.4-0.2,0.8-0.4,1-0.7s0.4-0.7,0.4-1
				c0-0.4-0.2-0.8-0.5-1.1c-0.2-0.1-0.3-0.3-0.6-0.4c-0.2-0.1-0.6-0.3-0.9-0.4c-0.4-0.1-0.9-0.3-1.6-0.5l-0.8-0.2
				c-1.3-0.3-2.1-0.6-2.6-0.8c-0.5-0.2-1-0.4-1.3-0.6c-0.3-0.2-0.6-0.5-0.8-0.8c-0.3-0.4-0.5-0.9-0.5-1.4c0-0.6,0.2-1.2,0.6-1.7
				c0.4-0.5,0.9-0.9,1.6-1.2c0.7-0.3,1.4-0.4,2.2-0.4c1.2,0,2.5,0.3,3.8,1c0.5,0.2,0.8,0.3,0.9,0.3C89.5,106.7,89.8,106.4,90,105.8z
				"/>
			<path d="M86.7,117.2c-0.5,0-1-0.1-1.5-0.2c-0.5-0.1-1-0.3-1.7-0.6c-0.4-0.2-0.7-0.3-1-0.3c-0.6-0.2-1.1-0.1-1.5,0.2
				c-0.2,0.2-0.4,0.4-0.5,0.8l0,0.1H80v-5.6h0.6l0,0.2c0.1,0.9,0.5,1.7,1.1,2.4c0.4,0.4,0.9,0.8,1.4,1.2c0.6,0.4,1.2,0.7,1.8,0.9
				c1.2,0.4,2.3,0.4,3.2,0.1c0.4-0.2,0.7-0.4,0.9-0.7c0.2-0.3,0.3-0.6,0.3-0.9c0-0.4-0.1-0.7-0.4-1c-0.1-0.1-0.3-0.3-0.5-0.4
				c-0.2-0.1-0.5-0.2-0.9-0.4c-0.4-0.1-0.9-0.3-1.6-0.5l-0.8-0.2c-1.3-0.3-2.2-0.6-2.6-0.8c-0.6-0.2-1-0.4-1.3-0.6
				c-0.3-0.2-0.6-0.5-0.9-0.8c-0.4-0.5-0.5-1-0.5-1.5c0-0.7,0.2-1.3,0.6-1.8c0.4-0.5,0.9-0.9,1.6-1.2c0.7-0.3,1.5-0.4,2.3-0.4
				c1.3,0,2.6,0.4,3.9,1c0.6,0.3,0.8,0.3,0.9,0.3c0.1,0,0.5,0,0.7-0.8l0-0.1h0.6v4.2h-0.6l0-0.1c-0.3-0.9-0.7-1.6-1.1-2.1
				c-0.3-0.3-0.7-0.7-1.1-0.9c-0.5-0.3-1-0.5-1.5-0.6c-0.6-0.2-1.2-0.2-1.7-0.2c-0.4,0-0.8,0.1-1.1,0.2c-0.3,0.1-0.6,0.3-0.8,0.5
				c-0.2,0.2-0.3,0.3-0.4,0.5c-0.1,0.2-0.1,0.4-0.1,0.5c0,0.3,0.1,0.6,0.4,0.9c0.1,0.1,0.3,0.2,0.5,0.4c0.2,0.1,0.6,0.2,0.9,0.4
				c0.4,0.1,0.9,0.3,1.7,0.4c0.2,0.1,0.3,0.1,0.4,0.1l1,0.3c1.1,0.3,1.9,0.5,2.4,0.7c0.5,0.2,1,0.5,1.3,0.9c0.3,0.3,0.5,0.6,0.7,0.9
				c0.2,0.4,0.2,0.8,0.2,1.2c0,0.4-0.1,0.8-0.3,1.2c-0.2,0.4-0.4,0.8-0.8,1.1c-0.4,0.4-0.9,0.7-1.5,1
				C88.2,117.1,87.5,117.2,86.7,117.2z M80.3,112.2v4.6c0.1-0.3,0.3-0.6,0.5-0.8c0.4-0.3,1.1-0.4,1.8-0.2c0.2,0.1,0.6,0.2,1,0.4
				c0.3,0.1,0.5,0.2,0.8,0.3c-0.5-0.2-1-0.4-1.5-0.7c-0.6-0.4-1.1-0.8-1.5-1.3C80.9,113.8,80.5,113,80.3,112.2z M83,105.6
				c-0.3,0.1-0.6,0.2-0.9,0.3c-0.6,0.3-1.1,0.6-1.5,1.1c-0.3,0.5-0.5,1-0.5,1.6c0,0.5,0.2,0.9,0.5,1.3c0.2,0.3,0.5,0.5,0.8,0.7
				c0.3,0.2,0.7,0.4,1.3,0.6c0.5,0.2,1.4,0.5,2.6,0.8l0.8,0.2c0.7,0.2,1.2,0.3,1.6,0.5c0.4,0.1,0.7,0.3,1,0.4
				c0.3,0.1,0.5,0.3,0.6,0.4c0.4,0.4,0.5,0.8,0.5,1.2c0,0.4-0.1,0.8-0.4,1.2c-0.3,0.3-0.6,0.6-1.1,0.8c-0.1,0-0.2,0.1-0.3,0.1
				c0.2,0,0.5-0.1,0.7-0.2c0.6-0.2,1-0.5,1.4-0.9c0.3-0.3,0.5-0.6,0.7-1c0.2-0.4,0.2-0.7,0.2-1.1c0-0.4-0.1-0.7-0.2-1
				c-0.1-0.3-0.3-0.6-0.6-0.8c-0.3-0.3-0.7-0.6-1.2-0.8c-0.5-0.2-1.3-0.4-2.3-0.7l-1-0.3c-0.1,0-0.2,0-0.4-0.1
				c-0.7-0.2-1.3-0.3-1.7-0.4c-0.4-0.1-0.7-0.2-1-0.4c-0.3-0.1-0.5-0.3-0.6-0.4c-0.3-0.3-0.5-0.7-0.5-1.1c0-0.2,0.1-0.5,0.2-0.7
				c0.1-0.2,0.3-0.4,0.4-0.6C82.4,105.9,82.7,105.8,83,105.6z M87.8,106.3c0.5,0.3,0.9,0.6,1.2,1c0.4,0.5,0.8,1.2,1.1,2.1V106
				c-0.2,0.6-0.6,0.9-1,0.9c-0.1,0-0.4,0-1-0.4C88,106.4,87.9,106.4,87.8,106.3z"/>
		</g>
		<g>
			<path d="M104.2,105.3h0.3l4.6,9.9c0.1,0.3,0.3,0.6,0.5,0.8c0.2,0.2,0.4,0.3,0.6,0.4c0.2,0.1,0.5,0.1,0.8,0.1h0.3v0.3h-6.6v-0.3
				h0.9c0.4,0,0.7-0.1,0.9-0.2c0.2-0.1,0.3-0.3,0.3-0.5c0-0.2,0-0.3-0.1-0.6c-0.1-0.2-0.2-0.6-0.5-1.2c0,0,0-0.1-0.1-0.2
				c0-0.1-0.1-0.1-0.1-0.2l-0.2-0.4H101l-0.4,0.8c-0.1,0.3-0.2,0.6-0.2,0.9c0,0.2,0.1,0.5,0.2,0.7c0.1,0.2,0.3,0.4,0.5,0.6
				c0.1,0.1,0.3,0.1,0.4,0.2c0.1,0,0.3,0,0.5,0.1v0.3h-4.6v-0.3c0.3,0,0.6-0.1,0.8-0.2c0.2-0.1,0.4-0.2,0.7-0.4
				c0.6-0.4,1.1-1.3,1.7-2.5L104.2,105.3z M103.3,108l-2.2,5.1h4.5L103.3,108z"/>
			<path d="M111.4,117h-6.9v-0.7h1c0.4,0,0.7,0,0.8-0.1c0.1-0.1,0.2-0.2,0.2-0.4c0-0.1,0-0.3-0.1-0.5c-0.1-0.2-0.2-0.6-0.5-1.2
				c0,0,0-0.1-0.1-0.2c0-0.1-0.1-0.1-0.1-0.2l-0.1-0.3h-4.6l-0.3,0.7c-0.1,0.3-0.2,0.5-0.2,0.8c0,0.2,0.1,0.4,0.2,0.7
				c0.1,0.2,0.3,0.4,0.5,0.5c0.1,0.1,0.3,0.1,0.4,0.2c0.1,0,0.3,0,0.5,0.1l0.2,0v0.7h-5v-0.6l0.2,0c0.3,0,0.6-0.1,0.8-0.2
				c0.2-0.1,0.4-0.2,0.6-0.4c0.5-0.4,1.1-1.2,1.6-2.4l3.6-8.3h0.5l0,0.1l4.6,9.9c0.1,0.3,0.3,0.5,0.5,0.7c0.2,0.2,0.3,0.3,0.5,0.4
				c0.2,0.1,0.5,0.1,0.7,0.1h0.5V117z M106,116.7h4.5c-0.2,0-0.3-0.1-0.4-0.1c-0.3-0.1-0.5-0.3-0.7-0.5c-0.2-0.2-0.4-0.5-0.5-0.8
				l-4.5-9.8h-0.1l-0.9,2.1l2.5,5.5h0l0.2,0.5c0,0.1,0.1,0.1,0.1,0.2c0,0.1,0.1,0.1,0.1,0.2c0.3,0.6,0.4,1,0.5,1.2
				c0.1,0.2,0.1,0.4,0.1,0.6c0,0.3-0.1,0.5-0.4,0.7C106.4,116.6,106.3,116.7,106,116.7z M97.7,116.7h4c-0.1,0-0.1,0-0.2,0
				c-0.1,0-0.3-0.1-0.4-0.2c-0.2-0.1-0.4-0.3-0.6-0.6c-0.2-0.3-0.2-0.5-0.2-0.8c0-0.2,0-0.5,0.1-0.7c-0.4,0.8-0.9,1.4-1.3,1.8
				c-0.3,0.2-0.5,0.3-0.7,0.4C98.2,116.6,98,116.6,97.7,116.7z M101.4,112.8h4l-2-4.5L101.4,112.8z"/>
		</g>
	</g>
	<g>
		<g>
			<path d="M28.5,146.5h-2.7v11h2.7c0.9,0,1.6-0.3,2.1-0.8c0.5-0.5,0.7-1.4,0.7-2.6v-4.2c0-1.2-0.2-2.1-0.7-2.6
				C30.1,146.8,29.4,146.5,28.5,146.5z"/>
		</g>
		<g>
			<path d="M48.4,146.5h-2.6v10.2h2c1.1,0,2-0.3,2.5-0.9c0.6-0.6,0.8-1.6,0.8-2.9v-2.8c0-1.3-0.2-2.2-0.7-2.8
				C50.1,146.8,49.4,146.5,48.4,146.5z"/>
		</g>
		<g>
			<path d="M162,128.7c-0.1-2-0.1-2.9-2.7-3c-23.7-0.7-47.6-0.3-71.3-0.2c-23.9,0.1-47.9-0.1-71.8,0.5c-2.9,0.1-3.4,0.5-3.6,3.2
				c-1.4,19.7-0.4,39.9-0.2,59.7c0,0.9,0.1,1.5,0.4,2l0,0l0,0c0.5,0.9,1.6,1.2,3.3,1.2c23.4,0.6,46.9,0.1,70.3,0
				c24.1-0.1,48.2,0,72.4-0.3c3,0,3.5-0.8,3.5-3.6C162.4,168.4,163.4,148.3,162,128.7z M129.9,129.8h0.3v0.1l-0.5,0L129.9,129.8z
				 M36.9,153.8c0,2.9-0.7,5.1-2.1,6.6c-1.4,1.5-3.5,2.3-6.3,2.3h-2.7v14.6h-5.6v-35.8h8.3c2.8,0,4.9,0.8,6.3,2.3
				c1.4,1.5,2.1,3.7,2.1,6.6V153.8z M51.8,177.3c-0.2-0.6-0.3-1.1-0.4-1.6c-0.1-0.5-0.1-1.4-0.1-2.8v-6.6c0-1.6-0.3-2.8-0.8-3.4
				c-0.5-0.6-1.4-1-2.7-1h-1.9v15.4h-5.6v-35.8h8.3c2.9,0,5,0.7,6.3,2s2,3.4,2,6.2v2.2c0,3.7-1.2,6.1-3.7,7.1v0.1
				c1.4,0.4,2.3,1.2,2.9,2.5c0.6,1.3,0.8,3,0.8,5.1v6.3c0,1,0,1.9,0.1,2.5c0.1,0.6,0.2,1.3,0.5,1.9H51.8z M76.4,146.5h-9.7v9.5h7.7
				v5.1h-7.7v11h9.7v5.1H61.1v-35.8h15.4V146.5z M93.7,175.4c-1.5,1.6-3.6,2.4-6.3,2.4c-2.7,0-4.8-0.8-6.2-2.3
				c-1.4-1.6-2.1-3.8-2.1-6.7v-2h5.3v2.5c0,2.3,1,3.5,2.9,3.5c1,0,1.7-0.3,2.2-0.8c0.5-0.6,0.7-1.5,0.7-2.7c0-1.5-0.3-2.8-1-4
				c-0.7-1.1-1.9-2.5-3.8-4.1c-2.3-2-3.9-3.9-4.9-5.6c-0.9-1.7-1.4-3.5-1.4-5.6c0-2.8,0.7-5,2.2-6.6c1.4-1.6,3.5-2.3,6.2-2.3
				c2.7,0,4.7,0.8,6.1,2.3c1.4,1.6,2.1,3.8,2.1,6.7v1.5h-5.3v-1.8c0-1.2-0.2-2.1-0.7-2.7c-0.5-0.6-1.2-0.8-2.1-0.8
				c-1.9,0-2.8,1.1-2.8,3.4c0,1.3,0.3,2.5,1,3.6c0.7,1.1,2,2.5,3.8,4.1c2.4,2,4,3.9,4.9,5.6c0.9,1.7,1.3,3.6,1.3,5.9
				C95.8,171.6,95.1,173.8,93.7,175.4z M114.7,146.5h-9.7v9.5h7.7v5.1h-7.7v11h9.7v5.1H99.3v-35.8h15.4V146.5z M135.8,177.3H130
				l-6.8-26.2h-0.1v26.2h-5v-35.8h7.1l5.5,21.5h0.1v-21.5h5V177.3z M156.2,146.5h-5.9v30.7h-5.6v-30.7h-5.9v-5.1h17.4V146.5z"/>
		</g>
	</g>
</g>
</svg>
