<?xml version="1.0" encoding="utf-8"?>
<!-- Generator: Adobe Illustrator 17.0.0, SVG Export Plug-In . SVG Version: 6.00 Build 0)  -->
<!DOCTYPE svg PUBLIC "-//W3C//DTD SVG 1.1//EN" "http://www.w3.org/Graphics/SVG/1.1/DTD/svg11.dtd">
<svg version="1.1" id="Layer_1" xmlns="http://www.w3.org/2000/svg" xmlns:xlink="http://www.w3.org/1999/xlink" x="0px" y="0px"
	 width="146.336px" height="180px" viewBox="26.832 10 146.336 180" enable-background="new 26.832 10 146.336 180"
	 xml:space="preserve">
<path fill="#ED1C24" d="M173.168,99.987C173.168,39.436,143.003,10,80.949,10H26.832v180h54.116
	C143.003,190,173.168,160.557,173.168,99.987z M29.311,12.479h51.637c60.387,0,89.74,28.625,89.74,87.508
	c0,58.903-29.353,87.534-89.74,87.534H29.311V12.479z"/>
<path fill="#F26649" d="M168.21,99.987c0-57.215-28.542-85.029-87.261-85.029H31.79v170.084h49.158
	C139.667,185.042,168.21,157.221,168.21,99.987z M34.269,17.437h46.679c57.051,0,84.782,27.003,84.782,82.55
	c0,55.567-27.731,82.576-84.782,82.576H34.269V17.437z"/>
<path fill="#FAB49B" d="M163.252,99.987c0-53.879-26.923-80.071-82.303-80.071H36.748v160.168h44.201
	C136.329,180.084,163.252,153.883,163.252,99.987z M39.227,22.395h41.722c53.713,0,79.824,25.381,79.824,77.592
	c0,52.229-26.11,77.618-79.824,77.618H39.227V22.395z"/>
</svg>
