<?xml version="1.0" encoding="utf-8"?>
<!-- Generator: Adobe Illustrator 23.0.1, SVG Export Plug-In . SVG Version: 6.00 Build 0)  -->
<svg version="1.1" id="Layer_1" xmlns="http://www.w3.org/2000/svg" xmlns:xlink="http://www.w3.org/1999/xlink" x="0px" y="0px"
	 viewBox="0 0 180 319.04" style="enable-background:new 0 0 180 319.04;" xml:space="preserve">
<style type="text/css">
	.st0{fill:#F3C0A6;}
	.st1{fill:#161719;}
	.st2{fill:#BE9D9E;}
	.st3{fill:#B68490;}
	.st4{fill:#E0D4CD;}
	.st5{fill:none;stroke:#C8AAA0;stroke-width:0.25;stroke-miterlimit:10;}
	.st6{fill:#3B0400;}
	.st7{fill:#6893A1;}
	.st8{fill:#2F5561;}
	.st9{fill:#F1AC95;}
	.st10{fill:#E6E7E8;}
	.st11{fill:#F26522;}
	.st12{fill:#E8C7AD;}
	.st13{fill:#CE7B29;}
	.st14{fill:#00B26D;}
	.st15{fill:#100D0A;}
	.st16{fill:#EBEBEC;}
	.st17{fill:#7A5441;}
	.st18{fill:#EFEFF0;}
	.st19{fill:#E2E3E4;}
	.st20{fill:#9E6B50;}
	.st21{fill:#ED1E27;}
	.st22{fill:#2C2C2C;}
	.st23{fill:#3E3E3E;}
	.st24{fill:#E19491;}
	.st25{fill:#DF8189;}
	.st26{fill:#945222;}
	.st27{fill:#DF9F8B;}
	.st28{fill:#D4437B;}
	.st29{fill:#E0E1E2;}
	.st30{fill:#72493B;}
	.st31{fill:#7787C1;}
	.st32{fill:#E27627;}
	.st33{fill:#569F51;}
	.st34{fill:#F3B790;}
	.st35{fill:#F1AD96;}
	.st36{fill:#6F4F4D;}
	.st37{fill:#010101;}
	.st38{fill:#D4457C;}
	.st39{fill:#F0C3AA;}
	.st40{fill:#911E25;}
	.st41{fill:#D32628;}
</style>
<path class="st12" d="M72.75,118.34c-0.1,4.31-1.22,8.41-2.53,12.47c-0.62,1.93-1.74,3.4-4.11,2.73
	c-7.04-1.98-14.02-4.09-20.44-7.74c-3.5-1.99-4.45-4.53-2.97-8.3c1.72-4.37,4-8.38,6.73-12.17c3,1.02,5.86-1.08,7.9-2.93
	c1.47,0.11,1.56,1.83,2.61,2.61c3.39,2.51,6.96,4.26,11.43,3.78c2.1-0.23,3.06-0.44,2.74-3c-0.68-5.49,1.62-9.97,5.59-13.67
	c0.37,0.16,0.75,0.33,1.12,0.49c-0.23,1.8,0.08,2.92,2.33,3.24c2.63,0.38,5.21,0.9,7.88,0.6l0.27,0.14
	c-1.99,2.75-3.26,5.63-3.86,9.15c-0.37,2.21-3.37,3.99-5.21,5.94c-0.55,0.58-1.43,0.98-1.72,1.65c-1.76,4.05-3.81,2.53-6.04,0.48
	c-1.09-1-2.28-3.02-3.9-1.3c-1.24,1.32-0.24,3.01,0.89,4.29C71.91,117.31,72.32,117.83,72.75,118.34z"/>
<path class="st13" d="M80.83,92.6c3.41,1.28,6.81,2.56,10.21,3.84c-2.67,0.29-5.26-0.22-7.89-0.6
	C80.91,95.52,80.59,94.41,80.83,92.6z"/>
<g>
	<path class="st14" d="M72.75,118.34c1.98,0.32,3.07,1.73,4.06,3.28c-0.03,7.47,0.11,14.96-0.91,22.39
		c-1.86,3.9-3.37,7.74-7.73,10.11c-3.01,1.64-2.12,5.77-1.71,8.91c0.33,2.58,1.89,3.92,4.7,4.58c4.62,1.09,9.85,1.34,12.73,6.18
		c-8.5,3.84-14.99,9.67-18.47,18.52c-3.28-0.62-6.53-1.08-9.92-1.15c-6.23-0.13-12.06,0.64-17.21,4.42
		c-0.52,0.38-1.18,0.58-1.78,0.86c-2.71-4.83-1.72-9.94-0.66-14.85c0.84-3.92,0.27-7.48-1.17-10.93
		c-4.32-10.34-7.61-20.95-8.56-32.14c-0.49-5.76,0.81-11.4,2.4-16.94c1.37,0.19,2.3-0.61,3.06-1.55
		c4.89-5.95,9.75-11.94,13.81-18.52c1.68,0.91,3.09,2.11,4.03,3.8c-2.72,3.79-5.01,7.8-6.73,12.17c-1.48,3.77-0.54,6.31,2.97,8.3
		c6.42,3.65,13.4,5.77,20.44,7.74c2.37,0.67,3.49-0.8,4.11-2.73C71.53,126.75,72.65,122.65,72.75,118.34z"/>
</g>
<path class="st12" d="M75.9,144.01c1.02-7.44,0.88-14.92,0.91-22.39c2.17,1.56,4.23,3.33,6.54,4.64
	c5.93,3.38,10.82,7.73,14.66,13.44c4.2,6.25,10.61,9.96,17.34,12.6c13.92,5.45,25.47,14.7,37.78,22.71
	c3.69,2.4,7.53,4.12,11.64,5.16c5.62,1.43,13.24,6.4,15.08,10.39c0.56,1.21-0.49,2.58-1.8,2.31c-4.35-0.89-7.82-3.68-11.8-4.38
	c-0.63-0.11-1.17,0.5-0.96,1.1c0.3,0.84,1.1,1.51,1.35,2.51c0.12,0.46-0.41,0.82-0.81,0.56c-3.17-2.04-6.41-3.75-9.01-6.15
	c-7.43-6.87-16.81-9.8-25.83-13.38c-17.35-6.88-34.47-14.06-48.2-27.3C80.88,143.99,78.68,142.79,75.9,144.01z"/>
<path class="st12" d="M45.41,101.52c-4.07,6.57-8.92,12.56-13.81,18.52c-0.77,0.93-1.69,1.73-3.06,1.55
	c2.01-7.87,0.69-15.15-2.98-22.4c-5.62-11.12-6.99-23.41-9.32-35.5c-2.19-11.36-2.35-22.85-3.87-34.23
	c-0.46-3.44-1.45-6.33-3.88-8.96C5.5,17.29,2.99,13.66,0,9.85c2.17-0.17,2.94,1.34,4.13,1.96c0.97,0.5,1.83,2.04,3.05,0.69
	c0.87-0.97,0.71-2.39,0.01-3.41C5.51,6.67,3.65,4.38,1.91,2.01C1.55,1.52,1,0.98,1.47,0.19C2.74-0.45,3.34,0.7,4.18,1.24
	c0.43,0.28,0.97,0.8,1.34,0.72c2.62-0.62,3.83,0.69,5.37,3.39c7.36,12.85,8.65,27.72,14,41.23c1.02,2.58,1.87,5.27,1.95,8.15
	c0.41,14.44,6.5,27.09,12.78,39.63C40.96,97.03,43.44,99.14,45.41,101.52z"/>
<path class="st12" d="M142.72,275.36c-3.59-0.84-6.01-3.31-8.31-5.95c-4.27-4.89-6.67-10.93-10.15-16.3
	c-2.83-4.37-5.32-9.35-10.26-11.52c-9.6-4.22-16.89-10.59-21.22-20.21c0.28-6.78,0.91-13.56,0.75-20.33
	c-0.23-10.05-2.97-19.4-9.65-27.26c-8.5,3.84-14.99,9.67-18.47,18.52c-1.86,3.58,0.12,7.02,0.45,10.5
	c0.72,7.63,2.74,15.11,2.74,22.83c2.89,5.69,1.55,11.44-0.93,16.54c-7.14,14.7-8.61,30.04-6.62,45.97c0.38,3.82-0.74,7.48-1.28,11.2
	c4.12,3.28,8.17,3.47,12.11-0.32c0.12-3.94,0.74-7.78,2.2-11.46c2.37-8.89,4.74-17.78,7.1-26.67c1.74-6.55,3.47-13.11,5.21-19.67
	c0,0,0,0,0,0c1.27,1.91,2.85,3.45,4.81,4.72c12.16,7.88,21.17,19.29,31.99,28.67c4.53,3.92,8.27,8.81,13.95,11.31
	C142.3,283.97,142.88,282.87,142.72,275.36z"/>
<g>
	<path class="st12" d="M65.42,192.31c-1.86,3.58,0.12,7.02,0.45,10.5c0.72,7.63,2.74,15.11,2.74,22.83
		c-8.8-4.28-17.05-9.43-24.44-15.88c-4.05-3.54-6.19-8.25-7.66-13.32c0.6-0.28,1.26-0.47,1.78-0.86c5.16-3.78,10.98-4.55,17.21-4.42
		C58.89,191.23,62.14,191.69,65.42,192.31z"/>
</g>
<path class="st13" d="M79.71,92.11c-3.97,3.69-6.27,8.18-5.59,13.67c0.32,2.56-0.64,2.77-2.74,3c-4.76,0.52-9.39-1.68-12.92-4.72
	c-1.38-1.19-8.1-7.95-6.52-10.1c3.36-4.58,3.15-10.69,6.63-15.19c0.32-0.41,0.8-0.69,1.2-1.03C65.85,83.31,72.25,88.44,79.71,92.11z
	"/>
<path class="st15" d="M79.55,92.26c-8.62-4.25-16.6-10.29-22.92-17.53c-1.27-1.45-4.5-6.32-1.32-7.72c0.67-0.3,1.43-0.29,2.16-0.24
	c2.39,0.15,4.75,0.62,7.01,1.41c0.56,0.2,1.13,0.42,1.56,0.82c0.41,0.39,0.45,1.12,0.94,1.41c5.01,2.92,6.89,7.44,11.39,9.83
	c4.51,2.39,9.12,4.33,13.86,6.22c1.07,0.43,2.15,0.88,3.01,1.65c0.78,0.7,1.32,1.63,1.85,2.54c1.59,2.72,3.17,5.44,4.76,8.17
	C94.18,97.73,86.48,95.69,79.55,92.26z"/>
<path class="st15" d="M68.77,66.49c2.93-2.32,6.01-4.4,9.33-6.1c1.83-0.94,4.59-1.92,5.56-0.27c2.8,4.74,11.64,0.51,11.98,8.73
	c0.23,5.62,0.77,11.18-0.31,16.75c-2.34-1.48-4.67-2.98-7.03-4.43C81.33,76.87,73.63,73.57,68.77,66.49z"/>
<path class="st15" d="M137.15,285.94c5.15-1.97,5.73-3.06,5.57-10.58c2.81-2.46,6.08-1.79,9.14-0.99c2.09,0.55,3.34,3.07,2.44,4.64
	c-1.73,3.02,0.09,4.58,1.98,5.24c6.58,2.3,9.13,7.19,9.78,13.6c-1.28,3-3.28,3.04-5.71,1.42c-1.55-1.04-3.02-2.16-4.04-3.77
	c0.89-1.09,0.7-2.28,0.14-3.38c-1.98-3.9-5.38-6.6-8.4-9.6c-1.24-1.22-1.49,0.4-1.92,0.95c-1.52,1.98-3.39,3.38-5.82,4.01
	C139.03,287.43,137.98,286.91,137.15,285.94z"/>
<path class="st16" d="M68.77,66.49c4.86,7.08,12.57,10.38,19.53,14.68c2.36,1.46,4.69,2.95,7.03,4.43
	c-0.02,0.72,1.03,3.11,1.01,3.83c-4.7-1.89-10.53-5.35-15.17-7.38c-6.5-2.84-12.4-8.36-15.86-13.53
	C66.22,67.84,67.84,67.17,68.77,66.49z"/>
<path class="st15" d="M59.78,299.34c4.12,3.28,8.17,3.47,12.11-0.32c0.75,0.72,1.67,1.33,1.65,2.56c-1.89,1.07-3.78,2.14-5.65,3.19
	c2.82,5.83,7.74,5.67,12.82,5.07c1.9,0.88,3.52,2.32,5.74,2.57c1.36,0.15,2.48,0.71,2.46,2.51c-0.02,1.87-0.73,3.05-2.55,3.45
	c-6.33,1.4-12.14,0.88-16.7-4.47c-1.41-1.65-2.4-3.55-5.29-1.01c-2.47,2.17-5.75-0.43-6.32-3.87
	C57.48,305.48,57.46,302.27,59.78,299.34z"/>
<path class="st12" d="M150.03,292.19c-2.82-2.44-6.71-2.67-9.72-4.72c2.43-0.63,4.3-2.02,5.82-4.01c0.42-0.55,0.68-2.18,1.92-0.95
	c3.03,3,6.42,5.7,8.4,9.6c0.56,1.1,0.76,2.29-0.14,3.38c-1.7-0.84-3.4-1.68-5.1-2.52c-0.41-0.27-0.82-0.54-1.22-0.81L150.03,292.19z
	"/>
<path class="st12" d="M80.71,309.84c-5.08,0.61-10,0.77-12.82-5.07c1.86-1.05,3.76-2.12,5.65-3.19
	C76.59,303.76,78.28,307.12,80.71,309.84z"/>
<path class="st15" d="M31.53,162.48c0,0,14.8,2.61,34.49-4.17c0,0,0.09,2.21,0.28,3.54c0,0-16.83,6.89-33.46,4.21L31.53,162.48z"/>
<polygon class="st16" points="50.56,157.86 52.81,161.1 56.75,161.09 54.36,164.23 55.6,167.98 51.87,166.68 48.68,169.01 
	48.77,165.06 45.57,162.75 49.35,161.61 "/>
<g>
	<g>
		<path class="st14" d="M40.82,199.63c-0.17,0-0.33-0.08-0.42-0.24c-1.88-3.03-2.31-5.62-2.33-5.72c-0.04-0.27,0.14-0.53,0.42-0.57
			c0.26-0.04,0.53,0.14,0.57,0.41c0,0.02,0.42,2.51,2.19,5.35c0.15,0.23,0.07,0.54-0.16,0.69C41.01,199.6,40.92,199.63,40.82,199.63
			z"/>
	</g>
	<g>
		<circle class="st14" cx="40.82" cy="199.09" r="0.78"/>
	</g>
</g>
<g>
	<g>
		<path class="st14" d="M41.6,197.11c-0.17,0-0.33-0.08-0.42-0.24c-1.69-2.72-2.08-5.05-2.09-5.15c-0.04-0.27,0.14-0.53,0.42-0.57
			c0.27-0.04,0.53,0.14,0.57,0.41c0,0.02,0.38,2.24,1.95,4.78c0.15,0.23,0.07,0.54-0.16,0.69C41.78,197.09,41.69,197.11,41.6,197.11
			z"/>
	</g>
	<g>
		<circle class="st14" cx="41.6" cy="196.58" r="0.7"/>
	</g>
</g>
<g>
	<g>
		<path class="st14" d="M45.21,195.39c-0.17,0-0.33-0.08-0.42-0.24c-1.69-2.72-2.08-5.05-2.09-5.15c-0.04-0.27,0.14-0.53,0.42-0.57
			c0.27-0.04,0.53,0.14,0.57,0.41c0,0.02,0.38,2.24,1.95,4.78c0.15,0.23,0.07,0.54-0.16,0.69C45.4,195.37,45.31,195.39,45.21,195.39
			z"/>
	</g>
	<g>
		<circle class="st14" cx="45.21" cy="194.86" r="0.7"/>
	</g>
</g>
<g>
	<g>
		<path class="st14" d="M44.02,197.29c-0.17,0-0.33-0.08-0.42-0.24c-1.69-2.72-2.08-5.05-2.09-5.15c-0.04-0.27,0.14-0.53,0.42-0.57
			c0.27-0.04,0.53,0.14,0.57,0.41c0,0.02,0.38,2.24,1.95,4.78c0.15,0.23,0.07,0.54-0.16,0.69C44.2,197.27,44.11,197.29,44.02,197.29
			z"/>
	</g>
	<g>
		<circle class="st14" cx="44.02" cy="196.76" r="0.7"/>
	</g>
</g>
<g>
	<g>
		<path class="st14" d="M69.57,192.06c-0.12,0-0.24-0.04-0.33-0.13c-2.65-2.38-3.79-4.74-3.83-4.84c-0.12-0.25-0.01-0.55,0.24-0.67
			c0.24-0.12,0.55-0.01,0.67,0.24c0.01,0.02,1.11,2.29,3.6,4.53c0.21,0.18,0.22,0.5,0.04,0.71C69.84,192,69.7,192.06,69.57,192.06z"
			/>
	</g>
	<g>
		<circle class="st14" cx="69.56" cy="191.53" r="0.78"/>
	</g>
</g>
<g>
	<g>
		<path class="st14" d="M69.61,189.43c-0.12,0-0.24-0.04-0.33-0.13c-2.38-2.14-3.41-4.27-3.45-4.36c-0.12-0.25-0.01-0.55,0.24-0.67
			c0.25-0.12,0.55-0.01,0.67,0.24c0.01,0.02,0.99,2.05,3.21,4.04c0.21,0.18,0.22,0.5,0.04,0.71
			C69.88,189.37,69.75,189.43,69.61,189.43z"/>
	</g>
	<g>
		<circle class="st14" cx="69.6" cy="188.9" r="0.7"/>
	</g>
</g>
<g>
	<g>
		<path class="st14" d="M72.6,186.77c-0.12,0-0.24-0.04-0.33-0.13c-2.38-2.14-3.41-4.27-3.45-4.36c-0.12-0.25-0.01-0.55,0.24-0.67
			c0.25-0.12,0.55-0.01,0.67,0.24c0.01,0.02,0.99,2.05,3.21,4.04c0.21,0.18,0.22,0.5,0.04,0.71
			C72.87,186.71,72.73,186.77,72.6,186.77z"/>
	</g>
	<g>
		<circle class="st14" cx="72.59" cy="186.24" r="0.7"/>
	</g>
</g>
<g>
	<g>
		<path class="st14" d="M71.98,188.93c-0.12,0-0.24-0.04-0.33-0.13c-2.38-2.14-3.41-4.27-3.45-4.36c-0.12-0.25-0.01-0.55,0.24-0.67
			c0.25-0.12,0.55-0.01,0.67,0.24c0.01,0.02,0.99,2.05,3.21,4.04c0.21,0.18,0.22,0.5,0.04,0.71
			C72.25,188.87,72.12,188.93,71.98,188.93z"/>
	</g>
	<g>
		<circle class="st14" cx="71.97" cy="188.4" r="0.7"/>
	</g>
</g>
<g>
	<g>
		<path class="st14" d="M47.42,195.8c-0.24,0-0.45-0.17-0.49-0.41c-0.59-3.15-0.11-5.46-0.09-5.56c0.06-0.27,0.33-0.44,0.59-0.38
			c0.27,0.06,0.44,0.32,0.39,0.59c0,0.02-0.46,2.23,0.1,5.16c0.05,0.27-0.13,0.53-0.4,0.58C47.48,195.8,47.45,195.8,47.42,195.8z"/>
	</g>
	<g>
		<circle class="st14" cx="47.43" cy="195.27" r="0.7"/>
	</g>
</g>
<g>
	<g>
		<path class="st14" d="M49.18,194.05c-0.24,0-0.45-0.17-0.49-0.41c-0.59-3.15-0.12-5.46-0.09-5.56c0.06-0.27,0.33-0.44,0.59-0.38
			c0.27,0.06,0.44,0.32,0.39,0.59c0,0.02-0.46,2.23,0.1,5.16c0.05,0.27-0.13,0.53-0.4,0.58C49.24,194.05,49.21,194.05,49.18,194.05z
			"/>
	</g>
	<g>
		<circle class="st14" cx="49.19" cy="193.52" r="0.7"/>
	</g>
</g>
<g>
	<g>
		<path class="st14" d="M53.17,193.75c-0.24,0-0.45-0.17-0.49-0.41c-0.59-3.15-0.11-5.46-0.09-5.56c0.06-0.27,0.33-0.44,0.59-0.38
			c0.27,0.06,0.44,0.32,0.39,0.59c0,0.02-0.46,2.23,0.1,5.16c0.05,0.27-0.13,0.53-0.4,0.58C53.23,193.75,53.2,193.75,53.17,193.75z"
			/>
	</g>
	<g>
		<circle class="st14" cx="53.18" cy="193.22" r="0.7"/>
	</g>
</g>
<g>
	<g>
		<path class="st14" d="M51.37,195.09c-0.24,0-0.45-0.17-0.49-0.41c-0.59-3.15-0.11-5.46-0.09-5.56c0.06-0.27,0.33-0.44,0.59-0.38
			c0.27,0.06,0.44,0.32,0.39,0.59c0,0.02-0.46,2.23,0.1,5.16c0.05,0.27-0.13,0.53-0.4,0.58C51.43,195.09,51.4,195.09,51.37,195.09z"
			/>
	</g>
	<g>
		<circle class="st14" cx="51.38" cy="194.56" r="0.7"/>
	</g>
</g>
<g>
	<g>
		<path class="st14" d="M75.27,185.86c-0.12,0-0.24-0.04-0.34-0.13c-2.36-2.17-3.36-4.31-3.4-4.4c-0.12-0.25-0.01-0.55,0.25-0.66
			c0.25-0.12,0.55-0.01,0.66,0.24c0.01,0.02,0.97,2.06,3.17,4.08c0.2,0.19,0.22,0.5,0.03,0.71
			C75.54,185.81,75.4,185.86,75.27,185.86z"/>
	</g>
	<g>
		<circle class="st14" cx="75.26" cy="185.33" r="0.7"/>
	</g>
</g>
<g>
	<g>
		<path class="st14" d="M75.63,183.41c-0.12,0-0.24-0.04-0.34-0.13c-2.36-2.17-3.36-4.31-3.4-4.4c-0.12-0.25-0.01-0.55,0.25-0.66
			c0.25-0.12,0.55-0.01,0.66,0.24c0.01,0.02,0.97,2.06,3.17,4.08c0.2,0.19,0.22,0.5,0.03,0.71
			C75.9,183.35,75.76,183.41,75.63,183.41z"/>
	</g>
	<g>
		<circle class="st14" cx="75.62" cy="182.88" r="0.7"/>
	</g>
</g>
<g>
	<g>
		<path class="st14" d="M78.65,180.78c-0.12,0-0.24-0.04-0.34-0.13c-2.36-2.17-3.36-4.31-3.4-4.4c-0.12-0.25-0.01-0.55,0.24-0.66
			c0.25-0.12,0.55-0.01,0.66,0.24c0.01,0.02,0.97,2.06,3.17,4.08c0.2,0.19,0.22,0.5,0.03,0.71
			C78.92,180.72,78.78,180.78,78.65,180.78z"/>
	</g>
	<g>
		<circle class="st14" cx="78.64" cy="180.25" r="0.7"/>
	</g>
</g>
<g>
	<g>
		<path class="st14" d="M78.01,182.93c-0.12,0-0.24-0.04-0.34-0.13c-2.36-2.17-3.36-4.31-3.4-4.4c-0.12-0.25-0.01-0.55,0.25-0.66
			c0.25-0.12,0.55-0.01,0.66,0.24c0.01,0.02,0.97,2.06,3.17,4.08c0.2,0.19,0.22,0.5,0.03,0.71
			C78.28,182.88,78.14,182.93,78.01,182.93z"/>
	</g>
	<g>
		<circle class="st14" cx="78" cy="182.4" r="0.7"/>
	</g>
</g>
<g>
	<g>
		<path class="st14" d="M81.87,178.01c-0.12,0-0.24-0.04-0.34-0.13c-2.36-2.17-3.36-4.31-3.4-4.4c-0.12-0.25-0.01-0.55,0.24-0.66
			c0.25-0.12,0.55-0.01,0.66,0.24c0.01,0.02,0.97,2.06,3.17,4.08c0.2,0.19,0.22,0.5,0.03,0.71C82.14,177.96,82,178.01,81.87,178.01z
			"/>
	</g>
	<g>
		<circle class="st14" cx="81.86" cy="177.48" r="0.7"/>
	</g>
</g>
<g>
	<g>
		<path class="st14" d="M81.23,180.16c-0.12,0-0.24-0.04-0.34-0.13c-2.36-2.16-3.36-4.31-3.4-4.4c-0.12-0.25-0.01-0.55,0.24-0.66
			c0.25-0.11,0.55-0.01,0.66,0.24c0.01,0.02,0.97,2.06,3.17,4.08c0.2,0.19,0.22,0.5,0.03,0.71
			C81.5,180.11,81.36,180.16,81.23,180.16z"/>
	</g>
	<g>
		<circle class="st14" cx="81.22" cy="179.63" r="0.7"/>
	</g>
</g>
<g>
	<g>
		<path class="st14" d="M55.44,196.02c-0.26,0-0.48-0.2-0.5-0.46c-0.26-3.19,0.46-5.44,0.49-5.54c0.09-0.26,0.36-0.41,0.63-0.32
			c0.26,0.08,0.41,0.37,0.32,0.63c-0.01,0.02-0.69,2.17-0.44,5.15c0.02,0.27-0.18,0.52-0.46,0.54
			C55.47,196.02,55.46,196.02,55.44,196.02z"/>
	</g>
	<g>
		<circle class="st14" cx="55.46" cy="195.5" r="0.7"/>
	</g>
</g>
<g>
	<g>
		<path class="st14" d="M57.38,194.47c-0.26,0-0.48-0.2-0.5-0.46c-0.26-3.19,0.46-5.44,0.49-5.54c0.09-0.26,0.37-0.41,0.63-0.32
			c0.26,0.08,0.41,0.37,0.32,0.63c-0.01,0.02-0.69,2.17-0.44,5.15c0.02,0.27-0.18,0.52-0.46,0.54
			C57.41,194.47,57.39,194.47,57.38,194.47z"/>
	</g>
	<g>
		<circle class="st14" cx="57.39" cy="193.94" r="0.7"/>
	</g>
</g>
<g>
	<g>
		<path class="st14" d="M61.38,194.59c-0.26,0-0.48-0.2-0.5-0.46c-0.26-3.19,0.46-5.44,0.49-5.54c0.09-0.26,0.36-0.41,0.63-0.32
			c0.26,0.08,0.41,0.37,0.32,0.63c-0.01,0.02-0.69,2.17-0.44,5.15c0.02,0.27-0.18,0.52-0.46,0.54
			C61.41,194.59,61.39,194.59,61.38,194.59z"/>
	</g>
	<g>
		<circle class="st14" cx="61.39" cy="194.06" r="0.7"/>
	</g>
</g>
<g>
	<g>
		<path class="st14" d="M59.45,195.74c-0.26,0-0.48-0.2-0.5-0.46c-0.26-3.19,0.46-5.44,0.49-5.54c0.09-0.26,0.36-0.41,0.63-0.32
			c0.26,0.08,0.41,0.37,0.32,0.63c-0.01,0.02-0.69,2.17-0.44,5.15c0.02,0.28-0.18,0.52-0.46,0.54
			C59.48,195.73,59.46,195.74,59.45,195.74z"/>
	</g>
	<g>
		<circle class="st14" cx="59.46" cy="195.21" r="0.7"/>
	</g>
</g>
<path class="st14" d="M70.01,113.97c0,0-8.27,1.82-15.65-9.35c0,0,0.4-0.19,1.03-0.65c0,0,5.78,9.34,14.89,8.94L70.01,113.97z"/>
<g>
	<g>
		<path class="st14" d="M60.62,117.54c-0.27,0-0.49-0.21-0.5-0.48c-0.16-3.56,0.74-6.03,0.77-6.13c0.09-0.26,0.38-0.39,0.64-0.3
			c0.26,0.1,0.39,0.38,0.3,0.64c-0.01,0.02-0.86,2.4-0.71,5.74c0.01,0.28-0.2,0.51-0.48,0.52
			C60.63,117.54,60.63,117.54,60.62,117.54z"/>
	</g>
	<g>
		<circle class="st14" cx="60.64" cy="117.02" r="0.78"/>
	</g>
</g>
</svg>
