<?xml version="1.0" encoding="utf-8"?>
<!-- Generator: Adobe Illustrator 23.0.1, SVG Export Plug-In . SVG Version: 6.00 Build 0)  -->
<svg version="1.1" id="Layer_1" xmlns="http://www.w3.org/2000/svg" xmlns:xlink="http://www.w3.org/1999/xlink" x="0px" y="0px"
	 viewBox="0 0 180 162.24" style="enable-background:new 0 0 180 162.24;" xml:space="preserve">
<style type="text/css">
	.st0{fill:#F3C0A6;}
	.st1{fill:#161719;}
	.st2{fill:#BE9D9E;}
	.st3{fill:#B68490;}
	.st4{fill:#E0D4CD;}
	.st5{fill:none;stroke:#C8AAA0;stroke-width:0.25;stroke-miterlimit:10;}
	.st6{fill:#3B0400;}
	.st7{fill:#6893A1;}
	.st8{fill:#2F5561;}
	.st9{fill:#F1AC95;}
	.st10{fill:#E6E7E8;}
	.st11{fill:#F26522;}
	.st12{fill:#E8C7AD;}
	.st13{fill:#CE7B29;}
	.st14{fill:#00B26D;}
	.st15{fill:#100D0A;}
	.st16{fill:#EBEBEC;}
	.st17{fill:#7A5441;}
	.st18{fill:#EFEFF0;}
	.st19{fill:#E2E3E4;}
	.st20{fill:#9E6B50;}
	.st21{fill:#ED1E27;}
	.st22{fill:#2C2C2C;}
	.st23{fill:#3E3E3E;}
	.st24{fill:#E19491;}
	.st25{fill:#DF8189;}
	.st26{fill:#945222;}
	.st27{fill:#DF9F8B;}
	.st28{fill:#D4437B;}
	.st29{fill:#E0E1E2;}
	.st30{fill:#72493B;}
	.st31{fill:#7787C1;}
	.st32{fill:#E27627;}
	.st33{fill:#569F51;}
	.st34{fill:#F3B790;}
	.st35{fill:#F1AD96;}
	.st36{fill:#6F4F4D;}
	.st37{fill:#010101;}
	.st38{fill:#D4457C;}
	.st39{fill:#F0C3AA;}
	.st40{fill:#911E25;}
	.st41{fill:#D32628;}
</style>
<g>
	<path class="st0" d="M61.67,28.02c0,0-2.67-0.37-3.85-0.56c-1.19-0.19-2.19-1.11-6.19,0.56l-9.49-2.48c0,0-4.45-0.78-5.97-1.59
		L23.35,18.2c0,0-6.04-4.63-9.23-4.19c0,0-8,0.14-10.07-0.22c0,0-2.88,0.21-3.89,0.53c0,0-0.58,0.63,0.5,0.81s3.34-0.03,4.11,0.28
		l1.43,0.11c0,0-2.72,1.31-2.99,1.89s-2.31,2.5-2.31,2.5s0.07,0.82,1.03,0.42l3.22-2.71c0,0,1.33-0.11,1.74-0.58l2.22,0.07
		c0,0-0.85,0.76-1.61,1.11c-0.76,0.35-1.86,1.14-1.39,1.99c0.47,0.85,2.71-0.9,2.71-0.9s1.6-0.95,2.52-1.01s3.68-0.86,4.89-0.11
		c5.52,3.43,10.06,7.77,16.01,10.6c3.52,1.68,7.32,3.08,11.02,4.31c1.04,0.35,11.66,3.16,11.85,2.09c0,0-1.22,6.63-1.22,6.63
		l4.45,10.56l13.01,14.34v1.85c0,0,1.15-0.26,1.7,3c0,0-0.2,12.82,3.8,20.72c0,0,2.22,4.61,3.45,10.17c0,0,0.56,3.95,2.33,7.62
		c0,0,0.89,3.34,0.67,28.29c0,0-2.28,12.56-1.22,17.51c0,0,0.33,3.98,1.78,6.36h2.48c0,0,0.54-0.98,0.69-2.28
		c0,0,0.85-9.34,2.56-10.04c0,0,5.23-2.15,3.52-5.23c0,0-0.33-1.33-2.89-2.56c0,0-0.7-1.82-0.33-3.93l1.78-15.38
		c0,0,2.96-4.67-0.44-19.05c0,0-1.11-3.63-0.89-6.97c0.22-3.34,0.07-13.42-0.89-16.16s-0.3-10.75,0.67-12.71l0.29-3.31
		c0,0,17.13-3.47,18.76-3.33l8.82-0.89c0,0,1.33,0.74,7.93-2.22c0,0,2.56-0.37,4.22,0.04c0,0,4.82,0.7,11.93-1.3l12.45-1.61
		l4.89-0.44c0,0,2.28,1.22,5.95,0.22l6.95-3.34l1.89-3.17l-3.34-2.33l-8.73,2.84l-5.45,0.95l-3.28-0.17l-15.45-0.56
		c0,0-7.73-0.95-13.79,0.89c-6.06,1.83-14.68-0.39-14.68-0.39L86.79,48.7l-6.84-2.17l-5.28-1.22l0.61-2.22l3.06-7.89
		c0,0,0.39-1.42,3.14-0.97c1.62,0.26,3.39,0.32,5.03,0.24c1.77-0.08,3.4-0.51,5.16-0.01c0.66,0.19,1.28,0.48,1.95,0.6
		c1.93,0.34,3.6-0.84,5.41-1.24c1.13-0.25,2.26-0.5,3.39-0.75c1.61-0.35,3.21-0.71,4.82-1.06c0,0,1.31-0.89,2.17-0.06
		c0.86,0.83,2.75,1.39,2.75,1.39s3.47,1.5,4.06,1.89c0.58,0.39,1.03-0.83,0.69-1.22c-0.33-0.39-2.97-1.81-2.97-1.81
		s-0.17-1.25,0.97-1.22c1.14,0.03,2.17,0.33,2.17,0.33l2.47,3.28c0,0,1.17,2.08,2.14,1.25c0,0-0.44-0.86-1.08-1.81
		c0,0,0.69,0.17,0.69-0.36c0,0,0.83,0.92,1.5,0.86c0.67-0.06-0.33-1.28-0.33-1.28l-2.17-2.03l-0.92-1.25l-2.08-0.92
		c0,0,0.06-1.08-1.06-1.25c-1.11-0.17-9.34,0.08-9.34,0.08c-1.66,0.18-3.32,0.2-4.99,0.2c-2.61-0.01-5.04-0.96-7.71-0.48
		c-1.33,0.24-2.6,0.75-3.94,0.91c-1.23,0.14-2.47-0.02-3.69-0.19c-0.65-0.09-1.3-0.17-1.92-0.37c-0.85-0.27-1.62-0.74-2.39-1.18
		c-1.18-0.67-2.47-1.31-3.82-1.22c-1.64,0.11-2.91,0.69-4.46-0.23l-10.95,1.33c0,0-0.5,0.72-0.75,0.81
		C62.06,27.52,61.67,28.02,61.67,28.02z"/>
	<path class="st0" d="M62.91,26.84c1.12-1.92,1.61-4.39,0.58-6.36c-0.11-0.2-0.24-0.4-0.42-0.54c-0.21-0.15-0.47-0.19-0.72-0.24
		c-0.54-0.09-1.08-0.19-1.62-0.28c-0.51-0.09-1.04-0.18-1.49-0.44c-0.45-0.26-0.83-0.71-0.85-1.23c-0.02-0.58,0.36-1.26-0.05-1.67
		c-0.12-0.12-0.29-0.19-0.39-0.33c-0.16-0.25,0.02-0.59,0.28-0.72c0.26-0.13,0.57-0.1,0.86-0.06c-0.3-0.03-0.57-0.26-0.64-0.55
		c-0.07-0.29,0.07-0.62,0.32-0.78c0.16-0.1,0.39-0.16,0.44-0.34c0.18-0.56-1.13-0.63-0.66-1.33c0.21-0.3,0.61-0.55,0.88-0.79
		c0.32-0.28,0.64-0.57,0.96-0.85c0.29-0.26,0.6-0.53,0.76-0.89c0.19-0.4,0.18-0.85,0.22-1.29c0.12-1.32,0.71-2.59,1.63-3.53
		c1.68-1.72,4.21-2.21,6.58-2.61c1.12,2.93,2.73,5.67,4.73,8.08c0.14,0.16,0.28,0.33,0.31,0.54c0.03,0.16-0.01,0.31-0.05,0.47
		c-0.58,2.47-1.17,4.94-1.75,7.41c-0.33,1.38-0.65,2.78-0.64,4.2c0.01,0.51,0.06,1.04,0.32,1.48c0.53,0.9,1.71,1.15,2.5,1.84
		c-1.51,0.78-3.02,1.57-4.53,2.35c-0.24,0.13-0.49,0.25-0.76,0.27c-0.22,0.01-0.44-0.05-0.66-0.11
		C67.02,27.99,64.96,27.42,62.91,26.84z"/>
	<path class="st1" d="M66.46,3.12c0.39,0.43,0.24,1.18,0.34,1.73c0.32,1.84,0.39,3.72,0.2,5.58c1.23-0.55,2.73-0.57,3.89,0.13
		c1.15,0.69,1.86,2.14,1.53,3.45c-0.28,1.1-1.17,1.91-1.95,2.74s-1.51,1.88-1.34,3c2.47,0.05,4.74-1.31,6.7-2.81
		c1.19-0.91,2.33-1.91,3.14-3.17c0.8-1.26,1.23-2.82,0.88-4.28c0.87-0.12,1.59-0.77,2.02-1.53s0.6-1.64,0.76-2.5
		c0.09-0.49,0.17-1,0.02-1.48c-0.18-0.55-0.65-0.95-1.1-1.32c-0.73-0.61-1.47-1.22-2.2-1.82c-0.36-0.3-0.73-0.6-1.18-0.74
		c-0.9-0.27-1.83,0.21-2.65,0.67c-0.29,0.16-0.58,0.33-0.77,0.6S74.47,2,74.66,2.26c-1.99-0.7-4.17-0.86-6.24-0.47
		c-0.53,0.1-2.12,0.61-2.46,1.08C65.87,3,66.28,2.93,66.46,3.12z"/>
	<path class="st2" d="M83.09,138.54c0,0,3.59,1.26,6.78-0.33c0,0-0.13,1.53-0.07,2.03c0,0-3.03,1.11-6.89,0.47
		C82.91,140.7,83.2,139.09,83.09,138.54z"/>
	<path class="st2" d="M87.98,140.24c0,0-4.64,1.74-5.37,2.52l-0.32,2.48c0,0,6.35-3.2,7.84-3.34c0,0-0.43-1.5-0.36-2.35
		L87.98,140.24z"/>
	<path class="st2" d="M82.31,145.06c0,0,5.95-1.28,6.54-1.22l-1.26,2.61l-3.06,0.43l2.15,1.2l-1.35,1.72c0,0-2.66-0.6-3.32-1.85
		L82.31,145.06z"/>
	<path class="st3" d="M81.98,155.41c0,0,2.31-4.33,3.05-5.84c0.74-1.5,2.63-3.56,2.71-3.78c0.07-0.22,1.65-3.48,2.46-3.67
		c0,0,3.22,1.13,3.23,3.91c0.01,2.78-3.86,3.87-3.86,3.87s-1.18,0.59-1.61,3.71l-0.95,6.34c0,0-0.15,1.39-0.69,2.28h-2.48
		C83.85,162.23,82.64,160.69,81.98,155.41z"/>
	<path class="st3" d="M179.54,51.01c0,0-3.12,1.88-5.36,2.38c0,0-3-0.26-4.3,0.3c0,0-1.21-0.16-3.63,0.97c0,0-2.06,1.54-5.08,0.73
		c0,0,2.58,0.02,6.65-1.81c0,0,4.6-2.84,4.06-5.19c0,0-0.56-1.49-3.27-1.4l-6.11,1.99c0,0,1.84-1.47,5.18-2.25l2.89-0.82h6.24
		l2.55,0.59l0.3,4.27L179.54,51.01z"/>
	<path class="st2" d="M165.32,54.55c0,0-1.99-1.49-2.3-3.16c0,0,0.38-1.87,0.89-2.88l-2.13,1.28l-1.56,3.51c0,0,1.71,1.93,2.22,2.06
		L165.32,54.55z"/>
	<path class="st2" d="M159.39,54.87c0,0,2.48-4.8,2.93-5l1.59-1.36l-1.79,0.58l-2.02,0.35l-3.95,5.73L159.39,54.87z"/>
	<polygon class="st2" points="154.58,49.93 154.21,55.36 157.17,55.04 156.88,50 156.67,50.04 	"/>
	<path class="st2" d="M179.09,46.53c-0.11,0.17-0.1,0.54-0.11,0.67c-0.04,0.4-0.05,0.8-0.03,1.2c0.04,0.81,0.19,1.62,0.45,2.39
		c0.03,0.09,0.06,0.18,0.14,0.22c0.1,0.06,0.24,0.01,0.31-0.08c0.08-0.09,0.1-0.21,0.12-0.33c0.04-0.29,0.03-0.57,0.02-0.86
		c-0.03-0.58-0.08-1.16-0.15-1.74c-0.06-0.43-0.13-0.86-0.3-1.26c-0.04-0.1-0.09-0.19-0.18-0.25
		C179.23,46.41,179.15,46.44,179.09,46.53z"/>
	<path class="st2" d="M60.35,27.84c0,0-3.69,1.78-5.25,7.34c0,0-4.48,5.89,0.44,12.9c0,0,1.41,3.63,1.82,4.48S70.41,66.9,70.41,66.9
		l0.93,1.67c0,0,3.11-0.33,6.11,0.52c3,0.85,10.67,0.11,12.64-1.15l0.29-3.31c0,0-4.85,1.12-8.22-2.29c0,0-4.56-4.63-3.59-9.04
		s8.23-4.6,8.23-4.6s-4.34-3.48-9.71-3.22c0,0,0.93-6.37,0.63-7.63c0,0,0.39-2.25,0.63-2.65c0,0-4.52,1.58-7.52-1.24
		c-3-2.82-1.33-5.28-1.33-5.28s3.64-2.94,5.21-3.06l-1.95-1.12c0,0-6.71,3.01-10.34,6.23S56.55,38.25,56.85,43c0,0-2.15-3.52,0-8.26
		c0,0,3.06-5.67,4.82-6.71L60.35,27.84z"/>
	<path class="st3" d="M79.83,9.47c0,0-4.52-3.45-5.17-7.21c0,0-0.9-0.48-0.89,0.02c0,0-0.4,3.11,5.36,7.58
		C79.14,9.87,80.1,10.54,79.83,9.47z"/>
</g>
</svg>
