<?xml version="1.0" encoding="utf-8"?>
<!-- Generator: Adobe Illustrator 23.0.1, SVG Export Plug-In . SVG Version: 6.00 Build 0)  -->
<svg version="1.1" id="Layer_1" xmlns="http://www.w3.org/2000/svg" xmlns:xlink="http://www.w3.org/1999/xlink" x="0px" y="0px"
	 viewBox="0 0 180 241.15" style="enable-background:new 0 0 180 241.15;" xml:space="preserve">
<style type="text/css">
	.st0{fill:#F3C0A6;}
	.st1{fill:#161719;}
	.st2{fill:#BE9D9E;}
	.st3{fill:#B68490;}
	.st4{fill:#E0D4CD;}
	.st5{fill:none;stroke:#C8AAA0;stroke-width:0.25;stroke-miterlimit:10;}
	.st6{fill:#3B0400;}
	.st7{fill:#6893A1;}
	.st8{fill:#2F5561;}
	.st9{fill:#F1AC95;}
	.st10{fill:#E6E7E8;}
	.st11{fill:#F26522;}
	.st12{fill:#E8C7AD;}
	.st13{fill:#CE7B29;}
	.st14{fill:#00B26D;}
	.st15{fill:#100D0A;}
	.st16{fill:#EBEBEC;}
	.st17{fill:#7A5441;}
	.st18{fill:#EFEFF0;}
	.st19{fill:#E2E3E4;}
	.st20{fill:#9E6B50;}
	.st21{fill:#ED1E27;}
	.st22{fill:#2C2C2C;}
	.st23{fill:#3E3E3E;}
	.st24{fill:#E19491;}
	.st25{fill:#DF8189;}
	.st26{fill:#945222;}
	.st27{fill:#DF9F8B;}
	.st28{fill:#D4437B;}
	.st29{fill:#E0E1E2;}
	.st30{fill:#72493B;}
	.st31{fill:#7787C1;}
	.st32{fill:#E27627;}
	.st33{fill:#569F51;}
	.st34{fill:#F3B790;}
	.st35{fill:#F1AD96;}
	.st36{fill:#6F4F4D;}
	.st37{fill:#010101;}
	.st38{fill:#D4457C;}
	.st39{fill:#F0C3AA;}
	.st40{fill:#911E25;}
	.st41{fill:#D32628;}
</style>
<g>
	<path class="st9" d="M51.19,90.11l12.94-10.87L72,91.81l1.97,5.44l-4.8,7.97c0,0-14.42,1.03-14.79,0s-4.03-9.94-4.03-9.94
		L51.19,90.11z"/>
	<polygon class="st9" points="61.5,209.62 69.65,195.46 75.63,197.37 81.63,208.75 71.56,216.22 	"/>
	<path d="M50.06,89.09c0,0,10.97,10.41,20.81,13.59c0,0,5.91,8.16,6.66,21.47c0,0-2.53-0.28-2.63,1.31s-2.16,19.97-16.97,24.66
		c0,0-10.03,15.56-19.78,19.03c0,0-2.91,3.94-5.34,4.97c0,0,24.66,11.16,33.56,18.84l5.13,3.91c0,0-3.5,11.38-7.25,15.75
		l-45.13-15.25c0,0-9.39-3.41-15.26-7.51c-2.44-1.7-3.86-4.52-3.86-7.49v-8.08c0-1.19,0.23-2.37,0.68-3.47
		C3.51,163.89,14.56,137.68,23,130C23,130,49.25,89.68,50.06,89.09z"/>
	<path class="st10" d="M70,193.5c0,0,5.13,2.88,5.13,10.38c0,0,0.08,8.25-5.96,11.88c0,0,9.71,4.5,12.96,14.75s5.63,11.13,8.13,10.5
		s9.5-14.63,1.63-28.38c0,0,2-20.25-5.5-22.63s-10.63,3.63-10.63,3.63L70,193.5z"/>
	<path class="st9" d="M136.25,33.75c0.25,0.5-1.17,14.76-1.17,14.76l13.8-4.14V31.12L136.25,33.75z"/>
	<polygon class="st9" points="165.84,81.25 161.16,77.09 150.21,85.72 157.59,94.9 167.06,90.12 	"/>
	<path class="st9" d="M131.12,60.12l-7.87,0.75c0,0-0.25,11,0,11.88s0.51,6.75,3.88,7.13s11.5-0.38,12,0s5.13,1.59,5.25,0.11
		s0.39-8.03,0.44-9.57c0.06-1.54-10.84-10.29-10.84-10.29H131.12z"/>
	<path class="st11" d="M63.13,73.63l0,6.71c0,1.08,0.21,2.14,0.61,3.13c2.58,6.33,12.68,32.31,17.89,63.65
		c14.97-1.94,32.73-4.91,45.22-13.84c0.35-0.25,0.71-0.51,1.13-0.6c0.56-0.13,1.15,0.07,1.69,0.27c7.86,2.82,15.62,5.37,23.92,6.58
		c3.6,0.53,7.31,0.9,10.95,0.53c1.16-0.12,7.5-0.98,7.5-2.88C179.06,129.59,180,107,180,107s-2.72-18.47-12-28.22
		c0,0-13.63,15.59-13.62,15.59c1.64,2.01,3.42,3.93,5.33,5.68c2,1.83,2.17,1.33,1.12,3.67c-0.95,2.13-1.9,3.86-1.93,6.28
		c-2.3-0.01-4.61-0.02-6.91-0.03c1.11-1.32,0.98-3.35,0.15-4.86c-0.51-0.95-8.18-9.06-8.51-8.87c0,0,6.63-3.69,6-7.16
		c0,0-20.88-11.47-24-23.34c0,0,0.38-11.38,5.25-16.13c0,0,0.5-4.13-4.63-5.63c0,0,0.88-4.13,2.75-6.63l-0.13-10.75l6.5-2.13
		l-0.52,12.9c-0.03,0.82,0.93,1.31,1.55,0.77c2.14-1.85,6.35-3.94,12.45-0.12c0.51,0.32,1.18-0.06,1.17-0.66
		c-0.01-0.7,0-1.41-0.01-1.59c-0.47-5.2-1.23-10.38-2.46-15.45c-0.41-1.71-0.94-3.39-1.45-5.08c-0.53-1.76-0.88-3.63-2-5.13
		c-1.56-2.08-4.17-2.89-6.37-4.08c-2.66-1.44-5.41-2.7-8.24-3.78c-3.45-1.32-8.45-3.28-12.11-1.64c-7,3.13-12.5,13.5-13.5,20.5
		s-4.03,16.01-11.63,25.62C84.57,56.47,80.69,64,65.13,70.61C63.92,71.13,63.13,72.31,63.13,73.63z"/>
	<path d="M159.15,42.21c1.51,1.01,2.88,2.24,4.05,3.62c2.74,3.25,4.4,7.37,4.83,11.6c0.5,4.84-0.55,9.71-2.04,14.33
		c-1.5,4.63-3.45,9.1-4.83,13.76c-0.15,0.52-0.32,1.07-0.76,1.39c-0.38,0.28-0.88,0.32-1.35,0.38c-3.12,0.37-5.68,2.54-8.59,3.53
		c-3.09,1.04-6.83-0.1-9.59-1.63c-0.09-0.05-0.18-0.1-0.27-0.16c-2.05-1.2-3.78-2.88-5.58-4.43c-1.27-1.1-2.61-2.16-3.63-3.5
		c-1.05-1.39-1.97-3.49-1.25-5.22c0.13-0.3,0.3-0.7,0.61-0.81c0.29-0.1,0.65,0.13,0.95,0.02c3.04-1.19,6.45-0.51,9.71-0.62
		c1.07-0.04,2.17-0.17,3.09-0.7c0.98-0.57,1.66-1.53,2.3-2.46c4.24-6.11,8.47-12.23,12.71-18.34c-8.89,2.23-17.2,6.53-26.21,8.23
		c-2.6,0.49-9.36,3.44-11.82,2.45c-8-3.2,1.73-14.52,6.28-17.83c3.04-2.22,6.59-3.62,10.18-4.77c4.69-1.5,9.69-2.58,14.52-1.63
		C154.85,39.88,157.13,40.85,159.15,42.21z"/>
	<path class="st9" d="M133.25,59c-1.48,2.89-1.59,6.17-2.02,9.4c-0.47,3.49,0.57,6.68,3.99,8.34c3.03,1.47,6.66,1.13,9.86,0.09
		c6.89-2.23,12.68-7.63,15.39-14.35c1.08-2.68,1.64-5.85,0.21-8.36c-1.59-2.78-5.06-3.81-8.23-4.27c-2.03-0.29-4.11-0.46-6.11-0.01
		c-2.16,0.48-4.11,1.63-6.01,2.77c-2.22,1.33-4.49,2.7-6.06,4.76C133.87,57.89,133.53,58.44,133.25,59z"/>
	<path d="M156.28,49.56c0,0-5.16,1.65-8.72,5.87s-3.66,5.44-3.66,5.44s3.84-10.69,8.91-12.09S156.28,49.56,156.28,49.56z"/>
	<path d="M160.86,48.5c0,0-2.4,0.77-4.06,2.74c-1.66,1.97-1.7,2.53-1.7,2.53s1.79-4.98,4.15-5.63
		C161.6,47.48,160.86,48.5,160.86,48.5z"/>
	<path d="M159.35,49.32c0,0-2.4,0.77-4.06,2.74c-1.66,1.97-1.7,2.53-1.7,2.53s1.79-4.98,4.15-5.63
		C160.09,48.3,159.35,49.32,159.35,49.32z"/>
	<path d="M157.72,49.72c0,0-2.4,0.77-4.06,2.74s-1.7,2.53-1.7,2.53s1.79-4.98,4.15-5.63C158.47,48.7,157.72,49.72,157.72,49.72z"/>
	<path d="M160.53,47.69c0,0-0.77,2.4-2.74,4.06c-1.97,1.66-2.53,1.7-2.53,1.7s4.98-1.79,5.63-4.15
		C161.55,46.95,160.53,47.69,160.53,47.69z"/>
	<path d="M162.19,47.69c0,0-0.77,2.4-2.74,4.06c-1.97,1.66-2.53,1.7-2.53,1.7s4.98-1.79,5.63-4.15
		C163.21,46.95,162.19,47.69,162.19,47.69z"/>
	<path d="M158.78,77.45c0,0,2.03,4.36,1.57,8.98c-0.46,4.62-1.14,5.32-1.14,5.32s3.81-7.7,1.69-11.87
		C158.77,75.71,158.78,77.45,158.78,77.45z"/>
	<path d="M155.59,79.31c0,0,2.03,4.36,1.57,8.98s-1.14,5.32-1.14,5.32s3.81-7.7,1.69-11.87C155.58,77.58,155.59,79.31,155.59,79.31z
		"/>
	<path d="M130.26,51.19c0,0,2.03,4.36,1.57,8.98s-1.14,5.32-1.14,5.32s3.81-7.7,1.69-11.87C130.26,49.46,130.26,51.19,130.26,51.19z
		"/>
	<path d="M160.76,69.33c0,0,2.51,4.1,2.58,8.75s-0.53,5.42-0.53,5.42s2.91-8.08,0.33-11.98S160.76,69.33,160.76,69.33z"/>
	<path d="M154.23,47.51c0,0-3.41,1.09-5.77,3.88c-2.36,2.79-2.42,3.6-2.42,3.6s2.54-7.07,5.89-8
		C155.28,46.06,154.23,47.51,154.23,47.51z"/>
	<path d="M50.34,91.81c0,0,2.63-5.91,1.41-8.53s-2.72,5.44-2.81,8.53c0,0-5.81-3.56-8.91,3.47l0.94,0.47c0,0,4.41-5.91,7.59-1.88
		L50.34,91.81z"/>
</g>
</svg>
