<?xml version="1.0" encoding="utf-8"?>
<!-- Generator: Adobe Illustrator 23.0.1, SVG Export Plug-In . SVG Version: 6.00 Build 0)  -->
<svg version="1.1" id="Layer_1" xmlns="http://www.w3.org/2000/svg" xmlns:xlink="http://www.w3.org/1999/xlink" x="0px" y="0px"
	 viewBox="0 0 180 358.72" style="enable-background:new 0 0 180 358.72;" xml:space="preserve">
<style type="text/css">
	.st0{fill:#F3C0A6;}
	.st1{fill:#161719;}
	.st2{fill:#BE9D9E;}
	.st3{fill:#B68490;}
	.st4{fill:#E0D4CD;}
	.st5{fill:none;stroke:#C8AAA0;stroke-width:0.25;stroke-miterlimit:10;}
	.st6{fill:#3B0400;}
	.st7{fill:#6893A1;}
	.st8{fill:#2F5561;}
	.st9{fill:#F1AC95;}
	.st10{fill:#E6E7E8;}
	.st11{fill:#F26522;}
	.st12{fill:#E8C7AD;}
	.st13{fill:#CE7B29;}
	.st14{fill:#00B26D;}
	.st15{fill:#100D0A;}
	.st16{fill:#EBEBEC;}
	.st17{fill:#7A5441;}
	.st18{fill:#EFEFF0;}
	.st19{fill:#E2E3E4;}
	.st20{fill:#9E6B50;}
	.st21{fill:#ED1E27;}
	.st22{fill:#2C2C2C;}
	.st23{fill:#3E3E3E;}
	.st24{fill:#E19491;}
	.st25{fill:#DF8189;}
	.st26{fill:#945222;}
	.st27{fill:#DF9F8B;}
	.st28{fill:#D4437B;}
	.st29{fill:#E0E1E2;}
	.st30{fill:#72493B;}
	.st31{fill:#7787C1;}
	.st32{fill:#E27627;}
	.st33{fill:#569F51;}
	.st34{fill:#F3B790;}
	.st35{fill:#F1AD96;}
	.st36{fill:#6F4F4D;}
	.st37{fill:#010101;}
	.st38{fill:#D4457C;}
	.st39{fill:#F0C3AA;}
	.st40{fill:#911E25;}
	.st41{fill:#D32628;}
</style>
<g>
	<path class="st30" d="M101.12,287.03c-2.83,9.2-6.53,18.08-9.72,27.15c-1.83,5.2-3.45,10.53-3.66,16.13
		c-0.05,1.23,0.07,2.47,0.1,3.7c-5.06-0.59-8.74-3.09-10.83-7.8c1.54-3.02,2.11-6.31,2.47-9.62c0.89-8.43,1.57-16.88,2.56-25.29
		c0.81-6.94,3.2-13.42,6.49-19.57c0.95-1.78,1.82-3.6,2.32-5.59c-1.83,2.2-3.67,4.39-5.48,6.61c-2.93,3.6-6.51,6.57-9.63,9.98
		c-0.42,0.46-0.88,0.86-1.11,1.45c-0.41,0.3-0.88,0.55-1.21,0.91c-4.08,4.49-8.8,8.31-13.06,12.61c-1.76,1.47-3.34,3.15-4.97,4.77
		c-1.2,1.19-2.42,2.35-3.13,3.92c-0.73,1.52-1.46,3.03-2.19,4.55c-0.66,0.35-1.14,0.87-1.5,1.52c0,0,0.02-0.02,0.02-0.02
		c-2.92,1.62-5,0.85-6.13-2.27c-0.3-0.83-0.41-1.69-0.46-2.56c-0.1-2.11,0.11-4.18,0.55-6.24c2.46-2.12,4.59-4.54,6.34-7.28
		c1.75-1.6,3-3.6,4.21-5.59c2.88-4.72,4.66-9.98,7.24-14.85c2.95-4.38,5.83-8.81,9.64-12.52c1.91-1.92,3.81-3.85,6.01-5.47
		c0.87-0.65,2.04-1.06,2.39-2.28c0.39-0.32,0.78-0.65,1.18-0.96c2.32-1.83,3.42-4.13,2.72-7.11c-0.6-2.52-1.45-4.97-2.37-7.39
		c0.02-0.51,0.02-1.03,0.06-1.54c0.36-4.92,0.8-9.83,1.06-14.76c0.48-9.25,0.06-18.48-0.93-27.69c0.98,0.22,1.07,1.56,2.13,1.69
		c-0.2,0.51-0.07,1,0.03,1.51c0.45,2.19,1.13,4.35,1.9,6.39c1.24,3.29,2.53,6.59,4.01,9.8c5.44,11.85,10.57,23.82,14.68,36.2
		c1.99,5.99,3.69,12.06,4.76,18.3c-0.4,0.2-0.53,0.58-0.66,0.98c-1.09,3.35-2.21,6.7-3.29,10.05
		C102.8,281.58,101.97,284.31,101.12,287.03z"/>
	<path class="st31" d="M107.61,267.83c-1.06-6.23-2.77-12.31-4.76-18.3c-4.1-12.38-9.24-24.36-14.68-36.2
		c-1.47-3.21-2.77-6.51-4.01-9.8c-0.77-2.04-1.45-4.2-1.9-6.39c-0.1-0.51-0.23-1-0.03-1.51c0.53-1.87,1.09-3.7,2.23-5.36
		c2.34-3.39,5.06-6.56,6.41-10.55c1.72,4.01,3.71,7.87,5.93,11.64c2.85,4.86,5.42,9.88,7.85,14.97c3.02,6.32,6.08,12.64,8.59,19.18
		c1.98,5.17,3.48,10.5,4.33,15.99c0.76,4.91,1.25,9.83,1.61,14.79c0.36,5.01-0.01,9.93-0.51,14.88c-0.46,4.47-1.89,8.81-1.76,13.36
		c-0.46,0.05-0.53,0.37-0.59,0.76c-1.14,7.36-2.31,14.72-3.45,22.08c-1.11,7.19-1.5,14.43-1.23,21.7c0.03,0.93,0,1.85-0.07,2.79
		c-0.62-2.36-1.12-4.75-1.61-7.14c-1.25-6.12-2.02-12.29-1.88-18.53c0.12-5.18,0.28-10.38,1.3-15.51c0.36-1.8,0.33-3.69,0.11-5.54
		C109.64,279.29,108.68,273.55,107.61,267.83z"/>
	<path class="st28" d="M46.39,260.23c-0.74,4.56-1.48,9.12-2.41,13.66c-2.15,10.46-4.41,20.9-8.69,30.74
		c-2.34,5.39-5.5,10.3-9.4,14.74c1.06-2.49,1.96-5.03,2.87-7.57c1.85-5.16,2.71-10.55,3.59-15.92c1.37-8.35,2.14-16.77,1.87-25.23
		c-0.23-7.34-0.86-14.66-1.25-22c-0.65-12.28-1.7-24.55-1.59-36.87c0.06-7.32,0.19-14.63,1.77-21.8c1.81-8.25,5.7-15.47,11.35-21.74
		c0.27-0.3,0.62-0.54,0.93-0.81c-0.1,0.5-0.05,1.1-0.31,1.49c-1.31,1.94-1.85,4.17-2.56,6.34c-1.3,4.02-2.28,8.14-2.25,12.37
		c0.07,7.76,0.97,15.47,1.96,23.16c0.71,5.5,1.16,11.03,1.79,16.54c0.81,7.05,1.39,14.11,1.71,21.19
		C45.94,252.43,46.18,256.33,46.39,260.23z"/>
	<path class="st32" d="M46.39,260.23c-0.21-3.9-0.45-7.8-0.63-11.7c-0.32-7.08-0.91-14.15-1.71-21.19
		c-0.63-5.51-1.08-11.04-1.79-16.54c-0.99-7.7-1.89-15.4-1.96-23.16c-0.04-4.22,0.94-8.34,2.25-12.37c0.7-2.17,1.24-4.4,2.56-6.34
		c0.26-0.39,0.22-0.99,0.31-1.49c0,0,0.07-0.04,0.07-0.04c0.05-0.08,0.1-0.17,0.15-0.25c1.08-1.23,1.99-2.63,3.48-3.45
		c0.61-0.06,1.14,0.1,1.45,0.64c1.18,2.02,2.94,3.49,4.66,4.99c0.44,0.38,0.85,0.74,0.83,1.37c-0.16,0.2-0.35,0.39-0.46,0.61
		c-2.39,4.6-3.28,9.65-3.59,14.7c-0.5,8.01-0.13,16.04,0.56,24.03c0.29,3.28,0.38,6.58,0.74,9.84c0.6,5.46,0.84,10.95,1.65,16.38
		c0.59,3.96,0.89,7.95,1.44,11.92c0.84,6.15,1.72,12.29,2.68,18.42c0.37,2.36,0.42,4.79,1.28,7.07c-2.59,4.87-4.37,10.13-7.24,14.85
		c-1.21,1.99-2.46,3.99-4.21,5.59c0.08-4.32-0.03-8.63-0.22-12.94c-0.29-6.57-0.53-13.13-1.93-19.59
		C46.65,261.11,46.51,260.67,46.39,260.23z"/>
	<path class="st31" d="M60.36,273.65c-0.86-2.28-0.91-4.71-1.28-7.07c-0.96-6.13-1.84-12.27-2.68-18.42
		c-0.54-3.96-0.85-7.96-1.44-11.92c-0.81-5.44-1.05-10.93-1.65-16.38c-0.36-3.26-0.45-6.56-0.74-9.84c-0.7-8-1.06-16.03-0.56-24.03
		c0.31-5.05,1.2-10.09,3.59-14.7c0.12-0.22,0.31-0.41,0.46-0.61c0.29,0.08,0.66,0.08,0.87,0.25c2.01,1.65,4.34,2.74,6.73,3.64
		c3.5,1.32,7.13,2.31,10.62,3.65c2.13,0.82,4.11,2.06,6.16,3.1c0.3,1.71-0.39,3.08-1.47,4.32c-0.3,0.34-0.98,0.6-0.34,1.21
		c1.41,1.33,1.87,3.24,2.92,4.77c0.36-1.77,0.95-3.44,2.13-4.86c0.49-0.6,0.51-1.05-0.1-1.68c-0.98-1.02-1.91-2.15-1.95-3.71
		c1.72-0.9,2.78-2.52,4.14-3.81c1.61-1.52,2.23-3.79,3.95-5.23c0.66,1.31,1.32,2.61,1.98,3.92c-0.22,1.16-0.84,2.23-0.83,3.45
		c-1.35,3.99-4.07,7.16-6.41,10.55c-1.14,1.66-1.7,3.49-2.23,5.36c-1.05-0.13-1.15-1.47-2.13-1.69c-3.16-2.85-7.05-4.67-10.4-7.26
		c0.14-0.62-0.3-0.89-0.67-1.27c-1.55-1.57-3.02-3.21-4.06-5.19c-0.19-0.37-0.24-0.88-0.79-0.71c-0.45,0.13-0.5,0.6-0.51,1.02
		c-0.03,0.98,0.02,1.96-0.1,2.92c-0.58,4.49-0.82,9.01-1.03,13.53c-0.41,8.9,0.05,17.78,1.16,26.63c0.87,6.99,2.07,13.92,3.18,20.86
		c0.89,5.57,2.22,11.08,3.11,16.66C66.18,264.84,63.3,269.27,60.36,273.65z"/>
	<path class="st28" d="M90.88,179.72c-0.01-1.22,0.61-2.29,0.83-3.45c2.23,3.39,4.4,6.83,6.7,10.17c2.79,4.05,5.8,7.94,8.82,11.83
		c2.68,3.45,4.81,7.28,6.89,11.13c3.38,6.25,6.06,12.81,8.4,19.51c0.99,2.84,1.53,5.8,2.26,8.72c1.09,4.36,1.57,8.79,1.72,13.24
		c0.38,11.29-0.42,22.53-1.71,33.75c-1.07,9.35-2.17,18.73-2.18,28.16c-0.01,5.41,0.54,10.79,1.65,16.1
		c0.15,0.69,0.2,1.37-0.35,2.16c-0.91-2.07-1.85-4.14-2.73-6.23c-4.02-9.44-5.33-19.26-4.36-29.46c0.34-3.58,0.24-7.21,0.09-10.81
		c-0.13-4.55,1.3-8.89,1.76-13.36c0.51-4.95,0.88-9.87,0.51-14.88c-0.36-4.96-0.85-9.89-1.61-14.79
		c-0.85-5.49-2.35-10.82-4.33-15.99c-2.51-6.54-5.57-12.86-8.59-19.18c-2.43-5.09-5-10.11-7.85-14.97
		C94.59,187.59,92.6,183.73,90.88,179.72z"/>
	<path class="st30" d="M16.77,135.52c0.02-5.74-0.47-11.46-0.6-17.19c-0.13-6.05,0.57-12.07,1.3-18.07c0.2-1.63,0.55-3.24,0.82-4.86
		c0.2-1.25,0.92-2,2.11-2.39c5.26-1.73,10.58-3.23,16.01-4.32c3.76-0.75,7.55-1.39,11.32-2.08c0.68,0.05,0.69,0.66,0.9,1.09
		c1.87,4,2.36,8.2,1.8,12.55c-6.16,0.25-12.26,0.99-18.3,2.25c-0.76,0.16-1.02,0.58-1.06,1.24c-0.61,10.75-3.85,21.05-5.39,31.64
		c-0.04,0.29-0.16,0.57-0.24,0.86c-0.07,0.08-0.06,0.16,0.01,0.23c-0.01,0.15-0.02,0.31-0.03,0.46
		C22.39,137.4,19.48,137.08,16.77,135.52z"/>
	<path class="st30" d="M104.75,74.73c-2.19-0.02-1.72,1.63-1.84,2.91c-0.02,0.29-0.05,0.59-0.07,0.88
		c-0.03,0.51-0.06,1.02-0.08,1.53c-1.82-0.27-2.31,0.88-2.36,2.53c-0.39-0.25-0.59-0.4-0.81-0.52c-0.97-0.52-1.86-0.4-2.34,0.61
		c-0.39,0.83-0.13,1.7,0.78,2.04c1.11,0.41,1.94-0.03,2.14-1.24c0.14-0.88,0.47-0.98,1.23-0.62c0.39,0.18,0.89,0.13,1.35,0.18
		c-0.14,1.2-1.34,2.36-2.92,3.01c-5.02,2.05-9.85,1.46-14.42-1.19c-1.51-0.87-3.31-1.82-3.36-4.04c0.32-0.21,0.64-0.43,0.96-0.64
		c2.31,0.74,2.95,0.29,2.59-1.84c-0.02-0.15-0.07-0.3-0.11-0.44c1.13-1.08,1.71-2.55,2.67-3.75c0.5,0.24,0.97,0.57,1.56,0.15
		c1.93-1.36,3.81-2.77,5.26-4.68c0.44-0.58,0.42-1.06,0.15-1.69c-1.03-2.41-2.18-4.75-3.6-6.96c1.08-1.57,0.97-2.2-0.62-3.68
		c0.21-0.44,0.43-0.88,0.64-1.32c0.81-0.42,1.18-1.23,1.68-1.92c4.21-5.85,9.56-9.5,17.12-8.91c0.81,0.06,1.63,0.15,2.44,0.23
		c0.65,0.35,1.16,0.84,1.54,1.47c1.65,2.67,1.62,5.48,0.42,8.25c-0.67,1.56-0.79,3.05-0.45,4.65c-0.67,2.74-1.88,5.25-3.18,7.73
		C109.3,70.12,107.42,72.77,104.75,74.73z M86.93,83.51c1.07-0.1,1.72-0.73,1.78-1.66c0.06-1.01-0.72-1.61-1.68-1.64
		c-0.93-0.03-1.54,0.56-1.61,1.51C85.33,82.79,86.08,83.22,86.93,83.51z M89.38,83.57c0.08,1.04,0.58,1.68,1.61,1.73
		c1.06,0.05,1.68-0.6,1.72-1.59c0.04-1-0.64-1.67-1.62-1.73C90.08,81.93,89.52,82.59,89.38,83.57z M95.04,85.65
		c0.93-0.01,1.53-0.51,1.47-1.39c-0.05-0.87-0.17-1.89-1.48-1.89c-1.05,0-1.66,0.57-1.72,1.56C93.23,85.09,94.04,85.5,95.04,85.65z"
		/>
	<path class="st30" d="M76.39,83.04c0.71,0.01,1.36-0.66,2.11-0.21c0.37,0.49,0.77,0.95,1.11,1.46c2.02,3.06,4.86,5.15,8.15,6.59
		c1.39,0.61,2.7,1.27,3.8,2.26c0.77,0.69,1.34,1.6,2.18,2.64c0.85-2.55,3.02-3.37,5-4.26c3.3-1.47,5.77-3.65,7.08-7.05
		c0.8,0.77,0,1.55-0.06,2.29c-0.5,5.78-0.14,11.51,0.74,17.23c-0.41,1.28-0.6,2.57-0.14,3.89c0.11,0.33,0.19,0.63-0.4,0.73
		c-2.96,0.53-3.23,0.94-2.86,3.9c-0.18,0.05-0.36,0.1-0.54,0.14c-0.12-0.05-0.25-0.1-0.37-0.15c-1.89-0.15-2.55,0.37-3.07,2.41
		c0.04,0.33,0.08,0.67,0.12,1c-0.04,0.05-0.08,0.09-0.12,0.12c-2.63-0.79-4,0.37-3.59,3.04c-1.19-0.26-2.38-0.6-3.53,0.13
		c-0.03-1.12-0.36-2.11-1.22-2.88c-0.99-0.88-2.06-0.47-3.11-0.11c-0.29-2.88-0.76-3.34-3.5-3.29c-0.84,0.01-0.55-0.53-0.6-0.92
		c-0.26-1.95-1.27-3.01-2.86-3.02c-0.5,0-0.96,0.43-1.48,0.12l0,0.02c1.22-2.63-0.81-4.71-3.41-4.18c-0.24-0.07-0.23-0.28-0.27-0.47
		c0.87-1.15,0.74-2.42,0.44-3.71c0.31-1.61,0.62-3.22,0.91-4.83C77.69,91.61,77.96,87.29,76.39,83.04z"/>
	<path class="st30" d="M150.31,98.59c-0.83,4.55-1.25,9.16-1.83,13.74c-0.82,6.51-1.61,13.04-4.03,19.22
		c-1.14,2.92-2.17,3.33-5.05,1.99c-2.83-1.31-5.15-3.36-7.53-5.31c-4.72-3.85-8.64-8.5-12.69-13.01c-0.27-0.3-0.49-0.66-0.73-0.99
		c-0.01-0.25-0.08-0.52-0.01-0.74c0.77-2.52,2-4.86,3.74-6.78c1.24-1.36,2.46-3.05,4.6-3.29c3.07,3.67,6.01,7.46,9.63,11.16
		c1.11-6.42,2.92-12.33,4.7-18.26C144.05,97.58,147.04,98.66,150.31,98.59z"/>
	<path class="st31" d="M90.93,57.26c1.59,1.48,1.69,2.1,0.62,3.67c-0.47,0.16-1.13,0.61-1.38,0.45c-1.15-0.77-1.85,0.02-2.65,0.56
		c-5.14-2.69-7.25-7.08-6.07-12.98c0.37-1.87,0.48-3.39-0.77-5.15c-1.35-1.92-1.15-4.32,0.19-6.4c0.34-0.52,0.54-0.91,0.15-1.5
		c-0.95-1.41-0.55-2.74,0.41-3.98c1.45-1.87,2.93-3.7,4.71-5.26c0.23-0.21,0.47-0.41,0.48-0.75c5.07-2.89,10.57-3.99,16.36-3.96
		c1.54,0.01,2.42,0.31,2.36,2.05c-0.03,0.75,0.24,1.52,0.38,2.28c0.2,1.1-0.28,1.73-1.33,2.08c-1.71,0.57-2.28,1.78-2.06,3.56
		c0.24,1.94,1.47,2.93,3.05,3.7c-0.55,1.67-1.62,3.05-2.52,4.53c-0.66,1.1-1.51,1.65-2.78,1.41c-1.02-0.19-1.86,0.2-2.52,0.84
		c-2.04,2-4.26,3.82-5.94,6.17C89.87,51,88.38,53.54,88,56.58c-0.06,0.5-0.22,1.08,0.28,1.43c0.47,0.33,0.67-0.28,1.01-0.41
		C89.81,57.41,90.38,57.37,90.93,57.26z"/>
	<path class="st30" d="M59.41,115.34c-0.04-3.54,0.11-7.07-0.26-10.61c-0.38-3.69-1.28-4.63-4.98-4.71c0.04-0.76,0.1-1.53,0.12-2.29
		c0.12-4.16,0.16-8.31-2.35-11.95c3.39-0.75,6.5-2.41,9.92-3.07c4.03-0.78,8.05-0.67,12.07,0c1.45,4.15,1.44,8.37,0.61,12.63
		c-1.37,7.06-4.14,13.34-10.3,17.57C62.77,113.91,61.38,115.23,59.41,115.34z"/>
	<path class="st31" d="M107.61,267.83c1.07,5.72,2.02,11.46,1.89,17.31c-1.12,5.11-2.29,10.2-3.34,15.32
		c-1.21,5.89-2.19,11.82-2.67,17.81c-0.41,5.13-0.13,10.28,0.34,15.41c0.08,0.86,0.69,2.21-0.23,2.47
		c-1.02,0.29-0.95-1.22-1.26-1.94c-4.08-9.48-4.74-19.32-3.21-29.46c0.89-5.88,1.85-11.77,1.99-17.74c0.85-2.72,1.67-5.45,2.55-8.17
		c1.08-3.36,2.2-6.7,3.29-10.05C107.09,268.41,107.21,268.03,107.61,267.83z"/>
	<path class="st30" d="M90.03,339.63c0.97,2.09,1.91,4.2,2.93,6.27c0.61,1.23,1.68,2.08,2.87,2.72c2.14,1.15,3.37,2.91,3.79,5.26
		c0.18,0.99,0.66,1.87,1,2.8c0.39,1.09,0.08,1.81-1.15,1.98c-1.94,0.27-3.67-0.15-5.12-1.52c-1.05-0.99-2.17-1.48-3.73-1.32
		c-2.31,0.23-3.92-1.28-5.34-2.88c-1.98-2.24-2.95-5.16-4.9-7.44c-1.47-1.72-3.02-3.17-5.32-3.69c-2.09-0.47-3.48-1.89-4.43-3.76
		c-1.16-2.3-0.12-5.44,2.39-7.1c0.78-0.52,1.47-1.08,2.07-1.78c0.58,0.71,1.13,1.44,1.74,2.12c0.58,0.65,1.4,1.17,0.7,2.25
		c-0.23,0.35-0.03,0.85,0.32,1.08c0.43,0.29,0.87,0.13,1.23-0.24c0.21-0.21,0.32-0.74,0.8-0.35c-0.32,0.29-0.44,0.69-0.43,1.09
		c0.01,0.59-0.12,1.31,0.67,1.5c0.83,0.2,1.18-0.37,1.37-1.06c0.07-0.24,0.08-0.49,0.11-0.74c0.95,0.26,0.26,0.92,0.31,1.38
		c0.07,0.78,0,1.64,0.91,1.92c1.05,0.32,1.26-0.59,1.57-1.28c0.14,0.44,0.27,0.89,0.41,1.33c0.21,0.62,0.54,1.12,1.26,1.18
		c0.86,0.06,1.17-0.49,1.3-1.22C88.34,338.48,88.95,339.47,90.03,339.63z"/>
	<path class="st30" d="M49.81,312.55c0.2,0.29,0.53,0.56,0.58,0.87c0.09,0.63,0.31,1.33-0.4,1.82c-0.8,0.56-0.97-0.45-1.48-0.59
		c-0.45,0.45-0.34,0.95-0.26,1.46c0.09,0.58,0.08,1.27-0.33,1.62c-2.13,1.79-1.99,4.39-2.36,6.73c-0.72,4.56-1.12,9.14-3.67,13.22
		c-0.86,1.39-0.84,3.26-2.16,4.52c-0.73,0.7-1.44,1.14-2.45,0.85c-0.95-0.27-1.4-1.04-1.6-1.9c-0.17-0.73-0.11-1.54-1.12-1.67
		c0.26-1.54-1.86-2.15-1.47-3.75c0.01-0.05,0.04-0.14,0.03-0.15c-1.35-0.68-0.96-2.27-1.68-3.21c-0.61-0.8-0.86-1.45-0.52-2.36
		c0.45-1.23,0.47-2.49,0.4-3.79c-0.12-2.19,1.3-3.82,2.53-5.29c1.88-2.24,2.48-4.77,2.65-7.51c0.1-1.59-0.03-3.21,0.21-4.77
		c0.37-2.43,1.65-4.38,3.75-5.74c-0.13,1.35-0.26,2.7-0.39,4.06c-0.18-0.08-0.35-0.2-0.54-0.24c-0.75-0.17-1.27,0.22-1.64,0.81
		c-0.19,0.31-0.24,0.67,0.13,0.94c0.67,0.48,1.11-0.06,1.62-0.34c0.13-0.07,0.28-0.09,0.42-0.14c0.29,1.14,0.28,2.05-1.21,2.35
		c-0.66,0.13-1.24,0.76-0.93,1.51c0.38,0.9,1.12,0.36,1.73,0.19c0.28-0.08,0.43-0.45,0.81-0.35c0.45,0.94-0.5,1.21-0.87,1.73
		c-0.55,0.78-0.82,1.63-0.5,2.53c0.33,0.94,1.17,0.59,1.85,0.6c0.18,0,0.35,0.14,0.53,0.21c0.01,0.56-0.03,1.12,0.04,1.67
		c0.1,0.72,0.36,1.42,1.13,1.69c0.83,0.29,1.34-0.25,1.81-0.81c0.94-1.12,1.02-2.39,0.7-3.74c0.3-0.22,0.67-0.19,1.01-0.27
		c1.63-0.41,2.52-1.51,2.39-2.87c0,0-0.02,0.02-0.02,0.02C48.96,312.8,49.4,312.46,49.81,312.55z"/>
	<path class="st30" d="M6.81,157.18c-1.43,0.68-2.84,1.4-4.29,2.03c-0.74,0.33-1.53,0.62-2.53,0.36c0.55-1.2,1.63-1.79,2.63-2.4
		c3.84-2.33,7.33-5.09,10.44-8.33c0.87-0.9,1.58-1.88,2.13-2.99c3.01,1.59,6.14,2.49,9.57,1.74c1.8,4.27,3.29,8.69,6.03,12.52
		c0.43,0.6,1.43,1.22,0.62,2.1c-0.84,0.92-1.83,0.39-2.65-0.14c-1.24-0.81-1.8-2.22-2.71-3.33c-2.93-3.51-5.75-3.3-8.45,0.41
		c-2.48,3.43-5.88,6.01-9.02,8.82c-0.75,0.67-1.66,1.19-2.53,1.73c-0.45,0.28-1.06,0.44-1.45,0.07c-0.52-0.5,0.09-0.97,0.37-1.3
		c1.64-1.9,3.36-3.75,5.01-5.64c0.7-0.79,1.42-1.59,1.98-3.01c-2.64,2.19-4.82,4.33-7.49,5.81c-0.49,0.27-0.97,0.68-1.49,0.76
		c-0.73,0.12-2.31,1.43-1.75-0.95c-1.81-1.46,0.22-2.05,0.78-2.7c1.6-1.86,3.67-3.29,5.03-5.39c0.07-0.14,0.31-0.27,0.02-0.41
		C7.03,156.93,6.9,157.1,6.81,157.18z"/>
	<path class="st32" d="M89.73,172.34c-1.73,1.43-2.35,3.7-3.95,5.23c-1.36,1.29-2.42,2.91-4.14,3.81c-0.38-0.56-0.78-0.41-1.19-0.04
		c-2.05-1.05-4.02-2.28-6.16-3.1c-3.49-1.35-7.12-2.34-10.62-3.65c-2.39-0.9-4.72-1.99-6.73-3.64c-0.22-0.18-0.58-0.17-0.87-0.25
		c0.02-0.64-0.39-0.99-0.83-1.37c-1.73-1.5-3.49-2.97-4.66-4.99c-0.32-0.54-0.85-0.7-1.45-0.64c0.15-1.66,0.5-3.2,1.96-4.3
		c0.77-0.58,1.51-1.04,2.5-0.92c3.05,4.02,7.19,6.61,11.53,9c4.43,2.44,9.16,4.38,13.15,7.58c0.36,0.29,0.76,0.54,1.08,0.86
		c1.31,1.3,1.36,1.33,1.88-0.37c1.16-3.77,3.47-6.81,6.03-9.7C88.66,167.79,89.67,169.88,89.73,172.34z"/>
	<path class="st30" d="M145.33,83.73c0.12-0.34,0.32-0.66,0.36-1.01c0.64-4.46,3.95-6.2,7.6-7.76c4.31-1.83,8.84-2.53,13.42-3.08
		c1.78-0.22,3.28,0.93,4.3,1.89c2.18,2.04,4.48,3.66,7.26,4.73c0.72,0.28,2.03,0.69,1.65,1.65c-0.34,0.86-1.51,0.24-2.34,0.13
		c-0.9-0.12-1.76-0.59-2.79-0.29c0.39,0.37,0.75,0.71,1.1,1.04c0.35,0.33,0.7,0.74,0.36,1.2c-0.29,0.39-0.76,0.4-1.26,0.21
		c-1.84-0.72-3.42-1.86-4.94-3.06c-1-0.79-1.92-1.25-3.21-0.74c-1.45,0.58-3.1,0.34-4.53,1.04c-1.89,0.93-2.09,2.88-0.51,4.3
		c1.34,1.21,3.17,1.73,4.3,3.2c0.24,0.31,0.76,0.54,0.55,1c-0.23,0.49-0.72,0.72-1.27,0.67c-0.35-0.03-0.75-0.03-1.05-0.18
		c-2.67-1.38-5.74-1.75-8.29-3.49c-2.16-1.48-2.45-1.28-3.44,1.22c-0.76,0-1.53,0.09-2.27-0.03
		C148.37,86.07,146.43,85.68,145.33,83.73z"/>
	<path class="st32" d="M85.62,129.34c-3.53,1.68-6.8,0.81-9.65-1.4c-1.85-1.42-3.81-1.89-5.98-2c-3.15-0.16-6.26,0.07-9.24,1.25
		c-0.42,0.17-0.89,0.23-1.34,0.33c-0.64-2.37-0.46-4.81-0.58-7.22c-0.03-0.56,0-1.11,0-1.67c4.43-2.13,8.57-4.62,11.45-8.78
		c0.28-0.41,0.51-0.93,1.15-0.89c-0.15,1.37-0.29,2.75-0.46,4.12c-0.1,0.81-0.02,1.52,0.69,2.06c2.56,1.96,5.05,4.05,7.83,5.69
		c1.78,1.05,3.5,2.33,5.65,2.63C86.64,125.31,86.08,127.33,85.62,129.34z"/>
	<path class="st31" d="M60.36,297.7c4.26-4.3,8.98-8.13,13.06-12.62c0.33-0.37,0.8-0.61,1.21-0.91c0.13,1.68-0.46,3.23-0.95,4.77
		c-1.44,4.51-3.04,8.97-5.08,13.24c-1.69,3.52-3.75,6.86-5.92,10.11c-2.94,4.41-6.1,8.66-9.34,12.85c-0.46,0.6-0.83,1.32-1.66,1.52
		l0.01,0.01c2.09-5.88,4.31-11.71,6.06-17.7c0.44-1.5,1.19-2.91,1.04-4.55c0,0-0.4-0.58-0.4-0.58c0.51-0.18,0.38-0.24,0.36-0.59
		l0.01-0.04c0.44-0.2,0.56-0.55,0.56-0.91l-0.3,0.28c-0.36,0.12,0.64-0.95,0.68-1.43c-0.08-0.06-0.37-0.42-0.31-0.5
		c0.3-0.13,0.11-0.26,0.15-0.54C59.5,299.25,60.46,298.6,60.36,297.7z"/>
	<path class="st30" d="M108.96,106.8c-1.12-6.79-1.73-13.6-0.93-20.48c0.06-0.56,0.13-1.13,0.73-1.41c4.65-0.42,7.43,2.38,9.67,5.85
		c1.43,2.22,2.53,4.66,3.78,7c-2.66,1.31-4.9,3.07-6.52,5.62c-1.06,1.68-1.75,3.53-2.69,5.27
		C111.72,107.89,110.85,106.22,108.96,106.8z"/>
	<path class="st31" d="M120.28,41.59c-1.07-1.08-1.09-2.72-2.01-3.86c-0.94-1.16-1.24-2.81-2.73-3.54
		c-0.41-0.93-0.54-1.85-0.21-2.88c0.16-0.49,0.16-1.22-0.1-1.63c-1.06-1.69-2.03-3.4-2.96-5.16c-0.66-1.25-1.41-2.06-0.46-3.36
		c1.67-0.99,2.93-2.54,4.68-3.42c0.37-0.19,0.69-0.44,1.06-0.63c1.96-1.03,3.29-0.39,3.11,1.8c-0.16,1.91,0.79,3.16,1.44,4.74
		c1.04,2.54,1.66,5.32,2.35,8.03c0.18,0.73-0.28,1.02-0.91,1.13c-0.2,0.04-0.4,0.08-0.61,0.11c-2.24,0.32-2.3,0.33-1.85,2.48
		C121.52,37.58,120.72,39.55,120.28,41.59z"/>
	<path class="st31" d="M24.76,147.59c-3.43,0.75-6.56-0.15-9.57-1.74c-0.58-1.57-1.14-3.13-0.64-4.85c0.2-0.68,0.24-1.42,0.75-1.96
		c0.47-0.49,0.58-0.99,0.38-1.66c-0.28-0.93,0.14-1.57,1.08-1.86c2.71,1.55,5.61,1.87,8.65,1.43c1.33,0.46,1.52,1.36,0.69,2.35
		c-0.57,0.68-0.36,1.03-0.08,1.77c0.77,2.04,0.09,4.01-0.85,5.87C25.07,147.17,24.9,147.38,24.76,147.59z"/>
	<path class="st28" d="M105.82,84.46c-1.31,3.41-3.78,5.58-7.08,7.05c-1.98,0.88-4.15,1.7-5,4.26c-0.84-1.03-1.41-1.94-2.18-2.64
		c-1.1-0.99-2.41-1.65-3.8-2.26c-3.29-1.44-6.13-3.53-8.15-6.59c-0.34-0.51-0.74-0.98-1.11-1.46c0.18-1.02,1.18-0.9,1.81-1.28
		c1.14,1.14,1.75,2.69,3.18,3.65c2.29,1.53,4.76,2.68,7.43,3.15c5.59,0.97,10.53,0.25,13.74-5.22c0.53,0.21,1.13,0.34,1.18,1.08
		C105.82,84.28,105.81,84.37,105.82,84.46z"/>
	<path class="st28" d="M113,108.64c0.94-1.73,1.62-3.59,2.69-5.27c1.62-2.55,3.86-4.32,6.52-5.62c1.09,0.13,2.13,0.3,2.4,1.64
		c0.07,0.35,0.44,0.37,0.71,0.5c1.99,0.91,2.24,1.53,1.46,3.53c-2.13,0.24-3.36,1.93-4.6,3.29c-1.73,1.91-2.97,4.26-3.74,6.78
		c-0.07,0.23,0,0.49,0.01,0.74c-1.33,0.57-2.04-0.25-2.52-1.26c-0.34-0.72-0.51-1.35-1.55-1.31c-0.86,0.03-1.03-0.82-1.24-1.53
		C112.98,109.62,113.44,109.1,113,108.64z M123.03,99.03c-3.45-0.09-8.46,5.86-7.92,9.27C116.83,104.41,119.78,101.61,123.03,99.03z
		"/>
	<path class="st31" d="M150.31,98.59c-3.27,0.07-6.26-1.01-9.21-2.27c-0.75-1.02-1.58-1.98-1.84-3.29
		c-0.45-2.31,0.67-4.24,2.86-4.85c2.17,1.8,4.56,2.99,7.48,3.05c0.95,0.02,1.95-0.17,2.89,0.22c0.9,1.76,0.62,3.53,0.08,5.32
		C152.22,97.92,151.28,98.26,150.31,98.59z"/>
	<path class="st32" d="M87.52,61.94c0.8-0.54,1.5-1.33,2.65-0.56c0.25,0.17,0.91-0.28,1.38-0.45c1.41,2.21,2.56,4.56,3.6,6.96
		c0.27,0.62,0.3,1.1-0.15,1.69c-1.45,1.91-3.33,3.32-5.26,4.68c-0.59,0.41-1.06,0.08-1.56-0.15c-1.43-1.91-3.33-3.44-4.53-5.56
		c-0.44-0.77-0.54-1.25,0.12-1.98C85.09,65.1,86.28,63.49,87.52,61.94z M89.6,63.17c-0.83,1.32-1.88,2.51-2.55,4.14
		c1.3,0.09,2.47,0.17,3.63,0.25c0.56,0.2,1.29,0.6,1.68,0.22c0.46-0.45-0.11-1.14-0.32-1.67c-0.43-1.08-0.97-2.11-1.49-3.15
		C89.99,61.84,89.82,62.66,89.6,63.17z"/>
	<path class="st31" d="M74.4,102.71c-0.74,0.78-0.74,1.8-0.85,2.77c-1.03,0.96-1.47,2.28-2.11,3.47c-0.64-0.04-0.87,0.48-1.15,0.89
		c-2.88,4.15-7.02,6.65-11.45,8.78c-0.11-1.15-0.36-2.32,0.58-3.28c1.97-0.11,3.36-1.43,4.84-2.44c6.16-4.23,8.93-10.51,10.3-17.57
		c0.83-4.26,0.84-8.48-0.61-12.63c0.55-0.22,1.08-0.04,1.62,0.05c0.1,1.71,1.09,3.2,1.17,4.92c0.18,4.03-0.27,7.98-1.58,11.82
		C74.79,100.52,74.64,101.63,74.4,102.71z"/>
	<path class="st32" d="M51.94,85.77c2.51,3.65,2.46,7.79,2.35,11.95c-0.02,0.76-0.08,1.53-0.12,2.29c-1.61,1.59-2.68,1.66-3.75,0.25
		c0.56-4.35,0.07-8.55-1.8-12.55c-0.2-0.43-0.22-1.04-0.9-1.09C48.45,84.82,49.61,84.58,51.94,85.77z"/>
	<path class="st31" d="M84.39,336.84c-0.31,0.69-0.52,1.61-1.57,1.29c-0.91-0.28-0.84-1.15-0.91-1.92
		c-0.04-0.46,0.64-1.12-0.31-1.38c-0.31-0.82-1.03-0.77-1.72-0.8c-0.49-0.39-0.59,0.14-0.8,0.35c-0.37,0.37-0.8,0.52-1.23,0.24
		c-0.36-0.23-0.55-0.73-0.32-1.08c0.71-1.08-0.12-1.6-0.7-2.25c-0.6-0.68-1.16-1.41-1.74-2.12c-0.18-1.52,0.88-2.23,1.93-2.95
		c2.09,4.71,5.77,7.22,10.83,7.8c0.69,0.12,0.58,0.74,0.74,1.19c-0.28,0.17-0.55,0.33-0.83,0.5c-0.38,0.2-0.68,0.18-1.11-0.04
		C85.39,335.04,84.75,335.42,84.39,336.84z"/>
	<path class="st32" d="M152.49,91.46c-0.93-0.39-1.94-0.2-2.89-0.22c-2.92-0.06-5.31-1.25-7.48-3.05c-0.4-3.18,0.51-4.44,3.21-4.46
		c1.1,1.95,3.04,2.35,4.99,2.65c0.74,0.12,1.52,0.03,2.27,0.03C154.16,88.12,154.15,88.88,152.49,91.46z M149.29,89.62
		c0.15-0.03,0.33-0.02,0.44-0.11c0.54-0.41,1.67,0.37,1.76-0.7c0.1-1.12-0.95-1.15-1.73-1.31c-1.75-0.36-3.45-0.82-4.95-1.85
		c-0.31-0.22-0.66-0.28-0.99,0.01c-0.36,0.33-0.13,0.6,0.03,0.94C144.46,87.9,147.56,89.65,149.29,89.62z"/>
	<path class="st32" d="M125.24,0.04c-5.04-0.35-9.01,1.9-12.61,5.16c-0.91,0.82-1.52,1.94-2.68,2.75c-0.31-1.64-0.16-3.26-1.3-4.64
		c-2.03,3.6-2.85,7.39-3.26,11.28c-0.1,0.97-0.39,2.04-0.09,2.89c0.25,0.72,0.15,0.81-0.41,0.88c-0.45,0.06-0.92,0.02-1.39,0
		c-3.35-0.1-6.69-0.12-10.02,0.28c-1.12,0.14-2.29,0.34-3.11,1.19c-1.68,1.75-3.23,3.6-3.75,6.08c5.07-2.89,10.57-3.99,16.36-3.96
		c1.54,0.01,2.42,0.31,2.36,2.05c-0.03,0.75,0.24,1.52,0.38,2.28c0.2,1.1-0.28,1.73-1.33,2.08c-1.71,0.57-2.28,1.78-2.06,3.56
		c0.24,1.94,1.47,2.93,3.05,3.7c1.28,0.35,2.43-0.15,3.6-0.55c0.33-0.39,0.53-0.9,1.06-1.07c0.16-1.67,0.11-3.23-0.78-4.56
		c0.89,1.33,0.93,2.89,0.78,4.56c1.83,0.07,3.66,0.13,5.49,0.2c-0.41-0.93-0.54-1.85-0.21-2.88c0.16-0.49,0.16-1.22-0.1-1.63
		c-1.06-1.69-2.03-3.4-2.96-5.16c-0.66-1.25-1.41-2.06-0.46-3.36c-0.78-0.72-2.01-0.98-2.3-2.21c1.37-2.09,2.63-4.25,4.33-6.11
		c2.91-2.73,5.96-5.17,10.26-5.09c1.63,0.27,2.83,1.01,3.09,2.8c0.37,4.29-1.89,8-2.84,12.23c1.65-1.47,2.49-3.2,3.52-4.77
		c1.54-2.35,2.82-4.86,3.4-7.67c0.39-0.52,0.41-1.16,0.49-1.76C132.54,3.1,130.51,0.4,125.24,0.04z M108.19,31.69
		c-0.16,0.91-0.36,1.99-1.7,1.94c-1.72-0.07-2.55-0.81-2.51-2.19c0.03-1.21,0.92-1.96,2.26-1.9
		C107.16,29.57,108.35,30.76,108.19,31.69z"/>
	<path class="st32" d="M104.75,74.73c2.67-1.95,4.55-4.61,6.4-7.28c0.57,1.52,0.65,3.11,0.8,4.7c0.1,1.16-0.37,2.01-1.45,2.47
		c-0.85,0.36-1.76,0.6-2.59,0.99C106.57,76.25,105.48,76.18,104.75,74.73z"/>
	<path class="st28" d="M105.82,84.46c-0.01-0.09,0-0.18,0.02-0.26c0.44-0.01,0.88-0.04,1.29,0.18c-0.38,3.1-0.88,6.19-0.73,9.34
		c0.12,2.62,0.31,5.23,0.64,7.83c0.1,0.83,0.56,1.83-0.54,2.43c-0.88-5.72-1.24-11.45-0.74-17.23
		C105.82,86.01,105.84,85.71,105.82,84.46z"/>
	<path class="st28" d="M87.76,335.7c0.28-0.17,0.55-0.33,0.83-0.5c1.39,0.22,2.14,1.08,2.43,2.42c0.21,0.96-0.19,1.57-0.99,2.01
		c-1.08-0.16-1.69-1.15-2.67-1.5C86.81,337.21,87.69,336.52,87.76,335.7z"/>
	<path class="st31" d="M100.19,142.58c-0.03,0.76-0.21,1.54-1.3,1.56c-0.89,0.02-1.06-0.58-1.08-1.32c-0.03-0.9,0.16-1.7,1.2-1.78
		C99.94,140.97,100.15,141.68,100.19,142.58z"/>
	<path class="st32" d="M85.5,77.86c0.04,0.15,0.08,0.29,0.11,0.44c0.35,2.13-0.29,2.58-2.59,1.84C82.65,77.93,83.23,77.4,85.5,77.86
		z"/>
	<path class="st32" d="M49.81,312.55c-0.41-0.09-0.85,0.25-1.23-0.1c0.36-0.65,0.84-1.17,1.5-1.52
		C50.1,311.49,49.56,311.96,49.81,312.55z"/>
	<path class="st32" d="M102.84,78.52c0.02-0.3,0.05-0.59,0.07-0.88C102.89,77.94,102.86,78.23,102.84,78.52z"/>
	<path class="st31" d="M51.68,326.66c-0.03,0.13-0.06,0.25-0.09,0.38c-0.25-0.2-0.03-0.28,0.1-0.37
		C51.69,326.67,51.68,326.66,51.68,326.66z"/>
	<path class="st31" d="M25.45,136.49c-0.07-0.08-0.07-0.15-0.01-0.23c0.03,0.05,0.07,0.11,0.09,0.16
		C25.53,136.44,25.48,136.47,25.45,136.49z"/>
	<path class="st33" d="M45.65,167.13c-0.05,0.08-0.1,0.17-0.15,0.25C45.5,167.27,45.55,167.19,45.65,167.13z"/>
	<polygon class="st31" points="50.13,323.88 50.06,323.95 50.15,323.89 	"/>
	<path class="st32" d="M70,261.13c-0.89-5.58-2.22-11.08-3.11-16.66c-1.11-6.94-2.3-13.88-3.18-20.86
		c-1.11-8.85-1.57-17.73-1.16-26.63c0.21-4.51,0.44-9.03,1.03-13.53c0.12-0.96,0.08-1.95,0.1-2.92c0.01-0.43,0.07-0.89,0.51-1.02
		c0.55-0.17,0.6,0.34,0.79,0.71c1.03,1.97,2.51,3.61,4.06,5.19c0.37,0.38,0.81,0.65,0.66,1.27c-0.2,1.69,0.11,3.38,0.11,5.06
		c0.02,7.52,0.74,14.95,1.81,22.39c0.57,3.97,1.43,7.85,2.28,11.75c0.72,3.26,2.1,6.32,3.11,9.49c0.75,2.38,1.14,4.88,2.35,7.11
		c-0.33,3.63-0.65,7.27-0.98,10.9c-0.34,1.23-1.51,1.64-2.39,2.28C73.81,257.29,71.91,259.21,70,261.13z"/>
	<path class="st28" d="M79.37,242.48c-1.21-2.23-1.6-4.73-2.35-7.11c-1.01-3.17-2.39-6.23-3.11-9.49c-0.85-3.9-1.71-7.78-2.28-11.75
		c-1.07-7.44-1.79-14.87-1.81-22.39c0-1.68-0.31-3.36-0.11-5.06c3.35,2.59,7.24,4.4,10.4,7.26c0.99,9.21,1.41,18.44,0.93,27.69
		c-0.26,4.92-0.71,9.84-1.06,14.76c-0.04,0.51-0.04,1.02-0.06,1.54C79.73,239.44,79.55,240.96,79.37,242.48z"/>
	<g>
		<path class="st31" d="M109.23,115.19c0.02-2.78-0.74-5.57-0.27-8.39c-1.12-6.79-1.73-13.6-0.93-20.48
			c0.06-0.56,0.13-1.13,0.73-1.41c-0.51-0.27-1.03-0.52-1.63-0.53c-0.38,3.1-0.88,6.18-0.73,9.34c0.12,2.62,0.31,5.23,0.64,7.83
			c0.1,0.83,0.56,1.83-0.54,2.43c-0.41,1.28-0.6,2.57-0.14,3.89c0.11,0.33,0.19,0.63-0.4,0.73c-2.96,0.53-3.23,0.94-2.86,3.9
			c-0.12,0.26-0.36,0.09-0.54,0.14c-0.12-0.05-0.25-0.1-0.37-0.15c-0.71,1.2-1.79,1.93-3.07,2.41c0.04,0.33,0.08,0.67,0.12,1
			c-0.01,0.07-0.05,0.12-0.13,0.12c-2.62-0.79-4,0.37-3.59,3.04c-1.19-0.26-2.38-0.6-3.53,0.13c-2.94-1.08-5.56-2.73-7.9-4.78
			c-1.71-1.49-3.54-2.88-4.85-4.79c-0.13-0.2-0.17-0.33-0.03-0.51c-1.97-0.71-2.47-2.62-3.4-4.17c-0.24-0.07-0.23-0.28-0.27-0.47
			c-0.27-0.36-0.55-0.73-0.82-1.09c-0.1-0.23-0.2-0.45-0.3-0.68c-0.74,0.78-0.74,1.8-0.85,2.77c2.86,4.25,6.27,7.95,10.64,10.7
			c0.25,0.16,0.59,0.4,0.62,0.64c0.28,2.2,1.04,4.38,0.33,6.63c1.5,1.85,0.93,3.87,0.48,5.88c0.93,0.56,0.65,1.55,0.69,2.33
			c0.1,2.36,0.11,4.74,0.05,7.1c-0.03,1.24,0.56,1.87,1.68,2.33c0.48-2.98,0.29-5.92,0.49-9.04c0.61,0.67,1.3,0.82,1.52,1.46
			c0.11,0.32-0.02,0.91-0.03,1.25c-0.01,0.43-0.01,0.85-0.02,1.28c-0.03,0.97-0.05,1.95-0.08,2.92c-0.05,1.99-0.1,3.97-0.16,5.96
			c-0.01,0.5-0.02,1.03,0.24,1.46c0.39,0.63,1.51,0.69,1.52-0.21c0.07-3.75,0.13-7.49,0.2-11.24c0.31,0.5,0.53,1.22,1.15,0.18
			c0.4-0.67,0.91-0.89,1.64-1c-0.2,1.09-0.08,2.21-0.04,3.32c0.11,3.11-0.33,6.15,0.31,9.22c0.59,0.01,1.1-0.49,1.3-1.05
			s0.16-1.17,0.12-1.76c-0.2-3.42-0.16-6.85-0.16-10.28c0-0.36,0.01-0.75,0.21-1.05c0.28-0.41,0.86-0.54,1.11-0.98
			c-0.12,0.22-0.03,0.81-0.04,1.06c-0.05,1.15-0.09,2.3-0.17,3.45c-0.03,0.48-0.05,0.98-0.11,1.45c-0.05,0.4-0.23,0.78-0.17,1.19
			c0.05,0.43,0.23,0.86,0.38,1.27c0.37,1.02,1.6-0.79,1.78-1.2c0.19-0.43,0.26-0.91,0.32-1.38c0.27-2.13,0.35-4.29,0.34-6.44
			c0-0.58,0.01-1.75,0.87-1.19c0.67-0.01,1.33-0.03,2-0.04c3.44-0.03,5.47-1.66,6.71-4.85C110.55,121.6,109.21,118.41,109.23,115.19
			z M96.04,129.73c-3.44,3.05-3.81,3.03-7.2-0.67c-0.99-1.36-0.9-2.84-0.45-4.35c-0.94-1.71-0.3-3.62-0.67-5.42
			c-0.13-0.63,0.43-0.55,0.82-0.33c0.9,0.48,1.79,0.97,2.68,1.48c0.73,0.42,0.43,1.06,0.3,1.64c-0.24,1.08-0.85,2.11-0.4,3.27
			c0.25,0.25,0.49,0.51,0.74,0.75c1.87,1.78,1.87,1.78,3.86,0.5c0.29,0.85,1.46,0.87,1.68,1.79c-0.18,0.21-0.36,0.42-0.54,0.63
			C96.59,129.27,96.31,129.49,96.04,129.73z"/>
		<polygon class="st31" points="79.2,109.11 79.2,109.12 79.21,109.13 		"/>
		<path class="st31" d="M89.41,149.79c0.05,0.55,0.29,0.95,0.68,1.3c1.8-0.13,2.17-0.82,1.55-2.89
			C90.05,147.51,89.26,148.08,89.41,149.79z"/>
		<path class="st31" d="M95.89,147.39c-0.96-0.05-1.26,0.73-1.29,1.58c-0.03,0.9,0.23,1.78,1.21,1.84c1,0.07,1.35-0.76,1.39-1.67
			C97.26,148.19,96.87,147.44,95.89,147.39z"/>
		<path class="st31" d="M86.71,141.44c-0.99,0.02-1.36,0.75-1.35,1.68c0.01,0.95,0.45,1.66,1.41,1.6c0.9-0.05,1.2-0.82,1.14-2
			C87.87,142.24,87.71,141.42,86.71,141.44z"/>
	</g>
	<path class="st32" d="M80.44,181.33c0.41-0.37,0.82-0.52,1.19,0.04c0.04,1.55,0.97,2.68,1.95,3.71c0.61,0.64,0.6,1.09,0.1,1.68
		c-1.18,1.42-1.78,3.09-2.13,4.86c-1.05-1.52-1.52-3.43-2.92-4.77c-0.65-0.61,0.04-0.87,0.34-1.21
		C80.06,184.41,80.74,183.04,80.44,181.33z"/>
	<path class="st28" d="M120.28,41.59c-1.07-1.08-1.09-2.72-2.01-3.86c-0.94-1.16-1.24-2.81-2.73-3.54c-1.83-0.07-3.66-0.13-5.49-0.2
		c-0.54,0.18-0.74,0.69-1.06,1.07c-1.17,0.4-2.32,0.89-3.6,0.55c-0.55,1.67-1.62,3.05-2.52,4.53c-0.66,1.1-1.51,1.65-2.78,1.41
		c-1.02-0.19-1.86,0.2-2.52,0.84c-2.04,2-4.26,3.82-5.94,6.17C89.87,51,88.38,53.54,88,56.58c-0.06,0.5-0.22,1.08,0.28,1.43
		c0.47,0.33,0.67-0.28,1.01-0.41c0.52-0.19,1.09-0.23,1.64-0.33c0.21-0.44,0.43-0.88,0.64-1.32c0.81-0.42,1.18-1.23,1.68-1.92
		c4.21-5.85,9.56-9.5,17.12-8.91c0.81,0.06,1.63,0.15,2.44,0.23c-1.47-1.71-2.95-3.43-4.42-5.15c-0.26-1.55-0.02-3.03,0.4-4.5
		c-0.42,1.47-0.66,2.95-0.4,4.5c1.47,1.72,2.95,3.43,4.42,5.15c0.65,0.35,1.15,0.84,1.54,1.47c1.65,2.67,1.62,5.48,0.42,8.25
		c-0.67,1.56-0.79,3.05-0.45,4.65c3.11-2.74,5.58-5.92,6.24-10.13C120.99,46.94,120.73,44.25,120.28,41.59z"/>
	<path class="st32" d="M86.93,83.51c-0.85-0.28-1.6-0.71-1.52-1.79c0.07-0.95,0.68-1.54,1.61-1.51c0.97,0.03,1.74,0.63,1.68,1.64
		C88.66,82.77,88,83.41,86.93,83.51z"/>
	<path class="st32" d="M89.38,83.57c0.14-0.98,0.7-1.64,1.71-1.58c0.98,0.06,1.65,0.73,1.62,1.73c-0.04,0.98-0.66,1.64-1.72,1.59
		C89.96,85.25,89.46,84.61,89.38,83.57z"/>
	<path class="st32" d="M95.04,85.65c-1-0.15-1.81-0.56-1.73-1.72c0.07-0.99,0.67-1.55,1.72-1.56c1.31-0.01,1.42,1.01,1.48,1.89
		C96.57,85.14,95.97,85.64,95.04,85.65z"/>
	<path class="st28" d="M91.98,119.21c-2.94-1.08-5.56-2.73-7.9-4.78c-1.71-1.49-3.54-2.88-4.85-4.79c-0.14-0.2-0.18-0.34-0.03-0.52
		c0.52,0.3,0.98-0.13,1.48-0.12c1.59,0.01,2.6,1.06,2.86,3.02c0.05,0.39-0.24,0.94,0.6,0.92c2.74-0.05,3.21,0.41,3.5,3.29
		c1.05-0.36,2.12-0.77,3.11,0.11C91.62,117.1,91.95,118.09,91.98,119.21z"/>
	<path class="st28" d="M79.21,109.13c-1.98-0.71-2.48-2.62-3.41-4.18C78.4,104.42,80.43,106.5,79.21,109.13z"/>
	<path class="st31" d="M102.18,112.51c-0.71,1.2-1.79,1.93-3.07,2.41C99.63,112.88,100.29,112.36,102.18,112.51z"/>
	<path class="st32" d="M76.39,83.04c-0.23-0.25-0.5-0.36-0.83-0.29c0.1,1.71,1.09,3.2,1.17,4.92c0.18,4.03-0.27,7.98-1.58,11.82
		c-0.35,1.04-0.5,2.15-0.75,3.23c0.1,0.23,0.2,0.45,0.3,0.68c0.27,0.36,0.55,0.73,0.82,1.09c0.87-1.15,0.74-2.42,0.44-3.71
		c0.3-1.61,0.61-3.22,0.91-4.83C77.69,91.61,77.96,87.29,76.39,83.04z"/>
	<path class="st30" d="M103.09,112.51c-0.12,0.26-0.36,0.09-0.54,0.14C102.73,112.61,102.91,112.56,103.09,112.51z"/>
	<path class="st30" d="M99.23,115.92c-0.01,0.07-0.05,0.12-0.13,0.12C99.15,116,99.19,115.96,99.23,115.92z"/>
	<path class="st28" d="M87.76,335.7c-0.07,0.82-0.95,1.51-0.39,2.43c-0.14,0.73-0.45,1.28-1.31,1.22c-0.72-0.05-1.06-0.56-1.26-1.18
		c-0.15-0.44-0.28-0.88-0.41-1.33c0.36-1.42,1-1.8,2.26-1.18C87.08,335.88,87.38,335.9,87.76,335.7z"/>
	<path class="st28" d="M79.89,334.02c0.68,0.02,1.4-0.02,1.72,0.8c-0.04,0.25-0.04,0.5-0.11,0.74c-0.19,0.68-0.54,1.26-1.37,1.06
		c-0.79-0.19-0.66-0.92-0.67-1.5C79.45,334.71,79.56,334.31,79.89,334.02z"/>
	<path class="st31" d="M103.97,31.44c0.03-1.21,0.92-1.96,2.26-1.9c0.92,0.04,2.11,1.23,1.95,2.16c-0.16,0.91-0.36,1.99-1.7,1.94
		C104.76,33.56,103.94,32.82,103.97,31.44z"/>
	<path class="st32" d="M97.4,128.41c-0.18,0.21-0.36,0.42-0.54,0.63c-0.46-0.62-1.16-0.55-1.81-0.64c-2.13-0.3-4.18,0.15-6.22,0.67
		c-0.99-1.36-0.9-2.84-0.45-4.35c0.97-0.04,1.6,1.34,2.73,0.64c0.25,0.25,0.49,0.51,0.74,0.75c1.87,1.78,1.87,1.78,3.86,0.5
		C96.01,127.47,97.18,127.49,97.4,128.41z"/>
	<path class="st28" d="M71.44,108.96c0.64-1.19,1.08-2.51,2.11-3.47c2.86,4.25,6.27,7.95,10.64,10.7c0.25,0.16,0.59,0.4,0.62,0.64
		c0.28,2.2,1.04,4.38,0.33,6.63c-2.15-0.3-3.87-1.58-5.65-2.63c-2.78-1.64-5.27-3.72-7.83-5.69c-0.71-0.54-0.8-1.25-0.69-2.06
		C71.15,111.71,71.29,110.33,71.44,108.96z"/>
	<path class="st28" d="M91.12,125.36c-1.12,0.69-1.76-0.68-2.73-0.64c-0.94-1.71-0.3-3.62-0.67-5.42c-0.13-0.63,0.43-0.55,0.82-0.33
		c0.9,0.48,1.79,0.97,2.68,1.48c0.73,0.42,0.43,1.06,0.3,1.64C91.28,123.17,90.68,124.2,91.12,125.36z"/>
	<g>
		<path class="st30" d="M92.89,135.12c-0.62,1.04-0.84,0.32-1.15-0.18c-0.06,3.5-0.11,7-0.21,10.49c-0.01,0.52,0.35,1.44-0.57,1.44
			c-0.85,0-1.24-0.64-1.21-1.61c0.15-3.91,0.21-7.83,0.3-11.74c-0.23-0.65-0.91-0.79-1.52-1.46c-0.2,3.13,0,6.06-0.49,9.04
			c-1.12-0.47-1.71-1.1-1.68-2.33c0.06-2.37,0.05-4.74-0.05-7.1c-0.03-0.79,0.24-1.77-0.69-2.33c-3.53,1.68-6.8,0.81-9.65-1.4
			c-1.85-1.42-3.81-1.89-5.98-2c-3.15-0.16-6.26,0.07-9.24,1.25c-0.42,0.17-0.89,0.23-1.34,0.33c0.08,5.18,0.47,10.36,0.21,15.54
			c-0.18,3.63-0.43,7.25-2.33,10.53c-1.04,1.79-2.44,3.28-3.71,4.88c3.05,4.02,7.19,6.61,11.53,9c4.43,2.44,9.16,4.38,13.15,7.58
			c0.36,0.29,0.76,0.54,1.08,0.86c1.31,1.3,1.36,1.33,1.88-0.37c1.16-3.77,3.47-6.81,6.03-9.7c-0.94-5.28,0.59-10.08,2.83-14.75
			c-0.39-0.35-0.63-0.75-0.68-1.3c-0.15-1.7,0.64-2.28,2.23-1.59c1.01-1.42,1.56-3.12,2.71-4.45c0.36-3.2-0.08-6.4,0.18-9.63
			C93.63,134.14,93.18,134.63,92.89,135.12z M86.77,144.72c-0.96,0.06-1.4-0.65-1.41-1.6c-0.01-0.93,0.36-1.66,1.35-1.68
			c1-0.02,1.16,0.8,1.2,1.28C87.97,143.9,87.67,144.66,86.77,144.72z"/>
		<path class="st30" d="M96.06,132.97c0.02,2.22-0.48,4.49,0.37,6.67c0.15-0.26,0.3-0.51,0.44-0.77c0.34-2.43,0.42-4.88,0.49-7.33
			C96.91,132.01,96.05,132.49,96.06,132.97z"/>
		<path class="st30" d="M99.7,130.39c0.07,0.75-0.22,1.54,0.17,2.26c0.23-0.96,0.47-1.93,0.7-2.89
			C99.74,129.22,99.67,130.13,99.7,130.39z"/>
		<path class="st30" d="M96.04,129.73c0.27-0.24,0.55-0.46,0.83-0.7c-0.46-0.62-1.16-0.55-1.81-0.64c-2.13-0.3-4.18,0.15-6.22,0.67
			C92.22,132.76,92.6,132.78,96.04,129.73z"/>
	</g>
	<path class="st30" d="M123.03,99.03c-3.25,2.57-6.21,5.38-7.92,9.27C114.58,104.89,119.58,98.95,123.03,99.03z"/>
	<path class="st30" d="M90.69,67.56c0.53-1.68-0.75-2.92-1.09-4.39c0.22-0.52,0.39-1.33,0.95-0.21c0.52,1.04,1.07,2.07,1.49,3.15
		c0.21,0.53,0.78,1.22,0.32,1.67C91.98,68.16,91.25,67.76,90.69,67.56z"/>
	<path class="st30" d="M149.29,89.57c-1.1-0.04-2.16-0.41-3.17-0.97c-0.82-0.46-1.85-1.1-2.26-1.99c-0.16-0.34-0.39-0.61-0.03-0.94
		c0.32-0.29,0.67-0.23,0.99-0.01c1.5,1.03,3.2,1.49,4.95,1.85c0.78,0.16,1.83,0.2,1.73,1.31c-0.03,0.37-0.37,0.51-0.69,0.59
		C150.29,89.54,149.79,89.59,149.29,89.57z"/>
	<path class="st31" d="M103.35,82.25c-0.04,0.04-0.07,0.08-0.09,0.13c0.07,0.2,0.1,0.36,0.08,0.48c0.02-0.12-0.01-0.28-0.08-0.48
		c-0.29,0.11-0.58,0.24-0.54,0.63c0.01,0,0.02,0,0.03,0.01c-0.14,1.2-1.34,2.35-2.92,3c-5.02,2.05-9.85,1.46-14.42-1.19
		c-1.51-0.87-3.31-1.82-3.36-4.04c-0.8-0.26-1.32,0.13-1.74,0.75c1.14,1.14,1.75,2.69,3.18,3.65c2.29,1.53,4.76,2.68,7.43,3.15
		c5.59,0.97,10.53,0.25,13.74-5.22C104.59,82.27,103.94,82.31,103.35,82.25z"/>
	<g>
		<polygon class="st32" points="59.09,303.46 59.08,303.47 59.08,303.47 		"/>
		<path class="st32" d="M60.47,297.59c-1.76,1.47-3.44,3.26-5.08,4.88c-1.2,1.19-2.42,2.35-3.13,3.92
			c0.19,4.51-0.54,8.94-1.29,13.36c-0.45,1.34-0.76,2.7-0.82,4.11c0.61-0.94,1.05-1.96,1.44-3.01c1.61-3.19,3.14-6.41,4.49-9.72
			c0.63-1.55,1.1-3.16,1.73-4.71c0.25-0.63,0.58-1.21,0.87-1.82c0.3-0.61,0.54-1.24,0.73-1.89c0.24-0.81,0.38-1.63,0.57-2.45
			c0.09-0.41,0.2-0.82,0.32-1.23c0.12-0.38,0.11-0.66,0.14-1.14C60.46,297.83,60.49,297.64,60.47,297.59z"/>
		<polygon class="st32" points="59.39,302.53 59.38,302.54 59.39,302.55 		"/>
		<path class="st32" d="M50.15,323.89c0-0.01,0-0.02,0-0.03c0,0.01-0.01,0.02-0.01,0.02L50.15,323.89z"/>
	</g>
	<path class="st32" d="M50.34,313.08c-0.41-0.86-0.46-1.2-0.16-2.36c0,0-2.11,2.18-3.91,2.51c-1.72,0.16-3-0.86-3.8-3.07
		c-0.3-0.83-0.41-1.69-0.46-2.56c-0.1-2.11,0.11-4.18,0.55-6.24c-0.85,0.31-1.5,0.88-2.09,1.54c-0.13,1.35-0.26,2.7-0.39,4.06l0,0
		c-0.18-0.08-0.35-0.2-0.54-0.24c-0.75-0.17-1.27,0.22-1.64,0.81c-0.19,0.31-0.24,0.67,0.13,0.94c0.67,0.48,1.11-0.06,1.62-0.34
		c0.13-0.07,0.28-0.09,0.42-0.14c0.29,1.14,0.28,2.05-1.21,2.35c-0.66,0.13-1.24,0.76-0.93,1.51c0.38,0.9,1.12,0.36,1.73,0.19
		c0.28-0.08,0.43-0.45,0.81-0.35c0.45,0.94-0.5,1.21-0.87,1.73c-0.55,0.78-0.82,1.63-0.5,2.53c0.33,0.94,1.17,0.59,1.85,0.6
		c0.17,0,0.34,0.13,0.51,0.2c0,0.01,0.01,0.02,0.01,0.03l0,0l0.01-0.01l0.01-0.01c0.01,0.56-0.03,1.12,0.04,1.67
		c0.1,0.72,0.36,1.42,1.13,1.69c0.83,0.29,1.34-0.25,1.81-0.81c0.94-1.12,1.02-2.39,0.7-3.75c0.3-0.22,0.67-0.19,1.01-0.27
		c0.24-0.06,0.46-0.14,0.67-0.22l0,0c0,0,1.02-0.43,1.49-0.68c0,0,0.24,1.06,1.31,1.01C50.73,315.35,50.74,313.93,50.34,313.08z"/>
	<path class="st32" d="M102.75,83.02c-0.45-0.05-0.96,0.01-1.35-0.18c-0.76-0.36-1.09-0.25-1.23,0.62c-0.2,1.22-1.03,1.66-2.14,1.24
		c-0.91-0.34-1.18-1.2-0.78-2.04c0.48-1.01,1.37-1.13,2.34-0.61c0.22,0.12,0.42,0.26,0.81,0.52c0.05-1.64,0.54-2.8,2.36-2.53
		c0.57,0.64,0.71,1.38,0.6,2.2c-0.04,0.04-0.07,0.08-0.09,0.13c-0.14,0.25-0.18,0.39-0.54,0.63L102.75,83.02z"/>
</g>
</svg>
