<?xml version="1.0" encoding="utf-8"?>
<!-- Generator: Adobe Illustrator 23.0.1, SVG Export Plug-In . SVG Version: 6.00 Build 0)  -->
<svg version="1.1" id="Layer_1" xmlns="http://www.w3.org/2000/svg" xmlns:xlink="http://www.w3.org/1999/xlink" x="0px" y="0px"
	 viewBox="0 0 180 188.89" style="enable-background:new 0 0 180 188.89;" xml:space="preserve">
<style type="text/css">
	.st0{fill:#F3C0A6;}
	.st1{fill:#161719;}
	.st2{fill:#BE9D9E;}
	.st3{fill:#B68490;}
	.st4{fill:#E0D4CD;}
	.st5{fill:none;stroke:#C8AAA0;stroke-width:0.25;stroke-miterlimit:10;}
	.st6{fill:#3B0400;}
	.st7{fill:#6893A1;}
	.st8{fill:#2F5561;}
	.st9{fill:#F1AC95;}
	.st10{fill:#E6E7E8;}
	.st11{fill:#F26522;}
	.st12{fill:#E8C7AD;}
	.st13{fill:#CE7B29;}
	.st14{fill:#00B26D;}
	.st15{fill:#100D0A;}
	.st16{fill:#EBEBEC;}
	.st17{fill:#7A5441;}
	.st18{fill:#EFEFF0;}
	.st19{fill:#E2E3E4;}
	.st20{fill:#9E6B50;}
	.st21{fill:#ED1E27;}
	.st22{fill:#2C2C2C;}
	.st23{fill:#3E3E3E;}
	.st24{fill:#E19491;}
	.st25{fill:#DF8189;}
	.st26{fill:#945222;}
	.st27{fill:#DF9F8B;}
	.st28{fill:#D4437B;}
	.st29{fill:#E0E1E2;}
	.st30{fill:#72493B;}
	.st31{fill:#7787C1;}
	.st32{fill:#E27627;}
	.st33{fill:#569F51;}
	.st34{fill:#F3B790;}
	.st35{fill:#F1AD96;}
	.st36{fill:#6F4F4D;}
	.st37{fill:#010101;}
	.st38{fill:#D4457C;}
	.st39{fill:#F0C3AA;}
	.st40{fill:#911E25;}
	.st41{fill:#D32628;}
</style>
<g>
	<path class="st34" d="M12.6,79.23c-0.02,0.61-0.53,1.15-1.07,1.49c-1.26,0.82-2.9,1.18-3.75,2.43c-0.37,0.55-0.54,1.22-0.93,1.77
		c-0.38,0.55-1.13,0.95-1.71,0.63c-0.33-0.18-0.57-0.58-0.95-0.59c-0.48-0.01-0.71,0.57-0.81,1.05c-1.82-0.7-3.17-2.48-3.36-4.42
		c-0.32-3.39,2.89-6.08,5.89-6.91c1.27-0.35,2.72-0.29,3.81,0.45c0.61,0.41,1.07,1.01,1.5,1.61c0.35,0.49,0.69,1,1.02,1.51
		c0.15,0.24,0.3,0.49,0.35,0.77C12.59,79.08,12.6,79.15,12.6,79.23z"/>
	<path class="st34" d="M111.75,68.79c-0.44,0.33-0.87,0.66-1.31,0.98c-3.93,0.58-7.2,3-11,3.94c-0.1-0.07-0.21-0.08-0.32-0.03
		c-0.83-0.53-0.96-1.05-0.11-1.74c0.61-0.5,2-0.57,1.61-1.68c-0.4-1.15-1.68-0.47-2.56-0.62c-0.56-0.09-1.15,0.05-1.72,0
		c-2.08-0.18-3.2-2.56-2.42-4.49c1.29-3.17,4.96-2.65,7.02-4.87c2.26-2.43,5.55-0.72,8.4-0.47c0.08,0.91,0.72,1.21,1.48,1.52
		c0.82,0.34,1.7,1.08,1.43,1.93C111.67,65.09,112.86,67.04,111.75,68.79z"/>
	<path class="st35" d="M60.36,20.53c-0.01,0.48-0.02,0.96-0.03,1.44c-3,1.66-6.62,2.66-7.02,6.98c-0.09,0.95-0.61,1.21-1.12,0.13
		c-0.12-0.25-0.29-0.64-0.58-0.38c-2.55,2.32-1.29-0.65-1.72-1.24c-0.15-0.21-0.21-0.5-0.3-0.75c-1.27-0.25-1.54,1.46-2.73,1.29
		c-0.61-0.76,0.52-1.39,0.18-2.12c0.88-0.41,0.99-1.34,1.4-2.07C50.85,19.52,56.64,17.93,60.36,20.53z"/>
	<path class="st35" d="M174.76,31.57c-0.46,0.02-0.9,0.21-1.34,0.35c-6,1.89-12.03,3.57-18.43,3.3c-2.69-0.12-5.39-0.08-8.07,0.03
		c-1.37,0.05-2.9-0.24-3.99,1.02c-6.25,0.7-12.41-1.2-18.66-0.61c-0.36,0.03-0.82-0.04-1.11-0.24c-4.39-2.99-9.19-3.63-14.35-2.82
		c-1.43,0.22-2.99-0.18-3.83-1.54c-0.83-1.35,0.37-2.29,1.02-3.32c0.25-0.39,0.36-0.86,0.53-1.3c2.99-5.36,1.95-11.1,1.62-16.78
		c-0.3,0-0.59-0.01-0.89-0.01c-1.18-3.33-3.43-1.28-5.31-1.06c-0.35,0.44-0.71,0.6-1.06,0.49c0.35,0.11,0.71-0.05,1.06-0.49
		c-0.57,0-1.13,0-1.7,0c-0.37-0.04-0.75-0.08-1.12-0.12l0,0c-3.27-0.83-4.54,0.48-4.54,4.7c-0.03,0.39-0.06,0.79-0.09,1.18
		c0.04,0.03,0.08,0.07,0.11,0.1c-0.04-0.04-0.07-0.07-0.11-0.11c-0.96,0.89-0.77,1.54,0.43,1.96l0.02,0.1
		c-0.18,0.26-0.36,0.52-0.54,0.78l-0.02-0.03l0,0l0,0l0,0l0,0c-0.71,0.01-1.41,0.02-2.12,0.04c-1.04,2.52,0.24,5.48,2.78,6.38
		c0.02,0.58,0.04,1.16,0.06,1.74c-0.06,1.53-0.11,3.06-0.17,4.6c-0.1,2.29-1.64,3.24-3.47,2.55c-4.2-1.59-7.85-0.15-11.55,1.45
		c0.77,1.35,2.06,1.73,3.48,1.88l0.01-0.01c0.03,0.73,0.52,1.08,1.12,1.33c0.35,1.13,1.52,1.94,1.26,3.3
		c-3.06,3.56,0.98,1.39,1.07,2.25c0.1,1.04-1.91,3.74-1.42,4.76c1.39,2.89,5.28,4.6,7.63,2.4c3.36-3.15,5.9-6.03,8.6-9.83
		c0.46-0.64-0.36-1.6,0.89-1.47c-0.36,1.6-0.51-0.08-0.89,1.47c-1.12,4.65,1.15,9.11,3.72,13.1c0.48,0.75-1.28,2.73-0.4,2.88
		c2.15,0.35,4.69,0.6,4.52,2.38c1.17-1.17-0.12-3.05,1.2-4.18c0.63-4.81,2.6-8.68,7.45-10.49c4.8-0.11,9.62,0.35,14.4-0.5
		c1.78,0.13,3.43-0.75,5.32-0.29c3.82,0.92,7.69,0.74,11.49-0.35c4.32-0.86,8.63-1.78,12.96-2.53c1.23-0.22,2.91-0.91,3.69,0.58
		c0.91,1.73,2.62,3.2,1.92,5.88c1.59-1.03,2.21-1.96,1.73-3.35c-0.28-0.79-0.35-1.48,0.44-2.01c2.71-0.55,5.44-1.05,8.13-1.66
		c0.74-0.17,2.05-0.18,1.7-1.39c-0.29-1.03-1.24-0.27-1.95-0.21c-1.25,0.1-2.48,1.01-3.77,0.14c0,0-2.33-2.81-1.21-4.26
		c1.12-1.45,3.56-1.39,3.56-1.39S177.18,31.46,174.76,31.57z M94.7,14.54c0.25,0.29,0.3,0.61,0.29,0.96
		C95,15.16,94.95,14.83,94.7,14.54z"/>
	<path class="st36" d="M94.39,17.17c0.18-0.26,0.36-0.52,0.54-0.78C94.75,16.65,94.57,16.91,94.39,17.17z"/>
	<path class="st34" d="M81.6,18.7c-1.1-3.93,0.78-8.08-1.06-11.9c-1.35,0.13-2.37-0.68-3.5-1.18c-1.88-0.85-3.26-0.6-3.38,1.76
		c-0.06,1.2-0.53,1.88-1.5,2.55c-1.42,0.97-2.82,2.09-2.6,4.17c0.06,0.58-0.08,1.24-0.85,1.23c-0.77-0.01-0.69-0.73-0.9-1.25
		c-0.45-1.12-0.23-3.11-2.31-2.49c-1.66,0.5-2.06,2-1.5,3.54c0.56,1.53-0.39,2.09-1.39,2.71L62.5,18l0.12,0.15
		c-0.13,0.26-0.25,0.52-0.38,0.78c-0.05,0.21-0.1,0.41-0.16,0.62c-0.1,0.18-0.21,0.37-0.31,0.55c-0.34,0.54-0.77,0.81-1.39,0.45
		c-0.01,0.48-0.02,0.96-0.03,1.44c-0.13,1.59-2.24,2.07-2.23,3.56c0.06,4.86-0.89,9.8,0.97,14.53c1.32,3.37,2.76,6.7,4.12,10.07
		c0.2,0.49-0.16,1.28,0.57,1.47c0.79,0.21,1.18-0.54,1.6-1.01c2.7-3.03,4.81-6.48,5.81-10.37c0.92-3.57,1.77-7.32-0.59-10.81
		c-0.83-1.22-0.13-2.16,0.81-2.96c0.99-1.49,2.04-0.37,2.98,0.02c1.36,0.57,2.84,0.42,3.13-0.86c0.32-1.44,1.77-2.31,1.69-3.63
		C79.05,19.99,82.06,20.38,81.6,18.7z M62.01,20.1l0.04,0.02l0,0C62.05,20.12,62.03,20.11,62.01,20.1z"/>
	<g>
		<path class="st35" d="M121.6,160.55c0.34-4.05-0.77-8.09-0.04-12.13c0.52-1.37,0.52-2.81,0.57-4.25
			c0.22-6.11-2.58-11.27-5.13-16.5c-1.13-3.74-0.99-7.66-1.59-11.48c-0.31-1.37,1.05-2.85,1.58-4.31c-0.02-0.62-2.09-1.08-2.11-1.7
			c-0.13-0.15-0.26-0.3-0.39-0.44c-0.31,0.19-0.62,0.38-0.93,0.57c0.31-0.19,0.62-0.38,0.93-0.57c0.07-0.18,0.15-0.36,0.22-0.54
			c-0.21-0.59-0.41-1.18-0.62-1.77c-2.62-3.29-0.71-7.02-0.12-10.83c0.67-4.39-1.18-13.26-3.99-16.91c0.59,2.21-0.12,9.56-0.92,11.6
			c-1.12,2.87-5.46,4.3-7.66,6.46c-2.03,1.98-2.41,4.46-4.12,6.78c-1.09,1.46-1.58,3.25-1.82,5.03c-0.22,1.62-1.66,1.9-2.71,3.16
			c-0.18,0.22,1.38,2.02,1.2,2.24c-0.98,4.61-3.06,8.82-4.97,13.08c-2.94,6.56-4.42,13.56-6.58,20.35c-1.4,4.43-2.8,8.87-4.19,13.3
			c1.16,0.13,2.47-0.05,3.43,0.46c-0.96-0.51-2.28-0.33-3.43-0.46c-0.19,0.41-0.38,0.82-0.58,1.23c-0.88,1.35-1.88,2.64-2.27,4.25
			c0.09,1.97,1.24,2.33,2.87,1.81c0.82-0.26,1.62-0.57,2.45-0.79c0.68-0.18,1.45-0.01,2.03-0.52c0.32-0.28,0.48-0.7,0.65-1.1
			c0.45-1.03,1.06-1.97,1.68-2.91c0.36-0.56,0.94-1.6,1.77-1.25c0.07-0.55,0.25-1.12,0.46-1.63c0.24-0.57,0.55-1.1,0.9-1.6
			c0.69-1,1.52-1.89,2.23-2.88c3.67-5.08,7.1-10.24,8.48-16.51c0.3-1.37-0.33-2.94,0.84-4.11c0.05-4.22,0.92-8.09,4.52-10.83
			c0.1-1.17,0.81-2.02,1.53-2.8c-0.72,0.78-1.43,1.63-1.53,2.8c0.54,1.81,2.24,2.85,2.99,4.52c0.65-0.79,1.36-1.35,2.18-1.42
			c-0.83,0.07-1.53,0.63-2.18,1.42c1.18,6.74,2.35,13.47,3.53,20.21c0.49,3.56,1.37,7.02,2.46,10.44
			C116.01,159.98,118.71,161.76,121.6,160.55z M82.38,162.82c-0.14-0.2-0.3-0.37-0.48-0.5C82.08,162.45,82.24,162.62,82.38,162.82z
			 M121.02,146.56c-0.01,0.13-0.01,0.26-0.01,0.39C121.01,146.82,121.01,146.69,121.02,146.56z M112.21,107.57
			c-0.14-0.08-0.28-0.16-0.45-0.22C111.92,107.41,112.07,107.48,112.21,107.57z M112.53,107.8c-0.02-0.01-0.04-0.03-0.05-0.04
			C112.49,107.77,112.51,107.78,112.53,107.8z M95.55,113.55c0.67-0.36,0.86-1,0.98-1.67C96.41,112.55,96.21,113.19,95.55,113.55z
			 M95.31,113.66c0.05-0.02,0.1-0.04,0.15-0.07C95.41,113.61,95.36,113.64,95.31,113.66z M111.24,147.69c0-0.1,0-0.21-0.01-0.31
			c-0.01-0.21,0.7,1.69-0.9-0.33c0.13,0.17,0.88,0.12,0.9,0.33C111.23,147.49,111.24,147.59,111.24,147.69z"/>
		<path class="st35" d="M71.54,173.29c-2.04,3.42-3.83,6.92-4.04,11.01c3.14-0.77,6.26-0.52,9.34,0.23
			c0.98,0.24,1.68,0.02,1.68-0.87c0-3.62,2.22-7.21,0.22-10.86C76.16,170.26,73.9,172.51,71.54,173.29z"/>
		<path class="st35" d="M123.38,167.75c-1.93-0.41-0.91-2.14-1.42-3.19c-2.94-1.97-4.29-1.54-7.21,2.33
			c0.04,0.22,0.07,0.44,0.11,0.65c0.64,0.21,0.65,0.82,0.93,1.29c1.34,2.22,3.75,2.73,5.95,2.6
			C123.69,171.32,123.35,169.24,123.38,167.75z"/>
		<path class="st35" d="M79,172.55c0.72,0.25,1.44,0.5,2.16,0.75c1.04-1.17,1.15-2.6,1.12-4.07C80.82,169.98,77.54,168.93,79,172.55
			z"/>
		<path class="st35" d="M99.67,101.67h0.01c0-0.01,0.01-0.02,0.01-0.03L99.67,101.67z"/>
		<path class="st35" d="M100.82,101.1c0.01,0,0.01,0,0.02,0c0-0.01,0.01-0.02,0.01-0.02L100.82,101.1z"/>
		<path class="st35" d="M121.85,172.79c-2.46-0.09-4.43-1.89-6.89-1.87c-0.61,3.89-0.46,7.76,0.33,11.61
			c1.56,0.15,2.34,1.23,2.83,2.52c0.3,0.78,0.76,1.08,1.51,0.99c0.9-0.11,1.4-0.71,1.34-1.58c-0.23-3.43,0.77-6.64,1.66-9.87
			C122.84,173.87,122.93,172.84,121.85,172.79z"/>
		<path class="st35" d="M113.53,161.15c0.06,1.24,0.34,2.42,0.97,3.5c1.25-0.49,2.03-1.48,3.12-2.5
			C116.11,161.5,114.86,161.19,113.53,161.15z"/>
	</g>
	<path class="st35" d="M84.91,41.59c0,0,1.85-2.23-1.82-5.45L79.9,33.9c0,0,3.8-0.54,3.96-0.46c0.16,0.08,4.87,4.75,4.92,4.92
		c0.04,0.16-1.21,2.46-1.21,2.46L84.91,41.59z"/>
	<path class="st37" d="M100.25,4.26c-1.54-1.09-5.68-3.69-8.81-2.53c-3.93,1.45-5.18,8.45-5.12,13.77s3.81,7.26,3.71,10.28
		c-0.11,3.02-3.3,5.36-3.3,5.36s7.94-1.13,6.69-7.63c-0.41-2.1-0.76-4.06-1.05-5.63l4.02,2.21l11.75-10.46
		C108.42,7.74,110.26,3.87,100.25,4.26z M91.71,7.74c0.39-0.1,0.75-0.12,1.08-0.09c-1.03,1.62-1.35,3.58-1.36,5.35
		C91.06,11.2,90.57,8.02,91.71,7.74z"/>
	<path class="st37" d="M10.61,79.45c-0.49-1.82-2.5-2.66-2.94-4.51c2.92-3.34,5.7-6.78,7.82-10.71c0.4-0.74,1.11-1.32,1.74-1.9
		c2.76-2.53,5.07-5.28,6.85-8.73c1.3-2.52,3.79-4.55,5.35-7.13c3.14-5.16,6.41-10.25,9.52-15.43c1.87-3.11,4.37-5.04,8.08-5.16
		c0.33,0.73-0.79,1.36-0.18,2.12c1.2,0.17,1.47-1.53,2.73-1.29c0.1,0.25,0.15,0.53,0.3,0.75c0.43,0.59-0.83,3.56,1.72,1.24
		c0.29-0.26,0.46,0.13,0.58,0.38c0.51,1.08,1.03,0.82,1.12-0.13c0.4-4.32,4.02-5.32,7.02-6.98c-0.13,1.59-2.24,2.07-2.23,3.56
		c0.06,4.86-0.89,9.8,0.97,14.53c1.32,3.37,2.76,6.7,4.12,10.07c0.2,0.49-0.16,1.28,0.57,1.47c0.79,0.21,1.18-0.54,1.6-1.01
		c2.7-3.03,4.81-6.48,5.81-10.37c0.92-3.57,1.77-7.32-0.59-10.81c-0.83-1.22-0.13-2.16,0.81-2.96c1.61,2.36,4.3,3.71,5.72,6.31
		c0.38,0.7,1.64,1.27,2.79,1.14c0.77,1.35,2.06,1.73,3.48,1.88l0.01-0.01c0.03,0.73,0.52,1.08,1.12,1.33
		c0.35,1.13,1.52,1.94,1.26,3.3c-1.37,1.89-2.73,3.77-4.1,5.66c-1.51,1.41-1.76,2.98-0.63,4.74l-0.03,0.07
		c-0.1,1.16,0.94,1.81,1.24,2.79c-1.66,3.65-1.64,7.12-0.13,11c2.45,6.27,5.91,12.29,6.14,19.29c0.1,2.1-1.56,3.57-1.99,5.48
		c-2.91,4.96-7.25,6.87-12.88,6.08c-0.67-0.09-1.35,0-1.6,0.83c-0.34,0.07-0.68,0.14-1.02,0.21c-0.73-1.9-1.52-2.45-2.56-0.17
		c-0.38,0.83-1.03,1.54-1.07,2.51c-4.54,2.66-9.66,2.22-14.61,2.69c-3.69,0.35-5.37,2.02-6.15,5.67c-0.87,4.07,1.05,8.18-0.8,12.14
		c1.73,0.28,2.58-0.52,3.39-1.36c1.61-1.65,3.13-3.41,4.83-4.95c3.1-2.8,4.01-2.57,5.68,1.17c0.47,1.05,1.09,2.05,0.97,3.28
		c-4.97,13.29-9.65,26.65-13.16,40.43c-1.87,7.35-6.33,13.73-10.06,20.32c-0.74,1.31-2.05,2.2-1.86,4.04c0.13,1.23-0.61,2.11-2.15,2
		c-1.34-0.1-2.69,0.06-4.04,0.06c-0.45,0-1.26-0.1-1.3-0.29c-0.79-3.67-2.55-1.03-3.71-0.48c-5.53,2.62-11.31,1.59-17.05,1.35
		c-0.51-0.02-1.01-0.34-1.02-0.85c-0.01-0.88,0.58-1.31,1.41-1.56c2.48-0.74,4.95-1.51,7.39-2.36c1.34-0.47,2.7-1,3.64-2.52
		c-3.49-0.97-2.17-2.87-0.99-4.7c7.38-11.39,11.6-24.16,16.04-36.82c0.5-1.43,0.73-2.98,0.93-4.5c1.05-8.11,5.41-15.1,7.68-22.81
		c2.28-7.72,4.99-15.33,8.16-22.74c2.05-4.8,1.71-9.52,0.36-14.31c-1.87-6.64-4.45-13.1-5.13-20.04c-0.19-1.98-0.3-3.96-0.48-6.44
		c-4.39,5.07-9.81,8.69-12.18,15.02c-1.17,3.11-3.06,5.96-4.71,8.87c-2.36,4.17-5.83,6.85-10.66,7.53
		c-1.65,0.23-2.94,1.17-3.86,2.33C12.62,80.39,11.73,80.16,10.61,79.45z"/>
	<path class="st37" d="M86.81,162.42c0.3-2.55,2.18-4.2,3.56-6.11c3.67-5.08,7.1-10.24,8.48-16.51c0.3-1.37-0.33-2.94,0.84-4.11
		c-0.42,1.57,0.47,2.95,0.68,4.43c1.16,8.06,1.25,16.25,2.76,24.27c0.54,2.85,2.88,5.61,2.64,8.01c-0.39,3.95,3.01,5.87,3.41,9.38
		c0.3,2.62,3.75,2.73,6.1,0.77c1.56,0.15,2.34,1.23,2.83,2.52c0.3,0.78,0.76,1.08,1.51,0.99c0.9-0.11,1.4-0.71,1.34-1.58
		c-0.23-3.43,0.77-6.64,1.66-9.87c0.2-0.73,0.29-1.76-0.79-1.8c-2.46-0.09-4.43-1.89-6.89-1.87c-0.03-1.12-0.06-2.25-0.09-3.37
		c0.64,0.21,0.65,0.82,0.93,1.29c1.34,2.22,3.75,2.73,5.95,2.6c1.94-0.11,1.6-2.2,1.63-3.69c1.82,0.04,3,1.19,3.28,2.74
		c0.77,4.15,1.24,8.35,1.55,12.59c-1.49-1.29-1.4-3.16-1.98-4.76c-0.42-1.17-0.58-2.95-1.84-2.98c-1.57-0.03-1.63,1.88-1.88,3.08
		c-0.42,2.05-0.62,4.16-0.78,6.26c-0.12,1.57-0.65,2.62-2.38,2.59c-4.8-0.09-9.6-0.17-14.4-0.36c-0.91-0.04-1.78-0.74-2.7-0.88
		c-0.91-0.14-1.86-2.76-3.01,0.32c-0.42,1.13-3.96,0.44-6.02,0.17c-1.16-0.15-0.25-1.75-0.66-2.45c-0.9-1.56-2.14-2.81-2.62-4.74
		C88.57,173.75,86.98,168.22,86.81,162.42z"/>
	<path class="st37" d="M77.21,120.46c1.71-0.07,2.57,2.03,3.6,2.93c2.35,2.06,3.94,1.98,5.51-0.77c1.61-2.83,0.79-5.59,3.65-7.46
		c-1.66-0.56-0.61-0.53-0.61-0.53c0.19,0.01,2.79-0.38,2.98-0.37c0.41,0.01,1.69-0.32,2.09-0.3c-0.98,4.61-3.57,9.82-5.47,14.07
		c-2.94,6.55-4.42,13.56-6.58,20.35c-1.38-7.51-2.76-15.02-4.14-22.52C77.95,124.25,77.49,122.06,77.21,120.46z"/>
	<path class="st37" d="M80.53,6.8c-1.35,0.13-2.37-0.68-3.5-1.18c-1.88-0.85-3.26-0.6-3.38,1.76c-0.06,1.2-0.53,1.88-1.5,2.55
		c-1.42,0.97-2.82,2.09-2.6,4.17c0.06,0.58-0.08,1.24-0.85,1.23c-0.77-0.01-0.69-0.73-0.9-1.25c-0.45-1.12-0.23-3.11-2.31-2.49
		c-1.66,0.5-2.06,2-1.5,3.54c0.56,1.53-0.39,2.09-1.39,2.71c-1.3-4.31-1.41-8.69-0.46-13.06c0.59-2.72,5.05-5.34,7.86-4.69
		c3.26,0.75,6.49,1.64,9.7,2.56c1.24,0.35,3.01,0.4,3.2,1.97C83.04,5.85,81.19,5.89,80.53,6.8z"/>
	<path class="st37" d="M111.75,68.79c1.1-1.74-0.08-3.7,0.51-5.54c0.27-0.85-0.61-1.59-1.43-1.93c-0.76-0.31-1.39-0.61-1.48-1.52
		c0.05-0.49,0.1-0.99,0.14-1.48c1.17-1.17-0.12-3.05,1.2-4.18c3.16,2.1,5.89,4.32,5.83,8.75C116.49,66.54,115.59,68.04,111.75,68.79
		z"/>
	<path class="st37" d="M121.97,164.57c-2.94-1.97-4.29-1.54-7.21,2.33c-0.09-0.75-0.17-1.5-0.26-2.25c1.25-0.49,2.03-1.48,3.12-2.5
		c-1.51-0.65-2.76-0.96-4.08-1c-0.11-0.38-0.22-0.75-0.34-1.13c2.81-0.04,5.51,1.75,8.4,0.53c0.02,0.6,0.04,1.21,0.06,1.81
		c-0.04,0.05-0.13,0.13-0.11,0.16c0.06,0.11,0.14,0.2,0.22,0.29C122.14,163.36,122.14,163.95,121.97,164.57z"/>
	<path class="st37" d="M62.6,18.13c-0.12,0.26-0.25,0.52-0.37,0.78C62.35,18.65,62.47,18.39,62.6,18.13z"/>
	<path class="st37" d="M99.6,8.06c0,0-1.78,4.9-5.53,4.65c-3.75-0.25,0.06-1.72,0-1.9c-0.06-0.18,0.94-2.39,1.27-2.6
		c0.33-0.21,4.5-1.18,4.5-1.18L99.6,8.06z"/>
	<path class="st37" d="M108.42,13.6c0,0-3.78-3.17-3.77-6.15c0-2.98,2.24-0.42,2.24-0.42l1.25,2.61L108.42,13.6z"/>
	<path class="st37" d="M82.54,167.9c0,0-1.39-3.47-4.77-5.33l0.52-1.23c0,0,3.49,2.08,4.95,5.46
		C83.24,166.79,83.08,167.79,82.54,167.9z"/>
	<path class="st37" d="M78.3,161.33c0,0,2.22-3.47,9.09-0.86l0.55-0.97c0,0-6.21-2.38-9.22,0.51L78.3,161.33z"/>
	<path class="st37" d="M87.04,161.33c0,0-4.94-3.47-4.45-13.64l0.52-1.71c0,0,1.17,11.35,4.51,14.03L87.04,161.33z"/>
	<path class="st37" d="M113.2,160.02c0,0,6.43-1.23,8.13-7.52v-1.84c0,0-4.82,7.74-8.57,7.93L113.2,160.02z"/>
	<path class="st37" d="M121.32,151.64c0,0-9.64,3.28-11.14-5.27l-0.39-2.22c0,0,3.14,9.27,11.57,5.9L121.32,151.64z"/>
	<path class="st37" d="M82.27,169.23c0.17-0.43,0.6-0.99,0.32-1.51c-1.53,0.03-2.96,0.8-4.38,1.26c-1.63,0.52-2.78,0.16-2.87-1.81
		c-1.67,1.79-2.59,4.05-3.81,6.13c2.36-0.78,4.62-3.03,7.21-0.48c2,3.65-0.22,7.24-0.22,10.86c0,0.89-0.7,1.11-1.68,0.87
		c-3.08-0.76-6.21-1-9.34-0.23c-0.2,0.19-0.39,0.51-0.62,0.55c-1.41,0.2-2.39,0.85-2.23,2.4c0.18,1.66,1.7,1.35,2.7,1.42
		c2.86,0.19,5.73,0.26,8.6,0.18c1.16-0.03,2.81-0.21,2.92-1.68c0.36-4.7,3.52-8.92,2.28-13.86c-0.25-0.09-0.5-0.17-0.75-0.26
		c-1.3-0.53-1.64-1.19-1.73-1.51C78.23,169.14,80.98,169.9,82.27,169.23z"/>
	<path class="st38" d="M176.29,112.44c-0.75-3.99-2.85-7.87-5.04-11.38c-2.53-4.07-5.79-8.4-10.54-9.08
		c-2.86-0.41-5.7,0.62-8.51,1.31c-5.56,1.37-11.44,1.44-17.03,0.19c-4.82-1.07-9.52-3.19-12.95-6.73c-1.68-1.73-3.01-3.75-4.34-5.76
		c-2.15-3.26-4.31-6.52-6.46-9.77c-0.37-0.55-0.79-1.15-1.44-1.31c-0.54-0.13-1.19-0.13-1.7,0.08c-2.83,1.14-5.56,2.47-8.38,3.62
		c-0.34-0.13-0.68-0.3-1.02-0.52c-0.28-0.91,2.05-0.97,2.22-1.91c0.32-1.81-1.27-1.81-2.29-1.84s-1.46,0.19-2.46-0.01
		c-1.77-0.36-3.02-2.49-2.27-4.13c0.75-1.64,3.17-2.37,4.74-3.24c3.43-1.91,7.81-2.72,11.33-0.96c0.85-0.92-0.37-3.68-1.11-4.69
		c-0.74-1.01-1.84-1.7-2.76-2.55c-4.78-4.43-3.8-12.11-2.44-18.49c-3.66,3.62-7.33,7.24-10.99,10.86c-1.05,1.04-2.43,2.16-3.84,1.72
		c-2.82-0.89-0.82-4.42-2.18-6c-1.71-1.98-5.5,2.71-6.32,4.51c-1,2.21-0.13,5,1.58,6.73c0.59,0.6,1.34,1.03,1.91,1.64
		c1,1.06,1.37,2.56,1.71,3.98c1.78,7.53,3.56,15.06,5.34,22.6c-0.25-0.46-1.32,0.1-1.61,0.78c-1.21,2.85-2.82,5.7-4.56,8.27
		c-1.73,2.57-3.84,3.92-6.92,4.26c-1.86,0.21-4.44-0.04-6.22,0.54c-1.18,0.39-1.97,1.96-2.99,2.66c-2.83,1.93-5.65,2.17-9.06,2.45
		c-4.24,0.34-10.05,0.1-12.72,3.41c-3.31,4.1-0.41,12.9-2.69,17.65c3.16-0.21,5.45-3.43,7.42-5.54c0.66-0.71,1.34-1.41,2.09-2.03
		c1.13-0.95,2.65-2.59,3.96-1c2.03,2.46,2.86,4.82,3.56,7.9c0.68,3.01,2.77,6.37,5.85,6.13c4.17-0.33,6.5-7.07,10.5-5.84
		c2.43,0.75,4.04,5.08,6.5,4.43c1-0.26,1.85-1.83,2.42-2.7c1.61-2.44,2.9-4.98,4.51-7.42c0.08-0.12,0.15-0.26,0.2-0.39
		c1.6,0.48,3.36-1.05,3.91-2.72c0.6-1.8,0.4-3.79,1.01-5.59c1.15-3.39,4.73-5.18,7.46-7.49c4.34-3.67,6.89-9.37,6.72-15.06
		c3.22,5.51,0.54,12.59,1.85,18.83c0.94,4.48,3.96,8.81,2.84,13.25c1.87-0.73,3.97,0.23,5.54,1.48c1.57,1.25,2.92,2.83,4.76,3.64
		c4.03,1.76,9.25-0.69,12.86,1.82c1.73,1.21,2.6,3.27,3.72,5.05c1.12,1.79,2.9,3.52,5,3.31c2.7-0.27,4.09-3.45,6.53-4.63
		c2.36-1.14,5.27-0.22,7.75-1.07c3.1-1.06,5.45-4.78,8.66-4.1c0.9,0.19,1.71,0.73,2.63,0.78c1.97,0.11,3.31-2.02,3.73-3.95
		C176.71,116.42,176.66,114.42,176.29,112.44z M86.42,89.54c0,0-0.01-0.01-0.03-0.03C86.41,89.53,86.42,89.54,86.42,89.54
		L86.42,89.54z M90.97,74.43c-0.01-0.18-0.01-0.36-0.01-0.55c-0.19-0.2-0.38-0.4-0.56-0.6v-0.01l0,0v0.01
		c0.19,0.2,0.37,0.4,0.56,0.6C90.96,74.07,90.96,74.25,90.97,74.43c0.38,0.51,0.72,1.07,1.1,1.58
		C91.69,75.5,91.35,74.94,90.97,74.43z M116.41,81.95c-0.09-0.25-0.16-0.52-0.22-0.79C116.24,81.43,116.31,81.7,116.41,81.95
		c0.19,0,0.38,0,0.58,0C116.79,81.95,116.6,81.95,116.41,81.95z M119.88,85.99c0-0.03-0.01-0.05-0.01-0.08
		C119.88,85.94,119.88,85.97,119.88,85.99L119.88,85.99z"/>
</g>
</svg>
