<?xml version="1.0" encoding="utf-8"?>
<!-- Generator: Adobe Illustrator 23.0.1, SVG Export Plug-In . SVG Version: 6.00 Build 0)  -->
<svg version="1.1" id="Layer_1" xmlns="http://www.w3.org/2000/svg" xmlns:xlink="http://www.w3.org/1999/xlink" x="0px" y="0px"
	 viewBox="0 0 180 349.72" style="enable-background:new 0 0 180 349.72;" xml:space="preserve">
<style type="text/css">
	.st0{fill:#F3C0A6;}
	.st1{fill:#161719;}
	.st2{fill:#BE9D9E;}
	.st3{fill:#B68490;}
	.st4{fill:#E0D4CD;}
	.st5{fill:none;stroke:#C8AAA0;stroke-width:0.25;stroke-miterlimit:10;}
	.st6{fill:#3B0400;}
	.st7{fill:#6893A1;}
	.st8{fill:#2F5561;}
	.st9{fill:#F1AC95;}
	.st10{fill:#E6E7E8;}
	.st11{fill:#F26522;}
	.st12{fill:#E8C7AD;}
	.st13{fill:#CE7B29;}
	.st14{fill:#00B26D;}
	.st15{fill:#100D0A;}
	.st16{fill:#EBEBEC;}
	.st17{fill:#7A5441;}
	.st18{fill:#EFEFF0;}
	.st19{fill:#E2E3E4;}
	.st20{fill:#9E6B50;}
	.st21{fill:#ED1E27;}
	.st22{fill:#2C2C2C;}
	.st23{fill:#3E3E3E;}
	.st24{fill:#E19491;}
	.st25{fill:#DF8189;}
	.st26{fill:#945222;}
	.st27{fill:#DF9F8B;}
	.st28{fill:#D4437B;}
	.st29{fill:#E0E1E2;}
	.st30{fill:#72493B;}
	.st31{fill:#7787C1;}
	.st32{fill:#E27627;}
	.st33{fill:#569F51;}
	.st34{fill:#F3B790;}
	.st35{fill:#F1AD96;}
	.st36{fill:#6F4F4D;}
	.st37{fill:#010101;}
	.st38{fill:#D4457C;}
	.st39{fill:#F0C3AA;}
	.st40{fill:#911E25;}
	.st41{fill:#D32628;}
</style>
<g>
	<path d="M155.62,309.67c0,0,5.98,0.45,5.75,12.51c0,0-2.93,5.52-6.76,7.1c-5.16,2.12-1.76,15.31-5.87,16.97
		c-7.52,3.05-15.95,5.26-23.67,1.4c0,0-3.04-4.28,1.92-8.34s8.79-4.28,9.7-13.98c0.9-9.7,2.61-12.19,2.61-12.19L155.62,309.67z"/>
	<path class="st17" d="M139.28,313.16v7.45c0,0,5.62,8,14.19,1.01c0,0,3.04-1.58,2.93-7.78c-0.11-6.2-3.83-7.33-3.83-7.33
		l-10.03,3.83L139.28,313.16z"/>
	<path class="st17" d="M59.9,220.71l-1.17,17.42l-12.33-4.06c0,0-4.66-3.89-5.79-4.65c-1.13-0.76-5.34-5.42-5.34-5.42l5.34-2.71
		l1.36-4.45l9.84-5.02l8.08,5.86V220.71z"/>
	<path class="st18" d="M120.74,140.02c0,0-25.77-0.35-40.2,1.45c-14.43,1.8-18.94-3.16-23.22,10.15c0,0-0.9,16.01-3.38,19.84
		s-3.61,23.45-3.61,23.45s-4.06,19.39-9.7,22.32c0,0,18.04-6.09,20.29,6.54c0,0,2.93-6.76,5.41-18.04
		c2.48-11.27,8.79-15.78,8.79-15.78s4.8-5.57,5.56-25.45c0,0,8.2,0.87,19.24,8.31s32.92,3.83,32.92,3.83s2.71,24.35-4.06,36.75
		c-6.76,12.4-3.61,31.34-1.58,35.85s8.57,8.12,13.08,55.92c0,0-4.51,6.09,0,8.79s14.21-1.58,15.33-4.28c0-5.92,0-11.85,0-17.77
		c0-10.97,1.8-22.16-1.69-32.77c-1.09-3.33-3.87-6.21-4.79-9.33c-1.39-4.69,0.56-12.4,1.39-17.13c2.08-11.79,7.12-21.74,12.18-32.4
		c4.9-10.33,9.81-20.66,14.35-31.15c1.02-2.36,2.04-4.73,2.93-7.14L120.74,140.02z"/>
	<path class="st19" d="M0.75,218.73c0,0-3.51,4.35,4.67,11.24c1.74,1.46,3.42,3,4.96,4.66c2.21,2.37,5.8,5.63,9.28,6.2
		c5.42,0.88,10.71-3.96,19.05,2.08c0.4,0.29,0.65,0.73,0.7,1.22c0.27,2.42,1.64,9.94,8.19,9.94c5.69,0,5.51-4.67,5.51-4.67
		s-2.93-7.66-3.38-8.26S22.96,227.4,22.96,227.4l-17.44-7.62L0.75,218.73z"/>
	<path class="st17" d="M148.14,53.35c0,0-1.62-7.94-0.72-11.55c0.9-3.61,6.73-10.97,3.16-15.33l-0.84-3.46l-9.08-5.26l-14.58-1.5
		l-7.52,2.25l-4.36,2.56l1.95,10.37c0,0,1.2,17.14,9.62,19.99c0,0-0.8,9.69-4.66,13.8l-1.8,9.05l9.32,4.71
		c0,0,15.18-3.21,16.08-3.21c0.9,0,13.23-4.36,13.23-4.36l-3.78-13.24L148.14,53.35z"/>
	<path d="M121.42,12.47c0.05,0,0.1,0,0.15,0c0.23-2.1,0.46-4.22,1.15-6.22s1.91-3.88,3.71-4.98c2.03-1.24,4.53-1.36,6.91-1.24
		c3.79,0.2,7.62,0.95,10.97,2.74c2.14,1.14,4.11,2.74,5.28,4.87c1.76,3.19,1.51,7.06,1.22,10.69c3.18,0.9,6.43,2.35,8.27,5.1
		c2.22,3.31,1.8,8.01-0.57,11.21c-2.38,3.2-6.42,4.94-10.4,5.03c1.78-3.94,2.73-8.66,0.73-12.49c-1.24-2.38-3.49-4.12-5.96-5.18
		c-2.47-1.06-5.15-1.5-7.82-1.8c-3.9-0.43-7.86-0.57-11.73,0.07c-2.31,0.39-4.75,1.18-6.08,3.1c-1.75,2.54-0.92,5.98-0.02,8.93
		c-2.19-1.44-4.4-2.89-6.25-4.74c-1.82-1.82-4.07-4.72-3.58-7.42c0.49-2.7,2.99-4.97,5.34-6.12
		C115.42,12.74,118.46,12.41,121.42,12.47z"/>
	<path d="M120.52,138.75c1.11,7.87,6.28,14.84,12.94,19.17c6.7,4.36,14.77,6.25,22.76,6.54c7.98,0.28,15.94-0.97,23.79-2.48
		c-0.03-8.55-0.18-17.58-4.57-24.92c-0.7-1.16-1.5-2.28-2-3.53c-0.46-1.15-0.66-2.38-0.85-3.61c-0.64-4.06-1.26-8.16-2.84-11.95
		c-0.8-1.92-1.84-3.73-2.5-5.7c-0.6-1.77-0.87-3.64-1.15-5.49c-1.64-11.03-3.28-22.06-4.92-33.09c-0.49-3.33-1.01-6.72-2.52-9.72
		c-2.25-4.5-6.46-7.64-10.51-10.61c2.51,3.4,4.4,7.26,5.55,11.33c0.15,0.53,0.29,1.11,0.11,1.63c-0.19,0.57-0.71,0.96-1.2,1.3
		c-7.61,5.17-17.39,7.04-26.37,5.02c-0.87-0.19-1.77-0.44-2.44-1.02c-0.19-0.17-0.35-0.38-0.49-0.59c-2.13-3.28-0.62-4.76-0.76-7.52
		c-0.01-0.12-0.15-0.18-0.24-0.09c-0.62,0.63-2.7,0.76-4.48,4.35c-0.96,1.95-1.45,4.09-1.98,6.21c-1.03,4.09-1.82,8.24-2.22,12.43
		c-1.02,10.68-0.08,21.63,2.27,32.1c0.74,3.28,1.66,6.61,3.6,9.35c1.31,1.85,3.09,3.45,3.77,5.61c0.68,2.16-0.48,5.14-2.75,5.15
		C120.51,138.67,120.51,138.71,120.52,138.75z"/>
	<path class="st17" d="M148.18,111.48c0,0,11.05,5.95,13.08-2.55c2.03-8.5,4.96-25.18-11.5-29.24s-22.55,10.59-22.55,16.91
		c0,0,0,6.99-8.79,6.09c0,0-31.79,3.38-48.93,2.03c0,0-20.97,0.79-26.27-0.45s-14.43,0.23-18.71,10.37c0,0-0.9,1.58,2.14,1.8
		s3.49-4.74,10.37-4.96s16.12-1.24,14.21,3.61c-1.92,4.85-9.92,6.65-9.92,6.65s-3.72,2.14,3.38,2.25c0,0,5.19-2.25,8.68-2.25
		s9.24-2.71,11.05-6.88c0,0,1.83-2.43,13.53,2.25c9.58,3.83,39.65,12.38,52.2,6.88C141.98,118.8,148.18,111.48,148.18,111.48z"/>
	<path d="M41.04,219.93c-7.69,1.5-15.54,2.2-23.38,2.09c-0.55-0.01-1.12-0.02-1.63-0.24c-0.5-0.21-0.9-0.6-1.32-0.95
		c-1.91-1.65-4.3-2.72-6.78-3.14c-1.19-0.2-6.78-0.76-6.97,1.04c-0.2,1.87,4.33,3.93,5.59,4.66c3.11,1.8,5.89,3.44,8.68,5.66
		c2.71,2.16,5.77,3.89,9.02,5.1c4.72,1.75,10.03,2.54,13.87,6.05c3.95,3.61,8.11,7.96,13.55,9.13c0.26,0.06,0.52,0.1,0.78,0.05
		c0.38-0.08,0.67-0.36,0.94-0.63c4.11-4.25,6.14-10.43,5.34-16.29c-3.86-0.25-7.73-1.28-10.97-3.39S41.95,223.69,41.04,219.93z"/>
</g>
</svg>
