<?xml version="1.0" encoding="utf-8"?>
<!-- Generator: Adobe Illustrator 23.0.1, SVG Export Plug-In . SVG Version: 6.00 Build 0)  -->
<svg version="1.1" id="Layer_1" xmlns="http://www.w3.org/2000/svg" xmlns:xlink="http://www.w3.org/1999/xlink" x="0px" y="0px"
	 viewBox="0 0 180 180" style="enable-background:new 0 0 180 180;" xml:space="preserve">
<style type="text/css">
	.st0{fill:none;}
	.st1{fill:#ECF8FE;}
	.st2{clip-path:url(#SVGID_2_);}
	.st3{fill:#101010;}
	.st4{fill:#191A1A;}
	.st5{fill:#121212;}
	.st6{fill:#080909;}
</style>
<g>
	<circle class="st1" cx="90" cy="90" r="90"/>
	<g>
		<path d="M28.57,92.97c0.01,0,0.01-0.01,0.02-0.01C28.59,92.96,28.58,92.97,28.57,92.97C28.57,92.97,28.57,92.97,28.57,92.97z"/>
		<path d="M100.56,176.78c-2.05,0.06-3.79-0.02-4.53-2.52c-0.08,0.73-0.17,1.49-0.31,2.77c-1.38-1.82-2.49-3.27-3.56-4.67
			c-1.99,0.99,0.25,3.9-2.18,4.34c-1.51,0.25-3.25,0.48-4.09-1.45c-0.73,0.34,0.04,1.17-0.5,1.36c-0.71,0.25-0.86-0.54-1.09-0.94
			c-1.28-2.2-2.68-4.3-4.36-6.18c-0.21-0.21-0.46-0.36-0.82-0.61c-0.67,2.05-0.78,3.96-0.44,5.93c0.13,0.61,0.84,1.64-0.46,1.91
			c-0.96,0.21-1.66-0.23-1.91-1.26c-0.06-0.29-0.29-0.55-0.48-0.88c-0.61,0.59-0.17,1.32-0.61,2.12c4.82,0.8,9.75,1.22,14.78,1.22
			c4.91,0,9.73-0.4,14.42-1.17C103.14,176.74,101.84,176.76,100.56,176.78z M167.07,77.96c-2.58-3.75-6.94-2.96-10.4-4.72
			c1.09-0.38,1.89-0.65,2.77-0.96c-1.7-1.19-3.65-1.24-5.43-1.78c0.5-1.3,1.91-1.28,2.6-2.22c-2.52-0.82-5.11-0.99-7.69-1.13
			c-0.17-0.88,1.28-0.84,0.84-1.82c-2.7,0.4-5.24,0.1-7.21-2.12c0.99-1.01,2.26-0.55,3.58-0.92c-2.62-1.95-6.31-1.74-7.74-4.99
			c1.15-1.05,2.39-0.06,3.86-0.15c-1.38-1.84-3.33-2.03-4.97-2.79c-1.09-0.5-3.02,0.1-3.25-1.19c-0.23-1.28,1.8-1.43,2.83-2.37
			c-1.4-0.59-2.7-0.8-4.02-0.61c-1.78,0.23-3.1,0.15-2.68-2.24c0.13-0.73-0.17-1.45-0.84-2.08c-0.61,1.13-0.55,2.47-1.76,3.14
			c-0.46-0.5-0.5-1.34-1.4-1.51c0.04,2.14-0.27,4.02-2.31,5.11c-0.48-0.73,0.48-1.4-0.13-2.16c-1.05,1.15-2.18,2.18-3.9,2.18
			c-0.48-0.71,0.73-1.26,0.13-2.08c-1.4,0.78-2.93,1.32-4.59,0.86c-0.23-1.11,1.19-1.97,0.38-3.12c-5.64,3.29-5.83,3.25-6.71-1.61
			c-1.24,0.5-2.41,1.26-3.77,1.13c-0.94-0.1-2.28,0.67-2.75-0.48c-0.42-0.99,0.13-2.16,1.01-2.96c0.06-0.06,0.02-0.25,0.04-0.42
			c-1.51-0.27-2.62,0.96-4.11,1.07c-0.06-0.88-0.15-1.68-0.21-2.56c-1.4,0.34-2.22,1.17-3.1,1.97c-3.33,3.08-3.33,3.08-4.59-1.09
			c-0.25,0.25-0.5,0.44-0.65,0.69c-0.92,1.51-1.74,2.12-2.96,0.15c-0.8-1.32-2.05-2.26-3.82-2.45c0.23,1.03,1.28,1.7,0.52,2.87
			c-2.12-0.96-4.34-1.53-7.06-0.92c1.45,0.82,2.39,1.59,2.64,2.93c-1.59,1.09-3.23,0.31-4.8,0.04c-0.21,1.17,1.07,1.47,1.07,2.33
			c-2.2,1.43-4.11,0.27-6.23-1.03c0.34,1.11,0.52,1.8,0.78,2.64c-2.75-0.75-4.47-2.37-6-5.18v3.65c-1.55-0.9-2.49-2.01-3.23-3.35
			c-0.69-1.26-1.05-2.73-2.33-4c-0.04,1.53,0.27,2.77-0.29,4.07c-2.1-1.28-2.62-3.37-3.23-5.58c-0.86,1.28-0.78,2.56-1.03,3.86
			c-1.93-0.63-2.85-2.14-3.86-4.11c-0.4,2.35-0.21,4.15,0,6.1c-1.26-0.36-2.22-1.07-3.52-0.69c0.86,1.13,2.12,2.01,1.74,3.71
			c-0.9-0.15-1.7-0.88-2.75-0.34c1.3,1.55,1.61,3.44,0.71,4.91c-0.57,0.92-1.26-0.94-2.18-1.09c-0.71,0.99-0.02,2.39-0.65,3.14
			c-0.71,0.88-1.91-0.82-2.96-0.06c1.38,2.75,1.24,3.06-1.82,3.73c-0.9,0.21-1.87,0.25-2.81,0.4c-0.19,0.02-0.36,0.19-0.46,0.27
			c0.02,0.8,1.32,0.4,1.05,1.32c-2.62,0.69-5.28,1.28-7.48,3.31c0.92,0.31,1.72-0.25,2.58,0.38c-3.4,2.08-6.08,4.59-8.18,7.8
			c1.53,0.55,2.54-1.24,4.07-0.69c-1.82,2.79-4.36,4.49-7.74,5.7c1.4,0.38,2.26,0.61,3.48,0.92c-2.75,1.24-5.01,2.47-7.17,4.53h2.31
			c-1.84,2.26-3.42,4.4-3.79,7.25c1.38-1.03,2.64-2.12,4.36-2.33c0.54,1.72-0.38,3.02-1.11,4.76c1.3-0.73,2.16-1.24,3.02-1.74
			c0.48,1.66-0.29,2.98-0.78,4.26c0.82,0.65,1.11-0.67,1.78-0.42c0.02,1.59-1.13,2.85-0.71,4.32c0.94,0.25,1.19-1.15,2.12-0.71
			c-1.38,4.88-1.49,5.7-0.86,8.07c0.75-1.19,0.8-2.79,2.28-3.42c0.63,2.26,0.31,4.36-0.13,6.46c-0.46,2.1-1.7,3.79-3.21,5.35
			c1.32,0.59,2.33-0.48,3.54-0.29c-1.84,4.47-2.89,8.91-2.45,13.86c0.94-0.99,1.26-2.26,2.66-2.58c0.82,6.48-0.63,12.35-3.98,18.15
			c2.43-0.78,3.65-2.41,5.3-3.98c-0.31,3.23,0,6.06,0.25,8.89c0.08,0.84,0.02,1.57-0.92,1.93c-0.25,0.08-0.48,0.1-0.67,0.06
			c1.43,1.47,2.91,2.87,4.44,4.21c1.47-0.08,2.68,0.63,3.63,2.08c0.38,0.59,0.75,1.19,1.09,1.8c11.4,8.78,24.95,14.88,39.72,17.36
			c-3.02-2.73-4.76-6.12-5.81-10.21c-1.13,1.82,0.21,3.48-0.29,5.16c-2.66-3.19-4.55-6.69-5.11-11.36c-0.88,2.03-0.82,3.54-1.01,5.2
			c-2.03-2.41-2.2-5.18-2.35-7.97c-1.01,0.19-0.65,1.49-1.66,1.93c-0.52-3.96-0.13-7.67,1.55-11.22c-0.15-0.1-0.29-0.21-0.44-0.31
			c-2.05,1.43-2.7,3.56-3.02,6.39c-1.61-3.12-1.03-5.87-0.44-8.8c-1.82,0.84-2.35,2.43-3,3.9c-0.17,0.38,0.04,1.05-0.65,1.01
			c-0.94-0.08-0.46-0.82-0.48-1.28c-0.04-0.94,0-1.89,0-2.83c-0.67-0.31-0.67,0.84-1.34,0.57c-0.17-2.37,0.38-4.63,1.26-6.85
			c0.17-0.44,1.09-0.94,0.17-1.55c-0.78,0.65-1.61,1.24-2.81,0.88c0.71-0.75,1.36-1.45,2.03-2.16c1.61-2.77,2.66-5.7,2.66-9.03
			c-1.76-0.06-1.89,2.31-3.61,2.31c0.27-1.49,1.4-2.64,1.3-4.11c-0.84-0.38-1.07,0.29-1.49,0.59c-0.4,0.27-0.9,0.44-1.28,0.04
			c-0.34-0.38,0.1-0.67,0.29-1.01c1.45-2.66,1.87-5.64,2.37-8.74c-2.18-0.06-2.77,2.18-4.67,2.91c2.64-7.23,5.85-13.73,11.72-18.59
			c-0.96,2.89-2.54,5.58-2.28,9.03c0.96-0.71,1.8-1.32,3.1-2.28c-0.78,2.03-1.34,3.56-1.97,5.11c-0.19,0.46-0.31,1.01,0.08,1.28
			c0.46,0.34,0.86-0.13,1.19-0.48c1.38-1.51,2.85-2.89,5.07-3.54c-0.27,1.32-1.45,2.2-1.19,3.94c2.35-3.63,7.13-3.79,9.12-7.57
			c-1.24-0.61-2.26,0.59-3.44-0.08c2.93-2.75,6.33-4.36,10.63-4.84c-1.15,2.2-2.31,4.17-2.96,6.44c1.28,0.31,1.78-1.19,3.06-1.28
			c-1.03,2.45-2.01,4.8-2.98,7.15c-0.23,0.57-1.17,1.22,0.46,1.47c0.71,0.1,0.06,1.19-0.1,1.84c-0.52,2.14-1.22,4.28-0.82,6.58
			c-0.23,1.26-0.44,3.06-0.19,4.61c0.02,0.19,0.06,0.36,0.1,0.52v0.04c0.52,2.03,2.03,2.96,4.34,2.98
			c-0.52,0.86-0.88,1.43-1.19,1.95c0.71,0.78,1.57-0.61,1.7,0.02c0.42,1.84,1.03,0.55,1.53,0.21c2.41-1.64,5.01-1.38,7.48-0.38
			c1.61,0.67,2.33,2.37,2.49,4.05c0.15,1.4-1.28,1.4-2.22,2.03c-0.23-1.19,0.65-1.8,0.71-2.64c-4.09-1.28-7.94-0.06-14.07,4.51
			c0.04-0.48-0.06-0.94,0.1-1.24c1.43-2.37-0.06-2.39-1.87-2.6c-3.65-0.44-7.19,0.1-10.82,0.82c0.69,0.52,1.47,0.21,2.14,0.4
			c0.48-0.02,0.96-0.04,1.45-0.06c2.05-0.23,4.07-0.13,6.1,0.27c1.07,0.23,1.24,0.67,0.92,1.61c-0.61,1.93-0.96,3.9-0.86,6.35
			c0.82-0.94,1.34-1.57,1.89-2.2c2.24-2.52,4.8-4.57,8.11-5.47c3.31-0.9,3.35-0.82,2.96,2.52c0,0.1,0.17,0.23,0.34,0.48
			c1.38-0.86,2.73-1.84,4.32-2.26c1.07-0.27,1.51-0.1,1.17,1.11c-0.4,1.4-0.42,2.85-0.36,4.88c0.8-1.36,1.3-2.18,2.01-3.4
			c1.84,4.02,4.91,5.22,8.8,4.65c0.23-0.04,0.48-0.02,0.69,0.04c2.45,0.82,4.13-0.42,5.56-2.12c0.84-1.03,1.49-2.22,2.22-3.33
			c0.4-0.92,0.8-1.87,1.19-2.79c0.36-2.77,1.8-5.18,2.49-7.84c0.36-1.34,0.82,0.42,1.38-0.02c4.72-2.33,5.35-6.56,5.35-6.56
			c0.36,0.46,0.65,0.84,1.07,1.38c0.52-2.58,0-4.88-0.44-7.17c-0.34-0.27-0.44-0.59-0.19-0.96c0.19,0.21,0.4,0.4,0.59,0.57
			c0.82-2.47-1.03-4.11-1.82-6.06c1.72-0.02,1.72-0.02,0.15-3.5c1.49,0.42,2.33,1.49,3.27,2.45c0.29,0.29,0.55,1.24,1.15,0.23
			c-0.21-1.15-0.88-2.12-1.55-3.25c1.7-0.06,2.56,1.07,3.63,1.89c-0.15,0.78-2.1-0.23-1.22,1.34c1.38,1.13,2.52,2.62,4.47,3.14
			c0.59-1.15-0.31-1.99-0.59-2.93c0.92-0.55,1.34,0.63,2.12,0.61c0.57-0.99-0.61-1.72-0.38-2.68c1.61,0.96,2.52,2.6,2.79,5.14
			c-0.75,0.08-1.36-0.78-2.33-0.36c1.43,3.02,3.17,5.89,3.88,9.5c-1.49-0.96-2.14-2.54-3.92-3.1c0.63,3.33,2.2,5.93,4.7,8.28h-2.2
			c0.88,1.15,1.7,2.16,2.43,3.23c0.73,1.09,1.68,2.14,1.24,3.88c-0.88-1.11-1.74-2.08-3.21-2.49c0.36,2.26,1.95,4.21,1.19,6.77
			c-0.69-1.74-1.76-2.91-3.12-3.86c-1.13-0.8-1.7-0.59-1.76,0.82c-0.13,2.14,0.46,4.05,1.84,5.7c0.1,0.17,0.19,0.31,0.29,0.48
			c-0.13,0.04-0.25,0.06-0.38,0.1c-0.8,0.34-1.05,0.55-0.29,1.43c1.32,1.55,2.31,3.38,2.16,5.93c-0.86-1.49-1.51-2.75-2.77-3.46
			c-0.44-0.27-0.88-0.86-1.47-0.44c-0.5,0.36-0.38,1.01-0.27,1.53c0.48,2.03-0.19,4.4,1.8,6c0.52,0.42,0.5,1.13,0.21,1.87
			c-0.86-0.86-1.84-1.45-3.21-1.61c0.13,1.78,1.64,3.33,0.84,5.18c-0.06-0.04-0.25-0.08-0.29-0.19c-0.5-1.11-1.49-2.6-2.37-2.22
			c-1.11,0.46-0.57,2.2-0.38,3.38c0.1,0.82,0.5,1.59,0.84,2.54c-0.9-0.17-1.28-1.19-2.26-0.69c0.57,1.34,1.17,2.73,0.61,4.42
			c-0.57-1.4-1.17-2.66-2.33-3.54c-0.36-0.29-0.69-0.78-1.19-0.52c-0.5,0.23-0.4,0.8-0.44,1.28c-0.17,1.99,0.44,3.84,1.36,5.79
			c-0.94-0.15-1.28-1.28-2.31-0.8c0.25,0.5,0.44,1.03,0.59,1.55c8.43-3.25,16.27-7.71,23.25-13.21c0.02-0.02,0.02-0.02,0.02-0.02
			c0.55-0.94,1.26-1.8,2.1-2.58c0.61-0.55,1.26-0.78,1.95-0.8c1.51-1.32,2.98-2.73,4.4-4.17c-0.96-0.1-1.66-0.75-2.08-1.78
			c-0.4-0.96-1.05-1.8-1.66-2.79c1.91-0.17,2.93,1.01,3.96,2.33c0.4-2.2-1.49-3.12-2.24-4.59c0.67-0.1,1.28-0.21,2.49-0.38
			c-2.77-0.9-4.61-2.1-5.79-4.07c-0.5-0.86-1.51-1.93-0.92-2.77c0.63-0.9,1.78,0.25,2.85,0.21c-0.15-1.7-1.97-1.93-2.73-2.98
			c1.01-0.52,2.05,0.23,3.12-0.48c-2.49-1.49-3.9-3.58-4.55-6.25c1.09-0.36,1.95,0.96,3.1,0.1c-1.15-1.07-2.26-2.18-2.66-3.75
			c-0.02-0.21-0.04-0.4-0.04-0.59c0.17,0.06,0.36,0.1,0.52,0.17c0.65,0.08,1.05,1.05,1.93,0.46c-1.34-1.4-2.41-2.93-2.37-4.99
			c1.45-0.02,2.1,1.09,3.04,1.78c0.31-1.36-0.48-2.37-0.73-3.5c-0.02-0.19-0.13-0.5-0.04-0.57c0.23-0.17,0.38,0.04,0.46,0.25
			c0.99,0.23,1.59,0.21,0.8-1.01c-0.46-0.75-0.82-1.91-0.21-2.43c0.82-0.67,1.78,0.19,2.45,0.78c0.84,0.71,1.49,1.66,2.35,2.64
			c-0.02-3.31-1.53-5.93-2.7-8.64c1.32-0.69,2.16,0.92,3.46,0.48c-0.59-2.64-4.02-3.65-3.79-6.71c0.71,0.04,1.24,0.65,1.97,0.19
			c-0.82-1.28-1.51-2.6-1.24-4.17c0.17-0.99,0.19-2.41,1.09-2.68c1.01-0.29,1.55,1.05,2.18,1.82c0.25,0.34,0.15,1.03,1.01,0.94
			c0.36-1.76-0.25-3.46-0.46-5.11c0.75-0.4,1.32,0.78,2.03,0.04c-1.03-1.59-1.68-3.27-1.19-5.16c1.38-0.15,1.47,1.28,2.39,1.53
			c0.67-1.55-0.36-2.87-0.59-4.32c0.82,0.1,1.51,0.19,2.39,0.29c-0.46-0.75-0.84-1.3-1.13-1.91c-0.52-1.09-0.46-2.43,0.29-3.12
			c0.82-0.71,1.93,0.17,2.79,0.69c0.63,0.4,1.13,1.01,1.74,1.55c0.27-1.87-1.11-3.19-1.57-4.78
			C164.77,77.35,165.73,78.24,167.07,77.96z M122.69,58.11c-2.47,1.01-4.8,1.32-7.25,0.9c0.1-1.47,1.78-0.31,2.1-1.49
			c-1.13-0.61-2.41-0.75-3.67-0.94C116.99,55.91,119.78,56.85,122.69,58.11z M51.27,63.46c-0.94-0.8-2.2-0.1-3.27-0.92
			c1.53-0.8,3.23-1.15,4.47-2.28c0.34-0.34,0.67-0.65,1.03-0.99c0.17-0.19,0.38-0.48,0.63-0.15c0.25,0.36-0.1,0.46-0.34,0.61
			c-0.31,0.31-0.63,0.65-0.94,0.96c-0.44,0.5-0.88,1.01-1.51,1.72c1.05,0.06,1.89,0.13,2.7,0.17c-1.4,2.6-6.52,5.64-10.31,6.02
			C46.26,66.73,49.58,66.35,51.27,63.46z M63.64,60.21c-3.06,1.76-5.3,4.13-6.56,7.88c1.24-0.44,2.14-0.78,3.35-1.24
			c-0.34,1.66-0.78,3.08-0.9,4.53c-0.08,0.9-1.66,2.24,0.67,2.75c0.57,0.13,0.1,1.26-0.15,1.93c-0.75,2.01-1.95,3.84-3.02,5.72
			c1.09,0.52,1.47-0.63,2.41-0.63c-0.29,2.16-1.45,3.96-2.37,6.1c1.7-0.94,2.24-0.42,1.76,1.24c-0.36,1.22-0.86,2.39-1.11,3.61
			c-0.1,0.54-2.08,1.82,0.46,1.82c0.48,0,0.29,0.63,0.13,0.96c-1.91,3.33-3.88,6.65-6.83,9.27c-0.78-0.96-0.5-2.33-1.76-2.96
			c-0.57,1.19-0.42,2.62-1.43,4.02c-0.31-3.29-2.66-4.78-4.47-6.81c-0.73,0.78-0.27,1.66-0.75,2.45c-1.26-0.86-2.41-1.87-3.31-3.1
			c-0.84-1.11-1.49-1.59-2.14,0.1c-0.15,0.38-0.36,0.73-0.99,0.69c0.13-1.84-0.1-3.61-1.53-4.97c-0.61-0.59-1.3-1.4-2.16-1.19
			c-0.96,0.25-0.27,1.43-0.71,2.2c-1.34-0.73-2.24-1.91-3.02-3.08c-0.99,0.21-0.17,1.11-0.63,1.45c0.06-0.02,0.1-0.06,0.17-0.08
			c-0.02,0.04-0.04,0.15-0.04,0.15c-0.04-0.02-0.1-0.02-0.15-0.04c-0.02,0-0.04-0.02-0.08-0.02c-2.39-1.64-3.04-4.21-3.79-6.81
			c-0.29-1.03-1.64-2.01,0.8-2.35c0.29,2.37,0.55,4.78,2.26,6.83c0.57-0.73,0.31-1.74,1.11-2.31c0.55,1.3,0.96,2.7,2.24,3.54
			c0.9-2.62,0.94-2.66,3.12-0.94c1.05,0.82,1.95,1.82,3.02,2.85c0.55-0.15,0.27-1.15,1.09-1.26c0.69,1.95,1.72,3.73,3.48,5.26
			c0.52-1.36,0.65-2.77,1.8-3.73c0.82,1.95,1.38,4.05,3.14,5.43c0.8,0.61,1.51,0.99,2.03-0.21c0.52-1.15,1.05-1.13,1.84-0.23
			c0.48,0.57,0.57,1.84,1.45,1.61c1.15-0.29,1.84-1.43,2.41-2.47c1.01-1.84,0.92-1.97-1.36-1.93c1.36-1.93,2.75-3.73,3.19-6
			c-0.1-0.08-0.21-0.19-0.31-0.29c-0.59,0.04-0.94,0.99-1.72,0.36c1.17-1.76,1.87-3.71,2.16-5.93c-1.01-0.04-1.97-0.1-3.25-0.17
			c2.01-2.03,3.77-3.92,4.21-6.77c-0.61,0.25-1.09,0.44-1.55,0.63c-0.06-0.21-0.15-0.36-0.1-0.46c0.82-1.61,1.61-3.25,1.82-5.07
			c0.08-0.9,0.86-2.03-0.08-2.6c-0.73-0.46-1.38,0.73-2.39,1.22c0.31-3.88,1.72-7.04,4.23-9.81c-0.99-0.42-1.76,0.23-2.81,0.21
			c0.8-2.56,2.75-3.67,4.97-4.51c-2.28-1.87-3.73-2.05-6.71-0.92c0.36,0.82,1.32,0.38,1.82,0.88c-0.19,0.8-1.05,0.88-1.49,1.4
			c-0.57,0.67-0.84,0.8-1.07-0.34c-0.17-0.88-1.22-0.8-2.01-0.82c-0.42-0.02-1.03,0.23-1.15-0.42c-0.13-0.59,0.42-0.82,0.8-1.05
			c0.69-0.4,1.38-0.94,2.12-0.99c2.91-0.19,2.58-1.61,1.45-3.42c-0.13-0.23-0.67-0.31-0.31-0.65c0.21-0.21,0.59-0.1,0.75,0.25
			c1.17,0.4,1.84,1.47,2.79,2.16c0.8,0.57,0.75,0.57,1.43-0.36c0.44-0.61,0.8-0.13,1.13,0.15c2.58,1.95,5.45,3.14,9.22,3.44
			c-1.99,0.94-3.61,0.73-5.09,0.84c-0.13,0.82,0.61,0.92,1.03,1.53c-2.18,0.27-4.4-0.69-6.52,1.19
			C61.27,60.04,62.45,60.12,63.64,60.21z M78.38,94.98c0.31-1.09,0.8-1.95,0.5-3.02c-1.49,0.27-2.35,2.05-4,1.87
			c-0.63-0.71,0.71-1.28-0.08-2.03c-2.18,0.04-4.02,1.55-6.33,1.82c1.15-0.94,2.31-1.91,3.69-3.06c-1.68-0.15-3.1-0.1-4.38-0.69
			c0.02-0.59,0.99-0.52,0.88-1.22c-1.03-0.27-2.18,0.25-3.48-0.63c1.64-0.44,2.96-0.84,3.79-2.08c0.42-0.65,0.46-0.61-0.02-1.89
			c-0.23-0.63,0.36-0.8,0.71-1.05c1.76-1.24,3.63-2.1,5.83-2.41c-1.34,0.65-2.68,1.87-4.61,3.37c-0.46,0.36-1.26,0.86,0.19,1.36
			c1.15,0.4-0.55,0.73-0.36,1.36c0.61,0.06,1.24,0.15,1.78,0.23c0.06,0.82-1.05,0.71-0.73,1.51c1.32,0.34,2.62,0.13,4.09,0.96
			c2.16,1.22,4.88-0.13,6.67-1.59c2.31-1.89,3.54-4.7,3.48-7.97c-0.88,0.23-0.82,1.34-1.7,1.32c-0.48-1.13-0.59-2.54-2.14-3.27
			c0.13,1.34,0.61,2.58-0.23,3.69c-1.53-0.88-2.73-1.32-3.77-1.45c-1.45-0.94-2.79-1.03-4.21-1.07c0.57-1.09,1.66-1.05,2.37-1.61
			c-2.39-0.75-3.52-0.65-6.69,0.61c1.05-1.72,1.05-1.72,6.65-3.88c-0.48-0.69-1.38-0.67-2.2-1.17c1.51-1.19,3.23-0.99,5.09-1.01
			c-1.19-1.78-2.98-2.12-4.65-2.66c2.16-0.73,4.13-0.34,8.22,1.72c0.17-1.36-0.61-2.2-1.61-3.42c3.67,0.23,5.14,2.68,6.52,5.18
			c0.99-0.96,0.65-2.14,0.82-3.23c1.38,1.66,1.38,1.66,1.34,9.39c1.03-0.38,0.92-1.57,1.87-2.33c0.13,3.84-0.52,7.27-2.1,10.57
			c-0.27,0.59-0.46,1.66-1.36,1.3c-0.71-0.31-0.19-1.22-0.15-1.95c-1.32,1.53-1.91,3.52-3.54,4.82c-0.84-0.34,0.02-1.32-0.71-1.7
			C82.28,91.61,81.12,93.94,78.38,94.98z M75.74,86.87c-1.74-0.94-2.85-1.76-1.34-3.56C74.81,84.46,75.21,85.51,75.74,86.87z
			 M78.86,81.82c1.53,0.29,2.73,0.75,2.62,2.43c-0.1,1.8-1.61,2.6-4.7,2.41C79.7,85.55,80.06,84.67,78.86,81.82z M111.52,139.74
			c-1.3,6.16-6.98,9.2-12.89,6.92c-2.14-0.82-2.52-2.89-3.48-4.55c-1.68-2.91-1.68-6.02-0.86-9.16c0.34-1.26,5.91-3.71,7.02-3.06
			c1.01,0.57,0.78,1.97,1.76,3.17c0.06-3.77,0.57-4.09,3.88-2.81C110.05,131.46,112.28,136.07,111.52,139.74z M94.94,102.03
			c1.49-2.1,3.4-3.04,5.91-2.26c1.43,0.44,2.81,0.34,4.19-0.02c1.93-0.48,3.48,0.29,4.97,1.47c-1.99-0.15-3.71,0.44-5.32,1.47
			c-1.36,0.9-2.68,0.52-4.02-0.08C98.84,101.76,96.97,101.15,94.94,102.03z M99.59,108.21c-0.44,2.56-1.28,3.02-4.32,2.35
			C96.76,109.8,98.75,110.1,99.59,108.21z M109.91,110.64c-2.37,0.82-3.5-0.52-4.47-2.75C107.18,108.8,107.85,110.92,109.91,110.64z
			 M122.04,122.97c-0.84,0.46-1.01-0.9-1.87-0.59c0.36,3.58-2.62,7.09-3.77,8.59c-0.13-1.74-0.88-3.29-2.16-4.88
			c-0.17,0.78-0.27,1.28-0.5,2.41c-0.4-2.47-2.56-2.43-3.4-3.86c-0.21-0.36-0.73-0.84-1.03-0.8c-0.9,0.13,0.38,1.15-0.44,1.43
			c-0.99-0.27-1.11-1.53-1.97-1.82c-1.38-0.42-1.84-0.73-1.28-1.51c0.82-1.15-0.65-2.26,0.23-3.33c0.08-0.08-0.52,0.04-0.8,0
			c-0.15,0.1-0.36,0.34-0.42,0.29c-0.42-0.19-0.06-0.42,0.04-0.63c0.52-0.65,1.07-1.3,1.59-1.95c-0.44-0.46-1.19,0.19-1.55-0.5
			c1.89-1.01,3.79-1.95,5.62-3.04c3.21-1.95,3.67-5.3,3.5-8.53c-0.13-2.85-2.49-4.42-4.99-5.45c-1.4-0.59-2.93-0.54-4.44-0.5
			c-1.26,0.04-2.54,0.04-3.77-0.06c-3.44-0.27-7.92,2.77-8.97,6.16c-1.03,3.29,0.96,7.99,4.15,9.64c1.19,0.61,2.45,1.05,3.67,1.64
			c0.52,0.23,0.96,0.63,1.47,0.94c-2.03-0.21-2.03-0.21-4.88,1.36c1.34,0.06,2.56,0.13,4.28,0.21c-0.86,0.52-1.28,0.78-1.72,1.05
			c0.44,0.13,0.86,0.25,1.34,0.4c-0.46,0.52-1.34,0.4-1.53,1.24h1.09c0.75,0.02,1.7-0.36,2.05,0.65c0.31,0.86-0.31,1.49-0.9,2.03
			c-0.57,0.55-1.13,1.19-1.97,1.15c-0.5-0.02-0.06-0.48-0.13-0.73c-0.1-0.08-0.21-0.19-0.29-0.29c-1.51,0.96-3.31,1.43-4.61,2.77
			c-0.19,0.19-0.69,1.05-0.92,0.15c-0.36-1.47-0.75-0.4-1.05-0.08c-0.88,0.94-2.1,1.72-2.79,2.56c-1.76,2.2-4.55,2.08-6.48,3.63
			c-0.1,0.08-0.31-0.02-0.63-0.04c1.03-1.3,0.57-1.51-0.8-1.34c-0.8,0.08-2.56-0.02-2.35-0.31c0.29-0.4,0.44-0.65,0.46-0.84v-0.04
			c0,0,0,0,0-0.02l0.38-4.11c0.1-2.14,0.57-4.76-0.29-6.16c-1.57-2.6,0.15-4.36,0.34-6.5c0.06-0.82,2.1-2.05-0.38-2.52
			c0.1-0.31,0.21-0.65,0.34-0.96c0.71-1.95,1.89-3.65,3.04-5.35c-0.19-0.15-0.36-0.27-0.52-0.4c-0.34,0.04-0.96,0.27-0.65-0.4
			c0.5-1.07,1.19-2.03,1.82-3.02c0.25-0.4,0.9-0.9,0.82-1.09c-1.45-2.93,1.66-2.91,2.7-4.17c0.57-0.65,1.59-0.88,2.73-1.49
			c-1.03-0.1-1.74-0.17-2.93-0.29c2.66-1.72,5.24-1.99,7.84-2.18c0.17-1.22-1.09-1.47-1.45-2.26c1.13-0.44,2.16,0.25,3.48,0.38
			c-0.59-1.45-1.13-2.75-1.68-4.07c0.73-0.61,1.01,0.59,1.74,0.36c0.8-2.33-0.29-4.84,0.75-7.4c0.9-2.16-1.64-4.86,0.27-7.74
			c0.65,1.66,1.84,2.87,0.8,4.65c-0.42,0.71,0,1.51,0.13,2.24c0.31,1.8,1.15,3.37,0.75,5.45c-0.48,2.56,2.6,4.02,2.89,6.54
			c2.33,0.06,2.49,2.77,4.36,3.52c2.01,0.8,0.44-0.84,0.5-0.88c4.7,0.86,5.68,5.95,9.71,7.53c-0.48,0.15-0.9,0.27-1.36,0.4
			c1.51,2.49,4.13,4.02,5.3,6.73c-0.63-0.17-1.19-0.31-2.12-0.57c0.8,1.78,1.8,3.1,2.22,4.93c-0.84-0.36-1.43-0.59-2.52-1.03
			c0.9,1.45,1.59,2.54,2.24,3.61c0.86,1.45-0.29,1.13-1.15,1.13C120.77,117.5,122.09,119.97,122.04,122.97z M123.6,88.34
			c0.65,1.07,1.76,1.84,1.91,3.35c-1.03,0.38-2.49-1.17-2.98,0.25c-0.46,1.32,1.11,1.84,2.18,2.73h-3.02
			c0.36,1.49,1.8,1.99,2.66,3.4c-6.27-1.74-11.86-3.88-16.33-8.36c0.48-0.57,1.24,0.29,1.91-0.27c-1.68-1.66-3.23-3.4-4.36-5.47
			c0.69-0.61,1.07,0.29,1.95,0.46c-1.84-3.5-2.96-6.96-1.82-10.88c0.78,0.73,0.48,1.76,0.99,2.85c1.34-2.52,2.22-5.2,4.67-6.69
			c0.19-0.15,0.31-0.63,0.63-0.25c0.21,0.23,0.08,0.57-0.29,0.69c-0.19,0.9-0.69,1.76-0.31,3.02c2.29-1.09,4.47-2.52,7.46-2.2
			c-1.74,1.03-3.33,1.74-4.05,3.77h4.82c-1.57,1.11-3.1,0.94-4.05,2.31c2.52,0.31,5.05,0.04,7.44,1.28
			c-0.92,0.78-2.14,0.04-2.83,0.9c0.17,0.65,1.19,0.36,1.28,1.11c-0.75,0.67-1.78-0.04-2.75,0.63c-0.88-0.44-1.89-0.42-2.87-0.19
			c-1.78,0.44-1.99-0.23-1.8-1.61c-1.28,0.17-0.99,2.64-2.87,2.03c-0.96,5.53-0.42,6.83,4.09,9.18c0.21,0.1,0.4,0.25,0.63,0.29
			c1.03,0.17,2.24,0.13,2.77-0.67c1.15-1.82,3.04-2.85,4.38-4.61c-0.84-0.82-2.12-1.57-2.68-2.7c-0.27-0.52-0.59-0.92-0.92-1.24
			c1.22,0.65,2.24,1.45,3.06,2.54c0.94,1.26,2.03,2.39,3.35,3.33C125.31,88.21,124.22,87.73,123.6,88.34z M118.59,87.25
			c-0.88,1.03-1.89,1.24-3.14,0.71c-1.34-0.55-2.66-1.09-2.26-3.1c1.09,0.71,1.49,2.37,3.14,2.05c1.66-0.31,1.99-1.53,2.08-3.17
			C119.61,85.19,119.51,86.2,118.59,87.25z M131.88,110.1c-0.13-0.02-0.29-0.08-0.48-0.15c-0.23-0.08-0.25-0.25-0.02-0.31
			c0.17-0.04,0.4-0.02,0.57,0.04C132.17,109.76,132.15,109.91,131.88,110.1z M135.86,72.6c0.57,0.4,0.46,0.38,0.21,1.22
			c-0.29,0.94,0.9,1.09,1.19,1.76c0.15,0.38,0.82,0.71,0.15,1.11c-0.19,0.13-0.59-0.1-0.9-0.17c-0.17,0.15-0.34,0.29-0.5,0.44
			c0.48,1.57,1.3,3.06,1.26,4.84c-1.03-0.25-1.24-1.49-2.24-1.61c-0.38,1.97-0.38,1.97,2.22,5.64c-2.16-0.02-2.16-0.02-4.74-1.93
			c0.13,2.89,1.76,4.86,3.29,6.9c-1.28,0.61-2.16-0.48-3.44-0.48c0.71,2.87,2.58,4.61,4.97,6.31c-0.82,0-1.66,0.15-2.41-0.04
			c-2.52-0.61-2.62,0.55-2.05,2.49c0.34,1.11,0.48,2.28,1.34,3.29c0.25-0.73,0.5-1.38,0.88-2.45c2.1,3.5,3.71,6.83,3.61,10.69
			c-0.04,1.7,0.69,0.69,1.3,0.5c0.02,2.64-0.92,5.3,0.31,7.88c0.99-0.1,0.59-1.32,1.38-1.51c0.57,0.31,0.94,2.81,0.55,2.73
			c-1.97-0.44-0.61,1.45-1.47,1.78c-3.63-5.45-1.91-12.54-4.95-18.36c-0.94,0.73-0.23,1.51-0.52,2.12
			c-1.26,0.31-4.17-8.03-4.05-11.66c0.59,0.17,1.13,0.34,1.57,0.46c0.48-0.25,0.27-0.52,0.17-0.67c-1.47-1.82-2.35-3.9-2.77-6.21
			c-0.25-1.4,0.42-0.94,1.07-0.52c0.17-0.21,0.34-0.42,0.48-0.65c-0.5-1.74-1.09-3.48-0.82-5.41c1.01,0.13,1.51,1.07,2.43,0.96
			c0.1-0.1,0.23-0.21,0.36-0.34c-0.82-1.32-1.43-2.7-1.74-4.26c-0.38-1.97,0.44-1.95,1.78-1.17c0.1-0.23,0.21-0.44,0.31-0.65
			c-0.57-1.97-1.8-3.46-3.54-4.99c0.78-0.06,1.32-0.1,2.03-0.15c-0.99-1.95-2.6-3.08-4.44-3.96c0.5-0.48,1.22-0.15,2.05-0.48
			c-2.56-2.31-4.32-5.39-8.59-6.14c3.08-0.38,7.74,1.47,10.31,3.79c-0.82-0.06-1.45-0.13-2.03-0.17c-0.82,1.15,4.13,3.5,7.5,3.69
			c0.57,0.04,1.11,0.02,1.72,0.02c-0.25,0.96-1.32,0.5-1.66,1.19c1.57,0.75,3.44,0.82,5.41,2.24c-3.46-0.46-6.25-1.43-9.27-1.3
			C133.83,70.94,134.77,71.82,135.86,72.6z"/>
		<path d="M60.32,157.39c0,0.02,0,0.05,0,0.07c0.01,0,0.02-0.01,0.03-0.01L60.32,157.39z"/>
		<path d="M75.49,128.82c0.03,0.01,0.06,0.02,0.09,0.04c0,0,0,0,0-0.01L75.49,128.82z"/>
	</g>
	<path class="st0" d="M163.74,77.92c0.46,1.59,1.84,2.91,1.57,4.78c-0.61-0.55-1.11-1.15-1.74-1.55c-0.86-0.52-1.97-1.4-2.79-0.69
		c-0.75,0.69-0.82,2.03-0.29,3.12c0.29,0.61,0.67,1.15,1.13,1.91c-0.88-0.1-1.57-0.19-2.39-0.29c0.23,1.45,1.26,2.77,0.59,4.32
		c-0.92-0.25-1.01-1.68-2.39-1.53c-0.48,1.89,0.17,3.56,1.19,5.16c-0.71,0.73-1.28-0.44-2.03-0.04c0.21,1.66,0.82,3.35,0.46,5.11
		c-0.86,0.08-0.75-0.61-1.01-0.94c-0.63-0.78-1.17-2.12-2.18-1.82c-0.9,0.27-0.92,1.7-1.09,2.68c-0.27,1.57,0.42,2.89,1.24,4.17
		c-0.73,0.46-1.26-0.15-1.97-0.19c-0.23,3.06,3.21,4.07,3.79,6.71c-1.3,0.44-2.14-1.17-3.46-0.48c1.17,2.7,2.68,5.32,2.7,8.64
		c-0.86-0.99-1.51-1.93-2.35-2.64c-0.67-0.59-1.64-1.45-2.45-0.78c-0.61,0.52-0.25,1.68,0.21,2.43c0.8,1.22,0.19,1.24-0.8,1.01
		c-0.08-0.21-0.23-0.42-0.46-0.25c-0.08,0.06,0.02,0.38,0.04,0.57c0.25,1.13,1.05,2.14,0.73,3.5c-0.94-0.69-1.59-1.8-3.04-1.78
		c-0.04,2.05,1.03,3.58,2.37,4.99c-0.88,0.59-1.28-0.38-1.93-0.46c-0.17-0.06-0.36-0.1-0.52-0.17c0,0.19,0.02,0.38,0.04,0.59
		c0.4,1.57,1.51,2.68,2.66,3.75c-1.15,0.86-2.01-0.46-3.1-0.1c0.65,2.66,2.05,4.76,4.55,6.25c-1.07,0.71-2.12-0.04-3.12,0.48
		c0.75,1.05,2.58,1.28,2.73,2.98c-1.07,0.04-2.22-1.11-2.85-0.21c-0.59,0.84,0.42,1.91,0.92,2.77c1.17,1.97,3.02,3.17,5.79,4.07
		c-1.22,0.17-1.82,0.27-2.49,0.38c0.75,1.47,2.64,2.39,2.24,4.59c-1.03-1.32-2.05-2.49-3.96-2.33c0.61,0.99,1.26,1.82,1.66,2.79
		c0.42,1.03,1.11,1.68,2.08,1.78c-1.43,1.45-2.89,2.85-4.4,4.17c-1.32,1.17-2.66,2.28-4.05,3.37c0,0,0,0-0.02,0.02
		c-6.98,5.49-14.82,9.96-23.25,13.21c-5.7,2.2-11.68,3.84-17.88,4.8c-4.7,0.78-9.52,1.17-14.42,1.17c-5.03,0-9.96-0.42-14.78-1.22
		c-0.1,0-0.21-0.02-0.31-0.06c-14.78-2.47-28.32-8.57-39.72-17.36c-1.61-1.24-3.19-2.54-4.72-3.88c-1.53-1.34-3.02-2.75-4.44-4.21
		c0.19,0.04,0.42,0.02,0.67-0.06c0.94-0.36,1.01-1.09,0.92-1.93c-0.25-2.83-0.57-5.66-0.25-8.89c-1.66,1.57-2.87,3.21-5.3,3.98
		c3.35-5.81,4.8-11.68,3.98-18.15c-1.4,0.31-1.72,1.59-2.66,2.58c-0.44-4.95,0.61-9.39,2.45-13.86c-1.22-0.19-2.22,0.88-3.54,0.29
		c1.51-1.55,2.75-3.25,3.21-5.35c0.44-2.1,0.75-4.19,0.13-6.46c-1.49,0.63-1.53,2.22-2.28,3.42c-0.63-2.37-0.52-3.19,0.86-8.07
		c-0.92-0.44-1.17,0.96-2.12,0.71c-0.42-1.47,0.73-2.73,0.71-4.32c-0.67-0.25-0.96,1.07-1.78,0.42c0.48-1.28,1.26-2.6,0.78-4.26
		c-0.86,0.5-1.72,1.01-3.02,1.74c0.73-1.74,1.66-3.04,1.11-4.76c-1.72,0.21-2.98,1.3-4.36,2.33c0.38-2.85,1.95-4.99,3.79-7.25H17
		c2.16-2.05,4.42-3.29,7.17-4.53c-1.22-0.31-2.08-0.55-3.48-0.92c3.38-1.22,5.91-2.91,7.74-5.7c-1.53-0.55-2.54,1.24-4.07,0.69
		c2.1-3.21,4.78-5.72,8.18-7.8c-0.86-0.63-1.66-0.06-2.58-0.38c2.2-2.03,4.86-2.62,7.48-3.31c0.27-0.92-1.03-0.52-1.05-1.32
		c0.1-0.08,0.27-0.25,0.46-0.27c0.94-0.15,1.91-0.19,2.81-0.4c3.06-0.67,3.21-0.99,1.82-3.73c1.05-0.75,2.24,0.94,2.96,0.06
		c0.63-0.75-0.06-2.16,0.65-3.14c0.92,0.15,1.61,2.01,2.18,1.09c0.9-1.47,0.59-3.35-0.71-4.91c1.05-0.54,1.84,0.19,2.75,0.34
		c0.38-1.7-0.88-2.58-1.74-3.71c1.3-0.38,2.26,0.34,3.52,0.69c-0.21-1.95-0.4-3.75,0-6.1c1.01,1.97,1.93,3.48,3.86,4.11
		c0.25-1.3,0.17-2.58,1.03-3.86c0.61,2.2,1.13,4.3,3.23,5.58c0.57-1.3,0.25-2.54,0.29-4.07c1.28,1.28,1.64,2.75,2.33,4
		c0.73,1.34,1.68,2.45,3.23,3.35v-3.65c1.53,2.81,3.25,4.42,6,5.18c-0.25-0.84-0.44-1.53-0.78-2.64c2.12,1.3,4.02,2.45,6.23,1.03
		c0-0.86-1.28-1.15-1.07-2.33c1.57,0.27,3.21,1.05,4.8-0.04c-0.25-1.34-1.19-2.12-2.64-2.93c2.73-0.61,4.95-0.04,7.06,0.92
		c0.75-1.17-0.29-1.84-0.52-2.87c1.76,0.19,3.02,1.13,3.82,2.45c1.22,1.97,2.03,1.36,2.96-0.15c0.15-0.25,0.4-0.44,0.65-0.69
		c1.26,4.17,1.26,4.17,4.59,1.09c0.88-0.8,1.7-1.64,3.1-1.97c0.06,0.88,0.15,1.68,0.21,2.56c1.49-0.1,2.6-1.34,4.11-1.07
		c-0.02,0.17,0.02,0.36-0.04,0.42c-0.88,0.8-1.43,1.97-1.01,2.96c0.46,1.15,1.8,0.38,2.75,0.48c1.36,0.13,2.54-0.63,3.77-1.13
		c0.88,4.86,1.07,4.91,6.71,1.61c0.82,1.15-0.61,2.01-0.38,3.12c1.66,0.46,3.19-0.08,4.59-0.86c0.61,0.82-0.61,1.36-0.13,2.08
		c1.72,0,2.85-1.03,3.9-2.18c0.61,0.75-0.36,1.43,0.13,2.16c2.03-1.09,2.35-2.98,2.31-5.11c0.9,0.17,0.94,1.01,1.4,1.51
		c1.22-0.67,1.15-2.01,1.76-3.14c0.67,0.63,0.96,1.34,0.84,2.08c-0.42,2.39,0.9,2.47,2.68,2.24c1.32-0.19,2.62,0.02,4.02,0.61
		c-1.03,0.94-3.06,1.09-2.83,2.37c0.23,1.3,2.16,0.69,3.25,1.19c1.64,0.75,3.58,0.94,4.97,2.79c-1.47,0.08-2.7-0.9-3.86,0.15
		c1.43,3.25,5.11,3.04,7.74,4.99c-1.32,0.38-2.6-0.08-3.58,0.92c1.97,2.22,4.51,2.52,7.21,2.12c0.44,0.99-1.01,0.94-0.84,1.82
		c2.58,0.15,5.18,0.31,7.69,1.13c-0.69,0.94-2.1,0.92-2.6,2.22c1.78,0.55,3.73,0.59,5.43,1.78c-0.88,0.31-1.68,0.59-2.77,0.96
		c3.46,1.76,7.82,0.96,10.4,4.72C165.73,78.24,164.77,77.35,163.74,77.92z"/>
</g>
</svg>
