<?xml version="1.0" encoding="utf-8"?>
<!-- Generator: Adobe Illustrator 23.0.1, SVG Export Plug-In . SVG Version: 6.00 Build 0)  -->
<svg version="1.1" id="Layer_1" xmlns="http://www.w3.org/2000/svg" xmlns:xlink="http://www.w3.org/1999/xlink" x="0px" y="0px"
	 viewBox="0 0 180 180" style="enable-background:new 0 0 180 180;" xml:space="preserve">
<style type="text/css">
	.st0{fill:none;}
	.st1{fill:#ECF8FE;}
	.st2{clip-path:url(#SVGID_2_);}
	.st3{fill:#101010;}
	.st4{fill:#191A1A;}
	.st5{fill:#121212;}
	.st6{fill:#080909;}
</style>
<g>
	<circle class="st1" cx="90" cy="90" r="90"/>
	<path d="M157.91,54.01c0.02-0.01,0.04-0.02,0.06-0.03c0.05-0.07,0.09-0.13,0.1-0.19c-0.01-0.02-0.02-0.03-0.04-0.05
		C157.98,53.82,157.95,53.92,157.91,54.01z"/>
	<g>
		<path class="st5" d="M72.5,84.89c-2.14-5.07-7.9-6.27-12.03-2.49c-0.46,0.42-0.88,0.8-0.31,1.4c0.27,0.29,0.55,0.55,0.82,0.82
			c2.24,2.08,4.91,3.4,7.97,3.96c0.44,0,0.9,0.04,1.32,0c1.34-0.17,2.18-0.29,2.6-0.63C73.49,87.49,73.26,86.67,72.5,84.89z
			 M71.27,84.09c1.51,2.81,1.24,3.31-1.59,3.4c-0.75,0.02-1.49,0-2.33-0.15C69.17,86.9,70.68,86.15,71.27,84.09z M66.23,81.33
			c0.99,0,1.38,0.65,1.57,1.51c-0.15,0.94-0.69,1.55-1.59,1.55c-0.92,0-1.49-0.59-1.49-1.55C64.7,81.83,65.25,81.33,66.23,81.33z
			 M63.11,81.85c-0.57,1.17-0.67,2.24,0.02,3.5C60.68,83.55,60.68,83.11,63.11,81.85z"/>
		<g>
			<path class="st5" d="M80.22,176.79c-0.36-0.04-0.71-0.08-1.07-0.15c0-0.25-0.04-0.52-0.1-0.86
				C79.65,176.04,79.99,176.37,80.22,176.79z"/>
			<path class="st5" d="M163.27,134.38c-0.59-3.79-1.78-7.46-2.08-11.34c-0.57-7.42-1.68-14.74-4.78-21.65
				c-1.38-3.1-2.31-6.39-2.79-9.77c-1.45-10.19-6-19.14-11.01-27.92c-1.68-2.96-4.11-4.53-7.67-3.86c-3.4,0.65-6.14-0.65-8.66-2.81
				c-2.47-2.14-5.01-4.21-7.53-6.31c-0.25,0.02-0.34-0.1-0.38-0.31c-4.11-2.49-8.53-4.3-13.29-5.09c-3.67-0.59-7.32-1.11-10.75-2.62
				c-1.26-0.57-2.68-0.44-3.92-0.1c-4.86,1.34-9.87,1.24-14.8,1.76c-6.58,0.71-12.7,2.62-17.32,7.76c-0.99,1.09-2.22,1.59-3.65,1.76
				c-1.3,0.13-2.7,0.13-3.77,1.03c-1.4,1.17-3.08,1.64-4.82,1.97c-4.42,0.86-8.01,3.04-10.29,6.98c-1.53,2.66-2.83,5.45-4.26,8.18
				c-0.4,0.67-0.61,1.47-1.28,1.99c-0.1,1.05-1.01,1.53-1.55,2.26c-0.36,0.88-1.03,1.53-1.72,2.16c-4.44,5.43-7.06,11.72-8.39,18.55
				c-1.57,8.15-3.27,16.27-4.93,24.42c-1.49,7.32-0.02,14.21,4.65,20.17c5.72,7.29,13.58,11.45,22.22,14.28
				c2.91,0.96,5.66,0.02,8.55-1.13c-0.27,2.35-0.52,4.47-0.75,6.6c-0.1,0.82-0.46,1.05-1.26,0.61c-3.08-1.72-6.35-1.89-9.66-1.57
				c6.39,4.61,13.42,8.41,20.92,11.22c-0.4-0.65-0.8-1.43-1.28-2.33c0.67-0.57,1.15,0.5,1.87,0.27c-0.42-1.09-0.8-2.12-1.3-3.46
				c0.67,0.29,1.11,0.46,1.76,0.73c-0.29-0.9-0.55-1.7-0.8-2.47c1.47,1.26,2.91,2.52,4.7,3.48c-0.65,0.31-1.13,0.08-1.59-0.04
				c-0.08,0.08-0.19,0.19-0.27,0.29c0.13,1.97,1.66,2.98,3.06,4.3c-1.28-0.06-2.31-0.4-3.4-0.82c0.42,0.34,0.52,0.75,0.52,1.19
				c2.01,0.69,4.07,1.3,6.16,1.82c1.97-0.73,3.56-1.91,4.82-3.73c-1.64,0.13-3.1,0.63-4.82,0.4c1.05-0.9,2.52-0.61,3.4-1.68
				c-1.59-0.31-3.21-0.19-4.67-0.92c3.17,0.1,6.02-0.59,8.34-2.87c-0.08-0.08-0.17-0.19-0.25-0.29c-1.47,0.31-2.93,0.71-4.93,0.44
				c1.87-0.84,3.69-0.82,5.09-2.26c-0.86-0.1-1.57-0.19-2.26-0.27c2.05-0.04,3.54-1.51,5.35-2.14v-0.06l0.02-0.02
				c-0.02-0.06-0.04-0.1-0.06-0.17c0.08-0.02,0.15-0.02,0.23-0.02c-0.04,0.06-0.1,0.13-0.17,0.19c0.02,0.02,0.02,0.04,0.04,0.06
				c-0.02,0-0.04,0-0.06,0.02c0,1.07-0.59,2.16,0.15,3.37c1.91-2.08,2.54-4.65,3.4-7.53c0.65,2.49,1.7,4.53,1.24,6.81
				c-0.19-0.29-0.44-0.61-0.82-0.44c-0.46,0.21-0.17,0.63-0.06,0.96c0.31,1.03,0.65,2.01,1.01,3.06c-1.13-0.25-1.13-0.25-0.75,2.35
				c-0.73-0.54-0.9-1.55-1.82-1.66c-0.29,1.03,0.36,1.8,0.75,2.62c0.4,0.86,0.78,1.72,1.01,2.77c-0.9-0.34-1.15-1.34-2.16-1.57
				c0.38,1.61,1.34,3.12,1.09,4.88c3.02,0.31,6.06,0.46,9.16,0.46c1.78,0,3.54-0.04,5.3-0.17c-0.1-0.54-0.19-1.38-0.29-2.66
				c0.5,1.01,0.94,1.82,1.32,2.6c1.45-0.08,2.89-0.23,4.32-0.4c-0.06-0.57-0.08-1.34-0.06-2.31c0.44,0.8,0.82,1.51,1.28,2.14
				c2.08-0.25,4.11-0.59,6.12-1.01c-1.3,0-2.52-0.36-3.58-1.07h2.73c-1.55-1.17-3.02-2.2-3.63-4.32c0.59,0.38,0.96,0.63,1.34,0.86
				c0.36,0.23,0.82,0.69,1.15,0.34c0.5-0.5-0.34-0.8-0.42-1.24c-0.15-0.25-0.27-0.5-0.4-0.78c0.42-0.13,0.55,0.25,0.75,0.48
				c0.44,0.17,0.86,0.34,1.4,0.52c-0.13-0.59-0.23-1.07-0.34-1.53c-0.02-0.02-0.02-0.02-0.04-0.02c0-0.04-0.02-0.06-0.02-0.08
				c-0.04-0.06-0.1-0.1-0.17-0.17c0.04,0,0.1-0.02,0.17-0.02v0.19c0.02,0.02,0.04,0.04,0.06,0.04v0.06c1.91,0.86,3.84,1.64,6.25,1.4
				c-1.13,0.88-2.22,0.78-3.46,0.92c1.7,1.49,3.61,0.96,5.66,1.05c-1.72,1.22-3.56,1.22-5.26,1.61c0.27,0.71,1.09,0.46,1.55,0.86
				c-0.08,0.04-0.17,0.08-0.25,0.1c8.66-2.12,16.83-5.49,24.3-9.94c0.4-0.29,0.8-0.52,1.22-0.73c1.99-1.22,3.94-2.49,5.83-3.88
				h-0.08c0.5-0.73,1.13-0.92,1.66-1.17c0.08-0.02,0.15-0.06,0.23-0.1c5.87-3.19,11.19-7.06,15.43-12.31c1.76-2.18,2.81-4.51,3.21-7
				C163.56,137.92,163.54,136.21,163.27,134.38z M145.85,75.46c0.9,0.06,0.9,0.88,1.15,1.43c2.56,5.47,3.33,11.32,3.56,17.27
				c0.1,2.7,0.67,5.07,2.33,7.38c3.35,4.63,4.67,10.06,5.22,15.68c-0.92-2.89-1.8-5.76-3.25-8.43c-0.46-0.88-1.03-1.72-1.59-2.56
				c-0.5-0.75-1.22-1.59-2.08-1.43c-1.07,0.19-1.13,1.4-1.3,2.33c-0.86,4.91-2.35,9.64-3.94,14.36c-0.1,0.34-0.08,0.88-0.9,1.09
				C148.49,106.88,150.67,91.26,145.85,75.46z M128.62,72.02c0,0,0,0,0.02,0c-0.02,0-0.02,0-0.02,0.02c0.13,0.1,0.25,0.23,0.4,0.34
				l0.38,0.38c0.19,0.17,0.4,0.34,0.59,0.48c1.45,1.66,2.49,3.52,2.89,5.66c0.29,1.49,0.9,2.18,2.68,1.57
				c-4.05,1.55-3.65,5.97-6.12,8.55c1.22-2.1,1.05-4.53,1.91-6.69c0.94-2.39,0.4-4.7-0.65-6.94c-0.29-0.61-0.67-1.19-1.01-1.8
				c-0.19-0.21-0.38-0.4-0.59-0.61c-0.13-0.13-0.25-0.25-0.38-0.4c-0.15-0.17-0.42-0.34-0.1-0.55V72.02
				c-0.71,0.38-0.73-0.4-1.53-0.8C128.05,71.39,128.41,71.6,128.62,72.02z M127.01,117.65c2.68-6.29,5.2-12.39,6.33-19.33
				C135.31,103.44,131.47,114.99,127.01,117.65z M128.91,82.52c-0.73,0.86-1.74,0.27-2.56,0.65c-0.34,0.73,0.71,0.94,0.61,1.84
				c-2.54-0.86-4.3,0.75-6.25,1.93c-0.46,0.27-0.92,0.48-1.4,0.67c1.07-0.5,2.12-1.17,3.12-1.91c-0.13-0.1-0.25-0.23-0.38-0.36
				c-0.13-1.15,0.8-2.35-0.61-3.63c2.64,0.94,2.73,1.28,1.19,3.1l0.38,0.38c0.92-0.46,1.97-1.17,1.97-2.1
				c0-1.01-1.28-1.38-2.18-1.78c-5.49-2.54-8.39-1.4-10.69,4.15c-0.06,0.19-0.13,0.38-0.21,0.52c-0.8,1.26-0.19,1.72,1.01,2.12
				c0.17,0.06,0.34,0.1,0.52,0.15c-1.82-0.04-3.31,0.48-4.38,2.2c-0.04-1.47,0.52-2.7,1.22-3.9c0.63-1.09,1.07-1.99-1.7-1.55
				c2.58-1.55,3.71-3.33,4.93-5.05c1.76-2.47,4.3-3.5,7.55-3.25c-0.04,0.67-1.05,0.4-1.15,1.28
				C123.67,77.97,125.62,81.43,128.91,82.52z M117.01,84.45c-0.94,0.04-1.57-0.5-1.61-1.43c-0.06-0.94,0.57-1.45,1.51-1.68
				c0.84,0.15,1.47,0.52,1.53,1.53C118.47,83.86,117.95,84.41,117.01,84.45z M118.43,86.86c-2.05,0.8-3.82,0.9-5.26,0.06
				c-1.34-0.8,0.23-1.82,0.29-3.12C115.04,86.55,115.1,86.61,118.43,86.86z M101.07,58.16c5.56-6.71,14.15-6.31,19.52-1.84
				c-0.1,0.06-0.23,0.19-0.27,0.17c-6.71-3.17-13.04-2.64-18.93,1.97c-0.17,0.31-0.55,0.8-0.73,0.63
				C100.19,58.62,100.91,58.45,101.07,58.16z M103.86,68.58c0.25,0.94-0.52,1.36-0.88,1.93c-0.94,1.64-2.01,3.21-2.1,5.18
				c-0.02,0.29-0.13,0.65,0.25,0.82c0.36,0.15,0.61-0.13,0.8-0.36c0.38-0.42,0.71-0.88,1.07-1.32c2.58-3.33,6.75-5.72,10.23-5.68
				c-3.65,1.43-6.79,3.54-9.1,6.75c-2.75,3.82-2.7,6.94,0.13,10.31c-0.65,0.36-0.9-0.59-1.59-0.38c1.55,3.86,4.13,6.85,7.34,9.37
				c2.37,1.89,4.91,3.56,6.75,6.04c0.67,0.88,1.36,0.59,2.12,0.1c1.45-0.9,2.41-2.28,3.61-3.48c-0.57,3.21-5.14,4.93-3.44,9.1
				c-1.76-4.05-4.82-6.69-8.13-9.1c-1.32-0.96-2.6-1.99-3.82-3.08c-3.04-2.73-5.11-6.14-6.94-9.83v2.96
				C97.41,82.33,98.01,73.23,103.86,68.58z M81.37,97.11c-0.04-0.92,0.78-2.12-0.19-2.54c-1.01-0.44-1.53,0.84-2.14,1.49
				c-2.18,2.41-4.76,4.36-7.25,6.37c-3.54,2.81-5.93,6.29-6.69,11.28c-0.57-2.58,0.29-4.51,0.69-6.48c0.23-1.09,0.17-1.95-0.61-2.77
				c-1.87-1.99-3.17-4.36-4.8-6.56c1.3-0.36,1.74,0.71,2.28,1.36c3.94,4.63,4.26,4.4,8.97,0.8c2.01-1.55,3.96-3.14,5.87-4.8
				c4.99-4.23,5.85-9.77,5.03-15.81c-0.52-4-2.03-7.53-5.14-10.25c-0.48-0.25-0.94-0.5-1.49-0.8c0.88-0.42,1.45-0.02,1.97,0.48
				c4.02,2.54,5.28,6.69,6.37,10.94c0.31,1.19,0.19,2.52,0.84,3.71c1.01-0.96,0.94-2.2,1.13-3.46
				C88.06,83.21,84.85,94.39,81.37,97.11z M86.13,58.85c-3.67-5.93-9.2-6.88-15.66-6.46C77.87,49.73,85.46,52.9,86.13,58.85z
				 M64.68,76.27c3.1-0.08,5.68,1.03,7.44,3.65c1.13,1.68,2.31,3.27,4.34,4.53c-0.9,0.06-1.4,0.1-2.01,0.17
				c0.5,1.8,1.97,3.17,1.84,5.76c-0.92-1.76-2.14-2.31-3.44-2.43c-0.9-0.08-1.84,0.02-2.77,0.02c-2.2,0-4.32-0.44-6.04-1.78
				c-1.01-0.78-2.01-1.36-3.08-1.57c-1.01-0.21-2.08-0.06-3.29,0.61c0.31-1.17,1.43-1.34,1.49-2.43c-0.84-0.08-1.66-0.19-2.49-0.27
				c3.04-1.55,5.07-4.82,8.83-4.86c0.15-0.86-0.94-0.52-1.01-1.15C64.43,76.32,64.5,76.27,64.68,76.27z M54.39,76.48
				c0.67-2.12,2.12-3.86,3.92-5.2c0.46-0.34,0.86-0.99,1.76-0.59c-1.51,1.57-3,3.06-3.94,5.01c-1.15,2.31-1.45,4.91-2.52,7.25
				c-0.61,1.32,0.21,2.68,0.9,3.92c0.31,0.55,0.9,1.01,0.9,2.1c-1.57-1.3-2.68-2.62-3-4.28c-0.46-2.41-1.11-4.49-3.73-5.45h1.59
				C52.29,79.27,53.7,78.64,54.39,76.48z M43.55,82.46c-0.42,5.28,3.58,8.49,5.74,12.58C46.13,91.41,41.83,88.33,43.55,82.46z
				 M48.46,109.86c-2.93-5.85-4.97-11.4-5.39-17.52C48.86,96.73,48.27,103.13,48.46,109.86z M51.5,62.67
				c-0.5,2.08-0.17,4.13-0.21,6.18c0,0.36-0.08,0.8-0.29,1.07c-1.4,1.72-3.38,2.6-5.11,3.86c-0.08-0.15-0.19-0.29-0.27-0.42
				c0.17-0.15,0.34-0.34,0.52-0.44c3.1-1.7,4.67-4.23,4.36-7.86C50.43,64.2,50.76,63.34,51.5,62.67z M32.95,77.7
				c-0.21,1.13-0.73,2.1-1.45,2.98c-1.8,2.87-1.95,6.04-1.87,9.29c0.19,5.72,0.44,11.47,0,17.21c-0.27,3.33-0.63,6.67-1.45,9.94
				c0.21-5.39,0.5-10.71-0.04-16.08c-0.23-2.2-0.5-4.38-1.3-6.46c-0.29-0.8-0.65-1.72-1.72-1.8c-1.03-0.06-1.55,0.69-2.03,1.45
				c-1.45,2.28-2.16,4.88-3.29,7.34c0.25-3.17,0.75-6.29,1.7-9.31c1.26-4.09,3.21-7.8,6.2-10.9c1.32-1.36,2.54-2.81,3.58-4.4
				c-0.08-0.23,0.04-0.31,0.25-0.36v-0.02c1.74-3.75,2.98-7.74,5.22-11.28c-1.47,3.4-1.51,7.17-2.93,10.57
				C33.89,76.63,33.2,77.05,32.95,77.7z M47.77,153.1c-0.61,0.31-1.22,0.69-2.01,0.36c5.81-3.08,7.04-8.57,7.32-14.38
				c0.34-7.53-1.82-14.55-5.05-21.28c-2.98-6.16-6.58-12.03-9.1-18.43c-1.95-4.93-3.1-10.02-2.68-15.32
				c0.34-4.17,1.55-8.18,4.3-11.47c1.97-2.39,3.23-5.03,3.96-8.03c0.82-3.48,2.83-5.05,6.31-5.32c-0.23,0.52-0.75,0.63-1.19,0.82
				c-2.45,1.07-3.82,2.98-4.42,5.53c-0.52,2.22-1.24,4.38-2.68,6.18c-5.28,6.56-5.83,13.94-3.86,21.78
				c1.49,5.85,4.23,11.15,7.19,16.35c3.9,6.9,7.04,14.07,8.28,21.95c0.78,4.97,0.9,9.92-0.92,14.74
				C52.13,149.37,50.47,151.68,47.77,153.1z M53.82,162.05c0.08,1.34,1.11,2.12,1.93,3.35c-2.96-0.96-4.3-3.02-5.01-5.62
				c0.02,0,0.02-0.02,0.02-0.02c-0.06-0.1-0.17-0.19,0.06-0.25c-0.02,0.08-0.04,0.17-0.06,0.25c0.02,0.02,0.02,0.02,0.02,0.04
				c0.92-0.1,0.69,1.17,1.57,1.22c-0.27-1.45-1.01-2.83-0.67-4.44c0.5,0.59,0.96,1.15,1.45,1.72l0.46-0.27
				c-0.02-1.45-0.84-2.85-0.27-4.59c0.57,2.81,1.64,5.16,3.46,7.48c-0.84-0.08-1.38-0.13-1.95-0.19
				C55.15,162.18,55.15,162.18,53.82,162.05z M57.18,123.15c-4.19-3.71-5.64-8.95-6.69-14.25c-0.06-0.38-0.13-0.78-0.21-1.34
				c0.84,0.44,0.8,1.17,0.96,1.76c1.26,4.21,2.91,8.18,5.66,11.66c0.38,0.48,0.8,0.96,1.26,1.4c0.4,0.36,0.86,0.82,1.47,0.61
				c0.61-0.21,0.65-0.84,0.75-1.43c0.57-3.4,0.08-6.71-0.44-10.08c1.45,2.62,1.76,5.51,1.91,8.41c0.21,3.67-0.36,7.32-0.04,10.98
				c0.13,1.43,0.44,2.77,1.26,3.9c0.96,1.38,1.26,2.83,1.13,4.47c-0.25,2.77,0.38,5.45,1.07,8.13c-1.64-2.49-2.01-5.28-2.03-8.15
				c0-1.38-0.27-2.6-1.19-3.67c-1.28-1.45-1.72-3.19-1.72-5.07C60.32,127.57,59.51,125.22,57.18,123.15z M61.98,158.22
				c0.52,1.53,0.59,1.59,2.54,3.19c-3,0.08-6.04-3-6.85-7.11c1.07,0.78,1.95,1.68,3.29,1.66c0.36-0.57-0.59-0.69-0.48-1.22
				c1.22-0.25,1.76,1.09,2.83,1.19c0.17-0.1,0.31-0.21,0.48-0.31c-0.4-0.63-0.82-1.24-1.24-1.84c0.63-0.59,1.03,0.48,1.64,0.02
				c-0.61-1.01-1.24-2.05-1.87-3.1c2.12,1.87,4.15,3.82,6.75,5.09h-2.75c1.07,1.28,2.47,1.66,3.86,2.26
				C65,159.2,65,159.2,61.98,158.22z M90.43,170.69c-0.67-0.52-1.07-0.84-1.55-1.22c-0.71,0.9-0.1,2.01-0.63,2.98
				c-0.96-1.72-1.45-3.52-1.34-5.56c-0.92,0.23-0.73,1.19-1.45,1.66c-0.46-2.08,1.34-3.77,0.94-5.85c-0.99,0.1-0.84,1.15-1.55,1.49
				c-0.19-1.64,1.07-2.66,1.43-4.17c1.47,0.99,1.32,2.66,2.08,4.3c0.06-1.32,0.13-2.24,0.17-3.25c0.8,0.21,0.59,1.72,1.82,1.22
				c0.52-0.19,0.36,0.4,0.31,0.61c-0.29,1.38,0.02,2.75,0.1,4.15c-0.78,0.1-0.65-0.94-1.43-0.88
				C88.77,167.75,89.82,169.01,90.43,170.69z M104.83,162.81c-0.15,1.15,0.75,1.72,1.59,2.62c-1.91-0.06-3.23-0.86-4.32-1.93
				c-0.96-0.99-1.17-0.34-1.38,0.48c-0.29,1.11-0.25,2.24,0.15,3.37c-0.65,0.08-0.63-0.67-1.22-0.78c-0.55,1.28,0.06,2.6,0.1,4.11
				c-1.09-1.07-1.26-2.35-1.8-3.69c-0.96,1.8-0.71,3.63-0.86,5.62c-1.19-2.01-0.5-4.13-1.17-5.95c-0.15,0.4-0.29,0.8-0.57,1.55
				c-0.1-1.03-0.17-1.7-0.25-2.43c-1.03,0.19-1.01,1.51-2.28,2.03c0.4-1.13,0.78-1.91,0.9-2.7c0.1-0.61,1.64-1.26,0.04-1.97
				c-0.19-0.08,0.44-0.94,0.78-1.38c0.67-0.82,1.45-1.49,2.58-1.8c0.13,0.99-0.69,1.78-0.1,2.77c1.15-0.61,1.68-2.1,3.02-2.52
				c0.44,0.61-0.46,1.17,0.13,2.05c0.44-2.08,2.31-2.22,3.71-3.08c-0.06,2.05,1.51,2.83,3.21,3.61
				C106.25,163.33,105.58,162.7,104.83,162.81z M105.98,155.3c-1.7,1.53-4.07,1.95-5.91,3.31c-0.48,0.38-0.9,0.52-0.71-0.46
				c0.17-0.82-0.61-0.46-0.9-0.36c-0.88,0.31-1.72,0.73-2.66,1.15c-0.06-0.44-0.13-0.84-0.19-1.22c-2.03,0.69-3.98,0.94-5.76-0.42
				c-0.71,0.48,0.19,1.03-0.15,1.53c-0.69-0.06-1.13-0.5-1.59-0.92c-0.42-0.36-0.42-0.38-0.84,0.19c-0.61,0.82-0.99-0.36-1.4-0.67
				c-0.55-0.44-0.48-0.46-1.38-0.34c-0.23,0.02-0.61-0.27-0.73-0.5c-0.88-1.68-2.28-2.22-4.61-1.76c0.92-0.67,1.43-1.01,1.89-1.36
				c0.4-0.29,0.78-1.07,0.94,0.19c0.04,0.36,0.5-0.06,0.73-0.17c0.96-0.46,1.4-1.43,2.18-2.24c0.08,0.5,0.17,0.9,0.25,1.34
				c1.72-0.59,2.79-1.89,3.84-3.19c0.71,0.44,0.17,1.19,0.52,1.82c0.96-0.42,1.66-1.13,2.43-1.76c2.96-2.41,5.93-2.08,8.8,0.4
				c1.11,0.94,2.52,2.28,3.9,2.39c1.57,0.1,2.56,0.94,4.05,1.45C107.55,154.28,106.73,154.63,105.98,155.3z M92.56,126.27v-0.02
				c-0.67-0.06,0-0.57,0.08-0.55c-0.02,0-0.02,0.25-0.08,0.55h0.04c0,0.02,0,0.06-0.02,0.1c1.05,2.43-0.52,4.84-3.4,5.16
				c-0.8,0.1-1.64,0.02-2.52-0.08c2.85-0.73,5.81-1.32,5.91-5.07C92.59,126.31,92.59,126.29,92.56,126.27z M92.29,122.33
				c-2.05-0.88-4.07-0.4-6.12-0.15c-0.69,0.08-1.36,0.21-2.12,0.34c1.01-1.53,9.01-4.97,11.84-4.74c4.28,0.34,7.9,2.54,11.63,4.34
				c-0.06,0.23-0.15,0.44-0.21,0.67c-1.05-0.23-2.1-0.52-3.17-0.63c-1.95-0.23-3.9-0.36-5.64,0.86c-1.43,0.99-1.84,0.36-1.8-1.11
				c0-0.44,0.23-1.03-0.44-1.28C95.35,123.61,95.33,123.67,92.29,122.33z M106.44,130.9c-1.84,1.22-3.33,0.69-4.65-0.36
				c-1.32-1.05-1.97-2.39-1.05-4.07C100.61,130,103.23,131.41,106.44,130.9z M118.96,150.59c-0.25,0.13-0.29,0.63-0.46,0.96
				c-0.4,0.8-0.4,0.82-1.32,0.44c-0.46-0.21-0.48,0.21-0.65,0.4c-0.44,0.44-0.8,0.96-1.26,1.38c-0.61,0.52-1.28,1.03-1.38-0.38
				c-0.02-0.31-0.06-0.65-0.52-0.55c-1.17,0.29-1.17,0.29-2.08-1.22c-0.08,1.4-0.65,1.55-1.36,0.69c-0.75-0.92-1.38-1.93-2.05-2.89
				c-0.04,0.23-0.1,0.48-0.15,0.71c0.02,0.34,0.02,0.67,0.04,1.01c-0.13-0.08-0.25-0.17-0.4-0.25c-1.53-0.36-1.91-2.1-3.19-2.75
				c-0.59,0.46,0.15,1.03-0.15,1.53c-1.53-0.65-1.99-2.18-2.89-3.46c-0.4,1.38-0.94,1.74-1.72,0.38c-0.21-0.36-0.5-0.67-0.75-1.01
				c-0.21-0.4-0.4-0.75-0.59-1.15c-0.75,0.23-0.38,0.99-0.71,1.45c-1.19-1.3-1.22-2.87-0.88-4.38c0.61-2.73,2.39-3.29,7.42-2.33
				c-1.47-0.9-1.15-1.55-0.46-2.49c0.78-1.03,1.43-2.12,2.56-2.73c2.2-1.17,3.27-3.04,3.5-5.45c0.19-2.08,0.38-4.13,0.55-6.21
				c0.19-2.39-0.92-4.07-2.87-5.37c-2.52-1.68-5.26-2.37-8.24-1.97c-3.1,0.4-6.16,0.06-9.24-0.25c-5.05-0.52-10.15,3.77-10.4,8.87
				c1.11,2.41,0.67,5.14,1.53,7.59c0.9,1.28,2.16,2.05,3.48,2.77c0.46,0.23,0.86,0.5,1.28,0.78c2.6,1.64,2.58,2.7-0.08,4.28
				c0.59,0.36,1.19,0.08,1.78,0.15c1.57-0.69,3.25-0.78,4.91-0.52c1.07,0.17,2.1,0.61,1.87,2.05c0.88,0.9,0.82,2.08,0.78,3.19
				c-0.02,0.86-0.1,0.86-1.17,0.65c-0.55-0.1-0.59,0.34-0.75,0.63c-0.59,0.92-1.3,1.7-2.39,2.2c-0.5-0.31,0.13-1.09-0.59-1.43
				c-0.59,0.73-1.01,1.68-1.84,2.24c-0.57,0.4-1.13,0.78-1.7,1.17c-0.48-0.5,0.38-0.96-0.1-1.51c-1.32,1.05-2.54,2.24-4.19,2.87
				c-0.08-0.57-0.15-1.09-0.25-1.78c-0.71,0.94-1.3,1.72-1.93,2.49c-0.86,1.11-0.99,0.27-1.07-0.57c-0.8,0.8-1.17,1.78-2.1,2.31
				c-0.65-0.29-0.21-1.32-1.05-1.43c-0.86,0.46-0.4,1.45-0.84,2.35c-0.84-1.28-2.73-0.99-3.35-2.64c-0.08,0.46-0.17,0.9-0.25,1.36
				c-0.61-0.21-0.8-0.94-1.24-1.11c-0.48-0.21-0.1-2.22-1.45-0.71c-0.1,0.13-0.38-0.96-0.55-1.51c-0.23-0.82,1.66-1.93-0.36-2.45
				c0.1-0.15,0.19-0.31,0.31-0.4c1.3-0.8,1.45-2.31,2.26-3.5c-0.61-0.31-0.88,0.27-1.4,0.48c0.23-1.84,2.12-2.62,2.6-4.23
				c-0.63-0.36-1.24,0.38-1.91-0.15c1.24-1.36,1.76-2.96,1.49-4.8c-0.73-0.06-0.86,0.75-1.47,0.82c-0.15-0.86,0.48-1.57,0.55-2.33
				c0.17-1.49,1.38-2.33,1.84-3.58c0.38-1.03,0.46-2.03-1.24-1.28c0.1-0.99,0.99-1.32,1.36-2.1c-0.38-0.08-0.9-0.06-1.03-0.27
				c-0.29-0.46,0.27-0.59,0.57-0.78c1.43-1.01,1.99-2.49,2.39-4.13c-0.73-0.52-1.19,0.19-1.76,0.31c-0.1,0.04-0.23,0.1-0.36,0.17
				c-0.08-0.21,0.02-0.29,0.21-0.31c0.13-1.38,1.45-1.8,2.18-2.75c-0.25-0.46-0.96-0.23-1.15-0.94c1.97-0.31,3.75-1.11,4.74-3.06
				c-0.5-0.73-1.09,0.29-1.57-0.23c0.31-0.94,1.05-1.53,1.84-2.01c0.96-0.57,1.7-1.03-0.17-1.74c1.53-0.4,2.77-0.73,3.67-2.01
				c-0.67-0.08-1.17-0.17-1.72-0.25c0.36-0.71,0.86-1.22,1.49-1.49c1.43-0.63,0.59-0.92-0.34-1.26c1.38-0.65,2.66-1.17,3.37-2.58
				c-0.48-0.4-1.07-0.1-1.68-0.23c0.59-1.07,1.53-1.53,2.45-2.03c-0.1-0.55-0.82-0.44-1.05-0.9c3.4-0.57,3.84-0.92,2.75-2.31
				c0.84-0.71,2.96,0.23,2.68-1.95c-0.02-0.02-0.02-0.02-0.04-0.02c-0.02,0-0.02-0.02-0.04-0.04h-0.15c0.02-0.04,0.04-0.1,0.06-0.15
				c0.02,0.04,0.06,0.1,0.08,0.15c0.04,0,0.06,0,0.06,0c0.02,0.02,0.02,0.04,0.02,0.06c2.45,0.48,2.77,0.04,1.95-2.54
				c-0.13-0.36-0.25-0.69-0.44-1.22c0.54,0.36,0.92,0.65,1.32,0.9c-0.96-1.76-0.06-3.77-0.71-5.45c-0.71-1.93,0.13-3.84-0.17-5.43
				c-0.31-1.76,0.71-2.81,0.71-4.21c0-0.48-0.08-0.78-0.61-0.42c-0.17,0.1-0.36,0.36-0.52,0.04c-0.02-0.08,0.17-0.25,0.25-0.38
				c0.65-1.43,1.09-2.91,1.15-4.55c-0.88-0.13-0.92,0.96-1.91,1.09c1.45-2.6,2.12-5.3,2.62-8.07c-0.59-0.19-0.84,0.29-1.22,0.48
				c-0.15,0.02-0.27,0.06-0.42,0.08c0.06-0.13,0.1-0.27,0.15-0.4c-0.08-1.38,0.9-2.45,1.11-3.77c-0.52-0.17-0.73,0.61-1.26,0.38
				c0.27-0.73,0.63-1.47,0.78-2.24c0.06-0.44,0.94-1.57-0.71-1.24c-0.44,0.08-0.23-0.61-0.17-0.9c0.27-1.28,0.54-2.56,1.22-3.73
				c0.55,0.55,0.23,1.17,0.23,1.72c-0.02,1.03,0.06,1.64,1.11,0.34c-0.1,3.21-0.1,3.21,1.13,2.87c-0.27,0.94-0.52,1.82-0.78,2.73
				c0.57,0.29,0.84-0.5,1.49-0.23c-0.88,1.59-1.15,3.35-1.26,5.16c0.69,0.38,0.73-0.57,1.32-0.55c0.02,1.4-0.82,2.56-1.13,4.02
				c0.4-0.19,0.69-0.31,0.96-0.44c0.15,2.64-0.67,5.28,0.1,7.92c0.1,0.21,0.23,0.42-0.04,0.54c-0.04,0.04-0.21-0.17-0.31-0.27
				c-0.63,1.11,0.46,1.97,0.48,3.14c-0.36-0.25-0.67-0.46-1.07-0.73c-0.06,1.22,0.71,2.03,1.01,3c-0.31,0.36-0.99-0.8-1.11,0.21
				c-0.1,0.94,0.19,2.6,0.59,2.56c1.82-0.25,0.52,0.94,0.78,1.36c0.17,0.29-0.13,0.84,0.38,0.9c0.19,0.02,0.44-0.36,0.67-0.55
				c0.4,0.36-0.13,0.71-0.04,1.01c0.15,0.44-0.94,1.64,0.78,1.28c0.29-0.06,0.13,0.99,0.27,1.49c0.15,0.42,0.31,0.82,0.48,1.22
				c0.29-0.27,0.61-0.52,0.8-0.71c0.8,0.04-0.67,2.14,1.24,1.09c0.02,0.69-0.52,1.34-0.23,2.1c0.06,0.04,0.13,0.06,0.19,0.06
				c0.29,0,0.48-0.42,0.84-0.38c-0.1,0.57-0.23,1.13-0.31,1.7c-0.04,0.36-0.1,1.03,0.21,1.03c2.05-0.1,1.84,3.33,4.36,2.41
				c-1.03,0.82-1.03,0.82,1.38,3.14c-0.29,0.59-0.92-0.04-1.34,0.46c0.61,1.15,1.68,1.72,2.96,1.95c-0.27,0.73-0.9,0.48-1.64,0.9
				c0.9,0.61,1.74,1.15,2.58,1.7c-0.1,0.19-0.21,0.36-0.31,0.52c-0.42,0.08-0.84,0.17-1.32,0.25c0.61,1.11,1.64,1.49,2.83,2.03
				c-1.76,0.59-1.03,1.15-0.15,1.76c0.78,0.52,1.55,1.07,2.16,2.03c-2.1-0.08-1.32,0.78-0.61,1.59c0.5,0.57,1.13,0.96,1.8,1.36
				c0.29,0.17,2.05,0.15,0.4,1.15c-0.21,0.1,0.19,0.5,0.4,0.71c0.55,0.61,1.17,1.17,1.19,2.08c0.27,0.08,0.27,0.29,0.21,0.52
				c-0.17-0.06-0.34-0.13-0.5-0.21c-0.29,0.04-0.9-0.73-0.78,0.27c0.08,0.54,0.34,1.09,0.63,1.57c0.78,1.4,0.92,3.02,1.53,4.46
				c0.13,0.29,0.88,0.69-0.36,0.8c-1.07,0.06-0.21,1.22,0.06,1.72c0.84,1.55,1.11,3.27,1.66,4.84c-0.57,0.67-1.01-0.71-1.22-0.08
				c-0.52,1.57,0.25,2.91,1.17,4.28c-0.57,0.04-1.05,0.06-1.55,0.1c0.38,1.74,1.95,2.68,2.54,4.47c-1.3-0.65-1.47-0.19-1.05,0.82
				c0.04,0.13,0.1,0.25,0.19,0.34c1.24,1.15,1.03,2.73,1.19,4.17C119.98,150.17,119.96,150.13,118.96,150.59z M120.63,133.1
				c-0.1-7.06-1.17-14.15,1.4-21.21c0,1.26-0.06,2.31,0.02,3.35c0.06,0.9-0.25,2.24,0.65,2.58c1.01,0.38,1.51-0.94,2.03-1.66
				c1.72-2.43,2.89-5.16,3.86-7.94c0.19-0.52,0.36-1.05,0.67-1.51c-0.52,4.15-1.74,8.11-4.49,11.3c-2.58,2.98-3.79,6.08-3.12,10.04
				C121.95,129.75,121.45,131.53,120.63,133.1z M132.64,162.37c-1.89-0.04-3.77-0.06-5.66-0.13c-1.3-0.04-1.64-0.92-1.76-2.03
				c-0.17-1.57-0.34-3.14-0.57-5.16c2.64,3.04,5.2,5.7,9.18,6.46C133.5,162.09,133.17,162.37,132.64,162.37z M130.4,157.8
				c-3.14-2.54-4.76-5.97-5.7-9.77c-1.13-4.51-1.34-9.03-0.4-13.63c0.31,3.04,0.29,6.12,0.88,9.12c0.78,4,1.95,7.84,4.36,11.17
				c1.97,2.73,4.44,4.65,7.99,4.72C134.87,160.19,132.52,159.5,130.4,157.8z M144.09,89.69c-2.2,3.33-2.64,7.15-3.31,10.94
				c-0.59,3.27-1.89,6.21-4.11,8.76c-3.17,3.61-6.08,7.4-8.26,11.72c-0.13,0.27-0.21,0.63-0.8,0.55c1.47-3.54,3.42-6.75,5.66-9.79
				c2.43-3.29,5.16-6.44,5.72-10.69c0.13-0.88,0.19-1.76,0.27-2.64c0.17-1.57,0.08-3.23,0.8-4.63c3-5.89,1.99-11.78,0.1-17.63
				c-1.13-3.54-3-6.77-4.95-9.96c-0.17-0.29-0.55-0.52-0.31-1.11c5.03,6.65,8.62,13.81,9.58,22.09
				C144.59,88.14,144.53,89.02,144.09,89.69z M69.09,174.86c0.42,0.1,0.82,0.21,1.24,0.29c0.15-0.23,0.25-0.5,0.36-0.8
				C70.13,174.5,69.61,174.71,69.09,174.86z"/>
		</g>
	</g>
	<path class="st0" d="M163.27,139.6c-5.28,7.38-11.66,13.94-18.87,19.41c-0.52,0.4-1.05,0.8-1.57,1.17
		c-1.89,1.38-3.84,2.66-5.83,3.88c-0.4,0.25-0.8,0.5-1.22,0.73c-7.46,4.44-15.64,7.82-24.3,9.94c-1.11,0.27-2.22,0.52-3.35,0.75
		c-0.04,0-0.08,0.02-0.15,0.02c-2.01,0.42-4.05,0.75-6.12,1.01c-0.4,0.08-0.82,0.13-1.22,0.17c-1.43,0.17-2.87,0.31-4.32,0.4
		c-0.34,0.04-0.67,0.06-1.03,0.06c-1.76,0.13-3.52,0.17-5.3,0.17c-3.1,0-6.14-0.15-9.16-0.46c-0.21-0.02-0.42-0.04-0.63-0.06
		c-0.36-0.04-0.71-0.08-1.07-0.15c-3-0.34-5.93-0.84-8.83-1.49c-0.42-0.08-0.82-0.19-1.24-0.29c-0.44-0.1-0.88-0.21-1.32-0.31
		c-2.1-0.52-4.15-1.13-6.16-1.82c-1.11-0.36-2.2-0.73-3.27-1.15c-7.5-2.81-14.53-6.6-20.92-11.22c3.31-0.31,6.58-0.15,9.66,1.57
		c0.8,0.44,1.15,0.21,1.26-0.61c0.23-2.14,0.48-4.26,0.75-6.6c-2.89,1.15-5.64,2.1-8.55,1.13c-8.64-2.83-16.5-6.98-22.22-14.28
		c-4.67-5.95-6.14-12.85-4.65-20.17c1.66-8.15,3.35-16.27,4.93-24.42c1.32-6.83,3.94-13.12,8.39-18.55
		c0.69-0.63,1.36-1.28,1.72-2.16c0.55-0.73,1.45-1.22,1.55-2.26c0.67-0.52,0.88-1.32,1.28-1.99c1.43-2.73,2.73-5.51,4.26-8.18
		c2.28-3.94,5.87-6.12,10.29-6.98c1.74-0.34,3.42-0.8,4.82-1.97c1.07-0.9,2.47-0.9,3.77-1.03c1.43-0.17,2.66-0.67,3.65-1.76
		c4.61-5.14,10.73-7.04,17.32-7.76c4.93-0.52,9.94-0.42,14.8-1.76c1.24-0.34,2.66-0.46,3.92,0.1c3.44,1.51,7.09,2.03,10.75,2.62
		c4.76,0.8,9.18,2.6,13.29,5.09c0.04,0.21,0.13,0.34,0.38,0.31c2.52,2.1,5.05,4.17,7.53,6.31c2.52,2.16,5.26,3.46,8.66,2.81
		c3.56-0.67,6,0.9,7.67,3.86c5.01,8.78,9.56,17.73,11.01,27.92c0.48,3.37,1.4,6.67,2.79,9.77c3.1,6.92,4.21,14.23,4.78,21.65
		c0.29,3.88,1.49,7.55,2.08,11.34C163.54,136.21,163.56,137.92,163.27,139.6z"/>
</g>
</svg>
