<?xml version="1.0" encoding="utf-8"?>
<!-- Generator: Adobe Illustrator 23.0.1, SVG Export Plug-In . SVG Version: 6.00 Build 0)  -->
<svg version="1.1" id="Layer_1" xmlns="http://www.w3.org/2000/svg" xmlns:xlink="http://www.w3.org/1999/xlink" x="0px" y="0px"
	 viewBox="0 0 180 191.56" style="enable-background:new 0 0 180 191.56;" xml:space="preserve">
<style type="text/css">
	.st0{fill:none;}
	.st1{fill:#ECF8FE;}
	.st2{clip-path:url(#SVGID_2_);}
	.st3{fill:#101010;}
	.st4{fill:#191A1A;}
	.st5{fill:#121212;}
	.st6{fill:#080909;}
</style>
<g>
	<circle class="st1" cx="90" cy="90" r="90"/>
	<path d="M107.42,170.69c-0.02-0.75,0.42-1.91-0.46-2.14c-1.09-0.29-1.3,0.99-1.68,1.74c-1.32,2.6-3.4,4.11-5.91,4.72
		c2.98-0.31,5.91-0.75,8.78-1.34C107.65,172.87,107.46,171.82,107.42,170.69z M154.46,60.62c-0.96-2.47-2.41-4.82-4.28-7.02
		c-1.11-1.3-2.2-2.62-3.21-4c-2.08-2.85-4.84-4.74-8.18-5.76c-0.29-0.08-0.59-0.17-0.88-0.27c-2.96-0.92-5.87-1.93-8.53-3.61
		c-1.51-0.94-3.23-1.45-4.91-0.99c-3.77,1.07-7.69,0.31-11.45,1.11c-3.52,0.71-6.94,0.61-10.38-0.23c-1.7-0.4-3.4-0.17-5.09-0.13
		c-4.28,0.15-8.28-1.91-12.6-1.57c-0.25,0.02-0.5-0.19-0.73-0.29c-3.61-1.72-7.38-1.68-10.5,0.57c-5.35,3.84-11.34,4.49-17.57,4.88
		c-4.13,0.27-8.09,1.34-11.7,3.61c-2.39,1.49-3.25,3.42-2.54,6.12c0.71,2.7,0.94,5.39,0.4,8.22c-1.66,8.24-0.69,15.89,5.62,22.16
		c1.17,1.17,0.84,2.28,0.1,3.61c-4.88,8.83-8.22,18.22-10.21,28.09c-2.01,9.83-3.98,19.64-8.91,28.59c-0.96,1.76-1.84,3.56-2.6,5.41
		l1.22,1.22c1.3-3.17,2.43-6.44,4.63-9.14c2.03-2.47,3.48-2.45,5.26,0.21c2.12,3.12,4.26,6.21,6.83,8.97
		c0.71,0.75,1.34,1.64,3.02,1.68c-2.6-4.28-4.28-8.57-5.3-13.08c-3.37-14.61-3.19-28.97,3.23-42.87c0.63-1.36,1.47-2.66,2.31-3.92
		c0.61-0.88,1.45-1.76,2.62-1.61c1.38,0.15,1.84,1.36,2.14,2.49c1.17,4.78,2.2,9.6,3.42,14.36c1.51,5.93,3.17,11.78,6.94,16.77
		c0.38,0.48,0.65,1.09,2.05,1.36c-2.68-4.84-4.49-9.58-5.05-14.69c-0.57-5.18-0.99-10.38,0.02-15.6c1.61-0.25,1.26,1.72,2.56,2.2
		c-0.25-4.84,2.1-8.53,4.95-12.03c1.95-2.35,3.25-5.05,3.33-8.51c-1.43,0.92-1.15,2.79-2.58,3.35c-0.59-0.15-0.5-0.65-0.46-1.07
		c0.59-5.35,0.67-10.75,1.74-16.04c0.71-3.56,2.2-6.62,5.09-8.91c2.39-1.93,4.28-4.26,5.85-6.94c2.03-3.54,5.3-5.74,9.18-7.02
		c0.82-0.27,1.87-0.59,2.43,0.36c0.57,0.94-0.15,1.74-0.8,2.33c-1.26,1.13-2.6,2.16-3.79,3.42c3.17-0.52,5.47-2.91,8.36-4
		c2.91-1.11,5.83-2.1,9.22-0.13c-3.12,1.49-6.73,0.99-9.14,4.26c8.3-2.12,16.23-1.45,23.92-1.32c-0.38-1.13-1.11-1.55-3.73-1.91
		c-1.66-0.23-3.4,0.23-5.09-0.46c2.31-2.05,8.03-2.28,11.63-0.55c4.11,2.01,7.55,4.84,9.87,8.85c1.89,3.25,3.73,6.52,6.56,9.12
		c0.31,0.29,0.61,0.65,0.4,1.32c-1.84-0.29-3.5-0.96-4.82-2.37c-1.3-1.38-2.68-2.68-4.38-3.52c-2.03-1.01-4.17-1.45-6.12,0.02
		c-1.57,1.19-2.56,0.65-3.56-0.67c-0.82-1.09-1.61-2.31-3.54-2.64c1.59,3.63,3.08,6.92,2.22,11.34c-0.8-1.28-1.26-2.08-1.76-2.83
		c-0.36-0.52-0.82-1.03-1.55-0.78c-0.82,0.29-0.65,1.03-0.59,1.61c0.34,2.89,1.05,5.64,3.35,7.69c0.71,0.65,1.68,1.05,2.05,2.08
		c-2.56,0.46-2.98,0.21-6.44-3.79c-1.84,2.24-2.54,2.12-3.65-0.75c-0.25-0.65-0.42-1.36-0.69-2.03c-0.63-1.64-0.59-4.63-3.48-1.59
		c-0.84,0.88-1.57,0.1-2.08-0.75c-1.15-1.95-1.13-4.13-1.4-6.25c-0.06-0.59,0.1-1.43-0.63-1.64c-0.8-0.21-0.94,0.61-1.24,1.13
		c-0.8,1.47-1.38,1.51-2.22-0.08c-1.49-2.83-2.98-3.33-5.95-2.22c-4.78,1.78-7.46,6.02-10.77,9.5c-1.24,1.3-2.1,2.79-4.17,3.02
		c-1.49,0.15-1.74,1.49-1.28,2.7c0.86,2.37,2.28,4.49,1.53,7.34c-0.25,0.96,1.15,2.31,1.7,3.54c0.25,0.57,1.03,1.82-0.78,1.05
		c-0.52-0.23-0.82,0.19-1.01,0.61c-0.96,2.03,1.55,5.83,3.79,5.64c4.11-0.36,7.38-2.45,10.36-5.16c0.23-0.21,0.46-0.44,0.69-0.65
		c0.27,0.44,0.23,0.82-0.23,1.11c-3.33,5.56-8.78,7.19-14.72,7.92c-1.4,0.19-2.85,0.27-4.23,0.59c-5.83,1.32-8.66,9.08-4.97,14.57
		c0.57-3.29,1.28-6.29,4.63-7.42c0.23-0.02,0.59-0.15,0.67-0.04c0.19,0.25-0.04,0.42-0.31,0.5c-3.71,4.47-3.9,7.02-0.36,11.68
		c2.05,2.7,3.42,5.62,4.13,8.91c0.65,2.91,1.97,5.53,4.07,7.76c2.03,2.16,3.56,4.65,4.91,7.34c2.31,4.63,5.47,5.97,10.17,4.02
		c2.81-1.19,4.88-0.69,7.46,0.8c6.62,3.77,13.65,3.82,20.73,1.13c0.84-0.31,1.97-1.49,2.6-0.38c0.57,0.99-0.65,1.93-1.45,2.64
		c-6.23,5.62-15.89,5.91-23.12,0.71c-1.22-0.88-2.37-1.87-3.54-2.79c-0.88,0.96,0.75,1.74-0.23,2.81c-3.63-1.72-7.67-1.3-11.66-1.53
		c-7.23-0.44-12.7-4.47-17.52-9.5c-0.71-0.73-1.4-1.51-2.28-2.1c0.69,2.79,2.73,4.61,4.51,6.62c0.71,0.8,2.28,1.32,1.66,2.7
		c-0.61,1.32-2.12,1.09-3.35,1.11c-8.32,0.19-15.53-2.29-21.09-8.76c-0.57-0.67-1.15-1.3-2.2-1.26c-0.19,1.49,0.82,2.35,1.57,3.27
		c6.33,7.9,15.01,10.61,24.67,11.11c3.23,0.17,6.46,0.21,9.68,0.54c3.9,0.38,4.86,2.22,2.93,5.6c-2.28,4.05-5.7,7.15-8.99,10.29
		c-2.45,2.35-5.09,4.51-7.13,7.53c1.76,0.67,2.54-0.59,3.44-1.22c7.61-5.37,15.37-10.5,24.15-13.86c1.74-0.65,3.58-1.13,5.41-1.51
		c3.4-0.71,4.95,0.42,5.2,3.88c0.15,1.74,0.02,3.5,0.02,5.74c1.17-1.57,1.22-3.02,1.74-4.28c1.17-2.79,2.6-5.3,5.7-6.41
		c1.61-0.57,3-0.4,4.26,0.71c1.38,1.19,1.47,2.81,1.32,4.44c-0.15,1.72-1.64,0.71-2.66,1.07c1.05,1.13,2.31,1.34,3.42,1.76
		c1.47,0.57,2.03,1.49,0.75,2.54c-3.27,2.66-4.57,6.35-6,10.04c1.19-0.36,2.37-0.75,3.54-1.17c-0.38-1.36-0.08-2.75,0.67-4.15
		c1.4-2.66,4.02-4.13,6.58-3.48c2.03,0.52,3.84,0.61,5.95-0.04c1.26-0.4,2.62-0.59,3.98-0.57c0.69-0.42,1.36-0.84,2.03-1.3
		c-2.91-0.44-5.85-0.78-8.85,0.17c-2.03,0.65-3.73-0.06-5.24-2.35c-1.89-2.89-1.87-6.37-3.65-9.12c-1.53-2.33-0.61-3.08,1.45-3.9
		c3.06-1.15,5.45-3.08,6.54-6.31c1.61-4.74,2.52-9.75,5.28-14.07c0.78-1.22,0.86-2.73,0.86-4.17c0.02-3.06,0.78-5.81,3.06-8.07
		c1.19-1.19,1.49-3.02,2.26-4.51c2.39-4.65,1.68-9.81,2.73-14.67c0.71-3.21,0.82-6.48,0.27-9.62c-0.8-4.61,0.15-9.35-1.45-13.86
		c-0.21-0.65-0.34-1.53,0.19-2.35c3.88,3.75,4.28,8.3,3.33,13.14c-0.57,3.04-0.13,5.91,1.05,8.68c0.61,1.47,1.32,3.25,3.31,3
		c1.8-0.25,2.12-2.01,2.37-3.5c0.96-6.02,1.89-12.03,2.79-18.05C156.18,67.41,155.74,63.89,154.46,60.62z M82.32,40.37
		c-0.29,0.19-0.65,0.34-0.99,0.42c-8.87,2.43-12.07,9.41-13.77,17.44c-0.96,4.67-0.9,9.48-1.03,14.21
		c-0.13,4.84-0.99,9.43-3.98,13.42c-1.01,1.3-2.18,2.39-3.58,3.19c-3.35,1.87-5.47,1.22-7.21-2.2c-1.93-3.84-3.82-7.69-4.49-12.07
		c-0.82,1.3,0.29,2.75-0.42,4.05c-4.47-3.04-4.76-11.38-0.84-25.05c-0.78-0.73-1.84,1.89-2.37-0.08c-0.42-1.57-1.13-3.31,0.59-4.7
		c2.93-2.41,6.46-3.46,10.13-3.98c2.91-0.44,5.87-0.63,8.83-0.84c2.43-0.17,2.91,0.55,1.99,2.87c-1.28,3.17-2.87,6.14-4.67,9.06
		c-1.74,2.81-3.77,5.39-6.39,7.5c2.41-0.27,3.98-1.8,5.43-3.48c2.77-3.19,4.86-6.85,7-10.48c1.7-2.85,3.44-5.68,5.7-8.13
		c2.7-2.89,6.04-3.73,9.81-2.89c0.4,0.08,1.15,0.06,1.15,0.84C83.18,39.99,82.68,40.14,82.32,40.37z M140.12,72.29
		c0.59,2.39-0.86,3.54-2.28,4.42c-1.99,1.24-4.05,0.8-6.06-0.75C135.67,77.22,138.44,76.02,140.12,72.29z M137.96,69.99
		c0.59,0.13,0.84,0.84,0.82,1.53c-0.08,2.24-2.79,4.11-5.26,3.5c-0.99-0.23-1.89-0.8-2.93-1.28c1.03-0.67,1.72,0.02,2.45,0.15
		c2.2,0.31,3.61-0.65,4.17-2.77C137.33,70.62,137.27,69.84,137.96,69.99z M130.22,67.74c2.45-3.17,2.7-3.17,6.5-0.08
		c-2.1-0.86-4.09-0.8-5.93,0.5c-0.23,0.48-0.59,0.52-1.03,0.34C129.93,68.25,130.08,68,130.22,67.74z M108.25,79.25
		c3.37-5.68,14.82-7.27,19.6-2.79c0.1,0.1,0.04,0.34,0.13,1.07c-2.62-2.37-5.51,0.8-8.05-1.09c-2.68,2.43-7.69-0.48-9.48,4.17
		c-0.34,0.86-1.24,1.78-2.33,1.15C106.81,81.01,107.79,80.01,108.25,79.25z M128.86,80.91c-0.86,1.84-1.64,2.43-3.06,2.41
		c-1.78-0.02-2.52-1.19-2.87-2.91C124.67,83.45,126.76,81.64,128.86,80.91z M115.8,84.49c-1.26,0.63-2.6,0.46-3.86-0.25
		c-0.36-0.21-0.86-0.46-0.65-0.99c0.25-0.67,0.75-0.5,1.32-0.27c2.18,0.92,3.77,0.4,4.7-2.03C117.79,82.61,117.18,83.8,115.8,84.49z
		 M90.73,64.33c1.61,0.27,3.02,1.07,3.94,2.54c0.67,0.48,1.09,1.09,0.96,2.41c-0.61-0.8-1.01-1.3-1.43-1.82
		c-2.31-1.84-4.86-0.99-7.44-0.69C88.49,66.49,88.89,64.03,90.73,64.33z M89.68,69.44c-0.13,0.82-0.59,1.28-1.26,1.22
		c-0.71-0.04-1.05-0.61-0.99-1.32c0.06-0.69,0.44-1.22,1.17-1.15C89.37,68.25,89.51,68.94,89.68,69.44z M85.05,70.24
		c0.92,0.4,0.73,1.32,1.01,2.01c3.96,3,6.85,1.8,7.53-3.17c2.12,2.18,1.99,3.33-0.57,4.84c-2.98,1.76-5.11,1.4-7.53-1.26
		C84.76,71.98,84.5,71.2,85.05,70.24z M82.18,73.66c-0.29-0.48-0.96-1.05-0.25-1.64c0.69-0.52,1.11,0.08,1.55,0.52
		c4.38,4.4,5.72,4.57,11.57,1.38c0.06-0.36,0.31-0.63,0.61-0.36c0.31,0.29-0.08,0.52-0.29,0.71C90.79,78.44,85.09,78.14,82.18,73.66
		z M95.84,84.43c1.66-2.87,3.46-5.7,6.29-7.61c1.57-1.05,3.19-1.95,5.18-1.64c-10.9,4.51-10.52,14.76-12.81,23.77
		c-1.03-0.52-0.84-1.97-0.86-3.02c-0.04-2.93-1.22-2.6-3.06-1.34c-2.03,1.36-4.38,1.91-6.77,2.37c-0.46,0.1-0.63-0.15-1.09-0.63
		C89.41,94.81,92.74,89.78,95.84,84.43z M77.88,112.86c-0.02,0.44-0.04,0.88-0.06,1.4c-0.92-0.57-0.78-1.47-0.88-2.18
		c-0.52-3.96,0.94-5.32,4.86-4.53c0.67,0.15,1.36,0.65,1.99,0.06c0.75-0.67-0.55-1.09-0.42-1.74c1.55-0.36,2.18,0.84,2.98,1.59
		c6.31,6.06,12.49,6.31,18.97,0.57c2.64-2.35,5.51-4.26,8.55-6c1.01-0.57,2.08-1.09,3.02-1.76c2.52-1.78,4.51-3.94,3.98-7.36
		c-0.52-3.42-3.21-4.4-6.2-5.05c2.12-0.65,2.75-0.82,4.38,0.34c1.97,1.38,3.5,1.38,5.05-0.44c0.19-0.23,0.59-0.29,1.47-0.69
		c-4.74,6.46-1.53,11.17,2.2,15.85c1.01,1.28,2.64,2.24,2.33,4.74c-2.14-3.54-5.35-5.81-6.77-9.39c-0.65-1.64-1.49-1.49-2.43-0.27
		c-1.8,2.35-4.23,3.84-6.85,5.07c-2.62,1.26-4.78,3.14-6.9,5.07c-5.97,5.45-12.47,7.06-19.94,3.14c-1.49-0.75-3.14-1.28-4.76-1.76
		C79.07,108.54,77.98,109.38,77.88,112.86z M94.19,118.77c1.93,0.34,0.48,2.73,1.99,3.48c0.19,0.08-0.38,0.92-1.03,0.78
		c-1.61-0.36-2.2-1.64-2.62-3.08C92.6,118.96,93.33,118.62,94.19,118.77z M91.82,117.64c-1.01-0.02-1.3-0.86-1.26-1.7
		c0.02-0.73,0-1.7,1.07-1.61c0.99,0.17,1.93,0.42,1.68,1.43C93.12,116.48,93.06,117.7,91.82,117.64z M97.14,130.95
		c-0.78,0.59-1.57,1.11-2.56,1.4c-2.05,0.67-3.44,0.02-3.75-2.1c-0.29-2.08-1.43-3.12-3.33-3.65c-1.55-0.46-3.23-1.01-4.21-2.22
		c-1.03-1.26-3.96-1.84-1.89-4.76c0.57-0.82-0.69-2.98-1.17-4.51c-0.15-0.44-0.34-0.82,0.46-1.4c0.71,2.41,1.47,4.74,3.42,6.37
		c0.31,0.27,0.13,0.55-0.19,0.84c-1.11,1.01-1.11,1.34,0.27,1.84c1.68,0.59,3.46,0.9,5.2,1.36c1.87,0.46,3.48,1.32,4.51,3.02
		c-0.42,0.92-2.33-0.96-1.97,1.01c0.23,1.34,0.63,2.96,2.58,2.87c0.69-0.04,1.36-0.38,2.05-0.57c0.29-0.38,0.71-0.69,1.07-0.27
		C97.9,130.49,97.44,130.76,97.14,130.95z M98.44,126.8c-1.01-0.17-1.8-0.86-2.08-1.78c-0.17-0.61,0.65-0.63,0.96-0.67
		c1.28-0.02,1.78,0.61,1.87,1.59C99.22,126.4,98.95,126.88,98.44,126.8z M124.92,138.2c-6.48,3.02-13.02,2.83-19.47-0.17
		c-2.6-1.19-4.11-3.31-3.88-6.21c0.4-5.18-0.27-10-3.5-14.25c-0.29-0.38-0.42-1.05-0.29-1.51c0.19-0.67,0.92-0.42,1.36-0.27
		c1.87,0.61,3.5-0.02,5.22-0.65c3.94-1.43,6.06-0.59,8.2,3.19c2.28,4.02,3.4,8.45,4.49,12.89c0.1,0.42,0.19,0.82,0.29,1.24
		c0.63-4.49-1.13-8.55-2.24-12.77c-0.44-1.64-1.95-3.44-0.23-4.99c1.89-1.7,4.26-2.66,6.94-2.2c0.73,0.13,1.76,0.25,1.72,1.32
		c0,0.63,0.63,1.59-0.78,1.84c-0.96,0.17-0.17,1.01-0.02,1.34c1.3,3.38,3.48,6.25,5.45,9.24C131.86,131.85,131,135.35,124.92,138.2z
		 M128.63,119.61c1.47-1.87,1.34-4.02,0.88-6.92c1.34,1.87,1.11,3.35,1.51,4.67C131.57,119.17,131.29,120.51,128.63,119.61z
		 M139.47,100.53c0.84-8.68-3.69-14.67-7.71-21.03c2.03-0.19,2.33,1.64,3.31,2.6c1.11,1.09,1.51,3.54,3.12,3.29
		c1.8-0.29,1.66-2.7,2.14-4.28c0.42-1.32,0.63-2.73,0.94-4.17C143.83,81.66,143.03,96.3,139.47,100.53z M153.05,74.52
		c0.08-2.93,0.86-5.35-0.82-7.46c0.75,4.44-1.07,8.78-0.17,13.25c0.52,2.64,0.06,5.39-0.48,8.03c-0.21,1.03-0.23,2.81-1.55,2.73
		c-1.19-0.06-1.17-1.82-1.43-2.89c-0.48-2.14,0.02-4.32,0.57-6.37c2.54-9.45,0.23-17.32-6.27-24.76
		c-5.22-5.95-10.67-11.28-17.69-14.93c-0.48-0.25-0.88-0.59-1.32-0.88c0.13-0.27,0.25-0.55,0.36-0.82c6.46,0.1,10.4,5.24,15.7,8.28
		c-0.52-1.07-0.99-2.03-1.57-3.29c1.26,0.29,2.35,0.73,3.33,1.3c1.3,0.78,2.39,1.76,3.35,2.89c0.4,0.46,0.78,0.92,1.15,1.38
		c1.4,1.68,2.73,3.4,4.02,5.14C154.37,61.64,155.53,68.54,153.05,74.52z"/>
	<path class="st0" d="M155.59,71.25c-0.9,6.02-1.82,12.03-2.79,18.05c-0.25,1.49-0.57,3.25-2.37,3.5c-1.99,0.25-2.7-1.53-3.31-3
		c-1.17-2.77-1.61-5.64-1.05-8.68c0.94-4.84,0.55-9.39-3.33-13.14c-0.52,0.82-0.4,1.7-0.19,2.35c1.59,4.51,0.65,9.24,1.45,13.86
		c0.55,3.14,0.44,6.41-0.27,9.62c-1.05,4.86-0.34,10.02-2.73,14.67c-0.78,1.49-1.07,3.31-2.26,4.51c-2.29,2.26-3.04,5.01-3.06,8.07
		c0,1.45-0.08,2.96-0.86,4.17c-2.77,4.32-3.67,9.33-5.28,14.07c-1.09,3.23-3.48,5.16-6.54,6.31c-2.05,0.82-2.98,1.57-1.45,3.9
		c1.78,2.75,1.76,6.23,3.65,9.12c1.51,2.28,3.21,3,5.24,2.35c3-0.94,5.93-0.61,8.85-0.17c-0.67,0.46-1.34,0.88-2.03,1.3
		c-5.37,3.33-11.13,6.1-17.19,8.24c-1.17,0.42-2.35,0.82-3.54,1.17c-2.73,0.86-5.51,1.57-8.36,2.16c-2.87,0.59-5.81,1.03-8.78,1.34
		c-3.08,0.31-6.2,0.48-9.37,0.48c-24.25,0-46.26-9.6-62.45-25.18l-1.22-1.22c0.75-1.84,1.64-3.65,2.6-5.41
		c4.93-8.95,6.9-18.76,8.91-28.59c1.99-9.87,5.32-19.26,10.21-28.09c0.73-1.32,1.07-2.43-0.1-3.61c-6.31-6.27-7.27-13.92-5.62-22.16
		c0.55-2.83,0.31-5.51-0.4-8.22c-0.71-2.7,0.15-4.63,2.54-6.12c3.61-2.26,7.57-3.33,11.7-3.61c6.23-0.4,12.22-1.05,17.57-4.88
		c3.12-2.24,6.9-2.28,10.5-0.57c0.23,0.1,0.48,0.31,0.73,0.29c4.32-0.34,8.32,1.72,12.6,1.57c1.7-0.04,3.4-0.27,5.09,0.13
		c3.44,0.84,6.85,0.94,10.38,0.23c3.75-0.8,7.67-0.04,11.45-1.11c1.68-0.46,3.4,0.04,4.91,0.99c2.66,1.68,5.58,2.68,8.53,3.61
		c0.29,0.1,0.59,0.19,0.88,0.27c3.33,1.03,6.1,2.91,8.18,5.76c1.01,1.38,2.1,2.7,3.21,4c1.87,2.2,3.31,4.55,4.28,7.02
		C155.74,63.89,156.18,67.41,155.59,71.25z"/>
</g>
</svg>
