<?xml version="1.0" encoding="utf-8"?>
<!-- Generator: Adobe Illustrator 23.0.1, SVG Export Plug-In . SVG Version: 6.00 Build 0)  -->
<svg version="1.1" id="Layer_1" xmlns="http://www.w3.org/2000/svg" xmlns:xlink="http://www.w3.org/1999/xlink" x="0px" y="0px"
	 viewBox="0 0 180 180" style="enable-background:new 0 0 180 180;" xml:space="preserve">
<style type="text/css">
	.st0{fill:none;}
	.st1{fill:#ECF8FE;}
	.st2{clip-path:url(#SVGID_2_);}
	.st3{fill:#101010;}
	.st4{fill:#191A1A;}
	.st5{fill:#121212;}
	.st6{fill:#080909;}
</style>
<g>
	<circle class="st1" cx="90" cy="90" r="90"/>
	<path d="M28.92,115.04v0.02c0.02,0.02,0.04,0.04,0.08,0.04C28.96,115.08,28.94,115.06,28.92,115.04z M76.73,172.16
		c-0.15-0.1-0.34-0.31-0.65-0.13c0.5,0.94,0.94,1.89,1.3,2.89c1.11,0.17,2.22,0.29,3.33,0.42C79.56,174.13,78.2,173.11,76.73,172.16
		z M83.92,135.96c-1.11,0.9-1.78,2.05-2.37,3.27c-0.15,0.31-0.08,0.88-0.48,0.92c-0.48,0.02-0.69-0.52-0.92-0.88
		c-0.59-0.92-0.88-1.97-1.17-3.29c-2.12,2.85-3.23,5.83-3.86,9.2c-1.4-1.38-1.72-3.1-2.28-5.07c-1.66,2.83-2.31,5.62-2.31,8.89
		c-1.91-2.43-2.22-5.14-2.87-8.03c-1.74,3.71-2.29,7.34-1.95,11.15c-2.7-2.7-3.31-6.12-3.63-9.73c-2.16,3.48-3.56,7.17-3.46,11.42
		c-0.59-0.15-0.78-0.61-0.99-0.99c-1.01-1.72-1.61-3.58-1.87-5.58c-0.04-0.29,0.02-0.78-0.31-0.86c-0.44-0.13-0.57,0.38-0.75,0.67
		c-1.57,2.43-2.41,5.76-2.47,9.75c-1.57-0.42-3-3.56-3.58-7.97c-1.93,0.94-3.27,6.21-3.17,12.66c-1.64-2.52-1.91-5.22-2.45-7.99
		c-2.03,1.89-3.31,4.02-3.82,6.6c6.35,4.34,13.27,7.9,20.65,10.5c-0.42-2.24-0.65-4.49-0.71-6.77c0-0.44-0.04-0.88,0.25-1.4
		c1.3,2.54,2.91,4.74,5.41,6.23c-1.26-3.35-1.91-6.77-1.43-10.38c1.55,4.26,3.92,7.84,8.2,10.29c-0.69-2.56-1.22-4.86-0.9-7.25
		c0.99,1.49,2.08,2.85,3.48,3.92c0.4,0.29,0.86,0.84,1.32,0.61c0.4-0.19,0.29-0.86,0.29-1.3c0.06-2.6-0.57-5.07-1.34-7.53
		c-0.36-1.09-0.69-2.16-1.05-3.25c-0.1-0.34-0.19-0.67-0.06-1.19c1.51,1.99,3.02,3.77,5.39,4.99c-1.17-3.79-1.53-7.42-0.86-11.34
		c0.84,1.19,1.55,2.24,2.54,3.06c0.65,0.5,0.94,0.52,1.11-0.4c0.34-1.66,0.42-3.33,0.4-5.07c1.82,1.91,2.14,4.78,4.38,6.41
		C84.34,145.69,83.65,140.93,83.92,135.96z M156.96,142.42c-0.46-4.02-1.3-7.97-3.31-11.53c-0.36-0.67-0.17-0.86,0.44-1.09
		c0.61-0.23,1.17-0.57,1.76-0.86c0.15-0.08,0.27-0.23,0.44-0.36c-0.86-0.55-1.82-0.65-2.73-0.94c-2.43-0.8-4.7-1.89-6.46-3.77
		c-2.12-2.31-3.12-5.01-2.75-8.15c0.08-0.75,0.38-0.67,0.8-0.27c1.15,1.09,1.89,2.43,2.33,3.92c0.06,0.19-0.04,0.48,0.4,0.52
		c0.29-1.93,0.1-3.82-0.27-5.7c-0.55-2.75-1.17-5.47-0.55-8.28c0.06-0.29,0.08-0.57,0.38-0.9c1.66,1.74,2.2,3.96,2.77,6.21
		c0.46-0.15,0.34-0.52,0.38-0.82c0.73-4.44-0.38-8.66-1.64-12.85c-0.55-1.87-1.11-3.71-1.03-5.7c0.02-0.86,0.19-1.68,0.55-2.43
		c0.27-0.61,0.44-1.47,1.4-0.57c0.36,0.36,0.42-0.06,0.5-0.36c0.25-0.8,0.5-1.59,0.82-2.39c0.61-1.45,0.78-1.49,1.82-0.27
		c1.47-4.65,0.15-9.01-0.92-13.35c0.4-0.34,0.82,0.34,1.03-0.08c0.13-0.23-0.04-0.63-0.13-0.92c-0.38-1.45-1.07-2.73-2.08-3.84
		c-0.59-0.65-1.17-1.32-1.66-2.03c-0.75-1.09-0.71-1.15,0.65-1.24c-0.17-0.71-0.63-1.24-1.17-1.64c-0.55-0.38-1.11-0.78-1.72-0.96
		c-1.66-0.44-2.62-1.47-3.29-3.06c-1.32-3.12-3.9-4.51-7.19-4.7c-2.05-0.13-4.11,0.17-6.16,0.25c-1.03,0.06-1.82-0.23-2.45-1.11
		c-0.67-0.94-1.47-1.82-2.26-2.81c1.03-0.52,2.31-0.59,3.19-1.66c-1.05-0.27-2.03-0.29-2.93-0.69c-0.71-0.34-0.84-0.65-0.1-1.09
		c0.46-0.27,0.92-0.57,1.59-1.01c-1.28-0.52-2.45-0.1-3.61-0.34c0.75-1.78,1.11-3.63,0.5-5.68c-0.38,0.78-0.69,1.47-1.03,2.14
		c-0.29,0.57-0.69,1.03-1.19,1.43c-0.17,0.13-0.34,0.31-0.59,0.19c-0.25-0.13-0.15-0.38-0.13-0.59c0.1-0.78,0.25-1.57,0.36-2.35
		c-0.1-0.08-0.21-0.17-0.31-0.25c-0.52,0.67-1.05,1.34-1.74,2.22c-0.17-1.32-0.08-2.35-0.71-3.25c-0.52,0.86-0.57,1.91-1.36,2.64
		c-0.5-0.82-0.31-1.76-0.61-2.64c-0.55,0.27-0.63,0.92-1.15,1.28c-0.69-1.22-1.51-2.37-2.49-3.4c-0.34-0.38-0.13-0.61,0.13-0.92
		c0.84-1.03,1.59-2.08,1.76-3.58c-1.3,0.59-2.41,1.3-3.9,1.17c1.17-1.78,2.03-3.63,2.39-5.66c0.21-1.24,0.21-2.56-0.04-3.98
		c-0.57,1.07-0.99,1.95-1.51,2.77c-0.15,0.23-0.29,0.46-0.46,0.69c-0.86,1.17-1.87,2.18-3.12,2.96c-0.71,0.44-1.03,0.52-1.05-0.55
		c-0.02-1.13-0.08-2.26-0.42-3.42c-0.15-0.52-0.36-1.05-0.63-1.55c-0.15,0.44-0.29,0.9-0.42,1.34c-0.46,1.43-0.99,2.75-2.05,3.88
		c-0.48-1.01-0.88-1.93-1.34-2.83c-0.29-0.59-0.61-1.17-0.94-1.72c-1.28-2.12-2.87-3.96-5.01-5.35c-0.02-0.02-0.04-0.06-0.06-0.1
		c-0.02-0.04-0.04-0.1-0.06-0.17h-0.44c0.02,0.06,0.04,0.1,0.06,0.15c0.65,1.64,1.45,3.23,1.55,5.05v0.19
		c0.02,0.19,0.06,0.38,0.06,0.54c-0.02,0.59,0.13,1.36-0.31,1.66c-0.5,0.34-0.88-0.44-1.32-0.71c-1.28-0.75-2.56-1.53-4.21-1.57
		c0.48,0.92,1.19,1.61,1.45,2.54v0.25c-0.06-0.04-0.13-0.06-0.19-0.1c-2.54-1.17-5.14-2.14-8.01-2.03
		c-0.75,0.04-1.51,0.17-2.43,0.55c2.28,0.48,4.28,1.05,5.64,3.27c-1.91-0.34-3.56-0.25-5.22,0.06c-3.23,0.59-6.21,1.93-9.22,3.1
		c-3.35,1.32-6.75,2.43-10.4,2.58c-2.2,0.06-4.38-0.1-6.54-0.63c-0.27-0.06-0.57-0.1-0.88-0.17c0.67,1.53,2.22,2.47,7.53,4.55
		c-1.43,1.07-3,1.66-4.63,2.12c-3.06,0.88-6.23,1.36-9.16,2.62c-3.29,1.43-6.06,3.48-8.39,6.23c2.47-1.03,4.99-1.82,7.67-1.97
		c-0.04,0.57-0.55,0.61-0.84,0.8c-5.28,3.44-10.02,7.44-13.42,12.85c-0.55,0.84-1.07,1.72-1.22,2.91c1.72-1.36,3.44-2.37,5.74-2.93
		c-6.44,7.97-11.61,16.23-12.91,26.39c1.64-2.77,3.31-5.51,5.97-7.9c-0.46,2.43-0.84,4.53-1.28,6.62c-0.25,1.28-0.54,2.58-0.9,3.84
		c-1.03,3.86-3.29,6.83-6.94,9.14c2.31,0.23,4.09-0.59,6.08-1.4c-2.1,4.82-3.75,9.56-4.59,14.55c-0.82,5.05-0.86,10.02,1.09,14.86
		c0.08-1.53,0.1-3.08,0.27-4.63c0.31-2.64,0.92-5.18,2.01-7.61c0.17-0.34,0.25-0.75,0.65-0.94v-0.02c0.04-0.02,0.1-0.06,0.15-0.1
		c0,0.04,0.02,0.08,0,0.1c-0.02,0.04-0.04,0.06-0.06,0.06c0.02,0.02,0.06,0.06,0.04,0.08c-0.46,4.11,0.21,8.07,1.36,12.03
		c2.2,7.61,0.13,14.36-4.57,20.5c-0.15,0.19-0.29,0.38-0.52,0.67c-0.08,0.08-0.17,0.19-0.25,0.31c0.15-0.04,0.29-0.08,0.42-0.15
		c2.01-0.69,3.44-2.01,5.09-2.91c0.27,0.23,0.08,0.42,0.02,0.61c-0.73,1.82-1.34,3.67-1.78,5.56c3.21,3,6.65,5.74,10.27,8.24
		c-0.46-1.7-0.31-3.35,0.08-5.03c0.5-2.01,1.36-3.88,2.2-5.74c1.34-2.98,2.75-5.95,2.98-9.33c1.17,1.97,1.22,4.23,1.78,6.56
		c1.95-2.93,2.47-6,2.35-9.24c1.57,2.1,1.95,4.61,2.52,7.11c1.55-3.5,1.78-7.15,1.36-10.92c1.7,2.22,2.24,4.91,2.83,7.63
		c1.03-1.34,1.4-3.12,1.57-7.19c1.4,1.8,1.68,3.84,2.54,5.81c0.96-1.53,1.26-3.1,1.47-4.72c0.23-1.64-0.1-3.21-0.27-4.84
		c1.84,2.26,3.04,4.86,3.96,7.92c2.43-3.92,2.33-7.84,1.61-11.91c2.54,2.91,3.94,6.39,5.16,10.33c0.82-1.99,0.94-3.82,0.9-5.85
		c1.36,1.36,1.72,3.12,2.64,4.61c0.88-1.4,0.84-4.47-0.13-11.19c2.16,2.31,3.48,4.93,4.57,7.82c1.24-1.51,1.45-3.27,1.97-4.91
		c-0.06-0.94,0.31-1.84,0.17-2.83c0.63,0.59,1.38,1.03,1.55,1.95c0.04,0.04,0.06,0.1,0.04,0.17c0.52,0.21,0.71,0.67,0.86,1.15
		c0.25,0.21,0.42,0.48,0.48,0.82c0.38,0.34,0.57,0.8,0.65,1.28c0.44,0.55,0.67,1.17,0.86,1.82c0.06,0.17-0.1,0.46,0.25,0.46
		c0.27,0.02,0.31-0.23,0.42-0.42c-0.06-0.67,0.06-1.32,0.19-1.99c0.17-3.54-0.44-7-1.53-10.63c2.2,1.64,3.54,3.71,4.91,5.76
		c0.15-2.56-0.25-4.88-1.72-6.98c-0.71-1.05-1.43-2.14-2.14-3.21c-1.03-1.53-1.45-3.25-1.49-5.09c-0.04-1.49-0.46-2.87-1.26-4.15
		c-0.44-0.69-0.78-0.75-1.22,0c-1.47,2.56-2.14,5.28-1.59,8.22c0.19,1.07,0.48,2.14,0.8,3.46c-2.58-2.26-3.38-5.16-4.11-8.41
		c-1.03,2.62-1.15,4.99-0.8,7.44c-2.45-3.71-2.37-7.94-2.41-12.22c-1.55,1.28-2.58,4.36-3.02,8.55c-0.75-1.55-0.94-3.19-0.82-4.88
		c0.1-1.76,0.48-3.48,0.84-5.2c0.57-2.83,0.27-5.45-1.4-7.88c-1.11-1.59-2.05-3.31-2.85-5.11c-1.01,3.12-0.48,6.1,0.59,9.1
		c-2.08-1.61-3.75-3.48-4.57-6.02c-0.67-2.16-1.3-4.34-1.99-6.5c-0.44-1.34-0.99-2.64-1.91-4c-0.96,1.76-0.92,3.58-1.19,5.53
		c-1.09-1.59-1.84-3.23-2.03-4.99c-0.38-3.44-1.4-6.71-2.2-10.06c-1.01-4.34-0.44-8.57,1.53-12.6c0.17-0.31,0.25-0.71,0.75-0.86
		c-0.96,4.49-1.05,8.87,1.17,13.06c0-3.54,0.73-6.88,2.7-9.89c-0.78,7.32-0.19,14.34,4.26,20.56c-1.57-5.6-1.47-11.11,0.59-16.56
		c0.13-0.34,0.17-0.8,0.67-0.96c-0.23,4.91,0.86,9.41,3.9,13.46c-0.59-7.88,1.11-14.76,8.07-19.41c-2.37,3.02-3.77,6.44-4.19,10.27
		c-0.42,3.75,0.06,7.36,1.53,10.86c0.46-2.24,1.01-4.42,2.08-6.44c0.13-0.21,0.29-0.4,0.52-0.57c-0.19,1.64-0.15,3.21,0.17,4.78
		c0.71,3.35,2.68,5.97,4.95,8.43c2.01,2.18,4.15,4.26,5.95,6.62c2.35,3.1,3.73,6.54,3.9,10.44c0.02,0.19,0.15,0.44-0.21,0.61
		c-0.69-1.8-1.49-3.54-3.46-4.78c0.36,1.07,0.65,1.84,0.88,2.66c0.61,2.14,0.75,4.34,0.88,6.52c0.13,2.43,0.86,4.55,2.56,6.37
		c1.68,1.8,3.37,3.56,4.91,5.51c2.47,3.12,3.86,6.69,4.21,10.65c0.02,0.31,0.02,0.61,0.02,0.9c0,0.04-0.06,0.08-0.17,0.23
		c-0.75-1.91-1.64-3.69-3.65-5.05c1.05,4.42,0.75,8.64,0.71,12.81c0.06,0.59,0.1,1.19,0.17,1.78c0.44,4.09,2.33,7.57,4.7,10.86
		c-1.59-0.65-2.91-1.7-4.13-2.83c-1.24-1.13-2.39-2.33-3.71-3.65c-0.4,3.79,0.67,7.06,2.12,10.54c-3.38-1.74-5.01-4.59-6.69-7.46
		c-0.52,1.59,0.44,5.28,2.18,8.51c1.43,2.66,3.35,4.88,5.66,6.83c-3.25-0.82-6.1-2.43-8.78-4.38c-2.66-1.97-4.95-4.34-7.32-7
		c-0.5,2.73-0.34,5.2,0.23,7.63c0.57,2.47,1.7,4.72,3.17,7.02c-2.66-0.4-4.47-1.87-6.18-3.65c-0.27,1.07-0.02,2.01,0.23,2.93
		c0.71,2.49,2.05,4.76,2.85,7.23c0.15,0.48,0.29,0.99,0.42,1.47c2.08,0.15,4.19,0.23,6.33,0.23c6.85,0,13.52-0.75,19.94-2.22
		c0.27-0.63,0.57-1.28,0.84-1.91c0.19-0.44,0.42-0.86,0.34-1.45c-0.73,0.48-1.11,1.24-1.87,1.59c-0.67,0.31-1.3,0.75-2.26,0.82
		c2.77-3.31,4.07-7,3.96-11.17c-1.01,1.36-2.1,2.56-3.67,3.25c-0.06-0.1-0.13-0.19-0.13-0.23c1.93-3.17,2.43-6.71,2.66-10.29
		c0.31-4.72,0.36-9.48,1.53-14.09c0.13-0.48,0.19-0.99,0.69-1.64c0.15,5.16,1.91,9.54,4.53,13.65c-0.06,0.06-0.15,0.1-0.21,0.17
		c-0.78-0.29-1.55-0.59-2.31-0.88c-0.44-0.19-0.67-0.19-0.61,0.42c0.44,4.28,1.32,8.43,3.17,12.35c1.17,2.47,2.85,4.4,4.84,6
		c0.78-0.29,1.55-0.59,2.33-0.92c-0.71-0.61-1.36-1.3-1.84-2.16c-0.06-0.08-0.15-0.17-0.21-0.25c-0.31-0.17-0.57-0.36-0.48-0.75
		c-0.42-0.46-0.71-1.01-0.88-1.61c-0.29-0.4-0.55-0.84-0.59-1.36c-0.96-2.24-1.28-3.44-1.15-4.7c1.09,1.26,2.22,2.33,3.37,3.35
		c1.95,1.68,4.05,3.14,6.31,4.36c0.5,0.27,0.61,0.5,0.46,0.94c8.2-3.92,15.7-9.03,22.3-15.14c-0.61-1.24-0.99-2.56-1.26-3.96
		c-0.06-0.31-0.19-0.67,0.13-0.9c0.27-0.21,0.57,0.06,0.8,0.19c1.13,0.59,2.01,1.43,2.73,2.39c0.69-0.69,1.38-1.4,2.05-2.12
		c-0.15-1.82-0.44-3.65-0.84-5.49c1.15,1.13,1.68,2.39,2.39,3.73C157.4,144.51,157.06,143.46,156.96,142.42z M55.12,92.9
		c1.09,1.26,2.14,2.52,3.21,3.79c3.02,3.61,4.44,7.78,4.36,12.47c-0.02,2.2-0.19,4.4-0.25,6.6c-0.04,1.61,0.13,3.21,0.59,4.78
		c0.06,0.19,0.15,0.42-0.08,0.73c-1.91-2.35-2.39-5.22-3.27-8.22c-1.72,3.88-1.84,7.63-0.99,11.74c-1.87-1.78-2.62-3.94-3.5-6.06
		c-0.94,1.82-1.03,4.59-0.25,9.96c-1.07-1.17-1.66-2.45-2.2-3.71c-0.52-1.28-0.96-2.58-1.45-3.9c-0.96,1.51-1.26,3.77-0.8,6.25
		c-1.3-1.19-1.82-2.64-2.39-4.13c-1.11,1.68-1.3,4.76-0.52,8.59c-1.84-1.91-2.49-4.23-3.17-6.56c-1.17,1.51-1.45,4.86-0.78,9.89
		c-1.64-1.84-2.18-4.02-2.75-6.48c-1.05,2.43-1.76,4.76-3.33,6.65c0.1-1.09,0.59-2.05,0.67-3.14c0.15-2.37-0.38-4.67-0.8-6.98
		c-0.27-1.45-0.44-2.89-0.34-4.55c0.94,1.11,1.3,2.47,2.6,3.4c-0.19-4.3,2.14-7.82,2.77-11.78c0.15-1.07,0.25-2.16,0.44-3.25
		c0.78,3.38,0.29,6.9,1.22,10.25c0.67-1.74,0.86-3.63,1.87-5.39c0.52,1.7,0.21,3.42,1.13,4.86c0.15-3.1,0.9-6.02,2.37-8.78
		c0.1,2.16,0.27,4.32,1.47,6.48c0.94-4.09,3.58-7.48,2.68-11.99c1.17,1.4,2.08,4.34,2.77,8.68c0.63-0.36,0.8-0.96,0.99-1.51
		c1.19-3.31,0.9-6.62-0.13-9.92c-0.08-0.25-0.13-0.48-0.13-0.73c-0.25-0.48-0.55-0.92-0.57-1.49c-0.21-0.13-0.46-0.13-0.52-0.46
		c-0.34-1.99-1.64-3.46-2.62-5.14c-0.4,0.27-0.36,0.63-0.5,0.9c-0.23,1.36-0.15,2.75-0.25,4.42c-1.09-1.32-1.43-2.7-1.89-4.02
		c-0.46-1.32-0.84-2.68-1.38-4.02c-0.73,1.91-0.71,3.84-0.44,5.83c-0.92-1.09-1.68-2.28-1.99-3.69c-0.4-0.67-0.44-1.47-0.8-2.39
		c-0.92,2.01-1.07,4-0.99,6.29c-1.47-1.4-2.12-3.02-2.87-4.95c-0.78,2.6-0.69,4.93-0.42,7.27c-1.78-2.01-2.28-4.49-2.54-7.32
		c-1.57,1.93-2.14,4-2.68,6.1c-0.92-5.09-0.15-9.98,1.78-14.74c0.44,1.61,0.92,3.17,1.74,4.61c0.4,0.71,0.69,0.82,1.03-0.02
		c-0.08-2.47-0.08-4.93,0.82-7.27c0.36,1.68,0.36,3.4,0.96,5.01c0.19,0.5,0.17,0.52,0.69,0.52c-0.1-4.55,0.82-8.93,2.28-13.23
		c-0.04,3.33,0.5,6.56,1.84,9.94c0.36-1.68,0.59-3.08,0.94-4.44c0.34-1.3,0.78-2.6,1.61-3.71c-0.06,1.97-0.23,3.92-0.17,5.89
		C50.36,85.48,52.12,89.44,55.12,92.9z M150.17,81.9c-0.15,0.38-0.52,0.06-0.8,0.1c-0.99,0.15-1.59,0.82-2.16,1.55
		c-0.42,0.57-0.82,1.15-1.32,1.82c-0.29-1.49-0.29-1.49-1.43-0.71c-1.05,0.73-1.93,1.66-2.85,2.54c0.88-2.26,2.14-4.26,3.92-5.87
		c0.13-0.1,0.57-1.11,0.92,0.06c0.17,0.52,0.63-0.1,0.9-0.29c0.99-0.8,1.72-0.88,2.39-0.15C150,81.21,150.29,81.54,150.17,81.9z
		 M144.99,65.5c0.15-0.61,0.15-1.26,0.06-1.87c-0.17-0.99,0.36-0.96,0.99-0.78c0.42,0.1,0.86,0.25,1.26,0.65
		c-1.3,0.63-0.57,1.24,0.02,1.84c1.28,1.28,2.6,2.47,3.5,4.07c0.21,0.38,0.55,0.69,0.46,1.22c-0.38,0.13-0.84-0.36-1.11-0.02
		c-0.31,0.42,0.1,0.84,0.27,1.19c1.19,2.62,1.89,5.35,1.93,8.55c-0.67-1.09-0.78-2.12-1.43-2.87c-0.44,0.19-0.17,0.82-0.71,1.09
		c-0.38-1.22-1.17-2.12-2.18-2.85c-0.5-0.38-0.61-1.09-0.67-1.7c-0.19-1.57-0.84-2.96-1.68-4.26
		C144.84,68.44,144.59,67.06,144.99,65.5z M141.86,60.37c0.21,0.23,0.42,0.67,0.84,0.15c0.23-0.29,0.48-0.04,0.57,0.19
		c0.17,0.42,0.31,0.86,0.04,1.28c-0.21,0.31-0.44,0.17-0.65,0c-0.92-0.73-1.64-1.61-1.78-2.89
		C141.19,59.51,141.51,59.97,141.86,60.37z M139.89,56.18c0.34,0.17,0.73,0.31,0.94,0.84c-0.38,0.08-0.82,0.04-0.9,0.5
		c-0.17,0.92-0.69,0.69-1.28,0.48c-2.85-1.01-4.59,0.15-4.84,3.17c-0.21,2.22-2.28,3.46-4.36,2.62c-1.11-0.46-1.64-1.61-1.22-2.93
		c0.96-3.06,3.4-4.44,6.23-5.28C136.33,55.02,138.15,55.27,139.89,56.18z M138.78,61.67c-0.15-0.88-0.69-1.61-0.8-2.73
		c1.45,1.26,2.08,2.68,2.2,4.3c0.08,1.11-0.4,2.01-1.38,2.56c-1.05,0.57-2.14,0.75-3.29,0.29c-0.19-0.08-0.4-0.21-0.4-0.46
		c-0.02-0.31,0.25-0.44,0.48-0.5c0.38-0.13,0.78-0.19,1.17-0.29C138.51,64.35,139.05,63.43,138.78,61.67z M125.87,52.91
		c0.08,0.19,0.1,0.46-0.13,0.57c-0.19,0.1-0.34-0.08-0.46-0.21c-0.52-0.46-0.88-1.05-0.92-1.89
		C125.18,51.71,125.62,52.23,125.87,52.91z M122.43,48.52c0.21-0.04,0.96-0.36,0.48,0.48c-0.17,0.27,0.19,0.31,0.34,0.42
		c0.36,0.23,0.84,0.27,1.17,0.99c-1.66-0.48-1.76,0.57-1.84,1.7c-0.73-0.67-1.05-1.43-1.15-2.26
		C121.32,49.07,121.76,48.67,122.43,48.52z M119.94,58.29c-0.25-0.84-1.01-1.11-1.19-1.84c0.73-0.19,1.38,0.15,2.05,0.17
		c0.4,0,0.88,0.04,1.03-0.44c0.13-0.36-0.19-0.65-0.44-0.92c-0.31-0.29-0.78-0.42-0.99-0.96c1.24-0.06,2.33,0.29,3.56,0.71
		c-0.23-0.65-0.4-1.09-0.57-1.55c2.1,2.28,4.8,1.93,7.44,1.91c-2.01,0.9-3.94,1.82-5.24,3.75c-0.27-1.34-0.4-1.4-1.47-0.61
		c-2.18,1.66-3.92,3.63-4.65,6.35c-0.1,0.42-0.29,0.82-0.46,1.26c-0.57-0.31-0.44-0.92-0.82-1.36c-0.92,0.84-0.99,2.05-1.49,3.27
		c-0.73-2.41,0.19-4.49,0.65-6.69c-0.71,0.31-1.3,0.57-2.03,0.88c1.36-4.32-1.7-6.6-3.94-9.27
		C114.47,54.29,116.31,57.56,119.94,58.29z M108.68,83.53c-3.14,2.58-6.29,5.07-10.71,3.71c5.37-0.52,8.95-3.42,10.98-8.39
		c0.46,0.63,0.31,1.32,0.84,1.84c0.84-1.11,0.88-2.47,1.32-3.84c0.4,0.57,0.42,1.15,1.01,1.55c0.75-2.08-0.02-4.47,1.61-6.5
		c-0.69,3.82,1.24,7.42-0.29,11.03c-0.57-0.38-0.38-1.24-1.11-1.53c-0.82,1.68-1.8,3.25-3.21,4.49c-0.23,0.21-0.42,0.52-0.88,0.52
		C108.39,85.48,108.85,84.6,108.68,83.53z M90.82,31.04c0.36,0,0.82,0.23,1.01-0.19c0.19-0.38-0.23-0.61-0.48-0.88
		c-0.15-0.19-0.34-0.36-0.67-0.69c1.82-0.02,3.25,0.73,4.76,1.34c0.21-0.65-0.06-1.26,0-1.95c1.09,0.31,1.87,1.01,2.6,1.74
		c0.48,0.48,0.73,0.42,0.99-0.21c0.55-1.32,0.52-2.77,0.73-4.3c1.34,1.13,2.05,2.49,2.66,3.94c0.29,0.69,0.57,1.43,0.8,2.16
		c0.23,0.8,0.61,0.8,1.11,0.25c0.55-0.59,1.07-1.17,1.68-1.84c0.46,0.8,0.15,1.34,0.06,1.89c-0.13,0.75,0.1,0.88,0.8,0.65
		c1.57-0.46,2.96-1.26,4.49-2.16c-0.48,1.76-1.7,2.89-2.64,4.28c1.13,0.55,2.31,0.38,3.69,0.36c-0.61,0.48-1.03,0.82-1.49,1.17
		c1.53,1.36,2.93,2.75,3.73,4.63c-1.11-0.84-1.91-2.01-3.25-2.7c-0.27,0.71,0.19,1.38-0.08,2.24c-1.32-2.77-3.29-4.61-5.81-5.95
		c-0.29,0.59,0.15,1.03,0.02,1.53c-0.5-0.02-0.75-0.42-1.03-0.71c-2.33-2.43-5.28-3.44-8.51-3.92c-1.24-0.19-1.24-0.15-0.84,1.03
		c-1.84-0.99-3.86-1.13-5.97-1.55C89.81,30.71,90.32,31.06,90.82,31.04z M99.67,60.83c-0.73-0.04-1.45-0.08-2.18-0.13
		c-0.13,0.04-0.23,0.08-0.36,0.13c0.02,0.06,0.06,0.15,0.08,0.23c0.34,0.15,0.63,0.34,0.9,0.65c-0.21,0.34-0.57,0.34-0.84,0.42
		c-2.7,0.84-3.82,2.87-4.21,5.47c-0.06,0.38-0.13,0.73-0.21,1.09c-0.1,0.4-0.23,0.84-0.75,0.75c-0.5-0.08-0.55-0.54-0.59-0.94
		c-0.1-1.34,0.13-2.64,0.67-3.86c0.38-0.86,0.75-1.72,1.17-2.66c-0.84-0.13-1.36,0.48-2.22,0.65c1.36-1.99,2.81-3.48,5.22-3.56
		c0.04-0.08,0.1-0.15,0.19-0.04c0.17-0.04,0.31-0.06,0.48-0.08c0.29-0.02,0.59-0.04,0.88-0.04c0.29,0.02,0.61,0.02,0.9,0.04
		c0.17-0.06,0.31,0,0.46,0.13c0.27,0.02,0.57,0.06,0.86,0.08c0.13,0.04,0.27,0.08,0.42,0.15c0.48,0.13,0.99,0.21,1.47,0.38
		c1.36,0.42,1.36,0.42,1.72-1.01c0.69,0.46,0.99,1.13,1.26,1.87c0.5,1.38,0.5,1.38,1.45,0.31c0.19,1.07,0.04,2.05-0.42,2.98
		c-0.55,1.01-1.07,1.07-1.8,0.17c-0.82-1.03-1.68-2.03-2.93-2.56C100.76,61.21,100.21,61.04,99.67,60.83z M101.26,65.67
		c0.02,1.11-0.73,1.97-1.74,1.99c-1.05,0.04-2.03-0.94-2.01-1.99c0-1.03,0.94-1.87,2.05-1.84
		C100.55,63.83,101.26,64.58,101.26,65.67z M93.48,47.43c-0.36-0.36-0.75-0.63-1.28-1.07c2.47-0.55,4.55,0.15,6.58,1.22
		c0.19-0.67-0.19-1.11-0.46-1.76c2.35,0.42,3.71,2.12,5.26,3.56c0.36-0.63-0.06-1.28,0.34-1.78c1.78,1.82,1.61,5.11-0.38,6.77
		c-0.27-0.65-0.29-1.43-0.99-1.99c-0.23,1.51-0.82,2.7-2.12,3.48c-0.67,0.4-1.22,0.67-1.22-0.52c0-0.61-0.29-0.73-0.84-0.36
		c-1.78,1.28-4.21,0.38-5.53-1.09c-0.36-0.4-0.34-0.63,0.21-0.71c0.54-0.08,1.09-0.08,1.66-0.48c-0.84-0.65-1.68-1.19-2.29-2.01
		c-0.57-0.8-0.42-1.15,0.48-1.34c0.06-0.02,0.13-0.06,0.21-0.08C94.55,48.88,94.61,48.57,93.48,47.43z M80.32,41.19
		c2.39,0.19,4.59,0.82,6.31,2.6c-1.61-0.38-3.21,0.02-4.8,0.06c-0.69,0.42-1.57,0.31-2.33,0.88c1.17,0.44,2.39,0.65,3.48,1.61
		c-1.24,0.04-2.31,0.08-3.38,0.15c-2.64,0.46-5.24,1.05-7.71,2.22c2.08,0.19,4.19,0.15,6.04,1.38c-2.49-0.21-4.78,0.59-7.11,1.26
		c-1.76,0.5-3.54,0.61-5.32,0.23c-1.95-0.4-3.84-0.5-5.76,0.59c0.61-1.03,1.66-1.72,3.14-2.12c1.22-0.31,2.43-0.57,3.63-0.88
		c0.52-0.15,1.03-0.38,1.51-0.61c0.34-0.15,0.84-0.29,0.8-0.65c-0.04-0.44-0.61-0.42-0.99-0.52c-1.61-0.36-3.25-0.25-4.91-0.34
		c2.39-1.43,5.22-1.49,7.97-2.39c-1.45-0.54-2.87-0.57-4.34-1.49c3.04-0.31,5.85-0.55,8.43-1.76c0.31-0.5,0.94-0.46,1.34-0.82
		c0.23-0.21,0.73-0.19,0.65-0.69c-1.57-0.04-3.14,0.06-4.72-0.38c2.68-0.69,5.35-1.4,8.03-2.1c-1.72-1.01-3.61-0.9-5.45-1.03
		c4.26-3.56,18.34-2.56,23.18,1.82c-2.75-0.75-5.3-1.28-8.05-1.19c0.71,1.05,1.84,1.59,2.56,2.79
		C88.24,39.07,84.22,39.32,80.32,41.19z M92.5,75.84c-0.63-0.17-1.61-0.19-1.53-0.9c0.06-0.59,1.03-0.36,1.64-0.34
		c0.59,0.04,1.19,0.02,1.97,0.02c-0.36-0.4-0.71-0.46-1.01-0.61c-0.34-0.17-0.96-0.23-0.78-0.73c0.17-0.48,0.69-0.25,1.07-0.1
		c0.94,0.4,1.93,0.65,2.96,0.78c2.1,0.29,4.07-0.1,5.91-1.17c1.09-0.63,1.74-1.64,1.93-2.85c0.4-0.08,0.46,0.19,0.57,0.34
		c0.4,0.63,0.67,0.55,0.96-0.06c0.13-0.29,0.4-0.55,0.65-0.73c0.59-0.42,1.24-0.96,1.99-0.65c0.82,0.34,0.52,1.19,0.55,1.84
		c0.04,0.55,0.02,1.09,0.02,1.78c-0.38-0.31-0.63-0.5-0.94-0.75c-0.44,1.09,0.21,2.08,0.02,3.14c-0.57-0.25-0.65-0.96-1.3-1.24
		c-0.48,1.13-0.21,2.56-1.17,3.52c-0.06-0.04-0.17-0.04-0.17-0.08c-0.59-1.47-0.59-1.47-1.93-0.61c-0.38,0.23-0.78,0.44-1.15,0.63
		c-0.19,0.1-0.38,0.17-0.61,0.25c0.46-1.95,0.46-1.97-1.51-1.36c-0.48,0.15-0.96,0.31-1.45,0.52c-0.46,0.19-0.9,0.42-1.64,0.78
		c0.31-0.59,0.52-0.96,0.71-1.32c-0.06-0.06-0.13-0.1-0.21-0.17C96.21,75.86,94.34,76.28,92.5,75.84z M123.92,117.22
		c-0.67,1.89-1.57,3.61-3.37,4.88c0.15-1.24,0.5-2.31,0.23-3.63c-1.38,1.05-2.18,2.41-3.02,3.73c-0.88,1.32-1.49,2.75-1.82,4.44
		c-0.52-0.92-0.38-1.82-0.8-2.79c-1.91,3.37-2.16,7.04-3,10.84c-0.44-1.22-0.48-2.18-0.55-3.14c-0.06-1.03-0.08-2.05-0.1-3.08
		c-0.02-0.63-0.25-0.75-0.84-0.48c-1.8,0.88-2.87,2.33-3.48,4.17c-0.1,0.36-0.17,0.71-0.31,1.24c-1.15-1.47-1.66-3.06-1.61-4.74
		c0.04-1.76,1.34-2.91,2.6-4.3c-1.95-0.19-3.29,0.63-4.74,1.89c1.22-3.58,3.02-6.37,6.27-8.28c0,1.11-0.46,2.01-0.13,3.08
		c1.49-1.93,2.91-3.82,5.16-4.97c0.02,0.96-0.65,1.74-0.36,2.66c1.8-0.65,3.29-1.76,4.65-3.04c1.24-1.15,2.41-2.39,3.63-3.54
		c1.17-1.15,2.54-2.05,4.3-2.7C125.05,111.96,124.82,114.7,123.92,117.22z M133.19,95.38c-0.04,0.69-0.1,0.75-1.11,1.61
		c-0.15,0.27-0.36,0.5-0.65,0.67c-0.67,0.78-1.53,1.36-2.39,1.93c-0.23,0.15-0.5,0.42-0.8,0.27c-0.31-0.19-0.06-0.55-0.1-0.8
		c-0.04-0.21-0.04-0.44-0.06-0.86c-1.87,1.51-3.37,3.25-5.64,3.92c-0.23-0.52,0.29-0.86,0.29-1.34c-0.08-0.02-0.21-0.08-0.29-0.06
		c-3.52,1.61-7.29,2.56-10.96,3.79c-2.12,0.73-3.88,1.93-4.42,4.32c-0.1,0.46-0.1,0.94,0.04,1.4c0.34,1.01,0.86,1.26,1.84,0.84
		c0.19-0.08,0.42-0.17,0.57-0.31c1.99-2.03,4.65-2.43,7.27-3.02c2.45-0.57,4.91-1.15,7.21-2.18c0.25-0.13,0.5-0.31,0.92-0.06
		c-2.66,2.31-5.47,4.44-7.34,7.5v-1.91c-1.91,0.67-3.12,2.1-4.38,3.29c-0.31-0.02-0.27-0.17-0.27-0.25
		c0.15-1.76,0.06-1.82-1.57-1.09c-1.22,0.52-2.16,1.38-3.06,2.31c-0.27,0.29-0.46,0.65-0.9,0.78c-0.34-0.38-0.21-0.84-0.21-1.26
		c0.04-0.9-0.31-0.86-0.99-0.55c-0.86,0.36-1.38,1.13-2.26,1.72c-0.06-0.73-0.13-1.34-0.17-1.95c-0.04-0.48-0.19-0.59-0.69-0.42
		c-1.15,0.38-1.93,1.11-2.37,2.24c-0.15,0.38-0.27,0.75-0.46,1.28c-3.44-4.67-2.12-8.93,0.88-13.25c-2.45,0.55-4.07,2.01-5.74,3.61
		c-0.29-1.64,0.02-3,0.57-4.32c0.31-0.8,0.17-1.24-0.67-1.57c-1.17-0.48-1.26-1.09-0.27-1.84c0.99-0.73,1.59-1.68,2.01-2.79
		c0.34-0.9,0.8-1.74,1.4-2.49c0.19-0.25,0.36-0.65,0.71-0.61c0.44,0.04-0.02,0.61,0.44,0.86c1.57-2.01,3.33-3.88,5.76-5.14
		c-0.1,1.15-0.5,2.16-0.27,3.48c2.77-2.45,5.7-4.4,9.35-5.14c-0.25,1.11-1.34,1.74-1.28,3.02c1.8-0.71,3.56-1.17,5.45-1.28
		c0.06,0.63-0.63,0.88-0.55,1.43c3.67,0.52,7.55-1.03,8.99-3.63c-0.36-0.23-0.57,0.25-0.88,0.19c-0.42,0.25-0.8,0.57-1.32,0.5
		c-0.55,0.31-1.15,0.42-1.76,0.42c-0.4,0.38-0.84,0.04-1.32,0.21c0.23-0.88,0.84-1.45,0.86-2.22c-0.23,0.06-0.44,0.13-0.67,0.21
		c-0.31,0.25-0.65,0.48-1.09,0.4c-1.36,0.48-2.66,0.29-3.94-0.25c-0.46-0.17-0.65-0.46-0.23-0.9c0.86-0.88,1.22-2.05,1.53-3.21
		c0.06-1.99-1.3-0.46-1.99-0.82c0.38-0.75,0.73-1.51,1.11-2.29c0.23-1.53,0.61-3.04,1.4-4.53c-0.78,0.17-1.19,0.67-1.74,0.92
		c-0.34-2.24,1.53-4.7,5.43-7.06c-0.57-0.06-1.01-0.13-1.66-0.23c1.32-1.01,2.7-1.4,4.15-1.66c2.12-0.34,4.17,0.08,6.16,0.71
		c1.8,0.59,3.63,0.82,5.53,0.67c1.24-0.1,2.49-0.04,3.71,0.23c3.86,0.82,4.76,4.36,4.47,7.4c-0.15,1.64-0.73,3.1-1.72,4.44
		c-1.78,2.49-2.79,5.37-3.9,8.2c-0.61,1.57-1.26,3.12-2.24,4.51c-0.31,0.46-0.65,0.94-1.19,1.32c-0.25-0.55-0.13-1.13-0.5-1.57
		c-0.88,0.61-0.84,1.95-1.99,2.24H133.19z M142.18,98.81c-0.75,0.21-1.11,0.92-1.72,1.26c-2.01,1.93-4.23,3.54-7.02,4.19
		c2.22-1.4,4.23-3.08,5.7-5.3c0.86-1.78,1.59-3.67,2.98-5.39c0.17,0.65,0.29,1.19,0.5,2.05c0.99-1.87,1.7-3.65,3.56-4.72v6.18
		c-0.34-0.42-0.55-0.71-0.88-1.13c-0.8,1.93-2.05,3.5-2.58,5.58C142.05,100.66,142.24,99.74,142.18,98.81z"/>
	<path class="st0" d="M157.06,145.77c-0.71-1.34-1.24-2.6-2.39-3.73c0.4,1.84,0.69,3.67,0.84,5.49c-0.67,0.71-1.36,1.43-2.05,2.12
		c-0.78,0.78-1.57,1.53-2.39,2.29c-6.6,6.1-14.11,11.22-22.3,15.14c-1.64,0.78-3.31,1.51-4.99,2.18c-0.78,0.34-1.55,0.63-2.33,0.92
		c-3.73,1.38-7.57,2.54-11.51,3.42c-6.41,1.47-13.08,2.22-19.94,2.22c-2.14,0-4.26-0.08-6.33-0.23c-1.01-0.06-1.97-0.15-2.96-0.23
		c-1.11-0.13-2.22-0.25-3.33-0.42c-6.06-0.84-11.93-2.31-17.52-4.3c-7.38-2.6-14.3-6.16-20.65-10.5c-0.04-0.02-0.08-0.06-0.13-0.08
		c-3.63-2.49-7.06-5.24-10.27-8.24c-1.13-1.05-2.24-2.14-3.33-3.25c-0.06-0.04-0.1-0.1-0.17-0.17c0.23-0.29,0.38-0.48,0.52-0.67
		c4.7-6.14,6.77-12.89,4.57-20.5c-1.15-3.96-1.82-7.92-1.36-12.03c0.02-0.02-0.02-0.06-0.04-0.08c-0.04,0-0.06-0.02-0.08-0.04
		c-0.4,0.19-0.48,0.61-0.65,0.94c-1.09,2.43-1.7,4.97-2.01,7.61c-0.17,1.55-0.19,3.1-0.27,4.63c-1.95-4.84-1.91-9.81-1.09-14.86
		c0.84-4.99,2.49-9.73,4.59-14.55c-1.99,0.82-3.77,1.64-6.08,1.4c3.65-2.31,5.91-5.28,6.94-9.14c0.36-1.26,0.65-2.56,0.9-3.84
		c0.44-2.1,0.82-4.19,1.28-6.62c-2.66,2.39-4.34,5.14-5.97,7.9c1.3-10.17,6.48-18.43,12.91-26.39c-2.31,0.57-4.02,1.57-5.74,2.93
		c0.15-1.19,0.67-2.08,1.22-2.91c3.4-5.41,8.13-9.41,13.42-12.85c0.29-0.19,0.8-0.23,0.84-0.8c-2.68,0.15-5.2,0.94-7.67,1.97
		c2.33-2.75,5.09-4.8,8.39-6.23c2.93-1.26,6.1-1.74,9.16-2.62c1.64-0.46,3.21-1.05,4.63-2.12c-5.3-2.08-6.85-3.02-7.53-4.55
		c0.31,0.06,0.61,0.1,0.88,0.17c2.16,0.52,4.34,0.69,6.54,0.63c3.65-0.15,7.04-1.26,10.4-2.58c3.02-1.17,6-2.52,9.22-3.1
		c1.66-0.31,3.31-0.4,5.22-0.06c-1.36-2.22-3.35-2.79-5.64-3.27c0.92-0.38,1.68-0.5,2.43-0.55c2.87-0.1,5.47,0.86,8.01,2.03
		c0.06,0.04,0.13,0.06,0.19,0.1v-0.25c-0.25-0.92-0.96-1.61-1.45-2.54c1.66,0.04,2.93,0.82,4.21,1.57c0.44,0.27,0.82,1.05,1.32,0.71
		c0.44-0.29,0.29-1.07,0.31-1.66c0-0.17-0.04-0.36-0.06-0.54v-0.19c-0.1-1.82-0.9-3.42-1.55-5.05c-0.02-0.04-0.04-0.08-0.06-0.15
		h0.44c0.02,0.06,0.04,0.13,0.06,0.17c0.02,0.04,0.04,0.08,0.06,0.1c2.14,1.38,3.73,3.23,5.01,5.35c0.34,0.55,0.65,1.13,0.94,1.72
		c0.46,0.9,0.86,1.82,1.34,2.83c1.07-1.13,1.59-2.45,2.05-3.88c0.13-0.44,0.27-0.9,0.42-1.34c0.27,0.5,0.48,1.03,0.63,1.55
		c0.34,1.15,0.4,2.28,0.42,3.42c0.02,1.07,0.34,0.99,1.05,0.55c1.26-0.78,2.26-1.78,3.12-2.96c0.17-0.23,0.31-0.46,0.46-0.69
		c0.52-0.82,0.94-1.7,1.51-2.77c0.25,1.43,0.25,2.75,0.04,3.98c-0.36,2.03-1.22,3.88-2.39,5.66c1.49,0.13,2.6-0.59,3.9-1.17
		c-0.17,1.51-0.92,2.56-1.76,3.58c-0.25,0.31-0.46,0.55-0.13,0.92c0.99,1.03,1.8,2.18,2.49,3.4c0.52-0.36,0.61-1.01,1.15-1.28
		c0.29,0.88,0.1,1.82,0.61,2.64c0.8-0.73,0.84-1.78,1.36-2.64c0.63,0.9,0.55,1.93,0.71,3.25c0.69-0.88,1.22-1.55,1.74-2.22
		c0.1,0.08,0.21,0.17,0.31,0.25c-0.1,0.78-0.25,1.57-0.36,2.35c-0.02,0.21-0.13,0.46,0.13,0.59c0.25,0.13,0.42-0.06,0.59-0.19
		c0.5-0.4,0.9-0.86,1.19-1.43c0.34-0.67,0.65-1.36,1.03-2.14c0.61,2.05,0.25,3.9-0.5,5.68c1.15,0.23,2.33-0.19,3.61,0.34
		c-0.67,0.44-1.13,0.73-1.59,1.01c-0.73,0.44-0.61,0.75,0.1,1.09c0.9,0.4,1.89,0.42,2.93,0.69c-0.88,1.07-2.16,1.13-3.19,1.66
		c0.8,0.99,1.59,1.87,2.26,2.81c0.63,0.88,1.43,1.17,2.45,1.11c2.05-0.08,4.11-0.38,6.16-0.25c3.29,0.19,5.87,1.57,7.19,4.7
		c0.67,1.59,1.64,2.62,3.29,3.06c0.61,0.19,1.17,0.59,1.72,0.96c0.55,0.4,1.01,0.92,1.17,1.64c-1.36,0.08-1.4,0.15-0.65,1.24
		c0.48,0.71,1.07,1.38,1.66,2.03c1.01,1.11,1.7,2.39,2.08,3.84c0.08,0.29,0.25,0.69,0.13,0.92c-0.21,0.42-0.63-0.25-1.03,0.08
		c1.07,4.34,2.39,8.7,0.92,13.35c-1.05-1.22-1.22-1.17-1.82,0.27c-0.31,0.8-0.57,1.59-0.82,2.39c-0.08,0.29-0.15,0.71-0.5,0.36
		c-0.96-0.9-1.13-0.04-1.4,0.57c-0.36,0.75-0.52,1.57-0.55,2.43c-0.08,1.99,0.48,3.84,1.03,5.7c1.26,4.19,2.37,8.41,1.64,12.85
		c-0.04,0.29,0.08,0.67-0.38,0.82c-0.57-2.24-1.11-4.47-2.77-6.21c-0.29,0.34-0.31,0.61-0.38,0.9c-0.63,2.81,0,5.53,0.55,8.28
		c0.38,1.89,0.57,3.77,0.27,5.7c-0.44-0.04-0.34-0.34-0.4-0.52c-0.44-1.49-1.17-2.83-2.33-3.92c-0.42-0.4-0.71-0.48-0.8,0.27
		c-0.38,3.14,0.63,5.85,2.75,8.15c1.76,1.89,4.02,2.98,6.46,3.77c0.9,0.29,1.87,0.4,2.73,0.94c-0.17,0.13-0.29,0.27-0.44,0.36
		c-0.59,0.29-1.15,0.63-1.76,0.86c-0.61,0.23-0.8,0.42-0.44,1.09c2.01,3.56,2.85,7.5,3.31,11.53
		C157.06,143.46,157.4,144.51,157.06,145.77z"/>
</g>
</svg>
