<?xml version="1.0" encoding="utf-8"?>
<!-- Generator: Adobe Illustrator 23.0.1, SVG Export Plug-In . SVG Version: 6.00 Build 0)  -->
<svg version="1.1" id="Layer_1" xmlns="http://www.w3.org/2000/svg" xmlns:xlink="http://www.w3.org/1999/xlink" x="0px" y="0px"
	 viewBox="0 0 180 180" style="enable-background:new 0 0 180 180;" xml:space="preserve">
<style type="text/css">
	.st0{fill:none;}
	.st1{fill:#ECF8FE;}
	.st2{clip-path:url(#SVGID_2_);}
	.st3{fill:#101010;}
	.st4{fill:#191A1A;}
	.st5{fill:#121212;}
	.st6{fill:#080909;}
</style>
<g>
	<circle class="st1" cx="90" cy="90" r="90"/>
	<g>
		<path d="M138.36,128.13c-0.5-2.24-0.31-4.45,0.11-6.66c1.17-6.15,1.97-12.34,1.7-18.63c-0.06-1.31-0.11-2.62-0.37-3.92
			c-0.12,3.69-0.28,7.37-0.81,11.02c-0.29,2-0.58,4-1.55,5.81c-0.62,1.17-1.47,1.31-2.35,0.33c-1.52-1.7-3.36-2.95-5.39-3.94
			c-1.79-0.87-3.61-1.68-5.39-2.58c-1.7-0.86-3.29-1.89-4.17-3.7c-0.01-0.02-0.08-0.02-0.13-0.03c-0.05,0.26,0.03,0.49,0.09,0.73
			c0.45,1.6,1.51,2.71,2.84,3.62c1.83,1.26,3.88,2.12,5.8,3.23c3.35,1.92,5.69,4.59,6.57,8.46c0.55,2.42,0.5,4.71-0.68,6.96
			c-0.89,1.7-1.84,3.36-2.88,4.97c-1.79,2.76-3.83,5.34-5.78,7.98c-0.26,0.21-0.45,0.47-0.6,0.76c-0.04,0.05-0.09,0.11-0.13,0.16
			l-0.01,0c-0.01,0-0.01-0.01-0.01-0.01c0,0.01,0,0.02,0,0.03c0.01-0.01,0.01-0.02,0.02-0.02c0.09,0.06,0.16,0,0.23-0.05
			c0.23-0.23,0.46-0.46,0.68-0.68c0.11-0.09,0.24-0.18,0.34-0.28c2.76-2.69,5.56-5.34,7.84-8.48c0.37-0.51,0.79-1,1.47-1.31
			c0.08,0.47,0.05,0.85-0.04,1.23c-0.51,2.38-1.48,4.57-2.76,6.64c-3.12,5.03-6.18,10.09-8.76,15.43c-1.52,3.13-2.96,6.3-4.15,9.57
			c0,0,0,0,0,0c-0.06,0.12-0.11,0.24-0.17,0.36c-0.25,0.47-0.45,0.96-0.52,1.5l0.01-0.01c0.33-0.46,0.59-0.94,0.75-1.48
			c0.03-0.07,0.06-0.13,0.09-0.2c2.81-5.68,6.18-11.02,9.83-16.19c2.77-3.93,5.35-7.97,7.21-12.44
			C138.4,133.63,138.98,130.96,138.36,128.13z"/>
		<path d="M50.84,135.56c-3.42-2.96-4.62-6.77-4.32-11.18c0.26-3.74,1.34-7.28,2.56-10.78c0.09-0.27,0.3-0.54,0.14-0.9
			c-0.31,0.18-0.36,0.47-0.5,0.7c-0.43,0.76-0.8,1.55-1.28,2.28c-0.57,0.87-1.36,0.8-1.85-0.12c-0.16-0.3-0.28-0.64-0.38-0.97
			c-1.49-4.72-1.72-9.58-1.53-14.47c0.02-0.42,0-0.84,0-1.34c-0.23,0.63-0.24,1.21-0.32,1.77c-0.67,5.27-0.72,10.52,0.51,15.74
			c0.6,2.55,1.2,5.09,0.6,7.74c-0.11,0.48-0.14,0.99-0.16,1.48c-0.09,2.51,0.09,4.98,1.36,7.24c0.94,1.68,2.46,2.79,3.95,3.91
			c1.69,1.28,3.39,2.53,4.77,4.16c0.71,0.84,1.32,1.75,2,2.62c0.03-0.12,0.01-0.21-0.02-0.3C55.19,140.13,53.27,137.66,50.84,135.56
			z"/>
		<path d="M72.53,85.22c-2.12,3.04-3.26,6.42-3.64,10.12c0.37-0.1,0.33-0.39,0.39-0.61c0.61-2.14,1.5-4.16,2.72-6.03
			c1.69-2.59,3.91-4.7,6.12-6.83c3.95-3.81,5.97-8.44,6.04-14.01c-0.09,0.15-0.15,0.2-0.16,0.27c-0.61,4.03-2.72,7.26-5.42,10.19
			C76.51,80.57,74.29,82.69,72.53,85.22z"/>
		<path d="M80.53,76.01c0,0-0.01,0-0.02,0.01c-0.04,0.02-0.1,0.06-0.14,0.09c-0.67,0.55-1.27,1.21-2.16,1.41
			c-0.81,0.19-1.02,0-0.85-0.8c0.09-0.43,0.23-0.86,0.4-1.28c1.15-2.96,1.37-5.99,0.74-9.09c-0.14-0.64-0.29-1.27-0.49-1.9
			c-0.21-0.78-0.51-1.53-0.87-2.25c-1.1-2.19-2.61-3.94-5.19-4.4c-1.17-0.21-2.33-0.15-3.48,0.13c-2.16,0.52-4.13,1.43-5.91,2.78
			c0.23,0,0.44-0.06,0.63-0.13c1.17-0.43,2.37-0.78,3.6-0.97c2.57-0.41,5.07-0.26,7.37,1.09c1.33,0.79,2.32,1.87,3.11,3.13
			c0.4,2.31,0.45,4.62,0.04,6.95c-0.13,0.77-0.32,1.51-0.72,2.18c-0.55,0.92-1.34,1.02-2.08,0.26c-0.38-0.39-0.72-0.82-1.08-1.23
			c-2.41-2.69-5.33-4.21-9.01-3.98c-0.99,0.07-1.98,0.18-2.9,0.62c1.54,0.15,3.12,0.04,4.56,1.16c-0.99,0.32-1.86,0.23-2.72,0.27
			c-1.82,0.08-3.51,0.56-5.07,1.56c-1.45,0.94-2.48,2.27-3.51,3.62c-0.26,0.34-0.57,0.82-1.07,0.6c-0.47-0.21-0.38-0.76-0.39-1.21
			c0-0.07,0.02-0.14,0.02-0.22c0.18-1.71,0.92-3.18,1.78-4.62c0.88-1.46,2.02-2.71,3.09-4.02c0.05-0.05,0.1-0.1,0.14-0.15
			c0.07-0.02,0.13-0.06,0.08-0.14c-0.03,0-0.11,0.04-0.16,0.06c-0.06,0.04-0.11,0.08-0.17,0.12c-2.5,1.84-4.59,4.06-6.07,6.78
			c-1.86,3.42-1.9,6.79,0.42,10.06c0.39,0.55,0.73,0.64,1.22,0.18c1.14-1.06,2.33-1.08,3.57-0.18c0.25,0.17,0.53,0.29,0.79,0.42
			c2.24,1.16,4.6,1.75,7.13,1.35c0.98-0.15,1.96-0.38,2.93-0.59c0.58-0.13,0.67,0.12,0.44,0.58c-0.13,0.25-0.27,0.49-0.45,0.71
			c-0.3,0.42-0.66,0.78-1.03,1.15c-0.96,0.94-1.93,1.85-2.91,2.77c-0.06,0.03-0.14,0.04-0.09,0.13c0.02,0.02,0.12-0.02,0.18-0.03
			c1.26-0.61,2.5-1.26,3.71-1.94c0,0,0,0,0.01-0.01c2.36-1.35,4.63-2.85,6.75-4.56c0.01,0,0.01,0,0.02-0.01
			c0.85-0.67,1.67-1.38,2.47-2.13c1.29-1.2,2.48-2.51,3.29-4.1C80.56,76.18,80.61,76.1,80.53,76.01z M55.26,79.43
			c-0.02-0.11,0.03-0.09,0.08-0.07C55.32,79.39,55.29,79.4,55.26,79.43z M55.37,79.34c0.03-0.56,0.45-0.93,0.7-1.38
			c1.14-2.01,2.3-4.01,4.25-5.38c3.15-2.21,7.69-1.16,9.52,2.2l0.02,0.03c0.49,0.68,0.78,1.46,0.92,2.3c-0.36-0.7-0.72-1.4-1.08-2.1
			c-0.04-0.02-0.07-0.05-0.07-0.09c-1.12-1.44-2.49-2.48-4.35-2.77c-2.28-0.36-4.2,0.35-5.86,1.89c-1.14,1.06-1.99,2.35-2.86,3.62
			c-0.14,0.2-0.28,0.4-0.43,0.6C55.93,78.66,55.71,79.04,55.37,79.34z M66.46,76.74c-0.98,0.8-2.79,0.79-3.76-0.01
			c-0.69-0.57-0.76-1.35-0.14-2.01c0.57-0.61,1.32-0.75,2.11-0.76c0.65-0.02,1.22,0.18,1.74,0.57
			C67.21,75.13,67.24,76.11,66.46,76.74z M66.95,82.23c-3.48,1.04-6.78,0.65-9.91-1.22c-0.08-0.05-0.18-0.09-0.24-0.16
			c-0.26-0.25-0.57-0.57-0.35-0.89c0.23-0.34,0.59-0.07,0.85,0.13c2.95,2.25,6.23,2.68,9.75,1.81c0.14-0.04,0.29-0.09,0.43,0.02
			C67.42,82.22,67.14,82.18,66.95,82.23z M67.59,81.9c0.29-0.27,0.65-0.38,1.13-0.47C68.37,81.81,67.99,81.88,67.59,81.9z"/>
		<path d="M131.16,76.4c-0.96-4.25-3.76-7.2-7.04-9.79c-0.1-0.13-0.25-0.35-0.39-0.21c-0.14,0.15,0.13,0.25,0.23,0.35
			c0.49,0.57,0.98,1.13,1.45,1.71c1.3,1.57,2.33,3.29,2.97,5.23c0.25,0.78,0.47,1.58,0.26,2.41c-0.14,0.59-0.53,0.74-0.97,0.34
			c-0.32-0.28-0.58-0.62-0.82-0.97c-2.25-3.18-5.3-4.8-9.22-4.72c-0.52,0.01-1.06,0.04-1.69-0.19c1.43-1.16,3.06-1.06,4.83-1.12
			c-0.8-0.38-1.45-0.51-2.1-0.63c-3.61-0.72-6.79-0.16-9.1,3.03c-0.22,0.3-0.52,0.55-0.81,0.77c-0.6,0.46-1.34,0.44-1.94,0.01
			c-0.59-0.42-0.95-1.01-1.23-1.66c-0.93-2.17-1.09-4.42-0.71-6.74c0.01-0.04,0.02-0.09,0.03-0.14c1.43-1.78,3.31-1.75,5.35-0.76
			c1.69,0.81,3.16,1.97,4.71,2.99c0.85,0.56,1.68,1.13,2.67,1.41c-1.89-1.48-3.54-3.22-5.39-4.71c-1.07-0.86-2.16-1.69-3.49-2.12
			c-1-0.32-1.97-0.27-2.8,0.47c-0.63,0.56-1.21,1.6-1.5,2.58c-1.55,3.98-1.76,8.02-0.24,12.1c0.21,0.57,0.48,1.14,0.41,1.8
			c-0.55-0.07-0.86-0.44-1.17-0.79c-0.69-0.78-1.28-1.64-1.82-2.55c-0.1-0.16-0.2-0.33-0.34-0.48c-0.02-0.03-0.08-0.03-0.14-0.03V74
			c-0.05-0.01-0.1,0-0.13,0.02c-0.12,0.05-0.1,0.17-0.02,0.24c0.43,0.34,0.43,0.91,0.71,1.34c1.44,3.03,3.25,5.8,5.69,8.13
			c0.61,0.58,1.25,1.12,1.91,1.64c1.22,0.96,2.52,1.82,3.87,2.6c0.04,0.02,0.07,0.05,0.11,0.06c0,0,0,0.01,0.01,0.01
			c0.07,0.04,0.13,0.08,0.2,0.11c0.17,0.1,0.33,0.19,0.5,0.28c0.78,0.34,1.56,0.69,2.4,1.02h0.01c0.65,0.26,1.33,0.5,2.08,0.69
			c-0.62-0.51-1.08-0.89-1.54-1.26c-1.17-0.97-2.36-1.91-3.33-3.1c-0.17-0.21-0.38-0.49-0.22-0.74c0.15-0.26,0.46-0.05,0.68,0.01
			c1.29,0.28,2.56,0.63,3.89,0.66c2.39,0.04,4.58-0.58,6.62-1.77c1.34-0.78,2.66-1.3,4.08-0.23c0.29,0.22,0.48,0.09,0.67-0.17
			C130.95,81.41,131.75,79.07,131.16,76.4z M124.82,81.62c-1.65,1.08-3.47,1.7-5.43,1.88c-1.86,0.18-3.64-0.11-5.48-0.8
			c0.42-0.19,0.71-0.06,1.02,0.01c3.4,0.77,6.56,0.36,9.39-1.83c0.27-0.23,0.65-0.53,0.9-0.17
			C125.46,81.04,125.15,81.41,124.82,81.62z M115.6,76.47c-0.04-0.77,0.48-1.2,1.08-1.46c1.1-0.49,2.18-0.44,3.18,0.28
			c0.89,0.64,0.85,1.66-0.07,2.28c-0.55,0.39-1.17,0.5-1.75,0.54c-0.48-0.03-0.87-0.1-1.24-0.26
			C116.19,77.57,115.65,77.22,115.6,76.47z M126.26,80.01c-0.15-0.2-0.29-0.4-0.43-0.61c-0.94-1.22-1.72-2.55-2.71-3.73
			c-1.99-2.36-4.43-3.37-7.5-2.6c-0.77,0.2-1.43,0.64-2.12,1.06c-0.97,0.9-1.8,1.92-2.4,3.12c0.39-1.28,0.96-2.44,1.99-3.32
			c2.42-2.38,6.59-2.34,9.2,0.13c1.58,1.49,2.61,3.37,3.65,5.24c0.2,0.16,0.34,0.38,0.42,0.62c0.1,0.14,0.21,0.28,0.31,0.42
			C126.39,80.42,126.37,80.16,126.26,80.01z"/>
		<path d="M100.24,76.24c0.41,1.07,0.96,2.07,1.62,3c0.17,0,0.31-0.02,0.43-0.06c-0.12,0.04-0.26,0.06-0.43,0.06
			c0.19,0.32,0.37,0.65,0.57,0.95c1.37,2.06,2.94,3.95,4.55,5.82c3.37,3.91,6.07,8.19,7.46,13.21c0.18,0.66,0.35,1.33,0.53,1.99
			c0.07-1.25-0.13-2.47-0.34-3.68c-0.58-3.42-1.84-6.6-3.57-9.6c-2.42-3.83-5.52-7.15-8.13-10.84c-0.12-0.18-0.24-0.36-0.36-0.54
			c-0.2-0.37-0.41-0.73-0.61-1.1c-0.16-0.27-0.31-0.55-0.47-0.82c-0.12-0.21-0.23-0.42-0.35-0.62c-1.94-3.51-2.87-7.33-3.53-11.25
			c0.01,1.87,0.08,3.74,0.35,5.58C98.4,71.06,99.03,73.74,100.24,76.24z"/>
		<g>
			<path d="M113.64,154.43c-0.02,0.04-0.05,0.07-0.07,0.11c-0.06,0.09-0.13,0.19-0.19,0.28c-1.66,2.21-3.65,6.13-4.11,8.92
				c-0.28,1.72-0.65,3.41-1.63,4.88c-0.99,1.45-2.35,2.49-3.63,3.62c-0.25,0.23-0.51,0.45-0.77,0.67c-2.42,0.36-4.86,0.62-7.34,0.77
				h-0.04c-0.18,0-0.35,0.01-0.53,0.02c-0.1,0.01-0.21,0.02-0.31,0.03c-0.03,0.01-0.07,0.01-0.1,0.01c-1.63,0.1-3.27,0.14-4.92,0.14
				c-4.48,0-8.88-0.33-13.18-0.96c-0.53-1.64-1.4-3.03-2.7-4.12c-1.89-1.57-3.53-3.32-4.33-5.8c-0.07-0.19-0.19-0.37-0.3-0.55
				c-1.28-2.31-2.95-4.3-4.54-6.36c-0.05-0.07-0.09-0.14-0.14-0.22c0.12-0.08,0.21-0.05,0.28,0.07c0.33,0.25,0.67,0.46,0.97,0.74
				c0.92,0.84,1.81,1.72,2.74,2.57c0.63,0.58,0.99,0.52,1.28-0.24c0.16-0.44,0.26-0.91,0.36-1.37c0.07-0.28,0.1-0.56,0.15-0.86
				c0.03-0.14,0.07-0.56,0.12-0.98c0.05-0.41,0.1-0.81,0.13-0.95c0.04,0.39,0.09,0.8,0.14,1.22l0.01,0.01
				c0.34,2.84,0.92,6.19,2.26,8.46c2.19,3.72,5.24,5.66,9.51,5.11c2.97-0.39,5.95-0.45,8.95-0.28c2.18,0.13,4.37,0.31,6.56,0.09
				c2.27-0.24,4.23-1.01,5.66-3.04c1.14-1.61,2.09-3.34,3.07-5.05c1.16-2.03,3.36-4.75,5.27-6.51c0.32-0.3,0.63-0.57,0.93-0.8
				c0.15-0.12,0.3-0.22,0.45-0.06C113.77,154.12,113.73,154.29,113.64,154.43z"/>
			<path d="M137.36,149.7c-1.41,4.78-4.05,8.77-7.63,12.19c-1.82,1.76-3.69,3.47-5.49,5.25c-0.82,0.34-1.65,0.66-2.48,0.97
				c2.08-2.6,4.35-5.06,6.72-7.44c2.92-2.93,5.76-5.94,7.71-9.64c0.43-0.8,0.84-1.62,1.28-2.48
				C137.67,149.02,137.46,149.36,137.36,149.7z"/>
			<path d="M176.12,102.21c-1.87,4.52-10.46,8.37-13.56,12.09c-0.64,0.77-1.26,1.55-1.96,2.26c-1.54,1.57-1.97,3.57-2.29,5.63
				c-0.27,1.82-0.41,3.65-0.87,5.44c-0.13,0.86-0.36,1.68-0.91,2.36c-0.79,1.25-2.11,1.62-3.5,0.96c-1.2-0.55-2-1.53-2.62-2.66
				c-1.56-2.81-2.49-5.88-3.44-8.93c-0.41-1.38-0.82-2.76-1.23-4.14c-0.05-0.41-0.13-0.81-0.48-1.36c0.1,0.6,0.16,0.98,0.23,1.36
				c0.27,2.52,0.94,4.98,1.23,7.51c0.31,2.73,0.19,5.43-0.7,8.04c-0.62,1.81-0.55,3.45,0.49,5.13c1.66,2.66,1.65,5.62,1.12,8.6
				c-0.68,3.88-1.79,7.63-3.4,11.21c-0.89,0.68-1.79,1.34-2.71,1.97c2.31-4.45,3.93-9.21,4.75-14.33c0.39-2.41,0.23-4.78-1.1-6.93
				c-0.69-1.11-1.16-1.11-1.92-0.02c-0.47,0.71-0.92,1.42-1.39,2.13c-0.48,0.96-1.15,1.8-1.8,2.66c-0.09,0.11-0.19,0.22-0.35,0.12
				v-0.01c0.69-0.96,1.1-2.07,1.72-3.07c0.75-1.89,1.47-3.79,2.23-5.68c1.11-2.72,1.97-5.48,1.66-8.48c-0.08-0.72-0.15-1.45-0.6-2.1
				c-0.61,0.59-0.77,1.3-0.89,2c-0.23,1.36-0.39,2.71-0.66,4.06c-1.82,9.3-6.04,17.41-12.2,24.56c-0.14-0.01-0.28,0.01-0.35-0.16
				c0.09-0.12,0.19-0.24,0.27-0.37c3.93-6.49,7.12-13.32,9.19-20.65c1.2-4.29,1.94-8.64,1.93-13.11c0-0.53-0.04-1.06-0.33-1.8
				c-1.78,3.36-2.43,6.86-3.39,10.27c-0.07-0.98-0.13-1.96-0.15-2.93v-0.03c-0.04-1.67,0.02-3.34,0.23-5
				c0.27-2.12,0.96-4.17,1.29-6.28c0.35-2.2,0.13-4.44,0.47-6.62c0.03-0.23,0.06-0.44,0.09-0.66v-0.02
				c0.41-3.34,0.16-6.59-0.91-9.79c-0.39-1.15-0.46-2.35-0.34-3.54c0.2-1.83,0.56-3.65,0.64-5.49c0.14-3.38-0.15-6.7-0.9-9.95
				c-0.23-1.02-0.51-2.03-0.85-3.03v-0.01c-0.22-0.72-0.48-1.43-0.76-2.13c-1.54-3.88-3.24-7.71-4.58-11.67
				c-0.54-1.62-0.89-3.32-1.77-4.82c-0.61-1.2-1.35-2.31-2.46-3.12c-0.51-0.53-1.2-0.8-1.84-1.3c2.7-0.37,4.53,0.91,5.96,2.84
				c1.6,2.15,2.75,4.55,3.61,7.08c0.94,2.75,1.57,5.6,2.65,8.3c1.26,3.15,3.23,5.88,4.89,8.79c1.58,2.78,2.9,5.67,3.49,8.83
				c0.06,0.3,0.13,0.61,0.19,0.91c0.05,0.44,0.22,0.87,0.16,1.33c0.01,0.27,0.03,0.53,0.05,0.79c0.04,0.3,0.1,0.59,0.12,0.89
				c0.12,2.76-0.06,5.52-0.26,8.27c-0.24,3.27-0.55,6.56-0.17,9.85c0.39,3.45,0.9,6.89,1.58,10.31c0.57,2.92,1.4,5.75,2.75,8.4
				c0.49,0.94,1.09,1.79,2.02,2.35c0.82,0.49,1.46,0.32,1.94-0.5c0.36-0.62,0.51-1.3,0.63-1.98c0.32-1.97,0.61-3.94,0.91-5.9
				c0.11-0.73,0.28-1.42,0.5-2.09c-0.51-0.06-0.61-0.8-0.77-1.27c-0.91-2.6-1.35-5.29-1.55-8.03c-0.16-2.24-0.12-4.48-0.13-6.72
				c-0.03-4.92,0.33-9.88-1.16-14.74c0.44,0.11,0.42,0.45,0.5,0.67c0.92,2.5,1.35,5.1,1.54,7.73c0.23,3.45,0.39,6.91,0.6,10.36
				c0.08,1.34,0.33,2.66,0.62,3.97c0.28,1.31,0.95,1.68,2.24,1.27c0.97-0.31,1.75-0.94,2.54-1.55c1.95-1.53,3.6-3.35,5.01-5.39
				c0.13-0.19,0.2-0.45,0.54-0.58c-0.57,1.49-1.42,2.73-2.34,3.93c-1.07,1.38-2.27,2.64-3.47,3.9c-0.96,1.02-1.79,2.11-2.42,3.33
				c0.08-0.09,0.15-0.18,0.23-0.27c1.78-1.95,5.92-5.99,7.94-7.68c2.47-2.07,5.67-3.86,6.81-7.11c1.02-2.9,0.95-5.9-0.7-8.55
				c-1.66-2.66-8.57-4.95-10.95-6.98c-1.52-1.3-3.12-2.48-4.31-4.12c-1.49-2.05-3.19-4.04-4.9-5.92c-0.75-0.82-1.54-1.62-2.37-2.37
				c-0.42-0.38-0.85-0.75-1.29-1.1c-0.29-0.23-0.87-0.86-1.24-0.93c-0.37-0.07-0.62-0.48-1.1-0.41c0.15,1.6,0.8,3.05,1.12,4.57
				c0.33,1.56,0.61,3.13,0.72,4.72c0.09,1.52,0.23,3.06-0.04,4.8c-0.07-0.28-0.1-0.35-0.1-0.42c-0.22-4.04-1.45-7.79-3.19-11.4
				c-1.09-2.24-2.21-4.45-3.33-6.67c-0.21-0.45-0.43-0.89-0.65-1.34c-0.04-0.1-0.09-0.2-0.14-0.3c-0.15-0.17-0.25-0.37-0.29-0.6
				c-0.53-0.95-0.99-1.95-1.37-2.98c-0.05-0.1-0.1-0.2-0.15-0.3c-0.67-1.28-1.34-2.57-2.01-3.86c-0.08-0.15-0.16-0.31-0.25-0.47
				c-0.85-1.37-1.7-2.73-2.55-4.1c-0.12-0.17-0.25-0.34-0.36-0.51c-0.09-0.12-0.18-0.24-0.26-0.35c-0.03-0.05-0.05-0.09-0.08-0.14
				c-0.9-1.04-1.77-2.1-2.86-2.96c-0.18-0.05-0.33-0.15-0.44-0.3c-1.56-0.76-3.19-1.07-4.91-0.73c-0.89,0.19-1.77,0.51-2.71,0.4
				c-1.2,0.13-2.31-0.25-3.42-0.62c-3.43-1.17-6.91-2.03-10.58-2.01c-3.89,0.02-7.75,0.45-11.61,0.92
				c-3.89,0.47-7.76,0.69-11.66-0.03c-3.01-0.56-6.05-0.98-9.12-1.07c-4.66-0.12-9.23,0.63-13.76,1.59
				c-2.78,0.58-5.46,1.1-8.13-0.36c-0.74-0.41-1.61-0.28-2.41,0.02c-0.62,0.23-1.25,0.5-1.83,0.8c-4.95,2.58-8.43,6.52-10.57,11.64
				c-1.39,3.31-2.88,6.57-4.76,9.63c-1.53,2.47-3.07,4.94-4.19,7.63c-0.01,0.03-0.07,0.01-0.12,0.01c0.22-1.47,0.68-2.85,1.2-4.22
				c0.34-0.91,0.8-1.77,1.01-2.73c0.19-0.88,0.12-0.96-0.78-0.74c-0.93,0.24-1.76,0.68-2.53,1.24c-1.55,1.1-2.69,2.58-3.87,4.03
				c-2.04,2.48-5.46,3.3-8.68,4.64c-1.59,0.65-5.09,1.84-6.46,2.87c-5.5,4.1-6.85,9.76-3.81,15.89c1.4,2.81,3.52,4.89,5.57,7.24
				c1.73,1.99,7.58,6.66,9.34,8.63c0.24,0.26,0.48,0.51,0.72,0.78c0.08,0.09,0.17,0.18,0.24,0.27c0.77,0.87,1.57,1.72,2.18,2.71
				c0.34,0.3,0.55,0.7,0.76,1.09c0.25,0.47,0.43,0.95,0.58,1.44c-0.45-3.91-1.39-7.75-1.85-11.66c-0.5-4.12-0.31-8.2,0.85-12.2
				c0.03-0.12,0.1-0.23,0.15-0.34c0.08-0.26,0.16-0.51,0.24-0.77c0.06-0.48,0.25-0.92,0.46-1.36c0.24-0.68,0.43-1.38,0.86-1.98
				c0.08,0.23,0.16,0.46,0.24,0.69c-0.22,1.04-0.43,2.08-0.64,3.11c-0.05,0.05-0.09,0.1-0.14,0.15c0.01,0,0.01,0,0.02,0
				c-0.11,1.23-0.23,2.47-0.31,3.71c-0.28,3.92,0.02,7.81,0.36,11.71c0.32,3.7,0.6,7.39,0.22,11.11c-0.02,0.12-0.03,0.24-0.05,0.35
				c0.04,0.84,0.02,1.68-0.03,2.52c-0.06,1.02-0.12,2.04,0.05,3.05c0.25,1.45,1,1.84,2.33,1.18c1.19-0.6,2.08-1.54,2.79-2.64
				c2.3-3.55,3.47-7.47,3.56-11.68c0.09-3.84-0.26-7.66-0.53-11.48c-0.31-4.35-0.64-8.69-0.51-13.04c0.04-1.42,0.08-2.84,0.41-4.22
				c0.02-0.25,0.03-0.49,0.05-0.73c-0.06-0.57,0.14-1.1,0.29-1.63c0.05-0.26,0.1-0.51,0.16-0.76c-0.05-0.22,0.06-0.4,0.13-0.59
				c0.05-0.41,0.13-0.81,0.3-1.19c0.56-2.12,1.38-4.14,2.31-6.12c0.84-1.8,1.7-3.58,2.21-5.52c0.68-2.67,0.81-5.41,1.16-8.12
				c0.16-1.26,0.35-2.52,0.96-3.67c0.06,0.41,0.06,0.79,0.05,1.18c0,1.03-0.02,2.05,0.29,3.03c0.23,0.73,0.63,0.95,1.21,0.69
				c1.11-0.51,2.17-1.1,3.15-1.83c1.69-1.26,2.59-3.03,3.29-4.96c0.53-1.46,1.21-2.83,2.39-3.9c0.3-0.33,0.61-0.65,1.03-0.86
				c0.06-0.04,0.12-0.08,0.18-0.13c0.04-0.02,0.09-0.05,0.13-0.07c-0.01,0.06-0.02,0.11-0.03,0.16c-0.04,0.06-0.07,0.11-0.11,0.16
				c-0.27,0.38-0.54,0.75-0.82,1.12c-0.86,1.57-1.34,3.27-1.7,4.99c-0.43,2.07-1.33,3.87-2.88,5.28c-2.19,2.02-3.37,4.53-4.12,7.29
				c0.01,0.01,0.01,0.02,0,0.03c-0.07,0.28-0.14,0.56-0.21,0.84c-0.18,0.79-0.34,1.58-0.56,2.36c-0.01,0.01-0.01,0.01,0,0.02
				c-0.19,0.7-0.43,1.39-0.77,2.04c-0.1,0.27-0.2,0.54-0.42,0.76c-0.05,0.15-0.1,0.3-0.15,0.45c-0.16,0.3-0.31,0.59-0.46,0.89
				c-0.25,0.55-0.5,1.09-0.75,1.64c-0.08,0.27-0.14,0.54-0.33,0.76c-0.01,0.4-0.19,0.75-0.35,1.11c-0.05,0.23-0.03,0.49-0.22,0.67
				c0,0.11,0.03,0.2,0,0.3c-0.67,2.66-0.42,5.34-0.04,8.01c0.62,4.44,0.8,8.87,0.08,13.31c-0.76,4.66-1.11,9.34-0.48,14.06
				c0.4,3.03,0.84,6.06,1.96,8.94c0.17,0.45,0.3,1.14,0.82,1.14c0.52,0,0.6-0.71,0.78-1.15c0.25-0.6,0.44-1.19,0.83-1.71
				c0.06-0.09,0.13-0.18,0.21-0.26c-0.28,1.45-0.4,2.91-0.47,4.37c-0.01,0.26-0.02,0.51-0.02,0.76v0.04
				c-0.02,4.14,1.02,7.96,3.51,11.37c2.89,3.98,4.99,8.35,6.48,13.04c1.69,5.28,4.33,10.03,8.17,14.08c1.18,1.24,2.23,2.57,3.11,4
				c-0.85-0.23-1.69-0.48-2.52-0.75c-0.68-0.64-1.4-1.23-2.15-1.79c-3.69-2.74-6.53-6.15-8.6-10.25c-0.87-1.7-1.83-3.36-2.89-4.96
				c-1.53-2.32-3.24-4.48-5.35-6.3c-0.36-0.3-0.77-0.66-1.27-0.42c-0.45,0.21-0.51,0.7-0.55,1.16c-0.11,1.29-0.12,2.58-0.01,3.87
				c0.11,1.42,0.51,2.77,0.79,4.15c-0.33-0.13-0.38-0.46-0.51-0.72c-2.17-4.14-3.14-8.63-3.82-13.2c-0.56-3.8-1.3-7.54-2.68-11.15
				c-0.15-0.37-0.3-0.73-0.54-1.06c-0.26-0.37-0.49-0.42-0.78,0.01c-0.38,0.59-0.55,1.23-0.63,1.9c-0.58,4.69-0.92,9.41-0.78,14.15
				c0.07,2.27,0.12,4.56,0.87,6.72c0.55,1.56,1.32,3,2.25,4.33c-1.11-0.82-2.2-1.67-3.27-2.54c-0.91-2.13-1.17-4.42-1.29-6.75
				c-0.31-6.04,0.22-12.04,0.94-18.02c0.05-0.41,0.1-0.82,0.15-1.36c-0.72,0.53-1.33,0.99-1.95,1.42c-0.64,0.45-1.36,0.72-2.13,0.85
				c-1.42,0.22-2.64-0.56-3.01-1.96c-0.35-1.3-0.31-2.65-0.23-4c0.09-1.44,0.11-2.88-0.2-4.3c-0.37-1.67-1.49-2.84-2.49-4.11
				c-0.42-0.52-0.86-1.03-1.28-1.55c-0.8-0.86-1.59-1.72-2.38-2.58c-3.51-3.77-11.31-9.92-13.54-14.65
				C3.97,92.84,3.73,88.92,5.53,85c0.98-2.13,2.54-3.8,4.37-5.23c0.8-0.63,2.86-1.74,3.79-2.14c3.34-1.42,8.78-2,11.11-4.98
				c1.34-1.73,2.69-3.46,4.5-4.76c0.75-0.53,1.53-1.05,2.41-1.32c2.77-0.89,4.48-2.85,5.69-5.37c0.87-1.84,1.68-3.71,2.58-5.54
				c2.49-5.04,6.38-8.63,11.47-10.98c1.65-0.76,3.33-0.86,4.97-0.09c1.63,0.76,3.23,0.76,4.95,0.4c5.14-1.11,10.3-2.05,15.59-1.94
				c3.49,0.07,6.94,0.61,10.36,1.2c2.98,0.5,5.95,0.4,8.93,0.06c3.93-0.46,7.85-0.94,11.82-1.1c4.03-0.15,7.92,0.51,11.72,1.83
				c0.69,0.24,1.37,0.47,2.05,0.69c1.76,0.45,3.43-0.26,5.14-0.38c2.58-0.18,4.83,0.57,6.62,2.51c1.59,1.36,2.67,3.13,3.78,4.86
				c2.03,3.13,3.66,6.48,5.2,9.86c0.6,1.33,1.38,2.51,2.36,3.59c0.84,0.7,1.68,1.39,2.53,2.09c0.18,0.07,0.35,0.15,0.41,0.35
				l0.06-0.02c1.97,1.24,3.85,2.63,5.54,4.23c1.78,1.67,3.25,3.6,4.78,5.49c0.65,0.81,1.23,1.62,2.06,2.24
				c1.31,0.96,2.78,1.7,4.23,2.42c1.72,0.85,3.46,1.65,5.13,2.58c1.31,0.72,2.74,1.52,3.67,2.72c0.86,1.09,1.66,2.23,2.39,3.42
				C177.85,95.13,177.59,98.65,176.12,102.21z"/>
			<path d="M28.55,88.07c-0.45,0.57-0.67,1.24-0.91,1.9c0.08-0.03,0.15-0.06,0.23-0.08c-0.08,0.03-0.15,0.06-0.23,0.08
				c-0.04,0.12-0.09,0.24-0.13,0.37c0.08,0.23,0.16,0.46,0.24,0.69c0.11-0.41,0.23-0.82,0.34-1.23
				C28.22,89.22,28.58,88.69,28.55,88.07z"/>
		</g>
		<path d="M124.46,119.66c-0.05-0.06-0.06-0.16-0.12-0.16c-0.01,0-0.02,0-0.04,0.01c-0.08,0.06-0.03,0.16,0.08,0.19
			c0.03,0.44,0.27,0.8,0.43,1.19c0.49,1.22,0.95,2.46,1.17,3.77c0.25,1.57-0.03,2.24-1.38,3.03c-0.86,0.51-1.51,1.21-2.02,2.05
			c-0.43,0.7-0.84,1.41-1.28,2.1c-1.35,2.17-2.86,4.21-4.99,5.68c-3.18,2.23-7.11,2.04-10.09-0.44c-1.35-1.13-2.39-2.52-3.44-3.91
			c-0.56-0.75-1.12-1.46-1.74-2.16c-0.57-0.65-1.11-1.34-1.83-1.83c-0.53-0.37-1.14-0.61-1.73-0.87c-0.62-0.27-1.2-0.6-1.75-1
			c-0.41-0.29-0.78-0.63-1.11-1.01c-0.65-0.75-1.54-3.47-1.81-4.52c0.04-0.08,0.08-0.15,0.11-0.22c1.03-2.5,3.15-6.69,5.84-7.47
			c1.05-0.3,2.15-0.66,2.91-1.46c1.32-1.37,2.82-2.52,4.27-3.72c1.08-0.91,1.58-2.08,1.58-3.48c0-1.28-0.12-2.54-0.32-3.79
			c-0.31-1.89-1.06-3.48-2.08-4.75c1.22,1.07,2.29,2.33,3.24,3.79c2.25,3.48,3.5,7.35,4.41,11.35c0.36,1.58,0.89,3.04,1.88,4.33
			c0.59,0.77,1.13,1.58,1.67,2.39c1.42,2.1,2.66,4.29,3.02,6.84c0.48,3.36-0.76,6.17-3.1,8.66c0.6-0.1,0.89-0.5,1.22-0.81
			c3.86-3.51,4.81-7.74,2.87-12.59c-0.79-1.95-1.9-3.72-3.03-5.47c-0.88-1.37-1.63-2.78-2.14-4.34c-1.33-3.99-2.78-7.94-5.38-11.34
			c-3.02-3.93-6.95-6.25-11.93-6.69c-0.29-0.06-0.58-0.07-0.87-0.04c-0.19,0-0.39-0.01-0.58,0c-1.57,0.04-3.14,0.11-4.71,0.02
			c-1.29-0.09-2.57-0.25-3.87-0.22h-0.03c-0.22-0.01-0.43,0-0.65,0.03c-0.46,0.04-0.91,0.1-1.35,0.19c-3.3,0.52-6.2,1.96-8.64,4.34
			c-2.79,2.7-4.57,6.04-5.91,9.63c-0.29,0.77-0.58,1.52-0.85,2.29c-0.71,2.02-1.36,4.05-2.61,5.83c-0.7,1-1.32,2.05-1.92,3.1
			c-1.12,1.99-2,4.07-2.16,6.38c-0.25,3.61,1.33,6.44,3.95,8.76c0.28,0.28,0.53,0.61,1.01,0.63c-0.26-0.28-0.52-0.57-0.78-0.86
			c-2.96-3.8-2.93-7.79-0.78-11.92c0.85-1.62,1.86-3.12,2.94-4.58c0.76-1.02,1.48-2.06,1.82-3.31c0.42-1.61,0.81-3.26,1.26-4.87
			c0.44-1.57,1.04-3.09,1.71-4.58c0.75-1.69,1.68-3.32,2.82-4.78c-0.91,1.78-1.38,3.81-1.28,5.97c0.11,2.21,0.92,3.94,2.93,5.01
			c0.91,0.48,1.63,1.15,2.16,2.01c0.4,0.64,0.98,1.04,1.67,1.33c1.27,0.54,2.62,0.79,3.96,1.07c1.5,0.32,2.69,1.09,3.64,2.29
			c0.7,0.86,0.96,3.55,1.48,4.96c0,0.01,0,0.01,0,0.01c-0.83,2.3-1.68,5.82-3.93,6.62c-1.19,0.42-2.23,1.06-3.22,1.84
			c-2.18,1.73-4.11,3.77-6.37,5.41c-2.14,1.54-4.41,2.73-7.16,2.52c-2.03-0.15-3.88-0.86-5.62-1.86c-2.35-1.35-3.91-3.43-5.21-5.73
			c-0.87-1.54-2.04-2.72-3.71-3.4c-1.39-0.57-1.59-1.05-1.44-2.56c0.18-1.74,0.85-3.26,1.98-4.58c-0.04-0.05-0.09-0.1-0.13-0.16
			l-0.01,0.01c-0.99,0.4-1.83,1-2.52,1.81c-2.28,2.68-2.65,5.8-2.01,9.12c0.05,0.28,0.1,0.64,0.47,0.8c0.3-0.71,0.29-1.44,0.4-2.15
			c0.04-0.24-0.03-0.6,0.33-0.67c0.3-0.05,0.42,0.25,0.53,0.45c0.42,0.71,0.87,1.4,1.22,2.14c1.89,4.05,3.32,8.25,4.05,12.68
			c0.33,1.95,0.61,3.92,1.4,5.79c0.7,1.66,1.81,2.88,3.53,3.52c1.12,0.42,2.24,0.81,3.4,1.1c0.7,0.34,1.4,0.68,2.1,1.03
			c0.15,0.12,0.29,0.24,0.42,0.37c0.1,0.09,0.18,0.17,0.27,0.27l0.01,0.01c0.65,0.71,1.1,1.57,1.41,2.52
			c0.24,0.81,0.48,1.62,0.73,2.43c0.56,1.8,1.35,3.47,3.1,4.4c2.12,1.12,4.4,1.75,6.83,1.4c3.72-0.53,7.44-0.49,11.15,0.06
			c3.57,0.53,6.29-0.7,8.08-3.89c0.31-0.57,0.67-1.1,1.02-1.65c1.33-2.11,3.1-3.73,5.24-4.98c1.18-0.69,2.44-1.15,3.72-1.51
			c0.43-0.12,0.87-0.23,1.3-0.32c0.44-0.11,0.88-0.21,1.32-0.3c1.62-0.34,2.78-1.25,3.55-2.71c0.67-1.24,1.02-2.58,1.33-3.94
			c0.73-3.22,1.19-6.51,2.38-9.61c1.04-2.68,2.19-5.33,4.36-7.3c1.08-0.99,1.52-2.12,1.47-3.5
			C127.88,124.17,126.43,121.79,124.46,119.66z M100.67,109.84c-2.22-0.04-3.84-1.11-4.82-3.08c-0.73-1.49-0.56-2.92,0.53-4.23
			c-0.8,1.99-0.36,3.74,1.22,5.08c2.17,1.85,4.51,1.78,6.89,0.05C104,108.84,102.2,109.87,100.67,109.84z M89.02,105.9
			c-0.55,2.14-2.03,3.35-4.13,3.83c-1.74,0.4-3.19-0.23-4.47-1.47c0.44-0.19,0.7,0.06,0.98,0.2c2.88,1.28,6.21-0.18,7.02-3.1
			c0.24-0.85,0.13-1.69-0.05-2.54C89.14,103.74,89.32,104.78,89.02,105.9z M91.69,99.81c-0.73,1.06-1.73,1.26-2.77,0.52
			c-0.62-0.46-1.16-1.01-1.75-1.5c-1.34-1.12-2.68-1.19-4.1-0.18c-0.6,0.43-1.12,0.98-1.68,1.47c-0.63,0.54-1.31,0.99-2.17,1.06
			c-0.56,0.03-0.77-0.16-0.58-0.75c0.61-1.88,1.82-3.3,3.43-4.38c2.46-1.63,5.11-2.39,8.07-1.49c1.8,0.54,3.63,0.44,5.44-0.05
			c3.44-0.93,6.26,0.16,8.57,2.76c0.52,0.58,0.87,1.27,1.07,2.03c0.1,0.38,0.05,0.83-0.26,1.02c-0.33,0.2-0.69-0.07-0.95-0.37
			c-0.38-0.43-0.74-0.88-1.14-1.28c-1.06-1.06-2.46-1.28-3.74-0.5c-0.87,0.52-1.65,1.19-2.51,1.75c-1.36,0.9-2.37,0.68-3.28-0.69
			c-0.2-0.31-0.37-0.65-0.76-0.87C92.28,98.85,92.01,99.35,91.69,99.81z M72.58,151.62c-0.65-1.66-1.84-2.45-3.65-2.34
			c-0.81,0.05-1.63,0.02-2.46-0.01c-1.09-0.04-1.44-0.31-1.57-1.38c-0.23-1.93-0.36-3.86-0.6-5.79c-0.26-2.08-0.77-4.08-1.81-5.95
			c0.64,0.42,1,1.08,1.33,1.72c0.95,1.9,1.52,3.93,2,5.99c0.26,1.09,0.46,2.19,1.32,3.03c0.78,0.76,1.77,1.04,2.78,1.14
			c1.63,0.17,2.49,1.08,2.86,2.58c0.17,0.65,0.42,1.27,0.35,2.06C72.78,152.34,72.72,151.95,72.58,151.62z M101.83,158.74
			c-0.01,0-0.01,0-0.02,0c-0.84-0.32-1.7-0.29-2.57-0.09c-2.3,0.55-4.58,1.13-6.93,1.46c-2.08,0.3-4.05,0.07-6-0.68
			c-1.51-0.59-3.03-1.11-4.54-1.69c-2.09-0.79-3.95-0.59-5.47,1.2l-0.79,1.17c0.02-0.55,0.24-1,0.52-1.43
			c1.24-2.04,2.79-2.72,5.14-2.25c1.49,0.29,2.93,0.77,4.36,1.26c3.28,1.13,6.59,1.09,9.94,0.5c1.24-0.2,2.5-0.42,3.74-0.63
			c0.93-0.16,1.72,0.14,2.41,0.73C101.74,158.4,101.96,158.51,101.83,158.74z M102.12,152.62c-1.99,1.95-4.34,3-7.17,3
			c-2.93,0-5.87,0.29-8.78-0.35c-1.34-0.3-2.62-0.76-3.85-1.36c-1.5-0.73-2.52-1.93-3.31-3.34c-0.75-1.29-1.43-2.62-2.13-3.94
			l-0.21-0.39c-1.18-2-1.95-2.25-4.11-1.35c-0.42,0.17-0.83,0.45-1.34,0.35c0.53-2.55,3.69-5.14,6.42-5.26
			c0.98-0.04,1.93,0.05,2.85,0.45c1.37,0.58,2.8,0.83,4.29,0.79c0.46,0.02,0.92,0.05,1.38,0.07c0.19,0.01,0.38,0.03,0.57,0.05
			c0.2,0.22,0.49,0.23,0.76,0.32c1.58,0.61,2.22,1.96,2.67,3.44c0.4,1.32,0.55,2.67,0.62,4.03c-0.05,0.41-0.05,0.81,0.09,1.41
			c0.21-0.59,0.23-0.99,0.18-1.41c0.01-1.54,0.02-3.08,0.02-4.63c0-0.43,0.09-0.83,0.2-1.24c0.19-0.7,0.59-1.13,1.33-1.21
			c3.34-0.37,6.51-1.43,9.75-2.21c0.61-0.15,1.2-0.14,1.75,0.1c2.14,0.94,3.7,2.53,4.99,4.69c-0.74-0.16-1.3-0.28-1.86-0.4
			c-0.47-0.1-0.71,0.08-0.75,0.56C106.22,148.07,104.33,150.44,102.12,152.62z M118.48,138.45c-1.66,2.49-2.49,5.28-3.06,8.18
			c-0.08,0.39-0.18,0.78-0.3,1.15c-0.24,0.72-0.7,1.23-1.42,1.53c-1.4,0.59-2.89,0.9-4.3,1.44c-0.87,0.33-1.67,0.77-2.44,1.28
			c-0.17,0.11-0.33,0.32-0.61,0.2c0.98-1.42,2.33-2.43,3.9-2.98c2.33-0.83,3.71-2.37,4.48-4.68c0.69-2.11,1.8-4.04,3.19-5.79
			c0.18-0.22,0.3-0.5,0.6-0.61C118.59,138.28,118.54,138.37,118.48,138.45z M118.79,138.01c-0.06,0.04-0.09,0.2-0.19,0.1
			c-0.09-0.09,0.02-0.15,0.09-0.2c0.04-0.02,0.08-0.05,0.13-0.07C118.81,137.9,118.8,137.96,118.79,138.01z"/>
		<path d="M47.76,79.8c0.82,0.96,1.32,2.01,1.41,3.3c0.1,1.59,0.71,3.03,1.66,4.29c0.72,0.96,1.48,1.88,2.25,2.79
			c1.17,1.39,2.19,2.86,2.76,4.62c0.66,2.03,0.53,3.93-0.79,5.69c-0.7,0.93-1.41,1.86-2.06,2.82c-0.46,0.68-0.92,1.37-1.03,2.26
			c0.34-0.07,0.52-0.3,0.71-0.48c1.38-1.32,2.95-2.34,4.67-3.17c3.93-1.89,6.59-4.89,7.99-9.03c0.78-2.32,1.67-4.59,3.14-6.59
			c0.92-1.26,1.97-2.4,2.97-3.59c-0.04-0.05-0.08-0.09-0.13-0.13c0.04,0.04,0.09,0.09,0.13,0.13c0.05-0.08,0.22-0.12,0.12-0.23
			c-0.08-0.08-0.2-0.03-0.25,0.09c0,0,0,0,0,0c-0.35,0.23-0.7,0.44-1.04,0.68c-2.33,1.68-4.37,3.68-6.41,5.69
			c-1,0.99-2.11,1.18-3.43,0.73c-2.51-0.85-4.74-2.19-6.71-3.93c-1.46-1.29-2.7-2.79-3.01-4.77c-0.26-1.64-1.03-2.8-2.43-3.66
			c-1.45-0.89-2.35-2.24-2.85-3.87c-0.41-1.31-0.51-2.67-0.6-4.02c0.14-0.72,0.14-1.44,0.15-2.16c0.04-0.46,0.08-0.92,0.12-1.38
			c-0.34,0.42-0.48,0.88-0.51,1.37c-0.28,0.71-0.33,1.45-0.42,2.19c-0.13,1.42-0.09,2.83,0.23,4.23
			C44.93,76.02,46.21,77.99,47.76,79.8z"/>
		<path d="M118.03,106.06c0.02-0.01,0.03-0.01,0.05-0.02c-0.01-0.02-0.02-0.04-0.02-0.06C118.05,106,118.04,106.03,118.03,106.06z"
			/>
		<path d="M57.68,119.73c-0.08-0.1-0.2,0-0.28,0.08c0.05,0.05,0.09,0.1,0.14,0.15C57.6,119.89,57.79,119.86,57.68,119.73z"/>
		<path d="M120.12,65.72c0.02,0,0.03-0.03,0.05-0.04c-0.02-0.02-0.03-0.05-0.05-0.05c-0.02,0-0.03,0.03-0.05,0.04
			C120.09,65.69,120.1,65.72,120.12,65.72z"/>
		<path d="M129.42,110.39c0.01-0.02,0.02-0.03,0.02-0.05c-0.02-0.02-0.03-0.03-0.05-0.05c-0.02,0.02-0.03,0.03-0.05,0.05
			C129.38,110.36,129.4,110.37,129.42,110.39z"/>
		<path d="M139.72,141.34c0-0.01,0-0.02-0.01-0.02c0,0,0,0,0,0c0,0,0,0,0,0c0,0-0.01,0-0.01,0
			C139.7,141.31,139.71,141.33,139.72,141.34z"/>
		<path d="M139.75,141.41c-0.01-0.02-0.02-0.05-0.04-0.07c0,0.01,0.01,0.03,0.01,0.04C139.73,141.39,139.74,141.4,139.75,141.41z"/>
		<path d="M123.33,143.25c0-0.02,0-0.04-0.01-0.06c-0.01,0.01-0.02,0.02-0.02,0.03C123.3,143.22,123.32,143.24,123.33,143.25z"/>
		<polygon points="117.5,167.1 117.52,167.07 117.51,167.08 		"/>
		<path d="M43.12,155.43c0.01,0.01,0.06-0.01,0.06-0.02c0.02-0.08-0.01-0.12-0.09-0.13C43.03,155.33,43.07,155.38,43.12,155.43z"/>
		<path d="M43.09,155.28c0,0,0-0.01,0.01-0.01l0,0c-0.01,0-0.01-0.01-0.02-0.01C43.08,155.26,43.08,155.27,43.09,155.28
			C43.09,155.28,43.09,155.28,43.09,155.28z"/>
		<path d="M131.75,85.89c-1.95,3.1-4.58,5.47-7.78,7.22c-0.82,0.44-1.68,0.6-2.59,0.34c-2.64-1.61-4.71-3.93-7.12-5.82
			c-0.92-0.43-1.53-1.36-2.69-1.65c0.49,0.57,0.89,1.02,1.28,1.47c0.05,0.06,0.11,0.11,0.16,0.17c0.02,0.26,0.15,0.43,0.42,0.47
			c0.84,0.81,1.45,1.8,2.13,2.74c0.68,1.31,1.22,2.67,1.73,4.06c0.75,2.06,1.66,4.03,3.1,5.72c1.55,1.83,3.49,3.17,5.51,4.42
			c1.92,1.19,3.59,2.66,4.86,4.54c0.09,0.14,0.15,0.36,0.44,0.31c-0.06-0.98-0.59-1.78-1.02-2.6c-1.23-2.35-2.3-4.73-2.02-7.49
			c0.12-0.3,0.18-0.62,0.17-0.94c0.18-0.49,0.35-0.99,0.55-1.47c0.74-1.8,1.97-3.29,3.16-4.8c1.27-1.62,2.39-3.33,2.55-5.42
			c0.12-1.55,0.74-2.81,1.56-4.06c1.3-1.98,2.28-4.09,2.54-6.48c0.23-2.1-0.01-4.16-0.68-6.18c-0.02,1.27-0.03,2.52-0.28,3.77
			c-0.53,2.63-2.01,4.73-3.76,6.65c-0.81,0.89-1.31,1.89-1.52,3.06C132.33,84.59,132.14,85.28,131.75,85.89z"/>
	</g>
	<path class="st0" d="M176.12,102.21c-1.87,4.52-10.46,8.37-13.56,12.09c-0.64,0.77-1.26,1.55-1.96,2.26
		c-1.54,1.57-1.97,3.57-2.29,5.63c-0.27,1.82-0.41,3.65-0.87,5.44c-0.13,0.86-0.36,1.68-0.91,2.36c-0.79,1.25-2.11,1.62-3.5,0.96
		c-1.2-0.55-2-1.53-2.62-2.66c-1.56-2.81-2.49-5.88-3.44-8.93c-0.41-1.38-0.82-2.76-1.23-4.14c-0.05-0.41-0.13-0.81-0.48-1.36
		c0.1,0.6,0.16,0.98,0.23,1.36c0.27,2.52,0.94,4.98,1.23,7.51c0.31,2.73,0.19,5.43-0.7,8.04c-0.62,1.81-0.55,3.45,0.49,5.13
		c1.66,2.66,1.65,5.62,1.12,8.6c-0.68,3.88-1.79,7.63-3.4,11.21c-0.89,0.68-1.79,1.34-2.71,1.97c-5.36,3.76-11.15,6.94-17.28,9.46
		c-0.82,0.34-1.65,0.66-2.48,0.97c-5.9,2.23-12.1,3.86-18.52,4.8c-2.42,0.36-4.86,0.62-7.34,0.77c-0.01,0.01-0.03,0.01-0.04,0
		c-0.28,0.03-0.55,0.05-0.84,0.05c-0.03,0.01-0.07,0.01-0.1,0.01c-1.63,0.1-3.27,0.14-4.92,0.14c-4.48,0-8.88-0.33-13.18-0.96
		c-3.81-0.56-7.55-1.36-11.19-2.38c-0.85-0.23-1.69-0.48-2.52-0.75c-9.69-3.02-18.68-7.65-26.65-13.56
		c-1.11-0.82-2.2-1.67-3.27-2.54c-0.91-2.13-1.17-4.42-1.29-6.75c-0.31-6.04,0.22-12.04,0.94-18.02c0.05-0.41,0.1-0.82,0.15-1.36
		c-0.72,0.53-1.33,0.99-1.95,1.42c-0.64,0.45-1.36,0.72-2.13,0.85c-1.42,0.22-2.64-0.56-3.01-1.96c-0.35-1.3-0.31-2.65-0.23-4
		c0.09-1.44,0.11-2.88-0.2-4.3c-0.37-1.67-1.49-2.84-2.49-4.11c-0.42-0.52-0.86-1.03-1.28-1.55c-0.8-0.86-1.59-1.72-2.38-2.58
		c-3.51-3.77-11.31-9.92-13.54-14.65C3.97,92.84,3.73,88.92,5.53,85c0.98-2.13,2.54-3.8,4.37-5.23c0.8-0.63,2.86-1.74,3.79-2.14
		c3.34-1.42,8.78-2,11.11-4.98c1.34-1.73,2.69-3.46,4.5-4.76c0.75-0.53,1.53-1.05,2.41-1.32c2.77-0.89,4.48-2.85,5.69-5.37
		c0.87-1.84,1.68-3.71,2.58-5.54c2.49-5.04,6.38-8.63,11.47-10.98c1.65-0.76,3.33-0.86,4.97-0.09c1.63,0.76,3.23,0.76,4.95,0.4
		c5.14-1.11,10.3-2.05,15.59-1.94c3.49,0.07,6.94,0.61,10.36,1.2c2.98,0.5,5.95,0.4,8.93,0.06c3.93-0.46,7.85-0.94,11.82-1.1
		c4.03-0.15,7.92,0.51,11.72,1.83c0.69,0.24,1.37,0.47,2.05,0.69c1.76,0.45,3.43-0.26,5.14-0.38c2.58-0.18,4.83,0.57,6.62,2.51
		c1.59,1.36,2.67,3.13,3.78,4.86c2.03,3.13,3.66,6.48,5.2,9.86c0.6,1.33,1.38,2.51,2.36,3.59c0.84,0.7,1.68,1.39,2.53,2.09
		c0.18,0.07,0.35,0.15,0.41,0.35l0.06-0.02c1.97,1.24,3.85,2.63,5.54,4.23c1.78,1.67,3.25,3.6,4.78,5.49
		c0.65,0.81,1.23,1.62,2.06,2.24c1.31,0.96,2.78,1.7,4.23,2.42c1.72,0.85,3.46,1.65,5.13,2.58c1.31,0.72,2.74,1.52,3.67,2.72
		c0.86,1.09,1.66,2.23,2.39,3.42C177.85,95.13,177.59,98.65,176.12,102.21z"/>
</g>
</svg>
