<?xml version="1.0" encoding="utf-8"?>
<!-- Generator: Adobe Illustrator 23.0.1, SVG Export Plug-In . SVG Version: 6.00 Build 0)  -->
<svg version="1.1" id="Layer_1" xmlns="http://www.w3.org/2000/svg" xmlns:xlink="http://www.w3.org/1999/xlink" x="0px" y="0px"
	 viewBox="0 0 180 180" style="enable-background:new 0 0 180 180;" xml:space="preserve">
<style type="text/css">
	.st0{fill:none;}
	.st1{fill:#ECF8FE;}
	.st2{clip-path:url(#SVGID_2_);}
	.st3{fill:#101010;}
	.st4{fill:#191A1A;}
	.st5{fill:#121212;}
	.st6{fill:#080909;}
</style>
<g>
	<circle class="st1" cx="90" cy="90" r="90"/>
	<path d="M89.92,51.55c0.02-0.01,0.04-0.02,0.06-0.03c0.05-0.07,0.09-0.13,0.1-0.19c-0.01-0.02-0.02-0.03-0.04-0.05
		C90,51.36,89.96,51.46,89.92,51.55z"/>
	<path d="M81.68,167.99c-0.48-3.74-3.23-11.5-4.64-12.4c2.34,5.57,3.69,11.28,2.88,17.33c-4.29-3.15-7.43-7.02-8.91-12.09
		c0.7,4.71,2.47,8.87,6.01,12.15c1.31,1.23,2.15,2.7,2.41,4.42c0.5,0.07,1.01,0.12,1.52,0.17
		C81.83,174.65,82.13,171.45,81.68,167.99z M71.85,172.56c-0.19,1.17-0.38,2.33-0.58,3.5c0.45,0.11,0.91,0.2,1.37,0.28
		C72.38,175.09,72.13,173.82,71.85,172.56z M19.18,143.57c0.72,0.92,1.46,1.82,2.22,2.7c0.32-1.92,0.92-3.78,1.58-5.63
		c0.04-0.11,0.07-0.21,0.21-0.67C21.79,141.21,20.39,142.29,19.18,143.57z M29.66,154.8c0.11,0.1,0.22,0.2,0.33,0.29
		c0.07-0.16,0.15-0.31,0.24-0.47C30.04,154.67,29.85,154.73,29.66,154.8z M33.37,154.94c-0.52,0.59-1.01,1.19-1.52,1.76
		c0.5,0.44,1.01,0.87,1.53,1.28C33.47,157.01,33.44,156.01,33.37,154.94z M100.5,103.02c-0.11,0.08-0.21,0.15-0.31,0.23
		c-0.1-0.18-0.09-0.35,0.06-0.5c0.47-2.51,1.84-4.46,3.87-5.99c-1.73,0.23-3.15,1.07-4.62,2.07c0.07-0.05,0.06-0.74,0.08-0.86
		c0.04-0.3,0.11-0.6,0.18-0.9c0.14-0.56,0.32-1.11,0.55-1.64c0.23-0.52,0.5-1.03,0.79-1.51c0.32-0.54,0.72-1.03,0.99-1.6
		c0.21-0.44,0.42-0.89,0.61-1.34c0.41-0.99,0.77-2,1.08-3.03c0.61-1.95,1.12-3.96,1.36-5.99c0.11-0.88,0.29-2.04-0.1-2.89
		c-0.5,1.47-0.95,2.92-2.12,4.32c-0.24-5.64-1.66-10.64-5.37-14.7c-3.82-4.15-8.77-5.71-14.26-5.78c-0.73-0.04-1.45-0.07-2.19-0.07
		c-4.16-0.02-6.42,3.08-7.26,6.61c-0.97,4.07-0.55,8.3-1.65,12.33c1.69-2.6,1.93-5.59,2.41-8.5c0.48-2.91,1.15-5.71,3.57-7.67
		c2.54-2.07,5.52-2.14,8.53-1.93c7.55,1.81,12.02,6.96,12.86,14.91c0.17,1.72-0.03,3.43-0.52,5.09c-0.15,0.5-0.39,1.01-1.01,1.12
		c-0.64,0.11-0.98-0.31-1.27-0.77c-0.3-0.48-0.59-0.98-0.86-1.48c-1.68-3.06-3.5-6.01-6.5-7.98c-0.35,0.43,0.16,0.55,0.33,0.75
		c0.93,1.07,1.41,2.31,1.5,3.85c-2.63-1.76-5.36-2.69-8.72-2.15c0.83,0.16,1.43,0.23,2,0.4c1.47,0.46,2.81,1.07,3.36,2.73
		c0.23,0.7,0.13,0.98-0.61,1.24c-2.17,0.76-4.04,2.06-5.86,3.45c-3.77,2.88-6.83,6.8-11.74,8.08c1.24,0.23,2.44,0.09,3.62-0.15
		c1.81-0.38,3.59-0.89,5.38-1.34c-0.34,0.63-0.93,1-1.45,1.45C72,92.7,66.66,94.2,64.01,96.69c0.89-0.25,1.78-0.5,2.68-0.74
		c0.32-0.12,0.64-0.23,1.03-0.37c-0.09,0.47-0.46,0.51-0.73,0.64c-4.15,2.82-6.54,6.7-7.84,11.26c-1.59,1.27-2.51,2.83-3.45,4.45
		c-0.22-1.34,0.54-4.67,1.64-7.23c0.99-2.28,2.3-4.36,4.09-6.13c-1.83,0.79-3.15,2.25-4.73,3.35c-0.19,0.12-0.36,0.48-0.55,0.28
		c-0.15-0.17,0.18-0.36,0.35-0.5c1.77-2.48,2.21-5.26,2.07-8.24c-0.14-3-0.37-6.03,0.91-8.91c-2.36,2.24-3.68,5.02-4.55,8.21
		c-0.46-3.11,1.84-9.61,4.89-13.77c-2.33,1.06-3.69,2.82-5.12,4.55c-0.17-2.33,1.54-6.38,4.92-11.59c-4.33,2.66-7.24,6.06-8.3,10.93
		c-0.98-2.63-0.37-6.52,1.16-9.36c0.92-1.71,2.14-3.18,3.47-4.57c0.04-0.1,0.26-0.14,0.26-0.24c0-0.04-0.02-0.08-0.08-0.13
		c-0.09-0.08-0.27,0.03-0.31,0.2c-1.23,0.49-2.25,1.31-3.35,2.01c-1.94,1.23-3.98,2.19-6.31,2.46c-0.3,0.03-0.64,0.08-0.89,0.38
		c1.56,0.28,3.09,0.19,4.94-0.37c-2.84,3.2-4.26,7.4-9.29,7.74c1.74,0.62,2.92,0.44,6.56-0.9c-1.02,1.71-1.63,3.51-2.36,5.25
		c-1.14,2.72-2.1,3.66-5.83,5.79c3.91-0.48,6.95-2.6,9.71-5.29c-0.16,1.23-0.6,2.24-1.89,4.07c-2.07,2.95-3.46,6.09-3.12,9.81
		c0.16,1.66,0.56,3.26,1.19,4.85c-0.64-4.9,0.59-8.97,4.96-11.92c0.26,3.31,0.84,6.48,0.85,9.69c0.02,3.83-1.73,6.99-3.92,9.96
		c-0.17,0.22-0.35,0.44-0.52,0.67c-0.02,0.02,0.01,0.07,0.03,0.22c2.52-1.79,4.51-3.99,6.21-6.83c0.52,4.96-2.06,9.39-1.26,14.31
		c0.54-1.57,0.84-3.09,1.87-4.26c1.34,2.04,1.16,7.08-1.94,11.76c-0.07,0.13-0.13,0.26-0.19,0.38c0.21,0.11,0.34,0.04,0.42-0.18
		c1.3-0.54,1.99-1.72,2.93-2.93c0.81,4.02-0.64,6.99-3.5,9.51c1.31-0.1,1.96-0.5,4.63-2.81c0.27,4.76-0.7,9.01-3.36,12.86
		c0.23-1.41,0.31-2.82,0.2-4.23c-0.33-0.08-0.35,0.18-0.38,0.35c-0.5,2.78-1.93,5.07-3.78,7.14c-1.79,2.01-3.63,3.97-5.22,6.58
		c0.21-2.39,1.02-4.22,1.81-6.07c-0.05-0.07-0.11-0.15-0.17-0.23c-1.68,1.6-2.8,3.61-4.09,5.5c-1.47,2.18-3.25,3.99-5.49,5.42
		c0.45,0.35,0.9,0.69,1.36,1.02c1.69-1.18,3.29-2.52,4.88-4.08c0.11,2.1,0.21,3.99,0.32,6.01c-1.06-0.08-2.09-0.26-3.11-0.43
		c1.81,1.26,3.66,2.45,5.56,3.56c0.58-0.01,1.15-0.03,1.72-0.02c0.98,0,1.97,0.03,2.95-0.06c2.12-0.2,3.52,1.02,4.93,2.31
		c0.48,0.44,0.24,0.92,0.12,1.36c-0.11,0.41-0.23,0.82-0.37,1.22c0.72,0.33,1.44,0.64,2.17,0.93c0.49-0.49,0.77-0.36,1.12,0.25
		c0.05,0.09,0.1,0.18,0.16,0.27c1.35,0.53,2.71,1.03,4.08,1.49c-0.07-0.89-0.06-1.79-0.01-2.69c0.2-3.86-0.02-7.68-0.91-11.45
		c-0.08-0.31-0.12-0.64-0.39-0.86c-0.75,3.93-1.55,7.83-4.25,11.04c1.32-5.51,0.71-10.93-0.58-16.41c-2.12,1.37-3.86,3.02-5.11,5.43
		c-0.26-2.09,0.12-3.83,0.87-5.53c1.24-2.85,2.9-5.48,4.31-8.24c2.03-3.99,3.14-8.21,3.06-12.71c-0.08-0.18-0.13-0.36,0-0.54
		c0.07,0.12,0.14,0.24,0.2,0.37c1.29,3.91,1.61,7.97,1.89,12.04c0.09,1.36,0.13,2.72,0.3,4.08c0.63-3.66,1.09-7.32,1.28-11.03
		c0.85,2.58,0.82,5.4,2.12,8.23c-0.05-2.59,0.01-4.81,1.26-6.8c2.25,3.53,1.78,7.28,1.11,11.01c-0.56,3.09-0.48,6.13,0.29,9.18
		c-0.25-4.47,1.88-8.12,3.96-11.78c0.76-1.34,0.86-2.85,1.31-4.28c2.56,1,6.79,5.95,9.43,11.1c0.28-1.07-0.02-2.04-0.13-3.01
		c-0.12-0.97-0.29-1.94-0.49-2.89c-0.2-0.99-0.47-1.95-0.71-2.95c2.2,0.52,3.17,1.3,6.95,5.64c-1.04-3-2.68-5.27-5.05-6.97
		c-2.44-1.75-5.11-3.26-6.22-6.35c-0.13,1.98,0.46,3.72,1.34,5.6c-2.75-1.46-4.74-3.57-5.99-6.22c0-0.03-0.01-0.05-0.01-0.08
		c-0.22-0.55-0.44-1.07-0.65-1.58c-0.01-0.01-0.01-0.01-0.02-0.02c-0.41-0.97-0.81-1.88-1.18-2.77c-1.19-2.91-1.63-5.18,0.05-7.98
		c1.41-2.36,3.64-3.54,6.18-4.26c2.38-0.69,4.82-1.2,7.09-2.22c1.76-0.79,3.39-1.77,4.71-3.18c-0.18-0.26-0.3-0.14-0.38-0.09
		c-2.8,1.78-5.94,2.62-9.14,3.31c-2.53,0.56-5.11,1.01-7.48,2.17c-3.12,1.52-4.91,4.73-4.49,8.11c0.43,3.37,2.24,5.94,4.49,8.27
		c-0.14,1.58-0.19,3.09-0.98,4.48c0.15-2.6-0.54-4.9-2.23-6.86c-0.51-0.59-0.99-1.21-1.5-1.8c-1.6-1.81-2.87-3.83-3.6-6.19
		c-0.25,1.81-0.21,3.58,0.06,5.36c-3.67-6.94-5.48-14.12-3.1-21.84c2.97-8.69,9.35-13.16,17.79-15.34c0.03,0.01,0.05,0,0.07-0.02
		c1.01-0.25,2.04-0.48,3.1-0.67c-0.07-0.02-0.14-0.02-0.2-0.03c2.3-0.46,4.62-0.77,6.96-0.12c0.41,0.12,0.91,0.26,1.01,0.79
		c0.09,0.54-0.35,0.78-0.69,1.07c-1.03,0.85-2.33,1.23-3.45,1.95c3.14-0.25,6.12-0.94,8.65-2.96c0.5-0.4,0.93-1.3,1.69-0.92
		c0.78,0.38,0.67,1.32,0.68,2.08c0,0.37-0.07,0.74-0.1,1.1c-0.14,1.36-0.62,2.63-1.04,3.92c0.28-0.22,0.48-0.47,0.68-0.73
		c1.79-2.35,3.06-5,4.42-7.61c0.53-1.02,1.04-2.03,1.8-2.91c0.54-0.64,0.93-0.55,1.19,0.22c0.1,0.31,0.17,0.63,0.22,0.95
		c0.11,0.85,0.19,1.7,0.22,2.56l-0.36,0.42c-3.12,2.4-4.72,5.69-5.69,9.64c1.33-0.9,2.37-1.87,3.99-2.12
		c-1.31,2.1-1.13,4.7-3.13,6.41c-0.56-1.37,0.09-2.53,0.3-3.83c-2.54,1.82-4.56,3.93-5.97,6.58c-2,3.76-1.07,8.69,2.16,11.17
		c-1.41-2.17-1.98-4.57-1.67-7.08c0.3-2.51,1.55-4.63,3.5-6.46c0.12,1.91,0.07,3.66,0.75,5.51c1.3-2.95,2.95-5.47,5.08-7.66
		c2.14-2.2,4.64-3.85,7.44-5.08C105.28,100.12,102.77,101.26,100.5,103.02z M50.25,161.47c0.57-2.15,1.84-3.78,3.8-5.14
		c0.76,2.54,0.99,5.03,0.75,7.74c-1.29-0.99-2.64-1.64-4.22-1.69C49.88,162.35,50.16,161.81,50.25,161.47z M48.44,158.09
		c0.03,1.23,0.28,2.43,0.71,3.58c0.2,0.54,0.17,0.78-0.52,0.8c-1.88,0.04-3.75,0.25-5.64,0.1c-0.56-0.05-0.86-0.13-0.69-0.76
		c1.24-4.67,3.84-9.79,8.6-12.37C49.34,152.27,48.37,155.03,48.44,158.09z M81.78,86.76c0.92-1.43,5.46-4.11,7.1-4.19
		c1.83-0.08,3.36,1.36,3.78,3.59c-0.02,0-0.07,0.01-0.08,0c-2.1-3.38-3.51-3.76-6.97-1.78C84.3,85.12,83.05,85.97,81.78,86.76z
		 M88.87,86.43c-0.84,0.32-1.71,0.52-2.52-0.14c-0.32-0.27-0.4-0.66-0.21-0.99c0.5-0.88,1.35-1.09,2.46-1.11
		c0.47,0.04,1.23,0.02,1.38,0.84C90.12,85.81,89.49,86.19,88.87,86.43z M85.25,90.69c2.79,0.47,5.31-0.1,7.43-2.1
		C91.68,90.89,89.01,91.6,85.25,90.69z M64.53,166.96c-0.5,2.35-1.43,4.53-2.02,6.78c2.2,0.71,4.44,1.33,6.71,1.87
		C68.2,172.53,66.76,169.61,64.53,166.96z M157.02,147.04c-0.25-0.91-0.66-1.12-1.45-0.43c-1.53,1.34-2.82,2.85-3.79,4.63
		c-0.06,0.1-0.12,0.19-0.31,0.49c-0.34-1.28-0.11-2.4-0.22-3.61c-1.39,0.89-1.9,2.35-2.81,3.63c-0.26-0.81,0.28-1.48,0.05-2.28
		c-2.4,1.41-4.82,2.98-7.72,1.56c-2.28-1.11-2.85-3.41-3.59-5.8c1.69,0.77,3.25,1.4,5.25,0.97c-3.11-1.47-5.45-3.5-6.09-6.83
		c-0.62-3.24,0.45-6.18,2.07-9.03c2.11,2.74,3.11,5.64,1.86,9.03c3.39-4.73,0.8-9.21-0.6-13.79c1.56,1.62,3.38,2.55,5.88,2.8
		c-6.05-3.09-6.44-8.4-6.34-14.02c1.87,0.7,2.86,2.12,3.6,4.1c-0.07-4.89-2.9-8.06-5.65-11.39c1.05,0.04,1.9,0.24,2.66,0.74
		c0.18,0.11,0.37,0.45,0.54,0.26c0.14-0.16-0.17-0.33-0.36-0.43c-1.13-1.4-2.68-2.23-4.14-3.21c-1.22-0.81-2.46-1.58-3.59-2.55
		c-2.23-1.93-3.08-4.01-2.79-7.2c0.79,1.03,1.63,1.84,3.14,1.63c-1.7-1.41-2.63-3.13-2.73-5.25c-0.06-1.27-0.29-2.5-0.69-3.71
		c-0.06-0.13-0.1-0.28,0.05-0.36c0.04-0.03,0.16,0.09,0.24,0.15c1.45,0.96,1.98,1.66,2.78,3.68c0.3-1.83-0.53-3.22-1.34-4.6
		c-0.75-1.27-1.34-2.6-1.67-4.05c-0.07-0.31-0.1-0.63-0.17-1.13c0.86,0.64,1.35,1.49,2.24,1.8c0.1,0.2,0.25,0.3,0.46,0.17
		c-0.08-0.12-0.16-0.23-0.24-0.34c-1.68-1.92-2.61-4.18-3.16-6.77c1.32,0.81,2.3,1.79,3.15,2.93c-0.55-2.45-2.06-4.3-4.02-6.1
		c1.16,0,2.14,0.13,3.27-0.52c-3.59-0.61-4.99-3.75-7.41-5.64c-0.36-0.27-0.72-0.53-1.08-0.79c-0.27-0.34-0.59-0.6-1.01-0.72
		c-0.09-0.24-0.25-0.26-0.46-0.15c0.1,0.11,0.19,0.22,0.29,0.33c0.29,0.24,0.6,0.48,0.9,0.73c1.41,1.54,2.62,3.24,3.94,5.08
		c-1.09-0.09-1.78-0.61-2.59-1.64c0.59,1.98,1.14,3.57,2.12,4.98c0.91,1.3,1.74,2.65,2.36,4.12c0.06,0.13,0.19,0.27-0.02,0.36
		c-0.03,0.02-0.14-0.13-0.21-0.19c-0.18-0.08-0.37-0.17-0.62-0.28c-0.14,0.39,0.39,0.72,0.08,1.11c-1.79-2.3-4.63-3.2-6.79-5.06
		c0.64,1.42,1.81,2.38,2.75,3.53c0.52,0.64,0.78,0.99-0.32,1.24c-1.21,0.27-1.76,1.38-2.49,2.49c-0.34-1.29-0.25-2.39-0.02-3.51
		c-0.94,1.11-1.34,2.43-1.49,4.14c-1.82-2.39-2.37-4.96-2.7-7.74c-0.73,1.13-0.59,2.38-0.94,3.63c-2.32-2.82-2.96-5.97-2.72-9.38
		c-1.51,5.01-0.89,9.77,1.73,14.5c0.15-1.22-0.35-2.22,0.1-3.49c0.49,2.26,1.06,4.24,2.12,6.05c-0.19-1.81-0.78-3.59-0.08-5.53
		c1.57,2.33,1.26,5.13,2.37,7.89c-0.03-1.46-0.04-2.55,0.38-3.86c0.6,3.92,1.81,7.37,4.38,10.55c-1.68-0.58-2.73-1.6-3.93-2.34
		c2.15,2.87,4.97,4.94,7.83,6.96c2.24,1.58,4.48,3.15,6.64,4.84c2.14,1.68,3.11,3.81,3.08,6.48c-0.03,1.63,0.53,3.32,0.39,4.85
		c-0.41,4.49,1.1,9.05-0.57,13.48c-1.01,2.69-2.14,5.3-3.82,7.63c-0.44,0.62-0.91,1.44-1.81,1.25c-0.93-0.19-1.27-1.08-1.5-1.92
		c-0.45-1.68,0.23-5.37-0.14-7.06c-0.06-0.32-0.09-0.64-0.19-0.96c-0.25-0.78-0.53-1.26-0.89-1.45c2.38-3.46,3.12-6.47,5.45-8.26
		c0.97-0.73,1.53-1.69,1.64-2.89c0.14-1.51,0.24-3.02,0.35-4.53c0.25-3.3-2.47-6.59-5.49-6.36c-2.84,0.21-5.65,0.01-8.47,0.01
		c-5.78-0.01-9.73,4.84-8.59,10.47c0.21,1.03,0.71,1.78,1.58,2.34c1.37,0.88,2.96,1.07,4.48,1.5c2.34,0.65,4.66,1.53,6.46,3.42
		c0.85,0.9,1.55,2.83,2.17,4.21c-0.35,0.02-0.78,0.23-1.33,0.64c-2.93,2.17-6.23,6.28-9.4,8.09c-3.99,2.29-8.2,3.73-12.87,3.84
		c-3.54,0.09-6.67-0.9-9.61-2.75c-3.4-2.14-6.13-4.99-8.79-8.35c1.42,0.06,2.62,0,3.84-0.39c-0.53-0.41-1.16-0.22-1.71-0.38
		c-2.55-0.72-4.84-1.93-6.81-3.72c-1.11-1-1.16-1.77-0.16-2.93c0.92-1.07,2.19-1.68,3.38-2.45c-3.48-0.9-7.75,0.91-9.32,4.85
		c-1.45,3.64-0.43,6.97,1.35,10.17c0.27,0.48,0.44,1.06,1.04,1.43c-0.32-1.6-0.74-3.14-0.1-4.71c0.58-0.01,0.85,0.44,1.04,0.85
		c1.11,2.46,2.93,4.42,4.53,6.53c1.73,2.27,2.98,4.76,3.69,7.52c0.45,1.71,1.21,3.16,2.8,4.14c0.91,0.56,1.44,1.54,2.07,2.41
		c1.13,1.57,2.59,2.21,4.48,1.6c1.86-0.6,3.5-0.35,5.04,0.9c1.39,1.13,2.96,1.13,4.62,0.58c1.48-0.48,2.96-1.11,4.81-0.77
		c-0.98,0.64-1.7,1.31-2.27,2.47c1.55-0.83,2.94-1.46,4.78-1.17c-1.02,0.62-2.14,0.76-2.74,1.83c1.15-0.38,2.24-0.62,3.73-0.37
		c-3.23,0.81-5.55,2.53-7.87,4.86c0.16-0.88,0.23-1.44,0.36-2c0.14-0.56,0.33-1.12,0.52-1.74c-3.85,1.51-5.98,4.54-6.01,8.61
		c-0.01,1.17,0.13,2.31,0.37,3.42c-0.29,1.7-0.3,3.46-0.03,5.28c-0.33,0.04-0.36-0.14-0.44-0.27c-2.54-3.7-3.48-7.94-4.14-12.27
		c-0.37-2.41-0.76-4.82-2.16-7.19c-0.27,2.96-1.26,5.31-2.69,6.42c-0.05-1.23-0.28-2.38-0.53-3.53c-0.27-1.14-0.47-2.31-0.81-3.44
		c-0.33-1.07-0.64-2.18-1.49-3.39c0.32,1.25,0.59,2.17,0.78,3.12c0.61,2.93,0.46,5.94,0.99,8.88c0.35,1.92,1.07,3.65,2.4,5.11
		c-0.67-2.68,0.25-4.92,1.72-7.31c0.68,6.07,2.39,11.5,5.63,16.34c1.18-0.14,2.35-0.3,3.52-0.5c-0.17-0.73-0.37-1.45-0.56-2.17
		c-0.64-2.3-1.03-4.61-0.66-7.02c0.23-1.46,0.64-2.83,0.99-4.26c0.11-0.17,0.23-0.35,0.35-0.52c-0.33,2.45,0.46,4.58,1.77,6.61
		c-0.04-1.41-0.08-2.81,0.24-4.18c0.95-4.13,3.8-6.2,7.75-6.99c2.18-0.43,2.19-0.37,1.54,1.75c-0.52,1.72-1.39,3.29-2.17,5.08
		c-0.46-1.36-0.3-2.76-1.3-4.18c0.02,1.6-0.15,2.89-0.38,4.16c-0.47,2.73-1.98,4.98-3.4,7.26c-0.79,1.26-1.33,2.61-1.72,4.04
		c0.11-0.01,0.23-0.04,0.34-0.07c1.4-2.61,3.71-4.48,5.8-6.53c1.09-1.08,1.71-2.44,2.31-3.89c0.22,2.33,0.59,4.59,1.61,6.72
		c-0.17-2.21-0.06-4.39,0.59-6.51c0.63-2.08,1.7-3.88,3.43-5.26c0.37-0.29,0.76-0.81,1.25-0.58c0.43,0.21,0.43,0.83,0.47,1.31
		c0.21,2.41,0.89,4.68,1.91,6.87c-0.04-1.34-0.47-2.62-0.41-3.97c0.04-0.75,0.13-1.46,0.5-2.12c0.28-0.53,0.72-0.76,1.31-0.69
		c0.61,0.07,0.66,0.58,0.71,1.01c0.24,1.9,0.41,3.81,0.67,5.71c0.07,0.46,0.14,0.92,0.28,1.41c0.17-0.08,0.34-0.15,0.51-0.24
		c-0.06-2.41,0.31-4.6,1.18-6.71c0.28-0.68,0.66-1.32,1.04-1.94c0.2-0.35,0.47-0.77,0.92-0.72c0.54,0.07,0.59,0.65,0.68,1.04
		c0.28,1.24,0.19,2.52-0.01,4.12c0.95-1.41,1.3-2.7,1.56-4.02c0.2-1,0.34-2.02,0.72-2.97c0.13-0.3,0.28-0.67,0.69-0.55
		c0.32,0.09,0.28,0.46,0.3,0.74c0.05,0.77,0.02,1.52-0.14,2.28c0.96-1.24,1.54-2.64,1.8-4.24c1.22,2.04,2.35,4.11,3.15,6.28
		c1.57-1.03,3.1-2.12,4.59-3.27c-0.85-1.34-1.88-2.56-2.71-3.91c-0.55-0.89-0.93-1.84-0.92-3.01c1.81,0.52,3.49,0.4,5.13-0.22
		c0.75-0.29,0.83,0.15,0.91,0.68c0.16,1.07-0.23,2.06-0.54,3.2c1.77-1.16,2.75-2.81,3.86-4.81c0.05,1.07,0.17,2.06,0.41,2.97
		c0.8-0.74,1.59-1.49,2.37-2.26c0.6-1.36,1.51-2.58,2.7-3.71c0.1,0.23,0.19,0.45,0.26,0.67c0.46-0.48,0.89-0.96,1.31-1.44
		C157.16,147.57,157.09,147.3,157.02,147.04z M125.75,84.93c-0.27,1.02-0.79,1.66-1.41,2.23c-0.06,0.07-0.12,0.13-0.19,0.2
		c-0.4,0.51-0.98,0.64-1.72,0.77c0.59-0.36,1.06-0.64,1.53-0.91c0.08-0.09,0.16-0.18,0.23-0.26
		C124.54,86.24,124.92,85.53,125.75,84.93z M122.03,83.24c0.07-0.72,0.63-0.98,1.23-1.13c0.58,0.01,0.89,0.43,0.85,0.85
		c-0.08,0.64-0.54,1.07-1.26,1.08C122.3,84.04,121.97,83.79,122.03,83.24z M121.99,80.82c1.22-1.2,2.01-1.03,2.91,0.72
		c-0.8-0.94-1.67-1.41-2.74-0.51c-0.7,0.95-1.16,1.99-1.31,3.16C120.74,82.89,121.01,81.74,121.99,80.82z M127.54,97.86
		c-2.8-2.07-4.68-4.71-5.63-8.29c0.81,0.46,1.48,0.7,2.2,0.76c0.11,0.01,0.27,0.06,0.31,0.01c0.1-0.14-0.06-0.16-0.16-0.19
		c-0.24-0.2-0.5-0.39-0.73-0.61c-0.34-0.33-0.38-0.63,0.15-0.81c0.75-0.25,1.43-0.65,1.91-1.25c0.17-0.21,1.39-0.55,0.15-1.08
		c-0.24-0.1,0.04-0.35,0.17-0.48c0.34-0.35,0.71-0.72,1.25-0.68c0.35,0.02,0.24,0.36,0.25,0.58c0.08,1.01-0.24,1.94-0.57,2.86
		c-0.41,1.15-0.53,2.25,0.02,3.44c0.62,1.33,0.82,2.81,0.99,4.26C127.91,96.88,127.85,97.35,127.54,97.86z M109.41,149.3
		c-1.62-0.88-3.14-0.59-4.6,0.38c-0.14,0.1-0.28,0.19-0.43,0.25c-0.51,0.2-1.19,0.79-1.53,0.41c-0.45-0.5,0.39-0.89,0.64-1.35
		c0.26-0.48,0.89-0.96,0.58-1.47c-0.32-0.52-1.08-0.29-1.62-0.2c-1.26,0.2-2.36,0.84-3.42,1.53c-0.81,0.55-1.53,1.23-2.54,1.59
		c-0.04-1.04,0.37-1.85,0.88-2.64c0.19-0.3,0.47-0.57,0.62-0.91c0.26-0.57,0.39-1.23-0.01-1.74c-0.4-0.51-1.01-0.19-1.48-0.02
		c-1.23,0.42-2.38,1.09-3.65,1.4c-1.69,0.41-2.93-0.13-3.73-1.69c-0.95-1.83-1.19-3.87-1.55-5.86c-0.49-2.74-1.16-5.4-2.65-7.79
		c-0.16-0.16-0.47-0.42-0.33-0.53c0.31-0.23,0.39,0.16,0.52,0.36c1.95,1.92,2.94,4.35,3.66,6.92c0.24,0.82,0.45,1.65,0.65,2.47
		c0.84,3.47,2.94,4.2,6.16,3.6c1.08-0.21,2.14-0.55,3.22-0.65c3.93-0.39,6.88,1.53,9.49,4.16c0.49,0.49,0.91,1.05,1.35,1.59
		c0.16,0.17,0.31,0.36,0.49,0.57C109.71,149.78,109.59,149.49,109.41,149.3z M133.26,116.52c-1.15-0.05-1.97-1.5-1.83-3.34
		c0.35,1.01,0.35,2.15,1.55,2.37c1.35,0.25,1.39-1.07,1.95-1.87C134.84,115.67,134.29,116.57,133.26,116.52z M119.78,116.76
		c-0.01-0.01-0.02-0.01-0.03-0.02l0.03-0.01V116.76z M126.32,116.19c-1.16,1.17-3.87,1.99-6.49,0.59c1.3,0.05,2.6,0.37,3.91-0.19
		c2.45-1.03,3.61-2.89,3.75-5.51C128.29,112.69,127.79,114.74,126.32,116.19z M124.53,108.97c-1.96,0.4-3.94,0.31-5.83-0.51
		c2.52,0.44,4.97,0.31,7.26-0.88c1.69-0.89,3.49-1.05,5.35-0.93c1.01,0.07,2,0.23,2.76,1.17c-1.01,0.18-1.85,0.54-2.57,1.16
		c-0.6,0.51-1.26,0.52-1.95,0.23C127.9,108.52,126.25,108.62,124.53,108.97z M134.57,150.72c-0.42,1.61-0.9,3.21-1.21,4.85
		c-0.28,1.47-1.17,2.27-2.46,2.79c-4.01,1.6-7.33,0.85-10.14-2.44c-1.46-1.71-3.11-3.12-5.02-4.27c-1.57-0.94-2.85-2.22-3.83-3.76
		c-1.24-1.95-1.4-3.99-0.22-6.03c0.9-1.56,2.44-2.05,4.14-2.21c6.18-0.6,9.74,2.86,11.79,7.93c0.14,0.37,0.25,0.75,0.38,1.12
		c-0.05-2.06-0.72-3.94-1.59-5.75c-0.68-1.46-1.63-2.74-2.75-3.89c-0.32-0.32-0.64-0.65-0.86-1.04c-0.56-0.97-0.21-1.56,0.9-1.61
		c0.75-0.03,1.44,0.17,2.12,0.5c3.65,1.77,6.49,4.41,8.26,8.07C134.95,146.78,135.1,148.74,134.57,150.72z M159.34,142.49
		c-0.01,1.27-0.06,2.29-0.2,3.14c0.64-0.75,1.25-1.51,1.85-2.29C160.53,142.94,159.99,142.66,159.34,142.49z M159.74,130.19
		c-1.88-1.98-3.64-4.09-5.4-6.19c-1.08-1.3-2.06-2.67-2.88-4.37c3.34,0.6,6.07,1.94,8.43,4.09c-1.24-2.88-2.97-5.37-5.16-7.55
		c-2.89-2.86-6.25-5.16-9.2-7.95c-2.91-2.76-5.37-5.83-6.87-9.59c-0.17-0.13-0.23-0.28-0.11-0.48c0.11,0.08,0.22,0.15,0.33,0.23
		c2.29,1.95,4.51,2.93,6.65,2.71c-6.76-4.45-8.15-11.48-9.81-18.35c2.92,1.44,4.86,1.75,6.78,1.08c-5.4-3.38-8.5-8.45-7.51-12.29
		c1.81,1.27,2.71,3.25,3.92,5.13c-0.38-4.59-1.91-8.52-5.61-11.65c1.59-0.25,2.91-0.25,4.49,0.04c-3.4-3.41-7.54-4.09-11.87-4.52
		c0.94-1.41,1.63-2.74,1.69-4.51c-0.54,0.49-0.92,0.85-1.32,1.19c-2.83,2.4-6.01,3.35-9.68,2.34c-0.75-0.21-1.15-0.37-0.57-1.25
		c0.37-0.55,0.74-1.25,0.47-2.08c-1.64,1-3.34,1.5-5.19,0.96c-1.16-0.35-2.33-0.77-3.41-1.32c-3.71-1.88-7.63-2.56-11.76-2.23
		c-1.8,0.15-3.57-0.11-5.34-0.48c-3.18-0.68-6.41-1.1-9.57,0.06c-2.94,1.09-5.93,1.99-8.98,2.73c-4.49,1.1-8.32,3.42-11.77,6.49
		c-4.66,4.14-10.23,5.38-16.32,4.71c-2.33-0.26-4.6-0.72-6.85-1.89c0.99,1.71,2.24,2.91,3.76,4c-4.09,0.57-7.94,1.33-11.03,4.13
		c2.31-0.66,4.57-0.6,6.99,0.23c-3.79,4.5-8.56,6.32-14.36,5.96c1.63,2.07,3.76,2.57,6.22,2.75c-3.08,2.75-6.48,4.17-10.56,4.13
		c1.56,1.72,3.62,1.75,5.6,2.11c-4.79,4.69-5.2,10.52-3.13,14.13c-0.4-2.96,0.63-5.35,2.94-7.37c0.08,0.45,0.12,0.73,0.17,1.01
		c0.4,2.29,1.65,4.24,2.42,6.38c1.61,4.5,0.66,8.5-2.72,11.31c-0.77,0.65-1.59,1.22-2.55,1.94c2.67-0.33,5.04-0.84,7.09-2.83
		c-0.54,2.81-1.32,5.23-2.25,7.61c-1.99,5.08-4.95,9.65-7.38,14.49c-0.79,1.57-1.48,3.15-2.01,4.77c0.32,0.46,0.65,0.91,0.99,1.36
		c1.16-3.7,3.12-7.04,4.98-10.43c2.65-4.83,5.17-9.72,6.66-15.06c0.55-1.96,0.93-3.95,1.17-5.96c0,0.01,0.01,0.03,0.01,0.04
		c0.31-1.31,0.51-2.31,0.78-3.29c0.28-0.99,0.68-1.94,1.55-2.63c1.49,7.55,3.56,15.01,0.22,22.56c2.23-1.76,3.68-3.99,4.7-6.9
		c0.09,2.14-0.38,3.82-1.09,5.43c-1.02,2.31-2.15,4.57-3.16,6.88c-1.17,2.71-1.79,5.56-1.77,8.54c0.6-4.63,3.02-8.47,5.3-12.37
		c1.57-2.69,2.76-5.54,3.09-8.68c0.36-3.43-0.31-6.71-1.28-9.96c-0.05,2.32-0.66,4.4-2.29,6.38c0.04-2.7-0.42-5.13-0.87-7.56
		c-0.84-4.48-2.65-8.79-2.14-13.82c-0.75,1.38-1.11,2.54-1.4,3.71c-0.3,1.17-0.52,2.37-0.84,3.84c-1.53-5.08-1.79-9.85-0.24-14.63
		c-3.36,6.82-2.77,13.73-0.97,20.93c-0.44,1.14-1.05,2.25-2.2,3.13c0.24-1.51,0.72-2.75,0.79-4.08c0.17-3.08-1.07-5.8-2.09-8.6
		c-0.77-2.13-1.28-4.29-0.51-6.69c-1.74,0.68-3.02,1.76-4.27,2.92c0.96-3.76,3.71-6.06,6.93-8.27c-0.92,0.14-1.6,0.23-2.27,0.35
		c-0.72,0.11-1.43,0.12-2.16-0.1c3.46-1.46,6.11-3.92,8.88-6.71c-1.8,0.34-3.32,0.76-5.27,0.45c4.92-1,8.36-3.71,11.39-7.07
		c0.6-0.68,0.69-1.1-0.35-1.33c-0.87-0.2-1.71-0.47-2.66-0.74c2.76-1.09,5.56-0.99,8.58-0.88c-0.92-0.83-1.94-1.3-2.51-2.59
		c8.55,1.83,15.9-1.71,23.58-4.52c-1.74-0.18-3.22,0.53-4.87,0.53c0.85-1.23,2.01-2.08,3.18-2.91c3.8-2.72,8.13-4.1,12.64-4.99
		c1.38-0.28,2.65-0.82,3.91-1.36c3.58-1.56,7.14-1.23,10.72-0.02c-1.46,0.04-2.91-0.33-4.7-0.04c2.94,0.48,5.34,1.47,7.5,3.05
		c2.18,1.59,3.88,3.6,5.38,5.83c-0.33-1.52-0.97-2.91-2.01-4.17c4.75,1.65,7.05,6,7.81,14.66c1.38-4.2,0.4-11.17-2.28-15.29
		c0.24,1.23,0.71,2.17,0.42,3.17c-0.28,0.14-0.42-0.03-0.53-0.2c-1.57-2.32-3.9-3.67-6.3-4.94c-0.59-0.32-1.53-0.6-1.34-1.35
		c0.14-0.58,1.08-0.56,1.74-0.63c4.46-0.51,8.27,0.82,11.55,3.9c1.61,1.51,3.48,2.69,5.5,3.61c0.19,0.08,0.35,0.2,0.61,0.02
		c-1.36-0.92-2.77-1.74-3.84-2.98c-0.18-0.2-0.52-0.38-0.38-0.7c0.15-0.34,0.5-0.15,0.76-0.15c0.9-0.02,1.8-0.01,2.72-0.01
		c-0.06,0.5-0.57,0.39-0.87,0.75c3.3,1.93,6.72,2.19,10.31,1.16c0.16-0.17,0.33-0.3,0.55-0.11c-0.09,0.11-0.18,0.21-0.28,0.32
		c-0.29,0.38-0.6,0.76-1.04,1.31c3.61-0.54,6.9-0.01,10.07,1.35c-1.16,0.06-2.32-0.03-3.73,0.29c1.44,0.78,2.68,1.51,3.77,2.44
		c1.12,0.97,2.03,2.12,2.78,3.55c-0.84-0.25-1.41-0.98-2.27-0.94c-0.65,3.59,0.21,10.08,3.66,12.64c0.16,0.12,0.22,0.23,0.19,0.36
		c0.07,0.1-0.01,0.13-0.08,0.16c-0.02,0.02-0.04,0.05-0.07,0.08c0.01-0.02,0.01-0.04,0.02-0.06c-0.01,0.01-0.03,0.02-0.03,0.04
		c-1.26-0.86-2.68-1.5-3.73-2.72c-0.32,0.42-0.01,0.66,0.09,0.92c1.25,3.22,2.05,6.58,2.93,9.92c0.57,2.18,1.4,4.23,2.55,6.15
		c0.16,0.07,0.24,0.19,0.11,0.33c-0.02,0.03-0.18-0.06-0.27-0.1c-1.19-0.72-2.23-1.64-3.44-2.85c0.95,3.45,2.26,6.38,3.96,9.14
		c2.78,4.53,6.78,7.84,10.9,11.04c1.8,1.41,3.58,2.86,4.9,4.86c-2.17-1.05-4.51-1.15-6.93-1.44c0.29,1.1,0.95,1.93,1.49,2.8
		c2.58,4.18,6.1,7.58,9.31,11.24c1.93,2.2,3.63,4.55,4.15,7.52c0.09,0.54,0.16,1.08,0.19,1.62c0.38-0.53,0.76-1.07,1.13-1.61
		C163.76,135.75,162.27,132.86,159.74,130.19z"/>
	<path class="st0" d="M164.29,138.84c-0.37,0.54-0.75,1.08-1.13,1.61c-0.7,0.98-1.43,1.95-2.17,2.89c-0.6,0.78-1.21,1.54-1.85,2.29
		c-0.61,0.75-1.25,1.48-1.91,2.21c-0.42,0.48-0.85,0.96-1.31,1.44c-0.95,1.04-1.94,2.05-2.96,3.04c-0.78,0.77-1.57,1.52-2.37,2.26
		c-1.97,1.79-4.02,3.49-6.14,5.1c-1.49,1.15-3.02,2.24-4.59,3.27c-3.77,2.53-7.75,4.77-11.89,6.69c-0.17,0.09-0.34,0.16-0.51,0.24
		c-6.44,2.95-13.28,5.16-20.43,6.52c-0.11,0.03-0.23,0.06-0.34,0.07c-0.81,0.16-1.63,0.3-2.45,0.42c-1.17,0.2-2.34,0.36-3.52,0.5
		c-3.51,0.42-7.09,0.63-10.72,0.63c-3.06,0-6.08-0.15-9.05-0.45c-0.51-0.05-1.02-0.1-1.52-0.17c-2.29-0.26-4.56-0.62-6.79-1.06
		c-0.46-0.08-0.92-0.17-1.37-0.28c-0.69-0.14-1.37-0.29-2.05-0.45c-2.27-0.54-4.51-1.16-6.71-1.87c-0.45-0.14-0.9-0.29-1.35-0.44
		c-1.37-0.46-2.73-0.96-4.08-1.49c-0.43-0.16-0.85-0.34-1.28-0.52c-0.73-0.29-1.45-0.6-2.17-0.93c-3.22-1.41-6.34-3.02-9.35-4.81
		c-1.9-1.11-3.75-2.3-5.56-3.56c-0.7-0.48-1.4-0.98-2.09-1.5c-0.46-0.33-0.91-0.67-1.36-1.02c-0.64-0.49-1.27-0.98-1.89-1.49
		c-0.52-0.41-1.03-0.84-1.53-1.28c-0.63-0.52-1.25-1.06-1.86-1.61c-0.11-0.09-0.22-0.19-0.33-0.29c-2.94-2.66-5.7-5.51-8.26-8.53
		c-0.76-0.88-1.5-1.78-2.22-2.7c-0.57-0.72-1.13-1.46-1.67-2.21c-0.34-0.45-0.67-0.9-0.99-1.36c0.53-1.62,1.22-3.2,2.01-4.77
		c2.43-4.84,5.39-9.41,7.38-14.49c0.93-2.38,1.71-4.8,2.25-7.61c-2.05,1.99-4.42,2.5-7.09,2.83c0.96-0.72,1.78-1.29,2.55-1.94
		c3.38-2.81,4.33-6.81,2.72-11.31c-0.77-2.14-2.02-4.09-2.42-6.38c-0.05-0.28-0.09-0.56-0.17-1.01c-2.31,2.02-3.34,4.41-2.94,7.37
		c-2.07-3.61-1.66-9.44,3.13-14.13c-1.98-0.36-4.04-0.39-5.6-2.11c4.08,0.04,7.48-1.38,10.56-4.13c-2.46-0.18-4.59-0.68-6.22-2.75
		c5.8,0.36,10.57-1.46,14.36-5.96c-2.42-0.83-4.68-0.89-6.99-0.23c3.09-2.8,6.94-3.56,11.03-4.13c-1.52-1.09-2.77-2.29-3.76-4
		c2.25,1.17,4.52,1.63,6.85,1.89c6.09,0.67,11.66-0.57,16.32-4.71c3.45-3.07,7.28-5.39,11.77-6.49c3.05-0.74,6.04-1.64,8.98-2.73
		c3.16-1.16,6.39-0.74,9.57-0.06c1.77,0.37,3.54,0.63,5.34,0.48c4.13-0.33,8.05,0.35,11.76,2.23c1.08,0.55,2.25,0.97,3.41,1.32
		c1.85,0.54,3.55,0.04,5.19-0.96c0.27,0.83-0.1,1.53-0.47,2.08c-0.58,0.88-0.18,1.04,0.57,1.25c3.67,1.01,6.85,0.06,9.68-2.34
		c0.4-0.34,0.78-0.7,1.32-1.19c-0.06,1.77-0.75,3.1-1.69,4.51c4.33,0.43,8.47,1.11,11.87,4.52c-1.58-0.29-2.9-0.29-4.49-0.04
		c3.7,3.13,5.23,7.06,5.61,11.65c-1.21-1.88-2.11-3.86-3.92-5.13c-0.99,3.84,2.11,8.91,7.51,12.29c-1.92,0.67-3.86,0.36-6.78-1.08
		c1.66,6.87,3.05,13.9,9.81,18.35c-2.14,0.22-4.36-0.76-6.65-2.71c-0.11-0.08-0.22-0.15-0.33-0.23c-0.12,0.2-0.06,0.35,0.11,0.48
		c1.5,3.76,3.96,6.83,6.87,9.59c2.95,2.79,6.31,5.09,9.2,7.95c2.19,2.18,3.92,4.67,5.16,7.55c-2.36-2.15-5.09-3.49-8.43-4.09
		c0.82,1.7,1.8,3.07,2.88,4.37c1.76,2.1,3.52,4.21,5.4,6.19C162.27,132.86,163.76,135.75,164.29,138.84z"/>
</g>
</svg>
