<?xml version="1.0" encoding="utf-8"?>
<!-- Generator: Adobe Illustrator 23.0.1, SVG Export Plug-In . SVG Version: 6.00 Build 0)  -->
<svg version="1.1" id="Layer_1" xmlns="http://www.w3.org/2000/svg" xmlns:xlink="http://www.w3.org/1999/xlink" x="0px" y="0px"
	 viewBox="0 0 180 183.02" style="enable-background:new 0 0 180 183.02;" xml:space="preserve">
<style type="text/css">
	.st0{fill:none;}
	.st1{fill:#ECF8FE;}
	.st2{clip-path:url(#SVGID_2_);}
	.st3{fill:#101010;}
	.st4{fill:#191A1A;}
	.st5{fill:#121212;}
	.st6{fill:#080909;}
</style>
<g>
	<circle class="st1" cx="90" cy="93.02" r="90"/>
	<g>
		<defs>
			<circle id="SVGID_1_" cx="90" cy="90" r="90"/>
		</defs>
		<clipPath id="SVGID_2_">
			<use xlink:href="#SVGID_1_"  style="overflow:visible;"/>
		</clipPath>
		<path class="st2" d="M-2.95,178.21c-0.6,0-1.21,0-1.81,0.01c0.66,0.18,1.41,0.17,2.17-0.01C-2.72,178.22-2.84,178.21-2.95,178.21z
			 M183.28,163.57c-0.51-0.22-0.91-0.48-1.23-0.82c-0.57,0.75-0.72,1.72-0.48,2.71c0.11,0.48,0.32,0.97,0.61,1.44
			c-0.42,0.72-0.84,1.42-1.28,2.13c1.41-0.02,2.74-0.66,3.59-1.09c0.29-0.16,0.53-0.28,0.69-0.35c0.26-0.12,0.51-0.21,0.75-0.28
			C185.74,165.52,184.79,164.2,183.28,163.57z M177.99,155c-0.57-0.56-1.2-0.96-1.86-1.22c-0.74-0.28-1.52-0.39-2.37-0.32
			c-1.07,0.08-1.95-0.05-2.27-1.51c-0.02-0.09-0.04-0.18-0.08-0.27c-0.21-0.57-0.7-1.07-1.42-1.14c-3.71-0.35-7.11,0.47-10.08,3.07
			c-1.37,1.21-2.45,2.69-3.48,4.23c-0.56,0.82-0.57,0.82-1.46,0.48c-1.44-0.55-2.79-0.39-4.06,0.57c-1.07,0.8-2.07,1.7-2.97,2.7
			c-3.84,4.26-5.28,9.45-4.76,15.34c0.09,1.04,0,1.23-0.94,1.27c-0.73,0.04-1.46,0.03-2.19,0.03c-3.59-0.01-7.17-0.02-10.76-0.06
			c-0.96-0.01-0.97-0.06-0.96-1.1c0.01-1.75-0.32-3.4-1.32-4.82c-0.55-0.79-1.13-1.54-1.7-2.31c-0.57-0.76-1.15-1.53-1.73-2.28
			c-0.33-0.42-0.27-0.73,0.16-1.01c0.42-0.27,0.82-0.57,1.22-0.89c3.59-2.92,6.01-6.81,7.71-11.28c1.76-4.64,2.64-9.52,3.15-14.48
			c0.33-3.18,0.39-6.37,0.02-9.56c-0.21-1.81-0.55-3.6-0.91-5.38c-0.15-0.74-0.13-1.39,0.18-2.09c0.62-1.36,1.15-2.76,1.71-4.15
			c0.41-1.03,0.95-1.91,1.71-2.69c1.67-1.73,3.3-3.5,4.92-5.27c1.96-2.14,3.72-4.43,4.47-7.45c0.19-0.73,0.48-1.43,0.7-2.14
			c0.66-2.09,1.29-4.17,1.43-6.41c0.16-2.51,0.64-4.96,1.44-7.33c1.15-3.39,2.21-6.81,4.14-9.8c0.78-1.22,1.48-2.49,2.08-3.81
			c0.75-1.64,1.45-3.3,1.47-5.18c0.03-2.71,0.38-7.44-0.13-10.1c0-0.01,0-0.02,0-0.03c-0.42-2.19-0.98-4.34-2.14-6.23
			c-1.45-2.35-3.41-3.76-6.09-3.73c-0.5,0-1,0.04-1.49,0.09c-0.65,0.07-1.29,0.18-1.93,0.32c-5.76,1.3-11.65,5.67-16.68,9.01
			c-1.31,0.87-2.63,1.72-3.77,2.85c-1.98,1.95-3.64,4.2-5.09,6.63c-1.91,3.25-4.11,6.22-6.76,8.78c-1.43,1.38-0.96,1.26-2.71,0.67
			c-0.3-0.1-0.6-0.22-0.89-0.33c-1.05-0.37-2.1-0.41-3.17-0.05c-0.7,0.23-1.42,0.34-2.16,0.4c-5.13,0.46-10.21-0.07-15.29-0.77
			c-1.62-0.22-3.25-0.47-4.89-0.3c-0.67,0.07-1.14-0.12-1.57-0.64c-0.65-0.8-1.49-1.32-2.45-1.39c-1.2-0.1-2.42-0.3-3.59,0.29
			c-0.67,0.34-0.77,0.22-0.77-0.57c0-1.03,0.05-2.06,0-3.08c-0.05-1.05-0.6-1.58-1.55-1.58c-0.17,0-0.35-0.01-0.52,0.03
			c-0.99,0.2-1.51-0.31-1.92-1.28c-1.21-2.78-2.42-5.56-3.87-8.2c-1.36-2.48-2.79-4.91-4.53-7.1c-1.26-1.59-2.73-2.92-4.24-4.2
			c-2.39-2.03-4.71-4.16-7.31-5.86c-1.45-0.95-2.97-1.64-4.7-1.7c-1.09-0.04-2.18,0.04-3.27,0.04c-0.06,0-0.12,0-0.18,0
			c-1.34,0-3.1,0.34-4.34,0.85c-0.03,0.01-0.07,0.03-0.1,0.04c-1.24,0.51-2.23,1.28-2.92,2.32c-0.47,0.71-0.35,1.54-0.51,2.51
			c0,0.02-0.01,0.05-0.01,0.08c-0.81,4.37-1.15,8.8-1.55,13.23c-0.23,2.54-0.23,5.09-0.5,7.62c-0.18,1.64-0.09,3.26,0.66,4.78
			c0.28,0.56,0.45,1.19,0.66,1.8c0.56,1.62,0.63,3.25,0.04,4.89c-0.33,0.92-0.61,1.86-0.91,2.79c-0.51,1.54-0.68,3.13-0.39,4.72
			c0.27,1.49,0.7,2.94,1.08,4.4c0.91,3.45,2.24,6.7,3.87,9.81c0.59,1.12,1.13,2.29,2.13,3.06c0.58,0.45,1.06,0.98,1.49,1.59
			c0.87,1.23,1.66,2.55,2.61,3.71c0.13,0.17,0.22,0.38,0.29,0.59c0.65,1.77,1.23,3.55,1.81,5.35c0.48,1.49,0.49,2.88-0.3,4.24
			c-0.25,0.42-0.42,0.88-0.62,1.32c-0.75,1.67-1.66,3.27-2.01,5.12c-0.42,2.2-0.75,4.41-0.92,6.65c-0.32,4.45,0.09,8.8,1.37,13.05
			c0.7,2.35,1.37,4.71,2.07,7.06c0.24,0.8,0.23,1.55-0.21,2.28c-0.48,0.79-0.9,1.63-1.35,2.44c-1.64,2.92-3.28,5.83-4.91,8.75
			c-0.75,1.34-1.22,2.78-1.37,4.38c-0.2,2.32-0.14,4.64-0.17,6.96c-0.01,1.1-0.01,1.13-0.97,1.13c-2.55,0.01-5.1,0-7.65,0h-0.28
			c-0.23,0-0.5,0.06-0.64-0.24c0-0.04,0-0.08,0.01-0.12c0.05-0.09,0.09-0.2,0.16-0.28c0.01-0.01,0.02-0.03,0.04-0.05
			c2.01-2.48,2.69-5.5,2.79-8.69c0.1-3.55-1.38-6.43-3.52-8.98c-1.11-1.32-2.38-2.09-4.07-1.65c-0.65,0.17-1.04-0.14-1.32-0.79
			c-0.4-0.93-0.87-1.82-1.32-2.72c-1.01-1.99-2.41-3.63-4.09-4.95c-1.37-1.08-2.93-1.7-4.51-2.31c-1.58-0.62-2.81-0.26-3.8,0.96
			c-0.09,0.1-0.17,0.21-0.25,0.33c-0.48,0.68-0.94,0.83-1.69,0.59c-0.33-0.11-0.66-0.19-0.99-0.24c-1.88-0.29-3.59,0.37-5.19,1.64
			c-1.45,1.16-2.43,2.71-3.2,4.43c-0.46,1.03-1.1,1.65-2.17,1.87c-1.35,0.28-2.41,1.04-3.09,2.18c0.79,0.33,1.73,0.47,2.83,0.28
			c0.13-0.02,0.29-0.06,0.47-0.09c0.37-0.07,0.84-0.15,1.4-0.15c0.68,0,1.51,0.12,2.44,0.51c0.17,0.07,0.43,0.21,0.75,0.36
			c0.05-0.21,0.11-0.41,0.17-0.62c0.28-0.98,0.61-1.93,0.92-2.89c0.08-0.25,0.16-0.51,0.27-0.74c0.19-0.4,0.37-0.93,0.85-0.88
			c0.47,0.05,0.44,0.62,0.5,1.01c0.2,1.31,0.47,2.59,0.83,3.84v0c0.12,0.42,0.24,0.84,0.38,1.25l15.25,16.05
			c0.07,0.13,0.12,0.28,0.17,0.42v0.01c0.15,0.45-0.05,0.63-0.44,0.65c-0.38,0.01-0.76,0.04-1.15,0.04h-3.24
			c0.69,0.99,1.4,1.97,2.12,2.93h6.52c44.86,0,89.73,0,134.59,0h6.53c0.27-0.36,0.54-0.73,0.81-1.1c0.45-0.61,0.88-1.22,1.31-1.84
			c-2.11,0-4.22,0-6.32,0c-1.15,0-2.31,0-3.46,0h-1.48c-0.51,0-1.03-0.01-1.5-0.17c0-0.5,0.25-0.73,0.46-0.96
			c1.88-2.05,4.03-3.11,6.4-3.23c1.24-1.48,2.43-3.01,3.57-4.57c0.61-0.84,1.21-1.68,1.79-2.54c1.95-2.87,3.75-5.85,5.38-8.93
			c0.21,0.64,0.52,1.24,0.98,1.77c0.4,0.46,0.83,0.8,1.28,1.03c0.36-0.75,0.67-0.74,1.13,0c0.09,0.13,0.16,0.27,0.21,0.41
			c0.49,0.07,0.98,0.04,1.45-0.03c0.8-0.12,1.54-0.4,2.15-0.66C180.49,158.24,179.49,156.45,177.99,155z M25.17,170.26
			c1.02-1.3,1.61-2.82,1.98-4.45c0.14-0.64,0.27-1.42,0.94-1.49c0.74-0.06,0.84,0.8,1.01,1.38c0.41,1.37,0.77,2.75,1.15,4.14
			c0.07,0.25,0.08,0.52,0.13,0.87c-0.38,1.42-0.61,2.97-1.51,4.25c-0.03,0.05-0.07,0.09-0.1,0.13c-0.48,0.61-1.03,0.71-1.74,0.38
			c-1.08-0.51-2.06-1.25-2.95-2.09c-0.46-0.44-0.48-0.94-0.1-1.51c0.27-0.41,0.57-0.79,0.86-1.18
			C24.95,170.53,25.06,170.4,25.17,170.26z M13.46,164.7c-0.19-0.6-0.38-1.23-0.31-1.91c0-0.02,0-0.05,0.01-0.08
			c0.04-0.41,0.09-0.82,0.16-1.22c0.3-1.89,0.86-3.68,1.76-5.31c0.34-0.63,0.73-1.24,1.17-1.83c0.46-0.61,0.87-0.6,1.25,0.05
			c1.17,1.98,2.22,4.05,3.11,6.19c0.53,1.26,0.24,2.59-0.73,3.46c-0.06,0.06-0.11,0.1-0.17,0.15c-1.19,0.93-2.51,1.64-3.92,2.09h0
			c-0.1,0.03-0.19,0.05-0.28,0.06L13.46,164.7z M124.66,78.84c0.83-2.24,1.82-4.36,3.43-6.07c0.84-0.89,1.51-1.96,2.55-2.88
			c-0.02,1.47-0.7,2.65-0.67,4.16c1.11-1.37,1.77-2.9,2.86-4.16c0.44,0.76,0.06,1.63,0.44,2.35c0.5-0.15,0.76-0.57,1.08-0.89
			c1.18-1.23,2.36-2.47,3.55-3.7c1.38-1.42,3.04-2.4,4.62-3.49c1.32-0.92,2.65-1.81,3.99-2.7c0.34-0.23,0.68-0.49,1.08-0.57
			c0.21,0.37,0.06,0.66,0.01,0.95c-0.38,2.39-0.63,4.84-1.41,7.11c-0.55,1.62-1.32,3.18-1.79,4.84c0.07,0.22-0.03,0.41-0.08,0.61
			c-0.04,0.21,0.02,0.33,0.23,0.35c0.34-0.56,0.94-0.73,1.32-1.24c0.27,0.39,0.08,0.65-0.02,0.91c-0.66,1.72-1.33,3.43-2,5.14
			c-0.09,0.24-0.26,0.47-0.06,0.8c1.1-0.49,1.98-1.42,3.27-2.04c-0.28,0.5-0.44,0.81-0.61,1.11c-0.7,1.17-1.1,2.43-1.28,3.81
			c-0.22,1.66-0.7,3.25-1.15,4.85c-0.08,0.28-0.22,0.55-0.06,0.86c0.56-0.03,0.62-0.78,1.16-0.94c0.05,1.06-0.42,2.01-0.39,3.12
			c0.5-0.37,0.5-1.1,1.04-1.28c0.43,0.97,0.57,3.18,0.12,4.04c-0.62,1.22-0.77,2.5-0.75,3.85c0.03,1.18-0.04,2.36-0.11,3.54
			c-0.07,1.04-0.5,1.79-1.24,2.39c-0.82,0.66-1.72,1.16-2.68,1.52c-0.85,0.32-1.73,0.56-2.6,0.81c-0.69,0.2-0.95,0.1-1.29-0.59
			c-0.45-0.91-1.04-1.71-1.61-2.52c-0.94-1.31-0.94-1.61-0.17-3.04c0.34-0.62,0.63-1.27,0.93-1.91c0.06-0.13,0.06-0.3-0.04-0.44
			c-0.45-0.01-0.68,0.48-1.16,0.59c-0.03-1.23,0.6-2.29,0.76-3.52c-0.58-0.15-0.96,0.25-1.39,0.44c-0.92,0.41-0.96,0.4-1.12-0.64
			c-0.12-0.83-0.24-1.65-0.37-2.47c-0.02-0.09-0.09-0.18-0.18-0.37c-0.55,0.89-0.48,1.95-1.04,2.9c-1.66-3.4-2.1-6.91-1.64-10.66
			c-0.54,0.07-0.54,0.47-0.62,0.75c-0.29,0.97-0.44,1.99-0.52,3.01c-0.05,0.8-0.22,1.58-0.46,2.34c-0.12,0.38-0.19,0.95-0.64,0.92
			c-0.37-0.02-0.41-0.57-0.48-0.92c-0.28-1.49-0.52-2.98-0.78-4.47c-0.06-0.33-0.01-0.69-0.28-1.04c-0.49,0.76-0.24,1.71-0.57,2.47
			c-0.29,0.05-0.32-0.22-0.39-0.42c-0.62-1.86-1.13-3.75-1.13-5.76C124.38,80,124.45,79.41,124.66,78.84z M62.42,76.63
			c0.57,0.02,0.79,0.39,1.08,0.65c0.19,0.16,0.38,0.41,0.63,0.31c0.29-0.12,0.19-0.46,0.18-0.71c-0.06-1.17-0.18-2.34-0.66-3.43
			c-0.21-0.5-0.54-0.97-0.51-1.62c0.59-0.26,1.26,0,1.88-0.37c-0.22-1.64-1.23-3-1.51-4.66c1.26,0.21,2.5,1.42,2.83,2.88
			c0.61,2.72,0.44,5.35-0.89,7.81c-0.86,1.59-1.98,2.92-3.32,4.05C62.9,79.94,62.97,78.32,62.42,76.63z M48.52,94.78
			c-0.59,0.31-1.24,0.52-1.88,0.66c-0.89,0.21-1.65-0.11-2.19-0.92c-0.29-0.43-0.56-0.88-0.85-1.31c-0.47-0.71-0.98-1.38-1.67-1.86
			c-0.83-0.58-1.35-1.4-1.5-2.49c-0.16-1.16-0.42-2.31-0.34-3.49c0.36-0.12,0.44,0.2,0.57,0.38c0.77,1.08,1.49,2.21,1.88,3.53
			c0.11,0.38,0.28,0.69,0.54,0.96c0.69,0.7,1.17,0.61,1.61-0.29c0.21-0.43,0.39-0.89,0.66-1.3c0.44-0.66,0.63-1.42,0.76-2.21
			c-0.08-0.41-0.1-0.81,0.1-1.19c0-0.3-0.01-0.61-0.01-0.92c-0.14-0.15-0.17-0.32-0.07-0.5c-0.11-0.48-0.23-0.96-0.34-1.44
			c-0.39-0.84-0.64-1.72-0.85-2.7c0.54,0.5,0.93,1.24,1.28,2.31c0.33,0.62,0.63,1.28,1.02,1.86c0.28,0.45,0.58,1.06,1.2,0.94
			c0.59-0.13,0.73-0.77,0.85-1.32c0.21-1,0.28-2.03,0.44-3.04c0.31-2.07-0.15-3.83-1.5-5.32c-0.25-0.27-0.42-0.61-0.66-0.88
			c-1.42-1.6-1.24-3.51-0.87-5.45c0.02-0.14,0.13-0.26,0.23-0.46c0.74,0.61,0.75,1.68,1.32,2.36c0.09-0.1,0.17-0.15,0.17-0.2
			c0.03-3,0.18-6.02-0.87-8.89c-0.6-1.64-0.52-3.36-0.45-5.07c0.04-0.85,0.21-0.92,0.88-0.51c0.24,0.15,0.49,0.29,0.74,0.43
			c0.05,0.03,0.13,0,0.28,0c0.1-1.19-0.41-2.32-0.38-3.49c0.32-0.21,0.47,0.08,0.63,0.23c1.63,1.77,3.35,3.43,5.13,5.01
			c0.74,0.66,1.31,1.48,1.71,2.42c0.33,0.8,0.7,1.57,1.03,2.36c0.67,1.67,1.43,3.3,2.26,4.89c1.04,2.01,1.36,4.2,1.04,6.49
			c-0.14,1.03-0.36,1.21-1.33,1.14c-0.72-0.06-1.43-0.19-2.14-0.28c-0.24,0.31-0.05,0.54,0.05,0.75c0.4,0.93,0.82,1.85,1.22,2.78
			c0.24,0.57,0.31,1.13,0.17,1.77c-0.61,2.85-1.51,5.61-2.23,8.42c-0.15,0.57-0.41,0.76-0.93,0.47c-0.5-0.29-1.05-0.49-1.7-0.77
			c0.03,1.02,0.66,1.64,0.79,2.42c-0.24,0.27-0.4,0.03-0.57-0.06c-0.43-0.24-0.86-0.49-1.3-0.73c-0.76-0.41-0.87-0.34-0.85,0.63
			c0.02,0.75,0.06,1.51,0.1,2.27c0.03,0.56-0.17,0.88-0.7,0.85C50.1,93.99,49.32,94.38,48.52,94.78z M49.27,139.71
			c-0.03-0.21-0.12-0.42,0.02-0.66c0.37,0.13,0.25,0.75,0.76,0.79c-0.42-2.95-1.14-5.81-1.06-8.79c0.08-2.97,0.82-5.76,1.64-8.53
			c0.5-0.05,0.32,0.68,0.76,0.69c1.44-1.34,1.3-3.16,1.07-4.97c0.48-0.02,0.36,0.55,0.85,0.54c0.27-0.06-0.01-0.67,0.35-0.83
			c0.28,0.09,0.29,0.41,0.38,0.63c0.59,1.74,1.17,3.49,1.74,5.25c0.42,1.32,1.07,2.45,1.98,3.43c0.72,0.77,1.39,1.6,2.07,2.41
			c0.76,0.9,1.11,2,1.29,3.19c0.07,0.47-0.05,0.92-0.24,1.32c-0.84,1.75-1.7,3.49-2.56,5.23c-0.02,0.05-0.11,0.07-0.2,0.13
			c-0.15-0.96,0.58-1.77,0.36-3c-0.68,1.11-1.28,2-1.54,3.11c-0.36,1.48-0.48,3-0.72,4.5c-0.06,0.41-0.1,0.83-0.28,1.28
			c-0.68-2.85-1.35-5.62-2.02-8.41c0.36-0.28,0.65,0.35,1.13,0.09c-0.91-1.79-2.43-2.93-3.58-4.4c-0.4,0.24-0.28,0.53-0.27,0.77
			c0.09,1.66,0.5,3.22,1.16,4.71c0.47,1.05,0.58,2.18,0.66,3.33c0.01,0.21,0.06,0.6-0.15,0.58c-1.14-0.12-0.37,0.65-0.3,0.88
			c0.75,2.61,1.68,5.15,2.72,7.64c0.34,0.82,0.59,1.69,0.68,2.64c-0.76-0.45-1.25-1.22-2.12-1.79c0.23,1.05,0.48,1.91,0.86,2.74
			c0.04,0.09,0.18,0.15,0.19,0.25c0.07,0.3,0.48,0.64,0.12,0.9c-0.36,0.26-0.52-0.23-0.7-0.47c-2.04-2.72-3.58-5.69-4.07-9.22
			C49.96,143.66,49.59,141.69,49.27,139.71z M70.82,117.45C70.83,117.45,70.83,117.45,70.82,117.45c0.06,0.04,0.15,0.08,0.16,0.13
			c0,0.01,0,0.03,0,0.04c0.07,0.01,0.15-0.04,0.24-0.09c0.26-0.14,0.47-0.48,0.82-0.23c0.08,0.38-0.24,0.5-0.42,0.69
			c-0.18,0.18-0.4,0.38-0.63,0.21c-0.2-0.14,0-0.38,0-0.57C70.92,117.62,70.87,117.57,70.82,117.45
			C70.82,117.45,70.82,117.45,70.82,117.45c-0.25-0.01-0.34,0.21-0.43,0.41c-1.29,2.65-4.02,2.78-5.85,1.97
			c-0.94-0.42-1.62-1.12-2.28-1.89c-0.52-0.62-0.66-1.4-0.7-2.13c0.28,0.3,0.46,0.77,0.68,1.21c1.23,2.45,4.71,3.23,6.51,1.98
			c1.23-0.85,1.79-2.16,2.03-3.67c0.08-0.47,0.03-0.98,0.32-1.42c0.43,0.73,0.45,1.83,0.1,2.67
			C71.09,116.86,70.75,117.05,70.82,117.45z M77.37,117.21c1.23-0.86,2.41-1.79,3.64-2.65c1.71-1.19,3.62-1.85,5.57-2.45
			c0.11,0.55-0.45,0.54-0.43,0.93c0.19,0.33,0.5,0.05,0.74,0.13c0.19-0.16,0.44-0.18,0.56,0c0.12,0.18-0.14,0.29-0.23,0.43
			c-0.06,0.09-0.07,0.2-0.1,0.31c0.48-0.01,0.96-0.02,1.45-0.04c0.24-0.07,0.64-0.21,0.67,0.1c0.03,0.33-0.36,0.36-0.64,0.29
			c-0.58,0.28-1.19,0.43-1.81,0.53c-1.01,0.15-1.86,0.65-2.58,1.39c-1.6,1.64-3.41,3-5.24,4.31c-1.43,1.03-2.76,2.17-4,3.46
			c-0.66,0.67-1.32,1.36-2.05,1.92c-1.77,1.34-2.9,3.25-3.98,5.2c-0.27,0.48-0.55,0.97-0.82,1.45c0,0.46-0.35,0.67-0.51,1.09
			c-0.27-0.37-0.04-0.65-0.07-0.91c-0.02-0.21-0.14-0.21-0.28-0.21c-0.07,0.12-0.14,0.34-0.22,0.35c-0.19,0.02-0.17-0.18-0.15-0.33
			c0.16-1.59,0.38-3.15,1.02-4.62c0.64-1.48,1.22-2.97,1.72-4.52c0.3-0.91,0.94-1.49,1.65-1.98
			C73.3,119.98,75.35,118.62,77.37,117.21z M72.05,109.46c1.7,1.32,2.2,4.55,0.87,6.16C72.95,113.42,72.24,111.54,72.05,109.46z
			 M108.57,121.12c0.64,0.38,1.3,0.73,1.93,1.13c2.08,1.33,2.95,3.54,3.53,5.95c0.54,2.31,1.05,4.64,1.39,7.01
			c0.19,1.31,0.12,2.64-0.01,3.96c-0.47-0.84-0.63-1.77-0.86-2.67c-0.5-1.98-1.18-3.89-1.78-5.84c-0.5-1.62-1.53-2.8-2.6-3.94
			c-2.04-2.18-4.08-4.36-6.25-6.38c-1.5-1.41-3.24-2.48-4.93-3.62c-0.5-0.34-1.02-0.65-1.52-0.97c-0.09-0.06-0.25-0.13-0.25-0.19
			c0-1.04-0.93-1.17-1.4-1.73c-0.05-0.05-0.04-0.14-0.07-0.22c0.52-0.18,0.97,0.1,1.39,0.31c3.73,1.86,7.45,3.75,11.17,5.63
			c0.12,0.06,0.22,0.17,0.32,0.25c-0.1,0.57-0.72,0.27-0.88,0.73C107.91,120.91,108.28,120.95,108.57,121.12z M112.3,112.04
			c-0.21,1.46-0.15,2.86-0.29,4.48C110.61,114.81,110.77,112.81,112.3,112.04z M118.4,119.56c1.48,0.09,2.43-0.67,2.96-2.21
			c0.27,0.63,0.12,1.18-0.1,1.7c-0.42,0.96-1.16,1.48-2.11,1.62c-1.36,0.2-2.54-0.17-3.45-1.35c-0.41-0.54-0.72-1.11-0.71-1.82
			c-0.07-0.18-0.11-0.38,0.12-0.39c0.2-0.01,0.24,0.18,0.2,0.38C116,118.75,117.01,119.48,118.4,119.56z M117.04,114.62
			c0.2-0.15,0.42-0.23,0.67-0.27c0.66-0.08,1.33,0.39,1.32,0.93c0,0.48-0.63,0.98-1.32,0.97c-0.15-0.05-0.39-0.09-0.6-0.2
			C116.52,115.71,116.49,115.04,117.04,114.62z M120.41,112.26c-0.97-0.18-1.93-0.09-2.9-0.1c-0.97-0.02-1.79,0.65-2.82,0.83
			c1.83-2.22,6.38-2.21,8.4,0.44C122.06,113.19,121.34,112.44,120.41,112.26z M117.6,122.15c0.96,0.16,1.98,0.2,2.95-0.27
			c1.18-0.57,1.98-1.46,2.36-2.92c0.19,1.1-0.11,1.99-0.96,2.67c-1.87,1.51-4.02,1.81-5.98,0.59c-1.46-0.92-2.05-2.41-2.34-4.31
			c0.57,0.43,0.61,0.95,0.76,1.4C114.94,120.97,116.07,121.89,117.6,122.15z M124.39,117.52c0.02-0.15,0.14-0.28,0.28-0.27
			c0.22,0.03,0.26,0.24,0.24,0.43c-0.17,1.7-0.57,3.26-2.16,4.22c-0.02-0.21-0.04-0.25-0.03-0.27
			C123.57,120.4,124.2,119.07,124.39,117.52z M112.29,166.69c0.99-0.01,1.96-0.27,3.11-0.45c-0.63,0.69-1.3,0.8-1.92,0.89
			c-3.57,0.52-6.72-0.34-9.35-3.23c-1.38-1.51-2.32-3.3-3.26-5.1c-0.77-1.49-1.54-2.98-2.3-4.48c-0.81-1.59-2.02-2.77-3.3-3.9
			c-0.97-0.85-1.9-1.78-2.73-2.81c-1.1-1.36-1.81-2.87-1.61-4.76c-0.43,0.05-0.43,0.41-0.53,0.67c-0.79,2.08-2.08,3.65-3.86,4.77
			c-3.7,2.33-6.61,5.64-9.38,9.12c-1.59,1.99-3.3,3.83-5.57,4.85c-2.5,1.11-5,1.15-7.44-0.27c-0.65-0.2-1.11-0.66-1.6-1.33
			c0.76,0.04,1.18,0.51,1.62,0.91c1.91,0.83,3.87,0.97,5.82,0.31c2.15-0.73,3.86-2.13,5.31-4.02c0.91-1.18,2-2.21,2.87-3.44
			c1.63-2.32,3.79-3.96,5.87-5.72c1.27-1.06,2.6-2.03,3.73-3.29c1.26-1.4,2.08-3.02,2.47-4.92c0.11-0.55,0.15-1.13,0.52-1.58
			c0.23,0.14,0.29,0.38,0.28,0.59c-0.04,1.12,0.4,2.04,0.85,3c0.34,0.7,0.56,1.48,0.75,2.25c0.19,0.8,0.57,1.46,1.07,2.06
			c1.42,1.68,2.83,3.35,4.26,5.01c0.72,0.84,1.32,1.76,1.86,2.75c1.32,2.46,2.54,4.98,4.06,7.31c0.59,0.92,1.33,1.53,2.26,1.91
			c2.47,1.01,5,1.61,7.65,1.45c0.58-0.04,1.13-0.29,1.72-0.19c-1,0.71-2.07,1.12-3.26,1.14
			C112.12,166.36,112.12,166.52,112.29,166.69z M115.42,168.14c-2.27,2.44-7.09,3.68-9.12,2.31
			C109.4,169.54,112.22,168.04,115.42,168.14z M84.63,157.83c-0.3-0.45,0.04-1.09-0.26-1.6c-0.52,0.07-0.46,0.81-0.99,1.02
			c-0.06-1.82,0-3.56,1.32-4.82c1.34-1.29,2.47-2.77,3.66-4.22c0.21-0.25,0.41-0.52,0.64-0.75c0.59-0.59,0.86-0.64,1.59-0.2
			c1.17,0.7,2.13,1.7,3.01,2.78c0.9,1.11,1.75,2.27,2.68,3.35c0.96,1.12,0.88,2.41,0.63,3.74c-0.07,0.38-0.3,0.5-0.61,0.26
			c-0.42-0.33-0.84-0.68-1.25-1.03c-0.2-0.16-0.38-0.34-0.59-0.46c-0.35-0.2-0.58-0.09-0.7,0.35c-0.12,0.48-0.14,0.97-0.18,1.47
			c-0.02,0.22-0.01,0.45-0.04,0.67c-0.02,0.19-0.09,0.38-0.29,0.43c-0.22,0.06-0.31-0.13-0.38-0.3c-0.15-0.38-0.26-0.78-0.41-1.17
			c-0.08-0.19-0.08-0.46-0.42-0.56c-0.14,0.59-0.09,1.12-0.11,1.65c-0.03,0.85-0.74,1.81-1.46,2c-0.5,0.14-0.44-0.5-0.76-0.64
			c-0.14-0.02-0.25,0.07-0.31,0.21c-0.2,0.44-0.46,0.49-0.84,0.22c-0.78-0.56-1.59-1.09-2.38-1.63c-0.47-0.32-0.81-0.73-0.62-1.45
			C85.06,157.21,85.06,157.79,84.63,157.83z M83.03,136.36c-0.1-0.04-0.2-0.07-0.29-0.11c-0.87-0.39-0.93-0.49-0.54-1.41
			c0.44-1.03,0.89-2.06,1.23-3.14c0.33-1.04,0.16-1.28-0.86-1.32c-0.04,0-0.08,0.01-0.11,0c-0.28-0.05-0.75,0.22-0.79-0.23
			c-0.04-0.44,0.38-0.69,0.76-0.81c0.38-0.11,0.74-0.02,1.1,0.19c0.85,0.52,1.41,1.33,1.97,2.16c0.8,1.16,1.61,2.3,2.76,3.08
			c0.38,0.26,0.78,0.49,1.17,0.73c0.9,0.57,1.08,1.03,0.84,2.15c-0.57,2.55-1.56,4.88-2.93,7c-0.62,0.96-1.37,1.8-2.46,2.16
			c-0.05-0.09-0.12-0.17-0.11-0.21c0.47-1.33,1.23-2.5,1.77-3.8c0.02-0.07,0.1-0.1,0.16-0.15c-0.21-0.14-0.43-0.16-0.66-0.05
			c-0.39,0.46-0.78,0.92-1.17,1.38c0,0.22-0.13,0.33-0.3,0.28c-0.15-0.03-0.19-0.17-0.05-0.3c0.35-0.91,0.71-1.81,1.05-2.72
			c0.11-0.32,0.18-0.66,0.27-0.98c0.05-0.21,0.13-0.47-0.11-0.6c-0.18-0.11-0.32,0.05-0.46,0.17c-0.48,0.43-1.02,0.75-1.79,1.01
			c0.31-0.84,0.65-1.43,1.18-1.89c-0.14-0.15-0.3-0.21-0.48-0.21c-1.06,0.65-2.04,1.42-2.93,2.32c-0.76,0.78-1.59,1.47-2.56,1.92
			c-0.32,0.15-0.63,0.33-1.07,0.19c0.16-0.66,0.63-1.04,1.06-1.43c0.89-0.79,1.8-1.55,2.71-2.32c0.71-0.61,1.42-1.23,1.97-2.02
			C83.75,136.81,83.68,136.63,83.03,136.36z M108.78,136.21c-1.05-0.45-1.85-1.29-2.62-2.13c-1.01-1.11-1.81-2.39-2.48-3.77
			c-0.56-1.18-1.2-2.31-2.26-3.06c-0.12-0.08-0.19-0.22-0.18-0.45c0.92-0.4,1.74-0.04,2.5,0.49c0.65,0.45,1.2,1.04,1.64,1.73
			c1.21,1.9,2.27,3.9,3.21,5.98C108.75,135.33,109.07,135.69,108.78,136.21z M112,162.11c0.51,0.16,1.05,0.27,1.73,0.69
			c-1.82,0.53-3.4,0.5-4.98-0.07c-1.92-0.69-3.2-2.21-4.31-3.95c-1.19-1.88-2.05-3.96-3.11-5.92c-0.28-0.51-0.7-0.94-0.85-1.8
			c1.27,0.57,2.13,1.41,2.91,2.39c1.14,1.44,2.18,2.95,3.19,4.5C107.93,160.05,109.74,161.41,112,162.11z M101.68,129.75
			c-0.37,0.53-0.79,0.76-1.19,1.03c-0.43,0.28-0.53,0.66-0.43,1.16c0.18,0.86,0.52,1.65,0.86,2.44c0.15,0.33,0.42,0.48,0.74,0.58
			c0.36,0.12,0.71,0.25,1.05,0.75c-0.67,0.09-1.21,0.17-1.75,0.24c-0.41,0.05-0.83,0.09-1.24,0.16c-0.81,0.15-0.93,0.44-0.5,1.23
			c0.15,0.3,0.35,0.57,0.55,0.83c0.32,0.4,0.66,0.79,0.98,1.18c0.25,0.09,0.38,0.28,0.23,0.54c-0.05,0.09-0.24,0.06-0.28-0.13
			c-0.35-0.12-0.76-0.11-0.96-0.56c-0.11,0.19-0.22,0.37-0.33,0.55c0.5,0.43,0.54,1.22,1.05,1.64c0.07,0.05,0.08,0.19,0,0.3
			c-0.08,0.12-0.19,0.08-0.28,0.04c-0.48-0.17-0.79-0.69-1.35-0.85c-0.13,0.7,0.37,1.24,0.33,1.96c-0.85-0.48-1.08-1.62-2.08-2.08
			c0.31,2.06,1.24,3.59,2.39,5.01c0.2,0.08,0.43,0.27,0.28,0.47c-0.18,0.27-0.42,0.11-0.58-0.14c-0.19-0.12-0.37-0.23-0.55-0.35
			c-0.25,0.07-0.37,0.24-0.34,0.53c0.69,0.66,0.91,1.61,1.25,2.61c-0.55-0.01-0.95-0.24-1.3-0.61c-0.73-0.75-1.37-1.6-2.25-2.18
			c-0.35-0.24-0.59-0.66-0.77-1.06c-1.12-2.47-1.88-5.06-2.11-7.82c-0.08-0.96,0.19-1.39,1.06-1.66c0.47-0.15,0.78-0.47,1.09-0.83
			c0.76-0.89,1.52-1.78,2.23-2.71c0.52-0.69,1.17-1.2,1.79-1.74C99.93,129.68,100.72,129.5,101.68,129.75z M97.95,128.64
			c-0.54,0.44-1.06,0.69-1.72,0.27c-0.63-0.39-0.75-0.65-0.38-1.36c0.29-0.58,0.52-1.16,0.46-1.84c-0.02-0.22-0.05-0.45-0.11-0.66
			c-0.08-0.26-0.25-0.34-0.49-0.25c-0.66,0.25-1.15,0.71-1.44,1.39c-0.39,0.9-0.67,1.84-0.69,2.84c-0.02,0.99-0.07,1.98-0.01,2.97
			c0.05,0.89-0.27,1.51-0.96,2.19c-0.19-0.97-0.13-1.77-0.1-2.56c0.03-1.19-0.09-2.35-0.28-3.51c-0.06-0.35-0.08-0.92-0.45-0.92
			c-0.5,0-0.41,0.61-0.45,0.98c-0.17,1.4-0.09,2.81-0.11,4.22c-0.01,0.55-0.08,1.05-0.44,1.47c-0.24,0.28-0.44,0.63-0.86,0.42
			c-0.42-0.21-0.66-0.55-0.56-1.09c0.13-0.71,0.26-1.41,0.39-2.12c0.35-1.88-0.02-3.71-0.37-5.52c-0.12-0.62-0.53-1.14-1.04-1.52
			c-0.11-0.09-0.25-0.13-0.38-0.03c-0.12,0.09-0.16,0.24-0.11,0.39c0.14,0.47,0.31,0.93,0.45,1.4c0.41,1.42-0.74,2.84-2.09,2.64
			c-0.45-0.07-0.68-0.33-0.8-0.78c-0.27-0.99-0.39-2-0.31-3.03c0.05-0.57,0.32-1,0.75-1.3c0.79-0.57,1.66-0.95,2.55-1.26
			c0.6-0.2,1.16-0.06,1.63,0.44c0.47,0.5,0.97,0.98,1.47,1.46c0.37,0.35,0.74,0.47,1.24,0.27c0.94-0.39,1.91-0.68,2.83-1.13
			c1.3-0.64,1.68-0.48,2.33,0.86c0.44,0.91,0.78,1.86,0.95,2.88C98.97,127.71,98.51,128.19,97.95,128.64z M81.2,126.3
			c-1.29,1.22-2.36,2.67-3.59,3.96c-0.83,0.86-1.58,1.23-2.71,1.37c-0.05-0.1-0.08-0.14-0.07-0.16c0.97-2.25,2.09-4.36,4.24-5.52
			c0.6-0.32,1.24-0.5,1.92-0.33C81.42,125.71,81.51,126,81.2,126.3z M78.72,150.26c0.24-0.26,0.42-0.62,0.8-0.66
			c0.12,0.21,0.08,0.4,0.02,0.58c-1.13,3.74-3.2,6.51-6.74,7.72c-2.05,0.7-4.81-0.22-6.15-2.04c-0.12-0.18-0.28-0.34-0.17-0.66
			c0.65,0.06,1.23,0.42,1.86,0.6c2.42,0.7,4.51-0.17,6.47-1.63C76.28,153.08,77.44,151.6,78.72,150.26z M96.86,117.45
			c3.68,1.51,6.53,4.27,9.17,7.35c1.59,1.87,3.04,3.86,4.48,5.85c1.29,1.78,2.04,3.79,2.16,6.07c0.01,0.11-0.01,0.22-0.02,0.34
			c0,0.02-0.05,0.03-0.11,0.08c-0.39-0.57-0.61-1.24-0.89-1.88c-0.46-1.04-1.04-1.95-1.77-2.8c-2.54-2.93-5.14-5.78-7.79-8.59
			c-1.57-1.67-3.3-3.12-5.2-4.35c-0.99-0.64-2.08-0.85-3.16-1.11c-1.25-0.29-2.53-0.51-3.78-0.82c-1.26-0.31-2.38-0.09-3.5,0.63
			c-1.84,1.18-3.47,2.67-5.18,4.03c-1.49,1.19-2.99,2.37-4.39,3.68c-2.43,2.29-4.64,4.81-6.22,7.92c-0.45,0.88-0.99,1.7-1.49,2.55
			c0.02,0.54-0.37,0.76-0.63,1.11c-0.11-0.44-0.09-0.81,0.19-1.11c0.84-3.28,2.05-6.33,3.99-9.05c1.93-2.7,4.35-4.77,6.88-6.71
			c1.42-1.08,2.83-2.19,4.32-3.19c1.55-1.04,3.27-1.59,5.1-1.79c1.9-0.21,3.73-0.12,5.49,0.84
			C95.25,116.92,96.08,117.13,96.86,117.45z M62.84,113.78c0.31,0.33,0.33,0.75,0.41,1.14c0.2,0.93,0.72,1.51,1.54,1.84
			c1.51,0.61,3.11,0.04,4.02-1.43c0.13-0.2,0.12-0.54,0.49-0.61c0.09,1.4-0.53,2.32-1.57,2.92c-1.39,0.79-2.78,0.69-4.05-0.28
			C62.54,116.47,62.48,115.16,62.84,113.78z M69.77,112.85c-0.28,0.38-0.68,0.48-1.11,0.55c-0.34-0.06-0.68-0.13-0.92-0.45
			c-0.26-0.34-0.26-0.68,0.01-1.01c0.47-0.6,1.61-0.55,2.03,0.09C69.97,112.3,69.97,112.58,69.77,112.85z M69.59,108.99
			c0,0,0-0.01-0.01-0.01c-0.33,0.06-0.57-0.18-0.84-0.33c-1.23-0.73-2.49-1.17-3.84-0.3c-0.21,0.13-0.46,0.18-0.69,0.26
			c-1.09,0.39-2.17,0.8-2.84,2.09c-0.25-0.9,0.46-1.23,0.6-1.81c-0.45-0.28-0.68,0.36-1.06,0.25c0-0.07-0.03-0.16,0-0.19
			c1.83-2.38,6.7-2.36,8.4-0.39c0.11,0.12,0.19,0.29,0.29,0.44c0.01,0,0.01,0,0.02,0l0.02,0.08L69.59,108.99z M62.58,119.78
			c-0.71-0.02-1.2-0.48-1.5-1.02c-0.85-1.56-1.2-3.28-1.13-5.1c0-0.09,0.03-0.23,0.28-0.22C60.86,115.58,60.71,118.12,62.58,119.78z
			 M60.6,123.55c0.26,0.38,0.49,0.88,1.05,0.38c0.17-0.15,0.4,0,0.59,0.09c0.46,0.19,0.92,0.36,1.36,0.57
			c0.93,0.44,1.82,0.45,2.69-0.15c0.17-0.12,0.38-0.19,0.57-0.28c0.24,0.34,0.01,0.6-0.09,0.85c-0.55,1.27-1.1,2.55-1.67,3.8
			c-0.42,0.93-0.76,1.89-0.88,2.91c-0.25,2.15-0.45,4.3-1.17,6.27c0.31,0.41,0.43-0.19,0.65,0c0.2,0.17,0.1,0.42,0.09,0.64
			c-0.18,1.93-0.37,3.83-1.19,5.62c-0.75,1.62-1.32,3.34-2.1,4.96c-0.16,0.32-0.28,0.67-0.76,1c0.19-2.64,0.32-5.07,1.12-7.37
			c0.13-0.38,0.36-0.78-0.15-1.07c-0.19-0.1-0.11-0.32-0.04-0.5c0.17-0.46,0.39-0.91,0.49-1.38c0.08-0.42,0.73-0.92-0.07-1.31
			c-0.09-0.04,0.01-0.28,0.1-0.39c1.22-1.46,1.33-3.3,1.44-5.12c0.05-0.77-0.12-1.49-0.49-2.17c-0.52-0.95-1.06-1.87-1.7-2.74
			c-0.37-0.5-0.71-1.03-0.91-1.65c-0.1-0.33-0.37-0.64,0.04-1c0.23-0.2-0.03-0.48-0.14-0.71c-0.46-1.02-1.06-1.97-1.23-3.12
			c-0.08-0.52-0.15-1.04-0.21-1.56c0.41-0.11,0.47,0.21,0.6,0.4C59.25,121.52,59.92,122.54,60.6,123.55z M57.41,158.63
			c-0.13,0.13-0.2-0.08-0.28-0.18c-0.88-0.56-1.41-1.5-2.04-2.33c-0.16-0.2-0.36-0.43-0.11-0.66c0.26-0.25,0.39,0.02,0.54,0.24
			c0.58,0.88,1.4,1.57,1.77,2.62C57.42,158.38,57.52,158.52,57.41,158.63z M54.01,159.71c0.03,0.05,0.06,0.1,0.08,0.15
			c-0.03,0.03-0.05,0.06-0.08,0.08c-0.02-0.05-0.05-0.1-0.06-0.15C53.95,159.76,54,159.73,54.01,159.71z M65.66,173.91
			c-0.33,0.68-0.56,1.43-1.26,2.19c-0.02-1.11-0.03-1.99-0.05-2.87c-0.02-1.24-0.39-1.86-1.3-2.21c-0.62-0.23-0.98,0-0.8,0.64
			c0.49,1.73-0.31,3.02-1.08,4.33c-0.38,0.64-0.84,1.21-1.28,1.79c-0.16,0.21-0.4,0.35-0.65,0.19c-0.21-0.14-0.14-0.41-0.11-0.62
			c0.18-1.2,0.34-2.4,0.55-3.59c0.21-1.27-0.08-2.42-0.7-3.47c-0.54-0.89-0.98-1.8-1.28-2.83c-0.32-1.09-0.93-2.03-1.9-2.8
			c-0.55,1.18-0.62,2.48-0.98,3.68c0.12,0.33,0,0.58-0.28,0.87c-0.13-0.3-0.21-0.54-0.03-0.82c-0.04-1.89-0.1-3.79-0.11-5.69
			c0-0.73-0.05-1.43-0.3-2.12c-0.08-0.19-0.21-0.43,0.06-0.58c0.19-0.12,0.32,0.05,0.44,0.17c0.51,0.52,1.03,1.02,1.53,1.56
			c1.49,1.59,3.08,3.04,4.75,4.42c1.72,1.42,3.19,3.14,4.5,5.02C65.98,172.02,66.16,172.89,65.66,173.91z M67.24,167.4
			c-2.09-0.1-4.02-0.75-5.8-1.98c-2.7-1.85-4.67-4.43-6.24-7.41c-0.05,0-0.08-0.03-0.09-0.08c-0.19-0.12-0.31-0.32-0.1-0.49
			c0.14-0.11,0.29,0.03,0.34,0.23c0.07,0.02,0.09,0.07,0.09,0.14c1.81,1.44,3.36,3.22,5.1,4.76c2.34,2.07,4.97,3.41,7.89,4.14
			c0.31,0.08,0.71,0.01,0.95,0.46C68.68,167.48,67.95,167.43,67.24,167.4z M73.42,178.07c-1.32,0.05-2.63,0.16-3.95,0.06
			c-0.32-0.02-0.66-0.05-0.71-0.5c-0.15-1.21-0.29-2.44-0.44-3.76c0.45,0.16,0.56,0.5,0.75,0.75c0.28,0.38,0.53,0.8,0.83,1.17
			c0.35,0.43,0.56,0.41,0.74-0.12c0.38-1.14,0.72-2.3,0.54-3.54c-0.04-0.29-0.12-0.58,0.05-1.15c1.45,1.99,2.53,3.93,2.82,6.3
			C74.1,177.82,73.89,178.05,73.42,178.07z M77.76,178.17c-0.19,0-0.31-0.2-0.33-0.39c-0.09-0.77-0.26-1.55-0.09-2.36
			c0.17,0.04,0.29,0.03,0.35,0.09c0.91,0.91,1.92,1.69,3.21,2.49C79.67,178.34,78.71,178.19,77.76,178.17z M94.04,178.17
			c-1.53,0.01-3.07-0.06-4.59,0.06c-2.49,0.18-4.74-0.59-6.93-1.76c-0.81-0.44-1.59-0.94-2.34-1.49c-0.9-0.65-1.79-1.31-2.74-1.87
			c-1.22-0.72-2.29-1.69-2.82-3.22c0.9,0.41,1.65,1.08,2.54,1.51c2.26,1.08,4.65,1.54,7.04,2.06c1.43,0.31,2.88,0.52,4.27,0.98
			c0.04,0.38-0.22,0.34-0.41,0.38c-1.06,0.17-2.15,0.2-3.22,0.2c-0.37,0-0.75-0.07-1.15,0.08c0.85,0.92,4.37,1.7,7.36,1.79
			c2.66,0.08,5.2-0.34,7.53-1.91c-2.05,0.21-4.07,0.34-6.22-0.2c0.29-0.34,0.57-0.39,0.85-0.46c1.94-0.47,3.87-0.9,5.8-1.42
			c1.87-0.5,3.84-0.76,5.32-2.32c0.29,0.31,0.14,0.55,0.02,0.77c-0.45,0.84-1.08,1.5-1.84,1.97c-0.54,0.34-1.11,0.66-1.69,0.9
			c-0.54,0.22-0.98,0.57-1.38,0.99c-1.32,1.37-2.9,2.21-4.58,2.86C94.58,178.17,94.31,178.17,94.04,178.17z M104.05,177.74
			c-0.2,0.28-0.47,0.44-0.81,0.45c-1.56,0.02-3.12,0.08-4.69-0.05c-0.13-0.01-0.25-0.09-0.47-0.18c0.33-0.85,0.85-1.33,1.55-1.55
			c1.8-0.57,3.6-1.12,5.41-1.67c0.16-0.05,0.34-0.16,0.48,0c0.19,0.21,0.05,0.44-0.04,0.62C105.08,176.22,104.59,177,104.05,177.74z
			 M114.26,174.77c-0.57,1.04-1.29,1.98-1.94,2.96c-0.19,0.28-0.39,0.51-0.76,0.51c-1.95,0-3.89,0.02-5.84-0.1
			c-0.05,0-0.1-0.09-0.15-0.12c-0.04-0.12-0.02-0.22,0.05-0.31c1.13-1.28,1.78-2.88,2.43-4.48c0.28-0.7,0.28-0.69,1.01-0.47
			c0.5,0.15,1.01,0.28,1.51,0.38c0.93,0.18,1.79,0,2.57-0.62c0.53-0.43,1.06-0.85,1.54-1.36c0.24-0.26,0.47-0.55,1.03-0.81
			C115.36,172.02,114.97,173.47,114.26,174.77z M118.93,144.56c-0.28-0.3-0.48-0.65-0.6-1.05c-0.42-1.41-0.85-2.81-1.29-4.21
			c-0.33-1.07-0.26-2.18-0.33-3.28c-0.09-1.37-0.23-2.73-0.61-4.04c-0.1-0.36-0.16-0.74-0.09-1.15c0.36-0.11,0.47,0.41,0.84,0.37
			c0.01-0.94-0.82-1.54-0.89-2.58c1.37,0.09,2.63,1.1,4.06,0.56c-0.23-0.63-0.95-0.57-1.13-1.16c0.21-0.34,0.54-0.35,0.83-0.46
			c0.66-0.26,1.32-0.47,1.97-0.76c0.64-0.29,1.42-0.43,1.49-1.44c1.04-1.31,1.73-2.84,2.47-4.35c0.03-0.06,0.11-0.08,0.31-0.22
			c0.04,1.27,0.16,2.47-0.1,3.63c-0.28,1.21-1.3,1.93-1.86,2.96c0.26,0.33,0.56,0.01,0.83,0.18c-0.02,0.09-0.02,0.21-0.07,0.29
			c-1.29,1.98-2.56,3.98-4.16,5.69c-0.77,0.81-1.12,1.8-1.41,2.87c-0.16,0.6,0.04,1.13,0.24,1.65c0.3,0.79,0.62,1.58,0.99,2.5
			c-0.53-0.11-0.63-0.58-1.12-0.5c0.03,2.71,1.95,4.4,2.96,6.53c-0.09,0.15-0.18,0.21-0.28,0.16
			C120.85,146.17,119.8,145.51,118.93,144.56z M121.36,163.74c0.07-0.69,0.32-1.04,0.65-1.33c0.75-1.41,1.48-2.83,2.22-4.24
			c0.62-1.18,0.99-2.43,0.89-3.81c-0.08-1.05,0.19-1.99,0.66-2.92c1.13-2.2,1.76-4.62,2.44-7.02c0.03-0.1,0-0.23,0-0.43
			c-0.76,0.58-1.03,1.56-1.73,2.19c-0.18-1.04,0.33-1.92,0.26-2.89c-0.32,0.16-0.38,0.5-0.55,0.77c-0.46,0.76-0.77,0.75-1.17-0.07
			c-0.29-0.61-0.53-1.25-0.63-1.93c-0.19-1.29-0.64-2.32-1.83-2.81c-0.04-0.01-0.06-0.12-0.12-0.28c0.63-0.12,1.24-0.25,2.01-0.4
			c-0.62-0.48-1.22-0.52-1.74-0.78c-0.78-0.38-0.85-0.54-0.44-1.35c1.31-2.59,2.51-5.26,3.59-7.98c0.77-1.94,1.13-4.06,1.58-6.13
			c0.24-1.07,0.39-2.17,0.65-3.23c0.38-1.61,0.29-3.24,0.27-4.87c-0.01-0.92-0.29-1.71-0.81-2.41c-0.4-0.55-0.71-1.18-1.31-1.71
			c-0.22,0.74,0.32,1.2,0.2,1.76c-0.33,0.27-0.38-0.37-0.71-0.23c-0.11,0.55,0.3,1.06,0.14,1.79c-1.44-2.01-2.94-3.81-5.28-4.32
			c-0.5,0.05-1-0.02-1.54-0.17c0.27-0.58,0.71-0.48,1.13-0.46c0.23-0.14,0.57,0.02,0.77-0.36c-0.61-0.55-1.35-0.71-2.08-0.89
			c-0.74-0.17-1.49,0.04-2.23,0c1.83-1.42,3.8-1.18,5.84-0.57c-0.94-1.61-2.32-2.46-3.89-3.01c-1.61-0.56-3.22-0.33-4.9,0.16
			c0.07-0.62,0.46-0.85,0.68-1.2c0.29-0.45,0.24-0.66-0.22-0.66c-1.59,0.03-3.04,0.38-3.97,2.01c-0.85,1.49-1.71,2.96-2.55,4.45
			c-0.33,0.59-0.53,1.24-0.73,1.89c-0.09,0.28-0.17,0.58-0.31,0.85c-0.28,0.58-0.62,0.64-1.07,0.17c-0.4-0.43-0.69-0.95-0.98-1.47
			c-0.18-0.31-0.26-0.7-0.68-0.97c-0.13,0.79,0.34,1.49,0.14,2.23c-0.65-0.02-0.9-0.84-1.71-0.86c0.41,0.7,0.75,1.29,1.09,1.87
			c0.11,0.19,0.28,0.38,0.13,0.61c-0.11,0.15-0.32,0.13-0.49,0.11c-1.55-0.19-3.11-0.35-4.58-1c-1.51-0.66-2.48-1.9-3.29-3.36
			c-0.26-0.47-0.32-0.99-0.28-1.54c0.13-1.46,0.41-2.86,1.24-4.06c0.25-0.35,0.37-0.8,0.86-1.23c0,0.85-0.1,1.51-0.18,2.19
			c-0.08,0.68-0.12,1.36-0.04,2.2c1.27-0.44,1.34-1.99,2.27-2.73c0.37,0.5,0.07,1.16,0.37,1.63c0.32-0.12,0.36-0.4,0.41-0.64
			c0.1-0.67,0.21-1.35,0.33-2.01c0.35-1.91-0.54-3.12-1.79-4.15c-0.77-0.63-1.48-0.45-2.02,0.47c-0.36,0.61-0.66,1.26-1.01,1.87
			c-0.27,0.48-0.55,0.98-0.88,1.41c-0.37,0.47-0.54,0.45-0.93,0c-0.08-0.08-0.14-0.18-0.2-0.26c-1.35-1.79-1.35-2.17-0.13-4.09
			c0.92-1.46,2.07-2.55,3.68-2.98c0.4-0.1,0.77-0.35,1.16-0.48c1.05-0.35,1.49-1.2,1.58-2.3c0.08-0.87,0.3-1.72,0.23-2.77
			c-0.95,0.5-1.41,1.51-2.36,2.17c-0.06-1.89-0.52-3.47-1.38-4.95c-0.6,0.54-0.5,1.4-1.01,1.95c-0.42-0.2-0.41-0.66-0.58-1
			c-0.2-0.45-0.46-0.52-0.82-0.19c-0.36,0.33-0.66,0.76-1.19,0.87c-0.32-0.5,0.03-1.09-0.3-1.61c-0.49,0.23-0.81,0.68-1.2,1.04
			c-0.58,0.55-1.1,1.17-1.95,1.19c-0.41,0.02-0.69,0.34-0.91,0.7c-0.74,1.2-1.46,2.41-2.05,3.71c-0.65,1.44-0.08,2.76,1.23,2.94
			c0.65,0.09,0.81-0.07,0.8-0.77c0-0.34-0.12-0.67,0.1-1.08c0.52,0.33,0.84,0.87,1.23,1.32c0.37,0.44,0.53,0.41,0.71-0.13
			c0.09-0.24,0.03-0.54,0.25-0.72c0.61,0.57,1.04,1.77,0.94,2.79c-0.09,0.83-0.25,1.65-0.39,2.47c-0.14,0.79-0.21,1.58-0.09,2.39
			c0.1,0.73,0.1,0.73,0.85,0.36c0.24,0.92,0.49,1.82,0.73,2.73c0.08,0.32-0.04,0.61-0.13,0.89c-0.22,0.64-0.47,1.27-0.66,1.92
			c-0.17,0.57-0.53,0.87-1.02,1.04c-1.3,0.43-2.6,0.87-3.96,1.01c-0.68,0.07-1.28,0.3-1.89,0.6c-0.98,0.48-1.98,0.92-3.1,0.91
			c-0.87-0.01-1.04-0.33-0.67-1.21c0.14-0.35,0.42-0.62,0.47-1.01c-0.36-0.35-0.73,0.12-1.16-0.04c0.2-1.04,0.97-1.79,1.25-2.83
			c-0.37-0.28-0.7-0.06-1.01,0c-0.55,0.11-1.1,0.26-1.66,0.16c-0.63-0.11-0.91-0.42-1.01-1.11c-0.06-0.45-0.06-0.91,0.02-1.37
			c0.15-0.95-0.05-1.78-0.65-2.53c-0.54-0.67-1-1.41-1.62-2.3c-0.13,1.2,0.4,2.05,0.33,3.01c-0.4,0.13-0.54-0.24-0.74-0.45
			c-1.17-1.24-2.29-2.55-3.69-3.51c-0.36-0.25-0.76-0.83-1.15-0.44c-0.31,0.3,0.16,0.81,0.3,1.22c0.17,0.46,0.34,0.91,0.46,1.39
			c0.07,0.32,0.05,0.6-0.05,0.89c-0.15,0.4-0.38,0.54-0.72,0.23c-0.31-0.3-0.61-0.62-0.91-0.94c-0.12-0.13-0.25-0.27-0.44-0.22
			c0.18,1.42,0.12,1.6-1.31,1.88c-2.03,0.4-3.8,1.4-5.6,2.39c-0.35,0.19-0.81,0.71-1.11,0.3c-0.35-0.47,0.23-0.84,0.5-1.19
			c1.03-1.35,2.19-2.55,3.31-3.8c0.24-0.27,0.57-0.47,0.64-0.88c-0.41-0.24-0.79,0-1.16,0.12c-4.62,1.54-7.7,4.83-9.3,9.79
			c-0.1,0.31-0.12,0.67-0.46,0.98c-0.49-1.67-0.58-3.4-1.03-5.01c-0.46,0-0.52,0.35-0.61,0.61c-0.36,1.12-0.55,2.28-0.56,3.47
			c0,0.44,0.06,0.89-0.11,1.49c-0.88-1.7-1.7-3.25-1.14-5.2c0.31-1.09,0.31-2.25,0.43-3.38c0.26-2.42,1.15-4.52,2.43-6.47
			c1.52-2.33,3.31-4.4,5.19-6.39c2.83-2.97,5.8-5.8,8.52-8.91c0.73-0.82,1.51-1.57,2.32-2.3c1.34-1.23,2.83-1.17,4.33-0.56
			c0.62,0.25,1.17,0.32,1.8,0.17c0.95-0.23,1.89-0.5,2.89-0.41c1.42,0.14,1.76,0.47,1.8,2.02c0.01,0.56,0.21,0.68,0.64,0.5
			c0.33-0.14,0.67-0.18,1.02-0.2c0.9-0.07,1.53,0.36,1.97,1.2c0.48,0.92,0.48,0.91,1.4,0.47c1.21-0.58,2.42-1.15,3.63-1.71
			c0.84-0.39,1.65-0.59,2.42,0.2c0.29,0.31,0.72,0.24,1.1,0.23c1.24-0.02,2.44,0.09,3.44,1.02c0.31,0.28,0.6,0.24,0.95,0.06
			c1.4-0.74,2.81-0.79,4.24-0.11c0.65,0.31,1.28,0.18,1.94,0.02c2.14-0.51,4.26-1.04,6.46-1.24c1.93-0.18,3.72,0.17,5.45,1.1
			c3.12,1.68,5.73,3.96,7.71,7.13c1.74,2.8,3.63,5.48,5.36,8.29c1.62,2.64,2.84,5.48,3.87,8.43c0.47,1.35,0.96,2.69,1.41,4.05
			c0.6,1.8,0.53,3.56,0.12,5.38c-0.46,2.03-1.26,3.94-1.82,5.94c-0.21,0.72-0.42,1.45-0.64,2.17c-0.72,2.44-0.57,4.84,0,7.3
			c0.59,2.55,0.94,5.14,0.83,7.8c-0.01,0.15-0.01,0.3-0.03,0.45c-0.01,0.06-0.07,0.12-0.13,0.23c-0.5-0.11-0.47-0.91-1.1-1.05
			c-0.02,0.56-0.06,1.07-0.07,1.58c-0.02,2.06,0,4.11-0.05,6.17c-0.06,3.02-0.44,5.99-1.6,8.77c-0.64,1.52-1.5,2.92-2.46,4.22
			c-1.25,1.67-2.53,3.33-4.13,4.64C122.55,163.01,121.94,163.2,121.36,163.74z M148.95,172.96c-0.04-0.49,0-0.98,0-1.47
			c-0.14-1.26,0.18-2.41,0.65-3.53c0.45-1.08,0.97-2.1,1.51-3.11c0.23-0.43,0.47-1.04,1.09-0.84c0.55,0.18,0.6,0.78,0.66,1.31
			c0.03,0.3,0.06,0.61,0.05,0.91c-0.05,1.73,0.47,3.28,1.26,4.74c0.23,0.42,0.47,0.85,0.64,1.3c0.3,0.77,0.23,1.09-0.4,1.54
			c-0.97,0.69-2.07,1.1-3.18,1.33C150.22,175.35,149.05,174.17,148.95,172.96z M166.51,167.38c-0.59,1.34-1.67,1.72-2.88,1.06
			c-0.57-0.31-1.13-0.66-1.64-1.07c-0.72-0.56-1.36-1.22-1.87-2.06c-0.79-1.31-0.8-1.85,0.02-3.09c1.27-1.91,2.64-3.72,4.14-5.42
			c0.68-0.77,1.01-0.7,1.31,0.28c0.36,1.16,0.71,2.33,1.04,3.5c0.18,0.64,0.36,1.28,0.53,1.92c0.12,0.47,0.1,0.98,0.16,1.47
			C167.32,165.2,166.97,166.32,166.51,167.38z M2.62,165.57C2.63,165.56,2.63,165.56,2.62,165.57l-0.34-2.64
			c-0.09-0.14-0.19-0.27-0.3-0.39c-0.69-0.73-1.72-1.04-2.82-0.95c-1.1,0.09-2.28,0.56-3.27,1.41c-0.05,0.04-0.08,0.08-0.12,0.12
			c-0.01,0-0.02,0.01-0.02,0.02c-1.28,1.18-1.89,2.71-1.69,4.01c0.56,0.19,1.18,0.27,1.87,0.22c0.01-0.54,0.08-1.1,0.18-1.68
			c0.1-0.53,0.34-0.59,0.71-0.16c0.41,0.48,0.79,1,1.17,1.52c0.44-0.04,0.94-0.03,1.52,0.08c0.02-0.11,0.05-0.21,0.09-0.32
			c-0.03,0.1-0.05,0.21-0.08,0.32c0.45,0.08,0.94,0.22,1.46,0.46c0.37,0.16,1.12,0.61,2.05,0.96L2.62,165.57z M1.85,172.68
			c-0.03-0.77-0.29-1.47-0.79-2.03c-0.3-0.34-0.67-0.6-1.08-0.76c0.05,0.06,0.09,0.13,0.14,0.19c0.27,0.39,0.47,0.84,0.71,1.26
			c0.18,0.32,0.22,0.69,0.14,1.04c0.26,0.42,0.53,0.84,0.81,1.26c0.01-0.06,0.02-0.11,0.03-0.17c0,0,0,0,0-0.01
			C1.86,173.19,1.87,172.93,1.85,172.68z"/>
	</g>
</g>
</svg>
