<?xml version="1.0" encoding="utf-8"?>
<!-- Generator: Adobe Illustrator 23.0.1, SVG Export Plug-In . SVG Version: 6.00 Build 0)  -->
<svg version="1.1" id="Layer_1" xmlns="http://www.w3.org/2000/svg" xmlns:xlink="http://www.w3.org/1999/xlink" x="0px" y="0px"
	 viewBox="0 0 180 186.27" style="enable-background:new 0 0 180 186.27;" xml:space="preserve">
<style type="text/css">
	.st0{fill:none;}
	.st1{fill:#ECF8FE;}
	.st2{clip-path:url(#SVGID_2_);}
	.st3{fill:#101010;}
	.st4{fill:#191A1A;}
	.st5{fill:#121212;}
	.st6{fill:#080909;}
</style>
<g>
	<circle class="st1" cx="90" cy="90" r="90"/>
	<path d="M47.05,165.13c0.33,0.19,0.67,0.37,1.02,0.54c0.07-0.13,0.14-0.26,0.2-0.4C47.85,164.92,47.46,164.99,47.05,165.13z
		 M138.86,74.45c1.17-3.94,1.67-7.97,1.57-12.1c-0.13-5.4-1.2-10.65-2.33-15.89c-0.49-2.26-1.04-4.5-1.79-6.67
		c-0.51-1.5-1.11-2.96-1.83-4.37c-0.18-0.37-0.38-0.71-0.6-1.01c-1.22-1.79-2.9-2.7-4.74-2.66c-1.15,0.03-2.37,0.41-3.57,1.19
		c-0.16,0.1-0.31,0.2-0.46,0.31c-1.94,1.35-3.46,3.1-4.89,4.98c-7.17,9.42-12.64,19.85-17.12,30.86c-0.71,1.74-1.11,3.83-3.35,4.41
		c-0.31,0.08-0.38,0.45-0.38,0.76c0.03,1.36-0.97,1.86-1.9,2.38c-4.84,2.72-10.12,2.71-15.4,2.54c-1.39-0.04-2.32-0.79-2.05-2.51
		c0.07-0.42,0.34-1.3-0.61-1.13c-1.22,0.22-1.69-0.62-2.22-1.43c-4.7-7.18-9.36-14.38-14.08-21.54c-3.28-5-6.18-10.3-9.97-14.9
		c-4.31-5.2-8.61-4.57-11.31,1.64c-2.52,5.77-3.91,11.88-4.45,18.19c-0.61,7.14,0.67,13.96,3.32,20.55
		c1.97,4.87,2.92,9.93,2.22,15.2c-0.23,1.71,0.1,3.11,1.09,4.44c1.04,1.4,2.01,2.87,2.67,4.52c0.62,1.58,1.21,3.2,0.79,4.95
		c-0.27,1.06-1.25,1.84-0.28,3.28c0.36,0.54,0.13,2.06,0.74,3.03c0.22,0.35,0.34,0.77,0.45,1.17c0.75,2.88,1,5.67,0.54,8.76
		c-0.44,2.97-1.18,5.72-2.52,8.27c-3.09,5.9-5.47,12.1-5.89,18.77c-0.13,2.06-0.02,4.46,0.45,6.65c0.03,0.17,0.07,0.36,0.19,0.47
		c0.84,0.86,0.84,0.87,0.32,1.73c-0.45,0.76-0.99,1.23-1.6,1.5c2.09,1.4,4.23,2.72,6.44,3.93c0.53-0.85,1.36-1.45,1.9-2.4
		c-1.51-0.26-2.87-0.58-3.82-1.9c0.83-0.61,1.76-0.03,2.77-0.42c-4.02-4.56-2.66-9.44-0.9-14.34c-0.98-0.09-1.04,0.99-1.84,1.2
		c0.39-5.58,3.74-9.83,5.92-14.61c-0.22,3.77-1.74,7.38-1.18,11.22c-1.04,0.05-1.01-1.46-1.97-1.08c2.33,6.2,5.58,11.99,7.36,18.41
		c0.2,0.75,0.26,1.56,0.29,2.35c0.12,2.89,0.1,2.89,3.15,2.79c-0.67,0.76-1.21,1.39-1.86,2.14c1.19,0.95,2.57,1.2,3.93,1.4
		c1.36,0.2,1.16,1.03,1.04,1.81c1.88,0.64,3.79,1.21,5.72,1.72c-0.82-0.41-0.99-1.73-1.94-2.58c1.24-0.09,2.08-0.15,3.23-0.23
		c-2.2-1.47-4.53-2.24-6.36-4.07c0.88-0.62,1.86-0.12,3.19-0.56c-6.4-2.83-10.26-7.52-12.11-14.06c1.1,0.14,1.55,1.57,2.9,1.63
		c-1.59-2.54-3.16-4.94-4.01-7.8c0.93-0.25,1.21,1.27,2.06,1.05c0.34-0.18,0.26-0.4,0.17-0.53c-2.81-4.14-2.67-8.69-1.79-13.36
		c0.56-2.98,1.02-5.96,1.6-9.37c0.7,1.98,0.36,3.55,0.16,5.11c0.82,0.23,0.6-1.04,1.56-0.81c-0.38,2.66,1.35,4.89,1.46,7.54
		c0.97-2.57,0.84-5.44,2.54-7.69c-0.2,5.01-1.77,9.87-0.98,14.9c-0.16,0.04-0.3,0.11-0.36,0.07c-0.57-0.35-1.03-1.46-1.71-0.9
		c-0.63,0.51,0.32,1.23,0.48,1.88c0.13,0.56,0.79,0.92,0.59,1.7c-1.26-0.58-2.06-1.68-3.16-2.95c0.85,4.12,4.82,6.89,11.05,7.93
		c-1.6,1.14-0.65,1.67,0.29,2.39c2.16,1.64,3.53,3.88,4.27,6.55c-0.74,0.1-0.95-0.76-1.57-0.84c-0.13-0.11-0.27-0.22-0.4-0.32
		c-0.11-0.32-0.38-0.5-0.59-0.24c-0.27,0.33,0.23,0.35,0.35,0.53c0.08,0.1,0.17,0.2,0.25,0.3c1.32,2.27,2.18,4.7,2.61,7.42
		c0.22-0.66,0.45-1.32,0.74-2.18c0.63,1.83,1.05,3.54,1.88,5.09c0.82,1.54,1.87,2.89,3.22,4.59c-3.3,0-6.24,0.11-9.15-0.06
		c4.31,1.12,8.74,1.93,13.27,2.4c0.23-5.25,1.28-10.46,1.28-15.74c0-0.67,0.37-0.84,0.88-0.9c1.94-0.25,3.87-0.28,5.79,0.33
		c1.06,0.33,1.46,0.87,1.49,2.06c0.14,4.87,0.35,9.74,0.58,14.6h0.85c-0.01-0.07-0.02-0.15-0.03-0.23
		c-0.2-4.94,0.06-9.86,0.61-14.78c0.14-1.21,0.74-1.73,1.74-1.94c1.64-0.36,3.29-0.36,4.93-0.02c0.79,0.16,1.18,0.45,0.93,1.46
		c-1.3,5.2-0.87,10.15,0.89,15.04c4.17-0.48,8.25-1.25,12.23-2.28c-2.17-0.01-4.23-0.01-6.29,0.02c-0.82,0.01-1.12-0.22-0.74-1.04
		c0.25-0.54,0.43-1.16,0.78-1.63c3.41-4.62,5.02-10.03,6.49-15.51c0.46-1.68,1.07-3.21,2.36-4.32c-0.18-0.59-0.83,0.02-1.03-0.59
		c4.73-1.27,9.59,0.8,14.38-1.12c-0.4,1.58-1.76,1.66-2.29,2.73c1.27,0.39,2.16-0.7,3.26-0.65c0.18-0.23,0.48-0.42,0.68-0.22
		c0.32,0.31-0.1,0.41-0.27,0.57c-0.99,1.4-2.61,2.03-3.95,3.39h3.72c-1.22,0.79-2.52,1.26-3.83,2.47h4.19
		c-1.38,1.24-3.17,1.57-4.61,3.05h2.27c-1.75,1-3.42,1.5-4.56,2.88c0.07,0.07,0.14,0.14,0.21,0.22c0.58-0.05,1.16-0.09,2.18-0.17
		c-1.47,1.04-2.61,1.84-3.88,2.73c1,0.4,2.01,0.32,2.39,1.57c-2.1,0.19-4,0.97-6.32,2.07c0.92,0.18,1.37,0.27,1.97,0.39
		c-1.44,1.24-3.04,1.4-4.61,1.62c-0.82,0.11-1.81,0.01-1.06,1.14c4.64-1.28,9.13-2.94,13.43-4.92c-0.04-0.14-0.11-0.29-0.19-0.45
		c-0.31-0.63-0.82-1.15-1.27-1.77c0.93-0.38,1.82,0.38,2.7,0.03c-0.2-1-1.37-0.72-1.68-1.5c0.78-0.41,1.75,0.12,2.46-0.58
		c-0.36-0.46-1-0.12-1.28-0.72c1.61-0.94,3.36-1.03,5.09-1.18c-0.05-0.98-1.12-1-1.26-1.92c1.13-0.32,2.25-0.64,3.44-0.97
		c-0.68-0.82-1.69-0.45-2.41-1.09c1.18-0.69,2.4-0.41,3.44-0.73c0.07-1-0.98-1.07-1.18-1.76c0.4-0.48,0.93,0.21,1.31-0.2
		c-0.62-1.86-0.66-1.9-3.81-3.42c1.05-1.02,2.53-0.97,3.65-1.67c-0.24-0.92-1.32-0.79-1.99-1.51c0.47-0.08,0.7-0.08,0.91-0.16
		c0.56-0.21,1.49,0.45,1.67-0.41c0.14-0.71-0.65-1.22-1.15-1.74c-0.74-0.76-1.96-0.79-2.67-1.8c0.36-0.03,0.6-0.03,0.83-0.08
		c0.38-0.08,0.95,0.12,1.06-0.43c0.1-0.57-0.44-0.82-0.83-1.05c-0.5-0.28-1.04-0.47-1.62-0.73c0.74-0.88,1.76-0.59,2.61-0.9
		c-0.45-1.24-1.75-1.1-2.45-2.02h1.98c0.03-0.88-1.22-1.63-0.88-1.85c1.48-0.98,0-1.53-0.24-2.08c-0.48-1.1-1.17-2.12-1.86-3.1
		c-2.36-3.32-2.61-7.13-1.77-10.84c0.68-3,1.23-6.01,1.7-9.04c0.87-5.69,2.09-11.19,5.58-15.99c1.88-2.59,2.13-5.9,1.17-8.96
		C137.3,82.86,137.6,78.69,138.86,74.45z M110.6,71.98c0.04-0.77,0.33-1.45,0.93-2.05c-0.08,1.07-0.39,2.1-0.34,3.16
		c1.26-0.76,1.83-2.18,2.84-3.18c0.62-0.61,1.06-1.48,2.26-1.68c-0.48,1.57-0.91,3.03-1.37,4.48c-0.08,0.25-0.14,0.53,0.07,0.65
		c0.15,0.09,0.54,0.02,0.62-0.11c1.86-3.21,4.49-5.86,6.55-9.22c-1.13,0.04-1.83,0.6-2.9,1.05c1.83-3.14,4.04-5.38,6.52-7.36
		c0.69-0.55,1.16-0.66,1.16,0.48v1.73c1.37-1.93,2.45-3.47,3.57-5.05c0.97,2.1,1.5,5.57,1.16,7.6c-0.65,3.87-1.77,7.56-3.76,10.95
		c-1.01,1.72-1.84,3.54-2.74,5.33c-0.21,0.42-0.25,0.98-1.05,0.86c0.15-0.8,0.29-1.59,0.43-2.38c0.02-0.11,0.09-0.28,0.09-0.34
		c0-0.01,0-0.02-0.01-0.02c-0.17-0.12-0.22,0.03-0.24,0.18c-1.15,1.33-1.4,3.15-2.44,4.74c-0.59-1.21-0.09-2.68-1.11-3.68
		c-1.26,3.98-0.46,9.01-5.75,11.21c0.6-2.41,0.39-4.52-0.12-6.78c-0.96,0.78-1.11,1.82-1.58,3.05c-1.09-2.67-0.71-5.12-0.66-7.76
		c-1.07,0.94-0.99,2.31-1.83,3.34C109.56,78.04,109.74,75.03,110.6,71.98z M109.72,85.92c0.98,1.55,1.93,3.12,2.25,4.94
		c-1.22-1.24-2.44-2.41-3.38-3.66c-0.76-1-1.42-1.9-2.53-2.37C108.08,82.6,108.85,84.53,109.72,85.92z M70.07,89.92
		c-0.11,0-0.22-0.03-0.32-0.08c-0.1-0.04-0.2-0.06-0.3-0.09c0.06-0.08,0.12-0.17,0.19-0.25c0.37-0.83,1.99-1.12,0.94-2.58
		c-0.2-0.27,0.48-0.57,0.8-0.81c0.27-0.21,0.75-0.48,0.38-0.83c-1.44-1.39,0.04-1.51,0.72-1.5c1.28,0.05,0.31-0.93,0.7-1.31
		c1.15-1.15,4.53-1.93,6.08-1.28c0.43,0.18,0.89,0.78,1.19-0.2c0.14-0.45,0.44-0.14,0.67,0.03c0.57,0.42,1.15,0.83,1.73,1.25
		c0.52-0.4,1.07-1.12,1.43,0.18c-0.44,0.28-0.91,0.46-1.44,0.44c-0.32,0.21-0.11,0.94-0.72,0.81c-2.24-0.48-4.06,1.55-6.29,1.15
		c-0.31-0.06-0.65,0.19-0.97,0.29c-0.01,0.65,0.8,0.51,0.83,1.08c-0.98,0.49-2.17,0.29-3.11,0.99c-0.06,0.67,0.85,0.63,0.88,1.3
		c-0.72,0.52-1.72,0.37-2.36,1.04c-0.12,0.12-0.23,0.24-0.35,0.36c-0.03,0.1-0.09,0.19-0.18,0.25c-0.22,0.63-0.05,1.51-1.06,1.71
		C69.12,90.99,70.22,90.64,70.07,89.92z M74.76,90.9c-1.01-0.55-1.61,0.59-2.45,0.31c4.27-5.05,10.3-6.07,16.51-7.47
		c-1.67-1.11-3.32-1.46-4.6-3.03c5.24,0.39,10.08-0.61,14.96-1.33c3.1-0.46,6.81,1.52,8.08,4.2c-1.13-0.96-2.16-1.31-3.16-1.08
		c-1.09,0.26-0.78-0.92-1.46-1.16c-2.35-0.83-5.66,0.51-6.95,3.04c1.03,0.24,1.27-1.3,2.3-1c0.29,0.58-0.44,0.84-0.5,1.35
		c1.13,0.34,1.42-1.09,2.49-1.06c-0.58,1.42-0.23,1.59,1.22,1.4c2.23-0.28,3.51,1.58,4.92,3.01c-0.37,0.64-1.02-0.03-1.33,0.7
		c3.09,3.25,5.53,7.13,8.24,10.81c0.36,0.48,0.67,1.01,0.96,1.54c0.13,0.23,0.3,0.62-0.05,0.74c-0.21,0.07-0.51-0.2-0.79-0.32
		c0,0.01-0.01,0.02-0.02,0.02c-0.43-0.5-5.7-6.67-8.94-8.61c-0.17-0.17-0.39-0.3-0.67-0.37c-0.45-0.12-0.93-0.13-1.55-0.21
		c1.56-1.36,0.38-1.62-0.61-1.86c-0.77-0.19-1.56-0.25-2.34-0.37c0.14-0.83,1.08-0.88,1.17-1.68c-1.48-0.84-3.02-0.82-4.62-0.45
		c-0.28,0.07-1.04,0.52-0.93-0.16c0.35-2.24-1.02-0.6-1.55-0.76c-0.39-0.11-1,0.86-1.23-0.08c-0.25-1-0.75-0.82-1.28-0.47
		c-0.69,0.46-1.33,0.35-2.01,0.05c-1.07-0.46-2.19-0.4-3.39-0.3c0.03,0.57,0.75,0.76,0.45,1.23c-0.26,0.41-0.78,0.26-1.14,0.18
		c-0.82-0.18-1.59-0.29-2.35,0.17c0.24,0.58,1.12,0.17,1.29,0.87c-1.42,0.47-3.1,0.21-4.1,1.7c0.41,0.45,1.04-0.05,1.36,0.49
		c-2.07,1.13-4.11,2.43-5.87,4.02c-0.33,0.29-0.64,0.59-0.92,0.91c-0.13,0.14-0.26,0.28-0.37,0.43c-0.14,0.17-0.25,0.41-0.44,0.54
		s-0.47,0.17-0.69,0.25c-0.22,0.09-0.43,0.18-0.65,0.27c-0.47,0.21-0.93,0.42-1.4,0.62c-0.42,0.19-0.84,0.38-1.27,0.53
		c-0.27,0.09-0.58,0.21-0.86,0.18c-0.02,0-0.03,0-0.04-0.01C69.8,95.55,71.92,92.96,74.76,90.9z M50.11,90.26
		c0.68-0.27,0.62,1.04,1.28,0.7c-0.11-4.87-2.16-8.83-5.43-12.29c2.68,0.82,4.65,2.69,6.73,4.75c0.05-2.05-0.68-3.62-1.74-5
		c-2.36-3.07-3.1-6.76-3.96-10.42c-0.07-0.26-0.15-0.64,0.23-0.77c0.36-0.12,0.55,0.17,0.7,0.43c0.79,1.36,1.63,2.68,2.78,3.75
		c0.13,0.03,0.26,0.07,0.38,0.1c-0.04-0.11-0.09-0.24-0.14-0.36c-0.67-2.8-1.16-5.59-0.09-8.43c0.72-1.9,0.83-1.94,2.28-0.67
		c4.41,3.88,8.04,8.39,10.81,13.79c0-1.28,0.01-2.56-0.01-3.84c0-0.37-0.61-0.81-0.03-1.08c0.58-0.27,0.79,0.38,1.03,0.76
		c1.35,2.13,2.08,4.51,2.49,6.99c0.62,3.87,0.83,7.77,0.44,11.67c-0.1,1.05,0.07,2.48-1.28,2.93c-1.1,0.37-2.89-0.91-3.38-2.43
		c-0.42-1.25-0.59-2.59-0.87-3.9c-0.59-0.36-0.53,0.72-1.18,0.48c0.68-4.76-0.77-8.56-4.94-11.08c-0.13,0.14-0.28,0.26-0.26,0.3
		c1.36,3.73,1.48,7.6,1.38,11.53c-0.06,2.72,0.91,4.99,3.58,6.37c-1.34,0.52-2.49-0.3-3.75-0.12c0.69,2.09,2.6,2.55,4.31,3.62
		c-2.33,1.49-4.56,1.39-6.74,0.51C52.01,97.47,50.38,94.41,50.11,90.26z M60.32,105.87c-0.46,1.06-1.04,2.07-1.34,3.17
		c-0.24,0.91-1.29,1.73-0.03,2.97c0.58,0.57-0.57,2.09-0.74,3.23c-0.14,0.92-1.05,1.83,0.07,2.77c0.27,0.23-1.37,4.26-1.75,4.45
		c-0.39,0.2-0.59,0.11-0.71-0.4c-0.5-2.09-0.42-4.13,0.19-6.2c0.23-0.76,0.72-1.53,0.44-2.43c-0.82,0.15-0.85,1.21-2.12,1.45
		c1.59-1.44-0.01-2.91,0.79-4.38c1.03-1.89,1.83-3.91,3.3-5.59c0.72,0.68-0.3,1.27,0.1,1.87c0.51-0.39,1.01-0.77,1.51-1.16
		c0.11-0.1,0.26-0.29,0.31-0.29C60.62,105.5,60.43,105.69,60.32,105.87z M61.98,140.2c-0.75,0.07-0.23,1.21-1.09,1.25
		c-0.23-5.13,0.26-10.13,2.44-14.84c0.11-1.43-0.53-2.99,0.66-4.51v5.97c0.09,0.08,0.24,0.17,0.24,0.26
		c-0.01,2.03,1.23,3.83,0.8,5.98c-0.8,4.01,0.52,7.53,2.81,10.74C64.82,146.1,62.65,144.31,61.98,140.2z M67.11,123.58
		c1.22,2.95,1.15,3.53-0.55,4.04C67.42,126.38,67.01,125,67.11,123.58z M71.6,133.4c-0.69,1.13-1.4,2.23-2.37,3.76
		c-0.74-2.43-1.48-4.4-1.91-6.43c-0.27-1.3-0.45-2.95,1.8-2.62c0.25,0.03,0.54-0.15,0.97-0.29c0,0.99,0.08,1.9-0.02,2.8
		c-0.13,1.05,0.15,1.73,1.23,1.83C72.24,132.54,71.83,133.02,71.6,133.4z M71.74,108.8c-0.88,0.75-1-0.46-1.25-0.72
		c-0.49-0.51,0.26-0.55,0.58-0.69c1.42-0.6,2.83-1.05,4.56,0.41C73.98,107.83,72.77,107.94,71.74,108.8z M75.73,110.69
		c0.11,0.55-0.28,0.54-0.62,0.54c-0.68,0.01-1.35,0.01-2.42,0.01c0.92-0.84,1.64-0.85,2.29-1.07
		C75.36,110.04,75.65,110.28,75.73,110.69z M70.53,115.07c0.84-0.64,1.61,0.09,2.4,0.12c1.36,0.06,2.7,0,4.03-0.33
		c0.6-0.15,1.34-0.49,1.78,0.25c0.38,0.64,0.1,1.28-0.39,2.01c-0.48-1.36-1.41-1.37-2.54-1.21
		C73.41,116.25,72.99,116.13,70.53,115.07z M78.66,113.09c0.04-0.41,0-0.94,0.23-1.18c0.38-0.39,0.72,0.15,1.03,0.35
		c0.58,0.38,1.13,0.81,1.87,1.34c-0.95,0.34-1.6,0.59-2.32,0.47C78.93,113.97,78.62,113.66,78.66,113.09z M79.82,170.49
		c-0.49,1.1-1.57,0.46-2.3-0.05c-3.01-2.12-3.89-5.35-4.15-8.48c0.02-1.68,0.09-3.46,1.16-3.78c0.92-0.28,1.08,1.72,1.82,2.52
		c0.94,1,0.48,2.41,1.11,3.64c0.67,1.33,1.72,1.79,2.55,2.64C81.27,168.28,80.27,169.49,79.82,170.49z M79.02,158.76
		c1.94,1.01,1.35,2.63,1.2,4.12C79.55,161.64,79.08,160.33,79.02,158.76z M87.06,141.18c-1.8-0.48-3.63-0.69-5.09,0.98
		c-0.21,0.23-0.49,0.34-0.77,0.08c-0.23-0.21-0.05-0.43,0-0.65c0.27-1.24,0.81-2.25,2.02-2.77c5.33-2.27,10.7-2.82,16.17-0.57
		c1.25,0.52,2.39,1.23,2.74,3.09c-1.17-1.06-2.28-1.04-3.42-0.63C94.87,142.07,91.01,142.23,87.06,141.18z M87.56,147.89
		c-1.75,1.22-3.26,0.96-4.47-0.79C84.61,147.46,85.97,147.96,87.56,147.89z M96.03,147.42c1.64,0.32,2.85,0,4.1-0.92
		C99.38,148.82,97.77,149.2,96.03,147.42z M101.66,169.01c-0.21,0.88-0.49,1.74-0.9,3.11c-0.68-1.53-0.87-2.54-0.25-3.57
		c0.18-0.32,0.47-0.59,0.87-0.46C101.83,168.23,101.74,168.69,101.66,169.01z M100.97,163.15c0.07-1.1,0.9-1.47,1.72-1.79
		c0.49-0.18,0.64,0.26,0.55,0.62c-0.21,1-0.82,1.69-1.67,2.1C100.95,164.01,100.93,163.57,100.97,163.15z M107.47,164.83
		c-0.61,1.79-1.64,3.34-2.78,4.82c-0.36,0.47-0.78,1-1.45,0.86c-0.73-0.14-0.72-0.82-0.87-1.42c-0.46-1.91-0.65-3.47,1.48-4.75
		c1.88-1.12,2.69-3.4,3.53-5.94C108.49,160.86,108.14,162.85,107.47,164.83z M107.95,126.4c1.4,1.64,1.84,3.78,2.19,5.92
		c-1.52-2.19-3.37-4.1-4.37-6.64c-0.04,1.72,0.25,3.35,0.87,4.83c0.86,2.03,1.08,4.12,1.07,6.25c-0.02,2.41,0.37,4.72,1.15,6.99
		c1.58,4.6-1.63,10.55-6.24,11.65c-1.36,0.33-2.55,0.07-3.62-1.18c2.03-1.31,3.63-2.67,4.31-5.33c0.64-2.49,1.3-4.9,1.26-7.48
		c-0.04-2.58-0.44-5.05-1.88-7.42c-0.57,2.47-1.5,0.16-2.33,0.47c0.1,0.96,1.16,1.64,0.96,2.7c-6.68-1.42-13.33-3.15-19.73,1.05
		c-0.36-0.72,0.64-1.04,0.59-1.69c0.26-0.06,0.4-0.27,0.23-0.46c-0.18-0.21-0.33,0.07-0.48,0.19c-0.19,0.15-0.36,0.41-0.56,0.43
		c-0.53,0.07-0.31-0.39-0.27-0.6c0.13-0.59,0.33-1.17,0.52-1.74c0.16-0.49,0.36-0.97,0.6-1.61c-2.29,1.24-3.31,4.77-2.34,7.63
		c0.26,0.75,0.45,1.49,0.38,2.31c-0.37,3.92,1.04,6.9,4.43,8.83c0.45,0.26,0.86,0.6,1.5,1.05c-1.81,0.95-3.52,1.69-5.15,2.54
		c-1.31,0.68-2.73,0.1-3.83-1.1c-2.77-3.01-3.49-6.56-2.7-10.51c0.99-4.96,2-9.9,1.94-15.02c-0.88-0.31-0.88,0.86-1.72,1.02
		c0.2-3.22,1.26-5.89,3.55-8c0.48-0.78,0.89-1.65,2.25-1.99c-0.92,1.72-2.13,3.04-1.97,4.85c0.27,0.5-0.71,0.93,0.06,1.55
		c0.76-0.85,1.05-1.96,1.52-2.94c0.88-1.86,1.67-3.75,3.45-4.95c0.28-0.19,1.19-0.68,0-0.95c0.03-0.15,0.03-0.33,0.11-0.42
		c4.07-4.04,3.16-8.72,1.46-13.37c-1.1-3.04-3.98-3.48-6.54-3.54c-3.84-0.1-7,1.88-9.61,4.75c-0.08,0.09-0.03,0.3-0.04,0.46
		l0.02,0.03c1.02,0.18,1.92-0.67,3.23-0.19c-3.24,1.87-5.93,4.17-7.7,7.65c-0.4-1.2,0.25-2,0.25-2.98
		c-0.48-0.27-0.87,0.69-1.29,0.24c1.06-4.44,3.67-8.29,9.96-12.72c3.63-2.26,8.17-2.19,9.72,1.71c0.39,0.95,0.74,0.99,1.31,0.32
		c1.11-1.31,1.78-0.69,2.56,0.42c1.58,2.23,2.16,4.75,2.47,7.48c0.52-1.04,1.04-2.09,1.59-3.21c0.46,0.76-0.34,1.41,0.16,2.11
		c1.45-1.65,2.58-3.47,3.32-5.54c0.66-1.86,1.56-3.55,3.13-4.77c0.2-0.15,0.61-0.59,0.67-0.29c0.31,1.55,1.03,0.34,1.39,0.19
		c1.12-0.45,2.2-0.92,3.42-0.69c0.08,0.01,0.17,0.02,0.25,0.03l-0.08,0.05c0,0,6.56,3.57,9.35,7.15l0.06,0.03
		c1.78,2.58,3.51,5.21,4.14,8.44c-2.72-2.79-4.75-6.91-9.84-4.82c0.48-1.28,1.17-2.04,2.02-2.58c1.19-0.79,0.8-1.35-0.08-2.01
		c-1.21-0.93-2.53-1.27-4.01-1.07c-0.62,0.08-0.61,0.06-0.54-0.67c0.06-0.88-0.64-0.61-0.95-0.5c-0.89,0.3-1.73,0.75-2.59,1.14
		c-0.58-0.39,0.09-1.09-0.39-1.46c-5.96,5.35-6.04,16.35,2.79,20.72c0.84-2.35,0.97-2.37,2.62-0.49c1.1,1.25,2.43,1.3,3.66,0.17
		c0.56-0.51,1.19-0.94,2.03-1.6c-0.39,1.77-1.18,2.92-2.17,3.97c-0.46,0.48-0.88,0.98-1.37,1.43
		C106.75,123.85,106.71,124.95,107.95,126.4z M109.44,110.68c-0.21,0.03-0.43,0.1-0.63,0.08c-0.83-0.1-1.71,0.53-2.49-0.17
		c-0.04-0.04,0.01-0.3,0.06-0.31C107.42,109.95,108.46,109.7,109.44,110.68z M105.3,114.13c3.19,1.36,5.62-0.58,8.27-0.74
		C107.99,116.01,107.07,116.13,105.3,114.13z M130,137.1c-0.26,0.82-1.46,1.32-2.24,1.96c-0.04,0.03-0.02,0.12-0.04,0.22
		c0.38,0.42,0.87-0.08,1.39,0.19c-0.56,1.46-1.79,2.23-3.08,3.17c1.2,0.61,1.97-0.63,3.15-0.55c-1.72,2.98-4.42,3.52-7.31,3.86
		c0.24-0.86,1.3-0.78,1.46-1.76c-1.05-0.15-2.02,0.67-3.15,0.25c0.44-0.92,1.67-1.11,2.01-2.37c-1.95,0.77-3.57,2.13-5.65,2.08
		c0.08,1.4-1.95,0.4-1.92,1.79c0,0-0.44,0.1-0.62,0.01c-0.49-0.21-0.25-0.57-0.1-0.89c0.62-1.31,1.23-2.61,1.94-4.09
		c0.06,0.69,0.11,1.2,0.17,1.93c1.38-1.34,1.57-2.83,1.48-4.45c-0.17-3.26-2.55-5.51-3.52-8.39c-0.15-0.44-0.68-0.71-0.49-1.4
		c0.63,0.35,1.22,0.68,1.86,1.04c0.26-0.83-0.59-1.34-0.4-2.08c0.76-0.15,0.85,0.74,1.55,0.97c-0.09-2.77,0.81-5.31,1.48-7.96
		c1.94,5.07,3.67,10.14,2.26,15.8c0.86-0.71,0.86-0.73,1.01-2.04c0.49-4.32-0.5-8.49-1.22-12.69c-0.08-0.46-0.46-1.07-0.01-1.33
		c0.6-0.37,1.18,0.15,1.48,0.66c0.98,1.7,2.09,3.32,2.87,5.49v-4.24c0.55,0.26,1.19,1.07,1.1-0.36c-0.3-4.92-0.87-9.8-3.02-14.27
		c-0.51-1.05,0.97-0.77,0.51-1.5c-0.47-0.77-0.86-1.59-1.26-2.41c-0.33-0.69-1.04-1.15-1.13-1.99c2.66-0.5,6.66,3.01,6.56,5.75
		c-0.07,2.26,0.86,4.3,0.58,6.53c-0.29,2.35-0.79,4.84-0.55,7.07c0.45,4.31-1.28,9.08,2.39,13.1c-0.77-0.06-1.18-0.24-1.39-0.09
		c-0.3,0.2,0.03,0.52,0.15,0.78C128.73,135.79,130.32,136.12,130,137.1z M133.33,94.06c-1.07,1.4-2.39,2.51-4.12,2.97
		c-1.22,0.33-2.24-0.07-2.97-1.07c-0.67-0.91-0.58-1.96-0.01-2.91c0.68-1.12,1.42-2.19,2.21-3.42c-1.7,0-2.32,1.75-3.68,2.06
		c0.46-4.14,2.54-7.35,5.44-10.47c0.48,2.11-0.11,3.85-0.28,5.6c0.01,0.14,0.02,0.28,0.04,0.42c0.07-0.06,0.14-0.12,0.21-0.18
		c0.71-0.27,1.15-0.88,1.46-1.5c0.69-1.39,1.22-0.96,1.96-0.04C135.08,87.37,135.03,91.85,133.33,94.06z"/>
	<path class="st0" d="M138.66,87.2c0.96,3.06,0.71,6.37-1.17,8.96c-3.49,4.8-4.71,10.3-5.58,15.99c-0.47,3.03-1.02,6.04-1.7,9.04
		c-0.84,3.71-0.59,7.52,1.77,10.84c0.69,0.98,1.38,2,1.86,3.1c0.24,0.55,1.72,1.1,0.24,2.08c-0.34,0.22,0.91,0.97,0.88,1.85h-1.98
		c0.7,0.92,2,0.78,2.45,2.02c-0.85,0.31-1.87,0.02-2.61,0.9c0.58,0.26,1.12,0.45,1.62,0.73c0.39,0.23,0.93,0.48,0.83,1.05
		c-0.11,0.55-0.68,0.35-1.06,0.43c-0.23,0.05-0.47,0.05-0.83,0.08c0.71,1.01,1.93,1.04,2.67,1.8c0.5,0.52,1.29,1.03,1.15,1.74
		c-0.18,0.86-1.11,0.2-1.67,0.41c-0.21,0.08-0.44,0.08-0.91,0.16c0.67,0.72,1.75,0.59,1.99,1.51c-1.12,0.7-2.6,0.65-3.65,1.67
		c3.15,1.52,3.19,1.56,3.81,3.42c-0.38,0.41-0.91-0.28-1.31,0.2c0.2,0.69,1.25,0.76,1.18,1.76c-1.04,0.32-2.26,0.04-3.44,0.73
		c0.72,0.64,1.73,0.27,2.41,1.09c-1.19,0.33-2.31,0.65-3.44,0.97c0.14,0.92,1.21,0.94,1.26,1.92c-1.73,0.15-3.48,0.24-5.09,1.18
		c0.28,0.6,0.92,0.26,1.28,0.72c-0.71,0.7-1.68,0.17-2.46,0.58c0.31,0.78,1.48,0.5,1.68,1.5c-0.88,0.35-1.77-0.41-2.7-0.03
		c0.45,0.62,0.96,1.14,1.27,1.77c0.08,0.16,0.15,0.31,0.19,0.45c-4.3,1.98-8.79,3.64-13.43,4.92c-0.48,0.14-0.96,0.27-1.44,0.4
		c-3.98,1.03-8.06,1.8-12.23,2.28c-3.44,0.4-6.95,0.61-10.5,0.61c-3.19,0-6.34-0.17-9.44-0.49c-4.53-0.47-8.96-1.28-13.27-2.4
		c-0.01,0-0.01,0-0.02,0c-0.15-0.04-0.3-0.08-0.45-0.13c-1.93-0.51-3.84-1.08-5.72-1.72c-4.52-1.53-8.87-3.41-13.03-5.62
		c-0.35-0.17-0.69-0.35-1.02-0.54c-0.25-0.13-0.5-0.26-0.74-0.41c-2.21-1.21-4.35-2.53-6.44-3.93c0.61-0.27,1.15-0.74,1.6-1.5
		c0.52-0.86,0.52-0.87-0.32-1.73c-0.12-0.11-0.16-0.3-0.19-0.47c-0.47-2.19-0.58-4.59-0.45-6.65c0.42-6.67,2.8-12.87,5.89-18.77
		c1.34-2.55,2.08-5.3,2.52-8.27c0.46-3.09,0.21-5.88-0.54-8.76c-0.11-0.4-0.23-0.82-0.45-1.17c-0.61-0.97-0.38-2.49-0.74-3.03
		c-0.97-1.44,0.01-2.22,0.28-3.28c0.42-1.75-0.17-3.37-0.79-4.95c-0.66-1.65-1.63-3.12-2.67-4.52c-0.99-1.33-1.32-2.73-1.09-4.44
		c0.7-5.27-0.25-10.33-2.22-15.2c-2.65-6.59-3.93-13.41-3.32-20.55c0.54-6.31,1.93-12.42,4.45-18.19c2.7-6.21,7-6.84,11.31-1.64
		c3.79,4.6,6.69,9.9,9.97,14.9c4.72,7.16,9.38,14.36,14.08,21.54c0.53,0.81,1,1.65,2.22,1.43c0.95-0.17,0.68,0.71,0.61,1.13
		c-0.27,1.72,0.66,2.47,2.05,2.51c5.28,0.17,10.56,0.18,15.4-2.54c0.93-0.52,1.93-1.02,1.9-2.38c0-0.31,0.07-0.68,0.38-0.76
		c2.24-0.58,2.64-2.67,3.35-4.41c4.48-11.01,9.95-21.44,17.12-30.86c1.43-1.88,2.95-3.63,4.89-4.98c0.15-0.11,0.3-0.21,0.46-0.31
		c1.2-0.78,2.42-1.16,3.57-1.19c1.84-0.04,3.52,0.87,4.74,2.66c0.22,0.3,0.42,0.64,0.6,1.01c0.72,1.41,1.32,2.87,1.83,4.37
		c0.75,2.17,1.3,4.41,1.79,6.67c1.13,5.24,2.2,10.49,2.33,15.89c0.1,4.13-0.4,8.16-1.57,12.1C137.6,78.69,137.3,82.86,138.66,87.2z"
		/>
</g>
</svg>
