<?xml version="1.0" encoding="utf-8"?>
<!-- Generator: Adobe Illustrator 17.0.0, SVG Export Plug-In . SVG Version: 6.00 Build 0)  -->
<!DOCTYPE svg PUBLIC "-//W3C//DTD SVG 1.1//EN" "http://www.w3.org/Graphics/SVG/1.1/DTD/svg11.dtd">
<svg version="1.1" id="Layer_1" xmlns="http://www.w3.org/2000/svg" xmlns:xlink="http://www.w3.org/1999/xlink" x="0px" y="0px"
	 width="126.144px" height="180px" viewBox="36.928 10 126.144 180" enable-background="new 36.928 10 126.144 180"
	 xml:space="preserve">
<path fill="#111212" d="M104.67,141.197c3.029,1.441,4.368,4.038,3.611,6.891c-0.76,2.864-3.457,4.713-6.528,4.475
	c-2.297-0.178-4.473-2.291-5.174-5.061c-0.567-2.238-0.392-4.471-0.014-6.728c0.573-3.426-1.747-5.364-5.161-4.414
	c-1.727,0.481-3.157,1.444-4.483,2.613c-0.349,0.308-0.427,0.515-0.314,1.013c1.727,7.59-0.659,13.231-7.365,17.592
	c-2.285,1.486-4.736,2.61-7.502,3.454c2.884,2.861,3.685,6.353,3.441,10.1c-0.095,1.466,0.277,1.968,1.727,2.006
	c2.902,0.076,4.896,1.69,6.234,4.139c1.361,2.491,1.121,4.959-0.482,7.255c-1.336,1.915-3.209,2.854-5.571,2.562
	c-3.362-0.415-6.043-3.618-6.17-7.252c-0.069-1.968,0.331-3.889,0.496-5.833c0.222-2.604,0.641-5.227-0.455-7.762
	c-1.199-2.776-3.472-4.163-6.434-4.001c-4.497,0.247-8.812-0.593-12.868-2.532c-1.177-0.563-1.483-0.293-1.631,0.857
	c-0.372,2.885,0.241,5.289,2.951,6.864c2.461,1.43,4.855,2.966,5.804,5.895c0.194,0.598,0.631,0.563,1.108,0.549
	c2.764-0.079,4.942,1.101,6.789,3.084c3.292,3.535,2.058,8.553-2.53,10.149c-1.39,0.484-2.813,0.578-4.256,0.298
	c-2.727-0.529-4.273-2.319-4.388-5.161c-0.056-1.387,0.004-2.775,0.216-4.156c0.45-2.928-0.421-5.278-3.07-6.822
	c-0.266-0.155-0.499-0.367-0.767-0.517c-4.468-2.504-6.381-5.223-5.226-12.059c0.024-0.141,0.016-0.288,0.029-0.565
	c-3.111,1.631-5.388,3.682-5.417,7.455c-0.02,2.674-0.134,5.35-0.305,8.019c-0.069,1.073,0.299,1.334,1.291,1.243
	c2.868-0.261,5.616-0.035,8.102,1.716c3.669,2.585,3.486,6.589-0.474,8.736c-3.083,1.671-8.737,1.087-11.419-1.176
	c-0.373-0.314-0.594-0.683-0.625-1.184c-0.074-1.178-0.244-2.354-0.255-3.532c-0.041-4.168,0.138-8.345-0.083-12.502
	c-0.286-5.387,2.255-9.019,6.652-11.583c1.093-0.637,0.971-1.032,0.518-2.028c-2.129-4.681-1.755-9.43,0.191-14.037
	c1.294-3.062,3.335-5.667,6.055-7.652c0.606-0.442,0.635-0.801,0.269-1.388c-0.759-1.217-1.522-2.436-2.177-3.709
	c-0.295-0.573-0.658-0.324-1.026-0.321c-6.427,0.066-10.986-5.349-9.801-11.681c0.216-1.152,0.402-2.363,0.908-3.397
	c2.179-4.455,3.982-5.813,9.02-5.545c4.073,0.217,8.346,3.236,9.426,7.075c1.208,4.293,0.469,8.403-3.158,11.294
	c-1.699,1.355-1.716,1.356-0.577,3.283c1.623,2.746,2.884,5.672,4.24,8.55c0.399,0.848,0.472,1.742-0.464,2.299
	c-0.959,0.572-1.913,0.382-2.58-0.499c-0.457-0.603-0.811-1.319-1.058-2.038c-0.416-1.21-0.88-1.03-1.674-0.3
	c-3.973,3.655-5.867,8.161-5.355,13.526c0.36,3.771,2.81,6.233,5.974,7.918c8.51,4.534,20.628,2.707,27.328-4.094
	c3.153-3.201,4.855-6.898,3.126-11.458c-1.738-4.584-5.278-6.881-9.942-7.731c-0.642-0.117-0.665,0.154-0.606,0.659
	c0.129,1.113-0.232,1.982-1.463,2.101c-1.201,0.117-1.919-0.558-2.213-1.697c-0.513-1.986-1.052-3.967-1.506-5.967
	c-0.168-0.737-0.501-1.087-1.219-1.376c-6.008-2.419-8.122-7.164-6-13.305c0.681-1.971,1.733-3.72,3.127-5.264
	c0.24-0.265,0.478-0.613,0.787-0.721c2.501-0.872,5.023-1.736,7.72-1.618c2.053,0.09,3.897,0.867,5.523,2.114
	c4.745,3.641,5.271,9.938,1.301,14.894c-1.682,2.1-3.912,3.251-6.415,4.024c-0.434,0.134-1.362-0.02-1.003,0.92
	c0.237,0.622-0.12,1.404,1.217,1.682c4.117,0.854,8.246,1.95,11.087,5.456c0.665,0.821,1.06,0.821,1.925,0.204
	c3.171-2.26,6.584-3.523,10.542-2.108c2.946,1.053,4.393,3.113,4.058,6.242c-0.109,1.021,0.025,1.367,1.128,1.16
	c0.787-0.147,1.623-0.029,2.437-0.029c-0.985-1.983-0.935-2.121,0.827-3.645c3.307-2.86,6.593-5.746,9.895-8.613
	c0.503-0.437,0.995-0.928,1.579-1.223c0.94-0.474,1.857-0.454,2.609,0.484c3.216,4.007,6.479,7.975,9.38,12.226
	c0.632,0.927,1.279,1.866,2.18,2.587c0.224,0.179,0.472,0.499,0.475,0.758c0.037,2.637,1.232,5.119,1.028,7.785
	c-0.098,1.285-0.935,2.145-1.742,2.997c-3.049,3.215-6.352,6.156-9.777,8.962c-0.267,0.219-0.511,0.468-0.765,0.703
	c3.683,2.986,7.063,6.221,10.519,9.369c0.455,0.414,0.876,0.872,1.271,1.345c2.958,3.542,2.761,5.621-0.839,8.498
	c-0.961,0.768-1.953,1.519-3.015,2.133c-1.662,0.96-3.161,0.766-4.431-0.708c-3.991-4.629-8.503-8.79-12.176-13.676
	c-2.545,5.847-5.858,11.227-8.946,16.728c-1.069,1.903-2.113,2.588-5.058,2.19c-1.429-0.193-2.778-0.741-4.074-1.35
	c-1.942-0.913-2.349-2.202-1.376-4.107c0.724-1.418,1.498-2.811,2.238-4.221c0.205-0.39,0.535-0.784-0.131-1.127
	c-2.464-1.268-3.996-3.503-5.657-5.584c-1.861-2.33-3.62-4.742-5.476-7.077c-0.834-1.049-1.218-2.118-0.739-3.423
	c0.104-0.284,0.183-0.61,0.155-0.906c-0.284-2.985,1.171-5.047,3.476-6.686c2.181-1.551,4.305-3.173,6.178-5.102
	c0.283-0.291,0.635-0.52,0.972-0.754c0.967-0.674,1.983-0.779,2.742,0.204c0.688,0.891,0.159,1.74-0.486,2.464
	c-0.677,0.761-2.078,1.336-1.967,2.196c0.1,0.773,1.386,1.38,2.126,2.085c2.566,2.444,5.128,4.89,7.676,7.352
	c0.676,0.654,1.191,0.469,1.803-0.115c0.811-0.774-0.096-0.939-0.414-1.24c-1.866-1.771-3.759-3.513-5.65-5.257
	c-0.766-0.707-1.15-1.583-0.449-2.428c0.764-0.921,1.841-1.196,2.845-0.29c1.947,1.757,3.833,3.582,5.778,5.342
	c0.425,0.385,0.86,1.178,1.482,0.845c0.89-0.476,1.667-1.199,2.405-1.907c0.29-0.278-0.198-0.498-0.396-0.685
	c-0.824-0.776-1.674-1.524-2.496-2.3c-0.758-0.716-1.331-1.536-0.584-2.555c0.751-1.025,1.969-1.034,3.098-0.078
	c0.942,0.797,1.875,1.609,2.766,2.462c0.535,0.512,0.929,0.633,1.531,0.048c0.995-0.965,2.06-1.863,3.143-2.73
	c0.563-0.451,0.499-0.725,0.008-1.184c-3.238-3.03-6.032-6.464-8.902-9.83c-0.714-0.837-1.372-2.055-2.755-0.797
	C105.487,141.127,105.062,141.102,104.67,141.197z M85.603,162.193c-0.107,0.89-0.636,1.461-0.064,2.135
	c2.76,3.251,5.007,6.908,7.909,10.046c1.796,1.943,2.111,1.998,4.464,0.626c9.92-5.785,18.931-12.797,27.503-20.405
	c2.102-1.866,3.661-3.855,2.37-6.884c-0.075,0.045-0.212,0.096-0.309,0.189c-9.079,8.646-18.978,16.344-28.427,24.561
	c-1.453,1.264-2.499,1.274-3.89-0.101c-1.314-1.3-2.556-2.674-3.803-4.04C89.529,166.322,87.834,164.197,85.603,162.193z
	 M77.671,117.897c-0.793,0-1.458,0.019-2.122-0.003c-3.462-0.116-6.668-2.625-7.641-5.942c-0.119-0.405,0.111-1.09-0.519-1.138
	c-0.553-0.043-1.039,0.292-1.433,0.772c-1.231,1.501-1.999,3.211-2.463,5.076c-0.713,2.867,0.328,5.333,2.876,6.814
	C70.389,125.811,76.198,122.998,77.671,117.897z M116.684,165.992c-0.692,0.54-1.326,1.152-2.067,1.582
	c-0.965,0.56-0.922,1.014-0.259,1.853c2.747,3.476,5.899,6.591,8.754,9.967c2.538,3.001,2.464,2.97,5.602,0.481
	c1.217-0.965,1.191-1.789,0.245-2.775c-3.525-3.672-7.048-7.35-11.152-10.402C117.483,166.457,117.122,166.265,116.684,165.992z
	 M54.153,118.296c-7.003,0.393-9.054-3.745-7.511-9.199c-2.132-0.253-4.422,2.589-4.986,6.19c-0.514,3.283,2.012,7.07,5.138,7.571
	C49.545,123.3,53.263,121.904,54.153,118.296z M89.505,156.558c-0.614,0.449-1.2,0.862-1.769,1.298
	c-0.499,0.382-0.591,0.733-0.035,1.223c2.905,2.561,5.283,5.62,7.902,8.451c1.654,1.787,1.647,1.793,3.434,0.27
	c1.601-1.366,1.602-1.366,0.06-2.751c-2.908-2.612-5.816-5.224-8.728-7.831C90.11,156.986,89.816,156.794,89.505,156.558z
	 M116.667,131.477c-0.549,0.486-1.129,1.069-1.78,1.558c-0.637,0.479-0.538,0.808-0.013,1.317c3.405,3.306,6.363,6.998,9.185,10.801
	c0.393,0.53,0.826,0.923,1.288,0.21c0.412-0.635,2.044-0.751,1.011-2.058c-2.931-3.71-5.54-7.675-8.785-11.136
	C117.335,131.914,117.206,131.534,116.667,131.477z M104.94,175.227c-0.087-0.076-0.174-0.152-0.261-0.228
	c-2.156,1.252-4.315,2.499-6.463,3.765c-0.154,0.091-0.283,0.299-0.333,0.478c-0.531,1.898-1.637,3.511-2.56,5.214
	c-0.162,0.299-0.479,0.582-0.204,0.965c0.683,0.951,3.278,0.923,3.93-0.071c0.701-1.068,1.365-2.162,2.003-3.269
	C102.363,179.806,103.646,177.513,104.94,175.227z M111.283,136.197c-0.433,0.391-0.975,0.739-1.318,1.227
	c-0.384,0.548,0.306,0.76,0.569,1.074c0.889,1.064,1.817,2.096,2.722,3.147c2.18,2.53,4.255,5.149,6.656,7.488
	c0.674,0.657,1.018,0.461,1.594-0.069c0.573-0.527,0.659-0.872,0.079-1.451c-0.577-0.577-1.034-1.274-1.544-1.919
	c-2.426-3.064-4.933-6.057-7.731-8.794C112.029,136.627,111.801,136.242,111.283,136.197z M75.748,176.321
	c-0.364,0.109-1.004-0.333-1.19,0.61c-0.338,1.709-0.403,3.366,0.44,4.942c0.724,1.355,2.553,2.204,3.757,1.799
	c1.065-0.358,1.943-2.005,1.76-3.303C80.176,177.959,78.339,176.363,75.748,176.321z M43.399,178.137
	c-0.19,0-0.51-0.057-0.801,0.012c-0.538,0.127-1.484-0.352-1.543,0.459c-0.079,1.064-0.487,2.342,0.387,3.222
	c1.382,1.389,5.283,1.589,7.001,0.508c1.311-0.826,1.382-1.852,0.119-2.781C47.072,178.459,45.389,177.927,43.399,178.137z
	 M58.786,181.383c0.034,0.994-0.05,2.022,1.117,2.478c1.355,0.531,2.718,0.656,3.898-0.382c0.899-0.791,1.801-1.724,1.119-3.042
	c-0.803-1.551-2.045-2.697-3.807-3.115c-1.091-0.259-2.019-0.296-1.955,1.328C59.191,179.555,58.919,180.472,58.786,181.383z
	 M101.875,144.111c-0.742,0.135-1.903,0.262-2.124,1.431c-0.276,1.457,1.557,3.875,2.707,3.861s2.375-1.421,2.413-2.771
	C104.908,145.28,103.664,144.131,101.875,144.111z M76.177,114.544c0.367-0.124,1.099,0.242,1.397-0.306
	c0.279-0.514-0.184-1.067-0.483-1.536c-1.081-1.701-2.704-2.614-4.608-3.093c-0.768-0.193-1.117-0.004-1.011,0.912
	C71.718,112.63,73.799,114.521,76.177,114.544z M52.37,114.906c1.579,0.022,2.143-0.321,1.826-1.135
	c-0.542-1.388-1.259-2.696-2.569-3.535c-0.311-0.199-0.733-0.59-1.033-0.019c-0.529,1.009-0.965,2.09-0.442,3.214
	C50.584,114.365,51.341,114.958,52.37,114.906z"/>
<path fill="#111212" d="M117.164,55.692c-1.448,0.656-1.438,1.349-0.448,2.482c2.297,2.628,4.045,5.664,5.968,8.699
	c1.787-1.928,3.554-3.707,5.731-5.017c1.703-1.025,3.506-1.596,5.504-1.772c3.571-0.315,5.491,2.814,5.104,5.616
	c-0.455,3.297-2.325,5.88-4.297,8.399c-0.855,1.093-1.748,2.163-2.71,3.162c-0.573,0.595-0.501,0.932,0.048,1.49
	c3.49,3.545,1.606,8.208-1.82,10.286c-3.465,2.102-7.256,2.44-11.164,1.958c-3.468-0.428-6.925-0.944-10.385-1.439
	c-2.393-0.342-2.942-0.892-2.916-3.291c0.08-7.616-0.16-15.228-0.221-22.842c-0.01-1.245-0.271-1.521-1.531-1.251
	c-5.842,1.249-11.457,0.85-16.529-2.697c-0.986-0.689-1.901-2.004-2.876-2.03c-0.925-0.025-1.853,1.309-2.836,1.961
	c-1.912,1.266-3.954,1.23-5.251-0.019c-1.497-1.442-1.76-3.81-0.437-5.803c2.711-4.082,6.482-6.968,10.802-9.175
	c1.408-0.719,2.853-1.368,4.356-2.085c-0.272-0.545-0.808-0.659-1.211-0.899c-8.277-4.93-13.119-12.216-14.867-21.628
	c-0.215-1.156-0.072-2.055,1.127-2.834c3.566-2.316,5.724-2.269,8.589,0.953c2.958,3.326,6.537,4.623,10.878,4.201
	c1.124-0.109,1.686-0.322,1.165-1.662c-0.455-1.171-1.058-2.334-1.04-3.663c0.012-0.899,0.159-1.715,1.231-1.796
	c0.936-0.07,1.801,0.192,2.176,1.198c0.466,1.249,0.884,2.517,1.36,3.762c0.161,0.423,0.115,1.082,0.936,0.932
	c0.634-0.116,0.991-0.361,1.114-1.045c0.28-1.562,0.671-3.104,0.958-4.665c0.18-0.979,0.664-1.567,1.668-1.273
	c0.895,0.261,1.844,0.66,1.729,1.889c-0.1,1.073-0.068,2.218-0.452,3.19c-0.556,1.407,0.177,1.649,1.22,1.9
	c5.061,1.218,9.289,3.762,12.491,7.916c1.336,1.733,2.232,3.7,2.828,5.78c0.42,1.468,1.434,0.716,2.234,0.764
	c0.862,0.052,1.273-0.326,1.298-1.263c0.102-3.721,0.567-7.378,2.231-10.782c3.491-7.142,8.894-11.501,17.133-11.467
	c7.486,0.031,13.941,4.709,15.092,13.22c0.668,4.94,0.073,9.872-0.096,14.797c-0.172,4.978-0.339,9.976-1.162,14.91
	c-0.442,2.649-1.051,5.229-2.885,7.356c-3.622,4.201-9.47,3.725-13.447,1.024c-1.194-0.811-2.28-1.792-3.12-2.967
	c-2.13-2.979-4.991-3.525-8.328-2.67c-1.348,0.345-2.639,0.835-3.894,1.431C123.026,61.401,120.278,60.613,117.164,55.692z
	 M111.991,26.121c0.159,1.257-0.127,2.305-0.325,3.358c-1.316,7.011-8.998,10.488-14.681,7.141
	c-3.356-1.976-5.084-6.116-4.286-10.138c0.149-0.753,0.226-1.127-0.717-1.187c-3.565-0.224-6.43-1.916-8.914-4.37
	c-0.657-0.649-1.308-1.308-2.006-1.91c-0.513-0.442-1.132-0.481-1.724-0.124c-0.598,0.361-0.337,0.913-0.226,1.388
	c1.075,4.608,2.867,8.856,5.958,12.529c2.801,3.329,5.923,6.144,10.23,7.314c0.929,0.252,1.918,0.272,2.864,0.474
	c0.781,0.167,1.295,0.705,1.266,1.524c-0.029,0.835-0.45,1.519-1.344,1.64c-1.81,0.244-3.444,1.027-5.121,1.647
	c-4.779,1.766-9.09,4.303-12.612,8.057c-0.599,0.639-1.187,1.288-1.532,2.107c-0.183,0.434-0.336,0.959,0.096,1.273
	c0.406,0.295,0.755-0.157,1.062-0.382c1.41-1.032,2.762-2.148,4.209-3.124c1.367-0.922,2.186-0.664,2.966,0.794
	c0.547,1.022,1.32,1.816,2.24,2.505c4.403,3.297,9.31,3.494,14.401,2.267c7.715-1.86,16.599-7.787,16.832-18.644
	C120.747,34.611,117.446,28.731,111.991,26.121z M138.876,33.663c-0.702,0.941-1.275,1.795-1.936,2.577
	c-1.424,1.685-3.318,2.552-5.463,2.242c-1.955-0.282-3.838,0.249-5.761,0.093c-1.381-0.112-2.008,0.521-1.928,2.003
	c0.204,3.763-0.925,7.24-2.858,10.386c-0.816,1.328-0.871,2.233-0.126,3.561c1.263,2.251,2.452,2.882,4.734,1.775
	c1.821-0.883,3.714-1.47,5.655-1.953c4.738-1.18,8.86-0.441,11.907,3.777c0.943,1.306,2.194,2.313,3.631,3.053
	c3.545,1.825,7.274,0.402,8.69-3.324c0.568-1.493,0.867-3.06,1.068-4.641c0.91-7.149,1.082-14.35,1.505-21.533
	c0.158-2.672,0.02-5.336-0.532-7.98c-0.541-2.59-1.986-4.507-4.204-6.236c0.109,1.438,0.217,2.644,0.29,3.853
	c0.288,4.778-0.571,9.312-3.06,13.446c-1.3,2.159-3.225,3.164-5.827,2.953C141.955,37.495,140.361,35.786,138.876,33.663z
	 M150.21,21.537c-0.173-1.414-0.325-2.896-0.548-4.368c-0.125-0.828-0.393-1.626-1.402-1.782c-3.799-0.59-7.441-0.088-10.573,2.198
	c-5.105,3.726-7.491,8.925-7.762,15.196c-0.051,1.18,0.426,1.835,1.346,2.3s1.802,0.251,2.587-0.357
	c0.789-0.612,1.306-1.427,1.693-2.345c1.105-2.622,1.812-5.341,2.033-8.178c0.088-1.123,0.572-1.915,1.747-1.935
	c1.12-0.019,1.597,0.807,1.736,1.802c0.128,0.915,0.195,1.84,0.24,2.763c0.086,1.8,0.236,3.582,0.929,5.275
	c0.52,1.27,1.349,2.264,2.759,2.389c1.429,0.127,2.207-0.935,2.833-2.034C149.747,29.093,150.167,25.394,150.21,21.537z
	 M112.58,58.966c-3.472,1.502-3.473,1.502-3.412,4.93c0.012,0.668,0.036,1.336,0.037,2.004c0.01,6.218,0.074,12.436-0.018,18.652
	c-0.022,1.526,0.441,1.959,1.905,2.097c3.01,0.283,5.998,0.804,8.996,1.216c3.066,0.421,5.949-0.151,8.523-1.862
	c2.499-1.661,2.296-4.459-0.32-5.866c-0.775-0.417-1.569-0.727-2.437-0.897c-2.503-0.492-5.016-0.196-7.526-0.156
	c-2.66,0.043-4.589-1.287-5.004-3.575c-0.247-1.359-0.426-2.734-0.424-4.132C112.903,67.27,112.906,63.162,112.58,58.966z
	 M116.508,63.599c-0.13,3.561-0.418,7.009,0.116,10.433c0.214,1.374,0.796,2.001,2.326,1.948c2.861-0.099,5.758-0.445,8.574,0.434
	c0.569,0.177,0.869-0.158,1.183-0.498c2.164-2.344,4.237-4.761,5.816-7.552c0.531-0.939,0.985-1.925,1.043-3.031
	c0.085-1.606-0.707-2.323-2.257-1.992c-1.004,0.215-1.947,0.613-2.85,1.127c-2.245,1.279-3.856,3.212-5.425,5.184
	c-1.818,2.283-3.112,2.273-4.73-0.15C119.006,67.556,117.771,65.568,116.508,63.599z M96.23,28.521
	c-0.036,4.141,3.139,6.802,6.964,5.721c3.016-0.852,4.604-2.976,5.158-6.056c0.775-4.308-0.587-4.758-4.5-4.299
	c-1.568,0.184-3.093,0.711-4.65,1.023C97.114,25.328,96.249,26.347,96.23,28.521z"/>
<path fill="#111212" d="M134.32,165.824c-1.357-0.018-2.584-0.125-3.762-0.513c-1.823-0.6-3.236-1.601-3.383-3.724
	c-0.126-1.825,1.251-4.011,3.034-4.804c1.784-0.794,3.615-1.493,5.553-1.755c1.139-0.154,1.381-0.664,1.345-1.723
	c-0.096-2.877-0.278-5.766,0.17-8.628c0.114-0.73-0.29-1.021-0.721-1.38c-1.93-1.61-3.145-3.646-3.563-6.125
	c-0.139-0.825-0.528-1.165-1.356-1.373c-2.251-0.565-4.291-1.587-5.328-3.812c-1.767-3.795-0.381-6.974,3.782-8.809
	c0.885-0.39,1.839-0.778,2.783-0.842c1.119-0.075,1.152-0.611,1.18-1.483c0.187-5.759,0.375-11.519,0.69-17.271
	c0.07-1.275-0.107-2.049-1.178-2.923c-2.87-2.341-3.529-6.528-1.913-10.301c1.695-3.957,4.791-5.867,8.984-6.118
	c1.594-0.096,2.942-0.381,4.316-1.475c3.157-2.514,6.894-3.409,10.887-2.474c3.414,0.799,4.777,3.536,5.544,6.58
	c0.729,2.894,1.077,5.881,1.191,8.855c0.416,10.797,0.791,21.596,0.151,32.401c-0.159,2.682-1.193,4.972-2.834,7.019
	c-0.837,1.044-2.051,1.546-3.323,1.785c-0.98,0.185-1.272,0.577-1.257,1.61c0.124,8.337-0.259,16.668-0.438,25.001
	c-0.035,1.634-0.089,3.302-0.763,4.842c-1.201,2.742-3.294,4.395-6.227,4.976c-3.1,0.614-6.215,0.808-9.345,0.253
	C133.746,172.763,132.371,170.315,134.32,165.824z M129.989,130.845c-0.059-0.055-0.116-0.113-0.181-0.159
	c-0.007-0.005-0.064,0.059-0.098,0.092c0.065,0.05,0.13,0.1,0.194,0.15c0.577,1.309,1.848,1.558,3.01,1.79
	c6.531,1.305,13.139,1.806,19.788,1.518c3.542-0.154,5.182-1.556,6.072-4.811c0.242-0.884,0.422-1.805,0.469-2.717
	c0.518-10.077,0.519-20.157-0.033-30.23c-0.18-3.277-0.433-6.572-1.467-9.729c-0.459-1.4-1.171-2.592-2.679-3.168
	c-2.558-0.976-7.347,0.492-8.69,2.855c-0.687,1.209-1.516,1.559-2.872,1.436c-4.655-0.422-7.189,0.994-8.697,4.659
	c-0.795,1.932-0.532,3.795,0.696,5.373c1.113,1.429,2.783,1.313,4.408,0.946c0.449-0.102,0.917-0.206,1.371-0.183
	c0.944,0.046,1.811,0.463,1.9,1.448c0.085,0.941-0.338,1.818-1.463,2.015c-0.807,0.141-1.617,0.284-2.432,0.352
	c-0.478,0.04-0.736,0.108-0.754,0.685c-0.04,1.334-0.194,2.664-0.248,3.998c-0.211,5.241-0.404,10.483-0.599,15.725
	c-0.055,1.487-0.654,2.312-2.282,2.526c-1.693,0.223-3.52,0.317-5.043,1.755c5.141,0.329,10.067,0.616,14.987,0.981
	c1.107,0.082,1.582-0.29,1.746-1.355c0.308-2,0.13-4.006,0.195-6.008c0.023-0.706-0.408-0.665-0.906-0.688
	c-0.866-0.041-1.745,0.103-2.594-0.23c-1.03-0.403-1.404-1.127-1.208-2.192c0.183-0.995,0.828-1.336,1.772-1.32
	c3.496,0.058,6.994,0.056,10.484,0.336c0.635,0.051,1.182,0.263,1.702,0.641c0.694,0.505,0.822,1.176,0.598,1.909
	c-0.23,0.751-0.774,1.197-1.606,1.169c-1.028-0.035-2.072,0.011-3.079-0.161c-1.146-0.196-1.563,0.076-1.538,1.305
	c0.042,2.052,0.155,4.125-0.289,6.153c-0.783,3.581-1.735,4.008-4.474,3.837c-0.616-0.038-1.235-0.013-1.852-0.042
	C139.529,131.28,134.772,130.787,129.989,130.845z M151.198,164.168c0.395-0.499,0.241-1.085,0.245-1.624
	c0.045-7.25,0.067-14.501,0.107-21.751c0.016-2.967,0.03-2.974-2.896-3.166c-3.938-0.258-7.877-0.504-11.913-0.762
	c0.364,1.79,1.176,3.269,2.659,4.191c1.471,0.915,1.989,2.037,1.662,3.725c-0.56,2.899-0.28,5.844-0.319,8.77
	c-0.005,0.35-0.08,0.714,0.236,1.006c0.961,0.89,1.91,1.794,3.191,3.001c0-1.139,0.004-1.886-0.001-2.632
	c-0.025-4.062-0.035-8.124-0.087-12.186c-0.015-1.207,0.484-2.107,1.654-2.205c1.281-0.107,1.735,0.889,1.789,2.034
	c0.067,1.438,0.177,2.88,0.131,4.317c-0.145,4.555,0.54,9.155-0.68,13.655c-0.128,0.47,0,0.733,0.418,1.006
	C148.677,162.385,149.922,163.283,151.198,164.168z M142.257,170.719c0.514,0,1.033,0.051,1.54-0.009
	c2.094-0.247,4.196-0.49,5.872-1.984c0.533-0.476,0.768-0.81-0.036-1.38c-1.378-0.976-2.602-2.171-4.136-2.927
	c-0.45-0.222-0.919-0.644-1.428-0.454c-2.552,0.951-5.098,1.948-6.894,4.146c-0.676,0.828-0.475,1.482,0.561,1.888
	C139.195,170.572,140.698,170.815,142.257,170.719z M142.241,160.717c-1.202-0.961-1.708-2.677-3.119-2.622
	c-2.545,0.1-5.094,0.57-7.439,1.708c-0.632,0.307-1.122,0.902-1.041,1.578c0.096,0.796,0.944,0.93,1.575,0.971
	C135.583,162.572,138.877,162.253,142.241,160.717z"/>
<path fill="#111212" d="M39.14,53.605c0.084-0.522,0.011-1.603,0.438-2.424c1.176-2.264,1.216-4.634,1.138-7.071
	c-0.018-0.557-0.06-0.97-0.514-1.341c-2.619-2.143-2.462-5.323-0.781-8.395c0.311-0.569,0.44-1.021,0.381-1.692
	c-0.691-7.985,4.2-18.669,14.246-21.1c6.984-1.69,13.948,1.092,17.599,8.122c1.644,3.165,2.714,6.542,3.002,10.124
	c0.14,1.748,0.846,3.363,1.048,5.114c0.279,2.417-0.345,4.476-1.784,6.33c-0.42,0.541-0.713,0.981-0.329,1.635
	c0.075,0.127,0.141,0.315,0.104,0.443c-0.764,2.649,0.593,5.014,0.987,7.507c0.837,5.282-2.539,7.749-6.713,8.275
	c-1.897,0.239-2.495,1.809-3.577,2.831c-0.495,0.468,0.646,1.21,1.01,1.844c0.325,0.567,0.71,0.052,0.995-0.137
	c1.377-0.912,2.794-1.707,4.43-2.087c2.023-0.471,4.115,0.136,4.975,1.518c0.802,1.289,0.598,3.652-0.638,5.05
	c-2.056,2.325-4.728,3.579-7.792,3.919c-1.637,0.182-2.511-0.91-3.157-2.239c-0.806-1.658-1.641-3.302-2.429-4.968
	c-0.338-0.714-0.696-0.963-1.532-0.622c-2.965,1.21-5.989,1.405-8.985,0.105c-0.792-0.344-1.08-0.082-1.386,0.601
	c-0.549,1.227-0.955,2.482-1.173,3.812c-0.473,2.875-1.555,3.572-4.385,2.832c-1.797-0.47-3.503-1.175-5.058-2.206
	c-1.864-1.235-2.674-2.962-2.203-4.659c0.505-1.817,2.482-3.259,4.545-3.335c1.481-0.054,2.837,0.355,4.13,1.042
	c0.315,0.168,0.644,0.671,1.014,0.095c0.255-0.396,0.395-0.779-0.053-1.22c-0.796-0.783-1.407-1.478-2.825-1.367
	C41.175,60.155,39.11,57.393,39.14,53.605z M45.134,32.576c4.095-0.196,8.306-0.319,12.503-0.621
	c4.146-0.298,8.279-0.779,12.418-1.175c0.872-0.083,1.139-0.401,1.026-1.389c-0.298-2.595-1.273-4.945-2.22-7.331
	c-2.926-7.375-11.92-8.876-17.628-5.496c-5.532,3.276-7.235,8.611-7.797,14.562C43.317,32.379,43.653,33.024,45.134,32.576z
	 M72.174,35.742c-0.39-0.43,0.653-1.79-1.075-1.622c-8.233,0.798-16.47,1.552-24.749,1.685c-0.922,0.015-1.847,0.122-2.761,0.254
	c-1.232,0.179-1.387,1.24-1.616,2.174c-0.182,0.742-0.01,1.538,0.594,1.965c0.796,0.563,1.45-0.224,2.067-0.584
	c3.623-2.117,4.659-2.041,7.687,0.823c0.83,0.785,1.645,0.956,2.614,0.322c0.516-0.337,1.046-0.652,1.575-0.967
	c3.004-1.787,5.992-2.334,9.026-0.015c1.186,0.906,2.541,1.45,4.002,0.613C71.265,39.403,72.272,37.943,72.174,35.742z
	 M58.563,47.85c2.62,0,5.242,0.069,7.859-0.023c1.89-0.067,3.313-1.354,3.606-3.014c0.087-0.495,0.307-1.009-0.676-0.82
	c-2.172,0.417-4.244-0.072-5.951-1.448c-1.628-1.311-3.083-1.053-4.634-0.014c-0.511,0.342-1.051,0.642-1.573,0.968
	c-2.794,1.74-5.33,1.473-7.629-0.904c-0.75-0.776-1.422-1.441-2.423-0.485c-0.735,0.702-2.027,0.755-2.396,1.784
	c-0.86,2.399,0.139,3.762,2.727,3.871c0.769,0.032,1.547,0.047,2.31-0.031C52.711,47.434,55.637,47.737,58.563,47.85z
	 M70.847,50.085c-2.282,1.057-4.633,1.176-7.004,1.162c-4.005-0.022-8.012-0.362-12.015-0.021c-1.996,0.17-3.969,0.391-5.98,0.02
	c-2.196-0.405-2.498-0.11-2.78,2.154c-0.044,0.354-0.066,0.718-0.034,1.072c0.177,1.951,0.79,2.341,2.595,1.658
	c0.575-0.218,1.128-0.495,1.703-0.711c4.863-1.826,9.741-3.3,14.849-0.804c0.869,0.425,1.798,0.752,2.731,1.016
	C69.307,56.872,71.747,54.646,70.847,50.085z M62.494,58.553c-3.895-2.497-7.899-2.135-11.989-0.631
	c-1.048,0.386-1.227,0.612-0.352,1.437C53.685,62.687,59.021,62.367,62.494,58.553z M72.025,64.968
	c-0.961,0.027-2.824,0.905-4.31,1.903c-0.474,0.319-0.675,0.587-0.419,1.097c0.243,0.482,0.523,0.861,1.19,0.65
	c1.543-0.486,2.867-1.334,4.082-2.372c0.305-0.26,0.347-0.628,0.234-0.987C72.679,64.862,72.322,64.969,72.025,64.968z
	 M41.906,64.848c-0.434,0.042-0.973,0.025-1.161,0.522c-0.208,0.549,0.279,0.855,0.66,1.077c0.836,0.486,1.694,0.942,2.578,1.33
	c0.285,0.125,0.829,0.557,0.981-0.118c0.099-0.438,0.54-0.96-0.012-1.413C44.067,65.519,43.083,65,41.906,64.848z"/>
<path fill="#111212" d="M57.994,101.844c-4.429,0.185-9.464,0.4-14.501,0.6c-0.821,0.033-1.648,0.026-2.468-0.021
	c-2.377-0.135-2.71-0.629-2.882-2.999c-0.504-6.938,0.193-13.882-0.188-20.82c-0.158-2.87,0.591-3.608,3.454-3.601
	c2.833,0.007,5.646-0.163,8.458-0.494c0.84-0.099,1.147-0.46,1.247-1.205c0.219-1.637,0.801-3.179,1.316-4.733
	c0.485-1.463,2.039-1.785,3.175-0.74c1.582,1.454,2.582,3.341,3.628,5.143c1.727,2.976,4.038,3.859,7.341,3.059
	c2.866-0.694,5.812-0.61,8.725-0.006c2.465,0.511,3.332,1.55,3.324,4.133c-0.015,4.424-0.071,8.852,0.359,13.26
	c0.2,2.049,0.465,4.081,0.253,6.145c-0.184,1.793-0.815,2.511-2.588,2.601c-4.529,0.231-9.043-0.287-13.568-0.319
	C61.587,101.835,60.095,101.844,57.994,101.844z M41.328,94.484c1.142-0.429,2.156-0.624,2.933,0.352
	c0.468,0.587,0.627,1.236,0.193,1.99c-0.616,1.072-1.519,1.026-2.506,0.8c-0.312-0.071-0.652-0.189-0.614,0.312
	c0.031,0.41-0.221,1.011,0.501,1.093c0.458,0.052,0.925,0.05,1.387,0.033c10.281-0.387,20.561-0.651,30.842,0.039
	c1.912,0.128,2.013,0.033,1.808-1.97c-0.55-5.383-0.685-10.772-0.39-16.171c0.055-1-0.287-1.436-1.293-1.684
	c-2.888-0.713-5.73-0.317-8.561,0.199c-3.627,0.661-6.473-0.352-8.467-3.545c-0.608-0.973-1.322-1.879-2.154-3.048
	c-0.204,1.156-0.346,2-0.503,2.841c-0.277,1.483-1.027,2.341-2.681,2.384c-2.259,0.059-4.523,0.211-6.766,0.481
	c-1.122,0.135-2.664-0.624-3.239,0.276c-0.538,0.842-0.178,2.296-0.117,3.475C41.909,86.354,40.96,90.33,41.328,94.484z"/>
<path fill="#111212" d="M96.966,95.629c2.555-0.925,4.946-1.654,7.54-1.232c1.062,0.173,1.965,0.621,2.742,1.306
	c1.583,1.398,1.537,3.097,0.145,4.679c-2.426,2.758-5.794,4.02-8.865,5.737c-3.462,1.936-6.943,3.812-9.693,6.756
	c-0.667,0.714-1.368,1.416-1.713,2.353c-0.372,1.009-1.099,1.316-2.069,1.097c-0.982-0.222-1.244-0.962-1.486-1.893
	c-1.029-3.961-0.318-8.081-1.203-12.049c-0.547-2.454-1.382-4.844-1.639-7.361c-0.078-0.765-0.174-1.534-0.166-2.3
	c0.014-1.415,0.162-2.746,1.678-3.517c1.589-0.808,3.238-0.567,4.324,0.46c1.486,1.405,2.172,1.106,3.44-0.248
	c1.219-1.302,2.786-2.455,4.917-1.898c2.162,0.566,3.546,2.558,3.075,4.755C97.758,93.357,97.347,94.401,96.966,95.629z
	 M89.474,107.619c4.071-2.99,8.534-4.847,12.734-7.183c0.762-0.424,1.473-0.933,2.069-1.588c0.526-0.578,0.409-0.903-0.362-0.968
	c-1.397-0.119-2.764,0.06-4.117,0.416c-2.349,0.617-4.474,1.767-6.671,2.749c-0.887,0.396-1.747,0.258-2.418-0.396
	c-0.674-0.657-0.342-1.462,0.016-2.146c0.402-0.77,0.893-1.497,1.393-2.211c0.885-1.264,1.741-2.54,2.191-4.035
	c0.133-0.444,0.301-1.033-0.077-1.309c-0.374-0.273-0.884,0.067-1.265,0.325c-1.561,1.055-2.377,2.671-3.094,4.319
	c-0.475,1.091-1.144,1.958-2.355,1.848c-1.302-0.118-1.609-1.237-1.747-2.375c-0.129-1.059-0.41-2.058-1.54-2.94
	c-0.506,4.532,1.775,8.37,1.966,12.546c0.171-0.271,0.292-0.552,0.318-0.842c0.113-1.269,0.748-2.088,2.058-1.957
	c1.362,0.136,1.606,1.192,1.613,2.385C90.193,105.351,89.619,106.309,89.474,107.619z"/>
<path fill="#111212" d="M112.572,106.633c1.727,2.866,3.107,5.645,2.991,8.935c-0.126,3.556-2.959,6.463-6.493,6.729
	c-1.897,0.143-3.224-0.641-4.066-2.192c-0.913-1.681-0.989-3.457,0.186-5.095c1.43-1.995,3.321-3.156,5.97-3
	c-0.563-1.39-1.102-2.761-2.166-3.719c-0.768-0.691-1.023-1.483-1.206-2.381c-0.257-1.259,0.181-2.186,1.491-2.393
	c5.579-0.882,11.064-2.294,16.677-2.966c1.915-0.229,2.372,0.292,2.786,2.196c0.621,2.858,1.402,5.676,1.213,8.654
	c-0.254,4.015-1.321,7.583-4.994,9.856c-2.061,1.275-4.483,1.151-5.939-0.332c-1.484-1.51-1.536-4.099-0.136-6.106
	c1.625-2.331,3.903-3.759,6.529-4.673c0.783-0.273,1.077-0.533,0.939-1.492c-0.686-4.767-0.639-4.762-5.31-3.762
	C118.284,105.484,115.517,106.03,112.572,106.633z M126.248,113.425c-1.992,1.041-3.875,1.67-4.685,3.68
	c-0.226,0.56-0.248,1.119,0.273,1.54c0.542,0.437,1.029,0.17,1.533-0.148C125.112,117.4,125.768,115.686,126.248,113.425z
	 M111.887,114.731c-0.999,0.45-2.011,0.799-2.908,1.34c-0.919,0.555-1.439,1.492-0.675,2.452c0.744,0.935,1.671,0.44,2.401-0.184
	C111.795,117.408,112.226,116.218,111.887,114.731z"/>
<path fill="#111212" d="M94.072,125.125c0.166-2.021,1.545-3.867,3.267-5.45c0.863-0.793,0.905-1.289,0.151-2.18
	c-1.56-1.842-1.526-1.903-3.06,0.072c-1.985,2.556-3.927,5.145-5.905,7.707c-0.533,0.691-1.113,1.348-1.702,1.992
	c-0.869,0.95-1.96,1.076-2.874,0.263c-0.974-0.865-0.713-1.794,0.166-2.788c3.272-3.696,5.99-7.849,9.365-11.465
	c0.105-0.112,0.198-0.236,0.301-0.35c2.083-2.297,2.891-2.296,4.755,0.069c2.037,2.583,4.077,5.165,6.053,7.794
	c0.672,0.895,1.227,1.897,1.712,2.91c1.598,3.336,0.483,6.369-2.855,7.92C99.554,133.429,94.027,129.871,94.072,125.125z
	 M103.495,126.28c-0.136-1.213-0.982-2.209-1.677-3.268c-1.245-1.899-1.263-1.888-2.82-0.144c-2.248,2.517-1.544,4.845,1.71,5.649
	C102.28,128.906,103.457,128.014,103.495,126.28z"/>
<path fill="#111212" d="M110.101,15.839c0-2.544,1.326-3.655,2.993-4.542c1.76-0.936,3.432-0.718,4.847,0.574
	c1.022,0.933,1.778,1.6,2.924,0.156c0.447-0.563,1.265-0.86,1.954-1.198c1.623-0.796,3.354-1.264,4.997-0.248
	c1.781,1.101,2.023,3,1.958,4.899c-0.068,1.972-1.026,3.658-2.084,5.227c-1.089,1.616-2.101,3.263-3.015,4.982
	c-0.551,1.036-1.629,1.431-2.422,0.629c-2.738-2.771-6.504-3.865-9.542-6.111C111.124,19.032,110.031,17.513,110.101,15.839z
	 M126.232,15.443c0.078-1.916-0.519-2.306-1.925-1.607c-1.233,0.612-1.944,1.658-2.349,2.912c-0.324,1.004-0.95,1.452-1.986,1.621
	c-1.045,0.171-1.469-0.508-1.984-1.117c-0.429-0.508-0.778-1.088-1.232-1.57c-0.582-0.618-1.09-1.43-2.151-1.223
	c-0.449,0.088-0.754,0.353-0.785,0.82c-0.074,1.095,0.69,1.699,1.472,2.176c1.574,0.959,3.217,1.803,4.813,2.727
	c0.918,0.532,1.798,1.127,2.696,1.694c0.555-0.907,1.116-1.81,1.663-2.721C125.227,17.885,126.111,16.667,126.232,15.443z"/>
<path fill="#111212" d="M84.249,72.604c0.095-1.986,0.241-3.781,0.248-5.576c0.005-1.328,0.729-1.927,1.876-1.955
	c1.249-0.03,1.838,0.799,1.804,2.009c-0.049,1.73-0.152,3.458-0.244,5.457c1.538-1.082,1.7-2.47,1.859-3.876
	c0.131-1.157-0.274-2.343,0.267-3.483c0.585-1.231,1.621-1.432,2.492-0.407c0.23,0.27,0.444,0.582,0.564,0.911
	c1.27,3.498-0.627,8.498-3.952,10.236c-0.869,0.454-1.308,0.914-1.305,1.959c0.005,1.899-0.176,3.799-0.274,5.698
	c-0.043,0.828-0.122,1.662-0.58,2.368c-0.433,0.667-1.221,0.677-1.817,0.46c-0.887-0.324-1.29-1.118-1.25-2.091
	c0.094-2.26,0.189-4.52,0.277-6.78c0.017-0.446,0.095-0.837-0.52-1.094c-3.642-1.52-5.523-5.932-4.552-10.742
	c0.051-0.251,0.126-0.504,0.127-0.756c0.006-1.243,0.75-1.766,1.858-1.778c1.369-0.015,1.562,1.021,1.473,2.04
	c-0.162,1.853-0.347,3.686,0.377,5.472C83.242,71.33,83.461,72.005,84.249,72.604z"/>
<path fill="#111212" d="M103.928,80.844c0,2.107-0.003,4.215,0.001,6.322c0.002,1.154-0.151,2.219-1.591,2.376
	c-1.057,0.115-1.945-0.832-1.995-2.256c-0.079-2.26-0.097-4.524-0.05-6.785c0.021-1.004-0.262-1.3-1.3-1.253
	c-1.826,0.082-3.631,0.667-5.496,0.122c-1.232-0.36-1.672-0.974-1.351-2.233c0.532-2.085,1.839-3.76,2.869-5.578
	c0.985-1.738,2.03-3.447,3.128-5.115c0.69-1.048,1.812-1.559,3.028-1.458c1.132,0.094,1.467,1.05,1.712,2.074
	C103.974,71.605,104.092,76.211,103.928,80.844z M99.573,71.387c-1.262,1.597-2.077,2.968-2.773,4.471
	c3.004,0.279,3.005,0.279,2.883-2.518C99.661,72.838,99.627,72.336,99.573,71.387z"/>
<path fill="#111212" d="M53.366,142.635c0.753,0.02,1.375,0.357,1.687,1.194c0.268,0.72,0.555,1.434,0.868,2.135
	c1.825,4.085,4.999,6.008,9.44,5.673c4.258-0.321,7.035-2.783,8.811-6.509c0.211-0.443,0.218-0.99,0.289-1.494
	c0.194-1.392,0.966-2.149,2.073-1.905c1.307,0.288,1.739,1.247,1.476,2.449c-0.755,3.447-2.521,6.252-5.47,8.262
	c-4.934,3.363-11.709,3.365-16.202,0.029c-2.667-1.98-3.84-4.871-4.82-7.862C51.185,143.594,52.112,142.656,53.366,142.635z"/>
<path fill="#111212" d="M115.216,185.158c-0.426,0.987-0.367,1.822-0.472,2.632c-0.165,1.268-1.205,2.354-2.13,2.151
	c-1.281-0.281-1.83-1.088-1.602-2.441c0.107-0.636,0.018-1.305,0.018-2.255c-0.872,1.164-1.582,2.113-2.048,3.249
	c-0.585,1.426-1.531,1.829-2.778,1.256c-1.079-0.496-1.485-1.834-0.766-3.013c1.547-2.536,3.141-5.044,4.787-7.517
	c0.68-1.021,1.697-1.34,2.778-0.564c2.548,1.829,4.905,3.886,7,6.224c0.681,0.76,1.107,1.761,0.424,2.666
	c-0.793,1.05-1.849,0.415-2.621-0.091C116.886,186.852,116.135,185.992,115.216,185.158z"/>
<path fill="#111212" d="M161.79,150.227c0.308,4.232-0.668,8.381-0.792,12.585c-0.029,0.974-0.12,1.946-0.165,2.92
	c-0.054,1.173-0.327,2.181-1.787,2.133c-1.422-0.047-1.76-1.148-1.774-2.235c-0.024-1.846,0.08-3.7,0.247-5.54
	c0.481-5.282,0.563-10.562,0.089-15.848c-0.098-1.091-0.007-2.097,1.371-2.315c1.356-0.214,2.209,0.404,2.504,1.848
	C161.919,145.908,161.701,148.077,161.79,150.227z"/>
<path fill="#111212" d="M156.554,185.241c-6.757-0.708-13.555-0.489-20.326-0.899c-1.261-0.076-2.055-0.566-2.424-1.72
	c-0.387-1.21,0.493-2.381,1.743-2.25c6.852,0.717,13.752,0.638,20.608,1.275c0.613,0.057,1.239,0.108,1.828,0.272
	c0.989,0.276,1.91,0.844,1.713,1.983c-0.186,1.078-1.069,1.572-2.218,1.408C157.171,185.266,156.861,185.262,156.554,185.241z"/>
<path fill="#111212" d="M65.169,137.149c2.74,0.021,5.08,2.439,5.127,5.296c0.049,3.057-2.831,5.799-6.054,5.763
	c-3.052-0.034-5.627-2.707-5.604-5.818C58.657,139.624,61.774,137.123,65.169,137.149z M66.633,142.35
	c-0.093-0.969-0.589-1.753-1.741-1.844c-1.236-0.098-2.436,1.016-2.488,2.197c-0.045,1.025,0.998,2.121,2.007,2.109
	C65.483,144.798,66.601,143.619,66.633,142.35z"/>
<path fill="#111212" d="M147.852,176.215c3.083,0,6.165,0,9.248,0c0.359,0,0.721-0.026,1.076,0.012
	c1.055,0.112,2.02,0.548,2.016,1.703c-0.005,1.244-0.973,1.689-2.135,1.715c-6.582,0.149-13.154-0.282-19.732-0.364
	c-0.566-0.007-1.106-0.144-1.568-0.533c-0.672-0.567-0.841-1.27-0.612-2.079c0.241-0.854,0.903-0.999,1.691-0.995
	c3.338,0.017,6.677,0.007,10.016,0.007C147.852,175.859,147.852,176.037,147.852,176.215z"/>
<path fill="#111212" d="M148.436,77.832c-3.273,0.031-6.047-1.168-8.756-2.529c-1.172-0.589-1.11-1.68-0.568-2.647
	c0.486-0.867,1.383-0.941,2.258-0.6c0.52,0.202,0.992,0.526,1.489,0.789c4.046,2.141,8.122,1.523,12.206,0.131
	c0.579-0.197,1.147-0.445,1.741-0.576c1.064-0.236,2.062-0.008,2.327,1.155c0.221,0.972-0.334,1.797-1.301,2.134
	C154.738,76.767,151.601,77.693,148.436,77.832z"/>
<path fill="#111212" d="M37.635,146.353c0.297-5.445,2.01-10.277,4.935-14.687c0.818-1.234,2.012-1.612,2.856-0.898
	c1.003,0.848,0.813,1.844,0.142,2.864c-2.388,3.626-3.813,7.591-4.106,11.94c-0.024,0.355-0.046,0.718,0.002,1.067
	c0.233,1.703-0.15,2.359-1.539,2.577c-1.316,0.206-2.023-0.445-2.241-2.079C37.643,146.834,37.644,146.523,37.635,146.353z"/>
<path fill="#111212" d="M149.691,71.571c-2.878-0.002-5.573-0.594-7.946-2.357c-0.859-0.638-1.094-1.329-0.585-2.231
	c0.497-0.879,1.293-1.175,2.224-0.787c1.318,0.55,2.568,1.247,3.988,1.556c3.115,0.678,5.882,0.031,8.312-2.038
	c0.193-0.164,0.371-0.35,0.582-0.486c0.873-0.565,1.788-0.619,2.513,0.158c0.755,0.808,0.573,1.739-0.154,2.478
	c-2.077,2.111-4.556,3.448-7.551,3.701C150.617,71.605,150.153,71.571,149.691,71.571z"/>
<path fill="#111212" d="M78.213,46.595c-0.753,0.018-1.392-0.167-1.717-0.842c-0.315-0.655-0.271-1.432,0.314-1.832
	c2.531-1.731,2.779-3.537,0.538-5.745c-0.638-0.629-0.65-1.65,0.229-2.299c0.885-0.653,1.872-0.749,2.607,0.178
	c1.079,1.36,2.102,2.743,3.414,3.915c0.686,0.612,0.535,1.602-0.07,2.236c-1.344,1.405-2.785,2.717-4.211,4.041
	C79.02,46.523,78.606,46.655,78.213,46.595z"/>
<path fill="#111212" d="M39.885,20.403c-1.435-0.045-2.199-1.311-1.455-2.613c1.226-2.143,2.832-4.026,4.39-5.931
	c0.644-0.787,1.58-0.813,2.344-0.222c0.885,0.684,1.028,1.69,0.393,2.608c-0.727,1.051-1.611,1.993-2.409,2.997
	c-0.606,0.762-1.264,1.501-1.746,2.338C41.026,20.233,40.51,20.353,39.885,20.403z"/>
<path fill="#111212" d="M61.487,132.844c-0.705-0.078-1.427-0.09-2.115-0.251c-0.939-0.22-1.329-1.044-1.305-1.858
	c0.025-0.839,0.757-1.359,1.565-1.445c1.521-0.162,3.054-0.212,4.583-0.287c1.155-0.057,1.924,0.514,1.97,1.655
	c0.044,1.113-0.575,1.779-1.793,1.837C63.427,132.54,62.468,132.721,61.487,132.844z"/>
<path fill="#111212" d="M149.018,40.042c1.006,0,1.882-0.044,2.751,0.01c1.397,0.087,2.137,1.277,1.441,2.48
	c-4.569,7.891-12.813,11.235-21.27,7.52c-2.249-0.988-3.777-2.812-5.196-4.704c-0.854-1.139-0.141-3.003,1.247-3.536
	c0.524-0.201,1.083-0.363,1.639-0.417c3.272-0.316,6.544-0.644,9.822-0.871C142.681,40.302,145.918,40.194,149.018,40.042z
	 M138.246,46.307c-0.022,2.05,0.101,2.14,2.243,1.791c0.368-0.06,0.955-0.298,0.891-0.415c-0.639-1.17,0.182-2.309-0.004-3.451
	c-0.036-0.223-0.126-0.328-0.35-0.407c-1.432-0.504-2.775,0.39-2.78,1.868C138.245,45.898,138.246,46.102,138.246,46.307z
	 M134.512,47.253c0.252-3.19,0.123-3.282-3.403-2.423C131.927,46.126,133.094,46.834,134.512,47.253z M145.081,46.328
	c1.076-0.838,2.028-1.495,2.687-2.614C145.159,43.435,145.133,43.461,145.081,46.328z"/>
<path fill="#111212" d="M151.838,49.924c0.799-0.008,1.398,0.388,1.755,1.05c0.378,0.702,0.268,1.467-0.36,1.956
	c-1.448,1.129-2.932,2.216-4.456,3.24c-0.799,0.537-1.466-0.018-2.011-0.578c-0.677-0.696-0.705-1.664-0.102-2.236
	c1.402-1.328,2.94-2.528,4.717-3.359C151.515,49.935,151.683,49.948,151.838,49.924z"/>
<path fill="#111212" d="M126.242,71.484c-0.055-0.423,0.218-0.863,0.479-1.301c0.764-1.282,1.747-2.396,2.783-3.453
	c0.816-0.832,1.771-0.983,2.721-0.158c0.983,0.853,0.623,1.754-0.03,2.552c-0.937,1.144-1.941,2.224-2.744,3.483
	c-0.379,0.594-1.034,1.016-1.837,0.651C126.902,72.935,126.254,72.532,126.242,71.484z"/>
<path fill="#111212" d="M155.886,98.7c-0.17,2.767-0.329,5.535-0.517,8.301c-0.069,1.023-0.589,1.833-1.651,1.85
	c-1.19,0.019-2.066-0.624-2.151-1.926c-0.06-0.92-0.068-1.856,0.025-2.772c0.264-2.614,0.305-5.231,0.243-7.853
	c-0.031-1.31,0.628-2.032,1.918-2.087c1.253-0.053,1.88,0.753,2.037,1.867c0.12,0.856,0.024,1.743,0.024,2.617
	C155.838,98.699,155.862,98.699,155.886,98.7z"/>
<path fill="#111212" d="M149.694,98.023c0,2.565,0.032,5.131-0.017,7.695c-0.018,0.937-0.463,1.764-1.516,1.806
	c-0.966,0.038-1.714-0.41-2.04-1.453c-0.176-0.563-0.19-1.11-0.172-1.668c0.096-3.029,0.223-6.057,0.313-9.086
	c0.036-1.205,0.544-2.031,1.801-1.981c1.116,0.045,1.954,0.611,1.956,1.912c0.001,0.925,0,1.85,0,2.775
	C149.912,98.023,149.803,98.023,149.694,98.023z"/>
<path fill="#111212" d="M54.968,20.692c-0.038,0.2-0.007,0.508-0.143,0.69c-1.467,1.96-2.821,4.02-4.725,5.612
	c-0.764,0.639-1.74,0.398-2.225-0.088c-0.46-0.462-0.958-1.383-0.272-2.21c1.37-1.651,2.722-3.318,4.119-4.946
	c0.623-0.726,1.483-0.916,2.377-0.619C54.775,19.357,54.86,20.022,54.968,20.692z"/>
<path fill="#111212" d="M64.499,24.089c0.109,0.774-0.24,1.391-0.952,1.706c-0.712,0.315-1.459,0.117-1.954-0.442
	c-1.046-1.183-2.088-2.387-2.973-3.689c-0.576-0.848-0.644-1.914,0.377-2.568c0.994-0.638,1.913-0.44,2.65,0.571
	c0.751,1.03,1.565,2.015,2.374,3.002C64.357,23.08,64.629,23.489,64.499,24.089z"/>
<path fill="#111212" d="M55.55,27.539c-0.189,0.968-0.569,1.785-1.715,1.798c-1.165,0.013-2.008-0.493-2.051-1.773
	c-0.04-1.184,0.588-1.815,1.791-1.779C54.695,25.818,55.366,26.39,55.55,27.539z"/>
<path fill="#111212" d="M44.901,87.378c-0.1-4.009,3.852-6.53,7.814-5.008c1.162,0.446,2.104,1.785,3.128,1.726
	c0.934-0.053,1.701-1.501,2.838-1.923c2.032-0.755,4.071-1.272,5.965,0.319c1.636,1.374,2.299,3.194,1.862,5.247
	c-0.493,2.315-2.141,3.932-3.815,5.481c-0.113,0.104-0.257,0.174-0.366,0.281c-4.6,4.516-9.877,2.552-13.668-0.125
	C45.862,91.402,44.959,89.687,44.901,87.378z M50.244,85.34c-1.494-0.028-2.332,1.283-1.585,2.646
	c1.041,1.899,2.555,3.344,4.674,3.981c1.257,0.378,2.662,1.335,3.809,0.8c2.416-1.126,4.546-2.783,5.781-5.301
	c0.379-0.773,0.275-1.492-0.305-2.129c-0.576-0.633-1.257-0.53-1.982-0.299c-1.415,0.452-2.103,1.554-2.605,2.831
	c-0.605,1.542-2.186,1.873-3.328,0.67c-0.315-0.332-0.528-0.757-0.828-1.105C52.912,86.316,51.761,85.507,50.244,85.34z"/>
</svg>
