<?xml version="1.0" encoding="utf-8"?>
<!-- Generator: Adobe Illustrator 17.0.0, SVG Export Plug-In . SVG Version: 6.00 Build 0)  -->
<!DOCTYPE svg PUBLIC "-//W3C//DTD SVG 1.1//EN" "http://www.w3.org/Graphics/SVG/1.1/DTD/svg11.dtd">
<svg version="1.1" id="Layer_1" xmlns="http://www.w3.org/2000/svg" xmlns:xlink="http://www.w3.org/1999/xlink" x="0px" y="0px"
	 width="178.353px" height="180px" viewBox="10.823 10 178.353 180" enable-background="new 10.823 10 178.353 180"
	 xml:space="preserve">
<path d="M69.334,132.506c0.07-0.018,0.141-0.035,0.211-0.053l-3.024,5.247l-0.308-0.73c0.809-0.589,1.723-1.16,1.336-2.241
	C66.812,132.673,68.139,132.787,69.334,132.506z"/>
<path d="M82.096,112.756c-0.158,0.51-0.571,0.141-0.879,0.123c-0.22-0.141-0.633-0.316-0.615-0.422
	c0.088-0.492,0.483-0.431,0.861-0.316C81.78,112.246,82.263,112.264,82.096,112.756z"/>
<path d="M85.059,113.89c0.044,0.062,0.088,0.132,0.07,0.202c-0.035,0.123-0.193,0.158-0.316,0.149
	c-0.527-0.009-1.046-0.167-1.503-0.439c-0.202-0.123-0.941-0.589-0.809-0.905c0.026-0.053,0.07-0.097,0.149-0.141
	c0.105-0.062,0.229-0.062,0.351-0.053C83.828,112.747,84.61,113.204,85.059,113.89z"/>
<path d="M44.75,106.929c1.767-1.415,3.419-1.617,3.85-3.437C47.967,105.039,45.471,104.134,44.75,106.929z M73.237,105.716
	c1.477,0.053,3.067,0.483,4.764-1.775C75.803,104.476,74.327,104.459,73.237,105.716z M70.178,95.098
	c3.129,0.87,5.124,0.439,7.392-1.564C74.81,93.323,73,94.58,70.178,95.098z M70.178,95.098c3.129,0.87,5.124,0.439,7.392-1.564
	C74.81,93.323,73,94.58,70.178,95.098z M73.237,105.716c1.477,0.053,3.067,0.483,4.764-1.775
	C75.803,104.476,74.327,104.459,73.237,105.716z M44.75,106.929c1.767-1.415,3.419-1.617,3.85-3.437
	C47.967,105.039,45.471,104.134,44.75,106.929z M44.75,106.929c1.767-1.415,3.419-1.617,3.85-3.437
	C47.967,105.039,45.471,104.134,44.75,106.929z M73.237,105.716c1.477,0.053,3.067,0.483,4.764-1.775
	C75.803,104.476,74.327,104.459,73.237,105.716z M70.178,95.098c3.129,0.87,5.124,0.439,7.392-1.564
	C74.81,93.323,73,94.58,70.178,95.098z M77.57,93.534c-2.76-0.211-4.57,1.046-7.392,1.564C73.307,95.968,75.302,95.538,77.57,93.534
	z M73.237,105.716c1.477,0.053,3.067,0.483,4.764-1.775C75.803,104.476,74.327,104.459,73.237,105.716z M44.75,106.929
	c1.767-1.415,3.419-1.617,3.85-3.437C47.967,105.039,45.471,104.134,44.75,106.929z M99.236,118.504l-0.501-1.406l-0.017-0.044
	c-0.088,0.264-0.185,0.527-0.281,0.791c-0.105,0.29-0.22,0.58-0.334,0.87c-0.141,0.352-0.281,0.703-0.483,1.011
	c-0.334,0.563-0.817,0.984-1.653,1.02c-1.239,0.053-1.951-0.738-2.487-1.67c-0.36-0.633-0.668-1.283-0.932-1.942
	c-0.264-0.642-0.475-1.292-0.659-1.951c-0.431-1.538-0.686-3.12-0.888-4.72c-0.035-0.255-0.07-0.51-0.097-0.765
	c-0.905-7.875-0.905-15.794-1.037-21.437c0.114-5.643,0.211-11.057,0.448-16.296l-4.359,0.105l-3.358,0.088l-1.222,0.026
	c0.044,0.176,0,0.343-0.044,0.519c-0.097,0.387-0.747,0.58-0.29,1.204c0.404,0.536,0.167,1.107-0.571,1.037
	c-0.334-0.026-0.73,0.439-1.213-0.642c-0.694-1.556-0.061-1.819,0.659-2.083l-1.978,0.053l-0.501-0.694l-3.278-4.509L66.144,56.03
	c-1.072,0.835-2.136,1.661-3.217,2.487c-0.141,0.114-0.29,0.22-0.439,0.325c-0.466,0.308-1.485,0.932-2.057,0.527
	c-0.273-0.185-0.448-0.897-0.589-1.195c-0.22-0.457-0.431-0.914-0.65-1.371c-0.905-1.898-1.811-3.806-2.716-5.704
	c-0.554-1.169-1.116-2.338-1.67-3.507l-0.466,1.573l-0.941,3.155l-1.661,5.581l-1.31,4.421l-0.431,1.459l-1.354,4.553l-0.413,1.362
	l-1.16,3.929l-0.343,1.143l-0.897,3.015L10.824,89.148l30.315,20.866l-0.009,11.329v11.602l-0.009,13.878l11.725-8.974l1.591-1.213
	c-0.677-2.953-0.158-5.678,1.16-8.376c0.914-1.872,1.89-2.874,3.727-0.914c0.369,0.396,0.932,0.809,1.626,0.563
	c-1.318-2.707-1.696-3.481-0.211-4.131c0.633-0.29,1.608-0.545,2.997-0.932c2.285-0.633,4.008-1.187,5.467,1.688
	c0.097,0.193,0.211,0.369,0.334,0.519l0.809-0.615l3.155,1.028l3.938,1.283l5.476,1.784l3.032,0.984l1.995,0.642l0.158,0.053
	c0.141-0.475,0.378-1.064,0.712-1.793c-0.545-1.775-1.837-2.734-4.131-2.479c-1.283,0.141-1.679-0.527-1.125-1.696
	c1.107-2.364,2.303-4.641,5.493-4.412c0.229,0.475,0.475,0.949,0.738,1.415c0.519,0.905,1.134,1.679,1.855,2.268
	c0.826-0.65,1.96-0.888,3.771-0.448c1.846,0.448,2.953-0.492,3.674-1.872c0.229-0.448,0.422-0.94,0.589-1.441L99.236,118.504z
	 M68.772,118.416c-2.61,2.153-5.801,2.637-8.754,3.63c-0.932,0.308-1.837,0.668-2.698,1.143c-1.151,0.633-1.617-0.22-2.215-0.958
	c-4.289-5.282-8.403-10.705-13.246-15.522c-0.193-0.185-0.378-0.378-0.571-0.563c-2.065-2.013-3.718-4.395-4.852-7.067
	c-1.362-3.191-0.8-5.616,1.512-7.075c2.452-1.547,4.825-1.257,7.111,1.354c4.193,4.773,8.165,9.747,12.288,14.582
	c1.863,2.171,3.797,4.307,5.862,6.293c1.327,1.274,3.024,2.408,4.984,1.564c1.899-0.809,1.89-2.777,2.022-4.509
	c0.299-3.823-0.431-7.559-1.099-11.294c-0.773-4.333-1.837-8.64-1.855-13.079c-0.009-3.428,1.661-5.801,4.236-6.381
	c2.751-0.624,5.151,0.387,5.854,3.12c1.89,7.462,2.804,15.083,3.322,22.764c0.088,1.292-0.694,1.775-1.67,2.241
	c-2.013,0.967-3.551,2.531-4.518,4.474C73.202,115.736,71.611,117.836,68.772,118.416z M76.085,121.115
	c0,0.896-0.527,1.661-1.318,2.285c-0.237,0.193-0.501,0.369-0.782,0.536c-1.433,0.861-3.252,1.318-4.078-0.264
	c-0.642-1.222,0.026-2.962,1.107-3.955c1.731-0.519,3.349-2.145,4.606-0.097c0.325,0.527,0.466,1.028,0.466,1.485v0.01H76.085z
	 M86.799,117.124c-2.109,1.336-3.454,3.419-4.623,5.599c-0.273,0.519-0.51,1.248-1.239,1.178c-0.809-0.079-0.694-0.87-0.791-1.45
	c-0.299-1.837-0.861-3.498-2.162-4.641c-0.483-0.439-1.081-0.809-1.793-1.081c-0.606-0.228-1.046-0.483-0.888-1.318
	c0.325-1.793,3.718-5.124,5.836-5.441c1.661-0.255,3.103,0.035,4.386,0.932c0.466,0.316,0.905,0.721,1.327,1.204
	c0.193,1.433,0.483,2.857,0.888,4.254C87.511,116.614,87.194,116.869,86.799,117.124z M77.57,93.534
	c-2.76-0.211-4.57,1.046-7.392,1.564C73.307,95.968,75.302,95.538,77.57,93.534z M78.001,103.94
	c-2.197,0.536-3.674,0.519-4.764,1.775C74.713,105.768,76.304,106.199,78.001,103.94z M44.75,106.929
	c1.767-1.415,3.419-1.617,3.85-3.437C47.967,105.039,45.471,104.134,44.75,106.929z M44.75,106.929
	c1.767-1.415,3.419-1.617,3.85-3.437C47.967,105.039,45.471,104.134,44.75,106.929z M73.237,105.716
	c1.477,0.053,3.067,0.483,4.764-1.775C75.803,104.476,74.327,104.459,73.237,105.716z M70.178,95.098
	c3.129,0.87,5.124,0.439,7.392-1.564C74.81,93.323,73,94.58,70.178,95.098z M70.178,95.098c3.129,0.87,5.124,0.439,7.392-1.564
	C74.81,93.323,73,94.58,70.178,95.098z M73.237,105.716c1.477,0.053,3.067,0.483,4.764-1.775
	C75.803,104.476,74.327,104.459,73.237,105.716z M44.75,106.929c1.767-1.415,3.419-1.617,3.85-3.437
	C47.967,105.039,45.471,104.134,44.75,106.929z M44.75,106.929c1.767-1.415,3.419-1.617,3.85-3.437
	C47.967,105.039,45.471,104.134,44.75,106.929z M73.237,105.716c1.477,0.053,3.067,0.483,4.764-1.775
	C75.803,104.476,74.327,104.459,73.237,105.716z M70.178,95.098c3.129,0.87,5.124,0.439,7.392-1.564
	C74.81,93.323,73,94.58,70.178,95.098z M70.178,95.098c3.129,0.87,5.124,0.439,7.392-1.564C74.81,93.323,73,94.58,70.178,95.098z
	 M73.237,105.716c1.477,0.053,3.067,0.483,4.764-1.775C75.803,104.476,74.327,104.459,73.237,105.716z M44.75,106.929
	c1.767-1.415,3.419-1.617,3.85-3.437C47.967,105.039,45.471,104.134,44.75,106.929z"/>
<g>
	<path d="M91,110.462l-2.795,0.229c0.677,0.756,1.204,1.652,1.635,2.628c0.439,1.011,0.897,1.626,2.048,1.863
		C91.457,113.644,91.202,112.062,91,110.462z M180.775,144.565c-4.834-2.294-10.002-3.234-15.302-3.498
		c-7.075-0.352-14.142-0.149-21.209,0.176c-1.327,0.062-2.18,0.07-2.153-1.696c0.088-6.416,0.035-12.832,0.035-19.249
		c1.775,1.468,2.927,3.243,5.177,3.718c3.648,0.782,6.135-1.178,7.656-5.783c0.58-1.767,0.237-4.702,2.742-4.746
		c2.197-0.035,2.215,2.734,2.857,4.421c1.547,4.105,4.096,6.232,7.234,5.871c3.375-0.396,5.652-3.103,6.021-7.445
		c0.387-4.518,0.536-9.053,0.404-13.597c-0.404-14.151-1.863-28.214-3.63-42.242c-1.31-10.398-3.384-20.611-8.306-30.007
		C151.515,9.912,123.415,3.504,104.782,17.4c-9.572,7.137-13.738,17.359-15.83,28.618c-0.976,5.23-1.705,10.468-2.224,15.715
		c-0.343,3.445-0.598,6.891-0.773,10.336c-0.642,12.323-0.281,24.681,0.58,37.047c0.009,0.062,0.009,0.123,0.018,0.185
		c0.035,0.51,0.079,1.011,0.132,1.512c0.053,0.431,0.105,0.861,0.167,1.292c0.193,1.433,0.483,2.857,0.888,4.254
		c0.105,0.343,0.211,0.677,0.325,1.02c0.273,0.835,0.607,1.652,0.985,2.452c0.229,0.475,0.475,0.949,0.738,1.415
		c0.519,0.905,1.134,1.679,1.855,2.268c0.571,0.501,1.222,0.888,1.934,1.143c0.8,0.29,1.696,0.422,2.681,0.369
		c1.793-0.097,3.147-0.809,4.166-1.925c0.483-0.519,0.888-1.125,1.23-1.802c0.158-0.299,0.29-0.606,0.422-0.923
		c0.387-0.976,0.624-2.013,1.011-2.988c0.299-0.773,0.519-1.898,1.424-1.934c1.301-0.044,1.169,1.354,1.362,2.162
		c0.624,2.619,1.31,5.124,4.078,6.363c2.689,1.204,5.054,0.334,7.726-1.758c0,5.687-0.009,10.723,0.009,15.751
		c0.018,5.177,0.009,5.054-5.08,5.616c-3.568,0.404-7.119,0.87-10.635,1.503c-0.747,0.141-1.494,0.281-2.241,0.431
		c-2.575,0.527-5.133,1.16-7.656,1.934c-0.703,0.211-1.398,0.431-2.083,0.677c-2.074,0.703-4.113,1.512-6.126,2.452
		c-5.335,2.496-9.413,6.188-11.47,11.628c-0.264,0.677-0.483,1.371-0.677,2.101c-0.088,0.334-0.167,0.659-0.22,0.984v0.009
		c-0.237,1.143-0.316,2.232-0.246,3.261c0.035,0.729,0.158,1.441,0.343,2.109c0.747,2.637,2.602,4.817,5.537,6.478
		c2.786,1.565,5.836,2.364,8.992,2.839c1.081,0.167,2.022,0.255,2.338,1.907c0.993,5.3,4.544,7.998,10.073,8.095
		c5.687,0.105,9.29-2.479,10.609-7.884c0.317-1.283,0.721-1.688,1.995-1.793c11.874-1.028,23.749-2.092,35.623-3.226
		c1.398-0.132,1.934,0.176,2.479,1.573c1.635,4.21,5.898,6.522,10.714,6.126c5.027-0.404,9.027-3.41,9.686-8.016
		c0.343-2.435,1.494-2.997,3.472-3.507c4.017-1.037,7.699-2.839,10.846-5.625C192.06,160.465,190.522,149.161,180.775,144.565z
		 M116.015,113.776c-0.457,1.178-0.738,2.426-1.239,3.577c-0.51,1.178-0.554,2.918-2.47,2.795c-1.679-0.105-1.705-1.626-2.074-2.786
		c-0.255-0.809-0.422-1.635-0.677-2.443c-0.677-2.215-2.039-3.665-4.465-3.85c-2.373-0.185-4.105,0.914-5.142,2.953
		c-0.501,0.967-0.861,2.004-1.23,3.032c-0.088,0.264-0.185,0.527-0.281,0.791c-0.105,0.29-0.22,0.58-0.334,0.87
		c-0.141,0.352-0.281,0.703-0.483,1.011c-0.334,0.563-0.817,0.984-1.653,1.02c-1.239,0.053-1.951-0.738-2.487-1.67
		c-0.36-0.633-0.668-1.283-0.932-1.942c-0.264-0.642-0.475-1.292-0.659-1.951c-0.431-1.538-0.686-3.12-0.888-4.72
		c-0.035-0.255-0.07-0.51-0.097-0.765c-0.905-7.875-0.905-15.794-1.037-21.437c0.114-5.643,0.211-11.057,0.448-16.296
		c0.176-4.166,0.431-8.218,0.835-12.2c0.677-6.689,1.775-13.158,3.613-19.556c3.296-11.479,9.695-20.69,21.683-23.907
		c18.194-4.887,35.869,0,44.175,20.664c3.902,9.703,5.353,19.908,6.487,30.183c1.538,13.949,3.12,27.897,2.874,41.96
		c-0.044,2.312-0.272,4.623-0.466,6.935c-0.123,1.494-0.272,3.217-2.153,3.366c-1.872,0.149-2.215-1.644-2.769-2.98
		c-0.413-0.967-0.659-2.004-1.072-2.971c-1.107-2.619-2.927-4.562-5.924-4.439c-3.05,0.114-4.992,1.995-5.871,4.922
		c-0.422,1.415-0.861,2.821-1.275,4.236c-0.264,0.879-0.747,1.556-1.705,1.635c-1.002,0.079-1.538-0.668-1.907-1.424
		c-0.73-1.512-1.318-3.094-2.03-4.623c-1.072-2.338-2.654-4.192-5.449-4.122c-2.839,0.062-4.632,1.714-5.59,4.368
		c-0.492,1.38-1.002,2.777-1.696,4.061c-1.16,2.162-3.12,2.189-4.307,0.026c-0.809-1.459-1.292-3.103-2.021-4.623
		c-0.985-2.066-2.637-3.322-4.984-3.27C118.397,110.26,116.858,111.631,116.015,113.776z M137.847,139.317
		c0.035,1.925-0.501,2.54-2.452,2.566c-3.788,0.053-7.577,0.387-11.365,0.65c-1.134,0.07-2.092,0.211-2.083-1.45
		c0.035-7.954,0.018-15.909,0.018-23.863c2.03,3.428,3.647,6.847,8.218,6.733c4.289-0.105,5.687-3.437,7.102-7.111
		c0.87,1.415,0.519,2.663,0.519,3.797C137.847,126.863,137.733,133.095,137.847,139.317z M103.393,184.249
		c-2.408,2.224-7.779,1.934-9.783-0.501c-0.536-0.642-1.09-1.389-0.826-2.268c0.351-1.187,1.397-0.563,2.145-0.606
		c1.354-0.079,2.725-0.026,4.087-0.026v-0.009c1.046,0,2.101-0.07,3.147,0.018c0.87,0.079,2.101-0.633,2.558,0.439
		C105.23,182.508,104.237,183.475,103.393,184.249z M165.209,177.033c-1.239,2.628-3.56,3.366-6.214,3.463
		c-1.292,0.026-2.514-0.185-3.639-0.853c-1.116-0.668-2.382-1.6-2.083-2.857c0.246-1.046,1.837-0.65,2.839-0.782
		c2.61-0.325,5.239-0.466,7.831-0.879C166.044,174.791,165.806,175.767,165.209,177.033z M182.278,163.295
		c-3.138,3.551-7.348,5.247-11.822,6.276c-9.176,2.109-18.572,2.716-27.897,3.639c-14.379,1.424-28.768,2.865-40.58,3.393
		c-8.35,0.044-14.054-0.053-19.548-1.846c-2.883-0.94-4.861-2.197-5.968-3.779c-0.22-0.325-0.413-0.668-0.563-1.02
		c-0.185-0.404-0.316-0.835-0.387-1.283c-0.044-0.246-0.07-0.501-0.079-0.765c-0.097-1.855,0.598-4.017,2.065-6.495
		c2.382-4.026,6.153-6.337,10.327-7.972c0.879-0.343,1.767-0.668,2.654-0.976c0.624-0.22,1.257-0.422,1.89-0.615
		c2.461-0.773,4.948-1.415,7.453-1.96c0.668-0.149,1.336-0.281,2.004-0.413c4.527-0.896,9.115-1.494,13.729-2.013
		c1.907-0.211,2.224,0.492,2.294,2.241c0.141,3.779-0.026,7.339-2.988,10.213c-1.072,1.028-1.503,2.452-0.07,3.56
		c1.45,1.116,2.356,0.053,3.428-0.984c3.709-3.595,4.272-8.051,3.753-12.806c-0.237-2.197,0.519-2.936,2.76-2.936
		c3.692-0.009,7.383-0.334,11.057-0.633c1.459-0.114,2.013,0.176,2.048,1.802c0.079,4.043,0.185,8.007-2.804,11.286
		c-1.037,1.143-1.371,2.487,0.149,3.516c1.564,1.072,2.417-0.088,3.375-1.178c3.41-3.867,3.938-8.455,3.595-13.316
		c-0.079-1.125-0.563-2.602,1.573-2.698c9.493-0.404,18.976-1.187,28.407,0.668c2.602,0.51,5.107,1.31,7.471,2.523
		C185.415,151.702,186.655,158.355,182.278,163.295z"/>
	<path d="M124.326,75.199c4.121,0.01,7.782-0.279,11.137-2.078c1.363-0.731,2.527-0.511,3.226,0.811
		c0.768,1.453-0.16,2.415-1.383,3.033c-5.288,2.672-10.909,2.903-16.641,2.136c-1.204-0.161-1.923-0.991-1.828-2.185
		c0.11-1.385,1.087-1.97,2.427-1.914C122.421,75.049,123.576,75.149,124.326,75.199z"/>
	<path d="M123.098,65.062c-0.304,1.548-1.179,2.463-2.585,2.37c-1.421-0.094-2.278-1.147-2.139-2.572
		c0.121-1.246,0.994-2.14,2.323-2.079C122.123,62.846,122.904,63.773,123.098,65.062z"/>
	<path d="M134.33,66.121c-1.364-0.318-2.35-1.101-2.18-2.564c0.16-1.377,1.104-2.279,2.58-2.095
		c1.269,0.159,2.077,1.028,2.032,2.344C136.712,65.285,135.739,65.978,134.33,66.121z"/>
	<path d="M159.324,162.417c-0.202,1.492-1.028,2.358-2.483,2.357c-1.33,0-2.206-0.817-2.231-2.147
		c-0.027-1.421,0.761-2.436,2.254-2.47C158.316,160.123,159.16,160.975,159.324,162.417z"/>
	<path d="M103.889,167.031c-0.192,1.436-0.923,2.454-2.395,2.431c-1.41-0.022-2.383-0.87-2.327-2.388
		c0.049-1.323,0.907-2.134,2.195-2.242C102.88,164.704,103.615,165.657,103.889,167.031z"/>
	<path d="M96.119,168.007c-0.049,1.283-0.871,2.184-2.322,2.197c-1.458,0.013-2.357-0.894-2.307-2.389
		c0.05-1.508,1.084-2.272,2.481-2.244C95.264,165.596,96.084,166.385,96.119,168.007z"/>
	<path d="M103.024,157.034c1.37,0.12,2.333,0.84,2.384,2.303c0.052,1.494-0.922,2.321-2.336,2.369
		c-1.314,0.045-2.169-0.768-2.263-2.089C100.706,158.15,101.511,157.297,103.024,157.034z"/>
	<path d="M167.834,153.966c-0.16,1.465-0.988,2.348-2.44,2.255c-1.42-0.091-2.309-1.028-2.192-2.494
		c0.104-1.295,0.979-2.047,2.306-2.074C167.042,151.621,167.756,152.494,167.834,153.966z"/>
	<path d="M97.794,160.025c0.079,1.573-1.037,2.118-2.241,2.443c-0.791-0.114-1.406-0.36-1.811-0.773
		c-0.395-0.404-0.598-0.958-0.571-1.705c0.026-0.782,0.334-1.389,0.826-1.775c0.36-0.281,0.817-0.439,1.345-0.466
		C96.748,157.687,97.715,158.54,97.794,160.025z"/>
	<path d="M166.639,161.831c-0.249,1.428-1.023,2.377-2.514,2.295c-1.458-0.08-2.34-1.003-2.216-2.491
		c0.108-1.292,0.966-2.115,2.298-2.126C165.7,159.497,166.46,160.402,166.639,161.831z"/>
	<path d="M160.255,154.708c-0.246,1.441-1.111,2.296-2.556,2.193c-1.278-0.091-2.167-0.973-2.151-2.268
		c0.017-1.421,0.866-2.325,2.387-2.315C159.486,152.328,160.133,153.285,160.255,154.708z"/>
</g>
<path d="M83.933,40.086c-0.299-0.527-0.853-0.853-1.398-1.107c-2.18-1.037-4.693-1.327-7.049-0.826
	c-0.202,0.035-0.422,0.088-0.607,0c-0.264-0.123-0.351-0.448-0.404-0.73c-0.501-2.523-1.002-5.036-1.503-7.55
	c-0.106-0.527-0.22-1.063-0.527-1.494c-0.545-0.765-1.556-1.002-2.479-1.187c-2.364-0.475-4.86-0.94-7.163-0.202
	c-1.881,0.598-3.419,1.942-4.896,3.252c-2.689,2.373-5.379,4.746-8.069,7.128c-0.026,0.026-0.061,0.053-0.088,0.079
	c-0.176,0.158-0.343,0.343-0.404,0.562c-0.079,0.325,0.062,0.65,0.202,0.949c0.826,1.758,1.652,3.516,2.47,5.274l2.321,4.931
	c1.028,2.171,2.048,4.342,3.067,6.522c0.448,0.949,0.896,1.907,1.345,2.857c0.334,0.721,0.633,1.934,1.187,2.496
	c0.527,0.545,1.916,0.615,2.637,0.791c0.985,0.237,1.986,0.466,2.98,0.677c1.046,0.229,2.233,0.422,3.111-0.193
	c0.308-0.202,0.571-0.51,0.932-0.545c0.545-0.044,0.932,0.51,1.187,0.993c0.861,1.644,1.723,3.287,2.584,4.931
	c0.87,1.679,1.749,3.349,2.619,5.019c0.598,1.134,1.222,2.303,2.268,3.032c1.037,0.73,2.628,0.844,3.489-0.088
	c0.606-0.65,0.703-1.6,0.773-2.479c0.026-0.343,0.053-0.677,0.079-1.02c0.237-2.944,0.439-5.906,0.633-8.86
	c0.457-7.102,0.791-14.221,1.002-21.341C84.25,41.316,84.259,40.639,83.933,40.086z M77.992,40.666
	c1.187-0.413,2.233-1.556,3.674-0.773c0.07,0.044,0.141,0.088,0.22,0.123c-0.061,0.044-0.123,0.088-0.193,0.132
	c-0.747,0.738-1.96,0.694-2.619,1.582c-0.211,0.018-0.431,0.018-0.65,0.053c-0.378,0.053-0.826,0.475-1.09-0.079
	C77.051,41.105,77.526,40.824,77.992,40.666z M73.544,39.936c-1.274,1.143-2.54,2.32-4.122,2.988
	c-0.123-0.149-0.237-0.299-0.36-0.457c1.283-1.055,2.566-2.118,3.858-3.173c0.176-0.141,0.431-0.211,0.624,0
	C73.729,39.497,73.72,39.778,73.544,39.936z M73.272,37.185c0.369,0.431,0.044,0.897-0.36,1.239
	c-1.107,0.905-2.224,1.819-3.331,2.725c-0.299,0.246-0.633,0.439-0.949,0.105c-0.325-0.352-0.07-0.703,0.185-0.932
	c1.081-0.949,2.162-1.898,3.296-2.777C72.419,37.308,72.78,36.605,73.272,37.185z M72.85,35.884
	c-1.283,1.415-2.813,2.54-4.333,3.674c-0.22,0.158-0.448,0.097-0.589-0.158c-0.255-0.457-0.018-0.782-0.009-0.8
	c1.565-1.292,2.795-2.312,4.034-3.322c0.229-0.185,0.51-0.422,0.782-0.193C72.973,35.278,73.07,35.647,72.85,35.884z M72.437,33.107
	c0.273,0.431,0.053,0.782-0.404,1.23c-1.222,1.011-2.584,2.145-3.964,3.27c-0.237,0.193-0.536,0.29-0.782,0.009
	c-0.237-0.273-0.185-0.615,0.044-0.809c1.477-1.274,2.98-2.523,4.491-3.771C71.997,32.896,72.288,32.861,72.437,33.107z
	 M71.945,31.006c0.29,0.264,0.281,0.694-0.018,0.949c-1.547,1.318-3.111,2.602-4.685,3.885c-0.246,0.202-0.563,0.229-0.747-0.123
	c-0.264-0.483,0.114-0.765,0.466-1.125c1.31-1.081,2.681-2.224,4.07-3.358C71.286,31.032,71.593,30.663,71.945,31.006z
	 M70.134,28.448c-0.492,0.642-0.835,1.099-1.248,1.644c0.853,0.079,1.134-0.562,1.626-0.826c0.325-0.167,0.642-0.712,1.037-0.158
	c0.237,0.334,0.088,0.712-0.211,0.958c-1.591,1.354-3.199,2.69-4.817,4.026c-0.229,0.193-0.545,0.343-0.8,0.079
	c-0.281-0.299-0.246-0.633,0-0.967c0.351-0.457,0.598-0.835-0.352-0.694c-0.483,0.079-0.554-0.36-0.466-0.738
	C65.107,30.892,68.807,28.387,70.134,28.448z M64.491,29.529c0.844-0.659,1.441-1.846,3.05-1.38
	c-0.615,1.072-1.547,1.538-2.312,2.189c-0.229,0.193-0.519,0.36-0.747,0.009C64.307,30.092,64.228,29.732,64.491,29.529z
	 M77.438,71.885c-1.336-1.072-2.162-2.646-2.944-4.166c-0.07-0.141-0.149-0.29-0.22-0.431c-0.035-0.07-0.079-0.149-0.114-0.22
	c-1.828-3.524-3.639-7.031-5.467-10.556c-0.29-0.554-0.703-1.187-1.327-1.16c-0.334,0.009-0.624,0.228-0.896,0.431
	c-0.105,0.088-0.22,0.167-0.325,0.246c-1.072,0.835-2.136,1.661-3.217,2.487c-0.141,0.114-0.29,0.22-0.439,0.325
	c-0.466,0.308-1.485,0.932-2.057,0.527c-0.273-0.185-0.448-0.897-0.589-1.195c-0.22-0.457-0.431-0.914-0.65-1.371
	c-0.905-1.898-1.811-3.806-2.716-5.704c-0.554-1.169-1.116-2.338-1.67-3.507c-1.257-2.637-2.505-5.274-3.762-7.91
	c-0.22-0.466-0.448-0.993-0.29-1.485c0.114-0.36,0.422-0.633,0.712-0.879c3.63-3.059,7.269-6.126,10.899-9.194
	c1.828,5.3,3.902,10.512,6.214,15.619c0.141,0.308,0.351,0.659,0.686,0.677c0.22,0.018,0.413-0.114,0.589-0.246
	c1.978-1.459,3.964-2.909,5.942-4.368C76.7,48.471,77.236,57.19,77.385,65.9c0.009,0.246,0.018,0.483,0.018,0.729
	c0.026,1.652,0.035,3.305,0.035,4.948V71.885z M82.246,57.242c0.325,0.352,0.299,0.809-0.106,1.028
	c-1.063,0.554-2.162,1.028-3.261,1.494c-0.439,0.185-0.686-0.07-0.659-0.527C78.256,58.719,81.736,56.961,82.246,57.242z
	 M78.669,56.812c0.958-0.923,2.224-1.248,3.437-1.696c0.07-0.026,0.202,0.079,0.317,0.132c0.22,0.457,0.053,0.826-0.352,1.028
	c-0.949,0.475-1.916,0.905-2.892,1.327c-0.202,0.097-0.501,0.167-0.589-0.123C78.528,57.278,78.537,56.935,78.669,56.812z
	 M81.552,68.625c-0.853,0.501-1.714,1.204-2.769,1.002c-0.378-0.07-0.07-0.598,0.044-0.949c0.958-0.334,1.731-1.187,2.804-0.958
	C81.938,67.79,81.859,68.449,81.552,68.625z M81.525,70.532c-0.677,0.703-1.556,1.125-2.505,1.143
	c-0.378,0.009-0.422-0.633-0.158-0.861c0.721-0.615,1.591-0.949,2.443-1.143C81.71,69.978,81.692,70.356,81.525,70.532z
	 M78.836,67.693c-0.132-0.07-0.237-0.272-0.255-0.422c-0.053-0.519,0.343-0.721,0.738-0.87c0.817-0.299,1.529-0.914,2.514-0.888
	c0.044,0.202,0.114,0.36,0.105,0.519C81.912,66.568,79.31,67.965,78.836,67.693z M81.833,64.414
	c-0.888,0.483-1.793,0.967-2.751,1.283c-0.36,0.123-0.563-0.044-0.615-0.272c-0.035-0.158,0-0.343,0.123-0.475
	c0.844-0.879,2.013-1.213,3.164-1.529c0.07-0.018,0.176,0.123,0.273,0.193c0.026,0.062,0.035,0.132,0.044,0.202
	C82.105,64.063,82.026,64.309,81.833,64.414z M81.824,62.472c-0.729,0.387-1.485,0.747-2.259,1.046
	c-0.36,0.132-0.879,0.694-1.151-0.07c-0.167-0.457,0.167-0.765,0.589-0.949c0.817-0.36,1.626-0.73,2.426-1.107
	c0.22-0.097,0.413-0.237,0.536-0.299C82.307,61.83,82.246,62.243,81.824,62.472z M82.079,60.301
	c-1.002,0.492-2.03,0.949-3.059,1.397c-0.202,0.097-0.475,0.097-0.606-0.167c-0.158-0.299-0.097-0.563,0.299-0.94
	c0.897-0.396,1.978-0.879,3.059-1.336c0.211-0.079,0.492-0.07,0.554,0.246C82.378,59.809,82.36,60.16,82.079,60.301z M81.332,72.703
	c-0.097,0.387-0.747,0.58-0.29,1.204c0.404,0.536,0.167,1.107-0.571,1.037c-0.334-0.026-0.73,0.439-1.213-0.642
	c-0.694-1.556-0.061-1.819,0.659-2.083c0.211-0.07,0.439-0.158,0.642-0.272c0.176-0.114,0.431-0.097,0.598-0.123
	c0.132,0.123,0.193,0.246,0.22,0.36C81.42,72.36,81.376,72.527,81.332,72.703z M82.369,54.069c-0.993,0.519-2.022,0.976-3.05,1.433
	c-0.29,0.123-0.615,0.062-0.73-0.272c-0.061-0.193,0.035-0.431,0.062-0.703c1.187-0.51,2.32-1.011,3.472-1.468
	c0.149-0.053,0.396,0.158,0.598,0.246C82.606,53.568,82.562,53.964,82.369,54.069z M82.597,51.819
	c-1.222,0.967-2.672,1.547-4.166,1.942c-0.404,0.105-0.738-0.299-0.378-0.993c1.301-0.563,2.689-1.248,4.14-1.749
	C82.808,50.808,82.87,51.608,82.597,51.819z M82.387,50.079c-1.292,0.606-2.593,1.187-3.902,1.749
	c-0.185,0.079-0.519,0.062-0.642-0.053c-0.106-0.114-0.07-0.439-0.009-0.642c0.123-0.352,4.184-2.32,4.57-2.241
	c0.105,0.018,0.211,0.079,0.316,0.123C82.905,49.464,82.826,49.868,82.387,50.079z M82.571,47.899
	c-1.38,0.703-2.804,1.327-4.219,1.969c-0.228,0.106-0.483,0.07-0.589-0.202c-0.114-0.29-0.141-0.659,0.158-0.8
	c1.45-0.694,2.927-1.345,4.395-1.995c0.097-0.044,0.237-0.009,0.361-0.009C83.072,47.258,82.949,47.706,82.571,47.899z
	 M82.764,45.781c-1.494,0.73-3.015,1.406-4.535,2.092c-0.229,0.097-0.501,0.07-0.571-0.22c-0.053-0.211,0-0.448,0.018-0.8
	c1.644-0.712,3.27-1.424,4.913-2.109c0.079-0.026,0.325,0.123,0.369,0.237C83.063,45.271,83.037,45.649,82.764,45.781z
	 M82.668,43.865c-1.459,0.686-2.927,1.345-4.403,2.004c-0.273,0.123-0.624,0.202-0.73-0.202c-0.053-0.202-0.026-0.58,0.097-0.65
	c1.582-0.958,3.278-1.696,5.019-2.32c0.088-0.026,0.22,0.062,0.334,0.105C83.169,43.241,83.134,43.645,82.668,43.865z
	 M82.439,41.975c-1.371,0.615-2.734,1.239-4.105,1.837c-0.308,0.141-0.703,0.431-0.958,0.035c-0.281-0.439,0.079-0.773,0.404-1.037
	c0.439-0.36,1.187-0.343,1.318-1.064c1.169,0.413,1.898-0.686,2.892-0.87c0.404-0.07,0.905-0.686,1.187,0.062
	C83.397,41.518,82.888,41.773,82.439,41.975z"/>
<g>
	<path d="M77.57,93.534c-2.268,2.004-4.263,2.435-7.392,1.564C73,94.58,74.81,93.323,77.57,93.534z"/>
	<path d="M48.6,103.492c-0.431,1.819-2.083,2.022-3.85,3.437C45.471,104.134,47.967,105.039,48.6,103.492z"/>
	<path d="M78.001,103.94c-1.696,2.259-3.287,1.828-4.764,1.775C74.327,104.459,75.803,104.476,78.001,103.94z"/>
	<path d="M85.129,114.092c-0.035,0.123-0.193,0.158-0.316,0.149c-0.527-0.009-1.046-0.167-1.503-0.439
		c-0.202-0.123-0.941-0.589-0.809-0.905c0.026-0.053,0.07-0.097,0.149-0.141c0.105-0.062,0.229-0.062,0.351-0.053
		c0.826,0.044,1.609,0.501,2.057,1.187C85.103,113.951,85.146,114.022,85.129,114.092z"/>
	<path d="M82.096,112.756c-0.158,0.51-0.571,0.141-0.879,0.123c-0.22-0.141-0.633-0.316-0.615-0.422
		c0.088-0.492,0.483-0.431,0.861-0.316C81.78,112.246,82.263,112.264,82.096,112.756z"/>
	<path d="M94.78,127.285c-0.105-0.624-0.193-1.318-1.002-1.274c-0.8,0.044-0.844,0.738-0.861,1.38
		c-0.062,2.083-0.536,4.061-1.661,5.845c-1.688,2.672-4.008,3.946-7.374,3.278c0.317-1.195,1.292-1.283,2.057-1.6
		c2.417-1.002,3.445-2.857,3.111-5.388c-0.053-0.395-0.132-0.765-0.237-1.107c-0.545-1.775-1.837-2.734-4.131-2.479
		c-1.283,0.141-1.679-0.527-1.125-1.696c1.107-2.364,2.303-4.641,5.493-4.412h0.044c0.58,0.044,1.169-0.141,1.731-0.22
		c0.149-1.222-1.143-0.782-1.397-1.846c1.011-0.58,2.048-0.773,3.12-0.633c-0.264-0.642-0.475-1.292-0.659-1.951
		c-1.151-0.237-1.609-0.853-2.048-1.863c-0.431-0.976-0.958-1.872-1.635-2.628c-0.475-0.545-1.02-1.02-1.652-1.389
		c-0.51-0.299-1.072-0.527-1.687-0.686c-1.846-0.466-2.268-1.45-2.338-3.252c-0.281-6.979-1.521-13.861-2.927-20.673
		c-0.905-4.395-4.07-6.566-7.603-6.144c-3.946,0.483-6.223,3.111-6.557,7.664c-0.255,3.401-0.246,6.856,0.888,10.055
		c1.6,4.562,1.565,9.273,2.022,13.949c0.123,1.257,0.527,2.962-0.949,3.586c-1.38,0.589-2.575-0.624-3.437-1.565
		c-3.507-3.859-6.917-7.796-10.336-11.734c-2.681-3.094-4.869-6.636-8.086-9.238c-1.494-1.213-3.059-1.846-4.597-1.925
		c-1.723-0.097-3.428,0.51-4.957,1.793c-1.529,1.274-2.32,2.76-2.364,4.474c-0.053,1.327,0.351,2.786,1.204,4.412
		c1.134,2.171,2.549,4.157,4.078,6.065c0.703,0.897,1.45,1.775,2.197,2.646c4.087,4.729,8.157,9.466,12.208,14.221
		c1.31,1.538,1.609,3.041,0.475,5.01c-1.459,2.523-1.872,5.326-1.292,8.315c0.105,0.536,0.22,1.055,0.352,1.573
		c1.573,6.276,5.071,11.365,9.598,16.067c3.34,3.472,7.207,6.706,9.053,11.382v0.009c0.114,0.316,0.229,0.633,0.334,0.958
		c0.958,2.997,2.136,4.456,4.632,4.711c-0.22-0.325-0.413-0.668-0.563-1.02c-0.185-0.404-0.316-0.835-0.387-1.283
		c-1.002-0.483-1.67-1.477-1.846-3.094c-0.132-1.266-0.615-2.364-1.275-3.366c-0.439-0.694-0.984-1.345-1.556-1.978
		c-3.305-3.648-6.495-7.392-9.888-10.952c-3.287-3.454-5.142-7.576-6.381-12.094c-0.053-0.185-0.097-0.369-0.132-0.554
		c-0.677-2.953-0.158-5.678,1.16-8.376c0.914-1.872,1.89-2.874,3.727-0.914c0.369,0.396,0.932,0.809,1.626,0.563
		c-1.318-2.707-1.696-3.481-0.211-4.131c0.633-0.29,1.608-0.545,2.997-0.932c2.285-0.633,4.008-1.187,5.467,1.688
		c0.097,0.193,0.211,0.369,0.334,0.519c0.967,1.257,2.496,1.011,3.964,0.413c0.035-0.009,0.061-0.018,0.097-0.035
		c0.36-0.149,0.712-0.316,1.055-0.483c1.231-0.615,1.855-1.855,2.927-2.971c1.283,1.749,0.65,3.331-0.141,4.773
		c-0.018,0.026-0.035,0.062-0.053,0.088c-1.723,3.094-4.5,4.781-7.84,5.616c-0.07,0.018-0.141,0.035-0.211,0.053
		c-1.195,0.281-2.523,0.167-1.784,2.224c0.387,1.081-0.527,1.652-1.336,2.241c-0.228,0.176-0.457,0.343-0.642,0.536
		c-0.439,0.457-0.923,0.967-0.475,1.582c0.501,0.668,1.16,0.272,1.6-0.114c0.993-0.879,2.18-1.696,2.786-2.813
		c1.345-2.461,2.9-1.758,4.491-0.554c2.487,1.89,3.639,4.658,4.465,7.541c0.659,2.259,1.081,4.579,1.661,6.864
		c0.176,0.668,0.413,1.573,1.336,1.345c1.037-0.246,0.527-1.143,0.431-1.793c-0.457-3.12-1.784-6.117-1.134-9.387
		c0.334-1.67,0.721-2.391,2.786-1.898C89.673,139.766,95.887,133.569,94.78,127.285z M68.772,118.416
		c-2.61,2.153-5.801,2.637-8.754,3.63c-0.932,0.308-1.837,0.668-2.698,1.143c-1.151,0.633-1.617-0.22-2.215-0.958
		c-4.289-5.282-8.403-10.705-13.246-15.522c-0.193-0.185-0.378-0.378-0.571-0.563c-2.065-2.013-3.718-4.395-4.852-7.067
		c-1.362-3.191-0.8-5.616,1.512-7.075c2.452-1.547,4.825-1.257,7.111,1.354c4.193,4.773,8.165,9.747,12.288,14.582
		c1.863,2.171,3.797,4.307,5.862,6.293c1.327,1.274,3.024,2.408,4.984,1.564c1.899-0.809,1.89-2.777,2.022-4.509
		c0.299-3.823-0.431-7.559-1.099-11.294c-0.773-4.333-1.837-8.64-1.855-13.079c-0.009-3.428,1.661-5.801,4.236-6.381
		c2.751-0.624,5.151,0.387,5.854,3.12c1.89,7.462,2.804,15.083,3.322,22.764c0.088,1.292-0.694,1.775-1.67,2.241
		c-2.013,0.967-3.551,2.531-4.518,4.474C73.202,115.736,71.611,117.836,68.772,118.416z M76.085,121.115
		c0,0.896-0.527,1.661-1.318,2.285c-0.237,0.193-0.501,0.369-0.782,0.536c-1.433,0.861-3.252,1.318-4.078-0.264
		c-0.642-1.222,0.026-2.962,1.107-3.955c1.731-0.519,3.349-2.145,4.606-0.097c0.325,0.527,0.466,1.028,0.466,1.485v0.01H76.085z
		 M77.983,117.81c-0.483-0.439-1.081-0.809-1.793-1.081c-0.606-0.228-1.046-0.483-0.888-1.318c0.325-1.793,3.718-5.124,5.836-5.441
		c1.661-0.255,3.103,0.035,4.386,0.932c0.466,0.316,0.905,0.721,1.327,1.204c0.387,0.439,0.747,0.94,1.107,1.521
		c0.589,0.835,0.677,1.793-0.22,2.733c-0.229,0.255-0.545,0.51-0.941,0.765c-2.109,1.336-3.454,3.419-4.623,5.599
		c-0.273,0.519-0.51,1.248-1.239,1.178c-0.809-0.079-0.694-0.87-0.791-1.45C79.846,120.614,79.284,118.952,77.983,117.81z
		 M81.587,132.998c-0.993-1.433-0.255-4.316,0.554-4.298c0.255,0.009,0.519-0.061,0.773-0.167c1.485-0.633,2.927-2.716,4.377-0.228
		c0.36,0.624,0.589,1.248,0.65,1.855c0.132,1.204-0.378,2.329-1.775,3.252C84.61,134.176,82.8,134.765,81.587,132.998z
		 M103.296,124.657c-0.404-1.195-0.958-2.32-1.644-3.358c-0.677-1.028-1.494-1.969-2.417-2.795c-0.264-0.229-0.527-0.448-0.8-0.659
		c-0.105,0.29-0.22,0.58-0.334,0.87c-0.141,0.352-0.281,0.703-0.483,1.011c0.527,0.448,1.019,0.94,1.468,1.468
		c0.501,0.598,0.949,1.231,1.336,1.907c1.512,2.593,2.118,5.713,1.582,8.921c-0.51,3.041-1.002,6.073-1.653,9.079
		c-0.325,1.485-0.536,2.962-0.624,4.421c-0.044,0.87-0.053,1.74-0.018,2.61c0.018,0.589,0.053,1.169,0.114,1.758
		c0.668-0.149,1.336-0.281,2.004-0.413c-0.044-0.668-0.053-1.345-0.035-2.022c0.017-0.773,0.079-1.565,0.176-2.364
		c0.044-0.316,0.097-0.642,0.149-0.958c0.738-4.342,1.301-8.71,1.855-13.087C104.254,128.832,103.991,126.652,103.296,124.657z
		 M92.547,117.133c-0.264-0.642-0.475-1.292-0.659-1.951c-1.151-0.237-1.609-0.853-2.048-1.863
		c-0.431-0.976-0.958-1.872-1.635-2.628l-1.521,0.123c0.053,0.431,0.105,0.861,0.167,1.292c0.387,0.439,0.747,0.94,1.107,1.521
		c0.589,0.835,0.677,1.793-0.22,2.733c0.105,0.343,0.211,0.677,0.325,1.02c0.273,0.835,0.607,1.652,0.985,2.452h0.044
		c0.58,0.044,1.169-0.141,1.731-0.22c0.149-1.222-1.143-0.782-1.397-1.846C90.438,117.186,91.475,116.992,92.547,117.133z
		 M103.718,158.215c-0.492,0.387-0.8,0.993-0.826,1.775c-0.026,0.73,0.167,1.274,0.545,1.679c0.009,0.009,0.018,0.018,0.026,0.026
		c0-0.009,0.009-0.018,0.009-0.026C103.903,160.711,103.973,159.603,103.718,158.215z"/>
</g>
<polygon points="183.802,124.676 182.268,131.099 186.689,136.005 180.106,136.53 176.806,142.251 174.272,136.153 167.812,134.783 
	172.829,130.488 172.135,123.92 177.77,127.365 "/>
<path d="M178.645,99.678c4.049-26.542,5.061-54.407-4.411-79.53c-1.091-2.893-2.523-5.965-5.292-7.341
	c-2.85-1.416-6.264,0.183-7.17,3.148c-1.242,4.065,2.369,8.633,4.391,11.844c6.577,10.447,9.978,22.641,11.503,34.892
	C179.19,74.941,178.919,87.336,178.645,99.678z"/>
</svg>
