<?xml version="1.0" encoding="utf-8"?>
<!-- Generator: Adobe Illustrator 17.0.0, SVG Export Plug-In . SVG Version: 6.00 Build 0)  -->
<!DOCTYPE svg PUBLIC "-//W3C//DTD SVG 1.1//EN" "http://www.w3.org/Graphics/SVG/1.1/DTD/svg11.dtd">
<svg version="1.1" id="Layer_1" xmlns="http://www.w3.org/2000/svg" xmlns:xlink="http://www.w3.org/1999/xlink" x="0px" y="0px"
	 width="180px" height="178.246px" viewBox="10 10.877 180 178.246" enable-background="new 10 10.877 180 178.246"
	 xml:space="preserve">
<g>
	<g>
		<path d="M171.446,14.921c4.516-1.393,9.133,0.665,9.634,5.691c0.433,4.339-2.021,8.058-6.452,8.35
			c-3.531,0.233-9.337-1.877-6.794-6.489c1.069-1.941,3.749-2.88,5.819-2.92c1.438-0.028,3.005,1.057,2.719,2.625
			c-0.295,0.744-0.82,1.242-1.575,1.494c-0.591,0.227-1.613,0.537-1.034-0.407c0.949-1.545-1.476-2.952-2.42-1.415
			c-1.758,2.862,0.442,5.438,3.666,4.655c3.408-0.827,5.348-4.298,3.359-7.409c-2.186-3.42-7.056-2.488-9.999-0.856
			c-3.625,2.012-4.789,6.077-2.911,9.705c1.654,3.196,5.959,3.905,9.17,3.82c3.789-0.1,6.933-2.027,8.345-5.623
			c1.354-3.446,1.427-7.929-1.011-10.942c-2.748-3.397-7.205-4.233-11.262-2.983C168.978,12.749,169.714,15.455,171.446,14.921
			L171.446,14.921z"/>
	</g>
	<g>
		<path d="M164.117,14.149c-0.004,0.018-0.008,0.035-0.012,0.051c0.12-0.206,0.241-0.412,0.36-0.619
			c-0.011,0.011-0.022,0.022-0.033,0.032c0.206-0.121,0.413-0.241,0.619-0.36c0.289-0.023,0.357-0.032,0.205-0.028
			c-0.763,0.01-1.401,0.63-1.401,1.401c0,0.757,0.638,1.412,1.401,1.401c0.709-0.01,1.395-0.402,1.563-1.135
			c0.169-0.745-0.218-1.515-0.979-1.725C165.13,12.974,164.286,13.404,164.117,14.149L164.117,14.149z"/>
	</g>
	<g>
		<path d="M161.028,21.422c1.808,0,1.808-2.803,0-2.803C159.22,18.619,159.22,21.422,161.028,21.422L161.028,21.422z"/>
	</g>
	<g>
		<path d="M160.817,27.979c1.808,0,1.808-2.803,0-2.803C159.008,25.176,159.008,27.979,160.817,27.979L160.817,27.979z"/>
	</g>
	<g>
		<path d="M163.67,30.779c-0.035,0-0.069,0-0.105,0c-0.764,0-1.401,0.638-1.401,1.401c0,0.764,0.638,1.401,1.401,1.401
			c0.035,0,0.069,0,0.105,0c0.764,0,1.401-0.638,1.401-1.401C165.073,31.417,164.435,30.779,163.67,30.779L163.67,30.779z"/>
	</g>
	<g>
		<path d="M170.333,36.756c1.808,0,1.808-2.803,0-2.803S168.526,36.756,170.333,36.756L170.333,36.756z"/>
	</g>
	<g>
		<path d="M176.256,37.179c1.808,0,1.808-2.803,0-2.803S174.447,37.179,176.256,37.179L176.256,37.179z"/>
	</g>
	<g>
		<path d="M182.071,34.852c1.808,0,1.808-2.803,0-2.803C180.264,32.049,180.264,34.852,182.071,34.852L182.071,34.852z"/>
	</g>
	<g>
		<path d="M187.174,29.433c0-0.036,0-0.07,0-0.106c0-0.764-0.638-1.401-1.401-1.401c-0.764,0-1.401,0.638-1.401,1.401
			c0,0.036,0,0.07,0,0.106c0,0.764,0.638,1.401,1.401,1.401C186.537,30.835,187.174,30.197,187.174,29.433L187.174,29.433z"/>
	</g>
	<g>
		<path d="M187.464,24.701c1.807,0,1.807-2.803,0-2.803C185.657,21.898,185.657,24.701,187.464,24.701L187.464,24.701z"/>
	</g>
	<g>
		<path d="M186.302,18.038c1.808,0,1.808-2.803,0-2.803C184.494,15.235,184.494,18.038,186.302,18.038L186.302,18.038z"/>
	</g>
	<g>
		<path d="M182.033,10.252c-0.036,0.035-0.071,0.069-0.107,0.105c-0.545,0.535-0.537,1.446,0,1.982c0.544,0.544,1.437,0.535,1.982,0
			c0.036-0.035,0.071-0.069,0.107-0.105c0.545-0.535,0.537-1.446,0-1.982C183.472,9.709,182.577,9.718,182.033,10.252
			L182.033,10.252z"/>
	</g>
	<g>
		<path d="M173.996,42.372c1.003,1.051,1.795,2.33,2.213,3.724c0.477,1.59-0.952,2.042-2.27,2.057
			c-4.212,0.049-0.06-4.096,0.98-5.253c1.205-1.34-0.771-3.329-1.982-1.982c-1.474,1.639-3.434,3.344-3.732,5.653
			c-0.335,2.591,2.141,4.066,4.38,4.364c2.278,0.302,5.006-0.99,5.464-3.375c0.492-2.564-1.391-5.412-3.072-7.171
			C174.728,39.081,172.748,41.066,173.996,42.372L173.996,42.372z"/>
	</g>
	<g>
		<path d="M177.24,53.178c-1.604,1.089-4.695,2.172-6.127,0.325c-1.107-1.427-3.076,0.572-1.982,1.982
			c2.216,2.858,6.929,1.876,9.523,0.113C180.14,54.589,178.74,52.159,177.24,53.178L177.24,53.178z"/>
	</g>
	<g>
		<path d="M177.981,58.994c-2.391,1.78-7.171,2.541-8.975-0.449c-0.932-1.546-3.357-0.138-2.42,1.415
			c2.576,4.272,9.121,4.201,12.81,1.455C180.828,60.349,179.432,57.913,177.981,58.994L177.981,58.994z"/>
	</g>
	<g>
		<path d="M181.609,62.915c-2.874,2.524-6.026,4.057-9.916,3.353c-3.309-0.599-6.162-2.232-7.975-5.078
			c-0.968-1.519-3.395-0.115-2.42,1.415c2.302,3.614,5.569,5.333,9.65,6.366c4.779,1.211,9.138-0.995,12.644-4.074
			C184.952,63.702,182.962,61.727,181.609,62.915L181.609,62.915z"/>
	</g>
	<g>
		<path d="M163.948,41.797c1.11,0.021,1.223,1.337,1.074,2.216c-0.285,1.68-1.862,1.437-3.197,1.432
			c-1.808-0.007-1.807,2.796,0,2.803c1.239,0.004,2.618,0.083,3.75-0.516c1.241-0.657,1.964-1.88,2.194-3.241
			c0.451-2.651-0.879-5.441-3.822-5.497C162.139,38.959,162.142,41.762,163.948,41.797L163.948,41.797z"/>
	</g>
	<g>
		<path d="M186.73,40.146c-3.31-0.882-6.358,0.827-6.401,4.439c-0.038,3.258,2.619,5.628,5.806,5.14
			c1.782-0.273,1.023-2.974-0.746-2.703c-1.439,0.221-2.218-1.193-2.258-2.436c-0.056-1.781,1.366-2.132,2.852-1.736
			C187.733,43.316,188.474,40.612,186.73,40.146L186.73,40.146z"/>
	</g>
	<g>
		<path d="M163.607,55.973c1.808,0,1.808-2.803,0-2.803C161.8,53.169,161.8,55.973,163.607,55.973L163.607,55.973z"/>
	</g>
	<g>
		<path d="M182.819,56.041c-0.029,0.028-0.056,0.056-0.085,0.084c-0.542,0.539-0.539,1.443,0,1.982c0.542,0.542,1.441,0.538,1.982,0
			c0.029-0.028,0.056-0.056,0.085-0.084c0.542-0.539,0.539-1.443,0-1.982C184.26,55.499,183.361,55.503,182.819,56.041
			L182.819,56.041z"/>
	</g>
	<g>
		<path d="M130.05,161.862c1.003,1.051,1.794,2.33,2.212,3.723c0.476,1.59-0.951,2.042-2.27,2.057
			c-4.213,0.049-0.06-4.096,0.981-5.253c1.205-1.34-0.771-3.329-1.982-1.982c-1.474,1.639-3.434,3.344-3.733,5.653
			c-0.335,2.591,2.141,4.067,4.381,4.364c2.278,0.303,5.006-0.989,5.464-3.375c0.492-2.564-1.391-5.411-3.072-7.171
			C130.782,158.569,128.803,160.555,130.05,161.862L130.05,161.862z"/>
	</g>
	<g>
		<path d="M133.294,172.667c-1.604,1.089-4.695,2.17-6.127,0.325c-1.107-1.427-3.076,0.572-1.982,1.982
			c2.217,2.857,6.929,1.877,9.524,0.113C136.196,174.079,134.795,171.648,133.294,172.667L133.294,172.667z"/>
	</g>
	<g>
		<path d="M134.035,178.482c-2.391,1.781-7.171,2.539-8.974-0.449c-0.932-1.546-3.357-0.138-2.42,1.415
			c2.576,4.271,9.121,4.201,12.809,1.456C136.882,179.837,135.487,177.402,134.035,178.482L134.035,178.482z"/>
	</g>
	<g>
		<path d="M137.664,182.404c-2.874,2.524-6.026,4.058-9.916,3.352c-3.31-0.601-6.162-2.231-7.975-5.078
			c-0.967-1.52-3.395-0.115-2.42,1.415c2.302,3.617,5.568,5.332,9.65,6.366c4.779,1.212,9.139-0.995,12.644-4.073
			C141.007,183.19,139.016,181.217,137.664,182.404L137.664,182.404z"/>
	</g>
	<g>
		<path d="M120.001,161.285c1.111,0.022,1.224,1.337,1.074,2.216c-0.286,1.68-1.861,1.437-3.196,1.432
			c-1.808-0.007-1.807,2.796,0,2.803c1.239,0.004,2.618,0.083,3.75-0.516c1.241-0.658,1.964-1.881,2.195-3.241
			c0.451-2.652-0.88-5.44-3.823-5.497C118.193,158.448,118.196,161.251,120.001,161.285L120.001,161.285z"/>
	</g>
	<g>
		<path d="M142.783,159.635c-3.31-0.882-6.358,0.828-6.4,4.439c-0.038,3.258,2.619,5.628,5.806,5.139
			c1.782-0.273,1.023-2.974-0.746-2.703c-1.439,0.221-2.218-1.192-2.258-2.436c-0.057-1.781,1.365-2.132,2.852-1.736
			C143.787,162.805,144.529,160.1,142.783,159.635L142.783,159.635z"/>
	</g>
	<g>
		<path d="M119.662,175.46c1.808,0,1.808-2.803,0-2.803S117.854,175.46,119.662,175.46L119.662,175.46z"/>
	</g>
	<g>
		<path d="M138.873,175.528c-0.029,0.029-0.057,0.056-0.085,0.085c-0.54,0.54-0.54,1.442,0,1.982s1.442,0.541,1.982,0
			c0.029-0.029,0.056-0.057,0.085-0.085c0.54-0.54,0.54-1.442,0-1.982C140.316,174.989,139.414,174.989,138.873,175.528
			L138.873,175.528z"/>
	</g>
	<g>
		<path d="M184.941,72.868c-0.327,3.775-0.431,8.005-2.295,11.399c-1.451,2.64-3.922,0.081-4.679-1.796
			c-1.256-3.116-0.865-6.832-0.849-10.115c0.009-1.808-2.795-1.807-2.803,0c-0.021,4.162-0.286,8.501,1.6,12.34
			c1.127,2.294,4.406,4.556,6.972,3.188c4.599-2.451,4.472-10.558,4.857-15.012C187.9,71.066,185.096,71.081,184.941,72.868
			L184.941,72.868z"/>
	</g>
	<g>
		<path d="M169.162,72.868c-0.327,3.775-0.431,8.005-2.295,11.399c-1.451,2.64-3.922,0.081-4.679-1.796
			c-1.255-3.116-0.865-6.832-0.848-10.115c0.009-1.808-2.795-1.807-2.803,0c-0.021,4.162-0.286,8.501,1.599,12.34
			c1.127,2.294,4.406,4.556,6.972,3.188c4.599-2.451,4.472-10.558,4.857-15.012C172.121,71.066,169.317,71.081,169.162,72.868
			L169.162,72.868z"/>
	</g>
	<g>
		<path d="M173.318,87.724c1.808,0,1.808-2.803,0-2.803C171.509,84.922,171.509,87.724,173.318,87.724L173.318,87.724z"/>
	</g>
	<g>
		<path d="M173.404,92.267c1.808,0,1.808-2.803,0-2.803S171.596,92.267,173.404,92.267L173.404,92.267z"/>
	</g>
	<g>
		<path d="M171.881,95.291c-0.005,0.017-0.01,0.034-0.015,0.05c0.215-0.279,0.43-0.559,0.644-0.838
			c0.183-0.051,0.367-0.103,0.551-0.155c-0.763,0.017-1.401,0.625-1.401,1.401c0,0.752,0.638,1.418,1.401,1.401
			c0.723-0.016,1.31-0.4,1.523-1.114c0.219-0.732-0.255-1.525-0.979-1.725C172.856,94.106,172.1,94.56,171.881,95.291
			L171.881,95.291z"/>
	</g>
	<g>
		<path d="M187.346,105.918c0.162-4.415,0.005-11.91-3.497-15.125c-2.061-1.891-4.798-0.309-5.982,1.724
			c-0.913,1.569-0.96,3.684-1.037,5.444c-0.12,2.73-0.84,5.35-0.972,8.071c-0.088,1.808,2.716,1.799,2.803,0
			c0.089-1.827,0.657-3.555,0.828-5.366c0.161-1.711,0.095-3.435,0.351-5.138c0.455-3.025,2.199-3.474,3.213-0.793
			c1.289,3.407,1.622,7.555,1.488,11.183C184.475,107.727,187.278,107.721,187.346,105.918L187.346,105.918z"/>
	</g>
	<g>
		<path d="M169.346,105.918c0.163-4.415,0.006-11.91-3.497-15.125c-2.061-1.892-4.799-0.309-5.982,1.724
			c-0.913,1.569-0.96,3.684-1.037,5.444c-0.12,2.73-0.84,5.35-0.971,8.071c-0.088,1.808,2.715,1.799,2.803,0
			c0.089-1.827,0.657-3.555,0.827-5.366c0.161-1.711,0.096-3.435,0.352-5.138c0.455-3.025,2.199-3.474,3.213-0.793
			c1.289,3.407,1.622,7.555,1.488,11.183C166.476,107.727,169.278,107.721,169.346,105.918L169.346,105.918z"/>
	</g>
	<g>
		<path d="M160.075,124.423c1.808,0,1.808-2.803,0-2.803C158.267,121.62,158.267,124.423,160.075,124.423L160.075,124.423z"/>
	</g>
	<g>
		<g>
			<path d="M172.227,115.482c4.212-1.114,7.894,0.262,9.218,4.599c1.091,3.577,0.147,7.902-2.423,10.618
				c-3.914,4.136-11.315,1.967-13.415-3.017c-1.57-3.723,3.117-5.71,5.99-6.078c1.675-0.215,3.473,0.065,4.464,1.558
				c0.989,1.486-0.114,2.891-1.298,3.642c-0.943,0.505-1.747,0.415-2.413-0.271c-0.216-0.518-0.238-0.6-0.064-0.248
				c1.644,0.697,3.075-1.717,1.415-2.42c-3.84-1.628-6.071,3.164-2.639,5.266c4.775,2.925,9.628-2.8,7.42-7.384
				c-2.143-4.45-8.78-3.105-12.179-1.331c-5.116,2.671-4.307,8.358-0.767,11.904c6.315,6.329,15.912,3.111,18.488-4.856
				c2.082-6.44-0.805-14.448-8.154-15.203c-1.46-0.15-2.986,0.151-4.388,0.521C169.736,113.24,170.478,115.944,172.227,115.482
				L172.227,115.482z"/>
		</g>
		<g>
			<path d="M167.839,114.954c-0.121-0.803-0.95-1.194-1.677-1.199c-0.764-0.005-1.401,0.642-1.401,1.401
				c0,0.768,0.638,1.396,1.401,1.401c0.023,0,0.047,0.001,0.069,0.001c-0.171-0.008-0.334-0.051-0.487-0.13
				c-0.167-0.167-0.335-0.335-0.503-0.503c-0.035-0.075-0.07-0.152-0.105-0.226c0.113,0.757,1.055,1.163,1.724,0.979
				C167.663,116.459,167.953,115.71,167.839,114.954L167.839,114.954z"/>
		</g>
		<g>
			<path d="M160.533,117.55c0,0.057,0,0.114,0,0.171c0,0.763,0.638,1.401,1.401,1.401c0.764,0,1.401-0.638,1.401-1.401
				c0-0.057,0-0.114,0-0.171c0-0.763-0.638-1.401-1.401-1.401C161.171,116.148,160.533,116.786,160.533,117.55L160.533,117.55z"/>
		</g>
		<g>
			<path d="M159.171,131.262c1.808,0,1.808-2.803,0-2.803C157.363,128.459,157.363,131.262,159.171,131.262L159.171,131.262z"/>
		</g>
		<g>
			<path d="M161.447,138.102c1.808,0,1.808-2.803,0-2.803C159.639,135.298,159.639,138.102,161.447,138.102L161.447,138.102z"/>
		</g>
		<g>
			<path d="M168.115,140.495c1.807,0,1.807-2.803,0-2.803C166.307,137.692,166.307,140.495,168.115,140.495L168.115,140.495z"/>
		</g>
		<g>
			<path d="M174.945,141.35c1.808,0,1.808-2.803,0-2.803C173.136,138.546,173.136,141.35,174.945,141.35L174.945,141.35z"/>
		</g>
		<g>
			<path d="M181.449,140.153c1.807,0,1.807-2.803,0-2.803C179.641,137.35,179.641,140.153,181.449,140.153L181.449,140.153z"/>
		</g>
		<g>
			<path d="M185.839,136.05c1.808,0,1.808-2.803,0-2.803C184.032,133.246,184.032,136.05,185.839,136.05L185.839,136.05z"/>
		</g>
		<g>
			<path d="M188.116,129.723c1.808,0,1.808-2.803,0-2.803C186.308,126.92,186.308,129.723,188.116,129.723L188.116,129.723z"/>
		</g>
		<g>
			<path d="M187.954,122.2c0.054,0,0.108,0,0.162,0c0.764,0,1.401-0.638,1.401-1.401c0-0.763-0.638-1.401-1.401-1.401
				c-0.054,0-0.108,0-0.162,0c-0.764,0-1.401,0.638-1.401,1.401C186.552,121.562,187.19,122.2,187.954,122.2L187.954,122.2z"/>
		</g>
		<g>
			<path d="M185.026,115.019c1.808,0,1.808-2.803,0-2.803C183.219,112.215,183.219,115.019,185.026,115.019L185.026,115.019z"/>
		</g>
		<g>
			<path d="M181.449,109.309c-0.108,0-0.217,0-0.325,0c-0.764,0-1.401,0.638-1.401,1.401c0,0.764,0.638,1.401,1.401,1.401
				c0.108,0,0.217,0,0.325,0c0.764,0,1.401-0.638,1.401-1.401C182.851,109.947,182.213,109.309,181.449,109.309L181.449,109.309z"/>
		</g>
	</g>
	<g>
		<g>
			<path d="M140.42,13.567c-0.327,3.774-0.431,8.004-2.295,11.398c-1.451,2.64-3.922,0.081-4.679-1.796
				c-1.255-3.116-0.864-6.832-0.848-10.115c0.009-1.808-2.795-1.807-2.803,0c-0.021,4.162-0.286,8.5,1.599,12.339
				c1.127,2.294,4.406,4.556,6.972,3.188c4.6-2.451,4.472-10.557,4.858-15.011C143.379,11.766,140.575,11.78,140.42,13.567
				L140.42,13.567z"/>
		</g>
		<g>
			<path d="M124.64,13.567c-0.327,3.774-0.431,8.004-2.295,11.398c-1.451,2.64-3.922,0.081-4.679-1.796
				c-1.255-3.116-0.864-6.832-0.848-10.115c0.009-1.808-2.795-1.807-2.803,0c-0.021,4.162-0.286,8.5,1.599,12.339
				c1.127,2.294,4.406,4.556,6.972,3.188c4.599-2.451,4.472-10.557,4.857-15.011C127.599,11.766,124.795,11.78,124.64,13.567
				L124.64,13.567z"/>
		</g>
		<g>
			<path d="M128.797,28.423c1.808,0,1.808-2.803,0-2.803C126.988,25.619,126.988,28.423,128.797,28.423L128.797,28.423z"/>
		</g>
		<g>
			<path d="M128.883,32.964c1.807,0,1.807-2.803,0-2.803C127.075,30.161,127.075,32.964,128.883,32.964L128.883,32.964z"/>
		</g>
		<g>
			<path d="M127.359,35.988c-0.005,0.017-0.01,0.034-0.015,0.05c0.215-0.279,0.43-0.559,0.644-0.838
				c0.184-0.051,0.367-0.104,0.552-0.154c-0.763,0.017-1.401,0.625-1.401,1.401c0,0.752,0.638,1.418,1.401,1.401
				c0.721-0.016,1.312-0.4,1.523-1.115c0.216-0.733-0.253-1.525-0.979-1.725C128.336,34.804,127.575,35.256,127.359,35.988
				L127.359,35.988z"/>
		</g>
		<g>
			<path d="M142.824,46.617c0.162-4.416,0.005-11.909-3.497-15.125c-2.06-1.892-4.798-0.309-5.982,1.724
				c-0.913,1.569-0.96,3.683-1.037,5.444c-0.12,2.73-0.84,5.349-0.972,8.07c-0.088,1.808,2.715,1.799,2.803,0
				c0.089-1.827,0.656-3.555,0.827-5.366c0.161-1.71,0.095-3.434,0.352-5.136c0.455-3.027,2.199-3.473,3.213-0.793
				c1.289,3.407,1.622,7.555,1.488,11.183C139.954,48.425,142.757,48.419,142.824,46.617L142.824,46.617z"/>
		</g>
		<g>
			<path d="M124.825,46.617c0.163-4.416,0.005-11.91-3.497-15.125c-2.061-1.892-4.798-0.309-5.982,1.724
				c-0.913,1.569-0.96,3.683-1.037,5.444c-0.12,2.73-0.84,5.35-0.972,8.07c-0.088,1.808,2.715,1.799,2.803,0
				c0.089-1.827,0.657-3.555,0.828-5.366c0.161-1.71,0.096-3.434,0.352-5.136c0.455-3.026,2.199-3.474,3.213-0.793
				c1.289,3.407,1.622,7.555,1.488,11.183C121.955,48.425,124.758,48.419,124.825,46.617L124.825,46.617z"/>
		</g>
		<g>
			<path d="M115.554,65.121c1.808,0,1.808-2.803,0-2.803C113.746,62.317,113.746,65.121,115.554,65.121L115.554,65.121z"/>
		</g>
		<g>
			<g>
				<path d="M127.706,56.18c4.212-1.114,7.894,0.261,9.218,4.599c1.091,3.576,0.147,7.901-2.423,10.618
					c-3.914,4.136-11.314,1.967-13.415-3.017c-1.57-3.723,3.117-5.71,5.99-6.079c1.675-0.215,3.473,0.066,4.464,1.558
					c0.989,1.486-0.114,2.891-1.298,3.641c-0.943,0.506-1.747,0.416-2.413-0.27c-0.216-0.518-0.238-0.6-0.065-0.248
					c1.644,0.697,3.075-1.717,1.415-2.421c-3.84-1.628-6.071,3.164-2.638,5.267c4.775,2.925,9.628-2.8,7.42-7.384
					c-2.143-4.45-8.779-3.106-12.179-1.331c-5.116,2.671-4.307,8.358-0.767,11.905c6.315,6.329,15.912,3.111,18.488-4.856
					c2.082-6.44-0.804-14.448-8.154-15.203c-1.46-0.15-2.986,0.151-4.388,0.521C125.215,53.939,125.957,56.642,127.706,56.18
					L127.706,56.18z"/>
			</g>
			<g>
				<path d="M123.318,55.652c-0.12-0.803-0.95-1.194-1.677-1.2c-0.764-0.006-1.401,0.642-1.401,1.401
					c0,0.768,0.638,1.396,1.401,1.401c0.023,0,0.046,0.001,0.069,0.001c-0.172-0.008-0.335-0.051-0.487-0.129
					c-0.167-0.168-0.336-0.336-0.503-0.503c-0.035-0.075-0.07-0.151-0.105-0.226c0.113,0.757,1.056,1.163,1.724,0.979
					C123.141,57.156,123.431,56.407,123.318,55.652L123.318,55.652z"/>
			</g>
			<g>
				<path d="M116.012,58.247c0,0.057,0,0.114,0,0.171c0,0.764,0.638,1.401,1.401,1.401c0.764,0,1.401-0.638,1.401-1.401
					c0-0.057,0-0.114,0-0.171c0-0.764-0.638-1.401-1.401-1.401C116.65,56.846,116.012,57.483,116.012,58.247L116.012,58.247z"/>
			</g>
			<g>
				<path d="M114.649,71.959c1.808,0,1.808-2.803,0-2.803S112.841,71.959,114.649,71.959L114.649,71.959z"/>
			</g>
			<g>
				<path d="M116.925,78.799c1.808,0,1.808-2.803,0-2.803C115.117,75.996,115.117,78.799,116.925,78.799L116.925,78.799z"/>
			</g>
			<g>
				<path d="M123.593,81.194c1.807,0,1.807-2.803,0-2.803C121.786,78.39,121.786,81.194,123.593,81.194L123.593,81.194z"/>
			</g>
			<g>
				<path d="M130.423,82.047c1.807,0,1.807-2.803,0-2.803C128.615,79.244,128.615,82.047,130.423,82.047L130.423,82.047z"/>
			</g>
			<g>
				<path d="M136.928,80.851c1.807,0,1.807-2.803,0-2.803C135.12,78.047,135.12,80.851,136.928,80.851L136.928,80.851z"/>
			</g>
			<g>
				<path d="M141.318,76.747c1.807,0,1.807-2.803,0-2.803C139.511,73.944,139.51,76.747,141.318,76.747L141.318,76.747z"/>
			</g>
			<g>
				<path d="M143.595,70.421c1.808,0,1.808-2.803,0-2.803C141.787,67.617,141.787,70.421,143.595,70.421L143.595,70.421z"/>
			</g>
			<g>
				<path d="M143.433,62.898c0.053,0,0.108,0,0.162,0c0.764,0,1.401-0.638,1.401-1.401s-0.638-1.401-1.401-1.401
					c-0.053,0-0.108,0-0.162,0c-0.764,0-1.401,0.638-1.401,1.401S142.668,62.898,143.433,62.898L143.433,62.898z"/>
			</g>
			<g>
				<path d="M140.505,55.716c1.808,0,1.808-2.803,0-2.803S138.697,55.716,140.505,55.716L140.505,55.716z"/>
			</g>
			<g>
				<path d="M136.928,50.006c-0.108,0-0.217,0-0.325,0c-0.764,0-1.401,0.638-1.401,1.401s0.638,1.401,1.401,1.401
					c0.108,0,0.217,0,0.325,0c0.764,0,1.401-0.638,1.401-1.401C138.33,50.644,137.692,50.006,136.928,50.006L136.928,50.006z"/>
			</g>
		</g>
	</g>
	<g>
		<path d="M184.371,146.306c0.276,2.015,0.125,4.089-0.171,6.092c-0.26,1.768,2.44,2.528,2.703,0.746
			c0.375-2.545,0.521-5.028,0.171-7.583C186.83,143.777,184.128,144.538,184.371,146.306L184.371,146.306z"/>
	</g>
	<g>
		<path d="M180.096,145.731c-0.273,1.148-0.295,2.342-0.327,3.516c-0.017,0.622,0.135,2.73-0.167,3.047
			c-1.249,1.306,0.731,3.291,1.982,1.982c1.784-1.866,0.666-5.494,1.215-7.799C183.217,144.719,180.514,143.973,180.096,145.731
			L180.096,145.731z"/>
	</g>
	<g>
		<path d="M175.308,145.219c-0.509,2.257-0.346,4.566-0.683,6.84c-0.263,1.768,2.438,2.528,2.703,0.746
			c0.338-2.266,0.179-4.602,0.683-6.839C178.408,144.203,175.706,143.455,175.308,145.219L175.308,145.219z"/>
	</g>
	<g>
		<path d="M169.274,144.735c0.016,2.362,0.57,5.238-0.292,7.492c-0.648,1.691,2.064,2.416,2.703,0.746
			c0.961-2.508,0.409-5.618,0.392-8.238C172.066,142.928,169.262,142.927,169.274,144.735L169.274,144.735z"/>
	</g>
	<g>
		<path d="M164.537,144.706c-0.568,2.678-1.04,5.507-1.248,8.238c-0.137,1.804,2.667,1.791,2.803,0
			c0.189-2.486,0.63-5.056,1.147-7.492C167.615,143.688,164.912,142.938,164.537,144.706L164.537,144.706z"/>
	</g>
	<g>
		<path d="M158.723,144.363c-0.193,1.328-0.218,2.658-0.235,3.998c-0.015,1.16,0.166,2.598-0.278,3.697
			c-0.678,1.677,2.034,2.398,2.703,0.746c0.938-2.316,0.159-5.26,0.513-7.694C161.683,143.341,158.982,142.58,158.723,144.363
			L158.723,144.363z"/>
	</g>
	<g>
		<g>
			<path d="M186.577,158.039c-2.942-0.26-5.941,0.293-8.852-0.292c-1.765-0.355-2.516,2.347-0.746,2.703
				c3.183,0.64,6.388,0.108,9.597,0.392C188.378,161.001,188.364,158.197,186.577,158.039L186.577,158.039z"/>
		</g>
		<g>
			<path d="M185.881,162.533c-3.458,0.811-7.134-0.159-10.631-0.221c-1.809-0.032-1.806,2.772,0,2.803
				c3.793,0.066,7.619,1.002,11.376,0.121C188.386,164.824,187.64,162.121,185.881,162.533L185.881,162.533z"/>
		</g>
		<g>
			<path d="M184.91,167.664c-2.723,0.462-5.674,0.023-8.317-0.684c-1.749-0.467-2.49,2.237-0.746,2.703
				c3.159,0.844,6.567,1.233,9.808,0.684C187.435,170.065,186.678,167.364,184.91,167.664L184.91,167.664z"/>
		</g>
		<g>
			<path d="M170.394,157.697c-3.68-0.05-7.323-0.635-11.004-0.684c-1.809-0.024-1.806,2.78,0,2.803
				c3.68,0.05,7.323,0.635,11.004,0.684C172.204,160.524,172.201,157.721,170.394,157.697L170.394,157.697z"/>
		</g>
		<g>
			<path d="M170.022,161.679c-3.237,0.825-6.69,0.161-9.984,0.121c-1.808-0.022-1.806,2.782,0,2.803
				c3.573,0.044,7.212,0.674,10.728-0.221C172.518,163.937,171.775,161.232,170.022,161.679L170.022,161.679z"/>
		</g>
		<g>
			<path d="M168.89,166.98c-2.647,0.462-5.372,0.142-8.042,0.121c-1.808-0.014-1.807,2.79,0,2.803
				c2.944,0.024,5.867,0.29,8.788-0.22C171.414,169.372,170.658,166.672,168.89,166.98L168.89,166.98z"/>
		</g>
	</g>
	<g>
		<path d="M184.712,176.165c-0.992,5.742-8.892,0.192-11.709-1.377c-2.25-1.253-4.696-2.027-7.22-1.207
			c-2.732,0.888-4.652,3.711-6.7,5.556c-1.346,1.212,0.644,3.189,1.982,1.982c2.564-2.309,4.679-5.897,8.59-4.801
			c2.407,0.675,4.653,2.489,6.899,3.565c4.173,1.999,9.846,2.905,10.861-2.973C187.721,175.143,185.019,174.387,184.712,176.165
			L184.712,176.165z"/>
	</g>
	<g>
		<path d="M184.697,184.198c-0.057,0-0.114,0-0.171,0c-0.764,0-1.401,0.638-1.401,1.401s0.638,1.401,1.401,1.401
			c0.057,0,0.114,0,0.171,0c0.764,0,1.401-0.638,1.401-1.401S185.46,184.198,184.697,184.198L184.697,184.198z"/>
	</g>
	<g>
		<path d="M178.37,183.685c-0.057,0-0.114,0-0.171,0c-0.764,0-1.401,0.638-1.401,1.401c0,0.764,0.638,1.401,1.401,1.401
			c0.057,0,0.114,0,0.171,0c0.764,0,1.401-0.638,1.401-1.401C179.771,184.323,179.133,183.685,178.37,183.685L178.37,183.685z"/>
	</g>
	<g>
		<path d="M172.043,184.369c-0.056,0-0.114,0-0.171,0c-0.764,0-1.401,0.638-1.401,1.401c0,0.763,0.638,1.401,1.401,1.401
			c0.057,0,0.114,0,0.171,0c0.764,0,1.401-0.638,1.401-1.401C173.444,185.007,172.808,184.369,172.043,184.369L172.043,184.369z"/>
	</g>
	<g>
		<path d="M164.52,184.027c-0.171,0-0.342,0-0.513,0c-0.764,0-1.401,0.638-1.401,1.401c0,0.763,0.638,1.401,1.401,1.401
			c0.171,0,0.342,0,0.513,0c0.764,0,1.401-0.638,1.401-1.401C165.922,184.665,165.285,184.027,164.52,184.027L164.52,184.027z"/>
	</g>
	<g>
		<path d="M114.971,100.142c1.807,0,1.807-2.803,0-2.803C113.162,97.339,113.162,100.142,114.971,100.142L114.971,100.142z"/>
	</g>
	<g>
		<g>
			<path d="M127.123,91.2c4.212-1.114,7.894,0.261,9.218,4.599c1.091,3.577,0.147,7.902-2.423,10.618
				c-3.914,4.136-11.314,1.968-13.415-3.017c-1.57-3.723,3.117-5.71,5.99-6.078c1.675-0.215,3.473,0.065,4.464,1.557
				c0.989,1.487-0.114,2.892-1.298,3.643c-0.943,0.505-1.747,0.415-2.413-0.271c-0.216-0.518-0.238-0.6-0.065-0.248
				c1.644,0.697,3.075-1.717,1.415-2.421c-3.84-1.628-6.071,3.164-2.639,5.266c4.775,2.924,9.628-2.8,7.42-7.384
				c-2.143-4.45-8.78-3.105-12.179-1.331c-5.116,2.671-4.307,8.358-0.767,11.904c6.315,6.329,15.912,3.111,18.488-4.856
				c2.082-6.44-0.805-14.448-8.154-15.203c-1.459-0.151-2.985,0.151-4.388,0.521C124.632,88.959,125.373,91.664,127.123,91.2
				L127.123,91.2z"/>
		</g>
		<g>
			<path d="M122.735,90.673c-0.12-0.803-0.95-1.194-1.677-1.2c-0.764-0.005-1.401,0.642-1.401,1.401
				c0,0.768,0.638,1.396,1.401,1.401c0.023,0,0.046,0.001,0.069,0.001c-0.171-0.008-0.335-0.051-0.487-0.129
				c-0.167-0.168-0.335-0.336-0.503-0.503c-0.035-0.075-0.07-0.151-0.105-0.226c0.113,0.757,1.056,1.163,1.724,0.979
				C122.559,92.177,122.848,91.428,122.735,90.673L122.735,90.673z"/>
		</g>
		<g>
			<path d="M115.429,93.268c0,0.057,0,0.115,0,0.171c0,0.764,0.638,1.401,1.401,1.401c0.764,0,1.401-0.638,1.401-1.401
				c0-0.057,0-0.115,0-0.171c0-0.763-0.638-1.401-1.401-1.401C116.067,91.867,115.429,92.504,115.429,93.268L115.429,93.268z"/>
		</g>
		<g>
			<path d="M114.066,106.981c1.808,0,1.808-2.803,0-2.803C112.258,104.177,112.258,106.981,114.066,106.981L114.066,106.981z"/>
		</g>
		<g>
			<path d="M116.343,113.82c1.807,0,1.807-2.803,0-2.803C114.535,111.017,114.535,113.82,116.343,113.82L116.343,113.82z"/>
		</g>
		<g>
			<path d="M123.011,116.214c1.808,0,1.808-2.803,0-2.803C121.202,113.411,121.202,116.214,123.011,116.214L123.011,116.214z"/>
		</g>
		<g>
			<path d="M129.84,117.068c1.808,0,1.808-2.803,0-2.803C128.033,114.264,128.033,117.068,129.84,117.068L129.84,117.068z"/>
		</g>
		<g>
			<path d="M136.344,115.872c1.808,0,1.808-2.803,0-2.803C134.537,113.069,134.537,115.872,136.344,115.872L136.344,115.872z"/>
		</g>
		<g>
			<path d="M140.735,111.769c1.808,0,1.808-2.803,0-2.803C138.928,108.965,138.928,111.769,140.735,111.769L140.735,111.769z"/>
		</g>
		<g>
			<path d="M143.012,105.442c1.808,0,1.808-2.803,0-2.803C141.205,102.639,141.205,105.442,143.012,105.442L143.012,105.442z"/>
		</g>
		<g>
			<path d="M142.849,97.919c0.054,0,0.108,0,0.162,0c0.764,0,1.401-0.638,1.401-1.401c0-0.763-0.638-1.401-1.401-1.401
				c-0.054,0-0.108,0-0.162,0c-0.764,0-1.401,0.638-1.401,1.401C141.448,97.281,142.086,97.919,142.849,97.919L142.849,97.919z"/>
		</g>
		<g>
			<path d="M139.923,90.738c1.807,0,1.807-2.803,0-2.803C138.115,87.934,138.115,90.738,139.923,90.738L139.923,90.738z"/>
		</g>
		<g>
			<path d="M136.344,85.028c-0.108,0-0.217,0-0.325,0c-0.764,0-1.401,0.638-1.401,1.401c0,0.763,0.638,1.401,1.401,1.401
				c0.109,0,0.217,0,0.325,0c0.764,0,1.401-0.638,1.401-1.401C137.746,85.666,137.109,85.028,136.344,85.028L136.344,85.028z"/>
		</g>
	</g>
	<g>
		<path d="M139.267,122.025c0.276,2.015,0.125,4.089-0.17,6.092c-0.26,1.768,2.441,2.528,2.703,0.746
			c0.374-2.545,0.521-5.028,0.17-7.583C141.725,119.495,139.024,120.257,139.267,122.025L139.267,122.025z"/>
	</g>
	<g>
		<path d="M134.992,121.449c-0.273,1.148-0.295,2.342-0.327,3.516c-0.017,0.622,0.135,2.73-0.167,3.047
			c-1.249,1.305,0.731,3.291,1.982,1.982c1.784-1.866,0.666-5.495,1.215-7.799C138.114,120.436,135.411,119.691,134.992,121.449
			L134.992,121.449z"/>
	</g>
	<g>
		<path d="M130.205,120.937c-0.509,2.257-0.346,4.566-0.684,6.84c-0.263,1.768,2.438,2.528,2.703,0.746
			c0.338-2.267,0.179-4.603,0.684-6.84C133.305,119.922,130.602,119.173,130.205,120.937L130.205,120.937z"/>
	</g>
	<g>
		<path d="M124.17,120.454c0.015,2.362,0.571,5.238-0.291,7.492c-0.648,1.691,2.064,2.416,2.703,0.746
			c0.961-2.509,0.409-5.618,0.392-8.238C126.962,118.647,124.158,118.646,124.17,120.454L124.17,120.454z"/>
	</g>
	<g>
		<path d="M119.433,120.425c-0.568,2.678-1.039,5.507-1.248,8.237c-0.138,1.804,2.667,1.79,2.803,0
			c0.19-2.485,0.63-5.055,1.147-7.491C122.51,119.407,119.808,118.656,119.433,120.425L119.433,120.425z"/>
	</g>
	<g>
		<path d="M113.619,120.082c-0.193,1.328-0.218,2.658-0.235,3.998c-0.015,1.16,0.166,2.597-0.278,3.697
			c-0.678,1.677,2.035,2.399,2.703,0.746c0.937-2.317,0.159-5.259,0.513-7.694C116.579,119.059,113.877,118.298,113.619,120.082
			L113.619,120.082z"/>
	</g>
	<g>
		<g>
			<path d="M141.473,133.757c-2.942-0.26-5.941,0.293-8.852-0.292c-1.765-0.355-2.517,2.347-0.746,2.703
				c3.183,0.64,6.388,0.108,9.597,0.392C143.275,136.72,143.259,133.916,141.473,133.757L141.473,133.757z"/>
		</g>
		<g>
			<path d="M140.777,138.252c-3.458,0.811-7.134-0.159-10.631-0.221c-1.809-0.032-1.806,2.772,0,2.803
				c3.793,0.066,7.619,1.002,11.376,0.121C143.282,140.543,142.535,137.839,140.777,138.252L140.777,138.252z"/>
		</g>
		<g>
			<path d="M139.806,143.383c-2.723,0.462-5.674,0.023-8.317-0.684c-1.749-0.467-2.49,2.237-0.746,2.703
				c3.159,0.845,6.567,1.234,9.808,0.684C142.331,145.784,141.574,143.083,139.806,143.383L139.806,143.383z"/>
		</g>
		<g>
			<path d="M125.291,133.415c-3.681-0.05-7.324-0.635-11.005-0.684c-1.809-0.024-1.806,2.78,0,2.803
				c3.681,0.05,7.324,0.635,11.005,0.684C127.099,136.243,127.097,133.44,125.291,133.415L125.291,133.415z"/>
		</g>
		<g>
			<path d="M124.918,137.397c-3.237,0.825-6.69,0.161-9.984,0.122c-1.808-0.022-1.806,2.782,0,2.803
				c3.573,0.044,7.213,0.674,10.729-0.221C127.414,139.654,126.671,136.95,124.918,137.397L124.918,137.397z"/>
		</g>
		<g>
			<path d="M123.785,142.697c-2.647,0.462-5.372,0.143-8.042,0.121c-1.808-0.014-1.807,2.79,0,2.803
				c2.943,0.024,5.866,0.289,8.787-0.221C126.309,145.091,125.552,142.389,123.785,142.697L123.785,142.697z"/>
		</g>
	</g>
	<g>
		<path d="M139.608,151.884c-0.992,5.742-8.892,0.192-11.709-1.377c-2.25-1.253-4.696-2.027-7.22-1.207
			c-2.732,0.887-4.652,3.71-6.7,5.555c-1.346,1.212,0.643,3.189,1.982,1.982c2.564-2.309,4.68-5.897,8.59-4.8
			c2.407,0.675,4.653,2.489,6.899,3.564c4.173,1.999,9.846,2.905,10.861-2.973C142.617,150.861,139.915,150.106,139.608,151.884
			L139.608,151.884z"/>
	</g>
	<g>
		<path d="M149.288,17.147c6.171,1.965,4.54,11.239-0.949,13.034c-1.71,0.559-0.978,3.267,0.746,2.703
			c8.153-2.665,9.82-15.615,0.949-18.441C148.307,13.893,147.573,16.6,149.288,17.147L149.288,17.147z"/>
	</g>
	<g>
		<path d="M149.096,37.694c7.19,1.163,4.758,10.57-1.362,11.375c-1.766,0.233-1.788,3.039,0,2.803
			c8.942-1.177,12.696-15.17,2.106-16.883C148.073,34.705,147.314,37.406,149.096,37.694L149.096,37.694z"/>
	</g>
	<g>
		<path d="M149.288,56.368c6.171,1.965,4.54,11.24-0.949,13.034c-1.71,0.56-0.978,3.267,0.746,2.703
			c8.153-2.665,9.819-15.616,0.949-18.442C148.307,53.115,147.573,55.822,149.288,56.368L149.288,56.368z"/>
	</g>
	<g>
		<path d="M149.096,76.916c7.19,1.163,4.758,10.57-1.362,11.376c-1.766,0.233-1.788,3.039,0,2.803
			c8.943-1.177,12.696-15.17,2.106-16.883C148.073,73.926,147.314,76.627,149.096,76.916L149.096,76.916z"/>
	</g>
	<g>
		<path d="M149.288,95.59c6.171,1.965,4.54,11.24-0.949,13.034c-1.71,0.559-0.978,3.267,0.746,2.703
			c8.153-2.664,9.819-15.616,0.949-18.442C148.307,92.337,147.573,95.043,149.288,95.59L149.288,95.59z"/>
	</g>
	<g>
		<path d="M149.096,116.139c7.19,1.163,4.758,10.57-1.362,11.375c-1.766,0.233-1.788,3.039,0,2.803
			c8.942-1.178,12.696-15.17,2.106-16.883C148.073,113.149,147.314,115.851,149.096,116.139L149.096,116.139z"/>
	</g>
	<g>
		<path d="M149.288,134.812c6.171,1.965,4.54,11.24-0.949,13.034c-1.71,0.559-0.978,3.267,0.746,2.703
			c8.153-2.664,9.819-15.615,0.949-18.441C148.307,131.559,147.573,134.265,149.288,134.812L149.288,134.812z"/>
	</g>
	<g>
		<path d="M149.096,155.36c7.19,1.164,4.758,10.57-1.362,11.376c-1.766,0.233-1.788,3.039,0,2.803
			c8.943-1.177,12.695-15.17,2.106-16.883C148.073,152.37,147.314,155.072,149.096,155.36L149.096,155.36z"/>
	</g>
	<g>
		<path d="M149.288,174.033c6.17,1.965,4.541,11.241-0.949,13.035c-1.71,0.559-0.978,3.267,0.746,2.703
			c8.153-2.664,9.819-15.616,0.949-18.443C148.307,170.78,147.573,173.487,149.288,174.033L149.288,174.033z"/>
	</g>
	<g>
		<path d="M102.996,17.147c6.17,1.965,4.54,11.239-0.949,13.034c-1.71,0.559-0.978,3.267,0.746,2.703
			c8.152-2.665,9.819-15.615,0.949-18.441C102.014,13.893,101.281,16.6,102.996,17.147L102.996,17.147z"/>
	</g>
	<g>
		<path d="M102.804,37.694c7.19,1.163,4.758,10.569-1.362,11.375c-1.766,0.233-1.788,3.039,0,2.803
			c8.943-1.177,12.696-15.17,2.106-16.883C101.781,34.705,101.023,37.406,102.804,37.694L102.804,37.694z"/>
	</g>
	<g>
		<path d="M102.996,56.368c6.17,1.965,4.54,11.24-0.949,13.034c-1.71,0.56-0.978,3.267,0.746,2.703
			c8.153-2.665,9.819-15.616,0.949-18.442C102.014,53.115,101.281,55.822,102.996,56.368L102.996,56.368z"/>
	</g>
	<g>
		<path d="M102.804,76.916c7.19,1.163,4.758,10.57-1.362,11.376c-1.766,0.233-1.788,3.039,0,2.803
			c8.943-1.177,12.696-15.17,2.106-16.883C101.781,73.926,101.023,76.627,102.804,76.916L102.804,76.916z"/>
	</g>
	<g>
		<path d="M102.996,95.59c6.17,1.965,4.54,11.24-0.949,13.034c-1.71,0.559-0.978,3.267,0.746,2.703
			c8.153-2.664,9.819-15.616,0.949-18.442C102.014,92.337,101.281,95.043,102.996,95.59L102.996,95.59z"/>
	</g>
	<g>
		<path d="M102.804,116.139c7.19,1.163,4.758,10.57-1.362,11.375c-1.766,0.233-1.788,3.039,0,2.803
			c8.942-1.178,12.696-15.17,2.106-16.883C101.781,113.149,101.023,115.851,102.804,116.139L102.804,116.139z"/>
	</g>
	<g>
		<path d="M102.996,134.812c6.17,1.965,4.54,11.24-0.949,13.034c-1.71,0.559-0.978,3.267,0.746,2.703
			c8.153-2.664,9.819-15.615,0.949-18.441C102.014,131.559,101.281,134.265,102.996,134.812L102.996,134.812z"/>
	</g>
	<g>
		<path d="M102.804,155.36c7.19,1.164,4.758,10.57-1.362,11.376c-1.766,0.233-1.788,3.039,0,2.803
			c8.943-1.177,12.695-15.17,2.106-16.883C101.781,152.37,101.023,155.072,102.804,155.36L102.804,155.36z"/>
	</g>
	<g>
		<path d="M102.996,174.033c6.17,1.965,4.54,11.241-0.949,13.035c-1.71,0.559-0.978,3.267,0.746,2.703
			c8.153-2.664,9.818-15.616,0.949-18.443C102.014,170.779,101.281,173.487,102.996,174.033L102.996,174.033z"/>
	</g>
	<g>
		<path d="M82.607,14.921c4.516-1.393,9.133,0.665,9.634,5.691c0.433,4.339-2.021,8.058-6.452,8.35
			c-3.531,0.233-9.336-1.877-6.794-6.489c1.069-1.941,3.749-2.88,5.818-2.92c1.438-0.028,3.005,1.057,2.719,2.625
			c-0.295,0.744-0.821,1.241-1.575,1.494c-0.591,0.227-1.613,0.537-1.034-0.407c0.95-1.545-1.476-2.952-2.42-1.415
			c-1.758,2.862,0.442,5.438,3.666,4.655c3.408-0.827,5.348-4.298,3.359-7.409c-2.187-3.42-7.057-2.488-9.999-0.856
			c-3.625,2.012-4.789,6.077-2.911,9.705c1.654,3.196,5.959,3.905,9.169,3.82c3.789-0.1,6.933-2.027,8.345-5.623
			c1.354-3.446,1.427-7.929-1.011-10.942c-2.748-3.397-7.205-4.234-11.262-2.983C80.14,12.749,80.875,15.455,82.607,14.921
			L82.607,14.921z"/>
	</g>
	<g>
		<path d="M75.279,14.149c-0.004,0.018-0.008,0.035-0.012,0.051c0.12-0.206,0.24-0.412,0.36-0.619
			c-0.011,0.011-0.022,0.022-0.032,0.032c0.206-0.121,0.412-0.241,0.619-0.36c0.289-0.023,0.357-0.032,0.205-0.028
			c-0.763,0.01-1.401,0.63-1.401,1.401c0,0.757,0.638,1.412,1.401,1.401c0.709-0.01,1.395-0.402,1.563-1.135
			c0.17-0.745-0.219-1.515-0.979-1.725C76.292,12.974,75.449,13.404,75.279,14.149L75.279,14.149z"/>
	</g>
	<g>
		<path d="M72.189,21.422c1.808,0,1.808-2.803,0-2.803C70.382,18.619,70.382,21.422,72.189,21.422L72.189,21.422z"/>
	</g>
	<g>
		<path d="M71.978,27.979c1.807,0,1.807-2.803,0-2.803C70.17,25.176,70.17,27.979,71.978,27.979L71.978,27.979z"/>
	</g>
	<g>
		<path d="M74.832,30.779c-0.036,0-0.07,0-0.106,0c-0.764,0-1.401,0.638-1.401,1.401c0,0.764,0.638,1.401,1.401,1.401
			c0.036,0,0.07,0,0.106,0c0.764,0,1.401-0.638,1.401-1.401C76.234,31.417,75.597,30.779,74.832,30.779L74.832,30.779z"/>
	</g>
	<g>
		<path d="M81.495,36.756c1.807,0,1.807-2.803,0-2.803C79.688,33.953,79.688,36.756,81.495,36.756L81.495,36.756z"/>
	</g>
	<g>
		<path d="M87.418,37.179c1.807,0,1.807-2.803,0-2.803C85.609,34.375,85.609,37.179,87.418,37.179L87.418,37.179z"/>
	</g>
	<g>
		<path d="M93.233,34.852c1.807,0,1.807-2.803,0-2.803C91.425,32.049,91.425,34.852,93.233,34.852L93.233,34.852z"/>
	</g>
	<g>
		<path d="M98.336,29.433c0-0.036,0-0.07,0-0.106c0-0.764-0.638-1.401-1.401-1.401c-0.763,0-1.401,0.638-1.401,1.401
			c0,0.036,0,0.07,0,0.106c0,0.764,0.638,1.401,1.401,1.401C97.699,30.834,98.336,30.197,98.336,29.433L98.336,29.433z"/>
	</g>
	<g>
		<path d="M98.626,24.701c1.808,0,1.808-2.803,0-2.803S96.818,24.701,98.626,24.701L98.626,24.701z"/>
	</g>
	<g>
		<path d="M97.463,18.038c1.807,0,1.807-2.803,0-2.803C95.656,15.235,95.656,18.038,97.463,18.038L97.463,18.038z"/>
	</g>
	<g>
		<path d="M93.194,10.252c-0.036,0.035-0.07,0.069-0.106,0.105c-0.543,0.537-0.538,1.445,0,1.982c0.542,0.542,1.44,0.537,1.982,0
			c0.036-0.035,0.07-0.069,0.106-0.105c0.543-0.537,0.538-1.445,0-1.982C94.634,9.711,93.736,9.716,93.194,10.252L93.194,10.252z"/>
	</g>
	<g>
		<path d="M85.157,42.372c1.003,1.051,1.795,2.33,2.213,3.724c0.476,1.59-0.952,2.042-2.27,2.057
			c-4.213,0.049-0.059-4.096,0.981-5.253c1.205-1.34-0.771-3.329-1.982-1.982c-1.474,1.639-3.434,3.343-3.733,5.653
			c-0.335,2.591,2.141,4.066,4.381,4.364c2.277,0.302,5.006-0.99,5.464-3.375c0.492-2.564-1.391-5.412-3.072-7.171
			C85.889,39.081,83.909,41.066,85.157,42.372L85.157,42.372z"/>
	</g>
	<g>
		<path d="M88.401,53.178c-1.604,1.089-4.694,2.171-6.127,0.325c-1.107-1.427-3.076,0.572-1.982,1.982
			c2.216,2.858,6.928,1.876,9.523,0.113C91.301,54.589,89.901,52.159,88.401,53.178L88.401,53.178z"/>
	</g>
	<g>
		<path d="M89.143,58.994c-2.392,1.78-7.171,2.541-8.975-0.449c-0.932-1.546-3.357-0.138-2.42,1.415
			c2.576,4.272,9.121,4.201,12.81,1.455C91.99,60.349,90.594,57.913,89.143,58.994L89.143,58.994z"/>
	</g>
	<g>
		<path d="M92.771,62.915c-2.875,2.524-6.027,4.057-9.916,3.353c-3.309-0.599-6.162-2.232-7.976-5.078
			c-0.968-1.519-3.395-0.115-2.42,1.415c2.302,3.614,5.569,5.333,9.65,6.366c4.779,1.211,9.139-0.995,12.644-4.074
			C96.114,63.702,94.124,61.727,92.771,62.915L92.771,62.915z"/>
	</g>
	<g>
		<path d="M75.109,41.797c1.111,0.021,1.224,1.337,1.074,2.216c-0.285,1.68-1.861,1.437-3.197,1.432
			c-1.808-0.007-1.807,2.796,0,2.803c1.239,0.004,2.618,0.083,3.75-0.516c1.241-0.657,1.964-1.88,2.194-3.241
			c0.451-2.652-0.88-5.441-3.823-5.497C73.3,38.959,73.303,41.762,75.109,41.797L75.109,41.797z"/>
	</g>
	<g>
		<path d="M97.891,40.146c-3.31-0.882-6.358,0.828-6.4,4.439c-0.038,3.258,2.619,5.628,5.807,5.14
			c1.782-0.273,1.023-2.974-0.746-2.703c-1.439,0.221-2.218-1.192-2.258-2.436c-0.056-1.781,1.366-2.132,2.852-1.736
			C98.894,43.316,99.635,40.612,97.891,40.146L97.891,40.146z"/>
	</g>
	<g>
		<path d="M74.769,55.973c1.807,0,1.807-2.803,0-2.803C72.962,53.169,72.962,55.973,74.769,55.973L74.769,55.973z"/>
	</g>
	<g>
		<path d="M93.981,56.041c-0.029,0.028-0.056,0.056-0.085,0.084c-0.543,0.537-0.539,1.444,0,1.982c0.542,0.542,1.44,0.538,1.982,0
			c0.029-0.028,0.057-0.056,0.085-0.084c0.543-0.537,0.539-1.444,0-1.982C95.421,55.499,94.524,55.503,93.981,56.041L93.981,56.041z
			"/>
	</g>
	<g>
		<path d="M41.211,161.862c1.003,1.051,1.795,2.33,2.213,3.723c0.477,1.59-0.951,2.042-2.269,2.057
			c-4.213,0.049-0.06-4.096,0.981-5.253c1.205-1.34-0.771-3.329-1.982-1.982c-1.474,1.639-3.434,3.344-3.733,5.653
			c-0.335,2.591,2.141,4.067,4.381,4.364c2.277,0.303,5.006-0.99,5.464-3.375c0.492-2.564-1.391-5.411-3.072-7.171
			C41.943,158.569,39.964,160.555,41.211,161.862L41.211,161.862z"/>
	</g>
	<g>
		<path d="M44.456,172.667c-1.605,1.089-4.695,2.171-6.128,0.325c-1.107-1.427-3.076,0.572-1.982,1.982
			c2.217,2.858,6.929,1.876,9.524,0.113C47.358,174.079,45.957,171.649,44.456,172.667L44.456,172.667z"/>
	</g>
	<g>
		<path d="M45.197,178.482c-2.391,1.781-7.171,2.54-8.975-0.449c-0.933-1.546-3.357-0.138-2.42,1.415
			c2.577,4.271,9.121,4.2,12.81,1.456C48.044,179.837,46.649,177.403,45.197,178.482L45.197,178.482z"/>
	</g>
	<g>
		<path d="M48.825,182.404c-2.875,2.524-6.026,4.058-9.916,3.352c-3.31-0.601-6.162-2.231-7.975-5.078
			c-0.967-1.52-3.395-0.115-2.42,1.415c2.302,3.617,5.568,5.332,9.65,6.366c4.779,1.212,9.139-0.994,12.644-4.073
			C52.168,183.19,50.177,181.216,48.825,182.404L48.825,182.404z"/>
	</g>
	<g>
		<path d="M31.164,161.285c1.11,0.022,1.223,1.337,1.074,2.216c-0.285,1.68-1.862,1.437-3.197,1.432
			c-1.808-0.007-1.807,2.796,0,2.803c1.239,0.004,2.618,0.083,3.75-0.516c1.241-0.658,1.964-1.88,2.195-3.241
			c0.451-2.652-0.879-5.44-3.822-5.497C29.355,158.448,29.358,161.251,31.164,161.285L31.164,161.285z"/>
	</g>
	<g>
		<path d="M53.945,159.635c-3.31-0.882-6.358,0.828-6.4,4.439c-0.038,3.258,2.619,5.628,5.806,5.139
			c1.782-0.273,1.023-2.974-0.746-2.703c-1.439,0.221-2.218-1.192-2.258-2.436c-0.057-1.781,1.365-2.132,2.852-1.736
			C54.949,162.805,55.69,160.1,53.945,159.635L53.945,159.635z"/>
	</g>
	<g>
		<path d="M30.823,175.46c1.807,0,1.807-2.803,0-2.803C29.015,172.657,29.015,175.46,30.823,175.46L30.823,175.46z"/>
	</g>
	<g>
		<path d="M50.034,175.528c-0.028,0.029-0.056,0.056-0.084,0.085c-0.537,0.543-0.543,1.44,0,1.982c0.538,0.538,1.446,0.544,1.982,0
			c0.028-0.029,0.056-0.057,0.084-0.085c0.537-0.543,0.543-1.44,0-1.982C51.479,174.992,50.571,174.985,50.034,175.528
			L50.034,175.528z"/>
	</g>
	<g>
		<path d="M96.102,72.868c-0.326,3.775-0.43,8.005-2.295,11.399c-1.451,2.64-3.922,0.081-4.679-1.796
			c-1.256-3.116-0.865-6.832-0.849-10.115c0.009-1.808-2.795-1.807-2.803,0c-0.021,4.162-0.286,8.501,1.6,12.34
			c1.127,2.294,4.406,4.556,6.972,3.188c4.599-2.451,4.473-10.558,4.857-15.012C99.061,71.066,96.257,71.081,96.102,72.868
			L96.102,72.868z"/>
	</g>
	<g>
		<path d="M80.323,72.868c-0.327,3.775-0.431,8.005-2.295,11.399c-1.451,2.64-3.922,0.081-4.679-1.796
			c-1.255-3.116-0.864-6.832-0.848-10.115c0.009-1.808-2.795-1.807-2.803,0c-0.021,4.162-0.286,8.501,1.599,12.34
			c1.127,2.294,4.406,4.556,6.972,3.188c4.599-2.451,4.472-10.558,4.857-15.012C83.282,71.066,80.478,71.082,80.323,72.868
			L80.323,72.868z"/>
	</g>
	<g>
		<path d="M84.48,87.724c1.807,0,1.807-2.803,0-2.803C82.671,84.922,82.671,87.724,84.48,87.724L84.48,87.724z"/>
	</g>
	<g>
		<path d="M84.565,92.267c1.808,0,1.808-2.803,0-2.803C82.758,89.463,82.758,92.267,84.565,92.267L84.565,92.267z"/>
	</g>
	<g>
		<path d="M83.042,95.291c-0.005,0.017-0.01,0.034-0.015,0.05c0.215-0.279,0.43-0.559,0.645-0.838
			c0.183-0.051,0.367-0.103,0.551-0.155c-0.763,0.017-1.401,0.625-1.401,1.401c0,0.752,0.638,1.418,1.401,1.401
			c0.722-0.016,1.309-0.4,1.523-1.114c0.219-0.732-0.254-1.525-0.979-1.725C84.017,94.106,83.261,94.56,83.042,95.291L83.042,95.291
			z"/>
	</g>
	<g>
		<path d="M98.507,105.918c0.163-4.415,0.005-11.91-3.497-15.125c-2.061-1.891-4.798-0.309-5.982,1.724
			c-0.913,1.569-0.96,3.684-1.037,5.444c-0.12,2.73-0.84,5.35-0.971,8.071c-0.088,1.808,2.715,1.799,2.803,0
			c0.089-1.827,0.657-3.555,0.827-5.366c0.161-1.711,0.095-3.435,0.351-5.138c0.454-3.025,2.199-3.474,3.213-0.793
			c1.289,3.407,1.622,7.555,1.488,11.183C95.636,107.727,98.44,107.721,98.507,105.918L98.507,105.918z"/>
	</g>
	<g>
		<path d="M80.507,105.918c0.164-4.415,0.006-11.91-3.496-15.125c-2.061-1.891-4.798-0.309-5.982,1.724
			c-0.913,1.569-0.96,3.684-1.037,5.444c-0.12,2.73-0.84,5.35-0.972,8.071c-0.088,1.808,2.715,1.799,2.803,0
			c0.089-1.827,0.657-3.555,0.827-5.366c0.161-1.711,0.095-3.435,0.352-5.138c0.454-3.025,2.199-3.474,3.214-0.793
			c1.289,3.407,1.622,7.555,1.487,11.183C77.636,107.727,80.439,107.721,80.507,105.918L80.507,105.918z"/>
	</g>
	<g>
		<path d="M71.236,124.423c1.807,0,1.807-2.803,0-2.803C69.429,121.62,69.429,124.423,71.236,124.423L71.236,124.423z"/>
	</g>
	<g>
		<g>
			<path d="M83.389,115.482c4.212-1.114,7.894,0.262,9.217,4.599c1.091,3.576,0.147,7.902-2.423,10.618
				c-3.913,4.136-11.314,1.967-13.415-3.017c-1.57-3.723,3.117-5.71,5.99-6.078c1.675-0.215,3.473,0.065,4.464,1.558
				c0.989,1.486-0.114,2.891-1.298,3.642c-0.943,0.505-1.748,0.415-2.413-0.271c-0.216-0.518-0.238-0.6-0.064-0.248
				c1.644,0.697,3.075-1.716,1.415-2.42c-3.84-1.629-6.071,3.164-2.639,5.266c4.775,2.925,9.628-2.8,7.421-7.384
				c-2.143-4.45-8.78-3.105-12.179-1.331c-5.116,2.671-4.306,8.358-0.767,11.904c6.315,6.328,15.912,3.111,18.488-4.856
				c2.082-6.44-0.804-14.448-8.153-15.203c-1.459-0.15-2.986,0.151-4.388,0.521C80.898,113.24,81.64,115.944,83.389,115.482
				L83.389,115.482z"/>
		</g>
		<g>
			<path d="M79.001,114.954c-0.121-0.803-0.951-1.194-1.677-1.199c-0.764-0.005-1.401,0.642-1.401,1.401
				c0,0.768,0.638,1.396,1.401,1.401c0.023,0,0.047,0.001,0.069,0.001c-0.171-0.008-0.334-0.051-0.487-0.13
				c-0.167-0.167-0.336-0.335-0.503-0.503c-0.035-0.075-0.07-0.152-0.105-0.226c0.114,0.757,1.056,1.163,1.724,0.979
				C78.824,116.459,79.115,115.71,79.001,114.954L79.001,114.954z"/>
		</g>
		<g>
			<path d="M71.694,117.55c0,0.057,0,0.114,0,0.171c0,0.763,0.638,1.401,1.401,1.401c0.763,0,1.401-0.638,1.401-1.401
				c0-0.057,0-0.114,0-0.171c0-0.763-0.638-1.401-1.401-1.401C72.332,116.149,71.694,116.786,71.694,117.55L71.694,117.55z"/>
		</g>
		<g>
			<path d="M70.333,131.262c1.808,0,1.808-2.803,0-2.803S68.525,131.262,70.333,131.262L70.333,131.262z"/>
		</g>
		<g>
			<path d="M72.608,138.102c1.807,0,1.807-2.803,0-2.803S70.801,138.102,72.608,138.102L72.608,138.102z"/>
		</g>
		<g>
			<path d="M79.276,140.495c1.807,0,1.807-2.803,0-2.803C77.469,137.692,77.469,140.495,79.276,140.495L79.276,140.495z"/>
		</g>
		<g>
			<path d="M86.106,141.35c1.808,0,1.808-2.803,0-2.803C84.298,138.546,84.298,141.35,86.106,141.35L86.106,141.35z"/>
		</g>
		<g>
			<path d="M92.611,140.153c1.807,0,1.807-2.803,0-2.803C90.802,137.35,90.802,140.153,92.611,140.153L92.611,140.153z"/>
		</g>
		<g>
			<path d="M97.001,136.05c1.807,0,1.807-2.803,0-2.803C95.193,133.246,95.193,136.05,97.001,136.05L97.001,136.05z"/>
		</g>
		<g>
			<path d="M99.278,129.723c1.807,0,1.807-2.803,0-2.803C97.47,126.92,97.47,129.723,99.278,129.723L99.278,129.723z"/>
		</g>
		<g>
			<path d="M99.115,122.2c0.054,0,0.109,0,0.162,0c0.764,0,1.401-0.638,1.401-1.401c0-0.763-0.638-1.401-1.401-1.401
				c-0.054,0-0.109,0-0.162,0c-0.764,0-1.401,0.638-1.401,1.401C97.713,121.562,98.351,122.2,99.115,122.2L99.115,122.2z"/>
		</g>
		<g>
			<path d="M96.188,115.019c1.807,0,1.807-2.803,0-2.803C94.38,112.215,94.38,115.019,96.188,115.019L96.188,115.019z"/>
		</g>
		<g>
			<path d="M92.611,109.309c-0.109,0-0.217,0-0.326,0c-0.764,0-1.401,0.638-1.401,1.401c0,0.764,0.638,1.401,1.401,1.401
				c0.109,0,0.217,0,0.326,0c0.764,0,1.401-0.638,1.401-1.401C94.012,109.947,93.375,109.309,92.611,109.309L92.611,109.309z"/>
		</g>
	</g>
	<g>
		<g>
			<path d="M51.581,13.567c-0.327,3.774-0.431,8.004-2.295,11.398c-1.451,2.64-3.922,0.081-4.679-1.796
				c-1.255-3.116-0.864-6.832-0.848-10.115c0.009-1.808-2.795-1.807-2.803,0c-0.021,4.162-0.286,8.5,1.599,12.339
				c1.127,2.294,4.406,4.556,6.972,3.188c4.599-2.451,4.472-10.557,4.857-15.011C54.541,11.766,51.736,11.78,51.581,13.567
				L51.581,13.567z"/>
		</g>
		<g>
			<path d="M35.801,13.567c-0.327,3.774-0.431,8.004-2.295,11.398c-1.451,2.64-3.922,0.081-4.679-1.796
				c-1.255-3.116-0.864-6.832-0.848-10.115c0.009-1.808-2.795-1.807-2.803,0c-0.021,4.162-0.286,8.5,1.599,12.339
				c1.127,2.294,4.406,4.556,6.972,3.188c4.599-2.451,4.472-10.557,4.857-15.011C38.761,11.766,35.956,11.78,35.801,13.567
				L35.801,13.567z"/>
		</g>
		<g>
			<path d="M39.958,28.423c1.807,0,1.807-2.803,0-2.803C38.15,25.619,38.15,28.423,39.958,28.423L39.958,28.423z"/>
		</g>
		<g>
			<path d="M40.044,32.964c1.807,0,1.807-2.803,0-2.803C38.236,30.161,38.236,32.964,40.044,32.964L40.044,32.964z"/>
		</g>
		<g>
			<path d="M38.521,35.988c-0.005,0.017-0.01,0.034-0.015,0.05c0.215-0.279,0.43-0.559,0.644-0.838
				c0.183-0.051,0.366-0.104,0.551-0.154c-0.763,0.017-1.401,0.625-1.401,1.401c0,0.752,0.638,1.418,1.401,1.401
				c0.722-0.016,1.311-0.4,1.523-1.115c0.218-0.733-0.254-1.525-0.979-1.725C39.497,34.804,38.739,35.257,38.521,35.988
				L38.521,35.988z"/>
		</g>
		<g>
			<path d="M53.985,46.617c0.164-4.415,0.005-11.91-3.497-15.125c-2.06-1.892-4.798-0.309-5.982,1.724
				c-0.913,1.569-0.96,3.683-1.037,5.444c-0.12,2.73-0.84,5.35-0.972,8.07c-0.088,1.808,2.715,1.799,2.803,0
				c0.089-1.827,0.657-3.555,0.827-5.366c0.161-1.71,0.095-3.434,0.351-5.136c0.455-3.027,2.199-3.474,3.214-0.793
				c1.289,3.407,1.623,7.555,1.487,11.183C51.114,48.425,53.917,48.419,53.985,46.617L53.985,46.617z"/>
		</g>
		<g>
			<path d="M35.987,46.617c0.162-4.416,0.005-11.91-3.498-15.125c-2.06-1.892-4.798-0.309-5.981,1.724
				c-0.913,1.569-0.96,3.683-1.037,5.444c-0.12,2.729-0.84,5.35-0.971,8.07c-0.088,1.808,2.715,1.799,2.803,0
				c0.089-1.827,0.657-3.555,0.827-5.366c0.16-1.71,0.095-3.434,0.352-5.136c0.455-3.026,2.199-3.474,3.213-0.793
				c1.29,3.407,1.622,7.555,1.488,11.183C33.117,48.425,35.92,48.419,35.987,46.617L35.987,46.617z"/>
		</g>
		<g>
			<path d="M26.716,65.121c1.807,0,1.807-2.803,0-2.803C24.908,62.317,24.908,65.121,26.716,65.121L26.716,65.121z"/>
		</g>
		<g>
			<g>
				<path d="M38.867,56.18c4.212-1.114,7.894,0.261,9.217,4.599c1.091,3.576,0.147,7.901-2.423,10.618
					c-3.914,4.136-11.314,1.967-13.414-3.017c-1.57-3.723,3.117-5.71,5.99-6.079c1.675-0.215,3.473,0.066,4.464,1.558
					c0.989,1.486-0.114,2.891-1.298,3.641c-0.943,0.506-1.747,0.416-2.413-0.27c-0.216-0.518-0.238-0.6-0.065-0.248
					c1.644,0.697,3.075-1.717,1.415-2.421c-3.84-1.628-6.07,3.164-2.638,5.267c4.774,2.924,9.628-2.8,7.42-7.384
					c-2.143-4.45-8.779-3.106-12.179-1.331c-5.116,2.672-4.307,8.358-0.767,11.905c6.315,6.329,15.912,3.111,18.488-4.856
					c2.082-6.44-0.804-14.448-8.153-15.203c-1.46-0.15-2.986,0.151-4.388,0.521C36.376,53.939,37.118,56.642,38.867,56.18
					L38.867,56.18z"/>
			</g>
			<g>
				<path d="M34.48,55.652c-0.12-0.803-0.95-1.194-1.677-1.2c-0.764-0.006-1.401,0.642-1.401,1.401c0,0.768,0.638,1.396,1.401,1.401
					c0.023,0,0.047,0.001,0.069,0.001c-0.171-0.008-0.335-0.051-0.487-0.129c-0.167-0.168-0.335-0.336-0.503-0.503
					c-0.035-0.075-0.07-0.151-0.105-0.226c0.113,0.757,1.056,1.163,1.724,0.979C34.303,57.156,34.592,56.407,34.48,55.652
					L34.48,55.652z"/>
			</g>
			<g>
				<path d="M27.173,58.247c0,0.057,0,0.114,0,0.171c0,0.764,0.638,1.401,1.401,1.401c0.764,0,1.401-0.638,1.401-1.401
					c0-0.057,0-0.114,0-0.171c0-0.764-0.638-1.401-1.401-1.401C27.811,56.846,27.173,57.483,27.173,58.247L27.173,58.247z"/>
			</g>
			<g>
				<path d="M25.811,71.959c1.808,0,1.808-2.803,0-2.803S24.003,71.959,25.811,71.959L25.811,71.959z"/>
			</g>
			<g>
				<path d="M28.087,78.799c1.807,0,1.807-2.803,0-2.803C26.28,75.996,26.279,78.799,28.087,78.799L28.087,78.799z"/>
			</g>
			<g>
				<path d="M34.755,81.194c1.807,0,1.807-2.803,0-2.803C32.947,78.39,32.947,81.194,34.755,81.194L34.755,81.194z"/>
			</g>
			<g>
				<path d="M41.585,82.047c1.807,0,1.807-2.803,0-2.803C39.777,79.244,39.777,82.047,41.585,82.047L41.585,82.047z"/>
			</g>
			<g>
				<path d="M48.09,80.851c1.807,0,1.807-2.803,0-2.803C46.281,78.047,46.281,80.851,48.09,80.851L48.09,80.851z"/>
			</g>
			<g>
				<path d="M52.48,76.747c1.807,0,1.807-2.803,0-2.803C50.672,73.944,50.672,76.747,52.48,76.747L52.48,76.747z"/>
			</g>
			<g>
				<path d="M54.756,70.421c1.807,0,1.807-2.803,0-2.803C52.949,67.617,52.949,70.421,54.756,70.421L54.756,70.421z"/>
			</g>
			<g>
				<path d="M54.594,62.898c0.054,0,0.108,0,0.162,0c0.764,0,1.401-0.638,1.401-1.401s-0.638-1.401-1.401-1.401
					c-0.054,0-0.108,0-0.162,0c-0.764,0-1.401,0.638-1.401,1.401S53.83,62.898,54.594,62.898L54.594,62.898z"/>
			</g>
			<g>
				<path d="M51.667,55.716c1.807,0,1.807-2.803,0-2.803C49.86,52.913,49.859,55.716,51.667,55.716L51.667,55.716z"/>
			</g>
			<g>
				<path d="M48.09,50.006c-0.109,0-0.217,0-0.326,0c-0.764,0-1.401,0.638-1.401,1.401s0.638,1.401,1.401,1.401
					c0.109,0,0.217,0,0.326,0c0.764,0,1.401-0.638,1.401-1.401S48.853,50.006,48.09,50.006L48.09,50.006z"/>
			</g>
		</g>
	</g>
	<g>
		<path d="M95.533,146.306c0.275,2.015,0.124,4.089-0.171,6.092c-0.26,1.768,2.44,2.528,2.703,0.746
			c0.375-2.545,0.521-5.028,0.171-7.583C97.992,143.777,95.291,144.538,95.533,146.306L95.533,146.306z"/>
	</g>
	<g>
		<path d="M91.257,145.731c-0.273,1.148-0.295,2.342-0.327,3.516c-0.017,0.622,0.135,2.73-0.167,3.047
			c-1.249,1.306,0.731,3.291,1.982,1.982c1.784-1.866,0.666-5.494,1.215-7.799C94.379,144.719,91.676,143.973,91.257,145.731
			L91.257,145.731z"/>
	</g>
	<g>
		<path d="M86.47,145.219c-0.508,2.257-0.346,4.566-0.684,6.84c-0.263,1.768,2.438,2.528,2.703,0.746
			c0.338-2.266,0.179-4.602,0.684-6.839C89.569,144.203,86.867,143.455,86.47,145.219L86.47,145.219z"/>
	</g>
	<g>
		<path d="M80.436,144.735c0.016,2.362,0.57,5.238-0.292,7.492c-0.648,1.691,2.064,2.415,2.703,0.746
			c0.961-2.508,0.41-5.618,0.392-8.238C83.228,142.928,80.424,142.927,80.436,144.735L80.436,144.735z"/>
	</g>
	<g>
		<path d="M75.698,144.706c-0.568,2.678-1.039,5.507-1.247,8.238c-0.137,1.804,2.667,1.791,2.803,0
			c0.189-2.486,0.629-5.056,1.147-7.492C78.777,143.688,76.074,142.938,75.698,144.706L75.698,144.706z"/>
	</g>
	<g>
		<path d="M69.884,144.363c-0.192,1.328-0.218,2.658-0.235,3.998c-0.015,1.16,0.166,2.598-0.278,3.697
			c-0.678,1.677,2.034,2.398,2.703,0.746c0.938-2.316,0.16-5.26,0.513-7.694C72.844,143.341,70.143,142.58,69.884,144.363
			L69.884,144.363z"/>
	</g>
	<g>
		<g>
			<path d="M97.738,158.039c-2.942-0.26-5.941,0.293-8.851-0.292c-1.765-0.355-2.517,2.347-0.746,2.703
				c3.183,0.64,6.388,0.108,9.597,0.392C99.539,161.001,99.525,158.197,97.738,158.039L97.738,158.039z"/>
		</g>
		<g>
			<path d="M97.042,162.533c-3.458,0.811-7.133-0.159-10.631-0.221c-1.809-0.032-1.806,2.772,0,2.803
				c3.793,0.066,7.619,1.002,11.376,0.121C99.547,164.824,98.801,162.121,97.042,162.533L97.042,162.533z"/>
		</g>
		<g>
			<path d="M96.072,167.664c-2.723,0.462-5.674,0.023-8.317-0.684c-1.749-0.467-2.491,2.237-0.746,2.703
				c3.159,0.844,6.567,1.233,9.808,0.684C98.596,170.065,97.839,167.364,96.072,167.664L96.072,167.664z"/>
		</g>
		<g>
			<path d="M81.556,157.697c-3.68-0.05-7.323-0.635-11.003-0.684c-1.809-0.024-1.806,2.78,0,2.803
				c3.68,0.05,7.323,0.635,11.003,0.684C83.365,160.524,83.363,157.721,81.556,157.697L81.556,157.697z"/>
		</g>
		<g>
			<path d="M81.183,161.679c-3.237,0.825-6.69,0.161-9.983,0.121c-1.808-0.022-1.806,2.782,0,2.803
				c3.573,0.044,7.212,0.674,10.728-0.221C83.679,163.937,82.936,161.232,81.183,161.679L81.183,161.679z"/>
		</g>
		<g>
			<path d="M80.051,166.98c-2.648,0.462-5.373,0.142-8.043,0.121c-1.808-0.014-1.807,2.79,0,2.803
				c2.944,0.024,5.867,0.29,8.788-0.22C82.575,169.372,81.819,166.672,80.051,166.98L80.051,166.98z"/>
		</g>
	</g>
	<g>
		<path d="M95.873,176.165c-0.992,5.742-8.892,0.192-11.709-1.377c-2.25-1.253-4.696-2.027-7.221-1.207
			c-2.732,0.888-4.652,3.711-6.7,5.556c-1.346,1.212,0.643,3.189,1.982,1.982c2.564-2.309,4.68-5.897,8.589-4.801
			c2.407,0.675,4.654,2.489,6.899,3.565c4.173,1.999,9.846,2.905,10.861-2.973C98.882,175.143,96.181,174.387,95.873,176.165
			L95.873,176.165z"/>
	</g>
	<g>
		<path d="M95.858,184.198c-0.057,0-0.114,0-0.171,0c-0.764,0-1.401,0.638-1.401,1.401s0.638,1.401,1.401,1.401
			c0.057,0,0.114,0,0.171,0c0.764,0,1.401-0.638,1.401-1.401S96.622,184.198,95.858,184.198L95.858,184.198z"/>
	</g>
	<g>
		<path d="M89.531,183.685c-0.056,0-0.114,0-0.17,0c-0.764,0-1.401,0.638-1.401,1.401c0,0.764,0.638,1.401,1.401,1.401
			c0.057,0,0.114,0,0.17,0c0.764,0,1.401-0.638,1.401-1.401C90.933,184.323,90.295,183.685,89.531,183.685L89.531,183.685z"/>
	</g>
	<g>
		<path d="M83.205,184.369c-0.057,0-0.114,0-0.171,0c-0.764,0-1.401,0.638-1.401,1.401c0,0.763,0.638,1.401,1.401,1.401
			c0.057,0,0.114,0,0.171,0c0.764,0,1.401-0.638,1.401-1.401C84.606,185.007,83.97,184.369,83.205,184.369L83.205,184.369z"/>
	</g>
	<g>
		<path d="M75.681,184.027c-0.171,0-0.342,0-0.513,0c-0.764,0-1.401,0.638-1.401,1.401c0,0.763,0.638,1.401,1.401,1.401
			c0.171,0,0.342,0,0.513,0c0.764,0,1.401-0.638,1.401-1.401C77.083,184.665,76.446,184.027,75.681,184.027L75.681,184.027z"/>
	</g>
	<g>
		<path d="M26.133,100.142c1.807,0,1.807-2.803,0-2.803C24.324,97.339,24.324,100.142,26.133,100.142L26.133,100.142z"/>
	</g>
	<g>
		<g>
			<path d="M38.285,91.2c4.212-1.114,7.894,0.261,9.218,4.599c1.091,3.577,0.147,7.902-2.423,10.618
				c-3.914,4.136-11.314,1.968-13.415-3.017c-1.57-3.723,3.117-5.71,5.99-6.078c1.675-0.215,3.473,0.065,4.464,1.557
				c0.989,1.487-0.114,2.892-1.298,3.643c-0.943,0.506-1.748,0.416-2.413-0.271c-0.216-0.518-0.238-0.6-0.065-0.248
				c1.644,0.697,3.075-1.717,1.415-2.421c-3.84-1.628-6.07,3.164-2.638,5.266c4.774,2.925,9.629-2.8,7.421-7.384
				c-2.143-4.45-8.78-3.105-12.179-1.331c-5.116,2.671-4.307,8.358-0.768,11.904c6.315,6.329,15.912,3.111,18.488-4.856
				c2.082-6.44-0.804-14.448-8.154-15.203c-1.46-0.151-2.986,0.151-4.388,0.521C35.793,88.959,36.534,91.664,38.285,91.2
				L38.285,91.2z"/>
		</g>
		<g>
			<path d="M33.897,90.673c-0.12-0.803-0.95-1.194-1.677-1.2c-0.764-0.005-1.401,0.642-1.401,1.401c0,0.768,0.638,1.396,1.401,1.401
				c0.023,0,0.047,0.001,0.069,0.001c-0.171-0.008-0.335-0.051-0.487-0.129c-0.167-0.168-0.336-0.336-0.503-0.503
				c-0.035-0.075-0.07-0.151-0.105-0.226c0.113,0.757,1.056,1.163,1.724,0.979c0.351-0.096,0.655-0.332,0.838-0.645
				C33.964,91.398,33.955,91.064,33.897,90.673L33.897,90.673z"/>
		</g>
		<g>
			<path d="M26.591,93.268c0,0.057,0,0.115,0,0.171c0,0.764,0.638,1.401,1.401,1.401s1.401-0.638,1.401-1.401
				c0-0.057,0-0.115,0-0.171c0-0.763-0.638-1.401-1.401-1.401S26.591,92.504,26.591,93.268L26.591,93.268z"/>
		</g>
		<g>
			<path d="M25.227,106.981c1.807,0,1.807-2.803,0-2.803C23.42,104.177,23.42,106.981,25.227,106.981L25.227,106.981z"/>
		</g>
		<g>
			<path d="M27.504,113.82c1.808,0,1.808-2.803,0-2.803C25.696,111.017,25.696,113.82,27.504,113.82L27.504,113.82z"/>
		</g>
		<g>
			<path d="M34.172,116.214c1.807,0,1.807-2.803,0-2.803S32.364,116.214,34.172,116.214L34.172,116.214z"/>
		</g>
		<g>
			<path d="M41.002,117.068c1.808,0,1.808-2.803,0-2.803C39.194,114.264,39.194,117.068,41.002,117.068L41.002,117.068z"/>
		</g>
		<g>
			<path d="M47.506,115.872c1.807,0,1.807-2.803,0-2.803S45.699,115.872,47.506,115.872L47.506,115.872z"/>
		</g>
		<g>
			<path d="M51.897,111.769c1.807,0,1.807-2.803,0-2.803C50.09,108.965,50.09,111.769,51.897,111.769L51.897,111.769z"/>
		</g>
		<g>
			<path d="M54.174,105.442c1.807,0,1.807-2.803,0-2.803C52.366,102.639,52.366,105.442,54.174,105.442L54.174,105.442z"/>
		</g>
		<g>
			<path d="M54.011,97.919c0.054,0,0.108,0,0.162,0c0.764,0,1.401-0.638,1.401-1.401c0-0.763-0.638-1.401-1.401-1.401
				c-0.054,0-0.108,0-0.162,0c-0.764,0-1.401,0.638-1.401,1.401C52.61,97.281,53.247,97.919,54.011,97.919L54.011,97.919z"/>
		</g>
		<g>
			<path d="M51.084,90.738c1.807,0,1.807-2.803,0-2.803C49.276,87.934,49.276,90.738,51.084,90.738L51.084,90.738z"/>
		</g>
		<g>
			<path d="M47.506,85.028c-0.108,0-0.217,0-0.325,0c-0.764,0-1.401,0.638-1.401,1.401c0,0.763,0.638,1.401,1.401,1.401
				c0.109,0,0.217,0,0.325,0c0.764,0,1.401-0.638,1.401-1.401C48.908,85.666,48.271,85.028,47.506,85.028L47.506,85.028z"/>
		</g>
	</g>
	<g>
		<path d="M50.428,122.025c0.275,2.015,0.125,4.089-0.171,6.092c-0.261,1.768,2.44,2.528,2.703,0.746
			c0.376-2.545,0.521-5.027,0.171-7.583C52.887,119.495,50.186,120.257,50.428,122.025L50.428,122.025z"/>
	</g>
	<g>
		<path d="M46.154,121.449c-0.273,1.148-0.295,2.342-0.327,3.516c-0.017,0.622,0.135,2.73-0.168,3.047
			c-1.25,1.305,0.731,3.291,1.982,1.982c1.785-1.865,0.666-5.495,1.215-7.799C49.275,120.436,46.572,119.691,46.154,121.449
			L46.154,121.449z"/>
	</g>
	<g>
		<path d="M41.366,120.937c-0.509,2.257-0.346,4.566-0.684,6.84c-0.264,1.768,2.437,2.528,2.703,0.746
			c0.339-2.267,0.18-4.603,0.684-6.84C44.466,119.922,41.764,119.173,41.366,120.937L41.366,120.937z"/>
	</g>
	<g>
		<path d="M35.332,120.454c0.015,2.362,0.57,5.238-0.293,7.492c-0.648,1.691,2.064,2.415,2.703,0.746
			c0.961-2.508,0.41-5.618,0.393-8.238C38.124,118.647,35.32,118.646,35.332,120.454L35.332,120.454z"/>
	</g>
	<g>
		<path d="M30.594,120.425c-0.567,2.678-1.038,5.506-1.247,8.237c-0.138,1.804,2.667,1.79,2.803,0
			c0.19-2.486,0.631-5.055,1.147-7.491C33.67,119.407,30.968,118.656,30.594,120.425L30.594,120.425z"/>
	</g>
	<g>
		<path d="M24.781,120.082c-0.193,1.328-0.218,2.658-0.235,3.998c-0.015,1.16,0.166,2.598-0.278,3.697
			c-0.678,1.677,2.034,2.398,2.703,0.746c0.938-2.316,0.159-5.26,0.513-7.694C27.741,119.059,25.039,118.298,24.781,120.082
			L24.781,120.082z"/>
	</g>
	<g>
		<g>
			<path d="M52.635,133.757c-2.942-0.26-5.941,0.293-8.851-0.292c-1.765-0.355-2.517,2.347-0.746,2.703
				c3.183,0.64,6.388,0.108,9.597,0.392C54.436,136.72,54.42,133.916,52.635,133.757L52.635,133.757z"/>
		</g>
		<g>
			<path d="M51.939,138.252c-3.459,0.811-7.134-0.159-10.631-0.221c-1.809-0.032-1.806,2.772,0,2.803
				c3.793,0.066,7.619,1.002,11.377,0.121C54.443,140.543,53.697,137.839,51.939,138.252L51.939,138.252z"/>
		</g>
		<g>
			<path d="M50.968,143.383c-2.723,0.462-5.674,0.023-8.317-0.684c-1.749-0.467-2.49,2.237-0.746,2.703
				c3.159,0.845,6.567,1.234,9.808,0.684C53.492,145.784,52.736,143.083,50.968,143.383L50.968,143.383z"/>
		</g>
		<g>
			<path d="M36.452,133.415c-3.68-0.05-7.324-0.635-11.004-0.684c-1.809-0.024-1.806,2.78,0,2.803
				c3.68,0.05,7.324,0.635,11.004,0.684C38.261,136.243,38.259,133.44,36.452,133.415L36.452,133.415z"/>
		</g>
		<g>
			<path d="M36.08,137.397c-3.237,0.825-6.691,0.161-9.985,0.122c-1.808-0.022-1.806,2.782,0,2.803
				c3.573,0.044,7.213,0.674,10.729-0.221C38.576,139.654,37.832,136.95,36.08,137.397L36.08,137.397z"/>
		</g>
		<g>
			<path d="M34.947,142.697c-2.647,0.462-5.372,0.143-8.042,0.121c-1.808-0.014-1.807,2.79,0,2.803
				c2.944,0.024,5.867,0.289,8.788-0.221C37.471,145.091,36.714,142.389,34.947,142.697L34.947,142.697z"/>
		</g>
	</g>
	<g>
		<path d="M50.769,151.884c-0.991,5.742-8.892,0.192-11.708-1.377c-2.25-1.253-4.696-2.027-7.221-1.207
			c-2.732,0.887-4.652,3.71-6.7,5.555c-1.346,1.212,0.643,3.189,1.982,1.982c2.564-2.309,4.68-5.897,8.59-4.8
			c2.407,0.675,4.654,2.489,6.899,3.564c4.172,1.999,9.846,2.905,10.86-2.973C53.778,150.861,51.076,150.105,50.769,151.884
			L50.769,151.884z"/>
	</g>
	<g>
		<path d="M60.45,17.147c6.171,1.965,4.54,11.239-0.949,13.034c-1.71,0.559-0.978,3.267,0.746,2.703
			c8.153-2.664,9.82-15.615,0.949-18.441C59.468,13.893,58.735,16.6,60.45,17.147L60.45,17.147z"/>
	</g>
	<g>
		<path d="M60.258,37.694c7.19,1.163,4.757,10.57-1.362,11.375c-1.766,0.233-1.788,3.039,0,2.803
			c8.942-1.177,12.697-15.17,2.107-16.883C59.235,34.705,58.476,37.406,60.258,37.694L60.258,37.694z"/>
	</g>
	<g>
		<path d="M60.45,56.368c6.171,1.965,4.54,11.24-0.949,13.034c-1.71,0.56-0.978,3.267,0.746,2.703
			c8.154-2.664,9.82-15.616,0.949-18.442C59.468,53.115,58.735,55.822,60.45,56.368L60.45,56.368z"/>
	</g>
	<g>
		<path d="M60.258,76.916c7.19,1.163,4.757,10.571-1.362,11.376c-1.766,0.233-1.788,3.039,0,2.803
			c8.943-1.177,12.697-15.17,2.107-16.883C59.235,73.926,58.476,76.627,60.258,76.916L60.258,76.916z"/>
	</g>
	<g>
		<path d="M60.45,95.59c6.171,1.965,4.54,11.24-0.949,13.034c-1.71,0.559-0.978,3.267,0.746,2.703
			c8.154-2.664,9.82-15.616,0.949-18.442C59.468,92.337,58.735,95.043,60.45,95.59L60.45,95.59z"/>
	</g>
	<g>
		<path d="M60.258,116.139c7.19,1.163,4.757,10.57-1.362,11.375c-1.766,0.233-1.788,3.039,0,2.803
			c8.942-1.177,12.697-15.17,2.107-16.883C59.235,113.149,58.476,115.851,60.258,116.139L60.258,116.139z"/>
	</g>
	<g>
		<path d="M60.45,134.812c6.171,1.965,4.54,11.24-0.949,13.034c-1.71,0.559-0.978,3.267,0.746,2.703
			c8.154-2.664,9.82-15.615,0.949-18.441C59.468,131.559,58.735,134.265,60.45,134.812L60.45,134.812z"/>
	</g>
	<g>
		<path d="M60.258,155.36c7.19,1.164,4.757,10.57-1.362,11.376c-1.766,0.233-1.788,3.039,0,2.803
			c8.943-1.177,12.696-15.17,2.107-16.883C59.235,152.37,58.476,155.072,60.258,155.36L60.258,155.36z"/>
	</g>
	<g>
		<path d="M60.45,174.033c6.171,1.966,4.54,11.241-0.949,13.035c-1.71,0.559-0.978,3.267,0.746,2.703
			c8.154-2.664,9.82-15.616,0.949-18.443C59.468,170.78,58.735,173.487,60.45,174.033L60.45,174.033z"/>
	</g>
	<g>
		<path d="M14.158,17.147c6.171,1.965,4.539,11.239-0.949,13.034c-1.71,0.559-0.978,3.267,0.746,2.703
			c8.152-2.664,9.82-15.615,0.949-18.441C13.176,13.893,12.442,16.6,14.158,17.147L14.158,17.147z"/>
	</g>
	<g>
		<path d="M13.965,37.694c7.19,1.163,4.757,10.57-1.362,11.375c-1.766,0.233-1.788,3.039,0,2.803
			c8.942-1.177,12.696-15.17,2.106-16.883C12.942,34.705,12.184,37.406,13.965,37.694L13.965,37.694z"/>
	</g>
	<g>
		<path d="M14.158,56.368c6.171,1.965,4.54,11.24-0.949,13.034c-1.71,0.56-0.978,3.267,0.746,2.703
			c8.153-2.665,9.82-15.616,0.949-18.442C13.176,53.115,12.442,55.822,14.158,56.368L14.158,56.368z"/>
	</g>
	<g>
		<path d="M13.965,76.916c7.19,1.163,4.758,10.57-1.362,11.376c-1.766,0.233-1.788,3.039,0,2.803
			c8.943-1.177,12.696-15.17,2.106-16.883C12.942,73.926,12.184,76.627,13.965,76.916L13.965,76.916z"/>
	</g>
	<g>
		<path d="M14.158,95.59c6.171,1.965,4.54,11.24-0.949,13.034c-1.71,0.559-0.978,3.267,0.746,2.703
			c8.153-2.664,9.82-15.616,0.949-18.442C13.176,92.337,12.442,95.043,14.158,95.59L14.158,95.59z"/>
	</g>
	<g>
		<path d="M13.965,116.139c7.19,1.163,4.757,10.57-1.362,11.375c-1.766,0.233-1.788,3.039,0,2.803
			c8.942-1.178,12.696-15.17,2.106-16.883C12.942,113.149,12.184,115.851,13.965,116.139L13.965,116.139z"/>
	</g>
	<g>
		<path d="M14.158,134.812c6.171,1.965,4.54,11.24-0.949,13.034c-1.71,0.559-0.978,3.267,0.746,2.703
			c8.153-2.664,9.82-15.615,0.949-18.441C13.176,131.559,12.442,134.265,14.158,134.812L14.158,134.812z"/>
	</g>
	<g>
		<path d="M13.965,155.36c7.189,1.164,4.758,10.57-1.362,11.376c-1.766,0.233-1.788,3.039,0,2.803
			c8.943-1.177,12.696-15.17,2.106-16.883C12.942,152.37,12.184,155.072,13.965,155.36L13.965,155.36z"/>
	</g>
	<g>
		<path d="M14.158,174.033c6.17,1.966,4.54,11.241-0.949,13.035c-1.71,0.559-0.978,3.267,0.746,2.703
			c8.153-2.664,9.819-15.616,0.949-18.443C13.176,170.78,12.442,173.487,14.158,174.033L14.158,174.033z"/>
	</g>
</g>
</svg>
