<?xml version="1.0" encoding="utf-8"?>
<!-- Generator: Adobe Illustrator 23.0.1, SVG Export Plug-In . SVG Version: 6.00 Build 0)  -->
<svg version="1.1" id="Layer_1" xmlns="http://www.w3.org/2000/svg" xmlns:xlink="http://www.w3.org/1999/xlink" x="0px" y="0px"
	 viewBox="0 0 114.82 180" style="enable-background:new 0 0 114.82 180;" xml:space="preserve">
<style type="text/css">
	.st0{fill:#FFFFFF;stroke:#000000;stroke-miterlimit:10;}
	.st1{fill:#A9ABAE;stroke:#FFFFFF;stroke-miterlimit:10;}
	.st2{fill:none;stroke:#000000;stroke-miterlimit:10;}
	.st3{fill:#FFFFFF;stroke:#000000;stroke-linecap:round;stroke-miterlimit:10;}
	.st4{fill:#A9ABAE;}
	.st5{fill:#FFFFFF;}
	.st6{fill:none;stroke:#000000;stroke-linecap:round;stroke-miterlimit:10;}
	.st7{fill:none;stroke:#A9ABAE;stroke-width:2;stroke-miterlimit:10;}
	.st8{fill:#A9ABAE;stroke:#A9ABAE;stroke-miterlimit:10;}
	.st9{fill:none;stroke:#000000;stroke-width:2;stroke-miterlimit:10;}
	.st10{fill:none;stroke:#A9ABAE;stroke-width:2;stroke-linecap:round;stroke-miterlimit:10;}
</style>
<g>
	<g>
		<path class="st4" d="M1.44,100.72l-0.55-2.27c0.21-0.05,21.23-5.07,37.17-4.42l-0.1,2.34C22.32,95.73,1.65,100.67,1.44,100.72z"/>
	</g>
	<g>
		<path class="st4" d="M89.5,100.72c-0.2-0.05-19.76-5.09-35.36-4.46l-0.1-2.34c15.96-0.66,35.84,4.49,36.04,4.54L89.5,100.72z"/>
	</g>
	<g>
		<path class="st4" d="M47.3,124.79h-2.3c-3.75,0-6.8-3.04-6.8-6.8V82.27c0-3.75,3.04-6.8,6.8-6.8h2.3c3.75,0,6.8,3.04,6.8,6.8V118
			C54.1,121.75,51.06,124.79,47.3,124.79z"/>
		<path class="st4" d="M46.15,125.38c-4.7,0-8.53-3.83-8.53-8.53V83.42c0-4.7,3.83-8.53,8.53-8.53s8.53,3.83,8.53,8.53v33.43
			C54.69,121.55,50.86,125.38,46.15,125.38z M46.15,76.06c-4.06,0-7.36,3.3-7.36,7.36v33.43c0,4.06,3.3,7.36,7.36,7.36
			s7.36-3.3,7.36-7.36V83.42C53.52,79.36,50.21,76.06,46.15,76.06z"/>
	</g>
	<g>
		<rect x="44.99" y="54.6" class="st4" width="2.34" height="20.87"/>
	</g>
	<g>
		<path d="M40.17,180c-9.42,0-18.7-0.18-25.19-0.41c-2.44-0.08-5.47-0.19-8.04-1.54c-2.79-1.46-4.97-4.41-6-8.09
			c-0.51-1.82-0.77-3.78-0.86-6.36l0,0c-0.04-1.1-0.04-2.2-0.04-3.29L0,85.79c0-7.14-0.01-16.03,5.08-22.23
			c3.88-4.74,10.1-7.7,19.01-9.03c8.28-1.24,24-1.17,36.63-1.12c4.37,0.02,8.14,0.03,11.03-0.01l0.18,0
			c4.42-0.07,9.44-0.14,13.34,2.55c5.78,3.98,6.47,12.02,6.43,18.57c-0.18,26.68-3.26,55.14-10,92.3c-0.71,3.9-1.67,7.91-4.92,10.18
			c-2.04,1.42-4.54,1.78-6.94,2.03C62.66,179.75,51.32,180,40.17,180z M52.69,55.72c-10.4,0-21.87,0.16-28.25,1.12
			c-8.31,1.25-14.05,3.93-17.55,8.2C2.33,70.6,2.33,78.67,2.34,85.79l0.04,74.52c0,1.07,0,2.14,0.04,3.21v0
			c0.08,2.39,0.32,4.18,0.77,5.81c0.86,3.06,2.62,5.48,4.84,6.65c2.1,1.1,4.72,1.2,7.03,1.28c14.12,0.49,41.41,0.77,54.54-0.57
			c2.17-0.22,4.26-0.51,5.84-1.62c2.52-1.76,3.34-5.25,3.96-8.68c6.71-37.01,9.78-65.36,9.96-91.89c0.04-6.35-0.57-13.29-5.42-16.63
			c-3.29-2.27-7.71-2.2-11.98-2.14l-0.18,0c-2.91,0.04-6.7,0.03-11.08,0.01C58.19,55.73,55.48,55.72,52.69,55.72z"/>
	</g>
	<g>
		<path class="st4" d="M104.13,70.67c-1.26,0-2.48-0.15-3.57-0.41c-5.38-1.3-10.14-4.72-14.47-8.23c-2.66-2.15-4.89-4.72-7.05-7.22
			c-1.9-2.2-3.87-4.47-6.08-6.37c-4.18-3.6-9.96-5.75-15.86-5.92c-2.85-0.08-7.93,0.33-9.89,3.97c-1.49,2.77-0.56,6.28-0.1,7.67
			c0.21,0.61-0.12,1.28-0.73,1.48c-0.61,0.21-1.28-0.12-1.48-0.73c-1.19-3.53-1.1-7,0.25-9.52c2.55-4.75,8.62-5.3,12.02-5.21
			c6.42,0.18,12.73,2.54,17.32,6.48c2.34,2.01,4.36,4.35,6.32,6.61c2.09,2.41,4.25,4.91,6.75,6.93c4.13,3.33,8.63,6.58,13.56,7.78
			c3.94,0.95,10.03,0.17,11.21-4.55c0.4-1.6-0.03-3.23-0.47-4.32c-2.47-6.16-8.16-11.14-13.19-15.53l-0.59-0.52
			c-8.84-7.74-18.93-13.48-30.01-17.06c-0.72-0.23-1.49-0.48-2.3-0.73c-9.06-2.85-22.75-7.16-25.61-16.99
			c-0.75-2.58-0.28-5.26,1.36-7.76c0.36-0.54,1.08-0.69,1.62-0.34c0.54,0.36,0.69,1.08,0.34,1.62C42.6,3.14,41.7,5.24,42.4,7.64
			c2.52,8.63,15.49,12.71,24.07,15.41c0.82,0.26,1.59,0.5,2.32,0.74c11.38,3.68,21.75,9.58,30.83,17.53l0.59,0.51
			c5.22,4.57,11.14,9.74,13.82,16.42c0.81,2.02,1,4.01,0.57,5.76C113.37,68.88,108.52,70.67,104.13,70.67z"/>
	</g>
	<g>
		<rect x="43.22" y="53.41" transform="matrix(1 -8.788723e-03 8.788723e-03 1 -0.4779 0.4084)" width="6.03" height="2.34"/>
	</g>
</g>
</svg>
