<?xml version="1.0" encoding="utf-8"?>
<!-- Generator: Adobe Illustrator 23.0.1, SVG Export Plug-In . SVG Version: 6.00 Build 0)  -->
<svg version="1.1" id="Layer_1" xmlns="http://www.w3.org/2000/svg" xmlns:xlink="http://www.w3.org/1999/xlink" x="0px" y="0px"
	 viewBox="0 0 180 144.9" style="enable-background:new 0 0 180 144.9;" xml:space="preserve">
<style type="text/css">
	.st0{fill:#FFFFFF;stroke:#000000;stroke-miterlimit:10;}
	.st1{fill:#A9ABAE;stroke:#FFFFFF;stroke-miterlimit:10;}
	.st2{fill:none;stroke:#000000;stroke-miterlimit:10;}
	.st3{fill:#FFFFFF;stroke:#000000;stroke-linecap:round;stroke-miterlimit:10;}
	.st4{fill:#A9ABAE;}
	.st5{fill:#FFFFFF;}
	.st6{fill:none;stroke:#000000;stroke-linecap:round;stroke-miterlimit:10;}
	.st7{fill:none;stroke:#A9ABAE;stroke-width:2;stroke-miterlimit:10;}
	.st8{fill:#A9ABAE;stroke:#A9ABAE;stroke-miterlimit:10;}
	.st9{fill:none;stroke:#000000;stroke-width:2;stroke-miterlimit:10;}
	.st10{fill:none;stroke:#A9ABAE;stroke-width:2;stroke-linecap:round;stroke-miterlimit:10;}
</style>
<g>
	<g>
		<path d="M39.06,120.01c-3.82-0.24-7.6-0.76-11.07-2.22c-8.2-3.45-13.02-11.43-16.05-19.3C6.59,84.64,5.06,69.77,4.68,55.05
			c-0.13-5.22-0.1-10.57,1.91-15.45c4.58-11.1,17.83-16.58,30-20.26c17.27-5.22,35-9.1,52.96-11.62c17.12-2.4,35.37-4.26,52.68-4.28
			c10.6-0.01,22.13,2.87,28.19,10.94c4.25,5.66,5.09,12.94,4.93,19.84c-0.46,19.49-7.75,38.2-14.51,56.66
			c-2.97,8.11-6.19,16.71-13.39,22.08c-5.71,4.26-13.16,5.87-20.41,6.9c-27.27,3.87-55.05,1.16-82.62,0.35
			C42.64,120.17,40.85,120.12,39.06,120.01z"/>
	</g>
	<g>
		<path class="st4" d="M45.4,112.87c-3.35-0.21-6.66-0.66-9.69-1.94c-7.18-3.02-11.4-10.01-14.06-16.89
			C16.97,81.91,15.63,68.88,15.3,56c-0.12-4.57-0.09-9.26,1.67-13.52c4.01-9.72,15.61-14.52,26.27-17.74
			c15.12-4.57,30.65-7.97,46.37-10.17c14.99-2.1,30.97-3.73,46.12-3.75c9.28-0.01,19.38,2.51,24.68,9.58
			c3.72,4.96,4.45,11.33,4.31,17.37c-0.4,17.07-6.79,33.45-12.7,49.61c-2.6,7.1-5.42,14.63-11.72,19.33
			c-5,3.73-11.53,5.14-17.87,6.04c-23.88,3.39-48.2,1.02-72.34,0.31C48.54,113.01,46.96,112.97,45.4,112.87z"/>
	</g>
	<g>
		<path d="M94.72,125.34c-11.1,0-22.18-0.5-33.08-0.98c-6.34-0.28-12.89-0.58-19.32-0.77l-0.39-0.01c-1.74-0.05-3.49-0.1-5.24-0.21
			c-3.37-0.21-7.76-0.67-11.82-2.37c-7.43-3.12-13.05-9.86-17.2-20.6C1.55,84.5,0.38,67.64,0.05,54.73
			c-0.14-5.47-0.1-11.25,2.05-16.46c5.02-12.15,19.65-17.94,31.85-21.62c18.03-5.45,36.7-9.54,55.48-12.17
			c21.39-3,39.44-4.46,55.18-4.48c0.01,0,0.03,0,0.04,0c13.5,0,24.44,4.28,30.04,11.74c3.84,5.11,5.52,11.85,5.3,21.21
			c-0.46,19.33-7.34,38.04-13.99,56.14l-1.23,3.34c-3.02,8.25-6.45,17.61-14.25,23.43c-6.24,4.66-14.46,6.33-21.68,7.36
			C117.57,124.82,106.14,125.34,94.72,125.34z M144.64,1.51c-0.01,0-0.03,0-0.04,0c-15.67,0.02-33.65,1.48-54.97,4.47
			c-18.7,2.62-37.29,6.7-55.25,12.12C22.51,21.68,8.27,27.28,3.49,38.85c-2.04,4.94-2.08,10.31-1.94,15.84
			C1.89,67.48,3.04,84.17,9.1,99.85c3.99,10.33,9.34,16.79,16.37,19.75c3.85,1.62,8.07,2.06,11.32,2.26l0,0
			c1.73,0.11,3.47,0.16,5.19,0.21l0.39,0.01c6.44,0.19,13,0.48,19.34,0.77c22.04,0.98,44.83,2,66.91-1.13
			c7.03-1,15.02-2.62,20.99-7.07c7.44-5.55,10.79-14.69,13.74-22.74l1.23-3.34c6.61-17.98,13.45-36.58,13.9-55.66
			c0.21-9-1.38-15.44-5-20.27C168.16,5.57,157.65,1.51,144.64,1.51z"/>
	</g>
	<g>
		<path d="M56.06,140.65h9.65c0.44,0,0.87-0.19,1.17-0.51l2.94-3.21c0.27-0.29,0.42-0.67,0.42-1.07v-5.73
			c0-1.47,1.19-2.66,2.66-2.66h34.72c1.47,0,2.66,1.19,2.66,2.66v5.34c0,0.42,0.16,0.81,0.45,1.11l3.54,3.6
			c0.3,0.3,0.7,0.47,1.13,0.47h10.68c1.17,0,2.13,0.95,2.13,2.13l0,0c0,1.17-0.95,2.13-2.13,2.13H56.06c-1.17,0-2.13-0.95-2.13-2.13
			l0,0C53.94,141.6,54.89,140.65,56.06,140.65z"/>
	</g>
	<g>
		<circle class="st5" cx="88.27" cy="118.04" r="1.84"/>
	</g>
</g>
</svg>
