<?xml version="1.0" encoding="utf-8"?>
<!-- Generator: Adobe Illustrator 23.0.1, SVG Export Plug-In . SVG Version: 6.00 Build 0)  -->
<svg version="1.1" id="Layer_1" xmlns="http://www.w3.org/2000/svg" xmlns:xlink="http://www.w3.org/1999/xlink" x="0px" y="0px"
	 viewBox="0 0 152.74 180" style="enable-background:new 0 0 152.74 180;" xml:space="preserve">
<style type="text/css">
	.st0{fill:#FFFFFF;stroke:#000000;stroke-miterlimit:10;}
	.st1{fill:#A9ABAE;stroke:#FFFFFF;stroke-miterlimit:10;}
	.st2{fill:none;stroke:#000000;stroke-miterlimit:10;}
	.st3{fill:#FFFFFF;stroke:#000000;stroke-linecap:round;stroke-miterlimit:10;}
	.st4{fill:#A9ABAE;}
	.st5{fill:#FFFFFF;}
	.st6{fill:none;stroke:#000000;stroke-linecap:round;stroke-miterlimit:10;}
	.st7{fill:none;stroke:#A9ABAE;stroke-width:2;stroke-miterlimit:10;}
	.st8{fill:#A9ABAE;stroke:#A9ABAE;stroke-miterlimit:10;}
	.st9{fill:none;stroke:#000000;stroke-width:2;stroke-miterlimit:10;}
	.st10{fill:none;stroke:#A9ABAE;stroke-width:2;stroke-linecap:round;stroke-miterlimit:10;}
</style>
<g>
	<g>
		<g>
			<path d="M62.04,179.5c-10.5,0-21-0.14-31.44-0.41c-7.75-0.2-15.18-0.65-20.82-3.88c-7.56-4.33-8.84-11.94-9.11-18.09l0,0
				c-0.05-1.11-0.06-2.21-0.06-3.29L0.5,41.63C0.49,28.88,2.85,16.03,20.05,8.42c16.86-7.46,38.33-7.59,57.27-7.7l0.3,0L114,0.51
				c6.58-0.04,14.76-0.09,21.24,2.72c11.16,4.83,16.51,15.69,16.86,24.3c0.64,15.79-1.14,31.01-3.53,49.25
				c-3.51,26.84-7.34,54.05-11.37,80.87c-0.98,6.54-6.04,13.49-12.6,17.3c-5.25,3.05-12.19,3.54-19.45,3.79
				C90.87,179.25,76.45,179.5,62.04,179.5z M1.85,157.07c0.26,5.84,1.46,13.06,8.52,17.11c5.4,3.09,12.67,3.53,20.26,3.73
				c24.75,0.64,49.81,0.52,74.5-0.36c7.1-0.25,13.88-0.72,18.89-3.63c6.26-3.64,11.09-10.25,12.02-16.45
				c4.03-26.82,7.85-54.02,11.37-80.85c2.38-18.19,4.15-33.35,3.52-49.05c-0.34-8.24-5.46-18.63-16.15-23.26
				c-6.25-2.7-14.29-2.65-20.76-2.62L77.32,1.91C58.5,2.02,37.16,2.15,20.53,9.51C3.95,16.84,1.67,29.28,1.68,41.63l0.1,112.19
				C1.78,154.89,1.8,155.98,1.85,157.07L1.85,157.07z"/>
			<path d="M62.04,180c-10.46,0-21.04-0.14-31.45-0.41c-7.82-0.2-15.32-0.66-21.06-3.95c-7.77-4.45-9.09-12.22-9.36-18.49
				c-0.04-0.99-0.06-2.04-0.06-3.32L0,41.64C-0.01,28.71,2.38,15.69,19.84,7.97c16.96-7.5,38.48-7.63,57.46-7.74l0.3,0L114,0.01
				c6.62-0.04,14.87-0.09,21.44,2.76c11.36,4.92,16.81,15.97,17.16,24.74c0.64,15.84-1.14,31.07-3.53,49.34
				c-3.51,26.8-7.33,54.01-11.37,80.88c-1,6.68-6.16,13.77-12.84,17.66c-5.34,3.11-12.36,3.6-19.68,3.86
				C90.94,179.74,76.43,180,62.04,180z M116.43,1c-0.83,0-1.63,0-2.42,0.01L77.32,1.22c-18.89,0.11-40.3,0.24-57.07,7.65
				C3.31,16.37,0.98,29.05,0.99,41.64l0.1,112.2c0,1.26,0.02,2.3,0.06,3.27c0.26,6.02,1.51,13.46,8.86,17.68
				c5.54,3.17,12.9,3.62,20.59,3.82c10.4,0.27,20.98,0.41,31.43,0.41c14.38,0,28.88-0.26,43.11-0.77
				c7.19-0.26,14.07-0.73,19.22-3.73c6.43-3.74,11.39-10.55,12.35-16.94c4.04-26.87,7.86-54.07,11.37-80.86
				c2.39-18.22,4.16-33.41,3.52-49.17c-0.34-8.46-5.6-19.12-16.56-23.86C129.43,1.25,122.47,1,116.43,1z M62.05,178.81
				c-10.5,0-20.99-0.14-31.43-0.41c-7.66-0.2-14.99-0.64-20.5-3.79c-7.27-4.17-8.5-11.55-8.77-17.52l0,0
				c-0.04-0.97-0.06-2.04-0.06-3.27L1.19,41.64C1.18,29.11,3.49,16.5,20.32,9.05c16.73-7.4,38.12-7.53,56.98-7.64l36.7-0.22
				c6.52-0.03,14.62-0.08,20.96,2.66c10.89,4.71,16.11,15.3,16.45,23.69c0.64,15.74-1.14,30.92-3.52,49.13
				c-3.51,26.8-7.33,54-11.37,80.86c-0.95,6.34-5.88,13.1-12.26,16.8c-5.11,2.97-11.96,3.45-19.13,3.7
				C90.87,178.56,76.45,178.81,62.05,178.81z M2.34,157.05c0.25,5.71,1.41,12.77,8.27,16.7c5.3,3.04,12.5,3.47,20.03,3.66
				c24.75,0.64,49.81,0.52,74.47-0.36c7.03-0.25,13.75-0.71,18.66-3.57c6.13-3.56,10.87-10.03,11.78-16.09
				c4.03-26.84,7.86-54.04,11.36-80.84c2.38-18.16,4.15-33.3,3.51-48.96c-0.33-8.09-5.36-18.28-15.85-22.82
				c-6.15-2.66-14.12-2.61-20.54-2.58L77.32,2.41C58.54,2.52,37.27,2.64,20.73,9.96C4.41,17.18,2.17,29.45,2.18,41.64l0.1,112.19
				C2.28,155.06,2.3,156.08,2.34,157.05L2.34,157.05z"/>
		</g>
	</g>
	<g>
		<g>
			<path class="st4" d="M11.84,143.71c0.11,2.45,0.44,4.9,1.36,7.26c1.41,3.6,4.41,7.05,9.05,8.78c3.81,1.43,8.28,1.57,12.59,1.68
				c22.65,0.56,45.39,0.96,67.94-0.68c3.72-0.27,7.6-0.64,10.67-2.17c4.89-2.44,6.35-7.05,7.42-11.24
				c9.22-36.25,16.33-72.91,16.67-109.75c0.07-7.69-1.01-16.61-9.89-20.97c-6.09-2.99-14.05-2.87-21.44-2.79
				c-18.67,0.19-37.47-0.65-55.93,1.33c-11.21,1.2-23.08,3.78-30.54,10.27c-8.03,6.99-8.04,17.04-8.04,25.61
				c0.03,29.6,0.05,59.2,0.08,88.8C11.78,141.13,11.78,142.42,11.84,143.71z"/>
		</g>
	</g>
	<g>
		<g>
			<circle cx="101.19" cy="7.97" r="2.26"/>
		</g>
	</g>
	<g>
		<g>
			<path d="M94.65,9.5H58.66c-0.36,0-0.66-0.29-0.66-0.66V7.09c0-0.36,0.29-0.66,0.66-0.66h35.98c0.36,0,0.66,0.29,0.66,0.66v1.76
				C95.3,9.21,95.01,9.5,94.65,9.5z"/>
		</g>
	</g>
	<g>
		<g>
			<circle cx="70.71" cy="170.13" r="5.9"/>
		</g>
	</g>
</g>
</svg>
