<?xml version="1.0" encoding="utf-8"?>
<!-- Generator: Adobe Illustrator 23.0.1, SVG Export Plug-In . SVG Version: 6.00 Build 0)  -->
<svg version="1.1" id="Layer_1" xmlns="http://www.w3.org/2000/svg" xmlns:xlink="http://www.w3.org/1999/xlink" x="0px" y="0px"
	 viewBox="0 0 180 180" style="enable-background:new 0 0 180 180;" xml:space="preserve">
<style type="text/css">
	.st0{fill:#FFFFFF;stroke:#000000;stroke-miterlimit:10;}
	.st1{fill:#A9ABAE;stroke:#FFFFFF;stroke-miterlimit:10;}
	.st2{fill:none;stroke:#000000;stroke-miterlimit:10;}
	.st3{fill:#FFFFFF;stroke:#000000;stroke-linecap:round;stroke-miterlimit:10;}
	.st4{fill:#A9ABAE;}
	.st5{fill:#FFFFFF;}
	.st6{fill:none;stroke:#000000;stroke-linecap:round;stroke-miterlimit:10;}
	.st7{fill:none;stroke:#A9ABAE;stroke-width:2;stroke-miterlimit:10;}
	.st8{fill:#A9ABAE;stroke:#A9ABAE;stroke-miterlimit:10;}
	.st9{fill:none;stroke:#000000;stroke-width:2;stroke-miterlimit:10;}
	.st10{fill:none;stroke:#A9ABAE;stroke-width:2;stroke-linecap:round;stroke-miterlimit:10;}
</style>
<g>
	<g>
		<path class="st5" d="M59.66,41.49c-7.83,1.88-15.6,4.03-23.27,6.47C27.03,50.94,18.01,54,10.6,60.71
			c-4.47,4.05-7.9,9.2-9.07,15.18c-0.37,1.92-0.37,3.79-0.44,5.73c0,0-3.14,82.29,35.71,80l-0.98,12.53
			c-0.04,0.55,0.67,0.8,0.98,0.34l8.28-12.3c0,0,68,4,85.43-0.86l6.42,11.6c0.27,0.49,1.01,0.3,1.01-0.26v-13.06
			c0,0,16.86-0.57,26-30.29c9.14-29.71,34.29-92.57-12-98c-5.52-0.65-11.52,0.03-17.04,0.21c-22.18,0.76-44.31,3.28-66.03,7.86
			C65.8,40.06,62.72,40.75,59.66,41.49z"/>
		<path d="M36.37,175.75c-0.17,0-0.35-0.03-0.52-0.09c-0.68-0.24-1.09-0.88-1.04-1.59l0.89-11.39c-6.71,0.15-12.65-2.28-17.6-7.13
			C-1.77,136.08-0.01,83.79,0.07,81.58l0.03-0.95c0.05-1.6,0.1-3.25,0.43-4.93c1.13-5.76,4.37-11.2,9.39-15.74
			c7.32-6.63,15.82-9.67,26.16-12.97c7.59-2.41,15.44-4.6,23.34-6.49c3.07-0.74,6.16-1.43,9.25-2.08c21.08-4.45,43.35-7.1,66.2-7.88
			c1.44-0.05,2.91-0.13,4.39-0.21c4.25-0.24,8.64-0.48,12.81,0.01c10.45,1.23,18.07,5.47,22.65,12.6
			c12.12,18.89,0.62,54.39-6.99,77.89c-1.03,3.17-1.98,6.13-2.81,8.82c-8.09,26.31-22.1,30.29-25.95,30.9v12.15
			c0,0.72-0.47,1.33-1.17,1.51c-0.7,0.18-1.4-0.12-1.75-0.75l-6.04-10.91c-17.78,4.36-77.42,1.12-84.4,0.72l-7.96,11.82
			C37.35,175.5,36.87,175.75,36.37,175.75z M37.91,160.53l-0.93,11.89l7.6-11.28l0.58,0.03c0.68,0.04,68.03,3.94,85.1-0.82
			l0.77-0.22l5.91,10.69v-12.18l0.98-0.04c0.16-0.01,16.28-1,25.07-29.57c0.83-2.7,1.79-5.67,2.82-8.85
			c7.49-23.13,18.81-58.09,7.21-76.17c-4.23-6.6-11.36-10.53-21.18-11.68c-3.99-0.47-8.29-0.23-12.45,0
			c-1.5,0.08-2.98,0.17-4.44,0.22c-22.73,0.78-44.88,3.42-65.85,7.84c-3.07,0.65-6.14,1.34-9.2,2.07l0,0
			c-7.86,1.88-15.66,4.05-23.2,6.45c-10.11,3.22-18.4,6.18-25.41,12.53c-4.69,4.25-7.72,9.3-8.76,14.62
			c-0.3,1.52-0.34,3.02-0.39,4.6L2.1,81.65c-0.02,0.54-1.81,53.61,17.42,72.44c4.8,4.71,10.6,6.9,17.22,6.51L37.91,160.53z"/>
	</g>
	<g>
		<path class="st4" d="M37.66,150.21c-2.95-0.21-5.87-0.68-8.54-1.98c-6.33-3.09-10.05-10.23-12.39-17.26
			c-4.13-12.39-5.31-25.7-5.6-38.86c-0.1-4.67-0.08-9.46,1.47-13.82c3.54-9.93,13.76-14.84,23.16-18.13
			c13.33-4.67,27.01-8.14,40.87-10.39c13.21-2.14,27.3-3.81,40.66-3.83c8.18-0.01,17.08,2.56,21.76,9.78
			c3.28,5.07,3.93,11.57,3.8,17.75c-0.36,17.44-5.98,34.17-11.2,50.69c-2.29,7.26-4.78,14.95-10.33,19.75
			c-4.41,3.81-10.16,5.25-15.75,6.17c-21.05,3.46-42.48,1.04-63.76,0.31C40.43,150.35,39.04,150.31,37.66,150.21z"/>
		<path class="st5" d="M80.46,152.91c-8.21,0-16.4-0.43-24.46-0.84c-4.75-0.25-9.5-0.49-14.25-0.65c-1.5-0.05-2.84-0.1-4.18-0.19
			l0,0c-2.53-0.18-5.83-0.58-8.91-2.08c-5.59-2.73-9.82-8.57-12.91-17.85c-4.54-13.64-5.41-28.09-5.65-39.16
			c-0.11-4.71-0.07-9.68,1.53-14.18C15.4,67.4,26.32,62.39,35.42,59.21c13.34-4.67,27.15-8.18,41.04-10.44
			c15.82-2.57,29.17-3.82,40.82-3.84c0.01,0,0.02,0,0.03,0c10.14,0,18.37,3.73,22.58,10.25c2.87,4.43,4.13,10.25,3.96,18.32
			c-0.34,16.58-5.43,32.61-10.35,48.12l-0.9,2.85c-2.24,7.11-4.79,15.16-10.64,20.22c-4.7,4.06-10.85,5.52-16.25,6.4
			C97.38,152.46,88.91,152.91,80.46,152.91z M117.31,46.96c-0.01,0-0.01,0-0.02,0c-11.54,0.02-24.78,1.26-40.49,3.81
			c-13.78,2.24-27.47,5.72-40.7,10.35c-8.67,3.03-19.07,7.77-22.54,17.51c-1.49,4.18-1.52,8.75-1.41,13.45
			c0.24,10.93,1.1,25.19,5.55,38.56c2.87,8.62,6.87,14.23,11.87,16.67c2.77,1.35,5.82,1.71,8.17,1.88l0,0
			c1.31,0.1,2.62,0.14,3.92,0.18c4.93,0.17,9.69,0.42,14.46,0.66c16.24,0.84,33.04,1.71,49.28-0.95c5.12-0.84,10.93-2.2,15.25-5.94
			c5.41-4.68,7.87-12.44,10.03-19.29l0.9-2.85c4.88-15.37,9.92-31.26,10.25-47.55c0.15-7.64-1-13.1-3.64-17.18
			C132.75,47.88,121.79,46.96,117.31,46.96z"/>
	</g>
	<g>
		<path d="M151.52,123.49c-3.79,0-6.87-3.08-6.87-6.87s3.08-6.87,6.87-6.87s6.87,3.08,6.87,6.87S155.31,123.49,151.52,123.49z
			 M151.52,111.78c-2.67,0-4.84,2.17-4.84,4.84s2.17,4.84,4.84,4.84s4.84-2.17,4.84-4.84S154.19,111.78,151.52,111.78z"/>
	</g>
	<g>
		<circle cx="144.98" cy="135.08" r="6.54"/>
	</g>
	<g>
		<line class="st5" x1="93.95" y1="35.04" x2="101.83" y2="10.19"/>
		<path d="M93.95,36.06c-0.1,0-0.2-0.01-0.31-0.05c-0.53-0.17-0.83-0.74-0.66-1.28l7.88-24.85c0.17-0.53,0.73-0.83,1.28-0.66
			c0.53,0.17,0.83,0.74,0.66,1.28l-7.88,24.85C94.78,35.78,94.38,36.06,93.95,36.06z"/>
	</g>
	<g>
		<line class="st5" x1="84.69" y1="35.04" x2="75.25" y2="5.27"/>
		<path d="M84.69,36.06c-0.43,0-0.83-0.28-0.97-0.71L74.28,5.58c-0.17-0.54,0.13-1.11,0.66-1.28c0.54-0.17,1.11,0.13,1.28,0.66
			l9.44,29.77c0.17,0.54-0.13,1.11-0.66,1.28C84.89,36.04,84.79,36.06,84.69,36.06z"/>
	</g>
</g>
</svg>
