<?xml version="1.0" encoding="utf-8"?>
<!-- Generator: Adobe Illustrator 23.0.1, SVG Export Plug-In . SVG Version: 6.00 Build 0)  -->
<svg version="1.1" id="Layer_1" xmlns="http://www.w3.org/2000/svg" xmlns:xlink="http://www.w3.org/1999/xlink" x="0px" y="0px"
	 viewBox="0 0 139.52 180" style="enable-background:new 0 0 139.52 180;" xml:space="preserve">
<style type="text/css">
	.st0{fill:#FFFFFF;stroke:#000000;stroke-miterlimit:10;}
	.st1{fill:#A9ABAE;stroke:#FFFFFF;stroke-miterlimit:10;}
	.st2{fill:none;stroke:#000000;stroke-miterlimit:10;}
	.st3{fill:#FFFFFF;stroke:#000000;stroke-linecap:round;stroke-miterlimit:10;}
	.st4{fill:#A9ABAE;}
	.st5{fill:#FFFFFF;}
	.st6{fill:none;stroke:#000000;stroke-linecap:round;stroke-miterlimit:10;}
	.st7{fill:none;stroke:#A9ABAE;stroke-width:2;stroke-miterlimit:10;}
	.st8{fill:#A9ABAE;stroke:#A9ABAE;stroke-miterlimit:10;}
	.st9{fill:none;stroke:#000000;stroke-width:2;stroke-miterlimit:10;}
	.st10{fill:none;stroke:#A9ABAE;stroke-width:2;stroke-linecap:round;stroke-miterlimit:10;}
</style>
<g>
	<path class="st9" d="M0.49,139.8c0.39,5.83,1.68,11.71,6.2,15.12c3.59,2.71,8.36,3.11,12.85,3.37c25.93,1.49,51.94,1.44,77.86-0.15
		c5.1-0.31,10.66-0.88,14.34-4.43c2.72-2.63,3.91-6.42,4.99-10.05c9.45-31.69,19-64.06,17.98-97.11
		c-0.16-5.05-0.66-10.38-3.59-14.51c-4.88-6.87-11.21-10.84-19.52-12.22C87.35,15.8,22.6,18.81,3.29,43.05
		c-3.93,4.94-2.97,12.21-3.05,18.52c-0.35,24.68-0.32,49.37,0.09,74.05C0.35,136.99,0.39,138.39,0.49,139.8z"/>
	<path d="M135.44,47.78h1.93c1.19,0,2.15,0.96,2.15,2.15v14.45c0,1.19-0.96,2.15-2.15,2.15h-2.6
		C134.78,66.52,135.34,51.37,135.44,47.78z"/>
	<path d="M133.52,73.95h1.93c1.19,0,2.15,0.96,2.15,2.15v7.23c0,1.19-0.52,2.7-1.7,2.7l-3.95,0.07
		C131.96,86.09,133.42,77.55,133.52,73.95z"/>
	<path class="st4" d="M100.87,15.9c0,0-35.6-5.05-73.21,8.84l7.91-20.39C36.58,1.73,39.1,0,41.91,0H88.8c2.6,0,4.97,1.48,6.11,3.8
		L100.87,15.9z"/>
	<path class="st4" d="M27.65,161.32c0,0,25.5,3.53,75.23,0l-7.35,14.7c-1.22,2.44-3.71,3.98-6.44,3.98H41.44
		c-2.73,0-5.22-1.54-6.44-3.98L27.65,161.32z"/>
</g>
</svg>
