<?xml version="1.0" encoding="utf-8"?>
<!-- Generator: Adobe Illustrator 23.0.1, SVG Export Plug-In . SVG Version: 6.00 Build 0)  -->
<svg version="1.1" id="Layer_1" xmlns="http://www.w3.org/2000/svg" xmlns:xlink="http://www.w3.org/1999/xlink" x="0px" y="0px"
	 viewBox="0 0 115.44 180" style="enable-background:new 0 0 115.44 180;" xml:space="preserve">
<style type="text/css">
	.st0{fill:#FFFFFF;stroke:#000000;stroke-miterlimit:10;}
	.st1{fill:#A9ABAE;stroke:#FFFFFF;stroke-miterlimit:10;}
	.st2{fill:none;stroke:#000000;stroke-miterlimit:10;}
	.st3{fill:#FFFFFF;stroke:#000000;stroke-linecap:round;stroke-miterlimit:10;}
	.st4{fill:#A9ABAE;}
	.st5{fill:#FFFFFF;}
	.st6{fill:none;stroke:#000000;stroke-linecap:round;stroke-miterlimit:10;}
	.st7{fill:none;stroke:#A9ABAE;stroke-width:2;stroke-miterlimit:10;}
	.st8{fill:#A9ABAE;stroke:#A9ABAE;stroke-miterlimit:10;}
	.st9{fill:none;stroke:#000000;stroke-width:2;stroke-miterlimit:10;}
	.st10{fill:none;stroke:#A9ABAE;stroke-width:2;stroke-linecap:round;stroke-miterlimit:10;}
</style>
<g>
	<g>
		<path class="st4" d="M55.03,20.87L68.97,2.75c0.96-1.25,2.54-1.85,4.08-1.56l37.87,7.12c3,0.56,4.4,4.06,2.62,6.54L88.61,49.51
			C88.61,49.51,78.54,23.87,55.03,20.87z"/>
		<path d="M88.33,51.81l-0.75-1.9c-0.1-0.25-10.12-25.07-32.69-27.95l-1.92-0.25L68.09,2.07c1.22-1.59,3.2-2.35,5.17-1.98
			l37.87,7.12c1.78,0.33,3.25,1.54,3.93,3.23s0.45,3.57-0.62,5.05L88.33,51.81z M57.06,20.06c18.95,3.47,28.99,21.44,31.78,27.24
			l23.8-33.11c0.61-0.85,0.75-1.95,0.36-2.92c-0.39-0.98-1.24-1.68-2.28-1.87L72.85,2.28c-1.14-0.21-2.29,0.23-2.99,1.15
			L57.06,20.06z"/>
	</g>
	<g>
		<polygon points="100.14,19.23 93.1,28.72 82.76,25.39 89.64,16.49 		"/>
	</g>
	<g>
		<polygon points="85.21,13.94 78.17,23.43 67.83,20.1 74.71,11.2 		"/>
	</g>
	<g>
		<path d="M25.3,180c-6.18,0-12.42-1.53-18.08-3.23c-1.82-0.55-3.57-1.15-4.9-2.47c-2.33-2.32-2.4-5.79-2.29-8.86
			C1.13,136.71,5.06,107.96,11.73,80c4.41-18.51,12.58-52.77,33.86-59.19c4.25-1.28,8.85-1.39,13.69-0.32
			c7.53,1.66,14.82,6.33,20.53,13.13c8.84,10.54,13.38,25.17,12.78,41.19c-0.47,12.75-3.97,26.11-11,42.04
			c-7.3,16.54-16.6,32.03-27.66,46.05c-4.9,6.21-10.46,12.36-17.92,15.23C32.55,179.47,28.93,180,25.3,180z M52.84,21.98
			c-2.29,0-4.5,0.32-6.61,0.95l0,0C26.17,28.98,18.2,62.44,13.91,80.41c-6.65,27.92-10.57,56.53-11.66,85.12
			c-0.1,2.6-0.06,5.52,1.63,7.2c0.96,0.96,2.37,1.43,3.97,1.91c8.63,2.59,18.63,4.78,27.36,1.42c6.95-2.68,12.27-8.57,16.97-14.54
			c10.94-13.87,20.15-29.2,27.37-45.57c6.91-15.67,10.35-28.77,10.82-41.23c0.58-15.47-3.78-29.56-12.27-39.68
			c-5.4-6.43-12.25-10.83-19.31-12.39C56.76,22.21,54.77,21.98,52.84,21.98z"/>
	</g>
</g>
</svg>
