<?xml version="1.0" encoding="utf-8"?>
<!-- Generator: Adobe Illustrator 23.0.1, SVG Export Plug-In . SVG Version: 6.00 Build 0)  -->
<svg version="1.1" id="Layer_1" xmlns="http://www.w3.org/2000/svg" xmlns:xlink="http://www.w3.org/1999/xlink" x="0px" y="0px"
	 viewBox="0 0 180 87.48" style="enable-background:new 0 0 180 87.48;" xml:space="preserve">
<style type="text/css">
	.st0{fill:#FFFFFF;stroke:#000000;stroke-miterlimit:10;}
	.st1{fill:#A9ABAE;stroke:#FFFFFF;stroke-miterlimit:10;}
	.st2{fill:none;stroke:#000000;stroke-miterlimit:10;}
	.st3{fill:#FFFFFF;stroke:#000000;stroke-linecap:round;stroke-miterlimit:10;}
	.st4{fill:#A9ABAE;}
	.st5{fill:#FFFFFF;}
	.st6{fill:none;stroke:#000000;stroke-linecap:round;stroke-miterlimit:10;}
	.st7{fill:none;stroke:#A9ABAE;stroke-width:2;stroke-miterlimit:10;}
	.st8{fill:#A9ABAE;stroke:#A9ABAE;stroke-miterlimit:10;}
	.st9{fill:none;stroke:#000000;stroke-width:2;stroke-miterlimit:10;}
	.st10{fill:none;stroke:#A9ABAE;stroke-width:2;stroke-linecap:round;stroke-miterlimit:10;}
</style>
<g>
	<g>
		<path d="M112.27,87.48c-24.26,0-52.51-0.63-65.44-1.01l-0.21-0.01c-1-0.03-2.01-0.06-3.02-0.12l0,0
			c-1.93-0.12-4.44-0.38-6.75-1.36c-4.24-1.78-7.45-5.64-9.82-11.77c-3.51-9.1-4.18-18.75-4.37-26.15
			c-0.08-3.13-0.06-6.43,1.17-9.41c2.87-6.94,11.24-10.25,18.22-12.36c4.72-1.42,13.92-1.8,26.66-2.33
			c15.15-0.63,35.89-1.48,59.46-4.64c8.86-1.19,20.47-2.55,31.61-2.57c0.01,0,0.02,0,0.02,0c7.71,0,13.97,2.44,17.17,6.7
			c2.19,2.92,3.15,6.77,3.03,12.12c-0.26,11.06-4.2,21.78-8.01,32.15l-0.7,1.92c-1.73,4.72-3.69,10.08-8.15,13.4
			c-3.57,2.66-8.27,3.62-12.4,4.2C144.29,87.17,129.26,87.48,112.27,87.48z M43.65,85.59c1,0.06,2,0.09,2.99,0.12l0.21,0.01
			c21.97,0.65,88.2,2,103.77-0.21c4.03-0.57,8.62-1.5,12.05-4.06c4.28-3.19,6.2-8.43,7.89-13.05l0.71-1.92
			c3.79-10.31,7.71-20.96,7.96-31.9c0.12-5.17-0.79-8.87-2.87-11.65c-3.05-4.07-9.09-6.4-16.56-6.4c-0.01,0-0.01,0-0.02,0
			c-11.1,0.01-22.67,1.38-31.51,2.56c-23.61,3.16-44.37,4.02-59.53,4.65c-12.69,0.52-21.85,0.9-26.48,2.3
			c-6.81,2.06-14.99,5.27-17.73,11.92c-1.17,2.84-1.19,5.92-1.11,9.1c0.19,7.34,0.85,16.91,4.32,25.9
			c2.29,5.93,5.37,9.65,9.41,11.35C39.36,85.22,41.79,85.47,43.65,85.59L43.65,85.59z"/>
	</g>
	<g>
		<path d="M45.05,85.06c-2.21-0.14-4.39-0.44-6.39-1.28c-4.74-1.99-7.52-6.6-9.27-11.15c-3.09-8-3.97-16.6-4.19-25.1
			c-0.08-3.01-0.06-6.11,1.1-8.92c2.65-6.41,10.3-9.58,17.33-11.71c9.98-3.01,41.54-1.16,82.99-6.71c9.9-1.33,20.43-2.46,30.43-2.47
			c6.12,0,12.79,1.66,16.29,6.32c2.46,3.27,2.94,7.47,2.85,11.46c-0.27,11.26-4.48,22.07-8.38,32.73
			c-1.72,4.69-3.58,9.66-7.73,12.76c-3.3,2.46-7.6,3.39-11.79,3.99c-15.75,2.23-84.2,0.67-100.13,0.2
			C47.12,85.15,46.08,85.13,45.05,85.06z"/>
	</g>
	<g>
		<circle class="st4" cx="55.4" cy="53.41" r="20.65"/>
	</g>
	<g>
		<circle cx="55.4" cy="53.41" r="8.09"/>
	</g>
	<g>
		<circle class="st4" cx="144.71" cy="53.41" r="20.65"/>
	</g>
	<g>
		<g>
			<path d="M19.54,32.35c-0.03,0-0.05,0-0.08-0.01c-0.21-0.04-0.34-0.25-0.29-0.45c0.76-3.56,3.13-6.69,6.69-8.82
				c4.01-2.4,8.89-3.11,13.04-1.91c0.2,0.06,0.32,0.27,0.26,0.47c-0.06,0.2-0.27,0.32-0.47,0.26c-3.95-1.15-8.6-0.47-12.44,1.83
				c-3.38,2.02-5.63,4.98-6.34,8.33C19.88,32.23,19.72,32.35,19.54,32.35z"/>
			<path d="M19.54,32.85l-0.19-0.02c-0.22-0.05-0.42-0.18-0.55-0.38c-0.13-0.2-0.17-0.43-0.12-0.66c0.78-3.7,3.24-6.95,6.92-9.15
				c4.13-2.47,9.16-3.2,13.44-1.96c0.47,0.14,0.73,0.62,0.6,1.09c-0.14,0.47-0.62,0.74-1.09,0.6c-3.82-1.11-8.33-0.45-12.05,1.78
				c-3.26,1.95-5.42,4.79-6.11,8C20.32,32.56,19.96,32.85,19.54,32.85z"/>
		</g>
	</g>
	<g>
		<g>
			<path d="M9,30.69c-0.03,0-0.05,0-0.08-0.01c-0.21-0.04-0.34-0.25-0.29-0.45c1.34-6.32,5.56-11.88,11.89-15.67
				c7.15-4.28,15.83-5.55,23.22-3.4c0.2,0.06,0.32,0.27,0.26,0.47c-0.06,0.2-0.27,0.32-0.47,0.26c-7.19-2.09-15.64-0.85-22.61,3.32
				c-6.14,3.68-10.24,9.07-11.54,15.17C9.34,30.57,9.18,30.69,9,30.69z"/>
			<path d="M9,31.19l-0.17-0.02c-0.24-0.05-0.44-0.19-0.57-0.38c-0.13-0.2-0.17-0.43-0.12-0.66c1.37-6.45,5.68-12.13,12.12-15.99
				c7.27-4.35,16.1-5.64,23.61-3.45c0.23,0.07,0.41,0.22,0.53,0.42c0.11,0.21,0.14,0.44,0.07,0.67c-0.07,0.23-0.22,0.41-0.42,0.53
				c-0.21,0.11-0.44,0.14-0.67,0.07c-7.06-2.05-15.36-0.83-22.22,3.27c-6.02,3.61-10.04,8.88-11.31,14.85
				C9.78,30.89,9.41,31.19,9,31.19z M43.66,11.41C43.66,11.41,43.66,11.41,43.66,11.41L43.66,11.41L43.66,11.41z"/>
		</g>
	</g>
	<g>
		<g>
			<path d="M0.88,26.55c-0.03,0-0.05,0-0.08-0.01C0.6,26.5,0.46,26.3,0.51,26.09c1.71-8.04,7.09-15.13,15.15-19.95
				c9.11-5.45,20.17-7.07,29.58-4.33c0.2,0.06,0.32,0.27,0.26,0.47s-0.27,0.32-0.47,0.26c-9.22-2.68-20.05-1.09-28.98,4.26
				C8.17,11.51,2.91,18.42,1.25,26.25C1.21,26.43,1.06,26.55,0.88,26.55z"/>
			<path d="M0.88,27.05L0.7,27.03c-0.23-0.05-0.43-0.18-0.56-0.38c-0.13-0.2-0.17-0.43-0.12-0.66c1.74-8.18,7.2-15.38,15.38-20.28
				c9.23-5.52,20.44-7.16,29.98-4.38c0.46,0.13,0.73,0.62,0.6,1.09c-0.07,0.23-0.22,0.41-0.42,0.53c-0.21,0.11-0.44,0.14-0.67,0.07
				C35.8,0.37,25.12,1.94,16.3,7.22C8.54,11.86,3.37,18.66,1.74,26.35C1.65,26.76,1.29,27.05,0.88,27.05z"/>
		</g>
	</g>
	<g>
		<circle cx="144.71" cy="53.41" r="8.09"/>
	</g>
</g>
</svg>
