<?xml version="1.0" encoding="utf-8"?>
<!-- Generator: Adobe Illustrator 23.0.1, SVG Export Plug-In . SVG Version: 6.00 Build 0)  -->
<svg version="1.1" id="Layer_1" xmlns="http://www.w3.org/2000/svg" xmlns:xlink="http://www.w3.org/1999/xlink" x="0px" y="0px"
	 viewBox="0 0 180 314" style="enable-background:new 0 0 180 314;" xml:space="preserve">
<style type="text/css">
	.st0{fill:none;stroke:#000000;stroke-width:3;stroke-miterlimit:10;}
	.st1{fill:none;stroke:#000000;stroke-width:2;stroke-miterlimit:10;}
	.st2{fill:none;stroke:#000000;stroke-miterlimit:10;}
</style>
<path d="M23.3,202.4c3,3,6.5,5.8,10.4,7.7c3.9,2,8.3,3,12.7,2.9c4.4-0.2,8.7-1.4,12.4-3.5c3.8-2.1,7-4.9,9.7-8
	c5.6-6.3,9.4-13.7,12.4-21.3c3-7.6,5-15.6,6.3-23.6c1.4-8,2-16.2,1.9-24.3c-0.1,16.3-2.8,32.7-9.2,47.6c-3.2,7.4-7.5,14.4-13.1,20.1
	c-5.5,5.7-12.9,9.7-20.5,9.5c-7.6-0.2-14.5-4.6-19.5-10.4c-5.1-5.8-8.8-12.9-11.7-20.2c-2.9-7.3-4.8-15.1-6.1-22.9
	c-1.3-7.8-1.9-15.8-1.9-23.7c0-7.9,0.6-15.9,1.9-23.7c1.3-7.8,3.2-15.5,6.1-22.9c2.9-7.3,6.5-14.4,11.7-20.2c0.9-1.1,1.9-2.1,3-3
	c-2.5,3-4.3,6.8-5,11c-1,6.8,1,13.3,5.2,18.1c3.4,3.9,8.1,6.8,13.7,7.6c2.5,0.4,5.1,0.3,7.4-0.1l0,0c9.2-1.7,16.8-9,18.3-18.7
	c1-6.7-1-13.2-5.1-18c0.8,0.7,1.6,1.5,2.4,2.2c5.6,5.7,9.9,12.7,13.1,20.1c6.4,14.9,9.1,31.3,9.2,47.6c0-8.1-0.6-16.3-1.9-24.3
	c-1.3-8-3.3-16-6.3-23.6c-3-7.6-6.8-15-12.4-21.3c-2.8-3.1-6-5.9-9.7-8c-3.7-2.1-8-3.4-12.4-3.5c-4.4-0.1-8.8,1-12.7,2.9
	c-3.9,1.9-7.4,4.6-10.4,7.7c-6,6.1-10.5,13.5-13.8,21.2c-6.7,15.5-9.4,32.3-9.4,49c0.1,16.7,2.8,33.5,9.5,49
	C12.8,188.9,17.3,196.3,23.3,202.4z M66.9,70.3c-0.2,1.3-1.2,2.2-2.3,2c-1.1-0.2-1.8-1.4-1.6-2.6c0.2-1.3,1.2-2.2,2.3-2
	C66.4,67.9,67.1,69,66.9,70.3z M62.7,60.9c0,0.4,0,0.8-0.1,1.2c-0.7,4.8-4.6,8.1-8.6,7.5c-4-0.6-6.7-5-6-9.7c0.3-1.8,1-3.3,2-4.6
	C54.6,55.9,58.9,58,62.7,60.9z"/>
<path d="M170.6,85.7c-3.3-7.7-7.8-15.1-13.8-21.2c-3-3-6.5-5.8-10.4-7.7c-3.9-2-8.3-3-12.7-2.9c-4.4,0.2-8.7,1.4-12.4,3.5
	c-3.8,2.1-7,4.9-9.7,8c-5.6,6.3-9.4,13.7-12.4,21.3c-3,7.6-5,15.6-6.3,23.6c-1.4,8-2,16.2-1.9,24.3c0.1-16.3,2.8-32.7,9.2-47.6
	c3.2-7.4,7.5-14.4,13.1-20.1c0.8-0.8,1.6-1.5,2.4-2.2c-7,8.5-6.9,21.1,0.7,29.5c4.6,5.1,11,7.6,17.4,7.4c5.2-0.1,10.4-2.1,14.5-5.8
	c1.9-1.7,3.4-3.7,4.6-5.9l0,0c4.1-7.5,3.6-16.9-1.6-24c0.7,0.7,1.3,1.4,2,2.1c5.1,5.8,8.8,12.9,11.7,20.2c2.9,7.3,4.8,15.1,6.1,22.9
	c1.3,7.8,1.9,15.8,1.9,23.7c0,7.9-0.6,15.9-1.9,23.7c-1.3,7.8-3.2,15.5-6.1,22.9c-2.8,7.3-6.5,14.4-11.7,20.2
	c-5,5.8-11.9,10.2-19.5,10.4c-7.6,0.3-15-3.8-20.5-9.5c-5.6-5.7-9.9-12.7-13.1-20.1c-6.4-14.9-9.1-31.3-9.2-47.6
	c0,8.1,0.6,16.3,1.9,24.3c1.3,8,3.3,16,6.3,23.6c2.9,7.3,6.5,14.4,11.7,20.4c-6.4-3-13.7-3.1-20.4-2c-6.8,1.3-13.2,3.7-19.1,7
	c-5.9,3.2-11.4,7.1-16.2,11.8c5.9-3.1,11.8-5.9,17.8-8.4c6-2.4,12.1-4.5,18.3-5.6c3.1-0.6,6.2-0.8,9.3-0.7c3.1,0.1,6.1,0.5,9,1.5
	c2.9,1,5.6,2.5,8.2,4.4c2.6,1.9,4.7,4.4,6.9,6.9c-0.9-2.1-1.9-4.1-3.2-6c3.7,2.1,7.9,3.3,12.3,3.5c4.4,0.1,8.8-1,12.7-2.9
	c3.9-1.9,7.4-4.6,10.4-7.7c6-6.1,10.5-13.5,13.8-21.2c6.7-15.5,9.4-32.3,9.5-49C179.9,118,177.2,101.2,170.6,85.7z M131.6,69.2
	c-3,2.7-8.1,2.1-11.3-1.5c-1.3-1.4-2.1-3.1-2.4-4.8c3.9-2.9,8.4-4.9,13.1-5.3c0.1,0.1,0.2,0.1,0.2,0.2
	C134.4,61.4,134.6,66.5,131.6,69.2z M140.3,62.7c-0.8,0.7-2.2,0.5-3.1-0.4c-0.9-1-0.9-2.3-0.1-3.1c0.8-0.7,2.2-0.5,3,0.4
	C141.1,60.6,141.1,62,140.3,62.7z"/>
<path d="M113.9,260.2c-5.7,3.8-12.2,6.2-19,6.7c-6.7,0.7-13.6-0.5-20.3-2.5c-6.7-2.1-13.2-5-19.5-8.5c5.1,5.2,11.4,9.2,18.2,12.1
	c6.8,2.9,14.4,4.4,22,3.8c3.8-0.4,7.6-1.2,11.1-2.6c3.5-1.5,6.8-3.5,9.7-5.9c5.8-4.8,10.2-11,13-17.6
	C124.6,251.2,119.6,256.3,113.9,260.2z"/>
<path d="M51.8,301.7c-0.1-0.7-0.3-1.4-0.4-2.1c-0.2-0.7-0.5-1.3-0.7-2c-0.5-1.3-1-2.7-1.6-4c-0.7-1.2-1.5-2.5-2.3-3.7
	c-0.7-1.3-1.8-2.3-2.7-3.4c-1-1.1-2-2.2-3.2-3c-4.5-3.8-10.1-6.1-15.6-6.9c-5.6-0.7-11.3-0.4-16.4,1.8c5.4,0.9,10.3,2.1,15,3.8
	c4.6,1.7,8.8,4,12.4,7c1,0.7,1.8,1.5,2.6,2.4c0.8,0.8,1.7,1.6,2.4,2.6c0.7,0.9,1.5,1.9,2.2,2.8c0.6,1,1.2,2.1,1.9,3.1l1,1.6
	c0.3,0.6,0.5,1.1,0.8,1.7l1.7,3.4c1.1,2.3,1.9,4.8,3.2,7.3c0.3-2.7,0.4-5.4,0.2-8.2L51.8,301.7z"/>
<path d="M139.7,15.6c3.8,2.8,7.1,6,10.4,9.4c3.3,3.4,5.9,7.3,9,11.6c-0.2-5.1-1.6-10.4-4.4-15c-2.7-4.5-6.3-8.6-10.6-11.8
	c-4.2-3.2-8.9-5.7-13.8-7.4c-4.9-1.6-10-2.7-15.3-2.4c4.5,2.6,8.7,5,12.8,7.6C132.1,10.1,136,12.8,139.7,15.6z"/>
<path d="M34.8,19.1c3.5-3.1,7.4-5.7,11.4-8.1c4-2.5,8.4-4.2,13.2-6.3C54.4,3.8,48.9,4,43.9,5.7c-5,1.7-9.8,4.3-13.8,7.8
	c-4,3.4-7.4,7.5-10.2,11.9c-2.7,4.4-4.8,9.2-5.6,14.4c3.5-3.8,6.8-7.4,10.1-10.9C27.9,25.4,31.3,22.1,34.8,19.1z"/>
</svg>
