<?xml version="1.0" encoding="utf-8"?>
<!-- Generator: Adobe Illustrator 23.0.1, SVG Export Plug-In . SVG Version: 6.00 Build 0)  -->
<svg version="1.1" id="Layer_1" xmlns="http://www.w3.org/2000/svg" xmlns:xlink="http://www.w3.org/1999/xlink" x="0px" y="0px"
	 viewBox="0 0 180 282.7" style="enable-background:new 0 0 180 282.7;" xml:space="preserve">
<style type="text/css">
	.st0{fill:none;stroke:#000000;stroke-width:3;stroke-miterlimit:10;}
	.st1{fill:none;stroke:#000000;stroke-width:2;stroke-miterlimit:10;}
	.st2{fill:none;stroke:#000000;stroke-miterlimit:10;}
</style>
<path d="M61.6,124.5c-0.7,4.2-4.1,7.2-7.6,6.7c-3.6-0.5-5.9-4.4-5.3-8.6c0.3-1.9,1.1-3.5,2.3-4.7c-10.9-1.7-21.1,5.8-22.8,16.7
	c-0.9,6,0.9,11.8,4.6,16.1c3,3.5,7.2,6,12.1,6.7c2.3,0.3,4.5,0.3,6.6-0.1l0,0c8.2-1.5,14.9-8,16.2-16.6c1-6.8-1.4-13.2-6-17.6
	C61.7,123.5,61.7,124,61.6,124.5z M63.9,129.4c1,0.1,1.6,1.2,1.4,2.3s-1.1,2-2,1.8c-1-0.1-1.6-1.2-1.4-2.3
	C62.1,130.1,63,129.3,63.9,129.4z"/>
<path d="M97.8,226.3c-9,2.4-17.7,6.2-25.3,11.6c-3.8,2.7-7.4,5.7-10.7,9c-3.2,3.4-6.3,6.9-8.9,10.7c-5.3,7.6-9.4,16.1-11.3,25.1
	c4.3-8,9.5-15.3,15.2-22c5.8-6.6,12.2-12.6,19.4-17.5c3.5-2.5,7.3-4.7,11.2-6.8c3.8-2.1,7.9-3.7,12-5.4c8.3-3.1,16.9-5.3,25.9-7.1
	C116.1,223.2,106.8,224,97.8,226.3z"/>
<path d="M122.3,159.5c2.3,0.3,4.5,0.3,6.6-0.1l0,0c8.2-1.5,14.9-8,16.2-16.6c1-6.8-1.4-13.2-6-17.6c0,0.5,0,1-0.1,1.4
	c-0.7,4.2-4.1,7.2-7.6,6.7c-3.6-0.5-5.9-4.4-5.3-8.6c0.3-1.9,1.1-3.5,2.3-4.7c-10.9-1.7-21.1,5.8-22.8,16.7
	c-0.9,6,0.9,11.8,4.6,16.1C113.1,156.3,117.4,158.7,122.3,159.5z M141.3,131.6c1,0.1,1.6,1.2,1.4,2.3c-0.2,1.1-1.1,2-2,1.8
	c-1-0.1-1.6-1.2-1.4-2.3C139.4,132.3,140.4,131.5,141.3,131.6z"/>
<path d="M143.2,36.1c-2.7-2.7-5.7-5.1-9.2-6.8c-3.5-1.8-7.4-2.7-11.3-2.6c-3.9,0.1-7.7,1.2-11,3.1c-0.1,0.1-0.2,0.1-0.3,0.2
	c4-3.8,8.5-7.1,13.2-9.9c8-4.8,16.9-8.3,26.2-11.1c9.3-2.8,19.1-4.7,29.2-6.9c-10.1-2.3-20.5-2.7-30.9-1.4
	c-10.4,1.3-20.8,4.6-30,10.1c-9.3,5.5-17.3,13.5-22.5,22.9c-5.1,9.1-7.7,19.6-7,29.5c-1.3,4.4-2.3,9-3.1,13.5
	c-1.2,7.1-1.7,14.4-1.7,21.6c0.1-14.4,2.5-29,8.2-42.2c0.4-1,1-2,1.5-3c0.5-1.1,1.1-2.2,1.7-3.2c2.4-4.2,5.1-8.2,8.5-11.6
	c4.9-5,11.4-8.6,18.1-8.4c6.7,0.2,12.8,4.1,17.3,9.2c4.6,5.1,7.8,11.4,10.3,17.9c2.5,6.5,4.2,13.4,5.4,20.3c1.2,6.9,1.7,14,1.7,21
	c0,7-0.5,14.1-1.7,21c-1.1,6.9-2.9,13.8-5.4,20.3c-2.5,6.5-5.8,12.8-10.3,17.9c-4.5,5.1-10.5,9-17.3,9.2c-1.7,0.1-3.4-0.1-5-0.5
	c-3.2-2.5-7.1-4.6-11.4-6.3c-0.6-0.5-1.1-1-1.7-1.6c-5-5-8.8-11.3-11.6-17.8c-5.7-13.2-8.1-27.8-8.1-42.2c0,7.2,0.5,14.5,1.7,21.6
	c1.2,7.1,2.9,14.2,5.6,21c2.5,6.3,5.6,12.4,10,17.7c-5.3-1.5-11.2-2.4-17.4-2.4c-8.2,0-15.9,1.5-22.4,4.1c0.9-0.9,1.8-1.8,2.7-2.7
	c4.9-5.5,8.3-12.1,11-18.9c2.7-6.8,4.4-13.8,5.6-21c1.2-7.1,1.7-14.4,1.7-21.6c-0.1,14.4-2.4,29-8.1,42.2
	c-2.8,6.6-6.7,12.8-11.6,17.8c-4.9,5-11.4,8.6-18.2,8.4c-6.7-0.2-12.8-4.1-17.3-9.2c-4.6-5.1-7.8-11.4-10.3-17.9
	c-2.5-6.5-4.3-13.4-5.4-20.3c-1.2-6.9-1.7-14-1.7-21c0-7,0.5-14.1,1.7-21c1.2-6.9,2.9-13.8,5.4-20.3C20.2,48.4,23.4,42.2,28,37
	c4.5-5.1,10.5-9,17.3-9.2c2.1-0.1,4.1,0.3,6.1,0.9c6.2,4.3,11.7,9.4,16.3,15.7c4.6,6.3,8.4,13.4,11.4,21.3c2.8,9.9,4,20.3,4.1,30.6
	c0-7.2-0.5-14.5-1.7-21.6c-0.4-2.5-0.9-5-1.5-7.4c1.2-9.2-0.9-18.7-5-27.3c-4.3-8.8-11.3-16.4-19.6-21.7c-4.2-2.6-8.7-4.7-13.3-6.3
	c-2.3-0.7-4.6-1.5-7-1.9c-1.2-0.2-2.4-0.5-3.5-0.7L27.9,9C18.4,8,9,8.8,0,11.4c9.2,1.8,18,3.4,26.3,5.9c4.2,1.2,8.2,2.6,12.1,4.2
	c2.1,0.9,4.2,1.9,6.3,3c-3.7,0-7.4,0.9-10.7,2.6c-3.5,1.7-6.6,4.1-9.2,6.8c-5.3,5.4-9.3,12-12.3,18.8C6.6,66.6,4.2,81.5,4.1,96.3
	c0.1,14.8,2.5,29.7,8.4,43.5c3,6.8,6.9,13.4,12.3,18.8c2.7,2.7,5.7,5.1,9.2,6.8c3.5,1.8,7.4,2.7,11.3,2.6c1.9-0.1,3.7-0.4,5.5-0.9
	c-5.5,4.6-8.9,10.4-8.9,16.7c0,15.2,19.2,27.6,42.7,27.6s42.7-12.4,42.7-27.6c0-5-2.1-9.8-5.8-13.8c0.4,0,0.8,0.1,1.2,0.1
	c3.9,0.1,7.8-0.8,11.3-2.6c3.5-1.7,6.5-4.1,9.2-6.8c5.3-5.4,9.3-12,12.3-18.8c5.9-13.8,8.3-28.7,8.4-43.5
	c-0.1-14.8-2.5-29.7-8.4-43.5C152.5,48.1,148.5,41.6,143.2,36.1z M84.6,207.1c-21.2,0-38.4-10.4-38.4-23.3
	c0-12.8,17.2-23.3,38.4-23.3S123,171,123,183.8C123,196.6,105.8,207.1,84.6,207.1z"/>
</svg>
