<?xml version="1.0" encoding="utf-8"?>
<!-- Generator: Adobe Illustrator 23.0.1, SVG Export Plug-In . SVG Version: 6.00 Build 0)  -->
<svg version="1.1" id="Layer_1" xmlns="http://www.w3.org/2000/svg" xmlns:xlink="http://www.w3.org/1999/xlink" x="0px" y="0px"
	 viewBox="0 0 180 131.5" style="enable-background:new 0 0 180 131.5;" xml:space="preserve">
<style type="text/css">
	.st0{fill:none;stroke:#000000;stroke-width:3;stroke-miterlimit:10;}
	.st1{fill:none;stroke:#000000;stroke-width:2;stroke-miterlimit:10;}
	.st2{fill:none;stroke:#000000;stroke-miterlimit:10;}
</style>
<path d="M172.2,69.2C172.2,69.2,172.2,69.2,172.2,69.2l0-0.4c0.4-6.9,0-13.9-1.5-20.7c-1.5-6.8-3.7-13.4-6.7-19.6
	c-0.8-1.5-1.5-3.1-2.4-4.6c-0.8-1.5-1.8-3-2.7-4.4c-1.1-1.6-3.4-4.6-5.7-7.4c3.3-3.8,6.4-7.7,9.2-11.8c-3.4,3.5-7,7-10.6,10.2
	c0,0,0,0,0,0c-0.2,0.2-0.3,0.3-0.5,0.5c0,0,0,0,0,0c-1.7,1.5-3.3,3-5,4.4c-5.6,4.7-11.4,9.2-17.5,13.1c-6.1,4-12.5,7.3-19.1,10.1
	c-3.3,1.4-6.7,2.6-10.1,3.5c-1.7,0.5-3.4,0.9-5.1,1.2c-0.8,0.2-1.7,0.3-2.6,0.4c-0.6,0.1-1.3,0.2-1.9,0.2h-0.1
	c-0.6-0.1-1.3-0.1-1.9-0.2c-0.8-0.1-1.7-0.3-2.6-0.4c-1.7-0.3-3.4-0.7-5.1-1.2c-3.4-0.9-6.8-2.2-10.1-3.5c-6.6-2.8-13-6.1-19.1-10.1
	c-6.1-3.9-11.9-8.4-17.5-13.1c-1.7-1.5-3.4-2.9-5-4.4h0c0,0,0,0,0,0c-0.2-0.1-0.3-0.3-0.5-0.5c0,0,0,0,0,0
	c-3.6-3.3-7.1-6.7-10.6-10.2c2.9,4.1,6,8,9.2,11.8c-2.3,2.7-4.6,5.8-5.7,7.4c-1,1.4-1.9,2.9-2.7,4.4c-0.9,1.5-1.6,3-2.4,4.6
	c-3,6.2-5.2,12.8-6.7,19.6c-1.5,6.8-1.9,13.8-1.5,20.7l0,0.4h0C5.2,70.1,2.6,71,0,72.1c2.7-0.5,5.3-1,8-1.4l0,0
	c0.8-0.2,1.7-0.3,2.5-0.4v0c0,0,0,0,0,0c4-0.6,8-1.1,12.1-1.4c7.5-0.6,15.1-0.8,22.6-0.5c3.8,0.2,7.5,0.4,11.2,0.7
	c3.7,0.4,7.5,0.8,11.2,1.4c2,0.3,4.1,0.6,6.1,1c-4.6,2.8-7.4,6.9-7.4,11.4c0,8.8,10.5,15.7,23.9,15.7c13.4,0,23.9-6.9,23.9-15.7
	c0-4.6-2.8-8.6-7.5-11.5c1.9-0.4,3.9-0.7,5.8-1c3.7-0.6,7.4-1.1,11.1-1.4c3.7-0.3,7.5-0.6,11.2-0.7c7.5-0.3,15-0.1,22.6,0.5
	c4,0.3,8,0.8,12,1.4c0,0,0,0,0,0v0c0.8,0.1,1.7,0.2,2.5,0.4v0h0c2.7,0.4,5.3,0.9,8,1.4C177.4,71,174.8,70.1,172.2,69.2z M49.4,39.4
	c-0.5,0.7-1.5,1-2.1,0.5c-0.6-0.4-0.7-1.4-0.2-2.2c0.5-0.7,1.5-1,2.1-0.5C49.9,37.6,49.9,38.6,49.4,39.4z M40.8,41.5
	c-4.1,5.7-3.9,13.2,0,18.6l0,0c0.7,1,1.6,2,2.6,2.9c-3.3,0.1-6.6,0.4-9.8,0.7c-3.8,0.4-7.7,1.1-11.5,1.8c-3.9,0.8-7.8,1.8-11.6,2.9
	c0,0,0,0,0,0c-0.1-1.6,0.1-3.1,0.2-4.7c0.1-1.7,0.1-3.4,0.4-5l0.6-5l1-4.9c1.3-6.6,3.3-13,5.8-19.2c0.6-1.6,1.3-3.1,2-4.6
	c0.7-1.6,1.4-3.1,2.2-4.6c0.9-1.6,2.9-4.7,4.9-7.5h0c1.4,1.6,2.9,3.2,4.3,4.7C36.9,23,42.5,28,48.5,32.5c1.1,0.8,2.2,1.6,3.3,2.4
	C47.6,35.4,43.6,37.7,40.8,41.5z M61.9,41.8c-2,2.8-5.5,3.7-7.9,2c-2.3-1.6-2.6-5.1-0.8-7.9c2.9,2,5.9,3.8,9,5.5
	C62.1,41.5,62,41.6,61.9,41.8z M68.4,64c-1.5-0.2-3.1-0.3-4.6-0.5c1.2-0.9,2.2-2,3.2-3.3c3.4-4.7,3.8-10.7,1.7-15.7
	c3.2,1.5,6.5,2.8,9.9,3.9c1.8,0.6,3.7,1.1,5.6,1.5c0.7,0.2,1.4,0.3,2.2,0.4c0.2,0,0.4,0.1,0.6,0.1l-0.1,16.9c-0.1,0-0.2,0-0.3,0
	c-0.1,0-0.2,0-0.3-0.1c-2.1-0.5-4.2-1-6.3-1.5C76.1,65.1,72.3,64.4,68.4,64z M110.6,82.9c0,6.6-9.3,12.1-20.4,12.1
	c-11.1,0-20.4-5.5-20.4-12.1c0-4.2,3.9-8,9.6-10.2c2.1-0.8,4.4-1.4,6.9-1.7c1.3-0.2,2.6-0.2,4-0.2c1.2,0,2.4,0.1,3.6,0.2
	c2.6,0.3,5,0.8,7.1,1.7C106.7,74.8,110.6,78.6,110.6,82.9z M111.6,64c-3.9,0.5-7.7,1.1-11.5,1.9c-2.1,0.4-4.2,0.9-6.3,1.5
	c-0.1,0-0.1,0-0.2,0.1c-0.1,0-0.3,0-0.4,0l-0.1-16.9c0.2,0,0.4-0.1,0.6-0.1c0.7-0.1,1.5-0.3,2.2-0.4c1.9-0.4,3.8-1,5.6-1.5
	c3.4-1.1,6.7-2.4,9.9-3.9c-2.1,5-1.7,10.9,1.7,15.7c0.9,1.3,2,2.4,3.2,3.3C114.7,63.6,113.1,63.8,111.6,64z M126,43.7
	c-2.3,1.7-5.9,0.8-7.9-2c-0.1-0.2-0.2-0.3-0.3-0.4c3.1-1.7,6.1-3.5,9-5.5C128.6,38.6,128.3,42.1,126,43.7z M132.7,39.9
	c-0.6,0.5-1.6,0.2-2.1-0.5c-0.5-0.7-0.5-1.7,0.2-2.2c0.6-0.4,1.6-0.2,2.1,0.5C133.4,38.5,133.3,39.5,132.7,39.9z M169.5,68.4
	C169.5,68.4,169.5,68.4,169.5,68.4c-3.8-1.2-7.7-2.1-11.6-2.9c-3.8-0.7-7.6-1.3-11.5-1.8c-3.3-0.3-6.6-0.6-9.8-0.7
	c1-0.8,1.9-1.8,2.6-2.9l0,0c3.9-5.4,4-12.9,0-18.6c-2.7-3.8-6.8-6-11-6.6c1.1-0.8,2.2-1.6,3.3-2.4c6-4.5,11.6-9.5,16.8-14.9
	c1.5-1.5,2.9-3.1,4.3-4.7c2,2.8,4,5.9,4.9,7.5c0.8,1.5,1.5,3,2.2,4.6c0.7,1.5,1.3,3.1,2,4.6c2.5,6.2,4.4,12.7,5.8,19.2l1,4.9l0.6,5
	c0.3,1.6,0.3,3.3,0.4,5C169.4,65.3,169.5,66.8,169.5,68.4z"/>
<path d="M130,128.3c-2-0.3-3.9-0.7-5.9-1.1c-1-0.2-1.9-0.4-2.9-0.6l-2.9-0.7c-7.6-1.9-15-4.3-22.1-7.2c-7.9-3.3-17-5.1-25.7-4.5
	c-2.2,0.2-4.4,0.4-6.5,0.9c-1.1,0.2-2.1,0.5-3.2,0.8c-1.1,0.3-2.1,0.6-3.1,1c-4,1.5-8,3.4-11.2,6.3l0.3,0.5c3.6-1.8,7.5-3,11.5-3.7
	c4-0.8,8-1.1,12.1-1c8.1,0.2,16.1,2.1,23.6,5.2c7.6,3,15.6,5.2,23.7,6.4c8.1,1.1,16.4,1.3,24.5-0.2l-0.1-0.6
	C138,129.5,134,129,130,128.3z"/>
<path d="M53.2,15.1c2.9,1.8,5.9,3.5,9,4.9c3.1,1.4,6.3,2.7,9.6,3.3c-0.8-0.3-1.6-0.6-2.4-0.9c-0.8-0.3-1.5-0.7-2.3-1
	c-0.8-0.3-1.5-0.7-2.3-1.1c-0.8-0.4-1.5-0.7-2.2-1.2c-3-1.6-5.9-3.3-8.7-5.1c-2.9-1.8-5.7-3.6-8.5-5.5c-1.4-0.9-2.8-1.9-4.2-2.8
	L36.8,3c2.5,2.3,5.2,4.4,7.9,6.4C47.5,11.4,50.3,13.3,53.2,15.1z"/>
<path d="M143.3,11.8c0.7-0.6,1.4-1.3,2.1-2c0.6-0.7,1.3-1.4,1.9-2.1c0.6-0.7,1.2-1.5,1.8-2.3c0.5-0.8,1.1-1.6,1.6-2.4
	c-1.4,1.3-2.7,2.7-4,4c-1.4,1.3-2.7,2.6-4.1,3.9c-1.4,1.3-2.9,2.4-4.4,3.5c-1.5,1-3.1,2.1-4.9,2.6c1.9-0.1,3.8-0.9,5.4-1.9
	C140.3,14.2,141.9,13.1,143.3,11.8z"/>
<path d="M64.1,10.1c0.6,0.7,1.3,1.4,2,2.1c0.7,0.6,1.4,1.3,2.1,1.9c0.7,0.6,1.5,1.2,2.3,1.8c0.8,0.5,1.6,1.1,2.4,1.6
	c-1.3-1.4-2.7-2.7-4-4c-1.3-1.4-2.6-2.7-3.9-4.1c-1.3-1.4-2.4-2.9-3.5-4.4c-1-1.5-2.1-3.1-2.6-4.9c0.1,1.9,0.9,3.8,1.9,5.4
	C61.7,7.1,62.8,8.7,64.1,10.1z"/>
</svg>
