<?xml version="1.0" encoding="utf-8"?>
<!-- Generator: Adobe Illustrator 23.0.1, SVG Export Plug-In . SVG Version: 6.00 Build 0)  -->
<svg version="1.1" id="Layer_1" xmlns="http://www.w3.org/2000/svg" xmlns:xlink="http://www.w3.org/1999/xlink" x="0px" y="0px"
	 viewBox="0 0 180 219.9" style="enable-background:new 0 0 180 219.9;" xml:space="preserve">
<style type="text/css">
	.st0{fill:none;stroke:#000000;stroke-width:3;stroke-miterlimit:10;}
	.st1{fill:none;stroke:#000000;stroke-width:2;stroke-miterlimit:10;}
	.st2{fill:none;stroke:#000000;stroke-miterlimit:10;}
</style>
<path d="M178.1,22.2c-0.5-1.6-1-3.2-1.7-4.8c-0.4-0.8-0.7-1.6-1.1-2.3l-1.3-2.3c-1.9-2.9-4.2-5.7-7.1-7.8c-2.9-2.1-6.3-3.7-9.8-4.4
	c-3.5-0.8-7-0.8-10.4-0.3c-6.7,1-13,3.6-18.1,7.7c6.3-1.7,12.5-2.8,18.4-2.6c6,0.1,11.6,1.6,16,4.9c2.2,1.6,4.2,3.7,5.9,6
	c1.7,2.3,3.1,5,4.4,7.7c2.6,5.5,4.3,11.6,6.3,17.8C180.4,35.3,180,28.7,178.1,22.2z"/>
<path d="M159.1,40.2c-2-2.2-4.3-4.1-7-5.5c-2.7-1.5-5.8-2.3-9-2.3c-3.2,0.1-6.3,0.9-8.9,2.4c-2.7,1.4-5,3.4-6.9,5.6
	c-3.9,4.3-6.4,9.5-8.2,14.8c-1.8,5.3-2.9,10.7-3.6,16.1c-0.7,5.4-1,10.9-1,16.3c0,5.4,0.3,10.9,1,16.3c0.7,5.4,1.8,10.8,3.6,16.1
	c1.8,5.2,4.4,10.4,8.3,14.6c1.9,2.1,4.2,4.1,6.9,5.4c2.6,1.4,5.7,2.1,8.8,2.1c3.1-0.1,6-1,8.6-2.5c2.6-1.5,4.7-3.4,6.6-5.6
	c1.8-2.1,3.4-4.5,4.7-6.9c1.4-2.4,2.5-4.9,3.5-7.5c2-5.1,3.5-10.4,4.5-15.8c0.5-2.7,0.9-5.4,1.3-8.1c0.3-2.7,0.5-5.5,0.6-8.2
	c0.4-11-0.9-22.2-5-32.6C165.7,49.6,163,44.5,159.1,40.2z M165,118.9c-2.1,4.9-5,9.5-8.7,13.1c-3.7,3.6-8.4,6.1-13.2,5.9
	c-4.8-0.1-9.1-2.8-12.6-6.4c-3.5-3.7-6.3-8.1-8.6-12.9c-2.9-6.1-4.9-12.6-6-19.4c1.5,3.7,4.4,6.8,8.5,8.4c4.2,1.6,8.8,1.2,12.5-0.8
	c3-1.6,5.6-4.3,6.9-7.8c0.6-1.6,0.9-3.2,1-4.9l0,0c0.3-6.2-3.4-12.2-9.5-14.5c-4.8-1.9-9.9-1.1-13.8,1.6c0.3,0.1,0.7,0.2,1,0.3
	c3,1.2,4.6,4.2,3.6,6.7s-4.2,3.6-7.2,2.5c-1.3-0.5-2.4-1.4-3.1-2.4c-0.3,0.9-0.6,1.8-0.8,2.7c-0.1-1.2-0.1-2.3-0.1-3.5
	c0-10.8,2.4-21.6,7-31.2c2.3-4.7,5.2-9.2,8.7-12.8c3.5-3.6,7.9-6.1,12.5-6c4.6,0,8.9,2.5,12.3,6.1c3.5,3.6,6.1,8.1,8.2,12.9
	c4.1,9.6,6.1,20.2,6.6,30.9C170.6,98.1,169.2,109,165,118.9z M126.4,80.6c0.3-0.7,1.1-1,1.9-0.7c0.8,0.3,1.3,1.1,1,1.8
	c-0.3,0.7-1.1,1-1.9,0.7C126.6,82.1,126.1,81.3,126.4,80.6z"/>
<path d="M53.8,96.7c5.7,1.3,11.4,2.9,16.6,5.4c5.2,2.3,10,5.5,13.6,9.7l4.3,5l-0.4-6.4c-0.2-3.5-0.8-6.6-1.8-9.8
	c-0.9-3.2-2.2-6.2-4-9c-1.7-2.8-4-5.4-6.6-7.3c-2.6-2-5.7-3.2-8.8-3.8c2.9,1.2,5.6,2.9,7.7,5.1c2.2,2.1,3.9,4.7,5.2,7.4
	c1.3,2.7,2.3,5.6,2.9,8.6c0.2,0.9,0.4,1.8,0.5,2.8c-3.2-2.8-6.8-5-10.6-6.7c-5.7-2.5-11.7-4.2-17.7-5.2c-6-1.1-12.1-1.5-18.2-1.5
	c-6.1,0-12.1,0.4-18.1,1.4c6,0.3,12,0.9,17.9,1.5C42.2,94.5,48.1,95.4,53.8,96.7z"/>
<path d="M49,40.6c7.5,1.2,14.7,3.6,20.9,7.4c6.2,3.9,11.4,9.2,15.3,15.7c3.9,6.4,6.7,13.7,9.1,21.3c0.3-8-1.2-16.1-4.6-23.7
	c-3.4-7.6-9.1-14.3-16.3-18.8c-7.2-4.5-15.6-6.6-23.8-7c-8.2-0.3-16.4,0.9-23.8,4C33.7,39,41.4,39.3,49,40.6z"/>
<path d="M65,166.7C42,156.5,22.2,136,9.2,108.9c-1.8-3.8-3.9-5.5-5.8-5.1c-2.1,0.5-2.6,3.3-2.8,5.3C0.2,114.1,0,119.4,0,125.3
	c0,11.7,1,22,3.1,31.4c2.9,13.1,9.7,31.6,25.2,45.1c13.4,11.7,32.4,18.1,52.9,18.1c2.4,0,4.8-0.1,7.2-0.3
	c15.7-1.1,29.9-5.7,41.3-13.3c12.8-8.5,22.2-21.2,25.7-34.8l0.7-2.6l-2.6,0.6C118.5,178.2,88.7,177.2,65,166.7z M127.9,203.6
	c-10.9,7.3-24.7,11.7-39.8,12.8c-22.3,1.6-43.3-4.6-57.7-17C15.6,186.5,9.1,168.7,6.3,156c-1.9-8.6-2.9-17.9-3-28.5
	c3.9,10.3,9.3,20,15.9,28.9c7.6,10.2,17,19.1,27.8,25.8c5.5,3.3,11.3,6,17.3,8.1l4.6,1.5c1.5,0.4,3.1,0.8,4.6,1.2
	c0.8,0.2,1.5,0.4,2.3,0.5l2.4,0.4c1.6,0.2,3.1,0.6,4.7,0.7c3.2,0.3,6.3,0.7,9.5,0.6c1.6,0,3.2,0.1,4.8,0l4.8-0.3l2.4-0.1l2.4-0.3
	l4.7-0.6c3.1-0.5,6.2-1.2,9.3-1.8c-12.5,2.2-25.2,2.8-37.7,1.2c-6.2-1-12.4-2.2-18.3-4.4c-5.9-2.1-11.6-4.8-16.9-8.1
	c-10.7-6.5-20-15.3-27.7-25.2c-3.9-5-7.3-10.2-10.4-15.7c-2.4-4.2-4.6-8.6-6.5-13.1c0-0.5,0-1.1,0-1.6c0-5.9,0.2-11.1,0.6-15.9
	c0.1-1.2,0.3-1.8,0.4-2.2c0.4,0.4,1.2,1.3,2,3.1c13.4,27.8,33.7,48.8,57.4,59.3c23.8,10.5,53.3,11.8,87.8,3.7
	C147.8,185.2,139.3,196.1,127.9,203.6z"/>
</svg>
