<?xml version="1.0" encoding="utf-8"?>
<!-- Generator: Adobe Illustrator 23.0.1, SVG Export Plug-In . SVG Version: 6.00 Build 0)  -->
<svg version="1.1" id="Layer_1" xmlns="http://www.w3.org/2000/svg" xmlns:xlink="http://www.w3.org/1999/xlink" x="0px" y="0px"
	 viewBox="0 0 180 296.4" style="enable-background:new 0 0 180 296.4;" xml:space="preserve">
<style type="text/css">
	.st0{fill:none;stroke:#000000;stroke-width:3;stroke-miterlimit:10;}
	.st1{fill:none;stroke:#000000;stroke-width:2;stroke-miterlimit:10;}
	.st2{fill:none;stroke:#000000;stroke-miterlimit:10;}
</style>
<path d="M171.2,87.3c-0.6-0.4-1.2-0.8-1.9-1.2l-3.9-2.2c-1.4-0.6-2.8-1.1-4.2-1.6c-5.7-1.8-11.9-2.5-17.9-1.7c-6,0.7-11.7,2.5-17,5
	c-4.1,2.1-8.1,4.6-11.5,7.7c-8.2-3.2-18.3-5-29.5-5c-11.3,0-21.6,1.9-29.8,5.2c-3.2-2.4-6.9-4.1-10.7-5.5c-5-1.8-10.4-2.7-15.8-2.7
	c-2.7-0.1-5.4,0.3-8.1,0.7c-1.3,0.3-2.6,0.6-3.9,1c-0.6,0.2-1.3,0.3-1.9,0.6l-1.9,0.8C8,90.3,3.6,93.6,0,97.4
	c5.1-1.5,9.8-3.2,14.6-3.9c2.4-0.6,4.8-0.7,7.2-1.1c2.4-0.1,4.8-0.4,7.2-0.3c4.8,0,9.7,0.3,14.5,1.1c3,0.4,6.1,1,9.1,1.6
	c-10.4,4.8-16.8,11.9-16.8,19.9c0,14.8,21.7,26.3,49.5,26.3s49.5-11.6,49.5-26.3c0-8.3-6.9-15.6-18-20.4c3.8-1.4,7.5-2.6,11.3-3.7
	c5.3-1.5,10.6-2.7,15.9-3.3c5.3-0.7,10.6-0.5,15.9,0.2c1.3,0.2,2.7,0.4,4,0.6l4,1.1c0.7,0.2,1.4,0.3,2,0.5c0.6,0.2,1.3,0.5,2,0.7
	c1.3,0.5,2.7,0.9,4.1,1.3c-1-1-2.1-2-3.2-3C172.3,88.2,171.7,87.7,171.2,87.3z M128.2,114.6c0,9.5-17.2,19.6-42.8,19.6
	s-42.8-10.2-42.8-19.6S59.7,95,85.4,95S128.2,105.1,128.2,114.6z"/>
<path d="M7.5,43.6c1.2-3,2.7-5.9,4.5-8.5c1.8-2.6,3.9-5.1,6.2-7.4c4.6-4.7,10-8.7,15.8-12.6C39.8,11.2,45.9,7.7,52.2,4
	c-7.4,0.2-14.6,2-21.5,4.9c-6.8,2.9-13.4,6.9-18.8,12.5c-2.7,2.8-5.1,5.9-7.1,9.3c-1.9,3.5-3.3,7.2-4,11.1
	c-1.5,7.8,0.1,15.7,3.7,22.1C4.5,56.5,5.1,49.6,7.5,43.6z"/>
<path d="M178.4,34.6c-0.4-2-1-3.9-1.6-5.9c-0.7-1.9-1.4-3.9-2.3-5.8c-1.7-3.8-4-7.4-6.8-10.7c-5.5-6.7-13.9-11.3-22.5-12
	c-8.5-0.8-16.9,1.5-23.5,6.1c7.8-1.1,15.5-1,22.2,0.8c6.8,1.8,12.5,5.6,17,10.9c4.4,5.3,7.9,11.7,10.7,18.7
	c2.8,6.9,5.1,14.3,7.7,21.8C180.5,50.5,180.1,42.5,178.4,34.6z"/>
<path d="M114.7,154c-6.5,0.8-13,2-19.6,2.3c-13.1,0.7-26.4,0-39.5-2c-13-2-26.1-5.1-38.3-9.5l-4.7-1.7l0.1,4.9
	c0.3,14.6,1.5,29.3,4.2,43.8c2.7,14.4,6.9,28.7,13.1,42.2c6.1,13.5,14.4,26,24.2,37.1c4.9,5.6,10.3,10.8,16.3,15.3
	c6.1,4.5,13,8.3,20.9,9.7c4,0.7,8.1,0.6,12.1-0.4c4-1,7.7-2.8,10.9-5.1c6.4-4.7,11.2-10.9,15-17.4c3.8-6.5,6.7-13.4,9.2-20.4
	c2.5-7,4.5-14.1,6.1-21.2c1.6-7.2,3.1-14.4,4.2-21.6c0.8-7.3,1.3-14.6,1.7-21.8c0.7-14.1,0.9-28.2,0.1-42.2c0.9-0.6,1.8-1.1,2.7-1.7
	c5.7-3.6,10.9-8.1,15.8-12.7c-10.8,8.1-22.7,14.3-35.3,18.2C127.6,151.6,121.2,153.1,114.7,154z M150.6,146c-1,14-2.7,27.8-4.7,41.6
	c-1,7.1-2.3,14.2-3.6,21.3c-0.6,3.5-1.1,7.1-1.7,10.6c-0.7,3.5-1.4,7-2.2,10.5c-1.6,6.9-3.6,13.8-5.9,20.5
	c-2.4,6.7-5.1,13.2-8.6,19.2c-3.5,5.9-7.9,11.4-13.2,15.3c-5.3,3.9-11.6,5.5-18,4.3c-6.4-1.1-12.5-4.4-18.1-8.5
	c-5.5-4.2-10.6-9.1-15.3-14.4c-9.3-10.7-17.3-22.6-23.1-35.5c-5.9-12.9-10-26.6-12.6-40.6c-2.4-12.5-3.5-25.1-4-37.9
	c11.5,3.8,23.2,6.4,35.1,8.3c13.5,2.1,27.2,2.9,40.9,2.1l5.1-0.4l5.1-0.5c3.4-0.3,6.8-0.9,10.1-1.8c6.7-1.6,13.2-3.8,19.5-6.4
	C140.7,151.6,145.7,148.9,150.6,146z"/>
</svg>
