<?xml version="1.0" encoding="utf-8"?>
<!-- Generator: Adobe Illustrator 23.0.1, SVG Export Plug-In . SVG Version: 6.00 Build 0)  -->
<svg version="1.1" id="Layer_1" xmlns="http://www.w3.org/2000/svg" xmlns:xlink="http://www.w3.org/1999/xlink" x="0px" y="0px"
	 viewBox="0 0 180 100.98" style="enable-background:new 0 0 180 100.98;" xml:space="preserve">
<style type="text/css">
	.st0{fill:#FAA43A;}
	.st1{fill:#A6351D;}
	.st2{fill:#FFE4B8;}
	.st3{fill:#F7C954;}
	.st4{fill:none;stroke:#ED2B28;stroke-linecap:round;stroke-miterlimit:10;}
	.st5{fill:#EE2727;}
	.st6{fill:none;stroke:#ED2B28;stroke-width:0.5;stroke-linecap:round;stroke-miterlimit:10;}
	.st7{fill:none;stroke:#000000;stroke-width:0.5;stroke-linecap:round;stroke-miterlimit:10;}
	.st8{fill:#B76F3D;}
	.st9{fill:none;stroke:#000000;stroke-width:0.75;stroke-linecap:round;stroke-miterlimit:10;}
	.st10{fill:none;stroke:#000000;stroke-width:0.25;stroke-linecap:round;stroke-miterlimit:10;}
	.st11{fill:#965528;}
	.st12{fill:none;stroke:#000000;stroke-width:2;stroke-linecap:round;stroke-miterlimit:10;}
	.st13{fill:none;stroke:#000000;stroke-linecap:round;stroke-miterlimit:10;}
	.st14{fill:#FDB737;}
	.st15{fill:#FFFFFF;}
	.st16{fill:#F5A438;}
	.st17{fill:#FFDB75;}
	.st18{fill:#C62323;}
	.st19{fill:#783C1C;}
	.st20{fill:#CE3527;}
	.st21{fill:#FEC236;}
	.st22{fill:#90BA3E;}
	.st23{fill:#4AB449;}
	.st24{fill:#BC2826;stroke:#C62323;stroke-miterlimit:10;}
	.st25{fill:#F1DE39;}
	.st26{fill:#FACA44;stroke:#FACA44;stroke-miterlimit:10;}
	.st27{fill:none;stroke:#000000;stroke-width:0.5;stroke-miterlimit:10;}
	.st28{fill:none;stroke:#C62323;stroke-width:0.5;stroke-miterlimit:10;}
	.st29{fill:#FFDA00;}
	.st30{fill:#721301;}
	.st31{fill:none;stroke:#FFDA00;stroke-width:4;stroke-linecap:round;stroke-miterlimit:10;}
	.st32{fill:none;stroke:#721301;stroke-width:0.5;stroke-linecap:round;stroke-miterlimit:10;}
	.st33{fill:#FFC919;}
	.st34{fill:#FDBB1E;}
	.st35{fill:#B8742A;}
	.st36{fill:#B03B28;}
	.st37{fill:#F3EA24;}
	.st38{fill:none;stroke:#975824;stroke-miterlimit:10;}
	.st39{fill:#F3BE83;}
	.st40{fill:#F7CA9A;}
</style>
<g>
	<path class="st8" d="M3.31,35.94c0.02-0.07,0.04-0.14,0.06-0.21c0.54-1.96-0.03-4.03-0.35-6.04C2.4,25.89,2.87,21.5,5.8,19
		c2.62-2.24,6.54-2.33,9.82-1.26s6.13,3.13,9.09,4.89c15.16,9.03,34.6,10.46,50.93,3.75c3.05-1.25,6.01-2.78,9.23-3.51
		c1.42-0.32,2.88-0.49,4.27-0.92c2.51-0.78,4.67-2.37,6.92-3.73c7.65-4.64,16.53-6.75,25.3-8.52c4.24-0.85,8.51-1.65,12.83-1.81
		c7.25-0.27,14.44,1.25,21.54,2.77c2.06,0.44,4.17,0.9,5.96,2.01c5.01,3.11,5.82,9.95,6.1,15.84c0.01,0.19,3.44,2.01,3.83,2.32
		c1.36,1.06,2.58,2.31,3.63,3.68c2.13,2.8,3.39,6.02,3.9,9.48c0.8,5.46,1.77,11.57-0.74,16.75c-1.64,3.4-4.86,5.66-6.65,8.95
		c-1.65,3.03-0.67,7.5-3.52,9.88c-1.95,1.63-4.83,1.28-7.23,2.1c-3.17,1.08-5.42,4.18-8.68,4.96c-3.89,0.93-7.64-1.71-11.55-2.54
		c-6.54-1.38-11.92,2.92-18.26,2.94c-4.57,0.01-8.73-2.44-12.64-4.82c-9.53-5.8-19.07-11.6-28.6-17.4
		c-4.22-2.57-8.59-5.19-13.48-5.89c-3.09-0.45-6.27-0.1-9.32-0.73c-4.85-0.99-8.85-4.3-13.64-5.4c-5.08-1.16-10.71,0.45-15.65,1.7
		c-6.47,1.63-13.33,3.37-19.71,1.38C3.1,53.87-2.07,46.5,0.82,40.48C1.57,38.92,2.79,37.58,3.31,35.94z"/>
</g>
<g>
	<path d="M135.37,34.12c-3.48,0-6.11-2.5-6.14-2.54c-0.23-0.23-0.24-0.6-0.01-0.84c0.23-0.23,0.6-0.24,0.84-0.01
		c0.21,0.2,5.16,4.87,10.16,0c0.23-0.23,0.61-0.22,0.84,0.01c0.23,0.23,0.22,0.61-0.01,0.84C139.08,33.48,137.12,34.12,135.37,34.12
		z"/>
</g>
<g>
	<path d="M146.36,42.93c-3.48,0-6.1-2.5-6.14-2.54c-0.23-0.23-0.24-0.6-0.01-0.84c0.23-0.23,0.6-0.24,0.84-0.01
		c0.21,0.2,5.16,4.88,10.16,0c0.23-0.23,0.61-0.22,0.84,0.01c0.23,0.23,0.22,0.61-0.01,0.84C150.07,42.29,148.1,42.93,146.36,42.93z
		"/>
</g>
<g>
	<path d="M63.91,55.94c-3.48,0-6.1-2.5-6.14-2.54c-0.23-0.23-0.24-0.6-0.01-0.84c0.23-0.23,0.6-0.24,0.84-0.01
		c0.21,0.2,5.15,4.88,10.16,0c0.24-0.23,0.61-0.22,0.84,0.01c0.23,0.23,0.22,0.61-0.01,0.84C67.63,55.3,65.66,55.94,63.91,55.94z"/>
</g>
<g>
	<g>
		<path d="M8.62,47.78c1.27,0,1.27-1.98,0-1.98C7.35,45.8,7.34,47.78,8.62,47.78L8.62,47.78z"/>
	</g>
</g>
<g>
	<g>
		<path d="M11.86,50.36c1.27,0,1.27-1.98,0-1.98C10.59,48.38,10.58,50.36,11.86,50.36L11.86,50.36z"/>
	</g>
</g>
<g>
	<g>
		<path d="M19.82,51.63c1.27,0,1.27-1.98,0-1.98C18.55,49.65,18.54,51.63,19.82,51.63L19.82,51.63z"/>
	</g>
</g>
<g>
	<g>
		<path d="M70,50.83c1.27,0,1.27-1.98,0-1.98C68.72,48.85,68.72,50.83,70,50.83L70,50.83z"/>
	</g>
</g>
<g>
	<g>
		<path d="M159.83,21.15c1.27,0,1.27-1.98,0-1.98C158.56,19.17,158.56,21.15,159.83,21.15L159.83,21.15z"/>
	</g>
</g>
<g>
	<g>
		<path d="M156.15,77.15c1.27,0,1.27-1.98,0-1.98C154.87,75.17,154.87,77.15,156.15,77.15L156.15,77.15z"/>
	</g>
</g>
<g>
	<g>
		<path d="M153.54,15.89c1.27,0,1.27-1.98,0-1.98C152.27,13.91,152.27,15.89,153.54,15.89L153.54,15.89z"/>
	</g>
</g>
<g>
	<g>
		<path d="M159.83,78.58c1.27,0,1.27-1.98,0-1.98C158.56,76.61,158.56,78.58,159.83,78.58L159.83,78.58z"/>
	</g>
</g>
<g>
	<g>
		<path d="M164.6,79.47c1.27,0,1.27-1.98,0-1.98C163.33,77.5,163.33,79.47,164.6,79.47L164.6,79.47z"/>
	</g>
</g>
<g>
	<path d="M163.29,7.49c-0.78,0-1.42-0.64-1.42-1.42s0.64-1.42,1.42-1.42c0.78,0,1.42,0.64,1.42,1.42S164.07,7.49,163.29,7.49z
		 M163.29,5.04c-0.57,0-1.02,0.46-1.02,1.02s0.46,1.02,1.02,1.02c0.56,0,1.02-0.46,1.02-1.02S163.85,5.04,163.29,5.04z"/>
</g>
<g>
	<path d="M170.02,8.54c-0.48,0-0.86-0.39-0.86-0.86s0.39-0.86,0.86-0.86s0.86,0.39,0.86,0.86S170.5,8.54,170.02,8.54z M170.02,7.21
		c-0.26,0-0.47,0.21-0.47,0.47c0,0.26,0.21,0.47,0.47,0.47s0.47-0.21,0.47-0.47C170.49,7.42,170.28,7.21,170.02,7.21z"/>
</g>
<g>
	<path d="M169.05,4.11c-1.13,0-2.06-0.92-2.06-2.06S167.92,0,169.05,0s2.06,0.92,2.06,2.06S170.19,4.11,169.05,4.11z M169.05,0.4
		c-0.92,0-1.66,0.74-1.66,1.66s0.74,1.66,1.66,1.66s1.66-0.74,1.66-1.66S169.97,0.4,169.05,0.4z"/>
</g>
<g>
	<path d="M160.5,99.57c-1.01,0-1.83-0.82-1.83-1.83c0-1.01,0.82-1.83,1.83-1.83c1.01,0,1.83,0.82,1.83,1.83
		C162.33,98.75,161.51,99.57,160.5,99.57z M160.5,96.31c-0.79,0-1.43,0.64-1.43,1.43s0.64,1.43,1.43,1.43s1.43-0.64,1.43-1.43
		S161.29,96.31,160.5,96.31z"/>
</g>
<g>
	<path d="M169.5,100.98c-0.6,0-1.09-0.49-1.09-1.09s0.49-1.09,1.09-1.09s1.09,0.49,1.09,1.09S170.1,100.98,169.5,100.98z
		 M169.5,99.2c-0.38,0-0.69,0.31-0.69,0.69s0.31,0.69,0.69,0.69c0.38,0,0.69-0.31,0.69-0.69S169.88,99.2,169.5,99.2z"/>
</g>
<g>
	<path d="M168.21,95.06c-1.48,0-2.68-1.2-2.68-2.68c0-1.48,1.2-2.68,2.68-2.68c1.48,0,2.68,1.2,2.68,2.68
		C170.89,93.85,169.68,95.06,168.21,95.06z M168.21,90.09c-1.26,0-2.29,1.03-2.29,2.29c0,1.26,1.03,2.29,2.29,2.29
		c1.26,0,2.29-1.03,2.29-2.29C170.49,91.12,169.47,90.09,168.21,90.09z"/>
</g>
<g>
	<path d="M25.57,21.77c-1.01,0-1.83-0.82-1.83-1.83s0.82-1.83,1.83-1.83c1.01,0,1.83,0.82,1.83,1.83S26.57,21.77,25.57,21.77z
		 M25.57,18.51c-0.79,0-1.43,0.64-1.43,1.43s0.64,1.43,1.43,1.43S27,20.73,27,19.94S26.36,18.51,25.57,18.51z"/>
</g>
<g>
	<path d="M30.57,24.07c-0.6,0-1.09-0.49-1.09-1.09s0.49-1.09,1.09-1.09s1.09,0.49,1.09,1.09S31.17,24.07,30.57,24.07z M30.57,22.29
		c-0.38,0-0.69,0.31-0.69,0.69c0,0.38,0.31,0.69,0.69,0.69c0.38,0,0.69-0.31,0.69-0.69C31.26,22.6,30.95,22.29,30.57,22.29z"/>
</g>
<g>
	<path d="M28.36,11.07c-0.6,0-1.09-0.49-1.09-1.09c0-0.6,0.49-1.09,1.09-1.09s1.09,0.49,1.09,1.09
		C29.45,10.58,28.96,11.07,28.36,11.07z M28.36,9.29c-0.38,0-0.69,0.31-0.69,0.69c0,0.38,0.31,0.69,0.69,0.69s0.69-0.31,0.69-0.69
		C29.05,9.6,28.74,9.29,28.36,9.29z"/>
</g>
<g>
	<path d="M29.68,19.16c-1.48,0-2.68-1.2-2.68-2.68c0-1.48,1.2-2.68,2.68-2.68c1.48,0,2.68,1.2,2.68,2.68
		C32.36,17.96,31.16,19.16,29.68,19.16z M29.68,14.2c-1.26,0-2.29,1.03-2.29,2.29c0,1.26,1.03,2.29,2.29,2.29
		c1.26,0,2.29-1.03,2.29-2.29C31.97,15.22,30.94,14.2,29.68,14.2z"/>
</g>
</svg>
