<?xml version="1.0" encoding="utf-8"?>
<!-- Generator: Adobe Illustrator 23.0.1, SVG Export Plug-In . SVG Version: 6.00 Build 0)  -->
<svg version="1.1" id="Layer_1" xmlns="http://www.w3.org/2000/svg" xmlns:xlink="http://www.w3.org/1999/xlink" x="0px" y="0px"
	 viewBox="0 0 180 204.25" style="enable-background:new 0 0 180 204.25;" xml:space="preserve">
<style type="text/css">
	.st0{fill:#FAA43A;}
	.st1{fill:#A6351D;}
	.st2{fill:#FFE4B8;}
	.st3{fill:#F7C954;}
	.st4{fill:none;stroke:#ED2B28;stroke-linecap:round;stroke-miterlimit:10;}
	.st5{fill:#EE2727;}
	.st6{fill:none;stroke:#ED2B28;stroke-width:0.5;stroke-linecap:round;stroke-miterlimit:10;}
	.st7{fill:none;stroke:#000000;stroke-width:0.5;stroke-linecap:round;stroke-miterlimit:10;}
	.st8{fill:#B76F3D;}
	.st9{fill:none;stroke:#000000;stroke-width:0.75;stroke-linecap:round;stroke-miterlimit:10;}
	.st10{fill:none;stroke:#000000;stroke-width:0.25;stroke-linecap:round;stroke-miterlimit:10;}
	.st11{fill:#965528;}
	.st12{fill:none;stroke:#000000;stroke-width:2;stroke-linecap:round;stroke-miterlimit:10;}
	.st13{fill:none;stroke:#000000;stroke-linecap:round;stroke-miterlimit:10;}
	.st14{fill:#FDB737;}
	.st15{fill:#FFFFFF;}
	.st16{fill:#F5A438;}
	.st17{fill:#FFDB75;}
	.st18{fill:#C62323;}
	.st19{fill:#783C1C;}
	.st20{fill:#CE3527;}
	.st21{fill:#FEC236;}
	.st22{fill:#90BA3E;}
	.st23{fill:#4AB449;}
	.st24{fill:#BC2826;stroke:#C62323;stroke-miterlimit:10;}
	.st25{fill:#F1DE39;}
	.st26{fill:#FACA44;stroke:#FACA44;stroke-miterlimit:10;}
	.st27{fill:none;stroke:#000000;stroke-width:0.5;stroke-miterlimit:10;}
	.st28{fill:none;stroke:#C62323;stroke-width:0.5;stroke-miterlimit:10;}
	.st29{fill:#FFDA00;}
	.st30{fill:#721301;}
	.st31{fill:none;stroke:#FFDA00;stroke-width:4;stroke-linecap:round;stroke-miterlimit:10;}
	.st32{fill:none;stroke:#721301;stroke-width:0.5;stroke-linecap:round;stroke-miterlimit:10;}
	.st33{fill:#FFC919;}
	.st34{fill:#FDBB1E;}
	.st35{fill:#B8742A;}
	.st36{fill:#B03B28;}
	.st37{fill:#F3EA24;}
	.st38{fill:none;stroke:#975824;stroke-miterlimit:10;}
	.st39{fill:#F3BE83;}
	.st40{fill:#F7CA9A;}
</style>
<g>
	<path class="st19" d="M4.74,113.04c-0.16,2.01-0.17,4.32,0.03,6.99c0.21,2.83,2.06,5.29,4.72,6.28l32.95,12.24
		c0.96,0.36,1.99,0.51,3.02,0.44l110.78-7.48c0.92-0.06,1.82-0.3,2.65-0.7l11.95-5.73c1.37-0.66,2.51-1.71,3.22-3.04
		c1.58-2.95,3.8-8.62,1.93-14.97c-1.41-4.81-6.03-7.96-11.04-7.94L19.34,99.77C11.78,99.77,5.35,105.5,4.74,113.04z"/>
</g>
<g>
	<path class="st20" d="M21.46,78c-2.97,0.15-5.9,0.6-8.52,1.94c-6.73,3.44-11.57,15.48-2.58,19.35c3.2,1.38,6.83,1.34,10.19,2.27
		c4.44,1.22,8.27,4.06,12.65,5.49c5.7,1.86,11.87,1.21,17.86,1.4c13.23,0.42,25.98,5,39.14,6.39c16.21,1.71,32.5-1.46,48.43-4.91
		c9.54-2.07,19.4-4.41,27.06-10.45c2.97-2.35,5.61-5.34,6.68-8.98c1.06-3.64,0.25-7.99-2.68-10.39c-2.8-2.3-6.75-2.41-10.38-2.4
		c-44.57,0.07-89.14,0.15-133.72,0.22C24.23,77.92,22.84,77.93,21.46,78z"/>
</g>
<g>
	<polygon class="st21" points="12.89,154.98 17.27,142.61 167.67,137.75 171.6,147.78 161.96,172.8 54.24,186.94 12.89,159.27 	"/>
</g>
<g>
	<path class="st0" d="M12.89,151.47c0,0-10.65,40.1,17.55,48.25s110.29,2.82,110.29,2.82s39.16,1.71,30.88-58.28
		c0,0-16.15,15.35-43.72,15.67c0,0-60.78,5.33-85.22,0.63C18.21,155.85,12.89,151.47,12.89,151.47z"/>
</g>
<g>
	<path class="st22" d="M12.89,66.94c0,0-20.68,16.85-3.45,21.55S22.6,90.05,32,95.69c6.08,3.65,12.17,2.58,15.7,1.36
		c3.45-1.18,7.18-1.31,10.74-0.47c0.06,0.02,0.13,0.03,0.2,0.05c6.58,1.57,13.96,10.13,30.64,7.83s17.29-2.61,24.81-2.61
		c7.52,0,19.01,6.16,36.56-4.28c12.89-7.67,10.44-11.76,15.77-11.68s18.49-15.13,0-18.96H12.89z"/>
</g>
<g>
	<path class="st0" d="M13.64,46.78c3.22-7.36,8.69-14.34,13.25-19.6c3.37-3.89,7.05-7.53,11.01-10.83
		C51.67,4.89,68.96-0.84,86.86,0.1c0.2,0.01,0.4,0.02,0.59,0.03c52.32,3.13,77.39,47,77.39,47s11.28,23.5-11.28,32.9
		c-22.56,9.4-58.28,13.79-100.89,7.52C39.84,85.66,24.4,81.12,15.6,70.96C9.26,63.63,10.06,54.97,13.64,46.78z"/>
</g>
<g>
	<path class="st22" d="M9.12,123.44c-0.24,0.01-0.48,0.02-0.73,0.06c-2.8,0.38-4.95,2.61-6.73,4.79C0.84,129.3,0,130.43,0,131.73
		c0,2.28,2.49,3.72,4.72,4.2c2.23,0.49,4.74,0.62,6.36,2.24c1.95,1.95,1.75,5.25,3.37,7.49c2.38,3.29,7.38,2.88,11.25,1.64
		s8.15-2.93,11.8-1.15c2.63,1.29,4.45,4.23,7.35,4.64c2.53,0.36,5.3-1.36,7.54-0.13c4.02,2.19,3.17,6.2,8.51,4.09
		c4.66-1.84,8.39-4.43,12.96-0.65c0.84,0.69,1.66,1.57,2.75,1.65c0.73,0.05,1.42-0.27,2.04-0.66c4.77-2.97,7.3-9.86,12.91-10.26
		c5.69-0.41,10.06,6.53,15.72,5.85c4.94-0.59,7.96-6.76,12.94-6.92c4.35-0.14,7.68,4.46,12.03,4.59c5.03,0.15,8.23-5.48,12.96-7.18
		c5.68-2.04,11.62,1.99,17.62,2.61c7.47,0.77,15.1-4.63,16.85-11.93c0.64-2.66,0.43-5.79-1.55-7.67c-2.06-1.95-5.27-1.91-8.09-1.52
		c-5.28,0.73-10.42,2.22-15.58,3.56c-46.06,11.94-95.32,11.25-141.03-1.96C12.02,123.84,10.57,123.41,9.12,123.44z"/>
</g>
<g>
	<path class="st21" d="M173.83,122.43c0,0-6.49-1.1-21.58,4.08c-8.47,2.91-35.72,6.98-40.52,7.08c0,0,15.71,0.57,16.86,3.29
		C129.74,139.6,173.83,122.43,173.83,122.43z"/>
</g>
<g>
	<path class="st21" d="M14.26,100.14c0.01-0.08,0.05-0.16,0.14-0.19c0.12-0.04,0.29-0.01,0.41-0.01c0.15,0,0.3,0,0.46,0
		c0.61,0.01,1.21,0.04,1.82,0.08c1.21,0.08,2.41,0.23,3.61,0.42c1.2,0.19,2.39,0.43,3.58,0.69c1.19,0.27,2.38,0.57,3.56,0.89
		c1.18,0.32,2.36,0.66,3.54,1.01c1.18,0.35,2.36,0.7,3.54,1.04c1.18,0.34,2.35,0.68,3.54,1c0.22,0.06,0.45,0.12,0.67,0.18
		c11.98,3.15,24.46,4,36.45,7.07c-5.27-0.2-10.7-0.38-15.65,1.44c-1.06,0.39-2.12,0.87-3.25,0.94c-1.02,0.06-2.03-0.24-3.01-0.53
		c-1.19-0.4-2.42-0.73-3.62-1.1c-1.21-0.37-2.42-0.75-3.63-1.14c-1.21-0.38-2.41-0.77-3.62-1.17c-1.2-0.39-2.41-0.79-3.61-1.2
		c-1.2-0.4-2.4-0.81-3.6-1.23c-1.2-0.41-2.39-0.84-3.59-1.26c-1.19-0.43-2.39-0.86-3.58-1.29c-1.19-0.44-2.38-0.88-3.57-1.32
		c-1.19-0.45-2.37-0.9-3.55-1.35s-2.36-0.92-3.54-1.38c-0.59-0.23-1.18-0.47-1.77-0.7c-0.29-0.12-0.59-0.24-0.88-0.35
		c-0.15-0.06-0.29-0.12-0.44-0.18c-0.11-0.04-0.26-0.07-0.34-0.16C14.28,100.28,14.26,100.21,14.26,100.14z"/>
</g>
<g>
	<path d="M105.93,34.74c-1.51,0-2.74-1.23-2.74-2.74c0-0.24,0.2-0.44,0.44-0.44s0.44,0.2,0.44,0.44c0,1.02,0.83,1.86,1.86,1.86
		s1.86-0.83,1.86-1.86c0-0.24,0.2-0.44,0.44-0.44c0.24,0,0.44,0.2,0.44,0.44C108.66,33.51,107.43,34.74,105.93,34.74z"/>
</g>
<g>
	<path d="M93.67,19.01c-1.51,0-2.74-1.23-2.74-2.74c0-0.24,0.2-0.44,0.44-0.44c0.24,0,0.44,0.2,0.44,0.44
		c0,1.02,0.83,1.86,1.86,1.86c1.02,0,1.86-0.83,1.86-1.86c0-0.24,0.2-0.44,0.44-0.44c0.24,0,0.44,0.2,0.44,0.44
		C96.41,17.78,95.18,19.01,93.67,19.01z"/>
</g>
<g>
	<path d="M69.34,26.84c-1.51,0-2.74-1.23-2.74-2.74c0-0.24,0.2-0.44,0.44-0.44s0.44,0.2,0.44,0.44c0,1.02,0.83,1.86,1.86,1.86
		s1.86-0.83,1.86-1.86c0-0.24,0.2-0.44,0.44-0.44c0.24,0,0.44,0.2,0.44,0.44C72.08,25.61,70.85,26.84,69.34,26.84z"/>
</g>
<g>
	<path d="M51.3,35.89c-1.51,0-2.74-1.23-2.74-2.74c0-0.24,0.2-0.44,0.44-0.44c0.24,0,0.44,0.2,0.44,0.44c0,1.02,0.83,1.86,1.86,1.86
		s1.86-0.83,1.86-1.86c0-0.24,0.2-0.44,0.44-0.44c0.24,0,0.44,0.2,0.44,0.44C54.03,34.66,52.81,35.89,51.3,35.89z"/>
</g>
<g>
	<path d="M65.77,47.68c-1.51,0-2.74-1.23-2.74-2.74c0-0.24,0.2-0.44,0.44-0.44c0.24,0,0.44,0.2,0.44,0.44
		c0,1.02,0.83,1.86,1.86,1.86c1.02,0,1.86-0.83,1.86-1.86c0-0.24,0.2-0.44,0.44-0.44c0.24,0,0.44,0.2,0.44,0.44
		C68.5,46.45,67.28,47.68,65.77,47.68z"/>
</g>
<g>
	<path d="M129.79,43.89c-1.51,0-2.74-1.23-2.74-2.74c0-0.24,0.2-0.44,0.44-0.44s0.44,0.2,0.44,0.44c0,1.02,0.83,1.86,1.86,1.86
		s1.86-0.83,1.86-1.86c0-0.24,0.2-0.44,0.44-0.44s0.44,0.2,0.44,0.44C132.52,42.66,131.3,43.89,129.79,43.89z"/>
</g>
<g>
	<path d="M161.13,63.3c-0.24,0-0.44-0.2-0.44-0.44s0.2-0.44,0.44-0.44c1.02,0,1.86-0.83,1.86-1.86c0-1.02-0.83-1.86-1.86-1.86
		c-0.24,0-0.44-0.2-0.44-0.44c0-0.24,0.2-0.44,0.44-0.44c1.51,0,2.74,1.23,2.74,2.74S162.64,63.3,161.13,63.3z"/>
</g>
<g>
	<path d="M133.36,179.66c-1.51,0-2.74-1.23-2.74-2.74c0-0.24,0.2-0.44,0.44-0.44c0.24,0,0.44,0.2,0.44,0.44
		c0,1.02,0.83,1.86,1.86,1.86c1.02,0,1.86-0.83,1.86-1.86c0-0.24,0.2-0.44,0.44-0.44c0.24,0,0.44,0.2,0.44,0.44
		C136.1,178.43,134.87,179.66,133.36,179.66z"/>
</g>
<g>
	<path d="M113.32,185.14c-1.51,0-2.74-1.23-2.74-2.74c0-0.24,0.2-0.44,0.44-0.44c0.24,0,0.44,0.2,0.44,0.44
		c0,1.02,0.83,1.86,1.86,1.86c1.02,0,1.86-0.83,1.86-1.86c0-0.24,0.2-0.44,0.44-0.44c0.24,0,0.44,0.2,0.44,0.44
		C116.06,183.92,114.83,185.14,113.32,185.14z"/>
</g>
<g>
	<circle cx="140.6" cy="187.04" r="1.14"/>
</g>
<g>
	<circle cx="146.83" cy="179.77" r="1.14"/>
</g>
<g>
	<circle cx="121.29" cy="173.67" r="1.14"/>
</g>
<g>
	<circle cx="103.01" cy="179.47" r="1.14"/>
</g>
<g>
	<circle cx="24.47" cy="182.17" r="0.89"/>
</g>
<g>
	<circle cx="23.58" cy="178.37" r="0.89"/>
</g>
<g>
	<circle cx="23.11" cy="174.9" r="0.89"/>
</g>
<g>
	<circle cx="133.17" cy="36.14" r="0.77"/>
</g>
<g>
	<circle cx="118.47" cy="35.63" r="0.81"/>
</g>
<g>
	<circle cx="107.78" cy="46.09" r="1.07"/>
</g>
<g>
	<circle cx="139.86" cy="79.52" r="0.96"/>
</g>
<g>
	<circle cx="145.18" cy="77.36" r="0.96"/>
</g>
<g>
	<circle cx="150.86" cy="74.97" r="0.96"/>
</g>
<g>
	<circle cx="89.11" cy="38.21" r="0.83"/>
</g>
<g>
	<circle cx="84.52" cy="27.24" r="0.84"/>
</g>
<g>
	<circle cx="68.42" cy="36.66" r="0.92"/>
</g>
<g>
	<circle cx="58.35" cy="21.04" r="0.88"/>
</g>
<g>
	<circle cx="51.3" cy="46.09" r="0.86"/>
</g>
<g>
	<circle cx="81.89" cy="49.49" r="0.82"/>
</g>
</svg>
