<?xml version="1.0" encoding="utf-8"?>
<!-- Generator: Adobe Illustrator 23.0.1, SVG Export Plug-In . SVG Version: 6.00 Build 0)  -->
<svg version="1.1" id="Layer_1" xmlns="http://www.w3.org/2000/svg" xmlns:xlink="http://www.w3.org/1999/xlink" x="0px" y="0px"
	 viewBox="0 0 180 194.4" style="enable-background:new 0 0 180 194.4;" xml:space="preserve">
<style type="text/css">
	.st0{fill:#FAA43A;}
	.st1{fill:#A6351D;}
	.st2{fill:#FFE4B8;}
	.st3{fill:#F7C954;}
	.st4{fill:none;stroke:#ED2B28;stroke-linecap:round;stroke-miterlimit:10;}
	.st5{fill:#EE2727;}
	.st6{fill:none;stroke:#ED2B28;stroke-width:0.5;stroke-linecap:round;stroke-miterlimit:10;}
	.st7{fill:none;stroke:#000000;stroke-width:0.5;stroke-linecap:round;stroke-miterlimit:10;}
	.st8{fill:#B76F3D;}
	.st9{fill:none;stroke:#000000;stroke-width:0.75;stroke-linecap:round;stroke-miterlimit:10;}
	.st10{fill:none;stroke:#000000;stroke-width:0.25;stroke-linecap:round;stroke-miterlimit:10;}
	.st11{fill:#965528;}
	.st12{fill:none;stroke:#000000;stroke-width:2;stroke-linecap:round;stroke-miterlimit:10;}
	.st13{fill:none;stroke:#000000;stroke-linecap:round;stroke-miterlimit:10;}
	.st14{fill:#FDB737;}
	.st15{fill:#FFFFFF;}
	.st16{fill:#F5A438;}
	.st17{fill:#FFDB75;}
	.st18{fill:#C62323;}
	.st19{fill:#783C1C;}
	.st20{fill:#CE3527;}
	.st21{fill:#FEC236;}
	.st22{fill:#90BA3E;}
	.st23{fill:#4AB449;}
	.st24{fill:#BC2826;stroke:#C62323;stroke-miterlimit:10;}
	.st25{fill:#F1DE39;}
	.st26{fill:#FACA44;stroke:#FACA44;stroke-miterlimit:10;}
	.st27{fill:none;stroke:#000000;stroke-width:0.5;stroke-miterlimit:10;}
	.st28{fill:none;stroke:#C62323;stroke-width:0.5;stroke-miterlimit:10;}
	.st29{fill:#FFDA00;}
	.st30{fill:#721301;}
	.st31{fill:none;stroke:#FFDA00;stroke-width:4;stroke-linecap:round;stroke-miterlimit:10;}
	.st32{fill:none;stroke:#721301;stroke-width:0.5;stroke-linecap:round;stroke-miterlimit:10;}
	.st33{fill:#FFC919;}
	.st34{fill:#FDBB1E;}
	.st35{fill:#B8742A;}
	.st36{fill:#B03B28;}
	.st37{fill:#F3EA24;}
	.st38{fill:none;stroke:#975824;stroke-miterlimit:10;}
	.st39{fill:#F3BE83;}
	.st40{fill:#F7CA9A;}
</style>
<path class="st11" d="M172,31.98c8.87,12.39,5.43,31.26,0.79,44.48c-10.87,30.98-33.01,56.89-58.03,78.16
	c-10.64,9.05-21.96,17.46-34.61,23.38c-12.66,5.91-26.76,9.23-40.65,7.78c-3.75-0.4-7.61-1.26-11.07-2.78
	c-4.38,4.7-10.56,10.66-14.35,11.35c-6.35,1.15-16.46-18.77-13.57-23.96c2.03-3.65,8.82-6.8,16.48-7.16
	c0.87-6.38,4.33-12.85,8.45-17.98c2.57-3.21,5.37-6.18,8.33-8.98c0.68-0.67,1.36-1.29,2.05-1.9c7.04-6.41,14.9-12.03,22.74-17.64
	c1.73-1.23,3.45-2.47,5.17-3.73c0.65-0.46,1.29-0.93,1.95-1.43c9.56-7.01,18.71-14.42,25.95-23.74c0.25-0.31,0.5-0.64,0.73-0.97
	c0.52-0.68,1.03-1.37,1.51-2.06c6.43-9.08,11.11-19.31,16.6-29.02c0.99-1.74,2.02-3.49,3.1-5.2c0.44-0.71,0.9-1.42,1.37-2.12
	c5.28-8.06,11.64-15.4,19.93-20.17c4.65-2.66,10.53-4.45,16.4-4.78c-0.38-6.32-0.67-17.84,1.96-21.61
	c3.67-5.31,24.89,1.63,26.53,7.35c1.39,4.86-2.65,14.09-10.1,20.03C170.48,30.08,171.28,30.98,172,31.98z"/>
<g>
	<path d="M140.52,65.85c-0.05,0.63-0.58,1.11-1.2,1.11h-0.1c-14.23-1.15-23.85-13.81-25.68-16.39c0.44-0.71,0.9-1.42,1.37-2.12
		c0.13,0.07,0.25,0.19,0.35,0.34c0.1,0.15,9.83,14.58,24.15,15.74C140.08,64.61,140.58,65.19,140.52,65.85z"/>
</g>
<g>
	<path d="M118.94,101.64c-0.05,0.64-0.58,1.11-1.2,1.11h-0.1c-13.47-1.09-22.81-12.49-25.32-15.89c0.52-0.68,1.03-1.37,1.51-2.06
		c1.28,1.83,10.64,14.45,24,15.54C118.51,100.39,119,100.97,118.94,101.64z"/>
</g>
<g>
	<path d="M90.82,128.48c-0.06,0.63-0.58,1.11-1.21,1.11c-0.04,0-0.06,0-0.1-0.01c-14.64-1.19-24.41-14.55-25.8-16.58
		c0.65-0.46,1.29-0.93,1.95-1.43c1.06,1.52,10.49,14.5,24.05,15.6C90.37,127.22,90.87,127.81,90.82,128.48z"/>
</g>
<g>
	<path d="M52.19,148.98c-0.05,0.63-0.58,1.11-1.2,1.11h-0.11c-13.08-1.06-16.36-10.43-17.12-13.82c0.68-0.67,1.36-1.29,2.05-1.9
		c0.07,0.15,0.13,0.3,0.15,0.47c0.05,0.51,1.29,11.71,15.14,12.83C51.76,147.73,52.25,148.31,52.19,148.98z"/>
</g>
<g>
	<path d="M74.41,169.84c-0.26,0-0.49-0.16-0.58-0.42c-0.1-0.32,0.07-0.66,0.39-0.76c0.21-0.07,21.63-7.1,35.63-24.5
		c0.21-0.26,0.59-0.3,0.85-0.09c0.26,0.21,0.3,0.59,0.09,0.85c-14.24,17.69-35.99,24.82-36.21,24.89
		C74.54,169.83,74.47,169.84,74.41,169.84z"/>
</g>
<g>
	<circle cx="112.68" cy="141.2" r="1.3"/>
</g>
<g>
	<circle cx="163.61" cy="63.31" r="2.45"/>
</g>
<g>
	<circle cx="165.5" cy="55.17" r="2.45"/>
</g>
</svg>
