<?xml version="1.0" encoding="utf-8"?>
<!-- Generator: Adobe Illustrator 17.0.0, SVG Export Plug-In . SVG Version: 6.00 Build 0)  -->
<!DOCTYPE svg PUBLIC "-//W3C//DTD SVG 1.1//EN" "http://www.w3.org/Graphics/SVG/1.1/DTD/svg11.dtd">
<svg version="1.1" id="Layer_1" xmlns="http://www.w3.org/2000/svg" xmlns:xlink="http://www.w3.org/1999/xlink" x="0px" y="0px"
	 width="180px" height="110.142px" viewBox="10 44.929 180 110.142" enable-background="new 10 44.929 180 110.142"
	 xml:space="preserve">
<path fill="#F9CB60" d="M135.656,62.726c-1.107-0.814-2.257-1.566-3.467-2.222c-3.999-2.169-8.517-3.219-13.033-3.776
	c-6.663-0.821-13.683-0.56-19.709,2.399C92.06,62.751,87.15,69.853,81.819,76.121c-4.549,5.347-10.275,10.568-17.433,11.793
	c-5.967,1.02-12.108-0.561-18.037,0.811c-5.634,1.304-10.561,3.701-14.503,8.07c-5.744,6.367-4.187,16.235,1.797,21.986
	c4.686,4.503,11.177,6.608,17.571,7.771c10.891,1.981,22.093,1.628,33.08,0.275c10.447-1.285,21.234-3.441,31.321-0.433
	c7.507,2.239,14.112,7.368,18.14,14.086c1.8,3.002,3.124,6.332,5.445,8.951c3.897,4.396,10.2,6.144,16.041,5.516
	c5.841-0.628,11.271-3.363,16.085-6.732c6.191-4.331,11.908-10.407,12.707-17.92c0.483-4.541-0.899-9.076-2.654-13.291
	c-8.056-19.345-23.803-34.266-39.113-48.573C140.139,66.445,137.993,64.445,135.656,62.726z"/>
<path fill="#D75927" d="M143.548,92.018c-0.041,1.013-0.078,2.026-0.108,3.041c-1.469-0.138-2.941-0.199-4.414-0.253
	C140.62,94.034,142.126,93.062,143.548,92.018z"/>
<path fill="#D75927" d="M165.498,104.387c-1.208,0.885-2.348,1.891-3.465,2.899c0.21-1.125,0.321-2.304,0.374-3.508
	c0.109-2.462-0.023-5.016-0.027-7.352c-0.001-0.149-0.057-0.271-0.145-0.355c1.292-1.218,2.539-2.474,3.778-3.741
	C165.045,96.208,164.998,100.45,165.498,104.387z"/>
<path fill="#D75927" d="M165.819,91.614c-1.317,1.382-2.62,2.773-3.88,4.211c-0.024,0.026-0.037,0.056-0.046,0.087
	c-1.728-0.268-3.481-0.465-5.23-0.42c0.6-0.66,1.148-1.367,1.748-2.03c0.632-0.696,1.328-1.336,1.955-2.032
	c0.012-0.014,0.021-0.03,0.029-0.044C162.198,91.638,164.004,91.683,165.819,91.614z"/>
<path fill="#D75927" d="M161.82,58.818c-0.002,3.517-0.086,7.034-0.257,10.546c-0.345,7.278-1.049,14.533-2.081,21.743
	c-0.011,0.076,0.005,0.134,0.03,0.186c-1.104,0.959-2.166,2.187-2.959,3.424c0.35-4.363,0.403-8.758,0.532-13.132
	c0.183-6.22,0.367-12.445,0.547-18.667c0.088-2.93,0.272-5.888,0.049-8.813c-0.087-1.156-0.089-2.919-0.853-3.995
	c0.045,0.009,0.088,0.007,0.138-0.013c1.378-0.586,2.617-1.494,3.598-2.625c0.032-0.04,0.054-0.081,0.067-0.124
	c1.584,0.909,1.096,4.4,1.13,5.815C161.8,55.048,161.824,56.934,161.82,58.818z"/>
<path fill="#D75927" d="M159.79,47.313c-0.893,0.949-1.892,1.74-3.037,2.382c-0.082,0.046-0.116,0.113-0.115,0.182
	c-0.175-0.192-0.379-0.354-0.627-0.472c-0.971-0.468-2.312-0.481-3.359-0.624c-1.557-0.207-3.121-0.376-4.69-0.506
	c-1.072-0.09-2.614-0.41-4.01-0.369c2.205-1.178,4.473-2.483,6.923-2.107C153.857,46.256,156.815,46.836,159.79,47.313z"/>
<path fill="#D75927" d="M142.602,72.03c0.079-0.065,0.163-0.142,0.256-0.234c0.794-0.793,1.46-1.809,2.115-2.783
	c-0.052,0.73-0.103,1.463-0.155,2.195C144.087,71.556,143.37,71.823,142.602,72.03z"/>
<path fill="#D75927" d="M154.085,107.548c-5.532-0.172-11.067-0.341-16.599-0.505c0.119-2.76,0.298-5.514,0.576-8.264
	c0.069-0.694,0.036-1.515,0.242-2.173c0.308-0.982,0.147-0.901,1.306-1.038c1.229-0.144,2.555,0.009,3.826,0.028
	c0.127-0.002,0.257,0,0.383-0.002c0.226,0.018,0.446,0.035,0.668,0.053c0.516-9.32,0.75-18.665,1.346-27.986
	c0.026-0.397-0.491-0.519-0.706-0.223c-0.652,0.898-1.309,1.797-1.961,2.694c-0.416,0.575-0.579,1.051-1.331,1.167
	c-0.783,0.123-1.114-0.279-1.773-0.71c-2.025-1.315-4.025-2.698-6.155-3.843c1.441-2.859,2.716-5.802,4.022-8.724
	c0.706-1.581,1.404-3.167,2.107-4.753c0.868-1.957,1.362-4.456,3.913-4.454c3.111,0.004,6.313,0.433,9.388,0.891
	c1.788,0.267,2.669,0.543,3.278,2.455c0.256,0.804,0.229,1.753,0.272,2.586c0.082,1.589,0.024,3.184-0.024,4.772
	c-0.209,6.721-0.408,13.443-0.606,20.165c-0.163,5.487-0.163,11.026-0.719,16.498c0.08,0.003,0.164,0.011,0.248,0.014
	c0.062,0.072,0.156,0.126,0.286,0.135c1.791,0.118,3.557,0.223,5.33,0.493c-0.012,2.784-0.077,5.563-0.224,8.341
	c-0.051,0.963,0.145,1.65-0.639,2.236c-0.634,0.477-1.267,0.308-2.009,0.287C157.049,107.641,155.565,107.594,154.085,107.548z"/>
<path d="M144.973,69.013c-0.656,0.975-1.321,1.991-2.115,2.783c-0.092,0.092-0.176,0.168-0.256,0.234
	c0.768-0.207,1.484-0.474,2.216-0.821C144.87,70.476,144.922,69.742,144.973,69.013z M143.819,95.593
	c-0.127,0.002-0.257,0-0.383,0.002l0.004-0.536c0.03-1.014,0.067-2.027,0.108-3.041c-1.421,1.044-2.928,2.015-4.521,2.788
	l-0.244-0.363c1.505-1.017,3.03-2.004,4.521-3.045c0.091-0.065,0.187-0.057,0.273-0.014c0.274-6.539,0.744-13.08,1.202-19.607
	c-0.853,0.422-1.852,0.653-2.782,0.628c-0.054-0.002-0.078-0.038-0.093-0.077c-0.127,0.006-0.272-0.004-0.443-0.031
	c-1.148-0.185-2.653-1.669-3.621-2.306c-1.418-0.936-2.848-1.866-4.185-2.917l0.253-0.33c2.129,1.144,4.129,2.527,6.155,3.843
	c0.659,0.432,0.99,0.833,1.773,0.71c0.752-0.116,0.915-0.592,1.331-1.167c0.652-0.898,1.309-1.797,1.962-2.694
	c0.216-0.297,0.732-0.174,0.706,0.223c-0.597,9.321-0.831,18.665-1.346,27.986C144.265,95.629,144.044,95.611,143.819,95.593z"/>
<path d="M156.828,50.111c0.765,1.076,0.767,2.838,0.853,3.995c0.223,2.925,0.038,5.882-0.049,8.813
	c-0.179,6.22-0.364,12.445-0.547,18.667c-0.129,4.372-0.181,8.768-0.532,13.132c0.794-1.237,1.856-2.466,2.959-3.424
	c-0.025-0.051-0.041-0.109-0.03-0.186c1.032-7.21,1.736-14.464,2.081-21.743c0.171-3.513,0.254-7.03,0.257-10.546
	c0.003-1.884-0.021-3.77-0.06-5.653c-0.033-1.415,0.455-4.906-1.13-5.815c-0.013,0.041-0.034,0.082-0.067,0.124
	c-0.981,1.133-2.22,2.039-3.598,2.625C156.915,50.12,156.873,50.122,156.828,50.111z M156.753,49.695
	c1.143-0.643,2.144-1.434,3.037-2.382c-2.975-0.476-5.933-1.055-8.913-1.513c-2.45-0.376-4.719,0.929-6.923,2.107
	c1.397-0.041,2.938,0.279,4.01,0.369c1.569,0.131,3.131,0.3,4.69,0.506c1.047,0.142,2.387,0.156,3.359,0.624
	c0.247,0.119,0.451,0.28,0.627,0.472C156.638,49.808,156.671,49.741,156.753,49.695z M161.94,95.825
	c1.259-1.438,2.561-2.828,3.88-4.211c-1.815,0.069-3.621,0.024-5.422-0.229c-0.008,0.014-0.016,0.03-0.029,0.044
	c-0.629,0.696-1.323,1.336-1.955,2.032c-0.6,0.663-1.148,1.37-1.748,2.03c1.749-0.045,3.502,0.152,5.23,0.42
	C161.903,95.88,161.915,95.85,161.94,95.825z M165.498,104.387c-0.5-3.937-0.454-8.18,0.514-12.055
	c-1.24,1.267-2.487,2.521-3.778,3.741c0.089,0.085,0.144,0.205,0.145,0.355c0.004,2.337,0.136,4.89,0.027,7.352
	c-0.054,1.204-0.163,2.383-0.374,3.508C163.151,106.279,164.291,105.272,165.498,104.387z M166.391,91.325
	c0.08-0.004,0.166,0.054,0.158,0.148c-0.397,4.457-0.696,8.699-0.361,13.174c0.018,0.204-0.167,0.307-0.342,0.299
	c-1.296,1.138-2.723,2.151-4.12,3.15c-0.02,0.014-0.039,0.022-0.059,0.028c-0.748,0.898-2.343,0.57-3.552,0.529
	c-7.038-0.239-14.076-0.485-21.114-0.74c-0.237-0.007-0.435-0.223-0.424-0.46c0.191-4.129,0.591-8.234,1.155-12.327
	c0.028-0.202,0.177-0.368,0.395-0.358c0.049,0.002,0.103,0.004,0.157,0.007c0.166-0.111,0.332-0.223,0.498-0.334l0.244,0.363
	c1.473,0.054,2.945,0.115,4.414,0.253l-0.004,0.536c-1.271-0.018-2.597-0.172-3.826-0.028c-1.159,0.136-0.999,0.056-1.306,1.038
	c-0.205,0.658-0.173,1.479-0.242,2.173c-0.278,2.75-0.459,5.504-0.576,8.264c5.532,0.165,11.068,0.333,16.599,0.505
	c1.48,0.046,2.964,0.093,4.446,0.139c0.742,0.022,1.374,0.191,2.009-0.287c0.784-0.585,0.589-1.273,0.639-2.236
	c0.146-2.779,0.211-5.557,0.224-8.341c-1.773-0.27-3.539-0.375-5.33-0.493c-0.13-0.009-0.224-0.064-0.286-0.135
	c-0.085-0.004-0.168-0.011-0.248-0.014c0.557-5.472,0.557-11.011,0.719-16.498c0.198-6.721,0.396-13.444,0.606-20.165
	c0.047-1.587,0.106-3.183,0.024-4.772c-0.043-0.833-0.016-1.782-0.272-2.586c-0.609-1.912-1.489-2.188-3.278-2.455
	c-3.075-0.458-6.277-0.887-9.388-0.891c-2.551-0.002-3.045,2.496-3.913,4.454c-0.702,1.585-1.401,3.172-2.107,4.753
	c-1.306,2.922-2.581,5.866-4.022,8.724l-0.253,0.33c-0.004-0.004-0.007-0.004-0.011-0.008c-0.044-0.033-0.066-0.075-0.079-0.114
	c-0.105-0.051-0.189-0.162-0.14-0.286c1.278-3.353,2.768-6.624,4.216-9.903c0.699-1.585,1.401-3.172,2.1-4.757
	c0.443-1.003,0.857-2.483,1.697-3.277c0.304-0.286,0.676-0.479,1.092-0.607c2.074-1.333,4.622-3.166,7.06-3.192
	c1.583-0.018,3.251,0.458,4.81,0.715c1.859,0.304,3.724,0.598,5.578,0.926c0.187,0.031,0.296,0.163,0.331,0.309
	c0.08-0.004,0.16,0.034,0.219,0.09c2.339,0.207,1.911,3.904,1.96,5.476c0.125,4.269,0.115,8.54-0.012,12.81
	c-0.254,8.578-1.019,17.132-2.242,25.628c0.061,0.018,0.112,0.059,0.153,0.106c1.913,0.046,3.827,0.089,5.737,0.021
	C166.329,91.001,166.413,91.166,166.391,91.325z"/>
<path fill="#D75927" d="M143.448,94.84c0.029-0.941,0.062-1.881,0.1-2.822c-1.421,1.044-2.928,2.015-4.521,2.788
	c0.353,0.012,0.705,0.026,1.058,0.041C141.202,94.791,142.324,94.795,143.448,94.84z"/>
<path fill="#D75927" d="M165.498,104.387c-1.208,0.885-2.348,1.891-3.465,2.899c0.21-1.125,0.321-2.304,0.374-3.508
	c0.109-2.462-0.023-5.016-0.027-7.352c-0.001-0.149-0.057-0.271-0.145-0.355c1.292-1.218,2.539-2.474,3.778-3.741
	C165.045,96.208,164.998,100.45,165.498,104.387z"/>
<path fill="#D75927" d="M165.819,91.614c-1.317,1.382-2.62,2.773-3.88,4.211c-0.024,0.026-0.037,0.056-0.046,0.087
	c-1.728-0.268-3.481-0.465-5.23-0.42c0.6-0.66,1.148-1.367,1.748-2.03c0.632-0.696,1.328-1.336,1.955-2.032
	c0.012-0.014,0.021-0.03,0.029-0.044C162.198,91.638,164.004,91.683,165.819,91.614z"/>
<path fill="#D75927" d="M161.82,58.818c-0.002,3.517-0.086,7.034-0.257,10.546c-0.345,7.278-1.049,14.533-2.081,21.743
	c-0.011,0.076,0.005,0.134,0.03,0.186c-1.104,0.959-2.166,2.187-2.959,3.424c0.35-4.363,0.403-8.758,0.532-13.132
	c0.183-6.22,0.367-12.445,0.547-18.667c0.088-2.93,0.272-5.888,0.049-8.813c-0.087-1.156-0.089-2.919-0.853-3.995
	c0.045,0.009,0.088,0.007,0.138-0.013c1.378-0.586,2.617-1.494,3.598-2.625c0.032-0.04,0.054-0.081,0.067-0.124
	c1.584,0.909,1.096,4.4,1.13,5.815C161.8,55.048,161.824,56.934,161.82,58.818z"/>
<path fill="#D75927" d="M159.79,47.313c-0.893,0.949-1.892,1.74-3.037,2.382c-0.082,0.046-0.116,0.113-0.115,0.182
	c-0.175-0.192-0.379-0.354-0.627-0.472c-0.971-0.468-2.312-0.481-3.359-0.624c-1.557-0.207-3.121-0.376-4.69-0.506
	c-1.072-0.09-2.614-0.41-4.01-0.369c2.205-1.178,4.473-2.483,6.923-2.107C153.857,46.256,156.815,46.836,159.79,47.313z"/>
<path fill="#D75927" d="M142.602,72.03c0.079-0.065,0.163-0.142,0.256-0.234c0.794-0.793,1.46-1.809,2.115-2.783
	c-0.052,0.73-0.103,1.463-0.155,2.195C144.087,71.556,143.37,71.823,142.602,72.03z"/>
<path d="M141.46,72.297c0.171,0.027,0.316,0.037,0.443,0.031c0.013,0.039,0.039,0.074,0.093,0.077
	c0.93,0.026,1.929-0.206,2.782-0.628c-0.458,6.527-0.928,13.068-1.202,19.607c-0.087-0.042-0.181-0.051-0.272,0.014
	c-1.49,1.041-3.016,2.027-4.521,3.045l0.244,0.363c1.594-0.772,3.099-1.744,4.521-2.788c-0.038,0.94-0.071,1.881-0.1,2.822
	c0.359,0.014,0.718,0.032,1.078,0.055c0.488-9.072,0.727-18.164,1.308-27.234c0.025-0.397-0.491-0.519-0.706-0.223
	c-0.652,0.898-1.309,1.797-1.961,2.694c-0.416,0.575-0.579,1.05-1.331,1.167c-0.783,0.123-1.114-0.279-1.773-0.71
	c-2.025-1.315-4.025-2.698-6.155-3.843l-0.253,0.33c1.337,1.051,2.767,1.98,4.185,2.917
	C138.807,70.628,140.311,72.112,141.46,72.297z M142.858,71.796c0.794-0.793,1.46-1.809,2.115-2.783
	c-0.052,0.73-0.103,1.463-0.155,2.195c-0.732,0.346-1.448,0.614-2.216,0.821C142.682,71.964,142.765,71.888,142.858,71.796z"/>
<path d="M140.084,94.847c-0.353-0.014-0.705-0.028-1.058-0.041l-0.244-0.363c-0.166,0.111-0.332,0.223-0.498,0.334l-0.157-0.007
	c-0.192-0.008-0.326,0.122-0.375,0.291C138.528,94.955,139.305,94.887,140.084,94.847z"/>
<path d="M140.872,51.24c-0.269-0.014-0.538-0.029-0.806-0.039c-0.111,0.286-0.219,0.56-0.327,0.805
	c-0.699,1.585-1.401,3.172-2.1,4.757c-1.448,3.28-2.938,6.551-4.216,9.903c-0.047,0.125,0.036,0.235,0.14,0.286
	c0.013,0.039,0.035,0.082,0.079,0.114c0.004,0.004,0.007,0.004,0.011,0.008l0.253-0.33c1.441-2.859,2.716-5.802,4.022-8.724
	c0.706-1.581,1.404-3.167,2.107-4.753C140.325,52.614,140.575,51.902,140.872,51.24z"/>
<path d="M166.549,91.474c0.008-0.096-0.077-0.153-0.158-0.148c0.023-0.16-0.062-0.325-0.27-0.314
	c-1.911,0.069-3.824,0.026-5.737-0.021c-0.04-0.047-0.092-0.089-0.153-0.106c1.222-8.496,1.988-17.05,2.242-25.628
	c0.128-4.269,0.137-8.541,0.011-12.81c-0.049-1.573,0.379-5.27-1.96-5.476c-0.059-0.057-0.137-0.094-0.219-0.09
	c-0.036-0.147-0.144-0.278-0.331-0.309c-1.855-0.328-3.719-0.621-5.578-0.926c-1.56-0.257-3.227-0.733-4.81-0.715
	c-2.267,0.025-4.627,1.61-6.615,2.905c3.764,0.334,7.512,1.008,11.202,1.698c0.33,0.062,0.608,0.28,0.819,0.561
	c0.751,0.313,1.24,0.869,1.621,2.068c0.256,0.804,0.229,1.753,0.272,2.586c0.082,1.589,0.024,3.184-0.024,4.772
	c-0.209,6.721-0.408,13.443-0.606,20.165c-0.161,5.422-0.165,10.895-0.702,16.305c0.399,0.029,0.797,0.055,1.194,0.074
	c0.375,0.019,0.72,0.162,1.002,0.383c1.22,0.088,2.434,0.193,3.65,0.378c-0.012,2.784-0.077,5.563-0.224,8.341
	c-0.051,0.963,0.145,1.65-0.639,2.236c-0.634,0.477-1.267,0.308-2.009,0.287c-1.48-0.046-2.964-0.093-4.446-0.139
	c-5.532-0.172-11.067-0.341-16.599-0.505c0.044-1.044,0.1-2.088,0.165-3.131c-0.283-0.014-0.567-0.029-0.85-0.045
	c-0.091,1.195-0.166,2.39-0.222,3.588c-0.01,0.237,0.187,0.452,0.424,0.46c7.038,0.255,14.075,0.501,21.114,0.74
	c1.209,0.042,2.804,0.369,3.552-0.529c0.02-0.007,0.039-0.013,0.059-0.028c1.397-0.999,2.824-2.012,4.12-3.15
	c0.176,0.008,0.361-0.095,0.343-0.299C165.854,100.173,166.153,95.931,166.549,91.474z M156.639,49.877
	c-0.175-0.192-0.379-0.354-0.627-0.472c-0.972-0.468-2.312-0.481-3.359-0.624c-1.557-0.207-3.121-0.375-4.69-0.506
	c-1.072-0.09-2.614-0.41-4.01-0.369c2.205-1.178,4.473-2.483,6.923-2.107c2.979,0.458,5.938,1.037,8.913,1.513
	c-0.893,0.949-1.892,1.74-3.036,2.382C156.671,49.741,156.638,49.808,156.639,49.877z M157.084,81.585
	c0.183-6.22,0.367-12.445,0.547-18.666c0.088-2.93,0.272-5.888,0.049-8.813c-0.087-1.156-0.089-2.919-0.853-3.995
	c0.045,0.009,0.088,0.007,0.138-0.013c1.378-0.586,2.617-1.493,3.598-2.625c0.033-0.04,0.054-0.081,0.067-0.124
	c1.584,0.909,1.096,4.4,1.13,5.815c0.039,1.882,0.063,3.768,0.06,5.653c-0.002,3.517-0.086,7.034-0.257,10.546
	c-0.345,7.278-1.049,14.533-2.081,21.743c-0.011,0.076,0.005,0.134,0.03,0.186c-1.104,0.959-2.166,2.187-2.959,3.424
	C156.903,90.353,156.956,85.958,157.084,81.585z M161.94,95.825c-0.024,0.026-0.037,0.056-0.046,0.086
	c-1.728-0.268-3.481-0.465-5.23-0.42c0.6-0.66,1.148-1.367,1.748-2.03c0.632-0.696,1.328-1.336,1.955-2.032
	c0.012-0.014,0.021-0.03,0.029-0.044c1.801,0.253,3.607,0.298,5.422,0.229C164.501,92.996,163.199,94.387,161.94,95.825z
	 M162.034,107.287c0.21-1.125,0.321-2.304,0.374-3.508c0.109-2.462-0.023-5.016-0.027-7.352c-0.001-0.149-0.057-0.271-0.145-0.355
	c1.292-1.218,2.539-2.474,3.778-3.741c-0.969,3.876-1.014,8.118-0.514,12.055C164.291,105.272,163.151,106.279,162.034,107.287z"/>
<g>
	<path d="M123.691,88.872c0.095,0,0.202,0,0.321,0c0.308,0,0.832-0.024,1.57-0.071h0.035c0.833-0.047,1.403-0.072,1.712-0.072
		c0.284,0,0.499,0.012,0.641,0.036c0.12,0.024,0.213,0.06,0.286,0.107c0.213,0.12,0.308,0.298,0.284,0.535
		c-0.024,0.334-0.035,0.713-0.035,1.142c0.023,0.451,0.059,1.022,0.107,1.711c0,0.071,0.011,0.155,0.035,0.249
		c0,0.096,0,0.167,0,0.213c0.024,0.167,0.036,0.298,0.036,0.393c0.024,0.284,0.047,0.511,0.071,0.677
		c0,0.238-0.012,0.428-0.035,0.57c-0.025,0.12-0.072,0.213-0.143,0.286c-0.096,0.142-0.213,0.237-0.357,0.284
		c-0.071,0-0.131,0-0.178,0c-0.025,0.025-0.06,0.036-0.107,0.036h-0.035c-0.12,0.024-0.213,0.048-0.286,0.071
		c-0.19,0.025-0.344,0.048-0.464,0.072c-1.878,0.333-3.15,0.488-3.816,0.464c0,0.237-0.012,0.713-0.036,1.427
		c0,0.524,0,0.903,0,1.141c0.546-0.047,0.844-0.071,0.892-0.071c1.45-0.12,2.686-0.167,3.71-0.143c0.261,0,0.511,0.012,0.748,0.035
		c0.12,0,0.214,0.042,0.286,0.125c0.071,0.083,0.107,0.185,0.107,0.303c0,0.071-0.024,0.131-0.071,0.178
		c0,0.286,0.035,0.797,0.107,1.534c0.047,0.381,0.082,0.666,0.107,0.857c0.071,0.95,0.023,1.723-0.143,2.318
		c-0.048,0.238-0.226,0.416-0.535,0.535c-0.167,0.071-0.405,0.131-0.713,0.178c-0.452,0.071-1.047,0.096-1.783,0.071
		c-0.547,0-1.13-0.023-1.747-0.071c-0.143,0-0.273,0-0.393,0v0.036c0,0.048,0.006,0.137,0.018,0.267
		c0.011,0.131,0.018,0.268,0.018,0.41l0.036,0.178c0,0.238,0.011,0.44,0.035,0.606c0.072,1.308,0.047,2.092-0.071,2.353
		c-0.096,0.143-0.226,0.226-0.393,0.249h-0.036c-0.024,0-0.06,0-0.107,0c-0.12,0-0.237,0-0.357,0
		c-0.428,0.024-0.856,0.047-1.283,0.071c-0.95,0.024-1.818,0.047-2.603,0.072c-1.213,0-2.188-0.012-2.925-0.036
		c-0.12-0.024-0.22-0.083-0.303-0.178c-0.083-0.095-0.125-0.202-0.125-0.322v-0.035v-0.036c0.024-0.071,0.036-0.131,0.036-0.178
		c0-0.214,0.011-0.429,0.036-0.642c0.047-0.713,0.095-1.378,0.142-1.997c0-0.047,0-0.095,0-0.143
		c0.095-1.165,0.155-1.997,0.178-2.495c-0.096,0-0.191,0-0.286,0c-0.405,0-0.95,0.012-1.64,0.035c-0.309,0-0.641,0.012-0.998,0.036
		l-0.464,0.036c-0.309,0-0.547,0.012-0.713,0.035c0,0.072,0,0.167,0,0.286c-0.025,0.262-0.025,0.857,0,1.783
		c0.023,0.998,0.035,1.783,0.035,2.353c0,0.142-0.012,0.284-0.035,0.428c0,0.143-0.048,0.249-0.143,0.321
		c0,0.025-0.024,0.048-0.071,0.072l-0.036,0.035c-0.096,0.072-0.191,0.107-0.286,0.107c-0.451,0.048-1.616-0.011-3.494-0.178
		c-0.024,0-0.066,0-0.125,0c-0.06,0-0.101,0-0.125,0c-1.141-0.095-1.878-0.155-2.211-0.178c-0.309-0.023-0.559-0.035-0.749-0.035
		c-0.095,0-0.167,0-0.213,0c-0.024,0-0.047,0-0.071,0c-0.262,0.071-0.476,0-0.642-0.213c-0.095-0.12-0.155-0.286-0.178-0.5
		c-0.025-0.261-0.012-0.63,0.036-1.106c0.119-0.736,0.321-1.629,0.606-2.675c-0.095,0-0.202-0.011-0.321-0.036
		c-0.428-0.047-1.058-0.059-1.89-0.035c-0.284,0-0.641,0.012-1.07,0.035h-0.284c-0.167,0.025-0.273,0.036-0.321,0.036
		c-0.214,0-0.393,0-0.535,0c-0.167,0-0.298,0-0.393,0c-0.047,0-0.095-0.006-0.142-0.018c-0.048-0.011-0.083-0.018-0.107-0.018
		c-0.12-0.047-0.202-0.119-0.249-0.213c-0.072-0.119-0.12-0.464-0.143-1.034c-0.024-0.546-0.036-1.106-0.036-1.676
		c0.024-0.689,0.072-1.236,0.143-1.64c0.047-0.284,0.107-0.499,0.178-0.641c0.047-0.12,0.107-0.213,0.178-0.286
		c0.119-0.119,0.261-0.178,0.428-0.178c0.19,0,0.464,0.024,0.82,0.071c0.12,0.024,0.286,0.06,0.5,0.107
		c0.024,0,0.059,0.012,0.107,0.036c0.072,0,0.12,0.012,0.143,0.036c0.095,0.024,0.178,0.035,0.249,0.035
		c0.332,0.072,0.606,0.12,0.82,0.143c0.689,0.12,1.225,0.167,1.605,0.143c0.357-0.024,0.57-0.107,0.642-0.249
		c0.284-0.594,0.439-1.129,0.464-1.605l-2.389-0.393c-0.12-0.024-0.237-0.036-0.357-0.036c-0.737-0.119-1.296-0.213-1.676-0.284
		c-0.237-0.047-0.428-0.083-0.57-0.107c-0.071-0.024-0.131-0.047-0.178-0.072c-0.048,0-0.083-0.011-0.107-0.035
		c-0.072-0.047-0.131-0.095-0.178-0.143c-0.12-0.12-0.178-0.333-0.178-0.642c0-0.19,0.011-0.439,0.035-0.748
		c0.024-0.5,0.095-1.165,0.214-1.997c0.047-0.286,0.082-0.546,0.107-0.785c0.071-0.475,0.155-1.01,0.249-1.605
		c0.023-0.166,0.047-0.333,0.071-0.5c0-0.047,0.011-0.082,0.036-0.107v-0.036v-0.036c0.023-0.12,0.089-0.22,0.196-0.303
		c0.107-0.082,0.22-0.1,0.339-0.054h0.036h0.036c0.047,0,0.095,0.012,0.142,0.036c0.19,0.024,0.38,0.06,0.57,0.107
		c0.618,0.142,1.201,0.262,1.748,0.357c0.095,0.024,0.202,0.047,0.321,0.071c0.784,0.167,1.414,0.286,1.89,0.357
		c0.213,0.024,0.379,0.048,0.499,0.071c0.12-0.451,0.237-1.378,0.357-2.781c0-0.071,0.006-0.166,0.018-0.286
		c0.012-0.119,0.024-0.249,0.036-0.392c0.011-0.143,0.024-0.286,0.036-0.429c0.011-0.142,0.023-0.279,0.035-0.41
		c0.012-0.131,0.018-0.249,0.018-0.357c0-0.107,0-0.196,0-0.268l0.036-0.071c0.023-0.357,0.047-0.617,0.071-0.784
		c0-0.095,0.012-0.178,0.036-0.249c0-0.047,0-0.083,0-0.107c0.024-0.095,0.071-0.178,0.143-0.249
		c0.095-0.072,0.226-0.12,0.392-0.143c0.072,0,0.167,0,0.286,0c0.213,0,0.5,0.012,0.857,0.036c0.713,0.024,1.545,0.06,2.495,0.107
		c0.999,0.071,1.843,0.143,2.533,0.213c0.357,0.048,0.641,0.096,0.857,0.143c0.119,0,0.213,0.012,0.284,0.035
		c0.166,0.048,0.286,0.12,0.357,0.214s0.107,0.19,0.107,0.284c0,0.025,0,0.072,0,0.143c0,0.048-0.012,0.12-0.036,0.213
		c-0.024,0.167-0.071,0.393-0.142,0.677c-0.048,0.214-0.12,0.5-0.214,0.857c0,0.071-0.041,0.244-0.124,0.517
		c-0.083,0.273-0.125,0.434-0.125,0.481c-0.025,0.071-0.048,0.142-0.072,0.213c-0.213,0.833-0.357,1.462-0.428,1.89
		c-0.048,0.213-0.083,0.38-0.107,0.499c0.071,0.025,0.155,0.036,0.249,0.036c0.428,0,0.82,0,1.177,0c0.428,0,0.784,0,1.069,0
		c0.167,0,0.309-0.011,0.429-0.036l0.036-0.071c0.047-0.213,0.095-0.511,0.142-0.892c0.072-0.546,0.155-1.439,0.249-2.675
		c0.072-0.808,0.12-1.319,0.143-1.534c0.047-0.546,0.095-0.986,0.143-1.319c0.047-0.38,0.082-0.665,0.107-0.857
		c0.023-0.143,0.047-0.249,0.071-0.321c0.024-0.047,0.047-0.095,0.072-0.143c0.071-0.119,0.155-0.19,0.249-0.213
		c0.712-0.286,1.782-0.464,3.209-0.535c1.117-0.047,2.187-0.023,3.21,0.072c0.023,0,0.059,0.012,0.107,0.035
		c0.023,0,0.047,0,0.071,0l0.072,0.036c0.119,0.048,0.202,0.12,0.249,0.213c0.119,0.213,0.119,0.785,0,1.712
		c-0.072,0.69-0.202,1.594-0.393,2.71c-0.048,0.237-0.096,0.499-0.143,0.784c-0.12,0.737-0.262,1.521-0.428,2.353
		C123.774,88.492,123.739,88.682,123.691,88.872z M122.978,94.648c0.523,0.071,1.854-0.083,3.994-0.464
		c0.047,0,0.202-0.024,0.464-0.072l0.107-0.035c0.095,0,0.166,0,0.213,0c0-0.024,0.024-0.036,0.071-0.036c0-0.047,0-0.12,0-0.213
		c-0.024-0.19-0.071-0.678-0.142-1.463c-0.048-0.736-0.083-1.331-0.107-1.783c0-0.332,0-0.641,0-0.927c-0.072,0-0.155,0-0.249,0
		c-0.286,0-0.833,0.025-1.64,0.072c-0.025,0-0.048,0-0.072,0c-0.737,0.047-1.272,0.071-1.605,0.071c-0.238,0-0.44-0.011-0.606-0.036
		c-0.262-0.023-0.452-0.095-0.57-0.213c-0.12-0.119-0.167-0.261-0.143-0.428v-0.036c0.024,0,0.036-0.011,0.036-0.036
		c0-0.047,0.011-0.107,0.036-0.178c0.047-0.237,0.095-0.488,0.142-0.749c0.143-0.832,0.286-1.616,0.429-2.353
		c0.047-0.261,0.082-0.523,0.107-0.784c0.19-1.093,0.321-1.973,0.392-2.639c0.047-0.38,0.083-0.69,0.107-0.928
		c0-0.023,0-0.047,0-0.071c-0.951-0.071-1.903-0.083-2.853-0.036c-1.189,0.048-2.092,0.178-2.71,0.393c0,0.024,0,0.048,0,0.071
		c-0.048,0.167-0.083,0.429-0.107,0.785c-0.048,0.333-0.096,0.773-0.143,1.319l-0.143,1.499c-0.095,1.26-0.19,2.175-0.284,2.746
		c-0.048,0.405-0.096,0.726-0.143,0.963c-0.048,0.143-0.083,0.249-0.107,0.321c-0.096,0.191-0.213,0.322-0.357,0.393
		c-0.262,0.096-0.915,0.131-1.961,0.107c-0.381,0-0.785,0-1.213,0c-0.167-0.023-0.333-0.036-0.5-0.036c-0.024,0-0.048,0-0.071,0
		c-0.025,0-0.048,0-0.072,0h-0.035c-0.167,0-0.286-0.071-0.357-0.213c-0.12-0.143-0.155-0.357-0.107-0.641
		c0-0.19,0.035-0.44,0.107-0.749c0.095-0.428,0.249-1.07,0.464-1.925c0.023-0.072,0.047-0.155,0.071-0.249
		c0-0.047,0.036-0.208,0.107-0.481c0.072-0.273,0.12-0.433,0.143-0.481c0.095-0.38,0.166-0.665,0.213-0.857
		c0.047-0.19,0.083-0.344,0.107-0.464c-0.19-0.024-0.44-0.059-0.748-0.107c-0.666-0.071-1.499-0.143-2.496-0.213
		c-0.927-0.047-1.747-0.083-2.46-0.107c-0.333-0.024-0.595-0.036-0.784-0.036c0,0.143-0.012,0.369-0.036,0.677l-0.036,0.072
		c0,0.071,0,0.16,0,0.267s-0.006,0.227-0.018,0.357c-0.012,0.131-0.024,0.268-0.035,0.41c-0.012,0.143-0.025,0.284-0.036,0.428
		c-0.012,0.143-0.024,0.273-0.036,0.393s-0.018,0.213-0.018,0.284c-0.167,1.926-0.344,3.066-0.535,3.423
		c-0.071,0.12-0.191,0.191-0.357,0.213c-0.024,0-0.06,0-0.107,0c-0.071,0-0.155,0-0.249,0c-0.167-0.023-0.393-0.059-0.677-0.107
		c-0.476-0.071-1.118-0.19-1.926-0.357c-0.12,0-0.237-0.011-0.357-0.035c-0.524-0.12-1.105-0.237-1.747-0.357
		c-0.096-0.024-0.19-0.047-0.284-0.072c0,0.048-0.012,0.107-0.036,0.178c-0.071,0.57-0.143,1.105-0.213,1.605
		c-0.048,0.238-0.083,0.5-0.107,0.784c-0.12,0.809-0.191,1.451-0.213,1.926c-0.025,0.286-0.036,0.511-0.036,0.677
		c0.119,0.025,0.273,0.048,0.464,0.072c0.379,0.071,0.927,0.167,1.64,0.284c0.119,0.025,0.237,0.048,0.357,0.072
		c1.331,0.19,2.187,0.321,2.568,0.392h0.036c0.119-0.023,0.232,0,0.339,0.072c0.107,0.071,0.172,0.167,0.196,0.284
		c0.12,0.691-0.06,1.534-0.535,2.533c-0.213,0.476-0.678,0.737-1.39,0.784c-0.452,0.024-1.059-0.024-1.819-0.143
		c-0.238-0.047-0.524-0.095-0.857-0.143c-0.071-0.023-0.155-0.047-0.249-0.071l-0.142-0.036c-0.048,0-0.096,0-0.143,0
		c-0.191-0.047-0.345-0.082-0.464-0.107c-0.191-0.047-0.345-0.071-0.464-0.071c-0.025,0.071-0.048,0.178-0.072,0.321
		c-0.047,0.38-0.083,0.892-0.107,1.534c0,0.524,0.012,1.059,0.036,1.605c0,0.143,0.011,0.274,0.036,0.393c0.023,0,0.047,0,0.071,0
		c0.095,0,0.261,0,0.5,0c0.047,0,0.166-0.011,0.357-0.036h0.249c0.428-0.023,0.796-0.035,1.105-0.035
		c0.857-0.024,1.521-0.012,1.997,0.035c0.308,0.048,0.559,0.107,0.749,0.178c0.143,0.071,0.249,0.167,0.321,0.284
		c0.12,0.167,0.143,0.345,0.072,0.535c-0.286,1.07-0.488,1.997-0.606,2.781c-0.048,0.309-0.06,0.559-0.036,0.749
		c0.19,0,0.523,0.012,0.998,0.035c0.357,0.025,1.094,0.083,2.212,0.178c0.095,0,0.178,0,0.249,0c1.57,0.143,2.591,0.213,3.066,0.213
		c0-0.024,0-0.059,0-0.107c0-0.546-0.012-1.319-0.035-2.318c-0.025-0.927-0.025-1.534,0-1.819c0-0.261,0.023-0.475,0.071-0.641
		c0.024-0.12,0.059-0.213,0.107-0.286c0.12-0.166,0.273-0.249,0.464-0.249c0.024,0,0.136-0.006,0.339-0.018
		c0.202-0.011,0.422-0.023,0.66-0.035c0.237-0.012,0.368-0.018,0.392-0.018c0.38-0.024,0.726-0.036,1.035-0.036
		c0.712-0.023,1.283-0.036,1.711-0.036c0.261,0,0.464,0.013,0.606,0.036c0.119,0.025,0.213,0.054,0.284,0.089
		c0.072,0.036,0.131,0.077,0.178,0.125c0.095,0.12,0.143,0.249,0.143,0.393c-0.025,0.357-0.096,1.307-0.214,2.853
		c0,0.047,0,0.095,0,0.142c-0.047,0.595-0.095,1.261-0.142,1.997c-0.025,0.12-0.036,0.249-0.036,0.393
		c0.641,0.024,1.438,0.036,2.389,0.036c0.784-0.024,1.64-0.047,2.568-0.072c0.428-0.023,0.856-0.047,1.283-0.071
		c0.023,0,0.059,0,0.107,0c0-0.095,0-0.202,0-0.321c0-0.308-0.012-0.737-0.036-1.283c0-0.19-0.012-0.393-0.036-0.606
		c0-0.024-0.006-0.101-0.018-0.232c-0.012-0.131-0.025-0.261-0.036-0.393c-0.012-0.131-0.018-0.22-0.018-0.268
		c-0.024-0.284-0.036-0.475-0.036-0.57c0-0.142,0.054-0.261,0.161-0.357c0.107-0.095,0.22-0.13,0.339-0.107h0.036h0.035
		c0.072,0,0.131,0,0.178,0c0.213,0.025,0.44,0.036,0.677,0.036c0.594,0.048,1.153,0.071,1.676,0.071
		c0.713,0.025,1.272,0,1.676-0.071c0.213-0.024,0.368-0.059,0.464-0.107h0.035c0.095-0.475,0.12-1.117,0.072-1.926
		c-0.025-0.19-0.048-0.464-0.072-0.82c-0.095-0.689-0.142-1.177-0.142-1.462c-0.048,0-0.107,0-0.178,0
		c-0.975-0.024-2.175,0.024-3.601,0.143c-0.048,0.024-0.131,0.035-0.249,0.035c-0.12,0-0.256,0.012-0.41,0.036
		s-0.279,0.036-0.374,0.036c-0.072,0.167-0.191,0.249-0.357,0.249c-0.12,0-0.221-0.041-0.303-0.124
		c-0.082-0.082-0.125-0.185-0.125-0.303s0.012-0.725,0.036-1.818c0-0.95,0-1.521,0-1.712c-0.048-0.071-0.06-0.155-0.036-0.249
		c0.024-0.142,0.083-0.249,0.178-0.321C122.716,94.648,122.836,94.625,122.978,94.648z M112.565,93.222
		c0.618-0.095,1.463-0.143,2.533-0.143c0.617,0,1.129,0.024,1.534,0.071c0.57,0.072,0.95,0.202,1.141,0.393
		c0.095,0.096,0.155,0.238,0.178,0.428c0.023,0.12,0.035,0.249,0.035,0.393c-0.024,0.286-0.06,0.618-0.107,0.999
		c-0.096,0.974-0.237,1.569-0.428,1.782c-0.072,0.072-0.167,0.12-0.286,0.143c-0.047,0.025-0.12,0.048-0.213,0.072
		c-0.143,0.047-0.333,0.083-0.57,0.107c-0.452,0.071-0.986,0.12-1.605,0.142c-0.642,0.048-1.189,0.072-1.64,0.072
		c-0.595,0-0.975-0.047-1.142-0.143c-0.167-0.095-0.273-0.261-0.321-0.5c-0.048-0.142-0.083-0.308-0.107-0.499
		c-0.024-0.38-0.012-0.808,0.036-1.283c0.071-0.5,0.155-0.903,0.249-1.213c0.071-0.213,0.155-0.38,0.249-0.5
		c0.072-0.071,0.131-0.131,0.178-0.178C112.351,93.293,112.446,93.246,112.565,93.222z M117.024,94.15h-0.036
		c-0.12-0.024-0.273-0.047-0.464-0.071c-0.357-0.047-0.82-0.072-1.39-0.072c-0.88,0-1.64,0.036-2.283,0.107
		c-0.048,0.048-0.083,0.12-0.107,0.213c-0.096,0.262-0.167,0.606-0.213,1.035c-0.048,0.404-0.06,0.773-0.036,1.105
		c0.024,0.12,0.036,0.213,0.036,0.286c0.023,0,0.047,0,0.071,0c0.143,0,0.321,0,0.535,0c0.428,0,0.95-0.024,1.569-0.072
		c0.594-0.023,1.106-0.071,1.534-0.142c0.213-0.024,0.38-0.047,0.5-0.072h0.036c0.023-0.071,0.047-0.166,0.071-0.284
		c0.047-0.262,0.089-0.571,0.125-0.927c0.036-0.357,0.065-0.653,0.089-0.892C117.059,94.292,117.046,94.221,117.024,94.15z"/>
</g>
<g>
	<path d="M23.962,123.17c1.298,1.178,2.181,2.689,2.65,4.531c0.468,1.843,0.454,3.686-0.045,5.528
		c-0.498,1.843-1.442,3.323-2.831,4.44c-0.967,0.785-2.061,1.337-3.285,1.654s-2.401,0.37-3.534,0.159
		c-1.133-0.211-2.213-0.627-3.24-1.246c-1.027-0.618-1.827-1.456-2.401-2.514c-0.574-1.057-0.906-2.28-0.997-3.669
		c-0.091-1.389,0.227-2.96,0.951-4.713c0.03-0.06,0.06-0.136,0.091-0.227c0.03-0.091,0.06-0.166,0.091-0.226
		c0.031-0.06,0.06-0.136,0.091-0.227c0.03-0.091,0.067-0.166,0.113-0.227c0.045-0.06,0.091-0.128,0.136-0.204
		c0.045-0.075,0.098-0.129,0.159-0.159c0.06-0.03,0.121-0.06,0.18-0.091c0.06-0.03,0.136-0.038,0.227-0.023
		c0.091,0.015,0.181,0.054,0.272,0.113c0.181,0.122,0.272,0.302,0.272,0.544s-0.054,0.469-0.159,0.679
		c-0.106,0.211-0.242,0.452-0.407,0.725c-0.167,0.272-0.265,0.452-0.295,0.544c-1.208,2.96-0.997,5.18,0.634,6.661
		c1.208,1.058,2.688,1.375,4.44,0.951c1.842-0.483,3.081-1.601,3.716-3.353c0.452-1.269,0.498-2.734,0.136-4.395
		c-0.152-0.634-0.4-1.208-0.747-1.721c-0.347-0.513-0.785-0.967-1.314-1.36c-0.529-0.393-1.035-0.726-1.517-0.997
		c-0.483-0.272-1.065-0.581-1.744-0.93c-0.679-0.346-1.232-0.641-1.654-0.883c-2.749-1.782-4.063-4.38-3.942-7.793
		c0.06-1.571,0.438-2.899,1.133-3.988c0.694-1.087,1.555-1.857,2.583-2.311c1.027-0.452,2.13-0.664,3.308-0.634
		s2.28,0.294,3.308,0.793c1.027,0.499,1.903,1.269,2.627,2.311c0.726,1.042,1.133,2.258,1.223,3.648c0,0.03,0,0.061,0,0.091
		c0.03,0.696-0.136,1.043-0.498,1.043c-0.242-0.03-0.408-0.173-0.499-0.431c-0.091-0.257-0.143-0.567-0.159-0.93
		c-0.015-0.363-0.038-0.603-0.068-0.725c-0.452-1.269-1.389-2.069-2.809-2.401c-0.967-0.242-1.813-0.152-2.538,0.271
		c-0.726,0.424-1.239,1.005-1.541,1.744c-0.302,0.74-0.431,1.572-0.385,2.492c0.045,0.923,0.309,1.737,0.793,2.447
		c0.483,0.71,1.185,1.336,2.107,1.88c0.921,0.544,1.903,1.073,2.945,1.586C22.58,122.143,23.387,122.657,23.962,123.17z
		 M15.262,109.486c0.152-0.03,0.211-0.121,0.181-0.272c-0.03-0.15-0.122-0.211-0.272-0.18c-1.208,0.242-2.19,1.194-2.945,2.854
		c-0.513,1.118-0.778,2.287-0.793,3.511c-0.015,1.223,0.219,2.288,0.703,3.194c0.03,0.091,0.091,0.136,0.18,0.136
		c0.06,0,0.105-0.015,0.136-0.045c0.12-0.06,0.15-0.15,0.091-0.272c-0.513-1.057-0.74-2.137-0.679-3.24
		c0.06-1.102,0.317-2.137,0.77-3.104C13.329,110.559,14.205,109.698,15.262,109.486z"/>
	<path d="M48.247,133.953c0.06,0.302,0.159,0.77,0.295,1.404s0.233,1.171,0.294,1.609c0.06,0.438,0.083,0.921,0.068,1.449
		c-0.015,0.529-0.159,0.981-0.431,1.36c-0.272,0.378-0.665,0.686-1.178,0.93c-0.452,0.211-0.876,0.287-1.269,0.226
		c-0.393-0.06-0.733-0.152-1.019-0.271c-0.288-0.122-0.544-0.34-0.771-0.658c-0.226-0.317-0.424-0.627-0.59-0.929
		c-0.166-0.302-0.31-0.672-0.43-1.11c-0.122-0.438-0.22-0.824-0.295-1.155c-0.075-0.332-0.143-0.695-0.204-1.087
		c-0.122-0.664-0.227-1.343-0.317-2.039c-1.269,4.47-3.278,6.463-6.027,5.98c-0.967-0.18-1.798-0.664-2.492-1.449
		c-0.695-0.785-1.215-1.782-1.563-2.99c-0.347-1.208-0.604-2.492-0.77-3.851c-0.167-1.36-0.235-2.816-0.204-4.373
		c0.03-1.555,0.098-2.945,0.204-4.168c0.105-1.222,0.233-2.424,0.384-3.601c0.03-0.121,0.06-0.302,0.091-0.544
		c0.091-0.664,0.166-1.193,0.226-1.586c0.06-0.393,0.189-0.899,0.385-1.517c0.196-0.619,0.423-1.087,0.679-1.405
		c0.257-0.317,0.627-0.581,1.11-0.793c0.483-0.211,1.027-0.257,1.631-0.136c0.363,0.091,0.672,0.227,0.93,0.407
		c0.257,0.181,0.46,0.348,0.611,0.499c0.15,0.152,0.272,0.378,0.363,0.679c0.091,0.302,0.15,0.537,0.181,0.703
		c0.03,0.166,0.03,0.445,0,0.838c-0.031,0.393-0.054,0.665-0.068,0.815c-0.015,0.152-0.061,0.446-0.136,0.884
		c-0.076,0.438-0.113,0.702-0.113,0.793c-0.181,1.028-0.325,2.009-0.431,2.946c-0.106,0.937-0.189,1.775-0.249,2.514
		c-0.061,0.74-0.091,1.488-0.091,2.243s0,1.389,0,1.903c0,0.514,0.023,1.065,0.068,1.654c0.045,0.59,0.091,1.05,0.136,1.382
		c0.045,0.333,0.112,0.717,0.204,1.155c0.091,0.438,0.15,0.747,0.18,0.929c0.03,0.181,0.091,0.438,0.181,0.771
		c0.091,0.333,0.136,0.529,0.136,0.59c0.301,1.148,0.71,1.721,1.223,1.721c0.15,0,0.309-0.037,0.476-0.113
		c0.166-0.074,0.309-0.173,0.431-0.294c0.121-0.121,0.241-0.287,0.363-0.499c0.121-0.211,0.219-0.4,0.294-0.566
		c0.075-0.166,0.159-0.377,0.249-0.634c0.091-0.257,0.159-0.452,0.204-0.59c0.045-0.136,0.098-0.325,0.159-0.566
		c0.06-0.242,0.105-0.393,0.136-0.454c0.211-0.725,0.408-1.555,0.59-2.491c-0.302-3.474-0.407-7.431-0.317-11.871
		c0-0.573,0.007-0.99,0.023-1.246c0.014-0.257,0.053-0.657,0.113-1.201c0.06-0.544,0.159-0.951,0.294-1.223
		c0.136-0.272,0.309-0.566,0.521-0.883s0.513-0.544,0.906-0.679c0.392-0.136,0.83-0.204,1.314-0.204
		c0.664,0.091,1.17,0.257,1.517,0.498c0.347,0.242,0.604,0.627,0.771,1.155c0.165,0.529,0.264,1.133,0.294,1.813
		c0.03,0.679,0.037,1.602,0.023,2.764c-0.015,1.164-0.023,2.386-0.023,3.669c0,1.284,0.06,2.908,0.181,4.871
		C47.824,129.891,48.006,131.9,48.247,133.953z M37.056,117.597c0.363-1.42,0.257-2.447-0.317-3.081
		c-0.424-0.483-1.058-0.649-1.903-0.499c-0.152,0.031-0.211,0.113-0.18,0.249c0.03,0.136,0.121,0.204,0.272,0.204
		c0.664-0.121,1.147-0.015,1.449,0.317c0.483,0.543,0.573,1.449,0.272,2.718c-0.061,0.122-0.015,0.211,0.136,0.272h0.045
		C36.95,117.778,37.025,117.717,37.056,117.597z"/>
	<path d="M69.633,118.277c0.272,1.54,0.309,3.096,0.113,4.666c-0.197,1.571-0.582,2.953-1.155,4.147
		c-0.574,1.194-1.3,2.19-2.175,2.99c-0.876,0.801-1.866,1.223-2.967,1.269c-1.103,0.045-2.273-0.294-3.511-1.019
		c-0.091-0.06-0.167-0.105-0.227-0.136c0.121,1.178,0.272,2.341,0.452,3.489c0.03,0.302,0.152,0.868,0.363,1.7
		c0.211,0.831,0.346,1.473,0.407,1.925c0.06,0.452-0.015,0.974-0.227,1.563c-0.211,0.59-0.604,1.05-1.177,1.382
		c-0.454,0.211-0.877,0.325-1.269,0.34c-0.394,0.015-0.733-0.045-1.019-0.181c-0.288-0.136-0.56-0.347-0.816-0.634
		c-0.257-0.287-0.476-0.59-0.657-0.906c-0.181-0.317-0.348-0.679-0.499-1.087c-0.152-0.407-0.272-0.785-0.363-1.133
		s-0.18-0.717-0.272-1.11c-0.967-5.044-1.269-10.829-0.906-17.353c0.03-0.573,0.053-0.943,0.068-1.11
		c0.015-0.165,0.053-0.513,0.113-1.042c0.06-0.528,0.136-0.906,0.227-1.133s0.219-0.528,0.384-0.906
		c0.166-0.377,0.37-0.641,0.612-0.793c0.241-0.15,0.536-0.287,0.883-0.407c0.346-0.121,0.747-0.166,1.201-0.136
		c0.845,0.152,1.442,0.454,1.789,0.906c0.347,0.452,0.536,1.11,0.567,1.971c0.03,0.861,0.014,1.956-0.045,3.284
		c-0.031,0.333-0.046,0.59-0.046,0.771c0.483-1.57,1.049-2.87,1.7-3.896c0.649-1.027,1.314-1.744,1.993-2.153
		c0.68-0.407,1.367-0.589,2.061-0.543c0.695,0.045,1.337,0.294,1.926,0.747c0.59,0.452,1.102,1.072,1.541,1.857
		C69.142,116.389,69.451,117.28,69.633,118.277z M58.578,116.827c0.12-1.449-0.153-2.461-0.816-3.036
		c-0.513-0.393-1.164-0.454-1.948-0.181c-0.152,0.061-0.204,0.159-0.159,0.295c0.045,0.136,0.143,0.189,0.294,0.158
		c0.634-0.241,1.148-0.211,1.541,0.091c0.544,0.452,0.754,1.33,0.634,2.627c-0.03,0.152,0.03,0.227,0.181,0.227h0.045
		C58.472,117.008,58.547,116.947,58.578,116.827z M63.109,127.384c0.695-0.845,1.208-1.789,1.54-2.831
		c0.332-1.043,0.491-2.04,0.476-2.991c-0.014-0.951-0.106-1.835-0.271-2.65c-0.167-0.816-0.394-1.473-0.679-1.971
		c-0.288-0.499-0.537-0.763-0.747-0.793c-0.726-0.091-1.45,0.59-2.175,2.039c-0.967,1.903-1.586,4.215-1.857,6.933
		c0.03,0.846,0.075,1.752,0.136,2.719c0.513,0.452,1.125,0.619,1.835,0.498C62.073,128.214,62.655,127.897,63.109,127.384z
		 M67.186,127.927c0.906-1.36,1.487-2.983,1.744-4.871c0.257-1.887,0.152-3.648-0.317-5.278c-0.469-1.631-1.216-2.81-2.243-3.534
		c-0.122-0.091-0.227-0.075-0.317,0.045c-0.091,0.122-0.076,0.227,0.045,0.317c0.967,0.665,1.662,1.782,2.084,3.353
		c0.423,1.571,0.513,3.262,0.271,5.074c-0.242,1.812-0.8,3.368-1.676,4.666c-0.061,0.122-0.03,0.227,0.091,0.317
		c0.03,0.03,0.06,0.045,0.091,0.045C67.05,128.063,67.126,128.017,67.186,127.927z"/>
	<path d="M90.519,118.277c0.272,1.54,0.309,3.096,0.113,4.666c-0.197,1.571-0.582,2.953-1.155,4.147
		c-0.574,1.194-1.3,2.19-2.175,2.99c-0.876,0.801-1.866,1.223-2.967,1.269c-1.103,0.045-2.273-0.294-3.511-1.019
		c-0.091-0.06-0.167-0.105-0.227-0.136c0.121,1.178,0.272,2.341,0.452,3.489c0.03,0.302,0.152,0.868,0.363,1.7
		c0.211,0.831,0.346,1.473,0.407,1.925c0.06,0.452-0.015,0.974-0.227,1.563c-0.211,0.59-0.604,1.05-1.177,1.382
		c-0.454,0.211-0.877,0.325-1.269,0.34c-0.394,0.015-0.734-0.045-1.019-0.181c-0.288-0.136-0.56-0.347-0.816-0.634
		s-0.476-0.59-0.657-0.906c-0.181-0.317-0.348-0.679-0.499-1.087c-0.152-0.407-0.272-0.785-0.363-1.133
		c-0.091-0.347-0.18-0.717-0.272-1.11c-0.967-5.044-1.269-10.829-0.906-17.353c0.03-0.573,0.053-0.943,0.068-1.11
		c0.015-0.165,0.053-0.513,0.113-1.042c0.06-0.528,0.136-0.906,0.227-1.133c0.091-0.227,0.219-0.528,0.384-0.906
		c0.166-0.377,0.37-0.641,0.612-0.793c0.241-0.15,0.536-0.287,0.883-0.407c0.346-0.121,0.747-0.166,1.201-0.136
		c0.845,0.152,1.442,0.454,1.789,0.906c0.347,0.452,0.536,1.11,0.567,1.971c0.03,0.861,0.014,1.956-0.045,3.284
		c-0.031,0.333-0.046,0.59-0.046,0.771c0.483-1.57,1.049-2.87,1.7-3.896c0.649-1.027,1.314-1.744,1.993-2.153
		c0.68-0.407,1.367-0.589,2.061-0.543c0.695,0.045,1.337,0.294,1.926,0.747c0.59,0.452,1.102,1.072,1.541,1.857
		C90.028,116.389,90.338,117.28,90.519,118.277z M79.465,116.827c0.12-1.449-0.153-2.461-0.816-3.036
		c-0.513-0.393-1.164-0.454-1.948-0.181c-0.152,0.061-0.204,0.159-0.159,0.295c0.045,0.136,0.143,0.189,0.294,0.158
		c0.634-0.241,1.148-0.211,1.541,0.091c0.544,0.452,0.755,1.33,0.634,2.627c-0.03,0.152,0.03,0.227,0.181,0.227h0.045
		C79.358,117.008,79.434,116.947,79.465,116.827z M83.996,127.384c0.695-0.845,1.208-1.789,1.54-2.831
		c0.332-1.043,0.491-2.04,0.476-2.991c-0.014-0.951-0.106-1.835-0.271-2.65c-0.167-0.816-0.394-1.473-0.679-1.971
		c-0.288-0.499-0.537-0.763-0.747-0.793c-0.726-0.091-1.45,0.59-2.175,2.039c-0.967,1.903-1.586,4.215-1.857,6.933
		c0.03,0.846,0.075,1.752,0.136,2.719c0.513,0.452,1.125,0.619,1.835,0.498C82.96,128.214,83.542,127.897,83.996,127.384z
		 M88.072,127.927c0.906-1.36,1.487-2.983,1.744-4.871c0.257-1.887,0.152-3.648-0.317-5.278s-1.216-2.81-2.243-3.534
		c-0.122-0.091-0.227-0.075-0.317,0.045c-0.091,0.122-0.076,0.227,0.045,0.317c0.967,0.665,1.662,1.782,2.084,3.353
		s0.513,3.262,0.271,5.074c-0.242,1.812-0.8,3.368-1.676,4.666c-0.061,0.122-0.03,0.227,0.091,0.317
		c0.03,0.03,0.06,0.045,0.091,0.045C87.937,128.063,88.013,128.017,88.072,127.927z"/>
	<path d="M103.749,114.743c1.842,0.604,3.269,2.054,4.282,4.35c1.012,2.296,1.487,4.947,1.428,7.952
		c-0.061,3.006-0.665,5.837-1.813,8.495c-0.574,1.42-1.269,2.552-2.084,3.397c-0.816,0.845-1.654,1.36-2.515,1.541
		c-0.861,0.181-1.714,0.113-2.559-0.204c-0.846-0.317-1.631-0.936-2.356-1.857c-0.726-0.921-1.33-2.061-1.813-3.421
		c-0.605-1.782-0.997-3.708-1.178-5.777c-0.18-2.068-0.129-4.055,0.159-5.958c0.287-1.903,0.763-3.594,1.428-5.074
		c0.665-1.48,1.609-2.552,2.832-3.217C100.781,114.305,102.178,114.228,103.749,114.743z M98.357,118.593
		c0.242-1.178,0.981-2.04,2.22-2.583c1.178-0.544,2.266-0.513,3.262,0.091c0.121,0.061,0.219,0.03,0.295-0.091
		c0.074-0.121,0.053-0.227-0.068-0.317c-1.118-0.665-2.342-0.695-3.669-0.091c-0.634,0.272-1.171,0.673-1.609,1.201
		c-0.438,0.529-0.733,1.095-0.883,1.699c0,0.152,0.06,0.242,0.18,0.272h0.046C98.251,118.775,98.327,118.714,98.357,118.593z
		 M103.431,137.261c0.544,0.333,1.163,0.189,1.857-0.431c0.695-0.618,1.329-1.707,1.903-3.262c0.573-1.555,0.936-3.33,1.087-5.324
		c0.15-1.873,0.015-3.813-0.407-5.823c-0.424-2.009-1.164-3.587-2.22-4.734c-0.242-0.272-0.665-0.385-1.269-0.34
		c-0.604,0.045-1.087,0.235-1.449,0.567c-0.424,0.452-0.839,1.435-1.246,2.945s-0.665,3.368-0.77,5.573
		c-0.106,2.205,0.159,4.486,0.793,6.841c0.211,0.634,0.505,1.42,0.883,2.356C102.971,136.566,103.251,137.11,103.431,137.261z"/>
	<path d="M131.207,135.992c0.392,0.906,0.452,1.813,0.18,2.718c-0.272,0.906-0.921,1.51-1.948,1.813
		c-0.574,0.121-1.08,0.121-1.517,0c-0.438-0.122-0.801-0.378-1.087-0.77c-0.287-0.393-0.506-0.747-0.657-1.065
		c-0.152-0.317-0.325-0.785-0.521-1.405c-0.197-0.618-0.356-1.049-0.476-1.29c-0.483-1.178-1.133-2.311-1.948-3.398
		c-0.152-0.211-0.37-0.4-0.658-0.566c-0.287-0.166-0.551-0.287-0.793-0.363c-0.242-0.075-0.483-0.196-0.725-0.363
		c-0.242-0.166-0.424-0.37-0.544-0.612c0.121,1.028,0.257,2.024,0.407,2.991c0.03,0.302,0.152,0.868,0.363,1.7
		c0.211,0.831,0.346,1.473,0.407,1.925c0.06,0.452-0.015,0.974-0.227,1.563c-0.211,0.59-0.604,1.05-1.177,1.382
		c-0.544,0.211-1.019,0.332-1.428,0.363c-0.408,0.03-0.786-0.091-1.133-0.363c-0.347-0.272-0.65-0.566-0.906-0.883
		c-0.257-0.317-0.476-0.716-0.657-1.201c-0.181-0.483-0.333-0.93-0.454-1.337c-0.121-0.407-0.226-0.838-0.317-1.29
		c-0.967-5.044-1.269-10.829-0.906-17.353c0.03-0.573,0.053-0.943,0.068-1.11c0.015-0.165,0.053-0.513,0.113-1.042
		c0.06-0.528,0.136-0.906,0.227-1.133c0.091-0.227,0.219-0.528,0.384-0.906c0.166-0.377,0.37-0.641,0.612-0.793
		c0.241-0.15,0.536-0.287,0.883-0.407c0.346-0.121,0.747-0.166,1.201-0.136c0.845,0.152,1.442,0.454,1.789,0.906
		c0.347,0.452,0.536,1.11,0.567,1.971c0.03,0.861,0.014,1.956-0.045,3.284c-0.031,0.333-0.046,0.59-0.046,0.771
		c0.573-1.873,1.269-3.36,2.084-4.463c0.815-1.102,1.631-1.758,2.447-1.971c0.815-0.211,1.615-0.159,2.401,0.159
		c0.785,0.317,1.465,0.921,2.039,1.812c0.574,0.892,0.967,1.942,1.178,3.15c0.393,2.266,0.309,4.456-0.249,6.57
		c-0.56,2.115-1.458,3.761-2.696,4.939C128.986,131.114,130.239,133.183,131.207,135.992z M119.336,116.827
		c0.12-1.449-0.153-2.461-0.816-3.036c-0.513-0.393-1.164-0.454-1.948-0.181c-0.152,0.061-0.204,0.159-0.159,0.295
		c0.045,0.136,0.143,0.189,0.294,0.158c0.634-0.241,1.148-0.211,1.541,0.091c0.544,0.452,0.755,1.33,0.634,2.627
		c-0.03,0.152,0.03,0.227,0.181,0.227h0.045C119.229,117.008,119.305,116.947,119.336,116.827z M120.287,127.837
		c0.513,0.452,1.125,0.619,1.835,0.498c0.709-0.121,1.29-0.438,1.744-0.951c0.695-0.845,1.208-1.789,1.54-2.831
		c0.332-1.043,0.491-2.04,0.476-2.991c-0.015-0.951-0.106-1.835-0.271-2.65c-0.167-0.816-0.394-1.473-0.679-1.971
		c-0.288-0.499-0.537-0.763-0.747-0.793c-0.726-0.091-1.45,0.59-2.175,2.039c-0.967,1.903-1.586,4.215-1.857,6.933
		C120.181,125.994,120.226,126.9,120.287,127.837z M126.81,114.289c-0.091,0.122-0.076,0.227,0.045,0.317
		c0.725,0.483,1.298,1.262,1.721,2.334c0.423,1.073,0.665,2.236,0.726,3.489c0.06,1.253-0.054,2.538-0.34,3.851
		c-0.287,1.313-0.763,2.454-1.428,3.421c-0.061,0.122-0.03,0.227,0.091,0.317c0.03,0.03,0.06,0.045,0.091,0.045
		c0.091,0,0.166-0.045,0.226-0.136c0.906-1.36,1.487-2.983,1.744-4.871c0.257-1.887,0.152-3.648-0.317-5.278
		c-0.469-1.631-1.216-2.81-2.243-3.534C127.007,114.153,126.901,114.169,126.81,114.289z"/>
	<path d="M148.423,113.338c0.845,0.031,1.6,0.295,2.266,0.793c0.664,0.499,0.981,1.186,0.951,2.061
		c-0.122,0.877-0.59,1.375-1.405,1.496c-0.815,0.122-2.145,0.075-3.987-0.136c-0.211-0.03-0.317,0.061-0.317,0.272
		c0,0.272-0.023,1.389-0.068,3.353c-0.045,1.964-0.054,4.018-0.023,6.162c0.03,2.145,0.12,4.486,0.272,7.023
		c0.03,0.272,0.091,0.747,0.18,1.428c0.091,0.679,0.136,1.216,0.136,1.608c0,0.394-0.031,0.846-0.091,1.36
		c-0.061,0.513-0.249,0.943-0.566,1.29c-0.317,0.347-0.747,0.612-1.292,0.793c-0.725,0.181-1.36,0.166-1.903-0.045
		c-0.543-0.211-0.95-0.605-1.222-1.178c-0.272-0.573-0.476-1.133-0.612-1.676c-0.136-0.544-0.234-1.163-0.294-1.857
		c-0.394-4.772-0.499-10.436-0.317-16.991c0-0.634,0.015-1.102,0.045-1.404c0-0.211-0.106-0.317-0.317-0.317
		c-0.333,0-0.619,0.015-0.861,0.045c-0.121,0-0.506,0.045-1.155,0.136c-0.649,0.091-1.155,0.122-1.517,0.091
		c-0.394-0.03-0.717-0.219-0.974-0.567c-0.257-0.346-0.339-0.716-0.249-1.11c0.242-1.269,1.072-2.039,2.492-2.311
		c0.06-0.03,0.166-0.045,0.317-0.045l0.18-0.045c0.513-0.121,2.182-0.204,5.007-0.249
		C145.922,113.27,147.697,113.277,148.423,113.338z M150.643,116.011c0.12-0.06,0.15-0.152,0.091-0.272
		c-0.242-0.634-0.853-1.095-1.835-1.382c-0.982-0.287-1.979-0.4-2.991-0.34c-1.012,0.061-1.956,0.106-2.831,0.136
		c-0.665,0.03-1.073,0.045-1.223,0.045c-0.152,0-0.226,0.075-0.226,0.227s0.074,0.226,0.226,0.226c0.15,0,0.559-0.014,1.223-0.045
		c4.35-0.332,6.766,0.106,7.25,1.314c0.06,0.091,0.136,0.136,0.226,0.136C150.582,116.057,150.612,116.041,150.643,116.011z"/>
	<path d="M167.588,130.601c0.332,0.031,0.482,0.348,0.452,0.951c-0.122,1.36-0.385,2.568-0.793,3.624
		c-0.407,1.058-0.906,1.896-1.496,2.515c-0.589,0.619-1.239,1.087-1.948,1.404c-0.709,0.316-1.442,0.445-2.198,0.385
		c-0.756-0.06-1.496-0.287-2.22-0.679c-1.721-0.937-2.99-2.575-3.807-4.917c-0.815-2.341-1.178-4.781-1.087-7.317
		c0.091-2.538,0.498-4.908,1.223-7.114c0.634-1.993,1.479-3.518,2.537-4.576c1.057-1.057,2.091-1.601,3.105-1.631
		c1.011-0.03,1.963,0.302,2.854,0.997c0.891,0.696,1.547,1.662,1.971,2.899c0.634,2.145,0.747,4.245,0.34,6.298
		c-0.408,2.054-1.164,3.851-2.266,5.392c-1.103,1.54-2.259,2.477-3.466,2.809c0.181,1.239,0.483,2.228,0.906,2.967
		c0.423,0.74,0.899,1.186,1.428,1.337c0.528,0.152,1.049,0.129,1.564-0.068c0.513-0.196,0.966-0.59,1.36-1.178
		c0.392-0.589,0.664-1.29,0.815-2.107c0-0.06,0.007-0.226,0.023-0.498c0.015-0.272,0.037-0.499,0.068-0.679
		c0.03-0.181,0.098-0.363,0.204-0.544C167.264,130.69,167.407,130.601,167.588,130.601z M158.526,117.098
		c0.363-1.147,1.133-1.903,2.311-2.266c0.997-0.332,1.887-0.196,2.673,0.407c0.121,0.091,0.227,0.076,0.317-0.045
		c0.091-0.121,0.074-0.211-0.045-0.272c-0.906-0.725-1.934-0.906-3.081-0.544c-1.33,0.424-2.19,1.284-2.583,2.583
		c-0.03,0.152,0.015,0.242,0.136,0.271c0.03,0,0.06,0,0.091,0C158.436,117.234,158.496,117.189,158.526,117.098z M161.2,120.95
		c-0.756,3.081-1.028,5.739-0.816,7.975c0.121-0.03,0.287-0.068,0.499-0.113c0.211-0.045,0.4-0.082,0.566-0.113
		c0.166-0.03,0.332-0.074,0.498-0.136c0.166-0.06,0.31-0.136,0.431-0.227c1.36-0.845,2.349-2.379,2.967-4.599
		c0.618-2.22,0.611-4.116-0.023-5.687c-0.153-0.363-0.363-0.695-0.634-0.997c-0.272-0.301-0.59-0.513-0.951-0.634
		c-0.363-0.121-0.71,0-1.043,0.363C162.242,117.234,161.743,118.624,161.2,120.95z"/>
	<path d="M189.653,135.992c0.392,0.906,0.452,1.813,0.18,2.718c-0.272,0.906-0.921,1.51-1.948,1.813
		c-0.574,0.121-1.08,0.121-1.517,0c-0.438-0.122-0.801-0.378-1.087-0.77c-0.287-0.393-0.506-0.747-0.657-1.065
		c-0.152-0.317-0.325-0.785-0.521-1.405c-0.197-0.618-0.356-1.049-0.476-1.29c-0.483-1.178-1.133-2.311-1.948-3.398
		c-0.152-0.211-0.37-0.4-0.658-0.566c-0.287-0.166-0.551-0.287-0.793-0.363c-0.242-0.075-0.483-0.196-0.725-0.363
		c-0.242-0.166-0.424-0.37-0.544-0.612c0.121,1.028,0.257,2.024,0.407,2.991c0.03,0.302,0.152,0.868,0.363,1.7
		c0.211,0.831,0.346,1.473,0.407,1.925c0.06,0.452-0.015,0.974-0.227,1.563c-0.211,0.59-0.604,1.05-1.177,1.382
		c-0.544,0.211-1.019,0.332-1.428,0.363c-0.408,0.03-0.786-0.091-1.133-0.363c-0.347-0.272-0.65-0.566-0.906-0.883
		c-0.257-0.317-0.476-0.716-0.657-1.201c-0.181-0.483-0.333-0.93-0.454-1.337c-0.121-0.407-0.226-0.838-0.317-1.29
		c-0.967-5.044-1.269-10.829-0.906-17.353c0.03-0.573,0.053-0.943,0.068-1.11c0.015-0.165,0.053-0.513,0.113-1.042
		c0.06-0.528,0.136-0.906,0.227-1.133s0.219-0.528,0.384-0.906c0.166-0.377,0.37-0.641,0.612-0.793
		c0.241-0.15,0.536-0.287,0.883-0.407c0.346-0.121,0.747-0.166,1.201-0.136c0.845,0.152,1.442,0.454,1.789,0.906
		c0.347,0.452,0.536,1.11,0.567,1.971c0.03,0.861,0.014,1.956-0.045,3.284c-0.031,0.333-0.046,0.59-0.046,0.771
		c0.573-1.873,1.269-3.36,2.084-4.463c0.815-1.102,1.631-1.758,2.447-1.971c0.815-0.211,1.615-0.159,2.401,0.159
		s1.465,0.921,2.039,1.812c0.574,0.892,0.967,1.942,1.178,3.15c0.393,2.266,0.309,4.456-0.249,6.57
		c-0.56,2.115-1.458,3.761-2.696,4.939C187.433,131.114,188.687,133.183,189.653,135.992z M177.782,116.827
		c0.12-1.449-0.153-2.461-0.816-3.036c-0.513-0.393-1.164-0.454-1.948-0.181c-0.152,0.061-0.204,0.159-0.159,0.295
		c0.045,0.136,0.143,0.189,0.294,0.158c0.634-0.241,1.148-0.211,1.541,0.091c0.544,0.452,0.754,1.33,0.634,2.627
		c-0.03,0.152,0.03,0.227,0.181,0.227h0.045C177.676,117.008,177.751,116.947,177.782,116.827z M178.734,127.837
		c0.513,0.452,1.125,0.619,1.835,0.498c0.709-0.121,1.29-0.438,1.744-0.951c0.695-0.845,1.208-1.789,1.54-2.831
		c0.332-1.043,0.491-2.04,0.476-2.991c-0.015-0.951-0.106-1.835-0.271-2.65c-0.167-0.816-0.394-1.473-0.679-1.971
		c-0.288-0.499-0.537-0.763-0.747-0.793c-0.726-0.091-1.45,0.59-2.175,2.039c-0.967,1.903-1.586,4.215-1.857,6.933
		C178.628,125.994,178.673,126.9,178.734,127.837z M185.258,114.289c-0.091,0.122-0.076,0.227,0.045,0.317
		c0.725,0.483,1.298,1.262,1.721,2.334c0.423,1.073,0.665,2.236,0.726,3.489c0.06,1.253-0.054,2.538-0.34,3.851
		c-0.287,1.313-0.763,2.454-1.428,3.421c-0.061,0.122-0.03,0.227,0.091,0.317c0.03,0.03,0.06,0.045,0.091,0.045
		c0.091,0,0.166-0.045,0.226-0.136c0.906-1.36,1.487-2.983,1.744-4.871c0.257-1.887,0.152-3.648-0.317-5.278
		c-0.469-1.631-1.216-2.81-2.243-3.534C185.454,114.153,185.349,114.169,185.258,114.289z"/>
</g>
</svg>
