<?xml version="1.0" encoding="utf-8"?>
<!-- Generator: Adobe Illustrator 17.0.0, SVG Export Plug-In . SVG Version: 6.00 Build 0)  -->
<!DOCTYPE svg PUBLIC "-//W3C//DTD SVG 1.1//EN" "http://www.w3.org/Graphics/SVG/1.1/DTD/svg11.dtd">
<svg version="1.1" id="Layer_1" xmlns="http://www.w3.org/2000/svg" xmlns:xlink="http://www.w3.org/1999/xlink" x="0px" y="0px"
	 width="180px" height="132.647px" viewBox="10 33.676 180 132.647" enable-background="new 10 33.676 180 132.647"
	 xml:space="preserve">
<path fill="#D72727" d="M164.7,149.596c0,0-0.916-14.244-8.174-11.44c-7.257,2.805-1.417,22.235,2.163,25.021
	c0,0,22.161-5.38,19.604-13.53C176.233,143.072,168.437,145.234,164.7,149.596z"/>
<g>
	<g>
		<path d="M133.478,64.65c-0.507,1.699-0.873,3.428-1.096,5.187c-0.085,0.668,0.199,1.337,0.908,1.515
			c0.594,0.149,1.429-0.235,1.515-0.908c0.224-1.759,0.589-3.488,1.096-5.188C136.363,63.713,133.938,63.111,133.478,64.65z"/>
	</g>
	<g>
		<path d="M149.043,67.842c-1.903,1.496-3.806,2.992-5.71,4.489c-1.247,0.98,0.022,3.135,1.284,2.142
			c1.903-1.496,3.807-2.992,5.71-4.489C151.574,69.004,150.305,66.85,149.043,67.842z"/>
	</g>
	<g>
		<path d="M156.07,85.408c-3.445-0.509-6.89-1.017-10.334-1.526c-1.578-0.233-2.199,2.188-0.606,2.423l10.334,1.526
			C157.041,88.064,157.662,85.643,156.07,85.408z"/>
	</g>
</g>
<path fill="#D72727" d="M51.402,61.462c0,0,7.077-11.032,3.675-14.661c-3.402-3.629-5.785,5.528-5.785,5.528
	s-6.284-7.649-7.733-2.972C39.415,56.278,51.402,61.462,51.402,61.462z"/>
<g>
	<path fill="#D72727" d="M23.63,95.551c-0.119,0.042-6.318-10.748-10.386-7.935c-10.862,7.512,8.341,20.133,16.732,22.549
		c0,0,5.222-8.389,4.046-19.374c0,0-1.054-10.902-7.689-8.616C22.099,83.635,23.63,95.551,23.63,95.551z"/>
</g>
<g>
	<path fill="#D72727" d="M182.804,110.432c-0.065-0.023,0.841-7.63-1.871-7.781s-3.611,1.839-4.047,3.905
		c-0.436,2.066,0.382,7.468,2.97,12.584c0,0,5.195-2.029,8.642-7.559c0,0,3.468-5.448-0.131-6.765
		C186.069,103.976,182.804,110.432,182.804,110.432z"/>
</g>
<g>
	<g>
		<path fill="#80C99C" d="M46.475,97.25c-0.779,0-1.427-0.522-1.941-1.566c-0.515-1.044-0.863-2.297-1.044-3.759
			c-0.181-1.461-0.307-2.929-0.376-4.406c-0.07-1.475-0.077-2.728-0.021-3.759l0.041-1.587c0-0.668-0.007-1.51-0.021-2.527
			c-0.015-1.016-0.035-1.907-0.063-2.673c-0.028-0.765-0.042-1.629-0.042-2.589c0-0.961,0.027-1.796,0.084-2.506
			c0.055-0.71,0.139-1.455,0.25-2.234s0.272-1.434,0.481-1.963s0.466-1.023,0.773-1.483c0.306-0.459,0.689-0.8,1.148-1.023
			c0.459-0.222,0.981-0.334,1.566-0.334c0.752,0,1.503,0.258,2.256,0.773c0.751,0.515,1.433,1.183,2.046,2.005
			c0.612,0.821,1.204,1.733,1.775,2.736c0.571,1.002,1.065,1.998,1.483,2.986c0.418,0.988,0.787,1.894,1.107,2.714
			c0.32,0.821,0.549,1.497,0.689,2.025l0.251,0.752c0.222-0.362,0.507-0.856,0.856-1.483c0.347-0.627,1.002-1.747,1.963-3.362
			c0.96-1.614,1.865-3.034,2.714-4.26c0.849-1.225,1.747-2.346,2.694-3.362c0.946-1.016,1.684-1.525,2.214-1.525
			c0.695,0,1.28,0.125,1.753,0.376s0.815,0.557,1.023,0.919c0.209,0.362,0.355,0.696,0.439,1.002
			c0.083,0.307,0.125,0.585,0.125,0.835c0,0.14-0.07,3.898-0.209,11.276c-0.14,7.379-0.209,11.555-0.209,12.529
			c0,0.696-0.007,1.225-0.021,1.587c-0.014,0.363-0.083,0.829-0.209,1.399c-0.125,0.571-0.313,1.009-0.564,1.315
			c-0.251,0.307-0.626,0.578-1.127,0.815s-1.114,0.355-1.837,0.355c-0.501,0-0.961-0.105-1.378-0.313
			c-0.418-0.209-0.752-0.459-1.003-0.751c-0.251-0.293-0.467-0.71-0.647-1.253c-0.181-0.543-0.32-1.015-0.417-1.419
			c-0.098-0.403-0.167-0.967-0.209-1.691s-0.07-1.281-0.084-1.671c-0.014-0.389-0.021-0.961-0.021-1.712
			c0-0.779,0.063-2.366,0.188-4.761c0.125-2.394,0.188-4.357,0.188-5.888s-0.125-2.298-0.376-2.298
			c-0.167,0-0.439,0.376-0.814,1.128c-0.376,0.751-0.773,1.566-1.191,2.443c-0.417,0.877-1.002,1.685-1.753,2.422
			c-0.752,0.738-1.545,1.107-2.381,1.107c-0.78,0-1.531-0.431-2.256-1.295c-0.724-0.863-1.281-1.816-1.67-2.86
			c-0.39-1.044-0.738-2.005-1.044-2.882c-0.307-0.877-0.501-1.315-0.585-1.315c-0.279,0-0.418,0.835-0.418,2.506V93.45
			c0,0.696-0.174,1.309-0.522,1.837c-0.348,0.529-0.766,0.919-1.253,1.169c-0.487,0.251-0.939,0.445-1.357,0.585
			C47.101,97.18,46.753,97.25,46.475,97.25z"/>
		<path fill="#80C99C" d="M75.25,79.625c1.029,0,1.851,0.383,2.463,1.148c0.613,0.766,0.995,1.713,1.149,2.84
			c0.153,1.127,0.251,2.36,0.292,3.696c0.042,1.336,0.049,2.576,0.021,3.717c-0.028,1.141,0.069,2.095,0.292,2.86
			c0.223,0.766,0.585,1.149,1.086,1.149c1.141,0.028,2.073-0.668,2.798-2.088c0.723-1.42,1.085-3.355,1.085-5.805
			c0-0.389-0.007-0.905-0.021-1.545s-0.028-1.113-0.042-1.419s-0.007-0.696,0.021-1.169c0.027-0.473,0.076-0.828,0.146-1.065
			c0.069-0.236,0.173-0.507,0.313-0.814c0.139-0.306,0.32-0.529,0.543-0.668s0.501-0.285,0.835-0.439
			c0.334-0.153,0.731-0.257,1.19-0.313c0.459-0.055,0.981-0.083,1.566-0.083c0.64,0,1.176,0.251,1.608,0.751
			c0.431,0.501,0.751,1.205,0.961,2.11c0.209,0.905,0.355,1.886,0.438,2.944c0.084,1.058,0.111,2.249,0.084,3.571
			c-0.028,1.322-0.07,2.541-0.125,3.654c-0.056,1.113-0.112,2.29-0.167,3.529c-0.056,1.238-0.083,2.206-0.083,2.902
			c0,1.197-0.14,2.402-0.418,3.613s-0.709,2.387-1.294,3.529c-0.585,1.141-1.288,2.157-2.11,3.048
			c-0.821,0.891-1.817,1.601-2.986,2.13s-2.436,0.793-3.8,0.793c-3.174,0-5.499-1.197-6.975-3.592
			c-1.085-1.782-1.392-3.578-0.919-5.387c0.418-1.56,1.281-2.451,2.59-2.673c0.111,0,0.209-0.015,0.292-0.042
			c1.03-0.083,1.823,0.076,2.381,0.48c0.557,0.403,0.883,0.94,0.981,1.608c0.097,0.668,0.146,1.399,0.146,2.193
			c0,0.793-0.021,1.538-0.063,2.234c-0.041,0.695,0.077,1.28,0.355,1.754c0.278,0.473,0.737,0.71,1.378,0.71
			c2.032,0,3.313-4.08,3.842-12.237c0.111-1.809,0.167-3.508,0.167-5.095c0,1.309-0.807,2.576-2.422,3.8
			c-1.615,1.225-3.258,1.837-4.928,1.837c-1.81,0-3.265-0.661-4.364-1.983c-1.1-1.322-1.65-3.376-1.65-6.161
			c0-0.556-0.014-1.253-0.041-2.088c-0.028-0.835-0.042-1.489-0.042-1.963c0-0.473,0.007-1.029,0.021-1.67
			c0.014-0.64,0.063-1.141,0.147-1.503c0.083-0.362,0.201-0.745,0.355-1.149c0.153-0.403,0.355-0.71,0.605-0.919
			c0.251-0.209,0.564-0.383,0.94-0.522C74.269,79.696,74.721,79.625,75.25,79.625z"/>
	</g>
</g>
<g>
	<path d="M133.242,89.57c0.036-0.523,0.206-2.409,0.382-5.586c0.053-1.369-0.047-2.264-0.811-2.316
		c-0.361-0.025-0.973,0.055-1.629,0.212l-2.876,0.732c-0.164,0.029-0.325,0.018-0.394-0.148l-0.272-0.745
		c-0.069-0.166-0.018-0.324,0.274-0.465l8.645-4.214c0.209-0.107,0.378-0.216,0.579-0.203c0.242,0.017,0.265,0.26,0.243,0.582
		c-0.024,0.362-0.575,6.663-0.929,11.846l-0.116,1.688c-0.033,0.482-0.575,9.004-0.611,9.526c-0.102,2.093,0.039,2.385,2.652,2.564
		l1.447,0.099c0.281,0.019,0.394,0.148,0.38,0.349l-0.063,0.925c-0.016,0.241-0.103,0.316-0.384,0.296
		c-0.361-0.024-5.817-0.518-6.179-0.543s-6.037-0.291-6.238-0.305c-0.201-0.013-0.316-0.102-0.299-0.344l0.069-1.004
		c0.014-0.201,0.259-0.225,0.58-0.203l1.849,0.126c2.612,0.178,2.699,0.063,2.926-2.061c0.076-0.519,0.63-8.637,0.68-9.359
		L133.242,89.57z"/>
</g>
<g>
	<g>
		<path fill="#80C99C" d="M83.141,121.472c1.008,0.828,1.889,2.032,2.641,3.615c0.754,1.583,1.296,3.366,1.632,5.346
			c0.336,1.981,0.527,4.138,0.574,6.469c0.046,2.333-0.1,4.659-0.439,6.98c-0.338,2.322-0.807,4.605-1.405,6.848
			c-0.599,2.244-1.396,4.258-2.392,6.042c-0.998,1.784-2.109,3.336-3.332,4.656c-1.224,1.32-2.644,2.196-4.258,2.628
			c-1.615,0.433-3.326,0.419-5.139-0.043c-0.086,0.002-0.192-0.015-0.322-0.055c-0.321,0.738-0.86,1.33-1.618,1.78
			c-0.591,0.317-1.163,0.505-1.717,0.565c-0.555,0.058-1.05-0.013-1.484-0.214c-0.434-0.202-0.827-0.458-1.178-0.768
			c-0.353-0.311-0.675-0.719-0.968-1.224c-0.293-0.504-0.553-1.001-0.781-1.486c-0.229-0.485-0.427-1.036-0.594-1.652
			c-0.169-0.615-0.312-1.136-0.431-1.56c-0.12-0.424-0.231-0.913-0.333-1.467c-1.791-8.594-2.543-18.248-2.256-28.959
			c-0.004-0.17,0.009-0.427,0.042-0.771c0.013-0.985,0.035-1.735,0.063-2.25c0.027-0.515,0.125-1.212,0.293-2.096
			c0.167-0.881,0.404-1.553,0.712-2.011c0.307-0.458,0.766-0.856,1.377-1.196c0.61-0.338,1.366-0.5,2.265-0.484
			c0.688,0.109,1.262,0.285,1.717,0.529c0.456,0.243,0.821,0.608,1.091,1.091c0.271,0.485,0.457,1.004,0.56,1.557
			c0.1,0.554,0.156,1.323,0.163,2.307c0.006,0.985-0.007,1.948-0.044,2.89c-0.037,0.943-0.075,2.208-0.115,3.792
			c-0.04,1.585-0.038,3.106,0.004,4.559c1.234-6.158,3.24-10.753,6.02-13.789c1.326-1.493,2.851-2.415,4.575-2.766
			C79.79,119.987,81.481,120.365,83.141,121.472z M65.453,122.662c0.167-0.111,0.206-0.251,0.117-0.421
			c-0.581-0.796-1.382-1.116-2.404-0.957c-1.022,0.159-1.711,0.757-2.066,1.795c-0.039,0.172,0.029,0.299,0.204,0.378
			c0.042-0.001,0.085-0.002,0.128-0.004c0.128-0.004,0.212-0.07,0.251-0.199c0.277-0.779,0.799-1.222,1.566-1.33
			c0.766-0.151,1.351,0.067,1.753,0.655C65.134,122.747,65.284,122.774,65.453,122.662z M71.156,159.708
			c1.96-0.271,3.618-2.139,4.973-5.603c1.355-3.464,2.278-7.408,2.769-11.832c0.492-4.423,0.616-8.643,0.369-12.66
			c-0.067-0.855-0.252-1.683-0.553-2.489c-0.304-0.804-0.771-1.464-1.406-1.982c-0.636-0.516-1.438-0.46-2.404,0.167
			c-1.26,0.807-2.414,2.34-3.462,4.596c-1.047,2.256-1.818,4.451-2.312,6.585c-0.495,2.133-0.841,4.188-1.04,6.162
			c-0.109,0.689-0.175,1.355-0.2,1.996c0.32,3.63,0.857,7.36,1.61,11.191c0.057,0.47,0.227,1.171,0.512,2.104
			c0.284,0.934,0.471,1.55,0.566,1.846C70.836,159.781,71.028,159.755,71.156,159.708z M85.996,140.14
			c0.214-0.006,0.319-0.116,0.312-0.33c0.191-5.184-0.174-9.263-1.095-12.232c-0.921-2.97-2.331-4.685-4.227-5.142
			c-0.216-0.037-0.352,0.042-0.411,0.236c-0.059,0.194,0.02,0.331,0.237,0.41c1.722,0.379,3.013,2.022,3.868,4.928
			c0.855,2.909,1.203,6.826,1.049,11.753C85.691,139.978,85.78,140.104,85.996,140.14z"/>
		<path fill="#80C99C" d="M112.596,153.941c0.009,0.3,0.044,0.801,0.108,1.506c0.063,0.705,0.113,1.314,0.149,1.826
			c0.037,0.512,0.044,1.134,0.023,1.862c-0.022,0.729-0.068,1.362-0.137,1.898c-0.071,0.539-0.192,1.098-0.368,1.681
			c-0.176,0.583-0.419,1.061-0.73,1.433c-0.31,0.372-0.729,0.685-1.256,0.936c-0.529,0.251-1.135,0.386-1.818,0.406
			c-0.515-0.028-0.99-0.132-1.422-0.312c-0.434-0.18-0.792-0.362-1.076-0.546c-0.285-0.184-0.518-0.487-0.7-0.911
			c-0.184-0.423-0.333-0.761-0.447-1.015c-0.114-0.253-0.202-0.678-0.262-1.276c-0.061-0.598-0.094-1.014-0.1-1.25
			c-0.007-0.234-0.011-0.695-0.009-1.38c0.001-0.685,0.001-1.092-0.003-1.22c-0.113-5.304-0.326-9.687-0.641-13.145
			c-0.387-0.074-0.689-0.13-0.903-0.167c-0.861-0.103-1.708-0.186-2.545-0.247c-0.836-0.061-1.534-0.094-2.09-0.1
			c-0.556-0.005-1.177,0.024-1.859,0.086c-0.684,0.063-1.175,0.121-1.472,0.173c-0.299,0.052-0.745,0.117-1.343,0.199
			s-0.939,0.146-1.022,0.191c-0.521,5.624-0.861,11.605-1.018,17.944c-0.04,0.131-0.046,0.282-0.019,0.451
			c0.026,0.17,0.031,0.342,0.015,0.513c-0.017,0.173-0.044,0.333-0.082,0.484c-0.038,0.152-0.11,0.282-0.213,0.392
			c-0.105,0.111-0.262,0.169-0.476,0.175c-0.216-0.035-0.38-0.128-0.49-0.275c-0.111-0.145-0.181-0.337-0.209-0.571
			c-0.029-0.234-0.035-0.47-0.021-0.706c0.015-0.234,0.039-0.492,0.074-0.772c0.034-0.279,0.051-0.461,0.048-0.547
			c0.191-6.684,0.496-12.365,0.916-17.043c-0.473-0.072-0.845-0.361-1.116-0.867c-0.502-1.054-0.016-1.989,1.459-2.803
			c0.688-5.756,1.621-10.471,2.799-14.145c0.233-0.819,0.469-1.532,0.708-2.139c0.239-0.605,0.573-1.279,1-2.02
			c0.429-0.74,0.871-1.341,1.329-1.804c0.457-0.462,1.035-0.853,1.731-1.174c0.697-0.319,1.453-0.449,2.269-0.387
			c1.199,0.051,2.302,0.436,3.308,1.155c1.006,0.721,1.869,1.755,2.595,3.104c0.723,1.349,1.364,2.764,1.922,4.246
			c0.557,1.482,1.026,3.256,1.407,5.321c0.382,2.065,0.693,3.929,0.934,5.592c0.241,1.662,0.436,3.594,0.586,5.794
			c0.149,2.2,0.251,3.899,0.308,5.096C112.492,150.776,112.546,152.231,112.596,153.941z M93.635,140.109
			c2.674-0.804,5.896-1.134,9.667-0.987c-0.748-5.116-1.904-9.491-3.465-13.128c-0.138-0.338-0.373-0.684-0.704-1.039
			c-0.332-0.353-0.754-0.524-1.268-0.509c-0.512,0.015-0.95,0.413-1.314,1.194c-1.41,3.038-2.53,7.907-3.362,14.609
			C93.36,140.203,93.509,140.156,93.635,140.109z M109.339,139.138c0.213-0.006,0.296-0.115,0.248-0.328
			c-0.802-9.866-3.007-15.73-6.614-17.595c-0.217-0.079-0.366-0.032-0.445,0.142c-0.081,0.174-0.034,0.322,0.141,0.446
			c3.433,1.74,5.524,7.437,6.277,17.09c0.048,0.17,0.157,0.252,0.329,0.248L109.339,139.138z"/>
		<path fill="#80C99C" d="M138.507,119.859c1.008,0.827,1.889,2.032,2.642,3.615c0.753,1.583,1.296,3.366,1.632,5.347
			s0.527,4.138,0.574,6.468c0.046,2.333-0.1,4.659-0.439,6.98c-0.339,2.322-0.808,4.605-1.405,6.848
			c-0.599,2.243-1.396,4.257-2.393,6.042c-0.998,1.784-2.108,3.336-3.332,4.656c-1.224,1.319-2.643,2.196-4.257,2.628
			c-1.615,0.433-3.326,0.419-5.139-0.043c-0.086,0.002-0.192-0.015-0.322-0.055c-0.321,0.739-0.861,1.331-1.618,1.781
			c-0.591,0.317-1.164,0.505-1.717,0.565c-0.556,0.058-1.051-0.013-1.484-0.214c-0.434-0.202-0.827-0.458-1.178-0.768
			c-0.353-0.311-0.674-0.72-0.967-1.225c-0.293-0.504-0.554-1-0.782-1.486c-0.229-0.485-0.427-1.036-0.594-1.652
			c-0.169-0.615-0.312-1.136-0.431-1.561c-0.12-0.423-0.231-0.913-0.333-1.467c-1.791-8.594-2.544-18.248-2.256-28.959
			c-0.004-0.17,0.009-0.426,0.042-0.771c0.013-0.986,0.035-1.735,0.063-2.25c0.027-0.515,0.125-1.212,0.292-2.096
			c0.167-0.882,0.404-1.553,0.712-2.011c0.307-0.458,0.767-0.857,1.377-1.196c0.611-0.339,1.366-0.5,2.266-0.484
			c0.687,0.109,1.261,0.285,1.717,0.528c0.456,0.244,0.82,0.609,1.091,1.092c0.271,0.485,0.457,1.004,0.56,1.557
			c0.101,0.554,0.156,1.324,0.164,2.308c0.006,0.984-0.008,1.948-0.044,2.89c-0.037,0.943-0.075,2.208-0.115,3.792
			c-0.04,1.585-0.038,3.106,0.004,4.559c1.234-6.158,3.24-10.754,6.02-13.789c1.326-1.493,2.851-2.415,4.575-2.766
			C135.158,118.374,136.848,118.751,138.507,119.859z M120.819,121.049c0.167-0.111,0.206-0.251,0.117-0.421
			c-0.58-0.796-1.381-1.116-2.404-0.957c-1.022,0.158-1.711,0.756-2.065,1.794c-0.039,0.173,0.029,0.299,0.204,0.379
			c0.041-0.001,0.084-0.003,0.128-0.004c0.128-0.004,0.212-0.071,0.251-0.199c0.277-0.779,0.8-1.222,1.566-1.331
			c0.767-0.15,1.352,0.068,1.753,0.656C120.501,121.134,120.65,121.161,120.819,121.049z M126.523,158.094
			c1.96-0.271,3.618-2.138,4.973-5.602s2.277-7.408,2.769-11.832c0.491-4.423,0.615-8.644,0.369-12.661
			c-0.067-0.854-0.252-1.683-0.552-2.489c-0.304-0.804-0.772-1.464-1.407-1.981c-0.636-0.516-1.438-0.46-2.404,0.167
			c-1.26,0.807-2.415,2.34-3.462,4.596c-1.048,2.256-1.818,4.451-2.312,6.585c-0.494,2.133-0.841,4.188-1.04,6.162
			c-0.109,0.689-0.175,1.354-0.2,1.996c0.32,3.63,0.858,7.36,1.61,11.191c0.056,0.47,0.227,1.172,0.512,2.104
			c0.284,0.933,0.472,1.55,0.567,1.846C126.203,158.168,126.395,158.141,126.523,158.094z M141.363,138.526
			c0.214-0.007,0.319-0.116,0.312-0.33c0.19-5.184-0.175-9.263-1.096-12.233c-0.921-2.97-2.331-4.684-4.227-5.142
			c-0.216-0.036-0.352,0.042-0.41,0.237c-0.059,0.193,0.02,0.33,0.236,0.41c1.722,0.378,3.014,2.021,3.868,4.928
			c0.855,2.908,1.204,6.826,1.049,11.753C141.059,138.365,141.147,138.49,141.363,138.526z"/>
	</g>
</g>
<g>
	<path d="M122.512,94.827c-0.347-0.085-0.693-0.054-1.024,0.1c-0.357,0.169-0.598,0.46-0.688,0.823
		c-0.286,0.974-0.581,1.875-0.878,2.68c-0.296,0.798-0.644,1.708-1.042,2.727c-0.387,0.989-0.839,2.033-1.342,3.103
		c-1.251,2.617-2.497,4.636-3.705,5.999c-1.14,1.289-2.181,1.943-3.093,1.943c-0.355,0-0.52-0.06-0.586-0.095
		c-0.129-0.07-0.166-0.115-0.167-0.115l-0.062-0.097c-0.307-0.373-0.629-1.309-0.423-3.641c0.087-0.981,0.241-2.049,0.461-3.173
		c0.221-1.139,0.45-2.27,0.688-3.4c0.236-1.186,0.46-2.321,0.667-3.405c0.21-1.1,0.355-2.128,0.43-3.057
		c0.076-0.951,0.061-1.811-0.047-2.558c-0.117-0.797-0.385-1.461-0.804-1.986c-0.603-0.707-1.404-1.065-2.383-1.065
		c-1.338,0-2.65,0.78-3.896,2.313c-0.489,0.582-0.971,1.288-1.431,2.099c-0.453,0.798-0.924,1.731-1.398,2.775
		c-0.418,0.924-0.826,1.905-1.212,2.916c0.019-0.579,0.037-1.105,0.054-1.581c0.043-1.228,0.066-1.87,0.063-1.87c0,0,0,0,0,0.001
		c0.048-0.392-0.078-0.75-0.365-1.038c-0.258-0.258-0.566-0.41-0.976-0.457c-0.823,0-1.345,0.471-1.433,1.325
		c-0.06,1.453-0.111,2.78-0.155,3.982c-0.045,1.203-0.083,2.601-0.112,4.188c-0.03,1.59-0.045,3.247-0.045,4.969
		c0,0.369,0.128,0.692,0.369,0.931c0.209,0.211,0.462,0.358,0.824,0.455c0.363,0.046,0.685-0.026,0.962-0.213
		c0.279-0.186,0.474-0.472,0.562-0.817c0.881-3.201,1.751-5.947,2.587-8.161c0.834-2.21,1.625-4.015,2.353-5.365
		c0.714-1.329,1.373-2.3,1.958-2.886c0.993-0.991,1.454-0.775,1.467-0.774c0.053,0.027,0.082,0.049,0.092,0.06
		c0.004,0.005,0.11,0.124,0.195,0.659c0.067,0.436,0.059,1.159-0.025,2.141c-0.088,0.844-0.228,1.765-0.417,2.736
		c-0.191,0.99-0.406,2.032-0.643,3.127c-0.269,1.279-0.514,2.529-0.736,3.748c-0.225,1.228-0.377,2.391-0.452,3.457
		c-0.076,1.086-0.045,2.09,0.094,2.981c0.147,0.949,0.478,1.734,0.974,2.327c0.719,0.891,1.718,1.342,2.968,1.342
		c1.866,0,3.716-1.078,5.501-3.207c1.234-1.505,2.513-3.619,3.803-6.29c0.51-1.109,0.978-2.194,1.389-3.225
		c0.418-1.044,0.775-1.984,1.074-2.82c0.298-0.835,0.529-1.507,0.694-2.016c0.198-0.615,0.251-0.814,0.264-0.921
		c0.074-0.335,0.037-0.664-0.109-0.979C123.187,95.164,122.896,94.923,122.512,94.827z"/>
	<path d="M124.014,85.066c-0.093-0.671-0.223-1.322-0.466-1.929c-0.22-0.611-0.524-1.196-0.991-1.676
		c-0.2-0.249-0.569-0.443-0.885-0.578l-0.418-0.109c-0.273-0.026-0.373,0.017-0.567,0.028c-0.669,0.135-1.208,0.552-1.483,1.013
		c-0.172,0.215-0.262,0.456-0.343,0.68c-0.097,0.218-0.148,0.435-0.184,0.64c-0.104,0.398-0.095,0.763-0.142,1.044
		c-0.022,0.563-0.035,0.886-0.035,0.886s0.01,0.327,0.029,0.895c0.046,0.281,0.035,0.64,0.139,1.041
		c0.036,0.205,0.084,0.423,0.18,0.643c0.079,0.226,0.17,0.468,0.337,0.689c0.129,0.244,0.349,0.446,0.585,0.651
		c0.096,0.113,0.292,0.185,0.454,0.267c0.172,0.081,0.358,0.16,0.476,0.166l0.205,0.038l0.104,0.019l0.052,0.01l0.086,0.007
		l0.008-0.001l0.017-0.002l0.034-0.003c0.182-0.021,0.368-0.051,0.553-0.084c0.342-0.123,0.703-0.276,0.954-0.536
		c0.549-0.477,0.905-1.109,1.105-1.768c0.12-0.322,0.167-0.679,0.204-1.03C124.064,85.706,124.014,85.432,124.014,85.066z
		 M123.467,85.066c-0.064,0.271-0.088,0.647-0.187,0.913c-0.086,0.277-0.159,0.546-0.289,0.809c-0.213,0.53-0.542,0.996-0.931,1.274
		c-0.394,0.288-0.756,0.423-1.204,0.325c-0.164-0.004-0.218-0.058-0.289-0.092c-0.073-0.045-0.147-0.036-0.236-0.113
		c-0.171-0.118-0.35-0.223-0.494-0.383c-0.16-0.137-0.303-0.292-0.422-0.459c-0.138-0.155-0.238-0.325-0.325-0.492
		c-0.207-0.322-0.289-0.651-0.372-0.916c-0.073-0.268-0.072-0.489-0.093-0.637c-0.015-0.149-0.023-0.226-0.023-0.226
		s0.007-0.078,0.021-0.228c0.019-0.148,0.016-0.374,0.089-0.644c0.082-0.266,0.163-0.588,0.369-0.913
		c0.087-0.168,0.184-0.34,0.321-0.496c0.117-0.169,0.26-0.325,0.417-0.468c0.293-0.31,0.654-0.546,1.052-0.659
		c0.079-0.017,0.255-0.058,0.262-0.068c0.142,0.006,0.286,0.013,0.432,0.019c0.218,0.068,0.417,0.094,0.653,0.268
		c0.471,0.274,0.853,0.787,1.046,1.365C123.504,83.811,123.496,84.459,123.467,85.066z"/>
</g>
<g>
	<rect x="77.469" y="71.902" fill="#F9CB60" width="45.061" height="1.629"/>
	<path fill="#F9CB60" d="M128.568,49.681c-0.74,0-1.34,0.6-1.34,1.34c0,0.445,0.231,0.821,0.565,1.064
		c-1.508,1.966-4.983,5.971-8.271,5.971c-3.324,0-4.574-3.695-4.973-5.376c0.501-0.042,0.899-0.449,0.899-0.961
		c0-0.539-0.438-0.977-0.977-0.977c-0.54,0-0.977,0.438-0.977,0.977c0,0.294,0.137,0.549,0.342,0.728
		c-0.983,0.944-3.198,2.575-5.872,1.366c-3.575-1.617-6.38-8.509-7.515-11.702c0.683-0.227,1.179-0.864,1.179-1.623
		c0-0.647-0.362-1.203-0.891-1.496c0.321-0.627,0.648-1.389,0.807-2.154c0.482-2.324-0.785-3.161-1.633-3.162
		c-0.848,0-2.114,0.838-1.633,3.162c0.158,0.765,0.486,1.526,0.806,2.154c-0.529,0.293-0.891,0.849-0.891,1.497
		c0,0.75,0.484,1.381,1.154,1.615c-1.141,3.195-3.967,10.118-7.546,11.738c-2.516,1.138-4.628-0.24-5.688-1.193
		c0.2-0.193,0.327-0.461,0.327-0.761c0-0.586-0.475-1.061-1.061-1.061s-1.061,0.475-1.061,1.061c0,0.511,0.369,0.917,0.849,1.018
		c-0.448,1.758-1.729,5.18-4.925,5.18c-3.318,0-6.824-4.076-8.309-6.021c0.297-0.213,0.504-0.544,0.504-0.937
		c0-0.647-0.525-1.173-1.172-1.173c-0.648,0-1.173,0.525-1.173,1.173c0,0.647,0.525,1.173,1.173,1.173
		c0.139,0,0.268-0.035,0.392-0.079l6.899,17.549l42.653-0.028l6.87-17.479c0.152,0.06,0.315,0.099,0.488,0.099
		c0.74,0,1.34-0.6,1.34-1.34C129.908,50.281,129.308,49.681,128.568,49.681z M81.833,67.437l-1.59-1.59l1.59-1.59l1.59,1.59
		L81.833,67.437z M89.1,67.437l-1.59-1.59l1.59-1.59l1.59,1.59L89.1,67.437z M96.367,67.437l-1.589-1.59l1.59-1.59l1.59,1.59
		L96.367,67.437z M97.228,55.053L100,48.867l2.772,6.187L100,61.24L97.228,55.053z M103.633,67.437l-1.59-1.59l1.59-1.59l1.59,1.59
		L103.633,67.437z M110.9,67.437l-1.59-1.59l1.59-1.59l1.59,1.59L110.9,67.437z M118.167,67.437l-1.589-1.59l1.589-1.59l1.59,1.59
		L118.167,67.437z M99.91,33.677C99.911,33.677,99.911,33.677,99.91,33.677C99.911,33.677,99.911,33.677,99.91,33.677L99.91,33.677z
		"/>
</g>
</svg>
