<?xml version="1.0" encoding="utf-8"?>
<!-- Generator: Adobe Illustrator 17.0.0, SVG Export Plug-In . SVG Version: 6.00 Build 0)  -->
<!DOCTYPE svg PUBLIC "-//W3C//DTD SVG 1.1//EN" "http://www.w3.org/Graphics/SVG/1.1/DTD/svg11.dtd">
<svg version="1.1" id="Layer_1" xmlns="http://www.w3.org/2000/svg" xmlns:xlink="http://www.w3.org/1999/xlink" x="0px" y="0px"
	 width="175.611px" height="180px" viewBox="0 0 175.611 180" enable-background="new 0 0 175.611 180" xml:space="preserve">
<path fill="#152E59" d="M166.723,51.001c-8.099-12.788-18.418-19.793-31.546-21.414c-6.413-0.788-12.362-0.301-17.822,1.456
	l-0.188,0.06c-0.582-1.011-1.02-2.127-2.049-2.809c-0.29-0.191-0.622-0.531-1.026-0.279c-0.385,0.24-0.301,0.657-0.236,1.03
	c0.118,0.687,0.252,1.37,0.447,2.42c-4.382-4.672-12.485-4.935-18.515-0.928c-0.382,0.206-0.764,0.412-1.145,0.618l-0.125-0.1
	c-0.334-0.268-0.372-0.667-0.416-1.129c-0.019-0.188-0.037-0.376-0.072-0.551c-0.679-3.379-1.647-7.311-3.672-10.859l-0.254-0.443
	c0.336-2.091,1.927-3.492,3.153-5.056c3.561-4.542-0.256-10.901-5.126-11.02c-1.668-0.042-3.301,0.046-4.882,0.599
	c-0.802,0.283-1.413,0.229-1.992-0.531c-1.535-1.996-3.664-2.332-5.996-1.897C73.555,0.489,72.013,1.264,70.52,2.1
	c-1.225,0.683-2.385,0.836-3.591,0.1c-1.737-1.058-3.431-0.672-5.076,0.172c-1.89,0.97-3.507,2.275-4.661,4.096
	c-1.935,2.149-3.619,4.545-3.363,7.523c0.145,1.71-0.16,3.096-0.946,4.469c-1.271,2.221-1.389,4.527-0.733,6.946
	c0.392,1.434,0.736,2.885,1.089,4.334c-0.153-0.015-0.306-0.03-0.46-0.044c-0.321-0.029-0.641-0.058-0.961-0.097
	c-10.005-1.203-19.233,0.627-27.432,5.444C17.267,39.228,12.541,45.506,9.22,50.508c-6.424,9.694-9.436,19.566-9.208,30.181
	c0.204,9.709,3.096,19.329,8.839,29.409c6.136,10.802,14.527,20.906,26.407,31.796c1.366,1.251,2.712,2.617,4.137,4.063
	c2.54,2.578,5.165,5.234,7.974,7.267v0.02l0.247,0.162c0.025,0.018,0.051,0.038,0.076,0.056l1.055,0.74l0.005-0.049L87.988,180
	l35.853-24.182l0.001,0.206l1.17-0.995l1.706-1.151l-0.001-0.044c0.045-0.039,0.094-0.077,0.135-0.116
	c1.749-1.409,3.532-2.998,5.257-4.535c0.814-0.726,1.62-1.443,2.409-2.132c13.865-12.089,27.832-25.896,36.092-44.913
	c2.89-6.651,4.495-13.037,4.905-19.526C176.192,71.762,173.317,61.419,166.723,51.001z"/>
<path fill="#E87725" d="M82.926,27.966c0.554-0.752,1.128-1.117,1.754-1.117c0.22,0,0.457,0.045,0.707,0.136
	c0.93,0.318,1.307,1.076,1.743,1.953c0.105,0.213,0.212,0.425,0.327,0.633c0.074,0.134,0.128,0.29,0.184,0.447
	c0.2,0.56,0.479,1.46,1.751,1.21l0.092-0.03c2.396-1.163,2.301-3.316,1.95-5.062c-0.149-0.74-0.367-1.468-0.578-2.172
	c-0.332-1.105-0.645-2.15-0.721-3.26c-0.024-0.358-0.039-0.695-0.006-1.014c1.681,3.242,2.537,6.769,3.154,9.836
	c0.031,0.151,0.046,0.311,0.06,0.472c0.039,0.409,0.086,0.895,0.379,1.311c-1.896,1.545-3.541,3.259-4.911,5.124l-0.547,0.901
	c-0.064-0.084-0.138-0.177-0.188-0.247c-0.42-0.59-2.445-1.663-2.613-1.772c-0.104-0.066-0.952-0.292-1.581-0.454
	c-0.68-0.63-1.218-1.562-1.502-2.664C81.969,30.601,82.178,28.979,82.926,27.966z"/>
<path fill="#E87725" d="M49.263,71.789c-4.448,3.453-5.14,5.773-5.247,6.381c-0.482,1.253-6.256,16.452-7.435,28.064
	c-1.237,12.179,1.445,17.525,1.535,17.692c1.971,4.689,6.896,7.037,8.356,7.646c0.658,3.775,0.868,17.483,0.9,19.766
	c-2.386-1.865-4.675-4.185-6.898-6.442c-1.376-1.396-2.798-2.84-4.192-4.117c-11.76-10.781-20.058-20.766-26.113-31.429
	c-5.617-9.856-8.443-19.241-8.641-28.691c-0.222-10.297,2.707-19.884,8.955-29.312c3.231-4.865,7.82-10.968,14.671-14.995
	c7.906-4.646,16.816-6.407,26.481-5.247c0.334,0.041,0.67,0.072,1.008,0.102c0.089,0.008,0.177,0.016,0.265,0.023
	c0.053,0.122,0.105,0.244,0.157,0.367c0.189,0.443,0.38,0.887,0.578,1.316c2.395,5.377,6.321,9.663,10.117,13.807l0.768,0.839
	c1.793,1.95,3.51,2.979,5.546,3.313c0.224,0.121,0.45,0.178,0.638,0.225c0.345,0.088,0.345,0.088,0.38,0.288
	c0.078,0.468,0.181,0.932,0.284,1.395c0.269,1.21,0.524,2.353,0.302,3.515l-0.056,0.294c-0.92,0.516-1.635,1.246-2.19,2.074
	c-1.113-0.214-2.229-0.272-3.352,0.084c-1.258,0.786-2.686,1.383-3.376,2.804c-0.028-0.005-0.058,0.001-0.086-0.006l-0.115-0.024
	l-0.108,0.044c-2.536,1.023-2.541,3.146-2.431,5.097C55.989,68.116,51.607,69.971,49.263,71.789z"/>
<path fill="#E87725" d="M62.575,62.313c0.855,0.141,1.659-0.22,2.389-0.578c0.796-0.39,1.544-0.718,2.333-0.399l0.142,0.026
	c0.311,0,0.536-0.371,0.577-0.499c0.234-0.708,0.414-0.753,0.416-0.753c0.043,0,0.11,0.042,0.182,0.096
	c-0.553,1.341-0.799,2.755-0.85,3.882c-1.146,0.34-3.921,1.184-7.059,2.306C60.615,64.625,60.701,63.12,62.575,62.313z"/>
<path fill="#E87725" d="M107.648,65.491c-0.225-0.082-0.412-0.149-0.529-0.19l-0.162-0.059l-0.171,0.018
	c-1.011,0.105-2,0.158-2.941,0.158c-11.597,0-14.015-7.853-14.111-8.184L89.66,57.06c-0.919-1.581-3.171-2.383-6.692-2.383
	c-4.123,0-8.657,1.065-9.156,1.186c-0.198,0.028-0.381,0.073-0.568,0.116c0.112-1.239-0.139-2.4-0.389-3.525
	c-0.097-0.437-0.195-0.875-0.269-1.318c-0.125-0.73-0.499-1.089-0.873-1.284c2.054-0.566,3.872-1.659,5.661-2.823
	c2.298-1.501,4.607-2.183,7.286-0.717V46.31l0.001,0.002l1.119,4.873c0,0,0.224-0.178,0.468-0.387c0.223,0.601,0.606,1.09,1.473,1
	c0.465-0.447,0.79-0.954,0.89-1.622c0.611-4.008,3.535-6.477,6.183-9.096c0.828-0.813,1.626-0.992,2.183,0.557
	c1.439,4.012,4.465,6.443,8.347,7.935c0.679-0.786-0.336-1.16-0.271-1.748c3.016,0.42,6.497,3.413,6.978,6.305
	c0.503,3.016,0.641,6.064-0.92,8.912c-0.301,0.549-0.92,1.206,0.03,1.779C109.9,64.682,108.783,65.13,107.648,65.491z"/>
<path fill="#E87725" d="M111.338,66.884c0.778-0.632,1.596-0.851,2.571,0.424c0.1,0.131,0.321,0.199,0.499,0.235
	c1.913,0.39,3.867,0.663,5.337,2.154c0.028,0.098,0.06,0.193,0.081,0.295l0.078,0.211c0.085,0.153,0.145,0.299,0.194,0.441
	C117.185,69.231,113.899,67.882,111.338,66.884z"/>
<path fill="#E87725" d="M173.998,82.523c-0.4,6.309-1.964,12.53-4.782,19.017c-8.141,18.741-21.968,32.402-35.698,44.374
	c-0.794,0.693-1.603,1.414-2.421,2.142c-1.45,1.292-2.94,2.614-4.407,3.832l-0.262-20.477c1.617,1.736,5.347,4.301,8.787,4.301
	c0.597,0,1.172-0.077,1.708-0.228c4.901-1.382,5.671-9.216,5.702-9.556c0.992-12.06-3.029-24.667-3.298-25.488
	c-3.092-14.217-8.178-21.095-10.862-23.886c-0.219-0.338-0.489-0.657-0.848-0.917c-0.2-0.146-0.404-0.285-0.605-0.429
	c-0.072-0.058-0.139-0.108-0.187-0.145c-0.714-1.067-2.684-2.341-5.118-3.611c0.047-0.613-0.087-1.241-0.422-1.883
	c-0.405-1.76-1.521-2.964-2.601-4.13c-0.653-0.704-1.274-1.375-1.715-2.141c1.582-1.478,3.19-3.021,4.325-5.005
	c3.503-6.142,4.279-11.916,2.37-17.651c-0.451-1.977-1.657-3.748-3.395-4.989c-1.218-0.88-1.651-1.923-1.854-3.353
	c5.093-1.538,10.618-1.94,16.577-1.209c12.649,1.562,22.61,8.34,30.451,20.72C171.86,61.951,174.658,71.997,173.998,82.523z"/>
<g>
	<path fill="#FFFFFF" d="M63.503,95.708c0.008,0.103,0.032,0.245,0.071,0.422c0.039,0.178,0.072,0.334,0.098,0.468
		c0.026,0.135,0.041,0.278,0.046,0.428c0.004,0.152-0.026,0.29-0.091,0.416c-0.065,0.125-0.167,0.227-0.305,0.305
		c-0.121,0.053-0.232,0.082-0.331,0.091c-0.1,0.009-0.191,0-0.273-0.026s-0.158-0.069-0.227-0.13s-0.13-0.128-0.182-0.201
		c-0.052-0.074-0.1-0.161-0.142-0.26c-0.043-0.1-0.08-0.197-0.11-0.293s-0.059-0.199-0.085-0.311s-0.045-0.211-0.059-0.293
		c-0.013-0.082-0.023-0.171-0.032-0.266c-0.208-1.559-0.22-3.516-0.038-5.873c0.008-0.034,0.017-0.125,0.026-0.272
		c0.008-0.147,0.015-0.254,0.02-0.318c0.005-0.065,0.017-0.167,0.039-0.305c0.021-0.139,0.045-0.24,0.071-0.305
		s0.065-0.147,0.117-0.247c0.052-0.1,0.11-0.171,0.176-0.215c0.065-0.043,0.147-0.08,0.247-0.11s0.21-0.041,0.331-0.032
		c0.286,0.052,0.478,0.169,0.579,0.351c0.1,0.182,0.139,0.453,0.117,0.812c-0.021,0.359-0.057,0.818-0.103,1.377
		c-0.048,0.559-0.081,1.234-0.098,2.027C63.343,93.74,63.391,94.661,63.503,95.708z M63.075,92.512c0.155-1.845,0.155-3.058,0-3.638
		c-0.018-0.044-0.046-0.06-0.085-0.052c-0.039,0.008-0.054,0.035-0.046,0.078c0.044,0.156,0.074,0.391,0.091,0.707
		c0.017,0.317,0.021,0.621,0.014,0.916c-0.009,0.295-0.022,0.613-0.039,0.955c-0.018,0.342-0.03,0.579-0.039,0.707
		c-0.008,0.131-0.017,0.234-0.026,0.311c0,0.044,0.021,0.065,0.065,0.065C63.053,92.564,63.075,92.547,63.075,92.512z"/>
	<path fill="#FFFFFF" d="M71.156,96.488c0.164,0.087,0.158,0.245-0.02,0.474c-0.178,0.229-0.345,0.391-0.5,0.487
		c-0.234,0.147-0.509,0.247-0.825,0.299c-0.316,0.053-0.632,0.039-0.948-0.038c-0.316-0.078-0.565-0.221-0.747-0.428
		c-0.217-0.243-0.382-0.664-0.5-1.267c-0.117-0.602-0.178-1.286-0.182-2.052c-0.005-0.767,0.002-1.414,0.02-1.942
		c0.018-0.529,0.048-1.048,0.091-1.559c0-0.069,0.005-0.188,0.014-0.358c0.008-0.169,0.017-0.302,0.026-0.403
		c0.008-0.1,0.023-0.229,0.045-0.389c0.021-0.161,0.057-0.288,0.104-0.383c0.048-0.096,0.106-0.192,0.175-0.293
		c0.069-0.1,0.163-0.169,0.28-0.208c0.117-0.038,0.254-0.054,0.41-0.045c0.121,0.026,0.227,0.062,0.318,0.11
		c0.091,0.048,0.16,0.112,0.207,0.195c0.048,0.083,0.087,0.158,0.117,0.228c0.03,0.069,0.046,0.171,0.046,0.305s0,0.232,0,0.293
		c0,0.06-0.009,0.169-0.026,0.325c-0.018,0.155-0.026,0.251-0.026,0.286c-0.321,3.646-0.213,5.816,0.324,6.509
		c0.278,0.346,0.667,0.368,1.17,0.065c0.026-0.017,0.066-0.052,0.123-0.104c0.057-0.052,0.109-0.088,0.156-0.11
		C71.054,96.46,71.104,96.463,71.156,96.488z M68.986,89.615c0.043-0.416-0.035-0.705-0.234-0.87
		c-0.139-0.112-0.325-0.13-0.558-0.052c-0.035,0.018-0.046,0.046-0.032,0.085c0.013,0.039,0.041,0.054,0.085,0.046
		c0.181-0.069,0.324-0.06,0.428,0.026c0.164,0.13,0.225,0.381,0.182,0.753c0,0.043,0.021,0.064,0.064,0.064
		C68.965,89.666,68.986,89.65,68.986,89.615z"/>
	<path fill="#FFFFFF" d="M74.118,88.693c0.632,0.217,1.122,0.723,1.468,1.521c0.346,0.796,0.508,1.721,0.487,2.774
		s-0.227,2.055-0.618,3.008c-0.26,0.616-0.576,1.076-0.948,1.383c-0.373,0.307-0.741,0.447-1.104,0.416
		c-0.364-0.03-0.717-0.217-1.059-0.559c-0.342-0.342-0.613-0.812-0.812-1.41c-0.164-0.485-0.284-1.021-0.357-1.611
		c-0.074-0.589-0.094-1.176-0.059-1.76c0.034-0.584,0.117-1.141,0.247-1.669c0.131-0.529,0.318-0.975,0.566-1.339
		c0.247-0.364,0.551-0.623,0.916-0.78C73.209,88.51,73.632,88.519,74.118,88.693z M72.338,89.823
		c0.069-0.338,0.281-0.584,0.637-0.74c0.339-0.156,0.646-0.147,0.922,0.026c0.035,0.017,0.062,0.009,0.085-0.026
		c0.021-0.035,0.016-0.065-0.02-0.091c-0.321-0.19-0.667-0.199-1.039-0.026c-0.182,0.078-0.338,0.192-0.468,0.344
		c-0.13,0.152-0.213,0.314-0.247,0.487c-0.009,0.044,0.008,0.069,0.052,0.078h0.014C72.307,89.875,72.33,89.858,72.338,89.823z
		 M75.132,95.839c0.286-0.598,0.474-1.278,0.565-2.04s0.075-1.472-0.045-2.131c-0.156-0.962-0.472-1.602-0.949-1.923
		c-0.052-0.044-0.112-0.078-0.181-0.104s-0.163-0.041-0.28-0.045c-0.117-0.005-0.227,0.017-0.331,0.065
		c-0.104,0.048-0.22,0.145-0.351,0.293c-0.13,0.147-0.243,0.342-0.338,0.584c-0.286,0.667-0.431,1.432-0.435,2.294
		c-0.005,0.861,0.089,1.628,0.279,2.3s0.424,1.176,0.701,1.514c0.095,0.112,0.199,0.174,0.311,0.181
		c0.112,0.009,0.22-0.021,0.325-0.091c0.103-0.069,0.206-0.16,0.305-0.272c0.1-0.112,0.184-0.22,0.254-0.325
		C75.032,96.033,75.088,95.934,75.132,95.839z"/>
	<path fill="#FFFFFF" d="M80.77,88.861c0.043-0.008,0.078-0.002,0.103,0.02c0.026,0.021,0.044,0.057,0.053,0.103
		c0.008,0.048,0.015,0.085,0.02,0.11s0.005,0.069,0,0.131c-0.005,0.061-0.007,0.096-0.007,0.103c0,0.65-0.132,1.676-0.396,3.079
		c-0.264,1.404-0.596,2.668-0.994,3.794c-0.009,0.018-0.035,0.091-0.078,0.22c-0.044,0.131-0.076,0.225-0.098,0.286
		c-0.021,0.06-0.059,0.152-0.11,0.273c-0.052,0.121-0.101,0.213-0.149,0.272c-0.048,0.06-0.103,0.128-0.169,0.201
		c-0.065,0.074-0.134,0.126-0.208,0.156c-0.073,0.03-0.153,0.041-0.24,0.032c-0.078-0.009-0.149-0.026-0.215-0.052
		c-0.065-0.026-0.124-0.067-0.176-0.124s-0.101-0.108-0.149-0.156c-0.048-0.048-0.093-0.118-0.137-0.214s-0.078-0.169-0.103-0.22
		c-0.026-0.053-0.057-0.137-0.091-0.254c-0.035-0.117-0.059-0.197-0.072-0.24c-0.013-0.044-0.037-0.126-0.071-0.247
		c-0.035-0.121-0.057-0.195-0.065-0.22c-0.459-1.663-0.815-3.551-1.065-5.664c-0.018-0.164-0.03-0.294-0.039-0.389
		c-0.008-0.096-0.013-0.227-0.013-0.397c0-0.169,0.015-0.305,0.045-0.409s0.076-0.213,0.137-0.325
		c0.06-0.112,0.151-0.192,0.272-0.241c0.121-0.048,0.268-0.066,0.442-0.059c0.174,0.026,0.316,0.085,0.428,0.176
		s0.192,0.215,0.241,0.37c0.048,0.156,0.08,0.301,0.097,0.435c0.018,0.135,0.03,0.305,0.039,0.513
		c0.008,0.208,0.017,0.355,0.026,0.442c0.069,0.52,0.142,1.018,0.22,1.494c0.078,0.477,0.152,0.9,0.221,1.273
		s0.139,0.713,0.207,1.021c0.069,0.307,0.137,0.582,0.201,0.824c0.065,0.243,0.119,0.437,0.163,0.584
		c0.043,0.147,0.103,0.342,0.182,0.584c0.329-0.831,0.649-2.003,0.961-3.514c0.311-1.511,0.472-2.619,0.481-3.32
		c0-0.018-0.005-0.057-0.014-0.117s-0.014-0.111-0.014-0.149c0-0.039,0.011-0.078,0.032-0.117
		C80.694,88.894,80.726,88.87,80.77,88.861z M78.587,94.708c0.034-0.026,0.043-0.057,0.026-0.091
		c-0.191-0.355-0.412-1.208-0.662-2.559c-0.252-1.352-0.355-2.313-0.312-2.884c0.009-0.044-0.008-0.067-0.052-0.072
		c-0.043-0.005-0.064,0.016-0.064,0.059c-0.053,0.58,0.05,1.555,0.305,2.924c0.256,1.368,0.478,2.234,0.669,2.598
		c0.008,0.017,0.026,0.026,0.052,0.026C78.565,94.708,78.579,94.708,78.587,94.708z"/>
	<path fill="#FFFFFF" d="M85.953,89.2c0,0.121-0.023,0.217-0.072,0.286c-0.048,0.069-0.119,0.117-0.214,0.142
		c-0.096,0.026-0.178,0.043-0.247,0.052s-0.164,0.014-0.286,0.014h-2.026c0,0.207-0.018,0.654-0.053,1.338
		c-0.035,0.685-0.057,1.282-0.064,1.793c0.199,0.009,0.316,0.014,0.35,0.014c0.121,0,0.256-0.002,0.403-0.007
		c0.147-0.005,0.266-0.007,0.358-0.007c0.091,0,0.192,0,0.305,0s0.204,0.002,0.273,0.007s0.142,0.013,0.22,0.026
		s0.139,0.032,0.182,0.059c0.043,0.026,0.085,0.057,0.124,0.091c0.038,0.035,0.066,0.078,0.085,0.13
		c0.017,0.052,0.026,0.112,0.026,0.182c0,0.087-0.016,0.162-0.045,0.227c-0.031,0.065-0.081,0.115-0.149,0.149
		c-0.069,0.035-0.137,0.06-0.201,0.078c-0.065,0.018-0.163,0.03-0.293,0.039c-0.131,0.009-0.247,0.011-0.351,0.007
		c-0.103-0.005-0.254-0.009-0.448-0.014c-0.195-0.005-0.358-0.007-0.488-0.007c-0.034,0-0.155,0.009-0.364,0.026
		c0.009,0.113,0.017,0.318,0.026,0.618c0.009,0.3,0.014,0.535,0.014,0.707c-0.009,1.126,0.177,1.72,0.558,1.781
		c0.364,0.06,0.68,0.062,0.948,0.006s0.492-0.078,0.669-0.064c0.178,0.013,0.293,0.11,0.344,0.293
		c0.018,0.078,0.014,0.151-0.013,0.22s-0.06,0.124-0.104,0.162c-0.043,0.039-0.108,0.074-0.195,0.104s-0.158,0.052-0.214,0.064
		c-0.057,0.014-0.133,0.028-0.228,0.046c-0.034,0.008-0.06,0.017-0.078,0.026c-0.364,0.069-0.675,0.119-0.935,0.149
		c-0.26,0.03-0.566,0.021-0.916-0.026c-0.351-0.048-0.639-0.154-0.864-0.318c-0.06-0.052-0.117-0.106-0.169-0.163
		s-0.098-0.123-0.137-0.201c-0.039-0.078-0.072-0.146-0.098-0.207c-0.026-0.06-0.05-0.14-0.071-0.241
		c-0.022-0.1-0.039-0.176-0.053-0.227c-0.013-0.052-0.023-0.139-0.032-0.26c-0.009-0.121-0.016-0.199-0.02-0.234
		s-0.011-0.117-0.02-0.247c-0.009-0.13-0.014-0.203-0.014-0.22c-0.112-1.853-0.1-3.56,0.039-5.118
		c0.026-0.39,0.094-0.719,0.201-0.987c0.108-0.268,0.225-0.459,0.351-0.572c0.125-0.112,0.254-0.188,0.383-0.228
		c0.13-0.038,0.238-0.05,0.324-0.032c0.087,0.017,0.147,0.038,0.182,0.064h2.273c0.121,0,0.217,0.005,0.286,0.014
		s0.152,0.026,0.247,0.052s0.167,0.074,0.214,0.142C85.93,88.996,85.953,89.087,85.953,89.2z M82.796,89.498
		c0.009-0.043-0.006-0.069-0.045-0.078s-0.062,0.009-0.072,0.052c-0.164,0.71-0.212,2.39-0.142,5.041
		c0,0.044,0.021,0.065,0.065,0.065c0.043,0,0.065-0.021,0.065-0.065c-0.009-0.277-0.018-0.659-0.026-1.143
		c-0.009-0.485-0.002-1.174,0.02-2.065C82.681,90.413,82.727,89.81,82.796,89.498z M83.043,93.045c-0.035,0-0.052,0.022-0.052,0.065
		c0,0.044,0.017,0.065,0.052,0.065h1.662c0.044,0,0.065-0.021,0.065-0.065c0-0.043-0.021-0.065-0.065-0.065H83.043z M84.863,88.979
		c0.26-0.026,0.441,0.005,0.545,0.091c0.06,0.06,0.095,0.142,0.103,0.247c0,0.043,0.021,0.064,0.065,0.064
		c0.043,0,0.065-0.021,0.065-0.064c-0.009-0.147-0.06-0.26-0.156-0.339c-0.13-0.112-0.342-0.155-0.637-0.13
		c-0.044,0.009-0.062,0.032-0.059,0.071C84.795,88.959,84.819,88.979,84.863,88.979z"/>
	<path fill="#FFFFFF" d="M94.36,90.901c0.043,0.416,0.059,0.907,0.045,1.475c-0.013,0.567-0.045,1.119-0.097,1.656
		c-0.052,0.538-0.165,1.063-0.339,1.579c-0.174,0.516-0.394,0.929-0.662,1.241c-0.233,0.278-0.515,0.472-0.844,0.584
		c-0.33,0.112-0.671,0.131-1.026,0.052c-0.103-0.026-0.19-0.05-0.26-0.071c-0.069-0.021-0.147-0.057-0.234-0.104
		c-0.087-0.048-0.147-0.108-0.181-0.181c-0.035-0.074-0.044-0.158-0.026-0.254c0.034-0.112,0.1-0.195,0.195-0.247
		s0.195-0.08,0.3-0.085c0.103-0.005,0.214-0.021,0.331-0.052c0.117-0.03,0.21-0.085,0.279-0.163
		c0.286-0.329,0.487-0.732,0.604-1.208s0.201-1.026,0.254-1.65c0.034-0.441,0.052-0.879,0.052-1.312
		c-0.104,0.373-0.221,0.714-0.351,1.026c-0.131,0.312-0.284,0.598-0.461,0.858c-0.178,0.26-0.381,0.453-0.611,0.579
		c-0.229,0.125-0.47,0.162-0.721,0.11c-0.182-0.035-0.346-0.106-0.494-0.215s-0.268-0.254-0.364-0.435s-0.178-0.366-0.247-0.552
		c-0.069-0.185-0.119-0.418-0.149-0.695c-0.031-0.278-0.055-0.517-0.072-0.721c-0.018-0.204-0.021-0.457-0.014-0.76
		c0.009-0.303,0.016-0.535,0.02-0.696c0.005-0.16,0.015-0.375,0.032-0.643c0-0.043,0.002-0.13,0.006-0.26
		c0.005-0.13,0.009-0.225,0.014-0.286s0.015-0.151,0.032-0.272s0.037-0.213,0.059-0.273c0.021-0.06,0.054-0.134,0.097-0.22
		c0.044-0.087,0.096-0.152,0.156-0.195s0.137-0.082,0.227-0.116c0.091-0.035,0.192-0.053,0.305-0.053
		c0.207,0.018,0.385,0.094,0.533,0.227c0.147,0.135,0.234,0.301,0.26,0.5c0.017,0.182,0.023,0.316,0.02,0.403
		c-0.004,0.087-0.015,0.223-0.032,0.41c-0.018,0.186-0.031,0.323-0.039,0.41c-0.035,0.9-0.037,1.522-0.007,1.864
		s0.067,0.637,0.11,0.884c0.044,0.247,0.065,0.453,0.065,0.617c-0.009,0.044,0.002,0.085,0.032,0.124s0.072,0.062,0.124,0.071
		c0.217,0.044,0.45-0.16,0.701-0.61c0.321-0.58,0.559-1.33,0.715-2.249c-0.009-0.112-0.022-0.261-0.039-0.448
		c-0.018-0.185-0.028-0.318-0.032-0.396c-0.005-0.078-0.009-0.182-0.013-0.311c-0.005-0.131,0-0.221,0.013-0.273
		c0.014-0.052,0.03-0.119,0.052-0.201c0.021-0.082,0.057-0.14,0.104-0.176c0.048-0.035,0.106-0.071,0.176-0.11
		c0.069-0.039,0.151-0.072,0.247-0.098c0.156-0.034,0.3-0.034,0.428,0c0.131,0.035,0.234,0.104,0.311,0.208
		c0.078,0.103,0.142,0.208,0.195,0.311c0.052,0.104,0.091,0.245,0.117,0.422c0.026,0.178,0.043,0.316,0.052,0.416
		c0.008,0.1,0.021,0.236,0.038,0.41c0,0.026,0,0.045,0,0.059s0,0.028,0,0.045C94.347,90.866,94.351,90.884,94.36,90.901z
		 M90.787,89.901c0.078-0.554-0.022-0.935-0.3-1.143c-0.182-0.139-0.412-0.142-0.689-0.014c-0.035,0.018-0.044,0.046-0.026,0.085
		c0.017,0.039,0.043,0.051,0.078,0.032c0.234-0.112,0.42-0.112,0.559,0c0.112,0.078,0.19,0.21,0.234,0.397
		c0.043,0.185,0.048,0.391,0.013,0.617c-0.008,0.044,0.009,0.069,0.053,0.078h0.013C90.756,89.953,90.778,89.936,90.787,89.901z
		 M93.892,93.903c0.182-0.632,0.256-1.434,0.221-2.404c-0.035-0.97-0.148-1.646-0.339-2.027c-0.017-0.043-0.045-0.054-0.085-0.032
		c-0.038,0.022-0.05,0.051-0.032,0.085c0.182,0.373,0.29,1.036,0.325,1.987c0.035,0.953-0.035,1.741-0.208,2.365
		c-0.017,0.034-0.005,0.06,0.039,0.078h0.013C93.862,93.954,93.883,93.938,93.892,93.903z"/>
	<path fill="#FFFFFF" d="M97.803,88.693c0.632,0.217,1.122,0.723,1.468,1.521c0.346,0.796,0.508,1.721,0.487,2.774
		s-0.227,2.055-0.618,3.008c-0.26,0.616-0.576,1.076-0.948,1.383c-0.373,0.307-0.741,0.447-1.104,0.416
		c-0.364-0.03-0.717-0.217-1.059-0.559c-0.342-0.342-0.613-0.812-0.812-1.41c-0.164-0.485-0.284-1.021-0.357-1.611
		c-0.074-0.589-0.094-1.176-0.059-1.76c0.034-0.584,0.117-1.141,0.247-1.669c0.131-0.529,0.318-0.975,0.566-1.339
		c0.247-0.364,0.551-0.623,0.916-0.78C96.893,88.51,97.317,88.519,97.803,88.693z M96.023,89.823
		c0.069-0.338,0.281-0.584,0.637-0.74c0.339-0.156,0.646-0.147,0.922,0.026c0.035,0.017,0.062,0.009,0.085-0.026
		c0.021-0.035,0.016-0.065-0.02-0.091c-0.321-0.19-0.667-0.199-1.039-0.026c-0.182,0.078-0.338,0.192-0.468,0.344
		c-0.13,0.152-0.213,0.314-0.247,0.487c-0.009,0.044,0.008,0.069,0.052,0.078h0.014C95.992,89.875,96.015,89.858,96.023,89.823z
		 M98.817,95.839c0.286-0.598,0.474-1.278,0.565-2.04s0.075-1.472-0.045-2.131c-0.156-0.962-0.472-1.602-0.949-1.923
		c-0.052-0.044-0.112-0.078-0.181-0.104s-0.163-0.041-0.28-0.045c-0.117-0.005-0.227,0.017-0.331,0.065
		c-0.104,0.048-0.22,0.145-0.351,0.293c-0.13,0.147-0.243,0.342-0.338,0.584c-0.286,0.667-0.431,1.432-0.435,2.294
		s0.089,1.628,0.279,2.3s0.424,1.176,0.701,1.514c0.095,0.112,0.199,0.174,0.311,0.181c0.112,0.009,0.22-0.021,0.325-0.091
		c0.103-0.069,0.206-0.16,0.305-0.272c0.1-0.112,0.184-0.22,0.254-0.325C98.716,96.033,98.773,95.934,98.817,95.839z"/>
	<path fill="#FFFFFF" d="M105.676,95.839c0.017,0.087,0.048,0.22,0.091,0.403c0.044,0.181,0.074,0.336,0.091,0.461
		c0.018,0.125,0.023,0.264,0.02,0.416c-0.005,0.152-0.046,0.284-0.124,0.396c-0.078,0.112-0.191,0.204-0.338,0.273
		c-0.113,0.035-0.22,0.052-0.318,0.052c-0.1,0-0.188-0.013-0.266-0.038c-0.078-0.026-0.149-0.072-0.215-0.137
		c-0.064-0.064-0.121-0.132-0.169-0.201c-0.048-0.069-0.094-0.158-0.137-0.266c-0.044-0.108-0.076-0.201-0.098-0.279
		c-0.021-0.078-0.045-0.178-0.071-0.299s-0.046-0.215-0.059-0.28c-0.014-0.065-0.024-0.153-0.032-0.266
		c-0.052-0.338-0.103-0.723-0.156-1.156c-0.181,0.866-0.446,1.533-0.792,2s-0.797,0.65-1.351,0.545
		c-0.312-0.069-0.582-0.238-0.812-0.506c-0.229-0.268-0.399-0.606-0.507-1.014c-0.108-0.407-0.19-0.84-0.247-1.3
		c-0.057-0.459-0.078-0.948-0.065-1.468c0.014-0.52,0.037-0.983,0.072-1.39c0.034-0.407,0.078-0.806,0.13-1.195
		c0.009-0.052,0.017-0.139,0.026-0.26c0.026-0.217,0.048-0.385,0.065-0.506c0.017-0.121,0.057-0.281,0.117-0.48
		c0.06-0.199,0.128-0.351,0.201-0.456c0.073-0.103,0.182-0.188,0.325-0.254c0.142-0.065,0.309-0.08,0.5-0.045
		c0.26,0.069,0.431,0.201,0.514,0.396c0.082,0.195,0.1,0.451,0.052,0.766c-0.048,0.317-0.109,0.71-0.182,1.183
		c-0.073,0.471-0.13,1.021-0.169,1.65c-0.039,0.628-0.007,1.349,0.098,2.163c0.043,0.321,0.149,0.708,0.318,1.163
		s0.318,0.678,0.448,0.669c0.096-0.017,0.185-0.06,0.273-0.131c0.086-0.069,0.155-0.14,0.207-0.214
		c0.053-0.073,0.106-0.18,0.163-0.318c0.057-0.139,0.095-0.241,0.117-0.305c0.021-0.064,0.05-0.158,0.085-0.279
		c0.139-0.468,0.247-0.983,0.324-1.545c-0.069-1.014-0.095-2.148-0.078-3.404c0-0.026,0-0.104,0-0.234
		c0-0.131,0.002-0.222,0.007-0.28c0.005-0.057,0.011-0.146,0.02-0.272c0.009-0.126,0.021-0.219,0.039-0.279
		c0.017-0.06,0.039-0.139,0.065-0.234c0.026-0.096,0.062-0.169,0.11-0.221c0.048-0.052,0.101-0.106,0.162-0.162
		c0.06-0.057,0.137-0.096,0.227-0.117c0.091-0.021,0.193-0.028,0.305-0.02c0.199,0.026,0.351,0.08,0.455,0.162
		c0.103,0.082,0.178,0.217,0.22,0.403c0.044,0.186,0.065,0.398,0.065,0.637c0,0.238-0.005,0.561-0.013,0.968
		c-0.009,0.408-0.014,0.836-0.014,1.287c0,0.451,0.023,1.018,0.072,1.702C105.496,94.405,105.572,95.111,105.676,95.839z
		 M101.583,89.043c0.156,0.121,0.217,0.368,0.182,0.74c-0.009,0.044,0.009,0.069,0.052,0.078h0.014c0.035,0,0.057-0.021,0.065-0.065
		c0.043-0.416-0.035-0.701-0.234-0.858c-0.147-0.112-0.334-0.131-0.559-0.053c-0.044,0.009-0.059,0.035-0.045,0.078
		c0.013,0.043,0.041,0.057,0.085,0.038C101.332,88.944,101.479,88.957,101.583,89.043z M105.066,89.797
		c0.043-0.416-0.035-0.701-0.234-0.858c-0.139-0.112-0.325-0.131-0.559-0.053c-0.035,0.009-0.045,0.035-0.032,0.078
		c0.014,0.043,0.037,0.057,0.072,0.038c0.19-0.06,0.338-0.048,0.442,0.039c0.164,0.121,0.225,0.368,0.181,0.741
		c0,0.044,0.021,0.069,0.065,0.078C105.043,89.862,105.066,89.841,105.066,89.797z"/>
	<path fill="#FFFFFF" d="M67.444,127.455c-0.656,0-1.261-0.06-1.819-0.18c-0.162-0.07-0.324-0.134-0.487-0.19
		c-0.367-0.112-0.697-0.265-0.989-0.46c-0.293-0.194-0.505-0.527-0.64-0.999c-0.31-1.34-0.465-3.756-0.465-7.253
		c0-2.136,0.074-5.329,0.222-9.58c0.035-0.901,0.063-1.708,0.085-2.421c0-0.318,0.07-0.588,0.212-0.815
		c0.14-0.225,0.335-0.433,0.581-0.623c1.178-0.902,2.485-1.354,3.923-1.354l0.465,0.011c1.537,0.134,2.887,0.708,4.05,1.724
		c0.86,0.733,1.576,1.561,2.147,2.485c1.423,2.334,2.136,5.054,2.136,8.163c-0.015,2.424-0.55,4.649-1.607,6.671
		c-0.952,1.846-2.252,3.179-3.902,3.996C70.215,127.181,68.911,127.455,67.444,127.455z M68.523,124.834
		c0.557,0,1.1-0.12,1.628-0.359c1.199-0.564,2.161-1.541,2.887-2.929c0.902-1.748,1.354-3.606,1.354-5.573
		c0-1.381-0.159-2.651-0.476-3.807c-0.5-1.889-1.35-3.432-2.548-4.63c-0.994-0.98-2.104-1.477-3.331-1.491
		c-0.204,0-0.314,0.096-0.328,0.286c-0.007,0.148-0.024,0.387-0.053,0.719c-0.367,5.103-0.55,9.182-0.55,12.233
		c0,3.539,0.268,5.375,0.804,5.508C68.114,124.819,68.319,124.834,68.523,124.834z"/>
	<path fill="#FFFFFF" d="M91.816,127.9c-0.48,0-0.874-0.138-1.184-0.413c-0.536-0.48-0.927-1.304-1.174-2.474
		c-0.106-0.501-0.19-0.986-0.254-1.46c-0.1-0.634-0.232-1.321-0.402-2.061l-0.169-0.772c-0.12-0.726-0.222-1.106-0.307-1.142
		c-0.789-0.182-1.54-0.275-2.252-0.275c-0.507,0-1.023,0.02-1.548,0.062c-0.525,0.043-1.101,0.071-1.729,0.085
		c-0.106,0-0.179,0.028-0.217,0.085s-0.065,0.124-0.079,0.201l-0.02,0.063c-0.078,0.24-0.152,0.483-0.222,0.729l-0.148,0.487
		c-0.12,0.41-0.236,0.836-0.349,1.28c-0.197,0.761-0.405,1.465-0.623,2.114c-0.416,1.303-0.803,2.184-1.158,2.643
		c-0.356,0.459-0.943,0.712-1.76,0.762l-0.19,0.011c-0.332,0-0.592-0.087-0.782-0.26c-0.19-0.173-0.326-0.404-0.407-0.692
		c-0.081-0.29-0.121-0.603-0.121-0.941c0.014-0.402,0.102-0.983,0.264-1.745c0.232-1.106,0.539-2.242,0.919-3.405
		c0.141-0.422,0.275-0.846,0.402-1.269l0.286-0.919l0.19-0.603c0.177-0.55,0.359-1.097,0.549-1.639l0.286-0.857
		c0.26-0.782,0.479-1.381,0.656-1.797c0.091-0.225,0.176-0.451,0.254-0.677c0.352-1.1,0.816-2.338,1.39-3.716
		c0.575-1.378,1.109-2.599,1.602-3.663c0.177-0.401,0.38-0.763,0.608-1.083c0.229-0.321,0.505-0.579,0.83-0.772
		c0.324-0.194,0.719-0.291,1.183-0.291l0.487,0.011c0.677,0,1.128,0.179,1.353,0.535s0.451,0.999,0.677,1.929l0.328,1.163
		c0.14,0.48,0.779,2.844,1.914,7.095l1.713,6.461c0.352,1.501,0.581,2.647,0.687,3.436l0.085,0.518
		c0.057,0.275,0.099,0.554,0.128,0.835l0.02,0.201c0.035,0.197,0.054,0.394,0.054,0.592c0,0.119-0.011,0.239-0.032,0.359
		c-0.042,0.232-0.102,0.422-0.18,0.571c-0.077,0.148-0.208,0.275-0.391,0.381c-0.282,0.169-0.585,0.271-0.91,0.306L91.816,127.9z
		 M87.079,115.973c0.085,0,0.128-0.035,0.128-0.106l-0.011-0.116c-0.177-1.226-0.437-2.368-0.782-3.425l-0.296-0.962
		c-0.085-0.247-0.163-0.497-0.233-0.75c-0.297,0.494-0.579,1.152-0.846,1.978c-0.268,0.824-0.504,1.604-0.708,2.337l-0.212,0.741
		c-0.02,0.049-0.032,0.088-0.032,0.116c0,0.057,0.05,0.085,0.148,0.085c0.938,0,1.861,0.035,2.77,0.106h0.074V115.973z"/>
	<path fill="#FFFFFF" d="M99.111,127.455c-0.656,0-1.261-0.06-1.819-0.18c-0.162-0.07-0.324-0.134-0.487-0.19
		c-0.367-0.112-0.697-0.265-0.989-0.46c-0.293-0.194-0.505-0.527-0.64-0.999c-0.31-1.34-0.465-3.756-0.465-7.253
		c0-2.136,0.074-5.329,0.222-9.58c0.035-0.901,0.063-1.708,0.085-2.421c0-0.318,0.07-0.588,0.212-0.815
		c0.14-0.225,0.335-0.433,0.581-0.623c1.178-0.902,2.485-1.354,3.923-1.354l0.465,0.011c1.537,0.134,2.887,0.708,4.05,1.724
		c0.861,0.733,1.576,1.561,2.147,2.485c1.423,2.334,2.136,5.054,2.136,8.163c-0.015,2.424-0.55,4.649-1.607,6.671
		c-0.952,1.846-2.252,3.179-3.902,3.996C101.881,127.181,100.578,127.455,99.111,127.455z M100.19,124.834
		c0.557,0,1.1-0.12,1.628-0.359c1.199-0.564,2.161-1.541,2.887-2.929c0.902-1.748,1.354-3.606,1.354-5.573
		c0-1.381-0.159-2.651-0.476-3.807c-0.5-1.889-1.35-3.432-2.548-4.63c-0.994-0.98-2.104-1.477-3.331-1.491
		c-0.204,0-0.314,0.096-0.328,0.286c-0.007,0.148-0.024,0.387-0.053,0.719c-0.367,5.103-0.55,9.182-0.55,12.233
		c0,3.539,0.268,5.375,0.804,5.508C99.781,124.819,99.986,124.834,100.19,124.834z"/>
</g>
</svg>
