<?xml version="1.0" encoding="utf-8"?>
<!-- Generator: Adobe Illustrator 17.0.0, SVG Export Plug-In . SVG Version: 6.00 Build 0)  -->
<!DOCTYPE svg PUBLIC "-//W3C//DTD SVG 1.1//EN" "http://www.w3.org/Graphics/SVG/1.1/DTD/svg11.dtd">
<svg version="1.1" id="Layer_1" xmlns="http://www.w3.org/2000/svg" xmlns:xlink="http://www.w3.org/1999/xlink" x="0px" y="0px"
	 width="180px" height="152.452px" viewBox="0 0 180 152.452" enable-background="new 0 0 180 152.452" xml:space="preserve">
<path fill="#6A0809" d="M149.357,28.711c-2.915-3.447-6.748-5.745-10.408-8.242c-2.499-1.704-5.153-3.165-7.845-4.542
	c-0.742-0.38-1.453-0.887-2.302-0.942c-0.762-0.053-1.239-0.422-1.402-1.091c-0.197-0.812,0.356-1.379,0.976-1.712
	c1.243-0.666,2.471-1.419,3.87-1.71c2.255-0.471,4.502-0.9,6.85-0.42c1.803,0.371,3.184,1.315,4.436,2.554
	c0.227,0.227,0.397,0.507,0.605,0.747c1.086,1.235,2.119,1.701,4.022,1.296c4.078-0.863,7.79,0.566,10.741,3.494
	c1.555,1.545,2.119,3.717,2.07,5.868c-0.038,1.841,0.204,3.278,1.937,4.33c1.086,0.662,1.771,1.835,2.385,2.989
	c1.861,3.483,0.988,6.708-1.583,9.545c-2.172,2.395-3.125,2.319-4.805-0.473c-2.1-3.492-4.531-6.713-7.29-9.7
	c-0.098-0.144-0.214-0.272-0.348-0.382l-0.004-0.004C150.445,29.995,150.082,29.14,149.357,28.711z"/>
<path fill="#6A0809" d="M37.094,30.896c-2.503,2.694-4.767,5.569-6.649,8.739c-0.552,0.929-1.018,1.918-2.022,2.529
	c-0.783,0.475-1.441,0.475-2.102-0.117c-1.71-1.53-3.08-3.295-3.571-5.592c-0.569-2.682,0.446-4.941,2.051-6.984
	c0.552-0.704,1.173-1.462,1.941-1.861c1.025-0.537,1.086-1.298,1.04-2.228c-0.049-1.031,0.028-2.049,0.267-3.061
	c1.046-4.415,5.177-7.735,9.772-7.756c1.532-0.009,3.099-0.246,4.574,0.441c0.513,0.238,0.838-0.121,1.146-0.465
	c0.986-1.099,1.969-2.196,3.134-3.114c1.146-0.902,2.471-1.415,3.903-1.504c3.335-0.204,6.547,0.257,9.477,2.013
	c0.443,0.267,0.885,0.496,1.152,0.982c0.469,0.842,0.221,1.772-0.696,2.003c-3.182,0.796-5.83,2.654-8.565,4.313
	c-3.851,2.336-7.633,4.792-10.941,7.892c-0.465,0.437-0.859,0.95-1.286,1.426c-0.935,0.458-1.339,1.538-2.306,1.96l-0.002,0.004
	C37.27,30.614,37.164,30.742,37.094,30.896z"/>
<path fill="#9A4722" d="M159.025,25.332c-0.499,1.752,0.394,2.832,2.179,4.105c3.848,2.747,3.753,7.835,0.855,10.419
	c-1.057,0.944-1.324,0.917-1.92-0.384c-1.576-3.433-3.914-6.324-6.324-9.18c-3.223-3.817-7.035-6.923-11.142-9.721
	c-3.511-2.395-7.05-4.735-10.885-6.594c-0.354-0.172-0.938-0.244-0.753-0.917c0.138-0.492,0.174-1.054,0.764-1.248
	c0.549-0.182,1.101-0.384,1.668-0.46c3.136-0.422,5.997,0.392,8.66,2.007c0.738,0.446,1.199,1.143,1.665,1.854
	c1.067,1.632,1.082,1.608,2.887,1.08c2.155-0.632,4.413-0.586,6.515-0.174c3.488,0.685,5.698,4.235,5.826,7.126
	C159.048,23.823,159.025,24.405,159.025,25.332z"/>
<path fill="#9A4722" d="M28.277,40.454c-2.671-0.969-4.406-4.514-3.384-6.946c0.794-1.894,1.591-3.793,3.747-4.699
	c1.056-0.443,1.383-1.292,1.133-2.677c-0.577-3.225,0.477-6.116,2.824-8.446c1.351-1.339,3.112-1.755,4.939-1.888
	c1.816-0.132,3.604,0.03,5.312,0.711c0.77,0.307,1.288,0.237,1.701-0.615c1.455-3.006,4.476-3.836,7.266-4.595
	c1.534-0.42,3.439,0.004,5.094,0.515c1.15,0.356,1.228,1.481,0.208,2.183c-0.581,0.397-1.249,0.672-1.88,0.989
	c-4.907,2.472-9.421,5.582-13.715,8.959c-4.627,3.64-8.388,8.136-11.581,13.085C29.25,38.103,28.735,39.276,28.277,40.454z"/>
<path d="M170.451,68.761c0.647-1.088,1.3-2.172,1.945-3.257c0.626-1.056,1.12-2.155,1.211-3.409
	c0.028-0.371,0.187-0.738,0.318-1.095c0.095-0.259,0.322-0.437,0.585-0.414c0.272,0.023,0.431,0.272,0.471,0.528
	c0.14,0.891,0.147,1.782-0.074,2.669C174.382,65.908,172.84,67.798,170.451,68.761z"/>
<path d="M19.638,69.503c-2.293-2.34-3.808-5.066-4.165-8.388c1.682,2.234,3.04,4.65,4.273,7.137c0.113,0.125,0.199,0.263,0.25,0.426
	c0.042,0.119,0.087,0.242,0.132,0.359C20.226,69.467,20.033,69.593,19.638,69.503z"/>
<path d="M171.473,34.134c-0.596-3.501-0.505-6.967-2.389-9.956C171.707,25.582,172.975,30.862,171.473,34.134z"/>
<path d="M18.764,59.897c1.6,2.476,3.085,4.555,4.171,6.976C20.461,66.289,18.157,62.662,18.764,59.897z"/>
<path d="M19.753,24.137c-1.774,3.019-1.892,6.384-2.227,9.799C15.8,31.571,17.084,25.82,19.753,24.137z"/>
<path d="M6.379,72.605c-2.234-3.887-2.268-6.307-0.182-8.229c0.299,1.388-0.322,2.66-0.091,3.965
	C6.33,69.625,6.731,70.933,6.379,72.605z"/>
<path d="M174.057,31.828c0.288-2.48-0.511-4.667-1.854-6.731c2.599,0.344,3.806,4.608,2.289,7.881
	C173.533,32.903,174.064,32.263,174.057,31.828z"/>
<path d="M1.684,65.443c-0.14,2.463,0.038,4.616-0.348,7.003c-1.347-1.177-1.32-2.539-1.336-3.84
	C-0.018,67.214,0.368,66.538,1.684,65.443z"/>
<path d="M15.711,26.641c-0.284,0.897-0.566,1.793-0.849,2.69c-0.272,0.787-0.068,1.602-0.136,2.402
	c-0.03,0.363,0.009,0.781-0.569,0.7c-1.231-2.698-0.488-4.986,1.458-7.026c0.46-0.151,0.596,0.04,0.496,0.477
	c-0.049,0.117-0.102,0.235-0.149,0.352C15.91,26.392,15.826,26.528,15.711,26.641z"/>
<path d="M49.309,4.422c1.604-1.782,3.812-1.871,5.932-0.322C53.143,4.329,51.202,3.917,49.309,4.422z"/>
<path d="M133.774,4.221c1.773-1.581,4.364-1.487,6.01,0.214C137.619,4.367,135.697,3.856,133.774,4.221z"/>
<path d="M14.156,32.434c0.554-0.322,0.335-0.865,0.373-1.332c0.047-0.602-0.134-1.249,0.333-1.771c0,1.302,0,2.603,0,3.927
	C14.336,33.147,14.2,32.827,14.156,32.434z"/>
<path d="M53.947,1.151c-0.851-0.233-1.684-0.543-2.58-0.569c-0.136-0.055-0.189-0.125-0.163-0.208
	c0.03-0.091,0.064-0.136,0.102-0.136v0.004c0.571-0.252,1.15-0.151,1.733-0.062c0.518,0.025,0.953,0.274,1.388,0.516
	C54.488,1.081,54.375,1.283,53.947,1.151z"/>
<path d="M135.001,0.485c0.057-0.081,0.134-0.102,0.227-0.064c0.216-0.004,0.363-0.153,0.537-0.248
	c0.675-0.257,1.339-0.246,2.281,0.155c-1.016,0.231-1.788,0.405-2.561,0.583C135.022,1.113,134.965,0.854,135.001,0.485z"/>
<path d="M135.001,0.485c0.163,0.142,0.322,0.282,0.484,0.426c-0.45,0.378-0.963,0.499-1.593,0.407
	C134.071,0.708,134.532,0.587,135.001,0.485z"/>
<path d="M174.057,31.828c0.214,0.357-0.138,0.929,0.435,1.15c-0.034,0.284-0.182,0.484-0.465,0.513
	c-0.267,0.028-0.295-0.202-0.287-0.39C173.758,32.657,173.726,32.195,174.057,31.828z"/>
<path d="M16.11,25.885c-0.166-0.159-0.331-0.318-0.496-0.477c0.132-0.13,0.267-0.263,0.401-0.395
	c0.219-0.129,0.428-0.104,0.615,0.074C16.545,25.41,16.398,25.692,16.11,25.885z"/>
<path d="M135.765,0.173c-0.178,0.081-0.357,0.165-0.537,0.248C135.372,0.26,135.535,0.147,135.765,0.173z"/>
<path d="M15.711,26.641c-0.011-0.193,0.066-0.329,0.25-0.405C15.983,26.439,15.872,26.554,15.711,26.641z"/>
<g>
	<path d="M60.619,56.52c-0.211-0.053-3.332-0.053-3.332-0.106l-0.158,0.106c0,4.231-0.159,8.516-0.159,12.8
		c-0.212,0.952-1.428,1.005-2.539,1.005c-0.794,0-2.01,0.264-2.116-0.899l0.635-32.794c0-0.793,0.476-1.587,1.375-1.587
		c1.904,0,3.385,0,3.385,1.111l-0.106,15.021c0,0.318-0.106,0.423,0.212,0.423c0.529,0,2.221,0.053,2.802-0.158l0.265-15.286
		c0.053-1.534,1.64-1.587,2.909-1.587c0.053,0,0.106,0,0.158,0c0.053,0,0.053,0,0.106,0c0.635,0,1.799,0,2.01,0.846l-0.952,34.116
		c-0.053,1.005-2.222,1.005-3.332,1.005c-0.053,0-0.106,0-0.159,0c-0.106,0-0.212,0-0.265,0c-0.688,0-1.11-0.317-1.11-1.005
		L60.619,56.52z"/>
	<path d="M79.341,69.743l-0.265-7.088h-3.597c0,2.115,0.053,4.866,0.053,6.929c0,0.264,0,1.111,0,1.375
		c-0.106,0.317-0.317,0.582-0.741,0.582l-2.803,0.265c-0.159,0.052-0.636,0.052-0.847,0.052c-0.318,0-0.529-0.317-0.582-0.635
		l0.158-29.408c0.635-5.659,3.385-7.141,6.718-7.141c6.294,0,6.241,6.136,6.241,11.531c0,0.529,0,1.111,0,1.64
		c0.053,4.02,0.106,10.738,0.424,22.797c0,0,0,0.106,0,0.158c0,0.529-0.582,0.794-1.058,0.794c-0.053,0-0.211,0-0.211,0
		c-0.424-0.053-2.169-0.158-2.54-0.158C79.499,71.171,79.394,70.536,79.341,69.743z M75.11,53.822c0,0.476,0.053,2.75,0.053,3.279
		c0,0.264,0.053,0.846,0.106,0.846h3.491l0.264-0.105c0,0,0.053-4.654,0.053-6.612c0-0.264,0-2.962,0-3.914c0-0.899,0-3.121,0-3.174
		c0-0.264-0.106-2.327-0.159-2.962c-0.106-1.005-0.635-1.904-1.692-1.904c-1.005,0-1.534,0.846-1.693,1.798
		c-0.106,0.529-0.37,3.015-0.423,3.544c0,0.688-0.053,3.914-0.053,4.601C75.057,50.437,75.11,53.663,75.11,53.822z"/>
	<path d="M89.547,36.632c0-0.688,0.053-1.693,0.635-2.221c1.217-0.211,1.905-0.317,3.068-0.317c5.448,0,7.617,1.693,7.617,7.088
		c0,3.385-0.53,9.15-3.333,11.584c-1.004,0.899-2.327,1.058-3.543,1.163l-0.847,16.08c-0.053,1.534-0.371,1.534-1.64,1.64
		c-0.053,0-0.158,0-0.211,0s-0.265,0.053-0.371,0.053c-1.163,0-2.01-0.423-2.116-1.693c-0.053-0.529-0.211-2.222-0.211-2.38
		L89.547,36.632z M93.778,46.893c0,0.053,0,1.005,0,1.375c0,0.264,0,1.216,0,1.375c1.11-0.794,2.01-2.539,2.169-3.755
		c0.053-0.582,0.264-2.698,0.264-3.068c0-0.053,0-0.899,0-1.216c0-0.37,0-1.375,0-1.481c0-0.423-0.688-1.111-1.216-1.111
		c-0.741,0-1.057,0.106-1.004,1.111C93.99,41.181,93.831,45.888,93.778,46.893z"/>
	<path d="M105.094,36.632c0-0.688,0.053-1.693,0.635-2.221c1.217-0.211,1.905-0.317,3.068-0.317c5.448,0,7.617,1.693,7.617,7.088
		c0,3.385-0.53,9.15-3.333,11.584c-1.004,0.899-2.327,1.058-3.543,1.163l-0.847,16.08c-0.053,1.534-0.371,1.534-1.64,1.64
		c-0.053,0-0.158,0-0.211,0s-0.265,0.053-0.371,0.053c-1.163,0-2.01-0.423-2.116-1.693c-0.053-0.529-0.211-2.222-0.211-2.38
		L105.094,36.632z M109.326,46.893c0,0.053,0,1.005,0,1.375c0,0.264,0,1.216,0,1.375c1.11-0.794,2.01-2.539,2.169-3.755
		c0.053-0.582,0.264-2.698,0.264-3.068c0-0.053,0-0.899,0-1.216c0-0.37,0-1.375,0-1.481c0-0.423-0.688-1.111-1.216-1.111
		c-0.741,0-1.057,0.106-1.004,1.111C109.538,41.181,109.379,45.888,109.326,46.893z"/>
	<path d="M125.932,58.212c0,0,0,0,0-0.053v-0.053c-1.322-1.058-5.024-0.688-5.024-17.085c0-1.587,0-3.332,0.106-5.236
		c0.052-0.794,1.11-0.847,1.851-0.847c1.216,0,2.961-0.264,3.067,0.847c0,3.385-0.264,6.242-0.264,10.049
		c0,3.438,0.741,7.828,2.855,7.828c2.434,0,2.434-2.803,2.54-14.916c0-0.899,0.053-1.799,0.053-2.803
		c-0.159-1.057,2.327-1.216,3.861-1.216c0.37,0,0.794,0.106,0.847,0.529l0.211,1.322c-0.529,13.276,0,19.2-5.024,21.527
		c0,3.967,0,7.934-0.265,12.377c-0.212,1.217-1.11,1.428-1.957,1.428c-0.053,0-0.053,0-0.106,0c-0.741,0-2.75,0-2.75-0.688
		l-0.159-1.375L125.932,58.212z"/>
</g>
<path fill="#9A4722" d="M176.546,82.358c0.15-1.203,0.301-2.407,0.451-3.61c0.446-3.566,0.891-7.132,1.337-10.698
	c-4.48,4.739-9.308,9.406-15.321,11.932c-18.063,7.589-40.113-6.319-57.886,1.925c-4.022,1.866-7.537,4.813-10.074,8.449
	c-3.96-5.945-11.105-9.139-18.193-10.024s-14.253,0.234-21.326,1.238c-7.072,1.004-14.303,1.892-21.321,0.559
	c-6.298-1.196-12.22-4.234-16.924-8.581c-1.004-0.928-2.04-2.685-3.176-3.363c-1.964-1.172-1.165,0.716-0.908,2.504
	c0.598,4.149,1.187,8.299,1.781,12.449c0.563,3.937,1.141,7.928,2.72,11.579c4.39,10.149,15.723,15.683,26.689,17.099
	c13.145,1.698,26.955-1.472,37.741-9.175c7.344,5.919,18.177,7.116,26.636,2.942c1.204-0.594,2.434-1.305,3.776-1.274
	c1.025,0.023,1.983,0.479,2.913,0.911c7.952,3.689,16.61,6.223,25.373,5.946c4.305-0.136,8.569-0.948,12.716-2.111
	c3.328-0.934,6.622-2.109,9.555-3.939c4.881-3.045,8.563-7.826,10.742-13.15c0.909-2.222,1.571-4.544,2.013-6.904
	C176.152,85.512,176.347,83.945,176.546,82.358z"/>
<path fill="#6A0809" d="M93.703,152.452c-6.518,0-13.051-0.377-19.587-1.131c-18.339-2.117-38.707-6.448-50.721-22.517
	c-0.496-0.664-0.36-1.604,0.303-2.1c0.663-0.495,1.604-0.361,2.1,0.303c11.332,15.156,30.958,19.289,48.662,21.333
	c20.374,2.353,40.741,0.966,60.539-4.116c12.276-3.151,24.759-7.548,32.899-18.277c0.501-0.661,1.444-0.788,2.102-0.289
	c0.66,0.501,0.789,1.442,0.289,2.102c-8.696,11.463-21.742,16.084-34.544,19.371C121.941,150.674,107.864,152.452,93.703,152.452z"
	/>
<g>
	<g>
		<path fill="#6A0809" d="M91.307,134.543c-0.165,0.385-0.75,0.485-1.11,0.436c-1.287-0.176-2.573-0.238-3.866-0.21
			c-0.027,1.126-0.069,2.252-0.125,3.376c0.999-0.186,2.012-0.175,3.001,0.09c1.085,0.291,0.142,1.365-0.653,1.151
			c-0.819-0.218-1.59-0.239-2.413-0.054c-0.082,1.396-0.184,2.791-0.313,4.185c-0.055,0.593-1.739,0.808-1.672,0.084
			c0.281-3.048,0.452-6.102,0.509-9.162c0.006-0.275,0.285-0.476,0.615-0.581c0.159-0.142,0.378-0.247,0.637-0.259
			c1.652-0.077,3.293,0.005,4.932,0.228C91.229,133.879,91.462,134.184,91.307,134.543z"/>
		<path fill="#6A0809" d="M96.326,142.021c-0.279-0.598-0.498-1.208-0.683-1.826c-0.345,0.474-0.79,0.873-1.394,1.136
			c-1.129,0.492-2.838,0.62-3.439-0.708c-0.69-1.525,0.712-2.996,1.899-3.74c1.24-0.777,2.796-1.146,4.144-0.46
			c0.176,0.09-0.018,0.253-0.212,0.372c0.077,0.026,0.128,0.069,0.132,0.134c0.122,1.636,0.523,3.175,1.215,4.662
			C98.145,141.927,96.535,142.47,96.326,142.021z M95.12,137.271c0.015-0.087,0.114-0.173,0.256-0.25
			c-0.028-0.01-0.06-0.012-0.086-0.026c-1.74-0.886-3.641,1.982-2.688,3.394C93.932,142.358,94.991,138.01,95.12,137.271z"/>
		<path fill="#6A0809" d="M104.907,142.832c-1.198,0.984-3.323,1.608-4.432,0.105c-0.567-0.768-0.509-1.947-0.527-2.855
			c-0.011-0.538,0.008-1.074,0.04-1.607c-0.431,0.047-0.863,0.091-1.293,0.153c-1.138,0.166-0.702-0.922,0.151-1.047
			c0.41-0.06,0.819-0.112,1.229-0.158c0.066-0.624,0.152-1.247,0.264-1.867c0.134-0.744,1.822-1.012,1.674-0.194
			c-0.114,0.635-0.206,1.271-0.274,1.911c0.532-0.038,1.064-0.069,1.598-0.086c0.34-0.011,0.635,0.206,0.497,0.554
			c-0.15,0.376-0.715,0.508-1.069,0.52c-0.372,0.011-0.741,0.044-1.111,0.068c-0.008,0.141-0.018,0.281-0.023,0.422
			c-0.026,0.812-0.233,5.317,2.145,3.365C104.414,141.594,105.776,142.119,104.907,142.832z"/>
		<path fill="#6A0809" d="M111.121,142.525c0.011,0.659-1.638,1.076-1.652,0.299c-0.018-1.02-0.073-2.037-0.189-3.05
			c-0.049-0.42,0.007-1.213-0.571-1.324c-0.524-0.101-0.998,0.396-1.231,0.79c-0.004,0.007-0.011,0.012-0.015,0.019
			c0.119,1.132,0.257,2.262,0.427,3.391c0.099,0.666-1.532,1.155-1.619,0.577c-0.428-2.857-0.702-5.722-0.821-8.608
			c-0.024-0.595,1.615-1.046,1.644-0.324c0.049,1.181,0.13,2.36,0.233,3.536c0.764-0.463,1.673-0.672,2.542-0.418
			c0.797,0.231,0.917,0.873,1.009,1.614C111.024,140.187,111.1,141.353,111.121,142.525z"/>
		<path fill="#6A0809" d="M118.168,138.3c0.999,2.128-2.522,3.501-4.107,3.023c-2.502-0.753-3.222-4.084-1.346-5.836
			c1.25-1.168,4.881-2.078,5.474,0.317c0.463,1.879-2.87,2.436-4.8,2.601c0.124,0.374,0.311,0.729,0.553,1.041
			c0.353,0.458,1.125,1.134,1.758,1.131c0.931-0.004,1.189-0.969,0.873-1.643C116.393,138.553,117.973,137.884,118.168,138.3z
			 M113.307,136.702c-0.078,0.305-0.097,0.616-0.075,0.924c0.034-0.009,0.064-0.013,0.091-0.014
			c0.666-0.023,1.324-0.077,1.979-0.207c1.013-0.202,1.703-0.942,0.778-1.751C114.988,134.701,113.641,135.398,113.307,136.702z"/>
		<path fill="#6A0809" d="M124.639,136.117c0.114,0.54-1.484,1.103-1.569,0.7c-0.121-0.573-0.356-1.336-0.985-1.543
			c-0.695-0.229-1.186,0.755-1.203,1.329c-0.001,0.035-0.011,0.069-0.026,0.104c0.246,1.345,0.533,2.683,0.864,4.012
			c0.184,0.743-1.398,1.389-1.569,0.701c-0.493-1.976-0.899-3.967-1.214-5.979c-0.108-0.69,1.505-1.226,1.633-0.407
			c0.003,0.015,0.006,0.029,0.009,0.044c0.428-0.317,0.905-0.558,1.338-0.693C123.323,133.944,124.348,134.733,124.639,136.117z"/>
		<path fill="#6A0809" d="M126.017,132.112c-0.152,0.325-0.69,0.544-1.007,0.617c-0.218,0.051-0.627,0.063-0.471-0.268
			c0.299-0.637,0.095-1.38-0.38-1.869c-0.235-0.241,1.167-1.139,1.547-0.747C126.307,130.464,126.376,131.352,126.017,132.112z"/>
		<path fill="#6A0809" d="M132.103,138.193c-0.855,0.593-2.607,1.226-3.448,0.255c-0.802-0.927-0.019-2.037,0.891-2.466
			c0.946-0.445,1.44,0.486,0.487,0.935c-0.206,0.3-0.115,0.552,0.271,0.758c0.279,0.047,0.537,0.009,0.775-0.115
			c0.518-0.282,0.661-0.803,0.359-1.282c-0.499-0.792-1.508-0.808-2.324-0.923c-0.882-0.125-1.865-0.457-1.726-1.546
			c0.222-1.73,4.24-3.322,4.497-1.095c0.078,0.676-1.51,1.298-1.599,0.517c-0.517-0.598-0.936-0.41-1.255,0.566
			c0.231,0.219,0.503,0.331,0.816,0.337c0.356,0.083,0.738,0.077,1.097,0.15c0.664,0.137,1.298,0.358,1.764,0.876
			C133.653,136.209,133.146,137.47,132.103,138.193z"/>
		<path fill="#6A0809" d="M143.468,137.604c-0.289,0.323-1.104,0.543-1.287,0.344c0.026,0.522-1.272,1.245-1.462,0.835
			c-1.326-2.854-2.46-5.775-3.407-8.776c-0.134-0.428,0.67-0.976,1.134-1.05c2.174-1.393,5.052-1.134,6.429,1.26
			C146.324,132.736,145.256,135.596,143.468,137.604z M138.938,129.634c0.906,2.793,1.969,5.52,3.207,8.185
			c0.012-0.083,0.072-0.195,0.202-0.341c1.219-1.368,1.997-3.134,1.597-4.987C143.497,130.412,141.153,128.264,138.938,129.634z"/>
		<path fill="#6A0809" d="M152.226,131.236c-0.496-0.435-0.942-0.904-1.36-1.395c-0.125,0.572-0.371,1.116-0.818,1.6
			c-0.835,0.905-2.346,1.712-3.432,0.739c-1.247-1.117-0.556-3.029,0.231-4.187c0.821-1.21,2.096-2.175,3.606-2.09
			c0.197,0.01,0.085,0.237-0.044,0.425c0.081-0.007,0.145,0.012,0.176,0.07c0.77,1.447,1.757,2.695,2.99,3.775
			C153.854,130.417,152.599,131.563,152.226,131.236z M149.208,127.377c-0.021-0.086,0.036-0.205,0.134-0.332
			c-0.029,0.002-0.06,0.012-0.09,0.01c-1.949-0.11-2.532,3.281-1.091,4.188C150.172,132.509,149.389,128.104,149.208,127.377z"/>
		<path fill="#6A0809" d="M159.031,126.712c0.459,0.898,0.897,1.807,1.296,2.727c0.618,1.423,1.265,3.123,0.508,4.616
			c-1.368,2.698-4.856,3.236-5.405-0.253c-0.11-0.696,1.318-1.54,1.463-0.618c0.51,3.238,3.231,0.981,2.612-1.331
			c-0.21-0.781-0.594-1.535-0.935-2.267c-0.19-0.409-0.387-0.814-0.586-1.22c-0.533,0.589-1.192,1.058-1.939,1.188
			c-1.831,0.318-2.741-2.102-3.453-3.39c-0.207-0.376,1.143-1.366,1.24-1.19c0.483,0.875,0.978,1.775,1.575,2.579
			c0.562,0.757,1.739,1.225,2.297,0.254c-0.64-1.266-1.323-2.514-2.061-3.725c-0.367-0.602,0.962-1.65,1.402-0.931
			c0.69,1.133,1.342,2.3,1.951,3.487C159.022,126.649,159.037,126.67,159.031,126.712z"/>
	</g>
</g>
<path fill="#6A0809" d="M113.129,80.192c-6.739,1.16-13.24,4.334-17.162,9.866c0.766-3.394,3.515-6.012,6.51-7.782
	c5.964-3.525,13.146-4.432,20.069-4.16c6.922,0.272,13.751,1.637,20.644,2.33c6.98,0.702,14.269,0.667,20.705-2.124
	c7.442-3.227,13.025-9.935,16.066-17.455c0.432,10.625-2.645,21.364-8.637,30.149c-0.449,0.658-1.414,1.342-1.909,0.717
	c-0.298-0.376-0.101-0.925,0.113-1.355c1.71-3.433,3.897-6.612,5.598-10.049s2.921-7.259,2.492-11.07
	c0.104,0.921-3.256,3.609-3.929,4.22c-1.485,1.349-3.085,2.57-4.772,3.654c-3.382,2.173-7.115,3.796-11.005,4.809
	c-7.94,2.069-15.887,0.906-23.706-0.615c-1.949-0.379-3.905-0.729-5.871-1.007c-4.018-0.569-8.092-0.852-12.144-0.517
	C115.169,79.887,114.146,80.017,113.129,80.192z"/>
<path fill="#6A0809" d="M175.955,84.198c1.023,6.786-1.682,13.827-6.333,18.875c-4.653,5.049-11.073,8.234-17.738,9.883
	c-15.152,3.749-31.589-0.223-44.695-8.7c-0.637-0.412-2.897-1.984-2.174-3.01c0.769-1.091,3.441,0.937,4.141,1.409
	c10.054,6.785,22.36,10.168,34.47,9.476c6.832-0.391,13.746-2.121,19.322-6.088C170.029,101.006,173.931,92.319,175.955,84.198z"/>
<path fill="#6A0809" d="M22.184,93.728C15.95,87.65,12.77,79.122,11.586,70.625c-0.217-1.558-0.37-3.125-0.464-4.696
	c-0.033-0.553-0.332-1.857-0.022-2.336c0.515-0.796,0.93,0.408,1.154,0.871c1.089,2.246,2.432,4.37,3.994,6.317
	c3.073,3.83,7.031,6.983,11.557,8.886c7.204,3.03,15.348,2.764,23.103,1.788c7.754-0.975,15.504-2.612,23.306-2.149
	s15.918,3.405,20.456,9.768c0.455,0.638,0.864,1.54,0.369,2.147c-2.626-4.499-7.412-7.383-12.389-8.921
	c-7.375-2.279-15.307-1.961-22.95-0.88c-8.009,1.133-16.071,3.085-24.091,2.03c-8.835-1.161-17.103-6.133-22.272-13.392
	c-0.234,4.128,1.107,8.203,2.954,11.902s4.203,7.12,6.202,10.739c0.262,0.474,0.516,1.075,0.216,1.527
	C22.532,94.063,22.357,93.896,22.184,93.728z"/>
<path fill="#6A0809" d="M68.128,111.183c2.99-0.967,5.885-2.213,8.629-3.741c3.124-1.74,5.995-3.828,8.928-5.883
	c0.6,1.519-0.831,3.03-2.154,3.989c-14.28,10.347-35.025,14.04-51.318,6.337c-9.601-4.539-18.385-13.979-17.494-25.278
	c0.054-0.684,0.184-1.439,0.728-1.858c-0.399,0.307,0.373,3.737,0.463,4.273c1.138,6.776,4.084,12.439,9.598,16.717
	c4.307,3.342,9.486,5.435,14.8,6.656C49.463,114.498,59.189,114.075,68.128,111.183z"/>
<path fill="#6A0809" d="M173.999,78.447c0,0-0.117,0.192-0.374,0.528c-0.247,0.347-0.645,0.824-1.182,1.412
	c-0.553,0.568-1.231,1.262-2.1,1.954c-0.415,0.373-0.887,0.727-1.4,1.083c-0.514,0.351-1.03,0.77-1.629,1.101
	c-0.593,0.346-1.211,0.706-1.851,1.078c-0.646,0.364-1.361,0.64-2.072,0.979c-0.359,0.163-0.723,0.329-1.091,0.496
	c-0.375,0.15-0.764,0.273-1.153,0.414c-0.784,0.266-1.585,0.538-2.4,0.815c-0.836,0.198-1.685,0.4-2.546,0.604
	c-0.431,0.101-0.865,0.204-1.3,0.306c-0.438,0.089-0.886,0.123-1.332,0.188c-0.894,0.114-1.795,0.229-2.7,0.345
	c-0.904,0.147-1.82,0.1-2.732,0.158c-0.913,0.022-1.827,0.044-2.736,0.066c-0.908-0.024-1.809-0.105-2.705-0.154
	c-0.895-0.053-1.783-0.116-2.658-0.187c-0.874-0.076-1.724-0.259-2.567-0.38c-0.84-0.138-1.666-0.274-2.474-0.406
	c-0.808-0.136-1.597-0.268-2.347-0.485c-1.511-0.379-2.932-0.762-4.239-1.117c-1.32-0.31-2.481-0.765-3.515-1.142
	c-1.031-0.383-1.929-0.717-2.669-0.992c-1.467-0.572-2.305-0.899-2.305-0.899s0.881,0.189,2.424,0.519
	c0.765,0.176,1.694,0.39,2.759,0.636c1.062,0.25,2.25,0.563,3.578,0.762c1.321,0.228,2.748,0.477,4.25,0.767
	c0.748,0.165,1.53,0.243,2.328,0.324c0.796,0.093,1.608,0.189,2.435,0.286c0.827,0.086,1.662,0.233,2.515,0.273
	c0.854,0.027,1.717,0.065,2.586,0.112c0.869,0.037,1.745,0.105,2.624,0.117c0.878-0.032,1.759-0.065,2.64-0.097
	c0.879-0.046,1.769,0.015,2.636-0.117c0.871-0.1,1.738-0.199,2.598-0.298c0.429-0.055,0.861-0.086,1.283-0.159
	c0.42-0.082,0.838-0.164,1.254-0.245c0.833-0.163,1.655-0.323,2.465-0.482c0.791-0.229,1.569-0.453,2.33-0.673
	c0.381-0.11,0.764-0.204,1.133-0.324c0.362-0.138,0.72-0.273,1.072-0.407c0.702-0.277,1.405-0.51,2.054-0.801
	c0.646-0.302,1.27-0.594,1.868-0.874c0.611-0.265,1.129-0.631,1.667-0.912c0.535-0.287,1.031-0.577,1.471-0.89
	c0.913-0.582,1.666-1.151,2.283-1.632c0.593-0.503,1.078-0.891,1.369-1.192C173.85,78.618,173.999,78.447,173.999,78.447z"/>
<path fill="#6A0809" d="M87.535,91.979c0,0-0.163-0.23-0.53-0.601c-0.351-0.386-0.943-0.875-1.71-1.457
	c-0.389-0.284-0.846-0.565-1.336-0.87c-0.524-0.253-1.048-0.598-1.678-0.831c-0.617-0.257-1.266-0.537-1.992-0.729
	c-0.359-0.102-0.718-0.233-1.096-0.334c-0.383-0.083-0.775-0.168-1.175-0.254c-1.597-0.346-3.371-0.498-5.242-0.543
	c-1.875-0.019-3.854,0.117-5.887,0.399c-1.021,0.088-2.044,0.331-3.082,0.533c-0.519,0.103-1.04,0.208-1.565,0.312
	c-0.519,0.135-1.04,0.271-1.564,0.407c-1.064,0.278-2.136,0.557-3.213,0.838c-1.079,0.272-2.161,0.544-3.244,0.817
	c-2.243,0.391-4.549,0.787-6.783,0.851c-0.561,0.032-1.119,0.063-1.674,0.095c-0.557-0.019-1.111-0.038-1.661-0.056
	c-0.55-0.019-1.096-0.038-1.639-0.057c-0.542-0.02-1.076-0.113-1.608-0.166c-1.061-0.133-2.11-0.208-3.112-0.457
	c-1.004-0.224-1.999-0.373-2.931-0.675c-1.891-0.496-3.627-1.133-5.19-1.799c-1.566-0.662-2.942-1.392-4.128-2.088
	c-1.184-0.701-2.177-1.369-2.975-1.944c-0.798-0.576-1.381-1.085-1.779-1.429c-0.391-0.352-0.59-0.549-0.59-0.549
	s0.224,0.168,0.656,0.463c0.434,0.293,1.091,0.69,1.925,1.189c0.843,0.486,1.883,1.043,3.108,1.611
	c1.229,0.558,2.637,1.13,4.196,1.677c1.564,0.531,3.284,1.024,5.127,1.419c0.911,0.245,1.88,0.336,2.853,0.501
	c0.972,0.18,1.981,0.239,3.001,0.328c0.511,0.034,1.024,0.109,1.544,0.111c0.52,0.001,1.044,0.002,1.572,0.003
	c0.527,0.002,1.056,0.003,1.589,0.005c0.531-0.036,1.066-0.073,1.602-0.109c2.166-0.086,4.27-0.481,6.419-0.864
	c1.086-0.261,2.171-0.523,3.253-0.783c1.079-0.269,2.153-0.538,3.219-0.804c0.542-0.133,1.078-0.28,1.618-0.398
	c0.547-0.092,1.092-0.183,1.633-0.274c1.083-0.175,2.144-0.391,3.214-0.451c4.241-0.46,8.308-0.178,11.609,0.779
	c0.411,0.121,0.814,0.239,1.208,0.355c0.388,0.134,0.758,0.295,1.119,0.443c0.732,0.275,1.383,0.635,1.994,0.965
	c0.623,0.306,1.137,0.72,1.645,1.032c0.476,0.366,0.913,0.699,1.282,1.03c0.736,0.666,1.242,1.259,1.548,1.688
	C87.405,91.731,87.535,91.979,87.535,91.979z"/>
<path fill="#6A0809" d="M80.997,98.373c0,0-0.201,0.047-0.577,0.135c-0.38,0.075-0.927,0.229-1.616,0.436
	c-0.69,0.199-1.528,0.441-2.49,0.718c-0.943,0.338-2.006,0.719-3.167,1.135c-1.152,0.436-2.441,0.789-3.717,1.403
	c-1.293,0.567-2.651,1.175-4.071,1.766c-0.708,0.3-1.428,0.604-2.157,0.912c-0.741,0.305-1.49,0.614-2.246,0.926
	c-0.749,0.309-1.582,0.512-2.378,0.773c-0.806,0.239-1.628,0.376-2.444,0.569c-0.822,0.153-1.655,0.229-2.479,0.346
	c-0.827,0.081-1.654,0.113-2.473,0.171c-0.82,0.021-1.633,0.01-2.436,0.016c-0.802-0.04-1.593-0.08-2.372-0.119
	c-0.776-0.075-1.539-0.15-2.283-0.241c-0.739-0.122-1.463-0.242-2.167-0.358c-1.4-0.276-2.713-0.582-3.91-0.919
	c-1.196-0.34-2.278-0.702-3.214-1.082c-0.943-0.359-1.741-0.736-2.387-1.061c-0.647-0.328-1.135-0.618-1.452-0.842
	c-0.323-0.212-0.495-0.325-0.495-0.325s0.182,0.097,0.523,0.279c0.332,0.197,0.849,0.427,1.507,0.713
	c0.661,0.278,1.474,0.596,2.429,0.887c0.95,0.309,2.041,0.591,3.231,0.888c1.195,0.283,2.501,0.53,3.89,0.744
	c0.697,0.086,1.412,0.173,2.144,0.263c0.734,0.062,1.483,0.126,2.245,0.19c0.764,0.028,1.54,0.056,2.326,0.084
	c0.785-0.016,1.58-0.032,2.382-0.049c0.798-0.068,1.605-0.11,2.408-0.2c0.799-0.125,1.608-0.213,2.403-0.367
	c0.788-0.176,1.598-0.3,2.367-0.517c0.765-0.242,1.532-0.407,2.287-0.707c0.748-0.296,1.489-0.59,2.222-0.88
	c0.739-0.301,1.469-0.598,2.187-0.891c1.433-0.593,2.832-1.13,4.153-1.648c1.304-0.563,2.625-0.867,3.8-1.257
	c1.185-0.366,2.271-0.695,3.242-0.959c0.985-0.213,1.844-0.399,2.551-0.552c0.703-0.166,1.261-0.255,1.646-0.299
	C80.793,98.401,80.997,98.373,80.997,98.373z"/>
<path fill="#6A0809" d="M134.66,96.057c0,0,0.601-0.044,1.653-0.122c0.525-0.035,1.162-0.097,1.892-0.169
	c0.728-0.078,1.55-0.166,2.446-0.263c0.893-0.119,1.863-0.221,2.882-0.382s2.093-0.322,3.197-0.527
	c0.552-0.1,1.114-0.201,1.682-0.303c0.565-0.12,1.136-0.242,1.712-0.365c1.159-0.215,2.308-0.549,3.469-0.833
	c1.159-0.29,2.291-0.671,3.421-0.996c1.1-0.408,2.2-0.767,3.24-1.176c1.013-0.466,2.031-0.846,2.95-1.297
	c0.902-0.482,1.771-0.919,2.551-1.358c0.741-0.499,1.434-0.94,2.052-1.332c0.636-0.369,1.074-0.838,1.497-1.151
	c0.824-0.659,1.295-1.036,1.295-1.036s-0.424,0.43-1.165,1.181c-0.393,0.352-0.799,0.873-1.401,1.301
	c-0.581,0.455-1.241,0.969-1.976,1.511c-0.766,0.492-1.622,0.986-2.516,1.531c-0.911,0.513-1.917,0.966-2.946,1.461
	c-1.05,0.441-2.152,0.863-3.274,1.279c-1.145,0.342-2.296,0.742-3.471,1.046c-1.182,0.277-2.352,0.604-3.529,0.811
	c-1.169,0.246-2.327,0.438-3.453,0.591c-1.12,0.188-2.216,0.275-3.25,0.381c-1.035,0.104-2.017,0.152-2.921,0.22
	c-1.811,0.095-3.323,0.083-4.379,0.066C135.262,96.111,134.66,96.057,134.66,96.057z"/>
</svg>
