<?xml version="1.0" encoding="utf-8"?>
<!-- Generator: Adobe Illustrator 17.0.0, SVG Export Plug-In . SVG Version: 6.00 Build 0)  -->
<!DOCTYPE svg PUBLIC "-//W3C//DTD SVG 1.1//EN" "http://www.w3.org/Graphics/SVG/1.1/DTD/svg11.dtd">
<svg version="1.1" id="Layer_1" xmlns="http://www.w3.org/2000/svg" xmlns:xlink="http://www.w3.org/1999/xlink" x="0px" y="0px"
	 width="175.611px" height="180px" viewBox="0 0 175.611 180" enable-background="new 0 0 175.611 180" xml:space="preserve">
<path fill="#152E59" d="M166.723,51.001c-8.099-12.788-18.418-19.793-31.546-21.414c-6.413-0.788-12.362-0.301-17.822,1.456
	l-0.188,0.06c-0.582-1.011-1.02-2.127-2.049-2.809c-0.29-0.191-0.622-0.531-1.026-0.279c-0.385,0.24-0.301,0.657-0.236,1.03
	c0.118,0.687,0.252,1.37,0.447,2.42c-4.382-4.672-12.485-4.935-18.515-0.928c-0.382,0.206-0.764,0.412-1.145,0.618l-0.125-0.1
	c-0.334-0.268-0.372-0.667-0.416-1.129c-0.019-0.188-0.037-0.376-0.072-0.551c-0.679-3.379-1.647-7.311-3.672-10.859l-0.254-0.443
	c0.336-2.091,1.927-3.492,3.153-5.056c3.561-4.542-0.256-10.901-5.126-11.02c-1.668-0.042-3.301,0.046-4.882,0.599
	c-0.802,0.283-1.413,0.229-1.992-0.531c-1.535-1.996-3.664-2.332-5.996-1.897C73.555,0.489,72.013,1.264,70.52,2.1
	c-1.225,0.683-2.385,0.836-3.591,0.1c-1.737-1.058-3.431-0.672-5.076,0.172c-1.89,0.97-3.507,2.275-4.661,4.096
	c-1.935,2.149-3.619,4.545-3.363,7.523c0.145,1.71-0.16,3.096-0.946,4.469c-1.271,2.221-1.389,4.527-0.733,6.946
	c0.392,1.434,0.736,2.885,1.089,4.334c-0.153-0.015-0.306-0.03-0.46-0.044c-0.321-0.029-0.641-0.058-0.961-0.097
	c-10.005-1.203-19.233,0.627-27.432,5.444C17.267,39.228,12.541,45.506,9.22,50.508c-6.424,9.694-9.436,19.566-9.208,30.181
	c0.204,9.709,3.096,19.329,8.839,29.409c6.136,10.802,14.527,20.906,26.407,31.796c1.366,1.251,2.712,2.617,4.137,4.063
	c2.54,2.578,5.165,5.234,7.974,7.267v0.02l0.247,0.162c0.025,0.018,0.051,0.038,0.076,0.056l1.055,0.74l0.005-0.049L87.988,180
	l35.853-24.182l0.001,0.206l1.17-0.995l1.706-1.151l-0.001-0.044c0.045-0.039,0.094-0.077,0.135-0.116
	c1.749-1.409,3.532-2.998,5.257-4.535c0.814-0.726,1.62-1.443,2.409-2.132c13.865-12.089,27.832-25.896,36.092-44.913
	c2.89-6.651,4.495-13.037,4.905-19.526C176.192,71.762,173.317,61.419,166.723,51.001z"/>
<path fill="#00ADE8" d="M82.926,27.966c0.554-0.752,1.128-1.117,1.754-1.117c0.22,0,0.457,0.045,0.707,0.136
	c0.93,0.318,1.307,1.076,1.743,1.953c0.105,0.213,0.212,0.425,0.327,0.633c0.074,0.134,0.128,0.29,0.184,0.447
	c0.2,0.56,0.479,1.46,1.751,1.21l0.092-0.03c2.396-1.163,2.301-3.316,1.95-5.062c-0.149-0.74-0.367-1.468-0.578-2.172
	c-0.332-1.105-0.645-2.15-0.721-3.26c-0.024-0.358-0.039-0.695-0.006-1.014c1.681,3.242,2.537,6.769,3.154,9.836
	c0.031,0.151,0.046,0.311,0.06,0.472c0.039,0.409,0.086,0.895,0.379,1.311c-1.896,1.545-3.541,3.259-4.911,5.124l-0.547,0.901
	c-0.064-0.084-0.138-0.177-0.188-0.247c-0.42-0.59-2.445-1.663-2.613-1.772c-0.104-0.066-0.952-0.292-1.581-0.454
	c-0.68-0.63-1.218-1.562-1.502-2.664C81.969,30.601,82.178,28.979,82.926,27.966z"/>
<path fill="#00ADE8" d="M49.263,71.789c-4.448,3.453-5.14,5.773-5.247,6.381c-0.482,1.253-6.256,16.452-7.435,28.064
	c-1.237,12.179,1.445,17.525,1.535,17.692c1.971,4.689,6.896,7.037,8.356,7.646c0.658,3.775,0.868,17.483,0.9,19.766
	c-2.386-1.865-4.675-4.185-6.898-6.442c-1.376-1.396-2.798-2.84-4.192-4.117c-11.76-10.781-20.058-20.766-26.113-31.429
	c-5.617-9.856-8.443-19.241-8.641-28.691c-0.222-10.297,2.707-19.884,8.955-29.312c3.231-4.865,7.82-10.968,14.671-14.995
	c7.906-4.646,16.816-6.407,26.481-5.247c0.334,0.041,0.67,0.072,1.008,0.102c0.089,0.008,0.177,0.016,0.265,0.023
	c0.053,0.122,0.105,0.244,0.157,0.367c0.189,0.443,0.38,0.887,0.578,1.316c2.395,5.377,6.321,9.663,10.117,13.807l0.768,0.839
	c1.793,1.95,3.51,2.979,5.546,3.313c0.224,0.121,0.45,0.178,0.638,0.225c0.345,0.088,0.345,0.088,0.38,0.288
	c0.078,0.468,0.181,0.932,0.284,1.395c0.269,1.21,0.524,2.353,0.302,3.515l-0.056,0.294c-0.92,0.516-1.635,1.246-2.19,2.074
	c-1.113-0.214-2.229-0.272-3.352,0.084c-1.258,0.786-2.686,1.383-3.376,2.804c-0.028-0.005-0.058,0.001-0.086-0.006l-0.115-0.024
	l-0.108,0.044c-2.536,1.023-2.541,3.146-2.431,5.097C55.989,68.116,51.607,69.971,49.263,71.789z"/>
<path fill="#00ADE8" d="M62.575,62.313c0.855,0.141,1.659-0.22,2.389-0.578c0.796-0.39,1.544-0.718,2.333-0.399l0.142,0.026
	c0.311,0,0.536-0.371,0.577-0.499c0.234-0.708,0.414-0.753,0.416-0.753c0.043,0,0.11,0.042,0.182,0.096
	c-0.553,1.341-0.799,2.755-0.85,3.882c-1.146,0.34-3.921,1.184-7.059,2.306C60.615,64.625,60.701,63.12,62.575,62.313z"/>
<path fill="#00ADE8" d="M107.648,65.491c-0.225-0.082-0.412-0.149-0.529-0.19l-0.162-0.059l-0.171,0.018
	c-1.011,0.105-2,0.158-2.941,0.158c-11.597,0-14.015-7.853-14.111-8.184L89.66,57.06c-0.919-1.581-3.171-2.383-6.692-2.383
	c-4.123,0-8.657,1.065-9.156,1.186c-0.198,0.028-0.381,0.073-0.568,0.116c0.112-1.239-0.139-2.4-0.389-3.525
	c-0.097-0.437-0.195-0.875-0.269-1.318c-0.125-0.73-0.499-1.089-0.873-1.284c2.054-0.566,3.872-1.659,5.661-2.823
	c2.298-1.501,4.607-2.183,7.286-0.717V46.31l0.001,0.002l1.119,4.873c0,0,0.224-0.178,0.468-0.387c0.223,0.601,0.606,1.09,1.473,1
	c0.465-0.447,0.79-0.954,0.89-1.622c0.611-4.008,3.535-6.477,6.183-9.096c0.828-0.813,1.626-0.992,2.183,0.557
	c1.439,4.012,4.465,6.443,8.347,7.935c0.679-0.786-0.336-1.16-0.271-1.748c3.016,0.42,6.497,3.413,6.978,6.305
	c0.503,3.016,0.641,6.064-0.92,8.912c-0.301,0.549-0.92,1.206,0.03,1.779C109.9,64.682,108.783,65.13,107.648,65.491z"/>
<path fill="#00ADE8" d="M111.338,66.884c0.778-0.632,1.596-0.851,2.571,0.424c0.1,0.131,0.321,0.199,0.499,0.235
	c1.913,0.39,3.867,0.663,5.337,2.154c0.028,0.098,0.06,0.193,0.081,0.295l0.078,0.211c0.085,0.153,0.145,0.299,0.194,0.441
	C117.185,69.231,113.899,67.882,111.338,66.884z"/>
<path fill="#00ADE8" d="M173.998,82.523c-0.4,6.309-1.964,12.53-4.782,19.017c-8.141,18.741-21.968,32.402-35.698,44.374
	c-0.794,0.693-1.603,1.414-2.421,2.142c-1.45,1.292-2.94,2.614-4.407,3.832l-0.262-20.477c1.617,1.736,5.347,4.301,8.787,4.301
	c0.597,0,1.172-0.077,1.708-0.228c4.901-1.382,5.671-9.216,5.702-9.556c0.992-12.06-3.029-24.667-3.298-25.488
	c-3.092-14.217-8.178-21.095-10.862-23.886c-0.219-0.338-0.489-0.657-0.848-0.917c-0.2-0.146-0.404-0.285-0.605-0.429
	c-0.072-0.058-0.139-0.108-0.187-0.145c-0.714-1.067-2.684-2.341-5.118-3.611c0.047-0.613-0.087-1.241-0.422-1.883
	c-0.405-1.76-1.521-2.964-2.601-4.13c-0.653-0.704-1.274-1.375-1.715-2.141c1.582-1.478,3.19-3.021,4.325-5.005
	c3.503-6.142,4.279-11.916,2.37-17.651c-0.451-1.977-1.657-3.748-3.395-4.989c-1.218-0.88-1.651-1.923-1.854-3.353
	c5.093-1.538,10.618-1.94,16.577-1.209c12.649,1.562,22.61,8.34,30.451,20.72C171.86,61.951,174.658,71.997,173.998,82.523z"/>
<g>
	<path fill="#FFFFFF" d="M52.553,131.229c-0.001-0.02-0.007-0.125-0.01-0.188c-0.01-0.208-0.15-0.459-0.439-0.459
		c-0.373,0-0.558,0-0.927,0c-0.197,0-0.503,0.103-0.494,0.333c0.134,3.078,0.324,4.656,0.492,7.494
		c-0.552-0.008-0.827-0.012-1.374-0.02c-0.168-2.038-0.436-4.788-0.515-6.911c-0.001-0.02-0.015-0.209-0.018-0.251
		c-0.018-0.271-0.095-0.54-0.391-0.584c-0.128-0.02-0.62-0.062-0.704-0.062c0,0-0.148,0-0.19,0c-0.127,0-0.461,0.103-0.585,0.145
		c-0.187,0.062-0.186,0.501-0.176,0.646c0.406,5.181,0.587,7.487,0.742,12.667c0.015,0.605,0.116,1.042,0.809,1.042
		c0.253,0,0.436-0.074,0.654-0.125c0.345-0.081,0.465-0.25,0.459-0.625c-0.046-1.61-0.122-2.415-0.15-4.025c0,0,0.085,0,0.128-0.02
		c0.545,0.017,0.82,0.025,1.371,0.041c0.003,0.354,0.055,2.232,0.066,2.586c0.006,0.188,0.06,1.05,0.078,1.231
		c0.055,0.558,0.139,0.772,0.742,0.772c0.302,0,1.133,0,1.113-0.897c-0.004-0.168-0.023-0.877-0.027-1.022
		C53.161,141.07,52.644,132.793,52.553,131.229z"/>
	<path fill="#FFFFFF" d="M59.862,135.811c-0.004-0.202-0.002-0.432-0.005-0.641c-0.026-2.127-0.202-4.546-2.923-4.546
		c-1.441,0-2.608,0.584-2.679,2.816c0.381,4.638,0.305,6.673,0.32,11.312c0.022,0.125,0.111,0.25,0.242,0.25
		c0.088,0,0.285,0,0.35-0.02c0.464-0.042,0.698-0.062,1.164-0.104c0.176,0,0.289-0.121,0.306-0.229
		c0.014-0.086-0.006-0.438-0.007-0.542c-0.014-0.813-0.069-1.898-0.086-2.732c0.602,0,0.904,0,1.509,0
		c0.064,1.118,0.109,1.677,0.17,2.795c0.026,0.312,0.112,0.622,0.405,0.667c0.13,0.02,0.887,0.042,1.064,0.063c0,0,0.067,0,0.089,0
		c0.199,0,0.443-0.104,0.442-0.313c0-0.02,0-0.062,0-0.062C60.053,139.766,59.893,137.342,59.862,135.811z M57.902,139.526
		c-0.588,0-0.882,0-1.467,0c-0.022,0-0.05-0.22-0.053-0.319c-0.006-0.198-0.064-1.029-0.073-1.201
		c-0.003-0.057-0.084-1.221-0.099-1.676c-0.009-0.257-0.02-1.53-0.02-1.786c0.001-0.198,0.059-1.192,0.082-1.397
		c0.043-0.369,0.237-0.709,0.668-0.709c0.454,0,0.714,0.358,0.783,0.75c0.044,0.247,0.139,1.063,0.144,1.168
		c0.001,0.02,0.028,0.9,0.031,1.25c0.003,0.37,0.037,1.368,0.041,1.463c0.03,0.711,0.072,2.416,0.072,2.416
		C57.969,139.502,57.946,139.51,57.902,139.526z"/>
	<path fill="#FFFFFF" d="M63.237,130.395c-0.506,0-0.976-0.037-1.336,0.125c-0.22,0.099-0.268,0.605-0.259,0.876
		c0.002,4.889-0.019,7.049-0.1,11.938c0.001,0.062,0.079,0.732,0.101,0.939c0.053,0.496,0.404,0.667,0.892,0.667
		c0.044,0,0.133-0.02,0.155-0.02s0.067,0.001,0.089,0c0.513-0.02,0.667-0.041,0.685-0.646c0.123-2.537,0.2-3.903,0.283-6.227
		c0.514-0.038,1.072-0.1,1.489-0.42c1.149-0.88,1.386-3.101,1.348-4.436C66.524,131.061,65.607,130.395,63.237,130.395z
		 M64.532,135.044c-0.053,0.471-0.851,1.477-0.913,1.444c0,0-0.006-0.416-0.008-0.516c-0.001-0.14-0.003-0.51-0.003-0.531
		c0.011-0.384,0.045-2.265,0.016-2.669c-0.028-0.386,0.096-0.438,0.415-0.438c0.228,0,0.535,0.271,0.54,0.438
		c0.002,0.041,0.017,0.437,0.022,0.583c0.005,0.125,0.017,0.459,0.017,0.48C64.623,133.982,64.557,134.821,64.532,135.044z"/>
	<path fill="#FFFFFF" d="M69.348,130.395c-0.491,0-0.95-0.035-1.3,0.125c-0.216,0.099-0.269,0.605-0.266,0.876
		c-0.102,4.889-0.157,7.049-0.282,11.938c0,0.062,0.072,0.732,0.093,0.939c0.049,0.496,0.395,0.667,0.876,0.667
		c0.043,0,0.131-0.02,0.152-0.02s0.066,0.001,0.088,0c0.504-0.02,0.655-0.041,0.675-0.646c0.135-2.537,0.209-3.903,0.328-6.227
		c0.502-0.038,1.046-0.1,1.454-0.42c1.127-0.88,1.358-3.101,1.351-4.436C72.506,131.061,71.646,130.395,69.348,130.395z
		 M70.509,135.044c-0.056,0.471-0.839,1.476-0.899,1.444c0,0-0.002-0.416-0.002-0.516c0-0.14,0-0.51,0.001-0.531
		c0.012-0.385,0.085-2.264,0.067-2.669c-0.017-0.386,0.104-0.438,0.414-0.438c0.22,0,0.509,0.271,0.511,0.438
		c0,0.041,0.005,0.437,0.007,0.583c0.001,0.125,0.005,0.459,0.005,0.48C70.616,133.982,70.536,134.82,70.509,135.044z"/>
	<path fill="#FFFFFF" d="M76.912,145.022c0.334,0,0.718-0.107,0.772-0.563c0.192-1.644-0.271-4.291,0.104-4.87
		c0.511-0.789,1.773-3.003,1.981-8.24c-0.033-0.208-0.05-0.312-0.083-0.52c-0.021-0.167-0.188-0.207-0.334-0.206
		c-0.605,0.006-1.552,0.103-1.523,0.492c0.027,0.366-0.02,0.752-0.02,1.105c-0.02,4.755-0.041,5.727-1.001,5.729
		c-0.834,0.002-1.126-1.569-1.126-2.925c0-1.501,0.164-2.693,0.103-3.963c-0.02-0.419-0.728-0.332-1.21-0.332
		c-0.294,0-0.719,0.022-0.739,0.333c-0.047,0.747-0.042,1.439-0.04,2.064c0.013,6.465,1.468,6.058,1.989,6.462
		c0,0.008,0,0.012,0,0.02c0,0.02,0,0.02,0,0.02c-0.024,1.781-0.037,2.745-0.062,4.581c0.025,0.217,0.037,0.326,0.062,0.542
		c0,0.271,0.793,0.271,1.085,0.271C76.892,145.022,76.892,145.022,76.912,145.022z"/>
	<path fill="#FFFFFF" d="M89.655,132.203c0.25,0.017,0.357-1.071,0.334-1.423c-0.019-0.291-0.113-0.453-0.354-0.474
		c-0.82-0.07-2.776,0.065-2.836,0.067c-0.512,0.019-0.689,0.137-0.689,0.511c-0.033,5.215-0.05,7.651-0.084,12.865
		c0,0.021-0.002,0.232,0,0.293c0.03,0.783,0.259,0.825,1.21,0.772c0.434-0.024,0.73-0.209,0.73-0.689
		c-0.017-2.385-0.024-3.628-0.041-5.918c0.534-0.035,0.801-0.053,1.335-0.088c0.417-0.023,0.326-1.023,0.312-1.332
		c-0.02-0.445-0.449-0.531-0.855-0.496c-0.204,0.018-0.563,0.069-0.772,0.092c0-1.611,0-2.471,0-4.132
		C88.628,132.233,88.97,132.223,89.655,132.203z"/>
	<path fill="#FFFFFF" d="M95.766,134.914c0-2.127,0.02-4.55-2.461-4.517c-1.314,0.018-2.399,0.62-2.649,2.855
		c-0.025,4.639-0.038,6.862-0.063,11.5c0.02,0.125,0.104,0.25,0.229,0.25c0.084,0,0.271,0,0.334-0.02
		c0.442-0.042,0.663-0.062,1.105-0.104c0.167,0,0.274-0.12,0.292-0.229c0.014-0.087,0-0.438,0-0.542c0-0.813-0.02-1.898-0.02-2.732
		c0.568,0,0.851,0,1.419,0c0.042,1.118,0.062,1.677,0.104,2.795c0.02,0.312,0.101,0.622,0.376,0.667
		c0.121,0.02,0.834,0.042,1.001,0.063c0,0,0.063,0,0.084,0c0.187,0,0.417-0.104,0.417-0.313c0-0.02,0-0.062,0-0.062
		c-0.125-4.755-0.156-7.384-0.167-8.96C95.764,135.355,95.766,135.122,95.766,134.914z M93.951,135.373c0,0.376,0,1.427,0,1.531
		c0,0.76-0.02,2.57-0.02,2.57c-0.042,0.017-0.062,0.024-0.104,0.041c-0.551,0-0.826,0.001-1.377,0.001
		c-0.02,0-0.042-0.226-0.042-0.33c0-0.206-0.02-1.085-0.02-1.269c0-0.06-0.02-1.303-0.02-1.778c0-0.267,0.008-1.552,0.02-1.81
		c0.01-0.199,0.129-1.193,0.167-1.399c0.067-0.37,0.271-0.713,0.667-0.719c0.417-0.006,0.63,0.35,0.667,0.741
		c0.023,0.247,0.063,1.063,0.063,1.168C93.951,134.143,93.951,135.018,93.951,135.373z"/>
	<path fill="#FFFFFF" d="M98.435,130.471c-0.584,0.003-1.899,0.118-1.899,0.494c0,0.35,0,0.526,0,0.876c0,0.501,1.285,0.5,1.21,0.72
		c-0.651,1.918-0.062,10.271-0.062,11.105c0,0.355,0.013,0.656,0.02,0.75c0.038,0.464,0.334,0.5,0.75,0.5c0.02,0,0.02,0,0.041,0
		c0.876,0,0.98-0.188,0.98-1.063c0-0.271,0.063-2.106,0.063-2.378c0-2.878-0.063-6.13-0.063-9.008c0-0.167,1.314-0.253,1.314-0.919
		C100.791,130.735,100.375,130.461,98.435,130.471z"/>
	<path fill="#FFFFFF" d="M106.598,130.757c0-0.208-0.127-0.459-0.403-0.459c-0.355,0-0.534,0-0.888,0
		c-0.19,0-0.486,0.103-0.486,0.333c0,3.078-0.003,4.618,0.008,7.697c-0.542-0.008-0.813-0.013-1.352-0.02
		c-0.046-2.212-0.127-4.982-0.046-7.112c0.001-0.02,0-0.209,0-0.251c0-0.271-0.067-0.54-0.357-0.584
		c-0.125-0.02-0.609-0.062-0.693-0.062c0,0-0.146,0-0.188,0c-0.126,0-0.46,0.103-0.586,0.145c-0.188,0.062-0.209,0.5-0.209,0.646
		c0.033,5.181,0.051,7.771,0.084,12.951c0,0.605,0.103,1.042,0.796,1.042c0.252,0,0.435-0.074,0.653-0.125
		c0.344-0.081,0.463-0.25,0.463-0.625c-0.017-1.61-0.025-2.415-0.042-4.025c0,0,0.085,0,0.127-0.02
		c0.54,0.017,0.811,0.025,1.353,0.041c0,0.354,0,2.232,0,2.586c0,0.188,0.029,1.05,0.043,1.231c0.043,0.559,0.127,0.772,0.721,0.772
		c0.298,0,1.106,0,1.106-0.897c0-0.168-0.001-0.877,0-1.022c0.011-1.929-0.102-10.49-0.102-12.055
		C106.598,130.923,106.598,130.819,106.598,130.757z"/>
	<path fill="#FFFFFF" d="M109.337,130.194c-0.914,0-1.297,0-1.297,0.938c-0.025,5.105-0.013,7.659-0.038,12.764
		c0.086,0.833,0.513,0.833,1.241,0.833c0.043,0,0.064,0,0.107,0c0.729,0,2.231-0.145,2.231-0.792c0-0.376,0-0.563,0-0.939
		c0-0.187-0.236-0.292-0.386-0.292c-0.541,0-0.812,0-1.352,0c-0.064-1.314-0.032-2.586-0.053-4.4
		c0.419-0.025,0.628-0.038,1.048-0.063c0.407-0.02,0.447-0.229,0.439-0.709c-0.009-0.563,0.111-1.21-0.401-1.21
		c-0.401,0-0.602,0-1.003,0c0.02-1.677,0.046-2.515,0.08-4.191c0.673,0,1.01,0,1.684,0c0.34,0,0.34-0.751,0.34-1.23
		c0-0.021,0-0.042,0-0.063c0-0.041,0-0.062,0-0.084C111.979,130.026,109.955,130.194,109.337,130.194z"/>
	<path fill="#FFFFFF" d="M115.179,130.36c-0.703,0-2.048,0-2.09,0.939c-0.068,1.543-0.103,2.315-0.171,3.859
		c0.001,3.604,0.062,5.406,0.062,9.01c0,0.584,0.409,0.667,0.903,0.667c0.258,0,0.968-0.062,0.968-0.48
		c0-1.751-0.376-5.369-0.017-5.736c0.01-0.011,0.129,0,0.193,0c0.751,0,1.006,1.126,1.049,2.691
		c0.043,1.351,0.064,2.027,0.107,3.379c0,0.084,0.279,0.209,0.236,0.188c0.18,0,0.27,0,0.451,0c0-0.104,1.073,0.062,1.095-0.459
		c0.025-1.276,0.039-1.914,0.064-3.191c0.021-0.939-1.773-3.672-1.812-3.901c-0.006-0.035,1.966-3.775,1.966-5.235
		C118.184,130.506,116.501,130.36,115.179,130.36z M114.726,136.575c-0.02-0.013,0.167-2.865,0.218-4.213
		c0.01-0.261,0.257-0.272,0.384-0.272c0.009,0,0.013,0,0.021,0c0.021,0,0.021,0,0.021,0c0.704-0.145,0.831,0.272,0.832,0.313
		C116.266,135.137,114.82,136.639,114.726,136.575z"/>
	<path fill="#FFFFFF" d="M120.798,130.235c-1.096,0.115-1.338,0.229-1.338,3.045c0,0.793,0.106,1.585,0.531,1.585
		c0.85,0,0.78-1.935,0.913-2.753c0.017-0.1,0.149-1.195,0.19-1.272C121.104,130.822,121.068,130.206,120.798,130.235z"/>
	<path fill="#FFFFFF" d="M124.788,132.32c0.399,0,0.483,0.313,0.483,0.73c0,0.684,0,1.026,0,1.71c0,0.209,0.336,0.313,0.712,0.313
		c1.067,0,1.065-0.418,1.065-1.23c0-1.377-0.162-3.483-1.925-3.483c-2.246,0-2.74,1.585-2.74,3.462c0,2.544,2.835,5.172,2.835,8.176
		c0,0.521,0,0.772-0.189,0.772c-0.759,0-0.146-2.586-1.14-2.586c-0.19,0-1.149,0.054-1.186,0.313c-0.013,0.088,0,0.605,0,0.708
		c0,1.294,0.135,3.567,2.115,3.567c1.643,0,2.39-1.481,2.39-2.899c0-2.982-2.948-5.464-2.948-8.093
		C124.262,133.384,124.262,132.32,124.788,132.32z"/>
	<path fill="#FFFFFF" d="M78.563,150.016c-0.161,0-1.431,0.141-1.511,0.262c-0.161,0.161-0.161,0.524-0.161,0.705l-0.1,3.626v8.967
		c0,0.161,0.181,0.323,0.322,0.323h1.632c0.262,0,0.564-0.141,0.785-0.282c1.532-0.927,2.076-3.244,2.177-4.978
		c0.02-0.423,0.14-2.378,0.14-2.781C81.847,153.26,81.383,150.016,78.563,150.016z M78.582,162.187c-0.02,0-0.06-0.02-0.081-0.02
		c0-2.499,0.121-6.932,0.201-10.357c0.02,0,0.041,0,0.06,0c0.866,0,1.229,2.055,1.229,4.352
		C79.993,159.004,79.429,162.187,78.582,162.187z"/>
	<path fill="#FFFFFF" d="M87.649,152.233c-0.221-0.987-0.624-2.257-1.854-2.257c-1.451,0-2.035,1.631-2.217,2.781
		c-0.483,3.103-0.523,6.287-0.523,10.136c0.08,1.29,0.261,1.088,1.027,1.088c0.342,0,0.685-0.081,0.704-0.605l0.06-2.861l0.04-0.04
		c0-0.02,1.169-0.06,1.229-0.06l0.181,3.506c0.04,0.323,1.229,0.463,1.552,0.02c0.221-0.302,0.121-1.471,0.121-1.773
		C87.972,158.903,88.032,155.437,87.649,152.233z M86.198,158.882h-1.39c0.02-1.511,0.221-6.609,0.826-6.831
		c0.06,0.02,0.584,0.363,0.584,4.917C86.219,157.532,86.219,158.177,86.198,158.882z"/>
	<path fill="#FFFFFF" d="M93.25,149.935c-0.444,0.081-1.229,0.041-1.229,0.463c0,0.947,0.121,1.874,0.121,2.841
		c0,0.041,0,0.081,0,0.141c0,0.745-0.181,2.418-0.826,2.357c-0.745-0.06-0.745-1.249-0.745-1.309c0-1.39,0.121-2.841,0.121-4.252
		c-0.181-0.444-0.726-0.282-1.25-0.242c-0.282-0.04-0.543,0.363-0.543,0.605v3.204c0,0.947,0.201,2.317,0.826,3.123
		c0.161,0.181,0.785,0.503,0.785,0.584c0,2.136-0.14,4.03-0.14,6.328c0.04,0.261,0.18,0.382,0.463,0.382
		c0.463,0,1.349-0.081,1.471-0.605c0-2.055-0.041-4.03-0.041-6.166c1.088-0.624,1.572-2.62,1.572-3.384
		c0.201-1.008,0.1-2.137,0.1-3.385C93.935,150.177,93.834,149.895,93.25,149.935z"/>
	<path fill="#FFFFFF" d="M38.643,101.447c-0.594,0-1.929,0.112-1.985,0.492c-0.053,0.354-0.078,0.527-0.127,0.87
		c-0.07,0.492,1.224,0.485,1.116,0.711c-0.878,1.842-0.747,10.254-0.703,11.103c0.019,0.361,0.056,0.653,0.071,0.743
		c0.076,0.447,0.382,0.467,0.811,0.466c0.02,0,0.02,0,0.043,0c0.899,0,0.983-0.142,0.934-1.022
		c-0.016-0.273,0.004-2.184,0.004-2.461c-0.003-2.933,0.246-6.107,0.623-8.912c0.022-0.163,1.396-0.241,1.487-0.901
		C41.025,101.734,40.616,101.446,38.643,101.447z"/>
	<path fill="#FFFFFF" d="M46.496,112.11c0.025-0.94-1.734-3.656-1.763-3.858c0,0,2.472-3.75,2.627-5.184
		c0.169-1.556-1.584-1.73-2.96-1.73c-0.733,0-2.122,0.017-2.293,0.951c-0.279,1.538-0.418,2.296-0.642,3.813
		c-0.358,3.542-0.495,5.472-0.267,9.017c0.037,0.575,0.472,0.638,0.99,0.638c0.27,0,1.009-0.052,0.981-0.457
		c-0.114-1.7-0.427-5.373-0.021-5.757c0.013-0.012,0.136,0,0.205,0c0.796,0,0.99,1.073,1.036,2.648
		c0.045,1.361,0.075,2.15,0.218,3.428c0.006,0.079,0.314,0.194,0.266,0.176c0.193,0,0.29,0,0.483,0
		c-0.008-0.097,1.156,0.068,1.148-0.437C46.458,114.119,46.467,113.389,46.496,112.11z M43.219,107.504c0,0,0.466-2.847,0.681-4.169
		c0.041-0.254,0.3-0.266,0.436-0.266c0.009,0,0.013,0,0.021,0c0.022,0,0.022,0,0.022,0c0.756-0.143,0.843,0.266,0.839,0.306
		C44.977,106.037,43.305,107.571,43.219,107.504z"/>
	<path fill="#FFFFFF" d="M52.962,101.397c-0.481,0-0.991,0.089-1.009,0.528c-0.114,2.989-0.34,6.617-0.38,8.745
		c-0.004,0.208-0.006,0.408-0.008,0.587c-0.013,1.473-0.137,2.432-0.611,2.432c-0.45,0-1.261-0.265-0.658-8.008
		c0.084-1.073,0.203-2.213,0.335-3.568c0.069-0.709-1.224-0.808-1.666-0.629c-0.36,0.145-0.433-0.094-0.647,2.031
		c-0.068,0.674-0.139,1.431-0.189,1.997c-0.06,0.671-0.171,2.051-0.244,3.467c-0.019,0.354,0.02,2.551,0.038,2.881
		c0.083,1.543,0.92,4.027,3.256,4.027c2.193,0,2.336-2.296,2.424-3.77c0.191-3.153,0.359-5.898,0.549-8.625
		c0.012-0.165,0.022-0.331,0.033-0.473C54.297,101.654,54.332,101.396,52.962,101.397z"/>
	<path fill="#FFFFFF" d="M58.335,101.331c-2.438,0.001-3.087,1.578-3.196,3.436c-0.148,2.52,2.781,5.088,2.787,8.136
		c0.001,0.53,0.005,0.784-0.209,0.785c-0.852,0-0.162-2.586-1.278-2.586c-0.214,0-1.291,0.052-1.334,0.3
		c-0.015,0.084-0.004,0.595-0.004,0.699c-0.004,1.293,0.208,3.589,2.425,3.587c1.84-0.001,2.64-1.476,2.64-2.909
		c-0.001-3.015-3.079-5.449-2.953-8.052c0.019-0.392,0.074-1.44,0.65-1.44c0.438,0,0.516,0.307,0.497,0.72
		c-0.03,0.675-0.045,1.012-0.072,1.699c-0.009,0.21,0.361,0.315,0.78,0.315c1.188,0,1.198-0.422,1.224-1.229
		C60.338,103.425,60.25,101.331,58.335,101.331z"/>
	<path fill="#FFFFFF" d="M62.348,103.51c-0.71,1.813-0.216,10.244-0.205,11.08c0.005,0.355,0.026,0.654,0.036,0.746
		c0.052,0.455,0.382,0.489,0.844,0.489c0.022,0,0.022,0,0.046,0c0.968,0,1.072-0.176,1.061-1.05c-0.003-0.271,0.06-2.121,0.06-2.392
		c0.009-2.884-0.02-6.107,0.035-8.957c0.003-0.166,1.414-0.248,1.424-0.912c0.013-0.809-0.413-1.083-2.5-1.081
		c-0.628,0-2.056,0.107-2.07,0.483c-0.014,0.35-0.02,0.525-0.032,0.871C61.032,103.286,62.434,103.292,62.348,103.51z"/>
	<path fill="#FFFFFF" d="M74.093,115.553c0.014-0.086,0-0.436,0-0.54c0-0.81-0.021-1.89-0.021-2.72c0.565,0,0.848,0,1.413,0
		c0.042,1.113,0.062,1.67,0.104,2.783c0.021,0.312,0.101,0.62,0.375,0.665c0.12,0.02,0.831,0.041,0.996,0.061c0,0,0.062,0,0.084,0
		c0.186,0,0.415-0.103,0.415-0.311c0-0.021,0-0.062,0-0.062c-0.124-4.736-0.155-7.383-0.166-8.952c-0.001-0.207,0-0.436,0-0.644
		c0-2.119,0.02-4.528-2.451-4.528c-1.309,0-2.389,0.582-2.64,2.804c-0.025,4.618-0.043,6.935-0.063,11.548
		c0.021,0.125,0.105,0.249,0.231,0.249c0.083,0,0.27,0,0.333-0.02c0.44-0.042,0.66-0.062,1.101-0.104
		C73.968,115.783,74.075,115.663,74.093,115.553z M73.926,105.21c0.01-0.198,0.129-1.186,0.167-1.392
		c0.066-0.367,0.269-0.706,0.664-0.706c0.416,0,0.628,0.357,0.665,0.748c0.022,0.246,0.061,1.059,0.061,1.163
		c0,0.021,0,0.894,0,1.247c0,0.374,0,1.433,0,1.538c0,0.768-0.02,2.596-0.02,2.596c-0.042,0.017-0.062,0.025-0.104,0.041
		c-0.548,0-0.822,0-1.371,0c-0.021,0-0.041-0.228-0.041-0.332c0-0.208-0.021-1.101-0.021-1.288c0-0.062-0.021-1.33-0.021-1.807
		C73.904,106.747,73.913,105.466,73.926,105.21z"/>
	<path fill="#FFFFFF" d="M78.891,115.471c0,0.375,0.374,0.436,0.686,0.436c0.008,0,0.013,0,0.02,0c0.229,0,1.101,0,1.101-0.415
		c-0.066-3.54-0.1-5.309-0.167-8.849c1.703,5.567,2.077,9.182,2.701,9.182c0.312,0,1.122-0.021,1.142-0.727
		c0.083-5.317,0.125-7.976,0.208-13.294c-0.332-0.561-1.911-0.52-1.911,0.25c0.017,2.783,0.024,4.175,0.041,6.958
		c-0.657-2.783-0.984-4.175-1.641-6.958c-0.145-0.623-0.332-0.623-1.33-0.623c-0.041,0-0.061,0-0.104,0
		c-0.705,0-0.935,0.021-0.935,0.623C78.779,107.42,78.816,110.104,78.891,115.471z"/>
	<path fill="#FFFFFF" d="M88.194,101.409c-0.432,0-0.648,0-1.08,0c-0.25,0-1.08,0.228-1.08,0.56c0,0.021,0,0.042,0,0.042
		c-0.083,5.334-0.125,8.001-0.208,13.335c0,0.415,0.54,0.415,0.831,0.415c2.805,0,4.196-4.424,4.196-8.349
		C90.854,104.255,89.96,101.409,88.194,101.409z M87.613,113.124c0.066-3.905,0.1-5.858,0.167-9.763
		c0.041-0.02,0.083-0.02,0.124-0.02c0.727,0,0.997,1.785,0.997,3.842C88.902,110.07,88.236,113.124,87.613,113.124z"/>
	<path fill="#FFFFFF" d="M98.934,104.732c0-0.395,0-1.454,0.519-1.454c0.395,0,0.478,0.311,0.478,0.727c0,0.681,0,1.021,0,1.702
		c0,0.208,0.332,0.312,0.705,0.312c1.06,0,1.06-0.415,1.06-1.225c0-1.371-0.167-3.469-1.91-3.469c-2.222,0-2.701,1.579-2.701,3.448
		c0,2.535,2.659,5.151,2.659,8.143c0,0.52,0,0.768-0.186,0.768c-0.748,0-0.145-2.575-1.121-2.575c-0.186,0-1.127,0.053-1.163,0.311
		c-0.013,0.089,0,0.603,0,0.706c0,1.288,0.124,3.552,2.076,3.552c1.621,0,2.368-1.475,2.368-2.887
		C101.716,109.821,98.934,107.349,98.934,104.732z"/>
	<path fill="#FFFFFF" d="M106.868,101.72c-0.001-0.727-1.974-0.561-2.576-0.561c-0.894,0-1.266,0-1.266,0.935
		c-0.025,5.085-0.037,7.627-0.062,12.712c0.084,0.831,0.499,0.831,1.205,0.831c0.041,0,0.062,0,0.104,0
		c0.705,0,2.16-0.145,2.16-0.789c0-0.374,0-0.561,0-0.935c0-0.186-0.228-0.291-0.375-0.291c-0.523,0-0.785,0-1.308,0
		c-0.062-1.309-0.041-2.576-0.041-4.382c0.407-0.025,0.611-0.037,1.018-0.062c0.395-0.021,0.436-0.228,0.436-0.706
		c0-0.56,0.125-1.204-0.374-1.204c-0.39,0-0.585,0-0.976,0c0.033-1.67,0.05-2.505,0.083-4.175c0.657,0,0.983,0,1.642,0
		c0.333,0,0.333-0.747,0.332-1.226c0-0.02,0-0.041,0-0.061C106.868,101.762,106.868,101.742,106.868,101.72z"/>
	<path fill="#FFFFFF" d="M111.398,106.016c0.482-0.001,0.938-0.274,0.992-1.078c0.093-1.363-0.254-3.903-2.399-3.903
		c-2.86,0-2.822,4.873-2.812,6.937c0.001,0.145,0,0.27,0,0.374c0,1.784,0.097,3.091,0.339,4.342c0.275,1.421,0.789,3.158,2.6,3.158
		c2.37,0,2.301-3.272,2.273-4.619c-0.012-0.559,0.055-1.382-0.565-1.381c-0.341,0.001-0.512,0.002-0.853,0.003
		c-0.256,0.001-0.497,0.115-0.485,0.356c0.039,0.806,0.303,3.542-0.638,3.542c-0.792,0-0.721-4.061-0.744-4.661
		c0,0-0.265-5.89,0.791-5.89c0,0,0.02,0,0.041,0c0.041,0,0.062,0,0.103,0c0.393,0,0.48,0.374,0.485,0.85
		c0.004,0.415-0.056,0.87-0.054,1.244C110.477,106.038,110.854,106.017,111.398,106.016z"/>
	<path fill="#FFFFFF" d="M118.613,103.012c-0.111-1.374-0.137-1.621-1.342-1.621c-0.421,0-0.857,0.085-0.804,0.522
		c0.364,2.977,0.471,6.561,0.593,8.737c0.012,0.213,0.024,0.423,0.033,0.609c0.075,1.532-0.055,2.426-0.499,2.426
		c-0.421,0-0.888-0.401-1.13-8.007c-0.033-1.055-0.061-2.227-0.142-3.579c-0.042-0.707-1.231-0.792-1.576-0.625
		c-0.27,0.131-0.376-0.118-0.308,2.035c0.021,0.683,0.039,1.449,0.05,2.007c0.013,0.662,0.042,2.049,0.073,3.454
		c0.008,0.351,0.162,2.585,0.186,2.92c0.114,1.566,0.826,3.997,3.046,3.998c2.084,0,2.221-2.279,2.235-3.758
		c0.03-3.166-0.149-5.899-0.376-8.642C118.639,103.322,118.625,103.155,118.613,103.012z"/>
	<path fill="#FFFFFF" d="M122.669,115.272c-0.119-1.734-0.728-5.434-0.411-5.783c0.009-0.01,0.131-0.001,0.196-0.001
		c0.762-0.004,1.157,1.137,1.314,2.714c0.14,1.364,0.172,2.074,0.331,3.4c0.007,0.082,0.314,0.203,0.266,0.183
		c0.191,0,0.286,0,0.477,0c-0.01-0.101,1.139,0.065,1.113-0.45c-0.088-1.26-0.089-1.934-0.171-3.221
		c-0.058-0.947-2.173-3.67-2.218-3.901c-0.006-0.029,1.589-3.72,1.35-5.161c-0.26-1.564-1.889-1.723-3.128-1.724
		c-0.66,0-1.914,0.004-1.848,0.938c0.11,1.537,0.132,2.257,0.18,3.816c0.27,3.639,0.379,5.422,0.569,9.004
		c0.031,0.58,0.469,0.66,0.992,0.66C121.956,115.745,122.697,115.685,122.669,115.272z M122.02,107.485
		c-0.049-0.031-0.064-2.838-0.178-4.164c-0.022-0.26,0.212-0.268,0.336-0.268c0.008,0,0.012,0,0.02,0c0.02,0,0.02,0,0.02,0
		c0.656-0.144,0.834,0.269,0.841,0.309C123.49,106.068,122.123,107.55,122.02,107.485z"/>
	<path fill="#FFFFFF" d="M127.338,101.266c-0.056-0.004-0.121,0-0.18,0c-0.1,0-0.361,0-0.361,0c-0.1,0-0.565,0.082-0.658,0.105
		c-0.075,0.019-0.135,0.107-0.117,0.209c0.441,2.503,1.473,12.005,1.575,13.175c0.004,0.042,0.006,0.062,0.009,0.104
		c0.002,0.02,0.001,0.021,0.004,0.042c0.042,0.344,0.164,0.925,0.661,0.925c0.398,0,0.597,0,0.994,0c0.158,0,0.298-0.141,0.28-0.284
		c-0.592-5.506-0.628-8.359-1.864-14.003C127.643,101.372,127.474,101.276,127.338,101.266z"/>
	<path fill="#FFFFFF" d="M133.567,112.352c-0.345-2.936-1.009-6.112-1.672-8.933c-0.038-0.164,1.245-0.243,1.069-0.903
		c-0.214-0.804-0.71-1.082-2.587-1.083c-0.565,0-1.807,0.105-1.719,0.481c0.082,0.349,0.121,0.523,0.197,0.869
		c0.108,0.495,1.377,0.523,1.348,0.718c-0.285,1.905,1.544,10.246,1.631,11.087c0.037,0.358,0.088,0.657,0.108,0.749
		c0.1,0.461,0.424,0.489,0.871,0.489c0.021,0,0.021,0,0.045,0c0.936,0,1.005-0.168,0.902-1.048
		C133.727,114.508,133.6,112.629,133.567,112.352z"/>
	<path fill="#FFFFFF" d="M139.219,110.404c0.315-0.687,1.501-3.116,0.091-8.338c-0.099-0.208-0.148-0.313-0.25-0.524
		c-0.074-0.168-0.256-0.212-0.401-0.212c-0.602,0-1.51,0.081-1.356,0.483c0.14,0.363,0.208,0.748,0.305,1.096
		c1.306,4.67,1.229,5.735,0.262,5.738c-0.842,0.002-1.444-1.692-1.717-3.014c-0.302-1.464-0.447-2.618-0.887-3.883
		c-0.148-0.427-0.819-0.336-1.287-0.336c-0.285,0-0.686,0.022-0.615,0.335c0.171,0.749,0.35,1.426,0.499,2.037
		c1.527,6.31,2.701,6.182,3.325,6.622c0.002,0.009,0.003,0.014,0.005,0.022c0.005,0.021,0.005,0.021,0.005,0.021
		c0.38,1.948,0.366,2.862,0.6,4.683c0.057,0.216,0.086,0.322,0.147,0.532c0.045,0.262,0.864,0.26,1.164,0.26
		c0.021,0,0.021,0,0.043,0c0.342,0,0.71-0.101,0.693-0.543C139.782,113.762,138.934,111.026,139.219,110.404z"/>
	<path fill="#FFFFFF" d="M40.318,97.564c0.025,0,0.025,0,0.05,0c1.06,0,1.244-0.242,1.507-1.351c0.082-0.343,0.743-2.644,0.83-2.979
		c0.932-3.559,2.014-7.517,3.252-11.226c0.071-0.215,1.603-0.329,1.884-1.17c0.342-1.026,0.001-1.335-2.182-1.336
		c-0.658-0.001-2.193,0.116-2.363,0.576c-0.159,0.428-0.239,0.65-0.397,1.097c-0.226,0.639,1.255,0.615,1.049,0.94
		c-1.68,2.663-3.916,12.803-4.179,13.86c-0.111,0.449-0.185,0.828-0.205,0.953C39.475,97.51,39.814,97.563,40.318,97.564z"/>
	<path fill="#FFFFFF" d="M45.177,91.803c-0.498,2.718-0.414,5.522,2.662,5.523c2.794,0.001,3.886-2.833,4.576-6.518
		c0.434-2.318,0.794-4.975,1.278-7.598c0.445-2.411-0.214-3.728-1.572-3.729c-1.45-0.001-2.283,0.432-3.313,1.648
		c-0.883,1.042-1.869,3.505-2.364,5.184C45.897,88.175,45.509,89.991,45.177,91.803z M47.728,89.696
		c0.019-0.078,0.241-1.051,0.338-1.419c0.158-0.606,0.351-1.423,0.578-2.246c0.566-2.058,1.415-4.422,2.507-4.421
		c0.546,0.001,0.857,0.325,0.585,1.548c-0.905,4.094-1.432,7.067-1.989,9.774c-0.096,0.463-0.497,2.288-1.578,2.287
		C47.477,95.22,46.651,94.248,47.728,89.696z"/>
	<path fill="#FFFFFF" d="M62.837,82.122c-1.012,2.52-1.101,12.826-1.172,13.872c-0.029,0.445-0.035,0.823-0.032,0.942
		c0.017,0.577,0.422,0.629,0.991,0.629c0.028,0,0.028,0,0.057,0c1.195,0,1.336-0.237,1.383-1.335
		c0.015-0.34,0.208-2.633,0.224-2.971c0.177-3.582,0.304-7.616,0.54-11.243c0.014-0.21,1.518-0.316,1.557-1.151
		c0.048-1.019-0.403-1.348-2.541-1.35c-0.644-0.001-2.104,0.124-2.16,0.589c-0.053,0.434-0.078,0.654-0.131,1.095
		C61.482,81.829,62.954,81.832,62.837,82.122z"/>
	<path fill="#FFFFFF" d="M68.518,97.62c0.433-0.101,0.58-0.313,0.583-0.782c-0.003-2.015,0.005-3.021,0.008-5.024
		c0,0,0.101,0,0.152-0.025c0.648,0.02,0.969,0.031,1.601,0.053c-0.002,0.442-0.013,2.784-0.015,3.226
		c-0.001,0.235,0.029,1.311,0.045,1.539c0.049,0.7,0.155,0.965,0.844,0.965c0.345,0,1.258,0,1.258-1.119
		c0-0.209-0.001-1.095,0-1.276c0.012-2.41-0.095-13.098-0.094-15.05c0-0.026,0-0.156,0-0.235c0-0.26-0.142-0.572-0.45-0.573
		c-0.397,0-0.594,0-0.989,0c-0.211,0-0.54,0.129-0.542,0.414c-0.023,3.831-0.033,5.766-0.05,9.613
		c-0.627-0.01-0.944-0.015-1.584-0.025c-0.017-2.765-0.06-6.219,0.076-8.888c0.001-0.025,0.004-0.26,0.005-0.312
		c0.006-0.338-0.064-0.67-0.384-0.726c-0.138-0.023-0.672-0.077-0.765-0.077c0,0-0.162,0-0.209,0c-0.14,0-0.514,0.128-0.655,0.18
		c-0.212,0.077-0.257,0.62-0.263,0.801c-0.216,6.453-0.292,9.685-0.4,16.175c-0.018,0.758,0.115,1.306,0.999,1.306
		C68.013,97.776,68.245,97.683,68.518,97.62z"/>
	<path fill="#FFFFFF" d="M75.814,97.333c0.047,0,0.071,0,0.118,0c0.806,0,2.463-0.182,2.463-0.989c0-0.469,0-0.703,0-1.172
		c0-0.234-0.26-0.364-0.426-0.364c-0.597,0-0.896,0-1.492,0c-0.071-1.641-0.042-3.229-0.049-5.494
		c0.463-0.031,0.695-0.047,1.158-0.078c0.449-0.026,0.495-0.287,0.491-0.886c-0.004-0.702,0.134-1.51-0.432-1.51
		c-0.443,0-0.664,0-1.108,0c0.034-2.094,0.077-3.141,0.103-5.235c0.743,0,1.114-0.001,1.855-0.001c0.374,0,0.36-0.939,0.343-1.536
		c-0.001-0.026-0.002-0.053-0.002-0.078c-0.001-0.052-0.002-0.078-0.003-0.104c-0.027-0.909-2.222-0.701-2.9-0.701
		c-1.004,0-1.426,0-1.421,1.171c-0.001,6.373-0.044,9.562-0.073,15.937C74.535,97.333,75.008,97.333,75.814,97.333z"/>
	<path fill="#FFFFFF" d="M95.889,82.142c-0.071-0.914-0.173-2.316-0.607-2.495c-0.481-0.198-1.887-0.105-1.781,0.726
		c0.217,1.686,0.283,3.183,0.3,4.512c0.124,9.102-0.371,9.661-0.678,9.973c-0.023,0.024-0.025,0.026-0.047,0.052
		c-0.143,0.171-0.26,0.287-0.355,0.287c-0.544,0-0.624-2.369-0.719-5.311c-0.113-3.489,0.082-7.802-0.167-9.771
		c-0.065-0.519-0.588-0.62-1.044-0.62c-1.003,0-1.078,0.181-1.035,0.907c0.017,0.274,0.085,0.65,0.117,1.118
		c0.017,0.24,0.023,0.36,0.037,0.6c0.187,3.47,0.094,6.543,0.128,8.678c0.045,2.813,0.007,4.088-0.894,4.088
		c-0.45,0-1.008-0.458-1.05-10.024c-0.006-1.33-0.006-2.822-0.154-4.511c-0.082-0.935-1.853-1.035-2.118-0.414
		c-0.077,0.18-0.023,0.595,0.033,2.185c0.097,2.754,0.038,4.13,0.103,6.879c0.011,0.443,0.136,3.224,0.154,3.646
		c0.091,1.969,0.829,4.999,3.174,4.999c0.9,0,1.761-1.174,1.847-1.172c0,0,0.877,1.198,1.801,1.198c2.344,0,3.083-3.031,3.174-4.999
		c0.02-0.421,0.06-3.203,0.038-3.645C96.014,86.278,96.103,84.9,95.889,82.142z"/>
	<path fill="#FFFFFF" d="M97.694,97.36c0.023,0.156,0.118,0.312,0.26,0.312c0.095,0,0.307,0,0.38-0.026
		c0.502-0.052,0.753-0.078,1.255-0.131c0.189,0,0.311-0.148,0.332-0.287c0.017-0.11,0-0.547,0-0.677
		c0-1.015-0.023-2.369-0.023-3.411c0.644,0,0.967,0,1.611,0c0.048,1.395,0.071,2.094,0.118,3.489
		c0.023,0.39,0.119,0.779,0.426,0.833c0.135,0.023,0.947,0.053,1.137,0.078c0,0,0.071,0,0.095,0c0.213,0,0.476-0.13,0.476-0.391
		c0-0.026,0-0.078,0-0.078c-0.144-5.936-0.39-9.256-0.437-11.223c-0.006-0.259-0.004-0.546-0.005-0.808
		c-0.014-2.659-0.552-5.679-3.338-5.679c-1.474,0-2.405,0.712-2.52,3.509C97.779,88.691,97.722,91.569,97.694,97.36z M99.472,84.259
		c0.005-0.251,0.08-1.495,0.103-1.752c0.042-0.463,0.226-0.889,0.675-0.889c0.472,0,0.763,0.447,0.841,0.94
		c0.049,0.31,0.141,1.335,0.145,1.465c0.001,0.026,0.02,1.123,0.023,1.566c0.005,0.468,0.061,1.797,0.068,1.927
		c0.052,0.963,0.142,3.255,0.142,3.255c-0.047,0.02-0.07,0.031-0.117,0.052c-0.625,0-0.939,0-1.564,0
		c-0.023,0-0.056-0.286-0.06-0.416c-0.01-0.26-0.088-1.38-0.101-1.615c-0.004-0.078-0.116-1.666-0.138-2.265
		C99.479,86.189,99.467,84.584,99.472,84.259z"/>
	<path fill="#FFFFFF" d="M105.26,90.409c0.002,0.052,0.001,1.405,0.004,1.952c0.02,3.806-0.419,5.285,1.341,5.285
		c0.906,0,3.199-0.235,3.179-0.938c-0.012-0.426-0.018-0.64-0.029-1.066c-0.008-0.286-0.657-0.468-0.897-0.468
		c-0.564,0-0.843,0-1.394,0c-0.031-5.912,0.322-8.914-0.791-14.807c-0.097-0.494-0.449-0.723-0.836-0.722
		c-0.375,0-0.562,0-0.94,0.001c-0.23,0-0.156,0.852-0.131,1.008C105.369,84.541,105.148,86.514,105.26,90.409z"/>
	<path fill="#FFFFFF" d="M110.395,90.406c0.004,0.052,0.052,1.401,0.076,1.951c0.168,3.822-0.269,5.289,1.654,5.289
		c0.99,0,3.431-0.235,3.373-0.939c-0.035-0.427-0.053-0.64-0.089-1.067c-0.023-0.287-0.719-0.468-0.973-0.468
		c-0.598,0-0.896,0-1.487,0.001c-0.298-5.915-0.169-8.907-1.713-14.81c-0.133-0.494-0.489-0.722-0.862-0.722
		c-0.36,0-0.541,0-0.903,0.001c-0.221,0-0.1,0.852-0.066,1.008C110.227,84.551,110.145,86.516,110.395,90.406z"/>
	<path fill="#FFFFFF" d="M123.556,91.776c0.814,2.935,2.146,5.556,5.254,5.556c2.822,0,2.739-2.917,1.531-6.571
		c-0.76-2.3-1.923-4.912-3.367-7.53c-1.33-2.41-3.184-3.749-4.472-3.748c-1.376,0.001-1.745,0.459-1.794,1.662
		c-0.042,1.045,0.626,3.466,1.12,5.139C122.375,88.136,123.042,89.922,123.556,91.776z M123.311,81.624
		c0.524,0,1.104,0.333,1.727,1.551c2.086,4.08,3.015,6.983,3.738,9.76c0.124,0.476,0.556,2.31-0.534,2.31
		c-0.699,0-1.686-1.005-3.132-5.591c-0.024-0.077-0.351-1.051-0.47-1.419c-0.196-0.605-0.495-1.422-0.767-2.238
		C123.193,83.956,122.263,81.624,123.311,81.624z"/>
	<path fill="#FFFFFF" d="M133.45,96.105c0.008,0.026,0.076,0.291,0.1,0.366c0.31,0.992,0.632,1.032,1.79,0.966
		c0.531-0.031,0.82-0.261,0.649-0.861c-0.873-2.982-1.237-4.463-2.456-7.481c0.612-0.042,0.914-0.063,1.512-0.105
		c0.469-0.027-0.184-1.343-0.374-1.743c-0.282-0.592-0.814-0.688-1.269-0.649c-0.222,0.019-0.616,0.079-0.847,0.104
		c-0.901-2.061-1.363-2.984-2.646-5.128c0.759-0.011,1.141-0.016,1.907-0.026c0.3,0.027-0.443-1.363-0.745-1.791
		c-0.251-0.355-0.455-0.542-0.774-0.572c-0.923-0.083-3.059,0.023-3.125,0.024c-0.54,0.012-0.652,0.142-0.366,0.6
		C130.74,86.177,131.711,89.585,133.45,96.105z"/>
</g>
<path d="M115.387,63.529L115.387,63.529c-0.144,0.088-0.287,0.182-0.433,0.263C115.101,63.711,115.242,63.615,115.387,63.529z"/>
<path d="M88.88,37.782l-0.057,0.254c-0.019-0.022-0.037-0.046-0.056-0.068L88.88,37.782z"/>
</svg>
