<?xml version="1.0" encoding="utf-8"?>
<!-- Generator: Adobe Illustrator 23.0.1, SVG Export Plug-In . SVG Version: 6.00 Build 0)  -->
<svg version="1.1" id="Layer_1" xmlns="http://www.w3.org/2000/svg" xmlns:xlink="http://www.w3.org/1999/xlink" x="0px" y="0px"
	 viewBox="0 0 518.31 180" style="enable-background:new 0 0 518.31 180;" xml:space="preserve">
<style type="text/css">
	.st0{fill:#AED8A1;}
	.st1{fill:#EF4657;}
	.st2{fill:#834D1D;}
	.st3{fill:#FAA93B;}
	.st4{fill:#F26A5F;}
	.st5{fill:#6DA97C;}
	.st6{fill:none;stroke:#000000;stroke-miterlimit:10;}
	.st7{fill:#91C598;}
	.st8{fill:#D6E397;}
	.st9{fill:#DEEAAC;}
	.st10{fill:#B81E79;}
	.st11{fill:#D71A30;}
	.st12{fill:#D4E48E;}
	.st13{fill:#98CA3C;}
	.st14{fill:#FFC91D;}
	.st15{fill:#973D7A;}
	.st16{fill:#EEDC7E;}
	.st17{fill:#ABD498;}
</style>
<g>
	<path class="st13" d="M50.21,67.75c-4.14-2-7.87-5.87-11.02-9.42C28.05,45.76,15.66,34.31,2.26,24.19c-0.92-0.7-1.91-1.47-2.19-2.6
		c-0.34-1.36,0.48-2.71,1.28-3.85c3.22-4.6,10.02-15.69,15.58-17.5c3.64-1.19,4.53,2.27,6.88,5.54c2.22,3.08,4.46,6.15,6.78,9.16
		c9.15,11.88,19.49,23.18,32.5,30.9c-1.6,7.65-3.19,15.29-4.79,22.94C55.48,69.5,52.76,68.98,50.21,67.75z"/>
</g>
<g>
	<path class="st14" d="M64.61,44.59c-8.51,1.96-14.9,8.05-14.9,20.62c0,13.76,29.58,110.06,210.49,113.5
		c72.51,1.38,147.24-17.33,202.22-66.62c13.74-12.32,26.75-26.36,34.38-43.38c3.87-8.62,6.28-17.92,6.71-27.38
		c0.22-4.94-2.5-20.69-9.43-21.52c0,0-34.39-4.13-74.97,14.44c-43.21,19.78-86.69,36.24-134.27,42.24
		c-48.31,6.09-97.84,2.93-144.87-9.78c-13.29-3.59-26.11-7.77-38.51-13.71C89.98,47.51,77.65,41.58,64.61,44.59z"/>
</g>
<g>
	<path d="M280.96,180c-2.46,0-4.92-0.02-7.4-0.07c-95.48-1.82-147.25-29.92-173.87-53.18C68.3,99.31,61.88,71.23,61.88,65.21
		c0-15.01,8.62-20.15,15.85-21.81c13.41-3.09,26.22,3.04,37.53,8.45c11.01,5.27,22.82,9.47,38.42,13.69
		c46.14,12.47,96.06,15.84,144.39,9.75c50.86-6.41,96.24-24.9,133.91-42.14c40.43-18.5,75.28-14.58,75.63-14.55
		c8.89,1.07,10.73,20.03,10.7,23.48c-0.08,8.83-2.26,17.96-6.49,27.13c-8.56,18.53-23.3,33.14-35.19,43.8
		C428.29,156.33,359.02,180,280.96,180z M85.25,45c-2.3,0-4.63,0.24-6.97,0.78l0,0c-9.13,2.1-13.96,8.82-13.96,19.43
		c0,5.43,6.58,33.13,36.98,59.7c26.31,22.99,77.56,50.78,172.3,52.58c2.46,0.05,4.92,0.07,7.35,0.07
		c77.47,0,146.13-23.44,194.03-66.38c11.71-10.5,26.23-24.88,34.6-43c4.09-8.85,6.2-17.64,6.27-26.12
		c0.05-5.98-2.79-20.34-8.55-21.03c-0.35-0.04-34.55-3.86-74.32,14.34c-37.84,17.32-83.43,35.89-134.62,42.34
		c-48.64,6.13-98.89,2.73-145.34-9.82c-15.74-4.26-27.69-8.51-38.72-13.79C104.89,49.59,95.28,45,85.25,45z"/>
</g>
</svg>
