<?xml version="1.0" encoding="utf-8"?>
<!-- Generator: Adobe Illustrator 23.0.1, SVG Export Plug-In . SVG Version: 6.00 Build 0)  -->
<svg version="1.1" id="Layer_1" xmlns="http://www.w3.org/2000/svg" xmlns:xlink="http://www.w3.org/1999/xlink" x="0px" y="0px"
	 viewBox="0 0 201.79 180" style="enable-background:new 0 0 201.79 180;" xml:space="preserve">
<style type="text/css">
	.st0{fill:#AED8A1;}
	.st1{fill:#EF4657;}
	.st2{fill:#834D1D;}
	.st3{fill:#FAA93B;}
	.st4{fill:#F26A5F;}
	.st5{fill:#6DA97C;}
	.st6{fill:none;stroke:#000000;stroke-miterlimit:10;}
	.st7{fill:#91C598;}
	.st8{fill:#D6E397;}
	.st9{fill:#DEEAAC;}
	.st10{fill:#B81E79;}
	.st11{fill:#D71A30;}
	.st12{fill:#D4E48E;}
	.st13{fill:#98CA3C;}
	.st14{fill:#FFC91D;}
	.st15{fill:#973D7A;}
	.st16{fill:#EEDC7E;}
	.st17{fill:#ABD498;}
</style>
<g>
	<path class="st7" d="M121.73,9.64c-2.36-2.64-5.5-4.57-8.91-5.48c-0.82-0.22-1.68-0.36-2.48-0.1c-0.7,0.23-1.25,0.77-1.78,1.31
		c-2.09,2.1-4.07,4.3-5.95,6.58c-0.42-2.54-1.02-5.05-1.84-7.51c-0.42-1.27-0.96-2.61-2.04-3.4c-0.87-0.63-2-0.82-3.08-0.92
		c-2.55-0.25-5.13-0.1-7.66,0.42c-0.8,0.16-1.62,0.38-2.3,0.85c-2.83,1.97,0.03,5.63,1.75,7.83c-1.31-1.41-2.73-2.76-4.22-4.01
		c-0.71-0.6-1.47-1.2-2.39-1.31c-0.96-0.15-1.9,0.26-2.79,0.66c-1.76,0.8-3.56,1.6-5.09,2.79c-2.14,1.68-4.65,5.16-1.78,7.4
		c0.8,0.64,1.79,0.98,2.76,1.36c5.41,2.12,10.31,5.5,14.22,9.8c1.02,1.12,2,2.35,2.79,3.68c0,0.39,0.7,1.24,0.88,1.62
		c0.28,0.59,0.53,1.2,0.72,1.83c0.39,1.25,0.46,2.43,0.51,3.74c0.02,0.46,0.04,0.92,0.22,1.34c0.24,0.55,0.84,0.9,1.44,0.9
		c0.54,0.09,1.09,0.16,1.65,0.2c0.01,0.01,0.03,0.01,0.04,0c1.14-0.03,2.73-0.26,2.98-1.02c0.16-0.47,0.06-0.98-0.01-1.46
		c-0.34-2.42,0.36-4.9,1.58-7.02c0.01-0.01,0.01-0.03,0.03-0.04c0.73-1.25,1.62-2.39,2.61-3.46c0.69-0.73,1.41-1.43,2.17-2.1
		c4.04-3.63,8.68-6.59,13.71-8.68c0.77-0.32,1.58-0.64,2.25-1.15c0.01-0.01,0.04-0.04,0.07-0.06c0.63-0.51,1.12-1.25,1.15-2.06
		C122.97,11.2,122.35,10.36,121.73,9.64z"/>
</g>
<g>
	<path class="st10" d="M189.03,74.69c0-12-9.46-21.76-21.32-22.31c0.17-1.1,0.28-2.22,0.28-3.36c0-12.35-10.01-22.36-22.36-22.36
		c-6.65,0-12.6,2.92-16.69,7.52c-4.1-4.6-10.05-7.52-16.69-7.52c-6.85,0-12.97,3.09-17.07,7.94c-4.1-4.85-10.22-7.94-17.07-7.94
		c-6.65,0-12.6,2.92-16.69,7.52c-4.1-4.6-10.05-7.52-16.69-7.52c-12.35,0-22.36,10.01-22.36,22.36c0,1.13,0.11,2.24,0.27,3.33
		c-0.09,0-0.18-0.01-0.27-0.01C10.01,52.33,0,62.34,0,74.69c0,9.62,6.08,17.79,14.6,20.95c-4.52,4.09-7.38,9.99-7.38,16.56
		c0,10.02,6.59,18.5,15.67,21.34c-1.28,2.82-2.02,5.94-2.02,9.24c0,12.35,10.01,22.36,22.36,22.36c4.61,0,8.9-1.4,12.46-3.79
		c2.06,10.23,11.08,17.93,21.92,17.93c6.65,0,12.6-2.92,16.69-7.52c4.1,4.6,10.05,7.52,16.69,7.52c9.82,0,18.14-6.34,21.15-15.15
		c2.1,0.66,4.34,1.01,6.66,1.01c12.35,0,22.36-10.01,22.36-22.36c0-3.3-0.73-6.42-2.02-9.24c9.08-2.84,15.67-11.32,15.67-21.34
		c0-5.91-2.31-11.26-6.05-15.26C180.14,95.88,189.03,86.32,189.03,74.69z"/>
</g>
<g>
	<path d="M123.03,180c-6.3,0-12.34-2.61-16.69-7.17c-4.36,4.57-10.4,7.17-16.69,7.17c-10.6,0-19.86-7.29-22.4-17.48
		c-3.61,2.19-7.72,3.35-11.97,3.35c-12.73,0-23.09-10.36-23.09-23.09c0-3.03,0.59-5.99,1.76-8.8c-9.25-3.25-15.42-11.9-15.42-21.78
		c0-6.1,2.46-11.98,6.78-16.31c-8.42-3.61-14-11.99-14-21.2c0-12.54,10.05-22.78,22.53-23.08c-0.11-0.93-0.17-1.77-0.17-2.59
		c0-12.73,10.36-23.09,23.09-23.09c6.3,0,12.34,2.6,16.69,7.17c4.35-4.57,10.39-7.17,16.69-7.17c6.52,0,12.69,2.74,17.07,7.56
		c4.38-4.81,10.55-7.56,17.07-7.56c6.3,0,12.34,2.6,16.69,7.17c4.36-4.57,10.39-7.17,16.69-7.17c12.73,0,23.09,10.36,23.09,23.09
		c0,0.84-0.06,1.72-0.18,2.69c11.96,0.96,21.21,10.9,21.21,22.98c0,11.51-8.3,21.08-19.52,22.81c3.44,4.14,5.31,9.31,5.31,14.7
		c0,9.88-6.16,18.53-15.41,21.78c1.17,2.81,1.76,5.77,1.76,8.8c0,12.73-10.36,23.09-23.09,23.09c-2.11,0-4.19-0.28-6.2-0.84
		C141.26,174.01,132.67,180,123.03,180z M106.34,170.65l0.55,0.61c4.11,4.62,10,7.28,16.15,7.28c9.25,0,17.47-5.89,20.46-14.65
		l0.23-0.67l0.68,0.21c2.08,0.65,4.25,0.98,6.44,0.98c11.93,0,21.63-9.7,21.63-21.63c0-3.09-0.66-6.09-1.95-8.94l-0.34-0.75
		l0.79-0.25c9.07-2.84,15.16-11.13,15.16-20.64c0-5.49-2.08-10.73-5.85-14.76l-1.02-1.09l1.48-0.14
		c11.17-1.04,19.59-10.3,19.59-21.53c0-11.56-9.06-21.04-20.62-21.58l-0.81-0.04l0.12-0.8c0.19-1.22,0.27-2.25,0.27-3.26
		c0-11.93-9.7-21.63-21.63-21.63c-6.15,0-12.04,2.65-16.15,7.28l-0.55,0.61l-0.55-0.61c-4.11-4.62-10-7.28-16.15-7.28
		c-6.37,0-12.39,2.8-16.51,7.68l-0.56,0.66l-0.56-0.66c-4.13-4.88-10.15-7.68-16.51-7.68c-6.15,0-12.04,2.65-16.15,7.28l-0.55,0.61
		l-0.55-0.61c-4.11-4.62-10-7.28-16.15-7.28c-11.93,0-21.63,9.7-21.63,21.63c0,0.98,0.08,2,0.26,3.22l0.13,0.84l-1.03-0.01
		c0,0-0.01,0-0.01,0c-12.01,0-21.71,9.7-21.71,21.62c0,8.99,5.68,17.13,14.12,20.26l1.13,0.42l-0.89,0.81
		c-4.54,4.1-7.14,9.94-7.14,16.02c0,9.51,6.09,17.81,15.16,20.64l0.79,0.25l-0.34,0.75c-1.29,2.84-1.95,5.85-1.95,8.94
		c0,11.93,9.7,21.63,21.63,21.63c4.31,0,8.48-1.27,12.05-3.67l0.91-0.61l0.22,1.07c2.02,10.05,10.94,17.34,21.2,17.34
		c6.15,0,12.04-2.65,16.15-7.28L106.34,170.65z"/>
</g>
</svg>
