<?xml version="1.0" encoding="utf-8"?>
<!-- Generator: Adobe Illustrator 23.0.1, SVG Export Plug-In . SVG Version: 6.00 Build 0)  -->
<svg version="1.1" id="Layer_1" xmlns="http://www.w3.org/2000/svg" xmlns:xlink="http://www.w3.org/1999/xlink" x="0px" y="0px"
	 viewBox="0 0 108.6 180" style="enable-background:new 0 0 108.6 180;" xml:space="preserve">
<style type="text/css">
	.st0{fill:#AED8A1;}
	.st1{fill:#EF4657;}
	.st2{fill:#834D1D;}
	.st3{fill:#FAA93B;}
	.st4{fill:#F26A5F;}
	.st5{fill:#6DA97C;}
	.st6{fill:none;stroke:#000000;stroke-miterlimit:10;}
	.st7{fill:#91C598;}
	.st8{fill:#D6E397;}
	.st9{fill:#DEEAAC;}
	.st10{fill:#B81E79;}
	.st11{fill:#D71A30;}
	.st12{fill:#D4E48E;}
	.st13{fill:#98CA3C;}
	.st14{fill:#FFC91D;}
	.st15{fill:#973D7A;}
	.st16{fill:#EEDC7E;}
	.st17{fill:#ABD498;}
</style>
<g>
	<path class="st7" d="M33.82,28.17c3.36,0.9,6.96,0.9,10.32,0.01c-4.54-9.95-9.41-20.23-17.87-27.15c-0.56-0.46-1.18-0.92-1.9-1.02
		c-0.67-0.09-1.34,0.14-1.97,0.41c-2.29,0.96-10.06,4.92-6.44,8.05c0.73,0.63,1.67,0.95,2.57,1.3c4.94,1.91,9.38,5.08,12.81,9.12
		c1.1,1.3,2.11,2.71,2.66,4.32C34.55,24.82,34.6,26.66,33.82,28.17z"/>
</g>
<g>
	<g>
		<path class="st8" d="M37.86,25.83c-6.17,0.76-12.13,3.8-16.81,9.59c-4.53,5.6-6.4,12.54-7.14,19.59
			c-0.47,4.52,0.06,9.15-0.53,13.74c-0.65,5.1-1.94,10.11-3.4,15.03c-1.78,5.98-3.89,11.86-5.67,17.85
			c-5.41,18.14-7.19,38.82,3.51,55.47c7.81,12.16,21.25,19.85,35.54,21.82c28.85,3.98,55.93-16.29,56.31-46.31
			c0.18-14.66-6.27-28.96-14.49-40.81c-5.56-8-9.8-16.95-12.08-26.44c-1.72-7.17-1.65-14.21-4.62-21.03
			C62.95,31.7,50,24.34,37.86,25.83z"/>
	</g>
</g>
<g>
	<g>
		<path d="M58.94,180c-2.43,0-4.88-0.17-7.33-0.51c-14.96-2.07-28.4-10.32-35.96-22.09c-9.18-14.3-10.38-33.12-3.58-55.96
			c0.89-2.99,1.88-6.01,2.84-8.93c0.96-2.92,1.94-5.93,2.83-8.92c1.2-4.04,2.68-9.38,3.39-14.94c0.3-2.38,0.3-4.83,0.3-7.19
			c0-2.15,0-4.37,0.23-6.54c0.88-8.43,3.26-14.93,7.27-19.9c4.51-5.59,10.46-8.98,17.2-9.8c12.64-1.56,25.78,6.38,31.22,18.85
			c1.92,4.4,2.61,8.97,3.27,13.39c0.38,2.53,0.77,5.15,1.39,7.74c2.18,9.09,6.21,17.92,11.99,26.24c6.77,9.76,14.8,24.81,14.6,41.15
			c-0.17,13.8-5.97,26.31-16.33,35.22C83.08,175.73,71.23,180,58.94,180z M46.2,25.83l0.07,0.59c-6.43,0.79-12.11,4.03-16.42,9.37
			c-3.86,4.78-6.16,11.09-7.01,19.28c-0.22,2.11-0.22,4.3-0.22,6.41c0,2.4,0,4.89-0.31,7.35c-0.72,5.64-2.21,11.04-3.42,15.12
			c-0.9,3-1.89,6.03-2.84,8.95c-0.95,2.91-1.94,5.92-2.83,8.9c-6.71,22.49-5.55,40.99,3.44,54.98c7.37,11.48,20.5,19.53,35.12,21.55
			c14.5,2,28.98-2.15,39.72-11.39c10.09-8.68,15.74-20.88,15.91-34.34c0.2-16.02-7.71-30.85-14.39-40.46
			c-5.86-8.44-9.95-17.41-12.17-26.64c-0.63-2.64-1.03-5.28-1.41-7.84c-0.68-4.54-1.32-8.83-3.18-13.09
			c-5.24-12.01-17.86-19.64-29.99-18.15L46.2,25.83z"/>
	</g>
</g>
<g>
	<g>
		<path class="st9" d="M50.93,115.47c0-2.55-0.58-4.47-3.21-3.49c-2.43,0.91-3.57,6.81-3.57,8.93c0,2.55,0.58,4.47,3.21,3.49
			C49.79,123.5,50.93,117.59,50.93,115.47L50.93,115.47z"/>
	</g>
</g>
<g>
	<g>
		<path class="st9" d="M59.31,122.52c1.8,1.8,3.57,2.75,4.74,0.2c1.08-2.36-2.3-7.34-3.8-8.84c-1.8-1.8-3.57-2.75-4.74-0.2
			C54.43,116.04,57.81,121.02,59.31,122.52L59.31,122.52z"/>
	</g>
</g>
</svg>
