<?xml version="1.0" encoding="utf-8"?>
<!-- Generator: Adobe Illustrator 23.0.1, SVG Export Plug-In . SVG Version: 6.00 Build 0)  -->
<svg version="1.1" id="Layer_1" xmlns="http://www.w3.org/2000/svg" xmlns:xlink="http://www.w3.org/1999/xlink" x="0px" y="0px"
	 viewBox="0 0 189.39 180" style="enable-background:new 0 0 189.39 180;" xml:space="preserve">
<style type="text/css">
	.st0{fill:#AED8A1;}
	.st1{fill:#EF4657;}
	.st2{fill:#834D1D;}
	.st3{fill:#FAA93B;}
	.st4{fill:#F26A5F;}
	.st5{fill:#6DA97C;}
	.st6{fill:none;stroke:#000000;stroke-miterlimit:10;}
	.st7{fill:#91C598;}
	.st8{fill:#D6E397;}
	.st9{fill:#DEEAAC;}
	.st10{fill:#B81E79;}
	.st11{fill:#D71A30;}
	.st12{fill:#D4E48E;}
	.st13{fill:#98CA3C;}
	.st14{fill:#FFC91D;}
	.st15{fill:#973D7A;}
	.st16{fill:#EEDC7E;}
	.st17{fill:#ABD498;}
</style>
<g>
	<path class="st0" d="M88.03,29.13c3.48,0.93,7.2,0.93,10.68,0.01C94.01,18.86,88.98,8.23,80.22,1.07C79.64,0.6,79,0.12,78.26,0.02
		c-0.69-0.09-1.39,0.15-2.03,0.42c-2.37,1-10.4,5.09-6.66,8.33c0.75,0.65,1.72,0.98,2.65,1.34c5.11,1.98,9.7,5.25,13.25,9.43
		c1.14,1.34,2.18,2.8,2.75,4.46S88.83,27.57,88.03,29.13z"/>
</g>
<g>
	<path class="st3" d="M48.25,33.6c-7.62,2.85-14.83,6.63-21.36,11.53c-39.17,29.38-34.57,97.84,7.35,123.13
		c14.77,8.91,32.65,10.99,49.9,11.13c15.92,0.13,32.09-1.28,46.96-6.96c14.87-5.68,28.42-16.02,35.46-30.29
		c6.07-12.3,6.95-26.59,5.52-40.23c-2.72-26.02-14.86-52.54-37.52-65.6c-14.3-8.24-31.38-10.4-47.87-9.84
		C73.64,26.9,60.44,29.05,48.25,33.6z"/>
</g>
<g>
	<path d="M102.07,180c-0.61,0-1.21,0-1.83-0.01c-14.92-0.12-34.11-1.5-50.21-11.21c-20.23-12.21-33.1-35.21-34.43-61.53
		c-1.29-25.54,8.82-48.95,27.03-62.61c6.3-4.72,13.53-8.63,21.51-11.61l0,0c11.47-4.28,24.46-6.7,38.63-7.18
		c19.42-0.66,35.64,2.68,48.2,9.92c20.6,11.87,34.74,36.57,37.82,66.07c1.68,16.02-0.2,29.67-5.58,40.56
		c-6.64,13.45-19.35,24.32-35.79,30.6C134.93,177.76,120.48,180,102.07,180z M64.57,34.18c-7.87,2.94-15,6.79-21.2,11.44
		c-17.89,13.42-27.81,36.44-26.54,61.57c1.31,25.91,13.96,48.55,33.84,60.54c15.85,9.56,34.83,10.92,49.59,11.04
		c19.16,0.15,33.98-2.05,46.73-6.92c16.15-6.17,28.63-16.82,35.13-29.99c5.27-10.69,7.11-24.11,5.46-39.89
		c-3.05-29.11-16.96-53.46-37.22-65.13C138,29.71,122,26.42,102.81,27.07C88.78,27.55,75.91,29.94,64.57,34.18L64.57,34.18z"/>
</g>
</svg>
