<?xml version="1.0" encoding="utf-8"?>
<!-- Generator: Adobe Illustrator 23.0.1, SVG Export Plug-In . SVG Version: 6.00 Build 0)  -->
<svg version="1.1" id="Layer_1" xmlns="http://www.w3.org/2000/svg" xmlns:xlink="http://www.w3.org/1999/xlink" x="0px" y="0px"
	 viewBox="0 0 149.31 180" style="enable-background:new 0 0 149.31 180;" xml:space="preserve">
<style type="text/css">
	.st0{fill:#AED8A1;}
	.st1{fill:#EF4657;}
	.st2{fill:#834D1D;}
	.st3{fill:#FAA93B;}
	.st4{fill:#F26A5F;}
	.st5{fill:#6DA97C;}
	.st6{fill:none;stroke:#000000;stroke-miterlimit:10;}
	.st7{fill:#91C598;}
	.st8{fill:#D6E397;}
	.st9{fill:#DEEAAC;}
	.st10{fill:#B81E79;}
	.st11{fill:#D71A30;}
	.st12{fill:#D4E48E;}
	.st13{fill:#98CA3C;}
	.st14{fill:#FFC91D;}
	.st15{fill:#973D7A;}
	.st16{fill:#EEDC7E;}
	.st17{fill:#ABD498;}
</style>
<g>
	<path class="st7" d="M115.27,67.68c-0.79,0-1.57-0.34-2.1-1c-0.95-1.16-0.77-2.87,0.39-3.82c0.34-0.28,34.38-28.46,29.91-59.77
		c-0.21-1.48,0.82-2.86,2.3-3.07c1.48-0.22,2.86,0.82,3.07,2.3c4.91,34.37-30.35,63.52-31.86,64.74
		C116.48,67.48,115.87,67.68,115.27,67.68z"/>
</g>
<g>
	<path class="st7" d="M105.55,69.3c-0.58,0-1.17-0.19-1.66-0.57c-1.18-0.92-1.4-2.62-0.48-3.81c0.1-0.13,9.82-12.83,7.34-24.83
		c-1.22-5.91-5.29-10.8-12.09-14.55c-1.31-0.72-1.79-2.37-1.07-3.69c0.72-1.31,2.38-1.79,3.69-1.07
		c8.27,4.55,13.24,10.69,14.79,18.23c2.98,14.47-7.91,28.64-8.37,29.24C107.15,68.94,106.35,69.3,105.55,69.3z"/>
</g>
<path class="st15" d="M138.47,101.35c0-10.96-8.59-19.89-19.4-20.48c0.24-1.26,0.38-2.56,0.38-3.89c0-11.34-9.2-20.54-20.54-20.54
	c-0.38,0-0.76,0.04-1.13,0.06C96,46.96,87.65,39.73,77.6,39.73c-6.37,0-12.06,2.9-15.82,7.44c-3.77-4.55-9.46-7.44-15.82-7.44
	c-11.34,0-20.54,9.2-20.54,20.54c0,5.55,2.21,10.57,5.79,14.27c-10.44,0.97-18.61,9.75-18.61,20.44c0,5.48,2.16,10.44,5.65,14.12
	c-7.8,2.91-13.37,10.41-13.37,19.23c0,5.19,1.94,9.91,5.11,13.53C4.01,145.46,0,151.98,0,159.46C0,170.8,9.2,180,20.54,180
	c8.01,0,14.93-4.59,18.32-11.28c3.55,2.93,8.1,4.69,13.07,4.69c9.26,0,17.09-6.13,19.65-14.56c3.51,2.81,7.96,4.5,12.8,4.5
	c10.88,0,19.76-8.47,20.47-19.17c3.55,2.94,8.11,4.7,13.08,4.7c11.34,0,20.54-9.2,20.54-20.54c0-5.17-1.92-9.88-5.08-13.49
	C136.55,111.23,138.47,106.52,138.47,101.35z M97.46,126.85c0,0.04,0,0.07-0.01,0.11c-0.03-0.03-0.07-0.05-0.1-0.07
	C97.39,126.88,97.43,126.87,97.46,126.85z"/>
</svg>
