<?xml version="1.0" encoding="utf-8"?>
<!-- Generator: Adobe Illustrator 25.2.1, SVG Export Plug-In . SVG Version: 6.00 Build 0)  -->
<svg version="1.1" id="Layer_1" xmlns="http://www.w3.org/2000/svg" xmlns:xlink="http://www.w3.org/1999/xlink" x="0px" y="0px"
	 viewBox="0 0 180 69.7" style="enable-background:new 0 0 180 69.7;" xml:space="preserve">
<style type="text/css">
	.st0{fill:#FFC638;}
	.st1{fill:#3B2C44;}
	.st2{fill:#221329;}
	.st3{fill:#FEE784;}
	.st4{fill:#442D47;}
	.st5{fill:#FDFEFE;}
	.st6{fill:#FCC08E;}
	.st7{fill:#CD662D;}
	.st8{fill:#F3B31E;}
	.st9{fill:#FCE69A;}
	.st10{fill:#FFCB15;}
	.st11{fill:#604C61;}
</style>
<g>
	<g>
		<g>
			<g>
				<path class="st0" d="M53.6,59.7H43.5l-2.3-19.7L39,59.7H28.9l-4.4-28l-2.1-15.9h8.1L33.9,44l3.4-28.3h7.8L48.6,44L52,15.7h8.1
					L58,31.7L53.6,59.7z M44.3,58.8h8.5l4.3-27.2l2-14.9h-6.3l-4.2,35l-4.2-35h-6.2l-4.2,35l-4.2-35h-6.3l2,14.9l4.3,27.2h8.5
					l3.1-26.8L44.3,58.8z"/>
			</g>
		</g>
		<g>
			<g>
				<path class="st0" d="M71,59.7h-8.1V15.7H71V59.7z M63.8,58.8H70V16.7h-6.2V58.8z"/>
			</g>
		</g>
		<g>
			<g>
				<path class="st0" d="M95.2,59.7h-7.9l-3.7-16.9v16.9h-7.8V15.7h7.9l3.9,17.5V15.7h7.6V59.7z M88,58.8h6.2V16.7h-5.8v24.8
					l-5.6-24.8h-6.2v42.1h6V34.4L88,58.8z"/>
			</g>
		</g>
		<g>
			<g>
				<path class="st0" d="M119.3,59.7h-7.9l-3.7-16.9v16.9h-7.8V15.7h7.9l3.9,17.5V15.7h7.6V59.7z M112.2,58.8h6.2V16.7h-5.8v24.8
					L107,16.7h-6.2v42.1h6V34.4L112.2,58.8z"/>
			</g>
		</g>
		<g>
			<g>
				<path class="st0" d="M141.8,59.7H124V15.7h17.8v7.8h-9.7v10.3h8.3v7.8h-8.3v10.3h9.7V59.7z M124.9,58.8h15.9v-5.9h-9.7V40.7h8.3
					v-6h-8.3V22.6h9.7v-5.9h-15.9V58.8z"/>
			</g>
		</g>
		<g>
			<g>
				<path class="st0" d="M166.7,59.7h-8.8l-4.5-16.9v16.9h-8.1V15.7h9.8c6,0,9.1,3.3,9.1,9.8v6.3c0,3.9-1.5,6.5-4.6,7.8L166.7,59.7z
					 M158.6,58.8h6.8l-6.8-19.6L159,39c2.9-1.1,4.4-3.4,4.4-7.1v-6.3c0-5.9-2.7-8.8-8.2-8.8h-8.9v42.1h6.2V40.3h1.2L158.6,58.8z
					 M153.8,34.7h-1.3V22.6h2.1c1,0,2.6,0.4,2.6,2.9v6.3c0,1.7-0.9,2.4-1.6,2.7C155.3,34.6,154.9,34.7,153.8,34.7z M153.4,33.8h0.4
					c1,0,1.3-0.1,1.3-0.1c0.4-0.2,1.1-0.6,1.1-1.9v-6.3c0-1.8-0.9-2-1.6-2h-1.2V33.8z"/>
			</g>
		</g>
	</g>
	<g>
		<g>
			<path class="st0" d="M156.7,11.4c3.9-5,8.7-10.5,15.4-11.3c1.1-0.1,2.8,0.1,2.5,1.7c-0.5,2.8-5.6,3-7.7,3.6
				c-1.9,0.5-3.7,1.3-5.4,2.4C159.7,8.7,158.4,10.2,156.7,11.4z"/>
		</g>
	</g>
	<g>
		<g>
			<path class="st1" d="M164.2,12.2c-0.1,0.1-0.2,0.1-0.4,0.2c3.1-0.8,6.3-0.1,9.3,1c1.1,0.4,2.2,0.8,3.4,0.7
				c0.9-0.1,1.8-0.7,2.5-1.3c0.6-0.5,1.1-1.2,1-2c-0.1-1-1.3-1.6-2.3-1.8c-2.2-0.5-4.6-0.5-6.8,0C168.5,9.6,166.3,11,164.2,12.2z"/>
		</g>
	</g>
	<g>
		<g>
			<path class="st0" d="M24.1,58.7c-8.9-2.9-18.9-6.6-23.5-15.4c-0.7-1.5-1.3-4,1-4.3c4.2-0.7,7.1,6.2,8.9,8.8
				c1.6,2.4,3.7,4.5,6,6.2C19,55.8,21.7,56.9,24.1,58.7z"/>
		</g>
	</g>
	<g>
		<g>
			<path class="st1" d="M21.6,47.9c0.1,0.1,0.2,0.2,0.4,0.3c-5.7-3.9-1.3-12.9-4.1-18.1c-0.6-1.1-1.5-1.9-2.6-2.5
				c-0.9-0.6-2-1-3-0.9C6.9,27.3,12,37.8,13.4,40C15.6,43.1,18.5,45.7,21.6,47.9z"/>
		</g>
	</g>
	<g>
		<g>
			<g>
				<path class="st0" d="M45.2,45.2c2,0,2-3.1,0-3.1C43.2,42.1,43.2,45.2,45.2,45.2L45.2,45.2z"/>
			</g>
		</g>
	</g>
	<g>
		<g>
			<g>
				<path class="st0" d="M18.4,12.9c2,0,2-3.1,0-3.1C16.4,9.8,16.4,12.9,18.4,12.9L18.4,12.9z"/>
			</g>
		</g>
	</g>
	<g>
		<g>
			<g>
				<path class="st0" d="M89.1,10.4c2,0,2-3.1,0-3.1C87.2,7.4,87.2,10.4,89.1,10.4L89.1,10.4z"/>
			</g>
		</g>
	</g>
	<g>
		<g>
			<g>
				<path class="st0" d="M59.6,7.1c2,0,2-3.1,0-3.1C57.6,4.1,57.6,7.1,59.6,7.1L59.6,7.1z"/>
			</g>
		</g>
	</g>
	<g>
		<g>
			<g>
				<path class="st0" d="M49.3,15.4c2,0,2-3.1,0-3.1C47.4,12.3,47.4,15.4,49.3,15.4L49.3,15.4z"/>
			</g>
		</g>
	</g>
	<g>
		<g>
			<g>
				<path class="st0" d="M122.1,10.1c2,0,2-3.1,0-3.1C120.1,7,120.1,10.1,122.1,10.1L122.1,10.1z"/>
			</g>
		</g>
	</g>
	<g>
		<g>
			<g>
				<path class="st0" d="M154,50.3c2,0,2-3.1,0-3.1C152,47.3,152,50.3,154,50.3L154,50.3z"/>
			</g>
		</g>
	</g>
	<g>
		<g>
			<g>
				<path class="st0" d="M131.6,43.4c2,0,2-3.1,0-3.1C129.6,40.4,129.6,43.4,131.6,43.4L131.6,43.4z"/>
			</g>
		</g>
	</g>
	<g>
		<g>
			<g>
				<path class="st0" d="M41.2,63.8c2,0,2-3.1,0-3.1C39.3,60.7,39.3,63.8,41.2,63.8L41.2,63.8z"/>
			</g>
		</g>
	</g>
	<g>
		<g>
			<g>
				<path class="st0" d="M73.8,65c2,0,2-3.1,0-3.1C71.8,62,71.8,65,73.8,65L73.8,65z"/>
			</g>
		</g>
	</g>
	<g>
		<g>
			<g>
				<path class="st0" d="M166,43.4c2,0,2-3.1,0-3.1C164.1,40.4,164.1,43.4,166,43.4L166,43.4z"/>
			</g>
		</g>
	</g>
	<g>
		<g>
			<g>
				<path class="st0" d="M151.1,7.1c2,0,2-3.1,0-3.1C149.2,4.1,149.2,7.1,151.1,7.1L151.1,7.1z"/>
			</g>
		</g>
	</g>
	<g>
		<g>
			<g>
				<path class="st0" d="M21.9,66.7c2,0,2-3.1,0-3.1C20,63.7,20,66.7,21.9,66.7L21.9,66.7z"/>
			</g>
		</g>
	</g>
	<g>
		<g>
			<g>
				<path class="st0" d="M141.3,65c2,0,2-3.1,0-3.1C139.3,62,139.3,65,141.3,65L141.3,65z"/>
			</g>
		</g>
	</g>
	<g>
		<g>
			<g>
				<path class="st0" d="M109.6,69.7c2,0,2-3.1,0-3.1C107.6,66.6,107.6,69.7,109.6,69.7L109.6,69.7z"/>
			</g>
		</g>
	</g>
	<g>
		<g>
			<g>
				<path class="st2" d="M49.8,46.6L53.6,15h7.2l-2,15.4L54.4,58h-9.3l-2.7-23.3L39.8,58h-9.3l-4.4-27.6l-2-15.4h7.2l3.8,31.6L39,15
					h7L49.8,46.6z"/>
			</g>
		</g>
		<g>
			<g>
				<path class="st2" d="M64.6,15h7.2v43h-7.2V15z"/>
			</g>
		</g>
		<g>
			<g>
				<path class="st2" d="M77.4,15h7.1l4.8,21.2V15H96v43h-7.1l-4.6-20.6V58h-6.9V15z"/>
			</g>
		</g>
		<g>
			<g>
				<path class="st2" d="M101.5,15h7.1l4.8,21.2V15h6.7v43H113l-4.6-20.6V58h-6.9V15z"/>
			</g>
		</g>
		<g>
			<g>
				<path class="st2" d="M125.7,15h16.8v6.9h-9.7V33h8.3v6.9h-8.3v11.2h9.7V58h-16.8V15z"/>
			</g>
		</g>
		<g>
			<g>
				<path class="st2" d="M147,15h9.4c5.8,0,8.6,3.1,8.6,9.3v6.3c0,3.9-1.6,6.4-4.7,7.6l6.9,19.8h-7.8l-4.9-18.5h-0.4V58H147V15z
					 M154.2,21.8V33h0.9c0.8,0,1.3,0,1.5-0.1c0.9-0.4,1.4-1.1,1.4-2.3v-6.3c0-1.6-0.7-2.4-2.1-2.4H154.2z"/>
			</g>
		</g>
	</g>
</g>
</svg>
