<?xml version="1.0" encoding="utf-8"?>
<!-- Generator: Adobe Illustrator 25.2.1, SVG Export Plug-In . SVG Version: 6.00 Build 0)  -->
<svg version="1.1" id="Layer_1" xmlns="http://www.w3.org/2000/svg" xmlns:xlink="http://www.w3.org/1999/xlink" x="0px" y="0px"
	 viewBox="0 0 180 198.7" style="enable-background:new 0 0 180 198.7;" xml:space="preserve">
<style type="text/css">
	.st0{fill:#FFC638;}
	.st1{fill:#3B2C44;}
	.st2{fill:#221329;}
	.st3{fill:#FEE784;}
	.st4{fill:#442D47;}
	.st5{fill:#FDFEFE;}
	.st6{fill:#FCC08E;}
	.st7{fill:#CD662D;}
	.st8{fill:#F3B31E;}
	.st9{fill:#FCE69A;}
	.st10{fill:#FFCB15;}
	.st11{fill:#604C61;}
</style>
<g>
	<g>
		<g>
			<g>
				<path class="st0" d="M53.7,3.6c-3.1,0.1-6.1-0.6-9.1-0.4c-3,0.1-5.9,0.8-8.7,2.1c-1.1,0.5-2.5,1.4-4.1,2.2
					c-0.7,0.4-1.5,0.8-2.3,1c-2.3,0.9-4.7,1.2-6.2-0.5C21.6,6.1,23.5,4,25,3.1C33.9-2.4,44.6,0.5,53.7,3.6z"/>
			</g>
		</g>
	</g>
	<g>
		<g>
			<g>
				<path class="st1" d="M48,7.3c-0.8,0.3-1.5,0.8-2.2,1.2c-0.7,0.5-1.4,1-2.1,1.7c-1.2,1.1-2.3,2.3-3.3,3.7
					c-0.7,0.8-1.3,1.7-1.8,2.6c-0.3,0.5-0.7,1.1-1,1.6c-0.6,1.1-1.3,2.2-2.1,3.1c-0.4,0.5-0.9,0.9-1.4,1.3c-0.2,0.1-0.5,0.2-0.7,0.3
					c-1.1,0.4-2.3,0.5-3.5,0.3c-1.2-0.1-2.4-0.6-3-1.7C26,19.8,27,17.8,28,16.5c0.9-1.2,1.8-2.2,2.8-3.2c0.7-0.6,1.4-1.2,2.1-1.7
					c1.1-0.8,2.2-1.4,3.3-2c0.1-0.1,0.3-0.1,0.4-0.2c0.8-0.3,1.5-0.6,2.3-0.8c1.3-0.4,2.7-0.6,4.1-0.8c0.8-0.1,1.7-0.2,2.5-0.3
					c0.6-0.1,1.2-0.1,1.8-0.2C47.6,7.3,47.8,7.3,48,7.3z"/>
			</g>
		</g>
	</g>
	<g>
		<path class="st1" d="M161.4,34.3c-2.7,0-4.8-2.2-4.8-4.8c0-2.7,2.2-4.8,4.8-4.8c2.7,0,4.8,2.2,4.8,4.8
			C166.2,32.1,164,34.3,161.4,34.3z M161.4,25.9c-2,0-3.6,1.6-3.6,3.6c0,2,1.6,3.6,3.6,3.6c2,0,3.6-1.6,3.6-3.6
			C165,27.5,163.3,25.9,161.4,25.9z"/>
	</g>
	<g>
		<g>
			<path class="st1" d="M130.6,88.9l8.4,7.3l2.1-10.9L130.6,88.9z M138.3,93.9l-5.2-4.5l6.5-2.3L138.3,93.9z"/>
		</g>
	</g>
	<g>
		<g>
			<path class="st2" d="M92.7,110H80.6c0,0-7.1-8.6-9.1-11.1c-2-2.5-3-5.5-2-13.1c0.3-2.2,0.8-5.1,1.2-8.3c0.1-0.4,0.1-0.7,0.2-1.1
				c0.1-0.7,0.2-1.5,0.4-2.2c0.3-1.8,0.6-3.7,0.9-5.3c0.1-0.9,0.3-1.7,0.4-2.4c0.1-0.4,0.1-0.8,0.2-1.1c0.1-0.4,0.1-0.8,0.2-1.2
				c0.1-0.4,0.1-0.8,0.2-1.2c0.2-1.2,0.3-1.9,0.3-1.9l0.2,0l3.7,0.8l0.9,0.2l1.7,0.4l1,0.2l2.1,0.5l-0.3,2.4l0,0.3l-0.1,0.9
				l-0.2,1.2V68l-0.4,3v0l-0.5,3.1v0l-0.8,5.7l-0.2,1.6l-0.9,5.9c0,0-1,6.1,2,10.1C84.6,101.4,92.7,110,92.7,110z"/>
		</g>
	</g>
	<g>
		<g>
			<path class="st2" d="M112,35.6c-0.1,1.4-0.2,2.9-0.5,4.5c-0.3,2.1-0.8,4.3-1.6,6.7v0c-0.1,0.3-0.2,0.6-0.3,1
				c-1.3,4.1-2.5,7.5-3.6,10.2c-0.3,0.6-0.5,1.2-0.8,1.8v0c-1.3,2.8-2.6,4.9-3.9,6.3c-0.8,0.9-1.6,1.6-2.3,2.1
				c-1.3,0.8-2.5,1.1-3.7,1.1c-1.1,0-2.2-0.1-3.3-0.4c0,0,0,0-0.1,0c-0.4-0.1-0.9-0.2-1.5-0.3c-0.7-0.2-1.5-0.4-2.4-0.6
				c-1.3-0.3-2.9-0.7-4.6-1.2c-0.3-0.1-0.6-0.1-0.8-0.2c-0.6-0.2-1.3-0.3-1.9-0.5c-1.3-0.3-2.7-0.7-4.1-1.1
				c-1.1-0.3-2.2-0.6-3.3-0.9c-0.1,0-0.2,0-0.3-0.1c-1.1-0.3-2.2-0.6-3.3-0.9h0c-1.3-0.4-2.6-0.7-3.8-1h0c-1.1-0.3-2.1-0.6-3.1-0.8
				c-1.7-0.5-3.2-0.9-4.4-1.2c-0.5-0.1-1-0.3-1.4-0.4c-0.3-0.1-0.7-0.2-1.1-0.4c-1.6-0.5-3.5-1.3-5.3-2.5c-0.3-0.1-0.5-0.3-0.8-0.5
				c-1.8-1.1-3.5-2.6-5-4.4c-1.5-1.8-2.7-3.9-3.5-6.4c-0.9-2.8-1.3-6.1-0.9-10c0.2-2.1,0.7-4.4,1.4-6.9c0.2-0.7,0.4-1.4,0.7-2.1
				c1.3-3.8,2.8-6.9,4.4-9.2c1.7-2.5,3.5-4.3,5.4-5.5c2.1-1.4,4.2-2.2,6.2-2.5C59.1,9.1,59.6,9,60,9c2-0.2,3.8-0.1,5.4,0.1
				c0.7,0.1,1.3,0.2,1.8,0.3c0.2,0,0.4,0.1,0.7,0.1c1.2,0.2,2.8,0.6,4.8,1.1c0.7,0.2,1.5,0.4,2.2,0.6c1.6,0.4,3.4,0.9,5.2,1.4
				c0.6,0.2,1.1,0.3,1.7,0.5c2,0.6,3.9,1.1,5.8,1.7c0.3,0.1,0.7,0.2,1,0.3c2.5,0.7,4.7,1.4,6.5,1.9c0.1,0,0.2,0.1,0.3,0.1
				c1.9,0.6,3.1,0.9,3.1,0.9c1.3,0,2.6,0.1,3.9,0.4c0.1,0,0.2,0,0.3,0.1c2,0.6,4,1.8,5.6,3.6c0.3,0.3,0.6,0.7,0.9,1.1v0
				c0.7,0.9,1.2,2,1.7,3.3c0.3,0.8,0.5,1.5,0.7,2.4c0,0.2,0.1,0.4,0.1,0.6c0.2,1,0.3,2,0.4,3.1C112,33.6,112,34.6,112,35.6z"/>
		</g>
	</g>
	<g>
		<g>
			<path class="st2" d="M143.6,35.9c0,0,16.2,5.9,18.6,7.6c2.4,1.7,9.5,7.4,5.8,21.2s-11.3,16.3-14.5,16c-8-0.7-20.5-3.2-20.5-3.2
				L143.6,35.9z"/>
		</g>
	</g>
	<g>
		<g>
			<g>
				<path class="st4" d="M118.8,81.9l0.8-3.6c-0.1,0-0.3-0.1-0.4-0.1c0,0,0,0,0,0c0,0-0.1,0-0.1,0l-0.1,0c-0.6-0.1-1.3-0.3-2-0.4
					l0-0.2l-0.3-1l-0.4-1.5l-0.3-1l-0.7-2.5l-0.3-1.1l-0.7-2.8l-0.3-1.1l-0.8-2.8l-0.3-1.1l-0.7-2.8l-0.3-1.1l-0.9-3.2l-0.3-1.1
					l0-0.2l-0.8-2.9l0-0.1l0-0.1l-0.1-0.4l-0.5-1.8v0l-0.6-2.2v0l-0.2-0.6l-0.1-0.5l-0.7-2.5l-1.4-5.2l-0.8-3v0l-1.4-5.2l-0.8-3
					l-1.4-5.2l-0.6-2.1l-0.2-0.7l-0.1-0.3l-0.1-0.3l-0.3-1.3l-0.2-0.7c1.1-0.3,2.2,0.2,2.2,0.2s0,0,0,0c0.1,0,0.2,0.1,0.4,0.1l0.3,1
					l0.4,1.5l0,0.1l0.4,1.5l0.1,0.4l0.9,3.3l0.8,3.1l1.4,5.2l0.8,3l1.1,4l0.3,1.2l0.4,1.3v0l0.5,1.7v0l0.2,0.8v0l0.6,2.4l0.1,0.5
					l0.3,1.1v0l0.1,0.5l0.7,2.5l0.1,0.5l0.1,0.6l0.8,3.1l0.3,1.1l0.8,3.2l0.3,1.1l0.7,2.8l0.3,1.1l0.8,2.8l0.3,1.1l0.7,2.7l0.3,1.1
					l0.6,2.4l0.3,1l0.4,1.4v0l0.2,0.6l0.1,0.3l0,0.1l0.8,3.2L118.8,81.9z"/>
			</g>
		</g>
		<g>
			<g>
				<path class="st4" d="M112.3,76.8c-0.9-0.2-1.8-0.4-2.7-0.5l-0.2-0.8l-0.3-1l-0.5-1.7l-0.3-1v0l-0.7-2.7l-0.3-1.1l-0.8-2.8
					l-0.3-1.1l-0.6-2.4l-0.1-0.3l-0.4-1.5l-0.4-1.5l0-0.1v0l-0.1-0.2l-1.3-4.8l-0.8-3l-1.4-5.2v0l-0.8-3v0l-1.4-5.2l-0.8-3l-1.4-5.2
					l-0.8-3l-1.4-5.2L94.1,18l-0.2-0.8l-0.1-0.6l-0.4-1.4c0.6,0.2,1.1,0.3,1.6,0.5c0.2,0,0.3,0.1,0.5,0.1l0.4,0.1
					c0.1,0,0.2,0.1,0.3,0.1l0.4,1.4l0.1,0.2l0.3,1.2l1.1,4l0.8,3l1.4,5.2l0.8,3l1.4,5.2v0l0.8,3v0l1.4,5.2l0.8,3l0.9,3.6l0,0.1v0
					l0.4,1.6l0.1,0.4l0.5,2l0.2,0.7l0.6,2.3l0.3,1.1l0.8,2.8l0.3,1.1l0.8,2.8v0l0.3,1.1l0.7,2.7l0.3,1l0.4,1.6l0.3,1v0L112.3,76.8z"
					/>
			</g>
		</g>
		<g>
			<g>
				<path class="st4" d="M105,75.3c-0.9-0.2-1.8-0.4-2.7-0.6l-0.4-1.3l-0.3-1l-0.5-1.9l-0.3-1l-0.3-1l-0.1-0.4l-0.3-1l-0.4-1.4
					l0-0.1v0l-0.2-0.6l-1.4-5.2l-0.8-3l-1.4-5.2l-0.8-3L94,43.5v0l-0.8-3v0l-1.4-5.2l-0.8-3L89.6,27l-0.8-3l-1.4-5.2l-0.8-3
					l-0.4-1.4L85.8,13c0.7,0.2,1.4,0.4,2.1,0.6c0.1,0,0.1,0,0.2,0.1c0.2,0,0.3,0.1,0.5,0.1l0.4,1.4l0.3,1.1l0.1,0.3l1.3,4.9l0.8,3v0
					l1.4,5.2l0.8,3l1.4,5.2l0.8,3l1.4,5.2l0.8,3l1.4,5.2l0.8,3l1.4,5.2l0.2,0.8l0,0.1l0.4,1.5l0.2,0.7l0.2,0.7l0,0.1l0.2,0.9
					l0.8,2.9l0.3,1l0.5,1.8l0.3,1L105,75.3z"/>
			</g>
		</g>
		<g>
			<g>
				<path class="st4" d="M97.8,73.8c-0.4-0.1-0.8-0.2-1.2-0.2c-0.6-0.1-1.1-0.2-1.5-0.4l-0.3-1.2l-0.4-1.4h0L94,69.3l-0.1-0.4
					L93.7,68h0l-0.3-1.3l-0.8-3l-1.4-5.2l-0.8-3v0l-1.4-5.2l-0.8-3l-1.4-5.2l-0.8-3l-1.4-5.2l-0.8-3l-1.4-5.2l-0.8-3l-1.4-5.2
					l-0.8-3v0l-0.2-0.8l-0.4-1.4l-0.4-1.4c0.7,0.2,1.4,0.4,2.1,0.6l0.7,0.2l0.1,0.2l0.3,1.2l0.4,1.4l0.1,0.5l1.4,5.2l0.8,3l1.4,5.2
					l0.8,3l1.4,5.2l0.8,3l1.4,5.2l0.8,3l1.4,5.2v0l0.8,3v0l1.4,5.2l0.8,3l1,3.8l0.1,0.2v0l0.3,1l0,0.2v0l0.3,1l0.2,0.7v0l0.3,1
					l0.1,0.3L97.8,73.8z"/>
			</g>
		</g>
		<g>
			<g>
				<path class="st4" d="M90.2,71.3c0,0-0.1-0.1-0.1-0.1c-0.6-0.6-0.8-1.1-0.9-1.6c-0.3-0.1-0.5-0.1-0.8-0.2c-0.1,0-0.2-0.1-0.3-0.1
					l-0.2-0.1c-0.2-0.1-0.5-0.1-0.7-0.2l-0.4-1.4v0l-0.4-1.4l-0.3-1l-0.8-3l-1.4-5.2l-0.8-3v0l-1.4-5.2l-0.8-3l-1.4-5.2l-0.8-3
					l-1.4-5.2l-0.8-3l-1.4-5.2l-0.8-3L72.9,16L72.1,13l-0.4-1.4l-0.4-1.4v0L71,8.9c0.6,0.2,1.3,0.3,2,0.5c0.2,0.1,0.5,0.1,0.7,0.2
					l0.2,0.9l0.1,0.5l0.4,1.4h0l0.3,1.2l1.4,5.2l0.8,3l1.4,5.2l0.8,3l1.4,5.2l0.8,3l1.4,5.2l0.8,3l1.4,5.2l0.8,3l1.4,5.2l0.8,3
					l1.1,4.2h0l0.3,1l0.1,0.3l0,0.1l0.3,1.3l0.4,1.3v0L90.2,71.3z"/>
			</g>
		</g>
		<g>
			<g>
				<path class="st4" d="M82.4,68l-0.4,3v0l-0.5,3.1L81,72.2l-0.8-3l-0.5-2l-0.4-1.4l-0.4-1.4L78.8,64l-0.5-1.9L78,61l-1.4-5.2
					l-0.8-3l-1.4-5.2l-0.8-3l-1.4-5.2l-0.8-3L70,31.1l-0.8-3l-1.4-5.2L67,19.8l-1.4-5.2l-0.8-3l-0.4-1.4L64.1,9l-0.2-0.7l1.4-0.4
					c0.1,0,0.1,0,0.2,0c0.3,0,0.6,0.1,0.8,0.1l0.3,1.1l0,0.2l0.4,1.3l0.4,1.5l1.4,5.2l0.8,3l1.4,5.2l0.8,3l1.4,5.2l0.8,3l1.4,5.2
					l0.8,3l1.4,5.2l0.8,3l1.4,5.2l0.8,3l0.3,1.1l0.7,2.5l0.4,1.4l0,0.1L82.4,68L82.4,68z"/>
			</g>
		</g>
		<g>
			<g>
				<path class="st4" d="M78.2,78l-1.8,0.5l-0.6,0.2l-0.7-2.5l-1.4-5.2l-0.8-3l-0.4-1.4c0.1-0.4,0.1-0.8,0.2-1.1l-0.5-0.1l-0.4-1.4
					l-0.3-1.2l0-0.2l-0.8-2.8l-1.4-5.2l-0.8-3l-1.4-5.2l-0.8-3L65,38l-0.8-3l-1.4-5.2l-0.8-3l-1.4-5.2l-0.8-3l-1.4-5.2l-0.7-2.6
					l-0.1-0.4l-0.2-0.8L57,8.3c0.4-0.1,0.9-0.2,1.3-0.3c0.3-0.1,0.7-0.1,1-0.2l0.1-0.1l0,0.1L59.8,9l0.3,1.2l0.1,0.5l1.4,5.2l0.8,3
					l1.4,5.2l0.8,3l1.4,5.2l0.8,3l1.4,5.2l0.8,3l1.4,5.2l0.8,3l1.4,5.2l0.8,3l0.3,1l0.6,2.1l0.4,1.4l0.2,0.7l0.2,0.6l0.6,2.4
					l1.4,5.2l0.8,3L78.2,78z"/>
			</g>
		</g>
		<g>
			<g>
				<path class="st4" d="M67.6,63.9c-0.7-0.2-1.3-0.4-2-0.5l-0.1,0c-0.2-0.1-0.5-0.1-0.7-0.2l-0.4-1.4l-0.1-0.5l-0.2-0.8l-0.6-2.2
					L62.1,53l-0.8-3l-1.4-5.2l-0.8-3l-1.4-5.2l-0.8-3l-1.4-5.2l-0.8-3l-1.4-5.2l-0.8-3l-0.9-3.3l-0.3-1.3l-0.3-1.3
					c0.2-0.2,0.5-0.4,0.7-0.5c0.5-0.3,1-0.6,1.5-0.9l0.3,1.2l0.3,1.2l0.6,2.3l0.8,3.1l1.4,5.2l0.8,3l1.4,5.2l0.8,3l1.4,5.2l0.8,3
					l1.4,5.2l0.8,3l1.4,5.2l0.8,3l0.7,2.4L67.6,63.9z"/>
			</g>
			<g>
				<path class="st4" d="M71.2,77.4l-0.4,0.1c0.1-0.4,0.1-0.7,0.2-1.1L71.2,77.4z"/>
			</g>
		</g>
		<g>
			<g>
				<path class="st4" d="M60.1,61.9c-0.4-0.1-0.8-0.2-1.2-0.4l-0.9-0.2c-0.2-0.1-0.5-0.1-0.7-0.2l-0.3-1.2L57,59.6l-0.4-1.4
					l-0.4-1.4l-1.4-5.2l-0.8-3l-1.4-5.2l-0.8-3l-1.4-5.2l-0.8-3L48.3,27l-0.8-3l-1-3.6L46,18.7v0L45.6,17c0.1-0.2,0.2-0.3,0.3-0.5
					c0.5-0.7,1-1.4,1.5-2l0.4,1.5l0.4,1.5l1,3.9l0.8,3.1l1.4,5.2l0.8,3l1.4,5.2l0.8,3l1.4,5.2l0.8,3l1.4,5.2l0.8,3l0.5,1.7l0.4,1.4
					L60.1,61.9z"/>
			</g>
		</g>
		<g>
			<g>
				<path class="st4" d="M52.6,59.3c-0.8-0.4-1.6-0.8-2.4-1.3c-0.1,0-0.1-0.1-0.2-0.1c-0.1-0.1-0.3-0.2-0.4-0.3l-0.5-1.8v0L49,55.5
					l-0.4-1.6l-1-3.6l-0.8-3l-1.4-5.2l-0.8-3l-1.4-5.2l-0.7-2.7l-0.1-0.3l-0.6-2.1v0l-0.6-2.2c0-0.1,0.1-0.3,0.1-0.4
					c0.4-1.3,0.9-2.5,1.4-3.6l0.5,2v0l0.6,2.1l0.5,1.7l0.8,3l1.4,5.2l0.8,3l1.4,5.2l0.8,3l1.4,5.2l0.8,3l0,0.1l0.4,1.6v0L52.6,59.3z
					"/>
			</g>
		</g>
		<g>
			<g>
				<path class="st4" d="M43.9,52.7L43.9,52.7c-0.2-0.3-0.4-0.5-0.6-0.8c-0.9-1.2-1.7-2.5-2.3-3.9c-0.3-0.7-0.6-1.4-0.8-2.2
					c-0.1-0.2-0.1-0.4-0.2-0.6c-0.5-1.8-0.8-3.8-0.9-5.8c0-1.3,0-2.7,0.2-4.1l0.8,2.8l0.3,1.1v0l1.1,4.1l0.8,3l0.8,2.8v0l0.6,2.3
					L43.9,52.7z"/>
			</g>
		</g>
	</g>
	<g>
		<g>
			<g>
				<path class="st4" d="M62.5,7.7l-0.9,1.2l-0.9,1.3l-0.4,0.6l-1.9,2.5l-3.2,4.3l-1.9,2.5l-3.2,4.3L48.3,27l-3.2,4.3l-1.9,2.5
					l-1.5,2.1l-1.3,1.8L40,38.1l-0.9,1.3c0-1.3,0-2.7,0.2-4.1v0l0-0.2l0.1-0.1l1.5-2.1l0,0l1.5-2.1l0.2-0.3l1.6-2.2l3.2-4.3l1.9-2.5
					l3.2-4.3l1.9-2.5l2.8-3.8l0.4-0.5l0.7-1l0,0l1-1.4l0.1-0.1l0,0.1c0.1,0,0.3,0,0.4-0.1C60.8,7.7,61.6,7.6,62.5,7.7z"/>
			</g>
		</g>
		<g>
			<g>
				<path class="st4" d="M70.1,8.7l-0.8,1.1l-0.8,1.1l-1,1.3l-1.9,2.5L62.5,19l-1.9,2.5l-3.2,4.3l-1.9,2.5l-3.2,4.3l-1.9,2.5
					l-3.2,4.3l-1.9,2.5l-2.7,3.6l-0.5,0.7l-0.4,0.5L41,48c-0.3-0.7-0.6-1.4-0.8-2.2c-0.1-0.2-0.1-0.4-0.2-0.6l0.9-1.3l0.5-0.7
					l0.5-0.7l2.7-3.6l1.9-2.5l3.2-4.3l1.9-2.5l3.2-4.3l1.9-2.5l3.2-4.3l1.9-2.5l3.2-4.3l0.9-1.3l0.8-1.1l0.1-0.1l0.7-1
					c0,0,0,0,0.1,0l0.1,0c0.2,0,0.4,0.1,0.6,0.1C68.7,8.4,69.3,8.5,70.1,8.7z"/>
			</g>
		</g>
		<g>
			<g>
				<path class="st4" d="M77,10.5l-0.8,1.1l-0.8,1.1l-0.7,0.9L72.9,16l-3.2,4.3l-1.9,2.5l-3.2,4.3l-1.9,2.5L59.6,34l-1.9,2.5
					l-3.2,4.3l-1.9,2.5l-3.2,4.3l-1.9,2.5l-1.2,1.6l-0.7,1l-0.8,1c-0.4-0.4-0.7-0.8-1-1.2l0,0c-0.2-0.2-0.4-0.5-0.6-0.8l0.3-0.4
					l0.5-0.6l0.8-1l1.9-2.6l1.9-2.5l3.2-4.3l1.9-2.5l3.2-4.3l1.9-2.5l3.2-4.3l1.9-2.5l3.2-4.3l1.9-2.5l3.2-4.3l0.8-1.1l0.8-1.1
					l0.3-0.4l0.5-0.7c0.3,0.1,0.5,0.1,0.8,0.2C75.8,10.2,76.4,10.3,77,10.5z"/>
			</g>
		</g>
		<g>
			<g>
				<path class="st4" d="M83.9,12.4l-0.8,1.1l-0.8,1.1L82,14.9l-1.9,2.5L77,21.7l-1.9,2.5l-3.2,4.3L70,31.1l-3.2,4.3L65,38l-3.2,4.3
					l-1.9,2.5l-3.2,4.3l-1.9,2.5L51.7,56l0,0l-0.7,1l-0.8,1c-0.1,0-0.1-0.1-0.2-0.1c-0.1-0.1-0.3-0.2-0.4-0.3c0,0-0.1,0-0.1-0.1
					l-0.2-0.1c-0.4-0.2-0.7-0.5-1.1-0.8l0.7-1l0.1-0.2l0.6-0.8l1.3-1.7l3.2-4.3l1.9-2.5l3.2-4.3l1.9-2.5l3.2-4.3l1.9-2.5l3.2-4.3
					l1.9-2.5l3.2-4.3l1.9-2.5l3.2-4.3v0l0.4-0.6l0.8-1l0.7-0.9l0.1-0.2l0.8,0.2C82.7,12.1,83.3,12.3,83.9,12.4z"/>
			</g>
		</g>
		<g>
			<g>
				<path class="st4" d="M90.7,14.4l-0.8,1l-0.6,0.8l-0.2,0.2l-1.7,2.3l-3.2,4.3l-1.9,2.5L79.2,30l-1.9,2.5l-3.2,4.3l-1.9,2.5
					L69,43.6l-1.9,2.5L64,50.5L62.1,53l-3.2,4.3l-1,1.3l-0.8,1.1l-0.1,0.2l-0.7,0.9c-0.3-0.1-0.6-0.2-0.9-0.3
					c-0.5-0.2-1-0.4-1.5-0.6l0.8-1l0.8-1l0.7-1l1.9-2.5l3.2-4.3l1.9-2.5l3.2-4.3l1.9-2.5l3.2-4.3l1.9-2.5l3.2-4.3l1.9-2.5l3.2-4.3
					l1.9-2.5l3.2-4.3l0.8-1.1l0.8-1.1c0.2,0,0.3,0.1,0.5,0.1c0,0,0.1,0,0.1,0l0.2,0.1C89.5,14.1,90.1,14.2,90.7,14.4z"/>
			</g>
		</g>
		<g>
			<g>
				<path class="st4" d="M97.4,16.4l-0.8,1l-0.1,0.2l-0.7,0.9l-1.2,1.6l-3.2,4.3v0L89.6,27l-3.2,4.3l-1.9,2.5l-3.2,4.3l-1.9,2.5
					L76.3,45l-1.9,2.5l-3.2,4.3l-1.9,2.5l-3.2,4.3l-1.4,1.9l-0.5,0.7L64,61.7l-0.8,1.1c-0.3-0.1-0.5-0.2-0.8-0.2
					c-0.6-0.2-1.2-0.3-1.7-0.5l0.8-1.1l0.8-1.1l1.2-1.7l1.9-2.5l3.2-4.3l1.9-2.5l3.2-4.3l1.9-2.5l3.2-4.3l1.9-2.5l3.2-4.3l1.9-2.5
					l3.2-4.3l1.9-2.5l2.7-3.7l0.5-0.6l0.3-0.4l0.8-1.1c0.2,0,0.3,0.1,0.5,0.1l0.4,0.1c0.1,0,0.2,0.1,0.3,0.1
					C96.6,16.2,97.1,16.3,97.4,16.4z"/>
			</g>
		</g>
		<g>
			<g>
				<path class="st4" d="M105.1,17.2l-0.5,0.7l-0.8,1l0,0l-0.7,0.9l0,0l-1.2,1.6l-3.2,4.3l-1.9,2.5l-3.2,4.3l-1.9,2.5l-3.2,4.3
					l-1.9,2.5l-3.2,4.3l-1.9,2.5l-3.2,4.3l-1.9,2.5l-3.2,4.3l-1.7,2.4l-0.1,0.2l-0.7,0.9l-0.8,1.1c-0.2-0.1-0.4-0.1-0.6-0.2l-0.2,0
					l-0.8-0.2c-0.3-0.1-0.6-0.2-0.9-0.3l0.8-1.1l0.8-1.1l1.6-2.2l1.9-2.5l3.2-4.3l1.9-2.5l3.2-4.3l1.9-2.5l3.2-4.3l1.9-2.5l3.2-4.3
					l1.9-2.5l3.2-4.3l1.9-2.5l2.6-3.5l0.5-0.6l0.1-0.2l0.2-0.3l0.8-1.1l0.6-0.8c0.1,0,0.2,0.1,0.4,0.1
					C103.5,16.6,104.2,16.9,105.1,17.2C105.1,17.2,105.1,17.2,105.1,17.2C105.1,17.2,105.1,17.2,105.1,17.2z"/>
			</g>
		</g>
		<g>
			<g>
				<path class="st4" d="M111.7,19.5l-1,1.3l-0.6,0.8l-0.3,0.5l-0.5,0.7l-0.2,0.3l-0.3,0.4l-0.5,0.6l-0.8,1.1l-1.4,2l-1.9,2.5
					l-3.2,4.3l-1.9,2.5l-3.2,4.3L94,43.5v0l-3.2,4.3l-1.9,2.5l-3.2,4.3l-1.9,2.5l-3.2,4.3L80,62.4L78.8,64l-0.2,0.3l-0.8,1.1
					L77,66.5l-1.4,1.9l-1.9,2.5l-2.5,3.4c0.3-1.8,0.6-3.7,0.9-5.3l0.8-1.1l1.5-2.1l0.4-0.5l0.4-0.6l0.8-1.1l1.3-1.8L78,61l1.9-2.5
					l3.2-4.3v0l1.9-2.5l3.2-4.3l1.9-2.5l3.2-4.3v0l1.9-2.5l3.2-4.3l1.9-2.5l3.2-4.3l1.9-2.5l0.9-1.2l0.5-0.7l0.7-1l0.3-0.4l0.4-0.5
					l0.2-0.2l1-1.3C110,18.9,110.8,19.2,111.7,19.5z"/>
			</g>
		</g>
		<g>
			<g>
				<path class="st4" d="M118.2,21.9l-1,1.3l-0.6,0.8l-0.8,1.2l-0.6,0.8l-1,1.4l-0.6,0.8l-0.9,1.2l-0.1,0.2l-0.6,0.8l-0.3,0.4
					l-1.1,1.5l-1.4,1.8l-1.2,1.6l-1.9,2.5l-3.2,4.3v0l-1.9,2.5v0l-3.2,4.3l-1.9,2.5L93,56v0l-1.9,2.5l-3.2,4.3l-1.9,2.5l-0.6,0.8
					l-1.6,2.1h0c-0.3-0.1-0.5-0.1-0.8-0.2c-0.2-0.1-0.5-0.1-0.7-0.2V68l-0.4,3v0l-1,1.3l-3.2,4.3l-1.4,1.9L75,80.4l-2-1.5l2.1-2.8
					l1.9-2.5l3.2-4.3l1.2-1.6l0.7-0.9l0.1-0.1l0.6-0.8l0.2-0.3l2.3-3.1l1.9-2.5l3.2-4.3v0l1.9-2.5v0l3.2-4.3l1.9-2.5l3.2-4.3v0
					l1.9-2.5v0l3.2-4.3v0l1.9-2.5l1.6-2.1l1.2-1.6l0.9-1.3l0.2-0.2l0.6-0.8l0.1-0.2l0.9-1.2l0.6-0.8l0.8-1.2l0.6-0.8l1-1.3
					C116.6,21.3,117.4,21.6,118.2,21.9z"/>
			</g>
		</g>
		<g>
			<g>
				<polygon class="st4" points="80.7,79.8 80.4,81.4 79.8,80.9 				"/>
			</g>
			<g>
				<path class="st4" d="M124.8,24.2l-0.9,1.3l-0.6,0.8l-0.9,1.2l-0.6,0.8l-1,1.4l-0.6,0.8l-1,1.4l-0.6,0.8l-1.2,1.6l-0.6,0.8
					l-1.2,1.6l-0.6,0.8l-1.2,1.6l-0.6,0.8l-0.8,1v0l-0.5,0.7l-0.5,0.7l-0.7,0.9l-0.6,0.8v0l-1.3,1.8c0,0,0,0,0,0l-0.5,0.7l-0.3,0.4
					l-2.9,3.9l-1.9,2.5l-3.2,4.3l-1.9,2.5l-3.2,4.3l-1.9,2.5l-0.8,1.1l-0.8,1.1l0,0l-0.8,1l-0.8,1.1v0l-0.1,0.1
					c-0.6-0.6-0.8-1.1-0.9-1.6c-0.3-0.1-0.5-0.1-0.8-0.2l0.8-1.1l0.2-0.3l0.6-0.8l2.6-3.5l1.9-2.5l3.2-4.3l1.9-2.5l3.2-4.3l1.9-2.5
					l3.2-4.3l1.4-1.8v0l0.5-0.7l0.8-1v0l1.5-2v0l0.9-1.2l0.5-0.6l0.1-0.1l1.2-1.6l0.6-0.8l1.2-1.6l0.6-0.8l1-1.4l0.6-0.8l1-1.4
					l0.6-0.8l0.9-1.2l0.6-0.8l0.9-1.3C123.2,23.6,124,23.9,124.8,24.2z"/>
			</g>
		</g>
		<g>
			<g>
				<path class="st4" d="M131.3,26.5l-0.9,1.2l-0.6,0.8l-0.8,1.2l-0.6,0.8l-1,1.4l-0.6,0.8l-1.1,1.4l-0.6,0.8l-1.2,1.6l-0.6,0.8
					l-1.2,1.6l-0.6,0.8l-1.2,1.6l-0.6,0.8l-1.3,1.7l-0.6,0.8l-1.3,1.7l-0.6,0.8l-1.3,1.8l-0.6,0.8l-1.6,2.2l-0.3,0.4l-0.3,0.4
					l-1.6,2.1l-0.1,0.1l-0.6,0.8l-1.7,2.3l-0.6,0.8l-0.3,0.4l-1.2,1.6v0l-0.1,0.1l-0.4,0.5l-0.2,0.3l-3.2,4.3l-1.9,2.5l-0.7,1
					c0,0,0,0,0,0l-0.6,0.8l-1.1,1.5l-0.6,0.8l-0.2,0.3l-0.8,1.1c-0.6-0.1-1.1-0.2-1.5-0.4c-0.4-0.1-0.8-0.2-1.1-0.3l0.7-1l0.7-1
					l0.3-0.4l0.8-1.1v0l0.2-0.2l1.4-1.9l0.1-0.1l1.5-2.1l1.9-2.5l2.5-3.4l0,0c0,0,0,0,0,0v0l0.5-0.6v0l0.2-0.2l1.9-2.5l0.5-0.7
					l2.5-3.4v0l0.1-0.1l0-0.1l0.5-0.7l1.4-1.9l0.3-0.3l0.6-0.8l1.3-1.8l0.6-0.8l1.2-1.7l0.6-0.8l1.3-1.7l0.6-0.8l1.2-1.6l0.6-0.8
					l1.2-1.6l0.6-0.8l1.2-1.6l0.6-0.8l1-1.4L125,31l1-1.4l0.6-0.8l0.8-1.2l0.6-0.8l0.9-1.2C129.7,25.9,130.6,26.2,131.3,26.5z"/>
			</g>
		</g>
	</g>
	<g>
		<g>
			<path class="st4" d="M113.2,32.6c0-0.7-0.1-1.4-0.2-2.1c0-0.3-0.1-0.7-0.2-1c0,0,0-0.1,0-0.1c0,0,0-0.1,0-0.1
				c0-0.2-0.1-0.4-0.1-0.5c-0.1-0.4-0.2-0.7-0.3-1.1c-0.1-0.4-0.2-0.7-0.3-1.1c0-0.1-0.1-0.2-0.1-0.3c0,0,0-0.1,0-0.1
				c-0.2-0.6-0.4-1.1-0.7-1.6c-0.2-0.4-0.4-0.8-0.7-1.2c-0.1-0.1-0.1-0.3-0.2-0.4l-0.2-0.3c-0.1-0.1-0.2-0.3-0.3-0.4
				c-0.2-0.3-0.4-0.5-0.6-0.8c0,0,0,0,0,0v0c-0.3-0.4-0.7-0.7-1-1c-0.2-0.2-0.4-0.3-0.6-0.5c-0.9-0.7-1.9-1.3-2.9-1.8
				c-0.4-0.2-0.8-0.3-1.2-0.5c-0.1-0.1-0.3-0.1-0.4-0.1l-0.3-0.1c-0.2,0-0.4-0.1-0.6-0.1c-0.5-0.1-1-0.2-1.5-0.2
				c-0.5-0.1-0.9-0.1-1.4-0.1c-0.2,0-0.4,0-0.7,0c-0.2-0.1-0.6-0.2-1.2-0.4c-0.4-0.1-0.8-0.2-1.3-0.4c-0.1,0-0.2-0.1-0.3-0.1
				l-0.4-0.1c-0.2,0-0.3-0.1-0.5-0.1c-0.5-0.1-1-0.3-1.6-0.5h0c-0.8-0.2-1.7-0.5-2.7-0.8c-0.5-0.2-1.1-0.3-1.7-0.5l-0.2-0.1
				c0,0-0.1,0-0.1,0c-0.1,0-0.3-0.1-0.5-0.1c-0.1,0-0.1,0-0.2-0.1c-0.7-0.2-1.4-0.4-2.1-0.6c-0.2-0.1-0.5-0.1-0.7-0.2
				c-0.4-0.1-0.8-0.2-1.3-0.4c-0.6-0.2-1.1-0.3-1.7-0.5l-0.8-0.2l-0.2,0l-0.7-0.2c-0.7-0.2-1.4-0.4-2.1-0.6
				c-0.5-0.1-0.9-0.3-1.4-0.4c-0.6-0.2-1.2-0.3-1.7-0.5c-0.3-0.1-0.5-0.1-0.8-0.2c-0.2-0.1-0.5-0.1-0.7-0.2
				c-0.2-0.1-0.5-0.1-0.7-0.2c-0.7-0.2-1.4-0.4-2-0.5c-0.3-0.1-0.6-0.1-0.9-0.2c-0.7-0.2-1.3-0.3-1.9-0.4c-0.2,0-0.4-0.1-0.6-0.1
				l-0.1,0c0,0,0,0-0.1,0c-0.3-0.1-0.7-0.1-1-0.2c-0.3,0-0.5-0.1-0.8-0.1c-0.1,0-0.1,0-0.2,0c-1-0.1-1.9-0.2-2.8-0.2
				c-0.9,0-1.8,0-2.6,0.1c-0.1,0-0.3,0-0.4,0.1c0,0-0.1,0-0.1,0c-0.3,0-0.7,0.1-1,0.2c-0.4,0.1-0.9,0.2-1.3,0.3
				c-1.4,0.3-2.7,0.9-3.9,1.5c-0.5,0.3-1,0.6-1.5,0.9c-0.2,0.2-0.5,0.3-0.7,0.5c-1.2,0.9-2.4,2-3.5,3.3c-0.5,0.6-1.1,1.3-1.5,2
				c-0.1,0.2-0.2,0.3-0.3,0.5c-1.1,1.6-2,3.4-2.9,5.4c-0.5,1.1-0.9,2.3-1.4,3.6c0,0.1-0.1,0.3-0.1,0.4c-0.2,0.6-0.4,1.1-0.5,1.7
				c-0.7,2.4-1.2,4.7-1.4,6.8c0,0.1,0,0.2,0,0.3v0c-0.1,1.4-0.2,2.8-0.2,4.1c0.1,2.1,0.4,4,0.9,5.8c0.1,0.2,0.1,0.4,0.2,0.6
				c0.2,0.7,0.5,1.5,0.8,2.2c0.6,1.4,1.4,2.7,2.3,3.9c0.2,0.3,0.4,0.5,0.6,0.8l0,0c0.3,0.4,0.7,0.8,1,1.2c0.9,1,2,1.9,3.2,2.8
				c0.4,0.3,0.7,0.5,1.1,0.8l0.2,0.1c0,0,0.1,0.1,0.1,0.1c0.1,0.1,0.3,0.2,0.4,0.3c0.1,0,0.1,0.1,0.2,0.1c0.8,0.5,1.6,0.9,2.4,1.3
				c0.5,0.2,1,0.4,1.5,0.6c0.5,0.2,1,0.4,1.5,0.6c0.3,0.1,0.6,0.2,0.9,0.3c0.1,0,0.2,0.1,0.3,0.1c0.2,0.1,0.4,0.1,0.7,0.2
				c0.2,0.1,0.4,0.1,0.7,0.2l0.9,0.2c0.4,0.1,0.8,0.2,1.2,0.4c0.2,0,0.4,0.1,0.6,0.2c0.5,0.1,1.1,0.3,1.7,0.5
				c0.3,0.1,0.5,0.1,0.8,0.2c0.5,0.1,1,0.3,1.6,0.4c0.2,0.1,0.5,0.1,0.7,0.2l0.1,0c0.6,0.2,1.3,0.4,2,0.5c0.3,0.1,0.6,0.2,0.9,0.3
				l0.8,0.2l0.2,0c0.2,0.1,0.4,0.1,0.6,0.2c0.5,0.1,0.9,0.3,1.4,0.4l0.7,0.2l0.5,0.1l0.2,0c0.5,0.1,1,0.3,1.5,0.4
				c0.1,0,0.2,0.1,0.3,0.1l0.2,0.1l1.2,0.3c0.3,0.1,0.5,0.1,0.8,0.2c0.9,0.2,1.8,0.5,2.7,0.7c0.2,0.1,0.5,0.1,0.7,0.2
				c0.3,0.1,0.7,0.2,1,0.3c0.3,0.1,0.6,0.2,1,0.3c0,0,0,0,0.1,0h0c0.2,0,0.5,0.1,0.7,0.2c0.3,0.1,0.5,0.1,0.8,0.2h0
				c1.1,0.3,2.2,0.6,3.1,0.8c0.2,0.1,0.5,0.1,0.7,0.2l0.2,0.1c0.1,0,0.2,0,0.3,0.1c0.3,0.1,0.6,0.1,0.8,0.2c0.2,0.1,0.4,0.1,0.6,0.1
				c0.1,0,0.2,0.1,0.4,0.1c0.3,0.1,0.6,0.1,0.8,0.2c0.2,0,0.5,0.1,0.7,0.1l0.3,0.1c0.7,0.2,1.6,0.3,2.4,0.4h0c0.2,0,0.4,0,0.7,0h0.3
				c0.1,0,0.3,0,0.4,0c0.4,0,0.8-0.1,1.1-0.1c0.8-0.1,1.5-0.4,2.2-0.8c0.2-0.1,0.4-0.2,0.6-0.4c0.1,0,0.1-0.1,0.2-0.1c0,0,0,0,0,0
				c0.3-0.2,0.6-0.4,0.8-0.6c0.5-0.4,1-0.9,1.4-1.4c0,0,0.1-0.1,0.1-0.2c0.1-0.2,0.3-0.3,0.4-0.5c0,0,0-0.1,0.1-0.1
				c0.5-0.6,1-1.4,1.5-2.2c0.2-0.2,0.3-0.5,0.5-0.8c0.3-0.6,0.7-1.2,1-1.8c0.1-0.1,0.1-0.2,0.2-0.4v0c0.1-0.2,0.2-0.5,0.3-0.7
				c0,0,0,0,0-0.1v0c0,0,0,0,0,0l0.1-0.2c0.2-0.5,0.5-1.1,0.7-1.6c0.1-0.1,0.1-0.3,0.2-0.4c0.8-1.9,1.6-4.1,2.4-6.5v0
				c0,0,0-0.1,0-0.1c0,0,0-0.1,0-0.1c0.1-0.2,0.1-0.4,0.2-0.6v0c0.3-0.8,0.5-1.6,0.8-2.5c0,0,0,0,0,0c0.1-0.3,0.2-0.6,0.2-0.9
				c0,0,0-0.1,0-0.1l0,0c0-0.1,0-0.2,0.1-0.3c0.2-0.6,0.3-1.1,0.5-1.7c0.1-0.3,0.2-0.6,0.2-0.9c0.2-0.7,0.3-1.3,0.4-2
				c0.1-0.3,0.1-0.6,0.2-0.9c0.1-0.3,0.1-0.5,0.1-0.8v0c0-0.1,0-0.2,0-0.3c0-0.3,0.1-0.6,0.1-0.9c0-0.3,0.1-0.6,0.1-0.9
				c0.1-0.7,0.1-1.3,0.2-1.9c0-0.3,0-0.5,0-0.8v-0.2c0-0.7,0-1.3,0-2C113.2,33.2,113.2,32.9,113.2,32.6z M106.5,53.6
				C106.5,53.6,106.4,53.6,106.5,53.6c-0.1,0.2-0.1,0.4-0.2,0.5c-0.4,1.2-0.9,2.4-1.4,3.4c0,0.1-0.1,0.2-0.2,0.4
				c-0.2,0.4-0.4,0.8-0.5,1.2v0c0,0,0,0,0,0l0,0c0,0,0,0.1-0.1,0.1l-0.1,0.3c-0.7,1.5-1.4,2.8-2.1,3.9c-0.3,0.4-0.6,0.9-0.9,1.2
				c-0.2,0.3-0.4,0.5-0.6,0.7c-0.1,0.2-0.3,0.3-0.4,0.5c-0.5,0.6-1.1,1-1.6,1.4c-0.1,0-0.1,0.1-0.2,0.1c-0.2,0.1-0.4,0.2-0.6,0.3
				c0,0,0,0,0,0c-0.4,0.2-0.8,0.3-1.3,0.4c-0.3,0.1-0.6,0.1-0.9,0.1c-0.5,0-1.1,0-1.6-0.1h0c-0.4-0.1-0.8-0.1-1.1-0.2
				c-0.1,0-0.2,0-0.2,0l-0.1,0c-0.4-0.1-0.9-0.2-1.4-0.3c-0.2,0-0.5-0.1-0.8-0.2c-0.3-0.1-0.6-0.1-0.9-0.2h0c-0.1,0-0.3-0.1-0.5-0.1
				l-0.2-0.1c-0.6-0.2-1.3-0.3-2-0.5c-0.3-0.1-0.5-0.1-0.8-0.2c-0.6-0.1-1.2-0.3-1.8-0.5c-0.3-0.1-0.6-0.1-0.8-0.2c0,0,0,0,0,0
				c0,0-0.1,0-0.1,0c-0.4-0.1-0.7-0.2-1.1-0.3C81.4,65.1,81.2,65,81,65c-0.7-0.2-1.3-0.3-2-0.5c-0.1,0-0.2-0.1-0.4-0.1
				c-0.6-0.1-1.2-0.3-1.7-0.5L76,63.7l-0.6-0.2c-0.4-0.1-0.8-0.2-1.1-0.3c-0.2-0.1-0.5-0.1-0.8-0.2l-0.3-0.1l-1-0.3
				c-0.2,0-0.3-0.1-0.5-0.1c-0.1,0-0.1,0-0.2,0c-0.5-0.1-1-0.3-1.6-0.4l-0.8-0.2h0c-0.8-0.2-1.5-0.4-2.3-0.6
				c-0.2-0.1-0.4-0.1-0.7-0.2l-0.2,0c-0.4-0.1-0.8-0.2-1.2-0.3c-0.2-0.1-0.5-0.1-0.7-0.2c-0.3-0.1-0.7-0.2-1-0.3
				c-0.3-0.1-0.6-0.1-0.8-0.2c-1-0.3-1.9-0.5-2.7-0.8l-0.2-0.1l-0.7-0.2c-0.3-0.1-0.5-0.2-0.8-0.2c-0.2-0.1-0.4-0.1-0.6-0.2
				c-0.2-0.1-0.5-0.1-0.8-0.2c-0.1,0-0.2-0.1-0.3-0.1c-0.3-0.1-0.6-0.2-0.8-0.3c-1.3-0.5-2.6-1.1-3.8-1.8c0,0,0,0,0,0
				c-0.1-0.1-0.3-0.1-0.4-0.2c-0.2-0.1-0.3-0.2-0.5-0.3l-0.2-0.1c-0.3-0.2-0.6-0.4-0.9-0.7c-0.3-0.3-0.7-0.5-1-0.8
				c-0.8-0.6-1.5-1.3-2.1-2c-0.2-0.2-0.4-0.5-0.6-0.7c-0.3-0.4-0.7-0.8-0.9-1.3c-0.9-1.3-1.6-2.7-2.1-4.2c-0.1-0.2-0.1-0.4-0.2-0.6
				c-0.3-0.8-0.5-1.6-0.6-2.5c-0.4-2.1-0.5-4.4-0.2-6.8c0-0.1,0-0.2,0-0.3c0.1-1.4,0.4-2.9,0.8-4.5c0-0.2,0.1-0.4,0.2-0.6
				c0.1-0.5,0.3-1.1,0.4-1.6c0.2-0.7,0.4-1.3,0.6-2c0-0.1,0.1-0.2,0.1-0.3c0.8-2.3,1.7-4.3,2.7-6.2c0.5-0.9,0.9-1.7,1.5-2.4
				c0.1-0.2,0.2-0.3,0.3-0.5c1-1.4,2.1-2.6,3.3-3.7c0.5-0.4,0.9-0.7,1.4-1.1c0.2-0.2,0.5-0.3,0.7-0.5c1.1-0.6,2.2-1.1,3.4-1.5
				c0.2,0,0.3-0.1,0.5-0.1c0.4-0.1,0.8-0.2,1.1-0.3c0.4-0.1,0.9-0.1,1.3-0.2c0,0,0,0,0.1,0c0.2,0,0.3,0,0.5,0
				c1.2-0.1,2.4-0.1,3.8,0.1c0.3,0,0.6,0,0.8,0.1c0.2,0,0.3,0,0.5,0.1c0.5,0.1,0.9,0.1,1.3,0.2l0,0l0.6,0.1c0.2,0,0.5,0.1,0.8,0.2
				c0.9,0.2,2,0.5,3.3,0.8c0.2,0.1,0.5,0.1,0.7,0.2c0.2,0,0.3,0.1,0.5,0.1c0.5,0.1,1,0.3,1.6,0.4h0c0,0,0.1,0,0.2,0
				c0.3,0.1,0.5,0.1,0.8,0.2c1.2,0.3,2.4,0.7,3.7,1c0.2,0.1,0.4,0.1,0.6,0.2c0,0,0,0,0,0l1.7,0.5c0.1,0,0.3,0.1,0.4,0.1
				c0.1,0,0.3,0.1,0.4,0.1c0.7,0.2,1.4,0.4,2.2,0.6c0.7,0.2,1.5,0.4,2.2,0.6c0.2,0,0.4,0.1,0.6,0.2c0.3,0.1,0.6,0.2,0.8,0.2l0.2,0.1
				c0.3,0.1,0.5,0.2,0.8,0.2c0.1,0,0.2,0.1,0.3,0.1c1.5,0.4,2.8,0.8,4,1.2c0.2,0.1,0.5,0.1,0.7,0.2c0.2,0.1,0.4,0.1,0.6,0.2l0.4,0.1
				c0.3,0.1,0.6,0.2,0.8,0.2c0.4,0.1,0.7,0.2,1,0.3c0.8,0.2,1.3,0.4,1.3,0.4l0.2,0.1l0.2,0c0.7,0,1.3,0,2,0.1c0.3,0,0.6,0.1,0.9,0.1
				c0.3,0.1,0.5,0.1,0.8,0.2l0.1,0c0.3,0.1,0.5,0.2,0.8,0.3c0.1,0,0.2,0.1,0.2,0.1c0,0,0,0,0,0c0.3,0.1,0.6,0.2,0.8,0.4
				c0.9,0.5,1.7,1,2.4,1.7c0.2,0.2,0.5,0.5,0.7,0.7c0.2,0.2,0.4,0.4,0.5,0.7l0.2,0.3c0,0.1,0.1,0.2,0.2,0.2c0.5,0.8,1,1.7,1.4,2.8
				c0.2,0.5,0.4,1.1,0.5,1.7c0,0.2,0.1,0.4,0.1,0.6c0,0.1,0.1,0.3,0.1,0.5c0.1,0.8,0.3,1.5,0.3,2.3c0,0.2,0,0.4,0,0.6
				c0,1,0.1,1.9,0,2.9v0c-0.1,1.3-0.2,2.7-0.4,4v0c0,0.1,0,0.2,0,0.3c-0.1,0.7-0.2,1.4-0.4,2v0c-0.2,1.2-0.5,2.3-0.9,3.5
				c0,0,0,0,0,0c-0.1,0.3-0.2,0.7-0.3,1l0,0.2c0,0,0,0.1,0,0.1v0c0,0.2-0.1,0.4-0.2,0.6C107.8,49.7,107.1,51.7,106.5,53.6z"/>
		</g>
	</g>
	<g>
		<g>
			<path class="st0" d="M146.8,58.5c-2.1,11.5-7.1,17-10.9,19.7c-2.8,2-5,2.3-5,2.3s-0.2,0-0.6-0.1c-1.5-0.3-5.6-1.1-10.6-2.1h0
				c-0.1,0-0.3-0.1-0.4-0.1c0,0,0,0,0,0c0,0-0.1,0-0.1,0l-0.1,0c-0.6-0.1-1.3-0.3-2-0.4c-1.5-0.3-3-0.6-4.6-0.9
				c-0.9-0.2-1.8-0.4-2.7-0.5c-1.6-0.3-3.1-0.6-4.6-0.9c-0.9-0.2-1.8-0.4-2.7-0.6c-1.7-0.3-3.2-0.7-4.6-1c-0.4-0.1-0.8-0.2-1.2-0.2
				c-0.6-0.1-1.1-0.2-1.5-0.4c-0.4-0.1-0.8-0.2-1.1-0.3c-0.2,0-0.4-0.1-0.6-0.1c-1.6-0.4-2.6-1-3.2-1.5c0,0-0.1-0.1-0.1-0.1
				c-0.6-0.6-0.8-1.1-0.9-1.6c-0.1-0.7,0.1-1.2,0.1-1.2c0.1,0,0.1,0,0.2,0.1c0.5,0.2,1.3,0.4,2.3,0.5c0.1,0,0.2,0,0.3,0
				c0,0,0,0,0.1,0c0.6,0,1.2,0,1.9-0.1c0.7-0.1,1.5-0.3,2.4-0.6v0c0.4-0.2,0.8-0.4,1.2-0.6c0,0,0,0,0,0c0.2-0.1,0.5-0.3,0.7-0.5
				c0.6-0.4,1.1-0.8,1.7-1.4v0c0.3-0.3,0.7-0.7,1-1.1c0.3-0.3,0.6-0.7,0.9-1.1c0.9-1.3,1.9-3,2.8-5v0c0-0.1,0.1-0.2,0.2-0.3v0
				c0.5-1.2,1-2.5,1.5-4v0c0.1-0.2,0.1-0.3,0.2-0.5c0,0,0,0,0-0.1c0.6-2,1.2-4.3,1.7-6.9c0-0.1,0.1-0.3,0.1-0.5
				c0-0.1,0.1-0.3,0.1-0.4c0.3-1.5,0.5-3,0.7-4.4v0c0.1-0.7,0.1-1.3,0.2-1.9c0.2-2,0.2-3.9,0.1-5.5c-0.1-1.3-0.2-2.5-0.4-3.6
				c-0.4-2-0.9-3.6-1.5-5c-0.4-0.9-0.9-1.6-1.3-2.3c-0.6-0.8-1.2-1.5-1.8-2.1c-0.3-0.3-0.6-0.6-1-0.8c0,0,0,0,0,0
				c-0.1-0.1-0.1-0.1-0.2-0.2c-0.7-0.5-1.3-0.8-1.9-1.1c-0.1,0-0.2-0.1-0.2-0.1c-1.4-0.6-2.5-0.7-2.5-0.7c0.2-0.5,0.5-0.9,0.8-1.2
				c0.4-0.3,0.8-0.5,1.2-0.6c1.1-0.3,2.2,0.2,2.2,0.2s0,0,0,0c0.1,0,0.2,0.1,0.4,0.1c0.4,0.1,1.1,0.4,2,0.7c0,0,0,0,0,0c0,0,0,0,0,0
				c1.1,0.4,2.5,0.9,4.1,1.5c0.8,0.3,1.6,0.6,2.4,0.8c1.3,0.5,2.7,1,4.1,1.5c0.8,0.3,1.6,0.6,2.4,0.8c1.4,0.5,2.7,1,4.1,1.5
				c0.8,0.3,1.6,0.6,2.4,0.8c1.4,0.5,2.8,1,4.1,1.5c0.8,0.3,1.6,0.6,2.4,0.9c4.3,1.5,7.6,2.7,8.7,3.1c1.9,0.7,4.5,2.9,6.2,7.3
				C147.9,41.5,148.6,48.4,146.8,58.5z"/>
		</g>
	</g>
	<g>
		<g>
			<g>
				<path class="st4" d="M141.1,32.4c-0.1,0-0.1,0-0.2,0l-34.5-12c-0.2-0.1-0.4-0.3-0.3-0.6c0.1-0.2,0.3-0.4,0.6-0.3l34.5,12
					c0.2,0.1,0.4,0.3,0.3,0.6C141.5,32.3,141.3,32.4,141.1,32.4z"/>
			</g>
		</g>
		<g>
			<g>
				<path class="st4" d="M143.4,35.6c-0.1,0-0.1,0-0.2,0l-34.5-12c-0.2-0.1-0.4-0.3-0.3-0.6c0.1-0.2,0.3-0.4,0.6-0.3l34.5,12
					c0.2,0.1,0.4,0.3,0.3,0.6C143.8,35.5,143.6,35.6,143.4,35.6z"/>
			</g>
		</g>
		<g>
			<g>
				<path class="st4" d="M144.6,38.8c-0.1,0-0.1,0-0.2,0l-34.5-12c-0.2-0.1-0.4-0.3-0.3-0.6c0.1-0.2,0.3-0.4,0.6-0.3l34.5,12
					c0.2,0.1,0.4,0.3,0.3,0.6C145,38.6,144.8,38.8,144.6,38.8z"/>
			</g>
		</g>
		<g>
			<g>
				<path class="st4" d="M145.4,41.9c-0.1,0-0.1,0-0.2,0l-34-11.9c-0.2-0.1-0.4-0.3-0.3-0.6c0.1-0.2,0.3-0.4,0.6-0.3l34,11.9
					c0.2,0.1,0.4,0.3,0.3,0.6C145.8,41.7,145.6,41.9,145.4,41.9z"/>
			</g>
		</g>
		<g>
			<g>
				<path class="st4" d="M145.7,44.9c-0.1,0-0.1,0-0.2,0l-34-11.9c-0.2-0.1-0.4-0.3-0.3-0.6c0.1-0.2,0.3-0.4,0.6-0.3l34,11.9
					c0.2,0.1,0.4,0.3,0.3,0.6C146,44.8,145.8,44.9,145.7,44.9z"/>
			</g>
		</g>
		<g>
			<g>
				<path class="st4" d="M145.9,48c-0.1,0-0.1,0-0.2,0l-34-11.9c-0.2-0.1-0.4-0.3-0.3-0.6c0.1-0.2,0.3-0.4,0.6-0.3l34,11.9
					c0.2,0.1,0.4,0.3,0.3,0.6C146.3,47.9,146.1,48,145.9,48z"/>
			</g>
		</g>
		<g>
			<g>
				<path class="st4" d="M146.2,51c-0.1,0-0.1,0-0.2,0l-34-11.9c-0.2-0.1-0.4-0.3-0.3-0.6c0.1-0.2,0.3-0.4,0.6-0.3l34,11.9
					c0.2,0.1,0.4,0.3,0.3,0.6C146.5,50.9,146.4,51,146.2,51z"/>
			</g>
		</g>
		<g>
			<g>
				<path class="st4" d="M145.9,54.1c-0.1,0-0.1,0-0.2,0l-34-11.9c-0.2-0.1-0.4-0.3-0.3-0.6c0.1-0.2,0.3-0.4,0.6-0.3l34,11.9
					c0.2,0.1,0.4,0.3,0.3,0.6C146.3,53.9,146.1,54.1,145.9,54.1z"/>
			</g>
		</g>
		<g>
			<g>
				<path class="st4" d="M145.7,57.1c-0.1,0-0.1,0-0.2,0l-34-11.9c-0.2-0.1-0.4-0.3-0.3-0.6c0.1-0.2,0.3-0.4,0.6-0.3l34,11.9
					c0.2,0.1,0.4,0.3,0.3,0.6C146,57,145.9,57.1,145.7,57.1z"/>
			</g>
		</g>
		<g>
			<g>
				<path class="st4" d="M144.9,60c-0.1,0-0.1,0-0.2,0l-34-11.9c-0.2-0.1-0.4-0.3-0.3-0.6c0.1-0.2,0.3-0.4,0.6-0.3l34,11.9
					c0.2,0.1,0.4,0.3,0.3,0.6C145.3,59.9,145.1,60,144.9,60z"/>
			</g>
		</g>
		<g>
			<g>
				<path class="st4" d="M144.2,63c0,0-0.1,0-0.1,0l-34-11.4c-0.2-0.1-0.4-0.3-0.3-0.6c0.1-0.2,0.3-0.4,0.6-0.3l34,11.4
					c0.2,0.1,0.4,0.3,0.3,0.6C144.5,62.9,144.4,63,144.2,63z"/>
			</g>
		</g>
		<g>
			<g>
				<path class="st4" d="M142.9,66.5c0,0-0.1,0-0.1,0l-33.5-11.4c-0.2-0.1-0.4-0.3-0.3-0.6c0.1-0.2,0.3-0.4,0.6-0.3L143,65.6
					c0.2,0.1,0.4,0.3,0.3,0.6C143.2,66.3,143.1,66.5,142.9,66.5z"/>
			</g>
		</g>
		<g>
			<g>
				<path class="st4" d="M141.6,69.9c0,0-0.1,0-0.1,0l-33.5-11.4c-0.2-0.1-0.4-0.3-0.3-0.6c0.1-0.2,0.3-0.4,0.6-0.3L141.7,69
					c0.2,0.1,0.4,0.3,0.3,0.6C141.9,69.8,141.8,69.9,141.6,69.9z"/>
			</g>
		</g>
		<g>
			<g>
				<path class="st4" d="M139.8,72.8c0,0-0.1,0-0.1,0l-33.5-11.4c-0.2-0.1-0.4-0.3-0.3-0.6c0.1-0.2,0.3-0.4,0.6-0.3L140,71.9
					c0.2,0.1,0.4,0.3,0.3,0.6C140.2,72.7,140,72.8,139.8,72.8z"/>
			</g>
		</g>
		<g>
			<g>
				<path class="st4" d="M137.5,75.6c0,0-0.1,0-0.2,0l-33-11.3c-0.2-0.1-0.4-0.3-0.3-0.6c0.1-0.2,0.3-0.4,0.6-0.3l33,11.3
					c0.2,0.1,0.4,0.3,0.3,0.6C137.9,75.5,137.7,75.6,137.5,75.6z"/>
			</g>
		</g>
		<g>
			<g>
				<path class="st4" d="M134.8,78c0,0-0.1,0-0.1,0l-32.5-10.8c-0.2-0.1-0.4-0.3-0.3-0.6c0.1-0.2,0.3-0.4,0.6-0.3L135,77.1
					c0.2,0.1,0.4,0.3,0.3,0.6C135.2,77.8,135,78,134.8,78z"/>
			</g>
		</g>
		<g>
			<g>
				<path class="st4" d="M131.6,79.7c0,0-0.1,0-0.1,0l-32.1-9.7c-0.2-0.1-0.4-0.3-0.3-0.6c0.1-0.2,0.3-0.4,0.6-0.3l32.1,9.7
					c0.2,0.1,0.4,0.3,0.3,0.6C132,79.6,131.8,79.7,131.6,79.7z"/>
			</g>
		</g>
		<g>
			<g>
				<path class="st4" d="M119.5,77.8C119.5,77.9,119.5,77.9,119.5,77.8c-0.1,0.2-0.3,0.3-0.4,0.3c0,0,0,0,0,0c0,0-0.1,0-0.1,0
					l-0.1,0l-2-0.6l-4.7-1.3v0l-2.8-0.8l-4.7-1.3l-2.8-0.8l-4.4-1.2l-0.3-0.1l-1.6-0.4c-0.2-0.1-0.4-0.3-0.3-0.6c0,0,0-0.1,0.1-0.1
					c0.1-0.2,0.3-0.2,0.5-0.2l1.1,0.3v0l1.1,0.3l3.5,1l2.8,0.8l4.7,1.3l2.7,0.8l4.7,1.3l2.6,0.7c0,0,0.1,0,0.1,0v0
					C119.5,77.4,119.6,77.6,119.5,77.8z"/>
			</g>
		</g>
	</g>
	<g>
		<g>
			<circle class="st4" cx="127.8" cy="53.7" r="8.3"/>
		</g>
	</g>
	<g>
		<g>
			<path class="st4" d="M125.3,61.6c0,0,2.7,3,6.8-0.1c4-3-6.6-2-6.6-2S125.1,61.7,125.3,61.6z"/>
		</g>
	</g>
	<g>
		<path class="st4" d="M82.6,101.1l7.6-1.2h8.1c0,0,3.5,0,3.5,2.5c0,2.5,0,6.6,0,6.6l-4,2L82.6,101.1z"/>
	</g>
	<g>
		<g>
			<circle class="st2" cx="130.8" cy="53.7" r="8.3"/>
		</g>
	</g>
	<g>
		<path class="st2" d="M96.1,100.9H83.3c-1.8,0-3.2,1.4-3.2,3.2v5.7c0,1.8,1.4,3.2,3.2,3.2h12.8c1.8,0,3.2-1.4,3.2-3.2v-5.7
			C99.3,102.3,97.8,100.9,96.1,100.9z"/>
	</g>
	<g>
		<g>
			<path class="st2" d="M133.6,61.5L133.6,61.5l-0.1,0.8l-0.2,0.9l-0.5,2.7l-0.2,0.9l-0.4,2.4l-0.2,0.9l-0.4,2.5l-0.2,0.9l-0.4,2.2
				l-0.2,0.9l-0.3,1.8l-0.2,0.9l-0.2,1l-1.2,6.4c0,0-1.5,7.1-5.6,12.1c-4,5-13.6,14.1-13.6,14.1H95.7l16.7-17.2c0,0,3.5-3,6.1-12.1
				l0.4-1.9l0.8-3.6l0-0.1l0.4-2l0.2-0.9l0.4-2l0.2-0.9l0.5-2.3l0.2-0.9l0.5-2.4l0.2-0.9l0.5-2.3l0.2-0.9l0.4-1.9l0.2-0.8l0.1-0.5
				c0,0,0.2,0.3,0.7,0.8c0.3,0.3,0.7,0.6,1.1,0.8c0.8,0.5,1.8,0.9,3.1,1c0.4,0.1,0.9,0.1,1.5,0.1c0.3,0,0.6,0,0.8,0
				c0.2,0,0.5,0,0.7-0.1c0.2,0,0.4-0.1,0.7-0.1C132.6,61.8,133.1,61.7,133.6,61.5z"/>
		</g>
	</g>
	<g>
		<g>
			<circle class="st4" cx="131.6" cy="54.5" r="3"/>
		</g>
	</g>
	<g>
		<g>
			<path class="st4" d="M160.6,164.3c-0.6,0-1.2-0.2-1.7-0.6l-54.5-38.4c-1.4-1-1.7-2.9-0.7-4.2c1-1.4,2.9-1.7,4.2-0.7l54.5,38.4
				c1.4,1,1.7,2.9,0.7,4.2C162.5,163.8,161.5,164.3,160.6,164.3z"/>
		</g>
	</g>
	<g>
		<g>
			<path class="st4" d="M15.5,160.5c-1.1,0-2.1-0.6-2.7-1.6c-0.8-1.5-0.3-3.3,1.2-4.1l67.1-36.8c1.5-0.8,3.3-0.3,4.1,1.2
				c0.8,1.5,0.3,3.3-1.2,4.1l-67.1,36.8C16.5,160.3,16,160.5,15.5,160.5z"/>
		</g>
	</g>
	<g>
		<rect x="88.2" y="113" class="st4" width="10.6" height="2.5"/>
	</g>
	<g>
		<rect x="76" y="115.5" class="st2" width="35.3" height="10.6"/>
	</g>
	<g>
		<polygon class="st4" points="76,126.1 84.1,137.3 102.8,137.3 111.4,126.1 		"/>
	</g>
	<g>
		<path class="st4" d="M89.7,122.1l-38.4,54.5l6.1,4l39.9-57c0,0,0-3-3.5-3S89.7,122.1,89.7,122.1z"/>
	</g>
	<g>
		<path class="st2" d="M38.2,188.7l11.6-12.1c0,0,3-3.5,6.6-1.5c3.5,2,3,4,2,6.6c-1,2.5-7.1,15.6-7.1,15.6L38.2,188.7z"/>
	</g>
	<g>
		
			<ellipse transform="matrix(0.5723 -0.8201 0.8201 0.5723 -139.4779 119.3461)" class="st4" cx="44.7" cy="193.4" rx="3.5" ry="7.9"/>
	</g>
	<g>
		<g>
			<path class="st2" d="M169.5,179.9l-10.8-12.8c0,0-3.2-3.4-0.8-6.7c2.4-3.3,4.3-2.6,6.7-1.3c2.4,1.3,14.8,8.7,14.8,8.7
				L169.5,179.9z"/>
		</g>
		<g>
			
				<ellipse transform="matrix(0.6504 -0.7596 0.7596 0.6504 -71.0456 193.1174)" class="st2" cx="174.3" cy="173.7" rx="7.8" ry="3.5"/>
		</g>
	</g>
	<g>
		<g>
			<path class="st2" d="M9.2,171.7l12.3-11.5c0,0,3.6-3,1.6-6.5c-2-3.6-4-3.1-6.5-2.1c-2.5,1-15.7,6.9-15.7,6.9L9.2,171.7z"/>
		</g>
		<g>
			
				<ellipse transform="matrix(0.8309 -0.5565 0.5565 0.8309 -90.9079 30.7965)" class="st2" cx="5.2" cy="164.9" rx="3.5" ry="7.8"/>
		</g>
	</g>
	<g>
		<path class="st1" d="M131.6,99.9c-1.3,0-2.3-1-2.3-2.3c0-1.3,1-2.3,2.3-2.3s2.3,1,2.3,2.3C134,98.9,132.9,99.9,131.6,99.9z
			 M131.6,96.2c-0.8,0-1.4,0.6-1.4,1.4c0,0.8,0.6,1.4,1.4,1.4s1.4-0.6,1.4-1.4C133.1,96.8,132.4,96.2,131.6,96.2z"/>
	</g>
	<g>
		<polygon class="st2" points="72.8,65.3 82.4,67.9 80.1,83.6 70.1,81.4 		"/>
	</g>
</g>
</svg>
