<?xml version="1.0" encoding="utf-8"?>
<!-- Generator: Adobe Illustrator 25.2.1, SVG Export Plug-In . SVG Version: 6.00 Build 0)  -->
<svg version="1.1" id="Layer_1" xmlns="http://www.w3.org/2000/svg" xmlns:xlink="http://www.w3.org/1999/xlink" x="0px" y="0px"
	 viewBox="0 0 180 151.8" style="enable-background:new 0 0 180 151.8;" xml:space="preserve">
<style type="text/css">
	.st0{fill:#FFC638;}
	.st1{fill:#3B2C44;}
	.st2{fill:#221329;}
	.st3{fill:#FEE784;}
	.st4{fill:#442D47;}
	.st5{fill:#FDFEFE;}
	.st6{fill:#FCC08E;}
	.st7{fill:#CD662D;}
	.st8{fill:#F3B31E;}
	.st9{fill:#FCE69A;}
	.st10{fill:#FFCB15;}
	.st11{fill:#604C61;}
</style>
<g>
	<g>
		<g>
			<g>
				<path class="st0" d="M35.9,77.5c-9,0-13.5-4.6-13.5-13.6V27.6c0-9,4.5-13.5,13.5-13.5c9,0,13.5,4.6,13.5,13.5v9.1h-11v-9.1
					c0-2-0.8-2.9-2.5-2.9c-1.1,0-2.5,0.3-2.5,2.9v36.3c0,2.6,1.4,2.9,2.5,2.9c1.7,0,2.5-0.9,2.5-2.9V51.1h-2.6V40.4h13.6v23.5
					C49.4,72.9,44.9,77.4,35.9,77.5z M35.9,15c-8.5,0-12.6,4.1-12.6,12.6v36.3c0,8.5,4.1,12.6,12.6,12.6c8.5,0,12.6-4.1,12.6-12.6
					V41.4H36.7v8.7h2.6v13.8c0,3.2-1.9,3.9-3.5,3.9c-1.6,0-3.4-0.7-3.4-3.9V27.6c0-3.2,1.9-3.9,3.4-3.9c1.6,0,3.5,0.7,3.5,3.9v8.1
					h9.1v-8.1C48.5,19.1,44.3,15,35.9,15z"/>
			</g>
		</g>
		<g>
			<g>
				<path class="st0" d="M85.1,76.5H74l-1.7-12.6h-6.6L64,76.5H52.9l2.9-22.2L62.1,15h13.9l6.2,39.2L85.1,76.5z M74.8,75.5H84
					l-2.8-21.2l-6-38.4H62.9l-6.1,38.5L54,75.5h9.2L64.9,63h8.2L74.8,75.5z M71.9,54.2H66l3-22.4L71.9,54.2z M67.1,53.3h3.8L69,39
					L67.1,53.3z"/>
			</g>
		</g>
		<g>
			<g>
				<path class="st0" d="M128.8,76.5h-10.6V52.7l-5.1,23.8h-7.8l-5.3-24.1v24.1H89.2V15H100l9.1,38.5L118,15h10.8V76.5z M119.1,75.5
					h8.8V16h-9.1L109,57.7L99.2,16h-9.1v59.6H99V43.6l7,31.9h6.3l6.8-31.9V75.5z"/>
			</g>
		</g>
		<g>
			<g>
				<path class="st0" d="M160.3,76.5h-24.6V15h24.6v10.6h-13.6v14.8h11.7v10.6h-11.7v14.8h13.6V76.5z M136.6,75.5h22.8v-8.7h-13.6
					V50.1h11.7v-8.7h-11.7V24.7h13.6V16h-22.8V75.5z"/>
			</g>
		</g>
		<g>
			<g>
				<path class="st0" d="M42.5,151.8c-9,0-13.5-4.6-13.5-13.6v-36.3c0-9,4.5-13.5,13.5-13.5c9,0,13.5,4.6,13.5,13.5v36.3
					C56,147.2,51.4,151.7,42.5,151.8z M42.5,89.3c-8.5,0-12.6,4.1-12.6,12.6v36.3c0,8.5,4.1,12.6,12.6,12.6
					c8.5,0,12.6-4.1,12.6-12.6v-36.3C55.1,93.4,50.9,89.3,42.5,89.3z M42.5,142.1c-1.6,0-3.4-0.7-3.4-3.9v-36.3
					c0-3.2,1.9-3.9,3.4-3.9c1.6,0,3.5,0.7,3.5,3.9v36.3C45.9,141.4,44,142.1,42.5,142.1z M42.5,99c-1.1,0-2.5,0.3-2.5,2.9v36.3
					c0,2.6,1.4,2.9,2.5,2.9c1.7,0,2.5-0.9,2.5-2.9v-36.3C45,99.9,44.2,99,42.5,99z"/>
			</g>
		</g>
		<g>
			<g>
				<path class="st0" d="M82.5,150.8H68.7l-6.2-39.3l-2.9-22.2h11.1l0,0.4l4.9,43.3l5-43.7h11.1l-2.9,22.2L82.5,150.8z M69.5,149.8
					h12.3l6-38.4l2.8-21.2h-9.2l-5.8,51.2l-5.8-51.2h-9.2l2.8,21.1L69.5,149.8z"/>
			</g>
		</g>
		<g>
			<g>
				<path class="st0" d="M120.4,150.8H95.8V89.3h24.6v10.6h-13.6v14.8h11.7v10.6h-11.7v14.8h13.6V150.8z M96.7,149.8h22.8v-8.7
					h-13.6v-16.7h11.7v-8.7h-11.7V99h13.6v-8.7H96.7V149.8z"/>
			</g>
		</g>
		<g>
			<g>
				<path class="st0" d="M155.5,150.8h-12l-0.1-0.4l-6.5-24.6v24.9h-11V89.3h13.7c8.4,0,12.6,4.6,12.6,13.6v8.9
					c0,5.5-2.2,9.2-6.5,10.9L155.5,150.8z M144.2,149.8h9.9l-9.6-27.7l0.4-0.2c4.2-1.6,6.3-4.9,6.3-10.2v-8.9
					c0-8.5-3.8-12.6-11.7-12.6h-12.7v59.6h9.1v-26h1.4l0.1,0.4L144.2,149.8z M137.6,115.7h-1.7V99h2.7c1.6,0,3.4,0.7,3.4,3.9v8.9
					c0,1.9-0.7,3.1-2.2,3.7C139.6,115.6,139.1,115.7,137.6,115.7z M136.9,114.7h0.7c1.3,0,1.8-0.1,2-0.2c1.1-0.4,1.6-1.3,1.6-2.8
					v-8.9c0-2.7-1.4-3-2.5-3h-1.8V114.7z"/>
			</g>
		</g>
	</g>
	<g>
		<g>
			<path class="st0" d="M156,11.7c4-5.1,8.9-10.8,15.8-11.7c1.1-0.1,2.9,0.1,2.6,1.7c-0.6,2.9-5.8,3.1-8,3.7c-2,0.5-3.9,1.3-5.6,2.4
				C159.1,9,157.7,10.5,156,11.7z"/>
		</g>
	</g>
	<g>
		<g>
			<path class="st1" d="M163.7,12.6c-0.1,0.1-0.3,0.2-0.4,0.2c3.2-0.8,6.5-0.1,9.6,1c1.1,0.4,2.3,0.8,3.5,0.7c1-0.1,1.8-0.7,2.6-1.4
				c0.6-0.5,1.2-1.3,1.1-2.1c-0.1-1.1-1.3-1.6-2.4-1.9c-2.3-0.5-4.7-0.5-7,0C168.2,9.8,165.9,11.3,163.7,12.6z"/>
		</g>
	</g>
	<g>
		<g>
			<path class="st0" d="M24.9,97.6c-9.1-3-19.5-6.8-24.2-15.9c-0.8-1.5-1.4-4.1,1-4.5c4.3-0.7,7.3,6.3,9.1,9.1
				c1.7,2.5,3.8,4.7,6.2,6.4C19.5,94.6,22.4,95.8,24.9,97.6z"/>
		</g>
	</g>
	<g>
		<g>
			<path class="st1" d="M22.2,86.5c0.2,0.1,0.3,0.3,0.5,0.4C20,83,19.3,78,19.2,73.2c0-1.8,0-3.6-0.8-5.1c-0.7-1.3-1.9-2.2-3.2-2.8
				c-1-0.5-2.3-1-3.4-0.4c-1.4,0.7-1.6,2.7-1.4,4.2c0.4,3.4,1.7,6.8,3.6,9.6C16.1,81.8,19.3,84.2,22.2,86.5z"/>
		</g>
	</g>
	<g>
		<g>
			<g>
				<path class="st2" d="M39.7,39.2h12.7v23c0,8.7-4.4,13.1-13.1,13.1c-8.7,0-13-4.4-13-13.1V25.9c0-8.7,4.3-13.1,13-13.1
					c8.7,0,13.1,4.4,13.1,13.1v8.6H42.3v-8.6c0-2.3-1-3.4-3-3.4h-0.1c-2,0-2.9,1.1-2.9,3.4v36.3c0,2.3,1,3.4,3,3.4c2,0,3-1.1,3-3.4
					V48.9h-2.6V39.2z"/>
			</g>
		</g>
		<g>
			<g>
				<path class="st2" d="M85.1,52.6L88,74.3H77.8l-1.7-12.6h-7.4L67,74.3H56.9l2.9-21.6l6.1-38.9H79L85.1,52.6z M74.8,52l-2.4-18.3
					L70,52H74.8z"/>
			</g>
		</g>
		<g>
			<g>
				<path class="st2" d="M112.5,53.9l9.3-40.1h9.9v60.5H122V46.4l-5.9,27.8H109l-6.1-28v28h-9.8V13.8h9.9L112.5,53.9z"/>
			</g>
		</g>
		<g>
			<g>
				<path class="st2" d="M139.6,13.8h23.7v9.6h-13.6v15.8h11.7v9.7h-11.7v15.8h13.6v9.6h-23.7V13.8z"/>
			</g>
		</g>
		<g>
			<g>
				<path class="st2" d="M59,136.5c0,8.7-4.4,13.1-13.1,13.1c-8.7,0-13-4.4-13-13.1v-36.3c0-8.7,4.3-13.1,13-13.1
					c8.7,0,13.1,4.4,13.1,13.1V136.5z M48.9,100.2c0-2.3-1-3.4-3-3.4h-0.1c-2,0-2.9,1.1-2.9,3.4v36.3c0,2.3,1,3.4,3,3.4
					c2,0,3-1.1,3-3.4V100.2z"/>
			</g>
		</g>
		<g>
			<g>
				<path class="st2" d="M85.6,148.6H72.5l-6.1-38.9l-2.9-21.6h10.2l5.4,47.4l5.4-47.4h10.2l-2.9,21.7L85.6,148.6z"/>
			</g>
		</g>
		<g>
			<g>
				<path class="st2" d="M99.7,88.1h23.7v9.6h-13.6v15.8h11.7v9.7h-11.7V139h13.6v9.6H99.7V88.1z"/>
			</g>
		</g>
		<g>
			<g>
				<path class="st2" d="M129.8,88.1H143c8.1,0,12.2,4.4,12.2,13.1v8.9c0,5.5-2.2,9-6.6,10.6l9.7,27.9h-11l-6.9-26h-0.5v26h-10.1
					V88.1z M139.8,97.7v15.8h1.2c1.1,0,1.8-0.1,2.1-0.2c1.3-0.5,1.9-1.6,1.9-3.2v-8.9c0-2.3-1-3.4-3-3.4H139.8z"/>
			</g>
		</g>
	</g>
	<g>
		<g>
			<g>
				<path class="st0" d="M42.8,83.6c2,0,2-3.1,0-3.1C40.8,80.5,40.7,83.6,42.8,83.6L42.8,83.6z"/>
			</g>
		</g>
	</g>
	<g>
		<g>
			<g>
				<path class="st0" d="M15.1,44.5c2,0,2-3.1,0-3.1C13.1,41.3,13.1,44.5,15.1,44.5L15.1,44.5z"/>
			</g>
		</g>
	</g>
	<g>
		<g>
			<g>
				<path class="st0" d="M55.5,18.6c2,0,2-3.1,0-3.1C53.5,15.4,53.5,18.6,55.5,18.6L55.5,18.6z"/>
			</g>
		</g>
	</g>
	<g>
		<g>
			<g>
				<path class="st0" d="M111.5,18.6c2,0,2-3.1,0-3.1C109.5,15.4,109.5,18.6,111.5,18.6L111.5,18.6z"/>
			</g>
		</g>
	</g>
	<g>
		<g>
			<g>
				<path class="st0" d="M154.8,89c2,0,2-3.1,0-3.1C152.8,85.8,152.8,89,154.8,89L154.8,89z"/>
			</g>
		</g>
	</g>
	<g>
		<g>
			<g>
				<path class="st0" d="M131.7,81.8c2,0,2-3.1,0-3.1C129.7,78.7,129.7,81.8,131.7,81.8L131.7,81.8z"/>
			</g>
		</g>
	</g>
	<g>
		<g>
			<g>
				<path class="st0" d="M24.9,137.8c2,0,2-3.1,0-3.1C22.8,134.7,22.8,137.8,24.9,137.8L24.9,137.8z"/>
			</g>
		</g>
	</g>
	<g>
		<g>
			<g>
				<path class="st0" d="M62.5,146.3c2,0,2-3.1,0-3.1C60.5,143.2,60.5,146.3,62.5,146.3L62.5,146.3z"/>
			</g>
		</g>
	</g>
	<g>
		<g>
			<g>
				<path class="st0" d="M156,124.2c2,0,2-3.1,0-3.1C154,121,154,124.2,156,124.2L156,124.2z"/>
			</g>
		</g>
	</g>
	<g>
		<g>
			<g>
				<path class="st0" d="M159.9,34.4c2,0,2-3.1,0-3.1C157.8,31.2,157.8,34.4,159.9,34.4L159.9,34.4z"/>
			</g>
		</g>
	</g>
	<g>
		<g>
			<g>
				<path class="st0" d="M15.1,108.9c2,0,2-3.1,0-3.1C13.1,105.8,13.1,108.9,15.1,108.9L15.1,108.9z"/>
			</g>
		</g>
	</g>
</g>
</svg>
