<?xml version="1.0" encoding="utf-8"?>
<!-- Generator: Adobe Illustrator 25.2.1, SVG Export Plug-In . SVG Version: 6.00 Build 0)  -->
<svg version="1.1" id="Layer_1" xmlns="http://www.w3.org/2000/svg" xmlns:xlink="http://www.w3.org/1999/xlink" x="0px" y="0px"
	 viewBox="0 0 180 188.6" style="enable-background:new 0 0 180 188.6;" xml:space="preserve">
<style type="text/css">
	.st0{fill:#FFC638;}
	.st1{fill:#3B2C44;}
	.st2{fill:#221329;}
	.st3{fill:#FEE784;}
	.st4{fill:#442D47;}
	.st5{fill:#FDFEFE;}
	.st6{fill:#FCC08E;}
	.st7{fill:#CD662D;}
	.st8{fill:#F3B31E;}
	.st9{fill:#FCE69A;}
	.st10{fill:#FFCB15;}
	.st11{fill:#604C61;}
</style>
<g>
	<g>
		<path class="st0" d="M66.8,0.2c0.8-0.2,1.6-0.2,2.5-0.2c0.3,0.2,0.7,0.1,1.1,0.1c13,0,26,0,39.1,0c0.4,0,0.8,0.1,1.1-0.1
			c0.5,0,1.1,0,1.6,0c0.1,0.1,0.2,0.1,0.3,0c0.2,0,0.5-0.1,0.6,0.2c0.5,0.3,1.1,0.5,1.5,1c2.4,2.4,3.1,5.5,3.4,8.7
			c0.3,4,0.1,8.1-0.2,12.1c-0.1,1.4-0.1,2.8-0.2,4.2c-0.3,3.4-0.5,6.8-0.8,10.2c-0.2,2.6-0.4,5.1-0.7,7.7c-0.5,4.2-1,8.3-1.6,12.4
			c-0.5,3.7-1.1,7.4-1.8,11.1c-0.5,2.7-1.1,5.4-1.7,8.1c-1.1,5-2.4,9.9-4,14.7c-1.4,4.2-3,8.4-5.1,12.3c-1.2,2.1-2.4,4.3-4,6.1
			c-1.8,2-3.9,3.7-6.6,4.4c1.6,0.1,1.6,0.1,1.7,1.8c0.1,2.2,0.1,4.3,0.4,6.5c0.5,5.2,1.8,10.1,4.8,14.6c1.6,2.3,3.6,4.1,6.4,4.4
			c1.5,0.1,2.3,0.8,2.7,2c1.4,3.6,1.5,7.1-1.5,10.1c-5.5,0-10.9,0-16.4,0c-5,0-10.1,0-15.1,0c-0.3-0.3-0.7-0.6-1-1
			c-1.8-2.4-1.7-7.5,0-9.9c0.5-0.7,1.1-1.1,2-1.1c0.9,0,1.8-0.3,2.7-0.7c2.5-1.3,4-3.3,5.2-5.7c2.5-4.8,3.6-10,3.8-15.4
			c0.1-1.6,0-3.1,0-4.7c0-0.6,0.1-0.9,0.8-0.9c-2.2-0.8-3.9-2.2-5.4-3.9c-2.5-2.8-4.2-6-5.8-9.4c-3.8-8.3-6.1-17.2-8.1-26.1
			C66.4,63.7,65,53.9,63.9,44c-0.7-6.4-1.2-12.9-1.5-19.4c-0.1-1.8-0.1-3.7-0.2-5.5c-0.2-3.6-0.6-7.3,0.1-10.9
			C62.8,5.1,63.8,2.1,66.8,0.2z"/>
	</g>
	<g>
		<path class="st8" d="M105.7,152.3c2.9-3,2.8-6.5,1.5-10.1c-0.4-1.1-1.3-1.8-2.7-2c-2.9-0.3-4.9-2-6.4-4.4
			c-2.9-4.4-4.2-9.3-4.8-14.6c-0.2-2.2-0.3-4.3-0.4-6.5c-0.1-1.6,0-1.6-1.7-1.8c2.7-0.7,4.8-2.3,6.6-4.4c1.6-1.8,2.9-3.9,4-6.1
			c2.1-3.9,3.7-8.1,5.1-12.3c1.6-4.8,2.9-9.8,4-14.7c0.6-2.7,1.2-5.4,1.7-8.1c0.7-3.7,1.2-7.4,1.8-11.1c0.6-4.1,1.1-8.3,1.6-12.4
			c0.3-2.6,0.5-5.1,0.7-7.7c0.3-3.4,0.6-6.8,0.8-10.2c0.1-1.4,0.1-2.8,0.2-4.2c0.3-4,0.5-8.1,0.2-12.1c-0.2-3.2-1-6.3-3.4-8.7
			c-0.5-0.5-1-0.7-1.5-1c0.1,0,0.3,0,0.4,0c6.4,0,12.9,0,19.3,0c0.7,0,1.4,0,2.1-0.1c5.4,0.5,9,3.4,10.9,8.5
			c0.3,0.9,0.5,1.9,0.5,2.8c-0.1,3.8-0.4,7.6-0.8,11.5c-0.3,3.4-0.8,6.7-1.3,10c-1.6,11.1-4.2,22-8,32.5c-2.6,7.2-5.6,14.2-9.5,20.8
			c-1.9,3.2-4,6.2-6.2,9.2c-1.1,1.5-2.5,2.7-3.5,4.3c0,0,0,0,0,0c-0.2,0-0.4,0-0.4,0.2c-5.3,5.7-11.5,10.2-19.2,12.2
			c-1.1,0.3-1.4,0.8-1.4,1.9c-0.1,4.6,0.5,9,2.7,13.1c4.1,7.7,10.5,12,19.2,13c1.1,0.1,2.3,0,3.4,0.3c2.9,0.6,4.8,3,4.9,5.9
			c0.1,2.6-1.7,5-4.4,5.9c-0.2,0.1-0.3,0.1-0.5,0.2c-0.3,0-0.7,0-1,0c-3.9,0-7.8,0-11.7,0C107.7,152.4,106.7,152.4,105.7,152.3z"/>
	</g>
	<g>
		<path class="st0" d="M58.6,152.3c-1.7-0.5-3.2-1.4-4-3c-2.3-4.1,0.6-8.9,5.2-9c6.2-0.1,11.7-2.1,16.3-6.3
			c5.1-4.7,7.7-10.7,7.8-17.6c0-1,0-2,0-3c0-0.6-0.2-0.8-0.7-0.9c-7.5-1.8-13.5-6-18.9-11.4c-0.7-0.7-1.5-1.2-2.4-1.5
			C49.5,95.7,38.4,89.5,28.5,81C16.6,70.7,7.8,58.2,2.1,43.6C-0.2,37.8-0.8,32,1.2,26.1C4.8,15.3,15.1,8.6,26.4,9.6
			c2.3,0.2,4.5,0.8,6.7,1.6c0.3,0.1,0.7,0.4,0.7-0.3c0.6-5.8,5.3-10.5,11.3-10.8c0.2,0.1,0.3,0.1,0.5,0c0.2,0,0.4,0,0.6,0
			c0.7,0.3,1.3,0.1,2,0.1c2-0.1,4.1,0.2,6.1-0.1c0.3,0,0.7,0,1,0c-0.4,0.7-1.2,0.5-1.8,0.9c-2.8,1.7-4.4,4.3-5.2,7.4
			c-0.6,2.5-0.4,5.1-0.3,7.7c0.2,4.7,0.6,9.4,1.1,14.1c0.5,4.6,1,9.2,1.8,13.7c1.2,7.2,2.6,14.4,4.5,21.4
			c2.7,10.2,6.2,20.2,11.4,29.4c2.2,3.9,4.7,7.6,7.9,10.8c3.3,3.4,7.1,6.1,11.9,7.3c-1-0.1-1.1,0.4-1.1,1.2c0,1.9,0.1,3.9-0.2,5.8
			c-0.6,5.1-2.3,9.8-5.5,13.9c-2.8,3.5-6.2,5.9-10.8,6.5c-1.2,0.2-2.5-0.1-3.6,0.7c-2.1,1.5-2.7,3.6-2.5,5.9
			c0.2,2.5,1.2,4.5,3.7,5.5C63.9,152.3,61.3,152.3,58.6,152.3z M53.4,86.4c-0.3-0.5-0.5-0.9-0.7-1.2c-2.7-4.8-5.1-9.8-7.1-15
			c-5.9-15-9.2-30.7-10.9-46.7c0-0.5-0.2-0.8-0.5-1.1c-3.4-3-7.4-4.2-11.8-3.7c-9.8,1.2-15.7,11.1-12.2,20.3
			c6.4,16.9,17,30.4,31.8,40.7C45.5,82.3,49.2,84.5,53.4,86.4z"/>
	</g>
	<g>
		<path class="st9" d="M74.3,152.3c-2.6,0-5.1,0-7.7,0c-2.5-1-3.5-3-3.7-5.5c-0.1-2.3,0.5-4.4,2.5-5.9c1.1-0.8,2.4-0.6,3.6-0.7
			c4.6-0.6,8-3,10.8-6.5c3.2-4.1,4.9-8.7,5.5-13.9c0.2-1.9,0.2-3.9,0.2-5.8c0-0.8,0.1-1.3,1.1-1.2c-4.8-1.2-8.5-3.9-11.9-7.3
			c-3.1-3.2-5.7-6.9-7.9-10.8c-5.2-9.2-8.7-19.2-11.4-29.4c-1.9-7.1-3.3-14.2-4.5-21.4c-0.7-4.6-1.3-9.1-1.8-13.7
			c-0.5-4.7-0.9-9.4-1.1-14.1c-0.1-2.6-0.4-5.2,0.3-7.7c0.8-3.1,2.4-5.7,5.2-7.4c0.6-0.4,1.4-0.2,1.8-0.9c3.7,0,7.3,0,11,0
			c0.2,0,0.3,0.1,0.5,0.2c-3,1.8-4,4.8-4.5,8c-0.7,3.6-0.2,7.3-0.1,10.9c0.1,1.8,0.1,3.7,0.2,5.5c0.3,6.5,0.9,12.9,1.5,19.4
			c1,9.9,2.4,19.7,4.5,29.5c1.9,8.9,4.2,17.8,8.1,26.1c1.5,3.4,3.3,6.6,5.8,9.4c1.5,1.7,3.2,3.1,5.4,3.9c-0.7,0-0.8,0.3-0.8,0.9
			c0,1.6,0,3.1,0,4.7c-0.2,5.4-1.2,10.6-3.8,15.4c-1.2,2.3-2.8,4.4-5.2,5.7c-0.8,0.4-1.7,0.7-2.7,0.7c-0.9,0-1.5,0.4-2,1.1
			c-1.8,2.4-1.8,7.5,0,9.9C73.5,151.7,73.9,152,74.3,152.3z"/>
	</g>
	<g>
		<path class="st0" d="M117,99.8c0.9-1.6,2.4-2.8,3.5-4.3c2.2-3,4.3-6,6.2-9.2c0.4,0.2,0.7-0.2,1-0.3c20.1-10.2,34.1-25.8,42.2-46.8
			c1-2.7,1.3-5.4,0.8-8.2c-1.2-5.7-4.5-9.7-10-11.5c-5.7-1.9-10.8-0.6-15.2,3.5c0.4-3.8,0.7-7.6,0.8-11.5c1.8-0.5,3.4-1.2,5.2-1.5
			c7.2-1.2,13.8,0.2,19.4,4.8c6.7,5.4,9.7,12.6,9.1,21.3c-0.3,3.6-1.7,7-3.1,10.2c-10.9,24.7-28.9,41.9-54,51.7
			C120.9,98.7,119,99.4,117,99.8z"/>
	</g>
	<g>
		<path class="st2" d="M143.7,179.9c-1.1-2.3-3-3.4-5.6-3.4c-1.4,0-2.8,0-4.3,0c0.2-0.3,0.5-0.4,0.8-0.5c4-1.7,4.9-7,1.7-10
			c-1.2-1.1-2.6-1.6-4.2-1.6c-1.4,0-2.9,0-4.3,0c0.1-0.2,0.3-0.2,0.4-0.3c3-1.2,4.6-3.9,4-7c-0.5-2.8-3-4.8-6.2-4.8
			c-1.5,0-3,0-4.6,0c-0.3,0-0.7,0-1,0c-3.9,0-7.8,0-11.7,0c-1,0-2-0.1-2.9-0.1c-5.5,0-10.9,0-16.4,0c-5,0-10.1,0-15.1,0
			c-2.6,0-5.1,0-7.7,0c-2.6,0-5.3,0-7.9,0c-1.6,0-3.2,0-4.8,0c-2.9,0-5.4,2-5.9,4.7c-0.6,2.9,0.8,5.7,3.5,6.9
			c0.3,0.1,0.6,0.2,1.1,0.5c-1.8,0-3.3,0-4.8,0c-3,0.1-5.4,2.1-5.9,4.9c-0.5,2.9,1,5.6,3.8,6.8c0.1,0.1,0.5-0.1,0.4,0.3
			c-1.4,0-2.8,0-4.2,0c-4.1,0.1-6.8,3.5-6,7.4c0.6,2.8,3.1,4.7,6.3,4.7c8.2,0,16.4,0,24.6,0c23.6,0,47.2,0,70.9,0
			c0.5,0,1,0.1,1.5-0.1c1.6-0.2,2.9-1,3.9-2.3C144.5,184.2,144.7,182.1,143.7,179.9z"/>
	</g>
	<g>
		<path class="st9" d="M110.5,0.1c-0.3,0.2-0.7,0.1-1.1,0.1c-13,0-26,0-39.1,0c-0.4,0-0.8,0.1-1.1-0.1c0.3,0,0.6-0.1,0.9-0.1
			c13.1,0,26.3,0,39.4,0C109.9,0,110.2,0.1,110.5,0.1z"/>
	</g>
	<g>
		<path class="st9" d="M134.8,0.1c-0.7,0-1.4,0.1-2.1,0.1c-6.4,0-12.9,0-19.3,0c0.2-0.3,0.5-0.2,0.8-0.2c6.6,0,13.3,0,19.9,0
			C134.3,0,134.6,0.1,134.8,0.1z"/>
	</g>
	<g>
		<path class="st9" d="M54.4,0.1c-2,0.3-4.1,0.1-6.1,0.1c-0.7,0-1.4,0.2-2-0.1C49,0,51.7,0,54.4,0.1z"/>
	</g>
	<g>
		<path class="st9" d="M45.7,0.1c-0.1,0.1-0.3,0.2-0.5,0C45.4,0,45.5,0,45.7,0.1z"/>
	</g>
	<g>
		<path class="st10" d="M116.5,100c0.1-0.2,0.2-0.2,0.4-0.2C116.9,100,116.7,99.9,116.5,100z"/>
	</g>
	<g>
		<path class="st9" d="M112.4,0.1c-0.1,0.1-0.2,0.1-0.3,0C112.2,0.1,112.3,0.1,112.4,0.1z"/>
	</g>
</g>
</svg>
