<?xml version="1.0" encoding="utf-8"?>
<!-- Generator: Adobe Illustrator 23.0.1, SVG Export Plug-In . SVG Version: 6.00 Build 0)  -->
<svg version="1.1" id="Layer_1" xmlns="http://www.w3.org/2000/svg" xmlns:xlink="http://www.w3.org/1999/xlink" x="0px" y="0px"
	 viewBox="0 0 180 150.21" style="enable-background:new 0 0 180 150.21;" xml:space="preserve">
<style type="text/css">
	.st0{fill:#ED3393;}
	.st1{fill:#00BEF3;}
	.st2{fill:#EDEDEE;}
	.st3{fill:#00BEF3;stroke:#00BEF3;stroke-miterlimit:10;}
	.st4{fill:#9FDDF9;}
	.st5{fill:#ED3393;stroke:#ED3393;stroke-miterlimit:10;}
	.st6{fill:#F49AC1;}
	.st7{fill:#F5F3B6;}
	.st8{fill:#FFFFFF;}
	.st9{fill:#ED3393;stroke:#ED3393;stroke-width:0.5;stroke-miterlimit:10;}
	.st10{fill:#FEE186;stroke:#FEE186;stroke-width:0.5;stroke-miterlimit:10;}
	.st11{fill:#00BEF3;stroke:#00BEF3;stroke-width:0.5;stroke-miterlimit:10;}
	.st12{fill:#FBD511;}
	.st13{opacity:0.59;}
	.st14{opacity:0.59;fill:#FBD511;}
	.st15{opacity:0.33;fill:#FBD511;}
	.st16{fill:#DFF3FD;}
	.st17{fill:#FFD034;}
	.st18{fill:none;}
</style>
<g>
	<g>
		<path class="st12" d="M176.99,11.13l-3.63,128.52c-0.17,5.91-3.01,10.55-6.46,10.55H12.76c-3.45,0-6.29-4.64-6.46-10.55
			L2.68,11.13c0,0,5.53,27.4,13.28,49.19c5.17,14.53,11.33,26.55,17.5,26.29c8.36-0.36,15.89-23.73,20.91-44.37
			c4-16.42,6.41-31.1,6.41-31.1S74.62,86.6,89.83,86.6c15.22,0,29.05-75.47,29.05-75.47s2.41,14.68,6.41,31.09
			c5.03,20.64,12.55,44.02,20.92,44.38c6.17,0.26,12.33-11.76,17.49-26.28C171.46,38.54,176.99,11.13,176.99,11.13z"/>
		<path class="st12" d="M176.99,11.13l-3.63,128.52c-0.17,5.91-3.01,10.55-6.46,10.55h-34.68c4.74-8.83,8.47-18.51,11.4-28.44
			c0.37-1.23,0.71-2.46,1.05-3.69c0.75-2.72,1.44-5.44,2.06-8.17c0.89-3.81,1.68-7.63,2.37-11.41c0.88-4.85,1.62-9.64,2.23-14.33
			c4.4-4.2,8.64-13.37,12.37-23.84C171.46,38.54,176.99,11.13,176.99,11.13z"/>
		<path class="st12" d="M176.36,33.45c-2.22,11.1-5.14,21.88-8.47,32.13c-1.6,4.92-3.32,9.72-5.23,14.3
			c-1.87,4.48-3.94,8.87-6.39,12.47c-2.39,3.51-5.3,6.59-8.48,7.29c-3.37,0.74-6.49-1.61-9.1-5.09c-2.56-3.41-4.66-7.77-6.53-12.29
			c-1.96-4.74-3.67-9.77-5.24-14.92c-3.17-10.39-5.81-21.29-8.04-32.36c-0.27-1.36-0.54-2.72-0.8-4.09c0.53,0.01,1.07,0.03,1.6,0.04
			c-2.36,11.21-5.16,22.19-8.43,32.72c-1.62,5.23-3.37,10.35-5.32,15.22c-1.88,4.68-3.95,9.21-6.4,13.06
			c-2.37,3.73-5.24,7.02-8.5,7.72c-3.34,0.72-6.52-1.78-9.13-5.18c-2.59-3.38-4.77-7.66-6.71-12.11c-2.07-4.75-3.9-9.8-5.59-14.97
			c-3.38-10.36-6.25-21.24-8.72-32.33c-0.31-1.37-0.6-2.75-0.89-4.13c0.53-0.01,1.07-0.03,1.6-0.04
			c-2.12,11.16-4.68,22.12-7.72,32.64c-1.52,5.28-3.18,10.47-5.05,15.41c-1.78,4.68-3.76,9.22-6.13,13.07
			c-2.33,3.79-5.22,7.14-8.49,7.7c-3.28,0.56-6.41-1.84-9.03-5.02c-2.6-3.14-4.76-7.24-6.71-11.52c-2-4.4-3.79-9.1-5.44-13.9
			C9.55,59.16,6.59,48.47,4.17,37.51c-0.3-1.34-0.58-2.7-0.86-4.06c1.32,5.61,2.85,11.07,4.46,16.45
			c1.61,5.37,3.31,10.65,5.18,15.78c1.79,4.93,3.72,9.75,5.86,14.26c2.08,4.38,4.39,8.55,7.03,11.96c2.63,3.4,5.93,5.99,9.28,4.63
			c3.16-1.28,5.79-5.22,7.91-9.25c2.31-4.38,4.25-9.31,5.99-14.38c1.79-5.19,3.38-10.57,4.84-16.05c2.58-9.64,4.74-19.55,6.65-29.63
			c0.08-0.41,0.15-0.81,0.23-1.22c0.77,3.65,1.53,7.3,2.37,10.91c1.41,6.11,2.95,12.14,4.63,18.06c1.65,5.85,3.44,11.61,5.44,17.14
			c1.95,5.41,4.11,10.68,6.68,15.29c2.34,4.21,5.26,8.38,8.72,9.32c3.54,0.96,6.83-2.4,9.39-6.25c2.75-4.13,5.01-9.19,7.04-14.38
			c2.1-5.37,3.96-11.02,5.67-16.77c1.74-5.86,3.34-11.84,4.82-17.91c1.13-4.64,2.16-9.34,3.15-14.07c0.09-0.45,0.19-0.89,0.28-1.34
			c1.73,9.13,3.62,18.13,5.86,26.93c1.41,5.53,2.93,10.97,4.63,16.25c1.67,5.2,3.51,10.29,5.67,14.94c2.01,4.34,4.38,8.6,7.33,11.05
			c1.44,1.2,3.01,1.86,4.62,1.67c1.73-0.2,3.38-1.29,4.88-2.76c1.41-1.4,2.69-3.15,3.9-5.02c1.24-1.91,2.42-3.94,3.53-6.09
			c2.23-4.29,4.21-8.95,6.04-13.74c1.92-5.01,3.68-10.2,5.34-15.49c1.65-5.3,3.22-10.69,4.63-16.2
			C175.7,36.21,176.03,34.83,176.36,33.45z"/>
		<g>
			<g>
				<path class="st1" d="M65.17,7.4c0,4.09-1.93,7.4-4.32,7.4c-0.18,0-0.35-0.02-0.53-0.06c-2.13-0.44-3.79-3.56-3.79-7.34
					c0-3.78,1.65-6.9,3.79-7.34C60.5,0.02,60.68,0,60.85,0C63.24,0,65.17,3.31,65.17,7.4z"/>
				<path class="st1" d="M64.12,7.4c0,3.78-1.65,6.9-3.79,7.34c-2.13-0.44-3.79-3.56-3.79-7.34c0-3.78,1.65-6.9,3.79-7.34
					C62.46,0.5,64.12,3.62,64.12,7.4z"/>
			</g>
		</g>
		<g>
			<g>
				<path class="st1" d="M123.28,7.4c0,4.09-1.93,7.4-4.32,7.4c-0.18,0-0.35-0.02-0.53-0.06c-2.13-0.44-3.79-3.56-3.79-7.34
					c0-3.78,1.65-6.9,3.79-7.34c0.17-0.04,0.35-0.06,0.53-0.06C121.34,0,123.28,3.31,123.28,7.4z"/>
				<path class="st1" d="M122.22,7.4c0,3.78-1.65,6.9-3.79,7.34c-2.13-0.44-3.79-3.56-3.79-7.34c0-3.78,1.65-6.9,3.79-7.34
					C120.57,0.5,122.22,3.62,122.22,7.4z"/>
			</g>
		</g>
		<g>
			<g>
				<path class="st1" d="M179.97,7.8c-0.21,4.07-1.56,7.19-3.02,6.97c-0.11-0.02-0.22-0.05-0.32-0.11
					c-1.28-0.64-2.14-3.89-1.94-7.66c0.19-3.77,1.36-6.72,2.69-6.97c0.11-0.02,0.22-0.03,0.32-0.01
					C179.17,0.25,180.18,3.73,179.97,7.8z"/>
				<path class="st1" d="M179.33,7.7c-0.19,3.77-1.36,6.72-2.69,6.97c-1.28-0.64-2.14-3.89-1.94-7.66c0.19-3.77,1.36-6.72,2.69-6.97
					C178.67,0.67,179.52,3.93,179.33,7.7z"/>
			</g>
		</g>
		<g>
			<g>
				<path class="st1" d="M5.31,6.89c0.27,4.06-0.69,7.58-2.15,7.87c-0.11,0.02-0.22,0.02-0.32,0c-1.33-0.18-2.55-3.09-2.79-6.85
					S0.6,0.86,1.87,0.17c0.1-0.06,0.21-0.1,0.32-0.12C3.64-0.24,5.04,2.83,5.31,6.89z"/>
				<path class="st1" d="M4.67,7.01c0.25,3.76-0.56,7.05-1.83,7.74c-1.33-0.18-2.55-3.09-2.79-6.85S0.6,0.86,1.87,0.17
					C3.2,0.35,4.42,3.25,4.67,7.01z"/>
			</g>
		</g>
		<g>
			<path class="st12" d="M69.11,98.35c0,8.82-3.7,15.97-8.26,15.97c-4.56,0-8.26-7.15-8.26-15.97c0-8.82,3.7-15.97,8.26-15.97
				C65.41,82.38,69.11,89.53,69.11,98.35z"/>
			<path class="st12" d="M69.11,98.35c0,8.82-3.7,15.97-8.26,15.97c0,0,4.93-3.25,4.93-15.97c0-13.39-4.93-15.97-4.93-15.97
				C65.41,82.38,69.11,89.53,69.11,98.35z"/>
			<path class="st12" d="M59.19,94.44c-0.44,3.48-1.55,6.01-2.49,5.66c-0.93-0.35-1.33-3.45-0.9-6.92c0.44-3.48,1.55-6.01,2.49-5.66
				C59.23,87.87,59.63,90.97,59.19,94.44z"/>
		</g>
		<g>
			<path class="st12" d="M127.22,98.35c0,8.82-3.7,15.97-8.26,15.97c-4.56,0-8.26-7.15-8.26-15.97c0-8.82,3.7-15.97,8.26-15.97
				C123.52,82.38,127.22,89.53,127.22,98.35z"/>
			<path class="st12" d="M127.22,98.35c0,8.82-3.7,15.97-8.26,15.97c0,0,4.93-3.25,4.93-15.97c0-13.39-4.93-15.97-4.93-15.97
				C123.52,82.38,127.22,89.53,127.22,98.35z"/>
			<path class="st12" d="M117.3,94.44c-0.44,3.48-1.55,6.01-2.49,5.66c-0.93-0.35-1.33-3.45-0.9-6.92c0.44-3.48,1.55-6.01,2.49-5.66
				C117.34,87.87,117.74,90.97,117.3,94.44z"/>
		</g>
		<g>
			
				<ellipse transform="matrix(0.0251 -0.9997 0.9997 0.0251 71.5374 270.0565)" class="st12" cx="174.22" cy="98.35" rx="15.96" ry="3.69"/>
			<path class="st12" d="M177.9,98.66c-0.25,8.81-2.1,15.82-4.13,15.65c0,0,2.29-3.07,2.65-15.77c0.38-13.37-1.75-16.14-1.75-16.14
				C176.7,82.57,178.15,89.84,177.9,98.66z"/>
			<path class="st12" d="M174.35,94.74c-0.19,3.5-0.83,5.96-1.44,5.49c-0.6-0.47-0.94-3.69-0.75-7.2c0.19-3.5,0.83-5.96,1.44-5.49
				C174.21,88.01,174.54,91.23,174.35,94.74z"/>
		</g>
		<g>
			<path class="st12" d="M10.18,97.82c0.44,8.79-0.85,16.16-2.88,16.45c-2.03,0.3-4.03-6.59-4.46-15.38
				C2.4,90.1,3.69,82.73,5.71,82.44C7.74,82.14,9.74,89.03,10.18,97.82z"/>
			<path class="st12" d="M10.18,97.82c0.44,8.79-0.85,16.16-2.88,16.45c0,0,2.03-3.56,1.4-16.24C8.03,84.69,5.71,82.44,5.71,82.44
				C7.74,82.14,9.74,89.03,10.18,97.82z"/>
			<path class="st12" d="M6.35,94.74c0.08,3.51-0.36,6.1-1,5.77s-1.22-3.45-1.3-6.96c-0.08-3.52,0.36-6.1,1-5.77
				C5.69,88.11,6.27,91.22,6.35,94.74z"/>
		</g>
		<g>
			<path class="st12" d="M98.14,122.05c-2.76,0-5-3.85-5-8.58c0-3.94,1.87-7.15,4.17-7.15c1.93,0,3.51,2.7,3.51,6.01
				c0,0.8-0.38,1.44-0.84,1.44s-0.84-0.65-0.84-1.44c0-1.72-0.82-3.12-1.82-3.12c-1.37,0-2.49,1.91-2.49,4.27
				c0,3.14,1.49,5.69,3.32,5.69c2.4,0,4.36-3.35,4.36-7.48c0-5.35-2.54-9.71-5.66-9.71c-2.74,0-4.7,2.81-6,8.59
				c-1.27,5.68-3.2,11.48-7.86,11.48c-4.05,0-7.35-5.65-7.35-12.6c0-5.72,2.71-10.36,6.05-10.36c2.76,0,5,3.85,5,8.58
				c0,3.94-1.87,7.15-4.17,7.15c-1.93,0-3.51-2.7-3.51-6.01c0-0.8,0.38-1.44,0.84-1.44c0.47,0,0.84,0.65,0.84,1.44
				c0,1.72,0.82,3.12,1.82,3.12c1.37,0,2.49-1.91,2.49-4.27c0-3.14-1.49-5.69-3.32-5.69c-2.4,0-4.36,3.35-4.36,7.48
				c0,5.35,2.54,9.71,5.66,9.71c3.43,0,4.99-3.85,6.29-9.63c1.55-6.93,4.1-10.44,7.57-10.44c4.05,0,7.35,5.65,7.35,12.59
				C104.18,117.4,101.47,122.05,98.14,122.05z"/>
		</g>
		<g>
			<path class="st12" d="M39.66,122.05c-2.76,0-5-3.85-5-8.58c0-3.94,1.87-7.15,4.17-7.15c1.93,0,3.51,2.7,3.51,6.01
				c0,0.8-0.38,1.44-0.84,1.44s-0.84-0.65-0.84-1.44c0-1.72-0.82-3.12-1.82-3.12c-1.37,0-2.49,1.91-2.49,4.27
				c0,3.14,1.49,5.69,3.32,5.69c2.4,0,4.36-3.35,4.36-7.48c0-5.35-2.54-9.71-5.66-9.71c-2.74,0-4.7,2.81-6,8.59
				c-1.27,5.68-3.2,11.48-7.86,11.48c-4.05,0-7.35-5.65-7.35-12.6c0-5.72,2.71-10.36,6.05-10.36c2.76,0,5,3.85,5,8.58
				c0,3.94-1.87,7.15-4.17,7.15c-1.93,0-3.51-2.7-3.51-6.01c0-0.8,0.38-1.44,0.84-1.44c0.47,0,0.84,0.65,0.84,1.44
				c0,1.72,0.82,3.12,1.82,3.12c1.37,0,2.49-1.91,2.49-4.27c0-3.14-1.49-5.69-3.32-5.69c-2.4,0-4.36,3.35-4.36,7.48
				c0,5.35,2.54,9.71,5.66,9.71c3.43,0,4.99-3.85,6.29-9.63c1.55-6.93,4.1-10.44,7.57-10.44c4.05,0,7.35,5.65,7.35,12.59
				C45.7,117.4,42.99,122.05,39.66,122.05z"/>
		</g>
		<path class="st12" d="M141.93,119.17c1.08,0,1.98-0.38,2.74-1.09c-0.34,1.23-0.69,2.46-1.05,3.69c-0.52,0.19-1.08,0.29-1.69,0.29
			c-4.05,0-7.34-5.65-7.34-12.6c0-5.72,2.71-10.37,6.05-10.37c2.76,0,5,3.85,5,8.58c0,3.94-1.87,7.15-4.17,7.15
			c-1.93,0-3.51-2.7-3.51-6.01c0-0.79,0.38-1.44,0.84-1.44c0.47,0,0.84,0.65,0.84,1.44c0,1.73,0.82,3.13,1.82,3.13
			c1.37,0,2.49-1.91,2.49-4.27c0-3.14-1.49-5.7-3.32-5.7c-2.41,0-4.36,3.36-4.36,7.48C136.28,114.81,138.81,119.17,141.93,119.17z"
			/>
		<path class="st12" d="M163.14,111.69c0,5.72-2.71,10.37-6.05,10.37c-2.76,0-5.01-3.86-5.01-8.58c0-3.94,1.87-7.15,4.17-7.15
			c1.93,0,3.51,2.7,3.51,6.01c0,0.79-0.38,1.44-0.84,1.44c-0.47,0-0.84-0.65-0.84-1.44c0-1.73-0.82-3.13-1.82-3.13
			c-1.37,0-2.49,1.91-2.49,4.27c0,3.14,1.49,5.7,3.32,5.7c2.4,0,4.36-3.36,4.36-7.48c0-5.36-2.54-9.71-5.66-9.71
			c-2.74,0-4.7,2.81-6,8.59c-1.11,4.94-2.71,9.98-6.18,11.2c0.37-1.23,0.72-2.45,1.05-3.69c1.65-1.54,2.67-4.59,3.55-8.54
			c1.55-6.93,4.1-10.45,7.57-10.45C159.85,99.09,163.14,104.74,163.14,111.69z"/>
		<path class="st12" d="M165.6,148.75l0.09-3.18h6.47c0.19-0.45,0.36-0.94,0.51-1.44h-6.93l0.12-4.22h7.5
			c0-0.09,0.01-0.18,0.02-0.27l0.03-1.18h-7.51l0.12-4.24h7.51l0.04-1.44h-7.5l0.11-3.86h7.5l0.08-2.89H5.92l0.04,1.26L6,128.92
			h7.32l0.11,3.86H6.11l0.04,1.44h7.32l0.12,4.24H6.27l0.01,0.26l0.03,0.91c0,0.09,0.01,0.18,0.02,0.27h7.32l0.12,4.22H7.01
			c0.15,0.5,0.31,0.99,0.51,1.44h6.29l0.09,3.18h-4.3c0.94,0.91,2.02,1.44,3.18,1.44h154.14c1.15,0,2.24-0.53,3.18-1.44H165.6z
			 M14.17,128.92h7.16l0.1,3.86h-7.15L14.17,128.92z M14.32,134.23h7.14l0.11,4.24h-7.13L14.32,134.23z M14.48,139.92h7.12
			l0.11,4.22H14.6L14.48,139.92z M14.73,148.75l-0.09-3.18h7.11l0.08,3.18H14.73z M22.17,128.92h7.16l0.09,3.86h-7.15L22.17,128.92z
			 M22.3,134.23h7.14l0.09,4.24h-7.13L22.3,134.23z M22.45,139.92h7.12l0.09,4.22h-7.11L22.45,139.92z M22.67,148.75l-0.08-3.18
			h7.11l0.07,3.18H22.67z M30.17,128.92h7.16l0.07,3.86h-7.15L30.17,128.92z M30.29,134.23h7.14l0.08,4.24h-7.13L30.29,134.23z
			 M30.41,139.92h7.12l0.08,4.22h-7.11L30.41,139.92z M30.61,148.75l-0.07-3.18h7.11l0.06,3.18H30.61z M38.17,128.92h7.16l0.06,3.86
			h-7.15L38.17,128.92z M38.27,134.23h7.14l0.07,4.24h-7.13L38.27,134.23z M38.38,139.92h7.12l0.07,4.22h-7.11L38.38,139.92z
			 M38.55,148.75l-0.06-3.18h7.11l0.05,3.18H38.55z M46.17,128.92h7.16l0.05,3.86h-7.15L46.17,128.92z M46.25,134.23h7.14l0.06,4.24
			h-7.13L46.25,134.23z M46.35,139.92h7.12l0.06,4.22h-7.11L46.35,139.92z M46.49,148.75l-0.05-3.18h7.11l0.04,3.18H46.49z
			 M54.17,128.92h7.16l0.04,3.86h-7.15L54.17,128.92z M54.24,134.23h7.14l0.04,4.24h-7.13L54.24,134.23z M54.31,139.92h7.12
			l0.04,4.22h-7.11L54.31,139.92z M54.43,148.75l-0.04-3.18h7.11l0.03,3.18H54.43z M62.17,128.92h7.16l0.03,3.86h-7.15L62.17,128.92
			z M62.22,134.23h7.14l0.03,4.24h-7.13L62.22,134.23z M62.28,139.92h7.12l0.03,4.22h-7.11L62.28,139.92z M62.37,148.75l-0.03-3.18
			h7.11l0.02,3.18H62.37z M70.17,128.92h7.16l0.02,3.86h-7.15L70.17,128.92z M70.21,134.23h7.14l0.02,4.24h-7.13L70.21,134.23z
			 M70.25,139.92h7.12l0.02,4.22h-7.11L70.25,139.92z M70.31,148.75l-0.02-3.18h7.11l0.01,3.18H70.31z M78.17,128.92h7.16l0.01,3.86
			h-7.15L78.17,128.92z M78.19,134.23h7.14l0.01,4.24h-7.13L78.19,134.23z M78.21,139.92h7.12l0.01,4.22h-7.11L78.21,139.92z
			 M78.25,148.75l-0.01-3.18h7.11l0,3.18H78.25z M93.29,148.75h-7.1l0-3.18h7.11L93.29,148.75z M93.3,144.13h-7.11l-0.01-4.22h7.12
			L93.3,144.13z M93.31,138.47h-7.13l-0.01-4.24h7.14L93.31,138.47z M93.32,132.79h-7.15l-0.01-3.86h7.16L93.32,132.79z
			 M101.23,148.75h-7.1l0-3.18h7.11L101.23,148.75z M101.25,144.13h-7.11l0.01-4.22h7.12L101.25,144.13z M101.28,138.47h-7.13
			l0.01-4.24h7.14L101.28,138.47z M101.3,132.79h-7.15l0.01-3.86h7.16L101.3,132.79z M109.17,148.75h-7.1l0.01-3.18h7.11
			L109.17,148.75z M109.21,144.13h-7.11l0.02-4.22h7.12L109.21,144.13z M109.25,138.47h-7.13l0.02-4.24h7.14L109.25,138.47z
			 M109.29,132.79h-7.15l0.02-3.86h7.16L109.29,132.79z M117.11,148.75h-7.1l0.02-3.18h7.11L117.11,148.75z M117.16,144.13h-7.11
			l0.03-4.22h7.12L117.16,144.13z M117.22,138.47h-7.13l0.03-4.24h7.14L117.22,138.47z M117.28,132.79h-7.15l0.03-3.86h7.16
			L117.28,132.79z M125.06,148.75h-7.1l0.03-3.18h7.11L125.06,148.75z M125.12,144.13h-7.11l0.04-4.22h7.12L125.12,144.13z
			 M125.19,138.47h-7.13l0.04-4.24h7.14L125.19,138.47z M125.27,132.79h-7.15l0.04-3.86h7.16L125.27,132.79z M133,148.75h-7.1
			l0.04-3.18h7.11L133,148.75z M133.07,144.13h-7.11l0.06-4.22h7.12L133.07,144.13z M133.16,138.47h-7.13l0.06-4.24h7.14
			L133.16,138.47z M133.26,132.79h-7.15l0.05-3.86h7.16L133.26,132.79z M140.94,148.75h-7.1l0.05-3.18H141L140.94,148.75z
			 M141.03,144.13h-7.11l0.07-4.22h7.12L141.03,144.13z M141.13,138.47h-7.13l0.07-4.24h7.14L141.13,138.47z M141.24,132.79h-7.15
			l0.06-3.86h7.16L141.24,132.79z M148.88,148.75h-7.1l0.06-3.18h7.11L148.88,148.75z M148.98,144.13h-7.11l0.08-4.22h7.12
			L148.98,144.13z M149.11,138.47h-7.13l0.08-4.24h7.14L149.11,138.47z M149.23,132.79h-7.15l0.07-3.86h7.16L149.23,132.79z
			 M156.82,148.75h-7.1l0.07-3.18h7.11L156.82,148.75z M156.93,144.13h-7.11l0.09-4.22h7.12L156.93,144.13z M157.08,138.47h-7.13
			l0.09-4.24h7.14L157.08,138.47z M157.22,132.79h-7.15l0.09-3.86h7.16L157.22,132.79z M164.76,148.75h-7.1l0.08-3.18h7.11
			L164.76,148.75z M164.89,144.13h-7.11l0.11-4.22h7.12L164.89,144.13z M165.05,138.47h-7.13l0.11-4.24h7.14L165.05,138.47z
			 M165.21,132.79h-7.15l0.1-3.86h7.16L165.21,132.79z"/>
		<g class="st13">
			<path class="st12" d="M60.78,30.46c-0.23,6.5-0.87,12.98-1.67,19.35c-0.78,6.16-1.75,12.24-2.95,18.2
				c-1.21,6.01-2.66,11.87-4.42,17.47c-1.66,5.28-3.65,10.37-6.11,14.65c-2.42,4.2-5.32,7.67-8.69,9.11
				c-3.55,1.52-7.32,0.49-10.59-2.19c-6.22-5.08-10.57-15.33-13.69-25.53C9.26,70.49,6.91,58.36,5.62,46.1
				c-0.16-1.55-0.3-3.1-0.41-4.66c2.72,9.79,5.56,19.52,8.85,28.79c1.61,4.54,3.33,9,5.27,13.15c1.91,4.08,4,8.02,6.5,11.07
				c2.43,2.96,5.35,5.18,8.39,4.68c3.02-0.49,5.61-3.81,7.68-7.4c2.21-3.82,4.04-8.28,5.69-12.84c1.67-4.61,3.16-9.41,4.56-14.28
				c2.85-9.9,5.32-20.11,7.74-30.35C60.18,33.01,60.48,31.73,60.78,30.46z"/>
		</g>
		<path class="st14" d="M149.11,98.5c-0.66,3.63-1.4,7.22-2.22,10.76c-0.03,0.13-0.08,0.57-0.15,0.66c-0.07,0.09-0.31,0.02-0.4,0.02
			c-0.29,0-0.58-0.01-0.87-0.03c-0.54-0.04-1.1-0.15-1.63-0.31c-0.96-0.28-1.89-0.74-2.8-1.34c-3.65-2.43-6.64-7.09-9.05-12.3
			c-2.67-5.77-4.72-12.35-6.4-19.1c-1.71-6.87-3.08-13.99-4.15-21.24c-1.08-7.33-1.89-14.8-2.34-22.33
			c-0.06-0.94-0.1-1.89-0.13-2.84c0.73,3.12,1.46,6.24,2.21,9.35c1.57,6.51,3.18,13,4.92,19.39c1.67,6.17,3.47,12.25,5.51,18.09
			c1.92,5.52,4.09,10.96,6.83,15.4c1.25,2.03,2.64,3.87,4.22,5.1c1.59,1.25,3.34,1.7,5.07,1.25
			C148.18,98.92,148.65,98.73,149.11,98.5z"/>
		<path class="st15" d="M174.22,37.65c-0.23,3.78-0.62,7.5-1.08,11.21c-0.44,3.72-1,7.38-1.63,11.04
			c-1.27,7.3-2.85,14.47-4.89,21.41c-1.04,3.45-2.17,6.87-3.51,10.12c-1.32,3.27-2.82,6.42-4.61,9.27c-1.77,2.87-3.86,5.4-6.31,7.15
			c-1.21,0.88-2.53,1.5-3.88,1.82c-0.52,0.12-1.05,0.21-1.58,0.23c0.89-3.81,1.68-7.63,2.37-11.41c0.27-0.14,0.54-0.29,0.81-0.46
			c1.62-1.03,3.17-2.8,4.66-4.9c2.95-4.28,5.52-9.99,7.81-16.01c2.31-6.04,4.36-12.52,6.3-19.13c0.98-3.32,1.9-6.68,2.83-10.06
			c0.46-1.69,0.91-3.4,1.36-5.12C173.34,41.12,173.77,39.39,174.22,37.65z"/>
		<g class="st13">
			<path class="st12" d="M63.69,48.64c3.16,8.62,6.25,17.33,9.67,25.65c1.65,4.02,3.37,7.97,5.25,11.68c1.77,3.49,3.7,6.9,5.94,9.51
				c1.79,2.08,3.8,3.64,6,3.48c2.48-0.18,4.78-1.98,6.77-4.47c2.25-2.81,4.17-6.44,5.83-10.24c1.73-3.96,3.28-8.1,4.71-12.4
				c2.89-8.68,5.33-17.78,7.64-26.95c0.29-1.15,0.58-2.31,0.86-3.47c-0.24,5.95-0.89,11.89-1.72,17.68
				c-0.81,5.6-1.82,11.14-3.08,16.49c-1.27,5.39-2.79,10.64-4.68,15.47c-1.78,4.56-3.88,8.83-6.43,12.18
				c-2.48,3.26-5.42,5.59-8.54,6.24c-2.7,0.56-5.37-0.19-7.84-2.19c-2.74-2.22-5.08-5.7-7.11-9.51c-2.06-3.88-3.8-8.24-5.34-12.75
				c-1.69-4.94-3.11-10.12-4.34-15.44c-1.26-5.44-2.32-11.04-3.09-16.74C64,51.47,63.83,50.06,63.69,48.64z"/>
		</g>
	</g>
	<g>
		<path class="st11" d="M107.29,97.02c-4.99,6.08-8.74,11.13-11.61,15.58c0.27,0,0.55,0.07,0.82,0.07c0.96,0.14,1.91,2.73,0.27,2.32
			c-0.41-0.07-1.3-0.14-2.53-0.14c-2.05,3.41-3.62,6.49-4.85,9.5c-2.05,5.05-0.41,9.7,3.21,9.7s7.72-4.51,8.06-4.99
			c0.41-0.41,1.16,0.75,0.95,1.09c-0.27,0.27-3.14,4.03-7.24,5.53c-4.17,1.5-8.27-1.71-8.2-7.51c0-3.21,2.25-8.2,5.26-13.25
			c-4.03,0.14-9.5,0.48-14.07,0.82c-7.04,12.16-9.97,18.99-15.92,20.02c-6.42,1.16-8.74-8.13-8.54-9.56
			c0.07-0.61,1.84-2.53,2.05-0.41c0.14,2.73,2.05,8.2,6.35,7.31c4.1-0.82,8.4-9.16,12.3-15.58l0.89-1.57
			c-1.91,0.21-3.62,0.34-4.71,0.48c-1.16,0.14,0.55-2.39,2.05-2.66c0.27,0,1.91-0.21,4.24-0.34C84.88,98.93,86.45,97.02,87.68,96
			c0.14-0.21,2.87-0.75,1.98,0.55c-4.51,6.28-7.99,11.82-10.79,16.6c4.44-0.34,10.04-0.68,14-0.61c4.92-7.92,11.07-15.51,12.84-16.8
			C106.33,95.31,108.11,96,107.29,97.02z"/>
		<path class="st11" d="M119.32,127.42c0.82-0.68,0.68,1.37,0.34,1.71c-0.27,0.34-5.6,5.6-9.91,6.22c-3.48,0.48-5.74-0.75-6.63-3.28
			c-1.09-2.73,0.41-6.56,3.62-9.5c7.58-6.9,12.71-3.96,7.17,2.46c-1.23,1.37-6.83,5.74-8.81,6.63c0.48,2.12,2.87,2.94,8.27,0.27
			C115.15,131.04,117.2,129.33,119.32,127.42z M111.32,124.89c4.78-4.64,2.46-5.81-2.32-1.57c-1.78,1.64-3.21,3.96-3.76,5.94
			C106.61,128.51,109.48,126.67,111.32,124.89z"/>
	</g>
</g>
</svg>
