<?xml version="1.0" encoding="utf-8"?>
<!-- Generator: Adobe Illustrator 23.0.1, SVG Export Plug-In . SVG Version: 6.00 Build 0)  -->
<svg version="1.1" id="Layer_1" xmlns="http://www.w3.org/2000/svg" xmlns:xlink="http://www.w3.org/1999/xlink" x="0px" y="0px"
	 viewBox="0 0 180 159.03" style="enable-background:new 0 0 180 159.03;" xml:space="preserve">
<style type="text/css">
	.st0{fill:#ED3393;}
	.st1{fill:#00BEF3;}
	.st2{fill:#EDEDEE;}
	.st3{fill:#00BEF3;stroke:#00BEF3;stroke-miterlimit:10;}
	.st4{fill:#9FDDF9;}
	.st5{fill:#ED3393;stroke:#ED3393;stroke-miterlimit:10;}
	.st6{fill:#F49AC1;}
	.st7{fill:#F5F3B6;}
	.st8{fill:#FFFFFF;}
	.st9{fill:#ED3393;stroke:#ED3393;stroke-width:0.5;stroke-miterlimit:10;}
	.st10{fill:#FEE186;stroke:#FEE186;stroke-width:0.5;stroke-miterlimit:10;}
	.st11{fill:#00BEF3;stroke:#00BEF3;stroke-width:0.5;stroke-miterlimit:10;}
	.st12{fill:#FBD511;}
	.st13{opacity:0.59;}
	.st14{opacity:0.59;fill:#FBD511;}
	.st15{opacity:0.33;fill:#FBD511;}
	.st16{fill:#DFF3FD;}
	.st17{fill:#FFD034;}
	.st18{fill:none;}
</style>
<path class="st1" d="M90.02,29.74c3.68-5.98,7.38-10.76,11.55-15.22c26.86-28.72,64.48-9.7,73.81,14.66
	c9.57,24.98,3.76,46.89-12.69,66.83c-8.89,10.79-20.34,18.66-31.26,27.13c-13.97,10.83-28.55,20.97-39.95,34.74
	c-1.05,1.26-1.53,1.72-2.84,0.18c-16.02-18.93-37.15-31.82-56.09-47.3C18.45,99.22,6.9,85.83,2.06,67.78
	C-4.72,42.49,4.64,8.64,39.41,0.94c14-3.1,25.69,1.67,36.04,10.76C81.14,16.7,85.66,22.69,90.02,29.74z"/>
<g>
	<path class="st8" d="M75.12,39.71c0.41,0.09,0.6,0.21,0.58,0.38c-0.02,0.17-0.25,0.3-0.67,0.41c-0.15,0.02-0.53,0.04-1.12,0.05
		l-0.87,0.03v0.05c0.06,0.18,0.11,0.66,0.13,1.44c0.04,0.98,0.07,2.98,0.08,5.99c0.01,3.01,0.01,4.86-0.02,5.55
		c-0.02,0.33-0.04,0.78-0.06,1.34c-0.02,0.86-0.05,1.65-0.1,2.36c-0.02,0.28-0.09,0.47-0.19,0.55c-0.24,0.19-0.62,0.32-1.15,0.39
		c-0.39,0.05-0.76,0.05-1.12,0c-0.6-0.07-0.98-0.22-1.15-0.45l-0.1-0.1v-2.6c0.02-1.98,0.06-3.36,0.13-4.15
		c0-0.12,0.01-0.48,0.03-1.08c0.06-1.45,0.13-2.65,0.19-3.57c0-0.21,0.01-0.53,0.03-0.97c0.08-1.35,0.16-2.51,0.22-3.5
		c0.06-0.61,0.13-1.01,0.19-1.18c0.04-0.09,0.06-0.13,0.05-0.13c-0.01,0-0.19-0.01-0.53-0.03c-0.64-0.04-1.15-0.1-1.51-0.18
		c-0.34-0.07-0.51-0.17-0.51-0.3s0.17-0.23,0.51-0.3c0.58-0.14,1.72-0.19,3.43-0.16C73.6,39.59,74.78,39.64,75.12,39.71z"/>
	<path class="st8" d="M82.38,50.73c0.36-0.04,0.65,0.05,0.87,0.26c0.13,0.1,0.17,0.23,0.13,0.37c-0.04,0.1-0.08,0.47-0.13,1.1
		c-0.08,1.19-0.19,2.07-0.32,2.63c-0.15,0.74-0.33,1.29-0.54,1.66c-0.19,0.32-0.45,0.55-0.77,0.71c-0.39,0.21-0.74,0.35-1.06,0.42
		c-0.17,0.04-0.43,0.06-0.77,0.07c-0.34,0.01-0.61,0-0.8-0.04c-0.45-0.07-0.93-0.24-1.44-0.5c-0.47-0.24-0.85-0.63-1.12-1.16
		c-0.19-0.39-0.34-1.02-0.45-1.89c-0.02-0.4-0.03-1.49-0.02-3.26c0.01-1.77,0.04-3.16,0.08-4.18c0.11-2.35,0.4-4,0.87-4.97
		c0.3-0.59,0.67-1.06,1.12-1.39c0.64-0.46,1.49-0.68,2.54-0.68c0.86,0,1.5,0.16,1.93,0.47c0.24,0.19,0.43,0.41,0.58,0.66
		c0.34,0.53,0.51,1.37,0.51,2.52c0,0.89-0.06,1.82-0.19,2.79c-0.13,1.19-0.21,1.81-0.26,1.87c-0.09,0.12-0.3,0.22-0.64,0.29
		c-0.15,0.04-0.47,0.06-0.96,0.08c-0.51,0-0.89,0.01-1.12,0.03h-0.35L80,49.1c-0.02,0.39-0.03,1.25-0.03,2.6
		c0,1.39,0.02,2.23,0.07,2.55c0.08,0.82,0.21,1.53,0.38,2.13c0.04,0.14,0.08,0.24,0.1,0.29c0,0.02,0.01,0.03,0.03,0.03
		c0.11-0.05,0.27-0.32,0.48-0.79c0.24-0.59,0.39-1.28,0.45-2.05c0.02-0.28,0.03-0.72,0.03-1.33c0-0.6-0.01-0.98-0.03-1.12
		c-0.02-0.19,0.05-0.35,0.22-0.47C81.87,50.81,82.1,50.74,82.38,50.73z M80.03,47.47v0.13h0.26c0.08,0,0.27,0.01,0.55,0.03h0.35
		l0.03-0.13c0.13-0.35,0.24-0.99,0.32-1.92c0.19-1.96,0.05-3.27-0.42-3.92l-0.06-0.13l-0.06,0.16c-0.11,0.21-0.25,0.63-0.42,1.26
		c-0.21,0.84-0.36,1.84-0.45,3C80.06,46.63,80.03,47.13,80.03,47.47z"/>
	<path class="st8" d="M93.96,57.11c0.09,0.16,0.11,0.28,0.08,0.37c-0.03,0.09-0.14,0.19-0.34,0.32c-0.3,0.19-0.69,0.29-1.16,0.29
		c-0.41,0-0.8-0.05-1.19-0.16c-0.39-0.11-0.65-0.27-0.8-0.5c-0.13-0.19-0.25-0.47-0.35-0.84l-0.06-0.24l-0.13,0.26
		c-0.36,0.67-0.74,1.1-1.12,1.29c-0.45,0.21-0.96,0.26-1.54,0.16c-0.51-0.09-0.95-0.33-1.32-0.74c-0.28-0.3-0.47-0.67-0.58-1.13
		c-0.09-0.39-0.14-0.95-0.16-1.68c-0.02-1.4,0.12-2.54,0.42-3.42c0.24-0.72,0.57-1.25,1-1.6c0.26-0.19,0.57-0.34,0.93-0.45
		c0.92-0.24,1.73-0.19,2.44,0.16l0.1,0.05v-0.18c0-0.77,0.06-1.95,0.19-3.52c0.02-0.28,0.03-0.78,0.03-1.5
		c0-0.74-0.01-1.22-0.03-1.45c-0.13-0.74-0.27-1.24-0.42-1.53c-0.13-0.21-0.24-0.31-0.32-0.31c-0.04,0-0.12,0.06-0.24,0.17
		c-0.12,0.11-0.21,0.21-0.27,0.3c-0.43,0.53-0.74,1.38-0.93,2.55c-0.04,0.3-0.13,0.79-0.26,1.47c-0.08,0.44-0.15,0.75-0.19,0.95
		c-0.02,0.23-0.05,0.39-0.1,0.5c-0.04,0.1-0.1,0.19-0.18,0.26c-0.08,0.07-0.19,0.12-0.34,0.16c-0.13,0.04-0.32,0.06-0.58,0.08
		c-0.53,0.02-0.89-0.06-1.06-0.24l-0.1-0.08l0.03-0.29c0-0.28,0.05-0.71,0.16-1.29c0.11-0.58,0.22-1.16,0.35-1.73
		c0.13-0.58,0.24-1,0.32-1.26c0.15-0.39,0.31-0.73,0.48-1.03c0.49-0.81,1.29-1.3,2.41-1.5c0.17-0.02,0.42-0.03,0.75-0.03
		c0.33,0,0.58,0.01,0.75,0.03c1.01,0.18,1.75,0.56,2.25,1.16c0.34,0.42,0.59,1.02,0.74,1.81c0.08,0.49,0.12,1.81,0.1,3.94
		c0,2.3-0.03,3.82-0.1,4.57c-0.02,0.3-0.03,1.06-0.03,2.3c0,1.24,0,1.94,0,2.12C93.67,56.24,93.79,56.71,93.96,57.11z M90.14,51.23
		l0.03-0.42l-0.13-0.13c-0.08-0.11-0.2-0.22-0.35-0.34c-0.36-0.3-0.62-0.46-0.77-0.47c-0.11,0-0.25,0.24-0.42,0.71
		c-0.13,0.35-0.22,0.73-0.29,1.13c-0.04,0.23-0.06,0.67-0.05,1.34c0.01,0.67,0.04,1.24,0.08,1.73c0.08,1.05,0.14,1.56,0.16,1.52
		c0.02,0,0.1-0.14,0.22-0.42c0.24-0.53,0.72-1.87,1.44-4.05C90.12,51.69,90.14,51.49,90.14,51.23z"/>
	<path class="st8" d="M112.35,44.08c0.02,1.05-0.02,2.43-0.13,4.13c-0.08,1.38-0.14,2.29-0.16,2.71c0,0.21-0.02,0.52-0.06,0.92
		c-0.02,0.39-0.04,0.73-0.06,1.03c-0.02,0.31-0.05,0.67-0.1,1.05c-0.02,0.37-0.04,0.68-0.06,0.95c-0.08,1.07-0.16,1.7-0.22,1.89
		c-0.02,0.1-0.05,0.18-0.1,0.24c-0.24,0.32-0.78,0.49-1.64,0.53c-0.39,0.02-0.74-0.03-1.06-0.16c-0.26-0.1-0.42-0.22-0.48-0.34
		c-0.04-0.07-0.06-0.24-0.06-0.5c0-0.32,0.01-0.61,0.03-0.87c0.08-1.05,0.13-2.18,0.13-3.39c0.02-2.19,0.05-3.75,0.1-4.68
		c0.04-0.53,0.06-0.88,0.06-1.05c0.02-0.35,0.04-0.72,0.06-1.1c0.02-0.46,0.04-0.81,0.06-1.05c0.02-0.28,0.03-0.81,0.03-1.6
		c0-0.79-0.01-1.23-0.03-1.31c-0.02-0.07-0.04-0.11-0.06-0.11c-0.06-0.02-0.22,0.18-0.48,0.58c-0.17,0.26-0.37,0.67-0.61,1.21
		c-0.36,0.86-0.73,1.99-1.09,3.39l-0.13,0.42l-0.03,0.92c0,0.18-0.01,0.87-0.03,2.08c-0.02,0.74-0.04,1.2-0.07,1.39
		c-0.02,0.19-0.04,0.62-0.06,1.29c-0.04,0.65-0.07,1.22-0.1,1.71c-0.07,1.09-0.1,1.86-0.1,2.31c0,0.35-0.06,0.58-0.19,0.68
		c-0.13,0.11-0.33,0.19-0.61,0.26c-0.47,0.11-0.96,0.13-1.46,0.07c-0.5-0.06-0.83-0.18-0.98-0.36l-0.06-0.1l-0.03-1.16
		c-0.04-2.89-0.06-5.67-0.06-8.33c0-1.12,0.04-2.29,0.13-3.5c0.06-1.23,0.04-2.13-0.06-2.71c-0.02-0.09-0.04-0.17-0.06-0.25
		c-0.02-0.08-0.04-0.14-0.06-0.2c-0.02-0.05-0.04-0.08-0.07-0.08c-0.11,0.04-0.28,0.25-0.51,0.66c-0.51,0.84-0.94,2.04-1.28,3.6
		c-0.36,1.61-0.65,3.12-0.87,4.52c-0.09,0.67-0.13,1.25-0.13,1.76c0,0.37,0,1.41,0,3.13c0,1.66-0.02,2.53-0.06,2.6
		c-0.08,0.19-0.36,0.33-0.83,0.42c-0.15,0.04-0.37,0.05-0.67,0.05c-0.3,0.02-0.47,0.02-0.51,0c-0.26-0.04-0.46-0.08-0.61-0.13
		c-0.28-0.09-0.44-0.21-0.48-0.37c-0.02-0.09-0.03-0.28-0.03-0.58c0-0.31-0.01-0.65-0.03-1c-0.08-1.59-0.14-4.65-0.16-9.17
		c0-2.45,0.01-4.06,0.03-4.81c0.02-0.75,0.07-1.21,0.16-1.37c0.13-0.19,0.39-0.33,0.77-0.42c0.36-0.07,0.73-0.08,1.09-0.03
		c0.43,0.07,0.71,0.2,0.83,0.39c0.08,0.14,0.14,0.45,0.16,0.92c0.02,0.18,0.04,0.45,0.06,0.82c0.04,0.49,0.07,1.3,0.1,2.42
		c0.02,0.4,0.03,0.73,0.03,0.97l0.03,0.32l0.03-0.18c0.21-1,0.46-2.01,0.74-3.02c0.21-0.74,0.47-1.29,0.77-1.66
		c0.19-0.28,0.44-0.48,0.74-0.61c0.62-0.24,1.34-0.26,2.15-0.05c0.36,0.11,0.71,0.28,1.03,0.51c0.32,0.24,0.56,0.5,0.71,0.78
		c0.19,0.37,0.35,0.81,0.48,1.31c0.09,0.3,0.15,0.81,0.19,1.53l0.26-0.63c0.41-1.38,0.79-2.29,1.16-2.71
		c0.13-0.16,0.27-0.29,0.42-0.39c0.26-0.18,0.59-0.29,0.99-0.34c0.58-0.07,1.11,0.01,1.61,0.24c0.3,0.12,0.56,0.3,0.77,0.53
		c0.3,0.32,0.51,0.75,0.64,1.29C112.23,42.7,112.31,43.3,112.35,44.08z"/>
</g>
<g>
	<path class="st8" d="M65.91,85.82c-0.7,0.95-1.62,2.02-2.77,3.22c-0.8,0.85-1.3,1.46-1.5,1.83c-0.2,0.37-0.22,0.74-0.07,1.08
		c0.15,0.35,0.72,1.05,1.72,2.1c0.9,0.9,1.65,1.85,2.25,2.84c1.4,2.25,2.32,4.47,2.77,6.66c0.2,0.9,0.3,2,0.3,3.29
		c0,1.9-0.3,3.49-0.9,4.79c-0.55,1.1-1.25,2.1-2.1,2.99c-1.35,1.3-2.95,2.15-4.79,2.55c-1.3,0.25-2.55,0.25-3.74,0
		c-0.95-0.2-1.64-0.42-2.1-0.68l-0.23-0.15l-0.15,0.23c-0.3,0.25-0.75,0.45-1.35,0.6c-0.3,0.1-0.81,0.15-1.54,0.15
		c-0.72,0-1.23-0.02-1.54-0.08c-0.95-0.2-1.52-0.57-1.72-1.12c-0.05-0.2-0.05-1.16,0-2.88c0.05-1.72,0.08-4.03,0.08-6.92
		c0.15-8.39,0.32-15.35,0.52-20.89c0.35-8.98,0.6-14.35,0.75-16.1c0.1-1.1,0.23-1.82,0.37-2.17c0.15-0.3,0.45-0.55,0.9-0.75
		c0.5-0.25,1.09-0.37,1.76-0.37c0.67,0,1.23,0.12,1.68,0.37c0.5,0.2,0.8,0.6,0.9,1.2c0.15,0.65,0.22,4.64,0.22,11.98
		c0,2.55,0,4.63,0,6.25c0,1.62,0.02,2.41,0.08,2.36c0.15-1.75,0.32-3.55,0.52-5.39c0.15-1.5,0.27-2.7,0.37-3.59
		c0.25-2,0.52-3.67,0.82-5.01c0.15-0.55,0.3-1.22,0.45-2.02c0.5-2.49,1.17-4.14,2.02-4.94c0.65-0.7,1.85-1.05,3.59-1.05
		c1.7,0,3.27,0.48,4.72,1.42c1.15,0.8,1.95,1.87,2.4,3.22c0.55,1.55,0.55,3.39,0,5.54C69.83,79.38,68.26,82.52,65.91,85.82z
		 M61.12,108.2v-1.72l-0.3-1.42c-0.35-1.95-0.7-3.39-1.05-4.34c-0.4-1.2-0.95-2.37-1.65-3.52c-1-1.65-1.55-2.47-1.64-2.47
		c-0.05,0-0.35,3.02-0.9,9.06c-0.25,2.85-0.4,5.32-0.45,7.41v3.07h0.52c0.35,0,0.67,0.02,0.97,0.08c0.25,0.1,0.6,0.17,1.05,0.22
		l0.67,0.08c0.1,0.05,0.32-0.1,0.67-0.45c0.8-0.8,1.45-2.02,1.95-3.67C61.07,110.07,61.12,109.3,61.12,108.2z M55.66,88.96
		l-0.07,0.08l0.07,0.15C55.66,89.09,55.66,89.01,55.66,88.96z M61.35,80.95c0.4-0.95,0.7-1.92,0.9-2.92
		c0.85-3.54,1.12-6.11,0.82-7.71c-0.15-0.85-0.37-1.42-0.67-1.72l-0.3-0.37l-0.3,0.23c-0.45,0.45-0.8,1-1.05,1.64
		c-1.15,2.7-2.05,6.31-2.69,10.86c-0.15,1.2-0.3,2.3-0.45,3.29c-0.15,1.15-0.27,2.02-0.37,2.62c-0.1,0.7-0.16,1.11-0.19,1.24
		s-0.02,0.17,0,0.15s0.21-0.26,0.56-0.71C59.25,85.35,60.5,83.15,61.35,80.95z"/>
	<path class="st8" d="M88.97,116.14c0.2,0.45,0.15,0.83-0.15,1.12c-0.45,0.5-1.27,0.8-2.47,0.9c-0.85,0.1-1.95,0.1-3.29,0
		c-1.9-0.1-3.45-0.6-4.64-1.5c-1.15-0.85-2.02-1.92-2.62-3.22c-0.55-1.1-1.02-3.24-1.42-6.44c0-0.15-0.05-0.72-0.15-1.72
		c-0.2-3.04-0.12-6.99,0.22-11.83c0.1-1.25,0.18-2.25,0.23-2.99c0.05-1.1,0.1-2.05,0.15-2.85c0.05-0.65,0.12-1.52,0.23-2.62
		c0.2-2.85,0.48-5.61,0.82-8.31l0.45-3.37c0.2-1.55,0.35-2.67,0.45-3.37c0.1-0.6,0.18-1.2,0.23-1.8c0.1-0.8,0.27-1.35,0.52-1.64
		c0.45-0.55,1.33-0.87,2.66-0.97c1.32-0.1,2.41,0.08,3.26,0.52c0.4,0.2,0.65,0.5,0.75,0.9c0.15,0.5,0.1,2.12-0.15,4.86
		c-0.1,1.45-0.2,3.27-0.3,5.47c-0.15,2-0.23,3.59-0.23,4.79c-0.05,1.1-0.1,2.3-0.15,3.59c-0.05,1-0.1,2.8-0.15,5.39
		c-0.05,2.3-0.1,4.67-0.15,7.11c-0.15,6.54,0.1,11.08,0.75,13.63c0.3,1.25,0.7,2.2,1.2,2.85c0.25,0.35,0.52,0.48,0.82,0.37
		c0.65-0.3,1.4-0.33,2.25-0.08c0.5,0.15,0.75,0.35,0.75,0.6C88.82,115.69,88.87,115.89,88.97,116.14z"/>
	<path class="st8" d="M112.03,82.38c0.05,0.5,0.09,1.38,0.11,2.66c0.02,1.27,0.05,2.61,0.08,4.01c0.02,1.4,0.05,2.78,0.07,4.15
		s0.01,2.38-0.04,3.03c-0.15,3.64-0.45,6.91-0.9,9.81c-0.95,5.49-2.32,9.28-4.12,11.38c-0.85,1.05-2.1,1.75-3.74,2.1
		c-0.35,0.1-0.97,0.16-1.87,0.19c-0.9,0.02-1.55,0.01-1.95-0.04c-1.75-0.3-3.17-0.85-4.27-1.65c-0.9-0.6-1.64-1.37-2.25-2.32
		c-1.1-1.6-1.87-3.74-2.32-6.44c-0.35-2.04-0.6-4.99-0.75-8.83c-0.15-4.39-0.15-8.33,0-11.83c0.1-1.64,0.18-2.97,0.23-3.97
		c0.05-1,0.1-1.92,0.15-2.77c0.05-1.3,0.08-2.07,0.08-2.32c0.35-6.04,0.92-9.83,1.72-11.38c0.25-0.5,0.6-0.87,1.05-1.12
		c0.75-0.4,1.65-0.55,2.7-0.45c1.2,0.15,1.97,0.58,2.32,1.27c0.3,0.45,0.47,1.17,0.52,2.17c0.05,1,0.05,3.07,0,6.21
		c-0.1,4.89-0.05,9.93,0.15,15.12c0,0.45,0.02,1.29,0.08,2.51c0.05,1.22,0.07,2.06,0.07,2.51c0.3,8.89,0.82,14.48,1.57,16.77
		c0.2,0.7,0.49,1.44,0.86,2.21c0.37,0.78,0.61,1.16,0.71,1.16s0.37-0.37,0.83-1.12c1.1-1.7,1.95-4.49,2.54-8.39
		c0.4-2.64,0.7-5.29,0.9-7.94c0.2-2.79,0.3-5.54,0.3-8.23c0-6.19-0.07-10.83-0.22-13.92c-0.1-2.2-0.33-4.09-0.67-5.69
		c-0.2-1.1-0.23-1.77-0.08-2.02c0.1-0.15,0.23-0.37,0.37-0.67c0.35-0.7,1-1.02,1.95-0.97c0.45,0,0.77,0.05,0.97,0.15
		c0.2,0.1,0.49,0.35,0.86,0.75c0.37,0.4,0.6,0.69,0.67,0.86c0.08,0.18,0.16,0.64,0.26,1.39c0.05,0.6,0.1,1.25,0.15,1.95
		c0.1,0.55,0.15,1.02,0.15,1.42c0.1,1,0.23,2.27,0.37,3.82c0.05,0.5,0.1,1.3,0.15,2.4C111.9,81.23,111.98,81.92,112.03,82.38z"/>
	<path class="st8" d="M131.95,97.35c0.85-0.1,1.52,0.15,2.02,0.75c0.3,0.3,0.4,0.65,0.3,1.05c-0.1,0.3-0.2,1.35-0.3,3.14
		c-0.2,3.39-0.45,5.89-0.75,7.48c-0.35,2.1-0.77,3.67-1.27,4.72c-0.45,0.9-1.05,1.57-1.8,2.02c-0.9,0.6-1.72,1-2.47,1.2
		c-0.4,0.1-1,0.16-1.8,0.19c-0.8,0.02-1.42-0.01-1.87-0.11c-1.05-0.2-2.17-0.67-3.37-1.42c-1.1-0.7-1.97-1.8-2.62-3.29
		c-0.45-1.1-0.8-2.89-1.05-5.39c-0.05-1.15-0.06-4.24-0.04-9.28s0.09-9.01,0.19-11.9c0.25-6.69,0.92-11.4,2.02-14.15
		c0.7-1.69,1.57-3.02,2.62-3.97c1.5-1.3,3.47-1.95,5.92-1.95c2,0,3.49,0.45,4.49,1.35c0.55,0.55,1,1.18,1.35,1.87
		c0.8,1.5,1.2,3.89,1.2,7.19c0,2.55-0.15,5.19-0.45,7.94c-0.3,3.39-0.5,5.17-0.6,5.32c-0.2,0.35-0.7,0.62-1.5,0.82
		c-0.35,0.1-1.1,0.18-2.25,0.23c-1.2,0-2.07,0.03-2.62,0.08h-0.82l-0.08,1.5c-0.05,1.1-0.08,3.57-0.08,7.41
		c0,3.94,0.05,6.36,0.15,7.26c0.2,2.35,0.5,4.37,0.9,6.06c0.1,0.4,0.18,0.67,0.23,0.82c0,0.05,0.02,0.08,0.08,0.08
		c0.25-0.15,0.62-0.9,1.12-2.25c0.55-1.69,0.9-3.64,1.05-5.84c0.05-0.8,0.07-2.06,0.07-3.78c0-1.72-0.02-2.78-0.07-3.18
		c-0.05-0.55,0.12-1,0.52-1.35C130.77,97.6,131.3,97.4,131.95,97.35z M126.48,88.06v0.37h0.6c0.2,0,0.62,0.03,1.27,0.08h0.82
		l0.08-0.37c0.3-1,0.55-2.82,0.75-5.46c0.45-5.59,0.12-9.31-0.97-11.16l-0.15-0.37l-0.15,0.45c-0.25,0.6-0.58,1.8-0.97,3.59
		c-0.5,2.4-0.85,5.24-1.05,8.54C126.55,85.67,126.48,87.12,126.48,88.06z"/>
</g>
</svg>
