<?xml version="1.0" encoding="utf-8"?>
<!-- Generator: Adobe Illustrator 23.0.1, SVG Export Plug-In . SVG Version: 6.00 Build 0)  -->
<svg version="1.1" id="Layer_1" xmlns="http://www.w3.org/2000/svg" xmlns:xlink="http://www.w3.org/1999/xlink" x="0px" y="0px"
	 viewBox="0 0 180 174.11" style="enable-background:new 0 0 180 174.11;" xml:space="preserve">
<style type="text/css">
	.st0{fill:#ED3393;}
	.st1{fill:#00BEF3;}
	.st2{fill:#EDEDEE;}
	.st3{fill:#00BEF3;stroke:#00BEF3;stroke-miterlimit:10;}
	.st4{fill:#9FDDF9;}
	.st5{fill:#ED3393;stroke:#ED3393;stroke-miterlimit:10;}
	.st6{fill:#F49AC1;}
	.st7{fill:#F5F3B6;}
	.st8{fill:#FFFFFF;}
	.st9{fill:#ED3393;stroke:#ED3393;stroke-width:0.5;stroke-miterlimit:10;}
	.st10{fill:#FEE186;stroke:#FEE186;stroke-width:0.5;stroke-miterlimit:10;}
	.st11{fill:#00BEF3;stroke:#00BEF3;stroke-width:0.5;stroke-miterlimit:10;}
	.st12{fill:#FBD511;}
	.st13{opacity:0.59;}
	.st14{opacity:0.59;fill:#FBD511;}
	.st15{opacity:0.33;fill:#FBD511;}
	.st16{font-family:'RomanticRegular';}
	.st17{font-size:17.6376px;}
	.st18{fill:#DFF3FD;}
	.st19{fill:#FFD034;}
	.st20{fill:none;}
</style>
<g>
	<g>
		<g>
			<path d="M0.65,153.71h0.24c0.14,0.02,0.34,0.18,0.34,0.2v0.46L3.81,166l0.1-0.09l1.77-11.74c0.03-0.24,0.27-0.35,0.58-0.35
				c0.27,0,0.58,0.07,0.65,0.24l2.96,11.85l1.77-11.7v-0.02c0.07-0.24,0.17-0.53,0.65-0.53c0.31,0,0.58,0.2,0.58,0.39v0.07
				l-1.91,14.44c-0.03,0.24-0.24,0.46-0.61,0.46c-0.58,0-0.78-0.35-0.85-0.66l-3.03-11.3l-1.7,11.39c-0.1,0.31-0.31,0.7-0.75,0.7
				c-0.34,0-0.61-0.13-0.65-0.35L0,154.33v-0.02C0,154.02,0.17,153.71,0.65,153.71z"/>
			<path d="M17.02,154.08c0-0.15,0.34-0.24,0.58-0.24c0.17,0,0.54,0.13,0.58,0.31l-0.54,8.16l4.63-0.29l0.48-8.1
				c0-0.15,0.37-0.24,0.58-0.24c0.24,0,0.58,0.11,0.65,0.31l-0.99,14.79c-0.03,0.2-0.34,0.29-0.58,0.29c-0.27,0-0.51-0.07-0.58-0.24
				c0-0.07-0.03-0.33-0.03-0.4c0-1.65,0.34-3.91,0.34-5.57h-0.71l-3.81,0.24l-0.21,5.55c-0.03,0.22-0.27,0.29-0.54,0.29
				c-0.17,0-0.58,0-0.58-0.2v-2.92L17.02,154.08z"/>
			<path d="M28.4,154c0.07-0.22,0.24-0.4,0.61-0.4c0.78,0,1.16,0.77,1.33,1.19c0,0.02,0.03,0.07,0.03,0.09
				c0.21,0.37,0.99,2.17,1.12,2.57c0.31,0.79,1.09,3.4,1.16,3.75l1.12,6.98v0.22c0,0.22-0.07,0.5-0.54,0.5
				c-0.27,0-0.54-0.15-0.58-0.35l-0.48-3.14l-0.07-0.04h-0.99c-1.29,0-2.21,0-3.54,0.09c0,0.15-0.07,0.88-0.07,1.03
				c-0.03,0.31-0.03,1.95,0,2.26c-0.03,0.18-0.31,0.33-0.61,0.33c-0.14,0-0.54-0.09-0.54-0.24C26.18,164.05,26.93,159.07,28.4,154z
				 M29.25,155.25c-0.75,2.77-1.43,5.71-1.57,9.41c0.14,0,0.88-0.02,1.02-0.02c0.51,0,2.83-0.09,3.34-0.11v-0.15
				c0-0.18-0.37-2.15-0.54-2.81c-0.14-0.61-0.88-3.16-1.05-3.64c-0.24-0.72-1.06-2.57-1.12-2.61L29.25,155.25z"/>
			<path d="M37.01,155.01l-0.07-0.24h-0.1c-0.31,0.07-1.26,0.18-1.36,0.2c-0.31,0.07-0.24,0.15-0.58,0.15
				c-0.34,0-0.61-0.22-0.61-0.44c0-0.2,0.21-0.31,0.44-0.4c1.53-0.24,3-0.44,4.56-0.44h0.14c0.27,0,1.12,0.04,1.19,0.04h0.1
				c0.48,0.04,1.19,0.11,1.19,0.51c0,0.24-0.31,0.44-0.65,0.44H41.1c-0.07-0.02-0.41-0.15-0.48-0.15c-0.24-0.04-0.92-0.04-1.33-0.04
				c-0.34,0-0.48,0-0.92,0.04c-0.07,0.02-0.14,0.09-0.17,0.15c0,0.55,0.03,2.63,0.03,3.18v3.62c0.03,1.01,0.37,5.82,0.48,6.8v0.15
				c0,0.24-0.24,0.39-0.61,0.39c-0.24,0-0.48-0.11-0.51-0.26C37.01,163.85,37.11,159.2,37.01,155.01z"/>
			<path d="M54.14,153.71h0.24c0.14,0.02,0.34,0.18,0.34,0.2v0.46L57.3,166l0.1-0.09l1.77-11.74c0.03-0.24,0.27-0.35,0.58-0.35
				c0.27,0,0.58,0.07,0.65,0.24l2.96,11.85l1.77-11.7v-0.02c0.07-0.24,0.17-0.53,0.65-0.53c0.31,0,0.58,0.2,0.58,0.39v0.07
				l-1.91,14.44c-0.03,0.24-0.24,0.46-0.61,0.46c-0.58,0-0.78-0.35-0.85-0.66l-3.03-11.3l-1.7,11.39c-0.1,0.31-0.31,0.7-0.75,0.7
				c-0.34,0-0.61-0.13-0.65-0.35l-3.37-14.48v-0.02C53.49,154.02,53.66,153.71,54.14,153.71z"/>
			<path d="M69.22,168.52l0.89-14c0.03-0.33,0.1-0.61,0.71-0.61c0.37,0,0.51,0.18,0.51,0.37v0.2l-0.92,13.85
				c0,0.26,0,0.72-0.61,0.72c-0.37,0-0.58-0.2-0.58-0.42V168.52z"/>
			<path d="M74.74,154c0-0.2,0.41-0.26,0.65-0.26c0.07,0,0.17,0.02,0.17,0.02c0.1,0.02,0.31,0.18,0.31,0.18l0.61,13.83l0.1,0.44
				h0.07c0.2,0,1.91-0.13,2.11-0.15h0.34c0.37,0,0.72,0.09,0.72,0.37c0,0.18-0.24,0.37-0.54,0.37l-2.62,0.2H76.3
				c-0.44,0-0.82-0.09-0.88-0.39c-0.03-0.18-0.14-0.72-0.14-0.79L74.74,154z"/>
			<path d="M83.21,154c0-0.2,0.41-0.26,0.65-0.26c0.07,0,0.17,0.02,0.17,0.02c0.1,0.02,0.31,0.18,0.31,0.18l0.61,13.83l0.1,0.44
				h0.07c0.2,0,1.91-0.13,2.11-0.15h0.34c0.37,0,0.72,0.09,0.72,0.37c0,0.18-0.24,0.37-0.54,0.37l-2.62,0.2h-0.34
				c-0.44,0-0.82-0.09-0.89-0.39c-0.03-0.18-0.14-0.72-0.14-0.79L83.21,154z"/>
			<path d="M100,154c0.03-0.18,0.27-0.33,0.54-0.35c0.27,0,1.46-0.04,1.74-0.04h0.65c1.77,0,3.68,0.53,4.12,1.76v0.53
				c0,1.54-0.88,3.16-2.52,4.28c-0.31,0.22-0.92,0.44-1.19,0.68c2.08,0.33,2.86,1.73,2.86,2.96c0,2.17-0.51,5.18-4.63,5.18h-0.78
				c-0.41-0.04-0.65-0.26-0.68-0.53l-0.24-2.04v-5L100,154z M102.28,154.37c-0.27,0.02-0.95,0.04-0.95,0.07l-0.1,0.04
				c0,0-0.07,0.79-0.1,1.12c0,0.77-0.03,4.37-0.03,5.16h0.14c2.89-0.68,4.63-2.94,4.63-4.85c0-0.07-0.03-0.39-0.03-0.46
				c-0.24-0.81-1.87-1.08-2.89-1.08H102.28z M101.09,161.72v4.78c0,0.09,0.1,1.07,0.14,1.4c0,0.04,0.07,0.26,0.1,0.31h0.48
				c3.06,0,3.2-2.96,3.2-4.43c0-1.25-0.75-2.22-2.93-2.22C102.04,161.57,101.09,161.59,101.09,161.72z"/>
			<path d="M111.47,154c0.07-0.22,0.24-0.4,0.61-0.4c0.78,0,1.16,0.77,1.33,1.19c0,0.02,0.03,0.07,0.03,0.09
				c0.21,0.37,0.99,2.17,1.12,2.57c0.31,0.79,1.09,3.4,1.16,3.75l1.12,6.98v0.22c0,0.22-0.07,0.5-0.54,0.5
				c-0.27,0-0.54-0.15-0.58-0.35l-0.48-3.14l-0.07-0.04h-0.99c-1.29,0-2.21,0-3.54,0.09c0,0.15-0.07,0.88-0.07,1.03
				c-0.03,0.31-0.03,1.95,0,2.26c-0.03,0.18-0.31,0.33-0.61,0.33c-0.14,0-0.54-0.09-0.54-0.24
				C109.26,164.05,110.01,159.07,111.47,154z M112.33,155.25c-0.75,2.77-1.43,5.71-1.57,9.41c0.14,0,0.88-0.02,1.02-0.02
				c0.51,0,2.83-0.09,3.34-0.11v-0.15c0-0.18-0.37-2.15-0.54-2.81c-0.14-0.61-0.88-3.16-1.05-3.64c-0.24-0.72-1.06-2.57-1.12-2.61
				L112.33,155.25z"/>
			<path d="M119.58,154c0.03-0.18,0.27-0.33,0.54-0.35c0.27,0,1.46-0.04,1.74-0.04h0.65c1.77,0,3.68,0.53,4.12,1.76v0.53
				c0,1.54-0.88,3.16-2.52,4.28c-0.31,0.22-0.92,0.44-1.19,0.68c2.08,0.33,2.86,1.73,2.86,2.96c0,2.17-0.51,5.18-4.63,5.18h-0.78
				c-0.41-0.04-0.65-0.26-0.68-0.53l-0.24-2.04v-5L119.58,154z M121.86,154.37c-0.27,0.02-0.95,0.04-0.95,0.07l-0.1,0.04
				c0,0-0.07,0.79-0.1,1.12c0,0.77-0.03,4.37-0.03,5.16h0.14c2.89-0.68,4.63-2.94,4.63-4.85c0-0.07-0.03-0.39-0.03-0.46
				c-0.24-0.81-1.87-1.08-2.89-1.08H121.86z M120.67,161.72v4.78c0,0.09,0.1,1.07,0.14,1.4c0,0.04,0.07,0.26,0.1,0.31h0.48
				c3.06,0,3.2-2.96,3.2-4.43c0-1.25-0.75-2.22-2.93-2.22C121.62,161.57,120.67,161.59,120.67,161.72z"/>
			<path d="M128.7,154.3v-0.13c0-0.24,0.14-0.44,0.54-0.44c0.31,0,0.51,0.13,0.61,0.31l2.76,5.31l2.21-5.24
				c0.1-0.22,0.34-0.4,0.75-0.4c0.31,0,0.54,0.15,0.54,0.37v0.02l-3.13,6.71v0.57l0.48,6.89v0.2c0,0.26-0.14,0.44-0.61,0.44
				c-0.2,0-0.51-0.07-0.54-0.26l-0.41-8.36L128.7,154.3z"/>
			<path d="M147.84,154c0.03-0.18,0.27-0.33,0.54-0.35c0.27,0,1.46-0.04,1.74-0.04h0.65c1.77,0,3.68,0.53,4.12,1.76v0.53
				c0,1.54-0.88,3.16-2.52,4.28c-0.31,0.22-0.92,0.44-1.19,0.68c2.08,0.33,2.86,1.73,2.86,2.96c0,2.17-0.51,5.18-4.63,5.18h-0.78
				c-0.41-0.04-0.65-0.26-0.68-0.53l-0.24-2.04v-5L147.84,154z M150.12,154.37c-0.27,0.02-0.95,0.04-0.95,0.07l-0.1,0.04
				c0,0-0.07,0.79-0.1,1.12c0,0.77-0.03,4.37-0.03,5.16h0.14c2.89-0.68,4.63-2.94,4.63-4.85c0-0.07-0.03-0.39-0.03-0.46
				c-0.24-0.81-1.87-1.08-2.89-1.08H150.12z M148.93,161.72v4.78c0,0.09,0.1,1.07,0.14,1.4c0,0.04,0.07,0.26,0.1,0.31h0.48
				c3.06,0,3.2-2.96,3.2-4.43c0-1.25-0.75-2.22-2.93-2.22C149.88,161.57,148.93,161.59,148.93,161.72z"/>
			<path d="M157.51,154.13c0-0.35,1.36-0.4,1.67-0.4c0.51,0,3.71-0.18,3.71,0.57c0,0.18-0.27,0.35-0.58,0.35h-0.07
				c-0.99-0.11-2.01-0.15-3.03-0.15h-0.44l-0.03,0.07v0.64c0.03,0.83,0.17,5.09,0.24,5.93h0.03c0.34-0.02,1.94-0.24,2.28-0.29
				c0.34-0.04,0.44-0.04,0.75-0.04c0.37,0,0.61,0.13,0.61,0.35c0,0.15-0.1,0.35-0.41,0.37l-2.79,0.33c-0.14,0.09-0.31,0.15-0.48,0.2
				c0,0.13-0.03,0.7-0.03,0.83c0,0.2,0.03,0.77,0.03,0.83l0.34,4.28h0.1c1.23-0.15,2.49-0.35,3.74-0.35c0.41,0,0.75,0.07,0.75,0.37
				c0,0.15-0.2,0.33-0.44,0.35l-2.86,0.26c-0.14,0-1.09,0.13-1.19,0.13c-0.03,0-0.27,0.02-0.34,0.02c-0.58,0-0.92-0.26-0.95-0.66
				l-0.61-12.9V154.13z"/>
		</g>
		<text transform="matrix(1 0 0 1 170.8707 168.0952)" class="st16 st17">?</text>
	</g>
	<g>
		<path class="st18" d="M144.61,118.75c3.57-15.24-24.29-25.98-34.55-15.81c1.44-5.85,3.07-10.6-0.2-16.3
			c-2.63-4.58-9.06-10.38-14.36-11.6c-8.76-2.02-19.16,2.75-18.27,13.11c-0.05-6.58-8.07-6.77-11.2-2.1
			c0.7-13.84-19.15-25.73-30.66-16.6c-7.72,6.13-10.22,22.43-8.76,31.87c-0.56,0.03,0.97,2.06,0.4,2.01
			c-10.41-0.77-16.88,9.12-16.82,18.28c0.06,8.55,4.01,14.07,12.35,16.39c3.36,0.94,7.67,1.69,11.17,1.17
			c4.42-0.65,7.04-3.56,10.87-5.15c4.24-1.76,3.36-0.75,7.68,2.19c5.49,3.74,12.43,5.05,19.01,3.87c3.19-0.57,6.78-3.98,9.65-3.76
			c4.31,0.33,8.27,5.33,13.31,5.79c4.2,0.38,8.35-0.48,12.12-2.38c2.41-1.22,4.27-3.87,6.43-5c1.72-0.9,1.44-1.06,3.99-1.09
			c5.18-0.06,9.58,4.16,15.19,3.61c2.27-0.22,3.38-0.11,5.21-1.6c0.67-0.55,2.03-3.39,2.57-3.62c2.15-0.92,5.82,1.23,8.08,1.15
			c4.18-0.13,9.1-3,10.27-7.32C160.52,116.93,150.36,116.33,144.61,118.75z"/>
		<g>
			<path class="st1" d="M98.99,14.59c0.86,0.15,1.58,0.47,2.17,0.95c0.58,0.48,1.01,0.99,1.29,1.52c0.28,0.53,0.46,1.24,0.53,2.13
				c0.07,0.89,0.1,1.61,0.07,2.17c-0.03,0.56-0.09,1.36-0.19,2.4c-0.1,1.04-0.15,1.74-0.15,2.09c-0.76,14.51-1.04,25.88-0.84,34.1
				c0,0.56,0.06,1.4,0.19,2.51c0.13,1.12,0.2,2.06,0.23,2.82c0.02,0.76-0.01,1.6-0.12,2.51c-0.1,0.91-0.42,1.68-0.95,2.28
				c-0.53,0.61-1.25,1.09-2.17,1.44c-1.22,0.31-2.28,0.27-3.2-0.11c-0.91-0.38-1.59-0.91-2.02-1.6c-0.43-0.69-0.77-1.66-1.03-2.93
				c-0.26-1.27-0.41-2.28-0.46-3.04c-0.05-0.76-0.1-1.78-0.15-3.04c0-0.05,0-0.1,0-0.15c-0.05-2.13-0.07-4.54-0.07-7.23
				c-0.51-0.2-0.94-0.35-1.3-0.46c-1.02-0.3-2.14-0.47-3.39-0.49c-1.24-0.02-2.09,0-2.55,0.08c-0.46,0.07-1.35,0.24-2.67,0.49
				c0.1,2.43,0.25,4.52,0.46,6.24c0.2,1.72,0.38,2.79,0.53,3.2c0.15,0.41,0.27,0.88,0.34,1.41c0.08,0.53,0.07,0.85-0.04,0.95
				c0.56,1.17,0.66,2.34,0.3,3.5c-0.36,1.17-1.09,2.08-2.21,2.74c-0.76,0.35-1.48,0.55-2.17,0.57c-0.69,0.02-1.27-0.09-1.75-0.34
				c-0.48-0.26-0.94-0.58-1.37-0.99c-0.43-0.41-0.8-0.94-1.1-1.6c-0.31-0.66-0.57-1.29-0.8-1.9c-0.23-0.61-0.43-1.29-0.61-2.06
				c-0.18-0.76-0.32-1.42-0.42-1.98c-0.1-0.56-0.18-1.14-0.23-1.75c-1.22-9.49-1.3-21.29-0.23-35.39c0.05-0.25,0.1-0.8,0.15-1.64
				s0.09-1.46,0.12-1.86c0.02-0.41,0.1-1,0.23-1.79c0.13-0.79,0.27-1.38,0.42-1.79c0.15-0.41,0.38-0.89,0.69-1.44
				c0.3-0.56,0.65-0.98,1.03-1.26c0.38-0.28,0.86-0.51,1.44-0.69c0.58-0.18,1.23-0.24,1.94-0.19c1.01,0.2,1.8,0.48,2.36,0.84
				c0.56,0.35,0.96,0.9,1.22,1.64s0.38,1.66,0.38,2.78c0,1.11-0.05,2.5-0.15,4.15c-0.1,1.65-0.23,3.59-0.38,5.82
				c-0.15,2.23-0.27,4.82-0.34,7.76c-0.07,2.94-0.06,6.29,0.04,10.05c0.15-0.05,0.3-0.1,0.46-0.15c3.3-0.81,6.5-1.14,9.59-0.99
				c0.1-5.58,0.41-12.99,0.91-22.22c0-0.1,0-0.25,0-0.46c0.1-1.37,0.18-2.4,0.23-3.08c0.05-0.69,0.19-1.55,0.42-2.59
				c0.23-1.04,0.54-1.8,0.95-2.28c0.41-0.48,0.96-0.9,1.67-1.25C97.04,14.62,97.93,14.49,98.99,14.59z M80.27,50.14
				c0.2-1.62,0.41-6.58,0.61-14.88s0.31-13.82,0.31-16.55c0-0.25-0.13-0.38-0.38-0.38c-0.26,0-0.38,0.13-0.38,0.38
				c0,2.89-0.1,8.45-0.3,16.67c-0.2,8.22-0.41,13.09-0.61,14.61c-0.05,0.25,0.05,0.41,0.31,0.46h0.07
				C80.09,50.44,80.22,50.34,80.27,50.14z M92.14,48.61c0.1-0.2,0.05-0.38-0.15-0.53c-1.17-0.51-2.28-0.48-3.35,0.08
				c-0.26,0.1-0.33,0.25-0.23,0.46c0.1,0.15,0.23,0.23,0.38,0.23c0.05,0,0.1-0.02,0.15-0.07c0.91-0.46,1.83-0.46,2.74,0
				C91.89,48.87,92.04,48.82,92.14,48.61z M100.59,39.18c0.96-10.66,0.96-17.76,0-21.31c-0.1-0.25-0.27-0.35-0.49-0.31
				c-0.23,0.05-0.32,0.21-0.27,0.46c0.25,0.91,0.43,2.28,0.53,4.11c0.1,1.83,0.13,3.63,0.08,5.4c-0.05,1.78-0.13,3.63-0.23,5.56
				c-0.1,1.93-0.18,3.32-0.23,4.19c-0.05,0.86-0.1,1.47-0.15,1.83c0,0.26,0.13,0.38,0.38,0.38S100.59,39.38,100.59,39.18z"/>
			<path class="st1" d="M127.61,53.56c0.56,0.05,0.81,0.58,0.76,1.6c-0.2,2.28-0.65,4.31-1.33,6.09c-0.69,1.78-1.52,3.18-2.51,4.22
				c-0.99,1.04-2.08,1.83-3.27,2.36c-1.19,0.53-2.42,0.75-3.69,0.65c-1.27-0.1-2.51-0.48-3.73-1.14c-2.89-1.57-5.02-4.33-6.39-8.26
				s-1.98-8.03-1.83-12.29c0.15-4.26,0.84-8.25,2.05-11.95c1.07-3.35,2.49-5.91,4.26-7.69c1.78-1.78,3.51-2.69,5.21-2.74
				c1.7-0.05,3.3,0.51,4.8,1.67c1.5,1.17,2.6,2.79,3.31,4.87c1.06,3.6,1.25,7.13,0.57,10.58c-0.69,3.45-1.95,6.47-3.8,9.06
				c-1.85,2.59-3.79,4.16-5.82,4.72c0.3,2.08,0.81,3.74,1.52,4.99c0.71,1.24,1.51,1.99,2.4,2.25c0.89,0.25,1.76,0.21,2.62-0.12
				c0.86-0.33,1.62-0.99,2.28-1.98c0.66-0.99,1.11-2.17,1.37-3.54c0-0.1,0.01-0.38,0.04-0.84c0.02-0.46,0.06-0.84,0.11-1.14
				c0.05-0.31,0.16-0.61,0.34-0.91C127.06,53.71,127.3,53.56,127.61,53.56z M112.39,30.88c0.61-1.93,1.9-3.2,3.88-3.81
				c1.67-0.56,3.17-0.33,4.49,0.69c0.2,0.15,0.38,0.13,0.53-0.07c0.15-0.2,0.13-0.35-0.08-0.46c-1.52-1.22-3.25-1.52-5.17-0.91
				c-2.23,0.71-3.68,2.16-4.34,4.34c-0.05,0.25,0.02,0.41,0.23,0.46c0.05,0,0.1,0,0.15,0C112.23,31.11,112.34,31.03,112.39,30.88z
				 M116.88,37.35c-1.27,5.18-1.72,9.64-1.37,13.4c0.2-0.05,0.48-0.11,0.84-0.19c0.35-0.07,0.67-0.14,0.95-0.19
				c0.28-0.05,0.56-0.13,0.84-0.23c0.28-0.1,0.52-0.23,0.72-0.38c2.28-1.42,3.95-3.99,4.99-7.72c1.04-3.73,1.03-6.91-0.04-9.55
				c-0.25-0.61-0.61-1.17-1.07-1.67c-0.46-0.51-0.99-0.86-1.6-1.07c-0.61-0.2-1.19,0-1.75,0.61
				C118.63,31.11,117.79,33.44,116.88,37.35z"/>
		</g>
		<g>
			<path d="M105.83,74.92c1.64,0.54,2.9,1.83,3.8,3.86c0.9,2.04,1.32,4.4,1.27,7.07c-0.05,2.67-0.59,5.19-1.61,7.55
				c-0.51,1.26-1.13,2.27-1.85,3.02c-0.73,0.75-1.47,1.21-2.23,1.37s-1.52,0.1-2.28-0.18c-0.75-0.28-1.45-0.83-2.09-1.65
				c-0.64-0.82-1.18-1.83-1.61-3.04c-0.54-1.58-0.88-3.29-1.05-5.13c-0.16-1.84-0.11-3.6,0.14-5.3c0.26-1.69,0.68-3.19,1.27-4.51
				c0.59-1.32,1.43-2.27,2.52-2.86C103.19,74.53,104.43,74.46,105.83,74.92z M101.03,78.34c0.21-1.05,0.87-1.81,1.97-2.3
				c1.05-0.48,2.01-0.46,2.9,0.08c0.11,0.05,0.19,0.03,0.26-0.08c0.07-0.11,0.05-0.2-0.06-0.28c-0.99-0.59-2.08-0.62-3.26-0.08
				c-0.56,0.24-1.04,0.6-1.43,1.07c-0.39,0.47-0.65,0.97-0.79,1.51c0,0.13,0.05,0.21,0.16,0.24h0.04
				C100.94,78.5,101.01,78.45,101.03,78.34z M105.55,94.93c0.48,0.3,1.03,0.17,1.65-0.38c0.62-0.55,1.18-1.52,1.69-2.9
				c0.51-1.38,0.83-2.96,0.97-4.73c0.13-1.66,0.01-3.39-0.36-5.17c-0.38-1.79-1.03-3.19-1.97-4.21c-0.21-0.24-0.59-0.34-1.13-0.3
				c-0.54,0.04-0.97,0.21-1.29,0.5c-0.38,0.4-0.74,1.28-1.11,2.62c-0.36,1.34-0.59,2.99-0.68,4.95c-0.1,1.96,0.14,3.99,0.7,6.08
				c0.19,0.56,0.45,1.26,0.78,2.09C105.14,94.31,105.38,94.8,105.55,94.93z"/>
			<path d="M127.21,93.8c0.35,0.81,0.4,1.61,0.16,2.42c-0.24,0.8-0.82,1.34-1.73,1.61c-0.51,0.11-0.96,0.11-1.35,0
				c-0.39-0.11-0.71-0.34-0.97-0.68c-0.26-0.35-0.45-0.67-0.58-0.95c-0.13-0.28-0.29-0.7-0.46-1.25c-0.18-0.55-0.32-0.93-0.42-1.15
				c-0.43-1.05-1.01-2.05-1.73-3.02c-0.13-0.19-0.33-0.36-0.58-0.5c-0.26-0.15-0.49-0.26-0.7-0.32c-0.22-0.07-0.43-0.17-0.65-0.32
				c-0.21-0.15-0.38-0.33-0.48-0.54c0.11,0.91,0.23,1.8,0.36,2.66c0.03,0.27,0.13,0.77,0.32,1.51c0.19,0.74,0.31,1.31,0.36,1.71
				c0.05,0.4-0.01,0.87-0.2,1.39c-0.19,0.52-0.54,0.93-1.05,1.23c-0.48,0.19-0.91,0.29-1.27,0.32c-0.36,0.03-0.7-0.08-1.01-0.32
				c-0.31-0.24-0.58-0.5-0.81-0.78c-0.23-0.28-0.42-0.64-0.58-1.07c-0.16-0.43-0.29-0.83-0.4-1.19c-0.11-0.36-0.2-0.75-0.28-1.15
				c-0.86-4.48-1.13-9.62-0.8-15.42c0.03-0.51,0.05-0.84,0.06-0.99c0.01-0.15,0.05-0.46,0.1-0.93c0.05-0.47,0.12-0.8,0.2-1.01
				s0.19-0.47,0.34-0.81c0.15-0.33,0.33-0.57,0.54-0.7c0.21-0.13,0.48-0.25,0.78-0.36c0.31-0.11,0.66-0.15,1.07-0.12
				c0.75,0.14,1.28,0.4,1.59,0.81c0.31,0.4,0.48,0.99,0.5,1.75s0.01,1.74-0.04,2.92c-0.03,0.29-0.04,0.52-0.04,0.68
				c0.51-1.66,1.13-2.99,1.85-3.97c0.73-0.98,1.45-1.56,2.18-1.75c0.72-0.19,1.44-0.14,2.13,0.14c0.7,0.28,1.3,0.82,1.81,1.61
				s0.86,1.73,1.05,2.8c0.35,2.01,0.28,3.96-0.22,5.84c-0.5,1.88-1.3,3.34-2.4,4.39C125.23,89.47,126.35,91.31,127.21,93.8z
				 M116.66,76.77c0.11-1.29-0.13-2.19-0.72-2.7c-0.46-0.35-1.03-0.4-1.73-0.16c-0.13,0.05-0.18,0.14-0.14,0.26
				c0.04,0.12,0.13,0.17,0.26,0.14c0.56-0.21,1.02-0.19,1.37,0.08c0.48,0.4,0.67,1.18,0.56,2.34c-0.03,0.13,0.03,0.2,0.16,0.2h0.04
				C116.56,76.93,116.63,76.88,116.66,76.77z M117.5,86.55c0.46,0.4,1,0.55,1.63,0.44c0.63-0.11,1.15-0.39,1.55-0.85
				c0.62-0.75,1.07-1.59,1.37-2.52c0.29-0.93,0.44-1.81,0.42-2.66c-0.01-0.85-0.1-1.63-0.24-2.36c-0.15-0.72-0.35-1.31-0.6-1.75
				c-0.26-0.44-0.48-0.68-0.67-0.7c-0.64-0.08-1.29,0.52-1.93,1.81c-0.86,1.69-1.41,3.74-1.65,6.16
				C117.41,84.92,117.45,85.72,117.5,86.55z M123.3,74.52c-0.08,0.11-0.07,0.2,0.04,0.28c0.64,0.43,1.15,1.12,1.53,2.07
				c0.38,0.95,0.59,1.99,0.64,3.1c0.05,1.11-0.05,2.25-0.3,3.42c-0.26,1.17-0.68,2.18-1.27,3.04c-0.05,0.11-0.03,0.2,0.08,0.28
				c0.03,0.03,0.05,0.04,0.08,0.04c0.08,0,0.15-0.04,0.2-0.12c0.8-1.21,1.32-2.65,1.55-4.33c0.23-1.68,0.13-3.24-0.28-4.69
				c-0.42-1.45-1.08-2.5-1.99-3.14C123.48,74.39,123.38,74.41,123.3,74.52z"/>
		</g>
		<g>
			<path class="st0" d="M79.83,117.28c2.27,2.07,3.82,4.71,4.64,7.94c0.82,3.23,0.79,6.46-0.08,9.68c-0.87,3.23-2.53,5.82-4.96,7.77
				c-1.69,1.38-3.61,2.34-5.75,2.9c-2.14,0.56-4.21,0.65-6.19,0.28c-1.98-0.37-3.88-1.1-5.67-2.18c-1.8-1.08-3.2-2.55-4.21-4.4
				c-1.01-1.85-1.59-3.99-1.75-6.43c-0.16-2.43,0.4-5.18,1.67-8.25c0.05-0.11,0.1-0.24,0.16-0.4c0.05-0.16,0.11-0.29,0.16-0.4
				c0.05-0.1,0.11-0.24,0.16-0.39c0.05-0.16,0.12-0.29,0.2-0.4c0.08-0.11,0.16-0.22,0.24-0.36c0.08-0.13,0.17-0.22,0.28-0.28
				c0.11-0.05,0.21-0.11,0.32-0.16c0.11-0.05,0.24-0.07,0.4-0.04c0.16,0.03,0.32,0.09,0.48,0.2c0.32,0.21,0.48,0.53,0.48,0.95
				c0,0.43-0.09,0.82-0.28,1.19c-0.19,0.37-0.43,0.79-0.71,1.27c-0.29,0.48-0.46,0.79-0.52,0.95c-2.12,5.18-1.75,9.07,1.11,11.67
				c2.12,1.85,4.71,2.41,7.78,1.67c3.22-0.85,5.4-2.8,6.51-5.87c0.79-2.22,0.87-4.79,0.24-7.7c-0.26-1.11-0.7-2.12-1.31-3.02
				c-0.61-0.9-1.38-1.69-2.3-2.38c-0.93-0.69-1.81-1.27-2.66-1.75c-0.85-0.48-1.87-1.02-3.06-1.63c-1.19-0.61-2.16-1.12-2.9-1.55
				c-4.82-3.12-7.12-7.67-6.9-13.65c0.11-2.75,0.76-5.08,1.98-6.98c1.22-1.91,2.73-3.25,4.53-4.05c1.8-0.79,3.73-1.16,5.79-1.11
				c2.06,0.05,3.99,0.52,5.79,1.39c1.8,0.87,3.33,2.22,4.6,4.05c1.27,1.83,1.98,3.96,2.14,6.39c0,0.05,0,0.11,0,0.16
				c0.05,1.22-0.24,1.83-0.87,1.83c-0.43-0.05-0.71-0.3-0.87-0.75c-0.16-0.45-0.25-0.99-0.28-1.63c-0.03-0.63-0.07-1.06-0.12-1.27
				c-0.79-2.22-2.43-3.62-4.92-4.21c-1.69-0.42-3.17-0.26-4.44,0.48c-1.27,0.74-2.17,1.76-2.7,3.06c-0.53,1.3-0.75,2.75-0.67,4.36
				c0.08,1.61,0.54,3.04,1.39,4.29c0.85,1.24,2.08,2.34,3.69,3.29c1.61,0.95,3.34,1.88,5.16,2.78
				C77.41,115.48,78.83,116.38,79.83,117.28z M64.6,93.31c0.26-0.05,0.37-0.21,0.32-0.48c-0.05-0.26-0.21-0.37-0.48-0.32
				c-2.12,0.42-3.84,2.09-5.16,5c-0.9,1.96-1.36,4.01-1.39,6.15c-0.03,2.14,0.38,4.01,1.23,5.6c0.05,0.16,0.16,0.24,0.32,0.24
				c0.11,0,0.18-0.03,0.24-0.08c0.21-0.11,0.26-0.26,0.16-0.48c-0.9-1.85-1.3-3.74-1.19-5.67c0.11-1.93,0.56-3.74,1.35-5.44
				C61.21,95.19,62.74,93.68,64.6,93.31z"/>
			<path class="st0" d="M108.8,107.67c1.22,0.42,2.25,1.07,3.1,1.94c0.85,0.87,1.49,1.81,1.94,2.82c0.45,1.01,0.76,2.24,0.95,3.69
				c0.19,1.46,0.28,2.83,0.28,4.13c0,1.3-0.09,2.82-0.28,4.57c-0.19,1.75-0.38,3.24-0.59,4.48c-0.21,1.25-0.47,2.73-0.75,4.44
				c-0.29,1.72-0.49,3.03-0.6,3.93c-0.05,0.37-0.13,1.08-0.24,2.14c-0.11,1.06-0.2,1.85-0.28,2.38c-0.08,0.53-0.25,1.22-0.52,2.06
				c-0.26,0.85-0.58,1.48-0.95,1.91c-0.37,0.42-0.9,0.79-1.59,1.11c-0.69,0.32-1.51,0.48-2.46,0.48c-1.48-0.21-2.61-0.78-3.37-1.71
				c-0.77-0.92-1.14-2.01-1.11-3.25c0.03-1.24,0.09-2.53,0.2-3.85c0-0.32,0.09-1.03,0.28-2.14c0.19-1.11,0.37-2.34,0.56-3.69
				c0.19-1.35,0.4-2.86,0.64-4.53c0.24-1.67,0.44-3.29,0.59-4.88s0.3-3.08,0.44-4.48c0.13-1.4,0.18-2.62,0.16-3.65
				c-0.03-1.03-0.15-1.73-0.36-2.1c-0.58-1.22-1.59-1.35-3.02-0.4c-2.01,1.38-3.57,4.18-4.68,8.41c0.16,4.6,0.61,9.34,1.35,14.2
				c0.05,0.53,0.26,1.52,0.63,2.98c0.37,1.46,0.61,2.58,0.71,3.37c0.11,0.79-0.03,1.71-0.4,2.74c-0.37,1.03-1.06,1.84-2.06,2.42
				c-0.79,0.37-1.53,0.57-2.22,0.59c-0.69,0.03-1.29-0.08-1.79-0.32c-0.5-0.24-0.98-0.61-1.43-1.11c-0.45-0.5-0.83-1.03-1.15-1.59
				c-0.32-0.56-0.61-1.19-0.87-1.91c-0.26-0.71-0.48-1.37-0.63-1.98s-0.32-1.26-0.48-1.94c-1.7-8.84-2.22-18.97-1.59-30.4
				c0.11-1.16,0.18-2.01,0.24-2.54c0.05-0.53,0.19-1.26,0.4-2.18c0.21-0.93,0.52-1.59,0.91-1.98c0.4-0.4,0.98-0.75,1.75-1.07
				c0.77-0.32,1.71-0.42,2.82-0.32c0.79,0.11,1.45,0.26,1.98,0.48c0.53,0.21,0.95,0.53,1.27,0.95c0.32,0.42,0.54,0.85,0.67,1.27
				c0.13,0.43,0.21,1.1,0.24,2.02c0.03,0.93,0.01,1.77-0.04,2.54c-0.06,0.77-0.11,1.94-0.16,3.53c-0.06,1.59-0.11,3.04-0.16,4.36
				c1.27-3.17,2.89-5.5,4.84-6.99C103.93,107.15,106.21,106.83,108.8,107.67z M96.1,104.26c-0.05-0.69-0.34-1.24-0.87-1.67
				c-0.53-0.43-1.19-0.69-1.98-0.79c-0.79-0.11-1.57-0.01-2.34,0.28c-0.77,0.29-1.26,0.75-1.47,1.39c-0.05,0.26,0.04,0.44,0.28,0.52
				c0.24,0.08,0.41-0.01,0.52-0.28c0.1-0.37,0.45-0.67,1.03-0.91c0.58-0.24,1.21-0.3,1.9-0.2c1.38,0.11,2.12,0.69,2.22,1.75
				c0,0.21,0.11,0.32,0.32,0.32h0.08C96.05,104.61,96.16,104.47,96.1,104.26z M111.82,132.51c0.48-1.96,0.86-4.03,1.15-6.23
				c0.29-2.19,0.42-4.4,0.39-6.63c-0.03-2.22-0.36-4.19-0.99-5.91c-0.63-1.72-1.59-2.9-2.86-3.53c-0.21-0.11-0.37-0.04-0.48,0.2
				c-0.11,0.24-0.05,0.41,0.16,0.52c1.96,1.01,3.07,3.72,3.33,8.13c0.26,4.42-0.24,8.82-1.51,13.21c-0.05,0.27,0.05,0.43,0.32,0.48
				h0.08C111.63,132.75,111.76,132.67,111.82,132.51z"/>
			<path class="st0" d="M139.99,130.29c0.58,0.05,0.85,0.61,0.79,1.67c-0.21,2.38-0.67,4.5-1.39,6.35c-0.71,1.85-1.59,3.32-2.62,4.4
				c-1.03,1.09-2.17,1.9-3.41,2.46c-1.24,0.56-2.53,0.78-3.85,0.67c-1.32-0.1-2.62-0.5-3.89-1.19c-3.02-1.64-5.24-4.51-6.67-8.61
				c-1.43-4.1-2.06-8.37-1.9-12.82c0.16-4.44,0.87-8.6,2.14-12.46c1.11-3.49,2.59-6.16,4.44-8.01c1.85-1.85,3.66-2.8,5.44-2.86
				c1.77-0.05,3.44,0.53,5,1.75c1.56,1.22,2.71,2.91,3.45,5.08c1.11,3.76,1.31,7.44,0.59,11.03s-2.04,6.74-3.97,9.44
				c-1.93,2.7-3.96,4.34-6.07,4.92c0.32,2.17,0.85,3.9,1.59,5.2c0.74,1.3,1.57,2.08,2.5,2.34s1.84,0.22,2.74-0.12
				c0.9-0.34,1.69-1.03,2.38-2.06c0.69-1.03,1.16-2.26,1.43-3.69c0-0.11,0.01-0.4,0.04-0.87c0.03-0.48,0.07-0.87,0.12-1.19
				c0.05-0.32,0.17-0.64,0.36-0.95C139.42,130.45,139.67,130.29,139.99,130.29z M124.12,106.64c0.63-2.01,1.98-3.33,4.05-3.97
				c1.75-0.58,3.31-0.34,4.68,0.71c0.21,0.16,0.4,0.13,0.56-0.08c0.16-0.21,0.13-0.37-0.08-0.48c-1.59-1.27-3.39-1.59-5.4-0.95
				c-2.33,0.74-3.84,2.25-4.52,4.52c-0.06,0.26,0.03,0.43,0.24,0.48c0.05,0,0.11,0,0.16,0C123.96,106.88,124.06,106.8,124.12,106.64
				z M128.8,113.39c-1.32,5.4-1.8,10.05-1.43,13.97c0.21-0.05,0.5-0.12,0.87-0.2c0.37-0.08,0.7-0.14,0.99-0.2
				c0.29-0.05,0.58-0.13,0.87-0.24c0.29-0.11,0.54-0.24,0.75-0.4c2.38-1.48,4.12-4.17,5.2-8.05c1.08-3.89,1.07-7.21-0.04-9.96
				c-0.26-0.63-0.63-1.21-1.11-1.75c-0.48-0.53-1.03-0.9-1.67-1.11c-0.64-0.21-1.25,0-1.83,0.64
				C130.62,106.88,129.75,109.31,128.8,113.39z"/>
		</g>
		<g>
			<g>
				<g>
					<polygon class="st19" points="165.51,91.05 153.92,99.47 144.34,110.12 156.15,101.48 					"/>
					<polygon class="st19" points="165.5,110.12 156.15,99.68 144.33,91.05 153.92,101.69 					"/>
				</g>
				<path class="st19" d="M167.27,100.38c0.26,0.04,0.26,0.34,0,0.38l-6.77,1.22c-2.44,0.44-4.33,2.73-4.65,5.61l-0.69,6.37
					c-0.03,0.24-0.45,0.24-0.48,0l-0.69-6.37c-0.31-2.88-2.21-5.17-4.65-5.61l-6.78-1.22c-0.25-0.05-0.25-0.34,0-0.38l6.7-1.1
					c2.47-0.41,4.41-2.71,4.72-5.63l0.69-6.45c0.03-0.24,0.45-0.24,0.48,0l0.69,6.45c0.31,2.92,2.25,5.22,4.72,5.63L167.27,100.38z"
					/>
			</g>
			<g>
				<g>
					<polygon class="st19" points="152.18,73.27 145.27,78.28 139.57,84.62 146.6,79.48 					"/>
					<polygon class="st19" points="152.17,84.62 146.6,78.4 139.56,73.27 145.27,79.6 					"/>
				</g>
				<path class="st19" d="M153.23,78.83c0.15,0.03,0.15,0.2,0,0.23l-4.03,0.73c-1.45,0.26-2.58,1.62-2.77,3.34l-0.41,3.79
					c-0.02,0.14-0.27,0.14-0.29,0l-0.41-3.79c-0.19-1.72-1.32-3.08-2.77-3.34l-4.04-0.73c-0.15-0.03-0.15-0.2,0-0.23l3.99-0.66
					c1.47-0.24,2.62-1.62,2.81-3.35l0.41-3.84c0.02-0.14,0.27-0.14,0.29,0l0.41,3.84c0.19,1.74,1.34,3.11,2.81,3.35L153.23,78.83z"
					/>
			</g>
			<g>
				<g>
					<polygon class="st19" points="169.2,79.17 165.68,81.73 162.76,84.97 166.36,82.34 					"/>
					<polygon class="st19" points="169.2,84.97 166.36,81.79 162.76,79.17 165.68,82.4 					"/>
				</g>
				<path class="st19" d="M169.74,82.01c0.08,0.01,0.08,0.1,0,0.12l-2.06,0.37c-0.74,0.13-1.32,0.83-1.41,1.71l-0.21,1.94
					c-0.01,0.07-0.14,0.07-0.15,0l-0.21-1.94c-0.1-0.88-0.67-1.57-1.41-1.71l-2.06-0.37c-0.08-0.01-0.08-0.1,0-0.12l2.04-0.34
					c0.75-0.12,1.34-0.83,1.44-1.71l0.21-1.96c0.01-0.07,0.14-0.07,0.15,0l0.21,1.96c0.1,0.89,0.68,1.59,1.44,1.71L169.74,82.01z"/>
			</g>
		</g>
		<g>
			<g>
				<g>
					<polygon class="st19" points="69.31,13.11 57.71,21.53 48.13,32.17 59.94,23.54 					"/>
					<polygon class="st19" points="69.3,32.17 59.94,21.73 48.12,13.11 57.71,23.74 					"/>
				</g>
				<path class="st19" d="M71.07,22.44c0.26,0.04,0.26,0.34,0,0.38l-6.77,1.22c-2.44,0.44-4.33,2.73-4.65,5.61l-0.69,6.37
					c-0.03,0.24-0.45,0.24-0.48,0l-0.69-6.37c-0.31-2.88-2.21-5.17-4.65-5.61l-6.78-1.22c-0.25-0.05-0.25-0.34,0-0.38l6.7-1.1
					c2.47-0.41,4.41-2.71,4.72-5.63l0.69-6.45c0.03-0.24,0.45-0.24,0.48,0l0.69,6.45c0.31,2.92,2.25,5.22,4.72,5.63L71.07,22.44z"/>
			</g>
			<g>
				<g>
					<polygon class="st19" points="73,1.23 69.47,3.79 66.56,7.02 70.15,4.4 					"/>
					<polygon class="st19" points="72.99,7.02 70.15,3.85 66.55,1.23 69.47,4.46 					"/>
				</g>
				<path class="st19" d="M73.53,4.06c0.08,0.01,0.08,0.1,0,0.12l-2.06,0.37c-0.74,0.13-1.32,0.83-1.41,1.71l-0.21,1.94
					c-0.01,0.07-0.14,0.07-0.15,0l-0.21-1.94c-0.1-0.88-0.67-1.57-1.41-1.71l-2.06-0.37c-0.08-0.01-0.08-0.1,0-0.12l2.04-0.34
					c0.75-0.12,1.34-0.83,1.44-1.71l0.21-1.96c0.01-0.07,0.14-0.07,0.15,0l0.21,1.96c0.1,0.89,0.68,1.59,1.44,1.71L73.53,4.06z"/>
			</g>
		</g>
	</g>
</g>
</svg>
