<?xml version="1.0" encoding="utf-8"?>
<!-- Generator: Adobe Illustrator 23.0.1, SVG Export Plug-In . SVG Version: 6.00 Build 0)  -->
<svg version="1.1" id="Layer_1" xmlns="http://www.w3.org/2000/svg" xmlns:xlink="http://www.w3.org/1999/xlink" x="0px" y="0px"
	 viewBox="0 0 180 221.09" style="enable-background:new 0 0 180 221.09;" xml:space="preserve">
<style type="text/css">
	.st0{fill:#ED3393;}
	.st1{fill:#00BEF3;}
	.st2{fill:#EDEDEE;}
	.st3{fill:#00BEF3;stroke:#00BEF3;stroke-miterlimit:10;}
	.st4{fill:#9FDDF9;}
	.st5{fill:#ED3393;stroke:#ED3393;stroke-miterlimit:10;}
	.st6{fill:#F49AC1;}
	.st7{fill:#F5F3B6;}
	.st8{fill:#FFFFFF;}
	.st9{fill:#ED3393;stroke:#ED3393;stroke-width:0.5;stroke-miterlimit:10;}
	.st10{fill:#FEE186;stroke:#FEE186;stroke-width:0.5;stroke-miterlimit:10;}
	.st11{fill:#00BEF3;stroke:#00BEF3;stroke-width:0.5;stroke-miterlimit:10;}
	.st12{fill:#FBD511;}
	.st13{opacity:0.59;}
	.st14{opacity:0.59;fill:#FBD511;}
	.st15{opacity:0.33;fill:#FBD511;}
	.st16{fill:#DFF3FD;}
	.st17{fill:#FFD034;}
	.st18{fill:none;}
</style>
<g>
	<path class="st9" d="M8.29,38.14c-0.32,0.21-0.4,0.31-0.24,0.31c0.02,0,0.05,0,0.07,0c0.07,0,0.16-0.01,0.28-0.02
		c0.11-0.01,0.2-0.02,0.24-0.02l0.38,0.07c0.39,0.05,0.86,0.15,1.39,0.31c1.06,0.35,1.97,0.81,2.71,1.39
		c1.34,1.11,2.51,2.59,3.51,4.44c0.07,0.21,0.24,0.66,0.52,1.37c0.28,0.71,0.54,1.45,0.78,2.22c0.24,0.77,0.43,1.58,0.57,2.41
		c0.6,3.72,0.15,6.92-1.35,9.58c-0.49,0.88-1.16,1.64-2.01,2.29c-0.86,0.65-1.82,1.03-2.88,1.14c-1.83,0.23-3.6-0.32-5.31-1.67
		c-1.71-1.41-2.88-3.01-3.51-4.79c0,1.27-0.16,2.25-0.47,2.93c-0.31,0.68-0.84,0.96-1.58,0.82c-0.32-0.05-0.6-0.23-0.82-0.54
		c-0.22-0.31-0.33-0.66-0.33-1.03c0-1.27-0.04-4.36-0.12-9.27S0,41.5,0,38.98c0-2.52,0.07-5.71,0.19-9.56
		c0.13-3.85,0.34-7.19,0.64-10.01c0.51-4.26,1.1-7.72,1.77-10.38c0.53-2.08,1.14-3.8,1.84-5.17c0.69-1.2,1.31-2.03,1.84-2.5
		c0.88-0.81,1.94-1.24,3.19-1.28c1.87-0.05,3.78,0.64,5.73,2.05c1.46,1.13,2.71,2.59,3.75,4.37c1.9,3.26,2.6,6.95,2.12,11.07
		c-0.37,3.42-1.64,6.9-3.82,10.45c-1.8,2.92-4.12,5.7-6.94,8.36C9.84,36.81,9.18,37.4,8.29,38.14z M9.2,41.86
		c-0.32-0.07-0.73-0.13-1.21-0.17c-0.72-0.05-1.5-0.01-2.36,0.11c-1.09,0.14-1.8,0.13-2.15-0.04c-0.18-0.07-0.35-0.15-0.49-0.24
		c0,3.03,0.01,5.3,0.04,6.8c-0.09,0.23-0.14,0.6-0.14,1.11c0,0.51,0.02,1.02,0.07,1.54c0.05,0.52,0.11,1.21,0.19,2.07
		c0.08,0.86,0.14,1.55,0.19,2.08c0.23-0.39,0.62-0.57,1.16-0.52c0.55,0.05,0.97,0.31,1.27,0.8c1.92,2.85,3.72,4.4,5.41,4.65
		c0.86,0.14,1.66-0.16,2.43-0.9c0.72-0.74,1.26-1.76,1.63-3.05c0.7-2.45,0.6-4.99-0.28-7.6c-0.42-1.23-0.99-2.38-1.73-3.47
		c-0.51-0.69-0.91-1.2-1.21-1.53c-0.39-0.44-0.82-0.79-1.28-1.04C10.35,42.22,9.84,42.02,9.2,41.86z M6.91,34.92
		c1.23-1.13,2.24-2.14,3.05-3.02c4.53-4.86,7.14-9.67,7.81-14.44c0.39-2.82,0.11-5.42-0.83-7.81c-0.48-1.23-1.14-2.35-1.98-3.38
		s-1.77-1.83-2.81-2.41c-1.11-0.62-2.12-0.84-3.02-0.66C8.73,3.33,8.4,3.55,8.12,3.85C7.73,4.27,7.4,4.75,7.15,5.28
		c-0.9,1.83-1.68,4.5-2.32,8.02c-1.16,6.96-1.77,15.34-1.84,25.13l1.04-0.94L6.91,34.92z"/>
	<path class="st9" d="M45.08,21.35c0.53,1.2,0.62,2.23,0.28,3.09c-0.32,0.81-0.97,1.06-1.94,0.76c-0.65-0.18-0.97-0.49-0.97-0.9
		c0.05-0.74-0.12-1.5-0.5-2.27c-0.38-0.77-0.91-1.35-1.58-1.72c-0.69-0.37-1.5-0.52-2.43-0.43c-0.93,0.08-1.77,0.36-2.53,0.85
		c-1.32,0.83-2.6,2.29-3.85,4.37c-0.97,1.62-1.89,3.33-2.74,5.14c-2.94,5.85-3.78,11.93-2.53,18.22c0.14,0.44,0.32,0.84,0.56,1.22
		c0.11,0.18,0.25,0.29,0.42,0.31c0.21,0.07,0.48-0.02,0.83-0.28c0.05-0.05,0.14-0.14,0.28-0.28l0.55-0.69
		c1.71-2.11,3.12-4.03,4.24-5.76c0.97-1.55,2.43-3.85,4.37-6.9c0.3-0.44,0.73-1.11,1.3-2c0.57-0.89,0.99-1.56,1.27-2l1.25-1.87
		c0.21-0.11,0.49-0.22,0.83-0.31c0.37-0.05,0.71,0.08,1.01,0.38c0.25,0.23,0.42,0.46,0.49,0.69c0.07,0.18,0.08,0.62,0.03,1.32
		c-0.12,0.32-0.2,0.83-0.24,1.53c-0.28,1.55-0.47,2.51-0.59,2.88c-0.37,1.5-0.66,2.93-0.87,4.27c-0.14,1.25-0.24,2.2-0.31,2.85
		c-0.02,0.3-0.08,1.04-0.17,2.2c-0.09,1.17-0.17,1.96-0.23,2.38c-0.06,0.41-0.14,1.01-0.26,1.79c-0.12,0.77-0.26,1.39-0.43,1.84
		c-0.17,0.45-0.38,0.84-0.61,1.16c-0.23,0.3-0.56,0.48-0.99,0.52c-0.43,0.05-0.81-0.04-1.15-0.26c-0.34-0.22-0.5-0.52-0.5-0.89
		c0.09-3.61,0.54-7.4,1.35-11.38l0.21-1.01v-0.07h-0.03l-0.31,0.59l-0.1,0.21l-0.49,0.8c-0.42,0.69-1.09,1.74-2.01,3.12
		c-1.44,2.13-2.93,4.13-4.48,6l-0.62,0.73c-0.07,0.09-0.24,0.26-0.5,0.5c-0.27,0.24-0.48,0.4-0.64,0.47c-1,0.51-1.96,0.73-2.88,0.66
		c-0.62-0.07-1.18-0.28-1.67-0.62c-0.44-0.3-0.8-0.71-1.07-1.21c-0.39-0.67-0.69-1.45-0.9-2.32c-1.2-6.71-0.37-13.2,2.5-19.47
		c1.62-3.52,3.27-6.35,4.96-8.5c1.27-1.57,2.69-2.71,4.27-3.4c1.97-0.85,3.9-0.98,5.8-0.38c0.09,0.09,0.38,0.27,0.87,0.52
		c0.49,0.25,0.9,0.51,1.25,0.76C43.82,19.28,44.57,20.21,45.08,21.35z"/>
	<path class="st9" d="M66.18,27.31c0.35,2.73,0.36,5.45,0.03,8.16c-0.07,0.16-0.31,1.63-0.73,4.41c-0.42,2.78-1.04,5.11-1.87,7.01
		c-1.14,2.71-2.8,4.67-5,5.9c-0.97,0.56-1.98,0.87-3.02,0.96c-1.04,0.08-1.82-0.03-2.32-0.33c-0.14,0.65-0.34,1.25-0.59,1.8
		l-0.17,0.35c-0.05,0.07-0.22,0.25-0.52,0.56c-0.05,0.07-0.24,0.17-0.59,0.31c-0.32,0.11-0.6,0.16-0.83,0.14
		c-0.21-0.02-0.45-0.11-0.73-0.26c-0.28-0.15-0.44-0.26-0.49-0.33c-0.21-0.23-0.36-0.43-0.47-0.61c-0.1-0.17-0.18-0.35-0.24-0.54
		c-0.06-0.18-0.1-0.3-0.12-0.35c-0.11-0.35-0.23-0.98-0.35-1.91l-0.24-1.74c-0.02-0.25-0.06-0.61-0.11-1.07
		c-0.05-0.46-0.09-0.89-0.12-1.27c-0.03-0.38-0.06-0.75-0.09-1.09c-0.42-7.29-0.16-16.35,0.76-27.17c0.14-0.23,0.23-0.77,0.26-1.62
		c0.04-0.84,0.07-1.72,0.11-2.64c0.03-0.91,0.11-1.81,0.23-2.69c0.11-0.88,0.39-1.55,0.82-2.01c0.43-0.46,1-0.58,1.72-0.35
		c0.69,0.25,0.98,0.69,0.87,1.32c-1.39,7.8-1.99,17.79-1.8,29.98c0,2.36,0.08,4.56,0.24,6.59c0.32-2.82,0.51-4.42,0.56-4.79
		c0.35-2.68,0.8-5.36,1.35-8.02c0.63-3.01,1.37-5.66,2.22-7.95c0.51-1.39,1.1-2.67,1.77-3.85c0.35-0.55,0.64-0.99,0.87-1.3
		c0.23-0.31,0.57-0.69,1.03-1.13c0.45-0.44,0.94-0.8,1.47-1.08c1.3-0.6,2.39-0.57,3.3,0.11c0.39,0.25,0.77,0.65,1.14,1.18
		c0.25,0.42,0.45,0.79,0.59,1.11C65.57,24.13,65.93,25.54,66.18,27.31z M61.43,43.42c1.39-3.77,1.99-7.94,1.8-12.49
		c-0.11-2.5-0.46-4.51-1.04-6.04c-0.21-0.51-0.38-0.86-0.52-1.04l-0.03-0.07c-0.12,0-0.23,0.06-0.35,0.17l-0.42,0.31l-0.42,0.48
		c-0.93,1.11-1.82,2.92-2.67,5.42c-0.76,2.22-1.37,4.33-1.8,6.31c-0.95,4.26-1.66,8.66-2.12,13.19c-0.02,0.11-0.05,0.28-0.07,0.5
		c-0.02,0.22-0.03,0.39-0.03,0.5c1.73-0.21,3.26-0.95,4.58-2.22C59.61,47.13,60.64,45.45,61.43,43.42z"/>
	<path class="st9" d="M92.14,25.1v2.01l-0.03,1.46l-0.17,2.39c-0.28,4.07-0.54,7.13-0.8,9.16c-0.46,3.68-0.98,6.71-1.56,9.09
		c-0.95,3.73-2.08,6.63-3.4,8.71c-0.09,0.09-0.31,0.34-0.64,0.75c-0.34,0.41-0.63,0.75-0.89,1.03c-1,0.99-2.01,1.63-3.05,1.91
		c-0.14,0.05-0.34,0.08-0.61,0.1c-0.27,0.02-0.43,0.05-0.5,0.07c-0.11,0-0.29-0.01-0.52-0.02c-0.23-0.01-0.42-0.02-0.55-0.02
		c-0.35,0-0.73-0.07-1.15-0.21c-0.69-0.23-1.1-0.39-1.21-0.48c-0.93-0.56-1.52-1.34-1.77-2.36c-0.18-0.49-0.25-0.96-0.21-1.42
		c-0.02-0.42,0.02-0.87,0.14-1.35c0.37-1.64,1.13-3.07,2.29-4.27c1.09-1.18,2.27-2.06,3.54-2.64c1.99-0.88,3.77-1.1,5.34-0.66
		c0.67-2.98,1.23-6.69,1.67-11.11c0.25-2.57,0.46-5.11,0.62-7.63l0.1-1.84v-0.14c-0.02-0.07-0.06-0.03-0.1,0.1
		c0,0.02-0.01,0.05-0.03,0.07l-0.94,2.67c-0.72,1.94-1.18,3.17-1.39,3.68c-2.15,5.25-4.41,9.97-6.77,14.16
		c-0.83,1.41-1.63,2.56-2.39,3.44c-0.79,0.86-1.59,1.39-2.43,1.6c-1.07,0.28-2.12,0.09-3.16-0.56c-1.32-0.86-2.19-2.3-2.6-4.34
		c-0.25-1.3-0.38-2.68-0.38-4.16c0-0.81,0.02-1.65,0.07-2.52c0.05-0.87,0.11-1.83,0.19-2.88c0.08-1.05,0.13-1.86,0.16-2.41
		l0.56-7.67c0.14-0.25,0.23-0.71,0.28-1.35c0.05-0.65,0.08-1.5,0.1-2.55S70,23,70.07,22.35c0.14-1.53,0.42-2.68,0.85-3.47
		s1.07-1.03,1.93-0.73c0.3,0.09,0.53,0.28,0.68,0.57c0.15,0.29,0.2,0.59,0.16,0.92c-0.72,3.93-1.3,9.65-1.73,17.14
		c-0.23,4.86-0.31,7.77-0.24,8.75c0.14,1.74,0.38,2.95,0.73,3.65c0.16,0.42,0.41,0.73,0.75,0.94c0.34,0.21,0.6,0.28,0.78,0.21
		c0.42,0,1.18-0.84,2.29-2.53c0.58-0.88,1.31-2.14,2.19-3.78c1.27-2.41,2.55-5.11,3.82-8.12c1.16-2.71,2.21-5.53,3.16-8.47
		l0.52-1.53l0.55-1.84l0.59-2.01c0.07-0.18,0.18-0.41,0.33-0.68c0.15-0.27,0.26-0.47,0.33-0.61c0.02-0.07,0.07-0.17,0.16-0.31
		c0.08-0.14,0.13-0.23,0.16-0.28l0.24-0.24l0.49-0.49c0.25-0.18,0.59-0.23,1.01-0.14c0.28,0.09,0.57,0.27,0.87,0.52
		c0.39,0.37,0.74,1.01,1.04,1.91C91.92,22.56,92.07,23.68,92.14,25.1z M82.32,57.93c1.13-1.04,2.16-3.01,3.09-5.9
		c0.02-0.07,0.05-0.18,0.09-0.33c0.04-0.15,0.06-0.26,0.09-0.33c-1.8,0.21-3.42,0.94-4.86,2.19c-0.83,0.72-1.46,1.51-1.87,2.39
		c-0.21,0.42-0.34,0.84-0.4,1.28c-0.06,0.44-0.03,0.73,0.09,0.87c0.21,0.42,0.76,0.62,1.66,0.62
		C80.92,58.82,81.63,58.55,82.32,57.93z"/>
	<path class="st9" d="M131.12,19.89c-0.12,0.28-0.18,0.83-0.19,1.65c-0.01,0.82-0.01,1.7,0,2.62c0.01,0.92-0.02,1.91-0.09,2.95
		c-0.12,1.69-0.38,2.97-0.8,3.85c-0.41,0.88-1.06,1.18-1.94,0.9c-0.69-0.23-0.98-0.76-0.87-1.6c1.11-7.59,1.24-13.84,0.38-18.74
		c-0.65-3.77-1.96-6.3-3.92-7.6c-1.13-0.67-2.3-0.9-3.49-0.68c-1.19,0.22-2.27,0.77-3.24,1.65c-1.87,1.5-3.1,4.15-3.68,7.95
		c-0.28,1.99-0.64,5.29-1.08,9.89c-0.69,7.82-0.81,14.48-0.35,19.99c0.3,3.47,0.81,6.72,1.53,9.75c0.25,1.04,0.47,1.85,0.64,2.43
		c0.17,0.58,0.42,1.24,0.75,1.98c0.32,0.74,0.71,1.29,1.14,1.65c0.44,0.36,0.95,0.57,1.53,0.64c1.37,0.23,2.76,0.1,4.2-0.4
		c1.44-0.5,2.57-1.25,3.4-2.27c0.81-0.97,1.33-2.24,1.56-3.82c0.07-0.51,0.11-1.28,0.11-2.32c0.02-0.53,0.08-1.38,0.17-2.53
		c0.37-1.39,0.45-3.23,0.24-5.52c-0.11-1.39-0.42-2.62-0.92-3.7c-0.5-1.08-1.13-1.43-1.89-1.06c-1.09,0.12-1.91,0.58-2.46,1.39
		c-0.46,0.72-0.83,1.76-1.11,3.12c-0.09,0.39-0.2,0.94-0.33,1.63c-0.13,0.69-0.23,1.24-0.31,1.65c-0.08,0.4-0.19,0.84-0.33,1.3
		c-0.14,0.46-0.28,0.84-0.41,1.15c-0.35,0.74-0.87,1.01-1.56,0.82c-0.69-0.2-1.04-0.72-1.04-1.58c0-0.12,0.01-0.52,0.04-1.2
		c0.02-0.68,0.04-1.12,0.05-1.32c0.01-0.2,0.04-0.59,0.09-1.18c0.05-0.59,0.1-1.04,0.16-1.35c0.06-0.31,0.13-0.72,0.23-1.21
		c0.09-0.5,0.21-0.97,0.36-1.41c0.15-0.44,0.33-0.88,0.54-1.32c0.35-0.81,0.91-1.56,1.68-2.26s1.62-1.16,2.52-1.39
		c1.09-0.23,2-0.31,2.74-0.24c1.18,0.05,2.19,0.57,3.02,1.56c0.44,0.53,0.79,1.12,1.04,1.77c0.25,0.65,0.42,1.16,0.5,1.53
		s0.17,0.91,0.26,1.63c0.11,1.04,0.15,2.55,0.1,4.51c0,0.25-0.07,1.68-0.21,4.27c-0.02,0.58-0.02,1.25,0,2.01
		c0,0.81-0.07,1.63-0.21,2.46c-0.3,1.8-0.98,3.37-2.05,4.69c-1.11,1.34-2.48,2.37-4.1,3.09c-1.59,0.67-3.23,1.01-4.89,1.01
		c-0.93,0-1.8-0.13-2.64-0.38c-1.04-0.32-1.9-0.82-2.57-1.49c-0.97-0.95-1.8-2.45-2.5-4.51c-0.51-1.78-0.87-3.22-1.08-4.3
		c-0.62-2.89-1.04-5.79-1.25-8.68c-0.35-5-0.27-10.79,0.24-17.39c0.23-2.73,0.51-5.58,0.83-8.54c0.02-0.23,0.07-0.69,0.14-1.37
		c0.07-0.68,0.13-1.18,0.17-1.51c0.05-0.32,0.11-0.79,0.19-1.41s0.16-1.12,0.24-1.53c0.08-0.4,0.18-0.87,0.3-1.41
		c0.11-0.53,0.25-1.04,0.41-1.53c0.46-1.59,1.2-3.08,2.21-4.44c1-1.36,2.24-2.42,3.69-3.16c1.64-0.88,3.35-1.2,5.14-0.97
		c1.8,0.28,3.35,1.1,4.65,2.46c1.9,2.04,3.14,4.9,3.75,8.61C131,13.99,131.19,16.9,131.12,19.89z"/>
	<path class="st9" d="M139.13,23.64c-0.26,0.67-0.45,1.45-0.57,2.34c-0.13,0.89-0.23,1.9-0.31,3.02c-0.08,1.12-0.16,1.91-0.23,2.38
		c-0.37,1.92-0.55,4.65-0.52,8.19c0.02,3.54-0.06,6.28-0.24,8.22c-0.16,0.21-0.17,0.59-0.04,1.16c0.14,0.57,0.34,1.14,0.59,1.72
		c0.25,0.58,0.36,1.17,0.33,1.77c-0.04,0.6-0.32,1.04-0.85,1.32c-0.32,0.18-0.83,0.28-1.53,0.28s-1.05-0.08-1.07-0.24
		c-0.97-8.52-0.63-18.04,1.04-28.56c0.16-0.05,0.23-0.24,0.19-0.57c-0.04-0.34-0.07-0.65-0.11-0.94c-0.03-0.29,0.12-0.52,0.47-0.71
		c0.35-0.18,0.97-0.15,1.87,0.1c0.21,0.05,0.39,0.11,0.54,0.17c0.15,0.07,0.27,0.14,0.35,0.19
		C139.13,23.54,139.16,23.59,139.13,23.64z M141.63,13.12c0.23,0.18,0.42,0.47,0.55,0.87c0.14,0.39,0.2,0.76,0.17,1.11
		c-0.02,0.53-0.22,1.07-0.59,1.63c-0.48,0.69-1.11,1.21-1.87,1.56c-0.11,0-0.2,0-0.26,0c-0.06,0-0.13,0.06-0.21,0.17
		c-0.08,0.12-0.14,0.21-0.18,0.3c-0.03,0.08-0.09,0.21-0.17,0.38c-0.08,0.18-0.14,0.31-0.19,0.4c-0.46,0.88-1.03,0.96-1.7,0.24
		c-0.07-0.07-0.12-0.13-0.14-0.17c-0.07,0.02-0.11,0.02-0.14,0c-0.69-0.76-1.11-1.67-1.23-2.72c-0.13-1.05,0-1.89,0.4-2.52
		c0.62-0.95,1.32-1.62,2.08-2.01c0.74-0.32,1.38-0.39,1.91-0.21c0.3,0.07,0.59,0.2,0.87,0.38
		C141.19,12.67,141.42,12.87,141.63,13.12z"/>
	<path class="st9" d="M160.86,22.21c0.14,2.11,0.07,4.04-0.21,5.8c-0.6,3.84-1.94,7.36-4.03,10.55c-0.21,0.23-0.46,0.54-0.76,0.94
		c-0.3,0.39-0.68,0.91-1.14,1.54c-0.46,0.64-0.88,1.19-1.25,1.65c-0.9,1.11-1.75,2.05-2.53,2.81c-1.37,1.2-2.06,1.84-2.08,1.91
		c-0.02,0.05,0,0.06,0.07,0.04l0.14,0.14c0.16,0.21,0.44,0.45,0.83,0.73c0.09,0.07,0.87,0.66,2.32,1.77
		c1.73,1.32,2.82,2.33,3.26,3.02c0.37,0.58,0.32,1.14-0.14,1.7c-0.46,0.55-1,0.67-1.63,0.35c-1.59-0.86-3.11-1.79-4.55-2.81
		c-0.53-0.39-1.03-0.79-1.49-1.18c-0.21,0.83-0.58,1.57-1.11,2.22c-0.53,0.58-1.2,0.93-2.01,1.04c-0.6,0.07-1.14-0.03-1.63-0.31
		c-0.28-0.16-0.47-0.34-0.59-0.52c-0.21-0.28-0.37-0.52-0.48-0.73c-0.05-0.05-0.16-0.61-0.35-1.7c0.07-2.57,0.17-6.32,0.3-11.26
		c0.13-4.94,0.21-8.59,0.26-10.95c0.18-0.35,0.24-0.91,0.16-1.69c-0.08-0.77-0.13-1.65-0.16-2.64c-0.02-0.98-0.02-1.91,0-2.78
		c0.02-0.87,0.22-1.55,0.59-2.07c0.37-0.51,0.93-0.68,1.66-0.52c0.32,0.07,0.59,0.23,0.78,0.47c0.2,0.24,0.28,0.52,0.26,0.82
		c-0.26,3.68-0.42,8.22-0.49,13.64c0,0.79-0.01,1.97-0.02,3.54c-0.01,1.57-0.03,2.75-0.05,3.54c0,0.37-0.01,0.92-0.02,1.65
		c-0.01,0.73-0.02,1.27-0.02,1.62v0.8c0,0.11-0.01,0.27-0.02,0.45c-0.01,0.18-0.02,0.31-0.02,0.38c-0.02,0.16,0.01,0.3,0.11,0.4
		c0.09,0.1,0.2,0.13,0.31,0.09c0.18-0.02,0.3-0.18,0.35-0.48l0.28-1.49c0.19-1.04,0.48-2.73,0.89-5.07
		c0.41-2.34,0.71-4.13,0.92-5.38c0.14-0.76,0.32-1.88,0.55-3.35c0.23-1.47,0.46-2.8,0.68-3.99c0.22-1.19,0.48-2.34,0.78-3.45
		c0.62-2.2,1.47-3.99,2.53-5.38c0.79-0.99,1.61-1.73,2.46-2.22c0.63-0.32,1.26-0.52,1.91-0.59c0.86-0.07,1.62,0.14,2.29,0.63
		c0.6,0.46,1.03,1.09,1.28,1.87c0.18,0.51,0.31,1.03,0.38,1.56C160.65,20.27,160.79,21.24,160.86,22.21z M157.53,25.37
		c0.05-1.04-0.01-2.37-0.17-3.99c-0.02-0.21-0.08-0.53-0.16-0.97c-0.08-0.44-0.15-0.77-0.19-1.01l-0.28-0.83v0.04h-0.04
		c-0.14,0-0.35,0.08-0.62,0.24c-0.32,0.23-0.57,0.43-0.73,0.59c-0.18,0.19-0.44,0.49-0.76,0.9c-0.81,1.13-1.49,2.71-2.05,4.72
		c-0.26,1.04-0.5,2.19-0.75,3.44c-0.24,1.25-0.5,2.65-0.76,4.2c-0.27,1.55-0.48,2.76-0.64,3.61l-1.14,6.42
		c1.13-0.99,2.03-1.91,2.67-2.74c1.64-1.99,2.97-4.27,3.99-6.83C156.89,30.51,157.44,27.92,157.53,25.37z"/>
	<path class="st9" d="M174.01,51.96c0.16,0.39,0.13,0.93-0.09,1.6c-0.22,0.67-0.46,0.98-0.71,0.94c-0.6-0.12-1.5-0.3-2.69-0.54
		c-1.19-0.24-2.09-0.42-2.69-0.54c-1.46-0.3-2.58-0.96-3.37-1.98c-0.62-0.83-1.05-1.98-1.28-3.44c-0.09-0.65-0.14-1.28-0.16-1.91
		c-0.01-0.63-0.01-1.32,0-2.08c0.01-0.76,0.02-1.34,0.02-1.73l0.04-5.52c0.11-13.07,0.17-20.42,0.17-22.04
		c0.18-0.14,0.23-0.36,0.14-0.68c-0.09-0.31-0.16-0.66-0.21-1.06c-0.05-0.39-0.07-0.76-0.07-1.09c0-0.34,0.18-0.61,0.54-0.82
		c0.36-0.21,0.91-0.28,1.65-0.21c0.74,0.09,1.09,0.27,1.04,0.52c-0.18,0.63-0.23,2.67-0.12,6.14c0.1,3.47,0.14,5.52,0.12,6.14
		c-0.14,2.27-0.13,6.59,0.03,12.98c0.05,2.89,0.06,5.06,0.04,6.49c0,0.35-0.02,1.01-0.05,1.98c-0.04,0.97-0.04,1.75,0,2.34
		c0.03,0.59,0.11,1.12,0.23,1.58c-0.05,0.16-0.01,0.34,0.1,0.54c0.11,0.2,0.3,0.34,0.56,0.43c0.28,0.11,1.03,0.2,2.26,0.24
		C172.09,50.35,173.6,50.92,174.01,51.96z"/>
	<path class="st10" d="M82.13,100.32c0.6,1.73,0.97,3.45,1.11,5.15c0.14,1.7,0.18,3.71,0.14,6.02c-0.19,3.96-0.66,7.56-1.42,10.83
		c-0.46,2.01-1,3.77-1.59,5.28c-0.32,0.79-0.59,1.39-0.78,1.8s-0.5,0.95-0.92,1.59c-0.42,0.65-0.88,1.23-1.39,1.74
		c-0.14,0.16-0.37,0.36-0.69,0.59c-0.21,0.16-0.5,0.32-0.87,0.48c-0.6,0.35-1.28,0.46-2.05,0.35c-1.41-0.09-2.53-0.46-3.37-1.11
		c-1.53-1.11-2.62-2.92-3.26-5.41c-0.74-2.94-0.89-6.62-0.45-11.04c0.14-0.16,0.23-0.47,0.26-0.94c0.04-0.46,0.06-1.05,0.09-1.75
		c0.02-0.71,0.07-1.3,0.14-1.79c0.16-1.2,0.5-2.03,1.01-2.46c-0.07-0.28-0.18-1.06-0.35-2.36c0.05-1.57,0.13-2.58,0.24-3.02
		c0.44-2.29,1.33-4.15,2.67-5.59c0.76-0.86,1.68-1.54,2.74-2.05c1.06-0.51,2.19-0.73,3.37-0.66c0.58,0.07,1.17,0.17,1.77,0.31
		c0.67,0.21,1.27,0.58,1.8,1.11C81.04,98.12,81.65,99.09,82.13,100.32z M78.45,123.64c0.97-3.63,1.52-7.65,1.63-12.04
		c0.05-2.38-0.03-4.4-0.24-6.04c-0.3-2.38-0.8-4.13-1.49-5.24c-0.25-0.35-0.46-0.57-0.62-0.68c-0.16-0.11-0.45-0.19-0.87-0.26
		c-0.07-0.07-0.25-0.09-0.54-0.07c-0.29,0.02-0.47,0.04-0.54,0.04c-0.02,0-0.17,0.03-0.45,0.1c-0.28,0.07-0.49,0.14-0.63,0.21
		c-1.46,0.67-2.57,1.91-3.33,3.71c-0.51,0.39-0.73,1.41-0.64,3.04c0.08,1.63,0.5,3.14,1.27,4.53c0.42,0.83,1.21,2.08,2.38,3.73
		c1.17,1.66,1.82,2.84,1.96,3.56c0.09,0.58-0.14,1.08-0.7,1.51c-0.55,0.43-1.04,0.45-1.46,0.05c-1.78-1.66-3.21-3.49-4.3-5.48
		c-0.46,2.57-0.65,5.15-0.55,7.74c0.07,2.27,0.37,4.14,0.9,5.62c0.62,1.78,1.53,2.86,2.71,3.23c0.11,0.07,0.3,0.11,0.54,0.14
		c0.24,0.02,0.41,0.05,0.5,0.07c0.25,0,0.5-0.07,0.73-0.21c0.6-0.37,1.14-0.97,1.6-1.8C77.11,127.77,77.83,125.95,78.45,123.64z"/>
	<path class="st10" d="M105.39,100.91c0.14,2.11,0.07,4.04-0.21,5.8c-0.6,3.84-1.94,7.36-4.03,10.55c-0.21,0.23-0.46,0.54-0.76,0.94
		c-0.3,0.39-0.68,0.91-1.14,1.54c-0.46,0.64-0.88,1.19-1.25,1.65c-0.9,1.11-1.75,2.05-2.53,2.81c-1.37,1.2-2.06,1.84-2.08,1.91
		c-0.02,0.05,0,0.06,0.07,0.04l0.14,0.14c0.16,0.21,0.44,0.45,0.83,0.73c0.09,0.07,0.87,0.66,2.32,1.77
		c1.73,1.32,2.82,2.33,3.26,3.02c0.37,0.58,0.32,1.14-0.14,1.7c-0.46,0.55-1,0.67-1.63,0.35c-1.59-0.86-3.11-1.79-4.55-2.81
		c-0.53-0.39-1.03-0.79-1.49-1.18c-0.21,0.83-0.58,1.57-1.11,2.22c-0.53,0.58-1.2,0.93-2.01,1.04c-0.6,0.07-1.14-0.03-1.63-0.31
		c-0.28-0.16-0.47-0.34-0.59-0.52c-0.21-0.28-0.37-0.52-0.48-0.73c-0.05-0.05-0.16-0.61-0.35-1.7c0.07-2.57,0.17-6.32,0.3-11.26
		c0.13-4.94,0.21-8.59,0.26-10.95c0.18-0.35,0.24-0.91,0.16-1.69c-0.08-0.77-0.13-1.65-0.16-2.64c-0.02-0.98-0.02-1.91,0-2.78
		c0.02-0.87,0.22-1.55,0.59-2.07c0.37-0.51,0.93-0.68,1.66-0.52c0.32,0.07,0.59,0.23,0.78,0.47c0.2,0.24,0.28,0.52,0.26,0.82
		c-0.26,3.68-0.42,8.22-0.49,13.64c0,0.79-0.01,1.97-0.02,3.54c-0.01,1.57-0.03,2.75-0.05,3.54c0,0.37-0.01,0.92-0.02,1.65
		c-0.01,0.73-0.02,1.27-0.02,1.62v0.8c0,0.11-0.01,0.27-0.02,0.45s-0.02,0.31-0.02,0.38c-0.02,0.16,0.01,0.3,0.11,0.4
		c0.09,0.1,0.2,0.13,0.31,0.09c0.18-0.02,0.3-0.18,0.35-0.48l0.28-1.49c0.19-1.04,0.48-2.73,0.89-5.07
		c0.41-2.34,0.71-4.13,0.92-5.38c0.14-0.76,0.32-1.88,0.55-3.35c0.23-1.47,0.46-2.8,0.68-3.99c0.22-1.19,0.48-2.34,0.78-3.45
		c0.62-2.2,1.47-3.99,2.53-5.38c0.79-0.99,1.61-1.73,2.46-2.22c0.63-0.32,1.26-0.52,1.91-0.59c0.86-0.07,1.62,0.14,2.29,0.63
		c0.6,0.46,1.03,1.09,1.28,1.87c0.18,0.51,0.31,1.03,0.38,1.56C105.18,98.96,105.32,99.94,105.39,100.91z M102.05,104.07
		c0.05-1.04-0.01-2.37-0.17-3.99c-0.02-0.21-0.08-0.53-0.16-0.97c-0.08-0.44-0.15-0.77-0.19-1.01l-0.28-0.83v0.04h-0.04
		c-0.14,0-0.35,0.08-0.62,0.24c-0.32,0.23-0.57,0.43-0.73,0.59c-0.18,0.19-0.44,0.49-0.76,0.9c-0.81,1.13-1.49,2.71-2.05,4.72
		c-0.26,1.04-0.5,2.19-0.75,3.44c-0.24,1.25-0.5,2.65-0.76,4.2c-0.27,1.55-0.48,2.76-0.64,3.61l-1.14,6.42
		c1.13-0.99,2.03-1.91,2.67-2.74c1.64-1.99,2.97-4.27,3.99-6.83C101.42,109.2,101.96,106.61,102.05,104.07z"/>
	<path class="st11" d="M13.66,195.53c-0.32,0.21-0.4,0.31-0.24,0.31c0.02,0,0.05,0,0.07,0c0.07,0,0.16-0.01,0.28-0.02
		c0.11-0.01,0.2-0.02,0.24-0.02l0.38,0.07c0.39,0.05,0.86,0.15,1.39,0.31c1.06,0.35,1.97,0.81,2.71,1.39
		c1.34,1.11,2.51,2.59,3.51,4.44c0.07,0.21,0.24,0.66,0.52,1.37c0.28,0.71,0.54,1.45,0.78,2.22c0.24,0.77,0.43,1.58,0.57,2.41
		c0.6,3.72,0.15,6.92-1.35,9.58c-0.49,0.88-1.16,1.64-2.01,2.29c-0.86,0.65-1.82,1.03-2.88,1.14c-1.83,0.23-3.6-0.32-5.31-1.67
		c-1.71-1.41-2.88-3.01-3.51-4.79c0,1.27-0.16,2.25-0.47,2.93c-0.31,0.68-0.84,0.96-1.58,0.82c-0.32-0.05-0.6-0.23-0.82-0.54
		c-0.22-0.31-0.33-0.66-0.33-1.03c0-1.27-0.04-4.36-0.12-9.27c-0.08-4.9-0.12-8.62-0.12-11.14c0-2.52,0.07-5.71,0.19-9.56
		c0.13-3.85,0.34-7.19,0.64-10.01c0.51-4.26,1.1-7.72,1.77-10.38c0.53-2.08,1.14-3.8,1.84-5.17c0.69-1.2,1.31-2.03,1.84-2.5
		c0.88-0.81,1.94-1.24,3.19-1.28c1.87-0.05,3.78,0.64,5.73,2.05c1.46,1.13,2.71,2.59,3.75,4.37c1.9,3.26,2.6,6.95,2.12,11.07
		c-0.37,3.42-1.64,6.9-3.82,10.45c-1.8,2.92-4.12,5.7-6.94,8.36C15.21,194.19,14.54,194.78,13.66,195.53z M14.56,199.24
		c-0.32-0.07-0.73-0.13-1.21-0.17c-0.72-0.05-1.5-0.01-2.36,0.11c-1.09,0.14-1.8,0.13-2.15-0.04c-0.18-0.07-0.35-0.15-0.49-0.24
		c0,3.03,0.01,5.3,0.04,6.8c-0.09,0.23-0.14,0.6-0.14,1.11c0,0.51,0.02,1.02,0.07,1.54c0.05,0.52,0.11,1.21,0.19,2.07
		s0.14,1.55,0.19,2.08c0.23-0.39,0.62-0.57,1.16-0.52c0.55,0.05,0.97,0.31,1.27,0.8c1.92,2.85,3.72,4.4,5.41,4.65
		c0.86,0.14,1.66-0.16,2.43-0.9c0.72-0.74,1.26-1.76,1.63-3.05c0.7-2.45,0.6-4.99-0.28-7.6c-0.42-1.23-0.99-2.38-1.73-3.47
		c-0.51-0.69-0.91-1.2-1.21-1.53c-0.39-0.44-0.82-0.79-1.28-1.04C15.72,199.6,15.21,199.4,14.56,199.24z M12.27,192.3
		c1.23-1.13,2.24-2.14,3.05-3.02c4.53-4.86,7.14-9.67,7.81-14.44c0.39-2.82,0.11-5.42-0.83-7.81c-0.48-1.23-1.14-2.35-1.98-3.38
		c-0.83-1.03-1.77-1.83-2.81-2.41c-1.11-0.62-2.12-0.84-3.02-0.66c-0.39,0.14-0.73,0.36-1.01,0.66c-0.39,0.42-0.72,0.89-0.97,1.42
		c-0.9,1.83-1.68,4.5-2.32,8.02c-1.16,6.96-1.77,15.34-1.84,25.13l1.04-0.94L12.27,192.3z"/>
	<path class="st11" d="M50.45,178.73c0.53,1.2,0.62,2.23,0.28,3.09c-0.32,0.81-0.97,1.06-1.94,0.76c-0.65-0.18-0.97-0.49-0.97-0.9
		c0.05-0.74-0.12-1.5-0.5-2.27c-0.38-0.77-0.91-1.35-1.58-1.72c-0.69-0.37-1.5-0.52-2.43-0.43c-0.93,0.08-1.77,0.36-2.53,0.85
		c-1.32,0.83-2.6,2.29-3.85,4.37c-0.97,1.62-1.89,3.33-2.74,5.14c-2.94,5.85-3.78,11.93-2.53,18.22c0.14,0.44,0.32,0.84,0.56,1.22
		c0.11,0.18,0.25,0.29,0.42,0.31c0.21,0.07,0.48-0.02,0.83-0.28c0.05-0.05,0.14-0.14,0.28-0.28l0.55-0.69
		c1.71-2.11,3.12-4.03,4.24-5.76c0.97-1.55,2.43-3.85,4.37-6.9c0.3-0.44,0.73-1.11,1.3-2c0.57-0.89,0.99-1.56,1.27-2l1.25-1.87
		c0.21-0.11,0.49-0.22,0.83-0.31c0.37-0.05,0.71,0.08,1.01,0.38c0.25,0.23,0.42,0.46,0.49,0.69c0.07,0.18,0.08,0.62,0.03,1.32
		c-0.12,0.32-0.2,0.83-0.24,1.53c-0.28,1.55-0.47,2.51-0.59,2.88c-0.37,1.5-0.66,2.93-0.87,4.27c-0.14,1.25-0.24,2.2-0.31,2.85
		c-0.02,0.3-0.08,1.04-0.17,2.2c-0.09,1.17-0.17,1.96-0.23,2.38c-0.06,0.41-0.14,1.01-0.26,1.79c-0.12,0.77-0.26,1.39-0.43,1.84
		c-0.17,0.45-0.38,0.84-0.61,1.16c-0.23,0.3-0.56,0.48-0.99,0.52c-0.43,0.05-0.81-0.04-1.15-0.26s-0.5-0.52-0.5-0.89
		c0.09-3.61,0.54-7.4,1.35-11.38l0.21-1.01v-0.07h-0.03l-0.31,0.59l-0.1,0.21l-0.49,0.8c-0.42,0.69-1.09,1.74-2.01,3.12
		c-1.44,2.13-2.93,4.13-4.48,6l-0.62,0.73c-0.07,0.09-0.24,0.26-0.5,0.5c-0.27,0.24-0.48,0.4-0.64,0.47c-1,0.51-1.96,0.73-2.88,0.66
		c-0.62-0.07-1.18-0.28-1.67-0.62c-0.44-0.3-0.8-0.71-1.07-1.21c-0.39-0.67-0.69-1.45-0.9-2.32c-1.2-6.71-0.37-13.2,2.5-19.47
		c1.62-3.52,3.27-6.35,4.96-8.5c1.27-1.57,2.69-2.71,4.27-3.4c1.97-0.85,3.9-0.98,5.8-0.38c0.09,0.09,0.38,0.27,0.87,0.52
		c0.49,0.25,0.9,0.51,1.25,0.76C49.19,176.66,49.94,177.6,50.45,178.73z"/>
	<path class="st11" d="M71.55,184.7c0.35,2.73,0.36,5.45,0.03,8.16c-0.07,0.16-0.31,1.63-0.73,4.41c-0.42,2.78-1.04,5.11-1.87,7.01
		c-1.14,2.71-2.8,4.67-5,5.9c-0.97,0.56-1.98,0.87-3.02,0.96c-1.04,0.08-1.82-0.03-2.32-0.33c-0.14,0.65-0.34,1.25-0.59,1.8
		l-0.17,0.35c-0.05,0.07-0.22,0.25-0.52,0.56c-0.05,0.07-0.24,0.17-0.59,0.31c-0.32,0.11-0.6,0.16-0.83,0.14
		c-0.21-0.02-0.45-0.11-0.73-0.26c-0.28-0.15-0.44-0.26-0.49-0.33c-0.21-0.23-0.36-0.43-0.47-0.61c-0.1-0.17-0.18-0.35-0.24-0.54
		c-0.06-0.18-0.1-0.3-0.12-0.35c-0.11-0.35-0.23-0.98-0.35-1.91l-0.24-1.74c-0.02-0.25-0.06-0.61-0.11-1.07
		c-0.05-0.46-0.09-0.89-0.12-1.27c-0.03-0.38-0.06-0.75-0.09-1.09c-0.42-7.29-0.16-16.35,0.76-27.17c0.14-0.23,0.23-0.77,0.26-1.62
		c0.04-0.84,0.07-1.72,0.11-2.64c0.03-0.91,0.11-1.81,0.23-2.69c0.11-0.88,0.39-1.55,0.82-2.01c0.43-0.46,1-0.58,1.72-0.35
		c0.69,0.25,0.98,0.69,0.87,1.32c-1.39,7.8-1.99,17.79-1.8,29.98c0,2.36,0.08,4.56,0.24,6.59c0.32-2.82,0.51-4.42,0.56-4.79
		c0.35-2.68,0.8-5.36,1.35-8.02c0.63-3.01,1.37-5.66,2.22-7.95c0.51-1.39,1.1-2.67,1.77-3.85c0.35-0.55,0.64-0.99,0.87-1.3
		c0.23-0.31,0.57-0.69,1.03-1.13c0.45-0.44,0.94-0.8,1.47-1.08c1.3-0.6,2.39-0.57,3.3,0.11c0.39,0.25,0.77,0.65,1.14,1.18
		c0.25,0.42,0.45,0.79,0.59,1.11C70.94,181.52,71.29,182.92,71.55,184.7z M66.79,200.8c1.39-3.77,1.99-7.94,1.8-12.49
		c-0.11-2.5-0.46-4.51-1.04-6.04c-0.21-0.51-0.38-0.86-0.52-1.04L67,181.16c-0.12,0-0.23,0.06-0.35,0.17l-0.42,0.31l-0.42,0.48
		c-0.93,1.11-1.82,2.92-2.67,5.42c-0.76,2.22-1.37,4.33-1.8,6.31c-0.95,4.26-1.66,8.66-2.12,13.19c-0.02,0.11-0.05,0.28-0.07,0.5
		c-0.02,0.22-0.03,0.39-0.03,0.5c1.73-0.21,3.26-0.95,4.58-2.22C64.98,204.51,66.01,202.84,66.79,200.8z"/>
	<path class="st11" d="M97.51,182.48v2.01l-0.03,1.46l-0.17,2.39c-0.28,4.07-0.54,7.13-0.8,9.16c-0.46,3.68-0.98,6.71-1.56,9.09
		c-0.95,3.73-2.08,6.63-3.4,8.71c-0.09,0.09-0.31,0.34-0.64,0.75c-0.34,0.41-0.63,0.75-0.89,1.03c-1,0.99-2.01,1.63-3.05,1.91
		c-0.14,0.05-0.34,0.08-0.61,0.1c-0.27,0.02-0.43,0.05-0.5,0.07c-0.11,0-0.29-0.01-0.52-0.02c-0.23-0.01-0.42-0.02-0.55-0.02
		c-0.35,0-0.73-0.07-1.15-0.21c-0.69-0.23-1.1-0.39-1.21-0.48c-0.93-0.56-1.52-1.34-1.77-2.36c-0.18-0.49-0.25-0.96-0.21-1.42
		c-0.02-0.42,0.02-0.87,0.14-1.35c0.37-1.64,1.13-3.07,2.29-4.27c1.09-1.18,2.27-2.06,3.54-2.64c1.99-0.88,3.77-1.1,5.34-0.66
		c0.67-2.98,1.23-6.69,1.67-11.11c0.25-2.57,0.46-5.11,0.62-7.63l0.1-1.84v-0.14c-0.02-0.07-0.06-0.03-0.1,0.1
		c0,0.02-0.01,0.05-0.03,0.07l-0.94,2.67c-0.72,1.94-1.18,3.17-1.39,3.68c-2.15,5.25-4.41,9.97-6.77,14.16
		c-0.83,1.41-1.63,2.56-2.39,3.44c-0.79,0.86-1.59,1.39-2.43,1.6c-1.07,0.28-2.12,0.09-3.16-0.56c-1.32-0.86-2.19-2.3-2.6-4.34
		c-0.25-1.3-0.38-2.68-0.38-4.16c0-0.81,0.02-1.65,0.07-2.52c0.05-0.87,0.11-1.83,0.19-2.88c0.08-1.05,0.13-1.86,0.16-2.41
		l0.56-7.67c0.14-0.25,0.23-0.71,0.28-1.35c0.05-0.65,0.08-1.5,0.1-2.55s0.07-1.9,0.14-2.55c0.14-1.53,0.42-2.68,0.85-3.47
		c0.43-0.79,1.07-1.03,1.93-0.73c0.3,0.09,0.53,0.28,0.68,0.57c0.15,0.29,0.2,0.59,0.16,0.92c-0.72,3.93-1.3,9.65-1.73,17.14
		c-0.23,4.86-0.31,7.77-0.24,8.75c0.14,1.74,0.38,2.95,0.73,3.65c0.16,0.42,0.41,0.73,0.75,0.94c0.34,0.21,0.6,0.28,0.78,0.21
		c0.42,0,1.18-0.84,2.29-2.53c0.58-0.88,1.31-2.14,2.19-3.78c1.27-2.41,2.55-5.11,3.82-8.12c1.16-2.71,2.21-5.53,3.16-8.47
		l0.52-1.53l0.55-1.84l0.59-2.01c0.07-0.18,0.18-0.41,0.33-0.68c0.15-0.27,0.26-0.47,0.33-0.61c0.02-0.07,0.07-0.17,0.16-0.31
		c0.08-0.14,0.13-0.23,0.16-0.28l0.24-0.24l0.49-0.49c0.25-0.18,0.59-0.23,1.01-0.14c0.28,0.09,0.57,0.27,0.87,0.52
		c0.39,0.37,0.74,1.01,1.04,1.91C97.29,179.94,97.44,181.07,97.51,182.48z M87.69,215.31c1.13-1.04,2.16-3.01,3.09-5.9
		c0.02-0.07,0.05-0.18,0.09-0.33c0.04-0.15,0.06-0.26,0.09-0.33c-1.8,0.21-3.42,0.94-4.86,2.19c-0.83,0.72-1.46,1.51-1.87,2.39
		c-0.21,0.42-0.34,0.84-0.4,1.28c-0.06,0.44-0.03,0.73,0.09,0.87c0.21,0.42,0.76,0.62,1.66,0.62
		C86.28,216.2,86.99,215.93,87.69,215.31z"/>
	<path class="st11" d="M122.22,195.53c-0.32,0.21-0.4,0.31-0.24,0.31c0.02,0,0.05,0,0.07,0c0.07,0,0.16-0.01,0.28-0.02
		c0.11-0.01,0.2-0.02,0.24-0.02l0.38,0.07c0.39,0.05,0.86,0.15,1.39,0.31c1.06,0.35,1.97,0.81,2.71,1.39
		c1.34,1.11,2.51,2.59,3.51,4.44c0.07,0.21,0.24,0.66,0.52,1.37c0.28,0.71,0.54,1.45,0.78,2.22c0.24,0.77,0.43,1.58,0.57,2.41
		c0.6,3.72,0.15,6.92-1.35,9.58c-0.49,0.88-1.16,1.64-2.01,2.29c-0.86,0.65-1.82,1.03-2.88,1.14c-1.83,0.23-3.6-0.32-5.31-1.67
		c-1.71-1.41-2.88-3.01-3.51-4.79c0,1.27-0.16,2.25-0.47,2.93c-0.31,0.68-0.84,0.96-1.58,0.82c-0.32-0.05-0.6-0.23-0.82-0.54
		c-0.22-0.31-0.33-0.66-0.33-1.03c0-1.27-0.04-4.36-0.12-9.27c-0.08-4.9-0.12-8.62-0.12-11.14c0-2.52,0.07-5.71,0.19-9.56
		c0.13-3.85,0.34-7.19,0.64-10.01c0.51-4.26,1.1-7.72,1.77-10.38c0.53-2.08,1.14-3.8,1.84-5.17c0.69-1.2,1.31-2.03,1.84-2.5
		c0.88-0.81,1.94-1.24,3.19-1.28c1.87-0.05,3.78,0.64,5.73,2.05c1.46,1.13,2.71,2.59,3.75,4.37c1.9,3.26,2.6,6.95,2.12,11.07
		c-0.37,3.42-1.64,6.9-3.82,10.45c-1.8,2.92-4.12,5.7-6.94,8.36C123.77,194.19,123.1,194.78,122.22,195.53z M123.12,199.24
		c-0.32-0.07-0.73-0.13-1.21-0.17c-0.72-0.05-1.5-0.01-2.36,0.11c-1.09,0.14-1.8,0.13-2.15-0.04c-0.18-0.07-0.35-0.15-0.49-0.24
		c0,3.03,0.01,5.3,0.04,6.8c-0.09,0.23-0.14,0.6-0.14,1.11c0,0.51,0.02,1.02,0.07,1.54c0.05,0.52,0.11,1.21,0.19,2.07
		s0.14,1.55,0.19,2.08c0.23-0.39,0.62-0.57,1.16-0.52c0.55,0.05,0.97,0.31,1.27,0.8c1.92,2.85,3.72,4.4,5.41,4.65
		c0.86,0.14,1.66-0.16,2.43-0.9c0.72-0.74,1.26-1.76,1.63-3.05c0.7-2.45,0.6-4.99-0.28-7.6c-0.42-1.23-0.99-2.38-1.73-3.47
		c-0.51-0.69-0.91-1.2-1.21-1.53c-0.39-0.44-0.82-0.79-1.28-1.04C124.28,199.6,123.77,199.4,123.12,199.24z M120.83,192.3
		c1.23-1.13,2.24-2.14,3.05-3.02c4.53-4.86,7.14-9.67,7.81-14.44c0.39-2.82,0.11-5.42-0.83-7.81c-0.48-1.23-1.14-2.35-1.98-3.38
		c-0.83-1.03-1.77-1.83-2.81-2.41c-1.11-0.62-2.12-0.84-3.02-0.66c-0.39,0.14-0.73,0.36-1.01,0.66c-0.39,0.42-0.72,0.89-0.97,1.42
		c-0.9,1.83-1.68,4.5-2.32,8.02c-1.16,6.96-1.77,15.34-1.84,25.13l1.04-0.94L120.83,192.3z"/>
	<path class="st11" d="M152.76,179.01c0.6,1.73,0.97,3.45,1.11,5.15c0.14,1.7,0.18,3.71,0.14,6.02c-0.19,3.96-0.66,7.56-1.42,10.83
		c-0.46,2.01-1,3.77-1.59,5.28c-0.32,0.79-0.59,1.39-0.78,1.8c-0.2,0.42-0.5,0.95-0.92,1.59c-0.42,0.65-0.88,1.23-1.39,1.74
		c-0.14,0.16-0.37,0.36-0.69,0.59c-0.21,0.16-0.5,0.32-0.87,0.48c-0.6,0.35-1.28,0.46-2.05,0.35c-1.41-0.09-2.53-0.46-3.37-1.11
		c-1.53-1.11-2.62-2.92-3.26-5.41c-0.74-2.94-0.89-6.62-0.45-11.04c0.14-0.16,0.23-0.47,0.26-0.94c0.04-0.46,0.06-1.05,0.09-1.75
		c0.02-0.71,0.07-1.3,0.14-1.79c0.16-1.2,0.5-2.03,1.01-2.46c-0.07-0.28-0.18-1.06-0.35-2.36c0.05-1.57,0.13-2.58,0.24-3.02
		c0.44-2.29,1.33-4.15,2.67-5.59c0.76-0.86,1.68-1.54,2.74-2.05c1.06-0.51,2.19-0.73,3.37-0.66c0.58,0.07,1.17,0.17,1.77,0.31
		c0.67,0.21,1.27,0.58,1.8,1.11C151.67,176.81,152.27,177.78,152.76,179.01z M149.08,202.33c0.97-3.63,1.52-7.65,1.63-12.04
		c0.05-2.38-0.03-4.4-0.24-6.04c-0.3-2.38-0.8-4.13-1.49-5.24c-0.25-0.35-0.46-0.57-0.62-0.68c-0.16-0.11-0.45-0.19-0.87-0.26
		c-0.07-0.07-0.25-0.09-0.54-0.07c-0.29,0.02-0.47,0.04-0.54,0.04c-0.02,0-0.17,0.03-0.45,0.1c-0.28,0.07-0.49,0.14-0.63,0.21
		c-1.46,0.67-2.57,1.91-3.33,3.71c-0.51,0.39-0.73,1.41-0.64,3.04c0.08,1.63,0.5,3.14,1.27,4.53c0.42,0.83,1.21,2.08,2.38,3.73
		c1.17,1.66,1.82,2.84,1.96,3.56c0.09,0.58-0.14,1.08-0.7,1.51c-0.55,0.43-1.04,0.45-1.46,0.05c-1.78-1.66-3.21-3.49-4.3-5.48
		c-0.46,2.57-0.65,5.15-0.55,7.74c0.07,2.27,0.37,4.14,0.9,5.62c0.62,1.78,1.53,2.86,2.71,3.23c0.11,0.07,0.3,0.11,0.54,0.14
		c0.24,0.02,0.41,0.05,0.5,0.07c0.25,0,0.5-0.07,0.73-0.21c0.6-0.37,1.14-0.97,1.6-1.8C147.74,206.46,148.45,204.64,149.08,202.33z"
		/>
	<path class="st11" d="M180,182.48v2.01l-0.03,1.46l-0.17,2.39c-0.28,4.07-0.54,7.13-0.8,9.16c-0.46,3.68-0.98,6.71-1.56,9.09
		c-0.95,3.73-2.08,6.63-3.4,8.71c-0.09,0.09-0.31,0.34-0.64,0.75c-0.34,0.41-0.63,0.75-0.89,1.03c-1,0.99-2.01,1.63-3.05,1.91
		c-0.14,0.05-0.34,0.08-0.61,0.1c-0.27,0.02-0.43,0.05-0.5,0.07c-0.11,0-0.29-0.01-0.52-0.02c-0.23-0.01-0.42-0.02-0.55-0.02
		c-0.35,0-0.73-0.07-1.15-0.21c-0.69-0.23-1.1-0.39-1.21-0.48c-0.93-0.56-1.52-1.34-1.77-2.36c-0.18-0.49-0.25-0.96-0.21-1.42
		c-0.02-0.42,0.02-0.87,0.14-1.35c0.37-1.64,1.13-3.07,2.29-4.27c1.09-1.18,2.27-2.06,3.54-2.64c1.99-0.88,3.77-1.1,5.34-0.66
		c0.67-2.98,1.23-6.69,1.67-11.11c0.25-2.57,0.46-5.11,0.62-7.63l0.1-1.84v-0.14c-0.02-0.07-0.06-0.03-0.1,0.1
		c0,0.02-0.01,0.05-0.03,0.07l-0.94,2.67c-0.72,1.94-1.18,3.17-1.39,3.68c-2.15,5.25-4.41,9.97-6.77,14.16
		c-0.83,1.41-1.63,2.56-2.39,3.44c-0.79,0.86-1.59,1.39-2.43,1.6c-1.07,0.28-2.12,0.09-3.16-0.56c-1.32-0.86-2.19-2.3-2.6-4.34
		c-0.25-1.3-0.38-2.68-0.38-4.16c0-0.81,0.02-1.65,0.07-2.52c0.05-0.87,0.11-1.83,0.19-2.88c0.08-1.05,0.13-1.86,0.16-2.41
		l0.56-7.67c0.14-0.25,0.23-0.71,0.28-1.35c0.05-0.65,0.08-1.5,0.1-2.55s0.07-1.9,0.14-2.55c0.14-1.53,0.42-2.68,0.85-3.47
		c0.43-0.79,1.07-1.03,1.93-0.73c0.3,0.09,0.53,0.28,0.68,0.57c0.15,0.29,0.2,0.59,0.16,0.92c-0.72,3.93-1.3,9.65-1.73,17.14
		c-0.23,4.86-0.31,7.77-0.24,8.75c0.14,1.74,0.38,2.95,0.73,3.65c0.16,0.42,0.41,0.73,0.75,0.94c0.34,0.21,0.6,0.28,0.78,0.21
		c0.42,0,1.18-0.84,2.29-2.53c0.58-0.88,1.31-2.14,2.19-3.78c1.27-2.41,2.55-5.11,3.82-8.12c1.16-2.71,2.21-5.53,3.16-8.47
		l0.52-1.53l0.55-1.84l0.59-2.01c0.07-0.18,0.18-0.41,0.33-0.68c0.15-0.27,0.26-0.47,0.33-0.61c0.02-0.07,0.07-0.17,0.16-0.31
		c0.08-0.14,0.13-0.23,0.16-0.28l0.24-0.24l0.49-0.49c0.25-0.18,0.59-0.23,1.01-0.14c0.28,0.09,0.57,0.27,0.87,0.52
		c0.39,0.37,0.74,1.01,1.04,1.91C179.78,179.94,179.93,181.07,180,182.48z M170.18,215.31c1.13-1.04,2.16-3.01,3.09-5.9
		c0.02-0.07,0.05-0.18,0.09-0.33c0.04-0.15,0.06-0.26,0.09-0.33c-1.8,0.21-3.42,0.94-4.86,2.19c-0.83,0.72-1.46,1.51-1.87,2.39
		c-0.21,0.42-0.34,0.84-0.4,1.28c-0.06,0.44-0.03,0.73,0.09,0.87c0.21,0.42,0.76,0.62,1.66,0.62
		C168.78,216.2,169.49,215.93,170.18,215.31z"/>
</g>
</svg>
