<?xml version="1.0" encoding="utf-8"?>
<!-- Generator: Adobe Illustrator 23.0.1, SVG Export Plug-In . SVG Version: 6.00 Build 0)  -->
<svg version="1.1" id="Layer_1" xmlns="http://www.w3.org/2000/svg" xmlns:xlink="http://www.w3.org/1999/xlink" x="0px" y="0px"
	 viewBox="0 0 180 116.11" style="enable-background:new 0 0 180 116.11;" xml:space="preserve">
<style type="text/css">
	.st0{fill:#ED3393;}
	.st1{fill:#00BEF3;}
	.st2{fill:#EDEDEE;}
	.st3{fill:#00BEF3;stroke:#00BEF3;stroke-miterlimit:10;}
	.st4{fill:#9FDDF9;}
	.st5{fill:#ED3393;stroke:#ED3393;stroke-miterlimit:10;}
	.st6{fill:#F49AC1;}
	.st7{fill:#F5F3B6;}
	.st8{fill:#FFFFFF;}
	.st9{fill:#ED3393;stroke:#ED3393;stroke-width:0.5;stroke-miterlimit:10;}
	.st10{fill:#FEE186;stroke:#FEE186;stroke-width:0.5;stroke-miterlimit:10;}
	.st11{fill:#00BEF3;stroke:#00BEF3;stroke-width:0.5;stroke-miterlimit:10;}
	.st12{fill:#FBD511;}
	.st13{opacity:0.59;}
	.st14{opacity:0.59;fill:#FBD511;}
	.st15{opacity:0.33;fill:#FBD511;}
	.st16{fill:#DFF3FD;}
	.st17{fill:#FFD034;}
	.st18{fill:none;}
</style>
<g>
	<g>
		<g>
			<path class="st1" d="M37.73,98.69c0.45-0.39,1.45-1.04,2.18-1.92c4.83-5.78,2.35-11.74-3.6-15.62c-2.93-1.91-5.99-3.71-8.28-6.41
				c-2.87-3.37-3.17-7.62-3.67-11.79c-0.46-3.92-1.43-7.71-4.35-10.54c-5.13-4.98-12.7-3.76-16.42,2.45
				c-2.21,3.7-3.21,7.8-3.42,11.97c-0.4,7.9-0.32,15.82,2.16,23.46c1.05,3.23,2.13,6.49,4.45,9.12c2.95,3.33,6.73,5.05,11.11,5.03
				C24.82,104.4,31.47,103.2,37.73,98.69z"/>
			<path class="st1" d="M76.97,92.04c4.4-3.34,8.11-7.35,10.76-12.27c2.79-5.18,2.35-10.3-0.75-15.19
				c-3.34-5.27-7.99-9.19-13.03-12.8c-3.55-2.54-7.26-4.7-11.15-6.6c-3.52-1.72-7.29-2.55-11.24-2.42
				C44.07,43,39.58,49.8,42.18,56.82c1.07,2.89,3.09,4.95,5.35,6.86c2.12,1.79,4.33,3.46,6.33,5.44c3.11,3.08,3.6,6.86,3.85,10.85
				c0.19,3.08,0.21,6.17,1.12,9.19c1.34,4.49,6.14,7.38,10.75,6.24c1.43-0.35,2.86-0.78,4.19-1.37
				C74.88,93.53,75.87,92.73,76.97,92.04z"/>
			<path class="st1" d="M42.02,107.43c1.59,2.4,3.67,3.98,6.72,3.69c2.81-0.26,4.66-1.94,5.31-4.68c1.12-4.78-3.22-10.32-8.13-10.39
				c-4.69-0.06-7.45,5.17-5.09,9.66C41.14,106.33,41.61,106.86,42.02,107.43z"/>
			<path class="st1" d="M66.7,109.32c2.28,3.19,5.2,4.24,8.1,3.03c2.79-1.17,4.13-4.18,3.45-7.79c-0.48-2.55-1.7-4.65-3.9-6.08
				c-2-1.29-4.16-1.7-6.38-0.6c-2.18,1.08-2.96,3.09-3.14,5.34C64.66,105.54,65.29,107.66,66.7,109.32z"/>
			<path class="st1" d="M30.52,112.19c1.7,2.45,4.87,3.38,6.84,1.99c2.29-1.62,2.61-5.5,0.67-8.19c-1.73-2.4-4.56-3.13-6.67-1.74
				C29.11,105.73,28.7,109.56,30.52,112.19z"/>
			<path class="st1" d="M86.75,94.03c-1.29-1.61-2.94-2.87-5.4-2.39c-2.38,0.47-3.68,2.28-3.45,4.7c0.21,2.24,1.45,3.92,3.09,5.23
				c1.64,1.32,4.28,1.2,5.62,0.01c1.62-1.44,2.04-4,0.99-6.19C87.41,94.98,87.12,94.61,86.75,94.03z"/>
			<path class="st1" d="M86.31,91c1.84,2.61,4.52,3.25,6.78,1.61c1.87-1.35,2.05-3.5,0.49-5.73c-1.63-2.33-4.86-3.08-6.97-1.63
				C84.81,86.51,84.7,88.71,86.31,91z"/>
			<path class="st1" d="M20.91,113.98c1.55,2.23,3.19,2.7,5.04,1.44c2.26-1.55,2.73-4.98,1.03-7.43c-1.47-2.13-3.53-2.63-5.31-1.29
				C19.53,108.3,19.2,111.51,20.91,113.98z"/>
			<path class="st1" d="M17.74,107.12c-0.9-1.3-3.06-1.74-4.32-0.88c-1.87,1.27-2.5,4.9-1.11,6.66c1.26,1.59,2.85,1.32,4.31,0.42
				C18.51,112.16,19.02,108.95,17.74,107.12z"/>
			<path class="st1" d="M96.83,79.22c-1.47-2.13-3.8-2.59-5.88-1.17c-1.65,1.13-2.03,2.9-0.82,4.39c1.15,1.42,4.26,2.58,6.07,1.14
				C97.87,82.25,98.14,81.12,96.83,79.22z"/>
			<path class="st1" d="M96.91,74.96c1.22-0.89,1.54-2.14,0.52-3.64c-0.97-1.43-3.76-1.91-5.23-0.78c-1.22,0.94-1.69,2.15-0.65,3.61
				C92.71,75.78,95.02,76.23,96.91,74.96z"/>
			<path class="st1" d="M8.44,109.63c2.19-1.64,2.68-4.03,1.5-5.49c-1.21-1.51-2.61-1.06-3.88-0.16c-1.55,1.1-1.83,3.48-0.72,4.95
				C6.42,110.36,7.65,110.19,8.44,109.63z"/>
		</g>
	</g>
	<g>
		<path class="st0" d="M141.95,17.57c-0.45,0.39-1.46,1.05-2.2,1.94c-4.87,5.82-2.36,11.84,3.63,15.75
			c2.95,1.93,6.04,3.74,8.35,6.46c2.89,3.4,3.2,7.69,3.7,11.88c0.47,3.95,1.44,7.77,4.39,10.63c5.17,5.02,12.81,3.79,16.55-2.47
			c2.23-3.73,3.23-7.86,3.45-12.07c0.41-7.96,0.32-15.95-2.18-23.65c-1.06-3.26-2.15-6.55-4.49-9.19c-2.97-3.36-6.78-5.09-11.2-5.07
			C154.98,11.81,148.27,13.02,141.95,17.57z"/>
		<path class="st0" d="M102.39,24.27c-4.43,3.37-8.18,7.42-10.85,12.37c-2.82,5.22-2.37,10.38,0.76,15.31
			c3.37,5.32,8.06,9.26,13.14,12.91c3.57,2.56,7.32,4.74,11.24,6.66c3.55,1.74,7.35,2.57,11.34,2.44
			c7.55-0.24,12.08-7.09,9.46-14.18c-1.08-2.91-3.11-4.99-5.39-6.92c-2.14-1.81-4.36-3.49-6.38-5.48c-3.14-3.1-3.63-6.91-3.88-10.94
			c-0.19-3.11-0.22-6.22-1.13-9.27c-1.35-4.53-6.19-7.45-10.84-6.29c-1.44,0.36-2.88,0.78-4.23,1.38
			C104.49,22.77,103.49,23.57,102.39,24.27z"/>
		<path class="st0" d="M137.63,8.76c-1.6-2.42-3.7-4.01-6.77-3.72c-2.83,0.26-4.7,1.95-5.35,4.72c-1.13,4.82,3.24,10.41,8.2,10.48
			c4.72,0.06,7.52-5.21,5.13-9.74C138.52,9.87,138.04,9.33,137.63,8.76z"/>
		<path class="st0" d="M112.74,6.85c-2.3-3.22-5.25-4.27-8.17-3.05c-2.81,1.18-4.16,4.21-3.47,7.86c0.48,2.57,1.71,4.69,3.93,6.13
			c2.02,1.3,4.19,1.72,6.43,0.6c2.2-1.09,2.99-3.11,3.16-5.38C114.8,10.67,114.17,8.52,112.74,6.85z"/>
		<path class="st0" d="M149.22,3.95c-1.71-2.47-4.91-3.41-6.9-2.01c-2.31,1.63-2.63,5.54-0.67,8.26c1.74,2.42,4.59,3.16,6.73,1.75
			C150.65,10.47,151.06,6.61,149.22,3.95z"/>
		<path class="st0" d="M92.53,22.27c1.3,1.62,2.97,2.9,5.44,2.41c2.4-0.47,3.71-2.3,3.48-4.74c-0.21-2.26-1.46-3.95-3.12-5.28
			c-1.66-1.33-4.32-1.21-5.67-0.01c-1.64,1.45-2.06,4.04-1,6.24C91.86,21.31,92.16,21.68,92.53,22.27z"/>
		<path class="st0" d="M92.97,25.33c-1.86-2.63-4.56-3.27-6.83-1.63c-1.88,1.36-2.07,3.53-0.49,5.77c1.64,2.34,4.9,3.1,7.02,1.64
			C94.48,29.85,94.6,27.63,92.97,25.33z"/>
		<path class="st0" d="M158.91,2.15c-1.56-2.25-3.22-2.73-5.08-1.45c-2.28,1.57-2.76,5.02-1.04,7.49c1.49,2.15,3.56,2.65,5.36,1.3
			C160.31,7.88,160.64,4.65,158.91,2.15z"/>
		<path class="st0" d="M162.11,9.07c0.91,1.31,3.09,1.75,4.36,0.89c1.88-1.28,2.52-4.94,1.12-6.72c-1.27-1.61-2.87-1.33-4.35-0.42
			C161.34,3.99,160.82,7.22,162.11,9.07z"/>
		<path class="st0" d="M82.36,37.2c1.48,2.15,3.83,2.61,5.93,1.18c1.66-1.14,2.04-2.92,0.83-4.43c-1.16-1.44-4.3-2.6-6.12-1.15
			C81.32,34.14,81.04,35.28,82.36,37.2z"/>
		<path class="st0" d="M82.28,41.5c-1.23,0.9-1.55,2.16-0.52,3.67c0.98,1.44,3.79,1.92,5.27,0.79c1.23-0.95,1.7-2.17,0.66-3.64
			C86.52,40.67,84.18,40.21,82.28,41.5z"/>
		<path class="st0" d="M171.49,6.54c-2.21,1.65-2.7,4.07-1.51,5.54c1.22,1.52,2.64,1.07,3.92,0.17c1.56-1.1,1.84-3.51,0.72-4.99
			C173.52,5.8,172.29,5.97,171.49,6.54z"/>
	</g>
	<g>
		<path d="M89.42,59.15c0.23,2.38,0.19,4.72-0.13,7c-0.26,1.65-0.53,3.14-0.82,4.47c-0.17,0.71-0.37,1.39-0.6,2.03
			c-0.29,0.76-0.65,1.42-1.08,2c-0.32,0.44-0.83,0.73-1.55,0.86c-0.17,0.04-0.53,0.06-1.08,0.06c-0.57,0.02-0.93,0.01-1.08-0.03
			c-1.09-0.14-1.92-0.46-2.5-0.95c-0.4-0.34-0.76-0.87-1.08-1.61c-0.4-0.99-0.65-2.1-0.73-3.31c-0.06-0.5-0.1-0.9-0.13-1.22
			c-0.09-0.79-0.13-1.25-0.13-1.37c-0.12-1.21-0.13-2.63-0.04-4.26c0.11-2.46,0.43-4.17,0.95-5.13c0.46-0.81,1.02-1.45,1.68-1.91
			c0.75-0.48,1.63-0.78,2.67-0.92c0.26-0.04,0.61-0.06,1.05-0.06c0.44,0,0.78,0.02,1.01,0.06c0.52,0.06,0.95,0.17,1.29,0.33
			c0.46,0.22,0.82,0.48,1.08,0.77c0.26,0.34,0.47,0.82,0.65,1.43c0.06,0.14,0.14,0.3,0.26,0.48C89.23,58.05,89.33,58.48,89.42,59.15
			z M87.01,62.34c0.03-0.89,0.01-1.41-0.04-1.53s-0.1-0.54-0.13-1.24c0-0.97-0.04-1.63-0.13-1.97c-0.17-0.52-0.47-0.91-0.9-1.19
			l-0.21-0.15l-0.21,0.27c-0.75,1.09-1.22,2.89-1.42,5.39c-0.06,0.76-0.09,2.31-0.09,4.66s0.03,3.79,0.09,4.31
			c0.14,1.37,0.37,2.33,0.69,2.89l0.21,0.18c0.06-0.04,0.13-0.12,0.21-0.24c0.66-0.83,1.15-2.48,1.46-4.95
			C86.85,66.45,87.01,64.31,87.01,62.34z"/>
		<path d="M105.68,57.66c0.11,0.52,0.12,1.15,0.02,1.89c-0.1,0.75-0.28,1.38-0.54,1.89c-0.32,0.66-0.5,1.01-0.56,1.07
			c-0.29,0.3-0.92,0.46-1.89,0.48c-0.4,0.02-0.77,0-1.1-0.04c-0.33-0.05-0.6-0.12-0.8-0.22c-0.2-0.1-0.3-0.21-0.3-0.33
			c0-0.04,0.06-0.15,0.17-0.33c0.09-0.2,0.14-0.37,0.17-0.51c0.06-0.12,0.11-0.27,0.17-0.45c0.14-0.5,0.24-1.1,0.3-1.82
			c0.03-0.67,0.01-1.23-0.04-1.67l-0.04-0.12l-0.13,0.15c-0.4,0.48-0.82,1.25-1.25,2.32c-0.34,0.76-0.6,1.46-0.77,2.12
			c-0.66,2.25-1.15,4.9-1.46,7.96c-0.12,0.99-0.14,1.95-0.09,2.86c0.03,0.83,0.06,1.3,0.09,1.4c0.06,0.24,0.06,0.41,0,0.51
			c-0.12,0.2-0.49,0.37-1.12,0.51c-0.63,0.16-1.31,0.2-2.02,0.12c-0.89-0.08-1.43-0.26-1.63-0.54c-0.06-0.08-0.1-0.24-0.13-0.49
			c-0.03-0.25-0.06-0.5-0.09-0.76c-0.06-0.36-0.09-0.63-0.09-0.8c-0.03-0.24-0.06-0.43-0.09-0.57c-0.09-0.58-0.13-3.12-0.13-7.63
			c0.03-2.09,0.01-3.52-0.04-4.29c-0.06-1.99,0.01-3.49,0.21-4.5c0.03-0.28,0.13-0.48,0.3-0.6c0.17-0.12,0.47-0.22,0.9-0.3
			c0.92-0.18,1.73-0.14,2.45,0.12c0.34,0.12,0.56,0.38,0.65,0.78c0.14,0.68,0.24,1.94,0.3,3.79c0.03,1.11,0.06,1.82,0.09,2.12
			c0,0.3,0.01,0.58,0.04,0.83v0.3l0.04-0.21c0.03-0.1,0.11-0.48,0.26-1.13c0.14-0.79,0.33-1.57,0.56-2.33
			c0.32-0.97,0.59-1.7,0.82-2.17c0.23-0.5,0.56-0.89,0.99-1.19c0.46-0.34,1.15-0.52,2.06-0.54c0.57-0.02,1.06,0.02,1.46,0.12
			c0.54,0.12,1.02,0.36,1.42,0.72C105.26,56.57,105.54,57.07,105.68,57.66z"/>
	</g>
</g>
</svg>
