<?xml version="1.0" encoding="utf-8"?>
<!-- Generator: Adobe Illustrator 17.0.0, SVG Export Plug-In . SVG Version: 6.00 Build 0)  -->
<!DOCTYPE svg PUBLIC "-//W3C//DTD SVG 1.1//EN" "http://www.w3.org/Graphics/SVG/1.1/DTD/svg11.dtd">
<svg version="1.1" id="Layer_1" xmlns="http://www.w3.org/2000/svg" xmlns:xlink="http://www.w3.org/1999/xlink" x="0px" y="0px"
	 width="180px" height="116.866px" viewBox="10 41.567 180 116.866" enable-background="new 10 41.567 180 116.866"
	 xml:space="preserve">
<path fill="#004C7A" d="M55.124,90.451c0,0,43.639-13.062,87.18,0v34.041h-87.18V90.451z"/>
<path fill="#00375F" d="M142.303,124.393c-4.156,3.859-19.494,3.266-43.639,3.266s-39.978-0.99-43.639-3.266
	c-3.463-2.177,19.494-7.422,43.639-7.422S145.371,121.622,142.303,124.393z"/>
<polygon fill="#00375F" points="101.237,41.567 10,89.56 101.237,128.846 190,85.206 "/>
<g>
	<path fill="#FFFFFF" d="M159.423,90.847c-4.156-20.088-54.722-18.9-55.316-18.802v-0.99c2.078-0.099,51.952-1.286,56.306,19.593
		L159.423,90.847z"/>
</g>
<g>
	<g>
		<rect x="158.235" y="100.841" width="4.453" height="6.135"/>
	</g>
	<g>
		<path d="M163.183,107.471h-5.443v-7.125h5.443V107.471z M158.73,106.482h3.463v-5.146h-3.463V106.482z"/>
	</g>
</g>
<path d="M157.048,94.805c0.198-0.891,0.396-1.682,0.693-2.573s0.99-1.286,1.88-1.484c0.594-0.198,1.286-0.099,1.781,0.297
	c0.594,0.495,0.693,1.286,0.99,1.979c0.396,0.693,0.99,1.286,1.385,1.979c0.495,0.792,0.594,1.781,0.594,2.672
	c0,0.792,0,1.682-0.495,2.375s-1.385,1.089-2.276,1.286c-1.089,0.198-2.177,0.099-3.167-0.396c-0.99-0.495-1.781-1.385-1.979-2.474
	c-0.198-0.99,0-2.078,0.297-3.167C156.949,95.201,156.949,95.003,157.048,94.805z"/>
<path d="M163.084,106.482l-5.245,0.198c0,0-1.187,46.311-3.365,51.754l3.068-0.594l0.198-3.167l1.089,3.76h2.87l0.594-3.463
	c0,0,0.594,2.87,1.286,3.463h0.99L163.084,106.482z M160.61,133.496c0,2.276-0.099,4.453-0.198,6.729
	c-0.297,4.453-0.495,8.906-0.891,13.359l0.594-13.359c0.099-2.177,0.198-4.453,0.297-6.729c0.099-2.276,0.099-4.453,0.099-6.729
	C160.709,128.944,160.61,131.22,160.61,133.496z M162.589,137.455c-0.099-6.333-0.297-12.666-0.297-19.098
	c0.297,6.333,0.396,12.666,0.594,19.098c0.099,6.333,0.297,12.666,0.297,19.098C162.886,150.22,162.787,143.887,162.589,137.455z"/>
<g>
	<path fill="#FFFFFF" d="M82.534,98.862c0.693,0.198,1.286,0.099,1.88-0.198c-1.187-2.573-1.484-5.245-1.682-7.916
		c-0.198-3.661-0.198-7.521-0.099-11.182c0-2.078,0.297-3.958,0.792-5.937c0-0.297,0.099-0.495,0.198-0.693
		c0.495-1.484,1.484-1.979,2.771-1.385c0.396,0.099,0.396,0.198,0.693,0.891c0.099-0.099,0.297-0.099,0.495-0.099
		c1.286-0.396,2.672-0.693,4.057-0.396c0.99,0.198,1.781,0.693,2.573,1.484c1.286,1.484,1.979,3.364,2.276,5.443
		c0.396,3.364-0.198,6.432-1.286,9.599c-0.891,2.573-2.177,4.948-3.661,7.125c-0.891,1.484-2.078,2.771-3.463,3.859
		c-1.089,0.891-2.375,1.187-3.661,1.385c-0.792,0-1.286-0.396-1.682-1.187C82.534,99.456,82.534,99.159,82.534,98.862z
		 M86.097,97.378c0.297,0.099,0.495-0.099,0.594-0.396c0.594-0.792,1.187-1.484,1.781-2.276c2.573-4.156,4.354-8.708,5.739-13.656
		c0.396-1.385,0.594-2.87,0.495-4.354c-0.099-1.88-0.99-2.87-2.573-3.167c-1.781-0.297-3.463,0-5.146,0.495l-0.099,0.495
		c-0.099,1.484-0.297,2.969-0.495,4.453c-0.396,3.562-0.792,7.026-0.693,10.588C85.701,92.232,85.899,94.805,86.097,97.378z"/>
	<path fill="#FFFFFF" d="M114.893,82.732c-1.484,1.88-3.463,2.177-5.64,1.583c-0.099,0.891-0.099,1.781-0.297,2.672
		c-0.099,0.891-0.297,1.781-0.594,2.672c-0.099,0.396-0.297,0.792-0.495,1.089c-1.385,2.771-4.849,2.969-6.531,0.495
		c-0.594-0.792-0.891-1.682-0.891-2.573c0-2.078,0.594-4.057,1.781-5.739c0.099-0.198,0.297-0.495,0.594-0.594
		c0.792-0.594,1.583-0.594,2.474-0.198c0.198,0.099,0.495,0.198,0.297,0.495c-0.693,1.089-0.891,2.474-1.089,3.661
		c-0.198,0.99-0.495,1.979-0.594,3.068c0,0.693,0,1.385,0.198,1.979c0.198,0.792,0.594,0.891,1.187,0.396
		c0.594-0.396,1.089-0.891,1.385-1.583c0.891-1.88,1.286-3.859,1.286-5.937c0-0.396-0.198-0.693-0.495-0.99
		c-0.297-0.297-0.594-0.792-0.891-1.089c-0.297-0.495,0-0.792,0.495-0.792c0.396,0,0.792,0.198,0.99,0.495
		c0.198,0.297,0.396,0.594,0.594,0.891c0.099,0.396,0.396,0.693,0.792,0.891c1.089,0.495,2.177,0.297,3.167-0.396
		c0.297-0.198,0.495-0.396,0.891-0.693C114.101,82.238,114.398,82.336,114.893,82.732z"/>
	<path fill="#FFFFFF" d="M135.08,84.81v0.297c-0.891,2.573-1.682,5.344-2.969,7.817c-0.198,0.396-0.594,0.891-0.891,1.187
		c-0.396,0.495-0.99,0.594-1.583,0.396c-0.792-0.297-1.385-0.891-1.781-1.583c-0.495-0.891-0.792-1.979-0.792-2.969
		c-0.099-2.573,0-3.364,0.297-5.838c0.198-1.583,0.396-3.266,0.594-4.849v-0.297c0-0.693-0.396-0.891-0.99-0.594
		c-0.297,0.198-0.594,0.495-0.891,0.891c-2.276,2.573-3.463,5.64-5.443,12.963c-0.099,0.594-0.495,0.891-0.891,1.187
		c-0.198,0.198-0.792,0.198-1.089,0.198c-0.495,0-0.891-0.297-1.089-0.792c-0.099-0.297-0.297-0.693-0.396-0.99
		c-0.792-3.76-0.891-7.422,0.198-11.182l0.396-1.089c0.198-0.396,0.594-0.693,0.99-0.693s0.891,0,1.187,0.099
		c0.594,0.099,0.99,0.594,0.99,1.187c0.099,0.495,0.099,1.089,0.099,1.682c-0.099,1.187-0.198,2.276-0.297,3.463
		c0,0.297,0,0.594,0,0.792h0.099c0.693-2.87,3.364-8.312,5.739-8.708c0.693-0.099,1.286,0,1.781,0.495
		c2.276,1.979,1.682,5.838,1.286,12.073c-0.099,0.891,0,1.88,0,2.87c0,0.099,0.099,0.297,0.198,0.594
		c0.198-0.198,0.495-0.396,0.594-0.693c0.297-0.594,0.693-1.187,0.891-1.88c0.693-1.88,1.286-3.859,1.88-5.838l0.297-0.891
		c0.198-0.495,0.396-0.495,0.891-0.396C135.08,84.118,135.179,84.415,135.08,84.81z"/>
	<path fill="#FFFFFF" d="M145.173,86.789c-0.594,1.781-1.286,3.463-2.672,4.651c-0.594,0.594-1.286,0.693-1.979,0.495
		c-1.781-0.396-2.969-1.385-3.463-3.167c-0.594-2.078-0.297-4.057,0.792-5.838c0.495-0.891,1.187-1.484,2.078-1.88
		c0.495-0.297,1.089-0.297,1.682-0.099c0.693,0.198,1.089,0.693,0.99,1.484c-0.099,1.484-0.99,2.573-2.177,3.266
		c-0.495,0.297-0.693,0.495-0.693,0.99c0,0.99,0,1.979,0,2.969c0,0.891,0.792,1.88,1.781,1.385c1.385-0.891,1.88-1.682,2.87-3.958
		C144.579,86.493,144.48,86.493,145.173,86.789z M140.126,84.81c0.792-0.693,1.286-1.286,1.583-2.177
		c0.099-0.297,0.198-0.693-0.099-0.891C140.819,82.336,140.126,83.722,140.126,84.81z"/>
</g>
<g>
	<path fill="#FFFFFF" d="M71.056,81.545c-0.495,0.099-0.99,0.198-1.583,0.198c-1.187,0.099-1.187,0.099-1.385,1.286
		c-0.198,1.187-0.495,2.375-0.693,3.562c0,0.198-0.099,0.495-0.099,0.693c0.396,0.099,0.792,0,1.286,0c0.198,0,0.495,0,0.693,0
		c0.693-0.099,0.99,0.297,1.286,0.891c-0.594,0.198-1.187,0.198-1.781,0.297c-0.396,0.099-0.792,0.099-1.187,0.099
		c-0.594,0.099-0.594,0.099-0.693,0.693c-0.198,0.792-0.396,1.682-0.495,2.474c-0.297,1.089-0.495,2.177-0.693,3.364
		c-0.099,0.792-0.594,1.385-0.891,2.078c-0.099,0.297-0.396,0.297-0.693,0.297c-0.297,0-0.495-0.198-0.594-0.495
		c-0.396-1.089-0.396-2.177-0.198-3.266c0.297-1.484,0.495-2.87,0.693-4.354c0.099-0.495,0.099-0.495-0.396-0.495
		c-0.396,0-0.792,0.099-1.187,0.099c-0.396,0-0.495,0.198-0.594,0.495c-0.198,1.089-0.396,2.177-0.693,3.167
		c-0.198,0.792-0.297,1.484-0.495,2.276c-0.099,0.297-0.099,0.594-0.297,0.792c-0.297,0.792-0.891,0.99-1.682,0.792
		c-0.198-0.099-0.297-0.198-0.396-0.495c-0.198-0.495-0.099-0.99,0-1.583c0.297-1.682,0.594-3.266,0.891-4.948
		c0-0.099,0.099-0.297,0-0.495c-0.594-0.099-1.089,0-1.682,0c-0.297,0-0.693-0.099-0.891-0.297
		c-0.198-0.198-0.099-0.396,0.099-0.396c0.693-0.099,1.385-0.198,2.177-0.297c0.396,0,0.594-0.099,0.693-0.495
		c0.099-0.594,0.198-1.187,0.297-1.781c0.198-1.187,0.396-2.375,0.693-3.661c-0.396-0.099-0.693,0-0.99-0.099
		c-0.297,0-0.693,0-0.99,0c-0.099,0-0.198,0-0.297,0c-0.297,0-0.495-0.198-0.495-0.495c0-0.198,0.297-0.297,0.495-0.297
		c0.693-0.099,1.385-0.198,1.979-0.297c0.594-0.099,0.495-0.099,0.594-0.594c0.396-1.979,0.792-3.958,1.286-5.838
		c0.099-0.297,0.198-0.594,0.297-0.891c0.297-0.891,0.396-0.99,1.385-0.99c0.297,0,0.594,0,0.891,0.099
		c0.396,0.099,0.495,0.198,0.495,0.594c0,0.693-0.198,1.385-0.297,2.078c-0.396,1.583-0.693,3.068-1.089,4.651
		c0,0.198-0.099,0.297-0.099,0.594c1.583,0.099,1.583,0.099,1.88-1.385c0.396-1.88,0.792-3.76,1.484-5.64
		c0.099-0.297,0.198-0.495,0.297-0.792c0.198-0.297,0.198-0.693,0.594-0.792c0.495-0.099,0.99-0.198,1.484,0
		c0.297,0.099,0.297,0.396,0.297,0.693c0,0.693-0.198,1.385-0.297,2.177c-0.297,1.781-0.594,3.562-0.891,5.443
		c0,0.099,0,0.099,0,0.198c0.594,0.099,1.286,0.099,1.88,0.099c0.396,0,0.594,0.099,0.792,0.396
		C71.253,81.347,71.253,81.545,71.056,81.545z M65.118,82.04c-0.396,0-0.792,0-1.187,0c-0.396,0-0.495,0.198-0.594,0.495
		c-0.198,1.089-0.495,2.276-0.693,3.364c-0.099,0.594-0.297,1.187-0.297,1.88c0.594,0.099,1.089-0.099,1.682-0.099
		c0.297,0,0.396-0.198,0.396-0.396c0.099-0.693,0.198-1.286,0.297-1.979C64.821,84.217,64.92,83.227,65.118,82.04z"/>
</g>
</svg>
