<?xml version="1.0" encoding="utf-8"?>
<!-- Generator: Adobe Illustrator 17.0.0, SVG Export Plug-In . SVG Version: 6.00 Build 0)  -->
<!DOCTYPE svg PUBLIC "-//W3C//DTD SVG 1.1//EN" "http://www.w3.org/Graphics/SVG/1.1/DTD/svg11.dtd">
<svg version="1.1" id="Layer_1" xmlns="http://www.w3.org/2000/svg" xmlns:xlink="http://www.w3.org/1999/xlink" x="0px" y="0px"
	 width="167.419px" height="180px" viewBox="16.29 10 167.419 180" enable-background="new 16.29 10 167.419 180"
	 xml:space="preserve">
<path fill="#F2D6BC" d="M160.121,173.548c0.242-0.121,0.484-0.363,0.726-0.484c0.121-0.121,0.242-0.121,0.363-0.242
	c0.242-0.242,0.484-0.363,0.726-0.605c0.121-0.121,0.242-0.121,0.242-0.242c0.363-0.363,0.726-0.605,1.089-0.968L160,108.589
	l5.202-62.298c-0.363-0.363-0.726-0.726-1.089-1.089c-0.121-0.121-0.242-0.242-0.363-0.242c-0.242-0.242-0.484-0.484-0.726-0.605
	c-0.121-0.121-0.242-0.242-0.363-0.242c-0.242-0.242-0.484-0.363-0.726-0.484c-0.121-0.121-0.242-0.121-0.363-0.242
	c-0.242-0.121-0.605-0.363-0.847-0.484c-0.121,0-0.121-0.121-0.242-0.121l0,0c-9.919-4.718-22.5,3.145-22.5,3.145l4.718,62.419
	l-6.653,62.298c0,0,12.702,8.468,22.742,3.629l0,0h0.121c0.242-0.121,0.484-0.242,0.847-0.484
	C160,173.669,160.121,173.548,160.121,173.548z"/>
<path fill="#FBB042" d="M138.226,106.169L138.226,106.169c-2.177-1.935-0.605-5.565,2.298-5.323l0,0
	c1.815,0.121,3.387-1.331,3.266-3.145l0,0c-0.121-2.903,3.508-4.355,5.444-2.177l0,0c1.21,1.331,3.387,1.452,4.597,0.121l0,0
	c1.935-2.177,5.565-0.605,5.323,2.298l0,0c-0.121,1.815,1.331,3.387,3.145,3.266l0,0c2.903-0.121,4.355,3.508,2.177,5.444l0,0
	c-1.331,1.21-1.452,3.387-0.121,4.597l0,0c2.177,1.935,0.605,5.565-2.298,5.323l0,0c-1.815-0.121-3.387,1.331-3.266,3.145l0,0
	c0.121,2.903-3.508,4.355-5.444,2.177l0,0c-1.21-1.331-3.387-1.452-4.597-0.121l0,0c-1.936,2.177-5.565,0.605-5.323-2.298l0,0
	c0.121-1.815-1.331-3.387-3.145-3.266l0,0c-2.903,0.121-4.355-3.508-2.177-5.444l0,0C139.556,109.556,139.556,107.5,138.226,106.169
	z"/>
<path fill="#C71940" d="M164.445,110.747l-1.423-0.362c0.066-0.47,0.114-0.946,0.123-1.433c0.019-0.485-0.005-0.965-0.048-1.442
	l3.677-0.735l16.935-3.629l-6.774-2.54l3.75-6.169l-15.847,5.685l-4.115,1.44c-0.264-0.333-0.543-0.654-0.845-0.956
	c-2.177-2.177-5.081-3.508-8.226-3.508c-0.121,0-0.121,0-0.242,0c-6.29,0-11.492,5.081-11.613,11.492
	c-0.121,3.145,1.089,6.169,3.266,8.347s5.081,3.508,8.226,3.508c0.121,0,0.121,0,0.242,0c3.541,0,6.737-1.61,8.876-4.162
	l19.793,7.791l-3.629-6.29l7.016-2.298L164.445,110.747z M151.653,114.395h-0.121c-1.573,0-2.903-0.605-3.992-1.694
	c-1.089-1.089-1.573-2.54-1.573-3.992c0-3.145,2.54-5.565,5.565-5.565c1.573,0.121,3.024,0.726,4.113,1.694
	c1.089,1.089,1.573,2.54,1.573,3.992C157.218,111.976,154.677,114.395,151.653,114.395z"/>
<g>
	<path d="M74.476,13.508c-0.363,0-0.968,0-1.573-0.121l-1.573-0.242c-0.121,1.815-0.242,3.629-0.242,5.202c0,0.484,0,0.968,0,1.694
		s0,1.21,0,1.694c0,0.605,0,1.089-0.121,1.573h3.024c0.242,0,0.484,0.121,0.726,0.242c0.242,0.121,0.242,0.363,0.242,0.726
		c0,0.242-0.121,0.484-0.242,0.726s-0.363,0.242-0.726,0.242s-0.847,0-1.573,0s-1.21,0-1.573,0s-1.089,0-1.815,0.121
		c-0.726,0.121-1.452,0.121-1.935,0.121c-0.242,0-0.484-0.121-0.726-0.242c-0.242-0.121-0.242-0.363-0.242-0.726
		c0-0.363,0.121-0.484,0.242-0.726c0.121-0.242,0.363-0.242,0.726-0.242c0.363,0,1.089-0.121,2.056-0.242
		c0.121-0.484,0.121-1.089,0.121-1.694c0-0.484,0-0.968-0.121-1.573s-0.121-1.21-0.121-1.573c0-1.452,0.121-3.266,0.242-5.444h-1.21
		h-1.21c-0.242,0-0.484-0.121-0.726-0.242c-0.242-0.121-0.242-0.363-0.242-0.726c0-0.605,0.242-0.968,0.847-0.968
		c0.484,0,1.452-0.121,2.903-0.121c1.21,0,2.782,0.121,4.718,0.363c0.605,0.121,0.847,0.363,0.847,0.968
		c0,0.242-0.121,0.484-0.363,0.726C74.96,13.387,74.718,13.508,74.476,13.508z"/>
	<path d="M82.581,11.935c-1.573,0-2.419,1.089-2.54,3.145v0.605c1.089-0.121,1.815-0.121,2.056-0.121
		c0.968,0,1.452,0.363,1.452,0.968c0,0.484-0.242,0.726-0.726,0.847c-0.242,0-0.484,0-0.726,0c-0.242,0-0.968,0-2.177,0.121
		l-0.121,2.177c0,0.363,0,0.968,0,1.815c0,0.847,0,1.331,0,1.694c0,1.21-0.121,2.177-0.242,2.782
		c-0.121,0.484-0.363,0.726-0.847,0.726c-0.242,0-0.484-0.121-0.605-0.242c-0.121-0.121-0.242-0.363-0.242-0.605
		c0,0,0-0.121,0-0.242c0.121-0.847,0.242-1.694,0.242-2.661v-2.54v-2.782c-0.847,0.121-1.331,0.121-1.452,0.121
		c-0.605,0-0.968-0.363-0.968-0.968s0.605-0.968,1.694-0.968h0.968c0-0.363,0.121-0.847,0.121-1.452
		c0.121-1.452,0.484-2.419,1.089-3.145C80.161,10.363,81.25,10,82.581,10c0.847,0,1.331,0.363,1.331,0.968
		C83.79,11.694,83.306,11.935,82.581,11.935z"/>
	<path d="M97.702,16.895l-3.266,7.016c-0.847,1.694-1.452,3.145-1.815,4.355l-0.605,1.815c-0.121,0.484-0.484,0.726-0.847,0.726
		c-0.242,0-0.484-0.121-0.726-0.242c-0.242-0.121-0.242-0.363-0.242-0.605c0-0.605,0.726-2.419,2.056-5.444l-3.387-6.532
		l-0.484-0.726c-0.121-0.242-0.242-0.484-0.242-0.726c0-0.242,0.121-0.484,0.242-0.726c0.121-0.242,0.363-0.242,0.726-0.242
		c0.242,0,0.484,0.121,0.726,0.363c1.089,1.452,2.177,3.629,3.508,6.411l1.452-3.266c0.484-1.089,0.968-2.056,1.452-2.903
		c0.242-0.363,0.484-0.484,0.847-0.484c0.242,0,0.484,0.121,0.726,0.242c0.242,0.121,0.242,0.363,0.242,0.605
		C97.823,16.532,97.823,16.653,97.702,16.895z"/>
	<path d="M101.935,25.847c-1.089,0-1.935-0.363-2.782-1.21c-0.847-0.847-1.331-2.056-1.331-3.508s0.363-2.661,1.089-3.75
		c0.847-1.331,2.056-1.935,3.629-1.935c1.21,0,2.177,0.605,2.903,1.694c0.484,0.968,0.726,2.056,0.726,3.387
		c0,1.452-0.363,2.54-1.089,3.629C104.355,25.242,103.266,25.847,101.935,25.847z M102.54,17.379c-0.968,0-1.694,0.484-2.177,1.331
		c-0.363,0.726-0.605,1.573-0.605,2.419c0,0.847,0.242,1.573,0.726,2.177c0.363,0.363,0.847,0.605,1.452,0.605
		c0.605,0,1.21-0.242,1.694-0.726c0.484-0.484,0.847-1.21,0.847-2.177C104.597,18.589,103.871,17.379,102.54,17.379z"/>
	<path d="M115.121,19.798c0,0.484,0,1.089,0,2.056c0,0.968,0,1.573,0,2.056c0,0.121,0,0.363,0,0.605c0,0.242,0,0.484,0,0.605
		c0,0.242-0.121,0.484-0.242,0.726s-0.363,0.242-0.726,0.242c-0.484,0-0.847-0.242-0.968-0.847
		c-0.847,0.363-1.694,0.605-2.782,0.605c-0.847,0-1.452-0.242-2.056-0.605c-0.605-0.363-0.968-0.968-1.089-1.815
		c-0.242-1.694-0.363-3.145-0.363-4.476c0-0.847,0.121-1.815,0.242-2.903c0.121-0.605,0.363-0.847,0.847-0.847
		c0.242,0,0.484,0.121,0.726,0.242c0.242,0.121,0.242,0.363,0.242,0.726c0,0.242,0,0.726-0.121,1.331
		c-0.121,0.605-0.121,1.089-0.121,1.452c0,1.089,0,1.935,0.121,2.661c0.121,0.726,0.121,1.331,0.363,1.815
		c0.242,0.121,0.363,0.242,0.605,0.242c0.242,0,0.363,0.121,0.605,0.121c0.847,0,1.694-0.121,2.661-0.363v-1.935v-1.815
		c0-1.331,0-2.54,0.121-3.508c0.121-0.605,0.363-0.847,0.968-0.847c0.242,0,0.484,0.121,0.726,0.242
		c0.242,0.121,0.242,0.363,0.242,0.605L115.121,19.798z"/>
	<path d="M125.161,25.847c-1.331,0-2.419-0.363-3.266-1.21c-0.968-0.847-1.331-1.935-1.331-3.266c0-1.331,0.484-2.54,1.331-3.992
		c0.968-1.573,2.056-2.298,3.145-2.298c0.605,0,1.331,0.121,2.056,0.484c0.968,0.363,1.452,0.847,1.452,1.331
		c0,0.242-0.121,0.484-0.242,0.605s-0.363,0.242-0.605,0.242c-0.242,0-0.363,0-0.484-0.121s-0.242-0.242-0.363-0.363
		c-0.363-0.242-0.968-0.484-1.815-0.484c-0.605,0-1.331,0.605-1.935,1.694c-0.605,1.089-0.847,1.935-0.847,2.782
		c0,0.847,0.242,1.452,0.847,1.935c0.484,0.484,1.21,0.726,2.056,0.726c0.363,0,0.726-0.121,1.21-0.363l1.089-0.605
		c0.242-0.121,0.363-0.121,0.363-0.121c0.242,0,0.484,0.121,0.605,0.242c0.121,0.121,0.242,0.363,0.242,0.605
		c0,0.484-0.484,0.847-1.452,1.331C126.492,25.726,125.766,25.847,125.161,25.847z"/>
	<path d="M137.137,25.847c-0.121,0-0.363-0.121-0.605-0.363c-0.242-0.242-0.484-0.484-0.605-0.726
		c-0.605,0.363-1.089,0.605-1.573,0.726c-0.484,0.121-0.847,0.242-1.21,0.242c-1.452,0-2.54-0.363-3.266-1.21
		c-0.605-0.726-0.968-1.935-0.968-3.629c0-1.573,0.484-2.782,1.573-3.871c1.089-1.089,2.298-1.573,3.75-1.573
		c0.605,0,1.21,0.121,1.815,0.484c0.847,0.363,1.331,0.726,1.331,1.331c0,0.121-0.121,0.363-0.242,0.484
		c-0.121,0.242-0.121,0.605-0.121,1.21c0,0.605,0,1.21-0.121,2.056c0,0.726,0,1.452,0.121,1.815
		c0.121,0.242,0.242,0.847,0.605,1.694c0,0.121,0.121,0.242,0.242,0.484v0.121c0,0.242-0.121,0.484-0.242,0.605
		C137.5,25.847,137.379,25.847,137.137,25.847z M135.081,19.315c0-0.242,0-0.605,0-0.847s0.121-0.605,0.121-0.968
		c-0.242-0.121-0.484-0.242-0.605-0.242s-0.242-0.121-0.363-0.121c-0.968,0-1.815,0.363-2.54,1.21s-1.089,1.694-1.089,2.782
		c0,1.089,0.242,1.815,0.605,2.298c0.363,0.484,0.968,0.726,1.694,0.726c0.605,0,1.089-0.121,1.573-0.363
		c0.242-0.121,0.605-0.363,0.968-0.726C135.202,21.371,135.081,20.161,135.081,19.315z"/>
	<path d="M145.726,25.968c-0.484,0-0.847-0.242-0.968-0.847l-0.242-2.056c-0.121-0.726-0.121-1.452-0.121-2.056
		c0-0.121,0-0.484,0-0.847c0-0.363,0-0.726,0-0.847c0-1.331-0.242-2.056-0.726-2.056c-0.726,0-1.331,0.363-2.056,1.21
		c-0.605,0.726-1.089,1.694-1.331,2.903c0,0.242,0,0.605-0.121,0.968c0,0.363,0,0.605,0,0.968c0,0.242,0,0.484,0,0.847
		c0,0.363,0,0.605,0,0.847c0,0.242-0.121,0.484-0.242,0.726s-0.363,0.242-0.726,0.242c-0.242,0-0.484-0.121-0.726-0.242
		s-0.242-0.363-0.242-0.726c0-0.242,0-0.484-0.121-0.847c-0.121-0.363-0.121-0.605-0.121-0.847c0-0.605,0-1.573,0.121-2.661
		c0.121-1.089,0.121-2.056,0.121-2.661c0-0.242,0-0.484,0-0.847c0-0.363,0-0.726,0-0.847c0-0.242,0.121-0.484,0.242-0.726
		s0.363-0.242,0.726-0.242c0.605,0,0.847,0.363,0.968,1.21v1.089c1.089-1.452,2.177-2.177,3.266-2.177
		c0.968,0,1.694,0.484,2.056,1.331c0.242,0.605,0.363,1.452,0.484,2.661v0.968v0.847c0,0.484,0.121,1.21,0.242,2.056
		s0.242,1.452,0.242,2.056c0,0.242-0.121,0.484-0.242,0.726S145.968,25.968,145.726,25.968z"/>
	<path d="M18.831,42.661c0-3.145-0.121-6.29,0-9.435c0-0.484,0.121-1.089,0.242-1.573c0.121-0.242,0.242-0.484,0.605-0.484
		c0.726,0,1.573,0,2.298,0.121c0.484,0.121,0.605,0.363,0.847,0.726c0.242,0.726,0.242,1.573,0.242,2.298
		c0,3.024,0,6.048,0.121,9.073c0,2.54,0,5.081,0.121,7.621c0,0.847,0.121,1.815,0.363,2.661c0.121,0.605,0.363,1.089,0.726,1.573
		c0.363,0.484,0.484,0.484,0.968,0.242c1.694-0.847,2.903-2.177,3.992-3.629c0.968-1.452,1.815-3.024,2.54-4.597
		c0.242-0.484,0.484-0.484,0.847-0.484c0.242,0,0.363,0.121,0.242,0.363c-0.121,0.242-0.121,0.484-0.242,0.847
		c-0.242,0.847-0.605,1.694-0.847,2.54c-0.484,1.452-1.331,2.782-2.298,3.871c-1.452,1.573-3.145,2.419-5.323,2.54
		c-0.726,0-1.452,0.121-2.177-0.121c-1.573-0.363-2.419-1.21-2.782-2.661c-0.363-1.331-0.363-2.661-0.363-3.992
		C18.831,47.621,18.831,45.202,18.831,42.661z"/>
	<path d="M64.073,46.169c0,0.484-0.121,0.968-0.242,1.452c-0.363,1.21-0.726,2.419-1.331,3.629
		c-1.573,2.782-3.871,4.597-7.016,5.081c-1.815,0.242-3.266-0.484-3.508-3.024c-0.121-1.331,0-2.661,0.242-3.992
		c0.242-1.452,0.363-2.903,0.363-4.355c0-0.726-0.242-1.21-0.726-1.694c-0.484-0.484-0.726-0.484-1.331-0.121
		c-0.363,0.242-0.726,0.484-0.968,0.726c-1.089,1.089-2.177,2.177-3.145,3.387c-0.121,0.242-0.363,0.484-0.484,0.726
		c-0.363,0.726-0.605,1.452-0.605,2.298c0.121,1.452,0,2.903-0.121,4.355c-0.121,0.726-0.363,1.331-1.089,1.573
		c-0.605,0.242-1.21,0.484-1.935,0.605c-0.968,0.121-1.21-0.242-1.21-1.089c0.121-1.21,0.121-2.419,0.121-3.508
		c0-2.177-0.242-4.234-0.726-6.29c-0.121-0.605-0.363-1.21-0.726-1.694c-0.484-0.605-0.726-0.605-1.21-0.121
		c-1.331,1.21-2.298,2.661-2.903,4.355c-0.726,1.815-0.847,3.629-0.605,5.444c0,0.484,0.242,0.847,0.363,1.331
		c0.121,0.605,0,0.726-0.484,0.968c-0.605,0.363-1.331,0.605-2.056,0.726c-0.605,0.121-1.21-0.121-1.452-0.726
		c-0.484-0.847-0.726-1.694-0.968-2.54c-0.484-1.935-0.726-3.871-0.847-5.806c-0.121-1.089,0.121-2.298,0.363-3.387
		c0.242-1.089,1.089-1.452,2.056-1.573c0.363-0.121,0.484,0,0.605,0.484c0.121,0.726,0.242,1.331,0.363,2.056
		c0.242,1.452,0.726,2.903,1.089,4.476c0.121-0.363,0.242-0.847,0.484-1.21c0.484-1.331,1.21-2.661,2.177-3.75
		c1.089-1.452,2.661-1.935,4.355-2.056c0.726,0,1.331,0.242,1.815,0.605c1.089,0.847,1.815,1.935,2.177,3.266
		c0.121,0.242,0.121,0.484,0.242,0.726c0.242,0,0.363-0.242,0.484-0.363c0.847-1.089,1.694-2.056,2.661-2.903
		c1.089-1.089,2.419-1.573,3.75-1.815c1.815-0.363,3.387,0.726,4.113,2.54c0.363,0.847,0.363,1.694,0.363,2.661
		c-0.242,1.815-0.363,3.629-0.363,5.565c0,0.605,0.121,1.21,0.242,1.694c0.242,0.726,0.605,0.847,1.21,0.363
		c0.968-0.726,1.694-1.573,2.419-2.419c1.331-1.694,2.419-3.508,3.024-5.565c0.121-0.242,0.242-0.484,0.242-0.847
		c0.121-0.363,0.363-0.363,0.605-0.363C64.073,45.806,64.073,46.048,64.073,46.169z"/>
	<path d="M81.25,46.895c0,0.726-0.242,1.331-0.484,1.935c-0.968,2.419-2.298,4.597-4.113,6.532c-1.331,1.452-3.024,1.815-4.96,1.573
		c-0.121,0-0.242,0-0.242,0c-2.056-0.363-2.782-1.21-3.266-3.145c-0.121-0.363-0.121-0.605-0.242-0.968
		c-0.242,0-0.242,0.242-0.363,0.363c-0.484,0.726-0.968,1.331-1.452,2.056c-0.847,1.089-2.903,1.573-4.234,1.089
		c-0.363-0.121-0.726-0.484-1.089-0.847c-0.605-0.847-1.089-1.694-1.089-2.782c-0.121-2.419,0.121-4.839,1.21-7.016
		c1.21-2.54,3.145-3.508,6.048-3.387c0.726,0,1.089,0.242,1.815,0.726c0,0,0.121,0,0.121-0.121c0.847-1.573,1.573-1.573,3.387-1.331
		c0.363,0,0.484,0.242,0.605,0.605c0,0.847,0.121,1.815,0,2.661c-0.242,2.782-0.605,5.444-0.484,8.226
		c0,0.726,0.121,1.452,0.363,2.177c0.484,1.089,1.331,1.331,2.177,0.605c1.21-0.847,2.177-2.056,2.903-3.387
		c0.847-1.452,1.573-3.024,2.177-4.476c0.242-0.484,0.484-0.968,0.726-1.452c0.121-0.242,0.242-0.242,0.363-0.242
		C81.25,46.532,81.25,46.653,81.25,46.895z M67.581,43.145c-0.242-0.121-0.363-0.242-0.605-0.363
		c-0.726-0.242-1.089-0.121-1.452,0.605c-0.242,0.484-0.363,1.089-0.605,1.694c-0.726,2.298-1.331,4.718-1.573,7.137
		c-0.121,0.968,0,1.935,0.484,2.782c0.242,0.484,0.484,0.484,0.847,0.121c0.968-0.847,1.815-1.815,2.54-3.024
		c0.363-0.605,0.484-1.21,0.605-1.815c0.121-1.935,0.242-3.871,0.484-5.685C68.427,43.871,68.185,43.508,67.581,43.145z"/>
	<path d="M97.702,45.565c-0.363,2.056-1.089,3.871-2.419,5.444c-0.605,0.726-1.21,1.452-1.935,2.056
		c-0.484,0.363-0.605,0.847-0.605,1.331c0,1.815,0.121,3.508-0.121,5.323c-0.121,1.452-0.484,2.903-1.21,4.234
		c-0.726,1.331-1.935,2.177-3.387,2.419c-0.968,0.121-2.056,0.121-3.024-0.121c-1.452-0.363-2.177-1.452-2.056-2.903
		c0.121-1.452,0.726-2.54,1.694-3.508c1.089-1.089,2.298-2.056,3.508-3.024c0.363-0.363,0.484-0.605,0.484-1.089
		c0-2.056-0.121-4.113-0.242-6.29c-0.242,0.121-0.363,0.363-0.363,0.605c-0.847,1.694-1.694,3.266-2.782,4.839
		c-0.726,0.968-1.573,1.573-2.782,1.935c-0.968,0.242-2.056,0.484-3.145,0.242c-0.726-0.121-1.21-0.484-1.694-0.968
		c-0.726-0.968-1.089-1.935-1.21-3.145c0-2.54,0.363-5.081,1.452-7.5c0.726-1.694,2.056-2.661,3.992-2.661
		c1.815,0,3.75,0.121,5.565,0.363c0.484,0.121,0.968,0.121,1.452,0.121c0.726-0.121,1.452,0,2.056,0.242
		c0.363,0.121,0.605,0.363,0.726,0.726c0.484,0.847,0.484,1.815,0.605,2.661c0.121,1.694,0.363,3.266,0.363,4.96
		c0,0.121,0,0.242,0.121,0.363c0.242-0.121,0.363-0.242,0.484-0.484c1.21-1.331,2.298-2.782,3.024-4.476
		c0.242-0.363,0.363-0.726,0.484-1.21c0.121-0.121,0.121-0.363,0.242-0.484c0.121-0.242,0.242-0.242,0.363-0.121
		C97.823,45.202,97.702,45.444,97.702,45.565z M88.266,46.411c0-0.847-0.121-1.694,0-2.54c0-0.242-0.121-0.363-0.363-0.484
		c-1.331-0.363-2.661-0.242-3.871,0.484c-0.847,0.605-1.573,1.452-1.935,2.419c-0.726,1.694-0.968,3.508-1.089,5.323
		c0,0.968,0.242,1.815,0.605,2.661c0.605,1.089,0.726,1.089,1.573,0.242c2.177-2.056,3.629-4.597,4.96-7.379
		C88.266,47.016,88.266,46.774,88.266,46.411z M88.629,57.419c-1.089,0.847-1.935,1.573-2.782,2.419
		c-0.484,0.484-0.847,0.968-1.089,1.573c-0.363,1.089-0.363,2.177,0.363,3.266c0.242,0.242,0.363,0.242,0.605,0.121
		c0.605-0.363,1.089-0.968,1.452-1.573C88.266,61.411,88.508,59.476,88.629,57.419z"/>
	<path d="M104.96,46.048c0,0.726-0.121,1.452-0.363,2.056c-0.363,1.331-0.847,2.782-1.452,4.113
		c-0.363,0.726-0.726,1.331-1.21,1.815c-0.968,1.089-2.056,1.694-3.508,1.815c-0.726,0.121-1.331,0.121-2.056,0
		c-1.089-0.242-1.935-0.847-2.177-1.935c-0.242-0.726-0.363-1.331-0.363-2.056c-0.121-2.298,0-4.718,0.363-7.016
		c0.121-0.968,0.605-1.815,1.089-2.661c0.242-0.363,0.605-0.605,1.089-0.605c0.363,0,0.726,0,1.089,0
		c0.605,0,0.726,0.121,0.847,0.726c0.121,0.847,0.121,1.694,0.121,2.54c-0.121,1.573-0.242,3.024-0.363,4.597
		c0,1.331,0,2.54,0.363,3.75c0.121,0.363,0.242,0.726,0.605,1.089c0.847-0.605,1.573-1.331,2.177-2.056
		c1.331-1.935,2.298-3.992,3.024-6.169c0-0.121,0.121-0.242,0.121-0.363c0.121-0.242,0.242-0.242,0.484-0.242
		C105.081,45.685,104.96,45.927,104.96,46.048z M96.129,37.218c-0.363-0.726,0.242-2.056,1.089-2.298
		c0.484-0.121,1.089-0.242,1.573-0.242s0.726,0.121,0.726,0.726c0.121,0.605,0.121,1.21-0.121,1.815
		c-0.121,0.484-0.121,0.968,0.242,1.331c-0.847,0.605-2.298,0.242-2.903-0.363C96.613,37.823,96.25,37.581,96.129,37.218z"/>
	<path d="M106.411,48.226c0.605-0.968,1.089-1.935,1.694-2.782c0.605-0.847,1.331-1.573,2.056-2.177
		c0.968-0.847,2.177-1.089,3.508-0.968c0.363,0.121,0.847,0.121,1.21,0.242c1.694,0.363,2.782,1.694,3.024,3.387
		c0.121,1.089,0,2.298-0.121,3.387c-0.121,1.452-0.363,2.782-0.121,4.234c0.121,0.605,0.242,1.21,0.605,1.815
		c0.121,0.242,0.363,0.363,0.726,0.242c0.605-0.242,1.089-0.605,1.573-1.089c2.661-2.177,4.476-4.96,5.444-8.226
		c0.121-0.363,0.121-0.726,0.242-1.089c0-0.121,0-0.242,0.121-0.242c0.121,0,0.242,0.121,0.242,0.242c0,0.242,0,0.363,0,0.605
		c-0.363,2.661-1.573,4.96-3.024,7.137c-0.726,0.968-1.573,1.815-2.298,2.661c-1.21,1.21-2.661,1.452-4.234,1.331
		c-0.363,0-0.847-0.121-1.21-0.242c-1.089-0.242-1.694-0.968-2.056-1.935c-0.363-1.21-0.484-2.54-0.363-3.75
		c0.242-2.298,0.363-4.476,0.484-6.774c0-1.21-0.242-1.452-1.452-0.968c-0.605,0.242-1.089,0.605-1.452,1.089
		c-1.089,1.089-1.935,2.298-2.54,3.629c-0.726,1.573-1.089,3.145-1.573,4.839c-0.121,0.363,0,0.605,0.121,0.847
		c0.121,0.484,0.363,0.847,0.363,1.331c0,0.605,0,0.847-0.605,1.089c-0.605,0.242-1.21,0.484-1.815,0.605
		c-0.968,0.121-1.573-0.121-1.935-1.089c-0.242-0.605-0.484-1.331-0.605-1.935c-0.484-3.145-0.605-6.169,0-9.315
		c0-0.363,0.121-0.726,0.242-0.968c0.121-0.484,0.484-0.726,0.968-0.847c0.605-0.121,1.331-0.363,1.935-0.363
		c0.968,0,1.331,0.484,1.089,1.331c-0.121,0.847-0.363,1.815-0.363,2.661C106.411,46.895,106.411,47.5,106.411,48.226z"/>
	<path d="M128.79,56.452c-0.968-0.121-2.177-0.121-3.266-0.605c-1.694-0.605-2.661-1.935-2.903-3.75
		c-0.363-2.661,0.121-5.202,1.331-7.621c0.847-1.573,2.056-2.298,3.871-2.056c0.847,0.121,1.694,0.121,2.54,0.363
		c0.363,0.121,0.726,0.242,1.089,0.484c0.726,0.484,0.847,1.089,0.484,1.815c-0.363,0.847-0.968,1.573-1.694,2.177
		c-0.968,0.847-1.935,1.573-2.903,2.298c-0.363,0.242-0.484,0.484-0.484,0.847c-0.121,1.089,0,2.056,0.363,3.145
		c0.242,0.605,0.484,1.089,0.968,1.573c0.363,0.363,0.847,0.484,1.331,0.363c1.089-0.363,2.177-0.726,3.145-1.331
		c1.694-0.968,3.266-2.177,4.597-3.629c0.847-0.968,1.573-2.056,2.177-3.266c0.121-0.242,0.242-0.363,0.363-0.484
		c0.121-0.121,0.242-0.121,0.363,0c0.121,0.121,0.121,0.121,0.121,0.242c-0.726,1.935-1.573,3.871-3.024,5.444
		c-1.21,1.21-2.54,2.298-3.992,3.266C131.694,56.21,130.363,56.452,128.79,56.452z M127.097,48.589
		c1.089-0.726,2.056-1.452,2.903-2.419c0.242-0.242,0.363-0.605,0.484-0.968c0.121-0.484,0.121-0.847-0.121-1.21
		c-0.121-0.242-0.363-0.242-0.605-0.121c-0.605,0.363-0.968,0.726-1.331,1.21C127.702,46.169,127.339,47.258,127.097,48.589z"/>
	<path d="M153.952,46.048c0,0.726-0.121,1.452-0.363,2.056c-0.363,1.331-0.847,2.782-1.452,4.113
		c-0.363,0.726-0.726,1.331-1.21,1.815c-0.968,1.089-2.056,1.694-3.508,1.815c-0.726,0.121-1.331,0.121-2.056,0
		c-1.089-0.242-1.936-0.847-2.177-1.935c-0.242-0.726-0.363-1.331-0.363-2.056c-0.121-2.298,0-4.718,0.363-7.016
		c0.121-0.968,0.605-1.815,1.089-2.661c0.242-0.363,0.605-0.605,1.089-0.605c0.363,0,0.726,0,1.089,0
		c0.605,0,0.726,0.121,0.847,0.726c0.121,0.847,0.121,1.694,0.121,2.54c-0.121,1.573-0.242,3.024-0.363,4.597
		c0,1.331,0,2.54,0.363,3.75c0.121,0.363,0.242,0.726,0.605,1.089c0.847-0.605,1.573-1.331,2.177-2.056
		c1.331-1.935,2.298-3.992,3.024-6.169c0-0.121,0.121-0.242,0.121-0.363c0.121-0.242,0.242-0.242,0.484-0.242
		C153.952,45.685,153.952,45.927,153.952,46.048z M145,37.218c-0.363-0.726,0.242-2.056,1.089-2.298
		c0.484-0.121,1.089-0.242,1.573-0.242c0.484,0,0.726,0.121,0.726,0.726c0.121,0.605,0.121,1.21-0.121,1.815
		c-0.121,0.484-0.121,0.968,0.242,1.331c-0.847,0.605-2.298,0.242-2.903-0.363C145.484,37.823,145.242,37.581,145,37.218z"/>
	<path d="M156.008,39.274c0.242,0.121,0.605,0.121,0.847,0c0.726,0,1.452-0.121,2.177-0.242c0.605-0.121,1.089,0,1.694,0.121
		c0.363,0,0.605,0.363,0.847,0.726c-0.484,0.242-1.089,0.363-1.573,0.363c-1.21,0-2.419,0-3.75,0.121
		c-0.363,0-0.605,0.121-0.605,0.484c-0.484,2.903-0.968,5.806-0.726,8.831c0.121,1.815,0.605,3.508,1.452,5.081
		c0.605,1.089,1.452,1.573,2.661,1.694c0.605,0,1.089-0.121,1.573-0.363c1.331-0.847,2.419-2.056,3.387-3.387
		s1.694-2.782,2.177-4.234c0.242-0.726,0.363-1.452,0.484-2.177c0-0.121,0-0.363,0.121-0.484c0-0.121,0.121-0.121,0.242-0.121
		c0.121,0,0.121,0.121,0.121,0.242c0,0.726,0,1.573-0.242,2.298c-0.605,2.903-2.177,5.323-4.355,7.379
		c-1.331,1.331-3.145,1.935-5.081,2.056c-0.968,0.121-1.936,0.121-2.782-0.121c-1.573-0.363-2.661-1.21-3.266-2.782
		c-0.605-1.573-0.847-3.266-0.968-4.96c-0.121-2.419,0.121-4.718,0.484-7.137c0.121-0.484,0.121-0.968,0.242-1.452
		c0-0.484,0-0.484-0.363-0.484c-1.452,0.242-3.024,0.121-4.476,0.363c-0.121,0-0.363,0-0.484-0.121
		c-0.121-0.121-0.363-0.121-0.363-0.363s0.242-0.242,0.363-0.363c0.605-0.121,1.21-0.121,1.815-0.242
		c1.089-0.121,2.056-0.242,3.145-0.363c0.605,0,0.605,0,0.726-0.605c0.121-1.452,0.605-2.903,1.089-4.355
		c0.363-0.968,0.968-1.452,1.935-1.452c0.605,0,1.089,0,1.694,0.121c0.605,0.121,0.847,0.484,0.726,1.089
		c-0.121,0.363-0.242,0.726-0.363,1.21C156.492,36.855,156.129,37.944,156.008,39.274z"/>
	<path d="M78.952,144.153c2.298,6.532,3.266,9.194,3.629,10.403l0,0c0.484-1.331,1.331-3.992,3.629-10.403h1.21l-4.234,11.976
		c-1.21,3.387-2.056,4.113-4.113,4.113c-0.363,0-0.726,0-1.089-0.121v-1.089c0.363,0,0.605,0.121,0.968,0.121
		c1.694,0,2.177-0.847,3.024-3.145l-4.355-11.855L78.952,144.153L78.952,144.153z"/>
	<path d="M97.581,149.839c0,3.145-1.694,5.927-5.081,5.927c-3.024,0-4.96-2.54-4.96-5.927c0-3.266,1.815-5.927,5.081-5.927
		C95.524,143.911,97.581,146.331,97.581,149.839z M88.629,149.839c0,2.661,1.452,4.839,3.871,4.839s3.871-2.056,3.871-4.839
		c0-2.661-1.331-4.839-3.871-4.839C89.839,145,88.629,147.177,88.629,149.839z"/>
	<path d="M107.5,152.258c0,1.089,0,2.903,0,3.266h-1.089c0-0.242-0.121-1.089-0.121-1.935c-0.484,1.331-1.694,2.298-3.629,2.298
		c-1.694,0-3.75-0.605-3.75-4.113v-7.5H100v7.258c0,1.694,0.484,3.266,2.782,3.266c2.54,0,3.508-1.452,3.508-4.718v-5.806h1.089
		v7.984H107.5z"/>
	<path d="M122.742,152.258c-0.605,2.056-1.815,3.629-4.355,3.629c-2.782,0-4.839-2.056-4.839-5.927c0-3.145,1.694-6.048,4.96-6.048
		c2.903,0,4.113,2.056,4.234,3.629h-1.21c-0.363-1.331-1.21-2.54-3.145-2.54c-2.419,0-3.75,2.056-3.75,4.839
		c0,2.661,1.331,4.839,3.629,4.839c1.694,0,2.661-0.847,3.266-2.54h1.21V152.258z"/>
	<path d="M131.936,153.347c0,0.968,0.121,1.815,0.121,2.177h-1.089c-0.121-0.242-0.121-0.726-0.242-1.694
		c-0.363,0.847-1.331,2.056-3.75,2.056c-2.661,0-3.75-1.694-3.75-3.387c0-2.54,1.935-3.629,5.323-3.629c0.968,0,1.694,0,2.177,0
		v-1.21c0-1.089-0.363-2.661-2.903-2.661c-2.298,0-2.661,1.21-2.903,2.177h-1.089c0.121-1.21,0.968-3.145,3.992-3.145
		c2.54,0,3.992,1.089,3.992,3.629v5.685H131.936z M130.847,149.718c-0.484,0-1.452,0-2.177,0c-2.54,0-4.113,0.605-4.113,2.661
		c0,1.452,0.968,2.419,2.661,2.419c3.266,0,3.75-2.177,3.75-4.597v-0.484H130.847z"/>
	<path d="M134.355,147.056c0-0.968,0-1.935,0-2.903h1.089c0,0.363,0.121,1.815,0,2.177c0.484-1.21,1.452-2.419,3.75-2.419
		c2.056,0,3.871,1.089,3.871,4.234v7.379h-1.089v-7.137c0-2.056-0.847-3.387-2.782-3.387c-2.661,0-3.629,2.298-3.629,4.718v5.806
		h-1.089v-8.468H134.355z"/>
	<path d="M30.323,175.847c0.605,0.121,1.089,0.484,1.573,0.847c0.484,0.363,0.847,0.968,1.21,1.573
		c0.363,0.605,0.605,1.331,0.847,2.177s0.242,1.573,0.242,2.54s-0.242,1.935-0.726,2.782c-0.484,0.847-1.21,1.573-2.056,2.177
		s-1.935,1.089-3.024,1.452c-1.21,0.363-2.419,0.484-3.75,0.484h-7.5l-0.847-27.702c2.782-0.121,4.839-0.121,6.169-0.242
		c1.331-0.121,2.056,0,1.935,0c2.782,0,4.96,0.605,6.532,1.936c1.573,1.21,2.298,3.024,2.298,5.444c0,0.847-0.121,1.573-0.242,2.298
		c-0.121,0.726-0.363,1.452-0.605,1.935c-0.242,0.605-0.605,1.089-0.847,1.452C31.169,175.363,30.685,175.605,30.323,175.847z
		 M23.548,172.46c0.121,0,0.242,0,0.363,0c0.121,0,0.242,0,0.484,0c1.573,0,2.419-0.726,2.419-2.056
		c0-0.847-0.242-1.452-0.847-1.815c-0.605-0.484-1.331-0.605-2.177-0.605h-0.363L23.548,172.46z M24.153,184.073
		c2.177,0,3.266-0.847,3.266-2.54c0-1.694-1.089-2.54-3.387-2.54c-0.242,0-0.484,0-0.484,0v4.96h0.605V184.073z"/>
	<path d="M50.766,189.758H35.524v-27.46H50.04v7.016l-7.258,0.484l0.242,3.629h6.774v5.685h-6.29v3.145h7.258V189.758z"/>
	<path d="M65.887,171.129c-0.968-0.726-2.056-0.968-3.145-0.968c-0.726,0-1.331,0.121-1.815,0.484
		c-0.605,0.363-1.089,0.847-1.452,1.452c-0.363,0.605-0.726,1.331-0.968,2.056c-0.242,0.726-0.363,1.573-0.363,2.419
		c0,0.726,0.121,1.452,0.363,2.056c0.242,0.605,0.484,1.21,0.968,1.694c0.484,0.484,0.968,0.847,1.452,1.089
		c0.605,0.242,1.21,0.363,1.935,0.363c1.573,0,2.782-0.484,3.871-1.331l2.056,7.016c-2.298,1.452-4.839,2.298-7.5,2.298
		c-6.895,0-10.403-4.355-10.403-13.065c0-1.935,0.242-3.871,0.726-5.565c0.484-1.815,1.21-3.387,2.177-4.718
		c0.968-1.331,2.177-2.419,3.508-3.266c1.452-0.847,3.024-1.21,4.839-1.21c0.847,0,1.573,0,2.419,0.121
		c0.847,0.121,1.452,0.242,2.177,0.363c0.605,0.121,1.089,0.363,1.573,0.605c0.363,0.242,0.605,0.484,0.726,0.847L65.887,171.129z"
		/>
	<path d="M77.742,161.936c1.573,0,3.024,0.363,4.234,1.21c1.331,0.847,2.419,1.935,3.266,3.508c0.847,1.452,1.573,3.145,2.056,5.202
		c0.484,2.056,0.726,4.113,0.726,6.532c0,1.815-0.242,3.387-0.605,4.839c-0.484,1.452-1.089,2.661-1.935,3.629
		c-0.847,0.968-1.815,1.694-3.024,2.298c-1.21,0.484-2.661,0.847-4.113,0.847c-3.387,0-6.048-1.21-7.742-3.629
		c-1.815-2.419-2.661-6.048-2.661-11.008c0-1.936,0.242-3.75,0.605-5.444c0.484-1.694,1.089-3.024,1.935-4.234
		c0.847-1.21,1.815-2.056,3.145-2.661C74.718,162.177,76.169,161.936,77.742,161.936z M78.226,182.137
		c0.363,0,0.847-0.121,1.21-0.484c0.363-0.242,0.726-0.726,0.968-1.21c0.242-0.484,0.484-1.089,0.605-1.694s0.242-1.331,0.242-2.056
		c0-4.476-1.21-6.653-3.508-6.653c-1.694,0-2.419,1.694-2.419,5.081c0,0.968,0.121,1.935,0.242,2.782s0.363,1.573,0.605,2.177
		c0.242,0.605,0.605,1.089,0.968,1.452C77.258,182.016,77.742,182.137,78.226,182.137z"/>
	<path d="M111.855,189.758h-6.411v-12.702l-4.718,8.105l-3.871-6.29v10.282h-7.137v-26.734l6.895-0.484l3.508,9.677l4.476-9.919
		h7.258C111.855,161.694,111.855,189.758,111.855,189.758z"/>
	<path d="M129.153,189.758h-15.242v-27.46h14.516v7.016l-7.258,0.484l0.242,3.629h6.774v5.685h-6.29v3.145h7.258V189.758z"/>
	<path d="M147.782,161.936v27.944h-8.831v-27.944H147.782z"/>
	<path d="M167.258,170.04h-5.202v19.718h-7.258v-19.234h-5.444l-0.605-7.742h18.629v7.258H167.258z"/>
	<path d="M18.71,87.54c0-4.96,0.121-10.04,0.121-15c0-0.242,0-0.363,0-0.605c0-0.363,0.121-0.484,0.484-0.484
		c0.847,0,1.815,0.121,2.661,0.242c1.21,0.121,2.419,0.363,3.629,0.726c0.605,0.242,1.331,0.484,1.935,0.726
		c3.024,1.331,5.081,3.629,6.411,6.653c0.605,1.331,0.847,2.782,1.089,4.234c0.242,1.21,0.242,2.54,0.242,3.75
		c0,2.903-0.726,5.565-1.935,8.105c-0.847,1.694-1.815,3.145-3.266,4.476c-1.573,1.573-3.387,2.54-5.565,3.145
		c-0.847,0.242-1.694,0.363-2.54,0.363c-0.847,0-1.694,0-2.54,0c-0.242,0-0.363,0-0.605,0c-0.121,0-0.242-0.121-0.242-0.242
		s0-0.363,0-0.484C18.589,97.823,18.71,92.742,18.71,87.54L18.71,87.54z M22.702,87.782L22.702,87.782c0,0.484,0,0.847,0,1.331
		c0,3.024-0.121,6.048-0.121,9.073c0,0.363,0,0.726,0,0.968c0,0.121,0,0.242,0.121,0.242l0.121,0.121
		c0.363,0.121,0.726,0,0.968-0.121c1.089-0.242,2.056-0.726,2.903-1.452c0.968-0.726,1.694-1.694,2.419-2.661
		c1.573-2.419,2.298-5.081,2.298-7.984c0-1.331-0.121-2.782-0.363-4.113c-0.242-1.089-0.484-2.056-0.968-3.024
		c-0.847-1.089-1.935-2.298-3.387-3.145c-0.847-0.484-1.694-0.726-2.54-0.968c-1.331-0.363-1.331-0.242-1.331,0.968
		C22.823,80.645,22.702,84.274,22.702,87.782z"/>
	<path d="M48.226,104.597c-0.242-0.121-0.484-0.363-0.605-0.484c-2.298-2.419-4.597-4.96-6.774-7.379
		c-0.242-0.242-0.484-0.484-0.605-0.605h-0.121c0,0.242,0,0.484,0,0.726c0,2.177,0,4.234,0,6.411c0,1.573,0.242,1.331-1.331,1.331
		c-0.726,0-1.452,0-2.298,0c-0.121,0-0.363-0.121-0.363-0.363c0-0.363,0-0.847,0-1.21c0-9.073,0-18.145,0-27.218
		c0-1.21,0-2.54,0-3.75c0-0.242,0-0.363,0-0.605l0.121-0.121c0.121,0,0.242,0,0.242,0c1.694,0,3.387,0,5.081,0
		c1.452,0,2.782,0.363,4.113,0.968c1.935,0.847,3.387,2.298,4.234,4.234c0.484,1.089,0.847,2.298,0.968,3.387
		c0.121,1.331,0.242,2.661,0,3.992c-0.242,1.573-0.726,3.145-1.694,4.476c-0.968,1.452-2.298,2.419-3.992,3.145
		c-0.726,0.363-1.452,0.605-2.298,0.726c-0.242,0-0.363,0.121-0.605,0.121c-0.121,0-0.121,0.242-0.121,0.363
		c0.242,0.242,0.363,0.484,0.605,0.726c1.452,1.573,2.782,3.145,4.234,4.597c1.089,1.21,2.298,2.419,3.387,3.75
		c0.121,0.121,0.242,0.242,0.363,0.363c0,0,0,0.121,0,0.242c0,0.121-0.121,0.121-0.242,0.242c-0.726,0.726-1.573,1.331-2.298,2.056
		C48.468,104.476,48.347,104.597,48.226,104.597z M40,81.734L40,81.734c0,1.815,0,3.629,0,5.565c0,0.242,0,0.484,0,0.847
		c0,0.121,0.121,0.242,0.242,0.242c1.089,0,2.298-0.121,3.387-0.484c1.573-0.484,2.661-1.573,3.145-3.145
		c0.121-0.242,0.121-0.484,0.242-0.726c0.242-1.331,0.363-2.54,0.121-3.871c0-0.484-0.121-0.968-0.363-1.331
		c-0.605-1.815-1.815-2.903-3.508-3.387c-0.847-0.242-1.815-0.363-2.782-0.363h-0.121c-0.242,0-0.484,0.121-0.484,0.363
		c0,0.242,0,0.605,0,0.847C40,78.105,40,79.919,40,81.734z"/>
	<path d="M51.976,86.815c0-1.694,0-3.266,0.121-4.96c0-3.024,0.121-6.169,0.121-9.194c0-0.121,0-0.363,0-0.484
		c0-0.242,0.121-0.363,0.363-0.363c0.121,0,0.242,0,0.363,0c3.024,0,6.048,0,9.073,0c0.242,0,0.363,0,0.605,0
		c0.121,0,0.242,0.121,0.242,0.242s0,0.121,0,0.242c0,0.968,0,1.935,0,3.024c0,0.363-0.121,0.484-0.484,0.484
		c-0.242,0-0.605,0-0.847,0c-1.573,0-3.145,0-4.718,0c-0.242,0-0.484,0-0.726,0.121l-0.121,0.121v0.121c0,0.121,0,0.242,0,0.363
		c-0.121,3.387-0.121,6.774-0.242,10.161c0,0.121,0,0.242,0,0.363c0,0.363,0.121,0.484,0.484,0.484c1.573,0,3.024,0.121,4.597,0.121
		s1.331-0.121,1.331,1.331c0,0.726,0,1.452,0,2.298c0,0.121-0.121,0.242-0.242,0.242c-0.242,0-0.605,0-0.847,0
		c-1.452,0-2.903,0-4.355,0c-0.242,0-0.484,0-0.726,0c-0.121,0-0.242,0.121-0.242,0.242c0,0.242,0,0.363,0,0.605
		c0,2.54-0.121,5.202-0.121,7.742c0,0.121,0,0.242,0,0.363c0,0.121,0.121,0.242,0.242,0.242c0.242,0,0.484,0,0.726,0
		c1.573,0,3.266,0,4.839,0c0.242,0,0.605,0,0.847,0c0.121,0,0.242,0.121,0.242,0.242s0,0.242,0,0.363c0,0.968,0,1.935,0,2.903
		c0,0.121,0,0.121,0,0.242s-0.121,0.242-0.242,0.242c-0.605,0-1.21,0.121-1.694,0.121c-1.694,0-3.508,0-5.202,0
		c-0.726,0-1.331-0.121-2.056-0.242c-1.089-0.242-1.331-0.363-1.452-1.573c-0.121-0.726-0.242-1.452-0.242-2.298
		c0-2.298,0-4.597,0.121-7.016c0.121-1.089,0.121-2.177,0.121-3.266C51.976,89.355,51.976,88.145,51.976,86.815L51.976,86.815z"/>
	<path d="M77.137,96.734c0.121,2.177,0.242,4.476,0.363,6.653c0,0.363,0,0.605,0,0.968c0,0.121-0.121,0.242-0.242,0.242
		c-0.121,0-0.363,0-0.484,0c-0.847,0-1.694,0-2.419,0.121c-0.121,0-0.242,0-0.363,0c-0.121,0-0.121-0.121-0.242-0.242
		c0-0.121,0-0.363-0.121-0.484c0-1.089-0.121-2.056-0.121-3.145c0-1.21-0.121-2.419-0.242-3.629c0-0.242-0.121-0.363-0.363-0.363
		c-0.121,0-0.242,0-0.363,0c-1.573,0-3.145,0-4.718,0c-0.121,0-0.242,0-0.363,0c-0.121,0-0.242,0.121-0.242,0.242s0,0.121,0,0.242
		c-0.121,0.968-0.121,2.056-0.242,3.024c-0.121,1.21-0.121,2.54-0.242,3.75c0,0.121,0,0.121,0,0.242s-0.121,0.242-0.242,0.242
		c-0.968,0-1.815,0-2.782-0.121c-0.242,0-0.484,0-0.726-0.121l-0.121-0.121c0-0.121,0-0.242,0-0.363
		c0.121-2.54,0.242-5.081,0.363-7.621c0.121-1.452,0.242-2.903,0.363-4.234c0.121-0.847,0.121-1.815,0.242-2.661
		c0.121-1.573,0.363-3.266,0.605-4.839c0.242-1.573,0.484-3.145,0.847-4.718c0.363-1.331,0.726-2.661,1.21-3.992
		c0.242-0.726,0.605-1.331,0.968-2.056c0.242-0.484,0.605-0.847,0.968-1.21c0.605-0.484,1.21-0.847,2.056-0.847
		c0.605,0,1.21,0.242,1.694,0.605c0.363,0.363,0.726,0.726,1.089,1.089c0.363,0.484,0.726,1.089,0.968,1.694
		c0.484,1.21,0.847,2.419,1.21,3.75c0.363,1.694,0.605,3.387,0.847,5.081c0.242,1.815,0.363,3.629,0.484,5.444
		c0.121,1.815,0.121,3.629,0.242,5.444C77.137,95.403,77.137,96.008,77.137,96.734L77.137,96.734z M70.242,92.984
		C70.242,92.984,70.242,92.863,70.242,92.984c0.726,0,1.331,0,2.056,0c0.121,0,0.363,0,0.484,0c0.121,0,0.121-0.121,0.242-0.242
		c0-0.242,0-0.363,0-0.605c-0.121-1.935-0.363-3.871-0.484-5.806c-0.242-2.056-0.484-4.113-0.847-6.048
		c-0.242-1.089-0.484-2.177-0.847-3.145c0-0.121-0.121-0.242-0.242-0.484h-0.121c-0.121,0.121-0.121,0.242-0.242,0.484
		c-0.363,0.847-0.605,1.694-0.847,2.661c-0.363,1.452-0.605,2.782-0.726,4.234c-0.242,1.331-0.363,2.661-0.484,3.992
		c-0.121,0.968-0.242,1.935-0.363,2.903c0,0.605-0.121,1.21-0.121,1.815c0,0.121,0.121,0.242,0.242,0.242c0.121,0,0.363,0,0.484,0
		C68.911,92.984,69.637,92.984,70.242,92.984z"/>
	<path d="M98.669,77.863c-0.121,0-0.121,0-0.242,0c-0.121,0.242-0.242,0.363-0.363,0.605c-0.484,1.089-0.968,2.298-1.573,3.387
		c-0.484,0.968-0.847,1.935-1.331,2.903c-0.363,0.605-0.726,1.21-1.089,1.694s-0.726,0.847-1.089,1.21
		c-0.484,0.363-1.089,0.605-1.694,0.484c-0.484,0-0.847-0.242-1.21-0.484c-0.484-0.363-0.968-0.726-1.331-1.089
		c-0.726-0.847-1.331-1.694-1.815-2.661c-0.363-0.726-0.726-1.452-1.089-2.177c-0.605-1.331-1.21-2.782-1.815-4.113
		c-0.121-0.363-0.363-0.726-0.605-1.089c0-0.121-0.121-0.121-0.242-0.242c-0.121,0.363-0.242,0.726-0.242,1.089
		c-0.242,2.056-0.363,4.113-0.484,6.169c-0.121,4.234-0.121,8.589-0.121,12.823c0,2.177,0.121,4.234,0.121,6.411
		c0,1.573,0.242,1.331-1.331,1.452c-0.605,0-1.331,0-1.935,0c-0.121,0-0.242,0-0.363,0c-0.121,0-0.121-0.121-0.242-0.242
		c0-0.121,0-0.242,0-0.363c0-0.726,0-1.452,0-2.177c0-2.54,0-5.081-0.121-7.621c0-1.573,0-3.024-0.121-4.597
		c0-1.815-0.121-3.629,0-5.565c0-0.726,0-1.452,0.121-2.177c0.121-1.935,0.363-3.992,0.847-5.927
		c0.242-0.847,0.484-1.694,0.847-2.419c0.242-0.484,0.484-0.847,0.847-1.331c0.847-0.968,2.419-1.21,3.629-0.363
		c0.363,0.242,0.605,0.484,0.847,0.847c0.363,0.363,0.605,0.847,0.968,1.331c0.484,0.847,0.847,1.573,1.21,2.419
		c0.605,1.21,1.089,2.419,1.694,3.629c0.484,1.089,1.089,2.056,1.694,3.024c0.121,0.121,0.242,0.242,0.363,0.363h0.121
		c0.242-0.121,0.363-0.363,0.484-0.605c0.484-0.847,0.968-1.694,1.331-2.661c0.484-1.089,0.968-2.177,1.452-3.266
		c0.605-1.331,1.331-2.661,2.056-3.992c0.363-0.605,0.605-1.089,1.089-1.573c0.363-0.363,0.726-0.726,1.21-0.847
		c0.242,0,0.363,0,0.605,0c0.242,0.121,0.605,0.242,0.847,0.363c0.484,0.363,0.847,0.968,1.089,1.452
		c0.242,0.726,0.484,1.452,0.605,2.298c0.363,1.452,0.484,3.024,0.605,4.597c0.242,2.056,0.363,4.234,0.484,6.29
		c0.242,3.871,0.121,7.742,0.242,11.734c0,1.935,0,3.992,0,5.927c0,0.242,0,0.363,0,0.605c0,0.363-0.121,0.363-0.484,0.484
		c-0.968,0-1.935,0-3.024,0c-0.121,0-0.121,0-0.242,0c-0.121,0-0.242-0.121-0.242-0.242c0-0.363,0-0.605,0-0.968
		c0-2.177,0-4.355,0-6.532c0-3.629-0.121-7.258-0.242-11.008c0-1.694-0.121-3.387-0.363-4.96c-0.121-0.726-0.121-1.452-0.242-2.177
		C98.669,78.105,98.669,77.984,98.669,77.863z"/>
	<path d="M114.879,104.839c-0.968,0-1.935,0.121-3.024,0.121c-0.242,0-0.363,0-0.605,0c-0.121,0-0.242-0.121-0.242-0.242
		c0-1.089-0.121-2.298-0.121-3.387c0-0.121,0.121-0.363,0.363-0.363c0.242,0,0.484,0,0.726,0c0.363,0,0.605,0,0.968,0
		c0.242,0,0.363-0.121,0.363-0.363c0-0.121,0-0.363,0-0.484c0.121-2.782,0.121-5.565,0.242-8.347c0.121-2.54,0.121-4.96,0.242-7.5
		c0.121-2.661,0.121-5.323,0.242-7.984c0-0.121,0-0.242,0-0.363c0-0.121-0.121-0.242-0.242-0.242c-0.363,0-0.605,0-0.968,0
		s-0.484-0.121-0.484-0.484c0-0.968,0-2.056-0.121-3.024v-0.121c0-0.121,0.121-0.242,0.242-0.242c0.121,0,0.363,0,0.484,0
		c2.177,0,4.234-0.121,6.411-0.121c0.121,0,0.242,0,0.363,0l0.121,0.121c0,0,0,0.121,0,0.242c0,0.968,0,2.056,0,3.024
		c0,0.121,0,0.121,0,0.242c0,0.121-0.121,0.242-0.242,0.242c-0.484,0-0.968,0-1.452,0c-0.242,0-0.363,0.121-0.363,0.363
		c0,0.242,0,0.605,0,0.847c-0.121,3.508-0.242,7.016-0.363,10.403c0,0.363,0,0.726,0,1.089c-0.121,3.629-0.242,7.258-0.242,10.887
		c0,0.484,0,0.968,0,1.452c0,0.121,0.121,0.242,0.242,0.242c0.121,0,0.121,0,0.242,0c0.847,0,0.847,0,0.847,0.847
		c0,0.726,0,1.452,0.121,2.298c0,0.242,0,0.363,0,0.605c0,0.121-0.121,0.242-0.242,0.242c-0.242,0-0.484,0-0.726,0
		C116.815,104.839,115.847,104.839,114.879,104.839L114.879,104.839z"/>
	<path d="M126.976,89.718c0,4.355,0,8.71,0.121,13.065c0,0.363,0,0.726,0,0.968c0,0.121-0.121,0.363-0.363,0.363
		c-1.089,0-2.177,0-3.266,0c-0.121,0-0.242-0.121-0.242-0.242c0-0.363,0-0.605,0-0.968c0-1.694,0-3.387,0-5.081
		c0-7.137-0.121-14.274-0.121-21.411c0-0.363,0-0.726,0-1.089c0-0.121-0.121-0.242-0.242-0.242c-0.242,0-0.484,0-0.726,0
		c-0.726,0-1.573,0-2.298,0c-0.242,0-0.363,0-0.605,0c-0.121,0-0.242-0.121-0.242-0.242s0-0.121,0-0.242c0-0.968,0-1.935,0-3.024
		c0-0.363,0.121-0.363,0.484-0.363c0.121,0,0.242,0,0.363,0c3.508,0,7.016,0.121,10.403,0.242c0.121,0,0.363,0,0.484,0
		c0.121,0,0.121,0.121,0.242,0.242v0.121c0,1.089,0,2.177,0,3.266c0,0.121-0.121,0.242-0.242,0.242c-0.242,0-0.363,0-0.605,0
		c-0.726,0-1.452,0-2.298,0c-0.121,0-0.363,0-0.484,0c-0.121,0-0.242,0.121-0.242,0.242c0,0.363,0,0.605,0,0.968
		c0,2.54,0,5.081,0,7.742C126.855,85.968,126.976,87.782,126.976,89.718L126.976,89.718z"/>
	<path d="M29.113,129.516c0,2.54-0.363,5.323-1.089,8.105c-0.363,1.452-0.968,2.177-1.694,2.177c-0.726,0-1.089-0.484-1.089-1.331
		c0-0.242,0-0.363,0-0.484c-0.968,0.484-1.935,0.726-3.024,0.726c-1.815,0-3.266-0.484-4.234-1.573
		c-0.968-1.089-1.573-2.419-1.573-4.355s0.605-3.387,1.694-4.476c1.089-1.089,2.54-1.694,4.355-1.694
		c1.573,0,2.903,0.484,3.992,1.573c-0.121-3.75-1.573-5.565-4.113-5.565c-0.605,0-1.21,0.121-1.815,0.484s-1.089,0.484-1.331,0.484
		c-0.363,0-0.605-0.121-0.847-0.363c-0.242-0.242-0.363-0.605-0.363-0.968c0-0.605,0.363-1.089,1.21-1.573s1.935-0.726,3.145-0.726
		C26.935,120.202,29.113,123.226,29.113,129.516z M26.331,132.782c0-2.419-1.089-3.629-3.387-3.629c-2.419,0-3.75,1.21-3.75,3.629
		s1.21,3.629,3.629,3.629c1.089,0,1.935-0.363,2.54-0.968C25.968,134.839,26.331,133.992,26.331,132.782z"/>
	<path d="M46.169,132.298c0,0.968-0.968,2.298-3.024,3.75c-1.452,1.089-3.266,1.573-5.565,1.573c-2.298,0-4.113-0.726-5.323-2.298
		c-1.331-1.573-2.056-3.629-2.056-6.29c0-3.387,0.726-6.048,2.298-7.984c1.573-1.935,3.629-2.903,6.29-2.903
		c1.935,0,3.629,0.484,4.839,1.331c1.21,0.847,1.815,1.815,1.815,3.024c0,0.968-0.484,1.452-1.331,1.452
		c-0.363,0-0.726-0.121-0.968-0.484c-0.121-0.363-0.484-0.968-0.726-1.573c-0.726-0.726-1.935-1.089-3.629-1.089
		c-1.815,0-3.266,0.726-4.234,2.056c-0.968,1.331-1.452,3.387-1.452,5.927c0,4.113,1.573,6.169,4.839,6.169
		c1.935,0,3.508-0.726,4.839-2.056c0,0,0.363-0.484,0.847-1.331c0.363-0.484,0.726-0.726,1.21-0.726
		c0.363,0,0.605,0.121,0.968,0.363S46.169,131.936,46.169,132.298z"/>
	<path d="M61.411,130c0,2.661-0.242,4.839-0.726,6.532c-0.484,1.573-1.089,2.298-1.815,2.298c-0.484,0-0.726-0.121-1.089-0.363
		s-0.484-0.605-0.484-0.847c0.847-3.266,1.331-5.806,1.331-7.5c0-2.54-0.242-4.476-0.847-5.565c-0.605-1.21-1.573-1.815-2.903-1.815
		c-0.726,0-1.452,0.121-2.177,0.484s-1.331,0.726-1.694,1.331c-0.484,0.605-0.726,1.573-0.726,2.903v0.968
		c0,2.419,0.121,4.718,0.242,7.016c0.121,2.298,0.242,3.266,0.242,3.145c0,0.968-0.484,1.452-1.331,1.452
		c-0.484,0-0.847-0.121-1.089-0.484c-0.121-0.242-0.363-0.847-0.484-1.573c-0.363-2.177-0.484-5.081-0.484-8.831
		c0-3.145,0.363-6.895,1.089-11.008c0.121-0.847,0.363-1.452,0.484-1.815c0.242-0.363,0.605-0.605,1.089-0.605
		c0.363,0,0.605,0.121,0.968,0.363c0.363,0.242,0.363,0.605,0.363,0.968c0,0-0.242,1.573-0.726,4.718
		c1.21-1.21,2.782-1.694,4.597-1.694C59.355,119.96,61.411,123.347,61.411,130z"/>
	<path d="M67.097,122.016c0,5.685-0.242,9.919-0.605,12.581c-0.121,1.089-0.363,1.815-0.484,2.177
		c-0.242,0.484-0.726,0.726-1.21,0.726c-0.363,0-0.726-0.121-0.968-0.363c-0.242-0.242-0.363-0.605-0.363-0.847
		c0,0,0.121-0.242,0.242-0.968c0.121-0.847,0.363-1.694,0.484-2.661c0.121-1.452,0.242-3.024,0.242-4.839c0-0.726,0-1.573,0-2.419
		s0-1.331,0-1.452c0-1.331,0.121-2.177,0.363-2.661c0.242-0.605,0.605-0.847,1.331-0.847
		C66.734,120.444,67.097,120.927,67.097,122.016z M67.702,116.573c0,1.331-0.605,2.056-1.935,2.056
		c-0.484,0-0.968-0.242-1.331-0.605s-0.605-0.847-0.605-1.331c0-0.605,0.242-1.089,0.605-1.452s0.847-0.605,1.452-0.605
		c0.484,0,0.968,0.121,1.331,0.484C67.581,115.484,67.702,115.968,67.702,116.573z"/>
	<path d="M83.548,126.008c0,0.968-0.363,1.694-0.968,2.177c-0.363,0.242-1.21,0.484-2.903,0.847
		c-2.177,0.484-3.992,0.726-5.444,0.726c-0.726,0-1.573,0-2.54-0.121c0,3.508,1.331,5.323,4.113,5.323
		c0.726,0,1.452-0.242,2.056-0.605c0.363-0.242,0.847-0.726,1.573-1.573c0.242-0.242,0.605-0.484,0.847-0.484
		c0.363,0,0.726,0.121,0.968,0.484c0.242,0.363,0.484,0.605,0.484,1.089c0,0.363-0.121,0.726-0.363,0.968
		c-1.573,1.815-3.508,2.661-5.685,2.661c-4.476,0-6.774-2.661-6.774-7.863c0-2.661,0.726-4.96,2.177-7.016
		c1.694-2.177,3.629-3.387,6.048-3.387c1.935,0,3.387,0.605,4.597,1.935S83.548,124.073,83.548,126.008z M80.766,126.129
		c0-1.331-0.363-2.298-0.968-3.145c-0.605-0.847-1.452-1.089-2.419-1.089c-1.21,0-2.298,0.484-3.266,1.331
		c-0.968,0.847-1.694,2.177-2.177,3.75c0.726,0.121,1.331,0.121,2.177,0.121C75.927,127.097,78.226,126.734,80.766,126.129z"/>
	<path d="M96.976,120.323c0,0.726-0.242,1.935-0.605,3.629c-0.484,1.815-0.726,3.024-0.968,3.75
		c-0.605,2.056-1.573,4.234-2.661,6.411c-1.21,2.419-2.177,3.629-3.024,3.629c-0.484,0-0.968-0.484-1.21-1.573
		c-0.363-1.452-0.726-2.903-1.21-4.355c-1.331-4.234-2.782-7.742-4.234-10.524c-0.242-0.363-0.363-0.605-0.605-0.968
		c-0.242-0.363-0.242-0.605-0.242-0.847c0-0.847,0.484-1.331,1.331-1.331c0.968,0,2.056,1.21,3.145,3.75
		c1.089,2.419,2.419,6.048,3.871,11.129c1.573-3.145,2.782-7.016,3.629-11.855c0.242-1.331,0.363-2.056,0.484-2.177
		c0.242-0.484,0.605-0.726,1.089-0.726C96.492,118.266,96.976,118.871,96.976,120.323z"/>
	<path d="M111.855,126.008c0,0.968-0.363,1.694-0.968,2.177c-0.363,0.242-1.21,0.484-2.903,0.847
		c-2.177,0.484-3.992,0.726-5.444,0.726c-0.726,0-1.573,0-2.54-0.121c0,3.508,1.331,5.323,4.113,5.323
		c0.726,0,1.452-0.242,2.056-0.605c0.363-0.242,0.847-0.726,1.573-1.573c0.242-0.242,0.605-0.484,0.847-0.484
		c0.363,0,0.726,0.121,0.968,0.484c0.242,0.363,0.484,0.605,0.484,1.089c0,0.363-0.121,0.726-0.363,0.968
		c-1.573,1.815-3.508,2.661-5.685,2.661c-4.476,0-6.774-2.661-6.774-7.863c0-2.661,0.726-4.96,2.177-7.016
		c1.694-2.177,3.629-3.387,6.048-3.387c1.935,0,3.387,0.605,4.597,1.935S111.855,124.073,111.855,126.008z M109.073,126.129
		c0-1.331-0.363-2.298-0.968-3.145s-1.452-1.089-2.419-1.089c-1.21,0-2.298,0.484-3.266,1.331c-0.968,0.847-1.694,2.177-2.177,3.75
		c0.726,0.121,1.331,0.121,2.177,0.121C104.234,127.097,106.411,126.734,109.073,126.129z"/>
	<path d="M123.105,122.016c0,5.685-0.242,9.919-0.605,12.581c-0.121,1.089-0.363,1.815-0.484,2.177
		c-0.242,0.484-0.726,0.726-1.21,0.726c-0.363,0-0.726-0.121-0.968-0.363c-0.242-0.242-0.363-0.605-0.363-0.847
		c0,0,0.121-0.242,0.242-0.968c0.121-0.847,0.363-1.694,0.484-2.661c0.121-1.452,0.242-3.024,0.242-4.839c0-0.726,0-1.573,0-2.419
		s0-1.331,0-1.452c0-1.331,0.121-2.177,0.363-2.661c0.242-0.605,0.605-0.847,1.331-0.847
		C122.742,120.444,123.105,120.927,123.105,122.016z M123.71,116.573c0,1.331-0.605,2.056-1.935,2.056
		c-0.484,0-0.968-0.242-1.331-0.605c-0.363-0.363-0.605-0.847-0.605-1.331c0-0.605,0.242-1.089,0.605-1.452s0.847-0.605,1.452-0.605
		c0.484,0,0.968,0.121,1.331,0.484C123.589,115.484,123.71,115.968,123.71,116.573z"/>
	<path d="M137.5,124.919c0,0.363-0.121,0.605-0.363,0.847c-0.242,0.242-0.484,0.363-0.726,0.363c-0.121,0-0.726-0.242-1.573-0.605
		s-1.815-0.605-2.782-0.605c-0.242,0-0.605,0-0.847,0c-0.363,1.573-0.484,2.903-0.484,4.234c0,1.694,0.242,2.903,0.847,3.871
		c0.605,0.968,1.331,1.331,2.298,1.331c0.363,0,0.726-0.121,1.21-0.242c0.484-0.121,0.847-0.242,1.089-0.242
		c0.726,0,1.089,0.484,1.089,1.331c0,0.605-0.363,1.089-0.968,1.452c-0.605,0.363-1.452,0.484-2.54,0.484
		c-3.992,0-6.048-2.661-6.048-7.984c0-1.089,0.121-2.419,0.363-3.75c-0.242,0-0.847,0.121-1.694,0.363
		c-0.605,0.121-0.968,0.121-1.331,0.121c-0.968,0-1.573-0.363-1.573-1.21c0-1.089,1.694-1.694,5.202-2.056
		c0.726-2.298,1.573-3.387,2.661-3.387c0.363,0,0.605,0.121,0.847,0.363c0.242,0.242,0.363,0.484,0.363,0.847
		c0,0.242-0.121,0.605-0.242,0.968s-0.242,0.726-0.484,1.089C135.686,122.621,137.5,123.347,137.5,124.919z"/>
</g>
</svg>
