<?xml version="1.0" encoding="utf-8"?>
<!-- Generator: Adobe Illustrator 17.0.0, SVG Export Plug-In . SVG Version: 6.00 Build 0)  -->
<!DOCTYPE svg PUBLIC "-//W3C//DTD SVG 1.1//EN" "http://www.w3.org/Graphics/SVG/1.1/DTD/svg11.dtd">
<svg version="1.1" id="Layer_1" xmlns="http://www.w3.org/2000/svg" xmlns:xlink="http://www.w3.org/1999/xlink" x="0px" y="0px"
	 width="180px" height="163.714px" viewBox="10 18.143 180 163.714" enable-background="new 10 18.143 180 163.714"
	 xml:space="preserve">
<g>
	<g>
		<path d="M70.526,75.119c0,4.17-1.916,6.425-5.748,6.425c-3.381,0-4.847-1.916-5.185-3.945h1.353
			c0.451,1.803,2.029,2.705,3.832,2.705c3.381,0,4.396-2.254,4.396-5.523v-1.353c-0.564,1.578-1.916,2.592-4.283,2.592
			c-3.043,0-5.41-2.48-5.41-6.65c0-4.396,2.48-6.875,5.636-6.875c2.705,0,3.832,1.24,4.17,2.367c0-0.789,0-1.691,0.113-2.029h1.24
			c0,0.451,0,2.592,0,3.832v8.453H70.526z M60.833,69.371c0,3.156,1.691,5.41,4.17,5.41c3.269,0,4.283-2.142,4.283-5.636
			s-1.014-5.41-4.17-5.41C62.073,63.735,60.833,66.328,60.833,69.371z"/>
		<path d="M76.838,66.328c0-2.254,0-3.156,0-3.607h1.24c0,0.451,0,1.24,0,2.93c0.789-2.029,2.48-3.156,4.621-3.269v1.465
			c-2.705,0.225-4.621,2.029-4.621,5.185v6.988h-1.353v-9.693H76.838z"/>
		<path d="M96.45,73.429c0,1.127,0.113,2.029,0.225,2.48h-1.24c-0.113-0.338-0.225-0.902-0.225-2.029
			c-0.451,1.014-1.578,2.367-4.283,2.367c-3.043,0-4.396-2.029-4.396-3.945c0-2.93,2.254-4.17,6.199-4.17c1.127,0,2.029,0,2.48,0
			v-1.353c0-1.353-0.451-3.043-3.381-3.043c-2.705,0-3.043,1.353-3.381,2.48h-1.353c0.113-1.465,1.014-3.719,4.734-3.719
			c3.043,0,4.734,1.24,4.734,4.17v6.763H96.45z M95.097,69.258c-0.451,0-1.691,0-2.592,0c-2.93,0-4.734,0.789-4.734,3.043
			c0,1.691,1.24,2.818,3.043,2.818c3.719,0,4.283-2.48,4.283-5.41V69.258z"/>
		<path d="M103.1,76.021V64.074h-2.254v-1.24h2.254v-1.916c0-2.254,0.676-4.621,3.607-4.621c0.451,0,1.014,0.113,1.24,0.225v1.24
			c-0.451-0.113-1.014-0.113-1.465-0.113c-1.578,0-2.142,1.127-2.142,3.381v1.803h2.93v1.24h-2.818v11.947H103.1z"/>
		<path d="M111.666,69.596c0,3.381,1.691,5.523,4.283,5.523c2.48,0,3.269-1.353,3.832-2.48h1.353
			c-0.564,1.691-1.916,3.719-5.185,3.719c-4.058,0-5.523-3.494-5.523-6.763c0-3.719,1.916-6.988,5.748-6.988
			c4.058,0,5.41,3.494,5.41,5.974c0,0.338,0,0.789,0,1.127h-9.919V69.596z M120.006,68.357c0-2.592-1.465-4.621-4.058-4.621
			c-2.705,0-3.945,1.916-4.283,4.621H120.006z"/>
		<path d="M135.673,73.429c0,1.127,0.113,2.029,0.225,2.48h-1.24c-0.113-0.338-0.225-0.902-0.225-2.029
			c-0.451,1.014-1.578,2.367-4.283,2.367c-3.043,0-4.396-2.029-4.396-3.945c0-2.93,2.254-4.17,6.199-4.17c1.127,0,2.029,0,2.48,0
			v-1.353c0-1.353-0.451-3.043-3.381-3.043c-2.705,0-3.043,1.353-3.381,2.48h-1.353c0.113-1.465,1.014-3.719,4.734-3.719
			c3.043,0,4.734,1.24,4.734,4.17v6.763H135.673z M134.321,69.258c-0.451,0-1.691,0-2.592,0c-2.93,0-4.734,0.789-4.734,3.043
			c0,1.691,1.24,2.818,3.043,2.818c3.719,0,4.283-2.48,4.283-5.41V69.258z"/>
		<path d="M139.956,62.834h2.48v-4.17h1.353v4.17h3.156v1.24h-3.156v8.566c0,1.465,0.338,2.367,1.578,2.367
			c0.451,0,0.902,0,1.353-0.113v1.127c-0.451,0.225-1.127,0.225-1.691,0.225c-1.691,0-2.592-0.789-2.592-2.93v-9.13h-2.48
			L139.956,62.834L139.956,62.834z"/>
		<path d="M161.822,56.522v15.667c0,1.24,0,2.48,0,3.832h-1.24c0-0.338-0.113-1.578-0.113-2.254c-0.676,1.578-2.142,2.48-4.396,2.48
			c-3.381,0-5.523-2.818-5.523-6.763c0-4.058,2.254-7.101,5.861-7.101c2.592,0,3.719,1.127,4.058,2.029v-7.89
			C160.47,56.522,161.822,56.522,161.822,56.522z M151.904,69.484c0,3.607,1.916,5.523,4.17,5.523c3.494,0,4.396-2.367,4.396-5.974
			c0-3.381-0.789-5.41-4.17-5.41C153.707,63.735,151.904,65.764,151.904,69.484z"/>
		<path d="M62.974,101.043c0,4.17-1.916,6.425-5.748,6.425c-3.381,0-4.847-1.916-5.185-3.945h1.353
			c0.451,1.803,2.029,2.705,3.832,2.705c3.381,0,4.396-2.254,4.396-5.523v-1.353c-0.676,1.691-2.029,2.592-4.396,2.592
			c-3.043,0-5.41-2.48-5.41-6.65c0-4.396,2.48-6.875,5.636-6.875c2.705,0,3.832,1.24,4.17,2.367c0-0.789,0-1.691,0.113-2.029h1.24
			c0,0.451,0,2.592,0,3.832V101.043z M53.168,95.295c0,3.156,1.691,5.41,4.17,5.41c3.269,0,4.283-2.142,4.283-5.636
			s-1.014-5.41-4.17-5.41C54.408,89.659,53.168,92.251,53.168,95.295z"/>
		<path d="M69.286,92.251c0-2.254,0-3.156,0-3.607h1.24c0,0.451,0,1.24,0,2.93c0.789-2.029,2.48-3.156,4.621-3.269v1.465
			c-2.705,0.225-4.621,2.029-4.621,5.185v6.988h-1.353v-9.693H69.286z"/>
		<path d="M88.785,99.352c0,1.127,0.113,2.029,0.225,2.48h-1.24c-0.113-0.338-0.225-0.902-0.225-2.029
			c-0.451,1.014-1.578,2.367-4.283,2.367c-3.043,0-4.396-2.029-4.396-3.945c0-2.93,2.254-4.17,6.199-4.17c1.127,0,2.029,0,2.48,0
			v-1.353c0-1.353-0.451-3.043-3.381-3.043c-2.705,0-3.043,1.353-3.381,2.48H79.43c0.225-1.465,1.127-3.719,4.734-3.719
			c3.043,0,4.734,1.24,4.734,4.17v6.763H88.785z M87.545,95.182c-0.451,0-1.691,0-2.592,0c-2.93,0-4.734,0.789-4.734,3.043
			c0,1.691,1.24,2.818,3.043,2.818c3.719,0,4.283-2.48,4.283-5.41V95.182z"/>
		<path d="M96.45,88.757v14.089c0,3.607-0.902,4.621-3.269,4.621c0,0-0.564,0-0.789,0v-1.24c0.225,0,0.451,0,0.564,0
			c1.916,0,2.029-1.014,2.029-3.156V88.757H96.45z M95.21,85.038v-2.592h1.353v2.592H95.21z"/>
		<path d="M112.68,98c0,1.24,0,3.381,0,3.832h-1.24c0-0.338-0.113-1.24-0.113-2.254c-0.564,1.578-1.916,2.592-4.283,2.592
			c-1.916,0-4.283-0.789-4.283-4.734v-8.679h1.24v8.453c0,1.916,0.564,3.832,3.269,3.832c2.93,0,4.058-1.691,4.058-5.41V88.87h1.353
			C112.68,88.87,112.68,98,112.68,98z"/>
		<path d="M128.009,99.352c0,1.127,0.113,2.029,0.225,2.48h-1.24c-0.113-0.338-0.225-0.902-0.225-2.029
			c-0.451,1.014-1.578,2.367-4.283,2.367c-3.043,0-4.396-2.029-4.396-3.945c0-2.93,2.254-4.17,6.199-4.17c1.127,0,2.029,0,2.48,0
			v-1.353c0-1.353-0.451-3.043-3.381-3.043c-2.705,0-3.043,1.353-3.381,2.48h-1.353c0.113-1.465,1.014-3.719,4.734-3.719
			c3.043,0,4.734,1.24,4.734,4.17v6.763H128.009z M126.769,95.182c-0.451,0-1.691,0-2.592,0c-2.93,0-4.734,0.789-4.734,3.043
			c0,1.691,1.24,2.818,3.043,2.818c3.719,0,4.283-2.48,4.283-5.41V95.182z"/>
		<path d="M132.405,88.757h2.48v-4.17h1.353v4.17h3.156v1.24h-3.156v8.566c0,1.465,0.338,2.367,1.578,2.367
			c0.451,0,0.902,0,1.353-0.113v1.127c-0.451,0.225-1.127,0.225-1.691,0.225c-1.691,0-2.592-0.789-2.592-2.93v-9.13h-2.48
			L132.405,88.757L132.405,88.757z"/>
		<path d="M144.239,95.52c0,3.381,1.691,5.523,4.283,5.523c2.48,0,3.269-1.353,3.832-2.48h1.353
			c-0.564,1.691-1.916,3.719-5.185,3.719c-4.058,0-5.523-3.494-5.523-6.763c0-3.719,1.916-6.988,5.748-6.988
			c4.058,0,5.41,3.494,5.41,5.974c0,0.338,0,0.789,0,1.127h-9.919V95.52z M152.58,94.28c0-2.592-1.465-4.621-4.058-4.621
			c-2.705,0-3.945,1.916-4.283,4.621H152.58z"/>
		<path d="M169.374,82.445v15.667c0,1.24,0,2.48,0,3.832h-1.24c0-0.338-0.113-1.578-0.113-2.254c-0.676,1.578-2.142,2.48-4.396,2.48
			c-3.381,0-5.523-2.818-5.523-6.763c0-4.058,2.254-7.101,5.861-7.101c2.592,0,3.719,1.127,4.058,2.029v-7.89H169.374z
			 M159.568,95.407c0,3.607,1.916,5.523,4.17,5.523c3.494,0,4.396-2.367,4.396-5.974c0-3.381-0.789-5.41-4.17-5.41
			C161.259,89.659,159.568,91.688,159.568,95.407z"/>
		<path d="M71.09,126.966c0,4.17-1.916,6.425-5.748,6.425c-3.381,0-4.847-1.916-5.185-3.945h1.465
			c0.451,1.803,2.029,2.705,3.832,2.705c3.381,0,4.396-2.254,4.396-5.523v-1.353c-0.676,1.691-2.029,2.592-4.396,2.592
			c-3.043,0-5.41-2.48-5.41-6.65c0-4.396,2.48-6.875,5.636-6.875c2.705,0,3.832,1.24,4.17,2.367c0-0.789,0-1.691,0.113-2.029h1.24
			c0,0.451,0,2.592,0,3.832v8.453H71.09z M61.396,121.218c0,3.156,1.691,5.41,4.17,5.41c3.269,0,4.283-2.142,4.283-5.636
			s-1.014-5.41-4.17-5.41C62.636,115.583,61.396,118.175,61.396,121.218z"/>
		<path d="M77.401,118.175c0-2.254,0-3.156,0-3.607h1.24c0,0.451,0,1.24,0,2.93c0.789-2.029,2.48-3.156,4.621-3.269v1.465
			c-2.705,0.225-4.621,2.029-4.621,5.185v6.875h-1.24V118.175z"/>
		<path d="M97.013,125.276c0,1.127,0.113,2.029,0.225,2.48h-1.24c-0.113-0.338-0.225-0.902-0.225-2.029
			c-0.451,1.014-1.578,2.367-4.283,2.367c-3.043,0-4.396-2.029-4.396-3.945c0-2.93,2.254-4.17,6.199-4.17c1.127,0,2.029,0,2.48,0
			v-1.353c0-1.353-0.451-3.043-3.381-3.043c-2.705,0-3.043,1.353-3.381,2.48h-1.353c0.113-1.465,1.014-3.719,4.734-3.719
			c3.043,0,4.734,1.24,4.734,4.17v6.763H97.013z M95.661,121.105c-0.451,0-1.691,0-2.592,0c-2.93,0-4.734,0.789-4.734,3.043
			c0,1.691,1.24,2.818,3.043,2.818c3.719,0,4.283-2.48,4.283-5.41V121.105z"/>
		<path d="M104.678,114.681v14.089c0,3.607-0.902,4.621-3.269,4.621c0,0-0.564,0-0.789,0v-1.24c0.225,0,0.451,0,0.564,0
			c1.916,0,2.029-1.014,2.029-3.156v-14.314H104.678z M103.325,110.961v-2.592h1.353v2.592H103.325z"/>
		<path d="M111.215,121.444c0,3.381,1.691,5.523,4.283,5.523c2.48,0,3.269-1.353,3.832-2.48h1.353
			c-0.564,1.691-1.916,3.719-5.185,3.719c-4.058,0-5.523-3.494-5.523-6.763c0-3.719,1.916-6.988,5.748-6.988
			c4.058,0,5.41,3.494,5.41,5.974c0,0.338,0,0.789,0,1.127h-9.919V121.444z M119.668,120.204c0-2.592-1.465-4.621-4.058-4.621
			c-2.705,0-3.945,1.916-4.283,4.621H119.668z"/>
		<path d="M124.177,114.681h2.48v-4.17h1.353v4.17h3.156v1.24h-3.156v8.566c0,1.465,0.338,2.367,1.578,2.367
			c0.451,0,0.902,0,1.353-0.113v1.127c-0.451,0.225-1.127,0.225-1.691,0.225c-1.691,0-2.592-0.789-2.592-2.93v-9.13h-2.48
			C124.177,116.033,124.177,114.681,124.177,114.681z"/>
		<path d="M136.124,121.444c0,3.381,1.691,5.523,4.283,5.523c2.48,0,3.269-1.353,3.832-2.48h1.353
			c-0.564,1.691-1.916,3.719-5.185,3.719c-4.058,0-5.523-3.494-5.523-6.763c0-3.719,1.916-6.988,5.748-6.988
			c4.058,0,5.41,3.494,5.41,5.974c0,0.338,0,0.789,0,1.127h-9.919V121.444z M144.465,120.204c0-2.592-1.465-4.621-4.058-4.621
			c-2.705,0-3.945,1.916-4.283,4.621H144.465z"/>
		<path d="M161.259,108.369v15.667c0,1.24,0,2.48,0,3.832h-1.24c0-0.338-0.113-1.578-0.113-2.254
			c-0.676,1.578-2.141,2.48-4.396,2.48c-3.381,0-5.523-2.818-5.523-6.763c0-4.058,2.254-7.101,5.861-7.101
			c2.592,0,3.719,1.127,4.058,2.029v-7.89H161.259z M151.34,121.331c0,3.607,1.916,5.523,4.17,5.523
			c3.494,0,4.396-2.367,4.396-5.974c0-3.381-0.789-5.41-4.17-5.41C153.143,115.583,151.34,117.611,151.34,121.331z"/>
	</g>
</g>
<circle fill="#FEBB12" cx="52.605" cy="50.548" r="3.043"/>
<path fill="#FEBB12" d="M16.763,109.609c0,1.916-1.578,3.381-3.381,3.381c-1.916,0-3.381-1.578-3.381-3.381s1.578-3.381,3.381-3.381
	C15.297,106.228,16.763,107.693,16.763,109.609z"/>
<circle fill="#EA214D" cx="181.434" cy="69.033" r="2.818"/>
<circle fill="#2D9598" cx="174.108" cy="135.871" r="4.283"/>
<path fill="#EA214D" d="M40.094,122.12c0,1.24-1.014,2.254-2.254,2.254s-2.254-1.014-2.254-2.254s1.014-2.254,2.254-2.254
	C39.192,119.978,40.094,120.993,40.094,122.12z"/>
<circle fill="#FEBB12" cx="127.558" cy="53.591" r="1.578"/>
<path fill="#EA214D" d="M21.722,85.94c0,1.353-1.127,2.48-2.48,2.48s-2.48-1.127-2.48-2.48s1.127-2.48,2.48-2.48
	C20.595,83.46,21.722,84.587,21.722,85.94z"/>
<circle fill="#EA214D" cx="186.731" cy="104.988" r="2.818"/>
<circle fill="#2D9598" cx="86.306" cy="133.166" r="2.818"/>
<circle fill="#2D9598" cx="178.616" cy="122.12" r="1.353"/>
<circle fill="#FEBB12" cx="188.647" cy="76.697" r="1.353"/>
<circle fill="#2D9598" cx="47.307" cy="73.429" r="1.916"/>
<g>
	<path d="M40.432,40.968c-0.902,3.156-3.043,5.41-5.636,7.214c-2.48,1.691-5.185,2.592-8.115,3.156
		c-0.338,0.113-0.789,0.113-1.24,0.225c0.451,0.338,0.789,0.676,1.127,1.014c2.93,2.592,4.283,5.861,3.719,9.693
		c-0.451,2.705-1.803,5.072-4.058,6.875c-1.803,1.465-3.945,2.48-6.312,2.818c-1.24,0.225-2.367-0.113-3.381-0.902
		c-0.902-0.789-1.578-1.691-2.254-2.818c-1.578-2.705-2.48-5.636-3.043-8.679c-1.127-6.875-0.451-13.525,1.24-20.288
		c1.127-4.396,2.818-8.679,4.847-12.736c1.127-2.367,2.93-4.058,5.185-5.297c1.014-0.564,2.029-0.789,3.043-0.676
		c0.564,0,1.24,0.113,1.803,0.225c2.818,0.564,4.508,2.254,5.072,5.072c0.338,1.691,0.113,3.269-0.338,4.959
		c-0.676,2.93-1.916,5.523-3.607,7.89c-2.367,3.269-4.959,6.199-8.003,8.791c-0.676,0.676-1.578,1.24-2.254,1.803
		c0.113,0.225,0.338,0.113,0.451,0.113c1.127-0.113,2.142,0.113,3.269,0.451c1.916,0.676,3.832,0.564,5.636,0
		c2.254-0.676,4.283-1.803,6.086-3.269c1.916-1.465,3.607-3.269,5.072-5.072c0.225-0.338,0.564-0.676,1.014-0.789
		C40.207,40.855,40.319,40.855,40.432,40.968z M16.65,51.224c0,0.113-0.113,0.225-0.113,0.338c0,3.156,0.225,6.199,1.014,9.242
		c0.676,2.48,1.578,4.847,3.269,6.763c0.451,0.564,0.902,1.014,1.465,1.353c0.338,0.225,0.564,0.113,0.902-0.225
		c1.691-2.029,2.592-4.396,2.48-6.988c-0.225-4.396-3.832-9.13-8.115-10.369C17.326,51.224,16.988,51.224,16.65,51.224z
		 M16.65,49.534c1.127-1.014,2.142-1.916,3.156-2.818c2.705-2.592,5.072-5.636,7.214-8.791c1.578-2.367,2.592-4.847,3.156-7.552
		c0.225-0.902,0.338-1.916,0.338-2.93c-0.113-1.916-0.676-3.607-2.142-4.847c-0.902-0.789-1.014-0.789-1.916,0.113
		c-0.451,0.451-0.789,0.902-1.127,1.353c-1.465,2.029-2.592,4.17-3.607,6.425c-2.029,4.508-3.607,9.13-4.508,13.976
		C16.988,46.04,16.763,47.618,16.65,49.534z"/>
	<path d="M54.408,40.179c0,0.902-0.225,1.916-0.451,2.818c-0.564,1.803-1.127,3.719-1.916,5.41c-0.451,0.902-1.014,1.691-1.578,2.48
		c-1.24,1.465-2.705,2.254-4.621,2.48c-0.902,0.113-1.803,0.225-2.705,0c-1.465-0.338-2.48-1.127-2.93-2.592
		c-0.225-0.902-0.451-1.803-0.451-2.705c-0.113-3.156,0-6.199,0.564-9.242c0.225-1.24,0.676-2.367,1.465-3.494
		c0.338-0.564,0.902-0.789,1.465-0.789c0.451,0,0.902,0,1.465,0c0.902,0,1.014,0.225,1.127,1.014
		c0.225,1.127,0.225,2.254,0.113,3.381c-0.225,2.029-0.338,4.058-0.451,6.086c-0.113,1.691-0.113,3.381,0.451,5.072
		c0.113,0.451,0.338,1.014,0.676,1.465c1.127-0.789,2.029-1.691,2.818-2.705c1.803-2.48,3.043-5.297,3.945-8.228
		c0-0.225,0.113-0.338,0.113-0.564c0.113-0.338,0.338-0.338,0.676-0.225C54.408,39.728,54.408,39.953,54.408,40.179z M42.686,28.569
		c-0.564-1.014,0.338-2.705,1.465-3.043c0.676-0.225,1.465-0.338,2.142-0.225c0.676,0,0.902,0.225,1.014,0.902
		c0.113,0.789,0.113,1.578-0.113,2.367c-0.225,0.564-0.225,1.24,0.338,1.691c-1.014,0.902-3.043,0.338-3.832-0.451
		C43.25,29.471,42.912,29.02,42.686,28.569z"/>
	<path d="M62.974,43.222c0.676-1.24,1.353-2.48,2.254-3.607c0.789-1.014,1.691-2.029,2.705-2.818
		c1.353-1.014,2.818-1.465,4.621-1.24c0.564,0.113,1.014,0.113,1.578,0.225c2.142,0.564,3.719,2.254,3.945,4.508
		c0.225,1.465,0,3.043-0.113,4.508c-0.113,1.803-0.451,3.719-0.113,5.523c0.113,0.789,0.338,1.691,0.902,2.367
		c0.225,0.338,0.451,0.451,0.902,0.225c0.789-0.451,1.465-0.902,2.142-1.353c3.494-2.93,5.974-6.537,7.101-10.933
		c0.113-0.451,0.225-0.902,0.225-1.353c0-0.113,0.113-0.225,0.225-0.225c0.225,0,0.338,0.113,0.338,0.225c0,0.225,0,0.451,0,0.789
		c-0.451,3.494-2.029,6.537-4.058,9.468c-0.902,1.353-2.029,2.367-3.156,3.494c-1.578,1.578-3.494,1.916-5.523,1.803
		c-0.564,0-1.127-0.113-1.691-0.338c-1.353-0.338-2.254-1.24-2.705-2.48c-0.564-1.578-0.676-3.269-0.564-5.072
		c0.225-2.93,0.451-5.974,0.564-8.904c0.113-1.691-0.338-1.916-1.803-1.24c-0.789,0.338-1.353,0.789-2.029,1.465
		c-1.465,1.353-2.48,2.93-3.269,4.734c-0.902,2.029-1.465,4.17-2.029,6.312c-0.113,0.451,0,0.789,0.113,1.24
		c0.113,0.564,0.451,1.127,0.451,1.803c0,0.789-0.113,1.014-0.789,1.465c-0.676,0.338-1.578,0.564-2.367,0.676
		c-1.24,0.225-2.029-0.225-2.48-1.465c-0.338-0.789-0.676-1.691-0.789-2.592c-0.564-4.058-0.789-8.228,0-12.286
		c0.113-0.451,0.225-0.902,0.338-1.353c0.225-0.564,0.676-1.014,1.24-1.127c0.902-0.225,1.691-0.451,2.592-0.451
		c1.24,0,1.691,0.564,1.465,1.803c-0.225,1.127-0.451,2.367-0.451,3.494C62.974,41.306,62.974,42.208,62.974,43.222z"/>
	<path d="M119.555,41.306c0,0.902-0.338,1.691-0.676,2.592c-1.24,3.269-3.043,6.086-5.523,8.679
		c-1.803,1.916-4.058,2.367-6.537,2.142c-0.113,0-0.225,0-0.338-0.113c-2.705-0.451-3.719-1.578-4.396-4.17
		c-0.113-0.451-0.225-0.789-0.225-1.24c-0.338,0-0.338,0.338-0.451,0.451c-0.564,0.902-1.24,1.803-1.916,2.705
		c-1.127,1.465-3.945,2.142-5.636,1.353c-0.564-0.225-1.014-0.564-1.353-1.127c-0.789-1.127-1.465-2.254-1.465-3.719
		c-0.225-3.269,0.113-6.425,1.578-9.355c1.578-3.269,4.17-4.621,8.003-4.396c0.902,0,1.353,0.338,2.367,1.014
		c0,0,0.113,0,0.113-0.113c1.014-2.142,2.029-2.142,4.396-1.803c0.451,0.113,0.676,0.338,0.676,0.789
		c0.113,1.24,0.113,2.367,0,3.607c-0.338,3.607-0.789,7.214-0.676,10.933c0,1.014,0.113,1.916,0.564,2.818
		c0.564,1.353,1.691,1.691,2.93,0.902c1.691-1.127,2.93-2.705,3.945-4.396c1.127-1.916,2.029-3.945,2.93-5.974
		c0.225-0.676,0.676-1.24,0.902-1.803c0.113-0.225,0.338-0.338,0.564-0.225C119.668,40.855,119.555,41.08,119.555,41.306z
		 M101.634,36.347c-0.225-0.113-0.564-0.338-0.789-0.451c-1.014-0.451-1.465-0.225-1.916,0.789
		c-0.338,0.676-0.564,1.465-0.789,2.254c-0.902,3.043-1.803,6.199-2.029,9.468c-0.113,1.353,0.113,2.592,0.676,3.719
		c0.338,0.676,0.564,0.676,1.127,0.225c1.353-1.127,2.367-2.48,3.269-3.945c0.451-0.789,0.676-1.578,0.789-2.367
		c0.225-2.48,0.338-5.072,0.676-7.552C102.761,37.361,102.423,36.797,101.634,36.347z"/>
	<path d="M141.083,41.306c-0.225,0.902-0.451,1.803-0.789,2.705c-1.014,2.367-2.367,4.621-3.832,6.763
		c-1.014,1.465-2.367,2.48-4.283,2.818c-1.465,0.225-2.818,0.451-4.283,0.225c-1.578-0.338-2.705-1.127-3.494-2.367
		c-0.902-1.465-1.353-3.156-1.691-4.847c-0.902-4.847-1.24-9.806-1.127-14.765c0-2.254,0.113-4.508,0.564-6.763
		c0.225-0.902,0.451-1.916,0.902-2.818c1.465-3.269,4.17-4.621,7.664-3.945c0.225,0,0.451,0.113,0.676,0.113
		c1.916,0.338,2.592,1.127,2.93,3.043c0.113,0.564,0.113,1.24,0.225,1.916c-0.338,3.945-1.127,7.777-2.93,11.384
		c-1.127,2.254-2.254,4.508-3.494,6.65c-0.225,0.338-0.338,0.676-0.225,1.014c0.225,1.916,0.564,3.832,1.127,5.748
		c0.451,1.465,1.127,2.705,2.142,3.832c0.564,0.564,0.676,0.564,1.353,0.113c1.691-1.014,3.043-2.48,4.17-4.058
		c1.465-2.029,2.818-4.17,3.607-6.537c0-0.113,0.113-0.225,0.113-0.338c0.113-0.225,0.338-0.338,0.564-0.225
		C141.196,40.855,141.083,41.08,141.083,41.306z M127.558,40.179c0.564-0.564,0.676-1.127,1.014-1.578
		c2.367-4.058,3.832-8.453,4.17-13.187c0.113-1.803,0-3.494-0.902-5.072c-0.564-0.902-0.676-0.902-1.353-0.113
		c-1.916,2.367-2.93,5.072-3.156,8.003C127.107,32.176,127.22,36.121,127.558,40.179z"/>
	<path d="M161.484,41.306c-0.225,0.902-0.451,1.803-0.789,2.705c-1.014,2.367-2.367,4.621-3.832,6.763
		c-1.014,1.465-2.367,2.48-4.283,2.818c-1.465,0.225-2.818,0.451-4.283,0.225c-1.578-0.338-2.705-1.127-3.494-2.367
		c-0.902-1.465-1.353-3.156-1.691-4.847c-0.902-4.847-1.24-9.806-1.127-14.765c0-2.254,0.113-4.508,0.564-6.763
		c0.225-0.902,0.451-1.916,0.902-2.818c1.465-3.269,4.17-4.621,7.664-3.945c0.225,0,0.451,0.113,0.676,0.113
		c1.916,0.338,2.592,1.127,2.93,3.043c0.113,0.564,0.113,1.24,0.225,1.916c-0.338,3.945-1.127,7.777-2.931,11.384
		c-1.127,2.254-2.254,4.508-3.494,6.65c-0.225,0.338-0.338,0.676-0.225,1.014c0.225,1.916,0.564,3.832,1.127,5.748
		c0.451,1.465,1.127,2.705,2.142,3.832c0.564,0.564,0.676,0.564,1.353,0.113c1.691-1.014,3.043-2.48,4.17-4.058
		c1.465-2.029,2.818-4.17,3.607-6.537c0-0.113,0.113-0.225,0.113-0.338c0.113-0.225,0.338-0.338,0.564-0.225
		C161.597,40.855,161.484,41.08,161.484,41.306z M147.959,40.179c0.564-0.564,0.676-1.127,1.014-1.578
		c2.367-4.058,3.832-8.453,4.17-13.187c0.113-1.803,0-3.494-0.902-5.072c-0.564-0.902-0.676-0.902-1.353-0.113
		c-1.916,2.367-2.931,5.072-3.156,8.003C147.508,32.176,147.621,36.121,147.959,40.179z"/>
	<path d="M181.885,49.421c2.48-2.254,4.847-4.508,6.312-7.439c0.225-0.451,0.451-0.789,0.676-1.24
		c0.113-0.338,0.451-0.338,0.676-0.338c0.225,0,0.338,0.225,0.338,0.451c-0.676,2.254-1.24,4.508-2.93,6.425
		c-1.24,1.465-2.592,2.93-4.283,3.945c-0.564,0.338-0.676,0.676-0.676,1.24c0.113,2.142,0,4.283-0.789,6.312
		c-0.676,1.803-1.578,3.494-3.043,4.959c-1.24,1.24-2.818,1.691-4.396,2.029c-1.353,0.225-2.592,0.564-4.058,0.225
		s-2.142-1.127-2.254-2.592c-0.113-2.029,0.564-3.719,1.916-5.297c1.127-1.24,2.48-2.254,3.945-3.156
		c0.789-0.451,1.578-1.014,2.254-1.465c0.338-0.225,0.564-0.451,0.451-0.902c-0.113-2.93-0.338-5.748-0.789-8.679
		c0-0.113-0.113-0.113-0.113-0.225c-0.338,0.113-0.225,0.338-0.338,0.451c-0.902,2.029-1.916,4.058-3.156,5.974
		c-0.225,0.451-0.676,0.902-1.014,1.24c-0.789,0.902-1.691,1.465-2.93,1.578c-1.127,0.113-2.142,0-3.156-0.338
		c-1.24-0.451-1.916-1.353-2.029-2.705c0-0.338-0.113-0.676-0.113-1.014c0-3.832-0.113-7.777,0.338-11.609
		c0-0.564,0.113-1.014,0.225-1.578c0.113-0.676,0.451-0.902,1.127-1.014c0.902,0,1.803,0,2.592,0
		c1.24,0.113,1.578,0.564,1.691,1.691c0,0.676,0,1.353-0.113,2.029c-0.338,3.719-0.113,7.326-0.225,11.046
		c0,0.451,0,0.902,0.225,1.465c0.676-0.338,1.127-0.902,1.578-1.465c1.916-2.48,3.494-5.185,4.734-8.003
		c0.225-0.451,0.113-0.789,0.113-1.24c-0.225-1.353-0.451-2.818-0.676-4.17c-0.113-0.451-0.113-0.902,0-1.465
		c0-0.676,0.225-0.902,0.902-1.014c1.127-0.113,2.142,0,3.269,0.225c0.789,0.113,1.127,0.676,1.24,1.353
		c0.225,1.014,0.451,1.916,0.564,2.93c0.451,2.93,1.014,5.748,1.24,8.679C181.659,47.73,181.547,48.519,181.885,49.421z
		 M176.137,55.057c-1.916,1.014-3.719,2.029-5.185,3.494c-0.451,0.451-0.789,1.014-1.127,1.691
		c-0.564,1.465-0.225,3.043,1.014,3.945c0.676,0.451,0.902,0.451,1.465-0.113C174.784,61.594,175.911,58.551,176.137,55.057z"/>
</g>
<g>
	<path fill="#2D9598" d="M57.113,80.529c-0.225,0-0.338-0.113-0.451-0.338c-0.113-0.225,0-0.451,0.225-0.564
		c1.014-0.338,98.172-17.358,109.217-19.386c0.225,0,0.451,0.113,0.451,0.338c0,0.225-0.113,0.451-0.338,0.451
		c-1.127,0.225-107.527,18.823-109.105,19.274C57.113,80.529,57.113,80.529,57.113,80.529z"/>
</g>
<g>
	<path fill="#2D9598" d="M166.218,80.529C166.105,80.529,166.105,80.529,166.218,80.529L57.001,60.354
		c-0.225,0-0.338-0.225-0.338-0.451s0.225-0.338,0.451-0.338L166.218,79.74c0.225,0,0.338,0.225,0.338,0.451
		C166.556,80.417,166.331,80.529,166.218,80.529z"/>
</g>
<g>
	
		<rect x="45.506" y="96.086" transform="matrix(-1 0.0068 -0.0068 -1 220.2762 192.5457)" fill="#FEBB12" width="128.607" height="1.127"/>
</g>
<g>
	<path fill="#EA214D" d="M45.504,129.108c-0.225,0-0.338-0.113-0.451-0.338c0-0.225,0.113-0.451,0.338-0.451l126.349-15.667
		c0.225,0,0.451,0.113,0.451,0.338c0,0.225-0.113,0.451-0.338,0.451L45.504,129.108L45.504,129.108z"/>
</g>
<g>
	<path d="M63.2,178.025c0,1.127-0.676,2.142-2.029,2.818c-1.353,0.676-3.269,1.014-5.748,1.014c-2.48,0-4.396-0.225-5.748-0.789
		c-1.353-0.564-2.029-1.24-2.029-2.142c0-1.465,0.676-2.254,2.142-2.254c0.338,0,0.789,0.113,1.465,0.338
		c1.014,0.338,1.578,0.451,1.916,0.564c0.564-5.636,0.902-10.369,0.902-14.089c0-6.086-0.789-11.609-2.367-16.681
		c-0.676,0.113-1.353,0.225-2.142,0.564c-0.676,0.225-1.24,0.338-1.465,0.338c-0.451,0-0.789-0.225-1.127-0.564
		c-0.338-0.451-0.451-0.902-0.451-1.465c0-2.029,2.142-3.043,6.537-3.043c2.818,0,5.185,0.451,6.763,1.24
		c1.578,0.789,2.367,1.691,2.367,2.93c0,1.127-0.451,1.691-1.353,1.691c-0.225,0-0.789-0.113-1.578-0.451
		c-1.127-0.338-2.029-0.676-2.93-0.789c1.465,5.185,2.254,10.595,2.254,16.23c0,3.719-0.338,8.341-1.014,14.202
		c0.564-0.113,1.353-0.451,2.48-0.902c0.789-0.338,1.353-0.451,1.691-0.451c0.451,0,0.902,0.225,1.24,0.564
		C63.087,177.01,63.2,177.461,63.2,178.025z"/>
	<path d="M96.562,144.099c0-0.113-0.113,1.014-0.225,3.156c-0.225,2.592-0.338,5.297-0.451,8.228
		c-0.113,4.17-0.225,8.566-0.225,13.3c0,1.014,0,1.916,0,2.93s0,1.578,0,1.578c0,2.142-0.676,3.156-2.029,3.156
		c-1.465,0-2.254-1.24-2.254-3.607c0-0.564,0-1.014,0-1.353c-2.705,2.592-5.748,3.945-9.355,3.945c-2.93,0-5.297-0.902-6.988-2.818
		c-1.691-1.916-2.592-4.508-2.592-7.89c0-4.508,1.24-8.228,3.719-11.046c2.48-2.818,5.748-4.17,9.806-4.17
		c1.916,0,3.832,0.451,5.861,1.353c0.113-3.945,0.225-6.312,0.451-7.101c0.338-1.465,1.127-2.142,2.367-2.142
		C95.999,141.732,96.562,142.521,96.562,144.099z M91.828,155.144c-1.803-1.127-3.719-1.691-5.636-1.691
		c-2.93,0-5.185,1.014-6.875,3.043c-1.691,2.029-2.48,4.734-2.48,8.115c0,2.367,0.564,4.17,1.691,5.41
		c1.127,1.24,2.705,1.916,4.621,1.916c2.48,0,4.396-0.789,5.636-2.48c0.338-0.564,0.676-1.127,1.127-1.691
		c0.451-0.564,0.902-0.902,1.578-1.014C91.603,162.696,91.603,158.864,91.828,155.144z"/>
	<path d="M105.016,152.101c0,8.566-0.338,14.878-0.902,18.936c-0.225,1.691-0.564,2.705-0.789,3.269
		c-0.338,0.789-1.014,1.127-1.803,1.127c-0.564,0-1.014-0.225-1.465-0.564c-0.451-0.338-0.564-0.789-0.564-1.353
		c0,0.113,0.113-0.451,0.338-1.465c0.225-1.24,0.451-2.592,0.676-4.058c0.225-2.141,0.338-4.508,0.338-7.214
		c0-1.127,0-2.367,0-3.719c0-1.353,0-2.029,0-2.142c0-1.916,0.113-3.269,0.451-3.945c0.338-0.789,1.014-1.24,1.916-1.24
		C104.339,149.847,105.016,150.636,105.016,152.101z M105.917,143.986c0,2.029-1.014,3.043-2.93,3.043
		c-0.789,0-1.465-0.225-2.029-0.789c-0.564-0.564-0.789-1.24-0.789-2.029c0-0.902,0.338-1.578,0.902-2.142
		c0.564-0.564,1.353-0.902,2.142-0.902c0.789,0,1.465,0.225,1.916,0.789C105.692,142.521,105.917,143.197,105.917,143.986z"/>
	<path d="M131.503,144.099c0-0.113-0.113,1.014-0.225,3.156c-0.225,2.592-0.338,5.297-0.451,8.228
		c-0.113,4.17-0.225,8.566-0.225,13.3c0,1.014,0,1.916,0,2.93s0,1.578,0,1.578c0,2.142-0.676,3.156-2.029,3.156
		c-1.465,0-2.254-1.24-2.254-3.607c0-0.564,0-1.014,0-1.353c-2.705,2.592-5.748,3.945-9.355,3.945c-2.93,0-5.297-0.902-6.988-2.818
		c-1.691-1.916-2.592-4.508-2.592-7.89c0-4.508,1.24-8.228,3.719-11.046c2.48-2.818,5.748-4.17,9.806-4.17
		c1.916,0,3.832,0.451,5.861,1.353c0.113-3.945,0.225-6.312,0.451-7.101c0.338-1.465,1.127-2.142,2.367-2.142
		C130.939,141.732,131.503,142.521,131.503,144.099z M126.769,155.144c-1.803-1.127-3.719-1.691-5.636-1.691
		c-2.93,0-5.185,1.014-6.875,3.043c-1.691,2.029-2.48,4.734-2.48,8.115c0,2.367,0.564,4.17,1.691,5.41
		c1.127,1.24,2.705,1.916,4.621,1.916c2.48,0,4.396-0.789,5.636-2.48c0.338-0.564,0.676-1.127,1.127-1.691
		c0.451-0.564,0.902-0.902,1.578-1.014C126.544,162.696,126.656,158.864,126.769,155.144z"/>
	<path d="M150.438,152.101c0,8.566-0.338,14.878-0.902,18.936c-0.225,1.691-0.564,2.705-0.789,3.269
		c-0.338,0.789-1.014,1.127-1.803,1.127c-0.564,0-1.014-0.225-1.465-0.564c-0.451-0.338-0.564-0.789-0.564-1.353
		c0,0.113,0.113-0.451,0.338-1.465c0.225-1.24,0.451-2.592,0.676-4.058c0.225-2.141,0.338-4.508,0.338-7.214
		c0-1.127,0-2.367,0-3.719c0-1.353,0-2.029,0-2.142c0-1.916,0.113-3.269,0.451-3.945c0.338-0.789,1.014-1.24,1.916-1.24
		C149.762,149.847,150.438,150.636,150.438,152.101z M151.34,143.986c0,2.029-1.014,3.043-2.931,3.043
		c-0.789,0-1.465-0.225-2.029-0.789c-0.564-0.564-0.789-1.24-0.789-2.029c0-0.902,0.338-1.578,0.902-2.142
		c0.564-0.564,1.353-0.902,2.142-0.902c0.789,0,1.465,0.225,1.916,0.789C151.115,142.521,151.34,143.197,151.34,143.986z"/>
	<path d="M171.853,156.497c0,0.451-0.113,0.902-0.451,1.24c-0.338,0.338-0.676,0.564-1.127,0.564c-0.225,0-1.014-0.225-2.48-0.789
		c-1.465-0.564-2.818-0.789-4.17-0.789c-0.451,0-0.902,0-1.353,0.113c-0.564,2.254-0.789,4.396-0.789,6.312
		c0,2.48,0.451,4.396,1.24,5.748c0.789,1.353,2.029,2.029,3.494,2.029c0.451,0,1.014-0.113,1.803-0.451
		c0.789-0.338,1.24-0.451,1.578-0.451c1.127,0,1.691,0.676,1.691,2.029c0,0.902-0.451,1.578-1.353,2.142
		c-0.902,0.564-2.254,0.789-3.832,0.789c-5.974,0-9.017-4.058-9.017-12.06c0-1.691,0.225-3.494,0.564-5.523
		c-0.451,0.113-1.24,0.225-2.592,0.451c-0.902,0.225-1.465,0.225-1.916,0.225c-1.465,0-2.254-0.564-2.254-1.691
		c0-1.578,2.592-2.592,7.89-3.156c1.127-3.381,2.367-5.072,3.945-5.072c0.451,0,0.902,0.225,1.24,0.564s0.564,0.789,0.564,1.24
		c0,0.338-0.113,0.789-0.338,1.353c-0.225,0.564-0.451,1.127-0.676,1.691C169.148,153.003,171.853,154.243,171.853,156.497z"/>
</g>
<circle fill="#2D9598" cx="37.952" cy="96.647" r="1.353"/>
</svg>
