<?xml version="1.0" encoding="utf-8"?>
<!-- Generator: Adobe Illustrator 17.0.0, SVG Export Plug-In . SVG Version: 6.00 Build 0)  -->
<!DOCTYPE svg PUBLIC "-//W3C//DTD SVG 1.1//EN" "http://www.w3.org/Graphics/SVG/1.1/DTD/svg11.dtd">
<svg version="1.1" id="Layer_1" xmlns="http://www.w3.org/2000/svg" xmlns:xlink="http://www.w3.org/1999/xlink" x="0px" y="0px"
	 width="111.177px" height="180px" viewBox="44.411 10 111.177 180" enable-background="new 44.411 10 111.177 180"
	 xml:space="preserve">
<path d="M132.299,31.966c0.306-2.45,1.225-4.798,0.204-7.351c-0.715-1.838-0.613-1.838-2.552-1.429
	c-3.471,0.817-7.044,1.736-10.72,2.552c0.715,0.919,1.429,1.633,2.042,2.552c1.838,2.45,2.756,5.309,2.859,8.372
	c0,0.919-0.306,1.225-1.225,1.429c-6.432,1.021-12.557,3.267-18.377,6.228c-1.633,0.817-3.165,1.838-4.492,3.063
	c-0.306,0.306-0.51,0.613-1.123,0.204c-4.186-3.777-9.392-5.411-14.497-7.249c-2.756-1.021-5.615-1.838-8.576-2.144
	c-0.817-0.102-1.021-0.408-1.021-1.225c-0.102-3.982,1.531-7.249,4.084-10.209c0.204-0.204,0.51-0.306,0.408-0.817
	c-7.249-1.736-14.599-3.573-21.848-5.411c0-0.102,0-0.204,0-0.306c2.859-0.715,5.819-1.429,8.678-2.144
	c10.72-2.654,21.439-5.309,32.261-7.963c0.51-0.102,0.919-0.204,1.429,0c13.782,3.369,27.463,6.738,41.245,10.311
	c-2.246,0.51-4.39,1.123-6.636,1.633c-0.306,0.102-0.613,0.204-0.817,0.204c-0.919,0.102-0.919,0.408-0.613,1.225
	c1.021,2.552,0.817,5.309,1.531,7.963c0,0.51,0,1.021,0,1.633c0,0.715-0.51,0.817-1.021,0.817c-0.51,0-1.021,0-1.225-0.613
	C132.197,32.884,132.299,32.476,132.299,31.966z"/>
<g>
	<g>
		<path fill="#FEBB12" d="M59.303,158.866c-0.102,0-0.102,0.408-0.102,0.51C59.405,159.274,59.303,158.764,59.303,158.866z"/>
		<polygon fill="#FEBB12" points="61.039,157.947 61.039,158.049 61.345,157.641 		"/>
		<path fill="#FEBB12" d="M62.672,157.947c-0.204-0.715-0.613,0.102-0.919-0.102v-0.204l-0.102,0.613
			C61.958,158.151,62.468,157.743,62.672,157.947z"/>
		<path fill="#FEBB12" d="M63.591,159.478c-0.102-0.306,0.204-0.204-0.204-0.102c0,0,0,0,0,0.102
			C63.489,159.478,63.489,159.478,63.591,159.478z"/>
		<path fill="#FEBB12" d="M63.387,159.478C63.285,159.478,63.489,159.682,63.387,159.478L63.387,159.478z"/>
		<path fill="#FEBB12" d="M64.204,159.376l-0.204,0.204c0,0.204,0.204,0.204,0.204,0.306
			C64.408,159.784,64.306,159.58,64.204,159.376z"/>
		<path fill="#FEBB12" d="M64.408,158.764l-0.102,0.102C64.306,158.968,64.408,158.968,64.408,158.764z"/>
		<path fill="#FEBB12" d="M64.102,159.172l0.204-0.204c0-0.102,0-0.306-0.102,0.102C64.204,158.764,64.204,158.968,64.102,159.172z"
			/>
		<path fill="#FEBB12" d="M63.897,158.968c-0.102-0.204-0.306-0.306-0.102-0.51C63.387,158.559,63.489,159.07,63.897,158.968z"/>
		<path fill="#FEBB12" d="M62.774,157.13l-0.204-0.204l-0.102,0.204C62.57,157.13,62.774,157.436,62.774,157.13z"/>
		<path fill="#FEBB12" d="M65.633,159.682c0-0.204-0.102-0.408-0.102-0.613l-0.204,0.204
			C65.429,159.376,65.633,159.478,65.633,159.682z"/>
		<path fill="#FEBB12" d="M65.531,159.07l0.204-0.306C65.531,158.764,65.531,158.968,65.531,159.07z"/>
		<path fill="#FEBB12" d="M64.51,157.947l-0.408,0.613L64.51,157.947z"/>
		<polygon fill="#FEBB12" points="66.552,159.682 66.45,160.091 66.756,159.58 		"/>
		<path fill="#FEBB12" d="M67.266,159.682c-0.102,0.306,0.102,0.51,0,0.715c0.204-0.102,0.306-0.306,0.408-0.51
			C67.573,159.887,67.471,159.887,67.266,159.682z"/>
		<path fill="#FEBB12" d="M67.981,159.478c-0.102,0.102-0.102,0.204-0.204,0.306C67.777,159.784,67.879,159.682,67.981,159.478z"/>
		<path fill="#FEBB12" d="M66.245,158.866c0,0.102,0.102,0.306,0.204,0.408L66.245,158.866L66.245,158.866z"/>
		<path fill="#FEBB12" d="M66.348,158.866L66.348,158.866c0.102,0,0.204,0,0.204,0C66.552,158.968,66.45,158.968,66.348,158.866z"/>
		<path fill="#FEBB12" d="M66.245,158.866L66.245,158.866L66.245,158.866z"/>
		<path fill="#FEBB12" d="M65.122,158.355c0.102-0.204,0.408-0.51,0.204-0.919C65.225,157.845,65.327,158.049,65.122,158.355z"/>
		<path fill="#FEBB12" d="M66.041,158.355l-0.306-0.102c0,0.102,0.102,0.306,0,0.408L66.041,158.355z"/>
		<polygon fill="#FEBB12" points="66.245,158.253 66.041,158.355 66.143,158.355 		"/>
		<path fill="#FEBB12" d="M67.471,159.07c0.102-0.204,0.204-0.204,0.408-0.204c-0.102-0.102-0.306-0.102-0.51-0.102
			C67.368,158.866,67.368,159.07,67.471,159.07z"/>
		<path fill="#FEBB12" d="M66.96,158.968L66.96,158.968C66.96,158.866,66.96,158.866,66.96,158.968z"/>
		<path fill="#FEBB12" d="M69.308,158.866C69.308,158.764,69.206,158.764,69.308,158.866
			C69.206,158.764,69.206,158.764,69.308,158.866L69.308,158.866z"/>
		<path fill="#FEBB12" d="M67.368,158.661c-0.102-0.102-0.204,0-0.204,0.204C67.266,158.764,67.266,158.661,67.368,158.661
			C67.368,158.661,67.368,158.559,67.368,158.661z"/>
		<path fill="#FEBB12" d="M68.287,159.274c-0.102-0.102-0.102-0.204-0.204-0.204C68.185,159.172,68.287,159.376,68.287,159.274z"/>
		<path fill="#FEBB12" d="M66.96,159.07L66.96,159.07C66.96,159.172,66.96,159.07,66.96,159.07z"/>
		<path fill="#FEBB12" d="M66.96,159.07c0.102-0.102,0.102-0.204,0.102-0.306c-0.102,0-0.102,0.102-0.204,0.102
			C66.96,158.968,66.96,158.968,66.96,159.07z"/>
		<path fill="#FEBB12" d="M69.717,156.007c0,0.408-0.306,0.817-0.613,0.306c-0.306,0.306-0.102,1.633,0.102,2.348
			c0-0.204,0-0.306,0.306-0.613c-0.102-0.204-0.613-0.51-0.408-0.919c0.306-0.204,0.306,0.102,0.408,0.306
			c-0.102-0.51,0.408-0.715,0.408-1.429l-0.306,0.306C69.717,156.313,69.819,156.109,69.717,156.007z"/>
		<path fill="#FEBB12" d="M68.696,158.764h-0.102c0.102,0.102,0.204,0.204,0.408,0.51c0.204-0.204,0.204-0.306,0.204-0.51H68.696
			L68.696,158.764z"/>
		<path fill="#FEBB12" d="M68.185,158.764c0.102-0.408,0.306-0.613,0.204-1.123c-0.306,0-0.204,0.408-0.408,0.51
			C68.389,158.151,67.777,158.457,68.185,158.764c-0.102,0-0.204,0-0.306,0.102c0.102,0.102,0.204,0.102,0.306,0.204l0,0l0,0l0,0
			c0-0.102,0-0.102,0-0.102l0,0C68.083,158.866,68.185,158.866,68.185,158.764c0.102,0.102,0,0.102,0,0.204c0,0,0,0,0,0.102l0,0
			l0.51-0.204C68.492,158.661,68.389,158.764,68.185,158.764z"/>
		<path fill="#FEBB12" d="M65.531,156.518v0.102C65.633,156.62,65.633,156.62,65.531,156.518z"/>
		<path fill="#FEBB12" d="M65.735,156.824c0,0.102-0.102,0.204-0.204,0.204c-0.102-0.102,0-0.204,0-0.306
			c-0.102,0.102-0.306,0.306,0,0.51v-0.102c0.204,0.102,0.51,0.715,0.408,0.715C65.939,157.538,65.939,157.232,65.735,156.824z"/>
		<path fill="#FEBB12" d="M66.96,157.641l0.408-0.204l-0.204-0.408v0.204C66.96,157.232,66.96,157.538,66.96,157.641z"/>
		<polygon fill="#FEBB12" points="69.308,159.07 69.308,159.478 69.512,158.866 		"/>
		<polygon fill="#FEBB12" points="69.921,158.968 69.819,159.376 70.023,159.172 		"/>
		<path fill="#FEBB12" d="M101.365,153.965l0.102-0.102C101.365,153.863,101.365,153.965,101.365,153.965z"/>
		<path fill="#FEBB12" d="M100.446,153.965v0.204C100.446,154.067,100.446,153.965,100.446,153.965z"/>
		<path fill="#FEBB12" d="M83.601,158.968c0.204,0.408,0.408,0.919,0.408,0.51l-0.102-0.408
			C83.703,159.07,83.601,159.07,83.601,158.968z"/>
		<path fill="#FEBB12" d="M92.891,156.313c0,0,0-0.102-0.102-0.102c0,0.102-0.102,0.306-0.102,0.408
			C92.789,156.518,92.891,156.415,92.891,156.313z"/>
		<path fill="#FEBB12" d="M93.096,154.476l0.204,0.306C93.3,154.68,93.198,154.578,93.096,154.476z"/>
		<path fill="#FEBB12" d="M106.265,153.557l0.102-0.408C106.265,153.046,106.368,153.251,106.265,153.557z"/>
		<path fill="#FEBB12" d="M75.536,158.866c0.204,0.204,0.306,0.204,0.408,0.306C75.74,158.866,75.638,158.457,75.536,158.866z"/>
		<path fill="#FEBB12" d="M100.957,158.661c0.102-0.102,0.102-0.204,0.102-0.306C100.957,158.457,100.957,158.559,100.957,158.661z"
			/>
		<path fill="#FEBB12" d="M76.455,159.07l-0.102-0.102c-0.102,0.102-0.204,0.102-0.408,0.102
			C76.148,159.274,76.25,159.376,76.455,159.07z"/>
		<path fill="#FEBB12" d="M124.336,153.863C124.438,153.863,124.438,153.863,124.336,153.863
			C124.438,153.863,124.438,153.863,124.336,153.863z"/>
		<path fill="#FEBB12" d="M129.645,158.355c-0.102,0-0.102,0-0.204,0C129.44,158.457,129.542,158.457,129.645,158.355z"/>
		<path fill="#FEBB12" d="M72.167,159.172C71.963,159.172,72.065,159.274,72.167,159.172L72.167,159.172z"/>
		<path fill="#FEBB12" d="M71.554,157.436c0,0,0-0.102,0-0.204C71.554,157.334,71.554,157.436,71.554,157.436z"/>
		<path fill="#FEBB12" d="M77.578,156.313L77.578,156.313C77.578,156.211,77.578,156.313,77.578,156.313z"/>
		<path fill="#FEBB12" d="M71.963,158.968c0,0.102,0.102,0.102,0.102,0.102C72.065,159.07,72.065,159.07,71.963,158.968z"/>
		<path fill="#FEBB12" d="M71.963,159.172h-0.102C71.861,159.274,71.861,159.274,71.963,159.172z"/>
		<path fill="#FEBB12" d="M72.269,159.172c-0.102,0-0.102,0-0.204,0v0.102C72.167,159.172,72.167,159.172,72.269,159.172z"/>
		<path fill="#FEBB12" d="M114.739,155.088L114.739,155.088C114.841,154.884,114.841,154.986,114.739,155.088z"/>
		<path fill="#FEBB12" d="M86.664,154.374L86.664,154.374L86.664,154.374L86.664,154.374z"/>
		<path fill="#FEBB12" d="M87.072,154.067c-0.204,0.51-0.306,0.51-0.408,0.408l0.102,1.327L87.072,154.067z"/>
		<path fill="#FEBB12" d="M103.509,153.863l-0.306-0.408c0.408-0.613,0.613-0.408,0.306-1.021c0,1.429-1.123,0.102-1.225,1.531
			l-0.204-0.306c0.102,0,0.102-0.102,0.102-0.102c-0.408-0.715-0.306,1.021-0.817,0.817c-0.204-0.102-0.306-0.306-0.204-0.51
			l-0.408,0.306c-0.102,0-0.102-0.306,0-0.204l-0.613,0.102l0,0c-0.102,0.204-0.306,0.51-0.408,0.715
			c-0.102-0.204,0.102-0.102,0-0.306l-0.306,0.306c-0.102-0.408,0.102-0.715,0.408-0.613c-0.306-1.429-0.306,0.306-0.919-0.51
			l0.306-0.204c-0.204-0.817-0.408-0.51-0.817-1.021c0.102,0.306,0.715,1.225,0.306,1.531c-0.102-0.102-0.204-0.204-0.408,0.102
			c0-0.51-0.204-0.408-0.408-0.306v-0.613c-0.204,0.204-0.204,0.51-0.408,0.817c-0.306-0.102-0.306-0.613-0.408-1.021
			c-0.408-0.102,0.306,0.817-0.204,0.919c-0.408-0.204-0.613,0-1.123,0.408c-0.306-0.204,0-0.408,0-0.613l-0.204,0.51
			c-0.102,0,0-0.204,0-0.204c-0.204,0.204,0,0.613-0.306,0.817c-0.102,0.715-0.613-1.021-1.021-0.204c-0.102-0.204,0-0.408,0-0.613
			c-0.51,0.51-0.408,0.408-0.919,1.123l-0.408-0.408c0.306,0.51-0.102,1.021-0.408,1.531c0.102,0.204,0.204,0.408,0.204,0.51
			l-0.51,0.306c-0.102-0.102,0-0.306,0.102-0.613c0,0.102-0.102,0.102-0.102,0.204c-0.204-0.204-0.102-0.613,0-1.021
			c0.102,0.102,0.102,0.306,0.204,0.408c0.102-0.408,0.204-0.817,0.204-1.225c0,0.102-0.102,0.102-0.204,0.204
			c0-0.102,0-0.204,0-0.306s-0.102,0.102-0.102,0.204l-0.102-0.715v0.306l-0.613-0.408c-0.408,0.715-0.817,1.838-1.531,2.144
			c0.204-0.51,0-0.919,0-1.531c0.204,0.715,0.51-0.306,0.919-0.102c-0.204-0.102-0.102-0.408-0.102-0.51l-0.613,0.613
			c0-0.51-0.102-0.408-0.306-0.613c0.102,1.021-0.51,0.715-0.715,1.021c0-0.306,0-0.715,0.408-0.613
			c-0.408-0.817-0.51,1.225-0.817,0.51c0.102,0,0.102,0,0.102-0.102c-0.204,0.306-0.613,0.102-0.51-0.204h0.102
			c-0.51-0.102-1.633,0-1.633,0.817c0-0.102,0.102-1.021,0.102-1.225l-0.919,2.961c0.102-0.715-0.204-2.552,0.204-2.961
			c-0.102-0.102-0.306-0.204-0.51,0c0.102,0.102,0.204,1.123,0.102,1.123c-0.306-0.817-0.204-0.408-0.613-1.123
			c0.102,0.204,0,1.327-0.204,1.327c0-0.204,0-1.123,0.102-1.327l-0.51,1.123c0.102-0.204,0-1.021-0.102-1.327
			c0.102,0.204-0.408,0-0.613,0.102l0.204,0.306c-0.613-0.204-0.51,1.633-1.123,1.531c0.102-0.204,0.204-1.429-0.102-1.633
			c-0.102,0.613-0.613,2.859-1.123,3.267l-0.102-0.306l-0.408,0.408c0.204-0.919,0.919-2.756,1.225-3.471
			c-0.204-0.306-0.102-0.408-0.408-0.408c-0.102-0.306,0.204-0.51,0.306-0.51l-0.715-0.204c0,0.715-0.613,0.715-0.51,1.225
			l0.817-0.715c0,0.715-0.51,1.94-1.021,1.838c-0.102-0.306,0.102-1.225,0.102-1.429c-0.102,0.204-0.51,0.408-0.51,0.306
			l0.204-0.408c-0.306-0.306-0.51,0.919-0.817,0.204c-0.102,0-0.408-0.919-0.408-0.51c0.204,0.817,0.204,3.165,0.102,3.777
			c0-0.102-0.613-0.715-0.817-1.123c-0.204-0.613,0.306-1.429,0.102-2.042c0,0.204-0.102,0.408-0.204,0.51
			c-0.102-0.204,0.102-0.613-0.204-0.51c0,0.715-0.613-0.102-0.102,0.613c-0.306,0.204-0.306-0.102-0.613-0.102
			c0.102,0.408-0.306,1.531-0.51,1.736c0-0.204,0-0.408-0.102-0.51c-0.51-0.102-0.817-0.408-1.327-0.408
			c0-0.204-0.306-0.408-0.204-0.715c-0.102,0.102-0.102,0.408-0.306,0.408c-0.306-0.613,0.306-0.102,0.102-0.817
			c0,0.408-0.408,0.51-0.613,0.817c0.102,0.613,0.51,0.102,0.715-0.102c0,0.817-0.408,1.736-0.919,2.144
			c-0.408,0.204-0.204-0.51-0.306-0.408c-0.817-0.102-0.715,1.531-1.327,0.919c-0.306-0.51,0-1.123-0.102-1.531
			c0.306-0.204,0.51,0.306,0.817,0.306l-0.306-0.306c0.102-0.204,0.306-0.306,0.51-0.204c-0.204-0.51-1.327-0.102-1.94-0.51
			c-0.102,0.204-0.306,0.408-0.204,0.613l0.204-0.102c0.204,0.408-0.408,0.613-0.102,0.817c-0.306,0.306-0.51,0.817-0.919,0.51
			l-0.102-0.613c0,0.204,0.204,0.408,0.306,0.204c-0.204,0.306-0.613-0.817-0.715,0l0.306,0.408
			c-0.306,0.306-0.613,1.021-0.919,0.817c0.102,0.613,0.102-0.102,0.306,0.613c-0.204-0.919,0.817,0,0.51-0.919
			c0.204,0.817,0.408,0.306,0.715,1.021c0-0.204-0.102-0.408,0.204-0.306c0-0.102,0-0.102,0.102-0.204l0,0l0,0l0,0
			c-0.102-0.102-0.102-0.204-0.102-0.306c0.102-0.51,0.613-0.408,0.715-0.715c0.204,0.102-0.102,0.204,0,0.408l0.204-0.408
			c0,0.408,0.408,0.715,0,1.021h0.306c0.204,0.306,0.51,0.408,0.613,0.204c0.204,0.102,0.408-0.51,0.306-0.102l0.51-0.306v0.102
			c0.51,0.102,1.123-0.715,1.736,0.102c0.204-0.102,0.408-0.306,0.715-0.102l0.102,0.408c0.204-0.102,0.715,0.408,0.817,0
			c0.204,1.021,1.123,0.204,1.531,0.408v-0.51c0.306,0,0.51-0.102,0.919-0.306v-0.408c0.306-0.408,0.817,0.306,1.225,0.306
			c0,0.204-0.204,0.102-0.204,0c0.613,1.021,1.225-0.715,1.736,0c0.102-0.204,0.204-0.102,0.306,0l0,0c0,0,0,0,0.102,0
			c0.102,0.102,0.102,0.204,0.204,0.204c-0.102-0.102-0.102-0.204-0.102-0.204c0.102,0,0.204-0.102,0.408-0.204l0.102,0.51l0,0
			c0.102,0.204,0.102-0.204,0-0.613c0.102-0.102,0.102-0.204,0.204-0.306c0.102,0.817,0.408-0.306,0.51,0.613
			c0.102-0.408,0.715-0.306,0.817-1.225c0,0.102,0,0.204,0,0.204c0.204,0.102,0.306,0.204,0.51,0l0.102,0.613l0.408-0.817
			c0.204,0.408,0.306,0.613,0.102,1.123c0.51-0.715,0.408-0.306,0.919-1.021v0.408c0.204,0,0.408-0.51,0.51-0.204
			c0.306,0.817,1.736,0.102,2.654,0.817c-0.204-1.225,0.408,0.51,0.51-0.408c0.102,0.306,0.204,0.408,0,0.715
			c0.51-0.306,0.715,0.408,1.021-0.306c0.102,0.306-0.102,0.408-0.102,0.613c0-0.102,0.102-0.204,0.204-0.102
			c0,0.204-0.102,0.204-0.102,0.408c0.51,0,0.51-0.919,0.51-1.736c0.204,0.408,0.408,0.306,0.51-0.204
			c0.102,0.306,0.204,0.51-0.102,0.613c0.204,0,1.021,0.408,1.021-0.306c0.102,0.204,0.204,0,0.306,0c0.408,0,0.408,0.102,0.817,0
			l-0.102-0.102c0.102-0.817,0.306-0.204,0.613-0.306v0.102c0.715,0.613,0.306-0.306,0.919,0.408v-0.51
			c0.102-1.021,0.613,0.613,1.021,0.204l-0.102-0.306c0.204-0.408,0.613,1.429,0.817,1.531c0,0.102-0.102,0.102-0.102,0.204
			c0.51,0.613,0.102-0.613,0.51-0.817c0.102,0.306-0.102,0.919,0.204,0.919c0.102,0.306,0.817-1.123,1.225-0.51
			c-0.102-0.306-0.204-0.51,0-0.715c0.306-0.102,0.817,1.021,1.021,0.204c0,0.102,0.102,0.102,0.102,0.204
			c0.204-0.204,0.715-0.408,0.919-0.817c0.204,1.736,1.429-0.817,1.429,0.715l0.715-0.102v0.204
			c0.408,0.102,0.613-0.306,0.715-0.613c0.102,0.102,0,0.204,0,0.306c0.613,0.306,0.715,0.204,1.225-0.51l0.102,0.51
			c0.102-0.306,0.919,0.817,1.531,0.204c0,0.102,0,0.204-0.102,0.204c0.715-0.613,1.736,1.429,1.94-0.408l0.51-0.408
			c-0.613-0.102,0.102-0.817-0.204-1.123c0.204-0.102,0.613,0.51,0.306,0.613v-0.102c-0.102,0.919,0.715,0.306,0.715,1.021
			c1.225,0,2.348,0.51,3.471,0.51l-0.102-0.715h0.408c0.102,0.204,0.102,0.613-0.102,0.51c0.102,0.408,0.51-0.306,0.51-0.51
			c0.51,0.306-0.204,0.919,0,0.919l0.204-0.102l-0.102-0.102c0.204-0.306,0.204-0.613,0.51-0.613c0.204,0.102,0.102,0.51,0.204,0.51
			c0,0.102,0,0.102,0.102,0l0.51,0.102l-0.204-0.613c0.204-0.306,0.51,0,0.204-0.613c0.306,1.021,1.838,0.408,2.042,0.715
			c0.306-0.408,0.613-0.408,1.021-0.408c-0.102-0.102-0.102-0.817,0.204-0.715c-0.102,1.327,0.613,0.613,0.817,1.531
			c-0.204-0.613,0.919-0.204,0.51-1.123c0.306,0.102,0,0.51,0.204,0.817c0.613-0.51,1.429,0.306,2.246,0.204
			c0-0.204-0.102-0.408,0-0.715l0.408,0.919c0.204-0.102,0.102-1.021,0.408-0.408c0-0.102-0.102-0.408,0-0.408
			c1.531,0.919,3.165-0.715,4.798,0.919c-0.204-0.306-0.102-0.408,0.102-0.408c-0.102-0.102,0-0.408,0-0.715l0.715,0.715
			c0.102-0.715,0.715,0,0.817-0.715l-0.204,0.102c0.306-0.715-0.408-1.736-0.306-2.654c-0.306,0.817-0.817-1.327-1.327,0
			c-0.102-0.204,0.102-0.306,0-0.51c-0.102,0.408-0.306,0.51-0.613,0.306v-0.102c-0.817,0.102-1.123-0.306-2.042-0.613l0.102,0.51
			c-0.204-0.102-0.204-0.204-0.306-0.306c-0.204,0.715,0.51,0,0.306,0.817c-0.306-1.021-1.429,0-1.531-1.123
			c-0.306,0,0.102,0.51-0.204,0.51l-0.102-0.306l-0.102,0.408c-0.204-0.102-0.306-0.408-0.306-0.715c0,0,0.102-0.102,0.204-0.102
			c-0.306-0.306-0.715,0.102-0.817,0l0.306,0.204c-0.817,0.306-1.838-0.102-2.654,0.51l0.102,0.204
			c-0.613,0.408-0.51-0.204-1.123-0.102v-0.102c-0.102,0.204-0.306,0.306-0.51,0.306c0.204-0.306-0.306-0.51-0.102-0.817
			c-0.715,0.408-0.306,0.306-0.817,1.225l-0.102-0.408c-0.102,0.306-0.204,0.51-0.51,0.613c0.306-0.306-0.204-0.613,0.102-1.021
			c-0.715-0.817-1.021,0.817-1.327-0.408c-0.306,1.021,0.613,0.613,0.408,0.817c0.102,0.306-0.306,0.817-0.51,0.715
			c-0.204,0-0.408-1.327-0.919-1.327c0.102,0,0.102-0.102,0.102-0.102c-0.204-0.306-0.408,0.408-0.715-0.102
			c-0.102,0.613-0.306,0-0.408,0.817l0.51-0.204c-0.306,0.204-0.613,1.123-1.021,0.715c0-0.204,0.204-0.408,0.306-0.51
			c-0.102-0.204-0.306,0.204-0.408-0.102c0-0.817,0.613-0.204,0.919-0.817c-0.102-0.306-0.613,0.613-0.408-0.306
			c-0.204,1.123-0.51-0.102-0.919,0.715v-0.51c-0.102,0.102-0.204,0.306-0.306,0.306l0.204-0.613
			c-0.306,0.51-0.613-0.51-0.919-0.204c0.613,0,0.102,0.613,0.408,0.919c-0.817,0.613-0.408-1.225-1.327-1.021
			c0.102-0.102,0.408,0.306,0.204,0.51c-0.204-0.102-0.408-0.306-0.51-0.51c-0.613,0.102,0.102,0.51-0.204,0.817
			c-0.204-0.613-0.306,0.204-0.51,0.408v-0.51c-0.613-0.306-0.204,1.021-0.715,0.613l0.204-0.715l-0.306,0.204l0.102-0.51
			c-0.306,0.408-0.408,0.306-0.715,0.102c0.102,0.306,0,0.919-0.306,0.919c-0.204-0.306,0.102-0.51-0.306-0.408
			c0.102-0.306,0.204-0.715,0.408-0.204c0-0.204,0.102-0.306,0.102-0.51c-0.204-0.306-0.51-0.102-0.715-0.102
			c0.102,0,0.102,0,0.204,0.102l-0.613,0.715c-0.102-0.204,0-0.306,0.102-0.51c-0.102,0.102-0.204,0.306-0.408,0.306
			c0-0.408,0-0.817,0.306-1.021l-0.613,0.408c0-0.204-0.306-0.51-0.204-0.613c-0.306-0.204-0.817,0.817-1.225,0.51
			c0,0.102-0.102,0.102-0.102,0.204c-0.408-0.102-0.715-0.613-1.225,0l-0.306-0.715c-0.408,0.204,0.306,0.919-0.204,1.225
			c-0.408,0.204-0.204-0.613-0.306-0.817c-0.204,0.408-0.613,1.123-1.021,0.51C103.305,153.761,103.407,153.863,103.509,153.863z
			 M99.017,154.169c0.102-0.102,0.306-0.408,0.306-0.102C99.323,154.578,99.221,154.374,99.017,154.169z M92.279,155.395
			c0.102-0.204,0.204-0.102,0.306,0.102C92.483,155.497,92.381,155.497,92.279,155.395z M73.392,158.764L73.392,158.764
			C73.596,158.968,73.596,158.866,73.392,158.764z M72.984,158.559c0,0.102,0,0.102,0,0.204c0-0.102,0.102-0.102,0.204-0.102
			C73.188,158.559,73.086,158.457,72.984,158.559z M115.964,158.355l-0.102-0.102C116.066,158.151,115.964,158.253,115.964,158.355z
			"/>
		<path fill="#FEBB12" d="M93.096,154.68c0,0.102,0,0.204,0,0.306C93.096,154.884,93.096,154.782,93.096,154.68z"/>
		<path fill="#FEBB12" d="M106.265,153.557L106.265,153.557L106.265,153.557L106.265,153.557z"/>
		<path fill="#FEBB12" d="M79.211,154.374c0.102,0.102,0.102,0.204,0.204,0.204C79.415,154.578,79.313,154.476,79.211,154.374z"/>
		<path fill="#FEBB12" d="M70.942,159.376l0.306-0.102c-0.102,0-0.204-0.102-0.204-0.204
			C70.942,159.274,70.942,159.376,70.942,159.376z"/>
		<path fill="#FEBB12" d="M68.696,156.313c0,0.102-0.102,0-0.102,0.102v0.204C68.696,156.62,68.798,156.415,68.696,156.313z"/>
		<path fill="#FEBB12" d="M70.635,157.743c0-0.408-0.204-0.306-0.408-0.204l0,0C70.227,158.151,70.431,157.947,70.635,157.743z"/>
		<path fill="#FEBB12" d="M70.227,157.641c-0.102,0-0.102,0-0.204,0C70.023,157.845,70.125,157.641,70.227,157.641z"/>
		<path fill="#FEBB12" d="M72.473,158.866c-0.102-0.102-0.102,0.51-0.102,0.408C72.269,159.784,72.984,158.559,72.473,158.866z"/>
		<polygon fill="#FEBB12" points="70.533,156.415 70.533,156.926 70.635,156.518 		"/>
		<path fill="#FEBB12" d="M71.963,156.824l-0.306-0.102c0,0.102,0,0.102-0.102,0.204C71.758,156.824,71.963,156.926,71.963,156.824z
			"/>
		<path fill="#FEBB12" d="M71.554,156.824c-0.102,0-0.204,0-0.204,0.102C71.35,156.926,71.452,156.926,71.554,156.824z"/>
		<polygon fill="#FEBB12" points="70.942,156.211 70.942,156.313 71.146,156.415 		"/>
		<path fill="#FEBB12" d="M75.025,156.926l0.306-0.204c0-0.204-0.102-0.306-0.204-0.204
			C75.127,156.62,74.923,156.722,75.025,156.926z"/>
		<path fill="#FEBB12" d="M74.107,155.497c0.102,0.102,0.102,0.204,0.102,0.408v-0.613L74.107,155.497z"/>
		<path fill="#FEBB12" d="M75.025,155.292c0-0.204,0.408-0.51,0.102-0.51C75.025,155.088,74.719,155.19,75.025,155.292z"/>
		<polygon fill="#FEBB12" points="79.722,156.109 79.62,156.109 79.62,157.232 		"/>
		<path fill="#FEBB12" d="M83.805,153.659c-0.408-0.204-0.102,0.613-0.408,0.306c-0.102,0.204,0.306,0.204,0.204,0.51
			C83.805,154.169,83.907,154.374,83.805,153.659z"/>
		<path fill="#FEBB12" d="M83.601,154.476c0,0-0.102,0.102-0.102,0.204C83.601,154.578,83.601,154.476,83.601,154.476z"/>
		<polygon fill="#FEBB12" points="130.563,158.866 130.768,159.172 130.563,158.764 		"/>
		<path fill="#FEBB12" d="M130.972,158.151l0.102,0.613l0.102-0.613C131.176,158.253,131.074,158.253,130.972,158.151z"/>
		<path fill="#FEBB12" d="M98.404,152.842v0.204c0,0.204,0.102,0.204,0.204,0.204L98.404,152.842z"/>
		<polygon fill="#FEBB12" points="101.671,153.353 101.569,153.353 101.671,153.965 		"/>
		<path fill="#FEBB12" d="M104.326,152.536c-0.102,0-0.204,0.102-0.306,0.102C104.224,152.536,104.326,153.353,104.326,152.536z"/>
	</g>
	<g>
		<path fill="#FEBB12" d="M135.26,138.856c0.102,0,0.102-0.408,0.102-0.51C135.157,138.549,135.26,138.958,135.26,138.856z"/>
		<polygon fill="#FEBB12" points="133.524,139.877 133.524,139.672 133.32,140.081 		"/>
		<path fill="#FEBB12" d="M131.891,139.877c0.204,0.715,0.613-0.102,0.919,0.102v0.204l0.102-0.613
			C132.605,139.672,132.095,140.081,131.891,139.877z"/>
		<path fill="#FEBB12" d="M130.972,138.243c0.102,0.306-0.204,0.204,0.204,0.102c0,0,0,0,0-0.102
			C131.176,138.345,131.074,138.345,130.972,138.243z"/>
		<path fill="#FEBB12" d="M131.176,138.243C131.38,138.243,131.074,138.039,131.176,138.243L131.176,138.243z"/>
		<path fill="#FEBB12" d="M130.359,138.447l0.204-0.204c0-0.204-0.204-0.204-0.204-0.306
			C130.155,138.039,130.257,138.141,130.359,138.447z"/>
		<path fill="#FEBB12" d="M130.155,138.958l0.102-0.102C130.257,138.856,130.257,138.754,130.155,138.958z"/>
		<path fill="#FEBB12" d="M130.563,138.651l-0.204,0.204c0,0.102,0,0.306,0.102-0.102
			C130.359,139.06,130.461,138.856,130.563,138.651z"/>
		<path fill="#FEBB12" d="M130.665,138.754c0.102,0.204,0.306,0.306,0.102,0.51C131.176,139.162,131.074,138.651,130.665,138.754z"
			/>
		<path fill="#FEBB12" d="M131.788,140.591l0.204,0.204l0.102-0.204C131.993,140.693,131.788,140.387,131.788,140.591z"/>
		<path fill="#FEBB12" d="M128.93,138.039c0,0.204,0.102,0.408,0.102,0.613l0.204-0.204
			C129.134,138.447,128.93,138.345,128.93,138.039z"/>
		<path fill="#FEBB12" d="M129.032,138.651l-0.204,0.306C129.032,138.958,129.032,138.856,129.032,138.651z"/>
		<polygon fill="#FEBB12" points="130.155,139.774 130.563,139.264 130.053,139.774 		"/>
		<polygon fill="#FEBB12" points="128.011,138.039 128.113,137.733 127.909,138.243 		"/>
		<path fill="#FEBB12" d="M127.398,138.141c0.102-0.306-0.102-0.51,0-0.715c-0.204,0.102-0.306,0.306-0.408,0.51
			C126.99,137.835,127.194,137.835,127.398,138.141z"/>
		<path fill="#FEBB12" d="M126.684,138.345c0.102-0.102,0.102-0.204,0.204-0.306C126.786,138.039,126.684,138.141,126.684,138.345z"
			/>
		<path fill="#FEBB12" d="M128.419,138.856c0-0.102-0.102-0.306-0.204-0.408L128.419,138.856
			C128.317,138.856,128.317,138.856,128.419,138.856z"/>
		<path fill="#FEBB12" d="M128.317,138.856L128.317,138.856c-0.102,0-0.204,0-0.204,0S128.113,138.856,128.317,138.856z"/>
		<path fill="#FEBB12" d="M128.419,138.856L128.419,138.856C128.419,138.958,128.419,138.958,128.419,138.856z"/>
		<path fill="#FEBB12" d="M129.44,139.366c-0.102,0.204-0.408,0.51-0.204,0.919C129.44,139.979,129.236,139.774,129.44,139.366z"/>
		<path fill="#FEBB12" d="M128.521,139.468l0.306,0.102c0-0.102-0.102-0.306,0-0.408L128.521,139.468z"/>
		<polygon fill="#FEBB12" points="128.419,139.57 128.521,139.468 128.419,139.366 		"/>
		<path fill="#FEBB12" d="M127.092,138.754c-0.102,0.204-0.204,0.204-0.408,0.204c0.102,0.102,0.306,0.102,0.51,0.102
			C127.194,138.958,127.296,138.651,127.092,138.754z"/>
		<path fill="#FEBB12" d="M127.705,138.856L127.705,138.856C127.705,138.856,127.705,138.958,127.705,138.856z"/>
		<path fill="#FEBB12" d="M125.357,138.958L125.357,138.958L125.357,138.958L125.357,138.958z"/>
		<path fill="#FEBB12" d="M127.194,139.162c0.102,0.102,0.204,0,0.204-0.204C127.398,139.06,127.296,139.06,127.194,139.162
			L127.194,139.162z"/>
		<path fill="#FEBB12" d="M126.275,138.549c0.102,0.102,0.102,0.204,0.204,0.204C126.378,138.651,126.275,138.345,126.275,138.549z"
			/>
		<path fill="#FEBB12" d="M127.603,138.754L127.603,138.754C127.603,138.651,127.603,138.651,127.603,138.754z"/>
		<path fill="#FEBB12" d="M127.603,138.754c-0.102,0.102-0.102,0.204-0.102,0.306c0.102,0,0.102-0.102,0.204-0.102
			C127.603,138.856,127.603,138.754,127.603,138.754z"/>
		<path fill="#FEBB12" d="M124.948,141.714c0-0.408,0.306-0.817,0.613-0.306c0.306-0.306,0.102-1.633-0.102-2.348
			c0,0.204,0,0.306-0.306,0.613c0.102,0.204,0.613,0.51,0.408,0.919c-0.306,0.204-0.306-0.102-0.408-0.306
			c0.102,0.51-0.408,0.715-0.408,1.429l0.306-0.306C124.948,141.408,124.846,141.612,124.948,141.714z"/>
		<path fill="#FEBB12" d="M125.867,139.06h0.102c-0.102-0.102-0.204-0.204-0.408-0.51c-0.204,0.204-0.204,0.306-0.204,0.51H125.867
			L125.867,139.06z"/>
		<path fill="#FEBB12" d="M126.48,139.06c-0.102,0.408-0.306,0.613-0.204,1.123c0.306,0,0.204-0.408,0.408-0.51
			C126.173,139.672,126.786,139.366,126.48,139.06c0.102,0,0.204,0,0.306-0.102c-0.102-0.102-0.204-0.102-0.306-0.204l0,0l0,0l0,0
			c0,0.102,0,0.102,0,0.102l0,0C126.48,138.958,126.48,138.958,126.48,139.06c-0.102-0.102,0-0.102,0-0.204c0,0,0,0,0-0.102l0,0
			l-0.51,0.204C126.071,139.06,126.173,139.06,126.48,139.06z"/>
		<path fill="#FEBB12" d="M129.032,141.204v-0.102C128.93,141.204,128.93,141.204,129.032,141.204z"/>
		<path fill="#FEBB12" d="M128.828,141c0-0.102,0.102-0.204,0.204-0.204c0.102,0.102,0,0.204,0,0.306
			c0.102-0.102,0.306-0.306,0-0.51v0.102c-0.204-0.102-0.51-0.715-0.408-0.715C128.624,140.285,128.726,140.591,128.828,141z"/>
		<path fill="#FEBB12" d="M127.603,140.081l-0.408,0.204l0.204,0.408v-0.204C127.603,140.591,127.603,140.285,127.603,140.081z"/>
		<polygon fill="#FEBB12" points="125.255,138.754 125.357,138.243 125.05,138.958 		"/>
		<polygon fill="#FEBB12" points="124.744,138.754 124.744,138.345 124.54,138.651 		"/>
		<path fill="#FEBB12" d="M93.3,143.756l-0.102,0.102C93.198,143.858,93.198,143.858,93.3,143.756z"/>
		<path fill="#FEBB12" d="M94.219,143.858v-0.204C94.117,143.756,94.117,143.858,94.219,143.858z"/>
		<path fill="#FEBB12" d="M111.064,138.856c-0.204-0.408-0.408-0.919-0.408-0.51l0.102,0.408
			C110.86,138.651,110.962,138.754,111.064,138.856z"/>
		<path fill="#FEBB12" d="M101.671,141.51c0,0,0,0.102,0.102,0.102c0-0.102,0.102-0.306,0.102-0.408
			C101.773,141.306,101.671,141.408,101.671,141.51z"/>
		<path fill="#FEBB12" d="M101.569,143.348l-0.204-0.306C101.365,143.144,101.365,143.246,101.569,143.348z"/>
		<path fill="#FEBB12" d="M88.297,144.267l-0.102,0.408C88.399,144.675,88.297,144.471,88.297,144.267z"/>
		<path fill="#FEBB12" d="M119.027,138.958c-0.204-0.204-0.306-0.204-0.408-0.306C118.823,138.958,118.925,139.366,119.027,138.958z
			"/>
		<path fill="#FEBB12" d="M93.606,139.06c-0.102,0.102-0.102,0.204-0.102,0.306C93.606,139.264,93.606,139.162,93.606,139.06z"/>
		<path fill="#FEBB12" d="M118.108,138.651l0.102,0.102c0.102-0.102,0.204-0.102,0.408-0.102
			C118.517,138.447,118.312,138.345,118.108,138.651z"/>
		<path fill="#FEBB12" d="M70.227,143.858L70.227,143.858C70.125,143.858,70.227,143.96,70.227,143.858z"/>
		<path fill="#FEBB12" d="M64.918,139.468c0.102,0,0.102,0,0.204,0C65.122,139.366,65.02,139.366,64.918,139.468z"/>
		<path fill="#FEBB12" d="M122.498,138.549C122.6,138.549,122.498,138.549,122.498,138.549L122.498,138.549z"/>
		<path fill="#FEBB12" d="M123.009,140.387c0,0,0,0.102,0,0.204C123.009,140.489,123.009,140.387,123.009,140.387z"/>
		<path fill="#FEBB12" d="M116.985,141.408L116.985,141.408C116.985,141.51,116.985,141.51,116.985,141.408z"/>
		<path fill="#FEBB12" d="M122.6,138.754c0-0.102-0.102-0.102-0.102-0.102C122.498,138.651,122.6,138.754,122.6,138.754z"/>
		<path fill="#FEBB12" d="M122.6,138.549h0.102C122.702,138.549,122.702,138.549,122.6,138.549z"/>
		<path fill="#FEBB12" d="M122.294,138.651c0.102,0,0.102,0,0.204,0v-0.102C122.396,138.549,122.396,138.651,122.294,138.651z"/>
		<path fill="#FEBB12" d="M79.926,142.735C79.926,142.735,79.824,142.735,79.926,142.735
			C79.722,142.837,79.824,142.837,79.926,142.735z"/>
		<path fill="#FEBB12" d="M108.001,143.45L108.001,143.45C108.001,143.45,108.001,143.348,108.001,143.45L108.001,143.45z"/>
		<path fill="#FEBB12" d="M107.491,143.756c0.204-0.51,0.306-0.51,0.408-0.408l-0.102-1.327L107.491,143.756z"/>
		<path fill="#FEBB12" d="M91.054,143.96l0.306,0.408c-0.408,0.613-0.613,0.408-0.306,1.021c0-1.429,1.123-0.102,1.225-1.531
			l0.204,0.306c-0.102,0-0.102,0.102-0.102,0.102c0.408,0.715,0.306-1.021,0.817-0.817c0.204,0.102,0.306,0.306,0.204,0.51
			l0.408-0.306c0.102,0,0.102,0.306,0,0.204l0.613-0.102l0,0c0.102-0.204,0.306-0.51,0.408-0.715c0.102,0.204-0.102,0.102,0,0.306
			l0.306-0.306c0.102,0.408-0.102,0.715-0.408,0.613c0.306,1.429,0.306-0.306,0.919,0.51l-0.306,0.204
			c0.204,0.817,0.408,0.51,0.817,1.021c-0.102-0.306-0.715-1.225-0.306-1.531c0.102,0.102,0.204,0.204,0.408-0.102
			c0,0.51,0.204,0.408,0.408,0.306v0.613c0.204-0.204,0.204-0.51,0.408-0.817c0.306,0.102,0.306,0.613,0.408,1.021
			c0.408,0.102-0.306-0.817,0.204-0.919c0.408,0.204,0.613,0,1.123-0.408c0.306,0.204,0,0.408,0,0.613l0.204-0.51
			c0.102,0,0,0.204,0,0.204c0.204-0.204,0-0.613,0.306-0.817c0.102-0.715,0.613,1.021,1.021,0.204c0.102,0.204,0,0.408,0,0.613
			c0.51-0.51,0.408-0.408,0.919-1.123l0.408,0.408c-0.306-0.51,0.102-1.021,0.408-1.531c-0.102-0.204-0.204-0.408-0.204-0.51
			l0.51-0.306c0.102,0.102,0,0.306-0.102,0.613c0-0.102,0.102-0.102,0.102-0.204c0.204,0.204,0.102,0.613,0,1.021
			c-0.102-0.102-0.102-0.306-0.204-0.408c-0.102,0.408-0.204,0.817-0.204,1.225c0-0.102,0.102-0.102,0.204-0.204
			c0,0.102,0,0.204,0,0.306s0.102-0.102,0.102-0.204l0.102,0.715v-0.306l0.613,0.408c0.408-0.715,0.817-1.838,1.531-2.144
			c-0.204,0.51,0,0.919,0,1.531c-0.204-0.715-0.51,0.306-0.919,0.102c0.204,0.102,0.102,0.408,0.102,0.51l0.613-0.613
			c0,0.51,0.102,0.408,0.306,0.613c-0.102-1.021,0.51-0.715,0.715-1.021c0,0.306,0,0.715-0.408,0.613
			c0.306,0.817,0.51-1.225,0.817-0.51c-0.102,0-0.102,0-0.102,0.102c0.204-0.306,0.613-0.102,0.51,0.204h-0.102
			c0.51,0.102,1.633,0,1.633-0.817c0,0.102-0.102,1.021-0.102,1.225l0.919-2.961c-0.102,0.715,0.204,2.552-0.204,2.961
			c0.102,0.102,0.306,0.204,0.51,0c-0.102-0.102-0.204-1.123-0.102-1.123c0.306,0.817,0.204,0.408,0.613,1.123
			c-0.102-0.204,0-1.327,0.204-1.327c0,0.204,0,1.123-0.102,1.327l0.51-1.123c-0.102,0.204,0,1.021,0.102,1.327
			c-0.102-0.204,0.408,0,0.613-0.102l-0.204-0.306c0.613,0.204,0.51-1.633,1.123-1.531c-0.102,0.204-0.204,1.429,0.102,1.633
			c0.102-0.613,0.613-2.859,1.123-3.267l0.102,0.306l0.408-0.408c-0.204,0.919-0.919,2.756-1.225,3.471
			c0.204,0.306,0.102,0.408,0.408,0.408c0.102,0.306-0.204,0.51-0.306,0.51l0.715,0.204c0-0.715,0.613-0.715,0.51-1.225
			l-0.817,0.715c0-0.715,0.51-1.94,1.021-1.838c0.102,0.306-0.102,1.225-0.102,1.429c0.102-0.204,0.51-0.408,0.51-0.306
			l-0.204,0.408c0.306,0.306,0.51-0.919,0.817-0.204c0.102,0,0.408,0.919,0.408,0.51c-0.204-0.817-0.204-3.165-0.102-3.777
			c0,0.102,0.613,0.715,0.817,1.123c0.204,0.613-0.306,1.429-0.102,2.042c0-0.204,0.102-0.408,0.204-0.51
			c0.102,0.204-0.102,0.613,0.204,0.51c0-0.715,0.613,0.102,0.102-0.613c0.306-0.204,0.306,0.102,0.613,0.102
			c-0.102-0.408,0.306-1.531,0.51-1.736c0,0.204,0,0.408,0.102,0.51c0.51,0.102,0.817,0.408,1.327,0.408
			c0,0.204,0.306,0.408,0.204,0.715c0.102-0.102,0.102-0.408,0.306-0.408c0.306,0.613-0.306,0.102-0.102,0.817
			c0-0.408,0.408-0.51,0.613-0.817c-0.102-0.613-0.51-0.102-0.715,0.102c0-0.817,0.408-1.736,0.919-2.144
			c0.408-0.204,0.204,0.51,0.306,0.408c0.817,0.102,0.715-1.531,1.327-0.919c0.306,0.51,0,1.123,0.102,1.531
			c-0.306,0.204-0.51-0.306-0.817-0.306l0.306,0.306c-0.102,0.204-0.306,0.306-0.51,0.204c0.204,0.51,1.327,0.102,1.94,0.51
			c0.102-0.204,0.306-0.408,0.204-0.613l-0.204,0.102c-0.204-0.408,0.408-0.613,0.102-0.817c0.306-0.306,0.51-0.817,0.919-0.51
			l0.102,0.613c0-0.204-0.204-0.408-0.306-0.204c0.204-0.306,0.613,0.817,0.715,0l-0.306-0.408c0.306-0.306,0.613-1.021,0.919-0.817
			c-0.102-0.613-0.102,0.102-0.306-0.613c0.204,0.919-0.817,0-0.51,0.919c-0.204-0.817-0.408-0.306-0.715-1.021
			c0,0.204,0.102,0.408-0.204,0.306c0,0.102,0,0.102-0.102,0.204l0,0l0,0l0,0c0.102,0.102,0.102,0.204,0.102,0.306
			c-0.102,0.51-0.613,0.408-0.715,0.715c-0.204-0.102,0.102-0.204,0-0.408l-0.204,0.408c0-0.408-0.408-0.715,0-1.021h-0.306
			c-0.204-0.306-0.51-0.408-0.613-0.204c-0.204-0.102-0.408,0.51-0.306,0.102l-0.51,0.306v-0.102
			c-0.51-0.102-1.123,0.715-1.736-0.102c-0.204,0.102-0.408,0.306-0.715,0.102l-0.102-0.408c-0.204,0.102-0.715-0.408-0.817,0
			c-0.204-1.021-1.123-0.204-1.531-0.408v0.51c-0.306,0-0.51,0.102-0.919,0.306v0.408c-0.306,0.408-0.817-0.306-1.225-0.306
			c0-0.204,0.204-0.102,0.204,0c-0.613-1.021-1.225,0.715-1.736,0c-0.102,0.204-0.204,0.102-0.306,0l0,0c0,0,0,0-0.102,0
			c-0.102-0.102-0.102-0.204-0.204-0.204c0.102,0.102,0.102,0.204,0.102,0.204c-0.102,0-0.204,0.102-0.408,0.204l-0.102-0.51l0,0
			c-0.102-0.204-0.102,0.204,0,0.613c-0.102,0.102-0.102,0.204-0.204,0.306c-0.102-0.817-0.408,0.306-0.51-0.613
			c-0.102,0.408-0.715,0.306-0.817,1.225c0-0.102,0-0.204,0-0.204c-0.204-0.102-0.306-0.204-0.51,0l-0.102-0.613l-0.408,0.817
			c-0.204-0.408-0.306-0.613-0.102-1.123c-0.51,0.715-0.408,0.306-0.919,1.021v-0.408c-0.204,0-0.408,0.51-0.51,0.204
			c-0.306-0.817-1.736-0.102-2.654-0.817c0.204,1.225-0.408-0.51-0.51,0.408c-0.102-0.306-0.204-0.408,0-0.715
			c-0.51,0.306-0.715-0.408-1.021,0.306c-0.102-0.306,0.102-0.408,0.102-0.613c0,0.102-0.102,0.204-0.204,0.102
			c0-0.204,0.102-0.204,0.102-0.408c-0.51,0-0.51,0.919-0.51,1.736c-0.204-0.408-0.408-0.306-0.51,0.204
			c-0.102-0.306-0.204-0.51,0.102-0.613c-0.204,0-1.021-0.408-1.021,0.306c-0.102-0.204-0.204,0-0.306,0
			c-0.408,0-0.408-0.102-0.817,0l0.102,0.102c-0.102,0.817-0.306,0.204-0.613,0.306v-0.102c-0.715-0.613-0.306,0.306-0.919-0.408
			v0.51c-0.102,1.021-0.613-0.613-1.021-0.204l0.102,0.306c-0.204,0.408-0.613-1.429-0.817-1.531c0-0.102,0.102-0.102,0.102-0.204
			c-0.51-0.613-0.102,0.613-0.51,0.817c-0.102-0.306,0.102-0.919-0.204-0.919c-0.102-0.306-0.817,1.123-1.225,0.51
			c0.102,0.306,0.204,0.51,0,0.715c-0.306,0.102-0.817-1.021-1.021-0.204c0-0.102-0.102-0.102-0.102-0.204
			c-0.204,0.204-0.715,0.408-0.919,0.817c-0.204-1.736-1.429,0.817-1.429-0.715l-0.715,0.102v-0.204
			c-0.408-0.102-0.613,0.306-0.715,0.613c-0.102-0.102,0-0.204,0-0.306c-0.613-0.306-0.715-0.204-1.225,0.51l-0.102-0.51
			c-0.102,0.306-0.919-0.817-1.531-0.204c0-0.102,0-0.204,0.102-0.204c-0.715,0.613-1.736-1.429-1.94,0.408l-0.51,0.408
			c0.613,0.102-0.102,0.817,0.204,1.123c-0.204,0.102-0.613-0.51-0.306-0.613v0.102c0.102-0.919-0.715-0.306-0.715-1.021
			c-1.225,0-2.348-0.51-3.471-0.51l0.102,0.715h-0.408c-0.102-0.204-0.102-0.613,0.102-0.51c-0.102-0.408-0.51,0.306-0.51,0.51
			c-0.51-0.306,0.204-0.919,0-0.919l-0.204,0.102l0.102,0.102c-0.204,0.306-0.204,0.613-0.51,0.613
			c-0.204-0.102-0.102-0.51-0.204-0.51c0-0.102,0-0.102-0.102,0l-0.51-0.102l0.204,0.613c-0.204,0.306-0.51,0-0.204,0.613
			c-0.306-1.021-1.838-0.408-2.042-0.715c-0.306,0.408-0.613,0.408-1.021,0.408c0.102,0.102,0.102,0.817-0.204,0.715
			c0.102-1.327-0.613-0.613-0.817-1.531c0.204,0.613-0.919,0.204-0.51,1.123c-0.306-0.102,0-0.51-0.204-0.817
			c-0.613,0.51-1.429-0.306-2.246-0.204c0,0.204,0.102,0.408,0,0.715l-0.408-0.919c-0.204,0.102-0.102,1.021-0.408,0.408
			c0,0.102,0.102,0.408,0,0.408c-1.531-0.919-3.165,0.715-4.798-0.919c0.204,0.306,0.102,0.408-0.102,0.408
			c0.102,0.102,0,0.408,0,0.715l-0.715-0.715c-0.102,0.715-0.715,0-0.817,0.715l0.204-0.102c-0.306,0.715,0.408,1.736,0.306,2.654
			c0.306-0.817,0.817,1.327,1.327,0c0.102,0.204-0.102,0.306,0,0.51c0.102-0.408,0.306-0.51,0.613-0.306v0.102
			c0.817-0.102,1.123,0.306,2.042,0.613l-0.102-0.51c0.204,0.102,0.204,0.204,0.306,0.306c0.204-0.715-0.51,0-0.306-0.817
			c0.306,1.021,1.429,0,1.531,1.123c0.306,0-0.102-0.51,0.204-0.51l0.102,0.306l0.102-0.408c0.204,0.102,0.306,0.408,0.306,0.715
			c0,0-0.102,0.102-0.204,0.102c0.306,0.306,0.715-0.102,0.817,0l-0.306-0.204c0.817-0.306,1.838,0.102,2.654-0.51l-0.102-0.204
			c0.613-0.408,0.51,0.204,1.123,0.102v0.102c0.102-0.204,0.306-0.306,0.51-0.306c-0.204,0.306,0.306,0.51,0.102,0.817
			c0.715-0.408,0.306-0.306,0.817-1.225l0.102,0.408c0.102-0.306,0.204-0.51,0.51-0.613c-0.306,0.306,0.204,0.613-0.102,1.021
			c0.715,0.817,1.021-0.817,1.327,0.408c0.306-1.021-0.613-0.613-0.408-0.817c-0.102-0.306,0.306-0.817,0.51-0.715
			c0.204,0,0.408,1.327,0.919,1.327c-0.102,0-0.102,0.102-0.102,0.102c0.204,0.306,0.408-0.408,0.715,0.102
			c0.102-0.613,0.306,0,0.408-0.817l-0.51,0.204c0.306-0.204,0.613-1.123,1.021-0.715c0,0.204-0.204,0.408-0.306,0.51
			c0.102,0.204,0.306-0.204,0.408,0.102c0,0.817-0.613,0.204-0.919,0.817c0.102,0.306,0.613-0.613,0.408,0.306
			c0.204-1.123,0.51,0.102,0.919-0.715v0.51c0.102-0.102,0.204-0.306,0.306-0.306l-0.204,0.613c0.306-0.51,0.613,0.51,0.919,0.204
			c-0.613,0-0.102-0.613-0.408-0.919c0.817-0.613,0.408,1.225,1.327,1.021c-0.102,0.102-0.408-0.306-0.204-0.51
			c0.204,0.102,0.408,0.306,0.51,0.51c0.613-0.102-0.102-0.51,0.204-0.817c0.204,0.613,0.306-0.204,0.51-0.408v0.51
			c0.613,0.306,0.204-1.021,0.715-0.613l-0.204,0.715l0.306-0.204l-0.102,0.51c0.306-0.408,0.408-0.306,0.715-0.102
			c-0.102-0.306,0-0.919,0.306-0.919c0.204,0.306-0.102,0.51,0.306,0.408c-0.102,0.306-0.204,0.715-0.408,0.204
			c0,0.204-0.102,0.306-0.102,0.51c0.204,0.306,0.51,0.102,0.715,0.102c-0.102,0-0.102,0-0.204-0.102l0.613-0.715
			c0.102,0.204,0,0.306-0.102,0.51c0.102-0.102,0.204-0.306,0.408-0.306c0,0.408,0,0.817-0.306,1.021l0.613-0.408
			c0,0.204,0.306,0.51,0.204,0.613c0.306,0.204,0.817-0.817,1.225-0.51c0-0.102,0.102-0.102,0.102-0.204
			c0.408,0.102,0.715,0.613,1.225,0l0.306,0.715c0.408-0.204-0.306-0.919,0.204-1.225c0.408-0.204,0.204,0.613,0.306,0.817
			c0.204-0.408,0.613-1.123,1.021-0.51C91.258,143.96,91.156,143.858,91.054,143.96z M95.546,143.654
			c-0.102,0.102-0.306,0.408-0.306,0.102C95.342,143.144,95.342,143.45,95.546,143.654z M102.284,142.429
			c-0.102,0.204-0.204,0.102-0.306-0.102C102.08,142.327,102.182,142.327,102.284,142.429z M121.171,138.958L121.171,138.958
			C120.967,138.856,121.069,138.856,121.171,138.958z M121.579,139.162c0-0.102,0-0.102,0-0.204c0,0.102-0.102,0.102-0.204,0.102
			C121.375,139.264,121.477,139.366,121.579,139.162z M78.599,139.366l0.102,0.102C78.497,139.672,78.599,139.57,78.599,139.366z"/>
		<path fill="#FEBB12" d="M101.569,143.144c0-0.102,0-0.204,0-0.306C101.467,142.939,101.467,143.041,101.569,143.144z"/>
		<path fill="#FEBB12" d="M88.297,144.164L88.297,144.164C88.297,144.164,88.297,144.267,88.297,144.164L88.297,144.164z"/>
		<path fill="#FEBB12" d="M115.352,143.348c-0.102-0.102-0.102-0.204-0.204-0.204C115.25,143.246,115.25,143.348,115.352,143.348z"
			/>
		<path fill="#FEBB12" d="M123.723,138.345l-0.306,0.102c0.102,0,0.204,0.102,0.204,0.204
			C123.621,138.549,123.621,138.345,123.723,138.345z"/>
		<path fill="#FEBB12" d="M125.969,141.408c0-0.102,0.102,0,0.102-0.102v-0.204C125.867,141.102,125.765,141.306,125.969,141.408z"
			/>
		<path fill="#FEBB12" d="M123.927,139.979c0,0.408,0.204,0.306,0.408,0.204l0,0C124.336,139.672,124.132,139.774,123.927,139.979z"
			/>
		<path fill="#FEBB12" d="M124.336,140.183c0.102,0,0.102,0,0.204,0C124.54,139.979,124.438,140.081,124.336,140.183z"/>
		<path fill="#FEBB12" d="M122.09,138.958c0.102,0.102,0.102-0.51,0.102-0.408C122.294,138.039,121.579,139.162,122.09,138.958z"/>
		<polygon fill="#FEBB12" points="124.029,141.408 124.029,140.897 123.927,141.306 		"/>
		<path fill="#FEBB12" d="M122.702,141l0.306,0.102c0-0.102,0-0.102,0.102-0.204C122.804,140.897,122.702,140.795,122.702,141z"/>
		<path fill="#FEBB12" d="M123.009,141c0.102,0,0.204,0,0.204-0.102C123.213,140.897,123.111,140.897,123.009,141z"/>
		<polygon fill="#FEBB12" points="123.723,141.51 123.621,141.408 123.417,141.408 		"/>
		<path fill="#FEBB12" d="M119.537,140.897L119.231,141c0,0.204,0.102,0.306,0.204,0.204
			C119.537,141.102,119.64,141.102,119.537,140.897z"/>
		<path fill="#FEBB12" d="M120.558,142.327c-0.102-0.102-0.102-0.204-0.102-0.408v0.613L120.558,142.327z"/>
		<path fill="#FEBB12" d="M119.64,142.429c0,0.204-0.408,0.51-0.102,0.51C119.537,142.735,119.946,142.633,119.64,142.429z"/>
		<polygon fill="#FEBB12" points="114.943,141.612 114.943,141.612 114.943,140.591 		"/>
		<path fill="#FEBB12" d="M110.758,144.164c0.408,0.204,0.102-0.613,0.408-0.306c0.102-0.204-0.306-0.204-0.204-0.51
			C110.758,143.552,110.655,143.45,110.758,144.164z"/>
		<path fill="#FEBB12" d="M110.962,143.348c0,0,0.102-0.102,0.102-0.204C111.064,143.246,110.962,143.246,110.962,143.348z"/>
		<polygon fill="#FEBB12" points="64.102,138.856 63.795,138.651 63.999,138.958 		"/>
		<path fill="#FEBB12" d="M63.591,139.672l-0.102-0.613l-0.102,0.613C63.489,139.57,63.591,139.468,63.591,139.672z"/>
		<path fill="#FEBB12" d="M96.158,144.981v-0.204c0-0.204-0.102-0.204-0.204-0.204L96.158,144.981z"/>
		<polygon fill="#FEBB12" points="92.994,144.471 92.994,144.471 92.891,143.858 		"/>
		<path fill="#FEBB12" d="M90.237,145.185c0.102,0,0.204-0.102,0.306-0.102C90.339,145.185,90.237,144.471,90.237,145.185z"/>
	</g>
	<path fill="#FEBB12" d="M132.299,31.966c0,0.408,0,0.919,0.102,1.327c0.204,0.613,0.715,0.613,1.225,0.613
		c0.51,0,1.021-0.204,1.021-0.817c0-0.51,0-1.123,0-1.633c0,1.531,0.715,2.859,1.225,4.288c1.736,4.9,2.042,9.903,1.123,15.007
		c-0.306,1.531-1.123,2.348-2.552,2.654c-1.633,0.408-2.961-0.102-4.288-0.919c-0.306-0.204-0.204-0.51-0.306-0.817
		c-0.408-4.594-0.715-9.188,0.306-13.68c0.204-1.123,0.613-2.246,1.225-3.165C131.891,33.905,132.197,32.986,132.299,31.966z"/>
</g>
<g>
	<path d="M98.302,51.873c0.715,0,1.123,0.102,1.429,0.306c0.306,0.204,0.408,0.51,0.408,0.817c0,0.306-0.102,0.613-0.306,0.919
		c-0.204,0.306-0.51,0.613-0.919,0.919c-0.51,0.306-0.715,0.715-0.715,1.123c0,0.306,0,0.51,0.204,0.613
		c0.204,0.102,0.408,0.204,0.613,0.204c0.204,0,0.408,0,0.715-0.204c0.817-0.51,1.429-1.123,1.838-1.838
		c0.408-0.715,0.613-1.429,0.613-2.042c0-0.817-0.408-1.531-1.123-2.144c-0.715-0.51-1.838-0.817-3.369-0.817
		c-1.123,0-2.348,0.102-3.675,0.408c-1.327,0.306-2.756,0.613-4.186,1.021c-1.429,0.306-2.961,0.817-4.39,1.225
		c-1.429,0.408-2.859,0.817-4.186,1.225c-1.327,0.408-2.552,0.715-3.675,1.021s-2.042,0.408-2.756,0.408h-0.306
		c-0.306,0-0.408,0.102-0.613,0.306c-0.102,0.306-0.204,0.51-0.204,0.817c0,0.204,0.102,0.408,0.204,0.613
		c0.102,0.102,0.306,0.204,0.613,0.204c0.715,0,1.429-0.102,2.246-0.204c0.817-0.204,1.633-0.306,2.45-0.51
		c0.817-0.204,1.634-0.408,2.45-0.613s1.531-0.408,2.246-0.613c-0.306,1.021-0.715,2.246-1.225,3.573
		c-0.51,1.429-1.123,2.859-1.736,4.39c-0.613,1.531-1.327,3.165-1.94,4.798c-0.613,1.736-1.225,3.267-1.736,4.9
		c-0.51,1.633-1.021,3.165-1.327,4.594c-0.306,1.429-0.51,2.756-0.51,3.879c0,1.225,0.204,2.144,0.715,2.961
		c0.51,0.715,1.123,1.123,1.94,1.123c0.204,0,0.408,0,0.613-0.204c0.102-0.204,0.204-0.408,0.204-0.817
		c0-1.838,0.102-3.573,0.613-5.411c0.306-1.736,0.817-3.471,1.327-5.105c0.51-1.736,1.123-3.369,1.838-5.003s1.429-3.267,2.042-4.9
		c0.715-1.634,1.327-3.267,1.94-4.9c0.613-1.634,1.123-3.369,1.531-5.003l4.594-1.123c0.919-0.204,1.838-0.408,2.756-0.613
		C96.465,51.975,97.384,51.873,98.302,51.873z"/>
	<path d="M132.707,76.069c-0.204-0.102-0.408-0.204-0.613-0.204c-0.306,0-0.51,0.102-0.715,0.408
		c-0.51,0.715-1.123,1.633-2.042,2.654c-0.919,1.021-1.94,2.042-2.961,3.063s-2.042,1.838-3.165,2.552
		c-1.123,0.715-2.042,1.021-2.859,1.021c-0.408,0-0.817-0.102-1.123-0.306c-0.306-0.204-0.51-0.51-0.715-0.817
		c-0.204-0.306-0.306-0.715-0.408-1.123c-0.102-0.51-0.102-0.919-0.102-1.327c0-0.919,0.102-1.736,0.306-2.348
		c0.715-0.102,1.429-0.306,2.246-0.51c0.817-0.204,1.531-0.51,2.348-0.817c0.817-0.306,1.531-0.715,2.144-1.225
		c0.613-0.51,1.123-1.123,1.531-1.838c0.306-0.613,0.51-1.225,0.51-1.838c0-0.51-0.204-1.021-0.408-1.429
		c-0.204-0.408-0.51-0.715-0.919-1.021c-0.306-0.306-0.715-0.51-1.225-0.613c-0.408-0.102-0.919-0.204-1.327-0.204
		c-1.225,0-2.45,0.408-3.573,1.123c-1.123,0.817-2.144,1.736-2.961,2.859c-0.817,1.123-1.429,2.348-1.94,3.675
		c-0.329,0.855-0.519,1.666-0.621,2.463c-0.305,0.329-0.619,0.668-0.91,1.008c-0.613,0.715-1.225,1.327-1.838,1.94
		c-0.613,0.613-1.123,1.123-1.633,1.531c-0.51,0.408-0.817,0.613-1.021,0.613c-0.204,0-0.408-0.102-0.51-0.306
		c-0.102-0.204-0.102-0.51-0.102-0.817c0-0.51,0-1.021,0.204-1.736c0.204-0.715,0.306-1.429,0.51-2.246
		c0.204-0.715,0.306-1.531,0.51-2.348c0.102-0.817,0.204-1.531,0.204-2.246c0-1.123-0.306-2.042-0.919-2.756
		c-0.613-0.715-1.327-1.123-2.246-1.123c-0.715,0-1.327,0.306-1.94,0.715c-0.613,0.408-1.225,0.919-1.736,1.633
		c-0.51,0.715-1.021,1.429-1.531,2.246s-0.919,1.634-1.327,2.348c0.204-0.817,0.408-1.531,0.613-2.45
		c0.204-0.715,0.408-1.429,0.613-2.042c0.204-0.613,0.306-1.123,0.51-1.633c0.102-0.51,0.204-0.919,0.306-1.123
		c2.756,0,5.309-0.306,7.555-0.919c2.246-0.613,4.288-1.327,6.126-2.348c1.838-1.021,3.471-2.144,4.798-3.471
		c1.327-1.327,2.45-2.654,3.369-4.084c0.919-1.429,1.531-2.859,2.042-4.288c0.51-1.429,0.715-2.859,0.715-4.186
		c0-1.123-0.204-2.144-0.51-3.063c-0.306-0.919-0.817-1.736-1.429-2.45c-0.613-0.715-1.327-1.225-2.246-1.633
		c-0.919-0.408-1.94-0.613-3.165-0.613c-0.204,0-0.408,0-0.613,0c-0.204,0.102-0.408,0.102-0.613,0.102
		c-1.531,0.204-3.063,0.715-4.492,1.633c-1.429,0.919-2.859,2.144-4.186,3.573c-1.327,1.531-2.552,3.165-3.777,5.105
		c-1.225,1.838-2.348,3.879-3.369,6.023c-1.021,2.144-1.94,4.288-2.756,6.534c-0.817,2.246-1.429,4.39-2.042,6.534
		c-0.613,2.042-1.021,4.084-1.327,5.921c-0.306,1.838-0.51,3.471-0.51,4.9c0,0.306,0,0.51,0,0.817c0,0.306,0,0.51,0.102,0.715
		c0,0.204,0.102,0.408,0.306,0.51c0.204,0.102,0.408,0.204,0.715,0.204c0.408,0,0.715-0.204,1.021-0.51
		c0.204-0.306,0.51-0.715,0.817-1.327c0.306-0.613,0.613-1.225,0.919-1.838c0.306-0.613,0.613-1.225,0.919-1.838
		c0.306-0.613,0.51-1.021,0.613-1.327c0.204-0.408,0.51-1.021,0.919-1.736c0.408-0.715,0.817-1.327,1.327-2.042
		c0.51-0.613,0.919-1.225,1.429-1.736c0.408-0.51,0.817-0.715,1.123-0.715c0.306,0,0.408,0.204,0.408,0.817
		c0,0.408-0.102,1.021-0.204,1.634c-0.102,0.715-0.204,1.429-0.306,2.144c-0.102,0.715-0.204,1.531-0.306,2.348
		c-0.102,0.817-0.204,1.634-0.204,2.348c0,0.51,0,1.123,0.102,1.633s0.306,0.919,0.51,1.327c0.204,0.408,0.51,0.715,0.919,0.919
		c0.306,0.204,0.817,0.306,1.429,0.306c0.408,0,0.919-0.204,1.531-0.613c0.715-0.408,1.327-1.021,2.144-1.634
		c0.817-0.715,1.531-1.429,2.348-2.246c0.034-0.034,0.064-0.065,0.098-0.099c0.051,0.347,0.116,0.694,0.208,1.018
		c0.204,0.715,0.51,1.327,0.919,1.94c0.408,0.613,0.919,1.123,1.634,1.429c0.715,0.306,1.429,0.51,2.348,0.51
		c1.327,0,2.552-0.408,3.879-1.123c1.225-0.715,2.552-1.633,3.675-2.654c1.225-1.021,2.246-2.144,3.267-3.369
		c1.021-1.225,1.94-2.246,2.654-3.267c0.204-0.204,0.306-0.408,0.306-0.613C133.014,76.375,132.911,76.273,132.707,76.069z
		 M104.122,65.554c0.715-1.634,1.531-3.369,2.348-5.105c0.919-1.736,1.838-3.369,2.859-5.105c1.021-1.634,2.144-3.165,3.267-4.492
		c1.225-1.327,2.45-2.45,3.675-3.267c1.327-0.817,2.654-1.225,3.982-1.225c0.817,0,1.429,0.102,2.042,0.408
		c0.51,0.306,1.021,0.715,1.429,1.225c0.408,0.51,0.715,1.123,0.919,1.838c0.204,0.715,0.306,1.531,0.306,2.348
		c0,1.123-0.204,2.348-0.613,3.675c-0.306,1.225-0.919,2.552-1.736,3.879c-0.715,1.327-1.736,2.552-2.961,3.777
		c-1.225,1.123-2.654,2.246-4.288,3.165c-1.736,0.919-3.573,1.634-5.717,2.246c-2.042,0.51-4.492,0.919-7.044,0.919
		C103.101,68.617,103.611,67.085,104.122,65.554z M120.456,74.742c0.306-0.51,0.715-0.919,1.123-1.327
		c0.51-0.306,0.919-0.613,1.531-0.817c0.306-0.102,0.613-0.102,0.817-0.102c0.408,0,0.715,0.102,1.021,0.306
		c0.306,0.204,0.408,0.51,0.408,0.919c0,0.613-0.306,1.123-0.715,1.531c-0.408,0.408-1.021,0.817-1.633,1.123
		c-0.715,0.306-1.429,0.613-2.144,0.817c-0.715,0.204-1.327,0.408-1.94,0.51c0.204-0.51,0.408-1.021,0.613-1.429
		C119.844,75.763,120.15,75.252,120.456,74.742z"/>
</g>
<path d="M65.327,108.841c2.961,0.613,5.309,2.246,6.942,4.9c1.633,2.654,2.246,5.513,1.736,8.678
	c-0.306,2.348-1.123,4.492-2.552,6.228c-1.429,1.736-3.063,3.063-4.9,3.675c-1.838,0.715-3.675,0.919-5.513,0.817
	c-1.838-0.204-3.471-0.817-4.696-1.94c-0.306,0.613-0.919,1.123-1.633,1.531c-0.715,0.306-1.327,0.51-2.042,0.613
	c-0.613,0-1.225,0-1.736-0.306c-0.51-0.204-0.919-0.51-1.327-0.919c-0.408-0.408-0.715-0.817-1.123-1.429
	c-0.306-0.613-0.613-1.123-0.817-1.736c-0.204-0.613-0.408-1.225-0.613-1.94c-0.204-0.715-0.306-1.327-0.408-1.838
	c-0.102-0.51-0.204-1.021-0.306-1.736c-1.736-10.005-2.348-21.133-1.633-33.486c0-0.204,0-0.51,0.102-0.919
	c0-1.123,0.102-2.042,0.102-2.552c0-0.613,0.204-1.429,0.408-2.45c0.204-1.021,0.51-1.736,0.919-2.348
	c0.408-0.51,0.919-0.919,1.633-1.327c0.715-0.408,1.633-0.51,2.654-0.51c0.715,0.102,1.327,0.306,1.838,0.51
	s0.919,0.613,1.123,1.123c0.306,0.51,0.51,1.021,0.613,1.429c0.102,0.408,0.204,1.225,0.306,2.144c0,1.021,0,1.94,0,2.654
	s-0.102,1.94-0.204,3.471c-0.102,1.633-0.204,2.961-0.204,4.084c0.408-1.633,0.919-3.267,1.429-4.696
	c0.51-1.429,1.123-2.859,1.736-4.186c0.613-1.327,1.327-2.45,2.144-3.369c0.817-0.919,1.633-1.633,2.552-2.144
	c0.919-0.51,1.94-0.715,3.063-0.613s2.246,0.613,3.471,1.429c2.961,1.94,4.288,5.309,3.982,10.209
	C72.065,98.529,69.717,104.144,65.327,108.841z M52.055,82.399c0.204-0.204,0.204-0.306,0-0.51c-0.817-0.715-1.94-0.919-3.165-0.715
	c-0.919,0.204-1.633,0.715-1.94,1.531c0,0.204,0,0.306,0.204,0.408h0.102c0.102,0,0.204-0.102,0.306-0.204
	c0.204-0.51,0.715-0.919,1.531-1.123c1.021-0.204,1.838-0.102,2.45,0.51C51.646,82.603,51.851,82.603,52.055,82.399z
	 M53.892,104.655c0,1.021,0,2.042,0.102,3.165c3.982-2.348,6.738-6.33,8.269-12.047c1.021-3.982,1.123-7.044,0.306-9.086
	c-0.613-1.531-1.633-1.531-2.859-0.204c-1.021,1.123-1.94,2.756-2.859,5.105c-0.817,2.348-1.531,4.594-1.94,6.738
	C54.403,100.367,54.097,102.511,53.892,104.655z M58.793,127.83c2.552-0.408,4.288-1.838,5.309-4.288
	c1.021-2.45,0.919-4.696-0.102-6.84c-1.123-2.144-2.961-3.063-5.513-2.654c-0.204,0-0.51,0-0.817,0.102
	c-1.123,0.408-2.042,0.715-2.961,0.715c0.204,2.144,0.51,4.288,0.919,6.33c0,0.51,0.306,1.531,0.715,3.063
	c0.408,1.531,0.613,2.654,0.715,3.369C57.364,127.932,58.078,128.034,58.793,127.83z M66.143,82.501c0,0,0,0.102-0.102,0.408
	c0,0.204,0,0.408,0.204,0.408c1.123,0.204,2.042,0.919,2.756,2.144c1.429,2.348,1.531,5.411,0.408,9.29c0,0.204,0,0.408,0.306,0.408
	h0.102c0.204,0,0.306-0.102,0.408-0.204c1.123-4.084,0.919-7.351-0.613-9.903c-0.817-1.429-1.838-2.246-3.165-2.552
	C66.245,82.501,66.143,82.501,66.143,82.501z"/>
<path d="M99.425,117.518c0.51,0,0.817,0.613,0.715,1.531c-0.204,2.246-0.613,4.186-1.327,5.921c-0.715,1.736-1.531,3.063-2.45,4.084
	c-0.919,1.021-2.042,1.736-3.165,2.348c-1.123,0.51-2.348,0.715-3.573,0.613c-1.225-0.102-2.45-0.51-3.675-1.123
	c-2.859-1.531-4.9-4.186-6.228-8.065c-1.327-3.879-1.94-7.861-1.736-11.945c0.102-4.186,0.817-8.065,2.042-11.638
	c1.021-3.267,2.45-5.717,4.186-7.453c1.736-1.736,3.471-2.654,5.105-2.654s3.165,0.51,4.696,1.633
	c1.429,1.123,2.552,2.756,3.267,4.696c1.021,3.471,1.225,6.942,0.51,10.311c-0.715,3.369-1.94,6.33-3.675,8.78
	c-1.838,2.552-3.675,4.084-5.717,4.594c0.306,2.042,0.817,3.675,1.531,4.9c0.715,1.225,1.429,1.94,2.348,2.144
	c0.817,0.204,1.736,0.204,2.552-0.102c0.817-0.306,1.531-0.919,2.246-1.94c0.613-0.919,1.123-2.144,1.327-3.471
	c0-0.102,0-0.408,0-0.817s0.102-0.817,0.102-1.123c0-0.306,0.204-0.613,0.306-0.919C98.813,117.621,99.119,117.518,99.425,117.518z
	 M84.52,95.365c0.613-1.838,1.838-3.165,3.777-3.675c1.633-0.51,3.063-0.306,4.39,0.715c0.204,0.102,0.408,0.102,0.51-0.102
	s0.102-0.306-0.102-0.408c-1.531-1.225-3.165-1.531-5.003-0.919c-2.144,0.715-3.573,2.144-4.186,4.186c0,0.204,0,0.408,0.204,0.408
	h0.102C84.418,95.569,84.52,95.569,84.52,95.365z M88.91,101.694c-1.225,5.003-1.633,9.392-1.327,13.068
	c0.204,0,0.51-0.102,0.817-0.204c0.306-0.102,0.613-0.102,0.919-0.204c0.306,0,0.51-0.102,0.817-0.204
	c0.306-0.102,0.51-0.204,0.715-0.408c2.246-1.429,3.879-3.879,4.9-7.555c1.021-3.675,1.021-6.738,0-9.29
	c-0.204-0.613-0.613-1.123-1.021-1.633c-0.408-0.51-0.919-0.817-1.531-1.021c-0.613-0.204-1.123,0-1.736,0.613
	C90.645,95.569,89.829,97.917,88.91,101.694z"/>
<path d="M124.948,109.453c1.838,1.633,3.165,3.879,3.879,6.534c0.715,2.654,0.715,5.309-0.102,7.861
	c-0.715,2.654-2.144,4.696-4.084,6.33c-1.633,1.327-3.573,2.144-5.717,2.45c-2.144,0.306-4.084,0.102-5.819-0.51
	c-1.838-0.715-3.369-1.736-4.798-3.267c-1.429-1.531-2.246-3.369-2.45-5.717c-0.204-2.348,0.204-4.9,1.225-7.861
	c0,0,0.102,0,0.102-0.102c0.102-0.306,0.306-0.51,0.306-0.715c0.102-0.102,0.204-0.408,0.408-0.613
	c0.204-0.306,0.306-0.408,0.51-0.306c0.204,0,0.408,0.102,0.715,0.102c0.204,0.102,0.408,0.306,0.51,0.613
	c0.102,0.204,0.102,0.51,0,0.817c-0.102,0.306-0.204,0.613-0.408,0.817c-0.102,0.204-0.306,0.51-0.51,0.817
	c-0.204,0.306-0.306,0.51-0.306,0.715c-1.225,3.063-1.327,5.513-0.204,7.453c0.919,1.633,2.552,2.45,4.696,2.552
	c2.246,0.102,4.084-0.715,5.615-2.654c1.531-1.94,1.838-4.594,0.919-7.963c-0.204-0.919-0.715-1.736-1.429-2.552
	c-0.715-0.715-1.327-1.327-2.042-1.633c-0.613-0.408-1.531-0.817-2.654-1.429s-1.94-1.021-2.45-1.327
	c-0.817-0.51-1.531-1.021-2.246-1.633s-1.327-1.327-1.736-2.042c-0.51-0.715-0.919-1.531-1.225-2.348
	c-0.306-0.817-0.613-1.633-0.715-2.552c-0.102-0.919-0.204-1.838-0.102-2.756c0.102-2.246,0.613-4.084,1.633-5.717
	c1.021-1.531,2.246-2.654,3.675-3.267c1.429-0.613,3.063-0.919,4.696-0.919s3.267,0.408,4.696,1.225
	c1.429,0.715,2.654,1.838,3.675,3.369c1.021,1.531,1.531,3.165,1.736,5.105c0,1.123-0.204,1.633-0.817,1.736
	c-0.408,0-0.613-0.204-0.817-0.613c-0.102-0.306-0.204-0.817-0.204-1.327s-0.102-0.919-0.102-1.123
	c-0.613-1.531-1.736-2.45-3.573-2.859c-1.225-0.306-2.246-0.204-3.165,0.408c-0.919,0.51-1.531,1.327-1.94,2.348
	s-0.51,2.042-0.408,3.267c0.102,1.123,0.51,2.144,1.123,2.961c0.817,1.123,2.45,2.348,5.003,3.471
	C122.6,107.718,124.234,108.739,124.948,109.453z M111.983,91.281c0.204-0.102,0.204-0.306,0.102-0.51
	c-0.102-0.204-0.306-0.306-0.51-0.102c-2.45,1.429-3.982,3.573-4.594,6.636c-0.51,2.961,0.204,5.513,2.042,7.759
	c0.102,0.102,0.204,0.102,0.306,0.102c0.102,0,0.204,0,0.204-0.102c0.204-0.102,0.204-0.306,0.102-0.51
	c-1.736-2.042-2.348-4.492-1.838-7.146c0.102-0.817,0.408-1.633,0.817-2.45c0.408-0.817,0.919-1.531,1.429-2.144
	C110.553,92.2,111.268,91.689,111.983,91.281z"/>
<path d="M150.369,89.239c1.429,0,2.654,0.51,3.675,1.327c1.123,0.817,1.633,1.94,1.531,3.369c-0.204,1.429-0.919,2.246-2.348,2.45
	c-1.327,0.204-3.471,0.102-6.534-0.204c-0.306,0-0.51,0.102-0.51,0.408c0,0.408,0,2.246-0.102,5.513
	c-0.102,3.165-0.102,6.534,0,10.107c0,3.471,0.204,7.351,0.408,11.536c0,0.408,0.102,1.225,0.306,2.348
	c0.102,1.123,0.204,1.94,0.204,2.654c0,0.613,0,1.429-0.102,2.246c-0.102,0.817-0.408,1.531-0.919,2.144
	c-0.51,0.613-1.225,1.021-2.144,1.327c-1.225,0.306-2.246,0.306-3.165-0.102c-0.919-0.306-1.531-1.021-2.042-1.94
	c-0.408-0.919-0.817-1.838-1.021-2.756c-0.204-0.919-0.408-1.94-0.51-3.063c-0.613-7.759-0.817-17.049-0.51-27.769
	c0-1.021,0-1.838,0.102-2.348c0-0.306-0.204-0.51-0.51-0.51c-0.51,0-1.021,0-1.429,0.102c-0.204,0-0.817,0.102-1.94,0.204
	c-1.021,0.102-1.94,0.204-2.45,0.102c-0.613,0-1.225-0.408-1.633-0.919c-0.408-0.613-0.51-1.225-0.408-1.838
	c0.408-2.042,1.736-3.369,4.084-3.777c0.102,0,0.306-0.102,0.51-0.102l0.306-0.102c0.817-0.204,3.573-0.306,8.167-0.408
	C146.285,89.137,149.246,89.137,150.369,89.239z M154.044,93.629c0.204-0.102,0.204-0.204,0.102-0.408
	c-0.408-1.021-1.429-1.838-2.961-2.246c-1.633-0.51-3.267-0.613-4.9-0.51c-1.633,0.102-3.165,0.204-4.594,0.204
	c-1.123,0-1.736,0.102-2.042,0.102c-0.204,0-0.408,0.102-0.408,0.408c0,0.204,0.102,0.408,0.408,0.408c0.204,0,0.919,0,2.042-0.102
	c7.146-0.51,11.026,0.204,11.843,2.144c0.102,0.102,0.204,0.204,0.408,0.204C153.942,93.731,153.942,93.629,154.044,93.629z"/>
<g enable-background="new    ">
	<path d="M73.588,141.673c0,0-0.279-0.986,0.792-0.986c0.407,0,1.35-0.128,1.286,0.6l-0.386,12.895
		c-0.021,0.856-0.493,0.92-1.242,0.92c0,0-0.021,0-0.043,0c0,0-0.021,0-0.043,0c-0.193,0-0.664,0-0.664-0.256L73.588,141.673z"/>
	<path d="M77.015,151.162c0.086-0.299,1.006-0.321,1.199-0.321c1.007,0,0.385,2.656,1.157,2.656c0.193,0,0.193-0.257,0.193-0.793
		c0-3.085-2.742-5.784-2.742-8.397c0-1.927,0.493-3.555,2.785-3.555c1.799,0,1.971,2.163,1.971,3.577c0,0.835,0,1.263-1.092,1.263
		c-0.386,0-0.728-0.107-0.728-0.321v-1.757c0-0.428-0.086-0.75-0.493-0.75c-0.535,0-0.535,1.093-0.535,1.499
		c0,2.699,2.87,5.248,2.87,8.311c0,1.457-0.771,2.978-2.442,2.978c-2.013,0-2.142-2.335-2.142-3.663
		C77.015,151.783,77.015,151.269,77.015,151.162z"/>
	<path d="M89.736,148.548c0-0.086-0.664-0.428-0.835-0.621c-0.664-0.856-0.878-2.313-0.878-3.32v-3.406
		c0-0.257,0.279-0.685,0.578-0.642c0.557-0.043,1.136-0.214,1.328,0.256c0,1.499-0.129,3.042-0.129,4.52
		c0,0.064,0,1.328,0.793,1.392c0.685,0.064,0.878-1.714,0.878-2.506c0-0.064,0-0.107,0-0.15c0-1.028-0.129-2.014-0.129-3.02
		c0-0.45,0.835-0.408,1.307-0.493c0.621-0.043,0.728,0.256,0.728,0.728c0,1.328,0.107,2.527-0.107,3.598
		c0,0.815-0.514,2.935-1.67,3.599c0,2.27,0.043,4.37,0.043,6.554c-0.129,0.557-1.071,0.643-1.564,0.643
		c-0.3,0-0.45-0.129-0.493-0.408C89.586,152.832,89.736,150.82,89.736,148.548z"/>
	<path d="M94.767,141.545c0-0.964,0.385-0.964,1.307-0.964c0.621,0,2.656-0.171,2.656,0.578c0,0.022,0,0.043,0,0.086
		c0,0.022,0,0.043,0,0.064c0,0.493,0,1.264-0.342,1.264h-1.692l-0.086,4.305h1.007c0.514,0,0.385,0.664,0.385,1.243
		c0,0.493-0.043,0.707-0.45,0.728l-1.05,0.064c0,1.864-0.021,3.17,0.043,4.52h1.349c0.15,0,0.386,0.107,0.386,0.299v0.964
		c0,0.664-1.499,0.815-2.228,0.815c-0.043,0-0.064,0-0.107,0c-0.728,0-1.157,0-1.242-0.857L94.767,141.545z"/>
	<path d="M100.7,154.418c0-0.856,0.064-8.332,0.064-11.417c0.214-0.279-1.242-0.236-1.242-0.75v-0.9
		c0-0.385,1.349-0.493,1.949-0.493c1.992,0,2.421,0.279,2.421,1.115c0,0.685-1.349,0.771-1.349,0.942
		c0,2.956,0.064,6.297,0.064,9.253c0,0.278-0.064,2.163-0.064,2.442c0,0.9-0.107,1.093-1.007,1.093c-0.021,0-0.021,0-0.043,0
		c-0.428,0-0.685,0-0.771-0.514C100.721,155.082,100.7,154.782,100.7,154.418z"/>
	<path d="M111.9,143.643c0-0.385,0-0.556-0.043-0.963c-0.386,0.042-0.578,0.042-0.943,0.042c-0.021,0-0.043,0-0.064,0
		c-0.278,0-0.514,0-0.514-0.213c0-0.772-0.021-0.815,0.043-1.264c0.065-0.429,1.521-0.45,2.035-0.45c0.643,0,3.128-0.3,3.128,0.578
		c0,0.386,0.086,1.221-0.386,1.307l-1.499,0.107c0,1.178,0.043,2.934,0.043,4.198c0,2.142-0.15,4.905-0.043,7.604
		c0.065,1.671-1.863,1.242-1.863,0.75c0-0.022,0-0.043,0-0.065C111.815,151.419,111.9,147.478,111.9,143.643z"/>
	<path d="M115.69,146.45c0-1.393,0.193-3.385,0.686-4.241c0.599-0.985,1.22-1.371,2.57-1.371c1.263,0,2.206,1.093,2.313,3.042
		c0.108,2.121,0.279,4.326,0.279,6.254c0,3.063-0.451,5.377-2.571,5.377c-2.334,0-2.785-2.078-3.084-4.541
		C115.883,149.363,115.69,147.992,115.69,146.45z M117.553,149.212c0.108,3.792,0.815,4.584,1.35,4.584
		c0.835,0,0.856-1.499,0.856-1.885c0-2.249-0.086-4.777-0.235-8.075c-0.043-0.986-0.407-1.242-0.899-1.242
		c-0.986,0-1.115,1.906-1.115,3.619c0,0.686,0.022,1.35,0.022,1.842C117.532,148.356,117.553,149.149,117.553,149.212z"/>
</g>
<g>
	<g>
		<path d="M134.953,148.044c1.327-0.204,2.654-0.204,3.879-0.204c1.327,0,2.654,0.102,3.88,0.204
			c-1.327,0.204-2.654,0.204-3.88,0.204S136.28,148.248,134.953,148.044z"/>
	</g>
	<g>
		<path d="M132.911,145.696c1.225-1.021,2.552-1.838,3.879-2.654c1.327-0.817,2.756-1.531,4.186-2.144
			c-1.225,1.021-2.552,1.838-3.879,2.654C135.77,144.267,134.341,145.083,132.911,145.696z"/>
	</g>
	<g>
		<path d="M132.911,150.698c1.429,0.817,2.859,1.736,4.186,2.654c1.327,0.919,2.654,1.94,3.879,3.063
			c-1.429-0.817-2.859-1.736-4.186-2.654C135.464,152.842,134.137,151.821,132.911,150.698z"/>
	</g>
</g>
<g>
	<path d="M152.003,174.282c-0.204,0-0.408,0-0.51,0.102c-0.204,0.204-0.408,0.408-0.51,0.715c-0.817,1.633-1.94,3.165-3.063,4.594
		c-1.838,2.246-4.084,3.777-6.432,5.207c-1.429,0.817-2.859,1.531-4.39,1.94c-0.715,0.102-1.327,0-1.838-0.51
		c-0.613-0.613-1.021-1.327-1.327-2.144c-0.408-1.327-0.51-2.859-0.408-4.288c0-0.51,0.204-0.817,0.613-1.123
		c1.429-0.919,2.756-2.042,4.084-3.165c1.021-0.919,1.838-1.838,2.45-3.063c0.51-1.021,0.204-1.94-0.715-2.552
		c-0.408-0.306-0.919-0.51-1.429-0.613c-1.225-0.306-2.348-0.408-3.573-0.51c-2.45-0.204-4.288,0.715-5.411,2.961
		c-1.633,3.369-2.348,6.942-1.838,10.72c0.02,0.163,0.055,0.313,0.083,0.469c-0.949,1.135-1.915,2.252-3.146,3.104
		c-0.817,0.613-1.327,0.408-1.633-0.613c-0.306-0.817-0.408-1.633-0.408-2.45c-0.102-2.654,0.204-5.207,0.51-7.759
		c0.204-1.327,0-2.552-0.408-3.777c-0.919-2.45-3.267-3.879-5.717-3.471c-2.042,0.306-3.777,1.123-5.309,2.552
		c-1.327,1.225-2.654,2.552-3.777,4.084c-0.102,0.306-0.204,0.613-0.613,0.613c0-0.306-0.102-0.613-0.204-0.919
		c-0.51-1.838-1.531-3.369-3.063-4.492c-0.715-0.51-1.634-0.919-2.552-0.817c-2.45,0.102-4.594,0.919-6.126,2.859
		c-1.225,1.634-2.246,3.369-2.961,5.309c-0.204,0.51-0.408,1.123-0.613,1.633c-0.51-2.144-1.225-4.084-1.531-6.228
		c-0.204-0.919-0.306-1.94-0.51-2.859c-0.204-0.715-0.306-0.817-0.919-0.715c-1.327,0.204-2.45,0.715-2.859,2.246
		c-0.408,1.531-0.613,3.063-0.51,4.696c0.042,0.567,0.092,1.127,0.146,1.686c-0.613,0.534-1.26,1.039-1.983,1.479
		c-0.408,0.204-0.715,0.51-1.327,0.51c0.102-0.204,0.102-0.306,0.102-0.306c0.51-1.736,0.613-3.471,0.817-5.207
		c0.102-0.715,0-1.327-0.306-1.94c-0.408-0.715-1.123-0.919-1.838-1.021c-0.306-0.102-0.613,0-0.817-0.306
		c-1.225-1.429-2.756-2.348-4.594-2.859c-3.063-0.919-6.023,0.306-7.453,3.063c-1.821,3.55-2.822,7.183-2.657,10.968
		c-0.318,0.402-0.658,0.795-1.018,1.181c-0.715,0.817-1.531,1.633-2.45,2.348c-1.429,1.225-3.063,2.144-4.9,2.859
		c-0.613,0.204-1.021,0.102-1.531-0.102c-1.634-0.715-2.756-1.838-3.573-3.471c-0.817-1.633-1.225-3.369-1.123-5.002
		c0-1.225,0.102-2.246-0.102-2.859c0.51-4.696,2.144-8.984,5.003-12.864c0.715-0.919,1.429-1.736,2.348-2.348
		c0.715-0.408,0.817-0.408,1.429,0.102c1.021,0.817,1.634,2.042,1.94,3.369c0.306,1.225,0.204,2.45,0.102,3.777
		c0,0.51,0,1.021,0,1.531c0.102,0.613,0.306,0.817,0.817,0.817s0.817-0.204,1.021-0.817c1.021-2.552,1.021-5.207-0.102-7.759
		c-0.51-1.327-1.531-2.144-2.859-2.45c-1.123-0.306-2.144-0.306-3.267-0.408c-1.531-0.102-2.859,0.204-4.084,1.225
		c-0.51,0.408-1.123,0.919-1.531,1.531c-1.736,2.246-3.165,4.696-4.084,7.351c-1.021,3.267-1.531,6.534-1.531,9.903
		c0,1.838,0.408,3.471,1.225,5.105c0.919,1.838,2.246,3.165,4.084,3.982c2.246,0.919,4.594,1.123,7.044,0.715
		c2.042-0.306,3.777-1.225,5.309-2.552c0.855-0.665,1.617-1.423,2.265-2.265c0.622,1.96,2.004,3.2,4.065,3.695
		c2.144,0.613,4.186,0.408,6.228-0.204c0.817-0.204,1.633-0.715,2.246-1.327c0.919-1.123,1.838-2.246,2.348-3.573
		c0.204-0.715,0.51-1.429,0.817-2.144c0.204-0.408,0.408-0.51,0.817-0.613c1.226-0.136,2.308-0.568,3.322-1.219
		c0.198,1.507,0.463,2.997,0.863,4.486c0.306,1.225,0.817,2.45,1.429,3.573c0.408,0.817,1.123,1.225,2.042,1.021
		c1.021-0.102,2.042-0.408,2.961-0.919c0.715-0.408,0.817-0.715,0.613-1.429c-0.102-0.613-0.306-1.225-0.408-1.838
		c-0.204-2.654,0-5.207,0.919-7.657c0.919-2.348,2.144-4.39,4.084-6.023c0.817-0.613,1.123-0.613,1.736,0.204
		c0.51,0.715,0.817,1.531,1.021,2.45c0.613,2.859,1.021,5.819,1.021,8.78c0,1.736-0.102,3.369-0.204,5.002
		c-0.102,1.123,0.306,1.633,1.634,1.429c0.919-0.102,1.838-0.408,2.654-0.817c0.919-0.408,1.429-1.225,1.531-2.246
		c0.204-1.94,0.306-3.982,0.204-6.023c-0.102-1.123,0.204-2.144,0.817-3.165c0.204-0.408,0.51-0.817,0.715-1.123
		c1.225-1.736,2.654-3.369,4.288-4.798c0.51-0.408,0.919-0.715,1.429-1.021c0.715-0.408,1.123-0.408,1.736,0.204
		c0.715,0.715,0.919,1.531,0.919,2.45c0,2.042-0.204,4.084-0.51,6.126c-0.306,1.94-0.51,3.777-0.306,5.615
		c0.408,3.471,2.348,4.594,4.9,4.186c2.592-0.362,4.783-1.415,6.592-3.003c0.678,1.221,1.773,2.12,3.311,2.697
		c1.531,0.613,3.165,0.715,4.492,0.817c2.246,0,4.084-0.51,5.921-1.838c2.144-1.225,3.88-2.756,5.615-4.492
		c2.144-2.144,3.267-4.798,4.288-7.555C152.207,174.486,152.207,174.384,152.003,174.282z M80.232,181.632
		c-1.021,2.246-2.552,4.084-4.594,5.513c-1.225,0.817-1.94,1.021-3.063-0.715c-0.715-0.919-1.021-2.042-1.123-3.165
		c-0.102-1.838-0.102-3.675,0.408-5.513c0.613-2.246,1.429-4.492,2.756-6.534c0.919-1.429,1.327-1.531,2.859-0.817
		c0.408,0.204,0.817,0.306,1.021,0.613c-0.102,0.204-0.306,0.204-0.408,0.204c-2.45,0.715-3.777,2.756-4.084,5.002
		c-0.102,0.715,0.102,1.327,0.408,1.838c0.715,1.225,1.736,1.94,3.063,2.348c0.817,0.306,1.531,0.408,2.348,0.51
		C80.436,180.917,80.538,181.122,80.232,181.632z M81.763,174.588c0,1.633-0.204,3.267-0.613,4.9
		c-0.102,0.204-0.102,0.613-0.408,0.613c-0.306,0-0.51-0.306-0.715-0.51c-0.204-0.306-0.204-0.613-0.204-0.919
		c0-1.225,0.204-2.45,0.613-3.675c0.306-0.613,0.51-1.225,0.817-2.042C81.763,173.465,81.866,174.077,81.763,174.588z
		 M135.77,172.444c0.408-0.715,1.021-1.327,1.838-1.736c0.306-0.204,0.613-0.102,0.817,0.204c0.306,0.613,0.408,1.123,0.204,1.736
		c-0.102,0.51-0.408,0.919-0.715,1.327c-1.123,1.327-2.552,2.348-3.982,3.369C134.239,175.609,134.851,174.077,135.77,172.444z"/>
	<path d="M62.57,148.044c-1.327-0.204-2.552-0.306-3.879-0.204c-1.225,0-2.552,0-3.879,0.204c1.225,0.102,2.552,0.204,3.879,0.204
		C59.916,148.248,61.243,148.248,62.57,148.044z"/>
	<path d="M64.612,145.696c-1.225-1.021-2.552-1.838-3.879-2.654c-1.327-0.715-2.756-1.531-4.186-2.144
		c1.225,1.021,2.552,1.838,3.88,2.654C61.753,144.267,63.183,145.083,64.612,145.696z"/>
	<path d="M56.547,156.415c1.429-0.817,2.859-1.736,4.186-2.654c1.327-0.919,2.654-1.94,3.879-3.063
		c-1.429,0.817-2.859,1.736-4.186,2.654C59.099,154.271,57.772,155.292,56.547,156.415z"/>
</g>
</svg>
