<?xml version="1.0" encoding="utf-8"?>
<!-- Generator: Adobe Illustrator 17.0.0, SVG Export Plug-In . SVG Version: 6.00 Build 0)  -->
<!DOCTYPE svg PUBLIC "-//W3C//DTD SVG 1.1//EN" "http://www.w3.org/Graphics/SVG/1.1/DTD/svg11.dtd">
<svg version="1.1" id="Layer_1" xmlns="http://www.w3.org/2000/svg" xmlns:xlink="http://www.w3.org/1999/xlink" x="0px" y="0px"
	 width="200px" height="200px" viewBox="0 0 200 200" enable-background="new 0 0 200 200" xml:space="preserve">
<g>
	<g>
		<g>
			<circle fill="#DE5E71" cx="35.9" cy="29.2" r="6.9"/>
		</g>
	</g>
</g>
<g>
	<g>
		<g>
			<circle fill="#DE5E71" cx="171.1" cy="150.5" r="3.5"/>
		</g>
	</g>
</g>
<g>
	<g>
		<g>
			<circle fill="#DE5E71" cx="17" cy="138.4" r="3.5"/>
		</g>
	</g>
</g>
<g>
	<g>
		<g>
			<circle fill="#DE5E71" cx="141" cy="116.4" r="3.5"/>
		</g>
	</g>
</g>
<g>
	<g>
		<g>
			<circle fill="#DE5E71" cx="76.9" cy="44.5" r="3.5"/>
		</g>
	</g>
</g>
<g>
	<g>
		<g>
			<circle fill="#DE5E71" cx="137.5" cy="32.6" r="3.5"/>
		</g>
	</g>
</g>
<g>
	<g>
		<g>
			<circle fill="#DE5E71" cx="70.1" cy="182.2" r="3.5"/>
		</g>
	</g>
</g>
<path fill="#DE5E71" d="M175.11,38.301c-1.248-6.042-4.261-10.617-8.954-13.597c-10.881-6.91-27.374-3.057-27.539-3.018
	l-0.234-0.973c0.692-0.166,17.063-3.992,28.307,3.144c4.933,3.131,8.095,7.922,9.399,14.241L175.11,38.301z"/>
<g>
	<g>
		<rect x="173.5" y="50.2" fill="#DE5E71" width="5.3" height="7.3"/>
	</g>
</g>
<path d="M42.5,35.7c0.5,0.3,1,0.1,1.5,0.1c1.3-0.1,2.7-0.2,4-0.4c1.1-0.1,2.1,0.1,3.1,0.3c0.7,0.1,1.2,0.8,1.6,1.5
	c-1,0.5-2,0.7-2.9,0.7c-2.3,0-4.5,0.1-6.8,0.3c-0.7,0.1-1,0.2-1.1,1c-0.8,6.1-1.7,12.2-1.4,18.4c0.2,3.8,1.1,7.3,2.7,10.6
	c1.1,2.2,2.8,3.3,5,3.6c1,0.1,2-0.1,2.9-0.8c2.5-1.8,4.5-4.2,6.2-7c1.7-2.7,3-5.8,4.1-8.9c0.5-1.5,0.7-3.1,0.9-4.6
	c0-0.3,0.1-0.7,0.2-1c0.1-0.3,0.3-0.4,0.5-0.3c0.2,0,0.3,0.3,0.3,0.4c0,1.6-0.1,3.3-0.4,4.9c-1.1,6.1-4,11.2-7.9,15.4
	c-2.6,2.7-5.8,4-9.3,4.3c-1.7,0.1-3.5,0.3-5.2-0.3c-2.8-0.8-4.9-2.6-5.9-5.9c-1-3.4-1.6-6.9-1.7-10.4c-0.1-5,0.3-9.9,0.9-14.8
	c0.1-1,0.3-2,0.3-2.9c0.1-0.9,0-1-0.7-0.9c-2.7,0.5-5.5,0.3-8.2,0.7c-0.3,0-0.6,0-0.9-0.2s-0.6-0.4-0.6-0.7c0-0.5,0.4-0.6,0.7-0.7
	c1.1-0.4,2.2-0.4,3.2-0.5c1.9-0.3,3.8-0.5,5.7-0.7c1.1-0.1,1.2-0.1,1.3-1.3c0.3-3.1,1.1-6.1,2-9c0.6-2,1.8-2.9,3.6-3
	c1,0,2.1-0.1,3.1,0.2c1.2,0.3,1.6,1,1.4,2.3c-0.2,0.8-0.4,1.6-0.7,2.4C43.3,30.8,42.6,33.2,42.5,35.7z"/>
<path d="M85.9,57.6c0,0.8-0.3,1.6-0.6,2.4c-1.2,3.1-2.9,5.7-5.1,8.1c-1.7,1.8-3.8,2.2-6.1,2c-0.1,0-0.2,0-0.3-0.1
	c-2.6-0.4-3.4-1.4-4.1-3.8c-0.1-0.4-0.2-0.8-0.2-1.2c-0.3,0-0.3,0.3-0.4,0.4c-0.5,0.9-1.2,1.7-1.8,2.5c-1.1,1.3-3.7,2-5.2,1.3
	c-0.5-0.2-1-0.6-1.3-1c-0.8-1-1.3-2.2-1.4-3.5c-0.2-3,0.2-6,1.5-8.7c1.5-3.1,3.9-4.3,7.5-4.1c0.8,0,1.3,0.3,2.2,1c0,0,0.1,0,0.1-0.1
	c1-2,1.9-2,4.1-1.7c0.5,0.1,0.6,0.4,0.7,0.8c0.1,1.1,0.2,2.2,0,3.3c-0.3,3.4-0.7,6.8-0.7,10.2c0,0.9,0.1,1.8,0.5,2.7
	c0.6,1.3,1.6,1.6,2.8,0.8c1.5-1.1,2.7-2.5,3.6-4.1c1.1-1.8,1.9-3.7,2.7-5.6c0.2-0.6,0.6-1.1,0.8-1.7c0.1-0.2,0.3-0.3,0.5-0.2
	C86,57.2,85.9,57.4,85.9,57.6z M69.1,53c-0.3-0.1-0.5-0.3-0.8-0.4c-1-0.4-1.4-0.2-1.8,0.8c-0.3,0.7-0.5,1.4-0.7,2.1
	c-0.9,2.9-1.7,5.8-1.9,8.8c-0.1,1.2,0.1,2.4,0.7,3.5c0.3,0.6,0.6,0.6,1.1,0.2c1.3-1,2.3-2.3,3.1-3.7c0.4-0.7,0.6-1.4,0.7-2.2
	c0.2-2.4,0.3-4.7,0.6-7.1C70.2,53.9,69.8,53.4,69.1,53z"/>
<path d="M90.7,57.2c2.6,2.5,4.3,5.6,5.6,8.9c1.1-0.7,2-1.4,2.7-2.3c1.3-1.5,2.3-3.1,2.9-5c0.1-0.3,0.2-0.6,0.3-0.9
	c0.1-0.2,0.2-0.3,0.5-0.3c0.3,0.1,0.3,0.2,0.2,0.5c-0.2,1.9-1,3.5-2.1,5.1c-1,1.4-2.1,2.7-3.5,3.6c-0.6,0.4-0.6,0.4-0.4,1.1
	c0.6,2.2,0.8,4.4,0.4,6.6c-0.2,1.2-0.6,2.3-1.4,3.2c-0.9,0.9-2.1,1.3-3.4,1.5s-2.6,0.3-3.9-0.1c-1.6-0.5-2.5-1.6-2.5-3.3
	c0-1.9,0.7-3.5,2.2-4.7c0.9-0.8,2.1-1.3,3.1-1.9c0.7-0.3,0.9-0.7,0.8-1.5c-0.2-1.7-0.8-3.3-1.7-4.8c-1.4-2.3-3.2-4.3-4.8-6.4
	c-0.7-0.9-1.4-1.9-1.7-3c-0.6-1.9,0-3.6,1.7-4.6c1.8-1,3.6-1.5,5.7-0.9c0.6,0.2,1.1,0.3,1.7,0.5c1.5,0.6,2.1,1.9,1.8,3.4
	c-0.4,1.7-1.3,3-2.6,4C91.7,56.4,91.2,56.7,90.7,57.2z M92.3,69.9c-1.2,0.6-2.2,1.2-3.1,2.1c-0.6,0.5-0.9,1.1-1.1,1.9
	c-0.5,1.5,0.2,3.2,1.5,4c0.4,0.2,0.6,0.2,0.9-0.2c0.1-0.1,0.2-0.2,0.2-0.3C92.2,75.1,92.5,72.6,92.3,69.9z M90.2,56.5
	c1-0.7,1.8-1.5,2.6-2.4c0.5-0.6,0.8-1.2,1-1.9c0.3-1.2,0-2.1-0.9-2.9c-0.4-0.3-0.7-0.4-1.1-0.1c-0.9,0.6-1.8,1.2-2.4,2.1
	c-0.7,1.1-1.1,2.4-0.4,3.6C89.3,55.5,89.7,56.1,90.2,56.5z"/>
<path d="M107.5,57.2c2.6,2.5,4.3,5.6,5.6,8.9c1.1-0.7,2-1.4,2.7-2.3c1.3-1.5,2.3-3.1,2.9-5c0.1-0.3,0.2-0.6,0.3-0.9
	c0.1-0.2,0.2-0.3,0.5-0.3c0.3,0.1,0.3,0.2,0.2,0.5c-0.2,1.9-1,3.5-2.1,5.1c-1,1.4-2.1,2.7-3.5,3.6c-0.6,0.4-0.6,0.4-0.4,1.1
	c0.6,2.2,0.8,4.4,0.4,6.6c-0.2,1.2-0.6,2.3-1.4,3.2c-0.9,0.9-2.1,1.3-3.4,1.5s-2.6,0.3-3.9-0.1c-1.6-0.5-2.5-1.6-2.5-3.3
	c0-1.9,0.7-3.5,2.2-4.7c0.9-0.8,2.1-1.3,3.1-1.9c0.7-0.3,0.9-0.7,0.8-1.5c-0.2-1.7-0.8-3.3-1.7-4.8c-1.4-2.3-3.2-4.3-4.8-6.4
	c-0.7-0.9-1.4-1.9-1.7-3c-0.6-1.9,0-3.6,1.7-4.6c1.8-1,3.6-1.5,5.7-0.9c0.6,0.2,1.1,0.3,1.7,0.5c1.5,0.6,2.1,1.9,1.8,3.4
	c-0.4,1.7-1.3,3-2.6,4C108.5,56.4,108.1,56.7,107.5,57.2z M109.1,69.9c-1.2,0.6-2.2,1.2-3.1,2.1c-0.6,0.5-0.9,1.1-1.1,1.9
	c-0.5,1.5,0.2,3.2,1.5,4c0.4,0.2,0.6,0.2,0.9-0.2c0.1-0.1,0.2-0.2,0.2-0.3C109,75.1,109.3,72.6,109.1,69.9z M107.1,56.5
	c1-0.7,1.8-1.5,2.6-2.4c0.5-0.6,0.8-1.2,1-1.9c0.3-1.2,0-2.1-0.9-2.9c-0.4-0.3-0.7-0.4-1.1-0.1c-0.9,0.6-1.8,1.2-2.4,2.1
	c-0.7,1.1-1.1,2.4-0.4,3.6C106.1,55.5,106.5,56.1,107.1,56.5z"/>
<path d="M128.4,69.6c-1.2-0.1-2.6-0.2-4-0.7c-2.1-0.8-3.3-2.4-3.6-4.6c-0.5-3.3,0.1-6.5,1.7-9.5c1-2,2.6-2.8,4.7-2.6
	c1,0.1,2.1,0.2,3.1,0.5c0.5,0.1,0.9,0.3,1.3,0.5c0.8,0.6,1.1,1.4,0.7,2.3c-0.5,1-1.2,1.9-2.1,2.7c-1.2,1-2.4,1.9-3.6,2.8
	c-0.4,0.3-0.5,0.6-0.6,1c-0.1,1.3,0,2.6,0.4,3.8c0.2,0.7,0.6,1.4,1.2,1.9c0.5,0.4,1,0.6,1.6,0.4c1.4-0.4,2.6-1,3.8-1.7
	c2.1-1.3,4.1-2.7,5.7-4.6c1-1.2,1.9-2.6,2.7-4c0.1-0.2,0.3-0.5,0.4-0.7c0.1-0.1,0.3-0.1,0.4,0c0.2,0.1,0.2,0.2,0.1,0.4
	c-0.9,2.4-1.9,4.8-3.7,6.7c-1.5,1.5-3.1,2.8-4.9,4C132,69.1,130.4,69.6,128.4,69.6z M126.3,59.7c1.3-0.9,2.5-1.8,3.5-3
	c0.3-0.3,0.5-0.7,0.7-1.1c0.2-0.5,0.1-1-0.2-1.5c-0.2-0.3-0.4-0.3-0.7-0.2c-0.7,0.4-1.2,0.9-1.6,1.6
	C127.1,56.7,126.6,58.2,126.3,59.7z"/>
<path d="M162,57.6c-0.2,0.8-0.4,1.7-0.8,2.5c-1,2.2-2.2,4.3-3.6,6.4c-1,1.4-2.3,2.4-4,2.6c-1.3,0.2-2.7,0.4-4,0.2
	c-1.4-0.3-2.5-1-3.3-2.3c-0.9-1.4-1.3-3-1.6-4.5c-0.8-4.6-1.1-9.2-1.1-13.8c0-2.1,0.1-4.2,0.5-6.3c0.2-0.9,0.5-1.8,0.8-2.6
	c1.4-3,3.9-4.3,7.2-3.7c0.2,0,0.4,0.1,0.6,0.1c1.8,0.4,2.5,1,2.8,2.8c0.1,0.6,0.1,1.2,0.2,1.8c-0.4,3.7-1.1,7.3-2.7,10.6
	c-1,2.1-2.1,4.2-3.3,6.2c-0.2,0.3-0.3,0.6-0.2,1c0.2,1.8,0.5,3.6,1,5.3c0.4,1.3,1,2.6,2,3.6c0.6,0.6,0.6,0.6,1.3,0.2
	c1.6-1,2.9-2.3,3.9-3.8c1.4-1.9,2.6-3.9,3.4-6.2c0-0.1,0.1-0.2,0.1-0.3c0.1-0.2,0.3-0.3,0.5-0.2C162.1,57.2,162,57.4,162,57.6z
	 M149.4,56.6c0.5-0.5,0.7-1,0.9-1.5c2.2-3.8,3.6-7.9,3.9-12.3c0.1-1.6,0-3.2-0.8-4.7c-0.5-0.9-0.6-0.9-1.3-0.1
	c-1.8,2.2-2.7,4.7-2.9,7.5C148.9,49.1,149,52.7,149.4,56.6z"/>
<path d="M42,100.9l-2.5-6.7l-2.5,6.7c-0.2,0.4-0.6,0.8-1.1,0.8s-1-0.3-1.1-0.8l-3.6-9.8c0-0.1-0.1-0.3-0.1-0.4
	c0-0.7,0.6-1.2,1.2-1.2c0.5,0,1,0.3,1.1,0.8l2.5,6.7l2.5-6.7c0.2-0.4,0.6-0.8,1.1-0.8s1,0.3,1.1,0.8l2.5,6.7l2.5-6.7
	c0.2-0.4,0.6-0.8,1.1-0.8c0.6,0,1.2,0.5,1.2,1.1c0,0.1,0,0.3-0.1,0.4l-3.6,9.8c-0.2,0.4-0.6,0.8-1.1,0.8
	C42.6,101.6,42.1,101.3,42,100.9z"/>
<path d="M64,95.6v4.9c0,0.7-0.5,1.2-1.2,1.2s-1.2-0.5-1.2-1.2v-0.1c-1,0.8-2.3,1.2-3.7,1.2c-3.4,0-6.1-2.7-6.1-6.1s2.7-6.1,6.1-6.1
	C61.3,89.5,64,92.2,64,95.6z M54.3,95.6c0,2,1.6,3.7,3.7,3.7c2,0,3.7-1.6,3.7-3.7s-1.6-3.7-3.7-3.7C55.9,91.9,54.3,93.5,54.3,95.6z"
	/>
<path d="M70.5,97.8c0,0,0.1,0.3,0.3,0.6c0.1,0.2,0.3,0.4,0.5,0.5c0.3,0.2,0.7,0.4,1.4,0.4c0.8,0,1.3-0.2,1.6-0.6
	c0.1-0.2,0.2-0.4,0.2-0.7c0-0.3-0.1-0.6-0.1-0.7c-0.1-0.2-0.2-0.3-0.4-0.4c-0.3-0.2-0.9-0.3-1.5-0.3c-1.3,0-2.4-0.7-3.1-1.5
	c-0.4-0.6-0.7-1.3-0.7-2c0-0.8,0.3-1.5,0.7-2.1c0.7-0.8,1.8-1.4,3.2-1.4c1.4,0,2.3,0.5,2.9,1c0.5,0.4,0.7,0.8,0.7,0.9
	c0.1,0.2,0.1,0.3,0.1,0.5c0,0.6-0.5,1.2-1.2,1.2c-0.5,0-0.9-0.3-1.1-0.6c-0.1-0.1-0.1-0.2-0.3-0.3c-0.2-0.1-0.6-0.3-1.2-0.3
	s-1.1,0.2-1.3,0.5c-0.1,0.1-0.2,0.3-0.2,0.6c0,0.3,0.1,0.5,0.2,0.6c0.3,0.4,0.8,0.6,1.4,0.6c0.8,0,1.6,0.2,2.4,0.6
	c0.6,0.3,1.1,0.8,1.4,1.4c0.3,0.5,0.4,1.1,0.4,1.8c0,1.2-0.6,2.2-1.5,2.9c-0.8,0.5-1.7,0.8-2.7,0.8c-1.1,0-2-0.3-2.7-0.8
	c-0.6-0.3-0.9-0.8-1.2-1.2c-0.5-0.8-0.6-1.4-0.6-1.5s0-0.2,0-0.3c0-0.7,0.6-1.2,1.2-1.2C69.9,96.8,70.4,97.2,70.5,97.8z"/>
<path d="M100.8,100.9l-2.5-6.7l-2.5,6.7c-0.2,0.4-0.6,0.8-1.1,0.8s-1-0.3-1.1-0.8L90,91.1c0-0.1-0.1-0.3-0.1-0.4
	c0-0.7,0.6-1.2,1.2-1.2c0.5,0,1,0.3,1.1,0.8l2.5,6.7l2.5-6.7c0.2-0.4,0.6-0.8,1.1-0.8s1,0.3,1.1,0.8l2.5,6.7l2.5-6.7
	c0.2-0.4,0.6-0.8,1.1-0.8c0.6,0,1.2,0.5,1.2,1.1c0,0.1,0,0.3-0.1,0.4l-3.6,9.8c-0.2,0.4-0.6,0.8-1.1,0.8
	C101.4,101.6,100.9,101.3,100.8,100.9z"/>
<path d="M116.8,89.5c3.4,0,6.1,2.7,6.1,6.1c0,3.3-2.7,6.1-6.1,6.1s-6.1-2.7-6.1-6.1C110.7,92.2,113.4,89.5,116.8,89.5z M116.8,99.3
	c2,0,3.7-1.6,3.7-3.7s-1.6-3.7-3.7-3.7s-3.7,1.7-3.7,3.7S114.7,99.3,116.8,99.3z"/>
<path d="M129.5,90.6L129.5,90.6c1.1-0.7,2.3-1.2,3.7-1.2c0.7,0,1.2,0.5,1.2,1.2s-0.5,1.2-1.2,1.2c-2.1,0-3.7,1.6-3.7,3.7v4.9
	c0,0.7-0.5,1.3-1.2,1.3s-1.2-0.6-1.2-1.3v-9.8c0-0.7,0.5-1.2,1.2-1.2C128.9,89.4,129.5,89.9,129.5,90.6z"/>
<path d="M139.6,86.4c0.7,0,1.2,0.5,1.2,1.2v1.8h3.5c0.7,0,1.2,0.5,1.2,1.2s-0.5,1.2-1.2,1.2h-3.5v3.7c0,2,1.6,3.7,3.7,3.7
	c0.7,0,1.2,0.5,1.2,1.2s-0.5,1.2-1.2,1.2c-3.3,0-6.1-2.7-6.1-6.1v-7.9C138.5,87,139,86.4,139.6,86.4z"/>
<path d="M152.2,86.3v4.5c1.1-0.8,2.3-1.3,3.7-1.3c3.3,0,6.1,2.7,6.1,6.1v4.9c0,0.7-0.5,1.2-1.2,1.2s-1.2-0.5-1.2-1.2v-4.9
	c0-2.1-1.6-3.7-3.7-3.7c-2.1,0-3.7,1.6-3.7,3.7v4.9c0,0.7-0.5,1.2-1.2,1.2s-1.2-0.5-1.2-1.2V86.3c0-0.7,0.5-1.2,1.2-1.2
	C151.7,85.1,152.2,85.6,152.2,86.3z"/>
<path d="M61.6,123.7c1.8-0.8,3.6-1.9,5.2-3.2c0.8-1.2,1.6-2.4,2.5-3.5c-0.9,0.1-1.8,0.1-2.8,0.2s-1.8,0.1-2.3,0.2
	c-0.5,0-0.8,0.1-0.9,0.1c-0.2,0-0.3-0.1-0.3-0.2s0.1-0.1,0.2-0.1c3.1-0.4,5.3-0.6,6.7-0.7c1.2-1.5,2.4-2.8,3.5-3.9s1.8-1.6,2.1-1.6
	c0.3,0,0.5,0.3,0.5,1c0,0.4-1.2,1.8-3.5,4.3c3-0.2,6.2-0.3,9.5-0.3c1,0,1.4,0.2,1.4,0.5c0,0.2-0.1,0.3-0.4,0.3c0,0-0.5,0-1.2-0.1
	c-0.8,0-1.4-0.1-1.8-0.1c-1.4,0-4.1,0.1-8.2,0.3c-0.1,0.2-0.9,0.9-2.3,2.3c-3,4.1-4.5,7.3-4.5,9.6c0,0.9,0.7,1.4,2.1,1.4
	c1.2,0,2.8-0.3,4.9-0.9c2.1-0.6,4.2-1.4,6.2-2.2c2.1-0.9,3.7-1.6,4.9-2.1c1.2-0.5,2-0.9,2.4-1.1c0.1-0.1,0.2-0.1,0.3-0.1
	c0.1,0,0.2,0.1,0.2,0.2s-0.1,0.2-0.2,0.3c-0.3,0.1-0.8,0.4-1.5,0.7c-0.8,0.4-2,0.9-3.6,1.6s-3.2,1.3-4.8,1.9
	c-1.6,0.6-3.2,1.1-4.9,1.5c-1.7,0.4-3.1,0.7-4.1,0.7s-1.8-0.1-2.3-0.4c-0.5-0.3-0.8-0.8-0.8-1.6c0-1.8,0.8-4.1,2.4-6.9
	c-1.4,1-2.8,1.9-4.4,2.6c-0.1,0-0.2,0.1-0.2,0.1c-0.1,0-0.2-0.1-0.2-0.2C61.4,123.9,61.5,123.8,61.6,123.7z"/>
<path d="M100.6,110.2c0.5,0,0.7,0.3,0.7,0.9c0,0.5-0.2,1.2-0.6,2c-1.3,2.8-5.1,6.5-11.3,10.9c-0.7,1.3-1.1,2.3-1.1,3.1
	c0,0.5,0.1,0.8,0.2,0.8s0.3-0.2,0.7-0.7c0.4-0.5,0.9-1,1.4-1.5s1.2-1,2-1.5s1.6-0.7,2.3-0.7c0.4,0,0.7,0.3,0.9,0.9
	c0.2,0.6,0.4,1.3,0.5,2s0.3,1.4,0.7,2c0.4,0.6,0.9,0.9,1.6,0.9c0.9,0,2-0.2,3.2-0.5c1.2-0.4,2.4-0.8,3.6-1.3s2.3-1.1,3.2-1.6
	c1-0.5,1.8-1,2.6-1.4c0.8-0.4,1.2-0.7,1.2-0.7c0.1-0.1,0.2-0.1,0.2-0.1c0.1,0,0.2,0.1,0.2,0.2s-0.1,0.2-0.2,0.3c0,0-0.4,0.2-1,0.6
	c-0.7,0.4-1.4,0.8-2.1,1.1c-0.7,0.4-1.6,0.8-2.8,1.3c-1.1,0.5-2.2,1-3.2,1.3c-1,0.4-2.1,0.7-3.2,1s-2.1,0.4-3,0.4
	c-0.5,0-0.9-0.3-1.3-0.9c-0.4-0.6-0.6-1.2-0.8-1.9c-0.1-0.7-0.3-1.4-0.5-1.9c-0.2-0.6-0.4-0.9-0.6-0.9c-0.6,0-1.2,0.2-1.9,0.7
	c-0.7,0.5-1.3,1-1.8,1.5c-0.5,0.6-0.9,1.1-1.3,1.5c-0.4,0.5-0.6,0.7-0.7,0.7c-0.9,0-1.4-0.3-1.4-1c0-1.3,0.4-2.7,1.1-4.4
	c0.8-1.6,1.7-3.2,2.9-4.7c1.2-1.5,2.4-2.9,3.6-4.2c1.2-1.3,2.4-2.3,3.5-3.1C99.3,110.6,100.1,110.2,100.6,110.2z M90,122.8
	c5.5-4,8.9-7.3,10.2-10c0.4-0.9,0.6-1.5,0.6-1.7s-0.1-0.3-0.2-0.3c-0.5,0-2.1,1.4-4.6,4.2C93.5,117.7,91.5,120.3,90,122.8z"/>
<path d="M118.9,121.9c0.8,0,1.3,0.3,1.3,1c0,0.8-0.5,1.5-1.4,2.3s-2.1,1.2-3.4,1.2c-0.5,0-0.9-0.1-1.1-0.2c0,0.3-0.1,0.5-0.1,0.6
	c0,0.7,0.3,1.3,0.9,1.7s1.5,0.7,2.8,0.7c3.5,0,8.9-1.8,16.1-5.3c0.2-0.1,0.4-0.2,0.5-0.2c0.1-0.1,0.2-0.1,0.2-0.1
	c0.1,0,0.2,0.1,0.2,0.2s-0.1,0.2-0.3,0.3c-2.4,1.3-5.2,2.5-8.4,3.7c-3.3,1.2-6.1,1.8-8.5,1.8c-1.7,0-2.9-0.2-3.7-0.8
	c-0.8-0.5-1.2-1.1-1.2-1.9c0-1.2,0.7-2.3,2-3.4C116,122.5,117.4,121.9,118.9,121.9z M114.9,124.7c-0.1,0.2-0.2,0.5-0.2,0.7
	c0,0.3,0.3,0.5,0.8,0.5c0.9,0,1.7-0.3,2.3-0.8c0.6-0.6,1-1.1,1-1.6c0-0.4-0.3-0.6-0.8-0.6c-0.6,0-1.2,0.2-1.8,0.5
	C115.7,123.7,115.2,124.2,114.9,124.7z"/>
<path d="M63.6,149c-0.4,4.3-1.5,8.3-3.2,12c-1.2,2.4-2.4,4.8-4.2,6.6c-2.1,2.2-4.7,2.9-7.4,2.6c-2.2-0.3-3.2-1.7-3.2-4.3
	c0-1.7,0.4-3.3,0.8-5c0.5-2.1,1-4.2,1.6-6.3c1-3.7,1.1-7.5,1.1-11.3c0-0.4,0-0.8-0.2-1.1c-0.4-0.2-0.7,0.2-1.1,0.4
	c-1.6,1-2.8,2.5-3.8,4.2c-2.5,4.3-4.2,9-5,14.2c-0.1,0.4,0,0.8,0.1,1.1c0.2,0.8,0.3,1.7,0.5,2.5c0.3,1.3-0.1,2.2-0.9,2.9
	c-0.6,0.6-1.3,1-2.1,1.2c-1,0.2-1.8,0-2.4-1c-0.5-0.9-1-1.9-1.3-3c-0.8-3.3-1.3-6.7-1.7-10.2c-0.7-6-0.9-12.1-0.6-18.1
	c0.2-4,0.7-8,2.2-11.7c0.9-2.4,2.2-4.3,4.3-5.3c0.9-0.4,1.8-0.7,2.7-0.7c1.3,0,2.5,0.2,3.7,0.6c2.1,0.6,3.2,2.3,3,5.1
	c-0.2,2.6-0.8,5.1-1.8,7.4c-1.7,4.2-4.3,7.6-7.1,10.8c-0.4,0.5-0.6,0.9-0.6,1.6c0.1,3.9,0.4,7.8,1,11.6c0.3-0.1,0.3-0.3,0.4-0.4
	c0.7-2.6,1.7-4.9,2.8-7.3c1.2-2.6,2.8-4.8,4.9-6.4c2-1.6,4.2-1.5,6.2-0.5c1.7,0.8,2.6,2.6,3,4.8c0.4,2.5,0.2,4.9-0.3,7.3
	c-0.6,2.6-1.5,5-2.2,7.6c-0.3,1.1-0.5,2.2-0.6,3.3c-0.1,1,0,1.9,0.5,2.7c0.4,0.8,0.5,0.8,1.2,0.3c1.2-1,2.3-2.2,3.1-3.7
	c1.1-1.9,2.2-3.9,3.2-6c1.2-2.4,1.9-5,2.4-7.7c0.1-0.4,0.2-0.8,0.3-1.2c0.1-0.3,0.4-0.4,0.6-0.3C63.7,148.5,63.6,148.7,63.6,149z
	 M37.1,141.8c1.9-2.2,3.6-4.5,5-7.2c1.4-2.8,2.1-5.9,2.2-9.2c0-1.5-0.3-2.9-1.1-4c-0.5-0.6-0.6-0.6-1.1-0.1
	c-0.1,0.1-0.2,0.2-0.3,0.4c-2.2,2.8-3.5,6-4.1,9.8c-0.3,1.9-0.5,3.8-0.6,5.8C37,138.7,36.9,140.2,37.1,141.8z"/>
<path d="M88.3,157c0,0.8-0.3,1.6-0.6,2.4c-1.2,3.1-2.9,5.7-5.1,8.1c-1.7,1.8-3.8,2.2-6.1,2c-0.1,0-0.2,0-0.3-0.1
	c-2.6-0.4-3.4-1.4-4.1-3.8c-0.1-0.4-0.2-0.8-0.2-1.2c-0.3,0-0.3,0.3-0.4,0.4c-0.5,0.9-1.2,1.7-1.8,2.5c-1.1,1.3-3.7,2-5.2,1.3
	c-0.5-0.2-1-0.6-1.3-1c-0.8-1-1.3-2.2-1.4-3.5c-0.2-3,0.2-6,1.5-8.7c1.5-3.1,3.9-4.3,7.5-4.1c0.8,0,1.3,0.3,2.2,1c0,0,0.1,0,0.1-0.1
	c1-2,1.9-2,4.1-1.7c0.5,0.1,0.6,0.4,0.7,0.8c0.1,1.1,0.2,2.2,0,3.3c-0.3,3.4-0.7,6.8-0.7,10.2c0,0.9,0.1,1.8,0.5,2.7
	c0.6,1.3,1.6,1.6,2.8,0.8c1.5-1.1,2.7-2.5,3.6-4.1c1.1-1.8,1.9-3.7,2.7-5.6c0.2-0.6,0.6-1.1,0.8-1.7c0.1-0.2,0.3-0.3,0.5-0.2
	C88.4,156.6,88.3,156.8,88.3,157z M71.6,152.4c-0.3-0.1-0.5-0.3-0.8-0.4c-1-0.4-1.4-0.2-1.8,0.8c-0.3,0.7-0.5,1.4-0.7,2.1
	c-0.9,2.9-1.7,5.8-1.9,8.8c-0.1,1.2,0.1,2.4,0.7,3.5c0.3,0.6,0.6,0.6,1.1,0.2c1.3-1,2.3-2.3,3.1-3.7c0.4-0.7,0.6-1.4,0.7-2.2
	c0.2-2.4,0.3-4.7,0.6-7.1C72.6,153.3,72.3,152.8,71.6,152.4z"/>
<path d="M93.2,156.5c2.6,2.5,4.3,5.6,5.6,8.9c1.1-0.7,2-1.4,2.7-2.3c1.3-1.5,2.3-3.1,2.9-5c0.1-0.3,0.2-0.6,0.3-0.9
	c0.1-0.2,0.2-0.3,0.5-0.3c0.3,0.1,0.3,0.2,0.2,0.5c-0.2,1.9-1,3.5-2.1,5.1c-1,1.4-2.1,2.7-3.5,3.6c-0.6,0.4-0.6,0.4-0.4,1.1
	c0.6,2.2,0.8,4.4,0.4,6.6c-0.2,1.2-0.6,2.3-1.4,3.2c-0.9,0.9-2.1,1.3-3.4,1.5s-2.6,0.3-3.9-0.1c-1.6-0.5-2.5-1.6-2.5-3.3
	c0-1.9,0.7-3.5,2.2-4.7c0.9-0.8,2.1-1.3,3.1-1.9c0.7-0.3,0.9-0.7,0.8-1.5c-0.2-1.7-0.8-3.3-1.7-4.8c-1.4-2.3-3.2-4.3-4.8-6.4
	c-0.7-0.9-1.4-1.9-1.7-3c-0.6-1.9,0-3.6,1.7-4.6c1.8-1,3.6-1.5,5.7-0.9c0.6,0.2,1.1,0.3,1.7,0.5c1.5,0.6,2.1,1.9,1.8,3.4
	c-0.4,1.7-1.3,3-2.6,4C94.2,155.7,93.7,156.1,93.2,156.5z M94.7,169.2c-1.2,0.6-2.2,1.2-3.1,2.1c-0.6,0.5-0.9,1.1-1.1,1.9
	c-0.5,1.5,0.2,3.2,1.5,4c0.4,0.2,0.6,0.2,0.9-0.2c0.1-0.1,0.2-0.2,0.2-0.3C94.6,174.4,94.9,171.9,94.7,169.2z M92.7,155.9
	c1-0.7,1.8-1.5,2.6-2.4c0.5-0.6,0.8-1.2,1-1.9c0.3-1.2,0-2.1-0.9-2.9c-0.4-0.3-0.7-0.4-1.1-0.1c-0.9,0.6-1.8,1.2-2.4,2.1
	c-0.7,1.1-1.1,2.4-0.4,3.6C91.8,154.9,92.2,155.4,92.7,155.9z"/>
<path d="M110,156.5c2.6,2.5,4.3,5.6,5.6,8.9c1.1-0.7,2-1.4,2.7-2.3c1.3-1.5,2.3-3.1,2.9-5c0.1-0.3,0.2-0.6,0.3-0.9
	c0.1-0.2,0.2-0.3,0.5-0.3c0.3,0.1,0.3,0.2,0.2,0.5c-0.2,1.9-1,3.5-2.1,5.1c-1,1.4-2.1,2.7-3.5,3.6c-0.6,0.4-0.6,0.4-0.4,1.1
	c0.6,2.2,0.8,4.4,0.4,6.6c-0.2,1.2-0.6,2.3-1.4,3.2c-0.9,0.9-2.1,1.3-3.4,1.5s-2.6,0.3-3.9-0.1c-1.6-0.5-2.5-1.6-2.5-3.3
	c0-1.9,0.7-3.5,2.2-4.7c0.9-0.8,2.1-1.3,3.1-1.9c0.7-0.3,0.9-0.7,0.8-1.5c-0.2-1.7-0.8-3.3-1.7-4.8c-1.4-2.3-3.2-4.3-4.8-6.4
	c-0.7-0.9-1.4-1.9-1.7-3c-0.6-1.9,0-3.6,1.7-4.6c1.8-1,3.6-1.5,5.7-0.9c0.6,0.2,1.1,0.3,1.7,0.5c1.5,0.6,2.1,1.9,1.8,3.4
	c-0.4,1.7-1.3,3-2.6,4C111,155.7,110.5,156.1,110,156.5z M111.5,169.2c-1.2,0.6-2.2,1.2-3.1,2.1c-0.6,0.5-0.9,1.1-1.1,1.9
	c-0.5,1.5,0.2,3.2,1.5,4c0.4,0.2,0.6,0.2,0.9-0.2c0.1-0.1,0.2-0.2,0.2-0.3C111.4,174.4,111.8,171.9,111.5,169.2z M109.5,155.9
	c1-0.7,1.8-1.5,2.6-2.4c0.5-0.6,0.8-1.2,1-1.9c0.3-1.2,0-2.1-0.9-2.9c-0.4-0.3-0.7-0.4-1.1-0.1c-0.9,0.6-1.8,1.2-2.4,2.1
	c-0.7,1.1-1.1,2.4-0.4,3.6C108.6,154.9,109,155.4,109.5,155.9z"/>
<path d="M141,160.1c-0.2,0.8-0.4,1.7-0.8,2.5c-1,2.2-2.2,4.3-3.6,6.4c-1,1.4-2.3,2.4-4,2.6c-1.3,0.2-2.7,0.4-4,0.2
	c-1.4-0.3-2.5-1-3.3-2.3c-0.9-1.4-1.3-3-1.6-4.5c-0.8-4.6-1.1-9.2-1.1-13.8c0-2.1,0.1-4.2,0.5-6.3c0.2-0.9,0.5-1.8,0.8-2.6
	c1.4-3,3.9-4.3,7.2-3.7c0.2,0,0.4,0.1,0.6,0.1c1.8,0.4,2.5,1,2.8,2.8c0.1,0.6,0.1,1.2,0.2,1.8c-0.4,3.7-1.1,7.3-2.7,10.6
	c-1,2.1-2.1,4.2-3.3,6.2c-0.2,0.3-0.3,0.6-0.2,1c0.2,1.8,0.5,3.6,1,5.3c0.4,1.3,1,2.6,2,3.6c0.6,0.6,0.6,0.6,1.3,0.2
	c1.6-1,2.9-2.3,3.9-3.8c1.4-1.9,2.6-3.9,3.4-6.2c0-0.1,0.1-0.2,0.1-0.3c0.1-0.2,0.3-0.3,0.5-0.2C141.1,159.7,141,159.9,141,160.1z
	 M128.4,159.1c0.5-0.5,0.7-1,0.9-1.5c2.2-3.8,3.6-7.9,3.9-12.3c0.1-1.6,0-3.2-0.8-4.7c-0.5-0.9-0.6-0.9-1.3-0.1
	c-1.8,2.2-2.7,4.7-2.9,7.5C127.9,151.6,128,155.3,128.4,159.1z"/>
<path d="M148.8,168.9c-1.2-0.1-2.6-0.2-4-0.7c-2.1-0.8-3.3-2.4-3.6-4.6c-0.5-3.3,0.1-6.5,1.7-9.5c1-2,2.6-2.8,4.7-2.6
	c1,0.1,2.1,0.2,3.1,0.5c0.5,0.1,0.9,0.3,1.3,0.5c0.8,0.6,1.1,1.4,0.7,2.3c-0.5,1-1.2,1.9-2.1,2.7c-1.2,1-2.4,1.9-3.6,2.8
	c-0.4,0.3-0.5,0.6-0.6,1c-0.1,1.3,0,2.6,0.4,3.8c0.2,0.7,0.6,1.4,1.2,1.9c0.5,0.4,1,0.6,1.6,0.4c1.4-0.4,2.6-1,3.8-1.7
	c2.1-1.3,4.1-2.7,5.7-4.6c1-1.2,1.9-2.6,2.7-4c0.1-0.2,0.3-0.5,0.4-0.7c0.1-0.1,0.3-0.1,0.4,0c0.2,0.1,0.2,0.2,0.1,0.4
	c-0.9,2.4-1.9,4.8-3.7,6.7c-1.5,1.5-3.1,2.8-4.9,4C152.5,168.5,150.9,168.9,148.8,168.9z M146.8,159.1c1.3-0.9,2.5-1.8,3.5-3
	c0.3-0.3,0.5-0.7,0.7-1.1c0.2-0.5,0.1-1-0.2-1.5c-0.2-0.3-0.4-0.3-0.7-0.2c-0.7,0.4-1.2,0.9-1.6,1.6
	C147.6,156.1,147.1,157.5,146.8,159.1z"/>
<text transform="matrix(1 0 0 1 84.8452 43.3789)" font-family="'Bison-Bold'" font-size="46.3102">THE</text>
<g>
	<path d="M179.3,58H173v-8.3h6.3V58z M174,57h4.3v-6.3H174V57z"/>
</g>
<path d="M172.1,43c0.3-1,0.5-2,0.8-3s1.2-1.5,2.2-1.8c0.7-0.2,1.6-0.1,2.2,0.4c0.7,0.6,0.8,1.6,1.2,2.4c0.4,0.9,1.2,1.5,1.7,2.4
	s0.7,2.1,0.8,3.2c0,1,0,2-0.5,2.9c-0.6,0.9-1.7,1.3-2.7,1.5c-1.3,0.2-2.6,0.1-3.8-0.5s-2.1-1.6-2.4-2.9c-0.3-1.2,0-2.5,0.4-3.7
	C172,43.5,172,43.2,172.1,43z"/>
<path d="M179.3,57l-6.3,0.2c0,0-1.4,55.1-4,61.6l3.7-0.7l0.2-3.8l1.3,4.5h3.4l0.7-4.1c0,0,0.7,3.4,1.5,4.1h1.2L179.3,57z M175.1,113
	l1.1-31.8C176.6,89.3,175.1,113,175.1,113z M178.5,71.1c0.4,8.1,1,45.4,1,45.4L178.5,71.1z"/>
</svg>
