<?xml version="1.0" encoding="utf-8"?>
<!-- Generator: Adobe Illustrator 17.0.0, SVG Export Plug-In . SVG Version: 6.00 Build 0)  -->
<!DOCTYPE svg PUBLIC "-//W3C//DTD SVG 1.1//EN" "http://www.w3.org/Graphics/SVG/1.1/DTD/svg11.dtd">
<svg version="1.1" id="Layer_1" xmlns="http://www.w3.org/2000/svg" xmlns:xlink="http://www.w3.org/1999/xlink" x="0px" y="0px"
	 width="133.072px" height="180px" viewBox="33.464 10 133.072 180" enable-background="new 33.464 10 133.072 180"
	 xml:space="preserve">
<path fill="#ED1C24" d="M62.815,106.184h74.37V190h29.351V10h-29.351v68.569h-74.37V10H33.464v180h29.351
	C62.815,190,62.815,106.184,62.815,106.184z M60.336,187.521H35.943V12.479h24.393v68.569h79.328V12.479h24.393v175.042h-24.393
	v-83.816H60.336V187.521z"/>
<path fill="#F26649" d="M142.143,185.042h19.435V14.958h-19.435v68.569H57.857V14.958H38.422v170.084h19.435v-83.816h84.285v83.816
	H142.143z M55.378,98.747v83.816H40.901V17.437h14.477v68.569h89.243V17.437h14.477v165.126h-14.477V98.747H55.378z"/>
<polygon fill="#FAB49B" points="50.42,93.79 50.42,177.606 45.859,177.606 45.859,22.395 50.42,22.395 50.42,90.965 149.58,90.965 
	149.58,22.395 154.141,22.395 154.141,177.606 149.58,177.606 149.58,93.79 "/>
</svg>
