<?xml version="1.0" encoding="utf-8"?>
<!-- Generator: Adobe Illustrator 25.2.1, SVG Export Plug-In . SVG Version: 6.00 Build 0)  -->
<svg version="1.1" id="Layer_1" xmlns="http://www.w3.org/2000/svg" xmlns:xlink="http://www.w3.org/1999/xlink" x="0px" y="0px"
	 viewBox="0 0 180 141.6" style="enable-background:new 0 0 180 141.6;" xml:space="preserve">
<style type="text/css">
	.st0{fill:#FFCF2B;}
</style>
<g>
	<g>
		<path class="st0" d="M170.7,12.2c-1,0-1.8,0.2-2.2,0.6c-0.8,0.8-0.8,2.4-0.8,3.6c0,0.3,0,0.6,0,0.8l0,27c0,0.2-0.1,0.5-0.2,0.7
			l-12.8,29.2c-0.4,0.9-1.5,1.4-2.5,1c-1-0.4-1.4-1.5-1-2.4l12.7-28.8l0-26.7c0-0.3,0-0.5,0-0.8c0-0.3,0-0.5,0-0.8l0-6.4
			c0-2.8-1.9-5.6-6.1-5.6c-4.9,0-5.6,3.3-5.6,5.3l0,32.8c0,0.3-0.1,0.5-0.2,0.7L146.9,54c0.2,0.4,0.3,0.9,0.4,1.3
			c0.6,2.6,0,5.3-1.8,7.8l-11.1,15.8c-0.1,0.2-0.2,0.3-0.4,0.4l-13.2,10.3c-0.8,0.6-2,0.5-2.7-0.3c-0.7-0.8-0.5-2,0.3-2.6l13-10.1
			l11-15.6c1.2-1.7,1.6-3.4,1.2-4.9c-0.3-1.5-1.3-2.8-2.9-3.8c-1.9-1.3-5.8-1.7-8.6,2.3l-13.3,17c-0.1,0.2-0.3,0.3-0.4,0.4
			l-12.3,8.3c-4.5,3-6.2,9.6-4.3,16.8c1.4,5.3,2.1,10,2.2,14.3c0.2,10.9-1.7,17.1-2.8,20.9c-0.3,1-0.5,1.8-0.7,2.4
			c0.6,1.1,8,3.4,22.7,3.2c14.2-0.2,21.1-2.5,21.7-3.8c-0.2-0.5-0.4-1.2-0.6-2c-0.4-1.4-0.9-3.1-1.1-4.4c-1.2-8.9-0.6-20-0.6-20.5
			c0-1,0.3-2.1,0.9-3.3c0.5-1.1,1.3-2.1,2.2-3.1l4.1-4.1c8-8,14-17.4,17.9-27.9l8.2-21.9l0.4-29.3C176.2,14.7,173.7,12.2,170.7,12.2
			z"/>
		<path d="M170.7,8.5c-1.1,0-2.1,0.2-3,0.5c-0.1-5.2-4.2-9-9.9-9c-5.7,0-9.4,3.5-9.4,9l0,32.4l-4,9c-0.5-0.4-0.9-0.8-1.5-1.2
			c-3.8-2.5-10-2.2-13.8,3.2l-13,16.7l-12.1,8.1c-5.8,3.9-8.1,12-5.9,20.8c1.3,5.1,2,9.4,2.1,13.5c0.2,10.3-1.6,16.2-2.7,19.8
			c-0.3,1-0.6,1.9-0.7,2.7c-0.2,0.9-0.1,2.7,2.2,4.1c3.7,2.3,13,3.4,22.5,3.4c10.5,0,21.2-1.4,25.1-4c2.2-1.5,2.2-3.3,2-4.2
			c-0.2-0.7-0.4-1.5-0.7-2.3c-0.4-1.3-0.8-2.8-1-3.8c-1.1-8.6-0.6-19.7-0.6-19.9c0-0.5,0.2-1.1,0.5-1.8c0.4-0.7,0.9-1.4,1.6-2.1
			l4.1-4.1c8.4-8.4,14.7-18.2,18.8-29.2l8.3-22.2c0.1-0.2,0.1-0.4,0.1-0.6l0.4-29.7C180,12.6,175.8,8.5,170.7,8.5z M175.8,47
			l-8.2,21.9c-3.9,10.5-9.9,19.9-17.9,27.9l-4.1,4.1c-1,1-1.7,2-2.2,3.1c-0.6,1.2-0.9,2.3-0.9,3.3c0,0.5-0.6,11.6,0.6,20.5
			c0.2,1.4,0.7,3,1.1,4.4c0.2,0.8,0.5,1.5,0.6,2c-0.5,1.2-7.5,3.6-21.7,3.8c-14.7,0.2-22.1-2.1-22.7-3.2c0.1-0.6,0.4-1.4,0.7-2.4
			c1.1-3.7,3-10,2.8-20.9c-0.1-4.3-0.8-9-2.2-14.3c-1.9-7.2-0.2-13.8,4.3-16.8l12.3-8.3c0.2-0.1,0.3-0.2,0.4-0.4l13.3-17
			c2.8-4,6.7-3.6,8.6-2.3c1.5,1,2.5,2.3,2.9,3.8c0.4,1.6-0.1,3.3-1.2,4.9l-11,15.6l-13,10.1c-0.8,0.6-0.9,1.8-0.3,2.6
			c0.7,0.8,1.9,0.9,2.7,0.3L134,79.3c0.1-0.1,0.3-0.2,0.4-0.4l11.1-15.8c1.8-2.5,2.4-5.2,1.8-7.8c-0.1-0.4-0.3-0.9-0.4-1.3l5.1-11.4
			c0.1-0.2,0.2-0.5,0.2-0.7l0-32.8c0-2,0.7-5.3,5.6-5.3c4.2,0,6.1,2.8,6.1,5.6l0,6.4c0,0.3,0,0.6,0,0.8c0,0.3,0,0.5,0,0.8l0,26.7
			l-12.7,28.8c-0.4,0.9,0,2,1,2.4c1,0.4,2.1,0,2.5-1L167.6,45c0.1-0.2,0.2-0.5,0.2-0.7l0-27c0-0.2,0-0.5,0-0.8c0-1.2,0-2.9,0.8-3.6
			c0.4-0.4,1.2-0.6,2.2-0.6c3,0,5.5,2.5,5.5,5.5L175.8,47z"/>
	</g>
	<g>
		<path class="st0" d="M9.3,12.2c1,0,1.8,0.2,2.2,0.6c0.8,0.8,0.8,2.4,0.8,3.6c0,0.3,0,0.6,0,0.8l0,27c0,0.2,0.1,0.5,0.2,0.7
			l12.8,29.2c0.4,0.9,1.5,1.4,2.5,1c1-0.4,1.4-1.5,1-2.4L16.1,43.9l0-26.7c0-0.3,0-0.5,0-0.8c0-0.3,0-0.5,0-0.8l0-6.4
			c0-2.8,1.9-5.6,6.1-5.6c4.9,0,5.6,3.3,5.6,5.3l0,32.8c0,0.3,0.1,0.5,0.2,0.7L33.1,54c-0.2,0.4-0.3,0.9-0.4,1.3
			c-0.6,2.6,0,5.3,1.8,7.8l11.1,15.8c0.1,0.2,0.2,0.3,0.4,0.4l13.2,10.3c0.8,0.6,2,0.5,2.7-0.3c0.7-0.8,0.5-2-0.3-2.6l-13-10.1
			L37.6,61c-1.2-1.7-1.6-3.4-1.2-4.9c0.3-1.5,1.3-2.8,2.9-3.8c1.9-1.3,5.8-1.7,8.6,2.3l13.3,17c0.1,0.2,0.3,0.3,0.4,0.4l12.3,8.3
			c4.5,3,6.2,9.6,4.3,16.8c-1.4,5.3-2.1,10-2.2,14.3c-0.2,10.9,1.7,17.1,2.8,20.9c0.3,1,0.5,1.8,0.7,2.4c-0.6,1.1-8,3.4-22.7,3.2
			c-14.2-0.2-21.1-2.5-21.7-3.8c0.2-0.5,0.4-1.2,0.6-2c0.4-1.4,0.9-3.1,1.1-4.4c1.2-8.9,0.6-20,0.6-20.5c0-1-0.3-2.1-0.9-3.3
			c-0.5-1.1-1.3-2.1-2.2-3.1l-4.1-4.1c-8-8-14-17.4-17.9-27.9L4.2,47L3.8,17.7C3.8,14.7,6.3,12.2,9.3,12.2z"/>
		<path d="M0,17.7l0.4,29.7c0,0.2,0,0.4,0.1,0.6l8.3,22.2c4.1,11,10.4,20.8,18.8,29.2l4.1,4.1c0.7,0.7,1.2,1.4,1.6,2.1
			c0.3,0.7,0.5,1.3,0.5,1.8c0,0.2,0.6,11.4-0.6,19.9c-0.1,1.1-0.6,2.6-1,3.8c-0.3,0.8-0.5,1.6-0.7,2.3c-0.2,0.9-0.3,2.7,2,4.2
			c3.9,2.6,14.6,4,25.1,4c9.5,0,18.8-1.1,22.5-3.4c2.3-1.5,2.4-3.2,2.2-4.1c-0.2-0.8-0.4-1.7-0.7-2.7c-1.1-3.5-2.9-9.5-2.7-19.8
			c0.1-4.1,0.7-8.4,2.1-13.5c2.3-8.7,0-16.9-5.9-20.8L64,69.2l-13-16.7c-3.8-5.5-10-5.8-13.8-3.2c-0.5,0.4-1,0.7-1.5,1.2l-4-9
			l0-32.4c0-5.5-3.7-9-9.4-9c-5.6,0-9.7,3.8-9.9,9c-0.9-0.3-1.8-0.5-3-0.5C4.2,8.5,0,12.6,0,17.7z M3.8,17.7c0-3,2.5-5.5,5.5-5.5
			c1,0,1.8,0.2,2.2,0.6c0.8,0.8,0.8,2.4,0.8,3.6c0,0.3,0,0.6,0,0.8l0,27c0,0.2,0.1,0.5,0.2,0.7l12.8,29.2c0.4,0.9,1.5,1.4,2.5,1
			c1-0.4,1.4-1.5,1-2.4L16.1,43.9l0-26.7c0-0.3,0-0.5,0-0.8c0-0.3,0-0.5,0-0.8l0-6.4c0-2.8,1.9-5.6,6.1-5.6c4.9,0,5.6,3.3,5.6,5.3
			l0,32.8c0,0.3,0.1,0.5,0.2,0.7L33.1,54c-0.2,0.4-0.3,0.9-0.4,1.3c-0.6,2.6,0,5.3,1.8,7.8l11.1,15.8c0.1,0.2,0.2,0.3,0.4,0.4
			l13.2,10.3c0.8,0.6,2,0.5,2.7-0.3c0.7-0.8,0.5-2-0.3-2.6l-13-10.1L37.6,61c-1.2-1.7-1.6-3.4-1.2-4.9c0.3-1.5,1.3-2.8,2.9-3.8
			c1.9-1.3,5.8-1.7,8.6,2.3l13.3,17c0.1,0.2,0.3,0.3,0.4,0.4l12.3,8.3c4.5,3,6.2,9.6,4.3,16.8c-1.4,5.3-2.1,10-2.2,14.3
			c-0.2,10.9,1.7,17.1,2.8,20.9c0.3,1,0.5,1.8,0.7,2.4c-0.6,1.1-8,3.4-22.7,3.2c-14.2-0.2-21.1-2.5-21.7-3.8c0.2-0.5,0.4-1.2,0.6-2
			c0.4-1.4,0.9-3.1,1.1-4.4c1.2-8.9,0.6-20,0.6-20.5c0-1-0.3-2.1-0.9-3.3c-0.5-1.1-1.3-2.1-2.2-3.1l-4.1-4.1c-8-8-14-17.4-17.9-27.9
			L4.2,47L3.8,17.7z"/>
	</g>
</g>
</svg>
