<?xml version="1.0" encoding="utf-8"?>
<!-- Generator: Adobe Illustrator 25.2.1, SVG Export Plug-In . SVG Version: 6.00 Build 0)  -->
<svg version="1.1" id="Layer_1" xmlns="http://www.w3.org/2000/svg" xmlns:xlink="http://www.w3.org/1999/xlink" x="0px" y="0px"
	 viewBox="0 0 180 163.9" style="enable-background:new 0 0 180 163.9;" xml:space="preserve">
<style type="text/css">
	.st0{fill:#FFCF2B;}
</style>
<g>
	<path class="st0" d="M174.5,127.1c0,6.3-5.3,11.5-11.8,11.5h-43.9c-6.5,0-11.8-5.1-11.8-11.5c0-3.2,1.3-6,3.5-8.1
		c2.2-2.1,5.1-3.4,8.4-3.4h43.9c0.1,0,0.3,0,0.4,0C169.4,115.9,174.5,120.9,174.5,127.1z"/>
	<path class="st0" d="M165.3,115.7h-53.5c-6.5,0-11.8-5.1-11.8-11.4l0,0c0-6.3,5.3-11.4,11.8-11.4h53.5c6.5,0,11.8,5.1,11.8,11.4
		l0,0C177.1,110.5,171.8,115.7,165.3,115.7z"/>
	<path class="st0" d="M166.7,92.9h-58.2c-0.9,0-1.7-0.8-1.7-1.7V71.6c0-0.9,0.8-1.7,1.7-1.7h58.2c4.2,0,7.7,3.5,7.7,7.7v7.5
		C174.5,89.4,171,92.9,166.7,92.9z"/>
	<path class="st0" d="M167.6,149.8c0,6.2-5.2,11.2-11.5,11.2h-29c-6.4,0-11.5-5-11.5-11.2c0-6.2,5.2-11.2,11.5-11.2h29
		c3.2,0,6.1,1.3,8.1,3.3C166.3,143.9,167.6,146.7,167.6,149.8z"/>
	<path class="st0" d="M127.1,161l-38.6,0c-6.3,0.1-12.7-0.2-17.7-1.4c-13.9-3.3-23.3-3.9-36.1-4.2c-4.7-0.1-9.5,0.1-14.3,0.7l-0.1,0
		c-4.1,0.5-8.1-1.4-10.2-5C6.6,145.2,2.5,134.2,3,116c0.5-19.3,6.1-29.9,10.3-35.1c2.2-2.7,5.3-4.3,8.6-4.4H22
		c7.8-1.1,16.2,3.2,27.7-2c19-18.3,29.7-17.2,33.9-27.4L92.3,14c2-8.2,8.7-12.6,16.6-10.7c9.4,2.2,10.8,8.6,9.1,16.4l-10.6,44.6
		c0,0,3.5,2.1,7.9,5.6h3c-3.1,0.1-5.9,1.4-8,3.3c-2.1,2.1-3.5,4.9-3.5,8.1c0,6.3,5.3,11.5,11.8,11.5l-6.9,0c-6.5,0-11.8,5-11.8,11.3
		c0,6.3,5.3,11.5,11.8,11.5h6.9c-3.3,0-6.2,1.3-8.4,3.4c-2.1,2.1-3.5,4.9-3.5,8.1c0,6.3,5.3,11.5,11.8,11.5h8.4
		c-6.4,0-11.5,5-11.5,11.2C115.5,156,120.7,161,127.1,161z"/>
	<path d="M172.6,116.6c4.4-2.5,7.4-7.1,7.4-12.3c0-5.3-3-9.9-7.4-12.4c2.9-2.6,4.8-6.4,4.8-10.5c0-7.9-6.6-14.3-14.8-14.3h-44
		c-0.1,0-0.2,0-0.3,0c0,0-0.1,0-0.1,0H117c-0.4,0-0.9-0.1-1.2-0.4c-1.5-1.2-2.9-2.2-4-2.9c-0.7-0.5-1-1.3-0.8-2l9.8-41.5
		c2.3-10.8-1.5-17.5-11.3-19.8c-4.4-1-8.8-0.4-12.3,1.7c-3.8,2.3-6.6,6.3-7.8,11.1l-8.6,32.9c-1.8,4.2-5.1,6.1-10.5,9.3
		c-5.5,3.2-13,7.6-22.4,16.6c-6.5,2.8-11.9,2.3-17.2,1.8c-3.1-0.3-6-0.6-9-0.2c-4.2,0.1-8.1,2.1-10.8,5.5C6.3,85,0.6,96.1,0,115.9
		c-0.5,18.9,3.8,30.3,7.4,36.6c2.6,4.6,7.8,7.1,13.3,6.4c4.8-0.6,9.4-0.8,13.8-0.7c13.5,0.3,22.3,1.1,35.5,4.2
		c4.2,1,9.6,1.5,16.1,1.5c0.8,0,1.5,0,2.3,0l38.6,0h29c8,0,14.5-6.3,14.5-14.1c0-3.4-1.2-6.5-3.4-9c5.9-1.9,10.3-7.3,10.3-13.6
		C177.4,123,175.6,119.2,172.6,116.6z M165.3,95.7c4.9,0,8.8,3.8,8.8,8.6c0,4.7-4,8.6-8.8,8.6h-2.2c-0.2,0-0.3,0-0.5,0h-43.9h-6.9
		c-4.9,0-8.9-3.8-8.9-8.6c0-3.4,2.1-6.4,5.1-7.7c1.1-0.5,2.4-0.8,3.8-0.8l6.9,0h43.9H165.3z M171.5,81.4c0,4.7-4,8.6-8.9,8.6h-43.9
		c-4.9,0-8.9-3.9-8.9-8.6c0-2.4,1-4.6,2.7-6.2c0.3-0.3,0.7-0.6,1.1-0.9c0,0,0.1-0.1,0.1-0.1c0.4-0.3,0.8-0.5,1.3-0.7
		c0.1,0,0.1-0.1,0.2-0.1c0.4-0.2,0.9-0.3,1.3-0.4c0.1,0,0.2-0.1,0.3-0.1c0.4-0.1,0.9-0.1,1.3-0.2c0.2,0,0.3,0,0.5,0h44
		C167.5,72.8,171.5,76.7,171.5,81.4z M88.4,158.2c-6.9,0.1-12.7-0.3-16.9-1.3c-13.7-3.2-23.1-4-36.7-4.3c-0.8,0-1.6,0-2.5,0
		c-3.9,0-8.1,0.3-12.4,0.8c-3,0.4-5.8-1-7.3-3.6c-3.3-5.6-7.1-16-6.7-33.6c0.5-18.2,5.5-28.3,9.7-33.4c1.6-2,3.9-3.2,6.4-3.3
		c0.1,0,0.3,0,0.4,0c2.4-0.3,5-0.1,7.8,0.2c5.6,0.6,12.5,1.2,20.7-2.5c0.3-0.1,0.6-0.3,0.8-0.6c9-8.7,16-12.8,21.6-16.1
		c5.8-3.4,10.5-6.1,13-12.3c0-0.1,0.1-0.2,0.1-0.3l8.7-33.1c0.8-3.4,2.6-6.1,5.1-7.6c2.3-1.3,5-1.7,7.9-1c6.6,1.5,8.6,5.3,7,13
		l-10.6,44.6c-0.3,1.2,0.2,2.4,1.3,3.1c0,0,0.9,0.5,2.3,1.5c1,0.7,1.1,2.2,0.2,3.1c0,0,0,0,0,0c-2.8,2.7-4.3,6.3-4.3,10.1
		c0,0,0,0,0,0c0,0,0,0,0,0c0,0.1,0,0.1,0,0.2c0,0.4,0,0.8,0.1,1.2c0,0.2,0.1,0.4,0.1,0.6c0,0.2,0.1,0.5,0.1,0.7
		c0,0.2,0.1,0.5,0.2,0.7c0,0.2,0.1,0.4,0.2,0.6c0.1,0.2,0.2,0.5,0.2,0.7c0.1,0.2,0.1,0.3,0.2,0.5c0.1,0.3,0.2,0.5,0.3,0.7
		c0.1,0.1,0.1,0.3,0.2,0.4c0.1,0.3,0.3,0.5,0.4,0.7c0.1,0.1,0.1,0.2,0.2,0.4c0.2,0.3,0.3,0.5,0.5,0.7c0.1,0.1,0.1,0.2,0.2,0.3
		c0.2,0.3,0.4,0.5,0.6,0.8c-2.2,0.7-4.2,1.8-5.8,3.3c0,0-0.1,0.1-0.1,0.1c-0.2,0.1-0.3,0.3-0.5,0.5c-0.2,0.2-0.3,0.3-0.5,0.5
		c-0.1,0.1-0.2,0.2-0.3,0.3c-0.2,0.3-0.4,0.5-0.6,0.8c0,0.1-0.1,0.1-0.1,0.2c-1.6,2.2-2.5,4.9-2.5,7.8c0,0,0,0,0,0c0,0,0,0,0,0
		c0,0.1,0,0.2,0,0.4c0,0.3,0,0.6,0,0.8c0,0.3,0.1,0.6,0.1,0.9c0,0.1,0,0.2,0,0.3c0.9,5.3,4.9,9.7,10.1,11.3c0,0,0,0.1-0.1,0.1
		c-0.1,0.1-0.2,0.3-0.3,0.4c-0.2,0.2-0.3,0.4-0.5,0.7c-0.1,0.2-0.2,0.3-0.3,0.5c-0.1,0.2-0.3,0.4-0.4,0.7c-0.1,0.2-0.2,0.3-0.3,0.5
		c-0.1,0.2-0.2,0.5-0.3,0.7c-0.1,0.2-0.2,0.3-0.2,0.5c-0.1,0.2-0.2,0.5-0.3,0.7c-0.1,0.2-0.1,0.3-0.2,0.5c-0.1,0.3-0.1,0.5-0.2,0.8
		c0,0.2-0.1,0.3-0.1,0.5c-0.1,0.3-0.1,0.6-0.1,0.9c0,0.1,0,0.3-0.1,0.4c0,0.4-0.1,0.9-0.1,1.3c0,0.5,0,0.9,0.1,1.4
		c0,0.1,0,0.3,0.1,0.4c0,0.3,0.1,0.6,0.1,0.9c0,0.2,0.1,0.3,0.1,0.5c0.1,0.3,0.1,0.5,0.2,0.8c0.1,0.2,0.1,0.3,0.2,0.5
		c0.1,0.3,0.2,0.5,0.3,0.8c0.1,0.2,0.1,0.3,0.2,0.5c0.1,0.3,0.2,0.5,0.4,0.8c0.1,0.1,0.1,0.3,0.2,0.4c0.2,0.3,0.3,0.6,0.5,0.8
		c0.1,0.1,0.1,0.2,0.2,0.3c0.3,0.4,0.5,0.7,0.8,1.1c0,0,0,0,0,0c0.3,0.3,0.6,0.6,0.9,0.9c0.1,0.1,0.2,0.2,0.3,0.3
		c0.2,0.2,0.5,0.4,0.7,0.6c0.1,0.1,0.2,0.2,0.4,0.3c0.2,0.2,0.5,0.3,0.7,0.5c0.1,0.1,0.3,0.2,0.4,0.3c0.2,0.2,0.5,0.3,0.7,0.4
		c0.1,0.1,0.3,0.2,0.4,0.2c0.3,0.1,0.5,0.3,0.8,0.4c0.1,0.1,0.3,0.1,0.4,0.2c0.3,0.1,0.6,0.2,1,0.3c0.1,0,0.2,0.1,0.3,0.1
		c0.4,0.1,0.9,0.2,1.3,0.3c-0.2,0.2-0.3,0.4-0.5,0.6c-0.1,0.1-0.1,0.2-0.2,0.2c-0.2,0.4-0.5,0.7-0.7,1.1c0,0-0.1,0.1-0.1,0.2
		c-0.2,0.3-0.3,0.7-0.5,1c-0.1,0.1-0.1,0.3-0.2,0.4c-0.1,0.3-0.2,0.5-0.3,0.8c-0.1,0.1-0.1,0.3-0.1,0.5c-0.1,0.3-0.2,0.5-0.2,0.8
		c0,0.2-0.1,0.3-0.1,0.5c-0.1,0.3-0.1,0.6-0.1,0.9c0,0.1,0,0.3-0.1,0.4c0,0.4-0.1,0.9-0.1,1.3c0,0.4,0,0.9,0.1,1.3
		c0,0.1,0,0.3,0.1,0.4c0,0.3,0.1,0.6,0.1,0.9c0,0.2,0.1,0.3,0.1,0.5c0.1,0.3,0.1,0.6,0.2,0.8c0,0.1,0.1,0.3,0.1,0.4
		c0.1,0.3,0.2,0.7,0.4,1c0,0.1,0,0.1,0.1,0.2c0.2,0.4,0.4,0.8,0.6,1.1c0.1,0.1,0.1,0.2,0.2,0.3c0.1,0.3,0.3,0.5,0.5,0.7
		c0.1,0.1,0.2,0.3,0.3,0.4c0.1,0.1,0.1,0.2,0.2,0.3L88.4,158.2z M156.1,158.2h-29c-4.7,0-8.6-3.8-8.6-8.4c0-4.6,3.9-8.3,8.6-8.3h29
		c2.3,0,4.5,0.9,6.1,2.5c1.6,1.6,2.5,3.6,2.5,5.9C164.7,154.4,160.8,158.2,156.1,158.2z M162.6,135.8h-6.6h-29h-8.4
		c-4.9,0-8.9-3.9-8.9-8.6c0-2.3,0.9-4.5,2.6-6.1c1.6-1.5,3.7-2.4,5.9-2.5H163c4.8,0.2,8.6,3.9,8.6,8.6
		C171.5,131.9,167.5,135.8,162.6,135.8z"/>
</g>
</svg>
