<?xml version="1.0" encoding="utf-8"?>
<!-- Generator: Adobe Illustrator 25.2.1, SVG Export Plug-In . SVG Version: 6.00 Build 0)  -->
<svg version="1.1" id="Layer_1" xmlns="http://www.w3.org/2000/svg" xmlns:xlink="http://www.w3.org/1999/xlink" x="0px" y="0px"
	 viewBox="0 0 180 353.3" style="enable-background:new 0 0 180 353.3;" xml:space="preserve">
<style type="text/css">
	.st0{fill:#FFCF2B;}
</style>
<g>
	<g>
		<path class="st0" d="M126.3,203.4c1.8,9.9-5,19.3-15.2,21l0,0c-10.2,1.7-19.9-4.9-21.7-14.7L56.2,25.8c-1.8-9.9,5-19.3,15.2-21
			l0,0C81.5,3,91.2,9.6,93,19.5L126.3,203.4z"/>
		<path d="M107.8,229.2c-4.8,0-9.4-1.4-13.4-4.1c-5.1-3.5-8.5-8.7-9.6-14.6L51.6,26.6c-1.1-6,0.3-12,3.9-16.9
			c3.6-5,8.9-8.3,15.1-9.3c6.2-1,12.3,0.3,17.4,3.8c5.1,3.5,8.5,8.7,9.6,14.6l33.3,183.9c1.1,6-0.3,12-3.9,16.9
			c-3.6,5-8.9,8.3-15.1,9.3C110.6,229.1,109.2,229.2,107.8,229.2z M74.6,9c-0.8,0-1.6,0.1-2.5,0.2c-7.6,1.3-12.8,8.4-11.4,15.8
			L94,208.9c0.6,3.6,2.7,6.7,5.8,8.8c3.1,2.1,6.8,2.9,10.5,2.3c3.7-0.6,6.9-2.6,9.1-5.6c2.2-3,3-6.6,2.3-10.2l0,0L88.5,20.3
			c-0.6-3.6-2.7-6.7-5.8-8.8C80.3,9.9,77.5,9,74.6,9z"/>
	</g>
	<g>
		<path class="st0" d="M14.1,161.1l0,61.8c0,9.2,1.6,17.8,3.7,25.1c5.7,20.5,8.9,34.5,9.9,53.3c0.4,6.9,0.1,13.9-0.7,20.8l0,0.2
			c-0.7,6,2.5,11.9,8.4,15.1c9.6,5.2,27.4,11.6,56.9,11.5c31.2-0.1,48.1-8,56.3-13.9c4.3-3.1,6.8-7.7,6.8-12.5l0-0.1
			c1.2-9.5,2.1-27.8,12.5-43.9c4.6-7.2,7.3-15.3,7.3-23.8v-38.4L14.1,161.1z"/>
		<path d="M91.5,353.3c-30,0-48.3-6.5-58.4-12c-7.4-4-11.7-11.6-10.8-19.5c0-0.1,0-0.3,0.1-0.4c0.7-6.6,1-13.4,0.6-19.9
			c-0.9-18.3-4-31.9-9.7-52.3c-2.5-8.9-3.8-17.8-3.9-26.3l0-61.8c0-2.5,2.1-4.5,4.6-4.5c0,0,0,0,0,0c2.6,0,4.6,2,4.6,4.5l0,61.8
			c0,7.7,1.2,15.8,3.5,24c5.9,21,9.1,35.2,10,54.2c0.4,7,0.1,14.2-0.7,21.5c0,0.1,0,0.3-0.1,0.4c-0.4,4.1,1.9,8.2,6.1,10.4
			c9.2,5,25.9,10.9,53.9,10.9c0.2,0,0.5,0,0.7,0c31-0.1,46.9-8.2,53.6-13c3.1-2.2,4.9-5.5,4.9-8.9c0-0.2,0-0.5,0-0.7
			c0.1-1.1,0.3-2.3,0.4-3.6c1.1-10.1,3-27.1,12.8-42.1c4.3-6.7,6.6-14.1,6.6-21.4v-38.4c0-2.5,2.1-4.5,4.6-4.5c2.6,0,4.6,2,4.6,4.5
			v38.4c0,9-2.8,18-8.1,26.2c-8.6,13.3-10.3,28.4-11.4,38.3c-0.1,1.3-0.3,2.4-0.4,3.5c-0.1,6.3-3.2,12.1-8.7,15.9
			c-9.3,6.7-27.1,14.7-59,14.8C92,353.3,91.8,353.3,91.5,353.3z"/>
	</g>
	<g>
		<path class="st0" d="M156.9,22.6c-3.4-3.3-8.1-5.4-13.3-5.4c-10.1,0-18.3,8.1-18.6,18.1v129.2l37.4,2.8V35.8
			C162.4,30.6,160.3,26,156.9,22.6z"/>
		<path d="M162.5,171.7c-2.6,0-4.6-2-4.6-4.5V35.8c0-3.8-1.5-7.3-4.2-10c-2.7-2.6-6.2-4-9.9-4c0,0,0,0,0,0c-7.6,0-13.8,6-14,13.7
			l0,129.1c0,2.5-2.1,4.5-4.6,4.5c-2.6,0-4.6-2-4.6-4.5V35.2c0.4-12.7,10.6-22.5,23.2-22.6c6.2-0.1,12.1,2.4,16.6,6.7
			c4.4,4.4,6.9,10.2,6.9,16.3v131.5C167.1,169.7,165,171.7,162.5,171.7z"/>
	</g>
	<g>
		<path d="M80.7,283.2c-2.6,0-4.6-2-4.6-4.5c0-31.4,7.4-54.4,21.9-68.3c13.5-12.9,28.1-12.8,28.7-12.8c2.6,0,4.6,2.1,4.6,4.6
			c0,2.5-2.1,4.4-4.6,4.4c0,0,0,0,0,0c-1.8,0-41.2,0.9-41.2,72.2C85.3,281.2,83.3,283.2,80.7,283.2z"/>
	</g>
	<g>
		<path class="st0" d="M34.1,215.5c-9.9,1.7-19.4-4.7-21.2-14.3l-8-43.7c-1.8-9.6,4.9-18.8,14.8-20.5l0,0
			c9.9-1.7,19.4,4.7,21.2,14.3l8,43.7C50.6,204.7,44,213.8,34.1,215.5L34.1,215.5z"/>
		<path d="M30.9,220.3c-10.9,0-20.6-7.6-22.5-18.3l-8-43.7c-1.1-5.8,0.3-11.7,3.8-16.6c3.5-4.9,8.7-8.1,14.8-9.1
			c6-1,12.1,0.3,17.1,3.7c5,3.4,8.4,8.5,9.4,14.3l8,43.7c1.1,5.8-0.3,11.7-3.8,16.6c-3.5,4.9-8.7,8.1-14.8,9.1
			C33.5,220.2,32.2,220.3,30.9,220.3z M22.9,141.2c-0.8,0-1.6,0.1-2.4,0.2c-3.6,0.6-6.7,2.5-8.8,5.4c-2.1,2.9-2.9,6.4-2.2,9.9
			l8,43.7c1.3,7.2,8.4,12,15.8,10.7c3.6-0.6,6.7-2.5,8.8-5.4c2.1-2.9,2.9-6.4,2.2-9.9l-8-43.7c-0.6-3.5-2.6-6.5-5.6-8.5
			C28.4,142,25.7,141.2,22.9,141.2z"/>
	</g>
	<g>
		<path class="st0" d="M54.2,120.4c-10.2,1.7-16.9,11.2-15.1,21l12.1,66.3c1.8,9.9,11.5,16.4,21.7,14.7l0,0
			c10.2-1.7,16.9-11.2,15.1-21L75.8,135C74,125.2,64.3,118.6,54.2,120.4L54.2,120.4z"/>
		<path d="M69.5,227.1c-4.7,0-9.3-1.4-13.3-4.1c-5.1-3.5-8.5-8.6-9.6-14.6l-12.1-66.3c-2.2-12.3,6.2-24.1,18.9-26.2c0,0,0,0,0,0
			c12.7-2.2,24.8,6,27,18.3l12.1,66.3c1.1,6-0.3,12-3.8,16.9c-3.6,5-8.9,8.3-15.1,9.3C72.3,227,70.9,227.1,69.5,227.1z M55,124.8
			c-7.6,1.3-12.7,8.4-11.4,15.8l12.1,66.3c0.7,3.6,2.7,6.7,5.8,8.8c3.1,2.1,6.8,2.9,10.5,2.2c3.7-0.6,6.9-2.6,9.1-5.6
			c2.1-3,3-6.6,2.3-10.2l-12.1-66.3C69.9,128.4,62.6,123.5,55,124.8L55,124.8z"/>
	</g>
	<g>
		<path class="st0" d="M146.6,164.5H98.4c-13.5,0-20.5,8.8-20.5,19.7c0,8,6.6,18.2,21.4,18.2H127l19.6,14.9l28.6-1
			C175.4,185.6,178.2,164.5,146.6,164.5z"/>
		<path d="M146.6,221.7c-1,0-2-0.3-2.9-1l-18.3-13.9H99.3c-16.9,0-26-11.7-26-22.7c0-14.5,10.1-24.2,25.1-24.2h48.2
			c11.3,0,19.3,2.6,24.7,7.8c9.1,8.9,8.9,23.5,8.6,42c0,2.1-0.1,4.3-0.1,6.5c0,2.5-2.1,4.5-4.6,4.5c0,0,0,0,0,0
			c-2.6,0-4.6-2-4.6-4.5c0-2.2,0-4.4,0.1-6.5c0.2-16.4,0.4-29.3-5.9-35.5c-3.5-3.5-9.5-5.2-18.1-5.2H98.4c-9.9,0-15.9,5.7-15.9,15.2
			c0,5.5,4.5,13.7,16.8,13.7H127c1,0,2,0.3,2.9,1l19.6,14.9c2,1.5,2.4,4.4,0.8,6.3C149.3,221.1,148,221.7,146.6,221.7z"/>
	</g>
</g>
</svg>
