<?xml version="1.0" encoding="utf-8"?>
<!-- Generator: Adobe Illustrator 25.2.1, SVG Export Plug-In . SVG Version: 6.00 Build 0)  -->
<svg version="1.1" id="Layer_1" xmlns="http://www.w3.org/2000/svg" xmlns:xlink="http://www.w3.org/1999/xlink" x="0px" y="0px"
	 viewBox="0 0 180 83.5" style="enable-background:new 0 0 180 83.5;" xml:space="preserve">
<style type="text/css">
	.st0{fill:#FFCF2B;}
</style>
<g>
	<g>
		<path class="st0" d="M25.4,34.7l13.2-16.3L57.3,8.3c1.5-0.8,3.4-0.8,4.9,0.1l19.7,11.8l0,13c-5.6,6.6-12.9,2.7-12.9-2.8l0-2.8
			l-6.4-3.9c-1.8-1.1-4.1-1.1-6,0l-14.3,11L41.1,45L25.4,34.7z"/>
		<path d="M41.1,46.6c-0.3,0-0.6-0.1-0.9-0.3L24.5,36.1c-0.4-0.2-0.6-0.6-0.7-1.1c-0.1-0.4,0-0.9,0.3-1.2l13.2-16.3
			c0.1-0.2,0.3-0.3,0.5-0.4L56.5,7c2-1.1,4.6-1.1,6.6,0.1l19.7,11.8c0.5,0.3,0.8,0.8,0.8,1.4l0,13c0,0.4-0.1,0.7-0.4,1
			c-3,3.5-6.9,4.8-10.5,3.6c-3.2-1.1-5.3-4.1-5.3-7.4l0-1.9l-5.6-3.4c-1.3-0.8-2.9-0.8-4.1,0L43.8,35.6l-1.1,9.5
			c-0.1,0.6-0.4,1-0.9,1.3C41.6,46.5,41.4,46.6,41.1,46.6z M27.8,34.4l12,7.8l0.8-7.6c0-0.4,0.3-0.8,0.6-1.1l14.3-11
			c0,0,0.1-0.1,0.1-0.1c2.3-1.5,5.4-1.5,7.7,0l6.4,3.9c0.5,0.3,0.8,0.8,0.8,1.4l0,2.8c0,1.9,1.3,3.7,3.1,4.4
			c2.1,0.7,4.4-0.1,6.4-2.2l0-11.5L61.3,9.8c-1-0.6-2.2-0.6-3.2-0.1l-18.4,10L27.8,34.4z"/>
	</g>
	<g>
		<path class="st0" d="M31.7,20.7l16.6-13l20.5-5.9c1.7-0.5,3.5,0,4.7,1.2L90,18.7l-3,12.6c-7,5.2-13.2-0.1-11.9-5.5l0.6-2.7
			L70.4,18c-1.5-1.5-3.8-2-5.8-1.3l-9.8,3.4L44.7,34.1c-0.9,1.1-1.2,2.6-0.8,3.9l3.5,12.2c0.9,2.7,2.3,4.4,5.7,6.7
			c0,0,8.2,4.1,14,6.6L86.3,69c3.2,1.6,4.4,5.7,2.6,9l0,0c-1.8,3.4-5.9,4.8-9.1,3.2l-27.4-8.7c-3.6-1.2-7.5-1.5-11.3-1.1
			c-5.1,0.6-12,1.9-15.5,4.7C19.4,81-2.6,49.3,2.3,44.8c1.2-1,2.7-2,4.2-2.9c6.9-3.8,13.1-8.6,18.2-14.6l0.2-0.2
			C27.6,24.1,28.3,23.2,31.7,20.7z"/>
		<path d="M82.6,83.5c-1.2,0-2.4-0.2-3.5-0.8L51.9,74c-3.4-1.1-7-1.4-10.5-1c-7,0.8-12.2,2.4-14.7,4.4c-2.9,2.3-7.6,0-13.6-6.7
			c-6.3-7.1-16.6-22.7-11.9-27c1.1-1,2.6-2,4.5-3.1c7-3.9,13-8.6,17.7-14.2l0.4-0.5c2.5-2.9,3.4-3.9,6.8-6.4l16.5-13
			c0.2-0.1,0.4-0.2,0.6-0.3l20.5-5.9c2.2-0.6,4.7-0.1,6.4,1.5l16.5,15.7c0.4,0.4,0.6,1,0.4,1.5l-3,12.6c-0.1,0.4-0.3,0.7-0.6,0.9
			c-3.7,2.8-7.8,3.2-11,1.2c-2.8-1.8-4.3-5.1-3.5-8.3l0.4-1.8l-4.7-4.6c-1.1-1-2.7-1.4-4.1-0.9l-9.3,3.3L46,35
			c-0.6,0.8-0.8,1.7-0.5,2.6L49,49.8c0.7,2,1.7,3.5,4.9,5.8c1,0.5,8.4,4.1,13.8,6.5l19.1,5.4c0.1,0,0.2,0.1,0.3,0.1
			c4,2,5.5,7,3.3,11.2C88.8,81.7,85.7,83.5,82.6,83.5z M44.3,69.7c2.9,0,5.8,0.4,8.6,1.3l27.4,8.7c0.1,0,0.2,0.1,0.2,0.1
			c2.4,1.2,5.5,0.1,6.9-2.5c1.3-2.5,0.5-5.6-1.8-6.8l-19-5.4c-0.1,0-0.1,0-0.2-0.1c-5.8-2.6-14-6.6-14.1-6.7c-0.1,0-0.1-0.1-0.2-0.1
			c-3.5-2.4-5.2-4.4-6.3-7.5l-3.5-12.3c-0.5-1.8-0.1-3.8,1.1-5.3l10.1-13.9c0.2-0.3,0.5-0.5,0.8-0.6l9.8-3.4
			c2.6-0.9,5.6-0.3,7.5,1.6l5.4,5.2c0.4,0.4,0.6,0.9,0.4,1.5l-0.6,2.7c-0.4,1.9,0.4,3.9,2.1,4.9c1.9,1.2,4.3,0.9,6.8-0.7l2.6-11.2
			L72.4,4.1c-0.8-0.8-2-1.1-3.1-0.8L49,9.1L32.7,21.9c0,0,0,0,0,0c-3.1,2.3-3.8,3.1-6.3,5.9L26,28.5c-5,5.9-11.3,10.9-18.6,14.9
			c-1.6,0.9-2.9,1.8-3.9,2.6C2,47.3,6.7,58.6,15.6,68.6c5.1,5.7,8.3,6.9,9,6.3c3.8-3,11-4.4,16.4-5C42.1,69.7,43.2,69.7,44.3,69.7z
			 M31.7,20.7L31.7,20.7L31.7,20.7z"/>
	</g>
	<g>
		<path class="st0" d="M154.6,34.7l-13.2-16.3L122.7,8.3c-1.5-0.8-3.4-0.8-4.9,0.1L98.2,20.3l0,13c5.6,6.6,12.9,2.7,12.9-2.8l0-2.8
			l6.4-3.9c1.8-1.1,4.1-1.1,6,0l14.3,11l1.1,10.2L154.6,34.7z"/>
		<path d="M138.9,46.6c-0.2,0-0.5,0-0.7-0.1c-0.5-0.2-0.9-0.7-0.9-1.3l-1.1-9.5l-13.7-10.5c-1.3-0.8-2.9-0.7-4.1,0l-5.6,3.4l0,1.9
			c0,3.3-2.1,6.2-5.3,7.4c-3.6,1.3-7.5-0.1-10.5-3.6c-0.2-0.3-0.4-0.6-0.4-1l0-13c0-0.6,0.3-1.1,0.8-1.4L117,7.1
			c2-1.2,4.5-1.3,6.6-0.1l18.7,10.2c0.2,0.1,0.4,0.2,0.5,0.4l13.2,16.3c0.3,0.3,0.4,0.8,0.3,1.2c-0.1,0.4-0.3,0.8-0.7,1.1
			l-15.7,10.3C139.5,46.5,139.2,46.6,138.9,46.6z M120.4,21.4c1.4,0,2.7,0.4,3.9,1.1c0,0,0.1,0.1,0.1,0.1l14.3,11
			c0.3,0.3,0.6,0.7,0.6,1.1l0.8,7.6l12-7.8l-11.9-14.7l-18.4-10c-1-0.5-2.2-0.5-3.2,0.1L99.8,21.2l0,11.5c2,2.1,4.3,2.9,6.4,2.2
			c1.9-0.7,3.1-2.4,3.1-4.4l0-2.8c0-0.5,0.3-1.1,0.8-1.4l6.4-3.9C117.8,21.7,119.1,21.4,120.4,21.4z"/>
	</g>
	<g>
		<path class="st0" d="M148.3,20.7l-16.6-13l-20.5-5.9c-1.7-0.5-3.5,0-4.7,1.2L90,18.7l3,12.6c7,5.2,13.2-0.1,11.9-5.5l-0.6-2.7
			l5.4-5.2c1.5-1.5,3.8-2,5.8-1.3l9.8,3.4l10.1,13.9c0.9,1.1,1.2,2.6,0.8,3.9l-3.5,12.2c-0.9,2.7-2.3,4.4-5.7,6.7
			c0,0-8.2,4.1-14,6.6L93.7,69c-3.2,1.6-4.4,5.7-2.6,9l0,0c1.8,3.4,5.9,4.8,9.1,3.2l27.4-8.7c3.6-1.2,7.5-1.5,11.3-1.1
			c5.1,0.6,12,1.9,15.5,4.7c6.2,4.8,28.2-26.8,23.3-31.3c-1.2-1-2.7-2-4.2-2.9c-6.9-3.8-13.1-8.6-18.2-14.6l-0.2-0.2
			C152.4,24.1,151.7,23.2,148.3,20.7z"/>
		<path d="M97.4,83.5c-0.9,0-1.9-0.2-2.8-0.5c-2.1-0.7-3.9-2.2-4.9-4.2c-1.1-2-1.3-4.2-0.7-6.3c0.6-2.1,2-3.9,4-4.8
			c0.1,0,0.2-0.1,0.3-0.1l19.1-5.4c5.4-2.4,12.8-6,13.8-6.5c3.2-2.2,4.2-3.8,5-5.9l3.4-12.2c0.2-0.9,0.1-1.8-0.5-2.5l-9.8-13.6
			l-9.3-3.3c-1.4-0.5-3-0.2-4.1,0.9l-4.7,4.6l0.4,1.8c0.8,3.2-0.7,6.5-3.5,8.3c-3.2,2-7.3,1.5-11-1.2c-0.3-0.2-0.5-0.5-0.6-0.9
			l-3-12.6c-0.1-0.5,0-1.1,0.4-1.5l16.5-15.7c1.7-1.6,4.1-2.2,6.4-1.5l20.5,5.9c0.2,0.1,0.4,0.2,0.6,0.3l16.5,13
			c3.4,2.5,4.3,3.5,6.8,6.4l0.4,0.5c4.8,5.6,10.7,10.3,17.7,14.2c1.9,1,3.4,2.1,4.5,3.1c4.7,4.3-5.6,19.9-11.9,27
			c-5.9,6.7-10.6,9-13.6,6.7c-2.5-2-7.7-3.5-14.7-4.4c-3.5-0.4-7.2-0.1-10.5,1l-27.3,8.7C99.8,83.2,98.6,83.5,97.4,83.5z M94.4,70.5
			c-1.1,0.6-1.9,1.6-2.2,2.8c-0.4,1.3-0.2,2.7,0.4,4c0.7,1.3,1.8,2.2,3.1,2.7c1.3,0.5,2.6,0.4,3.8-0.2c0.1,0,0.2-0.1,0.2-0.1
			l27.4-8.7c3.8-1.2,8-1.6,12-1.1c5.3,0.7,12.5,2.1,16.4,5c0.8,0.6,3.9-0.6,9-6.3c8.9-10,13.6-21.3,12.1-22.6
			c-0.9-0.8-2.2-1.7-3.9-2.6c-7.3-4-13.6-9.1-18.6-14.9l-0.4-0.5c-2.5-2.9-3.1-3.7-6.3-6c0,0,0,0,0,0L131,9.1l-20.2-5.8
			c-1.1-0.3-2.3,0-3.1,0.8L91.8,19.2l2.6,11.2c2.4,1.6,4.9,1.9,6.8,0.7c1.7-1,2.5-3,2.1-4.9l-0.6-2.7c-0.1-0.5,0-1.1,0.4-1.5
			l5.4-5.2c2-1.9,4.9-2.5,7.5-1.6l9.8,3.4c0.3,0.1,0.6,0.3,0.8,0.6l10.1,13.9c1.1,1.5,1.5,3.4,1,5.3l-3.5,12.2
			c-1.1,3.2-2.8,5.2-6.3,7.6c-0.1,0-0.1,0.1-0.2,0.1c-0.1,0-8.3,4.1-14.1,6.7c-0.1,0-0.1,0.1-0.2,0.1L94.4,70.5z"/>
	</g>
</g>
</svg>
