<?xml version="1.0" encoding="utf-8"?>
<!-- Generator: Adobe Illustrator 25.2.1, SVG Export Plug-In . SVG Version: 6.00 Build 0)  -->
<svg version="1.1" id="Layer_1" xmlns="http://www.w3.org/2000/svg" xmlns:xlink="http://www.w3.org/1999/xlink" x="0px" y="0px"
	 viewBox="0 0 180 289" style="enable-background:new 0 0 180 289;" xml:space="preserve">
<style type="text/css">
	.st0{fill:#7D2F51;}
	.st1{fill:#AB466F;}
	.st2{fill:#421210;}
	.st3{opacity:0.38;}
	.st4{fill:#E6E6E5;}
	.st5{fill:#CFD1D2;}
	.st6{fill:#E6E7E8;}
	.st7{opacity:0.25;}
	.st8{fill:#BEC0C2;}
	.st9{fill:#FEF4F5;}
	.st10{fill:#EED4D3;}
	.st11{fill:#F1E8E8;}
	.st12{fill:#E6DEDF;}
	.st13{fill:#602510;}
	.st14{fill:#87481F;}
	.st15{fill:#D1DDDE;}
	.st16{fill:#CED4D6;}
	.st17{fill:#D7DFE2;}
	.st18{fill:#4D2D23;}
	.st19{fill:#F4F9F9;}
	.st20{fill:#7FA652;}
	.st21{opacity:0.5;}
	.st22{fill:#E4F1F1;}
	.st23{fill:#171818;}
	.st24{fill:#FCB977;stroke:#FCB977;stroke-miterlimit:10;}
	.st25{fill:#FCB977;}
	.st26{fill:#FED2A9;}
	.st27{fill:#D28C4B;}
</style>
<g>
	<g>
		<g>
			<g>
				<path class="st16" d="M176.7,107.4c-0.9-0.3-1.7-0.5-2.6-0.8H6c-0.9,0.3-1.7,0.5-2.6,0.8c14.5,39.3,19.2,73.9,14.1,110
					c21.9,4,47.7,6.3,75.3,6.3c25.4,0,49.2-1.9,69.9-5.3C157.4,181.9,162,147,176.7,107.4z"/>
			</g>
			<g>
				<path class="st1" d="M1,270.6c7-18.5,11.7-36,14.1-53.2c6.2,0.8,12.4,1.6,18.6,2.1c6.2,0.6,12.4,1.2,18.7,1.6
					c12.5,0.8,25,1.2,37.5,1.3c12.5,0.1,25-0.2,37.5-0.9c6.3-0.3,12.5-0.8,18.7-1.3c6.2-0.5,12.5-1.2,18.7-1.9
					c2.5,16.8,7.2,34,14,52.2c0.7,0.8,1,1.6,1,2.4c0,8.8-40.3,16-90,16c-49.7,0-90-7.1-90-16C0,272.2,0.4,271.4,1,270.6z"/>
			</g>
			<g>
				<path class="st17" d="M176.8,107.2c0,4.9-38.7,8.9-86.4,8.9s-86.4-4-86.4-8.9c0-4.9,38.7-8.9,86.4-8.9S176.8,102.3,176.8,107.2z
					"/>
			</g>
			<g>
				<path class="st18" d="M93.1,105.3c-37,0-67.4,3-70,6.7c15.8,2.1,40.7,3.5,68.7,3.5c29.4,0,55.4-1.5,71-3.8
					C158.7,108.1,129.1,105.3,93.1,105.3z"/>
			</g>
			<g>
				<path class="st18" d="M163.8,119.6c-12,3-40.3,5-73.4,5c-32.9,0-61.2-2.1-73.3-5c11.6,34.9,15.3,65.9,11.1,98.3
					c18.8,3.7,40.9,5.8,64.6,5.8c21.8,0,42.2-1.8,59.9-4.9C148.4,186.1,152.1,154.9,163.8,119.6z"/>
			</g>
			<g>
				<g>
					<path class="st1" d="M8.2,121.6c1.8,4.8,1.8,7.1,3.7,11.9c57.9,6.7,98.1,6.8,155.8,0.2c2.2-4.9,1.8-7.1,4-12
						C110.3,129.2,69.8,129.2,8.2,121.6z"/>
				</g>
			</g>
		</g>
		<g>
			<g>
				<path class="st4" d="M31.2,119.7c0,0,9.6,55,3.6,88s-15.6,66-15.6,66s22.8,3.7,34.8,4.6c12,0.9,20.4,1.8,20.4,1.8
					S72,205.9,73.2,193c1.2-12.8-2.4-74.3-2.4-74.3S36,123.3,31.2,119.7z"/>
			</g>
		</g>
	</g>
	<g>
		<g>
			<path class="st18" d="M89.4,87.8c0,0,8.5-20.9-10.8-23.1C55.3,61.9,52.5,30.4,84.2,29c38.7-1.8,28.5-25.8,24-29
				c0,0,19.4,7.7,20.4,26.4c1.2,21.8-42,15.1-36.1,28.3C95.9,62.3,105.5,73.3,89.4,87.8z"/>
		</g>
		<g>
			<path class="st18" d="M79.6,86.7c0,0,5.7-14.2-7.2-15.9c-13.5-1.8-13.5-10.5-13.5-10.5s-7.7,15.8,10,17.8
				C76.4,78.8,79.6,86.7,79.6,86.7z"/>
		</g>
		<g>
			<path class="st18" d="M94.5,90.2c0,0,12.2-8.5,11.6-16c-0.8-10.5-5.1-11-3.1-16.8c2.1-5.8,20.2-9.6,20.2-9.6s-15.9,9.9-11.6,18.1
				C113.8,70,124,82.1,94.5,90.2z"/>
		</g>
	</g>
</g>
</svg>
