<?xml version="1.0" encoding="utf-8"?>
<!-- Generator: Adobe Illustrator 23.0.1, SVG Export Plug-In . SVG Version: 6.00 Build 0)  -->
<svg version="1.1" id="Layer_1" xmlns="http://www.w3.org/2000/svg" xmlns:xlink="http://www.w3.org/1999/xlink" x="0px" y="0px"
	 viewBox="0 0 180 188.03" style="enable-background:new 0 0 180 188.03;" xml:space="preserve">
<style type="text/css">
	.st0{fill:#CFD1D2;}
	.st1{fill:#E6E7E8;}
	.st2{opacity:0.25;fill:#BEC0C2;}
	.st3{fill:#421210;}
	.st4{fill:#FEF4F5;}
	.st5{fill:#EED4D3;}
	.st6{fill:#F1E8E8;}
	.st7{fill:#E6DEDF;}
	.st8{fill:#602510;}
	.st9{fill:#87481F;}
	.st10{fill:#D1DDDE;}
	.st11{fill:#CED4D6;}
	.st12{fill:#AB466F;}
	.st13{fill:#D7DFE2;}
	.st14{fill:#4D2D23;}
	.st15{fill:#E6E6E5;}
	.st16{fill:#F4F9F9;}
	.st17{fill:#7FA652;}
	.st18{opacity:0.5;}
	.st19{fill:#E4F1F1;}
	.st20{fill:#171818;}
	.st21{fill:#7D2F51;}
	.st22{opacity:0.38;}
	.st23{fill:#FCB977;stroke:#FCB977;stroke-miterlimit:10;}
	.st24{fill:#FCB977;}
	.st25{fill:#E3AF6F;}
	.st26{fill:#FED2A9;}
	.st27{fill:#D28C4B;}
	.st28{fill:#C0C2C4;}
	.st29{fill:#FFFFFF;}
</style>
<path class="st17" d="M171.36,16.2c-0.7,0.1-1.26,0.42-1.8,0.85c-2.02,1.63-3.83,3.47-5.57,5.56c0.22-1.04,0.47-2.07,0.66-3.12
	c0.48-2.73,0.8-5.48,0.16-8.23c-0.81-3.47-3.27-4.34-5.92-2.07c-2.14,1.84-3.07,4.41-3.93,6.98c-3.3,9.89-3.67,20.14-3.72,30.43
	c0,0.57,0.01,1.26,0.64,1.42c0.59,0.15,1.21-0.08,1.67-0.58c1.24-1.39,2.51-2.76,3.75-4.15c5.57-6.25,10.7-12.82,14.54-20.31
	c0.8-1.55,1.52-3.15,1.59-4.94C173.49,16.56,172.83,15.99,171.36,16.2z"/>
<path class="st17" d="M8.08,106.5c-0.25,0.33-0.35,0.69-0.39,1.1c-0.16,1.51-0.15,3.02,0,4.61c-0.34-0.52-0.66-1.05-1.02-1.56
	c-0.93-1.33-1.93-2.6-3.34-3.47c-1.77-1.1-3.15-0.44-3.31,1.59c-0.13,1.65,0.56,3.1,1.26,4.51c2.73,5.46,6.82,9.85,11.05,14.13
	c0.23,0.24,0.52,0.52,0.85,0.32c0.31-0.18,0.47-0.53,0.45-0.93c-0.06-1.09-0.1-2.18-0.17-3.27c-0.28-4.89-0.88-9.73-2.39-14.42
	c-0.31-0.97-0.67-1.93-1.39-2.71C9.11,105.77,8.6,105.81,8.08,106.5z"/>
<path class="st20" d="M101.49,26.37c-1.87,2.96-3.68,5.96-6.22,8.42c-2.58,2.49-5.45,4.23-9.26,3.36c-2.76-0.63-4.44-2.55-5.77-4.86
	c-0.39-0.67-0.67-1.4-1.09-2.3c-1.03,3.21-1.95,6.22-2.96,9.21c-0.75,2.2-1.82,4.24-3.39,5.99c-2.21,2.47-4.74,2.54-6.95,0.04
	c-2.47-2.79-3.41-6.31-4.24-9.83c-1.21-5.19-1.54-10.5-1.69-16.08c-1.76,1.25-3.37,2.43-5.01,3.56c-0.34,0.24-0.68,1-1.22,0.37
	c-0.55-0.64-0.25-1.32,0.34-1.77c1.21-0.92,2.39-1.93,3.73-2.64c1.89-1.01,2.42-2.49,2.46-4.54c0.1-4.75,0.86-9.43,1.96-14.06
	c0.27-1.14,0.78-1.35,1.75-1.21c2.48,0.36,4.56,1.56,6.53,3.02c0.55,0.41,0.48,0.92,0.4,1.52c-0.35,2.56-0.64,5.12-0.99,7.95
	c2.51-1.18,4.82-2.27,7.19-3.38c0.51,1.34-0.17,1.96-1.18,2.43c-1.69,0.78-3.34,1.63-5.06,2.31c-0.87,0.35-1.26,0.88-1.31,1.74
	c-0.51,8.06-1.35,16.13-0.09,24.2c0.22,1.4,0.57,2.75,1.26,4c0.54,0.97,1.14,0.98,1.83,0.16c0.59-0.7,0.97-1.5,1.36-2.32
	c2.7-5.78,3.89-11.97,5.02-18.18c0.56-3.04,1.43-5.94,3.81-8.12c1.65-1.51,3.52-2.46,5.85-1.89c2.6,0.64,4.03,2.89,3.5,5.5
	c-0.61,2.99-1.92,5.65-3.91,7.95c-0.67,0.77-0.9,1.44-0.52,2.43c0.48,1.26,0.67,2.63,1.17,3.87c1.06,2.59,2.89,2.94,4.73,0.92
	c4.43-4.87,8.06-10.32,11.24-16.06c2.38-4.29,5.68-7.22,10.67-8.01c2.55-0.4,4.71,0.6,5.97,2.83c1.06,1.87,1.48,3.88,1.5,6
	c-0.01,0.2-0.01,0.39-0.02,0.59c0.26-0.03,0.22-0.23,0.23-0.4c0.98-1.7,1.51-3.6,2.16-5.43c0.44-1.24,0.98-1.27,1.97-0.75
	c1.16,0.6,2.18,1.37,3.17,2.22c1.1,0.95,1.29,1.9,0.78,3.26c-1.98,5.26-4.03,10.51-5.2,16.04c-0.35,1.65-0.62,3.33-0.86,5
	c-0.11,0.78,0,1.56,0.28,2.33c0.38,1.07,0.86,1.39,1.8,0.51c1.08-1.01,2.12-2.04,2.97-3.24c2.56-3.64,4.34-7.61,5.15-12.01
	c0.07-0.38,0.23-0.75,0.38-1.22c1.22,0.83,1.36,2,1.12,3.15c-1.15,5.54-3.95,10.23-8.08,13.97c-2.94,2.67-7.3,1.02-8.78-3.01
	c-1.16-3.16-0.57-6.36-0.15-9.55c0.07-0.54,0.3-1.07,0.08-1.79c-1.87,3.45-4.07,6.48-7.29,8.63c-4.53,3.03-9.77,0.71-10.66-4.67
	c-0.33-1.98-0.29-3.94-0.18-5.92c0.22-0.16,0.26-0.46,0.11-0.57C101.65,25.89,101.62,26.26,101.49,26.37z M121.18,17.81
	c-0.05-0.68-0.03-1.65-0.21-2.59c-0.3-1.5-1.24-2-2.75-1.63c-1.62,0.4-2.79,1.45-3.79,2.69c-4.06,5.02-5.56,10.98-6.14,17.23
	c-0.1,1.13,0.16,2.46,1.4,3.06c1.13,0.55,1.87-0.46,2.7-0.96c0.48-0.29,0.94-0.65,1.32-1.06C118.01,29.9,120.55,24.43,121.18,17.81z
	 M87.01,25.97c2.12-2.53,3.63-5.3,3.76-8.66c0.01-0.38-0.08-0.79-0.21-1.15c-0.31-0.91-0.85-1.14-1.64-0.48
	c-0.71,0.59-1.17,1.35-1.51,2.19C86.36,20.51,86.7,23.23,87.01,25.97z"/>
<path class="st20" d="M93.66,155.35c1.55-0.05,3.21-0.39,4.88-0.62c1.41-0.19,1.79-0.72,1.82-2.15c0.15-6.8,1.11-13.48,3.16-20
	c0.4-1.26,0.84-1.71,2.04-0.95c0.33,0.21,0.7,0.4,1.07,0.48c1.2,0.26,1.24,0.84,0.89,1.94c-1.81,5.68-2.67,11.53-2.92,17.48
	c-0.06,1.41,0.36,1.15,1.29,0.77c2.82-1.17,5.14-3.06,7.36-5.07c0.82-0.74,1.26-0.72,2.03,0.04c2.04,2.02,2.09,2-0.05,3.96
	c-2.7,2.47-5.79,4.31-9.2,5.6c-1.09,0.41-1.42,0.94-1.33,2.08c0.45,5.27,1.43,10.4,3.78,15.17c0.61,1.23,0.61,1.87-0.57,2.71
	c-2.13,1.52-2.08,1.62-3.21-0.74c-2.37-4.94-3.65-10.19-4.04-15.63c-0.1-1.47-0.46-1.76-1.87-1.46c-2.43,0.52-4.91,0.79-7.41,0.75
	c-0.5-0.01-1.06-0.07-1.03,0.73c0.31,7.41,1.45,14.53,7.08,20.06c0.6,0.59,1.23,1.17,1.92,1.67c3.3,2.38,6.75,2.09,9.63-0.79
	c3.2-3.21,4.44-7.38,5.53-11.59c0.6-2.35,0.94-4.76,1.07-7.19c0.06-1.14,0.22-1.72,1.68-1.39c2.57,0.58,2.66,0.46,2.39,3.19
	c-0.52,5.43-1.79,10.67-4.39,15.51c-1.72,3.21-4,5.91-7.49,7.29c-4.03,1.59-7.75,0.77-11.14-1.78c-6.08-4.56-8.78-10.99-9.91-18.24
	c-0.35-2.23-0.5-4.49-0.65-6.75c-0.05-0.76-0.26-1.16-1.03-1.21c-0.11-0.01-0.21-0.1-0.31-0.12c-1.38-0.31-2.88-1.09-4.09-0.78
	c-1.28,0.33-1.47,2.21-2.17,3.4c-1.83,3.11-3.99,5.92-7.16,7.75c-5.24,3.03-10.55,1.34-13.12-4.15c-1.87-4-1.92-8.2-1.02-12.43
	c1.37-6.49,4.11-12.28,8.94-16.95c1.73-1.67,3.67-3.03,5.98-3.73c5.82-1.77,10.16,2.23,9.11,8.24c-1.19,6.81-9.82,16.99-19.14,15.9
	c-0.55-0.06-1.14-0.18-1.17,0.74c-0.1,2.71,0.21,5.32,1.87,7.57c1.68,2.28,3.58,2.71,6.06,1.36c2.73-1.48,4.55-3.85,6.01-6.51
	c0.78-1.43,1.42-2.93,2.12-4.41c0.84-1.78,1.62-2.14,3.49-1.58c1.35,0.41,2.7,0.81,4.04,1.24c1.11,0.36,1.71,0.26,1.78-1.17
	c0.28-5.42,0.93-10.8,2.17-16.1c0.49-2.08,1.14-4.12,1.69-6.18c0.27-1.03,0.64-1.46,1.87-1.03c2.61,0.93,2.66,0.84,1.85,3.38
	c-2.05,6.39-2.89,12.98-3.35,19.64c-0.16,2.34-0.1,2.34,2.18,2.13C92.95,155.43,93.23,155.4,93.66,155.35z M63.23,152.21
	c6.04-0.06,13.56-7.31,13.89-13.25c0.01-0.17,0.02-0.34,0.01-0.51c-0.11-1.8-1.13-2.62-2.94-2.32c-2.41,0.4-4.21,1.84-5.8,3.55
	c-2.93,3.13-4.92,6.81-6.27,10.88C61.64,151.98,61.95,152.45,63.23,152.21z"/>
<path class="st20" d="M26.39,145.62c-1.85,1.65-3.42,3.34-5.3,4.7c-0.86,0.63-1.22,0.6-1.79-0.32c-1.47-2.37-1.61-2.47,0.54-4.05
	c3.61-2.67,5.41-5.48,3.5-10.31c-1.73-4.37-2.06-9.23-2.38-13.96c-0.26-3.8-0.08-7.6,1.29-11.19c1.28-3.34,3.46-5.93,7.34-6.14
	c3.67-0.2,6.05,1.97,7.52,5.06c2.16,4.54,1.95,9.3,0.89,14.09c-1.39,6.3-4.02,12.05-7.7,17.33c-0.56,0.8-0.65,1.43-0.31,2.32
	c1.58,4.09,3.4,8.05,5.81,12.28c0.11-2.49,0.14-4.52,0.31-6.54c0.63-7.45,3.03-14.19,8.2-19.76c1.4-1.51,3.06-2.67,4.99-3.41
	c3.97-1.51,7.66,0.14,9.25,4.06c1.14,2.81,1.26,5.74,0.96,8.67c-0.75,7.45-3.57,14.05-8.59,19.64c-1.57,1.75-3.47,3.02-5.71,3.82
	c-0.77,0.28-1.02,0.06-1.21-0.57c-0.02-0.05-0.04-0.11-0.06-0.16c-0.9-2.63-0.89-2.62,1.54-4.07c3.04-1.82,4.77-4.76,6.37-7.75
	c2.65-4.98,4.14-10.26,3.29-15.95c-0.64-4.27-3.07-5.22-6.46-2.51c-4.01,3.19-6.14,7.63-7.39,12.45c-1.72,6.64-1.63,13.32,0.36,19.9
	c0.36,1.19,0.2,1.77-0.89,2.21c-0.36,0.15-0.72,0.35-1.02,0.6c-0.98,0.83-1.53,0.41-2.23-0.49C32.89,159.5,29.29,152.9,26.39,145.62
	z M27.87,136.91c0.68-1.18,1.18-1.99,1.62-2.83c3.07-5.79,5.3-11.81,4.92-18.51c-0.11-1.98-0.56-3.92-1.86-5.51
	c-1.74-2.13-4.07-1.97-5.57,0.36c-1.15,1.8-1.58,3.85-1.72,5.94C24.8,123.25,26.15,129.9,27.87,136.91z"/>
<path class="st20" d="M142.77,146.61c-0.67,3.18-1.12,5.9-2.02,8.49c-1.11,3.21-2.34,6.35-4.72,8.89
	c-3.94,4.21-9.41,3.97-13.02-0.56c-2.5-3.14-3.29-6.89-3.66-10.73c-0.57-5.86,0.83-11.3,3.76-16.38c1.43-2.47,3.35-4.38,5.99-5.53
	c4.24-1.85,8.45,0.39,8.84,4.98c0.61,7.18-1.92,13.18-7.57,17.74c-1.51,1.22-3.34,1.9-5.28,2.08c-0.89,0.08-1,0.34-0.74,1.15
	c0.54,1.75,1.25,3.38,2.59,4.67c1.91,1.84,3.89,1.83,5.78-0.08c1.79-1.81,2.77-4.1,3.59-6.45c2.36-6.75,3.16-13.73,3.02-20.83
	c-0.03-1.36,0.3-2,1.72-1.93c0.44,0.02,0.89-0.15,1.33-0.25c0.88-0.2,1.24,0.05,1.46,1.03c1.16,5.33,2.15,10.72,4.36,15.76
	c0.06,0.14,0,0.37,0.38,0.31c0.16-3.99,0.25-8.02,0.97-12c1.16-6.41,3.01-12.51,7.83-17.26c1.22-1.2,2.63-2.11,4.3-2.61
	c3.34-1,6.19,1.04,6.3,4.52c0.09,3.14-1.14,3.94-4.07,2.75c-0.72-0.29-0.38-0.71-0.29-1.08c0.18-0.71,0.56-1.55-0.13-2.02
	c-0.7-0.47-1.34,0.26-1.92,0.64c-2.71,1.77-4.34,4.41-5.49,7.33c-2.95,7.45-3.51,15.24-2.96,23.14c0.18,2.64,0.5,5.28,1.13,7.86
	c0.29,1.2-0.6,1.43-1.28,1.87c-2.16,1.4-2.16,1.39-3.47-0.79C146.78,156.85,144.78,152.02,142.77,146.61z M133.95,138.26
	c-0.06-1.59,0.03-3.02-1.21-3.67c-1.24-0.65-2.37,0.24-3.38,0.96c-1.07,0.76-1.9,1.75-2.58,2.87c-1.84,3.04-2.83,6.35-3.19,9.86
	c-0.1,1.01-0.7,2.36,0.29,2.97c0.96,0.59,2.17-0.09,3.17-0.63c0.34-0.18,0.66-0.42,0.97-0.66
	C132,146.93,133.43,142.65,133.95,138.26z"/>
<path class="st17" d="M83.33,98.08c-0.17,3.83-1.49,7.82-5.65,10.34c-0.83,0.5-0.91,1.18-0.79,2.02c0.64,4.47,1.22,8.95,1.9,13.41
	c0.39,2.52,0.48,2.43-2,1.9c-1.72-0.37-2.68-0.99-2.85-3c-0.3-3.48-1-6.92-1.54-10.38c-0.16-0.99-0.2-2.01-1.72-1.91
	c-1.34,0.09-2.73-0.51-3.27,1.56c-0.78,2.99-1.91,5.89-2.78,8.86c-0.34,1.14-0.77,1.19-1.77,0.74c-3.29-1.49-3.31-1.45-2.11-4.91
	c0.79-2.29,1.6-4.57,2.41-6.85c0.2-0.57,0.32-1.02-0.5-1.27c-4.29-1.32-7.98-3.89-11.94-5.89c-0.81-0.41-1.33-0.65-1.81,0.45
	c-0.65,1.49-2.24,3-2.04,4.29c0.18,1.2,2.45,1.69,3.78,2.51c1.87,1.15,3.76,2.27,5.67,3.37c0.44,0.25,0.8,0.45,0.46,1.01
	c-0.59,0.96-1.2,1.9-1.78,2.87c-0.32,0.54-0.66,0.43-1.11,0.17c-4.34-2.51-8.69-5.02-13.05-7.49c-0.64-0.36-0.52-0.68-0.23-1.19
	C46,99.13,51.4,89.55,56.77,79.95c0.44-0.78,0.74-0.74,1.4-0.37c3.15,1.76,6.31,3.48,9.49,5.19c0.66,0.36,0.87,0.65,0.52,1.43
	c-1.47,3.29-1.43,3.28-4.66,1.65c-1.6-0.8-3.36-2.58-4.75-2.1c-1.23,0.43-1.78,2.82-2.63,4.34c-1.32,2.36-2.63,4.73-3.94,7.09
	c-0.24,0.44-0.64,0.84,0.09,1.22c3.8,1.97,7.37,4.38,11.38,5.94c1,0.39,1.33,0.11,1.64-0.81c1.78-5.28,3.65-10.52,5.4-15.81
	c0.38-1.17,0.85-1.42,1.99-1.06c3.12,0.97,6.34,1.7,8.58,4.41C82.79,92.91,83.4,95.01,83.33,98.08z M78.43,105.63
	c0.23-0.24,0.46-0.48,0.69-0.72c2.9-3.81,3.25-8.33,0.88-11.52c-0.22-0.63-0.66-1.09-1.17-1.5c-1.31-1.39-3.01-2.11-4.72-2.86
	c-1.16-0.51-1.62-0.19-2,0.99c-1.72,5.28-3.59,10.51-5.3,15.78c-0.41,1.27-0.88,1.41-2.09,0.98c-5.28-1.89-9.98-4.9-14.9-7.47
	c-0.87-0.45-0.4-0.85-0.14-1.33c1.56-2.8,3.11-5.61,4.67-8.41c1.07-1.91,2.19-3.79,3.2-5.73c0.57-1.08,1.06-1.38,2.23-0.63
	c1.84,1.17,3.82,2.1,5.74,3.13c0.07-0.14,0.15-0.28,0.22-0.42c-2.33-1.28-4.67-2.55-7-3.85c-0.6-0.34-0.78,0.03-1.01,0.46
	c-1.22,2.27-2.45,4.53-3.68,6.79c-3.77,6.11-7.05,12.5-10.67,18.7c-0.45,0.76-0.17,1.09,0.47,1.44c1.33,0.73,2.63,1.49,3.95,2.23
	c0.79,0.45,1.57,0.89,2.36,1.34c1.13,0.63,2.15,1.5,3.5,1.69c-1-0.81-2.01-1.56-3.24-1.95c-0.66-0.68-1.5-1.05-2.36-1.38
	c-1.19-0.73-2.35-1.52-3.58-2.18c-0.69-0.37-0.84-0.62-0.4-1.36c1.41-2.37,2.77-4.77,4.05-7.21c0.54-1.02,0.96-1.18,2.02-0.59
	c4.11,2.31,8.18,4.73,12.55,6.56c1.08,0.45,2.86,0.63,3.1,1.34c0.32,0.94-0.55,2.29-0.94,3.46c-0.89,2.69-1.79,5.38-2.73,8.2
	c0.75-0.18,0.73-0.61,0.85-0.97c1.03-3.09,2.06-6.19,3.14-9.27c0.22-0.62,0.3-1.57,1.42-1.25c1.83,0.53,3.68,0.51,5.54,0.24
	c0.79-0.12,1.08,0.06,1.19,0.89c0.37,2.9,0.79,5.8,1.27,8.69c0.32,1.94,0.36,3.94,1.18,5.79c-0.47-4.53-1.06-9.04-1.77-13.53
	c-0.23-1.46-0.35-2.63,1.47-3.05c0.54-0.12,1.04-0.43,1.38-0.92C78.01,106.03,78.22,105.83,78.43,105.63z"/>
<path class="st17" d="M148.65,93.11c1.03,2.34,2.05,4.68,3.08,7.02c2,4.53,3.99,9.07,6.04,13.57c0.41,0.9,0.41,1.41-0.6,1.78
	c-1.31,0.48-2.63,1.96-3.75,1.56c-1.13-0.4-1.25-2.35-1.79-3.63c-4.63-10.94-9.19-21.89-13.84-32.82c-0.54-1.27-0.41-1.96,0.74-2.78
	c2.67-1.88,2.62-1.95,4.75,0.56c3.76,4.43,7.52,8.87,11.3,13.33c0.29-0.8-0.3-1.3-0.59-1.86c-2.85-5.44-5.7-10.88-8.63-16.27
	c-0.53-0.97-0.39-1.44,0.45-2.01c0.97-0.66,1.86-1.44,2.91-2.26c2.08,4.09,4.13,8.09,6.15,12.1c4.39,8.69,8.74,17.41,13.2,26.07
	c0.7,1.36,0.51,1.89-0.79,2.65c-1.65,0.97-2.54,0.81-3.81-0.73c-4.27-5.19-8.76-10.21-13.17-15.28c-0.39-0.45-0.8-0.87-1.2-1.31
	C148.94,92.9,148.79,93.01,148.65,93.11z M156.4,97.49c-0.11-0.12-0.22-0.23-0.33-0.35c-0.48-0.87-1.19-1.54-1.88-2.22
	c-0.19-0.17-0.35-0.62-0.58-0.42c-0.36,0.32,0.06,0.53,0.32,0.7c0.51,0.87,1.2,1.58,1.94,2.26c0.04,0.1,0.1,0.16,0.2,0.2
	c0.19,0.2,0.39,0.4,0.58,0.6c0.74,0.85,1.48,1.71,2.22,2.56c0.36,0.42,0.62,0.95,1.17,1.18c0.32,0.78,0.98,1.29,1.54,1.88
	c0.21,0.16,0.32,0.71,0.66,0.36c0.28-0.29-0.12-0.51-0.39-0.65c-0.37-0.74-0.97-1.29-1.55-1.86c-0.39-0.4-0.78-0.8-1.17-1.2
	c-0.75-0.87-1.49-1.73-2.24-2.6C156.73,97.79,156.56,97.64,156.4,97.49z M150.72,91.69c0.16,0.15,0.32,0.31,0.49,0.46
	c0.54,0.94,1.32,1.65,2.2,2.28c-0.44-1.02-1.14-1.82-1.94-2.55c-0.17-0.16-0.34-0.33-0.51-0.49c-0.12-0.33-0.33-0.57-0.66-0.69
	c-0.45-0.9-1.2-1.54-1.88-2.24c-0.28-0.27-0.56-0.54-0.84-0.81c-0.49-0.86-1.18-1.54-1.88-2.22c-0.28-0.28-0.55-0.56-0.83-0.84
	c-0.57-0.91-1.27-1.71-2.21-2.28c0.38,1.08,1.21,1.8,1.95,2.58c0.28,0.27,0.56,0.55,0.83,0.82c0.49,0.85,1.18,1.54,1.88,2.21
	c0.28,0.28,0.56,0.56,0.85,0.83c0.49,0.85,1.17,1.54,1.87,2.21C150.26,91.19,150.49,91.44,150.72,91.69z M163.64,105.28
	c-0.26-0.15-0.41-0.56-0.84-0.36c0.77,1.44,2.48,3.29,4.02,4.13c-6.45-12.49-12.73-24.63-19.01-36.77
	c-0.15,0.08-0.29,0.15-0.44,0.23c2.79,5.43,5.59,10.85,8.37,16.29c2.74,5.36,5.47,10.73,8.2,16.09
	C163.84,105.02,163.74,105.15,163.64,105.28z M154.7,114.52c0.15-0.06,0.31-0.13,0.46-0.19c-4.6-10.87-9.19-21.74-13.78-32.59
	c0.65-0.18,0.59,0.75,1.37,0.34c-0.89-1.05-1.6-2.18-3.18-3.19C144.74,91.07,149.72,102.8,154.7,114.52z M148.82,92.9
	c0-0.15,0.02-0.32,0-0.32c-0.14-0.03-0.29-0.06-0.42-0.03c-0.16,0.05-0.15,0.16,0.02,0.22C148.54,92.82,148.68,92.85,148.82,92.9z"
	/>
<path class="st17" d="M122.27,119.52c0.4,2.63,0.74,4.98,1.12,7.31c0.17,1.07,0.02,1.72-1.3,1.66c-0.72-0.04-1.48,0.1-2.17,0.32
	c-1.43,0.46-1.77-0.17-1.97-1.47c-1.63-10.65-3.32-21.29-4.98-31.93c-0.18-1.17-0.14-2.41-0.53-3.51c-0.66-1.86,0.24-2.24,1.79-2.56
	c3.65-0.76,3.57-0.82,4.08,2.95c0.88,6.48,1.86,12.95,2.78,19.43c0.13,0.91,0.43,1.26,1.44,0.93c1.93-0.64,3.78-1.42,5.66-2.17
	c1.03-0.41,1.21-0.92,0.97-1.92c-1.67-6.83-3.33-13.67-4.93-20.52c-0.18-0.77-0.96-1.86-0.24-2.34c1.24-0.82,2.73-1.31,4.18-1.72
	c0.51-0.15,0.55,0.72,0.67,1.17c2.04,7.96,4.07,15.93,6.09,23.9c1.17,4.64,2.26,9.3,3.53,13.91c0.3,1.1,0,1.36-0.92,1.61
	c-1.03,0.27-2.06,0.59-3.03,1.01c-1.05,0.46-1.37,0.02-1.58-0.91c-0.63-2.75-1.35-5.47-1.93-8.22c-0.2-0.92-0.44-1.05-1.31-0.71
	c-2.04,0.8-4.12,1.53-6.22,2.19C122.44,118.23,121.83,118.64,122.27,119.52z M115.56,91.11c-0.18,0.02-0.36,0.05-0.55,0.07
	c1.75,11.81,3.5,23.61,5.25,35.42c0.18-0.02,0.35-0.05,0.53-0.07c-0.44-2.97-0.82-5.95-1.35-8.9c-0.18-1.01,0.1-1.41,1-1.71
	c3.68-1.23,7.35-2.49,11.01-3.78c0.88-0.31,1.3-0.18,1.51,0.82c0.5,2.36,1.06,4.72,1.72,7.04c0.29,1,0.19,2.2,1.37,3.27
	c-3.13-12.65-6.18-24.94-9.22-37.23c-0.44,0.6-0.3,1.07-0.18,1.57c1.83,7.36,3.63,14.73,5.47,22.09c0.24,0.98,0.13,1.49-0.93,1.92
	c-3.61,1.44-7.34,2.5-10.98,3.84c-0.71,0.26-1.07,0.1-1.18-0.65c-0.58-4.02-1.16-8.03-1.75-12.05
	C116.71,98.87,116.13,94.99,115.56,91.11z"/>
<path class="st20" d="M51.71,60.73c0.89-2.54,1.57-5.09,3.28-7.22c2.62-3.27,5.99-2.8,7.57,1.09c0.72,1.77,0.96,3.66,1.27,5.95
	c0.69-1.36,1.2-2.38,1.72-3.39c0.83-1.61,1.87-3.09,2.95-4.54c0.55-0.74,1.18-1.27,2.14-0.95c1,0.34,1.06,1.23,1.04,2.09
	c-0.05,2.54-0.28,5.09-0.19,7.63c0.13,4.11,1.02,8.04,3.31,11.56c1.71,2.63,3.82,4.78,6.99,5.52c3.97,0.92,7.27-0.39,9.84-3.41
	c0.87-1.02,1.26-0.89,2.21-0.17c1.21,0.9,0.49,1.48-0.06,2.14c-5.2,6.18-14.39,6.05-19.72-0.24c-3.64-4.29-5.03-9.37-5.34-14.85
	c-0.07-1.23-0.14-2.46-0.23-3.9c-1.08,1-1.37,2.2-1.76,3.31c-0.87,2.45-1.43,5-1.63,7.59c-0.1,1.25-0.73,1.15-1.53,1.07
	c-0.89-0.09-1.93,0.27-2.03-1.31c-0.22-3.44-0.63-6.87-0.97-10.3c-0.11-1.13-0.5-2.19-0.95-3.23c-0.47-1.08-1.12-1.16-1.95-0.38
	c-0.88,0.83-1.41,1.89-1.87,2.99c-1.5,3.6-1.64,7.37-1.31,11.16c0.16,1.84-1.35,1.22-2.14,1.63c-0.8,0.41-1.16,0.01-1.45-0.81
	c-3.43-9.85-3.6-19.68,0.13-29.49c0.14-0.36,0.32-0.71,0.48-1.07c2.34,1.39,2.37,1.41,1.55,3.84c-1.82,5.4-2.16,10.93-1.61,16.56
	C51.52,59.97,51.63,60.35,51.71,60.73z"/>
<path class="st17" d="M172.79,72.95c3.72,5.48,6.38,11.36,7.12,17.79c0.6,5.23-2.12,8.08-8,6.26c-2.83-0.88-5.05-2.79-6.95-4.97
	c-5.83-6.73-10.22-14.28-12.51-22.94c-0.74-2.78-0.88-5.59,0.19-8.32c1.1-2.8,3.74-4.66,6.45-4.7c3.28-0.05,5.04,2.13,6.67,4.51
	c0.26,0.38,0.2,0.74-0.14,1.06c-0.16,0.15-0.31,0.32-0.48,0.47c-0.85,0.74-1.65,1.99-2.57,2.08c-0.96,0.1-1.12-1.57-1.77-2.36
	c-0.58-0.72-1.18-1.43-2.24-1.13c-1.08,0.31-1.7,1.08-1.84,2.19c-0.16,1.31,0.09,2.61,0.47,3.84c2.6,8.51,6.71,16.21,12.51,22.99
	c0.88,1.03,1.86,1.97,3.17,2.47c1.46,0.56,2.09,0.13,2.17-1.42c0.09-1.67-0.33-3.24-0.92-4.78c-0.81-2.1-1.8-4.11-2.97-6.16
	c-0.83,0.85-1.57,1.61-2.44,2.5c-0.65-1-1.26-1.98-1.9-2.94c-0.3-0.45-0.3-0.77,0.13-1.16C168.9,76.51,170.81,74.76,172.79,72.95z
	 M167.79,92.41c0.04,0.06,0.08,0.1,0.14,0.14c0.31,0.34,0.49,0.86,1.15,0.84c-0.09-0.52-0.41-0.78-0.81-0.97
	c-0.11-0.12-0.22-0.23-0.33-0.35c-0.22-0.23-0.44-0.47-0.66-0.7c-1.08-1.42-2.16-2.84-3.23-4.26c-0.22-0.33-0.45-0.65-0.67-0.98
	c-2.93-4.55-5.43-9.32-7.5-14.32c-1.18-2.85-1.87-5.79-1.53-8.88c0.22-1.98,0.91-3.81,3-4.52c1.98-0.67,3.43,0.46,4.76,1.77
	c0.3,0.3,0.39,0.91,1.03,0.83c-0.83-1.97-2.93-3.32-5.02-3.26c-1.76,0.05-3.07,1.17-3.84,3.27c-0.61,1.68-0.78,3.4-0.46,5.16
	c1.36,7.53,5.19,13.92,9.28,20.19c0.08,0.44,0.31,0.78,0.67,1.03c0.85,1.59,2.03,2.93,3.25,4.24
	C167.27,91.9,167.53,92.15,167.79,92.41z M169.11,78.94c-0.2,0.2-0.62,0.34-0.33,0.7c0.08,0.09,0.48-0.08,0.54-0.39
	c0.11-0.11,0.22-0.23,0.33-0.34c0.82-0.67,1.64-1.34,2.52-2.06c1.95,3.32,3.68,6.71,4.79,10.37c0.55,1.82,0.96,3.71,0.54,5.65
	c-0.44,2.04-1.77,2.97-3.8,2.57c-1.28-0.25-2.45-0.83-3.55-1.52c-0.29-0.17-0.6-0.73-0.85-0.39c-0.28,0.38,0.28,0.53,0.6,0.66
	c0.25,0.21,0.47,0.48,0.76,0.63c1.81,0.93,3.64,1.97,5.7,0.72c1.97-1.2,1.87-3.19,1.74-5.12c-0.27-4.03-2.12-7.53-3.89-11.03
	c-1.88-3.72-1.91-3.7-4.85-0.69C169.27,78.77,169.19,78.85,169.11,78.94z"/>
<path class="st17" d="M96.38,112.28c-1,0.91-1.75,1.64-2.56,2.32c-1.81,1.52-4.13,1.33-5.73-0.42c-2.31-2.52-2.85-5.72-3.31-8.89
	c-0.65-4.45-0.32-8.9,0.44-13.33c0.17-0.97,0.46-1.2,1.42-0.97c1.2,0.29,2.78-0.03,3.57,0.64c0.82,0.69-0.07,2.22-0.15,3.37
	c-0.26,3.73-0.57,7.45,0.41,11.12c0.32,1.18,0.58,2.73,1.98,2.86c1.36,0.12,1.73-1.39,2.22-2.44c1.21-2.59,1.66-5.37,1.87-8.19
	c0.07-0.85,0.05-1.7,0.1-2.54c0.21-3.78,0.22-3.75,3.99-3.87c0.74-0.02,1.02,0.12,1.02,0.89c-0.02,8.86,0.32,17.76-2.32,26.39
	c-0.78,2.55-1.75,5-3.45,7.09c-3.22,3.96-8.21,3.73-11.12-0.46c-1.6-2.31-2.06-4.96-2.4-7.66c-0.03-0.22-0.06-0.44,0.17-0.59
	c0.8-0.55,4,0.69,4.14,1.64c0.16,1.08,0.48,2.07,1.05,3c1.45,2.38,3.43,2.55,5.13,0.35C95.14,119.62,95.98,116.15,96.38,112.28z
	 M85.83,123.9c0.56,0.91,1.08,1.86,2.19,2.22c2,1.32,3.5,1.23,5.54-0.35c0.63-0.28,1.08-0.74,1.36-1.36
	c1.02-0.87,1.48-2.1,1.96-3.28c1.62-4.01,2.1-8.26,2.6-12.51c0.58-4.9,0.54-9.82,0.47-14.74c0-0.24-0.12-0.42-0.71-0.49
	c-0.31,5.88-0.72,11.78-4.24,16.84c-0.37,0.35-0.72,0.72-1.1,1.06c-1.77,1.6-3.29,1.41-4.65-0.52c-0.39-0.56-0.68-1.15-0.9-1.8
	c-1.44-4.41-0.99-8.93-0.82-13.43c0.03-0.84,0.1-1.68,0.15-2.56c-0.51,0.09-0.58,0.3-0.59,0.53c-0.22,2.98-0.56,5.97-0.3,8.96
	c0.22,2.51,0.21,5.08,1.32,7.44c1.76,3.76,4.69,4,7.18,0.58c2.33-2.56,2.86-5.91,4-9.5c0.15,3.94-0.33,7.36-0.74,10.76
	c-0.51,4.35-1.31,8.68-3.92,12.4c-0.44,0.44-0.87,0.88-1.31,1.33c-1.61,1.09-3.28,1.33-5.03,0.35c-0.87-0.59-1.49-1.44-2.17-2.22
	c-0.49-1.43-0.98-2.87-1.47-4.3C84.46,121.02,84.99,122.51,85.83,123.9z"/>
<path class="st17" d="M24.21,92.25c-0.83,1.21-1.69,2.33-2.39,3.55c-0.52,0.89-0.87,0.69-1.51,0.15c-3.9-3.35-7.82-6.68-11.76-9.98
	c-0.64-0.54-0.8-0.88-0.29-1.64c7.49-11.07,14.96-22.17,22.51-33.39c3.27,2.68,6.47,5.32,9.68,7.94c0.49,0.4,0.52,0.74,0.15,1.27
	c-0.78,1.09-1.48,2.24-2.24,3.41c-1.86-1.53-3.68-2.97-5.42-4.5c-0.76-0.66-1.13-0.74-1.76,0.2c-3.45,5.23-6.97,10.41-10.49,15.59
	c-0.45,0.66-0.51,1.05,0.2,1.61c2.63,2.05,5.17,4.21,7.79,6.26c0.76,0.6,0.73,1.01,0.23,1.76c-2.08,3.15-2.05,3.16-4.94,0.77
	c-1.87-1.54-3.81-3.01-5.64-4.61c-0.86-0.75-1.19-0.53-1.74,0.32c-2.07,3.18-2.1,3.16,0.84,5.61C19.7,88.45,21.94,90.34,24.21,92.25
	z M19.66,92.02c0.08,0.08,0.16,0.16,0.25,0.24c0.43,0.46,0.86,0.94,1.67,1.27c-0.24-0.91-0.82-1.18-1.36-1.49
	c-0.12-0.1-0.24-0.21-0.37-0.31c-0.16-0.17-0.31-0.34-0.47-0.5c-0.81-0.7-1.61-1.39-2.42-2.09c-0.58-0.54-1.1-1.16-1.86-1.49
	c-0.28-0.28-0.55-0.56-0.83-0.83c-0.5-0.42-0.88-0.99-1.54-1.21c-1.51-1.04-1.27-2.07-0.18-3.33c0.87-1.01,1.49-2.23,2.23-3.36
	c0.47-0.62,1.01-1.2,1.38-1.87c0.39-0.7,0.78-0.37,1.22-0.16c1.42,1.19,2.85,2.37,4.27,3.56c0.39,0.28,0.78,0.56,1.17,0.85
	c0.17,0.16,0.33,0.32,0.5,0.49c0.69,0.57,1.38,1.14,2.07,1.7c0.39,0.31,0.7,0.77,1.36,0.74c-0.25-0.58-0.62-0.86-1.1-1
	c-0.55-0.73-1.27-1.24-2.06-1.68c-0.16-0.17-0.32-0.33-0.47-0.5c-0.4-0.29-0.8-0.58-1.2-0.88c-1.41-1.18-2.82-2.36-4.23-3.54
	c-1.26-0.97,0.14-1.55,0.33-2.31c0.4-0.61,0.79-1.23,1.19-1.84c1.61-2.06,3.11-4.19,4.41-6.46c0.81-0.7,1.24-1.68,1.84-2.54
	c1.21-1.75,2.41-3.5,3.63-5.24c0.67-0.96,1.25-2.51,2.1-2.68c1.03-0.21,1.89,1.32,2.9,1.99c0.32,0.22,0.65,0.43,0.97,0.65
	c0.15,0.16,0.31,0.32,0.46,0.48c0.41,0.3,0.81,0.59,1.22,0.89c0.38,0.38,0.63,0.98,1.53,0.77c-0.5-0.42-0.88-0.74-1.26-1.06
	c-0.39-0.28-0.77-0.57-1.16-0.85c-0.16-0.16-0.33-0.31-0.49-0.47c-1.21-0.99-2.44-1.96-3.62-3c-0.52-0.46-0.81-0.37-1.16,0.16
	c-1.78,2.7-3.58,5.39-5.38,8.08c-0.79,0.73-1.26,1.68-1.85,2.56c-1.48,2.16-2.96,4.31-4.44,6.47c-0.39,0.62-0.79,1.24-1.18,1.85
	c-1.26,1.38-2.15,3.04-3.22,4.56c-0.86,1.24-1.73,2.47-2.58,3.71c-1.37,2-1.37,2.01,0.54,3.54c0.5,0.4,1,0.8,1.5,1.2
	c0.28,0.27,0.57,0.55,0.85,0.82c0.63,0.52,1.25,1.03,1.88,1.55c0.68,0.81,1.47,1.5,2.37,2.05C19.27,91.66,19.47,91.84,19.66,92.02z"
	/>
<path class="st17" d="M97.04,83.63c6.87-0.03,13.62-0.89,20.22-2.81c1.06-0.31,1.24-0.03,1.38,0.87c0.61,4.11,0.63,4.13-3.38,5.1
	c-1.86,0.45-3.73,0.92-5.62,1.15c-1.13,0.13-1.21,0.6-1.14,1.51c0.42,5.3,0.79,10.6,1.19,15.89c0.59,7.77,1.18,15.55,1.81,23.32
	c0.07,0.92-0.2,1.13-1.09,1.15c-4.13,0.12-4.03,0.14-4.33-4.02c-0.71-9.98-1.52-19.95-2.29-29.92c-0.16-2.03-0.34-4.06-0.41-6.09
	c-0.03-0.91-0.33-1.13-1.19-1.12c-3.11,0.05-6.22-0.03-9.33,0.04c-1.09,0.03-1.3-0.33-1.32-1.35c-0.04-3.75-0.08-3.75,3.63-3.75
	C95.8,83.62,96.42,83.62,97.04,83.63z M108.68,127.75c0.33-2.39-0.07-4.76-0.23-7.13c-0.38-5.7-0.83-11.39-1.23-17.08
	c-0.38-5.36-0.7-10.72-1.17-16.07c-0.12-1.34,0.45-1.59,1.53-1.75c2.24-0.33,4.46-0.75,6.69-1.14c-0.02-0.15-0.04-0.3-0.06-0.46
	c-6.88,1.64-13.91,1.48-20.92,1.9c0.08,0.48,0.36,0.43,0.54,0.41c3.39-0.23,6.8,0.12,10.17-0.38c1.04-0.16,1.45,0.07,1.51,1.25
	c0.22,4.01,0.62,8,0.91,12c0.5,7.05,0.9,14.1,1.5,21.14C108.12,122.88,107.92,125.37,108.68,127.75z"/>
<path class="st17" d="M35.17,92.57c2.62-2.81,5.17-5.56,7.72-8.3c2.66-2.86,5.33-5.7,7.95-8.59c0.55-0.61,0.99-0.84,1.64-0.19
	c0.28,0.28,0.61,0.5,0.92,0.74c2.6,2.03,2.58,2.01,0.19,4.41c-7.34,7.38-14.67,14.76-21.96,22.18c-0.85,0.87-1.39,0.91-2.38,0.21
	c-2.59-1.85-2.62-1.79-1.54-4.81c3.83-10.69,7.66-21.39,11.47-32.09c0.38-1.07,0.64-1.41,1.72-0.52c3.04,2.48,3.09,2.43,1.75,6.05
	c-2.45,6.59-4.91,13.18-7.37,19.77C35.17,91.73,34.95,92.02,35.17,92.57z M32.54,98.46c6.67-6.72,13.35-13.43,20.02-20.15
	c-0.96,0-1.37,0.64-1.87,1.14c-2.12,2.11-4.25,4.21-6.33,6.36c-4,4.13-8.22,8.04-12.04,12.34c-0.11,0.11-0.23,0.23-0.34,0.34
	c-0.55,0.1-0.69,0.91-1.57,0.78c3.64-10.3,7.27-20.56,11.02-31.17c-0.82,0.47-0.86,0.88-0.98,1.25c-2.46,6.93-4.92,13.85-7.37,20.78
	c-1.18,3.33-2.36,6.66-3.53,9.99c-0.12,0.35-0.45,0.78,0.07,1.02c0.37,0.17,0.58-0.26,0.8-0.48c0.64-0.64,1.25-1.3,1.88-1.95
	C32.37,98.63,32.46,98.54,32.54,98.46z"/>
<path class="st20" d="M100.16,61.26c1.08-2.16,2.06-4.35,3.3-6.41c3.44-5.7,7.8-10.51,13.65-13.82c0.51-0.29,1.17-1.02,1.53,0.16
	c0.23,0.77,1.38,1.49-0.12,2.33c-4.14,2.33-7.52,5.55-10.35,9.36c-0.6,0.81-0.9,1.63-0.89,2.65c0.08,4.99,0.78,9.79,3.99,13.87
	c2.57,3.27,5.85,4.44,9.9,3.31c1.12-0.31,2.46,0.97,2.18,2.08c-0.14,0.56-0.72,0.48-1.11,0.58c-6.59,1.82-11.87-0.71-15.18-7.21
	c-1.39-2.72-2.03-5.66-2.49-8.93c-1.04,1.4-1.41,2.8-1.84,4.14c-0.52,1.66-1.03,3.35-1.32,5.06c-0.22,1.26-0.42,1.95-2.01,1.95
	c-1.74,0-1.59-1.12-1.72-2.09c-0.82-6.15-0.58-12.3,0.04-18.44c0.36-3.59,0.84-7.17,1.51-10.72c0.2-1.06,0.57-1.31,1.55-1.04
	c0.83,0.23,1.54,0.25,1.29,1.56C100.7,46.77,100.06,53.96,100.16,61.26z"/>
<path class="st20" d="M88.26,63.54c-1.07,2.61-1.77,5.23-3.49,7.38c-1.23,1.53-2.64,2.7-4.74,2.27c-2.14-0.44-2.88-2.17-3.31-4.05
	c-1.13-4.84,1.67-11.93,5.79-14.71c1.05-0.71,2.21-1.12,3.5-1.07c0.56,0.02,0.99-0.03,0.92-0.81c-0.23-2.3-0.2-4.63-0.88-6.87
	c-0.61-2.03-1.43-2.35-3.17-1.19c-2.59,1.72-4.14,4.25-5.52,6.93c-0.22,0.43-0.24,1.52-1.16,0.79c-0.63-0.5-2.02-0.57-1.38-2.04
	c1.58-3.64,4.08-6.51,7.38-8.62c2.42-1.55,5.16-0.43,6.18,2.28c1.12,2.96,1.18,6.07,1.4,9.16c0.2,2.87,0.35,5.75,1.02,8.56
	c0.54,2.24,1.49,4.28,3.25,5.8c1.38,1.2-0.08,1.74-0.5,2.43c-0.68,1.12-1.09-0.08-1.48-0.38C90.15,67.94,89.45,65.65,88.26,63.54z
	 M79.28,67.16c0.23,0.99-0.01,2.73,1.36,3.09c1.31,0.34,2-1.19,2.59-2.26c0.57-1.03,1.07-2.11,1.44-3.22
	c0.69-2.07,1.27-4.18,1.87-6.28c0.19-0.68,0.58-1.44-0.08-2.05c-0.76-0.69-1.49-0.09-2.16,0.25c-0.49,0.25-0.95,0.62-1.32,1.03
	C80.56,60.32,79.5,63.45,79.28,67.16z"/>
<path class="st20" d="M128.44,70.66c0.09-2.57,1.99-5.21,5.03-7.12c0.52-0.33,1.53-0.83,1.69-0.12c0.18,0.76,1.07,1.89-0.34,2.65
	c-2.01,1.09-3.12,2.9-3.55,5.11c-0.39,1.98,0.38,2.79,2.35,2.58c3.39-0.37,7.27-3.55,8.1-6.62c0.54-1.99,0.06-3.25-1.83-4.18
	c-1.81-0.9-3.69-1.65-5.57-2.41c-4.27-1.71-5.59-4.79-3.86-9.07c1.49-3.66,4.24-5.74,8.06-6.48c1.77-0.34,3.72,0.64,4.59,2.21
	c0.82,1.48,0.56,4.29-0.41,5.46c-0.51,0.62-0.92,0.29-1.26-0.03c-0.44-0.41-1.57-0.24-1.17-1.44c0.33-0.97,1.11-2.17-0.01-2.95
	c-1.17-0.82-2.52-0.27-3.67,0.38c-2,1.13-3.36,2.81-3.9,5.08c-0.44,1.84,0.13,3.05,1.89,3.84c1.79,0.81,3.65,1.48,5.45,2.27
	c4.9,2.14,6.14,6.05,3.31,10.56c-2.29,3.66-5.55,5.83-9.92,6.2C130.12,76.84,128.4,75.23,128.44,70.66z"/>
<path class="st17" d="M130.61,82.97c0.87-0.88,2.23-1.19,3.38-1.79c0.4-0.21,0.85-0.71,1.3-0.11c0.19,0.26,0.26,0.62,0.36,0.94
	c4.11,12.15,8.19,24.31,12.35,36.44c0.42,1.24,0.05,1.71-1,2.18c-3.47,1.58-3.43,1.6-4.65-2.11c-3.76-11.43-7.56-22.85-11.34-34.27
	C130.92,83.92,130.82,83.6,130.61,82.97z M145.05,119.23c0.18-0.06,0.35-0.12,0.53-0.18c-3.97-11.92-7.94-23.84-11.91-35.75
	c-0.17,0.06-0.33,0.11-0.5,0.17C137.14,95.39,141.1,107.31,145.05,119.23z"/>
<path class="st20" d="M121.61,69.38c-5.6,0-8.51-2.74-8.43-6.76c0.11-5.22,2.3-9.47,6.6-12.54c0.88-0.62,1.87-1.02,2.95-1.21
	c2.04-0.34,3.87,0,5.17,1.72c1.28,1.71,0.97,3.58,0,5.26c-2.18,3.8-5.46,6.24-9.7,7.39c-0.66,0.18-1.79-0.07-1.87,0.64
	c-0.12,1.07,0.82,1.8,1.76,2.27c1.74,0.86,3.41,0.32,5.04-0.4c1.16-0.51,2.05-1.38,2.93-2.26c1.44-1.45,1.57-1.41,2.81,0.24
	c0.3,0.4,0.35,0.62,0.01,0.99C126.49,67.32,123.79,69.34,121.61,69.38z M123.78,51.63c-0.22,0.02-0.46,0.01-0.67,0.06
	c-0.27,0.07-0.53,0.17-0.78,0.29c-3.38,1.6-4.95,4.58-6,7.94c-0.21,0.68,0.16,0.74,0.71,0.61c3.83-0.86,6.76-2.95,8.52-6.48
	C126.33,52.52,125.55,51.6,123.78,51.63z"/>
<path class="st17" d="M78.21,105.31c-0.23,0.22-0.46,0.44-0.69,0.67c-2.95,1.82-6.1,2.53-9.54,1.74c-0.79-0.18-1.16-0.38-0.83-1.31
	c1.89-5.4,3.74-10.8,5.55-16.23c0.28-0.83,0.54-0.87,1.31-0.6c1.67,0.6,3.08,1.59,4.52,2.57c0.4,0.5,0.8,1.01,1.2,1.51
	c2.15,3.38,1.28,6.66-0.29,9.93c-0.17,0.35-0.37,0.68-0.56,1.03C78.65,104.85,78.43,105.08,78.21,105.31z M78.6,98.19
	c0.02-2.54-1.15-4.58-3.19-5.73c-0.8-0.45-1.25-0.49-1.58,0.54c-1.26,3.95-2.56,7.89-3.9,11.82c-0.29,0.85-0.13,1.09,0.75,1.11
	C74.93,106.05,78.57,102.52,78.6,98.19z"/>
</svg>
