<?xml version="1.0" encoding="utf-8"?>
<!-- Generator: Adobe Illustrator 25.2.1, SVG Export Plug-In . SVG Version: 6.00 Build 0)  -->
<svg version="1.1" id="Layer_1" xmlns="http://www.w3.org/2000/svg" xmlns:xlink="http://www.w3.org/1999/xlink" x="0px" y="0px"
	 viewBox="0 0 180 337" style="enable-background:new 0 0 180 337;" xml:space="preserve">
<style type="text/css">
	.st0{fill:#7D2F51;}
	.st1{fill:#AB466F;}
	.st2{fill:#421210;}
	.st3{opacity:0.38;}
	.st4{fill:#E6E6E5;}
	.st5{fill:#CFD1D2;}
	.st6{fill:#E6E7E8;}
	.st7{opacity:0.25;}
	.st8{fill:#BEC0C2;}
	.st9{fill:#FEF4F5;}
	.st10{fill:#EED4D3;}
	.st11{fill:#F1E8E8;}
	.st12{fill:#E6DEDF;}
	.st13{fill:#602510;}
	.st14{fill:#87481F;}
	.st15{fill:#D1DDDE;}
	.st16{fill:#CED4D6;}
	.st17{fill:#D7DFE2;}
	.st18{fill:#4D2D23;}
	.st19{fill:#F4F9F9;}
	.st20{fill:#7FA652;}
	.st21{opacity:0.5;}
	.st22{fill:#E4F1F1;}
	.st23{fill:#171818;}
	.st24{fill:#FCB977;stroke:#FCB977;stroke-miterlimit:10;}
	.st25{fill:#FCB977;}
	.st26{fill:#FED2A9;}
	.st27{fill:#D28C4B;}
</style>
<g>
	<g>
		<path class="st18" d="M93.2,77.4c0,0,7.5-18.4-9.5-20.4c-20.6-2.4-23-30.2,4.9-31.5C122.7,24,113.8,2.8,109.8,0
			c0,0,17.1,6.8,18,23.3c1.1,19.2-37.1,13.4-31.8,25C99,54.9,107.4,64.6,93.2,77.4z"/>
	</g>
	<g>
		<path class="st18" d="M84.6,76.4c0,0,5.1-12.5-6.4-14.1c-11.9-1.6-11.9-9.2-11.9-9.2s-6.8,14,8.8,15.7
			C81.8,69.5,84.6,76.4,84.6,76.4z"/>
	</g>
	<g>
		<path class="st18" d="M97.7,79.6c0,0,10.8-7.5,10.3-14.2c-0.7-9.2-4.5-9.7-2.7-14.8c1.8-5.1,17.8-8.4,17.8-8.4
			s-14.1,8.8-10.2,15.9C114.8,61.7,123.7,72.4,97.7,79.6z"/>
	</g>
</g>
<g>
	<path class="st6" d="M12.9,127.9L38,327.5c0.7,5.5,5.3,9.6,10.9,9.6h86.2c5.5,0,10.2-4.1,10.9-9.6l23.9-199.5H12.9z"/>
</g>
<g>
	<rect y="111.7" class="st1" width="180" height="16.2"/>
</g>
<g>
	<polygon class="st6" points="15.9,111.7 20.6,89.4 164.8,89.4 169.8,111.7 	"/>
</g>
<g>
	<g>
		<path class="st18" d="M94.7,182.2c0.2,0.4,0.4,0.8,0.6,1.2c0.9,1.9,1.7,4,2.4,6.1c1.3,4.2,1.9,8.7,1.7,13.3
			c-0.1,2.3-0.5,4.6-1.1,6.9c-0.3,1.1-0.7,2.3-1.2,3.4c-0.2,0.6-0.5,1.1-0.8,1.6l-0.7,1.4c-2,3.6-3.8,7.2-5.1,10.8
			c-1.4,3.6-2.1,7.3-2.2,11c-0.1,3.7,0.5,7.7,1.3,11.6c1.6,7.3,4.6,14.4,7.7,21.6c17.8-3.3,31.4-21.9,31.4-44.3
			C128.5,203.4,113.6,184.2,94.7,182.2z"/>
	</g>
	<g>
		<path class="st18" d="M83.7,251.3c-0.8-2.1-1.4-4.2-1.9-6.4c-0.5-2.2-0.8-4.5-0.9-6.8c-0.1-2.3,0.1-4.7,0.4-7
			c0.4-2.3,1-4.6,1.8-6.7c1.6-4.3,3.8-8.2,6-11.8l0.8-1.3c0.2-0.4,0.5-0.7,0.7-1.1c0.4-0.8,0.8-1.6,1.2-2.5c0.7-1.7,1.2-3.5,1.5-5.4
			c0.7-3.8,0.9-7.8,0.6-11.9c-0.1-2.1-0.4-4-0.8-6.2c-0.1-0.7-0.2-1.3-0.3-1.9c-0.5,0-1,0-1.4,0c-20.5,0-37,20.1-37,44.8
			s16.6,44.8,37,44.8c1.6,0,3.3-0.1,4.9-0.4C91.1,265.6,86.6,258.9,83.7,251.3z"/>
	</g>
</g>
</svg>
