<?xml version="1.0" encoding="utf-8"?>
<!-- Generator: Adobe Illustrator 25.2.1, SVG Export Plug-In . SVG Version: 6.00 Build 0)  -->
<svg version="1.1" id="Layer_1" xmlns="http://www.w3.org/2000/svg" xmlns:xlink="http://www.w3.org/1999/xlink" x="0px" y="0px"
	 viewBox="0 0 180 159.7" style="enable-background:new 0 0 180 159.7;" xml:space="preserve">
<style type="text/css">
	.st0{fill:#7D2F51;}
	.st1{fill:#AB466F;}
	.st2{fill:#421210;}
	.st3{opacity:0.38;}
	.st4{fill:#E6E6E5;}
	.st5{fill:#CFD1D2;}
	.st6{fill:#E6E7E8;}
	.st7{opacity:0.25;}
	.st8{fill:#BEC0C2;}
	.st9{fill:#FEF4F5;}
	.st10{fill:#EED4D3;}
	.st11{fill:#F1E8E8;}
	.st12{fill:#E6DEDF;}
	.st13{fill:#602510;}
	.st14{fill:#87481F;}
	.st15{fill:#D1DDDE;}
	.st16{fill:#CED4D6;}
	.st17{fill:#D7DFE2;}
	.st18{fill:#4D2D23;}
	.st19{fill:#F4F9F9;}
	.st20{fill:#7FA652;}
	.st21{opacity:0.5;}
	.st22{fill:#E4F1F1;}
	.st23{fill:#171818;}
	.st24{fill:#FCB977;stroke:#FCB977;stroke-miterlimit:10;}
	.st25{fill:#FCB977;}
	.st26{fill:#FED2A9;}
	.st27{fill:#D28C4B;}
</style>
<g>
	<path class="st18" d="M165.7,21.3c-6.6,24.6-19.9,40.5-47.1,41.2c-5.8,0.1-5.6,2.7-3.8,7.3c2.9,7.4,3.3,16.3,3.7,24.2
		c0.5,8.7,0,17.5-2.1,26.1c-8.8,36.1-42.4,50.4-73.9,31.1C7.9,130-9.7,76.7,5.5,39.2C18.1,7.7,49.7-1.1,76.7,18.8
		c3,2.2,0.6,7-2.9,5.9c-5.4-1.7-9.7-6.4-14.9-7.5c-14.3-2.9-22.2-1.8-22.4,16.1c-0.3,19.8,5.6,34.6,22,46.3
		c29.8,21.4,31.9,26.3,33,61.9c25.8-12.8,25.5-62.5,2.1-97.5c-3-4.4,3.6-9.4,6.9-5.1c2,2.6,3.2,6,4.3,8.8
		c5.2,13.4,12.3,11.5,23.4,7.1c14.1-5.5,24-14.8,26.4-31.7c2-13.6-3.5-15.3-14.6-14.7c-12.1,0.6-20.4,7.8-29.3,14.1
		c-2.9,2.1-6.4-1.7-4.3-4.5c7.3-9.5,17.6-15.3,30.6-17.3c16.7-2.6,30,2.5,38,18.6c14.8,29.7-5.2,72.9-41.3,87.2c-2.5,1-4.3-2.5-2-4
		C162.6,82.3,178.2,58.2,165.7,21.3z M29.8,19.9C6,43.9,4.3,67.8,11.8,93.6c7.9,27.2,22.1,49.3,51.2,57.3
		c11.6,3.2,19.6,0.1,19.9-15.1c0.4-18.1-4-33.5-19.6-42.9C37.1,77.2,23.6,55.7,29.8,19.9z"/>
</g>
</svg>
