<?xml version="1.0" encoding="utf-8"?>
<!-- Generator: Adobe Illustrator 23.0.1, SVG Export Plug-In . SVG Version: 6.00 Build 0)  -->
<svg version="1.1" id="Layer_1" xmlns="http://www.w3.org/2000/svg" xmlns:xlink="http://www.w3.org/1999/xlink" x="0px" y="0px"
	 viewBox="0 0 180 176.59" style="enable-background:new 0 0 180 176.59;" xml:space="preserve">
<style type="text/css">
	.st0{fill:#CFD1D2;}
	.st1{fill:#E6E7E8;}
	.st2{opacity:0.25;fill:#BEC0C2;}
	.st3{fill:#421210;}
	.st4{fill:#FEF4F5;}
	.st5{fill:#EED4D3;}
	.st6{fill:#F1E8E8;}
	.st7{fill:#E6DEDF;}
	.st8{fill:#602510;}
	.st9{fill:#87481F;}
	.st10{fill:#D1DDDE;}
	.st11{fill:#CED4D6;}
	.st12{fill:#AB466F;}
	.st13{fill:#D7DFE2;}
	.st14{fill:#4D2D23;}
	.st15{fill:#E6E6E5;}
	.st16{fill:#F4F9F9;}
	.st17{fill:#7FA652;}
	.st18{opacity:0.5;}
	.st19{fill:#E4F1F1;}
	.st20{fill:#171818;}
	.st21{fill:#7D2F51;}
	.st22{opacity:0.38;}
	.st23{fill:#FCB977;stroke:#FCB977;stroke-miterlimit:10;}
	.st24{fill:#FCB977;}
	.st25{fill:#E3AF6F;}
	.st26{fill:#FED2A9;}
	.st27{fill:#D28C4B;}
	.st28{fill:#C0C2C4;}
	.st29{fill:#FFFFFF;}
</style>
<g>
	<path class="st21" d="M178.5,82.72v3.09c-2.94,1.1-9.93,1.88-18.08,1.88c-8.16,0-15.16-0.78-18.09-1.89v-3.09H178.5z"/>
	<g>
		<path class="st12" d="M142.35,85.81c5.65,1.76,12.25,1.58,18.07,1.58c5.85,0,12.36,0.11,18.07-1.57
			c-0.71,11.36-1.41,22.71-2.12,34.07c0,0,0,0,0,0c0,0,0,0.01,0,0.01c-0.96,3.51-11.98,3.91-15.95,3.91
			c-3.97,0-14.99-0.41-15.95-3.91c0,0,0-0.01,0-0.01c0,0,0,0,0,0C143.76,108.53,143.05,97.17,142.35,85.81z"/>
	</g>
	<path class="st21" d="M140.84,83.83c0,1.68,8.76,3.05,19.57,3.05c10.81,0,19.57-1.37,19.57-3.05c0-0.32,0.17-0.79-0.4-1.08
		c-2.48-1.24-10.38-1.97-19.16-1.97c-8.66,0-16.48,0.59-19.06,1.81C140.71,82.89,140.84,83.49,140.84,83.83z"/>
	<ellipse class="st12" cx="160.42" cy="83.28" rx="19.57" ry="3.05"/>
	<path class="st21" d="M142.33,82.83c0,1.43,8.1,2.59,18.08,2.59c9.99,0,18.08-1.16,18.08-2.59c0-1.43-8.13-2.33-18.12-2.33
		C150.39,80.5,142.33,81.39,142.33,82.83z"/>
	<path class="st3" d="M166.85,82.51c-1.97-0.08-4.14-0.12-6.44-0.12c-8.72,0-15.79,0.64-15.79,1.43c0,0.51,7.07,1.43,15.79,1.43
		c2.73,0,5.3-0.1,7.55-0.24c4.91-0.32,8.24-0.88,8.24-1.19C176.2,83.23,172.36,82.73,166.85,82.51z"/>
	<g>
		<defs>
			<path id="SVGID_1_" d="M142.35,85.81c5.65,1.76,12.25,1.76,18.08,1.76c5.85,0,12.36-0.08,18.06-1.76
				c-0.71,11.36-1.41,22.71-2.12,34.07c0,0,0,0,0,0c0,0,0,0.01,0,0.01c-0.96,3.51-11.98,3.91-15.95,3.91
				c-3.97,0-14.99-0.41-15.95-3.91c0,0,0-0.01,0-0.01c0,0,0,0,0,0C143.76,108.53,143.05,97.17,142.35,85.81z"/>
		</defs>
		<clipPath id="SVGID_2_">
			<use xlink:href="#SVGID_1_"  style="overflow:visible;"/>
		</clipPath>
	</g>
	<g class="st22">
		<path class="st15" d="M174.36,86.76l-1.58,34.5c0,0-2.44,0.97-4.74,1.21c-2.3,0.24-3.44,0-3.44,0l-0.14-34.62
			c0,0,4.45-0.12,5.88-0.12c1.44,0,1.44,0,1.44,0L174.36,86.76z"/>
	</g>
</g>
<g>
	<g>
		<g>
			<path class="st3" d="M160.2,82.37c0,0,2.35-6.62-2.97-7.34c-6.44-0.87-7.2-10.86,1.53-11.33c10.65-0.57,7.85-8.18,6.62-9.19
				c0,0,5.33,2.45,5.63,8.38c0.34,6.91-11.58,4.8-9.94,8.99C162,74.28,164.63,77.78,160.2,82.37z"/>
		</g>
		<path class="st3" d="M157.51,82.03c0,0,1.58-4.51-1.99-5.06c-3.72-0.57-3.72-3.32-3.72-3.32s-2.12,5.03,2.76,5.63
			C156.63,79.54,157.51,82.03,157.51,82.03z"/>
		<path class="st3" d="M161.6,83.15c0,0,3.36-2.69,3.2-5.09c-0.22-3.32-1.42-3.5-0.84-5.34c0.57-1.83,5.55-3.04,5.55-3.04
			s-4.39,3.15-3.2,5.74C166.93,76.73,169.73,80.59,161.6,83.15z"/>
	</g>
</g>
<g>
	<g>
		<path class="st3" d="M66.64,18.48c-0.64,0.87-1.48,1.85-2.53,2.94c-0.73,0.77-1.19,1.33-1.37,1.67c-0.18,0.34-0.21,0.67-0.07,0.99
			c0.14,0.32,0.66,0.96,1.57,1.91c0.82,0.82,1.5,1.69,2.05,2.6c1.28,2.05,2.12,4.08,2.53,6.08c0.18,0.82,0.27,1.82,0.27,3.01
			c0,1.73-0.27,3.19-0.82,4.38c-0.5,1-1.14,1.91-1.91,2.73c-1.23,1.18-2.69,1.96-4.38,2.32c-1.18,0.23-2.32,0.23-3.42,0
			c-0.87-0.18-1.5-0.39-1.91-0.61l-0.2-0.14l-0.14,0.21c-0.27,0.23-0.68,0.41-1.23,0.55c-0.27,0.09-0.74,0.14-1.4,0.14
			s-1.13-0.02-1.4-0.07c-0.87-0.18-1.39-0.52-1.57-1.02c-0.05-0.18-0.05-1.06,0-2.63c0.04-1.57,0.07-3.68,0.07-6.32
			c0.14-7.66,0.3-14.01,0.48-19.07c0.32-8.2,0.55-13.1,0.68-14.7c0.09-1,0.2-1.66,0.34-1.98c0.14-0.27,0.41-0.5,0.82-0.68
			c0.46-0.23,0.99-0.34,1.61-0.34c0.62,0,1.13,0.11,1.54,0.34c0.45,0.18,0.73,0.55,0.82,1.09c0.14,0.59,0.21,4.24,0.21,10.94
			c0,2.32,0,4.23,0,5.71s0.02,2.2,0.07,2.15c0.14-1.59,0.29-3.23,0.48-4.92c0.14-1.37,0.25-2.46,0.34-3.28
			c0.23-1.82,0.48-3.35,0.75-4.58c0.14-0.5,0.27-1.12,0.41-1.85c0.45-2.28,1.07-3.78,1.85-4.51c0.59-0.64,1.69-0.96,3.28-0.96
			c1.55,0,2.98,0.43,4.31,1.3c1.05,0.73,1.78,1.71,2.19,2.94c0.5,1.41,0.5,3.1,0,5.06C70.22,12.6,68.78,15.47,66.64,18.48z
			 M62.27,38.92v-1.57l-0.27-1.3c-0.32-1.78-0.64-3.1-0.96-3.96c-0.37-1.09-0.87-2.16-1.5-3.21c-0.91-1.5-1.41-2.26-1.5-2.26
			c-0.05,0-0.32,2.76-0.82,8.27c-0.23,2.6-0.36,4.85-0.41,6.77v2.8h0.48c0.32,0,0.61,0.02,0.89,0.07c0.23,0.09,0.55,0.16,0.96,0.21
			l0.61,0.07c0.09,0.05,0.3-0.09,0.61-0.41c0.73-0.73,1.32-1.85,1.78-3.35C62.22,40.63,62.27,39.92,62.27,38.92z M57.28,21.35
			l-0.07,0.07l0.07,0.14C57.28,21.46,57.28,21.39,57.28,21.35z M62.47,14.03c0.36-0.87,0.64-1.75,0.82-2.66
			c0.77-3.24,1.02-5.58,0.75-7.04c-0.14-0.77-0.34-1.3-0.62-1.57l-0.27-0.34l-0.27,0.2c-0.41,0.41-0.73,0.91-0.96,1.5
			c-1.05,2.46-1.87,5.77-2.46,9.91c-0.14,1.09-0.27,2.1-0.41,3.01c-0.14,1.05-0.25,1.85-0.34,2.39c-0.09,0.64-0.15,1.02-0.17,1.13
			c-0.02,0.12-0.02,0.16,0,0.14c0.02-0.02,0.19-0.24,0.51-0.65C60.56,18.04,61.7,16.04,62.47,14.03z"/>
		<path class="st3" d="M94.46,15.33c0.05,0.46,0.08,1.27,0.1,2.43c0.02,1.16,0.04,2.38,0.07,3.66c0.02,1.28,0.05,2.54,0.07,3.79
			c0.02,1.25,0.01,2.18-0.03,2.77c-0.14,3.33-0.41,6.31-0.82,8.96c-0.87,5.01-2.12,8.48-3.76,10.39c-0.78,0.96-1.92,1.6-3.42,1.92
			c-0.32,0.09-0.89,0.15-1.71,0.17c-0.82,0.02-1.41,0.01-1.78-0.03c-1.6-0.27-2.89-0.78-3.9-1.5c-0.82-0.55-1.5-1.25-2.05-2.12
			c-1-1.46-1.71-3.42-2.12-5.88c-0.32-1.87-0.55-4.56-0.68-8.07c-0.14-4.01-0.14-7.61,0-10.8c0.09-1.5,0.16-2.71,0.2-3.62
			c0.05-0.91,0.09-1.75,0.14-2.53c0.04-1.18,0.07-1.89,0.07-2.12c0.32-5.51,0.84-8.98,1.57-10.39c0.23-0.45,0.55-0.8,0.96-1.02
			c0.68-0.36,1.5-0.5,2.46-0.41c1.09,0.14,1.8,0.52,2.12,1.16c0.27,0.41,0.43,1.07,0.48,1.98c0.04,0.91,0.04,2.8,0,5.67
			c-0.09,4.47-0.05,9.07,0.14,13.81c0,0.41,0.02,1.17,0.07,2.29c0.04,1.12,0.07,1.88,0.07,2.29c0.27,8.11,0.75,13.22,1.44,15.31
			c0.18,0.64,0.45,1.31,0.79,2.02c0.34,0.71,0.56,1.06,0.65,1.06c0.09,0,0.34-0.34,0.75-1.03c1-1.55,1.78-4.1,2.32-7.66
			c0.36-2.41,0.64-4.83,0.82-7.25c0.18-2.55,0.27-5.06,0.27-7.52c0-5.65-0.07-9.89-0.21-12.72c-0.09-2-0.3-3.74-0.61-5.19
			c-0.18-1-0.2-1.62-0.07-1.85c0.09-0.14,0.2-0.34,0.34-0.62c0.32-0.64,0.91-0.93,1.78-0.89c0.41,0,0.71,0.05,0.89,0.14
			c0.18,0.09,0.44,0.32,0.79,0.68c0.34,0.37,0.55,0.63,0.61,0.79c0.07,0.16,0.15,0.58,0.24,1.27c0.05,0.55,0.09,1.14,0.14,1.78
			c0.09,0.5,0.14,0.93,0.14,1.3c0.09,0.91,0.2,2.08,0.34,3.49c0.04,0.46,0.09,1.19,0.14,2.19C94.35,14.28,94.42,14.92,94.46,15.33z"
			/>
		<path class="st3" d="M115.45,39.12c0,0,0.05,0.14,0.14,0.41c0.09,0.27-0.02,1.37-0.34,3.28c-0.18,1.32-0.57,2.44-1.16,3.35
			c-0.36,0.55-0.87,1-1.5,1.37c-0.64,0.37-1.37,0.61-2.19,0.75c-0.36,0.09-0.95,0.14-1.74,0.14c-0.8,0-1.4-0.05-1.81-0.14
			c-2.42-0.36-4.13-1.25-5.13-2.67c-0.41-0.55-0.82-1.41-1.23-2.6c-0.41-1.23-0.71-3.01-0.89-5.33c-0.05-0.68-0.07-2.28-0.07-4.79
			c0-2.5,0.02-4.51,0.07-6.02c0.09-1.37,0.16-3.01,0.21-4.92c0.04-1.41,0.09-2.94,0.14-4.58c0.04-1.37,0.06-2.06,0.03-2.08
			c-0.02-0.02-0.15-0.03-0.38-0.03c-0.96-0.14-1.44-0.43-1.44-0.89c0-0.32,0.45-0.59,1.37-0.82l0.61-0.2l0.14-2.05
			c0.09-1.32,0.16-2.21,0.2-2.67c0.18-1.37,0.32-2.71,0.41-4.03c0.09-1.41,0.17-2.3,0.24-2.66c0.07-0.36,0.22-0.66,0.45-0.89
			c0.32-0.41,0.87-0.71,1.64-0.89c0.87-0.18,1.66-0.21,2.39-0.07c1.37,0.23,2.23,0.8,2.6,1.71c0.64,1.78,0.84,4.99,0.62,9.64
			c-0.05,0.87-0.05,1.3,0,1.3c0.09,0,0.39,0,0.89,0c2.05-0.14,3.37-0.14,3.97,0c0.73,0.18,1.2,0.43,1.4,0.75
			c0.21,0.32,0.08,0.64-0.38,0.96c-0.55,0.32-1.71,0.52-3.49,0.62c-1,0.05-1.64,0.09-1.91,0.14h-0.62l-0.07,0.27
			c-0.05,0.41-0.11,2.57-0.2,6.49c-0.05,1.23-0.09,2.76-0.14,4.58c-0.18,4.47-0.21,7.79-0.07,9.98c0.09,2.23,0.3,3.9,0.62,4.99
			c0.23,0.91,0.48,1.62,0.75,2.12l0.07,0.27l0.14-0.21c0.36-0.73,0.64-1.96,0.82-3.69c0-0.41,0.16-0.73,0.48-0.96
			c0.18-0.14,0.27-0.25,0.27-0.34c0-0.18,0.18-0.34,0.55-0.48c0.14-0.04,0.45-0.07,0.96-0.07h0.75l0.75,0.41
			C115.08,38.94,115.45,39.12,115.45,39.12z"/>
		<path class="st3" d="M59.19,65.95c0.23,0.18,0.3,0.41,0.2,0.68c-0.09,0.32-0.23,0.52-0.41,0.61c-0.37,0.23-1.14,0.34-2.33,0.34
			c-0.91,0-1.5,0.02-1.78,0.07c-1.14,0.18-2.16,0.27-3.07,0.27c-0.27,0-0.46,0-0.55,0L51.12,68v0.96c0.04,1.14,0.18,2.71,0.41,4.72
			c0.18,1.87,0.32,4.01,0.41,6.43c0.04,1.6,0.11,2.96,0.2,4.1c0.14,2.42,0.23,5.1,0.27,8.07l0.07,3.97h1.37
			c0.87,0,1.5,0.02,1.91,0.07c1.6,0.14,2.39,0.55,2.39,1.23c0,0.32-0.25,0.61-0.75,0.89c-0.77,0.41-2.12,0.66-4.03,0.75h-0.89
			l-0.07,0.41c-0.09,0.87-0.16,2.05-0.2,3.55c-0.05,0.87-0.09,1.8-0.14,2.8c-0.09,0.96-0.16,1.89-0.2,2.8
			c-0.05,0.82-0.07,1.3-0.07,1.44c-0.05,0.32-0.34,0.61-0.89,0.89c-0.59,0.27-1.37,0.41-2.33,0.41c-0.77,0-1.25-0.02-1.44-0.07
			c-0.68-0.14-1.18-0.34-1.5-0.61l-0.27-0.34l-0.07-0.61c0-0.45,0-1.14,0-2.05c0.04-1.14,0.14-5.03,0.27-11.69
			c0.04-2.6,0.04-5.92,0-9.98c-0.05-9.07,0-14.33,0.14-15.79c0.18-1.55,0.45-2.71,0.82-3.49c0.23-0.5,0.64-0.9,1.23-1.2
			c0.59-0.3,1.21-0.49,1.85-0.58c0.64-0.09,1.8-0.11,3.49-0.07c1.82,0,3.26,0.11,4.31,0.34C58.37,65.52,58.96,65.72,59.19,65.95z"/>
		<path class="st3" d="M64.93,72.04c-1.28-0.04-2.17-0.45-2.67-1.23c-0.18-0.36-0.3-1.57-0.34-3.62c-0.05-1.14-0.06-1.82-0.03-2.05
			c0.02-0.23,0.15-0.43,0.38-0.62c0.32-0.32,0.89-0.59,1.71-0.82c0.32-0.09,0.91-0.15,1.78-0.17c0.87-0.02,1.48,0.01,1.85,0.1
			c0.96,0.23,1.6,0.55,1.91,0.96l0.21,0.34v1.44c-0.05,1.32-0.25,2.46-0.62,3.42C68.51,71.38,67.12,72.13,64.93,72.04z M70.2,78.19
			c0.09,1.23,0.15,4.4,0.17,9.5c0.02,5.1,0.01,8.8-0.03,11.07c-0.09,2.28-0.23,4.08-0.41,5.4c-0.09,0.59-0.14,1.8-0.14,3.62
			c0,1.32,0,2.11,0,2.36c0,0.25-0.05,0.42-0.14,0.51c-0.27,0.5-0.93,0.88-1.98,1.13s-2.05,0.29-3.01,0.1
			c-1.28-0.18-2.08-0.57-2.39-1.16c-0.05-0.14-0.07-0.71-0.07-1.71c-0.09-8.89-0.16-13.95-0.2-15.18c-0.05-1.18-0.05-2.26,0-3.21
			c0.04-0.91,0.07-2.43,0.07-4.55c0-2.12-0.02-3.75-0.07-4.89c-0.09-2.1-0.05-3.67,0.14-4.72c0.09-0.68,0.3-1.18,0.61-1.5
			c0.55-0.59,1.54-0.92,2.97-0.99c1.44-0.07,2.52,0.19,3.25,0.79C69.6,75.27,70.01,76.41,70.2,78.19z"/>
		<path class="st3" d="M96.51,70.74c0.18,1.19,0.19,2.63,0.03,4.34c-0.16,1.71-0.44,3.16-0.85,4.34c-0.5,1.5-0.8,2.33-0.89,2.46
			c-0.46,0.68-1.46,1.05-3.01,1.09c-0.64,0.05-1.22,0.01-1.74-0.1c-0.52-0.11-0.95-0.29-1.26-0.51c-0.32-0.23-0.48-0.48-0.48-0.75
			c0-0.09,0.09-0.34,0.27-0.75c0.14-0.46,0.23-0.84,0.27-1.16c0.09-0.27,0.18-0.61,0.27-1.02c0.23-1.14,0.39-2.53,0.48-4.17
			c0.04-1.55,0.02-2.82-0.07-3.83l-0.07-0.27l-0.2,0.34c-0.64,1.09-1.3,2.87-1.98,5.33c-0.55,1.73-0.96,3.35-1.23,4.85
			c-1.05,5.15-1.82,11.23-2.33,18.25c-0.18,2.28-0.23,4.47-0.14,6.56c0.04,1.91,0.09,2.98,0.14,3.21c0.09,0.55,0.09,0.93,0,1.16
			c-0.18,0.46-0.77,0.84-1.78,1.16c-1,0.37-2.08,0.46-3.21,0.27c-1.41-0.18-2.28-0.59-2.6-1.23c-0.09-0.18-0.16-0.56-0.21-1.13
			c-0.05-0.57-0.09-1.15-0.14-1.74c-0.09-0.82-0.14-1.44-0.14-1.85c-0.05-0.55-0.09-0.98-0.14-1.3c-0.14-1.32-0.2-7.15-0.2-17.5
			c0.04-4.79,0.02-8.07-0.07-9.84c-0.09-4.56,0.02-8,0.34-10.32c0.05-0.64,0.21-1.09,0.48-1.37c0.27-0.27,0.75-0.5,1.44-0.68
			c1.46-0.41,2.76-0.32,3.9,0.27c0.55,0.27,0.89,0.87,1.03,1.78c0.23,1.55,0.39,4.44,0.48,8.68c0.04,2.55,0.09,4.17,0.14,4.85
			c0,0.68,0.02,1.32,0.07,1.91v0.68l0.07-0.48c0.05-0.23,0.18-1.09,0.41-2.6c0.23-1.82,0.52-3.6,0.89-5.33
			c0.5-2.23,0.93-3.9,1.3-4.99c0.36-1.14,0.89-2.05,1.57-2.73c0.73-0.77,1.82-1.18,3.28-1.23c0.91-0.04,1.69,0.05,2.32,0.27
			c0.87,0.27,1.62,0.82,2.26,1.64C95.85,68.23,96.29,69.37,96.51,70.74z"/>
		<path class="st3" d="M115.59,103.21c0,0,0.05,0.14,0.14,0.41c0.09,0.27-0.02,1.37-0.34,3.28c-0.18,1.32-0.57,2.44-1.16,3.35
			c-0.36,0.55-0.87,1-1.5,1.37c-0.64,0.37-1.37,0.61-2.19,0.75c-0.36,0.09-0.95,0.14-1.74,0.14c-0.8,0-1.4-0.05-1.81-0.14
			c-2.42-0.36-4.13-1.25-5.13-2.67c-0.41-0.55-0.82-1.41-1.23-2.6c-0.41-1.23-0.71-3.01-0.89-5.33c-0.05-0.68-0.07-2.28-0.07-4.79
			c0-2.5,0.02-4.51,0.07-6.02c0.09-1.37,0.16-3.01,0.21-4.92c0.04-1.41,0.09-2.94,0.14-4.58c0.04-1.37,0.06-2.06,0.03-2.08
			c-0.02-0.02-0.15-0.03-0.38-0.03c-0.96-0.14-1.44-0.43-1.44-0.89c0-0.32,0.45-0.59,1.37-0.82l0.61-0.2l0.14-2.05
			c0.09-1.32,0.16-2.21,0.2-2.67c0.18-1.37,0.32-2.71,0.41-4.03c0.09-1.41,0.17-2.3,0.24-2.66s0.22-0.66,0.45-0.89
			c0.32-0.41,0.87-0.71,1.64-0.89c0.87-0.18,1.66-0.21,2.39-0.07c1.37,0.23,2.23,0.8,2.6,1.71c0.64,1.78,0.84,4.99,0.62,9.64
			c-0.05,0.87-0.05,1.3,0,1.3c0.09,0,0.39,0,0.89,0c2.05-0.14,3.37-0.14,3.97,0c0.73,0.18,1.2,0.43,1.4,0.75
			c0.21,0.32,0.08,0.64-0.38,0.96c-0.55,0.32-1.71,0.52-3.49,0.62c-1,0.05-1.64,0.09-1.91,0.14h-0.62l-0.07,0.27
			c-0.05,0.41-0.11,2.57-0.2,6.49c-0.05,1.23-0.09,2.76-0.14,4.58c-0.18,4.47-0.21,7.79-0.07,9.98c0.09,2.23,0.3,3.9,0.62,4.99
			c0.23,0.91,0.48,1.62,0.75,2.12l0.07,0.27l0.14-0.21c0.36-0.73,0.64-1.96,0.82-3.69c0-0.41,0.16-0.73,0.48-0.96
			c0.18-0.14,0.27-0.25,0.27-0.34c0-0.18,0.18-0.34,0.55-0.48c0.14-0.04,0.45-0.07,0.96-0.07h0.75l0.75,0.41
			C115.22,103.03,115.59,103.21,115.59,103.21z"/>
		<path class="st3" d="M133.49,100.68c0.36,1.82,0.39,3.6,0.07,5.33c-0.23,1.23-0.61,2.2-1.16,2.91c-0.55,0.71-1.37,1.33-2.46,1.88
			c-1.18,0.59-2.51,0.98-3.96,1.16c-0.41,0.05-0.99,0.06-1.74,0.03c-0.75-0.02-1.29-0.06-1.61-0.1c-1.69-0.27-2.94-1-3.76-2.19
			c-0.41-0.59-0.73-1.53-0.96-2.8c-0.23-1.05-0.21-2.03,0.07-2.94c0.18-0.68,0.41-1.18,0.68-1.5c0.18-0.27,0.48-0.48,0.89-0.62
			c0.14-0.04,0.27-0.11,0.41-0.2c0.36-0.23,0.82-0.3,1.37-0.21c0.18,0,0.39,0.05,0.62,0.14c0.14,0.05,0.39,0.11,0.75,0.2
			c0.45,0.14,0.77,0.34,0.96,0.61c0.09,0.18,0.07,0.5-0.07,0.96c-0.14,0.36-0.23,0.71-0.27,1.02c-0.05,0.41-0.03,0.9,0.03,1.47
			s0.18,1.13,0.34,1.67c0.16,0.55,0.35,0.96,0.58,1.23l0.07,0.2l0.27-0.27c0.36-0.32,0.64-0.87,0.82-1.64
			c0.23-0.87,0.3-1.89,0.21-3.08c-0.23-2.78-1.57-7.13-4.03-13.06c-0.64-1.6-1.28-3.39-1.91-5.4c-0.91-2.69-1.46-4.94-1.64-6.77
			c-0.18-1.28-0.16-2.64,0.07-4.1c0.41-3.24,1.32-5.7,2.73-7.38c1.28-1.5,3.05-2.3,5.33-2.39c0.96-0.04,1.8,0.05,2.53,0.27
			c1.41,0.46,2.32,1.46,2.73,3.01c0.09,0.37,0.11,0.87,0.07,1.5c-0.05,1.14-0.27,2.03-0.68,2.67c-0.36,0.59-0.84,0.89-1.44,0.89
			c-0.23,0-0.39-0.01-0.48-0.03c-0.09-0.02-0.18-0.09-0.27-0.21c-0.09-0.11-0.17-0.26-0.24-0.44c-0.07-0.18-0.15-0.45-0.24-0.82
			c-0.14-0.5-0.27-0.93-0.41-1.3c-0.18-0.45-0.4-0.9-0.65-1.33c-0.25-0.43-0.42-0.65-0.51-0.65c-0.18,0-0.46,0.59-0.82,1.78
			c-0.96,2.87-1,5.99-0.14,9.37c0.45,1.64,1.14,3.53,2.05,5.67c0.46,1.05,1.25,2.85,2.39,5.4
			C131.76,94.32,132.9,97.67,133.49,100.68z"/>
		<path class="st3" d="M19.48,169.89c0,1.82,0,3.09,0,3.79c0,0.71-0.02,1.08-0.07,1.13c-0.23,0.46-0.78,0.78-1.64,0.96
			c-0.64,0.18-1.34,0.25-2.12,0.21c-0.5-0.05-1-0.16-1.5-0.34c-0.32-0.09-0.59-0.23-0.82-0.41l-0.27-0.34v-0.89
			c0-0.59-0.02-1.07-0.07-1.44c-0.05-0.36-0.09-1.14-0.14-2.32c0-0.04-0.05-1.25-0.14-3.62c-0.05-1.41-0.07-2.51-0.07-3.28
			l-0.07-1.44l-1.16,0.07c-0.82,0.05-1.8,0.05-2.94,0H6.69l-0.07,1.78c-0.09,2.51-0.16,5.56-0.21,9.16v1.37l-0.2,0.2
			c-0.23,0.32-0.71,0.57-1.44,0.75c-0.32,0.09-0.82,0.14-1.5,0.14c-0.68,0-1.18-0.02-1.5-0.07c-0.59-0.18-1.03-0.41-1.3-0.68
			l-0.21-0.21v-0.75c0-2-0.05-4.42-0.14-7.25c0-1.14-0.02-4.83-0.07-11.07c-0.14-12.94-0.05-20.99,0.27-24.13
			c0.14-1.14,0.43-1.91,0.89-2.32c0.41-0.36,1.05-0.57,1.91-0.62c0.87-0.04,1.57,0.07,2.12,0.34c0.5,0.23,0.83,0.65,0.99,1.27
			c0.16,0.61,0.28,1.99,0.38,4.13c0.04,1,0.07,5.42,0.07,13.26v11.83l1.16-0.07c0.73,0,1.69,0.02,2.87,0.07l1.64,0.07
			c0.05-0.04,0-2.21-0.14-6.49c-0.09-1.82-0.18-5.9-0.27-12.24c-0.05-5.29,0.09-8.59,0.41-9.91c0.18-0.64,0.41-1.09,0.68-1.37
			c0.45-0.5,1.23-0.75,2.32-0.75c0.5,0,0.89,0.05,1.16,0.14c0.77,0.27,1.3,0.82,1.57,1.64c0.41,1.37,0.68,4.19,0.82,8.48
			c0.04,1.14,0.11,2.89,0.2,5.26c0.14,4.19,0.23,9.16,0.27,14.9c0,4.15,0.01,6.23,0.03,6.26C19.46,165.1,19.48,166.7,19.48,169.89z"
			/>
		<path class="st3" d="M41.21,140.57c0.04,0.5,0.06,1.72,0.03,3.66c-0.02,1.94-0.06,3.52-0.1,4.75c-0.37,6.38-0.66,10.71-0.89,12.99
			c-0.23,1.96-0.48,3.65-0.75,5.06c-0.37,1.69-0.8,3.05-1.3,4.1c-0.46,0.96-0.96,1.69-1.5,2.19c-0.82,0.82-1.8,1.37-2.94,1.64
			c-0.91,0.18-1.8,0.23-2.67,0.14c-1.64-0.23-2.96-0.82-3.96-1.78c-1.6-1.5-2.6-4.01-3.01-7.52c-0.5-3.87-0.62-8.11-0.34-12.71
			c0.18-3.24,0.48-6.06,0.89-8.48c0.18-1.09,0.3-1.87,0.34-2.32c0.36-2.37,0.87-4.49,1.5-6.36c0.5-1.37,1.05-2.48,1.64-3.35
			c0.45-0.68,1-1.28,1.64-1.78c1-0.82,2.28-1.23,3.83-1.23c1.41,0,2.53,0.39,3.35,1.16c0.18,0.18,0.32,0.29,0.41,0.31
			c0.09,0.02,0.39,0.29,0.89,0.79c0.45,0.46,0.8,0.78,1.03,0.96c0.18,0.14,0.36,0.46,0.55,0.96c0.68,1.78,1.09,3.55,1.23,5.33
			C41.17,139.84,41.21,140.34,41.21,140.57z M36.5,151.98c0.18-1.55,0.3-4.03,0.34-7.45c0.04-3.42,0-5.81-0.14-7.18
			c-0.18-1.64-0.46-2.83-0.82-3.55c-0.27-0.55-0.75-1.12-1.44-1.71l-0.41-0.34l-0.14,0.21c-0.41,0.5-0.8,1.5-1.16,3.01
			c-0.68,2.69-1.09,7.27-1.23,13.74c-0.18,6.75,0.07,12.87,0.75,18.39c0.32,2.46,0.55,3.69,0.68,3.69c0.05,0,0.16-0.23,0.34-0.68
			c0.55-1.14,1.03-2.53,1.44-4.17c0.82-3.23,1.39-7.31,1.71-12.24C36.47,152.78,36.5,152.21,36.5,151.98z"/>
		<path class="st3" d="M61.79,167.29c0,0,0.05,0.14,0.14,0.41c0.09,0.27-0.02,1.37-0.34,3.28c-0.18,1.32-0.57,2.44-1.16,3.35
			c-0.36,0.55-0.87,1-1.5,1.37c-0.64,0.37-1.37,0.61-2.19,0.75c-0.36,0.09-0.95,0.14-1.74,0.14c-0.8,0-1.4-0.05-1.81-0.14
			c-2.42-0.36-4.13-1.25-5.13-2.67c-0.41-0.55-0.82-1.41-1.23-2.6c-0.41-1.23-0.71-3.01-0.89-5.33c-0.05-0.68-0.07-2.28-0.07-4.79
			c0-2.5,0.02-4.51,0.07-6.02c0.09-1.37,0.16-3.01,0.21-4.92c0.04-1.41,0.09-2.94,0.14-4.58c0.04-1.37,0.06-2.06,0.03-2.08
			c-0.02-0.02-0.15-0.03-0.38-0.03c-0.96-0.14-1.44-0.43-1.44-0.89c0-0.32,0.45-0.59,1.37-0.82l0.61-0.2l0.14-2.05
			c0.09-1.32,0.16-2.21,0.2-2.67c0.18-1.37,0.32-2.71,0.41-4.03c0.09-1.41,0.17-2.3,0.24-2.66c0.07-0.36,0.22-0.66,0.45-0.89
			c0.32-0.41,0.87-0.71,1.64-0.89c0.87-0.18,1.66-0.21,2.39-0.07c1.37,0.23,2.23,0.8,2.6,1.71c0.64,1.78,0.84,4.99,0.62,9.64
			c-0.05,0.87-0.05,1.3,0,1.3c0.09,0,0.39,0,0.89,0c2.05-0.14,3.37-0.14,3.97,0c0.73,0.18,1.2,0.43,1.4,0.75
			c0.21,0.32,0.08,0.64-0.38,0.96c-0.55,0.32-1.71,0.52-3.49,0.62c-1,0.05-1.64,0.09-1.91,0.14h-0.62l-0.07,0.27
			c-0.05,0.41-0.11,2.57-0.2,6.49c-0.05,1.23-0.09,2.76-0.14,4.58c-0.18,4.47-0.21,7.79-0.07,9.98c0.09,2.23,0.3,3.9,0.62,4.99
			c0.23,0.91,0.48,1.62,0.75,2.12l0.07,0.27l0.14-0.21c0.36-0.73,0.64-1.96,0.82-3.69c0-0.41,0.16-0.73,0.48-0.96
			c0.18-0.14,0.27-0.25,0.27-0.34c0-0.18,0.18-0.34,0.55-0.48c0.14-0.04,0.45-0.07,0.96-0.07h0.75l0.75,0.41
			C61.42,167.11,61.79,167.29,61.79,167.29z"/>
		<path class="st3" d="M93.57,157.52c0.04,0.64,0.08,1.62,0.1,2.94c0.02,1.32,0.01,2.23-0.03,2.73c-0.09,1.41-0.23,2.55-0.41,3.42
			c-0.27,1.28-0.61,2.48-1.02,3.62c-0.5,1.5-0.98,2.6-1.44,3.28c-0.5,0.73-1.34,1.25-2.53,1.57c-0.41,0.09-1.02,0.14-1.85,0.14
			c-0.73,0.05-1.18,0.05-1.37,0c-1.5-0.27-2.69-0.87-3.55-1.78c-0.59-0.59-1.14-1.39-1.64-2.39c-0.73-1.46-1.3-3.3-1.71-5.54
			c-0.32-1.64-0.57-3.94-0.75-6.9c-0.18-2.73-0.21-5.22-0.07-7.45c0.27-5.74,1.02-10.53,2.26-14.36c0.96-3.05,2.21-5.17,3.76-6.36
			c1.41-1.05,3.03-1.48,4.85-1.3c0.73,0.09,1.39,0.27,1.98,0.55c1.55,0.73,2.53,2.28,2.94,4.65c0.32,1.64,0.3,3.83-0.07,6.56
			c-0.37,2.55-0.75,4.01-1.16,4.37c-0.27,0.23-0.57,0.25-0.89,0.07l-0.2-0.07v-0.55c0-0.36,0.02-0.91,0.07-1.64
			c0.09-0.73,0.14-1.82,0.14-3.28c0-1.46-0.02-2.39-0.07-2.8c-0.27-1.82-0.84-3.3-1.71-4.44c-0.46-0.64-0.8-0.96-1.02-0.96
			c-0.14,0-0.37,0.31-0.68,0.92c-0.32,0.62-0.57,1.24-0.75,1.88c-0.5,1.55-0.98,3.81-1.44,6.77c-0.32,2.1-0.62,4.99-0.89,8.68
			c-0.14,2.01-0.14,4.54,0,7.59c0.14,3.05,0.36,5.61,0.68,7.66c0.41,2.55,1.07,4.6,1.98,6.15l0.27,0.55c0.14,0,0.45-0.48,0.96-1.44
			c0.32-0.68,0.66-1.79,1.03-3.32c0.36-1.53,0.61-2.97,0.75-4.34c0.04-0.68,0.07-1.53,0.07-2.53c0.05-1.09,0-2.03-0.14-2.8
			c0-0.18,0.07-0.32,0.21-0.41c0.09-0.14,0.25-0.25,0.48-0.34c0.23-0.09,0.61-0.14,1.16-0.14c0.73,0,1.23,0.11,1.5,0.34
			C93.51,156.93,93.57,157.15,93.57,157.52z"/>
		<path class="st3" d="M114.63,140.57c0.04,0.5,0.06,1.72,0.03,3.66c-0.02,1.94-0.06,3.52-0.1,4.75
			c-0.37,6.38-0.66,10.71-0.89,12.99c-0.23,1.96-0.48,3.65-0.75,5.06c-0.37,1.69-0.8,3.05-1.3,4.1c-0.46,0.96-0.96,1.69-1.5,2.19
			c-0.82,0.82-1.8,1.37-2.94,1.64c-0.91,0.18-1.8,0.23-2.67,0.14c-1.64-0.23-2.96-0.82-3.96-1.78c-1.6-1.5-2.6-4.01-3.01-7.52
			c-0.5-3.87-0.62-8.11-0.34-12.71c0.18-3.24,0.48-6.06,0.89-8.48c0.18-1.09,0.3-1.87,0.34-2.32c0.36-2.37,0.87-4.49,1.5-6.36
			c0.5-1.37,1.05-2.48,1.64-3.35c0.45-0.68,1-1.28,1.64-1.78c1-0.82,2.28-1.23,3.83-1.23c1.41,0,2.53,0.39,3.35,1.16
			c0.18,0.18,0.32,0.29,0.41,0.31c0.09,0.02,0.39,0.29,0.89,0.79c0.45,0.46,0.8,0.78,1.03,0.96c0.18,0.14,0.36,0.46,0.55,0.96
			c0.68,1.78,1.09,3.55,1.23,5.33C114.58,139.84,114.63,140.34,114.63,140.57z M109.91,151.98c0.18-1.55,0.3-4.03,0.34-7.45
			c0.04-3.42,0-5.81-0.14-7.18c-0.18-1.64-0.46-2.83-0.82-3.55c-0.27-0.55-0.75-1.12-1.44-1.71l-0.41-0.34l-0.14,0.21
			c-0.41,0.5-0.8,1.5-1.16,3.01c-0.68,2.69-1.09,7.27-1.23,13.74c-0.18,6.75,0.07,12.87,0.75,18.39c0.32,2.46,0.55,3.69,0.68,3.69
			c0.05,0,0.16-0.23,0.34-0.68c0.55-1.14,1.03-2.53,1.44-4.17c0.82-3.23,1.39-7.31,1.71-12.24
			C109.89,152.78,109.91,152.21,109.91,151.98z"/>
		<path class="st3" d="M133.29,159.02c0.91,0.09,1.5,0.32,1.78,0.68c0.04,0.14-0.05,1.53-0.27,4.17c-0.27,2.87-0.68,5.15-1.23,6.84
			c-0.41,1.32-1.07,2.46-1.98,3.42c-1,1.05-2.48,1.62-4.44,1.71c-0.64,0-1.14-0.02-1.5-0.07c-2.32-0.41-3.99-1.48-4.99-3.21
			c-0.41-0.73-0.82-1.69-1.23-2.87c-0.46-1.37-0.73-2.92-0.82-4.65c-0.05-0.82-0.07-3.26-0.07-7.31c0-4.06,0.02-6.74,0.07-8.07
			c0.18-4.47,0.43-7.66,0.75-9.57c0.68-3.78,2.12-6.72,4.31-8.82c1.41-1.32,3.23-2.03,5.47-2.12c1.28-0.09,2.37,0.09,3.28,0.55
			c2.37,1.14,3.28,4.19,2.73,9.16c-0.23,1.87-0.59,3.14-1.09,3.83c-0.23,0.32-0.64,0.5-1.23,0.55c-0.59,0.05-1.02-0.09-1.3-0.41
			c-0.23-0.23-0.27-1.12-0.14-2.67c0.23-2.73,0.23-4.6,0-5.61c-0.14-0.68-0.37-1.25-0.68-1.71c-0.14-0.23-0.34-0.49-0.61-0.79
			c-0.27-0.29-0.43-0.44-0.48-0.44c-0.18,0-0.55,0.39-1.09,1.16c-0.96,1.32-1.65,3.01-2.09,5.06c-0.43,2.05-0.74,5.17-0.92,9.37
			c-0.05,0.82-0.09,3.87-0.14,9.16c-0.05,5.29-0.05,8.32,0,9.09c0.04,1.64,0.34,3.17,0.89,4.58c0.18,0.5,0.42,1.04,0.72,1.61
			c0.29,0.57,0.49,0.86,0.58,0.86c0.05,0,0.22-0.25,0.51-0.75c0.3-0.5,0.54-0.96,0.72-1.37c1.09-2.64,1.62-5.67,1.57-9.09
			c0-0.77,0.02-1.24,0.07-1.4c0.04-0.16,0.2-0.31,0.48-0.44C131.53,159.02,132.33,158.89,133.29,159.02z"/>
		<path class="st3" d="M155.98,140.57c0.04,0.5,0.06,1.72,0.03,3.66c-0.02,1.94-0.06,3.52-0.1,4.75
			c-0.37,6.38-0.66,10.71-0.89,12.99c-0.23,1.96-0.48,3.65-0.75,5.06c-0.37,1.69-0.8,3.05-1.3,4.1c-0.46,0.96-0.96,1.69-1.5,2.19
			c-0.82,0.82-1.8,1.37-2.94,1.64c-0.91,0.18-1.8,0.23-2.67,0.14c-1.64-0.23-2.96-0.82-3.96-1.78c-1.6-1.5-2.6-4.01-3.01-7.52
			c-0.5-3.87-0.62-8.11-0.34-12.71c0.18-3.24,0.48-6.06,0.89-8.48c0.18-1.09,0.3-1.87,0.34-2.32c0.36-2.37,0.87-4.49,1.5-6.36
			c0.5-1.37,1.05-2.48,1.64-3.35c0.45-0.68,1-1.28,1.64-1.78c1-0.82,2.28-1.23,3.83-1.23c1.41,0,2.53,0.39,3.35,1.16
			c0.18,0.18,0.32,0.29,0.41,0.31c0.09,0.02,0.39,0.29,0.89,0.79c0.45,0.46,0.8,0.78,1.03,0.96c0.18,0.14,0.36,0.46,0.55,0.96
			c0.68,1.78,1.09,3.55,1.23,5.33C155.94,139.84,155.98,140.34,155.98,140.57z M151.27,151.98c0.18-1.55,0.3-4.03,0.34-7.45
			c0.04-3.42,0-5.81-0.14-7.18c-0.18-1.64-0.46-2.83-0.82-3.55c-0.27-0.55-0.75-1.12-1.44-1.71l-0.41-0.34l-0.14,0.21
			c-0.41,0.5-0.8,1.5-1.16,3.01c-0.68,2.69-1.09,7.27-1.23,13.74c-0.18,6.75,0.07,12.87,0.75,18.39c0.32,2.46,0.55,3.69,0.68,3.69
			c0.05,0,0.16-0.23,0.34-0.68c0.55-1.14,1.03-2.53,1.44-4.17c0.82-3.23,1.39-7.31,1.71-12.24
			C151.24,152.78,151.27,152.21,151.27,151.98z"/>
		<path class="st3" d="M178.13,173.79c0.18,0.41,0.24,0.73,0.17,0.96s-0.31,0.5-0.72,0.82c-0.64,0.5-1.46,0.75-2.46,0.75
			c-0.87,0-1.71-0.14-2.53-0.41c-0.82-0.27-1.39-0.71-1.71-1.3c-0.27-0.5-0.52-1.23-0.75-2.19l-0.14-0.62l-0.27,0.68
			c-0.77,1.73-1.57,2.85-2.39,3.35c-0.96,0.55-2.05,0.68-3.28,0.41c-1.09-0.23-2.03-0.87-2.8-1.91c-0.59-0.77-1-1.75-1.23-2.94
			c-0.18-1-0.3-2.46-0.34-4.37c-0.05-3.65,0.25-6.61,0.89-8.89c0.5-1.87,1.21-3.26,2.12-4.17c0.55-0.5,1.21-0.89,1.98-1.16
			c1.96-0.64,3.69-0.5,5.2,0.41l0.2,0.14v-0.48c0-2,0.14-5.06,0.41-9.16c0.04-0.73,0.07-2.03,0.07-3.9c0-1.91-0.02-3.17-0.07-3.76
			c-0.27-1.91-0.57-3.23-0.89-3.97c-0.27-0.55-0.5-0.82-0.68-0.82c-0.09,0-0.26,0.15-0.51,0.45c-0.25,0.3-0.45,0.56-0.58,0.79
			c-0.91,1.37-1.57,3.58-1.98,6.63c-0.09,0.77-0.27,2.05-0.55,3.83c-0.18,1.14-0.32,1.96-0.41,2.46c-0.05,0.59-0.12,1.02-0.21,1.3
			c-0.09,0.27-0.22,0.5-0.38,0.68c-0.16,0.18-0.4,0.32-0.72,0.41c-0.27,0.09-0.68,0.16-1.23,0.2c-1.14,0.05-1.89-0.16-2.26-0.61
			l-0.21-0.2l0.07-0.75c0-0.73,0.11-1.85,0.34-3.35c0.23-1.5,0.48-3.01,0.75-4.51c0.27-1.5,0.5-2.6,0.68-3.28
			c0.32-1,0.66-1.89,1.02-2.67c1.05-2.1,2.76-3.39,5.13-3.9c0.36-0.05,0.9-0.07,1.61-0.07s1.24,0.02,1.61,0.07
			c2.14,0.45,3.74,1.46,4.79,3.01c0.73,1.09,1.25,2.67,1.57,4.72c0.18,1.28,0.25,4.69,0.21,10.25c0,5.97-0.07,9.94-0.21,11.9
			c-0.05,0.78-0.07,2.77-0.07,5.98c0,3.21,0,5.05,0,5.5C177.52,171.51,177.77,172.74,178.13,173.79z M170,158.48l0.07-1.09
			l-0.27-0.34c-0.18-0.27-0.43-0.57-0.75-0.89c-0.78-0.77-1.32-1.18-1.64-1.23c-0.23,0-0.52,0.61-0.89,1.85
			c-0.27,0.91-0.48,1.89-0.61,2.94c-0.09,0.59-0.13,1.76-0.1,3.49c0.02,1.73,0.08,3.24,0.17,4.51c0.18,2.73,0.3,4.06,0.34,3.97
			c0.04,0,0.2-0.36,0.48-1.09c0.5-1.37,1.53-4.88,3.08-10.53C169.95,159.68,170,159.16,170,158.48z"/>
	</g>
</g>
</svg>
