<?xml version="1.0" encoding="utf-8"?>
<!-- Generator: Adobe Illustrator 25.2.1, SVG Export Plug-In . SVG Version: 6.00 Build 0)  -->
<svg version="1.1" id="Layer_1" xmlns="http://www.w3.org/2000/svg" xmlns:xlink="http://www.w3.org/1999/xlink" x="0px" y="0px"
	 viewBox="0 0 180 261.6" style="enable-background:new 0 0 180 261.6;" xml:space="preserve">
<style type="text/css">
	.st0{fill:#7D2F51;}
	.st1{fill:#AB466F;}
	.st2{fill:#421210;}
	.st3{opacity:0.38;}
	.st4{fill:#E6E6E5;}
	.st5{fill:#CFD1D2;}
	.st6{fill:#E6E7E8;}
	.st7{opacity:0.25;}
	.st8{fill:#BEC0C2;}
	.st9{fill:#FEF4F5;}
	.st10{fill:#EED4D3;}
	.st11{fill:#F1E8E8;}
	.st12{fill:#E6DEDF;}
	.st13{fill:#602510;}
	.st14{fill:#87481F;}
	.st15{fill:#D1DDDE;}
	.st16{fill:#CED4D6;}
	.st17{fill:#D7DFE2;}
	.st18{fill:#4D2D23;}
	.st19{fill:#F4F9F9;}
	.st20{fill:#7FA652;}
	.st21{opacity:0.5;}
	.st22{fill:#E4F1F1;}
	.st23{fill:#171818;}
	.st24{fill:#FCB977;stroke:#FCB977;stroke-miterlimit:10;}
	.st25{fill:#FCB977;}
	.st26{fill:#FED2A9;}
	.st27{fill:#D28C4B;}
</style>
<g>
	<g>
		<path class="st5" d="M74.6,231.3c8.3-2.2,18.7-3.6,29.9-3.6s21.7,1.3,29.9,3.6h18.8v13.4c0,9.4-21.8,16.9-48.8,16.9
			c-26.9,0-48.8-7.6-48.8-16.9v-13.4H74.6z"/>
	</g>
	<g>
		<path class="st6" d="M44.4,116.6h60.1h60.1l13.5,54.9c10,40.6-20.8,79.8-62.6,79.8h-10.9H93.6c-41.8,0-72.6-39.2-62.6-79.8
			L44.4,116.6z"/>
	</g>
	<g class="st7">
		<path class="st8" d="M31,171.5l13.5-54.9h11.2l-5.9,23.9c-11.3,46,9.3,96.3,63.6,97.5c40.9,1,64.5-34.6,64.5-34.6
			c-7.3,27-31.9,47.9-62.3,47.9h-10.9H93.6C51.8,251.3,21,212.1,31,171.5z"/>
	</g>
	<g>
		<ellipse class="st5" cx="104.5" cy="117.9" rx="60.1" ry="17.5"/>
	</g>
	<g>
		<ellipse class="st6" cx="104.5" cy="117.9" rx="53.6" ry="14.5"/>
	</g>
	<g>
		<path class="st2" d="M51.4,119.8c3.5-5.4,26-9.6,53.2-9.6c27.2,0,49.6,4.2,53.2,9.6c-3.5,7.1-26,12.5-53.2,12.5
			C77.4,132.3,54.9,126.9,51.4,119.8z"/>
	</g>
	<g>
		<path class="st9" d="M125.8,126c-1-0.8-2.7-2.1-4.8-1.7s-3.4,2.2-3.5,3.6c-0.1,1.5,6.3,2.5,8.7,1.5
			C128.6,128.4,126.5,126.5,125.8,126z"/>
	</g>
	<g>
		<path class="st10" d="M94.1,110.7c-2-1.7-5.9-4.8-10.7-3.3c-4.8,1.5-8.1,5.9-8.5,11c-0.4,5.1,6.4,5.9,10.8,6.4
			c4.4,0.5,13,1.1,13.4-1.7C99.9,117.6,96.9,113.1,94.1,110.7z"/>
	</g>
	<g>
		<path class="st5" d="M34.7,212.2c-0.4-0.1-9.1-3.2-17.6-10.3C5.4,192-0.5,179.3,0,165c0.8-19.2,10.6-28.8,18.8-33.6
			c9-5.2,18.2-6.1,21.7-6.4c0.2,0,0.3,0,0.4,0c3.7-0.7,7.3,1.5,8.5,5.1c1.2,4-1,8.2-4.9,9.4c-0.9,0.3-1.7,0.4-2.7,0.4
			c-17.4,1.5-26.2,9.9-26.8,25.6c-0.4,9.5,3.4,17.7,11.4,24.5c6.4,5.5,13.2,7.9,13.2,8c3.9,1.4,6,5.6,4.6,9.6c-1.1,3.1-4,5-7.1,5
			C36.3,212.6,35.5,212.5,34.7,212.2z M40.1,125.2C40.1,125.2,40.1,125.2,40.1,125.2C40.1,125.2,40.1,125.2,40.1,125.2z M40.1,125.2
			C40.1,125.2,40.1,125.2,40.1,125.2C40.1,125.2,40.1,125.2,40.1,125.2z"/>
	</g>
	<g>
		<path class="st11" d="M113.1,124.1C113.1,124.1,113.1,124.1,113.1,124.1c-0.2-0.2-0.4-0.4-0.6-0.7c-1.1-1.3-2.6-2.5-4.3-3.6
			c-1-0.6-2.1-1.2-3.2-1.5c-1.1-0.4-2.3-0.6-3.4-0.7c-1.2,0-2.3,0.1-3.4,0.6c-0.7,0.3-1.4,0.7-2.1,1.3c-0.5,0.4-0.9,0.8-1.3,1.2
			c-0.1,0.1-0.2,0.3-0.4,0.4c-0.1,0.2-0.3,0.3-0.4,0.5c0,0,0,0,0,0c-2,2.8-1.7,5.1-1.7,5.1s2.2,4.4,13.4,4.1
			C116.3,130.5,116.2,127.9,113.1,124.1z"/>
	</g>
	<g>
		<path class="st9" d="M99.2,121.2c0-0.2,0-0.5-0.1-0.7c0-0.4,0-0.8-0.1-1.2c-0.1-0.3-0.1-0.6-0.2-0.9c-0.1-0.3-0.1-0.6-0.2-0.9
			c-0.1-0.3-0.2-0.6-0.4-0.9c-0.1-0.2-0.2-0.5-0.3-0.7c0,0,0,0,0,0c-0.6-1.3-1.3-2.4-2.1-3.3c0,0,0,0,0,0c-0.2-0.2-0.3-0.3-0.5-0.5
			c-0.1-0.1-0.2-0.2-0.3-0.4c-0.3-0.3-0.6-0.6-1-0.9c-2-1.7-5.9-4.8-10.7-3.3c-0.6,0.2-1.2,0.4-1.7,0.7c-0.3,0.2-0.6,0.4-0.9,0.6
			c-0.2,0.1-0.4,0.2-0.6,0.4c0,0,0,0,0,0c-1,0.7-2,1.6-2.7,2.7c0,0,0,0,0,0c-0.1,0.1-0.2,0.3-0.3,0.5c-0.2,0.3-0.5,0.7-0.6,1
			c-0.1,0.2-0.2,0.4-0.3,0.6c-0.2,0.4-0.3,0.7-0.5,1.1c-0.1,0.3-0.2,0.6-0.2,0.8c-0.1,0.3-0.2,0.6-0.3,0.9c-0.1,0.6-0.2,1.2-0.3,1.9
			c-0.4,5.1,6.4,5.9,10.8,6.4c2.2,0.2,5.5,0.5,8.2,0.4c0.7,0,1.3-0.1,1.9-0.2c0.3,0,0.6-0.1,0.9-0.2c1.3-0.3,2.3-0.8,2.4-1.7
			c0,0,0,0,0,0C99.2,122.5,99.2,121.8,99.2,121.2z"/>
	</g>
	<g>
		<path class="st12" d="M145.5,119.9c0.1-0.6,0.1-1.3-0.1-2c0-0.1,0-0.1,0-0.2c-0.1-0.3-0.1-0.5-0.2-0.8c0-0.1-0.1-0.2-0.1-0.3
			c-0.1-0.2-0.2-0.5-0.3-0.7c-0.1-0.1-0.1-0.2-0.2-0.4c-0.1-0.2-0.2-0.4-0.4-0.6c-0.1-0.1-0.2-0.3-0.3-0.4c-0.1-0.2-0.3-0.4-0.5-0.6
			c-0.1-0.1-0.2-0.2-0.3-0.4c-0.2-0.2-0.4-0.4-0.6-0.6c-0.1-0.1-0.2-0.2-0.3-0.3c-0.3-0.3-0.7-0.6-1.1-0.9c0,0,0,0,0,0c0,0,0,0,0,0
			c-0.6-0.4-1.3-0.9-1.9-1.3c-0.1,0-0.1-0.1-0.2-0.1c-0.7-0.4-1.3-0.8-2-1.2c-0.1,0-0.2-0.1-0.3-0.1c-0.7-0.4-1.4-0.7-2.1-1
			c-0.1,0-0.2-0.1-0.3-0.1c-0.7-0.3-1.4-0.5-2.1-0.7c-0.1,0-0.1,0-0.2-0.1c0,0,0,0,0,0c-0.2-0.1-0.4-0.1-0.6-0.2c0,0,0,0,0,0
			c0,0,0,0,0,0c-0.3-0.1-0.7-0.1-1-0.2c-0.1,0-0.2,0-0.2-0.1c-0.3-0.1-0.7-0.1-1-0.1c-0.1,0-0.2,0-0.2,0c-0.3,0-0.6,0-0.9,0
			c-0.1,0-0.2,0-0.3,0c-0.3,0-0.6,0-0.8,0.1c-0.1,0-0.2,0-0.3,0c-0.3,0-0.5,0.1-0.8,0.2c-0.1,0-0.2,0-0.3,0.1
			c-0.2,0.1-0.5,0.2-0.7,0.3c-0.1,0.1-0.2,0.1-0.3,0.1c-0.3,0.1-0.5,0.3-0.8,0.5c-0.1,0-0.1,0.1-0.2,0.1c-0.3,0.2-0.6,0.5-0.9,0.8
			c-4.4,4.7-6.4,12-1.6,13.1c0,0,0,0,0.1,0c0,0,0.1,0,0.1,0c0.1,0,0.2,0,0.3,0.1c0.1,0,0.1,0,0.2,0c0.2,0,0.4,0.1,0.6,0.1
			c0.1,0,0.1,0,0.2,0c0.2,0,0.4,0.1,0.6,0.1c0.1,0,0.2,0,0.3,0.1c0.3,0.1,0.6,0.1,0.9,0.2c0,0,0.1,0,0.1,0c0.3,0.1,0.6,0.1,0.9,0.2
			c0,0,0,0,0,0c4.6,0.9,11.6,2,15.7,1.2C143.8,123.4,145.2,121.9,145.5,119.9C145.5,119.9,145.5,119.9,145.5,119.9
			C145.5,119.9,145.5,119.9,145.5,119.9z"/>
	</g>
	<g>
		<g>
			<g>
				<path class="st2" d="M111.6,89.4c0,0,8.7-21.2-11-23.5C76.8,63.1,74,31,106.3,29.5c39.4-1.8,29-26.3,24.5-29.5
					c0,0,19.7,7.9,20.8,26.9c1.3,22.2-42.8,15.4-36.8,28.9C118.3,63.4,128,74.6,111.6,89.4z"/>
			</g>
		</g>
		<g>
			<path class="st2" d="M101.6,88.3c0,0,5.9-14.5-7.4-16.2c-13.8-1.8-13.8-10.7-13.8-10.7s-7.8,16.1,10.2,18.1
				C98.4,80.3,101.6,88.3,101.6,88.3z"/>
		</g>
		<g>
			<path class="st2" d="M116.8,91.9c0,0,12.4-8.6,11.9-16.3c-0.8-10.7-5.2-11.2-3.1-17.1c2.1-5.9,20.5-9.8,20.5-9.8
				s-16.2,10.1-11.8,18.4C136.5,71.3,146.8,83.7,116.8,91.9z"/>
		</g>
	</g>
</g>
</svg>
