<?xml version="1.0" encoding="utf-8"?>
<!-- Generator: Adobe Illustrator 25.2.1, SVG Export Plug-In . SVG Version: 6.00 Build 0)  -->
<svg version="1.1" id="Layer_1" xmlns="http://www.w3.org/2000/svg" xmlns:xlink="http://www.w3.org/1999/xlink" x="0px" y="0px"
	 viewBox="0 0 180 184.2" style="enable-background:new 0 0 180 184.2;" xml:space="preserve">
<style type="text/css">
	.st0{fill:#7D2F51;}
	.st1{fill:#AB466F;}
	.st2{fill:#421210;}
	.st3{opacity:0.38;}
	.st4{fill:#E6E6E5;}
	.st5{fill:#CFD1D2;}
	.st6{fill:#E6E7E8;}
	.st7{opacity:0.25;}
	.st8{fill:#BEC0C2;}
	.st9{fill:#FEF4F5;}
	.st10{fill:#EED4D3;}
	.st11{fill:#F1E8E8;}
	.st12{fill:#E6DEDF;}
	.st13{fill:#602510;}
	.st14{fill:#87481F;}
	.st15{fill:#D1DDDE;}
	.st16{fill:#CED4D6;}
	.st17{fill:#D7DFE2;}
	.st18{fill:#4D2D23;}
	.st19{fill:#F4F9F9;}
	.st20{fill:#7FA652;}
	.st21{opacity:0.5;}
	.st22{fill:#E4F1F1;}
	.st23{fill:#171818;}
	.st24{fill:#FCB977;stroke:#FCB977;stroke-miterlimit:10;}
	.st25{fill:#FCB977;}
	.st26{fill:#FED2A9;}
	.st27{fill:#D28C4B;}
</style>
<g>
	<path class="st20" d="M169.1,5.2c-0.9-1.9-2-3.9-3.9-4.7c-3.8-1.7-7.6,1.9-10.4,5c-9.5,10.2-21.7,17.4-33.4,24.7
		C109.8,37.3,98.3,45,90,55.9c-4.6,6-8.4,12.7-11.2,19.8c-1.3-2.2-3.1-3.9-5.1-5.5C56.8,56.8,33,55.4,15.2,43.4
		c-1.4-1-2.9-2-4.6-2.3c-6.7-1.1-8.7,13.2-9.5,17.6c-1.4,7.9-1.4,16,0,23.9c2.3,13.3,8.4,25.8,17,36.1
		c10.3,12.3,24.5,21.8,40.4,24.2c3.1,0.5,6.3,0.6,9.3-0.5c2.9-1.1,5.4-3.6,5.6-6.7c0,0,0-0.1,0-0.1c-10.2-0.9-20.3-3.1-29.6-7.2
		c-9.3-4.2-17.8-10.4-23.9-18.6C9.3,95.5,6.7,76.3,11,59.1c0.4-1.4,0.8-3,2-3.9c1.8-1.3,4.2-0.6,6.3,0.1
		c19.8,7.1,39.9,14.4,57.3,26.1c-1.8,5.6-3,11.4-3.7,17.3c-0.4,4.1-0.6,8.2,0.7,12.1c1.7,5.5,5.9,9.9,8.7,14.9
		c9.3,17.4-0.4,39.7,6.3,58.4c6.4-24.3,6.6-50.8,19.7-72.2c9.7-15.9,26.4-27.5,44.7-31.1c-2-3.6-7-3.7-11-2.7
		c-3.9,1-8.1,2.7-11.9,1.2c1.7-6.7,6.3-12.2,10.2-18c3.8-5.8,7-12.7,5.5-19.5C133,60,120.1,78,107.3,96.1
		c-2.7-6.8-5.4-13.7-8.1-20.5c-2.7,8.7-0.1,18,0.8,27.1c0.9,9.1-0.6,19.8-8.5,24.4c-7.7-12.3-11.4-27.5-8.4-41.7
		c3.8-17.9,17.4-32.1,32.3-42.7s31.5-18.7,45.6-30.4c14.3,22.8,14.8,53,3,77.1s-35.2,41.8-61.2,48.5c0,0.2,0.1,0.3,0.1,0.5
		c0.8,2.7,3.5,4.5,6.3,5c3,0.5,6-0.3,8.8-1.3c26.1-8.7,47.2-30.5,56.3-56.5C183.6,59.5,181.1,29.9,169.1,5.2z"/>
	<path class="st20" d="M64,108.2c-5.3-8.6-20.7-20.6-37-32.3C41.7,88.8,56.4,101.6,64,108.2z"/>
</g>
</svg>
