<?xml version="1.0" encoding="utf-8"?>
<!-- Generator: Adobe Illustrator 23.0.1, SVG Export Plug-In . SVG Version: 6.00 Build 0)  -->
<svg version="1.1" id="Layer_1" xmlns="http://www.w3.org/2000/svg" xmlns:xlink="http://www.w3.org/1999/xlink" x="0px" y="0px"
	 viewBox="0 0 180 297.16" style="enable-background:new 0 0 180 297.16;" xml:space="preserve">
<style type="text/css">
	.st0{fill:#923064;}
	.st1{fill:#F79962;}
	.st2{fill:#B2515E;}
	.st3{fill:#A8DCD8;}
	.st4{fill:#FFFFFF;}
</style>
<g>
	<path class="st1" d="M156.22,173.81c-5.08-3.79-10.56-7.04-15.87-10.51c-6.95-4.54-11.26-10.59-12.61-19.06
		c-1.54-9.7-3.61-19.35-7.71-28.42c-5.55-12.29-14.6-19.51-28.41-19.79c-4.82-0.1-9.63,0.43-14.31,1.79
		c-2.49,0.73-4.59,0.83-5.84-2.21C61.15,70.41,43.05,48.6,39.25,20.49c-0.62-4.57-0.05-6.19,4.19-5.93
		c2.09,0.13,3.44-0.22,4.02-2.22c0.4-1.38-0.03-2.68-1.31-3.42c-1.94-1.12-3.21-0.14-4.37,1.49c-1.13,1.58-2.84,3.06-4.72,1.88
		c-1.04-0.65-1.81-2.74-1.65-4.05c0.24-1.98,2.27-2.37,4.05-2.25c1.86,0.12,3.66,0.22,4.12-2.09c0.26-1.29,0.13-2.74-1.38-3.31
		c-1.84-0.69-3.15-0.14-4.47,1.53c-2,2.52-4.06,3.22-6.96,0.27c-3.82-3.89-8.68-2.3-12.9-0.37c-4.36,1.99-9.22,4.3-8.88,10.15
		C9.25,16.3,7.88,17.92,4,17.7c-2.02-0.11-3.46,0.52-3.93,2.56c-0.34,1.48,0.52,2.52,1.74,3.22c2.16,1.24,3.24-0.4,4.29-1.77
		c1.12-1.45,2.57-2.82,4.26-2.02c1.53,0.73,2.51,2.89,2.12,4.47c-0.46,1.82-2.57,2.16-4.38,1.89c-2.07-0.3-3.45,0.44-4.07,2.36
		c-0.46,1.42,0.19,2.61,1.44,3.34c1.95,1.13,3.18,0.04,4.46-1.4c1.48-1.66,3.99-4.64,5.49-1.79c4.14,7.87,12.29,12.34,15.57,21.17
		c6.08,16.37,13.24,32.38,20.75,48.17c3.15,6.62,2.57,9.83-3.62,14.41c-17.6,13.03-19.98,28.67-8.07,46.93
		c3.7,5.67,7.83,11.23,12.62,15.98c8.47,8.41,10.86,18.03,8.54,29.46c-1.13,5.57-1.42,11.31-2.08,16.97
		c-0.18,4.25,0.68,8.39,1.56,12.44c4.34,20.04,14.55,35.18,35.58,40.46c12.96,3.25,25.78,1.63,38.07-3.18
		c4.31-1.69,5.91-0.66,7.59,3.24c2.84,6.62,6.24,13.01,9.42,19.49c0.71,1.44,0.87,3.97,3.4,2.72c2.3-1.13,0.88-3,0.21-4.52
		c-3.02-6.79-5.83-13.69-9.24-20.28c-1.85-3.58-1.04-4.92,2.28-6.81c11.25-6.39,20.55-14.96,26.73-26.52
		C186.16,217.27,178.58,190.52,156.22,173.81z M94.32,238.26c-0.81,0.89-2.15,1.04-3.36,1c-4.39-0.14-8.71-2.01-11.83-5.11
		c-1.14-1.13-2.17-2.81-1.46-4.25c0.48-0.97,1.7-1.46,2.76-1.24c1.06,0.23,1.93,1.07,2.35,2.07c0.37,0.89,0.48,1.96,1.21,2.58
		c1.09,0.92,2.91,0.1,3.49-1.2c0.58-1.31,0.27-2.82-0.12-4.19c-3.41-12.01-12.52-22.03-14.59-34.33
		c-0.83-4.95-0.42-14.33,7.07-11.73c1.9,0.66,3.48,2,4.89,3.43c1.26,1.28,2.49,2.78,2.65,4.57c0.16,1.79-1.24,3.8-3.02,3.62
		c-3.11-0.32-2.89-5.65-5.72-6.94c-0.02-0.01-0.05-0.02-0.07-0.03c-1.14,5.59,0.49,11.41,2.97,16.55c2.48,5.14,5.79,9.85,8.31,14.97
		c2.54,5.15,4.26,10.7,5.08,16.39C95.13,235.75,95.22,237.26,94.32,238.26z M37.24,35.96c1.15,0.98,2.27,2.46,3.21,4.47
		c33.68,72.03,67.35,144.07,101.03,216.1c0.87,1.87,1.77,3.82,1.78,5.88c0.01,2.07-1.13,4.29-3.12,4.85
		c-3.24,0.92-5.8-2.7-7.22-5.75C99.18,189.11,65.43,116.7,31.69,44.28C27.75,35.83,32.71,32.09,37.24,35.96z M155.27,204.78
		c-0.16,1.6-0.34,3.25-1.05,4.69c-0.71,1.45-2.08,2.68-3.69,2.76c-1.88,0.1-3.46-1.32-4.72-2.71c-5.25-5.83-8.89-12.93-11.94-20.16
		c-2.4-5.68-4.56-11.65-8.73-16.19c-1.36-1.48-8.06-5.51-5.25-0.69c0.97,1.65,2.14,3.22,1.41,4.87c-0.81,1.83-3.62,1.91-5.12,0.6
		c-1.51-1.31-2-3.43-2.26-5.41c-0.65-5.03,1.73-11.36,8.01-9.18c2.22,0.77,4,2.46,5.54,4.24c7.27,8.36,10.83,19.19,15.5,29.24
		c1.03,2.22,2.25,4.54,4.42,5.68c1.73,0.91,3.83,0.88,5.72,0.39c0.55-0.14,1.17-0.31,1.65,0
		C155.35,203.27,155.34,204.1,155.27,204.78z"/>
	<g>
		<path d="M143.2,260.04c-0.42,0-0.82-0.22-1.04-0.61c-0.33-0.57-0.13-1.31,0.45-1.63c11.77-6.68,20.6-15.44,26.27-26.05
			c11.19-20.95,3.73-47-18.16-63.36c-3.54-2.65-7.37-5.07-11.07-7.42c-1.59-1.01-3.17-2.02-4.75-3.04
			c-7.49-4.91-11.79-11.41-13.13-19.88c-1.36-8.57-3.32-18.61-7.62-28.12c-5.68-12.59-14.63-18.83-27.34-19.08
			c-4.94-0.08-9.64,0.49-13.95,1.75c-0.65,0.17-1.3-0.18-1.48-0.82c-0.18-0.63,0.18-1.3,0.82-1.48c4.54-1.32,9.44-1.95,14.66-1.84
			c13.54,0.27,23.46,7.16,29.48,20.49c4.41,9.77,6.42,20,7.8,28.73c1.25,7.88,5.09,13.67,12.08,18.25c1.57,1.02,3.14,2.02,4.72,3.03
			c3.74,2.37,7.6,4.83,11.22,7.53c22.85,17.08,30.6,44.38,18.84,66.4c-5.88,11.01-15.04,20.09-27.2,27
			C143.6,259.99,143.4,260.04,143.2,260.04z"/>
	</g>
	<g>
		<polygon class="st1" points="136.95,267.55 29.58,37.97 30.12,37.72 137.49,267.29 		"/>
	</g>
	<g>
		<polygon class="st1" points="138.59,267.22 29.1,33.12 29.64,32.87 139.13,266.97 		"/>
	</g>
	<g>
		<polygon class="st1" points="140.19,267.22 30.27,32.21 30.81,31.96 140.73,266.97 		"/>
	</g>
	<g>
		<polygon class="st1" points="141.78,267.22 31.08,30.54 31.62,30.29 142.32,266.97 		"/>
	</g>
	<g>
		<polygon class="st1" points="143.37,267.22 32.99,31.23 33.53,30.98 143.91,266.97 		"/>
	</g>
	<g>
		<polygon class="st1" points="144.96,267.22 35.81,33.85 36.35,33.59 145.5,266.97 		"/>
	</g>
</g>
</svg>
