<?xml version="1.0" encoding="utf-8"?>
<!-- Generator: Adobe Illustrator 23.0.1, SVG Export Plug-In . SVG Version: 6.00 Build 0)  -->
<svg version="1.1" id="Layer_1" xmlns="http://www.w3.org/2000/svg" xmlns:xlink="http://www.w3.org/1999/xlink" x="0px" y="0px"
	 viewBox="0 0 180 204.39" style="enable-background:new 0 0 180 204.39;" xml:space="preserve">
<style type="text/css">
	.st0{fill:#923064;}
	.st1{fill:#F79962;}
	.st2{fill:#B2515E;}
	.st3{fill:#A8DCD8;}
	.st4{fill:#FFFFFF;}
</style>
<g>
	<g>
		<path class="st0" d="M145.31,130.85c-0.23-0.85-0.99-1.8-1.28-2.33c-2.4-4.41-4.17-9.13-5.92-13.82
			c-2.28-6.13-4.32-12.35-6.11-18.64c-3.57-12.58-6.14-25.45-7.68-38.44c-0.6-5.13-1.03-10.32-1.35-15.47
			c-0.17-2.65-0.26-5.31-0.24-7.96c0.03-2.45,0.51-5.02,0.19-7.45c-0.04-0.28-0.08-0.56-0.23-0.8c-0.98-1.64-2.2,1.74-2.51,2.29
			c-0.67,1.19-1.26,2.43-2.01,3.58c-1.55,2.37-3.15,4.7-4.82,6.98c-3.3,4.53-6.82,8.88-10.59,13.03C95.22,60.1,86.8,67.6,77.7,74.14
			c-8.97,6.44-18.61,11.95-28.73,16.37c-1.71,0.75-4.37,1.69-6.58,3.01c-3.7,1.63-8.09,3.46-11.41,4.55
			c-0.79,0.12-1.6,0.37-2.39,0.7c0,0,0,0,0,0v0c-1.55,0.65-2.99,1.58-3.88,2.32c-2.84,2.36-4.91,5.91-4.94,9.67
			c-0.06,6.49,0.01,12.98,0.01,19.47c0,8.67-0.02,10.54-5.4,11.08H5.92c-1.63,0-2.94,1.32-2.94,2.94s1.32,2.94,2.94,2.94h102.27
			c1.63,0,2.94-1.32,2.94-2.94s-1.32-2.94-2.94-2.94h-14.8c-0.57-0.23-1.03-0.69-1.3-1.62c-1.13-3.95-4.28-4.27-7.74-4.25
			c-16.03,0.06-32.06-0.11-48.09,0.12c-4.12,0.06-5.34-1.29-5.06-5.22c0.3-4.18,0.19-8.4,0.02-12.59c-0.11-2.68,1.63-3.34,3.31-4.18
			c0.08-0.04,8.97-4.48,21.99-5.61c9.73-0.64,19.53-0.25,29.18,1.15c11.88,1.73,23.55,4.96,34.62,9.6
			c4.43,1.86,8.76,3.94,12.97,6.24c2.12,1.16,4.21,2.36,6.21,3.71c0.76,0.51,4.91,4.34,5.68,3.3
			C145.41,131.65,145.42,131.26,145.31,130.85z"/>
	</g>
	<g>
		<path class="st0" d="M127.27,35.64c0.01-11.26,0.11-19.86,3.26-28.05c3.32-8.61,9.05-9.97,15.74-3.66
			c5.08,4.79,8.61,10.74,11.51,16.98c15.13,32.51,22.8,66.67,22.18,102.58c-0.11,6.49-0.98,12.97-3.8,18.96
			c-3.15,6.7-7.94,7.85-13.74,3.18c-5-4.02-8.31-9.45-11.22-15.05c-12.77-24.53-19.21-50.93-22.66-78.17
			C127.72,45.96,127.09,39.5,127.27,35.64z"/>
	</g>
	<g>
		<path class="st2" d="M3.33,204.39h106.93c1.84,0,3.33-1.49,3.33-3.33v-2.86c0-1.84-1.49-3.33-3.33-3.33H3.33
			c-1.84,0-3.33,1.49-3.33,3.33l0,2.86C0,202.9,1.49,204.39,3.33,204.39z"/>
	</g>
	<g>
		<path class="st1" d="M105.82,156c0.05-3-1.31-3.38-3.81-3.38c-29.99,0.06-59.98,0.1-89.96-0.04c-3.55-0.02-4.02,1.43-3.98,4.4
			c0.14,8.98,0.2,17.96-0.03,26.93c-0.09,3.63,0.83,4.89,4.72,4.83c14.7-0.24,29.41-0.1,44.12-0.09c14.9,0.01,29.8-0.03,44.7,0.04
			c2.52,0.01,4.33,0.04,4.26-3.46C105.63,175.48,105.66,165.74,105.82,156z M83.02,178.8H31.69c-4.29,0-7.77-3.48-7.77-7.77
			s3.48-7.77,7.77-7.77h51.33c4.29,0,7.77,3.48,7.77,7.77S87.31,178.8,83.02,178.8z"/>
	</g>
	<g>
		<path d="M145.3,140.15c-0.31,0-0.6-0.21-0.69-0.52c-0.13-0.49-0.52-1.08-0.83-1.56c-0.15-0.24-0.29-0.45-0.39-0.63
			c-2.45-4.51-4.24-9.29-5.96-13.92c-2.28-6.11-4.34-12.4-6.13-18.69c-3.58-12.6-6.17-25.57-7.7-38.55c-0.56-4.71-1-9.78-1.36-15.51
			c-0.19-2.96-0.26-5.58-0.24-8.01c0.01-0.9,0.08-1.81,0.15-2.73c0.12-1.54,0.24-3.14,0.05-4.62c-0.02-0.19-0.06-0.4-0.13-0.53
			c0-0.01-0.01-0.01-0.01-0.02c-0.24,0.23-0.58,0.83-1.03,1.81c-0.1,0.22-0.18,0.39-0.23,0.48c-0.22,0.39-0.43,0.79-0.64,1.18
			c-0.43,0.81-0.88,1.64-1.39,2.43c-1.56,2.39-3.19,4.75-4.84,7.01c-3.35,4.61-6.94,9.01-10.64,13.09
			c-7.57,8.32-16.04,15.87-25.18,22.44c-9.07,6.51-18.78,12.05-28.86,16.44c-0.44,0.19-0.94,0.39-1.47,0.61
			c-1.52,0.62-3.42,1.4-5.03,2.35c-3.37,1.49-8.04,3.46-11.55,4.61c-0.8,0.13-1.55,0.35-2.34,0.68c-1.55,0.65-2.93,1.57-3.7,2.21
			c-2.9,2.41-4.65,5.82-4.68,9.12c-0.04,4.27-0.02,8.55-0.01,12.83c0.01,2.21,0.02,4.42,0.02,6.63c0,0.4-0.32,0.71-0.71,0.71
			s-0.71-0.32-0.71-0.71c0-2.21-0.01-4.42-0.02-6.63c-0.02-4.28-0.03-8.56,0.01-12.85c0.03-3.71,1.98-7.53,5.2-10.21
			c1.11-0.92,2.63-1.83,4.06-2.43c0.89-0.37,1.75-0.63,2.56-0.75c3.34-1.11,7.96-3.06,11.23-4.5c1.62-0.97,3.57-1.76,5.14-2.41
			c0.53-0.22,1.01-0.41,1.44-0.6c9.99-4.36,19.61-9.84,28.6-16.29c9.06-6.51,17.45-13.99,24.95-22.24
			c3.67-4.04,7.22-8.4,10.54-12.97c1.63-2.24,3.25-4.58,4.8-6.95c0.48-0.74,0.91-1.55,1.33-2.33c0.22-0.41,0.43-0.81,0.66-1.21
			c0.04-0.07,0.1-0.21,0.18-0.38c0.64-1.4,1.3-2.66,2.31-2.72c0.35-0.02,0.85,0.1,1.26,0.79c0.22,0.36,0.28,0.74,0.32,1.07
			c0.21,1.63,0.09,3.3-0.04,4.91c-0.07,0.89-0.14,1.77-0.15,2.64c-0.03,2.4,0.05,4.99,0.23,7.91c0.36,5.7,0.8,10.75,1.35,15.43
			c1.52,12.91,4.1,25.81,7.65,38.33c1.78,6.26,3.83,12.51,6.09,18.59c1.71,4.58,3.48,9.31,5.88,13.73c0.08,0.15,0.2,0.33,0.33,0.53
			c0.36,0.56,0.82,1.25,1.01,1.96c0.1,0.38-0.12,0.77-0.5,0.88C145.43,140.14,145.37,140.15,145.3,140.15z"/>
	</g>
</g>
</svg>
