<?xml version="1.0" encoding="utf-8"?>
<!-- Generator: Adobe Illustrator 23.0.1, SVG Export Plug-In . SVG Version: 6.00 Build 0)  -->
<svg version="1.1" id="Layer_1" xmlns="http://www.w3.org/2000/svg" xmlns:xlink="http://www.w3.org/1999/xlink" x="0px" y="0px"
	 viewBox="0 0 180 89.65" style="enable-background:new 0 0 180 89.65;" xml:space="preserve">
<style type="text/css">
	.st0{fill:#923064;}
	.st1{fill:#F79962;}
	.st2{fill:#B2515E;}
	.st3{fill:#A8DCD8;}
	.st4{fill:#FFFFFF;}
</style>
<g>
	<g>
		<path class="st0" d="M89.21,50.81c-21.46-0.63-43.78-1.8-65.4-8.43c-5.05-1.55-9.95-3.48-14.39-6.4
			c-9.46-6.22-9.59-14.82-0.15-21.04C18.1,9.14,28.21,6.58,38.43,4.78c38.25-6.75,76.39-6.76,114.28,2.6
			c5.47,1.35,10.73,3.33,15.65,6.09c4.73,2.66,9.3,5.84,9.36,11.83c0.05,6-4.43,9.27-9.18,11.92c-9.02,5.05-18.95,7.4-28.97,9.26
			C123.24,49.52,106.71,50.52,89.21,50.81z M92.09,5.3C71.84,5.44,53.6,6.73,35.65,10.68c-8.91,1.96-17.83,4.17-25.31,9.8
			c-4.34,3.27-4.27,6.46-0.02,9.85c3.33,2.66,7.19,4.34,11.18,5.75c12,4.25,24.43,6.28,37.05,7.61c30.16,3.18,60.1,2.35,89.73-4.51
			c7.53-1.74,14.96-3.95,21.26-8.7c4.59-3.46,4.54-6.59-0.02-10.15c-4.06-3.18-8.81-5.02-13.67-6.55
			C134.46,7.06,112.37,5.76,92.09,5.3z"/>
	</g>
	<g>
		<path class="st0" d="M179.17,45.87c0-4.27-4.75-6.9-8.31-4.55c-3.05,2-6.71,3.62-11.6,5.31c-16.61,5.71-33.85,7.85-51.27,8.9
			c-27.58,1.68-54.94,0.18-81.69-7.13c-5.81-1.59-11.65-3.39-16.89-6.86c-3.62-2.4-8.44,0.16-8.42,4.51
			C1.01,51.49,1,56.72,0.84,61.95c-0.15,4.98,1.91,8.37,5.71,11.15c6.64,4.87,14.29,7.45,22.11,9.48
			c28.28,7.35,57.1,8.19,86.02,6.04c16.64-1.24,33.19-3.68,48.83-10.11c13.83-5.69,15.63-8.36,15.66-23.07
			C179.17,52.28,179.17,49.13,179.17,45.87z M25,65.93c-0.58,1.63-2.4,0.87-3.92,1.09c-6.2-0.99-11.86-3.52-16.63-7.92
			c-1-0.92-2.32-2.08-1.28-3.55c0.8-1.13,2.37-0.66,3.45-0.27c5.58,2.05,11,4.51,16.13,7.53C23.86,63.47,25.59,64.28,25,65.93z
			 M61.38,72.43c-0.28,1.56-1.99,1.73-3.42,1.81c-1.58,0.08-3.16,0.17-4.73,0.26c-5.35-0.22-10.44-1.35-15.08-4.06
			c-0.97-0.57-2.32-1.37-1.73-2.87c0.58-1.47,2.12-1,3.25-1c6.36,0.01,12.52,1.38,18.6,3.08C59.72,70.06,61.76,70.3,61.38,72.43z
			 M101.43,75.26c-0.05,0.02-0.1,0.04-0.15,0.06c-6.88,2.57-14.65,2.68-21.61,0.31c-3.14-1.07-4.02-4.16-0.07-4.58
			c7.02-0.74,14.13-0.72,21.15,0.06c1.17,0.13,2.61,0.53,2.82,1.69C103.78,73.96,102.55,74.81,101.43,75.26z M142.09,70.18
			c-5.7,3.83-13.04,4.25-19.93,4.12c-0.74-0.01-1.5-0.04-2.17-0.33c-3.46-1.48,0.99-4.05,2.59-4.54c6.03-1.82,12.31-2.79,18.61-2.88
			c1-0.01,2.26,0.17,2.55,1.13c0.27,0.89-0.53,1.72-1.29,2.25C142.32,70.02,142.21,70.1,142.09,70.18z M175.63,59.06
			c-4.76,4.39-10.42,6.92-16.49,7.94c-1.64-0.16-3.42,0.55-4.08-0.97c-0.73-1.67,1.03-2.48,2.13-3.13
			c5.11-3.04,10.49-5.55,16.09-7.54c1.18-0.42,2.86-1.16,3.7,0.54C177.61,57.2,176.52,58.24,175.63,59.06z"/>
	</g>
	<g>
		<path d="M88.1,85.86c-21.91,0-41.28-2.33-59.66-7.11c-7.11-1.85-15.34-4.44-22.39-9.61C1.78,66-0.14,62.24,0.01,57.29
			c0.01-0.45,0.39-0.81,0.84-0.81c0.01,0,0.02,0,0.03,0c0.46,0.01,0.82,0.4,0.81,0.86c-0.14,4.41,1.52,7.63,5.37,10.45
			c6.83,5.01,14.86,7.53,21.82,9.34c25.29,6.58,52.54,8.49,85.75,6.02c13.72-1.02,31.64-3.08,48.57-10.05
			c13.56-5.58,15.12-7.87,15.14-22.3c0-0.46,0.38-0.84,0.84-0.84h0c0.46,0,0.84,0.38,0.84,0.84c-0.02,15.11-1.99,18.01-16.17,23.84
			c-17.15,7.06-35.24,9.14-49.08,10.17C105.43,85.51,96.58,85.86,88.1,85.86z"/>
	</g>
	<g>
		<path class="st1" d="M92.09,5.3c20.28,0.47,42.36,1.76,63.75,8.47c4.86,1.53,9.61,3.37,13.67,6.55c4.55,3.56,4.6,6.69,0.02,10.15
			c-6.3,4.76-13.73,6.96-21.26,8.7c-29.63,6.86-59.57,7.7-89.73,4.51c-12.62-1.33-25.05-3.36-37.05-7.61
			c-3.99-1.41-7.85-3.09-11.18-5.75c-4.25-3.39-4.32-6.58,0.02-9.85c7.49-5.63,16.4-7.84,25.31-9.8C53.6,6.73,71.84,5.44,92.09,5.3z
			"/>
	</g>
</g>
</svg>
