<?xml version="1.0" encoding="utf-8"?>
<!-- Generator: Adobe Illustrator 23.0.1, SVG Export Plug-In . SVG Version: 6.00 Build 0)  -->
<svg version="1.1" id="Layer_1" xmlns="http://www.w3.org/2000/svg" xmlns:xlink="http://www.w3.org/1999/xlink" x="0px" y="0px"
	 viewBox="0 0 180 452.14" style="enable-background:new 0 0 180 452.14;" xml:space="preserve">
<style type="text/css">
	.st0{fill:#923064;}
	.st1{fill:#F79962;}
	.st2{fill:#B2515E;}
	.st3{fill:#A8DCD8;}
	.st4{fill:#FFFFFF;}
</style>
<g>
	<g>
		<path class="st3" d="M163.14,333.93c-15.9-19.15-19.82-43.68-11.55-68.35c12.55-37.48-2.52-65.63-40.9-74.56
			c-5.64-1.31-7.62-3.32-7.54-9c0.38-28.65,0.28-57.26-1.61-85.87c-0.91-13.74-4.02-29.55,0.64-42.95c0.98-4.02,0.63-7.4,6.25-4.32
			c2.23,1.22,4.66-0.2,5.05-3c0.46-3.28-1.65-5.45-4.6-4.73c-3.16,0.78-5.69,2.63-5.5-2.76c0.15-4.21,1.53-5.08,5.5-3.25
			c2.98,1.37,5.41-0.61,5.43-3.68c0.02-3.17-2.43-4.93-5.45-3.59c-4.35,1.93-5.1,0.33-4.94-3.66c0.19-4.7,2.42-4.76,5.74-2.98
			c2.6,1.4,4.56,0.33,5.75-1.87c0.51-0.94,0.27-2.73-0.31-3.72c-1.42-2.41-3.63-2.55-5.9-1.1c-3.55,2.26-4.42,0.42-4.96-2.86
			C103.01,4.18,98.1,1.55,90.87,1.47C83.52,1.4,77.77,3.34,75.9,11.2c-0.68,2.87-1.25,5.5-4.91,3.93c-3.01-1.29-5.73-2.19-7.58,1.32
			c-0.46,0.88-0.15,2.63,0.46,3.53c1.96,2.9,4.39,1.78,6.93,0.56c1.8-0.87,4.27-1.22,4.96,1.21c0.59,2.08,0.58,4.7-0.19,6.69
			c-0.78,2.03-2.78,0.74-4.15-0.06c-2.26-1.32-4.42-1.5-6.16,0.68c-1.08,1.35-1.33,3.02-0.19,4.55c1.68,2.24,3.71,2.3,6.06,0.98
			c2.16-1.21,4.58-1.91,5.58,1.25c0.55,1.75,0.82,4.1,0.09,5.64c-1.11,2.33-3.29,1.26-5.04,0.22c-2.48-1.49-4.52-0.79-5.75,1.59
			c-0.51,1-0.56,2.72-0.03,3.69c1.33,2.45,3.54,2.54,5.93,1.38c2.45-1.2,5.86-2.57,5.84,1.61c-0.04,6.37,3.38,11.84,3.1,18.33
			c-1.56,37.18-2.78,74.38-3.78,111.59c-0.19,6.97-2.1,9.89-9.59,11.55c-33.84,7.53-51.76,35.82-40.99,67.33
			c10.42,30.48,4.15,56.7-13.53,81.93C-7.66,370.17-3.46,405.01,24,428.31c26.84,22.78,58.25,28.4,91.8,20.39
			C176.1,434.3,198.51,376.53,163.14,333.93z M90.03,298.95c11.64-0.04,21.47,9.56,21.7,21.2c0.24,11.91-9.97,22.4-21.73,22.32
			c-11.88-0.08-22.05-10.51-21.8-22.36C68.45,308.62,78.39,298.98,90.03,298.95z M118.75,392.88c-19.34,0.04-38.67,0.05-58.01,0
			c-3.22-0.01-6.18-1.12-5.9-4.94c0.24-3.21,3.1-3.89,5.88-3.9c9.83-0.04,19.66-0.01,29.5-0.01c9.5,0,19.01-0.04,28.51,0.03
			c3.01,0.02,6.4,0.3,6.36,4.33C125.06,392.24,121.86,392.87,118.75,392.88z"/>
	</g>
	<g>
		<path class="st2" d="M163.14,333.93c-15.9-19.15-19.82-43.68-11.55-68.35c12.55-37.48-2.52-65.63-40.9-74.56
			c-5.64-1.31-7.62-3.32-7.54-9c0.38-28.65,0.28-57.26-1.61-85.87c-0.91-13.74-4.02-29.55,0.64-42.95c0.98-4.02,0.63-7.4,6.25-4.32
			c2.23,1.22,4.66-0.2,5.05-3c0.46-3.28-1.65-5.45-4.6-4.73c-3.16,0.78-5.69,2.63-5.5-2.76c0.15-4.21,1.53-5.08,5.5-3.25
			c2.98,1.37,5.41-0.61,5.43-3.68c0.02-3.17-2.43-4.93-5.45-3.59c-4.35,1.93-5.1,0.33-4.94-3.66c0.19-4.7,2.42-4.76,5.74-2.98
			c2.6,1.4,4.56,0.33,5.75-1.87c0.51-0.94,0.27-2.73-0.31-3.72c-1.42-2.41-3.63-2.55-5.9-1.1c-3.55,2.26-4.42,0.42-4.96-2.86
			C103.01,4.18,98.1,1.55,90.87,1.47C83.52,1.4,77.77,3.34,75.9,11.2c-0.68,2.87-1.25,5.5-4.91,3.93c-3.01-1.29-5.73-2.19-7.58,1.32
			c-0.46,0.88-0.15,2.63,0.46,3.53c1.96,2.9,4.39,1.78,6.93,0.56c1.8-0.87,4.27-1.22,4.96,1.21c0.59,2.08,0.58,4.7-0.19,6.69
			c-0.78,2.03-2.78,0.74-4.15-0.06c-2.26-1.32-4.42-1.5-6.16,0.68c-1.08,1.35-1.33,3.02-0.19,4.55c1.68,2.24,3.71,2.3,6.06,0.98
			c2.16-1.21,4.58-1.91,5.58,1.25c0.55,1.75,0.82,4.1,0.09,5.64c-1.11,2.33-3.29,1.26-5.04,0.22c-2.48-1.49-4.52-0.79-5.75,1.59
			c-0.51,1-0.56,2.72-0.03,3.69c1.33,2.45,3.54,2.54,5.93,1.38c2.45-1.2,5.86-2.57,5.84,1.61c-0.04,6.37,3.38,11.84,3.1,18.33
			c-1.56,37.18-2.78,74.38-3.78,111.59c-0.19,6.97-2.1,9.89-9.59,11.55c-33.84,7.53-51.76,35.82-40.99,67.33
			c10.42,30.48,4.15,56.7-13.53,81.93C-7.66,370.17-3.46,405.01,24,428.31c26.84,22.78,58.25,28.4,91.8,20.39
			C176.1,434.3,198.51,376.53,163.14,333.93z M90.03,298.95c11.64-0.04,21.47,9.56,21.7,21.2c0.24,11.91-9.97,22.4-21.73,22.32
			c-11.88-0.08-22.05-10.51-21.8-22.36C68.45,308.62,78.39,298.98,90.03,298.95z M118.75,392.88c-19.34,0.04-38.67,0.05-58.01,0
			c-3.22-0.01-6.18-1.12-5.9-4.94c0.24-3.21,3.1-3.89,5.88-3.9c9.83-0.04,19.66-0.01,29.5-0.01c9.5,0,19.01-0.04,28.51,0.03
			c3.01,0.02,6.4,0.3,6.36,4.33C125.06,392.24,121.86,392.87,118.75,392.88z"/>
	</g>
	<g>
		<path d="M29.89,429.78c-0.34,0-0.68-0.12-0.95-0.35c-27.77-23.56-32.3-59.55-11.28-89.56c18.75-26.77,22.99-52.39,13.34-80.61
			c-5.08-14.83-4.05-29.82,2.9-42.2c7.57-13.5,21.48-23.11,39.16-27.04c6.97-1.55,8.27-4.01,8.43-10.16
			c1.06-39.81,2.3-76.32,3.78-111.61c0.13-3.13-0.66-6.02-1.5-9.07c-0.8-2.91-1.63-5.93-1.61-9.21c0.01-0.92-0.19-1.24-0.27-1.29
			c-0.15-0.09-0.82-0.28-3.45,1.01c-3.41,1.66-6.28,0.94-7.87-2c-0.74-1.37-0.74-3.59,0.01-5.06c0.81-1.57,1.95-2.61,3.32-3
			c0.97-0.28,2.53-0.36,4.49,0.81c1.25,0.75,2.1,1.07,2.51,0.95c0.19-0.06,0.35-0.32,0.45-0.53c0.46-0.97,0.39-2.8-0.16-4.56
			c-0.14-0.45-0.39-1.03-0.78-1.18c-0.28-0.11-1.01-0.16-2.68,0.77c-4.03,2.25-6.55,0.49-7.96-1.39c-1.48-1.97-1.4-4.34,0.21-6.36
			c1.17-1.46,3.76-3.53,8.06-1.03c0.63,0.37,1.71,0.98,2.04,0.94c0.62-1.76,0.67-4.02,0.14-5.9c-0.16-0.55-0.4-0.66-0.49-0.7
			c-0.49-0.22-1.44-0.06-2.41,0.41c-2.42,1.17-6.08,2.93-8.79-1.06c-0.87-1.29-1.3-3.62-0.55-5.05c2.6-4.92,6.89-3.09,9.46-1.99
			c0.76,0.33,1.36,0.43,1.65,0.29c0.55-0.28,0.91-1.83,1.21-3.08C82.7,1,90.9-0.04,96.77,0c0.81,0.01,1.47,0.67,1.46,1.49
			c-0.01,0.81-0.67,1.46-1.47,1.46c-0.13-0.01-0.27,0-0.4,0c-7.87,0-11.68,2.51-13.13,8.6c-0.51,2.16-1.01,4.26-2.79,5.15
			c-1.13,0.57-2.48,0.5-4.13-0.21c-3.54-1.51-4.61-1.4-5.69,0.65c-0.14,0.31-0.01,1.45,0.38,2.02c1.12,1.65,2.08,1.5,5.06,0.06
			c1.06-0.51,3.11-1.25,4.9-0.44c0.72,0.32,1.67,1.04,2.11,2.58c0.7,2.49,0.62,5.41-0.23,7.62c-0.46,1.19-1.23,1.67-1.8,1.87
			c-1.55,0.53-3.14-0.4-4.3-1.09c-2.57-1.5-3.64-0.77-4.44,0.22c-0.76,0.95-0.81,1.88-0.16,2.75c0.95,1.26,1.97,1.81,4.17,0.58
			c1.35-0.76,3.36-1.67,5.2-0.94c1.17,0.47,2.02,1.49,2.5,3.03c0.3,0.95,1.19,4.24,0.02,6.71c-0.64,1.36-1.58,1.88-2.26,2.09
			c-1.63,0.5-3.31-0.3-4.88-1.24c-0.58-0.35-1.43-0.71-2.17-0.51c-0.72,0.21-1.22,0.93-1.51,1.51c-0.3,0.59-0.33,1.8-0.05,2.31
			c0.58,1.06,1.5,1.97,3.99,0.76c2.24-1.1,4.55-1.96,6.31-0.85c1.1,0.69,1.66,1.97,1.65,3.8c-0.02,2.87,0.72,5.56,1.5,8.41
			c0.86,3.14,1.75,6.39,1.6,9.98c-1.48,35.27-2.71,71.77-3.78,111.57c-0.21,7.95-2.92,11.21-10.74,12.95
			c-16.85,3.75-30.07,12.84-37.23,25.6c-6.62,11.81-7.55,25.58-2.68,39.81c9.98,29.19,5.62,55.65-13.72,83.25
			c-20.41,29.14-16.18,62.75,10.77,85.63c0.62,0.53,0.7,1.46,0.17,2.07C30.72,429.6,30.3,429.78,29.89,429.78z"/>
	</g>
</g>
</svg>
