<?xml version="1.0" encoding="utf-8"?>
<!-- Generator: Adobe Illustrator 23.0.1, SVG Export Plug-In . SVG Version: 6.00 Build 0)  -->
<svg version="1.1" id="Layer_1" xmlns="http://www.w3.org/2000/svg" xmlns:xlink="http://www.w3.org/1999/xlink" x="0px" y="0px"
	 viewBox="0 0 180 163.17" style="enable-background:new 0 0 180 163.17;" xml:space="preserve">
<style type="text/css">
	.st0{fill:#923064;}
	.st1{fill:#F79962;}
	.st2{fill:#B2515E;}
	.st3{fill:#A8DCD8;}
	.st4{fill:#FFFFFF;}
</style>
<g>
	<g>
		<path class="st2" d="M100.32,126.62C85.1,110.17,70.75,94.66,56.4,79.15c-4.13-4.46-8.25-8.93-12.36-13.42
			c-1.39-1.52-2.43-11.1-1.43-12.64c1.19-1.84,8.81-1.76,10.31,0.13c13.9,17.53,27.79,35.07,41.69,52.61
			c3.84,4.85,7.68,9.71,11.58,14.63C104.11,122.32,100.43,122.02,100.32,126.62z"/>
	</g>
	<g>
		<path class="st2" d="M135.72,103.32c-3.4-0.05-6.24-0.09-7.97,3.36c-2.34-4.02-4.35-7.44-6.31-10.88
			C109.42,74.7,97.56,53.51,85.27,32.58c-2.58-4.4,0.67-6.33,2.2-8.98c1.48-2.55,3.39,0.02,5.05,0.35c4.54,0.91,6.94,3.94,8.92,8.12
			c10.72,22.67,21.76,45.19,32.69,67.76C134.6,100.8,135.03,101.79,135.72,103.32z"/>
	</g>
	<g>
		<path class="st2" d="M117.18,112.56c-2.38-3.56-4.75-7.09-7.1-10.63c-13.2-19.89-26.4-39.79-39.6-59.69
			c-1.75-2.65-1.14-9.1,0.99-11.27c0.46-0.47,0.84-0.55,1.43-0.42c4.17,0.93,7.97,1.29,10.63,6.14c12.66,23.09,25.92,45.85,39,68.71
			c1.1,1.92,2.54,3.52-1.32,4C119.85,109.56,118.69,111.32,117.18,112.56z"/>
	</g>
	<g>
		<path class="st2" d="M28.39,72.84c-0.13-1.94,0-4.01,1.74-4.98c2.42-1.34,5.66-2.69,8.37-1.38c1.1,0.53,2.6,1.03,3.43,1.92
			c18.19,19.57,36.45,39.77,54.64,59.34c0.16,0.18,0.19,0.45,0.19,0.69c0,0.28-0.66,0.7-0.88,0.88c-0.94,0.79-1.98,1.58-2.92,2.36
			c-0.41,0.34-0.84,0.44-1.44,0.43c-0.8-0.01-1.51-0.61-2.12-1.13c-18.82-16.11-37.65-32.23-56.47-48.34
			c-1.32-1.13-2.67-2.3-3.43-3.85c-0.66-1.36-0.81-2.9-0.96-4.4C28.48,73.91,28.42,73.38,28.39,72.84z"/>
	</g>
	<g>
		<path class="st2" d="M142.96,96.89c-0.01,2.1-2.25,1.97-3.35,2.75c-1.61,1.14-1.78-1.13-2.21-1.99
			c-9.29-19.04-18.51-38.12-27.73-57.2c-2.22-4.58-4.42-9.17-6.65-13.75c-2.29-4.71,2.68-5.89,4.26-8.69
			c1.31-2.32,2.78-0.23,4.18,0.19c4.54,1.36,6.46,4.69,7.9,9.04c7.45,22.58,15.18,45.07,22.82,67.59
			C142.39,95.49,142.66,96.12,142.96,96.89z"/>
	</g>
	<g>
		<path class="st2" d="M113.66,114.28c-4.02,4.73-6.08,1.85-8.62-1.38C89,92.46,72.81,72.15,56.68,51.8
			c-1.72-2.17-1.81-8.7-0.19-10.77c1.43-1.82,8.34-0.29,10.04,2.27c11.15,16.78,22.28,33.58,33.42,50.36
			C104.53,100.56,109.12,107.45,113.66,114.28z"/>
	</g>
	<g>
		<path class="st0" d="M178.71,77.08c-7.48-22.16-14.96-44.32-22.44-66.48c-1.57-4.65-4.11-10.12-9-10.57
			c-4.95-0.46-9.11,4.77-14.06,4.29c-1.84-0.18-3.5-1.14-5.27-1.66c-7.21-2.12-15.39,5.07-14.2,12.5c-1.51-3.28-6.61-1.94-9.22,0.56
			c-2.61,2.5-5.28,5.95-8.87,5.49c-2.87-0.37-5.23-3.3-8.08-2.77c-4.06,0.75-4.24,7.39-8.1,8.87c-1.54,0.59-3.23,0.17-4.77-0.24
			c-0.92-0.24-1.84-0.51-2.79-0.63c-0.7-0.09-1.48-0.12-2.15,0.16c-1.25,0.51-1.43,2.01-1.66,3.17c-0.33,1.66-1.14,3.22-2.28,4.47
			c-1.13,1.24-2.6,2.18-4.24,2.59c-1.9,0.47-3.98,0.33-5.7,1.25c-3.64,1.95-3.93,7.59-7.57,9.54c-2.64,1.41-6.41,0.45-8.43,2.66
			c-2.63,2.87,0.31,8.16-2.18,11.15c-1.51,1.82-4.23,1.83-6.45,2.65c-4.11,1.51-6.56,6.51-5.23,10.68c-2.39-2.57-6.84-2.12-9.55,0.1
			c-2.72,2.22-4.06,5.69-5.05,9.05c-0.99,3.37-1.78,6.89-3.76,9.78c-2.91,4.25-8.51,8.29-6.63,13.08c0.59,1.5,1.85,2.62,3.07,3.67
			c18.32,15.92,36.65,31.83,54.97,47.75c3.41,2.96,7.8,6.12,12.02,4.54c5.68-2.12,7.33-11.69,13.38-11.31
			c1.09,0.07,2.2,0.5,3.25,0.18c0.88-0.27,1.52-1,2.1-1.71c2.04-2.44,4.08-4.88,6.12-7.32c1.04-1.24,2.13-2.94,1.33-4.34
			c-0.43-0.76-1.35-1.21-1.64-2.04c-0.42-1.19,0.65-2.34,1.61-3.16c15.95-13.51,33.06-27.57,53.74-30.62
			c3.72-0.55,7.94-0.95,10.28-3.9c0.98-1.24,1.49-2.8,2.49-4.02c3.72-4.57,12.33-2.76,15.36-7.8
			C180.79,83.86,179.78,80.23,178.71,77.08z M165.45,60.44c-0.25,3.01-1.72,4.76-4.73,4.72c-2.74-0.04-4.43-1.52-4.53-4.33
			c-0.11-2.98,1.52-4.75,4.43-4.87C163.58,55.85,165.1,57.66,165.45,60.44z M161,47.64c0.01,2.84-1.86,4.73-4.68,4.75
			c-2.83,0.02-4.71-1.85-4.73-4.69c-0.02-2.85,1.87-4.44,4.8-4.85C159.07,43.25,160.99,44.78,161,47.64z M156.92,33.29
			c0.09,2.9-1.79,4.73-4.59,4.78c-2.79,0.06-4.56-1.63-4.79-4.68c0.2-2.8,1.75-4.67,4.6-4.73
			C154.99,28.61,156.83,30.44,156.92,33.29z M148.51,42.56c-0.51,2.89-2.1,4.82-4.96,4.7c-2.8-0.11-4.69-2-4.58-4.86
			c0.11-2.81,2.01-4.67,4.85-4.58C146.67,37.9,148.16,39.87,148.51,42.56z M147.24,16.78c2.95-0.08,4.65,1.56,4.77,4.46
			c0.12,2.94-1.68,4.42-4.41,4.87c-2.91-0.25-4.73-1.58-4.8-4.58C142.73,18.57,144.28,16.86,147.24,16.78z M143.75,29.82
			c0.03,2.95-1.75,4.42-4.55,4.67c-2.97-0.21-4.69-1.7-4.68-4.67c0.01-2.94,1.71-4.63,4.6-4.64
			C142.01,25.18,143.72,26.92,143.75,29.82z M136.25,13.01c2.83,0.03,4.68,1.96,4.69,4.8c0.02,2.93-2.07,4.29-4.77,4.76
			c-2.83-0.49-4.72-2.03-4.7-4.9C131.5,14.76,133.46,12.98,136.25,13.01z M107.27,18.01c1.31-2.32,2.78-0.23,4.18,0.19
			c4.54,1.36,6.46,4.69,7.9,9.04c7.45,22.58,15.18,45.07,22.82,67.59c0.22,0.65,0.49,1.28,0.79,2.05c0,0.35-0.08,0.62-0.19,0.86
			c-1.62,0.52-3.18,1.07-4.72,1.64c-0.29-0.53-0.44-1.31-0.65-1.73c-9.29-19.04-18.51-38.12-27.73-57.2
			c-2.22-4.58-4.42-9.17-6.65-13.75C100.72,22,105.69,20.82,107.27,18.01z M87.47,23.59c1.48-2.55,3.39,0.02,5.05,0.35
			c4.54,0.91,6.94,3.94,8.92,8.12c10.72,22.67,21.76,45.19,32.69,67.76c0.14,0.29,0.28,0.6,0.43,0.91c-2.85,1.16-5.55,2.4-8.12,3.68
			c-1.79-3.07-3.41-5.85-5-8.62C109.42,74.7,97.56,53.51,85.27,32.58C82.69,28.18,85.93,26.25,87.47,23.59z M71.48,30.97
			c0.46-0.47,0.84-0.55,1.43-0.42c4.17,0.93,7.97,1.29,10.63,6.14c12.66,23.09,25.92,45.85,39,68.71c0.16,0.28,0.32,0.55,0.48,0.81
			c-2.57,1.4-4.97,2.83-7.22,4.28c-1.91-2.86-3.82-5.7-5.71-8.55c-13.2-19.89-26.4-39.79-39.6-59.69
			C68.73,39.59,69.35,33.14,71.48,30.97z M56.49,41.03c1.43-1.82,8.34-0.29,10.04,2.27c11.15,16.78,22.28,33.58,33.42,50.36
			c4.21,6.35,8.44,12.68,12.62,18.98c-1.65,1.15-3.21,2.29-4.66,3.42c-0.98-0.72-1.89-1.92-2.87-3.17
			C89,92.46,72.81,72.15,56.68,51.8C54.96,49.63,54.87,43.1,56.49,41.03z M42.62,53.09c1.19-1.84,8.81-1.76,10.31,0.13
			c13.9,17.53,27.79,35.07,41.69,52.61c3.36,4.24,6.73,8.5,10.13,12.79c-2.5,2.09-4.64,4.07-6.42,5.84
			c-14.48-15.64-28.2-30.47-41.92-45.3c-4.13-4.46-8.25-8.93-12.36-13.42C42.66,64.21,41.62,54.63,42.62,53.09z M21.65,92.89
			c2.81,0.03,4.73,1.89,4.7,4.75c-0.03,2.84-1.94,4.4-4.84,4.84c-2.69-0.48-4.62-2.04-4.6-4.88C16.92,94.76,18.8,92.86,21.65,92.89z
			 M20.87,114.01c-2.93,0.07-4.72-1.83-4.8-4.6c-0.08-2.82,1.71-4.51,4.59-4.8c2.94,0.2,4.81,1.81,4.84,4.63
			C25.53,112.02,23.76,113.93,20.87,114.01z M30.11,123.03c-2.83,0.03-4.46-1.79-4.65-4.35c0.09-3.37,1.92-5.07,4.65-5.06
			c2.71,0.01,4.7,1.72,4.68,4.7C34.75,121.23,32.89,122.99,30.11,123.03z M31.7,109.53c-2.78-0.04-4.53-1.75-4.62-4.96
			c0.3-2.64,1.88-4.51,4.74-4.43c2.79,0.08,4.65,1.86,4.61,4.77C36.4,107.83,34.48,109.56,31.7,109.53z M41.67,132.18
			c-2.79-0.08-4.48-1.86-4.52-4.95c0.18-2.91,2.05-4.57,4.77-4.47c2.71,0.09,4.66,1.83,4.54,4.84
			C46.34,130.53,44.45,132.25,41.67,132.18z M37.21,114.07c-0.06-2.93,1.53-4.73,4.4-4.87c2.91-0.15,4.68,1.63,4.84,4.47
			c0.17,2.92-1.59,4.49-4.35,4.86C39.14,118.38,37.27,117.12,37.21,114.07z M51.86,141.18c-2.73-0.11-4.63-1.9-4.47-4.88
			c0.15-2.91,2.08-4.64,4.86-4.52c2.77,0.12,4.46,1.92,4.44,5C56.51,139.73,54.58,141.29,51.86,141.18z M53.48,127.92
			c-2.72-0.02-4.63-1.7-4.58-4.76c0.05-3.02,1.95-4.72,4.68-4.67c2.71,0.04,4.54,1.76,4.63,4.8
			C58.07,126.3,56.17,127.94,53.48,127.92z M64.24,149.13c-3.05,0.15-4.74-1.65-4.9-4.41c-0.16-2.81,1.6-4.51,4.11-4.93
			c3.32,0.08,5.15,1.75,5.28,4.51C68.85,147.05,67.27,148.98,64.24,149.13z M65.73,138.03c-2.81-0.09-4.51-1.88-4.48-4.86
			c0.04-3.07,2.11-4.17,4.54-4.68c2.95,0.55,4.85,2.02,4.74,4.97C70.42,136.35,68.55,138.11,65.73,138.03z M76.01,145.81
			c-3.32-0.02-4.99-1.83-5.03-4.57c-0.04-2.74,1.55-4.71,4.6-4.73c2.99-0.02,4.75,1.82,4.8,4.57
			C80.41,143.83,78.72,145.63,76.01,145.81z M89.7,131.17c-19.3-16.61-38.55-33.3-57.85-49.93c-2.53-2.18-1.29-5.18-2.13-7.78
			c0.94-1.62-1.68-4.42,1.8-5.08c3.36-0.64,6.33-3.92,10.16,0.33c17.44,19.32,35.26,38.31,52.88,57.47c0.24,0.26,0.73,0.6,1.14,0.95
			c-2.38,2.56-3.74,4.34-4.1,4.83C91.06,132.01,90.44,131.81,89.7,131.17z M143.22,56.76c0.03-0.7,0.17-1.32,0.4-1.87
			c0.71-1.64,2.3-2.59,4.5-2.68c0.72,0.09,1.38,0.28,1.95,0.54c1.71,0.78,2.68,2.29,2.57,4.39c-0.15,2.74-1.99,4.62-4.92,4.49
			C144.82,61.51,143.1,59.54,143.22,56.76z M147.98,72.16c0.01-2.82,1.69-4.63,4.65-4.64c2.95-0.01,4.57,1.65,4.59,4.61
			c0.03,3-1.66,4.46-4.63,4.69C149.73,76.62,147.97,75.01,147.98,72.16z M156.2,89.04c-2.87-0.47-4.77-2.1-4.7-4.92
			c0.07-2.79,1.94-4.72,4.81-4.65c2.82,0.08,4.69,1.96,4.63,4.82C160.89,87.14,158.92,88.63,156.2,89.04z M164.62,79.29
			c-3.87,0.11-5.5-1.8-5.59-4.48c-0.09-2.72,1.54-4.69,4.56-4.77c3.02-0.08,4.76,1.79,4.85,4.52
			C168.52,77.29,166.85,79.14,164.62,79.29z"/>
	</g>
	<g>
		<path d="M4.08,114.98c-0.15,0-0.29-0.05-0.41-0.16c-1.21-1.05-2.58-2.24-3.24-3.92c-1.53-3.89,1.33-7.21,4.09-10.42
			c0.92-1.07,1.87-2.17,2.61-3.25c1.62-2.37,2.44-5.25,3.23-8.04c0.15-0.52,0.3-1.04,0.45-1.56c0.97-3.3,2.35-6.99,5.26-9.36
			c1.81-1.48,4.32-2.22,6.58-1.94c1.2,0.16,2.34-0.67,2.56-1.82c0.63-3.26,2.92-6.06,5.83-7.13c0.71-0.26,1.47-0.44,2.2-0.62
			c1.58-0.38,3.07-0.74,3.98-1.84c1.07-1.29,0.98-3.15,0.89-5.11c-0.1-2.17-0.21-4.42,1.3-6.06c1.32-1.44,3.22-1.68,5.05-1.92
			c1.3-0.17,2.52-0.33,3.55-0.88c1.65-0.88,2.56-2.64,3.53-4.5c1.01-1.95,2.06-3.97,4.05-5.04c1.2-0.64,2.52-0.81,3.79-0.97
			c0.72-0.09,1.4-0.18,2.06-0.34c1.45-0.36,2.84-1.22,3.92-2.4c1.09-1.19,1.82-2.63,2.12-4.16l0.05-0.28
			c0.22-1.16,0.53-2.75,1.99-3.35c0.84-0.35,1.76-0.29,2.47-0.2c0.87,0.11,1.7,0.33,2.51,0.55l0.37,0.1
			c1.33,0.35,2.98,0.79,4.38,0.26c1.62-0.62,2.54-2.34,3.51-4.16c1.12-2.11,2.29-4.29,4.71-4.74c1.84-0.35,3.44,0.55,4.98,1.41
			c1.12,0.62,2.17,1.21,3.3,1.36c2.73,0.35,4.96-1.91,7.12-4.1c0.41-0.42,0.82-0.83,1.23-1.23c2.4-2.3,6.53-3.57,8.92-1.94
			c0.13-3.43,2.02-6.81,5.1-9.13c3.09-2.32,6.74-3.09,10.02-2.13c0.67,0.2,1.32,0.45,1.95,0.7c1.09,0.43,2.12,0.83,3.2,0.94
			c2.3,0.22,4.43-0.89,6.69-2.07c2.31-1.21,4.71-2.46,7.36-2.21c5.39,0.5,8.03,6.51,9.54,11c0.11,0.33-0.07,0.69-0.4,0.8
			c-0.34,0.11-0.69-0.07-0.8-0.4c-1.4-4.15-3.8-9.71-8.46-10.14c-2.28-0.21-4.41,0.9-6.66,2.08c-2.32,1.21-4.72,2.46-7.4,2.21
			c-1.26-0.12-2.42-0.58-3.54-1.02c-0.63-0.25-1.23-0.48-1.85-0.66c-2.9-0.85-6.14-0.15-8.9,1.93c-2.89,2.17-4.61,5.36-4.61,8.53
			c0,0.42-0.23,0.79-0.61,0.96c-0.38,0.18-0.82,0.11-1.15-0.17c-1.73-1.48-5.47-0.33-7.54,1.65c-0.4,0.38-0.8,0.79-1.21,1.2
			c-2.27,2.29-4.85,4.88-8.18,4.46c-1.36-0.18-2.58-0.85-3.75-1.5c-1.41-0.79-2.75-1.53-4.14-1.27c-1.82,0.34-2.79,2.16-3.82,4.09
			c-1.03,1.94-2.1,3.95-4.17,4.74c-1.78,0.68-3.65,0.18-5.16-0.21l-0.37-0.1c-0.8-0.22-1.56-0.42-2.34-0.52
			c-0.56-0.07-1.27-0.12-1.83,0.12c-0.83,0.34-1.03,1.4-1.23,2.42l-0.06,0.29c-0.35,1.76-1.19,3.4-2.43,4.77
			c-1.27,1.39-2.84,2.35-4.55,2.78c-0.73,0.18-1.48,0.28-2.21,0.37c-1.22,0.15-2.36,0.3-3.35,0.83c-1.65,0.88-2.56,2.64-3.52,4.5
			c-1.01,1.95-2.06,3.97-4.05,5.04c-1.23,0.66-2.63,0.84-3.98,1.01c-1.68,0.22-3.27,0.42-4.28,1.52c-1.15,1.26-1.07,3.15-0.97,5.15
			c0.1,2.12,0.2,4.31-1.18,5.98c-1.18,1.42-2.95,1.85-4.66,2.26c-0.73,0.18-1.42,0.34-2.06,0.58c-2.51,0.92-4.48,3.35-5.03,6.19
			c-0.35,1.82-2.1,3.07-3.96,2.83c-1.92-0.25-4.07,0.4-5.62,1.66c-2.64,2.16-3.93,5.63-4.85,8.74c-0.15,0.51-0.3,1.03-0.44,1.55
			c-0.82,2.89-1.66,5.87-3.4,8.41c-0.78,1.14-1.75,2.27-2.69,3.36c-2.63,3.06-5.12,5.95-3.87,9.13c0.54,1.39,1.79,2.47,2.89,3.43
			c0.26,0.23,0.29,0.63,0.06,0.89C4.43,114.91,4.26,114.98,4.08,114.98z"/>
	</g>
</g>
</svg>
