<?xml version="1.0" encoding="utf-8"?>
<!-- Generator: Adobe Illustrator 23.0.1, SVG Export Plug-In . SVG Version: 6.00 Build 0)  -->
<svg version="1.1" id="Layer_1" xmlns="http://www.w3.org/2000/svg" xmlns:xlink="http://www.w3.org/1999/xlink" x="0px" y="0px"
	 viewBox="0 0 180 122.7" style="enable-background:new 0 0 180 122.7;" xml:space="preserve">
<style type="text/css">
	.st0{fill:#923064;}
	.st1{fill:#F79962;}
	.st2{fill:#B2515E;}
	.st3{fill:#A8DCD8;}
	.st4{fill:#FFFFFF;}
</style>
<g>
	<g>
		<path class="st1" d="M27.44,1.08c-0.96-0.34-1.99-0.52-3.06-0.52c-0.16,0-0.31,0-0.47,0.01c-0.01,0-0.01,0-0.01,0
			c-4.96,0.25-8.91,4.34-8.91,9.37v8.73l2.28,2.28l16.49,16.49V9.94C33.75,5.83,31.12,2.33,27.44,1.08z M24.38,16.82
			c-2.91,0-5.26-2.36-5.26-5.26c0-2.91,2.36-5.26,5.26-5.26c2.91,0,5.26,2.36,5.26,5.26C29.64,14.46,27.28,16.82,24.38,16.82z
			 M14.99,20.26v5.77l3.4,3.4l15.37,15.37v-5.77L14.99,20.26z M14.99,27.61v85.14c0,5.03,3.95,9.12,8.91,9.38c0,0,0,0,0.01,0
			c0.16,0.01,0.31,0.01,0.47,0.01c1.08,0,2.1-0.18,3.06-0.52c1.36-0.46,2.57-1.23,3.57-2.23c1.71-1.71,2.75-4.05,2.75-6.64V46.37
			L14.99,27.61z M24.38,116.33c-2.91,0-5.26-2.36-5.26-5.26s2.36-5.26,5.26-5.26c2.91,0,5.26,2.36,5.26,5.26
			S27.28,116.33,24.38,116.33z"/>
	</g>
	<g>
		<polygon points="17.26,22.54 18.39,23.66 18.39,29.42 17.26,28.3 		"/>
		<path d="M27.77,0.56c0,0.22-0.13,0.43-0.34,0.52c-0.07,0.03-0.15,0.04-0.22,0.04c-4.87,0-8.83,3.96-8.83,8.82v12.13l-1.12-1.12
			v-11c0-4.32,2.77-8,6.63-9.37c0,0,0,0,0.01,0C24.94,0.2,26.06,0,27.21,0C27.53,0,27.77,0.25,27.77,0.56z"/>
		<path d="M27.77,122.14c0,0.3-0.25,0.56-0.56,0.56c-1.16,0-2.28-0.2-3.31-0.57c-0.01,0-0.01,0-0.01,0
			c-3.86-1.37-6.63-5.06-6.63-9.38V29.88l1.12,1.12v81.74c0,4.87,3.96,8.83,8.83,8.83c0.08,0,0.16,0.01,0.22,0.04
			C27.64,121.7,27.77,121.9,27.77,122.14z"/>
	</g>
	<g>
		<path class="st1" d="M105.32,16.35L105.32,16.35c-5.18,0-9.38,4.2-9.38,9.38v70.63c0,5.18,4.2,9.38,9.38,9.38h0
			c5.18,0,9.38-4.2,9.38-9.38V25.74C114.7,20.55,110.5,16.35,105.32,16.35z M105.32,101.81c-2.91,0-5.26-2.36-5.26-5.26
			s2.36-5.26,5.26-5.26c2.91,0,5.26,2.36,5.26,5.26S108.22,101.81,105.32,101.81z M105.32,31.87c-2.91,0-5.26-2.36-5.26-5.26
			s2.36-5.26,5.26-5.26c2.91,0,5.26,2.36,5.26,5.26S108.22,31.87,105.32,31.87z"/>
	</g>
	<g>
		<path class="st1" d="M132.8,49.97l9.09-9.09V30.74c0-5.18-4.21-9.39-9.39-9.39c-5.18,0-9.39,4.21-9.39,9.39v61.7
			c0,5.18,4.21,9.38,9.39,9.38c5.18,0,9.39-4.2,9.39-9.38V49.84l-4.61,4.61c0.03,0.26,0.06,0.53,0.06,0.79
			c0,2.36-1.54,4.35-3.65,5.05c-0.53,0.18-1.09,0.27-1.67,0.27c-0.54,0-1.07-0.08-1.56-0.24c-2.18-0.66-3.77-2.68-3.77-5.08
			C126.69,52.04,129.59,49.49,132.8,49.97z M132.43,86.03c2.91,0,5.26,2.36,5.26,5.26c0,2.91-2.36,5.26-5.26,5.26
			c-2.91,0-5.26-2.36-5.26-5.26C127.17,88.38,129.53,86.03,132.43,86.03z M132.43,25.46c2.91,0,5.26,2.36,5.26,5.27
			c0,2.91-2.36,5.26-5.26,5.26c-2.91,0-5.26-2.36-5.26-5.26C127.17,27.82,129.53,25.46,132.43,25.46z M141.89,42.47l-8.72,8.72
			l-0.29-0.06c-0.29-0.07-0.58-0.09-0.86-0.09c-2.32,0-4.21,1.88-4.21,4.2c0,2.32,1.88,4.2,4.21,4.2c2.31,0,4.2-1.87,4.2-4.2
			c0-0.28-0.03-0.57-0.09-0.86l-0.07-0.3l5.83-5.83V42.47z"/>
	</g>
	<g>
		<path class="st1" d="M78.21,11.55L78.21,11.55c-5.18,0-9.38,4.2-9.38,9.38v80.52c0,5.18,4.2,9.38,9.38,9.38h0
			c5.18,0,9.38-4.2,9.38-9.38V20.94C87.59,15.76,83.39,11.55,78.21,11.55z M78.21,107.07c-2.91,0-5.26-2.36-5.26-5.26
			s2.36-5.26,5.26-5.26c2.91,0,5.26,2.36,5.26,5.26S81.12,107.07,78.21,107.07z M78.21,27.56c-2.91,0-5.26-2.36-5.26-5.26
			s2.36-5.26,5.26-5.26c2.91,0,5.26,2.36,5.26,5.26S81.12,27.56,78.21,27.56z"/>
	</g>
	<g>
		<path class="st1" d="M47.11,52.03l-0.29,0.07l-5.06-5.06v5.77l2.18,2.18l-0.07,0.29c-0.06,0.29-0.09,0.58-0.09,0.86
			c0,2.32,1.88,4.21,4.21,4.21c2.31,0,4.2-1.88,4.2-4.21C52.18,53.53,49.76,51.47,47.11,52.03z M47.11,52.03l-0.29,0.07l-5.06-5.06
			v5.77l2.18,2.18l-0.07,0.29c-0.06,0.29-0.09,0.58-0.09,0.86c0,2.32,1.88,4.21,4.21,4.21c2.31,0,4.2-1.88,4.2-4.21
			C52.18,53.53,49.76,51.47,47.11,52.03z M47.11,52.03l-0.29,0.07l-5.06-5.06v5.77l2.18,2.18l-0.07,0.29
			c-0.06,0.29-0.09,0.58-0.09,0.86c0,2.32,1.88,4.21,4.21,4.21c2.31,0,4.2-1.88,4.2-4.21C52.18,53.53,49.76,51.47,47.11,52.03z
			 M51.15,6.69c-5.18,0-9.39,4.21-9.39,9.39v29.37l5.43,5.43c3.23-0.49,6.11,2.06,6.11,5.26c0,1.54-0.65,2.92-1.69,3.89
			c-0.95,0.9-2.23,1.44-3.62,1.44c-0.16,0-0.3-0.01-0.46-0.02c-2.73-0.22-4.87-2.52-4.87-5.31c0-0.26,0.02-0.53,0.07-0.79
			l-0.96-0.96v53.95c0,5.18,4.21,9.38,9.39,9.38c2.59,0,4.94-1.04,6.63-2.75c1.69-1.69,2.75-4.04,2.75-6.63V16.07
			C60.53,10.89,56.33,6.69,51.15,6.69z M51.15,113.4c-2.91,0-5.26-2.36-5.26-5.26c0-2.91,2.36-5.26,5.26-5.26
			c2.91,0,5.26,2.36,5.26,5.26C56.41,111.04,54.06,113.4,51.15,113.4z M51.15,22.08c-2.91,0-5.26-2.36-5.26-5.26
			c0-2.91,2.36-5.26,5.26-5.26c2.91,0,5.26,2.36,5.26,5.26C56.41,19.72,54.06,22.08,51.15,22.08z M47.11,52.03l-0.29,0.07
			l-5.06-5.06v5.77l2.18,2.18l-0.07,0.29c-0.06,0.29-0.09,0.58-0.09,0.86c0,2.32,1.88,4.21,4.21,4.21c2.31,0,4.2-1.88,4.2-4.21
			C52.18,53.53,49.76,51.47,47.11,52.03z M47.11,52.03l-0.29,0.07l-5.06-5.06v5.77l2.18,2.18l-0.07,0.29
			c-0.06,0.29-0.09,0.58-0.09,0.86c0,2.32,1.88,4.21,4.21,4.21c2.31,0,4.2-1.88,4.2-4.21C52.18,53.53,49.76,51.47,47.11,52.03z
			 M47.11,52.03l-0.29,0.07l-5.06-5.06v5.77l2.18,2.18l-0.07,0.29c-0.06,0.29-0.09,0.58-0.09,0.86c0,2.32,1.88,4.21,4.21,4.21
			c2.31,0,4.2-1.88,4.2-4.21C52.18,53.53,49.76,51.47,47.11,52.03z"/>
	</g>
	<g>
		<path class="st0" d="M52.18,56.13c0,2.32-1.88,4.21-4.2,4.21c-2.32,0-4.21-1.88-4.21-4.21c0-0.28,0.03-0.57,0.09-0.86l0.07-0.29
			l-2.18-2.18l-8.01-8.01L18.39,29.42l-3.4-3.4L0.59,11.63C0.21,11.24,0,10.74,0,10.19c0-0.54,0.21-1.05,0.59-1.44
			c0.38-0.39,0.9-0.59,1.45-0.59c0.54,0,1.05,0.2,1.44,0.59l11.51,11.51l31.84,31.84l0.29-0.07C49.76,51.47,52.18,53.53,52.18,56.13
			z"/>
	</g>
	<g>
		<path class="st0" d="M179.4,10.74l-37.51,37.5l-5.83,5.83l0.07,0.3c0.06,0.29,0.09,0.58,0.09,0.86c0,2.32-1.88,4.2-4.2,4.2
			c-2.32,0-4.21-1.87-4.21-4.2c0-2.31,1.88-4.2,4.21-4.2c0.28,0,0.57,0.02,0.86,0.09l0.29,0.06l8.72-8.72l34.63-34.62
			c0.77-0.77,2.11-0.77,2.88,0C180.2,8.64,180.2,9.94,179.4,10.74z"/>
	</g>
</g>
</svg>
