<?xml version="1.0" encoding="utf-8"?>
<!-- Generator: Adobe Illustrator 23.0.1, SVG Export Plug-In . SVG Version: 6.00 Build 0)  -->
<svg version="1.1" id="Layer_1" xmlns="http://www.w3.org/2000/svg" xmlns:xlink="http://www.w3.org/1999/xlink" x="0px" y="0px"
	 viewBox="0 0 180 334.88" style="enable-background:new 0 0 180 334.88;" xml:space="preserve">
<style type="text/css">
	.st0{fill:#923064;}
	.st1{fill:#F79962;}
	.st2{fill:#B2515E;}
	.st3{fill:#A8DCD8;}
	.st4{fill:#FFFFFF;}
</style>
<g>
	<g>
		<path class="st2" d="M177.49,294.61L54.63,20.88C48.17,6.49,31.27,0.06,16.87,6.52C2.48,12.98-3.95,29.88,2.51,44.27
			l122.86,273.73c6.46,14.39,23.36,20.82,37.75,14.36C177.52,325.91,183.95,309.01,177.49,294.61z M68.96,152.93
			c0.69-6.31,5.26-10.9,13.57-10.49c8.55,0.42,12.57,6.11,12.16,14.09c-0.4,7.67-5.69,12.16-13.11,11.91
			C73.64,168.17,68.59,163.64,68.96,152.93z M85.33,191.31c1.46-7.97,6.17-13.32,14.25-12.66c7.79,0.64,13.07,5.93,12.25,14.4
			c-0.72,7.49-5.29,11.99-13.28,11.8C89.88,204.65,86.1,199.5,85.33,191.31z M102.65,228.7c0.05-7.79,4.6-13.56,13.22-13.3
			c8.27,0.25,12.77,5.03,12.81,14.14c-0.77,7.82-5.42,12.45-13.74,12.12C107.13,241.34,102.6,235.92,102.65,228.7z M119.98,265.99
			c-0.41-8.43,3.71-13.27,12.32-13.77c8.86-0.51,12.4,5.01,14.05,12.57c-0.91,8.24-5.62,13.47-13.56,13.49
			C125.63,278.3,120.36,273.92,119.98,265.99z M151.45,314.46c-9.7,0.06-14.61-4.71-14.84-12.73c-0.23-8.29,5.49-13.28,13.36-13.22
			c7.05,0.05,12.56,4.18,12.86,12.23C163.14,309.2,158.7,313.73,151.45,314.46z"/>
	</g>
	<g>
		<path d="M156.74,331.04c-0.51,0-0.99-0.29-1.22-0.79c-0.3-0.67,0-1.46,0.67-1.76c13.7-6.15,19.84-22.3,13.69-35.99L47.03,18.76
			c-2.98-6.64-8.36-11.71-15.16-14.3c-6.8-2.59-14.2-2.37-20.83,0.61c-0.67,0.3-1.46,0-1.76-0.67c-0.3-0.67,0-1.46,0.67-1.76
			c7.29-3.27,15.41-3.51,22.87-0.67c7.46,2.84,13.37,8.42,16.64,15.7L172.32,291.4c6.75,15.04,0.01,32.76-15.03,39.52
			C157.11,331,156.92,331.04,156.74,331.04z"/>
	</g>
</g>
</svg>
