<?xml version="1.0" encoding="utf-8"?>
<!-- Generator: Adobe Illustrator 23.0.1, SVG Export Plug-In . SVG Version: 6.00 Build 0)  -->
<svg version="1.1" id="Layer_1" xmlns="http://www.w3.org/2000/svg" xmlns:xlink="http://www.w3.org/1999/xlink" x="0px" y="0px"
	 viewBox="0 0 180 180" style="enable-background:new 0 0 180 180;" xml:space="preserve">
<style type="text/css">
	.st0{fill:#923064;}
	.st1{fill:#F79962;}
	.st2{fill:#B2515E;}
	.st3{fill:#A8DCD8;}
	.st4{fill:#FFFFFF;}
</style>
<g>
	<path class="st1" d="M0.1,133.37c0.66-4.67,4.39-8.55,7.89-11.91c3.56-3.42,7.12-6.84,10.68-10.26c3.56-3.42,7.12-6.84,10.68-10.26
		c3.56-3.42,7.12-6.84,10.68-10.26c3.56-3.42,7.12-6.84,10.68-10.26c3.56-3.42,7.12-6.84,10.68-10.26
		c3.56-3.42,7.12-6.84,10.68-10.26c3.56-3.42,7.12-6.84,10.68-10.26s7.12-6.84,10.68-10.26s7.12-6.84,10.68-10.26
		c3.56-3.42,7.12-6.84,10.68-10.26s7.12-6.84,10.68-10.26c1.78-1.71,3.56-3.42,5.34-5.13c0.82-0.79,1.66-1.57,2.46-2.39
		c0.47-0.48,0.95-1,1.66-1.06c1.08-0.08,2.5,0.64,2.58,1.83c0.1,1.45-1.04,2.66-2.09,3.66C90.29,48.7,45.15,91.84,0,134.97
		C-0.01,134.43,0.03,133.89,0.1,133.37z"/>
	<path class="st0" d="M178.25,29.14c-0.33-0.87-0.7-1.76-1.41-2.36c-0.71-0.61-1.66-0.84-2.57-1.05c-2.23-0.52-4.51-1.05-6.78-0.74
		c-2.9,0.4-5.8,2.49-5.5,5.82c0.13,1.38-0.77,2.73-2.13,3c-1.98,0.39-2.57-1.9-3.09-3.56c-0.44-1.41-2.01-2.81-3.47-1.9
		c-1.22,0.76-1.84,2.45-0.61,3.58c0.89,0.81,2.15,1.16,3.07,1.89c1.32,1.05,1.5,2.86,0.48,4.2c-1.26,1.65-3.99,1.13-4.82-0.6
		c-0.42-0.88-0.39-1.95-0.9-2.78c-0.71-1.15-2.5-1.44-3.54-0.58s-1.1,2.67-0.1,3.59c1.33,1.23,4.13,1.23,4.14,3.04
		c0,0.44-0.2,0.85-0.4,1.24c-1.53,3-3.07,6.02-5.15,8.67c-1.92,2.44-4.25,4.52-6.58,6.59c-6.75,6-13.51,12.01-20.26,18.01
		c-0.75,0.67-1.61,1.38-2.62,1.37c-0.93-0.01-1.73-0.65-2.44-1.24c-6.16-5.13-14.04-10.25-21.65-7.72
		C81.46,71.09,79.5,86.25,69.67,91.23c3.64-0.24,6.38,3.88,5.99,7.51c-0.39,3.63-2.91,6.65-5.53,9.18
		c-2.57,2.48-5.59,4.85-9.14,5.14c-3.56,0.29-7.52-2.44-7.27-5.99c-6.76,2.57-13.58,5.16-19.66,9.07
		c-6.08,3.91-11.46,9.29-14.1,16.02c-4.5,11.48-0.15,24.98,7.99,34.25c9.65,11,26.07,17.19,39.42,11.2
		c12.03-5.4,18.27-18.5,23.54-30.58c-3.45-0.17-5.72-4.15-5.25-7.58c0.47-3.43,2.87-6.25,5.37-8.64c2.71-2.58,5.95-5,9.69-5.17
		s7.76,2.97,7.2,6.67c5.44-9.56,20.69-10.47,25.03-20.58c3.23-7.52-1.41-15.98-6.35-22.52c-0.62-0.82-1.27-1.71-1.33-2.73
		c-0.08-1.41,0.97-2.59,1.95-3.61c8.08-8.34,16.16-16.68,24.24-25.03c0.89-0.92,1.89-1.9,3.17-2.03c1.05-0.11,2.08,0.39,3.14,0.34
		c2.04-0.1,3.35-2.1,4.65-3.67c1.3-1.57,3.68-2.93,5.24-1.62c1.65,1.4,0.67,4.51,2.8,5.68c1.98,1.09,4.29-1.2,3.26-3.2
		c-0.95-1.85-3.58-1.6-5.02-2.96c-1.21-1.13-1.14-3.34,0.14-4.39c1.28-1.06,3.45-0.71,4.34,0.69c0.88,1.39,0.55,3.41,2.06,4.37
		c1.82,1.16,4.21-0.88,3.35-2.87c-0.61-1.41-2.29-1.76-3.68-2.32c-0.08-0.03-0.15-0.06-0.23-0.1c-1.27-0.6-1.07-2.54,0.32-2.74
		c2.17-0.31,4.21-2.31,4.76-4.57c0.74-3.02-0.35-6.16-1.42-9.08C178.31,29.29,178.28,29.22,178.25,29.14z"/>
	<g>
		<path d="M56.22,173.18c-10.95,0-21.86-5.98-28.64-13.71c-0.18-0.21-0.16-0.52,0.05-0.71c0.21-0.18,0.52-0.16,0.71,0.05
			c8.92,10.16,25.12,17.23,38.83,11.08c11.37-5.1,17.42-16.92,23.02-29.71c-1.24-0.24-2.39-0.95-3.29-2.04
			c-1.35-1.63-2.01-3.94-1.73-6.03c0.52-3.75,3.22-6.74,5.52-8.93c2.5-2.38,5.89-5.13,10.01-5.3c2.27-0.09,4.66,0.92,6.21,2.65
			c0.78,0.87,1.29,1.86,1.48,2.89c2.81-3.87,7.29-6.26,11.64-8.57c5.29-2.82,10.29-5.48,12.47-10.57
			c2.52-5.87,0.46-13.08-6.29-22.02c-0.17-0.22-0.12-0.53,0.1-0.7c0.22-0.16,0.53-0.12,0.7,0.1c6.99,9.26,9.08,16.79,6.41,23.02
			c-2.33,5.42-7.71,8.28-12.92,11.06c-4.72,2.51-9.59,5.11-12.14,9.57c-0.12,0.21-0.37,0.3-0.6,0.23c-0.23-0.08-0.37-0.31-0.33-0.55
			c0.2-1.31-0.25-2.65-1.26-3.78c-1.34-1.49-3.48-2.4-5.42-2.32c-3.79,0.16-6.99,2.77-9.36,5.03c-2.18,2.08-4.75,4.9-5.22,8.34
			c-0.25,1.82,0.33,3.83,1.5,5.25c0.63,0.76,1.71,1.68,3.28,1.76c0.16,0.01,0.31,0.1,0.4,0.24c0.09,0.14,0.1,0.31,0.03,0.46
			c-5.76,13.21-11.92,25.51-23.79,30.84C63.9,172.44,60.05,173.18,56.22,173.18z"/>
	</g>
	<path class="st0" d="M154.78,42.53c1.21,1.65-2.31-2.6-3.97-1.42c-1.66,1.19-4.53,2.58-4.77,4.61c-0.13,1.05,0.3,2.11,0.12,3.15
		c-0.22,1.26-1.26,2.2-2.24,3.02c-8.88,7.49-17.37,16.59-26.25,24.07l33.01-23.22c0,0,5.19-8.34,5.23-8.7
		C155.94,43.7,154.78,42.53,154.78,42.53z"/>
</g>
</svg>
