<?xml version="1.0" encoding="utf-8"?>
<!-- Generator: Adobe Illustrator 17.0.0, SVG Export Plug-In . SVG Version: 6.00 Build 0)  -->
<!DOCTYPE svg PUBLIC "-//W3C//DTD SVG 1.1//EN" "http://www.w3.org/Graphics/SVG/1.1/DTD/svg11.dtd">
<svg version="1.1" id="Layer_1" xmlns="http://www.w3.org/2000/svg" xmlns:xlink="http://www.w3.org/1999/xlink" x="0px" y="0px"
	 width="76.532px" height="180px" viewBox="61.734 10 76.532 180" enable-background="new 61.734 10 76.532 180"
	 xml:space="preserve">
<path fill="#ED1C24" d="M138.266,140.148V10H71.901v27.196h37.488v102.951c0,23.659-3.258,23.659-8.658,23.659
	c-3.929,0-9.632-1.991-16.062-5.607l-11.01-6.181l-11.925,23.073l10.117,5.812c9.918,5.695,21.17,9.096,30.1,9.096
	C126.726,190,138.266,174.158,138.266,140.148z M64.972,174.139l9.694-18.757l8.808,4.945c4.803,2.701,11.696,5.919,17.257,5.919
	c7.885,0,11.097-2.36,11.097-26.098V34.757H74.34V12.439h61.488v127.709c0,32.791-10.448,47.413-33.877,47.413
	c-8.522,0-19.321-3.28-28.885-8.772L64.972,174.139z"/>
<path fill="#F26649" d="M133.388,140.148V14.878h-56.61v17.44h37.488v107.829c0,22.671-2.783,28.537-13.536,28.537
	c-6.086,0-13.392-3.387-18.451-6.231l-6.606-3.709l-7.464,14.441l6.07,3.487c9.211,5.29,19.555,8.448,27.67,8.448
	C123.986,185.122,133.388,171.672,133.388,140.148z M71.448,172.234l5.233-10.125l4.404,2.472
	c5.312,2.984,13.031,6.543,19.646,6.543c13.668,0,15.975-9.556,15.975-30.976V29.879H79.218V17.317h51.732v122.83
	c0,30.212-8.402,42.535-28.999,42.535c-7.708,0-17.597-3.037-26.455-8.125L71.448,172.234z"/>
<path fill="#FAB49B" d="M77.924,170.329l0.772-1.493c6.274,3.524,14.566,7.166,22.035,7.166c20.853,0,20.853-19.88,20.853-35.854V25
	H84.095v-2.805h41.976v117.951c0,34.75-11.916,37.658-24.121,37.658C95.046,177.805,86.011,174.972,77.924,170.329z"/>
</svg>
