<?xml version="1.0" encoding="utf-8"?>
<!-- Generator: Adobe Illustrator 25.2.1, SVG Export Plug-In . SVG Version: 6.00 Build 0)  -->
<svg version="1.1" id="Layer_1" xmlns="http://www.w3.org/2000/svg" xmlns:xlink="http://www.w3.org/1999/xlink" x="0px" y="0px"
	 viewBox="0 0 180 139.6" style="enable-background:new 0 0 180 139.6;" xml:space="preserve">
<style type="text/css">
	.st0{fill:#FFC95E;}
	.st1{fill:#F89521;}
	.st2{fill:#EB0D8C;}
	.st3{fill:#F47A50;}
	.st4{fill:#342624;}
	.st5{fill:#BD5F3D;}
	.st6{fill:#F8A282;}
	.st7{fill:#FCB44B;}
	.st8{fill:#E55365;}
	.st9{fill:#85C54E;}
	.st10{fill:#010101;}
	.st11{fill:#FBBF9D;}
	.st12{fill:#F47536;}
	.st13{fill:#209DD8;}
	.st14{fill:#E982B5;}
	.st15{fill:#F7B132;}
	.st16{fill:#FAE807;}
	.st17{fill:#3D3D3C;}
	.st18{fill:#E4215D;}
	.st19{fill:#44C8F5;}
	.st20{fill:#FDB92E;}
	.st21{fill:#FFFFFF;}
	.st22{fill:#9C2E8C;}
	.st23{fill:#61318E;}
	.st24{fill:#1F82C2;}
	.st25{fill:#F3C7D6;}
	.st26{fill:#923D83;}
	.st27{fill:#3F5691;}
	.st28{fill:#EF8032;}
	.st29{fill:#FEFEFE;}
	.st30{fill:#FAF6F2;}
	.st31{fill:#93C04C;}
	.st32{fill:#EE5B27;}
	.st33{fill:none;stroke:#FFE8C2;stroke-miterlimit:10;}
	.st34{fill:none;stroke:#000000;stroke-miterlimit:10;}
	.st35{fill:#E01F26;}
	.st36{fill:#069848;}
	.st37{fill:#7E5024;}
	.st38{fill:#808285;}
</style>
<g>
	<path class="st22" d="M105.1,124.8C105.1,124.8,105.1,124.8,105.1,124.8L105.1,124.8C105.1,124.8,105.1,124.8,105.1,124.8z"/>
	<path class="st22" d="M96.2,105.8c-1.2,0.6-2.4,0.9-3.5,1c-0.2,0-0.4,0-0.6,0c-1.2,0-2.3-0.4-3.3-1.2c-0.7-0.6-1.2-1.3-1.6-2.1
		c-0.2-0.5-0.3-1-0.4-1.5c0-0.2,0-0.4,0-0.6c0-1.2,0.4-2.4,1.2-3.4c0.9-1.2,2.2-1.9,3.6-2c0.2,0,0.5,0,0.7,0c1.2,0,2.3,0.4,3.2,1.2
		c0.1,0.1,0.3,0.2,0.4,0.4l0,0.5L96.2,105.8z"/>
	<path class="st22" d="M65.2,96.1L65.2,96.1c-0.2-2.4-2.1-3.8-5.7-4.4c-1.1-0.2-2.3-0.2-3.8-0.2l1.1,8.4l0.2,1.5h0.2
		c3,0,5.2-0.5,6.5-1.6c1-0.8,1.5-1.9,1.5-3.3C65.2,96.4,65.2,96.3,65.2,96.1z M108.3,91.2c0-0.3,0-0.6,0-1l-1.4,18.1
		c3.4-1.9,6.4-4,6.9-6.2C114.5,98.5,109,97.7,108.3,91.2z M65.2,96.1L65.2,96.1c-0.2-2.4-2.1-3.8-5.7-4.4c-1.1-0.2-2.3-0.2-3.8-0.2
		l1.1,8.4l0.2,1.5h0.2c3,0,5.2-0.5,6.5-1.6c1-0.8,1.5-1.9,1.5-3.3C65.2,96.4,65.2,96.3,65.2,96.1z M65.2,96.1L65.2,96.1
		c-0.2-2.4-2.1-3.8-5.7-4.4c-1.1-0.2-2.3-0.2-3.8-0.2l1.1,8.4l0.2,1.5h0.2c3,0,5.2-0.5,6.5-1.6c1-0.8,1.5-1.9,1.5-3.3
		C65.2,96.4,65.2,96.3,65.2,96.1z M108.3,91.2c0-0.3,0-0.6,0-1l-1.4,18.1c3.4-1.9,6.4-4,6.9-6.2C114.5,98.5,109,97.7,108.3,91.2z
		 M65.2,96.1L65.2,96.1c-0.2-2.4-2.1-3.8-5.7-4.4c-1.1-0.2-2.3-0.2-3.8-0.2l1.1,8.4l0.2,1.5h0.2c3,0,5.2-0.5,6.5-1.6
		c1-0.8,1.5-1.9,1.5-3.3C65.2,96.4,65.2,96.3,65.2,96.1z M65.2,96.1L65.2,96.1c-0.2-2.4-2.1-3.8-5.7-4.4c-1.1-0.2-2.3-0.2-3.8-0.2
		l1.1,8.4l0.2,1.5h0.2c3,0,5.2-0.5,6.5-1.6c1-0.8,1.5-1.9,1.5-3.3C65.2,96.4,65.2,96.3,65.2,96.1z M101.2,60.8L101.2,60.8l0-0.7
		c-2.1-0.4-3.8-0.6-5.1-0.6c-2,0-3.1,0.5-3.2,1.5c0,0.2,0,0.4,0,0.6c0,1.3,0.6,2.3,1.9,2.9c1,0.5,2.5,0.8,4.3,0.8h0.1
		c0.7,0,1.5,0,2.3-0.1L101.2,60.8z M108.3,91.2c0-0.3,0-0.6,0-1l-1.4,18.1c3.4-1.9,6.4-4,6.9-6.2C114.5,98.5,109,97.7,108.3,91.2z
		 M65.2,96.1L65.2,96.1c-0.2-2.4-2.1-3.8-5.7-4.4c-1.1-0.2-2.3-0.2-3.8-0.2l1.1,8.4l0.2,1.5h0.2c3,0,5.2-0.5,6.5-1.6
		c1-0.8,1.5-1.9,1.5-3.3C65.2,96.4,65.2,96.3,65.2,96.1z M101.2,60.8L101.2,60.8l0-0.7c-2.1-0.4-3.8-0.6-5.1-0.6
		c-2,0-3.1,0.5-3.2,1.5c0,0.2,0,0.4,0,0.6c0,1.3,0.6,2.3,1.9,2.9c1,0.5,2.5,0.8,4.3,0.8h0.1c0.7,0,1.5,0,2.3-0.1L101.2,60.8z
		 M65.2,96.1L65.2,96.1c-0.2-2.4-2.1-3.8-5.7-4.4c-1.1-0.2-2.3-0.2-3.8-0.2l1.1,8.4l0.2,1.5h0.2c3,0,5.2-0.5,6.5-1.6
		c1-0.8,1.5-1.9,1.5-3.3C65.2,96.4,65.2,96.3,65.2,96.1z M101.2,60.8L101.2,60.8l0-0.7c-2.1-0.4-3.8-0.6-5.1-0.6
		c-2,0-3.1,0.5-3.2,1.5c0,0.2,0,0.4,0,0.6c0,1.3,0.6,2.3,1.9,2.9c1,0.5,2.5,0.8,4.3,0.8h0.1c0.7,0,1.5,0,2.3-0.1L101.2,60.8z
		 M108.3,91.2c0-0.3,0-0.6,0-1l-1.4,18.1c3.4-1.9,6.4-4,6.9-6.2C114.5,98.5,109,97.7,108.3,91.2z M65.2,96.1L65.2,96.1
		c-0.2-2.4-2.1-3.8-5.7-4.4c-1.1-0.2-2.3-0.2-3.8-0.2l1.1,8.4l0.2,1.5h0.2c3,0,5.2-0.5,6.5-1.6c1-0.8,1.5-1.9,1.5-3.3
		C65.2,96.4,65.2,96.3,65.2,96.1z M101.2,60.8L101.2,60.8l0-0.7c-2.1-0.4-3.8-0.6-5.1-0.6c-2,0-3.1,0.5-3.2,1.5c0,0.2,0,0.4,0,0.6
		c0,1.3,0.6,2.3,1.9,2.9c1,0.5,2.5,0.8,4.3,0.8h0.1c0.7,0,1.5,0,2.3-0.1L101.2,60.8z M65.2,96.1L65.2,96.1c-0.2-2.4-2.1-3.8-5.7-4.4
		c-1.1-0.2-2.3-0.2-3.8-0.2l1.1,8.4l0.2,1.5h0.2c3,0,5.2-0.5,6.5-1.6c1-0.8,1.5-1.9,1.5-3.3C65.2,96.4,65.2,96.3,65.2,96.1z
		 M101.2,60.8L101.2,60.8l0-0.7c-2.1-0.4-3.8-0.6-5.1-0.6c-2,0-3.1,0.5-3.2,1.5c0,0.2,0,0.4,0,0.6c0,1.3,0.6,2.3,1.9,2.9
		c1,0.5,2.5,0.8,4.3,0.8h0.1c0.7,0,1.5,0,2.3-0.1L101.2,60.8z M108.3,91.2c0-0.3,0-0.6,0-1l-1.4,18.1c3.4-1.9,6.4-4,6.9-6.2
		C114.5,98.5,109,97.7,108.3,91.2z M65.2,96.1L65.2,96.1c-0.2-2.4-2.1-3.8-5.7-4.4c-1.1-0.2-2.3-0.2-3.8-0.2l1.1,8.4l0.2,1.5h0.2
		c3,0,5.2-0.5,6.5-1.6c1-0.8,1.5-1.9,1.5-3.3C65.2,96.4,65.2,96.3,65.2,96.1z M101.2,60.8L101.2,60.8l0-0.7
		c-2.1-0.4-3.8-0.6-5.1-0.6c-2,0-3.1,0.5-3.2,1.5c0,0.2,0,0.4,0,0.6c0,1.3,0.6,2.3,1.9,2.9c1,0.5,2.5,0.8,4.3,0.8h0.1
		c0.7,0,1.5,0,2.3-0.1L101.2,60.8z M65.2,96.1L65.2,96.1c-0.2-2.4-2.1-3.8-5.7-4.4c-1.1-0.2-2.3-0.2-3.8-0.2l1.1,8.4l0.2,1.5h0.2
		c3,0,5.2-0.5,6.5-1.6c1-0.8,1.5-1.9,1.5-3.3C65.2,96.4,65.2,96.3,65.2,96.1z M65.2,96.1L65.2,96.1c-0.2-2.4-2.1-3.8-5.7-4.4
		c-1.1-0.2-2.3-0.2-3.8-0.2l1.1,8.4l0.2,1.5h0.2c3,0,5.2-0.5,6.5-1.6c1-0.8,1.5-1.9,1.5-3.3C65.2,96.4,65.2,96.3,65.2,96.1z
		 M65.2,96.1L65.2,96.1c-0.2-2.4-2.1-3.8-5.7-4.4c-1.1-0.2-2.3-0.2-3.8-0.2l1.1,8.4l0.2,1.5h0.2c3,0,5.2-0.5,6.5-1.6
		c1-0.8,1.5-1.9,1.5-3.3C65.2,96.4,65.2,96.3,65.2,96.1z M134.2,51.2c-1.3,0.3-2.6,0.6-3.9,1c-1.1,0.3-2.2,0.7-3.3,1.1
		c-0.3,0.1-0.7,0.3-0.8,0.6c-0.2,0.7,0.6,1.1,1.3,1.3c0.9,0.2,1.8,0.4,2.7,0.6c0.9,0.2,1.9,0.5,2.8,0.8c0.5,0.2,1,0.4,1.4,0.6
		C134.3,55.2,134.3,53.2,134.2,51.2z M65.2,96.1L65.2,96.1c-0.2-2.4-2.1-3.8-5.7-4.4c-1.1-0.2-2.3-0.2-3.8-0.2l1.1,8.4l0.2,1.5h0.2
		c3,0,5.2-0.5,6.5-1.6c1-0.8,1.5-1.9,1.5-3.3C65.2,96.4,65.2,96.3,65.2,96.1z M65.2,96.1L65.2,96.1c-0.2-2.4-2.1-3.8-5.7-4.4
		c-1.1-0.2-2.3-0.2-3.8-0.2l1.1,8.4l0.2,1.5h0.2c3,0,5.2-0.5,6.5-1.6c1-0.8,1.5-1.9,1.5-3.3C65.2,96.4,65.2,96.3,65.2,96.1z
		 M65.2,96.1L65.2,96.1c-0.2-2.4-2.1-3.8-5.7-4.4c-1.1-0.2-2.3-0.2-3.8-0.2l1.1,8.4l0.2,1.5h0.2c3,0,5.2-0.5,6.5-1.6
		c1-0.8,1.5-1.9,1.5-3.3C65.2,96.4,65.2,96.3,65.2,96.1z M133.5,72.9c-2.6,1.7-5.7,2.4-8.7,2.4l0,0c0,0,0,0,0,0h0
		c-0.5,0-1,0-1.4-0.1c-3.3-0.2-6.6-1.3-9.7-2.5c-0.2-0.1-0.4-0.2-0.6-0.2c1-3.4,2-6.8,3-10.1c0.3,0.1,0.6,0.3,0.9,0.4
		c2.3,1,4.9,1.5,7.4,1.5c0.2,0,0.5,0,0.7-0.1c0.5-0.3,0.4-1.1,0-1.5c-0.4-0.4-1-0.5-1.5-0.7c0,0,0,0,0,0c-1.9-0.4-3.9-0.9-5.6-2
		c-0.1-0.1-0.2-0.2-0.3-0.2c-2.4-1.8-3.5-5-3-8c0.3-1.8,1.3-3.5,2.6-4.8c1.1-1.2,2.5-2.2,3.9-3c1.3-0.8,2.7-1.3,4.1-1.8
		c1.2-0.4,2.5-0.8,3.8-1.1c1.6-0.4,3.2-0.7,4.8-0.9c-0.4-7.5-1-12.9-1.6-16.7c-0.4,0-0.8,0.1-1.1,0.1c-0.3,0-0.5,0.1-0.8,0.1
		c-0.3,0-0.6,0-1,0.1s-0.6,0-1,0c-0.5,0-1.1,0-1.7-0.1s-1.1-0.1-1.7-0.2c0,0-0.8-0.4-2-1.1l-0.6-0.4c-1.7-1-3.8-2.5-5-4.1l-1.9-2.4
		c-0.2-0.2-0.4-0.3-0.5-0.5c-0.9-1.3-2-2.5-3.2-3.5L111.6,22l-0.2,8.1l-0.1,6.4l-0.5,22l-0.3,14.1c-3.8,1.2-7.4,1.8-10.7,1.8
		c-3.3,0-6.3-0.6-9.1-1.8c-0.1,0-0.2-0.1-0.3-0.1c-4.8-2.1-7.2-5.8-7.2-11.1c0-1.1,0.1-2.2,0.3-3.5c0.9-5.6,4.6-8.4,11.1-8.4
		c1.1,0,2.3,0.1,3.6,0.2c0.9,0.1,1.7,0.2,2.7,0.4l0.2,0l-0.1-5.1l-0.1-5.9l-0.2-9.2l-0.4-20.9c-0.2,0-0.4,0.1-0.6,0.2
		c-0.2,0.1-0.4,0.1-0.6,0.2c-0.4,0.1-0.8,0.3-1.1,0.5c0,0,0,0-0.1,0c-0.3,0.2-0.6,0.3-0.9,0.5c-0.1,0-0.1,0.1-0.2,0.1
		c0,0-0.1,0-0.1,0c-0.1,0.1-0.2,0.2-0.3,0.2c0,0-0.1,0.1-0.1,0.1c-0.1,0.1-0.2,0.2-0.3,0.3c-0.1,0.1-0.2,0.2-0.3,0.3
		c-0.1,0.1-0.1,0.1-0.2,0.2c-0.1,0.1-0.2,0.2-0.4,0.4c-0.1,0.2-0.3,0.3-0.4,0.5c-0.8,1-1.5,1.9-2.3,2.9c-0.1,0.2-0.3,0.3-0.4,0.5
		c0,0,0,0.1-0.1,0.1c-0.2,0.2-0.4,0.5-0.6,0.7c-0.2,0.2-0.4,0.4-0.6,0.6c-0.4,0.5-0.9,0.9-1.4,1.3c-0.1,0.1-0.3,0.2-0.5,0.3
		c-0.3,0.2-0.5,0.3-0.8,0.5c-0.3,0.2-0.5,0.3-0.8,0.5c-0.9,1.8-1.7,3.6-2.3,5.2c-0.8,2-1.4,3.6-1.5,4.4c-0.1,0.8-2.2,3.3-5.4,6.8
		c-0.4,0.5-0.9,0.9-1.3,1.4c0.6,0.2,1.2,0.7,1.7,1.2c1,1,1.4,2.3,1.4,3.8c0,1.5-0.5,2.7-1.4,3.8c-1,1-2.1,1.6-3.5,1.6
		c-1.1,0-2-0.3-2.8-1c-0.2-0.2-0.4-0.4-0.7-0.6c-0.1-0.1-0.2-0.3-0.3-0.4c-0.3-0.5-0.6-1-0.8-1.5c-0.3,0.4-0.7,0.7-1,1.1l0,0
		c-3.4,3.6-7.2,7.6-11,11.7l2.8,1.9h0l1.2,0.8l2.1,1.4l3.3,2.2c-0.1,0.2-0.1,0.3-0.2,0.5l0,0L58,72.6l-0.9,0.8l-2.2-3L51,65.3
		c-0.2,0.2-0.3,0.4-0.5,0.6l0.8,5.2l-6.7,1.4c-0.7,0.8-1.4,1.5-2,2.3c-1.4,1.7-2.8,3.3-4,4.8c0,0,0,0,0,0c-0.6,0.8-1.2,1.6-1.8,2.3
		c-1.3,1.8-2.5,3.4-3.3,4.8c-1,1.6-1.7,3-2.3,4.3c0,0,0,0,0,0c-1.6,3.2-2.2,5.6-2.3,7.8v0c-0.1,2.9,0.8,5.4,2.1,8.5
		c1,2.6,2.3,5.5,3.4,9.6c0.7,2.6,1.7,4.6,2.8,6.4c0.6,0.9,1.2,1.7,1.9,2.4c0.2-0.2,0.5-0.3,0.8-0.5c0.4,0,0.7-0.2,1-0.3
		c1.6-0.8,3.2-1.7,5-1.8l0.5,0.6c0.8,1.5,1.6,3,2.7,4.3c0.3,0.4,0.6,0.7,0.9,0.8c0.7,0.5,1.5,0.5,2.6,0c1.2-0.5,2.4-1.1,3.5-1.8
		c0.3-0.2,0.6-0.3,1-0.3c0.2,0.2,0.4,0.5,0.6,0.7c1.7,2,3,4.3,4.5,6.5c0.9,1.3,2,2.4,3.2,3.2v0c1.9,1.3,4.1,2,6.7,2
		c1.2,0,2.3-0.2,3.5-0.4c1.5-0.3,3-0.7,4.4-1.4c1.2-0.5,2.2-1.1,3.2-1.8c0,0,0.1,0,0.1-0.1c1.5-1,2.9-2.2,4.2-3.4
		c1.4-1.3,3-2.4,4.5-3.6c1.7-1.4,3.6-2.4,5.7-3.1c0.3-0.1,0.7-0.2,1-0.3c1.3-0.3,2.7-0.4,4-0.3l9.3-13.3l5.6-8.1l-8.6-11.2l9.9-7
		l4.4,8.5l1.8-3l3.8-6.4l3.3,1.9c0.2-0.5,0.4-1.1,0.5-1.7c0.8-3.1,1.2-7.2,1.4-12C134.1,72.4,133.8,72.6,133.5,72.9z M78.5,50.2
		l1-0.1l0.1,0l1.8,22l-8.3,1.7l-3.8,0.8l0.3-7.4L69.9,57l0.1-4.7v0c0-0.1,0-0.2,0-0.4c0.2-0.3,0.4-0.6,0.5-1h0L78.5,50.2z
		 M44.6,116.2L44.6,116.2c-0.5,0-1,0-1.4,0l-0.7-16l-0.5-12.6l-0.2-3.9l-0.1-2.8c0.9,0,1.8,0,2.7,0c0.8,0,1.6,0,2.3,0.1
		c2.2,0.1,4.2,0.3,6.2,0.5c1.9,0.2,3.8,0.5,5.5,0.9c7,1.5,12.3,4.1,15.3,7.8c1.1,1.3,1.9,2.7,2.3,4.3c0.4,1.3,0.6,2.6,0.6,4.1
		c0,0.4,0,0.7,0,1.1c0,0,0,0,0,0c-0.3,4.7-2.9,8.4-7.3,11.1C63.7,114.2,55.1,116,44.6,116.2z M106.4,115.1l-8.5,2.6l-1.3,0.4v-1.4
		c-0.6,0.1-1.2,0.2-1.8,0.3c-0.6,0.1-1.3,0.1-1.9,0.1c-1,0-2-0.1-3-0.3c-2.2-0.5-4.3-1.6-6.3-3.2c-1.9-1.5-3.2-3.3-4-5.5
		c-0.5-1.2-0.8-2.6-1-4.1c-0.1-0.6-0.1-1.1-0.1-1.7c0-3.4,1.2-6.6,3.6-9.6c1.4-1.8,3.1-3.1,5.1-4c0,0,0,0,0,0
		c0.9-0.3,1.8-0.6,2.7-0.9c0,0,0,0,0,0c0.6-0.1,1.2-0.2,1.8-0.3c0.6-0.1,1.3-0.1,1.9-0.1c0.7,0,1.3,0,2,0.1l-0.1-1.4l11.3-0.6
		l1.8-0.1l-0.3,3.6l-0.1,1.2v0l-1.4,18.1l-0.2,2.5L106.4,115.1z M65.2,96.1c-0.2-2.4-2.1-3.8-5.7-4.4c-1.1-0.2-2.3-0.2-3.8-0.2
		l1.1,8.4l0.2,1.5h0.2c3,0,5.2-0.5,6.5-1.6c1-0.8,1.5-1.9,1.5-3.3C65.2,96.4,65.2,96.3,65.2,96.1L65.2,96.1z M65.2,96.1L65.2,96.1
		c-0.2-2.4-2.1-3.8-5.7-4.4c-1.1-0.2-2.3-0.2-3.8-0.2l1.1,8.4l0.2,1.5h0.2c3,0,5.2-0.5,6.5-1.6c1-0.8,1.5-1.9,1.5-3.3
		C65.2,96.4,65.2,96.3,65.2,96.1z M65.2,96.1L65.2,96.1c-0.2-2.4-2.1-3.8-5.7-4.4c-1.1-0.2-2.3-0.2-3.8-0.2l1.1,8.4l0.2,1.5h0.2
		c3,0,5.2-0.5,6.5-1.6c1-0.8,1.5-1.9,1.5-3.3C65.2,96.4,65.2,96.3,65.2,96.1z M65.2,96.1L65.2,96.1c-0.2-2.4-2.1-3.8-5.7-4.4
		c-1.1-0.2-2.3-0.2-3.8-0.2l1.1,8.4l0.2,1.5h0.2c3,0,5.2-0.5,6.5-1.6c1-0.8,1.5-1.9,1.5-3.3C65.2,96.4,65.2,96.3,65.2,96.1z
		 M65.2,96.1L65.2,96.1c-0.2-2.4-2.1-3.8-5.7-4.4c-1.1-0.2-2.3-0.2-3.8-0.2l1.1,8.4l0.2,1.5h0.2c3,0,5.2-0.5,6.5-1.6
		c1-0.8,1.5-1.9,1.5-3.3C65.2,96.4,65.2,96.3,65.2,96.1z M65.2,96.1L65.2,96.1c-0.2-2.4-2.1-3.8-5.7-4.4c-1.1-0.2-2.3-0.2-3.8-0.2
		l1.1,8.4l0.2,1.5h0.2c3,0,5.2-0.5,6.5-1.6c1-0.8,1.5-1.9,1.5-3.3C65.2,96.4,65.2,96.3,65.2,96.1z M101.2,60.8L101.2,60.8l0-0.7
		c-2.1-0.4-3.8-0.6-5.1-0.6c-2,0-3.1,0.5-3.2,1.5c0,0.2,0,0.4,0,0.6c0,1.3,0.6,2.3,1.9,2.9c1,0.5,2.5,0.8,4.3,0.8h0.1
		c0.7,0,1.5,0,2.3-0.1L101.2,60.8z M100.2,9.3L100.2,9.3c0.1,0,0.1,0,0.2,0C100.3,9.2,100.2,9.3,100.2,9.3z M65.2,96.1L65.2,96.1
		c-0.2-2.4-2.1-3.8-5.7-4.4c-1.1-0.2-2.3-0.2-3.8-0.2l1.1,8.4l0.2,1.5h0.2c3,0,5.2-0.5,6.5-1.6c1-0.8,1.5-1.9,1.5-3.3
		C65.2,96.4,65.2,96.3,65.2,96.1z M101.2,60.8L101.2,60.8l0-0.7c-2.1-0.4-3.8-0.6-5.1-0.6c-2,0-3.1,0.5-3.2,1.5c0,0.2,0,0.4,0,0.6
		c0,1.3,0.6,2.3,1.9,2.9c1,0.5,2.5,0.8,4.3,0.8h0.1c0.7,0,1.5,0,2.3-0.1L101.2,60.8z M65.2,96.1L65.2,96.1c-0.2-2.4-2.1-3.8-5.7-4.4
		c-1.1-0.2-2.3-0.2-3.8-0.2l1.1,8.4l0.2,1.5h0.2c3,0,5.2-0.5,6.5-1.6c1-0.8,1.5-1.9,1.5-3.3C65.2,96.4,65.2,96.3,65.2,96.1z
		 M108.3,91.2c0-0.3,0-0.6,0-1l-1.4,18.1c3.4-1.9,6.4-4,6.9-6.2C114.5,98.5,109,97.7,108.3,91.2z M101.2,60.8L101.2,60.8l0-0.7
		c-2.1-0.4-3.8-0.6-5.1-0.6c-2,0-3.1,0.5-3.2,1.5c0,0.2,0,0.4,0,0.6c0,1.3,0.6,2.3,1.9,2.9c1,0.5,2.5,0.8,4.3,0.8h0.1
		c0.7,0,1.5,0,2.3-0.1L101.2,60.8z M65.2,96.1L65.2,96.1c-0.2-2.4-2.1-3.8-5.7-4.4c-1.1-0.2-2.3-0.2-3.8-0.2l1.1,8.4l0.2,1.5h0.2
		c3,0,5.2-0.5,6.5-1.6c1-0.8,1.5-1.9,1.5-3.3C65.2,96.4,65.2,96.3,65.2,96.1z M101.2,60.8L101.2,60.8l0-0.7
		c-2.1-0.4-3.8-0.6-5.1-0.6c-2,0-3.1,0.5-3.2,1.5c0,0.2,0,0.4,0,0.6c0,1.3,0.6,2.3,1.9,2.9c1,0.5,2.5,0.8,4.3,0.8h0.1
		c0.7,0,1.5,0,2.3-0.1L101.2,60.8z M65.2,96.1L65.2,96.1c-0.2-2.4-2.1-3.8-5.7-4.4c-1.1-0.2-2.3-0.2-3.8-0.2l1.1,8.4l0.2,1.5h0.2
		c3,0,5.2-0.5,6.5-1.6c1-0.8,1.5-1.9,1.5-3.3C65.2,96.4,65.2,96.3,65.2,96.1z M108.3,91.2c0-0.3,0-0.6,0-1l-1.4,18.1
		c3.4-1.9,6.4-4,6.9-6.2C114.5,98.5,109,97.7,108.3,91.2z M101.2,60.8L101.2,60.8l0-0.7c-2.1-0.4-3.8-0.6-5.1-0.6
		c-2,0-3.1,0.5-3.2,1.5c0,0.2,0,0.4,0,0.6c0,1.3,0.6,2.3,1.9,2.9c1,0.5,2.5,0.8,4.3,0.8h0.1c0.7,0,1.5,0,2.3-0.1L101.2,60.8z
		 M65.2,96.1L65.2,96.1c-0.2-2.4-2.1-3.8-5.7-4.4c-1.1-0.2-2.3-0.2-3.8-0.2l1.1,8.4l0.2,1.5h0.2c3,0,5.2-0.5,6.5-1.6
		c1-0.8,1.5-1.9,1.5-3.3C65.2,96.4,65.2,96.3,65.2,96.1z M65.2,96.1L65.2,96.1c-0.2-2.4-2.1-3.8-5.7-4.4c-1.1-0.2-2.3-0.2-3.8-0.2
		l1.1,8.4l0.2,1.5h0.2c3,0,5.2-0.5,6.5-1.6c1-0.8,1.5-1.9,1.5-3.3C65.2,96.4,65.2,96.3,65.2,96.1z M108.3,91.2c0-0.3,0-0.6,0-1
		l-1.4,18.1c3.4-1.9,6.4-4,6.9-6.2C114.5,98.5,109,97.7,108.3,91.2z M65.2,96.1L65.2,96.1c-0.2-2.4-2.1-3.8-5.7-4.4
		c-1.1-0.2-2.3-0.2-3.8-0.2l1.1,8.4l0.2,1.5h0.2c3,0,5.2-0.5,6.5-1.6c1-0.8,1.5-1.9,1.5-3.3C65.2,96.4,65.2,96.3,65.2,96.1z
		 M65.2,96.1L65.2,96.1c-0.2-2.4-2.1-3.8-5.7-4.4c-1.1-0.2-2.3-0.2-3.8-0.2l1.1,8.4l0.2,1.5h0.2c3,0,5.2-0.5,6.5-1.6
		c1-0.8,1.5-1.9,1.5-3.3C65.2,96.4,65.2,96.3,65.2,96.1z M108.3,91.2c0-0.3,0-0.6,0-1l-1.4,18.1c3.4-1.9,6.4-4,6.9-6.2
		C114.5,98.5,109,97.7,108.3,91.2z M65.2,96.1L65.2,96.1c-0.2-2.4-2.1-3.8-5.7-4.4c-1.1-0.2-2.3-0.2-3.8-0.2l1.1,8.4l0.2,1.5h0.2
		c3,0,5.2-0.5,6.5-1.6c1-0.8,1.5-1.9,1.5-3.3C65.2,96.4,65.2,96.3,65.2,96.1z M108.3,91.2c0-0.3,0-0.6,0-1l-1.4,18.1
		c3.4-1.9,6.4-4,6.9-6.2C114.5,98.5,109,97.7,108.3,91.2z"/>
</g>
<g>
	<path class="st22" d="M96.2,105.8c-1.2,0.6-2.4,0.9-3.5,1c-0.2,0-0.4,0-0.6,0c-1.2,0-2.3-0.4-3.3-1.2c-0.7-0.6-1.2-1.3-1.6-2.1
		c3.1-1.3,6.1-3.2,8.8-5.5L96.2,105.8z"/>
	<path class="st22" d="M98.8,28.5l-7-12.2c0.1-0.2,0.3-0.3,0.4-0.5c0.8-0.9,1.5-1.9,2.3-2.9c0.1-0.2,0.3-0.3,0.4-0.5
		c0.1-0.1,0.2-0.3,0.4-0.4c0.1-0.1,0.1-0.1,0.2-0.2c0.1-0.1,0.2-0.2,0.3-0.3c0.1-0.1,0.2-0.2,0.3-0.3c0.1,0,0.1-0.1,0.1-0.1
		c0.1-0.1,0.2-0.2,0.3-0.2c0,0,0.1,0,0.1,0c0.1,0,0.1-0.1,0.2-0.1c0.3-0.2,0.6-0.4,0.9-0.5c0,0,0,0,0.1,0c0.4-0.2,0.7-0.4,1.1-0.5
		c0.2-0.1,0.4-0.2,0.6-0.2c0.2-0.1,0.4-0.1,0.6-0.2l0.4,20.9c-0.2,0.5-0.4,0.7-0.4,0.7L98.8,28.5z"/>
	<path class="st22" d="M117.1,46.8c-1.4-4.4-3.9-7.2-5.9-10.3l0.1-6.4l0.2-8.1l0.2-10.8c1.2,1,2.3,2.1,3.2,3.5
		c0.1,0.2,0.3,0.3,0.5,0.5l1.9,2.4c1.2,1.6,3.3,3,5,4.1l0.6,0.4c1.2,0.7,2,1.1,2,1.1c0.5,0.1,1.1,0.2,1.7,0.2s1.1,0.1,1.7,0.1
		c0.3,0,0.6,0,1,0s0.6,0,1-0.1c0.3,0,0.5,0,0.8-0.1c0.4,0,0.8-0.1,1.1-0.1c0.8-0.1,1.6-0.2,2.4-0.3c1.6-0.2,3.2-0.5,4.7-0.5
		c0.7,0,1.3,0,2,0c0.1,0,0.1,0,0.2,0c0.4,0,0.7,0.1,1.1,0.1c0.7,0.1,1.3,0.2,2,0.4c0.8,0.2,1.6,0.4,2.3,0.9c0.6,0.1,1,0.4,1.5,0.8
		c0.4,0.2,0.8,0.4,1.1,0.8c0.6,0.3,1,0.7,1.4,1.3c0.4,0.6,1,1,1.3,1.5c1.3,1.9,2,4,1.9,6.3c-0.1,1.9-0.6,3.7-1.5,5.3
		c-2.4-0.2-4.8-0.4-7.2-0.4c-3.5-0.1-7,0.1-10.4,0.6c-0.3,0-0.7,0.1-1,0.1c-1.6,0.2-3.2,0.6-4.8,0.9c-1.3,0.3-2.6,0.7-3.8,1.1
		c-1.4,0.5-2.8,1.1-4.1,1.8C119.6,44.6,118.3,45.6,117.1,46.8z"/>
	<path class="st22" d="M125.1,62.5c0.4,0.4,0.5,1.2,0,1.5c-0.2,0.1-0.5,0.1-0.7,0.1c-2.5,0-5.1-0.5-7.4-1.5c0.3-1.1,0.5-2.1,0.7-3.1
		c0.1,0.1,0.2,0.2,0.3,0.2c1.6,1.1,3.6,1.6,5.6,2c0,0,0,0,0,0C124.1,62,124.7,62.1,125.1,62.5z"/>
	<path class="st22" d="M155.1,77.6c-1.3,3-1.4,6-0.2,9.1c0.8,2,2.2,3.6,3.5,5.2c1.3,1.5,2.6,3,3.5,4.9c0.5,1.1,0.9,2.1,0.9,3.3
		c0.3,2.5-0.1,4.8-1.7,6.8c-1.7,2.1-4.1,2.9-6.7,3c-0.6,0-1.2,0-1.9,0c-1.4,0-2.8,0-4.2,0c-3.8,0.3-6.2,2.4-7.6,5.8
		c-1.1,2.5-1.5,5.1-2,7.7c-0.3,1.3-0.6,2.6-1.1,3.9c-1.3,3.8-4.1,5.7-7.9,6.4c-3.2,0.6-6.2,0-9.2-1.3c-2.5-1.1-4.8-2.5-7.1-4
		c-0.3-0.2-0.6-0.3-0.9-0.5c-0.2-0.1-0.4-0.2-0.6-0.3l8.8-11.1l12.1-15.3l1.5-1.9l6.1-7.7c-0.9-1-1.8-2-2.8-3l-2.7-1.6l-2.2-1.3
		l-3.3-1.9l-3.8,6.4l-1.8,3l-4.4-8.5l-9.9,7l8.6,11.2l-5.6,8.1l-9.3,13.3c-1.4-0.1-2.7,0-4,0.3c-0.4,0.1-0.7,0.2-1,0.3
		c-2.1,0.6-4,1.7-5.7,3.1c-1.5,1.2-3.1,2.3-4.5,3.6c-1.3,1.2-2.8,2.3-4.2,3.4c0,0-0.1,0-0.1,0.1c-1,0.7-2.1,1.4-3.2,1.8
		c-1.4,0.7-2.8,1.1-4.4,1.4c-1.2,0.2-2.3,0.4-3.5,0.4c-2.6,0-4.8-0.7-6.7-2v0c0-0.4,1.7-18.7,14-28.8c0.8,2.2,2.2,4,4,5.5
		c2,1.6,4.1,2.7,6.3,3.2c1,0.2,2,0.3,3,0.3c0.6,0,1.2,0,1.9-0.1c0.6-0.1,1.2-0.2,1.8-0.3v1.4l1.3-0.4l8.5-2.6l0.3-4.3l0.2-2.5
		l1.4-18.1v0l0.1-1.2l0.3-3.6l-1.8,0.1c2.7-4.1,5-8.5,6.8-12.8c3.1,1.3,6.3,2.3,9.7,2.5c0.5,0,1,0.1,1.4,0.1h0c0,0,0,0,0,0l0,0
		c3.1,0,6.2-0.7,8.7-2.4c0.3-0.2,0.7-0.5,1-0.7c2.5-2,4.1-5,4.2-8.1c0-1.5-0.3-3-1.1-4.2c-0.8-1.1-1.8-2-3.1-2.7
		c-0.5-0.2-0.9-0.5-1.4-0.6c-0.9-0.3-1.9-0.6-2.8-0.8c-0.9-0.2-1.8-0.4-2.7-0.6c-0.7-0.2-1.5-0.6-1.3-1.3c0.1-0.3,0.5-0.5,0.8-0.6
		c1.1-0.4,2.2-0.8,3.3-1.1c1.3-0.4,2.6-0.7,3.9-1c2.2-0.5,4.5-0.9,6.8-1.1c2-0.2,4-0.3,5.9-0.3c0.2,0,0.5,0,0.7,0c0.1,0,0.2,0,0.3,0
		c0.1,0,0.1,0,0.2,0c0.3,2.2,1.6,4.2,3.2,5.6c0.1,0.1,0.2,0.2,0.4,0.3c0.1,0.1,0.2,0.2,0.4,0.3c0,0,0,0,0.1,0
		c1.5,1.1,3.4,1.8,5.3,2.2c0.1,0,0.3,0,0.4,0.1c0.1,0,0.3,0,0.4,0c0.1,0,0.2-0.1,0.3-0.2c0,0,0.1-0.1,0.1-0.1
		c0.2-0.2,0.7-0.3,1.2-0.2h0c1.1,0.1,2.4,0.6,2.9,0.8c0.4,0.2,0.8,0.5,1.1,0.8c0.1,0.1,0.2,0.2,0.2,0.2c0.1,0.1,0.1,0.2,0.2,0.3
		c0.1,0.1,0.1,0.2,0.2,0.3c0.1,0.1,0.1,0.2,0.2,0.3c0,0.1,0.1,0.1,0.1,0.2c0.7,1.2,0.8,2.7,0.3,4.3c-0.3,1.7-1.2,3.2-2.4,4.5
		c-1.1,1.3-2.4,2.4-3.7,3.5C157.5,74.2,156.1,75.7,155.1,77.6z"/>
</g>
<g>
	<path class="st22" d="M65.2,96.5c0,1.4-0.5,2.5-1.5,3.3c-1.3,1-3.5,1.6-6.5,1.6h-0.2l-0.2-1.5l-1.1-8.4c1.4,0,2.7,0.1,3.8,0.2
		c3.6,0.6,5.5,2,5.7,4.4v0C65.2,96.3,65.2,96.4,65.2,96.5z"/>
	<path class="st22" d="M69.3,110.7c-0.2,2.9-0.5,5.7-2,8.1c-2.5,4.3-7.6,6.3-12.4,7.5c-1.8,0.4-3.8,0.9-4.9,2.3c0,0,0,0,0,0
		c-0.3-0.2-0.6-0.5-0.9-0.8c-1.1-1.3-2-2.8-2.7-4.3l-0.5-0.6c-1.8,0.1-3.4,1-5,1.8c-0.3,0.2-0.6,0.3-1,0.3c-0.2,0.2-0.5,0.3-0.8,0.5
		c-0.2,0.1-0.5,0.3-0.7,0.4c-1.2,0.7-2.4,1.3-3.7,1.6c-2.3,0.8-4.4,0.2-6.2-1.4c-0.5-0.5-1-1-1.3-1.5c-1.1-1.7-1.5-3.7-1.4-5.8
		c0-0.9-0.1-1.9,0.2-2.8c0-1.3,0-2.7-0.1-4c0-0.8-0.2-1.5-0.4-2.2c-0.2-0.6-0.5-1.2-0.8-1.7c-0.1-0.1-0.1-0.2-0.2-0.3
		c-0.2-0.4-0.5-0.7-0.8-1.1c0,0-0.1-0.1-0.1-0.1c1.6-2.7,3.4-5.2,5.3-7.8v0c3.3-4.5,7.1-8.8,10.8-12.9c0.7-0.7,1.3-1.4,2-2.1
		l0.2,3.9l0.5,12.6l0.7,16c0.5,0,1,0,1.4,0h0C55.1,116,63.7,114.2,69.3,110.7z"/>
	<path class="st22" d="M101.5,65.1c-0.8,0.1-1.6,0.1-2.3,0.1h-0.1c-1.8,0-3.3-0.2-4.3-0.8c-1.3-0.6-1.9-1.6-1.9-2.9
		c0-0.2,0-0.4,0-0.6c0.1-1,1.2-1.5,3.2-1.5c1.3,0,3,0.2,5.1,0.6l0,0.7v0L101.5,65.1z"/>
	<path class="st22" d="M111,74.6c-2.5,5-7.6,8.3-12.8,10.4c-2.7,1.1-5.5,1.9-8.3,2.8c0,0,0,0,0,0c-0.9,0.3-1.8,0.6-2.7,0.9
		c0,0,0,0,0,0c-1.7,0.6-3.3,1.2-4.9,1.9c-1.2,0.5-2.4,1.2-3.5,1.9c-1,0.6-1.9,1.3-2.8,2c-0.5-1.6-1.3-3-2.3-4.3
		c-3-3.7-8.3-6.3-15.3-7.8c-1.7-0.4-3.6-0.7-5.5-0.9c-1.9-0.2-4-0.4-6.2-0.5c-0.8,0-1.5-0.1-2.3-0.1c0.5-0.6,1.1-1.1,1.6-1.7
		c0.7-0.7,1.3-1.4,2-2c2.3-2.3,4.6-4.6,6.9-6.8l2.2,3l0.9-0.8l9.3-8.1l0,0c0.1-0.1,0.1-0.3,0.2-0.5l-3.3-2.2c1.7-1.5,3.5-3,5.2-4.4
		c0.2-0.1,0.3-0.3,0.5-0.4l-0.2,10.2l-0.3,7.4l3.8-0.8l8.3-1.7l-1.8-22l-0.1,0l-1,0.1c1.5-1.1,3-2.2,4.5-3.3c0,0,0,0,0,0
		c2.7-2,5.5-3.9,8.3-5.8c0.9-0.6,1.9-1.2,2.9-1.1c1.1,0.1,2,0.9,2.8,1.6c0.4,0.4,0.8,0.7,1.2,1.1c0.9,0.8,1.8,1.7,2.6,2.5l0.1,5.1
		l-0.2,0c-0.9-0.2-1.8-0.3-2.7-0.4c-1.3-0.2-2.5-0.2-3.6-0.2c-6.5,0-10.2,2.8-11.1,8.4c-0.2,1.2-0.3,2.4-0.3,3.5
		c0,5.3,2.4,9,7.2,11.1c0.1,0,0.2,0.1,0.3,0.1c2.8,1.2,5.9,1.8,9.1,1.8c3.3,0,6.9-0.6,10.7-1.8l0.3-14.1
		C112.9,63.7,113.4,69.6,111,74.6z"/>
</g>
<g>
	<path class="st22" d="M65.2,96.5c0,1.4-0.5,2.5-1.5,3.3c-0.9-0.6-1.7-1.4-2.4-2.4c-0.8-1.2-1.4-2.7-1.6-4.6
		c-0.1-0.4-0.1-0.7-0.2-1.1c3.6,0.6,5.5,2,5.7,4.4v0C65.2,96.3,65.2,96.4,65.2,96.5z"/>
	<path class="st22" d="M101.2,60.1c-2.1-0.4-3.8-0.6-5.1-0.6c-2,0-3.1,0.5-3.2,1.5c0,0.2,0,0.4,0,0.6c0,1.3,0.6,2.3,1.9,2.9
		c1,0.5,2.5,0.8,4.3,0.8h0.1c1-1.3,1.7-2.8,2-4.4v0L101.2,60.1z M100.7,39.3l-0.2-9.2l-0.4-20.9c-0.2,0-0.4,0.1-0.6,0.2
		c-0.2,0.1-0.4,0.1-0.6,0.2c-0.4,0.1-0.8,0.3-1.1,0.5c0,0,0,0-0.1,0c-0.3,0.2-0.6,0.3-0.9,0.5c-0.1,0-0.1,0.1-0.2,0.1
		c0,0-0.1,0-0.1,0c-0.1,0.1-0.2,0.2-0.3,0.2c0,0-0.1,0.1-0.1,0.1c-0.1,0.1-0.2,0.2-0.3,0.3c-0.1,0.1-0.2,0.2-0.3,0.3
		c-0.1,0.1-0.1,0.1-0.2,0.2c-0.1,0.1-0.2,0.2-0.4,0.4c-0.1,0.2-0.3,0.3-0.4,0.5c-0.8,1-1.5,1.9-2.3,2.9c-0.1,0.2-0.3,0.3-0.4,0.5
		c0,0,0,0.1-0.1,0.1c-0.2,0.2-0.4,0.5-0.6,0.7c-0.2,0.2-0.4,0.4-0.6,0.6c-0.4,0.5-0.9,0.9-1.4,1.3c-0.1,0.1-0.3,0.2-0.5,0.3
		c-0.3,0.2-0.5,0.3-0.8,0.5c-0.3,0.2-0.5,0.3-0.8,0.5c-2.7,1.5-5.6,2.2-8.7,2.2c-0.2,0-0.4,0-0.7,0c-0.3,1.4-0.6,2.7-0.8,3.9
		c-0.5,2.4-0.9,4.2-1,4.7c-0.1,0.6-1.4,3.4-3.1,7.2c0.6-0.3,1.2-0.4,1.9-0.4c0.4,0,0.8,0,1.1,0.1c0.2,0,0.5,0.1,0.7,0.2
		c0.6,0.2,1.2,0.7,1.7,1.2c1,1,1.4,2.3,1.4,3.8c0,1.5-0.5,2.7-1.4,3.8c-1,1-2.1,1.6-3.5,1.6c-1.1,0-2-0.3-2.8-1
		c-0.2-0.2-0.4-0.4-0.7-0.6c-0.1-0.1-0.2-0.3-0.3-0.4c-0.3-0.5-0.6-1-0.8-1.5c-0.1-0.2-0.1-0.5-0.2-0.7c-0.3,0.6-0.6,1.2-0.8,1.8
		l0,0c-2.1,4.4-4.3,9-6.1,12.7c-0.3,0.6-0.6,1.2-0.8,1.7l2.1,1.4l3.3,2.2c-0.1,0.2-0.1,0.3-0.2,0.5l0,0L58,72.6
		c-0.1,1.5-0.1,3,0,4.6c0.1,1.7,0.2,3.5,0.4,5.2c7,1.5,12.3,4.1,15.3,7.8c1.1,1.3,1.9,2.7,2.3,4.3c0.4,1.3,0.6,2.6,0.6,4.1
		c0,0.4,0,0.7,0,1.1c0.9-1.7,1.5-4.3,2.2-7.1C80,87,81.3,80.4,85,76.9c1.6-1.5,3.6-2.9,5.6-4.3c-0.1,0-0.2-0.1-0.3-0.1
		c-4.8-2.1-7.2-5.8-7.2-11.1c0-1.1,0.1-2.2,0.3-3.5c0.9-5.6,4.6-8.4,11.1-8.4c1.1,0,2.3,0.1,3.6,0.2c-0.3-0.9-0.6-1.8-0.8-2.7
		c-0.2-1.6,0.2-3.1,0.9-4.5C98.8,41.5,99.7,40.3,100.7,39.3z M73.1,73.8l-3.8,0.8l0.3-7.4L69.9,57l0.1-4.7v0c0-0.1,0-0.2,0-0.4
		c0.2-0.3,0.4-0.6,0.5-1h0l7.9-0.7l1-0.1l0.1,0l1.8,22L73.1,73.8z M72.2,42.6c0,0.1-0.1,0.1-0.1,0.2C72.1,42.8,72.2,42.7,72.2,42.6
		C72.2,42.7,72.2,42.6,72.2,42.6z"/>
</g>
<g>
	<path class="st22" d="M65.2,96.1L65.2,96.1c-1,0.3-2.1,0.7-3.1,1c-0.3,0.1-0.5,0.2-0.8,0.3c-1.6,0.6-3.1,1.5-4.5,2.4l-1.1-8.4
		c1.4,0,2.7,0.1,3.8,0.2C63.1,92.3,65,93.8,65.2,96.1z"/>
	<path class="st22" d="M72.2,42.7c0,0-0.1,0.1-0.1,0.1C72.1,42.7,72.1,42.7,72.2,42.7C72.2,42.6,72.2,42.7,72.2,42.7z"/>
	<path class="st22" d="M88.1,26.2c-1-0.5-2.1-0.8-3.3-0.9c-1.2-0.1-2.4,0-3.5,0.1c-1.4,0.2-2.9,0.4-4.3,0.7
		c-0.5,0.1-1.1,0.2-1.6,0.4c-6.2,1.5-12.2,4.4-17.4,8.2c-3.5,2.6-6.7,5.7-9.2,9.1l0.1,5c0.3-0.1,0.6-0.2,0.9-0.2l4.8-9.7L68,41
		l0.6,0.1L56.7,56.8l1.3,0.9l2.8,1.9h0l1.2,0.8l2.1,1.4l3.3,2.2c-0.1,0.2-0.1,0.3-0.2,0.5l0,0L58,72.6l-0.9,0.8l-2.2-3L51,65.3
		l-0.8-1.1l0.3,1.6l0.8,5.2l-6.7,1.4l-3.8,0.8h0c-0.2-0.1-0.3-0.3-0.5-0.4c0,0.2-0.1,0.3-0.1,0.5c-0.4,2.1-0.9,4.2-1.6,6.2
		c0,0,0,0,0,0c-0.4,1.1-0.8,2.2-1.3,3.2c-0.7,1.5-1.6,3-2.6,4.3c-1.1,1.4-2.3,2.7-3.7,3.9c0,0,0,0,0,0c-2.2,2-4.7,3.9-6.8,6
		c-1.9,1.9-3.4,4.1-4.7,6.4c0.9,0.6,1.7,1.2,2.6,1.8c0.5,0.4,1,0.9,1.5,1.4c0,0,0.1,0.1,0.1,0.1c0.3,0.3,0.6,0.7,0.8,1.1
		c0.1,0.1,0.2,0.2,0.2,0.3c0.3,0.5,0.6,1.1,0.8,1.7c0.2,0.7,0.4,1.4,0.4,2.2c0.1,1.3,0,2.6,0.1,4c-0.3,0.9-0.2,1.9-0.2,2.8
		c-0.1,2.2,0.3,4.1,1.4,5.8c3.5,0.3,6.9-0.1,10-1.5c1-0.4,1.9-1,2.7-1.6c1.9-1.4,3.3-3.3,4.6-5.3c-0.5,0-0.9,0-1.4,0l-0.7-16
		l-0.5-12.6l-0.2-3.9l-0.1-2.8c0.9,0,1.8,0,2.7,0c0.8,0,1.6,0,2.3,0.1c2.2,0.1,4.2,0.3,6.2,0.5c1.9,0.2,3.8,0.5,5.5,0.9
		c7,1.5,12.3,4.1,15.3,7.8c1.6-3.2,1.6-7.4,0.8-11c-0.4-1.8-0.9-3.6-1.3-5.4l-3.8,0.8l0.3-7.4L69.9,57l0.1-4.7v0c0-0.1,0-0.2,0-0.4
		c0.2-0.3,0.4-0.6,0.5-1h0l7.9-0.7l1-0.1c0.6-0.6,1.2-1.2,1.8-1.7c0.5-0.5,1.1-1,1.7-1.5c0,0,0,0,0,0c2.9-2.6,5.8-5.1,7.6-8.5
		c0.5-1,0.8-2.1,1-3.2C92.1,31.6,91.1,27.9,88.1,26.2z M78.2,46.8c-1,1-2.1,1.6-3.5,1.6c-1.1,0-2-0.3-2.8-1
		c-0.2-0.2-0.4-0.4-0.7-0.6c-0.1-0.1-0.2-0.3-0.3-0.4c-0.3-0.5-0.6-1-0.8-1.5c-0.1-0.2-0.1-0.5-0.2-0.7c-0.1-0.4-0.1-0.8-0.1-1.2
		c0-0.3,0-0.6,0.1-0.8c0.2-1.1,0.6-2.1,1.4-3l0,0c0.5-0.5,1-0.9,1.5-1.1c0.6-0.3,1.2-0.4,1.9-0.4c0.4,0,0.8,0,1.1,0.1
		c0.2,0,0.5,0.1,0.7,0.2c0.6,0.2,1.2,0.7,1.7,1.2c1,1,1.4,2.3,1.4,3.8C79.7,44.5,79.2,45.7,78.2,46.8z"/>
</g>
<g>
	<g>
		<path class="st22" d="M168.6,65c0.2,2.4-0.9,4.4-2.4,6c-1.7,1.8-3.5,3.4-5.6,4.6c-0.4,0.3-1,0.7-1.4,0.2c-0.3-0.5,0.3-0.9,0.6-1.2
			c0.9-0.8,1.9-1.5,2.7-2.4c1.9-1.9,3.8-3.8,4.5-6.6c0.3-1.3,0-2.5-0.2-3.7c-0.5-2.2-1.2-4.3-2.5-6.2c-0.8-1.2-2-2-3.4-2.5
			c-1-0.4-2-0.8-3-1.2c-0.5-0.2-0.4-0.6-0.3-0.9c0.1-0.4,0.4-0.5,0.8-0.4c2.1,0.5,4.2,1.1,5.9,2.6c1.2,1,2,2.3,2.6,3.7
			c0.8,2.1,1.3,4.3,1.7,6.5C168.7,64.1,168.6,64.6,168.6,65z"/>
	</g>
	<g>
		<path class="st22" d="M100.6,127.9l0.4,0.2c-1.7,0.2-3.3,0.5-4.9,1.1c-2.1,0.7-3.8,2-5.4,3.4c-1.4,1.3-2.6,2.7-4.2,3.7
			c-2.7,1.7-5.5,3.1-8.8,3c-0.3,0-0.7,0.1-0.7-0.5c0-0.5,0-0.7,0.6-0.8c3.4-0.6,6.5-1.9,9.3-4c1.5-1.1,2.8-2.4,4.1-3.7
			c3-2.9,6.5-4.2,10.5-4L100.6,127.9z"/>
	</g>
	<g>
		<path class="st22" d="M132.9,20.9c-2.8,0-5.2-0.8-7.2-2.3c-0.3-0.2-0.5-0.5-0.7-0.8c-0.2-0.2-0.3-0.6,0-0.8c0.2-0.2,0.6-0.2,0.8,0
			c0.9,0.6,1.8,1.1,2.8,1.4c2,0.7,4.1,0.8,6.3,0.6c2.4-0.3,4.9-0.8,7.3-0.9c2.8-0.2,5.4,0.7,7.7,2.3c0.6,0.4,1,1.1,1.4,1.6
			c0.2,0.3,0.3,0.6,0,0.8c-0.3,0.2-0.7,0.3-1,0c-0.7-0.8-1.6-1.4-2.5-1.9c-2.8-1.4-5.8-1.6-8.9-1.1C136.7,20.3,134.7,21,132.9,20.9z
			"/>
	</g>
	<g>
		<path class="st22" d="M34.7,132.2c-2.9,0.1-5.3-1.1-7.5-2.9c-2.6-2.1-4.3-4.7-4.7-8.1c-0.2-1.8-0.7-3.6-0.9-5.5
			c-0.1-0.4-0.1-0.8,0.4-0.9c0.5-0.1,0.8,0,0.9,0.6c0.7,2.2,1,4.4,1.4,6.7c0.6,3.1,2.2,5.3,5,6.7c1.7,0.8,3.3,1.6,5.2,1.9
			c0.8,0.1,1.5,0,2.3-0.1c0.5-0.1,0.9-0.1,1.4-0.1c0.2,0,0.5,0,0.6,0.3c0.1,0.3-0.1,0.5-0.3,0.6c-0.8,0.6-1.8,0.8-2.7,0.9
			C35.4,132.2,35.1,132.2,34.7,132.2z"/>
	</g>
	<g>
		<path class="st22" d="M40.3,15.6v1.6c-0.8,0.7-1.7,1.4-2.5,2.1c-2.6,2.1-3.2,4.7-2.4,7.9c0.4,1.7,0.6,3.5-0.2,5.1
			c-0.8,1.8-2.2,3.2-4.1,3.9c-0.1,0-0.2,0.1-0.3,0.1c-0.3,0-0.4-0.1-0.5-0.2c-0.1-0.2-0.1-0.5,0.1-0.7c0.4-0.4,0.9-0.8,1.3-1.2
			c1.5-1.1,2-2.6,2.1-4.3c0.1-1.8-0.1-3.7-0.2-5.5c0-2.3,0.8-4.3,2.5-5.9"/>
	</g>
	<g>
		<path class="st22" d="M67.4,12.2c-1.6,0-3.1-0.4-4.6-0.7c-3.4-0.7-6.7-0.5-9.9,1.1c-1.3,0.6-2.6,1-3.9,1.5c-1,0.3-1.8,1.1-2.8,1.5
			c-0.4,0.1-0.8,0.4-1.1,0c-0.3-0.4,0.1-0.8,0.3-1c1-0.9,2.1-1.5,3.3-2.2c2.5-1.5,5.4-2,8.2-2.5c3.4-0.6,6.6,0.1,9.8,0.7
			c0.4,0.1,0.7,0.2,1.1,0.2c0.6,0.1,0.9,0.3,0.8,1c-0.1,0.7-0.6,0.3-0.9,0.4C67.6,12.2,67.5,12.2,67.4,12.2z"/>
	</g>
	<g>
		<path class="st22" d="M100.1,6.1l0,1.7c-0.2,0-0.4,0-0.6-0.1c-0.9-0.2-1.7,0-2.6,0.2c-0.6,0.1-1.3,0.2-1.5-0.4
			c-0.2-0.6,0.6-0.8,1.1-0.9C97.7,6.3,98.9,6.1,100.1,6.1z"/>
		<path class="st22" d="M117.6,11.6c-0.1,0.5-0.6,0.3-0.9,0.2c-1.5-0.2-2.8-0.9-3.9-1.7c-0.3-0.2-0.6-0.4-0.9-0.6l0-1.8
			c0.9,0.4,1.8,0.9,2.7,1.5c0.8,0.5,1.6,0.9,2.5,1.2C117.7,10.7,117.7,11.1,117.6,11.6z"/>
	</g>
	<g>
		<path class="st22" d="M5.5,89.2c0.1-2,0.8-3.9,2.2-5.4c2-2.2,3.6-4.6,4.5-7.4c0.4-1.2,0.5-2.5,0.5-3.7c0-0.6,0.2-0.8,0.7-0.8
			c0.5-0.1,0.6,0.3,0.7,0.7c0.5,1.9,0.1,3.7-0.7,5.4c-1.1,2.5-2.8,4.6-4.2,6.9c-0.5,0.7-0.9,1.5-1.4,2.2c-0.6,0.9-0.7,2-0.9,3
			c0,0.2-0.1,0.4-0.2,0.6C6.7,90.9,6.5,91,6.2,91c-0.3,0-0.4-0.1-0.5-0.4C5.5,90.2,5.5,89.7,5.5,89.2z"/>
	</g>
	<g>
		<path class="st22" d="M152.6,45.5c1.3-1.8,2.6-3.6,3.8-5.4c0,0.1,0,0.1,0,0.1c-0.4,2.4-1.6,4.5-2.9,6.5c-0.4,0.6-0.3,1.3-0.6,1.9
			c-0.2,0.3-0.3,0.7-0.7,0.6c-0.4-0.1-0.5-0.5-0.5-0.8c0-0.6,0-1.2,0.2-1.7C152.1,46.3,152.4,45.9,152.6,45.5z"/>
		<path class="st22" d="M157.5,34.8c0,1.9-0.7,3.6-1.1,5.4c-0.5-0.1-1-0.1-1.4-0.2c0.4-1.3,0.6-2.6,0.8-3.9c0.1-1.4,0.1-2.8-0.3-4.2
			c-0.2-0.6,0.2-0.7,0.6-0.8c0.4-0.2,0.6,0,0.8,0.4C157.3,32.5,157.6,33.6,157.5,34.8z"/>
	</g>
	<g>
		<path class="st22" d="M141.4,120c0.1-0.2,0.2-0.5,0.3-0.9c0.9-2,2.5-3.3,4.3-4.5c1.3-0.8,2.5-1.8,4-2.4c1.1-0.4,2.2-0.3,3.3-0.5
			c0.6-0.1,1.2-0.3,1.7-0.5c0.5-0.2,0.9-0.1,1.1,0.3c0.3,0.5-0.2,0.7-0.4,0.9c-0.9,0.8-2.1,0.9-3.3,1c-0.6,0.1-1.2,0.1-1.9,0.2
			c-1.2,0.2-2.3,0.8-3.1,1.6c-1.1,1.2-2.3,2.2-3.6,3.2c-0.4,0.3-0.7,0.8-0.9,1.2c-0.2,0.3-0.3,0.6-0.6,0.8c-0.2,0.2-0.4,0.3-0.7,0.2
			C141.5,120.8,141.4,120.5,141.4,120z"/>
	</g>
	<g>
		<path class="st22" d="M61.6,136.7c0,0.4-0.1,0.8-0.6,0.9c-0.4,0.1-0.7-0.2-0.8-0.6c-0.2-0.5-0.4-1-0.7-1.5
			c-0.7-1.2-1.8-1.7-3.1-1.8c-1.3-0.1-2.2-1-3.2-1.6c-0.4-0.2,0-0.6,0-1c0-0.3,0.3-0.3,0.6-0.3c0.5,0.1,0.9,0.3,1.4,0.6
			c1,0.6,2.1,1.2,3.3,1.3c1.5,0.2,2.5,1,2.8,2.5C61.3,135.7,61.4,136.2,61.6,136.7z"/>
	</g>
</g>
<g>
	<path class="st22" d="M67.3,64.5c-2.1,4.8-5.4,9-9.3,12.7c-1.6,1.5-3.3,3-5.1,4.3c-1.9-0.2-4-0.4-6.2-0.5c-0.8,0-1.5-0.1-2.3-0.1
		c-0.9,0-1.8,0-2.7,0l0.1,2.8l0.2,3.9c-0.8-0.3-1.5-0.9-2-1.6c0,0-0.1-0.1-0.1-0.1c-0.8-1-1.6-2.1-2.3-3.2c-0.2-0.3-0.4-0.6-0.6-0.9
		c-3.9-6.6-5.4-14.6-4.2-22.2c0-0.3,0.1-0.5,0.1-0.8c1-4.8,4-8.5,7.5-11.9v25.8c0,0,0.1,0,0.1,0.1c0.2,0.1,0.3,0.3,0.5,0.4h0
		l3.8-0.8l6.7-1.4l-0.8-5.2l-0.3-1.6l0.8,1.1l3.8,5.2l2.2,3l0.9-0.8L67.3,64.5z"/>
	<path class="st22" d="M98.8,28.5c-0.1,1.4-0.6,2.7-1.6,3.8c-1.5,1.7-3.4,2.5-5.6,2.8c-4.3,0.6-9.6-0.4-13.7,1.4
		c-0.2,0.1-0.3,0.2-0.5,0.2c-0.5,0.3-1,0.6-1.5,1c-0.3-0.1-0.7-0.1-1.1-0.1c-0.7,0-1.3,0.1-1.9,0.4c-0.5,0.2-1,0.6-1.5,1.1l0,0
		c-0.8,0.8-1.2,1.8-1.4,3c0,0.3-0.1,0.5-0.1,0.8c0,0.4,0,0.8,0.1,1.2c0,0.2,0.1,0.5,0.2,0.7c0.2,0.5,0.4,1,0.8,1.5
		c0,0.1-0.1,0.2-0.1,0.4c-0.3,1.4-0.5,2.8-0.6,4.2c0,0.3-0.1,0.6-0.1,0.9c0,0.1,0,0.2,0,0.4v0c-0.2,1.7-0.3,3.4-0.6,5.1
		c-0.1,0.5-0.2,1-0.3,1.5c-0.4,1.8-0.9,3.5-1.6,5.2l-3.3-2.2l-2.1-1.4l-1.2-0.8h0L58,57.7l-1.3-0.9l11.9-15.7L68,41l-13.5-2.2
		l-4.8,9.7c-0.3,0.1-0.6,0.2-0.9,0.2l-0.1-5l-0.1-4.2c0.3-0.3,0.6-0.6,0.9-0.8c0.2-0.1,0.3-0.3,0.5-0.4c5.6-5.1,10.8-11.2,12.1-18.7
		c0.2-1.2,0.4-2.5,0.6-3.8c0.2,0.1,0.5,0.2,0.7,0.3c0.1,0,0.1,0.1,0.2,0.1c0.2,0.1,0.5,0.2,0.7,0.3c0.5,0.3,1,0.6,1.6,0.9
		c0.1,0,0.1,0.1,0.1,0.2c0.7,0.1,1.1,0.6,1.7,1c1.5,0.8,2.9,1.8,4.5,2.4c0.2,0.1,0.4,0.2,0.5,0.4c1.1,0.1,2.1,0.5,3.2,0.6
		c0.8,0.1,1.7,0.2,2.5,0.2c3.1,0,6-0.7,8.7-2.2c0.3-0.1,0.5-0.3,0.8-0.5c0.3-0.2,0.5-0.3,0.8-0.5c0.1-0.1,0.3-0.2,0.5-0.3
		c0.5-0.4,1-0.8,1.4-1.3c0.2-0.2,0.4-0.4,0.6-0.6c0.2-0.2,0.4-0.4,0.6-0.7c0,0,0,0,0.1-0.1c0.1-0.2,0.3-0.3,0.4-0.5
		c0.5,0.4,1,0.9,1.5,1.3C96.7,20.1,99.2,24.6,98.8,28.5z"/>
</g>
<g>
	<path class="st22" d="M44.4,81c-0.9,0-1.8,0-2.7,0l0.1,2.8l0.2,3.9l0.5,12.6c-0.1,0.1-0.2,0.2-0.3,0.3c-3,2.9-6.9,4.7-10.7,6.5
		c-0.1,0.1-0.3,0.1-0.4,0.2c-1.8,0.8-3.6,1.7-5.4,2.5c0,0,0,0-0.1,0c-0.2-0.6-0.5-1.2-0.8-1.7c-0.1-0.1-0.1-0.2-0.2-0.3
		c-0.2-0.4-0.5-0.7-0.8-1.1c0,0-0.1-0.1-0.1-0.1c-0.4-0.5-0.9-0.9-1.5-1.4c-0.8-0.7-1.7-1.2-2.6-1.8c-0.8-0.5-1.6-1-2.4-1.6
		c-1.2-0.8-2.4-1.5-3.5-2.3c-0.1,0-0.1-0.1-0.2-0.1c1.2-2.9,2.8-5.5,4.3-8.2c3-5.5,5.4-11.3,7.4-17.3c1.8-5.4,2.8-11.7,5.6-16.6
		c2.5-4.3,5.8-8.2,9.5-11.6v16.9c-1.8,1-3.1,2.5-3.2,4.7c-0.1,2.4,1.4,4,3.2,5.4c0,0,0.1,0,0.1,0.1c0.2,0.1,0.3,0.3,0.5,0.4h0
		c0.6,0.5,1.2,1,1.8,1.5c0.3,0.3,0.7,0.7,1,1c0.9,1.1,1.7,2.3,2.3,3.6c0.3,0.6,0.5,1.1,0.8,1.8C45.9,81,45.2,81,44.4,81z"/>
	<path class="st22" d="M71.9,47.4c-0.3,1.2-0.7,2.4-1.3,3.5h0c-0.2,0.3-0.3,0.7-0.5,1c0,0,0,0,0,0v0c-1.7,2.9-4.2,5.2-7.1,6.8
		c-0.7,0.3-1.4,0.6-2.1,0.9h0L58,57.7l-1.3-0.9l11.9-15.7L68,41l-13.5-2.2l-4.8,9.7c-0.3,0.1-0.6,0.2-0.9,0.2l-0.1-5l-0.1-4.2l0-0.3
		c0.3-0.2,0.6-0.4,0.9-0.6c1.6-1,3.2-1.8,4.9-2.6c1.1-0.5,2.3-1,3.5-1.4c3.5-1.1,7.3-1.4,10.3,0.6c1,0.7,1.8,1.5,2.4,2.5
		c0.3,0.4,0.5,0.8,0.7,1.3l0,0c-0.8,0.8-1.2,1.8-1.4,3c0,0.3-0.1,0.5-0.1,0.8c0,0.4,0,0.8,0.1,1.2c0,0.2,0.1,0.5,0.2,0.7
		c0.2,0.5,0.4,1,0.8,1.5c0.1,0.1,0.2,0.3,0.3,0.4C71.4,47,71.7,47.2,71.9,47.4z"/>
	<path class="st22" d="M72.2,42.7c0,0-0.1,0.1-0.1,0.1C72.1,42.7,72.1,42.7,72.2,42.7C72.2,42.6,72.2,42.7,72.2,42.7z"/>
</g>
<g>
	<path class="st22" d="M40.1,22.4c0-0.1,0.1-0.2,0.1-0.2v30.1c-3.6,2-5.9,4.3-7.5,6.6c-2.2,3.1-2.8,6-2.8,7.4
		c0.1,3.4,3.5,35.6-16.4,33.2c-0.1,0-0.1-0.1-0.2-0.1c-1.2-0.8-2.3-1.7-3.2-2.8c-0.3-0.4-0.6-0.8-1-1.2c-1.9-3.6-1.3-7.2,1.6-10.3
		c1.7-1.8,3.6-3.2,5.5-4.7c1.1-0.9,2.2-1.9,3.1-3.1c1.6-2.2,1.8-4.6,0.7-7.1c0-0.1,0-0.2-0.1-0.4c-1.3-2.8-3.5-4.9-5.2-7.4
		c-0.4-0.6-0.9-1.3-1.2-2C12.2,58,12.1,55.5,13,53c1.9-5.2,5.4-8.7,10.9-9.9c2.1-0.5,4.3-0.9,6.4-1.6c2.4-0.8,4.6-2,6-4.3
		c0.9-1.5,1.1-3.2,1.1-4.9c0-1.9-0.1-3.9,0.5-5.8c0.1-0.4,0.3-0.8,0.5-1.2c0-0.1,0.1-0.3,0.2-0.4c0.3-0.8,0.7-1.5,1.2-2.2
		c0,0,0,0,0,0C39.9,22.7,40,22.5,40.1,22.4L40.1,22.4z"/>
	<path class="st22" d="M75.9,22.2c0,0,0,1.8-0.6,4.4c-0.6,3.1-2,7.4-4.7,11.3C69.9,39,69,40,68,41l-13.5-2.2l-4.8,9.7
		c-0.3,0.1-0.6,0.2-0.9,0.2l-0.1-5l-0.1-4.2l0-0.3L48.1,17l-1.1-0.2c0.2-0.1,0.5-0.2,0.7-0.2c0.5-0.2,0.9-0.4,1.4-0.6c0,0,0,0,0,0
		c6.8-4,12.2-0.6,12.2-0.6c0.5,0.1,1,0.3,1.5,0.5c0,0,0,0,0,0c0.2,0.1,0.5,0.2,0.7,0.3c0.1,0,0.1,0.1,0.2,0.1
		c0.2,0.1,0.5,0.2,0.7,0.3c0.5,0.3,1,0.6,1.6,0.9c0.1,0,0.1,0.1,0.1,0.2c0.7,0.1,1.1,0.6,1.7,1c1.5,0.8,2.9,1.8,4.5,2.4
		c0.2,0.1,0.4,0.2,0.5,0.4C73.8,21.6,74.9,22.1,75.9,22.2z"/>
</g>
<g>
	<path class="st22" d="M137.5,88.7l-2.7-1.6l-2.2-1.3l-3.3-1.9l-3.8,6.4l-1.8,3l-4.4-8.5l-9.9,7l8.6,11.2l-5.6,8.1l-9.3,13.3
		c-1.4-0.1-2.7,0-4,0.3c-0.4,0.1-0.7,0.2-1,0.3c-2.1,0.6-4,1.7-5.7,3.1c-1.5,1.2-3.1,2.3-4.5,3.6c-1.3,1.2-2.8,2.3-4.2,3.4
		c0,0-0.1,0-0.1,0.1c-1.4-4.5-1.3-9.6,1.1-13.7c1.3-2.2,3.3-3.6,5.4-4.7c1,0.2,2,0.3,3,0.3c0.6,0,1.2,0,1.9-0.1
		c0.6-0.1,1.2-0.2,1.8-0.3v1.4l1.3-0.4l8.5-2.6l0.3-4.3l0.2-2.5c3.4-1.9,6.4-4,6.9-6.2c0.8-3.7-4.8-4.4-5.5-11c0-0.3,0-0.6,0-1v0
		l0.1-1.2c0.4-3.2,2.6-5.8,5.3-7.8c3.4-2.5,7.2-4.2,11.1-5.9h0c0,0,0,0,0,0l0,0c0,0,0,0,0.1,0.1c2.6,3,5.5,5.9,8.3,8.8
		c0.6,0.7,1.2,1.3,1.9,1.9C135.8,87,136.7,87.8,137.5,88.7z"/>
	<path class="st22" d="M152.6,110c-1.4,0-2.8,0-4.2,0c-3.8,0.3-6.2,2.4-7.6,5.8c-1.1,2.5-1.5,5.1-2,7.7c-0.3,1.3-0.6,2.6-1.1,3.9
		c-1.3,3.8-4.1,5.7-7.9,6.4c-3.2,0.6-6.2,0-9.2-1.3c-2.5-1.1-4.8-2.5-7.1-4c-0.3-0.2-0.6-0.3-0.9-0.5c-0.2-0.1-0.4-0.2-0.6-0.3
		l8.8-11.1l12.1-15.3l1.5-1.9l6.1-7.7c1.8,2,3.6,4,5.2,6.2c1,1.3,1.9,2.6,2.8,3.9C150,104.3,151.4,107.1,152.6,110z"/>
</g>
<g>
	<path class="st22" d="M125.1,42c-4.4-3.1-10.5-4.6-13.4-11.1c-0.1-0.3-0.2-0.5-0.3-0.8l0.2-8.1c1.9-3.3,5.8-4.4,5.8-4.4
		c1.2,1.6,3.3,3,5,4.1l0.6,0.4c1.2,0.7,2,1.1,2,1.1c0.5,0.1,1.1,0.2,1.7,0.2s1.1,0.1,1.7,0.1c0.3,0,0.6,0,1,0s0.6,0,1-0.1
		c0.3,0,0.5,0,0.8-0.1c0.4,0,0.8-0.1,1.1-0.1c0.8-0.1,1.6-0.2,2.4-0.3c1.6-0.2,3.2-0.5,4.7-0.5c0.7,0,1.3,0,2,0
		c0.8,3.5,1.9,8.7,1.9,9.9c0,1,1,3.9,2,6.9c-3.5-0.1-7,0.1-10.4,0.6c-0.3,0-0.7,0.1-1,0.1c-1.6,0.2-3.2,0.6-4.8,0.9
		C127.6,41.2,126.3,41.5,125.1,42z"/>
	<path class="st22" d="M150,92.9c0,1.6-2,3.4-4.5,5c-4.5,2.9-10.8,5.4-10.8,5.4s0,0,0,0c-0.1-0.1-0.9-0.8-1.9-2l1.5-1.9l6.1-7.7
		c-0.9-1-1.8-2-2.8-3l-2.7-1.6l-2.2-1.3l-3.3-1.9l-3.8,6.4c-1.1-2.5-1.8-5.1-1.8-7.7c0-2.5,0.4-4.9,1.1-7.4c3.1,0,6.2-0.7,8.7-2.4
		c0.3-0.2,0.7-0.5,1-0.7c2.5-2,4.1-5,4.2-8.1c0-1.5-0.3-3-1.1-4.2c-0.8-1.1-1.8-2-3.1-2.7c-0.5-0.2-0.9-0.5-1.4-0.6
		c-0.9-0.3-1.9-0.6-2.8-0.8c0.1-1.2,0.2-2.4,0.1-3.6c1.3-0.4,2.6-0.7,3.9-1c2.2-0.5,4.5-0.9,6.8-1.1c2-0.2,4-0.3,5.9-0.3
		c0.2,0,0.5,0,0.7,0c0,5.6-0.6,14.8-0.6,18.4C147,73.1,150,88.5,150,92.9z"/>
</g>
<g>
	<path class="st22" d="M112.2,111.2l-9.3,13.3c-1.4-0.1-2.7,0-4,0.3c-0.4,0.1-0.7,0.2-1,0.3c-0.7-2.5-0.8-5,0-7.4l8.5-2.6l0.3-4.3
		c0.4-0.1,0.9-0.1,1.3-0.1C109.4,110.6,110.9,110.8,112.2,111.2z"/>
	<path class="st22" d="M134.7,39.8c-2.1-6.4,0.2-12.5,4.6-17.4c0.7,0,1.3,0,2,0c0.1,0,0.1,0,0.2,0c0.4,0,0.7,0.1,1.1,0.1
		c0.7,0.1,1.3,0.2,2,0.4c0.8,0.2,1.6,0.4,2.3,0.9c0.6,0.1,1,0.4,1.5,0.8c0.4,0.2,0.8,0.4,1.1,0.8c0.6,0.3,1,0.7,1.4,1.3
		c0.4,0.6,1,1,1.3,1.5c1.3,1.9,2,4,1.9,6.3c-0.1,1.9-0.6,3.7-1.5,5.3c-2.4-0.2-4.8-0.4-7.2-0.4C141.7,39.1,138.2,39.3,134.7,39.8z"
		/>
	<path class="st22" d="M155.1,77.6c-1.3,3-1.4,6-0.2,9.1c0.8,2,2.2,3.6,3.5,5.2c1.3,1.5,2.6,3,3.5,4.9c0.5,1.1,0.9,2.1,0.9,3.3
		c0.3,2.5-0.1,4.8-1.7,6.8c-1.7,2.1-4.1,2.9-6.7,3c-0.6,0-1.2,0-1.9,0c-1.4,0-2.8,0-4.2,0c-3.8,0.3-6.2,2.4-7.6,5.8
		c-1.1,2.5-1.5,5.1-2,7.7c-0.3,1.3-0.6,2.6-1.1,3.9c-1.3,3.8-4.1,5.7-7.9,6.4c-3.2,0.6-6.2,0-9.2-1.3c-2.5-1.1-4.8-2.5-7.1-4
		c-0.3-0.2-0.6-0.3-0.9-0.5c-0.2-0.1-0.4-0.2-0.6-0.3l8.8-11.1c1.2,1.2,2.3,2.4,3.7,3.4c2,1.4,4.6,2.2,6.9,1.3
		c2.7-1.1,3.8-4.3,4.1-7.2c0.3-3.6-0.2-7.1-0.7-10.7c-0.2-1.3-0.3-2.6-0.5-3.9l6.1-7.7c-0.9-1-1.8-2-2.8-3l-2.7-1.6
		c0.1-0.4,0.1-0.7,0.2-1.1c0.7-3.6,1.9-7.1,3.5-10.4c2.7-5.6,6.6-11.2,5.9-17.4c-0.3-3-1.7-5.6-3.4-8.1c2-0.2,4-0.3,5.9-0.3
		c0.2,0,0.5,0,0.7,0c0.1,0,0.2,0,0.3,0c0.2,2,1.3,3.8,2.8,5.1c0.2,0.2,0.4,0.3,0.6,0.5c0.1,0.1,0.2,0.2,0.4,0.3
		c0.1,0.1,0.2,0.2,0.4,0.3c0,0,0,0,0.1,0c1.6,1.2,3.5,2.2,5.3,2.2c0.1,0,0.3,0,0.4,0c0.2,0,0.4-0.1,0.6-0.2c0.4-0.1,0.8-0.3,1.3-0.3
		h0c1.4-0.2,3,0.6,4,1.7c0.1,0.1,0.2,0.2,0.2,0.2c0.1,0.1,0.1,0.2,0.2,0.3c0,0,0,0,0.1,0c0.1,0.1,0.1,0.2,0.2,0.2
		c0.1,0.1,0.1,0.2,0.2,0.3c0,0.1,0.1,0.1,0.1,0.2c0.7,1.3,0.6,2.8,0.3,4.3c-0.3,1.7-1.2,3.2-2.4,4.5c-1.1,1.3-2.4,2.4-3.7,3.5
		C157.5,74.2,156.1,75.7,155.1,77.6z"/>
</g>
<g>
	<path class="st21" d="M67.5,64.1c-0.1,0.2-0.1,0.3-0.2,0.5l0.4-0.3L67.5,64.1z M40.3,72.7C40.3,72.7,40.3,72.7,40.3,72.7l-0.1,0.5
		l0.6-0.1C40.7,73,40.5,72.9,40.3,72.7z"/>
</g>
<g>
	<path class="st21" d="M70.2,51l-0.1,0l0,1v0l0,0.3c0-0.1,0-0.2,0-0.4c0.2-0.3,0.4-0.6,0.5-1L70.2,51z M72.2,42.6
		c0,0.1-0.1,0.1-0.1,0.2C72.1,42.8,72.2,42.7,72.2,42.6C72.2,42.7,72.2,42.6,72.2,42.6z"/>
</g>
<g>
	<path class="st21" d="M100.2,9.3L100.2,9.3c0.1,0,0.1,0,0.2,0C100.3,9.2,100.2,9.3,100.2,9.3z"/>
</g>
<g>
	<path class="st21" d="M156.5,40.1L156.5,40.1C156.5,40.1,156.5,40.1,156.5,40.1C156.5,40.1,156.5,40.1,156.5,40.1z M124.7,75.2
		C124.7,75.2,124.7,75.3,124.7,75.2L124.7,75.2L124.7,75.2z"/>
</g>
<g>
	<path class="st21" d="M87.2,88.7c0.9-0.3,1.8-0.6,2.7-0.9C89,88.1,88.1,88.4,87.2,88.7z"/>
</g>
<g>
	<path class="st21" d="M105.1,124.8C105.1,124.8,105.1,124.8,105.1,124.8L105.1,124.8C105.1,124.8,105.1,124.8,105.1,124.8z
		 M137.5,88.7c0.9,1,1.9,2,2.8,3l0.7-0.9L137.5,88.7z"/>
</g>
</svg>
