<?xml version="1.0" encoding="utf-8"?>
<!-- Generator: Adobe Illustrator 25.2.1, SVG Export Plug-In . SVG Version: 6.00 Build 0)  -->
<svg version="1.1" id="Layer_1" xmlns="http://www.w3.org/2000/svg" xmlns:xlink="http://www.w3.org/1999/xlink" x="0px" y="0px"
	 viewBox="0 0 180 114.2" style="enable-background:new 0 0 180 114.2;" xml:space="preserve">
<style type="text/css">
	.st0{fill:#FFC95E;}
	.st1{fill:#F89521;}
	.st2{fill:#EB0D8C;}
	.st3{fill:#F47A50;}
	.st4{fill:#342624;}
	.st5{fill:#BD5F3D;}
	.st6{fill:#F8A282;}
	.st7{fill:#FCB44B;}
	.st8{fill:#E55365;}
	.st9{fill:#85C54E;}
	.st10{fill:#010101;}
	.st11{fill:#FBBF9D;}
	.st12{fill:#F47536;}
	.st13{fill:#209DD8;}
	.st14{fill:#E982B5;}
	.st15{fill:#F7B132;}
	.st16{fill:#FAE807;}
	.st17{fill:#3D3D3C;}
	.st18{fill:#E4215D;}
	.st19{fill:#44C8F5;}
	.st20{fill:#FDB92E;}
	.st21{fill:#FFFFFF;}
	.st22{fill:#9C2E8C;}
	.st23{fill:#61318E;}
	.st24{fill:#1F82C2;}
	.st25{fill:#F3C7D6;}
	.st26{fill:#923D83;}
	.st27{fill:#3F5691;}
	.st28{fill:#EF8032;}
	.st29{fill:#FEFEFE;}
	.st30{fill:#FAF6F2;}
	.st31{fill:#93C04C;}
	.st32{fill:#EE5B27;}
	.st33{fill:none;stroke:#FFE8C2;stroke-miterlimit:10;}
	.st34{fill:none;stroke:#000000;stroke-miterlimit:10;}
</style>
<g>
	<g>
		<path class="st3" d="M128.2,39.1c-1.1-1.5-3.1-1.8-4.8-1.4c-1.1-2.1-3.6-2.9-5.8-2.1c-1.8-2.6-6-1.9-6.9,1.1
			c-0.1,0.4,0.5,0.6,0.7,0.2c0.8-2.2,3.9-2.8,5.4-0.9c-8.7,5.3,1.9,9.8,1.6,1.2c1.2-0.5,2.7,0,3.4,1.2c-9.3,5.7,2.6,8.2,2,0.3
			c3-0.9,5.6,2.3,3,4.6c-0.6,0.5,0.2,1.3,0.8,0.8C129.1,43,129.3,40.6,128.2,39.1 M116.8,40.1c-0.3,0.4-1.3,1.1-1.8,0.6
			c-0.6-1.1,1.7-2.5,2.4-3.1C117.6,38.5,117.4,39.5,116.8,40.1 M122.1,41.1c-1.8,3.8-5.7,1.4,0.1-1.7
			C122.3,39.9,122.3,40.5,122.1,41.1"/>
	</g>
	<g>
		<path class="st3" d="M42,86.7c1-0.6,1.3-1.8,1.1-2.9c1.4-0.6,2-2.1,1.6-3.5c1.7-1,1.5-3.7-0.4-4.3c-0.3-0.1-0.4,0.3-0.1,0.4
			c1.3,0.6,1.5,2.6,0.3,3.4c-2.9-5.6-6.2,0.8-0.8,0.9c0.2,0.8-0.1,1.7-0.9,2.1c-3.1-6-5.2,1.3-0.3,1.2c0.4,1.9-1.7,3.4-3,1.7
			c-0.3-0.4-0.8,0.1-0.5,0.5C39.6,87.1,41,87.4,42,86.7 M41.9,79.6c-0.2-0.2-0.6-0.8-0.3-1.1c0.7-0.3,1.5,1.2,1.8,1.7
			C42.9,80.2,42.3,80,41.9,79.6 M41,82.8c-2.3-1.3-0.6-3.6,1.1,0.1C41.8,83,41.4,83,41,82.8"/>
	</g>
	<g>
		<path class="st4" d="M179.6,107.9c-0.1,0-0.3-0.1-0.4-0.2c-0.4-0.8-0.8-1.6-1.3-2.4c-0.4-0.7-0.7-1.4-1.1-2.1
			c-0.1-0.2,0-0.5,0.2-0.6c0.2-0.1,0.5,0,0.6,0.2c0.4,0.7,0.7,1.4,1.1,2.1c0.4,0.8,0.8,1.6,1.2,2.4c0.1,0.2,0,0.5-0.2,0.6
			C179.7,107.9,179.6,107.9,179.6,107.9 M174.7,99c-0.1,0-0.3-0.1-0.4-0.2c-0.9-1.4-1.8-2.9-2.8-4.2c-0.1-0.2-0.1-0.4,0.1-0.6
			c0.2-0.1,0.4-0.1,0.6,0.1c1,1.4,2,2.8,2.9,4.2c0.1,0.2,0.1,0.5-0.1,0.6C174.9,98.9,174.8,99,174.7,99 M58.3,92.4
			c-0.2,0-0.4-0.2-0.4-0.4c0-0.2,0.2-0.4,0.4-0.4c1.6,0,3.3-0.1,5.1-0.2c0.2,0,0.4,0.2,0.4,0.4c0,0.2-0.2,0.4-0.4,0.4
			C61.7,92.3,60,92.4,58.3,92.4L58.3,92.4z M53.2,92.2C53.2,92.2,53.2,92.2,53.2,92.2c-1.7-0.1-3.5-0.3-5.1-0.5
			c-0.2,0-0.4-0.2-0.4-0.5c0-0.2,0.2-0.4,0.5-0.4c1.6,0.2,3.3,0.4,5,0.5c0.2,0,0.4,0.2,0.4,0.4C53.6,92.1,53.4,92.2,53.2,92.2
			 M68.5,91.7c-0.2,0-0.4-0.2-0.4-0.4c0-0.2,0.1-0.4,0.4-0.5c1.6-0.2,3.3-0.4,5-0.7c0.2,0,0.4,0.1,0.5,0.3c0,0.2-0.1,0.4-0.3,0.5
			C71.9,91.2,70.2,91.5,68.5,91.7C68.5,91.7,68.5,91.7,68.5,91.7 M43.2,90.9C43.1,90.9,43.1,90.9,43.2,90.9c-1.8-0.4-3.4-0.8-5-1.3
			c-0.2-0.1-0.3-0.3-0.3-0.5c0.1-0.2,0.3-0.3,0.5-0.3c1.6,0.5,3.2,0.9,4.9,1.3c0.2,0,0.4,0.3,0.3,0.5C43.5,90.8,43.3,90.9,43.2,90.9
			 M168.7,90.8c-0.1,0-0.2,0-0.3-0.1c-1.1-1.3-2.3-2.5-3.5-3.6c-0.2-0.2-0.2-0.4,0-0.6c0.2-0.2,0.4-0.2,0.6,0
			c1.2,1.1,2.4,2.4,3.6,3.7c0.2,0.2,0.1,0.4,0,0.6C168.9,90.7,168.8,90.8,168.7,90.8 M78.5,90c-0.2,0-0.4-0.1-0.4-0.3
			c0-0.2,0.1-0.4,0.3-0.5c1.6-0.3,3.3-0.7,4.9-1.1c0.2-0.1,0.4,0.1,0.5,0.3c0.1,0.2-0.1,0.4-0.3,0.5C81.8,89.3,80.2,89.6,78.5,90
			C78.5,90,78.5,90,78.5,90 M33.5,87.8c-0.1,0-0.1,0-0.2,0c-1.6-0.7-3.2-1.5-4.6-2.3c-0.2-0.1-0.3-0.4-0.2-0.6
			c0.1-0.2,0.4-0.3,0.6-0.2c1.4,0.8,2.9,1.5,4.5,2.2c0.2,0.1,0.3,0.3,0.2,0.5C33.8,87.7,33.6,87.8,33.5,87.8 M88.4,87.6
			c-0.2,0-0.4-0.1-0.4-0.3c-0.1-0.2,0.1-0.5,0.3-0.5c1.6-0.4,3.3-0.9,4.9-1.4c0.2-0.1,0.5,0.1,0.5,0.3c0.1,0.2-0.1,0.5-0.3,0.5
			c-1.6,0.5-3.3,0.9-4.9,1.4C88.4,87.6,88.4,87.6,88.4,87.6 M98.1,84.7c-0.2,0-0.3-0.1-0.4-0.3c-0.1-0.2,0.1-0.5,0.3-0.5
			c1.6-0.5,3.2-1,4.9-1.5c0.2-0.1,0.5,0.1,0.5,0.3c0.1,0.2-0.1,0.5-0.3,0.5c-1.6,0.5-3.2,1-4.9,1.5C98.2,84.7,98.2,84.7,98.1,84.7
			 M161.3,83.8c-0.1,0-0.2,0-0.3-0.1c-1.4-1-2.8-2-4.2-2.8c-0.2-0.1-0.3-0.4-0.1-0.6c0.1-0.2,0.4-0.3,0.6-0.1
			c1.4,0.8,2.9,1.8,4.3,2.9c0.2,0.1,0.2,0.4,0.1,0.6C161.6,83.8,161.4,83.8,161.3,83.8 M24.7,82.8c-0.1,0-0.2,0-0.3-0.1
			c-0.4-0.3-0.7-0.6-1.1-0.9c-1-0.8-1.9-1.7-2.7-2.6c-0.2-0.2-0.2-0.4,0-0.6c0.2-0.2,0.4-0.2,0.6,0c0.8,0.9,1.7,1.7,2.7,2.5
			c0.4,0.3,0.7,0.6,1.1,0.9c0.2,0.1,0.2,0.4,0.1,0.6C24.9,82.7,24.8,82.8,24.7,82.8 M107.9,81.7c-0.2,0-0.3-0.1-0.4-0.3
			c-0.1-0.2,0.1-0.5,0.3-0.5c1.3-0.4,2.6-0.8,3.8-1.2l1-0.3c0.2-0.1,0.5,0.1,0.5,0.3c0.1,0.2-0.1,0.5-0.3,0.5l-1,0.3
			c-1.3,0.4-2.6,0.8-3.8,1.2C107.9,81.7,107.9,81.7,107.9,81.7 M117.6,78.8c-0.2,0-0.4-0.1-0.4-0.3c-0.1-0.2,0.1-0.5,0.3-0.5
			c1.8-0.5,3.4-0.9,5-1.2c0.2,0,0.4,0.1,0.5,0.3c0,0.2-0.1,0.4-0.3,0.5c-1.6,0.3-3.2,0.7-4.9,1.2C117.7,78.8,117.7,78.8,117.6,78.8
			 M152.6,78.7c-0.1,0-0.1,0-0.2,0c-1.3-0.6-2.7-1-4-1.4c-0.3-0.1-0.5-0.1-0.8-0.2c-0.2-0.1-0.4-0.3-0.3-0.5
			c0.1-0.2,0.3-0.4,0.5-0.3c0.3,0.1,0.5,0.1,0.8,0.2c1.4,0.4,2.8,0.9,4.1,1.4c0.2,0.1,0.3,0.3,0.2,0.5
			C152.9,78.6,152.7,78.7,152.6,78.7 M127.5,76.6c-0.2,0-0.4-0.1-0.4-0.3c0-0.2,0.1-0.4,0.3-0.5c1.7-0.3,3.5-0.5,5.1-0.6
			c0.2,0,0.4,0.1,0.5,0.4c0,0.2-0.1,0.4-0.4,0.5C131,76.1,129.3,76.3,127.5,76.6C127.6,76.6,127.6,76.6,127.5,76.6 M142.7,76.1
			C142.7,76.1,142.7,76.1,142.7,76.1c-1.7-0.2-3.4-0.3-5.1-0.3c-0.2,0-0.4-0.2-0.4-0.4c0-0.2,0.2-0.4,0.4-0.4c1.8,0,3.5,0.1,5.1,0.3
			c0.2,0,0.4,0.2,0.4,0.5C143.1,76,143,76.1,142.7,76.1"/>
	</g>
	<g>
		<polygon class="st5" points="122.6,17.2 56.6,81.3 46.2,68 		"/>
	</g>
	<g>
		<polygon class="st3" points="122.3,17.2 46,68 32.1,77.2 28.9,50.2 35.8,47.8 		"/>
	</g>
	<g>
		<polygon class="st3" points="122.3,17.2 33.2,43.6 28.5,45 26.4,29.9 		"/>
	</g>
	<g>
		<polygon class="st5" points="122.3,17.2 35.8,47.8 28.5,45 		"/>
	</g>
	<g>
		<path class="st6" d="M79.6,112.3c1.6-8.6,3.3-17.2,4.9-25.9c0.1-0.7,0.3-1.4,0.1-2.1c-0.1-0.5-0.4-0.9-0.6-1.4
			c-3.6-6-7.1-12.1-10.7-18.1c2.5-2.4,5-4.8,7.5-7.2c0.4-0.4,0.8-0.8,1-1.4c0.1-0.4,0.1-0.9,0.1-1.4c-0.1-2.2,0.9-13.8,5.4-9.6
			c1.1,1,1.4,2.6,1.7,4c0.8-0.7,1.7-1.4,2.5-2.2c2.2,0.8,3.9,2.8,5.4,4.7c1.8,2.2,3.8,4.6,4.8,7.4c0.4,1.2,0.8,2.8,0,3.9
			c-0.8,1.1-2.3,1.5-3.6,1.8c4.6,4.9,6.5,12.2,5,18.7c-0.2,1-0.5,1.9-0.6,2.9c-0.1,0.9,0.1,1.8,0.2,2.7c0.7,5.6,1.5,11.1,2.2,16.7
			C96.9,109.4,88.3,111.6,79.6,112.3z"/>
	</g>
	<g>
		<path class="st7" d="M9.1,93.1c-2,2.3-3.5,4.6-5,7.3c-1.9,3.4,3.4,6.4,5.2,3C10.6,101,15.8,90.1,9.1,93.1"/>
	</g>
	<g>
		<path class="st7" d="M23.8,45.5c-2,2.3-3.5,4.6-5,7.3c-1.9,3.4,3.4,6.4,5.2,3C25.3,53.4,30.5,42.5,23.8,45.5"/>
	</g>
	<g>
		<path class="st7" d="M20.7,86.7c-1.6-1.5-3.2-3-4.9-4.6c-1.6-1.6-4,0.4-3,2.3c1,2,1.9,4,2.9,6.1C18,94.7,24.1,90,20.7,86.7"/>
	</g>
	<g>
		<path class="st7" d="M28.6,74.8c-1.6-1.5-3.2-3-4.9-4.6c-1.6-1.6-4,0.4-3,2.3c1,2,1.9,4,2.9,6.1C25.9,82.7,32,78,28.6,74.8"/>
	</g>
	<g>
		<path class="st7" d="M17.8,99.1c-1.2-2.3-4.9-0.7-4.2,1.8c0.9,3,0.5,6.2,2.7,8.6c1.9,2.1,5.9,0.5,5.7-2.4
			C21.9,103.8,19.3,101.9,17.8,99.1"/>
	</g>
	<g>
		<path class="st7" d="M39.2,89.2c-1.3-5.6-12.9-0.3-12.4,3.8C28.4,97,40.9,94.2,39.2,89.2"/>
	</g>
	<g>
		<path class="st7" d="M18,76.4c-0.9-10.6-6.8-11.4-6.7,0C11.3,80.7,18.1,80.7,18,76.4"/>
	</g>
	<g>
		<path class="st7" d="M8.3,80.2c-2.7-6.9-6.5-5.8-5.4,1.4C2.1,88.4,12.4,85.7,8.3,80.2"/>
	</g>
	<g>
		<path class="st7" d="M28.7,98c-2.1-0.6-3.4,2.5-1.5,3.5c1.2,0.3,2.5,1.8,2.7,2.4C33.9,112.9,42,100.9,28.7,98"/>
	</g>
	<g>
		<path class="st7" d="M139.9,66.3c-2,2.3-3.5,4.6-5,7.3c-1.9,3.4,3.4,6.4,5.2,3C141.4,74.2,146.6,63.3,139.9,66.3"/>
	</g>
	<g>
		<path class="st7" d="M167.1,69.5c-2,2.3-3.5,4.6-5,7.3c-1.9,3.4,3.4,6.4,5.2,3C168.6,77.4,173.9,66.5,167.1,69.5"/>
	</g>
	<g>
		<path class="st7" d="M151.5,59.9c-1.6-1.5-3.2-3-4.9-4.6c-1.6-1.6-4,0.4-3,2.3c1,2,1.9,4,2.9,6.1
			C148.7,67.9,154.9,63.2,151.5,59.9"/>
	</g>
	<g>
		<path class="st7" d="M159.4,48.8c-1.6-1.5-3.2-3-4.9-4.6c-1.6-1.6-4,0.4-3,2.3c1,2,1.9,4,2.9,6.1
			C156.6,56.8,162.8,52.1,159.4,48.8"/>
	</g>
	<g>
		<path class="st7" d="M168.7,63.3c-0.5-2.2-0.9-4.3-1.3-6.5c-0.4-2.2-3.5-2-3.8,0.2c-0.4,2.2-0.7,4.4-1.2,6.6
			C161.8,68.2,169.6,67.9,168.7,63.3"/>
	</g>
	<g>
		<path class="st7" d="M148.6,72.3c-1.2-2.3-4.9-0.7-4.2,1.8c0.9,3,0.5,6.2,2.7,8.6c1.9,2.1,5.9,0.5,5.7-2.4
			C152.6,77,150.1,75.1,148.6,72.3"/>
	</g>
	<g>
		<path class="st7" d="M148.8,50.4c-0.9-10.6-6.8-11.4-6.7,0C142.1,54.7,148.9,54.7,148.8,50.4"/>
	</g>
	<g>
		<path class="st7" d="M139.1,53.4c-2.7-6.9-6.5-5.8-5.4,1.4C132.9,61.7,143.1,59,139.1,53.4"/>
	</g>
	<g>
		<path class="st7" d="M160.6,62.4c0.3-7.4-3.6-7.9-5.6-0.9C151.6,67.4,162.1,69,160.6,62.4"/>
	</g>
	<g>
		<path class="st7" d="M152.6,68.7c-2.1-0.6-3.4,2.5-1.5,3.5c1.2,0.3,2.5,1.8,2.7,2.4C157.7,83.6,165.9,71.6,152.6,68.7"/>
	</g>
	<g>
		<path class="st7" d="M14.7,56.9c-2.1-0.6-3.4,2.5-1.5,3.5c1.2,0.3,2.5,1.8,2.7,2.4C19.9,71.8,28,59.8,14.7,56.9"/>
	</g>
	<g>
		<path class="st3" d="M70.1,114.2c-12.7,0-26.7-2.1-42.7-6.4c-5.1-1.4-10.5-2.9-15.3-5.8c-5.4-3.2-9.3-7.7-11-12.6
			c-3.4-9.9,1.6-20,7.6-29.4c6-9.5,10.8-18,8.7-26.8c-0.6-2.5-1.7-4.8-2.9-7.2c-0.9-1.9-1.9-3.9-2.6-5.9c-1.6-4.6-1.3-8.5,0.7-11.7
			C16,3,23.7,1.1,29.5,0.5c3.7-0.4,7.7-0.3,11.9,0.2c8.5,1.1,29.9,3.8,45.8,4.1c0.8,0,1.5,0.7,1.5,1.5c0,0.8-0.7,1.5-1.5,1.5
			C71.1,7.6,49.5,4.9,41,3.7c-3.9-0.5-7.6-0.6-11.2-0.2C22.5,4.3,17.2,6.6,15.1,10c-1.5,2.4-1.7,5.5-0.4,9.2
			c0.6,1.9,1.5,3.7,2.5,5.6c1.2,2.5,2.5,5,3.2,7.8c2.6,10.7-4.1,21.3-9,29.1C5.7,70.4,0.9,79.8,3.9,88.5c1.5,4.3,4.9,8.2,9.7,11
			c4.5,2.7,9.7,4.2,14.6,5.5c19.8,5.3,36.5,7.2,51.3,5.9c9-0.8,17.4-2.9,24.9-6.2l0.5-0.2c5.7-2.5,11.2-5.9,16.5-9.2
			c9.9-6.1,20.2-12.4,32-13.6c0.8-0.1,1.6-0.1,2.4-0.2c3.5-0.3,6.8-0.6,9.2-2.5c4.5-3.6,3.5-10.9,2.5-14.9
			c-1.1-4.6-4.7-15.7-13.7-18c-1.2-0.3-2.5-0.5-3.9-0.6c-1.6-0.2-3.2-0.4-4.9-0.9c-4.9-1.5-8.9-5.6-10.8-11.1
			c-1.5-4.4-1.7-9.5-0.5-15.2l0.1-0.5c0.2-1.2,0.5-2.4,0.5-3.5c0-0.6-0.1-1.2-0.3-1.7c-1-2.8-4.8-3.8-8.1-3.8c0,0-0.1,0-0.1,0
			c-0.8,0-1.5-0.7-1.5-1.5c0-0.8,0.7-1.5,1.5-1.5c5.6,0,9.7,2.2,11,5.8c0.3,0.8,0.4,1.7,0.4,2.6c0,1.4-0.3,2.8-0.6,4.1l-0.1,0.5
			c-1.1,5.2-0.9,9.8,0.4,13.7c1.6,4.5,4.9,8,8.8,9.2c1.4,0.4,2.8,0.6,4.3,0.8c1.4,0.2,2.8,0.3,4.3,0.7c7.4,2,13.2,9.3,15.9,20.2
			c1.2,4.7,2.3,13.4-3.5,18c-3.1,2.5-7.1,2.8-10.9,3.1c-0.8,0.1-1.5,0.1-2.3,0.2c-11.1,1.2-20.6,7-30.7,13.2
			c-5.4,3.3-11,6.7-16.8,9.3l-0.5,0.2c-7.8,3.4-16.5,5.6-25.8,6.5C76.6,114.1,73.4,114.2,70.1,114.2z"/>
	</g>
	<g>
		<g>
			<path class="st7" d="M27.9,25l0.4,2.5l-2.9,0.6l-0.6-8.3l2.4-0.6l0.4,2.8l1.5-0.4l-0.5-2.9l2.4-0.9l2.2,8.6L30,27.3l-0.5-2.8
				L27.9,25z"/>
		</g>
		<g>
			<path class="st7" d="M40.6,25.7l-2.4,1.1l0-0.4c-0.2,0.1-0.3,0.1-0.5,0.1c-0.2,0-0.3,0.1-0.5,0.1c-0.8,0.1-1.7-0.1-2.5-0.6
				c-0.8-0.5-1.4-1.3-1.6-2.3c0-0.1-0.1-0.3-0.1-0.4c-0.1-0.9,0.1-1.7,0.6-2.6c0.5-0.9,1.3-1.4,2.3-1.7c0.2,0,0.3-0.1,0.5-0.1
				c0.2,0,0.3,0,0.5,0l-0.1-0.4l3.3-0.6L40.6,25.7z M37.7,23.7l-0.4-2.1c0,0-0.1-0.1-0.1-0.1c-0.3-0.2-0.6-0.2-0.9-0.2
				c-0.1,0-0.1,0-0.2,0c-0.4,0.1-0.7,0.3-0.9,0.6c-0.2,0.3-0.2,0.6-0.2,0.9c0,0.1,0,0.1,0,0.2c0.1,0.4,0.3,0.7,0.6,0.9
				c0.3,0.2,0.6,0.2,0.9,0.2c0.1,0,0.1,0,0.2,0C37.1,24,37.4,23.9,37.7,23.7z"/>
		</g>
		<g>
			<path class="st7" d="M44.6,23.8l1.2,2.9l-3.2,1.2l-1.9-9.1c1.3-1.1,2.4-1.8,3.5-2c0.1,0,0.2,0,0.3,0c1-0.1,1.9,0.1,2.8,0.7
				c0.7,0.5,1.1,1.2,1.3,2.2l0,0.1c0.1,0.8-0.1,1.6-0.6,2.4C47.5,23,46.4,23.5,44.6,23.8L44.6,23.8z M43.3,20.1l0.5,1.2
				c0.1,0,0.2,0,0.3,0c1.1-0.1,1.6-0.5,1.7-1c0-0.1,0-0.2,0-0.3c-0.1-0.4-0.3-0.6-0.7-0.6c-0.1,0-0.2,0-0.3,0
				C44.4,19.5,43.9,19.7,43.3,20.1z"/>
		</g>
		<g>
			<path class="st7" d="M52.7,22.7l1.2,2.9l-3.2,1.2l-1.9-9.1c1.3-1.1,2.4-1.8,3.5-2c0.1,0,0.2,0,0.3,0c1-0.1,1.9,0.1,2.8,0.7
				c0.7,0.5,1.1,1.2,1.3,2.2l0,0.1c0.1,0.8-0.1,1.6-0.6,2.4C55.6,21.9,54.5,22.4,52.7,22.7L52.7,22.7z M51.4,19l0.5,1.2
				c0.1,0,0.2,0,0.3,0c1.1-0.1,1.6-0.5,1.7-1c0-0.1,0-0.2,0-0.3c-0.1-0.4-0.3-0.6-0.7-0.6c-0.1,0-0.2,0-0.3,0
				C52.4,18.4,51.9,18.6,51.4,19z"/>
		</g>
		<g>
			<path class="st7" d="M60.4,17.4l1.1-2.6l3.2,1.3l-5.3,9.3l-2-1l1.8-4.4l-2.6-2.6l2.3-2.1L60.4,17.4z"/>
		</g>
		<g>
			<path class="st7" d="M70.4,15.9l1-3.1l3.7,0.1l-2.5,4.4l3.1,1.5l-2.4,2.7l-2.1-2.1l0.5,1.7l-2.7,1l-1.1-8.3l2,0L70.4,15.9z"/>
		</g>
		<g>
			<path class="st7" d="M77,14.5c-0.3,0-0.7,0-0.9-0.3c-0.3-0.2-0.5-0.5-0.5-0.9c0-0.1,0-0.1,0-0.2c0-0.3,0.1-0.6,0.3-0.8
				c0.2-0.3,0.5-0.5,0.8-0.5c0.3,0,0.7,0,0.9,0.3c0.3,0.2,0.5,0.5,0.5,0.9c0.1,0.4,0,0.7-0.2,1C77.6,14.2,77.3,14.4,77,14.5z
				 M78.3,14.8l1.2,5.6l-3,1.1l-0.2-1.9l-0.5-4.2L78.3,14.8z"/>
		</g>
		<g>
			<path class="st7" d="M83.8,14.1l-0.6-2.8l3.1,0.1l0.7,8c-0.9,0.4-1.8,0.7-2.7,0.8c-0.9,0.1-1.7,0.1-2.5-0.2
				c-1.3-0.4-2-1.2-2.2-2.6c0-0.3-0.1-0.6,0-0.9c0-1.5,0.9-2.3,2.6-2.5C82.6,14,83.1,14,83.8,14.1L83.8,14.1z M84.4,17.8l-0.3-1.3
				c-0.6,0-1,0-1.3,0c-0.5,0.1-0.8,0.2-0.8,0.5c0,0,0,0.1,0,0.1c0,0.3,0.2,0.6,0.6,0.7c0.3,0.1,0.7,0.1,1.1,0
				C84,17.9,84.2,17.9,84.4,17.8z"/>
		</g>
		<g>
			<path class="st7" d="M90,16.2c-1.6,0-2.5-0.6-2.6-1.8c0-0.2,0-0.5,0-0.8c0.2-1.5,1.5-2.4,3.8-2.7c0.5-0.1,1-0.1,1.6-0.1l-0.1,2.8
				c-0.2,0-0.3,0-0.5,0c-0.4,0-0.8,0-1.1,0.1c-0.5,0.1-0.8,0.2-0.8,0.3c0,0,0,0,0,0.1l0,0c0,0.2,0.3,0.3,0.8,0.3
				c1.7,0.1,2.6,0.6,2.7,1.7c0.1,0.6,0,1.2-0.3,1.8c-0.3,0.6-0.7,1-1.2,1.2c-0.5,0.2-1.1,0.4-1.7,0.5c-0.9,0.1-1.8,0-3-0.3l0.4-2.7
				c0.6,0.2,1.1,0.3,1.6,0.3c0.2,0,0.3,0,0.5,0c0.3,0,0.4-0.1,0.4-0.2c0,0,0,0,0-0.1l0,0C90.5,16.3,90.3,16.2,90,16.2z"/>
		</g>
		<g>
			<path class="st7" d="M98,18.2l-1.6-9c5.4-0.7,8.4,0.4,8.8,3.4C105.5,15.6,103.2,17.5,98,18.2z M99.6,11.5l0.7,2.5l0,0
				c1.4-0.2,2-0.7,1.9-1.5C102,11.6,101.2,11.3,99.6,11.5z"/>
		</g>
		<g>
			<path class="st7" d="M113.3,15.8l-2.4,1.1l0-0.4c-0.2,0.1-0.3,0.1-0.5,0.1c-0.2,0-0.3,0.1-0.5,0.1c-0.8,0.1-1.7-0.1-2.5-0.6
				c-0.8-0.5-1.4-1.3-1.6-2.3c0-0.1-0.1-0.3-0.1-0.4c-0.1-0.9,0.1-1.7,0.6-2.6s1.3-1.4,2.3-1.7c0.2,0,0.3-0.1,0.5-0.1
				c0.2,0,0.3,0,0.5,0l-0.1-0.4l3.3-0.6L113.3,15.8z M110.4,13.8l-0.4-2.1c0,0-0.1-0.1-0.1-0.1c-0.3-0.2-0.6-0.2-0.9-0.2
				c-0.1,0-0.1,0-0.2,0c-0.4,0.1-0.7,0.3-0.9,0.6c-0.2,0.3-0.2,0.6-0.2,0.9c0,0.1,0,0.1,0,0.2c0.1,0.4,0.3,0.7,0.6,0.9
				c0.3,0.2,0.6,0.2,0.9,0.2c0.1,0,0.1,0,0.2,0C109.8,14.1,110.1,14,110.4,13.8z"/>
		</g>
		<g>
			<path class="st7" d="M117,9.6l1.1-2.6l3.2,1.3l-5.3,9.3l-2-1l1.8-4.4l-2.6-2.6l2.3-2.1L117,9.6z"/>
		</g>
	</g>
	<g>
		<path class="st3" d="M121.1,5.7c-0.1,0-0.1,0-0.2,0c-0.3-0.1-0.4-0.4-0.3-0.6l1.8-4.7c0.1-0.3,0.4-0.4,0.6-0.3
			c0.3,0.1,0.4,0.4,0.3,0.6l-1.8,4.7C121.5,5.6,121.3,5.7,121.1,5.7z"/>
	</g>
	<g>
		<path class="st3" d="M115.6,6c-0.2,0-0.4-0.1-0.5-0.3l-1.5-4.5c-0.1-0.3,0.1-0.5,0.3-0.6c0.3-0.1,0.5,0.1,0.6,0.3l1.5,4.5
			c0.1,0.3-0.1,0.5-0.3,0.6C115.7,6,115.6,6,115.6,6z"/>
	</g>
	<g>
		<path class="st3" d="M111.3,7.2c-0.1,0-0.2,0-0.3-0.1l-4.3-2.6c-0.2-0.1-0.3-0.4-0.2-0.7c0.1-0.2,0.4-0.3,0.7-0.2l4.3,2.6
			c0.2,0.1,0.3,0.4,0.2,0.7C111.7,7.1,111.5,7.2,111.3,7.2z"/>
	</g>
</g>
</svg>
