<?xml version="1.0" encoding="utf-8"?>
<!-- Generator: Adobe Illustrator 25.2.1, SVG Export Plug-In . SVG Version: 6.00 Build 0)  -->
<svg version="1.1" id="Layer_1" xmlns="http://www.w3.org/2000/svg" xmlns:xlink="http://www.w3.org/1999/xlink" x="0px" y="0px"
	 viewBox="0 0 180 275.5" style="enable-background:new 0 0 180 275.5;" xml:space="preserve">
<style type="text/css">
	.st0{fill:#FFC95E;}
	.st1{fill:#F89521;}
	.st2{fill:#EB0D8C;}
	.st3{fill:#F47A50;}
	.st4{fill:#342624;}
	.st5{fill:#BD5F3D;}
	.st6{fill:#F8A282;}
	.st7{fill:#FCB44B;}
	.st8{fill:#E55365;}
	.st9{fill:#85C54E;}
	.st10{fill:#010101;}
	.st11{fill:#FBBF9D;}
	.st12{fill:#F47536;}
	.st13{fill:#209DD8;}
	.st14{fill:#E982B5;}
	.st15{fill:#F7B132;}
	.st16{fill:#FAE807;}
	.st17{fill:#3D3D3C;}
	.st18{fill:#E4215D;}
	.st19{fill:#44C8F5;}
	.st20{fill:#FDB92E;}
	.st21{fill:#FFFFFF;}
	.st22{fill:#9C2E8C;}
	.st23{fill:#61318E;}
	.st24{fill:#1F82C2;}
	.st25{fill:#F3C7D6;}
	.st26{fill:#923D83;}
	.st27{fill:#3F5691;}
	.st28{fill:#EF8032;}
	.st29{fill:#FEFEFE;}
	.st30{fill:#FAF6F2;}
	.st31{fill:#93C04C;}
	.st32{fill:#EE5B27;}
	.st33{fill:none;stroke:#FFE8C2;stroke-miterlimit:10;}
	.st34{fill:none;stroke:#000000;stroke-miterlimit:10;}
</style>
<g>
	<g>
		<g>
			<path class="st10" d="M119.2,6.2c-5.4-1.9-10.6-4.5-16.2-5.7c-1-0.2-2.1-0.4-3.2-0.5C98.5,0,97.3,0.3,96,0.7
				c-2.9,0.9-5.6,2-8.2,3.4c-5.2,2.7-10,6.3-14.1,10.4c-0.9,0.9-1.8,1.9-2.6,2.9c-0.8,1-1.5,2.2-2.4,3.2c-1.4,1.5-2.8,3-4,4.7
				c-9.4,13.2-11.6,32.1-4,46.7c1.9,3.6,4.4,6.8,7.4,9.4c3.3,2.9,7.3,5.1,11.2,6.9c8.8,4,18.6,5.5,28.2,4.7
				c9.3-0.8,18.6-3.9,26.1-9.5c1.9-1.4,3.6-3,5.2-4.7c1.7-1.8,3.4-3.7,5-5.6c3.3-4.3,5.7-9.4,7-14.7c2.6-11.1-0.9-22.7-7.3-31.9
				c-5.6-8-14-14.1-22.8-18.1c-2.3-1-4.7-2-7.1-2.9c-1.3-0.5-1.8,1.5-0.6,2c8.5,3.7,17.2,8.2,23.8,14.9c3.4,3.4,6.2,7.3,8.3,11.7
				c2.4,5,4.2,10.5,4.2,16.1c0,5.4-1.3,10.7-3.7,15.5c-2.2,4.4-5.4,8.1-8.7,11.6c-6.1,6.4-14.5,10.5-23.2,12.2
				c-8.9,1.8-18.4,1.4-27.1-1.3c-7.9-2.4-15.9-6.5-20.9-13.2c-9.4-12.5-8.9-30.7-1.8-44.1c0.9-1.7,1.9-3.3,3-4.9
				c1.1-1.5,2.5-2.9,3.7-4.3c1.6-1.9,3-4,4.7-5.9c1.9-2,4-3.8,6.1-5.5c4.6-3.5,9.8-6.4,15.3-8.2c1.1-0.4,2.1-0.7,3.3-0.6
				c1.2,0.1,2.5,0.3,3.7,0.5c2.4,0.5,4.6,1.3,6.9,2.1c2.8,0.9,5.5,1.9,8.3,2.8C119.5,7.4,119.7,6.4,119.2,6.2L119.2,6.2z"/>
		</g>
	</g>
	<g>
		<g>
			<path class="st11" d="M125.4,5.8C116.7,2.9,110.9,0,105.1,0C93.5,2.9,81.9,11.6,76,20.3c-17.4,17.4-17.4,52.3,5.8,63.9
				c20.3,11.6,49.4,8.7,63.9-8.7c8.7-8.7,14.5-23.2,8.7-37.7c-5.8-17.4-20.3-26.1-34.8-31.9"/>
		</g>
	</g>
	<g>
		<g>
			<path class="st10" d="M101.1,82c-2.5,18-4.9,36.1-7.3,54.2c-0.6,4.6-1.2,9.2-1.8,13.9c-0.6,4.3-0.3,8.8-0.5,13.2
				c-0.3,8.6-0.9,17.1-1.1,25.7c-0.1,4.8-0.2,9.7,0,14.6c0.1,2.4,0.2,4.8,0.4,7.2c0.2,2.7,0.3,5.7,1.2,8.3c0.4,1,1.8,0.6,1.9-0.4
				c0.2-2.4-0.2-4.8-0.4-7.1c-0.2-2.1-0.3-4.3-0.4-6.4c-0.2-4.2-0.2-8.4-0.2-12.6c0.1-8.5,0.5-17.1,0.8-25.6
				c0.2-4.3,0.3-8.6,0.3-12.9c0-4.8,0.9-9.5,1.5-14.3c1.1-8.9,2.1-17.9,3.2-26.8c1.2-10.2,2.4-20.4,3.5-30.7
				C102.2,81.6,101.2,81.4,101.1,82L101.1,82z"/>
		</g>
	</g>
	<g>
		<g>
			<path class="st10" d="M46.8,239.6c3.3-1.5,6.2-3.7,9-6.1c1.5-1.3,3-2.7,4.4-4c0.7-0.7,1.4-1.4,2.1-2.1c0.7-0.7,1.4-1.6,2.3-2.2
				c1-0.6,2.1-1,3.1-1.6c1.3-0.6,2.5-1.3,3.8-2c2.6-1.5,5.2-3,7.6-4.8c2.3-1.8,4.8-3.8,6-6.5c-0.8-0.1-1.5-0.3-2.3-0.4
				c0.3,3.6,5.4,3.8,8.1,3.9c4.1,0.2,7.9,1.8,11.5,3.7c7.8,4.3,14,10.9,19.8,17.4c3.3,3.7,6.6,7.5,10.4,10.8c1.1,1,2.7-0.8,1.7-1.9
				c-5.6-6.4-11.2-12.9-17.4-18.8c-6.2-5.9-13.2-11.1-21.6-13c-2-0.5-3.9-0.4-5.9-0.5c-1.2-0.1-4.3-0.1-4.3-1.8
				c0-1.3-1.7-1.3-2.3-0.4c-1.6,2.9-4.5,5-7.2,6.9c-3,2.1-6.3,3.9-9.5,5.6c-1.4,0.8-2.9,1.3-4,2.5c-1.8,1.8-3.6,3.7-5.5,5.4
				c-3.3,3.1-6.8,6.3-10.8,8.5C45.2,238.7,45.9,240,46.8,239.6L46.8,239.6z"/>
		</g>
	</g>
	<g>
		<g>
			<path class="st10" d="M25.9,134.9c5.9,3.1,11.8,5.7,18.6,6.1c3.5,0.2,7,0.2,10.5,0.6c3.8,0.4,7.6,1,11.4,1.6
				c3.8,0.7,7.6,1.5,11.3,2.4c1.8,0.4,3.6,0.9,5.3,1.3c1.8,0.4,3.6,0.3,5.4,0.3c8,0,15.9,0,23.9,0.1c9,0,18.1,0.3,27.1-0.4
				c1.1-0.1,1-1.6-0.1-1.7c-7.7-0.5-15.3-0.4-23-0.4c-8,0-16.1,0-24.1,0.1c-1.9,0-3.8,0-5.7,0c-0.9,0-1.8,0.1-2.7-0.1
				c-0.9-0.2-1.7-0.4-2.6-0.6c-3.7-0.8-7.3-1.6-11-2.3c-7.3-1.3-14.7-2.4-22.1-2.5c-4.2-0.1-8.3-0.2-12.4-1.5
				c-3.3-1-6.3-2.4-9.4-3.9C25.7,133.6,25.3,134.6,25.9,134.9L25.9,134.9z"/>
		</g>
	</g>
	<g>
		<g>
			<path class="st10" d="M139.5,146.8c7.2-2.8,13.1-7.6,19.1-12.4c2.9-2.2,5.7-4.5,8.9-6.4c3-1.8,6.4-3.2,9.8-4.2
				c1.3-0.4,0.8-2.3-0.5-2.1c-7.4,1.1-13.6,5.9-19.2,10.6c-5.8,4.9-11.6,10-18.7,13C138.2,145.7,138.7,147.1,139.5,146.8
				L139.5,146.8z"/>
		</g>
	</g>
	<g>
		<g>
			<path class="st10" d="M147.5,140.1c-0.1,2.2,1,4.1,2.2,5.8c1.8,2.5,4,4.5,6.3,6.5c5.1,4.3,10.7,8.1,16.5,11.4
				c2.3,1.3,4.7,2.5,7.2,3.5c1,0.4,1.8-1.1,0.9-1.7c-4.5-2.8-9.1-5.4-13.6-8.2c-5.2-3.3-10.4-6.7-14.7-11.1
				c-1.6-1.6-3.4-3.7-3.6-6.1C148.6,139.5,147.5,139.4,147.5,140.1L147.5,140.1z"/>
		</g>
	</g>
	<g>
		<g>
			<path class="st10" d="M34.4,137c-1,0.9-1.9,1.8-2.9,2.8c0.3,0,0.6,0.1,0.9,0.1c-2.3-2.5-3.9-5.6-5.8-8.4
				c-0.8-1.1-1.7-2.8-2.8-3.6c-0.6-0.4-1.5-0.6-2.2-0.8c-0.8-0.3-1.7-0.6-2.5-1c-6.6-2.6-12.6-6.1-18.8-9.6c-0.6-0.3-1.1,0.6-0.6,1
				c5.5,4.3,11.7,7.8,18.2,10.3c0.7,0.3,1.5,0.6,2.3,0.8c0.8,0.3,1.8,0.4,2.5,0.8c1.1,0.6,2.1,2.4,2.8,3.4c1.9,2.7,3.7,5.6,6,7.8
				c0.3,0.3,0.7,0.3,1,0c0.9-1,1.9-2,2.8-2.9C35.7,137.2,34.9,136.5,34.4,137L34.4,137z"/>
		</g>
	</g>
	<g>
		<g>
			<path class="st10" d="M25.7,131c-3.1,2.9-6.8,5-10.5,7.1c-3.5,2.1-7.3,4.2-10,7.3c-0.6,0.7,0.3,1.9,1.1,1.3
				c3.4-2.8,7-5.1,10.7-7.5c3.4-2.1,6.8-4.3,9.6-7.2C27.2,131.4,26.3,130.4,25.7,131L25.7,131z"/>
		</g>
	</g>
	<g>
		<g>
			<path class="st10" d="M28.3,137.3c-0.1,5.8-2.7,11.5-4.9,16.8c-2.1,5-4.4,10-6.6,15c-0.3,0.7,0.9,1.3,1.3,0.6
				c2.8-4.9,5.2-9.9,7.3-15.1c1.2-3,2.3-6.1,3.2-9.3c0.7-2.6,1.3-5.2,1.3-7.9C29.8,136.4,28.3,136.3,28.3,137.3L28.3,137.3z"/>
		</g>
	</g>
	<g>
		<g>
			<path class="st10" d="M147.2,149.4c6.1,9.6,10.8,20.1,17.6,29.2c0.7,0.9,2.2-0.1,1.6-1c-5.7-9.8-11.1-19.9-17.6-29.2
				C148.2,147.4,146.6,148.4,147.2,149.4L147.2,149.4z"/>
		</g>
	</g>
	<g>
		<g>
			<path class="st10" d="M134,245.1c1.8-2.6,4.8-4.3,7.5-5.6c3.5-1.8,7.3-3.1,11.1-4c3.7-0.9,7.6-1.4,11.5-1c3,0.3,6.2,1.1,8.2,3.5
				c0.9,1.1,1.1,2.1,1,3.5c-0.1,1-0.5,2-1.1,2.8c-1.3,1.9-3.7,2.9-5.8,3.5c-6.2,1.7-13,1.3-19.3,0.8c-5.4-0.4-11.1-1.5-16.4-1.6
				c-0.8,0-1,1.3-0.1,1.3c2,0,4,0.6,6,0.8c3.1,0.4,6.3,0.8,9.4,1.1c6.8,0.6,14.1,1.2,20.8-0.6c2.6-0.7,5.2-1.8,6.8-3.9
				c1.5-1.8,2.4-5.3,1.3-7.5c-3.4-6.7-13.2-6.4-19.5-5.3c-4.7,0.8-9.3,2.4-13.6,4.5c-3.2,1.6-6.8,3.8-8.8,7
				C132.7,245,133.6,245.7,134,245.1L134,245.1z"/>
		</g>
	</g>
	<g>
		<g>
			<path class="st10" d="M46.7,226.9c-4.8-2.5-9.8-5.1-15.3-5.5c-2.5-0.2-5.2,0.1-7.3,1.5c-1.3,0.8-2.6,2.2-3.1,3.7
				c-0.7,2.6,1.8,4.2,3.8,5.1c3.5,1.5,7.5,2.1,11.3,2.8c2.3,0.4,4.6,0.7,6.8,1.2c2,0.4,4.2,0.5,6.1,1.4c1.1,0.5,1.7-1.2,0.7-1.7
				c-2.6-1.3-5.8-1.7-8.6-2.1c-3.7-0.6-7.5-1-11.2-1.8c-1.7-0.4-3.3-0.8-4.9-1.4c-0.9-0.4-1.9-0.9-2.4-1.7c-0.5-0.9,0.1-1.9,0.6-2.6
				c1.6-1.9,3.9-2.8,6.3-2.9c5.8-0.2,11.6,2.7,16.7,5.2C46.8,228.1,47.3,227.2,46.7,226.9L46.7,226.9z"/>
		</g>
	</g>
	<g>
		<g>
			<path class="st12" d="M43.6,260.5h0.9v6c0.9-0.9,4.2-4,6.3-6h1.2l-5.2,4.9l5.5,6.6h-1.1l-5-6l-1.6,1.4v4.6h-0.9V260.5z"/>
			<path class="st12" d="M52.5,272.2h-1.4l0,0l-4.9-5.9l-1.5,1.3v4.7h-1.1v-11.8h1.1v5.8c0.3-0.3,0.8-0.8,1.3-1.3
				c1.4-1.3,3.3-3.2,4.7-4.5l0,0h1.6l-5.3,5L52.5,272.2z M51.2,271.9H52l-5.4-6.5l0.1-0.1l4.9-4.7h-0.8c-1.4,1.3-3.3,3.2-4.7,4.5
				c-0.7,0.7-1.2,1.2-1.6,1.5l-0.2,0.2v-6.2h-0.6v11.3h0.6v-4.5l1.8-1.6l0.1,0.1L51.2,271.9z"/>
		</g>
		<g>
			<path class="st12" d="M57,259.9h0.8v1.6H57V259.9z M57,263.8h0.8v8.2H57V263.8z"/>
			<path class="st12" d="M57.9,272.2h-1.1v-8.5h1.1V272.2z M57.1,271.9h0.6v-8h-0.6V271.9z M57.9,261.6h-1.1v-1.8h1.1V261.6z
				 M57.1,261.4h0.6V260h-0.6V261.4z"/>
		</g>
		<g>
			<path class="st12" d="M70.1,259.9v9.8c0,0.8,0,1.5,0,2.4h-0.8c0-0.2,0-1,0-1.4c-0.4,1-1.3,1.6-2.8,1.6c-2.1,0-3.4-1.7-3.4-4.2
				c0-2.5,1.4-4.4,3.6-4.4c1.6,0,2.3,0.7,2.6,1.2v-4.9H70.1z M64,268c0,2.3,1.2,3.5,2.6,3.5c2.2,0,2.8-1.5,2.8-3.7
				c0-2.1-0.5-3.3-2.6-3.3C65.1,264.4,64,265.7,64,268z"/>
			<path class="st12" d="M66.5,272.4c-2.2,0-3.6-1.7-3.6-4.3c0-2.7,1.5-4.5,3.8-4.5c1.4,0,2.1,0.5,2.4,0.9v-4.6h1.1v9.9
				c0,0.8,0,1.5,0,2.4l0,0.1h-1l0-0.1c0-0.1,0-0.5,0-0.9C68.7,271.9,67.8,272.4,66.5,272.4z M66.7,263.7c-2.1,0-3.5,1.7-3.5,4.3
				c0,2.5,1.3,4.1,3.3,4.1c1.3,0,2.2-0.5,2.6-1.5l0.2-0.6v0.6c0,0.4,0,1,0,1.3H70c0-0.8,0-1.5,0-2.2V260h-0.6v5.4l-0.2-0.5
				C69,264.5,68.4,263.7,66.7,263.7z M66.6,271.6c-1.3,0-2.7-1.1-2.7-3.6c0-2.3,1.1-3.7,2.9-3.7c2.3,0,2.7,1.4,2.7,3.5
				C69.5,269.5,69.1,271.6,66.6,271.6z M66.7,264.5c-1.6,0-2.6,1.3-2.6,3.5c0,2,1,3.3,2.5,3.3c1.9,0,2.6-1.1,2.6-3.6
				C69.2,265.7,68.8,264.5,66.7,264.5z"/>
		</g>
		<g>
			<path class="st12" d="M76,269.8c0.3,1.1,1,1.7,2.3,1.7c1.5,0,2.1-0.7,2.1-1.6c0-0.9-0.4-1.4-2.2-1.8c-2.1-0.5-2.7-1.2-2.7-2.2
				c0-1.1,0.9-2.2,2.7-2.2c1.9,0,2.7,1.1,2.9,2.3h-0.8c-0.1-0.7-0.7-1.5-2.1-1.5c-1.4,0-1.8,0.7-1.8,1.4c0,0.8,0.4,1.1,2,1.5
				c2.3,0.6,2.9,1.3,2.9,2.6c0,1.5-1.2,2.4-2.9,2.4c-1.9,0-2.9-1-3.2-2.5H76z"/>
			<path class="st12" d="M78.4,272.4c-1.8,0-3-0.9-3.3-2.6l0-0.1h1.1l0,0.1c0.3,1.1,1,1.6,2.2,1.6c1.3,0,1.9-0.5,1.9-1.5
				c0-0.8-0.3-1.3-2.1-1.7c-2-0.5-2.7-1.1-2.7-2.4c0-1.2,0.9-2.3,2.8-2.3c2,0,2.9,1.3,3,2.4l0,0.1h-1.1l0-0.1
				c-0.1-0.4-0.5-1.4-2-1.4c-1.5,0-1.7,0.8-1.7,1.2c0,0.7,0.3,1,1.9,1.4c2.2,0.5,3,1.2,3,2.7C81.4,271.3,80.2,272.4,78.4,272.4z
				 M75.3,269.9c0.3,1.4,1.3,2.2,3,2.2c1.7,0,2.8-0.9,2.8-2.3c0-1.1-0.5-1.9-2.8-2.4c-1.6-0.4-2.1-0.8-2.1-1.7c0-0.4,0.2-1.5,2-1.5
				c1.6,0,2.1,1.1,2.2,1.5H81c-0.2-1-1-2.1-2.7-2.1c-1.9,0-2.6,1.1-2.6,2.1c0,1,0.4,1.6,2.6,2.1c1.8,0.4,2.3,0.9,2.3,2
				c0,0.6-0.3,1.7-2.2,1.7c-1.3,0-2.1-0.6-2.4-1.7H75.3z"/>
		</g>
		<g>
			<path class="st12" d="M94.5,260.5h3.8c3.2,0,5.4,2.2,5.4,5.7c0,3.4-2.1,5.9-5.4,5.9h-3.8V260.5z M95.4,271.2h2.8
				c3,0,4.5-2.1,4.5-5c0-2.5-1.3-4.9-4.5-4.9h-2.8V271.2z"/>
			<path class="st12" d="M98.3,272.2h-3.9v-11.8h3.9c3.3,0,5.5,2.3,5.5,5.8C103.8,269.7,101.5,272.2,98.3,272.2z M94.6,271.9h3.7
				c3.1,0,5.2-2.3,5.2-5.7c0-3.3-2.1-5.5-5.2-5.5h-3.7V271.9z M98.2,271.3h-2.9v-10.1h2.9c3.4,0,4.7,2.6,4.7,5
				C102.8,269.4,101,271.3,98.2,271.3z M95.5,271.1h2.7c2.8,0,4.4-1.8,4.4-4.9c0-2.3-1.2-4.8-4.4-4.8h-2.7V271.1z"/>
		</g>
		<g>
			<path class="st12" d="M114.9,270.5c0,0.7,0.1,1.3,0.1,1.6h-0.8c-0.1-0.2-0.1-0.6-0.1-1.3c-0.3,0.6-1,1.5-2.7,1.5
				c-1.9,0-2.7-1.2-2.7-2.5c0-1.8,1.4-2.6,3.9-2.6c0.7,0,1.2,0,1.6,0v-0.8c0-0.8-0.2-1.9-2.1-1.9c-1.7,0-1.9,0.9-2.1,1.5H109
				c0.1-0.9,0.7-2.3,2.9-2.3c1.9,0,2.9,0.8,2.9,2.6V270.5z M114.1,267.8c-0.3,0-1.1,0-1.6,0c-1.8,0-3,0.5-3,1.9c0,1,0.7,1.7,1.9,1.7
				c2.4,0,2.7-1.6,2.7-3.3V267.8z"/>
			<path class="st12" d="M111.3,272.4c-2,0-2.9-1.3-2.9-2.6c0-1.8,1.3-2.8,4-2.8h1.4v-0.7c0-0.8-0.2-1.8-2-1.8c-1.6,0-1.8,0.8-2,1.5
				l0,0.1h-1.1l0-0.1c0.1-0.7,0.5-2.4,3.1-2.4c2,0,3.1,0.9,3.1,2.7v4.3c0,0.7,0.1,1.3,0.1,1.5l0,0.1h-1l0-0.1
				c-0.1-0.2-0.1-0.5-0.1-0.9C113.6,271.7,112.8,272.4,111.3,272.4z M112.5,267.3c-2.5,0-3.7,0.8-3.7,2.5c0,1.1,0.7,2.3,2.6,2.3
				c1.7,0,2.3-0.9,2.6-1.4l0.2-0.5l0,0.5c0,0.6,0.1,0.9,0.1,1.1h0.5c0-0.3-0.1-0.8-0.1-1.4v-4.3c0-1.7-0.9-2.5-2.8-2.5
				c-2.1,0-2.7,1.2-2.8,2.1h0.6c0.2-0.6,0.5-1.5,2.2-1.5c1.5,0,2.2,0.7,2.2,2v1H112.5z M111.4,271.6c-1.2,0-2-0.8-2-1.9
				c0-1.8,1.8-2,3.1-2h1.7v0.4C114.2,269.9,113.8,271.6,111.4,271.6z M112.4,268c-2,0-2.8,0.5-2.8,1.8c0,1,0.7,1.6,1.8,1.6
				c2.1,0,2.6-1.3,2.6-3.2V268H112.4z"/>
		</g>
		<g>
			<path class="st12" d="M120.6,263.8c1.7,4.7,2.4,6.6,2.7,7.5h0c0.3-1,1-2.9,2.6-7.5h0.9l-3.1,8.7c-0.9,2.4-1.5,3-2.9,3
				c-0.3,0-0.5,0-0.8,0v-0.8c0.2,0,0.5,0,0.7,0c1.2,0,1.6-0.6,2.2-2.3l-3.1-8.6H120.6z"/>
			<path class="st12" d="M120.7,275.6c-0.3,0-0.5,0-0.8,0l-0.1,0v-1.1l0.1,0c0.2,0,0.5,0,0.7,0c1.1,0,1.4-0.5,2-2.1l-3.2-8.7h1.2
				l0,0.1c0.7,2.1,1.3,3.6,1.7,4.8c0.4,1.2,0.7,1.9,0.9,2.5c0.4-1.1,1.1-3.2,2.5-7.2l0-0.1h1.1l-0.1,0.2l-3.1,8.7
				C122.9,275,122.2,275.6,120.7,275.6z M120,275.3c0.2,0,0.4,0,0.6,0c1.4,0,1.9-0.4,2.8-2.9l3-8.5h-0.6c-1.5,4.4-2.2,6.4-2.6,7.5
				l0,0.1h-0.2l0-0.1c-0.2-0.5-0.4-1.3-1-2.8c-0.4-1.1-0.9-2.6-1.7-4.7h-0.6l3.1,8.5l0,0c-0.6,1.6-1,2.4-2.3,2.4c-0.2,0-0.4,0-0.6,0
				V275.3z"/>
		</g>
	</g>
</g>
</svg>
