<?xml version="1.0" encoding="utf-8"?>
<!-- Generator: Adobe Illustrator 25.2.1, SVG Export Plug-In . SVG Version: 6.00 Build 0)  -->
<svg version="1.1" id="Layer_1" xmlns="http://www.w3.org/2000/svg" xmlns:xlink="http://www.w3.org/1999/xlink" x="0px" y="0px"
	 viewBox="0 0 180 81.2" style="enable-background:new 0 0 180 81.2;" xml:space="preserve">
<style type="text/css">
	.st0{fill:#FFC95E;}
	.st1{fill:#F89521;}
	.st2{fill:#EB0D8C;}
	.st3{fill:#F47A50;}
	.st4{fill:#342624;}
	.st5{fill:#BD5F3D;}
	.st6{fill:#F8A282;}
	.st7{fill:#FCB44B;}
	.st8{fill:#E55365;}
	.st9{fill:#85C54E;}
	.st10{fill:#010101;}
	.st11{fill:#FBBF9D;}
	.st12{fill:#F47536;}
	.st13{fill:#209DD8;}
	.st14{fill:#E982B5;}
	.st15{fill:#F7B132;}
	.st16{fill:#FAE807;}
	.st17{fill:#3D3D3C;}
	.st18{fill:#E4215D;}
	.st19{fill:#44C8F5;}
	.st20{fill:#FDB92E;}
	.st21{fill:#FFFFFF;}
	.st22{fill:#9C2E8C;}
	.st23{fill:#61318E;}
	.st24{fill:#1F82C2;}
	.st25{fill:#F3C7D6;}
	.st26{fill:#923D83;}
	.st27{fill:#3F5691;}
	.st28{fill:#EF8032;}
	.st29{fill:#FEFEFE;}
	.st30{fill:#FAF6F2;}
	.st31{fill:#93C04C;}
	.st32{fill:#EE5B27;}
	.st33{fill:none;stroke:#FFE8C2;stroke-miterlimit:10;}
	.st34{fill:none;stroke:#000000;stroke-miterlimit:10;}
</style>
<g>
	<g>
		<g>
			<path class="st8" d="M85.6,55.9c-0.3-0.2-0.6-0.5-0.8-1.1c-0.1-0.3-0.1-0.6-0.1-0.9c0-0.2,0-0.4,0-0.5c0.1-0.5,0.3-0.9,0.6-1.3
				c0.2-0.2,0.4-0.4,0.6-0.5c0.2-0.1,0.6-0.2,1-0.2l0.2,0v-0.3c0-0.4,0-0.9-0.1-1.7c-0.1-0.8-0.1-1.4-0.2-2c0-0.1,0-0.3-0.1-0.5
				c0-0.2-0.1-0.3-0.1-0.5c0-0.1,0-0.2-0.1-0.3c0-0.1,0-0.1,0-0.2v0c0,0,0,0,0,0c0,0,0,0,0.1,0c0,0,0.1,0,0.1,0c0,0,0,0.1,0.1,0.1
				c0.2,0.6,0.4,2,0.5,4.2c0,0.3,0,0.5,0,0.7c0,0.2,0,0.3,0,0.3h0c0,0,0.1,0,0.2,0c0.1,0,0.3,0,0.5-0.1c0.2,0,0.3,0,0.5-0.1
				c0.2,0,0.3,0,0.4-0.1c0.1,0,0.2-0.1,0.4-0.1c0.1,0,0.3-0.1,0.4-0.1l0.4-0.1l0-0.7c0-0.9,0.1-1.7,0.3-2.6c0.2-0.9,0.3-1.6,0.5-2
				c0.3-0.6,0.5-0.9,0.9-0.9c0.1,0,0.1,0,0.2,0c0.1,0,0.2,0.1,0.4,0.2c0.1,0.1,0.2,0.3,0.3,0.4c0.2,0.5,0.3,1,0.3,1.6v0
				c0,0.6-0.1,1.2-0.4,1.8c-0.2,0.5-0.5,0.9-0.8,1.3c-0.4,0.4-0.7,0.7-1.1,0.9l-0.3,0.1l0,0.5c0,1.6,0.5,2.6,1.4,3.1
				c0.3,0.1,0.5,0.2,0.7,0.2c0.1,0,0.2,0,0.3,0c0.3-0.1,0.6-0.3,0.8-0.6c0.3-0.4,0.6-0.9,0.9-1.6c0.1-0.3,0.2-0.6,0.3-0.8
				c0.1-0.2,0.2-0.3,0.2-0.3c0,0,0.1,0,0.1,0.1c0,0,0,0.1,0,0.1c0,0,0,0.1,0,0.1c0,0,0,0.1-0.1,0.2c-0.1,0.1-0.1,0.3-0.2,0.4
				c-0.1,0.2-0.1,0.3-0.2,0.4c-0.3,0.7-0.6,1.2-0.9,1.6c-0.3,0.4-0.6,0.6-0.8,0.7c-0.2,0.1-0.4,0.1-0.5,0.1c-0.3,0-0.6-0.1-0.9-0.3
				c-0.5-0.3-0.9-0.8-1.2-1.4c-0.2-0.4-0.3-0.9-0.3-1.6c0-0.2,0-0.3,0-0.4c0-0.1,0-0.2,0-0.2c0,0,0,0-0.1,0c-0.1,0-0.1,0-0.2,0.1
				c-0.4,0.2-1,0.3-1.6,0.3c-0.2,0-0.4,0-0.5,0.1c-0.1,0-0.2,0-0.2,0c0,0,0,0.1,0,0.2c0,0.1,0,0.3,0,0.5c-0.1,1.4-0.3,2.5-0.7,3.1
				c-0.2,0.3-0.5,0.5-0.8,0.5C85.8,56,85.7,56,85.6,55.9z M86.1,55.6c0.1,0,0.2-0.1,0.3-0.3c0.1-0.1,0.2-0.3,0.3-0.4
				c0.3-0.6,0.4-1.5,0.5-2.5l0-0.6l-0.2,0c-0.4,0-0.6,0.1-0.9,0.2c-0.2,0.1-0.4,0.2-0.6,0.4c-0.2,0.3-0.4,0.6-0.4,0.9
				C85,53.6,85,53.9,85,54.1c0,0.2,0,0.5,0.1,0.7c0.1,0.4,0.3,0.7,0.6,0.9c0.1,0.1,0.2,0.1,0.2,0.1c0,0,0.1,0,0.1,0
				C86,55.7,86.1,55.7,86.1,55.6z M90.8,50.6c0.9-0.5,1.6-1.5,1.9-2.7c0.1-0.3,0.1-0.5,0.1-0.8c0-0.2,0-0.4,0-0.6
				c-0.1-0.5-0.2-0.9-0.5-1.2C92.1,45.1,92,45,91.9,45c-0.2,0-0.3,0.1-0.5,0.4c-0.3,0.4-0.5,1.3-0.7,2.4c-0.1,0.4-0.1,0.8-0.2,1.3
				c0,0.4-0.1,0.8-0.1,1c0,0.2,0,0.4,0,0.4c0,0.2,0,0.2,0,0.2c0,0,0,0,0.1,0C90.6,50.7,90.7,50.6,90.8,50.6z"/>
			<path class="st9" d="M85.9,56.5c-0.2,0-0.3,0-0.5-0.1l0,0c-0.5-0.2-0.8-0.7-1-1.4c-0.1-0.3-0.2-0.7-0.2-1c0-0.2,0-0.4,0.1-0.6
				c0.1-0.6,0.3-1.1,0.7-1.5c0.2-0.3,0.5-0.5,0.8-0.6c0.2-0.1,0.5-0.2,0.9-0.2c0-0.4,0-0.9-0.1-1.5c-0.1-0.8-0.1-1.4-0.2-2
				c0-0.1,0-0.3-0.1-0.4c0-0.2-0.1-0.3-0.1-0.4c0-0.1-0.1-0.3-0.1-0.4c0-0.1,0-0.2,0-0.2l0-0.2l0.1-0.2l0.2-0.1
				c0.1-0.1,0.2-0.1,0.3-0.1H87l0.2,0.2c0.1,0.1,0.1,0.2,0.2,0.3c0.2,0.7,0.4,2.1,0.5,4.4c0,0.2,0,0.4,0,0.5c0,0,0.1,0,0.1,0
				l0.5-0.1c0.2,0,0.3,0,0.4-0.1c0.1,0,0.2-0.1,0.4-0.1c0.1,0,0.2-0.1,0.3-0.1l0.1,0l0-0.3c0-0.9,0.1-1.8,0.3-2.7
				c0.2-0.9,0.4-1.6,0.6-2.1c0.4-0.9,1-1.3,1.7-1.1c0.2,0.1,0.4,0.2,0.6,0.4c0.2,0.2,0.3,0.4,0.4,0.6c0.3,0.5,0.4,1.1,0.4,1.8
				c0,0.7-0.1,1.4-0.4,2c-0.2,0.5-0.5,1-0.9,1.4c-0.4,0.4-0.8,0.7-1.2,1l0,0.1c0,1.4,0.4,2.3,1.1,2.7c0.2,0.1,0.5,0.2,0.6,0.1
				c0.2,0,0.4-0.2,0.6-0.5c0.3-0.3,0.5-0.8,0.8-1.4c0.1-0.3,0.2-0.6,0.4-0.8c0.1-0.2,0.3-0.6,0.7-0.6c0.3,0,0.4,0.2,0.5,0.3
				c0.1,0.1,0.1,0.2,0.1,0.4c0,0.1,0,0.3-0.1,0.4c0,0,0,0-0.1,0.1l-0.2,0.4c-0.1,0.2-0.1,0.3-0.1,0.3c-0.3,0.8-0.6,1.3-1,1.7
				c-0.4,0.5-0.7,0.7-1.1,0.8c-0.3,0.1-0.5,0.1-0.6,0.1c-0.4,0-0.7-0.1-1.1-0.3c-0.6-0.4-1.1-1-1.4-1.7c-0.2-0.5-0.3-1-0.3-1.8
				c-0.4,0.1-0.9,0.2-1.4,0.3l-0.3,0c0,0.1,0,0.2,0,0.3c-0.1,1.5-0.3,2.6-0.8,3.3C86.8,56.2,86.4,56.5,85.9,56.5z M85.9,55.2
				C85.9,55.2,85.9,55.2,85.9,55.2L85.9,55.2L85.9,55.2z M86.6,52.3c-0.1,0-0.2,0.1-0.3,0.1c-0.2,0.1-0.3,0.2-0.4,0.3
				c-0.2,0.2-0.3,0.4-0.3,0.6c-0.1,0.4-0.1,0.6-0.1,0.7c0,0.2,0,0.4,0.1,0.6c0.1,0.3,0.2,0.5,0.3,0.6c0,0,0.1-0.1,0.1-0.1
				c0.1-0.1,0.2-0.2,0.2-0.3C86.5,54.2,86.6,53.4,86.6,52.3L86.6,52.3z M94.8,51.6C94.8,51.6,94.8,51.6,94.8,51.6
				C94.8,51.6,94.8,51.6,94.8,51.6z M91.9,45.6C91.9,45.6,91.8,45.6,91.9,45.6c-0.2,0.3-0.4,0.9-0.7,2.3c-0.1,0.4-0.1,0.8-0.2,1.2
				c0,0.3-0.1,0.5-0.1,0.7c0.6-0.5,1-1.2,1.2-2.1c0-0.2,0.1-0.5,0.1-0.7c0-0.2,0-0.4,0-0.6C92.2,46.1,92,45.8,91.9,45.6z"/>
		</g>
		<g>
			<path class="st8" d="M99.4,54.7c-0.1,0-0.1,0-0.2-0.1c-0.1,0-0.2-0.1-0.2-0.1c-0.8-0.5-1.3-1.4-1.4-2.8l0-0.5L97.3,52
				c-0.1,0.3-0.2,0.6-0.3,0.9c-0.1,0.3-0.3,0.6-0.4,0.9c-0.3,0.5-0.6,0.7-0.9,0.7h0c-0.3,0-0.5-0.3-0.7-0.9
				c-0.1-0.3-0.1-0.5-0.1-0.8c0-0.3,0-0.7,0.1-1c0.1-0.7,0.3-1.2,0.6-1.5c0.2-0.3,0.5-0.4,0.6-0.4c0.2,0,0.3,0,0.3,0
				c0.3,0,0.6,0.1,0.8,0.4c0.1,0.1,0.1,0.1,0.2,0.1c0,0,0.1-0.1,0.1-0.2v-0.1c0-0.2,0.1-0.3,0.2-0.3h0c0,0,0,0,0,0c0,0,0,0.1,0,0.1
				c0,0.1,0,0.1,0,0.3s0,0.3,0,0.5c0,0.1,0,0.3,0,0.4c0,0.3,0,0.6,0,0.8c0,0.3,0.1,0.6,0.2,0.9c0.3,1,0.8,1.5,1.5,1.7
				c0.1,0,0.2,0,0.2,0c0.5,0,1.1-0.3,1.7-0.9c0.4-0.5,0.8-1,1.1-1.7c0-0.1,0.1-0.2,0.1-0.2s0.1-0.1,0.1-0.1c0,0,0,0,0,0
				c0,0,0.1,0,0.1,0c0,0,0.1,0.1,0.1,0.1c0,0.1-0.1,0.2-0.2,0.4c-0.1,0.2-0.3,0.5-0.4,0.7c-0.4,0.7-0.9,1.2-1.4,1.5
				c-0.5,0.3-0.9,0.5-1.3,0.5C99.6,54.7,99.5,54.7,99.4,54.7z M96.3,53.7c0.2-0.3,0.3-0.7,0.5-1.2c0.1-0.2,0.1-0.5,0.2-0.7
				c0.1-0.3,0.1-0.5,0.2-0.7s0.1-0.3,0.1-0.4c0-0.1,0-0.2-0.1-0.3c-0.1-0.1-0.2-0.2-0.3-0.2c-0.2-0.1-0.3-0.1-0.5-0.1
				c-0.2,0-0.5,0.1-0.7,0.3c-0.3,0.4-0.5,0.8-0.5,1.2c-0.1,0.5-0.1,0.8-0.1,1.1c0,0.3,0,0.5,0.1,0.7c0.1,0.5,0.2,0.7,0.4,0.7h0
				C95.9,54.3,96.1,54.1,96.3,53.7z"/>
			<path class="st9" d="M99.7,55.2c-0.1,0-0.2,0-0.4,0l0,0c-0.1,0-0.2,0-0.3-0.1c-0.1,0-0.2-0.1-0.3-0.1c-0.6-0.4-1.1-0.9-1.4-1.7
				c-0.1,0.3-0.2,0.6-0.4,0.8c-0.4,0.6-0.8,1-1.3,1c-0.6,0-1-0.4-1.2-1.3c-0.1-0.3-0.1-0.6-0.1-1c0-0.4,0-0.7,0.1-1.1
				c0.2-0.8,0.4-1.3,0.7-1.7c0.4-0.4,0.7-0.6,1-0.6l0.3,0c0.3,0,0.5,0.1,0.7,0.2c0.1-0.1,0.2-0.2,0.3-0.2l0.2-0.5l0.1,0.5H98
				l0.2,0.3c0.1,0.1,0.1,0.2,0.1,0.3l0,0.7c0,0.1,0,0.3,0,0.4c0,0.3,0,0.5,0,0.7c0,0.3,0.1,0.6,0.2,0.8c0.2,0.8,0.6,1.2,1.1,1.3
				c0,0,0.1,0,0.1,0c0.4,0,0.9-0.3,1.4-0.8c0.4-0.4,0.7-0.9,1-1.6c0.1-0.1,0.1-0.2,0.1-0.3c0.1-0.1,0.1-0.2,0.3-0.3l0.1-0.1l0.2,0
				c0.1,0,0.3,0,0.4,0.1c0.2,0.1,0.3,0.3,0.3,0.5c0,0.2-0.1,0.3-0.2,0.7c-0.1,0.3-0.3,0.5-0.4,0.8c-0.5,0.8-1,1.3-1.5,1.7
				C100.8,55.1,100.2,55.2,99.7,55.2z M96.5,50.6c0,0-0.1,0-0.3,0.2c-0.2,0.3-0.4,0.6-0.4,1c-0.1,0.4-0.1,0.8-0.1,1.1
				c0,0.2,0,0.4,0.1,0.6c0,0,0,0.1,0,0.1c0,0,0.1-0.1,0.1-0.2c0.2-0.3,0.3-0.6,0.5-1.1c0.1-0.2,0.1-0.4,0.2-0.7
				c0.1-0.3,0.1-0.5,0.2-0.7c0-0.1,0-0.1,0-0.2c-0.1-0.1-0.1-0.1-0.1-0.1C96.6,50.7,96.5,50.6,96.5,50.6z"/>
		</g>
		<g>
			<path class="st8" d="M102.7,60.2c0-0.1,0-0.5,0-1.4c0-0.8,0-1.4,0-1.7c0-1.3,0-3,0-5l0-2.3c0-0.1,0-0.2,0.1-0.2c0,0,0.1,0,0.1,0
				c0,0,0,0,0.1,0c0,0,0.1,0.1,0.1,0.2l0,0.8l0,1l0.2-0.4c0.1-0.2,0.3-0.5,0.4-0.7c0.2-0.2,0.4-0.4,0.6-0.6c0.2-0.2,0.5-0.2,0.7-0.2
				c0.4,0,0.7,0.2,1,0.6c0.3,0.4,0.4,0.9,0.5,1.5l0,0.3l0.6,0c0.4,0,0.7-0.1,0.9-0.1c0.2-0.1,0.4-0.2,0.6-0.3
				c0.2-0.1,0.3-0.2,0.4-0.2c0,0,0.1,0,0.1,0c0,0,0,0,0,0c0,0.1-0.1,0.2-0.3,0.3c-0.3,0.2-0.5,0.3-0.8,0.4c-0.3,0.1-0.6,0.1-0.9,0.1
				h0l-0.5,0l0,0.5c0,0.1,0,0.3-0.1,0.4c0,0.1-0.1,0.3-0.1,0.4c-0.1,0.4-0.3,0.6-0.5,0.9c-0.3,0.3-0.5,0.4-0.7,0.4
				c-0.1,0-0.1,0-0.2,0c-0.3-0.1-0.4-0.2-0.5-0.4c-0.1-0.2-0.1-0.4-0.1-0.5c0-0.2,0.1-0.5,0.2-0.8c0.2-0.5,0.7-0.9,1.4-1l0.3-0.1
				l0-0.3c-0.1-0.9-0.3-1.4-0.8-1.7c-0.1-0.1-0.3-0.1-0.4-0.1c-0.1,0-0.2,0-0.3,0.1c-0.2,0.1-0.4,0.2-0.6,0.4
				c-0.2,0.2-0.3,0.4-0.4,0.6c-0.1,0.1-0.2,0.3-0.2,0.5c-0.1,0.2-0.1,0.3-0.2,0.5c0,0.1-0.1,0.2-0.1,0.3v0c0,0,0,0,0,0c0,0,0,0,0,0
				c0,0,0,0,0,0.1c0,0,0,0,0,0c0,0,0,0,0,0.1c0,0,0,0.1,0,0.2c0,0.1,0,0.2,0,0.3c0,0.1,0,0.3,0,0.5c0,0.2,0,0.4,0,0.7
				c0,0.3,0,0.6,0,0.9c0,0.4,0,0.8,0,1.3c0,0.6,0,1,0,1.4c0,0.4,0,0.8,0,1c0,0.3,0,0.5,0,0.7c0,0.2,0,0.3,0,0.4c0,0.1,0,0.2,0,0.2
				c0,0,0,0.1,0,0.1C102.8,60.2,102.8,60.2,102.7,60.2C102.8,60.2,102.8,60.2,102.7,60.2C102.7,60.2,102.7,60.2,102.7,60.2z
				 M105.5,54.4c0.2-0.2,0.3-0.4,0.4-0.8c0-0.1,0.1-0.3,0.1-0.4c0-0.2,0.1-0.3,0.1-0.4c0-0.1,0-0.2,0-0.2c0,0,0-0.1,0-0.1
				c0,0,0,0,0,0c0,0-0.1,0-0.1,0c-0.1,0-0.2,0.1-0.3,0.1c-0.1,0-0.2,0.1-0.3,0.1c-0.3,0.1-0.5,0.4-0.6,0.6c-0.1,0.2-0.1,0.4-0.1,0.6
				c0,0.1,0,0.1,0,0.2c0,0.2,0.1,0.4,0.2,0.4c0.1,0,0.2,0.1,0.2,0.1C105.1,54.6,105.3,54.5,105.5,54.4z"/>
			<path class="st9" d="M102.8,60.7h-0.1l-0.2-0.1c-0.1,0-0.1-0.1-0.2-0.1l-0.1-0.1c0-0.1-0.1-0.2-0.1-1.6v-1.7c0-1.3,0-3,0-5l0-2.3
				c0-0.1,0-0.4,0.2-0.5l0.1-0.1l0.3,0c0.2,0,0.3,0.1,0.4,0.2c0.1,0.1,0.2,0.3,0.2,0.5l0,0.1c0.1-0.1,0.3-0.3,0.5-0.4
				c0.3-0.2,0.7-0.3,1-0.3c0.4,0,0.9,0.1,1.4,0.8c0.3,0.4,0.5,1,0.5,1.6l0.1,0c0.4,0,0.6,0,0.8-0.1c0.2,0,0.3-0.1,0.4-0.2
				c0.3-0.2,0.5-0.3,0.7-0.3h0.3l0.2,0.3c0.1,0.1,0.1,0.2,0.1,0.3c0,0.3-0.2,0.5-0.4,0.7c-0.3,0.3-0.7,0.4-1.1,0.5
				c-0.3,0.1-0.6,0.1-1,0.1l-0.2,0c0,0.1,0,0.3-0.1,0.5c0,0.2-0.1,0.3-0.1,0.4c-0.1,0.4-0.3,0.8-0.6,1.1c-0.5,0.5-1,0.6-1.4,0.5
				c-0.6-0.2-0.8-0.5-0.9-0.8c-0.1-0.3-0.1-0.5-0.1-0.6c0-0.3,0.1-0.6,0.2-1c0.3-0.7,0.9-1.1,1.6-1.3c-0.1-0.5-0.2-1-0.5-1.2
				c-0.1,0-0.2,0-0.2,0c-0.2,0.1-0.3,0.2-0.4,0.3c-0.2,0.2-0.3,0.3-0.4,0.5c-0.1,0.1-0.1,0.3-0.2,0.4c-0.1,0.2-0.1,0.3-0.2,0.4
				c0,0,0,0.1,0,0.1l0,0c0,0.1,0,0.2-0.1,0.3l-0.1,0.1c0,0.1,0,0.2,0,0.3l0,6.5c0,0.2,0,0.3,0,0.5c0,0.1,0,0.2,0,0.3l0,0.2l-0.2,0.2
				C103,60.7,102.9,60.7,102.8,60.7z M104.9,54.1C104.9,54.1,105,54.1,104.9,54.1C105,54.1,105,54.1,104.9,54.1z M105.5,53.1
				C105.5,53.1,105.5,53.1,105.5,53.1c-0.2,0.1-0.3,0.2-0.4,0.4c-0.1,0.1-0.1,0.3-0.1,0.4c0,0,0,0.1,0,0.1c0,0,0,0,0,0
				c0,0,0.1-0.1,0.1-0.1c0.1-0.1,0.2-0.3,0.3-0.5C105.5,53.4,105.5,53.3,105.5,53.1z"/>
		</g>
		<g>
			<path class="st8" d="M108.7,60.2c0-0.1,0-0.5,0-1.4c0-0.8,0-1.4,0-1.7c0-1.3,0-3,0-5l0-2.3c0-0.1,0-0.2,0.1-0.2c0,0,0.1,0,0.1,0
				c0,0,0,0,0.1,0c0,0,0.1,0.1,0.1,0.2l0,0.8l0,1l0.2-0.4c0.1-0.2,0.3-0.5,0.4-0.7c0.2-0.2,0.4-0.4,0.6-0.6c0.2-0.2,0.5-0.2,0.7-0.2
				c0.4,0,0.7,0.2,1,0.6c0.3,0.4,0.4,0.9,0.5,1.5l0,0.3l0.6,0c0.4,0,0.7-0.1,0.9-0.1c0.2-0.1,0.4-0.2,0.6-0.3
				c0.2-0.1,0.3-0.2,0.4-0.2c0,0,0.1,0,0.1,0c0,0,0,0,0,0c0,0.1-0.1,0.2-0.3,0.3c-0.3,0.2-0.5,0.3-0.8,0.4c-0.3,0.1-0.6,0.1-0.9,0.1
				h0l-0.5,0l0,0.5c0,0.1,0,0.3-0.1,0.4c0,0.1-0.1,0.3-0.1,0.4c-0.1,0.4-0.3,0.6-0.5,0.9c-0.3,0.3-0.5,0.4-0.7,0.4
				c-0.1,0-0.1,0-0.2,0c-0.3-0.1-0.4-0.2-0.5-0.4c-0.1-0.2-0.1-0.4-0.1-0.5c0-0.2,0.1-0.5,0.2-0.8c0.2-0.5,0.7-0.9,1.4-1l0.3-0.1
				l0-0.3c-0.1-0.9-0.3-1.4-0.8-1.7c-0.1-0.1-0.3-0.1-0.4-0.1c-0.1,0-0.2,0-0.3,0.1c-0.2,0.1-0.4,0.2-0.6,0.4
				c-0.2,0.2-0.3,0.4-0.4,0.6c-0.1,0.1-0.2,0.3-0.2,0.5c-0.1,0.2-0.1,0.3-0.2,0.5c0,0.1-0.1,0.2-0.1,0.3v0c0,0,0,0,0,0c0,0,0,0,0,0
				c0,0,0,0,0,0.1c0,0,0,0,0,0c0,0,0,0,0,0.1c0,0,0,0.1,0,0.2c0,0.1,0,0.2,0,0.3c0,0.1,0,0.3,0,0.5c0,0.2,0,0.4,0,0.7
				c0,0.3,0,0.6,0,0.9c0,0.4,0,0.8,0,1.3c0,0.6,0,1,0,1.4c0,0.4,0,0.8,0,1c0,0.3,0,0.5,0,0.7c0,0.2,0,0.3,0,0.4c0,0.1,0,0.2,0,0.2
				c0,0,0,0.1,0,0.1C108.8,60.2,108.8,60.2,108.7,60.2C108.8,60.2,108.8,60.2,108.7,60.2C108.7,60.2,108.7,60.2,108.7,60.2z
				 M111.5,54.4c0.2-0.2,0.3-0.4,0.4-0.8c0-0.1,0.1-0.3,0.1-0.4c0-0.2,0.1-0.3,0.1-0.4c0-0.1,0-0.2,0-0.2c0,0,0-0.1,0-0.1
				c0,0,0,0,0,0c0,0-0.1,0-0.1,0c-0.1,0-0.2,0.1-0.3,0.1c-0.1,0-0.2,0.1-0.3,0.1c-0.3,0.1-0.5,0.4-0.6,0.6c-0.1,0.2-0.1,0.4-0.1,0.6
				c0,0.1,0,0.1,0,0.2c0,0.2,0.1,0.4,0.2,0.4c0.1,0,0.2,0.1,0.2,0.1C111.1,54.6,111.3,54.5,111.5,54.4z"/>
			<path class="st9" d="M108.8,60.7h-0.1l-0.2-0.1c-0.1-0.1-0.1-0.1-0.2-0.1l-0.1-0.1c0-0.1-0.1-0.2-0.1-1.6v-1.7c0-1.3,0-3,0-5
				l0-2.3c0-0.1,0-0.4,0.2-0.5l0.1-0.1l0.3,0c0.2,0,0.3,0.1,0.4,0.2c0.2,0.2,0.2,0.4,0.2,0.5l0,0.1c0.1-0.1,0.3-0.3,0.5-0.4
				c0.3-0.2,0.7-0.3,1-0.3c0.4,0,0.9,0.1,1.4,0.8c0.3,0.4,0.5,1,0.5,1.6l0.1,0c0.4,0,0.6,0,0.8-0.1c0.2,0,0.3-0.1,0.4-0.2
				c0.3-0.2,0.5-0.3,0.7-0.3h0.3l0.2,0.3c0.1,0.1,0.1,0.2,0.1,0.3c0,0.3-0.2,0.5-0.4,0.7c-0.3,0.3-0.7,0.4-1.1,0.5
				c-0.3,0.1-0.6,0.1-1,0.1l-0.2,0c0,0.1,0,0.3-0.1,0.5c0,0.2-0.1,0.3-0.1,0.4c-0.1,0.4-0.3,0.8-0.6,1.1c-0.5,0.5-1,0.6-1.4,0.5
				c-0.6-0.2-0.8-0.5-0.9-0.8c-0.1-0.3-0.1-0.5-0.1-0.6c0-0.3,0.1-0.6,0.2-1c0.3-0.7,0.9-1.1,1.6-1.3c-0.1-0.5-0.2-1-0.5-1.2
				c-0.1,0-0.2,0-0.2,0c-0.2,0.1-0.3,0.2-0.4,0.3c-0.2,0.2-0.3,0.3-0.4,0.5c-0.1,0.1-0.1,0.3-0.2,0.4c-0.1,0.2-0.1,0.3-0.2,0.4
				c0,0,0,0.1,0,0.1l0,0c0,0.1,0,0.2-0.1,0.2l-0.1,0.2c0,0.1,0,0.2,0,0.3l0,0.5c0,0.2,0,0.4,0,0.7l0,5.4c0,0.2,0,0.3,0,0.5
				c0,0.1,0,0.2,0,0.3l0,0.2l-0.2,0.2C109,60.7,108.9,60.7,108.8,60.7z M110.9,54.1C110.9,54.1,110.9,54.1,110.9,54.1
				C110.9,54.1,110.9,54.1,110.9,54.1z M111.5,53.1C111.5,53.1,111.5,53.1,111.5,53.1c-0.2,0.1-0.3,0.2-0.4,0.4
				c-0.1,0.1-0.1,0.3-0.1,0.4c0,0,0,0.1,0,0.1c0,0,0,0,0,0c0,0,0.1-0.1,0.1-0.1c0.1-0.1,0.2-0.3,0.3-0.6
				C111.5,53.4,111.5,53.3,111.5,53.1z"/>
		</g>
		<g>
			<path class="st8" d="M115.7,60.2c-0.2-0.4-0.2-0.8-0.2-1.3c0-0.1,0-0.1,0-0.2c0-0.6,0.1-1.1,0.4-1.5c0.2-0.4,0.5-0.8,0.9-1.1
				c0.4-0.3,0.7-0.6,1.2-0.8c0.2-0.1,0.3-0.2,0.4-0.2c0.1-0.1,0.2-0.1,0.2-0.1l0.1-0.1l-0.1-0.6c0-0.4-0.1-0.8-0.2-1.4
				c-0.1-0.6-0.1-1-0.2-1.2l0-0.3l-0.1,0.4c-0.1,0.6-0.3,1.2-0.5,1.7c-0.2,0.5-0.5,0.8-0.8,1c-0.2,0.1-0.4,0.1-0.5,0.1
				c-0.3,0-0.6-0.1-0.8-0.4c-0.4-0.6-0.7-1.4-0.7-2.5c0-0.2,0-0.5,0-0.8c0-0.2,0-0.3,0-0.4c0-0.1,0-0.1,0.1-0.2c0,0,0.1,0,0.1,0
				c0.1,0,0.1,0.1,0.1,0.2c0,0,0,0.1,0,0.2c0,0.1,0,0.2,0,0.3c0,0.1,0,0.3,0,0.5v0.2c0,0.7,0.1,1.2,0.3,1.7c0.2,0.5,0.5,0.8,0.8,0.9
				c0,0,0.1,0,0.1,0c0.2,0,0.4-0.1,0.6-0.2c0.2-0.2,0.5-0.5,0.6-0.9c0.3-0.6,0.5-1.4,0.5-2.3c0-0.1,0-0.3,0-0.4c0-0.1,0-0.2,0-0.2
				c0,0,0-0.1,0-0.1c0,0,0,0,0,0c0,0,0,0,0,0c0.1,0,0.2,0.1,0.2,0.4c0.1,0.3,0.2,0.8,0.3,1.5c0,0.3,0.1,0.6,0.1,1
				c0,0.4,0.1,0.7,0.1,1c0,0.3,0,0.5,0,0.5c0,0,0,0.1,0,0.1c0,0,0,0.1,0,0.1h0c0,0,0.1-0.1,0.3-0.2c0.2-0.1,0.3-0.3,0.6-0.5
				c0.4-0.3,0.7-0.8,1-1.2c0.1-0.1,0.2-0.3,0.2-0.4c0.1-0.2,0.2-0.3,0.2-0.5c0.1-0.3,0.2-0.4,0.3-0.4c0,0,0,0,0,0c0,0,0,0.1,0,0.1
				c0,0.1-0.1,0.3-0.2,0.6c-0.5,1.1-1.2,2-2.1,2.6l-0.4,0.3l0,0.2c0,0,0,0.2,0,0.4c0,0.2,0,0.5,0,0.8c0,0.6,0,1,0,1.4
				c0,0.4-0.1,0.7-0.2,1.1c-0.1,0.5-0.3,1-0.6,1.4c-0.4,0.6-0.7,0.9-0.9,0.9c-0.2,0-0.4,0-0.4,0C116.4,61.2,116,60.9,115.7,60.2z
				 M117.9,60.2c0.2-0.2,0.3-0.5,0.4-0.8c0.2-0.4,0.3-0.9,0.3-1.5c0.1-0.5,0.1-1,0.1-1.4c0-0.3,0-0.5,0-0.8l0-0.4l-0.6,0.3
				c-0.4,0.2-0.8,0.5-1.2,0.8c-0.4,0.3-0.7,0.7-0.9,1.1c-0.2,0.4-0.3,0.7-0.3,1c0,0.3,0,0.4,0,0.5c0,0.4,0.1,0.7,0.2,1.1
				c0.3,0.6,0.6,0.9,0.9,0.9h0C117.2,60.9,117.6,60.7,117.9,60.2z"/>
			<path class="st9" d="M116.8,61.7c-0.7,0-1.2-0.4-1.6-1.3l0,0c-0.2-0.5-0.3-1-0.3-1.5c0-0.1,0-0.2,0-0.2c0-0.6,0.2-1.2,0.4-1.7
				c0.3-0.5,0.6-0.9,1-1.3c0.4-0.3,0.8-0.6,1.3-0.9c0.1-0.1,0.3-0.2,0.4-0.2c0,0,0,0,0,0l0-0.3c0-0.2,0-0.4-0.1-0.6
				c-0.3,0.5-0.6,0.9-1,1.1c-0.7,0.4-1.4,0.2-2-0.4c-0.5-0.7-0.8-1.6-0.8-2.8c0-0.3,0-0.5,0-0.8c0-0.2,0-0.3,0.1-0.4
				c0-0.1,0.1-0.3,0.2-0.4c0.3-0.4,1.1-0.3,1.1,0.4c0,0.1,0,0.2,0,0.3c0,0,0,0.1,0,0.2c0,0.1,0,0.3,0,0.5l0,0.2
				c0,0.6,0.1,1.1,0.2,1.5c0.1,0.3,0.3,0.6,0.5,0.6c0.1,0,0.1,0,0.2-0.1c0.2-0.2,0.3-0.4,0.5-0.7c0.3-0.6,0.4-1.3,0.4-2.1l0-0.4
				c0-0.1,0-0.2,0-0.3l0.1-0.2c0.1-0.1,0.2-0.2,0.3-0.2l0.1,0l0.2-1.4l0.3,1.6c0.2,0.1,0.3,0.3,0.4,0.6c0.1,0.3,0.2,0.8,0.3,1.5
				l0.1,1c0,0.3,0.1,0.6,0.1,0.9c0,0,0.1-0.1,0.1-0.1c0.3-0.3,0.7-0.7,0.9-1.1c0.1-0.1,0.2-0.3,0.2-0.4c0.1-0.2,0.2-0.3,0.2-0.5
				c0.2-0.3,0.3-0.7,0.8-0.7h0.3l0.2,0.3c0,0.1,0.1,0.2,0.1,0.3c0,0.2-0.1,0.4-0.2,0.8c-0.5,1.2-1.3,2.2-2.3,2.9l-0.1,0.1
				c0,0.1,0,0.2,0,0.3c0,0.2,0,0.5,0,0.8c0,0.6,0,1.1,0,1.4c0,0.4-0.1,0.8-0.2,1.2c-0.1,0.6-0.3,1.1-0.6,1.5
				c-0.5,0.7-0.9,1.1-1.3,1.1C117,61.7,116.8,61.7,116.8,61.7z M118.2,56.1c-0.3,0.2-0.6,0.4-1,0.7c-0.3,0.3-0.6,0.6-0.7,0.9
				c-0.1,0.3-0.2,0.6-0.2,0.8c0,0.3,0,0.4,0,0.5c0,0.3,0.1,0.6,0.2,0.9c0.1,0.3,0.3,0.6,0.5,0.6c0.2,0,0.4-0.2,0.6-0.5
				c0.1-0.2,0.3-0.4,0.3-0.7c0.1-0.4,0.2-0.9,0.3-1.3c0-0.5,0.1-1,0.1-1.4C118.2,56.3,118.2,56.2,118.2,56.1z"/>
		</g>
		<g>
			<path class="st8" d="M126.1,55.1c-0.1-0.1-0.1-1.4-0.1-3.8c0-0.7,0-1.4,0-2.2l0-3.5l0.1,0h0c0,0,0,0,0.1,0c0,0,0,0,0.1,0.1
				c0,0,0,0.4,0,1.1c0,0.5,0,1.2,0,2.1c0,0.9,0,1.5,0,2c0,0.7,0,1,0,1c0,0,0.1,0,0.2-0.1s0.3-0.2,0.4-0.3s0.3-0.2,0.4-0.3
				c0.8-0.7,1.5-1.6,2.2-2.6c0.2-0.4,0.4-0.7,0.5-1.1c0.2-0.4,0.3-0.7,0.3-1c0-0.1,0-0.2,0-0.2c0,0,0-0.1,0.1-0.1h0
				c0.1,0,0.1,0.1,0.1,0.2c0,0.1,0,0.2,0,0.3c-0.1,0.4-0.2,0.8-0.5,1.4c-0.3,0.6-0.7,1.2-1.2,1.9c-0.5,0.7-1,1.2-1.6,1.6l-0.5,0.4
				l0.3,0c0.3,0,0.6,0.1,0.8,0.4c0.2,0.2,0.5,0.6,0.8,1.2c0.2,0.4,0.4,0.7,0.6,0.9c0.2,0.2,0.4,0.3,0.6,0.4c0.1,0,0.2,0.1,0.4,0.1
				c0.1,0,0.1,0,0.2,0c0.2,0,0.4-0.1,0.6-0.2c0.1-0.1,0.3-0.2,0.5-0.4c0.2-0.2,0.3-0.4,0.4-0.6c0.1-0.1,0.2-0.4,0.4-0.7
				c0.2-0.3,0.3-0.6,0.4-0.8c0.1-0.3,0.2-0.4,0.2-0.5c0-0.1,0.1-0.1,0.1-0.1c0,0,0,0,0.1,0c0,0,0.1,0.1,0.1,0.1c0,0.1,0,0.2-0.1,0.3
				c-0.1,0.2-0.2,0.4-0.3,0.6c-0.3,0.5-0.5,0.9-0.7,1.2c-0.2,0.3-0.3,0.5-0.5,0.6c-0.2,0.2-0.4,0.3-0.5,0.4
				c-0.1,0.1-0.3,0.2-0.5,0.2c-0.1,0-0.3,0.1-0.4,0.1c-0.2,0-0.5-0.1-0.7-0.2c-0.2-0.1-0.4-0.3-0.6-0.4c-0.2-0.2-0.3-0.5-0.6-1
				c-0.3-0.5-0.5-0.9-0.7-1.1c-0.2-0.2-0.4-0.3-0.6-0.3c-0.1,0-0.1,0-0.2,0c-0.1,0-0.2,0-0.3,0l-0.4,0l0,1.5c0,0.3,0,0.5,0,0.7
				s0,0.3,0,0.3c0,0.1,0,0.1,0,0.2c0,0.1,0,0.2,0,0.2c0,0,0,0.1,0,0.1C126.3,55.1,126.2,55.1,126.1,55.1L126.1,55.1
				C126.2,55.1,126.2,55.1,126.1,55.1z"/>
			<path class="st9" d="M126.2,55.6c-0.1,0-0.3,0-0.5-0.3l0-0.1c-0.1-0.2-0.1-0.3-0.1-4c0-0.7,0-1.4,0-2.2l0-3.9l0.7-0.1l0.3,0.1
				c0,0,0,0,0,0c0.2,0.1,0.2,0.5,0.2,1.5c0,0.5,0,1.2,0,2.1c0,0.9,0,1.5,0,2c0,0,0,0,0,0c0.1-0.1,0.2-0.1,0.2-0.2
				c0.7-0.7,1.4-1.5,2.1-2.5c0.2-0.3,0.4-0.7,0.5-1c0.1-0.4,0.2-0.7,0.3-0.9c0-0.1,0-0.3,0.1-0.3l0.1-0.3l0.4-0.1
				c0.3,0,0.7,0.2,0.7,0.7c0,0.1,0,0.2,0,0.4c-0.1,0.4-0.2,0.9-0.5,1.5c-0.3,0.6-0.7,1.3-1.3,2c-0.4,0.6-0.9,1.1-1.4,1.5
				c0.1,0.1,0.2,0.2,0.3,0.3c0.3,0.3,0.5,0.7,0.9,1.4c0.2,0.4,0.4,0.6,0.5,0.8c0.1,0.1,0.3,0.2,0.4,0.3c0.1,0,0.2,0,0.4,0
				c0.1,0,0.3-0.1,0.4-0.1c0.1-0.1,0.2-0.2,0.4-0.3c0.2-0.2,0.3-0.3,0.4-0.5c0.1-0.1,0.2-0.3,0.3-0.6c0.2-0.3,0.3-0.6,0.4-0.8
				c0.1-0.2,0.2-0.4,0.2-0.4c0.1-0.4,0.5-0.5,0.6-0.5h0.1l0.2,0.1c0.2,0.1,0.3,0.3,0.3,0.6c0,0.1,0,0.3-0.1,0.5
				c-0.1,0.2-0.2,0.4-0.3,0.7c-0.3,0.6-0.5,1-0.7,1.2c-0.2,0.3-0.4,0.5-0.6,0.7c-0.2,0.2-0.4,0.4-0.6,0.5c-0.2,0.1-0.4,0.2-0.6,0.3
				c-0.5,0.1-1,0.1-1.4-0.2c-0.3-0.1-0.5-0.3-0.7-0.6c-0.2-0.2-0.4-0.5-0.6-1.1c-0.3-0.6-0.5-0.8-0.6-1c-0.1-0.1-0.2-0.2-0.2-0.2
				c-0.1,0-0.2,0-0.4,0l0,1c0,0.3,0,0.5,0,0.7l0,0.3c0,0.1,0,0.2,0,0.2c0,0.1,0,0.2,0,0.3l0,0.3l-0.2,0.1l0,0
				C126.5,55.6,126.3,55.6,126.2,55.6z"/>
		</g>
		<g>
			<path class="st8" d="M134.8,54.5c-0.9-0.3-1.5-1.2-1.7-2.6c0-0.2,0-0.4,0-0.6c0-0.2,0-0.3,0-0.4c0-0.2,0-0.3,0-0.5
				c0-0.2,0-0.3,0.1-0.4c0,0,0.1-0.1,0.1-0.1c0,0,0,0,0,0c0,0,0,0,0,0.1c0,0,0,0.1,0,0.1c0,0.1,0,0.2,0,0.3c0,0.1,0,0.3,0,0.5
				c0,0.3,0,0.5,0,0.6c0,0.1,0,0.3,0,0.4c0,0.1,0,0.2,0.1,0.3c0.3,1,0.7,1.7,1.4,1.9c0.1,0,0.3,0.1,0.4,0.1h0.1
				c0.2,0,0.4-0.1,0.5-0.1c0.8-0.3,1.4-1.1,2-2.2c0-0.1,0-0.1,0.1-0.1l0,0c0.1-0.2,0.2-0.2,0.2-0.2c0,0,0,0,0,0c0,0,0,0.1,0,0.1
				c0,0.1,0,0.1,0,0.2c-0.1,0.1-0.1,0.3-0.3,0.5c-0.1,0.2-0.2,0.4-0.4,0.6c-0.1,0.2-0.3,0.4-0.5,0.6c-0.2,0.2-0.4,0.4-0.6,0.5
				c-0.2,0.1-0.4,0.2-0.5,0.3c-0.2,0.1-0.3,0.1-0.6,0.1c-0.1,0-0.2,0-0.3,0C134.9,54.5,134.8,54.5,134.8,54.5z M133.2,48.3
				C133.2,48.3,133.2,48.2,133.2,48.3l0-0.1c0-0.1,0-0.1,0-0.1c0,0,0.1-0.1,0.1-0.1h0c0,0,0.1,0,0.1,0.1c0,0,0,0.1,0,0.1
				c0,0,0,0.1,0,0.1c0,0-0.1,0.1-0.1,0.1C133.3,48.3,133.3,48.3,133.2,48.3C133.3,48.3,133.2,48.3,133.2,48.3z"/>
			<path class="st9" d="M135.3,55l-0.3,0c-0.2,0-0.2,0-0.3,0l0,0c-1.1-0.4-1.8-1.4-2.1-3c0-0.2,0-0.5-0.1-0.6l0-0.4
				c0-0.2,0-0.4,0-0.5c0-0.3,0.1-0.5,0.2-0.6l0.1-0.2l0.3-0.1c0.1,0,0.2,0,0.3,0.1l0.2,0.1l0.1,0.3c0,0.1,0,0.1,0,0.2
				c0,0.1,0,0.2,0,0.3l0,0.5c0,0.3,0,0.5,0,0.6c0,0.1,0,0.2,0,0.3c0,0.1,0,0.2,0.1,0.3c0.2,0.9,0.6,1.4,1.1,1.5c0.1,0,0.1,0,0.3,0
				h0.1c0.1,0,0.2,0,0.3-0.1c0.6-0.3,1.2-0.9,1.7-1.9c0,0,0-0.1,0.1-0.1c0.1-0.2,0.3-0.5,0.7-0.5h0.1l0.1,0.1
				c0.2,0.1,0.3,0.3,0.3,0.6c0,0.1,0,0.2-0.1,0.4c-0.1,0.2-0.2,0.4-0.3,0.6c-0.1,0.2-0.2,0.4-0.4,0.6c-0.2,0.2-0.4,0.5-0.6,0.7
				c-0.2,0.2-0.5,0.4-0.6,0.6c-0.2,0.2-0.5,0.3-0.7,0.3C135.8,54.9,135.6,55,135.3,55z M133.3,48.8c-0.2,0-0.3-0.1-0.4-0.2l0,0
				c-0.1-0.1-0.1-0.2-0.1-0.4c0-0.3,0.1-0.4,0.2-0.5c0.2-0.2,0.4-0.2,0.5-0.2l0.2,0c0.2,0.1,0.3,0.2,0.4,0.4l0.1,0.3
				c0,0.1,0,0.3-0.1,0.4c-0.1,0.2-0.2,0.2-0.4,0.3L133.3,48.8z M133.4,48.2v0.3c0.1,0,0.2,0,0.2-0.1c0.1-0.1,0.1-0.2,0.1-0.2
				c0-0.1,0-0.2-0.1-0.2L133.4,48.2l0.1-0.1L133.4,48.2z M133.2,48.2l-0.2,0.1c0.1,0.1,0.2,0.2,0.2,0.2L133.2,48.2L133.2,48.2l0,0.1
				L133.2,48.2z M133.3,48.2 M133.2,47.8c-0.1,0-0.1,0.1-0.2,0.1c0,0-0.1,0.1-0.1,0.2h0.3L133.2,47.8z"/>
		</g>
		<g>
			<path class="st8" d="M142.2,55c-1-0.3-1.6-1.2-1.9-2.6l-0.1-0.4l-0.2,0.5c-0.2,0.6-0.4,1.1-0.6,1.5c-0.3,0.5-0.5,0.8-0.6,0.8
				c-0.2,0.1-0.3,0.1-0.3,0.1c-0.2,0-0.3-0.1-0.5-0.3c-0.2-0.3-0.3-0.7-0.3-1.2c0-0.1,0-0.2,0-0.3c0-0.5,0.1-0.9,0.2-1.3
				c0.1-0.5,0.3-0.9,0.5-1.2c0.3-0.3,0.5-0.4,0.6-0.4s0.2,0,0.3,0c0.3,0,0.6,0.1,0.8,0.3c0,0,0-0.1,0-0.2c0-0.1,0-0.3,0-0.4
				c0.2-2,0.7-3.7,1.4-5.1c0.5-0.9,1-1.4,1.4-1.7c0.2-0.1,0.3-0.1,0.4-0.1c0.1,0,0.3,0,0.4,0.1c0.3,0.1,0.4,0.4,0.6,0.8
				c0,0.1,0.1,0.2,0.1,0.3c0,0.1,0,0.1,0,0.2c0,0.1,0,0.2,0,0.3c0,0.3,0,0.6-0.1,0.8c-0.1,0.3-0.1,0.5-0.3,0.9
				c-0.4,1-0.9,1.9-1.4,2.8c-0.6,0.8-1.2,1.4-1.8,1.7c-0.1,0-0.2,0.1-0.2,0.1c-0.1,0-0.1,0.1-0.1,0.1c0,0-0.1,0-0.1,0
				c0,0,0,0.1,0,0.2c0,0.2,0,0.4,0.1,0.7s0.1,0.6,0.2,0.8c0,0.1,0.1,0.2,0.1,0.4c0.1,0.1,0.1,0.3,0.2,0.4c0.2,0.5,0.5,0.9,0.9,1
				c0.3,0.2,0.6,0.2,0.9,0.2c0.2,0,0.4,0,0.6-0.1c0.3-0.1,0.5-0.3,0.8-0.6c0.2-0.3,0.5-0.7,0.8-1.4c0.1-0.2,0.2-0.5,0.3-0.7
				c0.1-0.2,0.1-0.3,0.1-0.4c0-0.1,0.1-0.2,0.1-0.2c0,0,0.1,0,0.1,0c0.1,0,0.1,0,0.1,0.1c0,0.1-0.1,0.2-0.2,0.5
				c-0.1,0.3-0.2,0.6-0.4,0.9c-0.1,0.3-0.3,0.6-0.4,0.7c-0.1,0.2-0.3,0.4-0.5,0.6c-0.2,0.2-0.3,0.3-0.5,0.4
				c-0.2,0.1-0.4,0.2-0.6,0.2s-0.3,0-0.4,0C142.5,55,142.3,55,142.2,55z M139.3,53.7c0.2-0.5,0.5-1.1,0.7-2c0.1-0.2,0.1-0.4,0.1-0.5
				c0-0.1,0-0.2,0-0.2c0,0,0-0.1,0-0.1c0-0.1-0.1-0.1-0.1-0.2c-0.2-0.2-0.4-0.3-0.7-0.3h0c-0.2,0-0.5,0.1-0.7,0.4
				c-0.2,0.3-0.4,0.6-0.5,1.2c-0.1,0.3-0.1,0.7-0.1,1.2v0.2c0,0.7,0.1,1.1,0.3,1.1c0.1,0.1,0.2,0.1,0.3,0.1
				C138.8,54.5,139,54.3,139.3,53.7z M140.7,50.6c0.7-0.4,1.4-1.2,2.1-2.2c0.7-1.1,1.1-2.1,1.3-3.2c0-0.2,0.1-0.5,0.1-0.7
				c0-0.2,0-0.4-0.1-0.6c-0.1-0.3-0.2-0.6-0.5-0.7c0,0-0.1,0-0.1-0.1c0,0,0,0-0.1,0l0,0c0,0-0.1,0-0.1,0c-0.5,0.2-1,0.8-1.6,1.8
				c-0.4,0.9-0.8,2-1.1,3.4c-0.1,0.3-0.1,0.7-0.2,1c0,0.3-0.1,0.6-0.1,0.7c0,0.1,0,0.2,0,0.3c0,0.2,0,0.2,0,0.2c0,0,0,0,0.1,0
				C140.6,50.6,140.7,50.6,140.7,50.6z"/>
			<path class="st9" d="M142.6,55.5c-0.2,0-0.4,0-0.6-0.1l0,0c-0.8-0.2-1.5-0.8-1.9-1.8c-0.1,0.2-0.1,0.3-0.2,0.5
				c-0.4,0.7-0.6,1-0.9,1.1c-0.2,0.1-0.4,0.1-0.5,0.1c-0.2,0-0.6-0.1-0.9-0.5c-0.2-0.3-0.4-0.8-0.4-1.5c0-0.1,0-0.2,0-0.3
				c0-0.5,0.1-1,0.2-1.5c0.1-0.6,0.4-1,0.6-1.4c0.4-0.4,0.7-0.6,1-0.6l0.3,0c0.1,0,0.3,0,0.4,0c0.2-2,0.7-3.7,1.4-5.2
				c0.5-1,1.1-1.6,1.6-1.9c0.5-0.3,0.9-0.2,1.3,0c0.4,0.2,0.6,0.6,0.8,1.1c0,0.1,0.1,0.3,0.1,0.4c0,0.1,0,0.2,0,0.2
				c0,0.1,0,0.2,0,0.4c0,0.3,0,0.6-0.1,0.9c-0.1,0.3-0.1,0.6-0.3,0.9c-0.4,1.1-0.9,2-1.5,2.9c-0.6,0.9-1.3,1.5-1.9,1.9l-0.2,0.1
				c0,0.1,0,0.3,0.1,0.5c0,0.3,0.1,0.5,0.1,0.7c0,0.1,0.1,0.2,0.1,0.3c0,0.1,0.1,0.3,0.1,0.4c0.2,0.4,0.4,0.7,0.6,0.8
				c0.5,0.2,0.7,0.2,1.1,0.1c0.2-0.1,0.4-0.2,0.5-0.4c0.2-0.3,0.4-0.7,0.7-1.3l0.3-0.7c0.1-0.2,0.1-0.2,0.1-0.3
				c0.1-0.3,0.3-0.5,0.6-0.5c0.3,0,0.6,0.2,0.7,0.5l0,0.1c0,0.1,0,0.3-0.2,0.7c-0.1,0.3-0.3,0.6-0.4,0.9c-0.2,0.3-0.3,0.6-0.4,0.8
				c-0.2,0.3-0.3,0.5-0.5,0.7c-0.2,0.2-0.4,0.4-0.6,0.5c-0.3,0.1-0.5,0.2-0.8,0.3C142.9,55.5,142.7,55.5,142.6,55.5z M138.6,54.1
				L138.6,54.1L138.6,54.1z M138.5,54C138.5,54,138.5,54,138.5,54C138.5,54,138.5,54,138.5,54z M139.3,50.9c-0.1,0-0.2,0-0.3,0.2
				c-0.1,0.1-0.3,0.4-0.4,1c-0.1,0.3-0.1,0.6-0.1,1.1v0.2c0,0.3,0,0.5,0.1,0.6c0.1-0.1,0.1-0.2,0.2-0.4c0.2-0.4,0.4-1.1,0.7-1.9
				c0.1-0.2,0.1-0.4,0.1-0.4c0-0.1,0-0.1,0-0.1C139.5,50.9,139.4,50.9,139.3,50.9z M143.5,43.7c-0.3,0.1-0.7,0.5-1.3,1.6
				c-0.4,0.9-0.8,2-1,3.3c-0.1,0.3-0.1,0.6-0.1,1c0,0.1,0,0.2,0,0.3c0.5-0.4,0.9-1,1.4-1.7c0.6-1,1.1-2,1.3-3c0-0.2,0.1-0.4,0.1-0.6
				c0-0.2,0-0.3-0.1-0.4C143.6,43.9,143.5,43.8,143.5,43.7z"/>
		</g>
		<g>
			<path class="st8" d="M146.1,54.7c0.2-0.6,0.5-1.1,1-1.5c0.1,0,0.1-0.1,0.1-0.1s0.1-0.1,0.1-0.1v0c0,0-0.1-0.1-0.2-0.1
				c-0.1-0.1-0.4-0.2-0.7-0.4c-0.4-0.2-0.6-0.4-0.7-0.5c-0.1-0.1-0.2-0.3-0.3-0.4c-0.1-0.2-0.1-0.3-0.1-0.5c0-0.1,0-0.2,0.1-0.4
				c0.1-0.3,0.3-0.5,0.5-0.7c0.1-0.1,0.2-0.1,0.3-0.1s0.1,0,0.2,0c0.1,0,0.2,0,0.4,0.1c0.1,0.1,0.3,0.2,0.4,0.4
				c0.1,0.2,0.2,0.3,0.2,0.5c0,0.1,0,0.2-0.1,0.2h0c-0.1,0-0.1-0.1-0.2-0.2c-0.1-0.2-0.2-0.4-0.3-0.5c-0.1-0.1-0.3-0.2-0.4-0.2
				c0,0-0.1,0-0.1,0c-0.3,0.1-0.5,0.3-0.7,0.7c0,0.1,0,0.1,0,0.2c0,0.1,0,0.3,0.1,0.4c0,0.1,0.1,0.2,0.3,0.3
				c0.1,0.1,0.4,0.3,0.8,0.5c0.2,0.1,0.3,0.2,0.4,0.3c0.1,0.1,0.2,0.1,0.3,0.2l0.2,0.1l0.3-0.1c0.2-0.1,0.3-0.1,0.5-0.1
				c0.1,0,0.3-0.1,0.6-0.1c0.4,0,0.7-0.1,0.9-0.2c0.3-0.1,0.5-0.3,0.8-0.6c0.1-0.1,0.2-0.2,0.2-0.2c0.1-0.1,0.1-0.1,0.1-0.1
				c0,0,0.1,0,0.1,0.1c0,0,0,0.1,0,0.1l0,0c0,0,0,0.1-0.1,0.1s-0.1,0.1-0.2,0.2c-0.3,0.3-0.5,0.5-0.8,0.6c-0.3,0.1-0.6,0.2-1,0.2
				c-0.1,0-0.3,0-0.5,0.1c-0.2,0-0.3,0.1-0.5,0.1c-0.1,0-0.2,0.1-0.2,0.1c0,0,0,0,0,0.1c0,0,0.1,0.1,0.1,0.1
				c0.2,0.3,0.4,0.6,0.5,0.9c0.1,0.2,0.1,0.4,0.1,0.7V55c0,0.3,0,0.6-0.1,0.8c-0.2,0.6-0.5,1-0.8,1.1c-0.2,0.1-0.4,0.1-0.5,0.1
				c-0.2,0-0.3-0.1-0.5-0.2c-0.3-0.2-0.4-0.5-0.5-0.8c-0.1-0.3-0.1-0.6-0.1-0.8C146,55.1,146,54.9,146.1,54.7z M147.5,56.7
				c0.3-0.2,0.5-0.4,0.6-0.8c0.1-0.4,0.2-0.7,0.2-0.9c0-0.1,0-0.3,0-0.4c0-0.1,0-0.1-0.1-0.2c0-0.1,0-0.1-0.1-0.2
				c0-0.1-0.1-0.2-0.2-0.3c-0.1-0.1-0.1-0.2-0.2-0.3c-0.1-0.1-0.1-0.2-0.2-0.2c0,0,0,0-0.1,0c0,0,0,0,0,0c0,0,0,0-0.1,0
				c0,0-0.1,0-0.1,0.1c-0.1,0.1-0.3,0.2-0.4,0.3c-0.1,0.1-0.2,0.3-0.3,0.4c-0.1,0.2-0.2,0.4-0.3,0.7c0,0.2-0.1,0.3-0.1,0.5
				c0,0.1,0,0.3,0,0.5c0.1,0.4,0.2,0.6,0.3,0.8c0.2,0.2,0.3,0.2,0.5,0.2C147.2,56.8,147.4,56.7,147.5,56.7z"/>
			<path class="st9" d="M147.1,57.6c-0.3,0-0.6-0.1-0.8-0.3c-0.4-0.3-0.6-0.6-0.7-1.1c-0.1-0.4-0.1-0.7-0.1-0.9c0-0.2,0-0.5,0.1-0.7
				l0,0c0.1-0.6,0.4-1.1,0.8-1.5c-0.1,0-0.2-0.1-0.3-0.2c-0.4-0.2-0.6-0.4-0.8-0.5c-0.2-0.2-0.4-0.4-0.4-0.6
				c-0.1-0.2-0.1-0.5-0.1-0.7c0-0.2,0-0.4,0.1-0.5c0.1-0.4,0.4-0.7,0.7-1c0.2-0.1,0.4-0.2,0.6-0.2c0.1,0,0.2,0,0.2,0
				c0.2,0,0.4,0,0.6,0.1c0.2,0.1,0.4,0.3,0.6,0.6c0.2,0.2,0.2,0.5,0.2,0.7c0,0.5-0.3,0.7-0.6,0.7c-0.2,0-0.5-0.1-0.6-0.6
				c0-0.1-0.1-0.2-0.1-0.3c-0.1,0-0.1-0.1-0.1-0.1c-0.1,0-0.2,0.1-0.3,0.4c0,0.1,0,0.2,0,0.3c0,0,0,0.1,0.1,0.2
				c0.1,0.1,0.4,0.2,0.7,0.4c0.2,0.1,0.3,0.2,0.5,0.3c0.1,0.1,0.2,0.1,0.3,0.2l0,0c0.2-0.1,0.4-0.1,0.5-0.1c0.2,0,0.4-0.1,0.6-0.1
				c0.3,0,0.6-0.1,0.9-0.2c0.2-0.1,0.4-0.2,0.6-0.4c0.1-0.1,0.2-0.2,0.2-0.3c0.1-0.1,0.2-0.2,0.5-0.2c0.2,0,0.4,0.1,0.5,0.3
				c0.1,0.1,0.1,0.2,0.1,0.4l0,0.1c-0.1,0.2-0.1,0.2-0.2,0.3c-0.1,0.1-0.1,0.1-0.2,0.2c-0.3,0.3-0.6,0.6-1,0.7
				c-0.3,0.1-0.7,0.2-1.1,0.3c-0.1,0-0.3,0-0.4,0.1c0,0,0,0,0,0c0.1,0.2,0.2,0.4,0.3,0.7c0.1,0.3,0.1,0.5,0.1,0.9c0,0.4,0,0.7-0.1,1
				c-0.2,0.7-0.6,1.2-1,1.4C147.6,57.5,147.4,57.6,147.1,57.6z M147.4,53.9c-0.1,0-0.1,0.1-0.2,0.1c-0.1,0.1-0.2,0.2-0.2,0.3
				c-0.1,0.2-0.2,0.3-0.2,0.6c0,0.1,0,0.2,0,0.4c0,0.1,0,0.3,0,0.4c0,0.3,0.1,0.5,0.2,0.5c0.1,0.1,0.1,0.1,0.1,0.1
				c0,0,0.1,0,0.2-0.1c0.2-0.1,0.3-0.3,0.3-0.5c0.1-0.3,0.2-0.6,0.2-0.8c0-0.1,0-0.2,0-0.3l0-0.1l0.3-0.2c0,0,0,0,0-0.1l-0.3,0.1
				l0-0.1c0,0-0.1-0.1-0.1-0.2C147.5,54,147.5,54,147.4,53.9z M147.3,53.7C147.3,53.7,147.3,53.7,147.3,53.7S147.3,53.7,147.3,53.7z
				"/>
		</g>
		<g>
			<path class="st8" d="M159.2,55.6c-0.1,0-0.2-0.1-0.4-0.2c-0.1-0.1-0.2-0.2-0.3-0.3c-0.1-0.2-0.2-0.5-0.2-0.8c0-0.1,0-0.2,0-0.2
				c0.1-0.4,0.2-0.7,0.3-1c0.4-0.7,1.1-1.2,2.1-1.5c0.2,0,0.4-0.1,0.7-0.1c0.3,0,0.6-0.1,0.8-0.1h0.2l0-0.2c0.1-0.4,0.1-0.9,0.1-1.3
				c0-0.1,0-0.3,0-0.5c0-0.7-0.1-1.3-0.3-1.8c-0.2-0.6-0.4-1.1-0.8-1.5c-0.3-0.4-0.7-0.6-1.2-0.6c-0.2,0-0.4,0-0.6,0.1
				c-0.6,0.2-1.1,0.8-1.7,1.6c-0.5,0.9-1,1.9-1.3,3.2c-0.4,1.6-0.7,3.1-0.7,4.5c0,0.1,0,0.3,0,0.3c0,0.1,0,0.1,0,0.2
				c0,0,0,0.1,0,0.1c0,0,0,0-0.1,0c0,0,0,0,0,0c0,0-0.1-0.1-0.1-0.1c0,0,0,0,0-0.1c0,0,0,0,0-0.1c0,0,0-0.4-0.1-1.1
				c0-0.7,0-1.9,0-3.7c0-1.3,0-2.5,0-3.4c0-0.9,0-1.4,0-1.4c0,0,0-0.1,0-0.1c0,0,0-0.1,0-0.1c0,0,0,0,0.1,0h0c0,0,0,0,0.1,0.1
				c0,0,0,0.1,0,0.1c0,0,0,0.1,0,0.2c0,0.1,0,0.2,0,0.4c0,0.5,0,1.1,0,1.8c0,0.7,0,1.4,0,2.1c0,0.7,0,1.3,0,1.7c0,0.5,0,0.7,0,0.7
				c0,0,0-0.1,0-0.1c0-0.1,0-0.2,0.1-0.3c0.3-2,0.9-3.6,1.7-4.9c0.7-1.1,1.4-1.8,2.1-2c0.1,0,0.2-0.1,0.3-0.1c0.1,0,0.2,0,0.2,0
				c0.1,0,0.1,0,0.2,0c0.2,0,0.3,0,0.4,0c0.1,0,0.2,0.1,0.3,0.1c0.2,0.1,0.4,0.3,0.6,0.5c0.2,0.2,0.4,0.5,0.5,0.7
				c0.3,0.7,0.6,1.6,0.6,2.6c0,0.2,0,0.4,0,0.6c0,0.1,0,0.2,0,0.3c0,0.3,0,0.7-0.1,1.1l0,0.2l0.3,0c0.4,0,0.9,0,1.3,0
				c0.4,0,0.7,0.1,0.9,0.1c0.3,0.1,0.4,0.1,0.4,0.2c0,0,0,0,0,0.1c0,0,0,0,0,0.1c0,0,0,0,0,0c0,0-0.1,0-0.1,0c-0.1,0-0.2,0-0.3-0.1
				c-0.2-0.1-1-0.1-2.1-0.2l-0.3,0l-0.2,0.5c-0.2,0.8-0.6,1.5-1,2.1c-0.4,0.6-0.8,1-1.3,1.3c-0.2,0.1-0.3,0.1-0.4,0.2
				c-0.1,0-0.2,0-0.3,0C159.5,55.6,159.3,55.6,159.2,55.6z M160,55.2c0.4-0.2,0.8-0.5,1.2-1c0.4-0.5,0.7-1.1,1-1.9
				c0.1-0.2,0.1-0.3,0.1-0.4c0-0.1,0.1-0.2,0.1-0.2l0-0.1l-0.5,0c-0.8,0-1.5,0.2-2,0.5c-0.4,0.3-0.8,0.6-0.9,1s-0.3,0.7-0.3,1
				c0,0.1,0,0.2,0,0.4c0.1,0.3,0.2,0.5,0.4,0.6c0.2,0.1,0.4,0.2,0.5,0.2C159.8,55.3,159.9,55.3,160,55.2z"/>
			<path class="st9" d="M159.6,56.1c-0.2,0-0.4,0-0.5-0.1l0,0c-0.2-0.1-0.3-0.2-0.5-0.3c-0.2-0.1-0.3-0.3-0.4-0.5
				c-0.2-0.3-0.3-0.7-0.3-1c0-0.1,0-0.2,0-0.3c0.1-0.5,0.2-0.9,0.4-1.2c0.5-0.8,1.3-1.4,2.4-1.7c0.2,0,0.4-0.1,0.8-0.1
				c0.2,0,0.4,0,0.6-0.1c0.1-0.3,0.1-0.7,0.1-1.1c0-0.1,0-0.3,0-0.4c0-0.6-0.1-1.2-0.3-1.7c-0.2-0.6-0.4-1-0.7-1.3
				c-0.4-0.5-0.8-0.5-1.2-0.3c-0.5,0.2-1,0.7-1.5,1.5c-0.5,0.8-0.9,1.8-1.3,3c-0.4,1.6-0.6,3-0.6,4.4l0,0.4c0,0.1,0,0.2,0,0.3
				l-0.1,0.2l-0.1,0.1l0,0c-0.1,0.1-0.3,0.2-0.4,0.2h-0.1l-0.2-0.1c-0.1-0.1-0.3-0.2-0.3-0.4c-0.1-0.2-0.1-0.6-0.2-1.4
				c0-0.7,0-2,0-3.7l0-3.4c0-0.9,0-1.4,0-1.4v-0.1l0.1-0.2c0-0.1,0.1-0.1,0.1-0.2l0.1-0.2l0.3,0l0.1,0c0.2,0.1,0.3,0.2,0.4,0.3
				c0,0,0.1,0.1,0.1,0.3c0,0,0,0.1,0,0.3l0,0.4c0,0.5,0,1.1,0,1.8l0,0.8c0.3-0.7,0.6-1.3,0.9-1.9c0.7-1.2,1.5-2,2.3-2.2
				c0.1,0,0.3-0.1,0.4-0.1c0.2,0,0.3,0,0.5,0c0.2,0,0.3,0,0.5,0c0.1,0,0.3,0.1,0.4,0.2c0.2,0.1,0.5,0.3,0.7,0.6
				c0.2,0.3,0.4,0.6,0.6,0.8c0.4,0.8,0.6,1.7,0.7,2.8c0,0.2,0,0.4,0,0.6c0,0.1,0,0.2,0,0.4c0,0.2,0,0.5-0.1,0.8c0.4,0,0.7,0,1.1,0
				c0.5,0,0.8,0.1,1,0.1c0.2,0.1,0.8,0.2,0.8,0.7v0.2l-0.1,0.1c-0.1,0.2-0.2,0.2-0.3,0.3l-0.2,0.1c-0.1,0-0.1,0-0.2,0
				c-0.1,0-0.2,0-0.3-0.1c-0.1,0-0.5-0.1-1.9-0.1l0,0.1c-0.3,0.8-0.6,1.6-1,2.2c-0.4,0.7-0.9,1.1-1.4,1.4c-0.2,0.1-0.4,0.2-0.6,0.2
				C159.8,56.1,159.7,56.1,159.6,56.1z M161.7,52.1c-0.6,0.1-1.2,0.2-1.6,0.5c-0.4,0.2-0.6,0.5-0.8,0.8c-0.2,0.3-0.2,0.6-0.2,0.8
				c0,0.1,0,0.2,0,0.2c0,0.1,0.1,0.3,0.2,0.3c0.2,0.1,0.3,0.1,0.3,0.1c0.1,0,0.1,0,0.2,0c0.3-0.1,0.6-0.4,0.9-0.9
				C161.1,53.5,161.5,52.9,161.7,52.1L161.7,52.1z"/>
		</g>
		<g>
			<path class="st8" d="M169.9,54.7c-0.1,0-0.1,0-0.2-0.1c-0.1,0-0.2-0.1-0.2-0.1c-0.8-0.5-1.3-1.4-1.4-2.8l0-0.5l-0.2,0.8
				c-0.1,0.3-0.2,0.6-0.3,0.9c-0.1,0.3-0.3,0.6-0.4,0.9c-0.3,0.5-0.6,0.7-0.9,0.7h0c-0.3,0-0.5-0.3-0.7-0.9
				c-0.1-0.3-0.1-0.5-0.1-0.8c0-0.3,0-0.7,0.1-1c0.1-0.7,0.3-1.2,0.6-1.5c0.2-0.3,0.5-0.4,0.6-0.4c0.2,0,0.3,0,0.3,0
				c0.3,0,0.6,0.1,0.8,0.4c0.1,0.1,0.1,0.1,0.2,0.1c0,0,0.1-0.1,0.1-0.2v-0.1c0-0.2,0.1-0.3,0.2-0.3h0c0,0,0,0,0,0c0,0,0,0.1,0,0.1
				c0,0.1,0,0.1,0,0.3s0,0.3,0,0.5c0,0.1,0,0.3,0,0.4c0,0.3,0,0.6,0,0.8c0,0.3,0.1,0.6,0.2,0.9c0.3,1,0.8,1.5,1.5,1.7
				c0.1,0,0.2,0,0.2,0c0.5,0,1.1-0.3,1.7-0.9c0.4-0.5,0.8-1,1.1-1.7c0-0.1,0.1-0.2,0.1-0.2c0-0.1,0.1-0.1,0.1-0.1c0,0,0,0,0,0
				c0,0,0.1,0,0.1,0c0,0,0.1,0.1,0.1,0.1c0,0.1-0.1,0.2-0.2,0.4c-0.1,0.2-0.3,0.5-0.4,0.7c-0.4,0.7-0.9,1.2-1.4,1.5
				s-0.9,0.5-1.3,0.5C170.1,54.7,170,54.7,169.9,54.7z M166.7,53.7c0.2-0.3,0.3-0.7,0.5-1.2c0.1-0.2,0.1-0.5,0.2-0.7
				c0.1-0.3,0.1-0.5,0.2-0.7c0.1-0.2,0.1-0.3,0.1-0.4c0-0.1,0-0.2-0.1-0.3c-0.1-0.1-0.2-0.2-0.3-0.2c-0.2-0.1-0.3-0.1-0.5-0.1
				c-0.2,0-0.5,0.1-0.7,0.3c-0.3,0.4-0.5,0.8-0.5,1.2c-0.1,0.5-0.1,0.8-0.1,1.1c0,0.3,0,0.5,0.1,0.7c0.1,0.5,0.2,0.7,0.4,0.7h0
				C166.3,54.3,166.5,54.1,166.7,53.7z"/>
			<path class="st9" d="M170.2,55.2c-0.1,0-0.3,0-0.4,0l0,0c-0.1,0-0.2,0-0.3-0.1c-0.1,0-0.2-0.1-0.3-0.1c-0.6-0.4-1.1-0.9-1.4-1.7
				c-0.1,0.3-0.2,0.6-0.4,0.8c-0.4,0.6-0.8,1-1.3,1c-0.6,0-1-0.4-1.2-1.3c-0.1-0.3-0.1-0.6-0.1-1c0-0.4,0-0.7,0.1-1.1
				c0.2-0.8,0.4-1.3,0.7-1.7c0.4-0.4,0.7-0.6,1-0.6l0.3,0c0.3,0,0.5,0.1,0.7,0.2c0.1-0.1,0.2-0.2,0.3-0.2l0.2-0.5l0.1,0.5h0.2
				l0.2,0.3c0.1,0.1,0.1,0.2,0.1,0.3c0,0.1,0,0.1,0,0.3v0.5c0,0.1,0,0.3,0,0.4c0,0.3,0,0.5,0,0.7c0,0.3,0.1,0.6,0.2,0.8
				c0.2,0.8,0.6,1.2,1.1,1.3c0,0,0.1,0,0.1,0c0.4,0,0.9-0.3,1.4-0.8c0.4-0.4,0.7-0.9,1-1.6c0-0.1,0.1-0.2,0.1-0.3
				c0.1-0.1,0.1-0.2,0.3-0.3l0.1-0.1l0.2,0c0.1,0,0.3,0,0.4,0.1c0.2,0.1,0.3,0.3,0.3,0.5c0,0.2-0.1,0.3-0.2,0.7
				c-0.1,0.3-0.3,0.5-0.4,0.8c-0.5,0.8-1,1.3-1.5,1.7C171.2,55.1,170.7,55.2,170.2,55.2z M166.9,50.6c0,0-0.1,0-0.3,0.2
				c-0.2,0.3-0.3,0.6-0.4,1c-0.1,0.4-0.1,0.8-0.1,1.1c0,0.2,0,0.4,0.1,0.6c0,0,0,0.1,0,0.1c0,0,0.1-0.1,0.1-0.2
				c0.2-0.3,0.3-0.6,0.5-1.1c0.1-0.2,0.1-0.4,0.2-0.7c0.1-0.3,0.1-0.5,0.2-0.7c0-0.1,0-0.1,0-0.2c-0.1-0.1-0.1-0.1-0.1-0.1
				C167,50.7,167,50.6,166.9,50.6z"/>
		</g>
		<g>
			<path class="st8" d="M174.2,60.2c-0.2-0.4-0.2-0.8-0.2-1.3c0-0.1,0-0.1,0-0.2c0-0.6,0.1-1.1,0.4-1.5c0.2-0.4,0.5-0.8,0.9-1.1
				c0.4-0.3,0.7-0.6,1.2-0.8c0.2-0.1,0.3-0.2,0.4-0.2c0.1-0.1,0.2-0.1,0.2-0.1l0.1-0.1l-0.1-0.6c0-0.4-0.1-0.8-0.2-1.4
				c-0.1-0.6-0.1-1-0.2-1.2l0-0.3l-0.1,0.4c-0.1,0.6-0.3,1.2-0.5,1.7c-0.2,0.5-0.5,0.8-0.8,1c-0.2,0.1-0.4,0.1-0.5,0.1
				c-0.3,0-0.6-0.1-0.8-0.4c-0.4-0.6-0.7-1.4-0.7-2.5c0-0.2,0-0.5,0-0.8c0-0.2,0-0.3,0-0.4c0-0.1,0-0.1,0.1-0.2c0,0,0.1,0,0.1,0
				c0.1,0,0.1,0.1,0.1,0.2c0,0,0,0.1,0,0.2c0,0.1,0,0.2,0,0.3c0,0.1,0,0.3,0,0.5v0.2c0,0.7,0.1,1.2,0.3,1.7c0.2,0.5,0.5,0.8,0.8,0.9
				c0,0,0.1,0,0.1,0c0.2,0,0.4-0.1,0.6-0.2c0.2-0.2,0.5-0.5,0.6-0.9c0.3-0.6,0.5-1.4,0.5-2.3c0-0.1,0-0.3,0-0.4c0-0.1,0-0.2,0-0.2
				c0,0,0-0.1,0-0.1c0,0,0,0,0,0c0,0,0,0,0,0c0.1,0,0.2,0.1,0.2,0.4c0.1,0.3,0.2,0.8,0.3,1.5c0,0.3,0.1,0.6,0.1,1
				c0,0.4,0.1,0.7,0.1,1c0,0.3,0,0.5,0,0.5c0,0,0,0.1,0,0.1c0,0,0,0.1,0,0.1h0c0,0,0.1-0.1,0.3-0.2c0.2-0.1,0.3-0.3,0.6-0.5
				c0.4-0.3,0.7-0.8,1-1.2c0.1-0.1,0.2-0.3,0.2-0.4c0.1-0.2,0.2-0.3,0.2-0.5c0.1-0.3,0.2-0.4,0.3-0.4c0,0,0,0,0,0c0,0,0,0.1,0,0.1
				c0,0.1-0.1,0.3-0.2,0.6c-0.5,1.1-1.2,2-2.1,2.6l-0.4,0.3l0,0.2c0,0,0,0.2,0,0.4c0,0.2,0,0.5,0,0.8c0,0.6,0,1,0,1.4
				c0,0.4-0.1,0.7-0.2,1.1c-0.1,0.5-0.3,1-0.6,1.4c-0.4,0.6-0.7,0.9-0.9,0.9c-0.2,0-0.4,0-0.4,0C174.9,61.2,174.5,60.9,174.2,60.2z
				 M176.4,60.2c0.2-0.2,0.3-0.5,0.4-0.8c0.2-0.4,0.3-0.9,0.3-1.5c0.1-0.5,0.1-1,0.1-1.4c0-0.3,0-0.5,0-0.8l0-0.4l-0.6,0.3
				c-0.4,0.2-0.8,0.5-1.2,0.8c-0.4,0.3-0.7,0.7-0.9,1.1c-0.2,0.4-0.3,0.7-0.3,1c0,0.3,0,0.4,0,0.5c0,0.4,0.1,0.7,0.2,1.1
				c0.3,0.6,0.6,0.9,0.9,0.9h0C175.7,60.9,176,60.7,176.4,60.2z"/>
			<path class="st9" d="M175.3,61.7c-0.7,0-1.2-0.4-1.6-1.3l0,0c-0.2-0.4-0.3-1-0.3-1.5c0-0.1,0-0.2,0-0.2c0-0.6,0.2-1.2,0.4-1.7
				c0.3-0.5,0.6-0.9,1-1.3c0.4-0.3,0.8-0.6,1.3-0.9c0.1-0.1,0.3-0.2,0.4-0.2c0,0,0,0,0,0l0-0.3c0-0.2,0-0.4-0.1-0.6
				c-0.3,0.5-0.6,0.9-1,1.1c-0.7,0.4-1.4,0.2-2-0.4c-0.5-0.7-0.8-1.6-0.8-2.8c0-0.3,0-0.5,0-0.8c0-0.2,0-0.3,0.1-0.4
				c0-0.2,0.1-0.3,0.2-0.4c0.1-0.1,0.3-0.2,0.5-0.2c0.4,0,0.6,0.3,0.6,0.7c0,0.1,0,0.2,0,0.3c0,0,0,0.1,0,0.2c0,0.1,0,0.3,0,0.5
				l0,0.2c0,0.6,0.1,1.1,0.2,1.5c0.1,0.3,0.3,0.6,0.5,0.6c0.1,0,0.1,0,0.2-0.1c0.2-0.2,0.3-0.4,0.5-0.7c0.3-0.6,0.4-1.3,0.4-2.1
				l0-0.4c0-0.1,0-0.2,0-0.2l0-0.1l0.1-0.2c0.1-0.1,0.2-0.2,0.3-0.2l0.1,0l0.2-1.4l0.3,1.6c0.2,0.1,0.3,0.3,0.4,0.6
				c0.1,0.3,0.2,0.8,0.3,1.5c0,0.3,0.1,0.6,0.1,1c0,0.3,0.1,0.6,0.1,0.9c0,0,0.1-0.1,0.1-0.1c0.3-0.3,0.6-0.7,0.9-1.1
				c0.1-0.1,0.2-0.3,0.2-0.4c0.1-0.2,0.2-0.3,0.2-0.5c0.2-0.3,0.3-0.7,0.8-0.7h0.3l0.2,0.3c0,0.1,0.1,0.2,0.1,0.3
				c0,0.2-0.1,0.4-0.2,0.8c-0.5,1.2-1.3,2.2-2.3,2.9l-0.1,0.1c0,0.1,0,0.2,0,0.3c0,0.2,0,0.5,0,0.8c0,0.6,0,1.1-0.1,1.4
				c0,0.4-0.1,0.8-0.2,1.2c-0.1,0.6-0.3,1.1-0.6,1.5c-0.5,0.7-0.9,1.1-1.3,1.1C175.4,61.7,175.3,61.7,175.3,61.7z M176.6,56.1
				c-0.3,0.2-0.7,0.4-1,0.7c-0.3,0.3-0.6,0.6-0.7,0.9c-0.1,0.3-0.2,0.6-0.2,0.8c0,0.3,0,0.4,0,0.5c0,0.3,0.1,0.6,0.2,0.9
				c0.1,0.3,0.3,0.6,0.5,0.6c0.2,0,0.4-0.2,0.6-0.5c0.1-0.2,0.3-0.4,0.3-0.7c0.1-0.4,0.2-0.9,0.3-1.3c0-0.5,0.1-1,0.1-1.4
				C176.7,56.3,176.6,56.2,176.6,56.1z"/>
		</g>
	</g>
	<g>
		<g>
			<g>
				<path class="st10" d="M9.1,57.2c0.2-2.5,0.5-5.1,0-7.6c-0.6-3-2.1-5.9-2.2-9c-0.1,0.2-0.3,0.4-0.4,0.7
					c5.3-2.1,10.9-2.4,16.4-3.3c1.3-0.2,2.6-0.4,4-0.4c1.1,0,2.3-0.1,3.4-0.2c2.5-0.3,4.8-1.1,6.8-2.7c0.4-0.4-0.1-0.9-0.6-0.7
					c-2.4,1.2-4.8,2-7.4,2.2c-1.2,0.1-2.5,0-3.7,0.1c-1.3,0.1-2.5,0.4-3.8,0.6c-5.3,0.8-10.6,1.3-15.6,3.3c-0.3,0.1-0.4,0.4-0.4,0.7
					c0.1,3,1.4,5.7,2.2,8.5c0.7,2.5,0.6,5.3,0.7,7.9C8.6,57.4,9.1,57.5,9.1,57.2L9.1,57.2z"/>
			</g>
		</g>
		<g>
			<g>
				<path class="st10" d="M37.2,35.3c-0.8-1.9-1-3.6-1-5.7c0-2-1-4.1-1.6-5.9c-1.1-3.4-2.3-8.4,0.8-11.1c2.4-2.1,6.3-2.2,9.3-2.9
					c4.5-1.1,8.7-3.2,13.3-3.6c1-0.1,1.9-0.1,2.9-0.4c1.1-0.3,2.2-0.6,3.3-0.8c1.6-0.4,3.1-1,4.7-1.4c2.3-0.6,5.3-2.3,7,0.1
					c1.5,2,1.7,4.7,2.2,7c0.1,0.5,0.2,1,0.4,1.5c0.1,0.5,0.3,0.9,0.3,1.2c0.1,2.2,0.1,4.3,0.4,6.5c0.2,2.5,0.6,4.9,1,7.4
					c0.2,1.2,0.4,2.5,0.6,3.7c0.2,1,0.4,1.9,0.4,2.9c-0.3,3.5-1,7.4,1.6,10.2c1.2,1.3,3.2-0.6,2-1.9c-2.3-2.5-0.7-6.3-1-9.3
					c-0.2-2.2-0.9-4.5-1.3-6.7c-0.4-2.3-0.8-4.7-1-7c-0.1-1.1-0.2-2.3-0.3-3.4c-0.1-1.1,0.1-2.4-0.2-3.4c-0.3-1-0.6-1.9-0.9-2.9
					c-0.6-2.5-1.1-5.3-2.8-7.3c-0.8-0.9-1.8-1.6-3-1.8c-1.6-0.2-3.1,0.5-4.5,0.9c-0.7,0.2-1.4,0.3-2,0.5c-0.9,0.4-1.8,0.7-2.7,0.9
					C63,3.2,60.8,4,58.7,4.2C53.9,4.6,49.6,6.6,45,7.8c-3.3,0.9-7.1,1-10,3c-3.5,2.5-3.6,7.4-2.6,11.1c0.3,1.2,0.7,2.3,1.1,3.4
					c0.5,1.3,1.1,2.7,1.3,4.1c0.1,1,0.1,2,0.3,3c0.2,1.2,0.7,2.2,1.3,3.3C36.7,36.2,37.4,35.8,37.2,35.3L37.2,35.3z"/>
			</g>
		</g>
		<g>
			<g>
				<path class="st10" d="M11.8,39.4c0.2-3.9-0.6-7.5-1.6-11.2c-0.5-1.8-0.9-3.5-1.3-5.3c-0.2-1-0.3-1.9-0.4-2.9
					c-0.1-0.9,0-1.8-0.5-2.6c-0.2-0.3-0.8-0.3-1,0c-0.9,1.4-0.1,3.9,0.1,5.4c0.3,1.7,0.7,3.3,1.2,4.9c1,3.8,2.3,7.7,2.6,11.7
					C11.1,39.9,11.8,39.8,11.8,39.4L11.8,39.4z"/>
			</g>
		</g>
		<g>
			<g>
				<path class="st10" d="M25.6,37.2c3-1.5,0.9-6.3,0.6-8.6c-0.1-1.1,0-2.3-0.1-3.4c-0.1-1.2-0.3-2.5-0.4-3.7
					c-0.2-1.3-0.4-2.6-0.5-3.9c-0.1-1.3,0-2.8-0.5-3.9c-0.3-0.6-1-0.4-1.3,0.1c-0.4,0.9-0.2,2.1-0.1,3c0.1,1.2,0.3,2.3,0.4,3.5
					c0.3,2.3,0.7,4.5,0.8,6.8c0.1,1.6,0.4,3,0.8,4.5c0.3,1.3,1.3,3.9-0.1,4.8C24.7,36.7,25.1,37.4,25.6,37.2L25.6,37.2z"/>
			</g>
		</g>
		<g>
			<g>
				<path class="st10" d="M2.5,19.4c4.3,0.2,8.7-0.9,12.8-2.3c4.2-1.3,8-3.7,12.6-3.7c0.2,0,0.6-0.1,0.7-0.4c1.4-3.1-1.5-6.9-3-9.5
					c-0.5-0.8-0.7-1.2-0.7-2.1c0-0.6,0-1.4-0.5-1.8c-0.8-0.8-2.4-0.4-3.4-0.2c-1.9,0.4-3.8,1.2-5.7,1.7c-0.9,0.3-1.7,0.4-2.6,0.5
					c-0.9,0.2-1.8,0.7-2.8,0.9C9.1,2.8,8,3,7,3.3C5.8,3.5,4.5,4.1,3.2,4.2c-1.4,0.1-3.1,0-3.8,1.6c-0.8,1.7-0.2,4,0.1,5.7
					c0.5,2.3,1.1,4.6,2.1,6.8c0.5,1.1,2.3,0.3,1.8-0.8C2,14.5,1,10.9,0.9,7.7c0-0.5,0-1.1,0.4-1.5C1.8,5.9,2.7,6,3.3,6
					C4.2,6,5,5.7,5.9,5.4C6.9,5.1,8,4.9,9,4.7c1.5-0.3,3-1.1,4.5-1.3c1.6-0.3,3.2-0.8,4.7-1.3c1.4-0.5,2.9-1.1,4.5-1.2
					c0.2,0,0.4,0,0.6,0c0.1,0,0.1,0,0-0.1c-0.2-0.1,0,0.1,0,0.2c-0.1,0.7,0,1.5,0.3,2.2c0.7,1.5,1.8,2.9,2.5,4.4
					c0.7,1.2,1.8,3.3,1.2,4.7c0.2-0.1,0.4-0.2,0.7-0.4c-4.4,0.1-8,2-12,3.6c-4.2,1.7-8.9,2.9-13.5,3.1C2.1,18.7,2.1,19.4,2.5,19.4
					L2.5,19.4z"/>
			</g>
		</g>
		<g>
			<g>
				<path class="st10" d="M49.7,32.1c2-1.2,1.1-4.1,0.5-5.8c-0.9-2.5-2.3-4.9-2.9-7.5c-0.1-0.4-0.2-1-0.2-1.3c0-0.4,0.1-0.7,0.3-0.9
					c-0.1,0.1,0.3-0.2,0.2-0.2c0.1-0.1,0.5-0.2,0.5-0.2c0.4,0,1,0.3,1.4,0.5c1.5,0.8,2.8,2,3.9,3.3c1,1,2.1,2.3,2.6,3.7
					c0.4,1.3-1,2.9-1.9,3.8c-1,1-2.9,2.3-4.2,1.1c-0.8-0.7-1.9,0.5-1.1,1.3c3,2.8,7.4-1.3,8.6-4c0.7-1.5,0.4-2.8-0.4-4.2
					c-1-1.7-2.4-3.1-3.8-4.4c-1.8-1.7-5.7-4.7-7.6-1.3c-0.6,1.1-0.4,2.3-0.1,3.5c0.4,1.4,1,2.8,1.6,4.2c0.7,1.5,1.5,3,2,4.6
					c0.3,1,0.9,2.5,0,3.3C48.8,31.7,49.3,32.4,49.7,32.1L49.7,32.1z"/>
			</g>
		</g>
		<g>
			<g>
				<path class="st10" d="M29.2,53c-1.7-0.2-3.1-1.3-4.8-1.6c-1.5-0.2-3.1,0.5-4.4,1.2c-1.6,0.9-3.1,2.1-4.5,3.3
					c-1.2,1-2.8,2.2-3.6,3.6c-3.6,6.5,0.4,14.6,5.8,18.8c2.7,2.1,5.9,3.8,9.4,3.5c3.4-0.2,6.7-1.3,9.7-3c6.4-3.7,9.9-10.5,7.8-17.8
					c-2.2-7.6-10.5-12.1-18.1-9.8c-0.9,0.3-0.6,1.6,0.3,1.5c6.3-1.1,12.9,0.9,15.8,7c1.4,3,1.6,6.5,0.5,9.7C42,72.5,39.6,75,37,76.8
					c-2.5,1.7-5.3,2.8-8.3,3.3c-1.5,0.3-3.1,0.5-4.6,0.1c-1.5-0.4-3-1-4.3-1.8c-5.4-3.4-9.7-10.5-7.3-16.8c0.6-1.7,1.9-2.7,3.2-3.9
					c1.5-1.4,3-2.7,4.8-3.7c1.3-0.8,2.9-1.5,4.5-1.2c1.4,0.3,2.8,0.9,4.2,0.9C29.6,53.6,29.6,53,29.2,53L29.2,53z"/>
			</g>
		</g>
		<g>
			<g>
				<path class="st10" d="M58.3,46.7c-8.8,3.8-10.8,16.7-4.5,23.6c4,4.3,10.2,5,15.4,2.7c5.8-2.5,8.7-8.5,9.1-14.6
					c0.2-4.2-1.5-7.7-4.5-10.5c-1.6-1.5-3.2-2.4-5.4-2.4c-2.5,0-4.9,0.5-7.4,0.6c-1.1,0-1,1.6,0.1,1.7c1.9,0,3.7-0.2,5.6-0.4
					c1.8-0.2,3.4-0.2,4.9,1c2.6,2,4.8,4.9,5,8.3c0.3,5.2-1.8,11-6.3,13.9c-4.4,2.9-10.6,3.1-14.7-0.5c-3.1-2.7-4.5-7-4.3-11
					c0.2-4.9,2.7-9.7,7.3-11.9C58.7,47.1,58.6,46.6,58.3,46.7L58.3,46.7z"/>
			</g>
		</g>
		<g>
			<g>
				<path class="st10" d="M45.1,61.6c1.2,1.2,2.8,1.7,4.4,1.5c0.4-0.1,0.8-0.3,0.8-0.8c0-0.4-0.2-0.8-0.7-0.9c-0.2,0-0.3,0-0.5-0.1
					c-0.1,0-0.3,0-0.4,0c-0.1,0,0.2,0,0,0c0,0-0.1,0-0.1,0c-0.3,0-0.6,0-0.9-0.1c-0.1,0-0.1,0-0.2-0.1c0,0,0.2,0.1,0.1,0
					c0,0-0.1,0-0.1,0C47.3,61,47.2,61,47,60.9c0,0-0.1,0-0.1-0.1c-0.1-0.1,0,0,0,0c0,0-0.2-0.1-0.2-0.1c-0.2-0.1-0.3-0.3-0.5-0.4
					C45.9,60,45.3,60,45,60.4C44.7,60.8,44.8,61.2,45.1,61.6L45.1,61.6z"/>
			</g>
		</g>
		<g>
			<g>
				<path class="st10" d="M78.3,55c1.8,1.8,5.1,1.5,6.5-0.6c1.4-2,0.7-4.8-0.1-6.9c-0.4-1.2-1-2.4-1.6-3.5c-0.5-0.9-1.8-0.1-1.3,0.8
					c1,2.2,2.3,4.5,2.2,7c0,1.1-0.4,2.1-1.4,2.7c-1.1,0.6-2.7,0.5-3.6-0.3C78.5,53.6,77.8,54.5,78.3,55L78.3,55z"/>
			</g>
		</g>
		<g>
			<g>
				<path class="st10" d="M9.7,54.3c-1.6,2.9-0.3,7.1,2.7,8.5c0.7,0.3,1.3-0.8,0.6-1.2c-2.2-1.3-3.6-4.4-2.5-6.8
					C10.8,54.3,10,53.8,9.7,54.3L9.7,54.3z"/>
			</g>
		</g>
		<g>
			<g>
				<path class="st10" d="M27.8,63.6c0.3,0.3,0.6,0.7,0.9,1.1c0.2,0.3,0.4,0.6,0.6,0.9c0.1,0.3,0.2,0.5,0.2,0.8c0,0.1,0,0.1,0,0.2
					c0,0.1,0-0.1,0,0c0,0,0,0.1,0,0.1c0,0.1,0,0.1,0,0.2c0,0,0,0,0,0.1c0,0.1,0,0,0,0c0,0.1-0.1,0.2-0.1,0.3c0,0,0.1-0.1,0,0
					c0,0,0,0,0,0.1c0,0,0,0.1-0.1,0.1c-0.1,0.1,0.1-0.1,0,0c0,0,0,0,0,0c0,0-0.1,0.1-0.1,0.1c0,0,0,0-0.1,0c0,0,0.1-0.1,0,0
					c0,0-0.1,0.1-0.1,0.1c0,0,0,0-0.1,0c-0.1,0,0.1-0.1,0.1,0c0,0-0.1,0-0.1,0c0,0-0.1,0-0.1,0c-0.1,0-0.1,0,0.1,0c0,0-0.1,0-0.1,0
					c-0.1,0-0.2,0-0.3,0c-0.1,0,0.1,0,0.1,0c0,0-0.1,0-0.1,0c-0.1,0-0.1,0-0.2,0c-0.1,0-0.1,0-0.2,0c-0.1,0,0.2,0,0.1,0
					c0,0-0.1,0-0.1,0c-0.1,0-0.2-0.1-0.4-0.1c-0.1,0,0.1,0,0.1,0c0,0,0,0-0.1,0c0,0-0.1,0-0.1,0c-0.1,0-0.1-0.1-0.2-0.1
					c-0.1-0.1-0.2-0.1-0.3-0.2c0.1,0,0.1,0.1,0.2,0.1c-0.2-0.1-0.4-0.3-0.5-0.5c0.1,0.1,0.1,0.1,0.2,0.2c-0.3-0.3-0.5-0.6-0.7-1
					c0,0.1,0.1,0.1,0.1,0.2c0-0.1-0.1-0.2-0.1-0.2c0,0.1,0.1,0.1,0.1,0.2c-0.1-0.2-0.1-0.3-0.3-0.4c-0.2-0.2-0.4-0.3-0.6-0.3
					c-0.4,0-0.8,0.3-0.8,0.8c0,0.1,0,0.3,0.1,0.4c-0.1-0.3-0.1-0.6-0.1-0.4c0,0.1,0,0.1,0,0.2c0,0.2,0.1,0.3,0.2,0.5
					c0.1,0.1,0.1,0.3,0.2,0.4c0.2,0.3,0.5,0.6,0.8,0.9c0.4,0.3,0.8,0.5,1.2,0.6c0.4,0.1,0.8,0.1,1.2,0.1c0.7-0.1,1.3-0.4,1.7-0.9
					c0.4-0.5,0.4-1.2,0.2-1.9c-0.2-0.4-0.4-0.9-0.7-1.2c-0.4-0.6-0.9-1.1-1.4-1.5C27.9,63.1,27.6,63.4,27.8,63.6L27.8,63.6z"/>
			</g>
		</g>
		<g>
			<g>
				<path class="st10" d="M23.7,54.8c0.7,1.5,0.9,3.1,1.3,4.7c0.2,0.9,0.5,1.8,0.8,2.7c0.2,0.5,0.4,1,0.7,1.4c0.3,0.5,0.6,1,1,1.4
					c0.3,0.4,0.9-0.1,0.7-0.5c-0.9-1.8-1.7-3.6-2.3-5.6c-0.5-1.5-0.8-3.1-1.5-4.6C24.2,53.9,23.5,54.3,23.7,54.8L23.7,54.8z"/>
			</g>
		</g>
		<g>
			<g>
				<path class="st10" d="M28,65.1c1.7-0.2,3.1-1.7,4.2-2.9c1.6-1.7,3-3.6,4.5-5.3c0.5-0.6,1.1-1.4,1.8-1.8c0.6-0.4,0-1.3-0.6-1
					c-0.9,0.4-1.6,1-2.2,1.7c-0.9,1-1.7,2-2.5,3c-0.7,1-1.4,1.9-2.2,2.9c-0.6,0.8-1.2,1.6-2,2.2c-0.3,0.2-0.6,0.5-0.9,0.6
					c-0.2,0.1-0.4,0-0.5,0.2C27.5,64.8,27.7,65.1,28,65.1L28,65.1z"/>
			</g>
		</g>
		<g>
			<g>
				<path class="st10" d="M12.4,60.2c2.1,1.2,4.4,2.1,6.7,3c2.1,0.9,4,2,5.9,3.3c0.6,0.4,1.3-0.3,0.9-0.9c-0.8-1-1.6-1.9-2.8-2.6
					c-1-0.6-2-1-3.1-1.4c-2.4-0.9-4.8-1.4-7.1-2.5C12.2,58.8,11.8,59.8,12.4,60.2L12.4,60.2z"/>
			</g>
		</g>
		<g>
			<g>
				<path class="st10" d="M24.9,66c-0.1,3.9-2.6,7.1-4.9,9.9c-0.3,0.3,0.2,0.8,0.6,0.5c3-2.5,5.3-6.5,5.3-10.4
					C25.9,65.4,24.9,65.4,24.9,66L24.9,66z"/>
			</g>
		</g>
		<g>
			<g>
				<path class="st10" d="M27.6,67.6c1.8,1.4,2.9,3.3,3.9,5.3c1.1,2.1,1.9,4.5,3.5,6.3c0.6,0.7,1.6-0.2,1.2-1
					c-1.1-2.1-2.2-4.3-3.4-6.4c-1.2-2-2.6-3.9-4.7-5.1C27.7,66.6,27.1,67.3,27.6,67.6L27.6,67.6z"/>
			</g>
		</g>
		<g>
			<g>
				<path class="st10" d="M30.8,67.6c1-0.8,2-1,3.2-0.9c0.6,0,1.2-0.2,1.7-0.4c0.7-0.2,1.4-0.4,2.1-0.6c2.4-0.8,4.8-1.6,7-2.8
					c0.9-0.5,0.1-1.8-0.9-1.4c-2.3,1.1-4.7,1.9-7.1,2.8c-0.8,0.3-1.6,0.6-2.4,0.9c-0.5,0.2-1.1,0.2-1.6,0.3c-1.1,0.2-2,0.7-2.7,1.5
					C29.8,67.4,30.3,67.9,30.8,67.6L30.8,67.6z"/>
			</g>
		</g>
		<g>
			<g>
				<path class="st10" d="M14,71.9c1.6,0,3.3-0.3,4.8-0.8c1.6-0.4,3-1.1,4.5-1.9c0.4-0.2,0.5-0.7,0.3-1.1c-0.2-0.4-0.7-0.5-1.1-0.3
					c-1.4,0.6-2.8,1.1-4.2,1.5c-1.4,0.5-2.8,0.8-4.3,0.9C13,70.3,13,71.8,14,71.9L14,71.9z"/>
			</g>
		</g>
		<g>
			<g>
				<path class="st10" d="M62.4,58.3C62.4,58.3,62.4,58.3,62.4,58.3C62.4,58.2,62.4,58.3,62.4,58.3c0-0.1,0-0.1,0-0.1
					c0-0.1,0-0.1,0-0.2c0-0.1,0-0.2,0-0.3c0,0,0,0.1,0,0c0,0,0,0,0-0.1c0,0,0,0.1,0,0.1c0,0,0,0,0,0c0,0,0,0,0,0c0,0,0,0,0,0
					c0.1-0.1-0.2,0.1,0,0c0.1-0.1,0.1-0.2,0.2-0.3c0-0.1,0.1-0.1,0,0c0-0.1,0.1-0.1,0.1-0.2c0-0.1-0.1,0.1,0,0.1c0,0,0,0,0,0
					c0,0,0,0,0.1-0.1c0.1-0.1-0.1,0.1,0,0c0,0,0.1,0,0.1-0.1c0,0,0.1,0,0.1,0c0,0-0.2,0.1-0.1,0c0,0,0,0,0,0c0,0,0.1,0,0.1,0
					c0,0,0,0,0,0c0.1,0-0.2,0-0.1,0c0.1,0,0.1,0,0.2,0c0,0,0.1,0,0.1,0c0,0-0.2,0-0.1,0c0,0,0,0,0.1,0c0.1,0,0.1,0,0.2,0
					c0,0,0,0,0.1,0c0.1,0-0.1,0-0.1,0c0,0,0.1,0,0.1,0c0.1,0,0.1,0,0.2,0.1c0.1,0,0.1,0.1,0.2,0.1c-0.2-0.1-0.1-0.1-0.1,0
					c0,0,0.1,0,0.1,0.1c0.1,0,0.1,0.1,0.2,0.1c0,0,0,0,0,0c0,0-0.2-0.2-0.1-0.1c0,0,0.1,0.1,0.1,0.1c0.1,0.1,0.2,0.2,0.3,0.4
					c0-0.1-0.1-0.1-0.1-0.2c0.1,0.1,0.1,0.2,0.1,0.2c0,0,0,0.1,0,0.1c0,0,0,0,0,0.1c0,0-0.1-0.2,0-0.1c0,0,0,0,0,0
					c0,0.1,0,0.2,0,0.2c0,0,0,0,0,0.1c0,0.1,0-0.2,0-0.1c0,0,0,0.1,0,0.1c0,0.1,0,0.2,0,0.3c0,0,0-0.2,0-0.1c0,0,0,0,0,0
					c0,0,0,0.1,0,0.1c0,0.1,0,0.1,0,0.2c0,0.1,0,0.2-0.1,0.3c0,0.1-0.1,0.2-0.1,0.3c0,0,0,0.1-0.1,0.1c0,0,0.1-0.1,0,0
					c0,0.1-0.1,0.1-0.1,0.2c-0.2,0.3-0.5,0.6-0.8,0.9c-0.1,0.1-0.1,0.2,0,0.3c0.1,0.1,0.2,0.1,0.3,0c0.3-0.2,0.5-0.3,0.7-0.5
					c0.2-0.2,0.4-0.4,0.6-0.5c0.3-0.3,0.7-0.6,0.8-1c0.2-0.7,0.2-1.4-0.2-2c-0.2-0.3-0.4-0.6-0.8-0.8c-0.3-0.2-0.5-0.3-0.8-0.3
					c-0.6-0.1-1.4-0.1-1.8,0.3c-0.3,0.2-0.5,0.6-0.5,0.9c0,0.1,0,0.3,0,0c0,0.1,0,0.2,0,0.3c0,0.1,0.1,0.2,0.1,0.2
					c-0.2-0.2,0,0.1,0,0.1c0,0,0,0,0,0c0,0,0,0,0-0.1c0,0,0,0,0,0.1c0,0,0,0.1,0,0.1c0,0.2,0.1,0.4,0.2,0.6c0.1,0.1,0.2,0.2,0.3,0.2
					C62.4,58.6,62.5,58.4,62.4,58.3L62.4,58.3z"/>
			</g>
		</g>
		<g>
			<g>
				<path class="st10" d="M60.2,45.8c0.6,2,1.1,4.1,1.7,6.1c0.3,1,0.6,2,0.9,3c0.3,0.9,0.7,1.7,1.2,2.4c0.4,0.6,1.6,0.4,1.4-0.5
					c-0.3-0.9-0.5-1.9-0.9-2.8c-0.3-0.9-0.6-1.8-1-2.8c-0.7-2-1.3-3.9-2-5.9C61.3,44.6,60,45.1,60.2,45.8L60.2,45.8z"/>
			</g>
		</g>
		<g>
			<g>
				<path class="st10" d="M64.9,56.4c1.2-0.6,2.3-1.4,3.3-2.2c0.9-0.7,1.8-1.3,2.9-1.5c0.6-0.1,0.7-1.1,0-1.2
					c-1.4-0.2-2.7,0.5-3.7,1.4c-1,0.9-1.9,1.9-3.1,2.5C63.9,55.7,64.3,56.6,64.9,56.4L64.9,56.4z"/>
			</g>
		</g>
		<g>
			<g>
				<path class="st10" d="M51.8,57.7c2.4,1.3,5.1,1.6,7.5,2.7c0.4,0.2,0.8,0.1,1.1-0.3c0.2-0.4,0.1-0.9-0.3-1.1
					c-1.2-0.7-2.5-1-3.9-1.3c-1.3-0.3-2.6-0.6-3.8-1.1C51.6,56.3,51.1,57.3,51.8,57.7L51.8,57.7z"/>
			</g>
		</g>
		<g>
			<g>
				<path class="st10" d="M61.6,59.6c-0.1,2.2-1.7,4-2.8,5.7c-0.6,0.9-1.2,1.8-1.7,2.8c-0.5,1-0.7,2-0.5,3.1c0.1,0.6,1,0.7,1.1,0.1
					c0.1-0.6,0.4-1.1,0.6-1.7c0.2-0.5,0.4-1,0.7-1.4c0.5-1,1.2-1.9,1.8-2.8c1.1-1.7,2.2-3.6,2.1-5.7C62.8,58.8,61.6,58.9,61.6,59.6
					L61.6,59.6z"/>
			</g>
		</g>
		<g>
			<g>
				<path class="st10" d="M64.2,60c1.4,1.6,2.9,3.2,4.3,4.8c0.8,0.9,1.5,1.8,2.2,2.7c0.4,0.5,0.7,0.9,1.1,1.4c0.4,0.5,0.8,1,1.4,1.4
					c0.4,0.4,1.2-0.1,1-0.7c-0.2-0.7-0.4-1.2-0.8-1.7c-0.3-0.5-0.7-1-1.1-1.4c-0.8-1-1.7-1.9-2.5-2.8c-1.5-1.6-3.1-3.1-4.7-4.6
					C64.6,58.7,63.8,59.5,64.2,60L64.2,60z"/>
			</g>
		</g>
		<g>
			<g>
				<path class="st10" d="M66.2,59.1c3.7-1,7.5-1,11.3-1.2c1.1-0.1,1-1.6-0.1-1.7c-3.9-0.2-7.8,0-11.6,1.4
					C64.9,58,65.2,59.4,66.2,59.1L66.2,59.1z"/>
			</g>
		</g>
	</g>
</g>
</svg>
