<?xml version="1.0" encoding="utf-8"?>
<!-- Generator: Adobe Illustrator 25.2.1, SVG Export Plug-In . SVG Version: 6.00 Build 0)  -->
<svg version="1.1" id="Layer_1" xmlns="http://www.w3.org/2000/svg" xmlns:xlink="http://www.w3.org/1999/xlink" x="0px" y="0px"
	 viewBox="0 0 180 206" style="enable-background:new 0 0 180 206;" xml:space="preserve">
<style type="text/css">
	.st0{fill:#8C989F;}
	.st1{fill:#BAC9D1;}
	.st2{fill:#FFFFFF;}
	.st3{fill:#6B747A;}
</style>
<g>
	<path class="st1" d="M24.8,166.7V206h126.3v-39.3H24.8z M88.2,172.7c4.1,0,5.9,2.5,5.9,8c0,5.5,0,15.5,0,15.5H82.3
		c0,0,0-10.1,0-15.5C82.3,175.2,84.1,172.7,88.2,172.7z M77.8,180.7c0,5.5,0,15.5,0,15.5H65.9c0,0,0-10.1,0-15.5c0-5.5,1.8-8,5.9-8
		C75.9,172.7,77.8,175.2,77.8,180.7z M61.4,180.7c0,5.5,0,15.5,0,15.5H49.5c0,0,0-10.1,0-15.5c0-5.5,1.8-8,5.9-8
		C59.6,172.7,61.4,175.2,61.4,180.7z M45,180.7c0,5.5,0,15.5,0,15.5H33.1c0,0,0-10.1,0-15.5c0-5.5,1.8-8,5.9-8S45,175.2,45,180.7z
		 M98.6,196.2c0,0,0-10.1,0-15.5c0-5.5,1.8-8,5.9-8c4.1,0,5.9,2.5,5.9,8c0,5.5,0,15.5,0,15.5H98.6z M115,196.2c0,0,0-10.1,0-15.5
		c0-5.5,1.8-8,5.9-8c4.1,0,5.9,2.5,5.9,8c0,5.5,0,15.5,0,15.5H115z M131.4,196.2c0,0,0-10.1,0-15.5c0-5.5,1.8-8,5.9-8
		c4.1,0,5.9,2.5,5.9,8c0,5.5,0,15.5,0,15.5H131.4z"/>
	<path class="st1" d="M37.7,101.5V134h104.5v-32.5H37.7z M88.2,102.7c4.1,0,5.9,2.5,5.9,8c0,5.5,0,15.5,0,15.5H82.3
		c0,0,0-10.1,0-15.5C82.3,105.2,84.1,102.7,88.2,102.7z M77.8,110.7c0,5.5,0,15.5,0,15.5H65.9c0,0,0-10.1,0-15.5c0-5.5,1.8-8,5.9-8
		C75.9,102.7,77.8,105.2,77.8,110.7z M61.4,110.7c0,5.5,0,15.5,0,15.5H49.5c0,0,0-10.1,0-15.5c0-5.5,1.8-8,5.9-8
		C59.6,102.7,61.4,105.2,61.4,110.7z M98.6,126.2c0,0,0-10.1,0-15.5c0-5.5,1.8-8,5.9-8c4.1,0,5.9,2.5,5.9,8c0,5.5,0,15.5,0,15.5
		H98.6z M115,126.2c0,0,0-10.1,0-15.5c0-5.5,1.8-8,5.9-8c4.1,0,5.9,2.5,5.9,8c0,5.5,0,15.5,0,15.5H115z"/>
	<path class="st1" d="M48.2,48.7v26h83.5v-26H48.2z M111.4,56.2c0-4.1,1.5-6,4.7-6c3.3,0,4.8,1.9,4.8,6c0,4.1,0,11.6,0,11.6h-9.5
		C111.4,67.8,111.4,60.3,111.4,56.2z M98.3,56.2c0-4.1,1.5-6,4.8-6c3.3,0,4.8,1.9,4.8,6c0,4.1,0,11.6,0,11.6h-9.5
		C98.3,67.8,98.3,60.3,98.3,56.2z M85.3,56.2c0-4.1,1.5-6,4.8-6c3.3,0,4.7,1.9,4.7,6c0,4.1,0,11.6,0,11.6h-9.5
		C85.3,67.8,85.3,60.3,85.3,56.2z M72.2,56.2c0-4.1,1.5-6,4.8-6c3.3,0,4.8,1.9,4.8,6c0,4.1,0,11.6,0,11.6h-9.5
		C72.2,67.8,72.2,60.3,72.2,56.2z M59.1,56.2c0-4.1,1.5-6,4.8-6c3.3,0,4.8,1.9,4.8,6c0,4.1,0,11.6,0,11.6h-9.5
		C59.1,67.8,59.1,60.3,59.1,56.2z"/>
	<g>
		<rect x="24.8" y="199.5" class="st0" width="126.3" height="6.6"/>
		<path class="st0" d="M162.4,156c-13.4-0.1-20.2-19.2-20.1-21.6l0-0.4v-5.4H37.7v5.4l0,0.2c0.1,2.4-6.7,21.6-20.1,21.8
			c-6.2,0.1-10.8-2.1-13.9-4.6c-1.9-1.5-4.6,0.7-3.4,2.8c6.9,13.2,24.5,13.7,24.5,13.7H90h65.2c0,0,17.6-0.5,24.5-13.7
			c1.1-2.2-1.5-4.4-3.4-2.8C173.1,153.9,168.6,156.1,162.4,156z"/>
		<path class="st0" d="M37.3,101.8H90h52.7c0,0,12.1-0.3,18.4-8.8c1.5-2-0.9-4.7-3-3.4c-2.4,1.5-5.6,2.6-9.6,2.6
			C137.6,92,131.9,76.3,132,74.3h-0.2v-4H48.2v4H48c0.1,1.9-5.7,17.7-16.5,17.8c-4,0-7.2-1.1-9.6-2.6c-2.1-1.3-4.5,1.4-3,3.4
			C25.2,101.4,37.3,101.8,37.3,101.8z"/>
	</g>
	<path class="st0" d="M137,40.9c-8.7-0.1-13.3-12.8-13.3-14.3C115.8,0.5,90,0,90,0S64.2,0.5,56.2,26.6c0.1,1.5-4.6,14.2-13.3,14.3
		c-2.4,0-4.5-0.5-6.1-1.2c-2.3-1-4.2,2-2.4,3.7c5.3,5,13.2,5.2,13.2,5.2H90h42.4c0,0,7.9-0.2,13.2-5.2c1.8-1.7-0.1-4.8-2.4-3.7
		C141.5,40.4,139.5,40.9,137,40.9z"/>
</g>
</svg>
