<?xml version="1.0" encoding="utf-8"?>
<!-- Generator: Adobe Illustrator 25.2.1, SVG Export Plug-In . SVG Version: 6.00 Build 0)  -->
<svg version="1.1" id="Layer_1" xmlns="http://www.w3.org/2000/svg" xmlns:xlink="http://www.w3.org/1999/xlink" x="0px" y="0px"
	 viewBox="0 0 180 129.4" style="enable-background:new 0 0 180 129.4;" xml:space="preserve">
<style type="text/css">
	.st0{fill:#8C989F;}
	.st1{fill:#BAC9D1;}
	.st2{fill:#FFFFFF;}
	.st3{fill:#6B747A;}
</style>
<g>
	<g>
		<path class="st1" d="M60.8,50.4c0,0.4-0.3,0.7-0.7,0.7c-0.4,0-0.7-0.3-0.7-0.7c0-0.4,0.3-0.7,0.7-0.7C60.5,49.7,60.8,50,60.8,50.4
			z"/>
		<path class="st1" d="M60.6,48.4c0,0.3-0.2,0.5-0.5,0.5c-0.3,0-0.5-0.2-0.5-0.5c0-0.3,0.2-0.5,0.5-0.5
			C60.4,47.9,60.6,48.1,60.6,48.4z"/>
		<path class="st1" d="M60.5,47.1c0,0.2-0.1,0.3-0.3,0.3c-0.2,0-0.3-0.1-0.3-0.3c0-0.2,0.1-0.3,0.3-0.3
			C60.3,46.8,60.5,46.9,60.5,47.1z"/>
		<path class="st1" d="M60.2,46c0-0.3-0.1-0.3-0.1-0.3S60,45.7,60,46c0,0.3-0.1,3.7-0.1,3.7h0.2h0.2C60.3,49.8,60.2,46.3,60.2,46z"
			/>
	</g>
	<g>
		<path class="st1" d="M119.2,50.4c0,0.4,0.3,0.7,0.7,0.7c0.4,0,0.7-0.3,0.7-0.7c0-0.4-0.3-0.7-0.7-0.7
			C119.5,49.7,119.2,50,119.2,50.4z"/>
		<path class="st1" d="M119.4,48.4c0,0.3,0.2,0.5,0.5,0.5c0.3,0,0.5-0.2,0.5-0.5c0-0.3-0.2-0.5-0.5-0.5
			C119.6,47.9,119.4,48.1,119.4,48.4z"/>
		<path class="st1" d="M119.5,47.1c0,0.2,0.1,0.3,0.3,0.3s0.3-0.1,0.3-0.3c0-0.2-0.1-0.3-0.3-0.3S119.5,46.9,119.5,47.1z"/>
		<path class="st1" d="M119.8,46c0-0.3,0.1-0.3,0.1-0.3s0.1,0,0.1,0.3c0,0.3,0.1,3.7,0.1,3.7h-0.2h-0.2
			C119.7,49.8,119.8,46.3,119.8,46z"/>
	</g>
	<polygon class="st1" points="16,47.7 11.7,47.7 7.3,47.7 5.2,115.5 11.7,115.5 18.2,115.5 	"/>
	<polygon class="st1" points="28.6,66 25.4,66 22.3,66 20.7,115.5 25.4,115.5 30.2,115.5 	"/>
	<path class="st1" d="M17.3,48c0,0.6-0.8,1.2-1.7,1.2H7.8c-0.9,0-1.7-0.5-1.7-1.2v-0.6c0-0.6,0.8-1.2,1.7-1.2h7.9
		c0.9,0,1.7,0.5,1.7,1.2V48z"/>
	<path class="st1" d="M17.3,40.1c0,0.3-0.8,0.6-1.7,0.6H7.8c-0.9,0-1.7-0.3-1.7-0.6v-0.3c0-0.3,0.8-0.6,1.7-0.6h7.9
		c0.9,0,1.7,0.3,1.7,0.6V40.1z"/>
	<path class="st1" d="M18.2,71.9c0,0.7-0.9,1.3-2,1.3H7.1c-1.1,0-2-0.6-2-1.3v-0.7c0-0.7,0.9-1.3,2-1.3h9.1c1.1,0,2,0.6,2,1.3V71.9z
		"/>
	<path class="st1" d="M18.9,93.7c0,0.8-1,1.5-2.2,1.5H6.6c-1.2,0-2.2-0.7-2.2-1.5v-0.7c0-0.8,1-1.5,2.2-1.5h10.1
		c1.2,0,2.2,0.7,2.2,1.5V93.7z"/>
	<path class="st1" d="M29.8,65.6c0,0.5-0.6,0.9-1.3,0.9h-6c-0.7,0-1.3-0.4-1.3-0.9v-0.4c0-0.5,0.6-0.9,1.3-0.9h6
		c0.7,0,1.3,0.4,1.3,0.9V65.6z"/>
	<path class="st1" d="M30.4,83.9c0,0.6-0.7,1-1.5,1h-7c-0.8,0-1.5-0.5-1.5-1v-0.5c0-0.6,0.7-1,1.5-1h7c0.8,0,1.5,0.5,1.5,1V83.9z"/>
	<path class="st1" d="M11.7,39.4H7.8v9.8h3.9h3.9v-9.8H11.7z M10.1,47.5c0,0.6-0.4,1.1-0.8,1.1c-0.4,0-0.8-0.5-0.8-1.1v-5
		c0-0.6,0.4-1.1,0.8-1.1c0.4,0,0.8,0.5,0.8,1.1V47.5z M12.9,47.6c0,0.6-0.5,1.2-1.2,1.2c-0.6,0-1.2-0.5-1.2-1.2v-5.3
		c0-0.6,0.5-1.2,1.2-1.2c0.6,0,1.2,0.5,1.2,1.2V47.6z M14.8,47.5c0,0.6-0.4,1.1-0.8,1.1s-0.8-0.5-0.8-1.1v-5c0-0.6,0.4-1.1,0.8-1.1
		s0.8,0.5,0.8,1.1V47.5z"/>
	<path class="st1" d="M31,100.6c0,0.6-0.8,1.1-1.7,1.1h-7.8c-0.9,0-1.7-0.5-1.7-1.1V100c0-0.6,0.8-1.1,1.7-1.1h7.8
		c0.9,0,1.7,0.5,1.7,1.1V100.6z"/>
	<path class="st1" d="M29.9,58.7c0,0.3-0.6,0.5-1.3,0.5h-6.2c-0.7,0-1.3-0.2-1.3-0.5v-0.2c0-0.2,0.6-0.5,1.3-0.5h6.2
		c0.7,0,1.3,0.2,1.3,0.5V58.7z"/>
	<path class="st1" d="M22.4,58.2v7.7h6.1v-7.7H22.4z M24.2,64.5c0,0.5-0.3,0.8-0.6,0.8c-0.3,0-0.6-0.4-0.6-0.8v-3.9
		c0-0.5,0.3-0.9,0.6-0.9c0.3,0,0.6,0.4,0.6,0.9V64.5z M26.4,64.6c0,0.5-0.4,0.9-0.9,0.9c-0.5,0-0.9-0.4-0.9-0.9v-4.2
		c0-0.5,0.4-0.9,0.9-0.9c0.5,0,0.9,0.4,0.9,0.9V64.6z M27.9,64.5c0,0.5-0.3,0.8-0.6,0.8c-0.3,0-0.6-0.4-0.6-0.8v-3.9
		c0-0.5,0.3-0.9,0.6-0.9c0.4,0,0.6,0.4,0.6,0.9V64.5z"/>
	<path class="st1" d="M92.1,14.1c0,1.1-0.9,2-2.1,2c-1.1,0-2.1-0.9-2.1-2c0-1.1,0.9-2.1,2.1-2.1C91.1,12.1,92.1,13,92.1,14.1z"/>
	<path class="st1" d="M91,11.1c0,0.5-0.4,1-1,1c-0.5,0-1-0.4-1-1c0-0.5,0.4-1,1-1C90.5,10.1,91,10.5,91,11.1z"/>
	<path class="st1" d="M91.4,8c0,0.8-0.7,1.4-1.4,1.4S88.6,8.8,88.6,8c0-0.8,0.6-1.4,1.4-1.4S91.4,7.2,91.4,8z"/>
	<path class="st1" d="M91,4c0,0.5-0.4,1-1,1c-0.5,0-1-0.4-1-1c0-0.5,0.4-1,1-1C90.5,3,91,3.5,91,4z"/>
	<path class="st1" d="M90.3,0.8C90.3-0.1,90,0,90,0s-0.3-0.1-0.3,0.8c0,0.9-0.2,11.4-0.2,11.4H90h0.5C90.5,12.2,90.3,1.7,90.3,0.8z"
		/>
	<path class="st0" d="M51.9,97.9v17.8h14.2V97.9H51.9z M53.5,115.5v-10.1c0,0,0-2.2,2.2-3.5c2.3-1.4,3-1.6,3.2-2.2
		c0.2,0.6,1,0.8,3.2,2.2c2.2,1.3,2.2,3.5,2.2,3.5v10.1H53.5z"/>
	<path class="st1" d="M64.4,99v6.4c0,0,0-2.2-2.2-3.5c-2.3-1.4-3-1.6-3.2-2.2c-0.2,0.6-1,0.8-3.2,2.2c-2.2,1.3-2.2,3.5-2.2,3.5V99
		H64.4z"/>
	<rect x="53.5" y="115.5" class="st1" width="10.9" height="0.3"/>
	<rect x="53.5" y="115.5" class="st1" width="10.9" height="0.3"/>
	<path class="st0" d="M66,77.7v17.8h-1.7V85.1c0,0,0-2.1-2.1-3.5c0,0-0.1,0-0.1-0.1c-0.6-0.3-1-0.6-1.4-0.8
		c-1.2-0.7-1.6-0.9-1.8-1.4c-0.1,0.2-0.3,0.4-0.5,0.6c-0.5,0.3-1.3,0.8-2.7,1.6c0,0-0.1,0-0.1,0.1c-2.1,1.3-2.1,3.5-2.1,3.5v10.4
		h-1.6V77.7H66z"/>
	<path class="st1" d="M64.3,78.7v6.4c0,0,0-2.1-2.1-3.5c0,0-0.1,0-0.1-0.1c-0.6-0.3-1-0.6-1.4-0.8c-1.2-0.7-1.6-0.9-1.8-1.4
		c-0.1,0.2-0.3,0.4-0.5,0.6c-0.5,0.3-1.3,0.8-2.7,1.6c0,0-0.1,0-0.1,0.1c-2.1,1.3-2.1,3.5-2.1,3.5v-6.4H64.3z"/>
	<path class="st0" d="M38.5,98.2l-0.1,17.3v0.3h10.3V97.8L38.5,98.2z M39.6,115.5l0-10c0,0,0,0,0,0c0-0.2,0.1-2.2,1.6-3.5
		c1.6-1.4,2.2-1.7,2.3-2.3c0.2,0.6,0.7,0.8,2.3,2.1c1.4,1.1,1.6,3,1.6,3.4c0,0,0,0.1,0,0.1l0,10.2H39.6z"/>
	<rect x="39.6" y="115.5" class="st1" width="7.9" height="0.3"/>
	<path class="st1" d="M47.5,98.9v6.3c0-0.4-0.2-2.3-1.6-3.4c-1.6-1.3-2.2-1.5-2.3-2.1c-0.2,0.6-0.7,0.9-2.3,2.3
		c-1.5,1.3-1.6,3.3-1.6,3.5l0-6.3L47.5,98.9z"/>
	<rect x="39.6" y="115.5" class="st1" width="7.9" height="0.3"/>
	<path class="st0" d="M48.8,77.7v17.7l-1.3,0V85.1c0,0,0-2.2-1.6-3.4c-1.6-1.2-2.2-1.5-2.3-2c-0.2,0.6-0.7,0.9-2.3,2.3
		c-1.5,1.3-1.6,3.3-1.6,3.5c0,0,0,0,0,0l0,10.2l-1.1,0l0.1-17.4L48.8,77.7z"/>
	<polygon class="st1" points="43.5,95.6 45.5,95.5 41,95.7 	"/>
	<path class="st1" d="M47.5,95.4V85.1c0,0,0-2.2-1.6-3.4c-1.6-1.2-2.2-1.5-2.3-2c-0.2,0.6-0.7,0.9-2.3,2.3c-1.5,1.3-1.6,3.3-1.6,3.5
		l0-6.2l7.8-0.5L47.5,95.4z"/>
	<g>
		<path class="st1" d="M50.4,63.5h-1.2c-0.1,0-0.3,0.1-0.3,0.1v0.1c0,0.1,0.1,0.1,0.3,0.1h0.1V73h1.1v-9.2h0.1c0.1,0,0.3,0,0.3-0.1
			v-0.1C50.7,63.6,50.5,63.5,50.4,63.5z"/>
		<path class="st1" d="M50.4,63.5c0-0.7-0.1-0.5-0.3-0.8c-0.2-0.2-0.3-0.4-0.3-0.4s-0.1-0.5-0.1-0.7c0,0.2-0.1,0.7-0.1,0.7
			s0,0.2-0.3,0.4c-0.2,0.2-0.3,0.1-0.3,0.8h0.6H50.4z"/>
	</g>
	<g>
		<path class="st1" d="M39.5,63.9h-1.2c-0.1,0-0.3,0-0.3,0.1v0.1c0,0.1,0.1,0.1,0.3,0.1h0.1v9.2h1.1v-9.2h0.1c0.1,0,0.3-0.1,0.3-0.1
			V64C39.7,63.9,39.6,63.9,39.5,63.9z"/>
		<path class="st1" d="M39.5,63.9c0-0.7-0.1-0.5-0.3-0.8c-0.2-0.2-0.3-0.4-0.3-0.4s0-0.5-0.1-0.7c0,0.2-0.1,0.7-0.1,0.7
			s0,0.2-0.3,0.4c-0.2,0.2-0.3,0.1-0.3,0.8h0.6H39.5z"/>
	</g>
	<g>
		<path class="st1" d="M42.6,63.9h-1.2c-0.2,0-0.3,0-0.3,0.1v0.1c0,0.1,0.1,0.1,0.3,0.1h0.1v9.2h1.1v-9.2h0.1c0.1,0,0.3,0,0.3-0.1
			v-0.1C42.8,64,42.7,63.9,42.6,63.9z"/>
		<path class="st1" d="M42.6,63.9c0-0.7-0.1-0.5-0.3-0.8C42.1,63,42,62.8,42,62.8s0-0.5-0.1-0.7c0,0.2-0.1,0.7-0.1,0.7
			s0,0.2-0.3,0.4c-0.2,0.2-0.3,0.1-0.3,0.8h0.6H42.6z"/>
	</g>
	<g>
		<path class="st1" d="M38,63.7h-1.2c-0.1,0-0.3,0-0.3,0.1v0.1c0,0.1,0.1,0.1,0.3,0.1h0.1v9.2h1.1V64H38c0.1,0,0.3,0,0.3-0.1v-0.1
			C38.2,63.7,38.1,63.7,38,63.7z"/>
		<path class="st1" d="M38,63.7c0-0.7-0.1-0.5-0.3-0.8c-0.2-0.2-0.3-0.4-0.3-0.4s0-0.5-0.1-0.7c0,0.2-0.1,0.7-0.1,0.7
			s-0.1,0.2-0.3,0.4c-0.2,0.2-0.3,0.1-0.3,0.8h0.6H38z"/>
	</g>
	<polygon class="st1" points="164,47.7 168.3,47.7 172.7,47.7 174.8,115.5 168.3,115.5 161.8,115.5 	"/>
	<polygon class="st1" points="151.4,66 154.6,66 157.7,66 159.3,115.5 154.6,115.5 149.8,115.5 	"/>
	<path class="st1" d="M162.7,48c0,0.6,0.8,1.2,1.7,1.2h7.9c0.9,0,1.7-0.5,1.7-1.2v-0.6c0-0.6-0.8-1.2-1.7-1.2h-7.9
		c-0.9,0-1.7,0.5-1.7,1.2V48z"/>
	<path class="st1" d="M162.7,40.1c0,0.3,0.8,0.6,1.7,0.6h7.9c0.9,0,1.7-0.3,1.7-0.6v-0.3c0-0.3-0.8-0.6-1.7-0.6h-7.9
		c-0.9,0-1.7,0.3-1.7,0.6V40.1z"/>
	<path class="st1" d="M161.8,71.9c0,0.7,0.9,1.3,2,1.3h9.1c1.1,0,2-0.6,2-1.3v-0.7c0-0.7-0.9-1.3-2-1.3h-9.1c-1.1,0-2,0.6-2,1.3
		V71.9z"/>
	<path class="st1" d="M161.1,93.7c0,0.8,1,1.5,2.2,1.5h10.1c1.2,0,2.2-0.7,2.2-1.5v-0.7c0-0.8-1-1.5-2.2-1.5h-10.1
		c-1.2,0-2.2,0.7-2.2,1.5V93.7z"/>
	<path class="st1" d="M150.2,65.6c0,0.5,0.6,0.9,1.3,0.9h6c0.7,0,1.3-0.4,1.3-0.9v-0.4c0-0.5-0.6-0.9-1.3-0.9h-6
		c-0.7,0-1.3,0.4-1.3,0.9V65.6z"/>
	<path class="st1" d="M149.6,83.9c0,0.6,0.7,1,1.5,1h7c0.8,0,1.5-0.5,1.5-1v-0.5c0-0.6-0.7-1-1.5-1h-7c-0.8,0-1.5,0.5-1.5,1V83.9z"
		/>
	<path class="st1" d="M164.4,39.4v9.8h3.9h3.9v-9.8h-3.9H164.4z M169.9,42.5c0-0.6,0.4-1.1,0.8-1.1c0.4,0,0.8,0.5,0.8,1.1v5
		c0,0.6-0.4,1.1-0.8,1.1c-0.4,0-0.8-0.5-0.8-1.1V42.5z M167.1,42.3c0-0.6,0.5-1.2,1.2-1.2c0.6,0,1.2,0.5,1.2,1.2v5.3
		c0,0.6-0.5,1.2-1.2,1.2c-0.6,0-1.2-0.5-1.2-1.2V42.3z M165.2,42.5c0-0.6,0.4-1.1,0.8-1.1c0.4,0,0.8,0.5,0.8,1.1v5
		c0,0.6-0.4,1.1-0.8,1.1c-0.4,0-0.8-0.5-0.8-1.1V42.5z"/>
	<path class="st1" d="M149,100.6c0,0.6,0.8,1.1,1.7,1.1h7.7c0.9,0,1.7-0.5,1.7-1.1V100c0-0.6-0.8-1.1-1.7-1.1h-7.7
		c-0.9,0-1.7,0.5-1.7,1.1V100.6z"/>
	<path class="st1" d="M150.1,58.7c0,0.3,0.6,0.5,1.3,0.5h6.2c0.7,0,1.3-0.2,1.3-0.5v-0.2c0-0.2-0.6-0.5-1.3-0.5h-6.2
		c-0.7,0-1.3,0.2-1.3,0.5V58.7z"/>
	<path class="st1" d="M151.5,58.2v7.7h6.1v-7.7H151.5z M153.3,64.5c0,0.5-0.3,0.8-0.6,0.8c-0.3,0-0.6-0.4-0.6-0.8v-3.9
		c0-0.5,0.3-0.9,0.6-0.9c0.3,0,0.6,0.4,0.6,0.9V64.5z M155.5,64.6c0,0.5-0.4,0.9-0.9,0.9c-0.5,0-0.9-0.4-0.9-0.9v-4.2
		c0-0.5,0.4-0.9,0.9-0.9c0.5,0,0.9,0.4,0.9,0.9V64.6z M157,64.5c0,0.5-0.3,0.8-0.6,0.8c-0.3,0-0.6-0.4-0.6-0.8v-3.9
		c0-0.5,0.3-0.9,0.6-0.9c0.3,0,0.6,0.4,0.6,0.9V64.5z"/>
	<path class="st0" d="M13.7,35.4c-1.2-1.1-1.5-2.2-1.5-2.2s-0.3-2.5-0.4-3.7c-0.1,1.2-0.4,3.7-0.4,3.7s-0.3,1.1-1.5,2.2
		c-1.3,1.1-2,0.5-2,3.8h3.9h3.9C15.6,36,15,36.6,13.7,35.4z"/>
	<path class="st0" d="M27,55c-1-0.9-1.2-1.7-1.2-1.7s-0.2-1.9-0.3-2.9c-0.1,0.9-0.3,2.9-0.3,2.9s-0.2,0.9-1.2,1.7
		c-1,0.9-1.5,0.4-1.5,3h3.1h3.1C28.5,55.5,28,55.9,27,55z"/>
	<path class="st0" d="M170.3,35.4c-1.2-1.1-1.5-2.2-1.5-2.2s-0.3-2.5-0.4-3.7c-0.1,1.2-0.4,3.7-0.4,3.7s-0.3,1.1-1.5,2.2
		c-1.3,1.1-2,0.5-2,3.8h3.9h3.9C172.2,36,171.6,36.6,170.3,35.4z"/>
	<path class="st0" d="M156.1,55c-1-0.9-1.2-1.7-1.2-1.7s-0.2-1.9-0.3-2.9c-0.1,0.9-0.3,2.9-0.3,2.9S154,54.2,153,55
		c-1,0.9-1.5,0.4-1.5,3h3.1h3.1C157.7,55.5,157.1,55.9,156.1,55z"/>
	<path class="st1" d="M142.1,73l-0.4,0l-1.1-0.1l-2-0.2l-1.1-0.1l-6.7-0.6h-2.9V61.2h0c0.2-0.6,0.5-2.3-0.2-4
		c-0.9-2.2-3-3.4-7.1-6.7h-0.6h-0.6c-4.1,3.4-6.2,4.5-7.1,6.7c-0.1,0.1-0.1,0.3-0.1,0.4v-0.9c0,0,5.4-8.1,2.7-16.7
		c-2.8-8.6-9.5-12.9-22.7-25.9H90h-2.1C74.8,27.2,68,31.5,65.3,40.1c-2.8,8.6,2.7,16.7,2.7,16.7v0.9c0-0.1-0.1-0.3-0.1-0.4
		c-0.9-2.2-3-3.4-7.1-6.7h-0.6h-0.6c-4.1,3.4-6.2,4.5-7.1,6.7c-0.7,1.7-0.4,3.4-0.2,4h0v10.7h-2.9l-6.7,0.6l-1.1,0.1l-2,0.2
		l-1.1,0.1l-0.4,0l-1.1,0.1v42.4h2.8l0-10c0,0,0,0,0,0c0-0.2,0.1-2.2,1.6-3.5c1.6-1.4,2.2-1.7,2.3-2.3c0.2,0.6,0.7,0.8,2.3,2.1
		c1.4,1.1,1.6,3,1.6,3.4c0,0,0,0.1,0,0.1l0,10.2h1.7h4.3v-10.1c0,0,0-2.2,2.2-3.5c2.3-1.4,3-1.6,3.2-2.2c0.2,0.6,1,0.8,3.2,2.2
		c2.2,1.3,2.2,3.5,2.2,3.5v10.1h3.5h8.9V90.4c0,0,0-5.3,5.4-8.5c5.5-3.3,7.2-3.9,7.8-5.3c0.6,1.5,2.3,2.1,7.8,5.3
		c5.4,3.2,5.4,8.5,5.4,8.5v25.1h8.9h3.5v-10.1c0,0,0-2.2,2.2-3.5c2.3-1.4,3-1.6,3.2-2.2c0.2,0.6,1,0.8,3.2,2.2
		c2.2,1.3,2.2,3.5,2.2,3.5v10.1h4.3h1.7l0-10.2c0,0,0,0,0-0.1c0-0.4,0.2-2.3,1.6-3.4c1.6-1.3,2.2-1.5,2.3-2.1
		c0.2,0.6,0.7,0.9,2.3,2.3c1.5,1.3,1.6,3.3,1.6,3.5c0,0,0,0,0,0l0,10h2.8V73.1L142.1,73z M47.5,95.4l-2,0.1L41,95.7l-1.3,0l0-10.2
		c0,0,0,0,0,0c0-0.2,0.1-2.2,1.6-3.5c1.6-1.4,2.1-1.7,2.3-2.3c0.2,0.6,0.7,0.8,2.3,2c1.6,1.2,1.6,3.4,1.6,3.4V95.4z M117.4,71.9
		v-4.6c0-1.4,1.1-2.4,2.4-2.4c1.3,0,2.4,1.1,2.4,2.4v4.6H117.4z M116.6,71.9h-3.3v-4.3c0-1.3,0.7-2.3,1.6-2.3c0.9,0,1.6,1,1.6,2.3
		V71.9z M123.1,71.9v-4.3c0-1.3,0.7-2.3,1.6-2.3s1.6,1,1.6,2.3v4.3H123.1z M57.7,71.9v-4.6c0-1.4,1.1-2.4,2.4-2.4
		c1.3,0,2.4,1.1,2.4,2.4v4.6H57.7z M63.4,71.9v-4.3c0-1.3,0.7-2.3,1.6-2.3c0.9,0,1.7,1,1.7,2.3v4.3H63.4z M53.6,67.6
		c0-1.3,0.7-2.3,1.6-2.3s1.6,1,1.6,2.3v4.3h-3.3V67.6z M64.3,95.5H53.4V85.1c0,0,0-2.1,2.1-3.5c0,0,0.1,0,0.1-0.1
		c1.4-0.8,2.2-1.3,2.7-1.6c0.3-0.2,0.5-0.4,0.5-0.6c0.2,0.5,0.6,0.7,1.8,1.4c0.4,0.2,0.8,0.5,1.4,0.8c0,0,0.1,0,0.1,0.1
		c2.1,1.3,2.1,3.5,2.1,3.5V95.5z M68.2,64.3L68.2,64.3l21.8,0h21.8v0H68.2z M126.6,95.5h-10.9V85.1c0,0,0-2.1,2.1-3.5
		c0,0,0.1,0,0.1-0.1c0.6-0.3,1-0.6,1.4-0.8c1.2-0.7,1.6-0.9,1.8-1.4c0.1,0.2,0.3,0.4,0.5,0.6c0.5,0.3,1.3,0.8,2.7,1.6
		c0,0,0.1,0,0.1,0.1c2.1,1.3,2.1,3.5,2.1,3.5V95.5z M139,95.7l-4.6-0.2l-2-0.1V85.1c0,0,0-2.2,1.6-3.4c1.6-1.2,2.2-1.5,2.3-2
		c0.2,0.6,0.7,0.9,2.3,2.3c1.5,1.3,1.6,3.3,1.6,3.5c0,0,0,0,0,0l0,10.2L139,95.7z"/>
	<path class="st0" d="M113.9,97.9v17.8h14.2V97.9H113.9z M115.6,115.5v-10.1c0,0,0-2.2,2.2-3.5c2.3-1.4,3-1.6,3.2-2.2
		c0.2,0.6,1,0.8,3.2,2.2c2.2,1.3,2.2,3.5,2.2,3.5v10.1H115.6z"/>
	<path class="st1" d="M126.5,99v6.4c0,0,0-2.2-2.2-3.5c-2.3-1.4-3-1.6-3.2-2.2c-0.2,0.6-1,0.8-3.2,2.2c-2.2,1.3-2.2,3.5-2.2,3.5V99
		H126.5z"/>
	<rect x="115.6" y="115.5" class="st1" width="10.9" height="0.3"/>
	<rect x="115.6" y="115.5" class="st1" width="10.9" height="0.3"/>
	<path class="st0" d="M128.1,77.7v17.8h-1.6V85.1c0,0,0-2.1-2.1-3.5c0,0-0.1,0-0.1-0.1c-1.4-0.8-2.2-1.3-2.7-1.6
		c-0.3-0.2-0.5-0.4-0.5-0.6c-0.2,0.5-0.6,0.7-1.8,1.4c-0.4,0.2-0.8,0.5-1.4,0.8c0,0-0.1,0-0.1,0.1c-2.1,1.3-2.1,3.5-2.1,3.5v10.4
		H114V77.7H128.1z"/>
	<path class="st1" d="M126.6,78.7v6.4c0,0,0-2.1-2.1-3.5c0,0-0.1,0-0.1-0.1c-1.4-0.8-2.2-1.3-2.7-1.6c-0.3-0.2-0.5-0.4-0.5-0.6
		c-0.2,0.5-0.6,0.7-1.8,1.4c-0.4,0.2-0.8,0.5-1.4,0.8c0,0-0.1,0-0.1,0.1c-2.1,1.3-2.1,3.5-2.1,3.5v-6.4H126.6z"/>
	<path class="st0" d="M141.5,98.2l-10.3-0.3v17.9h10.3v-0.3L141.5,98.2z M132.5,115.5l0-10.2c0,0,0,0,0-0.1c0-0.4,0.2-2.3,1.6-3.4
		c1.6-1.3,2.2-1.5,2.3-2.1c0.2,0.6,0.7,0.9,2.3,2.3c1.5,1.3,1.6,3.3,1.6,3.5c0,0,0,0,0,0l0,10H132.5z"/>
	<path class="st1" d="M132.4,105.2v-6.3l7.9,0.2l0,6.3c0-0.2-0.1-2.2-1.6-3.5c-1.6-1.4-2.2-1.7-2.3-2.3c-0.2,0.6-0.7,0.8-2.3,2.1
		C132.6,103,132.5,104.8,132.4,105.2z"/>
	<rect x="132.5" y="115.5" class="st1" width="7.9" height="0.3"/>
	<rect x="132.5" y="115.5" class="st1" width="7.9" height="0.3"/>
	<path class="st0" d="M141.5,95.7l-1.1,0l0-10.2c0,0,0,0,0,0c0-0.2-0.1-2.2-1.6-3.5c-1.6-1.4-2.1-1.7-2.3-2.3
		c-0.2,0.6-0.7,0.8-2.3,2c-1.6,1.2-1.6,3.4-1.6,3.4v10.3l-1.3,0V77.7l10.2,0.7L141.5,95.7z"/>
	<polygon class="st1" points="136.5,95.6 139,95.7 134.4,95.5 	"/>
	<path class="st1" d="M134.1,81.7c-1.6,1.2-1.6,3.4-1.6,3.4v10.3l0-16.6l7.8,0.5l0,6.2c0-0.2-0.1-2.2-1.6-3.5
		c-1.6-1.4-2.1-1.7-2.3-2.3C136.3,80.3,135.7,80.5,134.1,81.7z"/>
	<rect x="0" y="115.5" class="st0" width="180" height="13.9"/>
	<g>
		<path class="st1" d="M130.8,63.5h-1.2c-0.1,0-0.3,0.1-0.3,0.1v0.1c0,0.1,0.1,0.1,0.3,0.1h0.1V73h1.1v-9.2h0.1c0.1,0,0.3,0,0.3-0.1
			v-0.1C131.1,63.6,131,63.5,130.8,63.5z"/>
		<path class="st1" d="M130.9,63.5c0-0.7-0.1-0.5-0.3-0.8c-0.2-0.2-0.3-0.4-0.3-0.4s0-0.5-0.1-0.7c0,0.2-0.1,0.7-0.1,0.7
			s0,0.2-0.3,0.4c-0.2,0.2-0.3,0.1-0.3,0.8h0.6H130.9z"/>
	</g>
	<g>
		<path class="st1" d="M141.8,63.9h-1.2c-0.1,0-0.3,0-0.3,0.1v0.1c0,0.1,0.1,0.1,0.3,0.1h0.1v9.2h1.1v-9.2h0.1
			c0.1,0,0.3-0.1,0.3-0.1v-0.1C142,64,141.9,63.9,141.8,63.9z"/>
		<path class="st1" d="M141.8,63.9c0-0.7-0.1-0.5-0.3-0.8c-0.2-0.2-0.3-0.4-0.3-0.4s-0.1-0.5-0.1-0.7c0,0.2-0.1,0.7-0.1,0.7
			s0,0.2-0.3,0.4c-0.2,0.2-0.3,0.1-0.3,0.8h0.7H141.8z"/>
	</g>
	<g>
		<path class="st1" d="M138.7,64.5h-1.2c-0.2,0-0.3,0-0.3,0.1v0.1c0,0.1,0.1,0.1,0.3,0.1h0.1V74h1.1v-9.2h0.1c0.1,0,0.3,0,0.3-0.1
			v-0.1C139,64.6,138.8,64.5,138.7,64.5z"/>
		<path class="st1" d="M138.7,64.5c0-0.7-0.1-0.5-0.3-0.8c-0.2-0.2-0.3-0.4-0.3-0.4s0-0.5-0.1-0.7c0,0.2-0.1,0.7-0.1,0.7
			s0,0.2-0.3,0.4c-0.2,0.2-0.3,0.1-0.3,0.8h0.6H138.7z"/>
	</g>
	<g>
		<path class="st1" d="M143.3,63.7H142c-0.1,0-0.3,0-0.3,0.1v0.1c0,0.1,0.1,0.1,0.3,0.1h0.1v9.2h1.1V64h0.1c0.1,0,0.3,0,0.3-0.1
			v-0.1C143.5,63.7,143.4,63.7,143.3,63.7z"/>
		<path class="st1" d="M143.3,63.7c0-0.7-0.1-0.5-0.3-0.8c-0.2-0.2-0.3-0.4-0.3-0.4s0-0.5-0.1-0.7c0,0.2-0.1,0.7-0.1,0.7
			s0,0.2-0.3,0.4c-0.2,0.2-0.3,0.1-0.3,0.8h0.6H143.3z"/>
	</g>
	<path class="st0" d="M114.7,40.1c-2.8-8.6-9.5-12.9-22.7-25.9H90h-2.1C74.8,27.2,68,31.5,65.3,40.1c-2.8,8.6,2.7,16.7,2.7,16.7
		h44.2C112.1,56.7,117.5,48.6,114.7,40.1z"/>
</g>
</svg>
