<?xml version="1.0" encoding="utf-8"?>
<!-- Generator: Adobe Illustrator 25.2.1, SVG Export Plug-In . SVG Version: 6.00 Build 0)  -->
<svg version="1.1" id="Layer_1" xmlns="http://www.w3.org/2000/svg" xmlns:xlink="http://www.w3.org/1999/xlink" x="0px" y="0px"
	 viewBox="0 0 180 169.5" style="enable-background:new 0 0 180 169.5;" xml:space="preserve">
<style type="text/css">
	.st0{fill:#8C989F;}
	.st1{fill:#BAC9D1;}
	.st2{fill:#FFFFFF;}
	.st3{fill:#6B747A;}
</style>
<g>
	<g>
		<path class="st0" d="M12.5,169.5h42.3v-52.7c-32.8,0.7-31.3-3.3-31.3-3.3c5.7-10.4,31.3-14.7,31.3-14.7l2.8-19
			c-15.2,7.6-45.1,27.5-45.1,27.5V169.5z"/>
	</g>
	<g>
		<path class="st0" d="M134.5,94L134.5,94c-0.2,1.7-0.6,3.9-1.3,6.6c-1.1,4.5-2.7,10.1-4.5,16.3v0c-0.8,2.5-1.6,5.1-2.4,7.8
			c-0.2,0.7-0.5,1.5-0.7,2.2c-0.1,0.4-0.3,0.9-0.4,1.3c-0.2,0.7-0.5,1.5-0.7,2.3c-0.1,0.5-0.3,0.9-0.4,1.4c-0.4,1.3-0.8,2.5-1.2,3.8
			c-0.1,0.5-0.3,0.9-0.4,1.4c-0.2,0.7-0.4,1.4-0.7,2.1c-0.1,0.4-0.3,0.9-0.4,1.4c-1.7,5.2-3.4,10.1-4.8,14.4
			c-0.2,0.5-0.3,0.9-0.5,1.4c-0.4,1.2-0.8,2.4-1.2,3.5c-0.3,0.8-0.5,1.5-0.8,2.3c-0.3,0.9-0.6,1.7-0.9,2.4c-0.2,0.5-0.3,0.9-0.5,1.4
			c-0.8,2.4-1.3,3.8-1.3,3.8H69c0,0-0.5-1.4-1.3-3.8c-0.1-0.4-0.3-0.9-0.5-1.4c-0.3-0.7-0.5-1.6-0.8-2.4c-0.2-0.7-0.5-1.5-0.8-2.3
			c-0.4-1.1-0.8-2.3-1.2-3.5c-0.1-0.4-0.3-0.9-0.4-1.4c-1.4-4.3-3.1-9.2-4.8-14.4c-0.1-0.4-0.3-0.9-0.4-1.4
			c-0.2-0.7-0.4-1.4-0.7-2.1c-0.1-0.5-0.3-0.9-0.4-1.4c-0.4-1.3-0.8-2.5-1.2-3.8c-0.1-0.5-0.3-0.9-0.4-1.4c-0.4-1.2-0.7-2.4-1.1-3.5
			c-0.1-0.1-0.1-0.3-0.1-0.4c-0.2-0.6-0.4-1.2-0.6-1.8c-0.8-2.6-1.6-5.3-2.4-7.8c-1.8-6.2-3.4-11.9-4.5-16.5
			c-0.7-3.1-1.2-5.6-1.4-7.4c-0.1-1.3-0.1-2.2,0-2.7c0,0,0,0,0,0c0.7-1.9,4.9-5.6,10.5-9.8h0c0.6-0.5,1.3-1,1.9-1.5
			c1-0.7,2-1.5,3-2.2c1.2-0.9,2.5-1.8,3.7-2.7c0.6-0.4,1.3-0.9,1.9-1.4c0.6-0.4,1.3-0.9,1.9-1.3c0.7-0.5,1.4-1,2-1.4
			c0.7-0.5,1.3-0.9,2-1.4c6.4-4.4,12.2-8.2,14.9-10c1.1-0.7,1.7-1.1,1.7-1.1s0.6,0.4,1.7,1.1c2.7,1.8,8.5,5.6,14.9,10
			c0.7,0.4,1.3,0.9,2,1.4c1.1,0.8,2.3,1.6,3.4,2.4c0.2,0.1,0.4,0.2,0.5,0.4c0.6,0.4,1.3,0.9,1.9,1.4c1.3,0.9,2.5,1.8,3.7,2.7
			c1,0.7,2.1,1.5,3.1,2.2c1.3,0.9,2.5,1.9,3.7,2.8c5.4,4.1,9.4,7.7,10.1,9.4c0,0,0,0,0,0C134.7,91.7,134.7,92.7,134.5,94z"/>
	</g>
	<g>
		<path class="st1" d="M7.7,68.5c0,0-6.4,5.2-7.3,40.4c-0.9,35.2,0,60.6,0,60.6h7.3h7.3c0,0,0.9-25.4,0-60.6
			C14.2,73.7,7.7,68.5,7.7,68.5z"/>
	</g>
	<g>
		<polygon class="st1" points="6.7,60.3 6.7,71.3 7.7,71.3 8.8,71.3 8.8,60.3 7.7,60.3 		"/>
	</g>
	<g>
		<polygon class="st1" points="3.5,65.8 3.5,66.8 12,66.8 12,65.8 12,64.7 3.5,64.7 		"/>
	</g>
	<g>
		<path class="st0" d="M125.2,98.8c0,0,25.6,4.3,31.3,14.7c0,0,1.4,4-31.3,3.3v52.7h42.3v-62.2c0,0-27.9-18.3-43.1-25.9L125.2,98.8z
			"/>
	</g>
	<g>
		<path class="st1" d="M172.2,68.5c0,0-6.4,5.2-7.3,40.4c-0.9,35.2,0,60.6,0,60.6h7.3h7.3c0,0,0.9-25.4,0-60.6
			C178.7,73.7,172.2,68.5,172.2,68.5z"/>
	</g>
	<g>
		<rect x="15.4" y="124.6" class="st1" width="149.2" height="2.3"/>
	</g>
	<g>
		<rect x="51.1" y="76.7" class="st1" width="80.5" height="2.3"/>
	</g>
	<g>
		<rect x="15.4" y="130.4" class="st1" width="149.2" height="1.4"/>
	</g>
	<g>
		<rect x="15.4" y="135.6" class="st1" width="149.2" height="1.4"/>
	</g>
	<g>
		<rect x="15.4" y="139" class="st1" width="149.2" height="1.4"/>
	</g>
	<g>
		<rect x="15.4" y="164.4" class="st1" width="149.2" height="1.4"/>
	</g>
	<g>
		<rect x="57.6" y="72.6" class="st1" width="60.1" height="1.4"/>
	</g>
	<g>
		<path class="st1" d="M68.8,68.5c0,0.4,0,0.9,0.1,1.4H57.6v-1.4H68.8z"/>
		<path class="st1" d="M106,68.5c0.7,0.4,1.3,0.9,2,1.4H70.9c0.7-0.5,1.3-0.9,2-1.4H106z"/>
		<path class="st1" d="M117.7,68.5v1.4h-6.2c0-0.5,0-0.9,0.1-1.4H117.7z"/>
	</g>
	<g>
		<rect x="15.4" y="159.7" class="st1" width="149.2" height="2.3"/>
	</g>
	<g>
		<rect x="15.4" y="154.8" class="st1" width="149.2" height="1.4"/>
	</g>
	<g>
		<polygon class="st1" points="171.2,60.3 171.2,71.3 172.2,71.3 173.3,71.3 173.3,60.3 172.2,60.3 		"/>
	</g>
	<g>
		<polygon class="st1" points="168,65.8 168,66.8 176.5,66.8 176.5,65.8 176.5,64.7 168,64.7 		"/>
	</g>
	<g>
		<polygon class="st1" points="121.1,0 121.1,17.1 122.7,17.1 124.4,17.1 124.4,0 122.7,0 		"/>
	</g>
	<g>
		<polygon class="st1" points="116.2,8.5 116.2,10.2 129.3,10.2 129.3,8.5 129.3,6.9 116.2,6.9 		"/>
	</g>
	<g>
		<polygon class="st0" points="87.8,42.4 87.8,59.5 89.4,59.5 91.1,59.5 91.1,42.4 89.4,42.4 		"/>
	</g>
	<g>
		<polygon class="st0" points="82.9,50.9 82.9,52.6 96,52.6 96,50.9 96,49.3 82.9,49.3 		"/>
	</g>
	<g>
		<path class="st1" d="M134.8,124.7c0,0.8,0,1.5,0,2.2c0,1.2,0,2.4,0,3.5c0,0.5,0,0.9,0,1.4c0,1.3,0,2.6,0,3.8v1.4
			c0,0.7,0,1.4,0,2.1c0,0.5,0,0.9,0,1.4c0,5.5-0.1,10.3-0.2,14.4c0,0.5,0,0.9,0,1.4c0,1.3-0.1,2.5-0.1,3.5c0,0.8,0,1.6-0.1,2.3
			c0,0.9,0,1.7-0.1,2.4c0,0.5,0,0.9,0,1.4c-0.1,2.5-0.1,3.8-0.1,3.8h-22.8c0,0,0-1.3-0.1-3.8c0-0.4,0-0.9,0-1.4c0-0.7,0-1.5-0.1-2.4
			c0-0.7,0-1.5-0.1-2.3c0-1.1,0-2.3-0.1-3.5c0-0.4,0-0.9,0-1.4c-0.1-4.1-0.1-8.9-0.2-14.4c0-0.4,0-0.9,0-1.4c0-0.7,0-1.4,0-2.1
			c0-0.4,0-0.9,0-1.4c0-1.2,0-2.5,0-3.8v-1.4c0-1.2,0-2.3,0-3.5v-2.2c0-13.2,0.1-28.7,0.5-45.7c0-0.7,0-1.5,0.1-2.2
			c0-0.4,0-0.8,0-1.2c0-0.5,0-1,0-1.5c0-0.5,0-0.9,0-1.4c0-0.1,0-0.3,0-0.4c0-0.8,0.1-1.6,0.1-2.4c0-0.5,0-0.9,0.1-1.4
			c1.5-35.3,6.7-48.8,9.5-53.4c1-1.7,1.7-2.3,1.7-2.3s0.7,0.5,1.7,2.3c2.9,5,8.7,19.9,9.7,60.4c0.1,3.9,0.2,7.6,0.3,11.3
			c0,1.5,0.1,2.9,0.1,4.3c0,0,0,0,0,0c0,0.9,0,1.9,0,2.8v0c0,2.3,0.1,4.6,0.1,6.9c0.1,5.6,0.1,10.9,0.1,16
			C134.8,119.6,134.8,122.1,134.8,124.7z"/>
	</g>
	<g>
		<path class="st1" d="M69.6,124.7c0,0.8,0,1.5,0,2.2c0,1.2,0,2.4,0,3.5c0,0.5,0,0.9,0,1.4c0,1.3,0,2.6,0,3.8v1.4c0,0.7,0,1.4,0,2.1
			c0,0.5,0,0.9,0,1.4c0,5.5-0.1,10.3-0.2,14.4c0,0.5,0,0.9,0,1.4c0,1.3-0.1,2.5-0.1,3.5c0,0.8,0,1.6-0.1,2.3c0,0.9,0,1.7-0.1,2.4
			c0,0.5,0,0.9,0,1.4c-0.1,2.5-0.1,3.8-0.1,3.8H46.2c0,0,0-1.3-0.1-3.8c0-0.4,0-0.9,0-1.4c0-0.7,0-1.5-0.1-2.4c0-0.7,0-1.5-0.1-2.3
			c0-1.1-0.1-2.3-0.1-3.5c0-0.4,0-0.9,0-1.4c-0.1-4.1-0.1-8.9-0.2-14.4c0-0.4,0-0.9,0-1.4c0-0.7,0-1.4,0-2.1c0-0.4,0-0.9,0-1.4
			c0-1.2,0-2.5,0-3.8v-1.4c0-1.2,0-2.3,0-3.5v-2.2c0-2.5,0-5.1,0-7.8c0-5.1,0.1-10.4,0.1-16.1c0-2.6,0.1-5.2,0.1-7.8
			c0-0.9,0-1.8,0-2.7c0-1.3,0.1-2.7,0.1-4c0.1-3.5,0.1-7.1,0.2-10.7C47.3,34.9,53,20,55.9,15.1c1-1.7,1.7-2.3,1.7-2.3
			s0.7,0.5,1.7,2.3c2.7,4.7,8,18.1,9.5,53.4c0,0.4,0,0.9,0.1,1.4c0,0.5,0,0.9,0.1,1.4c0,0.4,0,0.9,0,1.3c0,0.4,0,0.9,0,1.4
			c0,0.5,0,1,0,1.5c0,0.4,0,0.8,0,1.2c0,0.8,0,1.5,0.1,2.2C69.5,96,69.6,111.5,69.6,124.7z"/>
	</g>
	<g>
		<polygon class="st1" points="55.9,0 55.9,17.1 57.6,17.1 59.3,17.1 59.3,0 57.6,0 		"/>
	</g>
	<g>
		<polygon class="st1" points="51.1,8.5 51.1,10.2 64.1,10.2 64.1,8.5 64.1,6.9 51.1,6.9 		"/>
	</g>
</g>
</svg>
