<?xml version="1.0" encoding="utf-8"?>
<!-- Generator: Adobe Illustrator 25.2.1, SVG Export Plug-In . SVG Version: 6.00 Build 0)  -->
<svg version="1.1" id="Layer_1" xmlns="http://www.w3.org/2000/svg" xmlns:xlink="http://www.w3.org/1999/xlink" x="0px" y="0px"
	 viewBox="0 0 180 495.4" style="enable-background:new 0 0 180 495.4;" xml:space="preserve">
<style type="text/css">
	.st0{fill:#8C989F;}
	.st1{fill:#BAC9D1;}
	.st2{fill:#FFFFFF;}
	.st3{fill:#6B747A;}
</style>
<g>
	<g>
		<polygon class="st1" points="37.5,487.7 0,487.7 4.6,483.5 35.5,483.5 		"/>
		<rect y="487.7" class="st0" width="37.5" height="7.7"/>
	</g>
	<g>
		<polygon class="st1" points="180,487.7 142.5,487.7 147.2,483.5 178,483.5 		"/>
		<rect x="142.5" y="487.7" class="st0" width="37.5" height="7.7"/>
	</g>
	<g>
		<path class="st0" d="M142.7,405.5l-0.1-0.3l-1.9-4.5l-0.4-0.9l-0.4-1c-0.1-0.2-0.2-0.4-0.3-0.7c-10-24-18.7-45.3-21.3-53.1l2.1-1
			l3.5-1.6v-2.1h-1.5v0.1h-1.1v-0.1h-1.5v0.1h-1.4v-0.1H117v0.1h-1.4v-0.1h-1.5v0.1h-1.4v-0.1h-1.5v0.1h-1.4v-0.1h-1.5v0.1h-1.3
			v-0.1h-1.5v0.1h-1.3v-0.1h-1.5v0.1h-1.4v-0.1h-1.5v0.1h-1.4v-0.1H97v0.1h-1.4v-0.1h-1.5v0.1h-1.4v-0.1h-1.5v0.1h-1.4v-0.1h-1.5
			v0.1h-1.3v-0.1h-1.5v0.1h-1.3v-0.1h-1.5v0.1h-1.4v-0.1h-1.5v0.1h-1.4v-0.1H77v0.1h-1.4v-0.1h-1.5v0.1h-1.4v-0.1h-1.5v0.1h-1.4
			v-0.1h-1.5v0.1h-1.4v-0.1h-1.5v0.1h-1.4v-0.1h-1.5v0.1h-1.3v-0.1h-1.5v0.1H59v-0.1h-1.5v2.1L61,344l2.1,1
			c-2.6,7.8-11.2,29.1-21.3,53.1c-0.1,0.2-0.2,0.4-0.3,0.7l-0.4,1l-0.1,0.2l-1.9,4.5l-0.4,1l-1.4,3.3h106.8L142.7,405.5z M84.4,344
			c0.2-0.7,0.4-1.2,0.5-1.6h11.8c0.1,0.4,0.3,0.9,0.5,1.6c2.2,6.9,9.2,28.9,17.8,54.1c0.1,0.2,0.1,0.4,0.2,0.7H66.3
			c0.1-0.2,0.1-0.4,0.2-0.7C75.2,373,82.1,351,84.4,344z M114.5,333.2c-0.1-0.1-0.1-0.2-0.2-0.4c-0.2-0.5-0.4-1-0.6-1.6
			c-0.2-0.6-0.4-1.3-0.6-2.1c-0.1-0.4-0.2-0.9-0.3-1.3c-0.1-0.3-0.1-0.7-0.2-1c-8.3-38.4-13.8-197.9-15.5-250.4
			c-0.1-3.4,1.7-6.5,4.7-8.1l7.3-3.8H72.3l7.3,3.8c3,1.5,4.9,4.7,4.7,8.1c-1.6,52.5-7.1,212-15.5,250.4c-0.1,0.3-0.1,0.7-0.2,1
			c-0.3,1.3-0.6,2.5-0.9,3.5c-0.1,0.3-0.1,0.5-0.2,0.7c-0.1,0.5-0.3,0.9-0.5,1.2H114.5z M90.8,262.3c0.3,13.7,3.9,53.9,4.8,64.4
			c0,0.4,0.1,0.7,0.1,1c0.1,1,0.1,1.5,0.1,1.5H85.7c0,0,0.1-0.5,0.1-1.5c0-0.3,0.1-0.6,0.1-1C86.8,316.2,90.4,276,90.8,262.3z
			 M176,483.6c-5-11.4-14.4-33.4-24.3-56.7c-0.9-2-1.7-4-2.6-6H32.3c-0.9,2-1.7,4-2.6,6c-9.9,23.3-19.3,45.2-24.2,56.7
			c-0.3,0.7-0.6,1.4-0.9,2h30.3c0.3-0.5,0.5-1,0.8-1.5c1.5-2.8,3.1-6.1,4.7-9.8c22.1-33.3,50.3-31,50.3-31s28.2-2.2,50.3,31
			c1.8,3.9,3.5,7.3,5,10.3c0.2,0.3,0.3,0.7,0.5,1h30.3C176.6,484.9,176.3,484.3,176,483.6z M46.4,457.2l7.1-17.4h20.6
			C74.2,439.8,60.4,443.3,46.4,457.2z M107.3,439.8h20.5l7.2,17.4C121.1,443.3,107.3,439.8,107.3,439.8z"/>
	</g>
	<g>
		<g>
			<rect x="26.5" y="398.9" class="st1" width="1.9" height="9.9"/>
			<rect x="39.2" y="398.9" class="st1" width="1.9" height="9.9"/>
			<rect x="51.9" y="398.9" class="st1" width="1.9" height="9.9"/>
			<rect x="64.6" y="398.9" class="st1" width="1.9" height="9.9"/>
			<rect x="77.3" y="398.9" class="st1" width="1.9" height="9.9"/>
			<rect x="89.9" y="398.9" class="st1" width="1.9" height="9.9"/>
		</g>
		<g>
			<rect x="153.4" y="398.9" class="st1" width="1.9" height="9.9"/>
			<rect x="140.7" y="398.9" class="st1" width="1.9" height="9.9"/>
			<rect x="128" y="398.9" class="st1" width="1.9" height="9.9"/>
			<rect x="115.3" y="398.9" class="st1" width="1.9" height="9.9"/>
			<rect x="102.6" y="398.9" class="st1" width="1.9" height="9.9"/>
			<rect x="89.9" y="398.9" class="st1" width="1.9" height="9.9"/>
		</g>
		<g>
			<rect x="153.4" y="398.9" class="st1" width="1.9" height="9.9"/>
			<rect x="140.7" y="398.9" class="st1" width="1.9" height="9.9"/>
			<rect x="128" y="398.9" class="st1" width="1.9" height="9.9"/>
			<rect x="115.3" y="398.9" class="st1" width="1.9" height="9.9"/>
			<rect x="102.6" y="398.9" class="st1" width="1.9" height="9.9"/>
			<rect x="89.9" y="398.9" class="st1" width="1.9" height="9.9"/>
		</g>
		<g>
			<rect x="26.5" y="398.9" class="st1" width="1.9" height="9.9"/>
			<rect x="39.2" y="398.9" class="st1" width="1.9" height="9.9"/>
			<rect x="51.9" y="398.9" class="st1" width="1.9" height="9.9"/>
			<rect x="64.6" y="398.9" class="st1" width="1.9" height="9.9"/>
			<rect x="77.3" y="398.9" class="st1" width="1.9" height="9.9"/>
			<rect x="89.9" y="398.9" class="st1" width="1.9" height="9.9"/>
		</g>
		<rect x="26.7" y="405.5" class="st1" width="128.4" height="3.3"/>
		<path class="st1" d="M162.2,426.9H19.5c0.8-2,1.5-4,2.3-6h138.1C160.7,422.9,161.4,424.9,162.2,426.9z"/>
		<rect x="25.5" y="398.1" class="st1" width="130.8" height="1.6"/>
	</g>
	<g>
		<g>
			<rect x="52.3" y="327.3" class="st1" width="1.1" height="5.9"/>
			<rect x="59.9" y="327.3" class="st1" width="1.1" height="5.9"/>
			<rect x="67.5" y="327.3" class="st1" width="1.2" height="5.9"/>
			<rect x="75.1" y="327.3" class="st1" width="1.2" height="5.9"/>
			<rect x="82.7" y="327.3" class="st1" width="1.1" height="5.9"/>
			<rect x="90.3" y="327.3" class="st1" width="1.1" height="5.9"/>
		</g>
		<g>
			<rect x="128.4" y="327.3" class="st1" width="1.1" height="5.9"/>
			<rect x="120.8" y="327.3" class="st1" width="1.1" height="5.9"/>
			<rect x="113.1" y="327.3" class="st1" width="1.2" height="5.9"/>
			<rect x="105.5" y="327.3" class="st1" width="1.1" height="5.9"/>
			<rect x="97.9" y="327.3" class="st1" width="1.1" height="5.9"/>
			<rect x="90.3" y="327.3" class="st1" width="1.1" height="5.9"/>
		</g>
		<g>
			<rect x="128.4" y="327.3" class="st1" width="1.1" height="5.9"/>
			<rect x="120.8" y="327.3" class="st1" width="1.1" height="5.9"/>
			<rect x="113.1" y="327.3" class="st1" width="1.2" height="5.9"/>
			<rect x="105.5" y="327.3" class="st1" width="1.1" height="5.9"/>
			<rect x="97.9" y="327.3" class="st1" width="1.1" height="5.9"/>
			<rect x="90.3" y="327.3" class="st1" width="1.1" height="5.9"/>
		</g>
		<g>
			<rect x="52.3" y="327.3" class="st1" width="1.1" height="5.9"/>
			<rect x="59.9" y="327.3" class="st1" width="1.1" height="5.9"/>
			<rect x="67.5" y="327.3" class="st1" width="1.2" height="5.9"/>
			<rect x="75.1" y="327.3" class="st1" width="1.2" height="5.9"/>
			<rect x="82.7" y="327.3" class="st1" width="1.1" height="5.9"/>
			<rect x="90.3" y="327.3" class="st1" width="1.1" height="5.9"/>
		</g>
		<rect x="52.4" y="331.2" class="st1" width="77" height="2"/>
		<path class="st1" d="M133.7,344H48.1c0.5-1.2,0.9-2.4,1.4-3.6h82.8C132.8,341.6,133.2,342.8,133.7,344z"/>
		<rect x="51.6" y="326.8" class="st1" width="78.5" height="1"/>
	</g>
	<g>
		<path class="st1" d="M100,52H80.9v-9.9c0-5.2,4.2-9.5,9.5-9.5h0.2c5.2,0,9.5,4.2,9.5,9.5V52z M83.6,49.4h13.9v-7.3
			c0-3.8-3.1-6.9-6.9-6.9h-0.2c-3.8,0-6.9,3.1-6.9,6.9V49.4z"/>
		<path class="st1" d="M96,52H85v-9.9c0-5.4,2.3-9.5,5.5-9.5c3.2,0,5.5,4.1,5.5,9.5V52z M87.6,49.4h5.8v-7.3c0-4.2-1.7-6.9-2.9-6.9
			c-1.2,0-2.9,2.7-2.9,6.9V49.4z"/>
		<polygon class="st1" points="77.4,48.8 81.4,64.5 99.5,64.5 103.6,48.8 		"/>
		<rect x="77.4" y="48.8" class="st1" width="26.1" height="4.8"/>
		<rect x="82.8" y="48.8" class="st1" width="15.4" height="4.8"/>
		<polygon class="st1" points="91.8,33.9 89.4,33.9 90.1,0 91,0 		"/>
		<circle class="st1" cx="90.6" cy="29" r="2.2"/>
		<circle class="st1" cx="90.6" cy="23.8" r="2.2"/>
		<circle class="st1" cx="90.6" cy="18.6" r="2.2"/>
	</g>
</g>
</svg>
