<?xml version="1.0" encoding="utf-8"?>
<!-- Generator: Adobe Illustrator 25.2.1, SVG Export Plug-In . SVG Version: 6.00 Build 0)  -->
<svg version="1.1" id="Layer_1" xmlns="http://www.w3.org/2000/svg" xmlns:xlink="http://www.w3.org/1999/xlink" x="0px" y="0px"
	 viewBox="0 0 180 693.2" style="enable-background:new 0 0 180 693.2;" xml:space="preserve">
<style type="text/css">
	.st0{fill:#8C989F;}
	.st1{fill:#BAC9D1;}
	.st2{fill:#FFFFFF;}
	.st3{fill:#6B747A;}
</style>
<g>
	<path class="st3" d="M38.9,317.7v336h105.4v-336H38.9z M54.2,640.8h-5.7v-65.5h5.7V640.8z M54.2,559.2h-5.7v-65.5h5.7V559.2z
		 M54.2,477.6h-5.7v-65.5h5.7V477.6z M54.2,396h-5.7v-65.5h5.7V396z M63.1,640.8h-5.7v-65.5h5.7V640.8z M63.1,559.2h-5.7v-65.5h5.7
		V559.2z M63.1,477.6h-5.7v-65.5h5.7V477.6z M63.1,396h-5.7v-65.5h5.7V396z M72.1,640.8h-5.7v-65.5h5.7V640.8z M72.1,559.2h-5.7
		v-65.5h5.7V559.2z M72.1,477.6h-5.7v-65.5h5.7V477.6z M72.1,396h-5.7v-65.5h5.7V396z M81,640.8h-5.7v-65.5H81V640.8z M81,559.2
		h-5.7v-65.5H81V559.2z M81,477.6h-5.7v-65.5H81V477.6z M81,396h-5.7v-65.5H81V396z M90,640.8h-5.7v-65.5H90V640.8z M90,559.2h-5.7
		v-65.5H90V559.2z M90,477.6h-5.7v-65.5H90V477.6z M90,396h-5.7v-65.5H90V396z M99,640.8h-5.7v-65.5H99V640.8z M99,559.2h-5.7v-65.5
		H99V559.2z M99,477.6h-5.7v-65.5H99V477.6z M99,396h-5.7v-65.5H99V396z M107.9,640.8h-5.7v-65.5h5.7V640.8z M107.9,559.2h-5.7
		v-65.5h5.7V559.2z M107.9,477.6h-5.7v-65.5h5.7V477.6z M107.9,396h-5.7v-65.5h5.7V396z M116.9,640.8h-5.7v-65.5h5.7V640.8z
		 M116.9,559.2h-5.7v-65.5h5.7V559.2z M116.9,477.6h-5.7v-65.5h5.7V477.6z M116.9,396h-5.7v-65.5h5.7V396z M125.8,640.8h-5.7v-65.5
		h5.7V640.8z M125.8,559.2h-5.7v-65.5h5.7V559.2z M125.8,477.6h-5.7v-65.5h5.7V477.6z M125.8,396h-5.7v-65.5h5.7V396z M134.8,640.8
		h-5.7v-65.5h5.7V640.8z M134.8,559.2h-5.7v-65.5h5.7V559.2z M134.8,477.6h-5.7v-65.5h5.7V477.6z M134.8,396h-5.7v-65.5h5.7V396z"/>
	<path class="st3" d="M38.9,158.2v21.4h105.4v-21.4H38.9z M45.7,177.3H43v-16.7h2.7V177.3z M50.6,177.3H48v-16.7h2.7V177.3z
		 M55.6,177.3H53v-16.7h2.7V177.3z M60.6,177.3H58v-16.7h2.6V177.3z M65.6,177.3h-2.7v-16.7h2.7V177.3z M70.6,177.3h-2.7v-16.7h2.7
		V177.3z M75.5,177.3h-2.7v-16.7h2.7V177.3z M80.5,177.3h-2.7v-16.7h2.7V177.3z M85.5,177.3h-2.7v-16.7h2.7V177.3z M90.5,177.3h-2.7
		v-16.7h2.7V177.3z M95.4,177.3h-2.7v-16.7h2.7V177.3z M100.4,177.3h-2.7v-16.7h2.7V177.3z M105.4,177.3h-2.7v-16.7h2.7V177.3z
		 M110.4,177.3h-2.7v-16.7h2.7V177.3z M115.3,177.3h-2.7v-16.7h2.7V177.3z M120.3,177.3h-2.7v-16.7h2.7V177.3z M125.3,177.3h-2.7
		v-16.7h2.7V177.3z M130.3,177.3h-2.7v-16.7h2.7V177.3z M135.3,177.3h-2.7v-16.7h2.7V177.3z M140.3,177.3h-2.7v-16.7h2.7V177.3z"/>
	<g>
		<path class="st1" d="M91.6,200.3c-22.3,0-40.5,18.2-40.5,40.5s18.2,40.5,40.5,40.5s40.5-18.2,40.5-40.5S113.9,200.3,91.6,200.3z
			 M62.1,241.7h-7.8v-1.9h7.8V241.7z M90.7,203.5h1.9v7.8h-1.9V203.5z M65.9,267.9l-1.3-1.3l5.5-5.5l1.3,1.3L65.9,267.9z
			 M70.1,220.6l-5.5-5.5l1.3-1.3l5.5,5.5L70.1,220.6z M92.6,278.1h-1.9v-7.8h1.9V278.1z M94,240.8c0,1.3-1.1,2.4-2.4,2.4
			c-1.3,0-2.4-1.1-2.4-2.4c0-0.5,0.2-1.1,0.5-1.5L75,211.4l16.6,27c0.3,0,0.6,0.1,0.8,0.1l14.6-13.3L93.8,240
			C93.9,240.2,94,240.5,94,240.8z M113.2,220.6l-1.3-1.3l5.5-5.5l1.3,1.3L113.2,220.6z M121.2,241.7v-1.9h7.8v1.9H121.2z"/>
		<path class="st1" d="M29.7,179.6V302h123.8V179.6H29.7z M91.6,284.1c-23.9,0-43.3-19.4-43.3-43.3s19.4-43.3,43.3-43.3
			s43.3,19.4,43.3,43.3S115.5,284.1,91.6,284.1z"/>
		<polygon class="st1" points="148.6,145.9 143.6,179.6 148.6,179.6 153.6,179.6 		"/>
		<polygon class="st1" points="34.7,145.9 39.7,179.6 34.7,179.6 29.7,179.6 		"/>
	</g>
	<g>
		<rect x="29.7" y="313.4" class="st3" width="123.8" height="11.4"/>
		<path class="st3" d="M148.6,302H34.7v11.4h113.9V302z M40.4,311.2h-2.9v-7.1h2.9V311.2z M46,311.2h-2.9v-7.1H46V311.2z
			 M51.5,311.2h-2.9v-7.1h2.9V311.2z M57.1,311.2h-2.9v-7.1h2.9V311.2z M62.6,311.2h-2.9v-7.1h2.9V311.2z M68.1,311.2h-2.9v-7.1h2.9
			V311.2z M73.7,311.2h-2.9v-7.1h2.9V311.2z M79.2,311.2h-2.9v-7.1h2.9V311.2z M101.4,311.2h-2.9v-7.1h2.9V311.2z M106.9,311.2h-2.9
			v-7.1h2.9V311.2z M112.5,311.2h-2.9v-7.1h2.9V311.2z M118,311.2h-2.9v-7.1h2.9V311.2z M123.6,311.2h-2.9v-7.1h2.9V311.2z
			 M129.1,311.2h-2.9v-7.1h2.9V311.2z M134.7,311.2h-2.9v-7.1h2.9V311.2z M140.2,311.2h-2.9v-7.1h2.9V311.2z M145.7,311.2h-2.9v-7.1
			h2.9V311.2z"/>
	</g>
	<g>
		<g>
			<rect x="81.9" y="304.2" class="st2" width="2.9" height="7.1"/>
		</g>
		<g>
			<rect x="87.4" y="304.2" class="st2" width="2.9" height="7.1"/>
		</g>
		<g>
			<rect x="93" y="304.2" class="st2" width="2.9" height="7.1"/>
		</g>
	</g>
	<g>
		<path class="st3" d="M41.1,191v99.6h101.1V191H41.1z M91.6,286.4c-25.2,0-45.5-20.4-45.5-45.6s20.4-45.5,45.5-45.5
			s45.5,20.4,45.5,45.5S116.8,286.4,91.6,286.4z"/>
	</g>
	<g>
		<g>
			<g>
				<polygon class="st2" points="111.9,262.4 113.2,261 118.7,266.5 117.4,267.9 				"/>
			</g>
		</g>
	</g>
	<g>
		<polygon class="st3" points="64.5,107.5 62.7,123.1 64.5,123.1 66.3,123.1 		"/>
		<polygon class="st3" points="118.8,107.5 117,123.1 118.8,123.1 120.5,123.1 		"/>
		<path class="st3" d="M66.1,98.9v24.2h51.1V98.9H66.1z M69.4,120.5h-1.3v-19h1.3V120.5z M72.6,120.5h-1.3v-19h1.3V120.5z
			 M75.9,120.5h-1.3v-19h1.3V120.5z M79.2,120.5h-1.3v-19h1.3V120.5z M82.4,120.5h-1.3v-19h1.3V120.5z M85.7,120.5h-1.3v-19h1.3
			V120.5z M89,120.5h-1.3v-19H89V120.5z M92.3,120.5H91v-19h1.3V120.5z M95.6,120.5h-1.3v-19h1.3V120.5z M98.8,120.5h-1.3v-19h1.3
			V120.5z M102.1,120.5h-1.3v-19h1.3V120.5z M105.4,120.5h-1.3v-19h1.3V120.5z M108.6,120.5h-1.3v-19h1.3V120.5z M111.9,120.5h-1.3
			v-19h1.3V120.5z M115.2,120.5h-1.3v-19h1.3V120.5z"/>
	</g>
	<g>
		<polygon class="st3" points="120.5,123.1 62.7,123.1 39,158.2 90.6,158.2 92.6,158.2 144.3,158.2 		"/>
	</g>
	<g>
		<polygon class="st1" points="91.2,31.5 66.2,98.9 91.6,98.9 117.1,98.9 		"/>
	</g>
	<g>
		<g>
			<rect x="89.9" y="6.4" class="st1" width="2.6" height="29.4"/>
		</g>
		<g>
			<path class="st3" d="M94.8,3.6c0,2-1.6,3.6-3.6,3.6c-2,0-3.6-1.6-3.6-3.6S89.3,0,91.2,0C93.2,0,94.8,1.6,94.8,3.6z"/>
		</g>
	</g>
	<polygon class="st1" points="180,693.2 0,693.2 11.6,653.6 168.4,653.6 	"/>
</g>
</svg>
