<?xml version="1.0" encoding="utf-8"?>
<!-- Generator: Adobe Illustrator 25.2.1, SVG Export Plug-In . SVG Version: 6.00 Build 0)  -->
<svg version="1.1" id="Layer_1" xmlns="http://www.w3.org/2000/svg" xmlns:xlink="http://www.w3.org/1999/xlink" x="0px" y="0px"
	 viewBox="0 0 180 83.3" style="enable-background:new 0 0 180 83.3;" xml:space="preserve">
<style type="text/css">
	.st0{fill:#8C989F;}
	.st1{fill:#BAC9D1;}
	.st2{fill:#FFFFFF;}
	.st3{fill:#6B747A;}
</style>
<g>
	<g>
		<rect x="8.1" y="46.1" class="st0" width="4.4" height="8.3"/>
	</g>
	<g>
		<rect x="8.7" y="51.6" class="st0" width="3.2" height="27.1"/>
	</g>
	<g>
		<g>
			<path class="st1" d="M81.3,10.3c-0.1,0-0.2,0-0.3,0.1V5.5c0-1-0.8-1.7-1.7-1.7c-1,0-1.7,0.8-1.7,1.7v9.6c0,1,0.8,1.7,1.7,1.7
				c0.5,0,0.9-0.2,1.2-0.5v0.3c0,0.4,0.4,0.8,0.8,0.8c0.4,0,0.8-0.4,0.8-0.8v-5.5C82.1,10.7,81.8,10.3,81.3,10.3z"/>
			<path class="st1" d="M100.7,3.8c-1,0-1.7,0.8-1.7,1.7v4.9c-0.1,0-0.2-0.1-0.3-0.1c-0.4,0-0.8,0.4-0.8,0.8v5.5
				c0,0.4,0.4,0.8,0.8,0.8c0.4,0,0.8-0.4,0.8-0.8v-0.3c0.3,0.3,0.8,0.5,1.3,0.5c1,0,1.7-0.8,1.7-1.7V5.5
				C102.4,4.6,101.7,3.8,100.7,3.8z"/>
			<path class="st1" d="M96.8,0.1c0,0-3.1-0.6-5.4,2c-0.3-0.7-0.8-1.2-1.4-1.2c-0.6,0-1.1,0.5-1.4,1.2c-2.3-2.6-5.4-2-5.4-2
				c1,4.7,3.4,5.8,5.2,6v1.3c-0.4-0.4-1-0.7-1.6-0.7c-1.2,0-2.2,1-2.2,2.2v6.7c0,1.2,1,2.2,2.2,2.2c0.9,0,1.7-0.6,2-1.4
				c0.3,0.4,0.7,0.6,1.1,0.6c0.4,0,0.8-0.2,1.1-0.6c0.3,0.8,1.1,1.4,2,1.4c1.2,0,2.2-1,2.2-2.2V8.8c0-1.2-1-2.2-2.2-2.2
				c-0.6,0-1.2,0.3-1.6,0.7V6C93.3,5.9,95.8,4.8,96.8,0.1z"/>
		</g>
		<g>
			<rect x="14.2" y="46.4" class="st0" width="4.6" height="8.8"/>
		</g>
		<g>
			<rect x="14.8" y="52.2" class="st0" width="3.4" height="28.7"/>
		</g>
		<g>
			<rect x="25.1" y="46.4" class="st0" width="4.6" height="8.8"/>
		</g>
		<g>
			<rect x="25.8" y="52.2" class="st0" width="3.4" height="28.7"/>
		</g>
		<g>
			<rect x="36.1" y="46.4" class="st0" width="4.6" height="8.8"/>
		</g>
		<g>
			<rect x="36.7" y="52.2" class="st0" width="3.4" height="28.7"/>
		</g>
		<g>
			<rect x="7" y="46.4" class="st0" width="30" height="5.8"/>
		</g>
		<g>
			<rect x="172.1" y="46.4" class="st0" width="4.6" height="8.8"/>
		</g>
		<g>
			<rect x="172.8" y="52.2" class="st0" width="3.4" height="28.7"/>
		</g>
		<g>
			<rect x="161.2" y="46.4" class="st0" width="4.6" height="8.8"/>
		</g>
		<g>
			<rect x="161.8" y="52.2" class="st0" width="3.4" height="28.7"/>
		</g>
		<g>
			<rect x="150.2" y="46.4" class="st0" width="4.6" height="8.8"/>
		</g>
		<g>
			<rect x="150.9" y="52.2" class="st0" width="3.4" height="28.7"/>
		</g>
		<g>
			<rect x="139.3" y="46.4" class="st0" width="4.6" height="8.8"/>
		</g>
		<g>
			<rect x="139.9" y="52.2" class="st0" width="3.4" height="28.7"/>
		</g>
		<g>
			<rect x="143" y="46.4" class="st0" width="30" height="5.8"/>
		</g>
		<g>
			<rect x="54.2" y="54.9" class="st0" width="2.4" height="27.2"/>
		</g>
		<g>
			<polygon class="st1" points="90,27.6 48.5,27.6 50.1,31.8 90,31.8 129.9,31.8 131.5,27.6 			"/>
		</g>
		<g>
			<polygon class="st1" points="90,36.5 50.3,36.5 50.3,38.9 90,38.9 129.6,38.9 129.6,36.5 			"/>
		</g>
		<g>
			<rect x="53.8" y="38.9" class="st0" width="6.5" height="43.6"/>
		</g>
		<g>
			<rect x="66.9" y="38.9" class="st0" width="6.5" height="43.6"/>
		</g>
		<g>
			<rect x="80.1" y="38.9" class="st0" width="6.5" height="43.6"/>
		</g>
		<g>
			<rect x="119.7" y="38.9" class="st0" width="6.5" height="43.6"/>
		</g>
		<g>
			<rect x="106.6" y="38.9" class="st0" width="6.5" height="43.6"/>
		</g>
		<g>
			<rect x="93.4" y="38.9" class="st0" width="6.5" height="43.6"/>
		</g>
		<polygon class="st0" points="107,17.5 107,16 73,16 73,17.5 70.8,17.5 70.8,20.3 109.2,20.3 109.2,17.5 		"/>
		<g>
			<polygon class="st0" points="127.8,27.6 127.8,19.3 90,19.3 52.2,19.3 52.2,27.6 90,27.6 			"/>
			<polygon class="st0" points="127.8,36.5 127.8,31.8 90,31.8 52.2,31.8 52.2,36.5 90,36.5 			"/>
			<path class="st0" d="M137.1,80.9V56.3h3.5v-5.5h-17.3v5.5h5.7v24.6H92.4h-4.8H50.9V56.3h5.7v-5.5H39.3v5.5h3.5v24.6H0v2.4h87.6
				h4.8H180v-2.4H137.1z M45.3,56.3h3.2v24.6h-3.2V56.3z M131.5,56.3h3.2v24.6h-3.2V56.3z"/>
		</g>
		<g>
			<polygon class="st1" points="22.6,35.1 0,47.1 22.6,47.1 45.3,47.1 			"/>
		</g>
		<g>
			<polygon class="st1" points="157.4,35.1 180,47.1 157.4,47.1 134.7,47.1 			"/>
		</g>
		<g>
			<polygon class="st1" points="100.7,18.8 96.3,18.8 83.7,18.8 50.3,18.8 50.3,21.2 83.7,21.2 96.3,21.2 100.7,21.2 129.6,21.2 
				129.6,18.8 			"/>
		</g>
	</g>
</g>
</svg>
