<?xml version="1.0" encoding="utf-8"?>
<!-- Generator: Adobe Illustrator 23.0.1, SVG Export Plug-In . SVG Version: 6.00 Build 0)  -->
<svg version="1.1" id="Layer_1" xmlns="http://www.w3.org/2000/svg" xmlns:xlink="http://www.w3.org/1999/xlink" x="0px" y="0px"
	 viewBox="0 0 180 197.06" style="enable-background:new 0 0 180 197.06;" xml:space="preserve">
<style type="text/css">
	.st0{fill:#BEE3D9;}
	.st1{fill:#FEDD9C;}
	.st2{fill:#FEFEFE;}
	.st3{fill:#F6938E;}
	.st4{fill:#FFFFFF;}
</style>
<g>
	<path class="st0" d="M49.88,54.04c-1.48-1.71,3.11-7.3,4.22-8.43c2.24-2.27,5.11-3.93,8.23-4.61c4.36-0.95,8.88-0.1,13.33,0.26
		c8.95,0.72,18.4-0.7,25.74-5.88c5.74-4.05,9.88-10.31,11.36-17.18c2.54,2.13,2.54,5.93,2.89,9.23c0.64,6.05,3.83,12.45,9.63,14.28
		c2.12,0.67,4.42,0.67,6.59,1.07c1.04,0.19,2.06,0.47,3.01,0.95c3.67,1.87,5.25,6.18,6.51,10.1c-2.96,0.01-5.91,0.03-8.87,0.04
		c-18.48,0.08-36.97,0.17-55.45,0.25L49.88,54.04z"/>
	<path class="st0" d="M18.97,58.87H168.4c2.07,0,3.74,1.68,3.74,3.74v16.14c0,2.07-1.68,3.74-3.74,3.74H18.97
		c-2.07,0-3.74-1.68-3.74-3.74V62.62C15.23,60.55,16.9,58.87,18.97,58.87z"/>
	<path class="st0" d="M171.69,86.36c-4.16,0.04-8.31,0.06-12.47,0.09H16.86c-3.62,0-6.56,2.94-6.56,6.56v34.07l0.38,0.58
		c0.59,19.5,14.65,33.94,34.25,34.13c33.74,0.33,67.48,0.32,101.22-0.02c18.62-0.19,33.08-14.88,33.59-33.43
		c0.31-11.24-0.34-22.51,0.23-33.73C180.3,87.96,178.25,86.29,171.69,86.36z M41.96,149.96c-0.19,1.41-1.4,2.44-2.78,2.44
		c-0.13,0-0.25-0.01-0.38-0.03c-7.18-0.97-13.16-5.27-17.3-12.42c-3.11-5.38-4.75-11.8-4.75-18.56V97.88c0-1.55,1.26-2.81,2.81-2.81
		s2.81,1.26,2.81,2.81v23.51c0,5.78,1.38,11.22,4,15.75c3.28,5.68,7.71,8.93,13.18,9.66C41.08,147.01,42.17,148.43,41.96,149.96z"/>
	<g>
		<path class="st0" d="M142.64,26.92l-4.76-8.7l-8.7-4.76l8.7-4.76l4.76-8.7l4.76,8.7l8.7,4.76l-8.7,4.76L142.64,26.92z
			 M136.15,13.46l4.19,2.29l2.29,4.19l2.29-4.19l4.19-2.29l-4.19-2.29l-2.29-4.19l-2.29,4.19L136.15,13.46z"/>
	</g>
	<g>
		<path class="st0" d="M24.72,197.06c-4.15,0-7.53-3.38-7.53-7.53c0-4.15,3.38-7.53,7.53-7.53c4.15,0,7.53,3.38,7.53,7.53
			C32.25,193.69,28.87,197.06,24.72,197.06z M24.72,185.35c-2.31,0-4.19,1.88-4.19,4.19c0,2.31,1.88,4.19,4.19,4.19
			c2.31,0,4.19-1.88,4.19-4.19C28.9,187.22,27.03,185.35,24.72,185.35z"/>
	</g>
	<g>
		<g>
			
				<rect x="16.65" y="161.25" transform="matrix(0.9757 -0.2191 0.2191 0.9757 -35.201 8.4625)" class="st0" width="7.79" height="3.34"/>
		</g>
		<g>
			
				<rect x="0.27" y="164.93" transform="matrix(0.9757 -0.2191 0.2191 0.9757 -36.4055 4.9622)" class="st0" width="7.79" height="3.34"/>
		</g>
		<g>
			
				<rect x="8.85" y="152.68" transform="matrix(0.9757 -0.2192 0.2192 0.9757 -34.0605 6.1123)" class="st0" width="3.34" height="7.79"/>
		</g>
		<g>
			
				<rect x="12.53" y="169.06" transform="matrix(0.9757 -0.2192 0.2192 0.9757 -37.5614 7.3171)" class="st0" width="3.34" height="7.79"/>
		</g>
	</g>
</g>
</svg>
