<?xml version="1.0" encoding="utf-8"?>
<!-- Generator: Adobe Illustrator 23.0.1, SVG Export Plug-In . SVG Version: 6.00 Build 0)  -->
<svg version="1.1" id="Layer_1" xmlns="http://www.w3.org/2000/svg" xmlns:xlink="http://www.w3.org/1999/xlink" x="0px" y="0px"
	 viewBox="0 0 180 311.84" style="enable-background:new 0 0 180 311.84;" xml:space="preserve">
<style type="text/css">
	.st0{fill:#BEE3D9;}
	.st1{fill:#FEDD9C;}
	.st2{fill:#FEFEFE;}
	.st3{fill:#F6938E;}
	.st4{fill:#FFFFFF;}
</style>
<g>
	<g>
		<path class="st3" d="M136.94,284.83c-0.66-17.42-0.15-34.91-0.15-52.36c0.03-17.93-0.24-35.9,0.15-53.83
			c0.15-7.11-2.22-9.72-9.39-9.57c-17.45,0.36-34.91,0.33-52.33,0.09c-6.09-0.09-9.21,1.35-9.15,8.19
			c0.21,36.89-0.09,73.78,0.33,110.67c0.12,9.54,4.68,15.78,15.96,15.18c12.42-0.66,24.89-0.45,37.34-0.09
			C132.59,303.42,137.42,297.51,136.94,284.83z M85.47,288.01c0,2.58-2.1,4.68-4.71,4.68c-2.58,0-4.68-2.1-4.68-4.68V182.65
			c0-2.61,2.1-4.71,4.68-4.71c2.61,0,4.71,2.1,4.71,4.71V288.01z"/>
		<path class="st3" d="M130.22,116.67c0.03-22.79,0.03-22.79-22.58-22.79C72.97,93.85,72.97,93.85,73,129.26
			c0,7.98-0.24,15.69-0.15,23.9c0.12,8.31,2.52,10.2,10.17,9.87c12.45-0.57,24.92-0.63,37.37,0c8.25,0.39,10.26-3,9.99-10.5
			C129.92,140.6,130.22,128.64,130.22,116.67z"/>
		<path class="st3" d="M122.72,63.08c-0.81-15.45-0.21-31.25-4.56-46.25c-1.17-4.02-4.62-17.12-9.66-16.82
			c-7.11,0.45-13.32,8.85-17.18,14.04c-6.45,8.67-8.28,22.07-9.21,32.6c-0.66,7.23-0.57,14.55,0.3,21.74c0,0.12,0,0.21,0.03,0.33
			c0.69,5.67,0.69,14.85,6.93,17.42c3.6,1.5,7.62,1.62,11.55,1.5c4.53-0.12,9.03-0.51,13.5-1.17
			C126.02,84.76,123.2,71.86,122.72,63.08z"/>
	</g>
	<path class="st4" d="M82.26,146.72c0,2.58,2.1,4.68,4.68,4.68c2.61,0,4.71-2.1,4.71-4.68v-38.57c0-2.58-2.1-4.68-4.71-4.68
		c-2.58,0-4.68,2.1-4.68,4.68v35.84V146.72z"/>
	<g>
		<path class="st3" d="M158.48,184.59l-7.61-13.91l-13.91-7.61l13.91-7.61l7.61-13.91l7.61,13.91l13.91,7.61l-13.91,7.61
			L158.48,184.59z M148.11,163.07l6.71,3.67l3.67,6.71l3.67-6.71l6.71-3.67l-6.71-3.67l-3.67-6.71l-3.67,6.71L148.11,163.07z"/>
	</g>
	<g>
		<path class="st3" d="M45.92,275.22c-6.64,0-12.04-5.4-12.04-12.04c0-6.64,5.4-12.04,12.04-12.04c6.64,0,12.04,5.4,12.04,12.04
			C57.96,269.82,52.56,275.22,45.92,275.22z M45.92,256.49c-3.69,0-6.69,3-6.69,6.69c0,3.69,3,6.69,6.69,6.69
			c3.69,0,6.69-3,6.69-6.69C52.61,259.49,49.61,256.49,45.92,256.49z"/>
	</g>
	<g>
		<g>
			
				<rect x="19.05" y="283.89" transform="matrix(0.7071 -0.7071 0.7071 0.7071 -195.2214 101.7951)" class="st3" width="12.46" height="5.35"/>
		</g>
		<g>
			
				<rect x="0.07" y="302.87" transform="matrix(0.7071 -0.7071 0.7071 0.7071 -214.2001 93.9333)" class="st3" width="12.46" height="5.35"/>
		</g>
		<g>
			
				<rect x="3.62" y="280.34" transform="matrix(0.7071 -0.7071 0.7071 0.7071 -200.7896 88.3849)" class="st3" width="5.35" height="12.46"/>
		</g>
		<g>
			
				<rect x="22.6" y="299.32" transform="matrix(0.7071 -0.7071 0.7071 0.7071 -208.6513 107.365)" class="st3" width="5.35" height="12.46"/>
		</g>
	</g>
</g>
</svg>
