<?xml version="1.0" encoding="utf-8"?>
<!-- Generator: Adobe Illustrator 23.0.1, SVG Export Plug-In . SVG Version: 6.00 Build 0)  -->
<svg version="1.1" id="Layer_1" xmlns="http://www.w3.org/2000/svg" xmlns:xlink="http://www.w3.org/1999/xlink" x="0px" y="0px"
	 viewBox="0 0 180 156.21" style="enable-background:new 0 0 180 156.21;" xml:space="preserve">
<style type="text/css">
	.st0{fill:#BEE3D9;}
	.st1{fill:#FEDD9C;}
	.st2{fill:#FEFEFE;}
	.st3{fill:#F6938E;}
	.st4{fill:#FFFFFF;}
</style>
<g>
	<g>
		<path class="st1" d="M161.48,10.22c-11.43-6.87-23.82-8.9-36.83-5.53c-9.65,2.5-16.62,8.06-20.43,15.01
			c-0.37-0.22-0.76-0.42-1.16-0.6c-4.02-1.82-8.78-2.6-13.48-3.19c-4.02-0.51-8.19-0.9-12.22-0.64c-1.76,0.11-3.49,0.35-5.18,0.76
			c-0.19,0.04-0.38,0.1-0.58,0.15c-0.46-1.74-2.03-3.03-3.92-3.03h-8.5c-2.24,0-4.06,1.82-4.06,4.06v17.96h-5.26
			c-2.81,0-5.08,2.27-5.08,5.08v12.51c0,2.81,2.27,5.08,5.08,5.08h26.78c2.81,0,5.08-2.27,5.08-5.08V40.26
			c0-2.81-2.27-5.08-5.08-5.08h-4.89V23.64c7.82,2.39,16.35,3.76,24.86,3.4c1.71-0.07,3.46-0.24,5.04-0.67
			c-2.12,8.85,0.21,18.9,7.78,27.58c8.93,10.25,20.49,14.78,33.88,15.13c17.08,0.54,31.1-7.92,35.43-21.39
			C183.03,34.35,176.16,19.04,161.48,10.22z"/>
	</g>
	<g>
		<path class="st1" d="M17.99,77.21C-1.17,93.54-5.5,119.52,7.3,139.76c3.43,5.43,7.45,8.31,14.22,8.11
			c14.15-0.4,28.32-0.12,42.48-0.12c0-0.01,0-0.02,0-0.03c14.16,0,28.33-0.24,42.48,0.12c5.53,0.14,8.93-1.97,11.95-6.29
			c12.95-18.53,10.61-44.47-5.69-60.71C88.21,56.38,44.39,54.7,17.99,77.21z M119.44,119.02c-2.27,17.26-7.1,21.48-24.25,21.47
			c-10.69-0.01-21.38,0-32.07,0c0,0.02,0,0.04,0,0.06c-13.11,0-26.22-0.27-39.32,0.13c-5.61,0.17-8.77-1.9-11.47-6.65
			c-8.84-15.55-6.45-33.96,6.62-47.59c24.11-25.15,68.92-23.76,91.36,2.89C117.53,97.89,120.92,107.77,119.44,119.02z"/>
	</g>
	<path class="st1" d="M81.73,80.68C75.2,80.56,66,84.91,63.69,71c-4.18,9.73-4.18,9.73-18.22,9.69
		C21.41,80.62,5.04,105,14.02,127.48c2.36,5.92,5.64,9.06,13.04,8.87c24.15-0.62,48.34-0.66,72.49,0
		c7.95,0.22,11.07-3.22,13.46-9.65C121.37,104.22,105.48,81.12,81.73,80.68z M26.93,130.89c-0.44,0.22-0.91,0.32-1.38,0.32
		c-1.15,0-2.25-0.64-2.79-1.73c-6.67-13.48-2.05-26.33-1.85-26.88c0.6-1.61,2.39-2.43,3.99-1.84c1.61,0.6,2.43,2.38,1.84,3.99
		c-0.07,0.19-3.84,11,1.59,21.97C29.1,128.26,28.47,130.13,26.93,130.89z"/>
	<g>
		<path class="st1" d="M34.04,29.74l-5.26-9.61l-9.61-5.26l9.61-5.26L34.04,0l5.26,9.61l9.61,5.26l-9.61,5.26L34.04,29.74z
			 M26.87,14.87l4.63,2.53l2.53,4.63l2.53-4.63l4.63-2.53l-4.63-2.53L34.04,7.7l-2.53,4.63L26.87,14.87z"/>
	</g>
	<g>
		<path class="st1" d="M135.64,156.21c-4.59,0-8.32-3.73-8.32-8.32c0-4.59,3.73-8.32,8.32-8.32c4.59,0,8.32,3.73,8.32,8.32
			C143.96,152.47,140.23,156.21,135.64,156.21z M135.64,143.26c-2.55,0-4.63,2.08-4.63,4.63c0,2.55,2.08,4.63,4.63,4.63
			c2.55,0,4.63-2.08,4.63-4.63C140.27,145.33,138.19,143.26,135.64,143.26z"/>
	</g>
	<g>
		<g>
			
				<rect x="145.17" y="83.04" transform="matrix(0.9757 -0.2191 0.2191 0.9757 -14.9681 34.8159)" class="st1" width="8.61" height="3.7"/>
		</g>
		<g>
			
				<rect x="127.07" y="87.1" transform="matrix(0.9757 -0.2191 0.2191 0.9757 -16.299 30.9484)" class="st1" width="8.61" height="3.7"/>
		</g>
		<g>
			
				<rect x="136.54" y="73.56" transform="matrix(0.9757 -0.2192 0.2192 0.9757 -13.7021 32.2242)" class="st1" width="3.7" height="8.61"/>
		</g>
		<g>
			
				<rect x="140.61" y="91.66" transform="matrix(0.9757 -0.2192 0.2192 0.9757 -17.5703 33.5554)" class="st1" width="3.7" height="8.61"/>
		</g>
	</g>
</g>
</svg>
