<?xml version="1.0" encoding="utf-8"?>
<!-- Generator: Adobe Illustrator 23.0.1, SVG Export Plug-In . SVG Version: 6.00 Build 0)  -->
<svg version="1.1" id="Layer_1" xmlns="http://www.w3.org/2000/svg" xmlns:xlink="http://www.w3.org/1999/xlink" x="0px" y="0px"
	 viewBox="0 0 180 285.53" style="enable-background:new 0 0 180 285.53;" xml:space="preserve">
<style type="text/css">
	.st0{fill:#BEE3D9;}
	.st1{fill:#FEDD9C;}
	.st2{fill:#FEFEFE;}
	.st3{fill:#F6938E;}
	.st4{fill:#FFFFFF;}
</style>
<g>
	<g>
		<path class="st1" d="M105.28,180.89c-7.52-3.2-14.98-6.43-23.09-7.62c-3.74-0.55-4.91-2.05-4.61-5.8
			c0.38-4.82,0.11-9.68,0.08-14.53c-0.01-1.09,0.3-2.35-0.33-3.33c-0.66-1.02-2.2-1.61-3.26-2.09c-4.05-1.86-8.41-2.34-12.76-2.11
			l0-0.01c-11.89,0.27-16.3,3-17.68,4.21c0,0,0,0,0,0c0,0,0,0,0,0c-0.16,0.14-0.29,0.26-0.37,0.35c-1.2,1.18-1.24,1.74-1.42,2.96
			c-0.82,5.39-0.15,10.91,0,16.35c0.07,2.59-0.67,3.6-3.39,4.14c-9.21,1.81-17.94,4.99-26.1,9.77c-3.22,1.89-5.25,4.42-6.46,7.81
			c-2.98,8.38-2.75,17-1.47,25.56c3.01,20.13,11.45,38.32,20.62,56.24c2.15,4.19,5.28,7.05,9.58,8.45
			c17.5,5.7,35.05,5.74,52.54-0.06c4.33-1.44,7.53-4.24,9.5-8.51c3.41-7.39,7.27-14.59,10.43-22.08
			c6.8-16.09,12.07-32.57,10.67-50.43C117.07,191.49,114.07,184.63,105.28,180.89z M61.85,146.94L61.85,146.94
			c4.19,0.15,8.36,0.24,12.17,1.87c0.46,0.2,0.93,0.43,1.26,0.81c0.33,0.38,0.48,0.95,0.25,1.4c-0.2,0.38-0.62,0.59-1.02,0.76
			c-7.6,3.23-16.43,2.93-24.41,1.58c-2.57-0.44-4.62-0.12-5.84-2.19C48.86,146.84,61.85,146.94,61.85,146.94z M104.4,246.3
			c-3.22,8.15-7.2,15.95-11.06,23.8c-1.89,3.85-4.66,6.3-8.53,7.54c-15.89,5.07-31.84,5.01-47.75,0.09
			c-3.87-1.2-6.65-3.59-8.62-7.42c-8.45-16.43-16.08-33.14-19.47-51.45c-1.53-8.23-2.15-16.48,0.27-24.73
			c1.09-3.73,3.08-6.28,6.54-8.17c14.32-7.82,29.72-10.71,45.84-10.64c13.62,0.03,26.58,2.85,39.28,7.92
			c9.71,3.88,12.96,10.92,13.1,20.45C114.21,218.67,109.82,232.61,104.4,246.3z"/>
		<path class="st1" d="M149.76,4.61c-16.41,15.28-32.67,30.45-48.98,45.56c-1.88,1.75-2.13,3.9-1.2,5.78
			c4.58,9.23,10.53,17.29,20.23,21.84c2.47,1.16,4.5,0.93,6.57-1.06c5.34-5.15,10.84-10.13,16.26-15.19
			c10.69-9.97,21.36-19.96,32.2-30.09C162.86,25.68,154.69,16.83,149.76,4.61z"/>
		<path class="st1" d="M49.31,115.22c3.03,3.64,6.3,7.09,9.77,10.31c0.47,0.44,1.04,0.9,1.67,0.81c0.56-0.08,0.97-0.57,1.28-1.04
			c0.88-1.36,1.45-2.89,2.09-4.38c4.09-9.44,11.42-17.07,19.08-23.95c7.65-6.88,15.83-13.27,22.35-21.23
			c0.87-1.06,1.76-2.36,1.46-3.7c-0.35-1.55-2.21-2.35-3.77-2.07c-1.36,0.24-2.52,1.07-3.6,1.96c-0.16,0.13-0.31,0.26-0.47,0.4
			c-8.08,6.96-15.18,14.97-23.09,22.11c-4.35,3.93-8.97,7.6-14.02,10.6c-2.61,1.56-5.33,2.93-8.16,4.05
			c-1.79,0.71-6.44,1.15-5.84,3.99C48.23,113.9,48.77,114.58,49.31,115.22z"/>
		<path class="st1" d="M179.64,23.39c-3.55-10.58-11.01-17.82-20.68-22.96c-0.63-0.34-1.47-0.29-2.26-0.43
			c-3.2-0.11-4.04,1.83-3.13,4.38c3.86,10.75,10.98,18.66,21.52,23.14C178.78,29.1,180.89,27.12,179.64,23.39z"/>
		<path class="st1" d="M97.85,186.09c-12-4.74-24.25-7.28-37.1-7.25c-14.58,0.02-28.48,2.82-41.51,9.67
			c-3.85,2.02-5.98,4.97-6.89,8.96c-1.29,5.66-1.46,11.38-0.68,17.15c2.56,19.01,10.27,36.15,18.96,52.96
			c1.79,3.47,4.3,5.62,7.97,6.8c13.94,4.46,27.92,4.41,42.01,0.84c5.31-1.35,8.99-4.23,11.4-9.33c4.06-8.59,8.31-17.1,11.54-26.04
			c4.02-11.13,7.08-22.46,6.87-34.47C110.27,196.25,107.02,189.71,97.85,186.09z M93.21,224.09c0.06-0.4,0.12-0.8,0.18-1.19
			l0.22,0.44C93.47,223.59,93.35,223.84,93.21,224.09z M102.15,224.99c-0.4,1.3-1.6,2.13-2.89,2.13c-0.3,0-0.6-0.04-0.9-0.14
			c-1.6-0.5-2.49-2.2-1.99-3.8c2.86-9.16,2.45-16.62-1.23-22.19c-6.01-9.1-18.8-10.5-18.92-10.51c-1.67-0.17-2.88-1.66-2.71-3.32
			c0.17-1.67,1.69-2.85,3.32-2.71c0.64,0.07,15.8,1.73,23.37,13.21C104.92,204.81,105.58,214.01,102.15,224.99z"/>
		<path class="st1" d="M59.93,128.59c-1.55,3.12-2.29,6.95-2.3,10.43c0,1.41,0.4,2.92,1.51,3.78c0.99,0.77,2.4,0.86,3.56,0.39
			c0.94-0.38,1.77-1.17,1.94-2.17c0.24-1.43-0.77-2.78-1.54-3.88C61.26,134.46,60.36,131.78,59.93,128.59z"/>
	</g>
	<g>
		<path class="st1" d="M14.5,168.82l-5.13-9.37L0,154.32l9.37-5.13l5.13-9.37l5.13,9.37l9.37,5.13l-9.37,5.13L14.5,168.82z
			 M7.51,154.32l4.52,2.47l2.47,4.52l2.47-4.52l4.52-2.47l-4.52-2.47l-2.47-4.52l-2.47,4.52L7.51,154.32z"/>
	</g>
	<g>
		<path class="st1" d="M137.43,245.33c-4.47,0-8.11-3.64-8.11-8.11c0-4.47,3.64-8.11,8.11-8.11c4.47,0,8.11,3.64,8.11,8.11
			C145.54,241.69,141.9,245.33,137.43,245.33z M137.43,232.7c-2.49,0-4.51,2.02-4.51,4.51c0,2.49,2.02,4.51,4.51,4.51
			c2.49,0,4.51-2.02,4.51-4.51C141.94,234.73,139.91,232.7,137.43,232.7z"/>
	</g>
	<g>
		<g>
			
				<rect x="126.4" y="259.7" transform="matrix(0.9202 -0.3914 0.3914 0.9202 -91.9272 71.9751)" class="st1" width="8.4" height="3.6"/>
		</g>
		<g>
			
				<rect x="109.76" y="266.78" transform="matrix(0.9202 -0.3914 0.3914 0.9202 -96.0266 66.0246)" class="st1" width="8.4" height="3.6"/>
		</g>
		<g>
			
				<rect x="116.94" y="252.52" transform="matrix(0.9202 -0.3914 0.3914 0.9202 -91.0109 66.9604)" class="st1" width="3.6" height="8.4"/>
		</g>
		<g>
			
				<rect x="124.02" y="269.16" transform="matrix(0.9202 -0.3914 0.3914 0.9202 -96.9621 71.0604)" class="st1" width="3.6" height="8.4"/>
		</g>
	</g>
</g>
</svg>
