<?xml version="1.0" encoding="utf-8"?>
<!-- Generator: Adobe Illustrator 25.2.1, SVG Export Plug-In . SVG Version: 6.00 Build 0)  -->
<svg version="1.1" id="Layer_1" xmlns="http://www.w3.org/2000/svg" xmlns:xlink="http://www.w3.org/1999/xlink" x="0px" y="0px"
	 viewBox="0 0 180 180" style="enable-background:new 0 0 180 180;" xml:space="preserve">
<style type="text/css">
	.st0{fill:#010101;}
	.st1{clip-path:url(#SVGID_2_);}
	.st2{clip-path:url(#SVGID_4_);}
	.st3{fill-rule:evenodd;clip-rule:evenodd;}
	.st4{clip-path:url(#SVGID_6_);}
	.st5{clip-path:url(#SVGID_8_);}
	.st6{clip-path:url(#SVGID_10_);}
	.st7{fill:#FFFFFF;}
	.st8{clip-path:url(#SVGID_12_);}
</style>
<g>
	<path d="M175.6,87.9c-5.4-1.8-8.3-5.3-11.1-8.6c-1.7-2.1-3.5-4.2-5.8-5.9c-2-1.4-4-2.7-6-3.8c-0.8-0.4-1.6-0.8-2.4-1.2
		c-2.3-1.1-4.5-2-6.8-2.7c-0.8-0.2-1.5-0.4-2.3-0.6c-1.9-0.4-3.7-0.7-5.6-0.9c-0.7-0.1-1.5-0.1-2.2-0.1c-1.5,0-3,0-4.4,0.1
		c-0.7,0.1-1.4,0.1-2.1,0.2c-1.1,0.2-2.3,0.4-3.4,0.7c-0.6,0.1-1.3,0.3-1.9,0.5c-0.9,0.3-1.8,0.6-2.7,0.9c-0.6,0.2-1.2,0.4-1.8,0.7
		c-0.7,0.3-1.4,0.6-2.1,0.9c-0.6,0.3-1.2,0.5-1.7,0.8c-0.5,0.3-1,0.5-1.6,0.8c-0.6,0.3-1.1,0.6-1.7,1c-0.4,0.2-0.8,0.4-1.1,0.7
		c-0.3,0.2-0.5,0.3-0.8,0.5c0,0-0.1,0-0.1,0.1c0.2-0.2,0.3-0.5,0.5-0.7c0.2-0.4,0.5-0.8,0.7-1.2c0,0,0-0.1,0.1-0.1
		c0.3-0.5,0.6-1.1,0.9-1.6c0,0,0,0,0,0c0.3-0.5,0.6-1,0.8-1.6c0.1-0.3,0.3-0.5,0.4-0.8c0.2-0.3,0.3-0.6,0.4-0.9c0,0,0,0,0,0
		c0,0,0,0,0,0c0.3-0.7,0.6-1.4,0.9-2.1c0,0,0,0,0,0c0.2-0.6,0.5-1.2,0.7-1.8c0,0,0,0,0,0c0.3-0.9,0.6-1.8,0.9-2.7c0,0,0-0.1,0-0.1
		c0.2-0.6,0.3-1.2,0.5-1.9c0,0,0,0,0,0c0.3-1.2,0.5-2.3,0.7-3.5c0.1-0.7,0.2-1.4,0.2-2.1c0.1-1.5,0.2-3,0.1-4.5c0,0,0,0,0,0h0
		c0,0,0,0,0,0c0-0.7-0.1-1.5-0.1-2.2c-0.2-1.9-0.5-3.8-1-5.7c-0.1-0.4-0.2-0.8-0.3-1.2c-0.1-0.4-0.2-0.8-0.3-1.2c0,0,0,0,0,0
		c-0.7-2.3-1.7-4.7-2.9-7c-0.4-0.8-0.9-1.6-1.3-2.4c-1-1.7-2.1-3.4-3.3-5.1c-1.7-2.3-3.8-4.1-5.9-5.8c-3.4-2.8-6.9-5.7-8.6-11.1
		l-1.5-4.4l-1.5,4.4c-1.8,5.4-5.4,8.4-8.8,11.2c-2.1,1.8-4.2,3.6-5.9,5.9c-1,1.4-2,2.8-2.8,4.2c0,0,0,0,0,0
		c-0.5,0.8-0.9,1.6-1.3,2.3c0,0,0,0,0,0c0,0,0,0,0,0c0,0,0,0,0,0h0c-1.2,2.3-2.3,4.5-3.1,6.8c-0.3,0.8-0.5,1.6-0.8,2.4
		c-0.6,1.9-1,3.8-1.2,5.7c0,0,0,0,0,0c-0.1,0.8-0.2,1.5-0.2,2.3c0,0,0,0,0,0c0,0,0,0,0,0c-0.1,1.5-0.2,3-0.1,4.5c0,0.2,0,0.4,0,0.6
		c0,0.5,0.1,1,0.1,1.5c0,0,0,0,0,0c0,0,0,0,0,0c0.1,1.2,0.3,2.4,0.5,3.5c0,0,0,0,0,0c0.1,0.4,0.2,0.8,0.3,1.2
		c0.1,0.3,0.1,0.5,0.2,0.8c0.2,0.9,0.5,1.8,0.8,2.8c0.1,0.3,0.2,0.5,0.3,0.8c0.1,0.4,0.2,0.7,0.4,1.1c0,0,0,0,0,0c0,0,0,0,0,0
		c0.3,0.7,0.5,1.4,0.8,2.1c0.3,0.6,0.5,1.2,0.8,1.8c0.3,0.5,0.5,1.1,0.8,1.6c0,0,0,0,0,0c0,0,0,0,0,0c0.1,0.2,0.2,0.4,0.3,0.6
		c0.2,0.4,0.4,0.7,0.6,1.1c0.2,0.4,0.4,0.8,0.7,1.2c0.3,0.5,0.6,1,0.9,1.5c0,0,0.1,0.1,0.1,0.1l0,0c0,0,0,0,0,0
		c0,0.1,0.1,0.1,0.1,0.2c-0.1,0-0.1-0.1-0.2-0.1c0,0,0,0,0,0c0,0,0,0,0,0c-0.2-0.1-0.5-0.3-0.7-0.4c-0.3-0.2-0.6-0.4-0.9-0.6
		c-0.4-0.2-0.8-0.5-1.2-0.7c0,0,0,0,0,0c0,0,0,0,0,0c-0.6-0.3-1.1-0.6-1.7-0.9c0,0,0,0,0,0c-0.5-0.3-1.1-0.5-1.6-0.8
		c-0.4-0.2-0.8-0.4-1.2-0.5c-0.2-0.1-0.4-0.2-0.6-0.3c0,0,0,0,0,0c0,0,0,0,0,0c-0.7-0.3-1.4-0.6-2.1-0.8c-0.3-0.1-0.6-0.2-0.9-0.3
		c-0.3-0.1-0.6-0.2-1-0.3c0,0,0,0,0,0c-0.9-0.3-1.8-0.6-2.7-0.8c-0.7-0.2-1.3-0.3-2-0.4c-1.2-0.2-2.4-0.4-3.6-0.5
		c-0.3,0-0.6,0-0.9-0.1c-0.4,0-0.8-0.1-1.2-0.1c0,0,0,0,0,0c0,0,0,0,0,0c-1.5-0.1-3,0-4.5,0.1c-0.3,0-0.6,0.1-0.8,0.1
		c-0.5,0-1,0.1-1.4,0.2c0,0,0,0,0,0c-1.9,0.3-3.8,0.7-5.7,1.2c0,0,0,0,0,0c0,0,0,0,0,0c-0.8,0.2-1.6,0.5-2.4,0.8c0,0,0,0,0,0
		c0,0,0,0,0,0c-2.3,0.8-4.6,1.8-6.8,3.1c-0.5,0.2-0.9,0.5-1.3,0.8c-0.3,0.2-0.7,0.4-1,0.6c0,0,0,0,0,0c-1.4,0.9-2.8,1.8-4.2,2.8
		c-2.3,1.7-4.1,3.8-5.9,5.9c-2.9,3.4-5.8,6.9-11.2,8.8L0,90.5L4.4,92c5.4,1.8,8.3,5.3,11.1,8.6c1.7,2.1,3.5,4.2,5.8,5.9
		c1.7,1.2,3.4,2.3,5.1,3.3c0,0,0,0,0,0c0,0,0,0,0.1,0c0.8,0.5,1.6,0.9,2.4,1.3c2.3,1.2,4.6,2.1,7,2.9c0,0,0,0,0,0c0,0,0,0,0,0
		c0.8,0.3,1.6,0.5,2.4,0.7c0,0,0,0,0,0c0,0,0,0,0,0c1.9,0.5,3.8,0.8,5.7,1c0.5,0,1,0.1,1.5,0.1c0.3,0,0.5,0,0.8,0.1c0,0,0,0,0,0
		c0.5,0,1,0,1.4,0c1,0,2.1,0,3.1-0.1c0,0,0,0,0,0c0.5,0,1-0.1,1.4-0.2c0.2,0,0.5,0,0.7-0.1c1.2-0.2,2.4-0.4,3.5-0.7
		c0.6-0.1,1.2-0.3,1.8-0.5c0,0,0.1,0,0.1,0l0,0c0,0,0,0,0,0c0.9-0.3,1.8-0.5,2.7-0.9c0.6-0.2,1.2-0.4,1.9-0.7
		c0.7-0.3,1.4-0.6,2.1-0.9l0,0c0,0,0,0,0,0c0,0,0,0,0,0c0,0,0.1,0,0.1,0c0.6-0.3,1.1-0.5,1.7-0.8c0,0,0,0,0,0c0,0,0,0,0,0
		c0.5-0.3,1-0.5,1.6-0.8c0.6-0.3,1.1-0.6,1.7-1c0.4-0.2,0.8-0.5,1.2-0.7c0,0,0,0,0,0c0.1,0.1,0.2,0.1,0.2,0.2
		c-0.2,0.2-0.3,0.5-0.5,0.7c-0.2,0.4-0.5,0.8-0.7,1.2c-0.3,0.6-0.6,1.1-0.9,1.7c-0.3,0.5-0.5,1-0.8,1.6c-0.3,0.6-0.6,1.2-0.8,1.8
		c-0.3,0.7-0.6,1.4-0.8,2.1c-0.2,0.6-0.5,1.2-0.7,1.9c-0.2,0.6-0.3,1.2-0.5,1.7c0,0,0,0,0,0c-0.1,0.2-0.1,0.4-0.2,0.6
		c0,0.1-0.1,0.3-0.1,0.4c0,0,0,0,0,0.1c-0.1,0.3-0.2,0.6-0.2,0.9c0,0,0,0,0,0c-0.1,0.3-0.2,0.7-0.2,1c-0.2,0.8-0.3,1.6-0.4,2.4
		c0,0-0.1,0-0.1-0.1c-0.1,0.7-0.2,1.4-0.2,2.1c0,0,0.1,0.1,0.1,0.1c0,0.4-0.1,0.8-0.1,1.1c0,1.1,0,2.2,0,3.3c-0.1,0-0.2-0.1-0.2-0.1
		c0,0.7,0.1,1.5,0.1,2.2c0.1,0.1,0.2,0.1,0.3,0.1c0,0.4,0.1,0.8,0.1,1.2c0.2,1.5,0.5,2.9,0.9,4.4c-0.1-0.1-0.3-0.1-0.4-0.2
		c0.2,0.8,0.4,1.6,0.6,2.3c0.2,0.1,0.3,0.1,0.5,0.2c0.1,0.4,0.3,0.9,0.4,1.3c0.7,1.9,1.5,3.7,2.5,5.5c-0.2-0.1-0.5-0.2-0.7-0.2
		c0.4,0.8,0.8,1.6,1.2,2.4c0.3,0.1,0.5,0.2,0.8,0.2c0.2,0.4,0.5,0.8,0.7,1.3c0.9,1.4,1.8,2.8,2.9,4.3c1.7,2.3,3.9,4.1,6,5.9
		c3.5,2.9,7.1,5.8,8.9,11.2l1.5,4.4l1.5-4.4c1.8-5.4,5.4-8.3,8.8-11.1c2.1-1.7,4.3-3.5,6-5.8c1.3-1.7,2.4-3.4,3.4-5.1
		c0.5-0.8,0.9-1.6,1.3-2.4c1.2-2.3,2.2-4.6,2.9-7c0.3-0.8,0.5-1.6,0.7-2.4c0.5-1.9,0.8-3.8,1-5.7c0.1-0.8,0.1-1.5,0.1-2.3
		c0.1-1.5,0-3-0.1-4.5c-0.1-0.7-0.1-1.4-0.2-2.1c-0.2-1.2-0.4-2.3-0.7-3.5c-0.1-0.7-0.3-1.3-0.5-2c-0.3-0.9-0.6-1.8-0.9-2.7
		c-0.2-0.6-0.5-1.2-0.7-1.8c-0.3-0.7-0.6-1.4-0.9-2.1c-0.3-0.6-0.6-1.2-0.9-1.8c-0.3-0.5-0.6-1.1-0.9-1.6c-0.3-0.6-0.6-1.1-1-1.7
		c-0.2-0.4-0.5-0.8-0.7-1.2c-0.2-0.2-0.3-0.5-0.5-0.8c0.3,0.2,0.7,0.4,1,0.6c0,0-0.1,0.1-0.1,0.1c0.6,0.3,1.1,0.7,1.7,1
		c0,0,0.1-0.1,0.1-0.1c0,0,0,0,0,0c0.5,0.3,1,0.6,1.5,0.8c0,0-0.1,0.1-0.1,0.1c0.6,0.3,1.2,0.6,1.7,0.9c0,0,0.1-0.1,0.1-0.1
		c0,0,0,0,0,0c0.7,0.3,1.4,0.6,2,0.9c0,0-0.1,0.1-0.1,0.2c0.6,0.3,1.2,0.5,1.8,0.7c0-0.1,0.1-0.1,0.1-0.2c0,0,0,0,0,0
		c0.9,0.3,1.8,0.6,2.7,0.9c0,0.1-0.1,0.1-0.1,0.2c0.7,0.2,1.3,0.4,2,0.5c0-0.1,0.1-0.1,0.1-0.2c0,0,0,0,0,0c1.2,0.3,2.3,0.5,3.4,0.6
		c0,0-0.1,0.1-0.1,0.2c0.7,0.1,1.4,0.2,2.1,0.2c0,0,0.1-0.1,0.1-0.1c0,0,0,0,0.1,0c1.1,0.1,2.1,0.1,3.2,0.1c0.4,0,0.8,0,1.2,0
		c0,0-0.1,0.1-0.1,0.1c0.7,0,1.5-0.1,2.2-0.1c0,0,0-0.1,0.1-0.1c0,0,0,0,0.1,0c1.9-0.2,3.7-0.5,5.6-0.9c0,0,0,0.1-0.1,0.1
		c0.8-0.2,1.6-0.4,2.4-0.6c0,0,0-0.1,0.1-0.1c0,0,0.1,0,0.1,0c2.3-0.7,4.5-1.6,6.8-2.7c0,0,0,0.1,0,0.1c0.8-0.4,1.6-0.8,2.4-1.3
		c0,0,0,0,0-0.1c0,0,0.1,0,0.1-0.1c2-1.1,4-2.4,5.9-3.8c2.3-1.7,4.1-3.8,5.9-5.9c2.9-3.4,5.8-6.9,11.2-8.8l4.4-1.5L175.6,87.9z
		 M118.4,109.5c-0.7-0.3-1.3-0.5-2-0.8c0,0,0,0,0,0c3.9-5.4,6.1-12,6.1-19.2c0-6.9-2.1-13.3-5.8-18.6c0,0,0,0,0-0.1
		c0.1,0,0.1-0.1,0.2-0.1c0.6-0.3,1.2-0.5,1.8-0.8c0,0,0,0,0,0.1c3.7,5.6,5.9,12.3,5.9,19.5C124.7,96.9,122.4,103.8,118.4,109.5z
		 M108.1,113.7c0.1,0.2,0.2,0.4,0.3,0.6c-0.2,0.1-0.3,0.2-0.5,0.4c-5.2,3.8-11.6,6.1-18.5,6.1c-6.6,0-12.8-2.1-17.8-5.6c0,0,0,0,0,0
		c0.1-0.2,0.2-0.5,0.3-0.7c0.1-0.3,0.3-0.5,0.4-0.8c0,0,0,0,0,0C77.2,117,83,119,89.4,119c6.6,0,12.8-2.2,17.7-5.9
		c0.1-0.1,0.3-0.2,0.4-0.3C107.7,113.1,107.9,113.4,108.1,113.7z M109.7,117c0.1,0.3,0.3,0.7,0.4,1c-0.2,0.1-0.4,0.3-0.6,0.4
		c-5.7,4-12.7,6.3-20.1,6.3c-7.2,0-13.9-2.2-19.5-5.9c0.1-0.4,0.3-0.8,0.4-1.2c0.1-0.3,0.3-0.6,0.4-0.9c0,0,0,0,0,0
		c5.3,3.6,11.7,5.8,18.6,5.8c7.2,0,13.9-2.3,19.3-6.2c0.2-0.1,0.3-0.3,0.5-0.4C109.4,116.3,109.5,116.7,109.7,117z M111.2,120.9
		c0.2,0.5,0.3,1,0.5,1.5c-0.2,0.2-0.5,0.3-0.7,0.5c-6.2,4-13.6,6.4-21.6,6.4c-7.6,0-14.8-2.2-20.8-5.9c0.1-0.6,0.3-1.1,0.5-1.7
		c0.1-0.3,0.2-0.6,0.3-0.9c5.8,3.7,12.7,5.9,20.1,5.9c7.7,0,14.8-2.4,20.8-6.4c0.2-0.1,0.4-0.3,0.6-0.4
		C110.9,120.2,111.1,120.5,111.2,120.9z M107.9,151c-0.5,0.1-1,0.3-1.4,0.4c-5.4,1.5-11.2,2.3-17.1,2.3c-5.5,0-10.8-0.7-15.9-2
		c-1.1-1.8-2-3.6-2.7-5.3c-0.2-0.4-0.3-0.8-0.5-1.2c6,2.1,12.5,3.2,19.2,3.2c7.1,0,13.9-1.3,20.2-3.6c0.4-0.2,0.9-0.3,1.3-0.5
		c-0.2,0.5-0.3,0.9-0.5,1.4C109.8,147.5,108.9,149.3,107.9,151z M110.4,142.5c-6.5,2.6-13.6,4-21,4c-7,0-13.8-1.3-20-3.6
		c-0.5-1.4-0.9-2.9-1.1-4.3c-0.1-0.4-0.1-0.8-0.2-1.2c6.5,2.9,13.7,4.6,21.4,4.6c8,0,15.5-1.8,22.3-5c0,0,0,0,0,0c0,0,0,0,0,0
		C111.4,138.8,111,140.7,110.4,142.5c0.4-0.2,0.8-0.4,1.3-0.5c0,0,0,0,0,0C111.3,142.2,110.8,142.3,110.4,142.5z M67.6,131.9
		c0-0.4,0-0.7,0-1.1c6.5,3.5,13.9,5.4,21.8,5.4c8.2,0,15.9-2.1,22.6-5.9c0,0,0,0,0,0c0,0,0,0,0,0c0.1,1.5,0,2.9-0.1,4.4
		c-6.8,3.4-14.4,5.3-22.5,5.3c-7.7,0-15.1-1.8-21.6-4.9C67.6,134.1,67.6,133,67.6,131.9z M89.4,131.2c8.1,0,15.6-2.3,22-6.3
		c0.2,1.2,0.4,2.3,0.5,3.4c0,0,0,0,0,0c-6.6,3.9-14.3,6.1-22.5,6.1c-7.9,0-15.3-2-21.7-5.6c0.1-0.8,0.2-1.6,0.3-2.4
		c0-0.3,0.1-0.7,0.2-1C74.4,129,81.6,131.2,89.4,131.2z M106.2,111.5c-4.7,3.6-10.5,5.7-16.8,5.7c-6,0-11.6-1.9-16.1-5.2
		c0,0,0,0,0,0c0.1-0.1,0.1-0.2,0.2-0.4c0.2-0.3,0.3-0.5,0.5-0.8c0,0,0,0,0,0c4.3,3.2,9.7,5,15.5,5c6.1,0,11.7-2.1,16.1-5.5
		c0.1-0.1,0.2-0.2,0.4-0.3c0.2,0.3,0.4,0.6,0.6,0.9c0,0.1,0.1,0.1,0.1,0.2C106.5,111.3,106.3,111.4,106.2,111.5z M67.8,106.8
		C67.8,106.8,67.8,106.8,67.8,106.8c-3.8-4.7-6.1-10.8-6.1-17.3c0-6.2,2-11.9,5.5-16.5c0,0,0,0,0,0c0.4,0.2,0.8,0.4,1.1,0.6
		c0,0,0,0,0,0c0,0,0,0,0,0C65,78.1,63,83.6,63,89.5c0,6.3,2.2,12.1,5.9,16.6c0,0,0,0,0,0C68.6,106.4,68.2,106.6,67.8,106.8z
		 M64.9,89.5c0-5.6,1.9-10.7,5-14.9c0,0,0,0,0,0c0,0,0,0,0,0c0.3,0.2,0.5,0.3,0.8,0.5c-3.1,4-4.9,9-4.9,14.4c0,5.7,2.1,11,5.5,15.1
		c-0.3,0.2-0.5,0.4-0.8,0.5C67,100.9,64.9,95.4,64.9,89.5z M81.9,84.2L81.9,84.2c0.2,0,0.3,0.1,0.4,0.1c0.2,0,0.3,0.1,0.5,0.2
		c0.2,0.1,0.4,0.1,0.5,0.2c0.2,0.1,0.3,0.1,0.5,0.2c0.1,0.1,0.3,0.1,0.4,0.2c0.2,0.1,0.3,0.1,0.4,0.2c0.1,0,0.2,0.1,0.3,0.2
		c0.1,0.1,0.3,0.2,0.4,0.2c0.1,0,0.1,0.1,0.2,0.1c0.1,0.1,0.3,0.2,0.4,0.3c0.2,0.2,0.4,0.3,0.7,0.5c-0.2-0.2-0.3-0.4-0.5-0.7
		c-0.1-0.1-0.2-0.3-0.3-0.4c0-0.1-0.1-0.1-0.1-0.2c-0.1-0.1-0.2-0.3-0.2-0.4c-0.1-0.1-0.1-0.2-0.2-0.3c-0.1-0.1-0.2-0.3-0.2-0.4
		c-0.1-0.1-0.1-0.3-0.2-0.4c-0.1-0.1-0.1-0.3-0.2-0.5c-0.1-0.2-0.1-0.4-0.2-0.6c0-0.1-0.1-0.3-0.1-0.4c0,0,0,0,0,0
		c-3.3-3.3-6-6.6-8.3-9.9c3.7-2.9,8.3-4.6,13.3-4.6c5.3,0,10.2,1.9,14,5.2c-2.1,2.9-4.6,5.8-7.4,8.7l0,0c0,0,0,0,0,0
		c-0.1,0.2-0.1,0.5-0.2,0.7c0,0.2-0.1,0.3-0.2,0.5c-0.1,0.2-0.1,0.4-0.2,0.5c-0.1,0.2-0.1,0.3-0.2,0.5c-0.1,0.1-0.1,0.3-0.2,0.4
		c-0.1,0.1-0.2,0.3-0.2,0.4c-0.1,0.1-0.1,0.2-0.2,0.3c-0.1,0.1-0.2,0.3-0.3,0.4c0,0.1-0.1,0.1-0.1,0.2c-0.1,0.1-0.2,0.3-0.3,0.4
		c-0.1,0.2-0.2,0.3-0.3,0.5c0.1-0.1,0.3-0.2,0.4-0.3c0.1-0.1,0.3-0.2,0.4-0.3l0.2-0.1c0.1-0.1,0.3-0.2,0.4-0.3
		c0.1-0.1,0.2-0.1,0.3-0.2c0.1-0.1,0.3-0.2,0.4-0.2c0.1-0.1,0.3-0.1,0.4-0.2c0.1-0.1,0.3-0.1,0.5-0.2c0.2-0.1,0.3-0.2,0.5-0.2
		c0.2-0.1,0.3-0.1,0.5-0.2c0.1,0,0.2-0.1,0.3-0.1c0,0,0.1-0.1,0.1-0.1c0,0,0,0,0,0c0,0,0,0,0,0c0,0,0.1-0.1,0.1-0.1c0,0,0,0,0-0.1
		c2.8-2.8,5.7-5.2,8.5-7.3c0,0,0,0,0,0c2.7,3.6,4.2,8.1,4.2,12.9v0.1c0,0.2,0,0.4,0,0.7c-0.2,4.7-1.9,9.1-4.6,12.6
		c-2.4-1.7-4.8-3.8-7.2-6c-0.3-0.3-0.6-0.6-0.8-0.9c0,0,0,0,0-0.1c0,0-0.1-0.1-0.1-0.1c0,0-0.1,0-0.1,0c0,0-0.1-0.1-0.1-0.1
		c0,0,0,0,0,0c-0.1,0-0.2-0.1-0.3-0.1c-0.2-0.1-0.3-0.1-0.5-0.2c-0.2-0.1-0.4-0.1-0.5-0.2c-0.1-0.1-0.3-0.1-0.5-0.2l-0.4-0.2
		c-0.1-0.1-0.3-0.2-0.4-0.2c-0.1-0.1-0.2-0.1-0.3-0.2c-0.1-0.1-0.3-0.2-0.4-0.3l-0.2-0.2c-0.1-0.1-0.3-0.2-0.4-0.3
		c-0.1-0.1-0.2-0.2-0.4-0.3c0.1,0.1,0.2,0.2,0.3,0.4c0.1,0.1,0.2,0.3,0.3,0.4l0.1,0.2c0.1,0.1,0.2,0.3,0.3,0.4
		c0.1,0.1,0.1,0.2,0.2,0.3c0.1,0.1,0.2,0.3,0.2,0.4c0.1,0.1,0.1,0.3,0.2,0.4c0.1,0.2,0.1,0.3,0.2,0.5c0.1,0.2,0.2,0.4,0.2,0.5
		c0.1,0.1,0.1,0.3,0.2,0.5c0.1,0.2,0.1,0.5,0.2,0.7c0,0,0,0.1,0,0.1c0.1,0.1,0.3,0.2,0.4,0.4c2.5,2.5,4.7,5.1,6.7,7.7
		c-0.1,0.1-0.2,0.2-0.3,0.2c-3.5,2.8-7.9,4.5-12.7,4.7c-0.2,0-0.3,0-0.5,0c-0.1,0-0.2,0-0.4,0c-4.8,0-9.3-1.6-12.9-4.2c0,0,0,0,0,0
		c2.2-3.1,4.9-6.1,7.9-9.2c0,0,0,0,0,0c0-0.1,0.1-0.3,0.1-0.4c0.1-0.2,0.1-0.4,0.2-0.6c0.1-0.2,0.1-0.3,0.2-0.5
		c0.1-0.1,0.1-0.3,0.2-0.4c0.1-0.1,0.2-0.3,0.2-0.4c0-0.1,0.1-0.2,0.2-0.3c0.1-0.1,0.2-0.3,0.2-0.4c0-0.1,0.1-0.2,0.1-0.2
		c0.1-0.1,0.2-0.3,0.3-0.4c0.2-0.2,0.3-0.4,0.5-0.7c-0.2,0.2-0.5,0.3-0.7,0.5c-0.1,0.1-0.3,0.2-0.4,0.3c-0.1,0.1-0.1,0.1-0.2,0.1
		c-0.2,0.1-0.3,0.2-0.4,0.2c-0.1,0.1-0.2,0.1-0.3,0.2c-0.1,0.1-0.3,0.2-0.5,0.2c-0.1,0.1-0.3,0.1-0.4,0.2c-0.2,0.1-0.3,0.1-0.5,0.2
		c-0.2,0.1-0.4,0.1-0.6,0.2c-0.2,0.1-0.3,0.1-0.5,0.2c-0.1,0-0.3,0.1-0.4,0.1c-0.3,0.3-0.5,0.6-0.8,0.9c-2.7,2.6-5.4,4.9-8.2,6.9
		c-3.2-3.8-5.2-8.7-5.2-14c0-5,1.7-9.6,4.6-13.3C75.5,78.4,78.7,81.1,81.9,84.2z M73.6,68.4C73.6,68.4,73.6,68.4,73.6,68.4
		c-0.2-0.4-0.4-0.8-0.6-1.2c0,0,0,0,0,0c4.6-3.4,10.3-5.4,16.5-5.4c6.5,0,12.6,2.3,17.3,6.1c0,0,0,0,0,0c-0.2,0.4-0.4,0.8-0.7,1.1
		c0,0,0,0,0,0c-4.5-3.7-10.3-5.9-16.6-5.9C83.5,63.1,78,65.1,73.6,68.4z M108.4,64.7c-0.2,0.5-0.5,1-0.8,1.5c0,0,0,0,0,0
		c-5-3.9-11.4-6.3-18.2-6.3c-6.5,0-12.5,2.1-17.3,5.6c-0.3-0.5-0.5-1.1-0.7-1.6c5.1-3.6,11.3-5.8,18.1-5.8
		C96.5,58.3,103.1,60.7,108.4,64.7C108.4,64.7,108.4,64.7,108.4,64.7z M109.1,75c3,4.1,4.7,9.1,4.7,14.5c0,5.6-1.9,10.8-5.1,15
		c-0.3-0.2-0.5-0.3-0.8-0.5c0,0,0,0,0,0c3.1-4,5-9,5-14.4c0-5.2-1.7-10-4.6-13.9c0,0,0,0,0,0c0.1,0,0.1-0.1,0.2-0.1
		C108.7,75.3,108.9,75.1,109.1,75C109.1,75,109.1,75,109.1,75z M74.9,109.1c0.2-0.2,0.3-0.5,0.5-0.7c0,0,0,0,0,0
		c3.9,2.9,8.7,4.6,13.9,4.6c5.5,0,10.6-1.9,14.6-5.1c0.1-0.1,0.2-0.2,0.3-0.3c0.2,0.3,0.4,0.5,0.6,0.8c-0.1,0.1-0.2,0.2-0.3,0.3
		c-4.2,3.3-9.4,5.2-15.1,5.2c-5.4,0-10.4-1.8-14.5-4.7C74.9,109.2,74.9,109.2,74.9,109.1C74.9,109.2,74.9,109.2,74.9,109.1z
		 M115.8,89.5c0-5.8-1.9-11.1-5-15.5c0,0,0,0,0,0c0.1,0,0.1-0.1,0.2-0.1c0.3-0.2,0.6-0.4,0.9-0.6c0,0,0,0,0,0
		c3.3,4.5,5.2,10.1,5.2,16.1c0,6.2-2.1,12-5.6,16.6c-0.4-0.2-0.7-0.4-1.1-0.7c0,0,0,0,0,0C113.7,101,115.8,95.5,115.8,89.5z
		 M118.9,89.5c0-6.3-2-12.2-5.4-17.1c0,0,0,0,0,0c0.1,0,0.1-0.1,0.2-0.1c0.5-0.2,0.9-0.5,1.4-0.7c0,0,0,0,0,0
		c3.5,5.1,5.6,11.2,5.6,17.8c0,6.9-2.2,13.2-6,18.4c-0.5-0.2-1-0.5-1.5-0.8c0,0,0,0,0,0C116.8,102.2,118.9,96.1,118.9,89.5z
		 M110.7,59.1c-6-4.2-13.4-6.7-21.3-6.7c-7.4,0-14.4,2.2-20.2,6c0,0,0,0,0,0c-0.3-0.9-0.5-1.8-0.7-2.7c6.1-3.7,13.2-5.9,20.8-5.9
		c8.2,0,15.7,2.5,22.1,6.7c0,0,0,0,0,0C111.2,57.3,111,58.2,110.7,59.1C110.7,59.1,110.7,59.1,110.7,59.1
		C110.7,59.1,110.7,59.1,110.7,59.1z M112.5,48.9c-6.8-3.9-14.7-6.1-23.1-6.1c-7.8,0-15.1,1.9-21.6,5.3c0-1.5,0.1-3,0.3-4.4
		c0,0,0,0,0,0c6.5-3,13.7-4.7,21.3-4.7c8.3,0,16.1,2,23,5.5c0,0,0,0,0,0C112.5,45.9,112.6,47.4,112.5,48.9
		C112.5,48.9,112.5,48.9,112.5,48.9C112.5,48.9,112.5,48.9,112.5,48.9z M74.3,27c4.8-1.2,9.9-1.8,15.1-1.8c6,0,11.8,0.8,17.3,2.4
		c0,0,0,0,0,0c1.3,2.2,2.4,4.5,3.3,6.7c0,0,0,0,0,0c-6.4-2.4-13.3-3.7-20.6-3.7c-6.5,0-12.7,1-18.5,3c0,0,0,0,0,0
		C71.8,31.4,73,29.2,74.3,27C74.3,27,74.3,27,74.3,27z M82.1,18.1c2.9-2.4,6-5,8.2-9.2c2.2,4.1,5.3,6.7,8.1,9.1
		c2,1.7,3.9,3.3,5.3,5.2c0.5,0.7,0.9,1.3,1.4,2c-5.1-1.3-10.4-1.9-15.9-1.9c-4.7,0-9.2,0.5-13.6,1.4c0.3-0.4,0.6-0.9,0.9-1.3
		C78.2,21.5,80.1,19.9,82.1,18.1z M70,35.9C70,35.9,70,35.9,70,35.9c6.1-2.2,12.6-3.4,19.4-3.4c7.6,0,14.8,1.5,21.4,4.2c0,0,0,0,0,0
		c0.6,1.9,1,3.7,1.3,5.6c0,0,0,0,0,0c-6.9-3.3-14.6-5.2-22.7-5.2c-7.4,0-14.5,1.6-20.9,4.4c0,0,0,0,0,0C68.8,39.6,69.3,37.7,70,35.9
		z M67.8,50.2C67.8,50.2,67.8,50.2,67.8,50.2C67.8,50.2,67.8,50.2,67.8,50.2c6.4-3.5,13.8-5.5,21.6-5.5c8.4,0,16.3,2.3,23,6.3
		c0,0,0,0,0,0c0,0,0,0,0,0c-0.1,1.2-0.3,2.3-0.5,3.5c0,0,0,0,0,0c0,0,0,0,0,0c-6.5-4.2-14.2-6.6-22.5-6.6c-7.7,0-15,2.1-21.2,5.8
		c0,0,0,0,0,0C68,52.5,67.9,51.3,67.8,50.2z M69.8,60.2c5.6-3.8,12.3-6,19.6-6c7.7,0,14.8,2.5,20.6,6.7c0,0,0,0,0,0
		c-0.3,0.7-0.5,1.4-0.8,2.1c0,0,0,0,0,0c-5.5-4.1-12.4-6.6-19.8-6.6c-7,0-13.5,2.2-18.8,5.9c0,0,0,0,0,0c0,0,0,0,0,0
		C70.3,61.6,70,60.9,69.8,60.2C69.8,60.2,69.8,60.2,69.8,60.2z M74.5,70c4.1-3.2,9.3-5,14.9-5c5.9,0,11.4,2.1,15.6,5.7
		c-0.2,0.3-0.3,0.5-0.5,0.8C100.4,68,95.1,66,89.4,66C84,66,79,67.8,75.1,70.9C74.9,70.6,74.7,70.3,74.5,70L74.5,70z M50.9,112.5
		c-4-6.7-6.3-14.6-6.3-23c0-7.8,2-15.1,5.5-21.5c1.2,0.1,2.3,0.2,3.5,0.4c0,0,0,0,0,0c-3.7,6.2-5.8,13.5-5.8,21.2
		c0,8.3,2.4,16,6.6,22.5C53.2,112.2,52,112.4,50.9,112.5z M25.2,105.4c-0.7-0.4-1.3-0.9-2-1.4c-2-1.4-3.6-3.3-5.2-5.3
		c-2.4-2.8-5-5.9-9.1-8.1c4.2-2.2,6.8-5.4,9.2-8.2c1.7-2,3.3-3.9,5.3-5.4c0.4-0.3,0.9-0.6,1.3-0.9c-0.9,4.4-1.4,8.9-1.4,13.6
		C23.3,95,23.9,100.3,25.2,105.4C25.2,105.4,25.2,105.4,25.2,105.4C25.2,105.4,25.2,105.4,25.2,105.4z M34.2,110.1
		c-2.2-0.9-4.5-2-6.7-3.3c0,0,0,0,0,0c-1.5-5.5-2.4-11.3-2.4-17.3c0-5.2,0.6-10.2,1.8-15.1c0,0,0,0,0,0c2.2-1.4,4.4-2.5,6.6-3.4
		c0,0,0,0,0,0c-1.9,5.8-3,12-3,18.5C30.5,96.7,31.8,103.7,34.2,110.1L34.2,110.1C34.2,110.1,34.2,110.1,34.2,110.1z M36.5,110.9
		C36.5,110.9,36.5,110.9,36.5,110.9C36.5,110.9,36.5,110.9,36.5,110.9c-2.7-6.6-4.2-13.8-4.2-21.4c0-6.8,1.2-13.3,3.4-19.4
		c0,0,0,0,0,0c0,0,0,0,0,0c1.8-0.7,3.7-1.2,5.5-1.5c0,0,0,0,0,0c0,0,0,0,0,0c-2.8,6.4-4.4,13.5-4.4,20.9c0,8.1,1.9,15.8,5.2,22.7
		c0,0,0,0,0,0C40.2,111.9,38.4,111.5,36.5,110.9z M48.8,112.6c-1.5,0.1-3,0-4.4-0.1c0,0,0,0,0,0c-3.5-6.9-5.5-14.7-5.5-23
		c0-7.6,1.7-14.8,4.7-21.3h0c0,0,0,0,0,0h0c1.5-0.2,3-0.3,4.4-0.3c0,0,0,0,0,0c-3.4,6.5-5.3,13.8-5.3,21.6
		C42.7,97.9,44.9,105.8,48.8,112.6C48.8,112.6,48.8,112.6,48.8,112.6C48.8,112.6,48.8,112.6,48.8,112.6z M56.3,111.6
		C56.3,111.6,56.3,111.6,56.3,111.6c-4.2-6.3-6.7-13.9-6.7-22.1c0-7.6,2.2-14.8,5.9-20.8c0,0,0,0,0,0c0.9,0.2,1.8,0.4,2.7,0.7
		c0,0,0,0,0,0c0,0,0,0,0,0c-3.8,5.8-6,12.7-6,20.2c0,7.9,2.5,15.3,6.7,21.3c0,0,0,0,0,0C58.1,111.1,57.2,111.3,56.3,111.6z
		 M62.9,109.3c-0.7,0.3-1.4,0.6-2.1,0.8c0,0,0,0,0,0c-4.2-5.8-6.7-12.9-6.7-20.6c0-7.2,2.2-14,6-19.6c0,0,0,0,0,0
		c0.7,0.2,1.4,0.5,2.1,0.8c0,0,0,0,0,0c0,0,0,0,0,0c-3.7,5.3-5.9,11.8-5.9,18.8C56.3,96.9,58.7,103.8,62.9,109.3
		C62.9,109.3,62.9,109.3,62.9,109.3C62.9,109.3,62.9,109.3,62.9,109.3z M64.6,108.5c-4.1-5.3-6.5-11.9-6.5-19c0-6.7,2.1-13,5.8-18.1
		c0,0,0,0,0,0c0.5,0.2,1.1,0.5,1.6,0.7c0,0,0,0,0,0c0,0,0,0,0,0C62,77,59.9,83,59.9,89.5c0,6.9,2.4,13.2,6.3,18.2c0,0,0,0,0,0
		C65.6,108,65.1,108.3,64.6,108.5C64.6,108.5,64.6,108.5,64.6,108.5z M104.2,156.7c-1.5,2-3.4,3.6-5.4,5.2c-2.9,2.4-6.1,5-8.3,9.1
		c-2.3-4.2-5.5-6.8-8.4-9.2c-2.1-1.7-4-3.3-5.5-5.3c-0.3-0.4-0.6-0.9-0.9-1.3c-0.3-0.4-0.6-0.8-0.8-1.2c4.7,1.1,9.5,1.6,14.5,1.6
		c5.4,0,10.7-0.7,15.7-1.9c0.5-0.1,0.9-0.2,1.4-0.4c-0.3,0.4-0.5,0.9-0.8,1.3C105.2,155.4,104.7,156.1,104.2,156.7z M120.2,110.1
		c4-5.9,6.3-13,6.3-20.6c0-7.4-2.2-14.3-5.9-20.1c0,0,0,0,0-0.1c0.1,0,0.1,0,0.2-0.1c0.8-0.3,1.6-0.5,2.5-0.7c0,0,0,0.1,0.1,0.1
		c3.8,6.1,5.9,13.2,5.9,20.9c0,7.9-2.3,15.2-6.3,21.4C122,110.7,121.2,110.4,120.2,110.1C120.3,110.1,120.3,110.1,120.2,110.1z
		 M124.8,111.3c3.9-6.4,6.2-13.8,6.2-21.8c0-7.8-2.2-15.1-5.9-21.3c0,0,0-0.1-0.1-0.1c0.1,0,0.1,0,0.2,0c1.1-0.2,2.1-0.4,3.2-0.5
		c0,0,0,0.1,0.1,0.1c3.6,6.5,5.7,13.9,5.7,21.9c0,8.1-2.2,15.8-6,22.4C127.2,111.7,126,111.6,124.8,111.3
		C124.9,111.4,124.9,111.3,124.8,111.3z M130.4,112C130.4,112,130.4,112,130.4,112c3.6-6.7,5.7-14.4,5.7-22.5c0-8-2-15.5-5.5-22
		c0,0,0-0.1-0.1-0.1c0.1,0,0.1,0,0.2,0c1.4-0.1,2.8-0.1,4.1,0c0,0.1,0.1,0.1,0.1,0.2c3.2,6.6,5,14.1,5,22c0,8-1.9,15.6-5.2,22.4
		C133.3,112,131.9,112.1,130.4,112z M136.9,111.7c3.2-6.7,4.9-14.2,4.9-22.2c0-7.7-1.7-15.1-4.7-21.7c0-0.1-0.1-0.1-0.1-0.2
		c0.1,0,0.1,0,0.2,0c1.7,0.2,3.5,0.6,5.2,1.1c0,0.1,0.1,0.1,0.1,0.2c2.5,6.4,3.8,13.3,3.8,20.6c0,7.4-1.4,14.4-4,20.9
		C140.6,111,138.8,111.4,136.9,111.7C137,111.6,137,111.6,136.9,111.7z M144.7,109.6c2.3-6.3,3.5-13.1,3.5-20.1
		c0-6.9-1.2-13.6-3.4-19.8c0-0.1-0.1-0.1-0.1-0.2c0.1,0,0.1,0,0.2,0.1c2.1,0.8,4.3,1.7,6.4,2.9c0,0.1,0.1,0.2,0.1,0.3
		c1.5,5.3,2.2,11,2.2,16.8c0,5.9-0.8,11.6-2.3,17c-2.2,1.2-4.3,2.3-6.5,3.1C144.8,109.6,144.8,109.6,144.7,109.6z M162,97.7
		c-1.7,2-3.3,4-5.3,5.4c-1,0.7-1.9,1.4-2.9,2c0,0-0.1,0.1-0.1,0.1c1.2-5,1.9-10.2,1.9-15.6c0-5.3-0.6-10.5-1.8-15.4
		c0-0.1,0-0.2-0.1-0.3c0.1,0,0.1,0.1,0.2,0.1c1,0.6,2,1.3,3,2c2,1.4,3.6,3.3,5.2,5.3c2.4,2.8,5,5.9,9.1,8.1
		C167,91.7,164.4,94.8,162,97.7z"/>
	<path d="M86.7,84.7c0,0.1,0.1,0.1,0.1,0.2c0.1,0.1,0.2,0.3,0.3,0.4c0.7,1,1.6,2.1,2.7,3.1c0.1,0.1,0.2,0.2,0.3,0.3l0.1-0.1
		c0.3-0.3,0.6-0.5,0.8-0.8l0.2-0.2c0.7-0.7,1.3-1.5,1.9-2.2c0.1-0.1,0.2-0.3,0.3-0.4l0.1-0.2c0.1-0.1,0.2-0.3,0.2-0.4
		c0.1-0.1,0.1-0.2,0.2-0.3c0.1-0.1,0.2-0.3,0.2-0.4c0-0.1,0.1-0.1,0.1-0.2c0,0,0,0,0,0l0,0c0,0,0-0.1,0.1-0.1
		c0.1-0.1,0.1-0.3,0.2-0.4c0.1-0.2,0.1-0.3,0.2-0.5c0.1-0.1,0.1-0.3,0.2-0.4c0.1-0.2,0.1-0.4,0.2-0.6c0-0.2,0.1-0.3,0.1-0.5
		c0.1-0.3,0.1-0.6,0.1-0.8c0-0.2,0-0.3,0-0.5c0-0.3,0-0.7,0-1c0-0.2,0-0.4-0.1-0.5c-0.1-0.4-0.2-0.9-0.3-1.3
		c-0.1-0.2-0.1-0.4-0.2-0.6c-0.2-0.5-0.5-1.1-0.8-1.6c-0.1-0.2-0.2-0.4-0.4-0.5c-0.1-0.2-0.2-0.3-0.3-0.5c-0.3-0.4-0.8-0.8-1.2-1.2
		c-0.5-0.4-1.2-1-1.7-1.7c-0.5,0.7-1.1,1.2-1.7,1.7c-0.5,0.4-0.9,0.8-1.3,1.2c-0.1,0.1-0.2,0.2-0.2,0.3c-0.1,0.2-0.2,0.4-0.4,0.5
		c-0.3,0.5-0.6,1-0.8,1.6c-0.1,0.2-0.1,0.4-0.2,0.5c-0.2,0.4-0.3,0.9-0.4,1.3c0,0.2-0.1,0.3-0.1,0.5c0,0.4-0.1,0.7-0.1,1.1
		c0,0.2,0,0.3,0,0.5c0,0.3,0,0.6,0.1,0.8c0,0.2,0.1,0.3,0.1,0.5c0,0.2,0.1,0.4,0.2,0.6c0,0.1,0.1,0.3,0.1,0.4
		c0.1,0.2,0.1,0.3,0.2,0.5c0.1,0.1,0.1,0.3,0.2,0.4c0.1,0.1,0.1,0.3,0.2,0.4c0.1,0.1,0.1,0.3,0.2,0.4c0,0.1,0.1,0.2,0.2,0.3
		c0,0,0,0,0,0C86.5,84.5,86.6,84.6,86.7,84.7C86.7,84.7,86.7,84.7,86.7,84.7z"/>
	<path d="M72.4,91.8c0.4,0.5,0.8,0.9,1.2,1.3c0.2,0.1,0.3,0.2,0.5,0.3c0.2,0.1,0.4,0.2,0.6,0.4c0.5,0.3,1.1,0.6,1.6,0.8
		c0.2,0.1,0.4,0.1,0.6,0.2c0.4,0.1,0.9,0.2,1.3,0.3c0.2,0,0.3,0,0.5,0.1c0.3,0,0.7,0,1.1,0c0.2,0,0.3,0,0.5,0c0.3,0,0.5-0.1,0.8-0.1
		c0.2,0,0.3-0.1,0.5-0.1c0.2,0,0.4-0.1,0.6-0.2c0.1,0,0.3-0.1,0.4-0.2c0.2-0.1,0.3-0.1,0.5-0.2c0.1-0.1,0.3-0.1,0.4-0.2
		c0,0,0.1,0,0.1,0c0,0,0.1,0,0.1-0.1c0.1,0,0.1-0.1,0.2-0.1c0.1-0.1,0.3-0.1,0.4-0.2c0.1-0.1,0.2-0.1,0.3-0.2
		c0.1-0.1,0.3-0.2,0.4-0.2l0.1-0.1l0.1,0c0.1-0.1,0.2-0.2,0.4-0.3c0.7-0.5,1.4-1.1,2.1-1.8c0.1-0.1,0.2-0.2,0.2-0.2
		c0.2-0.2,0.4-0.4,0.6-0.6c0,0,0.1-0.1,0.1-0.1c0.1-0.1,0.1-0.1,0.2-0.2c-0.1-0.1-0.1-0.1-0.2-0.2c0,0-0.1-0.1-0.1-0.1
		c-0.2-0.2-0.4-0.4-0.6-0.6c-0.8-0.8-1.7-1.6-2.5-2.2c-0.1-0.1-0.2-0.2-0.4-0.2l-0.2-0.1c-0.1-0.1-0.3-0.2-0.4-0.2
		c-0.1-0.1-0.2-0.1-0.3-0.2c-0.1-0.1-0.2-0.1-0.3-0.2c0,0,0,0-0.1,0s0,0-0.1,0c-0.1,0-0.2-0.1-0.3-0.1c-0.1-0.1-0.3-0.1-0.4-0.2
		c-0.2-0.1-0.3-0.1-0.5-0.2c-0.2,0-0.3-0.1-0.4-0.1c-0.2-0.1-0.4-0.1-0.6-0.2c-0.2,0-0.3-0.1-0.5-0.1c-0.3,0-0.6-0.1-0.8-0.1
		c-0.2,0-0.3,0-0.5,0c-0.4,0-0.7,0-1.1,0.1c-0.2,0-0.3,0.1-0.5,0.1c-0.4,0.1-0.9,0.2-1.3,0.4c-0.2,0.1-0.4,0.1-0.5,0.2
		c-0.5,0.2-1,0.5-1.6,0.8c-0.2,0.1-0.4,0.2-0.5,0.4l-0.3,0.2c-0.5,0.3-0.8,0.8-1.2,1.3c-0.5,0.6-1,1.2-1.7,1.7
		C71.5,90.7,72,91.3,72.4,91.8z"/>
	<path d="M93.3,95l-0.1-0.2c-0.1-0.1-0.2-0.2-0.3-0.4c-0.5-0.7-1.2-1.5-1.9-2.2c-0.3-0.3-0.5-0.5-0.8-0.8c0,0-0.1-0.1-0.1-0.1
		c-0.1,0.1-0.2,0.2-0.3,0.3c-0.2,0.2-0.5,0.4-0.7,0.6c-0.8,0.8-1.4,1.5-2,2.3c-0.1,0.1-0.2,0.2-0.3,0.4l-0.1,0.2
		c-0.1,0.1-0.2,0.3-0.2,0.4c-0.1,0.1-0.1,0.2-0.1,0.3c0,0,0,0,0,0c-0.1,0.1-0.2,0.3-0.2,0.4c-0.1,0.1-0.1,0.2-0.2,0.4
		c-0.1,0.2-0.1,0.3-0.2,0.4c-0.1,0.2-0.1,0.3-0.2,0.5c-0.1,0.1-0.1,0.3-0.2,0.4c-0.1,0.2-0.1,0.4-0.2,0.6c0,0.2-0.1,0.3-0.1,0.5
		c-0.1,0.3-0.1,0.5-0.1,0.8c0,0.2,0,0.3,0,0.5c0,0.3,0,0.7,0,1c0,0.2,0,0.3,0.1,0.5c0.1,0.4,0.2,0.9,0.3,1.3
		c0.1,0.2,0.1,0.4,0.2,0.5c0.2,0.5,0.4,1.1,0.7,1.6c0.1,0.2,0.2,0.4,0.3,0.6c0.2,0.2,0.3,0.5,0.5,0.7c0.3,0.4,0.8,0.8,1.3,1.2
		c0.6,0.5,1.2,1,1.7,1.7c0.5-0.7,1.2-1.2,1.7-1.7c0.5-0.4,0.9-0.8,1.3-1.2c0.2-0.2,0.3-0.5,0.5-0.7c0.1-0.2,0.2-0.4,0.3-0.6
		c0.3-0.5,0.6-1.1,0.8-1.6c0.1-0.2,0.1-0.4,0.2-0.6c0.1-0.4,0.2-0.9,0.3-1.3c0-0.2,0-0.3,0.1-0.5c0-0.3,0-0.7,0-1c0-0.2,0-0.3,0-0.5
		c0-0.3-0.1-0.5-0.1-0.8c0-0.2-0.1-0.3-0.1-0.5c-0.1-0.2-0.1-0.4-0.2-0.6c0-0.1-0.1-0.3-0.2-0.4c-0.1-0.2-0.1-0.3-0.2-0.5
		c0-0.1-0.1-0.2-0.1-0.3c0-0.1,0-0.1-0.1-0.2l-0.1-0.1c0-0.1-0.1-0.2-0.1-0.2c-0.1-0.1-0.1-0.3-0.2-0.4c-0.1-0.1-0.1-0.2-0.2-0.3
		C93.5,95.3,93.4,95.2,93.3,95z"/>
	<path d="M92.3,89.2c-0.2,0.2-0.5,0.5-0.7,0.8c0,0-0.1,0.1-0.1,0.1c0,0,0.1,0.1,0.1,0.1c0.3,0.3,0.5,0.6,0.8,0.8
		c0.7,0.7,1.5,1.4,2.2,1.9c0.1,0.1,0.2,0.2,0.4,0.3l0.2,0.1c0.1,0.1,0.3,0.2,0.4,0.3l0,0l0.2,0.1c0.1,0.1,0.3,0.1,0.4,0.2
		c0.1,0.1,0.3,0.1,0.4,0.2c0.1,0.1,0.3,0.1,0.4,0.2c0.2,0.1,0.3,0.1,0.5,0.2c0.2,0.1,0.3,0.1,0.4,0.2c0.2,0.1,0.4,0.1,0.6,0.2
		c0.2,0,0.3,0.1,0.4,0.1c0.3,0.1,0.6,0.1,0.8,0.1c0.2,0,0.3,0,0.5,0c0.3,0,0.7,0,1,0c0.2,0,0.3,0,0.5-0.1c0.4-0.1,0.9-0.2,1.3-0.3
		c0.2-0.1,0.4-0.1,0.6-0.2c0.5-0.2,1.1-0.5,1.6-0.8c0.2-0.1,0.4-0.2,0.6-0.3c0.2-0.2,0.5-0.3,0.7-0.5c0.5-0.3,0.8-0.8,1.2-1.3
		c0.5-0.6,1-1.2,1.7-1.7c-0.7-0.5-1.2-1.1-1.7-1.7c-0.4-0.5-0.8-0.9-1.2-1.2c-0.2-0.2-0.5-0.3-0.7-0.5c-0.2-0.1-0.4-0.2-0.5-0.3
		c-0.5-0.3-1.1-0.5-1.6-0.7c-0.2-0.1-0.4-0.1-0.5-0.2c-0.4-0.1-0.9-0.2-1.3-0.3c-0.2,0-0.3,0-0.5-0.1c-0.3,0-0.7,0-1,0
		c-0.2,0-0.3,0-0.5,0c-0.3,0-0.5,0.1-0.8,0.1c-0.2,0-0.3,0.1-0.5,0.1c-0.2,0.1-0.4,0.1-0.6,0.2c-0.1,0.1-0.3,0.1-0.4,0.2
		c-0.2,0.1-0.3,0.1-0.5,0.2c-0.1,0.1-0.3,0.1-0.4,0.2c-0.1,0.1-0.3,0.1-0.4,0.2c-0.1,0.1-0.3,0.1-0.4,0.2c0,0,0,0-0.1,0l-0.2,0.1
		c0,0,0,0,0,0c-0.1,0.1-0.3,0.2-0.4,0.3l-0.2,0.1c-0.1,0.1-0.2,0.2-0.4,0.3c-0.7,0.5-1.4,1.1-2.1,1.8L92.3,89.2z"/>
	<path d="M117.3,115.6c-0.3-0.3-0.8-0.5-1.2-0.3c-0.2,0-0.4,0.2-0.6,0.3c-0.2,0.2-0.3,0.4-0.3,0.6c-0.1,0.4,0,0.9,0.3,1.3
		c0.3,0.3,0.8,0.5,1.3,0.3l0.3,0.3l1.3,1.3l2.3,2.3l1.3,1.3l1.2,1.2l0.9-0.9l-1.2-1.2l-1.3-1.3l-2.3-2.3l-1.3-1.3l-0.3-0.3
		C117.8,116.5,117.7,116,117.3,115.6z"/>
	<path d="M130.3,131.9C130.3,131.9,130.3,131.9,130.3,131.9C130.3,131.8,130.2,131.9,130.3,131.9c-0.4,0-0.8,0.1-1.2,0.1
		c-0.1,0-0.1,0-0.2,0c0,0,0,0-0.1,0c-0.1,0-0.1,0-0.2,0c-0.3,0-0.6,0.1-1,0.2c-0.2,0-0.5,0.1-0.7,0.1c-1.8,0.4-3.5,0.9-5.1,1.6
		c-0.1,0.7,0,1.5,0.1,2.2c0.1,0.5,0.3,1.1,0.6,1.6l-4.1,2c-0.5-0.3-1.2-0.2-1.6,0.2c-0.4,0.4-0.5,1.1-0.2,1.6c0,0.1,0.1,0.1,0.2,0.2
		c0.5,0.5,1.3,0.5,1.8,0c0.3-0.3,0.4-0.6,0.4-1l4-2l-0.3-0.6c0.3,0.4,0.6,0.8,0.9,1.2l7.8-7.8C131.2,131.8,130.7,131.8,130.3,131.9
		L130.3,131.9z"/>
	<path d="M116.8,145.7c-0.4-0.1-0.9,0-1.3,0.3c-0.5,0.5-0.5,1.3,0,1.8l8.2-8.2l-0.4-0.4L116.8,145.7z"/>
	<path d="M138.8,123.3l2-4c0.3,0,0.7-0.1,1-0.4c0.5-0.5,0.5-1.3,0-1.8c-0.1-0.1-0.1-0.1-0.2-0.2c-0.5-0.3-1.2-0.3-1.6,0.2
		c-0.4,0.4-0.5,1.1-0.2,1.6l-2,4.1c-0.5-0.3-1-0.4-1.6-0.6c-0.7-0.2-1.5-0.2-2.2-0.1c-0.7,1.5-1.3,3.2-1.6,5.1
		c-0.2,1.1-0.4,2.2-0.5,3.3l0,0c0,0.4-0.1,0.9-0.1,1.3l7.8-7.8c-0.4-0.4-0.8-0.7-1.2-1L138.8,123.3z"/>
	<path d="M145.9,115.6c-0.3,0.3-0.5,0.8-0.3,1.3l-6.4,6.4l0.4,0.4l8.2-8.2C147.2,115.1,146.4,115.1,145.9,115.6z"/>
	<path d="M33.3,63.8c0.3-0.4,0.5-0.9,0.3-1.3l6.4-6.4l-0.4-0.4l-8.2,8.2C31.9,64.3,32.8,64.3,33.3,63.8z"/>
	<path d="M62.4,33.7c0.4,0.1,0.9,0,1.3-0.3c0.5-0.5,0.5-1.3,0-1.8l-8.2,8.2l0.4,0.4L62.4,33.7z"/>
	<path d="M33.6,116.9c0.1-0.4,0-0.9-0.3-1.3c-0.5-0.5-1.3-0.5-1.8,0l8.2,8.2l0.4-0.4L33.6,116.9z"/>
	<path d="M62.4,145.7l-6.4-6.4l-0.4,0.4l8.2,8.2c0.5-0.5,0.5-1.3,0-1.8C63.3,145.7,62.8,145.6,62.4,145.7z"/>
	<path d="M56,138.9l4,2c0,0.3,0.1,0.7,0.4,1c0.5,0.5,1.3,0.5,1.8,0c0,0,0,0,0.1-0.1c0.4-0.5,0.4-1.3-0.1-1.8
		c-0.4-0.4-1.1-0.5-1.6-0.2l-4.1-2c0.2-0.4,0.4-0.9,0.5-1.3c0.2-0.8,0.3-1.6,0.2-2.5c-1.7-0.8-3.6-1.4-5.6-1.7
		c-1-0.2-2.1-0.4-3.3-0.5c-0.3,0-0.6-0.1-0.9-0.1l7.8,7.8c0.4-0.4,0.7-0.8,1-1.2L56,138.9z"/>
	<path d="M116.8,33.7l6.4,6.4l0.4-0.4l-8.2-8.2c-0.5,0.5-0.5,1.3,0,1.8C115.9,33.7,116.4,33.8,116.8,33.7z"/>
	<path d="M123.2,40.5l-4-2c0-0.3-0.1-0.7-0.4-1c-0.5-0.5-1.3-0.5-1.8,0c0,0,0,0,0,0c-0.5,0.5-0.5,1.3,0,1.8c0.4,0.4,1.1,0.5,1.6,0.2
		l4.1,2c-0.2,0.4-0.4,0.8-0.5,1.2c-0.2,0.8-0.3,1.7-0.2,2.6c1.7,0.8,3.6,1.4,5.6,1.8c1,0.2,2.1,0.4,3.2,0.5c0.3,0,0.6,0.1,0.9,0.1
		l-7.8-7.8c-0.4,0.4-0.7,0.8-0.9,1.2L123.2,40.5z"/>
	<path d="M145.6,62.5c-0.1,0.4,0,0.9,0.3,1.3c0.5,0.5,1.3,0.5,1.8,0l-8.2-8.2l-0.4,0.4L145.6,62.5z"/>
	<path d="M40.8,56.3l-0.4-0.2L38.4,60c0,0-0.1,0.1-0.1,0.1c-0.3,0-0.7,0.1-0.9,0.4c-0.4,0.4-0.5,1.1-0.2,1.6c0,0.1,0.1,0.1,0.2,0.2
		c0.5,0.5,1.3,0.5,1.8,0c0,0,0,0,0,0c0.2-0.2,0.3-0.4,0.3-0.6c0.1-0.3,0-0.7-0.1-1l2-4.1c0.3,0.2,0.7,0.3,1,0.4
		c0.9,0.3,1.8,0.4,2.8,0.3c0.8-1.8,1.5-3.9,1.8-6.1c0.2-1,0.3-2,0.4-3.1c0-0.2,0-0.3,0-0.5l-7.8,7.8C40.1,55.8,40.4,56.1,40.8,56.3
		C40.8,56.3,40.8,56.3,40.8,56.3z"/>
	<path d="M131.2,128.2c-0.3-1.9-0.8-3.7-1.4-5.3c-0.1-0.3-0.3-0.7-0.4-1c-0.4,0-0.8,0-1.1,0c-0.9,0.1-1.8,0.3-2.7,0.7l-1.1-2.3
		l-0.9-1.8c0,0,0,0,0-0.1c0.3-0.5,0.2-1.1-0.2-1.5c-0.5-0.5-1.3-0.5-1.8,0c-0.5,0.5-0.5,1.3,0,1.8c0.3,0.3,0.6,0.4,1,0.4l0.2,0.4
		l0.9,1.8l0.9,1.9l0.6-0.3c-0.4,0.3-0.9,0.6-1.2,1c-0.4,0.4-0.7,0.8-1,1.2l0.3-0.6l-1.9-0.9l-1.8-0.9c-0.4,0.3-0.7,0.6-1.1,0.9
		c0,0,0,0,0.1,0l1.8,0.9l2.3,1.1c-0.4,0.8-0.7,1.7-0.7,2.7c0,0.4,0,0.8,0,1.1c0.3,0.1,0.7,0.3,1,0.4c1.6,0.6,3.4,1.1,5.3,1.4h0
		c0,0,0,0,0,0c0.1,0,0.3,0.1,0.4,0.1c0,0,0.1,0,0.1,0c0,0,0,0,0.1,0c0.1,0,0.2,0,0.3,0c0.1,0,0.1,0,0.2,0c0,0,0.1,0,0.1,0
		c0.1,0,0.2,0,0.2,0c0.2,0,0.3,0,0.5,0.1c0.1,0,0.2,0,0.4,0c0,0,0,0,0,0c0.4,0,0.7,0.1,1.1,0.1h0v0c0-0.4-0.1-0.7-0.1-1.1
		C131.4,129.8,131.3,129,131.2,128.2z"/>
	<path d="M47.9,50.5c0.3,1.9,0.7,3.7,1.3,5.4c0.2,0.5,0.4,1.1,0.6,1.6c0.1,0,0.3,0,0.4,0c1.2,0,2.3-0.2,3.4-0.8
		c0.2-0.1,0.3-0.2,0.5-0.3c0.4-0.3,0.9-0.6,1.2-1c0.4-0.4,0.7-0.8,1-1.2L56,54.8l1.3,0.7c-0.2,0.2-0.4,0.3-0.5,0.5
		c-0.3,0.3-0.6,0.6-0.9,0.9c-0.2,0.2-0.3,0.4-0.5,0.5c-0.3,0.3-0.6,0.7-0.9,1l0.9,1.8l0.3,0.5c-0.3,0.5-0.2,1.2,0.2,1.6
		c0.5,0.5,1.3,0.5,1.8,0c0.5-0.5,0.5-1.3,0-1.8c-0.3-0.3-0.6-0.4-1-0.4l-0.4-0.9c0.3-0.3,0.6-0.7,1-1l2.3,2.3l1.3,1.3l0.7,0.7
		c-0.1,0.4,0,0.9,0.3,1.3c0.1,0.1,0.3,0.3,0.5,0.3c0.4,0.1,1,0,1.3-0.3c0.4-0.4,0.5-0.9,0.3-1.3c-0.1-0.2-0.2-0.4-0.3-0.5
		c-0.3-0.3-0.8-0.5-1.3-0.3l-0.7-0.7l-1.3-1.3l-2.3-2.3c0.3-0.3,0.7-0.6,1-1l0.9,0.4c0,0.3,0.1,0.7,0.4,1c0.5,0.5,1.3,0.5,1.8,0
		c0.5-0.5,0.5-1.3,0-1.8c-0.4-0.4-1.1-0.5-1.6-0.2l-0.5-0.3l-1.8-0.9l-1.7-0.9c0.5-1.1,0.8-2.2,0.8-3.4c0-0.1,0-0.3,0-0.4
		c-0.5-0.2-1-0.4-1.6-0.6c-1.6-0.6-3.4-1-5.4-1.3c-0.1,0-0.2,0-0.3,0c-0.2,0-0.5-0.1-0.7-0.1c-0.1,0-0.1,0-0.2,0c0,0-0.1,0-0.1,0
		c-0.1,0-0.1,0-0.2,0c-0.1,0-0.2,0-0.4,0c-0.2,0-0.3,0-0.5,0h0c-0.1,0-0.3,0-0.4,0h0v0c0,0.1,0,0.3,0,0.4
		C47.7,48.9,47.7,49.7,47.9,50.5z"/>
	<path d="M49.9,47.4c0.2,0,0.3,0,0.5-0.1c0.3,0,0.5-0.1,0.8-0.1c2.3-0.4,4.3-1,6.1-1.8c0.1-0.9,0-1.9-0.3-2.8c0-0.1-0.1-0.2-0.1-0.3
		c0-0.1,0-0.1-0.1-0.2c-0.1-0.2-0.1-0.3-0.2-0.5l4.1-2c0.3,0.2,0.7,0.2,1,0.1c0.2,0,0.4-0.1,0.6-0.3c0,0,0,0,0,0
		c0.5-0.5,0.5-1.3,0-1.8c-0.1-0.1-0.1-0.1-0.2-0.2c-0.5-0.3-1.2-0.3-1.6,0.2c-0.3,0.3-0.4,0.6-0.4,1c0,0-0.1,0-0.1,0.1L56,40.5
		l0.2,0.4c0,0,0,0,0,0c-0.2-0.4-0.5-0.7-0.8-1l-7.8,7.8c0.2,0,0.3,0,0.5,0C48.7,47.6,49.3,47.5,49.9,47.4z"/>
	<path d="M50.7,131.4c1.9-0.3,3.7-0.8,5.3-1.4c0.4-0.2,0.9-0.3,1.3-0.5c0-0.3,0-0.5,0-0.8c0-1-0.3-2-0.8-3l2-1l1.8-0.9l0.2-0.1
		c0.5,0.3,1.2,0.2,1.6-0.2c0.5-0.5,0.5-1.3,0-1.8c-0.5-0.5-1.3-0.5-1.8,0c-0.3,0.3-0.4,0.6-0.4,1l-0.6,0.3l-1.8,0.9l-1.6,0.8
		l0.3,0.6c-0.3-0.4-0.6-0.8-1-1.2c-0.4-0.4-0.8-0.7-1.2-1l0.6,0.3l0.8-1.6l0.9-1.8l0.3-0.6c0.3,0,0.7-0.1,1-0.4
		c0.5-0.5,0.5-1.3,0-1.8c-0.5-0.5-1.3-0.5-1.8,0c-0.4,0.4-0.5,1.1-0.2,1.6l-0.1,0.3l-0.9,1.8l-1,2c-1-0.5-2-0.7-3-0.8
		c-0.2,0-0.5,0-0.8,0c-0.2,0.4-0.4,0.9-0.5,1.3c-0.6,1.6-1.1,3.4-1.4,5.3c-0.1,0.8-0.2,1.6-0.3,2.4c0,0.2,0,0.5-0.1,0.8v0
		c0.3,0,0.5,0,0.8-0.1C49.1,131.6,49.9,131.5,50.7,131.4z"/>
	<path d="M47,127.6L47,127.6L47,127.6c-0.4-2.1-1-4-1.8-5.7c-0.9-0.1-1.7,0-2.6,0.2c-0.4,0.1-0.8,0.3-1.2,0.5l-2-4.1
		c0.3-0.5,0.2-1.2-0.2-1.6c-0.5-0.5-1.3-0.5-1.8,0c0,0,0,0,0,0c-0.5,0.5-0.4,1.3,0,1.8c0.3,0.3,0.6,0.4,1,0.4l2,4L41,123
		c-0.4,0.3-0.8,0.6-1.2,1l7.8,7.8c0-0.3,0-0.6-0.1-0.9C47.4,129.7,47.2,128.6,47,127.6z"/>
	<path d="M128.5,48c-1.9,0.3-3.7,0.8-5.3,1.4c-0.5,0.2-0.9,0.3-1.3,0.5c0,0.2,0,0.5,0,0.7c0,1,0.3,2.1,0.8,3
		c0.1,0.2,0.2,0.3,0.3,0.5l0,0c0.3,0.4,0.6,0.9,1,1.2c0.4,0.4,0.8,0.7,1.2,1l-0.6-0.3l-0.8,1.6c-0.2-0.2-0.4-0.4-0.6-0.6
		c-0.3-0.3-0.6-0.6-0.9-0.9c-0.2-0.2-0.4-0.4-0.6-0.6c-0.3-0.3-0.6-0.6-1-0.9l-1.8,0.9l-0.3,0.1c-0.5-0.3-1.2-0.2-1.6,0.2
		c-0.5,0.5-0.5,1.3,0,1.8c0.5,0.5,1.3,0.5,1.8,0c0.3-0.3,0.4-0.6,0.4-1l0.6-0.3c0.4,0.3,0.7,0.7,1.1,1l-2.3,2.3l-1.3,1.3l-0.5,0.5
		c-0.4-0.1-0.9,0-1.3,0.3c-0.2,0.2-0.4,0.5-0.4,0.8c0,0.4,0.1,0.7,0.4,1c0.3,0.3,0.6,0.4,1,0.4c0.3,0,0.6-0.1,0.8-0.4
		c0.3-0.3,0.5-0.8,0.3-1.3l0.5-0.5l0,0l1.3-1.3l0,0l2.3-2.3l0,0c0.3,0.4,0.7,0.7,1,1.1l-0.3,0.6c-0.3,0-0.7,0.1-1,0.4
		c-0.5,0.5-0.5,1.3,0,1.8c0.5,0.5,1.3,0.5,1.8,0c0.4-0.4,0.5-1.1,0.2-1.6l0.1-0.2l0.9-1.8l1-2c0.9,0.5,2,0.7,3,0.8
		c0.3,0,0.5,0,0.8,0c0.2-0.4,0.4-0.8,0.5-1.3c0.6-1.6,1.1-3.4,1.4-5.3c0,0,0,0,0,0c0-0.1,0-0.2,0.1-0.4c0-0.1,0-0.3,0-0.4
		c0-0.2,0.1-0.5,0.1-0.7c0-0.3,0.1-0.5,0.1-0.8c0,0,0,0,0-0.1c0-0.3,0-0.5,0.1-0.8l0,0c-0.3,0-0.5,0-0.8,0.1
		C130,47.8,129.3,47.9,128.5,48z"/>
	<path d="M131.7,48.7c0,0,0,0.1,0,0.1c0,0,0,0,0,0c0,0.1,0,0.2,0,0.4c0,0.2,0,0.4,0.1,0.7c0,0.1,0,0.2,0,0.4c0,0.2,0,0.3,0.1,0.5
		c0,0,0,0,0,0.1c0,0,0,0,0,0.1c0,0.1,0,0.3,0.1,0.4c0,0.2,0.1,0.4,0.1,0.5c0,0,0,0,0,0c0.4,2,1,3.9,1.7,5.6c0.8,0.1,1.7,0,2.5-0.2
		c0.5-0.1,0.9-0.3,1.3-0.5l2,4.1c-0.3,0.5-0.2,1.2,0.2,1.6c0.5,0.5,1.3,0.5,1.8,0.1c0,0,0,0,0.1-0.1c0.5-0.5,0.5-1.3,0-1.8
		c-0.3-0.3-0.6-0.4-1-0.4l-2-4l-0.6,0.3c0.4-0.3,0.9-0.6,1.2-1l-7.8-7.8c0,0.3,0,0.6,0.1,0.9C131.7,48.6,131.7,48.7,131.7,48.7z"/>
	<path d="M62.7,115.2c-0.3,0-0.6,0.1-0.8,0.4c-0.4,0.3-0.5,0.8-0.3,1.3l-6.4,6.4l0.9,0.9l1.1-1.1l1.3-1.3l2.3-2.3l1.3-1.3l0.5-0.5
		c0.4,0.1,0.9,0,1.3-0.3c0.2-0.2,0.4-0.5,0.4-0.8c0-0.4-0.1-0.7-0.4-1C63.4,115.3,63,115.2,62.7,115.2z"/>
</g>
</svg>
