<?xml version="1.0" encoding="utf-8"?>
<!-- Generator: Adobe Illustrator 25.2.1, SVG Export Plug-In . SVG Version: 6.00 Build 0)  -->
<svg version="1.1" id="Layer_1" xmlns="http://www.w3.org/2000/svg" xmlns:xlink="http://www.w3.org/1999/xlink" x="0px" y="0px"
	 viewBox="0 0 180 180" style="enable-background:new 0 0 180 180;" xml:space="preserve">
<style type="text/css">
	.st0{fill:#010101;}
	.st1{clip-path:url(#SVGID_2_);}
	.st2{clip-path:url(#SVGID_4_);}
	.st3{fill-rule:evenodd;clip-rule:evenodd;}
	.st4{clip-path:url(#SVGID_6_);}
	.st5{clip-path:url(#SVGID_8_);}
	.st6{clip-path:url(#SVGID_10_);}
	.st7{fill:#FFFFFF;}
	.st8{clip-path:url(#SVGID_12_);}
</style>
<g>
	<path d="M105.2,27.2c-0.2-6.5-3.8-8.9-7.8-11.5c-2.2-1.4-4.6-3-6.4-5.4L90,9.1l-0.9,1.2c-1.9,2.4-4.2,4-6.4,5.4
		c-4,2.6-7.6,5-7.8,11.5l2.3,0.1c0.2-5.3,3.3-7.4,6.8-9.7c2-1.3,4.2-2.8,6.1-4.9c1.9,2.1,4.1,3.5,6.1,4.9c3.5,2.3,6.6,4.4,6.8,9.7
		L105.2,27.2z"/>
	<path d="M82.7,9.5c2.4-1.6,5-3.3,7.3-5.9c2.3,2.6,4.8,4.3,7.3,5.9c4.2,2.7,7.9,5.2,8.1,11.6l2.3-0.1c-0.2-7.6-4.4-10.3-9.1-13.4
		c-2.6-1.7-5.4-3.5-7.6-6.4L90,0l-0.9,1.2c-2.2,2.9-5,4.7-7.6,6.4c-4.7,3.1-8.9,5.8-9.1,13.4l2.3,0.1C74.8,14.7,78.6,12.2,82.7,9.5z
		"/>
	<path d="M90,15.6c-0.5,0-0.9,0.4-0.9,0.9c0,0.5,0.4,0.9,0.9,0.9c0.5,0,0.9-0.4,0.9-0.9C90.9,16,90.5,15.6,90,15.6z"/>
	<path d="M91.8,19.1c0,0.9,0.7,1.6,1.6,1.6S95,20,95,19.1c0-0.9-0.7-1.6-1.6-1.6S91.8,18.2,91.8,19.1z"/>
	<path d="M95.3,21.8c0,0.9,0.7,1.6,1.6,1.6c0.9,0,1.6-0.7,1.6-1.6s-0.7-1.6-1.6-1.6C96.1,20.2,95.3,20.9,95.3,21.8z"/>
	<path d="M85,19.1c0,0.9,0.7,1.6,1.6,1.6s1.6-0.7,1.6-1.6c0-0.9-0.7-1.6-1.6-1.6S85,18.2,85,19.1z"/>
	<path d="M79.1,24.6c0,0.5,0.4,0.9,0.9,0.9c0.5,0,0.9-0.4,0.9-0.9c0-0.5-0.4-0.9-0.9-0.9C79.5,23.6,79.1,24,79.1,24.6z"/>
	<path d="M99.1,24.6c0,0.5,0.4,0.9,0.9,0.9c0.5,0,0.9-0.4,0.9-0.9c0-0.5-0.4-0.9-0.9-0.9C99.5,23.6,99.1,24,99.1,24.6z"/>
	<path d="M81.5,21.8c0,0.9,0.7,1.6,1.6,1.6s1.6-0.7,1.6-1.6s-0.7-1.6-1.6-1.6S81.5,20.9,81.5,21.8z"/>
	<path d="M74.8,152.8c0.2,6.5,3.8,8.9,7.8,11.5c2.2,1.4,4.6,3,6.4,5.4l0.9,1.2l0.9-1.2c1.9-2.4,4.2-4,6.4-5.4c4-2.6,7.6-5,7.8-11.5
		l-2.3-0.1c-0.2,5.3-3.3,7.4-6.8,9.7c-2,1.3-4.2,2.8-6.1,4.9c-1.9-2.1-4.1-3.5-6.1-4.9c-3.5-2.3-6.6-4.4-6.8-9.7L74.8,152.8z"/>
	<path d="M97.3,170.5c-2.4,1.6-5,3.3-7.3,5.9c-2.3-2.6-4.8-4.3-7.3-5.9c-4.2-2.7-7.9-5.2-8.1-11.6l-2.3,0.1
		c0.2,7.6,4.4,10.3,9.1,13.4c2.6,1.7,5.4,3.5,7.6,6.4L90,180l0.9-1.2c2.2-2.9,5-4.7,7.6-6.4c4.7-3.1,8.9-5.8,9.1-13.4l-2.3-0.1
		C105.2,165.3,101.4,167.8,97.3,170.5z"/>
	<path d="M90,164.4c0.5,0,0.9-0.4,0.9-0.9c0-0.5-0.4-0.9-0.9-0.9c-0.5,0-0.9,0.4-0.9,0.9C89.1,164,89.5,164.4,90,164.4z"/>
	<path d="M98.5,158.2c0-0.9-0.7-1.6-1.6-1.6c-0.9,0-1.6,0.7-1.6,1.6c0,0.9,0.7,1.6,1.6,1.6C97.8,159.8,98.5,159.1,98.5,158.2z"/>
	<path d="M95,160.9c0-0.9-0.7-1.6-1.6-1.6s-1.6,0.7-1.6,1.6c0,0.9,0.7,1.6,1.6,1.6S95,161.8,95,160.9z"/>
	<path d="M80.9,155.4c0-0.5-0.4-0.9-0.9-0.9c-0.5,0-0.9,0.4-0.9,0.9s0.4,0.9,0.9,0.9C80.5,156.4,80.9,156,80.9,155.4z"/>
	<path d="M88.2,160.9c0-0.9-0.7-1.6-1.6-1.6S85,160,85,160.9c0,0.9,0.7,1.6,1.6,1.6S88.2,161.8,88.2,160.9z"/>
	<path d="M84.7,158.2c0-0.9-0.7-1.6-1.6-1.6s-1.6,0.7-1.6,1.6c0,0.9,0.7,1.6,1.6,1.6S84.7,159.1,84.7,158.2z"/>
	<path d="M100.9,155.4c0-0.5-0.4-0.9-0.9-0.9c-0.5,0-0.9,0.4-0.9,0.9s0.4,0.9,0.9,0.9C100.5,156.4,100.9,156,100.9,155.4z"/>
	<path d="M124,16.7c2.9-0.2,6-0.3,9.2-1.4c0.7,3.3,2.1,6.1,3.4,8.7c2.2,4.5,4.2,8.4,1.2,14l2,1.1c3.6-6.7,1.3-11.1-1.2-16.1
		c-1.4-2.8-2.9-5.8-3.4-9.4l-0.2-1.5l-1.4,0.6c-3.4,1.4-6.7,1.6-9.8,1.8c-5.6,0.3-10.6,0.6-14.6,7l1.9,1.2
		C114.5,17.2,119,16.9,124,16.7z"/>
	<path d="M120.9,24.3c2.4-0.1,5-0.3,7.7-1.2c0.6,2.8,1.7,5.1,2.8,7.3c1.9,3.8,3.6,7.1,1,11.8l2,1.1c3.1-5.7,1.2-9.6-1-13.9
		c-1.2-2.4-2.5-4.9-2.8-7.9l-0.2-1.5l-1.4,0.6c-2.8,1.2-5.7,1.3-8.3,1.5c-4.8,0.3-9.1,0.5-12.5,6.1l1.9,1.2
		C113,24.7,116.7,24.5,120.9,24.3z"/>
	<path d="M113.3,27.9c-0.3,0.4-0.1,1,0.3,1.3c0.4,0.3,1,0.1,1.3-0.3c0.3-0.4,0.1-1-0.3-1.3C114.1,27.3,113.5,27.4,113.3,27.9z"/>
	<path d="M127.6,26.8c0.3-0.4,0.1-1-0.3-1.3c-0.4-0.3-1-0.1-1.3,0.3c-0.3,0.4-0.1,1,0.3,1.3C126.7,27.4,127.3,27.2,127.6,26.8z"/>
	<path d="M127.6,31.7c0.8,0.4,1.7,0.2,2.2-0.6c0.4-0.8,0.2-1.7-0.6-2.2c-0.8-0.4-1.7-0.2-2.2,0.6C126.6,30.3,126.8,31.2,127.6,31.7z
		"/>
	<path d="M121.1,26.1c-0.4,0.8-0.2,1.7,0.6,2.2c0.8,0.4,1.7,0.2,2.2-0.6c0.4-0.8,0.2-1.7-0.6-2.2C122.5,25.1,121.6,25.4,121.1,26.1z
		"/>
	<path d="M116.7,26.7c-0.4,0.8-0.2,1.7,0.6,2.2c0.8,0.4,1.7,0.2,2.2-0.6c0.4-0.8,0.2-1.7-0.6-2.2C118.1,25.7,117.2,25.9,116.7,26.7z
		"/>
	<path d="M130.9,39.1c0.4,0.3,1,0.1,1.3-0.3c0.3-0.4,0.1-1-0.3-1.3c-0.4-0.3-1-0.1-1.3,0.3C130.3,38.3,130.5,38.9,130.9,39.1z"/>
	<path d="M129.3,35.8c0.8,0.4,1.7,0.2,2.2-0.6c0.4-0.8,0.2-1.7-0.6-2.2c-0.8-0.4-1.7-0.2-2.2,0.6C128.3,34.4,128.5,35.3,129.3,35.8z
		"/>
	<path d="M59.1,155.7c-2.4,0.1-5,0.3-7.7,1.2c-0.6-2.8-1.7-5.1-2.8-7.3c-1.9-3.8-3.6-7.1-1-11.8l-2-1.1c-3.1,5.7-1.2,9.6,1,13.9
		c1.2,2.4,2.5,4.9,2.8,7.9l0.2,1.5l1.4-0.6c2.8-1.2,5.7-1.3,8.3-1.5c4.8-0.3,9.1-0.5,12.5-6.1l-1.9-1.2
		C67,155.3,63.3,155.5,59.1,155.7z"/>
	<path d="M56,163.3c-2.9,0.2-6,0.3-9.2,1.4c-0.7-3.3-2.1-6.1-3.4-8.7c-2.2-4.5-4.2-8.4-1.2-14l-2-1.1c-3.6,6.7-1.3,11.1,1.2,16.1
		c1.4,2.8,2.9,5.8,3.4,9.4l0.2,1.5l1.4-0.6c3.4-1.4,6.7-1.6,9.8-1.8c5.6-0.3,10.6-0.6,14.6-7l-1.9-1.2C65.5,162.8,61,163.1,56,163.3
		z"/>
	<path d="M52.4,153.2c-0.3,0.4-0.1,1,0.3,1.3c0.4,0.3,1,0.1,1.3-0.3c0.3-0.4,0.1-1-0.3-1.3C53.3,152.6,52.7,152.8,52.4,153.2z"/>
	<path d="M52.4,148.3c-0.8-0.4-1.7-0.2-2.2,0.6c-0.4,0.8-0.2,1.7,0.6,2.2c0.8,0.4,1.7,0.2,2.2-0.6C53.4,149.7,53.2,148.8,52.4,148.3
		z"/>
	<path d="M49.1,140.9c-0.4-0.3-1-0.1-1.3,0.3c-0.3,0.4-0.1,1,0.3,1.3c0.4,0.3,1,0.1,1.3-0.3C49.7,141.7,49.5,141.1,49.1,140.9z"/>
	<path d="M66.7,152.1c0.3-0.4,0.1-1-0.3-1.3c-0.4-0.3-1-0.1-1.3,0.3c-0.3,0.4-0.1,1,0.3,1.3C65.9,152.7,66.5,152.6,66.7,152.1z"/>
	<path d="M50.7,144.2c-0.8-0.4-1.7-0.2-2.2,0.6c-0.4,0.8-0.2,1.7,0.6,2.2c0.8,0.4,1.7,0.2,2.2-0.6C51.7,145.6,51.5,144.7,50.7,144.2
		z"/>
	<path d="M63.3,153.3c0.4-0.8,0.2-1.7-0.6-2.2c-0.8-0.4-1.7-0.2-2.2,0.6c-0.4,0.8-0.2,1.7,0.6,2.2C61.9,154.3,62.8,154.1,63.3,153.3
		z"/>
	<path d="M58.9,153.9c0.4-0.8,0.2-1.7-0.6-2.2c-0.8-0.4-1.7-0.2-2.2,0.6c-0.4,0.8-0.2,1.7,0.6,2.2C57.5,154.9,58.4,154.6,58.9,153.9
		z"/>
	<path d="M142,42.2c5.6-3,9.6-1,14,1.2c2.6,1.3,5.4,2.7,8.7,3.4c-1.1,3.2-1.3,6.3-1.4,9.2c-0.3,5-0.5,9.4-6,12.8l1.2,1.9
		c6.4-4,6.7-9,7-14.6c0.2-3.1,0.4-6.4,1.8-9.8l0.6-1.4l-1.5-0.2c-3.6-0.5-6.6-2-9.4-3.4c-5-2.5-9.5-4.8-16.1-1.2L142,42.2z"/>
	<path d="M151.9,71.7c5.5-3.4,5.8-7.7,6.1-12.5c0.2-2.6,0.3-5.4,1.5-8.3l0.6-1.4l-1.5-0.2c-3.1-0.4-5.6-1.7-7.9-2.8
		c-4.3-2.2-8.1-4.1-13.9-1l1.1,2c4.7-2.5,8-0.8,11.8,1c2.2,1.1,4.5,2.3,7.3,2.8c-0.9,2.7-1,5.3-1.2,7.7c-0.2,4.2-0.5,7.9-5,10.7
		L151.9,71.7z"/>
	<path d="M151.7,58.3c0.4,0.8,1.4,1,2.2,0.6c0.8-0.4,1-1.4,0.6-2.2c-0.4-0.8-1.4-1-2.2-0.6C151.5,56.6,151.3,57.5,151.7,58.3z"/>
	<path d="M141.2,47.8c-0.4,0.3-0.6,0.8-0.3,1.3c0.3,0.4,0.8,0.6,1.3,0.3c0.4-0.3,0.6-0.8,0.3-1.3C142.2,47.7,141.7,47.6,141.2,47.8z
		"/>
	<path d="M151.2,62.7c0.4,0.8,1.4,1,2.2,0.6c0.8-0.4,1-1.4,0.6-2.2c-0.4-0.8-1.4-1-2.2-0.6C151,61,150.7,61.9,151.2,62.7z"/>
	<path d="M154.1,54c0.4-0.3,0.6-0.8,0.3-1.3c-0.3-0.4-0.8-0.6-1.3-0.3c-0.4,0.3-0.6,0.8-0.3,1.3C153.1,54.1,153.7,54.3,154.1,54z"/>
	<path d="M144.8,48.5c-0.8,0.4-1,1.4-0.6,2.2c0.4,0.8,1.4,1,2.2,0.6c0.8-0.4,1-1.4,0.6-2.2C146.5,48.3,145.6,48.1,144.8,48.5z"/>
	<path d="M150.9,66.4c0.3,0.4,0.8,0.6,1.3,0.3c0.4-0.3,0.6-0.8,0.3-1.3c-0.3-0.4-0.8-0.6-1.3-0.3C150.8,65.4,150.6,65.9,150.9,66.4z
		"/>
	<path d="M148.9,50.2c-0.8,0.4-1,1.4-0.6,2.2c0.4,0.8,1.4,1,2.2,0.6c0.8-0.4,1-1.4,0.6-2.2C150.6,50.1,149.7,49.8,148.9,50.2z"/>
	<path d="M38,137.8c-5.6,3-9.6,1-14-1.2c-2.6-1.3-5.4-2.7-8.7-3.4c1.1-3.2,1.3-6.3,1.4-9.2c0.3-5,0.5-9.4,6-12.8l-1.2-1.9
		c-6.4,4-6.7,9-7,14.6c-0.2,3.1-0.4,6.4-1.8,9.8l-0.6,1.4l1.5,0.2c3.6,0.5,6.6,2,9.4,3.4c5,2.5,9.5,4.8,16.1,1.2L38,137.8z"/>
	<path d="M28.1,108.3c-5.5,3.4-5.8,7.7-6.1,12.5c-0.2,2.6-0.3,5.4-1.5,8.3l-0.6,1.4l1.5,0.2c3.1,0.4,5.6,1.7,7.9,2.8
		c4.3,2.2,8.1,4.1,13.9,1l-1.1-2c-4.7,2.5-8,0.8-11.8-1c-2.2-1.1-4.5-2.3-7.3-2.8c0.9-2.7,1-5.3,1.2-7.7c0.2-4.2,0.5-7.9,5-10.7
		L28.1,108.3z"/>
	<path d="M31.1,129.8c0.8-0.4,1-1.4,0.6-2.2c-0.4-0.8-1.4-1-2.2-0.6c-0.8,0.4-1,1.4-0.6,2.2C29.4,129.9,30.3,130.2,31.1,129.8z"/>
	<path d="M28.3,121.7c-0.4-0.8-1.4-1-2.2-0.6c-0.8,0.4-1,1.4-0.6,2.2c0.4,0.8,1.4,1,2.2,0.6C28.5,123.4,28.7,122.5,28.3,121.7z"/>
	<path d="M25.9,126c-0.4,0.3-0.6,0.8-0.3,1.3c0.3,0.4,0.8,0.6,1.3,0.3c0.4-0.3,0.6-0.8,0.3-1.3C26.9,125.9,26.3,125.7,25.9,126z"/>
	<path d="M35.2,131.5c0.8-0.4,1-1.4,0.6-2.2c-0.4-0.8-1.4-1-2.2-0.6c-0.8,0.4-1,1.4-0.6,2.2C33.5,131.7,34.4,131.9,35.2,131.5z"/>
	<path d="M28.8,117.3c-0.4-0.8-1.4-1-2.2-0.6c-0.8,0.4-1,1.4-0.6,2.2c0.4,0.8,1.4,1,2.2,0.6C29,119,29.3,118.1,28.8,117.3z"/>
	<path d="M29.1,113.6c-0.3-0.4-0.8-0.6-1.3-0.3c-0.4,0.3-0.6,0.8-0.3,1.3c0.3,0.4,0.8,0.6,1.3,0.3C29.2,114.6,29.4,114.1,29.1,113.6
		z"/>
	<path d="M38.8,132.2c0.4-0.3,0.6-0.8,0.3-1.3c-0.3-0.4-0.8-0.6-1.3-0.3c-0.4,0.3-0.6,0.8-0.3,1.3C37.8,132.3,38.3,132.4,38.8,132.2
		z"/>
	<path d="M164.3,97.3c1.4-2.2,3-4.6,5.4-6.4l1.2-0.9l-1.2-0.9c-2.4-1.9-4-4.2-5.4-6.4c-2.6-4-5-7.6-11.5-7.8l-0.1,2.3
		c5.3,0.2,7.4,3.3,9.7,6.8c1.3,2,2.8,4.2,4.9,6.1c-2.1,1.9-3.5,4.1-4.9,6.1c-2.3,3.5-4.4,6.6-9.7,6.8l0.1,2.3
		C159.3,104.9,161.6,101.4,164.3,97.3z"/>
	<path d="M178.8,89.1c-2.9-2.2-4.7-5-6.4-7.6c-3.1-4.7-5.8-8.9-13.4-9.1l-0.1,2.3c6.4,0.2,8.8,3.9,11.6,8.1c1.6,2.4,3.3,5,5.9,7.3
		c-2.6,2.3-4.3,4.8-5.9,7.3c-2.7,4.2-5.2,7.9-11.6,8.1l0.1,2.3c7.6-0.2,10.3-4.4,13.4-9.1c1.7-2.6,3.5-5.4,6.4-7.6L180,90
		L178.8,89.1z"/>
	<path d="M156.6,96.9c0,0.9,0.7,1.6,1.6,1.6s1.6-0.7,1.6-1.6s-0.7-1.6-1.6-1.6S156.6,96.1,156.6,96.9z"/>
	<path d="M164.4,90c0-0.5-0.4-0.9-0.9-0.9c-0.5,0-0.9,0.4-0.9,0.9s0.4,0.9,0.9,0.9C164,90.9,164.4,90.5,164.4,90z"/>
	<path d="M156.4,100c0-0.5-0.4-0.9-0.9-0.9c-0.5,0-0.9,0.4-0.9,0.9c0,0.5,0.4,0.9,0.9,0.9C156,100.9,156.4,100.5,156.4,100z"/>
	<path d="M154.5,80c0,0.5,0.4,0.9,0.9,0.9c0.5,0,0.9-0.4,0.9-0.9c0-0.5-0.4-0.9-0.9-0.9C154.9,79.1,154.5,79.5,154.5,80z"/>
	<path d="M159.3,93.4c0,0.9,0.7,1.6,1.6,1.6s1.6-0.7,1.6-1.6c0-0.9-0.7-1.6-1.6-1.6S159.3,92.5,159.3,93.4z"/>
	<path d="M160.9,88.2c0.9,0,1.6-0.7,1.6-1.6s-0.7-1.6-1.6-1.6s-1.6,0.7-1.6,1.6S160,88.2,160.9,88.2z"/>
	<path d="M158.2,81.5c-0.9,0-1.6,0.7-1.6,1.6s0.7,1.6,1.6,1.6s1.6-0.7,1.6-1.6S159.1,81.5,158.2,81.5z"/>
	<path d="M21.1,105.4c-6.4-0.2-8.8-3.9-11.6-8.1c-1.6-2.4-3.3-5-5.9-7.3c2.6-2.3,4.3-4.8,5.9-7.3c2.7-4.2,5.2-7.9,11.6-8.1L21,72.4
		c-7.6,0.2-10.3,4.4-13.4,9.1c-1.7,2.6-3.5,5.4-6.4,7.6L0,90l1.2,0.9c2.9,2.2,4.7,5,6.4,7.6c3.1,4.7,5.8,8.9,13.4,9.1L21.1,105.4z"
		/>
	<path d="M27.2,74.8c-6.5,0.2-8.9,3.8-11.5,7.8c-1.4,2.2-3,4.6-5.4,6.4L9.1,90l1.2,0.9c2.4,1.9,4,4.2,5.4,6.4c2.6,4,5,7.6,11.5,7.8
		l0.1-2.3c-5.3-0.2-7.4-3.3-9.7-6.8c-1.3-2-2.8-4.2-4.9-6.1c2.1-1.9,3.5-4.1,4.9-6.1c2.3-3.5,4.4-6.6,9.7-6.8L27.2,74.8z"/>
	<path d="M21.8,98.5c0.9,0,1.6-0.7,1.6-1.6s-0.7-1.6-1.6-1.6s-1.6,0.7-1.6,1.6S20.9,98.5,21.8,98.5z"/>
	<path d="M23.4,83.1c0-0.9-0.7-1.6-1.6-1.6s-1.6,0.7-1.6,1.6s0.7,1.6,1.6,1.6S23.4,83.9,23.4,83.1z"/>
	<circle cx="16.5" cy="90" r="0.9"/>
	<path d="M25.5,100c0-0.5-0.4-0.9-0.9-0.9s-0.9,0.4-0.9,0.9c0,0.5,0.4,0.9,0.9,0.9S25.5,100.5,25.5,100z"/>
	<path d="M20.7,86.6c0-0.9-0.7-1.6-1.6-1.6c-0.9,0-1.6,0.7-1.6,1.6s0.7,1.6,1.6,1.6C20,88.2,20.7,87.5,20.7,86.6z"/>
	<path d="M19.1,91.8c-0.9,0-1.6,0.7-1.6,1.6c0,0.9,0.7,1.6,1.6,1.6c0.9,0,1.6-0.7,1.6-1.6C20.7,92.5,20,91.8,19.1,91.8z"/>
	<path d="M23.6,80c0,0.5,0.4,0.9,0.9,0.9s0.9-0.4,0.9-0.9c0-0.5-0.4-0.9-0.9-0.9S23.6,79.5,23.6,80z"/>
	<path d="M136.8,134.5c5.7,3.1,9.6,1.2,13.9-1c2.4-1.2,4.9-2.5,7.9-2.8l1.5-0.2l-0.6-1.4c-1.2-2.8-1.3-5.7-1.5-8.3
		c-0.3-4.8-0.5-9.1-6.1-12.5l-1.2,1.9c4.5,2.8,4.7,6.5,5,10.7c0.1,2.4,0.3,5,1.2,7.7c-2.8,0.6-5.1,1.7-7.3,2.8
		c-3.8,1.9-7.1,3.6-11.8,1L136.8,134.5z"/>
	<path d="M165.6,123.8c-0.3-5.6-0.6-10.6-7-14.6l-1.2,1.9c5.4,3.4,5.7,7.8,6,12.8c0.2,2.9,0.3,6,1.4,9.2c-3.3,0.7-6.1,2.1-8.7,3.4
		c-4.5,2.2-8.4,4.2-14,1.2l-1.1,2c6.7,3.6,11.1,1.3,16.1-1.2c2.8-1.4,5.8-2.9,9.4-3.4l1.5-0.2l-0.6-1.4
		C166,130.3,165.8,126.9,165.6,123.8z"/>
	<path d="M147,130.9c0.4-0.8,0.2-1.7-0.6-2.2c-0.8-0.4-1.7-0.2-2.2,0.6c-0.4,0.8-0.2,1.7,0.6,2.2C145.6,131.9,146.5,131.7,147,130.9
		z"/>
	<path d="M151.1,129.2c0.4-0.8,0.2-1.7-0.6-2.2c-0.8-0.4-1.7-0.2-2.2,0.6c-0.4,0.8-0.2,1.7,0.6,2.2
		C149.7,130.2,150.6,129.9,151.1,129.2z"/>
	<path d="M151.7,119.5c0.8,0.4,1.7,0.2,2.2-0.6c0.4-0.8,0.2-1.7-0.6-2.2c-0.8-0.4-1.7-0.2-2.2,0.6C150.7,118.1,151,119,151.7,119.5z
		"/>
	<path d="M142.5,131.8c0.3-0.4,0.1-1-0.3-1.3c-0.4-0.3-1-0.1-1.3,0.3c-0.3,0.4-0.1,1,0.3,1.3C141.7,132.4,142.2,132.3,142.5,131.8z"
		/>
	<path d="M152.5,114.5c0.3-0.4,0.1-1-0.3-1.3c-0.4-0.3-1-0.1-1.3,0.3c-0.3,0.4-0.1,1,0.3,1.3C151.6,115.1,152.2,115,152.5,114.5z"/>
	<path d="M152.3,123.9c0.8,0.4,1.7,0.2,2.2-0.6c0.4-0.8,0.2-1.7-0.6-2.2c-0.8-0.4-1.7-0.2-2.2,0.6
		C151.3,122.5,151.5,123.4,152.3,123.9z"/>
	<path d="M154.1,126c-0.4-0.3-1-0.1-1.3,0.3c-0.3,0.4-0.1,1,0.3,1.3c0.4,0.3,1,0.1,1.3-0.3C154.7,126.8,154.6,126.2,154.1,126z"/>
	<path d="M43.2,45.5c-5.7-3.1-9.6-1.2-13.9,1c-2.4,1.2-4.9,2.5-7.9,2.8l-1.5,0.2l0.6,1.4c1.2,2.8,1.3,5.7,1.5,8.3
		c0.3,4.8,0.5,9.1,6.1,12.5l1.2-1.9c-4.5-2.8-4.7-6.5-5-10.7c-0.1-2.4-0.3-5-1.2-7.7c2.8-0.6,5.1-1.7,7.3-2.8
		c3.8-1.9,7.1-3.6,11.8-1L43.2,45.5z"/>
	<path d="M14.4,56.2c0.3,5.6,0.6,10.6,7,14.6l1.2-1.9c-5.4-3.4-5.7-7.8-6-12.8c-0.2-2.9-0.3-6-1.4-9.2c3.3-0.7,6.1-2.1,8.7-3.4
		c4.5-2.2,8.4-4.2,14-1.2l1.1-2c-6.7-3.6-11.1-1.3-16.1,1.2c-2.8,1.4-5.8,2.9-9.4,3.4L12.1,45l0.6,1.4C14,49.7,14.2,53.1,14.4,56.2z
		"/>
	<path d="M33,49.1c-0.4,0.8-0.2,1.7,0.6,2.2c0.8,0.4,1.7,0.2,2.2-0.6c0.4-0.8,0.2-1.7-0.6-2.2C34.4,48.1,33.5,48.3,33,49.1z"/>
	<path d="M28.3,60.5c-0.8-0.4-1.7-0.2-2.2,0.6c-0.4,0.8-0.2,1.7,0.6,2.2c0.8,0.4,1.7,0.2,2.2-0.6C29.3,61.9,29,61,28.3,60.5z"/>
	<path d="M37.5,48.2c-0.3,0.4-0.1,1,0.3,1.3c0.4,0.3,1,0.1,1.3-0.3c0.3-0.4,0.1-1-0.3-1.3S37.8,47.7,37.5,48.2z"/>
	<path d="M25.9,54c0.4,0.3,1,0.1,1.3-0.3c0.3-0.4,0.1-1-0.3-1.3c-0.4-0.3-1-0.1-1.3,0.3S25.4,53.8,25.9,54z"/>
	<path d="M27.5,65.5c-0.3,0.4-0.1,1,0.3,1.3c0.4,0.3,1,0.1,1.3-0.3c0.3-0.4,0.1-1-0.3-1.3C28.4,64.9,27.8,65,27.5,65.5z"/>
	<path d="M27.7,56.1c-0.8-0.4-1.7-0.2-2.2,0.6c-0.4,0.8-0.2,1.7,0.6,2.2c0.8,0.4,1.7,0.2,2.2-0.6C28.7,57.5,28.5,56.6,27.7,56.1z"/>
	<path d="M28.9,50.8c-0.4,0.8-0.2,1.7,0.6,2.2s1.7,0.2,2.2-0.6c0.4-0.8,0.2-1.7-0.6-2.2C30.3,49.8,29.4,50.1,28.9,50.8z"/>
	<path d="M137.8,142c3,5.6,1,9.6-1.2,14c-1.3,2.6-2.7,5.4-3.4,8.7c-3.2-1.1-6.3-1.3-9.2-1.4c-5-0.3-9.4-0.5-12.8-6l-1.9,1.2
		c4,6.4,9,6.7,14.6,7c3.1,0.2,6.4,0.4,9.8,1.8l1.4,0.6l0.2-1.5c0.5-3.6,2-6.6,3.4-9.4c2.5-5,4.8-9.5,1.2-16.1L137.8,142z"/>
	<path d="M120.8,158c2.6,0.2,5.4,0.3,8.3,1.5l1.4,0.6l0.2-1.5c0.4-3.1,1.7-5.6,2.8-7.9c2.2-4.3,4.1-8.1,1-13.9l-2,1.1
		c2.5,4.7,0.8,8-1,11.8c-1.1,2.2-2.3,4.5-2.8,7.3c-2.7-0.9-5.3-1-7.7-1.2c-4.2-0.2-7.9-0.5-10.7-5l-1.9,1.2
		C111.7,157.5,116,157.7,120.8,158z"/>
	<path d="M117.2,149.7c2.2,0.1,4.6,0.3,7,1.3l1.4,0.6l0.2-1.5c0.3-2.6,1.4-4.7,2.4-6.7c1.6-3.1,3-5.9,1.8-9.6
		c1.4-1.2,2.6-2.5,3.9-3.8c3.7,1.1,6.5-0.3,9.5-1.9c2-1,4.1-2.1,6.7-2.4l1.5-0.2l-0.6-1.4c-1-2.4-1.1-4.8-1.3-7
		c-0.2-3.3-0.4-6.4-2.9-8.9c0.6-1.8,1.1-3.7,1.5-5.6c3.5-1,5.1-3.5,7-6.3c1.2-1.9,2.5-3.9,4.6-5.4L161,90l-1.2-0.9
		c-2.1-1.6-3.4-3.6-4.6-5.4c-1.8-2.8-3.5-5.3-7-6.3c-0.4-1.9-0.9-3.8-1.5-5.6c2.5-2.6,2.7-5.6,2.9-8.9c0.1-2.2,0.3-4.6,1.3-7
		l0.6-1.4l-1.5-0.2c-2.6-0.3-4.7-1.4-6.7-2.4c-3.1-1.5-5.9-2.9-9.5-1.9c-1.2-1.3-2.5-2.6-3.9-3.8c1.1-3.7-0.3-6.5-1.8-9.6
		c-1-2-2.1-4.1-2.4-6.7l-0.2-1.5l-1.4,0.6c-2.4,1-4.8,1.1-7,1.3c-3.5,0.2-6.7,0.4-9.5,3.4c-1.6-0.5-3.3-0.9-4.9-1.3
		c-0.8-4-3.5-5.8-6.5-7.8c-1.9-1.2-3.9-2.5-5.4-4.6L90,19l-0.9,1.2c-1.6,2.1-3.6,3.4-5.4,4.6c-3,2-5.7,3.8-6.5,7.9
		c-1.6,0.4-3.2,0.8-4.8,1.3c-2.7-3.2-6-3.4-9.6-3.6c-2.2-0.1-4.6-0.3-7-1.3l-1.4-0.6l-0.2,1.5c-0.3,2.6-1.4,4.7-2.4,6.7
		c-1.6,3.2-3.1,6.1-1.7,10c-1.2,1.1-2.4,2.3-3.6,3.5c-3.9-1.3-6.8,0.1-10,1.7c-2,1-4.1,2.1-6.7,2.4l-1.5,0.2l0.6,1.4
		c1,2.4,1.1,4.8,1.3,7c0.2,3.5,0.4,6.7,3.3,9.3c-0.5,1.7-1,3.4-1.4,5.1c-3.9,0.9-5.6,3.5-7.5,6.4c-1.2,1.9-2.5,3.9-4.6,5.4L19,90
		l1.2,0.9c2.1,1.6,3.4,3.6,4.6,5.4c1.9,2.9,3.7,5.6,7.5,6.4c0.4,1.7,0.8,3.4,1.4,5.1c-2.9,2.7-3.1,5.9-3.3,9.3
		c-0.1,2.2-0.3,4.6-1.3,7l-0.6,1.4l1.5,0.2c2.6,0.3,4.7,1.4,6.7,2.4c3.2,1.6,6.1,3,10,1.7c1.1,1.2,2.3,2.4,3.6,3.5
		c-1.3,3.9,0.1,6.8,1.7,10c1,2,2.1,4.1,2.4,6.7l0.2,1.5l1.4-0.6c2.4-1,4.8-1.1,7-1.3c3.6-0.2,6.8-0.4,9.6-3.6
		c1.6,0.5,3.2,0.9,4.8,1.3c0.8,4.1,3.5,5.9,6.5,7.9c1.9,1.2,3.9,2.5,5.4,4.6L90,161l0.9-1.2c1.6-2.1,3.6-3.4,5.4-4.6
		c3-2,5.7-3.7,6.5-7.8c1.7-0.4,3.3-0.8,4.9-1.3C110.4,149.3,113.6,149.5,117.2,149.7z M90.3,145.5c-9.5,0-18.4-2.3-26.2-6.5
		c9.9-3.8,16.8-9.2,20.9-16.2c1.1,1.9,2.5,3.9,4.3,5.8l0.8,0.9l0.8-0.9c1.7-1.9,3.2-3.9,4.3-5.8c4.2,7.1,11.2,12.5,21.2,16.3
		C108.5,143.2,99.7,145.5,90.3,145.5z M90.3,34.5c9.4,0,18.2,2.3,26,6.3c-10,3.8-17.1,9.3-21.2,16.3c-1.1-1.9-2.5-3.9-4.2-5.8
		L90,50.4l-0.8,0.9c-1.7,1.9-3.2,3.9-4.3,5.8c-4.1-7-11-12.4-20.9-16.2C71.9,36.8,80.8,34.5,90.3,34.5z M145.3,79.1l0,0.1
		c0,0,0,0,0,0c0.6,3.1,1,6.2,1,9.5c-8.5-7.2-17-10.7-25.4-10.7c1.1-1.9,2.1-4.1,2.9-6.6l0.4-1.1l-1.1-0.2c-2.6-0.5-5-0.8-7.2-0.8
		c4.1-7.2,5.3-16,3.5-26.6C132.6,50.5,142.2,63.7,145.3,79.1z M117.3,137.3c-9.9-3.7-16.8-9-20.7-15.9c-0.2-0.3-0.3-0.6-0.5-0.9
		c1.1-2.5,1.6-5.1,1.6-7.6c0-0.1,0-0.3,0-0.4c0.4,0,0.7-0.1,1.1-0.2l1.5,7.5c-0.7,0.7-0.9,1.8-0.4,2.7c0.6,1.1,2,1.4,3,0.8
		c1.1-0.6,1.4-2,0.8-3c-0.3-0.5-0.8-0.9-1.4-1l-1.5-7.4l-1.1,0.2c0.8-0.3,1.6-0.6,2.4-1c0.8-0.4,1.5-1,2.1-1.6l-0.8,0.8l5.7,5
		c-0.2,0.6-0.1,1.2,0.2,1.7c0.6,1.1,2,1.4,3,0.8c1.1-0.6,1.4-2,0.8-3c-0.5-0.9-1.6-1.3-2.5-1l-5.8-5.1c0.2-0.3,0.5-0.6,0.7-0.8
		c0.1,0.1,0.2,0.1,0.3,0.2c2.2,1.3,4.7,2.1,7.4,2.4c0.2,0.3,0.4,0.6,0.5,0.9C117.9,118.3,119.1,126.9,117.3,137.3z M66.1,111.5
		c0.2-0.3,0.4-0.6,0.5-0.9c2.7-0.3,5.2-1.1,7.4-2.4c0.1-0.1,0.2-0.1,0.3-0.2c0.2,0.3,0.4,0.6,0.7,0.8l-5.8,5.1c-1-0.3-2,0.1-2.5,1
		c-0.6,1.1-0.2,2.4,0.8,3c1.1,0.6,2.4,0.2,3-0.8c0.3-0.5,0.4-1.2,0.2-1.7l5.7-5l-0.8-0.8c0.6,0.6,1.3,1.1,2.1,1.6
		c0.8,0.4,1.6,0.8,2.4,1l-1.1-0.2l-1.5,7.4c-0.6,0.1-1.1,0.5-1.4,1c-0.6,1.1-0.2,2.4,0.8,3c1.1,0.6,2.4,0.2,3-0.8
		c0.5-0.9,0.3-2-0.4-2.7l1.5-7.5c0.4,0.1,0.7,0.1,1.1,0.2c0,0.1,0,0.3,0,0.4c0,2.5,0.5,5.1,1.6,7.6c-0.2,0.3-0.3,0.6-0.5,0.9
		c-3.9,6.9-10.8,12.2-20.7,15.9C60.9,126.9,62.1,118.3,66.1,111.5z M59.4,100c-7.9,0.1-16-3.2-24.1-10c8.1-6.8,16.2-10,24.1-10
		c0.3,0,0.7,0,1,0c1.7,2.2,3.6,4,5.8,5.2c0.1,0.1,0.2,0.1,0.3,0.2c-0.1,0.3-0.3,0.7-0.4,1L58.9,84c-0.2-1-1.1-1.7-2.1-1.7
		c-1.2,0-2.2,1-2.2,2.2c0,1.2,1,2.2,2.2,2.2c0.6,0,1.2-0.3,1.6-0.7l7.2,2.4l0.4-1.1c-0.2,0.8-0.3,1.7-0.3,2.6c0,0.9,0.1,1.8,0.3,2.6
		l-0.4-1.1L58.4,94c-0.4-0.4-1-0.7-1.6-0.7c-1.2,0-2.2,1-2.2,2.2c0,1.2,1,2.2,2.2,2.2c1,0,1.9-0.7,2.1-1.7l7.3-2.5
		c0.1,0.3,0.2,0.7,0.4,1c-0.1,0.1-0.2,0.1-0.3,0.2c-2.2,1.3-4.1,3-5.8,5.2C60.1,100,59.8,100,59.4,100z M62.7,42.7
		c9.9,3.7,16.8,9,20.7,15.9c0.2,0.3,0.3,0.6,0.5,0.9c-1.1,2.5-1.6,5.1-1.6,7.6c0,0.1,0,0.3,0,0.4c-0.4,0-0.7,0.1-1.1,0.2l-1.5-7.5
		c0.7-0.7,0.9-1.8,0.4-2.7c-0.6-1.1-2-1.4-3-0.8s-1.4,2-0.8,3c0.3,0.5,0.8,0.9,1.4,1l1.5,7.4l1.1-0.2c-0.8,0.3-1.6,0.6-2.4,1
		c-0.8,0.4-1.5,1-2.1,1.6l0.8-0.8l-5.7-5c0.2-0.6,0.1-1.2-0.2-1.7c-0.6-1.1-2-1.4-3-0.8c-1.1,0.6-1.4,2-0.8,3c0.5,0.9,1.6,1.3,2.5,1
		l5.8,5.1c-0.2,0.3-0.5,0.6-0.7,0.8c-0.1-0.1-0.2-0.1-0.3-0.2c-2.2-1.3-4.7-2.1-7.4-2.4c-0.2-0.3-0.4-0.6-0.5-0.9
		C62.1,61.7,60.9,53.1,62.7,42.7z M113.9,68.5c-0.2,0.3-0.4,0.6-0.5,0.9c-2.7,0.3-5.2,1.1-7.4,2.4c-0.1,0.1-0.2,0.1-0.3,0.2
		c-0.2-0.3-0.4-0.6-0.7-0.8l5.8-5.1c1,0.3,2-0.1,2.5-1c0.6-1.1,0.2-2.4-0.8-3c-1.1-0.6-2.4-0.2-3,0.8c-0.3,0.5-0.4,1.2-0.2,1.7
		l-5.7,5l0.8,0.9c-0.6-0.6-1.3-1.1-2.1-1.6c-0.8-0.4-1.6-0.8-2.4-1l1.1,0.2l1.5-7.4c0.6-0.1,1.1-0.5,1.4-1c0.6-1.1,0.2-2.4-0.8-3
		c-1.1-0.6-2.4-0.2-3,0.8c-0.5,0.9-0.3,2,0.4,2.7l-1.5,7.5c-0.4-0.1-0.7-0.1-1.1-0.2c0-0.1,0-0.3,0-0.4c0-2.5-0.5-5.1-1.6-7.6
		c0.2-0.3,0.3-0.6,0.5-0.9c3.9-6.9,10.8-12.2,20.7-15.9C119.1,53.1,117.9,61.7,113.9,68.5z M118.4,78c-2.7,0.2-5.5,0.8-8.2,1.7
		c-0.2-0.4-0.4-0.7-0.6-1.1c-0.2-0.4-0.4-0.7-0.7-1c2.2-1.9,4.1-4,5.6-6.2c2.1-0.2,4.4,0,6.9,0.4C120.6,74.2,119.6,76.3,118.4,78z
		 M112.4,83.6c-0.3-0.5-0.7-1-1.1-1.4c-0.1-0.2-0.1-0.3-0.2-0.5c1.8-0.6,3.7-1.1,5.5-1.3c-1.2,1.3-2.5,2.3-3.9,3.1
		C112.6,83.5,112.5,83.5,112.4,83.6z M112.7,96.6c1.4,0.8,2.7,1.8,3.9,3.1c-1.8-0.3-3.7-0.7-5.5-1.3c0.1-0.1,0.1-0.3,0.2-0.4
		c0.4-0.5,0.8-0.9,1.2-1.5C112.5,96.5,112.6,96.5,112.7,96.6z M67.6,96.4c0.3,0.5,0.7,1,1.1,1.5c0.1,0.2,0.1,0.3,0.2,0.5
		c-1.8,0.6-3.7,1.1-5.5,1.3c1.2-1.3,2.5-2.3,3.9-3.1C67.4,96.5,67.5,96.5,67.6,96.4z M67.3,83.4c-1.4-0.8-2.7-1.8-3.9-3.1
		c1.8,0.3,3.7,0.7,5.5,1.3c-0.1,0.1-0.1,0.3-0.2,0.4c-0.4,0.5-0.8,0.9-1.2,1.5C67.5,83.5,67.4,83.5,67.3,83.4z M88.2,93.2L87,93.6
		c-1.1,0.4-2.2,0.8-3.2,1.2c0-0.1,0.1-0.3,0.1-0.4l0.4-1.1L83.2,93c-0.1,0-0.3,0-0.4-0.1c0.9-0.7,1.8-1.4,2.7-2.2l0.9-0.8l-0.9-0.8
		c-0.9-0.8-1.8-1.5-2.7-2.2c0.1,0,0.3,0,0.4-0.1l1.1-0.2L84,85.6c0-0.1-0.1-0.3-0.1-0.4c1,0.4,2.1,0.8,3.2,1.2l1.1,0.4l0.2-1.2
		c0.2-1.1,0.4-2.3,0.6-3.4c0.1,0.1,0.2,0.2,0.3,0.3l0.8,0.9l0.8-0.9c0.1-0.1,0.2-0.2,0.3-0.3c0.2,1.1,0.3,2.2,0.6,3.4l0.2,1.2
		l1.1-0.4c1.1-0.4,2.2-0.8,3.2-1.2c0,0.1-0.1,0.3-0.1,0.4l-0.4,1.1l1.1,0.2c0.1,0,0.3,0,0.4,0.1c-0.9,0.7-1.8,1.4-2.7,2.2L93.7,90
		l0.9,0.8c0.9,0.8,1.8,1.5,2.7,2.2c-0.1,0-0.3,0-0.4,0.1l-1.1,0.2l0.4,1.1c0,0.1,0.1,0.3,0.1,0.4c-1-0.4-2.1-0.8-3.2-1.2l-1.1-0.4
		l-0.2,1.2c-0.2,1.1-0.4,2.3-0.6,3.4c-0.1-0.1-0.2-0.2-0.3-0.3L90,96.6l-0.6,0.7L88.2,93.2z M107.4,75.6c-0.2-0.6-0.4-1.2-0.7-1.7
		c0.1-0.1,0.2-0.1,0.3-0.2c1.4-0.8,2.9-1.4,4.6-1.8c-1.2,1.5-2.5,2.8-3.9,4.1C107.6,75.8,107.5,75.7,107.4,75.6z M72.6,75.5
		c-0.1,0.1-0.2,0.2-0.3,0.4c-1.5-1.3-2.8-2.6-3.9-4.1c1.7,0.4,3.2,1,4.6,1.8c0.1,0.1,0.2,0.1,0.3,0.2C73,74.4,72.8,74.9,72.6,75.5z
		 M72.6,104.4c0.2,0.6,0.4,1.2,0.7,1.8c-0.1,0.1-0.2,0.1-0.3,0.2c-1.4,0.8-2.9,1.4-4.6,1.8c1.2-1.5,2.5-2.8,3.9-4.1
		C72.4,104.2,72.5,104.3,72.6,104.4z M107.5,104.4c0.1-0.1,0.2-0.2,0.3-0.3c1.5,1.3,2.8,2.6,3.9,4.1c-1.7-0.4-3.2-1-4.6-1.8
		c-0.1-0.1-0.2-0.1-0.3-0.2C107,105.6,107.3,105,107.5,104.4z M95.7,67.1c0,0.1,0,0.2,0,0.3c-0.6,0-1.2,0.1-1.8,0.3
		c-0.2,0-0.3-0.1-0.5-0.1c0.4-1.9,0.9-3.7,1.6-5.4C95.4,63.8,95.7,65.4,95.7,67.1z M91.2,67.4c-0.8,0-1.7,0-2.5,0
		c-0.5-2.8-1.4-5.5-2.6-7.9c0.9-1.9,2.2-3.9,3.8-5.8c1.6,1.9,2.9,3.9,3.8,5.8C92.6,61.9,91.8,64.6,91.2,67.4z M86.7,67.6
		c-0.2,0-0.3,0-0.5,0.1c-0.6-0.1-1.2-0.2-1.8-0.3c0-0.1,0-0.2,0-0.3c0-1.6,0.2-3.3,0.7-4.9C85.8,63.9,86.3,65.7,86.7,67.6z
		 M65.4,71.4c1.6,2.3,3.4,4.3,5.6,6.2c-0.4,0.7-0.9,1.4-1.2,2.1c-2.7-0.9-5.4-1.5-8.2-1.7c-1.2-1.8-2.2-3.8-3.1-6.2
		C61,71.4,63.3,71.2,65.4,71.4z M61.6,102c2.7-0.2,5.5-0.8,8.2-1.7c0.2,0.4,0.4,0.7,0.6,1.1l0,0c0.2,0.4,0.4,0.7,0.7,1
		c-2.2,1.9-4.1,4-5.6,6.2c-2.1,0.2-4.4,0-6.9-0.4C59.4,105.8,60.4,103.7,61.6,102z M84.3,112.9c0-0.1,0-0.2,0-0.3
		c0.6,0,1.2-0.1,1.8-0.3c0.2,0,0.3,0,0.5,0.1c-0.4,1.9-0.9,3.7-1.6,5.4C84.6,116.2,84.3,114.6,84.3,112.9z M88.8,112.6
		c0.8,0,1.7,0.1,2.5,0c0.5,2.8,1.4,5.5,2.6,8c-0.9,1.9-2.2,3.9-3.8,5.8c-1.6-1.9-2.9-3.9-3.8-5.8C87.4,118.1,88.2,115.4,88.8,112.6z
		 M93.3,112.4c0.2,0,0.3-0.1,0.5-0.1c0.6,0.1,1.2,0.2,1.8,0.3c0,0.1,0,0.2,0,0.3c0,1.6-0.2,3.3-0.7,4.9
		C94.2,116.1,93.7,114.3,93.3,112.4z M114.6,108.6c-1.6-2.3-3.4-4.3-5.6-6.2c0.4-0.7,0.9-1.4,1.2-2.1c2.7,0.9,5.4,1.5,8.2,1.7
		c1.2,1.8,2.2,3.8,3.1,6.2C119,108.6,116.7,108.8,114.6,108.6z M119.5,99.9c-1.7-2.2-3.6-4-5.8-5.2c-0.1-0.1-0.2-0.1-0.3-0.2
		c0.1-0.3,0.3-0.7,0.4-1l7.3,2.5c0.2,1,1.1,1.7,2.1,1.7c1.2,0,2.2-1,2.2-2.2c0-1.2-1-2.2-2.2-2.2c-0.6,0-1.2,0.3-1.6,0.7l-7.2-2.4
		l-0.4,1.1c0.2-0.8,0.3-1.7,0.3-2.6c0-0.9-0.1-1.8-0.3-2.6l0.4,1.1l7.2-2.4c0.4,0.4,1,0.7,1.6,0.7c1.2,0,2.2-1,2.2-2.2
		c0-1.2-1-2.2-2.2-2.2c-1,0-1.9,0.7-2.1,1.7l-7.3,2.5c-0.1-0.3-0.2-0.7-0.4-1c0.1-0.1,0.2-0.1,0.3-0.2c2.2-1.3,4.1-3,5.8-5.2
		c0.3,0,0.7,0,1,0c7.9-0.1,16,3.2,24.1,10c-8.1,6.8-16.2,10-24.1,10C120.2,100,119.9,100,119.5,99.9z M64.1,69.2
		c-2.2,0-4.6,0.2-7.2,0.8l-1.2,0.2l0.4,1.1c0.8,2.5,1.8,4.7,2.9,6.6c-8.2,0.1-16.5,3.4-24.8,10.3c0.6-19,11-35.7,26.3-45.2
		C58.8,53.4,60.1,62.1,64.1,69.2z M34.2,91.8c8.3,6.8,16.6,10.2,24.8,10.3c-1.1,1.9-2.1,4.1-2.9,6.6l-0.4,1.1l1.2,0.2
		c2.6,0.5,4.9,0.8,7.2,0.8c-4,7.1-5.3,15.8-3.6,26.2C45.2,127.5,34.8,110.8,34.2,91.8z M115.9,110.8c2.2,0,4.6-0.2,7.2-0.8l1.1-0.2
		l-0.4-1.1c-0.8-2.5-1.8-4.7-2.9-6.6c8.4-0.1,16.9-3.6,25.4-10.8c-0.1,3.2-0.4,6.4-1,9.5c0,0,0,0,0,0l0,0.1
		c-3.1,15.4-12.7,28.6-25.8,36.5C121.2,126.8,120,117.9,115.9,110.8z M147.4,117.3c0.1,2,0.2,4.2,0.9,6.4c-2.3,0.5-4.2,1.5-6,2.4
		c-2.3,1.1-4.3,2.2-6.8,1.9c4.4-5.1,7.9-10.9,10.3-17.3C147.2,112.7,147.3,114.9,147.4,117.3z M153.4,84.9c1.1,1.7,2.3,3.5,4,5.1
		c-1.7,1.6-2.9,3.4-4,5.1c-1.3,2-2.5,3.8-4.5,4.9c0.6-3.2,0.9-6.5,0.9-9.9c0-3.4-0.3-6.7-0.9-9.9C150.9,81.1,152.1,82.9,153.4,84.9z
		 M142.4,53.9c1.8,0.9,3.7,1.9,6,2.4c-0.7,2.2-0.8,4.4-0.9,6.4c-0.1,2.4-0.3,4.6-1.5,6.6c-2.4-6.3-5.9-12.2-10.3-17.3
		C138,51.7,140.1,52.8,142.4,53.9z M117.3,32.6c2-0.1,4.2-0.2,6.4-0.9c0.5,2.3,1.5,4.2,2.4,6c1.2,2.3,2.2,4.4,1.9,6.9
		c-5.3-4.3-11.3-7.7-17.8-10C112.2,32.9,114.6,32.7,117.3,32.6z M84.9,26.6c1.7-1.1,3.5-2.3,5.1-4c1.6,1.7,3.4,2.9,5.1,4
		c2.3,1.5,4.3,2.8,5.2,5.4c-3.3-0.6-6.6-0.9-10-0.9c-3.6,0-7.2,0.3-10.6,1C80.5,29.5,82.6,28.1,84.9,26.6z M53.9,37.6
		c0.9-1.8,1.9-3.7,2.4-6c2.2,0.7,4.4,0.8,6.4,0.9c2.7,0.2,5.2,0.3,7.3,2.1c-6.6,2.4-12.6,5.9-17.9,10.3
		C51.6,42.3,52.7,40.1,53.9,37.6z M32.6,62.7c-0.1-2-0.2-4.2-0.9-6.4c2.3-0.5,4.2-1.5,6-2.4c2.4-1.2,4.6-2.3,7.2-1.8
		c-4.4,5.2-8,11.2-10.4,17.7C32.9,67.7,32.7,65.3,32.6,62.7z M26.6,95.1c-1.1-1.7-2.3-3.5-4-5.1c1.7-1.6,2.9-3.4,4-5.1
		c1.4-2.2,2.8-4.2,5.1-5.1c-0.6,3.3-0.9,6.7-0.9,10.2c0,3.5,0.3,6.9,0.9,10.2C29.4,99.3,28,97.3,26.6,95.1z M37.6,126.1
		c-1.8-0.9-3.7-1.9-6-2.4c0.7-2.2,0.8-4.4,0.9-6.4c0.2-2.6,0.3-5,1.9-7c2.4,6.5,6,12.5,10.4,17.7C42.2,128.4,40,127.3,37.6,126.1z
		 M62.7,147.4c-2,0.1-4.2,0.2-6.4,0.9c-0.5-2.3-1.5-4.2-2.4-6c-1.2-2.4-2.3-4.6-1.8-7.3c5.3,4.4,11.3,7.9,17.9,10.3
		C67.9,147.1,65.4,147.3,62.7,147.4z M95.1,153.4c-1.7,1.1-3.5,2.3-5.1,4c-1.6-1.7-3.4-2.9-5.1-4c-2.3-1.5-4.4-2.9-5.3-5.5
		c3.4,0.6,7,1,10.6,1c3.4,0,6.8-0.3,10-0.9C99.4,150.5,97.3,151.9,95.1,153.4z M128,135.5c0.3,2.5-0.7,4.6-1.9,6.9
		c-0.9,1.8-1.9,3.7-2.4,6c-2.2-0.7-4.4-0.8-6.4-0.9c-2.7-0.2-5.1-0.3-7.1-2C116.7,143.1,122.7,139.7,128,135.5z"/>
	<path d="M129.2,151.1c0.8-0.4,1-1.4,0.6-2.2c-0.4-0.8-1.4-1-2.2-0.6c-0.8,0.4-1,1.4-0.6,2.2C127.4,151.2,128.4,151.5,129.2,151.1z"
		/>
	<path d="M113.6,150.9c-0.4,0.3-0.6,0.8-0.3,1.3c0.3,0.4,0.8,0.6,1.3,0.3c0.4-0.3,0.6-0.8,0.3-1.3
		C114.6,150.8,114.1,150.6,113.6,150.9z"/>
	<path d="M126.3,152.9c-0.4,0.3-0.6,0.8-0.3,1.3c0.3,0.4,0.8,0.6,1.3,0.3c0.4-0.3,0.6-0.8,0.3-1.3
		C127.3,152.8,126.7,152.6,126.3,152.9z"/>
	<path d="M132.2,141.2c-0.3-0.4-0.8-0.6-1.3-0.3c-0.4,0.3-0.6,0.8-0.3,1.3c0.3,0.4,0.8,0.6,1.3,0.3
		C132.3,142.2,132.4,141.7,132.2,141.2z"/>
	<path d="M121.7,151.7c-0.8,0.4-1,1.4-0.6,2.2c0.4,0.8,1.4,1,2.2,0.6c0.8-0.4,1-1.4,0.6-2.2C123.4,151.5,122.5,151.3,121.7,151.7z"
		/>
	<path d="M117.3,151.1c-0.8,0.4-1,1.4-0.6,2.2c0.4,0.8,1.4,1,2.2,0.6c0.8-0.4,1-1.4,0.6-2.2C119,151,118.1,150.7,117.3,151.1z"/>
	<path d="M130.9,147c0.8-0.4,1-1.4,0.6-2.2c-0.4-0.8-1.4-1-2.2-0.6c-0.8,0.4-1,1.4-0.6,2.2C129.2,147.1,130.1,147.4,130.9,147z"/>
	<path d="M42.2,38c-3-5.6-1-9.6,1.2-14c1.3-2.6,2.7-5.4,3.4-8.7c3.2,1.1,6.3,1.3,9.2,1.4c5,0.3,9.4,0.5,12.8,6l1.9-1.2
		c-4-6.4-9-6.7-14.6-7c-3.1-0.2-6.4-0.4-9.8-1.8L45,12.1l-0.2,1.5c-0.5,3.6-2,6.6-3.4,9.4c-2.5,5-4.8,9.5-1.2,16.1L42.2,38z"/>
	<path d="M69.8,29.2l1.9-1.2c-3.4-5.5-7.7-5.8-12.5-6.1c-2.6-0.2-5.4-0.3-8.3-1.5l-1.4-0.6l-0.2,1.5c-0.4,3.1-1.7,5.6-2.8,7.9
		c-2.2,4.3-4.1,8.1-1,13.9l2-1.1c-2.5-4.7-0.8-8,1-11.8c1.1-2.2,2.3-4.5,2.8-7.3c2.7,0.9,5.3,1,7.7,1.2C63.3,24.5,67,24.7,69.8,29.2
		z"/>
	<path d="M61.1,26.1c-0.8,0.4-1,1.4-0.6,2.2c0.4,0.8,1.4,1,2.2,0.6c0.8-0.4,1-1.4,0.6-2.2C62.8,25.9,61.9,25.7,61.1,26.1z"/>
	<path d="M65.5,27.5c-0.4,0.3-0.6,0.8-0.3,1.3c0.3,0.4,0.8,0.6,1.3,0.3c0.4-0.3,0.6-0.8,0.3-1.3C66.5,27.4,65.9,27.3,65.5,27.5z"/>
	<path d="M56.7,25.5c-0.8,0.4-1,1.4-0.6,2.2c0.4,0.8,1.4,1,2.2,0.6c0.8-0.4,1-1.4,0.6-2.2C58.4,25.4,57.5,25.1,56.7,25.5z"/>
	<path d="M50.7,35.8c0.8-0.4,1-1.4,0.6-2.2c-0.4-0.8-1.4-1-2.2-0.6s-1,1.4-0.6,2.2S49.9,36.2,50.7,35.8z"/>
	<path d="M48.2,37.5c-0.4,0.3-0.6,0.8-0.3,1.3s0.8,0.6,1.3,0.3c0.4-0.3,0.6-0.8,0.3-1.3C49.2,37.4,48.6,37.3,48.2,37.5z"/>
	<path d="M53.7,27.1c0.4-0.3,0.6-0.8,0.3-1.3c-0.3-0.4-0.8-0.6-1.3-0.3c-0.4,0.3-0.6,0.8-0.3,1.3C52.7,27.2,53.3,27.4,53.7,27.1z"/>
	<path d="M52.4,31.7c0.8-0.4,1-1.4,0.6-2.2c-0.4-0.8-1.4-1-2.2-0.6c-0.8,0.4-1,1.4-0.6,2.2C50.7,31.9,51.7,32.1,52.4,31.7z"/>
	<path d="M111,124.2l-7.7-13.3l-1.8,1.1l7.7,13.3c-0.4,0.7-0.4,1.5,0,2.2c0.6,1.1,2,1.4,3,0.8c1.1-0.6,1.4-2,0.8-3
		C112.5,124.6,111.8,124.2,111,124.2z"/>
	<path d="M69,55.8l7.7,13.3l1.8-1.1l-7.7-13.3c0.4-0.7,0.4-1.5,0-2.2c-0.6-1.1-2-1.4-3-0.8c-1.1,0.6-1.4,2-0.8,3
		C67.5,55.4,68.3,55.8,69,55.8z"/>
	<path d="M132,87.8c-0.8,0-1.6,0.5-1.9,1.1l-15.4,0l0,2.1l15.4,0c0.4,0.7,1.1,1.1,1.9,1.1c1.2,0,2.2-1,2.2-2.2
		C134.3,88.8,133.3,87.8,132,87.8z"/>
	<path d="M65.3,88.9l-15.4,0c-0.4-0.7-1.1-1.1-1.9-1.1c-1.2,0-2.2,1-2.2,2.2c0,1.2,1,2.2,2.2,2.2c0.8,0,1.6-0.5,1.9-1.1l15.4,0
		L65.3,88.9z"/>
	<path d="M78.6,112l-1.8-1.1L69,124.2c-0.8,0-1.5,0.4-2,1.1c-0.6,1.1-0.2,2.4,0.8,3c1.1,0.6,2.4,0.2,3-0.8c0.4-0.7,0.4-1.6,0-2.2
		L78.6,112z"/>
	<path d="M101.5,68.1l1.8,1.1l7.7-13.3c0.8,0,1.5-0.4,2-1.1c0.6-1.1,0.2-2.4-0.8-3c-1.1-0.6-2.4-0.2-3,0.8c-0.4,0.7-0.4,1.6,0,2.2
		L101.5,68.1z"/>
</g>
</svg>
