<?xml version="1.0" encoding="utf-8"?>
<!-- Generator: Adobe Illustrator 17.0.0, SVG Export Plug-In . SVG Version: 6.00 Build 0)  -->
<!DOCTYPE svg PUBLIC "-//W3C//DTD SVG 1.1//EN" "http://www.w3.org/Graphics/SVG/1.1/DTD/svg11.dtd">
<svg version="1.1" id="Layer_1" xmlns="http://www.w3.org/2000/svg" xmlns:xlink="http://www.w3.org/1999/xlink" x="0px" y="0px"
	 width="180px" height="123.559px" viewBox="10 38.221 180 123.559" enable-background="new 10 38.221 180 123.559"
	 xml:space="preserve">
<path fill="#E47E61" d="M87.508,63.025L87.508,63.025L87.508,63.025L87.508,63.025L87.508,63.025z"/>
<path fill="#E47E61" d="M118.432,117.398c-1.246,0-2.152-0.906-2.152-2.152c0.113-1.246,0.906-1.926,2.039-2.039
	c1.133-0.113,2.152,0.906,2.152,1.926C120.471,116.492,119.565,117.398,118.432,117.398z"/>
<path fill="#E47E61" d="M28.83,61.553c-0.113,0.906-0.566,1.586-1.586,1.586c-1.019,0-1.473-0.566-1.473-1.473
	c0-0.906,0.34-1.586,1.359-1.586C28.264,59.967,28.717,60.533,28.83,61.553z"/>
<path fill="#E47E61" d="M78.672,74.919c-0.113,0.906-0.566,1.246-1.359,1.246c-0.906,0-1.246-0.566-1.133-1.359
	c0-0.793,0.453-1.246,1.359-1.246C78.219,73.673,78.672,74.24,78.672,74.919z"/>
<path fill="#E47E61" d="M156.38,131.558v-0.113l0,0C156.38,131.558,156.38,131.558,156.38,131.558z"/>
<path fill="#E47E61" d="M150.263,143.678c-0.113,0.793-0.566,1.133-1.133,1.019c-0.68-0.113-0.906-0.68-1.019-1.246
	c0-0.566,0.34-1.019,1.019-1.019C149.81,142.546,150.15,142.999,150.263,143.678z"/>
<path fill="#E47E61" d="M123.19,117.058c0,0.68-0.34,1.133-0.906,1.133c-0.793,0-1.019-0.453-1.019-1.133
	c0-0.566,0.453-1.019,1.019-1.019C122.85,116.152,123.076,116.605,123.19,117.058z"/>
<path fill="#E47E61" d="M148.904,140.167c-0.113,0.68-0.453,1.133-1.246,1.019c-0.68-0.113-0.906-0.453-0.906-1.133
	c0-0.793,0.453-1.019,1.133-1.019C148.564,139.147,148.904,139.487,148.904,140.167z"/>
<path fill="#E47E61" d="M119.791,118.984c-0.113,0.566-0.34,0.906-0.906,0.906c-0.566,0-0.793-0.453-0.793-0.906
	c0-0.566,0.34-0.906,0.906-0.906C119.565,118.078,119.791,118.531,119.791,118.984z"/>
<path fill="#E47E61" d="M76.86,77.638c0,0.453-0.227,0.906-0.793,0.906c-0.453,0-0.793-0.34-0.793-0.793
	c0-0.566,0.227-0.906,0.793-0.906C76.633,76.732,76.86,77.072,76.86,77.638z"/>
<path fill="#E47E61" d="M177.563,101.993c-0.113,0.566-0.453,0.906-1.019,0.793c-0.453-0.113-0.793-0.34-0.68-0.906
	c0.113-0.453,0.34-0.793,0.793-0.793C177.336,101.086,177.563,101.539,177.563,101.993z"/>
<path fill="#E47E61" d="M28.377,65.971c-0.113,0.453-0.34,0.793-0.793,0.793c-0.566,0-0.906-0.34-0.793-0.906
	c0-0.566,0.453-0.68,0.906-0.68C28.15,65.178,28.264,65.517,28.377,65.971z"/>
<path fill="#E47E61" d="M87.508,63.025L87.508,63.025L87.508,63.025L87.508,63.025L87.508,63.025z"/>
<path fill="#E47E61" d="M156.38,131.558v-0.113l0,0C156.38,131.558,156.38,131.558,156.38,131.558z"/>
<path fill="#E47E61" d="M87.508,63.025L87.508,63.025L87.508,63.025L87.508,63.025L87.508,63.025z"/>
<path fill="#E47E61" d="M50.806,70.275c-0.113-0.113-0.227-0.113-0.34-0.227C50.579,70.162,50.693,70.275,50.806,70.275z"/>
<path fill="#E47E61" d="M84.789,63.592c0,0-0.113,0-0.113-0.113l0,0C84.676,63.592,84.676,63.592,84.789,63.592z"/>
<path fill="#E47E61" d="M171.219,121.589c0,0.68-0.34,0.906-0.793,0.906c-0.453,0-0.906-0.113-0.906-0.566
	c0-0.566,0.453-0.906,0.906-0.906C170.879,120.91,171.106,121.25,171.219,121.589z"/>
<path fill="#E47E61" d="M176.996,122.156c-0.227,0-0.453,0-0.34-0.227c0-0.113,0.227-0.227,0.34-0.227l0.227,0.113
	C177.109,121.929,176.996,122.043,176.996,122.156z"/>
<path fill="#E47E61" d="M74.141,74.806c-0.113,0.113-0.113,0.34-0.227,0.453c-0.68-0.793-1.246-1.473-1.926-2.266
	c-1.812-2.039-3.625-4.191-5.097-6.457c-1.019-1.586-3.398-5.211-1.473-6.91c0.453-0.453,1.133-0.566,1.699-0.566
	c1.359,0,2.605,0.68,3.625,1.586c2.039,1.699,3.512,4.191,4.078,6.797C75.274,69.822,75.047,72.427,74.141,74.806z"/>
<path fill="#E47E61" d="M97.816,50.338v-0.113c-0.453-1.473-1.926-2.379-3.398-2.719c-1.473-0.34-3.058,0-4.418,0.566
	c-3.738,1.359-6.797,4.191-8.949,7.59c-1.359,2.152-2.266,4.644-2.719,7.136c-0.227,1.246-0.453,2.492-0.453,3.738
	c0,0.566,0.453,3.512,0.113,3.738c5.89-4.644,12.687-8.382,17.671-13.933c0.793-0.793,1.473-1.699,1.926-2.719
	C98.042,52.491,98.156,51.358,97.816,50.338z M84.562,63.592L84.562,63.592c0,0,0.113,0,0.113,0.113
	C84.676,63.592,84.676,63.592,84.562,63.592z"/>
<path fill="#E47E61" d="M154.114,128.952c0.113,0.906,0.113,1.926-0.113,2.832c-0.34,1.473-1.133,2.832-1.926,4.078
	c-0.566,0.906-1.133,1.812-1.926,2.492c-0.113,0.113-0.34,0.227-0.566,0.113c-0.113-0.113-0.113-0.227-0.113-0.227
	c-0.453-2.152-0.793-4.305-1.019-6.457c-0.227-1.926-0.453-4.078,0.34-5.89c0.34-0.68,0.906-1.359,1.699-1.699
	c0.906-0.34,2.039,0,2.605,0.906c0.34,0.453,0.453,1.133,0.566,1.699C153.888,127.367,154.114,128.16,154.114,128.952z"/>
<g>
	<path fill="#E47E61" d="M173.711,58.381c-0.34-1.133-1.473-1.586-3.058-1.246l0,0l0,0c0-0.34,0.113-0.566,0.113-0.906
		s-0.227-0.566-0.566-0.68c-0.34-0.113-0.793-0.113-1.019,0.227c-0.227,0.227-0.227,0.68,0,0.906
		c0.227,0.227,0.566,0.453,0.793,0.793l0,0l0,0c0,0.566-0.113,1.019,0,1.586c0.113,1.246,1.019,1.812,2.266,1.699
		C173.145,60.533,173.938,59.4,173.711,58.381z M171.672,58.154L171.672,58.154c0.566,0,0.793,0.227,0.793,0.793
		C172.465,58.268,172.239,58.041,171.672,58.154z"/>
	<path fill="#E47E61" d="M173.032,55.549c0.227,0,0.453-0.227,0.453-0.68c0-0.453-0.34-0.68-0.68-0.68
		c-0.453,0-0.793,0.227-0.793,0.793C172.125,55.436,172.465,55.549,173.032,55.549z"/>
</g>
<path fill="#E47E61" d="M179.488,124.761c-0.113,0.227-0.227,0.453-0.453,0.68c-0.906,1.246-2.152,2.039-3.512,2.719
	c-3.398,1.586-7.023,2.266-10.648,3.285c-2.605,0.68-5.211,1.586-7.59,2.605c-0.34,0.113-0.793,0.34-1.133,0.227
	c-1.586-0.453,1.246-5.664,1.812-6.57c1.246-2.152,2.945-4.078,4.871-5.664c3.625-2.719,8.382-4.078,12.8-3.172
	c1.586,0.34,3.172,1.019,3.851,2.379C180.168,122.269,180.055,123.628,179.488,124.761z"/>
<g>
	<path d="M61.454,70.049c-1.586-0.113-2.945-0.453-4.531-0.34c-1.019,0.113-2.039,0.227-3.058,0.34
		c-0.566,0.113-1.019,0.227-1.586,0.227c-0.113,0-1.019,0.34-1.133,0.227c-0.113-0.113-0.227-0.113-0.453-0.227
		c-0.113-0.113-0.227-0.113-0.34-0.227c-2.492-2.039-5.211-3.965-7.363-6.457c-3.285-3.738-5.324-7.929-4.191-13.027
		c0.906-4.191,3.058-7.703,7.25-9.062c6.91-2.379,15.066,3.398,15.632,10.648c0.34,4.191-0.793,7.816-3.625,11.101
		c1.133,0.227,1.473-0.566,1.926-1.133c3.851-4.531,4.418-11.328,1.473-16.538c-2.832-4.984-8.609-8.269-16.085-7.136
		c-8.156,1.246-14.386,8.722-13.706,16.878c0.34,4.871,2.945,8.609,6.344,11.894c2.039,2.039,4.418,3.738,6.91,5.664
		c-0.453,0.227-0.793,0.453-1.133,0.68c-1.246,0.793-2.492,2.152-3.851,2.266c-1.473,0.113-2.266-1.812-3.625-2.605
		c-0.566-0.34-1.133-0.793-1.812-1.133c-7.476-4.305-16.085-2.605-20.843,4.305c-2.605,3.851-3.851,8.043-3.625,12.687
		c0.113,2.719,0.68,3.398,3.398,3.172c0.566,0,1.133-0.227,1.699-0.34c1.359-0.453,2.266-1.246,1.926-2.832
		c-0.113-0.906-0.113-1.812-0.113-2.719c-0.113-4.418,0.453-8.609,3.512-12.007c1.926-2.266,4.418-3.058,7.363-2.719
		c3.738,0.453,6.797,2.152,9.629,4.418c1.019,0.793,0.906,1.133,0,1.926c-4.531,3.512-8.269,7.59-10.761,12.8
		c-3.965,8.836-1.019,18.124,7.25,22.429c12.914,6.797,29.565-2.152,31.378-16.878c0.113-1.246,0.566-1.699,1.586-2.039
		c4.078-1.473,6.343-4.418,6.91-8.722C75.274,76.845,67.458,70.615,61.454,70.049z M41.064,76.165
		c1.359-0.906,2.719-1.699,4.078-2.605c0.34-0.227,0.68-0.227,1.019,0c6.004,4.418,11.101,9.515,12.46,17.331
		c0.113,0.793,0.227,1.586,0.34,2.379c0,0.113-0.113,0.227-0.113,0.34c-3.058-0.906-5.551-2.719-7.816-4.871
		c-3.738-3.512-6.57-7.816-10.082-11.668C40.384,76.845,40.498,76.505,41.064,76.165z M45.029,113.434c-0.566,0.113-1.133,0-1.812,0
		c-10.875,0.113-18.351-10.761-14.839-21.409c1.926-5.777,5.777-10.082,10.308-14.046c0.793-0.68,1.019-0.113,1.359,0.34
		c2.152,2.492,4.305,4.871,6.457,7.363c3.285,3.738,6.683,7.25,11.668,8.722c0.453,0.113,0.566,0.34,0.566,0.793
		C59.188,102.332,54.317,112.187,45.029,113.434z M67.118,93.497c-0.227,0.113-0.34,0.113-0.566,0.227
		c-0.113,0-0.227,0.113-0.34,0.113c-0.566,0-0.68-0.793-0.68-1.359c0-4.078-1.473-8.156-3.625-11.554
		c-2.152-3.398-5.211-6.343-8.609-8.722c-0.566-0.34-1.699-1.019-0.68-1.473c0.793-0.34,1.926-0.453,2.832-0.566
		c1.926-0.227,3.738-0.113,5.664,0.34c3.512,0.68,6.797,2.492,8.949,5.324c2.266,2.719,3.398,6.457,2.832,9.968
		C72.442,88.966,70.176,92.024,67.118,93.497z"/>
	<path d="M84.676,101.426c1.246-0.68,2.379-1.133,3.625-1.133c2.379,0.113,3.851,1.586,4.418,3.965
		c0.34,1.586-0.113,3.172-0.34,4.758c-0.113,0.566-0.453,0.68-0.906,0.566s-0.566-0.453-0.453-0.906
		c0.113-1.133,0.453-2.152,0.453-3.285c0-1.586-0.68-2.832-2.266-3.398c-1.246-0.453-3.398,0.227-4.191,1.359
		c-0.34,0.34-0.227,0.793-0.227,1.246c0,1.133,0,2.266,0,3.398c0,0.566,0.227,1.473-0.68,1.473c-1.019,0-0.793-0.906-0.793-1.473
		c0-3.172,0-6.343,0-9.402c0-1.019,0-1.926,0-2.945c0-0.68-0.34-1.699,0.793-1.699c1.019,0,0.68,1.019,0.68,1.699
		C84.676,97.461,84.676,99.387,84.676,101.426z"/>
	<path d="M97.589,107.883c1.812,0.68,3.172,0.227,4.531-0.34c0.566-0.227,1.133-0.566,1.473,0.227
		c0.34,0.793-0.453,0.906-0.906,1.133c-3.965,1.812-7.59,0.453-8.496-3.058c-0.68-2.379,0.566-4.758,2.719-5.89
		c2.039-1.019,4.758-0.227,6.23,1.586c0.566,0.793,0.34,1.246-0.34,1.699C101.101,104.824,99.402,106.297,97.589,107.883z
		 M95.437,104.824c0-0.113,0,0.227,0,0.453c0,0.566,0.227,1.133,0.68,1.359c0.566,0.34,0.906-0.453,1.246-0.68
		c1.246-1.019,2.266-2.039,3.512-3.058c0.68-0.566,0.68-0.906-0.113-1.246c-1.133-0.566-2.379-0.68-3.512-0.113
		C96.117,102.219,95.437,103.125,95.437,104.824z"/>
	<path d="M78.785,97.801c0,0.453,0,0.906,0,1.246c-0.113,1.359-0.34,2.945,1.926,2.379c0.453-0.113,0.906,0.227,0.906,0.68
		c0,0.566-0.453,0.68-0.906,0.68c-1.926-0.34-2.039,0.68-1.926,2.152c0.113,1.019,0,2.152,0,3.172c0,0.566,0.113,1.359-0.68,1.359
		c-1.019,0-0.793-0.793-0.793-1.359c0-1.359-0.113-2.832,0-4.191c0-0.906-0.34-1.246-1.133-1.133c-0.34,0-0.793,0-1.133,0
		c-0.453,0-1.019-0.113-1.019-0.793c0-0.566,0.453-0.566,0.906-0.68c2.379-0.34,2.379-0.34,2.379-2.719c0-1.246,0-2.605,0-3.851
		c0-0.566,0.113-1.133,0.793-1.019c0.566,0,0.68,0.566,0.68,1.019C78.785,95.876,78.785,96.895,78.785,97.801z"/>
	<path d="M162.61,81.716c-0.906,0-0.793,0.68-0.793,1.246c0,1.473-0.453,2.832-1.359,4.078c-2.152,2.945-6.457,2.605-7.816-0.793
		c-1.926-4.644-1.926-9.515-0.34-14.273c0.227-0.566,0.453-0.793,1.133-0.68c2.152,0.227,4.305,0.566,6.344,0l0,0
		c0.793-0.227,1.586-0.34,2.152-0.906c1.812-1.019,2.719-2.492,2.605-4.531c-0.113-1.926-1.473-3.058-3.058-3.738
		c-1.359-0.68-2.832-0.793-4.418-0.566c-3.172,0.68-5.664,2.379-7.929,4.644c-0.793,0.793-1.133,2.492-2.492,2.266
		c-1.133-0.113-2.266-1.246-3.398-1.812c-1.586-0.793-2.039-2.039-2.039-3.851c0-3.851-0.906-7.59-2.379-11.214
		c-0.34-0.793-0.793-1.586-1.473-2.266c-1.133-1.359-2.719-1.699-4.191-1.019c-1.473,0.793-1.699,2.152-1.359,3.625
		c1.019,4.871,3.512,8.949,7.136,12.347c0.566,0.566,0.906,1.133,0.793,1.926c-0.227,7.136-2.379,13.706-5.664,20.05
		c-0.793,1.473-1.812,2.605-3.172,3.512c-2.719,1.812-4.418,1.246-5.551-1.812c-0.906-2.605-1.133-5.211-0.906-7.929
		c0.227-3.058,0.566-6.117,1.019-9.062c0.113-1.359-0.34-2.379-1.586-2.832c-1.246-0.566-2.379-0.227-3.172,0.793
		c-0.453,0.566-0.906,1.359-1.246,2.039c-1.812,3.625-2.039,7.476-1.926,11.441c0,1.246-0.113,2.379-0.453,3.625
		c-0.793,2.492-1.586,4.984-2.605,7.363c-0.793,1.699-1.586,3.398-2.945,4.758c-1.699,1.699-3.851,1.586-5.324-0.34
		c-1.019-1.246-1.359-2.719-1.359-4.305c0.113-6.683,0.68-13.367,1.473-20.05c0.113-1.359,0.227-2.719-1.246-3.398
		c-1.359-0.566-2.605-0.113-3.625,1.019c-0.113,0.113-0.113,0.453-0.453,0.227c-1.473-2.605-2.832-3.625-5.211-4.078
		c-6.004-1.133-12.46,2.379-14.613,8.156c-1.473,3.965-1.133,7.703,1.812,10.988c2.945,3.285,6.683,4.531,10.988,3.851
		c1.812-0.227,3.172-1.133,4.758-2.152c0.113,0.453,0.113,0.793,0.227,1.133c0.68,3.625,1.699,7.023,4.531,9.515
		c3.058,2.719,7.136,2.379,9.742-0.793c1.019-1.246,1.812-2.719,2.379-4.191c0.906-2.379,1.812-4.758,2.719-7.25
		c0.793,1.473,1.586,2.832,3.058,3.738c5.777,3.625,11.668,2.039,14.726-3.965c1.699-3.285,3.058-6.797,3.965-10.421
		c0.793-3.058,1.246-6.117,1.586-9.402c1.586,1.133,2.945,2.039,4.531,2.719c0.793,0.34,0.793,0.566,0.453,1.246
		c-1.133,2.152-1.699,4.531-1.926,6.91c-0.793,7.59,4.531,13.48,11.781,13.253c4.078-0.227,7.25-3.512,7.023-7.25
		C163.403,82.509,163.516,81.716,162.61,81.716z M153.435,69.595c1.133-2.039,2.492-3.965,4.305-5.551
		c1.812-1.586,3.738-1.473,5.097,0.227c1.246,1.473,1.019,3.512-0.453,5.097c-0.227,0.227-0.566,0.453-0.906,0.68
		c-0.566,0.227-1.019,0.453-1.586,0.68c-0.227,0-0.453,0.113-0.68,0.113c-0.113,0-0.227,0.113-0.34,0.113
		c-1.699,0.113-3.285,0-4.984-0.227C152.982,70.615,153.095,70.275,153.435,69.595z M139.955,63.592
		c-3.398-3.625-5.551-7.476-6.57-12.121c-0.227-0.906-0.34-1.926,0.793-2.492c1.246-0.566,2.039,0.113,2.719,1.019
		c1.473,2.492,2.266,5.211,2.719,7.929C139.841,59.854,140.181,61.553,139.955,63.592z M99.515,75.373
		c-0.453,2.719-0.793,5.551-0.906,8.269c-0.113,3.851-4.531,6.457-7.929,4.644c-3.512-1.926-4.305-5.211-4.191-8.722
		c0.113-3.172,1.133-6.004,3.625-8.156c1.133-1.019,2.492-1.473,4.418-1.473c0.906,0,2.152,0.453,3.285,1.246
		C99.855,72.427,99.968,73.107,99.515,75.373z"/>
	<g>
		<path d="M184.472,54.869c-4.984-7.25-11.781-11.554-20.956-11.328c-3.285,0.113-6.344,0.906-9.289,2.379
			c-0.566,0.34-1.246,0.68-1.019,1.473c0.113,0.68,0.793,0.906,1.473,1.019c1.246,0.227,2.492-0.113,3.512-0.793
			c1.359-0.793,2.832-1.359,4.305-1.586c5.097-0.68,9.629,0.906,13.706,3.851c9.402,6.683,14.16,19.257,11.554,30.471
			c-1.926,7.929-6.23,14.16-13.027,18.577c-0.793,0.566-1.133,0.453-1.359-0.453c-0.566-2.152-1.699-3.851-3.851-4.531
			c-2.039-0.68-4.305,0.113-5.211,1.812c-0.793,1.586,0,3.625,1.699,4.871c1.359,0.906,2.719,1.133,4.305,0.906
			c0.793-0.113,1.586-0.34,2.379-0.566c0.227,1.473,0.113,2.719-0.227,4.078c-1.699,7.363-8.836,10.082-14.953,9.289
			c-3.738-0.453-7.25-1.926-10.535-3.512c-0.793-0.34-1.019-0.793-0.906-1.586c0.453-2.492,0.793-5.097,1.246-7.59
			c0.113-0.566,0.227-1.133-0.227-1.699c-0.906-1.019-2.152-1.133-3.398-1.019c-1.246,0.113-1.926,0.793-2.152,2.039
			c-0.34,1.699-0.793,3.398-1.133,5.211c-0.113,0.793-0.34,1.133-1.246,0.68c-1.586-0.793-3.172-1.473-4.871-2.039
			c-6.797-2.266-13.367-1.812-19.144,2.719c-3.625,2.832-5.664,6.683-6.117,11.214c-0.113,0.566-0.113,1.133,0.566,1.473
			c1.699,0.68,3.738-0.34,3.965-2.152c0.906-6.117,6.004-12.914,14.953-11.894c3.625,0.453,7.023,1.473,10.421,2.832
			c0.68,0.227,0.793,0.566,0.68,1.246c-0.34,3.512-0.68,7.023-1.133,10.535c-0.906,7.59-1.019,15.179-0.453,22.769
			c0.34,3.965-1.699,6.344-4.078,8.609c-1.699,1.586-3.738,0.68-4.078-1.699c-0.227-1.699-0.227-3.512-0.34-5.324
			c-0.227-2.719,0.227-5.324-0.34-8.043c-0.453-2.152-1.812-2.719-3.738-1.586c-0.68,0.453-0.906,0.34-1.359-0.227
			c-1.133-1.586-2.832-2.492-4.644-2.832c-3.851-0.793-7.363,0.113-10.535,2.379c-0.906,0.566-1.586,0.68-2.492,0.34
			c-1.812-0.68-3.512-1.812-5.437-2.266c-0.68-0.113-0.566-0.68-0.68-1.133c-2.719-11.328-16.312-20.843-29.339-17.898
			c-6.23,1.359-11.441,4.418-14.839,9.968c-3.512,5.777-2.379,13.82,3.172,16.765c0.566,0.34,0.453,0.566,0.34,1.133
			c-0.453,2.266-0.566,4.531-0.113,6.91c0.906,4.984,3.058,9.175,7.816,11.441c3.512,1.699,7.136,1.926,10.988,1.473
			c10.195-1.246,19.823-9.742,22.089-19.823c0.566-2.605,0.68-5.211,0.227-8.043c2.266,0.906,4.305,1.699,6.343,2.492
			c-4.871,6.23-3.058,11.214,0.793,14.499c2.492,2.152,5.324,3.285,8.722,3.172c3.172-0.113,5.664-1.586,7.703-3.965
			c2.039,2.719,4.418,4.644,7.929,4.078c3.398-0.566,4.871-3.398,6.57-6.117c2.832,5.551,9.175,7.703,13.48,2.492
			c2.492,3.625,5.89,4.984,10.082,4.191c4.078-0.793,8.156-4.984,8.609-8.836c0-0.227,0.113-0.566-0.227-0.68
			c-0.227-0.113-0.566,0.113-0.68,0.34c-0.227,0.453-0.34,0.906-0.566,1.359c-0.906,2.379-2.266,4.418-4.305,5.89
			s-4.078,1.246-5.664-0.68c-1.359-1.699-1.586-3.738-1.473-5.777c0-0.68,0.453-0.68,1.019-0.68
			c1.473,0.113,2.945,0.113,4.305,0.113c2.266,0,3.625-1.019,4.305-2.945c0.68-2.039,0.113-4.078-1.473-5.324
			c-2.152-1.699-4.531-2.152-7.136-1.586c-5.097,1.133-8.496,6.344-7.59,11.781c0.113,0.68,0.453,1.359,0.227,1.812
			c-0.793,1.586-2.152,2.945-3.965,3.172c-1.699,0.227-2.832-0.906-3.512-2.266c-0.34-0.68-0.566-1.359-0.68-2.152
			c-0.113-1.699-0.34-3.398-0.227-5.097c0.566-9.855,0.906-19.71,2.039-29.452c0.227-1.473,0.453-1.359,1.586-0.906
			c4.984,2.039,10.082,3.398,15.632,2.492c6.797-1.133,11.554-6.91,11.101-13.593c0-0.793,0.227-1.019,0.793-1.359
			C190.25,90.325,194.781,69.822,184.472,54.869z M172.012,100.52c-0.793,0.34-1.586,0.453-2.266,0.453
			c-2.152,0-3.738-1.019-4.305-2.832c-0.34-1.133-0.453-2.266,0.566-3.172c0.906-0.793,2.039-0.906,3.172-0.453
			c1.586,0.566,3.398,3.512,3.512,5.097C172.692,100.293,172.352,100.407,172.012,100.52z M58.848,139.034
			c-3.625-3.285-4.418-9.402-1.699-14.273c3.851-6.91,10.082-9.855,16.312-10.308c12.574,0.34,19.257,7.136,20.73,17.784
			c0.227,1.699-1.359,1.246-2.152,1.812c-0.68,0.566-0.68-0.453-0.793-0.793c-3.625-9.968-15.972-13.027-23.788-5.777
			c-3.285,3.058-5.437,6.797-6.797,11.101C60.208,140.167,60.208,140.167,58.848,139.034z M88.754,144.132
			c-0.227,0.34-0.453,0.793-0.906,0.793c-0.566-0.113-0.68-0.68-0.68-1.133c-0.113-2.832,1.246-4.984,2.945-7.023
			C90.566,139.487,90,141.866,88.754,144.132z M79.125,157.951c-8.836,2.719-18.691-3.172-17.898-14.953
			c0.113-1.133,0.34-1.812,1.699-1.246c0.906,0.34,2.039,0.227,3.058,0c2.152-0.34,3.285-0.906,4.191-2.379
			c-2.152,1.586-4.305,2.152-6.683,1.926c-1.926-0.453-1.926-0.453-1.359-2.379c1.586-5.437,4.191-10.082,9.289-12.914
			c3.398-1.926,7.023-2.152,10.761-0.566c0.227,0,0.453,0,0.68,0.227c4.078,1.699,6.23,4.758,7.363,8.949
			c0.227,0.68-0.227,1.019-0.68,1.473c-1.926,1.812-3.172,4.078-3.738,6.57c-0.34,1.699,0.113,2.945,1.359,3.398
			c1.473,0.453,2.492-0.34,3.172-1.586c1.359-2.266,1.812-4.758,1.699-7.363c-0.113-2.266-0.113-2.266,2.266-2.945
			C95.55,144.132,88.64,155.119,79.125,157.951z M123.19,148.209c-0.793,2.266-3.851,4.305-6.23,4.305
			c-2.266,0-4.078-1.019-5.211-2.945c-2.039-3.398-1.359-9.289,1.246-12.234c2.605-2.945,8.496-1.926,9.968,1.812
			c0.113,0.227,0.113,0.566,0.113,0.793c-0.34,2.379-0.453,4.758,0.113,7.136C123.303,147.417,123.303,147.87,123.19,148.209z
			 M159.325,140.846c0.113-0.68,0.566-1.246,0.906-1.812c1.133-1.586,2.832-2.039,4.305-1.359c1.699,0.793,2.492,2.605,2.152,4.531
			c-0.34,1.586-1.586,2.492-3.625,2.605c-0.34,0-0.793,0-1.133,0C157.626,144.471,158.306,144.924,159.325,140.846z"/>
		<path d="M80.598,128.952c-0.113-0.566-0.34-1.246-1.019-1.359c-0.793-0.113-1.019,0.566-1.246,1.019
			c-0.34,0.68-0.566,1.359-0.793,2.152c-1.019,5.211-1.359,10.648-1.926,15.972c0,0.453-0.113,0.906,0.453,1.246
			c1.359,1.019,3.965-0.113,4.191-1.699c0.34-3.625,0.566-7.363,0.68-11.554C80.711,133.144,81.051,130.991,80.598,128.952z"/>
	</g>
</g>
</svg>
