<?xml version="1.0" encoding="utf-8"?>
<!-- Generator: Adobe Illustrator 17.0.0, SVG Export Plug-In . SVG Version: 6.00 Build 0)  -->
<!DOCTYPE svg PUBLIC "-//W3C//DTD SVG 1.1//EN" "http://www.w3.org/Graphics/SVG/1.1/DTD/svg11.dtd">
<svg version="1.1" id="Layer_1" xmlns="http://www.w3.org/2000/svg" xmlns:xlink="http://www.w3.org/1999/xlink" x="0px" y="0px"
	 width="180px" height="94.196px" viewBox="10 52.902 180 94.196" enable-background="new 10 52.902 180 94.196"
	 xml:space="preserve">
<path fill="#EEC6D5" d="M189.661,86.593c-1.601,6.157-5.418,10.836-10.221,14.9c-0.493,0.369-0.862,0.862-1.231,1.231
	c-4.679,3.325-9.482,6.28-14.407,9.112c-0.246,0-0.369,0-0.369,0.246l0,0c-0.369,0-0.493,0.123-0.739,0.369
	c-0.123,0-0.369,0.123-0.493,0.123c-1.601,1.355-2.586,0-3.694-0.862h-0.123c-0.985-1.478-2.217-2.709-3.571-3.94
	c-0.739-1.231-1.724-2.34-2.832-3.202c-0.123-0.123-0.369-0.369-0.493-0.493c0-0.246,0.123-0.493-0.246-0.616v-0.123h-0.123
	c-0.616-0.862-1.108-1.601-1.724-2.463c-2.217-2.832-4.064-5.911-5.541-9.112c-1.847-4.064-2.586-8.497-2.34-13.053
	c0.493-2.463,1.231-4.802,2.955-6.65c1.478-1.724,3.448-2.709,5.418-3.694c2.709-0.493,5.418-0.739,8.127,0
	c4.187,1.97,7.019,5.049,8.25,9.728c1.231-1.231,2.217-2.586,3.571-3.571c4.556-3.078,9.112-3.94,13.545-0.985
	C188.184,76.372,191.016,80.682,189.661,86.593z"/>
<path d="M96.937,113.93c-0.985-0.123-2.093,0-2.463,1.108c-0.493,1.601-0.985,3.325-0.862,5.049c0.123,1.231,1.108,2.093,2.709,2.34
	c1.355,0.246,2.217-0.123,2.709-1.478c0.493-1.108,0.739-2.34,0.862-3.571c0-0.493,0-0.985-0.123-1.478
	C99.646,114.792,98.661,114.053,96.937,113.93z"/>
<path d="M168.235,135.479c-0.123,0-0.123,0-0.246,0c-2.709-0.739-4.802,0.493-6.896,1.97c-2.093,1.601-3.94,3.448-5.664,5.418
	c-1.478,1.601-3.202,2.586-5.295,3.079c-3.079,0.739-3.571,0.493-4.187-2.709c-0.739-4.187,0.616-6.526,4.556-7.881
	c0.616-0.246,1.231-0.369,1.847-0.616c1.478-0.493,2.832-1.108,3.94-2.217c3.325-3.078,3.078-8.497-0.616-10.221
	c-3.571-1.724-7.388-1.724-10.713,0.616c-3.94,2.832-6.034,6.65-6.896,11.452c-0.246,1.478,0.246,3.202-0.616,4.433
	c-1.847,2.586-4.064,4.926-7.142,6.157c-1.108,0.369-1.724,0.123-2.093-0.862c-0.739-1.724-0.985-3.448-0.862-5.172
	c0.246-4.556,1.478-8.866,2.463-13.299c0.123-0.616,0.493-1.231,0.985-1.724c2.34-1.847,4.802-3.694,7.019-5.664
	c3.079-2.709,5.788-5.541,6.526-9.851c0.616-3.694-0.493-6.526-3.448-7.758c-2.463-1.108-4.926-0.862-7.265,0.616
	c-2.463,1.478-4.064,3.817-5.541,6.28c-3.694,6.28-4.679,13.422-6.403,20.441c-0.493,2.217-0.246,4.556-1.601,6.526
	c-0.862,1.355-1.724,2.832-2.709,4.31c-0.985,1.478-2.093,2.832-3.571,3.694c-0.985,0.616-1.601,0.246-1.847-0.862
	c-0.123-0.369-0.123-0.739-0.123-1.231c0.246-5.418,2.34-10.221,5.049-14.9c0.493-0.862,1.231-1.847,2.463-1.355
	s0.985,1.601,0.985,2.709v0.123c0,0.369-0.493,0.862,0.123,0.985c0.493,0.123,0.739-0.369,0.739-0.862
	c0.123-1.478,0-3.078-1.108-4.187c-1.97-2.093-4.433-2.093-6.896-1.355c-5.295,1.601-7.758,5.541-8.866,10.467
	c-0.739,2.955-1.847,5.788-3.202,8.374c-1.108,1.97-2.709,3.202-4.802,3.94c-1.108,0.369-1.601,0.123-1.724-1.108
	c-0.123-1.724,0-3.325,0.493-4.926c0.985-3.94,2.463-7.758,3.202-11.821c0.369-1.724-0.493-3.078-2.093-3.571
	c-2.217-0.739-4.064,0-5.172,1.97c-1.478,2.709-2.463,5.541-2.955,8.62c-0.123,0.862-0.123,1.724-0.616,2.586
	c-1.478,2.217-2.955,4.31-4.679,6.28c-0.616,0.616-1.231,1.108-1.97,1.478c-1.97,0.985-3.448-0.123-3.202-2.217
	c0.123-1.478,0.616-2.709,1.108-4.064c1.108-3.202,2.217-6.403,2.709-9.728c0.369-2.463-1.231-4.187-3.694-4.187
	c-1.847,0-3.325,0.739-4.926,1.478c-0.985,0.493-2.093,0.985-3.078,1.478c-0.369,0.123-1.108,0.246-1.355-0.246
	c-0.369-0.739,0.369-0.739,0.739-0.985c2.832-1.97,5.049-4.433,5.788-7.881c0.616-2.709,0.369-5.541-2.093-7.388
	s-5.049-1.108-7.635,0.123c-4.433,2.34-6.65,11.329-2.463,15.639c0.616,0.739,0.493,0.985-0.246,1.478
	c-1.847,1.108-3.694,2.217-5.295,3.94c-0.246-0.862-0.493-1.478-0.616-2.217c-0.616-2.709-2.463-4.187-5.049-4.679
	c-4.679-0.862-8.127,1.231-10.836,4.926c-0.369,0.369-0.493,0.985-1.231,1.231c0.369-4.556,1.108-8.866,2.463-13.053
	c0.246-0.616,0.862-0.862,1.478-0.985c3.571-1.355,6.896-2.955,9.974-5.295c2.955-2.34,4.679-5.295,4.556-9.236
	c-0.123-3.325-1.97-5.541-5.172-6.403c-2.34-0.616-4.433-0.246-6.403,0.985c-3.202,1.847-5.418,4.679-7.142,7.881
	c-2.093,3.94-3.448,8.127-4.926,12.314c-0.493,1.355-1.231,2.093-2.34,2.832c-4.433,2.832-7.265,6.896-8.866,11.945
	c-0.123,0.369-0.369,0.985,0.246,1.108c0.493,0.123,0.616-0.493,0.739-0.862c1.108-3.571,3.202-6.403,5.541-9.112
	c0.985-1.108,2.093-1.97,3.694-2.586c-0.123,0.616-0.246,1.108-0.246,1.601c-0.862,5.295-2.093,10.59-2.093,16.131
	c0,2.217,0,4.31,0.739,6.403c0.616,1.724,2.217,2.832,3.817,2.709c1.478-0.123,2.34-1.231,2.586-3.325
	c0.246-2.34,0.369-4.802,0.739-7.142c0.493-3.817,2.34-6.773,5.172-9.112c1.97-1.601,3.571-0.985,4.187,1.478
	c0.369,1.847,0.369,3.817,0.123,5.664c-0.123,0.985-0.493,1.478-1.478,1.97c-2.217,0.985-3.571,2.709-4.187,5.049
	c-0.493,1.97,0.246,3.694,2.093,4.679c3.817,1.97,8.374,0.369,10.344-3.694c0.985-2.217,1.601-4.556,1.847-6.896
	c0.246-1.97,0.739-3.694,2.34-5.049c1.231-1.108,2.709-2.093,4.187-2.832c0.493-0.246,1.108-0.369,1.724-0.123
	c1.601,0.493,3.078,0.246,4.679-0.246c1.478-0.493,2.832-1.108,4.187-1.847c0.369-0.123,0.739-0.493,1.108-0.246
	c0.246,0.246,0.123,0.739,0,1.108c-0.123,0.369-0.246,0.862-0.369,1.231c-0.985,3.078-1.97,6.157-2.586,9.359
	c-1.108,5.295,2.093,8.866,7.388,8.127c2.093-0.246,3.694-1.601,5.049-3.202c1.108-1.231,2.217-2.586,3.448-3.94
	c0.369,0.493,0.246,0.862,0.369,1.231c0.493,3.94,3.202,6.403,6.773,6.034c3.078-0.369,5.541-1.724,7.265-4.31
	c0.739-1.108,1.355-2.463,2.093-3.694c0.493,0.493,0.493,1.231,0.616,1.724c1.355,4.31,5.172,5.911,9.235,4.064
	c2.34-1.108,3.694-2.955,5.049-5.049c0.616-0.985,1.108-2.093,2.093-3.079c0.123,1.478,0.246,2.832,0.246,4.187
	c0.369,3.94,2.586,6.526,6.157,6.65c2.217,0.123,4.31-0.616,6.157-1.847c1.601-1.108,2.832-2.709,4.433-4.064
	c0.862,3.202,2.34,5.541,5.418,6.403c4.433,1.231,8.497,0.493,11.945-2.586c1.355-1.231,2.586-2.586,3.817-3.817
	c1.601-1.601,3.202-2.955,5.172-3.817c1.231-0.493,2.463-0.739,3.694-0.246c0.493,0.123,0.985,1.108,1.355,0.246
	C169.836,135.849,168.727,135.849,168.235,135.479z M147.178,134.987c1.355-3.694,2.955-7.142,6.034-9.728
	c0.862-0.739,1.724-1.601,2.955-0.862c1.108,0.616,1.355,1.724,1.355,2.955c-0.123,2.217-0.985,3.94-2.832,5.295
	c-2.093,1.478-4.679,1.847-6.896,2.955C147.178,135.972,147.055,135.479,147.178,134.987z M131.17,120.333
	c1.724-5.049,3.694-10.097,7.019-14.284c0.739-0.985,1.601-1.97,2.709-2.586c1.355-0.862,2.217-0.493,2.586,1.108
	c0.493,2.34,0,4.556-0.985,6.773c-1.108,2.34-2.955,4.187-4.802,5.911c-1.847,1.601-3.571,3.202-5.418,4.802
	c-0.493,0.369-0.862,0.862-1.601,1.108C130.431,121.934,130.8,121.195,131.17,120.333z M42.263,115.038
	c1.724-5.049,3.448-10.097,6.28-14.531c0.123-0.246,0.369-0.493,0.493-0.739c0.985-1.478,1.97-2.955,4.064-2.34
	c2.093,0.493,3.078,2.093,3.448,4.064c0.123,0.493,0.123,0.862,0.123,1.108c0,3.078-1.108,5.418-3.202,7.265
	c-2.955,2.709-6.526,4.556-10.221,6.034c-0.246,0.123-0.616,0.246-0.862,0.123C42.016,115.654,42.263,115.408,42.263,115.038z
	 M46.819,144.469c-0.123,0.616-0.369,1.355-1.108,1.355c-0.739,0.123-1.355-0.246-1.724-0.985c-0.616-0.862-0.739-1.847-0.493-2.955
	c0.616-2.093,1.97-3.448,4.187-4.433C47.311,140.159,47.311,142.375,46.819,144.469z M67.753,124.274c0-0.739,0-1.601,0-2.093
	c0-3.078,0.493-5.664,1.355-8.25c0.123-0.493,0.369-0.985,0.739-1.355c1.231-1.601,2.709-1.355,3.571,0.493
	c0.739,1.724,0.616,3.325,0.123,5.049c-0.862,2.832-2.709,4.926-4.802,6.65C68.122,125.259,67.753,125.136,67.753,124.274z"/>
<path d="M27.978,83.145c1.601-2.955,3.325-5.664,5.788-7.881c0.616-0.493,0.985-1.355,1.847-1.601c0,0.246,0,0.369,0.123,0.493
	c0.862,5.788,5.295,8.989,10.59,7.758c2.217-0.493,4.064-1.847,5.788-3.202c1.97-1.478,3.94-3.202,6.034-4.556
	c0.123,0.616-0.246,1.108-0.369,1.601c-0.493,1.724-0.739,3.448-0.739,5.295c0.123,3.817,1.97,6.403,5.172,7.019
	c2.463,0.493,4.802,0.123,6.896-1.355c1.108-0.739,2.093-1.724,3.325-2.832c-0.246,1.601,0,2.955,0.123,4.31
	c0.369,4.187,3.202,6.526,7.388,6.157c3.079-0.369,5.049-2.217,6.773-4.556c1.847-2.463,3.325-5.295,4.31-8.25
	c0.123-0.493,0.246-1.108,0.739-1.478c0.246,0.246,0.369,0.369,0.493,0.616c1.724,2.093,4.31,2.093,5.911-0.123
	c0.493-0.739,0.985-1.601,1.355-2.463c1.108-2.463,1.97-4.926,3.325-7.265c0.862-1.478,1.97-2.586,3.448-3.448
	c0.246-0.123,0.616-0.369,0.985-0.123c0.369,0.246,0.246,0.616,0.123,0.985c-0.246,0.985-0.616,2.093-0.985,3.078
	c-1.355,3.571-2.709,7.142-4.064,10.836c-0.493,1.108-0.616,2.34-0.493,3.571s0.862,2.217,1.97,2.709
	c1.108,0.493,2.217,0.246,3.078-0.616c0.616-0.493,1.231-1.108,1.724-1.847c1.847-2.709,3.079-5.664,3.94-8.866
	c1.108-3.694,3.325-6.65,6.034-9.236c0.739-0.739,1.724-1.355,2.709-0.616c0.985,0.616,0.369,1.724,0.123,2.586
	c-0.862,2.832-2.217,5.418-3.202,8.127c-1.847,4.679-3.94,9.359-4.556,14.531c-0.369,4.31,1.355,7.388,5.049,8.127
	c1.847,0.369,3.694-0.123,5.418-0.985c2.093-1.108,3.571-2.955,5.049-4.679c1.724-2.093,3.448-4.31,5.541-6.157
	c1.847-1.601,3.694-3.325,6.526-3.079c0.123,0,0.369-0.123,0.369-0.369c-0.739-0.616-1.724-0.493-2.586-0.246
	c-1.355,0.369-2.463,1.108-3.571,1.97c-2.832,2.217-5.049,5.049-7.388,7.881c-1.478,1.847-3.078,3.448-5.295,4.433
	c-1.601,0.739-2.34,0.123-2.463-1.478c0-0.739,0-1.601,0.246-2.34c0.616-3.078,1.601-6.157,2.832-9.112
	c2.093-5.049,3.94-10.097,5.172-15.516c0.862-3.817-1.355-6.403-5.172-6.28c-2.34,0.123-4.187,1.355-5.788,2.955
	c-0.985,0.985-1.97,2.093-2.955,3.202c-0.123-0.246-0.123-0.369-0.123-0.493c0.369-4.556-4.679-6.28-7.635-4.433
	c-1.601,0.985-2.832,2.217-4.187,3.448c-0.123-0.123-0.123-0.123-0.246-0.246c0.246-1.97,0.739-3.94,0.739-5.911
	c-0.123-1.97-0.739-3.078-2.34-3.694c-1.478-0.493-2.955,0-4.187,1.355c-1.231,1.478-1.97,3.202-2.463,4.926
	c-1.108,3.94-1.847,7.881-2.832,11.945c-1.231,5.049-3.448,9.728-7.019,13.669c-0.739,0.739-1.601,1.355-2.586,1.847
	c-0.862,0.493-1.478,0.246-1.478-0.862c-0.123-1.724-0.123-3.571,0.123-5.295c0.616-3.571,1.478-7.265,1.847-10.836
	c0.246-2.586-1.108-4.187-3.694-4.187c-1.478,0-2.463,0.739-3.325,1.847c-1.231,1.601-1.847,3.571-2.093,5.541
	c-0.369,2.709-1.601,4.802-3.817,6.28c-0.862,0.616-1.847,1.847-2.955,1.231c-1.231-0.616-0.985-2.217-0.862-3.448
	c0.123-3.571,1.108-7.019,2.093-10.344c0.369-1.355,0.985-2.586,1.97-3.571c0.985-1.108,1.97-1.231,3.202-0.493
	c0.739,0.493,1.231,1.108,1.724,1.847c0.246,0.493,0.123,1.601,0.862,1.231s0-1.231-0.246-1.847c0-0.123-0.123-0.123-0.123-0.246
	c-3.448-4.679-10.836-4.679-14.161,0c-1.108,1.724-2.463,3.202-4.187,4.31c-0.985,0.616-1.724,1.355-2.586,2.093
	c-2.093,1.601-4.064,3.325-6.403,4.433c-2.463,1.108-3.448,0.493-3.94-2.093c-0.369-1.847-0.123-3.694,0-5.541
	c0.123-1.601,0.739-2.34,2.217-2.832s2.955-1.231,4.187-2.34c2.34-2.217,2.34-5.295,0.123-7.142
	c-2.463-1.97-7.142-2.093-9.605-0.246c-3.325,2.586-4.433,6.28-4.556,10.344c0,0.862-0.246,1.601-0.985,2.217
	c-1.724,1.478-3.202,3.202-4.556,5.049c-2.955,4.064-5.295,8.62-7.512,13.176c-0.739,1.478-1.478,2.832-2.832,3.817
	c-1.601,0.985-2.217,0.616-2.463-1.231c-0.246-2.832,0-5.664,0.246-8.497c0.739-7.635,1.97-15.146,3.448-22.658
	c0.246-1.108,0.616-1.478,1.724-1.355c0.616,0.123,1.724,0.616,1.847-0.246c0.123-0.739-1.108-0.493-1.724-0.493
	c-1.108-0.123-1.478-0.493-1.108-1.601c0.369-1.231,0.246-2.463-0.123-3.694c-0.369-1.601-1.601-2.586-3.079-2.709
	c-1.478-0.123-2.463,0.493-3.325,1.97c-0.616,1.355-0.985,2.832-1.355,4.31c-0.123,0.739-0.493,0.985-1.231,0.862
	c-0.739-0.123-1.478-0.123-2.217-0.123c-0.246,0-0.862,0-0.862,0.493c0,0.369,0.493,0.493,0.862,0.493
	c0.616,0.123,1.231,0.246,1.847,0.246c1.231-0.123,1.231,0.493,0.985,1.355c-1.231,5.541-2.217,11.206-2.709,16.747
	c-0.369,3.94-0.739,7.881-0.123,11.821c0.616,4.187,3.202,6.526,6.896,6.157c2.709-0.246,4.433-1.847,5.664-4.187
	C24.654,89.548,26.254,86.347,27.978,83.145z M47.681,62.211c0.493-0.493,1.231-0.862,1.97-0.493
	c0.739,0.369,1.108,1.108,0.985,1.847c0,1.601-0.739,2.832-1.97,3.94c-1.355,1.108-2.955,1.601-4.802,2.463
	C44.602,67.014,45.587,64.304,47.681,62.211z"/>
</svg>
