<?xml version="1.0" encoding="utf-8"?>
<!-- Generator: Adobe Illustrator 17.0.0, SVG Export Plug-In . SVG Version: 6.00 Build 0)  -->
<!DOCTYPE svg PUBLIC "-//W3C//DTD SVG 1.1//EN" "http://www.w3.org/Graphics/SVG/1.1/DTD/svg11.dtd">
<svg version="1.1" id="Layer_1" xmlns="http://www.w3.org/2000/svg" xmlns:xlink="http://www.w3.org/1999/xlink" x="0px" y="0px"
	 width="167.409px" height="180px" viewBox="16.295 10 167.409 180" enable-background="new 16.295 10 167.409 180"
	 xml:space="preserve">
<polygon fill="#B2E2F0" points="115.622,65.92 110.989,70.791 111.226,74 114.553,81.129 122.395,81.129 124.89,80.416 
	128.098,71.504 123.108,65.682 "/>
<path fill="#AC1D69" d="M73.086,36.81c0.594-0.238,1.069-0.475,1.545-0.713c1.663-0.951,3.327-2.02,4.753-3.208
	c1.188-1.069,2.258-2.258,2.852-3.802c0-0.119,0.119-0.238,0.238-0.356c0.119-0.238,0.356-0.238,0.594-0.238
	c0.238,0.119,0.119,0.238,0.119,0.475c-0.475,2.495-1.663,4.634-3.921,5.941c-1.782,1.069-3.446,2.02-5.347,2.852
	c-0.594,0.238-0.951,0.594-0.951,1.307c-0.119,2.495-0.356,4.99-0.832,7.485c-0.356,1.782-0.832,3.446-1.663,5.109
	c-0.832,1.901-2.258,3.089-4.04,4.04c-1.426,0.713-2.97,1.188-4.515,1.426c-2.258,0.356-4.396-1.188-4.872-3.446
	c-0.832-3.565,0.475-6.416,2.733-9.03c1.188-1.426,2.733-2.376,4.396-3.208c0.951-0.475,1.901-0.951,2.852-1.426
	c0.475-0.238,0.713-0.475,0.713-1.069c0.119-2.852,0-5.703,0-8.436c-0.119-3.208-0.238-6.416-0.356-9.624
	c-0.119-2.733-0.356-5.584-0.475-8.317c0-0.594-0.119-0.594-0.713-0.475c-1.069,0.356-1.901,0.951-2.852,1.545
	c-0.356,0.238-0.832,0.475-1.307,0.238c-0.475-0.238-0.594-0.475-0.119-0.951c0.951-1.069,2.139-1.901,3.565-2.495
	c1.782-0.594,3.565-0.475,5.466-0.238c0.832,0.119,1.188,0.713,1.188,1.426c0.119,1.188,0.238,2.376,0.356,3.565
	c0.119,2.852,0.356,5.703,0.475,8.436c0.238,3.921,0.356,7.842,0.356,11.882C73.086,36.097,72.967,36.453,73.086,36.81z
	 M67.383,41.206c-1.069,0.475-2.139,0.951-2.97,1.426c-2.02,1.069-3.565,2.733-4.753,4.634c-1.069,1.663-1.188,3.446-0.594,5.228
	c0.356,1.069,1.069,1.782,2.02,2.139c0.356,0.119,0.832,0.356,1.188,0.475c0.475,0.119,0.832,0.119,1.188-0.238
	c1.069-0.951,1.663-2.139,2.139-3.446c0.832-2.258,1.307-4.634,1.545-7.01C67.264,43.464,67.383,42.394,67.383,41.206z"/>
<path fill="#AC1D69" d="M92.334,38.83c-0.832,0.832-1.426,1.663-2.495,2.258c-0.475,0.238-1.069,0.475-1.545,0.594
	c-1.545,0.238-3.089,0.238-4.515-0.238c-1.307-0.475-2.258-1.307-2.733-2.733c-0.594-1.901-0.713-3.802-0.356-5.822
	c0.475-2.852,1.069-5.703,1.782-8.436c0-0.119,0-0.238,0.119-0.356c0.238-0.951,0.356-1.069,1.307-1.069
	c1.188,0,2.495,0,3.683,0.356c0.832,0.238,0.713,0.238,0.594,0.951c-0.713,2.733-1.426,5.584-1.782,8.436
	c-0.238,1.545-0.475,3.208-0.713,4.753c-0.119,0.832-0.119,1.663,0.119,2.376c0.238,0.951,0.713,1.188,1.663,0.832
	c1.901-0.594,3.327-1.901,4.634-3.327c0.238-0.238,0.238-0.594,0.238-0.951c0.119-2.614,0.238-5.228,0.356-7.842
	c0.119-1.426,0.356-2.852,0.594-4.277c0.119-0.951,0.594-1.307,1.545-1.426c0.832-0.119,1.782-0.119,2.614-0.119
	c0.832,0.119,1.188,0.356,1.188,1.307c0,0.713,0,1.426-0.238,2.139c-0.356,2.258-0.475,4.634-0.475,6.891
	c0,0.951-0.119,1.901-0.119,2.852c0,1.069,0.119,2.139,0.238,3.208c0.119,0.832,0.238,1.663,0.356,2.376s0.356,0.832,0.951,0.475
	c0.713-0.356,1.426-0.951,2.02-1.545c1.663-1.663,2.733-3.683,3.565-5.822c0.832-2.02,1.545-4.04,2.02-6.06
	c0-0.238,0.119-0.475,0.238-0.713c0.119-0.238,0.356-0.356,0.594-0.238c0.238,0.119,0.119,0.238,0.119,0.475
	c-0.356,2.852-1.188,5.584-2.376,8.317c-0.594,1.307-1.307,2.614-2.02,3.802c-1.307,2.02-3.089,3.208-5.584,3.208
	c-0.594,0-1.069,0-1.663-0.119c-2.02-0.356-3.089-1.663-3.565-3.446C92.453,39.661,92.453,39.305,92.334,38.83z"/>
<path fill="#AC1D69" d="M112.296,28.968c2.614,2.614,4.396,5.703,5.822,9.149c1.069-0.713,2.02-1.426,2.733-2.376
	c1.307-1.545,2.376-3.208,2.97-5.109c0.119-0.356,0.238-0.594,0.356-0.951c0.119-0.238,0.238-0.356,0.475-0.238
	c0.238,0.119,0.238,0.238,0.238,0.475c-0.238,1.901-1.069,3.565-2.139,5.228c-0.951,1.426-2.139,2.733-3.565,3.683
	c-0.594,0.475-0.594,0.475-0.356,1.188c0.594,2.258,0.832,4.515,0.475,6.773c-0.238,1.188-0.594,2.376-1.426,3.208
	c-0.951,0.951-2.139,1.426-3.446,1.545c-1.307,0.238-2.733,0.238-4.04-0.119c-1.663-0.475-2.614-1.663-2.614-3.327
	c0-1.901,0.713-3.565,2.258-4.872c0.951-0.832,2.139-1.426,3.208-2.02c0.713-0.356,0.951-0.713,0.832-1.545
	c-0.238-1.782-0.832-3.327-1.782-4.872c-1.426-2.376-3.208-4.396-4.99-6.535c-0.713-0.951-1.426-1.901-1.782-3.089
	c-0.594-1.901,0-3.683,1.782-4.753s3.683-1.545,5.822-0.951c0.594,0.119,1.188,0.356,1.663,0.475
	c1.545,0.594,2.139,1.901,1.782,3.446c-0.356,1.663-1.426,3.089-2.733,4.159C113.365,28.136,112.771,28.611,112.296,28.968z
	 M113.84,42.038c-1.307,0.594-2.258,1.307-3.208,2.139c-0.594,0.475-0.951,1.188-1.188,1.901c-0.475,1.545,0.238,3.208,1.545,4.159
	c0.356,0.238,0.594,0.238,0.951-0.119c0.119-0.119,0.119-0.238,0.238-0.238C113.721,47.384,114.078,44.889,113.84,42.038z
	 M111.82,28.374c0.951-0.713,1.901-1.545,2.614-2.495c0.475-0.594,0.832-1.188,1.069-2.02c0.238-1.188,0-2.139-0.951-2.97
	c-0.356-0.356-0.713-0.356-1.188-0.119c-0.951,0.594-1.901,1.188-2.495,2.139c-0.713,1.188-1.069,2.376-0.356,3.683
	C110.87,27.304,111.226,27.898,111.82,28.374z"/>
<path fill="#AC1D69" d="M130.118,19.819c0.356,0.238,0.713,0.119,1.069,0.119c0.951-0.119,1.901-0.119,2.733-0.238
	c0.713-0.119,1.426,0.119,2.139,0.119c0.475,0.119,0.832,0.475,1.069,0.951c-0.713,0.356-1.307,0.356-2.02,0.356
	c-1.545,0-3.089,0-4.634,0.119c-0.475,0-0.713,0.119-0.832,0.594c-0.594,3.683-1.188,7.485-0.951,11.169
	c0.119,2.258,0.713,4.396,1.782,6.416c0.713,1.307,1.901,2.02,3.446,2.139c0.713,0.119,1.307-0.119,2.02-0.475
	c1.782-1.069,3.089-2.614,4.277-4.277c1.188-1.663,2.139-3.565,2.852-5.466c0.356-0.951,0.475-1.901,0.594-2.852
	c0-0.238,0.119-0.475,0.119-0.594c0-0.119,0.238-0.238,0.356-0.238c0.119,0,0.119,0.119,0.119,0.238c0,0.951-0.119,2.02-0.238,2.97
	c-0.832,3.683-2.733,6.773-5.466,9.387c-1.782,1.663-4.04,2.495-6.416,2.614c-1.188,0.119-2.376,0.119-3.565-0.119
	c-1.901-0.475-3.327-1.545-4.04-3.565s-1.069-4.159-1.188-6.416c-0.119-2.97,0.238-6.06,0.594-9.03
	c0.119-0.594,0.119-1.188,0.238-1.782c0.119-0.594,0-0.594-0.475-0.594c-1.901,0.238-3.802,0.238-5.703,0.475
	c-0.238,0-0.475,0-0.594-0.119c-0.238-0.119-0.356-0.238-0.356-0.475c0-0.356,0.238-0.356,0.475-0.475
	c0.713-0.238,1.545-0.238,2.258-0.356c1.307-0.238,2.614-0.238,3.921-0.356c0.832-0.119,0.832,0,0.832-0.832
	c0.238-1.901,0.832-3.683,1.426-5.466c0.475-1.188,1.307-1.782,2.495-1.782c0.713,0,1.426-0.119,2.139,0.119
	c0.832,0.238,1.069,0.594,0.951,1.426c-0.119,0.475-0.356,0.951-0.475,1.426C130.712,16.848,130.237,18.274,130.118,19.819z"/>
<path fill="#AC1D69" d="M21.994,163.35c0.475-1.426,0.951-2.852,1.545-4.277c0.713-1.782,1.663-3.446,2.614-5.109
	c1.307-2.02,3.089-2.495,5.228-2.258c0.951,0.119,1.901,0.238,2.852,0.713c1.188,0.713,2.02,1.782,2.614,2.97
	c0.475,0.832,0.713,1.782,1.069,2.733c0.119,0.238,0,0.475,0.356,0.713c0.238-0.238,0.356-0.594,0.475-0.832
	c1.069-2.02,2.376-3.802,4.396-4.99c1.188-0.713,2.495-1.188,3.921-1.188c0.832,0,1.782,0,2.614,0.119
	c3.327,0.356,4.872,2.852,5.347,4.872c0.475,1.901,0.594,3.802,0.475,5.703c-0.238,4.277-0.475,8.555-0.713,12.832
	c0,0.594,0,1.188,0,1.663c0,0.356,0.119,0.832,0.238,1.188c0.475,1.426,0.832,1.545,2.02,0.475c1.782-1.663,3.089-3.683,4.396-5.822
	c0.832-1.426,1.545-2.97,2.258-4.396c0.356-0.594,0.475-1.426,0.594-2.02c0-0.238,0.119-0.356,0.238-0.594
	c0.119-0.356,0.475-0.238,0.713-0.238s0.119,0.238,0.119,0.475c-0.119,4.396-1.426,8.317-3.921,11.882
	c-1.426,2.02-3.446,2.97-5.822,3.208c-0.951,0.119-1.901,0.238-2.97,0c-1.782-0.356-2.97-1.426-3.208-3.208
	c-0.119-0.832-0.119-1.663-0.119-2.495c0.238-4.515,0.475-8.911,0.713-13.426c0.119-2.614-0.238-5.228-1.069-7.842
	c0-0.119-0.119-0.238-0.119-0.475c-0.475-0.951-0.832-1.069-1.782-0.713c-1.426,0.475-2.495,1.307-3.565,2.376
	c-0.951,0.951-1.782,2.139-2.495,3.327c-0.713,1.188-1.307,2.376-2.02,3.565c-0.238,0.356-0.238,0.594-0.119,0.951
	c0.356,2.258,0.713,4.634,0.832,6.891c0.119,3.089,0.475,6.178-0.119,9.268c-0.594,2.97-1.901,3.921-4.159,4.396
	c-0.119,0-0.356,0-0.475,0c-0.475,0-0.594-0.119-0.594-0.713c0-1.069,0-2.139,0.119-3.208c0.356-2.852,0.119-5.822,0-8.674
	c-0.238-3.565-0.713-7.01-1.307-10.575c-0.475-2.376-1.188-4.753-2.258-6.891c-0.594-1.426-0.832-1.426-1.901-0.356
	c-1.307,1.307-2.376,2.852-3.208,4.515c-0.832,1.782-1.545,3.683-2.02,5.584c-0.356,1.663-0.832,3.327-1.188,4.99
	s-0.238,3.208,0,4.872c0.238,2.495,0.713,4.99,1.188,7.367c0.238,0.832,0,1.545-0.475,2.139c-0.713,0.832-1.545,1.307-2.614,1.545
	c-0.951,0.238-1.663-0.356-1.782-1.307c-0.475-2.258-1.069-4.634-1.307-6.891c-0.238-2.139-0.475-4.159-0.594-6.297
	c-0.238-2.852-0.356-5.703-0.594-8.555c-0.238-3.089-0.119-6.297,0.475-9.387c0.238-1.426,0.713-1.901,2.139-2.02
	c0.713-0.119,1.426-0.238,2.258-0.119c0.832,0,1.069,0.238,1.069,1.069c0,0.951-0.119,2.02-0.356,2.97
	C21.282,156.815,21.638,160.023,21.994,163.35z"/>
<path fill="#AC1D69" d="M92.928,169.291c0,0.832-0.356,1.663-0.594,2.376c-1.188,3.089-2.97,5.941-5.228,8.317
	c-1.663,1.901-3.802,2.258-6.178,2.02c-0.119,0-0.238,0-0.356-0.119c-2.614-0.356-3.446-1.426-4.159-3.921
	c-0.119-0.356-0.119-0.832-0.238-1.188c-0.356,0-0.356,0.238-0.475,0.475c-0.594,0.951-1.188,1.782-1.782,2.495
	c-1.069,1.426-3.683,2.02-5.347,1.307c-0.475-0.238-0.951-0.594-1.307-1.069c-0.832-1.069-1.307-2.258-1.426-3.565
	c-0.119-3.089,0.119-6.178,1.545-8.911c1.545-3.208,3.921-4.396,7.485-4.277c0.832,0,1.307,0.238,2.258,0.951
	c0,0,0.119,0,0.119-0.119c0.951-2.02,1.901-2.02,4.159-1.663c0.475,0.119,0.713,0.356,0.713,0.832c0.119,1.188,0.119,2.258,0,3.446
	c-0.356,3.446-0.713,6.891-0.713,10.456c0,0.951,0.119,1.901,0.475,2.733c0.594,1.307,1.545,1.663,2.733,0.832
	c1.545-1.069,2.733-2.614,3.683-4.277c1.069-1.782,1.901-3.802,2.733-5.703c0.238-0.594,0.594-1.188,0.832-1.782
	c0.119-0.238,0.238-0.356,0.475-0.238C93.047,168.816,92.928,169.053,92.928,169.291z M75.937,164.538
	c-0.238-0.119-0.475-0.356-0.832-0.356c-0.951-0.356-1.426-0.238-1.782,0.832c-0.238,0.713-0.475,1.426-0.713,2.139
	c-0.832,2.97-1.663,5.941-1.901,9.03c-0.119,1.307,0.119,2.495,0.713,3.565c0.356,0.594,0.594,0.594,1.069,0.238
	c1.307-1.069,2.258-2.376,3.089-3.802c0.356-0.713,0.594-1.426,0.713-2.258c0.119-2.376,0.238-4.872,0.594-7.248
	C77.007,165.489,76.65,164.895,75.937,164.538z"/>
<path fill="#AC1D69" d="M91.384,167.628c1.069,0.119,1.901,0.119,2.733,0.238c0.594,0,1.188,0.119,1.782,0.238
	c1.188,0.238,2.139,1.069,2.614,2.139c0.594,1.188,0.832,2.495,0.356,3.802c-0.475,1.782-1.069,3.565-1.545,5.347
	c-0.475,1.782-0.832,3.683-0.594,5.584c0.119,0.713,0.238,1.545,0.594,2.139c0.119,0.238,0.238,0.475,0.475,0.713
	c0.713,0.951,1.188,0.951,1.901,0c0.832-0.951,1.307-1.901,1.901-3.089c1.782-3.446,2.733-7.248,3.446-11.05
	c0.238-1.545,0.594-3.089,0.832-4.634c0-0.119,0.119-0.238,0.119-0.475c0.119-0.356,0.238-0.475,0.594-0.475
	c0.356,0,0.475,0.238,0.475,0.475c0.119,0.832,0.119,1.663,0,2.376c-0.475,3.446-1.426,6.773-2.733,9.981
	c-0.713,1.782-1.426,3.565-2.258,5.347c-1.307,2.97-4.396,3.921-7.01,3.683c-1.663-0.238-3.208-1.901-3.446-3.327
	c-0.356-2.02,0-3.921,0.238-5.822c0.475-2.733,1.307-5.347,1.901-7.961c0.238-0.951,0.594-1.782,0.951-2.733
	c0.475-1.663,0.238-2.02-1.545-1.901c-1.663,0.119-3.327,0.119-4.99-0.238c-0.594-0.119-1.188-0.356-1.663-0.594
	c-0.594-0.356-1.069-0.951-1.069-1.782c-0.119-2.852,0.713-5.466,2.376-7.723c0.951-1.307,2.139-2.02,3.683-2.376
	c0.832-0.119,1.545,0,2.376,0.119c0.713,0.119,1.069,0.832,1.188,1.545c0.119,1.069,0.119,2.258-0.238,3.327
	c-0.238,1.069-0.713,2.02-1.188,2.97C92.928,164.776,92.334,166.202,91.384,167.628z M91.027,166.677
	c1.069-2.02,2.258-3.802,2.733-6.06c0.238-0.951,0.356-2.02,0.119-3.089c-0.119-0.356-0.119-0.951-0.475-0.951
	c-0.475,0-0.594,0.475-0.713,0.951c-0.356,0.832-0.594,1.782-0.832,2.614c-0.475,1.545-0.832,3.208-0.951,4.872
	C90.79,165.608,90.79,166.083,91.027,166.677z"/>
<path fill="#AC1D69" d="M107.424,167.628c1.069,0.119,1.901,0.119,2.733,0.238c0.594,0,1.188,0.119,1.782,0.238
	c1.188,0.238,2.139,1.069,2.614,2.139c0.594,1.188,0.832,2.495,0.356,3.802c-0.475,1.782-1.069,3.565-1.545,5.347
	c-0.475,1.782-0.832,3.683-0.594,5.584c0.119,0.713,0.238,1.545,0.594,2.139c0.119,0.238,0.238,0.475,0.475,0.713
	c0.713,0.951,1.188,0.951,1.901,0c0.832-0.951,1.307-1.901,1.901-3.089c1.782-3.446,2.733-7.248,3.446-11.05
	c0.238-1.545,0.594-3.089,0.832-4.634c0-0.119,0.119-0.238,0.119-0.475c0.119-0.356,0.238-0.475,0.594-0.475
	s0.475,0.238,0.475,0.475c0.119,0.832,0.119,1.663,0,2.376c-0.475,3.446-1.426,6.773-2.733,9.981
	c-0.713,1.782-1.426,3.565-2.258,5.347c-1.307,2.97-4.396,3.921-7.01,3.683c-1.663-0.238-3.208-1.901-3.446-3.327
	c-0.356-2.02,0-3.921,0.238-5.822c0.475-2.733,1.307-5.347,1.901-7.961c0.238-0.951,0.594-1.782,0.951-2.733
	c0.475-1.663,0.238-2.02-1.545-1.901c-1.663,0.119-3.327,0.119-4.99-0.238c-0.594-0.119-1.188-0.356-1.663-0.594
	c-0.594-0.356-1.069-0.951-1.069-1.782c-0.119-2.852,0.713-5.466,2.376-7.723c0.951-1.307,2.139-2.02,3.683-2.376
	c0.832-0.119,1.545,0,2.376,0.119c0.713,0.119,1.069,0.832,1.188,1.545c0.119,1.069,0.119,2.258-0.238,3.327
	c-0.238,1.069-0.713,2.02-1.188,2.97C108.969,164.776,108.375,166.202,107.424,167.628z M107.068,166.677
	c1.069-2.02,2.258-3.802,2.733-6.06c0.238-0.951,0.356-2.02,0.119-3.089c-0.119-0.356-0.119-0.951-0.475-0.951
	c-0.475,0-0.594,0.475-0.713,0.951c-0.356,0.832-0.594,1.782-0.832,2.614c-0.475,1.545-0.832,3.208-0.951,4.872
	C106.83,165.608,106.83,166.083,107.068,166.677z"/>
<path fill="#AC1D69" d="M135.465,168.222c0,0.951-0.238,1.782-0.475,2.614c-0.475,1.782-1.069,3.565-1.782,5.228
	c-0.356,0.832-0.951,1.663-1.545,2.376c-1.188,1.426-2.614,2.139-4.396,2.376c-0.832,0.119-1.663,0.238-2.614,0
	c-1.426-0.356-2.376-1.069-2.733-2.495c-0.238-0.832-0.475-1.663-0.475-2.614c-0.119-2.97,0-5.941,0.475-8.911
	c0.238-1.188,0.713-2.258,1.307-3.327c0.356-0.475,0.832-0.832,1.426-0.832c0.475,0,0.832,0,1.307,0
	c0.832,0,0.951,0.119,1.069,0.951c0.119,1.069,0.238,2.139,0.119,3.208c-0.119,1.901-0.356,3.921-0.356,5.822
	c-0.119,1.663-0.119,3.208,0.475,4.872c0.119,0.475,0.238,0.951,0.713,1.426c1.069-0.713,1.901-1.663,2.614-2.614
	c1.663-2.376,2.852-4.99,3.683-7.842c0-0.119,0.119-0.356,0.119-0.475c0.119-0.238,0.356-0.238,0.594-0.238
	C135.465,167.746,135.465,167.984,135.465,168.222z M124.415,157.053c-0.475-0.951,0.238-2.614,1.307-2.97
	c0.594-0.238,1.307-0.238,2.02-0.238c0.594,0,0.832,0.238,0.951,0.832c0.119,0.832,0.119,1.545-0.119,2.258
	c-0.238,0.594-0.119,1.188,0.356,1.663c-0.951,0.832-2.852,0.356-3.565-0.356C124.89,157.885,124.653,157.409,124.415,157.053z"/>
<path fill="#AC1D69" d="M141.881,181.529c-1.188-0.119-2.614-0.238-4.04-0.713c-2.139-0.832-3.327-2.376-3.683-4.634
	c-0.475-3.446,0.119-6.654,1.663-9.743c0.951-2.02,2.614-2.852,4.753-2.733c1.069,0.119,2.139,0.238,3.208,0.475
	c0.475,0.119,0.951,0.238,1.307,0.594c0.832,0.594,1.069,1.426,0.713,2.376c-0.475,1.069-1.188,2.02-2.139,2.733
	c-1.188,0.951-2.376,2.02-3.683,2.852c-0.356,0.238-0.594,0.594-0.594,1.069c-0.119,1.307,0,2.614,0.356,3.921
	c0.238,0.713,0.594,1.426,1.188,2.02c0.475,0.475,0.951,0.594,1.663,0.475c1.426-0.356,2.733-0.951,3.921-1.782
	c2.139-1.307,4.159-2.733,5.703-4.634c1.069-1.307,2.02-2.614,2.733-4.159c0.119-0.238,0.238-0.475,0.475-0.713
	c0.119-0.119,0.238-0.119,0.356,0c0.119,0.119,0.119,0.238,0.119,0.356c-0.951,2.495-1.901,4.99-3.802,6.891
	c-1.545,1.545-3.089,2.97-4.99,4.04C145.564,181.054,144.02,181.529,141.881,181.529z M139.861,171.43
	c1.307-0.951,2.495-1.901,3.565-3.089c0.238-0.356,0.475-0.713,0.713-1.188c0.238-0.594,0.119-1.069-0.238-1.545
	c-0.238-0.356-0.475-0.356-0.713-0.119c-0.713,0.356-1.188,0.951-1.663,1.545C140.693,168.34,140.099,169.766,139.861,171.43z"/>
<path fill="#AC1D69" d="M183.705,168.103c0,0.356,0,0.832-0.119,1.188c-0.475,2.495-1.426,4.753-2.614,7.01
	c-0.951,1.901-2.139,3.683-3.446,5.347c-2.258,3.089-6.773,2.97-9.03,1.307c-1.782-1.188-2.97-2.852-3.683-4.872
	c-0.119-0.356-0.119-0.713-0.475-1.069c-0.475,0.951-0.951,1.901-1.545,2.614c-0.951,1.188-2.02,2.139-3.565,2.495
	c-2.139,0.475-4.277-0.713-5.228-2.733c-0.951-2.139-0.832-4.277-0.475-6.416c0-0.238,0.119-0.475,0.119-0.832
	c0.951-3.802,3.565-6.06,7.485-6.535c0.832-0.119,1.782-0.238,2.614-0.119c0.713,0.119,0.713,0.119,0.832-0.594
	c0.356-1.901,0.713-3.921,1.069-5.822c0.713-3.208,1.782-6.178,3.802-8.911c0.951-1.426,2.258-2.376,3.921-2.733
	c0.594-0.119,1.188-0.119,1.901-0.119c0.951,0.119,2.02,0.356,2.97,0.713c1.069,0.356,1.663,1.069,1.901,2.139
	c0.238,1.188,0.119,2.376-0.119,3.446c-0.475,1.782-1.307,3.446-2.139,4.99c-0.713,1.307-1.545,2.614-2.258,3.921
	c-0.713,1.307-1.663,2.258-2.614,3.446c-1.069,1.188-2.139,2.376-3.327,3.565c-0.238,0.238-0.356,0.475-0.356,0.832
	c0,3.208,0.238,6.416,1.188,9.505c0.238,0.951,0.713,1.782,1.307,2.495c0.951,1.188,1.426,1.069,2.495,0.475
	c0.713-0.475,1.426-0.951,1.901-1.663c1.545-1.782,2.852-3.683,3.802-5.822c0.594-1.307,1.069-2.495,1.663-3.802
	c0.238-0.594,0.475-1.307,0.594-2.02c0.119-0.594,0.356-1.069,0.594-1.545c0.119-0.119,0.119-0.356,0.356-0.356
	C183.467,167.746,183.705,167.746,183.705,168.103z M163.743,166.321c-0.119,0-0.356,0-0.475-0.119
	c-0.594,0-1.069,0.238-1.426,0.594c-0.951,0.832-1.663,1.901-2.139,3.089c-0.713,1.901-1.069,3.802-1.188,5.822
	c-0.119,1.188-0.356,2.376,0,3.565c0.119,0.594,0.356,1.069,0.713,1.545c0.238,0.238,0.475,0.356,0.713,0.119
	c0.475-0.356,0.832-0.713,1.307-1.188c1.188-1.307,2.02-2.97,2.852-4.515c0.238-0.356,0.119-0.713,0.119-1.188
	c-0.238-2.258-0.238-4.634,0.238-6.891C164.337,166.558,164.219,166.439,163.743,166.321z M169.565,168.578
	c0.356-0.356,0.475-0.594,0.713-0.832c0.713-0.832,1.307-1.663,2.02-2.376c2.139-2.376,3.683-5.109,4.872-8.08
	c0.475-1.188,0.832-2.376,0.951-3.565c0.238-1.545,0.119-3.089-0.951-4.396c-0.475,0.238-0.713,0.475-1.069,0.832
	c-2.614,2.495-4.04,5.466-4.99,8.911c-0.713,2.852-1.069,5.703-1.663,8.436C169.565,167.746,169.447,168.103,169.565,168.578z"/>
<path fill="#1A2928" d="M43.738,115.348c0.356-16.753,11.763-31.724,27.447-35.051c11.525-2.376,22.456-0.713,31.13,8.436
	c0.951,0.951,1.545,1.069,2.733,0.356c2.02-1.307,4.159-2.258,6.535-2.733c1.307-0.238,2.02-0.832,1.069-2.258
	c-0.475-0.713-0.832-1.782,0-2.139c1.663-0.951,0.832-1.782,0.238-2.852c-0.119-0.119-0.119-0.238-0.238-0.475
	c-3.565-6.773-3.565-7.129,1.782-12.832c0.713-0.832,1.663-1.307,2.733-1.188c0.119,0,0.356,0,0.475,0
	c5.584-1.663,8.198,2.258,10.931,5.941c0.475,0.713,0.356,1.307,0.119,2.02c-0.713,1.782-1.426,3.565-2.139,5.347
	c-0.475,1.188-1.545,2.495,0.238,3.683c0.713,0.475,0.238,1.426-0.119,1.901c-1.307,1.663-0.475,1.901,1.069,2.376
	c11.882,4.396,20.437,12.001,23.051,24.952c4.159,20.674-13.07,39.685-33.982,37.546c-5.941-0.594-11.288-2.376-15.922-6.178
	c-1.069-0.951-1.663-0.594-2.614,0.119c-9.387,6.535-19.842,7.842-30.536,5.109c-12.713-3.327-19.724-12.951-23.169-25.189
	C43.857,119.863,43.857,117.487,43.738,115.348z M75.819,142.676c7.485,0,12.832-1.782,17.941-4.872
	c1.307-0.832,1.307-1.307,0.356-2.495c-3.802-4.99-6.178-10.575-6.06-16.872c0-9.149,2.733-17.347,9.387-24.001
	c0.594-0.594,1.307-1.069,0.238-2.02c-6.178-5.347-13.189-8.317-21.387-7.485c-12.595,1.188-20.555,8.555-24.595,20.199
	C44.332,126.279,60.491,142.438,75.819,142.676z M119.662,90.872c-4.159,0-7.248,0.832-10.812,2.376
	c-1.663,0.713-1.901,1.307-0.951,3.089c7.604,13.426,6.535,27.684-2.97,39.566c-1.188,1.545-0.832,2.02,0.475,2.852
	c10.931,7.367,33.031,3.565,38.497-12.595C149.842,108.694,138.079,90.872,119.662,90.872z M98.275,140.418
	c-1.901-2.376-1.901-2.376-4.396-0.951c-4.277,2.495-8.911,3.921-13.783,4.634c-12.001,1.901-26.14-8.555-29.467-17.347
	c-2.733-7.367-2.852-14.733-0.475-22.1c4.872-14.852,19.605-23.882,33.982-20.674c23.763,5.347,31.962,33.506,16.991,49.309
	c-1.069,1.188-0.356,1.545,0.238,2.258c0.832,0.951,1.307,0.713,2.02-0.119c4.277-5.228,7.01-11.169,7.723-17.823
	c1.901-17.466-11.525-40.635-38.497-36.239c-16.872,2.733-30.536,22.456-26.972,39.447c3.208,15.209,14.258,25.07,29.585,26.259
	C83.661,147.666,91.503,145.765,98.275,140.418z M118.83,89.327c2.97,0,4.99,0.238,7.01,0.594
	c10.931,2.258,20.199,12.476,21.268,23.526c0.951,9.743-3.802,23.288-15.684,27.922c-11.05,4.396-23.169,2.852-30.892-4.753
	c-10.812-10.575-11.05-27.209-0.594-38.734c0.832-0.951,1.426-1.426,0.238-2.614c-1.426-1.426-1.782,0.238-2.258,0.713
	c-12.119,12.595-13.07,35.289,7.129,47.408c10.456,6.178,24.476,4.634,33.863-3.208c9.149-7.604,13.07-21.387,9.149-32.912
	c-3.565-10.456-11.288-16.634-21.387-20.08c-2.852-0.951-2.97-1.307-1.901-3.921c0.356-0.832,0.475-1.307-0.713-1.307
	c-3.208-0.119-6.297,0.238-9.505,0.594c-0.713,0.119-1.188,0.356-0.832,1.426c0.951,2.495,0.594,3.089-2.02,3.802
	c-2.02,0.594-4.04,1.307-5.822,2.495c-0.475,0.356-1.782,0.238-1.188,1.545c0.594,1.069,1.188,1.426,2.376,0.713
	C111.226,90.396,115.266,89.327,118.83,89.327z M102.077,98.119c-3.089,2.495-6.06,7.367-7.248,11.406
	c-2.139,7.961-1.069,15.446,3.565,22.219c0.356,0.594,0.594,1.663,1.782,0.475C108.493,124.259,109.444,106.912,102.077,98.119z
	 M122.276,74.475c0.119-1.307-0.119-2.02-1.782-1.663c-4.04,0.832-4.04,0.713-3.208,4.99c0.119,0.356,0.119,0.832,0.238,1.188
	c0.238,0.713,0,1.901,1.426,1.782c1.069-0.119,2.258-0.119,2.495-1.663C121.682,77.564,122.039,76.019,122.276,74.475z
	 M117.88,71.861c1.901,0,3.446-0.594,3.446-1.307c0-1.426-1.901-4.634-2.733-4.396c-2.852,0.594-1.069,3.089-1.901,4.634
	C116.217,71.742,117.048,72.098,117.88,71.861z M127.029,72.455c-2.614-0.713-3.683,0.119-3.565,2.733
	c0.119,1.307-0.475,2.614-0.713,3.921c-0.119,0.356-0.356,0.951,0.356,1.188c0.594,0.119,0.832-0.238,1.069-0.713
	C125.128,77.208,126.078,74.831,127.029,72.455z M111.701,73.881c0.594,1.188,1.188,2.495,1.901,3.565
	c0.832,1.188,0.832,3.446,2.495,3.089c0.832-0.119-0.119-2.495-0.356-3.802C115.147,73.524,115.147,73.524,111.701,73.881z
	 M126.672,70.673c-1.188-1.426-2.376-2.852-3.446-4.159c-0.356-0.475-0.951-0.594-1.545-0.475c-0.356,0.119-0.238,0.475-0.238,0.832
	C121.563,69.841,123.227,71.148,126.672,70.673z M111.583,72.098c3.802,0.356,4.515-0.475,3.683-4.99
	C114.078,68.772,112.89,70.316,111.583,72.098z"/>
<path fill="#1A2928" d="M133.326,55.821c-1.545,2.139-3.089,4.277-4.634,6.297c-0.238,0.238-0.594,0.119-0.832-0.119
	c-0.356-0.356-0.475-0.713-0.238-1.069c1.307-2.02,2.614-3.921,4.04-5.822c0.238-0.356,0.594-0.475,1.069-0.119
	C132.851,55.108,133.089,55.464,133.326,55.821z"/>
<path fill="#1A2928" d="M111.226,62.474c0,0.238-0.119,0.594-0.475,0.832c-0.475,0.238-0.832,0.119-1.069-0.238
	c-0.713-2.139-1.663-4.04-2.97-5.941c-0.238-0.356-0.119-0.713,0.356-0.951c0.356-0.238,0.713-0.238,1.069,0.119
	C109.563,57.959,110.513,60.098,111.226,62.474z"/>
<path fill="#1A2928" d="M120.019,56.415c0,0.713,0.119,1.426,0,2.139c-0.119,0.356-0.238,0.713-0.594,0.832
	c-0.356,0.119-0.832-0.119-0.951-0.594c-0.119-0.475-0.119-0.832-0.119-1.188c0-0.713,0-1.307,0-2.02
	c0-0.713-0.119-1.782,0.951-1.782c0.356,0,0.594,0.238,0.713,0.594c0.119,0.238,0,0.475,0,0.713
	C120.019,55.464,120.019,55.939,120.019,56.415z"/>
<path fill="#FFCF5B" d="M98.275,140.418c-6.773,5.347-14.615,7.248-23.051,6.654c-15.446-1.069-26.377-11.05-29.585-26.259
	c-3.565-16.991,10.099-36.596,27.209-39.447c26.972-4.396,40.279,18.773,38.497,36.239c-0.713,6.773-3.446,12.595-7.723,17.823
	c-0.713,0.832-1.188,1.069-2.02,0.119c-0.594-0.713-1.307-1.069-0.238-2.258c14.852-15.803,6.773-43.962-16.991-49.309
	c-14.377-3.208-29.11,5.703-33.982,20.674c-2.495,7.367-2.258,14.733,0.475,22.1c3.208,8.911,17.466,19.248,29.467,17.347
	c4.99-0.832,9.505-2.139,13.783-4.634C96.374,138.042,96.374,138.042,98.275,140.418z"/>
<path fill="#FFCF5B" d="M118.83,89.327c-3.565-0.119-7.604,0.951-11.525,3.089c-1.307,0.713-1.901,0.356-2.376-0.713
	c-0.713-1.307,0.713-1.188,1.188-1.545c1.782-1.188,3.802-1.901,5.822-2.495c2.614-0.713,2.97-1.426,2.02-3.802
	c-0.356-1.069,0-1.307,0.832-1.426c3.208-0.356,6.297-0.594,9.505-0.594c1.069,0,1.069,0.475,0.713,1.307
	c-1.188,2.733-0.951,2.97,1.901,3.921c10.099,3.565,17.823,9.743,21.387,20.08c3.921,11.525,0,25.308-9.149,32.912
	c-9.505,7.842-23.526,9.505-33.863,3.208c-20.199-12.001-19.248-34.695-7.129-47.408c0.475-0.475,0.832-2.258,2.258-0.713
	c1.188,1.188,0.594,1.663-0.238,2.614c-10.575,11.525-10.337,28.279,0.594,38.734c7.723,7.485,19.842,9.03,30.892,4.753
	c11.882-4.634,16.634-18.179,15.684-27.922c-1.069-11.05-10.337-21.268-21.268-23.526C123.821,89.565,121.801,89.327,118.83,89.327z
	"/>
</svg>
