<?xml version="1.0" encoding="utf-8"?>
<!-- Generator: Adobe Illustrator 17.0.0, SVG Export Plug-In . SVG Version: 6.00 Build 0)  -->
<!DOCTYPE svg PUBLIC "-//W3C//DTD SVG 1.1//EN" "http://www.w3.org/Graphics/SVG/1.1/DTD/svg11.dtd">
<svg version="1.1" id="Layer_1" xmlns="http://www.w3.org/2000/svg" xmlns:xlink="http://www.w3.org/1999/xlink" x="0px" y="0px"
	 width="180px" height="84.504px" viewBox="0 0 180 84.504" enable-background="new 0 0 180 84.504" xml:space="preserve">
<g>
	<path d="M78.961,27.357c1.297,1.297,4.668,2.204,6.484,0.778c-0.908-0.778-0.908-1.945-0.519-2.982
		c0.519-1.426,0.389-2.723,0.259-4.149c-0.13-1.167-0.519-1.556-1.686-1.556c-1.297-0.13-2.464,0.13-3.76,0.389
		c-1.945,0.519-3.371,3.631-2.464,5.316C77.794,25.931,78.312,26.709,78.961,27.357z"/>
	<path d="M175.306,46.419c-0.259-0.13-0.519-0.13-0.778,0.13c-0.259,0.389-0.519,0.778-0.778,1.297
		c-1.297,2.723-2.982,5.187-4.927,7.391c-2.982,3.501-6.613,6.094-10.503,8.429c-2.204,1.297-4.668,2.464-7.132,3.112
		c-1.167,0.259-2.075,0-2.982-0.778c-1.037-1.037-1.815-2.204-2.204-3.501c-0.778-2.334-0.908-4.668-0.648-7.132
		c0-0.778,0.389-1.426,1.037-1.815c2.334-1.556,4.538-3.371,6.743-5.187c1.686-1.426,2.982-2.982,3.89-4.927
		c0.778-1.686,0.389-3.242-1.167-4.279c-0.778-0.519-1.556-0.778-2.464-0.908c-1.945-0.519-3.89-0.778-5.835-0.908
		c-4.02-0.389-7.002,1.167-8.818,4.798c-2.853,5.576-3.89,11.411-3.112,17.505c0,0.13,0,0.259,0.13,0.389
		c-1.686,3.242-3.76,6.354-6.224,9.077c-1.037,1.167-2.204,2.075-3.501,2.853c-1.815,1.037-2.723,1.297-4.538-0.778
		c-1.167-1.297-1.945-2.853-2.464-4.538c-1.686-5.576-2.075-11.281-2.204-17.116c0-0.648,0.259-1.167,0.648-1.556
		c2.204-1.945,4.149-4.149,6.094-6.354c1.686-1.945,3.501-3.89,4.798-6.224c1.426-2.334,2.853-4.668,4.149-7.002
		c1.556-2.853,3.112-5.835,3.89-9.077c0.519-2.075,0.648-4.149,0.259-6.354c-0.389-1.945-1.556-3.242-3.501-3.89
		c-1.815-0.519-3.501-1.037-5.446-1.167c-1.167-0.13-2.334-0.13-3.371,0.13c-3.112,0.648-5.446,2.464-7.262,4.927
		c-3.501,4.798-5.576,10.374-6.873,16.079c-0.908,3.501-1.426,7.002-2.075,10.503c-0.259,1.167-0.259,1.297-1.426,1.167
		c-1.686-0.259-3.242,0-4.927,0.13c-7.262,0.908-11.93,4.927-13.745,11.8c-0.13,0.519-0.259,0.908-0.259,1.426
		c-0.519,2.593-0.648,5.187-0.259,7.78c-1.037,1.037-2.204,2.075-3.371,2.982c-0.778-0.778-0.908-1.686-1.297-2.593
		c-0.908-2.853-0.908-5.835-0.778-8.688c0.13-3.501,0.389-7.002,0.778-10.633c0.13-1.945,0.13-3.89-0.13-5.835
		c-0.259-1.426-0.519-1.686-2.075-1.815c-0.778,0-1.686,0-2.464,0c-1.167,0-1.945,0.519-2.593,1.426
		c-1.167,1.815-2.204,3.76-2.464,5.965c-0.908,5.316-1.167,10.763-0.908,16.079c0,1.556,0.389,3.112,0.908,4.668
		c0.13,0.259,0.13,0.519,0.259,0.778c-1.037,3.89-2.464,7.521-4.279,11.152c-1.037,1.945-2.075,3.89-3.501,5.446
		s-2.204,1.556-3.501-0.13c-0.259-0.389-0.519-0.778-0.778-1.297c-0.648-1.167-0.908-2.593-1.037-3.89
		c-0.259-3.371,0.259-6.743,1.167-9.985c0.778-3.242,1.815-6.484,2.723-9.725c0.778-2.464,0.389-4.668-0.778-7.002
		c-1.037-2.075-2.593-3.501-4.927-3.89c-1.037-0.259-2.075-0.389-3.242-0.519c-1.556-0.13-3.112-0.259-5.057-0.389
		c1.686-2.464,2.723-4.927,4.149-7.391c0.908-1.686,1.686-3.371,2.204-5.316c0.519-1.945,0.648-3.89,0.389-5.965
		c-0.13-1.297-0.778-2.464-2.204-2.723c-1.426-0.259-2.853-0.519-4.409-0.259c-2.723,0.648-5.057,1.945-6.743,4.279
		c-3.112,4.149-4.538,8.818-4.279,14.004c0,1.426,0.778,2.464,1.945,3.112c0.908,0.519,1.945,0.908,2.982,1.167
		c2.334,0.519,4.668,0.648,7.002,0.519c-0.13,0.13-0.389,0.389-0.519,0.908c-2.334,5.187-6.094,9.207-10.503,12.708
		c-0.259,0.259-0.648,0.648-1.297,0.389c-1.037-6.873-5.446-11.022-11.541-13.745c-0.13-0.13-0.259-0.13-0.389-0.259
		c-0.648-0.259-1.297-0.519-1.945-0.908c0-0.13,0-0.259,0-0.259c0.519-0.389,1.037-0.778,1.556-1.297
		c4.798-4.279,8.169-9.336,8.688-15.949C35.91,19.707,32.928,16.076,28,13.612c-1.297-0.648-2.723-1.167-4.02-1.686
		c-2.075-0.648-4.02-0.648-6.094-0.259c-1.426,0.259-2.853,0.778-4.409,1.426c-0.259-0.778,0-1.426,0-2.075
		c0-0.908-0.13-1.815-0.778-2.464C11.921,7.776,9.198,7.517,8.29,8.165c-2.464,1.815-4.668,3.89-5.446,7.002
		c-0.908,3.371-1.556,6.613-2.075,10.114c-0.778,5.835-0.908,11.541-0.648,17.376C0.38,49.4,1.418,56.013,3.363,62.367
		c0.648,2.075,1.556,4.149,2.982,5.705s3.501,2.723,5.316,1.686c2.204-1.297,3.112-2.723,2.334-5.187
		c-0.778-2.723-1.297-5.446-2.075-8.04c-0.648-2.204-1.037-4.538-1.426-6.873c-0.13-0.648-0.259-1.297,0.648-1.556
		c4.668-1.167,9.336-1.945,14.134-1.297c2.593,0.389,4.149,1.556,5.057,4.02c1.426,4.02,1.426,7.91,0.389,12.059
		c-0.259,1.037-0.778,1.686-1.815,2.075c-2.464,1.037-5.057,2.075-7.521,3.242c-1.426,0.648-2.723,1.297-3.89,2.334
		c-2.204,1.945-3.76,4.279-3.89,7.262c0,1.556,0.519,2.723,1.945,3.371c3.112,1.426,6.224,2.204,9.596,1.037
		c8.169-3.112,13.226-8.688,14.134-17.635c0.13-1.037,0.389-1.686,1.297-2.075c4.149-2.204,7.262-5.446,9.725-9.336
		c1.297-2.075,1.945-4.409,2.204-6.743c0-0.389,0-0.648-0.389-1.037c-0.13-0.13-0.259-0.13-0.389-0.259c0.389,0,0.908,0,1.297,0
		c3.112-0.13,3.631,0.519,2.723,3.501c-0.519,1.686-1.297,3.242-1.686,4.927c-1.167,4.798-2.593,9.596-3.501,14.393
		c-0.648,3.501-1.037,7.002-0.519,10.503c0.389,2.464,3.371,5.705,6.354,5.965c4.798,0.519,10.374-1.167,12.837-6.613
		c1.426-3.112,2.853-6.354,4.149-9.596c0.259-0.778,0.648-1.556,0.908-2.334c0.778,0.648,1.815,1.037,2.982,1.426
		c1.556,0.389,3.112,0.13,4.668,0c2.204-0.259,4.279-1.037,5.965-2.334c0,0,0,0,0,0.13c1.686,3.76,5.576,5.705,9.596,4.927
		c2.853-0.519,4.927-2.204,6.613-4.409c1.167-1.426,2.075-2.982,2.853-4.798c0.519,0.519,0.648,1.297,0.778,1.815
		c1.297,3.76,3.501,6.613,6.873,8.818c4.149,2.853,12.448,3.112,16.598-2.464c1.686-2.204,3.112-4.409,4.538-6.743
		c1.167,2.334,2.982,4.02,5.705,5.057c2.593,0.908,5.187,1.167,7.391,1.297c3.76,0,6.743-0.778,9.596-2.593l0,0
		c3.371-2.075,6.354-4.538,9.077-7.391c3.501-3.501,5.187-7.91,7.002-12.448C175.695,46.808,175.695,46.548,175.306,46.419z
		 M149.112,43.177c0.778-1.167,1.815-2.204,2.982-2.853c0.648-0.389,1.037-0.259,1.426,0.259c0.648,0.908,0.648,1.815,0.389,2.853
		c-0.259,0.778-0.648,1.426-1.167,2.075c-1.815,2.204-4.149,3.89-6.484,5.576C146.649,48.234,147.556,45.641,149.112,43.177z
		 M117.473,44.085c0.908-5.187,1.686-10.244,2.982-15.301c1.556-6.224,4.409-11.67,9.077-16.079
		c0.519-0.519,1.037-1.037,1.945-1.426c1.815,2.464,1.945,5.187,1.686,8.04c-0.259,2.204-0.908,4.409-1.686,6.484
		c-2.204,5.316-5.057,10.374-8.947,14.653c-1.297,1.426-2.464,2.853-3.76,4.279c-0.389,0.389-0.778,0.908-1.297,1.556
		C117.084,45.252,117.343,44.733,117.473,44.085z M49.266,39.676c0.13-2.982,0.778-5.965,1.686-8.818
		c0.519-1.556,1.037-3.242,1.686-4.798c0.259-0.648,0.519-1.686,1.297-1.686c0.648,0,0.778,1.037,0.908,1.686
		c0.519,1.815,0.13,3.631-0.259,5.446c-0.908,4.02-3.112,7.391-5.057,10.892C49.137,41.621,49.266,40.584,49.266,39.676z
		 M12.051,42.788c-0.259,0.13-0.648,0.259-0.908,0.389c-0.778,0.259-0.908,0.13-1.037-0.648c0-1.815,0-3.631,0-5.316
		c0-6.094,0.778-12.189,2.204-18.154c0.259-0.908,0.648-1.426,1.297-1.945c2.853-1.945,5.835-3.112,9.336-2.853h0.13
		c3.76,0.259,5.576,1.945,5.705,5.705c0.13,3.112-0.519,5.965-1.945,8.688C23.592,35.008,18.664,39.676,12.051,42.788z
		 M28.519,69.63c-2.204,3.89-4.927,7.262-8.688,9.855c-0.259,0.13-0.389,0.259-0.648,0.389c-0.519,0.259-0.778,0.13-0.908-0.389
		c-0.13-1.167-0.13-2.334,0.389-3.371c0.778-1.686,1.945-2.982,3.501-4.02c0.908-0.648,1.815-1.167,2.853-1.556
		c1.167-0.519,2.334-1.037,3.501-1.426C28.778,69.37,28.649,69.5,28.519,69.63z M107.618,43.436
		c-0.778,4.149-0.648,8.299-0.389,12.578c0,0.648,0.13,1.426-0.259,2.075c-1.426,2.982-2.853,5.835-5.187,8.299
		c-0.648,0.778-1.426,1.426-2.334,2.075c-0.519,0.389-0.908,0.389-1.426-0.13c-0.648-0.778-1.167-1.686-1.297-2.723
		c-0.519-2.204-0.13-4.279,0.13-6.484c0.389-3.631,0.908-7.132,2.204-10.503c0.908-2.204,2.204-4.02,3.89-5.576
		c0.648-0.648,1.556-1.037,2.723-1.037c0.13,0,0.519,0,0.778,0.13C107.618,42.14,107.748,42.399,107.618,43.436z"/>
</g>
<path fill="#E5A8B3" d="M156.374,9.463c-0.519-0.908-1.167-1.686-1.686-2.593c2.464-0.778,4.927-1.426,7.262-2.204
	c0.389-0.13,0.648-0.13,0.648,0.389c0,1.037,0.13,2.204,0.259,3.242c0,0.13,0,0.13,0,0.259c0.13,0.648,0,0.908-0.778,0.648
	c-1.037-0.389-1.556-1.167-2.204-2.075c-0.259-0.259-0.389-0.778-0.908-0.519s-0.259,0.648-0.259,1.037
	c0.13,1.037,0,1.945-0.648,2.723c-0.13,0.259-0.389,0.389-0.648,0.519l0,0c-0.389-0.259-0.519-0.648-0.778-0.908
	c-0.13-0.13-0.259-0.519-0.648-0.259l0,0C156.244,9.722,156.374,9.592,156.374,9.463z"/>
<path fill="#E5A8B3" d="M154.948,1.812c1.556-0.519,3.112-0.908,4.538-1.426c0.648-0.259,1.297,0.13,1.945,0.13
	c0.389,0,0.13,0.259,0,0.519c-0.519,0.778-1.037,1.556-2.075,1.686c-0.908,0.13-1.815,0.519-2.723,0.778
	c-0.908,0.389-1.815,0-2.853-0.13C154.04,2.72,154.559,2.331,154.948,1.812z"/>
<path fill="#E5A8B3" d="M162.857,8.555c0-0.13,0-0.13,0-0.259c0.519,0,0.389-0.389,0.389-0.648c0-0.778-0.13-1.556-0.13-2.334
	c-0.13-0.648,0-1.167,0.519-1.686c0.13-0.13,0.13-0.13,0.259-0.259c0.259,0,0.389-0.389,0.648-0.259
	c0.519,1.167,0.908,2.204,0.648,3.501c-0.13,0.648-0.259,1.167-0.648,1.686C163.765,9.203,163.506,9.203,162.857,8.555z"/>
<path fill="#E5A8B3" d="M163.765,2.979c-0.259,0.13-0.389,0.259-0.519,0.519c-0.389,0.519-0.648,0.389-1.037,0.13
	c-1.297-1.037-1.297-1.037-0.389-2.334c0.13-0.13,0.259-0.389,0.389-0.519c0.519,0.259,1.037,0.389,1.556,0.648
	c1.037,0.389,1.037,0.389,0.259,1.297C163.895,2.72,163.765,2.85,163.765,2.979z"/>
<path fill="#E5A8B3" d="M153.91,3.757c1.426,0.389,1.426,0.389,0.778,1.945c-0.13,0.389-0.259,0.908-0.908,0.648
	c-0.13-0.13-0.259-0.13-0.389-0.259c-0.13-0.13-0.389-0.259-0.519-0.259c-0.13-0.13-0.389-0.259-0.259-0.389
	C152.873,4.924,153.002,4.017,153.91,3.757z"/>
<path fill="#E5A8B3" d="M157.022,11.278c-0.389,0.13-0.389-0.389-0.648-0.389c-1.297-0.389-1.815-1.556-2.464-2.593
	c0-0.13,0-0.13-0.13-0.259l0,0v-0.13c0-0.259-0.13-0.519-0.13-0.908c0-0.259,0.13-0.259,0.389-0.259
	c0.908,0.778,1.297,1.945,2.204,2.723l0.13,0.13l0,0c0.259,0.389,0.519,0.778,0.778,1.167
	C156.893,11.019,157.152,11.148,157.022,11.278z"/>
<path fill="#E5A8B3" d="M154.818,6.48c0-0.259,0-0.259,0-0.259c0.389-1.686,1.426-2.593,3.112-2.593c0.389,0,0.778-0.13,1.167-0.259
	c1.686-0.389,1.686-0.389,3.112,1.037C159.745,4.924,157.282,5.702,154.818,6.48z"/>
<g>
	<path fill="#D0B96E" d="M158.189,11.537c1.556-0.389,3.112-0.778,4.668-1.297c2.334-0.778,3.371-2.853,2.853-5.576
		c0-0.13,0-0.13,0-0.259c0.13,0-0.13-0.389,0.13-0.259c0.13,0.13,0.13,0.519,0.519,0.389c-0.389-0.648-0.778-1.297-1.167-1.945
		h-0.13c0.13,0.519,0.259,1.167,0.389,1.686c0,0.13,0,0.13,0,0.259c0,0.519,0,1.167,0,1.686c0,1.556-1.167,3.242-2.723,3.501
		c-1.426,0-2.334-1.167-3.371-2.334c-0.13,0.908-0.259,1.426-0.389,2.075v0.13c-0.389,0.519-0.519,1.426-1.556,1.167
		C157.282,11.537,157.541,11.667,158.189,11.537z"/>
	<path fill="#D0B96E" d="M177.769,18.54c-0.519-1.037-1.167-2.075-2.075-2.982c-3.112-3.371-7.91-5.057-12.319-4.409
		c-2.593,0.389-4.927,1.426-7.002,2.982c-1.037,0.778-1.945,1.686-2.723,2.723c-0.389,0.519-0.908,1.037-1.167,1.556
		c-0.259,0.648-0.519,1.167-0.778,1.815c-0.908,2.723-0.908,5.706,0,8.299c0.13,0.259,0.259,0.648,0.389,0.908
		c1.556,3.501,4.538,6.224,8.169,7.391c3.631,1.167,7.651,0.908,11.022-0.648s6.095-4.409,7.262-7.91
		C179.585,25.153,179.196,21.652,177.769,18.54z M175.824,30.858c-1.167,1.945-2.853,3.76-4.798,4.798
		c-4.668,2.464-11.022,1.556-14.782-2.075c-0.648-0.648-1.167-1.297-1.686-2.075c-0.519-0.778-0.908-1.556-1.167-2.464
		s-0.519-1.686-0.648-2.593c-0.13-0.908-0.13-1.815-0.13-2.723s0.13-1.815,0.389-2.723s0.519-1.686,1.037-2.464
		c0.13-0.259,0.259-0.519,0.389-0.648c0.13-0.13,0.259-0.389,0.389-0.519c0.259-0.389,0.519-0.648,0.778-1.037
		c0.648-0.648,1.297-1.297,1.945-1.815c0.778-0.519,1.556-1.037,2.334-1.426s1.686-0.648,2.593-0.908
		c0.908-0.259,1.815-0.389,2.723-0.389c0.648,0,1.297,0,1.815,0.13c5.316,0.778,9.596,5.187,10.503,10.503
		C177.899,25.282,177.38,28.265,175.824,30.858z"/>
	<path fill="#D0B96E" d="M152.613,8.425c-0.259,0.259-0.259,0.389,0,0.648c-0.13,0.13-0.13,0.13-0.259,0.259
		c0,0.519,0,1.037,0,1.556c0.259-0.648,0.389-1.297,0.259-1.945c0.13-0.259,0.13-0.389,0-0.648c0.13-0.259,0.13-0.519,0.13-0.778
		c0.648,0.648,0.778,1.556,1.556,2.204c0.519,0.778,1.167,1.167,2.075,1.426c-0.519-0.389-1.167-0.908-1.686-1.297
		c-0.778-0.778-1.167-1.815-1.686-2.723c0-0.259,0-0.519-0.389-0.648c-0.259,0.648,0,1.167-0.259,1.686
		C152.484,8.296,152.484,8.425,152.613,8.425z"/>
	<path fill="#D0B96E" d="M152.095,12.834c-0.389,0.519-0.389,1.167-0.519,1.815C151.965,14.131,152.224,13.482,152.095,12.834z"/>
	<path fill="#D0B96E" d="M152.354,12.056c0-0.259,0-0.389,0-0.648c0-0.13,0-0.13-0.13-0.13s-0.13,0.259-0.13,0.259
		c0,0.259-0.13,0.519-0.13,0.908c0,0.047,0,0.089,0,0.13C152.224,12.575,152.354,12.315,152.354,12.056z"/>
</g>
<g>
	<path d="M179.974,23.337c-0.389-4.149-2.075-7.651-4.668-10.763c-1.686-2.075-3.89-3.501-5.835-5.316
		c-1.426-1.297-2.982-2.723-3.631-4.798c-0.236-0.589-0.589-0.958-1.137-1.216c0.019,0.161-0.171,0.386-0.549,0.827
		c-0.13,0.13-0.13,0.259-0.259,0.389c-0.083,0.166-0.21,0.332-0.263,0.497c-0.133,0.103-0.289,0.218-0.385,0.41
		c-0.389,0.519-0.648,0.519-1.037,0.13c-1.297-1.037-1.297-1.037-0.389-2.334c0.13-0.13,0.259-0.389,0.389-0.519
		c0.116,0,0.138-0.108,0.233-0.223c0.731,0.247,1.36,0.494,2.101,0.742c0.059,0.024,0.105,0.055,0.16,0.08
		c-0.02-0.171-0.275-0.269-0.808-0.469c-0.519-0.259-1.037-0.389-1.556-0.648c-0.029,0.088-0.05,0.15-0.066,0.201
		c-1.232-0.443-2.463-0.434-3.695,0.059c-1.082,0.481-2.382,0.524-3.393,1.146l-0.108-0.108l-0.13,0.13
		c-0.519,0.519-0.908,1.167-1.426,1.815c-0.389,0.648-0.908,1.167-1.297,1.815c-0.259,0.519-0.13,2.204,0.389,2.723
		c0.259-0.519,0-1.037,0.13-1.556c0.389,0.13,0.389,0.389,0.389,0.648c0.519,0.908,0.908,1.945,1.686,2.723
		c0.519,0.389,1.167,0.908,1.686,1.297c-0.908-0.259-1.556-0.648-2.075-1.426c-0.778-0.648-0.908-1.556-1.556-2.204
		c0,0.259,0,0.519-0.13,0.778c0.073,0.147,0.094,0.256,0.085,0.366l-0.214-0.107l-0.058,0.087c-0.162-0.115-0.086-0.231-0.201-0.346
		c-0.259-0.13-0.259-0.13-0.259,0.259s0,0.648,0,1.037c0.042,0,0.061,0,0.085,0c-0.226,1.192-0.362,2.294-0.604,3.501v0.13
		c-0.389,0.908-0.648,1.945-0.908,2.853c-1.037,3.371-1.426,6.743-0.648,10.244c1.167,4.927,3.76,8.688,8.299,10.892
		c6.094,2.982,12.448,1.815,17.246-2.853C178.547,31.247,180.233,27.746,179.974,23.337z M171.805,11.148
		c-2.464-0.908-5.057-1.297-7.91-1.037c1.686-1.037,2.334-2.334,2.334-4.149C167.915,7.907,169.86,9.463,171.805,11.148z
		 M163.506,3.628c-0.085-0.256,0-0.399,0.104-0.542c-0.001,0.051,0,0.102,0.025,0.152c0.13-0.13,0.13-0.13,0.259-0.259
		c0.259-0.13,0.13-0.778,0.648-0.259c0.389,1.167,0.778,2.204,0.648,3.501c-0.13,0.519-0.259,1.167-0.648,1.686
		c-0.634,0.887-0.776,0.903-1.509,0.297c0.142-0.13,0.083-0.374,0.083-0.557c0-0.778,0-1.556-0.13-2.334
		C162.987,4.665,162.987,4.146,163.506,3.628z M162.468,5.054c0.13,1.037,0.13,2.204,0.259,3.242c0.12,0,0.203-0.023,0.263-0.058
		c0.092,0.588-0.162,0.825-0.782,0.577c-1.037-0.519-1.686-1.167-2.204-2.075c-0.259-0.259-0.389-0.778-0.908-0.519
		s-0.259,0.648-0.259,1.037c0.13,0.908,0,1.945-0.648,2.723c-0.259,0.259-0.389,0.389-0.648,0.519
		c1.037,0.259,1.167-0.648,1.556-1.167v-0.13c0.13-0.648,0.259-1.167,0.389-2.075c1.037,1.167,1.945,2.334,3.371,2.334
		c1.556-0.259,2.723-1.945,2.723-3.501c0-0.519,0-1.167,0-1.686c0-0.13,0-0.13,0-0.259c-0.13-0.519-0.259-1.167-0.389-1.686h0.13
		c0.389,0.648,0.778,1.297,1.167,1.945c-0.389,0.13-0.389-0.259-0.519-0.389c-0.259-0.13,0,0.259-0.13,0.259c0,0.13,0,0.13,0,0.259
		c0.519,2.723-0.519,4.798-2.853,5.576c-1.556,0.519-3.112,0.908-4.668,1.297c-0.648,0.13-0.908,0-0.648-0.648
		c-0.389-0.259-0.519-0.648-0.778-0.908s-0.259-0.519-0.648-0.259c-0.519-0.778-1.167-1.686-1.686-2.593
		c2.464-0.778,4.798-1.426,7.262-2.204C162.209,4.535,162.468,4.535,162.468,5.054z M162.209,4.276
		c-2.464,0.778-4.927,1.426-7.391,2.204c0-0.259,0-0.259,0-0.389c0.389-1.556,1.426-2.464,3.112-2.593
		c0.389,0,0.778-0.13,1.167-0.259C160.783,2.85,160.783,2.85,162.209,4.276z M155.035,1.77l0.042,0.042
		c1.426-0.519,2.982-0.908,4.538-1.426c0.648-0.259,1.297,0,1.945,0.13c0.389,0.13,0.13,0.389,0,0.519
		c-0.519,0.778-1.037,1.556-2.075,1.686c-0.908,0.13-1.815,0.519-2.723,0.778c-0.939,0.235-1.771,0.047-2.593-0.087
		c0-0.057,0-0.115,0-0.172C154.281,2.68,154.678,2.219,155.035,1.77z M153.003,5.702c0-0.13-0.389-0.259-0.259-0.389
		c0.348-0.464,0.493-1.235,1.167-1.579c0,0.008,0,0.015,0,0.023c1.426,0.519,1.426,0.519,0.389,1.945
		c-0.068,0.204-0.138,0.477-0.281,0.636c-0.036-0.039-0.068-0.078-0.108-0.117c-0.13-0.13-0.259-0.13-0.389-0.259
		C153.262,5.962,153.132,5.832,153.003,5.702z M156.504,10.759c-1.167-0.389-1.815-1.556-2.464-2.593
		c-0.13-0.13-0.13-0.13-0.13-0.259v-0.13c0-0.389-0.13-0.648-0.13-0.908c0-0.012,0.007-0.017,0.008-0.028
		c0.931,0.663,1.326,1.757,2.067,2.622c0.13,0,0.259,0,0.389,0c0.029,0.043,0.058,0.086,0.086,0.13c-0.115,0-0.231,0-0.346,0
		l0.13,0.13c0.107,0,0.197-0.076,0.231-0.107c0.226,0.338,0.451,0.677,0.677,1.015c0.13,0.13,0.389,0.389,0.13,0.519
		C156.763,11.408,156.763,10.889,156.504,10.759z M151.718,14.579l0.017,0.023c-0.011,0.015-0.017,0.033-0.029,0.048
		C151.711,14.626,151.713,14.603,151.718,14.579z M153.262,9.852c2.334,1.945,2.334,1.945,4.538,2.204
		c-3.112,1.945-5.187,4.538-6.743,7.78C151.706,16.465,153.003,13.353,153.262,9.852z M176.732,31.118
		c-1.426,2.334-3.631,4.149-6.224,5.187c-3.242,1.426-7.262,1.556-10.633,0.259s-6.354-3.89-7.78-7.262
		c-0.259-0.648-0.519-1.167-0.648-1.815c-0.778-2.723-0.519-5.706,0.648-8.299c1.037-2.204,2.982-4.149,5.057-5.576
		c2.075-1.426,4.538-2.334,7.002-2.464c4.927-0.259,9.985,2.075,12.578,6.224c0.259,0.259,0.389,0.519,0.519,0.778
		C179.455,22.17,179.326,27.487,176.732,31.118z"/>
	<path d="M176.991,20.355c0-0.13-0.13-0.259-0.13-0.389c-0.13-0.13-0.13-0.13-0.13-0.259c0-0.13-0.13-0.259-0.13-0.389
		c-0.259-0.519-0.519-0.908-0.778-1.426c-0.259-0.389-0.519-0.648-0.648-1.037c-0.519-0.519-1.037-1.167-1.556-1.686
		c-1.686-1.686-3.89-2.723-6.224-3.242c-3.242-0.519-6.354,0-9.207,1.815c-1.167,0.778-2.204,1.815-3.242,2.853
		c0,0.13-0.13,0.259-0.259,0.389c-0.13,0.259-0.389,0.648-0.519,0.908c-0.13,0.259-0.389,0.648-0.519,0.908
		c-1.686,3.501-1.815,7.002-0.648,10.503c0.13,0.13,0.13,0.389,0.259,0.519c0.13,0.13,0.13,0.13,0.13,0.259
		c0.259,0.389,0.389,0.778,0.648,1.167c0.259,0.259,0.519,0.648,0.778,1.037c0.519,0.648,1.167,1.426,1.945,2.075
		c2.593,2.204,5.705,2.982,9.077,2.853c1.686-0.259,3.242-0.519,4.798-1.167c0.259-0.13,0.648-0.389,0.648-0.389
		c1.945-1.037,3.242-2.593,4.409-4.538c1.556-2.853,2.075-5.835,1.686-8.947c-0.13-0.519-0.259-1.037-0.389-1.556
		C176.991,20.485,176.991,20.485,176.991,20.355z M174.657,31.766c-3.89,5.057-11.541,6.094-16.987,2.075
		c-5.057-3.76-6.224-11.281-2.464-16.468c4.279-5.835,12.059-6.224,17.116-2.334C177.51,18.929,178.547,26.579,174.657,31.766z"/>
</g>
</svg>
