<?xml version="1.0" encoding="utf-8"?>
<!-- Generator: Adobe Illustrator 23.0.1, SVG Export Plug-In . SVG Version: 6.00 Build 0)  -->
<svg version="1.1" id="Layer_1" xmlns="http://www.w3.org/2000/svg" xmlns:xlink="http://www.w3.org/1999/xlink" x="0px" y="0px"
	 viewBox="0 0 180 589.54" style="enable-background:new 0 0 180 589.54;" xml:space="preserve">
<style type="text/css">
	.st0{fill:#E4E5E6;}
	.st1{fill:#F3C099;}
	.st2{fill:#F2A698;}
	.st3{fill:#FFFFFF;}
	.st4{fill:#DDE7AA;}
	.st5{fill:#FBCFAF;}
	.st6{fill:#F29360;}
	.st7{fill:#ACD2AB;}
	.st8{fill:none;stroke:#000000;stroke-miterlimit:10;}
	.st9{fill:#FFFFFF;stroke:#000000;stroke-miterlimit:10;}
</style>
<g>
	<rect x="4.13" y="4.13" class="st4" width="171.74" height="581.29"/>
	<path d="M180,589.54H0V0h180V589.54z M8.25,581.29h163.49V8.25H8.25V581.29z"/>
	<rect x="4.13" y="61.04" width="74.55" height="4.13"/>
	<rect x="4.13" y="104.45" width="47.18" height="4.13"/>
	<rect x="4.13" y="28.2" width="47.18" height="4.13"/>
	<rect x="4.13" y="145.03" width="74.55" height="4.13"/>
	<rect x="4.13" y="188.44" width="47.18" height="4.13"/>
	<rect x="4.13" y="229.01" width="74.55" height="4.13"/>
	<rect x="4.13" y="272.42" width="47.18" height="4.13"/>
	<rect x="4.13" y="313" width="74.55" height="4.13"/>
	<rect x="4.13" y="356.4" width="47.18" height="4.13"/>
	<rect x="4.13" y="396.98" width="74.55" height="4.13"/>
	<rect x="4.13" y="440.39" width="47.18" height="4.13"/>
	<rect x="4.13" y="480.97" width="74.55" height="4.13"/>
	<rect x="4.13" y="559.97" width="74.55" height="4.13"/>
	<rect x="4.13" y="524.38" width="47.18" height="4.13"/>
</g>
</svg>
