<?xml version="1.0" encoding="utf-8"?>
<!-- Generator: Adobe Illustrator 23.0.1, SVG Export Plug-In . SVG Version: 6.00 Build 0)  -->
<svg version="1.1" id="Layer_1" xmlns="http://www.w3.org/2000/svg" xmlns:xlink="http://www.w3.org/1999/xlink" x="0px" y="0px"
	 viewBox="0 0 180 130.51" style="enable-background:new 0 0 180 130.51;" xml:space="preserve">
<style type="text/css">
	.st0{fill:#E4E5E6;}
	.st1{fill:#F3C099;}
	.st2{fill:#F2A698;}
	.st3{fill:#FFFFFF;}
	.st4{fill:#DDE7AA;}
	.st5{fill:#FBCFAF;}
	.st6{fill:#F29360;}
	.st7{fill:#ACD2AB;}
	.st8{fill:none;stroke:#000000;stroke-miterlimit:10;}
	.st9{fill:#FFFFFF;stroke:#000000;stroke-miterlimit:10;}
</style>
<polygon class="st6" points="165.23,0 165.23,115.74 14.77,115.74 14.77,0 0,0 0,130.51 14.77,130.51 165.23,130.51 167.84,130.51 
	180,130.51 180,0 "/>
<line class="st8" x1="14.77" y1="80.22" x2="165.23" y2="80.22"/>
<line class="st8" x1="14.77" y1="56.23" x2="165.23" y2="56.23"/>
<line class="st8" x1="14.77" y1="32.23" x2="165.23" y2="32.23"/>
<circle class="st7" cx="85.64" cy="80.22" r="8.28"/>
<circle class="st7" cx="105.85" cy="80.22" r="8.28"/>
<circle class="st2" cx="62.92" cy="56.23" r="8.28"/>
<circle class="st2" cx="83.13" cy="56.23" r="8.28"/>
<circle class="st4" cx="83.82" cy="32.23" r="8.28"/>
<circle class="st4" cx="104.03" cy="32.23" r="8.28"/>
<circle class="st4" cx="124.86" cy="32.23" r="8.28"/>
<circle class="st4" cx="145.06" cy="32.23" r="8.28"/>
<circle class="st7" cx="124.86" cy="80.22" r="8.28"/>
<circle class="st7" cx="143.86" cy="80.22" r="8.28"/>
</svg>
