<?xml version="1.0" encoding="utf-8"?>
<!-- Generator: Adobe Illustrator 23.0.1, SVG Export Plug-In . SVG Version: 6.00 Build 0)  -->
<svg version="1.1" id="Layer_1" xmlns="http://www.w3.org/2000/svg" xmlns:xlink="http://www.w3.org/1999/xlink" x="0px" y="0px"
	 viewBox="0 0 180 216.69" style="enable-background:new 0 0 180 216.69;" xml:space="preserve">
<style type="text/css">
	.st0{fill:#E4E5E6;}
	.st1{fill:#F3C099;}
	.st2{fill:#F2A698;}
	.st3{fill:#FFFFFF;}
	.st4{fill:#DDE7AA;}
	.st5{fill:#FBCFAF;}
	.st6{fill:#F29360;}
	.st7{fill:#ACD2AB;}
	.st8{fill:none;stroke:#000000;stroke-miterlimit:10;}
	.st9{fill:#FFFFFF;stroke:#000000;stroke-miterlimit:10;}
</style>
<path class="st6" d="M81.36,31.74V8.29c0-4.58,3.71-8.29,8.29-8.29h0c4.58,0,8.29,3.71,8.29,8.29v23.45H81.36z"/>
<g>
	<path class="st6" d="M169.38,210c-5.85,0-10.62-4.76-10.62-10.62s4.76-10.62,10.62-10.62c5.85,0,10.62,4.76,10.62,10.62
		S175.24,210,169.38,210z M169.38,191.93c-4.11,0-7.45,3.34-7.45,7.45s3.34,7.45,7.45,7.45s7.45-3.34,7.45-7.45
		S173.49,191.93,169.38,191.93z"/>
</g>
<polygon class="st6" points="172.15,207.97 178.12,216.69 175.13,206.35 "/>
<path class="st7" d="M165.67,169.1L114.04,55.79V31.74H66.67v22.49L14.33,169.1l16.58,4.74l41.04-91.21
	c4.34,5.36,10.97,8.79,18.4,8.79h0c7.18,0,13.59-3.2,17.94-8.25l40.8,90.66L165.67,169.1z M104.16,65.17c0,7.62-6.18,13.8-13.8,13.8
	h0c-7.62,0-13.8-6.18-13.8-13.8V44.18h27.61V65.17z"/>
<circle class="st6" cx="19.82" cy="181.69" r="14.46"/>
<g>
	<path class="st6" d="M10.62,210C4.76,210,0,205.24,0,199.38s4.76-10.62,10.62-10.62c5.85,0,10.62,4.76,10.62,10.62
		S16.47,210,10.62,210z M10.62,191.93c-4.11,0-7.45,3.34-7.45,7.45s3.34,7.45,7.45,7.45s7.45-3.34,7.45-7.45
		S14.73,191.93,10.62,191.93z"/>
</g>
<polygon class="st6" points="7.85,207.97 1.88,216.69 4.87,206.35 "/>
<circle class="st6" cx="160.18" cy="181.69" r="14.46"/>
</svg>
