<?xml version="1.0" encoding="utf-8"?>
<!-- Generator: Adobe Illustrator 23.0.1, SVG Export Plug-In . SVG Version: 6.00 Build 0)  -->
<svg version="1.1" id="Layer_1" xmlns="http://www.w3.org/2000/svg" xmlns:xlink="http://www.w3.org/1999/xlink" x="0px" y="0px"
	 viewBox="0 0 180 210.58" style="enable-background:new 0 0 180 210.58;" xml:space="preserve">
<style type="text/css">
	.st0{fill:#E4E5E6;}
	.st1{fill:#F3C099;}
	.st2{fill:#F2A698;}
	.st3{fill:#FFFFFF;}
	.st4{fill:#DDE7AA;}
	.st5{fill:#FBCFAF;}
	.st6{fill:#F29360;}
	.st7{fill:#ACD2AB;}
	.st8{fill:none;stroke:#000000;stroke-miterlimit:10;}
	.st9{fill:#FFFFFF;stroke:#000000;stroke-miterlimit:10;}
</style>
<polygon class="st0" points="9.73,66.02 9.73,210.58 170.97,210.58 170.97,66.02 180,48.65 180,0 0,0 0,47.26 "/>
<rect x="114.67" y="73.67" class="st1" width="39.61" height="116.06"/>
<path d="M155.06,190.5H113.9V72.9h41.16V190.5z M115.44,188.96h38.07V74.44h-38.07V188.96z"/>
<rect x="26.41" y="73.67" class="st2" width="35.1" height="34.05"/>
<rect x="68.8" y="73.67" class="st2" width="35.1" height="34.05"/>
<rect x="68.8" y="114.67" class="st2" width="35.1" height="34.05"/>
<rect x="26.41" y="114.67" class="st2" width="35.1" height="34.05"/>
<rect x="26.41" y="155.68" class="st2" width="35.1" height="34.05"/>
<rect x="68.8" y="155.68" class="st2" width="35.1" height="34.05"/>
<rect x="19.46" y="13.67" class="st3" width="140.39" height="44.48"/>
<path d="M160.62,58.92H18.69V12.9h141.93V58.92z M20.23,57.38h138.84V14.44H20.23V57.38z"/>
<g>
	<g>
		<g>
			<rect x="29.94" y="46.3" width="23.14" height="1.54"/>
		</g>
		<g>
			<rect x="76.89" y="46.3" width="23.8" height="1.54"/>
		</g>
		<g>
			<rect x="124.48" y="46.3" width="23.14" height="1.54"/>
		</g>
	</g>
</g>
</svg>
