<?xml version="1.0" encoding="utf-8"?>
<!-- Generator: Adobe Illustrator 25.2.1, SVG Export Plug-In . SVG Version: 6.00 Build 0)  -->
<svg version="1.1" id="Layer_1" xmlns="http://www.w3.org/2000/svg" xmlns:xlink="http://www.w3.org/1999/xlink" x="0px" y="0px"
	 viewBox="0 0 180 237.5" style="enable-background:new 0 0 180 237.5;" xml:space="preserve">
<style type="text/css">
	.st0{fill:#D0DC27;}
	.st1{fill:#FFFFFF;}
	.st2{fill:#CE2B27;}
	.st3{fill:#B41C57;}
	.st4{fill:#FEDF00;}
	.st5{fill:#0096D5;}
	.st6{fill:none;stroke:#B41C57;stroke-width:3;stroke-miterlimit:10;}
	.st7{fill:#9E6197;}
</style>
<g>
	<circle class="st5" cx="86.7" cy="147.7" r="46.7"/>
	<path class="st5" d="M164,100.3c-4.5-3-7.7-2-10.9,2.2c-8.2,11.2-16,22.6-22.6,36c-3.3-7.4-6.4-13.8-12.5-18
		c-5-3.4-6.4-7.9-6.2-13.7c0.8-20,1.5-39.9,2.1-59.9c0.3-10.4,0.3-20.7-2.1-30.9c-3-12.3-9.2-16.9-21.7-16
		c-9.5,0.7-15.6,6.1-17.8,17.6c-4.7,24.5-4.3,49.3-2,74c1.9,19.5,2.2,19.2-16.4,24.9c-4.4,1.3-5.7-0.2-7.4-3.4
		C41,102.9,34.6,93.2,27.4,84.1c-1.6-2-3-5.4-6.5-4c-8.5,3.3-15,8.9-20.9,17.1c5.3,0.5,8.2-1.8,11.6-2.6c4.3-1,6.9-0.9,4.8,5
		c-1.4,4-3.9,8.3-1.3,13c11.9-10.4,11.9-10.4,22.6,1.6c0.5,0.6,1,1.2,1.5,1.7c3.5,3,4,5.1-0.7,8.1c-9.2,5.8-13.1,15-13.4,25.8
		c-0.4,17,9.1,29.7,27.2,35.6c4.8,1.6,7.2,3.2,6.1,8.7c-1.7,8.6-2.8,17.4-4.4,26.1c-3.3,17.8-3.4,17.8,14.7,17.1
		c2.9-0.1,6.2-0.3,7.2-3.1c1.3-3.6-3.1-3.7-4.9-5.4c-0.3-0.3-0.1-0.9-0.2-1.4c2.5-1.4,7.2-1.1,7-4.6c-0.2-4.1-4.4-4.1-7.8-3.8
		c-2.7,0.2-2.8-1.2-2.7-3.2c0.2-2.8,0.3-5.6,0.5-8.3c0.4-5.5-1-12.3,1.7-16.3c3.2-4.7,10.5-0.1,15.8-1.5c1.5-0.4,3-0.3,4.5-0.7
		c4-0.9,5.9-0.3,5.2,4.7c-1.2,9.3-2.5,18.5-4.5,27.6c-3.5,15.9-3.4,15.9,13,15.9c3.3,0,7.2,0.5,8.9-2.8c2.2-4.5-4.6-3.5-5.1-6.9
		c1.6-0.7,3.3-1.3,4.9-2c1.5-0.6,2.8-1.4,2.5-3.2c-0.3-1.7-1.8-3.1-3.1-2.9c-10.7,1.1-7.2-6-6.8-11.4c0.4-5,0.8-10.1,0.6-15.2
		c-0.2-5,1.5-7.4,6.2-9.5c13.4-5.9,25.2-16.5,20.6-36.5c-0.5-2.3-0.2-3.5,1.5-5.2c4.8-4.8,9.3-10,13.9-15c6.3-6.9,6.6-6.9,12.8-0.2
		c1.5,1.6,2.4,4,5.2,4.1c1.8-4.5-0.8-8.3-1.6-12.3c-0.3-1.7-1.9-3.4-0.5-4.9c1.6-1.6,3.8-0.6,5.7-0.1c3.3,0.8,6.1,3.5,10.3,2
		C176.1,108.4,170.1,104.4,164,100.3z"/>
	<g>
		<circle class="st1" cx="92.3" cy="22" r="15.2"/>
		<circle cx="91.1" cy="26" r="9.5"/>
		<circle class="st1" cx="90.9" cy="17.4" r="2.9"/>
		<circle class="st1" cx="98.4" cy="29" r="2"/>
	</g>
	<g>
		<circle class="st1" cx="91.1" cy="59.4" r="15.6"/>
		<circle cx="89.9" cy="63.6" r="9.8"/>
		<circle class="st1" cx="89.7" cy="54.7" r="3"/>
		<circle class="st1" cx="97.4" cy="66.6" r="2"/>
	</g>
	<g>
		<circle class="st1" cx="91.1" cy="98.8" r="15.6"/>
		<circle cx="89.9" cy="102.9" r="9.8"/>
		<circle class="st1" cx="89.7" cy="94.1" r="3"/>
		<circle class="st1" cx="97.4" cy="106" r="2"/>
	</g>
	<path class="st5" d="M119.8,120.1c1.8-14.8,5.3-28.1,9.4-41.4c1.5-5,4.3-7,9.5-5.7c7.1,1.8,14.1,3.5,20,8.7
		c-3.5,2.8-7.1,1.2-10.4,1.5c-2,0.2-4.4-0.1-5.4,2c-0.9,1.9,1.2,3,2.1,4.5c2.1,3.6,5.9,6.3,5.6,11.1c-2.7,0.9-4.4-1.1-6.3-2.1
		c-8-4.2-8.3-4.1-12,4.4c-2.7,6.3-5.2,12.6-8.1,18.8c-1,2.1-0.9,3.4,0.3,5.4L119.8,120.1z"/>
	<path class="st5" d="M67.9,111.3c-1.8-14.8-5.3-28.1-9.4-41.4c-1.5-5-4.3-7-9.5-5.7c-7.1,1.8-14.1,3.5-20,8.7
		c3.5,2.8,7.1,1.2,10.4,1.5c2,0.2,4.4-0.1,5.4,2c0.9,1.9-1.2,3-2.1,4.5c-2.1,3.6-5.9,6.3-5.6,11.1c2.7,0.9,4.4-1.1,6.3-2.1
		c8-4.2,8.3-4.1,12,4.4c2.7,6.3,5.2,12.6,8.1,18.8c1,2.1,0.9,3.4-0.3,5.4L67.9,111.3z"/>
</g>
</svg>
