<?xml version="1.0" encoding="utf-8"?>
<!-- Generator: Adobe Illustrator 25.2.1, SVG Export Plug-In . SVG Version: 6.00 Build 0)  -->
<svg version="1.1" id="Layer_1" xmlns="http://www.w3.org/2000/svg" xmlns:xlink="http://www.w3.org/1999/xlink" x="0px" y="0px"
	 viewBox="0 0 180 392.6" style="enable-background:new 0 0 180 392.6;" xml:space="preserve">
<style type="text/css">
	.st0{fill:#D0DC27;}
	.st1{fill:#FFFFFF;}
	.st2{fill:#CE2B27;}
	.st3{fill:#B41C57;}
	.st4{fill:#FEDF00;}
	.st5{fill:#0096D5;}
	.st6{fill:none;stroke:#B41C57;stroke-width:3;stroke-miterlimit:10;}
	.st7{fill:#9E6197;}
</style>
<g>
	<path class="st7" d="M149.8,0c-0.5,13.6,1,27.3,2.5,40.8C160.4,34.5,170,30.1,180,28c-1.8,18.8-9.2,36.5-16.5,53.9
		c-0.4,1-0.8,2-1.7,2.6c-1.6,1.2-3.8,0.6-5.6-0.1c-19.6-7.3-38.7-16-57.1-26.1c-0.9-0.5-1.9-1.1-2.3-2c-0.8-1.4-0.1-3.2,0.5-4.6
		c5.1-11.9,10.3-23.8,15.4-35.8c1.2-2.9,2.5-5.8,3.7-8.7c1.1-2.5,2.2-6,4.2-2.2c2.9,5.6,5.6,11.3,8.1,17.1
		c5.4-5.9,10.7-11.9,16.1-17.8C146.3,2.6,147.8,0.9,149.8,0z"/>
	<path class="st7" d="M138,379.1h-21.9V218.9c0-0.2,0-0.4-0.1-0.5c27.8-13,47.1-41.2,47.1-73.9c0-45-36.5-81.5-81.5-81.5
		C36.5,62.9,0,99.4,0,144.4c0,33.7,20.4,62.6,49.5,75v159.7H27.6c-3.7,0-6.7,3-6.7,6.7s3,6.7,6.7,6.7H63V223.8
		c6,1.4,12.2,2.1,18.5,2.1c7.3,0,14.3-1,21.1-2.7v169.4H138c3.7,0,6.7-3,6.7-6.7S141.7,379.1,138,379.1z M84.8,202.1L84.8,202.1
		l-1,6.7l-6.6-5.7l0,0c-2.8,0.2-5.3,0.3-7,0.1l-7.8,5.7l-6.2-7.9c0,0-6.7-1.4-9.1-2.5l-7,4.3l-3.3-12.9c0,0,37,19.4,66.7,1.7v11.7
		l-10-2.5C93.6,200.6,89.6,201.4,84.8,202.1z"/>
	<g>
		<circle class="st1" cx="75.3" cy="144.4" r="45.3"/>
		<circle cx="71.8" cy="156.4" r="28.4"/>
		<circle class="st1" cx="71.1" cy="130.6" r="8.6"/>
		<circle class="st1" cx="93.6" cy="165.4" r="5.9"/>
	</g>
</g>
</svg>
