<?xml version="1.0" encoding="utf-8"?>
<!-- Generator: Adobe Illustrator 25.2.1, SVG Export Plug-In . SVG Version: 6.00 Build 0)  -->
<svg version="1.1" id="Layer_1" xmlns="http://www.w3.org/2000/svg" xmlns:xlink="http://www.w3.org/1999/xlink" x="0px" y="0px"
	 viewBox="0 0 180 212" style="enable-background:new 0 0 180 212;" xml:space="preserve">
<style type="text/css">
	.st0{fill:#D0DC27;}
	.st1{fill:#FFFFFF;}
	.st2{fill:#CE2B27;}
	.st3{fill:#B41C57;}
	.st4{fill:#FEDF00;}
	.st5{fill:#0096D5;}
	.st6{fill:none;stroke:#B41C57;stroke-width:3;stroke-miterlimit:10;}
	.st7{fill:#9E6197;}
</style>
<g>
	<path class="st0" d="M128.7,148.4c3.1-3.2,7-5.5,10.7-8.1c20.6-14.9,32.3-39.1,40.3-63.2c0.2-0.7,0.5-1.4,0.3-2.1
		c-0.4-1.4-2.4-1.8-3.7-1.1c-1.3,0.7-2,2.1-2.6,3.4c-2.2,0-2.5-3.1-2.2-5.3s-0.8-5.3-2.9-4.6c-2.6,0.8-0.9,6-3.5,6.7
		c-3.4,0.9-2.2-7.4-5.8-7.7c-2-0.1-2.8,2.7-2.3,4.7c0.4,2,1.1,4.4-0.3,5.8c-1.4,1.3-3.6,0.7-5.5,0.5c-1.9-0.3-4.5,0.7-4.2,2.6
		c0.3,1.6,2.4,2.1,3.7,3c2.6,1.8,2.5,5.6,1.8,8.7c-3.5,16.8-13.7,32.2-27.8,42c-1.9-16.7-3.8-33.5-5.8-50.2
		c-0.4-3.8-0.8-7.9,1.3-11.1c1.5-2.3,3.9-3.7,6.4-4.8c6.7-3,14.1-4.3,20.9-7.1c6.8-2.8,13.4-7.5,15.8-14.4
		c3.6-10.9-5.5-23.1-16.8-25.4c-1.9-0.4-4-0.6-5.5-1.8c-4.9-4.1,1.4-14.1-3.7-18c-2.4-1.8-6-0.9-8,1.4s-2.6,5.3-3,8.2
		c-0.2,2-0.5,4.3-2.2,5.3c-0.8,0.5-1.9,0.5-2.8,0.6c-27,1-54,2-81,2.9c-1.2,0-2.5,0.1-3.6-0.6c-1.4-0.8-1.9-2.5-2.4-4
		c-0.9-2.8-2.2-5.6-4.5-7.4c-3.3-2.7-8.6-2.1-9.3,2.6c-0.6,4.1,2.7,8.1,1,12.2c-1.3,3.2-5.2,4.4-8.3,5.9C4.4,32.6-0.3,44.1,2.9,53.5
		c2.7,8.1,10.2,13.8,18.2,17c8,3.1,16.6,4.1,25,5.7c4.4,0.9,9,2,12.4,5c4.2,3.6,6,9.2,7.4,14.5c3.5,13.5,5.3,27.4,5.5,41.3
		c-17.2-5.8-32-18.2-40.8-34.1c-1.9-3.4-3.3-8.1-0.4-10.7c0.9-0.8,2.1-1.3,2.3-2.4c0.5-2-2.6-3-4.6-2.3c-2,0.7-4.3,1.9-6,0.7
		c-1.5-1.1-1.4-3.3-1.5-5.2s-1.4-4.2-3.2-3.7c-1.8,0.5-1.8,2.9-1.6,4.8c0.2,1.8-0.6,4.4-2.4,4.1c-1.9-0.3-1.7-3.2-3-4.6
		C8.8,82.2,6,83,5.7,84.9c-0.2,1.5,0.8,2.8,1.5,4.2s0.5,3.4-0.9,3.8c-2.3,0.6-4.4-3.9-6.1-2.3c-0.7,2,0.4,4.2,1.4,6.1
		c12.8,22.7,33.5,40.8,57.7,50.4c4.7,1.8,10,3.9,11.9,8.5c2,4.6-0.4,10.1-4.1,13.5c-3.7,3.4-8.5,5.2-13,7.5c-4.5,2.2-9,5.2-11,9.8
		c-2.7,6-1.3,14.5-7,17.8c-1.5,0.9-3.2,1.2-4.6,2.1s-2.3,3-1.2,4.3c0.8,1,2.2,1,3.4,1c5.1,0,10.2-0.1,15.3-0.1c0.9,0,1.8,0,2.5-0.6
		c1.3-1,1-3,0.6-4.6c-2.6-12.4,4.9-26.1,16.6-30.7c1-0.4,2.2-0.7,3,0c0.8,0.6,0.8,1.8,0.8,2.9c-0.4,11,1.3,23.6,10.2,30.1
		c8.7,6.3,21.8,3.9,29.6-3.5c7.8-7.4,11-18.7,11.2-29.5c12.7,3.7,21.3,18.1,18.4,31c-0.3,1.6-0.7,3.6,0.6,4.5
		c0.6,0.4,1.4,0.5,2.2,0.5c5.5,0,10.9,0,16.4,0.1c0.8,0,1.7,0,2.3-0.5c1.5-1.1,0.8-3.7-0.8-4.8c-1.5-1.1-3.5-1.4-5.1-2.3
		c-5.2-3.2-3.8-11.1-6.1-16.7c-2.4-6.2-9.1-9.4-15-12.4c-5.9-3-12.3-7.3-13.1-13.9c-0.5-4.5,1.8-8.9,4.9-12.2
		C128.6,148.5,128.6,148.4,128.7,148.4z M76.1,51.4c1.2,1.1,2.9,1.7,5,1.6c3.6,0.1,5.2-1.8,5.9-4.5c0.1-0.4,0.2-0.8,0.2-1.3
		c-0.1,0.4-0.1,0.9-0.2,1.3c-0.6,2.7-2.3,4.6-5.8,4.5C79,53,77.3,52.5,76.1,51.4z"/>
	<g>
		<circle class="st1" cx="87.3" cy="50.1" r="26.3"/>
		<circle cx="85.3" cy="57.1" r="16.5"/>
		<circle class="st1" cx="84.8" cy="42.1" r="5"/>
		<circle class="st1" cx="97.9" cy="62.3" r="3.4"/>
	</g>
	<g>
		<circle class="st1" cx="94.5" cy="113.2" r="17.2"/>
		<circle cx="93.1" cy="117.7" r="10.8"/>
		<circle class="st1" cx="92.9" cy="107.9" r="3.3"/>
		<circle class="st1" cx="101.4" cy="121.1" r="2.3"/>
	</g>
	<g>
		<circle class="st1" cx="97.9" cy="161.4" r="13.5"/>
		<circle cx="96.9" cy="164.9" r="8.4"/>
		<circle class="st1" cx="96.7" cy="157.2" r="2.6"/>
		<circle class="st1" cx="103.3" cy="167.6" r="1.8"/>
	</g>
</g>
</svg>
