<?xml version="1.0" encoding="utf-8"?>
<!-- Generator: Adobe Illustrator 25.2.1, SVG Export Plug-In . SVG Version: 6.00 Build 0)  -->
<svg version="1.1" id="Layer_1" xmlns="http://www.w3.org/2000/svg" xmlns:xlink="http://www.w3.org/1999/xlink" x="0px" y="0px"
	 viewBox="0 0 180 235.9" style="enable-background:new 0 0 180 235.9;" xml:space="preserve">
<style type="text/css">
	.st0{fill:#D0DC27;}
	.st1{fill:#FFFFFF;}
	.st2{fill:#CE2B27;}
	.st3{fill:#B41C57;}
	.st4{fill:#FEDF00;}
	.st5{fill:#0096D5;}
	.st6{fill:none;stroke:#B41C57;stroke-width:3;stroke-miterlimit:10;}
	.st7{fill:#9E6197;}
</style>
<g>
	<path class="st2" d="M177,229.5c-6.4-1.3-6.2-6.1-6.9-11.1c-2.2-15.9-4.4-33.8-19.3-41.8c-13.4-7.1-12.2-16-11.1-26.9
		c0.3-2.5,0.5-4.9,0.6-7.4c0.8-20.4,0.6-40.8-7.8-59.9c-2.8-6.4-2.7-11,1.6-16.4c1.1,1.2,2.2,2.4,3.3,3.6c1.9,2.1,4.1,3.1,6.3,0.8
		c1.9-2,1.8-4.5,0-6.7c-0.7-0.9-1.5-1.6-2.2-2.5c-1.4-1.6-3.4-2.8-1.3-5.5c1.8-2.2,3.4-2.4,5.6-1.1c0.9,0.6,2,0.9,2.9,1.4
		c2.2,1.2,4.2,1.1,5.7-1.2c1.5-2.3,0.9-4.9-1.1-5.8c-4.6-2.1-4.5-3.9-1.2-7.4c2.3-2.4,2.2-5.8-0.6-8c-2.7-2.1-5.7-1.7-8.1,0.8
		c-2.7,2.8-5.4,5.5-7.7,8.6c-2.1,2.7-3.7,4.3-7.2,1.6c-2.2-1.7-5.4-4-7.8-0.2c-2.6,4,0.5,6.1,3.4,7.7c7.8,4.4-0.8,7.3-1.1,10.9
		c-0.4,4.6-3.3,1.8-5.2,0.7c-9.9-5.5-20.2-6.6-30.8-2.2c-1.7,0.7-4.5,2.3-4.5-0.5c-0.1-4.1-7.2-10.8,3.5-12.2c3-0.4,4.6-3.3,3.6-6.3
		c-0.8-2.6-3-4-5.9-2.5c-5.9,3.2-8.7,0.6-10.5-5c-0.7-2.3-2.2-4.4-3.5-6.5c-2.1-3.2-4.4-7-9-4.9c-4.9,2.2-4.4,6.2-2.2,10.4
		c0.7,1.2,3.3,3.4-0.4,4.2c-3.9,0.8-7.5,2.4-5.8,6.9c1.7,4.7,6.3,2.6,9.3,1.6c3-1,3.9,0.4,5,2.4c1.3,2.5,0.5,4.1-2,5.2
		c-1,0.4-1.9,1.1-2.8,1.8c-2.5,2-4.5,4.4-2.1,7.7c2.2,3,4.7,2,7.1,0.2c1.1-0.8,2.2-1.4,3.9-2.5c3.4,6.9,2.4,12.2-1.7,18.1
		c-3.4,4.8-5.3,10.8-7.2,16.5c-6.9,20.7-9.4,42.3-10,64c-0.1,5.6-1.7,8.2-7.5,9.1c-11.8,1.7-19.7,9-25.3,19.1
		c-4.8,8.8-7.2,18.3-8.3,28.2c-0.6,5.4-0.2,11-7.3,12.8c-1.8,0.5-5.5,3.4-1.2,5c5.9,2.2,12.5,1.5,18.6-0.3c2.1-0.6,0.5-2.1,0.1-3.2
		c-6-22.3,6.6-45.4,29.6-53.9c0,11.4,0,22.6,0,33.7c0.1,12.6,4.9,19.1,17.2,21.2c14.9,2.5,30.1,3.1,45.2,1.7
		c13.9-1.4,18.8-7.6,19.9-21.6c0.7-9,2.4-17.9,3.3-27c0.5-4.8,2-4.9,5.5-2.3c15.1,11.2,21.5,26.8,18.6,44.7c-1.4,8.6,2.2,7.6,7,7.9
		c2.7,0.2,5.5,0.1,8.2-0.1c1.8-0.1,4.2,0.1,4.6-2.3C180.2,231.3,178.4,229.8,177,229.5z"/>
	<g>
		<circle class="st1" cx="86.4" cy="86.3" r="13.4"/>
		<circle cx="87.4" cy="89.8" r="8.4"/>
		<circle class="st1" cx="87.7" cy="82.2" r="2.5"/>
		<circle class="st1" cx="81" cy="92.5" r="1.8"/>
	</g>
	<g>
		<circle class="st2" cx="57.7" cy="19.5" r="19.5"/>
		<circle cx="59.2" cy="24.7" r="12.2"/>
		<circle class="st2" cx="59.5" cy="13.6" r="3.7"/>
		<circle class="st2" cx="49.8" cy="28.5" r="2.6"/>
	</g>
	<g>
		<circle class="st2" cx="154.3" cy="19.5" r="19.5"/>
		<circle cx="152.8" cy="24.7" r="12.2"/>
		<circle class="st2" cx="152.5" cy="13.6" r="3.7"/>
		<circle class="st2" cx="162.1" cy="28.5" r="2.6"/>
	</g>
	<g>
		<circle class="st1" cx="117.6" cy="87.5" r="13.4"/>
		<circle cx="116.6" cy="91.1" r="8.4"/>
		<circle class="st1" cx="116.3" cy="83.4" r="2.5"/>
		<circle class="st1" cx="123" cy="93.7" r="1.8"/>
	</g>
	<g>
		<circle class="st1" cx="75.7" cy="111.9" r="10.3"/>
		<circle cx="76.5" cy="114.6" r="6.5"/>
		<circle class="st1" cx="76.6" cy="108.7" r="2"/>
		<circle class="st1" cx="71.5" cy="116.7" r="1.4"/>
	</g>
	<g>
		<circle class="st1" cx="99.6" cy="112.9" r="10.3"/>
		<circle cx="98.8" cy="115.6" r="6.5"/>
		<circle class="st1" cx="98.7" cy="109.7" r="2"/>
		<circle class="st1" cx="103.8" cy="117.6" r="1.4"/>
	</g>
	<g>
		<circle class="st1" cx="124.9" cy="112.9" r="10.3"/>
		<circle cx="124.1" cy="115.6" r="6.5"/>
		<circle class="st1" cx="124" cy="109.7" r="2"/>
		<circle class="st1" cx="129.1" cy="117.6" r="1.4"/>
	</g>
	<path class="st1" d="M110,143.2c0,0-10.4,9.9-35.3,1.4c0,0-0.1,21.1,18.9,19.8S110,143.2,110,143.2z"/>
	<path d="M101.9,162.1c0,0-3.5-5.8-10.2-3.3c0,0-4.5-4.3-8.1-0.6c-3.6,3.7-12.8,12.1-5.4,27.1s17.5,8.9,18.5,5.5s-1.3-8.4-1.9-9.9
		C94.1,179.4,90.3,168.8,101.9,162.1z"/>
</g>
</svg>
