<?xml version="1.0" encoding="utf-8"?>
<!-- Generator: Adobe Illustrator 25.2.1, SVG Export Plug-In . SVG Version: 6.00 Build 0)  -->
<svg version="1.1" id="Layer_1" xmlns="http://www.w3.org/2000/svg" xmlns:xlink="http://www.w3.org/1999/xlink" x="0px" y="0px"
	 viewBox="0 0 180 200.3" style="enable-background:new 0 0 180 200.3;" xml:space="preserve">
<style type="text/css">
	.st0{fill:#D0DC27;}
	.st1{fill:#FFFFFF;}
	.st2{fill:#CE2B27;}
	.st3{fill:#B41C57;}
	.st4{fill:#FEDF00;}
	.st5{fill:#0096D5;}
	.st6{fill:none;stroke:#B41C57;stroke-width:3;stroke-miterlimit:10;}
	.st7{fill:#9E6197;}
</style>
<g>
	<g>
		<g>
			<path class="st5" d="M143.5,105.2c-2.8,0-4.9-0.4-5.1-0.5l-1.9-0.4l0.8-3.8l1.9,0.4c0.1,0,8.5,1.7,13.8-2.4
				c2.8-2.1,4.3-5.6,4.5-10.2c0.3-6.4-0.3-12.8-1.7-19.1c-0.4-1.8-1-3.7-1.7-5.6c-1.5-4.3-3-8.7-2.2-13.4c1.1-6.4,5-10.5,10.7-11.4
				l1.9-0.3l0.6,3.9l-1.9,0.3c-5.1,0.8-6.9,4.9-7.5,8.2c-0.7,3.7,0.6,7.5,2,11.4c0.7,2,1.4,4,1.9,6.1c1.5,6.6,2.1,13.4,1.8,20.1
				c-0.3,5.9-2.3,10.3-6,13.2C151.6,104.5,147,105.2,143.5,105.2z"/>
		</g>
	</g>
	<circle class="st5" cx="166.8" cy="44.8" r="13.2"/>
	<circle cx="165.8" cy="48.2" r="8.3"/>
	<circle class="st5" cx="165.6" cy="40.7" r="2.5"/>
	<circle class="st5" cx="172.1" cy="50.9" r="1.7"/>
	<path class="st5" d="M48.9,186.4c0.3-0.1,0.6-0.3,0.9-0.4c10.6-5,18.9-14.5,22.5-25.6c1-3.1,1.6-6.3,1.3-9.5
		c-0.4-3.7-2.1-7.1-3.6-10.6c-6.3-15-13-41.5,4.3-51.7c5-3,11-4.2,16.8-4.5c13.9-0.8,27.9,3.1,39.4,10.9c3.9,2.6,7.6,5.8,9.4,10.1
		c1.2,2.8,1.5,5.9,1.7,9c0.7,13.6-1.5,27.3,0.4,40.8c0.9,6.4,2.9,12.8,6.3,18.4c2.1,3.4,4.9,6,8,8.4c3.6,2.8,7.9,3.8,3.8,8.3
		c-3.2,3.5-9.4,5.5-13.7,6.8c-9.9,3.1-20.8,4.1-31.1,3.2c-11.8-1.1-23.1-5.1-34.8-7.4c-6.3-1.2-12.7-2-19.1-1.5
		c-2.3,0.2-23.4,8.1-17.2-1.3C45.3,188.1,47.2,187.2,48.9,186.4z"/>
	<g>
		<g>
			<path class="st5" d="M129.9,97.7l-2-3.4l1.7-1c0.1-0.1,9-5.5,10.3-13.9c0.8-4.8-1-9.7-5.2-14.7c-6.2-7.2-11.1-11-14.8-13.8
				c-5.9-4.5-9.1-7-8.7-16.8l0.1-2l3.9,0.1l-0.1,2c-0.3,7.8,1.6,9.3,7.2,13.5c3.8,2.9,8.9,6.8,15.4,14.4c5.1,5.9,7.1,11.9,6.1,17.9
				c-1.7,10.2-11.8,16.3-12.2,16.6L129.9,97.7z"/>
		</g>
	</g>
	<g>
		<g>
			<path class="st5" d="M91.3,88.3l-2.8-2.7l1.3-1.4c0.1-0.1,12.8-13.8,10.8-30.8c-2-17.2-10.6-25.5-10.7-25.6l-1.4-1.3l2.7-2.9
				l1.4,1.3c0.4,0.4,9.8,9.4,11.9,28c2.2,18.8-11.3,33.3-11.9,33.9L91.3,88.3z"/>
		</g>
	</g>
	<g>
		<g>
			<path class="st5" d="M84.4,89.1l-1.9-0.5c-0.4-0.1-9.1-2.3-5.7-17.1c0.6-2.5,1.4-5,2.3-7.6c4-11.9,7.9-23.1-12-32l-1.8-0.8
				l1.6-3.6l1.8,0.8c23.2,10.3,18.2,25,14.2,36.8c-0.9,2.5-1.7,5-2.2,7.2c-2.5,10.9,2.7,12.4,2.8,12.4l1.9,0.5L84.4,89.1z"/>
		</g>
	</g>
	<g>
		<g>
			<path class="st5" d="M62,106.9c-3.8,0-12.3-0.7-18.4-6.2c-4.4-3.9-6.7-9.5-6.9-16.6c-0.5-21.2-24-26.8-25-27l-1.9-0.4l0.9-3.8
				l1.9,0.4c0.3,0.1,27.5,6.4,28.1,30.7c0.1,6,2,10.6,5.6,13.8c6.7,6,17.3,5.1,17.4,5.1l1.9-0.2l0.4,3.9l-1.9,0.2
				C63.9,106.9,63.2,106.9,62,106.9z"/>
		</g>
	</g>
	<g>
		<g>
			<path class="st5" d="M69,96l-1.4-1.3C67.1,94.2,55,82.9,57.3,71.5l0-0.2c2.1-9.9,4.6-22.2-1.1-31.8l-1-1.7l3.4-2l1,1.7
				c6.6,10.9,3.8,24.1,1.6,34.6l0,0.2c-1.9,9.2,9,19.3,9.1,19.4l1.4,1.3L69,96z"/>
		</g>
	</g>
	<g>
		<g>
			<path class="st5" d="M65,102.4l-0.4-1.9c-0.2-0.9-5.6-21.9-33.2-18.5l-1.9,0.2l-0.5-3.9l1.9-0.2C62,74.3,68.3,99.4,68.4,99.6
				l0.4,1.9L65,102.4z"/>
		</g>
	</g>
	<g>
		<g>
			<path class="st5" d="M112.5,90.5l-1-1.7c-0.4-0.6-8.5-13.8,0.1-25.4c3.8-5.1,7.7-7.2,10.8-8.9c3.8-2.1,6.1-3.3,7-8.4
				c1.8-10.5,0-31.2,0-31.5l-0.2-2l3.9-0.4l0.2,2c0.1,0.9,1.9,21.5,0,32.5c-1.2,6.9-5,9-9,11.2c-3,1.6-6.3,3.5-9.6,7.8
				c-7,9.4,0,20.8,0.1,20.9l1,1.7L112.5,90.5z"/>
		</g>
	</g>
	<g>
		<g>
			<path class="st5" d="M119.2,91.1l-3.5-1.7l0.9-1.8c0.6-1.2,14.3-28.9,34.9-22l1.9,0.6l-1.3,3.7l-1.9-0.6
				c-17.3-5.9-30,19.7-30.1,20L119.2,91.1z"/>
		</g>
	</g>
	<circle class="st5" cx="150.9" cy="66.9" r="6.5"/>
	<circle cx="150.4" cy="68.6" r="4.1"/>
	<circle class="st5" cx="150.3" cy="64.9" r="1.2"/>
	<circle class="st5" cx="153.6" cy="69.9" r="0.9"/>
	<circle class="st5" cx="30" cy="78.5" r="6.5"/>
	<circle cx="29.5" cy="80.2" r="4.1"/>
	<circle class="st5" cx="29.3" cy="76.8" r="1.2"/>
	<path class="st5" d="M33.2,81.5c0,0.4-0.4,0.8-0.8,0.8s-0.8-0.4-0.8-0.8s0.4-0.8,0.8-0.8S33.2,81.1,33.2,81.5z"/>
	<circle class="st5" cx="113.1" cy="31.7" r="9.5"/>
	<circle cx="112.4" cy="34.2" r="6"/>
	<circle class="st5" cx="112.2" cy="28.8" r="1.8"/>
	<circle class="st5" cx="117" cy="36.1" r="1.2"/>
	<circle class="st5" cx="56.6" cy="41.3" r="9.5"/>
	<circle cx="56.7" cy="43.9" r="6"/>
	<circle class="st5" cx="54.8" cy="38.8" r="1.8"/>
	<circle class="st5" cx="61.7" cy="44.2" r="1.2"/>
	<circle class="st5" cx="132.1" cy="13.2" r="13.2"/>
	<circle cx="128.7" cy="14.2" r="8.3"/>
	<circle class="st5" cx="136.2" cy="14.4" r="2.5"/>
	<circle class="st5" cx="126.1" cy="7.9" r="1.7"/>
	<circle class="st5" cx="95.1" cy="26" r="10.1"/>
	<circle cx="93.1" cy="27.9" r="6.3"/>
	<circle class="st5" cx="98.3" cy="25.4" r="1.9"/>
	<circle class="st5" cx="89.1" cy="24.5" r="1.3"/>
	<circle class="st5" cx="13.2" cy="52.6" r="13.2"/>
	<circle cx="10.8" cy="55.3" r="8.3"/>
	<circle class="st5" cx="17.3" cy="51.5" r="2.5"/>
	<circle class="st5" cx="5.2" cy="51.3" r="1.7"/>
	<g>
		<circle class="st5" cx="69.6" cy="26.8" r="13"/>
		<circle cx="69.1" cy="30.4" r="8.2"/>
		<circle class="st5" cx="72.4" cy="23.7" r="2.5"/>
		<circle class="st5" cx="62.3" cy="30" r="1.7"/>
	</g>
	<g>
		<circle class="st1" cx="105.2" cy="127.2" r="26.4"/>
		<circle cx="103.2" cy="134.2" r="16.5"/>
		<circle class="st1" cx="102.8" cy="119.2" r="5"/>
		<circle class="st1" cx="115.8" cy="139.4" r="3.5"/>
	</g>
</g>
</svg>
