<?xml version="1.0" encoding="utf-8"?>
<!-- Generator: Adobe Illustrator 25.2.1, SVG Export Plug-In . SVG Version: 6.00 Build 0)  -->
<svg version="1.1" id="Layer_1" xmlns="http://www.w3.org/2000/svg" xmlns:xlink="http://www.w3.org/1999/xlink" x="0px" y="0px"
	 viewBox="0 0 180 273.4" style="enable-background:new 0 0 180 273.4;" xml:space="preserve">
<style type="text/css">
	.st0{fill:#D0DC27;}
	.st1{fill:#FFFFFF;}
	.st2{fill:#CE2B27;}
	.st3{fill:#B41C57;}
	.st4{fill:#FEDF00;}
	.st5{fill:#0096D5;}
	.st6{fill:none;stroke:#B41C57;stroke-width:3;stroke-miterlimit:10;}
	.st7{fill:#9E6197;}
</style>
<g>
	<path class="st0" d="M157.1,15.5c0.1-0.1,0.2-0.2,0.2-0.3c0.3-0.9,1-2.7,2.1-4.3c1.7,2.6,4.3,3.1,5.3,3.1c2.4,0.2,4.5-0.9,5-2.6
		c0.2-0.7,0.5-2.6-2.3-4.4c-1.9-1.2-3.7-1.5-5.5-0.8c-0.7,0.3-1.4,0.6-1.9,1.1c-0.1-0.2-0.1-0.4-0.1-0.6c-0.4-2.1-0.1-3.5,0.8-4.2
		c2.2-1.6,7.8,0.6,9.7,1.5c0.5,0.2,1.1,0,1.3-0.4c0.2-0.5,0-1.1-0.4-1.3c-0.8-0.4-8.2-3.9-11.7-1.3c-1.5,1.2-2,3.2-1.5,6.1
		c0.1,0.7,0.3,1.3,0.5,1.9c-1.7,2.1-2.6,4.5-2.9,5.4c-9.1-7.1-20.4-11.5-33.3-11.2C72.6,4.5,37.3,29.5,13.7,71.5
		c-16.9,30.1-16.3,62.7-8.1,95.2c7.8,30.9,21.9,57.9,50.5,75c2.6,1.5,2.9,3.4,2.4,5.9c-1.2,7-2.1,14-3.4,21c-0.5,2.6,0,4.4,2.8,4.6
		c2.7,0.1,5.7,1.2,7.9-1.4c-5.2-2,4.2-5.5-0.4-6.4c-4.7-1-3.2-3.7-3-6.2c0.3-4.2,0.7-8.5,1.1-13.3c4,1.1,7.5,2.4,11.2,3
		c5.7,1,14.2-0.5,16.4,2.7c3,4.3-0.5,11.7-1.9,17.7c-0.6,2.4,0.6,3.8,2.8,4c2.7,0.2,5.7,1,8.1-1.3c-4.6-1.9,3.5-4.5-0.4-6.8
		c-4.5-2.7-4-15.4,0.8-17.8c10.1-5.1,16.6-13.3,20.4-23.5c6.8-17.9,5.2-35.8-2-53.2c-1.9-4.5-2-8.4-0.6-12l-0.1,0.2l-1.7-2.2
		l-2.7,4.7l-3.1-8.3l-4.6,3.6l-2.9-7.4l-8-1.9l0.6-17c5.1,9.5,24.1,25.4,24.1,25.4l-0.2,0.3c0.6-1,1.4-1.9,2.3-2.9
		c7.4-7.7,14.9-15.3,22.3-22.9c12.2-12.4,23.3-25.4,30.7-41.3C186.2,65.1,177.7,32.9,157.1,15.5z M162.6,8.1
		c1.2-0.4,2.4-0.2,3.7,0.6c1.1,0.7,1.7,1.5,1.5,2.1c-0.2,0.7-1.4,1.4-3.1,1.3c-1.7-0.1-3.2-1.1-4.1-2.8
		C161.3,8.8,161.9,8.3,162.6,8.1z"/>
	<g>
		<circle class="st1" cx="116.9" cy="62.7" r="39.4"/>
		<circle cx="119.9" cy="73.1" r="24.7"/>
		<circle class="st1" cx="120.6" cy="50.6" r="7.5"/>
		<circle class="st1" cx="101" cy="80.9" r="5.2"/>
	</g>
</g>
</svg>
