<?xml version="1.0" encoding="utf-8"?>
<!-- Generator: Adobe Illustrator 17.0.0, SVG Export Plug-In . SVG Version: 6.00 Build 0)  -->
<!DOCTYPE svg PUBLIC "-//W3C//DTD SVG 1.1//EN" "http://www.w3.org/Graphics/SVG/1.1/DTD/svg11.dtd">
<svg version="1.1" id="Layer_1" xmlns="http://www.w3.org/2000/svg" xmlns:xlink="http://www.w3.org/1999/xlink" x="0px" y="0px"
	 width="105.095px" height="180px" viewBox="47.452 10 105.095 180" enable-background="new 47.452 10 105.095 180"
	 xml:space="preserve">
<path fill="#EE3C6F" d="M56.258,56.429h-0.343c-1.372,0-2.287-0.343-2.859-0.915c-0.572-0.572-0.915-1.601-1.144-2.973
	c-0.229-3.088-0.343-6.747-0.343-10.978s0.114-8.577,0.229-13.266c0.114-4.574,0.343-8.92,0.457-12.922c0-0.343,0-0.686,0-0.915
	c0.114-0.801,0.457-1.601,1.029-2.287c0.686-0.686,1.487-1.258,2.402-1.601C56.601,10.114,57.516,10,58.431,10
	c0.572,0,1.144,0.114,1.715,0.343c0.457,0.229,0.915,0.686,1.029,1.258c0,0.114,0.114,0.229,0.114,0.457v0.343
	c-0.343,1.944-0.572,5.146-0.686,9.492s-0.229,8.92-0.343,13.723c0,4.803-0.114,8.806-0.114,12.008c0,2.859,0,4.46,0,4.574
	c-0.114,0.572-0.114,1.029-0.114,1.487c0,0.572-0.114,1.144-0.229,1.487c-0.114,0.457-0.457,0.801-1.029,1.029
	C58.316,56.315,57.402,56.429,56.258,56.429z"/>
<path fill="#EE3C6F" d="M86.22,55.057c-1.944,0-3.659-0.572-5.26-1.83c-1.601-1.258-2.63-2.859-3.202-4.803
	c-0.457-1.601-0.572-3.202-0.572-4.803c0-3.888,1.258-7.548,3.774-10.864c1.487-1.944,3.431-3.316,5.832-4.003
	c0.801-0.229,1.601-0.343,2.287-0.343c1.487,0,2.859,0.457,4.117,1.487c1.144,1.029,1.715,2.287,1.715,3.659
	c0,0.686-0.229,1.487-0.572,2.173c-0.457,0.915-1.144,1.258-1.944,1.258c-0.229,0-0.457,0-0.686-0.114
	c-0.457-0.114-0.8-0.457-1.029-0.801c-0.229-0.343-0.343-0.801-0.343-1.258c0-0.343,0.114-0.572,0.114-0.686
	s0.114-0.229,0.114-0.343c0-0.229-0.114-0.343-0.343-0.457c-0.229,0-0.343-0.114-0.572-0.114c-0.572,0-1.144,0.343-1.715,1.029
	c-0.572,0.686-0.915,1.601-1.372,2.63c-0.343,1.144-0.686,2.287-0.915,3.545c-0.229,1.258-0.343,2.516-0.343,3.659
	c0,1.029,0.114,1.83,0.229,2.63c0.114,0.801,0.457,1.487,0.686,1.944c0.343,0.457,0.801,0.686,1.258,0.686s0.915-0.229,1.601-0.572
	l0.229-0.343c0.801-0.915,1.487-1.372,2.287-1.372c0.343,0,0.686,0.114,0.915,0.229c0.801,0.457,1.258,1.144,1.372,2.058
	c0,0.686-0.229,1.258-0.686,1.944c-1.144,1.715-2.973,2.859-5.26,3.431C87.592,54.943,86.906,55.057,86.22,55.057z"/>
<path fill="#EE3C6F" d="M113.208,55.286c-1.029,0-1.944-0.457-2.745-1.258c-0.801-0.801-1.258-1.944-1.487-3.545c0,0,0,0,0-0.114
	s0,0-0.114,0h-0.114h-0.114l0,0c0,0,0,0,0,0.114c-0.457,0.572-1.029,1.144-1.601,1.601c-0.686,0.572-1.372,1.029-2.058,1.258
	c-0.686,0.343-1.487,0.457-2.287,0.457h-0.572c-1.258-0.114-2.173-0.572-3.088-1.258c-0.801-0.686-1.487-1.601-1.944-2.63
	c-0.686-1.487-1.029-3.088-1.144-4.689v-1.144c0-2.173,0.229-4.231,0.915-6.175c0.572-1.944,1.487-3.888,2.745-5.718
	c0.572-0.801,1.258-1.601,1.944-2.287c0.801-0.686,1.601-1.144,2.63-1.487c0.686-0.229,1.372-0.343,2.058-0.343
	c1.601,0,2.973,0.686,4.231,1.944c0.114,0.229,0.343,0.343,0.572,0.343c0.114,0,0.229,0,0.343-0.114
	c0.572-0.343,1.372-0.457,2.287-0.457c0.8,0,1.487,0.114,2.287,0.343c0.801,0.229,1.372,0.457,1.715,0.915
	c0.114,0.229,0.229,0.343,0.229,0.572s0,0.457-0.114,0.686c-0.457,1.372-0.801,3.316-1.144,6.061
	c-0.229,2.745-0.343,5.26-0.343,7.776s0.114,4.46,0.457,5.832c0,0.229,0.114,0.343,0.343,0.457c0.229,0.229,0.343,0.457,0.343,0.686
	c0,0.229-0.114,0.457-0.457,0.686C115.381,54.828,114.238,55.286,113.208,55.286z M102.573,49.111c0.229,0,0.457-0.114,0.801-0.343
	c0.572-0.343,1.029-0.686,1.372-1.258c1.144-1.487,1.944-3.088,2.402-4.689c0.457-1.715,0.686-3.431,0.686-5.146v-0.343
	l-0.114-0.457c-0.114-0.572-0.114-1.144-0.343-1.715c-0.114-0.572-0.343-1.029-0.686-1.601c-0.229-0.343-0.572-0.572-0.915-0.572
	c-0.229,0-0.457,0.114-0.686,0.229c-0.801,0.457-1.372,1.029-1.83,1.83c-1.715,2.745-2.63,5.604-2.63,8.806
	c0,0.686,0,1.372,0.114,1.944c0.114,0.915,0.343,1.83,0.915,2.63C101.887,48.882,102.23,49.111,102.573,49.111z"/>
<path fill="#EE3C6F" d="M123.844,54.943c-0.801,0-1.372-0.229-1.944-0.572c-0.572-0.343-0.915-0.915-1.144-1.83
	c-0.343-1.601-0.457-3.659-0.457-6.29c0-2.859,0.114-5.832,0.343-8.806c0.229-2.973,0.572-5.26,0.915-6.633
	c0.229-0.572,0.686-1.029,1.601-1.372c0.915-0.343,1.83-0.457,2.745-0.457c0.686,0,1.258,0.114,1.83,0.229
	c0.572,0.114,1.029,0.343,1.372,0.572c0.229,0.229,0.343,0.457,0.343,0.686c0,0.229-0.114,0.572-0.229,0.915
	c-0.114,0.343-0.229,0.686-0.229,0.915c0.457-0.457,0.915-0.915,1.372-1.144c0.572-0.457,1.258-0.801,1.83-1.144
	c0.686-0.343,1.372-0.457,2.058-0.457c0.229,0,0.457,0,0.686,0c1.487,0.114,2.63,0.572,3.545,1.372
	c0.915,0.801,1.601,1.83,2.173,3.088c0.457,1.258,0.801,2.63,1.029,4.117c0.229,1.487,0.229,3.088,0.229,4.574
	c0,1.144,0,2.173-0.114,3.202c0,1.029-0.114,2.058-0.229,2.859c-0.114,1.258-0.114,2.173-0.114,2.973c0,0.343,0,0.686-0.114,1.029
	c-0.114,0.343-0.343,0.686-0.572,0.915s-0.572,0.343-1.029,0.457c-0.457,0.114-0.915,0.114-1.372,0.114
	c-0.801,0-1.487-0.114-1.944-0.343c-0.229-0.114-0.457-0.343-0.686-0.572c-0.114-0.229-0.229-0.572-0.343-0.801
	c-0.229-0.686-0.343-1.715-0.343-2.859c0-1.487,0.114-2.973,0.229-4.46c0-0.572,0.114-1.029,0.114-1.372
	c0-0.801,0.114-1.601,0.114-2.287c0-2.287-0.229-3.888-0.572-4.917s-0.915-1.487-1.487-1.487c-0.801,0-1.715,0.801-2.745,2.516
	c-1.029,1.715-1.83,3.888-2.516,6.633c-0.229,0.915-0.343,1.715-0.343,2.63c0,0.915-0.114,1.715-0.114,2.63v2.058v1.144
	c0,0.343,0,0.572-0.114,0.801s-0.343,0.343-0.801,0.572C125.788,54.714,124.759,54.943,123.844,54.943z"/>
<path fill="#F99F21" d="M61.29,117.039c0-0.114,0-0.114,0.114-0.229c0-0.343,0-0.572,0-0.915c0.114-3.888,0.114-7.776,0-11.779
	c0-0.229,0-0.457,0-0.686c0-0.114,0.114-0.229,0.229-0.229c0.572,0,1.029,0,1.601,0h0.114c0,0,0.114,0,0.114,0.114s0,0.343,0,0.457
	c0,3.202,0,6.404,0,9.606c0,0.915,0,1.715,0,2.63c0,0.915-0.114,1.83-0.229,2.63c-0.114,0.457-0.114,0.915-0.343,1.258
	c-0.114,0.229-0.114,0.457-0.343,0.686c-0.114,0.114-0.114,0.229-0.229,0.343c-0.229,0.229-0.572,0.343-0.915,0.229
	c-0.114,0-0.229-0.114-0.229-0.114c-0.229-0.114-0.343-0.343-0.457-0.572c-0.229-0.343-0.343-0.686-0.572-1.029
	c-0.229-0.572-0.457-1.258-0.686-1.83c-0.343-1.144-0.686-2.402-1.029-3.545c-0.457-1.601-0.801-3.202-1.258-4.803
	c-0.114-0.457-0.229-1.029-0.457-1.487l0,0l0,0v0.114c0,0.114,0,0.229,0,0.343c0,2.859,0,5.604,0,8.463c0,1.144,0,2.287,0,3.431
	c0,0.114,0,0.343,0,0.457s-0.114,0.229-0.229,0.229c-0.572,0-1.029,0-1.601,0c-0.114,0-0.114-0.114-0.114-0.114
	c0-0.114,0-0.229,0-0.343c0-0.572,0-1.029,0-1.601c0-1.258,0-2.516-0.114-3.774c0-2.402,0-4.689,0-7.09c0-0.8,0-1.487,0.114-2.287
	c0-0.343,0.114-0.686,0.114-1.029s0.229-0.801,0.457-1.029c0.114-0.114,0.343-0.229,0.457-0.343c0.114,0,0.343-0.114,0.457,0
	c0.229,0,0.343,0.114,0.457,0.229c0.229,0.229,0.457,0.343,0.572,0.686c0.229,0.343,0.343,0.686,0.572,1.029
	c0.343,0.8,0.572,1.601,0.801,2.402c0.343,1.258,0.686,2.63,1.029,3.888c0.343,1.487,0.686,2.973,1.144,4.46
	c0.114,0.343,0.229,0.686,0.343,0.915C61.175,117.039,61.29,117.039,61.29,117.039z"/>
<path fill="#F99F21" d="M65.292,112.008c0-0.114,0-0.229,0-0.343c0-0.229,0-0.572,0-0.801c0-0.915,0.114-1.944,0.343-2.859
	c0.114-0.801,0.343-1.601,0.686-2.287c0.343-0.686,0.686-1.258,1.258-1.83c0.114-0.114,0.229-0.229,0.457-0.343
	c0.572-0.229,1.144-0.457,1.715-0.457c0.801,0,1.487,0.229,2.173,0.686c0.343,0.229,0.686,0.572,0.915,0.915
	c0.457,0.686,0.801,1.487,1.144,2.287c0.343,0.915,0.457,1.83,0.572,2.859c0.114,1.372,0.114,2.745,0.114,4.117
	c0,1.144-0.229,2.287-0.457,3.431c-0.114,0.457-0.343,1.029-0.572,1.487c-0.114,0.343-0.343,0.686-0.572,0.915
	c-0.572,0.8-1.258,1.258-2.173,1.372c-0.343,0.114-0.801,0.114-1.258,0.114c-1.258,0-2.173-0.572-2.973-1.715
	c-0.343-0.572-0.572-1.144-0.801-1.715c-0.229-0.686-0.343-1.372-0.457-2.058c0-0.457-0.114-0.8-0.114-1.258
	c0-0.114,0-0.229,0-0.343c0-0.114,0-0.801,0-0.915C65.292,112.351,65.292,112.694,65.292,112.008z M67.236,112.922
	c0,0.572,0,1.144,0.114,1.715c0,0.8,0.114,1.487,0.343,2.173c0.114,0.343,0.229,0.801,0.343,1.144
	c0.114,0.343,0.343,0.572,0.572,0.801s0.457,0.343,0.801,0.457c0.343,0,0.686,0.114,1.029,0c0.114,0,0.229,0,0.343-0.114
	c0.457-0.114,0.801-0.457,1.029-0.915c0.114-0.229,0.229-0.457,0.343-0.801c0.114-0.457,0.229-0.915,0.343-1.372
	c0.114-0.686,0.114-1.372,0.229-2.058c0.114-1.372,0.114-2.859-0.114-4.231c-0.114-0.686-0.114-1.258-0.343-1.83
	c-0.114-0.343-0.229-0.8-0.457-1.144c-0.114-0.343-0.343-0.572-0.572-0.801c-0.229-0.343-0.572-0.457-0.915-0.572
	s-0.572-0.114-0.915,0c-0.229,0-0.457,0.229-0.686,0.457c-0.229,0.229-0.343,0.572-0.457,0.915
	c-0.229,0.572-0.343,1.144-0.457,1.715C67.351,109.835,67.236,111.321,67.236,112.922z"/>
<path fill="#EE3C6F" d="M89.079,112.579c0,2.745,0,5.375,0,8.119c0,0.229,0,0.343,0,0.572c0,0.114-0.114,0.114-0.114,0.229
	c-0.114,0-0.114,0-0.229,0c-0.457,0-0.801,0-1.258,0c-0.114,0-0.114,0-0.229,0l-0.114-0.114c0-0.114,0-0.229,0-0.343
	c0-0.572,0-1.258,0-1.83c0-1.372,0-2.745,0-4.003c0-0.229,0-0.343,0-0.572c0-0.114-0.114-0.114-0.114-0.114
	c-0.114,0-0.114,0-0.229,0c-1.029,0-1.944,0-2.973,0c-0.114,0-0.229,0-0.457,0l-0.114,0.114c0,0.229,0,0.343,0,0.572
	c0,1.944,0,3.774,0,5.718c0,0.114,0,0.343,0,0.457c0,0,0,0.114-0.114,0.114h-0.114c-0.457,0-1.029,0-1.487,0
	c-0.229,0-0.229-0.114-0.229-0.229s0-0.343,0-0.457c0-1.944,0-3.888,0-5.832c0-3.316,0-6.633,0-9.949c0-0.229,0-0.343,0-0.572
	c0-0.114,0.114-0.114,0.114-0.229l0,0c0.457,0,1.029,0,1.487,0l0,0c0.114,0,0.114,0.114,0.114,0.114c0,0.229,0,0.343,0,0.572
	c0,1.715,0,3.431,0,5.146c0,0.686,0,1.258,0,1.944c0,0.114,0,0.229,0,0.229s0,0.114,0.114,0.114c0.114,0,0.229,0,0.343,0
	c0.801,0,1.715,0,2.516-0.114c0.229,0,0.457,0,0.686,0c0.114,0,0.114-0.114,0.114-0.229c0-0.229,0-0.343,0-0.572
	c0-2.287,0-4.574,0-6.861c0-0.229,0-0.343,0-0.572c0-0.114,0.114-0.114,0.114-0.114c0.572,0,1.029,0,1.601,0
	c0.114,0,0.229,0.114,0.229,0.229c0,0.229,0,0.343,0,0.572C89.193,107.205,89.193,109.835,89.079,112.579
	C89.193,112.579,89.193,112.579,89.079,112.579z"/>
<path fill="#EE3C6F" d="M91.48,111.779c0-0.915,0-1.83,0-2.745c0-1.715,0-3.316,0.114-5.032c0-0.114,0-0.229,0-0.229
	c0-0.114,0.114-0.229,0.229-0.229s0.114,0,0.229,0c1.487,0,2.973,0,4.46,0c0.114,0,0.229,0,0.343,0c0.114,0,0.114,0.114,0.114,0.114
	v0.114c0,0.572,0,1.029,0,1.601c0,0.229-0.114,0.229-0.229,0.229s-0.229,0-0.457,0c-0.801,0-1.601,0-2.287,0
	c-0.114,0-0.229,0-0.343,0c0,0,0,0-0.114,0.114l0,0v0.114c0,1.83-0.114,3.659-0.114,5.604c0,0.114,0,0.114,0,0.229
	s0.114,0.229,0.229,0.229c0.8,0,1.487,0,2.287,0.114c0.801,0,0.686-0.114,0.686,0.801c0,0.457,0,0.801,0,1.258
	c0,0.114-0.114,0.114-0.114,0.114c-0.114,0-0.229,0-0.457,0c-0.686,0-1.372,0-2.173,0c-0.114,0-0.229,0-0.343,0
	c-0.114,0-0.114,0.114-0.114,0.114c0,0.114,0,0.229,0,0.343c0,1.372,0,2.859-0.114,4.231c0,0.114,0,0.114,0,0.229l0.114,0.114
	c0.114,0,0.229,0,0.343,0c0.8,0,1.601,0,2.402,0c0.114,0,0.229,0,0.457,0c0.114,0,0.114,0.114,0.114,0.114v0.114
	c0,0.572,0,1.029,0,1.601v0.114l-0.114,0.114c-0.229,0-0.572,0.114-0.801,0.114c-0.915,0-1.715,0-2.516,0
	c-0.343,0-0.686,0-1.029-0.114c-0.572-0.114-0.686-0.229-0.686-0.801c-0.114-0.457-0.114-0.801-0.114-1.258
	c0-1.258,0-2.516,0.114-3.774c0-0.572,0-1.144,0-1.83C91.48,113.151,91.48,112.465,91.48,111.779L91.48,111.779z"/>
<path fill="#EE3C6F" d="M104.746,121.499c-0.114,0-0.229-0.229-0.343-0.343c-1.144-1.372-2.287-2.745-3.316-4.003
	c-0.114-0.114-0.229-0.229-0.343-0.343h-0.114c0,0.114,0,0.229,0,0.343c0,1.144,0,2.287,0,3.431c0,0.801,0.114,0.801-0.686,0.801
	c-0.343,0-0.686,0-1.144,0c-0.114,0-0.114-0.114-0.114-0.229c0-0.229,0-0.457,0-0.686c0-4.917,0-9.949,0-14.867
	c0-0.686,0-1.372,0-2.058c0-0.114,0-0.229,0-0.343c0,0,0-0.114,0.114-0.114h0.114c0.8,0,1.601,0,2.516,0
	c0.686,0,1.372,0.229,2.058,0.572c0.915,0.457,1.715,1.258,2.058,2.287c0.229,0.572,0.457,1.258,0.457,1.83
	c0.114,0.686,0.114,1.487,0,2.173c-0.114,0.915-0.343,1.715-0.801,2.402c-0.457,0.801-1.144,1.372-1.944,1.715
	c-0.343,0.114-0.686,0.343-1.144,0.343c-0.114,0-0.229,0-0.343,0.114c-0.114,0-0.114,0.114,0,0.229
	c0.114,0.114,0.229,0.229,0.343,0.343c0.686,0.801,1.372,1.715,2.058,2.516c0.572,0.686,1.144,1.372,1.715,2.058
	c0,0.114,0.114,0.114,0.114,0.229v0.114l-0.114,0.114c-0.343,0.343-0.801,0.801-1.144,1.144
	C104.86,121.385,104.86,121.499,104.746,121.499z M100.743,108.92L100.743,108.92c0,1.029,0,2.058,0,2.973c0,0.114,0,0.343,0,0.457
	s0.114,0.114,0.114,0.114c0.572,0,1.144-0.114,1.601-0.229c0.801-0.229,1.258-0.801,1.601-1.715c0-0.114,0.114-0.229,0.114-0.343
	c0.114-0.686,0.114-1.372,0.114-2.058c0-0.229-0.114-0.457-0.114-0.801c-0.229-0.915-0.915-1.601-1.715-1.83
	c-0.457-0.114-0.915-0.229-1.372-0.229l0,0c-0.114,0-0.229,0.114-0.229,0.229s0,0.343,0,0.457
	C100.743,106.976,100.743,108.005,100.743,108.92z"/>
<path fill="#EE3C6F" d="M107.605,112.008c0-0.114,0-0.229,0-0.343c0-0.229,0-0.572,0-0.801c0-0.915,0.114-1.944,0.343-2.859
	c0.114-0.801,0.343-1.601,0.686-2.287c0.343-0.686,0.686-1.258,1.258-1.83c0.114-0.114,0.229-0.229,0.457-0.343
	c0.572-0.229,1.144-0.457,1.715-0.457c0.801,0,1.487,0.229,2.173,0.686c0.343,0.229,0.686,0.572,0.915,0.915
	c0.457,0.686,0.801,1.487,1.144,2.287c0.343,0.915,0.457,1.83,0.572,2.859c0.114,1.372,0.114,2.745,0.114,4.117
	c0,1.144-0.229,2.287-0.457,3.431c-0.114,0.457-0.343,1.029-0.572,1.487c-0.114,0.343-0.343,0.686-0.572,0.915
	c-0.572,0.8-1.258,1.258-2.173,1.372c-0.343,0.114-0.8,0.114-1.258,0.114c-1.258,0-2.173-0.572-2.973-1.715
	c-0.343-0.572-0.572-1.144-0.8-1.715c-0.229-0.686-0.343-1.372-0.457-2.058c0-0.457-0.114-0.8-0.114-1.258c0-0.114,0-0.229,0-0.343
	c0-0.114,0-0.801,0-0.915C107.49,112.351,107.605,112.694,107.605,112.008z M109.549,112.922c0,0.572,0,1.144,0.114,1.715
	c0,0.8,0.114,1.487,0.343,2.173c0.114,0.343,0.229,0.801,0.343,1.144c0.114,0.343,0.343,0.572,0.572,0.801s0.457,0.343,0.801,0.457
	c0.343,0,0.686,0.114,1.029,0c0.114,0,0.229,0,0.343-0.114c0.457-0.114,0.8-0.457,1.029-0.915c0.114-0.229,0.229-0.457,0.343-0.801
	c0.114-0.457,0.229-0.915,0.343-1.372c0.114-0.686,0.114-1.372,0.229-2.058c0.114-1.372,0.114-2.859-0.114-4.231
	c-0.114-0.686-0.114-1.258-0.343-1.83c-0.114-0.343-0.229-0.8-0.457-1.144c-0.114-0.343-0.343-0.572-0.572-0.801
	c-0.229-0.343-0.572-0.457-0.915-0.572s-0.572-0.114-0.915,0c-0.229,0-0.457,0.229-0.686,0.457
	c-0.229,0.229-0.343,0.572-0.457,0.915c-0.229,0.572-0.343,1.144-0.457,1.715C109.663,109.835,109.549,111.321,109.549,112.922z"/>
<path fill="#EE3C6F" d="M119.727,121.614c-0.457,0-1.029,0-1.487,0c-0.114,0-0.229,0-0.343,0l-0.114-0.114
	c0-0.572,0-1.258-0.114-1.83c0-0.114,0.114-0.229,0.114-0.229c0.114,0,0.229,0,0.343,0c0.114,0,0.343,0,0.457,0
	s0.229-0.114,0.229-0.229s0-0.229,0-0.229c0-1.487,0.114-2.973,0.114-4.574c0-1.372,0.114-2.745,0.114-4.117
	c0-1.487,0.114-2.859,0.114-4.346c0-0.114,0-0.114,0-0.229c0,0,0-0.114-0.114-0.114s-0.343,0-0.457,0
	c-0.229,0-0.229-0.114-0.229-0.229c0-0.572,0-1.144,0-1.715l0,0c0-0.114,0.114-0.114,0.114-0.114c0.114,0,0.114,0,0.229,0
	c1.029,0,2.058,0,3.088-0.114c0.114,0,0.114,0,0.229,0c0,0,0.114,0,0.114,0.114v0.114c0,0.572,0,1.144,0,1.715v0.114
	c0,0.114-0.114,0.114-0.114,0.114c-0.229,0-0.457,0-0.686,0c-0.114,0-0.114,0.114-0.114,0.114c0,0.114,0,0.343,0,0.457
	c0,1.944-0.114,3.774-0.114,5.718c0,0.229,0,0.457,0,0.572c0,1.944-0.114,4.003-0.114,5.947c0,0.229,0,0.572,0,0.801
	c0,0.114,0.114,0.114,0.114,0.114h0.114c0.457,0,0.457,0,0.457,0.457s0,0.8,0,1.258c0,0.114,0,0.229,0,0.343
	c0,0.114-0.114,0.114-0.114,0.114c-0.114,0-0.229,0-0.343,0C120.642,121.614,120.184,121.614,119.727,121.614L119.727,121.614z"/>
<path fill="#EE3C6F" d="M124.873,116.582c0.229,0,0.457,0,0.686,0c0.114,0,0.229,0.114,0.229,0.229c0,0.343,0,0.572,0.114,0.915
	c0,0.229,0.114,0.457,0.229,0.686c0.229,0.457,0.686,0.686,1.144,0.801c0.457,0,0.915-0.114,1.372-0.457
	c0.229-0.114,0.343-0.343,0.343-0.572c0.343-1.029,0.343-1.944-0.343-2.859c-0.229-0.343-0.457-0.572-0.686-0.8
	c-0.343-0.343-0.686-0.572-1.029-0.801c-0.229-0.229-0.572-0.343-0.801-0.572c-0.229-0.114-0.457-0.343-0.686-0.457
	c-0.686-0.457-1.258-1.144-1.601-1.944c-0.343-0.686-0.457-1.487-0.457-2.287s0-1.487,0.229-2.173
	c0.114-0.572,0.343-1.144,0.686-1.601c0.572-0.801,1.258-1.372,2.173-1.487c0.457-0.114,0.801-0.114,1.258,0
	c0.572,0.114,1.144,0.457,1.487,1.029c0.229,0.343,0.457,0.801,0.572,1.144c0.229,0.686,0.229,1.258,0.343,1.944
	c0,0.114-0.114,0.229-0.114,0.229l0,0c-0.457,0-1.029,0-1.487,0c-0.114,0-0.229-0.114-0.229-0.229c0-0.343,0-0.686-0.114-1.029
	c0-0.229-0.114-0.457-0.229-0.686c-0.114-0.229-0.343-0.343-0.572-0.457c-0.114,0-0.114,0-0.229,0
	c-0.572,0.114-0.915,0.343-1.258,0.915c-0.114,0.343-0.229,0.686-0.343,1.029c-0.114,0.801-0.114,1.601,0.114,2.402
	c0,0.229,0.114,0.343,0.229,0.572c0.114,0.343,0.343,0.572,0.686,0.8c0.343,0.229,0.686,0.457,1.029,0.686
	c0.457,0.343,0.915,0.686,1.372,0.915c0.457,0.343,0.915,0.686,1.258,1.144c0.343,0.343,0.572,0.801,0.801,1.258
	c0.343,0.801,0.457,1.601,0.457,2.516c0,0.457-0.114,0.915-0.229,1.258c-0.457,1.372-1.258,2.173-2.516,2.63
	c-1.715,0.572-3.431-0.343-4.231-2.173c-0.229-0.686-0.343-1.372-0.343-2.173c0-0.114,0-0.229,0.229-0.229
	C124.415,116.582,124.644,116.582,124.873,116.582L124.873,116.582z"/>
<path fill="#EE3C6F" d="M142.713,106.861L142.713,106.861c-0.114,0.114-0.229,0.229-0.229,0.343
	c-0.229,0.572-0.457,1.258-0.801,1.83c-0.229,0.572-0.457,1.029-0.686,1.601c-0.114,0.343-0.343,0.686-0.572,0.915
	c-0.114,0.229-0.343,0.457-0.572,0.686s-0.572,0.343-0.801,0.343s-0.457-0.114-0.572-0.229c-0.229-0.114-0.457-0.343-0.686-0.572
	c-0.343-0.457-0.686-0.915-0.915-1.487c-0.229-0.457-0.343-0.801-0.572-1.258c-0.343-0.801-0.572-1.487-0.915-2.287
	c-0.114-0.229-0.229-0.457-0.229-0.572l-0.114-0.114c-0.114,0.229-0.114,0.457-0.114,0.572c-0.114,1.144-0.229,2.287-0.229,3.316
	c-0.114,2.287-0.114,4.689,0,6.976c0,1.144,0,2.287,0.114,3.431c0,0.8,0.114,0.8-0.686,0.8c-0.343,0-0.686,0-0.915,0
	c-0.114,0-0.114,0-0.229,0l-0.114-0.114c0-0.114,0-0.114,0-0.229c0-0.343,0-0.801,0-1.144c0-1.372,0-2.745,0-4.117
	c0-0.801,0-1.715,0-2.516c0-1.029,0-2.058,0-2.973c0-0.343,0-0.801,0-1.144c0.114-1.029,0.114-2.173,0.343-3.202
	c0.114-0.457,0.229-0.915,0.457-1.372c0.114-0.229,0.229-0.457,0.457-0.686c0.457-0.572,1.258-0.686,1.83-0.229
	c0.114,0.114,0.343,0.229,0.457,0.457c0.229,0.229,0.343,0.457,0.457,0.686c0.229,0.457,0.457,0.915,0.572,1.372
	c0.229,0.686,0.572,1.372,0.801,1.944c0.229,0.572,0.457,1.144,0.801,1.715c0,0.114,0.114,0.114,0.229,0.229l0,0
	c0.114-0.114,0.114-0.229,0.229-0.343c0.229-0.457,0.457-0.915,0.686-1.487c0.229-0.572,0.457-1.144,0.686-1.83
	c0.343-0.801,0.686-1.487,1.029-2.173c0.114-0.343,0.343-0.572,0.572-0.915c0.229-0.229,0.343-0.343,0.572-0.457
	c0.114,0,0.229,0,0.343,0c0.114,0,0.229,0.114,0.343,0.229c0.229,0.229,0.457,0.457,0.572,0.801
	c0.114,0.343,0.229,0.801,0.343,1.258c0.114,0.8,0.229,1.601,0.343,2.516c0.114,1.144,0.114,2.287,0.229,3.431
	c0.114,2.173,0.114,4.231,0.114,6.404c0,1.029,0,2.173,0,3.202c0,0.114,0,0.229,0,0.343c0,0.114-0.114,0.229-0.229,0.229
	c-0.457,0-1.029,0-1.487,0h-0.114c-0.114,0-0.114-0.114-0.114-0.114c0-0.114,0-0.343,0-0.457c0-1.144,0-2.402,0-3.545
	c0-1.944,0-4.003-0.114-5.947c0-0.915-0.114-1.83-0.114-2.745c0-0.343,0-0.801-0.114-1.144
	C142.827,106.976,142.827,106.976,142.713,106.861z"/>
<path fill="#F99F21" d="M57.859,88.107h-0.114c-0.801,0-1.372-0.229-1.944-0.8c-0.343-0.457-0.572-1.372-0.572-2.745
	c0-0.572,0-1.029,0-1.601c0-1.715,0.114-4.231,0.457-7.662c0.114-0.915,0.114-1.715,0.114-2.173c0-0.229,0-0.457,0.114-0.686
	c0.114-0.343,0.686-0.686,1.715-0.915c0.343-0.114,0.686-0.114,1.029-0.114c0.229,0,0.457,0,0.801,0.114
	c0.343,0,0.686,0.229,1.029,0.686c0.114,0.114,0.114,0.114,0.114,0.229v0.114c-0.114,0.572-0.343,1.601-0.457,2.973
	s-0.229,2.973-0.343,4.574c-0.114,1.144-0.114,2.287-0.114,3.202c0,0.343,0,1.029,0,1.83s0.114,1.258,0.343,1.487
	c0.114,0.114,0.114,0.114,0.114,0.229s-0.114,0.229-0.229,0.343C59.346,87.764,58.659,87.992,57.859,88.107z M58.202,69.466h-0.229
	c-0.801-0.229-1.258-0.801-1.372-1.83v-0.229c0-0.686,0.114-1.258,0.457-1.83c0.229-0.343,0.457-0.572,0.801-0.686
	c0.229-0.114,0.457-0.114,0.686-0.114c0.572,0,0.915,0.229,1.258,0.686c0.229,0.343,0.343,0.686,0.343,1.144v0.229
	c0,0.457-0.114,1.029-0.343,1.372C59.46,69.009,58.888,69.466,58.202,69.466z"/>
<path fill="#F99F21" d="M64.606,88.45c-0.457,0-0.801-0.114-1.144-0.343c-0.343-0.229-0.572-0.572-0.686-1.144
	c-0.229-1.029-0.229-2.402-0.229-4.003c0-1.83,0.114-3.774,0.229-5.718c0.114-1.944,0.343-3.316,0.572-4.231
	c0.114-0.343,0.457-0.686,0.915-0.915c0.572-0.229,1.029-0.343,1.715-0.343c0.343,0,0.801,0,1.144,0.114s0.572,0.229,0.8,0.457
	c0.114,0.114,0.229,0.229,0.229,0.457c0,0.114,0,0.343-0.114,0.572s-0.114,0.457-0.114,0.572c0.229-0.343,0.572-0.572,0.801-0.801
	c0.343-0.343,0.686-0.572,1.144-0.686c0.343-0.229,0.801-0.229,1.258-0.229c0.114,0,0.229,0,0.457,0
	c0.572,0.114,1.144,0.343,1.601,0.915c0.572,0.686,0.915,1.372,1.144,2.173c0,0,0,0.114,0.114,0.114c0,0,0,0.114,0.114,0.114
	c0.114-0.114,0.229-0.229,0.343-0.343c0.229-0.229,0.343-0.457,0.457-0.686c0,0,0,0,0.114-0.114s0.229-0.343,0.343-0.457
	c0.343-0.343,0.686-0.572,0.915-0.915c0.343-0.229,0.686-0.457,1.144-0.686s0.915-0.343,1.372-0.343c0.229,0,0.457,0,0.572,0.114
	c0.457,0.114,0.915,0.457,1.372,0.801c0.343,0.229,0.572,0.572,0.686,0.915c0.229,0.343,0.343,0.686,0.457,1.029
	c0.343,1.029,0.457,1.944,0.572,2.973c0,0.686,0.114,1.258,0.114,1.944v0.572v0.229c0,0.915,0,1.83-0.114,2.63
	c0,0.229,0,0.686-0.114,1.144c0,0.572,0,1.144-0.114,1.715c0,0.572-0.114,0.915-0.114,1.144c-0.114,0.343-0.343,0.457-0.686,0.686
	c-0.343,0.114-0.686,0.229-1.029,0.229c-0.114,0-0.343,0-0.457,0c-0.343-0.114-0.572-0.343-0.801-0.572
	c-0.229-0.343-0.343-0.572-0.343-0.915v-0.457c0-0.686,0-1.372,0.114-2.173c0-0.801,0.114-1.487,0.114-2.287
	c0-0.229,0-0.457,0-0.686c0-0.686,0.114-1.372,0.114-1.944c0-1.144-0.114-2.058-0.229-2.516c-0.114-0.457-0.343-0.801-0.572-0.801
	h-0.114c-0.343,0-0.572,0.229-0.915,0.686s-0.686,1.029-0.915,1.83c-0.343,0.686-0.572,1.487-0.686,2.173
	c-0.229,0.801-0.343,1.372-0.343,1.944c-0.114,1.372-0.114,2.859-0.114,4.231c0,0.229,0,0.457-0.114,0.686s-0.229,0.457-0.343,0.572
	c-0.114,0.114-0.343,0.229-0.686,0.343c-0.229,0.114-0.572,0.114-0.801,0.114c-0.457,0-0.915-0.114-1.144-0.229
	c-0.114-0.114-0.343-0.229-0.343-0.343c-0.114-0.114-0.229-0.343-0.229-0.572c-0.114-0.457-0.114-1.029-0.114-1.83
	c0-0.915,0-1.944,0.114-2.859c0-0.343,0-0.686,0.114-0.915c0-0.572,0-1.029,0-1.487c0-1.487-0.114-2.516-0.343-3.202
	c-0.229-0.686-0.572-1.029-0.915-1.029c-0.457,0-1.029,0.572-1.601,1.601c-0.572,1.029-1.029,2.516-1.487,4.346
	c-0.114,0.572-0.229,1.144-0.229,1.715s0,1.144,0,1.601v1.372v0.686c0,0.229,0,0.343-0.114,0.572
	c-0.114,0.114-0.229,0.229-0.457,0.343C65.75,88.335,65.064,88.45,64.606,88.45z"/>
<path fill="#F99F21" d="M94.682,88.793c-0.686,0-1.258-0.229-1.715-0.801c-0.457-0.572-0.801-1.258-0.915-2.287l0,0l0,0l0,0l0,0l0,0
	l0,0c-0.229,0.343-0.572,0.686-0.915,1.029s-0.801,0.686-1.258,0.801c-0.457,0.229-0.915,0.343-1.372,0.343h-0.343
	c-0.686-0.114-1.372-0.343-1.83-0.801c-0.457-0.457-0.915-1.029-1.144-1.715c-0.457-0.915-0.686-1.944-0.686-2.973v-0.801
	c0-1.372,0.229-2.745,0.572-4.003s0.915-2.516,1.601-3.659c0.343-0.572,0.686-1.029,1.144-1.487s0.915-0.686,1.601-0.915
	c0.457-0.114,0.8-0.229,1.258-0.229c0.915,0,1.83,0.457,2.516,1.258c0.114,0.114,0.229,0.229,0.343,0.229
	c0.114,0,0.114,0,0.229-0.114c0.343-0.229,0.8-0.229,1.372-0.229c0.457,0,0.915,0.114,1.372,0.229
	c0.457,0.114,0.801,0.343,1.029,0.572c0.114,0.114,0.114,0.229,0.114,0.343c0,0.114,0,0.343-0.114,0.457
	c-0.229,0.915-0.457,2.173-0.686,3.888c-0.114,1.715-0.229,3.431-0.229,5.032s0.114,2.859,0.229,3.774
	c0,0.114,0.114,0.229,0.229,0.343c0.114,0.114,0.229,0.229,0.229,0.457c0,0.114-0.114,0.343-0.229,0.457
	C96.055,88.45,95.254,88.793,94.682,88.793z M88.278,84.79c0.114,0,0.343-0.114,0.457-0.229c0.343-0.229,0.572-0.457,0.801-0.801
	c0.686-0.915,1.144-1.944,1.487-3.088c0.229-1.029,0.457-2.173,0.457-3.316v-0.229v-0.343c0-0.343-0.114-0.801-0.229-1.144
	s-0.229-0.686-0.457-1.029c-0.114-0.229-0.343-0.343-0.572-0.343c-0.114,0-0.229,0-0.457,0.114
	c-0.457,0.343-0.801,0.686-1.144,1.144c-1.029,1.715-1.601,3.659-1.601,5.604c0,0.457,0,0.801,0.114,1.258
	c0,0.572,0.229,1.144,0.572,1.715C87.935,84.676,88.05,84.79,88.278,84.79z"/>
<path fill="#F99F21" d="M104.746,100.457c-0.686,0-1.372-0.229-2.058-0.686c-0.572-0.457-0.915-1.144-0.915-1.944
	c0-0.572,0.229-1.144,0.572-1.487c0.457-0.457,0.915-0.686,1.487-0.686c0.343,0,0.686,0,0.915,0.114
	c0.343,0.114,0.572,0.229,0.801,0.457c0,0.114,0.114,0.114,0.114,0.114s0.114,0,0.114-0.114c0.457-0.686,0.686-1.944,0.801-3.774
	c0-0.686,0-1.372,0-1.944v-0.457v-1.372v-3.545c-0.114,0.114-0.114,0.229-0.229,0.343c-0.572,0.801-1.258,1.372-1.83,1.83
	c-0.686,0.457-1.487,0.801-2.287,0.801c-1.144,0-1.944-0.457-2.63-1.487c-0.686-1.029-1.029-2.173-1.144-3.431
	c0-0.343,0-0.572,0-0.915c0-3.088,0.915-5.832,2.745-8.234c0.801-1.144,1.83-1.83,3.088-2.173c0.229-0.114,0.572-0.114,0.801-0.114
	c0.686,0,1.258,0.229,1.83,0.686c0.114,0.114,0.114,0.114,0.229,0.114c0.114,0,0.114,0,0.229-0.114
	c0.457-0.229,0.915-0.457,1.258-0.457c0.457,0,0.915,0.114,1.258,0.343c0.343,0.229,0.572,0.801,0.686,1.715
	c0.229,2.058,0.343,4.574,0.343,7.433c0,1.944,0,3.888-0.114,5.832c0,1.601-0.114,3.202-0.114,4.689c0,0.572,0,1.144,0,1.715
	c-0.114,1.029-0.343,2.058-0.686,2.973c-0.343,1.029-1.029,1.83-1.83,2.516c-0.686,0.572-1.487,1.029-2.287,1.258
	C105.546,100.457,105.203,100.457,104.746,100.457z M102.344,84.79c0.343,0,0.801-0.229,1.258-0.801
	c1.372-1.715,2.173-3.888,2.287-6.404v-0.343c0-0.343,0-0.686-0.114-1.029c0-0.343-0.114-0.686-0.343-0.915
	c-0.229-0.343-0.457-0.457-0.686-0.457c-0.457,0-1.029,0.343-1.487,1.144c-1.372,1.83-2.058,4.003-2.058,6.29
	c0,0.915,0.114,1.487,0.343,1.944C101.773,84.562,102.116,84.79,102.344,84.79z"/>
<path fill="#F99F21" d="M115.839,88.107h-0.114c-0.801,0-1.372-0.229-1.944-0.8c-0.343-0.457-0.572-1.372-0.572-2.745
	c0-0.572,0-1.029,0-1.601c0-1.715,0.114-4.231,0.457-7.662c0.114-0.915,0.114-1.715,0.114-2.173c0-0.229,0-0.457,0.114-0.686
	c0.114-0.343,0.686-0.686,1.715-0.915c0.343-0.114,0.686-0.114,1.029-0.114c0.229,0,0.457,0,0.801,0.114
	c0.343,0,0.686,0.229,1.029,0.686c0.114,0.114,0.114,0.114,0.114,0.229v0.114c-0.114,0.572-0.343,1.601-0.457,2.973
	s-0.229,2.973-0.343,4.574c-0.114,1.144-0.114,2.287-0.114,3.202c0,0.343,0,1.029,0,1.83s0.114,1.258,0.343,1.487
	c0.114,0.114,0.114,0.114,0.114,0.229s-0.114,0.229-0.229,0.343C117.325,87.764,116.639,87.992,115.839,88.107z M116.182,69.466
	h-0.229c-0.801-0.229-1.258-0.801-1.372-1.83v-0.229c0-0.686,0.114-1.258,0.457-1.83c0.229-0.343,0.457-0.572,0.801-0.686
	c0.229-0.114,0.457-0.114,0.686-0.114c0.572,0,0.915,0.229,1.258,0.686c0.229,0.343,0.343,0.686,0.343,1.144v0.229
	c0,0.457-0.114,1.029-0.343,1.372C117.44,69.009,116.868,69.466,116.182,69.466z"/>
<path fill="#F99F21" d="M122.471,88.45c-0.457,0-0.8-0.114-1.144-0.343c-0.343-0.229-0.572-0.572-0.686-1.144
	c-0.229-1.029-0.229-2.402-0.229-4.003c0-1.83,0.114-3.774,0.229-5.718c0.114-1.944,0.343-3.316,0.572-4.231
	c0.114-0.343,0.457-0.686,0.915-0.915c0.572-0.229,1.029-0.343,1.715-0.343c0.343,0,0.801,0,1.144,0.114s0.572,0.229,0.801,0.457
	c0.114,0.114,0.229,0.229,0.229,0.457c0,0.114,0,0.343-0.114,0.572s-0.114,0.457-0.114,0.572c0.229-0.343,0.572-0.572,0.8-0.801
	c0.343-0.343,0.686-0.572,1.144-0.686c0.457-0.114,0.801-0.229,1.258-0.229c0.114,0,0.229,0,0.457,0
	c0.915,0.114,1.601,0.343,2.173,0.915c0.572,0.457,1.029,1.144,1.258,1.944c0.343,0.801,0.457,1.715,0.572,2.63
	c0.114,1.029,0.114,1.944,0.114,2.973c0,0.686,0,1.372,0,2.058c0,0.686-0.114,1.258-0.114,1.83c0,0.801-0.114,1.372-0.114,1.944
	c0,0.229,0,0.457-0.114,0.686s-0.229,0.457-0.343,0.572s-0.343,0.229-0.686,0.343c-0.229,0.114-0.572,0.114-0.801,0.114
	c-0.457,0-0.915-0.114-1.144-0.229c-0.114-0.114-0.343-0.229-0.343-0.343c-0.114-0.114-0.114-0.343-0.229-0.572
	c-0.114-0.457-0.229-1.029-0.229-1.83c0-0.915,0-1.944,0.114-2.859c0-0.343,0-0.686,0.114-0.915c0-0.572,0-1.029,0-1.487
	c0-1.487-0.114-2.516-0.343-3.202s-0.572-1.029-0.915-1.029c-0.457,0-1.029,0.572-1.601,1.601s-1.144,2.516-1.487,4.346
	c-0.114,0.572-0.229,1.144-0.229,1.715c0,0.572,0,1.144,0,1.715v1.372v0.686c0,0.229,0,0.343-0.114,0.572
	c-0.114,0.114-0.229,0.229-0.457,0.343C123.615,88.335,123.043,88.45,122.471,88.45z"/>
<path fill="#F99F21" d="M139.968,88.45c-1.029,0-1.944-0.343-2.745-0.915c-0.801-0.686-1.372-1.487-1.715-2.63
	c-0.343-1.029-0.572-2.287-0.572-3.545c0-1.144,0.229-2.402,0.572-3.659c0.343-1.258,0.915-2.516,1.715-3.659
	c0.915-1.258,2.058-2.173,3.545-2.63c0.457-0.114,0.915-0.229,1.372-0.229c0.915,0,1.715,0.343,2.402,1.029s1.029,1.601,1.029,2.859
	c0,0.686-0.114,1.487-0.343,2.287s-0.572,1.487-1.029,2.058c-0.457,0.686-1.029,1.144-1.715,1.601
	c-0.686,0.343-1.372,0.572-2.287,0.572c-0.229,0-0.572,0-0.915-0.114h-0.114c-0.114,0-0.114,0.114-0.114,0.229
	c0,0.801,0.114,1.487,0.343,2.173c0.343,0.8,0.686,1.258,1.258,1.258c0.229,0,0.572-0.114,0.915-0.343
	c0.229-0.229,0.457-0.457,0.686-0.686l0,0c0.229-0.343,0.572-0.572,0.915-0.8c0.114,0,0.229,0,0.343,0
	c0.343,0,0.686,0.114,0.915,0.457s0.343,0.572,0.343,1.029v0.229c-0.114,0.915-0.572,1.601-1.487,2.287
	C142.37,87.992,141.112,88.45,139.968,88.45z M140.311,78.501c0.457,0,0.801-0.114,1.144-0.343c0.343-0.343,0.686-0.801,1.029-1.487
	c0.343-0.686,0.457-1.258,0.457-1.715c0-0.343-0.229-0.572-0.572-0.572c-0.229,0-0.457,0.114-0.572,0.229
	c-1.029,0.915-1.715,1.944-1.944,3.316c0,0.114,0,0.229,0,0.343c0,0.114,0,0.229,0.114,0.229
	C139.968,78.501,140.197,78.501,140.311,78.501z"/>
<path fill="#F99F21" d="M54.657,166.671c-0.801,0-1.601-0.229-2.402-0.801c-0.686-0.572-1.029-1.258-1.029-2.058
	c0-0.686,0.229-1.144,0.686-1.601c0.572-0.457,1.144-0.686,1.715-0.686c0.343,0,0.801,0,1.144,0.114
	c0.343,0.114,0.686,0.229,0.915,0.572c0,0.114,0.114,0.114,0.114,0.114s0.114,0,0.114-0.114c0.457-0.801,0.801-2.173,0.915-4.117
	c0-0.686,0-1.487,0-2.173v-0.572v-1.487v-3.888c-0.114,0.114-0.229,0.229-0.229,0.343c-0.686,0.915-1.372,1.487-2.058,1.944
	c-0.801,0.572-1.715,0.801-2.745,0.801c-1.258,0-2.287-0.572-3.088-1.715c-0.801-1.144-1.258-2.287-1.258-3.659
	c0-0.343,0-0.686,0-0.915c0-3.316,1.029-6.29,3.202-8.92c1.029-1.258,2.173-2.058,3.545-2.402c0.343-0.114,0.686-0.114,1.029-0.114
	c0.801,0,1.487,0.229,2.173,0.686c0.114,0.114,0.229,0.114,0.229,0.114c0.114,0,0.114,0,0.229-0.114
	c0.457-0.343,1.029-0.457,1.487-0.457c0.457,0,1.029,0.114,1.487,0.343s0.686,0.915,0.801,1.83c0.229,2.173,0.343,4.917,0.343,8.119
	c0,2.173,0,4.231-0.114,6.29c0,1.715-0.114,3.431-0.114,5.032c0,0.572,0,1.258-0.114,1.83c-0.114,1.144-0.343,2.173-0.686,3.316
	c-0.457,1.144-1.144,2.058-2.173,2.745c-0.801,0.686-1.715,1.144-2.63,1.372C55.457,166.671,55.114,166.671,54.657,166.671z
	 M51.798,149.746c0.343,0,0.915-0.343,1.487-0.915c1.601-1.83,2.516-4.117,2.745-6.862v-0.343c0-0.343,0-0.801-0.114-1.144
	c0-0.343-0.114-0.686-0.343-1.029c-0.229-0.343-0.457-0.572-0.801-0.572c-0.572,0-1.144,0.457-1.83,1.258
	c-1.601,2.058-2.287,4.346-2.287,6.861c0,0.915,0.114,1.601,0.343,2.058C51.226,149.517,51.455,149.746,51.798,149.746z"/>
<path fill="#F99F21" d="M67.694,153.977c-0.343,0-0.686-0.114-1.144-0.229c-0.343-0.114-0.686-0.343-1.144-0.686
	c-0.343-0.343-0.572-1.144-0.686-2.173c-0.114-1.144-0.229-2.402-0.229-3.774c0-1.487,0-2.973,0.114-4.574
	c0.114-1.487,0.114-2.859,0.229-3.888c0-0.572,0.114-1.029,0.114-1.372c0-0.457,0.343-0.801,1.029-1.029
	c0.572-0.229,1.258-0.343,2.058-0.343c0.457,0,0.915,0.114,1.372,0.229c0.457,0.114,0.801,0.343,1.029,0.572
	c0.114,0.114,0.114,0.114,0.114,0.229v0.114c0,0.114-0.114,0.343-0.114,0.457c-0.114,0.229-0.114,0.457-0.114,0.801v0.114
	c0.457-0.686,0.801-1.144,1.258-1.715c0.572-0.572,1.144-1.144,1.715-1.601c0.686-0.457,1.372-0.801,2.173-0.915
	c0.343-0.114,0.686-0.114,1.029-0.114c1.029,0,1.944,0.343,2.745,1.144c0.572,0.457,0.915,1.144,1.258,1.83
	c0.229,0.572,0.457,1.144,0.457,1.83c0.114,0.572,0.114,1.144,0.114,1.83c0,0.572,0,1.258-0.114,1.83
	c0,0.343-0.114,0.572-0.229,0.915s-0.343,0.572-0.686,0.801c-0.343,0.229-0.686,0.343-1.029,0.343c-0.229,0-0.457,0-0.686-0.114
	c-0.8-0.343-1.258-0.915-1.258-1.715v-0.229c0.114-0.572,0.114-1.029,0.114-1.601c0-0.686-0.114-1.487-0.229-2.173
	c-0.114-0.229-0.114-0.457-0.229-0.686c-0.114-0.114-0.229-0.229-0.343-0.229c-0.114,0-0.114,0-0.229,0.114
	c-0.343,0.114-0.686,0.343-0.915,0.572c-0.686,0.686-1.372,1.372-1.944,2.287c-0.686,1.029-1.258,2.058-1.715,3.202
	c-0.457,0.915-0.801,1.944-1.029,2.973c-0.114,0.457-0.229,1.144-0.457,2.173s-0.229,1.944-0.229,2.63c0,0.457,0,0.686,0.114,0.915
	c0.114,0.114,0.114,0.114,0.114,0.229c0,0.229-0.114,0.457-0.343,0.686c-0.229,0.229-0.572,0.457-1.029,0.686
	C68.609,153.863,68.151,153.977,67.694,153.977z"/>
<path fill="#F99F21" d="M88.05,153.634c-1.258,0-2.287-0.343-3.088-1.029c-0.915-0.686-1.487-1.601-1.944-2.745
	c-0.457-1.144-0.686-2.402-0.686-3.888c0-1.258,0.229-2.63,0.686-4.003c0.457-1.372,1.144-2.63,1.944-3.888
	c1.029-1.372,2.402-2.287,4.117-2.859c0.572-0.114,1.144-0.229,1.601-0.229c1.029,0,1.944,0.343,2.859,1.029
	c0.801,0.686,1.258,1.715,1.258,3.202c0,0.801-0.114,1.601-0.457,2.402c-0.229,0.8-0.686,1.601-1.258,2.287
	s-1.144,1.258-1.944,1.715c-0.8,0.457-1.601,0.686-2.63,0.686c-0.343,0-0.686,0-1.029-0.114h-0.114
	c-0.114,0-0.114,0.114-0.114,0.229c0,0.801,0.114,1.601,0.457,2.402c0.343,0.915,0.801,1.372,1.487,1.372
	c0.343,0,0.686-0.114,1.029-0.343c0.229-0.229,0.572-0.457,0.686-0.686v-0.114c0.343-0.343,0.686-0.686,1.144-0.801
	c0.114,0,0.229,0,0.343,0c0.457,0,0.801,0.114,1.144,0.457c0.343,0.343,0.457,0.686,0.457,1.144v0.229
	c-0.114,1.029-0.686,1.83-1.715,2.402C90.794,153.177,89.307,153.634,88.05,153.634z M88.393,142.884
	c0.457,0,0.915-0.114,1.258-0.457c0.457-0.343,0.8-0.801,1.144-1.601c0.343-0.801,0.572-1.372,0.572-1.944
	c0-0.457-0.229-0.686-0.572-0.686c-0.229,0-0.457,0.114-0.686,0.343c-1.144,0.915-1.944,2.173-2.173,3.659
	c0,0.114-0.114,0.229-0.114,0.343s0,0.229,0.114,0.229C88.05,142.884,88.164,142.884,88.393,142.884z"/>
<path fill="#F99F21" d="M107.605,154.091c-0.801,0-1.372-0.343-1.944-0.915s-0.915-1.372-1.029-2.402l0,0l0,0l0,0c0,0,0,0-0.114,0
	l0,0l0,0c-0.343,0.457-0.686,0.801-1.144,1.144s-0.915,0.686-1.372,0.915c-0.457,0.229-1.029,0.343-1.601,0.343h-0.457
	c-0.8-0.114-1.601-0.343-2.058-0.915s-1.029-1.144-1.372-1.83c-0.457-1.029-0.686-2.173-0.801-3.316v-0.801
	c0-1.487,0.229-2.973,0.572-4.346s1.029-2.745,1.944-4.003c0.343-0.572,0.801-1.144,1.372-1.601c0.572-0.457,1.144-0.8,1.83-1.029
	c0.457-0.114,0.915-0.229,1.372-0.229c1.144,0,2.058,0.457,2.973,1.372c0.114,0.114,0.229,0.229,0.343,0.229
	c0.114,0,0.114,0,0.229-0.114c0.457-0.229,0.915-0.343,1.601-0.343c0.572,0,1.029,0.114,1.601,0.229
	c0.572,0.114,0.915,0.343,1.258,0.572c0.114,0.114,0.229,0.229,0.229,0.457c0,0.114,0,0.343-0.114,0.457
	c-0.343,0.915-0.572,2.287-0.801,4.231c-0.229,1.83-0.229,3.659-0.229,5.375c0,1.715,0.114,3.088,0.343,4.117
	c0,0.114,0.114,0.229,0.229,0.343s0.229,0.343,0.229,0.457c0,0.229-0.114,0.343-0.343,0.457
	C109.206,153.748,108.405,154.091,107.605,154.091z M100.286,149.746c0.114,0,0.343-0.114,0.572-0.229
	c0.343-0.229,0.686-0.457,0.915-0.801c0.801-1.029,1.372-2.173,1.715-3.316s0.457-2.402,0.457-3.545v-0.229v-0.343
	c0-0.457-0.114-0.8-0.229-1.144s-0.229-0.686-0.457-1.029c-0.229-0.229-0.343-0.343-0.572-0.343c-0.114,0-0.343,0-0.457,0.114
	c-0.572,0.343-0.915,0.686-1.258,1.258c-1.258,1.944-1.83,3.888-1.83,6.175c0,0.457,0,0.915,0.114,1.372
	c0,0.686,0.229,1.258,0.572,1.83C99.828,149.517,100.057,149.746,100.286,149.746z"/>
<path fill="#F99F21" d="M116.296,154.091c-0.343,0-0.686-0.114-0.915-0.229c-0.343-0.114-0.572-0.343-0.686-0.801
	c-0.229-0.343-0.343-0.801-0.343-1.372c-0.114-2.745-0.229-5.489-0.229-8.348c0-1.83,0-3.774,0.114-5.947
	c0-0.229-0.114-0.343-0.229-0.343h-0.114c-0.343,0-0.915,0-1.487,0c-0.572,0-0.915-0.229-1.258-0.457
	c-0.343-0.343-0.457-0.686-0.457-1.144c0-0.114,0-0.343,0.114-0.457c0.229-0.686,0.686-1.029,1.258-1.144
	c0.343-0.114,0.686-0.114,1.029-0.114h0.801c0.229,0,0.343,0,0.457-0.114c0.114-0.114,0.114-0.229,0.114-0.457
	c0-0.686,0.114-1.258,0.114-1.944c0.114-0.686,0.114-1.487,0.114-2.402c0-0.457,0.229-0.915,0.572-1.258s0.915-0.686,1.487-0.915
	c0.572-0.229,1.144-0.343,1.715-0.343c0.457,0,0.801,0.114,1.144,0.343c0.343,0.229,0.457,0.572,0.457,1.029v0.229
	c0,0.229-0.114,0.686-0.114,1.372c-0.114,0.686-0.114,1.487-0.229,2.287c-0.114,0.8-0.114,1.372-0.114,1.715
	c0,0.114,0,0.229,0,0.229c0.114,0,0.114,0.114,0.229,0.114s0.229,0,0.343,0c0.114,0,0.343,0,0.801,0l0,0h1.144
	c0.457,0,0.915,0.229,1.144,0.457c0.343,0.343,0.457,0.686,0.457,1.144c0,0.457-0.114,0.801-0.457,1.144s-0.686,0.457-1.144,0.572
	c-0.457,0-1.144,0.114-1.944,0.114c-0.572,0-0.801,0-0.915,0.114c-0.114,0-0.114,0.114-0.114,0.229v0.457
	c-0.114,0.801-0.114,1.944-0.229,3.659c-0.114,1.601-0.114,3.316-0.114,4.917c0,3.088,0.114,4.803,0.343,5.032
	c0.229,0.114,0.343,0.343,0.343,0.572c0,0.457-0.343,0.915-1.144,1.487C117.783,153.748,117.097,154.091,116.296,154.091z"/>
<path fill="#F99F21" d="M127.389,153.634c-1.258,0-2.287-0.343-3.088-1.029c-0.915-0.686-1.487-1.601-1.944-2.745
	c-0.457-1.144-0.686-2.402-0.686-3.888c0-1.258,0.229-2.63,0.686-4.003c0.457-1.372,1.144-2.63,1.944-3.888
	c1.029-1.372,2.402-2.287,4.117-2.859c0.572-0.114,1.144-0.229,1.601-0.229c1.029,0,1.944,0.343,2.859,1.029
	c0.801,0.686,1.258,1.715,1.258,3.202c0,0.801-0.114,1.601-0.457,2.402c-0.229,0.8-0.686,1.601-1.258,2.287
	s-1.144,1.258-1.944,1.715c-0.8,0.457-1.601,0.686-2.63,0.686c-0.343,0-0.686,0-1.029-0.114h-0.114
	c-0.114,0-0.114,0.114-0.114,0.229c0,0.801,0.114,1.601,0.457,2.402c0.343,0.915,0.8,1.372,1.487,1.372
	c0.343,0,0.686-0.114,1.029-0.343c0.229-0.229,0.572-0.457,0.686-0.686v-0.114c0.343-0.343,0.686-0.686,1.144-0.801
	c0.114,0,0.229,0,0.343,0c0.457,0,0.801,0.114,1.144,0.457c0.343,0.343,0.457,0.686,0.457,1.144v0.229
	c-0.114,1.029-0.686,1.83-1.715,2.402C130.133,153.177,128.761,153.634,127.389,153.634z M127.846,142.884
	c0.457,0,0.915-0.114,1.258-0.457c0.457-0.343,0.8-0.801,1.144-1.601c0.343-0.801,0.572-1.372,0.572-1.944
	c0-0.457-0.229-0.686-0.572-0.686c-0.229,0-0.457,0.114-0.686,0.343c-1.144,0.915-1.944,2.173-2.173,3.659
	c0,0.114-0.114,0.229-0.114,0.343s0,0.229,0.114,0.229C127.503,142.884,127.618,142.884,127.846,142.884z"/>
<path fill="#F99F21" d="M138.939,153.977c-0.343,0-0.686-0.114-1.144-0.229c-0.343-0.114-0.686-0.343-1.144-0.686
	c-0.343-0.343-0.572-1.144-0.686-2.173c-0.114-1.144-0.229-2.402-0.229-3.774c0-1.487,0-2.973,0.114-4.574
	c0.114-1.487,0.114-2.859,0.229-3.888c0-0.572,0.114-1.029,0.114-1.372c0-0.457,0.343-0.801,1.029-1.029
	c0.572-0.229,1.258-0.343,2.058-0.343c0.457,0,0.915,0.114,1.372,0.229c0.457,0.114,0.801,0.343,1.029,0.572
	c0.114,0.114,0.114,0.114,0.114,0.229v0.114c0,0.114-0.114,0.343-0.114,0.457c-0.114,0.229-0.114,0.457-0.114,0.801v0.114
	c0.457-0.686,0.801-1.144,1.258-1.715c0.572-0.572,1.144-1.144,1.715-1.601c0.686-0.457,1.372-0.801,2.173-0.915
	c0.343-0.114,0.686-0.114,1.029-0.114c1.029,0,1.944,0.343,2.745,1.144c0.572,0.457,0.915,1.144,1.258,1.83
	c0.229,0.572,0.457,1.144,0.457,1.83c0.114,0.572,0.114,1.144,0.114,1.83c0,0.572,0,1.258-0.114,1.83
	c0,0.343-0.114,0.572-0.229,0.915c-0.114,0.343-0.343,0.572-0.686,0.801s-0.686,0.343-1.029,0.343c-0.229,0-0.457,0-0.686-0.114
	c-0.801-0.343-1.258-0.915-1.258-1.715v-0.229c0.114-0.572,0.114-1.029,0.114-1.601c0-0.686-0.114-1.487-0.229-2.173
	c-0.114-0.229-0.114-0.457-0.229-0.686c-0.114-0.114-0.229-0.229-0.343-0.229s-0.114,0-0.229,0.114
	c-0.343,0.114-0.686,0.343-0.915,0.572c-0.686,0.686-1.372,1.372-1.944,2.287c-0.686,1.029-1.258,2.058-1.715,3.202
	c-0.457,0.915-0.801,1.944-1.029,2.973c-0.114,0.457-0.229,1.144-0.457,2.173s-0.229,1.944-0.229,2.63c0,0.457,0,0.686,0.114,0.915
	c0.114,0.114,0.114,0.114,0.114,0.229c0,0.229-0.114,0.457-0.343,0.686c-0.229,0.229-0.572,0.457-1.029,0.686
	C139.854,153.863,139.396,153.977,138.939,153.977z"/>
<path fill="#F99F21" d="M72.84,166.671c-0.114,0-0.229,0-0.457-0.114c-0.114-0.114-0.229-0.229-0.343-0.343
	c-0.114-0.114-0.114-0.343-0.114-0.572c-0.114-1.144-0.114-2.402-0.114-3.659c0-0.801,0-1.601,0-2.516c0-0.114,0-0.114-0.114-0.114
	l0,0c-0.114,0-0.343,0-0.686,0c-0.229,0-0.457-0.114-0.572-0.229c-0.114-0.114-0.229-0.343-0.229-0.457c0-0.114,0-0.114,0-0.229
	c0.114-0.229,0.229-0.457,0.572-0.457c0.114,0,0.343,0,0.457,0h0.343c0.114,0,0.114,0,0.229,0c0,0,0.114-0.114,0.114-0.229
	c0-0.229,0-0.572,0-0.801c0-0.343,0-0.686,0-1.029c0-0.229,0.114-0.343,0.229-0.572c0.229-0.114,0.343-0.343,0.686-0.343
	c0.229-0.114,0.457-0.114,0.686-0.114s0.343,0,0.457,0.114s0.229,0.229,0.229,0.457v0.114c0,0.114,0,0.229-0.114,0.572
	c0,0.343-0.114,0.686-0.114,1.029c0,0.343,0,0.572,0,0.801c0,0.114,0,0.114,0,0.114h0.114h0.114c0,0,0.114,0,0.343,0l0,0h0.457
	c0.229,0,0.343,0.114,0.457,0.229c0.114,0.114,0.229,0.343,0.229,0.457c0,0.229-0.114,0.343-0.229,0.457
	c-0.114,0.114-0.343,0.229-0.457,0.229s-0.457,0-0.801,0c-0.229,0-0.343,0-0.343,0s0,0,0,0.114v0.229
	c0,0.343-0.114,0.915-0.114,1.601c0,0.686,0,1.372,0,2.173c0,1.372,0,2.058,0.114,2.173c0.114,0.114,0.114,0.114,0.114,0.229
	c0,0.229-0.114,0.457-0.457,0.686C73.526,166.557,73.183,166.671,72.84,166.671z"/>
<path fill="#F99F21" d="M77.529,166.671c0,0-0.114,0-0.229,0s-0.343-0.229-0.457-0.572c-0.114-0.457-0.229-1.029-0.229-1.944
	c0-0.572,0-1.029,0-1.715c0-1.144,0-2.516,0.114-4.231c0-1.029,0.114-1.83,0.114-2.402c0-0.229,0-0.343,0.114-0.457
	c0.229-0.229,0.457-0.343,0.915-0.457c0.343-0.114,0.686-0.114,0.686-0.114c0.114,0,0.229,0,0.343,0.114
	c0.114,0.114,0.114,0.229,0.114,0.457v0.114v1.144c0,1.029,0,2.058-0.114,2.973c0,0,0.114-0.114,0.343-0.229
	c0.457-0.343,1.029-0.572,1.601-0.572c0.229,0,0.457,0.114,0.915,0.229c0.457,0.114,0.8,0.457,1.258,1.144
	c0.114,0.229,0.229,0.457,0.343,0.8c0.114,0.343,0.229,0.801,0.229,1.487c0,0.572,0.114,1.258,0.114,1.83c0,0.114,0,0.343,0,0.686
	s0,0.801-0.114,1.144c-0.114,0.229-0.229,0.343-0.572,0.457c-0.114,0-0.229,0.114-0.343,0.114c-0.229,0-0.457-0.114-0.572-0.229
	c-0.114-0.114-0.229-0.343-0.343-0.457c0-0.114,0-0.343,0-0.457v-0.343c0-0.229,0-0.572,0-0.801c0-0.343,0-0.686,0-1.029
	c0-0.114,0-0.229,0-0.572c0-0.229,0-0.572-0.114-0.915c-0.114-0.457-0.343-0.801-0.572-0.915c-0.114,0-0.114,0-0.229,0
	s-0.343,0.114-0.572,0.229c-0.229,0.114-0.457,0.343-0.686,0.686s-0.343,0.572-0.572,0.915c0,0.229,0,0.572,0,0.915
	c0,0.572,0,1.029,0,1.372s0,0.572,0,0.572l0.114,0.114c0,0.114,0,0.229-0.114,0.457s-0.343,0.343-0.572,0.572
	C78.1,166.557,77.872,166.671,77.529,166.671z"/>
<path fill="#F99F21" d="M89.765,166.671c-0.343,0-0.572-0.114-0.801-0.343s-0.343-0.572-0.457-1.029l0,0l0,0l0,0l0,0l0,0l0,0
	c-0.114,0.229-0.343,0.343-0.457,0.457c-0.229,0.114-0.343,0.343-0.572,0.343c-0.229,0.114-0.457,0.114-0.686,0.114h-0.229
	c-0.343,0-0.686-0.114-0.915-0.343c-0.229-0.229-0.457-0.457-0.572-0.801c-0.229-0.457-0.343-0.915-0.343-1.372v-0.343
	c0-0.686,0.114-1.258,0.229-1.83c0.229-0.572,0.457-1.144,0.8-1.715c0.229-0.229,0.343-0.457,0.572-0.686
	c0.229-0.229,0.457-0.343,0.801-0.457c0.229-0.114,0.457-0.114,0.572-0.114c0.457,0,0.915,0.229,1.258,0.572
	c0,0.114,0.114,0.114,0.114,0.114h0.114c0.229-0.114,0.457-0.114,0.686-0.114s0.457,0,0.686,0.114s0.457,0.114,0.572,0.229
	c0,0.114,0.114,0.114,0.114,0.229c0,0.114,0,0.114,0,0.229c-0.114,0.457-0.229,1.029-0.343,1.83
	c-0.114,0.801-0.114,1.601-0.114,2.402c0,0.801,0,1.372,0.114,1.715c0,0.114,0,0.114,0.114,0.114
	c0.114,0.114,0.114,0.114,0.114,0.229c0,0.114,0,0.114-0.114,0.229C90.451,166.557,90.108,166.671,89.765,166.671z M86.563,164.727
	c0.114,0,0.114,0,0.229-0.114s0.343-0.229,0.457-0.343c0.343-0.457,0.572-0.915,0.686-1.372s0.229-1.029,0.229-1.601v-0.114v-0.114
	c0-0.229,0-0.343-0.114-0.572c0-0.114-0.114-0.343-0.229-0.457c-0.114-0.114-0.114-0.114-0.229-0.114s-0.114,0-0.229,0.114
	c-0.229,0.114-0.457,0.343-0.572,0.572c-0.572,0.801-0.8,1.715-0.8,2.63c0,0.229,0,0.343,0,0.572s0.114,0.572,0.229,0.801
	C86.334,164.727,86.449,164.727,86.563,164.727z"/>
<path fill="#F99F21" d="M92.967,166.557c-0.229,0-0.457,0-0.572-0.114c-0.114-0.114-0.229-0.343-0.343-0.572
	c-0.114-0.457-0.114-1.144-0.114-1.944c0-0.915,0-1.715,0.114-2.63s0.229-1.601,0.229-2.058c0.114-0.229,0.229-0.343,0.457-0.457
	c0.229-0.114,0.572-0.114,0.801-0.114c0.229,0,0.343,0,0.572,0.114c0.229,0,0.343,0.114,0.457,0.229
	c0.114,0.114,0.114,0.114,0.114,0.229c0,0.114,0,0.114-0.114,0.229c0,0.114-0.114,0.229-0.114,0.229
	c0.114-0.114,0.229-0.229,0.457-0.343c0.229-0.114,0.343-0.229,0.572-0.343s0.457-0.114,0.572-0.114s0.114,0,0.229,0
	c0.457,0,0.801,0.229,1.029,0.457c0.229,0.229,0.457,0.572,0.686,0.915c0.114,0.343,0.229,0.801,0.343,1.258
	c0,0.457,0.114,0.915,0.114,1.372c0,0.343,0,0.686,0,0.915c0,0.343,0,0.572-0.114,0.915c0,0.343,0,0.686,0,0.915
	c0,0.114,0,0.229,0,0.343c0,0.114-0.114,0.229-0.229,0.229c-0.114,0.114-0.229,0.114-0.343,0.114c-0.114,0-0.229,0-0.457,0
	c-0.229,0-0.457,0-0.572-0.114c-0.114,0-0.114-0.114-0.229-0.229c0-0.114-0.114-0.114-0.114-0.229
	c-0.114-0.229-0.114-0.457-0.114-0.801c0-0.457,0-0.915,0.114-1.372c0-0.114,0-0.343,0-0.457c0-0.229,0-0.457,0-0.686
	c0-0.686-0.114-1.144-0.229-1.487s-0.229-0.457-0.457-0.457c-0.229,0-0.572,0.229-0.8,0.801c-0.229,0.572-0.572,1.144-0.801,2.058
	c-0.114,0.229-0.114,0.572-0.114,0.801s0,0.572,0,0.801v0.572v0.343c0,0.114,0,0.229,0,0.229c0,0.114-0.114,0.114-0.229,0.114
	C93.539,166.442,93.196,166.557,92.967,166.557z"/>
<path fill="#EE3C6F" d="M52.484,189.771h-4.003v-17.039h3.888l1.601,3.545l1.601-3.545h3.888v17.039h-4.003v-8.463l-1.487,3.316
	l-1.487-3.316C52.484,181.309,52.484,189.771,52.484,189.771z"/>
<path fill="#EE3C6F" d="M65.635,172.503c1.144,0,2.173,0.801,3.088,2.516c0.915,1.715,1.372,3.774,1.372,6.061
	c0,2.63-0.457,4.803-1.258,6.404c-0.915,1.601-1.944,2.516-3.431,2.516c-1.144,0-2.173-0.801-3.088-2.402
	c-0.915-1.601-1.372-3.888-1.372-6.747c0-1.372,0.229-2.745,0.572-4.003c0.343-1.258,0.915-2.402,1.601-3.202
	C63.806,172.846,64.72,172.503,65.635,172.503z M65.521,179.022c-0.229,0-0.457,0.114-0.686,0.457
	c-0.229,0.343-0.229,0.801-0.229,1.258c0,0.572,0.114,0.915,0.229,1.258c0.229,0.343,0.343,0.457,0.686,0.457
	c0.229,0,0.457-0.114,0.686-0.457c0.229-0.343,0.229-0.801,0.229-1.258c0-0.457-0.114-0.915-0.229-1.258
	C65.978,179.25,65.75,179.022,65.521,179.022z"/>
<path fill="#EE3C6F" d="M76.614,189.771h-4.003v-10.178h-1.944v-6.861h8.005v6.861h-1.944v10.178H76.614z"/>
<path fill="#EE3C6F" d="M83.59,183.482v6.29h-4.003v-17.039h4.003v6.175h2.058v-6.175h4.003v17.039h-4.003v-6.29H83.59z"/>
<path fill="#EE3C6F" d="M95.368,185.54h3.431v4.231h-7.433v-17.039h7.433v4.231h-3.431v2.058h2.402v4.231h-2.402V185.54z"/>
<path fill="#EE3C6F" d="M100.057,189.771v-17.039h4.003c1.372,0,2.287,0.114,2.745,0.229s0.915,0.343,1.258,0.801
	c0.343,0.457,0.572,1.029,0.8,1.715c0.229,0.686,0.343,1.487,0.343,2.287c0,1.715-0.343,2.973-1.029,3.888
	c1.029,2.058,1.601,4.803,1.715,8.119h-4.117v-0.114c0-1.944-0.114-3.545-0.457-4.574c-0.343-1.029-0.686-1.601-1.258-1.601l0,0
	v6.29H100.057z M104.06,176.277L104.06,176.277l-0.114,3.316h0.114c0.343,0,0.686-0.114,0.8-0.457
	c0.229-0.229,0.229-0.686,0.229-1.258C105.203,176.849,104.86,176.277,104.06,176.277z"/>
<path fill="#EE3C6F" d="M114.809,183.482v6.29h-4.003v-17.039h4.003v6.175h2.058v-6.175h4.003v17.039h-4.003v-6.29H114.809z"/>
<path fill="#EE3C6F" d="M126.931,172.503c1.144,0,2.173,0.801,3.088,2.516c0.915,1.715,1.372,3.774,1.372,6.061
	c0,2.63-0.457,4.803-1.258,6.404S128.189,190,126.703,190c-1.144,0-2.173-0.801-3.088-2.402c-0.915-1.601-1.372-3.888-1.372-6.747
	c0-1.372,0.229-2.745,0.572-4.003c0.343-1.258,0.915-2.402,1.601-3.202S126.017,172.503,126.931,172.503z M126.817,179.022
	c-0.229,0-0.457,0.114-0.686,0.457s-0.229,0.801-0.229,1.258c0,0.572,0.114,0.915,0.229,1.258c0.229,0.343,0.343,0.457,0.686,0.457
	c0.229,0,0.457-0.114,0.686-0.457c0.229-0.343,0.229-0.801,0.229-1.258c0-0.457-0.114-0.915-0.229-1.258
	C127.274,179.25,127.046,179.022,126.817,179.022z"/>
<path fill="#EE3C6F" d="M137.224,172.503c1.144,0,2.173,0.801,3.088,2.516c0.915,1.715,1.372,3.774,1.372,6.061
	c0,2.63-0.457,4.803-1.258,6.404c-0.915,1.601-1.944,2.516-3.431,2.516c-1.144,0-2.173-0.801-3.088-2.402
	c-0.915-1.601-1.372-3.888-1.372-6.747c0-1.372,0.229-2.745,0.572-4.003c0.343-1.258,0.915-2.402,1.601-3.202
	C135.394,172.846,136.309,172.503,137.224,172.503z M137.109,179.022c-0.229,0-0.457,0.114-0.686,0.457s-0.229,0.801-0.229,1.258
	c0,0.572,0.114,0.915,0.229,1.258c0.229,0.343,0.343,0.457,0.686,0.457c0.229,0,0.457-0.114,0.686-0.457
	c0.229-0.343,0.229-0.801,0.229-1.258c0-0.457-0.114-0.915-0.229-1.258C137.567,179.25,137.338,179.022,137.109,179.022z"/>
<path fill="#EE3C6F" d="M143.17,189.771v-17.039h3.774c1.029,0,1.83,0.114,2.402,0.457c0.572,0.343,1.144,0.801,1.601,1.601
	s0.915,1.715,1.144,2.859s0.457,2.402,0.457,3.774c0,1.144-0.114,2.287-0.343,3.316c-0.229,1.029-0.572,1.944-1.029,2.745
	s-0.915,1.372-1.372,1.715s-0.915,0.572-1.372,0.686C147.973,190,147.287,190,146.258,190h-3.088V189.771z M147.173,179.25
	L147.173,179.25l-0.114,3.888h0.114c0.457,0,0.8-0.114,1.029-0.457c0.229-0.343,0.343-0.801,0.343-1.487s-0.114-1.144-0.343-1.487
	C148.088,179.365,147.745,179.25,147.173,179.25z"/>
</svg>
