<?xml version="1.0" encoding="utf-8"?>
<!-- Generator: Adobe Illustrator 23.0.1, SVG Export Plug-In . SVG Version: 6.00 Build 0)  -->
<svg version="1.1" id="Layer_1" xmlns="http://www.w3.org/2000/svg" xmlns:xlink="http://www.w3.org/1999/xlink" x="0px" y="0px"
	 viewBox="0 0 200 200" style="enable-background:new 0 0 200 200;" xml:space="preserve">
<style type="text/css">
	.st0{fill:#F18D84;}
	.st1{fill:#ECD1BF;}
</style>
<g>
	<path class="st0" d="M132.6,153.9c-0.4-0.1-0.4,0.3-0.5,0.6c-0.4,1.9-0.8,3.8-1.3,5.8c-0.6,2.5-1.2,5-2.3,7.4
		c-0.4,0.8-0.8,1.7-1.5,2.3c-0.8,0.7-1.6,0.6-2.1-0.3c-0.4-0.5-0.5-1.2-0.6-1.8c-0.2-2-0.1-3.9,0.3-5.9c0.6-3,1.2-6.1,1.8-9.1
		c0.3-1.7,0.7-3.4,0.7-5.1c0-1.4-0.7-2.4-2.1-2.7c-0.6-0.1-1.2-0.1-1.8,0c-1.4,0.4-2.3,1.4-3.1,2.5c-0.9,1.3-1.4,2.8-2,4.2
		c-0.1,0.3-0.2,0.6-0.5,0.9c0.2-1.6,0.3-3,0.2-4.5c0-0.8-0.1-1.7-0.5-2.4c-0.6-1.2-1.6-1.6-2.9-1c-1.3,0.6-2.3,1.7-3,2.9
		c-1.5,2.3-2.3,4.9-3,7.5c-0.2,0.9-0.4,1.9-0.7,2.9c-0.2-0.4-0.2-0.8-0.2-1.1c-0.1-1.3-0.1-2.6-0.2-3.9c-0.1-1.1-0.3-2.1-0.8-3.1
		c-0.5-1-1.3-1.3-2.3-0.9c-1.1,0.4-1.7,1.3-1.8,2.5c0,0.9,0,1.9,0.1,2.8c0,0.4-0.1,0.6-0.3,0.9c-0.8,1-1.6,1.8-2.5,2.6
		c-0.4,0.3-0.7,0.7-1.1,0.9c-0.1-0.2,0-0.3,0.1-0.5c0.7-2.1,1.1-4.3,1-6.6c-0.1-2.3-0.7-4.5-2.1-6.3c-1.1-1.4-2.5-2.2-4.4-2.2
		c-2.9,0-5.2,1.3-7,3.5c-2.7,3.4-3.4,7.2-2.1,11.4c0.3,0.8,0.4,1.6,0.4,2.4c0.1,1.8,0.3,3.5,1,5.1c1.1,2.8,3.6,4.1,6.4,3.4
		c1.5-0.4,2.4-1.4,3.2-2.6c1.2-1.7,1.8-3.7,2.6-5.5c0.1-0.3,0.3-0.5,0.5-0.7c1.4-1.2,2.8-2.4,4-3.8c0.1-0.1,0.1-0.3,0.4-0.2
		c0.1,1.5,0.2,2.9,0.3,4.4c0.2,2.2,0.3,4.4,0.9,6.5c0.1,0.6,0.3,1.1,0.8,1.5c0.5,0.5,1.1,0.6,1.8,0.3c0.3,0,0.5-0.2,0.7-0.4
		c0.3-0.2,0.4-0.4,0.6-0.7c0.4-0.5,0.3-1.1,0.3-1.7c0-0.6-0.1-1.1-0.1-1.7c0-3.3,0.6-6.5,1.5-9.6c0.6-2.1,1.2-4.1,2.2-6
		c0.2-0.3,0.3-0.8,0.7-0.7c0.4,0.1,0.3,0.6,0.3,0.9c0,1,0,2,0,3c0,0.3,0,0.6,0,0.9c0,0.1-0.1,0.2-0.1,0.4c-0.2,2-0.3,4-0.5,6.1
		c-0.1,1.2-0.3,2.4-0.2,3.7c0,0.5,0.1,0.9,0.6,1.2c1,0.5,2.4,0.1,3.1-0.7c0.5-0.7,0.8-1.5,1-2.3c0.3-1.6,0.2-3.2,0.6-4.8
		c0.1-0.3,0.2-0.6,0.3-0.9c0.5-1.6,1.1-3.2,1.9-4.7c0.5-1,1-2,1.6-2.9c0.1-0.2,0.3-0.5,0.6-0.4c0.3,0.1,0.3,0.4,0.3,0.7
		c0,0.5,0,1.1,0,1.6c-0.1,2.1-0.6,4.2-1,6.3c-0.6,3.6-1,7.2-0.4,10.8c0.2,1.5,0.6,3,1.4,4.3c1.3,1.9,3.3,2.1,5.1,0.7
		c1-0.8,1.6-1.9,2.1-3c1.3-2.9,2-6,2.6-9c0.4-1.7,0.7-3.4,1.1-5.1C133,154.4,133,154,132.6,153.9z M94.3,166.2
		c-0.2,0.3-0.5,0.6-0.8,0.9c-0.6,0.5-1.2,0.4-1.6-0.1c-0.7-0.8-0.9-1.7-1-2.7c-0.1-0.5-0.1-1-0.2-1.5c0-0.2,0-0.4,0.3-0.4
		c2,0,4-0.5,5.8-1.4C96.1,162.8,95.4,164.6,94.3,166.2z M97.5,159.3c-0.1,0.2-0.2,0.4-0.4,0.6c-1.9,1.3-4,1.5-6.2,1.7
		c-0.3,0-0.2-0.2-0.2-0.4c0.1-1,0.2-1.9,0.5-2.9c0.3-1.3,0.6-2.6,1.2-3.8c0.5-1,0-2.5-1.3-2.9c-0.9-0.3-1.8-0.2-2.8,0
		c-0.2,0-0.3,0.2-0.4,0.4c-1.1,1.6-1.8,3.3-2.4,5.1c-0.1,0.2-0.1,0.4-0.2,0.6c-0.5-1.2-0.7-2.4-0.6-3.6c0.2-2.8,1.1-5.2,3.1-7.3
		c1.6-1.7,3.5-2.6,5.9-2.4c1.9,0.2,3.2,1.3,4.1,2.9c1,1.9,1.2,4,1.1,6.1C98.7,155.4,98.2,157.3,97.5,159.3z"/>
	<path class="st0" d="M84.5,77c-0.1,0-0.2,0.1-0.2,0.2c0,0,0,0-0.1,0c-0.3,0.3-0.5,0.6-0.6,1.1c-0.2,0.3-0.2,0.7-0.3,1
		c-0.2-0.4-0.4-0.8-0.6-1.2c-1.5-2.8-3.9-3.8-7-2.7c-1.7,0.6-3.1,1.7-4.2,3.2c-2.1,3-2.6,6.3-1.4,9.8c0.2,0.5,0.3,1,0.3,1.5
		c0.1,1.8,0.2,3.5,1,5.2c0.7,1.6,1.8,2.6,3.5,2.9c1.9,0.3,3.5-0.4,4.7-2c1.1-1.6,1.8-3.4,2.5-5.1c0.1-0.3,0.3-0.6,0.6-0.8
		c1.8-1.4,3.4-2.9,4.7-4.9c0.1-0.2,0.2-0.2,0.4-0.2c0.4,0,0.8,0,1.3-0.1c0.5-0.1,0.7,0.1,0.7,0.6c-0.1,0.7-0.1,1.5-0.2,2.2
		c-0.2,2.3-0.5,4.5-0.1,6.8c0.2,1.3,0.5,2.5,1.4,3.5c1.3,1.5,3.1,1.2,4-0.5c0.7-1.4,1.2-2.9,1.5-4.5c0.1-0.3,0.1-0.7,0.4-1
		c-0.1,3.1,0,6.1,0.7,9c0,0.3,0.1,0.5,0.3,0.8c0.1,0.2,0.1,0.4,0.2,0.6c0.2,0.7,0.4,1.4,0.8,2c0.2,0.3,0.4,0.7,0.6,1
		c0.4,0.6,0.8,1.2,1.4,1.6c0,0,0.1,0.1,0.1,0.1c0.6,0.5,1.4,0.8,2.2,0.9c0.2,0.1,0.4,0,0.6,0c1.2-0.3,2-1.1,2.7-2.1
		c1.1-1.6,1.9-3.4,2.5-5.3c0.3-0.8,0.5-1.6,0.8-2.6c0.5,1.1,1,1.9,1.8,2.6c2.2,1.7,4.7,2,6.4-1c0.6-1.1,1-2.2,1.4-3.3
		c0.1-0.4,0.2-0.8,0.5-1.3c0.1,0.2,0.1,0.4,0.2,0.6c0.5,1.8,1,3.6,2,5.1c0.6,0.9,1.3,1.8,2.3,2.2c1.4,0.6,2.4,0.3,3.2-1
		c0.5-0.7,0.8-1.5,1.1-2.3c0.9-3.1,1.7-6.1,2.5-9.2c0.2-0.6,0.3-1.2,0.5-1.9c0.1-0.3,0-0.4-0.2-0.5c-0.2-0.1-0.3,0.1-0.4,0.2
		c0,0.1-0.1,0.2-0.1,0.3c-0.9,3.3-1.7,6.6-2.8,9.8c-0.2,0.6-0.4,1.1-0.7,1.7c-0.4,0.7-0.9,0.7-1.4,0.1c-0.4-0.4-0.6-0.9-0.9-1.4
		c-1.3-2.8-2-5.9-2.3-9c-0.1-1.4-0.3-2.9,0.3-4.3c0.3-0.6,0.5-1.3,0.7-1.9c1.3-3.7,2.5-7.5,3.3-11.3c0.3-1.5,0.5-3.1,0.2-4.7
		c-0.3-1.6-1.5-2.4-3.1-2c-1.1,0.3-1.9,1-2.5,2c-0.8,1.2-1.3,2.5-1.6,3.8c-1,3.9-1.1,7.9-1,11.9c0,0.7-0.1,1.5,0.1,2.2
		c0,2,0.2,4,0.3,6c0,0.5,0.1,0.9,0,1.4c-0.3,1.8-0.8,3.5-1.5,5.2c-0.2,0.6-0.6,1.2-1.1,1.6c-0.6,0.5-1.1,0.5-1.6,0
		c-0.3-0.3-0.5-0.6-0.7-0.9c-1.5-2.5-1.8-5.2-1.3-8c0.3-1.8,1.1-3.4,2.5-4.6c0.5-0.4,1-0.8,1.7-0.8c0.1,0.1,0.2,0.1,0.3,0.2
		c0.3,0.6,0.1,1.1-0.1,1.6c-0.1,0.2-0.1,0.4,0.1,0.5c0.2,0.1,0.3-0.1,0.4-0.2c0.3-0.6,0.6-1.3,0.3-2c-0.1-0.6-0.4-1-0.9-1.3
		c-0.5-0.4-1-0.6-1.6-0.7c-1.9-0.2-3.3,0.7-4.4,2.2c-2,2.9-2.7,6.1-2.4,9.6c0,0.5,0.3,1,0.1,1.6c-0.6,2-1.2,4.1-2.1,6
		c-0.5,1.2-1.1,2.3-2.2,3.1c-0.8,0.6-1.5,0.4-2.1-0.4c-0.5-0.7-0.8-1.5-1-2.3c-0.2-1-0.4-2-0.6-3c0-0.2,0-0.5,0-0.7
		c-0.2-2.3-0.2-4.5-0.1-6.8c0.1-1.7,0.5-3.3,1.3-4.9c0.8-1.6,1.6-3.3,2.3-5c1.2-2.9,2.5-5.8,2.8-9c0.1-1.1,0.2-2.2,0-3.3
		c-0.4-1.4-1.6-2-2.9-1.5c-1,0.4-1.7,1-2.3,1.8c-0.8,1.2-1.5,2.5-2.1,3.9c-1.4,3.4-2.1,7-2.7,10.6c-0.4,2-0.7,3.9-1.2,5.9
		c-0.5,2-0.9,4-1.8,5.8c-0.2,0.3-0.3,0.8-0.7,0.8c-0.4-0.1-0.5-0.6-0.5-0.9c-0.4-1.7-0.2-3.5,0-5.2c0.2-1.8,0.6-3.6,0.6-5.5
		c0-1.9-0.5-2.4-2.4-2.1c-0.9,0.1-1.9,0.2-2.8,0.3c0-0.1,0-0.1,0-0.2c0-0.2,0.1-0.3,0.2-0.5c0.5-1.7,0.9-3.4,0.7-5.2
		c-0.3-2-1.6-2.8-3.5-2.1c-0.3,0-0.6,0.2-0.8,0.4C84.6,76.8,84.5,76.9,84.5,77z M122.9,76.7c0.1-1.9,0.4-3.8,1-5.6
		c0.3-0.8,0.6-1.6,1.2-2.2c0.2-0.2,0.4-0.5,0.8-0.4c0.4,0.1,0.5,0.5,0.5,0.8c0.1,0.6,0,1.2,0,1.9c-0.4,3-1.3,5.8-2.2,8.6
		c-0.5,1.3-0.9,2.7-1.4,4c0,0.1,0,0.1-0.2,0.2C122.7,81.6,122.8,79.1,122.9,76.7z M105.1,72.2c0.2-0.4,0.5-0.8,0.8-1.2
		c0.1-0.1,0.2-0.3,0.5-0.2c0.2,0.1,0.3,0.3,0.3,0.5c0.2,1.2,0,2.4-0.2,3.5c-0.5,2.8-1.6,5.5-2.7,8.1c-0.6,1.5-1.3,3-2.1,4.4
		C101.8,82,102.6,76.9,105.1,72.2z M99.8,101.3C99.8,101.3,99.8,101.3,99.8,101.3c-0.1,0-0.1,0-0.2-0.1
		C99.7,101.3,99.8,101.3,99.8,101.3z M78.6,95.8c-0.8,0.9-1.6,0.8-2.2-0.3c-0.5-1-0.6-2-0.7-3.1c0-0.3,0.1-0.4,0.4-0.4
		c1.7,0,3.3-0.4,4.8-1.2c0,0,0.1,0,0.2,0C80.4,92.5,79.9,94.3,78.6,95.8z M82.3,87.5c0,0.2-0.1,0.3-0.1,0.5
		c-0.1,1.6-1.3,2.2-2.6,2.6c-1.1,0.4-2.3,0.5-3.5,0.6c-0.4,0-0.4-0.2-0.3-0.4c0.2-1.9,0.6-3.8,1.4-5.6c0.6-1.2-0.1-2.8-1.8-2.9
		c-0.6,0-1.1,0-1.7,0.1c-0.3,0-0.4,0.2-0.5,0.4c-0.9,1.3-1.6,2.8-2,4.3c-0.1,0.3-0.1,0.5-0.3,0.8c-0.6-2-0.5-3.9,0.1-5.8
		c0.7-2.1,1.8-4,3.7-5.2c1-0.6,2.2-1,3.4-0.9c2.3,0.1,3.8,1.6,4.5,4.1C83.2,82.6,83,85,82.3,87.5z M82.9,88.8
		C82.9,88.8,82.9,88.8,82.9,88.8C82.9,88.8,82.9,88.8,82.9,88.8C82.9,88.8,82.9,88.8,82.9,88.8z M87.1,78.8c0.1-0.3,0.3-0.6,0.7-0.6
		c0.3,0,0.4,0.4,0.5,0.7c0.2,0.7,0.1,1.4,0,2.1c-0.1,0.9-0.3,1.9-0.7,2.7c-0.2,0.5-0.4,0.4-0.6,0c-0.4-0.7-0.5-1.4-0.5-2.2
		C86.5,80.5,86.7,79.6,87.1,78.8z M86.4,84.6c0.3,0.1,0.3,0.2,0.2,0.5c-0.8,1.2-1.7,2.1-2.8,3.1c-0.3,0.2-0.5,0.4-0.8,0.6
		c0,0,0,0,0,0c0-0.1,0-0.1,0-0.2c0.7-2,1-4.1,1-6.4c0.2,0.4,0.4,0.7,0.6,1C85,83.9,85.6,84.4,86.4,84.6z"/>
	<path class="st0" d="M40.7,119.3c-1.2-0.2-2.3,0-3.3,0.7c-0.3,0.2-0.5,0.5-0.5,0.9c0,0.6,0,1.1,0.1,1.7c0.2,1,0.1,2-0.3,3
		c-0.5,1.4-1.1,2.7-1.7,4c-0.5,1.1-1,2.1-1.8,3c-0.6,0.7-1.4,0.7-2-0.1c-0.4-0.5-0.6-1-0.7-1.6c-0.8-3.3-0.5-6.5,0.4-9.7
		c0.1-0.3,0.2-0.7,0.3-1c0.4-1.2,1-2.4,1.9-3.3c0.4-0.4,0.9-0.7,1.5-0.8c0.8-0.1,1.6,0.4,1.6,1.2c0.1,1.1-0.1,2.2-0.7,3.1
		c-0.4,0.6-0.9,0.9-1.6,1c0,0-0.1,0-0.1-0.1c-0.2,0-0.5-0.1-0.7-0.1c-0.2,0-0.4,0.1-0.5,0.3c-0.1,0.2,0.1,0.3,0.2,0.4
		c0.1,0.1,0.2,0.1,0.3,0.1c0,0,0.1,0,0.1,0h0c0,0.1,0.1,0.1,0.1,0.2c0,0,0.1-0.1,0.1-0.1c0.1,0,0.3,0,0.4,0c0.5,0.1,1-0.1,1.4-0.4
		c1-0.7,1.5-1.7,1.7-2.9c0.6-2.6-1-4.7-3.6-5c-0.6-0.1-1.2,0-1.7,0.1c-2.2,0.5-3.8,1.8-4.9,3.7c-1.9,3.3-2.4,6.8-2.1,10.5
		c0.1,1.4,0.4,2.7,1,4c0.9,1.9,2.6,2.9,4.6,2.7c1.6-0.1,2.7-1,3.6-2.1c1.1-1.4,1.8-3,2.5-4.6c0.2-0.4,0.3-0.8,0.6-1.2
		c0,0.1,0.1,0.1,0.1,0.1c0.1,0.8,0.2,1.6,0.2,2.3c0.4,4.4,0.5,8.9,0.2,13.3c-0.2,2.9-0.4,5.9-1.2,8.7c-0.5,2-1.2,3.9-2.8,5.3
		c-0.8,0.6-1.7,0.9-2.7,0.8c-1.1-0.4-1.9-1.2-2.3-2.2c-0.4-1-0.6-1.9-0.7-3c-0.2-2.4,0.2-4.7,1.6-6.8c0.8-1.2,2-2,3.5-2
		c1.3,0,2.3,1.1,2.1,2.1c-0.1,0.3,0,0.5,0.3,0.5c0.3,0,0.4-0.2,0.4-0.4c0.1-0.5,0.1-1-0.2-1.5c-0.6-0.9-1.4-1.3-2.5-1.4
		c-1.9-0.2-3.3,0.7-4.2,2.1c-2.4,3.5-2.5,7.3-0.9,11.2c0.5,1.2,1.5,2.2,2.9,2.6c1,0.3,2,0.2,3-0.2c0.3-0.1,0.6-0.3,0.9-0.4
		c1.7-1.1,2.8-2.7,3.7-4.5c2.2-4.4,3.4-9.2,3.8-14.1c0.5-6.1,0.1-12.2-0.1-18.3C42.3,120.3,41.7,119.5,40.7,119.3z"/>
	<path class="st0" d="M33.4,82.7c0.8,0.2,1.6,0.2,2.4-0.1c0.3-0.1,0.5-0.4,0.4-0.7c-0.1-0.3-0.4-0.2-0.6-0.1
		c-1.5,0.6-2.8,0.2-3.9-0.9c-1.8-1.7-2.2-3.9-1.9-6.2c0.1-1.3,0.6-2.5,1.5-3.4c1.1-1.2,2.3-1.2,3.4-0.1c0.1,0.1,0.2,0.3,0.4,0.4
		c0.9,1.1,1.5,2.3,2,3.6c1.6,3.8,2.7,7.8,3.7,11.7c0.5,2,1,3.9,1.5,5.9c0,0.3,0.1,0.6,0.2,0.9c0.3,1.3,0.6,2.5,0.9,3.8
		c0.9,3.4,1.8,6.8,2.9,10.1c0.1,0.2,0.1,0.5,0.4,0.7c1.6,0.6,3.1,0.2,3.7-1.6c0.2-0.5,0.2-1.1,0.4-1.7c1.4-5,2.7-10.1,3.9-15.2
		c0.1-0.3,0.1-0.6,0.2-0.9c0.1,0.2,0.1,0.3,0.1,0.5c0.2,4.7,1,9.4,2.8,13.8c0.8,1.9,1.7,3.8,3.2,5.2c0.9,0.8,2,1,3.1,0.5
		c1.1-0.5,1.6-1.4,1.5-2.6c0-2,0-4,0.1-6.1c0.1-1.9,0.4-3.8,0.6-5.8c0-0.1,0-0.3,0.1-0.4c0-0.1,0-0.2,0-0.3c0-0.2,0.1-0.4,0.1-0.5
		c0.7-4.4,1.5-8.8,2.6-13.1c0.9-3.6,1.9-7.1,3.7-10.3c1-1.9,2.2-3.7,4-4.9c1.1-0.7,2.3-0.9,3.5-0.7c2.5,0.5,4.4,2.9,4.3,5.5
		c-0.1,2.2-1.8,4.1-4.6,3.3c-0.4-0.1-0.7-0.2-1.1-0.4c-0.2-0.1-0.5-0.2-0.6,0.1c-0.1,0.3,0.1,0.5,0.3,0.6c1.5,0.9,3,1.1,4.6,0.3
		c1.7-0.9,2.5-2.7,2.2-4.8c-0.4-3.4-3.3-5.8-6.5-5.5c-1.8,0.1-3.2,1.1-4.4,2.4c-1.8,1.9-3,4.3-3.9,6.7c-2.1,5.5-3.4,11.2-4.5,17
		c-0.3,1.6-0.6,3.2-0.8,4.9c0,0.1-0.1,0.2-0.1,0.4c-0.5,3.7-0.8,7.3-0.8,11c0,0.2,0,0.4,0,0.7c-0.5-0.5-0.7-1.1-0.9-1.6
		c-1.2-3.3-1.7-6.8-2.3-10.3c-0.5-3-0.7-6.1-1.1-9.2c-0.1-0.4-0.2-0.7-0.6-0.9c-1-0.5-2.1-0.6-3.2-0.4c-1.1,0.2-1.3,0.4-1.5,1.4
		c-1.5,6.1-2.9,12.1-4.4,18.2c0,0.2-0.1,0.4-0.2,0.6c0,0-0.1,0-0.1,0c-0.2-1.6-0.4-3.1-0.6-4.7c0-0.1,0-0.1-0.1-0.2
		c0-0.1,0-0.1,0-0.2c0-0.2,0-0.3-0.1-0.4c0-0.8-0.2-1.6-0.3-2.3c-0.6-4-1.5-8-2.4-12c-0.6-2.7-1-5.5-1.9-8.2
		c-0.1-0.2-0.1-0.4-0.2-0.6c-0.2-0.4-0.2-0.9-0.5-1.3c0-0.2-0.1-0.4-0.2-0.5c-0.7-1.7-1.6-3.3-3.3-4.2c-1.8-1.1-3.8-1.4-6-1.2
		c-1.8,0.2-3.2,1.1-4.2,2.6c-1.9,2.7-2.1,5.7-1,8.8C30.2,80.9,31.5,82.2,33.4,82.7z"/>
	<path class="st0" d="M132.4,80.7c0.3,2.2,1.3,4.1,2.6,5.9c1,1.5,2.1,2.9,3,4.4c0.2,0.3,0.2,0.6-0.1,0.9c-0.5,0.6-1,1.2-1.4,1.9
		c-1.2,2.1-1.6,4.3-0.9,6.7c0.5,1.6,1.7,2.5,3.3,2.4c0.8,0,1.5-0.2,2.1-0.7c0.4-0.3,0.8-0.5,1.2-0.8c1.7-1.8,2.3-3.9,1.9-6.3
		c-0.3-2-1.2-3.9-2.1-5.7c-0.1-0.3-0.1-0.5,0.1-0.8c1.1-1.5,2.1-3,2.9-4.7c0.1-0.3,0.3-0.6,0.4-0.9c0.1-0.2,0.2-0.5-0.1-0.6
		c-0.2-0.1-0.4,0.1-0.5,0.3c-0.1,0.2-0.2,0.4-0.3,0.6c-0.8,1.7-1.7,3.3-2.9,4.8c-0.2,0.3-0.4,0.3-0.6,0c-0.7-0.9-1.3-1.8-1.8-2.7
		c-0.2-0.3-0.2-0.4,0.1-0.7c0.6-0.6,1-1.2,1.3-2c0.8-1.9,0.9-3.9,0.5-6c-0.3-1.2-0.9-2-2.1-2.2c-1.7-0.3-3.3,0.1-4.7,1.1
		C132.5,77,132.2,78.8,132.4,80.7z M139,92.4c1,1.6,1.6,3.3,1.8,5.1c0.1,0.7,0.1,1.4,0,2.1c-0.1,0.8-0.3,1.5-0.9,2.1
		c-0.3,0.2-0.6,0.4-1,0.5c-1.3,0-2.1-0.6-2.5-1.8c-0.8-2.4-0.4-4.6,0.9-6.6c0.3-0.5,0.8-0.9,1.2-1.4C138.7,92.1,138.8,92.1,139,92.4
		z M137.6,77.5c0.1-0.6,0.4-1.1,0.9-1.5c0.7-0.6,1.3-0.4,1.6,0.4c0.3,0.8,0.4,1.6,0.4,2.4c0,1.4-0.2,2.8-0.9,4.1c-0.2,0.4-0.5,1-1,1
		c-0.4,0-0.5-0.7-0.6-1.1C137.4,81.2,137.2,79.4,137.6,77.5z"/>
	<path class="st0" d="M128,81.4c0.5,0.1,0.6-0.4,0.9-0.7c1.3-1.9,2.7-3.8,4.2-5.6c0.5-0.6,1.2-1.2,1.4-2c0.2-0.4,0.3-0.8,0-1.2
		c-0.1-0.4-0.4-0.6-0.7-0.8c-0.1-0.1-0.3-0.2-0.5-0.2c-1.2-0.4-2.3-0.2-3.3,0.7c-0.2,0.1-0.3,0.3-0.4,0.4c-0.1,0.2-0.3,0.4-0.4,0.6
		c-1.3,2.4-1.7,5-1.6,7.7C127.6,80.7,127.5,81.2,128,81.4z"/>
	<path class="st0" d="M88,172.8c-2,0.1-3.5,1.4-3.9,3.4c0,0.2-0.1,0.5,0.2,0.6c0.4,0.1,0.6-0.1,0.7-0.4c0.1-0.3,0.1-0.6,0.2-0.8
		c0.5-1.6,2.1-2.4,3.7-1.9c1.4,0.4,2.3,1.6,2.4,3.4c0.1,1.2,0,2.4-0.3,3.5c-0.1,0.2-0.1,0.4-0.1,0.6c-0.1,0.3-0.2,0.6-0.3,0.9
		c-0.1,0.2-0.2,0.4-0.3,0.7c-0.2,0.4-0.4,0.9-0.6,1.3c-0.2,0.2-0.3,0.4-0.5,0.7c-0.5,0.7-1,1.3-1.9,1.5c-1.6,0.6-3.5,0-4.6-1.4
		c-1.1-1.3-1.5-2.9-1.7-4.5c-0.5-4.2-0.4-8.3-0.1-12.5c0.4-5.5,1.4-11,1.9-16.6c0.2-2.2,0.3-4.4,0.2-6.6c-0.3-3.7-3.2-5.4-6.6-3.7
		c-1.6,0.8-2.6,2-3.5,3.5c-1.1,1.7-1.8,3.6-2.7,5.4c-0.1,0.2-0.1,0.4-0.2,0.5c0-1.1,0-2.2,0-3.3c0-1.5,0-3-0.5-4.4
		c-0.3-0.9-0.9-1.5-1.9-1.6c-1.2-0.1-2.3,0.3-3.1,1.3c-1.3,1.6-2.2,3.5-3.1,5.3c-0.5,1-1,2-1.5,3.1c-0.4-1.6-0.8-3.2-1.4-4.7
		c-0.8-2-2-3.8-3.8-5c-0.4-0.3-0.8-0.7-1.3-0.7c-0.8-0.6-1.7-0.6-2.7-0.6c-3.4-0.1-6.5,2.4-7.3,5.7c-0.1,0.1-0.1,0.2-0.1,0.3
		c0,0.1,0,0.1,0,0.2c-0.1,0.6-0.2,1.2-0.2,1.8c-0.1,0.3,0,0.7,0.1,1c0,0.2,0.1,0.4,0.1,0.6c0.5,1.8,1.6,3.1,3.4,3.7
		c2.2,0.7,3.9-0.6,3.7-3.2c0-0.3-0.1-0.4-0.4-0.4c-0.2,0-0.4,0.1-0.4,0.4c0,0.3,0,0.5,0,0.8c-0.1,1.6-1.4,2.3-2.9,1.6
		c-1.2-0.6-1.9-1.6-2.4-2.8c-0.1-0.3-0.1-0.5-0.3-0.8c0-0.3-0.1-0.6-0.1-1c0-0.2,0-0.5,0-0.7c0.1-0.2,0.1-0.4,0.1-0.6
		c0.2-0.2,0.2-0.4,0.2-0.7c0.7-1.8,1.9-2.6,3.6-2.4c0.4,0,0.7,0.1,1.1,0.2c0.2,0.1,0.4,0.2,0.5,0.2c0.2,0.1,0.4,0.2,0.5,0.3
		c0.2,0.2,0.4,0.4,0.7,0.5c0.2,0.2,0.4,0.4,0.6,0.7c1.7,2.2,2.5,4.7,3,7.4c0.9,4.8,0.9,9.6,0.3,14.4c-0.3,2.5-0.8,5-1.9,7.3
		c-0.5,1.2-1.2,2.2-2.3,3c-1.6,1.1-3.2,1.1-4.3-0.2c-1.3-1.4-1.5-4.6-0.3-6.1c0.6-0.9,1.5-1.2,2.6-1c0.9,0.2,1.4,0.7,1.9,1.4
		c0.1,0.1,0.2,0.3,0.4,0.2c0.2-0.1,0.2-0.3,0.2-0.5c0-0.2-0.1-0.3-0.1-0.5c-1-1.5-3.8-2.4-5.4-0.4c-1.9,2.3-1.3,6,0.4,7.8
		c2.3,2.5,6.6,2.4,9-0.3c0.3-0.3,0.7-0.6,0.9-1c0.8-0.9,1.4-1.9,1.9-2.9c1.8-3.7,2.6-7.6,2.9-11.6c0.2-3.2,0.2-6.5,0-9.7
		c0-0.3-0.1-0.5,0-0.8c1-2,1.9-4.1,3.1-6c0.2-0.2,0.4-0.6,0.7-0.5c0.3,0.1,0.2,0.5,0.2,0.8c0,2.3-0.1,4.6-0.1,6.9c0,2.5,0,5,0,7.4
		c0,1.2,0.1,2.3,0.9,3.3c0.5,0.7,1.5,1,2.5,0.7c0.8-0.2,1-0.8,1.1-1.5c0.2-1.8,0.4-3.6,0.6-5.3c0.2-1.6,0.2-3.2,0.8-4.8
		c0.5-1.2,1-2.4,1.5-3.6c0.8-1.9,1.7-3.9,3-5.6c0.3-0.3,0.5-0.8,1-0.7c0.5,0.1,0.5,0.7,0.6,1.2c0.2,1.3,0.2,2.5,0.1,3.8
		c-0.2,3.1-0.6,6.1-0.9,9.2c-0.1,0.8-0.2,1.7-0.2,2.5c0,0.1,0,0.2,0,0.3c-0.4,4.6-0.6,9.2-0.1,13.8c0.3,2.3,0.7,4.6,1.6,6.7
		c1.5,3.6,3.8,6.1,7.8,6.8c1.5,0.3,2.9,0.2,4.2-0.7c0.8-0.6,1.4-1.4,1.9-2.3c0.2-0.2,0.4-0.5,0.5-0.9c0-0.1,0-0.2,0.1-0.2
		c0.2-0.2,0.3-0.5,0.4-0.8c0.2-0.4,0.3-0.9,0.4-1.3c0-0.2,0.1-0.4,0.1-0.6c0.4-1.5,0.4-3.1,0-4.6C91.5,173.9,89.9,172.7,88,172.8z
		 M52.7,141.7L52.7,141.7c0,0.1,0,0.2,0,0.2C52.7,141.9,52.7,141.8,52.7,141.7z M52.7,141.7L52.7,141.7c0.1,0,0.1,0.1,0.2,0.1
		C52.8,141.8,52.8,141.8,52.7,141.7z"/>
	<path class="st0" d="M151,122.8c-0.2-0.2-0.4,0-0.5,0.1c-0.2,0.1-0.3,0.4-0.3,0.6c-0.5,1.4-1.1,2.9-1.6,4.3
		c-0.7,1.7-1.5,3.3-2.3,4.9c-0.1,0.1-0.2,0.2-0.2,0.4c-0.3,0.3-0.5,0.6-0.7,1c-0.3,0.4-0.6,0.8-1,1.2c-0.2,0.2-0.3,0.4-0.5,0.6
		c-0.2,0-0.2,0.2-0.3,0.3c-0.3,0.1-0.5,0.3-0.6,0.6c-0.1,0-0.2,0-0.3,0.2c-0.6,0.2-1.2,0.3-1.8-0.2c-0.5-0.6-0.7-1.3-0.9-2
		c-0.6-2.6-0.5-5.2-0.3-7.9c0.2-3,0.8-6,1.3-9c0.3-2.2,0.7-4.4,1.1-6.6c0-0.2,0-0.4,0.4-0.5c1.5,0,2.9-0.2,4.4,0
		c1.1,0.1,2,0.5,2.5,1.6c0.1,0.3,0.3,0.5,0.6,0.4c0.3-0.1,0.4-0.4,0.2-0.7c-0.4-0.9-1-1.5-1.9-1.9c-0.8-0.3-1.5-0.4-2.3-0.3
		c-1.1,0-2.1,0.1-3.2,0.1c-0.4,0-0.5,0-0.4-0.5c0.1-0.5,0.1-1,0.1-1.5c0.1-1.7-0.5-3.2-2.1-3.9c-1.7-0.9-3.5-0.5-4,1.7
		c-0.3,1.3-0.3,2.6-0.5,4c0,0.4-0.2,0.5-0.6,0.6c-3.6,0.4-7.3,0.7-10.9,0.8c-8,0.3-15.9,0.2-23.9,0c-0.4,0-0.5-0.1-0.4-0.5
		c0.2-1,0.2-2,0-3c-0.4-1.8-2.2-2.9-4.2-2.7c-0.2,0-0.4,0.1-0.5,0.2c-0.2,0.1-0.4,0.2-0.6,0.4c-0.5,0.8-0.7,1.6-0.9,2.5
		c-0.1,0.9-0.2,1.7-0.3,2.6c0,0.4-0.2,0.7-0.7,0.7c-1.4,0-2.7,0.1-4.1,0.1c-0.2,0-0.5,0-0.7,0c-0.4,0-0.8,0-1.2,0
		c-0.2,0-0.4,0-0.7,0c-0.4,0-0.7-0.1-1.1-0.1c-2-0.2-4-0.5-5.9-1.3c-2.2-1-3.4-2.8-3.2-5.1c0.2-2.8,2.2-5.1,4.8-5.4
		c0.7-0.1,1.4,0,2.1,0.2c2.7,0.8,3.4,3.5,1.8,5.7c-1,1.4-3.1,2.1-4.3,0.4c-0.1-0.2-0.3-0.4-0.6-0.2c-0.2,0.2,0,0.4,0.1,0.6
		c0.6,1,1.7,1.5,2.9,1.3c1.9-0.4,3-1.6,3.5-3.4c0.5-1.7-0.1-3.5-1.5-4.5c-3.3-2.4-8-0.9-9.4,3c-1.2,3.4-0.4,6.3,2.8,7.8
		c2.7,1.3,5.6,1.7,8.5,1.8c0.5,0.1,1,0.1,1.5,0.1c1.5,0,3.1,0,4.6-0.1c0.4,0,0.5,0,0.5,0.5c-0.2,1.8-0.4,3.6-0.6,5.4
		c-0.2,1.3-0.2,2.7-0.6,4c-0.6,1.6-0.9,3.3-1.3,4.9c-0.7,2.6-1.2,5.2-2,7.8c-0.1,0.4-0.2,0.9-0.6,0.9c-0.4,0-0.4-0.6-0.5-1
		c-0.4-1.4-0.5-2.9-0.5-4.4c-0.1-2.1,0-4.1-0.3-6.2c-0.2-1.1-1.2-1.8-2.3-1.6c-1.2,0.2-1.9,1.1-2.1,2.5c-0.2,1.8-0.5,3.5-1,5.3
		c-0.3,1.1-0.7,2.1-1.4,2.9c-0.8,0.9-1.8,0.7-2.3-0.3c-0.2-0.4-0.4-0.9-0.5-1.3c-0.7-3.2-0.5-6.5,0.3-9.7c0.5-2.2,1.7-4,3.4-5.4
		c0.5-0.4,1-0.8,1.7-1c0.8-0.3,1.4,0.1,1.5,0.9c0.1,0.6,0.1,1.1,0,1.7c-0.1,0.4-0.2,0.7-0.5,1c-0.4,0.4-0.9,0.3-1.1-0.2
		c-0.1-0.3-0.2-0.5-0.5-0.4c-0.3,0.1-0.2,0.3-0.2,0.6c0,0.2,0.1,0.3,0.3,0.4c0.7,0.7,1.7,0.5,2.3-0.4c1-1.6,0.9-4-1.7-4.8
		c-2.1-0.6-4.1-0.3-5.9,0.8c-2.3,1.4-3.4,3.7-4.3,6c-0.6,1.5-0.8,3.2-1,4.8c-0.4,2.5-1.7,4.7-3.1,6.8c-0.6,0.9-1.2,1.9-2.2,2.5
		c-0.8,0.6-1.6,0.5-2.4-0.2c-0.4-0.4-0.7-0.9-1-1.4c-0.1-0.1-0.1-0.3-0.2-0.4c-0.1-0.5-0.3-0.9-0.4-1.4c0-0.2,0-0.3-0.1-0.5
		c-0.1-1.1-0.2-2.1-0.3-3.2c0-0.3,0-0.5,0.4-0.7c1.3-0.5,2.3-1.3,3.3-2.2c1.9-2,3.1-4.2,2.9-7c-0.1-1.7-0.9-2.7-2.5-3.1
		c-2.6-0.6-4.6,0.3-6.3,2.3c-1.4,1.7-2.3,3.7-2.6,5.9c-0.6,3.3-1.2,6.6-2.2,9.8c-0.3,1-0.6,2-1.2,2.8c-0.3,0.5-0.7,0.5-0.9-0.1
		c-0.2-0.4-0.3-0.8-0.3-1.3c-0.3-1.9-0.1-3.8,0.2-5.7c0.2-1.8,0.5-3.5,0.6-5.3c0.1-2.1-0.5-2.7-2.6-2.4c-0.9,0.1-1.9,0.2-2.8,0.3
		c-0.3,0-0.4,0-0.3-0.4c0.2-0.5,0.3-0.9,0.4-1.4c0.4-1.7,0.7-3.4,0.3-5.2c-0.2-0.9-0.7-1.6-1.7-1.9c-1.5-0.4-3.6,0.2-4.3,2.2
		c-0.7,2.1,0.1,4.9,1.8,6.3c0.9,0.7,2,1,3.2,0.9c0.4,0,0.8,0,1.2-0.1c0.5-0.1,0.6,0.1,0.6,0.6c-0.1,1.3-0.2,2.6-0.4,3.9
		c-0.2,2.4-0.3,4.8,0.3,7.1c0.3,1.1,0.6,2.1,1.4,2.9c1.4,1.4,3.4,1.2,4.3-0.6c0.3-0.7,0.7-1.4,0.9-2.1c0.5-1.4,0.8-2.8,1.1-4.2
		c0,0.1,0.1,0.1,0.1,0.2c0,0.1,0.1,0.3,0.1,0.4c0.3,1.5,0.7,2.9,1.5,4.1c0.1,0.1,0.1,0.3,0.2,0.3c0.2,0.5,0.5,0.8,0.9,1.2
		c0.1,0.2,0.3,0.4,0.5,0.5c2.6,2,5.4,1.7,7.6-0.8c1.5-1.7,2.7-3.7,3.6-5.8c0.1-0.3,0.2-0.5,0.4-0.8c0.1,0.2,0.1,0.4,0.2,0.5
		c0.2,1.6,0.7,3,1.6,4.4c1.7,2.4,5,2.6,7,0.4c0.9-1,1.4-2.2,1.9-3.4c0.1-0.2,0-0.4,0.3-0.5c0.1,1.2,0.2,2.4,0.6,3.5
		c0.5,1.6,1.4,2.9,3.1,3.4c0.9,0.3,1.7,0.1,2.4-0.5c0.7-0.6,1-1.4,1.3-2.2c0.7-2.2,1.2-4.4,1.7-6.7c0.2-0.9,0.4-1.8,0.7-2.8
		c0.1,0.2,0.1,0.2,0.1,0.2c0,0.5,0,0.9,0,1.4c-0.1,2.7,0.1,5.4,0.9,7.9c0.5,1.6,1.2,3,2.5,4.1c0.8,0.8,1.8,1.1,3,1
		c1,0,1.8-0.5,2.5-1.2c2.2-2,3.5-4.5,4.8-7.1c0.4-0.8,0.7-1.5,1.1-2.4c0.1,0.7,0.1,1.3,0.3,1.9c0.4,2.2,1.1,4.3,2.8,5.9
		c1.6,1.5,3.4,2,5.5,1.3c0.1,0,0.2,0,0.2-0.1c0.2,0,0.3-0.1,0.4-0.2c0.1,0,0.2-0.1,0.3-0.2c0.2,0,0.4-0.1,0.6-0.3
		c0.5-0.3,0.9-0.8,1.3-1.3c2.3-2.8,3.7-6.1,5-9.5c0.1,0,0.1,0,0.2,0v0c0,0,0,0,0,0c0.1,0.1,0.1,0.2,0.2,0.3c0.7,1.4,1.5,2.8,2.2,4.1
		c0.2,0.4,0.2,0.6-0.2,0.9c-0.7,0.6-1.2,1.2-1.7,1.9c-1.6,2.3-2.4,4.8-1.6,7.6c0.5,2,2.1,2.9,4.1,2.7c2.6-0.3,5-2.7,5.6-5.6
		c0.5-2.5-0.1-4.9-0.9-7.2c-0.2-0.6-0.3-1.3-0.7-1.8c0,0,0-0.1,0-0.1c0-0.2,0.2-0.4,0.3-0.5c0.9-1,1.8-2,2.6-3.1
		c0.5-0.7,1-1.5,1.5-2.3c-0.1,2.4-0.2,4.9,0.2,7.3c0.3,1.9,0.8,3.7,1.9,5.4c0.9,1.3,1.9,2.2,3.5,2.3c0.2,0,0.4,0,0.7,0
		c0.5,0,1-0.2,1.4-0.4c-0.1-0.2-0.2-0.4-0.4-0.5c0.2,0.1,0.3,0.3,0.4,0.5c0.1-0.1,0.3-0.2,0.4-0.3c0.1-0.1,0.1-0.1,0.2-0.2
		c0.2-0.1,0.4-0.3,0.6-0.4c0.3-0.2,0.5-0.5,0.7-0.8c0.2-0.1,0.3-0.2,0.4-0.4c0-0.1,0.1-0.1,0.1-0.2c0.1-0.1,0.3-0.2,0.2-0.4
		c0.5-0.2,0.6-0.7,0.9-1c0.1-0.1,0.2-0.2,0.2-0.4c-0.1-0.1-0.1-0.1-0.2-0.2c0.1,0,0.1,0.1,0.2,0.2c0.2-0.1,0.3-0.4,0.4-0.6
		c0.3-0.2,0.4-0.5,0.5-0.8c0.9-1.4,1.5-2.9,2.1-4.4c0.7-1.7,1.3-3.4,2-5.2C151.2,123.1,151.2,122.9,151,122.8z M46.5,121
		c-0.1,0.1-0.1,0.3-0.2,0.3c-0.2,0-0.3-0.2-0.3-0.3c-0.5-0.7-0.5-1.6-0.6-2.5c0.1-1,0.2-2,0.7-3c0.1-0.3,0.3-0.6,0.7-0.6
		c0.4,0,0.5,0.4,0.6,0.7c0.2,0.7,0.2,1.3,0.1,2C47.2,118.8,47,119.9,46.5,121z M61.8,126.2c0-0.1,0-0.1,0-0.3
		c0.1-2.2,0.6-4.4,1.6-6.6c0.4-0.9,1-1.8,1.9-2.3c1.1-0.6,1.9-0.3,2.2,0.9c0.3,1.3,0,2.7-0.5,3.9c-0.9,2.2-2.3,3.8-4.4,4.9
		C61.8,127.1,61.8,127.1,61.8,126.2z M61.5,134.4c-0.3,0-0.8-0.4-0.9-0.7C60.7,134,61.2,134.4,61.5,134.4c0.2-0.1,0.4-0.1,0.4,0.2
		C61.9,134.3,61.7,134.3,61.5,134.4z M126.5,120c0-1.2,0.1-2.5,0.8-3.8c0.3-0.5,0.6-1,1.2-1.2c0.7-0.3,1.1-0.1,1.3,0.6
		c0.1,0.3,0.2,0.6,0.2,0.8c0.2,2.3-0.3,4.5-1.5,6.5c-0.3,0.4-0.6,1-1.1,0.9c-0.5-0.1-0.5-0.8-0.6-1.2
		C126.5,121.8,126.5,121,126.5,120z M127.8,141.7c-0.4,1.3-1.2,2-2.2,2c-1.1,0-2.1-0.8-2.4-2.1c-0.7-2.7,0-5,1.6-7.2
		c0.4-0.5,1-0.9,1.4-1.4c0.4-0.4,0.6-0.2,0.7,0.2c0.7,1.4,1.1,2.9,1.2,4.5c0,0.4,0,0.8,0.1,1C128.1,139.9,128.1,140.8,127.8,141.7z
		 M135.7,112.2c-0.3,2.6-0.6,5.2-0.8,7.7c-0.1,1.2-0.3,2.4-0.9,3.5c-1.2,1.9-2.5,3.8-4.1,5.5c0,0,0,0,0,0c-0.1,0-0.1,0-0.2,0
		c-0.1-0.1-0.1-0.2-0.2-0.3c-0.1-0.1-0.2-0.2-0.2-0.4c0-0.2-0.1-0.3-0.2-0.4c-0.1-0.3-0.2-0.5-0.4-0.7c-0.3-0.6-0.6-1.2-0.8-1.8
		c-0.1-0.2-0.1-0.4,0.1-0.6c1.8-1.5,2.6-3.6,2.9-5.8c0.1-1,0.2-1.9,0-2.9c-0.2-1.4-1-2.3-2.4-2.6c-1.8-0.3-3.6-0.2-5.1,0.9
		c-1.6,1.1-2.2,2.8-2.3,4.6c-0.1,1.9,0.4,3.8,1.2,5.5c0.2,0.5,0.4,0.9,0.6,1.3c0,0,0,0.1,0,0.1c-0.7,1.6-1.2,3.2-2,4.7
		c-1,2.1-2.1,4.1-3.8,5.7c-0.3,0.2-0.6,0.4-0.9,0.5c-0.6,0.1-1.2,0-1.6-0.4c-1-0.9-1.4-2.1-1.7-3.4c-0.2-1.2-0.3-2.5-0.4-3.7
		c0-0.2,0-0.4,0.2-0.5c3-1.3,4.9-3.5,6-6.5c0.2-0.7,0.3-1.5,0.4-2.2c0-0.2-0.1-0.4-0.1-0.7c0-2.1-1.6-3-3.1-3.2
		c-2.7-0.3-4.6,0.9-6.1,3c-1.1,1.6-1.8,3.3-2.1,5.2c-0.3,1.9-0.9,3.6-1.7,5.4c-1.1,2.5-2.4,4.9-4.2,7c-0.4,0.4-0.8,0.8-1.2,1.1
		c-1,0.7-2,0.4-2.4-0.7c-0.5-1.3-0.7-2.6-0.8-4c-0.2-3,0.1-6,0.6-9c0.6-3.8,1.2-7.6,1.9-11.3c0.2-0.9,0-0.8,0.9-0.7
		c7.7,0.2,15.5,0.3,23.2,0c3.8-0.1,7.5-0.4,11.2-0.8C135.8,111.4,135.8,111.4,135.7,112.2z M112.3,127.6c0.1-2.7,0.6-5.4,1.8-7.8
		c0.4-0.8,0.9-1.4,1.7-1.9c1-0.6,1.8-0.2,2.2,0.9c0.2,0.5,0.1,1,0.1,1.6c0,0.7-0.1,1.3-0.4,2c-0.9,2.6-2.5,4.4-5,5.5
		C112.4,128,112.3,127.9,112.3,127.6z M140.5,138.2c0.1-0.2,0.2-0.4,0.4-0.6c-0.2-0.1-0.2-0.3-0.2-0.5c-0.1,0.2,0,0.3,0.2,0.5
		C140.7,137.7,140.6,137.9,140.5,138.2z"/>
</g>
<path class="st1" d="M133.8,49.9c-0.3,0.4-0.6,0.8-0.9,1.2c-0.3,0.4-0.6,0.8-0.9,1.2l2,1c0.3-0.4,0.6-0.8,0.9-1.3
	c0.3-0.4,0.6-0.8,0.9-1.2c-0.4-0.2-0.7-0.4-1-0.5C134.4,50.2,134.1,50,133.8,49.9z"/>
<path class="st1" d="M178.3,57.2c-3.1-1.1-7,1.6-6.9,4.9c0,0.7,0.1,1.6-0.6,1.8c-0.2,0.1-0.5,0-0.7,0c-3.7-0.7-7.5-1.9-10.4-4.3
	c-3-2.5-5-6-6.2-9.8c-1.2-3.7-1.5-7.7-1.7-11.6c2.8,0.2,5.5-2.1,5.9-4.9c0.3-2.8-1.8-5.7-4.6-6.1c-2-0.3-4.1,0.5-5.5,2.1
	c-1.3,1.5-1.9,3.7-1.5,5.7c0.1,0.6,0.3,1.4-0.1,1.9c-0.2,0.3-0.5,0.4-0.8,0.6c-1.9,0.9-4,1.7-6.1,2c-3.1,0.4-6.1-0.4-8.9-1.8
	c-0.9-0.5-1.8-1-2.7-1.6c-3.4-2.3-6.2-5.4-8.9-8.5c-0.3-0.3-0.5-0.6-0.5-1c-0.1-0.7,0.6-1.2,1.1-1.6c2.4-2.1,1.9-6.6-1-8
	c-1.8-0.9-4.2-0.4-5.6,1c-2.1,2-1.3,4-1,6.5c0.6,5.9-0.6,11.8-1.6,17.6c-1,5.5-1.7,11.1-2.3,16.7c0,0.3-0.1,0.6,0.1,0.8
	c0.3,0.4,0.8,0.3,1.3,0.3c9.3-1.3,18.8,1.6,26.8,6.4c5.2,3.2,10.1,7.3,12.6,12.9c0.2,0.5,0.5,1.1,1,1.1c0.3,0,0.5-0.1,0.7-0.2
	c6.8-3.9,12.4-9.6,19.6-12.7c0.5-0.2,1-0.4,1.5-0.3c0.5,0.1,0.9,0.3,1.3,0.5c2.9,1.6,7.1,0.5,8.7-2.4
	C182.9,62.5,181.4,58.3,178.3,57.2z M139.9,53.3c-0.3-0.2-0.6-0.4-1-0.6c-0.4-0.2-0.7-0.4-1-0.6c-0.3,0.4-0.6,0.8-0.9,1.3
	c-0.3,0.4-0.6,0.8-0.9,1.3c0.2,0.1,0.4,0.2,0.7,0.4c0.2,0.1,0.5,0.3,0.7,0.5c0.2,0.2,0.5,0.3,0.7,0.5c0.2,0.2,0.4,0.4,0.5,0.5
	c0.4,0.5,0.6,0.9,0.6,1.2c0.1,0.4,0,0.6-0.1,0.7c-0.1,0.1-0.3,0.1-0.6,0c-0.3-0.1-0.5-0.5-0.8-1c-0.4-0.3-0.8-0.5-1.3-0.8
	c-0.5-0.3-0.9-0.5-1.4-0.7c-0.3,0.5-0.7,0.9-1,1.4c-0.3,0.4-0.6,0.9-0.9,1.2c-0.3,0.4-0.5,0.7-0.7,1.1c-0.2,0.3-0.4,0.6-0.5,0.8
	c-0.1,0.2-0.3,0.2-0.5,0.1c-0.2-0.1-0.4-0.3-0.6-0.6c-0.2-0.3-0.4-0.5-0.5-0.8c-0.1-0.3-0.1-0.5,0-0.7c0.2-0.3,0.4-0.5,0.6-0.8
	c0.2-0.3,0.4-0.6,0.6-0.9c0.2-0.3,0.4-0.6,0.6-1c0.2-0.3,0.4-0.6,0.6-0.9c-0.3-0.1-0.6-0.3-0.9-0.4c-0.3-0.2-0.7-0.3-1.1-0.5
	c-0.3,0.4-0.6,0.8-0.9,1.2s-0.6,0.8-0.8,1.2c-0.3,0.4-0.5,0.7-0.7,1.1c-0.2,0.3-0.4,0.6-0.6,0.9c-0.1,0.2-0.3,0.2-0.5,0.1
	c-0.2-0.1-0.4-0.3-0.6-0.6c-0.2-0.3-0.4-0.5-0.5-0.8c-0.1-0.3-0.1-0.5,0-0.7c0,0,0.1-0.2,0.3-0.4c0.1-0.2,0.3-0.5,0.6-0.8
	c0.2-0.3,0.5-0.7,0.8-1.1c0.3-0.4,0.5-0.8,0.8-1.2c-0.2-0.1-0.3-0.2-0.5-0.2c-0.2-0.1-0.3-0.1-0.5-0.2c-0.3-0.1-0.6-0.4-0.8-0.6
	c-0.2-0.3-0.3-0.6-0.4-0.8c-0.1-0.3-0.1-0.5,0-0.6c0.1-0.2,0.2-0.2,0.4-0.1l2.7,1.3c0.3-0.4,0.6-0.8,0.9-1.2
	c0.3-0.4,0.6-0.8,0.9-1.2l-1.6-0.8c-0.3-0.1-0.6-0.4-0.8-0.6c-0.2-0.3-0.3-0.6-0.4-0.8c-0.1-0.3-0.1-0.5,0-0.6s0.2-0.2,0.4-0.1
	l3.4,1.6c0.1-0.2,0.4-0.5,0.6-0.8c0.3-0.3,0.6-0.7,0.9-1.1c0.3-0.4,0.6-0.7,0.9-1c0.3-0.3,0.5-0.5,0.7-0.7c0.2-0.2,0.4-0.2,0.6-0.1
	c0.2,0.1,0.4,0.2,0.6,0.4c0.2,0.2,0.3,0.4,0.5,0.6c0.1,0.2,0.2,0.5,0.3,0.7c0,0.2,0,0.4,0,0.5c-0.1,0.1-0.2,0.1-0.4,0.1
	c-0.2,0.1-0.4,0.3-0.6,0.5c-0.2,0.2-0.4,0.5-0.7,0.7c-0.2,0.3-0.4,0.5-0.6,0.8c-0.2,0.3-0.4,0.4-0.5,0.6c0.3,0.2,0.6,0.3,1,0.5
	s0.6,0.3,0.9,0.5c0.1-0.2,0.4-0.5,0.6-0.8c0.3-0.3,0.6-0.7,0.9-1.1c0.3-0.4,0.6-0.7,0.9-1c0.3-0.3,0.5-0.5,0.7-0.7
	c0.2-0.1,0.4-0.2,0.7-0.1c0.2,0.1,0.4,0.2,0.6,0.4c0.2,0.2,0.3,0.4,0.4,0.6c0.1,0.2,0.2,0.5,0.2,0.7c0,0.2,0,0.4,0,0.5
	s-0.2,0.2-0.4,0.1c-0.2,0.1-0.4,0.3-0.6,0.5c-0.2,0.2-0.5,0.5-0.7,0.8c-0.2,0.3-0.5,0.5-0.7,0.8c-0.2,0.3-0.4,0.5-0.5,0.6
	c0.3,0.2,0.7,0.4,1,0.7c0.4,0.3,0.7,0.5,0.9,0.8c0.4,0.5,0.6,0.9,0.6,1.2c0.1,0.3,0,0.6-0.1,0.7c-0.1,0.1-0.3,0.1-0.6,0
	C140.5,54.1,140.2,53.8,139.9,53.3z M149.7,52.3c-0.1,0-0.2,0.1-0.3,0c-0.2,0.1-0.4,0.4-0.6,0.8c-0.3,0.4-0.6,0.9-0.9,1.5
	c-0.3,0.6-0.7,1.3-1.1,2c-0.4,0.7-0.8,1.5-1.2,2.2c-0.4,0.8-0.8,1.5-1.1,2.2c-0.4,0.7-0.7,1.4-1,2c-0.3,0.6-0.6,1.2-0.8,1.6
	c-0.2,0.4-0.4,0.8-0.4,0.9c-0.1,0.2-0.3,0.2-0.5,0.1c-0.2-0.1-0.4-0.3-0.6-0.5c-0.2-0.2-0.4-0.5-0.5-0.8c-0.1-0.3-0.1-0.6-0.1-0.8
	c0.3-0.7,0.7-1.5,1.1-2.3c0.4-0.9,0.9-1.8,1.3-2.7c0.5-0.9,0.9-1.8,1.4-2.7c0.5-0.9,0.9-1.7,1.3-2.4c-0.2,0.1-0.5,0.2-0.7,0.4
	c-0.2,0.1-0.5,0.3-0.7,0.4c-0.1,0.1-0.3,0-0.5-0.1c-0.2-0.1-0.3-0.3-0.5-0.5c-0.1-0.2-0.2-0.4-0.3-0.6c0-0.2,0-0.3,0.1-0.4
	c0.9-0.5,1.6-0.8,2.2-1.1c0.6-0.3,1-0.6,1.4-0.7c0.4-0.2,0.6-0.3,0.8-0.4c0.2-0.1,0.3-0.2,0.4-0.2s0.1-0.1,0.2-0.1c0,0,0,0,0.1,0
	c0.2,0,0.4,0,0.6,0.2c0.2,0.2,0.4,0.4,0.6,0.7c0.2,0.3,0.3,0.5,0.3,0.8C149.9,51.9,149.9,52.1,149.7,52.3z"/>
</svg>
