<?xml version="1.0" encoding="utf-8"?>
<!-- Generator: Adobe Illustrator 17.0.0, SVG Export Plug-In . SVG Version: 6.00 Build 0)  -->
<!DOCTYPE svg PUBLIC "-//W3C//DTD SVG 1.1//EN" "http://www.w3.org/Graphics/SVG/1.1/DTD/svg11.dtd">
<svg version="1.1" id="Layer_1" xmlns="http://www.w3.org/2000/svg" xmlns:xlink="http://www.w3.org/1999/xlink" x="0px" y="0px"
	 width="180px" height="161.918px" viewBox="10 19.041 180 161.918" enable-background="new 10 19.041 180 161.918"
	 xml:space="preserve">
<polygon fill="#CC3B7D" points="131.813,114.225 131.682,114.225 131.813,114.095 131.943,114.095 "/>
<g>
	<g>
		<path fill="#F18091" d="M128.684,176.551L128.684,176.551c-2.347,0-4.564-0.13-5.868-0.261c-0.391,0-0.652-0.391-0.652-0.652
			c0-0.391,0.261-0.652,0.652-0.652c1.434,0.13,3.521,0.261,5.868,0.261c0.391,0,0.652,0.261,0.652,0.652
			C129.335,176.291,129.075,176.551,128.684,176.551z"/>
	</g>
	<g>
		<path fill="#F18091" d="M140.549,175.508c-0.261,0-0.522-0.13-0.652-0.522c-0.13-0.391,0.13-0.652,0.522-0.782
			c0.782-0.261,1.434-0.391,2.086-0.652v-0.13c0.13-0.391,0.391-0.522,0.782-0.522c0.13,0,0.261,0,0.391,0.13
			c1.695-0.913,2.999-2.086,3.651-3.39c0.391-0.652,0.522-1.434,0.652-2.347c0-0.391,0.391-0.652,0.652-0.652
			c0.391,0,0.652,0.391,0.652,0.652c-0.13,1.043-0.391,1.956-0.782,2.738c-0.652,1.174-1.565,2.347-2.869,3.129
			c2.608,0.261,5.607,0.13,9.127-0.391c0.391,0,0.652,0.13,0.782,0.522c0.13,0.391-0.13,0.652-0.522,0.782
			c-4.433,0.782-8.084,0.782-11.083,0.13c-0.913,0.391-1.956,0.782-3.129,1.173C140.549,175.508,140.549,175.508,140.549,175.508z
			 M165.975,170.423c-0.261,0-0.391-0.13-0.522-0.391c-0.13-0.261,0-0.652,0.261-0.913c3.39-1.956,6.259-4.433,8.606-7.563
			c0.261-0.261,0.652-0.391,0.913-0.13c0.261,0.261,0.391,0.652,0.13,0.913c-2.347,3.26-5.346,5.998-8.997,7.954
			C166.236,170.423,166.105,170.423,165.975,170.423z M135.594,165.99c-0.261,0-0.652-0.261-0.652-0.522c0-0.391,0-0.652,0-1.043
			c0-1.173,0.261-2.086,0.782-2.999c1.304-2.347,4.042-3.912,6.911-3.912c0.13,0,0.391,0,0.522,0c0.391,0,0.652,0.391,0.652,0.652
			c0,0.391-0.391,0.652-0.652,0.652c-0.13,0-0.261,0-0.391,0c-2.347,0-4.694,1.304-5.737,3.26c-0.391,0.652-0.522,1.565-0.522,2.347
			c0,0.261,0,0.522,0,0.913C136.377,165.599,136.116,165.859,135.594,165.99C135.725,165.99,135.725,165.99,135.594,165.99z
			 M179.535,151.908h-0.13c-0.391-0.13-0.522-0.391-0.522-0.782c0.913-3.521,1.304-7.302,1.304-11.344v-0.261
			c0-0.391,0.261-0.652,0.652-0.652s0.652,0.261,0.652,0.652v0.261c0,4.172-0.522,8.084-1.304,11.735
			C180.187,151.777,179.927,151.908,179.535,151.908z M179.144,128.568c-0.261,0-0.522-0.13-0.652-0.391
			c-1.174-2.608-3.521-5.868-8.215-7.302c-0.391-0.13-0.522-0.522-0.391-0.782c0.13-0.391,0.522-0.522,0.782-0.391
			c5.085,1.565,7.693,5.216,8.997,7.954c0.13,0.391,0,0.652-0.261,0.913C179.405,128.568,179.275,128.568,179.144,128.568z
			 M147.72,124.917c-0.261,0-0.652-0.261-0.652-0.522c0-0.391,0.261-0.652,0.522-0.782c1.565-0.13,3.129-0.652,4.955-1.434
			c2.217-0.913,4.303-1.695,6.259-2.217c0.391-0.13,0.652,0.13,0.782,0.522c0.13,0.391-0.13,0.652-0.522,0.782
			c-1.956,0.522-3.912,1.304-5.998,2.217C151.241,124.135,149.415,124.656,147.72,124.917L147.72,124.917z M137.159,120.745
			c-0.13,0-0.391-0.13-0.522-0.261c-2.217-2.477-4.172-5.998-5.737-10.562c-0.13-0.391,0.13-0.652,0.391-0.782
			c0.391-0.13,0.652,0.13,0.782,0.391c1.434,4.303,3.26,7.693,5.476,10.04c0.261,0.261,0.261,0.652,0,0.913
			C137.42,120.745,137.289,120.745,137.159,120.745z"/>
	</g>
	<g>
		<path fill="#F18091" d="M128.814,98.839c-0.261,0-0.652-0.261-0.652-0.522c-0.261-1.956-0.522-3.912-0.782-5.868
			c0-0.391,0.261-0.652,0.652-0.652c0.391,0,0.652,0.261,0.652,0.652c0.13,1.956,0.391,3.912,0.652,5.737
			C129.466,98.448,129.205,98.709,128.814,98.839L128.814,98.839z"/>
	</g>
	<g>
		<g>
			<path fill="#F18091" d="M128.162,92.841c-1.304,1.434-3.912,2.347-5.737,2.477c2.347-2.086,4.303-4.694,5.346-7.693
				c1.434,2.869,3.912,4.955,6.389,6.78C132.204,94.536,129.727,94.145,128.162,92.841z"/>
		</g>
	</g>
</g>
<g>
	<path fill="#F18091" d="M13.158,19.954h12.778l5.737,40.682h0.13l5.737-40.682h12.648v56.85h-8.475V33.775h-0.13l-6.519,43.029
		h-7.432l-6.519-43.029h-0.13v43.029h-7.823C13.158,76.803,13.158,19.954,13.158,19.954z"/>
	<path fill="#F18091" d="M59.707,73.935c-2.347-2.477-3.521-5.998-3.521-10.562v-29.99c0-4.564,1.174-8.084,3.521-10.562
		c2.347-2.477,5.737-3.781,10.04-3.781c4.433,0,7.693,1.304,10.04,3.781c2.347,2.477,3.521,5.998,3.521,10.562v29.859
		c0,4.564-1.174,8.084-3.521,10.562c-2.347,2.477-5.737,3.781-10.04,3.781S62.054,76.412,59.707,73.935z M74.441,63.895V32.862
		c0-3.781-1.565-5.607-4.694-5.607c-3.129,0-4.694,1.825-4.694,5.607v31.033c0,3.781,1.565,5.607,4.694,5.607
		C72.877,69.502,74.441,67.676,74.441,63.895z"/>
	<path fill="#F18091" d="M89.436,19.954h12.778l5.737,40.682h0.13l5.737-40.682h12.778v56.85h-8.606V33.775h-0.13l-6.519,43.029
		h-7.432L97.39,33.775h-0.13v43.029h-7.823C89.436,76.803,89.436,19.954,89.436,19.954z"/>
</g>
<g>
	<g>
		<path d="M13.158,94.536l0.261-5.346l0.13-2.477c0-0.391,0-0.782,0-0.913c0.13,0,0.261,0,0.391,0c0.13,0,0.13,0,0.391,0
			l-0.13,1.956c0.13-0.261,0.261-0.522,0.261-0.652c0.13-0.13,0.261-0.261,0.391-0.391c0.13-0.13,0.261-0.261,0.522-0.391
			c0.261-0.13,0.391-0.261,0.782-0.391c0.261-0.13,0.522-0.13,0.913-0.261c0.391-0.13,0.652,0,0.913,0c0.522,0,0.913,0,1.434,0.13
			c0.522,0.13,0.782,0.261,1.174,0.522c0.261,0.261,0.522,0.522,0.652,0.913c0.13,0.391,0.13,0.782,0.13,1.174
			c0,0.13,0,0.391,0,0.782l-0.13,3.912v1.434c-0.13,0-0.261,0-0.391,0c-0.13,0-0.261,0-0.391,0c0-0.782,0.13-1.434,0.13-2.086
			l0.13-2.217c0-0.782,0.13-1.434,0.13-1.825c0-0.391,0-0.782-0.13-1.043s-0.261-0.522-0.522-0.782
			c-0.261-0.261-0.652-0.391-0.913-0.391s-0.782-0.13-1.174-0.13c-0.522,0-1.043,0.13-1.434,0.261
			c-0.391,0.13-0.782,0.391-1.043,0.652s-0.522,0.652-0.782,1.043c-0.13,0.261-0.261,0.782-0.391,1.304s-0.13,1.304-0.13,2.347
			s0,2.086,0,2.738c-0.13,0-0.261,0-0.391,0C13.419,94.536,13.289,94.536,13.158,94.536z"/>
		<path d="M19.939,94.797v-0.13c0-0.652,0.13-1.434,0.13-2.086l0.13-2.217c0-0.782,0.13-1.434,0.13-1.825
			c0-0.391,0-0.652-0.13-0.913s-0.261-0.522-0.522-0.652s-0.522-0.261-0.913-0.391c-0.391-0.13-0.782-0.13-1.043-0.13
			c-0.522,0-1.043,0.13-1.434,0.261c-0.391,0.13-0.652,0.391-1.043,0.652c-0.261,0.261-0.522,0.652-0.652,1.043
			c-0.13,0.261-0.261,0.782-0.261,1.304c-0.13,0.522-0.13,1.304-0.13,2.347c0,1.043,0,2.086,0,2.738v0.13h-0.13
			c-0.261,0-0.391,0-0.652,0h-0.13l0.261-5.476l0.13-2.477c0-0.391,0-0.782,0-0.913v-0.13h0.13c0.13,0,0.261,0,0.391,0
			s0.13,0,0.261,0h0.13l-0.261,1.173c0.13-0.13,0.261-0.261,0.391-0.391c0.13-0.13,0.391-0.391,0.522-0.522
			c0.261-0.13,0.522-0.261,0.782-0.391c0.261-0.13,0.652-0.13,0.913-0.261c0.782-0.13,1.565-0.13,2.347,0.13
			c0.522,0.13,0.913,0.261,1.174,0.652c0.261,0.261,0.522,0.652,0.652,1.043s0.13,0.782,0.13,1.174c0,0.13,0,0.391,0,0.782
			l-0.13,3.912v1.565h-0.13c-0.261,0-0.391,0-0.652,0L19.939,94.797z M13.419,94.406h0.13c0-0.782,0-1.565,0-2.608
			c0-1.043,0.13-1.956,0.13-2.347c0.13-0.522,0.13-1.043,0.391-1.304c0.261-0.391,0.522-0.782,0.782-1.174
			c0.261-0.261,0.652-0.522,1.043-0.652s0.913-0.261,1.565-0.261c0.391,0,0.782,0,1.174,0.13c0.391,0.13,0.782,0.261,1.043,0.522
			c0.261,0.261,0.522,0.522,0.652,0.782c0.13,0.261,0.13,0.652,0.13,1.043s0,0.913-0.13,1.825l-0.13,2.217
			c0,0.652-0.13,1.304-0.13,1.956c0.13,0,0.261,0,0.391,0v-1.304l0.13-3.912c0-0.391,0-0.652,0-0.782c0-0.391,0-0.782-0.13-1.043
			c-0.13-0.261-0.261-0.652-0.522-0.913c-0.261-0.261-0.652-0.391-1.043-0.522C18.374,85.8,17.592,85.8,16.809,85.8
			c-0.261,0-0.522,0.13-0.782,0.261c-0.261,0.13-0.522,0.261-0.652,0.391c-0.13,0.13-0.391,0.261-0.522,0.391
			c-0.13,0.13-0.261,0.261-0.261,0.391c-0.13,0.13-0.13,0.391-0.261,0.652l-0.391,0.782l0.13-2.608c-0.13,0-0.261,0-0.391,0
			c0,0.261,0,0.522,0,0.782l-0.13,2.477l-0.261,5.085C13.419,94.406,13.419,94.406,13.419,94.406z"/>
	</g>
	<g>
		<path d="M27.371,85.67c0.522,0,1.043,0.13,1.565,0.261c0.522,0.13,0.913,0.391,1.304,0.782c0.391,0.391,0.652,0.782,0.913,1.434
			c0.261,0.522,0.261,1.174,0.261,1.825c0,0.652-0.13,1.434-0.261,2.086c-0.261,0.652-0.522,1.174-0.913,1.565
			c-0.391,0.391-0.913,0.782-1.434,0.913c-0.522,0.13-1.043,0.261-1.695,0.261c-0.391,0-0.782,0-1.174-0.13
			c-0.391-0.13-0.782-0.261-1.174-0.522c-0.391-0.261-0.652-0.522-0.913-0.913c-0.261-0.391-0.522-0.782-0.652-1.304
			c-0.13-0.522-0.261-1.043-0.261-1.565c0-0.913,0.13-1.825,0.522-2.608c0.391-0.782,0.913-1.304,1.565-1.695
			C25.806,85.8,26.589,85.67,27.371,85.67z M27.371,86.061c-0.652,0-1.304,0.13-1.956,0.522c-0.652,0.391-1.043,0.913-1.304,1.565
			s-0.391,1.434-0.391,2.217c0,0.522,0.13,1.174,0.261,1.695c0.13,0.522,0.391,0.913,0.782,1.304
			c0.391,0.391,0.782,0.652,1.174,0.782c0.391,0.13,0.782,0.261,1.304,0.261s1.043-0.13,1.434-0.261
			c0.391-0.13,0.913-0.391,1.174-0.782c0.391-0.391,0.652-0.913,0.782-1.434c0.13-0.522,0.261-1.174,0.261-1.825
			c0-0.652-0.13-1.174-0.261-1.695c-0.13-0.522-0.391-0.913-0.782-1.304c-0.391-0.261-0.782-0.522-1.174-0.652
			C28.153,86.191,27.762,86.061,27.371,86.061z"/>
		<path d="M27.11,94.928c-0.391,0-0.913,0-1.304-0.13c-0.391-0.13-0.782-0.261-1.174-0.522c-0.391-0.261-0.652-0.522-0.913-0.913
			s-0.522-0.782-0.652-1.304c-0.13-0.522-0.261-1.043-0.261-1.565c0-0.913,0.13-1.825,0.522-2.608
			c0.391-0.782,0.913-1.434,1.695-1.825c0.652-0.391,1.434-0.522,2.347-0.522c0.522,0,1.043,0.13,1.565,0.261
			s1.043,0.391,1.434,0.782c0.391,0.391,0.652,0.913,0.913,1.434c0.261,0.652,0.261,1.304,0.261,1.956
			c0,0.782-0.13,1.434-0.391,2.086c-0.261,0.652-0.522,1.174-0.913,1.695c-0.391,0.522-0.913,0.782-1.434,0.913
			C28.284,94.797,27.762,94.928,27.11,94.928z M27.371,85.8c-0.782,0-1.434,0.13-2.217,0.522c-0.652,0.391-1.174,0.913-1.434,1.565
			c-0.391,0.782-0.522,1.565-0.522,2.477c0,0.522,0.13,1.043,0.261,1.434c0.13,0.522,0.261,0.913,0.522,1.174
			c0.261,0.391,0.522,0.652,0.913,0.782c0.391,0.261,0.652,0.391,1.043,0.522c0.913,0.261,1.956,0.13,2.869-0.13
			c0.522-0.13,0.913-0.522,1.304-0.913c0.391-0.391,0.652-0.913,0.913-1.565s0.261-1.304,0.261-1.956
			c0-0.652-0.13-1.304-0.261-1.825c-0.13-0.522-0.522-1.043-0.782-1.304c-0.261-0.261-0.782-0.652-1.304-0.782
			C28.414,85.931,27.892,85.8,27.371,85.8z M27.11,94.406c-0.522,0-0.913-0.13-1.304-0.261c-0.391-0.13-0.782-0.391-1.174-0.782
			c-0.391-0.391-0.652-0.782-0.782-1.304c-0.13-0.522-0.261-1.043-0.261-1.695c0-0.782,0.13-1.565,0.391-2.347
			c0.261-0.782,0.782-1.304,1.434-1.565c0.652-0.391,1.304-0.522,1.956-0.522c0.522,0,0.913,0.13,1.304,0.261
			c0.391,0.13,0.913,0.391,1.174,0.652c0.391,0.391,0.652,0.782,0.782,1.304s0.261,1.174,0.261,1.695
			c0,0.652-0.13,1.304-0.261,1.825c-0.13,0.652-0.391,1.043-0.782,1.565c-0.391,0.391-0.782,0.652-1.304,0.913
			C28.153,94.406,27.632,94.406,27.11,94.406z M27.371,86.322c-0.652,0-1.304,0.13-1.825,0.522
			c-0.522,0.261-0.913,0.782-1.174,1.434s-0.391,1.434-0.391,2.217c0,0.522,0.13,1.043,0.261,1.565
			c0.13,0.522,0.391,0.913,0.782,1.174c0.391,0.391,0.652,0.522,1.043,0.652c0.782,0.261,1.825,0.261,2.608,0
			c0.391-0.13,0.782-0.391,1.174-0.782c0.391-0.391,0.522-0.782,0.782-1.434c0.13-0.522,0.261-1.174,0.261-1.825
			c0-0.522-0.13-1.174-0.261-1.695c-0.13-0.522-0.391-0.913-0.652-1.174c-0.261-0.261-0.652-0.522-1.043-0.652
			C28.153,86.322,27.762,86.322,27.371,86.322z"/>
	</g>
	<g>
		<path d="M40.931,94.536c-0.13,0-0.261,0-0.261,0c-0.13,0-0.261,0-0.261,0l0.13-1.825c-0.13,0.261-0.261,0.522-0.391,0.652
			c-0.13,0.13-0.13,0.261-0.391,0.391c-0.261,0.13-0.261,0.261-0.522,0.391c-0.261,0.13-0.391,0.261-0.652,0.391
			c-0.261,0.13-0.522,0.13-0.782,0.261c-0.261,0-0.522,0-0.913,0c-0.522,0-0.913,0-1.434-0.13c-0.391-0.13-0.782-0.261-1.174-0.522
			c-0.391-0.261-0.522-0.652-0.652-0.913c-0.13-0.391-0.13-0.782-0.13-1.174s0-1.174,0.13-2.608c0.13-1.434,0.13-2.477,0.13-3.39
			c0.13,0,0.261,0,0.391,0c0.13,0,0.13,0,0.391,0c0,0.522-0.13,1.565-0.261,3.129c-0.13,1.565-0.13,2.608-0.13,2.999
			c0,0.391,0,0.782,0.13,1.174s0.261,0.522,0.652,0.782c0.261,0.261,0.652,0.391,0.913,0.391c0.391,0.13,0.782,0.13,1.174,0.13
			s0.782,0,1.174-0.13c0.391-0.13,0.652-0.261,0.913-0.391c0.261-0.13,0.522-0.391,0.652-0.522c0.261-0.261,0.391-0.522,0.522-0.913
			c0.13-0.261,0.261-0.652,0.261-1.043s0.13-1.174,0.13-2.347c0-1.043,0-2.086,0.13-2.999c0.13,0,0.261,0,0.391,0
			c0.13,0,0.13,0,0.391,0l-0.261,6.128v1.304C40.931,93.754,40.931,94.276,40.931,94.536z"/>
		<path d="M36.759,94.928c-0.522,0-1.043,0-1.434-0.13s-0.913-0.261-1.174-0.652c-0.391-0.261-0.652-0.652-0.782-1.043
			c-0.13-0.391-0.13-0.782-0.13-1.304c0-0.391,0-1.304,0.13-2.608c0.13-1.434,0.13-2.477,0.13-3.39v-0.13h0.13
			c0.261,0,0.391,0,0.652,0h0.13v0.13c0,0.522-0.13,1.565-0.261,3.129c-0.13,1.565-0.13,2.608-0.13,2.999s0,0.782,0.13,1.043
			c0.13,0.261,0.261,0.522,0.522,0.652s0.522,0.261,0.913,0.391c0.652,0.13,1.434,0.13,2.217,0c0.391-0.13,0.652-0.261,0.913-0.391
			c0.261-0.13,0.391-0.261,0.652-0.522c0.261-0.261,0.391-0.522,0.522-0.782c0.13-0.261,0.261-0.652,0.261-1.043
			s0.13-1.174,0.13-2.347c0-1.043,0-2.086,0.13-2.999V85.8h0.13c0.261,0,0.391,0,0.652,0h0.13l-0.391,6.259v1.304
			c0,0.522,0,1.043,0,1.434v0.13h-0.13c-0.261,0-0.391,0-0.652,0h-0.13v-1.304c-0.13,0.13-0.261,0.261-0.391,0.391
			c-0.13,0.13-0.261,0.261-0.522,0.391c-0.261,0.13-0.522,0.261-0.782,0.391c-0.261,0.13-0.522,0.13-0.913,0.261
			C37.411,94.928,37.15,94.928,36.759,94.928z M33.76,85.931c0,0.913,0,1.956-0.13,3.26c-0.13,1.434-0.13,2.217-0.13,2.608
			c0,0.391,0,0.782,0.13,1.174c0.13,0.391,0.261,0.652,0.652,0.913c0.261,0.261,0.652,0.391,1.043,0.522
			c0.652,0.13,1.434,0.261,2.217,0.13c0.261,0,0.522-0.13,0.782-0.13c0.261-0.13,0.522-0.13,0.652-0.261
			c0.13-0.13,0.391-0.261,0.522-0.391c0.13-0.13,0.261-0.261,0.261-0.391c0.13-0.13,0.13-0.261,0.261-0.652l0.391-0.782l-0.13,2.477
			c0.13,0,0.261,0,0.261,0c0-0.391,0-0.782,0-1.174v-1.304l0.261-5.868c-0.13,0-0.261,0-0.391,0c0,0.913,0,1.825-0.13,2.869
			c0,1.174-0.13,1.956-0.13,2.347c-0.13,0.391-0.13,0.782-0.261,1.174c-0.13,0.391-0.391,0.652-0.522,0.913
			c-0.261,0.261-0.391,0.391-0.652,0.652c-0.261,0.13-0.522,0.261-0.913,0.391c-0.782,0.261-1.565,0.261-2.347,0
			c-0.391-0.13-0.782-0.261-1.043-0.391c-0.261-0.261-0.522-0.522-0.652-0.782c-0.13-0.261-0.13-0.782-0.13-1.174
			s0-1.434,0.13-2.999c0.13-1.434,0.13-2.347,0.13-2.869C34.021,85.931,33.89,85.931,33.76,85.931z"/>
	</g>
	<g>
		<path d="M43.409,94.536l0.261-5.346l0.13-2.477c0-0.391,0-0.782,0-0.913c0.13,0,0.261,0,0.391,0c0.13,0,0.13,0,0.391,0
			l-0.13,1.956c0.13-0.261,0.261-0.522,0.261-0.652c0.13-0.13,0.261-0.261,0.391-0.391c0.13-0.13,0.261-0.261,0.522-0.391
			c0.261-0.13,0.391-0.261,0.782-0.391c0.261-0.13,0.522-0.13,0.913-0.261s0.652,0,0.913,0c0.522,0,0.913,0,1.434,0.13
			c0.522,0.13,0.782,0.261,1.174,0.522c0.261,0.261,0.522,0.522,0.652,0.913c0.13,0.391,0.13,0.782,0.13,1.174
			c0,0.13,0,0.391,0,0.782l-0.13,3.912v1.434c-0.13,0-0.261,0-0.391,0c-0.13,0-0.261,0-0.391,0c0-0.782,0.13-1.434,0.13-2.086
			l0.13-2.217c0-0.782,0.13-1.434,0.13-1.825c0-0.391,0-0.782-0.13-1.043c-0.13-0.261-0.261-0.522-0.522-0.782
			c-0.261-0.261-0.652-0.391-0.913-0.391c-0.391-0.13-0.782-0.13-1.174-0.13c-0.522,0-1.043,0.13-1.434,0.261
			c-0.391,0.13-0.782,0.391-1.043,0.652c-0.261,0.261-0.522,0.652-0.782,1.043c-0.13,0.261-0.261,0.782-0.391,1.304
			c-0.13,0.522-0.13,1.304-0.13,2.347s0,2.086,0,2.738c-0.13,0-0.261,0-0.391,0C43.67,94.536,43.539,94.536,43.409,94.536z"/>
		<path d="M50.189,94.797v-0.13c0-0.782,0.13-1.434,0.13-2.086l0.13-2.217c0-0.782,0.13-1.434,0.13-1.825
			c0-0.391,0-0.652-0.13-0.913s-0.261-0.522-0.522-0.652c-0.261-0.13-0.522-0.261-0.913-0.391c-0.391-0.13-0.782-0.13-1.043-0.13
			c-0.522,0-1.043,0.13-1.434,0.261c-0.391,0.13-0.652,0.391-1.043,0.652c-0.261,0.261-0.522,0.652-0.652,1.043
			c-0.13,0.261-0.261,0.782-0.261,1.304c-0.13,0.522-0.13,1.304-0.13,2.347c0,1.043,0,2.086,0,2.738v0.13h-0.13
			c-0.261,0-0.391,0-0.652,0h-0.13l0.261-5.476l0.13-2.477c0-0.391,0-0.782,0-0.913v-0.13h0.13c0.13,0,0.261,0,0.391,0
			c0.13,0,0.13,0,0.261,0h0.13l-0.261,1.173c0.13-0.13,0.261-0.261,0.391-0.391c0.13-0.13,0.391-0.391,0.522-0.522
			c0.261-0.13,0.522-0.261,0.782-0.391c0.261-0.13,0.652-0.13,0.913-0.261c0.782-0.13,1.565-0.13,2.347,0.13
			c0.522,0.13,0.913,0.261,1.174,0.652c0.261,0.261,0.522,0.652,0.652,1.043c0.13,0.391,0.13,0.782,0.13,1.174
			c0,0.13,0,0.391,0,0.782l-0.13,3.912v1.565h-0.13c-0.261,0-0.391,0-0.652,0L50.189,94.797z M43.8,94.406h0.13
			c0-0.782,0-1.565,0-2.608c0-1.043,0.13-1.956,0.13-2.347c0.13-0.522,0.13-1.043,0.391-1.304c0.261-0.391,0.522-0.782,0.782-1.174
			c0.261-0.261,0.652-0.522,1.043-0.652s0.913-0.261,1.565-0.261c0.391,0,0.782,0,1.174,0.13c0.391,0.13,0.782,0.261,1.043,0.522
			c0.261,0.261,0.522,0.522,0.652,0.782c0.13,0.261,0.13,0.652,0.13,1.043s0,0.913-0.13,1.825l-0.13,2.217
			c0,0.652-0.13,1.174-0.13,1.956c0.13,0,0.261,0,0.391,0v-1.304l0.13-3.912c0-0.391,0-0.652,0-0.782c0-0.391,0-0.782-0.13-1.043
			c-0.13-0.391-0.261-0.652-0.522-0.913c-0.261-0.261-0.652-0.391-1.043-0.522C48.624,85.8,47.842,85.8,47.06,85.8
			c-0.261,0-0.522,0.13-0.782,0.261s-0.522,0.261-0.652,0.391c-0.13,0.13-0.391,0.261-0.522,0.391s-0.261,0.261-0.261,0.391
			c-0.13,0.13-0.13,0.391-0.261,0.652l-0.391,0.782l0.13-2.608c-0.13,0-0.261,0-0.391,0c0,0.261,0,0.522,0,0.782l-0.13,2.477
			l-0.261,5.085C43.67,94.406,43.67,94.406,43.8,94.406z"/>
	</g>
	<g>
		<path d="M53.579,94.536c0-0.261,0-0.391,0-0.522s0-0.261,0-0.391c0.261,0,0.391,0,0.522,0c0.13,0,0.261,0,0.522,0
			c0,0.13,0,0.391,0,0.522c0,0.13,0,0.261,0,0.391c-0.261,0-0.391,0-0.522,0C53.84,94.536,53.71,94.536,53.579,94.536z"/>
		<path d="M53.318,94.797v-0.13c0-0.261,0-0.391,0-0.522s0-0.261,0-0.391v-0.13h0.13c0.261,0,0.391,0,0.522,0
			c0.13,0,0.261,0,0.522,0h0.13v0.13c0,0.13,0,0.391,0,0.522s0,0.261,0,0.391v0.13h-0.13c-0.261,0-0.391,0-0.522,0
			c-0.13,0-0.261,0-0.522,0H53.318z M53.97,94.406c0.13,0,0.261,0,0.391,0c0-0.13,0-0.13,0-0.261s0-0.261,0-0.391
			c-0.261,0-0.391,0-0.652,0c0,0.13,0,0.13,0,0.261s0,0.261,0,0.391C53.84,94.406,53.97,94.406,53.97,94.406z"/>
	</g>
</g>
<g enable-background="new    ">
	<path d="M20.308,111.806c0,0.135-0.007,0.252-0.022,0.351c-0.014,0.099-0.037,0.18-0.069,0.239
		c-0.032,0.061-0.071,0.106-0.117,0.134c-0.046,0.028-0.098,0.042-0.155,0.042H16.07v11.949c0,0.056-0.015,0.106-0.043,0.149
		c-0.029,0.042-0.078,0.076-0.149,0.101c-0.071,0.025-0.166,0.046-0.283,0.064c-0.117,0.018-0.264,0.027-0.442,0.027
		c-0.17,0-0.316-0.009-0.436-0.027c-0.121-0.018-0.217-0.038-0.288-0.064c-0.071-0.024-0.121-0.059-0.149-0.101
		c-0.029-0.043-0.043-0.093-0.043-0.149v-11.949h-3.876c-0.057,0-0.109-0.014-0.155-0.042c-0.046-0.028-0.083-0.073-0.112-0.134
		c-0.028-0.06-0.052-0.14-0.069-0.239c-0.018-0.099-0.027-0.216-0.027-0.351c0-0.135,0.009-0.253,0.027-0.357
		c0.017-0.103,0.041-0.186,0.069-0.251c0.029-0.064,0.066-0.11,0.112-0.138c0.046-0.029,0.097-0.043,0.155-0.043h9.584
		c0.057,0,0.108,0.014,0.155,0.043c0.046,0.028,0.085,0.074,0.117,0.138c0.032,0.065,0.055,0.148,0.069,0.251
		C20.301,111.552,20.308,111.671,20.308,111.806z"/>
	<path d="M30.35,124.531c0,0.057-0.015,0.104-0.043,0.144c-0.029,0.039-0.074,0.073-0.139,0.101
		c-0.064,0.028-0.152,0.05-0.266,0.064c-0.113,0.015-0.255,0.022-0.426,0.022c-0.178,0-0.323-0.006-0.436-0.022
		c-0.114-0.014-0.202-0.036-0.267-0.064c-0.064-0.028-0.11-0.061-0.138-0.101c-0.029-0.039-0.043-0.087-0.043-0.144v-5.612
		c0-0.548-0.043-0.987-0.128-1.32c-0.085-0.334-0.209-0.621-0.372-0.863c-0.164-0.241-0.374-0.425-0.633-0.554
		c-0.259-0.127-0.559-0.191-0.9-0.191c-0.44,0-0.88,0.155-1.32,0.469c-0.44,0.312-0.902,0.77-1.384,1.374v6.698
		c0,0.057-0.015,0.104-0.043,0.144c-0.029,0.039-0.074,0.073-0.138,0.101c-0.064,0.028-0.153,0.05-0.267,0.064
		c-0.113,0.015-0.259,0.022-0.436,0.022c-0.171,0-0.313-0.006-0.426-0.022c-0.114-0.014-0.204-0.036-0.272-0.064
		c-0.067-0.028-0.113-0.061-0.138-0.101c-0.025-0.039-0.038-0.087-0.038-0.144v-14.227c0-0.057,0.012-0.107,0.038-0.149
		c0.025-0.043,0.071-0.078,0.138-0.107c0.067-0.028,0.158-0.05,0.272-0.064c0.113-0.014,0.255-0.022,0.426-0.022
		c0.177,0,0.323,0.008,0.436,0.022c0.114,0.014,0.202,0.036,0.267,0.064c0.064,0.029,0.11,0.064,0.138,0.107
		c0.028,0.042,0.043,0.092,0.043,0.149v5.74c0.504-0.534,1.012-0.928,1.523-1.188c0.511-0.258,1.026-0.388,1.544-0.388
		c0.639,0,1.177,0.108,1.613,0.325s0.789,0.506,1.059,0.868c0.27,0.362,0.463,0.786,0.581,1.272
		c0.117,0.486,0.176,1.073,0.176,1.762V124.531z"/>
	<path d="M41.734,119.323c0,0.278-0.07,0.475-0.209,0.592c-0.139,0.117-0.298,0.176-0.476,0.176h-6.311
		c0,0.532,0.053,1.011,0.16,1.438c0.107,0.425,0.285,0.791,0.535,1.096c0.25,0.306,0.574,0.54,0.974,0.703
		c0.399,0.163,0.888,0.244,1.466,0.244c0.456,0,0.863-0.037,1.22-0.112c0.357-0.074,0.665-0.158,0.926-0.25
		c0.26-0.092,0.474-0.176,0.642-0.251c0.167-0.074,0.294-0.111,0.379-0.111c0.05,0,0.095,0.011,0.134,0.037
		c0.039,0.024,0.07,0.062,0.091,0.112c0.022,0.05,0.038,0.118,0.048,0.208c0.011,0.089,0.016,0.196,0.016,0.325
		c0,0.092-0.004,0.172-0.011,0.239c-0.007,0.067-0.016,0.127-0.026,0.181c-0.011,0.053-0.029,0.102-0.053,0.144
		c-0.025,0.042-0.057,0.084-0.096,0.122c-0.039,0.039-0.154,0.103-0.346,0.192c-0.192,0.089-0.441,0.176-0.746,0.261
		c-0.306,0.085-0.658,0.16-1.059,0.228c-0.401,0.067-0.829,0.102-1.284,0.102c-0.788,0-1.478-0.111-2.071-0.33
		c-0.593-0.22-1.091-0.548-1.496-0.98c-0.405-0.433-0.71-0.975-0.916-1.629c-0.206-0.653-0.309-1.413-0.309-2.279
		c0-0.824,0.106-1.564,0.319-2.221c0.213-0.656,0.52-1.213,0.921-1.672c0.401-0.457,0.886-0.809,1.454-1.054
		c0.568-0.244,1.203-0.367,1.906-0.367c0.753,0,1.393,0.121,1.922,0.362c0.529,0.242,0.964,0.567,1.305,0.974
		c0.341,0.409,0.591,0.888,0.751,1.438c0.16,0.551,0.24,1.138,0.24,1.764V119.323z M39.966,118.803
		c0.022-0.923-0.184-1.648-0.616-2.172c-0.432-0.526-1.073-0.788-1.923-0.788c-0.436,0-0.818,0.081-1.147,0.244
		c-0.329,0.163-0.604,0.379-0.825,0.649c-0.222,0.27-0.393,0.584-0.514,0.942c-0.121,0.359-0.189,0.733-0.203,1.124H39.966z"/>
	<path d="M58.251,119.633c0,0.781-0.103,1.5-0.309,2.156c-0.206,0.657-0.513,1.224-0.921,1.699
		c-0.408,0.476-0.919,0.847-1.534,1.113c-0.614,0.266-1.326,0.4-2.135,0.4c-0.788,0-1.475-0.117-2.061-0.351
		c-0.586-0.234-1.073-0.576-1.464-1.022c-0.39-0.447-0.681-0.991-0.873-1.629c-0.192-0.639-0.288-1.364-0.288-2.174
		c0-0.781,0.101-1.499,0.304-2.156c0.202-0.657,0.507-1.222,0.916-1.699c0.409-0.475,0.918-0.844,1.529-1.108
		c0.611-0.262,1.324-0.393,2.14-0.393c0.788,0,1.475,0.117,2.06,0.351c0.586,0.234,1.074,0.574,1.464,1.022
		c0.39,0.447,0.683,0.989,0.879,1.629C58.152,118.11,58.251,118.831,58.251,119.633z M56.43,119.75c0-0.518-0.048-1.008-0.145-1.469
		c-0.097-0.462-0.257-0.866-0.478-1.215c-0.222-0.348-0.523-0.623-0.903-0.825c-0.38-0.202-0.852-0.303-1.418-0.303
		c-0.523,0-0.972,0.092-1.348,0.276c-0.376,0.185-0.686,0.446-0.93,0.783c-0.244,0.337-0.425,0.737-0.542,1.198
		c-0.118,0.461-0.177,0.965-0.177,1.511c0,0.526,0.048,1.02,0.145,1.481c0.097,0.461,0.258,0.865,0.484,1.208
		c0.225,0.345,0.528,0.618,0.908,0.82c0.379,0.202,0.853,0.303,1.418,0.303c0.516,0,0.963-0.092,1.343-0.276
		c0.38-0.185,0.691-0.443,0.935-0.778c0.243-0.334,0.422-0.731,0.537-1.192C56.372,120.811,56.43,120.304,56.43,119.75z"/>
	<path d="M69.091,124.531c0,0.057-0.015,0.104-0.043,0.144c-0.029,0.039-0.074,0.073-0.139,0.101
		c-0.064,0.028-0.152,0.05-0.266,0.064c-0.113,0.015-0.255,0.022-0.426,0.022c-0.178,0-0.323-0.006-0.436-0.022
		c-0.114-0.014-0.202-0.036-0.267-0.064c-0.064-0.028-0.11-0.061-0.138-0.101c-0.029-0.039-0.043-0.087-0.043-0.144v-5.612
		c0-0.548-0.043-0.987-0.128-1.32c-0.085-0.334-0.209-0.621-0.372-0.863c-0.164-0.241-0.374-0.425-0.633-0.554
		c-0.259-0.127-0.559-0.191-0.9-0.191c-0.44,0-0.88,0.155-1.32,0.469c-0.44,0.312-0.902,0.77-1.384,1.374v6.698
		c0,0.057-0.015,0.104-0.043,0.144c-0.029,0.039-0.074,0.073-0.138,0.101c-0.064,0.028-0.153,0.05-0.267,0.064
		c-0.113,0.015-0.259,0.022-0.436,0.022c-0.171,0-0.313-0.006-0.426-0.022c-0.114-0.014-0.204-0.036-0.272-0.064
		s-0.113-0.061-0.138-0.101c-0.025-0.039-0.038-0.087-0.038-0.144v-9.584c0-0.056,0.011-0.104,0.032-0.144
		c0.022-0.038,0.064-0.074,0.128-0.106c0.064-0.032,0.145-0.053,0.245-0.065c0.099-0.01,0.23-0.015,0.394-0.015
		c0.156,0,0.285,0.005,0.388,0.015c0.103,0.011,0.183,0.033,0.239,0.065c0.057,0.032,0.098,0.067,0.123,0.106
		c0.025,0.039,0.037,0.088,0.037,0.144v1.267c0.54-0.602,1.077-1.045,1.613-1.326c0.536-0.28,1.077-0.42,1.624-0.42
		c0.639,0,1.177,0.108,1.613,0.325c0.437,0.216,0.789,0.506,1.059,0.868c0.27,0.362,0.463,0.786,0.581,1.272
		c0.117,0.486,0.176,1.07,0.176,1.752V124.531z"/>
	<path d="M80.475,119.323c0,0.278-0.07,0.475-0.209,0.592s-0.298,0.176-0.476,0.176h-6.311c0,0.532,0.053,1.011,0.16,1.438
		c0.107,0.425,0.285,0.791,0.535,1.096c0.25,0.306,0.574,0.54,0.974,0.703c0.399,0.163,0.888,0.244,1.466,0.244
		c0.456,0,0.863-0.037,1.22-0.112c0.357-0.074,0.665-0.158,0.926-0.25c0.26-0.092,0.474-0.176,0.642-0.251
		c0.167-0.074,0.294-0.111,0.379-0.111c0.05,0,0.095,0.011,0.134,0.037c0.039,0.024,0.07,0.062,0.091,0.112
		c0.022,0.05,0.038,0.118,0.048,0.208s0.016,0.196,0.016,0.325c0,0.092-0.004,0.172-0.011,0.239
		c-0.007,0.067-0.016,0.127-0.026,0.181c-0.011,0.053-0.029,0.102-0.053,0.144c-0.025,0.042-0.057,0.084-0.096,0.122
		c-0.039,0.039-0.154,0.103-0.346,0.192c-0.192,0.089-0.441,0.176-0.746,0.261c-0.306,0.085-0.658,0.16-1.059,0.228
		c-0.401,0.067-0.829,0.102-1.284,0.102c-0.788,0-1.478-0.111-2.071-0.33c-0.593-0.22-1.091-0.548-1.496-0.98
		c-0.405-0.433-0.71-0.975-0.916-1.629c-0.206-0.653-0.309-1.413-0.309-2.279c0-0.824,0.106-1.564,0.319-2.221
		c0.213-0.656,0.52-1.213,0.921-1.672c0.401-0.457,0.886-0.809,1.454-1.054c0.568-0.244,1.203-0.367,1.906-0.367
		c0.753,0,1.393,0.121,1.922,0.362c0.529,0.242,0.964,0.567,1.305,0.974c0.341,0.409,0.591,0.888,0.751,1.438
		c0.16,0.551,0.24,1.138,0.24,1.764V119.323z M78.707,118.803c0.022-0.923-0.184-1.648-0.616-2.172
		c-0.432-0.526-1.073-0.788-1.923-0.788c-0.436,0-0.818,0.081-1.147,0.244s-0.604,0.379-0.825,0.649
		c-0.222,0.27-0.393,0.584-0.514,0.942c-0.121,0.359-0.189,0.733-0.203,1.124H78.707z"/>
	<path d="M96.896,119.59c0,0.838-0.09,1.59-0.271,2.258c-0.182,0.669-0.448,1.234-0.8,1.699c-0.351,0.466-0.786,0.824-1.304,1.076
		C94.003,124.874,93.41,125,92.743,125c-0.284,0-0.546-0.028-0.788-0.085c-0.241-0.057-0.478-0.145-0.708-0.266
		c-0.23-0.121-0.46-0.274-0.686-0.458c-0.228-0.185-0.469-0.401-0.725-0.649v4.793c0,0.056-0.014,0.106-0.042,0.149
		c-0.029,0.042-0.075,0.078-0.139,0.106c-0.064,0.028-0.153,0.05-0.266,0.064c-0.113,0.015-0.26,0.022-0.437,0.022
		c-0.171,0-0.312-0.006-0.425-0.022c-0.115-0.014-0.205-0.036-0.272-0.064c-0.067-0.028-0.113-0.064-0.138-0.106
		c-0.025-0.043-0.038-0.093-0.038-0.149v-13.387c0-0.064,0.011-0.115,0.032-0.154c0.022-0.039,0.065-0.073,0.129-0.102
		c0.064-0.028,0.145-0.047,0.244-0.059c0.099-0.01,0.22-0.015,0.362-0.015c0.15,0,0.272,0.005,0.368,0.015
		c0.095,0.011,0.176,0.031,0.239,0.059c0.064,0.029,0.108,0.062,0.134,0.102c0.024,0.039,0.037,0.09,0.037,0.154v1.289
		c0.29-0.298,0.572-0.558,0.842-0.777c0.269-0.22,0.541-0.404,0.814-0.549c0.274-0.145,0.554-0.256,0.842-0.33
		c0.288-0.075,0.591-0.112,0.91-0.112c0.695,0,1.289,0.135,1.779,0.405c0.489,0.27,0.889,0.638,1.198,1.107
		c0.308,0.469,0.534,1.014,0.676,1.635C96.825,118.236,96.896,118.894,96.896,119.59z M95.075,119.792
		c0-0.489-0.038-0.963-0.113-1.421c-0.074-0.458-0.202-0.865-0.385-1.22c-0.182-0.354-0.428-0.638-0.735-0.852
		c-0.307-0.213-0.689-0.32-1.146-0.32c-0.229,0-0.453,0.034-0.675,0.102c-0.222,0.067-0.447,0.174-0.675,0.32
		c-0.229,0.145-0.469,0.337-0.718,0.574c-0.251,0.238-0.514,0.531-0.793,0.879v3.812c0.486,0.59,0.946,1.04,1.383,1.352
		c0.435,0.313,0.893,0.469,1.371,0.469c0.442,0,0.823-0.106,1.141-0.32c0.317-0.213,0.574-0.497,0.772-0.852
		c0.196-0.354,0.341-0.751,0.433-1.192C95.028,120.683,95.075,120.24,95.075,119.792z"/>
	<path d="M107.716,119.323c0,0.278-0.07,0.475-0.209,0.592s-0.298,0.176-0.476,0.176h-6.312c0,0.532,0.053,1.011,0.16,1.438
		c0.107,0.425,0.285,0.791,0.535,1.096c0.25,0.306,0.574,0.54,0.974,0.703c0.4,0.163,0.889,0.244,1.466,0.244
		c0.457,0,0.863-0.037,1.22-0.112c0.357-0.074,0.666-0.158,0.926-0.25c0.261-0.092,0.475-0.176,0.643-0.251
		c0.167-0.074,0.294-0.111,0.379-0.111c0.05,0,0.094,0.011,0.134,0.037c0.039,0.024,0.07,0.062,0.09,0.112
		c0.022,0.05,0.038,0.118,0.048,0.208c0.011,0.089,0.017,0.196,0.017,0.325c0,0.092-0.004,0.172-0.011,0.239
		c-0.006,0.067-0.015,0.127-0.025,0.181c-0.011,0.053-0.029,0.102-0.053,0.144c-0.025,0.042-0.057,0.084-0.097,0.122
		c-0.038,0.039-0.154,0.103-0.345,0.192c-0.192,0.089-0.441,0.176-0.746,0.261c-0.306,0.085-0.658,0.16-1.059,0.228
		c-0.401,0.067-0.829,0.102-1.284,0.102c-0.787,0-1.478-0.111-2.07-0.33c-0.593-0.22-1.091-0.548-1.496-0.98
		c-0.405-0.433-0.711-0.975-0.916-1.629c-0.206-0.653-0.309-1.413-0.309-2.279c0-0.824,0.107-1.564,0.32-2.221
		c0.213-0.656,0.52-1.213,0.921-1.672c0.401-0.457,0.886-0.809,1.454-1.054c0.568-0.244,1.203-0.367,1.906-0.367
		c0.753,0,1.393,0.121,1.921,0.362c0.53,0.242,0.964,0.567,1.305,0.974c0.34,0.409,0.591,0.888,0.75,1.438
		c0.16,0.551,0.241,1.138,0.241,1.764V119.323z M105.947,118.803c0.022-0.923-0.183-1.648-0.616-2.172
		c-0.432-0.526-1.072-0.788-1.923-0.788c-0.435,0-0.817,0.081-1.146,0.244c-0.329,0.163-0.604,0.379-0.825,0.649
		c-0.222,0.27-0.393,0.584-0.514,0.942c-0.121,0.359-0.19,0.733-0.204,1.124H105.947z"/>
	<path d="M115.99,115.576c0,0.155-0.004,0.287-0.011,0.393c-0.006,0.107-0.02,0.19-0.042,0.251c-0.022,0.06-0.048,0.106-0.08,0.138
		c-0.032,0.032-0.076,0.048-0.132,0.048c-0.057,0-0.126-0.017-0.208-0.048c-0.083-0.032-0.174-0.064-0.278-0.095
		c-0.103-0.032-0.218-0.062-0.346-0.09c-0.127-0.028-0.266-0.043-0.415-0.043c-0.177,0-0.351,0.036-0.522,0.107
		c-0.169,0.071-0.349,0.188-0.537,0.351s-0.385,0.379-0.591,0.649c-0.206,0.27-0.433,0.6-0.681,0.991v6.304
		c0,0.057-0.015,0.104-0.043,0.144s-0.074,0.073-0.138,0.101c-0.065,0.028-0.153,0.05-0.267,0.064
		c-0.113,0.015-0.258,0.022-0.435,0.022c-0.171,0-0.313-0.006-0.427-0.022c-0.113-0.014-0.204-0.036-0.271-0.064
		c-0.067-0.028-0.113-0.061-0.139-0.101s-0.037-0.087-0.037-0.144v-9.584c0-0.056,0.01-0.104,0.032-0.144
		c0.022-0.038,0.064-0.074,0.127-0.106c0.064-0.032,0.145-0.053,0.246-0.065c0.099-0.01,0.23-0.015,0.393-0.015
		c0.157,0,0.285,0.005,0.388,0.015c0.103,0.011,0.183,0.033,0.239,0.065c0.057,0.032,0.098,0.067,0.124,0.106
		c0.024,0.039,0.037,0.088,0.037,0.144v1.396c0.262-0.383,0.509-0.697,0.74-0.937c0.23-0.242,0.449-0.432,0.654-0.57
		c0.206-0.138,0.41-0.234,0.612-0.286c0.202-0.053,0.406-0.08,0.612-0.08c0.093,0,0.197,0.005,0.315,0.015
		c0.117,0.011,0.239,0.031,0.367,0.059c0.129,0.029,0.243,0.061,0.346,0.097s0.176,0.07,0.219,0.106
		c0.042,0.036,0.07,0.07,0.085,0.102c0.014,0.032,0.025,0.073,0.037,0.122c0.01,0.05,0.018,0.122,0.022,0.218
		C115.987,115.283,115.99,115.412,115.99,115.576z"/>
	<path d="M123.635,121.922c0,0.49-0.09,0.927-0.271,1.31c-0.181,0.383-0.438,0.705-0.772,0.969
		c-0.334,0.262-0.731,0.461-1.193,0.596c-0.461,0.135-0.969,0.202-1.523,0.202c-0.34,0-0.665-0.027-0.974-0.08
		c-0.308-0.053-0.586-0.121-0.83-0.202c-0.246-0.081-0.453-0.167-0.624-0.255c-0.169-0.089-0.294-0.169-0.372-0.241
		c-0.079-0.07-0.135-0.169-0.171-0.298c-0.036-0.127-0.053-0.302-0.053-0.522c0-0.134,0.008-0.248,0.022-0.34
		c0.014-0.093,0.032-0.167,0.053-0.224c0.02-0.056,0.051-0.097,0.09-0.122c0.038-0.024,0.083-0.037,0.132-0.037
		c0.079,0,0.194,0.047,0.346,0.144c0.153,0.095,0.341,0.2,0.564,0.313c0.224,0.115,0.489,0.219,0.793,0.315
		c0.306,0.095,0.657,0.144,1.054,0.144c0.299,0,0.568-0.032,0.81-0.095c0.241-0.064,0.451-0.158,0.628-0.283
		c0.178-0.124,0.315-0.283,0.41-0.474c0.097-0.192,0.144-0.419,0.144-0.681c0-0.27-0.069-0.497-0.208-0.683
		c-0.139-0.183-0.321-0.348-0.549-0.489c-0.227-0.143-0.483-0.269-0.767-0.378c-0.284-0.111-0.577-0.225-0.879-0.346
		c-0.302-0.121-0.596-0.257-0.884-0.41s-0.545-0.339-0.772-0.559c-0.228-0.22-0.41-0.483-0.549-0.788
		c-0.138-0.304-0.208-0.671-0.208-1.096c0-0.377,0.073-0.737,0.219-1.081c0.145-0.344,0.363-0.646,0.654-0.905
		c0.29-0.258,0.654-0.466,1.091-0.623s0.946-0.234,1.528-0.234c0.256,0,0.512,0.022,0.767,0.064
		c0.256,0.042,0.486,0.095,0.693,0.159c0.206,0.065,0.382,0.134,0.527,0.209c0.145,0.074,0.256,0.14,0.33,0.196
		c0.075,0.057,0.125,0.107,0.149,0.149c0.025,0.043,0.043,0.09,0.053,0.144c0.01,0.053,0.022,0.12,0.032,0.197
		c0.011,0.078,0.017,0.174,0.017,0.288c0,0.121-0.005,0.225-0.017,0.313c-0.01,0.089-0.028,0.162-0.053,0.219
		c-0.024,0.057-0.055,0.098-0.09,0.122c-0.036,0.025-0.074,0.037-0.117,0.037c-0.064,0-0.155-0.038-0.276-0.117
		c-0.121-0.078-0.278-0.16-0.469-0.25c-0.192-0.089-0.418-0.172-0.676-0.251c-0.26-0.078-0.556-0.117-0.89-0.117
		c-0.298,0-0.56,0.034-0.787,0.102c-0.228,0.067-0.414,0.163-0.559,0.288c-0.146,0.124-0.256,0.271-0.331,0.442
		c-0.074,0.169-0.111,0.354-0.111,0.554c0,0.276,0.07,0.509,0.213,0.697c0.141,0.188,0.326,0.354,0.554,0.495
		c0.227,0.143,0.485,0.27,0.777,0.383c0.292,0.113,0.587,0.23,0.889,0.351c0.302,0.121,0.601,0.256,0.895,0.405
		c0.294,0.149,0.555,0.33,0.783,0.544c0.227,0.213,0.41,0.469,0.548,0.767C123.566,121.156,123.635,121.511,123.635,121.922z"/>
	<path d="M135.062,119.633c0,0.781-0.103,1.5-0.309,2.156c-0.206,0.657-0.513,1.224-0.921,1.699
		c-0.409,0.476-0.919,0.847-1.534,1.113c-0.614,0.266-1.326,0.4-2.134,0.4c-0.788,0-1.476-0.117-2.062-0.351
		c-0.586-0.234-1.073-0.576-1.464-1.022c-0.39-0.447-0.681-0.991-0.872-1.629c-0.192-0.639-0.288-1.364-0.288-2.174
		c0-0.781,0.101-1.499,0.303-2.156c0.202-0.657,0.508-1.222,0.916-1.699c0.409-0.475,0.918-0.844,1.529-1.108
		c0.61-0.262,1.323-0.393,2.14-0.393c0.787,0,1.475,0.117,2.06,0.351c0.586,0.234,1.073,0.574,1.464,1.022
		c0.39,0.447,0.682,0.989,0.879,1.629C134.964,118.11,135.062,118.831,135.062,119.633z M133.241,119.75
		c0-0.518-0.048-1.008-0.145-1.469c-0.097-0.462-0.257-0.866-0.479-1.215c-0.222-0.348-0.523-0.623-0.903-0.825
		c-0.379-0.202-0.852-0.303-1.419-0.303c-0.522,0-0.972,0.092-1.348,0.276c-0.376,0.185-0.685,0.446-0.93,0.783
		c-0.243,0.337-0.424,0.737-0.542,1.198c-0.118,0.461-0.177,0.965-0.177,1.511c0,0.526,0.048,1.02,0.145,1.481
		s0.257,0.865,0.484,1.208c0.225,0.345,0.527,0.618,0.908,0.82c0.379,0.202,0.852,0.303,1.418,0.303
		c0.516,0,0.963-0.092,1.342-0.276c0.381-0.185,0.691-0.443,0.936-0.778c0.243-0.334,0.421-0.731,0.536-1.192
		C133.184,120.811,133.241,120.304,133.241,119.75z"/>
	<path d="M145.903,124.531c0,0.057-0.014,0.104-0.043,0.144c-0.028,0.039-0.074,0.073-0.138,0.101
		c-0.064,0.028-0.153,0.05-0.266,0.064c-0.115,0.015-0.256,0.022-0.427,0.022c-0.177,0-0.323-0.006-0.437-0.022
		c-0.113-0.014-0.202-0.036-0.266-0.064c-0.064-0.028-0.109-0.061-0.139-0.101c-0.028-0.039-0.042-0.087-0.042-0.144v-5.612
		c0-0.548-0.042-0.987-0.127-1.32c-0.085-0.334-0.21-0.621-0.373-0.863c-0.163-0.241-0.374-0.425-0.634-0.554
		c-0.258-0.127-0.559-0.191-0.899-0.191c-0.441,0-0.881,0.155-1.322,0.469c-0.439,0.312-0.902,0.77-1.384,1.374v6.698
		c0,0.057-0.014,0.104-0.042,0.144c-0.029,0.039-0.075,0.073-0.139,0.101c-0.064,0.028-0.153,0.05-0.266,0.064
		c-0.113,0.015-0.26,0.022-0.437,0.022c-0.171,0-0.312-0.006-0.425-0.022c-0.115-0.014-0.205-0.036-0.272-0.064
		s-0.113-0.061-0.138-0.101c-0.025-0.039-0.038-0.087-0.038-0.144v-9.584c0-0.056,0.011-0.104,0.032-0.144
		c0.022-0.038,0.065-0.074,0.129-0.106c0.064-0.032,0.145-0.053,0.244-0.065c0.099-0.01,0.23-0.015,0.395-0.015
		c0.155,0,0.285,0.005,0.388,0.015c0.103,0.011,0.182,0.033,0.239,0.065c0.057,0.032,0.098,0.067,0.122,0.106
		c0.025,0.039,0.037,0.088,0.037,0.144v1.267c0.54-0.602,1.079-1.045,1.613-1.326c0.537-0.28,1.079-0.42,1.625-0.42
		c0.639,0,1.177,0.108,1.613,0.325s0.789,0.506,1.059,0.868c0.27,0.362,0.463,0.786,0.581,1.272c0.117,0.486,0.176,1.07,0.176,1.752
		V124.531z"/>
	<path d="M167.447,114.925c0,0.051-0.008,0.111-0.022,0.182c-0.014,0.07-0.039,0.159-0.075,0.266l-2.822,9.104
		c-0.022,0.079-0.055,0.143-0.101,0.192c-0.047,0.05-0.111,0.088-0.192,0.117c-0.081,0.028-0.194,0.047-0.335,0.059
		c-0.143,0.01-0.32,0.015-0.532,0.015c-0.22,0-0.405-0.006-0.554-0.022c-0.149-0.014-0.269-0.036-0.357-0.064
		c-0.089-0.028-0.155-0.067-0.197-0.117c-0.043-0.05-0.075-0.11-0.095-0.181l-2.013-6.954l-0.022-0.095l-0.022,0.095l-1.863,6.954
		c-0.022,0.079-0.055,0.143-0.101,0.192c-0.047,0.05-0.116,0.088-0.209,0.117c-0.092,0.028-0.211,0.047-0.357,0.059
		c-0.145,0.01-0.325,0.015-0.537,0.015c-0.22,0-0.4-0.006-0.537-0.022c-0.139-0.014-0.252-0.036-0.341-0.064
		c-0.089-0.028-0.154-0.067-0.197-0.117c-0.042-0.05-0.074-0.11-0.095-0.181l-2.8-9.104c-0.036-0.107-0.061-0.196-0.075-0.266
		c-0.014-0.071-0.022-0.131-0.022-0.182c0-0.064,0.014-0.115,0.043-0.154c0.028-0.038,0.076-0.07,0.144-0.096
		c0.067-0.025,0.158-0.041,0.271-0.048c0.113-0.006,0.252-0.01,0.415-0.01c0.199,0,0.358,0.005,0.479,0.015
		c0.121,0.011,0.214,0.029,0.278,0.053c0.064,0.025,0.109,0.061,0.139,0.107c0.028,0.046,0.052,0.101,0.074,0.166l2.311,7.901
		l0.022,0.095l0.02-0.095l2.12-7.901c0.014-0.065,0.037-0.12,0.069-0.166c0.032-0.046,0.08-0.081,0.144-0.107
		c0.064-0.024,0.15-0.042,0.261-0.053c0.11-0.01,0.253-0.015,0.43-0.015c0.171,0,0.311,0.005,0.421,0.015
		c0.11,0.011,0.196,0.029,0.261,0.053c0.064,0.025,0.11,0.059,0.138,0.102c0.029,0.042,0.05,0.092,0.065,0.149l2.289,7.923
		l0.02,0.095l0.011-0.095l2.278-7.901c0.014-0.065,0.038-0.12,0.07-0.166c0.032-0.046,0.081-0.081,0.149-0.107
		c0.067-0.024,0.159-0.042,0.276-0.053c0.117-0.01,0.269-0.015,0.453-0.015c0.169,0,0.307,0.004,0.41,0.01
		c0.102,0.008,0.185,0.025,0.244,0.053c0.06,0.028,0.103,0.061,0.127,0.095C167.434,114.812,167.447,114.862,167.447,114.925z"/>
	<path d="M177.882,124.531c0,0.057-0.014,0.104-0.043,0.144c-0.028,0.039-0.074,0.073-0.138,0.101s-0.153,0.05-0.266,0.064
		c-0.115,0.015-0.256,0.022-0.427,0.022c-0.177,0-0.323-0.006-0.437-0.022c-0.113-0.014-0.202-0.036-0.266-0.064
		c-0.064-0.028-0.11-0.061-0.139-0.101c-0.028-0.039-0.042-0.087-0.042-0.144v-5.612c0-0.548-0.042-0.987-0.127-1.32
		c-0.085-0.334-0.21-0.621-0.373-0.863c-0.163-0.241-0.374-0.425-0.634-0.554c-0.258-0.127-0.559-0.191-0.899-0.191
		c-0.441,0-0.881,0.155-1.32,0.469c-0.441,0.312-0.902,0.77-1.385,1.374v6.698c0,0.057-0.014,0.104-0.042,0.144
		c-0.028,0.039-0.075,0.073-0.139,0.101c-0.064,0.028-0.153,0.05-0.266,0.064c-0.113,0.015-0.258,0.022-0.437,0.022
		c-0.169,0-0.312-0.006-0.425-0.022c-0.113-0.014-0.205-0.036-0.271-0.064c-0.069-0.028-0.115-0.061-0.139-0.101
		c-0.025-0.039-0.037-0.087-0.037-0.144v-14.227c0-0.057,0.011-0.107,0.037-0.149c0.024-0.043,0.07-0.078,0.139-0.107
		c0.066-0.028,0.158-0.05,0.271-0.064c0.113-0.014,0.256-0.022,0.425-0.022c0.178,0,0.323,0.008,0.437,0.022
		c0.113,0.014,0.202,0.036,0.266,0.064c0.064,0.029,0.111,0.064,0.139,0.107c0.028,0.042,0.042,0.092,0.042,0.149v5.74
		c0.504-0.534,1.012-0.928,1.523-1.188c0.512-0.258,1.026-0.388,1.545-0.388c0.639,0,1.177,0.108,1.613,0.325
		s0.789,0.506,1.059,0.868c0.27,0.362,0.463,0.786,0.581,1.272c0.117,0.486,0.176,1.073,0.176,1.762V124.531z"/>
	<path d="M190,119.633c0,0.781-0.102,1.5-0.308,2.156c-0.206,0.657-0.513,1.224-0.922,1.699c-0.407,0.476-0.919,0.847-1.533,1.113
		s-1.326,0.4-2.135,0.4c-0.787,0-1.475-0.117-2.06-0.351c-0.586-0.234-1.073-0.576-1.464-1.022c-0.39-0.447-0.681-0.991-0.874-1.629
		c-0.191-0.639-0.286-1.364-0.286-2.174c0-0.781,0.101-1.499,0.303-2.156c0.202-0.657,0.508-1.222,0.916-1.699
		c0.409-0.475,0.918-0.844,1.528-1.108c0.611-0.262,1.324-0.393,2.14-0.393c0.788,0,1.476,0.117,2.062,0.351
		c0.586,0.234,1.073,0.574,1.463,1.022c0.391,0.447,0.684,0.989,0.879,1.629C189.903,118.11,190,118.831,190,119.633z
		 M188.179,119.75c0-0.518-0.048-1.008-0.145-1.469c-0.097-0.462-0.256-0.866-0.477-1.215c-0.223-0.348-0.523-0.623-0.903-0.825
		c-0.379-0.202-0.852-0.303-1.418-0.303c-0.523,0-0.973,0.092-1.348,0.276c-0.376,0.185-0.686,0.446-0.93,0.783
		c-0.243,0.337-0.424,0.737-0.542,1.198c-0.118,0.461-0.177,0.965-0.177,1.511c0,0.526,0.048,1.02,0.145,1.481
		s0.257,0.865,0.483,1.208c0.227,0.345,0.528,0.618,0.908,0.82c0.381,0.202,0.853,0.303,1.418,0.303
		c0.516,0,0.964-0.092,1.343-0.276c0.379-0.185,0.691-0.443,0.935-0.778c0.244-0.334,0.423-0.731,0.537-1.192
		C188.122,120.811,188.179,120.304,188.179,119.75z"/>
</g>
<g enable-background="new    ">
	<path d="M19.339,150.729c0,0.056-0.015,0.106-0.043,0.149c-0.029,0.042-0.076,0.078-0.144,0.106
		c-0.067,0.028-0.162,0.05-0.282,0.064c-0.121,0.015-0.274,0.022-0.458,0.022c-0.192,0-0.35-0.005-0.474-0.015
		c-0.124-0.011-0.229-0.029-0.314-0.053c-0.085-0.025-0.155-0.06-0.208-0.107c-0.053-0.046-0.101-0.101-0.144-0.164l-4.047-5.303
		v5.314c0,0.057-0.015,0.104-0.043,0.144c-0.029,0.039-0.074,0.073-0.138,0.101c-0.064,0.028-0.153,0.05-0.267,0.064
		c-0.113,0.015-0.259,0.022-0.436,0.022c-0.171,0-0.313-0.006-0.426-0.022c-0.114-0.014-0.204-0.036-0.272-0.064
		s-0.113-0.061-0.138-0.101c-0.025-0.039-0.038-0.087-0.038-0.144v-14.227c0-0.057,0.012-0.107,0.038-0.149
		c0.025-0.043,0.071-0.078,0.138-0.107c0.067-0.028,0.158-0.05,0.272-0.064c0.113-0.014,0.255-0.022,0.426-0.022
		c0.177,0,0.323,0.008,0.436,0.022c0.114,0.014,0.202,0.036,0.267,0.064c0.064,0.029,0.11,0.064,0.138,0.107
		c0.028,0.042,0.043,0.092,0.043,0.149v8.668l3.621-3.982c0.057-0.071,0.117-0.13,0.181-0.176c0.064-0.047,0.14-0.085,0.229-0.117
		c0.088-0.032,0.193-0.053,0.314-0.065c0.121-0.01,0.266-0.015,0.437-0.015c0.178,0,0.327,0.005,0.447,0.015
		c0.121,0.011,0.218,0.029,0.293,0.053c0.074,0.025,0.128,0.057,0.16,0.097c0.032,0.038,0.048,0.09,0.048,0.154
		c0,0.085-0.024,0.171-0.069,0.256c-0.046,0.084-0.123,0.185-0.229,0.298l-3.471,3.471l3.897,5.058
		c0.092,0.121,0.158,0.219,0.197,0.293C19.32,150.595,19.339,150.664,19.339,150.729z"/>
	<path d="M29.637,150.739c0,0.057-0.015,0.104-0.043,0.144c-0.029,0.039-0.074,0.073-0.139,0.101
		c-0.064,0.028-0.152,0.05-0.266,0.064c-0.113,0.015-0.255,0.022-0.426,0.022c-0.178,0-0.323-0.006-0.436-0.022
		c-0.114-0.014-0.202-0.036-0.267-0.064c-0.064-0.028-0.11-0.061-0.138-0.101c-0.029-0.039-0.043-0.087-0.043-0.144v-5.612
		c0-0.548-0.043-0.987-0.128-1.32c-0.085-0.334-0.209-0.621-0.372-0.863c-0.164-0.241-0.374-0.425-0.633-0.554
		c-0.259-0.127-0.559-0.191-0.9-0.191c-0.44,0-0.88,0.155-1.32,0.469c-0.44,0.312-0.902,0.77-1.384,1.374v6.698
		c0,0.057-0.015,0.104-0.043,0.144c-0.029,0.039-0.074,0.073-0.138,0.101c-0.064,0.028-0.153,0.05-0.267,0.064
		c-0.113,0.015-0.259,0.022-0.436,0.022c-0.171,0-0.313-0.006-0.426-0.022c-0.114-0.014-0.204-0.036-0.272-0.064
		c-0.067-0.028-0.113-0.061-0.138-0.101c-0.025-0.039-0.038-0.087-0.038-0.144v-9.584c0-0.056,0.011-0.104,0.032-0.144
		c0.022-0.038,0.064-0.074,0.128-0.106c0.064-0.032,0.145-0.053,0.245-0.065c0.099-0.01,0.23-0.015,0.394-0.015
		c0.156,0,0.285,0.005,0.388,0.015c0.103,0.011,0.183,0.033,0.239,0.065c0.057,0.032,0.098,0.067,0.123,0.106
		c0.025,0.039,0.037,0.088,0.037,0.144v1.267c0.54-0.602,1.077-1.045,1.613-1.326s1.077-0.42,1.624-0.42
		c0.639,0,1.177,0.108,1.613,0.325c0.437,0.216,0.789,0.506,1.059,0.868c0.27,0.362,0.463,0.786,0.581,1.272
		c0.117,0.486,0.176,1.07,0.176,1.752V150.739z"/>
	<path d="M41.755,145.841c0,0.781-0.103,1.5-0.309,2.156c-0.206,0.657-0.513,1.224-0.921,1.699
		c-0.408,0.476-0.919,0.847-1.534,1.113c-0.614,0.266-1.326,0.4-2.135,0.4c-0.788,0-1.475-0.117-2.061-0.351
		c-0.586-0.234-1.073-0.576-1.464-1.022c-0.39-0.447-0.681-0.991-0.873-1.629c-0.192-0.639-0.288-1.364-0.288-2.174
		c0-0.781,0.101-1.499,0.304-2.156c0.202-0.657,0.507-1.222,0.916-1.699c0.409-0.475,0.918-0.844,1.529-1.108
		c0.611-0.262,1.324-0.393,2.14-0.393c0.788,0,1.475,0.117,2.06,0.351c0.586,0.234,1.074,0.574,1.464,1.022
		c0.39,0.447,0.683,0.989,0.879,1.629C41.657,144.318,41.755,145.038,41.755,145.841z M39.934,145.958
		c0-0.518-0.048-1.008-0.145-1.469c-0.097-0.462-0.257-0.866-0.478-1.215c-0.222-0.348-0.523-0.623-0.903-0.825
		c-0.38-0.202-0.853-0.303-1.418-0.303c-0.523,0-0.972,0.092-1.348,0.276s-0.686,0.446-0.93,0.783s-0.425,0.737-0.542,1.198
		c-0.118,0.461-0.177,0.965-0.177,1.511c0,0.526,0.048,1.02,0.145,1.481c0.097,0.461,0.258,0.865,0.484,1.208
		c0.225,0.345,0.528,0.618,0.908,0.82c0.379,0.202,0.852,0.303,1.418,0.303c0.516,0,0.963-0.092,1.343-0.276
		c0.38-0.185,0.691-0.443,0.935-0.778c0.243-0.334,0.422-0.731,0.537-1.192C39.877,147.018,39.934,146.512,39.934,145.958z"/>
	<path d="M57.665,141.133c0,0.051-0.007,0.111-0.021,0.182c-0.015,0.07-0.039,0.159-0.074,0.266l-2.822,9.104
		c-0.021,0.079-0.055,0.143-0.101,0.192c-0.046,0.05-0.11,0.088-0.192,0.117c-0.081,0.028-0.194,0.047-0.336,0.059
		c-0.142,0.01-0.319,0.015-0.532,0.015c-0.22,0-0.404-0.006-0.554-0.022c-0.149-0.014-0.268-0.036-0.357-0.064
		c-0.088-0.028-0.154-0.067-0.197-0.117c-0.043-0.05-0.074-0.11-0.096-0.181l-2.013-6.954l-0.022-0.095l-0.021,0.095l-1.864,6.954
		c-0.022,0.079-0.055,0.143-0.101,0.192c-0.046,0.05-0.115,0.088-0.208,0.117c-0.092,0.028-0.211,0.047-0.357,0.059
		c-0.146,0.01-0.325,0.015-0.538,0.015c-0.22,0-0.399-0.006-0.538-0.022c-0.138-0.014-0.252-0.036-0.341-0.064
		c-0.089-0.028-0.155-0.067-0.197-0.117c-0.043-0.05-0.075-0.11-0.096-0.181l-2.801-9.104c-0.036-0.107-0.06-0.196-0.074-0.266
		c-0.015-0.071-0.022-0.131-0.022-0.182c0-0.064,0.015-0.115,0.043-0.154c0.029-0.038,0.076-0.07,0.144-0.096
		c0.067-0.025,0.158-0.041,0.272-0.048c0.113-0.006,0.251-0.01,0.415-0.01c0.199,0,0.358,0.005,0.479,0.015
		c0.12,0.011,0.213,0.029,0.277,0.053c0.064,0.025,0.11,0.061,0.138,0.107c0.028,0.046,0.053,0.101,0.074,0.166l2.311,7.901
		l0.021,0.096l0.022-0.096l2.119-7.901c0.014-0.065,0.038-0.12,0.069-0.166c0.032-0.046,0.08-0.081,0.144-0.107
		c0.064-0.024,0.15-0.042,0.26-0.053c0.11-0.01,0.254-0.015,0.432-0.015c0.17,0,0.31,0.005,0.42,0.015
		c0.11,0.011,0.197,0.029,0.261,0.053c0.064,0.025,0.11,0.059,0.139,0.102c0.028,0.042,0.05,0.092,0.064,0.149l2.289,7.923
		l0.022,0.096l0.01-0.096l2.279-7.901c0.014-0.065,0.037-0.12,0.069-0.166c0.032-0.046,0.082-0.081,0.15-0.107
		c0.067-0.024,0.159-0.042,0.276-0.053c0.117-0.01,0.268-0.015,0.453-0.015c0.171,0,0.308,0.004,0.41,0.01
		c0.103,0.008,0.185,0.025,0.245,0.053c0.06,0.028,0.103,0.061,0.128,0.096C57.653,141.02,57.665,141.069,57.665,141.133z"/>
	<path d="M65.673,148.13c0,0.49-0.09,0.927-0.271,1.31c-0.181,0.383-0.439,0.705-0.772,0.969c-0.334,0.262-0.731,0.461-1.192,0.596
		c-0.462,0.135-0.969,0.202-1.523,0.202c-0.341,0-0.665-0.027-0.974-0.08s-0.586-0.121-0.831-0.202
		c-0.245-0.081-0.453-0.167-0.623-0.255c-0.17-0.089-0.294-0.169-0.372-0.241c-0.078-0.07-0.135-0.169-0.171-0.298
		c-0.035-0.127-0.053-0.302-0.053-0.522c0-0.134,0.007-0.248,0.021-0.34c0.014-0.093,0.032-0.167,0.053-0.224
		c0.021-0.056,0.052-0.097,0.09-0.122c0.039-0.024,0.083-0.037,0.133-0.037c0.078,0,0.194,0.047,0.346,0.144
		c0.152,0.096,0.341,0.2,0.564,0.313c0.223,0.115,0.488,0.219,0.793,0.315c0.306,0.096,0.657,0.144,1.054,0.144
		c0.299,0,0.568-0.032,0.809-0.096c0.241-0.064,0.451-0.158,0.628-0.283c0.178-0.124,0.315-0.283,0.41-0.474
		c0.096-0.192,0.144-0.419,0.144-0.681c0-0.27-0.069-0.497-0.208-0.683c-0.139-0.183-0.322-0.348-0.549-0.489
		c-0.227-0.143-0.483-0.269-0.767-0.378c-0.284-0.111-0.577-0.225-0.879-0.346s-0.596-0.257-0.884-0.41
		c-0.288-0.153-0.545-0.339-0.772-0.559s-0.41-0.483-0.548-0.788c-0.138-0.304-0.208-0.671-0.208-1.096
		c0-0.377,0.073-0.737,0.218-1.081c0.145-0.344,0.364-0.646,0.654-0.905c0.291-0.258,0.655-0.466,1.092-0.623
		c0.437-0.157,0.946-0.234,1.528-0.234c0.255,0,0.511,0.022,0.767,0.064c0.256,0.042,0.486,0.096,0.692,0.159
		c0.206,0.065,0.382,0.134,0.527,0.209c0.146,0.074,0.256,0.14,0.33,0.196c0.074,0.057,0.124,0.107,0.149,0.149
		c0.025,0.043,0.043,0.09,0.053,0.144c0.01,0.053,0.021,0.12,0.032,0.197c0.011,0.078,0.016,0.174,0.016,0.288
		c0,0.121-0.005,0.225-0.016,0.313c-0.011,0.089-0.029,0.162-0.053,0.219c-0.025,0.057-0.055,0.098-0.09,0.122
		c-0.036,0.025-0.074,0.037-0.117,0.037c-0.064,0-0.156-0.038-0.277-0.117c-0.121-0.078-0.277-0.16-0.469-0.25
		c-0.192-0.089-0.417-0.172-0.676-0.251c-0.259-0.078-0.556-0.117-0.889-0.117c-0.298,0-0.56,0.034-0.788,0.102
		c-0.227,0.067-0.414,0.163-0.559,0.288c-0.146,0.124-0.256,0.271-0.33,0.442c-0.074,0.169-0.111,0.354-0.111,0.554
		c0,0.276,0.071,0.509,0.213,0.697c0.142,0.188,0.327,0.354,0.554,0.495c0.227,0.143,0.486,0.27,0.777,0.383
		c0.291,0.113,0.587,0.23,0.889,0.351c0.302,0.121,0.6,0.256,0.895,0.405c0.295,0.149,0.556,0.33,0.783,0.544
		c0.227,0.213,0.41,0.469,0.548,0.767C65.604,147.364,65.673,147.719,65.673,148.13z"/>
	<path d="M86.524,141.133c0,0.051-0.008,0.111-0.022,0.182c-0.014,0.07-0.039,0.159-0.074,0.266l-2.823,9.104
		c-0.021,0.079-0.055,0.143-0.101,0.192c-0.046,0.05-0.11,0.088-0.192,0.117c-0.081,0.028-0.194,0.047-0.336,0.059
		c-0.142,0.01-0.319,0.015-0.532,0.015c-0.22,0-0.404-0.006-0.554-0.022c-0.149-0.014-0.268-0.036-0.357-0.064
		c-0.089-0.028-0.154-0.067-0.197-0.117c-0.043-0.05-0.074-0.11-0.096-0.181l-2.013-6.954l-0.022-0.095l-0.021,0.095l-1.864,6.954
		c-0.022,0.079-0.055,0.143-0.101,0.192c-0.046,0.05-0.115,0.088-0.208,0.117c-0.092,0.028-0.211,0.047-0.357,0.059
		c-0.146,0.01-0.325,0.015-0.538,0.015c-0.22,0-0.399-0.006-0.538-0.022c-0.138-0.014-0.252-0.036-0.341-0.064
		c-0.089-0.028-0.155-0.067-0.197-0.117c-0.043-0.05-0.075-0.11-0.096-0.181l-2.801-9.104c-0.036-0.107-0.06-0.196-0.074-0.266
		c-0.015-0.071-0.022-0.131-0.022-0.182c0-0.064,0.015-0.115,0.043-0.154c0.029-0.038,0.076-0.07,0.144-0.096
		c0.067-0.025,0.158-0.041,0.272-0.048c0.113-0.006,0.251-0.01,0.415-0.01c0.199,0,0.358,0.005,0.479,0.015
		c0.12,0.011,0.213,0.029,0.277,0.053c0.064,0.025,0.11,0.061,0.138,0.107c0.028,0.046,0.053,0.101,0.074,0.166l2.311,7.901
		l0.021,0.096l0.022-0.096l2.119-7.901c0.014-0.065,0.038-0.12,0.069-0.166c0.032-0.046,0.08-0.081,0.144-0.107
		c0.064-0.024,0.15-0.042,0.26-0.053c0.11-0.01,0.254-0.015,0.432-0.015c0.17,0,0.31,0.005,0.42,0.015
		c0.11,0.011,0.197,0.029,0.261,0.053c0.064,0.025,0.11,0.059,0.139,0.102c0.028,0.042,0.05,0.092,0.064,0.149l2.289,7.923
		l0.022,0.096l0.01-0.096l2.28-7.901c0.014-0.065,0.037-0.12,0.069-0.166c0.032-0.046,0.081-0.081,0.149-0.107
		c0.067-0.024,0.159-0.042,0.276-0.053c0.117-0.01,0.269-0.015,0.453-0.015c0.171,0,0.307,0.004,0.41,0.01
		c0.103,0.008,0.185,0.025,0.244,0.053c0.061,0.028,0.103,0.061,0.129,0.096C86.511,141.02,86.524,141.069,86.524,141.133z"/>
	<path d="M96.96,150.739c0,0.057-0.015,0.104-0.043,0.144s-0.074,0.073-0.139,0.101c-0.064,0.028-0.152,0.05-0.266,0.064
		c-0.113,0.015-0.255,0.022-0.425,0.022c-0.178,0-0.323-0.006-0.437-0.022c-0.113-0.014-0.202-0.036-0.266-0.064
		s-0.111-0.061-0.139-0.101s-0.042-0.087-0.042-0.144v-5.612c0-0.548-0.043-0.987-0.129-1.32c-0.085-0.334-0.209-0.621-0.372-0.863
		c-0.164-0.241-0.374-0.425-0.634-0.554c-0.258-0.127-0.559-0.191-0.9-0.191c-0.439,0-0.88,0.155-1.32,0.469
		c-0.439,0.312-0.902,0.77-1.384,1.374v6.698c0,0.057-0.014,0.104-0.042,0.144c-0.029,0.039-0.075,0.073-0.139,0.101
		s-0.153,0.05-0.266,0.064c-0.113,0.015-0.26,0.022-0.437,0.022c-0.171,0-0.312-0.006-0.425-0.022
		c-0.115-0.014-0.205-0.036-0.272-0.064c-0.067-0.028-0.113-0.061-0.138-0.101c-0.025-0.039-0.038-0.087-0.038-0.144v-14.227
		c0-0.057,0.013-0.107,0.038-0.149c0.024-0.043,0.07-0.078,0.138-0.107c0.067-0.028,0.158-0.05,0.272-0.064
		c0.113-0.014,0.255-0.022,0.425-0.022c0.177,0,0.323,0.008,0.437,0.022s0.202,0.036,0.266,0.064
		c0.064,0.029,0.11,0.064,0.139,0.107c0.028,0.042,0.042,0.092,0.042,0.149v5.74c0.504-0.534,1.012-0.928,1.523-1.188
		c0.512-0.258,1.026-0.388,1.545-0.388c0.639,0,1.177,0.108,1.613,0.325c0.437,0.216,0.789,0.506,1.059,0.868
		c0.27,0.362,0.463,0.786,0.581,1.272c0.117,0.486,0.176,1.073,0.176,1.762V150.739z"/>
	<path d="M108.344,145.531c0,0.278-0.07,0.475-0.209,0.592s-0.298,0.176-0.476,0.176h-6.311c0,0.532,0.053,1.011,0.16,1.438
		c0.107,0.425,0.285,0.791,0.535,1.096s0.574,0.54,0.974,0.703c0.399,0.163,0.888,0.244,1.466,0.244c0.456,0,0.863-0.037,1.22-0.112
		c0.357-0.074,0.665-0.158,0.926-0.25c0.26-0.092,0.474-0.176,0.642-0.251c0.168-0.074,0.294-0.111,0.379-0.111
		c0.051,0,0.095,0.011,0.134,0.037c0.039,0.024,0.07,0.062,0.092,0.112c0.022,0.05,0.037,0.118,0.048,0.208
		c0.01,0.089,0.015,0.196,0.015,0.325c0,0.092-0.004,0.172-0.01,0.239c-0.008,0.067-0.017,0.127-0.027,0.181
		c-0.01,0.053-0.028,0.102-0.053,0.144c-0.024,0.042-0.056,0.084-0.096,0.122c-0.039,0.039-0.154,0.103-0.346,0.192
		c-0.191,0.089-0.441,0.176-0.745,0.261c-0.306,0.085-0.658,0.16-1.059,0.228s-0.829,0.102-1.284,0.102
		c-0.788,0-1.478-0.111-2.072-0.33c-0.592-0.22-1.091-0.548-1.496-0.98s-0.709-0.975-0.916-1.629
		c-0.206-0.653-0.308-1.413-0.308-2.279c0-0.824,0.106-1.564,0.318-2.221c0.214-0.656,0.521-1.213,0.922-1.672
		c0.401-0.457,0.885-0.809,1.453-1.054c0.568-0.244,1.203-0.367,1.906-0.367c0.753,0,1.393,0.121,1.923,0.362
		c0.528,0.242,0.964,0.567,1.304,0.974c0.341,0.409,0.592,0.888,0.751,1.438c0.159,0.551,0.239,1.138,0.239,1.764V145.531z
		 M106.576,145.01c0.022-0.923-0.185-1.648-0.616-2.172c-0.432-0.526-1.073-0.788-1.923-0.788c-0.437,0-0.819,0.081-1.147,0.244
		c-0.329,0.163-0.604,0.379-0.825,0.649c-0.222,0.27-0.392,0.584-0.514,0.942c-0.121,0.359-0.188,0.733-0.202,1.124H106.576z"/>
	<path d="M116.618,141.784c0,0.155-0.004,0.286-0.01,0.393c-0.008,0.107-0.022,0.19-0.043,0.251c-0.02,0.06-0.047,0.106-0.079,0.138
		c-0.032,0.032-0.076,0.048-0.134,0.048s-0.126-0.017-0.208-0.048c-0.081-0.032-0.174-0.064-0.276-0.096
		c-0.103-0.032-0.219-0.062-0.346-0.09s-0.266-0.043-0.415-0.043c-0.178,0-0.351,0.036-0.522,0.107
		c-0.171,0.071-0.35,0.188-0.537,0.351c-0.188,0.163-0.386,0.379-0.592,0.649c-0.205,0.27-0.433,0.6-0.681,0.991v6.304
		c0,0.057-0.014,0.104-0.042,0.144c-0.029,0.039-0.075,0.073-0.139,0.101s-0.153,0.05-0.266,0.064
		c-0.113,0.015-0.26,0.022-0.437,0.022c-0.171,0-0.312-0.006-0.425-0.022c-0.115-0.014-0.205-0.036-0.272-0.064
		c-0.067-0.028-0.113-0.061-0.138-0.101c-0.025-0.039-0.038-0.087-0.038-0.144v-9.584c0-0.056,0.011-0.104,0.032-0.144
		c0.022-0.038,0.065-0.074,0.129-0.106c0.064-0.032,0.145-0.053,0.244-0.065c0.099-0.01,0.23-0.015,0.395-0.015
		c0.155,0,0.285,0.005,0.388,0.015c0.103,0.011,0.182,0.033,0.239,0.065c0.057,0.032,0.098,0.067,0.122,0.106
		c0.025,0.039,0.037,0.088,0.037,0.144v1.396c0.264-0.383,0.509-0.697,0.741-0.937c0.23-0.242,0.448-0.432,0.654-0.57
		c0.206-0.138,0.41-0.234,0.612-0.286c0.202-0.053,0.406-0.08,0.612-0.08c0.092,0,0.196,0.005,0.313,0.015
		c0.117,0.011,0.241,0.031,0.368,0.059c0.127,0.029,0.243,0.061,0.346,0.097c0.102,0.036,0.176,0.07,0.218,0.106
		c0.043,0.036,0.071,0.07,0.085,0.102c0.014,0.032,0.027,0.073,0.037,0.122c0.011,0.05,0.018,0.122,0.022,0.218
		C116.616,141.491,116.618,141.619,116.618,141.784z"/>
	<path d="M126.51,145.531c0,0.278-0.07,0.475-0.209,0.592s-0.298,0.176-0.476,0.176h-6.311c0,0.532,0.053,1.011,0.16,1.438
		c0.107,0.425,0.285,0.791,0.535,1.096s0.574,0.54,0.974,0.703c0.399,0.163,0.888,0.244,1.466,0.244c0.456,0,0.863-0.037,1.22-0.112
		c0.357-0.074,0.665-0.158,0.926-0.25c0.26-0.092,0.474-0.176,0.642-0.251c0.168-0.074,0.294-0.111,0.379-0.111
		c0.051,0,0.095,0.011,0.134,0.037c0.039,0.024,0.07,0.062,0.092,0.112c0.022,0.05,0.037,0.118,0.048,0.208
		c0.01,0.089,0.015,0.196,0.015,0.325c0,0.092-0.004,0.172-0.01,0.239c-0.008,0.067-0.017,0.127-0.027,0.181
		c-0.01,0.053-0.028,0.102-0.053,0.144c-0.024,0.042-0.056,0.084-0.096,0.122c-0.039,0.039-0.154,0.103-0.346,0.192
		c-0.191,0.089-0.441,0.176-0.745,0.261c-0.306,0.085-0.658,0.16-1.059,0.228s-0.829,0.102-1.284,0.102
		c-0.788,0-1.478-0.111-2.072-0.33c-0.592-0.22-1.091-0.548-1.496-0.98s-0.709-0.975-0.916-1.629
		c-0.206-0.653-0.308-1.413-0.308-2.279c0-0.824,0.106-1.564,0.318-2.221c0.214-0.656,0.521-1.213,0.922-1.672
		c0.401-0.457,0.885-0.809,1.453-1.054c0.568-0.244,1.203-0.367,1.906-0.367c0.753,0,1.393,0.121,1.923,0.362
		c0.528,0.242,0.964,0.567,1.304,0.974c0.341,0.409,0.592,0.888,0.751,1.438c0.159,0.551,0.239,1.138,0.239,1.764V145.531z
		 M124.743,145.01c0.022-0.923-0.185-1.648-0.616-2.172c-0.432-0.526-1.073-0.788-1.923-0.788c-0.437,0-0.819,0.081-1.147,0.244
		c-0.329,0.163-0.604,0.379-0.825,0.649c-0.222,0.27-0.392,0.584-0.514,0.942c-0.121,0.359-0.188,0.733-0.202,1.124H124.743z"/>
	<path d="M141.334,150.749c0,0.085-0.029,0.149-0.085,0.192c-0.057,0.042-0.135,0.074-0.234,0.096
		c-0.099,0.022-0.246,0.032-0.437,0.032c-0.185,0-0.332-0.01-0.442-0.032c-0.111-0.022-0.191-0.053-0.241-0.096
		c-0.05-0.043-0.074-0.107-0.074-0.192v-0.958c-0.419,0.447-0.886,0.795-1.401,1.043c-0.514,0.248-1.059,0.373-1.635,0.373
		c-0.504,0-0.96-0.066-1.368-0.197c-0.409-0.131-0.756-0.321-1.044-0.569c-0.288-0.248-0.511-0.554-0.671-0.916
		c-0.159-0.363-0.239-0.774-0.239-1.236c0-0.539,0.111-1.007,0.33-1.406c0.22-0.397,0.536-0.727,0.949-0.989
		c0.411-0.262,0.916-0.46,1.511-0.591c0.597-0.132,1.267-0.197,2.013-0.197h1.32v-0.746c0-0.368-0.039-0.695-0.117-0.979
		c-0.079-0.284-0.204-0.52-0.378-0.708c-0.174-0.188-0.4-0.33-0.676-0.427c-0.276-0.096-0.618-0.144-1.022-0.144
		c-0.433,0-0.821,0.052-1.166,0.155c-0.344,0.103-0.646,0.216-0.904,0.34c-0.26,0.125-0.476,0.238-0.651,0.341
		c-0.173,0.103-0.303,0.154-0.388,0.154c-0.057,0-0.107-0.014-0.149-0.042s-0.08-0.071-0.112-0.129
		c-0.032-0.056-0.055-0.129-0.069-0.218c-0.014-0.089-0.022-0.186-0.022-0.293c0-0.177,0.013-0.317,0.037-0.42
		c0.025-0.103,0.085-0.201,0.182-0.293c0.095-0.093,0.26-0.201,0.494-0.325c0.234-0.125,0.504-0.238,0.81-0.341
		c0.306-0.103,0.639-0.188,1.001-0.256c0.363-0.067,0.728-0.101,1.098-0.101c0.688,0,1.273,0.078,1.756,0.234
		c0.484,0.157,0.874,0.385,1.173,0.686c0.298,0.302,0.514,0.676,0.649,1.124c0.135,0.447,0.202,0.969,0.202,1.565V150.749z
		 M139.587,146.373h-1.501c-0.483,0-0.902,0.041-1.257,0.122c-0.355,0.081-0.649,0.202-0.884,0.363
		c-0.234,0.159-0.406,0.351-0.517,0.574c-0.109,0.224-0.164,0.481-0.164,0.773c0,0.497,0.158,0.893,0.474,1.187
		c0.316,0.294,0.758,0.442,1.326,0.442c0.461,0,0.889-0.117,1.284-0.351c0.393-0.234,0.807-0.592,1.24-1.076V146.373z"/>
	<path d="M146.317,150.739c0,0.057-0.014,0.104-0.042,0.144s-0.075,0.073-0.139,0.101c-0.064,0.028-0.153,0.05-0.266,0.064
		c-0.113,0.015-0.258,0.022-0.437,0.022c-0.169,0-0.312-0.006-0.425-0.022c-0.113-0.014-0.205-0.036-0.271-0.064
		c-0.069-0.028-0.115-0.061-0.139-0.101c-0.025-0.039-0.037-0.087-0.037-0.144v-14.227c0-0.057,0.011-0.107,0.037-0.149
		c0.024-0.043,0.07-0.078,0.139-0.107c0.066-0.028,0.158-0.05,0.271-0.064s0.256-0.022,0.425-0.022c0.178,0,0.323,0.008,0.437,0.022
		s0.202,0.036,0.266,0.064c0.064,0.029,0.111,0.064,0.139,0.107c0.028,0.042,0.042,0.092,0.042,0.149V150.739z"/>
	<path d="M151.322,150.739c0,0.057-0.014,0.104-0.042,0.144s-0.075,0.073-0.139,0.101c-0.064,0.028-0.153,0.05-0.266,0.064
		c-0.113,0.015-0.258,0.022-0.437,0.022c-0.169,0-0.312-0.006-0.425-0.022c-0.113-0.014-0.205-0.036-0.271-0.064
		c-0.069-0.028-0.115-0.061-0.139-0.101c-0.025-0.039-0.037-0.087-0.037-0.144v-14.227c0-0.057,0.011-0.107,0.037-0.149
		c0.024-0.043,0.07-0.078,0.139-0.107c0.066-0.028,0.158-0.05,0.271-0.064s0.256-0.022,0.425-0.022c0.178,0,0.323,0.008,0.437,0.022
		s0.202,0.036,0.266,0.064c0.064,0.029,0.111,0.064,0.139,0.107c0.028,0.042,0.042,0.092,0.042,0.149V150.739z"/>
	<path d="M168.414,145.841c0,0.781-0.102,1.5-0.308,2.156c-0.206,0.657-0.513,1.224-0.922,1.699
		c-0.407,0.476-0.919,0.847-1.533,1.113s-1.326,0.4-2.135,0.4c-0.787,0-1.475-0.117-2.06-0.351
		c-0.586-0.234-1.073-0.576-1.464-1.022c-0.39-0.447-0.681-0.991-0.874-1.629c-0.191-0.639-0.287-1.364-0.287-2.174
		c0-0.781,0.101-1.499,0.303-2.156c0.202-0.657,0.508-1.222,0.916-1.699c0.409-0.475,0.918-0.844,1.528-1.108
		c0.611-0.262,1.324-0.393,2.14-0.393c0.788,0,1.476,0.117,2.062,0.351c0.586,0.234,1.073,0.574,1.463,1.022
		c0.391,0.447,0.684,0.989,0.879,1.629C168.318,144.318,168.414,145.038,168.414,145.841z M166.594,145.958
		c0-0.518-0.048-1.008-0.145-1.469c-0.097-0.462-0.256-0.866-0.477-1.215c-0.223-0.348-0.523-0.623-0.903-0.825
		c-0.379-0.202-0.852-0.303-1.418-0.303c-0.523,0-0.973,0.092-1.348,0.276c-0.376,0.185-0.686,0.446-0.93,0.783
		s-0.424,0.737-0.542,1.198c-0.118,0.461-0.177,0.965-0.177,1.511c0,0.526,0.048,1.02,0.145,1.481s0.257,0.865,0.483,1.208
		c0.227,0.345,0.528,0.618,0.908,0.82c0.381,0.202,0.853,0.303,1.418,0.303c0.516,0,0.964-0.092,1.343-0.276
		c0.379-0.185,0.691-0.443,0.935-0.778c0.244-0.334,0.423-0.731,0.537-1.192C166.536,147.018,166.594,146.512,166.594,145.958z"/>
	<path d="M176.253,137.215c0,0.135-0.008,0.243-0.022,0.325c-0.014,0.081-0.031,0.148-0.048,0.197
		c-0.018,0.05-0.041,0.083-0.069,0.101c-0.029,0.018-0.064,0.027-0.107,0.027c-0.05,0-0.112-0.017-0.186-0.048
		c-0.075-0.032-0.166-0.067-0.271-0.106c-0.107-0.039-0.233-0.075-0.378-0.107c-0.146-0.032-0.315-0.048-0.507-0.048
		c-0.262,0-0.486,0.043-0.67,0.129c-0.185,0.085-0.335,0.218-0.448,0.399c-0.113,0.182-0.195,0.416-0.244,0.703
		c-0.05,0.288-0.075,0.638-0.075,1.049v1.044h2.14c0.057,0,0.106,0.013,0.144,0.037c0.039,0.025,0.075,0.067,0.107,0.127
		c0.032,0.061,0.056,0.138,0.074,0.229c0.018,0.093,0.027,0.206,0.027,0.341c0,0.256-0.032,0.441-0.096,0.554
		c-0.064,0.113-0.149,0.169-0.256,0.169h-2.14v8.403c0,0.057-0.014,0.104-0.042,0.144s-0.076,0.073-0.144,0.101
		s-0.158,0.05-0.271,0.064c-0.113,0.015-0.256,0.022-0.427,0.022c-0.171,0-0.312-0.006-0.425-0.022
		c-0.113-0.014-0.205-0.036-0.271-0.064c-0.069-0.028-0.116-0.061-0.144-0.101c-0.029-0.039-0.043-0.087-0.043-0.144v-8.403h-1.352
		c-0.113,0-0.199-0.056-0.256-0.169c-0.056-0.113-0.085-0.298-0.085-0.554c0-0.135,0.008-0.248,0.022-0.341
		c0.014-0.092,0.036-0.168,0.064-0.229c0.029-0.06,0.065-0.102,0.107-0.127c0.042-0.024,0.092-0.037,0.149-0.037h1.352v-0.991
		c0-0.667,0.062-1.24,0.187-1.72c0.124-0.479,0.313-0.871,0.569-1.177c0.256-0.304,0.577-0.53,0.964-0.676
		c0.387-0.145,0.843-0.218,1.368-0.218c0.25,0,0.49,0.023,0.725,0.069s0.415,0.096,0.544,0.149c0.127,0.053,0.213,0.102,0.255,0.144
		c0.043,0.043,0.079,0.098,0.107,0.166c0.028,0.067,0.048,0.149,0.059,0.244C176.247,136.964,176.253,137.08,176.253,137.215z"/>
</g>
<g enable-background="new    ">
	<path d="M15.836,177.083l-1.278,3.525c-0.043,0.113-0.151,0.201-0.325,0.261c-0.174,0.06-0.439,0.09-0.794,0.09
		c-0.185,0-0.334-0.009-0.447-0.027c-0.114-0.018-0.201-0.047-0.261-0.09c-0.06-0.042-0.094-0.099-0.101-0.171
		c-0.007-0.07,0.011-0.155,0.053-0.255l1.32-3.334c-0.064-0.028-0.124-0.075-0.181-0.139c-0.057-0.064-0.096-0.131-0.117-0.202
		l-3.419-9.158c-0.057-0.149-0.085-0.266-0.085-0.351s0.028-0.153,0.085-0.202c0.057-0.05,0.15-0.083,0.277-0.101
		c0.128-0.018,0.299-0.027,0.511-0.027c0.213,0,0.38,0.005,0.5,0.015c0.121,0.011,0.216,0.031,0.288,0.059
		c0.071,0.029,0.122,0.07,0.154,0.124c0.032,0.052,0.066,0.126,0.101,0.218l2.737,7.688h0.032l2.641-7.73
		c0.043-0.135,0.094-0.223,0.155-0.261c0.06-0.039,0.151-0.067,0.271-0.085c0.121-0.018,0.295-0.027,0.522-0.027
		c0.199,0,0.362,0.009,0.49,0.027c0.128,0.018,0.222,0.051,0.283,0.101c0.06,0.05,0.09,0.117,0.09,0.202s-0.022,0.192-0.064,0.32
		L15.836,177.083z"/>
	<path d="M29.999,171.919c0,0.781-0.103,1.5-0.309,2.156c-0.206,0.657-0.513,1.224-0.921,1.699
		c-0.408,0.476-0.919,0.847-1.534,1.113c-0.614,0.266-1.326,0.4-2.135,0.4c-0.788,0-1.475-0.117-2.061-0.351
		c-0.586-0.234-1.073-0.576-1.464-1.022c-0.39-0.447-0.681-0.991-0.873-1.629c-0.192-0.639-0.288-1.364-0.288-2.174
		c0-0.781,0.101-1.499,0.304-2.156c0.202-0.657,0.507-1.222,0.916-1.699c0.409-0.475,0.918-0.844,1.529-1.108
		c0.611-0.262,1.324-0.393,2.14-0.393c0.788,0,1.475,0.117,2.06,0.351c0.586,0.234,1.074,0.574,1.464,1.022
		c0.39,0.447,0.683,0.989,0.879,1.629C29.901,170.396,29.999,171.116,29.999,171.919z M28.178,172.036
		c0-0.518-0.048-1.008-0.145-1.469c-0.097-0.462-0.257-0.866-0.478-1.215c-0.222-0.348-0.523-0.623-0.903-0.825
		c-0.38-0.202-0.852-0.303-1.418-0.303c-0.523,0-0.972,0.092-1.348,0.276c-0.376,0.185-0.686,0.446-0.93,0.783
		c-0.244,0.337-0.425,0.737-0.542,1.198c-0.118,0.461-0.177,0.965-0.177,1.511c0,0.526,0.048,1.02,0.145,1.481
		s0.258,0.865,0.484,1.208c0.225,0.345,0.528,0.618,0.908,0.82c0.379,0.202,0.852,0.303,1.418,0.303
		c0.516,0,0.963-0.092,1.343-0.276c0.38-0.185,0.691-0.443,0.935-0.778c0.243-0.334,0.422-0.731,0.537-1.192
		C28.121,173.096,28.178,172.59,28.178,172.036z"/>
	<path d="M40.797,176.817c0,0.057-0.013,0.104-0.038,0.144c-0.025,0.039-0.069,0.073-0.133,0.101
		c-0.064,0.028-0.147,0.05-0.25,0.064c-0.103,0.015-0.229,0.022-0.378,0.022c-0.163,0-0.296-0.006-0.399-0.022
		c-0.103-0.014-0.185-0.036-0.244-0.064c-0.06-0.028-0.101-0.061-0.123-0.101c-0.021-0.039-0.032-0.087-0.032-0.144v-1.267
		c-0.547,0.604-1.086,1.043-1.618,1.32c-0.533,0.276-1.072,0.415-1.619,0.415c-0.639,0-1.177-0.107-1.613-0.32
		c-0.437-0.213-0.789-0.502-1.059-0.868c-0.27-0.365-0.463-0.791-0.581-1.277c-0.117-0.486-0.176-1.077-0.176-1.774v-5.814
		c0-0.056,0.013-0.104,0.038-0.144c0.025-0.038,0.073-0.074,0.144-0.106c0.071-0.032,0.163-0.053,0.277-0.065
		c0.113-0.01,0.255-0.015,0.426-0.015c0.17,0,0.312,0.005,0.426,0.015c0.113,0.011,0.204,0.033,0.271,0.065
		c0.067,0.032,0.115,0.067,0.144,0.106c0.029,0.039,0.043,0.088,0.043,0.144v5.58c0,0.562,0.041,1.011,0.122,1.347
		c0.081,0.337,0.206,0.625,0.373,0.863c0.167,0.238,0.378,0.423,0.633,0.554c0.255,0.131,0.554,0.196,0.895,0.196
		c0.44,0,0.879-0.155,1.315-0.469c0.436-0.312,0.9-0.77,1.389-1.373v-6.699c0-0.056,0.013-0.104,0.038-0.144
		c0.025-0.038,0.073-0.074,0.144-0.106c0.071-0.032,0.161-0.053,0.271-0.065c0.11-0.01,0.254-0.015,0.432-0.015
		c0.17,0,0.312,0.005,0.426,0.015c0.113,0.011,0.202,0.033,0.266,0.065c0.064,0.032,0.111,0.067,0.144,0.106
		c0.032,0.039,0.048,0.088,0.048,0.144V176.817z"/>
	<path d="M49.646,167.862c0,0.155-0.004,0.286-0.011,0.393c-0.007,0.107-0.021,0.19-0.043,0.251c-0.021,0.06-0.048,0.106-0.08,0.138
		s-0.076,0.048-0.133,0.048c-0.057,0-0.126-0.017-0.208-0.048c-0.082-0.032-0.174-0.064-0.277-0.096
		c-0.103-0.032-0.218-0.062-0.346-0.09c-0.127-0.028-0.266-0.043-0.415-0.043c-0.178,0-0.351,0.036-0.522,0.107
		c-0.17,0.071-0.35,0.188-0.537,0.351c-0.188,0.163-0.385,0.379-0.591,0.649c-0.206,0.27-0.433,0.6-0.681,0.991v6.304
		c0,0.057-0.015,0.104-0.043,0.144c-0.029,0.039-0.074,0.073-0.138,0.101c-0.064,0.028-0.153,0.05-0.267,0.064
		c-0.113,0.015-0.259,0.022-0.436,0.022c-0.171,0-0.313-0.006-0.426-0.022c-0.114-0.014-0.204-0.036-0.272-0.064
		c-0.067-0.028-0.113-0.061-0.138-0.101c-0.025-0.039-0.038-0.087-0.038-0.144v-9.584c0-0.056,0.011-0.104,0.032-0.144
		c0.022-0.038,0.064-0.074,0.128-0.106s0.145-0.053,0.245-0.065c0.099-0.01,0.23-0.015,0.394-0.015c0.156,0,0.285,0.005,0.388,0.015
		c0.103,0.011,0.183,0.033,0.239,0.065c0.057,0.032,0.098,0.067,0.123,0.106c0.025,0.039,0.037,0.088,0.037,0.144v1.396
		c0.263-0.383,0.509-0.697,0.74-0.937c0.23-0.242,0.449-0.432,0.654-0.57c0.206-0.138,0.41-0.234,0.612-0.286
		c0.202-0.053,0.406-0.08,0.612-0.08c0.092,0,0.197,0.005,0.314,0.015c0.117,0.011,0.24,0.031,0.367,0.059
		c0.128,0.029,0.243,0.061,0.346,0.097c0.103,0.036,0.176,0.07,0.218,0.106c0.043,0.036,0.071,0.07,0.085,0.102
		c0.014,0.032,0.026,0.073,0.037,0.122c0.011,0.05,0.018,0.122,0.022,0.218C49.644,167.569,49.646,167.697,49.646,167.862z"/>
	<path d="M62.595,174.208c0,0.49-0.09,0.927-0.271,1.31c-0.181,0.383-0.439,0.705-0.772,0.969c-0.334,0.262-0.731,0.461-1.192,0.596
		c-0.462,0.135-0.969,0.202-1.523,0.202c-0.341,0-0.665-0.027-0.974-0.08s-0.586-0.121-0.831-0.202
		c-0.245-0.081-0.453-0.167-0.623-0.255c-0.17-0.089-0.294-0.169-0.372-0.241c-0.078-0.07-0.135-0.169-0.171-0.298
		c-0.035-0.127-0.053-0.302-0.053-0.522c0-0.134,0.007-0.248,0.021-0.34c0.014-0.093,0.032-0.167,0.053-0.224
		c0.021-0.056,0.052-0.097,0.09-0.122c0.039-0.024,0.083-0.037,0.133-0.037c0.078,0,0.194,0.047,0.346,0.144
		c0.152,0.096,0.341,0.2,0.564,0.313c0.223,0.115,0.488,0.219,0.793,0.315c0.306,0.095,0.657,0.144,1.054,0.144
		c0.299,0,0.568-0.032,0.809-0.095c0.241-0.064,0.451-0.158,0.628-0.283c0.178-0.124,0.315-0.283,0.41-0.474
		c0.096-0.192,0.144-0.419,0.144-0.681c0-0.27-0.069-0.497-0.208-0.683c-0.139-0.183-0.322-0.348-0.549-0.489
		c-0.227-0.143-0.483-0.269-0.767-0.378c-0.284-0.111-0.577-0.225-0.879-0.346c-0.302-0.121-0.596-0.257-0.884-0.41
		c-0.288-0.153-0.545-0.339-0.772-0.559c-0.227-0.22-0.41-0.483-0.548-0.788c-0.138-0.304-0.208-0.671-0.208-1.096
		c0-0.377,0.073-0.737,0.218-1.081c0.145-0.344,0.364-0.646,0.654-0.905c0.291-0.258,0.655-0.466,1.092-0.623
		c0.437-0.157,0.946-0.234,1.528-0.234c0.255,0,0.511,0.022,0.767,0.064c0.256,0.042,0.486,0.096,0.692,0.159
		c0.206,0.065,0.382,0.134,0.527,0.209c0.146,0.074,0.256,0.14,0.33,0.196c0.074,0.057,0.124,0.107,0.149,0.149
		c0.025,0.043,0.043,0.09,0.053,0.144c0.01,0.053,0.021,0.12,0.032,0.197c0.011,0.078,0.016,0.174,0.016,0.288
		c0,0.121-0.005,0.225-0.016,0.313c-0.011,0.089-0.029,0.162-0.053,0.219s-0.055,0.098-0.09,0.122
		c-0.036,0.025-0.074,0.037-0.117,0.037c-0.064,0-0.156-0.038-0.277-0.117c-0.121-0.078-0.277-0.16-0.469-0.25
		c-0.192-0.089-0.417-0.172-0.676-0.251c-0.259-0.078-0.556-0.117-0.889-0.117c-0.298,0-0.56,0.034-0.788,0.102
		s-0.414,0.163-0.559,0.288c-0.146,0.124-0.256,0.271-0.33,0.442c-0.074,0.169-0.111,0.354-0.111,0.554
		c0,0.276,0.071,0.509,0.213,0.697c0.142,0.188,0.327,0.354,0.554,0.495c0.227,0.143,0.486,0.27,0.777,0.383
		c0.291,0.113,0.587,0.23,0.889,0.351c0.302,0.121,0.6,0.256,0.895,0.405c0.295,0.149,0.556,0.33,0.783,0.544
		c0.227,0.213,0.41,0.469,0.548,0.767C62.526,173.441,62.595,173.797,62.595,174.208z"/>
	<path d="M69.847,176.114c0,0.206-0.015,0.369-0.043,0.49c-0.029,0.121-0.071,0.209-0.128,0.266
		c-0.057,0.056-0.142,0.11-0.255,0.159c-0.114,0.05-0.243,0.09-0.389,0.122c-0.145,0.032-0.3,0.059-0.463,0.08
		c-0.164,0.022-0.327,0.032-0.49,0.032c-0.497,0-0.923-0.065-1.278-0.197c-0.355-0.131-0.646-0.33-0.873-0.596
		c-0.227-0.266-0.393-0.604-0.495-1.011c-0.103-0.409-0.155-0.89-0.155-1.444v-5.601h-1.341c-0.106,0-0.192-0.056-0.256-0.169
		c-0.064-0.113-0.096-0.298-0.096-0.554c0-0.135,0.009-0.248,0.027-0.341c0.017-0.092,0.041-0.168,0.069-0.229
		c0.029-0.06,0.066-0.102,0.112-0.127c0.046-0.024,0.097-0.037,0.155-0.037h1.331v-2.279c0-0.05,0.013-0.096,0.038-0.139
		c0.025-0.042,0.071-0.079,0.138-0.111c0.067-0.033,0.158-0.056,0.272-0.07c0.113-0.014,0.255-0.022,0.426-0.022
		c0.178,0,0.323,0.008,0.437,0.022c0.113,0.014,0.202,0.037,0.266,0.07c0.064,0.032,0.11,0.069,0.138,0.111
		c0.029,0.043,0.043,0.089,0.043,0.139v2.279h2.46c0.057,0,0.106,0.013,0.149,0.037c0.043,0.025,0.08,0.067,0.112,0.127
		c0.032,0.061,0.055,0.138,0.069,0.229c0.015,0.093,0.022,0.206,0.022,0.341c0,0.256-0.032,0.441-0.096,0.554
		c-0.064,0.113-0.149,0.169-0.255,0.169h-2.46v5.347c0,0.66,0.097,1.159,0.293,1.496c0.195,0.337,0.545,0.506,1.049,0.506
		c0.163,0,0.309-0.017,0.436-0.048c0.128-0.032,0.241-0.065,0.341-0.101c0.099-0.036,0.185-0.069,0.255-0.102
		c0.071-0.032,0.135-0.047,0.192-0.047c0.036,0,0.069,0.009,0.101,0.027c0.032,0.018,0.057,0.051,0.074,0.101
		c0.018,0.05,0.034,0.117,0.048,0.202C69.84,175.88,69.847,175.987,69.847,176.114z"/>
	<path d="M80.379,176.817c0,0.057-0.013,0.104-0.038,0.144c-0.025,0.039-0.069,0.073-0.133,0.101
		c-0.064,0.028-0.147,0.05-0.25,0.064c-0.103,0.015-0.229,0.022-0.378,0.022c-0.163,0-0.296-0.006-0.399-0.022
		c-0.103-0.014-0.185-0.036-0.244-0.064c-0.06-0.028-0.101-0.061-0.123-0.101c-0.021-0.039-0.032-0.087-0.032-0.144v-1.267
		c-0.547,0.604-1.086,1.043-1.618,1.32c-0.533,0.276-1.072,0.415-1.619,0.415c-0.639,0-1.177-0.107-1.613-0.32
		s-0.789-0.502-1.059-0.868c-0.27-0.365-0.463-0.791-0.581-1.277c-0.117-0.486-0.176-1.077-0.176-1.774v-5.814
		c0-0.056,0.013-0.104,0.038-0.144c0.025-0.038,0.073-0.074,0.144-0.106c0.071-0.032,0.163-0.053,0.277-0.065
		c0.113-0.01,0.255-0.015,0.426-0.015c0.17,0,0.312,0.005,0.426,0.015c0.113,0.011,0.204,0.033,0.271,0.065
		c0.067,0.032,0.115,0.067,0.144,0.106c0.029,0.039,0.043,0.088,0.043,0.144v5.58c0,0.562,0.041,1.011,0.122,1.347
		c0.081,0.337,0.206,0.625,0.373,0.863s0.378,0.423,0.633,0.554c0.255,0.131,0.554,0.196,0.895,0.196
		c0.44,0,0.879-0.155,1.315-0.469c0.436-0.312,0.9-0.77,1.389-1.373v-6.699c0-0.056,0.013-0.104,0.038-0.144
		c0.025-0.038,0.073-0.074,0.144-0.106c0.071-0.032,0.161-0.053,0.271-0.065c0.11-0.01,0.254-0.015,0.432-0.015
		c0.17,0,0.312,0.005,0.426,0.015c0.113,0.011,0.202,0.033,0.266,0.065c0.064,0.032,0.111,0.067,0.144,0.106
		c0.032,0.039,0.048,0.088,0.048,0.144V176.817z"/>
	<path d="M88.877,163.293c0,0.135-0.006,0.243-0.02,0.325c-0.015,0.081-0.031,0.148-0.048,0.197
		c-0.018,0.05-0.041,0.083-0.069,0.101c-0.029,0.018-0.065,0.027-0.107,0.027c-0.05,0-0.112-0.017-0.186-0.048
		c-0.075-0.032-0.166-0.067-0.272-0.106c-0.106-0.039-0.232-0.075-0.378-0.107c-0.145-0.032-0.313-0.048-0.506-0.048
		c-0.262,0-0.486,0.043-0.671,0.129c-0.185,0.085-0.334,0.218-0.447,0.399c-0.113,0.182-0.195,0.416-0.244,0.703
		c-0.05,0.288-0.075,0.638-0.075,1.049v1.044h2.14c0.057,0,0.104,0.013,0.144,0.037c0.039,0.025,0.075,0.067,0.107,0.127
		c0.032,0.061,0.056,0.138,0.074,0.229c0.018,0.093,0.027,0.206,0.027,0.341c0,0.256-0.032,0.441-0.095,0.554
		s-0.149,0.169-0.256,0.169h-2.14v8.403c0,0.057-0.014,0.104-0.042,0.144c-0.029,0.039-0.076,0.073-0.144,0.101
		c-0.067,0.028-0.158,0.05-0.271,0.064c-0.115,0.015-0.256,0.022-0.427,0.022c-0.171,0-0.313-0.006-0.426-0.022
		c-0.114-0.014-0.204-0.036-0.272-0.064c-0.067-0.028-0.115-0.061-0.144-0.101c-0.028-0.039-0.043-0.087-0.043-0.144v-8.403h-1.352
		c-0.113,0-0.199-0.056-0.255-0.169c-0.057-0.113-0.085-0.298-0.085-0.554c0-0.135,0.007-0.248,0.021-0.341
		c0.015-0.092,0.036-0.168,0.064-0.229c0.028-0.06,0.064-0.102,0.106-0.127c0.043-0.024,0.092-0.037,0.149-0.037h1.352v-0.991
		c0-0.667,0.062-1.24,0.187-1.72c0.124-0.479,0.314-0.871,0.57-1.177c0.255-0.304,0.577-0.53,0.964-0.676
		c0.386-0.145,0.843-0.218,1.368-0.218c0.248,0,0.49,0.023,0.725,0.069c0.234,0.046,0.415,0.096,0.542,0.149
		c0.129,0.053,0.214,0.102,0.256,0.144c0.043,0.043,0.078,0.098,0.107,0.166c0.028,0.067,0.047,0.149,0.059,0.244
		C88.872,163.042,88.877,163.158,88.877,163.293z"/>
	<path d="M97.173,163.996c0,0.411-0.078,0.691-0.234,0.84c-0.157,0.15-0.443,0.224-0.862,0.224c-0.413,0-0.694-0.073-0.847-0.218
		c-0.153-0.146-0.229-0.421-0.229-0.825c0-0.413,0.078-0.693,0.234-0.842c0.157-0.149,0.443-0.224,0.862-0.224
		c0.413,0,0.694,0.073,0.847,0.219C97.096,163.316,97.173,163.591,97.173,163.996z M96.97,176.817c0,0.057-0.014,0.104-0.042,0.144
		c-0.029,0.039-0.075,0.073-0.139,0.101s-0.153,0.05-0.266,0.064c-0.113,0.015-0.26,0.022-0.437,0.022
		c-0.171,0-0.312-0.006-0.425-0.022c-0.115-0.014-0.205-0.036-0.272-0.064c-0.067-0.028-0.113-0.061-0.138-0.101
		c-0.025-0.039-0.038-0.087-0.038-0.144v-9.584c0-0.05,0.013-0.096,0.038-0.139c0.024-0.042,0.07-0.078,0.138-0.106
		c0.067-0.028,0.158-0.05,0.272-0.064c0.113-0.014,0.255-0.022,0.425-0.022c0.177,0,0.323,0.008,0.437,0.022
		s0.202,0.036,0.266,0.064s0.11,0.064,0.139,0.106c0.028,0.043,0.042,0.089,0.042,0.139V176.817z"/>
	<path d="M106.235,174.208c0,0.49-0.09,0.927-0.271,1.31c-0.182,0.383-0.439,0.705-0.773,0.969
		c-0.334,0.262-0.731,0.461-1.192,0.596c-0.462,0.135-0.969,0.202-1.523,0.202c-0.341,0-0.666-0.027-0.974-0.08
		c-0.309-0.053-0.586-0.121-0.831-0.202c-0.244-0.081-0.452-0.167-0.623-0.255c-0.171-0.089-0.294-0.169-0.373-0.241
		c-0.078-0.07-0.135-0.169-0.171-0.298c-0.034-0.127-0.052-0.302-0.052-0.522c0-0.134,0.006-0.248,0.02-0.34
		c0.014-0.093,0.032-0.167,0.053-0.224c0.022-0.056,0.052-0.097,0.09-0.122c0.039-0.024,0.084-0.037,0.134-0.037
		c0.078,0,0.194,0.047,0.346,0.144c0.152,0.096,0.34,0.2,0.564,0.313c0.223,0.115,0.488,0.219,0.793,0.315
		c0.306,0.095,0.657,0.144,1.054,0.144c0.298,0,0.568-0.032,0.809-0.095c0.242-0.064,0.451-0.158,0.629-0.283
		c0.177-0.124,0.315-0.283,0.41-0.474c0.095-0.192,0.144-0.419,0.144-0.681c0-0.27-0.07-0.497-0.208-0.683
		c-0.139-0.183-0.322-0.348-0.549-0.489c-0.228-0.143-0.483-0.269-0.767-0.378c-0.284-0.111-0.577-0.225-0.879-0.346
		c-0.302-0.121-0.596-0.257-0.884-0.41s-0.545-0.339-0.773-0.559c-0.227-0.22-0.41-0.483-0.548-0.788
		c-0.139-0.304-0.208-0.671-0.208-1.096c0-0.377,0.073-0.737,0.218-1.081c0.145-0.344,0.364-0.646,0.654-0.905
		c0.292-0.258,0.656-0.466,1.093-0.623c0.437-0.157,0.946-0.234,1.528-0.234c0.255,0,0.511,0.022,0.767,0.064
		c0.256,0.042,0.486,0.096,0.691,0.159c0.206,0.065,0.382,0.134,0.527,0.209c0.146,0.074,0.256,0.14,0.331,0.196
		c0.074,0.057,0.124,0.107,0.149,0.149c0.024,0.043,0.042,0.09,0.053,0.144c0.01,0.053,0.02,0.12,0.032,0.197
		c0.01,0.078,0.015,0.174,0.015,0.288c0,0.121-0.005,0.225-0.015,0.313c-0.011,0.089-0.029,0.162-0.053,0.219
		c-0.025,0.057-0.055,0.098-0.09,0.122c-0.036,0.025-0.075,0.037-0.117,0.037c-0.064,0-0.157-0.038-0.278-0.117
		c-0.121-0.078-0.276-0.16-0.469-0.25c-0.191-0.089-0.416-0.172-0.676-0.251c-0.258-0.078-0.555-0.117-0.889-0.117
		c-0.298,0-0.56,0.034-0.788,0.102c-0.227,0.067-0.414,0.163-0.559,0.288c-0.145,0.124-0.256,0.271-0.33,0.442
		c-0.075,0.169-0.112,0.354-0.112,0.554c0,0.276,0.071,0.509,0.213,0.697c0.143,0.188,0.327,0.354,0.554,0.495
		c0.228,0.143,0.486,0.27,0.778,0.383c0.29,0.113,0.587,0.23,0.889,0.351c0.302,0.121,0.6,0.256,0.894,0.405
		c0.295,0.149,0.556,0.33,0.783,0.544c0.228,0.213,0.41,0.469,0.549,0.767S106.235,173.797,106.235,174.208z"/>
	<path d="M111.016,175.922c0,0.504-0.083,0.84-0.25,1.007c-0.167,0.167-0.471,0.25-0.91,0.25c-0.427,0-0.721-0.081-0.885-0.244
		c-0.163-0.163-0.244-0.49-0.244-0.979c0-0.504,0.084-0.84,0.251-1.007c0.167-0.167,0.47-0.25,0.91-0.25
		c0.425,0,0.719,0.081,0.884,0.244C110.935,175.106,111.016,175.433,111.016,175.922z"/>
</g>
<path d="M127.771,82.91H60.229c-0.276,0-0.5-0.224-0.5-0.5s0.224-0.5,0.5-0.5h67.542c0.276,0,0.5,0.224,0.5,0.5
	S128.047,82.91,127.771,82.91z"/>
<g>
	<g>
		<path fill="#F18091" d="M61.794,95.449c3.129,0,3.129-4.955,0-4.955C58.664,90.494,58.664,95.449,61.794,95.449L61.794,95.449z"/>
	</g>
</g>
<g>
	<g>
		<path fill="#F18091" d="M67.792,95.449c3.129,0,3.129-4.955,0-4.955S64.662,95.449,67.792,95.449L67.792,95.449z"/>
	</g>
</g>
<g>
	<g>
		<path fill="#F18091" d="M73.659,95.449c3.129,0,3.129-4.955,0-4.955S70.53,95.449,73.659,95.449L73.659,95.449z"/>
	</g>
</g>
<g>
	<g>
		<path fill="#F18091" d="M80.309,95.449c3.129,0,3.129-4.955,0-4.955C77.18,90.494,77.18,95.449,80.309,95.449L80.309,95.449z"/>
	</g>
</g>
<g>
	<g>
		<path fill="#F18091" d="M86.437,95.449c3.129,0,3.129-4.955,0-4.955S83.308,95.449,86.437,95.449L86.437,95.449z"/>
	</g>
</g>
<g>
	<g>
		<path fill="#F18091" d="M92.174,95.449c3.129,0,3.129-4.955,0-4.955C89.045,90.494,89.045,95.449,92.174,95.449L92.174,95.449z"/>
	</g>
</g>
</svg>
