<?xml version="1.0" encoding="utf-8"?>
<!-- Generator: Adobe Illustrator 17.0.0, SVG Export Plug-In . SVG Version: 6.00 Build 0)  -->
<!DOCTYPE svg PUBLIC "-//W3C//DTD SVG 1.1//EN" "http://www.w3.org/Graphics/SVG/1.1/DTD/svg11.dtd">
<svg version="1.1" id="Layer_1" xmlns="http://www.w3.org/2000/svg" xmlns:xlink="http://www.w3.org/1999/xlink" x="0px" y="0px"
	 width="180px" height="156.375px" viewBox="10 21.813 180 156.375" enable-background="new 10 21.813 180 156.375"
	 xml:space="preserve">
<path fill="#F177AE" d="M189.351,126.666c-1.321-13.213-4.444-26.065-11.531-37.116c-2.162-3.483-4.805-6.727-6.006-10.57
	c-1.321-4.084-0.961-8.528-1.081-12.853c-0.24-7.207-1.802-14.294-4.685-20.78c-1.802-4.204-4.204-8.168-7.928-10.811
	c-5.645-4.084-13.333-3.844-20.18-2.522c-10.33,2.042-20.18,6.606-28.468,12.973c-8.408-9.729-20.3-15.976-32.552-20.06
	c-6.366-2.162-13.093-3.724-19.699-2.883c-8.769,1.321-16.456,7.207-21.501,14.534s-7.687,15.976-9.489,24.744
	c-4.564,21.621-4.204,43.963-8.769,65.584c-0.961,4.685-2.282,9.369-3.844,13.934c-1.441,4.204-3.844,8.048-3.604,12.612
	c0.36,8.048,5.645,15.735,13.213,18.618c8.168,3.123,17.297,0.841,25.945,1.321c6.006,0.36,12.012,1.922,17.897,1.441
	c5.045-0.36,9.729-2.282,14.534-3.724c1.081-0.36,2.162-0.601,3.243-0.961c0.12,0,0.12,0,0.24,0c1.321-0.36,2.763-0.601,4.084-0.721
	c1.201-0.12,2.522-0.36,3.724-0.36c13.213-0.841,26.666,3.123,39.879,6.126c15.735,3.604,33.513,5.525,46.846-3.604
	c3.724-2.522,6.967-5.886,8.528-10.09c1.321-3.483,1.441-7.207,1.562-10.811C190.192,142.762,190.072,134.594,189.351,126.666z
	 M97.342,111.651c-1.441-0.12-2.883-0.24-3.964-1.081s-1.682-2.522-0.841-3.604c0.721-0.961,2.162-1.201,2.522-2.282
	c0.48-1.441-1.441-3.123-0.601-4.564c0.721-1.201,2.883-0.841,3.363-2.162c0.48-1.081-0.841-2.643,0.12-3.363
	c0.24-0.24,0.601-0.24,0.961-0.36c1.201-0.12,2.522-0.12,3.604-0.601c1.201-0.36,2.282-1.201,2.522-2.402
	c0.12-0.601,0.12-1.201,0-1.802c-0.48-2.643-1.802-5.045-2.763-7.567c-0.721-2.042-1.201-4.444-0.601-6.606s2.162-4.084,3.003-6.126
	c1.562,2.763,3.003,5.645,4.324,8.648c0.601,1.321,1.081,2.763,1.081,4.204c0,2.282-1.321,4.324-1.682,6.606
	c-0.12,0.841-0.12,1.802,0.48,2.522c0.601,0.601,1.441,0.721,2.282,0.961c2.883,0.721,5.405,2.522,6.967,4.925
	c0.961,1.441,1.562,3.123,2.282,4.805c0.601,1.441,1.081,2.883,1.682,4.324c0.721,1.922,1.802,4.084,3.844,4.324
	c0.721,0.12,1.441,0,2.042-0.24c2.162-0.48,4.324-0.961,6.486-1.441c0.36-0.12,0.721-0.12,0.961,0.12c0.24,0.24,0,0.601-0.24,0.961
	c-0.12,0.12-0.12,0.12-0.24,0.24c-1.562,1.321-3.003,3.003-3.964,4.925c-0.601,1.201-1.201,2.402-1.922,3.483
	c-1.441,2.042-3.604,3.604-4.444,5.886c-0.601-0.721-1.201-1.441-1.802-2.162c-1.682-2.042-3.363-3.964-5.405-5.525
	C111.516,112.492,104.188,112.252,97.342,111.651z M165.088,85.106c0.601-0.601,1.081-0.721,1.802-0.48
	c0.841,0.24,0.601,0.841,0.601,1.441c-0.12,10.21-0.24,20.3,0.721,30.39c0,0.36,0.12,0.841,0.24,1.562
	c-0.601-0.601-0.721-1.081-0.841-1.562c-1.562-3.243-2.883-6.606-4.685-9.729C158.722,99.159,159.442,91.712,165.088,85.106z"/>
<g>
	<g>
		<path fill="#FFFFFF" d="M38.965,36.218c0.961-1.441,1.441-2.162,2.402-3.724c-0.48,0.24-0.721,0.24-1.081,0.36c0,0,0,0-0.12,0
			c-0.24,0-0.48,0.12,0.24-0.721c2.402-2.763,2.522-2.883,3.964-3.964c1.321-1.081,2.042-1.441,2.402-1.562
			c0.36-0.24,2.402-2.162,0.961,0.24c-0.721,1.081-2.042,4.084-2.763,4.685c-0.721,0.36-1.201,0.48-1.922,0.841
			c-2.643,4.564-4.564,10.09-5.285,11.892c-1.201,3.003-3.003,7.207-3.964,11.291c-0.48,2.522-3.844,1.682-3.724,0.961v-0.12
			C31.518,50.992,29.716,51.112,38.965,36.218z"/>
		<path fill="#FFFFFF" d="M48.574,26.849c0.24-0.48,0.841-1.562,1.081-1.802c0.12-0.12,0.601-0.48,0.601-0.48l0.12-0.12
			c0.12,0,0.48-0.12,0.48-0.12c0.24,0,0,0.48-0.24,1.321c0,0.12-0.24,0.721-0.24,0.721c-2.162,7.087-2.522,15.735-3.243,19.699
			c1.081-0.12,1.682-0.12,2.763-0.24c1.081-5.886,0.601-14.174,2.402-21.501c0.12-0.601,0.48-0.721,0.721-0.841
			c0.36-0.12,0.601-0.12,0.961-0.24c0.36,0,0.36,0.36,0.36,0.961c0,0.12,0,0.48,0,0.48c-0.601,10.09-0.12,19.699-1.802,29.669
			c-0.12,0.36-0.36,1.802-0.36,2.042c-0.36,1.802-1.922,1.562-2.522,1.562c-1.321-0.12-1.441-0.48-1.321-1.441
			c0-0.36,0.36-2.042,0.36-2.402c0.12-0.721,0.841-4.204,0.961-4.805c-1.201,0-1.682,0-2.883,0c-0.12,0-0.24,0-0.24,0
			c-0.36,2.402-0.961,4.444-1.441,7.327c-0.12,0.721-0.36,0.961-1.201,0.961c-0.48,0-0.961,0.12-1.562,0.12
			c-1.562-0.12-1.682-0.841-1.441-1.802C42.809,46.308,45.571,36.578,48.574,26.849z"/>
		<path fill="#FFFFFF" d="M56.262,25.287c0-2.883,0.48-2.282,1.802-2.282c0.841,0,3.724-0.601,3.844,1.321c0,0,0,0.12,0,0.24v0.12
			c0.12,1.441,0.36,4.324-0.12,4.324c-0.961-0.12-1.441-0.12-2.402-0.12c0.48,6.727,0.721,9.249,0.48,12.612
			c0.601,0,0.841,0,1.441,0c0.721,0,0.48,1.321,0.24,2.522c-0.12,1.081-0.24,1.562-0.841,1.562s-0.841,0-1.562,0.12
			c-0.36,3.964-0.48,5.646-0.841,8.528c0.841,0,1.201,0,1.922,0c0.24,0,0.48,0.24,0.48,0.721c-0.12,0.841-0.24,1.201-0.36,2.042
			c-0.24,1.321-2.402,1.562-3.483,1.441c-0.12,0-0.12,0-0.12,0c-1.201,0-2.042,0-1.922-1.682
			C56.862,46.068,56.622,36.098,56.262,25.287z"/>
		<path fill="#FFFFFF" d="M70.676,27.329c-0.24-3.123,1.562-2.162,2.522-1.922c1.802,0.48,4.084,0.961,4.805,6.366
			c0.721,4.925,0.12,10.09-2.763,13.093c1.682,1.562,1.081,6.366,1.201,7.928c0.24,2.162,0.48,3.483,0.601,5.645
			c0,0.841-1.562,0.601-1.562,0.721c-0.24,0-0.36,0-0.601,0c0.12,0-0.36-0.12-0.36-0.36c-0.12-2.162-0.48-3.724-0.721-6.006
			c-0.24-2.763,0-4.925-0.961-5.045c-0.12,0-0.12,0-0.24,0c-0.841,4.084-0.24,7.447-0.12,10.45c0,0.721-0.961,0.721-1.321,0.721
			c-0.721,0-1.321-0.12-1.321-1.201c0-6.486,1.562-12.252,1.682-17.777C71.877,37.539,71.156,32.374,70.676,27.329z M73.799,42.824
			c1.081-0.721,3.123-0.601,1.682-10.69c0-0.12-0.36-1.682-1.321-1.321l0,0l0,0c-0.12,0-0.48-0.12-0.36,0.841
			C74.159,36.819,74.64,39.581,73.799,42.824z"/>
		<path fill="#FFFFFF" d="M79.685,29.251c-0.36-2.643,0.36-2.042,1.682-1.441c0.961,0.36,3.964,1.201,4.324,2.883c0,0,0,0.12,0,0.24
			v0.12c0.24,1.081,0.601,3.243,0,3.003c-1.081-0.36-1.682-0.601-2.643-0.961c0.721,4.925,1.321,6.126,0.48,9.85
			c0.601,0.12,0.961,0.12,1.682,0.24c0.841,0.12,0.36,1.562,0,2.883c-0.24,1.081-0.48,1.562-1.201,1.562c-0.721,0-1.081,0-1.802,0
			c-1.081,4.204-0.601,5.645-0.12,7.928c0.961,0.12,1.441,0.12,2.402,0.24c0.24,0,0.721,0.24,0.721,0.601
			c0.12,0.721,0.12,0.961,0.12,1.682c0,1.081-2.522,1.081-3.604,0.961c-0.12,0-0.12,0-0.12,0c-1.081-0.12-1.682,0-2.042-1.441
			C76.802,48.95,80.886,38.38,79.685,29.251z"/>
		<path fill="#FFFFFF" d="M93.978,59.641c0.24-2.042,0.24-3.243,0.12-5.285c-1.201-0.12-1.802-0.24-3.003-0.36
			c0,1.562,0.12,3.604,0,5.045c0,0.24-0.12,0.721-0.12,0.961c-0.12,0.24-0.36,0.36-0.601,0.24c-0.841-0.12-1.201-0.12-2.042-0.12
			c-0.12,0-0.48,0-0.601,0c-0.24,0-0.36-0.24-0.36-0.48c0.721-7.447,2.763-9.97,0.721-22.102c-0.601-5.766,0.721-6.126,3.003-5.045
			c4.084,2.162,5.886,8.889,6.727,11.771c0.12,0.24,0.12,0.601,0.24,0.961c0.36,2.402,1.562,7.447-0.721,15.735v0.12
			c-0.12,0.36-0.601,0.48-0.961,0.36h-0.12c-0.24-0.12-1.562-0.36-1.802-0.36C93.858,60.602,93.978,60.241,93.978,59.641z
			 M91.336,47.869c-0.12,0.36-0.36,2.162-0.36,2.522c0,0.24,0,0.601,0,0.601c1.201,0.12,1.802,0.12,2.883,0.24c0.12,0,0.12,0,0.24,0
			c0,0,0.48-3.243,0.601-4.685c0-0.24,0.12-2.042,0-2.643c-0.12-0.601-0.36-2.162-0.36-2.282c0-0.24-0.48-2.162-0.601-2.763
			c-0.24-0.961-0.841-2.042-1.562-2.282c-0.721-0.24-0.841,0.48-0.841,1.321c0,0.48,0.24,2.763,0.36,3.243
			c0.12,0.601,0.24,2.643,0.24,3.123C91.696,45.107,91.336,47.749,91.336,47.869z"/>
		<path fill="#FFFFFF" d="M100.945,51.353c0.12-4.685-0.24-7.207-2.402-13.213c-0.12-0.24-0.48-1.441-0.24-1.201
			c0.601,0.36,0.841,0.48,1.321,0.841c0.601,0.36,1.201,0.961,1.441,1.562c3.844,7.567,4.444,9.489,2.402,19.219
			c0.721,0,1.081,0.12,1.802,0.12c0.36,0,0.961,0.36,0.841,0.841c-0.24,0.721-0.24,1.081-0.48,1.682
			c-0.36,1.081-3.363,1.201-4.564,0.961c-2.402-0.24-0.721-2.883-0.36-8.288C100.945,53.034,100.945,51.353,100.945,51.353z"/>
	</g>
</g>
<g>
	<g>
		<path fill="#FFFFFF" d="M56.142,106.847c-0.24,0.12-0.601,0.12-0.841,0.12c-0.721,0-1.441-0.48-2.042-1.321
			c-0.24-0.36-0.48-0.841-0.721-1.201c-0.601-1.441-0.961-2.643-0.961-3.363c0-0.12,0-0.36,0-0.48c0-0.36,0-1.081,0.12-1.922
			c0.12-1.081,0.36-2.282,0.961-3.123c0.721-0.961,1.682-1.201,2.643-1.321c0.601,0,1.081,0.12,1.682,0.24
			c0.48,0.12,0.841,0.24,1.201,0.601c0.48,0.48,0.961,0.961,1.201,1.802c0.48,1.201,0.841,2.402,0.841,3.243
			c0,0.841-0.12,1.321-0.36,2.042c0,0.12-0.12,0.24-0.12,0.36c-0.12,0.601-0.36,1.201-0.721,1.802
			c-0.24,0.36-0.48,0.721-0.721,1.081C57.583,106.126,56.862,106.606,56.142,106.847z M55.661,104.084c0.12,0,0.12,0,0.12,0
			c0.24-0.12,0.36-0.36,0.48-0.601c0.24-0.36,0.36-0.721,0.48-1.081c0.24-0.721,0.36-1.201,0.36-1.562c0-0.12,0-0.36,0-0.601
			c0-1.081-0.48-2.402-1.081-3.243c-0.24-0.24-0.36-0.36-0.601-0.36c-0.12,0-0.12,0-0.24,0.12c-0.48,0.24-0.961,1.081-1.201,2.162
			c-0.12,0.841-0.24,1.441-0.24,1.922c0,0.841,0.48,2.042,1.201,2.883C55.301,103.964,55.541,104.084,55.661,104.084z"/>
		<path fill="#FFFFFF" d="M63.469,105.285c-0.36,0.12-0.601,0.12-0.841,0c-0.24-0.12-0.36-0.36-0.48-0.601
			c-0.24-2.042-0.36-3.964-0.601-7.327c-0.12-3.123,0.24-5.645,0.601-8.769c0.12-0.601,0.36-0.961,0.721-1.201
			c0.36-0.24,0.841-0.36,1.321-0.36c0.48-0.12,0.961-0.12,1.321-0.12c0.24,0,0.36,0,0.48,0c0.12,0,0.12,0,0.24,0
			c0.24,0,0.36,0,0.48,0.12c0.36,0.12,0.601,0.48,0.601,0.961c0,0.601-0.12,1.081-0.48,1.321c-0.24,0.12-0.36,0.12-0.601,0.12
			c-0.36,0-0.721,0-1.201,0c-0.12,0-0.12,0-0.12,0.12c0,0,0,0.12,0,0.24c-0.12,3.604-0.24,5.285-0.24,7.327c0,0,0,0,0,0.12l0,0
			c0,0,0,0,0.12,0l0,0c0.24-0.12,0.48-0.12,0.841-0.12c0,0,0,0,0.12,0c0.36,0,0.601,0.12,0.841,0.36
			c0.24,0.24,0.36,0.601,0.36,0.961c0,0.12,0,0.12,0,0.24c0,0.48-0.24,0.721-0.48,0.841c-0.12,0-0.24,0.12-0.48,0.12
			c-0.12,0-0.12,0-0.24,0c-0.24,0-0.48,0-0.721,0c0,0-0.12,0-0.24,0s-0.12,0-0.12,0v0.12c0,0.36,0,0.48,0,0.721
			c0,0.24,0,0.24,0,0.48c0,0.36,0,0.841,0,1.201c0,0.48,0,0.841,0.12,1.201c0,0.12,0,0.24,0.12,0.36c0,0.12,0.12,0.36,0.12,0.48
			c0,0.12,0,0.24-0.12,0.36c-0.12,0.12-0.24,0.24-0.36,0.36c-0.24,0.12-0.48,0.24-0.841,0.36
			C63.709,105.285,63.589,105.285,63.469,105.285z"/>
		<path fill="#FFFFFF" d="M73.679,105.525c-0.12,0-0.24-0.12-0.48-0.24c-0.12-0.12-0.24-0.24-0.36-0.48
			c-0.12-0.24-0.12-0.48-0.12-0.721c0-1.441,0-2.522,0-4.564c0-1.201,0-3.123,0-4.685c0-0.12,0-0.24-0.12-0.24l0,0
			c-0.24,0-0.48,0-0.721,0.12c-0.24,0-0.48-0.12-0.601-0.24c-0.12-0.12-0.24-0.36-0.24-0.601c0-0.12,0-0.12,0-0.24
			c0.12-0.36,0.24-0.721,0.601-0.721c0.12,0,0.36-0.12,0.48-0.12s0.24,0,0.36,0c0.12,0,0.12,0,0.24-0.12c0,0,0.12-0.12,0-0.24
			c0-0.48,0-0.961-0.12-1.441c0-0.48,0-1.201-0.12-1.802c0-0.36,0-0.601,0.24-0.841c0.12-0.24,0.36-0.36,0.721-0.36
			c0.24,0,0.48,0,0.721,0c0.24,0,0.36,0.12,0.601,0.24c0.12,0.12,0.24,0.36,0.24,0.601v0.12c0,0.12,0,0.36,0,0.841
			c0,0.48,0,0.961,0.12,1.441c0,0.48,0,0.961,0.12,1.081c0,0.12,0,0.12,0,0.12h0.12h0.12c0,0,0.12,0,0.36,0l0,0
			c0.24,0,0.36,0,0.601,0c0.24,0,0.48,0.12,0.601,0.24c0.12,0.12,0.24,0.36,0.24,0.601c0,0.24-0.12,0.36-0.24,0.601
			c-0.12,0.24-0.36,0.36-0.601,0.36c-0.24,0-0.601,0.12-0.961,0.12c-0.24,0-0.36,0-0.48,0.12l-0.12,0.12c0,0.12,0,0.24,0,0.36
			c0,0.601-0.12,1.682-0.12,3.003c0,1.321-0.12,2.282-0.12,3.123c0,1.682,0,2.883,0.12,3.123c0.12,0.12,0.12,0.24,0.12,0.36
			c0,0.24-0.12,0.48-0.48,0.721C74.279,105.525,74.039,105.525,73.679,105.525z"/>
		<path fill="#FFFFFF" d="M78.604,106.486c0,0-0.12,0-0.24,0c-0.12,0-0.36-0.24-0.48-0.841s-0.24-1.802-0.24-3.123
			c0-0.841,0-1.562,0-2.282c0-1.441,0.36-5.165,0.36-7.207c0-1.081-0.24-2.282-0.36-3.123c0-0.24,0-0.36,0.12-0.601
			c0.12-0.24,0.48-0.36,0.961-0.48c0.36-0.12,0.601-0.12,0.721-0.12c0.12,0,0.24,0,0.36,0.12c0.12,0.12,0.12,0.24,0.24,0.48v0.12
			c0.12,0.601,0.12,0.841,0.24,1.441c0.24,1.321,0.36,2.042,0.24,3.724c0,0,0.12-0.12,0.36-0.36c0.601-0.601,1.321-0.721,2.162-0.48
			c0.24,0,0.721,0.24,1.321,0.48c0.601,0.24,1.321,0.961,1.562,1.922c0.12,0.36,0.12,0.841,0.12,1.201c0,0.48-0.36,1.201-0.36,2.282
			c0,0.961,0.24,1.562,0.36,2.402c0,0.12,0.12,0.48,0.12,1.081c0.12,0.601,0.12,1.081,0,1.562c0,0.24-0.36,0.48-0.841,0.721
			c-0.12,0.12-0.36,0.12-0.48,0.12c-0.36,0-0.601,0-0.841-0.12c-0.24-0.12-0.36-0.36-0.48-0.601c0-0.24-0.12-0.48-0.12-0.721
			c0-0.24,0-0.36,0-0.48c0-0.36,0-0.841-0.12-1.321c0-0.601,0-1.081-0.12-1.562c0-0.12,0-0.24,0-0.721c0-0.36,0-0.841,0-1.441
			c0-0.841-0.12-1.441-0.36-1.682c-0.12-0.12-0.12-0.12-0.24-0.12c-0.24,0-0.48,0.12-0.721,0.48c-0.24,0.36-0.601,0.721-0.841,1.321
			c-0.24,0.601-0.48,1.081-0.601,1.441c0,0.36,0,0.601,0,1.081c0,0.721,0,1.562,0,2.162c0,0.601,0,0.961,0,0.961
			c0,0.12,0.12,0.12,0.12,0.24c0,0.12,0,0.36-0.24,0.721c-0.12,0.24-0.36,0.601-0.601,0.841
			C79.204,106.486,78.844,106.486,78.604,106.486z"/>
		<path fill="#FFFFFF" d="M90.855,104.564c-0.721,0.12-1.321,0.12-1.922-0.24c-0.601-0.24-1.081-0.721-1.562-1.321
			s-0.721-1.321-0.841-2.042c-0.12-0.601,0-1.562,0.601-2.402c0.601-0.841,1.682-1.441,2.763-1.922
			c1.201-0.48,2.282-0.601,3.363-0.721c0.36,0,0.601,0,0.961,0c0.601,0.12,1.201,0.36,1.562,0.721c0.36,0.36,0.12,0.601-0.721,1.081
			c-0.48,0.24-1.081,0.48-1.682,0.841c-0.601,0.36-0.961,0.721-1.321,1.201c-0.36,0.48-0.48,0.841-0.841,1.081
			c-0.36,0.24-0.721,0.24-1.201,0.24c-0.12,0-0.36,0-0.48,0l0,0c0,0-0.12,0,0,0.12c0.12,0.36,0.36,0.721,0.601,1.081
			c0.36,0.48,0.721,0.601,1.081,0.601c0.12,0,0.36-0.12,0.48-0.24c0.12-0.12,0.24-0.24,0.24-0.36l0,0c0.12-0.24,0.24-0.36,0.36-0.36
			c0.12,0,0.12,0,0.24,0c0.24,0,0.36,0.12,0.601,0.24c0.24,0.12,0.36,0.24,0.48,0.48v0.12c0.12,0.36,0,0.721-0.36,1.081
			C92.537,104.204,91.696,104.444,90.855,104.564z M90.015,99.159c0.24,0,0.48-0.12,0.841-0.24c0.36-0.12,0.721-0.48,1.321-0.721
			c0.601-0.24,1.081-0.48,1.321-0.601c0.24-0.12,0.24-0.24,0-0.24c-0.12,0-0.36,0-0.601,0c-1.201,0.24-2.402,0.721-3.003,1.441
			c-0.12,0.12-0.12,0.12-0.12,0.24c0,0.12,0,0.12,0,0.12C89.895,99.159,89.895,99.159,90.015,99.159z"/>
	</g>
</g>
<g>
	<g>
		<path fill="#FFFFFF" d="M23.109,96.397c0.12,0,0.24,0,0.36,0c0.12,0.12,0.48,0.48,0.48,0.601c0,0.48,0,0.841-0.12,1.441
			c-0.36,10.69,0.841,23.543-2.162,34.113c0.12,0,0.12-0.12,0.24-0.12c5.766-9.129,6.486-21.381,8.048-31.711
			c0.12-0.721,0.36-0.721,0.841-0.36c0.36,0.24,0.841,0.721,0.841,1.321c0.36,10.09,1.682,20.3,1.562,30.39
			c3.123-7.928,3.964-16.576,4.925-24.984l0,0c0.12-0.48,0.24-0.961,0.841-0.36c0.36,0.36,0.841,0.961,0.841,1.321v0.12
			c-0.48,9.249-1.081,19.939-5.766,28.227c-0.12,0.48-0.721,0.961-1.441,0.961c-1.321,0.12-1.562-0.601-1.562-1.201
			c1.321-7.808-0.12-16.696-0.721-24.504c-1.682,8.168-2.522,19.099-9.369,24.984c-0.48,0.601-1.081,1.321-1.922,1.321
			c-0.601,0-1.081-0.24-0.961-0.601c5.886-11.411,3.844-26.666,4.324-39.038c0,0,0,0,0-0.12
			C22.269,97.117,22.509,96.397,23.109,96.397z"/>
		<path fill="#FFFFFF" d="M43.409,121.981c0.12-0.961,0.36-5.525,0.48-6.366c0.24-3.243,0.841-5.165,5.645-4.204
			c3.003,0.601,4.805,2.643,5.165,3.483c0,0.24,0.36,1.682,0.36,2.282c0,0.961,0,3.724,0,3.964c0,0.36,0,0.601,0,0.961
			c-0.48,8.769-1.321,11.651-5.886,12.612c-0.841,0.12-1.441,0.12-2.042-0.12c-3.003-1.321-3.724-7.567-3.724-11.411
			C43.409,122.822,43.409,121.981,43.409,121.981z M48.214,133.393c0.24,0.12,0.601,0,0.961,0c1.682-0.36,2.522-1.802,2.883-2.522
			c1.321-2.162,1.441-10.811,1.441-14.294c0-0.24,0-0.36,0-0.601c-0.12-1.441-0.841-2.402-3.604-3.363c0,0,0,0-0.12,0
			c-4.324-0.601-4.084,0.961-4.324,3.844c-0.12,1.922-0.12,3.243-0.36,5.525c0,0.48,0,0.721,0,1.081
			C45.091,126.306,45.571,132.432,48.214,133.393z"/>
		<path fill="#FFFFFF" d="M59.745,127.387c0-1.441,0-2.282,0-3.724c0-2.402-0.24-9.129-0.36-10.45c0-0.12,0.36-0.36,0.48-0.48
			c0,0,0,0,0.12,0c1.081-0.24,2.282-0.48,3.483-0.601c1.201-0.12,2.282,0,3.243,0.24c2.282,0.601,2.522,1.321,2.522,2.402
			c0,1.922-2.282,5.165-6.246,6.366c3.604,3.724,4.324,8.168,4.925,12.252c0,0.24,0,0.36,0.12,0.601
			c0.12,0.36-0.12,0.841-0.721,0.721c-0.36-0.12-0.721-0.24-0.721-0.601c-0.841-5.405-2.162-9.97-5.045-12.252
			c0,0.36,0,0.48-0.12,0.841c0,0.12,0,1.562,0,2.042c0,3.964,0.12,5.646,0.12,8.528c0,0.36-0.36,0.601-0.841,0.48
			c-0.48-0.12-0.721-0.24-0.721-0.601C59.745,132.312,59.745,128.828,59.745,127.387z M61.187,113.573
			c0.12,1.922,0.36,1.682,0.36,5.886c0,0,0.12,0,0.24,0c0.24,0,0.36,0,0.601,0c0.961,0,1.802-0.48,2.522-0.841
			c2.042-1.081,2.883-2.883,2.883-3.724c0-0.721-0.12-1.081-1.562-1.562c-0.721-0.12-1.682-0.24-2.522-0.12
			C63.108,113.213,61.187,113.453,61.187,113.573z"/>
		<path fill="#FFFFFF" d="M73.559,110.45c0-0.36,0.48-0.601,0.841-0.721c0.12,0,0.24,0,0.24,0c0.12,0,0.36,0.24,0.36,0.24
			c0.721,8.048,0.961,16.336,0.36,24.264c0,0.36,0,0.48,0.12,0.841c0,0,0,0,0.12,0c0.24,0,2.522,0.12,2.763,0.12
			c0.12,0,0.24,0,0.48,0c0.48,0,0.961,0.24,0.841,0.841c0,0.36-0.36,0.721-0.721,0.721c-1.441,0-2.042,0-3.483-0.12
			c-0.12,0-0.24,0-0.48-0.12c-0.601-0.12-1.081-0.36-1.081-0.961c0-0.36-0.12-1.321-0.12-1.441
			C74.52,126.306,74.159,118.258,73.559,110.45z"/>
		<path fill="#FFFFFF" d="M82.808,130.27c0.48-6.246,0.12-13.813,0.48-21.861c0-0.48,0.36-0.961,0.841-1.081
			c6.727-1.081,9.489,1.562,9.489,9.369c0,1.201-0.48,5.405-0.841,8.528c-0.48,3.844-1.922,10.33-6.727,11.771
			c-0.841,0.24-1.922,0.601-2.883,0.601c-0.601,0-0.961-0.601-0.961-1.201C82.327,135.435,82.688,131.23,82.808,130.27z
			 M84.009,135.915c0.48,0.12,1.201-0.24,1.562-0.36c4.444-1.321,4.925-6.967,5.645-10.33c0.601-3.003,0.841-7.087,0.841-8.648
			c-0.12-4.805-1.321-8.528-7.207-7.687c0,0.24-0.12,2.042-0.12,2.402c0.24,6.967,0.48,12.012-0.36,19.819
			C84.129,133.032,84.009,133.873,84.009,135.915z"/>
	</g>
</g>
<g>
	<g>
		<path fill="#FFFFFF" d="M101.186,138.798c-0.24-0.24-0.36-0.721,0-1.682c0.601-1.682,1.441-3.363,2.522-5.285
			c1.201-2.282,2.522-2.162,3.604-1.682c0.721,0.36,1.321,0.841,1.802,1.562c0.12-0.12,0.12-0.12,0.12-0.24
			c0.12-0.12,0.36,0,0.601,0.12c0.12,0.12,0.36,0.48,0.24,0.601c-0.12,0.36-0.36,1.562-0.48,2.402c-0.12,1.081-0.24,1.682,0,1.802
			c0,0,0.12,0,0.36,0c1.562-0.24,3.363-2.042,3.964-3.123c0.12-0.12,0.36-0.12,0.601,0c0.24,0.12,0.36,0.48,0.24,0.601
			c-0.24,0.36-0.841,1.201-1.562,1.682c-0.961,0.601-1.922,1.201-2.883,1.441c-0.721,0.12-1.201,0-1.441-0.12
			c-0.12-0.12-0.24-0.36-0.24-0.601c-0.12-0.48,0.12-1.201,0.24-2.042c-0.24,0.36-0.601,0.721-1.081,1.081
			c-1.802,1.562-3.724,3.003-4.805,3.363c-0.12,0-0.24,0.12-0.36,0.12C101.786,139.158,101.426,139.038,101.186,138.798z
			 M104.309,133.272c-1.081,1.802-2.042,2.883-2.282,3.844c-0.12,0.24-0.12,0.601,0,0.721s0.36,0.12,0.601,0
			c1.441-0.48,4.324-2.643,6.006-5.525c-0.36-0.721-0.721-1.081-1.081-1.201C106.471,130.75,105.269,131.831,104.309,133.272z"/>
		<path fill="#FFFFFF" d="M117.762,136.516c-0.48-0.12-0.721-0.24-0.841-0.36c-0.24-0.12-0.36-0.24-0.48-0.36
			c-0.24-0.24-0.24-0.36-0.24-0.961c0-0.48-0.12-1.081-0.24-1.321c-0.12-0.24-0.24-0.36-0.48-0.601c0,0,0,0-0.12-0.12
			c-0.12,0.48-0.36,0.841-0.601,1.321c-0.12,0.12-0.36,0.12-0.601,0c-0.24-0.12-0.36-0.36-0.24-0.601
			c0.36-0.48,0.601-1.081,0.721-1.441c-0.24-0.36-0.48-0.48-0.601-0.48c-0.24,0-0.12-0.48,0.48-0.36c0.12,0,0.48,0.24,0.841,0.36
			c0.24,0.12,0.48-0.601,0.12,0.48c0.12,0.12,0.24,0.24,0.36,0.36c0.36,0.36,0.721,0.601,0.841,1.081
			c0.12,0.48,0.24,1.081,0.24,1.562s0.12,0.841,0.36,0.961c0,0,0,0,0.24,0c0.24,0,0.961,0.12,2.282-0.48
			c0.841-0.48,1.682-1.441,2.042-2.162c0.12-0.12,0.36-0.24,0.601,0c0.24,0.12,0.36,0.48,0.24,0.721
			c-0.36,0.721-1.201,1.562-2.162,1.922c-0.961,0.48-1.922,0.721-2.643,0.601C117.882,136.516,117.762,136.516,117.762,136.516z"/>
		<path fill="#FFFFFF" d="M122.807,137.236c-0.601-0.36-1.081-0.721-1.321-1.081c-0.24-0.36-0.36-0.601-0.36-0.961
			c0-0.721,0.48-1.562,1.081-2.522c0.721-1.081,1.922-2.162,2.763-2.522c0.721-0.24,1.201-0.24,1.441,0.36
			c0.24,0.601-0.24,2.282-1.441,3.483c-0.841,0.721-1.802,1.201-3.003,1.441c0,0.24,0,0.48,0.24,0.721
			c0.12,0.12,0.36,0.36,0.601,0.48c0.12,0.12,0.601,0.24,1.441,0.36c0.601,0.12,1.321,0.12,2.042,0
			c1.441-0.36,2.402-1.321,3.243-4.324c0.12-0.36,0.36-0.36,0.601,0c0.24,0.36,0.24,0.961,0.24,1.321
			c-0.721,2.883-1.562,3.604-3.123,3.844c-0.601,0.12-1.922,0.24-3.123-0.12C123.768,137.597,123.287,137.477,122.807,137.236z
			 M125.329,130.87c-0.721,0.24-2.162,2.162-2.883,3.483c0.721-0.36,1.321-0.841,1.802-1.321c1.201-1.201,1.321-2.042,1.321-2.042
			l0,0C125.449,130.75,125.449,130.75,125.329,130.87z"/>
	</g>
</g>
<g>
	<path fill="#FFFFFF" d="M33.199,139.038c-1.441,0-2.042-0.12-3.483-0.12c-1.562,7.687-6.967,12.012-2.883,22.342h-0.12
		c-5.525-10.45-0.841-14.774-0.721-22.462c-1.682,0-2.522,0-4.204-0.12c-1.562,7.687-7.447,12.252-3.003,22.102c0,0,0,0-0.12,0
		c-5.886-9.85-0.601-14.414-0.48-22.102c-1.441,0-2.162,0-3.604,0c-3.123,13.453-1.562,16.936,5.045,29.309
		c1.922,0.12,3.003,0.12,4.925,0.36c-0.36-6.847-4.805-13.573-3.724-20.18h0.12c0.36,6.486,5.405,13.453,7.207,20.54
		c1.922,0.24,2.883,0.36,4.805,0.721C28.995,156.335,28.755,151.77,33.199,139.038z"/>
	<path fill="#FFFFFF" d="M46.292,162.941c-2.162-8.288-1.201-11.531-0.12-17.177c0.48-2.162,0.36-3.964-0.48-5.045
		c-0.841-1.201-2.402-1.682-4.444-1.802c-2.042-0.12-3.483,0.36-4.805,1.562s-2.643,3.123-3.363,5.285
		c-1.682,6.006-2.042,8.408,0.721,15.855c1.081,2.883,2.883,5.405,4.324,7.087c1.441,1.682,2.883,2.522,4.805,2.883
		c1.922,0.36,3.363,0.12,3.964-1.441C47.493,168.827,47.133,166.064,46.292,162.941z M41.608,166.665
		c-1.321-0.24-2.643-1.682-3.483-4.084c-2.883-8.168-2.282-10.811-0.601-16.936c0.48-1.802,1.562-2.763,3.003-2.763
		c1.441,0,1.802,0.961,1.441,2.763c-1.441,6.006-2.162,8.889,0.36,17.417C43.049,165.464,42.929,166.785,41.608,166.665z"/>
	<path fill="#FFFFFF" d="M66.952,140.119c-2.282,0-3.363-0.12-5.766-0.12c-0.961,6.727-4.084,11.771-3.964,22.222h-0.12
		c-2.162-10.57-0.24-15.495-1.201-22.342c-2.282-0.12-3.483-0.12-5.886-0.24c-2.883,11.291-1.562,22.102,1.081,33.152
		c1.321,0.24,2.042,0.36,3.363,0.48c-2.042-9.85-2.643-17.297-1.802-27.267h0.12c0.601,9.97,1.922,17.897,4.564,27.627
		c1.321,0.12,1.922,0.24,3.123,0.36c-0.721-10.21-0.12-17.897,2.042-27.867h0.12c-0.841,9.97-0.721,18.138,0.721,28.107
		c1.441,0.12,2.162,0.12,3.604,0.12C65.631,162.461,66.472,151.77,66.952,140.119z"/>
	<path fill="#FFFFFF" d="M80.285,142.762v-3.363c-4.084,0-6.126,0-10.33-0.12c-0.24,11.531-1.321,22.342-0.12,33.993
		c4.084-0.24,5.886-0.48,9.97-1.562c0-1.441-0.12-2.643-0.24-4.805c-2.522,0.36-3.724,0.48-6.366,0.601
		c-0.48-5.165-0.721-5.886-0.12-11.411c2.162,0,3.243,0,5.285,0.12c0.24-2.643,0.48-4.204,0.721-6.486c-2.042,0-3.123,0-5.285,0
		c0.36-4.204,0.12-4.444,0.24-6.967C76.441,142.762,77.763,142.762,80.285,142.762z"/>
	<path fill="#FFFFFF" d="M94.099,139.398h-3.243c0,5.525-0.36,9.609-1.081,19.099c0,0,0,0-0.12,0
		c-0.721-9.489-1.081-13.573-2.522-19.099h-4.685c0.36,10.69-2.162,21.02-0.601,31.711c1.081-0.36,2.162-0.601,3.243-0.961
		c-0.12-6.366,0.601-17.537,0.601-24.384h0.12c1.682,6.847,2.042,18.138,3.724,23.543c1.201-0.12,2.522-0.36,3.724-0.36
		C92.297,159.098,93.978,149.248,94.099,139.398z"/>
	<path fill="#FFFFFF" d="M107.071,165.584c0.841-7.928-0.601-15.855,1.081-23.783c-1.321,0-2.042,0-3.363,0
		c-1.441,8.648,0.24,17.417-1.441,26.065c3.483,0.24,5.285,0.36,8.889,0.841c0.24-0.721,0.24-1.441,0.36-2.643
		C110.435,165.824,109.233,165.704,107.071,165.584z"/>
	<path fill="#FFFFFF" d="M118.602,141.801h-3.363c-1.201,9.009,0.601,18.378-1.321,27.146c1.441,0.24,2.042,0.36,3.483,0.601
		C119.203,160.299,117.281,151.05,118.602,141.801z"/>
	<path fill="#FFFFFF" d="M132.176,141.681c-1.441,0.12-2.042,0.12-3.363,0.12c-1.922,3.844-4.324,5.285-5.525,11.771
		c-0.601-6.486,1.081-7.928,1.201-11.771h-3.363c-2.643,9.249,0.12,18.738-0.961,28.107c1.441,0.24,2.162,0.48,3.724,0.721
		c0.12-2.522,0-5.165,0.24-7.567c0.601-0.961,0.721-1.922,1.081-3.964c1.802,7.207,2.282,8.288,3.363,12.612
		c1.321,0.36,2.042,0.48,3.483,0.721c-1.321-6.967-3.243-13.213-5.285-20.78C127.972,147.326,130.374,145.164,132.176,141.681z"/>
	<path fill="#FFFFFF" d="M143.226,144.323c0.24-1.562,0.36-2.402,0.36-3.724c-3.964,0.48-6.006,0.721-9.85,0.961
		c-2.763,10.09,0,20.78-0.36,31.11c3.604,0.601,5.405,0.961,9.129,1.321c0.36-2.042,0.48-3.243,0.601-5.525
		c-2.522,0-3.724,0-6.126,0c0-4.324,0.12-4.925-0.36-10.09c2.042-0.24,3.003-0.36,5.045-0.601c-0.12-2.402-0.24-3.964-0.36-6.006
		c-2.042,0.36-3.123,0.48-5.165,0.721c-0.24-3.844,0-4.204,0.601-7.327C139.383,144.924,140.704,144.684,143.226,144.323z"/>
	<path fill="#FFFFFF" d="M162.926,137.717c-1.441,0.24-2.162,0.36-3.604,0.601c-0.721,3.363-2.042,4.685-3.003,9.369c0,0,0,0-0.12,0
		c-1.081-4.324-0.841-5.525-2.042-8.648c-1.562,0.24-2.402,0.36-3.964,0.601c1.922,4.925,2.162,7.928,4.204,17.057
		c0.24,6.967,0.24,10.09-1.682,17.657c1.321,0,2.042,0,3.363-0.12c2.162-8.048,2.162-11.171,2.042-18.258
		C159.803,146.365,161.724,143.002,162.926,137.717z"/>
	<path fill="#FFFFFF" d="M175.298,141.32c0-1.802-0.601-3.123-1.682-3.964c-1.081-0.841-2.522-1.081-4.324-0.841
		c-1.802,0.24-3.123,0.961-4.084,2.042c-0.961,1.201-1.562,2.763-1.562,4.685c-0.24,5.045,0.601,9.489-0.36,19.099
		c-0.36,3.604-0.601,6.847-0.36,9.009c0.36,2.042,1.201,3.003,2.763,2.643c1.682-0.36,3.363-1.802,5.045-4.204
		c1.682-2.402,3.123-5.886,3.724-9.369C176.018,151.17,175.418,145.885,175.298,141.32z M170.853,161.5
		c-0.48,3.003-1.562,4.925-2.763,5.165c-1.201,0.24-1.441-1.441-0.961-4.444c1.321-10.09,0.48-14.774,0.601-19.819
		c0-1.562,0.721-2.402,2.042-2.643c1.321-0.24,1.922,0.48,1.922,1.922C171.574,146.605,172.295,151.53,170.853,161.5z"/>
	<path fill="#FFFFFF" d="M187.67,135.314c-1.321,0-1.922,0-3.243,0.12c1.441,7.687,0.12,16.336-0.48,23.903
		c-0.24,1.201-0.841,2.282-1.321,3.003c-0.48,0.721-1.081,1.201-1.682,1.321c-0.601,0.12-0.841-0.12-0.961-0.721
		c-0.12-0.601,0.12-1.682,0.36-3.123c0.601-7.808,1.922-16.456,0.48-24.384c-1.441,0.12-2.162,0.12-3.604,0.36
		c1.081,7.808,0,16.336-0.48,24.144c-0.601,3.363-1.201,6.606-1.201,8.408c0,1.922,0.721,2.402,2.282,1.802
		c1.562-0.721,3.363-2.282,5.165-4.444s3.483-4.925,4.084-7.447C187.79,151.05,189.231,142.642,187.67,135.314z"/>
</g>
<g>
	<g>
		<path fill="#FFFFFF" d="M24.431,77.058c0.48-5.045,1.321-10.09,2.522-15.015c0.12-0.601,0.48-1.321,0.961-1.682
			c0.601-0.24,0.48,0.601,0.36,1.321c-0.841,3.724-1.321,7.687-1.802,11.411c-0.24,1.922-0.48,3.604-0.601,4.805
			c1.802-0.24,6.366-1.321,9.97-2.402c0-0.36,0.24-4.084,0.24-4.084c0.24-3.483-0.12-7.327-0.24-9.009
			c-0.36-4.084,2.162-3.724,2.162-3.724s1.441,0.12,2.162,4.685c0.36,2.162,0.601,6.366,0.24,9.85c0,0-0.961,8.408-2.162,13.333
			c0,0-0.721,3.363-2.282,3.964C33.8,91.231,34.4,87.388,34.4,87.388c0.36-2.282,1.081-8.408,1.201-10.69
			c-3.243,1.081-7.447,2.162-9.97,2.522c-0.12,3.123-0.961,9.129-1.081,12.973c0,0,0.12,1.321-0.601,1.441
			c-0.721,0.12-0.721-1.081-0.721-1.081C23.23,87.868,24.07,81.142,24.431,77.058z M37.043,73.815c0.12,0.12,0.24,0.12,0.48,0.12
			c0,0,0,0,0.12,0c0.24-0.12,0.48-0.24,0.48-0.48c0.12-0.12,0.12-0.36,0-0.36c-0.24-0.12-0.721-0.12-0.721-0.12
			c-0.12,0-0.12,0.12-0.12,0.12C36.923,73.454,36.803,73.694,37.043,73.815z M37.764,76.457c0-0.24-0.12-0.24-0.24-0.12
			c-0.24,0-0.48,0.36-0.601,0.48c0,0,0,0-0.12,0.12c-0.12,0.24-0.12,0.48,0.12,0.48c0.12,0,0.12,0,0.12,0
			c0.12,0,0.24-0.12,0.36-0.24C37.644,76.817,37.884,76.577,37.764,76.457z M37.644,74.415
			C37.644,74.535,37.644,74.535,37.644,74.415c-0.12,0.36,0,0.36,0.12,0.48c0.12,0,0.12,0,0.12,0c0.12,0,0.24-0.12,0.24-0.12
			c0.12-0.12,0.24-0.36,0.12-0.48c-0.12-0.12-0.12-0.12-0.24-0.12C38.004,74.175,37.764,74.415,37.644,74.415z M38.484,77.058
			c-0.24,0.24-0.24,0.48-0.12,0.48c0,0,0.12,0.12,0.24,0c0.24-0.12,0.48-0.24,0.48-0.48c0.12-0.12,0-0.24-0.12-0.24
			C38.845,76.817,38.605,76.938,38.484,77.058C38.484,76.938,38.484,76.938,38.484,77.058z M38.965,75.376c0.12,0,0.24,0,0.36,0
			c0.24-0.12,0.48-0.24,0.601-0.48c0.12-0.24,0.12-0.36,0-0.36c-0.12-0.12-0.48,0.12-0.601,0.12c-0.12,0-0.12,0-0.12,0.12
			C38.965,75.016,38.845,75.256,38.965,75.376z"/>
		<path fill="#FFFFFF" d="M48.094,73.815c0,1.441-1.081,11.171,1.562,10.69c0,0,2.883,0.24,4.444-6.246c0,0,0.48-1.922,1.081-1.682
			c0.601,0.24,0,2.763,0,2.763c-2.282,8.168-6.486,7.327-6.486,7.327c-6.606,1.441-5.405-11.531-5.405-11.531
			s0.24-9.489,6.486-10.45c0,0,2.643-0.601,3.243,1.201C53.98,68.049,53.379,70.932,48.094,73.815z M44.851,73.214L44.851,73.214
			c0.24-0.12,0.24-0.12,0.36-0.12c0.12-0.12,0.24-0.24,0.12-0.36c-0.12-0.12-0.24-0.12-0.24-0.12c-0.24,0.12-0.36,0.24-0.36,0.24
			c-0.12,0.12-0.12,0.12-0.12,0.12C44.61,73.214,44.61,73.214,44.851,73.214z M46.172,73.815c-0.12-0.12-0.24-0.12-0.48-0.12
			c-0.36,0-0.841,0.36-0.841,0.36c-0.12,0.12-0.12,0.12-0.12,0.12c0.12,0.36,0.24,0.48,0.601,0.48h0.12c0.12,0,0.36-0.12,0.48-0.24
			C46.172,74.175,46.292,73.935,46.172,73.815z M46.893,72.493c-0.12,0-0.24-0.12-0.36,0c-0.24,0.12-0.48,0.36-0.601,0.36l0,0
			c0,0.24,0.12,0.36,0.24,0.36s0.12,0,0.12,0c0.12,0,0.24-0.12,0.36-0.24C46.893,72.974,47.013,72.613,46.893,72.493z
			 M48.214,72.493c1.441-0.841,3.003-2.162,3.604-3.964c0.721-2.402-1.201-2.643-1.201-2.643
			C48.935,66.247,48.334,70.451,48.214,72.493z"/>
		<path fill="#FFFFFF" d="M66.712,70.211c0.12,0.12,0.24,0.24,0.12,0.36c-0.12,0.12-0.24,0.24-0.721,0.12
			c-0.721-0.24-1.802-0.601-2.042-2.402c0-0.36,0-0.601-0.12-0.721c0,0,0.24-10.45-4.444,14.895c0,0,0,3.604-1.562,3.604
			c-1.201,0-1.201-3.123-1.201-3.123c0-4.685,0.36-12.492,0.36-12.492c0-1.081-0.12-1.802-0.12-3.123c0,0-0.24-2.763,1.562-2.763
			c1.682,0,1.802,2.883,1.802,2.883c0,1.321,0,2.162,0,3.243c0,0,0,0.24,0,0.721c0.721-2.883,1.802-6.366,3.724-6.366
			c0,0,1.802,0,2.162,2.402C66.592,69.49,66.352,69.971,66.712,70.211z M58.424,71.292c-0.12-0.12-0.12-0.12-0.24-0.12
			c-0.12,0-0.24,0.12-0.24,0.12l0,0c0,0.24,0.12,0.24,0.12,0.36c0,0,0,0,0.12,0c0,0,0.12,0,0.12-0.12
			C58.544,71.412,58.544,71.292,58.424,71.292z M59.265,72.493c-0.12-0.12-0.24-0.12-0.36,0c-0.24,0.12-0.24,0.36-0.12,0.48l0,0
			c0.12,0.24,0.24,0.48,0.36,0.48c0.12,0,0.24-0.24,0.24-0.36C59.505,72.854,59.385,72.613,59.265,72.493z M59.745,71.292
			c-0.12-0.24-0.601-0.24-0.601-0.24h-0.12c-0.24,0.24-0.24,0.36-0.12,0.601c0.12,0.12,0.24,0.12,0.36,0.24
			c0.24,0,0.36-0.12,0.36-0.24C59.865,71.532,59.865,71.412,59.745,71.292z M60.706,72.493c0-0.12-0.12-0.12-0.24-0.12
			s-0.24,0.12-0.24,0.12l0,0c0,0.24,0.12,0.36,0.12,0.36s0,0,0.12,0.12c0,0,0.12,0,0.12-0.12
			C60.706,72.733,60.826,72.613,60.706,72.493z"/>
		<path fill="#FFFFFF" d="M70.556,67.208c0.721-1.081,1.682-1.922,3.844-1.922c5.165,0,4.444,7.687,4.444,7.687
			s-0.48,13.213-6.126,13.213c-5.405,0-4.925-12.132-4.925-12.132C67.673,66.968,70.556,67.208,70.556,67.208z M68.514,72.613
			c0,0.24,0.12,0.36,0.24,0.36l0,0c0,0,0.12,0,0.24-0.12c0-0.12,0.12-0.24,0-0.36c-0.12-0.12-0.12-0.12-0.24-0.24
			C68.754,72.373,68.634,72.493,68.514,72.613L68.514,72.613z M69.234,74.175c0,0.12,0.24,0.24,0.24,0.24l0,0
			c0.12,0,0.24-0.12,0.36-0.24c0-0.12,0-0.24,0-0.36c-0.12-0.24-0.48-0.36-0.601-0.36c0,0,0,0-0.12,0
			C69.234,73.694,69.114,73.935,69.234,74.175z M69.835,72.733L69.835,72.733c0.12,0.24,0.24,0.36,0.36,0.36l0,0
			c0.12,0,0.24-0.12,0.24-0.24c0-0.12,0-0.36-0.12-0.48c-0.12-0.12-0.24-0.12-0.24-0.12C69.835,72.373,69.835,72.613,69.835,72.733z
			 M71.036,73.935c0,0-0.36,10.09,2.282,10.09c2.282,0,3.724-7.087,3.964-10.45c0.24-3.243-0.36-7.087-2.643-7.327
			c-2.162-0.12-2.763,1.682-2.763,1.682S70.916,68.65,71.036,73.935z"/>
		<path fill="#FFFFFF" d="M83.648,75.136c0,1.441,0.36,9.729,2.763,10.33c0,0,3.243,1.321,3.003-4.324c0,0-0.12-1.682,0.601-1.321
			c0.721,0.36,0.841,2.643,0.841,2.643c0.24,7.327-5.165,4.805-5.165,4.805c-6.126-1.441-5.525-12.492-5.525-12.492
			s0.12-9.129,6.246-9.489c0,0,2.643-0.48,3.123,1.201C90.135,68.409,87.492,74.175,83.648,75.136z M81.246,73.334
			C81.366,73.334,81.366,73.334,81.246,73.334c0.12,0,0.24,0,0.24,0c0.12-0.12,0.12-0.24,0.12-0.36c-0.12-0.12-0.12-0.24-0.24-0.24
			c-0.12,0-0.24,0.12-0.24,0.12l0,0C81.126,73.094,81.246,73.214,81.246,73.334z M82.207,74.415c0-0.12-0.12-0.24-0.36-0.36
			c-0.24-0.12-0.601,0-0.601,0s0,0,0,0.12c0,0.36,0.24,0.601,0.36,0.721c0,0,0,0,0.12,0s0.24,0,0.36-0.12
			C82.207,74.775,82.327,74.535,82.207,74.415z M82.808,73.334c-0.12-0.12-0.12-0.12-0.24-0.12c-0.24,0-0.36,0.24-0.48,0.24l0,0
			c0,0.24,0.12,0.48,0.24,0.48c0,0,0,0,0.12,0c0.12,0,0.12,0,0.24-0.12C82.808,73.694,82.808,73.454,82.808,73.334z M83.769,73.815
			c1.081-0.36,2.643-1.682,3.844-4.324c1.562-3.363-0.601-3.243-0.601-3.243C85.45,66.367,84.009,71.532,83.769,73.815z"/>
		<path fill="#FFFFFF" d="M98.423,90.15c0,0-3.604-0.24-5.525-6.126c0,0-0.601-1.441,0.12-1.562c0.601-0.12,1.321,1.682,1.321,1.682
			c0.841,1.922,1.922,3.844,3.844,4.324c0,0,2.402,0.721,0.841-3.844c-1.081-3.123-3.964-6.126-4.084-6.366
			c0,0-3.964-4.084-2.522-7.808c0,0,1.081-5.525,6.727-5.766c0,0,6.847-1.682,4.084,4.925c0,0-0.48,1.081-1.201,1.081
			c-0.601,0-0.24-0.961-0.24-0.961c0.36-0.961,0.721-2.282,0.36-3.123c-0.24-0.601-1.201-0.961-2.282-0.841
			c0,0-2.162,0.36-3.483,4.204c0,0-1.321,2.402,0.48,5.645c1.802,3.363,4.204,5.645,5.525,9.85
			C102.146,85.706,103.348,91.352,98.423,90.15z M94.219,75.136c0-0.12-0.12-0.24-0.12-0.24c-0.12,0-0.24,0.12-0.24,0.12h-0.12
			c-0.12,0.24,0,0.36,0.12,0.48l0,0c0,0,0.12,0,0.24-0.12C94.099,75.376,94.219,75.256,94.219,75.136z M94.699,75.136
			c0,0.24,0.12,0.48,0.24,0.48l0,0c0.12,0,0.24-0.12,0.36-0.36c0.12-0.24,0.12-0.48,0-0.721c-0.12-0.12-0.24-0.12-0.36,0
			C94.819,74.775,94.699,75.016,94.699,75.136L94.699,75.136z M95.3,76.577c-0.12-0.24-0.48-0.36-0.48-0.36s0,0-0.12,0
			c-0.24,0.24-0.24,0.601-0.12,0.721c0.12,0.24,0.24,0.24,0.36,0.24l0,0c0.12,0,0.24-0.12,0.36-0.36
			C95.3,76.817,95.3,76.697,95.3,76.577z M95.9,75.857c0-0.12-0.12-0.24-0.12-0.24l0,0c-0.12,0-0.24,0.12-0.24,0.24l0,0
			c0,0.24,0,0.36,0.12,0.36c0,0,0,0,0,0.12c0,0,0.12,0,0.24-0.12C95.9,76.217,96.02,75.977,95.9,75.857z"/>
	</g>
</g>
</svg>
