<?xml version="1.0" encoding="utf-8"?>
<!-- Generator: Adobe Illustrator 17.0.0, SVG Export Plug-In . SVG Version: 6.00 Build 0)  -->
<!DOCTYPE svg PUBLIC "-//W3C//DTD SVG 1.1//EN" "http://www.w3.org/Graphics/SVG/1.1/DTD/svg11.dtd">
<svg version="1.1" id="Layer_1" xmlns="http://www.w3.org/2000/svg" xmlns:xlink="http://www.w3.org/1999/xlink" x="0px" y="0px"
	 width="102.252px" height="180px" viewBox="48.874 10 102.252 180" enable-background="new 48.874 10 102.252 180"
	 xml:space="preserve">
<path fill="#CC3B7D" d="M115.082,147.361c2.299-11.608,4.597-23.216,7.126-34.824c2.528-11.838,1.724-23.101-5.172-33.445
	c-1.034-1.494-1.609-3.218-2.299-5.172c-1.839,1.724-3.333,3.448-5.287,4.827c-0.575,0.345-1.149,0.805-1.724,1.034
	c-0.345,0.23-0.805,0.23-1.149,0c-0.46-0.345-0.23-0.69-0.115-1.149c1.149-6.896,3.563-13.447,4.942-20.228
	c0.115-0.23,0.115-0.575,0.23-0.805c0.69-4.023,0.69-4.023-2.758-6.206c-1.379-0.919-2.643-2.069-4.023-3.103
	c-1.264-0.919-0.46-2.299-1.149-3.333c-0.23-0.46,0.69-0.115,0.805-0.23c0.46-0.805,0.919-0.46,1.264,0
	c0.69,1.034,1.839,1.839,2.758,2.643c0.69-0.23,0-1.034,0.23-1.034c1.264,0.115,1.839,1.264,2.988,2.069
	c-2.758-5.861-5.057-11.838-1.494-18.504c-1.379,0.69-1.839,1.609-2.184,2.528c-0.69,1.839-1.609,1.954-3.103,0.46
	c-0.345-0.345-0.69-0.575-1.034-0.919c-1.379-5.287,0.115-9.654,4.597-12.872c5.287-3.793,11.033-5.172,17.354-2.758
	c0.46,0.115,0.919,0.23,1.379,0.345c1.724,1.264,3.448,2.528,5.172,3.908c0,0.115,0.115,0.23,0.115,0.345v-0.115
	c-0.115-0.115-0.115-0.115-0.23-0.23c-0.115-1.494-0.23-2.873-0.345-4.367c1.839-4.712,4.252-6.436,8.85-6.206
	c4.137,0.23,8.045,3.563,9.309,8.045c0.345,1.264,0.575,2.414,0.919,3.678c0.46,7.011-1.379,13.447-4.023,19.768
	c-2.069,4.827-4.252,9.654-3.678,15.171c0.23,2.414,1.034,4.712,1.264,7.241c-1.264-0.805-2.069-1.724-2.758-2.873
	c-3.793-6.551-3.908-13.332-1.724-20.343c1.494-4.712,1.379-9.424,0-14.136c-0.345-1.379-1.034-2.643-2.643-2.988
	c-0.46-0.115-0.919-0.115-1.264,0.23c-0.46,0.46,0,0.919,0.23,1.264c2.184,3.333,2.873,7.126,2.414,11.033
	c-0.345,3.678-1.379,7.126-3.563,9.884c-0.805-0.23-0.115-1.149-1.034-1.149c-0.575,0.46-0.345,1.379-0.919,1.724
	c-0.575,0.46-1.034,1.034-1.494,1.609c-0.23,0.23-0.805,0.69-0.46,0.919c1.379,0.69,0.115,1.264-0.115,1.609
	c-0.575,0.919-2.414,1.494-1.954,2.643c0.345,0.805,1.954,1.264,3.103,1.494c2.299,0.345,2.643,1.724,2.528,3.563
	c-0.23,3.563-1.034,6.896-1.494,10.344c-1.264,8.85-1.264,17.469,4.367,25.17c2.758,3.678,3.793,7.93,3.908,12.412
	c0,2.299,0.345,4.597,0.46,6.896c-0.115,0.69-0.115,1.494,0.115,2.184l-0.115,0.115l0.115,0.115
	c0.575,10.459,2.069,20.802,3.448,31.146c0.23,1.839,0.575,3.793,0.919,5.632c0.115,0.575,0.115,1.149-0.46,1.379
	c-1.379,0.575-1.034,1.724-0.919,2.758c0.23,2.528,0.69,4.942,0.575,7.47c-0.115,7.011,1.034,13.907,0.919,20.802
	c0,1.609-3.333,5.057-4.942,5.172c-1.379,0-1.839-0.919-1.839-2.069c-0.23-2.758,0.575-5.402,1.839-7.815
	c2.069-3.793,2.069-7.47,1.034-11.493c-0.919-3.333-1.724-6.666-2.414-9.999c-0.23-1.149-0.805-1.264-1.724-1.034
	c-5.057,1.609-10.229,1.494-15.401,0.805c-0.919-0.115-1.264,0.115-1.724,0.919c-1.724,4.137-3.563,8.275-5.057,12.527
	c-0.919,2.528-0.575,5.172-0.919,7.815c-0.345,2.758-0.69,5.632-1.954,8.16c-0.575,1.149-1.264,2.184-2.758,2.069
	c-1.494-0.23-1.609-1.494-1.954-2.758c-0.345-1.379,0-2.643,0.345-4.023c0.919-3.333,2.069-6.436,3.563-9.539
	c1.494-3.103,1.609-6.781,2.528-10.114c0.46-1.609,0.805-3.218,1.264-4.942c0.23-1.034,0.46-1.954-0.919-2.299
	c-1.149-0.345-1.609-1.034-1.034-2.299s0.575-2.758,1.034-4.023C116.347,148.855,116.002,148.051,115.082,147.361z M111.52,71.163
	c1.264-0.575,1.724-1.609,2.069-2.414c1.034-2.528,2.184-4.942,4.482-6.551c0.69-0.46,1.149-1.149,1.839-1.609
	c0.805-0.575,1.264-1.379,1.149-2.414c-0.23-1.609,0.23-3.103,1.264-4.252c0.69-0.919,0.345-1.149-0.575-1.149
	c-2.299,0.115-4.367-0.575-6.436-1.494c-1.379-0.69-1.379,0.115-1.149,0.919c0.575,1.839,0.345,3.563,0.115,5.402
	C113.703,62.083,112.554,66.451,111.52,71.163z"/>
<polygon fill="#CC3B7D" points="142.321,115.64 142.206,115.64 142.321,115.526 142.436,115.526 "/>
<g>
	<path fill="#A52D66" d="M50.837,105.986c0.805-0.575,0.919-0.919,0.115-1.839c-2.414-2.643-1.954-5.746,1.149-7.585
		c0.919-0.575,1.149-1.034,0.919-2.069c-0.69-3.563,1.839-6.091,5.402-5.402c1.149,0.23,1.379,0,1.494-1.034
		c0.345-2.528,2.184-3.793,4.367-4.482c1.839-0.575,3.563,0,4.712,1.839c2.528-2.414,4.367-2.758,6.781-1.379
		c2.643,1.609,4.252,5.402,3.563,8.275c-0.345,1.609-1.494,2.643-2.758,3.448c-0.805,0.46-0.919,0.69-0.46,1.494
		c0.805,1.379,1.149,2.988,3.333,2.988c1.034,0,1.034,0.919,0.805,1.724c-0.575,2.069-0.23,4.137-0.115,6.206
		c0.23,3.908-1.954,6.321-5.287,7.815c-1.724,0.805-2.758,2.069-4.252,3.333c0.69,0.345,1.264,0.23,1.724,0
		c0.46-0.23,1.034-0.46,1.494-0.46c6.436-0.46,10.918-4.482,15.056-8.735c1.264-1.379,2.758-2.528,3.908-4.023
		c1.494-1.839-0.805-3.333-0.69-5.172c0.115-1.609-0.23-3.333,0.23-5.172c1.034,1.034,0.69,2.414,1.494,3.563
		c0.345-2.873,0.69-5.287-0.919-7.585c-0.919-1.264-0.46-3.103-1.264-4.597c-0.345-0.69,2.184-1.954,3.103-1.609
		c0.69,0.23,1.264,0.575,2.069,1.034c-0.69,1.264-0.46,2.873-1.034,4.023c-2.299,4.367-0.115,8.85-0.805,13.217
		c-0.23,1.494,1.149,2.414,0.805,3.908c-0.345,1.609-0.345,3.218-2.528,3.333c-0.805,0.115-1.264,0.69-1.839,1.149
		c-1.379,1.494-2.758,2.988-4.023,4.597c-1.724,2.299-4.023,3.678-6.436,5.057c-2.184,1.264-4.137,2.873-6.321,4.137
		c-0.46,0.23-0.575,0.69-0.69,1.149c-0.115,1.839-0.23,3.793-0.46,5.632c-0.919,6.436-0.805,12.987-1.034,19.538
		c-0.115,1.724-1.379,2.643-1.494,4.137c-0.805,8.16-0.919,16.435-1.149,24.595c0,0.69,0,1.494,0,2.184
		c-0.23,1.839-0.69,3.908,2.528,3.218c0.69-0.115,1.494,0.23,1.724,1.149c0.23,1.034-0.575,1.379-1.264,1.839
		c-1.264,0.805-2.758,0.46-4.137,0.46c-4.942-0.23-5.632-1.034-5.517-6.091c0.115-6.666,0-13.332-0.115-20.113
		c-0.805,1.839-0.919,3.793-1.149,5.746c-0.69,5.172-1.149,10.459-1.839,15.63c-0.115,0.919,0,1.034,0.919,1.264
		c1.034,0.23,2.184,0.919,1.954,2.184c-0.23,1.149-1.379,1.149-2.299,1.149c-2.069,0-4.023-0.115-6.091-0.115
		c-1.494,0-1.839-0.69-1.724-2.184c1.264-10.459,2.299-20.802,3.448-31.261c-1.609-3.908-0.115-7.815,0.115-11.608
		c0.345-5.517,1.149-10.918,2.528-16.32c0.575-2.184,1.264-4.367,2.643-6.206c1.379-1.724-0.115-5.632-2.184-6.321
		c-0.345-0.115-0.46,0.115-0.69,0.23c-2.528,1.034-4.137,0.115-4.367-2.528c-0.115-0.919-0.115-1.264-1.264-1.264
		c-1.839,0-2.988-1.954-2.758-4.023C50.607,107.366,50.722,106.676,50.837,105.986z"/>
	<g>
		<g enable-background="new    ">
			<path fill="#A52D66" d="M50.442,73.867c-0.381,0.313-0.919,0.179-1.121-0.382c-0.09-0.247-0.157-0.56-0.202-0.874
				c-0.18-1.121-0.202-2.287-0.224-3.453c-0.067-2.287,0.022-4.552,0.381-6.839c0.067-0.538,0.179-1.01,0.291-1.48
				c0.089-0.425,0.247-0.561,0.605-0.538c0.157,0.022,0.314,0.045,0.471,0.134c0.359,0.157,0.449,0.336,0.426,0.785
				c-0.067,1.122-0.157,2.198-0.224,3.297c-0.18,2.332-0.426,4.709-0.449,7.062c-0.022,0.561-0.022,1.188-0.022,1.749
				C50.374,73.485,50.419,73.687,50.442,73.867z"/>
			<path fill="#A52D66" d="M60.707,68.395c-0.291,0.965-0.627,1.907-1.076,2.804c-0.202,0.425-0.471,0.785-0.83,1.097
				c-0.403,0.314-0.852,0.382-1.322,0.293c-2.736-0.472-1.995-8.431-0.785-11.862c0.134-0.381,0.942-0.449,1.255-0.134
				c0.089,0.089,0.157,0.247,0.134,0.359c-0.358,3.206-1.211,5.65-0.941,9.169c0.045,0.427,0.112,0.831,0.224,1.256
				c0.068,0.224,0.202,0.472,0.359,0.672c0.157,0.225,0.269,0.225,0.516,0.068c0.314-0.179,0.583-0.47,0.74-0.808
				c0.247-0.515,0.516-1.053,0.717-1.614c0.404-1.099,0.74-2.22,0.875-3.363c0-0.561,0.583-0.672,0.583-0.179
				C61.066,66.916,60.909,67.655,60.707,68.395z"/>
			<path fill="#A52D66" d="M62.544,63.956c0.18-0.74,0.269-1.412,0.426-2.062c0.112-0.382,0.247-0.718,0.471-1.054
				c0.381-0.606,0.986-0.874,1.682-0.808c0.896,0.089,1.524,0.538,1.883,1.458c0.381,1.054,0.672,2.152,0.74,3.274
				c0.089,2.062,0,4.08-0.516,6.053c-0.135,0.606-0.381,1.167-0.628,1.726c-0.56,1.346-1.637,1.571-2.735,1.346
				c-0.987-0.247-1.727-0.829-2.22-1.793c-0.381-0.741-0.627-1.571-0.695-2.444c-0.156-1.346-0.089-2.691,0.157-4.058
				c0.089-0.381,0.224-0.718,0.358-1.121c0.135-0.404,0.471-0.584,0.897-0.516H62.544z M62.993,65.638
				c-0.022,0-0.045,0.023-0.09,0.023c-0.045,0.515-0.089,1.031-0.156,1.591c-0.09,1.054-0.135,2.108-0.09,3.161
				c0.045,0.718,0.202,1.369,0.539,1.974c0.112,0.268,0.291,0.493,0.493,0.695c0.358,0.358,0.807,0.358,1.255,0.156
				c0.291-0.202,0.538-0.449,0.762-0.785c0.359-0.627,0.65-1.278,0.808-1.995c0.448-2.041,0.627-4.037,0.425-6.099
				c-0.089-0.942-0.291-1.794-0.627-2.623c-0.09-0.247-0.202-0.472-0.337-0.673c-0.449-0.627-0.919-0.627-1.345,0.046
				c-0.112,0.224-0.157,0.493-0.269,0.785c-0.068,0.425-0.112,0.806-0.247,1.233c-0.068,0.313-0.068,0.717-0.023,1.053
				c0.157,0.875,0.292,1.749,0.628,2.557l0.067,0.359c0.022,0.156-0.045,0.2-0.179,0.224c-0.314,0.157-0.65-0.045-0.808-0.359
				C63.531,66.512,63.239,66.063,62.993,65.638z"/>
			<path fill="#A52D66" d="M73.684,64.517l-0.202,0.493c-0.583,1.412-0.986,2.87-1.413,4.327c-0.112,0.404-0.247,0.808-0.425,1.188
				c-0.314,0.629-1.054,0.74-1.503,0.202c-0.202-0.247-0.358-0.515-0.471-0.808c-0.381-0.94-0.673-1.905-0.807-2.915
				c-0.089-0.493-0.135-0.986-0.18-1.501c-0.022-0.089-0.022-0.202-0.022-0.291c0.022-0.225,0.112-0.314,0.336-0.359
				c0.516-0.112,0.919,0.068,1.077,0.583c0.202,0.583,0.336,1.188,0.449,1.794c0.18,0.874,0.314,1.726,0.471,2.6l0.067,0.225
				c0.022,0,0.045,0.022,0.067,0.022c0.09-0.202,0.202-0.404,0.269-0.604l1.01-2.916c0.224-0.627,0.471-1.255,0.717-1.883
				C73.236,64.36,73.348,64.337,73.684,64.517z"/>
			<path fill="#A52D66" d="M77.696,67.275c-0.269,0.852-0.606,1.637-1.278,2.243c-0.291,0.268-0.627,0.336-0.964,0.247
				c-0.829-0.18-1.412-0.65-1.636-1.503c-0.27-0.986-0.157-1.928,0.381-2.802c0.247-0.427,0.583-0.718,1.009-0.92
				c0.247-0.134,0.516-0.157,0.785-0.066c0.336,0.111,0.516,0.336,0.471,0.695c-0.068,0.694-0.471,1.233-1.054,1.546
				c-0.224,0.136-0.314,0.247-0.314,0.493c0,0.472-0.022,0.942,0.022,1.413c0,0.449,0.359,0.919,0.83,0.65
				c0.672-0.404,0.919-0.808,1.39-1.883C77.427,67.141,77.359,67.141,77.696,67.275z M75.274,66.333
				c0.381-0.314,0.627-0.627,0.74-1.054c0.045-0.157,0.089-0.313-0.067-0.449C75.61,65.168,75.319,65.795,75.274,66.333z"/>
			<path fill="#A52D66" d="M83.028,70.032c0.135-0.291,0.269-0.47,0.337-0.627c0.201-0.606,0.403-1.099,0.538-1.682
				c0.471-1.614,0.897-3.251,1.368-4.932c0.134-0.472,0.336-0.92,0.538-1.413c0.156-0.404,0.403-0.672,0.785-0.606
				c0.471,0.068,0.919,0.157,1.099,0.831c0.112,0.425,0.201,0.896,0.247,1.389c0.179,2.31,0.179,4.598,0.022,6.907v0.179
				c0.156,0.068,0.291,0.18,0.449,0.225c-0.045,0.066-0.045,0.134-0.068,0.134c-0.403,0.089-0.471,0.404-0.56,0.852
				c-0.112,0.829-0.269,1.682-0.449,2.443c-0.157,0.763-0.471,1.39-0.942,1.883c-0.202,0.202-0.404,0.404-0.673,0.449
				c-0.583,0.023-0.762-0.224-1.054-0.963c-0.314-0.74-0.224-1.503-0.045-2.243c0.202-0.627,0.516-1.21,0.852-1.726
				c0.247-0.336,0.561-0.561,0.942-0.606c0.022-2.847-0.089-5.65-0.134-8.474c-0.112,0.247-0.202,0.447-0.292,0.717l-0.964,3.61
				c-0.247,0.874-0.471,1.839-0.74,2.736c-0.067,0.381-0.201,0.695-0.314,0.963c-0.202,0.493-0.538,0.718-0.942,0.718
				c-0.695,0-1.233-0.427-1.637-1.167c-0.314-0.583-0.471-1.344-0.516-2.039c-0.247-2.579-0.045-3.409,0.404-6.526
				c0.089-0.447,0.314-0.627,0.65-0.604c0.291,0,0.583,0.066,0.852,0.157c0.426,0.224,0.538,0.425,0.516,0.986
				c-0.067,0.874-0.112,1.837-0.156,2.713c-0.112,1.255-0.224,2.443-0.292,3.676c-0.022,0.606,0.068,1.167,0.09,1.749
				C82.939,69.809,82.983,69.83,83.028,70.032z M85.517,75.368c0.336-0.313,0.47-0.695,0.56-1.165
				c0.089-0.65,0.18-1.233,0.224-1.907c0.045-0.402,0.045-0.74,0.067-1.165C85.338,71.737,84.822,74.248,85.517,75.368z"/>
			<path fill="#A52D66" d="M95.76,65.346c-0.717,0.919-1.637,1.054-2.713,0.74c-0.045,0.449-0.068,0.874-0.135,1.301
				c-0.067,0.425-0.157,0.851-0.269,1.278c-0.045,0.179-0.135,0.359-0.224,0.515c-0.65,1.324-2.31,1.435-3.139,0.247
				c-0.269-0.381-0.426-0.806-0.426-1.255c0-1.01,0.269-1.928,0.875-2.736c0.067-0.112,0.156-0.224,0.269-0.291
				c0.358-0.291,0.762-0.291,1.166-0.112c0.112,0.045,0.224,0.112,0.134,0.247c-0.314,0.538-0.403,1.167-0.538,1.749
				c-0.112,0.47-0.224,0.963-0.269,1.457c-0.022,0.314,0.022,0.65,0.112,0.965c0.09,0.359,0.292,0.404,0.583,0.202
				c0.291-0.179,0.538-0.425,0.673-0.74c0.448-0.897,0.627-1.862,0.605-2.848c0-0.202-0.089-0.336-0.224-0.47
				c-0.156-0.157-0.291-0.359-0.403-0.538c-0.135-0.247-0.023-0.382,0.247-0.382c0.201,0.023,0.381,0.091,0.493,0.248
				c0.112,0.134,0.201,0.291,0.269,0.425c0.067,0.202,0.202,0.314,0.381,0.404c0.539,0.247,1.054,0.134,1.525-0.18
				c0.134-0.089,0.247-0.202,0.403-0.313C95.357,65.121,95.514,65.145,95.76,65.346z"/>
			<path fill="#A52D66" d="M101.835,67.88c-0.27,1.883-0.92,3.049-1.682,3.251c-0.224,0.068-0.493,0.023-0.762-0.112
				c-0.336-0.179-0.583-0.47-0.785-0.806c-0.314-0.539-0.471-1.099-0.561-1.705c-0.022-0.247-0.045-0.493-0.112-0.74
				c-0.045,0.089-0.089,0.202-0.112,0.291c-0.201,0.472-0.381,0.92-0.605,1.367c-0.202,0.404-0.516,0.629-0.986,0.606
				c-0.493-0.022-0.897-0.224-1.121-0.695c-0.18-0.336-0.247-0.695-0.247-1.053c-0.022-0.629,0.135-2.175,0.291-2.804
				c0.112-0.493,0.471-0.65,0.964-0.47c0.314,0.134,0.471,0.358,0.449,0.695c-0.022,0.627-0.18,2.196-0.224,2.825
				c-0.022,0.313-0.045,0.627,0.045,1.008c0.135-0.134,0.224-0.202,0.292-0.313c0.179-0.359,0.425-0.695,0.538-1.077
				c0.314-0.942,0.583-1.883,0.875-2.847l0.067-0.225c0.134-0.425,0.404-0.583,0.852-0.493c0.359,0.068,0.493,0.18,0.539,0.561
				c0.022,0.493,0.022,0.965,0.045,1.458c0.112,2.152,0.112,3.923,0.493,4.012c0.808,0,1.278-2.824,1.413-3.093
				C101.499,67.275,101.88,67.589,101.835,67.88z"/>
		</g>
		<path fill="#A52D66" d="M104.739,67.255c0-0.115,0-0.23,0-0.345c0-0.23-0.23-0.46-0.46-0.575c-0.23-0.115-0.46,0-0.69,0.115
			c0,0-0.115,0.115-0.23,0.115l-0.115-0.115c-0.23-0.115-0.46-0.345-0.69-0.23c-0.23,0.115-0.46,0.345-0.575,0.575
			c-0.115,0.23-0.115,0.46,0,0.69c0.115,0.23,0.23,0.46,0.46,0.69c0.115,0.115,0.23,0.23,0.345,0.345l0.115,0.115
			c0.115,0,0.115,0,0.23,0c0.575-0.115,1.264-0.46,1.609-1.034C104.624,67.485,104.739,67.37,104.739,67.255z"/>
	</g>
</g>
</svg>
