<?xml version="1.0" encoding="utf-8"?>
<!-- Generator: Adobe Illustrator 23.0.1, SVG Export Plug-In . SVG Version: 6.00 Build 0)  -->
<svg version="1.1" id="Layer_1" xmlns="http://www.w3.org/2000/svg" xmlns:xlink="http://www.w3.org/1999/xlink" x="0px" y="0px"
	 viewBox="0 0 180 349.16" style="enable-background:new 0 0 180 349.16;" xml:space="preserve">
<style type="text/css">
	.st0{fill:#CCACD2;}
	.st1{fill:#BAE0CD;}
	.st2{fill:#FFE2A9;}
	.st3{fill:#C1E0DD;}
</style>
<g>
	<path class="st2" d="M77.92,228.3c-16.23,4.05-32.69,8.2-47.19,16.54c-19.18,11.02-33.95,29.69-30.12,52.53
		c3.56,21.19,16.22,42.89,37.79,49.55c23.52,7.26,48.1-5.08,72.48-8.44c15.96-2.2,33.75-0.99,46.3-11.11
		c10.06-8.12,14.02-21.68,15.05-34.57c3.7-46.04-22.44-89.98-22.09-136.17c0.22-29.16,11-58.58,4.22-86.95
		c-5.74-24.01-23.22-43.31-41.13-60.29c-4.07-3.86-8.47-7.8-13.95-9c-12.77-2.8-23.35,10.2-28.11,22.38
		c-7.49,19.17-9.34,40.06-9.87,60.64c-1.27,48.75,4.4,97.68,16.8,144.85C78.03,228.27,77.98,228.28,77.92,228.3z"/>
	<path d="M100.99,259.49c0-67.45,0-133.84,0-200.23c0-5.95-0.05-11.91,0.09-17.86c0.1-4.05,1.64-7.22,6.32-7.32
		c3.9-0.08,6.18,2.47,6.25,5.92c0.48,24.46,17.54,37.96,33.88,52.04c9.37,8.07,18.61,16.34,24.9,27.22
		c9.08,15.69,9.18,32.21,3.63,48.94c-1.81,5.44-1.78,10.02,0.19,15.64c9.68,27.56-0.66,50.87-16.74,72.69
		c-2.38,3.23-5.43,5.47-9.18,2.51c-4.08-3.22-1.06-6.8,0.74-9.67c8.48-13.47,13.4-27.82,12.69-43.98
		c-0.9-20.24-25.56-45.74-45.49-46.95c-7.02-0.43-4.22,4.75-4.24,7.49c-0.22,27.94-0.14,55.89-0.14,83.83
		c0,9.62,0.1,19.24-0.02,28.86c-0.38,31.01-31.9,52.79-61.68,42.68c-24.7-8.39-30.93-33.3-12.42-51.95
		C57.1,251.87,77.84,249.84,100.99,259.49z M55.7,309.32c16.4-1.54,30.84-7.38,41.95-19.99c2.94-3.34,6.36-7.24,4.3-12.16
		c-2.2-5.24-6.97-6.6-12.43-6.51c-16.86,0.28-30.91,6.9-42.56,18.76c-3.84,3.91-7.51,8.51-4.43,14.5
		C45.23,309.17,50.47,309.35,55.7,309.32z M162.72,162.66c2.75-33.29-11.62-50.89-49.07-61.93
		C118.61,130.39,142.86,143.2,162.72,162.66z"/>
</g>
</svg>
