<?xml version="1.0" encoding="utf-8"?>
<!-- Generator: Adobe Illustrator 23.0.1, SVG Export Plug-In . SVG Version: 6.00 Build 0)  -->
<svg version="1.1" id="Layer_1" xmlns="http://www.w3.org/2000/svg" xmlns:xlink="http://www.w3.org/1999/xlink" x="0px" y="0px"
	 viewBox="0 0 180 201.99" style="enable-background:new 0 0 180 201.99;" xml:space="preserve">
<style type="text/css">
	.st0{fill:#CCACD2;}
	.st1{fill:#BAE0CD;}
	.st2{fill:#FFE2A9;}
	.st3{fill:#C1E0DD;}
</style>
<g>
	<path class="st0" d="M0.02,24.51c-0.23,6.69,1.95,14.13,4.96,20c12.87,25.11,41.98,38.78,70.17,40c4.91,0.21,10.42,0.33,13.85,3.85
		c3.88,3.97,3.3,10.46,1.67,15.77c-3.83,12.46-11.89,23.3-21.44,32.19c-5.17,4.81-10.82,9.14-15.45,14.49
		c-4.62,5.34-8.23,11.97-8.25,19.03c-0.03,8.23,4.84,15.84,11.07,21.22c11.35,9.8,27.74,13.39,42.15,9.23
		c16.1-4.65,28.53-18.06,35.8-33.16c7.26-15.1,10.05-31.91,12.47-48.5s4.61-33.41,10.83-48.97c2.54-6.34,5.79-13.13,3.93-19.7
		c-1.19-4.22-4.33-7.57-7.37-10.73c-17.14-17.82-36.69-36.29-61.28-38.9C72.37-1.88,52,7.84,31.12,7.52
		c-5.48-0.08-11.01-0.86-16.42-0.01C4.21,9.17,0.3,16.27,0.02,24.51z"/>
	<path d="M45.05,183.41c33.31-23.83,51.71-54.78,54.26-94.56c0.96-15.01,1.28-30.08-1.86-45.01c-2.95-14.02-9.2-24.63-24.44-28.17
		C54.83,11.44,39.5,15.51,25.7,29.29c21.81,4.86,30.36,13.8,29.64,29.92c-0.7,15.56-14.37,27.22-29.59,25.22
		C9.36,82.29-1.37,67.85,1.88,52.32C7.72,24.36,27.53,8.23,61.04,4.15c28.03-3.42,52.63,8.8,63.82,33.62
		c16.96,37.6,11.85,72.8-14.55,104.6c-15.14,18.24-34.89,30.35-55.76,40.87C51.64,184.71,48.74,184.35,45.05,183.41z"/>
	<path d="M180,37.78c-0.29,9.97-5.02,15.07-14.24,15.05c-9.15-0.02-14.49-5.4-14.6-14.23c-0.11-8.94,5.66-14.54,14.39-14.53
		C174.2,24.07,179.59,29.27,180,37.78z"/>
	<path d="M165.67,97.39c9.21,1.05,14.42,5.56,14.23,14.95c-0.2,9.49-6.25,14.35-14.64,14.18c-8.51-0.17-14.4-5.77-14.13-14.91
		C151.39,102.56,157.17,98.11,165.67,97.39z"/>
</g>
</svg>
