<?xml version="1.0" encoding="utf-8"?>
<!-- Generator: Adobe Illustrator 23.0.1, SVG Export Plug-In . SVG Version: 6.00 Build 0)  -->
<svg version="1.1" id="Layer_1" xmlns="http://www.w3.org/2000/svg" xmlns:xlink="http://www.w3.org/1999/xlink" x="0px" y="0px"
	 viewBox="0 0 180 362.11" style="enable-background:new 0 0 180 362.11;" xml:space="preserve">
<style type="text/css">
	.st0{fill:#CCACD2;}
	.st1{fill:#BAE0CD;}
	.st2{fill:#FFE2A9;}
	.st3{fill:#C1E0DD;}
</style>
<g>
	<path class="st0" d="M73.72,12.23c4.33-7.65,11.71-12,22.68-12.22c17.8-0.35,34.63,10.34,44.84,24.92s14.54,32.58,15.8,50.34
		c3.42,48.27-14.17,95.88-13.39,144.26c0.56,34.58,10.48,68.36,12.87,102.86c0.86,12.41-0.18,26.84-10.22,34.19
		c-6.59,4.82-15.32,5.19-23.48,5.37c-21.87,0.49-45.5,0.46-63.2-12.41c-11.71-8.51-19.18-21.59-25.34-34.68
		c-8.28-17.58-14.95-37.37-10.13-56.2c4.8-18.73,20.04-32.92,27.89-50.6c7.63-17.18,7.74-37.55,0.29-54.81
		c-6.17-14.31-17.32-26.81-19.41-42.26c-2.36-17.45,7.4-34.05,17.25-48.65c8.51-12.62,16.76-25.1,19.95-40.2
		C70.9,18.42,72.1,15.09,73.72,12.23z"/>
	<path d="M85.45,276.62c0-83.3,0-165.54,0-247.77c0-4.36,0.08-8.71,0.06-13.07c-0.02-3.87,2.15-6.16,5.63-6.88
		c4.39-0.91,7.73,0.96,8.25,5.53c3.74,33.12,28.03,51.54,50.77,70.9c43.13,36.72,33.95,80.69,7.38,117.26
		c-3.28,4.51-6.65,10.18-12.83,5.8c-5.63-4-0.72-8.66,1.57-12.67c4.85-8.47,9.13-17.05,11.56-26.68
		c9.63-38.29-10.74-71.17-49.38-79.85c-10.76-2.42-8.74,4.52-8.75,10.22c-0.07,47.39-0.06,94.78-0.07,142.16
		c0,20.7-0.01,41.39,0.01,62.09c0.02,21.86-12.31,35.09-30.91,43.63c-19.77,9.08-39.27,8.69-56.69-5.09
		c-17.43-13.79-15.56-40.48,3.1-56.95C33.48,269.09,55.88,266.06,85.45,276.62z"/>
</g>
</svg>
