<?xml version="1.0" encoding="utf-8"?>
<!-- Generator: Adobe Illustrator 23.0.1, SVG Export Plug-In . SVG Version: 6.00 Build 0)  -->
<svg version="1.1" id="Layer_1" xmlns="http://www.w3.org/2000/svg" xmlns:xlink="http://www.w3.org/1999/xlink" x="0px" y="0px"
	 viewBox="0 0 180 259.86" style="enable-background:new 0 0 180 259.86;" xml:space="preserve">
<style type="text/css">
	.st0{fill:#CCACD2;}
	.st1{fill:#BAE0CD;}
	.st2{fill:#FFE2A9;}
	.st3{fill:#C1E0DD;}
</style>
<path class="st0" d="M139.43,162.16c-2.78,4.57-2.09,10.77,0.11,15.77c2.41,5.47,6.32,10.15,8.97,15.51
	c8.29,16.75,2.28,38.35-11.49,50.99c-13.77,12.63-33.71,17.03-52.28,14.92c-18.57-2.11-35.99-10.1-52.06-19.64
	c-8.7-5.17-17.25-10.95-23.63-18.81c-30.74-37.87,25.21-76.65,43.02-106.07C71.36,82.97,73.23,41.31,98.54,13.98
	c9.46-10.22,24.59-17.94,37.08-11.79c5.23,2.58,9.12,7.2,12.59,11.88c20.64,27.8,31.97,62.39,31.79,97.01
	c-0.09,16.48-4.89,35.85-20.26,41.81c-6.64,2.58-14.94,2.49-19.44,8.02C139.98,161.32,139.69,161.73,139.43,162.16z"/>
<path d="M90.41,162.62c-30.53,6-52.88-4.77-60.02-27.73c-5.01-16.09,0.94-29.92,14.71-34.24c10.92-3.43,23.08,2.62,27.23,13.53
	c4.04,10.64-0.94,23.47-11.28,28.42c-2.84,1.36-6.05,1.94-9.17,2.91c11.82,16.92,37.45,15.33,48.28-3.56
	c7.86-13.71,13.89-28.47,21.22-43.77c-9.67-1.48-18.18,1.15-26.75-0.62c-18.79-3.88-33.15-19.32-34.07-38.01
	c-0.64-13.04,7.13-23.47,18.78-25.18c12.95-1.9,24.26,6.04,26.39,18.55c1.95,11.48-5.47,21.58-18.58,25.24
	c-1.09,0.3-2.18,0.58-3.32,0.88c10.61,16.89,37.64,15.02,48.46-3.34c2.81-4.77,4.77-10.04,7.35-14.97c1.78-3.41,3.36-8.21,8.61-5.66
	c5.13,2.49,2.79,6.47,0.98,10.19c-11.13,22.9-22.19,45.84-33.26,68.77c-13.5,27.94-26.98,55.9-40.53,83.82
	c-1.99,4.1-3.34,10.4-9.87,6.89c-5.99-3.22-1.28-7.84,0.36-11.34C73.67,196.85,81.77,180.47,90.41,162.62z"/>
</svg>
