<?xml version="1.0" encoding="utf-8"?>
<!-- Generator: Adobe Illustrator 23.0.1, SVG Export Plug-In . SVG Version: 6.00 Build 0)  -->
<svg version="1.1" id="Layer_1" xmlns="http://www.w3.org/2000/svg" xmlns:xlink="http://www.w3.org/1999/xlink" x="0px" y="0px"
	 viewBox="0 0 180 503.52" style="enable-background:new 0 0 180 503.52;" xml:space="preserve">
<style type="text/css">
	.st0{fill:#CCACD2;}
	.st1{fill:#BAE0CD;}
	.st2{fill:#FFE2A9;}
	.st3{fill:#C1E0DD;}
</style>
<g>
	<path class="st1" d="M35.79,181.11c-9.39,10.49-19.59,20.4-25.44,33.11c-12.8,27.8-1.53,59.94,4.13,90.02
		c8.42,44.76,3.8,91.16,11.78,136c4.87,27.38,19.12,58.14,46.55,62.75c16.05,2.7,32.64-5.05,43.57-17.12s16.87-27.89,20.25-43.81
		c12.55-59.09-7.16-120.14-5.08-180.51c1.59-46.15,15.92-90.96,33.51-133.66c7.62-18.51,16.05-38.43,11.38-57.9
		c-6.34-26.41-37.41-42.35-63.24-39.16c-29.86,3.69-43.79,33.02-48,59.92c-3.81,24.38-3.21,50.44-15.43,71.88
		C45.93,169.34,40.98,175.32,35.79,181.11z"/>
	<path d="M31.25,460.35c0.53-0.1,9.78,8.9,11.47,9.83c4.35,2.41,9.17,3.9,14.15,4.23c10.24,0.69,20.05-3.58,27.36-10.62
		c13.42-12.94,16.23-32.3,16.27-50.09c0.02-9.11-1.21-18.12-1.49-27.2c-0.26-8.29,1.03-11.51-8.42-12.04
		c-41.47-2.33-70.14-23.01-83.9-61.85c-14.87-41.97-4.28-79.49,24.82-112.25c16.51-18.58,36.22-33.3,58.08-44.88
		c7.92-4.2,10.25-9.16,10.21-17.9c-0.14-27.78-2.66-55.74,6.14-82.99c6.99-21.65,19.3-38.51,38.74-50.71
		c10.13-6.35,15.75-5.1,22.12,5.21c15.19,24.56,14.62,51.48,11.23,77.93c-4.69,36.58-21.44,67.95-52.67,88.82
		c-13.14,8.79-16.94,18.22-16.57,33.25c0.37,14.69,1.26,23.1,19.12,27.8c30.14,7.94,46.69,38.9,44.8,73.77
		c-1.8,33.29-17.59,53.42-50.79,61.09c-11.19,2.58-12.63,7.18-12.63,17.17c0,20.11,3.33,40.56-3.16,60.31
		c-8.56,26.08-31.14,38.1-61.42,33.03c-23.05-3.86-40.3-23.8-40.36-46.63c-0.04-15.88,8.96-27.32,22.9-29.11
		c13.86-1.77,27.02,6.92,29.88,19.74c3.41,15.29-3.96,27.71-19.61,32.88C35.62,459.77,33.57,459.92,31.25,460.35z M99.59,272.64
		c-37.7,3.06-43.94,24.51-18.94,69.2c-4.51-2.38-7.35-3.45-9.71-5.18c-35.47-26.11-26.01-80.68,17.2-99.59
		c5.04-2.21,12.23-1.55,11.6-10.75c-0.72-10.55-0.17-21.19-0.17-33.53c-24.64,12.83-45.69,26.13-63.01,44.71
		c-22.28,23.91-24.92,51.48-13.13,80.54c12.03,29.65,35.64,44.18,67.02,47.38c7.64,0.78,9.32-2.17,9.25-9.1
		C99.43,328.46,99.59,300.58,99.59,272.64z M109.7,143.9c32.36-22.65,61.74-44.03,59.76-86.93c-0.34-7.28,1.83-17.78-6.14-20.51
		c-7.81-2.67-15.08,4.73-20.89,10.41C116.15,72.6,106.64,104.34,109.7,143.9z M109.55,272.6c0,28.01,0.19,55.75-0.11,83.5
		c-0.1,9.14,3.58,8.12,9.95,5.54c18.05-7.31,29.55-27.36,27.73-49.41C145.26,289.67,134.59,278.11,109.55,272.6z"/>
</g>
</svg>
