<?xml version="1.0" encoding="utf-8"?>
<!-- Generator: Adobe Illustrator 23.0.1, SVG Export Plug-In . SVG Version: 6.00 Build 0)  -->
<svg version="1.1" id="Layer_1" xmlns="http://www.w3.org/2000/svg" xmlns:xlink="http://www.w3.org/1999/xlink" x="0px" y="0px"
	 viewBox="0 0 180 339.12" style="enable-background:new 0 0 180 339.12;" xml:space="preserve">
<style type="text/css">
	.st0{fill:#CCACD2;}
	.st1{fill:#BAE0CD;}
	.st2{fill:#FFE2A9;}
	.st3{fill:#C1E0DD;}
</style>
<g>
	<path class="st2" d="M59.26,92.45c-14.06,19.53-20.05,45.74-14.32,68.33c5.29,20.83,18.99,42.88,9.16,61.99
		c-4.9,9.54-14.69,15.51-21.23,24.01c-10.36,13.46-11.56,31.61-12.35,48.58c-0.37,8.1-0.7,16.51,2.47,23.97
		c4.5,10.59,15.56,17.38,26.93,19.18s23-0.71,33.88-4.46c29.18-10.06,57.35-33.21,59.36-64.01c1.45-22.24-10.88-42.9-14.97-64.81
		c-3.56-19.03-0.67-39.2,8.07-56.47c7.45-14.72,19.28-28.3,19.81-44.8c0.71-22.3-21.87-40.61-44.19-40.54
		C89.84,63.51,71.5,75.45,59.26,92.45z"/>
	<path d="M85.9,262.34c0-54.97,0-108.75,0-162.54c0-22.35,0.55-44.72-0.27-67.03c-0.38-10.45,4.02-14.36,13.29-16.33
		c22.79-4.85,45.52-10.03,68.17-15.51c7.99-1.94,12.14-1.56,11.57,8.55c-0.9,15.74,4.83,34.8-2.21,46.41
		c-7.19,11.85-28.29,9.54-43.38,12.99c-33.29,7.6-33.35,7.34-33.35,41.61c-0.01,58.87-0.36,117.74,0.16,176.6
		c0.18,21.17-9.7,35.13-27.47,44.24c-18.43,9.44-37.46,11.08-55.81-0.16C-0.92,320.44-5,298.97,6.41,281.42
		c13.09-20.14,41.01-30.39,64.43-23.62C75.43,259.12,79.98,260.55,85.9,262.34z"/>
</g>
</svg>
