<?xml version="1.0" encoding="utf-8"?>
<!-- Generator: Adobe Illustrator 23.0.1, SVG Export Plug-In . SVG Version: 6.00 Build 0)  -->
<svg version="1.1" id="Layer_1" xmlns="http://www.w3.org/2000/svg" xmlns:xlink="http://www.w3.org/1999/xlink" x="0px" y="0px"
	 viewBox="0 0 180 540.51" style="enable-background:new 0 0 180 540.51;" xml:space="preserve">
<style type="text/css">
	.st0{fill:#CCACD2;}
	.st1{fill:#BAE0CD;}
	.st2{fill:#FFE2A9;}
	.st3{fill:#C1E0DD;}
</style>
<g>
	<path class="st3" d="M81.72,3.21C63.15,8.45,46.76,20.08,37.68,38.05c-9.81,19.41-11.76,41.74-12.83,63.46
		c-1.07,21.71-1.52,43.87-8.73,64.38c-7.38,20.96-22.76,48.03-12.92,71.27c10.85,25.62,44.95,29.92,56.86,55.04
		c9.22,19.45,0.85,42.8-11.28,60.58s-28.1,33.27-36.31,53.16c-14.86,36.04-0.49,78.15,22.78,109.43
		c8.66,11.64,19.81,23.09,34.2,24.89c21.7,2.71,39.44-17.46,48.3-37.46c20.74-46.87,16.47-100.6,26.33-150.9
		c11.45-58.43,42.35-114.89,34.74-173.94c-3.31-25.66-13.89-50.6-12.15-76.41c1.31-19.49,9.63-38.94,5.27-57.98
		c-3.81-16.63-17.2-30.03-32.88-36.76C121.2-0.86,100.36-2.04,81.72,3.21z"/>
	<path d="M102.6,344.5c-15.85-10.97-31.99-20.76-45.02-34.54c-29.29-30.98-35.02-62.19-17.75-101.05
		c10.03-22.56,20.91-44.74,31.45-67.07C85.42,111.85,88.24,81.39,74.62,50c38.66,14.96,77.57,54.33,88.05,88.48
		c6.42,20.93,1.35,40.63-6.72,59.73c-10.6,25.1-28.24,46.7-36.84,72.83c-8.53,25.9-2.47,45.94,18.84,63.98
		c12.37,10.47,25.85,19.31,42.05,27.84c-29.96,6.35-58.27,11.58-72.36,41.18c-13.23,27.78-6.93,55.96-1.2,86.48
		c-26.58-16.5-50.52-33.12-61.94-61.03c-10.48-25.62,2.1-53.24,29.02-69.49C82.59,354.5,92.26,349.97,102.6,344.5z"/>
</g>
</svg>
