<?xml version="1.0" encoding="utf-8"?>
<!-- Generator: Adobe Illustrator 25.2.1, SVG Export Plug-In . SVG Version: 6.00 Build 0)  -->
<svg version="1.1" id="Layer_1" xmlns="http://www.w3.org/2000/svg" xmlns:xlink="http://www.w3.org/1999/xlink" x="0px" y="0px"
	 viewBox="0 0 180 312.72" style="enable-background:new 0 0 180 312.72;" xml:space="preserve">
<style type="text/css">
	.st0{fill:#020202;}
	.st1{fill:#FCD1AF;}
	.st2{fill:#F4E0CD;}
	.st3{fill:#B0E0E8;}
	.st4{fill:#FFFFFF;}
	.st5{fill:#F17DB1;}
	.st6{fill:#FFE6B4;}
	.st7{fill:#FFFCD7;}
	.st8{fill:#96D9EE;}
	.st9{fill:#BE9B81;}
	.st10{fill:#85522F;}
	.st11{fill:none;stroke:#F17DB1;stroke-miterlimit:10;}
	.st12{fill:#F173AC;}
	.st13{fill:#C4E9F6;}
	.st14{fill:#ED1C8F;}
	.st15{fill:#3FC6EB;}
	.st16{fill:#FBB681;}
	.st17{fill:#F9C5DC;}
	.st18{fill:#FFD034;}
	.st19{fill:#C8E9F1;}
	.st20{fill:#231F20;}
	.st21{fill:#F6A7C2;}
	.st22{fill:#FACCD7;}
	.st23{filter:url(#Adobe_OpacityMaskFilter);}
	.st24{filter:url(#Adobe_OpacityMaskFilter_1_);}
	.st25{mask:url(#SVGID_1_);fill:url(#SVGID_2_);}
	.st26{opacity:0.3;fill:url(#SVGID_3_);}
	.st27{filter:url(#Adobe_OpacityMaskFilter_2_);}
	.st28{filter:url(#Adobe_OpacityMaskFilter_3_);}
	.st29{mask:url(#SVGID_4_);fill:url(#SVGID_5_);}
	.st30{opacity:0.3;fill:url(#SVGID_6_);}
	.st31{fill:#683A1A;}
</style>
<g>
	<path class="st8" d="M4.94,79.39c0,0-11.89,17.84,5.35,65.41s45.19,129.03,45.19,129.03s16.65,60.06,79.08,30.92
		c0,0,70.76-19.62,35.68-79.68L106.62,97.23c0,0-19.62-36.87-36.27-43.41L4.94,79.39z"/>
	<path class="st15" d="M13.24,52.73c-1.09,0.64-2.01,1.23-2.71,1.73c-3.37,2.38-6.64,5.11-8.67,8.7s-2.64,8.22-0.63,11.83
		c2.39,4.29,7.64,6.05,12.5,6.76c16.31,2.4,33.61-3.17,45.46-14.65c4.23-4.1,7.94-9.3,8.17-15.19
		C68.36,27.05,26.95,44.64,13.24,52.73z"/>
	<path class="st16" d="M12.73,28.06c0.6,1.75,0.61,3.64,0.6,5.5l-0.06,18.31c-0.01,3.03,2.51,5.55,5.53,5.34
		c9.57-0.66,18.91-4.58,26.08-10.96c2.1-1.87,2.28-5.11,0.51-7.29L33.43,24.27c-0.65-0.8-1.32-1.64-1.49-2.66
		c-0.16-0.96,0.15-1.92,0.4-2.86c1.04-3.85,1.12-8.08-0.51-11.72C28.38-0.7,18.28-1.68,11.55,2.26C8.23,4.2,5.68,7.59,5.22,11.41
		c-0.47,3.8,1.12,7.61,3.44,10.66c1.43,1.88,3.17,3.59,4,5.8C12.68,27.93,12.71,27.99,12.73,28.06z"/>
	<g>
		<path class="st4" d="M102.41,257.99c0.25-0.05,0.38,0.25,0.16,0.39l-5.78,3.79c-2.08,1.36-2.89,4.43-1.99,7.52l2,6.82
			c0.07,0.26-0.32,0.42-0.45,0.18l-3.29-6.3c-1.49-2.85-4.2-4.5-6.64-4.04l-6.8,1.28c-0.25,0.05-0.37-0.26-0.16-0.4l5.76-3.64
			c2.12-1.34,2.96-4.44,2.04-7.57l-2.03-6.91c-0.08-0.26,0.32-0.42,0.45-0.18l3.32,6.39c1.5,2.89,4.25,4.54,6.72,4.04L102.41,257.99
			z"/>
		<path class="st4" d="M101.68,281.26c0.2-0.04,0.29,0.19,0.13,0.3l-4.45,2.92c-1.6,1.05-2.23,3.41-1.53,5.79l1.54,5.26
			c0.06,0.2-0.25,0.32-0.34,0.14l-2.53-4.85c-1.15-2.2-3.23-3.46-5.12-3.11l-5.23,0.98c-0.2,0.04-0.29-0.2-0.12-0.31l4.44-2.81
			c1.64-1.04,2.28-3.42,1.57-5.83l-1.57-5.32c-0.06-0.2,0.25-0.32,0.34-0.14l2.56,4.92c1.16,2.22,3.28,3.5,5.17,3.11L101.68,281.26z
			"/>
		<circle class="st4" cx="101.36" cy="269.81" r="1.65"/>
		<circle class="st4" cx="79.5" cy="258.6" r="1.65"/>
		<circle class="st4" cx="106.65" cy="270.42" r="0.9"/>
		<circle class="st4" cx="75.86" cy="256.56" r="0.9"/>
		<path class="st4" d="M105.02,274.49c-0.14-0.35,0.03-0.75,0.38-0.89c0.35-0.14,0.75,0.03,0.89,0.38c0.14,0.35-0.03,0.75-0.38,0.89
			C105.56,275,105.16,274.84,105.02,274.49z"/>
		<circle class="st4" cx="74.07" cy="262.25" r="0.68"/>
	</g>
</g>
</svg>
