<?xml version="1.0" encoding="utf-8"?>
<!-- Generator: Adobe Illustrator 25.2.1, SVG Export Plug-In . SVG Version: 6.00 Build 0)  -->
<svg version="1.1" id="Layer_1" xmlns="http://www.w3.org/2000/svg" xmlns:xlink="http://www.w3.org/1999/xlink" x="0px" y="0px"
	 viewBox="0 0 180 205.39" style="enable-background:new 0 0 180 205.39;" xml:space="preserve">
<style type="text/css">
	.st0{fill:#020202;}
	.st1{fill:#FCD1AF;}
	.st2{fill:#F4E0CD;}
	.st3{fill:#B0E0E8;}
	.st4{fill:#FFFFFF;}
	.st5{fill:#F17DB1;}
	.st6{fill:#FFE6B4;}
	.st7{fill:#FFFCD7;}
	.st8{fill:#96D9EE;}
	.st9{fill:#BE9B81;}
	.st10{fill:#85522F;}
	.st11{fill:none;stroke:#F17DB1;stroke-miterlimit:10;}
	.st12{fill:#F173AC;}
	.st13{fill:#C4E9F6;}
	.st14{fill:#ED1C8F;}
	.st15{fill:#3FC6EB;}
	.st16{fill:#FBB681;}
	.st17{fill:#F9C5DC;}
	.st18{fill:#FFD034;}
	.st19{fill:#C8E9F1;}
	.st20{fill:#231F20;}
	.st21{fill:#F6A7C2;}
	.st22{fill:#FACCD7;}
	.st23{filter:url(#Adobe_OpacityMaskFilter);}
	.st24{filter:url(#Adobe_OpacityMaskFilter_1_);}
	.st25{mask:url(#SVGID_1_);fill:url(#SVGID_2_);}
	.st26{opacity:0.3;fill:url(#SVGID_3_);}
	.st27{filter:url(#Adobe_OpacityMaskFilter_2_);}
	.st28{filter:url(#Adobe_OpacityMaskFilter_3_);}
	.st29{mask:url(#SVGID_4_);fill:url(#SVGID_5_);}
	.st30{opacity:0.3;fill:url(#SVGID_6_);}
	.st31{fill:#683A1A;}
</style>
<g>
	<path class="st8" d="M140.54,205.39c-16.17-0.08-28.38-8.79-32.51-22.38c-1.77-5.83-4.05-7.46-9.81-5.75
		c-6.32,1.87-12.88,1.12-19.17-0.43c-3.79-0.93-5.23,0.28-6.18,3.68c-1.3,4.68-3.61,8.86-6.46,12.86
		c-7.6,10.66-25.68,14.74-37.47,9.36C5.57,192.04-3.1,159.4,12.46,139.27c5.04-6.51,11.59-10.53,19.68-12
		c2.58-0.47,5.1-0.83,4.73-4.42c-0.35-3.36-2.8-3.05-5.17-3.16c-9.33-0.45-17.41-3.81-23.9-10.66c-7.95-8.41-10.04-20.12-5.26-29.24
		c4.89-9.34,16.72-14.85,27.92-12.91c3.88,0.67,7.68,1.67,11.18,3.62c1.42,0.8,3,1.34,4.49,0.04c1.57-1.36,0.95-2.99,0.3-4.45
		c-3.25-7.24-4.07-14.82-3.17-22.61c0.34-2.94-0.53-4.45-3.52-5.54c-7.53-2.75-11.61-8.71-13.36-16.3
		c-1.92-8.33,2.25-17.06,9.44-20.32c6.78-3.07,15.65-0.83,20.23,6.41c3.52,5.55,6.32,5.64,11.86,2.75
		c15.59-8.14,31.38-7.28,46.72,1.2c2.86,1.58,5.07,2.41,7.14-1.1c4.11-6.97,9.95-11.39,18.45-10.28
		c7.49,0.97,11.72,6.03,13.24,13.04c1.88,8.66-1.33,15.79-7.87,21.54c-0.53,0.47-1.1,1.07-1.75,1.22
		c-7.32,1.71-7.67,6.84-6.95,13.02c0.64,5.6-0.84,11.01-3.07,16.2c-0.68,1.59-1.74,3.39-0.16,4.99c1.75,1.78,3.53,0.68,5.37-0.15
		c6.3-2.86,12.82-4.54,19.82-3.15c9.42,1.87,16.69,6.57,19.84,16.01c3.27,9.8,0.3,18.38-6.36,25.79
		c-6.6,7.35-15.12,10.61-24.86,10.88c-2.43,0.07-4.28,0.49-4.4,3.41c-0.09,2.42,1.04,3.54,3.44,3.84
		c23.18,2.9,35.42,30.02,25.45,53.35C165.53,195.3,154.53,204.45,140.54,205.39z M133.23,120.27c-0.38-11.08-4.36-21.91-12.68-31.07
		c-2.23-2.45-4.22-3.11-7.45-1.49c-15.21,7.66-30.62,7.79-45.88,0.12c-3.32-1.67-5.5-1.19-7.94,1.5
		c-9.03,9.96-12.76,21.74-12.59,34.98c0.04,2.81,1.34,4.51,3.93,5.74c11.16,5.29,18.16,14.18,21.84,25.86
		c3.43,10.89,4.88,12.04,16.57,12.44c3.19,0.11,6.4-0.54,9.6-0.9c4.86-0.54,7.12-3.03,8.12-8.12c2.53-12.76,9.5-22.8,21.38-28.57
		C132.54,128.62,133.61,125.66,133.23,120.27z M89.73,66.43c3.79,0.01,7.47-0.52,10.99-2.05c3.5-1.52,5.17-4.39,5.37-7.91
		c0.2-3.46-1.4-6.03-4.92-7.4c-8.1-3.14-16.13-3.3-23.82,0.81c-6.23,3.33-6.07,10,0,13.55C81.17,65.68,85.38,66.38,89.73,66.43z"/>
	<path class="st19" d="M133.23,120.27c-0.38-11.08-4.36-21.91-12.68-31.07c-2.23-2.45-4.22-3.11-7.45-1.49
		c-15.21,7.66-30.62,7.79-45.88,0.12c-3.32-1.67-5.5-1.19-7.94,1.5c-9.03,9.96-12.76,21.74-12.59,34.98
		c0.04,2.81,1.34,4.51,3.93,5.74c11.16,5.29,18.16,14.18,21.84,25.86c3.43,10.89,4.88,12.04,16.57,12.44c3.19,0.11,6.4-0.54,9.6-0.9
		c4.86-0.54,7.12-3.03,8.12-8.12c2.53-12.76,9.5-22.8,21.38-28.57C132.54,128.62,133.61,125.66,133.23,120.27z"/>
	<path class="st19" d="M101.17,49.07c-8.1-3.14-16.13-3.3-23.82,0.81c-6.23,3.33-6.07,10,0,13.55c3.82,2.23,8.02,2.94,12.37,3
		c3.79,0.01,7.47-0.53,10.99-2.06c3.5-1.52,5.17-4.39,5.37-7.91C106.29,53.01,104.69,50.44,101.17,49.07z"/>
</g>
</svg>
