<?xml version="1.0" encoding="utf-8"?>
<!-- Generator: Adobe Illustrator 25.2.1, SVG Export Plug-In . SVG Version: 6.00 Build 0)  -->
<svg version="1.1" id="Layer_1" xmlns="http://www.w3.org/2000/svg" xmlns:xlink="http://www.w3.org/1999/xlink" x="0px" y="0px"
	 viewBox="0 0 180 92.22" style="enable-background:new 0 0 180 92.22;" xml:space="preserve">
<style type="text/css">
	.st0{fill:#020202;}
	.st1{fill:#FCD1AF;}
	.st2{fill:#F4E0CD;}
	.st3{fill:#B0E0E8;}
	.st4{fill:#FFFFFF;}
	.st5{fill:#F17DB1;}
	.st6{fill:#FFE6B4;}
	.st7{fill:#FFFCD7;}
	.st8{fill:#96D9EE;}
	.st9{fill:#BE9B81;}
	.st10{fill:#85522F;}
	.st11{fill:none;stroke:#F17DB1;stroke-miterlimit:10;}
	.st12{fill:#F173AC;}
	.st13{fill:#C4E9F6;}
	.st14{fill:#ED1C8F;}
	.st15{fill:#3FC6EB;}
	.st16{fill:#FBB681;}
	.st17{fill:#F9C5DC;}
	.st18{font-family:'CandyCake';}
	.st19{font-size:23.7742px;}
	.st20{fill:#FFD034;}
	.st21{fill:#C8E9F1;}
	.st22{fill:#231F20;}
	.st23{fill:#F6A7C2;}
	.st24{fill:#FACCD7;}
	.st25{filter:url(#Adobe_OpacityMaskFilter);}
	.st26{filter:url(#Adobe_OpacityMaskFilter_1_);}
	.st27{mask:url(#SVGID_1_);fill:url(#SVGID_2_);}
	.st28{opacity:0.3;fill:url(#SVGID_3_);}
	.st29{filter:url(#Adobe_OpacityMaskFilter_2_);}
	.st30{filter:url(#Adobe_OpacityMaskFilter_3_);}
	.st31{mask:url(#SVGID_4_);fill:url(#SVGID_5_);}
	.st32{opacity:0.3;fill:url(#SVGID_6_);}
	.st33{fill:#683A1A;}
</style>
<g>
	<path class="st8" d="M163.19,63.75c4.34-18.5-29.49-31.55-41.94-19.2c1.75-7.1,3.73-12.87-0.25-19.79
		c-3.19-5.56-11-12.6-17.43-14.08C92.92,8.23,80.3,14.01,81.39,26.6c-0.05-7.99-9.8-8.22-13.59-2.55
		C68.64,7.24,44.54-7.19,30.56,3.9c-9.37,7.44-12.41,27.24-10.63,38.7c-0.68,0.03,1.18,2.5,0.49,2.44C7.78,44.1-0.08,56.1,0,67.23
		c0.07,10.38,4.87,17.08,14.99,19.9c4.08,1.14,9.31,2.05,13.56,1.42c5.37-0.79,8.55-4.33,13.19-6.25c5.15-2.14,4.08-0.91,9.32,2.66
		c6.66,4.54,15.09,6.13,23.08,4.7c3.88-0.7,8.23-4.84,11.71-4.57c5.23,0.41,10.04,6.47,16.16,7.03c5.1,0.46,10.14-0.58,14.71-2.89
		c2.93-1.48,5.19-4.69,7.81-6.07c2.09-1.09,1.75-1.29,4.85-1.32c6.29-0.07,11.63,5.05,18.44,4.39c2.76-0.27,4.11-0.13,6.33-1.94
		c0.82-0.66,2.47-4.11,3.12-4.39c2.61-1.12,7.06,1.49,9.82,1.4c5.08-0.16,11.04-3.65,12.46-8.89
		C182.5,61.55,170.16,60.82,163.19,63.75z"/>
	<text transform="matrix(1 0 0 1 4.0688 73.3052)" class="st4 st18 st19">Baby on the way</text>
	<g>
		<g>
			<g>
				<polygon class="st20" points="128.18,37.88 120.77,43.26 114.65,50.06 122.2,44.54 				"/>
				<polygon class="st20" points="128.17,50.06 122.2,43.39 114.65,37.88 120.77,44.67 				"/>
			</g>
			<path class="st20" d="M129.31,43.84c0.16,0.03,0.17,0.22,0,0.24l-4.33,0.78c-1.56,0.28-2.77,1.74-2.97,3.58l-0.44,4.07
				c-0.02,0.15-0.29,0.15-0.31,0l-0.44-4.07c-0.2-1.84-1.41-3.3-2.97-3.58l-4.33-0.78c-0.16-0.03-0.16-0.22,0-0.24l4.28-0.71
				c1.58-0.26,2.81-1.73,3.01-3.6l0.44-4.12c0.02-0.15,0.29-0.15,0.31,0l0.44,4.12c0.2,1.86,1.44,3.34,3.01,3.6L129.31,43.84z"/>
		</g>
		<g>
			<g>
				<polygon class="st20" points="119.66,26.52 115.25,29.72 111.61,33.77 116.1,30.49 				"/>
				<polygon class="st20" points="119.66,33.77 116.1,29.8 111.6,26.52 115.25,30.57 				"/>
			</g>
			<path class="st20" d="M120.33,30.07c0.1,0.02,0.1,0.13,0,0.15l-2.58,0.46c-0.93,0.17-1.65,1.04-1.77,2.13l-0.26,2.42
				c-0.01,0.09-0.17,0.09-0.18,0l-0.26-2.42c-0.12-1.1-0.84-1.97-1.77-2.13l-2.58-0.46c-0.1-0.02-0.1-0.13,0-0.15l2.55-0.42
				c0.94-0.16,1.68-1.03,1.8-2.14l0.26-2.45c0.01-0.09,0.17-0.09,0.18,0l0.26,2.45c0.12,1.11,0.85,1.99,1.8,2.14L120.33,30.07z"/>
		</g>
		<g>
			<g>
				<polygon class="st20" points="109.2,39.72 106.16,41.92 103.66,44.71 106.75,42.45 				"/>
				<polygon class="st20" points="109.2,44.71 106.75,41.98 103.65,39.72 106.16,42.5 				"/>
			</g>
			<path class="st20" d="M109.66,42.16c0.07,0.01,0.07,0.09,0,0.1l-1.77,0.32c-0.64,0.12-1.13,0.71-1.22,1.47l-0.18,1.67
				c-0.01,0.06-0.12,0.06-0.13,0l-0.18-1.67c-0.08-0.75-0.58-1.35-1.22-1.47l-1.77-0.32c-0.07-0.01-0.07-0.09,0-0.1l1.75-0.29
				c0.65-0.11,1.15-0.71,1.24-1.47l0.18-1.69c0.01-0.06,0.12-0.06,0.13,0l0.18,1.69c0.08,0.76,0.59,1.37,1.24,1.47L109.66,42.16z"/>
		</g>
		<g>
			<g>
				<polygon class="st20" points="130.54,30.29 128.29,31.93 126.42,33.99 128.72,32.32 				"/>
				<polygon class="st20" points="130.54,33.99 128.72,31.97 126.42,30.29 128.29,32.36 				"/>
			</g>
			<path class="st20" d="M130.88,32.1c0.05,0.01,0.05,0.07,0,0.07l-1.32,0.24c-0.47,0.09-0.84,0.53-0.9,1.09l-0.13,1.24
				c-0.01,0.05-0.09,0.05-0.09,0l-0.13-1.24c-0.06-0.56-0.43-1-0.9-1.09l-1.32-0.24c-0.05-0.01-0.05-0.07,0-0.07l1.3-0.21
				c0.48-0.08,0.86-0.53,0.92-1.09l0.13-1.25c0-0.05,0.09-0.05,0.09,0l0.13,1.25c0.06,0.57,0.44,1.01,0.92,1.09L130.88,32.1z"/>
		</g>
	</g>
</g>
</svg>
