<?xml version="1.0" encoding="utf-8"?>
<!-- Generator: Adobe Illustrator 25.2.1, SVG Export Plug-In . SVG Version: 6.00 Build 0)  -->
<svg version="1.1" id="Layer_1" xmlns="http://www.w3.org/2000/svg" xmlns:xlink="http://www.w3.org/1999/xlink" x="0px" y="0px"
	 viewBox="0 0 180 172.94" style="enable-background:new 0 0 180 172.94;" xml:space="preserve">
<style type="text/css">
	.st0{fill:#020202;}
	.st1{fill:#FCD1AF;}
	.st2{fill:#F4E0CD;}
	.st3{fill:#B0E0E8;}
	.st4{fill:#FFFFFF;}
	.st5{fill:#F17DB1;}
	.st6{fill:#FFE6B4;}
	.st7{fill:#FFFCD7;}
	.st8{fill:#96D9EE;}
	.st9{fill:#BE9B81;}
	.st10{fill:#85522F;}
	.st11{fill:none;stroke:#F17DB1;stroke-miterlimit:10;}
	.st12{fill:#F173AC;}
	.st13{fill:#C4E9F6;}
	.st14{fill:#ED1C8F;}
	.st15{fill:#3FC6EB;}
	.st16{fill:#FBB681;}
	.st17{fill:#F9C5DC;}
	.st18{fill:#FFD034;}
	.st19{fill:#C8E9F1;}
	.st20{fill:#231F20;}
	.st21{fill:#F6A7C2;}
	.st22{fill:#FACCD7;}
	.st23{filter:url(#Adobe_OpacityMaskFilter);}
	.st24{filter:url(#Adobe_OpacityMaskFilter_1_);}
	.st25{mask:url(#SVGID_1_);fill:url(#SVGID_2_);}
	.st26{opacity:0.3;fill:url(#SVGID_3_);}
	.st27{filter:url(#Adobe_OpacityMaskFilter_2_);}
	.st28{filter:url(#Adobe_OpacityMaskFilter_3_);}
	.st29{mask:url(#SVGID_4_);fill:url(#SVGID_5_);}
	.st30{opacity:0.3;fill:url(#SVGID_6_);}
	.st31{fill:#683A1A;}
</style>
<g>
	<path class="st5" d="M130.82,83.16H49.18c-1.97,0-3.56-1.6-3.56-3.56V3.56c0-1.97,1.6-3.56,3.56-3.56h81.64
		c1.97,0,3.56,1.6,3.56,3.56v76.03C134.38,81.56,132.79,83.16,130.82,83.16z"/>
	<path class="st8" d="M85.2,172.94H3.56c-1.97,0-3.56-1.6-3.56-3.56V93.35c0-1.97,1.6-3.56,3.56-3.56H85.2
		c1.97,0,3.56,1.6,3.56,3.56v76.03C88.77,171.35,87.17,172.94,85.2,172.94z"/>
	<path class="st8" d="M176.44,172.94H94.8c-1.97,0-3.56-1.6-3.56-3.56V93.35c0-1.97,1.6-3.56,3.56-3.56h81.64
		c1.97,0,3.56,1.6,3.56,3.56v76.03C180,171.35,178.4,172.94,176.44,172.94z"/>
	<path class="st4" d="M85.67,10.46h8.65l22.52,62.24h-9.34l-4.72-14.06H77.32L72.5,72.7h-9.34L85.67,10.46z M90,21.47L79.87,51.07
		h20.25L90,21.47z"/>
	<path class="st4" d="M28.93,162.38v-62.04c5.64-0.85,11.21-1.28,16.71-1.28c7.8,0,13.54,1.84,17.21,5.51
		c2.95,2.95,4.43,6.85,4.43,11.7c0,3.21-1.1,6.06-3.3,8.55c-2.2,2.49-4.9,3.97-8.11,4.43v0.1c4.06,0.59,7.29,2.35,9.69,5.26
		c2.39,2.92,3.59,6.64,3.59,11.16c0,5.9-2.39,10.46-7.18,13.67c-4.13,2.82-9.57,4.23-16.32,4.23
		C39.61,163.66,34.04,163.24,28.93,162.38z M38.07,107.03v18.78h9.24c3.28,0,5.88-0.77,7.82-2.31c1.93-1.54,2.9-3.62,2.9-6.24
		c0-7.28-4.16-10.91-12.49-10.91C42.53,106.34,40.04,106.57,38.07,107.03z M38.07,133.28v22.42c2.29,0.46,5.21,0.69,8.75,0.69
		c8.46,0,12.68-3.57,12.68-10.72c0-3.93-1.08-6.98-3.24-9.14c-2.16-2.16-5.21-3.24-9.14-3.24H38.07z"/>
	<path class="st4" d="M158.62,158.4c-5.51,4.79-11.5,7.18-17.99,7.18c-9.44,0-16.75-3.64-21.93-10.92
		c-4.06-5.77-6.1-12.68-6.1-20.75c0-9.18,2.52-17.01,7.57-23.5c4.98-6.29,11.31-9.44,18.97-9.44c6.82,0,13.04,2.26,18.68,6.78
		l-3.64,5.51c-4.46-2.95-8.88-4.42-13.27-4.42c-5.97,0-10.65,2.46-14.06,7.37c-3.08,4.46-4.62,10.36-4.62,17.7
		c0,7.28,1.93,13.11,5.8,17.5c3.54,4.06,8.13,6.1,13.76,6.1c4.26,0,8.65-1.54,13.17-4.62L158.62,158.4z"/>
</g>
</svg>
