<?xml version="1.0" encoding="utf-8"?>
<!-- Generator: Adobe Illustrator 25.2.1, SVG Export Plug-In . SVG Version: 6.00 Build 0)  -->
<svg version="1.1" id="Layer_1" xmlns="http://www.w3.org/2000/svg" xmlns:xlink="http://www.w3.org/1999/xlink" x="0px" y="0px"
	 viewBox="0 0 180 179.49" style="enable-background:new 0 0 180 179.49;" xml:space="preserve">
<style type="text/css">
	.st0{fill:#020202;}
	.st1{fill:#FCD1AF;}
	.st2{fill:#F4E0CD;}
	.st3{fill:#B0E0E8;}
	.st4{fill:#FFFFFF;}
	.st5{fill:#F17DB1;}
	.st6{fill:#FFE6B4;}
	.st7{fill:#FFFCD7;}
	.st8{fill:#96D9EE;}
	.st9{fill:#BE9B81;}
	.st10{fill:#85522F;}
	.st11{fill:none;stroke:#F17DB1;stroke-miterlimit:10;}
	.st12{fill:#F173AC;}
	.st13{fill:#C4E9F6;}
	.st14{fill:#ED1C8F;}
	.st15{fill:#3FC6EB;}
	.st16{fill:#FBB681;}
	.st17{fill:#F9C5DC;}
	.st18{fill:#FFD034;}
	.st19{fill:#FFFFFF;stroke:#FFFFFF;stroke-width:0.25;stroke-miterlimit:10;}
	.st20{font-family:'Angelface';}
	.st21{font-size:27.3295px;}
	.st22{fill:#C8E9F1;}
	.st23{fill:#231F20;}
	.st24{fill:#F6A7C2;}
	.st25{fill:#FACCD7;}
	.st26{filter:url(#Adobe_OpacityMaskFilter);}
	.st27{filter:url(#Adobe_OpacityMaskFilter_1_);}
	.st28{mask:url(#SVGID_1_);fill:url(#SVGID_2_);}
	.st29{opacity:0.3;fill:url(#SVGID_3_);}
	.st30{filter:url(#Adobe_OpacityMaskFilter_2_);}
	.st31{filter:url(#Adobe_OpacityMaskFilter_3_);}
	.st32{mask:url(#SVGID_4_);fill:url(#SVGID_5_);}
	.st33{opacity:0.3;fill:url(#SVGID_6_);}
	.st34{fill:#683A1A;}
</style>
<g>
	<path class="st5" d="M68.25,151.13c-6.72,5.28-14.8,9.93-23.3,9.08c-8.43-0.83-15.64-7.16-19.25-14.82
		c-3.61-7.66-4.07-16.46-3.21-24.89s2.98-16.67,4.29-25.04c0.59-3.73,1-7.65-0.32-11.19c-0.48-1.29-1.19-2.53-1.28-3.9
		c-0.24-3.81,4.27-5.09,9.29-3.06c1.66,0.67,3.96-0.97,4.88-0.98c0.74,0,1.5,0,2.17,0.3c2.59,1.16,1.78,4.98,0.73,7.61
		c-5.39,13.48-5.84,28.87-1.24,42.64c0.4,1.19,0.89,2.44,1.93,3.14c1.41,0.95,3.42,0.51,4.73-0.58c1.31-1.09,2.08-2.69,2.77-4.24
		c4.19-9.35,7.32-19.18,11.85-28.37s10.7-17.94,19.46-23.28c11.57-7.06,26.13-7.26,39.45-4.74c16.84,3.18,33.43,10.81,44.17,24.17
		c8.36,10.41,12.65,23.66,14.06,36.94c1.41,13.28,0.1,26.7-1.73,39.93c-0.23,1.65-0.53,3.44-1.73,4.6
		c-1.37,1.31-3.46,1.42-5.35,1.45c-8.01,0.12-16.02,0.24-24.02,0.36c-1.09,0.02-2.23,0.02-3.21-0.46c-2.9-1.42-2.47-5.56-2.33-8.79
		c0.3-7.12-3.4-14.28-9.38-18.16c-3.75-2.43-8.52-3.59-12.78-2.24c-5.38,1.7-8.91,7.01-10.36,12.46
		c-1.45,5.45-1.22,11.18-1.56,16.81c-0.05,0.79-0.12,1.63-0.6,2.27c-0.74,0.99-2.15,1.14-3.38,1.19c-6.69,0.26-13.39,0.16-20.06-0.3
		c-2.68-0.19-5.63-0.55-7.46-2.52c-1.27-1.37-1.76-3.26-2.2-5.07C71.58,164.67,69.91,157.9,68.25,151.13z M90.49,112.64
		c0,6.51,0.04,13.01-0.02,19.52c-0.02,2.67,0.19,5.1,3.74,4.8c8.5-0.71,19.86,4.01,24.79-1.92c5.23-6.3,0.76-17.14-1.67-25.74
		c-0.87-3.07-2.56-5.98-4.25-8.74c-3.88-6.31-9.73-10.01-16.8-11.92c-3.94-1.07-6.13-0.39-5.88,4.48
		C90.74,99.62,90.49,106.13,90.49,112.64z M78.98,110.49c-0.71-2.17-2.04-4.36-5.3-4.31c-3.2,0.05-4.98,1.91-5.01,5.04
		c-0.03,3.54,2.04,5.62,5.52,5.35C77.18,116.35,78.85,114.26,78.98,110.49z"/>
	<path class="st17" d="M90.49,112.64c0-6.51,0.25-13.02-0.08-19.51c-0.25-4.87,1.94-5.55,5.88-4.48c7.07,1.91,12.92,5.6,16.8,11.92
		c1.69,2.75,3.38,5.67,4.25,8.74c2.43,8.6,6.91,19.44,1.67,25.74c-4.93,5.93-16.29,1.21-24.79,1.92c-3.55,0.3-3.77-2.13-3.74-4.8
		C90.53,125.65,90.49,119.14,90.49,112.64z"/>
	<path class="st17" d="M78.98,110.49c-0.13,3.76-1.8,5.85-4.79,6.08c-3.48,0.26-5.55-1.81-5.52-5.35c0.03-3.13,1.82-4.98,5.01-5.04
		C76.94,106.13,78.27,108.32,78.98,110.49z"/>
	<path class="st5" d="M31.19,68.3c-2.94-2.61-6.8-4.57-10.32-6.41C13.39,57.96,6,52.87,2.34,45.27c-2.72-5.65-3.09-12.39-0.99-18.3
		c2.01-5.66,6.13-10.41,10.99-13.95C33.95-2.78,66.16-2.12,91,4.1c8.1,2.03,14.02,6.18,17.31,14.03c6.09,14.56,0.11,29.72-13,37.78
		c-7.94,4.88-17.24,7.02-26.44,8.45c-6.67,1.04-13.39,1.75-20.02,3.06c-5.35,1.06-11.31,1.97-13.15,7.95
		C35.04,72.51,33.37,70.23,31.19,68.3z"/>
	<text transform="matrix(1 0 0 1 0.3765 37.6898)" class="st19 st20 st21">Hey Mom</text>
	<g>
		<path class="st4" d="M98.82,31.99c0,0,3.77-2.13,3.87-5.61s-3.87-1.16-3.87,2.22c0,0-1.76-3.53-3.77-2.51
			C93.85,26.7,93.8,28.97,98.82,31.99z"/>
		<path class="st4" d="M98.82,32.22l-0.1-0.06c-4.02-2.42-4.57-4.18-4.54-5.01c0.02-0.55,0.31-1,0.78-1.24
			c0.46-0.23,0.94-0.27,1.44-0.1c1.01,0.33,1.83,1.43,2.27,2.13c0.22-1.47,1.14-2.69,2.05-3.2c0.57-0.32,1.11-0.36,1.51-0.12
			c0.32,0.19,0.7,0.66,0.67,1.78c-0.1,3.55-3.81,5.69-3.97,5.78L98.82,32.22z M95.79,26.11c-0.22,0-0.44,0.05-0.65,0.16
			c-0.35,0.17-0.54,0.49-0.56,0.9c-0.02,0.59,0.35,2.22,4.24,4.58c0.59-0.37,3.58-2.37,3.66-5.38c0.02-0.72-0.15-1.22-0.47-1.42
			c-0.27-0.16-0.66-0.12-1.1,0.13c-0.94,0.53-1.89,1.91-1.89,3.52v0.86l-0.38-0.77c-0.01-0.02-1.05-2.07-2.37-2.5
			C96.11,26.14,95.95,26.11,95.79,26.11z"/>
	</g>
</g>
</svg>
