<?xml version="1.0" encoding="utf-8"?>
<!-- Generator: Adobe Illustrator 25.2.1, SVG Export Plug-In . SVG Version: 6.00 Build 0)  -->
<svg version="1.1" id="Layer_1" xmlns="http://www.w3.org/2000/svg" xmlns:xlink="http://www.w3.org/1999/xlink" x="0px" y="0px"
	 viewBox="0 0 180 110.47" style="enable-background:new 0 0 180 110.47;" xml:space="preserve">
<style type="text/css">
	.st0{fill:#020202;}
	.st1{fill:#FCD1AF;}
	.st2{fill:#F4E0CD;}
	.st3{fill:#B0E0E8;}
	.st4{fill:#FFFFFF;}
	.st5{fill:#F17DB1;}
	.st6{fill:#FFE6B4;}
	.st7{fill:#FFFCD7;}
	.st8{fill:#96D9EE;}
	.st9{fill:#BE9B81;}
	.st10{fill:#85522F;}
	.st11{fill:none;stroke:#F17DB1;stroke-miterlimit:10;}
	.st12{fill:#F173AC;}
	.st13{fill:#C4E9F6;}
	.st14{fill:#ED1C8F;}
	.st15{fill:#3FC6EB;}
	.st16{fill:#FBB681;}
	.st17{fill:#F9C5DC;}
	.st18{fill:#FFD034;}
	.st19{fill:#C8E9F1;}
	.st20{fill:#231F20;}
	.st21{fill:#F6A7C2;}
	.st22{fill:#FACCD7;}
	.st23{filter:url(#Adobe_OpacityMaskFilter);}
	.st24{filter:url(#Adobe_OpacityMaskFilter_1_);}
	.st25{mask:url(#SVGID_1_);fill:url(#SVGID_2_);}
	.st26{opacity:0.3;fill:url(#SVGID_3_);}
	.st27{filter:url(#Adobe_OpacityMaskFilter_2_);}
	.st28{filter:url(#Adobe_OpacityMaskFilter_3_);}
	.st29{mask:url(#SVGID_4_);fill:url(#SVGID_5_);}
	.st30{opacity:0.3;fill:url(#SVGID_6_);}
	.st31{fill:#683A1A;}
</style>
<g>
	<path class="st12" d="M36.19,24.52c0,0.32-0.01,0.61-0.03,0.87c-0.02,0.26-0.03,0.55-0.03,0.89v0.93v0.92
		c-0.01,0.19-0.02,0.33-0.05,0.43c-0.02,0.1-0.03,0.25-0.03,0.46v0.96c-0.21,2.42-0.56,5.27-1.06,8.55s-1.85,5.58-4.07,6.91
		c-2.18,1.33-4.28,1.32-6.3-0.03c-1.22-0.81-2.05-1.93-2.49-3.36s-0.71-2.84-0.81-4.22c-0.08-0.89-0.1-2.18-0.06-3.87
		c0.04-1.69,0.02-2.78-0.05-3.27c-0.05-0.3-0.09-0.58-0.1-0.83s-0.06-0.52-0.12-0.81c-0.16-0.68-0.45-1.28-0.88-1.81
		c-0.43-0.53-1.04-0.8-1.82-0.8c-1.03,0-1.83,0.42-2.4,1.26c-0.57,0.84-0.96,1.7-1.18,2.58c-0.13,0.53-0.27,1.33-0.42,2.39
		c-0.15,1.07-0.23,1.9-0.23,2.5l-0.22,3.41c-0.05,1.14-0.22,2.4-0.51,3.77c-0.29,1.37-0.81,2.48-1.57,3.32
		c-0.59,0.64-1.31,0.98-2.17,1.03s-1.67-0.11-2.43-0.46c-1.48-0.67-2.65-1.82-3.5-3.45c-0.85-1.63-1.5-3.44-1.96-5.42
		c-0.46-1.99-0.77-4-0.95-6.04c-0.18-2.04-0.32-3.79-0.44-5.27c-0.04-0.39-0.06-0.78-0.05-1.16c0.01-0.39,0-0.78-0.04-1.19
		l-0.14-2.3c-0.03-0.41-0.03-0.81-0.02-1.21c0.01-0.4,0-0.79-0.05-1.17L0,13.25c0-1.51,0.12-2.99,0.36-4.45
		c0.22-1.29,0.6-2.49,1.14-3.59C2.25,3.7,3.58,2.53,5.48,1.7s3.47-0.57,4.69,0.79c0.23,0.28,0.46,0.64,0.69,1.08
		c0.1,0.22,0.26,0.63,0.46,1.25c0.72,2.26,1.18,4.59,1.38,6.99s1.52,4.09,3.95,5.07c0.78,0.32,1.68,0.52,2.71,0.59
		c1.02,0.07,1.89-0.24,2.59-0.94c0.83-0.82,1.22-2.55,1.16-5.19s0.58-5.06,1.91-7.27c0.55-0.92,1.29-1.6,2.24-2.04
		c0.95-0.44,2.01-0.43,3.18,0.03c1.05,0.42,2.01,1.33,2.89,2.74c0.83,1.39,1.46,3.35,1.87,5.9c0.42,2.55,0.67,4.7,0.77,6.47
		c0.15,2.63,0.22,5.03,0.22,7.19V24.52z M8.39,45.24c-0.57-0.29-0.92-0.47-1.05-0.55c-0.69-0.43-1.21-0.94-1.59-1.52
		c-0.8-1.16-1.41-2.71-1.84-4.63s-0.76-3.61-0.98-5.06c-0.13-0.79-0.26-1.69-0.39-2.71c-0.03-0.21-0.07-0.44-0.09-0.68
		c-0.03-0.25-0.06-0.48-0.09-0.7c-0.16-0.76-0.48-0.87-0.94-0.31c-0.13,0.16-0.13,0.57-0.01,1.24s0.2,1.14,0.25,1.4
		c0.32,1.89,0.86,4.34,1.62,7.36c0.76,3.02,2.04,4.99,3.83,5.92c0.23,0.13,0.6,0.28,1.11,0.46s0.91,0.25,1.22,0.21
		C9.31,45.67,8.96,45.53,8.39,45.24z M9.2,4.71c0.13,0.51,0.21,0.87,0.27,1.08c0.33,1.51,0.86,3.59,1.58,6.26
		c0.72,2.66,1.64,4.46,2.74,5.4c0.61,0.53,1.16,0.85,1.65,0.98c-0.49-0.42-0.94-0.82-1.33-1.2s-0.75-0.91-1.06-1.61
		c-0.55-1.21-1-2.57-1.37-4.09c-0.36-1.52-0.67-2.95-0.92-4.29c-0.08-0.37-0.15-0.74-0.22-1.11c-0.07-0.37-0.13-0.74-0.2-1.13
		c-0.03-0.13-0.06-0.32-0.1-0.57c-0.04-0.25-0.09-0.43-0.13-0.53C9.9,3.4,9.61,3.34,9.25,3.7C9.09,3.86,9.08,4.19,9.2,4.71z
		 M29.81,2.96c-0.51-0.48-0.9-0.58-1.16-0.3c-0.25,0.25-0.27,0.47-0.06,0.66s0.39,0.33,0.53,0.44c1.6,1.24,2.62,2.54,3.05,3.9
		c0.43,1.36,0.8,3.14,1.11,5.33c0.23,1.72,0.42,3.45,0.57,5.19c0.15,1.74,0.29,3.48,0.44,5.2c0.03,0.53,0.08,1.11,0.13,1.73
		c0.05,0.62,0.14,1.18,0.26,1.67c0.15-1.29,0.11-3.72-0.12-7.3c-0.23-3.57-0.42-5.97-0.58-7.19c-0.14-1.07-0.31-2.14-0.51-3.23
		c-0.2-1.08-0.52-2.06-0.96-2.93c-0.28-0.52-0.65-1.08-1.13-1.69c-0.03-0.02-0.19-0.17-0.49-0.47C30.67,3.78,30.32,3.44,29.81,2.96z
		"/>
	<path class="st12" d="M71.44,39.88c-0.34,0.56-0.68,0.96-1.02,1.21c-0.74,0.57-1.62,1.08-2.65,1.51c-1.22,0.55-2.73,1.01-4.51,1.39
		c-1.79,0.38-3.34,0.69-4.67,0.92c-1.09,0.19-2.07,0.33-2.93,0.4s-1.83,0.16-2.89,0.25c-0.96,0.09-2.03,0.11-3.2,0.06
		c-1.17-0.05-2.16-0.21-2.98-0.49c-1.86-0.62-3.19-1.88-4-3.78c-0.81-1.9-1.39-3.73-1.74-5.48l-0.73-4.14
		c-0.13-0.71-0.26-1.67-0.38-2.88s-0.23-2.2-0.31-2.99c-0.09-0.95-0.17-1.94-0.24-2.97c-0.07-1.02-0.15-2.03-0.21-3.02l-0.21-6.28
		c0.05-1.4,0.1-3.14,0.16-5.23c0.05-2.09,0.75-3.57,2.11-4.45c0.51-0.33,1.11-0.59,1.8-0.78c0.69-0.19,1.34-0.34,1.98-0.44
		c2.2-0.35,4.66-0.67,7.38-0.98s5.2-0.41,7.45-0.29c1.48,0.08,2.72,0.16,3.71,0.25c0.99,0.09,2.17,0.43,3.54,1.02
		c0.95,0.42,1.81,1.15,2.58,2.19c0.16,0.25,0.27,0.43,0.33,0.55c0.49,1.05,0.71,2.05,0.66,3c-0.05,0.85-0.29,1.42-0.72,1.72
		s-0.96,0.56-1.61,0.77c-1.14,0.39-3.08,0.65-5.81,0.79c-2.73,0.14-5.08,0.51-7.05,1.11c-0.1,0.03-0.21,0.07-0.33,0.1
		c-0.12,0.03-0.23,0.06-0.34,0.1c-0.1,0.03-0.21,0.08-0.31,0.12c-0.1,0.05-0.21,0.08-0.31,0.11c-0.65,0.23-1.23,0.56-1.73,0.98
		c-0.6,0.5-1.09,1.16-1.48,1.97c-0.39,0.81-0.27,1.52,0.35,2.11c0.42,0.42,1.02,0.6,1.79,0.51c0.77-0.08,1.4-0.17,1.91-0.27
		c1.68-0.33,3.41-0.66,5.19-0.98c1.78-0.33,3.49-0.02,5.15,0.92c0.45,0.26,0.84,0.56,1.17,0.91c0.61,0.68,0.73,1.34,0.36,2
		l-0.44,0.53c-0.01,0-0.02,0-0.03,0.01c-0.01,0.01-0.02,0.01-0.03,0.01c-0.04,0.04-0.08,0.08-0.12,0.1l-0.21,0.16
		c-1.2,0.81-3.07,1.54-5.63,2.2c-2.55,0.66-4.5,1.47-5.83,2.45c-0.76,0.55-1.3,1.07-1.6,1.57c-0.53,0.82-0.81,1.6-0.85,2.34
		c-0.08,1.39,0.27,2.42,1.04,3.08c0.94,0.82,2.25,0.93,3.94,0.35c1.69-0.58,3.02-1.04,3.99-1.38c1.04-0.34,1.75-0.59,2.12-0.75
		c0.37-0.16,1.16-0.39,2.37-0.68c0.67-0.16,1.4-0.21,2.19-0.16c0.79,0.05,1.48,0.29,2.05,0.72c0.46,0.35,0.88,0.82,1.25,1.4
		c0.84,1.39,1.21,3.03,1.12,4.92C71.96,38.8,71.78,39.33,71.44,39.88z M57.9,43.08c-1.21,0.14-2.54,0.25-3.99,0.33
		c-1.44,0.08-2.79,0.04-4.03-0.12c-1.46-0.18-2.56-0.58-3.32-1.18c-0.72-0.57-1.33-1.42-1.82-2.54s-0.88-2.12-1.17-2.99
		c-0.08-0.23-0.17-0.5-0.27-0.83c-0.1-0.33-0.23-0.54-0.38-0.64c-0.29-0.16-0.53-0.13-0.72,0.08s-0.21,0.5-0.08,0.85
		c0.37,1.08,0.76,2.14,1.17,3.2s0.9,1.96,1.48,2.72c1.26,1.65,3.35,2.51,6.28,2.58c1.25,0.03,2.51-0.04,3.79-0.23
		c1.28-0.19,2.5-0.4,3.66-0.63l6.73-1.63L57.9,43.08z M44.31,4.57c0.71-0.13,1.34-0.22,1.9-0.29c1.46-0.17,2.71-0.31,3.77-0.42
		c1.95-0.18,4.61-0.32,7.97-0.42c3.36-0.1,5.85,0.41,7.45,1.52c0.74,0.51,1.43,1.27,2.08,2.26c0.07,0.1,0.21,0.33,0.41,0.68
		c0.2,0.35,0.35,0.55,0.44,0.6c0.29,0.24,0.55,0.24,0.77-0.01s0.23-0.54,0.05-0.88c-0.18-0.31-0.47-0.75-0.86-1.32
		s-0.7-0.98-0.92-1.23c-1.25-1.34-2.85-2.15-4.81-2.45s-3.85-0.4-5.66-0.33c-1.84,0.1-3.69,0.3-5.55,0.6s-3.67,0.66-5.44,1.05
		c-0.36,0.08-0.96,0.2-1.82,0.38c-0.86,0.17-1.4,0.32-1.61,0.43C42.98,4.76,43.6,4.69,44.31,4.57z"/>
	<path class="st12" d="M75.07,20.82c0.29-1.63,0.61-3.31,0.97-5.03c0.07-0.32,0.15-0.63,0.23-0.94s0.17-0.62,0.26-0.95l1.31-4.53
		c0.22-0.66,0.47-1.38,0.77-2.17c0.29-0.78,0.59-1.49,0.87-2.11c0.94-2,1.93-3.48,2.98-4.42c1.05-0.94,2.8-0.9,5.24,0.11
		c1.77,0.74,3.03,1.84,3.77,3.32c0.55,1.1,0.76,2.44,0.64,4.01c-0.12,1.57-0.29,2.95-0.53,4.13c-0.13,0.69-0.26,1.35-0.38,1.99
		c-0.12,0.64-0.26,1.29-0.4,1.95c-0.15,0.58-0.28,1.24-0.4,1.96c-0.29,1.71-0.73,4.13-1.31,7.27s-0.29,5.39,0.87,6.75
		c0.6,0.71,1.32,1.11,2.17,1.21c0.85,0.1,1.7,0.14,2.56,0.14c1.34,0,2.9-0.05,4.68-0.14s3.19,0.32,4.21,1.23
		c1.11,1,1.67,2.27,1.67,3.82c0,1.55-0.4,2.94-1.2,4.16c-0.63,0.97-1.52,1.76-2.65,2.37c-1.46,0.8-2.97,1.32-4.55,1.57
		c-1.58,0.25-3.21,0.38-4.9,0.38c-4.17,0-7.67-1.19-10.48-3.58l-0.47-0.42c-0.49-0.4-0.99-0.93-1.52-1.6s-0.94-1.26-1.26-1.78
		c-1.3-2.12-2.22-4.24-2.77-6.35c-0.55-2.11-0.82-4.44-0.82-6.99C74.63,24.25,74.78,22.45,75.07,20.82z M76.22,26.7
		c-0.09-0.72-0.19-1.13-0.31-1.24c-0.27-0.24-0.52-0.23-0.74,0.04c-0.22,0.23-0.11,1.32,0.31,3.25s0.7,3.1,0.83,3.51
		c0.81,2.84,1.89,5.21,3.24,7.1c0.6,0.84,1.24,1.59,1.91,2.24c0.55,0.52,1.09,1,1.65,1.44c0.55,0.44,1.19,0.84,1.93,1.2
		c0.31,0.16,0.81,0.37,1.49,0.62c0.68,0.25,1.22,0.37,1.63,0.37c-0.82-0.34-1.53-0.64-2.12-0.91c-0.59-0.27-1.23-0.65-1.93-1.16
		c-0.57-0.41-0.99-0.76-1.26-1.05c-0.27-0.29-0.58-0.59-0.92-0.9c-0.16-0.13-0.49-0.5-0.98-1.11c-0.63-0.77-1.18-1.6-1.65-2.5
		c-0.8-1.51-1.42-3.04-1.85-4.59c-0.44-1.55-0.79-3.2-1.05-4.93C76.37,27.87,76.3,27.41,76.22,26.7z M89.75,4.85
		c0.33,0.52,0.59,1.19,0.76,2c0.23,1.18,0.25,2.3,0.04,3.37s-0.3,2.16-0.29,3.28c0.31-0.49,0.59-1.44,0.83-2.87
		c0.24-1.43,0.34-2.5,0.31-3.21c-0.06-0.94-0.3-1.89-0.73-2.87c-0.1-0.23-0.33-0.64-0.66-1.23s-0.59-0.93-0.75-1
		c-0.28-0.1-0.49-0.04-0.64,0.17c-0.15,0.21-0.13,0.45,0.07,0.72C89.06,3.78,89.42,4.33,89.75,4.85z M97.11,45.4
		c0.1,0.26,0.26,0.39,0.47,0.4c0.29,0.03,1.07-0.37,2.35-1.2c1.28-0.82,2.12-1.46,2.53-1.9c0.75-0.8,1.22-1.65,1.43-2.56
		c0.29-1.34,0.17-2.45-0.36-3.33c-0.04,0.69-0.04,1.29,0.01,1.78c0.05,0.49-0.07,1.07-0.34,1.75c-0.46,1.12-1.24,2.01-2.35,2.66
		c-1.11,0.65-2.19,1.23-3.26,1.72C97.16,44.92,97,45.15,97.11,45.4z"/>
	<path class="st12" d="M108.68,20.82c0.29-1.63,0.61-3.31,0.97-5.03c0.07-0.32,0.15-0.63,0.23-0.94s0.17-0.62,0.26-0.95l1.31-4.53
		c0.22-0.66,0.47-1.38,0.77-2.17s0.59-1.49,0.87-2.11c0.94-2,1.93-3.48,2.98-4.42c1.05-0.94,2.8-0.9,5.24,0.11
		c1.77,0.74,3.03,1.84,3.77,3.32c0.55,1.1,0.76,2.44,0.64,4.01c-0.12,1.57-0.29,2.95-0.53,4.13c-0.13,0.69-0.26,1.35-0.38,1.99
		c-0.12,0.64-0.26,1.29-0.4,1.95c-0.15,0.58-0.28,1.24-0.4,1.96c-0.29,1.71-0.73,4.13-1.31,7.27c-0.58,3.14-0.29,5.39,0.87,6.75
		c0.6,0.71,1.32,1.11,2.17,1.21c0.85,0.1,1.7,0.14,2.56,0.14c1.34,0,2.9-0.05,4.68-0.14c1.79-0.09,3.19,0.32,4.21,1.23
		c1.11,1,1.67,2.27,1.67,3.82c0,1.55-0.4,2.94-1.2,4.16c-0.63,0.97-1.52,1.76-2.65,2.37c-1.46,0.8-2.97,1.32-4.55,1.57
		c-1.58,0.25-3.21,0.38-4.9,0.38c-4.17,0-7.67-1.19-10.48-3.58l-0.47-0.42c-0.49-0.4-0.99-0.93-1.51-1.6
		c-0.53-0.67-0.94-1.26-1.26-1.78c-1.3-2.12-2.22-4.24-2.77-6.35c-0.55-2.11-0.82-4.44-0.82-6.99
		C108.24,24.25,108.39,22.45,108.68,20.82z M109.83,26.7c-0.09-0.72-0.19-1.13-0.31-1.24c-0.27-0.24-0.52-0.23-0.74,0.04
		c-0.22,0.23-0.11,1.32,0.31,3.25s0.7,3.1,0.83,3.51c0.81,2.84,1.89,5.21,3.24,7.1c0.6,0.84,1.24,1.59,1.91,2.24
		c0.55,0.52,1.1,1,1.64,1.44c0.55,0.44,1.2,0.84,1.93,1.2c0.31,0.16,0.81,0.37,1.49,0.62c0.68,0.25,1.22,0.37,1.63,0.37
		c-0.82-0.34-1.53-0.64-2.12-0.91c-0.59-0.27-1.23-0.65-1.93-1.16c-0.57-0.41-0.99-0.76-1.26-1.05c-0.27-0.29-0.58-0.59-0.92-0.9
		c-0.16-0.13-0.49-0.5-0.98-1.11c-0.63-0.77-1.18-1.6-1.65-2.5c-0.8-1.51-1.42-3.04-1.85-4.59c-0.44-1.55-0.79-3.2-1.05-4.93
		C109.98,27.87,109.92,27.41,109.83,26.7z M123.37,4.85c0.33,0.52,0.59,1.19,0.76,2c0.23,1.18,0.25,2.3,0.04,3.37
		s-0.3,2.16-0.29,3.28c0.31-0.49,0.59-1.44,0.83-2.87c0.24-1.43,0.34-2.5,0.31-3.21c-0.06-0.94-0.3-1.89-0.73-2.87
		c-0.1-0.23-0.33-0.64-0.66-1.23s-0.59-0.93-0.75-1c-0.28-0.1-0.49-0.04-0.64,0.17c-0.15,0.21-0.13,0.45,0.07,0.72
		C122.68,3.78,123.03,4.33,123.37,4.85z M130.72,45.4c0.1,0.26,0.26,0.39,0.47,0.4c0.29,0.03,1.07-0.37,2.35-1.2
		c1.28-0.82,2.12-1.46,2.53-1.9c0.75-0.8,1.22-1.65,1.43-2.56c0.29-1.34,0.17-2.45-0.36-3.33c-0.04,0.69-0.04,1.29,0.01,1.78
		c0.05,0.49-0.07,1.07-0.34,1.75c-0.46,1.12-1.24,2.01-2.35,2.66c-1.11,0.65-2.19,1.23-3.26,1.72
		C130.78,44.92,130.62,45.15,130.72,45.4z"/>
	<path class="st12" d="M158.76,44.3c-1.41-0.03-2.7-0.21-3.85-0.52c-1.33-0.34-2.45-0.75-3.36-1.24c-0.91-0.49-1.91-1.16-3.01-2.01
		c-0.31-0.23-0.72-0.62-1.23-1.15c-0.51-0.53-0.88-0.97-1.12-1.31c-0.34-0.44-0.68-0.9-1.03-1.37s-0.65-0.97-0.91-1.51
		c-0.29-0.59-0.56-1.11-0.79-1.55c-0.23-0.44-0.47-1.03-0.72-1.76c-0.29-0.83-0.49-1.44-0.61-1.81c-0.12-0.38-0.26-1.02-0.44-1.93
		c-0.23-1.11-0.37-2.04-0.42-2.79s-0.07-1.69-0.07-2.82c0-1.23,0.16-2.61,0.47-4.15s0.73-2.83,1.26-3.88
		c0.16-0.33,0.44-0.86,0.83-1.6l0.99-1.46c0.31-0.44,0.8-1,1.45-1.68c0.66-0.68,1.17-1.17,1.56-1.46l2.87-2
		c2.36-1.4,5.1-2.31,8.21-2.74c0.58-0.08,1.33-0.12,2.24-0.14c0.92-0.01,1.67,0.02,2.27,0.08c0.41,0.06,0.77,0.11,1.09,0.14
		c0.32,0.03,0.67,0.08,1.06,0.15c2.63,0.49,4.95,1.43,6.96,2.81c1.54,1.07,2.84,2.49,3.9,4.26s1.87,3.56,2.41,5.35
		c0.49,1.69,0.82,3.14,0.98,4.36c0.16,1.21,0.23,2.74,0.23,4.57c0,1.21-0.19,2.59-0.57,4.12c-0.38,1.54-0.84,2.84-1.38,3.92
		c-0.36,0.75-0.65,1.29-0.87,1.64c-0.17,0.26-0.33,0.51-0.48,0.75s-0.31,0.48-0.49,0.72l-1.13,1.38c-0.36,0.47-0.77,0.9-1.22,1.28
		c-0.45,0.39-0.9,0.76-1.34,1.11c-0.03,0.03-0.06,0.04-0.07,0.05c-0.01,0.01-0.03,0.03-0.06,0.05c0,0.01,0,0.02-0.01,0.02
		l-0.01,0.01c-0.39,0.33-0.86,0.65-1.42,0.97s-1.05,0.58-1.5,0.8c-2.94,1.47-6.13,2.25-9.57,2.34H158.76z M144.99,15.72
		c1.03-2.3,2.35-4.11,3.95-5.44l1.6-1.35c0.29-0.24,0.56-0.47,0.83-0.7c0.27-0.22,0.53-0.45,0.79-0.7c-0.69,0.3-1.47,0.8-2.32,1.48
		s-1.55,1.3-2.09,1.85l-0.95,0.99c-0.89,1-1.68,2.18-2.37,3.54c-1.54,3.07-2.1,6.23-1.68,9.48c0.42,3.25,1.23,6.43,2.42,9.55
		c0.09,0.23,0.27,0.73,0.54,1.5c0.27,0.77,0.46,1.21,0.55,1.32c0.19,0.25,0.41,0.3,0.66,0.15s0.33-0.4,0.22-0.73
		c-0.08-0.21-0.17-0.44-0.29-0.7c-0.11-0.26-0.21-0.5-0.29-0.72c-0.73-1.84-1.43-3.83-2.11-5.96c-0.68-2.14-1.02-4.33-1.02-6.59
		C143.45,20.35,143.96,18.02,144.99,15.72z M157.14,26.17c0.5,1.34,1.09,2.58,1.77,3.69l1.54,2.03c0.55,0.56,1.27,1.1,2.16,1.63
		c0.89,0.53,1.71,0.35,2.46-0.54l0.13-0.16c0.2-0.29,0.39-0.69,0.56-1.21c0.65-1.95,0.69-4.7,0.1-8.26
		c-0.58-3.56-1.35-6.31-2.32-8.26l-0.77-1.22l-0.26-0.33c-0.2-0.21-0.45-0.4-0.75-0.59c-0.96-0.57-1.83-0.5-2.61,0.21
		c-0.77,0.71-1.36,1.51-1.75,2.39c-0.42,0.99-0.7,1.96-0.83,2.92c-0.12,0.96-0.19,2.01-0.19,3.17
		C156.39,23.32,156.64,24.83,157.14,26.17z M177.31,25.62c0.01,2.04-0.44,4.14-1.35,6.29c-1.45,3.43-3.71,6.09-6.78,7.96
		c-0.29,0.17-0.82,0.5-1.61,0.98c-0.78,0.48-1.26,0.79-1.42,0.95c0.93-0.24,2.01-0.76,3.24-1.56c1.23-0.8,2.21-1.5,2.94-2.11
		l1.77-1.85c2.32-2.91,3.62-5.84,3.89-8.79s0.1-6.21-0.52-9.74c-0.04-0.23-0.1-0.6-0.17-1.09c-0.08-0.49-0.19-0.79-0.35-0.9
		c-0.39-0.25-0.65-0.17-0.78,0.23c-0.05,0.16,0.01,0.67,0.2,1.53c0.18,0.86,0.29,1.4,0.33,1.61
		C177.1,21.41,177.31,23.57,177.31,25.62z"/>
	<path class="st12" d="M13.07,72.18c0.3-1.65,0.99-3.08,2.06-4.29l1.12-1.03c1.18-0.91,2.78-1.61,4.8-2.09
		c2.02-0.48,4.09-0.72,6.22-0.72c1.8,0,3.76,0.17,5.9,0.53s3.9,1.16,5.28,2.44l0.08,0.08c0.02,0.02,0.03,0.03,0.04,0.03
		c0.91,0.85,1.57,1.64,1.98,2.38c0.25,0.47,0.43,0.81,0.55,1.02c0.11,0.21,0.26,0.55,0.46,1.02c0.29,0.77,0.49,1.41,0.61,1.92
		c0.12,0.51,0.24,1.18,0.35,2.01c0.02,0.17,0.02,0.34,0.02,0.49c0,0.16,0.01,0.32,0.03,0.49c0.03,0.24,0.03,0.39,0.01,0.44
		c-0.02,0.05-0.04,0.18-0.05,0.39c-0.16,2.76-0.16,4.45,0,5.07c0.16,0.62,1.37,1.5,3.63,2.63c0.64,0.32,1.2,0.63,1.67,0.92
		c1.5,0.98,2.49,2.39,2.96,4.24c0.47,1.85,0.51,3.6,0.11,5.27c-0.51,2.12-1.5,3.96-2.97,5.54c0.03-0.03-0.03,0.04-0.17,0.2
		l-1.35,1.31c-0.82,0.74-1.73,1.41-2.71,2.03c-0.1,0.06-0.17,0.11-0.21,0.14c-0.03,0.03-0.1,0.07-0.2,0.12
		c-1.36,0.85-2.8,1.61-4.31,2.27c-1.51,0.66-3.03,1.25-4.55,1.75c-2.82,0.95-5.91,1.5-9.26,1.66c-3.36,0.16-6.26-0.75-8.7-2.73
		c-1.11-0.88-1.92-2.09-2.44-3.62s-0.83-3.02-0.96-4.47c-0.02-0.22-0.03-0.44-0.04-0.68s-0.03-0.47-0.05-0.7l-0.21-4.08v-2.84v-2.86
		c0-1.93-0.02-3.82-0.07-5.67c-0.05-1.84-0.07-3.73-0.07-5.65C12.61,75.49,12.76,73.83,13.07,72.18z M30.99,107.86
		c1.73-0.49,3.23-0.99,4.53-1.51c0.88-0.35,1.89-0.79,3.05-1.33c1.16-0.54,2.17-1.03,3.04-1.47c0.23-0.1,0.57-0.27,1.03-0.5
		c0.46-0.23,0.76-0.4,0.9-0.51c-0.17,0.04-0.56,0.2-1.16,0.46c-1.2,0.51-2.54,1.06-4.04,1.64c-1.5,0.58-2.85,1.04-4.05,1.38
		c-1.46,0.42-3.24,0.83-5.34,1.24c-2.1,0.41-3.97,0.44-5.61,0.1c-1.21-0.24-2.33-0.68-3.34-1.32c-1.01-0.64-1.95-1.33-2.83-2.06
		c-0.52-0.41-0.89-0.5-1.11-0.27c-0.27,0.28-0.16,0.61,0.33,1c1.04,0.85,2.28,1.71,3.71,2.59s3.1,1.31,5.02,1.31h0.82
		C27.58,108.59,29.27,108.35,30.99,107.86z M37.67,70.22c0.8,0.96,1.47,2.18,2,3.65c-0.05-0.56-0.26-1.27-0.62-2.13
		c-0.36-0.86-0.67-1.48-0.94-1.87c-0.88-1.25-2.02-2.12-3.4-2.63c-1.38-0.5-2.85-0.8-4.42-0.9c-0.42-0.03-1.37-0.07-2.87-0.14
		c-1.5-0.07-2.34-0.02-2.52,0.14c-0.55,0.43-0.48,0.74,0.21,0.91c0.29,0.09,1.43,0.11,3.4,0.07c1.97-0.04,3.87,0.22,5.7,0.76
		C35.71,68.55,36.87,69.27,37.67,70.22z M25.07,78.73c0.16,0.73,0.41,1.3,0.75,1.71c0.27,0.33,0.59,0.53,0.95,0.61
		c0.44,0.11,0.87,0.08,1.27-0.1c1.26-0.53,1.89-1.62,1.89-3.28c0-1.55-0.66-2.7-1.98-3.43c-0.51-0.28-1.03-0.41-1.57-0.4
		c-0.53,0.01-0.93,0.33-1.19,0.94c-0.24,0.56-0.36,1.23-0.36,2C24.83,77.35,24.91,78,25.07,78.73z M28.36,97.36
		c0.69,0.89,1.93,1.12,3.72,0.68c0.67-0.16,1.55-0.48,2.66-0.94c1.11-0.46,1.87-0.97,2.28-1.51c0.88-1.14,0.99-2.29,0.31-3.44
		c-0.68-1.15-1.31-1.84-1.88-2.08c-0.66-0.27-1.19-0.4-1.6-0.4c-0.71,0-1.21,0.01-1.51,0.04c-0.29,0.03-0.81,0.11-1.54,0.25
		c-0.64,0.13-1.25,0.28-1.81,0.45c-0.57,0.17-1.01,0.56-1.32,1.16c-0.28,0.57-0.42,1.22-0.42,1.95
		C27.26,95.14,27.63,96.43,28.36,97.36z M46.36,87.53c0.73,0.48,1.3,1.08,1.72,1.81c0.98,1.8,1.3,3.7,0.95,5.71
		c-0.05,0.29-0.13,0.61-0.23,0.98c-0.1,0.37-0.16,0.67-0.18,0.92c0.1-0.26,0.2-0.52,0.32-0.77c0.12-0.25,0.23-0.52,0.33-0.81
		c0.77-2.21,0.79-4.19,0.05-5.94c-0.42-0.98-1.12-1.83-2.09-2.56c-0.2-0.16-0.68-0.46-1.45-0.92c-0.77-0.46-1.27-0.72-1.52-0.77
		c-0.24-0.04-0.45,0.07-0.62,0.33c-0.17,0.27,0,0.51,0.5,0.75C44.89,86.63,45.63,87.06,46.36,87.53z"/>
	<path class="st12" d="M55.72,98.12c0.61-2.79,1.06-4.8,1.35-6.03c0.18-0.85,0.44-1.78,0.76-2.79c0.33-1.01,0.62-1.94,0.89-2.78
		s0.66-1.91,1.18-3.21s0.97-2.37,1.36-3.2c0.42-0.91,0.85-1.82,1.27-2.73s0.88-1.81,1.39-2.69c0.05-0.1,0.1-0.2,0.14-0.29
		c0.04-0.09,0.1-0.19,0.16-0.3l1.34-2.25c0.36-0.52,0.59-0.87,0.7-1.04c0.11-0.17,0.38-0.53,0.81-1.08l2.29-2.08
		c0.57-0.37,1.16-0.66,1.77-0.86c1.36-0.45,2.81-0.56,4.36-0.34c2.02,0.29,3.74,1.19,5.15,2.69c0.59,0.64,1.05,1.23,1.39,1.77
		c1.13,1.82,2.01,3.63,2.64,5.42l0.83,2.37c0.36,1.14,0.68,2.19,0.94,3.12c0.26,0.94,0.55,1.98,0.87,3.12
		c0.47,1.7,0.89,3.46,1.27,5.28s0.74,3.61,1.07,5.37c0.26,1.4,0.43,2.64,0.51,3.7c0.08,1.06,0.12,2.3,0.12,3.73
		c0,2.91-1.04,4.95-3.12,6.13c-2.17,1.24-4.19,0.85-6.06-1.17c-0.48-0.5-0.9-1-1.26-1.49c-0.36-0.49-0.75-1.02-1.16-1.58l-1.99-2.81
		c-0.06-0.08-0.11-0.14-0.15-0.18c-0.04-0.04-0.09-0.11-0.15-0.21l-0.92-1.13c-0.86-0.86-1.58-1.27-2.17-1.22
		c-0.59,0.04-1.25,0.46-2,1.25c-0.1,0.1-0.18,0.2-0.24,0.29c-0.06,0.09-0.13,0.18-0.21,0.29c-0.39,0.44-0.91,1.14-1.57,2.09
		c-0.65,0.95-1.21,1.67-1.67,2.15c-0.45,0.48-0.87,0.92-1.26,1.33c-0.39,0.41-0.88,0.81-1.46,1.19c-1.17,0.77-2.46,1.28-3.86,1.51
		c-1.4,0.24-2.72-0.07-3.95-0.93c-0.35-0.23-0.53-0.36-0.54-0.39c-0.01-0.03-0.14-0.14-0.37-0.35c-0.9-0.79-1.35-1.93-1.35-3.42
		C54.8,102.98,55.1,100.9,55.72,98.12z M60.83,108.65c-0.36-0.14-0.98-0.3-1.86-0.49c-0.88-0.19-1.54-0.86-1.95-2.02
		c-0.36-0.97-0.41-2.39-0.16-4.27c0.25-1.87,0.48-3.38,0.69-4.51c0.15-0.75-0.04-1.02-0.56-0.83c-0.15,0.05-0.29,0.46-0.44,1.24
		c-0.17,0.95-0.33,1.92-0.48,2.91c-0.15,1-0.22,1.99-0.22,2.98C55.85,107.09,57.51,108.76,60.83,108.65z M73.09,67.68
		c-0.78,0.04-1.55,0.22-2.28,0.53c-0.62,0.26-1.21,0.64-1.76,1.14s-0.98,0.94-1.29,1.33l-0.61,0.75c-0.63,0.76-1.22,1.57-1.76,2.43
		s-1.08,1.7-1.63,2.51c-0.32,0.48-0.39,0.82-0.21,1.01c0.23,0.29,0.47,0.26,0.71-0.09c0.24-0.34,0.47-0.68,0.68-1.02
		c0.75-1.18,1.68-2.56,2.81-4.14c1.13-1.58,2.28-2.73,3.45-3.44c0.76-0.45,1.55-0.7,2.36-0.75c0.81-0.05,1.47-0.15,1.98-0.3
		C74.7,67.63,73.88,67.64,73.09,67.68z M74.35,89.95c0.47-0.26,0.85-0.78,1.13-1.55c0.43-1.16,0.6-2.65,0.49-4.47
		c-0.11-1.82-0.49-3.21-1.14-4.16c-0.4-0.56-0.82-0.83-1.27-0.83c-0.81,0-1.35,0.6-1.63,1.8c-0.28,1.2-0.42,2.13-0.42,2.78
		c0,0.82,0.01,1.67,0.03,2.54c0.02,0.87,0.13,1.68,0.34,2.43c0.3,1.12,0.88,1.68,1.74,1.68C73.85,90.16,74.09,90.09,74.35,89.95z
		 M87.4,106.71c0.21-0.2,0.36-0.37,0.46-0.49c0.54-0.58,0.88-1.28,1.02-2.11c0.14-0.83,0.22-1.66,0.22-2.5
		c-0.03-2.34-0.37-5.12-1.04-8.33c-0.67-3.21-1.27-6.01-1.82-8.4c-0.18-0.77-0.3-1.31-0.36-1.6c-0.15-0.7-0.46-0.84-0.94-0.42
		c-0.04,0.28,0.13,1.27,0.53,2.97c0.39,1.7,0.64,2.78,0.75,3.23c0.29,1.34,0.75,3.47,1.36,6.38c0.61,2.91,0.96,4.96,1.06,6.16
		c0.06,0.79,0.03,1.59-0.08,2.39c-0.11,0.81-0.39,1.52-0.83,2.13c0.06-0.08-0.08,0.08-0.42,0.48l-0.44,0.49l-0.31,0.2
		c0.09-0.01,0.14-0.02,0.17-0.04c0.04-0.03,0.09-0.09,0.14-0.16C87.02,107.05,87.2,106.92,87.4,106.71z"/>
	<path class="st12" d="M93.34,72.18c0.3-1.65,0.99-3.08,2.06-4.29l1.12-1.03c1.18-0.91,2.78-1.61,4.8-2.09
		c2.02-0.48,4.09-0.72,6.22-0.72c1.8,0,3.76,0.17,5.9,0.53c2.14,0.35,3.9,1.16,5.27,2.44l0.08,0.08c0.02,0.02,0.03,0.03,0.04,0.03
		c0.91,0.85,1.57,1.64,1.98,2.38c0.25,0.47,0.43,0.81,0.55,1.02c0.11,0.21,0.26,0.55,0.46,1.02c0.29,0.77,0.49,1.41,0.61,1.92
		c0.12,0.51,0.24,1.18,0.35,2.01c0.02,0.17,0.02,0.34,0.02,0.49c0,0.16,0.01,0.32,0.03,0.49c0.03,0.24,0.03,0.39,0.01,0.44
		c-0.02,0.05-0.04,0.18-0.05,0.39c-0.16,2.76-0.16,4.45,0,5.07c0.16,0.62,1.37,1.5,3.63,2.63c0.64,0.32,1.2,0.63,1.67,0.92
		c1.5,0.98,2.49,2.39,2.96,4.24c0.47,1.85,0.51,3.6,0.11,5.27c-0.51,2.12-1.5,3.96-2.97,5.54c0.03-0.03-0.03,0.04-0.17,0.2
		l-1.35,1.31c-0.82,0.74-1.73,1.41-2.71,2.03c-0.1,0.06-0.17,0.11-0.21,0.14c-0.03,0.03-0.1,0.07-0.2,0.12
		c-1.36,0.85-2.8,1.61-4.31,2.27c-1.51,0.66-3.03,1.25-4.55,1.75c-2.82,0.95-5.91,1.5-9.26,1.66c-3.36,0.16-6.26-0.75-8.7-2.73
		c-1.11-0.88-1.92-2.09-2.44-3.62c-0.52-1.53-0.84-3.02-0.96-4.47c-0.02-0.22-0.03-0.44-0.04-0.68c-0.01-0.23-0.03-0.47-0.05-0.7
		l-0.21-4.08v-2.84v-2.86c0-1.93-0.02-3.82-0.07-5.67c-0.05-1.84-0.07-3.73-0.07-5.65C92.89,75.49,93.04,73.83,93.34,72.18z
		 M111.27,107.86c1.73-0.49,3.23-0.99,4.53-1.51c0.88-0.35,1.89-0.79,3.05-1.33c1.16-0.54,2.17-1.03,3.04-1.47
		c0.23-0.1,0.57-0.27,1.03-0.5c0.46-0.23,0.76-0.4,0.9-0.51c-0.17,0.04-0.56,0.2-1.16,0.46c-1.2,0.51-2.54,1.06-4.04,1.64
		c-1.5,0.58-2.85,1.04-4.05,1.38c-1.46,0.42-3.24,0.83-5.34,1.24c-2.1,0.41-3.97,0.44-5.61,0.1c-1.21-0.24-2.33-0.68-3.34-1.32
		c-1.01-0.64-1.95-1.33-2.83-2.06c-0.52-0.41-0.89-0.5-1.11-0.27c-0.27,0.28-0.16,0.61,0.33,1c1.04,0.85,2.28,1.71,3.71,2.59
		c1.43,0.88,3.1,1.31,5.02,1.31h0.82C107.86,108.59,109.54,108.35,111.27,107.86z M117.94,70.22c0.8,0.96,1.47,2.18,2,3.65
		c-0.05-0.56-0.26-1.27-0.62-2.13c-0.36-0.86-0.67-1.48-0.94-1.87c-0.88-1.25-2.02-2.12-3.4-2.63c-1.38-0.5-2.85-0.8-4.42-0.9
		c-0.42-0.03-1.37-0.07-2.87-0.14c-1.5-0.07-2.34-0.02-2.52,0.14c-0.55,0.43-0.48,0.74,0.21,0.91c0.29,0.09,1.43,0.11,3.4,0.07
		c1.97-0.04,3.87,0.22,5.7,0.76C115.99,68.55,117.14,69.27,117.94,70.22z M105.34,78.73c0.16,0.73,0.41,1.3,0.75,1.71
		c0.27,0.33,0.59,0.53,0.95,0.61c0.44,0.11,0.87,0.08,1.27-0.1c1.26-0.53,1.89-1.62,1.89-3.28c0-1.55-0.66-2.7-1.98-3.43
		c-0.51-0.28-1.03-0.41-1.57-0.4c-0.53,0.01-0.93,0.33-1.19,0.94c-0.24,0.56-0.36,1.23-0.36,2C105.1,77.35,105.18,78,105.34,78.73z
		 M108.64,97.36c0.69,0.89,1.93,1.12,3.72,0.68c0.67-0.16,1.55-0.48,2.66-0.94c1.1-0.46,1.87-0.97,2.28-1.51
		c0.88-1.14,0.99-2.29,0.3-3.44c-0.68-1.15-1.31-1.84-1.88-2.08c-0.66-0.27-1.19-0.4-1.6-0.4c-0.71,0-1.21,0.01-1.51,0.04
		s-0.81,0.11-1.54,0.25c-0.64,0.13-1.25,0.28-1.81,0.45c-0.57,0.17-1.01,0.56-1.32,1.16c-0.28,0.57-0.42,1.22-0.42,1.95
		C107.53,95.14,107.9,96.43,108.64,97.36z M126.63,87.53c0.73,0.48,1.3,1.08,1.72,1.81c0.98,1.8,1.3,3.7,0.95,5.71
		c-0.05,0.29-0.13,0.61-0.23,0.98c-0.1,0.37-0.16,0.67-0.18,0.92c0.1-0.26,0.2-0.52,0.32-0.77c0.12-0.25,0.23-0.52,0.33-0.81
		c0.77-2.21,0.79-4.19,0.05-5.94c-0.42-0.98-1.12-1.83-2.09-2.56c-0.2-0.16-0.68-0.46-1.45-0.92c-0.77-0.46-1.27-0.72-1.51-0.77
		c-0.24-0.04-0.45,0.07-0.62,0.33c-0.17,0.27,0,0.51,0.5,0.75C125.16,86.63,125.9,87.06,126.63,87.53z"/>
	<path class="st12" d="M138.69,65.41c0.88,0,1.76,0.19,2.63,0.58c0.87,0.39,1.67,0.81,2.39,1.28l1.94,1.61
		c0.25,0.26,0.45,0.46,0.58,0.59c0.14,0.13,0.33,0.36,0.59,0.69c0.45,0.58,0.75,0.97,0.89,1.16c0.14,0.19,0.42,0.64,0.83,1.34
		c0.76,1.33,1.35,2.59,1.75,3.79c0.4,1.2,0.77,2.06,1.11,2.58s0.72,0.57,1.13,0.15c0.42-0.42,1.02-1.58,1.82-3.49
		c0.23-0.53,0.53-1.24,0.92-2.12c0.62-1.44,1.33-2.75,2.12-3.94c0.54-0.81,1.15-1.48,1.83-2.02c0.24-0.21,0.38-0.32,0.4-0.34
		c1.01-0.72,2.16-1.09,3.45-1.11s2.43,0.33,3.42,1.06c1.12,0.83,1.62,1.94,1.51,3.32c-0.11,1.38-0.41,2.62-0.88,3.72
		c-0.69,1.62-1.73,3.34-3.12,5.15c-0.69,0.9-1.46,1.83-2.3,2.77c-0.84,0.95-1.63,1.92-2.37,2.91c-0.42,0.57-0.85,1.21-1.27,1.91
		c-0.42,0.7-0.75,1.39-0.96,2.07c-0.65,1.96-0.81,3.89-0.47,5.78c0.33,1.89,0.5,3.85,0.5,5.87c0,1.48-0.28,3.05-0.85,4.7
		c-0.56,1.65-1.37,2.91-2.43,3.8c-1.19,1-2.45,1.35-3.77,1.05c-1.33-0.29-2.35-1.07-3.07-2.32c-0.69-1.19-1.05-2.64-1.05-4.34
		c0-0.18-0.01-0.31-0.04-0.37c-0.03-0.07-0.04-0.16-0.04-0.29c-0.01-0.17,0-0.29,0.03-0.36c0.03-0.07,0.04-0.19,0.05-0.38
		c0.03-0.96,0.07-1.77,0.12-2.43c0.05-0.66,0.15-1.48,0.3-2.48c0.11-0.82,0.24-1.71,0.38-2.67c0.22-1.72,0.25-2.97,0.11-3.77
		c-0.14-0.79-0.78-1.81-1.92-3.04l-0.26-0.26l-0.99-1.16c-0.36-0.47-0.82-1.03-1.37-1.68c-0.55-0.65-1-1.21-1.33-1.69
		c-1.1-1.54-2.19-3.1-3.27-4.71c-1.08-1.6-1.98-3.3-2.71-5.07c-0.19-0.44-0.38-0.99-0.56-1.64c-0.18-0.65-0.27-1.28-0.27-1.9
		C134.18,66.84,135.68,65.41,138.69,65.41z M136.23,69.72c-0.21-0.69-0.52-0.85-0.94-0.46c-0.21,0.2-0.2,0.6,0.04,1.2
		c0.23,0.6,0.4,1.02,0.51,1.27c0.82,2.13,2,4.32,3.56,6.57c0.87,1.25,1.83,2.53,2.89,3.85c0.44,0.57,0.9,1.16,1.37,1.76
		c0.47,0.6,0.95,1.17,1.44,1.71c0.07,0.09,0.16,0.16,0.27,0.21c-0.1-0.27-0.3-0.62-0.61-1.05c-0.3-0.43-0.53-0.77-0.7-1.02
		c-0.24-0.34-0.48-0.67-0.71-1c-0.23-0.33-0.46-0.66-0.68-1c-0.23-0.35-0.47-0.68-0.7-1c-0.23-0.32-0.46-0.64-0.66-0.97
		c-0.71-1.08-1.38-2.09-2-3.06c-0.62-0.96-1.2-2.08-1.73-3.36c-0.4-0.91-0.71-1.7-0.94-2.38C136.52,70.67,136.38,70.24,136.23,69.72
		z M148.95,107.7c-0.36-0.43-0.69-1.07-0.98-1.93c-0.47-1.38-0.66-2.92-0.57-4.62c0.09-1.7,0.25-3.27,0.49-4.7
		c0.06-0.37,0.12-0.74,0.18-1.11c0.06-0.37,0.13-0.74,0.2-1.11c0.03-0.16,0.08-0.52,0.15-1.08c0.07-0.56-0.15-0.76-0.67-0.59
		c-0.26,0.09-0.41,0.37-0.45,0.87c-0.04,0.49-0.08,0.89-0.12,1.19c-0.24,1.77-0.42,3.73-0.53,5.87c-0.11,2.15,0.2,4.04,0.94,5.68
		c0.18,0.43,0.52,0.98,1,1.63c0.49,0.65,0.91,1.08,1.29,1.29C149.63,108.59,149.32,108.13,148.95,107.7z M160.05,69
		c-1.1,1.09-1.92,2.08-2.46,2.95c-0.77,1.27-1.35,2.34-1.74,3.22c-0.38,0.88-0.86,1.91-1.42,3.08c-0.25,0.48-0.29,0.81-0.13,1
		c0.36,0.41,0.64,0.37,0.85-0.1c0.21-0.48,0.36-0.81,0.44-0.99c0.65-1.56,1.5-3.42,2.54-5.58c1.04-2.16,2.35-3.6,3.91-4.33
		c0.34-0.16,0.67-0.27,1-0.35c0.33-0.07,0.67-0.17,1.01-0.3C162.49,67.44,161.15,67.9,160.05,69z"/>
</g>
</svg>
