<?xml version="1.0" encoding="utf-8"?>
<!-- Generator: Adobe Illustrator 25.2.1, SVG Export Plug-In . SVG Version: 6.00 Build 0)  -->
<svg version="1.1" id="Layer_1" xmlns="http://www.w3.org/2000/svg" xmlns:xlink="http://www.w3.org/1999/xlink" x="0px" y="0px"
	 viewBox="0 0 180 180.45" style="enable-background:new 0 0 180 180.45;" xml:space="preserve">
<style type="text/css">
	.st0{fill:#020202;}
	.st1{fill:#FCD1AF;}
	.st2{fill:#F4E0CD;}
	.st3{fill:#B0E0E8;}
	.st4{fill:#FFFFFF;}
	.st5{fill:#F17DB1;}
	.st6{fill:#FFE6B4;}
	.st7{fill:#FFFCD7;}
	.st8{fill:#96D9EE;}
	.st9{fill:#BE9B81;}
	.st10{fill:#85522F;}
	.st11{fill:none;stroke:#F17DB1;stroke-miterlimit:10;}
	.st12{fill:#F173AC;}
	.st13{fill:#C4E9F6;}
	.st14{fill:#ED1C8F;}
	.st15{fill:#3FC6EB;}
	.st16{fill:#FBB681;}
	.st17{fill:#F9C5DC;}
	.st18{fill:#FFD034;}
	.st19{fill:#C8E9F1;}
	.st20{fill:#231F20;}
	.st21{fill:#F6A7C2;}
	.st22{fill:#FACCD7;}
	.st23{filter:url(#Adobe_OpacityMaskFilter);}
	.st24{filter:url(#Adobe_OpacityMaskFilter_1_);}
	.st25{mask:url(#SVGID_1_);fill:url(#SVGID_2_);}
	.st26{opacity:0.3;fill:url(#SVGID_3_);}
	.st27{filter:url(#Adobe_OpacityMaskFilter_2_);}
	.st28{filter:url(#Adobe_OpacityMaskFilter_3_);}
	.st29{mask:url(#SVGID_4_);fill:url(#SVGID_5_);}
	.st30{opacity:0.3;fill:url(#SVGID_6_);}
	.st31{fill:#683A1A;}
</style>
<g>
	<g>
		<g>
			<path class="st12" d="M18.99,174.59v-0.15c-8.4-5.07-11.72-14.57-11.72-24.7c0-3.48,0.32-6.97,1.11-10.44
				c2.69-12.03,11.87-20.9,24.85-20.9c6.81,0.15,13.3,3.17,16.62,9.65c-0.79,3.01-5.07,6.65-8.71,7.76c-2.69-3.17-5.86-4.9-8.86-4.9
				c-6.33,0-12.03,6.65-11.55,17.89c0.47,11.4,6.33,17.73,12.82,17.73c2.53,0,5.22-1.11,7.91-3.01c-0.47-4.9-1.43-10.93-2.37-15.83
				c2.22-1.11,5.22-1.43,8.23-1.43c1.74,0,3.01,0.15,4.11,0.47c1.26,8.23,2.37,20.58,2.06,25.33c-0.95,0.64-3.32,1.43-4.11,1.74
				c-4.11,3.17-9.82,4.75-15.68,4.75C28.48,178.55,23.26,177.29,18.99,174.59z"/>
			<path class="st12" d="M56.97,153.54c0-9.65-0.47-19.63-1.43-28.65c2.37-0.79,7.12-1.26,11.24-1.26c2.37,0,4.28,0.15,6.01,0.47
				c1.11,7.44,1.74,16.3,1.74,25.48c0,10.29-0.64,20.9-1.74,29.29c-1.9,0.32-3.96,0.32-6.01,0.32c-4.28,0-8.47-0.4-10.68-0.79
				C56.58,172.69,56.97,163.68,56.97,153.54z"/>
			<path class="st12" d="M77.87,150.37c0-8.86,0.47-18.84,1.26-28.02c5.39-1.43,12.66-2.53,19.31-2.53c1.74,0,4.11,0.15,5.86,0.32
				c12.03,1.26,19.39,11.4,19.39,19.94c0,6.81-4.36,13.46-13.69,16.15c3.17,6.97,9.03,11.08,16.15,11.4c0,0-2.37,8.71-6.01,12.82
				c-9.5-1.58-17.89-9.18-20.9-19.47c-2.85,0.95-4.28,1.26-6.49,1.43c0.32,6.33,0.64,11.08,1.58,15.83
				c-5.62,1.11-11.32,1.58-13.85,1.26C78.58,172.14,77.87,161.61,77.87,150.37z M94.33,151.96c9.18-0.15,13.77-5.39,14.57-10.93
				c0.79-6.18-2.37-9.18-7.76-9.18c-1.9,0-4.43,0.64-6.97,1.43c-1.43,5.39-1.58,11.08-1.43,17.09v1.58L94.33,151.96L94.33,151.96z"
				/>
			<path class="st12" d="M129.95,148c0-9.82,0.32-19.15,1.43-23.58c2.37-0.79,7.12-1.43,11.87-1.43c1.58,0,2.85,0,4.59,0.32
				c-3.01,12.66-4.11,25.8-4.11,34.35c0,4.11,0.32,7.44,1.11,9.65c10.93,0,18.68-1.9,24.54-4.11c2.37,3.01,4.11,9.82,3.01,14.09
				c-6.33,2.22-15.36,3.01-23.43,3.01c-7.52,0-14.25-0.64-17.41-1.11C130.5,173.09,129.95,160.03,129.95,148z"/>
		</g>
	</g>
	<g>
		<g>
			<g>
				<path class="st12" d="M88.93,26.31c0.67,0.58,2.18,1.57,3.29,2.9c7.29,8.72,3.54,17.73-5.44,23.6
					c-4.41,2.89-9.04,5.61-12.5,9.67c-4.33,5.09-4.8,11.51-5.53,17.8c-0.7,5.92-2.16,11.64-6.57,15.92
					c-7.75,7.51-19.18,5.68-24.8-3.71c-3.34-5.6-4.84-11.77-5.16-18.08c-0.61-11.93-0.48-23.89,3.27-35.43
					c1.59-4.88,3.22-9.81,6.73-13.77c4.45-5.03,10.16-7.63,16.77-7.59C69.41,17.68,79.47,19.5,88.93,26.31z"/>
				<path class="st12" d="M148.18,36.35c6.64,5.05,12.25,11.11,16.25,18.53c4.22,7.83,3.54,15.55-1.13,22.94
					c-5.05,7.96-12.07,13.87-19.68,19.34c-5.36,3.84-10.97,7.1-16.83,9.97c-5.32,2.6-11.01,3.85-16.97,3.66
					c-11.31-0.37-18.08-10.63-14.16-21.23c1.61-4.37,4.66-7.48,8.08-10.37c3.21-2.71,6.54-5.24,9.55-8.22
					c4.7-4.65,5.44-10.35,5.81-16.38c0.29-4.65,0.32-9.32,1.68-13.87c2.03-6.79,9.28-11.15,16.25-9.42
					c2.16,0.54,4.32,1.17,6.33,2.08C145.04,34.1,146.53,35.3,148.18,36.35z"/>
				<path class="st12" d="M95.39,13.11c2.4-3.63,5.55-6.01,10.14-5.58c4.25,0.39,7.04,2.92,8.02,7.07
					c1.69,7.22-4.86,15.59-12.27,15.7c-7.07,0.1-11.26-7.8-7.69-14.6C94.07,14.77,94.79,13.97,95.39,13.11z"/>
				<path class="st12" d="M132.68,10.25c3.45-4.82,7.86-6.41,12.24-4.57c4.21,1.77,6.24,6.31,5.2,11.77
					c-0.73,3.84-2.56,7.03-5.89,9.17c-3.02,1.96-6.27,2.58-9.64,0.91c-3.29-1.63-4.47-4.66-4.74-8.06
					C129.59,15.97,130.55,12.76,132.68,10.25z"/>
				<path class="st12" d="M78.04,5.91C80.6,2.2,85.4,0.8,88.37,2.9c3.47,2.45,3.95,8.3,1,12.37c-2.61,3.63-6.88,4.74-10.08,2.62
					C75.89,15.67,75.29,9.89,78.04,5.91z"/>
				<path class="st12" d="M162.96,33.35c-1.94,2.42-4.44,4.34-8.16,3.6c-3.59-0.72-5.56-3.45-5.21-7.1
					c0.32-3.38,2.18-5.92,4.68-7.91c2.48-1.99,6.47-1.81,8.49-0.01c2.46,2.17,3.09,6.05,1.5,9.34
					C163.95,31.91,163.51,32.48,162.96,33.35z"/>
				<path class="st12" d="M162.3,37.93c2.78-3.94,6.84-4.9,10.23-2.43c2.83,2.04,3.1,5.28,0.74,8.65
					c-2.46,3.51-7.35,4.65-10.52,2.46C160.04,44.71,159.86,41.39,162.3,37.93z"/>
				<path class="st12" d="M63.52,3.21c2.34-3.38,4.82-4.08,7.61-2.17c3.41,2.35,4.13,7.51,1.56,11.23
					c-2.23,3.22-5.33,3.97-8.03,1.96C61.43,11.8,60.93,6.95,63.52,3.21z"/>
				<path class="st12" d="M58.74,13.58c-1.36,1.96-4.63,2.62-6.53,1.34C49.4,13,48.43,7.52,50.54,4.85c1.9-2.41,4.29-1.99,6.51-0.63
					C59.88,5.97,60.66,10.81,58.74,13.58z"/>
				<path class="st12" d="M178.18,55.71c-2.22,3.21-5.74,3.91-8.88,1.77c-2.49-1.71-3.07-4.38-1.24-6.63
					c1.74-2.15,6.44-3.89,9.16-1.72C179.75,51.14,180.16,52.84,178.18,55.71z"/>
				<path class="st12" d="M178.3,62.15c1.84,1.34,2.33,3.25,0.77,5.5c-1.47,2.16-5.68,2.89-7.9,1.18c-1.85-1.42-2.55-3.26-0.98-5.45
					C171.95,60.91,175.46,60.22,178.3,62.15z"/>
				<path class="st12" d="M44.67,9.79c3.32,2.47,4.04,6.1,2.27,8.3c-1.84,2.28-3.95,1.61-5.87,0.25c-2.34-1.66-2.76-5.26-1.09-7.48
					C41.63,8.68,43.48,8.93,44.67,9.79z"/>
			</g>
		</g>
		<g>
			<path class="st12" d="M25.9,20.27l-3.17,0.84c-3.24,0.85-5.7,3.49-6.31,6.79l-0.56,3.02l-0.56-3.02
				c-0.61-3.29-3.07-5.94-6.3-6.79l-3.16-0.84l3.17-0.81c3.23-0.82,5.7-3.45,6.33-6.73l0.51-2.67l0.51,2.67
				c0.63,3.28,3.1,5.9,6.35,6.73L25.9,20.27z"/>
			<path class="st12" d="M32.18,30.32l-1.96,0.51c-2,0.53-3.52,2.16-3.89,4.19l-0.35,1.86l-0.35-1.86c-0.37-2.03-1.9-3.66-3.89-4.19
				l-1.96-0.51l1.94-0.5c2-0.51,3.52-2.14,3.91-4.15l0.32-1.65l0.32,1.65c0.39,2.03,1.92,3.65,3.91,4.16L32.18,30.32z"/>
			<path class="st12" d="M12.39,10.54l-1.96,0.51c-2,0.53-3.52,2.16-3.89,4.19L6.2,17.1l-0.35-1.86c-0.37-2.03-1.9-3.66-3.89-4.19
				L0,10.54l1.97-0.5c2-0.51,3.52-2.14,3.91-4.15L6.2,4.24l0.32,1.65c0.39,2.03,1.92,3.65,3.91,4.16L12.39,10.54z"/>
			<path class="st12" d="M30.56,22.1c0-0.89,0.73-1.61,1.61-1.61c0.89,0,1.61,0.73,1.61,1.61c0,0.89-0.73,1.61-1.61,1.61
				C31.29,23.72,30.56,22.99,30.56,22.1z"/>
			<path class="st12" d="M6.2,26.53c0-0.89,0.73-1.61,1.61-1.61c0.89,0,1.61,0.73,1.61,1.61c0,0.89-0.73,1.61-1.61,1.61
				C6.92,28.15,6.2,27.43,6.2,26.53z"/>
			<path class="st12" d="M28.68,17.99c0-0.49,0.39-0.88,0.88-0.88c0.49,0,0.88,0.39,0.88,0.88s-0.39,0.88-0.88,0.88
				C29.07,18.88,28.68,18.47,28.68,17.99z"/>
			<path class="st12" d="M3.06,29.72c0-0.49,0.39-0.88,0.88-0.88s0.88,0.39,0.88,0.88S4.44,30.6,3.95,30.6S3.06,30.2,3.06,29.72z"/>
			<path class="st12" d="M31.51,15.13c0-0.37,0.3-0.67,0.67-0.67s0.67,0.3,0.67,0.67c0,0.37-0.3,0.67-0.67,0.67
				S31.51,15.5,31.51,15.13z"/>
			<path class="st12" d="M10.32,32.57c0-0.37,0.3-0.67,0.67-0.67c0.37,0,0.67,0.3,0.67,0.67s-0.3,0.67-0.67,0.67
				C10.62,33.24,10.32,32.94,10.32,32.57z"/>
		</g>
	</g>
</g>
</svg>
