<?xml version="1.0" encoding="utf-8"?>
<!-- Generator: Adobe Illustrator 25.2.1, SVG Export Plug-In . SVG Version: 6.00 Build 0)  -->
<svg version="1.1" id="Layer_1" xmlns="http://www.w3.org/2000/svg" xmlns:xlink="http://www.w3.org/1999/xlink" x="0px" y="0px"
	 viewBox="0 0 180 134.7" style="enable-background:new 0 0 180 134.7;" xml:space="preserve">
<style type="text/css">
	.st0{fill:#020202;}
	.st1{fill:#FCD1AF;}
	.st2{fill:#F4E0CD;}
	.st3{fill:#B0E0E8;}
	.st4{fill:#FFFFFF;}
	.st5{fill:#F17DB1;}
	.st6{fill:#FFE6B4;}
	.st7{fill:#FFFCD7;}
	.st8{fill:#96D9EE;}
	.st9{fill:#BE9B81;}
	.st10{fill:#85522F;}
	.st11{fill:none;stroke:#F17DB1;stroke-miterlimit:10;}
	.st12{fill:#F173AC;}
	.st13{fill:#C4E9F6;}
	.st14{fill:#ED1C8F;}
	.st15{fill:#3FC6EB;}
	.st16{fill:#FBB681;}
	.st17{fill:#F9C5DC;}
	.st18{fill:#FFD034;}
	.st19{fill:#C8E9F1;}
	.st20{fill:#231F20;}
	.st21{fill:#F6A7C2;}
	.st22{fill:#FACCD7;}
	.st23{filter:url(#Adobe_OpacityMaskFilter);}
	.st24{filter:url(#Adobe_OpacityMaskFilter_1_);}
	.st25{mask:url(#SVGID_1_);fill:url(#SVGID_2_);}
	.st26{opacity:0.3;fill:url(#SVGID_3_);}
	.st27{filter:url(#Adobe_OpacityMaskFilter_2_);}
	.st28{filter:url(#Adobe_OpacityMaskFilter_3_);}
	.st29{mask:url(#SVGID_4_);fill:url(#SVGID_5_);}
	.st30{opacity:0.3;fill:url(#SVGID_6_);}
	.st31{fill:#683A1A;}
</style>
<g>
	<g>
		<path class="st8" d="M69.28,31.99c0.82,0.71,2.65,1.91,4,3.53c8.86,10.61,4.31,21.56-6.61,28.68c-5.37,3.51-11,6.82-15.2,11.76
			c-5.26,6.19-5.83,14-6.73,21.64c-0.85,7.19-2.62,14.15-7.99,19.36c-9.42,9.14-23.32,6.9-30.14-4.5
			c-4.06-6.79-5.89-14.32-6.28-21.99C-0.4,75.97-0.25,61.43,4.3,47.4c1.93-5.93,3.92-11.92,8.18-16.74
			c5.41-6.12,12.35-9.28,20.4-9.23C45.56,21.5,57.78,23.71,69.28,31.99z"/>
		<path class="st8" d="M141.31,44.2c8.07,6.14,14.89,13.5,19.76,22.52c5.13,9.51,4.31,18.91-1.38,27.89
			c-6.13,9.68-14.67,16.87-23.93,23.5c-6.51,4.67-13.34,8.63-20.47,12.12c-6.46,3.16-13.39,4.68-20.64,4.45
			c-13.74-0.45-21.99-12.92-17.22-25.82c1.96-5.31,5.67-9.09,9.82-12.6c3.9-3.29,7.94-6.36,11.61-9.99
			c5.72-5.65,6.61-12.59,7.06-19.92c0.35-5.66,0.39-11.33,2.05-16.87c2.47-8.25,11.28-13.56,19.74-11.46
			c2.62,0.65,5.24,1.43,7.7,2.52C137.49,41.46,139.31,42.93,141.31,44.2z"/>
		<path class="st8" d="M77.14,15.95c2.92-4.41,6.74-7.3,12.33-6.78c5.16,0.48,8.56,3.56,9.74,8.59c2.06,8.77-5.91,18.95-14.92,19.08
			c-8.6,0.12-13.68-9.49-9.35-17.74C75.54,17.97,76.41,16.99,77.14,15.95z"/>
		<path class="st8" d="M122.47,12.47c4.19-5.86,9.55-7.78,14.88-5.56c5.12,2.14,7.58,7.67,6.33,14.31
			c-0.88,4.67-3.12,8.54-7.16,11.16c-3.67,2.38-7.63,3.13-11.71,1.1c-4-1.99-5.44-5.67-5.76-9.8
			C118.71,19.42,119.87,15.52,122.47,12.47z"/>
		<path class="st8" d="M56.04,7.2c3.11-4.5,8.95-6.2,12.56-3.65c4.21,2.97,4.79,10.1,1.22,15.04c-3.18,4.4-8.36,5.76-12.25,3.19
			C53.44,19.06,52.7,12.03,56.04,7.2z"/>
		<path class="st8" d="M159.28,40.55c-2.36,2.95-5.4,5.28-9.91,4.39c-4.37-0.86-6.75-4.19-6.33-8.63c0.39-4.11,2.66-7.19,5.68-9.61
			c3.02-2.42,7.87-2.2,10.32-0.02c2.98,2.65,3.75,7.35,1.83,11.36C160.48,38.8,159.95,39.48,159.28,40.55z"/>
		<path class="st8" d="M158.47,46.12c3.38-4.79,8.3-5.96,12.44-2.97c3.43,2.48,3.77,6.42,0.9,10.51c-2.99,4.27-8.93,5.65-12.79,2.98
			C155.72,54.36,155.51,50.32,158.47,46.12z"/>
		<path class="st8" d="M38.4,3.91c2.84-4.1,5.86-4.97,9.24-2.64c4.15,2.85,5.02,9.14,1.89,13.65c-2.71,3.91-6.47,4.82-9.75,2.37
			C35.86,14.35,35.25,8.46,38.4,3.91z"/>
		<path class="st8" d="M32.58,16.52c-1.66,2.38-5.62,3.19-7.94,1.62c-3.42-2.33-4.6-8.99-2.04-12.23c2.31-2.93,5.23-2.42,7.92-0.76
			C33.98,7.26,34.92,13.15,32.58,16.52z"/>
		<path class="st8" d="M177.79,67.73c-2.69,3.91-6.98,4.76-10.79,2.15c-3.02-2.07-3.72-5.32-1.51-8.06
			c2.12-2.62,7.83-4.73,11.14-2.09C179.69,62.17,180.19,64.24,177.79,67.73z"/>
		<path class="st8" d="M177.93,75.56c2.23,1.63,2.82,3.94,0.95,6.69c-1.79,2.62-6.9,3.5-9.59,1.43c-2.24-1.72-3.1-3.95-1.19-6.63
			C170.22,74.06,174.47,73.22,177.93,75.56z"/>
		<path class="st8" d="M15.49,11.91c4.03,3,4.91,7.4,2.76,10.09c-2.23,2.77-4.8,1.95-7.13,0.3c-2.84-2.01-3.36-6.4-1.32-9.09
			C11.79,10.56,14.04,10.87,15.49,11.91z"/>
	</g>
</g>
</svg>
