<?xml version="1.0" encoding="utf-8"?>
<!-- Generator: Adobe Illustrator 25.2.1, SVG Export Plug-In . SVG Version: 6.00 Build 0)  -->
<svg version="1.1" id="Layer_1" xmlns="http://www.w3.org/2000/svg" xmlns:xlink="http://www.w3.org/1999/xlink" x="0px" y="0px"
	 viewBox="0 0 180 162.1" style="enable-background:new 0 0 180 162.1;" xml:space="preserve">
<style type="text/css">
	.st0{stroke:#000000;stroke-width:0.5;}
	.st1{fill:none;stroke:#000000;stroke-width:2;}
	.st2{fill:#FFFFFF;}
	.st3{fill:none;stroke:#000000;stroke-width:0.75;}
	.st4{fill:none;}
	.st5{fill:#010101;}
	.st6{fill:none;stroke:#010101;stroke-width:0.5;stroke-miterlimit:10;}
</style>
<g>
	<path d="M163.9,61.3c-0.1,0.1,0.1,0.3,0.2,0.2c4.2-2.4,6.3-7.9,7.5-12.4c1.8-6.7-0.2-13.5-4-19c-0.2-0.2-0.5-0.1-0.5,0.2
		C170,40.9,170.6,52.2,163.9,61.3z"/>
	<path d="M171.1,58.1c5.5-1.9,6.2-9.4,5-14.1c-0.1-0.2-0.4-0.2-0.4,0c-0.7,2.4-1.5,4.9-2.2,7.3c-0.6,2.3-2,4.3-2.5,6.6
		C171,58.1,171,58.2,171.1,58.1z"/>
	<path d="M173.2,58.9c-0.1,0.1-0.1,0.3,0,0.4c2.7,1.3,6.7-0.9,6.2-4.1c0-0.1-0.2-0.1-0.3-0.1c-0.9,0.9-1.8,1.6-3,2.2
		C175.2,57.8,174.2,58.1,173.2,58.9z"/>
	<path d="M173.7,67.8c0.2-0.2,0.1-0.5-0.1-0.6c-4.8-2.6-6.5,4.7-3.6,7.6c4.1,4.2,9.9-1.2,10-5.6c0.1-5.7-6.3-9.6-11.4-7.6
		c-2.6,1.1-4.4,3.8-5.8,6.1c-2.7,4.4-5.4,7.3-10.5,9c-0.2,0.1-0.1,0.3,0,0.3c7.5,0.8,10.8-5.5,14.7-10.5c2.9-3.7,8.4-3.2,9.9,1.5
		c0.8,2.7-1,4.7-3.6,4.8C169.3,73.1,172.7,68.7,173.7,67.8z"/>
	<path d="M161.8,105.1c-1.9,1.1-3.5,3.1-4.5,5.3c-0.9,2.1-0.4,2.2,1.3,1.9c2.1-0.3,4-1.1,5.9-2.5
		C168.9,106.8,166.1,102.7,161.8,105.1z"/>
	<path d="M112.2,6.4c1.1,0.1,2.3,0.4,3.4,0.1c2.9,0.3,5.7,0.7,8.5,1.4c-0.5,0.2-1,0.5-1.5,0.7c-1.6,0.6-2.5,1.5-3.5,2.9
		c-0.1,0.2,0,0.4,0.2,0.4c1.7,0,3.1-0.1,4.7-0.8c1.3-0.5,2.6-1.1,2.9-2.5c2.3,0.6,4.5,1.4,6.7,2.3c-0.8,0.2-1.5,0.6-2.3,0.9
		c-1.6,0.6-2.5,1.5-3.5,2.9c-0.1,0.2,0,0.4,0.2,0.4c1.7,0,3.1-0.1,4.7-0.8c1.3-0.5,2.6-1.1,2.9-2.5c2.5,1.2,4.9,2.6,7.1,4.2
		c-0.8,0-1.6,0.2-2.4,0.3c-1.6,0.2-2.9,0.8-4.1,1.8c-0.2,0.1-0.1,0.4,0.1,0.5c1.6,0.5,3.1,0.7,4.7,0.5c1.3-0.1,2.8-0.3,3.5-1.6
		c1.9,1.6,3.7,3.4,5.3,5.4c-0.4-0.1-0.9-0.2-1.3-0.3c-1.6-0.4-2.9-0.3-4.5,0.3c-0.2,0.1-0.3,0.4-0.1,0.5c1.8,1.3,5.5,3.5,7.8,2
		c1.3,2,2.3,4.1,3.2,6.4c-0.4-0.2-0.7-0.5-1.1-0.7c-1.4-1-2.8-1.4-4.5-1.5c-0.2,0-0.4,0.3-0.2,0.4c1,1.5,1.9,2.5,3.3,3.6
		c0.5,0.4,1.3,0.9,1.9,1.1c0.3,0.1,0.6,0.2,0.9,0.2c0.1,0,0.5-0.1,0.7-0.2c0.6,2.1,1,4.2,1.1,6.3c0,0,0,0-0.1-0.1
		c-0.5-0.4-1-0.7-1.5-1c-1.4-1-2.8-1.4-4.5-1.5c-0.2,0-0.4,0.3-0.2,0.4c1,1.5,1.9,2.5,3.3,3.6c0.5,0.4,1.3,0.9,1.9,1.1
		c0.3,0.1,0.6,0.2,0.9,0.2c0.1,0,0.2,0,0.3-0.1c0,2.3-0.3,4.6-0.8,6.8c-0.4-0.7-0.9-1.3-1.4-1.9c-1.1-1.5-2.2-2.3-3.9-3
		c-0.2-0.1-0.4,0.2-0.3,0.4c0.5,1.7,1,3.2,2.2,4.6c0.8,1,1.7,2.1,3,1.9c-0.7,2.5-1.7,5-3,7.3c-0.1-0.8-0.3-1.6-0.5-2.4
		c-0.4-1.7-1.1-3-2.4-4.2c-0.1-0.1-0.4-0.1-0.5,0.1c-0.3,2.4-0.7,7.1,2.2,8.1c0,0,0.1,0,0.1,0c-1,1.6-2.1,3.1-3.3,4.4
		c-0.1-0.7-0.3-1.5-0.5-2.3c-0.4-1.8-1.1-2.9-2.4-4.2c-0.2-0.2-0.5,0-0.5,0.2c-0.3,2.3-0.6,6.6,1.9,7.8c-1.7,1.7-3.5,3.2-5.6,4.5
		c0.2-0.9,0.2-1.8,0.3-2.7c0.2-1.6-0.2-3-1-4.5c-0.1-0.2-0.4-0.2-0.5,0c-1.1,2.1-2.7,6.3-0.6,8.2c-2.3,1.3-4.8,2.3-7.5,2.9
		c-0.9,0.2-0.5,1.6,0.4,1.4c1.9-0.4,3.7-1.1,5.5-1.9c0,0.1,0,0.2,0.1,0.3c1.4,2.6,6.2,1.4,8.3,0.6c0.2-0.1,0.3-0.4,0.1-0.5
		c-1.2-0.9-2.5-1.4-4.1-1.5c-0.6,0-1.1-0.1-1.7-0.1c1.7-0.9,3.2-2,4.7-3.2c0.3,1.2,1.4,1.7,2.4,2.2c1.7,0.8,3.2,0.9,5,1
		c0.2,0,0.4-0.3,0.2-0.4c-0.9-1.4-1.9-2.3-3.4-3c-0.9-0.4-1.8-0.9-2.7-1.1c1.5-1.4,2.8-2.8,4-4.4c1.3,2.3,5.5,2.1,7.7,1.9
		c0.2,0,0.4-0.3,0.2-0.5c-1.1-1.2-2.2-2-3.8-2.4c-1-0.3-1.9-0.6-2.9-0.7c1-1.5,2-3.1,2.7-4.7c1.8,2,6.1,0.7,8.1-0.3
		c0.2-0.1,0.2-0.4,0-0.5c-1.4-0.9-2.8-1.3-4.5-1.2c-1,0-1.9,0-2.9,0.2c0.9-2.1,1.6-4.3,2.1-6.5c2.4,1.5,5.9-1.1,7.7-2.6
		c0.2-0.1,0.1-0.4-0.1-0.5c-1.6-0.4-2.9-0.5-4.4,0.1c-0.9,0.3-1.9,0.5-2.8,1c0.4-2.3,0.5-4.6,0.4-7c0.1,0,0.2,0.1,0.2,0.1
		c0.3,0.1,0.7,0,1-0.1c0.7-0.2,1.3-0.6,1.9-1c1.6-1,2.5-2.3,3.6-3.8c0.1-0.2,0-0.4-0.2-0.4c-1.6,0.1-2.9,0.4-4.3,1.3
		c-0.5,0.4-1,0.7-1.6,1.1c-0.3,0.2-0.5,0.4-0.7,0.5c-0.1-1-0.2-1.9-0.4-2.9c-0.2-1.2-0.5-2.4-0.9-3.6c1,0,1.9-0.9,2.6-1.7
		c1.3-1.3,1.9-2.7,2.5-4.4c0.1-0.2-0.2-0.4-0.3-0.4c-1.7,0.5-2.9,1.2-4.1,2.5c-0.5,0.5-1.1,1.1-1.6,1.7c-0.8-2.1-1.8-4.1-3-5.9
		c1-0.4,1.5-1.4,2-2.4c0.8-1.7,0.9-3.2,1-5c0-0.2-0.3-0.4-0.4-0.2c-1.4,1-2.3,1.9-3,3.5c-0.3,0.7-0.7,1.5-0.9,2.2
		c-1.2-1.6-2.6-3.2-4.1-4.6c2.2-1.5,1.8-5.6,1.5-7.8c0-0.2-0.3-0.3-0.5-0.1c-1.1,1.2-1.9,2.2-2.2,3.9c-0.2,0.9-0.5,1.7-0.5,2.6
		c-1.8-1.5-3.7-2.8-5.7-4c1-0.6,1.2-1.8,1.3-2.9c0.2-1.8,0-3.4-0.6-5.1c-0.1-0.2-0.3-0.3-0.5-0.1c-1,1.2-1.6,2.5-1.8,4.1
		c-0.1,1-0.3,2.1-0.2,3.1c-1.9-1-4-2-6-2.8c1.9-2.1-0.3-6.1-1.5-8c-0.1-0.2-0.4-0.2-0.5,0.1c-0.6,1.6-0.8,2.9-0.5,4.6
		c0.2,0.9,0.2,1.9,0.6,2.7c-1.8-0.6-3.6-1.2-5.4-1.6c0.5-1.4-0.3-2.4-1.1-3.6c-1.1-1.4-2.3-2.3-3.8-3.2c-0.2-0.1-0.4,0-0.4,0.2
		c0.1,1.6,0.5,2.9,1.4,4.2c0.5,0.6,0.9,1.2,1.3,1.8c-2.1-0.4-4.2-0.8-6.3-1c0,0,0-0.1,0-0.1c-0.6-1.2-1.9-1.4-3.1-1.5
		c-1.8-0.2-3.4,0-5.1,0.6c-0.2,0.1-0.3,0.3-0.1,0.5C109.3,5.7,110.6,6.2,112.2,6.4z"/>
	<path d="M9.6,75c3.8-2.5,1.4-10.5-3.3-7.9c-0.2,0.1-0.3,0.5-0.1,0.6c1.1,0.9,2.5,2.3,2.2,3.8c-0.4,2.2-3.5,1.2-4.4,0.5
		c-0.8-0.7-1-1.9-1.1-2.8c-0.2-5.3,6.3-6.4,9.5-3.3c4.7,4.8,6.9,12,15.2,11.1c0.2,0,0.2-0.3,0-0.3c-4.7-1.5-7.6-4.1-10.1-8.2
		c-1.6-2.6-3.2-5.2-5.9-6.7C6.9,59.1,0.6,63.4,0,68.5C-0.5,73.6,4.7,78.2,9.6,75z"/>
	<path d="M15.5,109.8c1.9,1.3,3.8,2.2,5.9,2.5c1.7,0.2,2.3,0.2,1.3-1.9c-1-2.1-2.6-4.2-4.5-5.3C13.8,102.7,11.1,106.8,15.5,109.8z"
		/>
	<path d="M6.7,59.3c0.1-0.1,0.2-0.3,0-0.4c-1-0.8-1.9-1.2-3.1-1.7c-1.2-0.5-2.1-1.3-3-2.2c-0.1-0.1-0.3-0.1-0.3,0.1
		C0,58.4,3.9,60.6,6.7,59.3z"/>
	<path d="M15.8,61.6c0.1,0.1,0.3-0.1,0.2-0.2c-6.7-9.2-6.1-20.5-3.3-31c0.1-0.3-0.3-0.4-0.5-0.2c-3.5,5.2-5.4,11.2-4.2,17.5
		C8.9,52.5,11.3,59,15.8,61.6z"/>
	<path d="M8.9,58.1C8.9,58.2,9,58.1,9,58c-0.5-2.3-1.8-4.4-2.5-6.6C5.7,49,5,46.5,4.3,44.1c-0.1-0.2-0.4-0.2-0.4,0
		C2.7,48.7,3.3,56.3,8.9,58.1z"/>
	<path d="M23.6,119.1c2-1.1,2.6-1.6-0.1-3.1c-2.7-1.5-6.1-2.4-8.9-2c-6.5,0.9-6.2,7.4,0.9,7.1C18.4,121.1,21.1,120.5,23.6,119.1z"/>
	<path d="M164.5,125.3c-1.9-1.3-3.8-2.2-5.9-2.5c-1.7-0.2-2.3-0.2-1.3,1.9c1,2.1,2.6,4.2,4.5,5.3
		C166.1,132.5,168.9,128.4,164.5,125.3z"/>
	<path d="M84.5,159.5c-11-0.7-22.1-0.7-33.1-0.5c-10.8,0.2-22.2-0.6-32.9,1c-0.1,0-0.1,0.2,0,0.2c10.2,1.5,21,0.6,31.2,0.6
		c11.6,0,23.2-0.1,34.8-0.9C84.7,159.9,84.7,159.5,84.5,159.5z"/>
	<path d="M165.4,114.1c-2.8-0.4-6.2,0.5-8.9,2c-2.6,1.4-2.1,2-0.1,3.1c2.5,1.4,5.1,2,8.1,2.1C171.6,121.4,171.9,114.9,165.4,114.1z"
		/>
	<path d="M90,157.7c-2.8,0-2.8,4.3,0,4.3C92.8,162.1,92.8,157.7,90,157.7z"/>
	<path d="M130.3,159c-11.6-0.2-23.2-0.3-34.8,0.5c-0.2,0-0.2,0.3,0,0.4c11,0.7,22.1,0.9,33.1,0.9c10.8,0,22.2,1,32.9-0.6
		c0.1,0,0.1-0.2,0-0.2C151.3,158.5,140.6,159.2,130.3,159z"/>
	<path d="M18.2,130.1c1.9-1.1,3.5-3.1,4.5-5.3c0.9-2.1,0.4-2.2-1.3-1.9c-2.1,0.3-4,1.1-5.9,2.5C11.1,128.4,13.8,132.5,18.2,130.1z"
		/>
	<path d="M22.4,51c0.5,2.2,1.2,4.3,2.1,6.4c-0.9-0.2-1.8-0.1-2.7-0.2c-1.7-0.1-3.1,0.3-4.5,1.2c-0.2,0.1-0.2,0.4,0,0.5
		c2,1,6.2,2.3,8.1,0.3c0.8,1.6,1.7,3.2,2.7,4.6c-0.9,0.1-1.6,0.4-2.5,0.6c-1.8,0.4-2.9,1.2-4.2,2.5c-0.2,0.2,0,0.5,0.2,0.5
		c2.2,0.2,6.4,0.5,7.7-1.9c1.2,1.6,2.6,3.1,4.1,4.4c-1,0.2-1.8,0.7-2.7,1.1c-1.6,0.7-2.5,1.6-3.4,3c-0.1,0.2,0,0.4,0.2,0.4
		c1.7-0.1,3.1-0.2,4.7-0.9c1.2-0.5,2.4-1.1,2.8-2.3c1.5,1.2,3.1,2.3,4.8,3.2c-0.5,0-1,0.1-1.4,0.1c-1.7,0.1-3.1,0.5-4.5,1.5
		c-0.2,0.2-0.2,0.4,0.1,0.5c2.1,0.8,6.9,2,8.3-0.6c0.1-0.1,0.1-0.2,0.1-0.3c1.7,0.8,3.6,1.4,5.5,1.9c0.9,0.2,1.3-1.1,0.4-1.4
		c-2.7-0.6-5.2-1.6-7.5-2.9c2.1-1.9,0.5-6.2-0.6-8.2c-0.1-0.2-0.4-0.2-0.5,0c-0.8,1.4-1.1,2.8-1,4.5c0.1,0.9,0,1.9,0.3,2.8
		c-2-1.3-3.9-2.8-5.6-4.5c2.5-1.2,2.2-5.6,1.9-7.8c0-0.2-0.3-0.4-0.5-0.2c-1.2,1.2-1.9,2.2-2.3,3.8c-0.2,0.9-0.5,1.8-0.6,2.7
		c-1.2-1.4-2.3-2.9-3.3-4.5c0,0,0.1,0,0.1,0c2.9-1,2.6-5.7,2.2-8.1c0-0.2-0.3-0.3-0.5-0.1c-1.2,1.1-1.9,2.2-2.3,3.8
		c-0.2,0.9-0.5,1.8-0.6,2.6c-1.2-2.3-2.2-4.7-2.9-7.2c1.2,0.2,2.1-1,2.9-1.9c1.1-1.4,1.7-2.9,2.2-4.6c0.1-0.2-0.1-0.4-0.3-0.4
		c-1.6,0.6-2.7,1.3-3.8,2.7c-0.5,0.6-1.1,1.3-1.5,2c-0.5-2.2-0.7-4.4-0.8-6.6c0.3,0,0.5,0,0.8-0.1c0.7-0.2,1.3-0.6,1.9-1
		c1.6-1,2.5-2.2,3.6-3.8c0.1-0.2,0-0.4-0.2-0.4c-1.6,0.1-2.9,0.4-4.3,1.3c-0.5,0.4-1,0.7-1.6,1.1c-0.1,0-0.1,0.1-0.2,0.1
		c0.1-1.8,0.3-3.5,0.7-5.3c0.1-0.3,0.2-0.6,0.3-1c0.2,0.1,0.3,0.2,0.3,0.2c0.3,0.1,0.7,0,1-0.1c0.7-0.2,1.3-0.6,1.9-1
		c1.6-1,2.5-2.2,3.6-3.8c0.1-0.2,0-0.4-0.2-0.4c-1.6,0.1-2.9,0.4-4.3,1.3c-0.5,0.4-1,0.7-1.5,1.1c0.8-2.4,1.9-4.6,3.2-6.6
		c2.2,1.6,6-0.6,7.9-1.9c0.2-0.1,0.2-0.4-0.1-0.5c-1.6-0.6-2.9-0.7-4.5-0.3c-0.5,0.1-1,0.2-1.6,0.3c1.6-2.1,3.5-3.9,5.5-5.6
		c0,0,0,0,0,0.1c0.6,1.2,1.9,1.4,3.1,1.6c1.8,0.3,3.4,0.1,5.1-0.5c0.2-0.1,0.3-0.3,0.1-0.5c-1.2-1.1-2.5-1.7-4.1-1.8
		c-0.8-0.1-1.6-0.3-2.5-0.3c2.2-1.6,4.7-3,7.2-4.2c0.3,1.4,1.4,1.9,2.6,2.4c1.7,0.7,3.2,0.9,5,0.9c0.2,0,0.4-0.3,0.2-0.4
		c-1-1.4-1.9-2.3-3.5-2.9c-0.7-0.3-1.5-0.7-2.2-0.9c2.2-0.9,4.4-1.7,6.6-2.3c0.3,1.3,1.4,1.8,2.5,2.3c1.7,0.7,3.2,0.9,5,0.9
		c0.2,0,0.4-0.3,0.2-0.4c-1-1.4-1.9-2.3-3.5-2.9c-0.5-0.2-1-0.4-1.5-0.7c2.8-0.7,5.7-1.1,8.5-1.4c1.1,0.3,2.3,0,3.4-0.1
		c1.6-0.1,2.9-0.7,4.1-1.7c0.2-0.1,0.1-0.4-0.1-0.5c-1.6-0.5-3.1-0.8-4.8-0.6c-1.3,0.1-2.8,0.3-3.5,1.6c0,0,0,0.1,0,0.1
		c-2.1,0.2-4.2,0.6-6.2,1c0.4-0.5,0.7-1,1.1-1.5C59.4,3.3,59.9,2,60,0.3c0-0.2-0.3-0.4-0.4-0.2c-1.5,0.9-2.7,1.8-3.8,3.2
		c-0.8,1.1-1.6,2.2-1.1,3.5c-1.8,0.5-3.6,1-5.3,1.6c0.3-0.8,0.4-1.8,0.6-2.7c0.3-1.7,0.1-3-0.5-4.6c-0.1-0.2-0.4-0.3-0.5-0.1
		c-1.2,1.9-3.4,5.9-1.5,8c-2.1,0.8-4.1,1.7-6,2.8c0.1-1-0.1-2.1-0.2-3.1c-0.2-1.6-0.7-2.9-1.8-4.1c-0.1-0.2-0.4-0.1-0.5,0.1
		c-0.5,1.6-0.8,3.1-0.6,4.8c0.1,1.2,0.3,2.6,1.4,3.3c-2,1.2-3.9,2.6-5.7,4.1c-0.1-0.8-0.3-1.5-0.5-2.3c-0.3-1.8-1-2.9-2.3-4.2
		c-0.1-0.1-0.4-0.1-0.5,0.1c-0.3,2.3-0.8,6.5,1.6,7.9c-1.5,1.4-2.9,3-4.1,4.7c-0.2-0.8-0.7-1.6-1-2.4c-0.7-1.6-1.6-2.5-3-3.5
		c-0.2-0.1-0.4,0-0.4,0.2c0.1,1.7,0.2,3.1,0.8,4.7c0.5,1.2,1,2.5,2.3,2.8c-1.2,1.9-2.2,3.9-3,6c-0.4-0.7-1.1-1.2-1.6-1.8
		c-1.1-1.3-2.4-2.1-4.1-2.5c-0.2-0.1-0.4,0.1-0.3,0.4c0.6,1.7,1.3,3.1,2.5,4.4c0.7,0.8,1.7,1.7,2.8,1.7c-0.3,0.8-0.5,1.6-0.7,2.4
		c-0.3,1.3-0.6,2.7-0.7,4c-0.1-0.1-0.2-0.2-0.4-0.3c-0.5-0.4-1-0.7-1.5-1c-1.4-1-2.8-1.4-4.5-1.5c-0.2,0-0.4,0.3-0.2,0.4
		c1,1.5,1.9,2.5,3.3,3.6c0.5,0.4,1.3,0.9,1.9,1.1c0.3,0.1,0.6,0.2,0.9,0.2c0.1,0,0.2-0.1,0.4-0.1c-0.1,2.3,0,4.6,0.4,6.9
		c-0.7-0.3-1.5-0.5-2.2-0.8c-1.7-0.6-3.1-0.6-4.8-0.2c-0.2,0-0.3,0.3-0.1,0.5C16.5,49.7,19.9,52.3,22.4,51z"/>
	<g>
		<path d="M65.9,32.4c0.6-2.8,1.2-5.3,1.9-7.3s1.5-3.8,2.3-5.2c0.8-1.4,1.8-2.4,2.8-3.1c1-0.7,2.2-1,3.5-1c0.8,0,1.4,0.2,2.1,0.5
			c0.6,0.4,1,0.9,1.2,1.5c0,0.1,0,0.2-0.2,0.2c-0.4-0.5-0.7-0.8-1-1c-0.3-0.2-0.7-0.3-1.2-0.4c-0.8-0.1-1.6,0.1-2.5,0.5
			c-0.8,0.4-1.6,1-2.3,1.7c-0.7,0.8-1.4,1.7-2,2.7c-0.6,1.1-1.2,2.2-1.7,3.5c-0.5,1.2-0.9,2.3-1.2,3.3c-0.3,1-0.6,2.1-0.8,3.3
			c-0.3,1.1-0.5,2.4-0.7,3.8c-0.2,1.4-0.5,3.1-0.8,5c-0.3,2-0.5,3.4-0.7,4.4c-0.2,1-0.4,1.5-0.6,1.7c-0.6,0.4-1.2,0.5-1.6,0.3
			c-0.5-0.2-0.9-0.6-1.5-1.2c-0.5-0.5-0.9-1.1-1.2-2c-0.4-0.8-0.7-1.8-0.9-2.9c-0.2-1.1-0.4-2.2-0.6-3.4C58.1,36.2,58,35,58,33.7
			c0-0.8,0-1.4,0-1.9c0-0.5,0-1,0-1.4c0-0.5,0.1-1,0.1-1.5c0.1-0.6,0.1-1.3,0.2-2.1c0-0.2,0-0.5,0.1-0.7c0-0.2,0-0.5,0-0.7
			c0-0.2,0-0.5,0.1-0.8l-0.2,0.2l-0.2,0.2c0,0-0.1,0.4-0.3,1.2c-0.2,0.8-0.4,1.8-0.7,3c-0.3,1.2-0.6,2.5-1,4c-0.4,1.5-0.7,2.9-1,4.2
			c-0.3,1.4-0.7,2.6-0.9,3.7c-0.3,1.1-0.5,1.9-0.7,2.3c-0.1,0.3-0.3,0.6-0.4,0.7c-0.2,0.1-0.3,0.2-0.5,0.2c-0.2,0-0.4-0.1-0.6-0.2
			c-0.2-0.1-0.4-0.2-0.6-0.4c-0.4-0.3-0.7-1-1-2.1c-0.2-1.2-0.4-3-0.4-5.5c0-1,0-2.1,0.1-3.4c0.1-1.3,0.2-2.6,0.3-4
			c0.1-1.4,0.2-2.7,0.3-4c0.1-1.3,0.1-2.4,0.1-3.4c0-1.2-0.2-2-0.5-2.6c-0.4-0.6-0.8-0.9-1.4-1c-0.6-0.1-1.2,0-1.8,0.3
			c-0.7,0.3-1.3,0.7-2,1.2c-0.9,0.8-1.6,1.7-2.1,2.9c-0.5,1.2-0.8,2.4-0.8,3.8c0,0.3,0,0.6,0.1,0.9c0.1,0.3,0.2,0.6,0.3,0.8
			c0.1,0.2,0.2,0.4,0.3,0.6c0.1,0.2,0.1,0.3,0.1,0.3c0,0.1,0,0.1-0.1,0.1c-0.1,0-0.3-0.1-0.4-0.2c-0.2-0.1-0.3-0.3-0.5-0.6
			c-0.2-0.3-0.3-0.6-0.4-0.9c-0.1-0.4-0.2-0.8-0.2-1.3c0-1,0.2-2,0.6-3c0.4-1,0.9-2,1.5-2.8c0.6-0.8,1.4-1.5,2.2-2.1
			c0.8-0.5,1.7-0.8,2.6-0.8c1.3,0,2.3,0.4,3.2,1.3c0.9,0.9,1.4,2.1,1.7,3.7c0.1,0.4,0.1,0.7,0.2,1.1c0.1,0.4,0.1,0.8,0.1,1.3
			c0,0.5,0,1.1,0,1.7c0,0.7,0,1.5,0,2.5c0,1,0,1.8,0,2.5c0,0.7,0,1.4,0,2c0,0.6,0,1.3-0.1,1.9c0,0.7-0.1,1.4-0.2,2.3
			c-0.1,0.4-0.1,0.8-0.1,1.1c0,0.3-0.1,0.5-0.1,0.5c0.2-0.5,0.4-0.9,0.5-1.2c0.1-0.4,0.3-0.8,0.5-1.3c0.2-0.5,0.3-0.9,0.5-1.5
			c0.2-0.6,0.4-1.5,0.8-2.6c0.3-1.2,0.7-2.4,1.1-3.7c0.4-1.3,0.7-2.5,1.1-3.7c0.4-1.2,0.7-2.1,0.9-2.7c0.3-0.8,0.6-1.2,0.9-1.4
			c0.3-0.2,0.5-0.2,0.7-0.1c0.2,0.1,0.4,0.4,0.5,0.7c0.1,0.3,0.2,0.6,0.2,0.8c0,0.8,0,1.8,0,3c0,1.2,0.1,2.5,0.1,3.9
			c0.1,1.4,0.1,2.8,0.3,4.3c0.1,1.5,0.3,2.9,0.5,4.3c0.2,1.4,0.4,2.7,0.7,3.9c0.3,1.2,0.6,2.2,1.1,3.1l0,0.1
			c0.1-0.3,0.3-0.9,0.5-1.6c0.2-0.8,0.4-1.6,0.5-2.5c0.2-0.9,0.4-1.9,0.5-2.9c0.2-1,0.3-1.9,0.5-2.7c0.1-0.8,0.3-1.5,0.3-2
			C65.9,32.6,65.9,32.4,65.9,32.4z"/>
		<path d="M70.8,40.5c-0.6-0.2-1.1-0.5-1.5-1c-0.5-0.5-0.8-1.1-0.9-1.9c-0.1-0.6-0.2-1.2-0.1-1.8c0.1-0.6,0.2-1.2,0.5-1.8
			c0.2-0.6,0.5-1.1,0.9-1.6c0.4-0.5,0.8-0.9,1.3-1.2c0.4-0.3,0.7-0.5,1.2-0.6c0.4-0.2,0.9-0.2,1.3-0.2c0.5,0,0.8,0.1,1,0.3
			c0.2,0.2,0.3,0.5,0.3,0.8c0,0.3-0.1,0.7-0.3,1.1c-0.2,0.4-0.4,0.7-0.7,1c-0.3,0.4-0.7,0.8-1.1,1.2c-0.4,0.4-0.9,0.8-1.3,1
			C71.2,36,71.1,36,71,36c-0.1,0-0.2,0-0.4,0.1c0,0,0.1-0.1,0.1-0.3c0-0.2,0.1-0.3,0.3-0.3c0.3-0.1,0.7-0.3,1.2-0.7
			c0.5-0.4,0.9-0.8,1.2-1.3c0.3-0.4,0.5-0.7,0.6-1.1c0.2-0.3,0.2-0.6,0.3-0.9c0-0.2,0-0.4-0.1-0.5s-0.3,0-0.6,0.2
			c-0.5,0.3-0.9,0.7-1.3,1.3c-0.4,0.6-0.7,1.3-1,2c-0.3,0.7-0.4,1.5-0.5,2.2c-0.1,0.7-0.1,1.4,0.1,1.9c0.2,0.7,0.4,1.1,0.8,1.2
			c0.3,0.2,0.7,0.2,1,0.1c0.4-0.1,0.7-0.4,1.1-0.7c0.4-0.4,0.7-0.7,1-1.1c0.3-0.4,0.5-0.8,0.8-1.1c0.2-0.4,0.5-0.7,0.7-1.1
			c0.2-0.4,0.5-0.8,0.7-1.2c0.2-0.4,0.5-0.9,0.7-1.5c0.1-0.3,0.2-0.5,0.4-0.5c0.1-0.1,0.2-0.1,0.2-0.1c0.1,0,0.1,0.1,0.1,0.2
			c0,0.2-0.1,0.3-0.2,0.5c-0.4,0.9-0.9,1.8-1.3,2.7c-0.4,0.9-1,1.8-1.7,2.7c-0.6,0.8-1.2,1.4-1.9,1.8C72.6,40.8,71.8,40.8,70.8,40.5
			z"/>
		<path d="M83.4,39.6c-0.2-0.3-0.4-0.7-0.5-1.3c-0.1-0.6-0.1-1.4-0.1-2.2c0-0.9,0-1.8,0.1-2.8c0.1-1,0.2-2.1,0.4-3.2
			c0.1-0.9,0.3-1.8,0.4-2.7c0.2-0.8,0.3-1.6,0.5-2.3c0.2-0.7,0.3-1.2,0.5-1.7c0.2-0.4,0.3-0.7,0.5-0.9c0.1-0.1,0.2-0.1,0.5-0.2
			c0.2,0,0.5,0,0.7,0.1c0.3,0.1,0.5,0.2,0.6,0.3c0.1,0.1,0.2,0.2,0.2,0.3c0,0.1,0,0.3,0,0.5c0,0.2,0,0.5-0.1,1.2
			c-0.1,0.6-0.2,1.4-0.3,2.3c-0.1,0.9-0.2,1.9-0.4,3c-0.1,1.1-0.3,2.2-0.4,3.3l-0.2,1.8l-0.1,0.2c0.4-1,0.9-1.7,1.3-2.3
			c0.5-0.6,1-1,1.6-1.2c0.7-0.2,1.4-0.1,2.1,0.5c0.3,0.3,0.5,0.5,0.7,0.9c0.2,0.3,0.3,0.7,0.5,1.1l0,0.4l0.5-0.3
			c0.1-0.1,0.3-0.2,0.7-0.4c0.4-0.2,0.7-0.4,1.1-0.7c0.4-0.2,0.7-0.5,1-0.6c0.3-0.2,0.5-0.3,0.5-0.3c0.1,0,0,0.1-0.2,0.3
			c-0.2,0.2-0.5,0.4-0.8,0.7c-0.3,0.3-0.7,0.5-1,0.7c-0.3,0.2-0.6,0.4-0.7,0.5l-0.9,0.6L92,36.2c-0.1,0.8-0.3,1.4-0.6,2
			c-0.3,0.5-0.6,1.1-1,1.6c-0.2,0.2-0.5,0.5-0.8,0.8c-0.4,0.3-0.8,0.6-1.2,0.9c-0.4,0.3-0.9,0.5-1.3,0.6c-0.5,0.1-0.8,0.1-1.2-0.1
			c-0.3-0.2-0.5-0.5-0.5-0.9c0-0.4,0.2-0.8,0.4-1.2c0.3-0.6,0.8-1.1,1.3-1.8c0.5-0.6,1.2-1.3,2.1-2.1c0.1-0.1,0.1-0.3,0.2-0.6
			c0-0.4,0-0.7-0.1-1.1c-0.1-0.4-0.2-0.7-0.3-1.1c-0.2-0.3-0.4-0.5-0.6-0.4c-0.3,0-0.5,0.2-0.7,0.4c-0.2,0.3-0.5,0.6-0.7,0.9
			c-0.2,0.3-0.4,0.7-0.5,1c-0.1,0.3-0.2,0.6-0.3,0.7c-0.2,0.5-0.4,1-0.5,1.4c-0.1,0.4-0.3,0.9-0.4,1.4c-0.1,0.5-0.2,0.8-0.2,1
			c-0.1,0.2-0.2,0.3-0.4,0.4c-0.1,0.1-0.3,0-0.7,0C83.7,39.9,83.5,39.8,83.4,39.6z M87.1,41c0.3-0.4,0.6-0.7,0.8-1.1
			c0.2-0.3,0.4-0.7,0.6-1c0.2-0.3,0.3-0.7,0.4-1c0.1-0.3,0.2-0.7,0.3-1.1c0-0.1-0.1,0-0.3,0.2c-0.3,0.2-0.6,0.5-0.9,0.9
			c-0.4,0.4-0.7,0.8-1.1,1.3c-0.4,0.5-0.6,0.9-0.8,1.4c-0.2,0.4-0.2,0.7-0.2,0.8c0,0.2,0.1,0.3,0.2,0.3c0.1,0,0.3,0,0.5-0.1
			C86.7,41.4,86.9,41.2,87.1,41z"/>
		<path d="M96,40.5c-0.6-0.2-1.1-0.5-1.5-1c-0.5-0.5-0.8-1.1-0.9-1.9c-0.1-0.6-0.2-1.2-0.1-1.8c0.1-0.6,0.2-1.2,0.5-1.8
			c0.2-0.6,0.5-1.1,0.9-1.6c0.4-0.5,0.8-0.9,1.3-1.2c0.4-0.3,0.7-0.5,1.2-0.6c0.4-0.2,0.9-0.2,1.3-0.2c0.5,0,0.8,0.1,1,0.3
			c0.2,0.2,0.3,0.5,0.3,0.8c0,0.3-0.1,0.7-0.3,1.1c-0.2,0.4-0.4,0.7-0.7,1c-0.3,0.4-0.7,0.8-1.1,1.2c-0.4,0.4-0.9,0.8-1.3,1
			C96.4,36,96.3,36,96.2,36c-0.1,0-0.2,0-0.4,0.1c0,0,0.1-0.1,0.1-0.3c0-0.2,0.1-0.3,0.3-0.3c0.3-0.1,0.7-0.3,1.2-0.7
			c0.5-0.4,0.9-0.8,1.2-1.3c0.3-0.4,0.5-0.7,0.6-1.1c0.2-0.3,0.2-0.6,0.3-0.9c0-0.2,0-0.4-0.1-0.5c-0.1-0.1-0.3,0-0.6,0.2
			c-0.5,0.3-0.9,0.7-1.3,1.3c-0.4,0.6-0.7,1.3-1,2c-0.3,0.7-0.4,1.5-0.5,2.2c-0.1,0.7-0.1,1.4,0.1,1.9c0.2,0.7,0.4,1.1,0.8,1.2
			c0.3,0.2,0.7,0.2,1,0.1c0.4-0.1,0.7-0.4,1.1-0.7c0.4-0.4,0.7-0.7,1-1.1c0.3-0.4,0.5-0.8,0.8-1.1c0.2-0.4,0.5-0.7,0.7-1.1
			c0.2-0.4,0.5-0.8,0.7-1.2c0.2-0.4,0.5-0.9,0.7-1.5c0.1-0.3,0.2-0.5,0.4-0.5c0.1-0.1,0.2-0.1,0.2-0.1c0.1,0,0.1,0.1,0.1,0.2
			c0,0.2-0.1,0.3-0.2,0.5c-0.4,0.9-0.9,1.8-1.3,2.7c-0.4,0.9-1,1.8-1.7,2.7c-0.6,0.8-1.2,1.4-1.9,1.8C97.8,40.8,97,40.8,96,40.5z"/>
		<path d="M102.5,32c0.1-0.7,0.1-1.5,0.2-2.5c0.1-1,0.3-1.9,0.5-2.9c0.2-1,0.6-1.8,1-2.7c0.4-0.8,0.9-1.5,1.6-1.9
			c0.3-0.2,0.6-0.3,0.9-0.2c0.3,0.1,0.5,0.3,0.7,0.7c0.1,0.5,0.1,1.1,0,1.7c-0.1,0.6-0.2,1.3-0.3,1.9c-0.1,0.7-0.3,1.3-0.5,1.9
			c-0.2,0.6-0.4,1.2-0.7,1.7c-0.1,0.1-0.1,0.2-0.1,0.1c0-0.1,0-0.1,0,0c-0.1,0.9-0.2,1.9-0.3,3.1c-0.1,1.2-0.2,2.3-0.2,3.3
			c0,1-0.1,1.9-0.1,2.7s0,1.1,0.1,1.1c0.1,0.1,0.4,0,0.7-0.4c0.3-0.4,0.7-0.8,1-1.4c0.1-0.2,0.3-0.5,0.5-1c0.2-0.4,0.4-0.9,0.7-1.4
			c0.2-0.5,0.5-1,0.7-1.5c0.2-0.5,0.4-1,0.5-1.4c0.1-0.3,0.1-0.4,0.2-0.5c0.1-0.1,0.1-0.2,0.1-0.2c0,0,0.1,0,0.1,0
			c0,0,0.1,0.1,0.1,0.1c0.1,0.1,0,0.4-0.2,1c-0.2,0.6-0.5,1.3-0.8,2c-0.3,0.8-0.7,1.5-1,2.2c-0.3,0.7-0.6,1.2-0.8,1.5
			c-0.3,0.5-0.6,0.8-0.8,1.1c-0.2,0.3-0.5,0.4-0.7,0.5c-0.2,0.1-0.4,0.1-0.6,0.1c-0.2,0-0.4-0.1-0.5-0.2c-0.4-0.2-0.7-0.4-1-0.8
			c-0.3-0.4-0.5-0.9-0.7-1.6c-0.2-0.7-0.3-1.5-0.4-2.6C102.4,34.8,102.4,33.5,102.5,32z M106.9,22.6c-0.1,0-0.1,0.3-0.2,0.7
			c-0.1,0.5-0.2,1-0.3,1.6c-0.1,0.6-0.2,1.3-0.3,1.9c-0.1,0.6-0.1,1.1-0.1,1.5c0,0.1,0,0.1,0,0.1c0,0,0,0,0.1-0.2
			c0.2-0.8,0.4-1.4,0.5-2c0.1-0.6,0.2-1.1,0.3-1.5c0-0.5,0.1-0.8,0.1-1.2C106.9,23.3,106.9,22.9,106.9,22.6z"/>
		<path d="M109.2,31.6c0.2-0.7,0.8-1,1.8-0.8c0.6,0.1,1,0.3,1.2,0.6c0.2,0.3,0.2,0.5,0.2,0.8c-0.1,0.2-0.1,0.6-0.2,1.1
			c-0.1,0.5-0.1,1.1-0.1,1.8c0,0.7-0.1,1.3-0.1,2c0,0.7,0,1.3,0,1.9c0,0.5,0.1,0.7,0.2,0.7c0.1,0.1,0.3,0,0.5-0.2
			c0.2-0.2,0.5-0.5,0.8-1c0.3-0.5,0.7-1.2,1.1-2.1c0.4-0.9,0.8-2,1.3-3.4c0.1-0.3,0.2-0.5,0.3-0.5c0.1,0,0.2,0,0.2,0
			c0,0,0,0.1,0,0.1c0,0,0,0.1-0.1,0.3c0,0.2-0.1,0.4-0.2,0.7c-0.1,0.3-0.2,0.8-0.4,1.3c-0.4,1.2-0.7,2.2-1.1,2.9
			c-0.3,0.7-0.6,1.3-0.9,1.7c-0.3,0.4-0.6,0.6-0.9,0.7c-0.3,0.1-0.6,0.2-0.9,0.2c-0.9,0-1.6-0.4-2.1-1.2c-0.6-0.8-0.8-1.9-0.9-3.4
			c0-1,0-1.9,0.1-2.6C109,32.5,109.1,32,109.2,31.6z M110.3,29.5c-0.2-0.1-0.3-0.5-0.2-1.2c0.1-0.4,0.1-0.7,0.3-0.8
			c0.1-0.1,0.3-0.2,0.6-0.2h0.4c0.4,0,0.7,0.1,0.9,0.4c0.2,0.3,0.2,0.7,0,1.2c0,0.2-0.1,0.3-0.1,0.3c-0.1,0.1-0.1,0.1-0.2,0.2
			c-0.2,0.1-0.5,0.2-0.8,0.2C110.7,29.7,110.5,29.6,110.3,29.5z"/>
		<path d="M117.4,40.5c-0.6-0.2-1.1-0.5-1.5-1c-0.5-0.5-0.8-1.1-0.9-1.9c-0.1-0.6-0.2-1.2-0.1-1.8c0.1-0.6,0.2-1.2,0.5-1.8
			c0.2-0.6,0.5-1.1,0.9-1.6c0.4-0.5,0.8-0.9,1.3-1.2c0.4-0.3,0.7-0.5,1.2-0.6c0.4-0.2,0.9-0.2,1.3-0.2c0.5,0,0.8,0.1,1,0.3
			c0.2,0.2,0.3,0.5,0.3,0.8c0,0.3-0.1,0.7-0.3,1.1c-0.2,0.4-0.4,0.7-0.7,1c-0.3,0.4-0.7,0.8-1.1,1.2c-0.4,0.4-0.9,0.8-1.3,1
			c-0.1,0.1-0.2,0.1-0.3,0.1c-0.1,0-0.2,0-0.4,0.1c0,0,0.1-0.1,0.1-0.3c0-0.2,0.1-0.3,0.3-0.3c0.3-0.1,0.7-0.3,1.2-0.7
			c0.5-0.4,0.9-0.8,1.2-1.3c0.3-0.4,0.5-0.7,0.6-1.1c0.2-0.3,0.2-0.6,0.3-0.9c0-0.2,0-0.4-0.1-0.5s-0.3,0-0.6,0.2
			c-0.5,0.3-0.9,0.7-1.3,1.3c-0.4,0.6-0.7,1.3-1,2c-0.3,0.7-0.4,1.5-0.5,2.2c-0.1,0.7-0.1,1.4,0.1,1.9c0.2,0.7,0.4,1.1,0.8,1.2
			c0.3,0.2,0.7,0.2,1,0.1c0.4-0.1,0.7-0.4,1.1-0.7c0.4-0.4,0.7-0.7,1-1.1c0.3-0.4,0.5-0.8,0.8-1.1c0.2-0.4,0.5-0.7,0.7-1.1
			c0.2-0.4,0.5-0.8,0.7-1.2c0.2-0.4,0.5-0.9,0.7-1.5c0.1-0.3,0.2-0.5,0.4-0.5c0.1-0.1,0.2-0.1,0.2-0.1c0.1,0,0.1,0.1,0.1,0.2
			c0,0.2-0.1,0.3-0.2,0.5c-0.4,0.9-0.9,1.8-1.3,2.7c-0.4,0.9-1,1.8-1.7,2.7c-0.6,0.8-1.2,1.4-1.9,1.8
			C119.2,40.8,118.4,40.8,117.4,40.5z"/>
		<path d="M124.9,39.1c-0.2-0.3-0.4-0.5-0.5-0.8c-0.1-0.3-0.3-0.8-0.4-1.6c-0.1-0.6-0.2-1.1-0.2-1.7c0-0.6,0-1.2,0-1.9
			c0-0.2,0.1-0.5,0.1-0.8c0-0.3,0.1-0.6,0.2-0.8c0.1-0.2,0.3-0.4,0.5-0.6c0.2-0.2,0.5-0.2,0.9-0.2c0.4,0,0.7,0.1,1.1,0.3
			c0.3,0.2,0.5,0.4,0.5,0.6c-0.2,1.6-0.3,3-0.3,4.4c0,1.3,0.2,2.4,0.4,3.2c0,0.1,0.2-0.1,0.5-0.4c0.3-0.3,0.5-0.7,0.7-1.1
			c0.1-0.2,0.2-0.4,0.3-0.7c0.1-0.3,0.2-0.6,0.3-0.8c0.1-0.3,0.2-0.5,0.3-0.8c0.1-0.3,0.1-0.4,0.1-0.5c0,0-0.1-0.2-0.2-0.5
			c-0.1-0.2-0.2-0.4-0.3-0.7c-0.1-0.3-0.1-0.6-0.2-0.9c0-0.3,0-0.6,0-0.9c0.1-0.3,0.2-0.5,0.3-0.7c0.2-0.3,0.4-0.4,0.6-0.5
			c0.1,0,0.1,0,0.1,0c0,0,0.1,0,0.1,0c0.4,0.1,0.5,0.9,0.2,2.6l-0.2,1.1l0.2,0.2c0.3,0.4,0.6,0.5,1,0.5c0.3,0,0.6-0.1,0.9-0.2
			c0.3-0.2,0.5-0.4,0.8-0.7c0.2-0.3,0.4-0.6,0.6-0.9c0.1-0.2,0.2-0.2,0.3-0.2c0.1,0,0.2,0,0.2,0c0,0,0,0.1-0.1,0.2
			c-0.1,0.2-0.2,0.3-0.3,0.5c-0.1,0.2-0.3,0.4-0.5,0.7c-0.2,0.2-0.4,0.4-0.6,0.6c-0.4,0.3-0.8,0.5-1.2,0.4c-0.4-0.1-0.9-0.2-1.4-0.4
			c0,0.1,0,0.2-0.1,0.3c-0.1,0.2-0.2,0.4-0.2,0.7c-0.3,1.3-0.7,2.3-1.1,3c-0.4,0.7-0.9,1.1-1.3,1c-0.1,0-0.1,0-0.3,0
			c-0.1,0-0.3,0-0.4-0.1C125.8,40.1,125.3,39.7,124.9,39.1z M129.8,31.3c-0.1,0.1-0.1,0.3-0.1,0.5c0,0.2,0,0.5,0,0.7
			c0,0.2,0,0.4,0.1,0.6c0,0.2,0.1,0.3,0.1,0.3c0-0.1,0.1-0.2,0.1-0.3c0-0.1,0-0.2,0-0.3c0-0.1,0-0.3,0-0.4c0.1-0.9,0-1.3-0.1-1.2
			C129.8,31.1,129.8,31.2,129.8,31.3z"/>
		<path d="M135.1,40.5c-0.6-0.2-1.1-0.5-1.5-1c-0.5-0.5-0.8-1.1-0.9-1.9c-0.1-0.6-0.2-1.2-0.1-1.8c0.1-0.6,0.2-1.2,0.5-1.8
			c0.2-0.6,0.5-1.1,0.9-1.6c0.4-0.5,0.8-0.9,1.3-1.2c0.4-0.3,0.7-0.5,1.2-0.6c0.4-0.2,0.9-0.2,1.3-0.2c0.5,0,0.8,0.1,1,0.3
			c0.2,0.2,0.3,0.5,0.3,0.8c0,0.3-0.1,0.7-0.3,1.1c-0.2,0.4-0.4,0.7-0.7,1c-0.3,0.4-0.7,0.8-1.1,1.2c-0.4,0.4-0.9,0.8-1.3,1
			c-0.1,0.1-0.2,0.1-0.3,0.1c-0.1,0-0.2,0-0.4,0.1c0,0,0.1-0.1,0.1-0.3c0-0.2,0.1-0.3,0.3-0.3c0.3-0.1,0.7-0.3,1.2-0.7
			c0.5-0.4,0.9-0.8,1.2-1.3c0.3-0.4,0.5-0.7,0.6-1.1c0.2-0.3,0.2-0.6,0.3-0.9c0-0.2,0-0.4-0.1-0.5c-0.1-0.1-0.3,0-0.6,0.2
			c-0.5,0.3-0.9,0.7-1.3,1.3c-0.4,0.6-0.7,1.3-1,2c-0.3,0.7-0.4,1.5-0.5,2.2c-0.1,0.7-0.1,1.4,0.1,1.9c0.2,0.7,0.4,1.1,0.8,1.2
			c0.3,0.2,0.7,0.2,1,0.1c0.4-0.1,0.7-0.4,1.1-0.7c0.4-0.4,0.7-0.7,1-1.1c0.3-0.4,0.5-0.8,0.8-1.1c0.2-0.4,0.5-0.7,0.7-1.1
			c0.2-0.4,0.5-0.8,0.7-1.2c0.2-0.4,0.5-0.9,0.7-1.5c0.1-0.3,0.2-0.5,0.4-0.5c0.1-0.1,0.2-0.1,0.2-0.1c0.1,0,0.1,0.1,0.1,0.2
			c0,0.2-0.1,0.3-0.2,0.5c-0.4,0.9-0.9,1.8-1.3,2.7c-0.4,0.9-1,1.8-1.7,2.7c-0.6,0.8-1.2,1.4-1.9,1.8
			C137,40.8,136.1,40.8,135.1,40.5z"/>
		<path d="M68.8,59c-0.1-0.5,0-0.9,0.1-1.1c0.1-0.2,0.3-0.3,0.5-0.4c0.2-0.1,0.4-0.1,0.6-0.1c0.3,0,0.5,0,0.8,0.1
			c0.3,0.1,0.5,0.2,0.7,0.3c0.2,0.1,0.3,0.3,0.4,0.4c0,0.2,0.1,0.5,0.1,0.9c0,0.4,0,0.8,0,1.3c0,0.5,0,1,0,1.6c0,0.6,0,1.1,0,1.6v0
			l0.6-0.8c0.9-1,1.6-1.8,2-2.4c0.5-0.6,0.8-0.8,0.9-0.8c0,0,0,0,0,0.1c0,0-0.1,0.1-0.3,0.3c-0.2,0.2-0.4,0.5-0.6,0.8
			c-0.3,0.3-0.5,0.7-0.8,1.1c-0.3,0.4-0.6,0.8-0.9,1.2l-0.9,1.2l-0.1,1.3c-0.2,2-0.5,3.8-1,5.3c-0.5,1.5-1.1,2.8-1.8,3.8
			c-0.7,1-1.4,1.8-2.2,2.3c-0.8,0.5-1.5,0.7-2.2,0.6c-0.4-0.1-0.6-0.3-0.7-0.6c-0.1-0.4-0.2-0.7-0.1-1.1c0.1-0.4,0.2-0.8,0.3-1.2
			c0.2-0.4,0.4-0.9,0.6-1.4c0.3-0.5,0.6-1.1,1-1.7c0.4-0.6,0.9-1.3,1.5-2.1c0.3-0.4,0.5-0.7,0.6-0.9c0.2-0.3,0.3-0.5,0.4-0.6
			c0.1-0.2,0.2-0.3,0.2-0.4c0.1-0.1,0.1-0.2,0.1-0.3c0-0.1,0-0.5,0-1.1c0-0.6,0.1-1.2,0.1-1.9c0-0.3,0-0.5,0-0.8c0-0.2,0-0.5,0-0.7
			c-0.2,0.6-0.4,1.1-0.6,1.6c-0.2,0.5-0.5,1-0.8,1.4c-0.3,0.4-0.6,0.7-0.8,1c-0.3,0.3-0.6,0.4-0.9,0.4c-0.7,0-1.2-0.3-1.6-0.9
			c-0.4-0.6-0.6-1.7-0.6-3.4c0-0.2,0-0.3,0-0.4c0-0.1,0-0.2,0-0.2s0-0.2,0-0.3c0-0.1,0-0.3,0.1-0.6l0.2-3.6c0.2-0.1,0.3-0.1,0.3-0.1
			c0,0,0.1,0,0.2,0c0.3,0,0.6,0,0.8,0c0.3,0,0.5,0.2,0.7,0.4c0.2,0.2,0.4,0.5,0.5,0.9c0.1,0.4,0.2,0.9,0.2,1.6c0,0.3,0,0.6-0.1,1.1
			c-0.1,0.5-0.2,1-0.2,1.5c-0.1,0.5-0.2,1-0.2,1.5c-0.1,0.5-0.1,0.9-0.2,1.2c-0.1,0.5,0,0.8,0.2,0.8c0.2,0,0.4-0.1,0.7-0.4
			c0.2-0.2,0.3-0.4,0.5-0.7c0.2-0.3,0.4-0.6,0.6-1c0.2-0.4,0.4-0.9,0.6-1.5c0.2-0.6,0.4-1.3,0.6-2.1V59z M68.2,68.8
			c0,0-0.1,0-0.2,0.1c-0.1,0.1-0.2,0.3-0.4,0.5c-0.2,0.2-0.3,0.4-0.5,0.7c-0.2,0.3-0.4,0.6-0.5,0.9c-0.7,1.2-1.3,2.3-1.8,3.2
			c-0.5,0.9-0.7,1.8-0.6,2.5c0,0.1,0.1,0.2,0.2,0.3c0.1,0.1,0.2,0.1,0.2,0.1c0.2,0,0.5-0.2,0.8-0.6c0.3-0.4,0.7-0.9,1-1.7
			c0.4-0.7,0.7-1.6,1-2.6C67.8,71.2,68.1,70.1,68.2,68.8z"/>
		<path d="M74.1,63.5c0-0.8,0-1.6,0.2-2.4c0.2-0.8,0.4-1.4,0.7-2c0.3-0.6,0.7-1,1.1-1.4c0.4-0.3,0.9-0.5,1.3-0.5
			c0.1,0,0.2,0,0.4,0.1c0.2,0.1,0.3,0.1,0.5,0.2c0.2,0.1,0.3,0.2,0.5,0.3c0.1,0.1,0.2,0.3,0.2,0.5c0,0,0,0.1-0.1,0.2
			c-0.1,0.1-0.1,0.2-0.1,0.2c0.1-0.1,0.1-0.2,0.2-0.3c0.1-0.1,0.2-0.1,0.3-0.1c0.5,0,0.9,0.4,1.2,1.1c0.3,0.7,0.4,1.6,0.4,2.5
			c0.3-0.1,0.6-0.2,1-0.4c0.3-0.2,0.6-0.4,0.9-0.7c0.3-0.3,0.5-0.5,0.7-0.8c0.2-0.3,0.4-0.5,0.5-0.8c0,0,0,0,0,0.1
			c0,0.3-0.1,0.6-0.3,1c-0.2,0.3-0.5,0.7-0.8,0.9c-0.3,0.3-0.7,0.5-1,0.7c-0.4,0.2-0.7,0.3-1,0.3c-0.1,0-0.1,0,0,0c0,0,0.1,0,0.1,0
			c0,0.4-0.1,0.8-0.2,1.4c-0.1,0.6-0.3,1.2-0.6,1.8c-0.3,0.6-0.6,1.1-1.1,1.5c-0.4,0.4-1,0.7-1.6,0.7c-1,0-1.8-0.4-2.4-1.3
			C74.4,65.7,74.1,64.7,74.1,63.5z M77.6,60.2c-0.2,0.3-0.3,0.7-0.4,1.1c-0.1,0.4-0.2,0.8-0.3,1.3c-0.1,0.4-0.2,0.9-0.2,1.3
			c0,0.4-0.1,0.8-0.1,1.1c0,0.7,0.1,1.2,0.3,1.7c0.2,0.5,0.5,0.7,0.8,0.7c0.3,0,0.5-0.1,0.8-0.4c0.3-0.3,0.6-0.7,0.8-1.1
			c0.3-0.5,0.5-1,0.6-1.6c0.2-0.6,0.2-1.2,0.2-1.7c0,0-0.1,0-0.3,0c-0.2,0-0.4,0-0.7-0.1c-0.3-0.1-0.5-0.3-0.8-0.5
			c-0.3-0.2-0.5-0.6-0.7-1.1l0-0.5H77.6z M78.7,59.4c-0.1,0.2-0.2,0.4-0.2,0.7c0,0.5,0.2,1,0.5,1.4c0.3,0.4,0.6,0.6,1,0.6h0.1h0.2
			c0.1-1,0.1-1.8-0.2-2.3c-0.2-0.5-0.4-0.8-0.6-0.8C79.1,58.8,78.8,59,78.7,59.4z"/>
		<path d="M85.8,66.5c0.1,0.1,0.3,0,0.4-0.1c0.2-0.1,0.3-0.3,0.5-0.5c0.2-0.2,0.3-0.5,0.5-0.7c0.1-0.3,0.2-0.4,0.3-0.6
			c0.3-0.6,0.4-1.1,0.6-1.5c0.1-0.4,0.2-0.9,0.3-1.3c0.1-0.7,0.2-1.4,0.4-2.1c0.2-0.7,0.4-1.1,0.6-1.4c0.1-0.1,0.3-0.2,0.5-0.3
			c0.2,0,0.4-0.1,0.7-0.1c0.2,0,0.4,0.1,0.6,0.1c0.2,0.1,0.3,0.2,0.5,0.3c0.1,0.1,0.2,0.2,0.2,0.3c0.1,0.1,0.1,0.3,0,0.7
			c-0.1,1.1-0.2,2.2-0.3,3.3c-0.1,1.1-0.2,2.2-0.2,3.4c0,0.6,0,0.9,0,1.1c0.1,0.2,0.1,0.2,0.2,0.1c0.1-0.1,0.2-0.3,0.4-0.5
			c0.1-0.3,0.3-0.5,0.4-0.8c0.1-0.2,0.2-0.4,0.4-0.7c0.2-0.3,0.3-0.6,0.4-1c0.2-0.3,0.3-0.7,0.5-1.1c0.2-0.5,0.4-0.9,0.6-1.4
			c0.2-0.4,0.4-0.8,0.5-1.1c0.1-0.3,0.2-0.5,0.2-0.5c0-0.1,0-0.2,0.1-0.2c0.1,0,0.1,0,0.2,0c0,0,0,0,0.1,0.1c0,0,0,0.1,0,0.1
			c0,0.1-0.1,0.2-0.1,0.4c-0.1,0.2-0.1,0.4-0.2,0.7c-0.1,0.3-0.3,0.7-0.5,1.1c-0.2,0.5-0.4,1-0.6,1.5c-0.2,0.5-0.4,0.9-0.6,1.4
			c-0.2,0.4-0.3,0.7-0.4,0.9c-0.2,0.4-0.4,0.7-0.6,1c-0.2,0.3-0.4,0.5-0.6,0.6c-0.4,0.2-0.9,0.3-1.4,0.1c-0.5-0.2-1-0.6-1.3-1.3
			c-0.4-0.6-0.6-1.4-0.7-2.4l0-0.7l0.1,0c-0.4,0.8-0.6,1.5-0.8,1.9c-0.2,0.4-0.4,0.8-0.6,1c-0.3,0.4-0.7,0.6-1.1,0.7
			c-0.4,0.1-0.8,0.1-1.2,0c-0.2-0.1-0.5-0.3-0.8-0.5c-0.3-0.3-0.5-0.6-0.6-0.9c-0.1-0.2-0.1-0.4-0.1-0.7c0-0.2-0.1-0.6-0.1-1.2
			c0-0.4,0-0.9,0.1-1.3c0-0.4,0.1-0.9,0.1-1.3c0.1-0.4,0.1-0.8,0.1-1.2c0-0.5,0.1-0.8,0.1-1.1c0.1-0.8,0.2-1.2,0.3-1.2
			c0.2-0.1,0.5-0.1,0.9,0c0.5,0.2,0.9,0.5,1.2,0.9c0.3,0.5,0.5,1.2,0.4,2.2c-0.1,0.6-0.1,1.1-0.3,1.8c-0.1,0.6-0.3,1.2-0.4,1.8
			c-0.1,0.6-0.2,1-0.2,1.4C85.5,66.2,85.6,66.5,85.8,66.5z"/>
		<path d="M98.8,48.4c0.3,0.1,0.4,0.4,0.5,0.7c0,0.4,0,0.8-0.2,1.2c-0.2,0.5-0.4,0.7-0.5,0.8c-0.1,0.1-0.3,0.1-0.4,0
			c-0.1,0-0.1,0-0.1-0.1c0,0,0-0.1,0-0.1c0-0.1,0-0.2,0-0.4c0-0.2,0-0.4,0-0.8c0-0.3,0-0.6,0-0.7c0-0.1,0-0.3-0.1-0.4
			C98,48.6,98,48.5,98,48.4s0-0.1,0.1-0.1s0.2-0.1,0.3-0.1C98.5,48.2,98.7,48.3,98.8,48.4z"/>
		<path d="M104.4,59.5c-0.1,0.1-0.2,0.1-0.3,0.1c-0.1,0-0.2,0-0.4,0c-0.8,0-1.3-0.2-1.7-0.7c-0.4-0.4-0.6-1-0.6-1.7
			c0-0.5,0.1-1,0.3-1.3c0.2-0.4,0.3-0.7,0.6-0.9c0.2-0.2,0.5-0.4,0.7-0.5c0.3-0.1,0.5-0.2,0.7-0.2c0.4,0,0.6,0.1,0.8,0.4
			c0.1,0.3,0.2,0.6,0.2,1c0,0.3-0.1,0.6-0.2,1c-0.1,0.4-0.2,0.7-0.4,1.1c-0.1,0.3-0.2,0.6-0.3,0.9c-0.1,0.2-0.2,0.3-0.2,0.3
			c0,0.1,0.1,0.1,0.2,0.1c0.3,0,0.5-0.1,0.7-0.2c0.2-0.1,0.5-0.2,0.7-0.4c0.2-0.1,0.5-0.2,0.7-0.4c0.2-0.1,0.4-0.2,0.7-0.2
			c0.5,0,0.8,0.1,1.1,0.3c0.3,0.2,0.4,0.4,0.4,0.7c0,0.1-0.1,0.5-0.2,1.2c-0.1,0.7-0.2,1.5-0.3,2.3c-0.1,0.9-0.2,1.7-0.3,2.6
			c-0.1,0.9-0.1,1.6-0.1,2.1c0,0.5,0,0.7,0.1,0.7c0.2,0,0.3-0.1,0.6-0.3c0.2-0.2,0.5-0.6,0.8-1.3c0.3-0.6,0.7-1.5,1.2-2.6
			c0.5-1.1,1-2.5,1.7-4.2c0.1-0.3,0.2-0.4,0.4-0.4c0.1,0,0.2,0,0.2,0c-0.1,0.1-0.1,0.3-0.2,0.5c-0.1,0.2-0.2,0.4-0.3,0.8
			c-0.1,0.3-0.3,0.8-0.4,1.4c-0.9,2.4-1.6,4.1-2.3,5.1c-0.7,1-1.3,1.5-1.9,1.5c-0.4,0-0.8-0.2-1.1-0.5c-0.3-0.3-0.6-0.7-0.9-1.2
			c-0.3-0.5-0.4-1-0.6-1.6c-0.1-0.6-0.2-1.2-0.2-1.8c0-0.6,0.1-1.3,0.2-2.1c0.1-0.8,0.3-1.4,0.5-2h-0.2c-0.1,0-0.1,0-0.2,0
			C104.5,59.4,104.4,59.5,104.4,59.5z M103.9,55.4c-0.1,0-0.1,0.2-0.2,0.5c-0.1,0.3-0.2,0.7-0.3,1c-0.1,0.4-0.1,0.7-0.2,1
			c0,0.3,0,0.4,0.1,0.4c0,0,0.1-0.1,0.2-0.3c0.1-0.2,0.2-0.4,0.3-0.7c0.1-0.3,0.1-0.6,0.2-0.9c0-0.3,0-0.6,0-0.9L103.9,55.4
			L103.9,55.4z"/>
		<path d="M112.8,67.3c-0.6-0.2-1.1-0.5-1.5-1c-0.5-0.5-0.8-1.1-0.9-1.9c-0.1-0.6-0.2-1.2-0.1-1.8c0.1-0.6,0.2-1.2,0.5-1.8
			c0.2-0.6,0.5-1.1,0.9-1.6c0.4-0.5,0.8-0.9,1.3-1.2c0.4-0.3,0.7-0.5,1.2-0.6c0.4-0.2,0.9-0.2,1.3-0.2c0.5,0,0.8,0.1,1,0.3
			c0.2,0.2,0.3,0.5,0.3,0.8c0,0.3-0.1,0.7-0.3,1.1c-0.2,0.4-0.4,0.7-0.7,1c-0.3,0.4-0.7,0.8-1.1,1.2c-0.4,0.4-0.9,0.8-1.3,1
			c-0.1,0.1-0.2,0.1-0.3,0.1c-0.1,0-0.2,0-0.4,0.1c0,0,0.1-0.1,0.1-0.3c0-0.2,0.1-0.3,0.3-0.3c0.3-0.1,0.7-0.3,1.2-0.7
			c0.5-0.4,0.9-0.8,1.2-1.3c0.3-0.4,0.5-0.7,0.6-1.1c0.2-0.3,0.2-0.6,0.3-0.9c0-0.2,0-0.4-0.1-0.5c-0.1-0.1-0.3,0-0.6,0.2
			c-0.5,0.3-0.9,0.7-1.3,1.3c-0.4,0.6-0.7,1.3-1,2c-0.3,0.7-0.4,1.5-0.5,2.2c-0.1,0.7-0.1,1.4,0.1,1.9c0.2,0.7,0.4,1.1,0.8,1.2
			c0.3,0.2,0.7,0.2,1,0.1c0.4-0.1,0.7-0.4,1.1-0.7c0.4-0.4,0.7-0.7,1-1.1c0.3-0.4,0.5-0.8,0.8-1.1c0.2-0.4,0.5-0.7,0.7-1.1
			c0.2-0.4,0.5-0.8,0.7-1.2c0.2-0.4,0.5-0.9,0.7-1.5c0.1-0.3,0.2-0.5,0.4-0.5c0.1-0.1,0.2-0.1,0.2-0.1c0.1,0,0.1,0.1,0.1,0.2
			c0,0.2-0.1,0.3-0.2,0.5c-0.4,0.9-0.9,1.8-1.3,2.7c-0.4,0.9-1,1.8-1.7,2.7c-0.6,0.8-1.2,1.4-1.9,1.8
			C114.7,67.6,113.8,67.6,112.8,67.3z"/>
	</g>
	<path d="M165.2,152.3C165.2,152.3,165.2,152.2,165.2,152.3c-5.3-11.6-10.6-23.2-15.9-34.7c5.3-11.5,10.6-23.1,15.9-34.6
		c0,0,0-0.1,0-0.1c0-0.1,0-0.1,0-0.2c0-0.1,0-0.1,0-0.2c0-0.4-0.2-0.9-0.7-0.9c-0.1,0-0.3-0.1-0.4,0c-49.4,0-98.8,0-148.3,0
		c-0.1,0-0.3,0-0.4,0c-0.5,0.1-0.8,0.5-0.7,0.9c0,0.1,0,0.1,0,0.2c0,0.1,0,0.1,0,0.2c0,0,0,0.1,0,0.1c5.3,11.5,10.6,23.1,15.9,34.6
		c-5.3,11.5-10.6,23.1-15.9,34.6c0,0,0,0.1,0,0.1c0,0.1,0,0.1,0,0.2c0,0.1,0,0.1,0,0.2c0,0.4,0.2,0.9,0.7,0.9c0.1,0,0.3,0.1,0.4,0
		c49.4,0,98.8,0,148.3,0c0.1,0,0.3,0,0.4,0c0.5-0.1,0.8-0.5,0.7-0.9c0-0.1,0-0.1,0-0.2C165.2,152.4,165.2,152.3,165.2,152.3z"/>
	<g>
		<path class="st2" d="M48.7,105.1v-1.2h3.2v1.5c0,1.5,0.7,2.1,1.7,2.1s1.7-0.5,1.7-2.1c0-1.8-0.7-2.9-2.8-4.8
			c-2.8-2.5-3.7-4.2-3.7-6.6c0-3.3,1.7-5.3,5-5.3c3.2,0,4.8,1.9,4.8,5.3v0.9h-3.2v-1.1c0-1.5-0.6-2.1-1.7-2.1c-1.1,0-1.7,0.6-1.7,2
			c0,1.5,0.7,2.7,2.9,4.6c2.8,2.5,3.7,4.2,3.7,6.8c0,3.5-1.8,5.4-5,5.4S48.7,108.5,48.7,105.1z"/>
		<path class="st2" d="M60.4,105.1V94c0-3.4,1.8-5.3,5.1-5.3c3.3,0,5.1,1.9,5.1,5.3v11.1c0,3.4-1.8,5.3-5.1,5.3
			C62.2,110.5,60.4,108.5,60.4,105.1z M67.2,105.4V93.8c0-1.5-0.7-2.1-1.7-2.1c-1.1,0-1.7,0.6-1.7,2.1v11.6c0,1.5,0.7,2.1,1.7,2.1
			C66.6,107.4,67.2,106.9,67.2,105.4z"/>
		<path class="st2" d="M73,89h4.8l2.1,15.2h0.1L82,89h4.8v21.2h-3.2V94.1h-0.1l-2.4,16.1h-2.8l-2.4-16.1h-0.1v16.1H73V89z"/>
		<path class="st2" d="M89.4,89h9.1v3h-5.8v5.6h4.6v3h-4.6v6.5h5.8v3h-9.1V89z"/>
		<path class="st2" d="M100.3,105.1V94c0-3.4,1.8-5.3,5.1-5.3c3.3,0,5.1,1.9,5.1,5.3v11.1c0,3.4-1.8,5.3-5.1,5.3
			C102.1,110.5,100.3,108.5,100.3,105.1z M107.1,105.4V93.8c0-1.5-0.7-2.1-1.7-2.1c-1.1,0-1.7,0.6-1.7,2.1v11.6
			c0,1.5,0.7,2.1,1.7,2.1C106.4,107.4,107.1,106.9,107.1,105.4z"/>
		<path class="st2" d="M112.8,89h4.2l3.2,12.7h0.1V89h3v21.2h-3.4l-4-15.5h-0.1v15.5h-3V89z"/>
		<path class="st2" d="M125.9,89h9.1v3h-5.8v5.6h4.6v3h-4.6v6.5h5.8v3h-9.1V89z"/>
		<path class="st2" d="M57.6,141.5v-1.2h3.2v1.5c0,1.5,0.7,2.1,1.7,2.1c1.1,0,1.7-0.5,1.7-2.1c0-1.8-0.7-2.9-2.8-4.8
			c-2.8-2.5-3.7-4.2-3.7-6.6c0-3.3,1.7-5.3,5-5.3c3.2,0,4.8,1.9,4.8,5.3v0.9h-3.2v-1.1c0-1.5-0.6-2.1-1.7-2.1c-1.1,0-1.7,0.6-1.7,2
			c0,1.5,0.7,2.7,2.9,4.6c2.8,2.5,3.7,4.2,3.7,6.8c0,3.5-1.8,5.4-5,5.4C59.2,146.8,57.6,144.9,57.6,141.5z"/>
		<path class="st2" d="M69.6,125.3h4.9c3.3,0,5,1.8,5,5.2v2.1c0,3.4-1.6,5.2-5,5.2h-1.6v8.6h-3.3V125.3z M74.5,134.9
			c1.1,0,1.6-0.5,1.6-2v-2.5c0-1.5-0.6-2-1.6-2h-1.6v6.5H74.5z"/>
		<path class="st2" d="M81.4,125.3h9.1v3h-5.8v5.6h4.6v3h-4.6v6.5h5.8v3h-9.1V125.3z"/>
		<path class="st2" d="M92.4,141.6v-11.4c0-3.3,1.7-5.2,4.9-5.2c3.2,0,4.9,1.9,4.9,5.2v2.2H99V130c0-1.4-0.7-2-1.7-2
			c-1,0-1.7,0.6-1.7,2v11.8c0,1.4,0.7,1.9,1.7,1.9c1,0,1.7-0.5,1.7-1.9v-3.2h3.2v3c0,3.3-1.7,5.2-4.9,5.2
			C94.1,146.8,92.4,144.9,92.4,141.6z"/>
		<path class="st2" d="M104.3,125.3h3.3v21.2h-3.3V125.3z"/>
		<path class="st2" d="M112.9,125.3h4.5l3.5,21.2h-3.3l-0.6-4.2v0.1h-3.8l-0.6,4.2h-3.1L112.9,125.3z M116.5,139.5L115,129H115
			l-1.5,10.5H116.5z"/>
		<path class="st2" d="M122.6,125.3h3.3v18.2h5.5v3h-8.8V125.3z"/>
	</g>
</g>
</svg>
