<?xml version="1.0" encoding="utf-8"?>
<!-- Generator: Adobe Illustrator 25.2.1, SVG Export Plug-In . SVG Version: 6.00 Build 0)  -->
<svg version="1.1" id="Layer_1" xmlns="http://www.w3.org/2000/svg" xmlns:xlink="http://www.w3.org/1999/xlink" x="0px" y="0px"
	 viewBox="0 0 180 107.4" style="enable-background:new 0 0 180 107.4;" xml:space="preserve">
<style type="text/css">
	.st0{stroke:#000000;stroke-width:0.5;}
	.st1{fill:none;stroke:#000000;stroke-width:2;}
	.st2{fill:#FFFFFF;}
	.st3{fill:none;stroke:#000000;stroke-width:0.75;}
	.st4{fill:none;}
	.st5{fill:#010101;}
	.st6{fill:none;stroke:#010101;stroke-width:0.5;stroke-miterlimit:10;}
</style>
<g>
	<path class="st0" d="M13.8,73.6h147.1c6.3,0,11.4,5.1,11.4,11.4v22.4H25.2c-6.3,0-11.4-5.1-11.4-11.4V73.6z"/>
	<path class="st1" d="M0,37.6h168.6c6.3,0,11.4,5.1,11.4,11.4v22.4H11.4C5.1,71.4,0,66.3,0,59.9V37.6z"/>
	<path class="st1" d="M0,0h168.6c6.3,0,11.4,5.1,11.4,11.4v22.4H11.4C5.1,33.8,0,28.7,0,22.4V0z"/>
	<g>
		<path class="st0" d="M19.5,22.2c0,1.5-1.2,3.7-3.8,3.7c-1.8,0-3.2-0.8-4.1-2.3c-0.7-1.3-1-3-1-5.2c0-3.6,1.3-7.5,5-7.5
			c1.5,0,2.5,0.5,3.2,1.6c0.5,0.9,0.6,1.8,0.6,2.2c0,0.4-0.3,0.6-0.6,0.6c-0.2,0-0.3-0.1-0.4-0.2c-0.1-0.1-0.2-0.3-0.2-0.5
			c0-0.7-0.4-2.6-2.4-2.6c-1.4,0-2.5,2.8-2.5,6.5c0,3.2,0.8,6.5,2.5,6.5c2.2,0,2.7-2.3,2.7-2.7c0-0.2,0-0.3,0.1-0.4
			c0.1-0.1,0.2-0.1,0.3-0.1C19.2,21.7,19.5,21.9,19.5,22.2z"/>
		<path class="st0" d="M31.1,18.4c0,2.3-0.3,4-1,5.2c-0.8,1.5-2.2,2.2-4,2.2c-1.6,0-2.9-0.8-3.8-2.5c-0.8-1.4-1.2-3.2-1.2-5
			c0-2.5,0.5-4.4,1.5-5.7c0.9-1.1,2.1-1.8,3.5-1.8c1.6,0,3,0.8,3.8,2.2C30.6,14.4,31.1,16.2,31.1,18.4z M29.8,18.4
			c0-2.2-0.5-3.9-1.4-5.1c-0.7-0.9-1.6-1.2-2.2-1.2c-1.4,0-2.3,2.6-2.3,6.3c0,3.9,0.8,6,2.3,6C27.8,24.4,29.8,23.4,29.8,18.4z"/>
		<path class="st0" d="M41.4,25.2c-0.2,0.4-1,0.6-1.6,0.6c-0.1,0-0.1,0-0.2,0c-0.6,0-1-0.3-1.1-0.7c-0.2-0.6-3.2-6.8-4.1-8.6
			c-0.1,2.1-0.1,8.2-0.1,8.7c0,0.3-0.1,0.5-0.5,0.6c-0.4,0.1-1.1-0.1-1.2-0.6c-0.1-0.4-0.1-2.4-0.1-4.7c0-3.6,0.1-8.1,0.3-8.9
			c0.1-0.4,0.6-0.5,1-0.5c0.4,0,1,0.1,1.2,0.5c0.1,0.3,1.4,2.7,2.5,5c1.1,2.1,2.1,4,2.6,5c0.2-2.4,0.2-9.2,0.1-9.9
			c0-0.1,0-0.4,0.4-0.5c0.3-0.1,0.9,0,1,0.3C41.9,11.9,41.6,24.8,41.4,25.2z"/>
		<path class="st0" d="M50.9,25c-0.6,0.6-1.5,0.9-2.6,0.9c-1.8,0-3.2-0.8-4.1-2.3c-0.7-1.3-1-3-1-5.2c0-3.6,1.3-7.5,5-7.5
			c1.5,0,2.5,0.5,3.2,1.6c0.5,0.9,0.6,1.8,0.6,2.2c0,0.4-0.3,0.6-0.6,0.6c-0.2,0-0.3-0.1-0.4-0.2c-0.1-0.1-0.2-0.3-0.2-0.5
			c0-0.7-0.4-2.6-2.4-2.6c-1.4,0-2.5,2.8-2.5,6.5c0,2.9,0.7,6.3,2.5,6.3c0.7,0,1.3-0.2,1.7-0.6c0.7-0.7,0.7-2,0.7-2.8c0,0,0,0,0,0
			c-0.1,0-0.3,0-0.4,0c-0.3,0-0.7,0-1.1,0c-0.3,0-0.5-0.2-0.5-0.6c0-0.3,0.1-0.7,0.4-0.7c0.8,0,1.7,0,2.3,0c0.2,0,0.3,0,0.4,0
			c0.1,0,0.2,0.1,0.2,0.2c0,0.1,0,0.2,0,0.4C52,22,52,23.8,50.9,25z"/>
		<path class="st0" d="M61.9,23.2c0,0.3-0.3,0.7-0.9,0.7c-0.5,0-1.5-0.2-2.4-0.7c-0.7-0.4-1.4-1-1.9-1.6c0,1.7-0.1,3.1-0.1,3.5
			c0,0.6-0.8,0.9-1.5,0.9c-0.3,0-0.7-0.1-0.9-0.2c-0.3-0.1-0.5-0.4-0.5-0.6c0-0.4-0.1-3.7-0.2-6.9c-0.1-2.9-0.2-5.6-0.2-5.9
			c0-0.4,0.2-0.8,0.5-1c0.3-0.2,0.7-0.3,1.1-0.3c0.6,0,1.2,0.2,1.5,0.6c0.8-0.5,1.6-0.6,2.1-0.6c0,0,0,0,0,0c0.5,0,1.5,0,2.4,0.4
			c1.1,0.6,1.7,1.6,1.7,3.1c0,2.2-0.5,3.8-1.4,4.7c-0.9,0.9-1.9,0.9-2.5,0.9c-0.1,0-0.1,0-0.2,0c0,0-0.1,0-0.1,0h-1.4
			c0.2,0.3,0.5,0.7,0.9,1c0.8,0.8,1.8,1.5,3,1.5c0.3,0,0.5,0.1,0.6,0.2C61.8,22.8,61.9,23,61.9,23.2z M56.8,12.9
			c0,1-0.1,2.8-0.1,4.8c0,0.4,0,0.8,0,1.3h1.9c1.2,0,1.9-1.5,1.9-4.6c0-1.6-0.6-2.2-1.8-2.2C57.9,12.1,57.3,12.4,56.8,12.9z"/>
		<path class="st0" d="M74.6,19.6c0.1,1.3,0.1,2.9,0,4.6c0,0.2,0,0.3,0,0.4c0,0.8-0.9,1.2-1.8,1.2c-0.4,0-0.8-0.1-1.1-0.3
			c-0.4-0.2-0.5-0.6-0.5-1c0-0.2,0-0.6,0-1.1c0-0.9,0.1-2.3,0.1-3.8h-4.9c-0.1,2.4,0,4.7,0.1,5.4c0,0.3-0.1,0.6-0.3,0.8
			c-0.1,0.1-0.3,0.1-0.4,0.1c-0.1,0-0.2,0-0.3-0.1c-0.1-0.1-0.3-0.2-0.3-0.6c0-0.1,0-0.2,0-0.4c-0.1-0.9-0.2-2.9-0.1-5.2h-0.1
			c-0.3,0-0.5-0.2-0.5-0.6c0-0.3,0.2-0.6,0.5-0.6h0.2c0.2-3,1-5.1,2.1-6.3c0.8-0.8,1.8-1.3,2.9-1.3c0,0,0,0,0,0c1,0,1.8,0.4,2.5,1.1
			c0.9,0.9,1.8,2.8,2.1,6.5h0c0.2,0,0.3,0.1,0.4,0.2c0.1,0.1,0.1,0.2,0.1,0.4C75,19.3,74.8,19.5,74.6,19.6z M71.2,18.5
			c0-2.5-0.3-5.1-1.1-6c-0.2-0.2-0.4-0.3-0.6-0.3c0,0,0,0,0,0c-0.5,0-1,0.2-1.4,0.7c-1,1.1-1.4,3.3-1.7,5.6H71.2z"/>
		<path class="st0" d="M88.9,12c-0.1,0.3-0.4,0.6-0.8,0.6c-0.1,0-0.1,0-0.2,0c-1.2-0.2-2.8-0.4-3.7-0.4c0,0,0,0,0,0.1
			c0,0.4,0,2.8-0.1,5.4c-0.1,3.1-0.1,6.6-0.1,7.3c0,0.6-0.8,0.9-1.5,0.9c-0.3,0-0.7-0.1-0.9-0.2C81.2,25.5,81,25.3,81,25
			c0-0.4-0.1-3.7-0.2-6.9c-0.1-2.9-0.2-5.6-0.2-5.9c0,0,0,0,0-0.1h-3.6c-0.5,0-0.7-0.3-0.7-0.7c0-0.2,0.1-0.3,0.2-0.4
			c0.1-0.1,0.3-0.2,0.5-0.2h7c2.2,0,3.7,0.3,4.2,0.5C88.8,11.4,88.9,11.7,88.9,12z"/>
		<path class="st0" d="M101.7,12.2c0,0.4,0,2.8-0.1,5.4c-0.1,3.1-0.1,6.6-0.1,7.3c0,0.6-0.8,0.9-1.5,0.9c-0.3,0-0.7-0.1-0.9-0.2
			c-0.3-0.1-0.5-0.4-0.5-0.6c0-0.1,0-0.5,0-1.1c-0.2,0.2-0.3,0.4-0.5,0.6c-0.8,0.9-1.8,1.3-3,1.3c0,0,0,0,0,0c-1,0-1.8-0.4-2.5-1.1
			c-1.2-1.3-2.6-4.5-2.1-12.3c0-0.2,0-0.3,0-0.4c0-0.8,0.9-1.2,1.8-1.2c0.4,0,0.8,0.1,1.1,0.3c0.4,0.2,0.5,0.6,0.5,1
			c0,0.2,0,0.6,0,1.1c-0.1,2.6-0.4,9.3,1,10.9c0.2,0.2,0.4,0.3,0.6,0.3c0,0,0,0,0,0c0.6,0,1-0.2,1.5-0.7c0.8-0.9,1.3-2.6,1.5-4.3
			c0-0.5,0-1,0-1.4c-0.1-2.9-0.2-5.6-0.2-5.9c0-0.4,0.2-0.8,0.5-1c0.3-0.2,0.7-0.3,1.1-0.3C100.8,10.9,101.7,11.3,101.7,12.2z"/>
		<path class="st0" d="M112.6,25.1c0,0.2-0.1,0.3-0.2,0.5c-0.1,0.1-0.2,0.2-0.5,0.2h-7.1c0,0,0,0,0,0c-0.3,0-0.6-0.1-0.9-0.2
			c-0.3-0.1-0.5-0.4-0.5-0.6c0-0.4-0.1-3.7-0.2-6.9c-0.1-2.9-0.2-5.6-0.2-5.9c0-0.4,0.2-0.8,0.5-1c0.3-0.2,0.7-0.3,1.1-0.3
			c0.9,0,1.8,0.5,1.8,1.4c0,0.4,0,2.8-0.1,5.4c0,2.6-0.1,5.5-0.1,6.8h5.5C112.3,24.4,112.6,24.8,112.6,25.1z"/>
		<path class="st0" d="M124.4,19.6c0.1,1.3,0.1,2.9,0,4.6c0,0.2,0,0.3,0,0.4c0,0.8-0.9,1.2-1.8,1.2c-0.4,0-0.8-0.1-1.1-0.3
			c-0.4-0.2-0.5-0.6-0.5-1c0-0.2,0-0.6,0-1.1c0-0.9,0.1-2.3,0.1-3.8h-4.9c-0.1,2.4,0,4.7,0.1,5.4c0,0.3-0.1,0.6-0.3,0.8
			c-0.1,0.1-0.3,0.1-0.4,0.1c-0.1,0-0.2,0-0.3-0.1c-0.1-0.1-0.3-0.2-0.3-0.6c0-0.1,0-0.2,0-0.4c-0.1-0.9-0.2-2.9-0.1-5.2h-0.1
			c-0.3,0-0.5-0.2-0.5-0.6c0-0.3,0.2-0.6,0.5-0.6h0.2c0.2-3,1-5.1,2.1-6.3c0.8-0.8,1.8-1.3,2.9-1.3c0,0,0,0,0,0c1,0,1.8,0.4,2.5,1.1
			c0.9,0.9,1.8,2.8,2.1,6.5h0c0.2,0,0.3,0.1,0.4,0.2c0.1,0.1,0.1,0.2,0.1,0.4C124.8,19.3,124.6,19.5,124.4,19.6z M121,18.5
			c0-2.5-0.3-5.1-1.1-6c-0.2-0.2-0.4-0.3-0.6-0.3c0,0,0,0,0,0c-0.5,0-1,0.2-1.4,0.7c-1,1.1-1.4,3.3-1.7,5.6H121z"/>
		<path class="st0" d="M138.7,12c-0.1,0.3-0.4,0.6-0.8,0.6c-0.1,0-0.1,0-0.2,0c-1.2-0.2-2.8-0.4-3.7-0.4c0,0,0,0,0,0.1
			c0,0.4,0,2.8-0.1,5.4c-0.1,3.1-0.1,6.6-0.1,7.3c0,0.6-0.8,0.9-1.5,0.9c-0.3,0-0.7-0.1-0.9-0.2c-0.3-0.1-0.5-0.4-0.5-0.6
			c0-0.4-0.1-3.7-0.2-6.9c-0.1-2.9-0.2-5.6-0.2-5.9c0,0,0,0,0-0.1h-3.6c-0.5,0-0.7-0.3-0.7-0.7c0-0.2,0.1-0.3,0.2-0.4
			c0.1-0.1,0.3-0.2,0.5-0.2h7c2.2,0,3.7,0.3,4.2,0.5C138.6,11.4,138.8,11.7,138.7,12z"/>
		<path class="st0" d="M143.6,12.2c0,0.4,0,2.8-0.1,5.4c-0.1,3.1-0.1,6.6-0.1,7.3c0,0.6-0.8,0.9-1.5,0.9c-0.3,0-0.7-0.1-0.9-0.2
			c-0.3-0.1-0.5-0.4-0.5-0.6c0-0.4-0.1-3.7-0.2-6.9c-0.1-2.9-0.2-5.6-0.2-5.9c0-0.4,0.2-0.8,0.5-1c0.3-0.2,0.7-0.3,1.1-0.3
			C142.7,10.9,143.6,11.3,143.6,12.2z"/>
		<path class="st0" d="M155.1,18.4c0,2.3-0.3,4-1,5.2c-0.8,1.5-2.2,2.2-4,2.2c-1.6,0-2.9-0.8-3.8-2.5c-0.8-1.4-1.2-3.2-1.2-5
			c0-2.5,0.5-4.4,1.5-5.7c0.9-1.1,2.1-1.8,3.5-1.8c1.6,0,3,0.8,3.8,2.2C154.7,14.4,155.1,16.2,155.1,18.4z M153.8,18.4
			c0-2.2-0.5-3.9-1.4-5.1c-0.7-0.9-1.6-1.2-2.2-1.2c-1.4,0-2.3,2.6-2.3,6.3c0,3.9,0.8,6,2.3,6C151.9,24.4,153.8,23.4,153.8,18.4z"/>
		<path class="st0" d="M165.4,25.2c-0.2,0.4-1,0.6-1.6,0.6c-0.1,0-0.1,0-0.2,0c-0.6,0-1-0.3-1.1-0.7c-0.2-0.6-3.2-6.8-4.1-8.6
			c-0.1,2.1-0.1,8.2-0.1,8.7c0,0.3-0.1,0.5-0.5,0.6c-0.4,0.1-1.1-0.1-1.2-0.6c-0.1-0.4-0.1-2.4-0.1-4.7c0-3.6,0.1-8.1,0.3-8.9
			c0.1-0.4,0.6-0.5,1-0.5c0.4,0,1,0.1,1.2,0.5c0.1,0.3,1.4,2.7,2.5,5c1.1,2.1,2.1,4,2.6,5c0.2-2.4,0.2-9.2,0.1-9.9
			c0-0.1,0-0.4,0.4-0.5c0.3-0.1,0.9,0,1,0.3C165.9,11.9,165.6,24.8,165.4,25.2z"/>
		<path class="st0" d="M175.8,22.5c0,2.3-1.8,3.4-5.4,3.4c-2.3,0-3.2-1.7-3.2-3.2c0-0.4,0.3-0.6,0.5-0.6c0.2,0,0.3,0.1,0.4,0.2
			c0.1,0.1,0.2,0.2,0.2,0.5c0,1.4,1,2.1,2,2.1c0.8,0,2.8-0.2,2.8-2.3c0-1.6-1.8-3-3.2-4c-1.2-0.9-2.8-1.9-2.8-4.1
			c0-0.6,0.3-1.5,1-2.2c0.6-0.6,1.7-1.3,3.6-1.3c1.3,0,2.3,0.5,2.9,1.5c0.6,1,0.6,2,0.6,2.2c0,0.3-0.2,0.6-0.6,0.6
			c-0.3,0-0.7-0.2-0.7-0.6c0-0.9-0.7-2.2-2-2.2c-1.1,0-1.8,0.7-1.8,1.9c0,1,0.8,1.7,1.7,2.6c0.1,0.1,0.2,0.2,0.3,0.3
			c0.2,0.1,0.3,0.3,0.5,0.5C174,18.7,175.8,20.2,175.8,22.5z"/>
	</g>
	<g>
		<path class="st0" d="M15.6,49.7c-0.1,0.3-0.3,0.4-0.5,0.4c0,0-0.1,0-0.1,0c-0.9-0.3-1.6-0.4-2-0.4h-1.9c0,0,0,0,0,0.1
			c0,0.4,0,2.8-0.1,5.4c0,0,0,0.1,0,0.1h2.7c0.1,0,0.3,0.1,0.4,0.2c0.1,0.1,0.1,0.2,0.1,0.3c0,0.3-0.2,0.6-0.5,0.6h-2.7
			C11,59.1,11,61.8,11,62.4c0,0.6-0.8,0.9-1.5,0.9c-0.3,0-0.7-0.1-0.9-0.2c-0.3-0.1-0.5-0.4-0.5-0.6c0-0.4-0.1-3.7-0.2-6.9
			c-0.1-2.9-0.2-5.6-0.2-5.9c0-0.4,0.2-0.8,0.5-1c0.3-0.2,0.7-0.3,1.1-0.3c0,0,0,0,0,0c0,0,0,0,0,0h3.7c1.1,0,1.9,0.3,2.3,0.5
			C15.7,48.9,15.8,49.3,15.6,49.7z"/>
		<path class="st0" d="M26.9,55.8c0,2.3-0.3,4-1,5.2c-0.8,1.5-2.2,2.2-4,2.2c-1.6,0-2.9-0.8-3.8-2.5c-0.8-1.4-1.2-3.2-1.2-5
			c0-2.5,0.5-4.4,1.5-5.7c0.9-1.1,2.1-1.8,3.5-1.8c1.6,0,3,0.8,3.8,2.2C26.5,51.9,26.9,53.7,26.9,55.8z M25.6,55.8
			c0-2.2-0.5-3.9-1.4-5.1c-0.7-0.9-1.6-1.2-2.2-1.2c-1.4,0-2.3,2.6-2.3,6.3c0,3.9,0.8,6,2.3,6C23.7,61.9,25.6,60.8,25.6,55.8z"/>
		<path class="st0" d="M36.8,60.6c0,0.3-0.3,0.7-0.9,0.7c-0.5,0-1.5-0.2-2.4-0.7c-0.7-0.4-1.4-1-1.9-1.6c0,1.7-0.1,3.1-0.1,3.5
			c0,0.6-0.8,0.9-1.5,0.9c-0.3,0-0.7-0.1-0.9-0.2c-0.3-0.1-0.5-0.4-0.5-0.6c0-0.4-0.1-3.7-0.2-6.9c-0.1-2.9-0.2-5.6-0.2-5.9
			c0-0.4,0.2-0.8,0.5-1c0.3-0.2,0.7-0.3,1.1-0.3c0.6,0,1.2,0.2,1.5,0.6c0.8-0.5,1.6-0.6,2.1-0.6c0,0,0,0,0,0c0.5,0,1.5,0,2.4,0.4
			c1.1,0.5,1.7,1.6,1.7,3.1c0,2.2-0.5,3.8-1.4,4.7c-0.9,0.9-1.9,0.9-2.5,0.9c-0.1,0-0.1,0-0.2,0c0,0-0.1,0-0.1,0h-1.4
			c0.2,0.3,0.5,0.7,0.9,1c0.8,0.8,1.8,1.5,3,1.5c0.3,0,0.5,0.1,0.6,0.2C36.7,60.3,36.8,60.4,36.8,60.6z M31.7,50.4
			c0,1-0.1,2.8-0.1,4.8c0,0.4,0,0.8,0,1.3h1.9c1.2,0,1.9-1.5,1.9-4.6c0-1.6-0.6-2.2-1.8-2.2C32.8,49.5,32.2,49.9,31.7,50.4z"/>
		<path class="st0" d="M55.1,58.7c0,1.4-0.6,2.6-1.8,3.4c-1,0.7-2.4,1.1-3.8,1.1h-1.7c-0.1,0-0.2,0-0.3,0c-0.3,0-0.7-0.1-0.9-0.2
			c-0.3-0.1-0.5-0.4-0.5-0.6c0-0.4-0.1-3.7-0.2-6.9c-0.1-2.9-0.2-5.6-0.2-5.9c0-0.4,0.2-0.8,0.5-1c0.3-0.2,0.7-0.3,1.1-0.3
			c0.8,0,1.6,0.4,1.7,1.1c0.5-0.2,1-0.3,1.7-0.3c2.6,0,3.5,1.8,3.5,3.4c0,1.6-0.8,2.4-1.4,2.7C53.8,55.4,55.1,56.1,55.1,58.7z
			 M49,61.8c0.1,0,0.3,0,0.4,0c1.2,0,4.1-0.3,4.1-3.1c0-1.8-1-2.8-2.7-2.8c-0.2,0-0.7,0-1.3,0c-0.1,0-0.3,0-0.4,0
			C49.1,58.2,49,60.7,49,61.8z M53,52.4c0-0.9-0.4-1.9-2.3-1.9c-0.6,0-1.1,0.2-1.5,0.4c0,0.9,0,2.2-0.1,3.6h1.6
			C52.2,54.5,53,53.7,53,52.4z"/>
		<path class="st0" d="M64.3,61.9c0.1,0.3,0.1,0.8-0.2,0.9c-0.3,0.1-1.1,0.5-2.3,0.5h-3.7c0,0,0,0,0,0c-0.3,0-0.6-0.1-0.9-0.2
			c-0.3-0.1-0.5-0.4-0.5-0.6c0-0.4-0.1-3.7-0.2-6.9c-0.1-2.9-0.2-5.6-0.2-5.9c0-0.4,0.2-0.8,0.5-1c0.3-0.2,0.7-0.3,1.1-0.3
			c0,0,0,0,0,0c0,0,0,0,0,0h3.7c1.1,0,1.9,0.3,2.3,0.5c0.3,0.1,0.4,0.6,0.2,0.9c-0.1,0.3-0.3,0.4-0.5,0.4c0,0-0.1,0-0.1,0
			c-0.9-0.3-1.6-0.4-2-0.4h-1.9c0,0,0,0,0,0.1c0,0.4,0,2.8-0.1,5.4c0,0,0,0.1,0,0.1h2.7c0.1,0,0.3,0.1,0.4,0.2
			c0.1,0.1,0.1,0.2,0.1,0.3c0,0.3-0.2,0.6-0.5,0.6h-2.7c0,2.3-0.1,4.6-0.1,5.6h2.1c0.4,0,1.1-0.2,2-0.5C64,61.4,64.2,61.6,64.3,61.9
			z"/>
		<path class="st0" d="M69.3,49.7c0,0.4,0,2.8-0.1,5.4c-0.1,3.1-0.1,6.6-0.1,7.3c0,0.6-0.8,0.9-1.5,0.9c-0.3,0-0.7-0.1-0.9-0.2
			c-0.3-0.1-0.5-0.4-0.5-0.6c0-0.4-0.1-3.7-0.2-6.9c-0.1-2.9-0.2-5.6-0.2-5.9c0-0.4,0.2-0.8,0.5-1c0.3-0.2,0.7-0.3,1.1-0.3
			C68.4,48.3,69.3,48.8,69.3,49.7z"/>
		<path class="st0" d="M79.6,62.7c-0.2,0.4-1,0.6-1.6,0.6c-0.1,0-0.1,0-0.2,0c-0.6,0-1-0.3-1.1-0.7c-0.2-0.6-3.2-6.8-4.1-8.6
			c-0.1,2.1-0.1,8.2-0.1,8.7c0,0.3-0.1,0.5-0.5,0.6c-0.4,0.1-1.1-0.1-1.2-0.6c-0.1-0.4-0.1-2.4-0.1-4.7c0-3.6,0.1-8.1,0.3-8.9
			c0.1-0.4,0.6-0.5,1-0.5c0.4,0,1,0.1,1.2,0.5c0.1,0.3,1.4,2.7,2.5,5c1.1,2.1,2.1,4,2.6,5c0.2-2.4,0.2-9.2,0.1-9.9
			c0-0.1,0-0.4,0.4-0.5c0.3-0.1,0.9,0,1,0.3C80.1,49.4,79.8,62.2,79.6,62.7z"/>
		<path class="st0" d="M89.1,62.4c-0.6,0.6-1.5,0.9-2.6,0.9c-1.8,0-3.2-0.8-4.1-2.3c-0.7-1.3-1-3-1-5.2c0-3.6,1.3-7.5,5-7.5
			c1.5,0,2.5,0.5,3.2,1.6c0.5,0.9,0.6,1.8,0.6,2.2c0,0.4-0.3,0.6-0.6,0.6c-0.2,0-0.3-0.1-0.4-0.2c-0.1-0.1-0.2-0.3-0.2-0.5
			c0-0.7-0.4-2.6-2.4-2.6c-1.4,0-2.5,2.8-2.5,6.5c0,2.9,0.7,6.3,2.5,6.3c0.7,0,1.3-0.2,1.7-0.6c0.7-0.7,0.7-2,0.7-2.8c0,0,0,0,0,0
			c-0.1,0-0.3,0-0.4,0c-0.3,0-0.7,0-1.1,0c-0.3,0-0.5-0.2-0.5-0.6c0-0.3,0.1-0.7,0.4-0.7c0.8,0,1.7,0,2.3,0c0.2,0,0.3,0,0.4,0
			c0.1,0,0.2,0.1,0.2,0.2c0,0.1,0,0.2,0,0.4C90.2,59.4,90.2,61.3,89.1,62.4z"/>
		<path class="st0" d="M107.9,51.9c0,2.2-0.5,3.8-1.4,4.7c-0.9,0.9-1.9,0.9-2.5,0.9c-0.1,0-0.1,0-0.2,0c0,0-0.1,0-0.1,0h-2
			c0,2.3-0.1,4.4-0.1,4.9c0,0.6-0.8,0.9-1.5,0.9c-0.3,0-0.7-0.1-0.9-0.2c-0.3-0.1-0.5-0.4-0.5-0.6c0-0.4-0.1-3.7-0.2-6.9
			c-0.1-2.9-0.2-5.6-0.2-5.9c0-0.4,0.2-0.8,0.5-1c0.3-0.2,0.7-0.3,1.1-0.3c0.6,0,1.3,0.2,1.6,0.7c0.8-0.5,1.7-0.7,2.2-0.7
			c0,0,0,0,0,0c0.5,0,1.5,0,2.4,0.4C107.3,49.3,107.9,50.4,107.9,51.9z M101.6,56.4h2c1.2,0,1.9-1.5,1.9-4.6c0-1.6-0.6-2.2-1.8-2.2
			c-0.9,0-1.5,0.5-2,1c0,1,0,2.8-0.1,4.6C101.6,55.5,101.6,56,101.6,56.4z"/>
		<path class="st0" d="M119.7,57c0.1,1.3,0.1,2.9,0,4.6c0,0.2,0,0.3,0,0.4c0,0.8-0.9,1.2-1.8,1.2c-0.4,0-0.8-0.1-1.1-0.3
			c-0.4-0.2-0.5-0.6-0.5-1c0-0.2,0-0.6,0-1.1c0-0.9,0.1-2.3,0.1-3.8h-4.9c-0.1,2.4,0,4.7,0.1,5.4c0,0.3-0.1,0.6-0.3,0.8
			c-0.1,0.1-0.3,0.1-0.4,0.1c-0.1,0-0.2,0-0.3-0.1c-0.1-0.1-0.3-0.2-0.3-0.6c0-0.1,0-0.2,0-0.4c-0.1-0.9-0.2-2.9-0.1-5.2h-0.1
			c-0.3,0-0.5-0.2-0.5-0.6c0-0.3,0.2-0.6,0.5-0.6h0.2c0.2-3,1-5.1,2.1-6.3c0.8-0.8,1.8-1.3,2.9-1.3c0,0,0,0,0,0c1,0,1.8,0.4,2.5,1.1
			c0.9,0.9,1.8,2.8,2.1,6.5h0c0.2,0,0.3,0.1,0.4,0.2c0.1,0.1,0.1,0.2,0.1,0.4C120.1,56.8,119.9,57,119.7,57z M116.3,55.9
			c0-2.5-0.3-5.1-1.1-6c-0.2-0.2-0.4-0.3-0.6-0.3c0,0,0,0,0,0c-0.5,0-1,0.2-1.4,0.7c-1,1.1-1.4,3.3-1.7,5.6H116.3z"/>
		<path class="st0" d="M130,60.6c0,0.3-0.3,0.7-0.9,0.7c-0.5,0-1.5-0.2-2.4-0.7c-0.7-0.4-1.4-1-1.9-1.6c0,1.7-0.1,3.1-0.1,3.5
			c0,0.6-0.8,0.9-1.5,0.9c-0.3,0-0.7-0.1-0.9-0.2c-0.3-0.1-0.5-0.4-0.5-0.6c0-0.4-0.1-3.7-0.2-6.9c-0.1-2.9-0.2-5.6-0.2-5.9
			c0-0.4,0.2-0.8,0.5-1c0.3-0.2,0.7-0.3,1.1-0.3c0.6,0,1.2,0.2,1.5,0.6c0.8-0.5,1.6-0.6,2.1-0.6c0,0,0,0,0,0c0.5,0,1.5,0,2.4,0.4
			c1.1,0.5,1.7,1.6,1.7,3.1c0,2.2-0.5,3.8-1.4,4.7c-0.9,0.9-1.9,0.9-2.5,0.9c-0.1,0-0.1,0-0.2,0c0,0-0.1,0-0.1,0h-1.4
			c0.2,0.3,0.5,0.7,0.9,1c0.8,0.8,1.8,1.5,3,1.5c0.3,0,0.5,0.1,0.6,0.2C129.9,60.3,130,60.4,130,60.6z M124.9,50.4
			c0,1-0.1,2.8-0.1,4.8c0,0.4,0,0.8,0,1.3h1.9c1.2,0,1.9-1.5,1.9-4.6c0-1.6-0.6-2.2-1.8-2.2C126,49.5,125.4,49.9,124.9,50.4z"/>
		<path class="st0" d="M144.8,49.4c-0.1,0.3-0.4,0.6-0.8,0.6c-0.1,0-0.1,0-0.2,0c-1.2-0.2-2.8-0.4-3.7-0.4c0,0,0,0,0,0.1
			c0,0.4,0,2.8-0.1,5.4c-0.1,3.1-0.1,6.6-0.1,7.3c0,0.6-0.8,0.9-1.5,0.9c-0.3,0-0.7-0.1-0.9-0.2c-0.3-0.1-0.5-0.4-0.5-0.6
			c0-0.4-0.1-3.7-0.2-6.9c-0.1-2.9-0.2-5.6-0.2-5.9c0,0,0,0,0-0.1H133c-0.5,0-0.7-0.3-0.7-0.7c0-0.2,0.1-0.3,0.2-0.4
			c0.1-0.1,0.3-0.2,0.5-0.2h7c2.2,0,3.7,0.3,4.2,0.5C144.7,48.9,144.8,49.2,144.8,49.4z"/>
		<path class="st0" d="M163,55.8c0,2.3-0.3,4-1,5.2c-0.8,1.5-2.2,2.2-4,2.2c-1.6,0-2.9-0.8-3.8-2.5c-0.8-1.4-1.2-3.2-1.2-5
			c0-2.5,0.5-4.4,1.5-5.7c0.9-1.1,2.1-1.8,3.5-1.8c1.6,0,3,0.8,3.8,2.2C162.6,51.9,163,53.7,163,55.8z M161.7,55.8
			c0-2.2-0.5-3.9-1.4-5.1c-0.7-0.9-1.6-1.2-2.2-1.2c-1.4,0-2.3,2.6-2.3,6.3c0,3.9,0.8,6,2.3,6C159.8,61.9,161.7,60.8,161.7,55.8z"/>
		<path class="st0" d="M172.3,49.7c-0.1,0.3-0.3,0.4-0.5,0.4c0,0-0.1,0-0.1,0c-0.9-0.3-1.6-0.4-2-0.4h-1.9c0,0,0,0,0,0.1
			c0,0.4,0,2.8-0.1,5.4c0,0,0,0.1,0,0.1h2.7c0.1,0,0.3,0.1,0.4,0.2c0.1,0.1,0.1,0.2,0.1,0.3c0,0.3-0.2,0.6-0.5,0.6h-2.7
			c-0.1,2.8-0.1,5.5-0.1,6.1c0,0.6-0.8,0.9-1.5,0.9c-0.3,0-0.7-0.1-0.9-0.2c-0.3-0.1-0.5-0.4-0.5-0.6c0-0.4-0.1-3.7-0.2-6.9
			c-0.1-2.9-0.2-5.6-0.2-5.9c0-0.4,0.2-0.8,0.5-1c0.3-0.2,0.7-0.3,1.1-0.3c0,0,0,0,0,0c0,0,0,0,0,0h3.7c1.1,0,2,0.3,2.3,0.5
			C172.3,48.9,172.4,49.3,172.3,49.7z"/>
	</g>
	<g>
		<path class="st2" d="M29.5,79.2c1.5,0,2.8,0.3,3.9,0.8c1.1,0.6,2.1,1.3,2.8,2.2c0.8,0.9,1.3,2,1.7,3.3c0.4,1.2,0.6,2.6,0.6,4
			c0,1.5-0.2,3-0.6,4.4c-0.4,1.4-1,2.7-1.7,3.8c-0.8,1.1-1.7,2-2.9,2.7c-1.1,0.7-2.5,1-4,1c-1.4,0-2.7-0.3-3.8-0.8
			c-1.1-0.6-2.1-1.3-2.9-2.4c-0.8-1-1.4-2.3-1.9-3.7c-0.4-1.5-0.7-3.1-0.7-4.9c0-1.5,0.2-2.9,0.6-4.2c0.4-1.3,1-2.4,1.9-3.3
			c0.8-0.9,1.8-1.7,3-2.2C26.7,79.5,28,79.2,29.5,79.2z M29.2,96.3c0.6,0,1.1-0.4,1.5-1.1c0.4-0.8,0.6-1.7,0.6-2.9
			c0-1.1-0.2-1.8-0.5-2.2c-0.3-0.4-0.8-0.6-1.5-0.6c-0.8,0-1.4,0.2-1.7,0.6c-0.3,0.4-0.5,1.2-0.5,2.2c0,1.2,0.2,2.1,0.6,2.9
			C28.2,95.9,28.7,96.3,29.2,96.3z"/>
		<path class="st2" d="M57.6,80.2c0,0.1,0.1,0.3,0.1,0.4c0,0.7,0,1.6-0.1,2.7c0,1.1-0.1,2.3-0.1,3.5c-0.1,1.2-0.1,2.4-0.1,3.6
			c0,1.2-0.1,2.2-0.1,3c0,1.2-0.1,2.3-0.3,3.3c-0.2,1-0.6,1.8-1.2,2.5c-0.6,0.7-1.4,1.3-2.5,1.7c-1.1,0.4-2.4,0.6-4.1,0.6
			c-2.9,0-5-0.7-6.3-2s-1.9-3.3-1.9-6c0-1.1,0-2.2,0-3.4c0-1.2,0-2.4,0-3.5c0-1.1,0-2.1,0-3c0-0.9,0-1.6,0-2.2c0-0.4,0-0.6,0.1-0.8
			c0.1-0.2,0.3-0.3,0.6-0.3c0.9-0.1,1.6-0.2,2.3-0.3c0.6,0,1.3,0,1.9,0c0.5,0,1,0,1.6,0c0.5,0,1.2,0,2,0c0.5,0,0.9,0.1,1.1,0.2
			c0.2,0.1,0.3,0.4,0.3,0.9c0,2.3,0,4.6-0.1,7c-0.1,2.4-0.1,4.7-0.1,7c0,0.4,0.1,0.7,0.2,1c0.1,0.3,0.4,0.4,0.9,0.4
			c0.3,0,0.6-0.1,0.7-0.2c0.2-0.1,0.3-0.3,0.4-0.6c0.1-0.2,0.1-0.5,0.1-0.8c0-0.3,0-0.5,0-0.8c0-2.1,0-4.3-0.1-6.5
			c0-2.2-0.1-4.5-0.1-6.9c0-0.4,0.1-0.6,0.4-0.7c0.2-0.1,0.8-0.2,1.7-0.2c0.6,0,1.1,0,1.4,0c0.4,0,0.7,0,0.9,0.1
			c0.2,0,0.4,0.1,0.5,0.1C57.5,80.1,57.6,80.2,57.6,80.2z"/>
		<path class="st2" d="M79.5,88.3c0,2-0.4,3.6-1.2,4.8c-0.8,1.2-1.9,2.1-3.2,2.7c0.6,0.6,1.2,1.3,1.8,2c0.6,0.8,1.2,1.6,1.8,2.5
			c0.1,0.1,0.1,0.2,0.1,0.3c0,0.1-0.1,0.2-0.2,0.2c-0.8,0.4-1.6,0.7-2.3,1c-0.7,0.3-1.6,0.5-2.5,0.8c-0.2,0-0.3,0.1-0.4,0.1
			c-0.2,0-0.4-0.1-0.5-0.3c-0.7-1.4-1.7-2.6-3.1-3.7v2.1c0,0.2-0.2,0.3-0.7,0.4c-0.4,0.1-1,0.1-1.5,0.2c-0.6,0-1.2,0-1.8,0
			c-0.6,0-1.1,0-1.5,0c-0.4,0-0.8,0-1.1,0c-0.3,0-0.6,0-0.9-0.1c-0.2,0-0.4-0.3-0.5-0.8c-0.1-0.5-0.3-1.4-0.4-2.6
			c-0.1-1.2-0.3-2.8-0.4-4.8c-0.1-2-0.3-4.5-0.6-7.5c0-0.4-0.1-0.8-0.1-1.3c0-0.5-0.1-1-0.1-1.4c0-0.5-0.1-0.9-0.1-1.3
			c0-0.4,0-0.7,0-0.8c0-0.2,0.2-0.4,0.6-0.6c0.4-0.2,0.9-0.3,1.5-0.5c0.6-0.1,1.4-0.2,2.2-0.3c0.9-0.1,1.7-0.1,2.7-0.1
			c1.9,0,3.7,0.2,5.2,0.7c1.5,0.5,2.8,1.2,3.9,2c1.1,0.8,1.9,1.8,2.4,2.9C79.2,85.9,79.5,87.1,79.5,88.3z M73.1,91.8
			c0-0.7-0.3-1.2-0.8-1.5c-0.5-0.3-1.1-0.5-1.8-0.5c-0.3,0-0.6,0-0.8,0.1V95c1.1-0.1,1.9-0.4,2.5-0.9C72.8,93.5,73.1,92.7,73.1,91.8
			z"/>
		<path class="st2" d="M106.4,80.1c0,0.7,0.1,1.4,0.1,2c0,0.6,0,1.2,0,1.9c0,0.8,0,1.6,0,2.4c0,0.8,0,1.6-0.1,2.4
			c0,0.2-0.1,0.3-0.3,0.3c-0.6,0-1.3,0-2,0c-0.7,0-1.4,0-2,0c0,0.7-0.1,1.5-0.2,2.5c-0.1,0.9-0.1,1.9-0.2,3
			c-0.1,1.1-0.2,2.1-0.3,3.2c-0.1,1.1-0.2,2.2-0.3,3.2c0,0.3-0.8,0.4-2.3,0.4c-0.8,0-1.4,0-2,0c-0.6,0-1.1-0.1-1.7-0.1
			c-0.1,0-0.2-0.1-0.2-0.2c0-0.1-0.1-0.3-0.1-0.6c-0.1-2-0.2-4-0.3-5.9c-0.1-1.9-0.3-3.8-0.5-5.5c-0.4,0-0.8-0.1-1.2-0.1
			c-0.4,0-0.8,0-1.2,0H90c-0.2,0-0.3-0.1-0.3-0.3c-0.1-1.6-0.1-3.2-0.1-4.8c0-0.7,0-1.4,0-2c0-0.6,0-1.3,0.1-2
			c0-0.2,0.1-0.3,0.3-0.3c0.5,0,1.1-0.1,1.6-0.1c0.6,0,1.1,0,1.7,0c2.2,0,4.3,0,6.4,0.1c2.1,0,4.2,0.1,6.4,0.2
			C106.3,79.8,106.4,79.9,106.4,80.1z"/>
		<path class="st2" d="M123.3,80.2c0,1.1,0,2.3-0.1,3.3c-0.1,1.1-0.1,2.1-0.2,2.9c-0.1,0.9-0.2,1.5-0.3,2.1
			c-0.1,0.5-0.2,0.8-0.3,0.8c-0.2,0-0.7,0-1.5-0.1c-0.8-0.1-2-0.1-3.6-0.1c0,0.2-0.1,0.5-0.1,0.7c0,0.2,0,0.4,0,0.7v0.9
			c0.4,0,0.8,0,1.3,0c0.4,0,0.8,0,1.2-0.1c0.4,0,0.8-0.1,1.1-0.1c0.3,0,0.6,0,0.9,0c0.4,0,0.6,0,0.7,0.1c0.1,0.1,0.2,0.2,0.2,0.3
			c-0.1,0.5-0.2,0.9-0.3,1.3c-0.1,0.4-0.3,0.9-0.4,1.3c-0.1,0.2-1.1,0.3-2.8,0.3c-0.3,0-0.6,0-0.9,0c-0.3,0-0.7,0-1,0
			c0,0.3-0.1,0.7-0.1,1.1c0,0.4,0,0.9,0,1.3c0.8,0.1,1.6,0.1,2.4,0.1c0.4,0,0.9,0,1.3,0c0.4,0,0.9,0,1.3,0c0.2,0,0.2,0.1,0.2,0.4
			c0,0.7,0,1.4,0,1.9c0,0.5-0.1,1.1-0.1,1.6c0,0.1-0.1,0.2-0.3,0.2c-0.2,0.1-0.5,0.1-1,0.2c-0.5,0.1-1.2,0.1-2,0.1
			c-0.8,0-1.9,0-3.2,0c-1.2,0-2.2,0-2.9,0c-0.8,0-1.4,0-1.8-0.1c-0.4-0.1-0.7-0.1-0.9-0.3c-0.2-0.1-0.3-0.3-0.3-0.5
			c-0.1-0.8-0.2-1.8-0.4-3c-0.1-1.2-0.2-2.5-0.3-3.9c-0.1-1.4-0.2-2.8-0.3-4.2c-0.1-1.4-0.1-2.7-0.2-3.9c-0.1-1.2-0.1-2.2-0.1-3
			c0-0.8,0-1.3,0-1.5c0-0.2,0.1-0.3,0.4-0.5c0.3-0.1,0.8-0.2,1.6-0.3c0.8-0.1,1.8-0.2,3.1-0.2c1.3-0.1,3-0.1,5.1-0.1h4.5
			C123.2,79.9,123.3,80,123.3,80.2z"/>
		<path class="st2" d="M139.3,80.5c0.8,3.6,1.6,7,2.3,10.5c0.7,3.4,1.4,6.9,2,10.4v0.1c0,0.1-0.1,0.2-0.2,0.2c-1.2,0-2.4,0-3.5,0
			c-1.2,0-2.4-0.1-3.5-0.2c-0.1,0-0.2-0.1-0.2-0.1c-0.1-0.1-0.1-0.2-0.1-0.4l-0.2-2c-0.1,0.1-0.3,0.3-0.5,0.4
			c-0.2,0.1-0.4,0.2-0.6,0.3c-0.2,0.1-0.3,0.2-0.5,0.2c-0.1,0.1-0.2,0.1-0.3,0.1c-0.2,0-0.4-0.1-0.5-0.4c-0.2-0.3-0.3-0.5-0.4-0.7
			l-0.3,1.8c0,0.2-0.1,0.3-0.2,0.4c-0.1,0.1-0.2,0.2-0.4,0.2c-0.2,0.1-0.6,0.1-1,0.1c-0.5,0-1.1,0-1.9,0c-1.7,0-2.9,0-3.6-0.1
			c-0.7,0-1-0.1-1-0.3c0,0,0-0.1,0.1-0.3c0.8-3.5,1.7-6.9,2.6-10.2c0.9-3.3,1.9-6.7,2.9-10.1c0-0.1,0.1-0.2,0.2-0.2
			c0.1-0.1,0.3-0.1,0.6-0.1c0.3,0,0.6-0.1,1.1-0.1c0.5,0,1.1,0,1.9,0c1.1,0,2,0,2.7,0c0.7,0,1.2,0.1,1.7,0.1c0.4,0,0.7,0.1,0.8,0.2
			C139.2,80.3,139.3,80.4,139.3,80.5z M134.8,94.7c0.1,0,0.3,0.1,0.4,0.2c0.1,0.1,0.4,0.4,0.7,0.8c-0.2-1-0.4-2-0.6-3
			c-0.2-1-0.5-2-0.7-3c-0.4,1-0.7,2-0.9,3c-0.2,1-0.5,2-0.7,3.1c0.6-0.4,1-0.7,1.2-0.8S134.6,94.7,134.8,94.7z"/>
		<path class="st2" d="M166,80c0.1,1.3,0.1,2.5,0.1,3.8c0,1.3,0,2.5,0,3.8c0,2.1,0,4.3-0.1,6.4c-0.1,2.1-0.1,4.3-0.2,6.4
			c0,0.4-0.1,0.6-0.3,0.6c-0.2,0.1-0.5,0.1-0.9,0.1c-1.7,0-3.1,0-4,0c-0.9,0-1.6-0.1-2-0.2c-0.4-0.1-0.6-0.2-0.7-0.3
			c0-0.1-0.1-0.3-0.1-0.6c0-1.2,0-2.2,0-3s0.1-1.6,0.1-2.3c-0.7,2.3-1.6,4.3-2.6,6.1c-0.1,0.2-0.2,0.3-0.3,0.3c-0.1,0-0.4,0-0.8,0
			c-0.4,0-0.7,0-0.8-0.1c-0.1,0-0.2-0.2-0.4-0.3c-0.6-0.9-1.2-1.9-1.8-2.9c-0.5-1-1-2.1-1.5-3.3c0,0.4,0.1,1,0.1,1.7
			c0,0.7,0,1.6,0,2.9c0,0.7,0,1.2-0.1,1.4c-0.1,0.2-0.1,0.4-0.2,0.4c-0.2,0.1-0.5,0.1-0.9,0.1c-0.4,0-1.2,0-2.2,0
			c-0.4,0-0.6,0-0.7-0.1c-0.1-0.1-0.2-0.3-0.2-0.5c-0.1-2-0.1-3.9-0.2-6c0-2-0.1-4.1-0.1-6.1c0-1.4,0-2.8,0-4.2
			c0-1.4,0.1-2.7,0.2-4.1c0-0.1,0.1-0.2,0.2-0.2c0.1-0.1,0.3-0.1,0.5-0.1c0.2,0,0.4-0.1,0.7-0.1c0.2,0,0.5,0,0.7,0
			c0.1,0,0.3,0,0.6,0c0.3,0,0.7,0,1,0c0.4,0,0.7,0.1,1,0.2c0.3,0.1,0.6,0.3,0.7,0.5c0.6,1.1,1.2,2.3,1.8,3.4
			c0.7,1.1,1.4,2.2,2.1,3.3c0.7-1,1.4-2.1,2.1-3.2c0.7-1.2,1.3-2.3,1.8-3.5c0-0.2,0.2-0.3,0.5-0.4c0.3-0.1,0.6-0.1,1-0.2
			c0.4,0,0.8-0.1,1.2-0.1c0.4,0,0.8,0,1.1,0c1.2,0,2,0,2.5,0.1C165.8,79.7,166,79.8,166,80z"/>
	</g>
</g>
</svg>
