<?xml version="1.0" encoding="utf-8"?>
<!-- Generator: Adobe Illustrator 25.2.1, SVG Export Plug-In . SVG Version: 6.00 Build 0)  -->
<svg version="1.1" id="Layer_1" xmlns="http://www.w3.org/2000/svg" xmlns:xlink="http://www.w3.org/1999/xlink" x="0px" y="0px"
	 viewBox="0 0 180 182.29" style="enable-background:new 0 0 180 182.29;" xml:space="preserve">
<style type="text/css">
	.st0{fill:#9BB5DF;}
	.st1{fill:#F5C117;}
	.st2{fill:#BD2926;}
	.st3{fill:#381F23;}
	.st4{fill:#D9B028;}
	.st5{fill:#CA9A2C;}
	.st6{fill:#B7872D;}
	.st7{fill:#333333;}
	.st8{fill:#FDF49A;}
	.st9{fill:#F9E86F;}
	.st10{fill:#EB9E22;}
	.st11{fill:#EBC424;}
	.st12{fill:#010101;}
	.st13{fill:#B49930;}
	.st14{fill:#F3C423;}
	.st15{fill:#010201;}
	.st16{fill-rule:evenodd;clip-rule:evenodd;}
	.st17{fill:#1A1B1B;}
	.st18{fill:#FDFDFD;}
	.st19{fill-rule:evenodd;clip-rule:evenodd;fill:url(#SVGID_1_);}
	.st20{fill:#23292D;}
	.st21{fill:#DD9C27;}
	.st22{fill:#F2664F;}
	.st23{fill:url(#SVGID_2_);}
	.st24{fill:url(#SVGID_3_);}
	.st25{fill:url(#SVGID_4_);}
	.st26{fill:url(#SVGID_5_);}
	.st27{fill:url(#SVGID_6_);}
	.st28{fill:url(#SVGID_7_);}
	.st29{fill:url(#SVGID_8_);}
	.st30{fill:url(#SVGID_9_);}
	.st31{fill:url(#SVGID_10_);}
	.st32{fill:url(#SVGID_11_);}
	.st33{fill:none;stroke:#D9B028;stroke-width:3;stroke-miterlimit:10;}
	.st34{opacity:0.19;}
	.st35{stroke:#000000;stroke-width:3;stroke-miterlimit:10;}
	.st36{fill:#FAA82F;}
	.st37{opacity:0.42;}
	.st38{opacity:0.1091;}
	.st39{fill:#FEBC16;}
	.st40{fill:#E43C7D;}
	.st41{fill:#FFFFFF;}
	.st42{fill:#E7B831;}
	.st43{fill:#AB7136;}
	.st44{fill:none;stroke:#010101;stroke-miterlimit:10;}
	.st45{fill:#8CB5D7;}
	.st46{fill:#F5C117;stroke:#000000;stroke-miterlimit:10;}
	.st47{fill:none;stroke:#010101;stroke-width:0.75;stroke-miterlimit:10;}
	.st48{fill:none;stroke:#010101;stroke-width:0.5;stroke-miterlimit:10;}
	.st49{fill:none;stroke:#F5C117;stroke-miterlimit:10;}
	.st50{fill:#F2664F;stroke:#000000;stroke-miterlimit:10;}
	.st51{stroke:#010101;stroke-miterlimit:10;}
	.st52{fill:#231F20;}
	.st53{fill:#E7B82F;}
	.st54{fill:#B39A32;}
	.st55{fill:#D9B128;}
</style>
<g>
	<g>
		<g>
			<g>
				<path class="st52" d="M165.34,120.67c0,0-0.02-0.1,0.05-0.24c0.01-0.02,0.02-0.03,0.03-0.05c0.01-0.02,0.03-0.03,0.04-0.05
					c0.03-0.04,0.06-0.06,0.1-0.09c0.07-0.05,0.16-0.11,0.26-0.15c0.2-0.09,0.43-0.15,0.71-0.19c0.28-0.03,0.58-0.02,0.9,0.02
					c0.64,0.08,1.31,0.33,1.95,0.54c0.08,0.03,0.15,0.05,0.24,0.07c0.09,0.03,0.18,0.06,0.26,0.09c0.17,0.07,0.33,0.15,0.49,0.24
					c0.15,0.09,0.3,0.2,0.44,0.33c0.07,0.07,0.13,0.14,0.19,0.23c0.06,0.09,0.11,0.2,0.12,0.34c0.01,0.13-0.03,0.29-0.11,0.39
					c-0.08,0.11-0.17,0.18-0.25,0.23c-0.04,0.03-0.09,0.05-0.13,0.07c-0.04,0.02-0.09,0.04-0.13,0.06
					c-0.04,0.02-0.09,0.03-0.13,0.05c-0.04,0.01-0.08,0.02-0.13,0.04c-0.35,0.1-0.72,0.13-1.09,0.11c-0.73-0.04-1.42-0.27-1.99-0.53
					c-0.57-0.27-1.03-0.58-1.34-0.84c-0.04-0.03-0.07-0.06-0.11-0.09c-0.03-0.03-0.06-0.06-0.09-0.09c-0.06-0.06-0.11-0.1-0.14-0.14
					c-0.07-0.08-0.11-0.13-0.11-0.13c-0.09-0.1,0.13-0.27,0.22-0.2c0,0,0.04,0.04,0.11,0.11c0.04,0.04,0.09,0.07,0.14,0.12
					c0.03,0.02,0.06,0.05,0.09,0.08c0.03,0.02,0.07,0.05,0.11,0.08c0.3,0.22,0.75,0.49,1.3,0.71c0.55,0.21,1.2,0.39,1.84,0.4
					c0.32,0,0.63-0.03,0.91-0.12c0.04-0.01,0.07-0.02,0.11-0.03c0.03-0.01,0.07-0.02,0.1-0.04c0.03-0.01,0.06-0.03,0.09-0.04
					c0.02-0.02,0.05-0.03,0.08-0.04c0.05-0.03,0.08-0.06,0.09-0.08c0.01-0.02,0.01-0.02,0.01-0.03c0-0.03-0.05-0.13-0.14-0.22
					s-0.2-0.18-0.33-0.26c-0.13-0.08-0.26-0.15-0.4-0.22c-0.07-0.03-0.14-0.06-0.21-0.08c-0.08-0.02-0.16-0.05-0.25-0.09
					c-0.65-0.24-1.27-0.5-1.84-0.61c-0.28-0.06-0.56-0.08-0.8-0.06c-0.24,0.02-0.46,0.07-0.62,0.12c-0.08,0.03-0.15,0.06-0.2,0.09
					c-0.02,0.02-0.05,0.03-0.06,0.05c-0.01,0.01-0.01,0.01-0.02,0.02c0,0.01-0.01,0.01-0.01,0.02c-0.03,0.05-0.02,0.07-0.03,0.07
					c-0.01,0.03-0.07,0.08-0.13,0.1C165.44,120.78,165.36,120.76,165.34,120.67z"/>
			</g>
		</g>
	</g>
	<g>
		<g>
			<g>
				<path class="st52" d="M165.37,135.71c0,0-0.08,0-0.22-0.02s-0.36-0.05-0.62-0.13c-0.13-0.04-0.27-0.1-0.42-0.17
					c-0.14-0.08-0.3-0.18-0.44-0.31c-0.29-0.26-0.5-0.64-0.64-1.04c-0.04-0.1-0.06-0.21-0.09-0.32c-0.02-0.11-0.04-0.21-0.06-0.32
					c-0.04-0.22-0.09-0.44-0.11-0.66c-0.02-0.23-0.06-0.45-0.07-0.69c-0.01-0.23-0.02-0.46-0.03-0.7c-0.01-0.93,0.07-1.85,0.18-2.65
					c0.12-0.8,0.31-1.69,0.55-2.58c0.24-0.89,0.53-1.76,0.81-2.54c0.07-0.19,0.14-0.38,0.21-0.56c0.07-0.18,0.14-0.35,0.2-0.51
					c0.13-0.32,0.25-0.61,0.35-0.84c0.1-0.24,0.19-0.43,0.24-0.56c0.06-0.13,0.09-0.2,0.09-0.2c0.07-0.16,0.32-0.04,0.27,0.11
					c0,0-0.03,0.07-0.08,0.2c-0.05,0.13-0.13,0.32-0.21,0.56c-0.09,0.24-0.2,0.53-0.31,0.85c-0.06,0.16-0.11,0.33-0.18,0.51
					c-0.06,0.18-0.12,0.37-0.18,0.56c-0.24,0.77-0.5,1.65-0.71,2.53c-0.21,0.88-0.38,1.76-0.5,2.53c-0.11,0.78-0.21,1.66-0.22,2.56
					c0,0.22,0.01,0.45,0.01,0.67c0.01,0.22,0.03,0.44,0.05,0.66c0.01,0.22,0.05,0.43,0.08,0.64c0.02,0.1,0.03,0.21,0.05,0.31
					c0.02,0.1,0.04,0.19,0.07,0.28c0.11,0.37,0.27,0.69,0.49,0.9c0.1,0.11,0.23,0.2,0.34,0.27c0.12,0.07,0.24,0.12,0.35,0.16
					c0.23,0.08,0.42,0.12,0.56,0.14c0.13,0.02,0.21,0.03,0.21,0.03C165.56,135.47,165.54,135.71,165.37,135.71z"/>
			</g>
		</g>
	</g>
	<g>
		<g>
			<g>
				<path class="st52" d="M170.85,122.01c0,0,0,0-0.01-0.01c-0.01-0.01-0.01-0.01-0.03-0.03c-0.01-0.02-0.03-0.04-0.04-0.09
					l0.29-0.02c0,0,0,0.08-0.01,0.21c-0.01,0.13-0.02,0.33-0.02,0.57c-0.02,0.49-0.01,1.17-0.05,1.95
					c-0.02,0.39-0.06,0.81-0.13,1.24c-0.06,0.42-0.14,0.85-0.23,1.28c-0.17,0.86-0.4,1.7-0.63,2.43c-0.23,0.74-0.54,1.56-0.89,2.37
					c-0.09,0.2-0.18,0.4-0.27,0.6c-0.09,0.21-0.2,0.4-0.31,0.59c-0.22,0.38-0.47,0.73-0.72,1.05c-0.25,0.31-0.52,0.59-0.79,0.81
					c-0.26,0.22-0.53,0.39-0.76,0.51c-0.23,0.12-0.44,0.18-0.58,0.2c-0.14,0.03-0.22,0.03-0.22,0.03c-0.18,0.01-0.17-0.27-0.03-0.29
					c0,0,0.07-0.01,0.19-0.04c0.12-0.03,0.3-0.09,0.5-0.2c0.2-0.11,0.43-0.28,0.67-0.49c0.23-0.22,0.47-0.48,0.7-0.79
					s0.45-0.65,0.64-1.01c0.1-0.18,0.19-0.37,0.27-0.56c0.08-0.2,0.17-0.4,0.25-0.6c0.32-0.8,0.61-1.62,0.84-2.34
					c0.23-0.71,0.46-1.54,0.66-2.37c0.1-0.42,0.19-0.84,0.27-1.25c0.08-0.41,0.14-0.81,0.17-1.19c0.07-0.76,0.1-1.45,0.14-1.94
					c0.02-0.25,0.04-0.44,0.05-0.58c0.02-0.14,0.02-0.21,0.03-0.21h0.22c0.01,0,0.03-0.01,0.05-0.03l0.01-0.01l0,0l0,0l0,0l0,0
					c0.01,0.02,0.02,0.05,0.02,0.08c0,0.03-0.01,0.07-0.03,0.1s-0.04,0.05-0.08,0.06C170.93,122.05,170.9,122.05,170.85,122.01z"/>
			</g>
		</g>
	</g>
	<g>
		<g>
			<g>
				<path class="st52" d="M161.86,145.45L161.86,145.45L161.86,145.45L161.86,145.45c0,0,0,0,0.01,0l-0.17-0.18
					c0,0,0.19-0.76,0.45-1.76c0.25-1,0.56-2.24,0.8-3.21c0.06-0.24,0.13-0.51,0.2-0.78c0.03-0.13,0.07-0.27,0.11-0.41
					c0.03-0.14,0.07-0.28,0.1-0.42c0.14-0.57,0.31-1.13,0.44-1.63c0.13-0.5,0.23-0.94,0.29-1.25c0.06-0.32,0.07-0.51,0.07-0.51
					c0.01-0.1,0.29-0.09,0.29,0.02c0,0,0,0.2-0.03,0.54c-0.03,0.33-0.1,0.79-0.2,1.31c-0.1,0.51-0.23,1.08-0.35,1.65
					c-0.03,0.14-0.06,0.28-0.08,0.42c-0.03,0.14-0.06,0.28-0.1,0.42c-0.06,0.27-0.13,0.54-0.19,0.78c-0.25,0.98-0.62,2.21-0.94,3.19
					c-0.16,0.49-0.3,0.92-0.41,1.23s-0.17,0.49-0.17,0.5l-0.17-0.18c0.02,0,0.03,0,0.04,0c0.01,0,0.01,0,0.02,0
					c0.01,0,0.02,0,0.02,0c0.01,0,0.01,0,0.01,0c0.05,0.01,0.07,0.05,0.08,0.08c0.01,0.03-0.01,0.07-0.03,0.09
					C161.91,145.39,161.86,145.44,161.86,145.45z"/>
			</g>
		</g>
	</g>
	<g>
		<g>
			<g>
				<path class="st52" d="M162.58,145.53c0,0,0.02-0.19,0.07-0.51c0.02-0.16,0.06-0.35,0.09-0.56c0.04-0.21,0.09-0.45,0.14-0.7
					c0.21-1,0.56-2.23,0.86-3.17c0.3-0.94,0.7-2.14,0.97-3.11c0.06-0.24,0.13-0.47,0.18-0.68c0.05-0.21,0.09-0.39,0.13-0.55
					c0.06-0.31,0.1-0.5,0.1-0.5c0.02-0.1,0.3-0.06,0.29,0.04c0,0-0.02,0.19-0.06,0.51c-0.02,0.16-0.05,0.35-0.09,0.57
					c-0.03,0.22-0.08,0.45-0.13,0.7c-0.21,1.01-0.55,2.23-0.85,3.18c-0.3,0.95-0.71,2.14-0.98,3.11c-0.06,0.24-0.13,0.47-0.18,0.68
					c-0.05,0.21-0.1,0.39-0.13,0.55c-0.07,0.31-0.11,0.5-0.11,0.5C162.82,145.68,162.58,145.64,162.58,145.53z"/>
			</g>
		</g>
	</g>
	<g>
		<g>
			<g>
				<path class="st52" d="M163,145.77c0,0-0.03,0.01-0.07,0.03c-0.04,0.02-0.1,0.05-0.18,0.07c-0.08,0.02-0.16,0.04-0.26,0.04
					c-0.09,0-0.18-0.01-0.26-0.04c-0.16-0.05-0.32-0.2-0.41-0.33c-0.04-0.07-0.07-0.13-0.09-0.17c-0.02-0.05-0.03-0.07-0.03-0.07
					c0-0.02,0.23-0.17,0.24-0.16c0,0,0.02,0.01,0.05,0.03c0.03,0.02,0.08,0.05,0.12,0.07c0.1,0.05,0.21,0.08,0.3,0.11
					c0.08,0.03,0.2,0.08,0.31,0.11c0.06,0.01,0.11,0.02,0.15,0.03c0.04,0.01,0.06,0.01,0.06,0.01
					C162.95,145.51,163.01,145.75,163,145.77z"/>
			</g>
		</g>
	</g>
	<g>
		<g>
			<g>
				<path class="st52" d="M165.46,148.76c0,0-0.22-0.22-0.51-0.5c-0.29-0.29-0.65-0.65-0.9-0.95c-0.26-0.3-0.55-0.72-0.78-1.07
					c-0.22-0.35-0.37-0.62-0.37-0.62c-0.02-0.04,0.21-0.19,0.24-0.16c0,0,0.2,0.23,0.47,0.53c0.27,0.3,0.61,0.66,0.87,0.96
					c0.25,0.3,0.56,0.71,0.8,1.04c0.24,0.33,0.41,0.59,0.41,0.59C165.69,148.63,165.5,148.78,165.46,148.76z"/>
			</g>
		</g>
	</g>
	<g>
		<g>
			<g>
				<path class="st52" d="M157.91,145.85c0-0.01,0.09-0.1,0.22-0.16c0.13-0.06,0.3-0.12,0.49-0.18c0.39-0.11,0.87-0.21,1.24-0.25
					c0.38-0.04,0.86-0.06,1.25-0.07c0.19-0.01,0.36-0.01,0.48-0.02s0.19-0.01,0.19-0.01c0.04,0,0.1,0.27,0.06,0.28
					c0,0-0.08,0.03-0.2,0.06c-0.12,0.03-0.29,0.07-0.48,0.11c-0.38,0.08-0.86,0.16-1.23,0.21c-0.37,0.04-0.85,0.07-1.23,0.11
					c-0.19,0.02-0.35,0.04-0.45,0.07c-0.1,0.03-0.12,0.05-0.12,0.04C158.12,146.01,157.87,145.95,157.91,145.85z"/>
			</g>
		</g>
	</g>
	<g>
		<g>
			<g>
				<path class="st52" d="M158.18,146.02c0,0,0.07,0.15,0.21,0.38s0.35,0.55,0.64,0.86c0.28,0.32,0.64,0.64,1.03,0.89
					c0.39,0.25,0.82,0.42,1.21,0.51c0.4,0.1,0.88,0.19,1.35,0.25c0.48,0.06,0.96,0.08,1.38,0.05c0.42-0.03,0.78-0.12,1.02-0.22
					c0.06-0.02,0.11-0.05,0.15-0.08c0.05-0.02,0.08-0.04,0.11-0.06c0.06-0.04,0.09-0.06,0.09-0.06c0.07-0.05,0.26,0.15,0.19,0.22
					c0,0-0.03,0.03-0.1,0.08c-0.03,0.03-0.07,0.06-0.12,0.09c-0.05,0.03-0.11,0.07-0.17,0.11c-0.26,0.15-0.66,0.28-1.12,0.35
					c-0.46,0.07-0.97,0.08-1.48,0.05c-0.51-0.04-1.01-0.11-1.44-0.22c-0.45-0.11-0.94-0.33-1.37-0.63c-0.43-0.3-0.79-0.68-1.07-1.05
					c-0.28-0.37-0.47-0.72-0.6-0.97c-0.12-0.26-0.19-0.42-0.19-0.42C157.9,146.05,158.13,145.95,158.18,146.02z"/>
			</g>
		</g>
	</g>
	<g>
		<g>
			<g>
				<path class="st52" d="M57.14,13.85c0.41,0.22,0.07,1.27-0.05,1.66c-1.14,3.51-2.37,6.99-3.7,10.43
					c0.59-3.64,1.47-7.23,2.63-10.72c0.11-0.34,0.41-1.33,0.86-1.4C56.99,13.81,57.08,13.82,57.14,13.85z"/>
			</g>
		</g>
	</g>
	<g>
		<g>
			<g>
				<path class="st52" d="M40.07,0.02c0.33,0.11,0.66,0.78,0.79,2.17c0.28,2.98,0.46,5.98,0.66,8.97
					c0.41,5.98,0.76,11.97,1.05,17.96c-1.09-8.83-2.18-17.66-3.28-26.49C39.09,0.92,39.58-0.15,40.07,0.02z"/>
			</g>
		</g>
	</g>
	<g>
		<g>
			<g>
				<path class="st52" d="M21.26,24.73c0.23-0.13,1.37,0.32,1.66,0.56c3.29,2.74,6.27,5.86,8.84,9.29
					c-3.42-3.14-6.84-6.27-10.26-9.41C21.22,24.91,21.17,24.78,21.26,24.73z"/>
			</g>
		</g>
	</g>
	<g>
		<g>
			<g>
				<path class="st52" d="M0.03,42.26c0.13-0.12,0.67-0.61,0.77-0.66c0.48-0.23,0.76-0.17,1.29-0.15c1.26,0.05,2.54,0.28,3.79,0.42
					c2.52,0.28,5.05,0.56,7.57,0.84c5.05,0.56,10.1,1.12,15.15,1.68c-9.55-0.44-19.12-0.88-28.6-2.1C0,42.29,0.01,42.28,0.03,42.26z
					"/>
			</g>
		</g>
	</g>
	<g>
		<g>
			<g>
				<path class="st52" d="M16.48,56.66c1.91-0.65,3.82-1.3,5.72-1.95c1.75-0.6,3.53-1.41,5.41-1.47c-0.01,0.29-0.31,0.46-0.57,0.58
					c-3.35,1.51-6.95,2.48-10.6,2.85C16.45,56.67,16.46,56.66,16.48,56.66z"/>
			</g>
		</g>
	</g>
	<g>
		<path class="st52" d="M51.17,155.16c-2.95-6.86-5.89-13.32-8.84-19.39c2.59-0.3,5.19-0.61,7.78-0.91
			c1.66,4.13,3.32,8.4,4.99,12.81c0.04,0,0.09,0,0.13,0c1.66-4.52,3.32-9.18,4.99-13.99c2.37-0.28,4.74-0.55,7.11-0.83
			c-2.95,7.88-5.89,15.35-8.84,22.44c0,5.29,0,10.58,0,15.87c-2.44-0.28-4.88-0.57-7.31-0.85
			C51.17,165.26,51.17,160.21,51.17,155.16z"/>
		<path class="st52" d="M73.97,132.07c6.65-0.78,13.3-1.55,19.94-2.33c0,2.17,0,4.34,0,6.51c-4.21,0.35-8.42,0.7-12.63,1.05
			c0,3.75,0,7.51,0,11.26c3.35-0.07,6.69-0.15,10.04-0.22c0,2.14,0,4.28,0,6.42c-3.35-0.04-6.69-0.08-10.04-0.12
			c0,4.36,0,8.72,0,13.08c4.21,0.35,8.42,0.7,12.63,1.05c0,2.17,0,4.34,0,6.51c-6.65-0.78-13.29-1.55-19.94-2.33
			C73.97,159.33,73.97,145.7,73.97,132.07z"/>
		<path class="st52" d="M107.07,128.21c3.3-0.39,6.6-0.77,9.91-1.16c2.53,16.68,5.05,33.96,7.58,51.82
			c-2.44-0.28-4.88-0.57-7.31-0.85c-0.44-3.43-0.89-6.83-1.33-10.22c0,0.05,0,0.1,0,0.14c-2.77-0.2-5.54-0.39-8.31-0.59
			c-0.44,3.15-0.89,6.28-1.33,9.39c-2.26-0.26-4.52-0.53-6.78-0.79C102.02,160.62,104.55,144.71,107.07,128.21z M115.05,161.03
			c-1.09-8.36-2.17-16.6-3.26-24.71c-0.04,0-0.09,0.01-0.13,0.01c-1.06,8.27-2.13,16.41-3.19,24.44
			C110.66,160.86,112.86,160.94,115.05,161.03z"/>
		<path class="st52" d="M131.4,125.37c3.61-0.42,7.22-0.84,10.84-1.27c3.77-0.44,6.51,0.32,8.24,2.35c1.73,2.03,2.59,5.4,2.59,10.03
			c0,1.22,0,2.43,0,3.65c0,6.17-1.6,10.11-4.79,11.72c0,0.06,0,0.11,0,0.17c1.77,0.66,3.02,2.04,3.76,4.13
			c0.73,2.09,1.1,4.91,1.1,8.41c0,3.48,0,6.96,0,10.43c0,1.7,0.04,3.07,0.13,4.13s0.31,2.11,0.66,3.17
			c-2.48-0.29-4.96-0.58-7.45-0.87c-0.27-0.97-0.44-1.87-0.53-2.7c-0.09-0.83-0.13-2.32-0.13-4.46c0-3.51,0-7.03,0-10.55
			c0-2.64-0.34-4.49-1.03-5.54c-0.69-1.06-1.87-1.59-3.56-1.62c-0.84-0.01-1.68-0.03-2.53-0.04c0,8,0,16,0,24
			c-2.44-0.28-4.88-0.57-7.31-0.85C131.4,161.57,131.4,143.47,131.4,125.37z M141.37,148.47c1.46-0.02,2.56-0.5,3.29-1.45
			c0.73-0.94,1.1-2.52,1.1-4.72c0-1.48,0-2.96,0-4.45c0-2.09-0.3-3.58-0.9-4.46c-0.6-0.88-1.54-1.27-2.82-1.16
			c-1.11,0.09-2.22,0.19-3.32,0.28c0,5.33,0,10.67,0,16C139.6,148.5,140.49,148.49,141.37,148.47z"/>
	</g>
	<path class="st52" d="M172.59,74.15c0,1.23-1,2.22-2.22,2.22c-1.23,0-2.22-1-2.22-2.22c0-1.23,1-2.22,2.22-2.22
		C171.6,71.93,172.59,72.92,172.59,74.15z"/>
	<path class="st52" d="M23.83,140.44c0,1.23-1,2.22-2.22,2.22c-1.23,0-2.22-1-2.22-2.22c0-1.23,1-2.22,2.22-2.22
		C22.84,138.22,23.83,139.21,23.83,140.44z"/>
	<polygon class="st52" points="32.56,70.08 26.48,76.16 33.17,78.6 	"/>
	<g>
		<path class="st52" d="M46.72,44.72l-0.5,1.78c-0.56,1.84-1.07,3.74-1.68,5.51c-0.27,0.8-0.72,1.7-1.16,2.42
			c-1.45,2.45-3.65,2.14-5.15,0.96c-0.86-0.69-1.34-1.58-1.68-2.75c-0.46-1.66-0.56-3.33-0.42-5.1c0.31-4.3,1.14-8.42,2.42-12.49
			c0.18-0.57,0.47-1.07,0.71-1.58c0.39-0.85,1.01-1.13,1.82-1.04c0.18-0.04,0.41-0.01,0.58,0.07c1.15,0.19,1.52,0.59,1.32,1.81
			c-0.42,2.68-0.83,5.25-1.31,7.87c-0.34,1.98-0.74,3.9-1.02,5.82c-0.32,1.75-0.45,3.45-0.31,5.31c0.02,0.36,0.09,0.78,0.2,1.33
			c0.45-0.36,0.78-0.68,0.99-0.96c0.58-0.94,1.23-2,1.58-3.09c0.87-2.45,1.63-5.04,2.45-7.56c0.76-2.53,2.57-7.13,3.71-8.9
			c0.64-1,2.06-1.13,2.92-0.44c0.33,0.22,0.4,0.64,0.3,0.98c-0.09,0.82-0.25,1.63-0.4,2.51c-0.21,1.88-0.61,3.79-0.64,5.63
			c-0.09,3.32,0.02,6.48,0.12,9.75c0.08,1.91,0.32,3.9,0.51,5.82c0.21,1.75,0.6,3.45,1.35,5.14c0.43,0.88,1.04,1.72,1.86,2.23
			c0.43,0.35,0.84,0.33,1.34,0.03c0.69-0.4,1.18-1.05,1.67-1.77c4.12-6.84,5.79-24.52,2.51-31.79c-0.45-1.18,1.11-1.54,1.65-0.58
			c3.37,5.91,1,27.2-2.77,33.48c-1.15,1.89-2.64,2.61-4.59,2.15c-2.22-0.55-3.96-1.76-5.19-3.86c-1.09-1.73-1.74-3.76-2.14-5.89
			c-0.65-3.58-0.82-7.22-0.87-10.91c0-0.53-0.04-1.19-0.02-1.84C46.83,44.79,46.78,44.73,46.72,44.72z"/>
		<path class="st52" d="M79.21,49.92c-0.95,2.15-2.05,4.1-3.97,5.49c-0.83,0.62-1.72,0.69-2.56,0.36c-2.09-0.71-3.45-2.12-3.78-4.41
			c-0.4-2.66,0.17-5.09,1.82-7.22c0.76-1.04,1.72-1.7,2.88-2.11c0.68-0.28,1.38-0.26,2.05,0.06c0.84,0.39,1.23,1.03,1.01,1.96
			c-0.38,1.8-1.58,3.09-3.18,3.74c-0.62,0.29-0.88,0.55-0.96,1.2c-0.14,1.23-0.34,2.46-0.36,3.7c-0.13,1.17,0.65,2.51,1.95,1.94
			c1.86-0.86,2.61-1.84,4.15-4.52C78.55,49.48,78.38,49.46,79.21,49.92z M73.24,46.74c1.08-0.71,1.81-1.46,2.23-2.54
			c0.16-0.4,0.33-0.79-0.04-1.19C74.45,43.79,73.51,45.34,73.24,46.74z"/>
		<path class="st52" d="M93.23,54.49c-1.04,2.44-2.19,4.8-3.62,7.01c-0.65,1.05-1.45,1.91-2.47,2.63c-1.14,0.7-2.31,0.75-3.5,0.37
			c-6.92-2.04-2.64-22.63,1.51-31.25c0.46-0.96,2.57-0.89,3.28,0.02c0.2,0.26,0.33,0.69,0.24,0.98c-1.88,8.28-4.81,14.42-5.17,23.7
			c-0.01,1.13,0.04,2.2,0.2,3.35c0.11,0.61,0.38,1.29,0.73,1.86c0.34,0.63,0.63,0.67,1.31,0.33c0.86-0.38,1.65-1.06,2.15-1.89
			c0.79-1.28,1.65-2.6,2.33-4.01c1.37-2.75,2.57-5.59,3.26-8.54c0.17-1.47,1.71-1.59,1.56-0.3C94.6,50.72,93.97,52.61,93.23,54.49z"
			/>
		<path class="st52" d="M107.83,51.99c-2.11,4.57-5.82,9.85-9.09,8.7c-1.47-0.52-2.46-1.59-3-3.01c-0.83-1.99-0.94-4.09-0.53-6.18
			c0.42-2.15,1.24-4.19,2.68-5.99c0.54-0.59,1.13-1.12,1.76-1.58c0.83-0.62,1.94-0.55,2.65-0.05c0.82,0.51,1.34,2.65,1.42,2.95
			c0.23,1.04-0.32,1.8-0.72,1.17c-0.2-0.32-0.74-2.28-0.92-2.24c-0.69,1.41-1.32,2.82-1.79,4.37c-0.74,2.35-1.42,4.71-1.47,7.2
			c0.08,0.84-0.01,1.66,0.59,2.5c2.07,0.36,6.19-6.48,7.26-8.14C107.18,50.97,108.05,51.6,107.83,51.99z"/>
		<path class="st52" d="M127.26,50.29c-2.13,2.19-4.54,2.27-7.23,1.14c-0.25,1.16-0.43,2.27-0.74,3.36
			c-0.3,1.09-0.66,2.18-1.08,3.26c-0.17,0.46-0.45,0.9-0.73,1.28c-2.07,3.27-6.39,3.07-8.18-0.28c-0.58-1.08-0.86-2.24-0.73-3.41
			c0.3-2.64,1.27-4.96,3.07-6.9c0.21-0.27,0.47-0.54,0.78-0.68c1.01-0.66,2.06-0.54,3.04,0.05c0.28,0.15,0.55,0.36,0.27,0.68
			c-0.97,1.31-1.39,2.93-1.91,4.41c-0.43,1.2-0.87,2.45-1.13,3.73c-0.15,0.81-0.14,1.71,0,2.55c0.12,0.96,0.63,1.14,1.45,0.7
			c0.81-0.38,1.52-0.96,1.96-1.74c1.43-2.21,2.18-4.68,2.41-7.27c0.06-0.53-0.13-0.91-0.44-1.3c-0.36-0.46-0.65-1.02-0.88-1.53
			c-0.27-0.68,0.06-1,0.75-0.92c0.51,0.12,0.96,0.35,1.2,0.79c0.25,0.38,0.43,0.82,0.57,1.19c0.11,0.55,0.43,0.88,0.86,1.17
			c1.32,0.8,2.68,0.66,3.99-0.02c0.37-0.19,0.7-0.46,1.14-0.7C126.28,49.59,126.68,49.69,127.26,50.29z"/>
		<path class="st52" d="M155.68,55.61c-0.08,0.17-0.16,0.4-0.3,0.56c-1.54,2.73-3.14,5.4-4.68,8.08c-1.02,1.73-2,2.09-3.78,1.23
			c-1.17-0.55-1.94-1.47-2.39-2.71c-0.44-1.3-0.46-2.67-0.24-4.07l0.74-3.36c0.02-0.18,0.04-0.35,0.06-0.53
			c-0.06-0.01-0.12-0.01-0.17-0.08c-2.44,2.39-3.27,5.57-4.45,8.64c-1.28,0.45-2.95-0.4-3.38-1.75c-0.32-1.34-0.34-2.71-0.24-4.07
			c0.15-2.83,0.82-5.61,1.66-8.36c0.17-0.46,0.23-0.98,0.43-1.67c-0.37,0.14-0.54,0.12-0.68,0.28c-0.46,0.42-0.92,0.85-1.33,1.39
			c-1.84,2.28-3.14,4.87-4.09,7.61c-0.7,2.06-1.3,4.19-1.89,6.26c-0.1,0.35-0.24,0.57-0.56,0.77c-0.95,0.6-2.27,0.33-2.73-0.73
			c-0.15-0.25-0.29-0.57-0.3-0.93c-0.56-3.33-0.22-8.34,0.91-11.6c0.51-1.43,2.04-1.96,3.36-1.16c0.38,0.28,0.32,2.29,0.27,2.76
			c-0.07,0.65-0.15,1.29-0.28,1.93c-0.14,0.76-0.28,1.45-0.32,2.28c0.08-0.23,0.16-0.4,0.31-0.62c0.77-1.63,1.49-3.28,2.32-4.9
			c0.68-1.35,1.58-2.55,2.69-3.55c0.72-0.69,1.52-1.01,2.46-0.97c2.15,0.19,3.39,1.63,3.27,3.76c-0.07,1.12-0.25,2.23-0.44,3.34
			c-0.04,0.35-0.14,0.7-0.26,1.28c0.32-0.26,0.52-0.42,0.65-0.58c0.87-0.91,1.88-1.57,3.04-1.97c1.15-0.34,2.18-0.05,3.15,0.66
			c0.38,0.28,0.61,0.78,0.68,1.27c0.04,0.72,0.07,1.43,0.05,2.14c-0.15,1.35-0.31,2.7-0.52,4.04c-0.13,1.11-0.31,2.16,0.01,3.51
			c0.27-0.33,0.47-0.48,0.61-0.7c0.79-1.28,1.63-2.49,2.42-3.76l2.29-3.6C154.52,55.01,154.87,54.99,155.68,55.61z"/>
		<path class="st52" d="M166.57,59.89c-0.95,2.15-2.05,4.1-3.97,5.49c-0.83,0.62-1.72,0.69-2.56,0.36
			c-2.09-0.71-3.45-2.12-3.78-4.41c-0.4-2.66,0.17-5.09,1.82-7.22c0.76-1.04,1.72-1.7,2.88-2.11c0.68-0.28,1.38-0.26,2.05,0.06
			c0.83,0.39,1.23,1.03,1.01,1.96c-0.38,1.8-1.58,3.09-3.18,3.74c-0.62,0.29-0.88,0.55-0.96,1.2c-0.14,1.23-0.34,2.46-0.36,3.7
			c-0.13,1.17,0.65,2.51,1.95,1.94c1.86-0.86,2.61-1.84,4.15-4.51C165.92,59.46,165.74,59.44,166.57,59.89z M160.6,56.71
			c1.08-0.71,1.81-1.46,2.22-2.54c0.16-0.4,0.33-0.79-0.04-1.19C161.82,53.76,160.88,55.32,160.6,56.71z"/>
	</g>
	<g>
		<g>
			<g>
				<g>
					<path class="st53" d="M164.93,148.36L164.93,148.36l0.11,0.02c0,0-0.03,0.01-0.1,0.02c-0.06,0.01-0.15,0.03-0.27,0.05
						c-0.23,0.04-0.56,0.08-0.93,0.09c-0.37,0.01-0.79,0-1.2-0.05c-0.1-0.01-0.2-0.02-0.3-0.03c-0.1-0.01-0.19-0.02-0.3-0.04
						c-0.21-0.03-0.41-0.09-0.59-0.16c-0.31-0.12-0.62-0.29-0.91-0.5c-0.29-0.2-0.56-0.42-0.79-0.63c-0.23-0.2-0.43-0.4-0.57-0.55
						s-0.22-0.27-0.23-0.29l-0.01-0.01c-0.13-0.21-0.2-0.3-0.24-0.35c-0.02-0.02-0.03-0.03-0.04-0.04
						c-0.01-0.01-0.01-0.01-0.01-0.01c-0.03-0.04,0.11-0.27,0.2-0.21c0,0,0,0,0.01,0.01c0.01,0.01,0.03,0.03,0.06,0.06
						c0.06,0.06,0.14,0.18,0.27,0.37l-0.01-0.01c0.02,0.01,0.11,0.1,0.26,0.22s0.35,0.28,0.6,0.46c0.24,0.18,0.52,0.37,0.79,0.54
						c0.28,0.17,0.56,0.31,0.82,0.41c0.15,0.06,0.31,0.11,0.49,0.14c0.09,0.02,0.19,0.03,0.28,0.05c0.1,0.02,0.19,0.03,0.29,0.05
						c0.39,0.06,0.78,0.11,1.14,0.14c0.35,0.02,0.66,0.02,0.88,0c0.11-0.01,0.2-0.01,0.26-0.02c0.06-0.01,0.09-0.01,0.09-0.01
						l0.06-0.01l0.04,0.03c0.02,0.01,0.02,0.01,0.02,0.01c0.02,0.02,0.03,0.04,0.02,0.05c0,0.01,0,0.01-0.01,0.01
						c-0.01,0.01-0.02,0.02-0.02,0.02l-0.01,0.01c0,0.01-0.01,0.01-0.01,0.02c-0.01,0.01-0.02,0.03-0.03,0.04
						c-0.02,0.03-0.04,0.05-0.08,0.06c-0.02,0-0.03,0-0.05,0C164.93,148.34,164.92,148.35,164.93,148.36z"/>
				</g>
			</g>
		</g>
		<g>
			<g>
				<g>
					<g>
						<path class="st53" d="M169.85,128.38L169.85,128.38c0,0.01,0,0.02,0.01,0.03c0.01,0.02,0.02,0.04,0.04,0.05l0.15,0.01
							c0,0-0.03,0.02-0.09,0.05c-0.03,0.02-0.06,0.04-0.1,0.06s-0.09,0.04-0.14,0.07c-0.21,0.1-0.53,0.21-0.9,0.26
							c-0.37,0.05-0.79,0.05-1.2,0c-0.41-0.05-0.8-0.14-1.14-0.24c-0.68-0.2-1.53-0.54-2.17-0.94c-0.32-0.2-0.57-0.42-0.73-0.62
							c-0.08-0.1-0.13-0.19-0.16-0.25c-0.03-0.06-0.04-0.1-0.04-0.1c-0.03-0.09,0.24-0.16,0.27-0.11c0,0,0.01,0.03,0.04,0.07
							c0.03,0.04,0.08,0.11,0.15,0.18c0.14,0.14,0.39,0.32,0.69,0.47c0.61,0.32,1.45,0.58,2.11,0.77c0.32,0.1,0.69,0.2,1.06,0.27
							c0.37,0.07,0.74,0.1,1.08,0.09c0.33-0.02,0.62-0.08,0.82-0.15c0.05-0.02,0.09-0.03,0.13-0.05c0.04-0.02,0.07-0.03,0.1-0.04
							c0.05-0.02,0.09-0.03,0.09-0.03l0.08-0.03l0.06,0.04c0.04,0.02,0.07,0.06,0.08,0.09c0.01,0.03,0.01,0.05,0.01,0.06
							c0,0.02,0,0.02,0,0.02c-0.01,0.04-0.03,0.04-0.06,0.04c-0.03,0-0.06,0.01-0.09,0.02c-0.03,0.01-0.07,0.01-0.09-0.01
							C169.87,128.41,169.86,128.38,169.85,128.38z"/>
					</g>
				</g>
			</g>
			<g>
				<g>
					<g>
						<path class="st53" d="M169.89,128.3c0,0,0,0-0.01-0.05l0.01,0.02c0,0-0.01-0.02-0.04-0.06c-0.03-0.04-0.07-0.1-0.15-0.16
							c-0.15-0.13-0.4-0.26-0.72-0.38c-0.63-0.24-1.48-0.41-2.14-0.55c-0.08-0.02-0.17-0.04-0.26-0.06
							c-0.05-0.01-0.1-0.02-0.14-0.03c-0.05-0.01-0.1-0.03-0.14-0.04c-0.18-0.05-0.37-0.11-0.56-0.16c-0.38-0.1-0.75-0.19-1.09-0.22
							c-0.34-0.04-0.63-0.02-0.83,0.02c-0.05,0.01-0.09,0.02-0.13,0.03c-0.04,0.01-0.07,0.02-0.1,0.03
							c-0.05,0.02-0.08,0.03-0.08,0.03c-0.06,0.02-0.2-0.22-0.13-0.26c0,0,0.03-0.02,0.09-0.05c0.03-0.02,0.07-0.03,0.11-0.05
							c0.04-0.02,0.09-0.04,0.15-0.06c0.23-0.08,0.57-0.13,0.94-0.13c0.38,0,0.79,0.06,1.19,0.14c0.2,0.04,0.4,0.09,0.58,0.13
							c0.04,0.01,0.09,0.02,0.13,0.03c0.04,0.01,0.09,0.02,0.13,0.02c0.09,0.02,0.18,0.04,0.27,0.05c0.68,0.14,1.54,0.38,2.2,0.71
							c0.33,0.16,0.61,0.35,0.78,0.53c0.09,0.09,0.14,0.18,0.18,0.25c0.02,0.03,0.03,0.06,0.03,0.08c0.01,0.02,0.01,0.03,0.01,0.03
							v0.01v0.01c0.01,0.05,0.01,0.05,0.01,0.05C170.16,128.31,169.92,128.37,169.89,128.3z"/>
					</g>
				</g>
			</g>
		</g>
		<g>
			<g>
				<g>
					<path class="st53" d="M164.06,129.92c0,0,0-0.01-0.04-0.17l0.11-0.18l-0.11,0.18l0,0l0,0l0,0l0,0l0,0l0,0l0,0l0,0l0,0l0,0
						c0,0,0,0,0-0.01l0,0l0,0l0,0l0,0l0,0l0.11-0.18l0,0l0,0l0,0h0.01c0.01,0,0.01,0,0.02-0.01l-0.11,0.1
						c0-0.01,0.01-0.03,0.02-0.07c0.01-0.02,0.01-0.04,0.03-0.07c0.01-0.02,0.03-0.05,0.05-0.08c0.04-0.06,0.11-0.12,0.2-0.16
						c0.04-0.03,0.09-0.04,0.14-0.05c0.05-0.01,0.11-0.02,0.16-0.02c0.22,0,0.46,0.09,0.63,0.31c0.04,0.05,0.07,0.11,0.1,0.17
						c0.02,0.06,0.04,0.13,0.05,0.19c0,0.06,0.01,0.13,0,0.19c-0.01,0.06-0.02,0.12-0.04,0.18c-0.1,0.25-0.32,0.45-0.61,0.52
						c-0.14,0.03-0.29,0.03-0.44-0.02c-0.07-0.03-0.14-0.07-0.19-0.11c-0.05-0.05-0.09-0.09-0.13-0.14
						c-0.08-0.11-0.11-0.23-0.12-0.33c-0.01-0.1,0.01-0.19,0.03-0.26c0.02-0.07,0.04-0.12,0.06-0.15s0.03-0.05,0.03-0.05
						c0.03-0.04,0.27,0.09,0.27,0.12c0,0,0,0.01-0.01,0.04c-0.01,0.02-0.01,0.06-0.01,0.11c-0.01,0.09,0.02,0.2,0.09,0.26
						c0.02,0.02,0.05,0.04,0.07,0.05c0.02,0.01,0.04,0.02,0.06,0.02c0.04,0.01,0.1,0,0.15-0.02c0.11-0.04,0.19-0.14,0.22-0.22
						c0.01-0.01,0.01-0.03,0.01-0.05c0.01-0.02,0-0.04,0.01-0.06c0-0.02-0.01-0.04,0-0.06c-0.01-0.02-0.01-0.04-0.02-0.05
						c-0.02-0.04-0.05-0.07-0.09-0.1c-0.04-0.03-0.09-0.05-0.13-0.06c-0.09-0.02-0.16,0-0.21,0.03c-0.01,0.01-0.02,0.02-0.03,0.02
						c-0.01,0.01-0.02,0.02-0.02,0.03c-0.01,0.02-0.02,0.02-0.03,0.03l-0.11,0.1c-0.01,0-0.02,0-0.02,0h-0.01l0,0l0,0l0,0l0.11-0.18
						l0,0l0,0l0,0l0,0l0,0v0.01l0,0l0,0l0,0l0,0l0,0l0,0l0,0l0,0l0,0l0,0l-0.11,0.18l0.11-0.18c0.03,0.17,0.04,0.18,0.04,0.18
						C164.32,129.89,164.08,129.95,164.06,129.92z"/>
				</g>
			</g>
		</g>
		<g>
			<g>
				<g>
					<path class="st53" d="M166.13,131.61c0,0,0,0,0.01-0.03c0.01-0.01,0.02-0.03,0.04-0.05c0.02-0.02,0.03-0.03,0.03-0.03
						l-0.01,0.02c0-0.01,0.03-0.12,0.14-0.27c0.06-0.07,0.13-0.16,0.24-0.23c0.11-0.07,0.25-0.13,0.4-0.16
						c0.16-0.02,0.32-0.01,0.5,0.07c0.09,0.04,0.17,0.09,0.24,0.17c0.07,0.07,0.13,0.17,0.16,0.26c0.07,0.19,0.06,0.39,0.02,0.55
						c-0.04,0.17-0.11,0.31-0.2,0.44c-0.1,0.13-0.22,0.25-0.39,0.34s-0.38,0.13-0.58,0.08c-0.11-0.02-0.21-0.07-0.29-0.13
						c-0.08-0.06-0.15-0.13-0.2-0.21c-0.1-0.15-0.16-0.31-0.18-0.47c-0.02-0.16-0.01-0.31,0.03-0.44c0.04-0.13,0.12-0.25,0.21-0.32
						c0.09-0.07,0.18-0.1,0.24-0.11c0.06-0.01,0.09-0.01,0.09-0.01c0.07,0,0.06,0.28,0.03,0.29c0,0,0,0-0.01,0
						c-0.01,0-0.02,0.01-0.03,0.01c-0.03,0.01-0.06,0.03-0.09,0.06c-0.03,0.03-0.06,0.09-0.07,0.16c-0.01,0.08-0.01,0.17,0.02,0.27
						c0.03,0.1,0.08,0.19,0.14,0.27c0.06,0.07,0.14,0.11,0.2,0.11c0.08,0.01,0.16-0.01,0.24-0.06c0.08-0.04,0.14-0.11,0.2-0.19
						c0.05-0.07,0.1-0.15,0.12-0.24c0.03-0.09,0.03-0.18,0.02-0.25c-0.02-0.07-0.05-0.12-0.12-0.16c-0.07-0.04-0.17-0.07-0.25-0.07
						c-0.17,0-0.33,0.09-0.42,0.18c-0.09,0.09-0.13,0.16-0.13,0.17l-0.01,0.02c-0.05,0.07-0.06,0.07-0.06,0.07
						C166.36,131.73,166.11,131.72,166.13,131.61z"/>
				</g>
			</g>
		</g>
		<g>
			<g>
				<g>
					<path class="st53" d="M164.44,133.25c0,0,0-0.01,0-0.02c0-0.01,0-0.04,0-0.06c0-0.05,0.01-0.13,0.04-0.22
						c0.02-0.04,0.04-0.09,0.08-0.14c0.04-0.05,0.1-0.1,0.19-0.14c0.1-0.04,0.23-0.02,0.32,0.03c0.1,0.05,0.15,0.11,0.2,0.18
						l-0.02-0.02c0.03,0.03,0.08,0.07,0.13,0.17c0.01,0.02,0.02,0.05,0.03,0.08c0.01,0.03,0.02,0.06,0.02,0.1
						c0,0.04,0,0.07-0.01,0.11c-0.01,0.04-0.02,0.07-0.03,0.1c-0.06,0.13-0.17,0.21-0.26,0.26c-0.1,0.05-0.19,0.07-0.28,0.07
						c-0.18,0.01-0.32-0.06-0.35-0.09l-0.1-0.1c-0.04-0.11-0.05-0.21-0.04-0.29c0.01-0.08,0.04-0.14,0.06-0.18
						c0.02-0.04,0.04-0.07,0.05-0.08c0.01-0.02,0.02-0.02,0.02-0.02c0.02-0.02,0.25,0.13,0.25,0.15c0,0-0.01,0.02-0.02,0.07
						c-0.01,0.05-0.01,0.11,0.04,0.2l-0.1-0.1c0.02-0.02,0.06-0.02,0.13-0.05c0.03-0.01,0.07-0.03,0.09-0.05
						c0.01-0.01,0.02-0.02,0.02-0.02l0,0l0.02,0.01c0.01,0.01,0.02,0.01,0.03,0.02c0,0,0,0,0.01,0s0,0-0.01,0h-0.01
						c0,0-0.03,0-0.04,0.01h-0.01l0,0l0,0c0-0.01-0.01-0.04-0.01-0.05l-0.02-0.02c-0.01-0.01-0.01-0.03-0.02-0.03v-0.01
						c0-0.01,0,0,0-0.01c0.04-0.06,0.02-0.08,0.03-0.04c0,0.01,0.01,0.02,0.01,0.03l0,0c0,0-0.01,0-0.02,0
						c-0.02,0.01-0.03,0.02-0.05,0.04c-0.06,0.07-0.07,0.12-0.07,0.12C164.7,133.25,164.46,133.28,164.44,133.25z"/>
				</g>
			</g>
		</g>
	</g>
	<g>
		<g>
			<g>
				<path class="st53" d="M49.69,21.39c0.11,0.78,0.14,4.54-0.29,4.38c-0.22-0.08-0.28-0.37-0.3-0.61c-0.09-1.28-0.24-2.8,0.56-3.89
					C49.68,21.3,49.69,21.34,49.69,21.39z"/>
			</g>
		</g>
	</g>
	<g>
		<g>
			<g>
				<path class="st53" d="M34.01,26.26c0.06-0.06,0.19-0.09,0.42-0.06c1.13,0.12,2.17,2.23,2.39,3.15c0.02,0.07,0.03,0.14,0,0.2
					c-0.09,0.2-0.39,0.05-0.53-0.12c-0.52-0.62-1.03-1.24-1.53-1.88C34.49,27.2,33.77,26.49,34.01,26.26z"/>
			</g>
		</g>
	</g>
	<g>
		<g>
			<g>
				<path class="st53" d="M24.39,36.12c0.64-0.96,4.12,1.23,4.81,1.62c-0.26,0.16-0.51,0.18-0.82,0.16
					C27.9,37.87,23.88,36.9,24.39,36.12z"/>
			</g>
		</g>
	</g>
	<g>
		<g>
			<g>
				<path class="st53" d="M21.81,48.82c1.53-0.68,3.51-0.85,5.17-1.05c0.12-0.01,0.26-0.02,0.34,0.07c0.17,0.19-0.13,0.44-0.37,0.51
					C25.5,48.77,24,49.02,22.5,49.1C22.2,49.11,21.97,49.07,21.81,48.82z"/>
			</g>
		</g>
	</g>
	<g>
		<g>
			<path class="st53" d="M43.93,64.92v65.97c2.62-0.29,5.24-0.58,7.86-0.87V81.27c0.05,0,0.11,0.01,0.16,0.01
				c3.53,16.42,7.06,32.27,10.59,47.55c3.02-0.33,6.04-0.67,9.07-1v-62.4c-2.62-0.29-5.24-0.58-7.86-0.87v38.39
				c-0.05,0-0.11,0-0.16,0C60.73,90.21,57.87,77.09,55,63.59l-11.07-1.38V64.92z M68.19,124.05c0,0.29-0.2,0.53-0.49,0.58
				l-2.16,0.41c-0.31,0.06-0.61-0.14-0.69-0.45L51.71,70.02h-2.99v56.05c0,0.33-0.27,0.6-0.6,0.6c-0.33,0-0.6-0.27-0.6-0.6V69.43
				c0-0.33,0.27-0.59,0.6-0.59h4.06c0.28,0,0.51,0.19,0.58,0.46l13.12,54.48l1.12-0.21V69.7c0-0.33,0.27-0.6,0.6-0.6
				c0.33,0,0.59,0.27,0.59,0.6V124.05z"/>
			<path class="st53" d="M106.28,77.09c0-2.61,0-5.21,0-7.82c-8.02-0.89-16.05-1.78-24.07-2.67c0,20.02,0,40.03,0,60.05
				c8.02-0.89,16.05-1.78,24.07-2.66c0-2.61,0-5.21,0-7.82c-5.08,0.4-10.16,0.8-15.25,1.21c0-5.95,0-11.9,0-17.84
				c4.04-0.04,8.08-0.09,12.12-0.13c0-2.64,0-5.28,0-7.92c-4.04-0.08-8.08-0.17-12.12-0.25c0-5.12,0-10.24,0-15.35
				C96.11,76.28,101.19,76.68,106.28,77.09z M100.65,94.72c0.33,0,0.59,0.27,0.59,0.6c0,0.33-0.27,0.6-0.59,0.6H87.39v25.32
				l15.31-1.3c0.32-0.02,0.62,0.22,0.64,0.54c0.03,0.33-0.22,0.62-0.54,0.64l-15.95,1.35c-0.02,0-0.03,0-0.05,0
				c-0.15,0-0.29-0.06-0.4-0.16c-0.12-0.11-0.19-0.27-0.19-0.44V71.05c0-0.17,0.07-0.33,0.2-0.44c0.12-0.11,0.29-0.17,0.46-0.15
				l15.95,1.55c0.33,0.03,0.57,0.32,0.53,0.65c-0.03,0.33-0.32,0.56-0.65,0.53L87.4,71.7v23.02H100.65z"/>
			<path class="st53" d="M147.92,73.88c-1.31,11.51-2.62,23.25-3.93,35.2c-0.05,0-0.11,0.01-0.16,0.01
				c-1.39-11.81-2.78-23.85-4.17-36.13c-3.21-0.36-6.42-0.71-9.63-1.07c-1.39,12.52-2.78,25.27-4.17,38.26
				c-0.05,0-0.11,0.01-0.16,0.01c-1.31-12.84-2.62-25.9-3.93-39.19c-2.84-0.31-5.67-0.63-8.51-0.94c1.9,17.93,3.8,35.45,5.7,52.54
				c3.9-0.43,7.81-0.86,11.71-1.3c1.34-11.23,2.68-22.27,4.01-33.1c0.05,0,0.11,0,0.16,0.01c1.34,10.93,2.68,21.66,4.01,32.19
				c3.66-0.41,7.33-0.81,10.99-1.22c1.9-15.23,3.8-30.05,5.7-44.44C153,74.44,150.46,74.16,147.92,73.88z M146.46,116.29
				c-0.04,0.27-0.26,0.48-0.53,0.51l-3.85,0.41c-0.32,0.03-0.61-0.19-0.65-0.51l-5.21-39.49l-2.4-0.28l-5.4,40.99
				c-0.04,0.28-0.26,0.49-0.54,0.51l-4.46,0.41c-0.02,0-0.04,0-0.05,0c-0.3,0-0.56-0.22-0.59-0.53l-5.07-44.62
				c-0.04-0.33,0.2-0.62,0.53-0.66c0.32-0.04,0.62,0.2,0.66,0.53l5,44.04l3.41-0.31l5.41-41.1c0.04-0.32,0.34-0.55,0.66-0.51
				l3.45,0.41c0.27,0.03,0.49,0.24,0.52,0.51l5.2,39.38l2.82-0.3l5.61-38.28c0.05-0.33,0.35-0.55,0.68-0.5
				c0.33,0.05,0.55,0.35,0.5,0.68L146.46,116.29z"/>
		</g>
	</g>
	<g>
		<path class="st53" d="M164,108.03c-1.1-1.93-1.5-3.56,0.03-5.3c0.94-1.08,1.89-2.01,2.34-3.4c0.55-1.73-0.14-3.72-0.85-5.29
			c-1.07-2.34-2.06-3.73,0.19-5.79c0.71-0.65-0.35-1.7-1.05-1.05c-1.51,1.38-2.35,2.91-1.69,4.94c0.75,2.29,2.55,4.21,1.97,6.8
			c-0.37,1.64-2.14,2.7-2.97,4.11c-1.1,1.88-0.23,4.03,0.75,5.74C163.19,109.62,164.48,108.87,164,108.03L164,108.03z"/>
	</g>
	<polygon class="st53" points="163.05,153.73 169.14,159.82 171.57,153.12 	"/>
	<polygon class="st53" points="176.13,55.47 177.33,57.89 180,58.27 178.07,60.16 178.52,62.82 176.13,61.56 173.75,62.82 
		174.2,60.16 172.27,58.27 174.94,57.89 	"/>
	<polygon class="st53" points="27.93,123.97 30.46,124.9 32.67,123.35 32.56,126.05 34.72,127.67 32.12,128.4 31.25,130.95 
		29.75,128.7 27.05,128.66 28.73,126.55 	"/>
	<g>
		<g>
			<g>
				<path class="st53" d="M40.31,154.18c0,0,0,0,0.03-0.01s0.09-0.04,0.21-0.11l0.04-0.02h0.04c0.01,0,0.09-0.01,0.24,0
					c0.15,0.01,0.36,0.04,0.61,0.14c0.25,0.1,0.52,0.26,0.77,0.52c0.13,0.12,0.24,0.27,0.35,0.43c0.1,0.17,0.19,0.35,0.25,0.55
					s0.1,0.42,0.11,0.63c0,0.05,0.01,0.11,0.01,0.16c0,0.06,0,0.11,0,0.17s0,0.11,0,0.17l-0.02,0.17c-0.06,0.45-0.26,0.92-0.58,1.27
					c-0.32,0.36-0.72,0.62-1.13,0.79c-0.42,0.17-0.85,0.24-1.25,0.25c-0.42,0-0.88-0.06-1.32-0.25c-0.11-0.05-0.22-0.1-0.32-0.17
					c-0.05-0.03-0.11-0.06-0.16-0.1l-0.15-0.12c-0.19-0.17-0.36-0.38-0.47-0.62c-0.07-0.11-0.1-0.24-0.14-0.37
					c-0.02-0.06-0.03-0.13-0.04-0.19c-0.01-0.06-0.02-0.13-0.02-0.19c0-0.13-0.02-0.25,0-0.37l0.02-0.18
					c0.01-0.06,0.02-0.12,0.03-0.17l0.04-0.17c0.01-0.06,0.04-0.11,0.05-0.17c0.03-0.12,0.09-0.22,0.14-0.32
					c0.11-0.2,0.22-0.39,0.36-0.55c0.53-0.66,1.19-1.03,1.71-1.17c0.13-0.03,0.25-0.06,0.36-0.06c0.05,0,0.1-0.01,0.15-0.01
					c0.05,0,0.09,0,0.13,0.01c0.08,0,0.13,0.01,0.17,0.02c0.04,0.01,0.06,0.01,0.06,0.01c0.19,0.04,0.07,0.39-0.06,0.38
					c0,0-0.06-0.02-0.18-0.01c-0.03,0-0.06,0-0.1,0s-0.08,0.01-0.12,0.02c-0.08,0.01-0.18,0.04-0.28,0.07
					c-0.21,0.07-0.45,0.19-0.69,0.38c-0.24,0.18-0.49,0.42-0.69,0.71c-0.1,0.14-0.19,0.3-0.27,0.47c-0.03,0.08-0.07,0.17-0.09,0.25
					c-0.01,0.04-0.03,0.08-0.03,0.13l-0.02,0.14c-0.06,0.37-0.03,0.75,0.14,1.05c0.16,0.3,0.45,0.52,0.78,0.66
					c0.33,0.13,0.69,0.18,1.02,0.18c0.32-0.01,0.67-0.06,1-0.18c0.33-0.12,0.64-0.32,0.89-0.57c0.24-0.25,0.4-0.58,0.47-0.92
					l0.03-0.13l0.01-0.13l0.01-0.13c0-0.05,0-0.09-0.01-0.13c0-0.18-0.02-0.35-0.06-0.5c-0.04-0.16-0.1-0.3-0.17-0.44
					c-0.08-0.13-0.16-0.26-0.25-0.36c-0.18-0.21-0.39-0.36-0.58-0.45c-0.19-0.09-0.35-0.12-0.47-0.14
					c-0.12-0.01-0.18-0.01-0.19-0.02l0.09-0.02c-0.13,0.07-0.2,0.11-0.24,0.12c-0.04,0.02-0.04,0.02-0.04,0.02
					c-0.1,0.02-0.18-0.06-0.19-0.15C40.26,154.3,40.26,154.21,40.31,154.18z"/>
			</g>
		</g>
	</g>
	<g>
		<g>
			<g>
				<path class="st53" d="M37.96,163.45c0,0-0.01,0-0.03,0c-0.02,0-0.07,0-0.15,0.04c-0.08,0.03-0.17,0.1-0.26,0.19
					s-0.18,0.21-0.22,0.33c-0.05,0.14-0.08,0.29-0.06,0.41c0.02,0.12,0.08,0.21,0.19,0.29c0.11,0.08,0.25,0.13,0.4,0.15
					c0.15,0.02,0.3,0.02,0.44-0.01c0.28-0.04,0.56-0.18,0.7-0.42c0.07-0.12,0.1-0.25,0.08-0.38c-0.01-0.13-0.08-0.25-0.17-0.35
					c-0.09-0.1-0.21-0.19-0.33-0.25c-0.12-0.06-0.23-0.1-0.33-0.12c-0.1-0.02-0.17-0.03-0.23-0.03c-0.05,0-0.08,0.01-0.08,0
					c-0.06,0-0.17-0.35-0.07-0.38c0,0,0.01,0,0.03-0.01c0.02,0,0.05-0.01,0.09-0.02c0.08-0.01,0.18-0.02,0.32-0.01
					c0.26,0.02,0.64,0.1,0.99,0.4c0.17,0.15,0.33,0.36,0.4,0.63c0.07,0.26,0.03,0.57-0.08,0.81c-0.11,0.25-0.31,0.46-0.52,0.59
					c-0.21,0.14-0.45,0.21-0.66,0.25c-0.22,0.03-0.45,0.04-0.69-0.01c-0.24-0.05-0.49-0.15-0.7-0.33c-0.22-0.18-0.38-0.48-0.38-0.76
					c-0.01-0.28,0.07-0.52,0.17-0.71c0.12-0.21,0.26-0.36,0.41-0.47c0.15-0.11,0.3-0.19,0.44-0.23c0.14-0.04,0.29-0.04,0.39-0.01
					c0.05,0.01,0.09,0.04,0.11,0.05c0.03,0.01,0.04,0.02,0.04,0.02C38.26,163.25,37.97,163.43,37.96,163.45z"/>
			</g>
		</g>
	</g>
	<g>
		<g>
			<g>
				<path class="st53" d="M34.38,158.66c0,0,0.02-0.02,0.06-0.06c0.05-0.03,0.11-0.08,0.21-0.13c0.1-0.04,0.23-0.08,0.39-0.08
					c0.15,0,0.32,0.05,0.48,0.14c0.15,0.09,0.29,0.21,0.4,0.37c0.11,0.15,0.19,0.33,0.22,0.54c0.04,0.2,0.01,0.44-0.1,0.64
					c-0.11,0.2-0.28,0.35-0.44,0.43c-0.08,0.04-0.17,0.08-0.26,0.1c-0.09,0.02-0.18,0.03-0.28,0.04c-0.2,0.01-0.42-0.04-0.62-0.16
					c-0.19-0.12-0.33-0.31-0.4-0.49c-0.07-0.19-0.09-0.37-0.08-0.54c0.03-0.34,0.19-0.62,0.36-0.76c0.08-0.07,0.16-0.12,0.21-0.14
					c0.03-0.01,0.05-0.02,0.06-0.03c0.01-0.01,0.02-0.01,0.02-0.01c0.07-0.02,0.18,0.33,0.15,0.35c0,0-0.07,0.04-0.14,0.13
					c-0.07,0.09-0.13,0.26-0.11,0.46c0.01,0.1,0.04,0.2,0.09,0.27c0.05,0.08,0.11,0.14,0.18,0.16c0.06,0.03,0.14,0.04,0.23,0.03
					c0.04,0,0.09-0.02,0.13-0.03c0.04-0.01,0.08-0.03,0.11-0.05c0.07-0.03,0.12-0.07,0.15-0.12c0.03-0.05,0.06-0.12,0.05-0.21
					c0-0.18-0.11-0.41-0.25-0.52c-0.14-0.12-0.29-0.14-0.41-0.12c-0.06,0.01-0.11,0.03-0.14,0.05c-0.03,0.02-0.05,0.03-0.05,0.03
					C34.55,158.96,34.34,158.71,34.38,158.66z"/>
			</g>
		</g>
	</g>
	<g>
		<g>
			<g>
				<path class="st53" d="M171.75,109.17c0,0-0.01,0-0.03,0s-0.07,0-0.15,0.04c-0.08,0.03-0.17,0.1-0.26,0.19
					c-0.09,0.09-0.18,0.21-0.22,0.33c-0.05,0.14-0.08,0.29-0.06,0.41c0.02,0.12,0.08,0.21,0.19,0.29c0.11,0.08,0.25,0.13,0.4,0.15
					c0.15,0.02,0.3,0.02,0.44-0.01c0.28-0.04,0.56-0.18,0.7-0.42c0.07-0.12,0.1-0.25,0.08-0.38c-0.01-0.13-0.08-0.25-0.17-0.35
					c-0.09-0.1-0.21-0.19-0.33-0.25c-0.12-0.06-0.23-0.1-0.33-0.12c-0.1-0.02-0.17-0.03-0.23-0.03c-0.05,0-0.08,0.01-0.08,0
					c-0.06,0-0.17-0.35-0.07-0.38c0,0,0.01,0,0.03-0.01c0.02,0,0.05-0.01,0.09-0.02c0.08-0.01,0.18-0.02,0.32-0.01
					c0.26,0.02,0.64,0.1,0.99,0.4c0.17,0.15,0.33,0.36,0.4,0.63c0.07,0.26,0.03,0.57-0.08,0.81c-0.11,0.25-0.31,0.46-0.52,0.59
					c-0.21,0.14-0.45,0.21-0.66,0.25c-0.22,0.03-0.45,0.04-0.69-0.01c-0.24-0.05-0.49-0.15-0.7-0.33c-0.22-0.18-0.38-0.48-0.38-0.76
					c-0.01-0.28,0.07-0.52,0.17-0.71c0.12-0.21,0.26-0.36,0.41-0.47c0.15-0.11,0.3-0.19,0.44-0.23s0.29-0.04,0.39-0.01
					c0.05,0.01,0.09,0.04,0.11,0.05c0.03,0.01,0.04,0.02,0.04,0.02C172.05,108.98,171.77,109.16,171.75,109.17z"/>
			</g>
		</g>
	</g>
	<g>
		<g>
			<g>
				<path class="st53" d="M168.17,104.38c0,0,0.02-0.02,0.06-0.06c0.05-0.03,0.11-0.08,0.21-0.13c0.1-0.04,0.23-0.08,0.39-0.08
					c0.15,0,0.32,0.05,0.48,0.14c0.15,0.09,0.29,0.21,0.4,0.37c0.11,0.15,0.19,0.33,0.22,0.54c0.04,0.2,0.01,0.44-0.1,0.64
					c-0.11,0.2-0.28,0.35-0.44,0.43c-0.08,0.04-0.17,0.08-0.26,0.1c-0.09,0.02-0.18,0.03-0.28,0.04c-0.2,0.01-0.42-0.04-0.62-0.16
					c-0.19-0.12-0.33-0.31-0.4-0.49c-0.07-0.19-0.09-0.37-0.08-0.54c0.03-0.34,0.19-0.62,0.36-0.76c0.08-0.07,0.16-0.12,0.21-0.14
					c0.03-0.01,0.05-0.02,0.06-0.03c0.01-0.01,0.02-0.01,0.02-0.01c0.07-0.02,0.18,0.33,0.15,0.35c0,0-0.07,0.04-0.14,0.13
					c-0.07,0.09-0.13,0.26-0.11,0.46c0.01,0.1,0.04,0.2,0.09,0.27c0.05,0.08,0.11,0.14,0.18,0.16c0.06,0.03,0.14,0.04,0.23,0.03
					c0.04,0,0.09-0.02,0.13-0.03c0.04-0.01,0.08-0.03,0.11-0.05c0.07-0.03,0.12-0.07,0.15-0.12s0.06-0.12,0.05-0.21
					c0-0.18-0.11-0.41-0.25-0.52c-0.14-0.12-0.29-0.14-0.41-0.12c-0.06,0.01-0.11,0.03-0.14,0.05c-0.03,0.02-0.05,0.03-0.05,0.03
					C168.35,104.68,168.13,104.44,168.17,104.38z"/>
			</g>
		</g>
	</g>
</g>
</svg>
