<?xml version="1.0" encoding="utf-8"?>
<!-- Generator: Adobe Illustrator 25.2.1, SVG Export Plug-In . SVG Version: 6.00 Build 0)  -->
<svg version="1.1" id="Layer_1" xmlns="http://www.w3.org/2000/svg" xmlns:xlink="http://www.w3.org/1999/xlink" x="0px" y="0px"
	 viewBox="0 0 180 146.12" style="enable-background:new 0 0 180 146.12;" xml:space="preserve">
<style type="text/css">
	.st0{fill:#9BB5DF;}
	.st1{fill:#F5C117;}
	.st2{fill:#BD2926;}
	.st3{fill:#381F23;}
	.st4{fill:#D9B028;}
	.st5{fill:#CA9A2C;}
	.st6{fill:#B7872D;}
	.st7{fill:#333333;}
	.st8{fill:#FDF49A;}
	.st9{fill:#F9E86F;}
	.st10{fill:#EB9E22;}
	.st11{fill:#EBC424;}
	.st12{fill:#010101;}
	.st13{fill:#B49930;}
	.st14{fill:#F3C423;}
	.st15{fill:#010201;}
	.st16{fill-rule:evenodd;clip-rule:evenodd;}
	.st17{fill:#1A1B1B;}
	.st18{fill:#FDFDFD;}
	.st19{fill-rule:evenodd;clip-rule:evenodd;fill:url(#SVGID_1_);}
	.st20{fill:#23292D;}
	.st21{fill:#DD9C27;}
	.st22{fill:#F2664F;}
	.st23{fill:url(#SVGID_2_);}
	.st24{fill:url(#SVGID_3_);}
	.st25{fill:url(#SVGID_4_);}
	.st26{fill:url(#SVGID_5_);}
	.st27{fill:url(#SVGID_6_);}
	.st28{fill:url(#SVGID_7_);}
	.st29{fill:url(#SVGID_8_);}
	.st30{fill:url(#SVGID_9_);}
	.st31{fill:url(#SVGID_10_);}
	.st32{fill:url(#SVGID_11_);}
	.st33{fill:none;stroke:#D9B028;stroke-width:3;stroke-miterlimit:10;}
	.st34{opacity:0.19;}
	.st35{stroke:#000000;stroke-width:3;stroke-miterlimit:10;}
	.st36{fill:#FAA82F;}
	.st37{opacity:0.42;}
	.st38{opacity:0.1091;}
	.st39{fill:#FEBC16;}
	.st40{fill:#E43C7D;}
	.st41{fill:#FFFFFF;}
	.st42{fill:#E7B831;}
	.st43{fill:#AB7136;}
	.st44{fill:none;stroke:#010101;stroke-miterlimit:10;}
	.st45{fill:#8CB5D7;}
	.st46{fill:#F5C117;stroke:#000000;stroke-miterlimit:10;}
	.st47{fill:none;stroke:#010101;stroke-width:0.75;stroke-miterlimit:10;}
	.st48{fill:none;stroke:#010101;stroke-width:0.5;stroke-miterlimit:10;}
	.st49{fill:none;stroke:#F5C117;stroke-miterlimit:10;}
	.st50{fill:#F2664F;stroke:#000000;stroke-miterlimit:10;}
	.st51{stroke:#010101;stroke-miterlimit:10;}
	.st52{fill:#231F20;}
	.st53{fill:#E7B82F;}
	.st54{fill:#B39A32;}
	.st55{fill:#D9B128;}
</style>
<g>
	<g>
		<path class="st5" d="M11.16,75.72v38.86h-0.88V75.72H11.16z M12.95,75.72v38.86h-0.91V75.72H12.95z M14.74,75.72v38.86h-0.88
			V75.72H14.74z M16.53,75.72v38.86h-0.91V75.72H16.53z M33.58,91.05V75.72h0.91v38.86h-0.91V99.12H18.31v15.45H17.4V75.72h0.91
			v15.37L33.58,91.05L33.58,91.05z M18.31,92.84h15.26v-0.91H18.31V92.84z M33.58,94.63v-0.88H18.31v0.88H33.58z M18.31,96.42h15.26
			v-0.91H18.31V96.42z M18.31,98.21h15.26v-0.88H18.31V98.21z M36.28,75.72v38.86h-0.91V75.72H36.28z M38.07,75.72v38.86h-0.88
			V75.72H38.07z M39.86,75.72v38.86h-0.91V75.72H39.86z M41.58,75.72v38.86h-0.91V75.72H41.58z"/>
		<path class="st5" d="M60.42,75.72l-15.08,38.86h-0.99l15.16-38.86H60.42z M62.47,75.72l-15.23,38.86h-0.99l15.16-38.86H62.47z
			 M64.36,75.72l-15.23,38.86h-0.99l15.26-38.86H64.36z M66.26,75.72l-15.23,38.86h-0.99l15.26-38.86H66.26z M55.71,107.63
			l-2.74,6.97h-0.95l15.23-38.89h0.99l15.16,38.86H82.4L67.69,76.92l-0.44,1.21l14.17,36.48h-0.95L66.74,79.4l-0.44,1.21l13.26,34
			h-0.99L65.79,81.82l-0.44,1.24l12.34,31.55h-0.99L64.88,84.23l-0.44,1.35l11.28,29.03h-0.95l-2.7-6.97H55.71z M71.7,106.72
			l-0.37-0.84H56.37L56,106.72H71.7z M57.1,104.09L56.7,105h14.28l-0.37-0.91H57.1z M57.75,102.3l-0.37,0.91h12.89l-0.29-0.91H57.75
			z M58.48,100.51l-0.37,0.91h11.43l-0.29-0.91H58.48z M68.93,99.64l-5.08-12.89l-5,12.89H68.93z"/>
		<path class="st5" d="M86.42,75.72v38.86h-0.91V75.72H86.42z M88.21,75.72v38.86h-0.88V75.72H88.21z M90,75.72v38.86h-0.91V75.72
			H90z M91.79,75.72v38.86h-0.91V75.72H91.79z M97.01,75.72c3.32,0,6.21,1.21,8.58,3.58s3.58,5.26,3.58,8.58s-1.21,6.21-3.58,8.58
			c-2.37,2.37-5.26,3.58-8.58,3.58h-3.43v14.5h-0.91V75.72H97.01z M93.58,76.59v0.91h3.43c2.85,0,5.26,1.06,7.3,3.07
			c2.05,2.05,3.07,4.49,3.07,7.3c0,2.85-1.06,5.33-3.07,7.34c-2.05,2.05-4.49,3.03-7.3,3.03h-3.43v0.91h3.43c3.14,0,5.81-1.1,8-3.29
			c2.19-2.23,3.29-4.86,3.29-8c0-3.14-1.1-5.81-3.29-8c-2.19-2.19-4.86-3.29-8-3.29H93.58z M93.58,78.38v0.88h3.43
			c2.37,0,4.42,0.84,6.06,2.52c1.68,1.68,2.52,3.72,2.52,6.06s-0.84,4.38-2.52,6.06c-1.68,1.68-3.72,2.52-6.06,2.52h-3.43v0.91h3.43
			c2.63,0,4.86-0.95,6.72-2.78c1.83-1.83,2.78-4.09,2.78-6.72c0-2.63-0.95-4.86-2.78-6.72c-1.83-1.83-4.09-2.78-6.72-2.78
			L93.58,78.38L93.58,78.38z M93.58,80.17v0.91h3.43c1.9,0,3.47,0.69,4.82,2.05s1.97,2.92,1.97,4.78c0,1.83-0.69,3.47-2.05,4.82
			s-2.92,1.97-4.78,1.97h-3.43v0.91h3.43c2.15,0,3.94-0.73,5.4-2.23c1.53-1.53,2.3-3.32,2.3-5.48s-0.73-3.94-2.3-5.4
			c-1.5-1.53-3.29-2.3-5.4-2.3L93.58,80.17L93.58,80.17z M93.58,81.96v0.91h3.43c2.78,0,5,2.23,5,5c0,2.78-2.23,5-5,5h-3.43v0.91
			h3.43c1.64,0,3.03-0.58,4.16-1.75c1.13-1.13,1.75-2.52,1.75-4.16c0-1.64-0.58-3.03-1.75-4.16s-2.52-1.75-4.16-1.75H93.58
			L93.58,81.96z M93.58,83.71v8.36h3.43c2.23,0,4.13-1.94,4.13-4.16s-1.9-4.16-4.13-4.16L93.58,83.71L93.58,83.71z"/>
		<path class="st5" d="M112.46,75.72v38.86h-0.91V75.72H112.46z M114.25,75.72v38.86h-0.88V75.72H114.25z M116.04,75.72v38.86h-0.91
			V75.72H116.04z M117.83,75.72v38.86h-0.91V75.72H117.83z M123.05,75.72c3.32,0,6.21,1.21,8.58,3.58c2.37,2.37,3.58,5.26,3.58,8.58
			s-1.21,6.21-3.58,8.58c-2.37,2.37-5.26,3.58-8.58,3.58h-3.43v14.5h-0.88V75.72H123.05z M119.62,76.59v0.91h3.43
			c2.85,0,5.26,1.06,7.3,3.07c2.05,2.05,3.07,4.49,3.07,7.3c0,2.85-1.06,5.33-3.07,7.34c-2.05,2.05-4.49,3.03-7.3,3.03h-3.43v0.91
			h3.43c3.14,0,5.81-1.1,8-3.29c2.19-2.23,3.29-4.86,3.29-8c0-3.14-1.1-5.81-3.29-8c-2.19-2.19-4.86-3.29-8-3.29H119.62z
			 M119.62,78.38v0.88h3.43c2.37,0,4.42,0.84,6.06,2.52c1.68,1.68,2.52,3.72,2.52,6.06s-0.84,4.38-2.52,6.06
			c-1.68,1.68-3.72,2.52-6.06,2.52h-3.43v0.91h3.43c2.63,0,4.86-0.95,6.72-2.78c1.83-1.83,2.78-4.09,2.78-6.72
			c0-2.63-0.95-4.86-2.78-6.72c-1.83-1.83-4.09-2.78-6.72-2.78L119.62,78.38L119.62,78.38z M119.62,80.17v0.91h3.43
			c1.9,0,3.47,0.69,4.82,2.05s1.97,2.92,1.97,4.78c0,1.83-0.69,3.47-2.05,4.82c-1.35,1.35-2.92,1.97-4.78,1.97h-3.43v0.91h3.43
			c2.15,0,3.94-0.73,5.4-2.23c1.53-1.53,2.3-3.32,2.3-5.48s-0.73-3.94-2.3-5.4c-1.5-1.53-3.29-2.3-5.4-2.3L119.62,80.17
			L119.62,80.17z M119.62,81.96v0.91h3.43c2.78,0,5,2.23,5,5c0,2.78-2.23,5-5,5h-3.43v0.91h3.43c1.64,0,3.03-0.58,4.16-1.75
			c1.13-1.13,1.75-2.52,1.75-4.16c0-1.64-0.58-3.03-1.75-4.16s-2.52-1.75-4.16-1.75H119.62L119.62,81.96z M119.62,83.71v8.36h3.43
			c2.23,0,4.13-1.94,4.13-4.16s-1.9-4.16-4.13-4.16L119.62,83.71L119.62,83.71z"/>
		<path class="st5" d="M150.15,114.57h-0.91v-13.95l-12.38-24.91h0.95l12.34,24.91V114.57z M151.93,114.57h-0.88v-13.95
			l-12.23-24.91h0.95l12.16,24.91V114.57z M153.72,114.57h-0.91v-13.95l-12.12-24.91h0.95l12.09,24.91V114.57z M155.51,114.57h-0.91
			v-13.95l-12.09-24.91h0.95l12.01,24.91v13.95H155.51z M156.43,100.62l-11.98-24.91h0.95l7.89,16.51l7.89-16.51h0.95l-8.4,17.49
			l0.44,0.88l8.91-18.41h0.95L154.64,95l0.44,0.95l9.86-20.27h0.95L155.55,96.9l0.44,0.88l10.85-22.13h0.95l-11.32,23.08l0.44,0.91
			l11.87-23.96h0.95l-12.42,24.94v13.95h-0.91v-13.95H156.43z"/>
	</g>
	<g>
		<path class="st36" d="M10.17,123.42l-0.56-1v23.67H9.05v-24.6h0.6l14.25,24.6h-0.71l-9.08-15.78v15.78h-0.56v-16.75L13,128.37
			v17.72h-0.56V127.4l-0.56-1v19.69h-0.56v-20.73l-0.56-0.97v21.7h-0.56L10.17,123.42L10.17,123.42z M11.02,121.48l14.18,24.6h-0.67
			l-14.14-24.6H11.02z M12.33,121.48l14.18,24.6H25.8l-14.14-24.6H12.33z M13.63,121.48l14.18,24.6h-0.67l-14.18-24.6H13.63z
			 M25.73,140.2l0.56,0.97v-19.69h0.56v20.69l0.56,0.97v-21.66h0.56v22.67l0.56,0.93v-23.6h0.56v24.6h-0.71l-14.18-24.6h0.63
			l9.12,15.82v-15.82h0.56v16.78l0.56,0.93v-17.72h0.56v18.72H25.73z"/>
		<path class="st36" d="M31.53,121.48v24.6h-0.56v-24.6H31.53z M32.68,121.48v24.6h-0.56v-24.6H32.68z M33.8,121.48v24.6h-0.56
			v-24.6H33.8z M34.95,121.48v24.6H34.4v-24.6H34.95z M36.07,135.18v0.56h6.85v0.56h-6.85v4.69h9.19v0.56h-9.19v0.56h9.19v0.56
			h-9.19v0.56h9.19v0.56h-9.19v0.56h9.19v0.56h-9.19v0.56h9.19v0.56h-9.75v-24.6h9.75v0.56h-9.19v0.56h9.19v0.56h-9.19v0.56h9.19
			v0.56h-9.19v0.56h9.19v0.56h-9.19v0.56h9.19v0.52h-9.19v4.65h6.85v0.56h-6.85v0.56h6.85v0.56h-6.85v0.56h6.85v0.56h-6.85v0.56
			h6.85v0.56h-6.85V135.18z"/>
		<path class="st36" d="M46.9,121.48l7.07,24.6h-0.6l-7.03-24.6H46.9z M48.09,121.48l7.03,24.6h-0.6l-7.03-24.6H48.09z
			 M49.28,121.48l7.11,24.6h-0.63l-7.03-24.6H49.28z M50.47,121.48l7.03,24.6h-0.56l-7.07-24.6H50.47z M62.27,121.48h0.6
			l-6.29,17.16l0.26,0.97l6.62-18.12h0.63l-7,19.02l0.26,0.93l7.33-19.91h0.6l-7.67,20.88l0.26,0.93l7.96-21.77h0.63l-8.3,22.78
			l0.26,0.93l8.67-23.67h0.6l5.47,16.08l4.58-16.08h0.6l-4.84,16.93l0.3,0.97l5.06-18.05h0.6l-5.32,18.94l0.3,0.93l5.62-19.91h0.56
			l-5.84,20.8l0.3,0.93l6.14-21.73h0.6l-6.44,22.78l0.33,0.93l6.66-23.67h0.56l-6.92,24.6h-0.6L67.3,122.3l-0.3,0.82l7.78,22.93
			h-0.52l-7.52-22l-0.3,0.86l7.26,21.14h-0.6l-6.96-20.36l-0.3,0.82l6.66,19.54h-0.63l-6.36-18.65l-0.3,0.82l6.03,17.83h-0.6
			l-5.81-16.97l-6.18,16.97H58.1L51,121.45h0.6l4.65,16.23L62.27,121.48z"/>
		<path class="st36" d="M97.55,146.08H97v-8.86l-7.85-15.74h0.6l7.82,15.78V146.08z M98.71,146.08h-0.56v-8.86l-7.74-15.78H91
			l7.7,15.78V146.08L98.71,146.08z M99.82,146.08h-0.56v-8.86l-7.67-15.78h0.6l7.67,15.78v8.86H99.82L99.82,146.08z M100.94,146.08
			h-0.56v-8.86l-7.67-15.78h0.6l7.63,15.78V146.08z M101.54,137.26l-7.59-15.78h0.6l4.99,10.46l4.99-10.46h0.6l-5.32,11.09l0.3,0.56
			l5.62-11.65h0.6l-5.95,12.24l0.3,0.6l6.22-12.84h0.6l-6.55,13.44l0.3,0.56l6.85-13.99h0.6l-7.18,14.59l0.3,0.56l7.52-15.18h0.6
			l-7.85,15.78v8.86h-0.56v-8.82H101.54L101.54,137.26z"/>
		<path class="st36" d="M111.77,121.48v24.6h-0.56v-24.6H111.77z M112.89,121.48v24.6h-0.56v-24.6H112.89z M114,121.48v24.6h-0.56
			v-24.6H114z M115.16,121.48v24.6h-0.56v-24.6H115.16z M116.27,135.18v0.56h6.85v0.56h-6.85v4.69h9.19v0.56h-9.19v0.56h9.19v0.56
			h-9.19v0.56h9.19v0.56h-9.19v0.56h9.19v0.56h-9.19v0.56h9.19v0.56h-9.75v-24.6h9.75v0.56h-9.19v0.56h9.19v0.56h-9.19v0.56h9.19
			v0.56h-9.19v0.56h9.19v0.56h-9.19v0.56h9.19v0.52h-9.19v4.65h6.85v0.56h-6.85v0.56h6.85v0.56h-6.85v0.56h6.85v0.56h-6.85v0.56
			h6.85v0.56h-6.85V135.18z"/>
		<path class="st36" d="M137.08,121.48l-9.6,24.6h-0.63l9.6-24.6H137.08z M138.34,121.48l-9.64,24.6h-0.63l9.6-24.6H138.34z
			 M139.53,121.48l-9.64,24.6h-0.63l9.68-24.6H139.53z M140.76,121.48l-9.64,24.6h-0.63l9.68-24.6H140.76z M134.06,141.69
			l-1.75,4.39h-0.6l9.64-24.6h0.63l9.6,24.6h-0.63l-9.3-23.86l-0.3,0.74l8.97,23.11h-0.6l-8.67-22.29l-0.3,0.74l8.41,21.55h-0.63
			l-8.08-20.77l-0.3,0.78l7.82,19.99h-0.63l-7.48-19.24l-0.3,0.86l7.15,18.39h-0.6l-1.71-4.39H134.06z M144.22,141.13l-0.22-0.52
			h-9.49l-0.22,0.52H144.22z M134.96,139.46l-0.26,0.56h9.04l-0.22-0.56H134.96z M135.37,138.31l-0.22,0.56h8.15l-0.19-0.56H135.37z
			 M135.85,137.19l-0.22,0.56h7.26l-0.19-0.56H135.85z M142.44,136.63l-3.2-8.15l-3.16,8.15H142.44z"/>
		<path class="st36" d="M153.38,121.48v24.6h-0.56v-24.6H153.38z M154.5,121.48v24.6h-0.56v-24.6H154.5z M155.65,121.48v24.6h-0.56
			v-24.6H155.65z M156.77,121.48v24.6h-0.56v-24.6H156.77z M164.4,135.92l4.09,10.16h-0.6l-5.92-14.59
			c0.86-0.71,1.27-1.45,1.27-2.31c0-1.41-1.19-2.64-2.61-2.64h-2.72v6.14h0.3l5.4,13.4h-0.6l-5.1-12.62v12.62h-0.56v-24.6h3.28
			c2.12,0,3.95,0.74,5.43,2.27c1.53,1.53,2.27,3.35,2.27,5.43c0,1.75-0.52,3.31-1.6,4.69C166,134.84,165.21,135.51,164.4,135.92z
			 M164.17,135.44c2.38-1.41,3.57-3.5,3.57-6.22c0-1.97-0.71-3.68-2.08-5.06c-1.38-1.38-3.09-2.08-5.06-2.08h-2.72v0.56h2.72
			c1.79,0,3.35,0.67,4.61,1.94c1.3,1.3,1.94,2.83,1.94,4.61c0,2.49-1.08,4.39-3.2,5.66L164.17,135.44z M163.73,134.36
			c1.94-1.3,2.9-2.98,2.9-5.17c0-1.67-0.6-3.09-1.79-4.24c-1.15-1.15-2.57-1.75-4.21-1.75h-2.72v0.56h2.72
			c1.53,0,2.79,0.52,3.83,1.6c1.08,1.08,1.6,2.34,1.6,3.83c0,1.97-0.86,3.5-2.53,4.58L163.73,134.36z M163.28,133.28
			c1.49-1,2.2-2.34,2.2-4.09c0-1.34-0.48-2.49-1.45-3.42c-0.93-0.97-2.08-1.45-3.42-1.45h-2.72v0.56h2.72c1.19,0,2.2,0.45,3.05,1.3
			c0.86,0.86,1.27,1.86,1.27,3.01c0,1.49-0.6,2.64-1.82,3.54L163.28,133.28z M162.87,132.17c0.97-0.74,1.49-1.75,1.49-2.98
			c0-1.04-0.37-1.94-1.12-2.64c-0.71-0.71-1.6-1.12-2.64-1.12h-2.72v0.56h2.72c1.75,0,3.16,1.41,3.16,3.16
			c0,1.12-0.37,1.94-1.12,2.42L162.87,132.17z M159.33,132.57l5.47,13.55h-0.6l-5.43-13.44
			C158.92,132.61,159.15,132.57,159.33,132.57z M160.49,132.2l5.58,13.88h-0.63l-5.51-13.66
			C160.08,132.39,160.26,132.31,160.49,132.2z M161.46,131.76l5.81,14.37h-0.63l-5.66-14.14
			C161.19,131.98,161.34,131.87,161.46,131.76z"/>
	</g>
	<path class="st4" d="M175.79,22.09c-0.05-0.02-0.11-0.06-0.15-0.11c-0.06-0.05-0.09-0.1-0.11-0.16c-0.29-0.45-0.29-1.02,0.11-1.43
		c0.43-0.43,1.15-0.43,1.58,0c0,0,0,0,0,0.01C179.61,10.28,180,2.59,180,2.59s-15.85-3.09-32.76-2.53c0.17,0.27,0.31,0.56,0.4,0.88
		c0.25,1.58-0.65,3.14-2.3,3.42c-1.48,0.25-2.94-0.72-3.27-2.19c-0.14-0.64-0.04-1.28,0.23-1.84c-0.59,0.05-1.18,0.1-1.77,0.16
		c-0.37,0.32-0.94,0.39-1.36,0.14c-1.39,0.16-2.76,0.34-4.12,0.56c-0.01,0.1-0.05,0.2-0.11,0.3c-0.22,0.33-0.67,0.43-1,0.21
		c-0.11-0.07-0.18-0.17-0.24-0.27c-1.72,0.32-3.41,0.69-5.06,1.14c0.1,0.12,0.12,0.28,0.03,0.41c-0.11,0.16-0.32,0.21-0.49,0.1
		c-0.12-0.08-0.18-0.22-0.15-0.35c-2.67,0.76-5.21,1.69-7.53,2.85c-21,10.5-23.5,14-30,14h-1c-6.5,0-9-3.5-30-14
		c-1.29-0.64-2.64-1.22-4.04-1.73c0.04,0.27-0.07,0.55-0.32,0.71c-0.33,0.22-0.78,0.12-1-0.21c-0.19-0.3-0.13-0.68,0.12-0.91
		c-0.34-0.11-0.67-0.22-1.02-0.33c-0.15,0.06-0.32,0.01-0.41-0.12C51.59,2.62,50.3,2.28,49,1.99c0.03,0.02,0.07,0.06,0.09,0.09
		c0.11,0.16,0.06,0.38-0.1,0.49s-0.38,0.06-0.49-0.1c-0.11-0.16-0.06-0.38,0.1-0.49c0.04-0.03,0.08-0.04,0.13-0.05
		c-0.38-0.08-0.76-0.16-1.14-0.24c-0.01,0.01-0.02,0.02-0.03,0.03c-0.33,0.22-0.78,0.12-1-0.21c0,0,0-0.01-0.01-0.01
		c-1.51-0.28-3.05-0.52-4.6-0.71c-0.23,0.04-0.46,0-0.67-0.08c-0.67-0.08-1.34-0.15-2.02-0.21c0.22,0.53,0.3,1.12,0.17,1.7
		c-0.34,1.51-1.88,2.51-3.4,2.17c-1.59-0.35-2.41-1.87-2.17-3.4c0.08-0.3,0.21-0.57,0.37-0.82C16.78-0.67,0,2.59,0,2.59
		s3,60,44.5,65.5c32.5,1,45.5-18,45.5-18s13,19,45.5,18c25.76-3.41,36.68-27.82,41.26-45.84C176.44,22.35,176.09,22.28,175.79,22.09
		z M55.69,5.38c1.07-0.68,2.54-0.36,3.22,0.71c0.71,1.11,0.32,2.48-0.71,3.22C57.1,9.96,55.68,9.7,54.98,8.6
		C54.29,7.53,54.62,6.06,55.69,5.38z M53.94,12c0.32,0.51,0.16,1.22-0.36,1.54c-0.51,0.32-1.22,0.16-1.54-0.36
		c-0.31-0.5-0.16-1.04,0.21-1.41c0.03-0.05,0.08-0.09,0.14-0.13c0.08-0.06,0.15-0.07,0.22-0.07C53.1,11.41,53.65,11.53,53.94,12z
		 M51.97,15.67c-0.16,0.11-0.38,0.06-0.49-0.1c-0.11-0.16-0.06-0.38,0.1-0.49c0.16-0.11,0.38-0.06,0.49,0.1
		C52.18,15.34,52.13,15.56,51.97,15.67z M51.32,4.62c0.51-0.32,1.22-0.16,1.54,0.36c0.31,0.5,0.16,1.04-0.21,1.41
		c-0.03,0.05-0.08,0.09-0.14,0.13c-0.08,0.06-0.15,0.07-0.22,0.07c-0.49,0.16-1.03,0.04-1.32-0.43C50.65,5.65,50.81,4.94,51.32,4.62
		z M50.77,13.81c0.22,0.33,0.12,0.78-0.21,1c-0.33,0.22-0.78,0.12-1-0.21c-0.22-0.33-0.12-0.78,0.21-1
		C50.1,13.38,50.55,13.47,50.77,13.81z M48.94,18.4c-0.75,0.47-1.78,0.24-2.26-0.51c-0.5-0.78-0.21-1.74,0.51-2.26
		c0.77-0.45,1.77-0.26,2.26,0.51C49.92,16.89,49.7,17.92,48.94,18.4z M46.78,9.26c0.99-0.58,2.28-0.35,2.91,0.65
		c0.62,0.97,0.32,2.3-0.65,2.91c-0.97,0.61-2.3,0.32-2.91-0.65C45.5,11.17,45.85,9.93,46.78,9.26z M44.21,2.54
		c0.77-0.45,1.77-0.26,2.26,0.51c0.47,0.75,0.25,1.78-0.51,2.26c-0.75,0.47-1.78,0.24-2.26-0.51C43.2,4.01,43.49,3.05,44.21,2.54z
		 M43.57,10.7c0.02-0.01,0.03-0.01,0.05-0.01c0.02-0.01,0.04-0.01,0.06-0.02c0.35-0.12,0.73-0.07,0.95,0.28
		c0.21,0.34,0.11,0.8-0.21,1.02c-0.73,0.51-1.49-0.41-1.05-1.05C43.39,10.83,43.45,10.75,43.57,10.7z M42.51,2.45
		c0.04-0.19,0.23-0.31,0.42-0.27c0.19,0.04,0.31,0.23,0.27,0.42c-0.04,0.19-0.23,0.31-0.42,0.27C42.59,2.82,42.47,2.64,42.51,2.45z
		 M40.17,2.69c0.08-0.39,0.47-0.64,0.86-0.56c0.39,0.08,0.64,0.47,0.56,0.86c-0.08,0.39-0.47,0.64-0.86,0.56
		C40.34,3.47,40.09,3.08,40.17,2.69z M39.79,5.94c0.24-0.88,1.11-1.46,2.02-1.21c0.83,0.22,1.36,1.1,1.17,1.94
		c-0.2,0.86-1.09,1.43-1.96,1.23C40.11,7.69,39.66,6.82,39.79,5.94z M42.27,16.31c-0.02,0.09-0.09,0.17-0.2,0.23
		c-0.02,0.01-0.03,0.01-0.05,0.01c-0.02,0.01-0.04,0.01-0.06,0.02c-0.35,0.12-0.73,0.07-0.95-0.28c-0.21-0.34-0.11-0.8,0.21-1.02
		C41.95,14.74,42.7,15.66,42.27,16.31z M36.69,8.83c0.75-0.47,1.78-0.24,2.26,0.51c0.5,0.78,0.21,1.74-0.51,2.26
		c-0.77,0.45-1.77,0.26-2.26-0.51C35.71,10.34,35.93,9.3,36.69,8.83z M38.3,19.29c-1.12,0.66-2.59,0.4-3.31-0.73
		c-0.7-1.1-0.37-2.61,0.73-3.31c1.1-0.7,2.61-0.37,3.31,0.73C39.76,17.13,39.36,18.53,38.3,19.29z M36.08,12.63
		c0.22,0.33,0.12,0.78-0.21,1c-0.33,0.22-0.78,0.12-1-0.21c-0.22-0.33-0.12-0.78,0.21-1C35.41,12.2,35.86,12.3,36.08,12.63z
		 M33.74,5.02c0.01-0.02,0.02-0.03,0.02-0.04c0.01-0.02,0.02-0.03,0.02-0.04c0.17-0.34,0.48-0.57,0.88-0.47
		c0.38,0.09,0.64,0.49,0.57,0.87c-0.16,0.87-1.35,0.76-1.49-0.01C33.71,5.24,33.69,5.14,33.74,5.02z M33.66,11.56
		c0.16-0.11,0.38-0.06,0.49,0.1c0.11,0.16,0.06,0.38-0.1,0.49c-0.16,0.11-0.38,0.06-0.49-0.1C33.45,11.89,33.5,11.67,33.66,11.56z
		 M33.59,14.04c0.31,0.5,0.16,1.04-0.21,1.41c-0.03,0.05-0.08,0.09-0.14,0.13c-0.08,0.06-0.15,0.07-0.22,0.07
		c-0.49,0.16-1.03,0.04-1.32-0.43c-0.32-0.51-0.16-1.22,0.36-1.54C32.56,13.37,33.27,13.52,33.59,14.04z M24.79,1.83
		c0.63-0.63,1.68-0.63,2.31,0c0.65,0.65,0.6,1.66,0,2.31c-0.66,0.6-1.66,0.65-2.31,0C24.16,3.51,24.16,2.45,24.79,1.83z M23.97,5.66
		c0.28-0.28,0.74-0.28,1.02,0c0.28,0.28,0.28,0.74,0,1.02c-0.28,0.28-0.74,0.28-1.02,0C23.69,6.4,23.69,5.94,23.97,5.66z
		 M22.41,5.12c0.14-0.14,0.36-0.14,0.5,0c0.14,0.14,0.14,0.36,0,0.5c-0.14,0.14-0.36,0.14-0.5,0C22.27,5.47,22.27,5.25,22.41,5.12z
		 M18.12,1.99c0.05-0.06,0.1-0.09,0.16-0.11c0.45-0.29,1.02-0.29,1.43,0.11c0.43,0.43,0.43,1.15,0,1.58C19.28,4,18.55,4,18.12,3.58
		c-0.41-0.41-0.4-0.98-0.11-1.43C18.03,2.09,18.07,2.04,18.12,1.99z M18.56,6c-0.14,0.14-0.36,0.14-0.5,0
		c-0.14-0.14-0.14-0.36,0-0.5c0.14-0.14,0.36-0.14,0.5,0C18.7,5.64,18.7,5.86,18.56,6z M12.55,6.87c0.19,0,0.35,0.16,0.35,0.35
		c0,0.19-0.16,0.35-0.35,0.35c-0.19,0-0.35-0.16-0.35-0.35C12.19,7.03,12.35,6.87,12.55,6.87z M10.88,3.58
		C11.48,3.58,12,4.09,12,4.7c0,0.61-0.51,1.12-1.12,1.12c-0.58,0-0.98-0.41-1.09-0.93C9.76,4.84,9.75,4.77,9.76,4.7
		C9.75,4.63,9.76,4.56,9.79,4.51C9.9,3.99,10.3,3.58,10.88,3.58z M9.96,7.95c0-0.4,0.32-0.72,0.72-0.72c0.4,0,0.72,0.32,0.72,0.72
		c0,0.4-0.32,0.72-0.72,0.72C10.28,8.67,9.96,8.35,9.96,7.95z M10.12,17c-0.66,0.6-1.66,0.65-2.31,0c-0.63-0.63-0.63-1.69,0-2.31
		c0.63-0.63,1.68-0.63,2.31,0C10.77,15.34,10.72,16.35,10.12,17z M5.86,21.98c-0.05,0.06-0.1,0.09-0.16,0.11
		c-0.45,0.29-1.02,0.29-1.43-0.11c-0.43-0.43-0.43-1.15,0-1.58c0.43-0.43,1.15-0.43,1.58,0c0.41,0.41,0.4,0.98,0.11,1.43
		C5.95,21.88,5.92,21.93,5.86,21.98z M4.16,11.47c0.15-0.9,1.53-0.82,1.52,0.11c-0.01,0.92-1.38,1.01-1.52,0.11
		c-0.01-0.04,0-0.07,0-0.11C4.17,11.55,4.16,11.51,4.16,11.47z M5.93,17.98c0.14,0.14,0.14,0.36,0,0.5c-0.14,0.14-0.36,0.14-0.5,0
		c-0.14-0.14-0.14-0.36,0-0.5C5.57,17.84,5.79,17.84,5.93,17.98z M3.43,7.58c0.09-1.6,1.32-2.92,2.99-2.85
		C7.92,4.8,9.13,6.07,9.14,7.58c0.01,1.55-1.31,2.85-2.85,2.85C4.67,10.43,3.51,9.12,3.43,7.58z M6.99,19.54
		c-0.28-0.28-0.28-0.74,0-1.02s0.74-0.28,1.02,0c0.28,0.28,0.28,0.74,0,1.02C7.74,19.82,7.28,19.82,6.99,19.54z M11.59,24.56
		c-0.96,0.88-2.44,0.95-3.39,0c-0.92-0.92-0.92-2.46,0-3.39c0.91-0.92,2.47-0.92,3.39,0C12.53,22.12,12.47,23.6,11.59,24.56z
		 M11.9,12.87c-0.93,0-1.59-0.75-1.64-1.64c0.05-0.91,0.75-1.67,1.7-1.63c0.86,0.03,1.57,0.77,1.57,1.63
		C13.54,12.12,12.79,12.87,11.9,12.87z M14.76,21c-0.02,0.03-0.05,0.05-0.08,0.07c-0.02,0.03-0.04,0.05-0.07,0.08
		c-0.74,0.54-1.66-0.49-1-1.15C14.27,19.33,15.3,20.25,14.76,21z M16.01,16.18c-0.66,0.66-1.69-0.26-1.15-1
		c0.02-0.03,0.05-0.05,0.08-0.07c0.02-0.03,0.04-0.05,0.07-0.08C15.76,14.49,16.67,15.52,16.01,16.18z M16.18,9.28
		c-0.63,0.63-1.68,0.63-2.31,0c-0.65-0.65-0.6-1.66,0-2.31c0.66-0.6,1.66-0.65,2.31,0C16.81,7.6,16.81,8.66,16.18,9.28z M15.97,5.46
		c-0.28-0.28-0.28-0.74,0-1.02c0.28-0.28,0.74-0.28,1.02,0c0.28,0.28,0.28,0.74,0,1.02C16.71,5.74,16.25,5.74,15.97,5.46z
		 M17.78,13.02c0.84-0.78,2.15-0.84,2.98,0c0.81,0.81,0.81,2.17,0,2.98c-0.8,0.81-2.18,0.81-2.98,0
		C16.95,15.16,17,13.86,17.78,13.02z M21.82,21.48c-0.63,0.63-1.68,0.63-2.31,0c-0.65-0.65-0.6-1.66,0-2.31
		c0.66-0.6,1.66-0.65,2.31,0C22.44,19.79,22.45,20.85,21.82,21.48z M22.63,17.65c-0.28,0.28-0.74,0.28-1.02,0
		c-0.28-0.28-0.28-0.74,0-1.02c0.28-0.28,0.74-0.28,1.02,0C22.91,16.91,22.91,17.37,22.63,17.65z M22.84,9.12
		c-0.05,0.06-0.1,0.09-0.15,0.11c-0.45,0.29-1.02,0.29-1.43-0.11c-0.43-0.43-0.43-1.15,0-1.58c0.43-0.43,1.15-0.43,1.58,0
		c0.41,0.41,0.4,0.98,0.11,1.43C22.93,9.02,22.9,9.07,22.84,9.12z M24.2,18.19c-0.14,0.14-0.36,0.14-0.5,0
		c-0.14-0.14-0.14-0.36,0-0.5c0.14-0.14,0.36-0.14,0.5,0C24.33,17.83,24.33,18.05,24.2,18.19z M25.34,15.77
		c-0.43,0.43-1.15,0.43-1.58,0c-0.41-0.41-0.4-0.98-0.11-1.43c0.02-0.05,0.06-0.11,0.11-0.15c0.05-0.06,0.1-0.09,0.15-0.11
		c0.45-0.29,1.02-0.29,1.43,0.11C25.77,14.62,25.77,15.34,25.34,15.77z M28.98,10.67c-0.93,0.86-2.38,0.92-3.3,0
		c-0.9-0.9-0.89-2.4,0-3.3c0.89-0.9,2.41-0.9,3.3,0C29.9,8.3,29.84,9.74,28.98,10.67z M30.59,7.13c0.66-0.66,1.69,0.26,1.15,1
		c-0.02,0.03-0.05,0.05-0.08,0.07c-0.02,0.03-0.04,0.05-0.07,0.08C30.85,8.82,29.93,7.79,30.59,7.13z M69.01,39.75
		c-5.62,3.19-11.89,4.37-18.15,3.44c-0.09-0.02-0.19-0.03-0.28-0.04c-7.55-1.21-14.23-5.44-18.25-11.45
		c-0.36-0.55-0.72-1.1-1.04-1.68c-0.22-0.39-0.27-0.82-0.17-1.2c0.09-0.35,0.3-0.66,0.63-0.9c0.6-0.43,1.22-0.82,1.85-1.19
		c6.3-3.7,14-4.18,21.48-1.27c0.07,0.03,0.15,0.06,0.23,0.1c6.05,2.4,11.26,6.74,14.32,11.95C70.11,38.32,69.85,39.28,69.01,39.75z
		 M176.07,18.47c-0.14,0.14-0.36,0.14-0.5,0c-0.14-0.14-0.14-0.36,0-0.5c0.14-0.14,0.36-0.14,0.5,0
		C176.2,18.11,176.2,18.34,176.07,18.47z M177.33,11.69c-0.15,0.9-1.53,0.82-1.52-0.11c0.01-0.92,1.38-1.01,1.52-0.11
		c0.01,0.04,0,0.07,0,0.11C177.33,11.62,177.34,11.65,177.33,11.69z M170.62,3.58c0.58,0,0.98,0.41,1.09,0.93
		c0.02,0.05,0.04,0.11,0.03,0.19c0.01,0.07-0.01,0.14-0.03,0.19c-0.11,0.52-0.51,0.93-1.09,0.93c-0.61,0-1.12-0.51-1.12-1.12
		C169.5,4.09,170.01,3.58,170.62,3.58z M171.37,14.69c0.63-0.63,1.69-0.63,2.31,0c0.63,0.63,0.63,1.68,0,2.31
		c-0.65,0.65-1.66,0.6-2.31,0C170.77,16.35,170.72,15.34,171.37,14.69z M170.81,8.67c-0.4,0-0.72-0.32-0.72-0.72
		c0-0.4,0.32-0.72,0.72-0.72c0.4,0,0.72,0.32,0.72,0.72C171.54,8.35,171.21,8.67,170.81,8.67z M168.95,6.87
		c0.19,0,0.35,0.16,0.35,0.35c0,0.19-0.16,0.35-0.35,0.35c-0.19,0-0.35-0.16-0.35-0.35C168.6,7.03,168.76,6.87,168.95,6.87z
		 M161.79,1.99c0.41-0.41,0.98-0.4,1.43-0.11c0.05,0.02,0.11,0.06,0.15,0.11c0.06,0.05,0.09,0.1,0.11,0.16
		c0.29,0.45,0.29,1.02-0.11,1.43c-0.43,0.43-1.15,0.43-1.58,0C161.36,3.15,161.36,2.42,161.79,1.99z M163.43,6
		c-0.14,0.14-0.36,0.14-0.5,0c-0.14-0.14-0.14-0.36,0-0.5c0.14-0.14,0.36-0.14,0.5,0C163.57,5.64,163.57,5.86,163.43,6z
		 M158.59,5.12c0.14-0.14,0.36-0.14,0.5,0c0.14,0.14,0.14,0.36,0,0.5c-0.14,0.14-0.36,0.14-0.5,0
		C158.46,5.47,158.46,5.25,158.59,5.12z M157.52,6.68c-0.28,0.28-0.74,0.28-1.02,0s-0.28-0.74,0-1.02c0.28-0.28,0.74-0.28,1.02,0
		C157.81,5.94,157.81,6.4,157.52,6.68z M154.4,1.83c0.63-0.63,1.69-0.63,2.31,0c0.63,0.63,0.63,1.68,0,2.31
		c-0.65,0.65-1.66,0.6-2.31,0C153.8,3.48,153.74,2.48,154.4,1.83z M147.94,12.05c-0.11,0.16-0.32,0.21-0.49,0.1
		c-0.16-0.11-0.21-0.32-0.1-0.49c0.11-0.16,0.32-0.21,0.49-0.1C148,11.67,148.05,11.89,147.94,12.05z M146.83,4.46
		c0.41-0.1,0.72,0.14,0.88,0.47c0.01,0.01,0.02,0.03,0.02,0.04c0.01,0.02,0.02,0.03,0.02,0.04c0.05,0.12,0.03,0.22-0.01,0.3
		c-0.14,0.77-1.33,0.89-1.49,0.01C146.19,4.95,146.45,4.55,146.83,4.46z M146.42,12.42c0.33,0.22,0.43,0.67,0.21,1
		c-0.22,0.33-0.67,0.43-1,0.21c-0.33-0.22-0.43-0.67-0.21-1C145.64,12.3,146.08,12.2,146.42,12.42z M142.55,9.34
		c0.47-0.75,1.51-0.99,2.26-0.51c0.75,0.48,0.99,1.5,0.51,2.26c-0.49,0.77-1.49,0.96-2.26,0.51
		C142.34,11.07,142.06,10.12,142.55,9.34z M142.46,15.98c0.7-1.1,2.21-1.43,3.31-0.73c1.1,0.7,1.43,2.21,0.73,3.31
		c-0.72,1.13-2.19,1.39-3.31,0.73C142.14,18.53,141.73,17.12,142.46,15.98z M140.47,2.13c0.39-0.08,0.77,0.17,0.86,0.56
		c0.08,0.39-0.17,0.77-0.56,0.86c-0.39,0.08-0.77-0.17-0.86-0.56C139.83,2.6,140.08,2.22,140.47,2.13z M139.74,4.71
		c0.89-0.21,1.73,0.38,1.96,1.23c0.14,0.9-0.35,1.8-1.3,1.97c-0.85,0.15-1.7-0.39-1.89-1.24C138.31,5.8,138.88,4.91,139.74,4.71z
		 M140.49,16.28c-0.22,0.35-0.6,0.4-0.95,0.28c-0.02,0-0.04-0.01-0.06-0.02c-0.02-0.01-0.03-0.01-0.05-0.01
		c-0.12-0.05-0.18-0.14-0.21-0.23c-0.43-0.65,0.33-1.57,1.05-1.05C140.6,15.48,140.7,15.94,140.49,16.28z M138.57,2.18
		c0.19-0.04,0.38,0.08,0.42,0.27c0.04,0.19-0.08,0.38-0.27,0.42c-0.19,0.04-0.38-0.08-0.42-0.27C138.26,2.4,138.38,2.22,138.57,2.18
		z M137.08,11.97c-0.32-0.23-0.42-0.68-0.21-1.02c0.22-0.35,0.6-0.4,0.95-0.28c0.02,0,0.04,0.01,0.06,0.02
		c0.02,0.01,0.03,0.01,0.05,0.01c0.12,0.05,0.18,0.14,0.21,0.23C138.57,11.57,137.8,12.49,137.08,11.97z M135.03,3.04
		c0.49-0.77,1.49-0.96,2.26-0.51c0.72,0.52,1,1.47,0.51,2.26c-0.47,0.75-1.51,0.99-2.26,0.51C134.79,4.82,134.55,3.8,135.03,3.04z
		 M132.41,2.08c0.11-0.16,0.32-0.21,0.49-0.1c0.16,0.11,0.21,0.32,0.1,0.49c-0.11,0.16-0.32,0.21-0.49,0.1
		C132.35,2.46,132.3,2.24,132.41,2.08z M131.8,9.91c0.63-0.99,1.92-1.23,2.91-0.65c0.93,0.67,1.29,1.91,0.65,2.91
		c-0.62,0.97-1.94,1.26-2.91,0.65C131.48,12.2,131.19,10.88,131.8,9.91z M134.81,17.89c-0.47,0.75-1.51,0.99-2.26,0.51
		c-0.75-0.48-0.99-1.5-0.51-2.26c0.49-0.77,1.49-0.96,2.26-0.51C135.02,16.15,135.3,17.11,134.81,17.89z M131.73,13.6
		c0.33,0.22,0.43,0.67,0.21,1c-0.22,0.33-0.67,0.43-1,0.21c-0.33-0.22-0.43-0.67-0.21-1C130.95,13.47,131.4,13.38,131.73,13.6z
		 M128.63,4.98c0.32-0.52,1.03-0.67,1.54-0.36c0.52,0.32,0.67,1.03,0.36,1.54c-0.29,0.47-0.84,0.59-1.32,0.43
		c-0.07,0-0.14-0.02-0.22-0.07c-0.06-0.03-0.11-0.08-0.14-0.13C128.47,6.02,128.32,5.47,128.63,4.98z M130.01,15.56
		c-0.11,0.16-0.32,0.21-0.49,0.1c-0.16-0.11-0.21-0.32-0.1-0.49c0.11-0.16,0.32-0.21,0.49-0.1
		C130.07,15.18,130.12,15.4,130.01,15.56z M128.88,11.57c0.07,0,0.14,0.02,0.22,0.07c0.06,0.03,0.11,0.08,0.14,0.13
		c0.38,0.38,0.52,0.92,0.21,1.41c-0.32,0.52-1.03,0.67-1.54,0.36c-0.52-0.32-0.67-1.03-0.36-1.54
		C127.85,11.53,128.4,11.41,128.88,11.57z M126.14,3.57c0.22-0.33,0.67-0.43,1-0.21c0.33,0.22,0.43,0.67,0.21,1
		c-0.22,0.33-0.67,0.43-1,0.21C126.02,4.35,125.93,3.9,126.14,3.57z M122.59,6.09c0.68-1.07,2.15-1.39,3.22-0.71
		c1.07,0.68,1.39,2.15,0.71,3.22c-0.7,1.1-2.13,1.35-3.22,0.71C122.27,8.57,121.88,7.2,122.59,6.09z M148.07,30.01
		c-0.32,0.58-0.67,1.13-1.04,1.68c-4.02,6.01-10.7,10.24-18.25,11.45c-0.09,0.01-0.19,0.02-0.28,0.04
		c-6.27,0.93-12.53-0.25-18.16-3.44c-0.83-0.47-1.09-1.43-0.6-2.25c3.06-5.2,8.27-9.55,14.32-11.95c0.08-0.03,0.15-0.07,0.23-0.1
		c7.48-2.91,15.18-2.43,21.48,1.27c0.63,0.37,1.24,0.76,1.84,1.19c0.33,0.24,0.54,0.55,0.63,0.9
		C148.34,29.2,148.29,29.62,148.07,30.01z M149.8,15.23c-0.29,0.47-0.84,0.59-1.32,0.43c-0.07,0-0.14-0.02-0.22-0.07
		c-0.06-0.03-0.11-0.08-0.14-0.13c-0.38-0.38-0.52-0.92-0.21-1.41c0.32-0.52,1.03-0.67,1.54-0.36
		C149.97,14,150.12,14.71,149.8,15.23z M149.91,8.28c-0.03-0.02-0.05-0.05-0.07-0.08c-0.03-0.02-0.05-0.04-0.08-0.07
		c-0.54-0.74,0.49-1.66,1.15-1C151.57,7.79,150.65,8.82,149.91,8.28z M152.51,10.67c-0.86-0.93-0.92-2.38,0-3.3
		c0.9-0.9,2.4-0.89,3.3,0c0.9,0.89,0.9,2.41,0,3.3C154.89,11.59,153.45,11.53,152.51,10.67z M157.8,18.19
		c-0.14,0.14-0.36,0.14-0.5,0c-0.14-0.14-0.14-0.36,0-0.5c0.14-0.14,0.36-0.14,0.5,0C157.93,17.83,157.93,18.05,157.8,18.19z
		 M157.74,15.77c-0.43,0.43-1.15,0.43-1.58,0c-0.43-0.43-0.43-1.15,0-1.58c0.41-0.41,0.98-0.4,1.43-0.11
		c0.05,0.02,0.11,0.06,0.15,0.11c0.06,0.05,0.09,0.1,0.11,0.16C158.13,14.79,158.14,15.36,157.74,15.77z M158.66,7.54
		c0.43-0.43,1.15-0.43,1.58,0c0.43,0.43,0.43,1.15,0,1.58c-0.41,0.41-0.98,0.4-1.43,0.11c-0.05-0.02-0.11-0.06-0.15-0.11
		c-0.06-0.05-0.09-0.1-0.11-0.16C158.26,8.52,158.25,7.94,158.66,7.54z M158.87,16.63c0.28-0.28,0.74-0.28,1.02,0
		c0.28,0.28,0.28,0.74,0,1.02c-0.28,0.28-0.74,0.28-1.02,0C158.58,17.37,158.58,16.91,158.87,16.63z M161.99,21.48
		c-0.63,0.63-1.69,0.63-2.31,0c-0.63-0.63-0.63-1.68,0-2.31c0.65-0.65,1.66-0.6,2.31,0C162.59,19.82,162.65,20.83,161.99,21.48z
		 M163.72,16c-0.81,0.81-2.17,0.81-2.98,0c-0.81-0.8-0.81-2.18,0-2.98c0.84-0.83,2.14-0.78,2.98,0
		C164.5,13.86,164.55,15.16,163.72,16z M164.5,4.43c0.28-0.28,0.74-0.28,1.02,0s0.28,0.74,0,1.02s-0.74,0.28-1.02,0
		S164.22,4.71,164.5,4.43z M165.32,6.97c0.65-0.65,1.66-0.6,2.31,0c0.6,0.66,0.65,1.66,0,2.31c-0.63,0.63-1.69,0.63-2.31,0
		C164.69,8.65,164.69,7.6,165.32,6.97z M165.48,16.18c-0.66-0.66,0.26-1.69,1-1.15c0.03,0.02,0.05,0.05,0.07,0.08
		c0.03,0.02,0.05,0.04,0.08,0.07C167.17,15.92,166.14,16.83,165.48,16.18z M166.88,21.14c-0.03-0.02-0.05-0.05-0.07-0.08
		c-0.03-0.02-0.05-0.04-0.08-0.07c-0.54-0.74,0.49-1.66,1.15-1C168.54,20.65,167.62,21.68,166.88,21.14z M167.96,11.23
		c0-0.89,0.75-1.64,1.64-1.64c0.93,0,1.59,0.75,1.64,1.64c-0.05,0.91-0.75,1.67-1.7,1.63C168.66,12.83,167.96,12.1,167.96,11.23z
		 M173.29,24.56c-0.95,0.94-2.43,0.88-3.39,0c-0.88-0.96-0.95-2.44,0-3.39c0.92-0.92,2.46-0.92,3.39,0
		C174.22,22.09,174.22,23.64,173.29,24.56z M174.5,19.54c-0.28,0.28-0.74,0.28-1.02,0c-0.28-0.28-0.28-0.74,0-1.02
		c0.28-0.28,0.74-0.28,1.02,0C174.78,18.8,174.78,19.26,174.5,19.54z M172.36,7.58c-0.01-1.55,1.31-2.85,2.85-2.85
		c1.62,0,2.77,1.31,2.85,2.85c-0.09,1.6-1.32,2.92-2.99,2.85C173.58,10.36,172.37,9.08,172.36,7.58z"/>
</g>
</svg>
