<?xml version="1.0" encoding="utf-8"?>
<!-- Generator: Adobe Illustrator 25.2.1, SVG Export Plug-In . SVG Version: 6.00 Build 0)  -->
<svg version="1.1" id="Layer_1" xmlns="http://www.w3.org/2000/svg" xmlns:xlink="http://www.w3.org/1999/xlink" x="0px" y="0px"
	 viewBox="0 0 180 67.63" style="enable-background:new 0 0 180 67.63;" xml:space="preserve">
<style type="text/css">
	.st0{fill:#9BB5DF;}
	.st1{fill:#F5C117;}
	.st2{fill:#BD2926;}
	.st3{fill:#381F23;}
	.st4{fill:#D9B028;}
	.st5{fill:#CA9A2C;}
	.st6{fill:#B7872D;}
	.st7{fill:#333333;}
	.st8{fill:#FDF49A;}
	.st9{fill:#F9E86F;}
	.st10{fill:#EB9E22;}
	.st11{fill:#EBC424;}
	.st12{fill:#010101;}
	.st13{fill:#B49930;}
	.st14{fill:#F3C423;}
	.st15{fill:#010201;}
	.st16{fill-rule:evenodd;clip-rule:evenodd;}
	.st17{fill:#1A1B1B;}
	.st18{fill:#FDFDFD;}
	.st19{fill-rule:evenodd;clip-rule:evenodd;fill:url(#SVGID_1_);}
	.st20{fill:#23292D;}
	.st21{fill:#DD9C27;}
	.st22{fill:#F2664F;}
	.st23{fill:url(#SVGID_2_);}
	.st24{fill:url(#SVGID_3_);}
	.st25{fill:url(#SVGID_4_);}
	.st26{fill:url(#SVGID_5_);}
	.st27{fill:url(#SVGID_6_);}
	.st28{fill:url(#SVGID_7_);}
	.st29{fill:url(#SVGID_8_);}
	.st30{fill:url(#SVGID_9_);}
	.st31{fill:url(#SVGID_10_);}
	.st32{fill:url(#SVGID_11_);}
	.st33{fill:none;stroke:#D9B028;stroke-width:3;stroke-miterlimit:10;}
	.st34{opacity:0.19;}
	.st35{stroke:#000000;stroke-width:3;stroke-miterlimit:10;}
	.st36{fill:#FAA82F;}
	.st37{opacity:0.42;}
	.st38{opacity:0.1091;}
	.st39{fill:#FEBC16;}
	.st40{fill:#E43C7D;}
	.st41{fill:#FFFFFF;}
	.st42{fill:#E7B831;}
	.st43{fill:#AB7136;}
	.st44{fill:none;stroke:#010101;stroke-miterlimit:10;}
	.st45{fill:#8CB5D7;}
	.st46{fill:#F5C117;stroke:#000000;stroke-miterlimit:10;}
	.st47{fill:none;stroke:#010101;stroke-width:0.75;stroke-miterlimit:10;}
	.st48{fill:none;stroke:#010101;stroke-width:0.5;stroke-miterlimit:10;}
	.st49{fill:none;stroke:#F5C117;stroke-miterlimit:10;}
	.st50{fill:#F2664F;stroke:#000000;stroke-miterlimit:10;}
	.st51{stroke:#010101;stroke-miterlimit:10;}
	.st52{fill:#231F20;}
	.st53{fill:#E7B82F;}
	.st54{fill:#B39A32;}
	.st55{fill:#D9B128;}
</style>
<g>
	<g>
		<g id="XMLID_1_">
			<g>
				<g>
					<path class="st11" d="M10.95,12.93c-0.11-0.56-0.23-1.14-0.33-1.64c0.13-0.08,0.25-0.15,0.38-0.22c0.7-0.36,1.52-0.9,2.3-0.97
						l0.02,0c0.01,0.07,0.01,0.14,0.02,0.22l-0.2,0.02c0,0.03-0.03,0.03-0.06,0.07C12.51,11.4,11.79,12.2,10.95,12.93z"/>
				</g>
				<g>
					<path class="st11" d="M7.07,15.03c-0.17-0.22,0.25-0.76,0.41-0.97c0.77-1.04,1.99-2.08,3.15-2.78c0.1,0.51,0.21,1.08,0.33,1.64
						c-0.32,0.28-0.66,0.54-1.01,0.81c-0.6,0.42-1.22,0.98-1.86,1.27c-0.18,0.06-0.62,0.25-0.88,0.14
						C7.15,15.12,7.1,15.09,7.07,15.03z"/>
				</g>
				<g>
					<path class="st11" d="M12.94,16.97c-1.02,0.28-2.2-0.3-3.14-0.66c-0.88-0.34-1.77-0.67-2.65-1l0.06-0.15
						c0.25,0.11,0.69-0.08,0.88-0.14c0.64-0.29,1.26-0.85,1.86-1.27c0.36-0.26,0.69-0.53,1.01-0.81c0.84-0.73,1.55-1.53,2.14-2.53
						c0.03-0.03,0.06-0.04,0.06-0.07l0.2-0.02c0.16,1.71,0.18,3.51,0.27,5.11c0.02,0.43,0.13,0.9-0.08,1.23c0,0,0,0,0,0
						c-0.08,0.13-0.2,0.23-0.38,0.31c0-0.02,0-0.03,0-0.05l-0.05,0C13.05,16.94,13,16.95,12.94,16.97z"/>
				</g>
			</g>
			<g>
				<g>
					<path class="st12" d="M9.22,2.95L8.91,2.68c0,0-0.01,0.01-0.01,0.01c0,0,0-0.01,0-0.01C9.04,2.31,8.79,0.67,8.65,0.1L9.05,0
						C9.11,0.25,9.51,2.24,9.3,2.81C9.28,2.87,9.25,2.91,9.22,2.95z"/>
				</g>
				<g>
					<path class="st13" d="M16.02,25.01l-0.1-0.4c1.1-0.27,3.15-1.64,3.19-3.09l0.41,0.01C19.48,23.24,17.19,24.72,16.02,25.01z"/>
				</g>
				<g>
					<path class="st14" d="M7.39,15.39c-0.09,0-0.19-0.01-0.27-0.05c-0.1-0.04-0.17-0.11-0.22-0.19c-0.22-0.31,0.08-0.76,0.39-1.17
						l0.03-0.03c0.75-1.02,1.95-2.08,3.21-2.83c0.12-0.07,0.25-0.15,0.38-0.22c0.14-0.07,0.28-0.15,0.42-0.23
						c0.6-0.33,1.29-0.7,1.96-0.77l0.04,0.41c-0.08,0.01-0.15,0.02-0.23,0.04l0.27-0.01c0,0.09-0.03,0.16-0.11,0.21
						c-0.56,0.94-1.24,1.75-2.16,2.55c-0.3,0.26-0.64,0.53-1.03,0.82c-0.18,0.13-0.35,0.26-0.53,0.4c-0.44,0.33-0.89,0.68-1.36,0.9
						L8.14,15.2c-0.02,0.01-0.05,0.02-0.07,0.03C7.89,15.29,7.63,15.39,7.39,15.39z M7.23,14.91l0.02,0.02
						c0.01,0.01,0.01,0.02,0.04,0.03c0.14,0.06,0.5-0.06,0.65-0.12c0.03-0.01,0.05-0.02,0.07-0.02c0.43-0.2,0.86-0.53,1.28-0.85
						c0.18-0.14,0.36-0.28,0.54-0.4c0.38-0.28,0.7-0.54,1-0.79c0.86-0.74,1.51-1.5,2.04-2.37c-0.45,0.14-0.91,0.39-1.33,0.62
						c-0.15,0.08-0.29,0.16-0.43,0.23c-0.12,0.07-0.25,0.14-0.36,0.21c-1.2,0.72-2.38,1.76-3.09,2.72l-0.03,0.04
						C7.25,14.71,7.22,14.86,7.23,14.91z"/>
				</g>
				<g>
					<path class="st12" d="M13.2,17.18c-0.07,0-0.13-0.03-0.18-0.07l-0.24-0.22l0.3-0.12c0.13-0.05,0.22-0.13,0.28-0.23l0.35,0.21
						c-0.07,0.11-0.16,0.2-0.27,0.28l0.01,0.01c-0.05,0.05-0.12,0.14-0.24,0.14C13.21,17.18,13.2,17.18,13.2,17.18z M13.16,16.78
						l0.09,0.08l0.05-0.05C13.26,16.77,13.2,16.77,13.16,16.78z"/>
				</g>
				<g>
					<path class="st12" d="M13.72,16.76l-0.35-0.21c0.13-0.21,0.1-0.52,0.07-0.84c-0.01-0.09-0.02-0.18-0.02-0.27
						c-0.03-0.53-0.05-1.06-0.07-1.63c-0.04-1.14-0.09-2.33-0.2-3.47c-0.01-0.07-0.01-0.14-0.02-0.21C13,8.9,12.83,7.92,12.58,7.1
						l0.39-0.12c0.25,0.84,0.43,1.85,0.55,3.09c0.01,0.07,0.01,0.14,0.02,0.22c0.11,1.15,0.15,2.34,0.2,3.49
						c0.02,0.57,0.04,1.1,0.07,1.63c0,0.08,0.01,0.17,0.02,0.26C13.88,16.04,13.91,16.43,13.72,16.76z"/>
				</g>
				<g>
					<path class="st12" d="M12.36,17.25c-0.77,0-1.56-0.32-2.27-0.61c-0.12-0.05-0.25-0.1-0.37-0.15c-0.83-0.32-1.69-0.64-2.65-1
						c-1.21-0.45-2.51-0.94-4.09-1.53l0.14-0.39c1.58,0.59,2.89,1.07,4.1,1.53c0.96,0.36,1.82,0.69,2.65,1.01
						c0.12,0.05,0.24,0.1,0.37,0.15c0.85,0.34,1.82,0.73,2.64,0.51c0.05-0.01,0.1-0.03,0.15-0.05l0.03-0.01l0.29-0.02l0.01,0.26
						c0,0.08,0.01,0.16,0.01,0.24l-0.41,0.03c0-0.01,0-0.03,0-0.04C12.77,17.23,12.56,17.25,12.36,17.25z"/>
				</g>
				<g>
					<path class="st12" d="M16.23,22.75c-0.03-0.02-0.05-0.05-0.06-0.08l-0.04-0.04l0-0.02c-0.46-0.66-0.86-1.38-1.26-2.08
						c-0.2-0.36-0.42-0.73-0.63-1.09c-0.08-0.13-0.17-0.26-0.26-0.4c-0.31-0.46-0.62-0.94-0.88-1.44c-0.04-0.06-0.09-0.15-0.13-0.23
						l-0.04-0.08c-0.06-0.11-0.08-0.14-0.09-0.14c0,0,0.01,0.02,0.04,0.03l0.16-0.38c0.09,0.04,0.15,0.12,0.24,0.29l0.05,0.08
						c0.04,0.08,0.09,0.15,0.12,0.21l0.01,0.02c0.25,0.48,0.56,0.95,0.86,1.41c0.09,0.14,0.18,0.27,0.27,0.41
						c0.22,0.37,0.43,0.74,0.64,1.11c0.4,0.7,0.81,1.43,1.27,2.08l0.05,0.05l0,0.02l0.01,0.02c0.02,0.04,0.04,0.08,0.04,0.12
						l-0.34,0.02l-0.01,0.01l-0.05,0.05C16.2,22.72,16.21,22.74,16.23,22.75z"/>
				</g>
				<g>
					<path class="st12" d="M16.69,22.26c-0.04-0.04-0.08-0.1-0.12-0.16c-0.11-0.16-0.21-0.35-0.3-0.54
						c-0.42-0.7-0.86-1.43-1.29-2.13c-0.54-0.89-1.1-1.8-1.61-2.67l-0.03-0.05c-0.01-0.02-0.02-0.04-0.03-0.05l0.36-0.21
						c0.02,0.03,0.04,0.06,0.06,0.1l0.03,0.05c0.5,0.85,1.05,1.74,1.58,2.61c0.43,0.71,0.88,1.44,1.3,2.14l0.01,0.01
						c0.09,0.18,0.18,0.36,0.28,0.5c0.03,0.05,0.06,0.09,0.09,0.12L16.69,22.26z"/>
				</g>
				<g>
					<path class="st12" d="M16.56,22.75c-0.09,0-0.18-0.03-0.27-0.08l0.23-0.34c0.01,0.01,0.04,0.03,0.1-0.01
						c0.1-0.06,0.21-0.21,0.2-0.36l0.41-0.02c0.02,0.29-0.16,0.6-0.41,0.74C16.74,22.73,16.65,22.75,16.56,22.75z"/>
				</g>
				<g>
					<path class="st12" d="M16.87,22.16v-0.41c0.03,0,0.08,0,0.13-0.01c0.21-0.03,0.56-0.12,0.93-0.21
						c1.35-0.34,1.96-0.45,2.13-0.12L19.7,21.6c0.01,0.02,0.03,0.03,0.03,0.04c-0.18-0.09-1.17,0.16-1.7,0.29
						c-0.38,0.09-0.73,0.18-0.97,0.22C16.98,22.15,16.92,22.16,16.87,22.16z"/>
				</g>
				<g>
					<path class="st12" d="M15.5,25.68c-0.01-0.04-0.03-0.08-0.03-0.14c-0.07-0.37,0.07-0.85,0.19-1.26
						c0.04-0.15,0.08-0.3,0.11-0.42c0.02-0.12,0.07-0.28,0.13-0.46c0.07-0.22,0.19-0.62,0.17-0.72l0.39-0.13
						c0.07,0.2-0.02,0.5-0.17,0.98c-0.05,0.17-0.1,0.32-0.12,0.41l0,0.01c-0.03,0.14-0.07,0.29-0.12,0.45
						c-0.11,0.37-0.23,0.8-0.18,1.08c0.01,0.03,0.01,0.05,0.02,0.07L15.5,25.68z"/>
				</g>
				<g>
					<path class="st12" d="M16.19,25.86c-0.27,0-0.51-0.06-0.66-0.21c-0.03-0.02-0.05-0.05-0.07-0.08l0.34-0.24
						c0.01,0.01,0.01,0.02,0.02,0.02c0.3,0.29,1.6-0.12,2.06-0.43c1.05-0.68,1.8-1.91,1.92-3.16l0-0.02c0.01-0.05,0-0.12-0.01-0.2
						l-0.01-0.04c0-0.04-0.01-0.07-0.01-0.11l0.41-0.02c0-0.01,0-0.02-0.01-0.03c0.02,0.03,0.04,0.08,0.05,0.16l-0.02,0
						c0.01,0.09,0.02,0.19,0,0.3c-0.14,1.38-0.94,2.7-2.11,3.45C17.8,25.46,16.89,25.86,16.19,25.86z"/>
				</g>
				<g>
					<path class="st12" d="M3.33,13.91c-0.09,0-0.18,0-0.27-0.01c-0.06,0-0.11-0.01-0.17-0.01l0.04-0.41
						c0.05,0.01,0.1,0.01,0.15,0.01c1.99,0.13,4.31-1.45,5.69-2.38c0.58-0.37,1.06-0.74,1.49-1.13c0.3-0.27,0.56-0.55,0.81-0.85
						c0.15-0.19,0.31-0.38,0.46-0.56c0.42-0.49,0.82-0.96,1.02-1.58l0.02-0.07l0.09-0.06c0.02-0.01,0.07-0.05,0.14-0.05h0.09
						l0.06,0.06c0.06,0.07,0.06,0.15,0.06,0.17c0,0,0-0.02-0.01-0.04l-0.13,0.08l0.08,0.03c-0.22,0.7-0.67,1.22-1.1,1.72
						C11.7,9.02,11.54,9.2,11.4,9.38c-0.27,0.32-0.55,0.62-0.86,0.9C10.1,10.69,9.6,11.07,9,11.45C7.17,12.7,5.21,13.91,3.33,13.91z
						 M12.8,7.13l0,0.1c0.03,0,0.05-0.01,0.07-0.01L12.8,7.13z"/>
				</g>
				<g>
					<path class="st12" d="M3.05,13.95v-0.41c-0.09,0-0.15,0.06-0.17,0.1l0-0.01c0.01-0.04,0.03-0.11,0.05-0.18
						c0.03-0.1,0.06-0.21,0.09-0.28c0.21-0.52,0.47-0.88,0.81-1.33l0.01-0.01c0.88-1.07,1.73-1.91,2.52-2.48
						c1.15-0.82,2.37-1.51,3.55-1.99c0.2-0.08,0.38-0.15,0.56-0.21c0.22-0.09,1.85-0.61,2.29-0.37C12.85,6.82,12.9,6.9,12.92,7
						l-0.41,0.06c0.01,0.05,0.04,0.07,0.05,0.08c-0.22-0.1-1.6,0.23-1.93,0.39l-0.02,0.01c-0.17,0.06-0.35,0.13-0.55,0.21
						C8.92,8.21,7.72,8.88,6.6,9.68c-0.76,0.56-1.58,1.37-2.44,2.41c-0.33,0.43-0.56,0.75-0.75,1.23c-0.02,0.05-0.05,0.16-0.08,0.24
						c-0.02,0.08-0.05,0.16-0.07,0.21C3.21,13.92,3.12,13.95,3.05,13.95z"/>
				</g>
				<g>
					<path class="st12" d="M11.57,16.13l-0.15-0.38c-0.09,0.04-0.12,0.12-0.12,0.16c0-0.21-0.4-2.27-0.54-2.94
						c-0.06-0.32-0.13-0.64-0.19-0.95c-0.05-0.24-0.09-0.47-0.14-0.7c-0.09-0.45-0.17-0.85-0.23-1.15c-0.08-0.42-0.1-0.53-0.1-0.58
						C10.01,8.9,9.89,8.2,9.79,7.58C9.67,6.88,9.54,6.15,9.45,5.42l0-0.01c0-0.05-0.01-0.1-0.02-0.17C9.42,5.15,9.4,5.05,9.4,4.95
						l0.41-0.02c0,0.08,0.02,0.17,0.03,0.24c0.01,0.08,0.02,0.14,0.03,0.21c0.09,0.72,0.21,1.44,0.33,2.13
						c0.11,0.63,0.23,1.34,0.32,2.04l0,0.02c0,0.02,0.01,0.11,0.09,0.53c0.06,0.3,0.14,0.7,0.22,1.15c0.04,0.22,0.09,0.46,0.14,0.7
						c0.06,0.31,0.13,0.63,0.19,0.95c0.12,0.59,0.29,1.45,0.4,2.07c0.06,0.3,0.09,0.52,0.12,0.68
						C11.71,15.9,11.73,16.06,11.57,16.13z"/>
				</g>
				<g>
					<path class="st14" d="M9.4,5.43c-0.52,0-0.99-0.27-1.27-0.74l0-0.01C7.91,4.27,7.96,3.59,8.24,3.1C8.4,2.84,8.6,2.66,8.82,2.58
						L8.81,2.56l0.28-0.05c0.76-0.12,1.31,0.46,1.54,1c0.25,0.56,0.14,0.98,0.01,1.23c-0.19,0.35-0.55,0.6-0.97,0.67
						C9.58,5.42,9.49,5.43,9.4,5.43z M8.49,4.48C8.77,4.96,9.25,5.06,9.6,5c0.3-0.05,0.55-0.22,0.68-0.46
						C10.41,4.3,10.4,4,10.26,3.67C10.1,3.31,9.77,2.93,9.33,2.91L8.98,3.05C8.97,3.02,8.96,3,8.96,2.97
						C8.79,3.03,8.67,3.18,8.6,3.3C8.39,3.67,8.34,4.19,8.49,4.48z"/>
				</g>
			</g>
		</g>
	</g>
	<g>
		<g>
			<g>
				<g>
					<path class="st4" d="M173.06,21.95c0,0-0.02-0.02-0.06-0.04c-0.04-0.02-0.11-0.05-0.21-0.07c-0.21-0.04-0.52-0.09-0.87-0.15
						c-0.35-0.07-0.73-0.16-1.11-0.27c-0.38-0.11-0.75-0.23-1.08-0.36c-0.16-0.06-0.33-0.13-0.51-0.21
						c-0.09-0.04-0.18-0.09-0.27-0.13c-0.09-0.05-0.18-0.1-0.26-0.16c-0.34-0.23-0.64-0.5-0.9-0.73c-0.26-0.23-0.49-0.43-0.66-0.56
						c-0.17-0.13-0.28-0.2-0.28-0.2c-0.06-0.04,0.05-0.24,0.12-0.21c0,0,0.03,0.02,0.09,0.04c0.05,0.03,0.14,0.07,0.23,0.14
						c0.19,0.12,0.45,0.3,0.72,0.52c0.28,0.21,0.58,0.45,0.9,0.64c0.08,0.05,0.16,0.09,0.24,0.13c0.08,0.04,0.16,0.07,0.25,0.11
						c0.17,0.07,0.34,0.14,0.5,0.2c0.31,0.12,0.67,0.26,1.04,0.38c0.36,0.12,0.74,0.24,1.07,0.33c0.33,0.09,0.63,0.17,0.85,0.23
						c0.11,0.03,0.21,0.08,0.27,0.12c0.06,0.04,0.09,0.07,0.09,0.07C173.27,21.84,173.11,21.97,173.06,21.95z"/>
				</g>
			</g>
		</g>
		<g>
			<g>
				<g>
					<path class="st15" d="M166.22,19.73c0,0,0.02,0.02,0.07,0.06c0.05,0.04,0.13,0.09,0.23,0.16c0.2,0.13,0.5,0.29,0.85,0.47
						c0.69,0.35,1.58,0.75,2.27,1.06c0.69,0.31,1.57,0.72,2.3,1c0.36,0.14,0.68,0.25,0.91,0.3c0.11,0.03,0.2,0.04,0.26,0.04
						c0.03,0,0.05,0,0.05,0c0.01,0,0.01,0,0.01,0c0,0,0.01,0,0.01,0.01c0.01,0.01,0.01,0.01,0.02,0.02
						c0.02,0.02,0.04,0.03,0.06,0.05c0.02,0.02,0.04,0.04,0.04,0.07c0,0.03-0.02,0.06-0.05,0.07c0,0-0.01,0.01-0.04,0.01
						c-0.03,0.01-0.06,0.01-0.1,0.02c-0.08,0.01-0.19,0-0.32-0.02c-0.26-0.04-0.6-0.12-0.98-0.24c-0.76-0.23-1.67-0.59-2.38-0.91
						c-0.7-0.32-1.57-0.77-2.25-1.18c-0.34-0.2-0.63-0.39-0.84-0.55c-0.1-0.08-0.18-0.14-0.24-0.19c-0.05-0.05-0.08-0.08-0.08-0.08
						C166,19.8,166.17,19.7,166.22,19.73z"/>
				</g>
			</g>
		</g>
		<g>
			<g>
				<g>
					<path class="st15" d="M172.43,15.2c0,0,0,0,0-0.02l0-0.08l0.22,0.02c0,0,0.02,0.04,0.06,0.11c0.03,0.07,0.07,0.17,0.11,0.29
						c0.08,0.25,0.15,0.59,0.21,0.98c0.03,0.19,0.06,0.4,0.1,0.61c0.04,0.21,0.07,0.43,0.1,0.65c0.06,0.44,0.11,0.87,0.14,1.26
						c0.01,0.19,0.02,0.4,0.03,0.61c0.01,0.21,0.02,0.43,0.02,0.65c0.01,0.45-0.01,0.89-0.04,1.29c-0.03,0.4-0.08,0.75-0.12,0.99
						c-0.04,0.25-0.07,0.39-0.07,0.39c-0.02,0.08-0.24,0.04-0.23-0.04c0,0,0.07-0.59,0.08-1.37c0-0.39-0.01-0.83-0.04-1.26
						c-0.01-0.21-0.04-0.43-0.05-0.65c-0.01-0.21-0.03-0.41-0.04-0.6c-0.03-0.38-0.06-0.81-0.1-1.24c-0.02-0.22-0.04-0.43-0.07-0.64
						c-0.02-0.22-0.04-0.42-0.06-0.62c-0.04-0.39-0.08-0.72-0.13-0.95c-0.02-0.12-0.05-0.2-0.07-0.26
						c-0.02-0.05-0.04-0.08-0.04-0.08l0.22-0.06c0,0.02,0,0.02,0,0.02C172.65,15.29,172.45,15.28,172.43,15.2z"/>
				</g>
			</g>
		</g>
		<g>
			<g>
				<g>
					<path class="st15" d="M165.85,19.69c0,0,0-0.02,0.01-0.04c0.01-0.03,0.02-0.06,0.04-0.1c0.04-0.07,0.11-0.16,0.2-0.26
						c0.18-0.19,0.45-0.42,0.77-0.67c0.64-0.49,1.47-1.04,2.14-1.44c0.08-0.05,0.17-0.1,0.26-0.15c0.08-0.05,0.16-0.11,0.25-0.17
						c0.17-0.12,0.35-0.25,0.53-0.38c0.35-0.26,0.71-0.54,1.05-0.76c0.34-0.23,0.65-0.41,0.89-0.51c0.06-0.03,0.11-0.05,0.16-0.07
						c0.05-0.02,0.09-0.04,0.12-0.05c0.07-0.02,0.11-0.03,0.11-0.03c0.09-0.03,0.15,0.19,0.08,0.22c0,0-0.03,0.01-0.09,0.04
						c-0.03,0.01-0.07,0.03-0.11,0.05c-0.04,0.02-0.09,0.04-0.14,0.08c-0.21,0.12-0.49,0.31-0.8,0.55
						c-0.31,0.24-0.65,0.53-0.99,0.81c-0.17,0.14-0.35,0.28-0.52,0.41c-0.09,0.07-0.18,0.13-0.27,0.19
						c-0.09,0.05-0.18,0.11-0.26,0.16c-0.66,0.39-1.52,0.89-2.17,1.33c-0.33,0.22-0.61,0.42-0.78,0.58
						c-0.09,0.08-0.15,0.15-0.18,0.19c-0.03,0.04-0.03,0.06-0.03,0.06c0,0-0.01,0-0.02,0c-0.01,0-0.02,0-0.03,0.01
						c-0.02,0.01-0.05,0.02-0.07,0.03c-0.03,0.01-0.05,0.01-0.08,0c-0.01-0.01-0.02-0.02-0.03-0.03
						C165.86,19.72,165.85,19.71,165.85,19.69z"/>
				</g>
			</g>
		</g>
		<g>
			<g>
				<g>
					<path class="st15" d="M161.57,29.97c0,0,0,0-0.02,0c-0.02,0-0.07-0.01-0.13-0.05l-0.1-0.05l0.05-0.11c0,0,0.02-0.05,0.06-0.14
						c0.04-0.09,0.09-0.21,0.15-0.37c0.06-0.16,0.14-0.35,0.25-0.56c0.11-0.21,0.23-0.43,0.38-0.66c0.29-0.46,0.64-0.95,0.98-1.44
						c0.33-0.48,0.61-1,0.87-1.45c0.26-0.47,0.56-1.01,0.91-1.52c0.34-0.52,0.7-1.02,1.01-1.47c0.31-0.45,0.57-0.86,0.74-1.15
						c0.17-0.3,0.26-0.48,0.26-0.48c0.05-0.1,0.26-0.01,0.22,0.1c0,0-0.02,0.05-0.06,0.14c-0.04,0.09-0.1,0.22-0.18,0.37
						c-0.16,0.31-0.39,0.74-0.68,1.21c-0.29,0.47-0.62,0.99-0.94,1.51c-0.32,0.52-0.6,1.05-0.86,1.52
						c-0.25,0.46-0.56,0.99-0.92,1.48c-0.36,0.49-0.73,0.95-1.03,1.39c-0.15,0.22-0.28,0.43-0.4,0.62
						c-0.11,0.19-0.19,0.37-0.27,0.52c-0.07,0.15-0.13,0.28-0.18,0.36c-0.04,0.09-0.07,0.13-0.07,0.14l-0.05-0.16
						c0.04,0.02,0.06,0.02,0.07,0.02c0.01,0,0.01,0,0.01,0c0.04,0.02,0.07,0.07,0.07,0.12C161.67,29.91,161.65,29.97,161.57,29.97z"
						/>
				</g>
			</g>
		</g>
		<g>
			<g>
				<g>
					<path class="st15" d="M165.79,31.88C165.79,31.88,165.79,31.88,165.79,31.88c0,0,0,0-0.01-0.02l0.02-0.14l-0.02,0.14v0l0,0l0,0
						l0,0l0,0l0,0l0,0C165.79,31.87,165.79,31.87,165.79,31.88C165.79,31.87,165.79,31.87,165.79,31.88c0-0.01,0-0.01,0-0.01l0,0
						c0,0,0,0,0,0l0,0l0,0l0,0l0,0l0,0l0.02-0.14l0,0c0.01-0.01,0.01-0.01,0.02-0.02c0.02-0.02,0.05-0.05,0.09-0.09
						c0.03-0.04,0.08-0.1,0.1-0.16l0.01-0.02c0.01-0.05,0.34-0.71,0.79-1.56c0.23-0.42,0.48-0.89,0.72-1.36
						c0.24-0.47,0.47-0.94,0.66-1.37c0.05-0.12,0.1-0.24,0.16-0.36c0.05-0.12,0.11-0.26,0.17-0.4c0.12-0.27,0.27-0.54,0.42-0.8
						c0.31-0.52,0.65-1.02,0.96-1.45c0.31-0.44,0.57-0.82,0.75-1.1c0.18-0.28,0.27-0.46,0.27-0.46c0.06-0.09,0.26,0.01,0.21,0.11
						c0,0-0.09,0.19-0.25,0.48c-0.16,0.3-0.41,0.7-0.69,1.16c-0.28,0.45-0.6,0.96-0.88,1.47c-0.14,0.26-0.27,0.52-0.38,0.77
						c-0.05,0.13-0.11,0.26-0.16,0.38c-0.05,0.13-0.11,0.26-0.16,0.38c-0.19,0.44-0.44,0.92-0.7,1.39
						c-0.26,0.47-0.54,0.93-0.79,1.34c-0.5,0.82-0.86,1.45-0.89,1.49l0.01-0.02c-0.05,0.12-0.1,0.18-0.15,0.24
						c-0.04,0.05-0.08,0.08-0.1,0.1c-0.01,0.01-0.02,0.02-0.03,0.03l0,0c0,0.03,0.04-0.26,0.02-0.14l0,0l0,0l0,0l0,0l0,0l0,0
						c0,0,0,0,0,0.01c0,0,0,0.01,0,0.01c0,0,0,0,0,0c0,0,0,0,0-0.01c0,0,0,0,0-0.01l0,0l0,0l0,0l0,0l0,0l0,0l0,0
						c-0.01,0.06,0.02-0.14-0.02,0.14l0.02-0.14c0.03,0.06,0.03,0.1,0.03,0.12c0,0.02,0,0.02,0,0.02c-0.01,0.05-0.04,0.07-0.06,0.07
						c-0.02,0-0.05,0-0.08,0c-0.03,0-0.05-0.01-0.07-0.04C165.81,31.9,165.8,31.88,165.79,31.88z"/>
				</g>
			</g>
		</g>
		<g>
			<g>
				<g>
					<path class="st15" d="M161.6,29.84c0,0,0,0-0.03-0.01c-0.01,0-0.03-0.01-0.04-0.02c-0.01,0,0,0-0.02,0l0.12-0.15
						c0,0,0.01,0.03,0.03,0.07c0.01,0.04,0.04,0.1,0.08,0.17c0.07,0.14,0.19,0.33,0.35,0.52c0.16,0.19,0.37,0.38,0.59,0.55
						c0.22,0.17,0.46,0.32,0.67,0.44c0.22,0.12,0.49,0.25,0.76,0.34c0.14,0.05,0.28,0.08,0.42,0.11c0.14,0.03,0.28,0.05,0.4,0.05
						c0.26,0.01,0.48-0.02,0.64-0.06c0.08-0.03,0.14-0.04,0.18-0.06c0.04-0.02,0.06-0.03,0.06-0.03c0.05-0.02,0.16,0.17,0.11,0.21
						c0,0-0.02,0.01-0.07,0.04c-0.04,0.03-0.11,0.06-0.2,0.1c-0.17,0.07-0.43,0.14-0.73,0.15c-0.15,0.01-0.31,0-0.47-0.01
						c-0.16-0.02-0.32-0.05-0.48-0.09c-0.32-0.08-0.62-0.21-0.87-0.35c-0.24-0.13-0.49-0.31-0.72-0.51c-0.23-0.2-0.44-0.44-0.6-0.67
						c-0.16-0.23-0.26-0.45-0.32-0.62c-0.03-0.08-0.05-0.15-0.06-0.2c-0.01-0.05-0.02-0.08-0.02-0.08l0-0.15l0.11,0
						c0.04,0,0.09,0.01,0.12,0.03c0.01,0.01,0.02,0.01,0.03,0.01c0,0,0,0,0,0c0,0.01,0.01,0.07,0.01,0.12
						C161.67,29.79,161.65,29.85,161.6,29.84z"/>
				</g>
			</g>
		</g>
		<g>
			<g>
				<g>
					<path class="st15" d="M166.11,31.27c0,0-0.01-0.01-0.04-0.02c-0.03-0.01-0.08-0.03-0.15-0.04c-0.07-0.01-0.17-0.02-0.27-0.02
						c-0.06,0-0.11-0.01-0.18-0.01c-0.07-0.01-0.13-0.02-0.2-0.03c-0.26-0.04-0.56-0.09-0.85-0.18c-0.29-0.08-0.58-0.2-0.81-0.33
						c-0.48-0.25-0.99-0.71-1.31-1.15c-0.16-0.22-0.28-0.44-0.33-0.61c-0.02-0.04-0.02-0.08-0.03-0.12
						c-0.01-0.04-0.02-0.06-0.02-0.09c0-0.05-0.01-0.08-0.01-0.08c0-0.06,0.22-0.07,0.24-0.03c0,0,0,0.02,0.01,0.06
						c0,0.02,0.01,0.04,0.02,0.07c0.01,0.03,0.02,0.06,0.04,0.09c0.06,0.13,0.18,0.31,0.35,0.49c0.33,0.37,0.84,0.75,1.26,0.97
						c0.21,0.12,0.46,0.23,0.72,0.33c0.26,0.1,0.54,0.18,0.78,0.24c0.06,0.02,0.12,0.03,0.18,0.04c0.05,0.01,0.11,0.02,0.17,0.03
						c0.11,0.02,0.21,0.04,0.3,0.06c0.09,0.02,0.16,0.06,0.21,0.09c0.05,0.03,0.08,0.06,0.08,0.06
						C166.31,31.18,166.12,31.27,166.11,31.27z"/>
				</g>
			</g>
		</g>
		<g>
			<g>
				<g>
					<path class="st15" d="M158.68,38.48c0,0,0-0.04,0-0.11c0-0.04-0.01-0.08-0.02-0.13c-0.01-0.05-0.02-0.11-0.03-0.17
						c-0.03-0.13-0.07-0.29-0.11-0.47c-0.04-0.18-0.08-0.41-0.08-0.65c0-0.12,0.02-0.24,0.04-0.36c0.01-0.06,0.02-0.12,0.03-0.18
						c0.01-0.06,0.03-0.12,0.04-0.18c0.06-0.24,0.16-0.49,0.27-0.72c0.23-0.46,0.55-0.87,0.87-1.18c0.04-0.04,0.08-0.08,0.12-0.11
						c0.02-0.02,0.04-0.04,0.06-0.06c0.02-0.02,0.05-0.04,0.07-0.06c0.1-0.08,0.2-0.16,0.3-0.22c0.21-0.13,0.43-0.25,0.65-0.36
						c0.44-0.22,0.88-0.43,1.24-0.65c0.18-0.11,0.33-0.23,0.46-0.35c0.12-0.12,0.21-0.24,0.27-0.35c0.06-0.11,0.09-0.2,0.1-0.27
						c0.01-0.03,0.01-0.06,0.01-0.08c0-0.02,0-0.03,0-0.03c0.01-0.08,0.23-0.09,0.24,0.01c0,0,0,0.01,0,0.03c0,0.02,0,0.05-0.01,0.1
						c-0.01,0.08-0.04,0.21-0.1,0.35c-0.06,0.14-0.16,0.29-0.29,0.44c-0.13,0.15-0.3,0.29-0.48,0.43c-0.37,0.27-0.81,0.51-1.23,0.74
						c-0.21,0.12-0.42,0.24-0.6,0.36c-0.09,0.06-0.18,0.13-0.25,0.19c-0.04,0.04-0.08,0.07-0.12,0.11
						c-0.04,0.04-0.08,0.07-0.11,0.11c-0.29,0.28-0.59,0.64-0.81,1.05c-0.11,0.2-0.2,0.42-0.27,0.63c-0.02,0.05-0.03,0.11-0.05,0.16
						c-0.02,0.05-0.03,0.11-0.04,0.16c-0.03,0.11-0.04,0.21-0.05,0.31c-0.02,0.2,0,0.39,0.03,0.57c0.03,0.18,0.06,0.34,0.08,0.48
						c0.01,0.07,0.02,0.14,0.02,0.19c0,0.06,0.01,0.11,0.01,0.15c0,0.08,0,0.12,0,0.12C158.89,38.57,158.69,38.56,158.68,38.48z"/>
				</g>
			</g>
		</g>
		<g>
			<g>
				<g>
					<path class="st15" d="M159.52,38.28c0,0-0.01-0.02-0.02-0.04c-0.01-0.03-0.03-0.07-0.04-0.12c-0.02-0.1-0.01-0.23,0.03-0.31
						c0.04-0.09,0.13-0.17,0.2-0.22c0.08-0.05,0.14-0.07,0.14-0.07c0.01,0,0.17,0.16,0.17,0.17c0,0-0.02,0.06-0.04,0.12
						c-0.02,0.07-0.03,0.14-0.05,0.19c-0.02,0.05-0.07,0.1-0.1,0.15c-0.03,0.05-0.05,0.1-0.05,0.1
						C159.73,38.25,159.53,38.28,159.52,38.28z"/>
				</g>
			</g>
		</g>
		<g>
			<g>
				<g>
					<path class="st15" d="M160.14,38.72c0,0,0.01-0.07,0.05-0.16c0.04-0.08,0.09-0.17,0.15-0.22c0.06-0.05,0.14-0.08,0.21-0.1
						c0.06-0.02,0.11-0.04,0.11-0.04c0.01,0,0.19,0.13,0.19,0.14c0,0-0.02,0.07-0.06,0.15c-0.04,0.08-0.1,0.16-0.15,0.2
						c-0.05,0.04-0.13,0.08-0.19,0.1c-0.06,0.03-0.11,0.05-0.11,0.05C160.31,38.83,160.14,38.73,160.14,38.72z"/>
				</g>
			</g>
		</g>
		<g>
			<g>
				<g>
					<path class="st15" d="M160.3,39.36c0,0,0.04,0,0.1,0c0.06,0,0.13,0,0.18,0.03c0.05,0.02,0.1,0.08,0.13,0.12
						c0.04,0.05,0.07,0.08,0.04,0.08c-0.01,0.01,0,0.23-0.02,0.24c-0.03,0-0.08,0.01-0.15,0.01c-0.07,0-0.15,0-0.2-0.03
						c-0.05-0.03-0.11-0.08-0.15-0.14c-0.04-0.05-0.07-0.1-0.07-0.1C160.18,39.54,160.29,39.37,160.3,39.36z"/>
				</g>
			</g>
		</g>
		<g>
			<g>
				<g>
					<path class="st15" d="M159.68,41.09c0,0-0.03-0.05-0.06-0.11c-0.03-0.06-0.08-0.13-0.1-0.19c-0.02-0.06-0.02-0.15-0.03-0.23
						c0-0.08,0-0.14,0-0.14c0-0.01,0.21-0.09,0.22-0.09c0,0,0.05,0.04,0.1,0.1c0.05,0.06,0.12,0.14,0.14,0.22
						c0.02,0.08,0.02,0.19,0.01,0.28c-0.02,0.09-0.04,0.15-0.04,0.15C159.89,41.1,159.69,41.1,159.68,41.09z"/>
				</g>
			</g>
		</g>
		<g>
			<g>
				<g>
					<path class="st15" d="M157.78,40.8c0,0,0-0.02,0.01-0.05c0.01-0.03,0.02-0.08,0.04-0.13c0.04-0.1,0.11-0.21,0.18-0.27
						c0.07-0.06,0.17-0.11,0.25-0.14c0.04-0.02,0.07-0.03,0.09-0.04c0.02-0.01,0.04-0.02,0.04-0.02c0.01,0,0.18,0.14,0.18,0.15
						c0,0-0.01,0.02-0.02,0.05c-0.01,0.03-0.03,0.07-0.06,0.11c-0.05,0.08-0.12,0.18-0.18,0.23c-0.06,0.05-0.14,0.09-0.21,0.13
						c-0.06,0.04-0.11,0.08-0.11,0.08C157.97,40.89,157.79,40.82,157.78,40.8z"/>
				</g>
			</g>
		</g>
		<g>
			<g>
				<g>
					<path class="st15" d="M157.13,39.62c0,0,0.03-0.03,0.07-0.06c0.04-0.03,0.08-0.06,0.12-0.07c0.04,0,0.09,0.01,0.13,0.03
						c0.04,0.02,0.07,0.03,0.07,0.03c0,0,0.11,0.2,0.1,0.21c0,0-0.03,0.05-0.08,0.09c-0.04,0.04-0.1,0.08-0.15,0.09
						c-0.05,0.01-0.12-0.01-0.17-0.04c-0.05-0.02-0.09-0.05-0.09-0.05C157.12,39.84,157.12,39.64,157.13,39.62z"/>
				</g>
			</g>
		</g>
		<g>
			<g>
				<g>
					<path class="st15" d="M157.54,38.24c0,0,0.04,0.02,0.1,0.04c0.06,0.02,0.12,0.04,0.16,0.07c0.04,0.03,0.07,0.08,0.11,0.13
						c0.03,0.04,0.07,0.08,0.07,0.08c0,0.01-0.04,0.23-0.05,0.23c0,0-0.06,0.02-0.15,0.01c-0.08,0-0.18-0.03-0.25-0.07
						c-0.06-0.05-0.11-0.13-0.15-0.2c-0.03-0.07-0.04-0.13-0.04-0.13C157.37,38.36,157.53,38.24,157.54,38.24z"/>
				</g>
			</g>
		</g>
		<g>
			<g>
				<g>
					<path class="st15" d="M158.62,39.4c0,0,0-0.01,0.01-0.03c0.01-0.02,0.02-0.05,0.05-0.09c0.03-0.04,0.08-0.09,0.15-0.12
						c0.06-0.03,0.12-0.05,0.17-0.07l-0.03,0.01c0.02-0.01,0.03-0.03,0.1-0.04c0.01,0,0.03,0,0.04,0c0.01,0,0.01,0,0.02,0
						c0.01,0,0.01,0,0.03,0.01c0.03,0.01,0.05,0.02,0.07,0.04c0.02,0.02,0.05,0.04,0.06,0.07c0,0.01,0.01,0.01,0.01,0.02l0.01,0.02
						c0,0.01,0.01,0.02,0.01,0.03c0,0.01,0,0.02,0,0.03l0,0.02c0,0.01,0,0.03,0,0.04l-0.01,0.03c-0.02,0.07-0.04,0.11-0.06,0.15
						c-0.02,0.04-0.05,0.07-0.08,0.1c-0.03,0.03-0.06,0.05-0.1,0.08c-0.04,0.02-0.1,0.05-0.19,0.06c-0.01,0-0.02,0-0.03,0
						c-0.01,0-0.03,0-0.04-0.01c-0.03,0-0.05-0.01-0.08-0.03c-0.05-0.02-0.08-0.06-0.1-0.09c-0.01-0.01-0.01-0.02-0.02-0.02
						l-0.01-0.02c-0.01-0.01-0.01-0.03-0.02-0.04c-0.01-0.02-0.01-0.05-0.01-0.07c-0.01-0.08,0.01-0.13,0.01-0.17
						c0.01-0.04,0.02-0.06,0.03-0.07l0.13-0.12c0.13,0.01,0.15,0.01,0.15,0.01c0.01,0.01,0.01,0.23,0,0.24c0,0-0.02,0.01-0.15,0.01
						l0.13-0.12c0.01,0.01,0.02,0.03,0.03,0.06c0.01,0.03,0.02,0.07,0.04,0.09c0,0.01,0.01,0.01,0.01,0.01c0,0-0.01,0-0.01,0.01
						c-0.01,0-0.01,0.01-0.02,0.01c-0.01,0-0.01,0.01-0.02,0.01c-0.01,0-0.01,0-0.01,0.01c-0.01,0.01-0.02,0.02-0.02,0.02
						c0,0-0.01,0.01-0.01,0.01c0,0,0,0,0,0c0,0,0,0,0-0.01c0,0,0-0.01,0-0.01c0,0,0-0.01,0-0.01c0-0.01,0-0.01,0-0.02
						c0-0.01,0-0.01-0.01-0.02c0-0.01-0.01-0.02-0.01-0.02c0-0.01-0.01-0.02-0.01-0.02c0-0.01-0.01-0.02-0.01-0.02c0,0,0,0,0,0
						c0.01-0.01,0.02-0.02,0.02-0.02c0.01-0.01,0.02-0.02,0.03-0.03c0.01-0.01,0.01-0.01,0.01-0.01c0,0,0,0,0.01,0
						c0.03,0.01,0.06,0.02,0.08,0.03c0.01,0,0.03,0.01,0.04,0.01c0.01,0,0.02,0,0.03,0.01c0,0,0.01,0,0.01,0c0,0,0.01,0,0.01,0
						c0,0,0.02-0.01,0.01,0c0,0,0,0,0,0c0,0,0,0.01,0,0.01c0,0.01-0.01,0.03,0,0.04c0,0.02,0,0.04,0.01,0.06
						c0.01,0.01,0.01,0.04,0.02,0.06l0,0.01l0,0l0,0c0,0,0,0,0,0l-0.03,0.01c-0.07,0.01-0.12,0.01-0.15,0.01
						c-0.03,0-0.04,0-0.05,0.01c-0.03,0.02-0.05,0.04-0.05,0.04C158.8,39.51,158.62,39.42,158.62,39.4z"/>
				</g>
			</g>
		</g>
		<g>
			<g>
				<g>
					<g>
						<g>
							<path class="st4" d="M167.72,25.06c0,0,0.1-0.16,0.23-0.37c0.13-0.21,0.29-0.47,0.42-0.67c0.13-0.2,0.32-0.44,0.46-0.63
								c0.07-0.1,0.13-0.19,0.17-0.25c0.04-0.06,0.06-0.1,0.06-0.1c0.01-0.02,0.22,0.06,0.22,0.09c0,0-0.01,0.05-0.04,0.13
								c-0.02,0.08-0.06,0.19-0.11,0.3c-0.1,0.24-0.24,0.52-0.38,0.73c-0.14,0.2-0.35,0.44-0.52,0.62
								c-0.18,0.18-0.32,0.31-0.32,0.31C167.87,25.22,167.71,25.09,167.72,25.06z"/>
						</g>
					</g>
				</g>
				<g>
					<g>
						<g>
							<path class="st4" d="M169.1,24.49c0,0,0,0-0.01-0.01c-0.01-0.01-0.02-0.01-0.03-0.02c-0.03-0.02-0.07-0.04-0.13-0.07
								c-0.11-0.05-0.27-0.1-0.39-0.16c-0.12-0.06-0.26-0.15-0.38-0.23c-0.12-0.08-0.21-0.15-0.21-0.15
								c-0.01-0.01,0.08-0.21,0.1-0.22c0,0,0.1,0.02,0.25,0.04c0.14,0.03,0.32,0.07,0.45,0.13c0.13,0.06,0.29,0.17,0.4,0.29
								c0.06,0.06,0.1,0.12,0.13,0.17c0.01,0.02,0.02,0.05,0.03,0.06c0.01,0.01,0.01,0.02,0.01,0.02
								C169.29,24.39,169.11,24.49,169.1,24.49z"/>
						</g>
					</g>
				</g>
				<g>
					<g>
						<g>
							<path class="st4" d="M168.76,24.73c0,0-0.06-0.08-0.14-0.2c-0.07-0.12-0.16-0.26-0.21-0.39c-0.05-0.13-0.08-0.3-0.09-0.44
								c-0.01-0.14-0.01-0.25-0.01-0.25c0-0.02,0.22-0.06,0.23-0.05c0,0,0.05,0.09,0.11,0.21c0.06,0.12,0.14,0.26,0.19,0.38
								c0.04,0.12,0.08,0.29,0.1,0.42c0.02,0.14,0.03,0.24,0.03,0.24C168.96,24.67,168.78,24.74,168.76,24.73z"/>
						</g>
					</g>
				</g>
				<g>
					<g>
						<g>
							<path class="st4" d="M167.75,24.44c0,0,0.02-0.03,0.06-0.09c0.02-0.03,0.04-0.06,0.07-0.09c0.03-0.03,0.06-0.07,0.1-0.1
								c0.15-0.14,0.35-0.27,0.52-0.34c0.16-0.07,0.38-0.13,0.54-0.19c0.04-0.01,0.08-0.03,0.11-0.04c0.03-0.01,0.06-0.03,0.09-0.04
								c0.05-0.02,0.07-0.04,0.07-0.04c0.02-0.01,0.16,0.16,0.15,0.18c0,0-0.03,0.03-0.07,0.08c-0.02,0.02-0.05,0.05-0.08,0.08
								c-0.03,0.03-0.07,0.06-0.11,0.09c-0.16,0.12-0.36,0.23-0.51,0.3c-0.16,0.07-0.36,0.14-0.51,0.21
								c-0.04,0.02-0.07,0.04-0.1,0.05c-0.03,0.02-0.06,0.03-0.08,0.05c-0.04,0.03-0.07,0.05-0.07,0.05
								C167.9,24.58,167.74,24.46,167.75,24.44z"/>
						</g>
					</g>
				</g>
			</g>
		</g>
		<g>
			<g>
				<g>
					<g>
						<g>
							<path class="st4" d="M163.73,28.22c0,0,0.1-0.16,0.23-0.37c0.13-0.21,0.29-0.47,0.42-0.67c0.13-0.2,0.32-0.44,0.46-0.63
								c0.07-0.1,0.13-0.19,0.17-0.25c0.04-0.06,0.06-0.1,0.06-0.1c0.01-0.02,0.22,0.06,0.22,0.09c0,0-0.01,0.05-0.04,0.13
								c-0.02,0.08-0.06,0.19-0.11,0.3c-0.1,0.24-0.24,0.52-0.38,0.73c-0.14,0.2-0.35,0.44-0.52,0.62
								c-0.18,0.18-0.32,0.31-0.32,0.31C163.87,28.38,163.72,28.25,163.73,28.22z"/>
						</g>
					</g>
				</g>
				<g>
					<g>
						<g>
							<path class="st4" d="M165.1,27.65c0,0,0,0-0.01-0.01c-0.01-0.01-0.02-0.01-0.03-0.02c-0.03-0.02-0.07-0.04-0.13-0.07
								c-0.11-0.05-0.27-0.1-0.39-0.16c-0.12-0.06-0.26-0.15-0.38-0.23c-0.12-0.08-0.21-0.15-0.21-0.15
								c-0.01-0.01,0.08-0.21,0.1-0.22c0,0,0.1,0.02,0.25,0.04c0.14,0.03,0.32,0.07,0.45,0.13c0.13,0.06,0.29,0.17,0.4,0.29
								c0.06,0.06,0.1,0.12,0.13,0.17c0.01,0.02,0.02,0.05,0.03,0.06c0.01,0.01,0.01,0.02,0.01,0.02
								C165.3,27.55,165.12,27.65,165.1,27.65z"/>
						</g>
					</g>
				</g>
				<g>
					<g>
						<g>
							<path class="st4" d="M164.77,27.89c0,0-0.06-0.08-0.14-0.2c-0.07-0.12-0.16-0.26-0.21-0.39c-0.05-0.13-0.08-0.3-0.09-0.44
								c-0.01-0.14-0.01-0.25-0.01-0.25c0-0.02,0.22-0.06,0.23-0.05c0,0,0.05,0.09,0.11,0.21c0.06,0.12,0.14,0.26,0.19,0.38
								c0.04,0.12,0.08,0.29,0.1,0.42c0.02,0.14,0.03,0.24,0.03,0.24C164.97,27.83,164.79,27.9,164.77,27.89z"/>
						</g>
					</g>
				</g>
				<g>
					<g>
						<g>
							<path class="st4" d="M163.75,27.6c0,0,0.02-0.03,0.06-0.09c0.02-0.03,0.04-0.06,0.07-0.09c0.03-0.03,0.06-0.07,0.1-0.1
								c0.15-0.14,0.35-0.27,0.52-0.34c0.16-0.07,0.38-0.13,0.54-0.19c0.04-0.01,0.08-0.03,0.11-0.04c0.03-0.01,0.06-0.03,0.09-0.04
								c0.05-0.02,0.07-0.04,0.07-0.04c0.02-0.01,0.16,0.16,0.15,0.18c0,0-0.03,0.03-0.07,0.08c-0.02,0.02-0.05,0.05-0.08,0.08
								c-0.03,0.03-0.07,0.06-0.11,0.09c-0.16,0.12-0.36,0.23-0.51,0.3c-0.16,0.07-0.36,0.14-0.51,0.21
								c-0.04,0.02-0.07,0.04-0.1,0.05c-0.03,0.02-0.06,0.03-0.08,0.05c-0.04,0.03-0.07,0.05-0.07,0.05
								C163.91,27.74,163.75,27.62,163.75,27.6z"/>
						</g>
					</g>
				</g>
			</g>
		</g>
		<g>
			<g>
				<g>
					<g>
						<path class="st4" d="M161.59,21.68c0,0,0.05-0.03,0.14-0.07c0.09-0.04,0.21-0.1,0.36-0.16c0.29-0.11,0.66-0.22,0.96-0.27
							c0.3-0.05,0.68-0.08,0.98-0.09c0.31-0.01,0.54-0.01,0.54-0.01c0.03,0,0.06,0.22,0.03,0.24c0,0-0.22,0.05-0.52,0.12
							c-0.3,0.06-0.66,0.14-0.95,0.19c-0.29,0.05-0.65,0.1-0.94,0.15c-0.15,0.03-0.27,0.06-0.36,0.08
							c-0.09,0.02-0.14,0.04-0.14,0.04C161.64,21.89,161.56,21.71,161.59,21.68z"/>
					</g>
				</g>
			</g>
		</g>
		<g>
			<g>
				<g>
					<g>
						<path class="st4" d="M162.68,15.66c0,0,0.01,0.01,0.03,0.03c0.02,0.02,0.04,0.04,0.07,0.08c0.03,0.03,0.07,0.07,0.12,0.11
							c0.05,0.04,0.1,0.08,0.15,0.13c0.23,0.18,0.53,0.37,0.77,0.52c0.24,0.15,0.54,0.35,0.8,0.48c0.06,0.04,0.13,0.06,0.18,0.09
							c0.06,0.02,0.11,0.04,0.15,0.06c0.08,0.03,0.13,0.05,0.13,0.05c0.03,0.01-0.01,0.23-0.04,0.23c0,0-0.02,0-0.04,0
							c-0.03,0-0.07-0.01-0.12-0.01c-0.05-0.01-0.11-0.02-0.18-0.03c-0.06-0.02-0.14-0.03-0.21-0.06c-0.3-0.09-0.66-0.25-0.92-0.42
							c-0.26-0.16-0.55-0.42-0.76-0.66c-0.05-0.06-0.1-0.12-0.14-0.17c-0.04-0.05-0.07-0.11-0.1-0.15c-0.03-0.04-0.05-0.08-0.06-0.1
							c-0.01-0.02-0.02-0.04-0.02-0.04C162.48,15.75,162.65,15.64,162.68,15.66z"/>
					</g>
				</g>
			</g>
		</g>
		<g>
			<g>
				<g>
					<g>
						<path class="st4" d="M166.27,11.72c0,0,0.03,0.05,0.09,0.15c0.05,0.09,0.13,0.22,0.21,0.38c0.15,0.3,0.32,0.69,0.42,0.99
							c0.11,0.31,0.21,0.7,0.31,1.01c0.05,0.16,0.1,0.29,0.13,0.38c0.02,0.05,0.04,0.08,0.05,0.11c0.01,0.03,0.02,0.04,0.02,0.04
							c0.01,0.03-0.18,0.15-0.2,0.12c0,0-0.01-0.01-0.03-0.04c-0.02-0.02-0.05-0.06-0.07-0.11c-0.06-0.09-0.14-0.22-0.21-0.38
							c-0.16-0.3-0.32-0.69-0.42-1c-0.1-0.31-0.21-0.7-0.31-1.01c-0.05-0.16-0.09-0.29-0.13-0.39c-0.04-0.1-0.06-0.15-0.06-0.15
							C166.07,11.79,166.24,11.7,166.27,11.72z"/>
					</g>
				</g>
			</g>
		</g>
		<g>
			<g>
				<g>
					<g>
						<path class="st4" d="M171.71,10.29c0,0,0.01,0.22,0.02,0.51c0.01,0.29,0,0.65-0.03,0.94c-0.03,0.28-0.12,0.64-0.21,0.93
							c-0.05,0.14-0.1,0.26-0.13,0.35c-0.04,0.09-0.06,0.14-0.06,0.14c-0.02,0.03-0.23-0.05-0.22-0.08c0,0,0.01-0.05,0.03-0.14
							c0.02-0.09,0.04-0.21,0.05-0.35c0.04-0.28,0.06-0.63,0.09-0.9c0.03-0.27,0.09-0.62,0.14-0.91c0.05-0.28,0.09-0.5,0.09-0.5
							C171.5,10.25,171.7,10.26,171.71,10.29z"/>
					</g>
				</g>
			</g>
		</g>
		<g>
			<g>
				<g>
					<g>
						<path class="st4" d="M176.71,10.16c0,0-0.02,0.07-0.06,0.2c-0.04,0.12-0.1,0.3-0.18,0.49c-0.15,0.39-0.37,0.85-0.57,1.2
							c-0.2,0.35-0.5,0.77-0.75,1.1c-0.25,0.33-0.45,0.57-0.45,0.57c-0.03,0.03-0.21-0.1-0.19-0.14c0,0,0.16-0.27,0.36-0.62
							c0.2-0.35,0.44-0.79,0.64-1.14c0.2-0.34,0.46-0.77,0.66-1.12c0.1-0.18,0.18-0.33,0.24-0.45c0.06-0.11,0.09-0.18,0.09-0.18
							C176.53,10.04,176.72,10.11,176.71,10.16z"/>
					</g>
				</g>
			</g>
		</g>
		<g>
			<g>
				<g>
					<path class="st4" d="M179.6,15.87c0,0-0.02,0-0.05-0.01c-0.03-0.01-0.07-0.02-0.13-0.02c-0.06-0.01-0.12-0.02-0.2-0.02
						c-0.08,0-0.16-0.01-0.25-0.01c-0.36,0-0.81,0.06-1.17,0.11c-0.35,0.05-0.8,0.13-1.16,0.22c-0.09,0.02-0.17,0.05-0.25,0.07
						c-0.07,0.02-0.14,0.05-0.19,0.06c-0.05,0.02-0.09,0.04-0.12,0.05c-0.03,0.01-0.05,0.02-0.05,0.02
						c-0.04,0.01-0.15-0.18-0.12-0.21c0,0,0.02-0.01,0.04-0.03c0.03-0.02,0.07-0.05,0.12-0.08c0.05-0.03,0.12-0.07,0.19-0.1
						c0.08-0.03,0.16-0.08,0.25-0.11c0.36-0.15,0.83-0.29,1.2-0.34c0.38-0.06,0.87-0.06,1.26,0c0.1,0.01,0.19,0.04,0.27,0.05
						c0.08,0.02,0.15,0.04,0.21,0.06c0.06,0.02,0.11,0.04,0.14,0.05c0.03,0.01,0.05,0.02,0.05,0.02
						C179.71,15.68,179.64,15.86,179.6,15.87z"/>
				</g>
			</g>
		</g>
		<g>
			<g>
				<g>
					<g>
						<path class="st4" d="M179.88,19.74c0,0-0.02-0.01-0.05-0.02c-0.03-0.02-0.08-0.03-0.14-0.06c-0.12-0.04-0.3-0.09-0.51-0.11
							c-0.21-0.03-0.44-0.03-0.68-0.02c-0.24,0.01-0.48,0.03-0.69,0.04c-0.43,0.02-1,0.03-1.46-0.08c-0.23-0.05-0.43-0.12-0.56-0.19
							c-0.07-0.03-0.12-0.06-0.15-0.08c-0.03-0.02-0.05-0.03-0.05-0.03c-0.04-0.03,0.07-0.22,0.11-0.21c0,0,0.02,0.01,0.05,0.02
							c0.03,0.02,0.08,0.03,0.14,0.05c0.12,0.04,0.3,0.08,0.51,0.1c0.42,0.04,0.95-0.02,1.38-0.04c0.22-0.01,0.47-0.01,0.72,0
							c0.26,0.01,0.51,0.05,0.74,0.11c0.23,0.06,0.42,0.14,0.55,0.21c0.07,0.04,0.12,0.06,0.15,0.09c0.03,0.02,0.05,0.03,0.05,0.03
							C180.03,19.57,179.92,19.74,179.88,19.74z"/>
					</g>
				</g>
			</g>
		</g>
		<g>
			<g>
				<g>
					<g>
						<path class="st4" d="M179.07,24.06c0,0-0.08-0.01-0.21-0.03c-0.07-0.01-0.15-0.03-0.23-0.04c-0.09-0.02-0.19-0.04-0.29-0.07
							c-0.41-0.1-0.92-0.27-1.29-0.44c-0.38-0.17-0.84-0.42-1.2-0.64c-0.36-0.22-0.63-0.39-0.63-0.39
							c-0.04-0.03,0.07-0.22,0.11-0.21c0,0,1.16,0.5,1.9,0.82c0.37,0.16,0.83,0.38,1.21,0.53c0.1,0.04,0.19,0.07,0.27,0.1
							c0.08,0.03,0.15,0.05,0.22,0.07c0.12,0.04,0.2,0.06,0.2,0.06C179.16,23.86,179.12,24.06,179.07,24.06z"/>
					</g>
				</g>
			</g>
		</g>
		<g>
			<g>
				<g>
					<path class="st4" d="M176.56,27.81c0,0-0.04-0.06-0.12-0.17c-0.04-0.05-0.08-0.11-0.13-0.18c-0.05-0.07-0.11-0.14-0.17-0.22
						c-0.25-0.32-0.57-0.7-0.82-1.01c-0.25-0.31-0.56-0.7-0.81-1.02c-0.26-0.32-0.45-0.55-0.45-0.55c-0.03-0.03,0.13-0.19,0.17-0.17
						c0,0,0.24,0.2,0.54,0.49c0.3,0.28,0.66,0.65,0.92,0.97c0.25,0.31,0.55,0.74,0.76,1.1c0.05,0.09,0.1,0.18,0.14,0.25
						c0.04,0.08,0.08,0.15,0.11,0.21c0.06,0.12,0.09,0.19,0.09,0.19C176.77,27.75,176.59,27.84,176.56,27.81z"/>
				</g>
			</g>
		</g>
	</g>
	<g>
		<g>
			<g>
				<path class="st15" d="M159.92,54.69c0,0,0,0.03,0,0.08c0,0.06,0.01,0.14,0.02,0.24c0.01,0.1,0.03,0.23,0.05,0.38
					c0.01,0.07,0.01,0.16,0.02,0.24c0,0.08,0,0.17-0.02,0.25c-0.01,0.04-0.02,0.07-0.05,0.12c-0.02,0.05-0.04,0.09-0.07,0.13
					c-0.05,0.09-0.12,0.17-0.2,0.24c-0.16,0.14-0.4,0.2-0.66,0.17c-0.26-0.04-0.55-0.17-0.75-0.4c-0.05-0.05-0.09-0.12-0.13-0.18
					c-0.03-0.06-0.05-0.13-0.06-0.2c-0.01-0.07,0-0.13,0.03-0.19c0.02-0.06,0.07-0.12,0.13-0.17l-0.29-0.03
					c0.05,0.09,0.16,0.24,0.19,0.45c0.02,0.1,0.02,0.22-0.01,0.33c-0.03,0.12-0.09,0.23-0.19,0.33c-0.19,0.21-0.51,0.34-0.84,0.32
					c-0.16-0.01-0.32-0.05-0.46-0.12l-0.05-0.03l-0.05-0.03c-0.04-0.02-0.07-0.04-0.1-0.07c-0.06-0.05-0.12-0.11-0.17-0.17
					c-0.35-0.39-0.62-1-0.64-1.47c0-0.12,0.01-0.22,0.04-0.3c0.03-0.08,0.07-0.14,0.12-0.18c0.1-0.09,0.24-0.1,0.33-0.12l-0.22-0.19
					c0.04,0.38-0.09,0.71-0.37,0.86c-0.13,0.08-0.3,0.11-0.45,0.12c-0.16,0.01-0.32-0.02-0.46-0.07c-0.29-0.1-0.52-0.28-0.65-0.51
					c-0.07-0.11-0.11-0.23-0.13-0.35c-0.02-0.12-0.03-0.24-0.02-0.35c0.02-0.22,0.09-0.41,0.17-0.57c0.08-0.16,0.16-0.3,0.23-0.4
					c0.07-0.11,0.13-0.18,0.17-0.24c0.04-0.05,0.06-0.08,0.06-0.08c0.11-0.14-0.07-0.29-0.19-0.16c0,0-0.02,0.03-0.07,0.08
					c-0.04,0.05-0.11,0.13-0.19,0.24c-0.08,0.11-0.18,0.25-0.27,0.43c-0.09,0.18-0.19,0.4-0.22,0.68c0,0.07-0.01,0.14,0,0.21
					c0,0.07,0.01,0.14,0.02,0.22c0.03,0.15,0.08,0.31,0.16,0.46c0.16,0.3,0.46,0.55,0.82,0.68c0.18,0.07,0.38,0.1,0.59,0.1
					c0.21-0.01,0.43-0.05,0.63-0.16c0.1-0.05,0.2-0.13,0.28-0.22c0.08-0.09,0.16-0.19,0.2-0.31c0.1-0.23,0.13-0.48,0.11-0.71
					l-0.02-0.2l-0.2,0.01c-0.06,0-0.14,0.01-0.24,0.03c-0.05,0.01-0.1,0.03-0.16,0.05c-0.06,0.03-0.12,0.06-0.17,0.1
					c-0.12,0.09-0.22,0.22-0.28,0.37c-0.06,0.15-0.08,0.31-0.08,0.47c0.01,0.32,0.09,0.64,0.22,0.94c0.13,0.3,0.3,0.59,0.52,0.84
					c0.07,0.08,0.15,0.15,0.23,0.22c0.05,0.03,0.09,0.07,0.14,0.1l0.07,0.04l0.08,0.04c0.2,0.1,0.43,0.16,0.66,0.16
					c0.46,0.01,0.91-0.17,1.19-0.49c0.14-0.16,0.24-0.35,0.28-0.54c0.04-0.19,0.03-0.37-0.01-0.52c-0.03-0.15-0.09-0.28-0.15-0.37
					c-0.05-0.1-0.11-0.17-0.15-0.22l-0.14-0.19l-0.15,0.16c-0.09,0.09-0.17,0.19-0.21,0.31c-0.05,0.12-0.06,0.25-0.05,0.38
					c0.02,0.12,0.06,0.23,0.11,0.33c0.05,0.09,0.12,0.18,0.19,0.25c0.14,0.15,0.3,0.26,0.46,0.34c0.17,0.08,0.34,0.13,0.51,0.15
					c0.34,0.04,0.69-0.06,0.91-0.26c0.11-0.1,0.2-0.21,0.26-0.32c0.04-0.05,0.06-0.11,0.08-0.16c0.02-0.05,0.05-0.12,0.06-0.18
					c0.03-0.12,0.03-0.23,0.02-0.33c0-0.1-0.02-0.18-0.03-0.26c-0.02-0.16-0.05-0.29-0.06-0.39c-0.02-0.1-0.03-0.18-0.03-0.22
					c-0.01-0.05-0.01-0.07-0.01-0.07c-0.01-0.04-0.03-0.07-0.05-0.09c-0.02-0.02-0.05-0.04-0.08-0.04c-0.03,0-0.06,0.01-0.08,0.03
					C159.94,54.6,159.92,54.64,159.92,54.69z"/>
			</g>
		</g>
	</g>
	<g>
		<g>
			<g>
				<path class="st15" d="M10.93,26.03c0,0,0,0.03,0,0.08c0,0.06,0.01,0.14,0.02,0.24c0.01,0.1,0.03,0.23,0.05,0.38
					c0.01,0.07,0.01,0.16,0.02,0.24c0,0.08,0,0.17-0.02,0.25c-0.01,0.04-0.02,0.07-0.05,0.12c-0.02,0.05-0.04,0.09-0.07,0.13
					c-0.05,0.09-0.12,0.17-0.2,0.24c-0.16,0.14-0.4,0.2-0.66,0.17c-0.26-0.04-0.55-0.17-0.75-0.4c-0.05-0.05-0.09-0.12-0.13-0.18
					c-0.03-0.06-0.05-0.13-0.06-0.2c-0.01-0.07,0-0.13,0.03-0.19c0.02-0.06,0.07-0.12,0.13-0.17l-0.29-0.03
					c0.05,0.09,0.16,0.24,0.19,0.45c0.02,0.1,0.02,0.22-0.01,0.33c-0.03,0.12-0.09,0.23-0.19,0.33c-0.19,0.21-0.51,0.34-0.84,0.32
					c-0.16-0.01-0.32-0.05-0.46-0.12L7.58,28l-0.05-0.03c-0.04-0.02-0.07-0.04-0.1-0.07c-0.06-0.05-0.12-0.11-0.17-0.17
					c-0.35-0.39-0.62-1-0.64-1.47c0-0.12,0.01-0.22,0.04-0.3c0.03-0.08,0.07-0.14,0.12-0.18c0.1-0.09,0.24-0.1,0.33-0.12l-0.22-0.19
					c0.04,0.38-0.09,0.71-0.37,0.86c-0.13,0.08-0.3,0.11-0.45,0.12c-0.16,0.01-0.32-0.02-0.46-0.07c-0.29-0.1-0.52-0.28-0.65-0.51
					c-0.07-0.11-0.11-0.23-0.13-0.35C4.8,25.42,4.8,25.29,4.8,25.19c0.02-0.22,0.09-0.41,0.17-0.57c0.08-0.16,0.16-0.3,0.23-0.4
					c0.07-0.11,0.13-0.18,0.17-0.24c0.04-0.05,0.06-0.08,0.06-0.08c0.11-0.14-0.07-0.29-0.19-0.16c0,0-0.02,0.03-0.07,0.08
					c-0.04,0.05-0.11,0.13-0.19,0.24C4.9,24.17,4.8,24.3,4.71,24.48c-0.09,0.18-0.19,0.4-0.22,0.68c0,0.07-0.01,0.14,0,0.21
					c0,0.07,0.01,0.14,0.02,0.22c0.03,0.15,0.08,0.31,0.16,0.46c0.16,0.3,0.46,0.55,0.82,0.68c0.18,0.07,0.38,0.1,0.59,0.1
					c0.21-0.01,0.43-0.05,0.63-0.16c0.1-0.05,0.2-0.13,0.28-0.22c0.08-0.09,0.16-0.19,0.2-0.31c0.1-0.23,0.13-0.48,0.11-0.71
					l-0.02-0.2l-0.2,0.01c-0.06,0-0.14,0.01-0.24,0.03c-0.05,0.01-0.1,0.03-0.16,0.05c-0.06,0.03-0.12,0.06-0.17,0.1
					c-0.12,0.09-0.22,0.22-0.28,0.37c-0.06,0.15-0.08,0.31-0.08,0.47c0.01,0.32,0.09,0.64,0.22,0.94c0.13,0.3,0.3,0.59,0.52,0.84
					c0.07,0.08,0.15,0.15,0.23,0.22c0.05,0.03,0.09,0.07,0.14,0.1l0.07,0.04l0.08,0.04c0.2,0.1,0.43,0.16,0.66,0.16
					c0.46,0.01,0.91-0.17,1.19-0.49c0.14-0.16,0.24-0.35,0.28-0.54c0.04-0.19,0.03-0.37-0.01-0.52c-0.03-0.15-0.09-0.28-0.15-0.37
					c-0.05-0.1-0.11-0.17-0.15-0.22l-0.14-0.19l-0.15,0.16c-0.09,0.09-0.17,0.19-0.21,0.31c-0.05,0.12-0.06,0.25-0.05,0.38
					c0.02,0.12,0.06,0.23,0.11,0.33c0.05,0.09,0.12,0.18,0.19,0.25c0.14,0.15,0.3,0.26,0.46,0.34c0.17,0.08,0.34,0.13,0.51,0.15
					c0.34,0.04,0.69-0.06,0.91-0.26c0.11-0.1,0.2-0.21,0.26-0.32c0.04-0.05,0.06-0.11,0.08-0.16c0.02-0.05,0.05-0.12,0.06-0.18
					c0.03-0.12,0.03-0.23,0.02-0.33c0-0.1-0.02-0.18-0.03-0.26c-0.02-0.16-0.05-0.29-0.06-0.39c-0.02-0.1-0.03-0.18-0.03-0.22
					c-0.01-0.05-0.01-0.07-0.01-0.07c-0.01-0.04-0.03-0.07-0.05-0.09c-0.02-0.02-0.05-0.04-0.08-0.04c-0.03,0-0.06,0.01-0.08,0.03
					C10.95,25.94,10.94,25.98,10.93,26.03z"/>
			</g>
		</g>
	</g>
	<g>
		<g>
			<path class="st11" d="M6.82,45.6c0,0-0.03,0.04-0.09,0.12c-0.06,0.08-0.16,0.18-0.3,0.31c-0.27,0.25-0.7,0.59-1.33,0.85
				c-0.16,0.06-0.33,0.11-0.52,0.15c-0.19,0.03-0.4,0.06-0.6,0.05c-0.41-0.01-0.85-0.09-1.28-0.27c-0.87-0.35-1.64-1.12-2.12-2.08
				c-0.48-0.96-0.71-2.13-0.52-3.31c0.05-0.29,0.13-0.59,0.25-0.87c0.06-0.14,0.11-0.28,0.19-0.41c0.08-0.13,0.14-0.27,0.23-0.4
				c0.33-0.52,0.77-0.97,1.29-1.31c1.03-0.69,2.3-0.92,3.47-0.78c0.59,0.07,1.15,0.24,1.67,0.51c0.51,0.27,0.97,0.65,1.29,1.11
				c0.09,0.11,0.15,0.25,0.22,0.37c0.06,0.13,0.12,0.27,0.17,0.41c0.08,0.28,0.14,0.58,0.14,0.88c0,0.15,0,0.3-0.03,0.45l-0.03,0.22
				c-0.01,0.07-0.04,0.14-0.05,0.22c-0.04,0.14-0.07,0.29-0.13,0.43l-0.08,0.21c-0.01,0.04-0.03,0.07-0.04,0.11l-0.06,0.11
				C8.22,43.24,7.76,43.66,7.26,44c-0.51,0.34-1.07,0.59-1.67,0.72c-0.3,0.07-0.61,0.11-0.93,0.1c-0.32-0.01-0.64-0.06-0.95-0.19
				c-0.31-0.12-0.6-0.32-0.82-0.57c-0.22-0.26-0.37-0.56-0.46-0.86c-0.09-0.31-0.12-0.62-0.11-0.92c0.01-0.3,0.06-0.6,0.15-0.88
				c0.18-0.56,0.51-1.09,1.01-1.43c0.25-0.16,0.55-0.27,0.83-0.29c0.26-0.03,0.52-0.04,0.79-0.01c0.26,0.03,0.55,0.11,0.79,0.3
				c0.12,0.1,0.22,0.23,0.28,0.36c0.06,0.14,0.09,0.28,0.1,0.42c0.01,0.27-0.05,0.51-0.13,0.72c-0.08,0.21-0.19,0.4-0.31,0.57
				c-0.12,0.17-0.26,0.32-0.41,0.45c-0.16,0.13-0.33,0.24-0.56,0.28c-0.11,0.02-0.24,0.01-0.36-0.04c-0.11-0.05-0.21-0.13-0.27-0.21
				c-0.12-0.16-0.17-0.32-0.2-0.46c-0.03-0.14-0.04-0.27-0.05-0.39c0-0.12,0.01-0.25,0.05-0.36c0.04-0.11,0.1-0.21,0.17-0.28
				c0.07-0.07,0.14-0.11,0.2-0.14c0.06-0.03,0.1-0.04,0.13-0.05c0.03-0.01,0.04-0.01,0.04-0.01c0.13-0.03,0.22-0.01,0.28,0.03
				c0.06,0.04,0.08,0.09,0.08,0.14c0,0.11-0.11,0.2-0.26,0.24c0,0-0.04,0.01-0.09,0.04c-0.05,0.03-0.11,0.07-0.14,0.17
				c-0.03,0.1-0.03,0.3,0.03,0.51c0.03,0.1,0.07,0.21,0.12,0.27c0.06,0.06,0.09,0.08,0.18,0.06c0.09-0.02,0.21-0.08,0.32-0.18
				c0.11-0.1,0.22-0.22,0.31-0.36c0.09-0.14,0.18-0.3,0.24-0.46c0.06-0.17,0.09-0.34,0.08-0.5c-0.01-0.16-0.07-0.29-0.18-0.37
				c-0.11-0.09-0.29-0.14-0.5-0.16c-0.2-0.02-0.42,0-0.65,0.03C4.18,40.3,4,40.37,3.82,40.49C3.13,40.96,2.81,42.1,3.09,43
				c0.07,0.22,0.18,0.43,0.33,0.59c0.15,0.16,0.34,0.29,0.55,0.37c0.43,0.17,0.96,0.15,1.45,0.03c0.5-0.12,0.98-0.35,1.41-0.64
				c0.42-0.29,0.79-0.65,1.01-1.05l0.04-0.07c0.01-0.02,0.02-0.06,0.03-0.08l0.06-0.17c0.05-0.11,0.07-0.23,0.1-0.34
				c0.01-0.06,0.03-0.11,0.04-0.17l0.02-0.17c0.02-0.11,0.02-0.23,0.02-0.34c0-0.45-0.14-0.87-0.38-1.21
				c-0.48-0.69-1.4-1.17-2.39-1.3c-0.99-0.14-2.08,0.05-2.95,0.61C2,39.33,1.62,39.7,1.34,40.13c-0.07,0.11-0.13,0.22-0.2,0.33
				c-0.07,0.11-0.11,0.23-0.17,0.35c-0.1,0.23-0.17,0.48-0.22,0.73c-0.19,1-0.01,2.06,0.39,2.91c0.4,0.86,1.05,1.53,1.78,1.85
				c0.36,0.16,0.73,0.24,1.08,0.26c0.18,0.02,0.33,0,0.49-0.02c0.16-0.03,0.3-0.07,0.44-0.12c0.56-0.2,0.96-0.5,1.21-0.72
				c0.12-0.11,0.21-0.2,0.27-0.26c0.06-0.06,0.08-0.1,0.08-0.1c0.13-0.14,0.26-0.17,0.35-0.12C6.92,45.25,6.95,45.41,6.82,45.6z"/>
		</g>
	</g>
	<g>
		<g>
			<path class="st11" d="M166.52,56.94c0,0-0.02,0.03-0.06,0.08c-0.04,0.05-0.1,0.12-0.19,0.2c-0.18,0.16-0.45,0.39-0.87,0.55
				c-0.1,0.04-0.22,0.07-0.34,0.1c-0.12,0.02-0.26,0.04-0.39,0.03c-0.26-0.01-0.55-0.06-0.83-0.17c-0.57-0.23-1.07-0.73-1.38-1.36
				c-0.31-0.63-0.47-1.39-0.34-2.16c0.03-0.19,0.09-0.39,0.16-0.57c0.04-0.09,0.07-0.18,0.12-0.27c0.05-0.09,0.09-0.18,0.15-0.26
				c0.21-0.34,0.5-0.63,0.84-0.85c0.67-0.45,1.5-0.6,2.26-0.51c0.38,0.05,0.75,0.16,1.09,0.34c0.33,0.18,0.63,0.42,0.84,0.73
				c0.06,0.07,0.1,0.16,0.14,0.24c0.04,0.09,0.08,0.18,0.11,0.27c0.05,0.19,0.09,0.38,0.09,0.58c0,0.1,0,0.2-0.02,0.29l-0.02,0.15
				c-0.01,0.05-0.02,0.09-0.03,0.14c-0.02,0.09-0.05,0.19-0.09,0.28l-0.05,0.14c-0.01,0.02-0.02,0.05-0.03,0.07l-0.04,0.07
				c-0.21,0.36-0.51,0.64-0.83,0.86c-0.33,0.22-0.7,0.38-1.09,0.47c-0.2,0.04-0.4,0.07-0.61,0.06c-0.21,0-0.42-0.04-0.62-0.12
				c-0.2-0.08-0.39-0.21-0.54-0.38c-0.15-0.17-0.24-0.37-0.3-0.56c-0.06-0.2-0.08-0.4-0.07-0.6c0.01-0.2,0.04-0.39,0.1-0.58
				c0.12-0.37,0.33-0.71,0.66-0.93c0.16-0.11,0.36-0.18,0.54-0.19c0.17-0.02,0.34-0.03,0.51-0.01c0.17,0.02,0.36,0.07,0.52,0.2
				c0.08,0.06,0.14,0.15,0.18,0.24c0.04,0.09,0.06,0.18,0.06,0.27c0.01,0.18-0.03,0.33-0.09,0.47c-0.05,0.14-0.12,0.26-0.2,0.37
				c-0.08,0.11-0.17,0.21-0.27,0.29c-0.1,0.08-0.22,0.16-0.37,0.18c-0.07,0.01-0.16,0.01-0.23-0.03c-0.08-0.03-0.13-0.08-0.17-0.14
				c-0.08-0.11-0.11-0.21-0.13-0.3c-0.02-0.09-0.03-0.17-0.03-0.26c0-0.08,0.01-0.16,0.03-0.24c0.02-0.07,0.06-0.14,0.11-0.19
				c0.05-0.05,0.09-0.07,0.13-0.09c0.04-0.02,0.07-0.03,0.08-0.03c0.02-0.01,0.03-0.01,0.03-0.01c0.08-0.02,0.15-0.01,0.18,0.02
				c0.04,0.02,0.05,0.06,0.05,0.09c0,0.07-0.07,0.13-0.17,0.16c0,0-0.02,0.01-0.06,0.02c-0.03,0.02-0.07,0.04-0.09,0.11
				c-0.02,0.07-0.02,0.2,0.02,0.34c0.02,0.07,0.05,0.14,0.08,0.18c0.04,0.04,0.06,0.05,0.12,0.04c0.06-0.01,0.14-0.05,0.21-0.12
				c0.07-0.06,0.14-0.14,0.2-0.24c0.06-0.09,0.12-0.19,0.15-0.3c0.04-0.11,0.06-0.22,0.05-0.33c-0.01-0.11-0.05-0.19-0.12-0.24
				c-0.07-0.06-0.19-0.09-0.32-0.11c-0.13-0.01-0.28,0-0.43,0.02c-0.14,0.02-0.25,0.06-0.37,0.14c-0.45,0.31-0.66,1.05-0.48,1.64
				c0.05,0.15,0.12,0.28,0.21,0.39c0.1,0.11,0.22,0.19,0.36,0.24c0.28,0.11,0.62,0.1,0.95,0.02c0.33-0.08,0.64-0.23,0.92-0.42
				c0.27-0.19,0.52-0.43,0.66-0.69l0.03-0.05c0.01-0.02,0.01-0.04,0.02-0.05l0.04-0.11c0.03-0.07,0.05-0.15,0.07-0.22
				c0.01-0.04,0.02-0.07,0.03-0.11l0.01-0.11c0.01-0.07,0.01-0.15,0.01-0.22c0-0.29-0.09-0.56-0.25-0.79
				c-0.31-0.45-0.91-0.77-1.56-0.85c-0.65-0.09-1.36,0.04-1.93,0.4c-0.28,0.18-0.53,0.42-0.71,0.7c-0.05,0.07-0.09,0.14-0.13,0.22
				c-0.04,0.07-0.07,0.15-0.11,0.23c-0.07,0.15-0.11,0.31-0.15,0.47c-0.12,0.65-0.01,1.34,0.26,1.9c0.26,0.56,0.69,1,1.16,1.21
				c0.23,0.11,0.48,0.16,0.7,0.17c0.12,0.01,0.22,0,0.32-0.02c0.1-0.02,0.2-0.04,0.29-0.08c0.36-0.13,0.63-0.33,0.79-0.47
				c0.08-0.07,0.14-0.13,0.18-0.17c0.04-0.04,0.06-0.06,0.06-0.06c0.09-0.09,0.17-0.11,0.23-0.08
				C166.58,56.71,166.6,56.81,166.52,56.94z"/>
		</g>
	</g>
	<g>
		<g>
			<path class="st4" d="M26.14,61.55c0-8.11,0.74-17.61,5.8-24.32c8.1-10.72,10.03-15,10.03-18.83c0-0.28-0.18-1.4-0.09-1.77
				c-0.46-2.61-0.46-6.15-5.06-5.96c-1.1,0-1.56-0.19-2.3,1.12c0,0.19-0.37,1.12-0.37,1.4v6.24c-0.09,1.12-0.83,1.86-1.93,1.96
				c-0.46,0-3.5,0-4.14,0c-0.09,0-0.37-0.09-0.64-0.09c-0.18,0-1.01,0-1.2-0.09c-0.46-0.28-0.55-0.56-0.55-0.93
				c0.28-1.3,0.28-2.42,0.28-4.1c0-6.8,2.95-14.26,11.87-14.07c4.33,0.09,8.1,1.3,10.31,5.59c0.92,1.77,1.84,3.73,2.02,5.78
				c0,0.37,0,2.14,0,2.52c0,5.96-1.66,11.37-4.51,16.4c-0.28,0.65-1.1,2.14-1.56,2.7c-7.18,8.11-7.64,10.16-8.01,11.84
				c0,0.19-0.09,0.28-0.09,0.47c-0.18,1.3-0.64,7.92-0.83,9.13c0,0.19,0.18,0.93,0.18,1.12c3.68,0.19,6.26-0.56,10.03-0.37
				c1.56,0.09,2.95,0.28,3.31,1.96c0.09,0.93,0.18,4.57,0.18,5.41c0,0,0,0.19,0,0.28c0,0.84-0.46,1.96-1.47,1.86
				c-0.18,0-1.38,0-1.56-0.09c-2.95-0.09-5.8-0.65-8.84-0.75c-3.04-0.19-5.61,0.28-8.56,0.47c-0.09,0-0.55,0-0.64,0
				c-1.01,0-1.66-0.47-1.75-1.68C26.05,64.25,26.05,62.11,26.14,61.55z"/>
			<path class="st4" d="M60.47,39.37c0-0.84-0.09-1.58-0.09-2.33c-0.28-7.46,0.28-14.91,0.55-19.76
				c0.46-7.36,3.59-14.73,12.06-15.01c11.5-0.37,12.98,16.5,12.98,27.31c0,2.61-0.09,4.94-0.09,6.8c0,0.19,0,0.37,0,0.65
				c0.09,5.13,0.37,30.57-12.79,30.57C61.21,68.26,60.74,51.02,60.47,39.37z M68.38,37.13c0,9.23,0.83,22.37,3.96,22.55
				c2.76,0,5.52-3.91,5.15-28.89c-0.18-12.3-1.29-18.92-4.97-18.92c-4.14,0-3.77,12.77-3.96,19.2
				C68.48,32.66,68.38,34.8,68.38,37.13z"/>
			<path class="st4" d="M96.54,61.55c0-8.11,0.74-17.61,5.8-24.32c8.1-10.72,10.03-15,10.03-18.83c0-0.28-0.18-1.4-0.09-1.77
				c-0.46-2.61-0.46-6.15-5.06-5.96c-1.1,0-1.56-0.19-2.3,1.12c0,0.19-0.37,1.12-0.37,1.4v6.24c-0.09,1.12-0.83,1.86-1.93,1.96
				c-0.46,0-3.5,0-4.14,0c-0.09,0-0.37-0.09-0.64-0.09c-0.18,0-1.01,0-1.2-0.09c-0.46-0.28-0.55-0.56-0.55-0.93
				c0.28-1.3,0.28-2.42,0.28-4.1c0-6.8,2.94-14.26,11.87-14.07c4.32,0.09,8.1,1.3,10.31,5.59c0.92,1.77,1.84,3.73,2.02,5.78
				c0,0.37,0,2.14,0,2.52c0,5.96-1.66,11.37-4.51,16.4c-0.28,0.65-1.1,2.14-1.57,2.7c-7.18,8.11-7.64,10.16-8.01,11.84
				c0,0.19-0.09,0.28-0.09,0.47c-0.18,1.3-0.64,7.92-0.83,9.13c0,0.19,0.18,0.93,0.18,1.12c3.68,0.19,6.26-0.56,10.03-0.37
				c1.56,0.09,2.94,0.28,3.31,1.96c0.09,0.93,0.18,4.57,0.18,5.41c0,0,0,0.19,0,0.28c0,0.84-0.46,1.96-1.47,1.86
				c-0.18,0-1.38,0-1.56-0.09c-2.94-0.09-5.8-0.65-8.83-0.75c-3.04-0.19-5.61,0.28-8.56,0.47c-0.09,0-0.55,0-0.64,0
				c-1.01,0-1.66-0.47-1.75-1.68C96.45,64.25,96.45,62.11,96.54,61.55z"/>
			<path class="st4" d="M129.67,61.55c0-8.11,0.74-17.61,5.8-24.32c8.1-10.72,10.03-15,10.03-18.83c0-0.28-0.18-1.4-0.09-1.77
				c-0.46-2.61-0.46-6.15-5.06-5.96c-1.1,0-1.57-0.19-2.3,1.12c0,0.19-0.37,1.12-0.37,1.4v6.24c-0.09,1.12-0.83,1.86-1.93,1.96
				c-0.46,0-3.5,0-4.14,0c-0.09,0-0.37-0.09-0.64-0.09c-0.18,0-1.01,0-1.2-0.09c-0.46-0.28-0.55-0.56-0.55-0.93
				c0.28-1.3,0.28-2.42,0.28-4.1c0-6.8,2.95-14.26,11.87-14.07c4.33,0.09,8.1,1.3,10.31,5.59c0.92,1.77,1.84,3.73,2.02,5.78
				c0,0.37,0,2.14,0,2.52c0,5.96-1.66,11.37-4.51,16.4c-0.28,0.65-1.1,2.14-1.56,2.7c-7.18,8.11-7.64,10.16-8.01,11.84
				c0,0.19-0.09,0.28-0.09,0.47c-0.18,1.3-0.64,7.92-0.83,9.13c0,0.19,0.18,0.93,0.18,1.12c3.68,0.19,6.26-0.56,10.03-0.37
				c1.57,0.09,2.95,0.28,3.31,1.96c0.09,0.93,0.18,4.57,0.18,5.41c0,0,0,0.19,0,0.28c0,0.84-0.46,1.96-1.47,1.86
				c-0.18,0-1.38,0-1.56-0.09c-2.95-0.09-5.8-0.65-8.84-0.75c-3.04-0.19-5.61,0.28-8.56,0.47c-0.09,0-0.55,0-0.64,0
				c-1.01,0-1.66-0.47-1.75-1.68C129.58,64.25,129.58,62.11,129.67,61.55z"/>
		</g>
	</g>
	<g>
		<path d="M19.25,38.41c1.19-0.05,2.44-0.07,3.76-0.07c0.57,0,1.15,0,1.74,0.01c0.59,0.01,1.19,0.02,1.81,0.04l-0.02,0.55
			c-0.54-0.02-1.07-0.03-1.58-0.04s-1.03-0.01-1.53-0.01c-0.78,0-1.53,0.01-2.26,0.02c-0.73,0.02-1.44,0.04-2.14,0.07
			c-1.32,3.34-1.97,6.1-1.97,8.29c0,0.82,0.09,1.54,0.29,2.17l-0.59,0.17c-0.21-0.64-0.31-1.41-0.31-2.31c0-1.06,0.16-2.3,0.48-3.71
			c0.17-0.69,0.38-1.42,0.62-2.18c0.24-0.76,0.51-1.56,0.83-2.4c-0.95,0.06-1.86,0.14-2.71,0.22c-0.86,0.08-1.68,0.18-2.47,0.31
			c-0.9,4.87-2.14,7.84-3.71,8.92c-0.41,0.31-0.86,0.46-1.36,0.46c-0.08,0-0.16,0-0.24-0.01c-0.08-0.01-0.16-0.02-0.24-0.04
			C7,48.74,6.4,48.53,5.84,48.24c-0.56-0.29-1.05-0.64-1.46-1.06c-0.38-0.37-0.67-0.77-0.87-1.2c-0.2-0.43-0.3-0.87-0.3-1.3
			c0-0.08,0-0.15,0-0.2c0-0.06,0.01-0.12,0.02-0.2c0.05-0.3,0.16-0.64,0.33-1.01c0.17-0.37,0.47-0.74,0.88-1.12
			c0.41-0.38,0.96-0.75,1.64-1.13s1.55-0.73,2.59-1.05c1.13-0.35,2.44-0.65,3.95-0.89c0.16-0.87,0.29-1.71,0.4-2.54
			c0.11-0.83,0.2-1.59,0.27-2.28c0.07-0.69,0.13-1.28,0.17-1.76c0.04-0.48,0.07-0.82,0.08-1.01c0-0.1,0.01-0.22,0.04-0.36
			s0.06-0.29,0.11-0.43c0.03-0.16,0.09-0.31,0.17-0.46c0.08-0.14,0.21-0.23,0.38-0.26h0.07c0.17,0,0.31,0.06,0.39,0.19
			c0.09,0.13,0.15,0.23,0.18,0.31l-0.55,0.19c-0.08,0.26-0.14,0.55-0.17,0.87c-0.02,0.18-0.04,0.51-0.08,0.99
			c-0.04,0.48-0.1,1.06-0.17,1.72c-0.07,0.67-0.16,1.41-0.27,2.23c-0.11,0.82-0.24,1.65-0.38,2.51c1.6-0.24,3.37-0.41,5.31-0.51
			c0.1-0.26,0.19-0.51,0.3-0.76c0.1-0.25,0.22-0.51,0.34-0.78c0.46-1.04,0.92-2.03,1.39-2.96c0.47-0.93,0.89-1.75,1.27-2.45
			c0.38-0.7,0.82-1.46,1.31-2.28l0.55,0.27c0,0.02-0.12,0.23-0.37,0.63c-0.25,0.4-0.56,0.95-0.93,1.64
			c-0.37,0.69-0.79,1.5-1.26,2.42c-0.47,0.92-0.93,1.91-1.39,2.95c-0.1,0.23-0.19,0.44-0.29,0.65
			C19.41,37.99,19.33,38.2,19.25,38.41z M9.09,48.03c0.68-0.47,1.31-1.41,1.89-2.82c0.58-1.41,1.09-3.27,1.54-5.57
			c-0.68,0.11-1.32,0.24-1.93,0.37c-0.6,0.14-1.17,0.29-1.69,0.47C7.23,41,5.97,41.62,5.12,42.34c-0.73,0.59-1.16,1.26-1.28,2
			c-0.02,0.08-0.02,0.18-0.02,0.31c0,0.45,0.11,0.87,0.34,1.26c0.23,0.39,0.53,0.75,0.89,1.07c0.36,0.32,0.78,0.6,1.26,0.83
			s0.96,0.4,1.45,0.49c0.06,0.02,0.12,0.02,0.18,0.02s0.11,0,0.15,0C8.46,48.34,8.79,48.23,9.09,48.03z"/>
		<path d="M22.39,49.13c-0.13,0-0.25-0.02-0.36-0.07c-0.13-0.05-0.25-0.15-0.36-0.31c-0.1-0.13-0.16-0.35-0.19-0.67
			c0.02-0.82,0.41-1.73,1.19-2.72c0.76-0.96,1.67-1.64,2.74-2.02c0.29-0.11,0.61-0.17,0.98-0.17c0.1,0,0.19,0,0.29,0.01
			c0.09,0.01,0.2,0.02,0.31,0.04c0.59,0.13,1.15,0.52,1.69,1.18l-0.45,0.31c-0.52-0.67-1.14-1.01-1.86-1.01
			c-0.22,0-0.48,0.04-0.76,0.12c-0.89,0.32-1.72,0.95-2.5,1.88c-0.7,0.9-1.05,1.69-1.07,2.39c0,0.29,0.07,0.46,0.21,0.51
			c0.03,0.02,0.09,0.02,0.17,0.02c0.33,0,0.82-0.2,1.47-0.6c0.4-0.22,0.82-0.51,1.26-0.86c0.44-0.35,0.92-0.74,1.43-1.19
			c0.1-0.06,0.17-0.1,0.24-0.1c0.05,0,0.1,0.02,0.17,0.05c0.11,0.06,0.17,0.16,0.17,0.29v0.05c-0.03,0.13-0.06,0.26-0.07,0.39
			c-0.02,0.13-0.02,0.26-0.02,0.41c0,0.06,0,0.13,0.01,0.18c0.01,0.06,0.01,0.12,0.01,0.18c0.02,0.45,0.18,0.77,0.5,0.96
			c0.06,0.05,0.18,0.07,0.36,0.07c0.14,0,0.33-0.02,0.55-0.07c0.44-0.1,1.09-0.43,1.95-1.01c0.86-0.58,1.97-1.49,3.33-2.75
			l0.38,0.36c-2.82,2.67-4.87,4-6.14,4h-0.02c-0.25,0-0.48-0.05-0.67-0.14c-0.4-0.23-0.63-0.51-0.69-0.84
			c-0.08-0.37-0.12-0.67-0.12-0.89c0-0.16,0.01-0.28,0.02-0.36c-0.24,0.21-0.5,0.42-0.8,0.64c-0.29,0.22-0.62,0.45-0.99,0.71
			C23.71,48.78,22.93,49.13,22.39,49.13z"/>
		<path d="M28.5,57.74c0.02-0.05,0.33-0.71,0.93-1.98c0.29-0.63,0.61-1.31,0.98-2.06s0.78-1.56,1.24-2.45l4.95-10.24l0.52,0.22
			l-2.05,4.22c1.46-2.12,2.67-3.31,3.64-3.57c0.16-0.05,0.32-0.07,0.48-0.07c0.25,0,0.49,0.07,0.71,0.22
			c0.54,0.39,0.81,0.92,0.81,1.61c0,0.14-0.01,0.26-0.02,0.34c-0.09,0.87-0.43,1.71-1,2.53c-0.71,0.98-1.56,1.64-2.52,1.98
			c-0.43,0.14-0.85,0.22-1.26,0.22c-0.65,0-1.29-0.18-1.93-0.53c-0.21,0.35-0.42,0.72-0.63,1.11c-0.21,0.39-0.44,0.79-0.68,1.21
			c-0.08,0.18-0.17,0.34-0.26,0.51c-0.09,0.16-0.18,0.32-0.26,0.48l-3.12,6.48L28.5,57.74z M34.36,47.71
			c0.59,0.31,1.17,0.46,1.74,0.46c0.19,0,0.38-0.02,0.58-0.06c0.2-0.04,0.38-0.1,0.56-0.18c0.87-0.39,1.56-0.96,2.07-1.71
			c0.54-0.79,0.83-1.38,0.88-1.78c0.05-0.39,0.07-0.63,0.07-0.72c0-0.56-0.19-0.98-0.57-1.25c-0.13-0.08-0.27-0.12-0.43-0.12
			c-0.06,0-0.16,0.02-0.29,0.05c-0.41,0.08-0.98,0.5-1.71,1.25c-0.38,0.4-0.81,0.94-1.3,1.61C35.48,45.93,34.94,46.75,34.36,47.71z"
			/>
		<path d="M37.85,57.74c0.02-0.05,0.33-0.71,0.93-1.98c0.29-0.63,0.61-1.31,0.98-2.06c0.36-0.75,0.78-1.56,1.24-2.45l4.95-10.24
			l0.52,0.22l-2.05,4.22c1.46-2.12,2.67-3.31,3.64-3.57c0.16-0.05,0.32-0.07,0.48-0.07c0.25,0,0.49,0.07,0.71,0.22
			c0.54,0.39,0.81,0.92,0.81,1.61c0,0.14-0.01,0.26-0.02,0.34c-0.09,0.87-0.43,1.71-1,2.53c-0.71,0.98-1.56,1.64-2.52,1.98
			c-0.43,0.14-0.85,0.22-1.26,0.22c-0.65,0-1.29-0.18-1.93-0.53c-0.21,0.35-0.42,0.72-0.63,1.11c-0.21,0.39-0.44,0.79-0.68,1.21
			c-0.08,0.18-0.17,0.34-0.26,0.51c-0.09,0.16-0.18,0.32-0.26,0.48l-3.12,6.48L37.85,57.74z M43.7,47.71
			c0.59,0.31,1.17,0.46,1.74,0.46c0.19,0,0.38-0.02,0.58-0.06c0.2-0.04,0.38-0.1,0.56-0.18c0.87-0.39,1.56-0.96,2.07-1.71
			c0.54-0.79,0.83-1.38,0.88-1.78c0.05-0.39,0.07-0.63,0.07-0.72c0-0.56-0.19-0.98-0.57-1.25c-0.13-0.08-0.27-0.12-0.43-0.12
			c-0.06,0-0.16,0.02-0.29,0.05c-0.41,0.08-0.98,0.5-1.71,1.25c-0.38,0.4-0.81,0.94-1.3,1.61C44.83,45.93,44.29,46.75,43.7,47.71z"
			/>
		<path d="M49.44,62.24c-0.33,0-0.58-0.07-0.74-0.22c-0.19-0.16-0.3-0.29-0.33-0.39c-0.1-0.21-0.14-0.47-0.14-0.77
			c0-0.53,0.17-1.18,0.5-1.95c0.49-1.16,1.34-2.48,2.55-3.98c0.6-0.79,1.41-1.66,2.43-2.61c1.01-0.96,2.24-2.01,3.66-3.17
			c0.17-0.51,0.32-1,0.45-1.45c0.13-0.45,0.23-0.88,0.31-1.3c0.08-0.35,0.14-0.66,0.18-0.92c0.04-0.26,0.07-0.47,0.08-0.63
			c0-0.31-0.02-0.5-0.07-0.58c-0.06,0.05-0.13,0.11-0.19,0.18c-0.06,0.07-0.14,0.16-0.21,0.25c-0.08,0.11-0.16,0.22-0.24,0.31
			c-0.08,0.1-0.16,0.2-0.24,0.31c-0.27,0.37-0.56,0.73-0.88,1.08c-0.32,0.35-0.65,0.71-1,1.06c-0.73,0.71-1.46,1.08-2.19,1.13
			c-0.08,0-0.14-0.01-0.19-0.02c-0.65-0.08-1.05-0.33-1.21-0.75c-0.06-0.13-0.1-0.3-0.1-0.51c0-0.71,0.41-1.65,1.24-2.84
			c0.21-0.29,0.4-0.55,0.57-0.8c0.17-0.24,0.35-0.46,0.52-0.65c0.16-0.18,0.28-0.32,0.37-0.42c0.09-0.1,0.14-0.17,0.15-0.2
			l0.43,0.36c-0.03,0.03-0.2,0.23-0.5,0.58c-0.17,0.19-0.35,0.41-0.52,0.65c-0.17,0.24-0.36,0.5-0.55,0.77
			c-0.78,1.12-1.17,1.98-1.17,2.55c0,0.08,0.02,0.18,0.05,0.31c0.02,0.02,0.03,0.03,0.04,0.05c0.01,0.02,0.03,0.04,0.06,0.07
			c0.02,0.06,0.09,0.12,0.21,0.17c0.13,0.08,0.28,0.13,0.45,0.14c0.63,0,1.3-0.34,2-1.01c0.33-0.34,0.65-0.67,0.94-1.01
			c0.29-0.34,0.57-0.68,0.82-1.04c0.21-0.26,0.38-0.47,0.52-0.65c0.14-0.18,0.26-0.31,0.36-0.41c0.21-0.19,0.38-0.29,0.52-0.29
			c0.05,0,0.1,0.02,0.17,0.05c0.25,0.13,0.38,0.46,0.38,0.99c0,0.06,0,0.12-0.01,0.18c-0.01,0.06-0.01,0.12-0.01,0.2
			c-0.08,0.9-0.34,2.06-0.78,3.47c0.86-0.64,1.78-1.29,2.77-1.94c0.99-0.65,2.07-1.31,3.25-1.99l0.29,0.46
			c-1.3,0.75-2.5,1.49-3.59,2.2c-1.09,0.72-2.09,1.43-3,2.13c-0.27,0.83-0.58,1.67-0.92,2.52c-0.34,0.84-0.71,1.7-1.11,2.57
			c-0.6,1.4-1.41,2.88-2.43,4.46c-1.03,1.62-2.1,2.66-3.21,3.11C49.89,62.19,49.64,62.24,49.44,62.24z M57.03,50.07
			c-1.24,1.03-2.3,1.97-3.18,2.83c-0.88,0.86-1.6,1.65-2.15,2.37c-1.25,1.57-2.05,2.79-2.4,3.64c-0.35,0.87-0.52,1.53-0.52,1.98
			c0,0.21,0.03,0.38,0.09,0.51c0.11,0.21,0.3,0.31,0.57,0.31c0.17,0,0.36-0.03,0.55-0.1c1.4-0.5,3-2.56,4.81-6.19
			c0.43-0.87,0.83-1.75,1.2-2.64C56.37,51.89,56.71,50.99,57.03,50.07z"/>
		<path d="M94.36,30.46c0.22,0.29,0.33,0.76,0.33,1.4c0,0.47-0.05,0.99-0.15,1.58c-0.1,0.59-0.24,1.22-0.42,1.92
			c-0.17,0.69-0.38,1.42-0.61,2.19c-0.23,0.77-0.47,1.57-0.73,2.39c-0.25,0.8-0.5,1.62-0.75,2.45c-0.25,0.83-0.47,1.63-0.67,2.41
			c-0.2,0.78-0.36,1.51-0.49,2.2c-0.13,0.69-0.19,1.3-0.19,1.83c0,0.61,0.09,1.08,0.29,1.42l-0.55,0.26c-0.24-0.43-0.36-1-0.36-1.71
			c0-0.55,0.06-1.16,0.18-1.83s0.28-1.4,0.48-2.17c0.2-0.77,0.42-1.58,0.68-2.43c0.25-0.85,0.52-1.71,0.79-2.58
			c0.32-1.06,0.62-2.07,0.9-3.04c0.29-0.96,0.51-1.86,0.69-2.67c0.19-0.88,0.29-1.61,0.29-2.19c0-0.53-0.08-0.91-0.24-1.13
			c-0.1-0.13-0.22-0.2-0.38-0.22c-0.06-0.02-0.15-0.02-0.26-0.02c-0.81,0-1.78,0.48-2.93,1.45c-1.13,0.96-2.36,2.35-3.71,4.14
			c-0.62,0.82-1.23,1.67-1.82,2.55s-1.16,1.75-1.69,2.59c-0.53,0.84-1.03,1.65-1.49,2.41c-0.46,0.76-0.86,1.44-1.21,2.04
			c-0.19,0.32-0.36,0.61-0.5,0.87c-0.14,0.26-0.28,0.47-0.4,0.65c-0.06,0.08-0.12,0.16-0.15,0.23c-0.04,0.07-0.08,0.13-0.11,0.18
			c-0.03,0.05-0.08,0.1-0.14,0.17c-0.06,0.06-0.14,0.1-0.24,0.1c-0.05,0-0.09-0.01-0.12-0.02c-0.13-0.06-0.19-0.16-0.19-0.29
			c0-0.1,0.02-0.19,0.05-0.29c0.29-0.9,0.71-1.93,1.27-3.1c0.56-1.16,1.17-2.39,1.82-3.67c0.46-0.9,0.91-1.8,1.36-2.69
			c0.44-0.89,0.84-1.74,1.19-2.54c0.35-0.8,0.63-1.55,0.84-2.23c0.21-0.68,0.32-1.26,0.32-1.72c0-0.16-0.01-0.28-0.02-0.36l0.59-0.1
			c0.02,0.08,0.03,0.16,0.04,0.23c0.01,0.07,0.01,0.15,0.01,0.23c0,0.51-0.11,1.12-0.32,1.83c-0.21,0.71-0.5,1.47-0.86,2.29
			c-0.36,0.82-0.76,1.68-1.21,2.59c-0.45,0.91-0.91,1.81-1.37,2.71c-0.35,0.67-0.69,1.34-1.01,1.99c-0.33,0.65-0.63,1.27-0.92,1.87
			c0.35-0.59,0.74-1.25,1.18-1.96c0.44-0.71,0.9-1.46,1.39-2.23c0.49-0.77,1.01-1.55,1.55-2.34c0.54-0.79,1.09-1.55,1.64-2.29
			c2.93-3.89,5.32-5.83,7.16-5.83c0.16,0,0.28,0.01,0.36,0.02C93.91,30.03,94.18,30.19,94.36,30.46z"/>
		<path d="M96.95,49.25c-0.82,0-1.4-0.21-1.71-0.63C95.08,48.42,95,48.16,95,47.86c0-0.47,0.21-1.04,0.62-1.73
			c0.27-0.42,0.57-0.82,0.9-1.22c0.33-0.39,0.71-0.77,1.12-1.12c0.82-0.71,1.53-1.06,2.12-1.06c0.38,0.05,0.64,0.22,0.79,0.51
			c0.05,0.13,0.07,0.26,0.07,0.39c0,0.26-0.1,0.51-0.31,0.77c-0.52,0.59-1.34,0.89-2.45,0.89c-0.14,0-0.29,0-0.44,0
			c-0.15,0-0.31-0.02-0.46-0.05c-0.32,0.37-0.6,0.76-0.86,1.16c-0.36,0.61-0.55,1.1-0.55,1.47c0,0.18,0.05,0.34,0.14,0.48
			c0.21,0.26,0.62,0.39,1.24,0.39c0.16,0,0.33-0.01,0.51-0.02c0.18-0.02,0.38-0.04,0.61-0.07c1.4-0.3,2.71-0.87,3.95-1.69
			c0.63-0.42,1.21-0.81,1.71-1.18c0.51-0.37,0.96-0.73,1.36-1.08l0.38,0.39c-0.48,0.42-0.99,0.84-1.55,1.25
			c-0.56,0.42-1.16,0.83-1.81,1.23c-1.28,0.8-2.59,1.33-3.93,1.59c-0.22,0.03-0.44,0.06-0.64,0.08
			C97.31,49.24,97.12,49.25,96.95,49.25z M97.4,44.75c0.08,0,0.15,0,0.23,0.01c0.07,0.01,0.15,0.01,0.23,0.01
			c0.3,0,0.56-0.02,0.77-0.06c0.21-0.04,0.4-0.1,0.56-0.18c0.38-0.19,0.61-0.35,0.69-0.48c0.13-0.18,0.19-0.33,0.19-0.46
			c0-0.06-0.01-0.11-0.02-0.14c-0.03-0.06-0.08-0.11-0.14-0.14c-0.09-0.03-0.16-0.05-0.19-0.05c-0.24,0-0.56,0.14-0.98,0.41
			C98.29,43.94,97.84,44.3,97.4,44.75z"/>
		<path d="M105.32,49.83c-0.11,0-0.2-0.03-0.26-0.1c-0.11-0.05-0.18-0.14-0.21-0.26c-0.03-0.16-0.05-0.27-0.05-0.34
			c0-0.16,0.02-0.38,0.07-0.65c0.03-0.21,0.1-0.46,0.19-0.75c0.1-0.29,0.21-0.63,0.33-1.01c0.13-0.32,0.25-0.64,0.37-0.95
			s0.24-0.62,0.37-0.93c0.27-0.63,0.47-1.08,0.59-1.35c0.43-0.82,0.85-1.23,1.26-1.23c0.03,0,0.06,0,0.07,0.01
			c0.02,0.01,0.04,0.01,0.07,0.01c0.03,0.02,0.09,0.04,0.19,0.07c0.06,0.05,0.12,0.12,0.17,0.22c0.03,0.13,0.05,0.25,0.05,0.36v0.14
			l-0.55-0.05c0-0.14-0.01-0.22-0.02-0.24c-0.06,0.03-0.15,0.1-0.26,0.22c-0.16,0.16-0.32,0.4-0.48,0.72
			c-0.06,0.13-0.14,0.3-0.23,0.51s-0.19,0.45-0.32,0.72c-0.24,0.56-0.48,1.16-0.71,1.81c-0.11,0.31-0.21,0.58-0.29,0.82
			c-0.08,0.24-0.13,0.45-0.17,0.63c-0.09,0.37-0.14,0.6-0.14,0.7v0.27v0.12c0.03-0.02,0.06-0.04,0.1-0.06
			c0.03-0.02,0.08-0.05,0.14-0.08c0.11-0.06,0.28-0.21,0.5-0.43c0.24-0.22,0.56-0.58,0.98-1.06c0.33-0.4,0.64-0.76,0.93-1.08
			c0.29-0.32,0.56-0.6,0.81-0.84c0.49-0.48,0.9-0.72,1.21-0.72c0.19,0.03,0.33,0.11,0.43,0.24c0.16,0.23,0.27,0.55,0.33,0.99
			c0.03,0.16,0.07,0.32,0.11,0.47c0.04,0.15,0.09,0.3,0.15,0.45c0.1,0.29,0.25,0.47,0.45,0.53c0.02,0.02,0.06,0.02,0.12,0.02
			c0.11,0,0.28-0.06,0.5-0.17c0.3-0.14,0.75-0.51,1.36-1.08c0.41-0.42,0.79-0.82,1.12-1.2c-0.11-0.19-0.17-0.35-0.19-0.46
			c-0.03-0.16-0.05-0.28-0.05-0.36c0-0.31,0.1-0.62,0.31-0.94c0.25-0.4,0.53-0.71,0.83-0.92c0.06-0.05,0.18-0.12,0.36-0.22
			c0.14-0.06,0.26-0.11,0.36-0.14c0.03,0,0.06,0,0.07-0.01c0.02-0.01,0.03-0.01,0.05-0.01h0.05c0.13,0,0.25,0.05,0.38,0.14
			c0.05,0.03,0.09,0.09,0.12,0.17v0.12c0,0.14-0.03,0.29-0.1,0.43c-0.03,0.11-0.09,0.25-0.17,0.4c-0.08,0.15-0.17,0.32-0.29,0.49
			c-0.25,0.37-0.58,0.8-0.98,1.28c0.38,0.21,0.8,0.35,1.26,0.43c0.08,0.02,0.15,0.02,0.21,0.02c0.06,0,0.13,0,0.21,0
			c0.98,0,2.28-0.46,3.9-1.37l0.29,0.46c-1.7,0.96-3.09,1.45-4.19,1.45c-0.08,0-0.17,0-0.26-0.01c-0.09-0.01-0.18-0.02-0.26-0.04
			c-0.71-0.13-1.22-0.31-1.52-0.53c-0.17,0.18-0.35,0.37-0.53,0.57c-0.18,0.2-0.38,0.41-0.58,0.61c-0.94,0.95-1.69,1.42-2.26,1.42
			c-0.13,0-0.22-0.01-0.29-0.02c-0.33-0.11-0.58-0.36-0.74-0.75c-0.17-0.37-0.29-0.75-0.36-1.13c-0.02-0.08-0.03-0.16-0.05-0.23
			c-0.02-0.07-0.03-0.15-0.05-0.23c-0.05-0.16-0.09-0.27-0.14-0.34c0.02,0-0.02,0.02-0.12,0.05c-0.08,0.03-0.18,0.1-0.31,0.19
			c-0.08,0.06-0.16,0.14-0.25,0.22c-0.09,0.08-0.19,0.18-0.3,0.29c-0.52,0.53-1.03,1.09-1.52,1.69c-0.21,0.26-0.39,0.48-0.56,0.66
			c-0.17,0.18-0.31,0.34-0.44,0.47c-0.21,0.21-0.4,0.38-0.59,0.51C105.7,49.76,105.5,49.83,105.32,49.83z M116.31,42.75
			c-0.03,0.02-0.09,0.04-0.17,0.08c-0.08,0.04-0.18,0.1-0.31,0.18c-0.25,0.18-0.47,0.4-0.64,0.67c-0.19,0.27-0.29,0.54-0.29,0.8
			c0,0.03,0,0.06,0.01,0.1c0.01,0.03,0.01,0.06,0.01,0.1l0.05,0.14c0.16-0.18,0.3-0.35,0.42-0.52c0.12-0.17,0.23-0.33,0.34-0.49
			c0.11-0.16,0.21-0.3,0.29-0.42c0.08-0.12,0.13-0.22,0.17-0.3C116.28,42.89,116.31,42.78,116.31,42.75z"/>
		<path d="M150.81,31.21c0.03,0.02,0.08,0.04,0.13,0.07c0.06,0.03,0.08,0.1,0.08,0.19c0,0.03,0,0.05-0.01,0.06
			c-0.01,0.01-0.01,0.03-0.01,0.06c-0.02,0.06-0.04,0.16-0.07,0.29c-0.03,0.13-0.06,0.28-0.1,0.46c-0.11,0.43-0.25,1-0.42,1.7
			c-0.17,0.7-0.37,1.48-0.61,2.34c-0.24,0.86-0.51,1.76-0.81,2.71c-0.3,0.95-0.64,1.89-1.02,2.82c-1.89,4.77-3.97,7.32-6.23,7.64
			c-0.08,0.02-0.16,0.03-0.25,0.04c-0.09,0.01-0.17,0.01-0.25,0.01c-0.84,0-1.71-0.32-2.62-0.96c-1.09-0.79-2.2-2.1-3.33-3.93
			l0.55-0.26c1.89,3.05,3.69,4.58,5.4,4.58c0.08,0,0.15,0,0.2,0c0.06,0,0.12-0.01,0.2-0.02c1.06-0.14,2.13-0.92,3.19-2.34
			c0.87-1.19,1.73-2.83,2.57-4.94c0.46-1.16,0.86-2.32,1.21-3.49c0.35-1.17,0.66-2.24,0.93-3.2c-0.48,1.01-1.01,2.03-1.61,3.05
			c-0.59,1.02-1.24,1.95-1.94,2.8c-0.7,0.84-1.44,1.55-2.24,2.12c-0.79,0.57-1.63,0.9-2.5,1c-0.17,0.03-0.34,0.05-0.5,0.05
			c-0.16,0-0.31,0-0.45,0c-1.24,0-2.1-0.31-2.59-0.94c-0.17-0.23-0.3-0.48-0.38-0.76c-0.08-0.28-0.12-0.59-0.12-0.93
			c0-0.55,0.09-1.14,0.27-1.8c0.18-0.65,0.42-1.32,0.7-2c0.29-0.68,0.6-1.36,0.95-2.04c0.35-0.67,0.68-1.32,1-1.93
			c0.22-0.42,0.42-0.8,0.59-1.14c0.17-0.35,0.33-0.65,0.45-0.93c0.13-0.27,0.21-0.48,0.25-0.61c0.04-0.14,0.07-0.24,0.08-0.3
			c-0.05,0.03-0.12,0.07-0.23,0.11c-0.1,0.04-0.24,0.12-0.42,0.23l-0.33-0.48c0.19-0.11,0.38-0.21,0.56-0.3
			c0.18-0.09,0.35-0.13,0.51-0.13c0.11,0,0.22,0.04,0.33,0.12c0.13,0.1,0.19,0.23,0.19,0.41c0,0.27-0.12,0.67-0.37,1.18
			c-0.25,0.51-0.6,1.21-1.06,2.1c-0.3,0.56-0.62,1.18-0.96,1.84c-0.34,0.67-0.65,1.33-0.94,2c-0.29,0.67-0.52,1.32-0.7,1.95
			c-0.18,0.63-0.27,1.21-0.27,1.72c0,0.27,0.03,0.52,0.1,0.75c0.06,0.23,0.16,0.43,0.28,0.6c0.38,0.48,1.07,0.72,2.07,0.72
			c0.14,0,0.29,0,0.43,0s0.3-0.02,0.48-0.05c1.06-0.11,2.15-0.71,3.26-1.78c0.46-0.45,0.92-0.97,1.39-1.57
			c0.47-0.59,0.93-1.28,1.39-2.05c0.56-0.9,1.09-1.88,1.59-2.94c0.51-1.06,1-2.21,1.48-3.45c0.02-0.03,0.03-0.06,0.05-0.1
			c0.02-0.03,0.02-0.06,0.02-0.1c0.02-0.02,0.02-0.03,0.02-0.05c0.06-0.13,0.17-0.19,0.31-0.19H150.81z"/>
		<path d="M150.65,49.25c-0.82,0-1.4-0.21-1.71-0.63c-0.16-0.21-0.24-0.47-0.24-0.77c0-0.47,0.21-1.04,0.62-1.73
			c0.27-0.42,0.57-0.82,0.9-1.22c0.33-0.39,0.71-0.77,1.12-1.12c0.82-0.71,1.53-1.06,2.12-1.06c0.38,0.05,0.64,0.22,0.79,0.51
			c0.05,0.13,0.07,0.26,0.07,0.39c0,0.26-0.1,0.51-0.31,0.77c-0.52,0.59-1.34,0.89-2.45,0.89c-0.14,0-0.29,0-0.44,0
			c-0.15,0-0.31-0.02-0.46-0.05c-0.32,0.37-0.6,0.76-0.86,1.16c-0.36,0.61-0.55,1.1-0.55,1.47c0,0.18,0.05,0.34,0.14,0.48
			c0.21,0.26,0.62,0.39,1.24,0.39c0.16,0,0.33-0.01,0.51-0.02c0.18-0.02,0.38-0.04,0.61-0.07c1.4-0.3,2.71-0.87,3.95-1.69
			c0.63-0.42,1.21-0.81,1.71-1.18c0.51-0.37,0.96-0.73,1.36-1.08l0.38,0.39c-0.48,0.42-0.99,0.84-1.55,1.25
			c-0.56,0.42-1.16,0.83-1.81,1.23c-1.29,0.8-2.59,1.33-3.93,1.59c-0.22,0.03-0.44,0.06-0.64,0.08
			C151.01,49.24,150.82,49.25,150.65,49.25z M151.1,44.75c0.08,0,0.15,0,0.23,0.01c0.07,0.01,0.15,0.01,0.23,0.01
			c0.3,0,0.56-0.02,0.77-0.06c0.21-0.04,0.4-0.1,0.56-0.18c0.38-0.19,0.61-0.35,0.69-0.48c0.13-0.18,0.19-0.33,0.19-0.46
			c0-0.06-0.01-0.11-0.02-0.14c-0.03-0.06-0.08-0.11-0.14-0.14c-0.09-0.03-0.16-0.05-0.19-0.05c-0.24,0-0.56,0.14-0.98,0.41
			C151.99,43.94,151.54,44.3,151.1,44.75z"/>
		<path d="M159.07,49.13c-0.13,0-0.25-0.02-0.36-0.07c-0.13-0.05-0.25-0.15-0.36-0.31c-0.1-0.13-0.16-0.35-0.19-0.67
			c0.02-0.82,0.41-1.73,1.19-2.72c0.76-0.96,1.67-1.64,2.74-2.02c0.29-0.11,0.61-0.17,0.98-0.17c0.1,0,0.19,0,0.29,0.01
			c0.09,0.01,0.2,0.02,0.31,0.04c0.59,0.13,1.15,0.52,1.69,1.18l-0.45,0.31c-0.52-0.67-1.14-1.01-1.86-1.01
			c-0.22,0-0.48,0.04-0.76,0.12c-0.89,0.32-1.72,0.95-2.5,1.88c-0.7,0.9-1.05,1.69-1.07,2.39c0,0.29,0.07,0.46,0.21,0.51
			c0.03,0.02,0.09,0.02,0.17,0.02c0.33,0,0.82-0.2,1.47-0.6c0.4-0.22,0.82-0.51,1.26-0.86c0.44-0.35,0.92-0.74,1.43-1.19
			c0.1-0.06,0.17-0.1,0.24-0.1c0.05,0,0.1,0.02,0.17,0.05c0.11,0.06,0.17,0.16,0.17,0.29v0.05c-0.03,0.13-0.06,0.26-0.07,0.39
			c-0.02,0.13-0.02,0.26-0.02,0.41c0,0.06,0,0.13,0.01,0.18c0.01,0.06,0.01,0.12,0.01,0.18c0.02,0.45,0.18,0.77,0.5,0.96
			c0.06,0.05,0.18,0.07,0.36,0.07c0.14,0,0.33-0.02,0.55-0.07c0.44-0.1,1.09-0.43,1.95-1.01c0.86-0.58,1.97-1.49,3.33-2.75
			l0.38,0.36c-2.82,2.67-4.87,4-6.14,4h-0.02c-0.25,0-0.48-0.05-0.67-0.14c-0.4-0.23-0.63-0.51-0.69-0.84
			c-0.08-0.37-0.12-0.67-0.12-0.89c0-0.16,0.01-0.28,0.02-0.36c-0.24,0.21-0.5,0.42-0.8,0.64c-0.29,0.22-0.62,0.45-0.99,0.71
			C160.39,48.78,159.61,49.13,159.07,49.13z"/>
		<path d="M170.42,49.01c-0.11,0-0.17-0.1-0.17-0.29l0.17-0.43l0.64-1.93c0.86-2.6,1.29-3.91,1.31-3.93v-0.07l-0.21,0.17l-0.33-0.34
			c0.21-0.19,0.41-0.31,0.62-0.36c0.08,0,0.17,0.02,0.26,0.07c0.11,0.06,0.17,0.18,0.17,0.34c0,0.03,0,0.06-0.01,0.08
			c-0.01,0.02-0.01,0.05-0.01,0.08c-0.02,0.03-0.12,0.35-0.31,0.95c-0.19,0.6-0.47,1.48-0.83,2.64c0.24-0.37,0.48-0.73,0.73-1.1
			c0.25-0.36,0.5-0.7,0.77-1.02c0.97-1.27,1.78-1.95,2.45-2.05c0.11-0.02,0.21-0.03,0.3-0.04c0.09-0.01,0.16-0.01,0.23-0.01
			c0.21,0,0.39,0.04,0.55,0.12c0.49,0.27,0.74,0.81,0.74,1.61l-0.02,0.31l-0.5-0.05l0.02-0.53c-0.05-0.67-0.31-1.01-0.79-1.01
			c-0.35,0-0.82,0.21-1.43,0.63c-0.7,0.53-1.62,1.72-2.76,3.57c-0.78,1.24-1.17,1.97-1.17,2.19c-0.05,0.08-0.07,0.14-0.07,0.19
			c-0.08,0.14-0.16,0.22-0.24,0.22L170.42,49.01z"/>
	</g>
	<g>
		<g>
			<g>
				<g>
					<g>
						<path class="st4" d="M13.4,61.62c0,0,0.01-0.05,0.04-0.12c0.03-0.08,0.08-0.2,0.17-0.32c0.1-0.12,0.24-0.26,0.45-0.35
							c0.2-0.08,0.46-0.12,0.71-0.06c0.13,0.03,0.24,0.07,0.36,0.13c0.12,0.06,0.24,0.15,0.34,0.26c0.2,0.22,0.3,0.52,0.32,0.8
							c0.03,0.57-0.21,1.1-0.57,1.45c-0.18,0.17-0.43,0.32-0.71,0.38c-0.07,0.02-0.14,0.02-0.22,0.03c-0.04,0-0.08,0-0.11,0
							c-0.04,0-0.08,0-0.12-0.01c-0.15-0.02-0.3-0.07-0.44-0.15c-0.14-0.08-0.26-0.19-0.35-0.32c-0.09-0.13-0.15-0.27-0.18-0.4
							c-0.07-0.28-0.05-0.54,0.01-0.78c0.12-0.47,0.43-0.83,0.75-0.95c0.15-0.06,0.28-0.07,0.37-0.07c0.09,0,0.13,0.01,0.13,0.01
							c0.11,0.02,0.03,0.34-0.03,0.34c0,0-0.03,0-0.09,0c-0.06,0.01-0.14,0.02-0.22,0.07c-0.17,0.08-0.37,0.34-0.42,0.69
							c-0.02,0.17-0.02,0.36,0.04,0.52c0.06,0.16,0.16,0.29,0.29,0.35c0.06,0.03,0.14,0.06,0.22,0.06c0.02,0,0.04,0,0.06,0
							c0.02,0,0.04,0,0.06,0c0.04-0.01,0.08-0.01,0.12-0.02c0.15-0.04,0.29-0.12,0.4-0.23c0.23-0.21,0.41-0.58,0.41-0.94
							c0-0.18-0.04-0.35-0.14-0.47c-0.05-0.06-0.1-0.12-0.17-0.16c-0.07-0.04-0.16-0.09-0.23-0.11c-0.15-0.05-0.3-0.05-0.43-0.01
							c-0.13,0.04-0.23,0.11-0.3,0.18c-0.07,0.07-0.12,0.15-0.14,0.2c-0.03,0.05-0.04,0.09-0.04,0.09
							C13.67,61.77,13.39,61.73,13.4,61.62z"/>
					</g>
				</g>
			</g>
		</g>
		<g>
			<g>
				<g>
					<g>
						<path class="st4" d="M17.95,54.75c0,0,0,0,0.02-0.05c0.01-0.02,0.02-0.05,0.04-0.1c0.01-0.02,0.02-0.05,0.03-0.07
							c0-0.01,0.01-0.03,0.01-0.04l0-0.02l0,0c0,0,0,0.01,0,0.01l0.03-0.09c0-0.01,0.03-0.06,0.09-0.14
							c0.06-0.08,0.16-0.19,0.3-0.29c0.29-0.21,0.79-0.33,1.31-0.22c0.26,0.05,0.53,0.15,0.77,0.31c0.25,0.16,0.48,0.39,0.62,0.68
							c0.04,0.07,0.07,0.15,0.09,0.23l0.03,0.12c0.01,0.04,0.01,0.08,0.01,0.12c0.02,0.16,0.01,0.32-0.01,0.47
							c-0.05,0.31-0.19,0.58-0.36,0.8c-0.18,0.23-0.43,0.43-0.72,0.57c-0.29,0.14-0.63,0.21-0.97,0.18
							c-0.17-0.01-0.34-0.04-0.49-0.1c-0.08-0.02-0.15-0.06-0.22-0.1l-0.11-0.06c-0.04-0.02-0.08-0.05-0.12-0.08
							c-0.16-0.12-0.25-0.26-0.33-0.4c-0.08-0.14-0.13-0.28-0.17-0.41c-0.08-0.27-0.11-0.54-0.09-0.78
							c0.02-0.24,0.08-0.47,0.19-0.64c0.11-0.17,0.27-0.27,0.38-0.3c0.05-0.02,0.1-0.03,0.12-0.03c0.03-0.01,0.04-0.01,0.04-0.01
							c0.14-0.01,0.13,0.32,0.06,0.34c0,0-0.04,0.01-0.09,0.03c-0.05,0.03-0.13,0.08-0.18,0.18c-0.06,0.1-0.09,0.26-0.08,0.45
							c0.01,0.19,0.05,0.4,0.13,0.61c0.04,0.1,0.09,0.21,0.15,0.3c0.06,0.09,0.13,0.17,0.2,0.22c0.02,0.01,0.04,0.02,0.06,0.03
							l0.08,0.04c0.05,0.02,0.11,0.05,0.16,0.06c0.11,0.03,0.22,0.05,0.34,0.05c0.23,0,0.46-0.06,0.66-0.16
							c0.2-0.1,0.37-0.25,0.49-0.4c0.11-0.14,0.21-0.32,0.25-0.51c0.01-0.1,0.03-0.19,0.02-0.29l0-0.07l-0.01-0.07
							c-0.01-0.05-0.03-0.09-0.05-0.14c-0.08-0.18-0.22-0.35-0.39-0.48c-0.17-0.13-0.37-0.23-0.57-0.28
							c-0.4-0.11-0.76-0.06-0.97,0.07c-0.22,0.12-0.3,0.27-0.32,0.27l0.03-0.09c0,0.02,0,0.03,0,0.04l-0.01,0.03
							c0,0.02-0.01,0.03-0.01,0.04c-0.01,0.02-0.01,0.04-0.02,0.06c-0.01,0.03-0.02,0.06-0.03,0.08c-0.02,0.04-0.03,0.07-0.04,0.09
							c-0.01,0.04-0.02,0.04-0.02,0.04c-0.03,0.04-0.1,0.01-0.18,0.02C18,54.89,17.93,54.81,17.95,54.75z"/>
					</g>
				</g>
			</g>
		</g>
		<g>
			<g>
				<g>
					<g>
						<path class="st4" d="M20.98,60.63c0,0,0-0.02-0.01-0.26l0.04-0.11c0-0.01,0.01-0.03,0.03-0.07c0.02-0.04,0.05-0.08,0.1-0.14
							c0.02-0.03,0.05-0.06,0.08-0.09c0.02-0.02,0.03-0.03,0.05-0.05c0.02-0.02,0.04-0.03,0.06-0.04c0.09-0.06,0.22-0.11,0.37-0.12
							c0.15,0,0.31,0.05,0.43,0.14c0.12,0.09,0.21,0.19,0.29,0.31c0.14,0.23,0.21,0.49,0.18,0.76c-0.02,0.15-0.08,0.34-0.24,0.49
							c-0.08,0.07-0.17,0.13-0.27,0.16c-0.05,0.01-0.09,0.02-0.14,0.03c-0.04,0-0.09,0-0.13,0c-0.08-0.01-0.17-0.02-0.23-0.04
							c-0.07-0.02-0.15-0.04-0.22-0.08c-0.15-0.07-0.27-0.17-0.36-0.3c-0.09-0.12-0.14-0.26-0.15-0.39
							c-0.01-0.13,0.02-0.25,0.06-0.33c0.04-0.09,0.09-0.14,0.12-0.18c0.03-0.03,0.05-0.05,0.05-0.05c0.05-0.04,0.26,0.2,0.25,0.23
							c0,0-0.01,0.01-0.02,0.04c-0.01,0.02-0.03,0.06-0.03,0.1c-0.01,0.08,0.01,0.19,0.11,0.28c0.05,0.04,0.11,0.08,0.18,0.09
							c0.06,0.02,0.18,0.03,0.24,0.02c0.07-0.01,0.09-0.03,0.1-0.04c0.01-0.01,0.02-0.05,0.03-0.1c0.01-0.09-0.01-0.25-0.07-0.38
							c-0.03-0.06-0.06-0.12-0.1-0.16c-0.04-0.04-0.07-0.06-0.1-0.07c-0.06-0.03-0.18,0.02-0.25,0.08c-0.04,0.03-0.07,0.05-0.1,0.07
							c-0.02,0.02-0.04,0.03-0.05,0.03l0.04-0.11c0,0.24-0.01,0.26-0.01,0.26C21.29,60.67,21,60.67,20.98,60.63z"/>
					</g>
				</g>
			</g>
		</g>
	</g>
	<g>
		<g>
			<g>
				<g>
					<g>
						<path class="st4" d="M166.41,40.62c0,0,0-0.02,0.01-0.04c0.01-0.03,0.03-0.07,0.06-0.11c0.03-0.04,0.09-0.09,0.16-0.12
							c0.07-0.03,0.16-0.04,0.25-0.02c0.04,0.01,0.08,0.03,0.13,0.05c0.04,0.02,0.09,0.05,0.12,0.09c0.07,0.08,0.11,0.18,0.11,0.28
							c0.01,0.2-0.07,0.39-0.2,0.51c-0.06,0.06-0.15,0.11-0.25,0.13c-0.03,0.01-0.05,0.01-0.08,0.01c-0.01,0-0.03,0-0.04,0
							c-0.01,0-0.03,0-0.04,0c-0.05-0.01-0.11-0.03-0.15-0.05c-0.05-0.03-0.09-0.07-0.12-0.11c-0.03-0.05-0.05-0.09-0.06-0.14
							c-0.02-0.1-0.02-0.19,0-0.27c0.04-0.17,0.15-0.29,0.26-0.33c0.05-0.02,0.1-0.03,0.13-0.02c0.03,0,0.05,0,0.05,0
							c0.04,0.01,0.01,0.12-0.01,0.12c0,0-0.01,0-0.03,0c-0.02,0-0.05,0.01-0.08,0.02c-0.06,0.03-0.13,0.12-0.15,0.24
							c-0.01,0.06-0.01,0.13,0.01,0.18c0.02,0.06,0.06,0.1,0.1,0.12c0.02,0.01,0.05,0.02,0.08,0.02c0.01,0,0.01,0,0.02,0
							c0.01,0,0.01,0,0.02,0c0.01,0,0.03,0,0.04-0.01c0.05-0.01,0.1-0.04,0.14-0.08c0.08-0.07,0.15-0.21,0.15-0.33
							c0-0.06-0.02-0.12-0.05-0.17c-0.02-0.02-0.04-0.04-0.06-0.06c-0.02-0.01-0.06-0.03-0.08-0.04c-0.05-0.02-0.11-0.02-0.15,0
							c-0.05,0.01-0.08,0.04-0.11,0.07c-0.03,0.03-0.04,0.05-0.05,0.07c-0.01,0.02-0.01,0.03-0.01,0.03
							C166.51,40.67,166.41,40.66,166.41,40.62z"/>
					</g>
				</g>
			</g>
		</g>
		<g>
			<g>
				<g>
					<g>
						<path class="st4" d="M168.02,38.19c0,0,0,0,0.01-0.02c0-0.01,0.01-0.02,0.01-0.03c0-0.01,0.01-0.02,0.01-0.03
							c0,0,0-0.01,0-0.01l0-0.01l0,0c0,0,0,0,0,0.01l0.01-0.03c0,0,0.01-0.02,0.03-0.05c0.02-0.03,0.06-0.07,0.11-0.1
							c0.1-0.08,0.28-0.12,0.46-0.08c0.09,0.02,0.19,0.05,0.27,0.11c0.09,0.06,0.17,0.14,0.22,0.24c0.01,0.03,0.02,0.05,0.03,0.08
							l0.01,0.04c0,0.01,0,0.03,0,0.04c0.01,0.06,0,0.11,0,0.17c-0.02,0.11-0.07,0.21-0.13,0.28c-0.07,0.08-0.15,0.15-0.26,0.2
							c-0.1,0.05-0.22,0.07-0.34,0.07c-0.06,0-0.12-0.02-0.17-0.04c-0.03-0.01-0.05-0.02-0.08-0.04l-0.04-0.02
							c-0.01-0.01-0.03-0.02-0.04-0.03c-0.05-0.04-0.09-0.09-0.12-0.14c-0.03-0.05-0.05-0.1-0.06-0.15
							c-0.03-0.1-0.04-0.19-0.03-0.28c0.01-0.09,0.03-0.17,0.07-0.23c0.04-0.06,0.1-0.09,0.13-0.11c0.02-0.01,0.03-0.01,0.04-0.01
							c0.01,0,0.02,0,0.02,0c0.05,0,0.04,0.11,0.02,0.12c0,0-0.01,0-0.03,0.01c-0.02,0.01-0.04,0.03-0.06,0.06
							c-0.02,0.04-0.03,0.09-0.03,0.16c0,0.07,0.02,0.14,0.04,0.22c0.01,0.04,0.03,0.07,0.05,0.11c0.02,0.03,0.05,0.06,0.07,0.08
							c0.01,0,0.01,0.01,0.02,0.01l0.03,0.01c0.02,0.01,0.04,0.02,0.06,0.02c0.04,0.01,0.08,0.02,0.12,0.02
							c0.08,0,0.16-0.02,0.23-0.06c0.07-0.04,0.13-0.09,0.17-0.14c0.04-0.05,0.07-0.11,0.09-0.18c0-0.03,0.01-0.07,0.01-0.1l0-0.03
							l0-0.02c0-0.02-0.01-0.03-0.02-0.05c-0.03-0.06-0.08-0.12-0.14-0.17c-0.06-0.05-0.13-0.08-0.2-0.1
							c-0.14-0.04-0.27-0.02-0.34,0.02c-0.08,0.04-0.11,0.09-0.11,0.1l0.01-0.03c0,0.01,0,0.01,0,0.02l0,0.01c0,0.01,0,0.01,0,0.01
							c0,0.01,0,0.01-0.01,0.02c0,0.01-0.01,0.02-0.01,0.03c-0.01,0.02-0.01,0.03-0.01,0.03c0,0.01-0.01,0.01-0.01,0.01
							c-0.01,0.01-0.04,0-0.07,0.01C168.04,38.24,168.02,38.21,168.02,38.19z"/>
					</g>
				</g>
			</g>
		</g>
		<g>
			<g>
				<g>
					<g>
						<path class="st4" d="M169.09,40.27c0,0,0-0.01,0-0.09l0.01-0.04c0,0,0-0.01,0.01-0.02c0.01-0.01,0.02-0.03,0.04-0.05
							c0.01-0.01,0.02-0.02,0.03-0.03c0.01-0.01,0.01-0.01,0.02-0.02c0.01-0.01,0.01-0.01,0.02-0.02c0.03-0.02,0.08-0.04,0.13-0.04
							c0.05,0,0.11,0.02,0.15,0.05c0.04,0.03,0.08,0.07,0.1,0.11c0.05,0.08,0.07,0.17,0.06,0.27c-0.01,0.05-0.03,0.12-0.08,0.17
							c-0.03,0.03-0.06,0.04-0.1,0.06c-0.02,0-0.03,0.01-0.05,0.01c-0.02,0-0.03,0-0.05,0c-0.03,0-0.06-0.01-0.08-0.01
							c-0.02-0.01-0.05-0.01-0.08-0.03c-0.05-0.02-0.1-0.06-0.13-0.1c-0.03-0.04-0.05-0.09-0.05-0.14c0-0.05,0.01-0.09,0.02-0.12
							c0.01-0.03,0.03-0.05,0.04-0.06c0.01-0.01,0.02-0.02,0.02-0.02c0.02-0.01,0.09,0.07,0.09,0.08c0,0,0,0-0.01,0.01
							c0,0.01-0.01,0.02-0.01,0.03c0,0.03,0,0.07,0.04,0.1c0.02,0.02,0.04,0.03,0.06,0.03c0.02,0.01,0.06,0.01,0.09,0.01
							c0.03,0,0.03-0.01,0.03-0.02c0,0,0.01-0.02,0.01-0.04c0-0.03,0-0.09-0.02-0.13c-0.01-0.02-0.02-0.04-0.04-0.06
							c-0.01-0.01-0.02-0.02-0.03-0.02c-0.02-0.01-0.06,0.01-0.09,0.03c-0.01,0.01-0.03,0.02-0.03,0.03
							c-0.01,0.01-0.01,0.01-0.02,0.01l0.01-0.04c0,0.09,0,0.09,0,0.09C169.2,40.28,169.1,40.28,169.09,40.27z"/>
					</g>
				</g>
			</g>
		</g>
	</g>
	<g>
		<g>
			<g>
				<g>
					<g>
						<path class="st4" d="M157.01,63.53c0,0,0-0.02,0.01-0.04c0.01-0.03,0.03-0.07,0.06-0.11c0.03-0.04,0.09-0.09,0.16-0.12
							c0.07-0.03,0.16-0.04,0.25-0.02c0.04,0.01,0.08,0.03,0.13,0.05c0.04,0.02,0.09,0.05,0.12,0.09c0.07,0.08,0.11,0.18,0.11,0.28
							c0.01,0.2-0.07,0.39-0.2,0.51c-0.06,0.06-0.15,0.11-0.25,0.13c-0.03,0.01-0.05,0.01-0.08,0.01c-0.01,0-0.03,0-0.04,0
							c-0.01,0-0.03,0-0.04,0c-0.05-0.01-0.11-0.03-0.15-0.05c-0.05-0.03-0.09-0.07-0.12-0.11c-0.03-0.05-0.05-0.09-0.06-0.14
							c-0.02-0.1-0.02-0.19,0-0.27c0.04-0.17,0.15-0.29,0.26-0.33c0.05-0.02,0.1-0.03,0.13-0.02c0.03,0,0.05,0,0.05,0
							c0.04,0.01,0.01,0.12-0.01,0.12c0,0-0.01,0-0.03,0c-0.02,0-0.05,0.01-0.08,0.02c-0.06,0.03-0.13,0.12-0.15,0.24
							c-0.01,0.06-0.01,0.13,0.01,0.18c0.02,0.06,0.06,0.1,0.1,0.12c0.02,0.01,0.05,0.02,0.08,0.02c0.01,0,0.01,0,0.02,0
							c0.01,0,0.01,0,0.02,0c0.01,0,0.03,0,0.04-0.01c0.05-0.01,0.1-0.04,0.14-0.08c0.08-0.07,0.15-0.21,0.15-0.33
							c0-0.06-0.02-0.12-0.05-0.17c-0.02-0.02-0.04-0.04-0.06-0.06c-0.02-0.01-0.06-0.03-0.08-0.04c-0.05-0.02-0.11-0.02-0.15,0
							c-0.05,0.01-0.08,0.04-0.11,0.07c-0.03,0.03-0.04,0.05-0.05,0.07c-0.01,0.02-0.01,0.03-0.01,0.03
							C157.11,63.59,157.01,63.57,157.01,63.53z"/>
					</g>
				</g>
			</g>
		</g>
		<g>
			<g>
				<g>
					<g>
						<path class="st4" d="M158.62,61.1c0,0,0,0,0.01-0.02c0-0.01,0.01-0.02,0.01-0.03c0-0.01,0.01-0.02,0.01-0.03
							c0,0,0-0.01,0-0.01l0-0.01l0,0c0,0,0,0,0,0.01l0.01-0.03c0,0,0.01-0.02,0.03-0.05c0.02-0.03,0.06-0.07,0.11-0.1
							c0.1-0.08,0.28-0.12,0.46-0.08c0.09,0.02,0.19,0.05,0.27,0.11c0.09,0.06,0.17,0.14,0.22,0.24c0.01,0.03,0.02,0.05,0.03,0.08
							l0.01,0.04c0,0.01,0,0.03,0,0.04c0.01,0.06,0,0.11,0,0.17c-0.02,0.11-0.07,0.21-0.13,0.28c-0.07,0.08-0.15,0.15-0.26,0.2
							c-0.1,0.05-0.22,0.07-0.34,0.07c-0.06,0-0.12-0.02-0.17-0.04c-0.03-0.01-0.05-0.02-0.08-0.04l-0.04-0.02
							c-0.01-0.01-0.03-0.02-0.04-0.03c-0.05-0.04-0.09-0.09-0.12-0.14c-0.03-0.05-0.05-0.1-0.06-0.15
							c-0.03-0.1-0.04-0.19-0.03-0.28c0.01-0.09,0.03-0.17,0.07-0.23c0.04-0.06,0.1-0.09,0.13-0.11c0.02-0.01,0.03-0.01,0.04-0.01
							c0.01,0,0.02,0,0.02,0c0.05,0,0.04,0.11,0.02,0.12c0,0-0.01,0-0.03,0.01c-0.02,0.01-0.04,0.03-0.06,0.06
							c-0.02,0.04-0.03,0.09-0.03,0.16c0,0.07,0.02,0.14,0.04,0.22c0.01,0.04,0.03,0.07,0.05,0.11c0.02,0.03,0.05,0.06,0.07,0.08
							c0.01,0,0.01,0.01,0.02,0.01l0.03,0.01c0.02,0.01,0.04,0.02,0.06,0.02c0.04,0.01,0.08,0.02,0.12,0.02
							c0.08,0,0.16-0.02,0.23-0.06c0.07-0.04,0.13-0.09,0.17-0.14c0.04-0.05,0.07-0.11,0.09-0.18c0-0.03,0.01-0.07,0.01-0.1l0-0.03
							l0-0.02c0-0.02-0.01-0.03-0.02-0.05c-0.03-0.06-0.08-0.12-0.14-0.17c-0.06-0.05-0.13-0.08-0.2-0.1
							c-0.14-0.04-0.27-0.02-0.34,0.02c-0.08,0.04-0.11,0.09-0.11,0.1l0.01-0.03c0,0.01,0,0.01,0,0.02l0,0.01c0,0.01,0,0.01,0,0.01
							c0,0.01,0,0.01-0.01,0.02c0,0.01-0.01,0.02-0.01,0.03c-0.01,0.02-0.01,0.03-0.01,0.03c0,0.01-0.01,0.01-0.01,0.01
							c-0.01,0.01-0.04,0-0.07,0.01C158.64,61.15,158.62,61.12,158.62,61.1z"/>
					</g>
				</g>
			</g>
		</g>
		<g>
			<g>
				<g>
					<g>
						<path class="st4" d="M159.69,63.18c0,0,0-0.01,0-0.09l0.01-0.04c0,0,0-0.01,0.01-0.02c0.01-0.01,0.02-0.03,0.04-0.05
							c0.01-0.01,0.02-0.02,0.03-0.03c0.01-0.01,0.01-0.01,0.02-0.02c0.01-0.01,0.01-0.01,0.02-0.02c0.03-0.02,0.08-0.04,0.13-0.04
							c0.05,0,0.11,0.02,0.15,0.05c0.04,0.03,0.08,0.07,0.1,0.11c0.05,0.08,0.07,0.17,0.06,0.27c-0.01,0.05-0.03,0.12-0.08,0.17
							c-0.03,0.03-0.06,0.04-0.1,0.06c-0.02,0-0.03,0.01-0.05,0.01c-0.02,0-0.03,0-0.05,0c-0.03,0-0.06-0.01-0.08-0.01
							c-0.02-0.01-0.05-0.01-0.08-0.03c-0.05-0.02-0.1-0.06-0.13-0.1c-0.03-0.04-0.05-0.09-0.05-0.14c0-0.05,0.01-0.09,0.02-0.12
							c0.01-0.03,0.03-0.05,0.04-0.06c0.01-0.01,0.02-0.02,0.02-0.02c0.02-0.01,0.09,0.07,0.09,0.08c0,0,0,0-0.01,0.01
							c0,0.01-0.01,0.02-0.01,0.03c0,0.03,0,0.07,0.04,0.1c0.02,0.02,0.04,0.03,0.06,0.03c0.02,0.01,0.06,0.01,0.09,0.01
							c0.03,0,0.03-0.01,0.03-0.02c0,0,0.01-0.02,0.01-0.04c0-0.03,0-0.09-0.02-0.13c-0.01-0.02-0.02-0.04-0.04-0.06
							c-0.01-0.01-0.02-0.02-0.03-0.02c-0.02-0.01-0.06,0.01-0.09,0.03c-0.01,0.01-0.03,0.02-0.03,0.03
							c-0.01,0.01-0.01,0.01-0.02,0.01l0.01-0.04c0,0.09,0,0.09,0,0.09C159.8,63.2,159.7,63.2,159.69,63.18z"/>
					</g>
				</g>
			</g>
		</g>
	</g>
</g>
</svg>
