<?xml version="1.0" encoding="utf-8"?>
<!-- Generator: Adobe Illustrator 25.2.1, SVG Export Plug-In . SVG Version: 6.00 Build 0)  -->
<svg version="1.1" id="Layer_1" xmlns="http://www.w3.org/2000/svg" xmlns:xlink="http://www.w3.org/1999/xlink" x="0px" y="0px"
	 viewBox="0 0 180 205.4" style="enable-background:new 0 0 180 205.4;" xml:space="preserve">
<style type="text/css">
	.st0{fill:#9BB5DF;}
	.st1{fill:#F5C117;}
	.st2{fill:#BD2926;}
	.st3{fill:#381F23;}
	.st4{fill:#D9B028;}
	.st5{fill:#CA9A2C;}
	.st6{fill:#B7872D;}
	.st7{fill:#333333;}
	.st8{fill:#FDF49A;}
	.st9{fill:#F9E86F;}
	.st10{fill:#EB9E22;}
	.st11{fill:#EBC424;}
	.st12{fill:#010101;}
	.st13{fill:#B49930;}
	.st14{fill:#F3C423;}
	.st15{fill:#010201;}
	.st16{fill-rule:evenodd;clip-rule:evenodd;}
	.st17{fill:#1A1B1B;}
	.st18{fill:#FDFDFD;}
	.st19{fill-rule:evenodd;clip-rule:evenodd;fill:url(#SVGID_1_);}
	.st20{fill:#23292D;}
	.st21{fill:#DD9C27;}
	.st22{fill:#F2664F;}
	.st23{fill:url(#SVGID_2_);}
	.st24{fill:url(#SVGID_3_);}
	.st25{fill:url(#SVGID_4_);}
	.st26{fill:url(#SVGID_5_);}
	.st27{fill:url(#SVGID_6_);}
	.st28{fill:url(#SVGID_7_);}
	.st29{fill:url(#SVGID_8_);}
	.st30{fill:url(#SVGID_9_);}
	.st31{fill:url(#SVGID_10_);}
	.st32{fill:url(#SVGID_11_);}
	.st33{fill:none;stroke:#D9B028;stroke-width:3;stroke-miterlimit:10;}
	.st34{opacity:0.19;}
	.st35{stroke:#000000;stroke-width:3;stroke-miterlimit:10;}
	.st36{fill:#FAA82F;}
	.st37{opacity:0.42;}
	.st38{opacity:0.1091;}
	.st39{fill:#FEBC16;}
	.st40{fill:#E43C7D;}
	.st41{fill:#FFFFFF;}
	.st42{fill:#E7B831;}
	.st43{fill:#AB7136;}
	.st44{fill:none;stroke:#010101;stroke-miterlimit:10;}
	.st45{fill:#8CB5D7;}
	.st46{fill:#F5C117;stroke:#000000;stroke-miterlimit:10;}
	.st47{fill:none;stroke:#010101;stroke-width:0.75;stroke-miterlimit:10;}
	.st48{fill:none;stroke:#010101;stroke-width:0.5;stroke-miterlimit:10;}
	.st49{fill:none;stroke:#F5C117;stroke-miterlimit:10;}
	.st50{fill:#F2664F;stroke:#000000;stroke-miterlimit:10;}
	.st51{stroke:#010101;stroke-miterlimit:10;}
	.st52{fill:#231F20;}
	.st53{fill:#E7B82F;}
	.st54{fill:#B39A32;}
	.st55{fill:#D9B128;}
</style>
<g>
	<g>
		<g>
			<g>
				<g>
					<path class="st54" d="M35.42,125.52c0,0-0.03,0-0.09-0.01c-0.06,0-0.15-0.01-0.27-0.01c-0.23-0.01-0.59,0.02-1.03,0.07
						c-0.88,0.11-2.12,0.37-3.5,0.79c-1.4,0.42-2.97,0.84-4.43,1.45c-0.73,0.3-1.43,0.65-2.03,1.06c-0.15,0.1-0.3,0.2-0.44,0.32
						c-0.14,0.11-0.28,0.22-0.4,0.33s-0.22,0.23-0.27,0.3c-0.02,0.03-0.02,0.06-0.01-0.01c0.01-0.04,0-0.1-0.03-0.16
						c-0.03-0.06-0.06-0.1-0.08-0.11c-0.04-0.03-0.01-0.01,0.03,0c0.04,0.01,0.11,0.03,0.18,0.04c0.14,0.02,0.31,0.03,0.48,0.03
						c0.35,0.01,0.72-0.01,1.12-0.02c0.78-0.03,1.58-0.06,2.35-0.15c0.39-0.05,0.77-0.11,1.15-0.19c0.38-0.08,0.74-0.19,1.12-0.3
						c0.75-0.22,1.47-0.47,2.14-0.72c1.34-0.51,2.46-1.08,3.11-1.63c0.33-0.27,0.54-0.52,0.65-0.71c0.05-0.09,0.09-0.16,0.11-0.21
						s0.03-0.08,0.03-0.08c0.07-0.21,0.65-0.19,0.58,0.18c0,0-0.01,0.04-0.04,0.11c-0.02,0.08-0.07,0.18-0.14,0.31
						c-0.14,0.26-0.38,0.59-0.74,0.92c-0.72,0.67-1.87,1.34-3.23,1.93c-0.68,0.3-1.41,0.58-2.18,0.84
						c-0.37,0.13-0.78,0.27-1.19,0.37c-0.41,0.11-0.83,0.19-1.24,0.25c-0.83,0.13-1.66,0.18-2.45,0.23
						c-0.39,0.02-0.79,0.05-1.19,0.04c-0.2,0-0.41-0.01-0.63-0.04c-0.11-0.02-0.22-0.04-0.35-0.07c-0.13-0.04-0.27-0.09-0.45-0.23
						c-0.09-0.07-0.18-0.18-0.24-0.32c-0.07-0.14-0.08-0.3-0.07-0.42c0.03-0.25,0.12-0.39,0.19-0.52c0.15-0.23,0.31-0.38,0.47-0.53
						c0.16-0.15,0.32-0.27,0.48-0.39c0.16-0.13,0.34-0.24,0.51-0.36c0.7-0.46,1.48-0.81,2.26-1.1c1.57-0.59,3.19-0.95,4.59-1.3
						c1.44-0.36,2.72-0.56,3.66-0.62c0.47-0.03,0.85-0.03,1.12-0.01c0.13,0,0.24,0.03,0.31,0.03c0.07,0.01,0.11,0.02,0.11,0.02
						C35.84,125.03,35.68,125.52,35.42,125.52z"/>
				</g>
			</g>
		</g>
		<g>
			<g>
				<g>
					<path class="st54" d="M49.15,158.77c0,0,0,0,0.02-0.02c0.01-0.01,0-0.01-0.02,0.04c-0.01,0.03-0.02,0.06-0.01,0.08
						c0,0.02,0,0.02,0,0.01l0.58,0.01c0,0.01-0.08,0.23-0.22,0.6c-0.03,0.09-0.08,0.19-0.14,0.29c-0.05,0.1-0.11,0.21-0.17,0.32
						c-0.03,0.06-0.06,0.12-0.1,0.18c-0.04,0.06-0.08,0.11-0.12,0.17c-0.08,0.12-0.17,0.24-0.26,0.36c-0.74,0.99-1.98,1.9-3.05,2.4
						c-1.11,0.54-2.63,0.9-3.86,1c-0.31,0.02-0.6,0.04-0.86,0.04s-0.49-0.01-0.69-0.01c-0.39-0.03-0.62-0.05-0.62-0.05
						c-0.13-0.02-0.09-0.59,0.02-0.61c0,0,0.22-0.01,0.58-0.04c0.18-0.02,0.4-0.05,0.64-0.08c0.24-0.04,0.51-0.09,0.79-0.14
						c1.14-0.23,2.5-0.7,3.49-1.19c0.96-0.45,2.12-1.14,2.87-1.92c0.09-0.1,0.18-0.2,0.26-0.29c0.04-0.05,0.08-0.09,0.12-0.14
						c0.04-0.05,0.07-0.09,0.1-0.14c0.07-0.09,0.13-0.18,0.19-0.26c0.06-0.08,0.12-0.16,0.16-0.23c0.17-0.3,0.27-0.48,0.28-0.49
						l0.45-0.41l0.13,0.42c0.01,0.05,0.03,0.09,0.03,0.15c0,0.06-0.01,0.13-0.03,0.18c-0.05,0.11-0.09,0.13-0.1,0.15
						c-0.02,0.02-0.02,0.02-0.02,0.02c-0.02,0-0.05-0.03-0.1-0.06c-0.05-0.03-0.12-0.05-0.18-0.09c-0.06-0.03-0.12-0.07-0.15-0.12
						C49.12,158.87,49.12,158.8,49.15,158.77z"/>
				</g>
			</g>
		</g>
		<g>
			<g>
				<g>
					<path class="st12" d="M19.21,114.67c0,0,0,0-0.13-0.13l-0.09-0.22l0.09,0.22l0,0l0,0l0,0l0,0l0,0l0,0l0,0c0,0,0,0,0.01,0.01
						l0.01,0.01c0,0,0,0-0.01-0.01l-0.01-0.01l0,0l0,0l0,0l-0.09-0.22l0,0l0,0v-0.01c0-0.01,0-0.02,0-0.03c0-0.02,0-0.04,0-0.07
						l0.61-0.02c0,0.01,0.02,0.18,0.05,0.49c0.03,0.31,0.08,0.75,0.14,1.3c0.13,1.1,0.35,2.62,0.65,4.35s0.69,3.65,1.12,5.56
						c0.21,0.95,0.43,1.91,0.65,2.82c0.22,0.91,0.46,1.78,0.7,2.59c0.5,1.64,1.16,3.48,2.14,5.15c0.49,0.83,1.06,1.61,1.7,2.29
						c0.65,0.66,1.38,1.21,2.12,1.63c0.38,0.17,0.74,0.38,1.12,0.49c0.38,0.13,0.76,0.23,1.11,0.3c0.72,0.16,1.37,0.23,1.91,0.25
						s0.96-0.03,1.24-0.1c0.14-0.03,0.24-0.06,0.31-0.08c0.07-0.02,0.1-0.03,0.1-0.03c0.28-0.12,0.62,0.35,0.24,0.56
						c0,0-0.04,0.02-0.13,0.05c-0.08,0.03-0.21,0.08-0.37,0.12c-0.33,0.09-0.8,0.17-1.39,0.18c-0.59,0.01-1.29-0.04-2.06-0.17
						c-0.39-0.07-0.79-0.15-1.21-0.28c-0.43-0.11-0.84-0.32-1.28-0.5c-0.84-0.43-1.67-1.01-2.41-1.72
						c-0.73-0.72-1.37-1.55-1.93-2.43c-1.1-1.76-1.83-3.68-2.34-5.38c-0.25-0.84-0.48-1.74-0.7-2.67c-0.2-0.93-0.4-1.89-0.59-2.86
						c-0.38-1.93-0.7-3.89-0.94-5.64c-0.24-1.75-0.39-3.3-0.47-4.42c-0.04-0.56-0.07-1.01-0.08-1.32c-0.01-0.31-0.02-0.48-0.02-0.49
						l0.61-0.02c0,0.03,0,0.05,0,0.07c0,0.01,0,0.02,0,0.03v0.01l0,0l0,0l0,0l-0.09-0.22l0,0l0,0l0,0l0,0l0.01,0.01
						c0.01,0.01,0.01,0.01,0.01,0.01s0,0-0.01-0.01c0,0,0,0-0.01-0.01l0,0l0,0l0,0l0,0l0,0l0,0l0,0l0,0l0.09,0.22l-0.09-0.22
						c0.13,0.13,0.13,0.13,0.13,0.13C19.86,114.54,19.49,114.9,19.21,114.67z"/>
				</g>
			</g>
		</g>
		<g>
			<g>
				<g>
					<path class="st12" d="M35.51,141.8c0,0,0,0-0.06-0.04c-0.05-0.04-0.17-0.14-0.34-0.23l0.44-0.27c0.1-0.06-0.84,0.52-0.44,0.27
						l0,0l0,0l0,0l0,0l0,0l0,0l0,0l0,0c0,0,0,0,0.01,0h0.01c0,0,0,0-0.01-0.01h-0.01l0,0l0,0l0,0l0,0l0,0l0.44-0.27l0,0l0,0l0,0
						c0,0.01,0,0.02,0,0.03c0,0.02,0,0.05,0,0.07h-0.61c-0.13,0,1.16,0,0.61,0l0,0l0,0l0,0l0,0l0,0l0,0l0,0v-0.01v-0.01
						c0-0.01,0-0.01,0-0.01s0,0,0,0.02v0.01v0.01l0,0l0,0h-0.61l0,0l0,0l0,0l0,0l0,0c0-0.01,0-0.02,0-0.03c0-0.02,0-0.05,0-0.07
						v-0.06l0.1-0.17c0.01-0.02,0.11-0.12,0.27-0.31c0.07-0.11,0.16-0.23,0.26-0.38c0.08-0.16,0.19-0.33,0.28-0.55
						c0.39-0.83,0.68-2.13,0.83-3.62c0.07-0.75,0.11-1.54,0.11-2.36c0.01-0.41-0.02-0.82-0.05-1.23c-0.01-0.21-0.02-0.41-0.04-0.62
						l-0.08-0.62c-0.22-1.64-0.64-3.26-1.11-4.65c-0.49-1.47-1.14-3.11-1.88-4.74c-0.73-1.63-1.55-3.24-2.28-4.68
						c-0.74-1.44-1.39-2.7-1.85-3.61c-0.23-0.45-0.41-0.82-0.53-1.08c-0.12-0.25-0.19-0.39-0.19-0.39
						c-0.14-0.31,0.38-0.56,0.54-0.28c0,0,0.07,0.13,0.21,0.38c0.14,0.24,0.33,0.6,0.58,1.04c0.51,0.88,1.21,2.11,2.01,3.52
						c0.8,1.41,1.68,3.01,2.48,4.64s1.51,3.31,2.02,4.84c0.49,1.45,0.9,3.15,1.08,4.9l0.07,0.65c0.01,0.22,0.01,0.44,0.02,0.66
						c0.01,0.44,0.03,0.87,0,1.3c-0.03,0.85-0.11,1.67-0.22,2.45c-0.22,1.55-0.6,2.91-1.09,3.82c-0.11,0.23-0.25,0.43-0.36,0.6
						c-0.12,0.17-0.24,0.31-0.33,0.43c-0.22,0.22-0.35,0.33-0.37,0.35l0.1-0.23c0,0.03,0,0.05,0,0.07c0,0.01,0,0.02,0,0.03l0,0l0,0
						l0,0l0,0l0,0h-0.61l0,0l0,0v-0.01v-0.01c0-0.01,0-0.02,0-0.02s0,0,0,0.01v0.01v0.01l0,0l0,0l0,0l0,0l0,0l0,0l0,0
						c-0.55,0,0.75,0,0.61,0h-0.61c0-0.03,0-0.05,0-0.07c0-0.01,0-0.02,0-0.03l0,0l0,0l0,0l0.44-0.27l0,0l0,0l0,0l0,0h0.01
						c0,0,0.01,0,0.01,0.01c0.01,0.01,0.02,0.01,0.02,0.01s0,0-0.01-0.01c0,0-0.01,0-0.01-0.01h-0.01l0,0l0,0l0,0l0,0l0,0l0,0l0,0
						c0.4-0.24-0.54,0.33-0.44,0.27l0.44-0.27c0.15,0.08,0.24,0.15,0.3,0.19c0.06,0.04,0.1,0.08,0.13,0.1
						c0.05,0.04,0.05,0.04,0.05,0.04c0.1,0.11,0.09,0.26,0.03,0.39C35.84,141.82,35.67,141.89,35.51,141.8z"/>
				</g>
			</g>
		</g>
		<g>
			<g>
				<g>
					<path class="st12" d="M28.65,112L28.65,112c0-0.01-0.01-0.01,0,0.01c0,0.01,0.01,0.02,0.02,0.03c0.01,0.02,0.03,0.04,0.05,0.06
						c0.06,0.05,0.15,0.05,0.18,0.04c0.06-0.02,0.02,0-0.01,0.03c-0.07,0.07-0.19,0.21-0.34,0.4c-0.08,0.1-0.16,0.21-0.26,0.33
						c-0.11,0.13-0.2,0.26-0.4,0.43l-0.02,0.02c-0.1,0.11-0.54,0.44-1.16,0.73c-0.61,0.29-1.38,0.54-2.02,0.7
						c-0.25,0.06-0.52,0.12-0.8,0.18c-0.31,0.07-0.63,0.1-0.93,0.12c-0.61,0.04-1.22,0.04-1.78-0.01c-0.55-0.05-1.04-0.13-1.41-0.28
						c-0.18-0.07-0.34-0.17-0.44-0.27c-0.11-0.1-0.15-0.2-0.15-0.19c-0.09-0.23,0.52-0.27,0.53-0.31c0,0,0,0,0.04,0.02
						c0.03,0.02,0.11,0.06,0.25,0.09c0.26,0.06,0.7,0.08,1.21,0.05c0.5-0.02,1.08-0.09,1.63-0.18c0.28-0.05,0.55-0.09,0.79-0.16
						c0.27-0.08,0.54-0.15,0.78-0.21c0.63-0.16,1.35-0.33,1.93-0.52c0.58-0.18,1-0.39,1.13-0.42l-0.02,0.02
						c0.09-0.06,0.21-0.19,0.31-0.29c0.1-0.11,0.2-0.21,0.28-0.3c0.17-0.19,0.31-0.33,0.46-0.45c0.08-0.06,0.14-0.12,0.31-0.15
						c0.08-0.02,0.22,0,0.31,0.06c0.04,0.03,0.07,0.06,0.1,0.1c0.02,0.02,0.03,0.05,0.04,0.07c0.03,0.08,0.04,0.12,0.04,0.15
						c0,0.02,0,0.04,0,0.04C29.2,112.11,28.69,112.04,28.65,112z"/>
				</g>
			</g>
		</g>
		<g>
			<g>
				<g>
					<path class="st12" d="M28.41,112.06c0,0-0.02-0.01-0.08-0.03c-0.07-0.01-0.16-0.03-0.3-0.03c-0.27-0.01-0.68,0.02-1.16,0.09
						c-0.95,0.14-2.13,0.44-3.12,0.56c-0.45,0.06-0.96,0.14-1.46,0.27c-0.5,0.13-0.99,0.3-1.4,0.51c-0.41,0.2-0.75,0.44-0.97,0.62
						c-0.11,0.09-0.2,0.17-0.26,0.22c-0.06,0.06-0.09,0.09-0.09,0.09c-0.07,0.06-0.52-0.3-0.46-0.4c0,0,0.03-0.04,0.08-0.11
						c0.05-0.08,0.14-0.18,0.25-0.3c0.22-0.25,0.56-0.58,1-0.88c0.44-0.31,0.98-0.58,1.53-0.78c0.56-0.2,1.13-0.33,1.63-0.4
						c0.93-0.11,2.18-0.28,3.21-0.28c0.52,0,0.98,0.03,1.32,0.11c0.17,0.03,0.32,0.09,0.42,0.13c0.05,0.02,0.09,0.05,0.12,0.07
						c0.03,0.02,0.04,0.03,0.04,0.03C28.82,111.65,28.47,112.04,28.41,112.06z"/>
				</g>
			</g>
		</g>
		<g>
			<g>
				<g>
					<path class="st12" d="M43.6,158.51c0,0-0.69-1.27-1.56-2.96c-0.87-1.69-1.93-3.8-2.72-5.47c-0.79-1.67-1.74-3.82-2.53-5.55
						c-0.79-1.72-1.41-3.02-1.41-3.02c-0.08-0.18,0.43-0.45,0.54-0.29c0,0,0.75,1.23,1.67,2.9c0.92,1.67,2.01,3.77,2.81,5.44
						c0.79,1.68,1.72,3.85,2.46,5.6s1.3,3.07,1.3,3.07C44.18,158.45,43.72,158.67,43.6,158.51z"/>
				</g>
			</g>
		</g>
		<g>
			<g>
				<g>
					<path class="st12" d="M42.62,159.98c0,0-0.03-0.09-0.1-0.25c-0.06-0.16-0.16-0.39-0.28-0.68c-0.25-0.57-0.62-1.37-1.08-2.25
						c-0.91-1.78-2.17-3.95-2.99-5.77c-0.19-0.45-0.4-0.93-0.61-1.43c-0.21-0.49-0.44-1-0.67-1.51c-0.46-1.02-0.94-2.04-1.37-2.95
						c-0.86-1.82-1.51-3.2-1.51-3.2c-0.09-0.19,0.43-0.45,0.54-0.28c0,0,0.77,1.32,1.76,3.08c0.49,0.88,1.04,1.88,1.55,2.88
						c0.26,0.5,0.51,1.01,0.75,1.5c0.12,0.25,0.23,0.5,0.34,0.74c0.1,0.24,0.21,0.46,0.3,0.69c0.78,1.77,1.91,4,2.71,5.88
						c0.4,0.93,0.72,1.78,0.92,2.38c0.1,0.31,0.18,0.55,0.23,0.72s0.08,0.26,0.08,0.26C43.21,160.01,42.72,160.16,42.62,159.98z"/>
				</g>
			</g>
		</g>
		<g>
			<g>
				<g>
					<path class="st12" d="M44.34,158.29c0,0,0.02,0.05,0.05,0.13c0.03,0.08,0.06,0.21,0.07,0.37c0.01,0.16-0.01,0.36-0.09,0.55
						c-0.07,0.19-0.18,0.34-0.21,0.39l-0.07,0.12l-0.18,0.08c-0.01,0-0.02,0.01-0.03,0.01c-0.11,0.05-0.25,0.08-0.4,0.11
						c-0.15,0.03-0.37,0.05-0.5,0.03c-0.13-0.02-0.23-0.04-0.31-0.05c-0.08-0.01-0.12-0.02-0.12-0.02c-0.03-0.01-0.13-0.58-0.1-0.6
						c0,0,0.04-0.02,0.12-0.06c0.07-0.04,0.18-0.09,0.28-0.14c0.11-0.05,0.16-0.1,0.25-0.17c0.09-0.06,0.21-0.13,0.31-0.18
						c0.01,0,0.02-0.01,0.03-0.01l-0.25,0.2c0.11-0.14,0.17-0.19,0.23-0.23c0.06-0.04,0.11-0.09,0.16-0.16
						c0.05-0.07,0.08-0.15,0.1-0.21c0.02-0.06,0.04-0.1,0.04-0.1C43.79,158.31,44.3,158.26,44.34,158.29z"/>
				</g>
			</g>
		</g>
		<g>
			<g>
				<g>
					<path class="st12" d="M39.03,165.12c0,0-0.03,0.01-0.1,0c-0.05-0.01-0.12-0.02-0.21-0.11c-0.04-0.04-0.06-0.08-0.08-0.13
						c-0.01-0.03-0.02-0.08-0.02-0.11c0-0.11,0.02-0.17,0.04-0.23c0.02-0.06,0.04-0.11,0.06-0.16c0.1-0.22,0.24-0.47,0.41-0.76
						c0.35-0.57,0.81-1.23,1.22-1.71c0.2-0.24,0.45-0.49,0.69-0.75c0.26-0.27,0.52-0.51,0.74-0.73c0.22-0.21,0.39-0.41,0.49-0.55
						c0.1-0.14,0.15-0.24,0.15-0.24c0.03-0.05,0.58,0.13,0.57,0.21c0,0-0.03,0.14-0.11,0.35c-0.08,0.21-0.23,0.5-0.41,0.78
						c-0.18,0.29-0.4,0.59-0.6,0.86c-0.21,0.3-0.43,0.58-0.63,0.82c-0.41,0.47-0.97,1.03-1.41,1.49c-0.22,0.23-0.41,0.43-0.51,0.56
						c-0.02,0.03-0.04,0.05-0.06,0.08l-0.01,0.01l0,0l0,0l0,0l-0.02-0.01c-0.05-0.01-0.08-0.02-0.12-0.03
						c-0.04-0.01-0.06-0.01-0.08-0.01s-0.03,0-0.05,0.01c0,0-0.02,0.01-0.01,0.01c0,0,0.01-0.01,0.01-0.02c0.01-0.04,0-0.06,0-0.07
						c0-0.05-0.04-0.16-0.01-0.07c0.02,0.06,0.04,0.12,0.07,0.19c0.02,0.07,0.04,0.13,0.04,0.19c0,0.03,0,0.05-0.01,0.07
						C39.07,165.1,39.05,165.12,39.03,165.12z"/>
				</g>
			</g>
		</g>
		<g>
			<g>
				<g>
					<path class="st12" d="M44.15,159.24c0,0-0.03-0.02-0.32-0.28l-0.26-0.24l0.49-0.31c0.04-0.03,0.49-0.07,1.08-0.13
						c0.58-0.06,1.3-0.16,1.89-0.19c0.67-0.04,1.54-0.03,2.24,0.01c0.7,0.04,1.24,0.11,1.24,0.11c0.07,0.01,0.07,0.59,0,0.61
						c0,0-0.52,0.07-1.2,0.17c-0.68,0.1-1.53,0.23-2.21,0.27c-0.59,0.03-1.34,0.02-1.95-0.04c-0.61-0.05-1.08-0.15-1.12-0.18
						l0.23-0.55c0.28,0.27,0.3,0.3,0.3,0.3C44.57,158.89,44.23,159.26,44.15,159.24z"/>
				</g>
			</g>
		</g>
		<g>
			<g>
				<g>
					<path class="st12" d="M50.75,158.52c0,0,0,0.07,0.01,0.21c0.01,0.07,0,0.15-0.01,0.25c0,0.1-0.01,0.21-0.03,0.33
						c-0.06,0.49-0.25,1.19-0.66,1.87c-0.4,0.69-1,1.35-1.68,1.9c-0.67,0.55-1.41,0.99-2.08,1.31c-0.68,0.32-1.48,0.61-2.31,0.81
						c-0.41,0.1-0.84,0.18-1.25,0.23c-0.21,0.03-0.42,0.05-0.62,0.06c-0.22,0.01-0.42,0.01-0.62,0c-0.78-0.05-1.41-0.17-1.86-0.23
						c-0.22-0.03-0.4-0.05-0.51-0.05c-0.11,0-0.17,0-0.17,0c-0.11,0-0.24-0.57-0.05-0.61c0,0,0.08-0.01,0.22-0.02
						c0.14-0.01,0.33-0.01,0.57-0.01c0.47,0.01,1.12,0.06,1.81,0.03c0.17-0.01,0.35-0.02,0.51-0.04c0.18-0.03,0.36-0.06,0.55-0.1
						c0.37-0.08,0.75-0.18,1.13-0.3c0.75-0.23,1.47-0.53,2.09-0.83c0.62-0.29,1.3-0.66,1.93-1.11c0.63-0.45,1.2-0.97,1.59-1.52
						c0.4-0.54,0.62-1.1,0.72-1.51c0.03-0.1,0.04-0.2,0.06-0.28c0.01-0.08,0.03-0.15,0.03-0.21c0.01-0.12,0.01-0.18,0.01-0.18
						C50.21,158.38,50.72,158.35,50.75,158.52z"/>
				</g>
			</g>
		</g>
		<g>
			<g>
				<g>
					<path class="st54" d="M27.02,133.46c0,0-0.02-0.04,0-0.16c0.01-0.03,0.01-0.06,0.02-0.1c0.02-0.04,0.03-0.08,0.06-0.12
						c0.03-0.04,0.07-0.08,0.11-0.12c0.04-0.04,0.09-0.06,0.15-0.09c0.21-0.09,0.41-0.08,0.61-0.04c0.2,0.04,0.39,0.12,0.59,0.27
						c0.05,0.04,0.1,0.08,0.15,0.13c0.05,0.06,0.1,0.12,0.14,0.18c0.08,0.12,0.13,0.25,0.17,0.39c0.08,0.29,0.04,0.62-0.07,0.88
						c-0.23,0.53-0.67,0.86-1.13,1.01c-0.23,0.07-0.52,0.1-0.83,0.02c-0.31-0.08-0.61-0.31-0.76-0.58
						c-0.08-0.13-0.13-0.28-0.16-0.43c-0.03-0.15-0.03-0.29-0.02-0.43c0.03-0.28,0.15-0.52,0.27-0.7c0.26-0.37,0.59-0.56,0.84-0.66
						c0.06-0.02,0.12-0.04,0.17-0.06c0.05-0.01,0.1-0.02,0.14-0.03c0.08-0.01,0.12-0.01,0.12-0.01c0.1,0,0.14,0.58,0.1,0.6
						c0,0-0.02,0.01-0.06,0.02c-0.02,0.01-0.04,0.02-0.07,0.04c-0.03,0.02-0.06,0.04-0.09,0.06c-0.13,0.09-0.3,0.27-0.38,0.49
						c-0.09,0.22-0.05,0.43,0.05,0.52c0.05,0.05,0.08,0.05,0.13,0.06c0.05,0,0.13,0,0.21-0.03c0.17-0.04,0.39-0.19,0.49-0.34
						c0.05-0.08,0.07-0.14,0.08-0.22c0-0.04-0.01-0.09-0.02-0.12c0-0.02-0.01-0.03-0.01-0.04c-0.01-0.01-0.02-0.04-0.03-0.05
						c-0.06-0.07-0.15-0.14-0.23-0.18c-0.04-0.02-0.07-0.03-0.1-0.04c-0.01,0-0.02-0.01-0.03-0.01c0,0,0,0.01-0.02-0.05
						c0-0.02-0.02-0.05-0.03-0.06l-0.01-0.01c0.01,0.01,0.02,0.01,0.03,0.02l0.05,0.02c-0.01-0.01-0.01,0.02-0.01,0.02
						C27.57,133.46,27.06,133.58,27.02,133.46z"/>
				</g>
			</g>
		</g>
		<g>
			<g>
				<g>
					<path class="st54" d="M31.82,131.82c0,0,0.03-0.06,0.1-0.16c0.03-0.05,0.08-0.1,0.12-0.16c0.05-0.07,0.12-0.12,0.19-0.19
						c0.07-0.07,0.15-0.14,0.25-0.21c0.05-0.03,0.1-0.07,0.15-0.11c0.05-0.04,0.12-0.07,0.18-0.1c0.24-0.13,0.57-0.26,0.96-0.23
						c0.39,0.02,0.79,0.24,1.06,0.53c0.27,0.29,0.45,0.64,0.56,1c0.11,0.36,0.15,0.73,0.12,1.11c-0.03,0.37-0.14,0.75-0.36,1.07
						c-0.21,0.32-0.6,0.61-1.03,0.7c-0.42,0.1-0.83,0.04-1.19-0.07c-0.09-0.03-0.17-0.06-0.26-0.1l-0.13-0.05
						c-0.05-0.03-0.1-0.06-0.16-0.09c-0.11-0.06-0.19-0.13-0.27-0.21c-0.09-0.07-0.14-0.16-0.21-0.24
						c-0.24-0.33-0.34-0.69-0.38-1.02c-0.04-0.33-0.01-0.65,0.07-0.93c0.09-0.28,0.24-0.52,0.4-0.68c0.09-0.08,0.17-0.15,0.25-0.19
						c0.08-0.04,0.15-0.07,0.21-0.1c0.12-0.03,0.19-0.05,0.19-0.05c0.16-0.03,0.21,0.55,0.16,0.59c0,0-0.03,0.01-0.09,0.04
						c-0.03,0.02-0.06,0.04-0.09,0.07c-0.03,0.03-0.06,0.07-0.1,0.11c-0.06,0.1-0.12,0.23-0.15,0.4c-0.02,0.18-0.01,0.38,0.04,0.59
						c0.05,0.21,0.15,0.42,0.29,0.56c0.04,0.03,0.06,0.07,0.1,0.09c0.03,0.02,0.07,0.05,0.1,0.06c0.02,0.01,0.03,0.01,0.05,0.02
						l0.09,0.02c0.06,0.02,0.12,0.03,0.18,0.05c0.24,0.05,0.46,0.05,0.61,0c0.15-0.05,0.25-0.13,0.34-0.25
						c0.18-0.24,0.27-0.76,0.17-1.23c-0.05-0.23-0.14-0.46-0.26-0.62c-0.12-0.16-0.26-0.27-0.42-0.3c-0.16-0.04-0.35-0.01-0.53,0.06
						c-0.04,0.02-0.09,0.03-0.13,0.05c-0.04,0.02-0.08,0.04-0.12,0.06c-0.08,0.04-0.15,0.08-0.21,0.13
						c-0.06,0.04-0.12,0.08-0.16,0.11c-0.05,0.04-0.08,0.07-0.11,0.1c-0.05,0.05-0.08,0.08-0.08,0.08
						C32.25,132.17,31.76,131.98,31.82,131.82z"/>
				</g>
			</g>
		</g>
		<g>
			<g>
				<g>
					<path class="st54" d="M29.79,137.2c0,0,0.01-0.03,0.05-0.07c0.03-0.05,0.09-0.12,0.18-0.2c0.09-0.08,0.23-0.17,0.41-0.24
						c0.18-0.07,0.41-0.1,0.66-0.07l0.12,0.01l0.24,0.31c0.05,0.06,0.15,0.27,0.16,0.57c0,0.15-0.03,0.33-0.09,0.49
						c-0.07,0.17-0.17,0.32-0.29,0.44c-0.17,0.17-0.41,0.31-0.7,0.35c-0.15,0.02-0.31,0.02-0.49-0.05c-0.17-0.06-0.35-0.2-0.44-0.36
						c-0.09-0.16-0.11-0.31-0.11-0.42c0-0.11,0.02-0.2,0.04-0.27c0.04-0.14,0.1-0.21,0.12-0.24l-0.01,0.04
						c0.04-0.15,0.07-0.27,0.17-0.43c0.05-0.08,0.14-0.17,0.25-0.21c0.11-0.04,0.2-0.04,0.25-0.02c0.11,0.02,0.15,0.05,0.18,0.06
						c0.03,0.01,0.04,0.02,0.04,0.02c0.06,0.04-0.22,0.55-0.25,0.56c0,0-0.01,0-0.02,0c0,0-0.01,0-0.02,0c0,0,0,0-0.01,0
						c0,0,0,0.01,0-0.02c0-0.01,0.01-0.03,0.01-0.04s0-0.03,0-0.05c0-0.01,0-0.02,0-0.03c0-0.03,0-0.03-0.01-0.04
						c0-0.01,0.02,0.04,0.14,0.12c0.02,0.01,0.02,0.01,0.02,0.01l0,0v0.01c0,0.01-0.01,0.03-0.01,0.05
						c-0.01,0.05-0.01,0.1-0.02,0.16l-0.01,0.04c0.02,0.02,0.02,0.08,0.04,0.13c0.01,0.02,0.02,0.05,0.03,0.06l0,0
						c0,0,0.01,0-0.01,0c-0.02,0-0.05,0.02-0.06,0.02c-0.02,0-0.03,0.01-0.05,0.02c-0.01,0-0.02,0.01-0.03,0.02
						c-0.03,0.02,0,0.01,0.01-0.05c0.01-0.03,0.02-0.07,0.02-0.11c0-0.02,0-0.04,0-0.06v-0.02l0,0l0,0
						c0.01-0.01,0.05-0.04,0.08-0.08c0.05-0.04,0.09-0.1,0.12-0.18c0.03-0.08,0.04-0.19,0.06-0.23l0.36,0.32
						c-0.25-0.08-0.42-0.04-0.52,0c-0.11,0.04-0.16,0.08-0.16,0.08C30.2,137.56,29.78,137.27,29.79,137.2z"/>
				</g>
			</g>
		</g>
	</g>
	<g>
		<g>
			<g>
				<g>
					<path class="st54" d="M156.01,86.75c0,0-0.01-0.02-0.04-0.05c-0.03-0.03-0.07-0.08-0.13-0.14c-0.12-0.13-0.31-0.3-0.57-0.5
						c-0.52-0.4-1.3-0.91-2.23-1.41c-0.95-0.51-1.99-1.11-3.06-1.55c-0.54-0.22-1.08-0.41-1.61-0.51c-0.13-0.02-0.26-0.05-0.39-0.06
						c-0.13-0.02-0.26-0.03-0.38-0.03s-0.23,0-0.3,0.01c-0.03,0-0.04,0.02,0-0.01c0.02-0.02,0.05-0.05,0.07-0.1
						c0.02-0.05,0.02-0.08,0.02-0.1c-0.01-0.03,0-0.01,0.01,0.02c0.01,0.03,0.04,0.07,0.07,0.11c0.06,0.08,0.15,0.18,0.23,0.27
						c0.18,0.19,0.38,0.37,0.59,0.57c0.42,0.39,0.85,0.79,1.3,1.15c0.23,0.18,0.46,0.35,0.7,0.5c0.24,0.16,0.48,0.29,0.74,0.43
						c0.51,0.27,1.01,0.53,1.49,0.74c0.96,0.43,1.84,0.71,2.47,0.77c0.31,0.03,0.55,0.01,0.71-0.03c0.08-0.02,0.13-0.04,0.17-0.05
						c0.04-0.02,0.06-0.02,0.06-0.02c0.15-0.08,0.44,0.24,0.21,0.4c0,0-0.03,0.01-0.08,0.04s-0.13,0.06-0.23,0.09
						c-0.2,0.06-0.51,0.11-0.87,0.09c-0.72-0.03-1.67-0.28-2.69-0.68c-0.51-0.2-1.04-0.43-1.57-0.69c-0.26-0.13-0.54-0.27-0.81-0.43
						c-0.27-0.16-0.53-0.33-0.78-0.52c-0.5-0.37-0.96-0.77-1.39-1.16c-0.21-0.19-0.43-0.39-0.64-0.6c-0.1-0.11-0.21-0.22-0.31-0.35
						c-0.05-0.07-0.1-0.14-0.15-0.22c-0.05-0.09-0.1-0.19-0.11-0.35c-0.01-0.08,0-0.19,0.04-0.29c0.04-0.11,0.11-0.2,0.19-0.26
						c0.15-0.12,0.27-0.14,0.37-0.17c0.2-0.04,0.36-0.04,0.52-0.03c0.16,0.01,0.3,0.03,0.46,0.05c0.15,0.02,0.3,0.05,0.45,0.08
						c0.6,0.13,1.19,0.35,1.75,0.6c1.13,0.51,2.16,1.16,3.07,1.71c0.93,0.56,1.71,1.13,2.23,1.58c0.26,0.23,0.46,0.43,0.59,0.58
						c0.07,0.07,0.11,0.14,0.14,0.18c0.03,0.04,0.05,0.06,0.05,0.06C156.48,86.72,156.14,86.89,156.01,86.75z"/>
				</g>
			</g>
		</g>
		<g>
			<g>
				<g>
					<path class="st54" d="M145.84,111.21c0,0,0,0,0.02,0c0.01,0,0.01,0-0.03,0.01c-0.02,0.01-0.04,0.02-0.05,0.03
						c-0.01,0.01-0.01,0.01-0.01,0.01l0.29,0.31c-0.01,0.01-0.16,0.08-0.43,0.2c-0.06,0.03-0.14,0.05-0.22,0.08
						c-0.08,0.02-0.17,0.05-0.26,0.08c-0.05,0.01-0.09,0.03-0.14,0.04s-0.1,0.02-0.15,0.03c-0.1,0.02-0.21,0.04-0.32,0.06
						c-0.9,0.13-2.02-0.04-2.83-0.34c-0.86-0.3-1.84-0.9-2.53-1.49c-0.17-0.15-0.33-0.29-0.47-0.43c-0.13-0.14-0.25-0.26-0.35-0.36
						c-0.19-0.22-0.3-0.35-0.3-0.35c-0.06-0.08,0.26-0.36,0.33-0.31c0,0,0.12,0.11,0.32,0.28c0.11,0.08,0.23,0.18,0.37,0.29
						c0.15,0.11,0.31,0.22,0.49,0.34c0.71,0.47,1.66,0.94,2.43,1.2c0.73,0.27,1.7,0.51,2.49,0.49c0.1,0,0.19-0.01,0.29-0.01
						c0.05,0,0.09,0,0.14-0.01c0.04,0,0.09-0.01,0.13-0.02c0.08-0.01,0.16-0.03,0.23-0.04c0.07-0.01,0.14-0.02,0.2-0.04
						c0.24-0.07,0.39-0.11,0.4-0.11l0.45,0.02l-0.15,0.28c-0.02,0.03-0.03,0.06-0.07,0.1c-0.03,0.03-0.07,0.06-0.11,0.08
						c-0.08,0.03-0.12,0.02-0.13,0.02c-0.02,0-0.02,0-0.02,0c-0.01-0.01-0.01-0.04-0.02-0.08c-0.01-0.04-0.03-0.09-0.05-0.14
						c-0.02-0.05-0.03-0.1-0.01-0.14C145.77,111.25,145.81,111.22,145.84,111.21z"/>
				</g>
			</g>
		</g>
		<g>
			<g>
				<g>
					<path class="st12" d="M153.21,72.66c0,0,0,0,0-0.14l0.07-0.16l-0.07,0.16l0,0l0,0l0,0l0,0l0,0l0,0l0,0c0,0,0,0,0,0.01v0.01
						c0,0,0,0,0-0.01v-0.01l0,0l0,0l0,0l0.07-0.16l0,0l0,0l0,0l0.01-0.01c0.01-0.01,0.02-0.02,0.04-0.04l0.33,0.31
						c0,0-0.08,0.1-0.23,0.28c-0.14,0.17-0.35,0.43-0.6,0.75c-0.5,0.64-1.18,1.55-1.92,2.6c-0.74,1.06-1.54,2.26-2.31,3.48
						c-0.39,0.61-0.77,1.22-1.13,1.81s-0.69,1.17-0.98,1.72c-0.6,1.11-1.21,2.42-1.57,3.8c-0.17,0.69-0.28,1.39-0.3,2.08
						c-0.01,0.69,0.09,1.35,0.25,1.95c0.11,0.29,0.19,0.59,0.33,0.84c0.13,0.26,0.28,0.51,0.42,0.74c0.29,0.46,0.59,0.83,0.86,1.12
						c0.27,0.29,0.52,0.48,0.69,0.59c0.09,0.06,0.16,0.09,0.21,0.12c0.05,0.02,0.07,0.04,0.07,0.04c0.21,0.08,0.14,0.51-0.17,0.42
						c0,0-0.03-0.01-0.09-0.04c-0.06-0.03-0.15-0.06-0.26-0.13c-0.22-0.12-0.51-0.33-0.82-0.63c-0.31-0.3-0.65-0.69-0.98-1.16
						c-0.17-0.24-0.33-0.49-0.49-0.77c-0.17-0.28-0.27-0.61-0.41-0.93c-0.21-0.66-0.34-1.39-0.36-2.15
						c-0.01-0.75,0.09-1.52,0.26-2.27c0.34-1.49,0.96-2.87,1.58-4.02c0.3-0.57,0.65-1.16,1.03-1.75c0.38-0.59,0.78-1.19,1.18-1.8
						c0.81-1.2,1.66-2.39,2.45-3.43c0.79-1.04,1.52-1.92,2.06-2.54c0.27-0.31,0.49-0.56,0.64-0.73c0.15-0.17,0.24-0.26,0.24-0.27
						l0.33,0.31c-0.01,0.01-0.03,0.03-0.04,0.04s-0.01,0.01-0.01,0.01l0,0l0,0l0,0l0,0l0.07-0.16l0,0l0,0l0,0l0,0v0.01
						c0,0.01,0,0.01,0,0.01s0,0,0-0.01c0,0,0,0,0-0.01l0,0l0,0l0,0l0,0l0,0l0,0l0,0l0,0l-0.07,0.16l0.07-0.16c0,0.13,0,0.14,0,0.14
						C153.61,72.93,153.24,72.93,153.21,72.66z"/>
				</g>
			</g>
		</g>
		<g>
			<g>
				<g>
					<path class="st12" d="M147.58,95.28c0,0,0,0-0.01-0.05s-0.02-0.16-0.06-0.3l0.37,0.09c0.08,0.02-0.71-0.17-0.37-0.09l0,0l0,0
						l0,0l0,0l0,0l0,0l0,0l0,0c0,0,0,0,0,0.01l0,0c0,0,0,0,0-0.01v-0.01l0,0l0,0l0,0l0,0l0,0l0.37,0.09l0,0l0,0l0,0
						c0,0-0.01,0.01-0.02,0.02c-0.01,0.01-0.02,0.02-0.04,0.04l-0.32-0.32c-0.07-0.07,0.6,0.6,0.32,0.32l0,0l0,0l0,0l0,0l0,0l0,0
						l0,0l0,0c0,0,0,0,0.01-0.01c0,0,0,0,0.01-0.01c0,0,0,0-0.01,0.01c0,0,0,0-0.01,0.01l0,0l0,0l0,0l-0.32-0.32l0,0l0,0l0,0l0,0
						l0,0c0,0,0.01-0.01,0.02-0.02c0.01-0.01,0.02-0.02,0.04-0.04l0.03-0.03l0.14-0.03c0.01,0,0.12-0.01,0.3-0.02
						c0.09-0.02,0.2-0.03,0.33-0.06c0.13-0.04,0.27-0.07,0.43-0.14c0.64-0.23,1.46-0.75,2.31-1.45c0.43-0.35,0.86-0.75,1.29-1.17
						c0.22-0.21,0.41-0.44,0.61-0.67c0.1-0.11,0.2-0.23,0.3-0.34l0.28-0.37c0.74-0.97,1.37-2.03,1.85-3
						c0.51-1.02,1.03-2.21,1.49-3.45c0.47-1.23,0.88-2.49,1.25-3.63c0.37-1.13,0.68-2.13,0.92-2.84c0.12-0.36,0.22-0.64,0.28-0.84
						c0.07-0.2,0.1-0.3,0.1-0.3c0.09-0.24,0.49-0.09,0.43,0.14c0,0-0.03,0.11-0.09,0.31c-0.06,0.2-0.14,0.48-0.24,0.84
						c-0.2,0.72-0.47,1.73-0.78,2.88c-0.32,1.15-0.69,2.44-1.12,3.71c-0.43,1.27-0.94,2.51-1.47,3.57c-0.5,1.01-1.17,2.11-1.99,3.11
						l-0.3,0.38c-0.11,0.12-0.22,0.24-0.33,0.35c-0.22,0.23-0.44,0.47-0.67,0.68c-0.46,0.42-0.93,0.82-1.39,1.16
						c-0.92,0.69-1.82,1.2-2.56,1.42c-0.18,0.06-0.35,0.09-0.5,0.13c-0.15,0.03-0.29,0.04-0.4,0.05c-0.23,0-0.36-0.01-0.37-0.01
						l0.17-0.07c-0.01,0.01-0.03,0.03-0.04,0.04s-0.01,0.01-0.02,0.02l0,0l0,0l0,0l0,0l0,0l-0.32-0.32l0,0l0,0l0,0
						c0,0,0,0,0.01-0.01s0.01-0.01,0.01-0.01s0,0-0.01,0.01c0,0,0,0-0.01,0.01l0,0l0,0l0,0l0,0l0,0l0,0l0,0l0,0
						c-0.28-0.28,0.39,0.39,0.32,0.32l-0.32-0.32c0.01-0.01,0.03-0.03,0.04-0.04s0.01-0.01,0.02-0.02l0,0l0,0l0,0l0.37,0.09l0,0l0,0
						l0,0l0,0v0.01v0.01c0,0.01,0.01,0.02,0,0.02c0,0,0,0,0-0.01v-0.01v-0.01l0,0l0,0l0,0l0,0l0,0l0,0l0,0
						c0.33,0.08-0.45-0.11-0.37-0.09l0.37,0.09c0.04,0.12,0.05,0.2,0.06,0.26c0.01,0.05,0.01,0.09,0.02,0.12
						c0.01,0.05,0.01,0.05,0.01,0.05c-0.01,0.11-0.09,0.18-0.19,0.22C147.74,95.46,147.61,95.41,147.58,95.28z"/>
				</g>
			</g>
		</g>
		<g>
			<g>
				<g>
					<path class="st12" d="M159.52,76.19C159.52,76.19,159.52,76.18,159.52,76.19C159.52,76.18,159.52,76.17,159.52,76.19
						c-0.01,0.01-0.01,0.02-0.01,0.03c0,0.02-0.01,0.04,0,0.06c0,0.05,0.05,0.1,0.07,0.11c0.04,0.02,0.01,0.01-0.02,0.01
						c-0.08,0-0.21,0.01-0.39,0.03c-0.09,0.01-0.19,0.02-0.31,0.04c-0.12,0.01-0.24,0.03-0.43,0.01h-0.02
						c-0.11,0.01-0.51-0.05-0.98-0.22c-0.47-0.17-1-0.44-1.42-0.69c-0.17-0.1-0.33-0.21-0.51-0.32c-0.2-0.13-0.38-0.27-0.55-0.42
						c-0.34-0.3-0.66-0.62-0.92-0.93c-0.26-0.31-0.47-0.61-0.59-0.88c-0.06-0.13-0.09-0.26-0.09-0.37c0-0.11,0.03-0.18,0.02-0.18
						c0.07-0.17,0.41,0.13,0.43,0.12c0,0,0,0,0.01,0.03s0.03,0.09,0.08,0.17c0.1,0.17,0.33,0.41,0.6,0.66
						c0.28,0.25,0.61,0.51,0.94,0.76c0.17,0.12,0.34,0.24,0.5,0.32c0.18,0.1,0.36,0.2,0.52,0.3c0.41,0.25,0.88,0.53,1.27,0.73
						c0.4,0.2,0.73,0.32,0.81,0.37h-0.02c0.08,0.01,0.21,0.01,0.31,0.01c0.11,0,0.21-0.01,0.3-0.01c0.19-0.01,0.33-0.01,0.47,0.01
						c0.07,0.01,0.14,0.01,0.24,0.08c0.05,0.03,0.11,0.11,0.13,0.19c0,0.03,0,0.07,0,0.1c0,0.02-0.01,0.04-0.02,0.06
						c-0.02,0.06-0.05,0.08-0.06,0.1c-0.01,0.01-0.02,0.02-0.02,0.02C159.75,76.53,159.52,76.23,159.52,76.19z"/>
				</g>
			</g>
		</g>
		<g>
			<g>
				<g>
					<path class="st12" d="M159.36,76.09c0,0-0.01-0.02-0.03-0.05c-0.03-0.04-0.06-0.1-0.14-0.17c-0.13-0.15-0.37-0.35-0.65-0.55
						c-0.57-0.42-1.34-0.88-1.92-1.33c-0.27-0.2-0.57-0.43-0.9-0.62c-0.33-0.19-0.67-0.36-0.99-0.46c-0.32-0.11-0.62-0.16-0.83-0.19
						c-0.11-0.01-0.19-0.02-0.25-0.02c-0.06,0-0.09,0-0.09,0c-0.07-0.01-0.11-0.43-0.03-0.45c0,0,0.04-0.01,0.1-0.02
						c0.07-0.01,0.16-0.02,0.29-0.03c0.24-0.01,0.59-0.01,0.98,0.06c0.39,0.07,0.81,0.21,1.2,0.39c0.4,0.18,0.76,0.41,1.06,0.64
						c0.54,0.42,1.28,0.99,1.82,1.52c0.27,0.27,0.49,0.53,0.63,0.75c0.07,0.11,0.12,0.21,0.15,0.28c0.02,0.04,0.02,0.07,0.03,0.1
						c0.01,0.02,0.01,0.03,0.01,0.03C159.78,76.09,159.4,76.12,159.36,76.09z"/>
				</g>
			</g>
		</g>
		<g>
			<g>
				<g>
					<path class="st12" d="M143.08,108.19c0,0,0.3-1.02,0.73-2.35c0.43-1.33,0.97-2.98,1.43-4.27c0.46-1.28,1.08-2.9,1.57-4.21
						c0.49-1.31,0.84-2.3,0.84-2.3c0.05-0.14,0.46-0.01,0.43,0.13c0,0-0.25,1.03-0.64,2.38c-0.39,1.35-0.91,3.01-1.37,4.3
						c-0.46,1.28-1.11,2.9-1.63,4.2c-0.53,1.3-0.92,2.28-0.92,2.28C143.42,108.46,143.06,108.33,143.08,108.19z"/>
				</g>
			</g>
		</g>
		<g>
			<g>
				<g>
					<path class="st12" d="M141.81,108.44c0,0,0.03-0.06,0.08-0.18c0.05-0.11,0.12-0.29,0.21-0.5c0.17-0.43,0.39-1.03,0.61-1.73
						c0.45-1.4,0.93-3.19,1.45-4.56c0.13-0.33,0.28-0.69,0.42-1.06c0.14-0.37,0.29-0.75,0.43-1.14c0.29-0.77,0.57-1.55,0.82-2.25
						c0.5-1.4,0.88-2.45,0.88-2.45c0.06-0.15,0.46-0.01,0.43,0.13c0,0-0.28,1.09-0.69,2.52c-0.2,0.72-0.44,1.52-0.69,2.31
						c-0.13,0.4-0.26,0.79-0.4,1.17c-0.07,0.19-0.14,0.38-0.21,0.56c-0.07,0.18-0.14,0.35-0.2,0.52c-0.51,1.33-1.09,3.08-1.65,4.47
						c-0.28,0.7-0.55,1.3-0.76,1.72c-0.11,0.21-0.19,0.38-0.26,0.49c-0.06,0.11-0.1,0.18-0.1,0.18
						C142.1,108.77,141.77,108.59,141.81,108.44z"/>
				</g>
			</g>
		</g>
		<g>
			<g>
				<g>
					<path class="st12" d="M143.59,108.46c0,0-0.01,0.04-0.04,0.09c-0.03,0.06-0.08,0.14-0.15,0.23c-0.08,0.09-0.2,0.18-0.33,0.24
						c-0.13,0.06-0.27,0.08-0.31,0.1l-0.1,0.03l-0.14-0.05c0,0-0.01,0-0.02-0.01c-0.08-0.03-0.17-0.08-0.27-0.15
						c-0.1-0.06-0.21-0.17-0.27-0.24c-0.06-0.08-0.1-0.14-0.13-0.19c-0.03-0.05-0.05-0.08-0.05-0.08c-0.01-0.02,0.23-0.37,0.26-0.37
						c0,0,0.04,0.01,0.09,0.03c0.06,0.02,0.14,0.05,0.22,0.07c0.08,0.03,0.13,0.03,0.22,0.05c0.08,0.02,0.18,0.04,0.25,0.07
						c0.01,0,0.01,0.01,0.02,0.01l-0.23-0.02c0.13-0.02,0.19-0.01,0.24,0c0.05,0.01,0.11,0.01,0.17,0s0.12-0.04,0.16-0.05
						c0.04-0.02,0.07-0.03,0.07-0.03C143.29,108.19,143.58,108.42,143.59,108.46z"/>
				</g>
			</g>
		</g>
		<g>
			<g>
				<g>
					<path class="st12" d="M137.26,109.25c0,0-0.02-0.01-0.05-0.05c-0.02-0.03-0.05-0.08-0.05-0.17c0-0.04,0.01-0.07,0.03-0.11
						c0.01-0.02,0.03-0.05,0.05-0.06c0.06-0.06,0.1-0.07,0.14-0.1c0.04-0.02,0.08-0.04,0.12-0.05c0.16-0.06,0.37-0.12,0.61-0.18
						c0.47-0.11,1.06-0.22,1.52-0.26c0.23-0.02,0.49-0.02,0.75-0.03c0.28,0,0.54,0.01,0.76,0.01c0.23,0,0.41-0.01,0.54-0.03
						c0.13-0.02,0.2-0.04,0.2-0.04c0.04-0.01,0.24,0.37,0.19,0.41c0,0-0.09,0.06-0.24,0.13c-0.15,0.07-0.38,0.14-0.62,0.19
						c-0.24,0.05-0.52,0.1-0.76,0.14c-0.27,0.05-0.53,0.08-0.76,0.1c-0.46,0.04-1.04,0.03-1.51,0.04c-0.23,0-0.43,0.01-0.56,0.02
						c-0.03,0-0.05,0.01-0.07,0.01h-0.01l0,0l0,0l0,0l-0.01-0.01c-0.02-0.03-0.03-0.05-0.05-0.08c-0.02-0.02-0.02-0.03-0.04-0.05
						c-0.01-0.01-0.02-0.02-0.03-0.02h-0.01c0,0,0.01,0,0.02-0.01c0.02-0.02,0.03-0.03,0.03-0.03c0.03-0.03,0.06-0.1,0.03-0.04
						c-0.02,0.04-0.04,0.09-0.06,0.13c-0.02,0.05-0.05,0.09-0.08,0.12c-0.01,0.01-0.03,0.03-0.04,0.03
						C137.3,109.26,137.28,109.26,137.26,109.25z"/>
				</g>
			</g>
		</g>
		<g>
			<g>
				<g>
					<path class="st12" d="M142.99,108.85c0,0,0-0.02-0.02-0.31l-0.01-0.26l0.42,0.09c0.04,0.01,0.29,0.22,0.63,0.49
						c0.34,0.27,0.76,0.6,1.09,0.88c0.37,0.33,0.81,0.79,1.16,1.17c0.35,0.39,0.59,0.7,0.59,0.7c0.03,0.05-0.27,0.34-0.32,0.32
						c0,0-0.31-0.23-0.71-0.53c-0.41-0.3-0.92-0.68-1.29-1.01c-0.33-0.29-0.71-0.69-1-1.04c-0.29-0.35-0.48-0.64-0.49-0.67
						l0.41-0.16c0,0.29,0,0.31,0,0.31C143.39,108.89,143.02,108.91,142.99,108.85z"/>
				</g>
			</g>
		</g>
		<g>
			<g>
				<g>
					<path class="st12" d="M146.81,111.92c0,0-0.04,0.04-0.11,0.11c-0.03,0.04-0.08,0.08-0.13,0.13s-0.11,0.11-0.19,0.16
						c-0.29,0.23-0.75,0.49-1.32,0.63c-0.57,0.15-1.23,0.18-1.86,0.12c-0.64-0.06-1.25-0.22-1.77-0.4
						c-0.52-0.19-1.09-0.45-1.62-0.78c-0.27-0.16-0.53-0.34-0.77-0.53c-0.12-0.09-0.24-0.19-0.35-0.29
						c-0.12-0.11-0.22-0.22-0.32-0.32c-0.38-0.43-0.64-0.82-0.85-1.08c-0.1-0.13-0.18-0.23-0.24-0.29
						c-0.06-0.06-0.09-0.09-0.09-0.09c-0.06-0.06,0.17-0.42,0.29-0.34c0,0,0.05,0.04,0.13,0.1c0.08,0.07,0.18,0.17,0.3,0.29
						c0.24,0.25,0.55,0.61,0.93,0.96c0.09,0.09,0.19,0.17,0.29,0.24c0.11,0.08,0.22,0.16,0.34,0.23c0.24,0.15,0.49,0.3,0.74,0.43
						c0.51,0.27,1.04,0.49,1.52,0.66c0.47,0.17,1.02,0.33,1.58,0.43c0.56,0.09,1.13,0.12,1.62,0.04c0.49-0.07,0.9-0.25,1.16-0.41
						c0.07-0.04,0.13-0.08,0.17-0.12c0.05-0.04,0.1-0.06,0.13-0.09c0.07-0.06,0.1-0.09,0.1-0.09
						C146.59,111.56,146.87,111.81,146.81,111.92z"/>
				</g>
			</g>
		</g>
		<g>
			<g>
				<g>
					<path class="st54" d="M147.5,86.51c0,0,0.01-0.03,0.09-0.08c0.02-0.01,0.03-0.03,0.06-0.04c0.03-0.01,0.06-0.02,0.1-0.03
						c0.04-0.01,0.08-0.01,0.12-0.01c0.04,0,0.08,0.01,0.12,0.03c0.16,0.06,0.26,0.17,0.34,0.3c0.08,0.12,0.14,0.27,0.17,0.45
						c0.01,0.05,0.01,0.09,0.01,0.14s-0.01,0.11-0.02,0.16c-0.02,0.1-0.06,0.2-0.11,0.29c-0.11,0.19-0.3,0.34-0.5,0.42
						c-0.4,0.16-0.8,0.1-1.11-0.07c-0.16-0.09-0.32-0.22-0.44-0.42c-0.12-0.2-0.16-0.48-0.09-0.7c0.03-0.11,0.08-0.21,0.14-0.31
						c0.06-0.09,0.14-0.17,0.22-0.23c0.16-0.13,0.34-0.19,0.51-0.22c0.33-0.06,0.6,0.02,0.78,0.09c0.05,0.02,0.09,0.04,0.12,0.06
						c0.03,0.02,0.06,0.04,0.09,0.06c0.05,0.03,0.07,0.06,0.07,0.06c0.05,0.05-0.23,0.37-0.26,0.37c0,0-0.01-0.01-0.04-0.02
						c-0.01,0-0.03-0.01-0.05-0.02c-0.02,0-0.05-0.01-0.08-0.02c-0.11-0.02-0.3-0.01-0.45,0.05c-0.16,0.07-0.25,0.2-0.24,0.29
						c0,0.05,0.01,0.07,0.04,0.09c0.02,0.03,0.07,0.06,0.13,0.09c0.11,0.06,0.3,0.11,0.43,0.08c0.07-0.01,0.11-0.04,0.15-0.07
						c0.02-0.02,0.04-0.05,0.05-0.07c0.01-0.01,0.01-0.02,0.02-0.03c0-0.01,0.01-0.03,0.01-0.05c0.01-0.07,0-0.15-0.02-0.21
						c-0.01-0.03-0.02-0.06-0.03-0.07c0-0.01-0.01-0.01-0.01-0.02c0,0,0,0,0.01-0.03c0.01-0.01,0.01-0.04,0.02-0.05v-0.01
						c0,0.01,0,0.02,0.01,0.02l0.02,0.04c0-0.01-0.02,0.01-0.01,0C147.78,86.8,147.45,86.6,147.5,86.51z"/>
				</g>
			</g>
		</g>
		<g>
			<g>
				<g>
					<path class="st54" d="M150.85,88.16c0,0,0.05-0.02,0.13-0.03c0.04-0.01,0.09-0.01,0.15-0.02c0.06-0.01,0.13,0,0.2,0
						s0.15,0.01,0.24,0.02c0.04,0.01,0.09,0.01,0.13,0.02c0.05,0.01,0.09,0.03,0.14,0.04c0.19,0.06,0.43,0.16,0.62,0.38
						c0.19,0.22,0.29,0.54,0.28,0.83c-0.01,0.29-0.1,0.57-0.23,0.81c-0.13,0.24-0.3,0.46-0.51,0.64s-0.46,0.31-0.75,0.37
						c-0.28,0.06-0.63,0-0.9-0.17c-0.27-0.17-0.45-0.42-0.58-0.65c-0.03-0.06-0.06-0.12-0.08-0.18l-0.04-0.09
						c-0.01-0.04-0.02-0.08-0.03-0.13c-0.03-0.09-0.03-0.17-0.03-0.25c-0.01-0.08,0.01-0.16,0.02-0.23c0.05-0.3,0.18-0.54,0.33-0.73
						c0.15-0.19,0.34-0.34,0.52-0.45c0.19-0.1,0.39-0.14,0.56-0.15c0.09,0.01,0.17,0.01,0.23,0.03c0.06,0.02,0.12,0.04,0.16,0.06
						c0.08,0.04,0.12,0.07,0.12,0.07c0.1,0.07-0.18,0.4-0.23,0.39c0,0-0.02-0.01-0.07-0.03c-0.02,0-0.05-0.01-0.08-0.01
						c-0.03,0-0.07,0-0.11,0c-0.08,0.02-0.18,0.05-0.29,0.13c-0.1,0.08-0.21,0.19-0.29,0.33c-0.08,0.14-0.14,0.3-0.14,0.44
						c0,0.03-0.01,0.07,0.01,0.1c0.01,0.03,0.01,0.06,0.02,0.08c0,0.01,0.01,0.02,0.01,0.04l0.03,0.06
						c0.02,0.04,0.04,0.08,0.07,0.12c0.1,0.15,0.21,0.27,0.32,0.32c0.1,0.05,0.2,0.06,0.31,0.04c0.22-0.03,0.53-0.25,0.73-0.55
						c0.1-0.15,0.16-0.31,0.19-0.46c0.02-0.15,0-0.27-0.06-0.38c-0.06-0.1-0.18-0.19-0.3-0.24c-0.03-0.01-0.06-0.03-0.09-0.04
						c-0.03-0.01-0.07-0.02-0.1-0.03c-0.06-0.02-0.12-0.03-0.18-0.04c-0.05-0.01-0.1-0.03-0.14-0.03c-0.05,0-0.08,0-0.11-0.01
						c-0.06,0-0.08,0-0.08,0C150.89,88.56,150.73,88.21,150.85,88.16z"/>
				</g>
			</g>
		</g>
		<g>
			<g>
				<g>
					<path class="st54" d="M146.99,89.9c0,0,0.02-0.01,0.06-0.01c0.04-0.01,0.11-0.02,0.2-0.01c0.09,0.01,0.21,0.03,0.34,0.09
						c0.13,0.06,0.26,0.16,0.38,0.3l0.06,0.07L148,90.62c-0.01,0.06-0.06,0.22-0.22,0.38c-0.08,0.08-0.18,0.16-0.31,0.21
						c-0.12,0.05-0.26,0.08-0.38,0.08c-0.18,0-0.37-0.05-0.55-0.18c-0.09-0.07-0.17-0.16-0.23-0.28c-0.06-0.12-0.08-0.29-0.04-0.41
						c0.03-0.13,0.1-0.22,0.16-0.28s0.12-0.09,0.16-0.12c0.1-0.05,0.16-0.06,0.19-0.06l-0.02,0.01c0.1-0.05,0.18-0.1,0.31-0.14
						c0.07-0.01,0.16-0.02,0.24,0.02c0.08,0.04,0.12,0.09,0.14,0.12c0.05,0.07,0.05,0.11,0.06,0.13s0.01,0.03,0.01,0.03
						c0.01,0.05-0.4,0.17-0.42,0.16c0,0,0,0-0.01-0.01l-0.01-0.01l0,0c0,0,0,0,0.01-0.01c0.01,0,0.02-0.01,0.03-0.02
						c0.01-0.01,0.02-0.01,0.02-0.02c0.01,0,0.01-0.01,0.02-0.02c0.01-0.02,0.01-0.02,0.01-0.02s-0.01,0.03,0.01,0.13
						c0,0.02,0.01,0.02,0,0.01l0,0l-0.01,0.01c-0.01,0.01-0.02,0.01-0.03,0.02c-0.03,0.02-0.06,0.04-0.09,0.07l-0.03,0.01
						c0,0.02-0.03,0.05-0.05,0.09c-0.01,0.02-0.01,0.04-0.01,0.05l0,0c0,0,0,0-0.01,0c-0.01-0.01-0.03-0.02-0.04-0.02
						c-0.01-0.01-0.02-0.01-0.04-0.02c-0.01,0-0.01-0.01-0.02-0.01c-0.03,0-0.01,0,0.03-0.02c0.02-0.01,0.04-0.03,0.07-0.05
						c0.01-0.01,0.02-0.02,0.03-0.03l0.01-0.01l0,0l0,0c0.01,0,0.05,0,0.08,0c0.05,0,0.1,0,0.16-0.03c0.06-0.02,0.12-0.08,0.16-0.09
						l0.02,0.35c-0.09-0.17-0.19-0.24-0.27-0.27c-0.08-0.03-0.13-0.04-0.13-0.04C147.01,90.3,146.95,89.93,146.99,89.9z"/>
				</g>
			</g>
		</g>
	</g>
	<g>
		<path class="st12" d="M114.63,91.93c-13.41,0-24.31-13.46-24.31-30.03s10.9-30.03,24.31-30.03s24.29,13.46,24.29,30.03
			S128.02,91.93,114.63,91.93z M114.63,34.04c-12.42,0-22.55,12.49-22.55,27.86s10.11,27.86,22.55,27.86
			c12.42,0,22.55-12.49,22.55-27.86S127.05,34.04,114.63,34.04z"/>
	</g>
	<rect x="113.63" y="36.42" class="st12" width="2" height="8.56"/>
	<rect x="113.63" y="79.07" class="st12" width="2" height="8.56"/>
	<polygon class="st12" points="105.57,49.71 104.16,51.45 99.26,45.4 100.67,43.65 	"/>
	<polygon class="st12" points="129.98,79.87 128.57,81.62 123.67,75.57 125.08,73.82 	"/>
	<polygon class="st12" points="128.57,43.65 129.98,45.39 125.08,51.45 123.66,49.7 	"/>
	<polygon class="st12" points="104.16,73.81 105.57,75.56 100.67,81.62 99.25,79.87 	"/>
	<rect x="93.88" y="60.16" class="st12" width="6.93" height="2.47"/>
	<rect x="128.42" y="60.16" class="st12" width="6.93" height="2.47"/>
	<path class="st12" d="M114.43,61.9L114.43,61.9c0.86,0,1.53-0.93,1.42-1.99l-1.46-14.07l-1.37,14.09
		C112.91,60.97,113.57,61.9,114.43,61.9z"/>
	<path class="st12" d="M115.05,61.7L115.05,61.7c1-0.56,1.37-2.06,0.79-3.21l-7.65-15.24l4.4,17.11
		C112.89,61.62,114.05,62.25,115.05,61.7z"/>
	<g>
		<path class="st55" d="M49.61,85.83c0-11.7,1.06-25.42,8.37-35.11c11.69-15.47,14.48-21.66,14.48-27.17c0-0.4-0.26-2.02-0.13-2.56
			c-0.66-3.77-0.66-8.88-7.3-8.61c-1.59,0-2.26-0.27-3.32,1.61c0,0.27-0.53,1.61-0.53,2.02v9.01c-0.13,1.61-1.2,2.69-2.79,2.82
			c-0.66,0-5.05,0-5.98,0c-0.13,0-0.53-0.13-0.93-0.13c-0.26,0-1.46,0-1.73-0.13c-0.66-0.4-0.8-0.81-0.8-1.35
			c0.4-1.88,0.4-3.5,0.4-5.92C49.35,10.5,53.6-0.26,66.48,0c6.24,0.13,11.69,1.88,14.87,8.07c1.33,2.56,2.66,5.38,2.92,8.34
			c0,0.54,0,3.09,0,3.63c0,8.61-2.39,16.41-6.51,23.67c-0.4,0.94-1.59,3.09-2.26,3.9C65.14,59.32,64.48,62.28,63.95,64.7
			c0,0.27-0.13,0.4-0.13,0.67c-0.27,1.88-0.93,11.43-1.2,13.18c0,0.27,0.26,1.35,0.26,1.61c5.31,0.27,9.03-0.81,14.48-0.54
			c2.26,0.13,4.25,0.4,4.78,2.82c0.13,1.35,0.26,6.59,0.26,7.8c0,0,0,0.27,0,0.4c0,1.21-0.66,2.82-2.12,2.69
			c-0.27,0-1.99,0-2.26-0.13c-4.25-0.13-8.37-0.94-12.75-1.08c-4.38-0.27-8.1,0.4-12.35,0.67c-0.13,0-0.8,0-0.93,0
			c-1.46,0-2.39-0.67-2.52-2.42C49.48,89.73,49.48,86.63,49.61,85.83z"/>
		<path class="st55" d="M49.61,197.9c0-11.7,1.06-25.42,8.37-35.11c11.69-15.47,14.48-21.66,14.48-27.17c0-0.4-0.26-2.02-0.13-2.56
			c-0.66-3.77-0.66-8.88-7.3-8.61c-1.59,0-2.26-0.27-3.32,1.61c0,0.27-0.53,1.61-0.53,2.02v9.01c-0.13,1.61-1.2,2.69-2.79,2.82
			c-0.66,0-5.05,0-5.98,0c-0.13,0-0.53-0.13-0.93-0.13c-0.26,0-1.46,0-1.73-0.13c-0.66-0.4-0.8-0.81-0.8-1.35
			c0.4-1.88,0.4-3.5,0.4-5.92c0-9.82,4.25-20.58,17.13-20.31c6.24,0.13,11.69,1.88,14.87,8.07c1.33,2.56,2.66,5.38,2.92,8.34
			c0,0.54,0,3.09,0,3.63c0,8.61-2.39,16.41-6.51,23.67c-0.4,0.94-1.59,3.09-2.26,3.9c-10.36,11.7-11.02,14.66-11.55,17.08
			c0,0.27-0.13,0.4-0.13,0.67c-0.27,1.88-0.93,11.43-1.2,13.18c0,0.27,0.26,1.34,0.26,1.61c5.31,0.27,9.03-0.81,14.48-0.54
			c2.26,0.13,4.25,0.4,4.78,2.82c0.13,1.35,0.26,6.59,0.26,7.8c0,0,0,0.27,0,0.4c0,1.21-0.66,2.82-2.12,2.69
			c-0.27,0-1.99,0-2.26-0.13c-4.25-0.13-8.37-0.94-12.75-1.08c-4.38-0.27-8.1,0.4-12.35,0.67c-0.13,0-0.8,0-0.93,0
			c-1.46,0-2.39-0.67-2.52-2.42C49.48,201.8,49.48,198.7,49.61,197.9z"/>
		<path class="st55" d="M97.29,197.9c0-11.7,1.06-25.42,8.37-35.11c11.69-15.47,14.48-21.66,14.48-27.17c0-0.4-0.27-2.02-0.13-2.56
			c-0.66-3.77-0.66-8.88-7.31-8.61c-1.59,0-2.26-0.27-3.32,1.61c0,0.27-0.53,1.61-0.53,2.02v9.01c-0.13,1.61-1.2,2.69-2.79,2.82
			c-0.66,0-5.05,0-5.98,0c-0.13,0-0.53-0.13-0.93-0.13c-0.27,0-1.46,0-1.73-0.13c-0.66-0.4-0.8-0.81-0.8-1.35
			c0.4-1.88,0.4-3.5,0.4-5.92c0-9.82,4.25-20.58,17.13-20.31c6.24,0.13,11.69,1.88,14.87,8.07c1.33,2.56,2.66,5.38,2.92,8.34
			c0,0.54,0,3.09,0,3.63c0,8.61-2.39,16.41-6.51,23.67c-0.4,0.94-1.59,3.09-2.26,3.9c-10.36,11.7-11.02,14.66-11.56,17.08
			c0,0.27-0.13,0.4-0.13,0.67c-0.26,1.88-0.93,11.43-1.2,13.18c0,0.27,0.27,1.34,0.27,1.61c5.31,0.27,9.03-0.81,14.48-0.54
			c2.26,0.13,4.25,0.4,4.78,2.82c0.13,1.35,0.27,6.59,0.27,7.8c0,0,0,0.27,0,0.4c0,1.21-0.66,2.82-2.13,2.69
			c-0.26,0-1.99,0-2.26-0.13c-4.25-0.13-8.37-0.94-12.75-1.08c-4.38-0.27-8.1,0.4-12.35,0.67c-0.13,0-0.8,0-0.93,0
			c-1.46,0-2.39-0.67-2.52-2.42C97.16,201.8,97.16,198.7,97.29,197.9z"/>
	</g>
	<g>
		<g>
			<g>
				<g>
					<path class="st12" d="M14.07,98.47c0,0-0.01,0-0.09,0.05c-0.04,0.02-0.11,0.06-0.22,0.1c-0.11,0.04-0.29,0.08-0.52,0.05
						l0.14-0.01c-0.28,0.02-0.08,0-0.14,0.01l0,0l0,0l0,0l0,0l0,0l0,0h0.01h0.01c0.01,0,0.02,0,0.02,0c0.01,0,0.02,0,0.02,0
						s-0.01,0-0.04,0c-0.01,0-0.01,0-0.02,0h-0.01l0,0l0,0l0,0l0,0c0.28-0.02,0.08,0,0.14-0.01l0,0l0,0h-0.01
						c-0.01,0-0.03,0.01-0.04,0.01c-0.03,0.01-0.07,0.02-0.11,0.03l-0.13-0.6c0.04-0.02,0.51-0.1,1.25-0.25
						c0.75-0.15,1.77-0.37,2.93-0.63c2.32-0.52,5.19-1.22,7.52-1.64c1.2-0.21,2.56-0.41,3.95-0.54c0.35-0.04,0.69-0.05,1.03-0.08
						l0.26-0.02l0.24-0.03c0.16-0.02,0.33-0.04,0.49-0.06c0.66-0.09,1.31-0.18,1.92-0.27c1.23-0.17,2.33-0.26,3.14-0.25
						c0.2,0,0.39,0.01,0.55,0.02c0.16,0.02,0.3,0.03,0.42,0.04c0.23,0.04,0.37,0.06,0.38,0.07l0.2,0.07l0.04,0.15
						c0.02,0.07,0.04,0.11,0.05,0.23c0,0.02,0,0.04,0,0.07c0,0.01-0.01,0.04-0.01,0.06l-0.01,0.03c-0.01,0.02-0.02,0.04-0.03,0.06
						c-0.03,0.04-0.06,0.07-0.12,0.1c-0.03,0.01-0.06,0.02-0.09,0.03c-0.02,0-0.04,0-0.06,0c-0.09-0.01-0.1-0.02-0.14-0.03
						c-0.08-0.04-0.09-0.06-0.11-0.08c-0.07-0.06-0.09-0.09-0.12-0.11c-0.04-0.03-0.04-0.03-0.04-0.03
						c-0.04-0.03-0.02-0.06,0.01-0.11c0.02-0.02,0.03-0.06,0.03-0.09c0-0.04-0.01-0.07-0.02-0.11c-0.01-0.04-0.02-0.07,0-0.11
						c0.02-0.04,0.06-0.07,0.11-0.08c0.1-0.03,0.2-0.01,0.26,0.04c0,0,0,0,0.06,0.05c0.02,0.02,0.05,0.05,0.1,0.09l0,0l0,0l0,0
						c0,0-0.01,0.02-0.02,0.02c-0.02,0.03-0.05,0.06-0.07,0.1c-0.02,0.02-0.03,0.05-0.04,0.07c-0.02,0.04-0.01,0.07-0.02,0.05
						c0,0-0.03-0.01-0.05-0.01c-0.03-0.01-0.05,0-0.09,0c-0.04,0-0.09,0-0.13,0.01c-0.02,0-0.01,0-0.01,0l0,0l0,0v-0.02
						c-0.01-0.02-0.01-0.04-0.02-0.06l0.24,0.21c-0.03,0.01-0.46-0.07-1.22-0.02c-0.76,0.04-1.81,0.2-3.01,0.43
						c-0.6,0.11-1.24,0.24-1.91,0.36c-0.17,0.03-0.33,0.06-0.51,0.09l-0.27,0.04l-0.27,0.04c-0.34,0.04-0.68,0.07-1.02,0.12
						c-1.35,0.17-2.68,0.4-3.86,0.61c-2.29,0.4-5.19,0.98-7.55,1.37c-1.18,0.2-2.23,0.35-2.99,0.45s-1.24,0.14-1.28,0.14l-2.14-0.01
						l2.01-0.59c0.04-0.01,0.08-0.02,0.11-0.03c0.02,0,0.03-0.01,0.04-0.01h0.01l0,0l0,0l0.14-0.01l0,0l0,0h0.01
						c0.01,0,0.02,0,0.01,0c0,0,0,0-0.01,0c0,0,0,0-0.01,0h-0.01l0,0l0,0l0,0c-0.05,0-0.09,0.01-0.14,0.01l0.14-0.01
						c0.17,0.03,0.29-0.05,0.36-0.08c0.07-0.04,0.07-0.04,0.07-0.04c0.06-0.02,0.14-0.01,0.2,0.02s0.11,0.1,0.12,0.16
						C14.13,98.26,14.18,98.38,14.07,98.47z"/>
				</g>
			</g>
		</g>
		<g>
			<g>
				<g>
					<path class="st12" d="M36.56,72.99c0,0,0.02,0.01-0.05-0.02c-0.06-0.02-0.17-0.06-0.33-0.1c-0.31-0.08-0.77-0.17-1.35-0.29
						c-0.29-0.06-0.61-0.11-0.98-0.22c-0.34-0.1-0.7-0.2-1.09-0.31c-0.77-0.22-1.63-0.47-2.54-0.74c-3.64-1.07-8.14-2.42-11.69-3.37
						c-1.77-0.48-3.8-1.01-5.84-1.48c-0.51-0.11-1.03-0.23-1.54-0.34c-0.51-0.11-1.03-0.21-1.53-0.31c-1.04-0.21-2-0.5-2.92-0.74
						c-1.83-0.5-3.43-0.94-4.58-1.18c-0.57-0.13-1.03-0.2-1.35-0.24c-0.16-0.01-0.27-0.02-0.36-0.03c-0.04,0-0.07-0.01-0.09,0
						c-0.02,0-0.03,0-0.03,0c-0.34,0-0.43-0.58,0-0.61c0,0,0.01,0,0.04,0c0.02,0,0.06,0,0.1,0c0.09,0,0.22,0.01,0.4,0.02
						c0.34,0.03,0.83,0.08,1.42,0.19c1.19,0.2,2.82,0.57,4.66,1.01c0.92,0.21,1.9,0.46,2.89,0.63c0.51,0.09,1.03,0.17,1.55,0.27
						c0.52,0.1,1.04,0.19,1.56,0.3c2.08,0.42,4.14,0.92,5.92,1.4c3.58,0.97,8.06,2.46,11.65,3.66c0.9,0.3,1.74,0.58,2.5,0.84
						c0.38,0.13,0.74,0.25,1.07,0.36c0.3,0.1,0.63,0.17,0.92,0.24c0.58,0.14,1.05,0.26,1.37,0.36c0.16,0.05,0.29,0.09,0.39,0.14
						c0.05,0.02,0.09,0.04,0.12,0.06s0.06,0.04,0.06,0.04c0.01,0.01,0.03,0.02,0.04,0.04c0.01,0.01,0.04,0.04,0.05,0.06
						c0.01,0.02,0.02,0.04,0.03,0.06c0,0.01,0.01,0.02,0.01,0.03c0,0.02,0.01,0.03,0.01,0.05c0.01,0.07-0.01,0.13-0.04,0.19
						c-0.02,0.04-0.06,0.08-0.08,0.09c-0.02,0.01-0.04,0.03-0.06,0.03c-0.03,0.01-0.06,0.02-0.07,0.02
						c-0.07,0.01-0.11-0.01-0.15-0.04c-0.07-0.05-0.1-0.11-0.11-0.18c-0.01-0.07,0.01-0.14,0.04-0.2c0.01-0.03,0.03-0.06,0.03-0.08
						c0,0-0.01,0-0.02,0c-0.01,0-0.02,0.01-0.04,0.02c-0.02,0.02-0.04,0.04-0.06,0.08c-0.03,0.05-0.03,0.1-0.03,0.16
						c0.01,0.03,0.01,0.05,0.02,0.06c0.01,0.02,0.02,0.03,0.02,0.04c0.01,0.01,0.02,0.03,0.03,0.04
						C36.55,72.99,36.55,72.99,36.56,72.99z"/>
				</g>
			</g>
		</g>
		<g>
			<g>
				<g>
					<path class="st12" d="M42.54,55.41c0,0,0,0.01,0,0.05c0,0.02,0.01,0.05,0.02,0.11c0.01,0.03,0.03,0.08,0.05,0.17
						c0.02,0.09,0.01,0.27-0.06,0.38l-0.18,0.15c0.37-0.3,0.1-0.08,0.18-0.15l0,0l0,0l0,0l0,0l0,0l0,0v-0.01
						c0-0.01,0.01-0.01,0.01-0.02c0-0.01,0.01-0.02,0.01-0.02c0.01-0.01,0.01-0.02,0.01-0.02s0,0.02-0.02,0.05
						c0,0.01-0.01,0.02-0.01,0.03l0,0l0,0l0,0l-0.19,0.15l0,0l0,0l0,0l0,0h-0.01c-0.01,0-0.03,0.01-0.04,0.01
						c-0.03,0.01-0.07,0.02-0.1,0.03l-0.39-0.21c0.78,0.42,0.22,0.12,0.39,0.21l0,0l0,0l0,0l0,0l0,0l0,0h0.01h0.01
						c0.01,0,0.01,0,0.02-0.01c0.01,0,0.02,0,0.02,0s-0.02,0.01-0.05,0.02h-0.01H42.2c0.09,0.05-0.75-0.4-0.39-0.21l0,0l0,0l0,0l0,0
						l0,0l0,0c0-0.01-0.01-0.02-0.01-0.03c0-0.02-0.02-0.04,0-0.01c0.01,0.01,0.01,0.02,0.03,0.05c0.02,0.02,0.06,0.05,0.1,0.07
						c0.08,0.03,0.12,0.02,0.12,0.02c0.01,0-0.03,0.01-0.06,0.02l-0.11,0.03l-0.27-0.19c-0.02-0.02-0.16-0.19-0.45-0.46
						s-0.71-0.62-1.2-1.01c-0.98-0.77-2.23-1.68-3.24-2.42c-1.17-0.87-2.65-1.98-3.89-2.8c-0.62-0.41-1.18-0.74-1.58-0.92
						c-0.2-0.09-0.36-0.15-0.45-0.17s-0.11-0.02-0.11-0.02s-0.01-0.01-0.02-0.03c-0.01-0.02-0.01-0.04-0.03-0.06
						c-0.03-0.05-0.07-0.11-0.11-0.17c-0.04-0.06-0.07-0.13-0.06-0.2c0.01-0.07,0.05-0.13,0.12-0.14c0,0,0.03-0.01,0.08-0.01
						c0.06-0.01,0.12-0.01,0.21,0c0.17,0.02,0.37,0.06,0.62,0.14c0.48,0.16,1.1,0.44,1.78,0.8c1.36,0.72,2.95,1.74,4.14,2.62
						c1.02,0.75,2.23,1.76,3.16,2.65c0.47,0.44,0.86,0.86,1.14,1.2c0.28,0.33,0.44,0.61,0.45,0.69l-0.37-0.16
						c0.04-0.01,0.06-0.02,0.14-0.03c0.03,0,0.1-0.02,0.22,0.02c0.05,0.02,0.11,0.06,0.13,0.09c0.03,0.04,0.04,0.06,0.06,0.08
						c0.04,0.08,0.04,0.1,0.05,0.13c0,0.01,0.01,0.02,0.01,0.03l0,0l0,0l0,0l0,0l0,0l0,0c0.35,0.19-0.48-0.26-0.39-0.21h0.01h0.01
						c0.03-0.01,0.05-0.01,0.05-0.01s-0.01,0-0.02,0.01c-0.01,0-0.01,0-0.02,0.01h-0.01h-0.01l0,0l0,0l0,0l0,0l0,0l0,0
						c0.17,0.09-0.39-0.21,0.39,0.21l-0.39-0.21c0.04-0.01,0.07-0.02,0.11-0.03c0.02,0,0.03-0.01,0.04-0.01h0.01l0,0l0,0l0,0l0,0
						L42,55.84l0,0l0,0l0,0c0.02,0.01,0.03,0.01,0.03,0.01s-0.01,0-0.02-0.01c-0.01,0-0.01,0-0.01,0l0,0l0,0l0,0l0,0l0,0l0,0l0,0
						l0.18-0.15L42,55.84l0,0l0.03,0.01c0.01,0,0.01,0,0.02,0.01c0.01,0,0,0,0,0c0.01,0-0.08,0-0.06,0c0-0.02-0.02-0.06-0.03-0.11
						c-0.03-0.09-0.04-0.18-0.04-0.23c-0.01-0.11,0-0.12,0-0.12C42.01,55.17,42.51,55.34,42.54,55.41z"/>
				</g>
			</g>
		</g>
		<g>
			<g>
				<g>
					<path class="st12" d="M55.98,44.83c0,0-0.05-0.01-0.16-0.02c-0.05-0.01-0.11-0.02-0.19-0.03c-0.07-0.02-0.16-0.04-0.25-0.07
						c-0.37-0.11-0.89-0.35-1.44-0.75c-0.55-0.4-1.13-0.94-1.76-1.54c-0.65-0.58-1.37-1.22-2.13-1.91c-1.51-1.42-3.15-3.06-4.7-4.76
						c-1.55-1.7-3.06-3.41-4.37-4.93c-2.61-3.03-5.93-6.9-8.94-9.65c-0.19-0.17-0.37-0.35-0.55-0.52c-0.18-0.17-0.37-0.32-0.55-0.48
						c-0.36-0.31-0.7-0.61-1.03-0.89c-0.67-0.55-1.28-1.01-1.78-1.4c-0.52-0.38-0.94-0.66-1.23-0.86c-0.29-0.2-0.45-0.31-0.45-0.31
						c-0.35-0.25-0.03-0.73,0.33-0.52c0,0,0.17,0.1,0.47,0.3c0.3,0.19,0.75,0.46,1.29,0.83c0.53,0.38,1.17,0.83,1.87,1.36
						c0.34,0.27,0.7,0.56,1.08,0.86c0.19,0.15,0.38,0.3,0.57,0.46c0.19,0.17,0.38,0.33,0.58,0.5c1.58,1.34,3.23,2.98,4.82,4.65
						s3.1,3.39,4.42,4.9c1.31,1.52,2.78,3.25,4.29,4.97c1.5,1.72,3.07,3.4,4.51,4.85c0.37,0.35,0.72,0.7,1.07,1.02
						c0.17,0.17,0.34,0.33,0.51,0.49c0.17,0.16,0.34,0.32,0.49,0.48c0.61,0.63,1.14,1.16,1.63,1.55c0.48,0.38,0.91,0.6,1.21,0.71
						c0.08,0.02,0.14,0.05,0.2,0.07c0.06,0.01,0.11,0.02,0.15,0.03c0.08,0.02,0.12,0.03,0.12,0.03
						C56.41,44.31,56.47,44.83,55.98,44.83z"/>
				</g>
			</g>
		</g>
		<g>
			<g>
				<g>
					<path class="st54" d="M39.09,63.23c0,0-0.17,0.02-0.45,0.04c-0.28,0.01-0.68,0.02-1.13,0c-0.9-0.05-2-0.25-2.83-0.49
						s-1.83-0.65-2.63-0.96c-0.4-0.16-0.75-0.29-1.01-0.38c-0.25-0.09-0.41-0.14-0.41-0.14c-0.08-0.03,0.04-0.6,0.13-0.6
						c0,0,0.17,0.02,0.44,0.06c0.28,0.04,0.66,0.11,1.09,0.21c0.86,0.18,1.91,0.46,2.71,0.68c0.8,0.24,1.8,0.56,2.62,0.74
						c0.41,0.09,0.77,0.15,1.04,0.19c0.26,0.03,0.42,0.05,0.42,0.05C39.16,62.68,39.18,63.19,39.09,63.23z"/>
				</g>
			</g>
		</g>
		<g>
			<g>
				<g>
					<path class="st54" d="M48.79,50.12c0,0-0.54-0.31-1.22-0.76c-0.68-0.44-1.52-1.02-2.13-1.5c-0.61-0.49-1.36-1.16-1.96-1.69
						s-1.07-0.91-1.07-0.91c-0.06-0.06,0.25-0.54,0.33-0.51c0,0,0.56,0.28,1.26,0.7c0.7,0.42,1.55,0.99,2.17,1.48
						c0.62,0.49,1.36,1.18,1.95,1.73c0.59,0.55,1.04,0.97,1.04,0.97C49.19,49.73,48.88,50.14,48.79,50.12z"/>
				</g>
			</g>
		</g>
		<g>
			<g>
				<g>
					<path class="st54" d="M34.83,84.36c0,0-0.58,0.11-1.34,0.28c-0.76,0.17-1.71,0.38-2.46,0.51c-0.75,0.12-1.72,0.22-2.5,0.3
						c-0.39,0.04-0.73,0.08-0.97,0.1c-0.12,0.01-0.22,0.03-0.28,0.03c-0.06,0.01-0.1,0.01-0.1,0.01c-0.07,0.01-0.25-0.55-0.17-0.59
						c0,0,0.04-0.01,0.11-0.04c0.07-0.02,0.16-0.06,0.28-0.1c0.24-0.08,0.57-0.19,0.95-0.3c0.76-0.22,1.72-0.47,2.48-0.59
						c0.76-0.12,1.74-0.2,2.54-0.23c0.8-0.03,1.41-0.01,1.41-0.01C34.88,83.81,34.91,84.32,34.83,84.36z"/>
				</g>
			</g>
		</g>
	</g>
	<g>
		<g>
			<g>
				<g>
					<path class="st12" d="M163.58,114.64c0,0,0,0,0.08-0.05c0.04-0.02,0.1-0.07,0.22-0.11c0.11-0.04,0.28-0.1,0.52-0.08l-0.14,0.02
						c0.28-0.04,0.08-0.01,0.14-0.02l0,0l0,0l0,0l0,0l0,0l0,0h-0.01h-0.01c-0.01,0-0.02,0-0.02,0c-0.01,0-0.02,0-0.02,0
						s0.01,0,0.04,0c0.01,0,0.01,0,0.02,0h0.01l0,0l0,0l0,0l0,0c-0.28,0.04-0.08,0.01-0.14,0.02l0,0l0,0h0.01
						c0.01,0,0.03-0.01,0.04-0.02c0.03-0.01,0.07-0.03,0.11-0.04l0.17,0.59c-0.04,0.02-0.5,0.14-1.23,0.34
						c-0.73,0.2-1.74,0.49-2.88,0.83c-2.28,0.68-5.1,1.57-7.39,2.14c-1.18,0.29-2.53,0.58-3.9,0.8c-0.34,0.06-0.68,0.1-1.02,0.15
						l-0.25,0.04l-0.24,0.04c-0.16,0.03-0.32,0.06-0.48,0.09c-0.66,0.14-1.29,0.27-1.9,0.39c-1.21,0.25-2.31,0.42-3.12,0.46
						c-0.2,0.01-0.39,0.01-0.55,0.02c-0.16-0.01-0.3-0.01-0.42-0.01c-0.24-0.02-0.37-0.04-0.38-0.04l-0.21-0.05l-0.05-0.15
						c-0.02-0.07-0.04-0.11-0.06-0.22c0-0.02,0-0.04,0-0.07c0-0.01,0-0.04,0.01-0.06l0.01-0.03c0.01-0.02,0.02-0.04,0.03-0.06
						c0.03-0.04,0.05-0.08,0.11-0.11c0.03-0.02,0.06-0.03,0.09-0.03c0.02,0,0.04-0.01,0.06-0.01c0.09,0,0.1,0.01,0.14,0.02
						c0.09,0.04,0.09,0.05,0.12,0.07c0.07,0.06,0.1,0.08,0.12,0.1c0.04,0.03,0.04,0.03,0.04,0.03c0.04,0.03,0.02,0.06-0.01,0.11
						c-0.02,0.03-0.03,0.06-0.03,0.09c0,0.04,0.02,0.07,0.03,0.1c0.01,0.03,0.02,0.07,0.01,0.11c-0.01,0.04-0.05,0.07-0.1,0.09
						c-0.09,0.04-0.2,0.02-0.26-0.02c0,0,0,0-0.06-0.05c-0.02-0.02-0.05-0.04-0.1-0.08l0,0l0,0l0,0c0,0,0.01-0.02,0.02-0.02
						c0.02-0.03,0.04-0.07,0.06-0.1c0.02-0.02,0.03-0.05,0.04-0.08c0.02-0.04,0.01-0.07,0.02-0.05c0,0,0.03,0.01,0.05,0.01
						c0.03,0,0.05,0,0.09,0c0.04,0,0.08-0.01,0.13-0.02c0.02,0,0.01,0,0.01,0l0,0l0,0l0.01,0.02c0.01,0.02,0.01,0.04,0.02,0.06
						l-0.25-0.2c0.02-0.01,0.47,0.04,1.22-0.06c0.75-0.09,1.79-0.32,2.98-0.63c0.59-0.15,1.22-0.33,1.88-0.49
						c0.17-0.04,0.33-0.08,0.5-0.12l0.26-0.06l0.25-0.05c0.33-0.06,0.68-0.12,1.01-0.19c1.33-0.27,2.65-0.58,3.81-0.87
						c2.26-0.56,5.11-1.32,7.44-1.88c1.16-0.28,2.2-0.5,2.95-0.65c0.75-0.15,1.23-0.23,1.27-0.23l2.14-0.14l-1.96,0.73
						c-0.04,0.01-0.07,0.03-0.11,0.04c-0.02,0.01-0.03,0.01-0.04,0.02h-0.01l0,0l0,0l-0.14,0.02l0,0l0,0h-0.01
						c-0.01,0-0.02,0-0.01,0c0,0,0,0,0.01,0c0,0,0,0,0.01,0h0.01l0,0l0,0l0,0c0.05-0.01,0.09-0.01,0.14-0.02l-0.14,0.02
						c-0.17-0.01-0.29,0.07-0.35,0.11c-0.07,0.04-0.07,0.04-0.07,0.04c-0.06,0.02-0.14,0.02-0.2-0.01
						c-0.07-0.03-0.11-0.09-0.14-0.15C163.54,114.85,163.48,114.73,163.58,114.64z"/>
				</g>
			</g>
		</g>
		<g>
			<g>
				<g>
					<path class="st12" d="M142.87,141.58c0,0-0.02-0.01,0.05,0.02c0.06,0.02,0.18,0.05,0.33,0.07c0.31,0.06,0.78,0.12,1.37,0.19
						c0.3,0.04,0.61,0.07,1,0.15c0.35,0.07,0.72,0.15,1.11,0.24c0.78,0.17,1.65,0.36,2.58,0.56c3.7,0.82,8.29,1.86,11.9,2.57
						c1.8,0.36,3.86,0.75,5.93,1.08c0.52,0.08,1.04,0.16,1.56,0.23c0.52,0.08,1.04,0.14,1.55,0.21c1.05,0.14,2.03,0.36,2.96,0.54
						c1.86,0.38,3.48,0.71,4.64,0.87c0.58,0.09,1.04,0.13,1.36,0.15c0.16,0,0.28,0.01,0.36,0.01c0.04,0,0.07,0,0.09,0
						c0.02,0,0.03,0,0.03,0c0.34-0.02,0.47,0.55,0.04,0.61c0,0-0.01,0-0.04,0c-0.02,0-0.06,0.01-0.1,0.01
						c-0.09,0-0.22,0.01-0.4,0.01c-0.34-0.01-0.83-0.02-1.43-0.09c-1.2-0.11-2.85-0.38-4.72-0.69c-0.93-0.15-1.92-0.33-2.92-0.43
						c-0.51-0.05-1.03-0.1-1.56-0.16c-0.53-0.06-1.05-0.12-1.58-0.19c-2.11-0.28-4.19-0.63-6.01-1c-3.64-0.72-8.21-1.9-11.87-2.87
						c-0.92-0.24-1.78-0.46-2.55-0.67c-0.39-0.1-0.75-0.2-1.1-0.28c-0.31-0.08-0.64-0.13-0.93-0.18c-0.59-0.1-1.06-0.19-1.39-0.26
						c-0.17-0.04-0.3-0.07-0.4-0.11c-0.05-0.02-0.09-0.04-0.13-0.05c-0.03-0.02-0.06-0.04-0.06-0.03c-0.01-0.01-0.03-0.02-0.04-0.03
						c-0.02-0.01-0.04-0.04-0.05-0.06c-0.01-0.02-0.03-0.04-0.03-0.06c0-0.01-0.01-0.02-0.01-0.03c-0.01-0.02-0.01-0.03-0.01-0.05
						c-0.01-0.07,0-0.13,0.02-0.19c0.02-0.04,0.05-0.08,0.07-0.1c0.02-0.01,0.04-0.03,0.06-0.04c0.03-0.01,0.05-0.02,0.07-0.02
						c0.07-0.01,0.11,0.01,0.15,0.03c0.07,0.04,0.11,0.11,0.12,0.18c0.01,0.07,0,0.14-0.02,0.2c-0.01,0.03-0.03,0.06-0.02,0.08
						c0,0.01,0.01,0,0.02,0c0.01-0.01,0.02-0.01,0.03-0.02c0.02-0.02,0.04-0.04,0.06-0.08c0.02-0.05,0.03-0.11,0.02-0.16
						c-0.01-0.03-0.01-0.05-0.02-0.06c-0.01-0.01-0.02-0.03-0.03-0.04c-0.01-0.01-0.02-0.03-0.03-0.03
						C142.88,141.59,142.87,141.58,142.87,141.58z"/>
				</g>
			</g>
		</g>
		<g>
			<g>
				<g>
					<path class="st12" d="M138.09,159.52c0,0,0-0.01-0.01-0.05c0-0.02-0.01-0.05-0.03-0.11c-0.01-0.03-0.03-0.08-0.06-0.17
						c-0.03-0.09-0.03-0.26,0.04-0.38l0.17-0.16c-0.35,0.32-0.1,0.09-0.17,0.16l0,0l0,0l0,0l0,0l0,0l0,0v0.01
						c0,0.01,0,0.01-0.01,0.02c0,0.01-0.01,0.02-0.01,0.03c0,0.01-0.01,0.02-0.01,0.02s0-0.02,0.02-0.05c0-0.01,0.01-0.02,0.01-0.03
						l0,0l0,0l0,0l0.17-0.16l0,0l0,0l0,0l0,0h0.01c0.01,0,0.03-0.01,0.04-0.02c0.03-0.01,0.07-0.02,0.1-0.04l0.4,0.18
						c-0.81-0.37-0.22-0.1-0.4-0.18l0,0l0,0l0,0l0,0l0,0l0,0h-0.01h-0.01c-0.01,0-0.01,0.01-0.02,0.01c-0.01,0-0.02,0.01-0.02,0.01
						s0.01-0.01,0.04-0.02h0.01h0.01c-0.09-0.04,0.77,0.35,0.41,0.19l0,0l0,0l0,0l0,0l0,0l0,0c0,0.01,0.01,0.02,0.01,0.03
						c0.01,0.02,0.02,0.04,0,0.01c-0.01-0.01-0.01-0.02-0.04-0.05c-0.02-0.02-0.06-0.05-0.1-0.06c-0.09-0.02-0.12-0.01-0.13-0.01
						c-0.01,0,0.03-0.01,0.06-0.02l0.1-0.04l0.28,0.17c0.02,0.01,0.17,0.18,0.48,0.43c0.31,0.25,0.75,0.57,1.27,0.92
						c1.03,0.71,2.34,1.53,3.39,2.19c1.22,0.78,2.78,1.8,4.07,2.53c0.64,0.36,1.22,0.66,1.64,0.81c0.21,0.08,0.37,0.12,0.46,0.14
						c0.09,0.01,0.11,0.01,0.11,0.01s0.01,0.01,0.02,0.03c0.01,0.02,0.01,0.04,0.03,0.06c0.03,0.05,0.08,0.1,0.13,0.16
						c0.04,0.06,0.08,0.13,0.07,0.19c-0.01,0.07-0.04,0.13-0.11,0.15c0,0-0.03,0.01-0.08,0.02c-0.06,0.01-0.12,0.01-0.21,0.01
						c-0.17,0-0.38-0.04-0.62-0.1c-0.49-0.13-1.13-0.37-1.83-0.68c-1.4-0.62-3.06-1.53-4.31-2.33c-1.07-0.68-2.34-1.61-3.33-2.43
						c-0.5-0.41-0.92-0.8-1.22-1.12c-0.3-0.31-0.48-0.58-0.5-0.66l0.38,0.13c-0.04,0.01-0.06,0.02-0.13,0.04
						c-0.03,0.01-0.1,0.03-0.22-0.01c-0.05-0.01-0.11-0.06-0.14-0.08c-0.04-0.04-0.05-0.05-0.06-0.08c-0.04-0.07-0.05-0.1-0.06-0.12
						c0-0.01-0.01-0.02-0.01-0.03l0,0l0,0l0,0l0,0l0,0l0,0c-0.36-0.17,0.5,0.23,0.41,0.19h-0.01h-0.01
						c-0.03,0.01-0.05,0.02-0.05,0.02s0.01,0,0.02-0.01c0.01,0,0.01,0,0.02-0.01h0.01h0.01l0,0l0,0l0,0l0,0l0,0l0,0
						c-0.18-0.08,0.4,0.18-0.4-0.18l0.4,0.18c-0.04,0.01-0.07,0.03-0.1,0.04c-0.02,0.01-0.03,0.01-0.04,0.02h-0.01l0,0l0,0l0,0l0,0
						l0.17-0.16l0,0l0,0l0,0c-0.02-0.01-0.03-0.01-0.03-0.01s0.01,0,0.02,0.01c0.01,0,0.01,0,0.01,0l0,0l0,0l0,0l0,0l0,0l0,0l0,0
						l-0.17,0.16l0.17-0.16l0,0l-0.03-0.01c-0.01,0-0.01,0-0.02,0c-0.01,0,0,0,0,0c-0.01,0,0.08-0.01,0.06,0
						c0,0.01,0.02,0.06,0.04,0.1c0.03,0.09,0.05,0.18,0.06,0.23c0.01,0.11,0.01,0.12,0.01,0.12
						C138.63,159.73,138.12,159.6,138.09,159.52z"/>
				</g>
			</g>
		</g>
		<g>
			<g>
				<g>
					<path class="st12" d="M125.4,170.99c0,0,0.05,0,0.16,0.01c0.05,0.01,0.12,0.01,0.19,0.02c0.07,0.01,0.16,0.03,0.25,0.05
						c0.38,0.09,0.91,0.29,1.48,0.66c0.57,0.36,1.19,0.87,1.86,1.41c0.69,0.54,1.45,1.13,2.26,1.76c1.6,1.31,3.35,2.84,5.01,4.43
						c1.67,1.59,3.28,3.2,4.69,4.62c2.81,2.85,6.38,6.48,9.58,9.02c0.2,0.16,0.39,0.32,0.58,0.48c0.19,0.15,0.39,0.29,0.58,0.44
						c0.38,0.28,0.74,0.56,1.09,0.82c0.7,0.5,1.35,0.92,1.88,1.28c0.54,0.34,0.99,0.59,1.29,0.78c0.3,0.18,0.47,0.28,0.47,0.28
						c0.36,0.22,0.08,0.73-0.29,0.54c0,0-0.17-0.09-0.49-0.26c-0.31-0.17-0.78-0.41-1.34-0.74c-0.55-0.35-1.22-0.75-1.96-1.23
						c-0.36-0.25-0.74-0.51-1.14-0.79c-0.2-0.14-0.4-0.28-0.61-0.42c-0.2-0.15-0.4-0.31-0.61-0.46c-1.67-1.23-3.43-2.76-5.13-4.31
						c-1.7-1.55-3.32-3.17-4.74-4.59c-1.41-1.43-3-3.06-4.61-4.67c-1.62-1.62-3.29-3.18-4.83-4.53c-0.39-0.33-0.77-0.65-1.13-0.95
						c-0.18-0.15-0.36-0.3-0.54-0.45c-0.18-0.15-0.36-0.3-0.52-0.44c-0.66-0.58-1.22-1.08-1.73-1.43c-0.51-0.35-0.95-0.54-1.26-0.62
						c-0.08-0.02-0.15-0.04-0.21-0.05c-0.06-0.01-0.11-0.02-0.15-0.02c-0.08-0.01-0.12-0.02-0.12-0.02
						C125,171.54,124.91,171.03,125.4,170.99z"/>
				</g>
			</g>
		</g>
		<g>
			<g>
				<g>
					<path class="st54" d="M141.01,151.49c0,0,0.17-0.03,0.45-0.07c0.28-0.03,0.68-0.07,1.13-0.07c0.9-0.01,2.02,0.12,2.86,0.3
						c0.84,0.19,1.87,0.52,2.69,0.78c0.41,0.13,0.77,0.24,1.03,0.31c0.26,0.07,0.41,0.11,0.41,0.11c0.09,0.03,0,0.6-0.09,0.6
						c0,0-0.17-0.01-0.45-0.03c-0.28-0.03-0.67-0.07-1.1-0.13c-0.87-0.13-1.94-0.33-2.75-0.5c-0.81-0.18-1.83-0.44-2.66-0.56
						c-0.42-0.06-0.78-0.1-1.05-0.12c-0.26-0.01-0.42-0.02-0.42-0.02C140.97,152.05,140.92,151.54,141.01,151.49z"/>
				</g>
			</g>
		</g>
		<g>
			<g>
				<g>
					<path class="st54" d="M132.21,165.23c0,0,0.56,0.27,1.27,0.67c0.71,0.4,1.58,0.91,2.23,1.35c0.65,0.45,1.43,1.06,2.07,1.55
						c0.64,0.49,1.13,0.84,1.13,0.84c0.07,0.05-0.21,0.56-0.3,0.53c0,0-0.58-0.24-1.31-0.62c-0.73-0.38-1.61-0.88-2.26-1.33
						c-0.65-0.45-1.44-1.08-2.06-1.59c-0.63-0.51-1.1-0.9-1.1-0.9C131.84,165.65,132.12,165.22,132.21,165.23z"/>
				</g>
			</g>
		</g>
		<g>
			<g>
				<g>
					<path class="st54" d="M143.82,130.12c0,0,0.57-0.15,1.32-0.37s1.68-0.5,2.42-0.68c0.74-0.17,1.7-0.34,2.47-0.47
						c0.38-0.07,0.72-0.13,0.96-0.17c0.12-0.02,0.21-0.04,0.28-0.05c0.06-0.01,0.1-0.02,0.1-0.02c0.07-0.01,0.28,0.53,0.2,0.57
						c0,0-0.04,0.02-0.1,0.05c-0.06,0.03-0.16,0.07-0.28,0.12c-0.23,0.1-0.56,0.22-0.93,0.36c-0.75,0.27-1.68,0.58-2.43,0.76
						c-0.75,0.18-1.73,0.32-2.52,0.4c-0.79,0.09-1.4,0.1-1.4,0.1C143.82,130.68,143.75,130.17,143.82,130.12z"/>
				</g>
			</g>
		</g>
	</g>
	<path class="st54" d="M146.1,48.2l6.65,2.77l0.92-7.15l0.92,7.16l6.64-2.77l-5.72,4.37l5.73,4.37l-6.65-2.78l-0.92,7.16l-0.93-7.15
		l-6.64,2.77l5.72-4.37L146.1,48.2z"/>
	<path class="st55" d="M23.36,155.71l6.65,2.77l0.92-7.15l0.92,7.16l6.64-2.77l-5.72,4.37l5.73,4.37l-6.65-2.78l-0.92,7.16
		L30,161.69l-6.64,2.77l5.72-4.37L23.36,155.71z"/>
	<path class="st55" d="M35.04,9.57l3.33,1.39l0.46-3.58l0.46,3.58l3.32-1.39l-2.86,2.18l2.86,2.19l-3.33-1.39l-0.46,3.58l-0.46-3.58
		l-3.32,1.39l2.86-2.19L35.04,9.57z"/>
	<path class="st54" d="M135.13,132.94l3.33,1.39l0.46-3.58l0.46,3.58l3.32-1.39l-2.86,2.18l2.86,2.19l-3.33-1.39l-0.46,3.58
		l-0.46-3.58l-3.32,1.39l2.86-2.19L135.13,132.94z"/>
</g>
</svg>
