<?xml version="1.0" encoding="utf-8"?>
<!-- Generator: Adobe Illustrator 25.2.1, SVG Export Plug-In . SVG Version: 6.00 Build 0)  -->
<svg version="1.1" id="Layer_1" xmlns="http://www.w3.org/2000/svg" xmlns:xlink="http://www.w3.org/1999/xlink" x="0px" y="0px"
	 viewBox="0 0 180 327.57" style="enable-background:new 0 0 180 327.57;" xml:space="preserve">
<style type="text/css">
	.st0{fill:#9BB5DF;}
	.st1{fill:#F5C117;}
	.st2{fill:#BD2926;}
	.st3{fill:#381F23;}
	.st4{fill:#D9B028;}
	.st5{fill:#CA9A2C;}
	.st6{fill:#B7872D;}
	.st7{fill:#333333;}
	.st8{fill:#FDF49A;}
	.st9{fill:#F9E86F;}
	.st10{fill:#EB9E22;}
	.st11{fill:#EBC424;}
	.st12{fill:#010101;}
	.st13{fill:#B49930;}
	.st14{fill:#F3C423;}
	.st15{fill:#010201;}
	.st16{fill-rule:evenodd;clip-rule:evenodd;}
	.st17{fill:#1A1B1B;}
	.st18{fill:#FDFDFD;}
	.st19{fill-rule:evenodd;clip-rule:evenodd;fill:url(#SVGID_1_);}
	.st20{fill:#23292D;}
	.st21{fill:#DD9C27;}
	.st22{fill:#F2664F;}
	.st23{fill:url(#SVGID_2_);}
	.st24{fill:url(#SVGID_3_);}
	.st25{fill:url(#SVGID_4_);}
	.st26{fill:url(#SVGID_5_);}
	.st27{fill:url(#SVGID_6_);}
	.st28{fill:url(#SVGID_7_);}
	.st29{fill:url(#SVGID_8_);}
	.st30{fill:url(#SVGID_9_);}
	.st31{fill:url(#SVGID_10_);}
	.st32{fill:url(#SVGID_11_);}
	.st33{fill:none;stroke:#D9B028;stroke-width:3;stroke-miterlimit:10;}
	.st34{opacity:0.19;}
	.st35{stroke:#000000;stroke-width:3;stroke-miterlimit:10;}
	.st36{fill:#FAA82F;}
	.st37{opacity:0.42;}
	.st38{opacity:0.1091;}
	.st39{fill:#FEBC16;}
	.st40{fill:#E43C7D;}
	.st41{fill:#FFFFFF;}
	.st42{fill:#E7B831;}
	.st43{fill:#AB7136;}
	.st44{fill:none;stroke:#010101;stroke-miterlimit:10;}
	.st45{fill:#8CB5D7;}
	.st46{fill:#F5C117;stroke:#000000;stroke-miterlimit:10;}
	.st47{fill:none;stroke:#010101;stroke-width:0.75;stroke-miterlimit:10;}
	.st48{fill:none;stroke:#010101;stroke-width:0.5;stroke-miterlimit:10;}
	.st49{fill:none;stroke:#F5C117;stroke-miterlimit:10;}
	.st50{fill:#F2664F;stroke:#000000;stroke-miterlimit:10;}
	.st51{stroke:#010101;stroke-miterlimit:10;}
	.st52{fill:#231F20;}
	.st53{fill:#E7B82F;}
	.st54{fill:#B39A32;}
	.st55{fill:#D9B128;}
</style>
<g>
	<g>
		<g>
			<path class="st1" d="M94.53,41.07L84.03,4.51c-0.23-0.79,0.23-1.58,0.99-1.81l0,0c0.79-0.23,1.58,0.23,1.81,0.99L97.3,40.26
				c0.23,0.79-0.23,1.58-0.99,1.81l0,0C95.55,42.3,94.73,41.83,94.53,41.07z"/>
		</g>
	</g>
	<g>
		<g>
		</g>
		<path class="st1" d="M154.53,235.27c-3.33-5.76-6.78-11.69-9.85-19.49c-11.46-29.2-10.05-93.84-10.02-94.49l0.03-1.49h-0.07
			c-0.33-4.34-1.53-6.24-2.2-7.25c-0.03,0-0.03-0.03-0.03-0.03c0.3-0.35,0.85-0.84,1.43-1.29c2.77-0.17,4.98-2.44,4.98-5.26
			c0-2.92-2.37-5.29-5.29-5.29H102.6c-2.92,0-5.29,2.37-5.29,5.29c0,2.85,2.26,5.15,5.08,5.27c0.57,0.44,1.12,0.93,1.41,1.28
			c-0.03,0-0.03,0.03-0.03,0.03c-0.67,1.01-1.89,2.87-2.21,7.25h-0.12l0.03,1.49c0,0.64,1.43,65.29-10.02,94.49
			c-3.07,7.77-6.52,13.74-9.85,19.49c-9.29,16.05-18.09,31.21-15.49,81.77l0.06,1.37h103.78l0.09-1.37
			C172.62,266.45,163.82,251.32,154.53,235.27z M102.6,103.61h30.89c1.32,0,2.37,1.05,2.37,2.37c0,1.32-1.05,2.37-2.37,2.37H102.6
			c-1.32,0-2.37-1.05-2.37-2.37C100.23,104.66,101.28,103.61,102.6,103.61z M106.22,114.16c0.32-0.5,0.64-0.99,0.64-1.67
			c0-0.2,0-0.61-0.38-1.23h23.18c-0.38,0.64-0.38,1.02-0.38,1.23c0,0.67,0.32,1.17,0.64,1.67c0.56,0.82,1.43,2.19,1.72,5.64h-27.18
			C104.73,116.32,105.64,114.98,106.22,114.16z M167.16,315.5H68.93c-2.31-48.57,6.2-63.25,15.2-78.76
			c3.39-5.85,6.93-11.9,10.05-19.9c4.88-12.51,8.1-32.41,9.53-59.15c0.88-16.4,0.76-30.45,0.7-34.95h27.3
			c-0.06,4.47-0.18,18.56,0.7,34.95c1.4,26.74,4.62,46.64,9.53,59.15c3.16,8.01,6.66,14.06,10.05,19.9
			C160.99,252.25,169.49,266.89,167.16,315.5z"/>
		<g>
			<path class="st33" d="M151.7,233.34l-9.44-19.84c-24.75,9.44-48.43,0-48.43,0l-9.44,19.84
				C125.48,248.6,151.7,233.34,151.7,233.34z"/>
			<path class="st33" d="M148.13,258.24c-27.88,8.94-58.45,0.96-58.45,0.96c-8.91,23.76-4.88,57.75-4.88,57.78h67.66
				C155.93,280.07,148.13,258.24,148.13,258.24z"/>
		</g>
		<polygon class="st1" points="127.55,245.44 108.47,245.38 98.97,228.84 108.56,212.33 127.64,212.39 137.14,228.96 		"/>
	</g>
	<g>
		<path class="st1" d="M116.74,60.91l-0.29-59.45c0-0.82,0.64-1.46,1.46-1.46l0,0c0.82,0,1.46,0.64,1.46,1.46l0.29,59.45
			c0,0.82-0.64,1.46-1.46,1.46l0,0C117.38,62.37,116.74,61.73,116.74,60.91z"/>
	</g>
	<g>
		<path class="st1" d="M118.2,85.34L118.2,85.34c-0.82,0-1.46-0.64-1.46-1.46V72.25c0-0.82,0.64-1.46,1.46-1.46l0,0
			c0.82,0,1.46,0.64,1.46,1.46v11.63C119.66,84.7,118.99,85.34,118.2,85.34z"/>
	</g>
	<g>
		<g>
			<path class="st1" d="M108.47,86.01l-1.37-4.82c-0.23-0.79,0.23-1.58,0.99-1.81l0,0c0.79-0.23,1.58,0.23,1.81,0.99l1.37,4.82
				c0.23,0.79-0.23,1.58-0.99,1.81l0,0C109.49,87.24,108.67,86.77,108.47,86.01z"/>
		</g>
	</g>
	<g>
		<path class="st1" d="M104.47,72.28l-7.04-24.61c-0.23-0.79,0.23-1.58,0.99-1.81l0,0c0.79-0.23,1.58,0.23,1.81,0.99l7.04,24.61
			c0.23,0.79-0.23,1.58-0.99,1.81l0,0C105.52,73.5,104.7,73.07,104.47,72.28z"/>
	</g>
	<g>
		<g>
			<path class="st1" d="M124.92,87.09L124.92,87.09c-0.79-0.23-1.23-1.02-0.99-1.81l1.37-4.82c0.23-0.79,1.02-1.23,1.81-0.99l0,0
				c0.79,0.23,1.23,1.02,0.99,1.81l-1.37,4.82C126.5,86.86,125.68,87.3,124.92,87.09z"/>
		</g>
	</g>
	<g>
		<path class="st1" d="M128.9,73.36L128.9,73.36c-0.79-0.23-1.23-1.02-0.99-1.81l7.04-24.61c0.23-0.79,1.02-1.23,1.81-0.99l0,0
			c0.79,0.23,1.23,1.02,0.99,1.81l-7.04,24.61C130.48,73.12,129.69,73.59,128.9,73.36z"/>
	</g>
	<g>
		<path class="st1" d="M138.46,40.3L138.46,40.3c-0.79-0.23-1.23-1.02-0.99-1.81l10.46-36.56c0.23-0.79,1.02-1.23,1.81-0.99l0,0
			c0.79,0.23,1.23,1.02,0.99,1.81l-10.46,36.56C140.03,40.1,139.22,40.54,138.46,40.3z"/>
	</g>
</g>
<path class="st1" d="M102.6,103.61h30.89c1.32,0,2.37,1.05,2.37,2.37c0,1.32-1.05,2.37-2.37,2.37H102.6c-1.32,0-2.37-1.05-2.37-2.37
	C100.23,104.66,101.28,103.61,102.6,103.61z"/>
<g>
	<path class="st1" d="M13.72,131.69c0.88,0,1.61,0.1,2.19,0.31c0.58,0.21,1.01,0.45,1.28,0.71c0.28,0.26,0.48,0.65,0.62,1.15
		c0.14,0.5,0.2,0.94,0.19,1.3c-0.01,0.36-0.04,0.88-0.08,1.55c-0.04,0.67-0.06,1.16-0.06,1.46c0,0.36-0.02,1-0.06,1.9
		c-0.04,0.91-0.06,1.65-0.06,2.22c0,0.57,0.04,1.19,0.12,1.84c0.08,0.66,0.26,1.15,0.54,1.49c0.28,0.33,0.65,0.5,1.11,0.5
		c0.3,0,0.58-0.04,0.83-0.13c0.25-0.08,0.45-0.24,0.62-0.46c0.16-0.22,0.31-0.44,0.43-0.65c0.12-0.21,0.23-0.5,0.31-0.88
		c0.08-0.38,0.15-0.7,0.19-0.98c0.04-0.28,0.07-0.67,0.08-1.17c0.01-0.5,0.02-0.89,0.02-1.17s0-0.7,0-1.26
		c0-0.31-0.01-0.79-0.02-1.44c-0.01-0.65-0.02-1.18-0.02-1.57c0-0.39,0.02-0.86,0.06-1.42c0.04-0.56,0.13-1,0.27-1.34
		c0.14-0.33,0.32-0.67,0.56-1c0.23-0.33,0.56-0.58,0.99-0.73c0.43-0.15,0.92-0.23,1.47-0.23c0.99,0,1.79,0.08,2.4,0.23
		c0.61,0.15,1.03,0.4,1.26,0.75c0.23,0.35,0.37,0.65,0.41,0.92c0.04,0.27,0.06,0.68,0.06,1.23v19.24c0,0.08,0,0.2,0,0.33
		c0,0.59,0,1.07,0,1.44c0,0.38-0.02,0.94-0.06,1.69c-0.04,0.75-0.11,1.38-0.21,1.88c-0.1,0.5-0.24,1.07-0.43,1.71
		c-0.19,0.64-0.43,1.16-0.7,1.57s-0.63,0.74-1.05,1c-0.43,0.27-0.92,0.4-1.47,0.4c-0.8,0-1.47-0.15-2.02-0.46s-0.98-0.68-1.28-1.13
		c-0.3-0.45-0.53-1.07-0.68-1.88c-0.15-0.81-0.25-1.55-0.29-2.22c-0.04-0.67-0.06-1.56-0.06-2.68c0-1.45-0.09-2.56-0.27-3.33
		c-0.18-0.77-0.4-1.24-0.66-1.42c-0.26-0.18-0.64-0.27-1.14-0.27c-0.55,0-0.89,0.45-1.03,1.36c-0.14,0.91-0.21,2.41-0.21,4.5
		c0,5.02-1.31,7.53-3.92,7.53c-1.18,0-2.13-0.46-2.83-1.38c-0.7-0.92-1.26-2.69-1.67-5.31c-0.41-2.62-0.63-6.25-0.66-10.88
		c0-2.01,0.03-3.77,0.1-5.29c0.07-1.52,0.17-2.81,0.29-3.87c0.12-1.06,0.3-1.95,0.54-2.66c0.23-0.71,0.46-1.27,0.68-1.67
		c0.22-0.4,0.53-0.7,0.93-0.9s0.76-0.32,1.09-0.38C12.72,131.72,13.16,131.69,13.72,131.69z"/>
	<path class="st1" d="M40.53,146.62c0.77,0,1.47,0.1,2.09,0.29c0.62,0.2,1.1,0.44,1.44,0.73c0.34,0.29,0.63,0.58,0.87,0.86
		c0.23,0.28,0.38,0.52,0.43,0.71l0.12,0.29c0.03-0.08,0.08-0.19,0.14-0.31c0.07-0.13,0.21-0.35,0.41-0.67
		c0.21-0.32,0.42-0.61,0.64-0.86c0.22-0.25,0.49-0.48,0.81-0.69c0.32-0.21,0.63-0.33,0.93-0.36l1.78-0.04
		c0.39,0,0.61,1.05,0.68,3.14c0.07,2.09,0.06,4.24-0.04,6.46s-0.06,4,0.1,5.33c0,0.5-0.02,0.88-0.06,1.13s-0.12,0.51-0.25,0.77
		c-0.12,0.26-0.34,0.45-0.64,0.56s-0.7,0.17-1.2,0.17c-0.91,0-1.64-0.1-2.19-0.29c-0.55-0.19-0.96-0.52-1.24-0.98
		c-0.28-0.46-0.45-0.96-0.54-1.51c-0.08-0.54-0.12-1.29-0.12-2.24c0,0.56-0.1,1.12-0.31,1.67c-0.21,0.56-0.52,1.1-0.95,1.63
		c-0.43,0.53-1.04,0.95-1.84,1.27c-0.8,0.32-1.73,0.48-2.81,0.48c-2.2,0-3.75-0.76-4.63-2.28c-0.88-1.52-1.32-3.84-1.32-6.96
		c0-1.53,0.11-2.8,0.33-3.79c0.22-0.99,0.62-1.84,1.2-2.55c0.58-0.71,1.36-1.22,2.35-1.53C37.72,146.77,38.99,146.62,40.53,146.62z
		 M41.36,148.25c-0.77,0-1.38,0.56-1.82,1.67c-0.44,1.12-0.66,2.37-0.66,3.76c0,0.75,0.03,1.51,0.08,2.28
		c0.05,0.77,0.16,1.58,0.33,2.45c0.16,0.86,0.41,1.56,0.74,2.09c0.33,0.53,0.74,0.8,1.24,0.8c0.33,0,0.66-0.2,0.99-0.61
		c0.33-0.4,0.65-1,0.95-1.78c0.3-0.78,0.55-1.84,0.74-3.18c0.19-1.34,0.29-2.86,0.29-4.56c-0.03-0.08-0.08-0.19-0.14-0.31
		c-0.07-0.13-0.2-0.36-0.39-0.69c-0.19-0.33-0.4-0.63-0.62-0.9c-0.22-0.26-0.49-0.5-0.8-0.71
		C41.97,148.36,41.66,148.25,41.36,148.25z"/>
	<path class="st1" d="M60.16,147.18c0.61,0.49,0.91,1.39,0.91,2.7c1.05-1.03,2.38-1.85,4.01-2.45c1.62-0.6,3.32-0.9,5.08-0.9
		c0.69,0,1.28,0.12,1.78,0.36c0.5,0.24,0.91,0.59,1.24,1.07c0.33,0.47,0.6,1,0.81,1.57c0.21,0.57,0.36,1.28,0.47,2.11
		s0.18,1.62,0.21,2.36c0.03,0.74,0.04,1.62,0.04,2.66c0,2.59-0.68,4.52-2.04,5.77c-1.36,1.25-3.24,1.88-5.64,1.88
		c-0.39,0-0.75-0.02-1.09-0.06c-0.34-0.04-0.63-0.08-0.87-0.13c-0.23-0.04-0.49-0.13-0.78-0.27c-0.29-0.14-0.51-0.24-0.66-0.29
		c-0.15-0.06-0.37-0.19-0.66-0.42c-0.29-0.22-0.48-0.37-0.58-0.44c-0.1-0.07-0.31-0.25-0.64-0.54c-0.33-0.29-0.55-0.48-0.66-0.56
		c0,0.56,0.01,1.51,0.04,2.87c0.03,1.35,0.04,2.5,0.04,3.43c0,0.93-0.03,1.62-0.08,2.07c-0.03,1.03-0.06,2.05-0.08,3.05
		c-0.03,1-0.08,1.9-0.17,2.68c-0.08,0.78-0.42,1.41-1.01,1.88c-0.59,0.47-1.47,0.71-2.62,0.71c-0.49,0.03-0.92-0.12-1.26-0.44
		c-0.34-0.32-0.61-0.8-0.81-1.44c-0.19-0.64-0.34-1.3-0.45-1.99c-0.11-0.69-0.17-1.52-0.19-2.51c-0.01-0.99-0.02-1.87-0.02-2.64
		c0-0.77,0.01-1.69,0.04-2.76c0.03-1.07,0.04-1.9,0.04-2.49c0-0.59-0.01-1.47-0.04-2.66c-0.03-1.18-0.05-2.26-0.06-3.22
		c-0.01-0.96-0.02-2.06-0.02-3.28c0-1.23,0.04-2.3,0.12-3.22c0.08-0.92,0.2-1.79,0.35-2.61c0.15-0.82,0.36-1.46,0.64-1.9
		c0.28-0.45,0.62-0.67,1.03-0.67C58.35,146.45,59.55,146.7,60.16,147.18z M63.65,149.69c-1.01,0.54-1.8,1.23-2.37,2.07
		c0.03,0.56,0,1.74-0.08,3.56s-0.12,3.07-0.12,3.76c0.28,0.19,0.74,0.59,1.4,1.19c0.66,0.6,1.25,1.08,1.76,1.44
		c0.51,0.36,0.93,0.54,1.26,0.54c0.8,0,1.37-0.5,1.71-1.51c0.34-1,0.52-2.59,0.52-4.77c0-0.06,0-0.15,0-0.29
		c0-2.48-0.08-4.24-0.25-5.27c-0.16-1.03-0.62-1.55-1.36-1.55C65.47,148.88,64.65,149.15,63.65,149.69z"/>
	<path class="st1" d="M83.91,147.18c0.61,0.49,0.91,1.39,0.91,2.7c1.05-1.03,2.38-1.85,4.01-2.45c1.62-0.6,3.32-0.9,5.08-0.9
		c0.69,0,1.28,0.12,1.78,0.36c0.5,0.24,0.91,0.59,1.24,1.07c0.33,0.47,0.6,1,0.81,1.57c0.21,0.57,0.36,1.28,0.47,2.11
		s0.18,1.62,0.21,2.36c0.03,0.74,0.04,1.62,0.04,2.66c0,2.59-0.68,4.52-2.04,5.77c-1.36,1.25-3.24,1.88-5.64,1.88
		c-0.39,0-0.75-0.02-1.09-0.06c-0.34-0.04-0.63-0.08-0.87-0.13c-0.23-0.04-0.49-0.13-0.78-0.27c-0.29-0.14-0.51-0.24-0.66-0.29
		c-0.15-0.06-0.37-0.19-0.66-0.42c-0.29-0.22-0.48-0.37-0.58-0.44c-0.1-0.07-0.31-0.25-0.64-0.54c-0.33-0.29-0.55-0.48-0.66-0.56
		c0,0.56,0.01,1.51,0.04,2.87c0.03,1.35,0.04,2.5,0.04,3.43c0,0.93-0.03,1.62-0.08,2.07c-0.03,1.03-0.06,2.05-0.08,3.05
		c-0.03,1-0.08,1.9-0.17,2.68c-0.08,0.78-0.42,1.41-1.01,1.88c-0.59,0.47-1.47,0.71-2.62,0.71c-0.49,0.03-0.92-0.12-1.26-0.44
		c-0.34-0.32-0.61-0.8-0.81-1.44c-0.19-0.64-0.34-1.3-0.45-1.99c-0.11-0.69-0.17-1.52-0.19-2.51c-0.01-0.99-0.02-1.87-0.02-2.64
		c0-0.77,0.01-1.69,0.04-2.76c0.03-1.07,0.04-1.9,0.04-2.49c0-0.59-0.01-1.47-0.04-2.66c-0.03-1.18-0.05-2.26-0.06-3.22
		c-0.01-0.96-0.02-2.06-0.02-3.28c0-1.23,0.04-2.3,0.12-3.22c0.08-0.92,0.2-1.79,0.35-2.61c0.15-0.82,0.36-1.46,0.64-1.9
		c0.28-0.45,0.62-0.67,1.03-0.67C82.11,146.45,83.31,146.7,83.91,147.18z M87.4,149.69c-1.01,0.54-1.8,1.23-2.37,2.07
		c0.03,0.56,0,1.74-0.08,3.56c-0.08,1.81-0.12,3.07-0.12,3.76c0.28,0.19,0.74,0.59,1.4,1.19c0.66,0.6,1.25,1.08,1.76,1.44
		c0.51,0.36,0.93,0.54,1.26,0.54c0.8,0,1.37-0.5,1.71-1.51c0.34-1,0.52-2.59,0.52-4.77c0-0.06,0-0.15,0-0.29
		c0-2.48-0.08-4.24-0.25-5.27c-0.16-1.03-0.62-1.55-1.36-1.55C89.23,148.88,88.41,149.15,87.4,149.69z"/>
	<path class="st1" d="M105.32,146.45c1.02,0,1.83,0.38,2.44,1.15c0.61,0.77,0.98,1.71,1.14,2.84c0.15,1.13,0.25,2.36,0.29,3.7
		c0.04,1.34,0.05,2.58,0.02,3.72c-0.03,1.14,0.07,2.1,0.29,2.87c0.22,0.77,0.58,1.15,1.07,1.15c1.13,0.03,2.05-0.67,2.77-2.09
		c0.72-1.42,1.07-3.36,1.07-5.81c0-0.39-0.01-0.91-0.02-1.55c-0.01-0.64-0.03-1.11-0.04-1.42c-0.01-0.31-0.01-0.7,0.02-1.17
		c0.03-0.47,0.07-0.83,0.14-1.07c0.07-0.24,0.17-0.51,0.31-0.82c0.14-0.31,0.32-0.53,0.54-0.67c0.22-0.14,0.5-0.29,0.83-0.44
		s0.72-0.26,1.18-0.31c0.45-0.06,0.97-0.08,1.55-0.08c0.63,0,1.16,0.25,1.59,0.75c0.43,0.5,0.74,1.21,0.95,2.11
		c0.21,0.91,0.35,1.89,0.43,2.95c0.08,1.06,0.11,2.25,0.08,3.58s-0.07,2.54-0.12,3.66s-0.11,2.29-0.16,3.53
		c-0.06,1.24-0.08,2.21-0.08,2.91c0,1.2-0.14,2.41-0.41,3.62c-0.28,1.21-0.7,2.39-1.28,3.53c-0.58,1.14-1.27,2.16-2.09,3.05
		c-0.81,0.89-1.8,1.6-2.95,2.13c-1.16,0.53-2.41,0.8-3.76,0.8c-3.14,0-5.44-1.2-6.9-3.6c-1.07-1.79-1.38-3.58-0.91-5.4
		c0.41-1.56,1.27-2.45,2.56-2.68c0.11,0,0.21-0.01,0.29-0.04c1.02-0.08,1.8,0.08,2.35,0.48c0.55,0.4,0.87,0.94,0.97,1.61
		c0.1,0.67,0.14,1.4,0.14,2.2c0,0.8-0.02,1.54-0.06,2.24c-0.04,0.7,0.08,1.28,0.35,1.76c0.28,0.47,0.73,0.71,1.36,0.71
		c2.01,0,3.28-4.09,3.8-12.26c0.11-1.81,0.17-3.51,0.17-5.1c0,1.31-0.8,2.58-2.4,3.81c-1.6,1.23-3.22,1.84-4.87,1.84
		c-1.79,0-3.23-0.66-4.32-1.99s-1.63-3.38-1.63-6.17c0-0.56-0.01-1.26-0.04-2.09c-0.03-0.84-0.04-1.49-0.04-1.97
		c0-0.47,0.01-1.03,0.02-1.67c0.01-0.64,0.06-1.14,0.15-1.51c0.08-0.36,0.2-0.75,0.35-1.15c0.15-0.4,0.35-0.71,0.6-0.92
		c0.25-0.21,0.56-0.38,0.93-0.52C104.34,146.52,104.79,146.45,105.32,146.45z"/>
</g>
<g>
	<g>
		<path class="st1" d="M29.08,213.5c-0.58,0-1.08-0.07-1.51-0.21c-0.43-0.14-0.77-0.38-1.03-0.73c-0.26-0.35-0.46-0.75-0.6-1.19
			c-0.14-0.45-0.23-1.02-0.27-1.71c-0.04-0.7-0.06-1.42-0.04-2.16c0.01-0.74,0.05-1.63,0.12-2.68c0.07-1.05,0.13-2.07,0.19-3.07
			c0.05-1,0.11-2.19,0.16-3.55c0.06-1.37,0.08-2.69,0.08-3.97c0-2.2,0.05-4,0.15-5.4c0.1-1.39,0.25-2.64,0.47-3.72
			c0.22-1.09,0.55-1.9,0.99-2.45c0.44-0.54,0.99-0.95,1.65-1.21c0.66-0.26,1.49-0.41,2.48-0.44c1.07,0,2.15,0.79,3.24,2.38
			c1.09,1.59,2.04,3.52,2.85,5.79c0.81,2.27,1.54,4.55,2.19,6.82c0.65,2.27,1.19,4.2,1.63,5.79c0.44,1.59,0.73,2.38,0.87,2.38
			c0.25,0,0.37-0.49,0.37-1.49c0-0.99-0.06-2.48-0.19-4.47s-0.19-3.6-0.19-4.83c0-0.42-0.01-1.06-0.02-1.92
			c-0.01-0.86-0.03-1.57-0.04-2.11c-0.01-0.54,0-1.22,0.04-2.03c0.04-0.81,0.11-1.47,0.21-1.99c0.1-0.52,0.26-1.07,0.49-1.67
			c0.23-0.6,0.52-1.07,0.87-1.4c0.34-0.33,0.78-0.62,1.32-0.86c0.54-0.24,1.15-0.36,1.84-0.36c0.8,0,1.47,0.23,2.02,0.69
			c0.55,0.46,0.96,1.12,1.22,1.99c0.26,0.87,0.45,1.81,0.58,2.82c0.12,1.02,0.18,2.22,0.17,3.6c-0.01,1.38-0.06,2.66-0.12,3.85
			c-0.07,1.19-0.14,2.53-0.21,4.04c-0.07,1.51-0.1,2.75-0.1,3.72c0,0.39,0,0.95,0,1.67c0.03,0.81,0.03,1.55,0.02,2.24
			c-0.01,0.68-0.03,1.33-0.04,1.92c-0.01,0.6-0.06,1.14-0.12,1.63c-0.07,0.49-0.16,0.93-0.27,1.34c-0.11,0.4-0.25,0.77-0.41,1.09
			c-0.17,0.32-0.37,0.6-0.62,0.84c-0.25,0.24-0.54,0.42-0.87,0.56c-0.33,0.14-0.72,0.25-1.16,0.33c-0.44,0.08-0.94,0.13-1.49,0.13
			c-2.73,0-6.51-6.43-11.36-19.28c-0.88-2.34-1.35-3.51-1.4-3.51c-0.08,6.08-0.23,11.71-0.45,16.9c-0.11,2.43-0.4,4.02-0.87,4.77
			C31.46,213.12,30.52,213.5,29.08,213.5z"/>
		<path class="st1" d="M67.79,206.89c0.25-0.03,0.57-0.07,0.97-0.13c0.4-0.06,1.02-0.13,1.86-0.21c0.84-0.08,1.54-0.1,2.11-0.04
			c0.56,0.06,0.85,0.18,0.85,0.38c0,4.52-3.04,6.78-9.13,6.78c-1.95,0-3.52-0.13-4.71-0.4c-1.18-0.26-2.18-0.75-2.99-1.44
			c-0.81-0.7-1.38-1.63-1.69-2.8c-0.32-1.17-0.48-2.72-0.48-4.64c0-5.58,3.03-8.37,9.09-8.37c1.07,0,2,0.02,2.77,0.06
			s1.56,0.11,2.35,0.21c0.8,0.1,1.47,0.24,2,0.44c0.54,0.19,1.03,0.44,1.49,0.73c0.45,0.29,0.78,0.67,0.99,1.13
			c0.21,0.46,0.31,1,0.31,1.61c0,0.89-0.42,1.68-1.26,2.36c-0.84,0.68-1.85,1.19-3.04,1.53c-1.18,0.33-2.36,0.56-3.53,0.69
			c-1.17,0.13-2.14,0.13-2.91,0.02c-0.55-0.06-0.95-0.19-1.2-0.4c-0.25-0.21-0.37-0.42-0.35-0.65c0.01-0.22,0.08-0.45,0.19-0.67
			c0.11-0.22,0.22-0.4,0.33-0.54l0.21-0.25c0.17,0.03,0.38,0.06,0.64,0.08c0.26,0.03,0.72,0.05,1.38,0.06
			c0.66,0.01,1.25-0.02,1.75-0.1s0.97-0.27,1.38-0.56c0.41-0.29,0.62-0.68,0.62-1.15c0-0.39-0.06-0.72-0.19-1s-0.25-0.49-0.37-0.63
			c-0.12-0.14-0.34-0.25-0.64-0.33s-0.52-0.13-0.66-0.13c-0.14,0-0.4,0-0.79,0c-0.39,0-0.61,0-0.66,0c-0.33,0-0.72,0.15-1.18,0.44
			c-0.45,0.29-0.91,0.7-1.36,1.21c-0.45,0.52-0.82,1.24-1.09,2.18c-0.28,0.93-0.37,1.96-0.29,3.07c0.11,1.81,0.52,3.23,1.22,4.25
			c0.7,1.02,1.66,1.53,2.87,1.53c1.18,0,2.13-0.85,2.85-2.55C67.89,207.64,67.98,207.06,67.79,206.89z"/>
		<path class="st1" d="M78.91,195.68c0.99-0.06,1.82,0.23,2.5,0.86c0.68,0.63,1.16,1.43,1.47,2.41c0.3,0.98,0.52,1.96,0.66,2.95
			c0.14,0.99,0.25,1.94,0.35,2.84c0.1,0.91,0.2,1.48,0.31,1.74c0.06-0.14,0.12-0.34,0.21-0.61c0.08-0.26,0.25-0.72,0.52-1.38
			c0.26-0.65,0.52-1.24,0.76-1.76c0.25-0.52,0.54-0.98,0.89-1.38c0.34-0.4,0.68-0.61,1.01-0.61c0.39,0,0.79,0.25,1.22,0.75
			c0.43,0.5,0.77,1.01,1.03,1.53c0.26,0.52,0.72,1.53,1.38,3.03c0.05,0.11,0.14,0.04,0.25-0.21c0.06-0.19,0.17-0.63,0.33-1.3
			c1.1-4.18,2.3-6.87,3.59-8.07c0.63-0.58,1.31-0.88,2.02-0.88c1.96,0,2.68,1.59,2.19,4.77c-0.44,2.84-1.56,5.81-3.35,8.91
			c-1.54,2.54-2.81,3.85-3.8,3.93c-0.47,0-0.92-0.07-1.34-0.21c-0.43-0.14-0.79-0.32-1.09-0.54c-0.3-0.22-0.58-0.48-0.85-0.77
			c-0.26-0.29-0.48-0.6-0.64-0.92c-0.17-0.32-0.31-0.65-0.43-0.98c-0.12-0.33-0.22-0.65-0.29-0.94c-0.07-0.29-0.13-0.55-0.19-0.77
			c-0.06-0.22-0.08-0.4-0.08-0.54l-0.04-0.21c-0.03,0.2-0.07,0.43-0.12,0.71c-0.06,0.28-0.21,0.78-0.46,1.51
			c-0.25,0.73-0.52,1.37-0.8,1.92c-0.29,0.56-0.68,1.07-1.16,1.53c-0.48,0.46-1,0.69-1.55,0.69c-0.77,0-1.36-0.04-1.76-0.13
			c-0.4-0.08-0.78-0.32-1.14-0.71c-0.36-0.39-0.64-0.88-0.85-1.48c-0.21-0.6-0.49-1.53-0.85-2.78
			C76.54,200.03,76.57,195.73,78.91,195.68z"/>
	</g>
</g>
<g>
	<g>
		<path class="st1" d="M3.08,220.74c0.83,0,1.58,0.45,2.25,1.34c0.67,0.89,1.42,2.4,2.25,4.52c0.63,1.59,1.07,2.8,1.32,3.62
			c0.25,0.82,0.45,1.43,0.62,1.82c0.05-0.08,0.3-0.53,0.74-1.34c0.44-0.81,0.85-1.55,1.24-2.24c0.38-0.68,0.89-1.51,1.53-2.47
			c0.63-0.96,1.23-1.78,1.78-2.45c0.55-0.67,1.14-1.25,1.78-1.76c0.63-0.5,1.21-0.78,1.73-0.84c0.72-0.03,1.34,0.02,1.86,0.15
			c0.52,0.13,0.97,0.37,1.34,0.73s0.58,0.85,0.64,1.46s-0.1,1.42-0.45,2.41c-0.36,0.99-0.94,2.13-1.73,3.41
			c-0.74,1.26-1.5,2.36-2.27,3.32c-0.77,0.96-1.41,1.7-1.92,2.2c-0.51,0.5-0.98,0.92-1.4,1.25c-0.43,0.33-0.74,0.59-0.93,0.77
			c-0.19,0.18-0.29,0.34-0.29,0.48c0,0.25-0.1,2.22-0.31,5.9c-0.21,3.68-0.31,5.73-0.31,6.15c0,0.42-0.03,0.82-0.08,1.21
			c-0.06,0.39-0.18,0.83-0.37,1.32c-0.19,0.49-0.52,0.88-0.97,1.19c-0.45,0.31-1.01,0.46-1.67,0.46c-1.38,0-2.31-0.48-2.79-1.44
			c-0.48-0.96-0.72-2.57-0.72-4.83v-10.04c-2.51-4.27-4.16-7.47-4.96-9.62c-0.22-0.61-0.4-1.16-0.54-1.65
			c-0.14-0.49-0.25-1-0.35-1.55c-0.1-0.54-0.11-1.01-0.04-1.4c0.07-0.39,0.2-0.75,0.39-1.09c0.19-0.33,0.52-0.58,0.97-0.75
			C1.86,220.83,2.42,220.74,3.08,220.74z"/>
		<path class="st1" d="M30.88,246.8c0.25-0.03,0.57-0.07,0.97-0.13c0.4-0.06,1.02-0.13,1.86-0.21c0.84-0.08,1.54-0.1,2.11-0.04
			c0.56,0.06,0.85,0.18,0.85,0.38c0,4.52-3.04,6.78-9.13,6.78c-1.95,0-3.52-0.13-4.71-0.4c-1.18-0.26-2.18-0.75-2.99-1.44
			c-0.81-0.7-1.38-1.63-1.69-2.8c-0.32-1.17-0.48-2.72-0.48-4.64c0-5.58,3.03-8.37,9.09-8.37c1.07,0,2,0.02,2.77,0.06
			c0.77,0.04,1.56,0.11,2.35,0.21c0.8,0.1,1.47,0.25,2,0.44c0.54,0.2,1.03,0.44,1.49,0.73c0.45,0.29,0.78,0.67,0.99,1.13
			c0.21,0.46,0.31,1,0.31,1.61c0,0.89-0.42,1.68-1.26,2.36s-1.85,1.19-3.04,1.53c-1.18,0.33-2.36,0.56-3.53,0.69
			c-1.17,0.13-2.14,0.13-2.91,0.02c-0.55-0.06-0.95-0.19-1.2-0.4c-0.25-0.21-0.37-0.42-0.35-0.65c0.01-0.22,0.08-0.45,0.19-0.67
			c0.11-0.22,0.22-0.4,0.33-0.54l0.21-0.25c0.17,0.03,0.38,0.06,0.64,0.08c0.26,0.03,0.72,0.05,1.38,0.06
			c0.66,0.01,1.25-0.02,1.75-0.1c0.51-0.08,0.97-0.27,1.38-0.57c0.41-0.29,0.62-0.68,0.62-1.15c0-0.39-0.06-0.73-0.19-1
			c-0.12-0.28-0.25-0.49-0.37-0.63c-0.12-0.14-0.34-0.25-0.64-0.33c-0.3-0.08-0.52-0.13-0.66-0.13c-0.14,0-0.4,0-0.79,0
			c-0.39,0-0.61,0-0.66,0c-0.33,0-0.72,0.15-1.18,0.44s-0.91,0.7-1.36,1.21c-0.45,0.52-0.82,1.24-1.09,2.18s-0.37,1.96-0.29,3.07
			c0.11,1.81,0.52,3.23,1.22,4.24c0.7,1.02,1.66,1.53,2.87,1.53c1.18,0,2.13-0.85,2.85-2.55C30.98,247.55,31.08,246.97,30.88,246.8z
			"/>
		<path class="st1" d="M47.83,235.93c0.77,0,1.47,0.1,2.09,0.29s1.1,0.44,1.44,0.73c0.34,0.29,0.63,0.58,0.87,0.86
			c0.23,0.28,0.38,0.52,0.43,0.71l0.12,0.29c0.03-0.08,0.08-0.19,0.14-0.31c0.07-0.13,0.21-0.35,0.41-0.67
			c0.21-0.32,0.42-0.61,0.64-0.86c0.22-0.25,0.49-0.48,0.81-0.69c0.32-0.21,0.63-0.33,0.93-0.36l1.78-0.04
			c0.39,0,0.61,1.05,0.68,3.14c0.07,2.09,0.06,4.24-0.04,6.46c-0.1,2.22-0.06,3.99,0.1,5.33c0,0.5-0.02,0.88-0.06,1.13
			c-0.04,0.25-0.12,0.51-0.25,0.77c-0.12,0.26-0.34,0.45-0.64,0.56c-0.3,0.11-0.7,0.17-1.2,0.17c-0.91,0-1.64-0.1-2.19-0.29
			c-0.55-0.2-0.96-0.52-1.24-0.98c-0.28-0.46-0.45-0.96-0.54-1.51c-0.08-0.54-0.12-1.29-0.12-2.24c0,0.56-0.1,1.12-0.31,1.67
			c-0.21,0.56-0.52,1.1-0.95,1.63c-0.43,0.53-1.04,0.96-1.84,1.28c-0.8,0.32-1.73,0.48-2.81,0.48c-2.2,0-3.75-0.76-4.63-2.28
			c-0.88-1.52-1.32-3.84-1.32-6.97c0-1.53,0.11-2.8,0.33-3.78c0.22-0.99,0.62-1.84,1.2-2.55c0.58-0.71,1.36-1.22,2.35-1.53
			C45.02,236.08,46.28,235.93,47.83,235.93z M48.65,237.56c-0.77,0-1.38,0.56-1.82,1.67c-0.44,1.12-0.66,2.37-0.66,3.77
			c0,0.75,0.03,1.51,0.08,2.28c0.05,0.77,0.16,1.58,0.33,2.45c0.16,0.86,0.41,1.56,0.74,2.09c0.33,0.53,0.74,0.8,1.24,0.8
			c0.33,0,0.66-0.2,0.99-0.61c0.33-0.4,0.65-1,0.95-1.78c0.3-0.78,0.55-1.84,0.74-3.18c0.19-1.34,0.29-2.86,0.29-4.56
			c-0.03-0.08-0.08-0.19-0.14-0.31c-0.07-0.13-0.2-0.36-0.39-0.69s-0.4-0.63-0.62-0.9c-0.22-0.26-0.49-0.5-0.8-0.71
			C49.27,237.66,48.96,237.56,48.65,237.56z"/>
		<path class="st1" d="M65.02,235.51c0.85,0,1.56,0.17,2.13,0.52c0.56,0.35,0.95,0.77,1.16,1.26c0.21,0.49,0.35,0.98,0.43,1.48
			c0.08,0.5,0.11,0.92,0.08,1.25l-0.08,0.5c0.11-0.14,0.25-0.32,0.41-0.54c0.17-0.22,0.5-0.63,1.01-1.21
			c0.51-0.58,1.01-1.1,1.51-1.55c0.5-0.45,1.07-0.86,1.71-1.23c0.65-0.38,1.25-0.56,1.8-0.56c1.43,0,2.64,0.38,3.63,1.15
			c0.99,0.77,1.49,1.67,1.49,2.7c0,0.11,0.01,0.33,0.02,0.67c0.01,0.33,0.01,0.58,0,0.73c-0.01,0.15-0.03,0.39-0.04,0.71
			c-0.01,0.32-0.04,0.57-0.08,0.73c-0.04,0.17-0.1,0.39-0.19,0.67c-0.08,0.28-0.19,0.49-0.31,0.65c-0.12,0.15-0.28,0.32-0.47,0.5
			c-0.19,0.18-0.41,0.32-0.66,0.42c-0.25,0.1-0.54,0.18-0.87,0.25c-0.33,0.07-0.7,0.1-1.11,0.1c-0.74,0-1.34-0.19-1.78-0.58
			c-0.44-0.39-0.73-0.88-0.87-1.47c-0.14-0.58-0.24-1.16-0.31-1.74c-0.07-0.57-0.18-1.06-0.35-1.46c-0.17-0.4-0.44-0.61-0.83-0.61
			c-0.63,0-1.25,0.43-1.84,1.3c-0.59,0.86-1.05,1.91-1.38,3.14c-0.33,1.23-0.5,2.4-0.5,3.51c0,0.34,0.01,0.81,0.04,1.42
			c0.03,0.61,0.04,1.08,0.04,1.4s-0.02,0.72-0.06,1.21c-0.04,0.49-0.13,0.86-0.27,1.13c-0.14,0.26-0.33,0.53-0.58,0.79
			c-0.25,0.26-0.58,0.46-0.99,0.58c-0.41,0.13-0.91,0.19-1.49,0.19c-0.44,0-0.85-0.08-1.24-0.25c-0.39-0.17-0.7-0.4-0.95-0.69
			c-0.25-0.29-0.47-0.63-0.66-1.02c-0.19-0.39-0.34-0.82-0.43-1.3c-0.1-0.47-0.19-0.98-0.27-1.53c-0.08-0.54-0.12-1.09-0.12-1.65
			c0-0.56-0.01-1.11-0.02-1.67c-0.01-0.56-0.02-1.12-0.02-1.67c0-0.5,0-0.88,0-1.13c0-1.23,0.04-2.23,0.12-3.01
			c0.08-0.78,0.23-1.51,0.45-2.17c0.22-0.67,0.56-1.16,1.01-1.47C63.76,235.66,64.33,235.51,65.02,235.51z"/>
	</g>
</g>
</svg>
