<?xml version="1.0" encoding="utf-8"?>
<!-- Generator: Adobe Illustrator 25.2.1, SVG Export Plug-In . SVG Version: 6.00 Build 0)  -->
<svg version="1.1" id="Layer_1" xmlns="http://www.w3.org/2000/svg" xmlns:xlink="http://www.w3.org/1999/xlink" x="0px" y="0px"
	 viewBox="0 0 180 80.25" style="enable-background:new 0 0 180 80.25;" xml:space="preserve">
<style type="text/css">
	.st0{fill:#9BB5DF;}
	.st1{fill:#F5C117;}
	.st2{fill:#BD2926;}
	.st3{fill:#381F23;}
	.st4{fill:#D9B028;}
	.st5{fill:#CA9A2C;}
	.st6{fill:#B7872D;}
	.st7{fill:#333333;}
	.st8{fill:#FDF49A;}
	.st9{fill:#F9E86F;}
	.st10{fill:#EB9E22;}
	.st11{fill:#EBC424;}
	.st12{fill:#010101;}
	.st13{fill:#B49930;}
	.st14{fill:#F3C423;}
	.st15{fill:#010201;}
	.st16{fill-rule:evenodd;clip-rule:evenodd;}
	.st17{fill:#1A1B1B;}
	.st18{fill:#FDFDFD;}
	.st19{fill-rule:evenodd;clip-rule:evenodd;fill:url(#SVGID_1_);}
	.st20{fill:#23292D;}
	.st21{fill:#DD9C27;}
	.st22{fill:#F2664F;}
	.st23{fill:url(#SVGID_2_);}
	.st24{fill:url(#SVGID_3_);}
	.st25{fill:url(#SVGID_4_);}
	.st26{fill:url(#SVGID_5_);}
	.st27{fill:url(#SVGID_6_);}
	.st28{fill:url(#SVGID_7_);}
	.st29{fill:url(#SVGID_8_);}
	.st30{fill:url(#SVGID_9_);}
	.st31{fill:url(#SVGID_10_);}
	.st32{fill:url(#SVGID_11_);}
	.st33{fill:none;stroke:#D9B028;stroke-width:3;stroke-miterlimit:10;}
	.st34{opacity:0.19;}
	.st35{stroke:#000000;stroke-width:3;stroke-miterlimit:10;}
	.st36{fill:#FAA82F;}
	.st37{opacity:0.42;}
	.st38{opacity:0.1091;}
	.st39{fill:#FEBC16;}
	.st40{fill:#E43C7D;}
	.st41{fill:#FFFFFF;}
	.st42{fill:#E7B831;}
	.st43{fill:#AB7136;}
	.st44{fill:none;stroke:#010101;stroke-miterlimit:10;}
	.st45{fill:#8CB5D7;}
	.st46{fill:#F5C117;stroke:#000000;stroke-miterlimit:10;}
	.st47{fill:none;stroke:#010101;stroke-width:0.75;stroke-miterlimit:10;}
	.st48{fill:none;stroke:#010101;stroke-width:0.5;stroke-miterlimit:10;}
	.st49{fill:none;stroke:#F5C117;stroke-miterlimit:10;}
	.st50{fill:#F2664F;stroke:#000000;stroke-miterlimit:10;}
	.st51{stroke:#010101;stroke-miterlimit:10;}
	.st52{fill:#231F20;}
	.st53{fill:#E7B82F;}
	.st54{fill:#B39A32;}
	.st55{fill:#D9B128;}
</style>
<g>
	<g>
		<g>
			<g>
				<g>
					<path class="st42" d="M172.92,74.09c0,0,0,0,0.02,0.01l0.26-0.02c0,0-0.08,0.04-0.22,0.11c-0.14,0.08-0.35,0.18-0.61,0.3
						c-0.53,0.24-1.29,0.54-2.17,0.81c-0.89,0.26-1.9,0.49-2.91,0.65c-0.25,0.04-0.5,0.08-0.75,0.11c-0.25,0.03-0.48,0.06-0.75,0.09
						c-0.53,0.06-1.05,0.05-1.52,0c-0.81-0.09-1.68-0.31-2.5-0.61c-0.83-0.3-1.6-0.66-2.29-1.01c-0.68-0.34-1.29-0.67-1.72-0.96
						c-0.43-0.28-0.69-0.5-0.74-0.55L156.98,73c-0.45-0.41-0.66-0.6-0.79-0.68c-0.06-0.04-0.09-0.06-0.11-0.08
						c-0.02-0.01-0.02-0.01-0.02-0.01c-0.1-0.06,0.1-0.73,0.34-0.64c0,0,0.01,0,0.04,0.02c0.03,0.02,0.09,0.05,0.17,0.1
						c0.17,0.1,0.45,0.34,0.87,0.71l-0.03-0.02c0.06,0.02,0.32,0.17,0.75,0.37c0.43,0.21,1.03,0.46,1.73,0.73
						c0.69,0.27,1.47,0.56,2.25,0.79c0.77,0.23,1.55,0.4,2.23,0.47c0.4,0.04,0.82,0.06,1.26,0.03c0.24-0.02,0.48-0.04,0.72-0.05
						c0.24-0.02,0.49-0.04,0.73-0.06c0.98-0.09,1.96-0.22,2.82-0.4c0.86-0.17,1.6-0.38,2.12-0.55c0.26-0.09,0.47-0.16,0.61-0.22
						c0.14-0.05,0.22-0.08,0.22-0.08l0.15-0.05l0.11,0.04c0.05,0.02,0.05,0.02,0.05,0.02c0.06,0.04,0.09,0.08,0.09,0.11
						c0,0.01-0.01,0.03-0.01,0.04c-0.01,0.02-0.03,0.05-0.04,0.07l-0.01,0.02c-0.01,0.02-0.01,0.04-0.02,0.05
						c-0.01,0.04-0.02,0.08-0.03,0.12c-0.02,0.08-0.06,0.16-0.14,0.19c-0.04,0.02-0.08,0.02-0.11,0.03
						C172.9,74.06,172.9,74.08,172.92,74.09z"/>
				</g>
			</g>
		</g>
		<g>
			<g>
				<g>
					<g>
						<path class="st42" d="M172.07,22.96c0,0,0,0,0,0.01c0,0.01,0.01,0.02,0.03,0.06c0.02,0.04,0.08,0.08,0.12,0.09l0.36-0.08
							c0,0-0.07,0.07-0.18,0.18c-0.06,0.06-0.13,0.13-0.21,0.21c-0.09,0.08-0.19,0.16-0.3,0.25c-0.45,0.37-1.14,0.83-1.99,1.19
							c-0.85,0.36-1.87,0.63-2.88,0.76c-1.01,0.14-2.02,0.17-2.89,0.15c-1.77-0.05-4.03-0.33-5.8-0.9
							c-0.89-0.28-1.65-0.65-2.14-1.03c-0.25-0.18-0.43-0.36-0.55-0.5c-0.12-0.13-0.17-0.22-0.17-0.22
							c-0.13-0.19,0.47-0.54,0.57-0.44c0,0,0.04,0.05,0.14,0.14c0.1,0.09,0.25,0.21,0.47,0.33c0.43,0.26,1.13,0.51,1.96,0.69
							c1.67,0.37,3.86,0.48,5.56,0.52c0.84,0.02,1.78,0.04,2.71-0.03c0.93-0.06,1.85-0.22,2.64-0.47c0.79-0.25,1.43-0.59,1.87-0.87
							c0.11-0.07,0.21-0.14,0.29-0.19c0.08-0.06,0.15-0.12,0.21-0.16c0.12-0.09,0.18-0.14,0.19-0.14l0.18-0.13l0.18,0.05
							c0.1,0.03,0.2,0.1,0.24,0.17c0.05,0.07,0.06,0.11,0.07,0.13c0.01,0.04,0.01,0.05,0.01,0.05c0.01,0.11-0.05,0.11-0.11,0.13
							c-0.07,0.02-0.14,0.06-0.21,0.1c-0.07,0.04-0.16,0.06-0.23,0.03C172.14,23.01,172.08,22.95,172.07,22.96z"/>
					</g>
				</g>
			</g>
			<g>
				<g>
					<g>
						<path class="st42" d="M172.11,22.74c0,0,0,0-0.06-0.11l0.03,0.05c0,0-0.05-0.05-0.14-0.13c-0.1-0.08-0.24-0.19-0.46-0.29
							c-0.43-0.21-1.13-0.38-1.96-0.47c-1.67-0.18-3.81-0.05-5.49,0.04c-0.21,0.01-0.44,0.02-0.66,0.03
							c-0.12,0.01-0.24,0.01-0.37,0.02c-0.12,0-0.25,0-0.37,0c-0.47-0.01-0.96-0.02-1.45-0.02c-0.97-0.01-1.93,0.02-2.76,0.15
							c-0.83,0.13-1.53,0.35-1.98,0.58c-0.12,0.05-0.21,0.12-0.3,0.17c-0.09,0.05-0.16,0.09-0.22,0.14
							c-0.11,0.08-0.17,0.13-0.17,0.13c-0.14,0.09-0.62-0.39-0.48-0.54c0,0,0.07-0.06,0.19-0.18c0.06-0.06,0.14-0.12,0.24-0.19
							c0.1-0.07,0.2-0.16,0.33-0.24c0.5-0.34,1.28-0.68,2.18-0.91c0.91-0.23,1.93-0.35,2.94-0.41c0.5-0.03,1.01-0.04,1.47-0.06
							c0.11,0,0.23-0.01,0.34-0.01c0.11-0.01,0.22-0.02,0.33-0.02c0.23-0.01,0.45-0.03,0.67-0.04c1.72-0.09,3.93-0.06,5.72,0.31
							c0.89,0.18,1.68,0.45,2.21,0.79c0.27,0.16,0.46,0.35,0.59,0.48c0.06,0.07,0.1,0.13,0.13,0.17c0.03,0.04,0.05,0.06,0.05,0.06
							l0.02,0.02l0.01,0.02c0.06,0.11,0.06,0.11,0.06,0.11C172.77,22.6,172.23,22.88,172.11,22.74z"/>
					</g>
				</g>
			</g>
		</g>
		<path class="st43" d="M174.88,74.13c0,0-0.58-0.52-1.36-1.16c-0.78-0.64-1.77-1.42-2.57-1.99c-0.8-0.56-1.86-1.22-2.7-1.76
			c-0.84-0.54-1.46-0.97-1.46-0.97c-0.06-0.03-0.26,0.17-0.38,0.34c-0.04-0.07-0.08-0.13-0.09-0.14c0,0-0.05,0.01-0.11,0.01
			c-0.01-0.21-0.03-0.55-0.05-1.01c-0.01-0.39-0.02-0.87-0.03-1.4c-0.01-0.53,0.01-1.12,0.01-1.75c0.04-2.51,0.27-5.63,0.39-8.09
			c0.11-2.46,0.16-5.63,0.02-8.18c-0.05-0.64-0.08-1.24-0.13-1.77c-0.06-0.54-0.1-1.02-0.15-1.41c-0.11-0.79-0.18-1.27-0.18-1.27
			c-0.02-0.08-0.1-0.13-0.21-0.15c0.05-0.01,0.08-0.01,0.08-0.01c0.03-0.01,0.05-0.02,0.07-0.03c0.03,0,0.05,0,0.08-0.01
			c0,0,0.19-0.06,0.52-0.22c0.33-0.16,0.78-0.43,1.27-0.86c0.49-0.42,1.01-1,1.51-1.7c0.49-0.7,0.96-1.53,1.38-2.44
			c0.41-0.91,0.78-1.91,1.07-2.97c0.14-0.53,0.27-1.07,0.37-1.62c0.09-0.55,0.19-1.07,0.27-1.62c0.34-2.17,0.55-4.35,0.65-6.26
			c0.09-1.9,0.09-4.06-0.04-6.23c-0.06-1.08-0.15-2.17-0.26-3.22c-0.1-1.06-0.28-2.1-0.47-3.06c-0.4-1.92-0.85-3.55-1.12-4.73
			c-0.14-0.59-0.24-1.06-0.31-1.39c0-0.01,0-0.02-0.01-0.04c0.04-0.25,0.04-0.51-0.04-0.73c-0.11-0.32-0.3-0.55-0.49-0.74
			c-0.19-0.19-0.4-0.32-0.6-0.44c-0.41-0.24-0.83-0.39-1.26-0.52c-0.43-0.13-0.87-0.22-1.32-0.27c-0.23-0.03-0.46-0.05-0.69-0.06
			c-0.23,0-0.42-0.01-0.62-0.03c-1.67-0.11-3.43-0.27-5.02-0.06c-0.8,0.1-1.53,0.27-2.18,0.53c-0.64,0.27-1.16,0.57-1.58,0.9
			c-0.21,0.16-0.38,0.34-0.53,0.52c-0.07,0.1-0.13,0.18-0.18,0.28c-0.02,0.05-0.05,0.1-0.07,0.14c-0.01,0.05-0.03,0.1-0.04,0.15
			c-0.09,0.39,0.04,0.61,0.03,0.61c0.04,0.07,0.09,0.11,0.14,0.14c-0.08,0.12-0.1,0.26-0.01,0.36c-0.03,0.04-0.06,0.09-0.07,0.15
			c0,0-0.03,0.19-0.09,0.54c-0.05,0.35-0.14,0.85-0.23,1.49c-0.09,0.63-0.2,1.39-0.3,2.25c-0.05,0.43-0.11,0.88-0.16,1.35
			c-0.05,0.47-0.1,0.97-0.15,1.47c-0.18,2.03-0.33,4.32-0.34,6.61c-0.01,2.28,0.1,4.56,0.31,6.55c0.24,1.99,0.62,4.25,1.24,6.47
			c0.17,0.55,0.35,1.1,0.52,1.65c0.18,0.55,0.41,1.07,0.61,1.6c0.19,0.53,0.46,1.03,0.69,1.52c0.12,0.25,0.24,0.49,0.35,0.73
			c0.14,0.24,0.27,0.48,0.42,0.7c0.6,0.89,1.34,1.67,2.19,2.11c0.41,0.24,0.85,0.37,1.24,0.47c0.04,0.01,0.07,0.01,0.1,0.02
			c0.03,0.22,0.07,0.54,0.11,0.97c0.07,0.79,0.11,1.91,0.1,3.2c0,1.28-0.04,2.73-0.03,4.19c0,0.37,0.01,0.73,0.02,1.08
			c0,0.35,0,0.7,0,1.04c0,0.69,0.01,1.37,0.01,1.99c0.03,2.49,0.08,5.67,0.11,8.23c0.02,2.07,0.03,3.71,0.04,4.28
			c-0.07,0.03-0.18,0.06-0.31,0.1c-0.28,0.09-0.69,0.21-1.15,0.34c-0.92,0.27-2.08,0.61-2.96,0.96c-0.88,0.35-1.97,0.88-2.83,1.39
			c-0.43,0.26-0.8,0.51-1.06,0.74c-0.26,0.22-0.42,0.49-0.42,0.52c-0.03,0.17,0.27,0.22,0.48,0.26c-0.18,0.09-0.35,0.3-0.29,0.44
			c0,0,0.25,0.34,0.71,0.88c0.47,0.53,1.16,1.26,2.06,1.96c0.9,0.7,2.01,1.39,3.24,1.84c1.22,0.46,2.54,0.67,3.68,0.64
			c1.11-0.02,2.36-0.15,3.59-0.39c1.24-0.24,2.47-0.6,3.52-1.06c1.06-0.45,1.93-1.02,2.46-1.54c0.14-0.12,0.25-0.26,0.35-0.36
			c0.1-0.11,0.18-0.2,0.24-0.29c0.12-0.17,0.18-0.27,0.18-0.27c0.02-0.04,0.02-0.08,0-0.13C174.8,74.37,174.9,74.2,174.88,74.13z
			 M157.04,6.87c0.01-0.02,0.01-0.03,0.02-0.05c0.01-0.02,0.03-0.04,0.04-0.06c0.02-0.05,0.07-0.1,0.11-0.15
			c0.1-0.11,0.23-0.23,0.41-0.35c0.35-0.24,0.85-0.49,1.41-0.69c0.56-0.18,1.24-0.3,1.96-0.35c1.45-0.11,3.11,0.12,4.82,0.29
			c0.22,0.02,0.46,0.04,0.65,0.05c0.19,0.01,0.38,0.04,0.57,0.07c0.38,0.06,0.76,0.15,1.11,0.26c0.35,0.11,0.69,0.25,0.96,0.41
			c0.28,0.15,0.46,0.37,0.47,0.44c0.01,0.03,0.01,0.03-0.01,0.09c-0.02,0.06-0.07,0.15-0.17,0.25c-0.04,0.05-0.1,0.1-0.15,0.15
			c-0.06,0.05-0.13,0.1-0.19,0.15c-0.07,0.05-0.14,0.1-0.21,0.15c-0.08,0.05-0.16,0.1-0.24,0.15c-0.64,0.39-1.35,0.67-2.12,0.87
			c-1.55,0.38-3.22,0.37-4.68,0.2c-1.46-0.18-2.72-0.55-3.57-0.89c-0.11-0.04-0.21-0.08-0.31-0.12c-0.09-0.04-0.18-0.09-0.26-0.12
			c-0.16-0.08-0.31-0.14-0.42-0.2c-0.16-0.1-0.25-0.15-0.29-0.17c0.05-0.07,0.09-0.13,0.09-0.17C157.03,7.07,157,7,157.04,6.87z
			 M161.93,42.17c-0.67-0.38-1.26-1.05-1.76-1.86c-0.12-0.2-0.23-0.42-0.35-0.64c-0.1-0.23-0.2-0.47-0.31-0.71
			c-0.2-0.48-0.44-0.96-0.6-1.47c-0.17-0.51-0.38-1.02-0.53-1.55c-0.15-0.53-0.3-1.07-0.45-1.6c-0.54-2.16-0.87-4.35-1.1-6.29
			c-0.21-1.94-0.36-4.16-0.41-6.41c-0.05-2.24,0.01-4.51,0.11-6.52c0.03-0.5,0.06-0.99,0.08-1.46c0.03-0.47,0.07-0.92,0.1-1.35
			c0.06-0.85,0.14-1.61,0.19-2.24c0.05-0.63,0.12-1.14,0.15-1.49c0.02-0.16,0.03-0.29,0.04-0.38c0.07,0.04,0.12,0.07,0.2,0.11
			c0.09,0.05,0.18,0.1,0.28,0.15c0.1,0.05,0.21,0.1,0.32,0.15c0.89,0.43,2.2,0.9,3.75,1.18c1.55,0.26,3.34,0.37,5.12,0.01
			c0.88-0.18,1.77-0.5,2.54-0.95c0.09-0.06,0.19-0.11,0.28-0.17c0.1-0.06,0.19-0.13,0.29-0.19c0.09-0.07,0.19-0.15,0.28-0.22
			c0.07-0.06,0.13-0.12,0.2-0.19c0.03,0.16,0.06,0.33,0.09,0.52c0.21,1.21,0.58,2.87,0.89,4.75c0.15,0.94,0.27,1.93,0.34,2.97
			c0.08,1.04,0.12,2.11,0.15,3.18c0.06,2.13,0.02,4.25-0.07,6.11c-0.09,1.88-0.25,4.01-0.52,6.15c-0.07,0.54-0.14,1.07-0.21,1.6
			c-0.07,0.52-0.17,1.03-0.29,1.53c-0.24,1-0.54,1.97-0.9,2.84c-0.35,0.88-0.76,1.67-1.18,2.34c-0.43,0.67-0.87,1.21-1.29,1.61
			c-0.42,0.4-0.8,0.66-1.07,0.81c-0.27,0.15-0.43,0.22-0.43,0.22c0,0,0,0,0,0c-0.02,0-0.2,0.03-0.52,0.05
			c-0.34,0.03-0.83,0.06-1.43,0.01c-0.3-0.02-0.62-0.08-0.95-0.17C162.6,42.5,162.25,42.38,161.93,42.17z M163.83,43.6
			c0.68,0.03,1.21-0.04,1.56-0.09c0.03,0,0.06-0.01,0.09-0.01c-0.08,0.04-0.14,0.1-0.13,0.17c0,0,0.03,0.47,0.08,1.26
			c0.02,0.39,0.03,0.87,0.04,1.39c0.02,0.53,0,1.12,0.01,1.74c-0.02,2.51-0.24,5.63-0.36,8.09c-0.11,2.46-0.18,5.62-0.05,8.17
			c0.04,0.64,0.06,1.23,0.11,1.77c0.05,0.54,0.09,1.02,0.14,1.42c0.05,0.41,0.1,0.74,0.13,0.96c-0.18-0.01-0.34-0.03-0.48-0.05
			c-0.22-0.01-0.52-0.01-0.79-0.06c-0.09-0.02-0.16-0.04-0.23-0.06c0.02-0.22,0.04-0.51,0.07-0.88c0.06-0.81,0.13-1.93,0.2-3.22
			c0.14-2.57,0.25-5.76,0.23-8.27c-0.01-0.63-0.02-1.31-0.04-2c-0.01-0.35-0.03-0.71-0.04-1.07c-0.03-0.36-0.05-0.72-0.07-1.07
			c-0.08-1.43-0.12-2.88-0.21-4.18c-0.08-1.3-0.2-2.45-0.34-3.27c-0.05-0.31-0.1-0.56-0.14-0.76
			C163.68,43.58,163.76,43.59,163.83,43.6z M173.7,74.66c-0.1,0.08-0.19,0.19-0.32,0.28c-0.49,0.4-1.31,0.84-2.31,1.18
			c-1,0.34-2.17,0.6-3.35,0.77c-1.18,0.16-2.37,0.25-3.41,0.26c-1,0.03-2.13-0.12-3.23-0.46c-1.1-0.34-2.15-0.9-3.04-1.48
			c-0.88-0.59-1.59-1.21-2.08-1.67c-0.47-0.46-0.74-0.76-0.75-0.77c0.04-0.03,0.09-0.06,0.16-0.1c0.23-0.13,0.6-0.29,1.03-0.46
			c0.87-0.34,2.01-0.7,2.88-1.04c0.87-0.34,1.96-0.84,2.83-1.28c0.44-0.22,0.82-0.42,1.09-0.57c0.13-0.07,0.23-0.13,0.31-0.18
			c0.04,0.05,0.09,0.09,0.14,0.14c0.3,0.27,0.79,0.51,1.2,0.54c0.2,0.02,0.44-0.02,0.66-0.07c0.22-0.06,0.42-0.15,0.59-0.25
			c0.17-0.1,0.3-0.2,0.39-0.28c0.06-0.05,0.1-0.09,0.12-0.11c0.23,0.23,0.57,0.57,0.98,0.95c0.76,0.69,1.74,1.5,2.54,2.07
			c0.81,0.56,1.9,1.2,2.77,1.71c0.4,0.23,0.75,0.43,1.02,0.58c0,0.01-0.01,0.01-0.01,0.01C173.88,74.5,173.8,74.57,173.7,74.66z"/>
		<g>
			<g>
				<g>
					<path class="st42" d="M159.12,30.33c0,0-0.01-0.02-0.22-0.39l0.16-0.5l-0.16,0.5l0,0l0,0l0,0l0,0l0,0l0,0l0,0l0,0
						c0,0,0,0,0,0.01c0,0,0,0.01,0,0.01s0,0-0.01-0.01l0-0.01l0,0l0,0l0,0l0,0l0.16-0.5l0,0l0,0l0,0c0.01,0,0.01-0.01,0.02-0.01
						c0.01-0.01,0.03-0.02,0.05-0.03l-0.2,0.3c0-0.02-0.01-0.08,0-0.18c0-0.05,0.01-0.11,0.02-0.18c0.02-0.07,0.05-0.15,0.08-0.23
						c0.07-0.17,0.19-0.36,0.38-0.52c0.09-0.09,0.2-0.14,0.31-0.22c0.12-0.05,0.24-0.11,0.37-0.14c0.52-0.14,1.17-0.08,1.7,0.34
						c0.14,0.09,0.24,0.23,0.35,0.35c0.09,0.14,0.18,0.28,0.23,0.43c0.05,0.15,0.1,0.3,0.11,0.45c0.02,0.15,0.03,0.3,0.01,0.45
						c-0.08,0.66-0.5,1.29-1.13,1.62c-0.31,0.17-0.69,0.26-1.06,0.22c-0.18-0.02-0.37-0.07-0.53-0.15
						c-0.16-0.08-0.28-0.16-0.41-0.26c-0.25-0.21-0.41-0.48-0.49-0.72c-0.08-0.24-0.1-0.46-0.09-0.63c0-0.17,0.03-0.31,0.04-0.4
						c0.02-0.09,0.03-0.14,0.03-0.14c0.04-0.11,0.7,0.04,0.71,0.11c0,0,0,0.03,0,0.1c0,0.06,0.01,0.16,0.03,0.26
						c0.04,0.22,0.17,0.47,0.39,0.57c0.05,0.03,0.14,0.06,0.19,0.07c0.06,0.02,0.11,0.01,0.17,0.01c0.11-0.01,0.23-0.07,0.35-0.15
						c0.23-0.17,0.37-0.47,0.39-0.67c0.01-0.04,0-0.09,0-0.14c0.01-0.05-0.02-0.09-0.02-0.14c-0.01-0.05-0.04-0.08-0.05-0.13
						c-0.03-0.03-0.04-0.08-0.09-0.11c-0.06-0.08-0.17-0.14-0.28-0.19c-0.11-0.04-0.24-0.06-0.35-0.06c-0.24,0-0.39,0.11-0.48,0.21
						c-0.02,0.03-0.04,0.05-0.06,0.08c-0.02,0.03-0.02,0.06-0.04,0.08c-0.02,0.05-0.04,0.07-0.05,0.08l-0.2,0.3
						c-0.02,0.01-0.03,0.02-0.05,0.02c-0.01,0-0.01,0.01-0.02,0.01l0,0l0,0l0,0l0.16-0.5l0,0l0,0l0,0l0,0l0,0.01
						c0,0.01,0.01,0.01,0.01,0.01s0,0,0-0.01c0,0,0,0,0-0.01l0,0l0,0l0,0l0,0l0,0l0,0l0,0l0,0l-0.16,0.5l0.16-0.5
						c0.19,0.38,0.2,0.4,0.2,0.4C159.74,30.1,159.2,30.39,159.12,30.33z"/>
				</g>
			</g>
		</g>
		<g>
			<g>
				<g>
					<path class="st42" d="M165.17,33.09c0,0,0,0,0.01-0.07c0.01-0.03,0.02-0.09,0.05-0.14c0.03-0.06,0.05-0.09,0.04-0.09
						l-0.01,0.05c0-0.02,0-0.3,0.16-0.73c0.09-0.21,0.22-0.47,0.43-0.71c0.21-0.24,0.51-0.48,0.87-0.63
						c0.37-0.14,0.78-0.22,1.23-0.16c0.23,0.03,0.47,0.11,0.69,0.24c0.22,0.13,0.42,0.32,0.56,0.53c0.29,0.42,0.39,0.89,0.4,1.31
						c0.01,0.43-0.08,0.82-0.21,1.18c-0.15,0.37-0.38,0.74-0.73,1.06c-0.35,0.32-0.84,0.54-1.35,0.57
						c-0.27,0.02-0.55-0.03-0.79-0.12c-0.24-0.09-0.45-0.23-0.62-0.38c-0.35-0.3-0.58-0.66-0.73-1.01
						c-0.15-0.36-0.22-0.73-0.21-1.08c0.01-0.35,0.13-0.69,0.31-0.91c0.18-0.23,0.38-0.35,0.51-0.41c0.14-0.06,0.21-0.08,0.21-0.08
						c0.18-0.04,0.32,0.63,0.25,0.68c0,0-0.01,0-0.03,0.01c-0.02,0.01-0.04,0.03-0.07,0.05c-0.06,0.04-0.13,0.11-0.18,0.21
						c-0.05,0.1-0.08,0.25-0.06,0.44c0.02,0.19,0.1,0.42,0.23,0.63c0.13,0.21,0.31,0.42,0.51,0.55c0.2,0.13,0.4,0.18,0.56,0.15
						c0.2-0.04,0.38-0.14,0.54-0.29c0.15-0.15,0.27-0.36,0.36-0.57c0.08-0.2,0.14-0.43,0.14-0.66c0.01-0.23-0.03-0.45-0.11-0.6
						c-0.08-0.15-0.19-0.24-0.39-0.3c-0.2-0.06-0.45-0.05-0.65,0c-0.42,0.1-0.73,0.42-0.89,0.69c-0.16,0.27-0.2,0.47-0.22,0.48
						l-0.01,0.05c-0.09,0.19-0.09,0.2-0.09,0.2C165.82,33.21,165.2,33.35,165.17,33.09z"/>
				</g>
			</g>
		</g>
		<g>
			<g>
				<g>
					<path class="st42" d="M162.15,38.09c0,0-0.01-0.02-0.02-0.05c-0.02-0.03-0.03-0.08-0.05-0.15c-0.03-0.13-0.06-0.31-0.04-0.55
						c0.01-0.12,0.04-0.25,0.11-0.4c0.07-0.14,0.17-0.32,0.38-0.46c0.21-0.15,0.54-0.19,0.79-0.13c0.26,0.06,0.43,0.18,0.59,0.3
						l-0.06-0.05c0.08,0.05,0.24,0.12,0.41,0.33c0.04,0.04,0.08,0.11,0.12,0.18c0.04,0.07,0.08,0.14,0.1,0.23
						c0.02,0.09,0.05,0.18,0.05,0.27c0,0.09,0,0.19-0.01,0.27c-0.06,0.36-0.26,0.62-0.46,0.8c-0.2,0.18-0.42,0.29-0.63,0.35
						c-0.41,0.14-0.81,0.06-0.91,0l-0.31-0.17c-0.17-0.23-0.25-0.48-0.27-0.68c-0.02-0.2,0-0.35,0.02-0.46
						c0.02-0.11,0.05-0.18,0.07-0.23c0.02-0.05,0.03-0.06,0.03-0.06c0.04-0.07,0.68,0.15,0.7,0.2c0,0-0.01,0.06,0,0.18
						c0.01,0.12,0.04,0.28,0.21,0.45l-0.31-0.17c0.04-0.05,0.14-0.09,0.29-0.2c0.07-0.05,0.14-0.12,0.18-0.17
						c0.02-0.03,0.03-0.05,0.03-0.06c0,0,0,0,0,0l0.05,0.02c0.02,0.01,0.05,0.02,0.08,0.02c0.01,0,0.01,0,0.03,0
						c0.01,0-0.01,0-0.01,0c-0.01,0-0.02,0-0.02,0.01c0,0-0.07,0.02-0.09,0.04l-0.02,0.02c0,0,0,0,0,0c0,0,0-0.01,0-0.01
						c0.01-0.02-0.05-0.08-0.05-0.12l-0.06-0.05c-0.02-0.02-0.05-0.05-0.06-0.07c-0.01-0.01-0.01-0.01-0.02-0.02
						c-0.01-0.02,0,0.01,0-0.03c0.05-0.17-0.01-0.21,0.04-0.12c0.01,0.01,0.03,0.05,0.04,0.06c0-0.01-0.01,0-0.01,0
						c-0.01,0-0.03,0.01-0.04,0.02c-0.03,0.03-0.07,0.07-0.09,0.12c-0.1,0.2-0.09,0.33-0.09,0.33
						C162.78,37.93,162.22,38.16,162.15,38.09z"/>
				</g>
			</g>
		</g>
	</g>
	<g>
		<path class="st42" d="M0,15.79c0.15-0.57,0.31-0.88,0.36-1.25c0.2-2.08,0.36-4.26,0.56-6.49c0.21-1.61,0.51-3.32,0.77-4.93
			c0.05-0.31,0.1-0.57,0.2-0.78c0.36-1.35,1.49-1.82,2.46-0.99c0.31,0.21,0.41,0.52,0.41,0.94c0.05,0.52,0.1,1.14,0.05,1.77
			l-0.36,6.96c-0.05,0.83-0.1,1.71-0.15,2.54c1.74-0.47,3.49-0.93,5.23-1.45l0.31-3.12c0.21-2.18,0.56-4.36,1.13-6.49
			c0.1-0.47,0.31-0.99,0.46-1.4c0.26-0.88,0.82-1.14,1.54-1.09l0.82,0.16c0.67,0.21,0.82,0.57,0.67,1.4c-0.26,2.02-0.56,4-0.87,6.13
			c-0.15,1.25-0.26,2.65-0.41,3.95c0.62,0.21,1.28-0.05,1.74,0.52l0.41,0.88c-0.67,0.68-1.49,0.31-2.21,0.68
			c-0.05,0.73-0.15,1.45-0.15,2.23c-0.15,2.8-0.36,5.61-0.46,8.41c-0.05,1.3-0.05,2.54,0.05,3.84c0.31,3.27,1.18,5.19,0.56,5.92
			c-0.41,0.52-1.18,0.57-1.64-0.05c-1.33-1.4-1.8-5.3-1.9-7.89c-0.26-3.69-0.26-7.32-0.1-10.96v-0.99
			c-1.85,0.26-3.54,1.04-5.33,1.61c-0.1,1.25-0.2,2.49-0.26,3.79c-0.15,2.75-0.31,5.61-0.15,8.52c0.05,0.52-0.1,1.09,0.36,1.51
			c0.2,0.21,0,0.57-0.36,0.62c-0.72,0.16-1.44,0.1-1.95-0.68c-0.36-0.52-0.67-1.19-0.87-1.92c-0.46-1.61-0.51-3.43-0.56-5.19
			c-0.05-1.45-0.05-3.01-0.05-4.52C0.31,16.68,0.31,16.68,0,15.79z"/>
		<path class="st42" d="M41.23,17.04c-0.56,2.54-2.15,7.63-4.21,7.74c-0.92,0.05-1.69-0.26-2.31-0.88c-0.62-0.57-1.03-1.3-1.28-2.08
			c-0.77-2.13-0.72-3.58-0.62-5.66c-0.46,1.19-0.62,1.25-1.13,2.49c-0.15,0.31-0.26,0.68-0.41,0.99c-0.51,1.04-1.23,1.77-2.46,1.71
			c-1.28-0.1-2.36-0.62-2.92-1.92c-0.31-0.78-0.36-1.51-0.31-2.29c0.15-1.87,0.67-3.58,1.64-5.14c0.46-0.78,1.08-1.45,1.9-1.92
			c1.03-0.62,2.21-0.68,3.28-0.21c0.46,0.16,0.82,0.57,1.18,0.93c0.2,0.26,0.05,0.52-0.26,0.52c-0.26,0-0.51-0.05-0.77-0.16
			c-0.21-0.05-0.41-0.21-0.56-0.31c-1.85,1.19-3.74,6.96-2.92,8.78c0.46-0.21,0.62-0.67,0.82-1.09c0.77-1.66,1.49-3.32,2.26-5.04
			L33.03,12c0.26-0.42,0.62-0.57,1.08-0.52c0.31,0.05,0.62,0,0.92,0.05c0.87,0.05,1.23,0.36,1.23,1.25c0.05,1.25,0,2.49-0.1,3.74
			c-0.26,2.6-0.2,7.01,0.87,7.43c1.08,0,2.77-4.57,3.28-7.37C40.62,15.95,41.44,16.42,41.23,17.04z"/>
		<path class="st42" d="M69.54,13.92c-1.18,0.47-3.64,0.99-4.77,1.61c-0.51,0.31-0.82,0.62-0.92,1.25c-0.51,2.65-1.95,4.78-3.69,6.7
			c-0.41,0.52-0.92,0.99-1.38,1.45c-1.54,1.35-3.03,1.51-4.77,0.42l-0.41-0.21c-0.05,1.04-0.15,1.97-0.1,2.96
			c0.05,1.04,0.26,2.02,0.31,3.06c0.05,0.99,0.05,1.97,0.05,2.96c0,0.36-0.2,0.47-0.51,0.57c-1.13,0.36-2.1-0.1-2.36-1.19
			c-1.64-7.37-1.13-17.5,0.87-25.03c0.1-0.47,0.67-0.73,1.18-0.73c1.13-0.1,1.64,0.36,1.54,1.51c0,0.88-0.1,1.77-0.21,2.65
			c0,0.31-0.05,0.62,0.05,1.04c0.05-0.16,0.21-0.26,0.26-0.42c0.82-1.45,2-2.49,3.33-3.38c0.82-0.57,1.69-0.62,2.62-0.31
			c2.15,0.73,3.18,2.29,3.49,4.52c0.05,0.21,0.05,0.47,0.1,0.83c0.56-0.36,4.1-1.19,4.72-1.19C69.54,12.99,69.85,13.35,69.54,13.92z
			 M61.38,11.02c-0.15-1.35-1.18-1.87-2.31-1.09c-1.44,0.94-2.67,2.18-3.33,3.84c-0.97,2.28-1.54,4.67-1.95,7.06v0.47
			c1.54-1.66,3.18-2.86,4.98-3.89c1.9-1.14,1.9-1.14,2.36-3.37C61.38,13.04,61.54,12.05,61.38,11.02z M59.08,19.27
			c-1.18,0.78-2.41,1.56-3.23,2.75c-0.36,0.47-0.51,1.09-0.72,1.71c-0.05,0.16,0.05,0.36,0.1,0.67
			C56.92,22.91,58.1,21.19,59.08,19.27z"/>
		<path class="st42" d="M97.39,13.92c-1.18,0.47-3.64,0.99-4.77,1.61c-0.51,0.31-0.82,0.62-0.92,1.25c-0.51,2.65-1.95,4.78-3.69,6.7
			c-0.41,0.52-0.92,0.99-1.38,1.45c-1.54,1.35-3.03,1.51-4.77,0.42l-0.41-0.21c-0.05,1.04-0.15,1.97-0.1,2.96
			c0.05,1.04,0.26,2.02,0.31,3.06c0.05,0.99,0.05,1.97,0.05,2.96c0,0.36-0.2,0.47-0.51,0.57c-1.13,0.36-2.1-0.1-2.36-1.19
			c-1.64-7.37-1.13-17.5,0.87-25.03c0.1-0.47,0.67-0.73,1.18-0.73c1.13-0.1,1.64,0.36,1.54,1.51c0,0.88-0.1,1.77-0.21,2.65
			c0,0.31-0.05,0.62,0.05,1.04c0.05-0.16,0.21-0.26,0.26-0.42c0.82-1.45,2-2.49,3.33-3.38c0.82-0.57,1.69-0.62,2.62-0.31
			c2.15,0.73,3.18,2.29,3.49,4.52c0.05,0.21,0.05,0.47,0.1,0.83c0.56-0.36,4.1-1.19,4.72-1.19C97.39,12.99,97.69,13.35,97.39,13.92z
			 M89.23,11.02c-0.15-1.35-1.18-1.87-2.31-1.09c-1.44,0.94-2.67,2.18-3.33,3.84c-0.97,2.28-1.54,4.67-1.95,7.06v0.47
			c1.54-1.66,3.18-2.86,4.98-3.89c1.9-1.14,1.9-1.14,2.36-3.37C89.23,13.04,89.39,12.05,89.23,11.02z M86.92,19.27
			c-1.18,0.78-2.41,1.56-3.23,2.75c-0.36,0.47-0.51,1.09-0.72,1.71c-0.05,0.16,0.05,0.36,0.1,0.67
			C84.77,22.91,85.95,21.19,86.92,19.27z"/>
		<path class="st42" d="M120.46,24.72v1.4c-0.05,2.34-0.46,4.62-1.13,6.85c-0.36,1.3-0.92,2.49-1.8,3.48
			c-0.67,0.78-1.44,1.04-2.41,0.88c-1.03-0.21-1.49-0.67-1.59-1.71c-0.21-1.25-0.05-2.49,0.2-3.74c0.46-2.13,1.33-4.1,2.77-5.82
			c0.31-0.31,0.36-0.67,0.36-1.04c-0.05-1.82-0.05-3.64-0.15-5.45c-0.15-2.18-0.41-4.99-0.56-7.11c-0.05-0.26-0.15-0.57-0.26-0.99
			c-0.31,0.47-0.56,0.73-0.67,1.09c-0.56,1.3-1.08,3.22-1.59,4.52c-0.46,1.19-0.87,2.49-1.38,3.69c-0.26,0.52-0.67,1.04-1.08,1.45
			c-0.56,0.57-1.23,0.73-2,0.52c-1.38-0.41-2.31-1.4-2.87-2.7c-0.62-1.4-0.62-2.91-0.51-4.41c0.1-1.56,0.36-2.39,0.62-3.27
			c0.26-0.73,0.77-0.99,1.49-0.94c0.72,0.05,1.38,0.21,2,0.57c0.72,0.41,0.87,0.73,0.67,1.56c-0.26,1.19-0.56,3.01-0.82,4.26
			c-0.15,0.78-0.26,1.61-0.31,2.44c-0.05,0.42,0,0.88,0.31,1.3c0.46-0.26,0.82-0.67,1.03-1.14c0.46-0.94,0.87-1.87,1.23-2.8
			c0.46-1.35,0.87-3.32,1.38-4.67c0.26-0.68,0.56-1.3,0.92-1.87c0.56-0.83,1.13-0.99,2.05-0.73c0.82,0.21,1.38,0.68,1.79,1.4
			c0.67,1.14,1.03,2.39,1.33,4.31c0.36,2.18,0.72,4.36,0.92,6.6c0.05,0.26,0.05,0.47,0.05,0.78c0.51-0.1,0.92-0.26,1.38-0.31
			c0.46-0.05,0.92-0.05,1.38,0c0.21,0,0.36,0.21,0.67,0.36C122.67,23.95,121.59,24.31,120.46,24.72z M116.41,29.55
			c-0.72,1.61-1.13,3.22-0.97,4.99C116.05,32.93,116.36,31.27,116.41,29.55z"/>
		<path class="st42" d="M3.38,76.41c-1.33,0.52-2.31,0.16-2.72-1.09C0.05,73.5,0,71.58,0,69.71c0-4.05,0.05-10.7,0.1-14.8
			c0-2.44,0.1-4.83,0.21-7.37c0-0.42,0.05-0.99,0.15-1.51c0.1-0.57,0.51-0.78,1.03-0.88c0.82-0.1,1.38,0.16,2.05,0.52
			c1.59,1.04,2.31,2.54,3.03,4.1c1.64,3.69,2.72,10.13,3.9,14.02c0.62,2.13,1.28,4.41,2.46,6.34c0.41,0.57,0.77,1.14,1.23,1.66
			c0.51,0.42,0.92,0.31,1.23-0.31c0.26-0.52,0.41-1.09,0.41-1.61c0.2-2.18,0.31-4.26,0.31-6.39c-0.05-7.79-0.15-13.09-0.31-18.43
			c-0.05-0.42,0-0.83,0-1.35c0.15-1.09,0.46-1.25,1.64-1.09c0.05,0.21,0.21,0.41,0.21,0.67c0.1,4.88,0.26,9.66,0.36,17.14
			c0,2.6-0.1,5.35-0.2,8.05c-0.05,0.94-0.15,1.82-0.41,2.65c-0.26,0.99-0.97,1.61-1.95,1.87c-1.8,0.47-3.44,0.05-4.62-1.45
			c-1.18-1.25-1.95-2.75-2.51-4.31c-1.38-3.69-2.56-9.97-3.9-13.66l-0.2-0.57C3.9,53.56,3.28,73.03,3.38,76.41z"/>
		<path class="st42" d="M39.49,59.89c-0.62,1.97-1.38,3.79-2.92,5.19c-0.67,0.62-1.44,0.78-2.2,0.57c-1.9-0.41-3.23-1.51-3.74-3.48
			c-0.62-2.29-0.36-4.47,0.87-6.49c0.56-0.99,1.33-1.66,2.31-2.13c0.56-0.31,1.18-0.36,1.8-0.16c0.77,0.26,1.18,0.78,1.08,1.61
			c-0.15,1.61-1.08,2.86-2.41,3.58c-0.51,0.31-0.72,0.57-0.72,1.14c0,1.09-0.05,2.18,0.05,3.27c0,1.04,0.82,2.13,1.9,1.51
			c1.54-0.94,2.1-1.87,3.18-4.36C38.87,59.58,38.72,59.58,39.49,59.89z M33.95,57.71c0.87-0.73,1.44-1.45,1.69-2.44
			c0.1-0.36,0.21-0.73-0.15-1.04C34.72,55.01,34.05,56.47,33.95,57.71z"/>
		<path class="st42" d="M67.95,65.56c-0.05,1.4-0.26,2.75-0.41,4.15c-0.05,0.36-0.15,0.73-0.26,1.04c-0.77,2.65-3.03,3.53-5.39,2.18
			c-1.03-0.57-1.8-1.4-2.46-2.39c-1.44-1.97-2.36-4.26-2.82-6.65c-0.1-0.47-0.15-0.94-0.26-1.4c-0.05,0-0.1-0.05-0.1-0.05
			c-0.1,0.26-0.15,0.52-0.26,0.78c-0.31,0.78-0.56,1.61-0.98,2.34c-0.82,1.51-2.05,1.82-3.74,1.14c-0.92-0.36-1.54-1.09-1.95-1.92
			c-0.87-1.56-1.18-3.27-1.13-5.04c0.05-1.3,0.15-2.6,0.56-3.79c0.15-0.42,0.31-0.83,0.51-1.25c0.41-0.73,1.03-1.14,1.9-1.09h0.51
			c1.38,0.1,1.69,0.57,1.54,1.92l-0.82,5.82c-0.21,1.45-0.1,2.86,0.41,4.26c0.46-0.16,0.72-0.52,0.87-0.88
			c0.36-0.94,0.77-1.87,1.08-2.86c0.51-1.87,1.03-3.84,1.49-5.76c0.21-0.78,0.51-1.45,1.13-2.08c0.62-0.57,1.74-0.73,2.36-0.16
			c0.2,0.16,0.41,0.52,0.41,0.78c0.15,1.04,0.21,2.13,0.26,3.17c0.05,1.71,0.1,3.38,0.2,5.04c0.1,2.44,0.72,4.78,1.59,7.01
			c0.36,0.83,0.77,1.61,1.44,2.23c0.46,0.47,0.72,0.52,1.13,0.05c0.36-0.42,0.72-0.88,0.87-1.35c0.26-1.09,0.56-2.18,0.62-3.27
			c0.1-2.96,0.21-5.92,0.15-8.88c-0.05-1.71-0.41-3.38-0.67-5.09c0-0.21-0.05-0.41-0.05-0.62c-0.05-0.83,0.21-1.09,1.03-0.88
			c0.1,0,0.21,0.05,0.21,0.05C68.15,56.57,68.1,61.04,67.95,65.56z"/>
		<path class="st42" d="M103.85,66.28c0.31-0.67,0.62-1.09,0.77-1.45c0.46-1.4,0.92-2.54,1.23-3.89c1.08-3.74,2.05-7.53,3.13-11.42
			c0.31-1.09,0.77-2.13,1.23-3.27c0.36-0.94,0.92-1.56,1.8-1.4c1.08,0.16,2.1,0.36,2.51,1.92c0.26,0.99,0.46,2.08,0.56,3.22
			c0.41,5.35,0.41,10.65,0.05,15.99v0.42c0.36,0.16,0.67,0.41,1.03,0.52c-0.1,0.16-0.1,0.31-0.15,0.31
			c-0.92,0.21-1.08,0.93-1.28,1.97c-0.26,1.92-0.62,3.89-1.03,5.66c-0.36,1.77-1.08,3.22-2.15,4.36c-0.46,0.47-0.92,0.93-1.54,1.04
			c-1.33,0.05-1.74-0.52-2.41-2.23c-0.72-1.71-0.51-3.48-0.1-5.19c0.46-1.45,1.18-2.8,1.95-4c0.56-0.78,1.28-1.3,2.15-1.4
			c0.05-6.59-0.21-13.09-0.31-19.63c-0.26,0.57-0.46,1.04-0.67,1.66l-2.21,8.36c-0.56,2.02-1.08,4.26-1.69,6.34
			c-0.15,0.88-0.46,1.61-0.72,2.23c-0.46,1.14-1.23,1.66-2.15,1.66c-1.59,0-2.82-0.99-3.74-2.7c-0.72-1.35-1.08-3.12-1.18-4.73
			c-0.56-5.97-0.1-7.89,0.92-15.11c0.2-1.04,0.72-1.45,1.49-1.4c0.67,0,1.33,0.16,1.95,0.36c0.97,0.52,1.23,0.99,1.18,2.29
			c-0.15,2.02-0.26,4.26-0.36,6.28c-0.26,2.91-0.51,5.66-0.67,8.52c-0.05,1.4,0.15,2.7,0.21,4.05
			C103.64,65.76,103.74,65.81,103.85,66.28z M109.54,78.64c0.77-0.73,1.08-1.61,1.28-2.7c0.21-1.51,0.41-2.86,0.51-4.41
			c0.1-0.93,0.1-1.71,0.15-2.7C109.13,70.23,107.95,76.04,109.54,78.64z"/>
		<path class="st42" d="M136.62,59.89c-0.62,1.97-1.38,3.79-2.92,5.19c-0.67,0.62-1.44,0.78-2.2,0.57c-1.9-0.41-3.23-1.51-3.74-3.48
			c-0.62-2.29-0.36-4.47,0.87-6.49c0.56-0.99,1.33-1.66,2.31-2.13c0.56-0.31,1.18-0.36,1.8-0.16c0.77,0.26,1.18,0.78,1.08,1.61
			c-0.15,1.61-1.08,2.86-2.41,3.58c-0.51,0.31-0.72,0.57-0.72,1.14c0,1.09-0.05,2.18,0.05,3.27c0,1.04,0.82,2.13,1.9,1.51
			c1.54-0.94,2.1-1.87,3.18-4.36C136,59.58,135.85,59.58,136.62,59.89z M131.08,57.71c0.87-0.73,1.44-1.45,1.69-2.44
			c0.1-0.36,0.21-0.73-0.15-1.04C131.85,55.01,131.18,56.47,131.08,57.71z"/>
		<path class="st42" d="M160.98,60.31c-0.56,2.54-2.15,7.63-4.21,7.74c-0.92,0.05-1.69-0.26-2.31-0.88
			c-0.62-0.57-1.03-1.3-1.28-2.08c-0.77-2.13-0.72-3.58-0.62-5.66c-0.46,1.19-0.62,1.25-1.13,2.49c-0.15,0.31-0.26,0.68-0.41,0.99
			c-0.51,1.04-1.23,1.77-2.46,1.71c-1.28-0.1-2.36-0.62-2.92-1.92c-0.31-0.78-0.36-1.51-0.31-2.29c0.15-1.87,0.67-3.58,1.64-5.14
			c0.46-0.78,1.08-1.45,1.9-1.92c1.03-0.62,2.21-0.68,3.28-0.21c0.46,0.16,0.82,0.57,1.18,0.93c0.2,0.26,0.05,0.52-0.26,0.52
			c-0.26,0-0.51-0.05-0.77-0.16c-0.21-0.05-0.41-0.21-0.56-0.31c-1.85,1.19-3.74,6.96-2.92,8.78c0.46-0.21,0.62-0.67,0.82-1.09
			c0.77-1.66,1.49-3.32,2.26-5.04l0.87-1.51c0.26-0.42,0.62-0.57,1.08-0.52c0.31,0.05,0.62,0,0.92,0.05
			c0.87,0.05,1.23,0.36,1.23,1.25c0.05,1.25,0,2.49-0.1,3.74c-0.26,2.6-0.2,7.01,0.87,7.43c1.08,0,2.77-4.57,3.28-7.37
			C160.36,59.22,161.18,59.69,160.98,60.31z"/>
		<path class="st42" d="M180,57.71c-0.15,0.16-0.26,0.31-0.36,0.36c-0.87,0.31-1.9-0.21-2.21-1.04c-0.15-0.42-0.26-0.88-0.41-1.3
			c-0.05-0.26-0.15-0.57-0.31-0.93c-0.21,0.16-0.41,0.26-0.56,0.36c-0.1,0.16-0.26,0.31-0.36,0.52c-1.54,2.49-2.51,7.53-2.62,10.54
			c-0.05,0.36,0,0.78-0.05,1.14c-0.05,0.21-0.2,0.47-0.36,0.52c-0.62,0.31-1.59-0.05-1.9-0.62c-0.26-0.47-0.46-0.94-0.56-1.45
			c-0.2-0.73-0.36-1.51-0.41-2.29c-0.26-2.7-0.2-7.63,0.67-10.23c0.1-0.36,0.26-0.67,0.41-1.04c0.2-0.36,0.51-0.62,0.97-0.68
			c0.72-0.1,1.49-0.05,2.15,0.36c0.51,0.26,0.62,0.47,0.46,1.09c-0.31,1.14-0.56,2.29-0.87,3.43c0,0.1,0,0.21-0.05,0.36h0.1
			c0.15-0.16,0.26-0.36,0.36-0.57c0.31-0.47,0.62-0.99,0.97-1.4c0.87-1.04,2.31-0.93,3.03,0.21c0.26,0.47,0.46,0.93,0.62,1.45
			c0.1,0.42,0.26,0.78,0.77,0.83C179.64,57.4,179.79,57.56,180,57.71z"/>
	</g>
</g>
</svg>
