<?xml version="1.0" encoding="utf-8"?>
<!-- Generator: Adobe Illustrator 25.2.1, SVG Export Plug-In . SVG Version: 6.00 Build 0)  -->
<svg version="1.1" id="Layer_1" xmlns="http://www.w3.org/2000/svg" xmlns:xlink="http://www.w3.org/1999/xlink" x="0px" y="0px"
	 viewBox="0 0 180 188.09" style="enable-background:new 0 0 180 188.09;" xml:space="preserve">
<style type="text/css">
	.st0{fill:#9BB5DF;}
	.st1{fill:#F5C117;}
	.st2{fill:#BD2926;}
	.st3{fill:#381F23;}
	.st4{fill:#D9B028;}
	.st5{fill:#CA9A2C;}
	.st6{fill:#B7872D;}
	.st7{fill:#333333;}
	.st8{fill:#FDF49A;}
	.st9{fill:#F9E86F;}
	.st10{fill:#EB9E22;}
	.st11{fill:#EBC424;}
	.st12{fill:#010101;}
	.st13{fill:#B49930;}
	.st14{fill:#F3C423;}
	.st15{fill:#010201;}
	.st16{fill-rule:evenodd;clip-rule:evenodd;}
	.st17{fill:#1A1B1B;}
	.st18{fill:#FDFDFD;}
	.st19{fill-rule:evenodd;clip-rule:evenodd;fill:url(#SVGID_1_);}
	.st20{fill:#23292D;}
	.st21{fill:#DD9C27;}
	.st22{fill:#F2664F;}
	.st23{fill:url(#SVGID_2_);}
	.st24{fill:url(#SVGID_3_);}
	.st25{fill:url(#SVGID_4_);}
	.st26{fill:url(#SVGID_5_);}
	.st27{fill:url(#SVGID_6_);}
	.st28{fill:url(#SVGID_7_);}
	.st29{fill:url(#SVGID_8_);}
	.st30{fill:url(#SVGID_9_);}
	.st31{fill:url(#SVGID_10_);}
	.st32{fill:url(#SVGID_11_);}
	.st33{fill:none;stroke:#D9B028;stroke-width:3;stroke-miterlimit:10;}
	.st34{opacity:0.19;}
	.st35{stroke:#000000;stroke-width:3;stroke-miterlimit:10;}
	.st36{fill:#FAA82F;}
	.st37{opacity:0.42;}
	.st38{opacity:0.1091;}
	.st39{fill:#FEBC16;}
	.st40{fill:#E43C7D;}
	.st41{fill:#FFFFFF;}
	.st42{fill:#E7B831;}
	.st43{fill:#AB7136;}
	.st44{fill:none;stroke:#010101;stroke-miterlimit:10;}
	.st45{fill:#8CB5D7;}
	.st46{fill:#F5C117;stroke:#000000;stroke-miterlimit:10;}
	.st47{fill:none;stroke:#010101;stroke-width:0.75;stroke-miterlimit:10;}
	.st48{fill:none;stroke:#010101;stroke-width:0.5;stroke-miterlimit:10;}
	.st49{fill:none;stroke:#F5C117;stroke-miterlimit:10;}
	.st50{fill:#F2664F;stroke:#000000;stroke-miterlimit:10;}
	.st51{stroke:#010101;stroke-miterlimit:10;}
	.st52{fill:#231F20;}
	.st53{fill:#E7B82F;}
	.st54{fill:#B39A32;}
	.st55{fill:#D9B128;}
</style>
<path class="st17" d="M163.7,130.82c0.16,0.21,0.42,0.32,0.78,0.29C164.23,131.02,163.97,130.93,163.7,130.82z M167.8,162.46
	c-1.01-0.86-2.54,0.09-3.38,1.11c-3.87,4.76-4.51,11.82-9.19,15.79c-0.33,0.28-0.7,0.55-1.14,0.58c-0.81,0.05-1.4-0.75-1.7-1.52
	c-1.77-4.4,0.78-9.22,2.89-13.47c4.31-8.69,7.04-18.16,8.02-27.81c0.17-1.74,0.27-3.62-0.65-5.12c-1.57-2.57-5.51-2.7-7.99-0.99
	c-0.29,0.19-0.55,0.4-0.81,0.63c-1.96,1.75-3.08,4.33-3.93,6.86c-3.34,9.93-4.03,20.57-3.64,31.03c-2.1-3.83-3.06-8.29-2.72-12.64
	c0.16-2.05,0.59-4.15,0.02-6.12c-1.21-4.18-6.77-5.88-10.78-4.16c-4,1.71-6.51,5.81-7.8,9.96c-1.3,4.16-1.65,8.55-2.81,12.75
	c-0.49,1.77-2.11,3.9-3.67,2.95c-0.5-0.29-0.78-0.83-1.02-1.36c-2.1-4.48-2.77-9.63-1.88-14.49c0.12-0.68,0.32-1.42,0.89-1.8
	c1.11-0.75,2.51,0.36,3.84,0.5c2.03,0.21,3.64-2.27,2.98-4.21c-0.65-1.93-2.9-3-4.94-2.8c-2.03,0.21-3.82,1.44-5.26,2.9
	c-4.25,4.32-5.84,10.57-6.79,16.56c-1.98-3.95-2.76-8.51-2.18-12.9c0.22-1.68,0.55-3.65-0.67-4.84c-1.62-1.57-4.39-0.24-5.78,1.55
	s-2.39,4.08-4.47,4.95c-0.69-3.94-1.38-7.88-2.06-11.83c-0.14-0.81-0.35-1.73-1.04-2.18c-0.5-0.32-1.14-0.33-1.73-0.32
	c-4.62,0.06-9.79,0.38-12.9,3.8c-4.23,4.62-2.47,12.55-6.46,17.38c-1.89-5.05-2.72-10.49-2.44-15.87c0.09-1.69,0.25-3.5-0.61-4.95
	c-0.86-1.45-3.25-2.06-4.19-0.66c-0.61,0.91-0.35,2.22-1.01,3.1c-0.75,1.01-2.24,0.94-3.49,1.06c-3.86,0.37-7,3.51-8.51,7.08
	c-1.51,3.57-1.69,7.54-1.85,11.42c-1.6-3.13-1.14-6.87-1.06-10.38c0.08-3.52-0.52-7.51-3.41-9.53c-3.31-2.32-8.71-0.18-9.52,3.79
	c-2.26-1.98-6.15-1.63-8.03,0.72c-1-2.09-3.36-3.44-5.67-3.24c-6.48,0.56-6.72,10.04-5.27,14.64c0.14,0.43,0.31,0.88,0.66,1.16
	c1.13,0.88,2.63-0.67,2.91-2.08c0.35-1.75,0.06-3.58,0.26-5.36c0.19-1.78,1.07-3.7,2.77-4.26c1.6,6.97,3.19,13.93,4.78,20.9
	c0.32,1.42,0.96,3.12,2.39,3.29c1.19,0.14,2.23-0.99,2.45-2.17c0.22-1.18-0.13-2.39-0.42-3.55c-1.31-5.22-1.42-10.73-0.34-16
	c0.88,4.58,2.14,9.09,3.72,13.48c0.22,0.61,0.49,1.27,1.06,1.59c0.83,0.47,1.93-0.06,2.41-0.88c0.48-0.82,0.49-1.82,0.43-2.77
	c-0.16-2.83-0.76-5.63-0.7-8.46c0.05-2.83,0.88-5.82,3.03-7.66c3.18,7.25,0.46,16.13,3.95,23.23c1.21,2.47,4.38,4.73,6.49,2.98
	c1.04-0.86,1.29-2.34,1.46-3.69c0.42-3.33,0.85-6.66,1.27-9.99c0.03,2.67,1.91,5.22,4.46,6.03c2.54,0.81,5.56-0.19,7.12-2.35
	c0.24,2.37,2.85,4.02,5.21,3.75c2.37-0.27,4.36-2.03,5.51-4.12c1.15-2.08,1.61-4.48,2.03-6.82c-0.4,3.1,2.15,6.25,5.25,6.52
	c3.11,0.27,6.16-2.39,6.31-5.5c1.13,4.85-3.23,8.99-5.83,13.23c-2.16,3.52-3.19,7.97-1.68,11.8c1.52,3.83,6.11,6.51,9.95,4.99
	c3.43-1.35,5.1-5.36,5.24-9.04c0.14-3.69-0.86-7.33-1.01-11.01c-0.16-3.69,0.77-7.78,3.77-9.91c0.08,4.31,1.18,8.58,3.18,12.4
	c0.63,1.21,1.46,2.45,2.75,2.91c2.76,0.99,5.16-2.07,6.51-4.67c1.08,3.59,2.7,7.73,6.33,8.71c2.99,0.81,6.19-1.09,7.89-3.68
	c1.69-2.6,2.23-5.76,2.72-8.81c0.46,2.42,2.54,4.46,4.97,4.87c2.43,0.41,5.06-0.83,6.29-2.98c-0.48,3.95,4.94,5.73,6.98,9.15
	c1.38,2.31,1.18,5.46,3.04,7.43c1.72,1.82,4.73,1.88,6.97,0.76c2.24-1.13,3.85-3.18,5.23-5.28c2.69-4.05,4.8-8.48,6.27-13.11
	C168.38,164.39,168.59,163.13,167.8,162.46z M59.37,161.08c-0.14,0.37-0.17,0.94-0.7,0.91c-0.47-0.03-0.55-0.54-0.73-0.91
	c-0.81-1.72-0.88-3.57-1.06-5.01c0.03-1.53,0.11-2.67,0.62-3.71c0.25-0.5,0.47-1.32,1.21-1.02c0.76,0.3,1.89,0.52,1.83,1.66
	C60.36,155.71,60.34,158.47,59.37,161.08z M85.6,150.21c-0.78,2.79-1.52,5.6-2.8,8.5c-1.78-2.82-1.55-7.66,0.32-9.72
	c0.38-0.42,0.78-1.14,1.42-0.64C85.09,148.77,85.89,149.19,85.6,150.21z M90.78,181.13c-0.47,1.73-1.64,2.54-3.24,2.53
	c-1.56-0.01-1.98-1.42-2.19-2.65c-0.66-3.89,0.8-7.26,2.83-10.45c0.45-0.7,0.98-1.34,1.52-1.99c0.2-0.24,0.34-0.71,0.79-0.55
	c0.38,0.14,0.17,0.52,0.19,0.78c0.16,2.5,0.29,5.01,0.43,7.41C90.92,177.91,91.22,179.52,90.78,181.13z M138.48,153.84
	c-0.6,3.59-1.42,7.12-3.24,10.33c-0.24,0.43-0.49,1.1-1.14,0.94c-0.51-0.12-0.51-0.74-0.67-1.18c-0.39-1.09-0.37-2.23-0.4-3.36
	c0.07-2.95,0.7-5.69,2.9-7.84c0.58-0.57,1.19-1.32,2.16-0.83C138.93,152.34,138.59,153.19,138.48,153.84z M151.36,161.46
	c0.28-0.22,0.03-2.81,0.04-3.26c0.04-1.14,0.12-2.28,0.21-3.42c0.19-2.27,0.5-4.54,0.91-6.79c0.79-4.31,1.93-8.53,3.82-12.49
	c0.41-0.86,0.88-1.74,1.67-2.27c0.21-0.14,0.5-0.25,0.7-0.1c0.19,0.14,0.18,0.41,0.17,0.64c-0.8,9.02-3.03,17.92-6.58,26.25
	C152.06,160.54,151.81,161.1,151.36,161.46z M178.74,91.5c-0.68-2.93-2.49-5.12-5.43-6.2c-2.95-1.08-6-1.08-9.03-0.6
	c-2.14,0.35-3.26,1.79-3.48,3.99c-0.26,2.68-0.5,5.36-0.74,8.04c-0.86,9.35-1.7,20.27-2.57,29.75c-0.07,0.79,0.32,1.55,1.02,1.94
	c1.75,0.98,3.61,1.78,5.19,2.39c-0.11-0.13-0.17-0.31-0.18-0.52c-0.04-0.51,0.38-0.58,0.73-0.44c0.45,0.19,1.04,0.22,1.29,0.68
	c-0.19,0.69-0.66,0.54-1.06,0.57c0.31,0.12,0.6,0.22,0.88,0.32c1.29,0.45,2.7-0.31,2.98-1.64c0-0.01,0.01-0.01,0.01-0.02
	c0.62-2.92,1.19-5.84,1.84-9.08c0.17,0.4,0.24,0.5,0.27,0.61c0.98,4.31,1.93,8.63,2.52,13.02c0.12,0.83,0.3,2.08,1.44,1.83
	c1.01-0.22,1.25-1.3,1.01-2.37c-0.2-0.87-0.33-1.76-0.48-2.65c-0.8-4.59-1.8-9.14-3.13-13.62c-0.27-0.91-0.59-1.65,0.9-1.87
	c3.52-0.52,6.48-3.61,6.92-7.21C180.33,102.75,180.05,97.08,178.74,91.5z M166.52,127.11c-0.07,1.14-0.66,0.46-1.21,0.37
	c-1.4-0.24-2.83-0.37-4.24-0.48c-0.83-0.06-1.47-0.07-1.4-1.27c0.07-1.16,0.65-1.24,1.52-1.2c1.58,0.29,3.15,0.65,4.74,0.86
	C167.38,125.59,166.56,126.49,166.52,127.11z M167.35,122.5c-0.13,0.74-0.7,0.48-1.13,0.37c-1.68-0.45-3.38-0.69-5.11-0.7
	c-0.66,0-1.27-0.04-1.01-0.86c-0.02-2.2,0.24-2.35,2.24-1.8c1.02,0.28,2.09,0.45,3.16,0.55c0.64,0.06,1.09,0.4,1.6,0.69
	C167.92,121.24,167.45,121.91,167.35,122.5z M167.84,118.22c-1.13-0.86-2.47-0.59-3.64-0.93c-0.85-0.25-1.72-0.45-2.59-0.65
	c-0.63-0.14-1.14-0.29-0.94-1.15c0.21-0.96,0.83-0.45,1.26-0.37c1.81,0.3,3.56,0.81,5.44,0.87
	C169.19,116.03,167.62,117.41,167.84,118.22z M170.52,92.29c-0.64,6.35-1.27,12.72-1.8,19.08c-0.13,1.56-0.86,1.93-2.2,1.78
	c-1.66-0.19-3.21-0.85-4.88-1.09c-1.43-0.21-0.2-1.52-0.57-2.17c0.61-7.04,1.57-13.97,1.91-20.96c0.05-0.93,0.4-1.44,1.35-1.55
	c0.41-0.04,0.81-0.21,1.23-0.23C170.95,86.8,171.05,86.93,170.52,92.29z M177.24,107.89c-0.38,2.68-2.85,5.01-5.26,5.01
	c-0.57,0-1.04,0.11-0.94-0.8c0.82-7.82,1.59-15.66,2.39-23.66c1.7,1.01,2.7,2.39,3.06,4.13C177.5,97.63,177.97,102.73,177.24,107.89
	z"/>
<path class="st17" d="M165.54,130.55c-0.19,0.69-0.66,0.54-1.06,0.57h-0.01c-0.24-0.09-0.5-0.19-0.78-0.29
	c-0.11-0.13-0.17-0.31-0.18-0.52c-0.04-0.51,0.38-0.58,0.73-0.44C164.71,130.06,165.3,130.08,165.54,130.55z"/>
<path class="st17" d="M94.21,99.88c1.11-4.12,2.24-8.23,3.31-12.36c0.72-2.77,1.33-5.57,2.01-8.35c0.18-0.75,0.38-1.69,1.43-1.43
	c0.89,0.22,0.74,1.07,0.63,1.81c-0.9,5.86-2.55,11.54-4.14,17.23c-0.7,2.53-1.46,5.04-2.24,7.55c-0.34,1.1-0.47,2.2-0.57,3.34
	c-0.43,5.06-0.86,10.13-1.42,15.17c-0.25,2.23-0.95,2.71-3.21,2.72c-1.32,0.01-2.63-0.03-3.95-0.02c-2.12,0.02-3.05-0.67-3.6-2.72
	c-0.72-2.66-0.36-5.36-0.26-8.04c0.09-2.21,0.35-4.41,0.53-6.61c0.15-1.81-0.09-3.55-0.66-5.3c-1.79-5.53-2.58-11.29-3.59-16.99
	c-0.26-1.43-0.72-1.88-2.3-1.77c-10.64,0.73-21.15,2.31-31.62,4.23c-4.76,0.88-9.53,1.69-14.3,2.54c-0.66,0.12-1.32,0.27-1.75-0.46
	c-0.46-0.79,0.19-1.2,0.6-1.69c2.09-2.49,3.52-5.39,5.21-8.13c0.33-0.53,0.54-1.03-0.01-1.61c-1.76-1.86-3.03-4.16-5.2-5.67
	c-0.84-0.58-1.74-1.31-1.43-2.46c0.28-1.02,1.33-1.31,2.28-1.5c7.67-1.54,15.14-3.91,22.89-5.16c11.3-1.82,22.6-3.34,34.08-2.85
	c0.9,0.04,2.17-0.42,2.62,0.56c0.52,1.15-0.65,1.94-1.33,2.72c-1.17,1.36-2.38,2.67-3.38,4.18c-0.51,0.78-0.52,1.19,0.22,1.9
	c2.93,2.81,5.76,5.73,8.62,8.61c0.08,0.08,0.18,0.16,0.24,0.27c0.49,0.9,1.65,1.69,1.23,2.78c-0.44,1.15-1.77,0.8-2.73,0.82
	c-1.66,0.02-2.28,0.45-1.74,2.28C92.08,90.16,92.8,95,94.21,99.88z M29.44,71.47c2.81,1.53,4.17,4.08,6.09,6.1
	c1.39,1.47,1.44,2.74,0.39,4.44c-1.3,2.11-2.85,4.1-3.86,6.62c0.76-0.08,1.36-0.09,1.92-0.21c13.95-2.84,27.98-5.17,42.19-6.33
	c1.43-0.12,1.87-0.45,1.15-1.79c-0.69-1.29-0.2-2.06,1.18-2.3c1.71-0.3,3.37-0.78,5.04-1.22c2.78-0.73,4.75,0.44,5.72,3.19
	c0.1,0.28,0.19,0.56,0.29,0.85c0.32,0.98,1.09,0.43,1.67,0.45c0.38,0.01,0.96,0.2,1.13-0.25c0.25-0.65-0.48-0.88-0.82-1.23
	c-1.25-1.28-2.66-2.43-3.82-3.78c-1.33-1.55-2.6-3.19-4.39-4.18c-1.65-0.91-1.51-1.78-0.61-3.13c1.2-1.8,2.52-3.5,4.19-5.31
	C67.16,62.75,48.45,66.51,29.44,71.47z M79.85,81.54c0.39,1.99,0.78,3.98,1.19,5.97c1.02,4.96,1.79,9.98,3.28,14.84
	c0.4,1.3,0.91,2.03,2.5,1.63c1.07-0.27,2.33-0.31,3.38-0.01c2.02,0.57,1.76-0.53,1.53-1.74c-1.31-6.97-2.7-13.92-4.66-20.75
	c-0.46-1.59-1.39-2.19-2.9-1.89c-1.28,0.25-2.51,0.71-3.78,1.01C79.77,80.74,79.82,81.1,79.85,81.54z M87.97,106.48
	c-0.68,0.06-1.42,0.04-2.1,0.21c-1.12,0.28-0.78,1.33-0.88,2.09c-0.15,1.03,0.69,0.72,1.22,0.75c1.6,0.1,3.22-0.24,4.78,0.46
	c0.53,0.24,1.2,0.07,1.07-0.7c-0.14-0.82,0.87-2.02-0.5-2.42C90.43,106.55,89.19,106.6,87.97,106.48z M91.41,118.41
	c0.17-0.94-0.34-1.36-1.29-1.4c-1.37-0.05-2.74-0.13-4.11-0.12c-0.51,0.01-1.31-0.76-1.5,0.48c-0.17,1.1,0.4,1.55,1.34,1.64
	c1.54,0.14,3.11,0.02,4.61,0.33C91.49,119.55,91.42,119.12,91.41,118.41z M88.21,114.32c0,0.04,0,0.07,0,0.11c0.77,0,1.54,0,2.32,0
	c0.52,0,1.09,0.16,1.18-0.67c0.08-0.74-0.17-0.97-0.91-1.17c-1.57-0.44-3.16-0.39-4.75-0.52c-0.95-0.08-1.4,0.2-1.42,1.25
	c-0.02,1.2,0.78,0.97,1.44,1C86.78,114.35,87.5,114.32,88.21,114.32z M86.85,122.71c0-0.02,0-0.04,0-0.06
	c1.07,0.09,2.13,0.23,3.2,0.27c0.59,0.02,1.09-0.3,0.97-0.99c-0.12-0.7-0.65-0.24-0.99-0.23c-1.43,0.05-2.85,0.22-4.27-0.05
	c-0.33-0.06-0.92-0.4-0.98,0.3c-0.04,0.46,0.35,0.74,0.83,0.76C86.02,122.72,86.44,122.71,86.85,122.71z"/>
<path class="st17" d="M145.93,89.75c0.37,2.93,0.71,6.56,1.29,10.15c1.11,6.92,1.32,13.92,2.07,20.87c0.24,2.2,0.56,4.38,0.85,6.57
	c0.05,0.41,0.21,0.83,0.18,1.23c-0.06,0.82-0.05,1.83-1.12,1.96c-1.21,0.16-1.21-0.95-1.34-1.72c-0.76-4.42-1.25-8.88-1.42-13.36
	c-0.04-1.14-0.26-1.67-1.55-1.76c-3.33-0.25-3.37-0.32-3.83,3.11c-0.46,3.38-1.13,6.7-2.13,9.97c-1.05,3.44-1.88,3.97-6.05,3.22
	c-0.87-0.16-1.7-0.56-2.56-0.81c-2.9-0.84-3.63-2.06-2.84-5.03c0.75-2.83,1.57-5.63,2.36-8.45c2.51-8.91,3.76-18.11,6.08-27.06
	c0.4-1.56,0.83-3.11,1.12-4.7c0.24-1.36,1-1.68,2.17-1.33c1.08,0.32,2.14,0.74,3.21,1.1C145.39,84.7,146.22,85.96,145.93,89.75z
	 M143.5,89.05c0.29-1.82-0.99-2.18-2.31-2.58c-2.16-0.66-2.18-0.69-2.67,1.56c-1.3,5.94-2.59,11.88-3.87,17.82
	c-0.26,1.22-1.06,2.82-0.58,3.57c0.62,0.96,2.4,0.54,3.69,0.66c0.29,0.03,0.58,0.14,0.87,0.2c0.78,0.15,1.21-0.11,1.33-0.98
	c0.26-1.83,0.6-3.64,0.92-5.46C141.74,98.91,142.62,93.98,143.5,89.05z M144.19,98.75c-0.49,3.04-0.97,6.09-1.49,9.12
	c-0.47,2.7-0.48,2.63,2.12,3.09c1.02,0.18,1.24-0.04,1.18-1.02C145.77,106.16,145.43,102.39,144.19,98.75z M131.58,120.47
	c-0.86,0.16-0.7,1-0.89,1.54c-0.26,0.73,0.38,0.76,0.85,0.7c1.75-0.21,3.45-0.01,5.11,0.57c0.86,0.3,0.8-0.47,1-0.88
	c0.29-0.58,0-0.86-0.59-0.98C135.25,121.07,133.36,121.2,131.58,120.47z M136.35,118.72c0.67,0,1.09,0.03,1.5-0.01
	c0.45-0.04,0.54-0.4,0.57-0.77c0.03-0.36,0.05-0.7-0.46-0.79c-1.62-0.28-3.24-0.58-4.87-0.87c-0.8-0.14-0.98,0.39-1.15,1.03
	c-0.25,0.94,0.55,0.81,0.95,0.89C134.12,118.46,135.37,118.58,136.35,118.72z M131.69,125.16c-0.42,0-0.96-0.01-1.49,0
	c-0.29,0.01-0.4,0.25-0.44,0.48c-0.03,0.23,0.01,0.5,0.29,0.59c1.77,0.53,3.49,1.23,5.36,1.31c0.6,0.02,1-0.36,1.05-1
	c0.05-0.67-0.5-0.78-0.95-0.85C134.28,125.5,133.09,125.04,131.69,125.16z M133.87,112.19c-0.5-0.14-0.71,0.21-0.82,0.86
	c-0.14,0.84,0.46,0.7,0.87,0.74c1.43,0.14,2.86,0.24,4.2,0.8c0.58,0.24,0.93,0.05,1.04-0.54c0.11-0.55,0.16-1.04-0.67-1.14
	C137.02,112.73,135.55,112.46,133.87,112.19z"/>
<path class="st17" d="M11.97,105.59c-1.09-4.17-2.11-3.54,2.67-5.65c1.25-0.55,2.57-0.95,3.82-1.52c1.19-0.54,1.85-0.16,2.09,1.03
	c1.62,8.23,4.79,15.98,7.31,23.94c0.78,2.46,0.68,2.68-1.66,3.56c-1.9,0.72-3.87,1.3-5.63,2.27c-1.65,0.92-2.43,0.18-3.16-1.04
	c-1.22-2.05-2.39-4.13-3.59-6.19c-0.17-0.29-0.23-0.69-0.92-0.8c0.73,2.67,1.34,5.26,2.17,7.78c0.42,1.26,0.2,1.93-1.01,2.35
	c-1.86,0.65-3.71,1.32-5.55,2.01c-1.04,0.39-1.5-0.03-1.84-1.01c-1.27-3.56-2.06-7.25-2.77-10.92c-0.93-4.76-2.31-9.38-3.7-14.01
	c-0.28-0.92-0.35-1.61,0.66-2.04c2.08-0.89,3.95-2.2,6.14-2.88c1.04-0.32,1.67-0.19,2.3,0.67c0.7,0.96,1.52,1.84,2.28,2.75
	c0.09,0.14,0.18,0.27,0.27,0.41c0.13,0.25,0.27,0.5,0.4,0.74c0.25-0.36,0.26-0.7-0.1-1C12.07,105.89,12.02,105.74,11.97,105.59z
	 M19.16,115.18c0.14,0.98,0.04,1.46-0.51,1.62c-0.64,0.19-0.95-0.36-1.31-0.75c-3.18-3.43-5.66-7.4-8.45-11.13
	c-1.29-1.73-2.37-0.58-3.54-0.22c-1.35,0.42-1.44,1.34-0.94,2.55c0.39,0.93,0.56,1.95,0.86,2.91c1.99,6.32,3.08,12.89,5.24,19.16
	c0.25,0.73,0.15,1.9,1.67,1.3c1.15-0.45,1.7-0.87,1.16-2.15c-0.34-0.82-0.49-1.72-0.71-2.59c-1.19-4.56-2.39-9.12-3.59-13.68
	c-0.14-0.53-0.38-1.08,0.26-1.42c0.52-0.28,0.85,0,1.16,0.47c2.77,4.1,5.64,8.14,8.34,12.3c2.43,3.74,2.33,3.73,6.48,2.26
	c1.38-0.49,1.43-1.05,1-2.31c-2.32-6.77-4.69-13.52-6.62-20.42c-0.96-3.45-0.85-3.45-4.22-1.94c-0.97,0.43-1.19,0.89-0.8,1.9
	c1.37,3.5,2.66,7.02,3.97,10.54C18.89,114.26,19.08,114.95,19.16,115.18z"/>
<path class="st9" d="M19.14,115.16c0.14,0.98,0.04,1.46-0.51,1.62c-0.64,0.19-0.95-0.36-1.31-0.75c-3.18-3.43-5.66-7.4-8.45-11.13
	c-1.29-1.73-2.37-0.58-3.54-0.22c-1.35,0.42-1.44,1.34-0.94,2.55c0.39,0.93,0.56,1.95,0.86,2.91c1.99,6.32,3.08,12.89,5.24,19.16
	c0.25,0.73,0.15,1.9,1.67,1.3c1.15-0.45,1.7-0.87,1.16-2.15c-0.34-0.82-0.49-1.72-0.71-2.59c-1.19-4.56-2.39-9.12-3.59-13.68
	c-0.14-0.53-0.38-1.08,0.26-1.42c0.52-0.28,0.85,0,1.16,0.47c2.77,4.1,5.64,8.14,8.34,12.3c2.43,3.74,2.33,3.73,6.48,2.26
	c1.38-0.49,1.43-1.05,1-2.31c-2.32-6.77-4.69-13.52-6.62-20.42c-0.96-3.45-0.85-3.45-4.22-1.94c-0.97,0.43-1.19,0.89-0.8,1.9
	c1.37,3.5,2.66,7.02,3.97,10.54C18.87,114.23,19.07,114.92,19.14,115.16z"/>
<path class="st17" d="M115.7,123.71c0.98-0.02,2.47-0.36,3.96-0.03c1.02,0.22,1.07,0.92,1,1.78c-0.07,0.88-0.62,1.13-1.34,1.07
	c-3.4-0.26-6.8,0.14-10.19,0.17c-4.35,0.05-5.77-1.1-6.34-5.44c-0.37-2.84,0.26-5.6,0.56-8.38c1.1-10.15,2.68-20.24,4.18-30.34
	c0.18-1.2,0.74-1.72,1.92-1.96c4.41-0.88,8.79-0.56,13.17,0.16c0.97,0.16,2.03,0.24,1.81,1.64c-0.21,1.38-1.29,1.17-2.24,1.09
	c-1.19-0.11-2.38-0.25-3.55-0.46c-0.89-0.16-1.25,0.02-1.37,1.02c-0.75,6.28-1.57,12.56-2.41,18.83c-0.19,1.39-0.21,2.45,1.67,2.39
	c0.96-0.03,1.61,0.48,1.45,1.58c-0.15,1.04-1.02,1.25-1.76,1.04c-1.79-0.5-1.87,0.56-2.01,1.82c-0.45,4.04-1,8.06-1.42,12.11
	C112.57,124.09,112.18,123.74,115.7,123.71z M114.6,82.64c-4.58-0.05-4.59-0.04-5.28,4.43c-0.03,0.18-0.07,0.35-0.1,0.53
	c-0.74,5.09-1.5,10.17-2.22,15.26c-0.1,0.68-0.32,1.53,0.79,1.61c1.54,0.11,3.1,0.85,4.62-0.03c0.13-0.08,0.11-0.45,0.13-0.68
	c0.65-6.79,1.53-13.54,2.82-20.24C115.51,82.79,115.38,82.47,114.6,82.64z M108.05,119.17
	C108.05,119.17,108.05,119.17,108.05,119.17c0.65-0.01,1.31-0.01,1.96-0.01c0.48,0,0.81-0.2,0.8-0.73
	c-0.01-0.52,0.45-1.36-0.01-1.49c-1.69-0.45-3.45-0.65-5.18-0.93c-0.05-0.01-0.17,0.17-0.18,0.27c-0.1,0.82-0.56,1.67-0.22,2.45
	c0.31,0.72,1.16,0.34,1.77,0.42C107.33,119.21,107.69,119.17,108.05,119.17z M105.85,112.73c-0.2,0.9,0,1.34,0.98,1.13
	c1.14-0.25,2.26-0.01,3.38,0.23c0.75,0.16,1.28,0.15,1.36-0.83c0.07-0.83,0.01-1.35-1.04-1.38c-1.01-0.03-2.02-0.24-3-0.48
	C106.26,111.08,105.67,111.45,105.85,112.73z M110.69,109.26c0.93,0.23,1.27,0.01,1.35-0.7c0.06-0.5,0.24-0.99-0.48-1.09
	c-1.42-0.2-2.84-0.37-4.26-0.57c-0.78-0.11-0.84,0.47-0.97,1c-0.14,0.61,0.12,0.88,0.72,0.94
	C108.36,108.97,109.67,109.14,110.69,109.26z M108.09,121.89c0-0.02,0-0.04,0-0.06c-0.53,0-1.06-0.02-1.59,0.01
	c-0.36,0.02-0.88-0.3-1.04,0.3c-0.12,0.44,0.21,0.79,0.48,1.09c0.55,0.62,3.36,0.89,4.07,0.45c0.57-0.36,0.42-0.94,0.42-1.44
	c0-0.65-0.52-0.47-0.91-0.44C109.03,121.83,108.56,121.86,108.09,121.89z"/>
<path class="st17" d="M61.09,104.95c-0.61-3.78-0.39-7.29-0.77-10.77c-0.17-1.57,0.23-2.21,1.88-2.12c1.73,0.09,3.47-0.05,5.2-0.05
	c1.37-0.01,2.09,0.62,2.06,2.08c-0.18,8.46,0.86,16.84,1.84,25.22c0.27,2.35,0.18,2.44-2.19,2.98c-4.85,1.1-4.84,1.1-7.6-2.95
	c-0.6-0.88-1.23-1.75-1.99-2.82c-0.71,1.71-0.84,3.35-1.17,4.93c-0.35,1.72-1.03,2.89-3.09,2.61c-1.07-0.14-2.06,0.48-3.16,0.52
	c-1.67,0.06-2.5-0.57-2.87-2.19c-1.24-5.35-2.58-10.68-3.83-16.03c-0.72-3.08-1.31-6.19-2.03-9.28c-0.25-1.09-0.12-1.74,1.06-2.19
	c6.34-2.43,4.81-2.38,6.82,2.87c1.22,3.18,1.86,6.53,2.96,10.19c0.84-2.07,0.95-3.87,1.3-5.61c0.4-1.96,0.86-2.19,2.33-0.86
	C58.91,102.44,59.84,103.6,61.09,104.95z M65.6,109.61c-0.27,0.67,0.27,1.66-0.63,1.91c-0.72,0.2-1.01-0.71-1.39-1.19
	c-1.85-2.33-3.66-4.7-5.5-7.06c-0.28-0.36-0.54-0.89-1.1-0.71c-0.49,0.15-0.35,0.7-0.43,1.09c-0.48,2.34-0.94,4.68-1.43,7.02
	c-0.11,0.5-0.14,1.22-0.81,1.23c-0.77,0.01-0.56-0.75-0.7-1.23c-1.55-5.01-2.63-10.16-4.46-15.09c-0.36-0.97-0.76-0.96-1.58-0.66
	c-0.79,0.29-1.44,0.43-1.04,1.55c0.58,1.63,1.1,3.29,1.48,4.97c1.52,6.69,2.96,13.4,4.48,20.1c0.14,0.63-0.01,1.84,1.24,1.5
	c1.17-0.32,2.87,0.43,3.24-1.68c0.47-2.64,1.18-5.24,1.69-7.88c0.27-1.4,0.85-1.26,1.61-0.45c0.94,1,1.86,2.03,2.7,3.11
	c1.1,1.41,2.16,2.86,3.16,4.35c1.01,1.51,2.26,0.59,3.38,0.35c1.11-0.24,0.49-1.18,0.42-1.8c-0.94-7.95-2.07-15.9-1.88-23.94
	c0.05-1.91-1.07-1.67-2.3-1.74c-1.62-0.09-1.63,0.78-1.54,2C64.54,100.13,64.72,104.91,65.6,109.61z"/>
<path class="st10" d="M65.6,109.61c-0.27,0.67,0.27,1.66-0.63,1.91c-0.72,0.2-1.01-0.71-1.39-1.19c-1.85-2.33-3.66-4.7-5.5-7.06
	c-0.28-0.36-0.54-0.89-1.1-0.71c-0.49,0.15-0.35,0.7-0.43,1.09c-0.48,2.34-0.94,4.68-1.43,7.02c-0.11,0.5-0.14,1.22-0.81,1.23
	c-0.77,0.01-0.56-0.75-0.7-1.23c-1.55-5.01-2.63-10.16-4.46-15.09c-0.36-0.97-0.76-0.96-1.58-0.66c-0.79,0.29-1.44,0.43-1.04,1.55
	c0.58,1.63,1.1,3.29,1.48,4.97c1.52,6.69,2.96,13.4,4.48,20.1c0.14,0.63-0.01,1.84,1.24,1.5c1.17-0.32,2.87,0.43,3.24-1.68
	c0.47-2.64,1.18-5.24,1.69-7.88c0.27-1.4,0.85-1.26,1.61-0.45c0.94,1,1.86,2.03,2.7,3.11c1.1,1.41,2.16,2.86,3.16,4.35
	c1.01,1.51,2.26,0.59,3.38,0.35c1.11-0.24,0.49-1.18,0.42-1.8c-0.94-7.95-2.07-15.9-1.88-23.94c0.05-1.91-1.07-1.67-2.3-1.74
	c-1.62-0.09-1.63,0.78-1.54,2C64.54,100.13,64.72,104.91,65.6,109.61z"/>
<path class="st17" d="M40.62,119.93c3.92-0.33,4.01-0.27,4.35,3.51c0.07,0.71,0.08,1.43,0.1,2.15c0.02,0.7-0.32,1.17-1.03,1.22
	c-3.63,0.24-7.1,1.61-10.81,1.34c-1.75-0.13-2.81-0.55-3.14-2.55c-1.41-8.53-3.68-16.93-3.81-25.65c-0.01-0.36-0.03-0.72-0.05-1.07
	c-0.12-1.61,0.43-2.39,2.23-2.64c3.06-0.43,6.05-1.38,9.19-1.32c2.61,0.05,2.86,0.31,2.94,2.84c0.11,3.58,0.11,3.58-3.37,4.21
	c-0.35,0.06-0.7,0.14-1.06,0.2c-2.67,0.44-2.59,0.43-2.1,3.01c0.24,1.23,0.88,1.45,1.96,1.51c3.42,0.2,3.42,0.24,3.66,3.67
	c0.19,2.68,0.19,2.73-2.47,2.89c-1.4,0.09-1.96,0.55-1.41,1.96c0.24,0.61,0.42,1.24,0.61,1.87
	C37.36,120.21,37.36,120.21,40.62,119.93z M35.34,126.71c2.57-0.26,5.12-0.71,7.62-1.35c0.18-0.05,0.37-0.1,0.48-0.25
	c0.11-0.15,0.1-0.35,0.09-0.53c-0.04-0.69-0.07-1.39-0.11-2.08c-0.01-0.26-0.03-0.54-0.18-0.75c-0.24-0.34-0.72-0.39-1.13-0.4
	c-1.34-0.04-2.67,0.03-4,0.2c-0.59,0.08-1.26,0.16-1.73-0.21c-0.36-0.28-0.52-0.75-0.65-1.18c-0.63-2.09-1.24-4.2-1.82-6.3
	c-0.06-0.23-0.13-0.47-0.07-0.7c0.09-0.34,0.42-0.54,0.73-0.69c0.71-0.34,1.48-0.53,2.27-0.58c0.42-0.02,0.91-0.04,1.16-0.38
	c0.11-0.15,0.15-0.33,0.18-0.51c0.14-0.87,0.06-1.89-0.62-2.46c-0.61-0.5-1.48-0.48-2.27-0.47c-0.79,0-1.69-0.1-2.16-0.74
	c-0.23-0.32-0.31-0.71-0.38-1.09c-0.2-1.02-0.4-2.04-0.59-3.06c-0.07-0.38-0.14-0.78,0-1.14c0.26-0.64,1.05-0.84,1.73-0.95
	c1.36-0.23,2.73-0.46,4.09-0.69c0.4-0.07,0.85-0.17,1.03-0.53c0.1-0.2,0.09-0.43,0.07-0.65c-0.04-0.61-0.07-1.21-0.11-1.82
	c-0.02-0.27-0.05-0.57-0.24-0.75c-0.19-0.18-0.48-0.19-0.74-0.18c-2.27,0.02-4.53,0.27-6.75,0.76c-0.46,0.1-0.97,0.25-1.31,0.6
	c-0.44,0.45-0.28,1.01-0.23,1.58c0.12,1.38,0.26,2.75,0.41,4.13c0.29,2.75,0.63,5.49,1.02,8.23c0.38,2.74,0.81,5.47,1.29,8.19
	c0.31,1.76,0.63,3.51,0.98,5.26c0.11,0.58,0.29,1.23,0.82,1.47c0.29,0.13,0.62,0.11,0.93,0.08
	C35.2,126.72,35.27,126.72,35.34,126.71z"/>
<path class="st1" d="M35.34,126.71c2.57-0.26,5.12-0.71,7.62-1.35c0.18-0.05,0.37-0.1,0.48-0.25c0.11-0.15,0.1-0.35,0.09-0.53
	c-0.04-0.69-0.07-1.39-0.11-2.08c-0.01-0.26-0.03-0.54-0.18-0.75c-0.24-0.34-0.72-0.39-1.13-0.4c-1.34-0.04-2.67,0.03-4,0.2
	c-0.59,0.08-1.26,0.16-1.73-0.21c-0.36-0.28-0.52-0.75-0.65-1.18c-0.63-2.09-1.24-4.2-1.82-6.3c-0.06-0.23-0.13-0.47-0.07-0.7
	c0.09-0.34,0.42-0.54,0.73-0.69c0.71-0.34,1.48-0.53,2.27-0.58c0.42-0.02,0.91-0.04,1.16-0.38c0.11-0.15,0.15-0.33,0.18-0.51
	c0.14-0.87,0.06-1.89-0.62-2.46c-0.61-0.5-1.48-0.48-2.27-0.47c-0.79,0-1.69-0.1-2.16-0.74c-0.23-0.32-0.31-0.71-0.38-1.09
	c-0.2-1.02-0.4-2.04-0.59-3.06c-0.07-0.38-0.14-0.78,0-1.14c0.26-0.64,1.05-0.84,1.73-0.95c1.36-0.23,2.73-0.46,4.09-0.69
	c0.4-0.07,0.85-0.17,1.03-0.53c0.1-0.2,0.09-0.43,0.07-0.65c-0.04-0.61-0.07-1.21-0.11-1.82c-0.02-0.27-0.05-0.57-0.24-0.75
	c-0.19-0.18-0.48-0.19-0.74-0.18c-2.27,0.02-4.53,0.27-6.75,0.76c-0.46,0.1-0.97,0.25-1.31,0.6c-0.44,0.45-0.28,1.01-0.23,1.58
	c0.12,1.38,0.26,2.75,0.41,4.13c0.29,2.75,0.63,5.49,1.02,8.23c0.38,2.74,0.81,5.47,1.29,8.19c0.31,1.76,0.63,3.51,0.98,5.26
	c0.11,0.58,0.29,1.23,0.82,1.47c0.29,0.13,0.62,0.11,0.93,0.08C35.2,126.72,35.27,126.72,35.34,126.71z"/>
<path class="st1" d="M25.42,23.34c0.68,0.23,1.63,0.44,2.47,0.87c1.8,0.91,3.56,1.91,5.31,2.91c0.59,0.34,1.08,0.87,0.69,1.62
	c-0.37,0.72-1.11,0.66-1.74,0.47c-0.61-0.19-1.2-0.52-1.75-0.85c-1.74-1.04-3.57-1.88-5.43-2.67c-0.67-0.28-1.29-0.79-1.1-1.62
	C24.01,23.47,24.62,23.36,25.42,23.34z"/>
<path class="st1" d="M152.14,25.38c0.44-0.03,0.89,0,1.04,0.48c0.14,0.41,0,0.81-0.27,1.17c-0.65,0.83-1.6,0.99-2.53,1.15
	c-1.81,0.32-3.65,0.5-5.34,1.36c-0.62,0.31-1.44,0.48-1.82-0.45c-0.38-0.95,0.01-1.59,0.91-2.01
	C146.67,25.89,149.45,25.83,152.14,25.38z"/>
<path class="st1" d="M148.81,51.17c-0.06,0.49-0.13,0.95-0.6,1.23c-0.53,0.31-0.96,0.08-1.23-0.34c-1.02-1.54-2.62-2.38-4.02-3.46
	c-0.61-0.47-1.24-0.93-1.5-1.71c-0.32-0.96,0.39-1.65,1.01-1.31c2.34,1.31,5.01,2.31,6.16,5.09
	C148.7,50.84,148.75,51.01,148.81,51.17z"/>
<path class="st1" d="M149.25,40.41c-1.88,0.01-3.64-0.61-5.38-1.22c-0.68-0.24-1.34-0.8-0.98-1.65c0.33-0.76,1.1-0.83,1.86-0.64
	c1.74,0.43,3.48,0.88,5.22,1.28c0.8,0.18,1.71,0.47,1.66,1.34c-0.07,1-1.06,0.91-1.85,0.87C149.61,40.38,149.43,40.41,149.25,40.41z
	"/>
<path class="st1" d="M25.42,49.81c-1.09,0.11-1.66-0.1-1.88-0.73c-0.26-0.73,0.31-1.09,0.88-1.33c2.14-0.89,4.35-1.58,6.65-1.92
	c0.61-0.09,1.25-0.04,1.41,0.72c0.13,0.66-0.16,1.19-0.83,1.39C29.44,48.62,27.23,49.27,25.42,49.81z"/>
<path class="st1" d="M26.62,36.27c1.19,0.07,2.39,0.1,3.57,0.23c0.51,0.06,1.1,0.19,1.16,0.9c0.06,0.73-0.36,1.15-1.02,1.23
	c-2.26,0.27-4.52,0.24-6.78-0.02c-0.78-0.09-1.09-0.79-1.01-1.46c0.08-0.75,0.75-0.78,1.39-0.76c0.89,0.03,1.79,0.01,2.69,0.01
	C26.62,36.35,26.62,36.31,26.62,36.27z"/>
<path class="st17" d="M102.68,139.58c-1.91,0.15-2.12-1.3-2.37-2.41c-0.28-1.21,1.06-2.3,2.56-2.33c0.92-0.02,2.28,1.5,2.25,2.49
	C105.07,138.82,104.23,139.56,102.68,139.58z"/>
<path class="st18" d="M12.13,106.04c0.36,0.3,0.35,0.64,0.1,1c-0.13-0.25-0.27-0.5-0.4-0.74C11.93,106.21,12.03,106.13,12.13,106.04
	z"/>
<path class="st18" d="M11.97,105.59c0.05,0.15,0.11,0.3,0.16,0.45c-0.1,0.09-0.2,0.17-0.3,0.26c-0.09-0.14-0.18-0.27-0.27-0.41
	C11.7,105.79,11.83,105.69,11.97,105.59z"/>
<path class="st17" d="M165.65,98.84c0.55,0.01,0.99,0.26,0.91,0.82c-0.08,0.65-0.01,1.53-0.98,1.62c-0.68,0.06-0.87-0.52-0.95-1.05
	C164.52,99.46,164.92,99.02,165.65,98.84z"/>
<path class="st17" d="M165.72,108.04c-0.13,0.69-0.39,1.16-1.17,1.11c-0.86-0.05-0.85-0.7-0.91-1.28c-0.07-0.77,0.37-1.13,1.08-1.05
	C165.41,106.91,165.7,107.42,165.72,108.04z"/>
<path class="st17" d="M166.92,92.39c-0.17,0.51-0.07,1.23-0.92,1.26c-0.66,0.03-0.96-0.34-0.97-0.97c-0.01-0.64,0.13-1.21,0.9-1.27
	C166.59,91.35,166.87,91.75,166.92,92.39z"/>
<path class="st17" d="M85.07,93.32c-0.68-0.16-1.17-0.57-1.25-1.28c-0.07-0.69,0.39-1.16,1.02-1.21c0.71-0.05,1.02,0.6,1.12,1.16
	C86.06,92.59,85.78,93.14,85.07,93.32z"/>
<path class="st17" d="M85.01,84.96c-0.07,0.7-0.36,1.22-1.08,1.21c-0.72-0.01-1.06-0.57-1.05-1.2c0.01-0.64,0.42-1.19,1.1-1.2
	C84.67,83.76,84.94,84.34,85.01,84.96z"/>
<path class="st17" d="M87.56,98.68c0.05,0.69-0.37,1.05-0.94,1.02c-0.7-0.04-0.88-0.69-0.97-1.27c-0.09-0.54,0.27-1.01,0.76-0.99
	C87.1,97.46,87.5,97.97,87.56,98.68z"/>
<path class="st17" d="M141.38,92.69c-0.09,0.73-0.52,1.11-1.08,1.08c-0.84-0.04-0.99-0.78-1.04-1.43c-0.05-0.61,0.32-1.06,0.94-1.08
	C141.24,91.23,140.91,92.33,141.38,92.69z"/>
<path class="st17" d="M140.03,99.93c-0.22,0.55-0.31,1.29-1.22,1.18c-0.69-0.09-0.81-0.65-0.79-1.19c0.02-0.64,0.24-1.16,1.07-1.04
	C139.7,98.97,140.1,99.21,140.03,99.93z"/>
<path class="st17" d="M138.67,106.34c-0.08,0.74-0.18,1.32-1,1.31c-0.76-0.01-1.04-0.43-1.03-1.14c0.01-0.68,0.29-1.17,1.02-1.21
	C138.44,105.26,138.63,105.81,138.67,106.34z"/>
<path class="st17" d="M111.19,89.9c-0.72-0.14-0.81-0.72-0.81-1.34c0-0.69,0.33-1.17,1.04-1.2c0.84-0.03,1.16,0.58,1.13,1.29
	C112.52,89.41,111.92,89.73,111.19,89.9z"/>
<path class="st17" d="M111.94,94.13c-0.35,0.45-0.23,1.31-1.13,1.34c-0.8,0.02-0.99-0.56-1.01-1.17c-0.02-0.68,0.35-1.11,1.06-1.16
	C111.54,93.08,111.75,93.57,111.94,94.13z"/>
<path class="st17" d="M110.89,100.07c-0.29,0.35-0.14,1.18-0.86,1.06c-0.54-0.09-1-0.52-1.02-1.24c-0.02-0.85,0.68-0.72,1.1-0.79
	C110.69,99.02,110.86,99.52,110.89,100.07z"/>
<g>
	<path class="st10" d="M122.54,68.79c-1.06,3.18-2.56,7.11-3.78,7.28c-0.48,0.07-1.06,0.03-1.53-0.35
		c-0.31-0.21-0.58-0.55-0.78-0.86c-0.55-0.76-0.78-1.66-0.92-2.59c-0.17-1.21-0.2-2.45-0.17-3.66c0.07-2.04,0.27-4.04,0.51-6.04
		c0.03-0.1,0.03-0.24,0.03-0.38c-0.14,0-0.24,0-0.34,0.03l-1.26,0.41c-0.17,0.07-0.34,0.1-0.51,0.14c-0.31,0.03-0.61-0.17-0.72-0.52
		c-0.1-0.24-0.03-0.35,0.34-0.55c0.72-0.41,1.47-0.69,2.25-0.83c0.37-0.07,0.51-0.28,0.55-0.62c0.07-0.45,0.17-0.86,0.27-1.31
		c0.03-0.24,0.1-0.48,0.2-0.69c0.2-0.59,0.37-0.69,0.89-0.66c0.58,0.07,0.92,0.35,0.99,0.86c0.03,0.38,0,0.76,0,1.14v0.62
		c0.61-0.03,1.13-0.07,1.64-0.1c0.51,0,0.72,0.21,0.75,0.83c-0.37,0.07-0.75,0.17-1.12,0.24l-0.99,0.21
		c-0.27,0.03-0.37,0.21-0.37,0.45c-0.03,0.83-0.1,1.66-0.17,2.49c-0.2,2.49-0.31,4.94-0.31,7.42c0,0.83,0.07,1.66,0.31,2.45
		c0.1,0.38,0.24,0.69,0.37,1.07c1.02,0,3.41-6.94,3.55-7.39C122.37,67.44,122.74,68.2,122.54,68.79z"/>
	<path class="st10" d="M134.81,68.34c-0.03,0.14-0.07,0.24-0.07,0.35c-0.41,2.83-1.02,4-1.47,5.14c-0.44,1.1-0.95,1.35-2.11,1.1
		c-0.99-0.21-1.64-0.76-2.01-1.69c-0.24-0.62-0.34-1.24-0.27-1.9c0.07-1.07,0.24-3.83,0.34-4.9c0.07-0.48,0.07-0.97,0.07-1.48
		c0-1.21-1.02-0.45-1.5,0.35c-0.34,0.59-0.65,1.17-0.89,1.79c-0.65,1.66-1.02,3.35-1.02,5.14c0,0.24,0,0.45-0.03,0.69
		c-0.03,0.38-0.2,0.62-0.55,0.69c-0.44,0.1-0.85,0-1.02-0.31c-0.17-0.31-0.34-0.62-0.44-0.93c-0.34-1.1-0.55-2.24-0.55-3.42
		c-0.07-2.17-0.03-4.38,0.2-6.56c0.07-0.86,0.37-2.45,0.68-3.21c0.34-0.66,0.48-0.9,1.16-0.69c0.51,0.1,0.82,0.48,0.82,1.04
		c0,0.86-0.07,0.76-0.61,6.25c-0.1,1-0.2,2-0.27,3c0.03,0.03,0.2-0.17,0.24-0.41c0.58-2.04,1.36-3.62,2.42-4.35
		c0.95-0.69,2.56-0.17,3.03,0.93c0.24,0.59,0.37,1.17,0.37,1.79c-0.07,1.17-0.1,4-0.17,5.18c-0.07,1.07,0.14,2.28,0.58,2.35
		c0.31,0.07,0.44-0.24,0.55-0.45c0.72-1.62,1.47-3.73,1.71-5.25C134.06,68.1,134.3,68.1,134.81,68.34z"/>
	<path class="st10" d="M141.56,68.37c-0.41,1.31-0.92,2.52-1.94,3.45c-0.44,0.41-0.95,0.52-1.47,0.38c-1.26-0.28-2.15-1-2.49-2.31
		c-0.41-1.52-0.24-2.97,0.58-4.32c0.37-0.66,0.89-1.1,1.53-1.42c0.37-0.21,0.78-0.24,1.19-0.1c0.51,0.17,0.78,0.52,0.72,1.07
		c-0.1,1.07-0.72,1.9-1.6,2.38c-0.34,0.21-0.48,0.38-0.48,0.76c0,0.72-0.03,1.45,0.03,2.17c0,0.69,0.55,1.42,1.26,1
		c1.02-0.62,1.4-1.24,2.11-2.9C141.15,68.17,141.05,68.17,141.56,68.37z M137.88,66.92c0.58-0.48,0.95-0.97,1.12-1.62
		c0.07-0.24,0.14-0.48-0.1-0.69C138.39,65.13,137.94,66.09,137.88,66.92z"/>
</g>
<g>
	<path class="st1" d="M67.47,30.65c-0.31,1.97-0.86,4.91-1.73,7.83c0,0.01,0,0.01,0,0.02l-0.02,0.06c0,0.01,0,0.02-0.01,0.03
		c-0.01,0.04-0.02,0.08-0.04,0.12c-1.48,4.88-3.84,9.63-7.44,9.63c-5.47,0-9.35-7.08-9.63-17.61C48.11,12.89,52.63,5.45,55.36,2.6
		c1.61-1.68,3.43-2.6,5.1-2.6c0.37,0,0.73,0.04,1.07,0.12c0.79,0.14,1.48,0.53,2.06,1.16c0.27,0.3,0.51,0.64,0.71,1.01
		c0.48,0.8,0.85,1.8,1.08,2.98c0.37,1.85,0.4,4.07,0.12,6.47c-0.91,7.79-5.12,17.45-11.98,22.45c0.57,4.76,1.68,9.96,3.5,11.87
		c0.44,0.46,0.88,0.68,1.34,0.68c3.51,0,5.36-5.77,6.25-8.55l0.02-0.06c0,0,0-0.01,0-0.01c0.89-3.05,1.44-6.08,1.69-7.66
		c0.05-0.32,0.35-0.54,0.66-0.48C67.31,30.03,67.52,30.33,67.47,30.65z M53.38,32.86c3.27-2.54,6.1-6.36,8.18-11.14
		c1.45-3.31,2.41-6.88,2.78-10.11c0.29-3.9-0.12-7.09-1.1-8.83c-0.47-0.73-1.12-1.31-2.01-1.52c-0.13-0.02-0.26-0.03-0.4-0.03
		c-4.57,0-7.53,16.57-7.78,25.09C53.01,27.76,53.11,30.17,53.38,32.86z"/>
	<path class="st1" d="M88.19,30.96c-0.1,1.73-0.8,5.27-2.29,8.73c0,0.01,0,0.01-0.01,0.02c-0.41,1.13-1.1,2.43-1.98,3.66
		c-1.49,2.21-3.23,3.75-5.17,4.57c-0.1,0.04-0.21,0.09-0.31,0.12c-1,0.38-2.04,0.58-3.12,0.58c-3.37,0-8.36-4.49-8.36-10.7
		c0-6.19,3.63-10.86,8.44-10.86c0.14,0,0.27,0,0.4,0.02c0.3,0.01,0.6,0.07,0.88,0.16c0.02,0,0.03,0.01,0.05,0.02
		c0.64,0.2,1.21,0.56,1.67,1.06c1.05,1.15,1.36,2.81,1.32,3.68c0,0,0,0,0,0.01c0,0.01,0,0.03,0,0.04c0,0.01,0,0.03,0,0.04
		c-0.25,3.22-2.89,4.43-5.28,4.49c-1.09,0.03-2.24-0.19-3.04-0.65c-0.05,0.61-0.07,1.24-0.07,1.9c0,0.96,0.14,9.41,5.17,9.41
		c2.44,0,5.15-2.53,6.88-5.17c0.5-0.81,0.95-1.66,1.35-2.53c0.04-0.09,0.07-0.18,0.1-0.28c0.02-0.06,0.05-0.11,0.08-0.15
		c1.36-3.16,2.04-6.43,2.14-8.24c0.02-0.32,0.29-0.57,0.61-0.55C87.96,30.36,88.21,30.64,88.19,30.96z M71.52,34.57
		c0.16,0.36,1.26,0.91,2.87,0.86c0.92-0.02,3.93-0.34,4.16-3.44c-0.01-1.47-0.97-3.19-2.26-3.62c-0.17-0.05-0.36-0.08-0.55-0.1
		c-0.03,0-0.05,0-0.08,0C73.59,28.26,72.06,30.7,71.52,34.57z"/>
	<path class="st1" d="M125.02,12.98c-0.13,0.49-0.49,0.91-1.04,1.21c-0.75,0.41-1.83,0.59-2.77,0.5c0.09,0.84,0.05,1.77-0.4,2.46
		c-0.31,0.49-0.8,0.81-1.4,0.93c-0.08,0.01-0.17,0.03-0.27,0.03c-0.39,0-0.94-0.16-1.44-0.9c-1.07-1.57-1.46-5.16-0.86-6.14
		c0.17-0.27,0.52-0.36,0.8-0.19c0.27,0.17,0.35,0.53,0.19,0.81c-0.28,0.48-0.08,3.56,0.84,4.88c0.19,0.28,0.37,0.4,0.53,0.37
		c0.3-0.06,0.51-0.19,0.66-0.42c0.3-0.46,0.33-1.35,0.09-2.43c-0.04-0.21,0.02-0.42,0.18-0.56c0.16-0.14,0.38-0.18,0.58-0.12
		c0.66,0.23,1.94,0.19,2.74-0.24c0.15-0.08,0.41-0.25,0.47-0.47c0.06-0.23,0.02-0.44-0.12-0.66c-0.52-0.8-2.3-1.54-4.53-1.88
		c-0.64-0.1-1.33-0.12-2.12-0.07c0,0-0.01,0-0.01,0c-4.66,0.43-10.29,1.34-16.26,2.31c-2.29,0.37-4.59,0.74-6.86,1.09
		c-0.93,10.47-1.94,28.59,1.08,32.39c0.31,0.39,0.64,0.58,1,0.58c1.98,0,3.59-3.51,4.45-6.98c0.17-0.75,0.33-1.51,0.46-2.26
		c0.03-0.18,0.06-0.37,0.08-0.54c0.01-0.05,0.02-0.1,0.04-0.14c0.38-2.33,0.58-4.51,0.62-5.85c0.01-0.32,0.28-0.57,0.59-0.57
		c0.32,0.01,0.57,0.28,0.56,0.6c-0.02,0.68-0.19,3.2-0.67,6.12c-0.13,0.94-0.35,2.1-0.66,3.3c-1.25,5.15-3.07,7.77-5.41,7.77
		c-1.57,0-2.92-0.76-3.99-2.26c-3.19-4.43-3.53-14.92-3.25-22.94c0.1-3.03,0.3-5.96,0.53-8.54c-4.84,0.67-9.38,1.14-13.17,1.14
		c-3.77,0-6.79-0.47-8.6-1.67c-1.65-1.1-3.41-2.92-3.61-4.54c-0.08-0.65,0.09-1.22,0.5-1.67c0.34-0.37,0.85-0.57,1.49-0.57h0
		c0.85,0,1.89,0.36,2.67,0.88c0.31-0.79,0.78-1.59,1.5-1.99c0.5-0.28,1.08-0.33,1.67-0.15c0.36,0.11,0.98,0.47,1.11,1.58
		c0.22,1.9-1.11,5.25-2.09,5.82c-0.12,0.07-0.24,0.09-0.37,0.07c-0.17-0.02-0.33-0.12-0.42-0.29c-0.16-0.28-0.07-0.64,0.21-0.8
		c0.46-0.29,1.72-3.11,1.52-4.7c-0.04-0.33-0.14-0.53-0.3-0.58C71.25,6.61,71,6.63,70.77,6.76c-0.48,0.27-0.92,1.03-1.21,2.11
		c-0.06,0.2-0.22,0.36-0.42,0.41c-0.21,0.05-0.42-0.01-0.56-0.17c-0.47-0.52-1.62-1.09-2.53-1.09c0,0,0,0,0,0
		c-0.17,0-0.48,0.03-0.63,0.19c-0.18,0.19-0.24,0.43-0.2,0.73c0.13,1.04,1.43,2.6,3.1,3.7c0.56,0.37,1.27,0.66,2.11,0.89
		c4.13,1.1,11.35,0.5,19.13-0.58c0.41-4.37,0.89-7.53,1.06-8.08c0.29-0.92,1.83-0.97,2.77-0.71c1.28,0.35,1.58,1.18,1.43,1.84
		c-0.08,0.37-0.37,2.79-0.7,6.28c2.2-0.34,4.41-0.7,6.57-1.05c5.98-0.97,11.63-1.89,16.33-2.32c0,0,0.01,0,0.01,0
		c0.01,0,0.03,0,0.04,0c0.86-0.06,1.63-0.03,2.35,0.08c1.26,0.2,4.29,0.82,5.32,2.4C125.06,11.88,125.16,12.43,125.02,12.98z"/>
	<path class="st1" d="M133.5,27.29c-0.3,1.62-2.43,3.53-5.12,5.96c-1.32,1.18-2.73,2.45-4.06,3.8c0.8,1.14,1.56,2.35,2.1,3.71
		c1.4,3.5,1.23,7.38-0.43,9.87c-1.06,1.59-2.65,2.47-4.46,2.47c-1.93,0-2.94-1.32-3.45-2.2c-0.54-0.87-0.79-1.89-0.81-2.53
		c-0.14-3.58,1.68-6.87,4.09-9.78c-0.09-0.14-0.19-0.29-0.29-0.43c-2.01-3.01-4.3-6.43-3.68-10.8c0.4-2.83,2.69-4.73,4.57-4.73
		c0.98,0,1.73,0.32,2.3,0.73c0.29,0.19,0.53,0.42,0.68,0.64c0,0,0,0,0,0c0.55,0.64,0.77,1.27,0.79,1.32
		c0.11,0.3-0.05,0.64-0.35,0.75c-0.3,0.11-0.63-0.05-0.74-0.36c-0.02-0.04-0.17-0.46-0.54-0.89c0,0,0,0,0-0.01
		c-0.01-0.01-0.02-0.03-0.03-0.04c-0.15-0.17-0.33-0.35-0.55-0.5c0,0,0,0,0,0c-0.17-0.1-0.35-0.18-0.51-0.18
		c-1.36,0-2.45,1.57-2.58,3.73c-0.22,3.46,1.45,5.8,3.21,8.29c1.34-1.35,2.72-2.59,3.97-3.72c2.33-2.09,4.53-4.07,4.75-5.29
		c0.06-0.32,0.36-0.53,0.67-0.47C133.35,26.67,133.56,26.97,133.5,27.29z M123.32,41.95c-0.33-0.77-0.79-1.56-1.3-2.36
		c-2.17,2.65-3.72,5.57-3.6,8.73c0.01,0.22,0.12,0.88,0.42,1.54l0,0.01c0.04,0.08,0.09,0.18,0.14,0.28c0.35,0.62,0.89,1.15,1.7,1.15
		c0.81,0,1.44-0.71,1.82-1.3C123.88,47.88,124.26,44.12,123.32,41.95z"/>
	<g>
		<path class="st1" d="M115.2,24.31c0,0.91-0.61,1.65-1.36,1.65c-0.13,0-0.25-0.02-0.36-0.06c-0.37-0.1-0.66-0.32-0.84-0.65
			c-0.56-1-0.1-2.76,0.38-4.33c0.08-0.25,0.14-0.46,0.17-0.58c0.05-0.24,0.29-0.4,0.53-0.34c0.24,0.05,0.39,0.3,0.34,0.54
			c-0.03,0.15-0.1,0.37-0.19,0.65c-0.12,0.39-0.29,0.97-0.42,1.56c0.12-0.05,0.26-0.07,0.4-0.07
			C114.59,22.66,115.2,23.4,115.2,24.31z"/>
	</g>
</g>
<g>
	<path d="M53.77,71.82l1.38,8.63c0.02,0.24-0.11,0.38-0.35,0.45c-0.66,0.2-1.06,0.04-1.17-0.71l-1.25-7.76
		c-0.07-0.45-0.34-1.45-0.61-1.48c-1.06-0.1,0.07,3.82,0.89,10.05c-0.05,0.2-0.19,0.28-0.37,0.31c-0.33,0.05-0.53,0.06-0.66,0.01
		c-0.15,0.01-0.29-0.04-0.38-0.2c-1.12-5.9-1.19-10.35-2.36-9.83c-0.25,0.11-0.23,1.15-0.16,1.6c0.74,4.84,1.28,8.16,1.15,7.34
		c0.17,1.48-0.16,1.58-0.89,1.69c-0.23,0.04-0.42-0.09-0.47-0.32l-1.28-8.88c-0.19-1.39,0.01-2.63,1.36-2.84
		c0.74-0.11,1.3,0.11,1.66,0.52c0.24-0.45,0.69-0.79,1.38-0.89C52.99,69.31,53.55,70.44,53.77,71.82z"/>
	<path d="M56.02,71.12c0-0.97,0.28-2.4,1.46-2.58c1.01-0.15,1.5,0.85,1.8,1.64c0.72,2.61,1.11,5.49,1.52,8.19
		c0.04,0.25,0.27,1.21,0.12,1.48c-0.21,0.41-1.2,0.44-1.27,0.18l-0.59-2.88c-0.05,0.01-1,0.19-1,0.2l-0.03,0.04l0.31,2.38
		c0.05,0.44-0.22,0.55-0.5,0.59c-0.63,0.1-0.75,0.28-0.98-0.77C56.38,76.4,56.01,73.75,56.02,71.12z M57.79,76.04l1.14-0.17
		c-0.07-0.59-0.15-1.12-0.23-1.59c-0.57-3.78-1.05-3.99-1.1-4C57.14,70.54,57.62,74.79,57.79,76.04z"/>
	<path d="M63.71,74.67l-0.03,0.06c0.21,1.39,0.54,2.77,0.75,4.14c0.06,0.37-0.52,0.46-0.8,0.5c0,0-0.02,0-0.03,0.01
		c-0.18,0.03-0.74,0.11-0.78-0.12c-0.04-0.27-0.24-1.48-0.28-1.75c-0.35-2.27-0.66-4.55-1-6.82c-0.05-0.32-0.29-1.79-0.33-2.09
		c-0.18-0.74,0.79-0.68,1.1-0.75c0.59-0.09,0.51,0.47,0.55,0.62c0-0.1,0.22,2.44,0.39,3.56c0.02,0.12,0.05,0.33,0.06,0.4l0.02,0.03
		c0.56-0.97,0.6-2.62,0.45-3.62c-0.04-0.27-0.11-0.53-0.15-0.8c-0.03-0.22,0.1-0.36,0.35-0.36c0.18-0.01,0.76-0.08,0.93-0.09
		c0.22,0,0.28,0.32,0.31,0.48c0.27,1.75,0.21,3.71-0.77,5.38c1.04,0.53,1.9,1.28,2.38,5c0.05,0.33-0.17,0.54-0.49,0.59l-0.71,0.11
		c-0.13,0.02-0.22-0.14-0.24-0.25C65.17,76.61,64.54,74.93,63.71,74.67z"/>
	<path d="M67.2,67.76c-0.04-0.39,0.07-0.45,1.06-0.6c0.3-0.05,2.06-0.54,2.17,0.18c0.04,0.27,0.03,0.51,0.02,0.8
		c0,0.36-0.8,0.43-1.21,0.49c-0.17,0.03-0.35,0.05-0.51,0.06c0.12,0.79,0.25,2.08,0.27,2.25c0.04,0.27,0.2,1.1,0.22,1.09l0.02,0.03
		c0.48-0.07,1.17-0.09,1.2,0.14l0.13,0.85c0.02,0.13-0.07,0.32-0.2,0.34l-0.97,0.15c0.04,0.25,0.2,1.46,0.24,1.72
		c0.03,0.2,0.26,1.36,0.31,1.58c0.12,0,1.53-0.39,1.59,0.01l0.12,0.82c0.06,0.42-0.64,0.58-2.5,0.86c-0.49,0.13-0.52-0.45-0.59-0.78
		C68.33,76.05,67.69,72.3,67.2,67.76z"/>
</g>
</svg>
