<?xml version="1.0" encoding="utf-8"?>
<!-- Generator: Adobe Illustrator 25.2.1, SVG Export Plug-In . SVG Version: 6.00 Build 0)  -->
<svg version="1.1" id="Layer_1" xmlns="http://www.w3.org/2000/svg" xmlns:xlink="http://www.w3.org/1999/xlink" x="0px" y="0px"
	 viewBox="0 0 180 172.03" style="enable-background:new 0 0 180 172.03;" xml:space="preserve">
<style type="text/css">
	.st0{fill:#9BB5DF;}
	.st1{fill:#F5C117;}
	.st2{fill:#BD2926;}
	.st3{fill:#381F23;}
	.st4{fill:#D9B028;}
	.st5{fill:#CA9A2C;}
	.st6{fill:#B7872D;}
	.st7{fill:#333333;}
	.st8{fill:#FDF49A;}
	.st9{fill:#F9E86F;}
	.st10{fill:#EB9E22;}
	.st11{fill:#EBC424;}
	.st12{fill:#010101;}
	.st13{fill:#B49930;}
	.st14{fill:#F3C423;}
	.st15{fill:#010201;}
	.st16{fill-rule:evenodd;clip-rule:evenodd;}
	.st17{fill:#1A1B1B;}
	.st18{fill:#FDFDFD;}
	.st19{fill-rule:evenodd;clip-rule:evenodd;fill:url(#SVGID_1_);}
	.st20{fill:#23292D;}
	.st21{fill:#DD9C27;}
	.st22{fill:#F2664F;}
	.st23{fill:url(#SVGID_2_);}
	.st24{fill:url(#SVGID_3_);}
	.st25{fill:url(#SVGID_4_);}
	.st26{fill:url(#SVGID_5_);}
	.st27{fill:url(#SVGID_6_);}
	.st28{fill:url(#SVGID_7_);}
	.st29{fill:url(#SVGID_8_);}
	.st30{fill:url(#SVGID_9_);}
	.st31{fill:url(#SVGID_10_);}
	.st32{fill:url(#SVGID_11_);}
	.st33{fill:none;stroke:#D9B028;stroke-width:3;stroke-miterlimit:10;}
	.st34{opacity:0.19;}
	.st35{stroke:#000000;stroke-width:3;stroke-miterlimit:10;}
	.st36{fill:#FAA82F;}
	.st37{opacity:0.42;}
	.st38{opacity:0.1091;}
	.st39{fill:#FEBC16;}
	.st40{fill:#E43C7D;}
	.st41{fill:#FFFFFF;}
	.st42{fill:#E7B831;}
	.st43{fill:#AB7136;}
	.st44{fill:none;stroke:#010101;stroke-miterlimit:10;}
	.st45{fill:#8CB5D7;}
	.st46{fill:#F5C117;stroke:#000000;stroke-miterlimit:10;}
	.st47{fill:none;stroke:#010101;stroke-width:0.75;stroke-miterlimit:10;}
	.st48{fill:none;stroke:#010101;stroke-width:0.5;stroke-miterlimit:10;}
	.st49{fill:none;stroke:#F5C117;stroke-miterlimit:10;}
	.st50{fill:#F2664F;stroke:#000000;stroke-miterlimit:10;}
	.st51{stroke:#010101;stroke-miterlimit:10;}
	.st52{fill:#231F20;}
	.st53{fill:#E7B82F;}
	.st54{fill:#B39A32;}
	.st55{fill:#D9B128;}
</style>
<linearGradient id="SVGID_1_" gradientUnits="userSpaceOnUse" x1="142.6343" y1="45.0382" x2="154.271" y2="45.0382">
	<stop  offset="0.142" style="stop-color:#EBDEB4"/>
	<stop  offset="0.3332" style="stop-color:#EBD090"/>
	<stop  offset="0.535" style="stop-color:#EBC471"/>
	<stop  offset="0.7203" style="stop-color:#EABC58"/>
	<stop  offset="0.8814" style="stop-color:#EAB748"/>
	<stop  offset="1" style="stop-color:#EAB542"/>
</linearGradient>
<path class="st19" d="M142.63,41.68l5.11,2.13l0.71-5.49l0.71,5.5l5.1-2.13l-4.39,3.35l4.4,3.36l-5.11-2.13l-0.7,5.5l-0.71-5.5
	l-5.1,2.13l4.39-3.36L142.63,41.68z"/>
<g>
	<g>
		<path class="st20" d="M161.25,79.99c-0.25,1.85-1.18,3.34-2.47,4.65c-1.18,1.21-2.53,2.24-3.61,3.54
			c-1.15,1.39-1.99,3.16-2.08,4.97c-0.1,1.98,0.71,3.94,0.92,5.89c0.04,0.38,0.64,0.38,0.6,0c-0.21-1.87-0.89-3.71-0.93-5.59
			c-0.04-1.96,1.01-3.86,2.28-5.29c1.13-1.26,2.48-2.28,3.63-3.52c1.17-1.27,1.99-2.77,2.22-4.5
			C161.88,79.78,161.3,79.61,161.25,79.99L161.25,79.99z"/>
	</g>
	<path class="st21" d="M161.47,79.87c0,0-1.08,0.6-1.4,1.21c0,0,1.07,0.78,2.15,0.64C162.22,81.73,161.92,80.8,161.47,79.87z"/>
	<path class="st1" d="M171.28,70.61c-1.55-6.04-10.84-6.6-12.61-0.47c-2.04,7.07,3.1,10.5,3.1,10.5
		C166.23,81.16,172.75,76.32,171.28,70.61z M169.49,74.63c-1.45,3.18-5.64,3.9-5.64,3.9c6.22-3.76,4.77-9.4,4.77-9.4
		S170.94,71.45,169.49,74.63z"/>
</g>
<g>
	<g>
		<path class="st20" d="M21.34,66.71c0.24,1.75,1.11,3.15,2.33,4.39c1.11,1.14,2.38,2.11,3.4,3.34c1.09,1.31,1.87,2.98,1.96,4.69
			c0.09,1.86-0.67,3.71-0.87,5.55c-0.04,0.36-0.6,0.36-0.56,0c0.2-1.77,0.84-3.5,0.87-5.27c0.04-1.85-0.95-3.64-2.15-4.98
			c-1.06-1.19-2.34-2.15-3.42-3.32c-1.11-1.2-1.88-2.62-2.1-4.24C20.75,66.5,21.29,66.35,21.34,66.71L21.34,66.71z"/>
	</g>
	<path class="st21" d="M21.13,66.59c0,0,1.02,0.57,1.32,1.14c0,0-1.01,0.74-2.02,0.61C20.43,68.34,20.71,67.47,21.13,66.59z"/>
	<path class="st1" d="M20.85,67.32c0,0,4.85-3.23,2.92-9.9c-1.67-5.78-10.43-5.26-11.89,0.44C10.5,63.25,16.65,67.81,20.85,67.32z
		 M14.39,56.47c0,0-1.36,5.32,4.5,8.86c0,0-3.95-0.68-5.32-3.68C12.21,58.65,14.39,56.47,14.39,56.47z"/>
</g>
<g>
	<g>
		<path class="st20" d="M129.37,13.38c-0.24,1.75-1.11,3.15-2.33,4.39c-1.11,1.14-2.38,2.11-3.4,3.34
			c-1.09,1.31-1.87,2.98-1.96,4.69c-0.09,1.86,0.67,3.71,0.87,5.55c0.04,0.36,0.6,0.36,0.56,0c-0.2-1.77-0.84-3.5-0.87-5.27
			c-0.04-1.85,0.95-3.64,2.15-4.98c1.06-1.19,2.34-2.15,3.42-3.32c1.11-1.2,1.88-2.62,2.1-4.24
			C129.96,13.17,129.42,13.02,129.37,13.38L129.37,13.38z"/>
	</g>
	<path class="st21" d="M129.58,13.26c0,0-1.02,0.57-1.32,1.14c0,0,1.01,0.74,2.02,0.61C130.28,15.01,130,14.14,129.58,13.26z"/>
	<path class="st1" d="M138.83,4.53c-1.46-5.7-10.22-6.22-11.89-0.44c-1.93,6.67,2.92,9.9,2.92,9.9
		C134.06,14.48,140.21,9.92,138.83,4.53z M137.14,8.32c-1.36,3-5.32,3.68-5.32,3.68c5.86-3.55,4.5-8.86,4.5-8.86
		S138.5,5.32,137.14,8.32z"/>
</g>
<g>
	<g>
		<path class="st20" d="M69.21,124.18c0.21,1.57,1,2.83,2.09,3.95c1,1.03,2.15,1.9,3.07,3.01c0.98,1.18,1.69,2.68,1.76,4.22
			c0.08,1.68-0.6,3.35-0.78,5c-0.04,0.32-0.54,0.33-0.51,0c0.18-1.59,0.75-3.15,0.79-4.75c0.04-1.67-0.85-3.28-1.94-4.49
			c-0.96-1.07-2.11-1.94-3.08-2.99c-1-1.08-1.69-2.36-1.89-3.82C68.68,123.99,69.17,123.85,69.21,124.18L69.21,124.18z"/>
	</g>
	<path class="st21" d="M69.03,124.07c0,0,0.92,0.51,1.19,1.03c0,0-0.91,0.66-1.82,0.55C68.39,125.65,68.65,124.86,69.03,124.07z"/>
	<path class="st22" d="M68.77,124.73c0,0,4.36-2.91,2.63-8.92c-1.5-5.21-9.39-4.73-10.71,0.4
		C59.45,121.06,64.99,125.17,68.77,124.73z M62.96,114.96c0,0-1.23,4.79,4.05,7.98c0,0-3.56-0.61-4.79-3.32
		C60.99,116.92,62.96,114.96,62.96,114.96z"/>
</g>
<path class="st22" d="M32.29,28.16c0,5.16,0,10.32,0,15.48c0,0.36-0.01,0.72-0.02,1.07c-0.01,0.18-0.16,0.32-0.35,0.34
	c-0.14,0.01-0.28,0.02-0.42,0.02c-0.85,0-1.7,0-2.55-0.01c-0.14,0-0.28-0.02-0.42-0.03c-0.11-0.01-0.28-0.17-0.29-0.28
	c-0.02-0.25-0.04-0.5-0.04-0.75c0-1.18,0-2.37,0.01-3.55c0.01-2.58,0.01-5.16,0.02-7.74c0-0.36-0.02-0.72-0.03-1.07
	c-0.01-0.14-0.14-0.28-0.27-0.29c-0.14-0.01-0.28-0.03-0.42-0.03c-2.05,0.03-4.11,0.06-6.16,0.09c-0.28,0-0.56,0.04-0.84,0.08
	c-0.11,0.01-0.26,0.19-0.26,0.3c-0.01,0.36-0.02,0.72-0.02,1.07c-0.01,3.62-0.01,7.24-0.03,10.86c0,0.32-0.03,0.64-0.05,0.96
	c0,0.05-0.08,0.13-0.14,0.15c-0.1,0.03-0.21,0.05-0.31,0.05c-1.03,0-2.05,0-3.08,0c-0.36,0-0.48-0.13-0.49-0.54
	c-0.01-0.32-0.01-0.65-0.01-0.97c0.01-3.76,0.03-7.53,0.04-11.29c0.02-6.38,0.03-12.76,0.04-19.14c0-0.36,0.01-0.72,0.02-1.07
	c0.01-0.17,0.16-0.32,0.35-0.33c0.03,0,0.07-0.01,0.11-0.01c1.06,0,2.12,0.01,3.19,0.01c0.03,0,0.07,0.01,0.1,0.02
	c0.13,0.01,0.28,0.14,0.28,0.27c0.02,0.36,0.04,0.71,0.04,1.07c-0.01,3.3-0.02,6.6-0.04,9.89c0,1.25-0.01,2.51-0.01,3.76
	c0,0.18,0.03,0.35,0.06,0.53c0.01,0.06,0.09,0.13,0.14,0.14c0.21,0.03,0.42,0.06,0.63,0.06c1.77-0.03,3.54-0.07,5.31-0.12
	c0.5-0.01,0.99-0.04,1.49-0.06c0.18-0.01,0.33-0.16,0.34-0.35c0.01-0.36,0.03-0.72,0.03-1.07c0.01-4.37,0.01-8.75,0.02-13.12
	c0-0.36,0.01-0.72,0.03-1.07c0.01-0.19,0.15-0.32,0.36-0.32c1.1,0,2.19-0.01,3.29,0c0.24,0,0.38,0.15,0.38,0.41
	c0.01,0.36,0.01,0.72,0.01,1.07c0,5.16,0,10.32,0,15.49C32.31,28.16,32.3,28.16,32.29,28.16z"/>
<path class="st22" d="M53.48,37.03c0.11,2.33,0.23,4.65,0.34,6.98c0.02,0.32,0,0.64-0.01,0.96c0,0.13-0.15,0.26-0.28,0.27
	c-0.18,0.02-0.35,0.03-0.53,0.04c-0.85,0.03-1.7,0.06-2.55,0.09c-0.14,0-0.29,0.01-0.42-0.03c-0.08-0.03-0.18-0.12-0.2-0.21
	c-0.05-0.17-0.06-0.35-0.07-0.53c-0.05-1.11-0.1-2.22-0.15-3.33c-0.06-1.25-0.13-2.5-0.2-3.76c-0.01-0.19-0.16-0.34-0.33-0.35
	c-0.11-0.01-0.21-0.02-0.32-0.02c-1.63,0.01-3.26,0.02-4.88,0.04c-0.14,0-0.29,0.01-0.42,0.05c-0.1,0.03-0.19,0.09-0.21,0.21
	c-0.01,0.07-0.04,0.14-0.04,0.21c-0.07,1.07-0.15,2.14-0.21,3.22c-0.08,1.32-0.15,2.65-0.23,3.97c0,0.07-0.02,0.14-0.03,0.21
	c-0.02,0.12-0.16,0.25-0.3,0.26c-0.96,0.01-1.91-0.02-2.86-0.14c-0.25-0.03-0.49-0.06-0.73-0.11c-0.06-0.01-0.12-0.09-0.14-0.15
	c-0.03-0.1-0.03-0.21-0.03-0.32c0.11-2.65,0.21-5.3,0.35-7.95c0.08-1.5,0.21-3,0.33-4.5c0.07-0.93,0.16-1.86,0.24-2.78
	c0.15-1.71,0.37-3.42,0.61-5.12c0.24-1.67,0.53-3.32,0.91-4.96c0.33-1.43,0.72-2.84,1.27-4.21c0.29-0.73,0.63-1.44,1.05-2.11
	c0.29-0.45,0.62-0.88,1.02-1.23c0.61-0.54,1.31-0.84,2.13-0.83c0.66,0,1.25,0.23,1.78,0.62c0.43,0.32,0.79,0.72,1.1,1.16
	c0.39,0.56,0.71,1.16,0.98,1.78c0.55,1.25,0.93,2.55,1.24,3.88c0.4,1.74,0.68,3.51,0.91,5.29c0.25,1.88,0.41,3.78,0.54,5.67
	c0.13,1.89,0.19,3.79,0.27,5.69c0.03,0.68,0.04,1.36,0.06,2.04C53.46,37.03,53.47,37.03,53.48,37.03z M46.28,33.06
	c0-0.01,0-0.02,0-0.02c0.71,0,1.42,0,2.12,0c0.18,0,0.36-0.01,0.52-0.05c0.09-0.02,0.19-0.11,0.19-0.23c0.01-0.21,0.02-0.43,0-0.64
	c-0.18-2.03-0.36-4.07-0.54-6.1c-0.19-2.14-0.49-4.27-0.89-6.38c-0.21-1.13-0.48-2.24-0.87-3.32c-0.06-0.16-0.16-0.31-0.26-0.46
	c-0.04-0.06-0.12-0.05-0.17,0.03c-0.09,0.15-0.18,0.3-0.25,0.47c-0.37,0.89-0.6,1.83-0.82,2.77c-0.34,1.47-0.58,2.95-0.8,4.44
	c-0.2,1.38-0.34,2.77-0.5,4.16c-0.12,1.03-0.23,2.06-0.32,3.1c-0.06,0.64-0.08,1.29-0.11,1.93c-0.01,0.14,0.13,0.29,0.25,0.3
	c0.18,0.01,0.35,0.02,0.53,0.03C45.01,33.06,45.65,33.06,46.28,33.06z"/>
<path class="st22" d="M65.99,35.91c0.14-0.7,0.3-1.4,0.42-2.1c0.39-2.26,0.77-4.52,1.14-6.78c0.4-2.44,0.8-4.88,1.18-7.32
	c0.25-1.59,0.48-3.19,0.72-4.78c0.22-1.45,0.45-2.9,0.67-4.35c0.03-0.18,0.2-0.33,0.38-0.3c1.15,0.18,2.31,0.37,3.46,0.56
	c0.11,0.02,0.22,0.19,0.2,0.34c-0.03,0.28-0.06,0.57-0.1,0.85c-0.18,1.17-0.36,2.34-0.53,3.51c-0.17,1.17-0.34,2.34-0.51,3.51
	c-0.18,1.24-0.37,2.48-0.55,3.72c-0.16,1.1-0.33,2.2-0.5,3.29c-0.24,1.52-0.46,3.04-0.73,4.56c-0.31,1.8-0.65,3.59-0.99,5.39
	c-0.36,1.9-0.79,3.79-1.29,5.65c-0.16,0.59-0.34,1.17-0.63,1.71c-0.25,0.48-0.55,0.92-0.94,1.29c-0.26,0.25-0.54,0.46-0.87,0.6
	c-0.56,0.24-1.1,0.22-1.64-0.06c-0.55-0.29-0.98-0.72-1.24-1.29c-0.22-0.49-0.41-0.99-0.57-1.5c-0.45-1.47-0.77-2.98-1.07-4.49
	c-0.56-2.77-1-5.57-1.44-8.36c-0.34-2.19-0.63-4.4-0.94-6.6c-0.26-1.81-0.52-3.62-0.76-5.43c-0.24-1.77-0.47-3.55-0.71-5.33
	c-0.04-0.32-0.1-0.64-0.15-0.96c-0.05-0.32,0.04-0.43,0.38-0.52c0.21-0.05,0.41-0.09,0.62-0.13c0.8-0.14,1.61-0.27,2.41-0.4
	c0.1-0.02,0.22-0.04,0.32-0.01c0.09,0.02,0.2,0.09,0.24,0.17c0.07,0.16,0.12,0.34,0.15,0.51c0.16,1.13,0.32,2.27,0.48,3.41
	c0.19,1.35,0.38,2.7,0.56,4.04c0.17,1.21,0.33,2.41,0.5,3.62c0.18,1.31,0.37,2.62,0.56,3.94c0.16,1.13,0.33,2.27,0.5,3.4
	c0.26,1.66,0.52,3.33,0.78,4.99c0.04,0.28,0.08,0.57,0.13,0.85C65.66,35.41,65.74,35.68,65.99,35.91z"/>
<path class="st22" d="M80.07,26.7c0.03-1.72,0.05-3.44,0.08-5.16c0.06-3.23,0.12-6.45,0.18-9.68c0-0.18,0.01-0.36,0.02-0.54
	c0.02-0.27,0.14-0.41,0.38-0.42c0.14-0.01,0.28-0.01,0.42-0.01c3.15,0.01,6.31,0.02,9.46,0.03c0.21,0,0.42,0.01,0.64,0.02
	c0.14,0.01,0.27,0.13,0.29,0.27c0.01,0.07,0.02,0.14,0.03,0.21c0,1.04,0.01,2.08,0.01,3.12c0,0.36-0.15,0.51-0.52,0.52
	c-0.28,0.01-0.57,0.02-0.85,0.02c-1.63,0.01-3.26,0.02-4.89,0.03c-0.25,0-0.49,0.03-0.74,0.07c-0.06,0.01-0.1,0.09-0.15,0.14
	c-0.02,0.03-0.02,0.07-0.03,0.1c-0.01,0.11-0.03,0.21-0.03,0.32c-0.07,3.55-0.13,7.1-0.2,10.65c0,0.14,0,0.29,0,0.43
	c0.01,0.32,0.12,0.45,0.45,0.46c1.59,0.05,3.19,0.09,4.78,0.14c1.6,0.05,1.42-0.15,1.4,1.46c-0.01,0.79-0.04,1.58-0.06,2.37
	c0,0.14-0.14,0.28-0.27,0.28c-0.28,0.01-0.57,0.02-0.85,0.02c-1.49-0.01-2.98-0.04-4.46-0.05c-0.25,0-0.49,0-0.74,0.01
	c-0.14,0.01-0.28,0.13-0.29,0.26c-0.02,0.21-0.05,0.43-0.05,0.64c-0.05,2.73-0.09,5.45-0.14,8.18c0,0.14,0,0.29,0.04,0.43
	c0.03,0.08,0.12,0.2,0.2,0.21c0.24,0.04,0.49,0.04,0.74,0.04c1.67,0,3.33-0.02,4.99-0.02c0.28,0,0.57,0.01,0.85,0.01
	c0.12,0,0.29,0.14,0.3,0.26c0.01,0.11,0.04,0.21,0.04,0.32c0.01,1,0.02,2.01,0.03,3.01c0,0.07-0.01,0.14-0.02,0.21
	c-0.01,0.11-0.17,0.27-0.29,0.28c-0.6,0.05-1.2,0.12-1.8,0.13c-1.81,0.03-3.61,0.03-5.42,0.05c-0.71,0.01-1.42-0.09-2.11-0.23
	c-1.08-0.21-1.34-0.43-1.54-1.6c-0.13-0.78-0.21-1.56-0.22-2.35c-0.02-2.44-0.02-4.88,0.13-7.31c0.07-1.14,0.08-2.29,0.11-3.44
	c0.03-1.29,0.05-2.58,0.08-3.87C80.06,26.7,80.07,26.7,80.07,26.7z"/>
<path class="st22" d="M124.4,37.03c0.11,2.33,0.23,4.65,0.34,6.98c0.02,0.32,0,0.64-0.01,0.96c0,0.13-0.15,0.26-0.28,0.27
	c-0.18,0.02-0.35,0.03-0.53,0.04c-0.85,0.03-1.7,0.06-2.55,0.09c-0.14,0-0.29,0.01-0.42-0.03c-0.08-0.03-0.18-0.12-0.2-0.21
	c-0.05-0.17-0.06-0.35-0.07-0.53c-0.05-1.11-0.1-2.22-0.15-3.33c-0.06-1.25-0.13-2.5-0.2-3.76c-0.01-0.19-0.16-0.34-0.33-0.35
	c-0.11-0.01-0.21-0.02-0.32-0.02c-1.63,0.01-3.26,0.02-4.88,0.04c-0.14,0-0.29,0.01-0.42,0.05c-0.1,0.03-0.19,0.09-0.21,0.21
	c-0.01,0.07-0.04,0.14-0.04,0.21c-0.07,1.07-0.15,2.14-0.21,3.22c-0.08,1.32-0.15,2.65-0.23,3.97c0,0.07-0.02,0.14-0.03,0.21
	c-0.02,0.12-0.16,0.25-0.3,0.26c-0.96,0.01-1.91-0.02-2.86-0.14c-0.25-0.03-0.49-0.06-0.73-0.11c-0.06-0.01-0.12-0.09-0.14-0.15
	c-0.03-0.1-0.03-0.21-0.03-0.32c0.11-2.65,0.21-5.3,0.35-7.95c0.08-1.5,0.21-3,0.33-4.5c0.07-0.93,0.16-1.86,0.24-2.78
	c0.15-1.71,0.37-3.42,0.61-5.12c0.24-1.67,0.53-3.32,0.91-4.96c0.33-1.43,0.72-2.84,1.27-4.21c0.29-0.73,0.63-1.44,1.05-2.11
	c0.29-0.45,0.62-0.88,1.02-1.23c0.61-0.54,1.31-0.84,2.13-0.83c0.66,0,1.25,0.23,1.78,0.62c0.43,0.32,0.79,0.72,1.1,1.16
	c0.39,0.56,0.71,1.16,0.98,1.78c0.55,1.25,0.93,2.55,1.24,3.88c0.4,1.74,0.68,3.51,0.91,5.29c0.25,1.88,0.41,3.78,0.54,5.67
	c0.13,1.89,0.19,3.79,0.27,5.69c0.03,0.68,0.04,1.36,0.06,2.04C124.38,37.03,124.39,37.03,124.4,37.03z M117.21,33.06
	c0-0.01,0-0.02,0-0.02c0.71,0,1.42,0,2.12,0c0.18,0,0.36-0.01,0.52-0.05c0.09-0.02,0.19-0.11,0.19-0.23c0.01-0.21,0.02-0.43,0-0.64
	c-0.18-2.03-0.36-4.07-0.54-6.1c-0.19-2.14-0.49-4.27-0.89-6.38c-0.21-1.13-0.48-2.24-0.87-3.32c-0.06-0.16-0.16-0.31-0.26-0.46
	c-0.04-0.06-0.12-0.05-0.17,0.03c-0.09,0.15-0.18,0.3-0.25,0.47c-0.37,0.89-0.6,1.83-0.82,2.77c-0.34,1.47-0.58,2.95-0.8,4.44
	c-0.2,1.38-0.34,2.77-0.5,4.16c-0.12,1.03-0.23,2.06-0.32,3.1c-0.06,0.64-0.08,1.29-0.11,1.93c-0.01,0.14,0.13,0.29,0.25,0.3
	c0.18,0.01,0.35,0.02,0.53,0.03C115.93,33.06,116.57,33.06,117.21,33.06z"/>
<path class="st22" d="M26.98,91.08c-0.24,1.32-1.98,2.88-4.18,4.86c-1.07,0.97-2.23,2-3.31,3.1c0.65,0.93,1.27,1.92,1.71,3.02
	c1.14,2.86,1,6.02-0.35,8.05c-0.87,1.3-2.16,2.02-3.64,2.02c-1.58,0-2.4-1.07-2.81-1.8c-0.44-0.71-0.64-1.54-0.66-2.07
	c-0.11-2.92,1.37-5.6,3.34-7.97c-0.08-0.12-0.16-0.23-0.24-0.35c-1.64-2.46-3.51-5.24-3-8.81c0.33-2.31,2.19-3.86,3.73-3.86
	c0.8,0,1.41,0.26,1.87,0.59c0.23,0.15,0.43,0.34,0.56,0.52c0,0,0,0,0,0c0.45,0.52,0.63,1.03,0.65,1.08
	c0.09,0.25-0.04,0.52-0.29,0.61c-0.25,0.09-0.52-0.04-0.6-0.29c-0.01-0.03-0.14-0.37-0.44-0.73c0,0,0,0,0-0.01
	c-0.01-0.01-0.02-0.02-0.03-0.03c-0.12-0.14-0.27-0.28-0.45-0.41c0,0,0,0,0,0c-0.14-0.08-0.29-0.15-0.42-0.15
	c-1.11,0-1.99,1.28-2.1,3.04c-0.18,2.82,1.18,4.73,2.62,6.76c1.09-1.1,2.22-2.12,3.24-3.03c1.9-1.71,3.69-3.32,3.88-4.32
	c0.05-0.26,0.29-0.43,0.55-0.38C26.86,90.57,27.03,90.82,26.98,91.08z M18.67,103.03c-0.27-0.63-0.64-1.27-1.06-1.92
	c-1.77,2.17-3.03,4.55-2.93,7.12c0.01,0.18,0.1,0.72,0.34,1.25l0,0.01c0.03,0.07,0.07,0.15,0.12,0.23c0.29,0.5,0.73,0.94,1.39,0.94
	c0.66,0,1.17-0.58,1.49-1.06C19.13,107.87,19.44,104.8,18.67,103.03z"/>
<path class="st22" d="M48.13,90.92c-1.13,5.85-4.12,7.68-7.19,8.43c-0.07,0.22-0.15,0.43-0.23,0.64c-1.33,3.36-3.93,5.25-7.17,5.25
	c-0.19,0-0.38-0.01-0.58-0.02c-0.74-0.05-1.4-0.54-1.69-1.25c-0.11-0.27-0.17-0.55-0.17-0.84c0-0.68,0.3-1.4,0.87-2.07
	c0.42-0.49,0.92-0.86,1.47-1.14c0.01-0.01,0.02-0.01,0.03-0.01c0.35-0.18,0.73-0.33,1.15-0.45c0.04-0.01,0.07-0.01,0.11-0.01
	c0.88-0.24,1.85-0.37,2.84-0.5c0.05-0.2,0.1-0.4,0.15-0.6c0.75-3.4,0.24-6.47-1.18-7.14c-1.04-0.49-2.03-0.19-2.67,0.16
	c-1.37,0.73-2.47,2.3-2.86,4.07c-0.02,0.08-0.03,0.16-0.05,0.23c-0.01,0.04-0.01,0.08-0.02,0.12c0,0.01-0.01,0.03-0.01,0.04
	c0,0,0,0.01,0,0.01c-0.03,0.16-0.06,0.33-0.08,0.5c-0.17,2.19-0.26,4.5-0.29,6.78c-0.06,5.87,0.34,11.64,1.07,15.29
	c0.18,0.92-0.59,1.61-1.42,1.79c-0.15,0.03-0.3,0.05-0.44,0.05c-0.72,0-1.28-0.42-1.44-1.1c-1.07-4.63-1.3-25.07-0.06-29.86
	c0.26-1,1.37-1.37,2.3-1.16c0.82,0.19,1.28,0.79,1.14,1.5c-0.16,0.79-0.29,1.63-0.42,2.5c0.87-1.4,1.95-2.13,2.75-2.51
	c1.88-0.89,4.16-0.7,5.53,0.47c1.78,1.51,2.42,4.95,1.67,8.22c2.68-0.77,5-2.52,5.98-7.56c0.05-0.26,0.3-0.43,0.55-0.38
	C48.02,90.42,48.19,90.67,48.13,90.92z M37.27,99.94c-1.31,0.17-2.48,0.36-3.42,0.83c-1.32,0.69-1.82,1.78-1.73,2.47
	c0.08,0.59,0.56,0.93,1.33,0.93C35.13,104.18,36.48,102.23,37.27,99.94z"/>
<path class="st22" d="M67.76,90.85c-0.02,0.56-0.15,2.61-0.54,4.99c-0.11,0.77-0.28,1.71-0.54,2.69c-1.02,4.2-2.51,6.33-4.42,6.33
	c-1.27,0-2.33-0.49-3.14-1.45c-0.87-1.04-1.38-2.54-1.66-4.19c-1.02,2.9-3.11,5.85-5.74,5.85c-1.06,0-2.06-0.51-2.89-1.47
	c-1.48-1.71-2.2-4.59-1.83-7.34c0.72-5.39,4.55-7.82,7.04-7.82c1.41,0,2.67,1.14,3.44,2.26c0.09-0.73,0.18-1.34,0.24-1.77
	c0.09-0.55,0.73-0.85,1.64-0.77c1.11,0.11,1.84,0.72,1.82,1.53c0,0.12-0.03,0.36-0.09,0.89c-0.83,7.18-0.68,11.48,0.45,12.77
	c0.2,0.22,0.41,0.33,0.67,0.33c1.62,0,2.92-2.86,3.63-5.69c0.14-0.61,0.27-1.23,0.38-1.85c0.02-0.15,0.04-0.3,0.07-0.44
	c0.01-0.04,0.01-0.08,0.03-0.11c0.31-1.9,0.47-3.67,0.5-4.77c0.01-0.26,0.23-0.47,0.49-0.46C67.56,90.37,67.77,90.59,67.76,90.85z
	 M57.3,92.49C57.3,92.49,57.3,92.49,57.3,92.49c-0.02-0.12-0.07-0.26-0.15-0.43c0,0,0,0,0,0c-0.69-1.31-1.43-2.01-2.14-2.03
	c-1.6-0.06-3.8,1.63-4.71,6.54c-0.61,3.32-0.09,6.09,0.75,7.11c0.22,0.26,0.44,0.4,0.67,0.4c2.15,0,4.32-3.21,5.12-5.92
	c0.01-0.03,0.02-0.06,0.02-0.08c0.11-0.42,0.2-0.84,0.25-1.24c0.01-0.04,0.01-0.08,0.01-0.12c0-0.02,0.01-0.04,0.01-0.06
	c0.03-0.22,0.04-0.43,0.05-0.63C57.16,94.8,57.22,93.58,57.3,92.49z"/>
<path class="st22" d="M83.61,90.84c0,0.06-0.01,2.8-0.38,5.84c0,0,0,0.01,0,0.01c0,0.01,0,0.02,0,0.04
	c-0.29,2.7-0.82,4.78-1.57,6.21c-0.03,0.05-0.05,0.1-0.08,0.15c-0.12,0.22-0.25,0.43-0.38,0.61c-0.02,0.03-0.05,0.06-0.07,0.09
	c-0.72,0.97-1.6,1.47-2.62,1.47c-1.23,0-2.22-0.37-2.93-1.1c-1.46-1.5-1.42-4.15-1.39-6.08c0.08-5.19-0.02-6.84-2.48-7.02
	c0,0,0,0,0,0c-0.1,0-0.4,0.11-0.62,0.19c-0.05,0.02-0.1,0.04-0.16,0.06c-0.01,0.01-0.02,0.01-0.03,0.02
	c-0.49,0.23-0.97,0.35-1.44,0.35c0,0-0.01,0-0.01,0c-0.72,0.05-1.48-0.14-2.11-0.92c-1.82-1.78-2.5-5.8-1.44-8.69
	c0.74-2.01,2.2-3.15,4.11-3.22c1.79-0.06,2.6,0.75,2.96,1.44c0.48,0.91,0.48,2.17,0.21,3.54c-0.45,2.3-1.69,4.9-2.8,6.66
	c0.08-0.03,0.15-0.05,0.23-0.08c2.98-1.38,5.34-0.81,6.5,1.59c0.53,1.1,0.46,3.05,0.37,5.11c-0.1,2.46-0.21,5.24,0.79,6.29
	c0.28,0.3,0.65,0.44,1.12,0.44c0.3,0,0.58-0.15,0.84-0.42l0,0c0.27-0.32,0.52-0.72,0.73-1.17c0.02-0.05,0.05-0.1,0.07-0.16
	c0.55-1.29,0.96-3.19,1.24-5.23c0-0.02,0-0.03,0.01-0.05c0.01-0.06,0.01-0.12,0.02-0.18c0-0.02,0.01-0.05,0.02-0.07
	c0.24-1.9,0.37-3.92,0.37-5.71c0-0.27,0.21-0.48,0.47-0.48C83.4,90.36,83.61,90.57,83.61,90.84z M70.43,88.44
	c0.01-0.02,0.02-0.04,0.03-0.06c0.07-0.14,0.15-0.28,0.21-0.42c0.03-0.06,0.06-0.12,0.09-0.19c0.54-1.13,1.02-2.36,1.33-3.51
	c0.02-0.08,0.04-0.15,0.06-0.23c0,0,0-0.01,0-0.01c0.32-1.34,0.33-2.42-0.01-3c-0.12-0.21-0.35-0.48-0.97-0.48
	c-0.88,0-1.59,0.54-2.11,1.61c-0.48,0.99-0.76,2.38-0.76,3.82c0,1.91,0.47,3.51,1.14,4.19C69.76,89.67,70.1,89.08,70.43,88.44z"/>
<path class="st22" d="M107.28,90.83c0,1.18-0.7,4-1.94,6.84c-0.91,2.09-2.12,4.18-3.54,5.63c-1.28,1.3-2.62,1.96-3.98,1.96
	c-3.4,0-6.71-4.28-7.91-6.73c-0.39,1.77-0.57,3.69-0.42,5.7c0.07,0.33-0.02,0.66-0.26,0.91c-0.29,0.31-0.8,0.48-1.33,0.48
	c-0.2,0-0.4-0.03-0.6-0.07c-0.69-0.17-1.19-0.64-1.37-1.27c-2.81-9.94-1.79-27.88,3.69-35.24c1.58-2.12,3.41-3.2,5.44-3.2
	c0.12,0,0.23,0,0.35,0.01c0.6,0,1.2,0.12,1.77,0.34c1.36,0.48,2.44,1.45,3.14,2.82c0.89,1.58,1.18,3.5,0.81,5.45
	c-0.25,2.26-1.09,4.66-2.47,6.93c-1.67,2.75-4.86,6.53-10.67,9.04c-0.06,3.55,0.16,6.94,0.66,9.94c0.15-1.31,0.42-2.56,0.79-3.72
	c0.71-2.32,1.78-4.31,2.99-5.85c0.38-0.52,0.8-0.99,1.23-1.38c0.01-0.01,0.02-0.02,0.03-0.03c1.03-0.99,2.09-1.64,3.07-1.89
	c1.55-0.39,2.81,0.25,3.47,1.76c0.42,0.96,0.29,2.02-0.36,3.06c-1.26,2.01-4.35,3.78-7.11,4.6c-0.16,0.06-0.32,0.11-0.48,0.15
	c1.25,0.77,2.17,2.15,3.01,3.42c1.08,1.62,2.1,3.15,3.52,3.15c2.37,0,3.98-3.11,5.16-5.38c0.18-0.35,0.36-0.69,0.52-0.99
	c0-0.01,0.01-0.01,0.01-0.02c1.17-2.68,1.85-5.34,1.84-6.41c0-0.26,0.21-0.48,0.47-0.48c0,0,0,0,0,0
	C107.06,90.36,107.28,90.57,107.28,90.83z M88,89.38c5.33-2.41,8.28-5.92,9.84-8.49c1.95-3.22,2.79-6.83,2.23-9.65
	c-0.13-0.64-0.32-1.22-0.57-1.73c-0.17-0.3-0.36-0.58-0.57-0.85c-0.59-0.74-1.33-1.28-2.12-1.57c-0.44-0.15-0.92-0.24-1.43-0.27
	c0,0-0.01,0-0.01,0c-0.81,0-1.64,0.56-2.45,1.65c-2.08,2.8-3.78,8.68-4.54,15.72C88.18,85.94,88.06,87.68,88,89.38z M91.27,96.29
	c0.42-0.08,0.86-0.19,1.32-0.34c2.1-0.85,4.07-3.08,4.63-4.97c0.18-0.61,0.28-1.44-0.29-1.87c-0.19-0.15-0.47-0.14-0.67-0.11
	c-0.49,0.08-1.22,0.42-1.99,1.12c0,0-0.01,0.01-0.02,0.01c-0.4,0.39-0.79,0.84-1.17,1.34c-0.02,0.03-0.04,0.06-0.06,0.09
	c-0.01,0.02-0.03,0.04-0.04,0.05c-0.96,1.3-1.83,2.93-2.47,4.79c0.17-0.02,0.35-0.04,0.52-0.07c0.05-0.02,0.1-0.03,0.15-0.03
	C91.21,96.3,91.24,96.29,91.27,96.29z"/>
<path class="st22" d="M123.14,90.8c-0.25,1.61-0.71,4-1.41,6.38c0,0.01,0,0.01,0,0.02l-0.01,0.05c0,0.01,0,0.01-0.01,0.02
	c-0.01,0.03-0.02,0.06-0.03,0.1c-1.2,3.98-3.13,7.85-6.07,7.85c-4.46,0-7.62-5.77-7.86-14.36c-0.4-14.54,3.28-20.61,5.51-22.93
	c1.32-1.37,2.79-2.12,4.16-2.12c0.3,0,0.6,0.03,0.87,0.1c0.65,0.11,1.21,0.43,1.68,0.94c0.22,0.24,0.42,0.52,0.58,0.82
	c0.39,0.65,0.69,1.47,0.88,2.43c0.3,1.51,0.33,3.32,0.1,5.27c-0.74,6.35-4.17,14.23-9.77,18.31c0.46,3.88,1.37,8.12,2.86,9.68
	c0.36,0.37,0.72,0.55,1.09,0.55c2.86,0,4.37-4.71,5.09-6.97l0.02-0.05c0,0,0-0.01,0-0.01c0.73-2.49,1.17-4.96,1.38-6.25
	c0.04-0.26,0.28-0.44,0.54-0.39C123.01,90.29,123.18,90.54,123.14,90.8z M111.65,92.6c2.67-2.07,4.98-5.19,6.67-9.08
	c1.18-2.7,1.96-5.61,2.27-8.24c0.24-3.18-0.09-5.78-0.9-7.2c-0.39-0.6-0.91-1.07-1.64-1.24c-0.1-0.01-0.21-0.02-0.32-0.02
	c-3.72,0-6.15,13.51-6.35,20.46C111.35,88.44,111.43,90.41,111.65,92.6z"/>
<path class="st22" d="M134.17,90.85c-0.02,0.56-0.15,2.61-0.54,4.99c-0.11,0.77-0.28,1.71-0.54,2.69c-1.02,4.2-2.51,6.33-4.42,6.33
	c-1.27,0-2.33-0.49-3.14-1.45c-2.89-3.44-1.8-11.95-1.4-14.47c0.09-0.55,0.73-0.85,1.64-0.77c1.11,0.11,1.84,0.72,1.82,1.53
	c0,0.12-0.03,0.36-0.09,0.89c-0.83,7.19-0.68,11.48,0.45,12.77c0.2,0.22,0.41,0.33,0.67,0.33c1.62,0,2.92-2.86,3.63-5.7
	c0.14-0.61,0.27-1.23,0.38-1.84c0.02-0.15,0.04-0.3,0.07-0.44c0.01-0.04,0.01-0.08,0.03-0.11c0.31-1.9,0.47-3.67,0.5-4.77
	c0.01-0.26,0.23-0.47,0.49-0.46C133.97,90.37,134.18,90.59,134.17,90.85z M124.1,83.97c0-1.39,1.02-2.52,2.27-2.52
	c1.25,0,2.27,1.13,2.27,2.52c0,1.39-1.02,2.52-2.27,2.52C125.12,86.49,124.1,85.36,124.1,83.97z"/>
<path class="st22" d="M153.48,90.89c-0.21,2.03-0.55,4.56-1.1,6.95c-0.28,1.65-0.92,3.78-1.84,5.38c0,0,0,0,0,0.01
	c-0.73,1.33-1.62,2.23-2.71,2.36c-0.03,0.01-0.06,0.01-0.09,0.01c-0.01,0-0.02,0-0.03,0c-0.05,0.01-0.11,0.01-0.16,0.01
	c-0.04,0-0.08,0-0.12,0c-1.23-0.02-2.23-0.42-2.96-1.18c-1.8-1.85-1.73-5.51-1.67-8.74c0.04-2.29,0.09-4.65-0.65-5.41
	c-0.17-0.18-0.38-0.26-0.66-0.26c-1.39,0-2.61,3.45-3.1,8.27c-0.14,1.5-0.23,3.2-0.25,5.13c0,0,0,0,0,0.01c0,0.15,0,0.28,0,0.4
	c-0.01,0.8-0.52,1.34-1.33,1.41c-0.06,0-0.11,0.01-0.17,0.01c-0.79,0-1.67-0.44-1.8-1.16c-0.23-1.3-0.21-4.09-0.19-6.33
	c0-0.36,0.01-0.71,0.01-1.03c0.02-2.95,0.45-6.83,0.74-8.2c0.14-0.66,0.91-0.96,1.96-0.77c0.96,0.17,1.53,0.66,1.45,1.23
	c-0.06,0.41-0.25,2.06-0.42,3.83c0.86-3.09,2.15-4.78,3.79-4.78c3.75,0,3.75,5.17,3.76,9.74c0.01,3.33,0.01,6.78,1.54,6.89
	c0.03,0,0.05,0,0.07,0c0.03,0,0.06,0,0.09,0c0.02,0,0.05,0,0.07-0.01c0.01,0,0.01,0,0.02,0c0.79-0.12,1.54-0.99,2.17-2.18
	c0.01-0.01,0.01-0.03,0.02-0.04c0.62-1.27,1.15-2.98,1.58-4.91c0-0.02,0.01-0.03,0.01-0.04c0.46-2.08,0.81-4.41,1.05-6.68
	c0.03-0.26,0.26-0.45,0.52-0.42C153.32,90.39,153.51,90.62,153.48,90.89z"/>
<path class="st22" d="M173.04,90.91c-0.75,4.71-3.3,8.59-5.62,11.18c0.13,1.81,0.2,3.62,0.2,5.35c0,5.09-0.6,11.94-3.42,15.66
	c-1.29,1.71-2.93,2.57-4.86,2.57c-3.01,0-5.27-1.57-6.07-4.21c-0.16-0.52-0.26-1.09-0.29-1.71c-0.01-0.19-0.01-0.39-0.01-0.59
	c0.07-3.93,2.76-9.45,10.48-14.73c0.01-0.01,0.22-0.15,0.56-0.43c-0.08-1.84-0.23-3.71-0.45-5.56c-0.8,2.43-2.61,5.24-4.65,5.98
	c-0.59,0.29-1.21,0.45-1.84,0.45c-1.06,0-2.05-0.51-2.89-1.47c-1.48-1.71-2.2-4.59-1.83-7.34c0.72-5.39,4.55-7.82,7.04-7.82
	c0.82,0,1.68,0.39,2.45,1.09c-0.04-0.16-0.08-0.31-0.13-0.47c-0.1-0.35-0.01-0.71,0.25-0.98c0.42-0.43,1.23-0.6,1.96-0.4
	c0.68,0.18,1.17,0.64,1.33,1.27c0.95,3.6,1.65,7.8,2.03,11.98c1.98-2.35,4.12-5.76,4.8-9.99c0.04-0.26,0.28-0.44,0.54-0.4
	C172.9,90.41,173.08,90.65,173.04,90.91z M164.06,105.17c-0.03,0.02-0.05,0.04-0.08,0.05c-6.06,4.14-9.09,8.64-9.86,12.26
	c-0.42,2-0.19,3.69,0.69,4.95c0.88,1.27,2.39,2.02,4.04,2.02c0.81,0,1.56-0.46,2.23-1.35C163.27,120.17,164.28,113,164.06,105.17z
	 M163.18,95.55c-0.17-1.05-0.36-2.09-0.57-3.1c-0.05-0.08-0.09-0.18-0.08-0.28c0-0.04,0-0.08-0.01-0.13
	c-0.02-0.04-0.04-0.08-0.05-0.13c-0.02-0.08-0.04-0.16-0.07-0.25c-0.16-0.39-0.48-0.91-0.96-1.41c-0.03-0.03-0.06-0.06-0.1-0.1
	c-0.28-0.2-0.6-0.33-0.94-0.33c-1.78,0-2.87,1.46-3.47,2.68c-0.77,1.57-1.22,3.7-1.22,5.84c0,3.07,0.93,5.31,2.21,5.31
	c0.21,0,0.43-0.04,0.65-0.11c2.06-1.04,3.86-4.02,4.38-6.43c0.1-0.46,0.15-0.9,0.15-1.3C163.1,95.72,163.13,95.63,163.18,95.55z"/>
<path class="st1" d="M29.96,156.66c0.05-0.19,0.11-0.32,0.13-0.46c0.05-0.57,0.1-1.14,0.12-1.72c0.26-7.49,0.26-14.99,0.12-22.48
	c-0.01-0.43-0.01-0.86,0-1.29c0-0.24,0.16-0.38,0.42-0.38c1.1-0.01,2.2-0.01,3.29-0.01c0.07,0,0.15,0.01,0.2,0.05
	c0.06,0.03,0.14,0.09,0.14,0.15c0.03,0.29,0.05,0.57,0.05,0.86c0.01,6.13,0.01,12.27,0.01,18.4c0,1.65,0,3.3,0,4.95
	c-0.01,1.72-0.15,3.44-0.42,5.14c-0.13,0.85-0.33,1.69-0.64,2.49c-0.17,0.44-0.35,0.86-0.63,1.24c-0.17,0.23-0.35,0.45-0.56,0.64
	c-0.57,0.51-1.25,0.64-1.99,0.48c-0.2-0.05-0.4-0.15-0.58-0.26c-0.42-0.28-0.75-0.65-1.05-1.05c-0.45-0.6-0.81-1.26-1.14-1.94
	c-0.57-1.16-1.03-2.36-1.46-3.57c-0.8-2.26-1.47-4.56-2.11-6.88c-0.86-3.07-1.7-6.14-2.56-9.21c-0.26-0.93-0.5-1.87-0.89-2.75
	c-0.01-0.02-0.06-0.03-0.09-0.03c-0.03,0-0.06,0.02-0.07,0.04c-0.02,0.07-0.04,0.14-0.05,0.21c-0.01,0.25-0.01,0.5-0.01,0.75
	c0.03,5.42,0.05,10.83,0.09,16.25c0.02,2.19,0.07,4.37,0.11,6.56c0.01,0.32,0,0.65,0,0.97c-0.01,0.26-0.14,0.43-0.37,0.43
	c-1.13,0.01-2.27,0.01-3.4,0.01c-0.13,0-0.28-0.13-0.3-0.26c-0.02-0.21-0.05-0.43-0.05-0.64c-0.02-1-0.03-2.01-0.05-3.01
	c-0.05-2.44-0.1-4.88-0.14-7.31c-0.08-4.52-0.1-9.04-0.02-13.56c0.03-1.47,0.11-2.94,0.19-4.41c0.04-0.68,0.13-1.36,0.23-2.03
	c0.11-0.77,0.44-1.43,0.98-1.99c0.28-0.28,0.61-0.49,0.99-0.61c0.31-0.1,0.63-0.12,0.94-0.04c0.38,0.1,0.74,0.24,1.07,0.46
	c0.51,0.33,0.94,0.75,1.33,1.23c0.47,0.59,0.84,1.24,1.15,1.93c0.68,1.5,1.25,3.04,1.76,4.61c0.79,2.45,1.46,4.94,2.12,7.43
	c0.75,2.84,1.47,5.68,2.34,8.49c0.19,0.61,0.4,1.22,0.61,1.83C29.78,156.46,29.86,156.53,29.96,156.66z"/>
<path class="st1" d="M41.73,146.49c0.03-1.72,0.05-3.44,0.08-5.16c0.06-3.23,0.12-6.45,0.18-9.68c0-0.18,0.01-0.36,0.02-0.54
	c0.02-0.27,0.14-0.41,0.38-0.42c0.14-0.01,0.28-0.01,0.42-0.01c3.15,0.01,6.31,0.02,9.46,0.02c0.21,0,0.42,0.01,0.64,0.02
	c0.14,0.01,0.27,0.13,0.29,0.26c0.01,0.07,0.02,0.14,0.03,0.21c0,1.04,0.01,2.08,0.01,3.12c0,0.36-0.15,0.51-0.52,0.52
	c-0.28,0.01-0.57,0.02-0.85,0.02c-1.63,0.01-3.26,0.02-4.89,0.03c-0.25,0-0.49,0.03-0.74,0.07c-0.06,0.01-0.1,0.09-0.15,0.14
	c-0.02,0.03-0.02,0.07-0.03,0.1c-0.01,0.11-0.03,0.21-0.03,0.32c-0.07,3.55-0.13,7.1-0.2,10.65c0,0.14,0,0.29,0,0.43
	c0.01,0.32,0.12,0.45,0.45,0.46c1.59,0.05,3.19,0.09,4.78,0.14c1.6,0.05,1.42-0.15,1.4,1.46c-0.01,0.79-0.04,1.58-0.06,2.36
	c0,0.14-0.14,0.28-0.27,0.28c-0.28,0.01-0.57,0.02-0.85,0.02c-1.49-0.02-2.98-0.04-4.46-0.05c-0.25,0-0.49,0.01-0.74,0.01
	c-0.14,0-0.28,0.13-0.29,0.26c-0.02,0.21-0.05,0.43-0.05,0.64c-0.05,2.73-0.09,5.45-0.14,8.18c0,0.14,0,0.29,0.04,0.43
	c0.03,0.08,0.12,0.2,0.2,0.21c0.24,0.04,0.49,0.04,0.74,0.04c1.67,0,3.33-0.02,4.99-0.02c0.28,0,0.57,0.01,0.85,0.01
	c0.12,0,0.29,0.14,0.3,0.26c0.01,0.11,0.04,0.21,0.04,0.32c0.01,1,0.02,2.01,0.03,3.01c0,0.07-0.01,0.14-0.02,0.21
	c-0.01,0.11-0.17,0.27-0.29,0.28c-0.6,0.04-1.2,0.12-1.8,0.13c-1.81,0.03-3.61,0.03-5.42,0.05c-0.71,0.01-1.42-0.09-2.11-0.23
	c-1.08-0.21-1.34-0.43-1.54-1.6c-0.13-0.78-0.21-1.56-0.22-2.35c-0.02-2.44-0.02-4.88,0.13-7.31c0.07-1.14,0.08-2.29,0.11-3.44
	c0.03-1.29,0.05-2.58,0.08-3.87C41.71,146.49,41.72,146.49,41.73,146.49z"/>
<path class="st1" d="M63.71,153.39c0.07-0.01,0.16,0,0.18-0.03c0.07-0.16,0.14-0.33,0.16-0.5c0.24-1.41,0.52-2.82,0.88-4.2
	c0.17-0.66,0.38-1.31,0.66-1.93c0.18-0.39,0.39-0.76,0.67-1.09c0.73-0.87,2.12-0.82,2.82,0c0.26,0.3,0.44,0.65,0.53,1.04
	c0.13,0.56,0.25,1.12,0.38,1.68c0.57,2.44,1.13,4.88,1.71,7.32c0.17,0.73,0.4,1.45,0.6,2.17c0.07,0.23,0.15,0.32,0.23,0.28
	c0.15-0.08,0.17-0.23,0.18-0.37c0.1-1.18,0.2-2.36,0.27-3.54c0.13-2.26,0.24-4.51,0.35-6.77c0.01-0.14,0.02-0.29,0.02-0.43
	c0.09-2.62,0.18-5.23,0.25-7.85c0.08-2.69,0.14-5.38,0.2-8.07c0-0.14,0.01-0.29,0.02-0.43c0.02-0.32,0.15-0.45,0.47-0.44
	c1.1,0.04,2.19,0.09,3.29,0.15c0.13,0.01,0.26,0.14,0.27,0.28c0.01,0.21,0.02,0.43,0.02,0.64c-0.05,2.01-0.11,4.01-0.16,6.02
	c-0.01,0.21-0.02,0.43-0.02,0.64c-0.1,3.33-0.17,6.67-0.3,10c-0.09,2.29-0.11,4.59-0.19,6.88c-0.06,1.83-0.25,3.65-0.64,5.44
	c-0.15,0.7-0.36,1.39-0.64,2.05c-0.23,0.53-0.5,1.03-0.87,1.47c-0.7,0.83-1.58,1.16-2.66,1c-0.32-0.05-0.61-0.17-0.88-0.34
	c-0.42-0.27-0.77-0.63-1.08-1.02c-0.49-0.62-0.86-1.31-1.19-2.03c-0.56-1.2-0.98-2.46-1.35-3.73c-0.04-0.13-0.12-0.26-0.18-0.38
	c-0.01-0.02-0.06-0.03-0.09-0.04c-0.03,0-0.07,0.01-0.08,0.03c-0.04,0.1-0.08,0.2-0.11,0.3c-0.3,1.18-0.62,2.36-1.06,3.49
	c-0.25,0.63-0.53,1.25-0.84,1.85c-0.19,0.38-0.45,0.73-0.71,1.07c-0.15,0.2-0.34,0.37-0.54,0.52c-0.63,0.48-1.29,0.54-1.98,0.14
	c-0.57-0.33-1-0.78-1.25-1.41c-0.22-0.57-0.39-1.15-0.51-1.75c-0.19-0.98-0.35-1.97-0.49-2.97c-0.15-1.1-0.26-2.21-0.36-3.31
	c-0.1-1-0.18-2-0.23-3c-0.1-1.83-0.17-3.65-0.28-5.48c-0.22-3.8-0.2-7.6-0.33-11.4c-0.05-1.33-0.05-2.65-0.07-3.98
	c0-0.18,0-0.36,0.04-0.53c0.02-0.08,0.12-0.17,0.2-0.21c0.09-0.04,0.21-0.04,0.31-0.05c0.99-0.03,1.98-0.07,2.97-0.1
	c0.1,0,0.22,0,0.31,0.04c0.09,0.04,0.2,0.13,0.22,0.21c0.05,0.21,0.07,0.42,0.07,0.64c0.02,0.86,0.03,1.72,0.06,2.58
	c0.05,1.86,0.11,3.73,0.16,5.59c0.01,0.18,0.01,0.36,0.02,0.54c0.1,2.87,0.18,5.73,0.29,8.6c0.06,1.47,0.15,2.94,0.23,4.4
	C63.67,153.18,63.7,153.28,63.71,153.39z"/>
<path class="st1" d="M105.66,150.49c-0.02,0.41-0.04,0.77-0.05,1.12c-0.04,2.4-0.08,4.8-0.11,7.2c-0.03,1.94-0.04,3.87-0.06,5.81
	c0,0.18-0.01,0.36-0.02,0.54c-0.01,0.18-0.17,0.35-0.33,0.37c-0.03,0-0.07,0.01-0.11,0.01c-1.1-0.03-2.19-0.05-3.29-0.09
	c-0.07,0-0.14-0.02-0.2-0.06c-0.06-0.03-0.13-0.09-0.14-0.15c-0.03-0.21-0.05-0.43-0.04-0.64c0.02-1.47,0.05-2.94,0.07-4.41
	c0.04-2.8,0.08-5.59,0.12-8.39c0-0.21,0-0.43-0.03-0.64c-0.01-0.09-0.09-0.2-0.17-0.25c-0.11-0.08-0.25-0.12-0.38-0.18
	c-0.86-0.4-1.53-1.02-2.08-1.79c-0.5-0.71-0.86-1.48-1.17-2.28c-0.38-1.01-0.64-2.05-0.83-3.11c-0.24-1.34-0.39-2.69-0.49-4.05
	c-0.23-2.79-0.14-5.59-0.12-8.38c0-0.11,0.02-0.21,0.03-0.32c0.01-0.13,0.15-0.27,0.27-0.29c0.07-0.01,0.14-0.03,0.21-0.03
	c1.03,0,2.05,0.01,3.08,0.02c0.1,0,0.22,0.02,0.3,0.07c0.08,0.05,0.19,0.14,0.2,0.22c0.03,0.25,0.03,0.5,0.03,0.75
	c0.01,1.79,0.02,3.59,0.04,5.38c0.03,1.87,0.21,3.72,0.46,5.57c0.12,0.89,0.28,1.77,0.59,2.62c0.12,0.34,0.25,0.67,0.42,0.99
	c0.11,0.22,0.27,0.42,0.44,0.6c0.31,0.33,0.87,0.39,1.27,0.16c0.35-0.19,0.63-0.46,0.86-0.78c0.3-0.41,0.51-0.86,0.7-1.32
	c0.34-0.83,0.56-1.7,0.73-2.58c0.24-1.23,0.41-2.47,0.52-3.72c0.22-2.46,0.3-4.94,0.39-7.41c0.01-0.18,0.01-0.36,0.05-0.53
	c0.02-0.1,0.1-0.18,0.22-0.2c0.07-0.01,0.14-0.03,0.21-0.02c1.06,0.04,2.12,0.08,3.18,0.12c0.03,0,0.07,0.01,0.1,0.02
	c0.13,0.02,0.27,0.15,0.28,0.28c0.01,0.18,0.03,0.36,0.02,0.53c-0.02,1.18-0.03,2.37-0.08,3.55c-0.09,2.33-0.24,4.65-0.63,6.95
	c-0.23,1.38-0.54,2.74-1.02,4.05c-0.25,0.67-0.53,1.33-0.89,1.95c-0.56,0.97-1.25,1.83-2.19,2.45
	C105.94,150.25,105.84,150.35,105.66,150.49z"/>
<path class="st1" d="M116.69,146.49c0.03-1.72,0.05-3.44,0.08-5.16c0.06-3.23,0.12-6.45,0.18-9.68c0-0.18,0.01-0.36,0.02-0.54
	c0.02-0.27,0.14-0.41,0.38-0.42c0.14-0.01,0.28-0.01,0.42-0.01c3.15,0.01,6.31,0.02,9.46,0.02c0.21,0,0.42,0.01,0.64,0.02
	c0.14,0.01,0.27,0.13,0.29,0.26c0.01,0.07,0.02,0.14,0.03,0.21c0,1.04,0.01,2.08,0.01,3.12c0,0.36-0.15,0.51-0.52,0.52
	c-0.28,0.01-0.57,0.02-0.85,0.02c-1.63,0.01-3.26,0.02-4.89,0.03c-0.25,0-0.49,0.03-0.74,0.07c-0.06,0.01-0.1,0.09-0.15,0.14
	c-0.02,0.03-0.02,0.07-0.03,0.1c-0.01,0.11-0.03,0.21-0.03,0.32c-0.07,3.55-0.13,7.1-0.2,10.65c0,0.14,0,0.29,0,0.43
	c0.01,0.32,0.12,0.45,0.45,0.46c1.59,0.05,3.19,0.09,4.78,0.14c1.6,0.05,1.42-0.15,1.4,1.46c-0.01,0.79-0.04,1.58-0.06,2.36
	c0,0.14-0.14,0.28-0.27,0.28c-0.28,0.01-0.57,0.02-0.85,0.02c-1.49-0.02-2.98-0.04-4.46-0.05c-0.25,0-0.49,0.01-0.74,0.01
	c-0.14,0-0.28,0.13-0.29,0.26c-0.02,0.21-0.05,0.43-0.05,0.64c-0.05,2.73-0.09,5.45-0.14,8.18c0,0.14,0,0.29,0.04,0.43
	c0.03,0.08,0.12,0.2,0.2,0.21c0.24,0.04,0.49,0.04,0.74,0.04c1.67,0,3.33-0.02,4.99-0.02c0.28,0,0.57,0.01,0.85,0.01
	c0.12,0,0.29,0.14,0.3,0.26c0.01,0.11,0.04,0.21,0.04,0.32c0.01,1,0.02,2.01,0.03,3.01c0,0.07-0.01,0.14-0.02,0.21
	c-0.01,0.11-0.17,0.27-0.29,0.28c-0.6,0.04-1.2,0.12-1.8,0.13c-1.81,0.03-3.61,0.03-5.42,0.05c-0.71,0.01-1.42-0.09-2.11-0.23
	c-1.08-0.21-1.34-0.43-1.54-1.6c-0.13-0.78-0.21-1.56-0.22-2.35c-0.02-2.44-0.02-4.88,0.13-7.31c0.07-1.14,0.08-2.29,0.11-3.44
	c0.03-1.29,0.05-2.58,0.08-3.87C116.68,146.49,116.69,146.49,116.69,146.49z"/>
<path class="st1" d="M148.11,156.82c0.11,2.33,0.23,4.65,0.34,6.98c0.02,0.32,0,0.64-0.01,0.96c0,0.13-0.15,0.26-0.28,0.27
	c-0.18,0.02-0.35,0.03-0.53,0.04c-0.85,0.03-1.7,0.06-2.55,0.09c-0.14,0-0.29,0.01-0.42-0.03c-0.08-0.03-0.18-0.13-0.2-0.21
	c-0.05-0.17-0.06-0.35-0.07-0.53c-0.05-1.11-0.1-2.22-0.15-3.33c-0.06-1.25-0.13-2.5-0.2-3.76c-0.01-0.19-0.16-0.34-0.33-0.35
	c-0.11-0.01-0.21-0.02-0.32-0.02c-1.63,0.01-3.26,0.02-4.88,0.03c-0.14,0-0.29,0.01-0.42,0.05c-0.1,0.03-0.19,0.09-0.21,0.21
	c-0.01,0.07-0.04,0.14-0.04,0.21c-0.07,1.07-0.15,2.14-0.21,3.22c-0.08,1.32-0.15,2.65-0.23,3.97c0,0.07-0.02,0.14-0.03,0.21
	c-0.02,0.12-0.16,0.25-0.3,0.26c-0.96,0.01-1.91-0.02-2.86-0.14c-0.25-0.03-0.49-0.06-0.73-0.11c-0.06-0.01-0.12-0.09-0.14-0.15
	c-0.03-0.1-0.03-0.21-0.03-0.32c0.11-2.65,0.21-5.3,0.35-7.95c0.08-1.5,0.21-3,0.33-4.5c0.07-0.93,0.16-1.86,0.24-2.78
	c0.15-1.71,0.37-3.42,0.61-5.12c0.24-1.67,0.53-3.32,0.91-4.96c0.33-1.43,0.72-2.84,1.27-4.21c0.29-0.73,0.63-1.44,1.05-2.1
	c0.29-0.45,0.62-0.88,1.02-1.23c0.61-0.54,1.31-0.84,2.13-0.83c0.66,0,1.25,0.23,1.78,0.62c0.43,0.32,0.79,0.72,1.1,1.16
	c0.39,0.55,0.71,1.16,0.98,1.78c0.55,1.25,0.93,2.55,1.24,3.88c0.4,1.74,0.68,3.51,0.91,5.29c0.25,1.88,0.41,3.78,0.54,5.67
	c0.13,1.89,0.19,3.79,0.27,5.69c0.03,0.68,0.04,1.36,0.06,2.04C148.09,156.82,148.1,156.82,148.11,156.82z M140.91,152.86
	c0-0.01,0-0.02,0-0.03c0.71,0,1.42,0,2.12,0c0.18,0,0.36-0.01,0.52-0.05c0.09-0.02,0.19-0.11,0.19-0.23c0.01-0.21,0.02-0.43,0-0.64
	c-0.18-2.03-0.36-4.07-0.54-6.1c-0.19-2.14-0.49-4.27-0.89-6.38c-0.21-1.13-0.48-2.24-0.87-3.32c-0.06-0.16-0.16-0.31-0.26-0.46
	c-0.04-0.06-0.12-0.05-0.17,0.03c-0.09,0.15-0.18,0.3-0.25,0.47c-0.37,0.89-0.6,1.83-0.82,2.77c-0.34,1.47-0.58,2.95-0.8,4.44
	c-0.2,1.38-0.34,2.77-0.5,4.16c-0.12,1.03-0.23,2.06-0.32,3.1c-0.06,0.64-0.08,1.29-0.11,1.93c-0.01,0.14,0.13,0.29,0.25,0.3
	c0.18,0.01,0.35,0.03,0.53,0.03C139.64,152.86,140.28,152.86,140.91,152.86z"/>
<path class="st1" d="M167.67,165.09c-0.3-0.09-0.46-0.34-0.65-0.55c-2.35-2.58-4.7-5.17-7.05-7.75c-0.21-0.24-0.45-0.45-0.68-0.67
	c-0.02-0.02-0.17,0.03-0.17,0.06c-0.03,0.25-0.05,0.5-0.06,0.75c-0.01,2.22,0,4.45-0.01,6.67c-0.01,1.62,0.19,1.44-1.4,1.45
	c-0.78,0-1.56-0.01-2.34-0.02c-0.18,0-0.34-0.15-0.34-0.34c-0.01-0.43-0.03-0.86-0.03-1.29c0.02-9.54,0.03-19.08,0.05-28.62
	c0-1.33,0-2.65,0.01-3.98c0-0.21,0.03-0.43,0.06-0.64c0.01-0.06,0.08-0.13,0.14-0.15c0.1-0.03,0.21-0.05,0.31-0.05
	c1.74,0,3.47-0.03,5.21,0.02c1.5,0.04,2.94,0.37,4.32,0.99c2.03,0.91,3.5,2.38,4.45,4.41c0.53,1.15,0.85,2.36,1.01,3.6
	c0.18,1.39,0.23,2.78,0.03,4.18c-0.23,1.7-0.75,3.28-1.72,4.69c-1.03,1.52-2.42,2.6-4.09,3.32c-0.75,0.32-1.52,0.57-2.33,0.72
	c-0.21,0.04-0.41,0.1-0.61,0.16c-0.14,0.04-0.18,0.22-0.08,0.34c0.2,0.25,0.41,0.5,0.62,0.73c1.45,1.62,2.89,3.25,4.35,4.87
	c1.16,1.3,2.34,2.6,3.5,3.9c0.12,0.13,0.23,0.28,0.32,0.43c0.03,0.05,0.02,0.15-0.01,0.2c-0.05,0.09-0.13,0.17-0.2,0.25
	c-0.78,0.73-1.57,1.45-2.36,2.17C167.85,165,167.75,165.04,167.67,165.09z M159.07,141.04
	C159.07,141.04,159.06,141.04,159.07,141.04c-0.01,1.93-0.01,3.87-0.01,5.8c0,0.29,0.02,0.57,0.03,0.86
	c0.01,0.14,0.15,0.27,0.28,0.27c1.17-0.03,2.33-0.12,3.45-0.47c1.64-0.52,2.71-1.62,3.26-3.26c0.08-0.24,0.15-0.48,0.21-0.72
	c0.31-1.34,0.32-2.7,0.19-4.06c-0.05-0.49-0.19-0.98-0.34-1.46c-0.58-1.84-1.83-3.02-3.65-3.57c-0.92-0.28-1.86-0.39-2.82-0.39
	c-0.03,0-0.07,0-0.11,0.01c-0.31,0.01-0.47,0.16-0.48,0.44c-0.01,0.29-0.01,0.57-0.01,0.86
	C159.07,137.25,159.07,139.15,159.07,141.04z"/>
<linearGradient id="SVGID_2_" gradientUnits="userSpaceOnUse" x1="1.0025" y1="45.5143" x2="12.6045" y2="45.5143">
	<stop  offset="0.142" style="stop-color:#EBDEB4"/>
	<stop  offset="0.3332" style="stop-color:#EBD090"/>
	<stop  offset="0.535" style="stop-color:#EBC471"/>
	<stop  offset="0.7203" style="stop-color:#EABC58"/>
	<stop  offset="0.8814" style="stop-color:#EAB748"/>
	<stop  offset="1" style="stop-color:#EAB542"/>
</linearGradient>
<polygon class="st23" points="6.8,51.32 5.52,46.81 1,45.51 5.77,44.29 6.8,39.71 8.1,44.23 12.6,45.51 8.19,46.71 "/>
<linearGradient id="SVGID_3_" gradientUnits="userSpaceOnUse" x1="100.2442" y1="41.5421" x2="104.7988" y2="41.5421">
	<stop  offset="0.142" style="stop-color:#EBDEB4"/>
	<stop  offset="0.3332" style="stop-color:#EBD090"/>
	<stop  offset="0.535" style="stop-color:#EBC471"/>
	<stop  offset="0.7203" style="stop-color:#EABC58"/>
	<stop  offset="0.8814" style="stop-color:#EAB748"/>
	<stop  offset="1" style="stop-color:#EAB542"/>
</linearGradient>
<path class="st24" d="M104.8,41.54c0,1.26-1.02,2.28-2.28,2.28c-1.26,0-2.28-1.02-2.28-2.28c0-1.26,1.02-2.28,2.28-2.28
	C103.78,39.26,104.8,40.28,104.8,41.54z"/>
<g>
	<g>
		<linearGradient id="SVGID_4_" gradientUnits="userSpaceOnUse" x1="174.8822" y1="104.8624" x2="175.7793" y2="104.8624">
			<stop  offset="0.142" style="stop-color:#EBDEB4"/>
			<stop  offset="0.3332" style="stop-color:#EBD090"/>
			<stop  offset="0.535" style="stop-color:#EBC471"/>
			<stop  offset="0.7203" style="stop-color:#EABC58"/>
			<stop  offset="0.8814" style="stop-color:#EAB748"/>
			<stop  offset="1" style="stop-color:#EAB542"/>
		</linearGradient>
		<path class="st25" d="M175.33,109.53c-0.25,0-0.45-0.2-0.45-0.45v-8.44c0-0.25,0.2-0.45,0.45-0.45c0.25,0,0.45,0.2,0.45,0.45v8.44
			C175.78,109.33,175.58,109.53,175.33,109.53z"/>
	</g>
	<g>
		<linearGradient id="SVGID_5_" gradientUnits="userSpaceOnUse" x1="170.6611" y1="104.8624" x2="180" y2="104.8624">
			<stop  offset="0.142" style="stop-color:#EBDEB4"/>
			<stop  offset="0.3332" style="stop-color:#EBD090"/>
			<stop  offset="0.535" style="stop-color:#EBC471"/>
			<stop  offset="0.7203" style="stop-color:#EABC58"/>
			<stop  offset="0.8814" style="stop-color:#EAB748"/>
			<stop  offset="1" style="stop-color:#EAB542"/>
		</linearGradient>
		<path class="st26" d="M179.55,105.31h-8.44c-0.25,0-0.45-0.2-0.45-0.45c0-0.25,0.2-0.45,0.45-0.45h8.44c0.25,0,0.45,0.2,0.45,0.45
			C180,105.11,179.8,105.31,179.55,105.31z"/>
	</g>
	<g>
		<linearGradient id="SVGID_6_" gradientUnits="userSpaceOnUse" x1="171.8973" y1="104.8621" x2="178.7636" y2="104.8621">
			<stop  offset="0.142" style="stop-color:#EBDEB4"/>
			<stop  offset="0.3332" style="stop-color:#EBD090"/>
			<stop  offset="0.535" style="stop-color:#EBC471"/>
			<stop  offset="0.7203" style="stop-color:#EABC58"/>
			<stop  offset="0.8814" style="stop-color:#EAB748"/>
			<stop  offset="1" style="stop-color:#EAB542"/>
		</linearGradient>
		<path class="st27" d="M172.35,108.3c-0.12,0-0.23-0.04-0.32-0.13c-0.18-0.17-0.18-0.46,0-0.63l5.97-5.97
			c0.18-0.18,0.46-0.18,0.63,0c0.18,0.18,0.18,0.46,0,0.63l-5.97,5.97C172.58,108.25,172.46,108.3,172.35,108.3z"/>
	</g>
	<g>
		<linearGradient id="SVGID_7_" gradientUnits="userSpaceOnUse" x1="171.8977" y1="104.8621" x2="178.7639" y2="104.8621">
			<stop  offset="0.142" style="stop-color:#EBDEB4"/>
			<stop  offset="0.3332" style="stop-color:#EBD090"/>
			<stop  offset="0.535" style="stop-color:#EBC471"/>
			<stop  offset="0.7203" style="stop-color:#EABC58"/>
			<stop  offset="0.8814" style="stop-color:#EAB748"/>
			<stop  offset="1" style="stop-color:#EAB542"/>
		</linearGradient>
		<path class="st28" d="M178.32,108.3c-0.12,0-0.23-0.04-0.32-0.13l-5.97-5.97c-0.18-0.18-0.18-0.46,0-0.63
			c0.18-0.18,0.46-0.18,0.63,0l5.97,5.97c0.18,0.18,0.18,0.46,0,0.63C178.54,108.25,178.43,108.3,178.32,108.3z"/>
	</g>
</g>
<g>
	<path class="st1" d="M2.36,79.8c-1.02-1.79-1.38-3.29,0.03-4.9c0.87-1,1.75-1.86,2.16-3.15c0.51-1.6-0.13-3.44-0.79-4.89
		c-0.99-2.16-1.91-3.45,0.18-5.35c0.66-0.6-0.32-1.57-0.97-0.97C1.57,61.8,0.79,63.22,1.4,65.1c0.69,2.12,2.36,3.89,1.82,6.29
		c-0.34,1.52-1.98,2.5-2.75,3.8c-1.02,1.74-0.21,3.73,0.69,5.31C1.61,81.27,2.8,80.57,2.36,79.8L2.36,79.8z"/>
</g>
<g>
	<path class="st1" d="M136.52,72.74c-1.02-1.79-1.38-3.29,0.03-4.9c0.87-1,1.75-1.86,2.16-3.15c0.51-1.6-0.13-3.44-0.79-4.89
		c-0.99-2.16-1.91-3.45,0.18-5.35c0.66-0.6-0.32-1.57-0.97-0.97c-1.39,1.27-2.18,2.69-1.56,4.57c0.69,2.12,2.36,3.89,1.82,6.29
		c-0.34,1.52-1.98,2.5-2.75,3.8c-1.02,1.74-0.21,3.73,0.69,5.31C135.77,74.21,136.96,73.52,136.52,72.74L136.52,72.74z"/>
</g>
<g>
	<path class="st22" d="M11.67,160.75c-1.02-1.79-1.38-3.29,0.03-4.9c0.87-1,1.75-1.86,2.16-3.15c0.51-1.6-0.13-3.44-0.79-4.89
		c-0.99-2.16-1.91-3.45,0.18-5.35c0.66-0.6-0.32-1.57-0.97-0.97c-1.39,1.27-2.18,2.69-1.56,4.57c0.69,2.12,2.36,3.89,1.82,6.29
		c-0.34,1.52-1.98,2.5-2.75,3.8c-1.02,1.74-0.21,3.73,0.69,5.31C10.92,162.22,12.11,161.53,11.67,160.75L11.67,160.75z"/>
</g>
<g>
	<path class="st1" d="M37.37,23.53c-0.73-1.28-0.99-2.36,0.02-3.52c0.63-0.72,1.26-1.33,1.55-2.26c0.37-1.15-0.09-2.47-0.57-3.52
		c-0.71-1.55-1.37-2.48,0.13-3.85c0.47-0.43-0.23-1.13-0.7-0.7c-1,0.91-1.57,1.93-1.12,3.28c0.5,1.52,1.7,2.8,1.31,4.52
		c-0.25,1.09-1.42,1.8-1.97,2.73c-0.73,1.25-0.15,2.68,0.5,3.82C36.83,24.59,37.68,24.09,37.37,23.53L37.37,23.53z"/>
</g>
<g>
	<path class="st22" d="M87.99,171c-1.02-1.79-1.38-3.29,0.03-4.9c0.87-1,1.75-1.86,2.16-3.15c0.51-1.6-0.13-3.44-0.79-4.89
		c-0.99-2.16-1.91-3.45,0.18-5.35c0.66-0.6-0.32-1.57-0.97-0.97c-1.39,1.27-2.18,2.69-1.56,4.57c0.69,2.12,2.36,3.89,1.82,6.29
		c-0.34,1.52-1.98,2.5-2.75,3.8c-1.02,1.74-0.21,3.73,0.69,5.31C87.24,172.47,88.43,171.77,87.99,171L87.99,171z"/>
</g>
<linearGradient id="SVGID_8_" gradientUnits="userSpaceOnUse" x1="2.3665" y1="128.4281" x2="6.9211" y2="128.4281">
	<stop  offset="0.142" style="stop-color:#EBDEB4"/>
	<stop  offset="0.3332" style="stop-color:#EBD090"/>
	<stop  offset="0.535" style="stop-color:#EBC471"/>
	<stop  offset="0.7203" style="stop-color:#EABC58"/>
	<stop  offset="0.8814" style="stop-color:#EAB748"/>
	<stop  offset="1" style="stop-color:#EAB542"/>
</linearGradient>
<path class="st29" d="M6.92,128.43c0,1.26-1.02,2.28-2.28,2.28c-1.26,0-2.28-1.02-2.28-2.28c0-1.26,1.02-2.28,2.28-2.28
	C5.9,126.15,6.92,127.17,6.92,128.43z"/>
<linearGradient id="SVGID_9_" gradientUnits="userSpaceOnUse" x1="77.4496" y1="121.5607" x2="82.0042" y2="121.5607">
	<stop  offset="0.142" style="stop-color:#EBDEB4"/>
	<stop  offset="0.3332" style="stop-color:#EBD090"/>
	<stop  offset="0.535" style="stop-color:#EBC471"/>
	<stop  offset="0.7203" style="stop-color:#EABC58"/>
	<stop  offset="0.8814" style="stop-color:#EAB748"/>
	<stop  offset="1" style="stop-color:#EAB542"/>
</linearGradient>
<path class="st30" d="M82,121.56c0,1.26-1.02,2.28-2.28,2.28c-1.26,0-2.28-1.02-2.28-2.28c0-1.26,1.02-2.28,2.28-2.28
	C80.98,119.28,82,120.3,82,121.56z"/>
<linearGradient id="SVGID_10_" gradientUnits="userSpaceOnUse" x1="55.7133" y1="65.8065" x2="60.2679" y2="65.8065">
	<stop  offset="0.142" style="stop-color:#EBDEB4"/>
	<stop  offset="0.3332" style="stop-color:#EBD090"/>
	<stop  offset="0.535" style="stop-color:#EBC471"/>
	<stop  offset="0.7203" style="stop-color:#EABC58"/>
	<stop  offset="0.8814" style="stop-color:#EAB748"/>
	<stop  offset="1" style="stop-color:#EAB542"/>
</linearGradient>
<path class="st31" d="M60.27,65.81c0,1.26-1.02,2.28-2.28,2.28c-1.26,0-2.28-1.02-2.28-2.28c0-1.26,1.02-2.28,2.28-2.28
	C59.25,63.53,60.27,64.55,60.27,65.81z"/>
<linearGradient id="SVGID_11_" gradientUnits="userSpaceOnUse" x1="16.817" y1="2.6339" x2="21.3716" y2="2.6339">
	<stop  offset="0.142" style="stop-color:#EBDEB4"/>
	<stop  offset="0.3332" style="stop-color:#EBD090"/>
	<stop  offset="0.535" style="stop-color:#EBC471"/>
	<stop  offset="0.7203" style="stop-color:#EABC58"/>
	<stop  offset="0.8814" style="stop-color:#EAB748"/>
	<stop  offset="1" style="stop-color:#EAB542"/>
</linearGradient>
<path class="st32" d="M21.37,2.63c0,1.26-1.02,2.28-2.28,2.28c-1.26,0-2.28-1.02-2.28-2.28c0-1.26,1.02-2.28,2.28-2.28
	C20.35,0.36,21.37,1.38,21.37,2.63z"/>
</svg>
