<?xml version="1.0" encoding="utf-8"?>
<!-- Generator: Adobe Illustrator 25.2.1, SVG Export Plug-In . SVG Version: 6.00 Build 0)  -->
<svg version="1.1" id="Layer_1" xmlns="http://www.w3.org/2000/svg" xmlns:xlink="http://www.w3.org/1999/xlink" x="0px" y="0px"
	 viewBox="0 0 180 157.1" style="enable-background:new 0 0 180 157.1;" xml:space="preserve">
<style type="text/css">
	.st0{fill:#FDBB37;}
	.st1{fill:#0092A6;}
	.st2{fill:#FFFFFF;}
	.st3{fill:#E61E25;}
	.st4{fill:#EF3E37;}
	.st5{fill:none;stroke:#000000;stroke-linecap:round;stroke-miterlimit:10;}
	.st6{fill:#010101;}
	.st7{fill:#FFD386;}
	.st8{fill:#FFF0D9;}
	.st9{fill:#004D59;}
	.st10{fill:#FFFFFF;stroke:#000000;stroke-width:0.5;stroke-miterlimit:10;}
</style>
<path d="M106.8,15.4c0-1.9,1.5-3.4,3.4-3.4c1.9,0,3.4,1.5,3.4,3.4c0,1.9-1.5,3.4-3.4,3.4C108.3,18.8,106.8,17.3,106.8,15.4z"/>
<path d="M179.3,63.1c-4.6,5.2-9.1,10.4-13.7,15.6c0.2-6.9,0.3-14.5,0.5-21.4c-7.8,1-12.1,10.4-13.4,18.2c-1.3,7.7-2.1,15.2-6.6,21.6
	c-1.1,1.5-2.1,4.1-4,4.4c-1.6,0.3-2.8-0.4-4.3-1.2c-5.9-3.4-8.6-10.5-9.4-17.3c-0.8-6.7,0.1-13.6-0.6-20.4
	c-1.2-12.2-7.4-23.8-16.9-31.5c-1-0.8-2.1-1.6-2.6-2.8c-1-2.4,0.7-5.1,2.8-6.7c2.1-1.5,4.7-2.5,6.4-4.4c3.4-3.7,1.8-10.6-2.8-12.6
	c-4.6-2-10.7,1.7-11,6.7c-0.2,2.6,0.9,5.2,1.2,7.8c0.3,2.6-0.6,5.8-3.1,6.6c-1.1,0.3-2.3,0.1-3.5-0.1c-3.6-0.7-7.2-1.4-10.9-2.1
	c-0.9-0.2-1.9-0.5-2.2-1.3c-0.2-0.6,0-1.3,0.2-1.9c1.9-4.3,6.4-7.4,6.9-12C92.9,4.1,89.2,0,85.1,0s-7.8,4.1-7.4,8.2
	c0.4,3.7,3.6,6.9,3.3,10.7c-0.4,5.2-6.6,7.5-11.4,9.4c-10,4-18.4,11.6-23.4,21.1c-4.9,9.5-6.4,20.3-8.9,30.6
	c-2.5,10.4-5.9,19.7-14.4,26.1C18.7,97.1,20.4,87.9,22,78c1.6-9.8,2-21.2-4.9-28.4c-2.4,5.7-4.3,11.7-5.8,17.7
	c-1.7-5.5-3.4-11-5.1-16.5c0.2,0.5-2.4,4-2.8,4.7c-0.8,1.8-1.5,3.6-2,5.5C0.8,63.8,0,67,0,70c-0.1,6.3,3,12.7,8.4,16.1
	c1.2,0.7,2.4,1.4,3.4,2.4c1.3,1.5,1.7,3.6,1.9,5.6c1,7.2,2,14.4,3,21.7c0.1,0.9,0.4,2.1,1.3,2.3c0.7,0.2,1.4-0.2,2-0.7
	c4.1-2.8,8.1-5.7,12.2-8.5c-0.1,4.2-0.3,8.3-0.4,12.5c-5.7,0.1-11.3,0.3-17,0.4c-1.6,0-3.4,0.1-4.8,0.9c-1.8,1-2.8,2.8-3.7,4.6
	c-1.8,3.9-3.3,7.9-4.2,12.1c-0.3,1.2-0.3,2.8,0.9,3.3c1,0.4,2-0.6,2.7-1.4c2.3-2.9,4.6-5.7,6.8-8.6c-0.6,4.8-1.3,9.6-2,14.4
	c2.2,0.4,4.3-1.4,5.4-3.3c1.1-2,1.5-4.3,2.7-6.2c3.6-6.1,12-6.7,19-6.6c-5.7,0.8-11,4.4-13.9,9.4c-2.9,5-3.3,11.3-1.2,16.7
	c4-1.2,4.7-6.5,6.3-10.4c2.6-6.2,9.2-10,15.8-11.2c6.6-1.2,13.5-0.2,20.2,0.6c10.5,1.3,21.2,2,31.7,0.5c6.7-1,13.9-3.6,19.9-0.3
	c5.9,3.2,12,8.4,12.1,15.5c0,2.1,0.1,4.8,2.1,5.3c1.8,0.4,3.2-1.5,3.8-3.3c2.6-7.8,0.4-16.8-7.9-21.5c4.7,0.4,10.4,1.7,11.8,6.2
	c0.7,2.2,0,4.6,0.5,6.9c0.5,2.3,3.2,4.4,5,2.9c2-1.7,0.8-6.2,3.3-6.5c-0.2,1.9,2.7,2.7,4.2,1.5c1.4-1.3,1.6-3.4,1.6-5.3
	c0-2.9-0.1-5.7-0.4-8.6c-0.1-1.1-0.3-2.4-1.1-3.2c-0.8-0.8-1.9-1.1-3-1.3c-6.1-1.3-12.2-2.3-18.4-2.9c-0.4-5.5-0.3-11.1,0.3-16.6
	c4.5-0.5,7.4,6.3,11.9,5.8c1.8-0.2,3.3-1.5,4.6-2.9c3.9-4,7.4-8.4,10.4-13.1c7.5,1.1,15.2-3.5,19.1-10
	C180.1,78.6,180.7,70.6,179.3,63.1z M107.3,6.6c1.5-1.4,3.5-2.1,5.5-1.8c2.6,0.4,4.9,2.5,5.5,5.1c0.7,2.6-0.2,5.4-2.1,7.3
	c-2,2-5.2,2.7-7.8,1.6c-1.7-0.7-2.7-2-3.3-3.5C104.2,12.4,105,8.7,107.3,6.6z M80.9,13.1c-0.3-0.3-0.6-0.6-0.8-0.9
	c-2.4-3.1-1.9-8.1,1.7-10.1c1.8-1,3.9-1.1,5.9-0.6c1.3,0.3,2.5,1,3.2,2.1c0.9,1.4,0.8,3.2,0.4,4.8c-0.6,2.4-1.8,4.8-4,5.8
	C85.2,15.1,82.6,14.6,80.9,13.1z M87.6,10.7c0-1.9-1.5-3.4-3.4-3.4c-1.9,0-3.4,1.5-3.4,3.4s1.5,3.4,3.4,3.4
	C86,14,87.6,12.5,87.6,10.7z"/>
<g>
	<path class="st2" d="M113.5,15.4c0,1.9-1.5,3.4-3.4,3.4c-1.9,0-3.4-1.5-3.4-3.4c0-1.9,1.5-3.4,3.4-3.4
		C112,12.1,113.5,13.6,113.5,15.4z"/>
	<path class="st2" d="M87.6,10.7c0,1.9-1.5,3.4-3.4,3.4c-1.9,0-3.4-1.5-3.4-3.4s1.5-3.4,3.4-3.4C86,7.3,87.6,8.8,87.6,10.7z"/>
</g>
<g>
	<path class="st3" d="M18.1,115.1c-0.4-2.5-0.7-4.5-1-6.5c-1-5.9-1.9-11.9-2.9-17.8c-0.2-1.3-0.4-2.5,0.1-4.1c1-0.3,2.1-0.6,3.3-0.9
		c0.1,0.8,0.2,1.3,0.2,1.8c0,2.9,0.5,5.8,1.2,8.6c0.9,4.1,1.3,8.3,1.4,12.5C20.5,110.9,19.6,112.7,18.1,115.1z"/>
	<path class="st3" d="M29.7,108.7c-2.8,2-5.4,4.2-8.1,6.3c-0.4,0.3-0.9,0.5-1.5,0.9c-0.3-1.7,0.4-3,1.2-4.1c1.1-1.6,2.2-3.2,3.4-4.7
		c2.8-3.7,5.5-7.4,8.3-11.1c0.2-0.2,0.5-0.4,1.1-0.9c0.4,2.5,0,4.5-0.3,6.5C33.2,106.1,34,105.6,29.7,108.7z"/>
	<path class="st3" d="M13.9,123c0.6-0.2,1.3-0.2,1.9-0.2c4.4,0,8.8,0,13.2,0.1c0.3,0,0.6,0,1,0c0.6,0.1,1.3,0.2,1.4,1
		c0.1,0.7-0.4,1.1-1.5,1.2c-4.8,0.5-9.5,1.8-14.5,3.2c-1.1-1.5-2.1-2.9-3.1-4.2C12.6,123.2,13.4,123.2,13.9,123z"/>
	<path class="st3" d="M6.2,139c-0.7,0.9-1.3,2-2.6,2.1c-0.7-0.7-0.5-1.4-0.3-2.1c0.9-2.7,1.9-5.5,2.9-8.2c0.5-1.2,1.1-2.3,1.6-3.5
		c0.5-1.2,1.1-2.3,2.4-3.2c2.1,1.9,2.3,2.1,3.3,4.3C11.1,132,8.7,135.5,6.2,139z"/>
	<path class="st3" d="M16.1,140.8c-0.6,2.3-1.4,3.3-3.8,4.7c-0.1-0.1-0.4-0.3-0.4-0.4c0.4-4.5,1.7-8.8,2.8-13.2
		c0.1-0.4,0.4-0.7,0.7-1.2c1.4,0.8,1.9,2.1,2.4,3C17.2,136.2,16.6,138.5,16.1,140.8z"/>
	<path class="st3" d="M20.2,132.6c-1.1-0.7-2.1-1.7-2.5-3.2c2.6-1.4,10.1-3,12.8-2.9c1.8,0,2.7,1.4,4.3,2.6
		C29.7,130.3,25,131.4,20.2,132.6z"/>
	<path class="st3" d="M28.5,142.5c-0.6,2.6-1.1,5.2-1.8,7.8c-0.5,1.9-1.5,3.5-3.3,4.9c-0.4-0.5-0.8-0.9-0.9-1.3
		c-0.2-0.7-0.4-1.5-0.2-2.2c0.7-3.7,1.5-7.3,2.3-11c0.1-0.4,0.4-0.7,0.6-1c1.2-0.1,1.9,0.5,2.7,1.1
		C28.4,141.2,28.6,141.8,28.5,142.5z"/>
	<path class="st3" d="M45,133.3c-4.9,2.5-9.9,5-14.9,7.6c-1.2-0.9-2.3-1.7-3.5-2.5c-0.1-0.1-0.1-0.2-0.1-0.3c0-0.8,0.7-1,1.2-1.3
		c3.6-1.8,7.3-3.6,11-5.4c0.9-0.5,1.9-0.4,2.8-0.1c1.2,0.4,2.4,0.9,3.6,1.3C45,132.9,45.1,133.2,45,133.3z"/>
	<path class="st3" d="M134.1,143.1c0.2,3.7-0.3,7.3-1.2,10.8c-0.1,0.4-0.2,0.9-0.4,1.2c-0.3,0.4-0.7,0.8-1.1,1
		c-0.7,0.2-1.2-0.3-1.5-0.9c-0.2-0.4-0.3-0.8-0.3-1.2c0-3.2,0.1-6.4,0.2-9.7c1.2-0.9,2.4-1.7,3.5-2.5
		C134,142.1,134,142.6,134.1,143.1z"/>
	<path class="st3" d="M131.8,141c-0.6,0.5-1.3,1-2.1,1.4c-0.4,0.2-1,0.3-1.4,0c-0.4-0.2-0.9-0.4-1.3-0.7c-2.4-1.6-4.8-3.2-7.2-5
		c-0.9-0.6-1.7-1.3-2.5-2.2c-0.6-0.8-0.4-1.9,0.4-2.4c1.2-0.6,2.3-1.1,3.4-1.6c0.5-0.2,1-0.1,1.4,0.2c2.3,1.6,6.9,5.7,9.2,7.9
		C132.5,139.4,132.5,140.5,131.8,141z"/>
	<path class="st3" d="M144.5,141.4c-0.4,2-1.1,3.9-1.8,5.8c-0.2,0.6-1.1,0.8-1.6,0.3c-0.7-0.7-1.4-1.4-1.4-2.4
		c-0.2-2.6-0.3-5.1-0.3-7.7c0-0.4,0.5-1,0.9-1.2c1.3-0.7,2.7-1.2,4.5-1.5C145.3,137.2,144.9,139.3,144.5,141.4z"/>
	<path class="st3" d="M151.1,129.4c0.1,0.6,0.1,1.3,0.1,1.9c0,2.4,0.1,4.9-0.1,7.3c-0.1,1.3-0.4,6.5-2.5,3.7
		c-0.4-0.5-0.7-1.2-0.9-1.8c-0.6-1.8-1.1-3.6-1.4-5.4c-0.1-0.9-0.2-1.9-0.3-2.8c0-0.2,0.2-0.4,0.4-0.5c0.2-0.2,0.4-0.3,0.5-0.5
		c0.4-0.3,0.7-0.7,1.1-1c0.8-0.8,1.6-1.5,2.4-2.3C150.9,128.3,151,128.9,151.1,129.4z"/>
	<path class="st3" d="M130.4,123.7c0.4-0.2,0.8-0.2,1.1-0.3c1.1,0,2.2,0.1,3.2,0.3c2.2,0.3,4.5,0.7,6.7,1.1c1.6,0.3,3.3,0.6,4.9,0.9
		c1,0.2,2,0.4,2.8,1c-0.8,1.8-2.2,3.3-3.9,4.2c-0.1,0.1-0.2,0.1-0.4,0.1c-0.2,0-0.3-0.1-0.5-0.2c-1.6-0.9-3.1-1.7-4.7-2.4
		c-2.9-1.2-6-1.8-8.9-2.8c-0.3-0.1-0.6-0.2-0.8-0.4C129.2,124.5,129.7,123.9,130.4,123.7z"/>
	<path class="st3" d="M131.7,127.2c3.5,1.1,7.1,1.8,10.3,3.8c0.8,0.5,1.8,0.8,2,2.1c-1.3,1.1-3.1,1.3-4.4,1.7c-3-1-5.8-1.8-8.5-2.8
		c-2-0.7-4.2-1.2-6-2.9C127.1,127,129.2,126.4,131.7,127.2z"/>
	<path class="st3" d="M141,109.8c-1.9-1.3-3.2-2.1-4.6-3c-1.8-1.2-3.6-2.4-5.4-3.5c-0.8-0.5-1.2-1.2-1.3-2.1
		c-0.3-2.2-0.7-4.5,0.3-6.6c1.3,0,1.9,1.1,2.7,1.8c2.3,2,4.4,4.1,6.7,6c1,0.9,1.6,2,1.5,3.4C141,106.9,141,108.1,141,109.8z"/>
	<path class="st3" d="M149.7,103.7c-1.7,2.1-3.9,3.7-5.9,5.5c-0.2,0.2-0.6,0.1-1.1,0.2c-0.3-1.9-0.5-3.6-0.4-5.4
		c4.1-3.6,7-8.2,10.8-12.3c1.1,0.7,1.8,1.7,2.6,2.7C154.3,98,152,100.9,149.7,103.7z"/>
</g>
<g>
	<path class="st4" d="M19.9,56.4c-0.2-0.5-0.4-1-0.6-1.6c-0.4-1-1-2.1-2-2.6c-1.4,4-2.6,8-3.5,12.1c-0.6,2.4-1.1,4.9-2.6,7
		C8.5,65.8,8.9,59,5.8,53.7c-3.9,7.2-5,15.8-3.1,23.7c0.5,1.9,1.2,3.9,2.5,5.3c2.1,2.2,5.5,2.7,8.6,2.3c1.7-0.2,3.3-0.6,4.6-1.7
		c1.3-1.1,2.1-2.8,2.6-4.4c1-3.2,1.2-6.6,1.1-10C22,64.7,21.4,60.4,19.9,56.4z"/>
	<path class="st4" d="M178.4,65.9c-0.2,0-0.5,0.3-0.7,0.5c-3.6,5.2-7.7,10.1-12.1,14.6c-0.4,0.5-1.2,0.9-1.6,0.4
		c-0.2-0.2-0.2-0.5-0.2-0.7c0-3.7,0.3-7.3,0.7-10.9c0.4-3.3,1-6.7,0.2-10c-0.1-0.2-0.1-0.5-0.4-0.6c-0.3-0.1-0.6,0.1-0.8,0.2
		c-4.1,3.1-7,7.5-9,12.3c-2,4.9-3.5,10.8-1.8,16c0.9,2.9,3.2,5.6,6.1,6.3c2.8,0.7,5.7-0.4,8.3-1.9c3.3-1.9,6.3-4.5,8.3-7.7
		c3.1-5.3,3.2-11.8,3.2-18c0-0.1,0-0.3-0.1-0.4C178.6,65.9,178.5,65.8,178.4,65.9z"/>
	<path class="st4" d="M128.5,95.6c0-1,0-1.9,0-2.9c-0.4-5.7-0.8-11.4-1.2-17.1c-0.2-2.7-0.1-5.4-0.5-8.1c-0.5-4.1-0.4-8.2-1.6-12.2
		c-0.9-3-1.3-6.1-2.8-8.9c-2.7-5.3-6.3-9.7-11.1-13.3c-3.9-2.9-8.1-5.4-12.8-6.7c-2.5-0.7-5.1-0.9-7.6-1.3
		c-4.2-0.5-8.4-0.2-12.5,0.7c-3.1,0.7-5.9,2.1-8.7,3.4c-4.4,1.9-8.4,4.3-11.9,7.6c-4.5,4.2-8.3,9.1-11.4,14.4
		c-0.9,1.6-1.6,3.3-2.2,5c-1.9,5.2-3,10.6-4.2,15.9c-0.8,3.6-1.7,7.1-2.4,10.7c-1,5.4-1.9,10.8-2.3,16.3c-0.4,5-1.2,10-1.9,15.1
		c-0.5,3.7-0.3,7.3,0.3,10.9c0.2,0.9,0.6,1.6,1.4,2c0.8,0.4,1.5,0.9,2.3,1.2c4.5,1.9,9.2,3.2,13.9,4.3c5,1.2,10.2,1.9,15.3,2.5
		c3,0.3,6,0.7,9,0.9c2.6,0.1,5.2-0.2,7.8-0.3c0-0.1,0-0.1,0-0.2c2.6,0,5.2,0,7.8,0c1.2,0,2.4,0,3.6-0.2c4.7-0.6,9.4-1.3,14.1-2
		c6.2-0.9,11.8-3.4,17.1-6.6c1.6-1,2.5-2.2,2.4-4.2c-0.1-1.9-0.1-3.9,0.2-5.8c0.6-4.5,0.2-9,0.2-13.6
		C128.5,100.8,128.5,98.2,128.5,95.6z"/>
</g>
<path class="st5" d="M51.9,59.1c0,0,28.9,43.1,68,6.2"/>
<path class="st5" d="M116.9,62.8c0,0,4.5,1.2,4.8,5.4"/>
<path class="st5" d="M54.7,56.7c0,0-4.5,1.2-4.8,5.4"/>
<path class="st6" d="M87.6,10.7c0,1.9-1.5,3.4-3.4,3.4c-1.9,0-3.4-1.5-3.4-3.4s1.5-3.4,3.4-3.4C86,7.3,87.6,8.8,87.6,10.7z"/>
<path class="st6" d="M113.5,15.4c0,1.9-1.5,3.4-3.4,3.4c-1.9,0-3.4-1.5-3.4-3.4c0-1.9,1.5-3.4,3.4-3.4
	C112,12.1,113.5,13.6,113.5,15.4z"/>
</svg>
