<?xml version="1.0" encoding="utf-8"?>
<!-- Generator: Adobe Illustrator 25.2.1, SVG Export Plug-In . SVG Version: 6.00 Build 0)  -->
<svg version="1.1" id="Layer_1" xmlns="http://www.w3.org/2000/svg" xmlns:xlink="http://www.w3.org/1999/xlink" x="0px" y="0px"
	 viewBox="0 0 180 140.3" style="enable-background:new 0 0 180 140.3;" xml:space="preserve">
<style type="text/css">
	.st0{fill:#FDBB37;}
	.st1{fill:#0092A6;}
	.st2{fill:#FFFFFF;}
	.st3{fill:#E61E25;}
	.st4{fill:#EF3E37;}
	.st5{fill:none;stroke:#000000;stroke-linecap:round;stroke-miterlimit:10;}
	.st6{fill:#010101;}
	.st7{fill:#FFD386;}
	.st8{fill:#FFF0D9;}
	.st9{fill:#004D59;}
	.st10{fill:#FFFFFF;stroke:#000000;stroke-width:0.5;stroke-miterlimit:10;}
</style>
<g>
	<g>
		<path d="M165.3,63.7c1.2,0,2.1,1.6,2.1,3.5c0,1.9-0.9,3.5-2.1,3.5c-1.1,0-2.1-1.6-2.1-3.5C163.3,65.3,164.2,63.7,165.3,63.7z"/>
		<path d="M170.7,60c-2.8-5.5-6.1-10.5-9.6-14.8c1.4-3.9,2.8-7.8,4.1-11.6c0.3-0.7,0.5-1.6,0.5-2.4c-0.2-2.4-2.2-2.4-3.6-1.9
			c-4.3,1.5-10-1-10.8-8.3c-0.1-1.2-0.1-2.6-0.6-3.5c-0.9-1.7-2.6-0.5-3.9,0.1c-2.8,1.3-6-1.2-7.2-5.6c-0.5-1.8-1.1-4.4-2.3-4
			c-0.3,0.1-0.6,0.5-0.9,0.8c-3.8,4.4-9.6,2.8-12.4-3.4c-0.8-1.7-1.6-3.9-2.8-3.8c-0.8,0.1-1.5,1.1-2.2,2c-3.8,5.1-10,4.4-13.4-1.5
			c-0.5-1-1.2-2.1-1.9-1.9c-0.6,0.1-1,1.1-1.4,1.9c-1.7,3.6-4.5,5.3-7.2,5.2c-1.4,0-2.7-0.5-3.9-1.5c-0.9-0.7-2.5-4-3.5-2.6
			c-0.9,1.3-1.1,3.6-2,4.9c-1.1,1.6-2.6,2.8-4,3.2c-2.1,0.5-3.9-0.7-5.6-2.7c-0.6-0.6-1.6-2.8-2.3-2.5c-0.8,0.3-1,3.4-1.4,4.4
			c-0.6,1.5-1.5,2.6-2.4,3.4c-2,1.6-4.3,1.6-6.1-0.6c-0.8-1-1.5-2.3-2.5-2.2c-1.3,0.1-2,2.4-2.7,4.2c-1.2,2.9-3.1,4.6-5.2,5.1
			c-1.1,0.3-2.3,0.2-3.4-0.5c-0.8-0.5-1.8-1.9-2.6-0.9c-0.6,0.7-0.5,2.6-0.7,3.6c-0.4,1.9-1.1,3.5-2.1,4.7c-0.9,1.1-2.1,1.8-3.2,2
			c-1.4,0.2-3.2-1.6-3,2.2c0.1,1.9,0.8,3.7,1.2,5.4c0.2,0.6,2.2,7.5,2.5,7.2c-5,5.6-4,20.2-9.3,25c-4.2,3.8-9.2-1.6-13.3-5.9
			c-2.4-2.6-5-4.8-7.7-6.5c-1.7-1.1-3.4-1.9-5.2-2.4c-1.4-0.4-3-0.8-4.1,1.2c-0.2,0.4-0.4,0.7-0.5,1.1v0c0,0,0,0,0,0
			c-0.4,1.6,0,3.3,0.6,4.9c0.5,1.3,1.1,2.5,1.7,3.6c0.3,0.6,0.6,1.2,1,1.8c0.2,0.3,0.6,1.3,0.9,1.4c-2.2-0.9-4.7,1.2-5.3,4.7
			c-0.5,3,0.9,6.4,2.6,7c0.3,0.1,0.7,0.1,1.1,0c-1.8,1.8-3.8,4-4.1,7.5c-0.4,4.3,2.1,8.2,4.7,8.8c2.6,0.5,5.2-1.3,7.6-3
			c3.4-2.5,6.8-5,10.3-7.5c3.1-2.3,6.7-4.5,9.7-1.9c2.7,2.4,3.8,8,5.2,12.6c2.9,9.3,7.9,15.4,13.6,20.1c0.2,0.2,0.4,0.4,0.6,0.5
			c0,0,0,0,0,0c3.9,3.1,8.1,5.4,12.1,7.6c-2.7,2.2-1.9,10.2,1,11.5c2.9,1.3,5.9-3.9,5.4-8.9c20.6,7.8,42.1,8.8,62.9,2.8
			c-1.6,1.4-1.7,5.5-0.5,7.7c1.2,2.2,3.1,2.8,4.9,2.5c1.2-0.2,2.3-0.8,3.1-2.2c1.1-1.9,1.2-4.8,1.8-7.2c1.7-7.1,7-9.1,11.4-10.6
			c7-2.2,14.3-5.7,19.3-14.1c5.1-8.4,7-23.2,2.4-32.4 M169.1,60.1c0.7,1.3,1,2.9,1.2,4.6c0,0.1,0,0.3,0,0.4c0.1,1.5,0.1,3.1-0.3,4.6
			c-0.7,2.7-2.6,4.5-4.3,4.2c-1.8-0.3-3.4-2.5-3.9-5.4c-0.9-4.7,1-10.7,4.2-10.8C167.2,57.7,168.4,58.6,169.1,60.1z"/>
	</g>
	<g>
		<g>
			<path class="st9" d="M138,90.9h-6c0.1,1.9,0.1,1.9,0.9,1.9c0.1,0,0.2,0,0.3,0l0,0C135,92.7,136.6,91.9,138,90.9z"/>
		</g>
		<g>
			<path class="st9" d="M133.8,95.1c0.7,0.2,1.4,0.3,2,0.3c3.2,0,6.2-2.1,8.7-4.1c0-0.8,0-1.5-0.1-1.7c0,0-0.1-0.1-0.2-0.1
				c-0.2,0-0.6,0.2-1.1,0.5c-2.4,1.4-4.8,2.7-7.2,4C135.2,94.4,134.5,94.7,133.8,95.1z"/>
		</g>
		<g>
			<path class="st9" d="M132.5,88.8c0.1,0,0.2,0,0.3,0c0.1,0,0.2,0,0.3,0h0.5c1.9,0,3.9,0,5.9-0.2c1-0.1,2-0.4,3-0.8
				c0.4-0.1,0.9-0.3,1.3-0.4c0.6-0.2,0.7-0.7,0.6-1.6l-13.1,2.4C131.6,88.7,132,88.8,132.5,88.8z"/>
		</g>
		<g>
			<path class="st9" d="M144.5,75.3c-2.5-0.1-4.9-1.4-7.2-2.7c-1.1-0.6-2.2-1.2-3.3-1.7c-0.6-0.3-1.2-0.4-1.8-0.5
				c-0.2,0-0.4-0.1-0.7-0.1l0,0c0.2,0.2,0.4,0.3,0.6,0.5c0.6,0.4,1.2,0.9,1.8,1.2c3.3,1.6,6.5,3.1,9.7,4.5c0.3,0.1,0.5,0.2,0.6,0.2
				c0.1,0,0.2-0.1,0.2-0.1C144.5,76.5,144.5,75.8,144.5,75.3z"/>
		</g>
		<g>
			<path class="st9" d="M131.4,86c0.2,0,0.4,0,0.8-0.1l2.3-0.4c2.8-0.5,5.6-0.9,8.4-1.4c0.2,0,0.4-0.2,0.6-0.3c0,0,0,0,0,0l-7.4-0.6
				l-5.8-0.5c0,0.1,0,0.1,0,0.2c0,0.4,0.1,0.7,0.1,1.1C130.7,85.8,130.8,86,131.4,86z"/>
		</g>
		<g>
			<path class="st9" d="M130.9,80.4c2.3,0.2,4.7,0.4,6.9,0.6c2,0.2,4,0.4,6,0.6l0,0c0.1,0,0.3-0.1,0.4-0.3c0,0,0,0,0.1-0.1
				c0-0.1,0-0.2-0.1-0.3c-0.1-0.3-0.2-0.7-0.3-0.8c-0.9-0.5-1.8-1.1-2.8-1.2c-2.7-0.3-5.5-0.4-8.2-0.6c-0.9-0.1-1.8-0.1-2.7-0.2
				c0,0-0.1,0-0.1,0c-0.1,0-0.3,0-0.4,0c0,0-0.1,0-0.1,0c0,0.7,0.1,1.2,0.2,1.5C130.2,80.1,130.5,80.3,130.9,80.4z"/>
		</g>
		<g>
			<path class="st9" d="M130.1,76c3.3,0.3,6.6,0.6,9.8,0.9l0.9,0.1c0,0,0,0,0,0c-0.1-0.1-0.2-0.1-0.2-0.1c-0.3-0.2-0.7-0.4-1-0.6
				c-1-0.5-2-0.9-3-1.4c-2-0.9-4-1.8-6-2.8c-0.2-0.1-0.3-0.1-0.4-0.1c-0.2,0-0.4,0.1-0.4,1.1c0,0.1,0,0.2,0,0.3c0,0.6-0.1,1.2,0,1.8
				C129.7,75.5,130,76,130.1,76z"/>
		</g>
	</g>
	<g>
		<g>
			<path class="st1" d="M42,31.7l3.6,6.8l4.4-4.8l-2.1-8.4C46.5,28.7,44.7,30.7,42,31.7z"/>
		</g>
		<g>
			<path class="st1" d="M51.9,23l0.3,0.7c0.4,1,0.7,1.9,1.1,2.9l0.1,0.2c0.2,0.4,0.3,0.8,0.4,1.2c0.4,1.4,0.8,2,1.2,2
				c0.4,0,4.7-2.9,6.1-3.3l1-0.3L59.4,18C57,20.7,54.5,22.4,51.9,23z"/>
		</g>
		<g>
			<path class="st1" d="M72.7,13.8c-2.1,2.4-4.2,3.5-6.4,3.5c-0.6,0-1.2-0.1-1.9-0.3l1.9,6.5l7.3-1.3l0-0.5l-0.4-3.2L72.7,13.8z"/>
		</g>
		<g>
			<path class="st1" d="M87.4,13.9c-0.1-0.3-0.1-0.7-0.2-1c-0.1-0.7-0.2-1.4-0.4-2.2c0-0.2-0.1-0.4-0.1-0.7
				c-2.4,2.7-5.1,2.9-7.7,3.2c-0.3,0-0.6,0.1-0.8,0.1l0.4,4.9l0.2,2.7c0.3-0.1,0.5-0.2,0.8-0.3c0.7-0.3,1.5-0.6,2.2-0.8
				c1.8-0.4,3.3-0.5,4.7-0.5c0.1,0,0.2,0,0.3,0l0,0c0.4,0,0.7-0.1,0.8-0.4c0.1-0.3,0.2-0.6,0.2-1.2C87.8,16.4,87.6,15.1,87.4,13.9z"
				/>
		</g>
		<g>
			<path class="st1" d="M101.4,6.3c-2.1,2.1-4.5,3.1-7.3,3.1c-0.8,0-1.6-0.1-2.6-0.3l0.2,2.2l0.6,7.9c0,0,4.6-0.4,5.5-0.4
				c1.2,0,2.4-0.3,3.6-0.7L101.4,6.3z"/>
		</g>
		<g>
			<path class="st1" d="M118.6,6.5c-1.6,1.6-3.4,2.4-5.3,2.4c-2.4,0-4.7-1.2-7.1-2.3v10.5c0.6-0.2,1.1-0.3,1.7-0.5
				c1.8-0.6,3.7-1.1,5.6-1.1c1.2,0,2.2,0.2,3.2,0.7l0.7-3.2L118.6,6.5L118.6,6.5z"/>
		</g>
		<g>
			<path class="st1" d="M132.2,13.2c-2.9,0-5.6-1.6-8.8-5.1l-0.2,1.1l-1.4,7.7c0.2,0.1,0.5,0.2,0.7,0.2c0.7,0.2,1.5,0.5,2.2,0.9
				c2.2,1.3,4.3,2.6,6.5,3.9l0.4-1l1.2-3.9L134,13C133.4,13.2,132.8,13.2,132.2,13.2z"/>
		</g>
		<g>
			<path class="st1" d="M140.5,17.4l-1.4-0.8c-0.1,0.5-0.3,1-0.4,1.5c-0.5,1.9-1.1,3.8-1.6,5.7c-0.1,0.3-0.5,1.6-0.3,1.7
				c0.9,0.5,1.7,1.1,2.6,1.6c0.6,0.4,1.2,0.8,1.8,1.2c0.6,0.4,1.3,0.9,2,1.3c0.1,0,0.2,0.1,0.3,0.1c0.2,0,0.3-0.1,0.4-0.1
				c0.8-2.5,1.6-4.9,2.4-7.3c0.2-0.5,0.3-0.9,0.4-1.4L140.5,17.4z"/>
		</g>
		<g>
			<path class="st1" d="M159,31.8c-3.2,0-5.7-2.9-8.3-6.4c-0.1,0.3-0.2,0.7-0.3,1c-0.3,1-0.6,2-0.8,3c-0.1,0.4-0.3,0.9-0.4,1.3
				c-0.3,1-0.7,2.1-0.6,2.8c0.1,0.6,0.8,1,1.4,1.5c0.3,0.2,0.6,0.4,0.8,0.6c0.4,0.4,0.8,0.7,1.2,1.1c1.4,1.2,2.8,2.5,4.2,3.7
				c0.1,0.1,0.2,0.1,0.4,0.1c0.3,0,0.4-0.1,0.4-0.2c1.1-2.4,2.1-4.9,3.1-7.4l0.3-0.8c0-0.1,0-0.2,0-0.4c0,0,0,0,0,0
				C160,31.8,159.5,31.8,159,31.8z"/>
		</g>
	</g>
	<g>
		<g>
			<path class="st9" d="M40.7,32.4c-0.2-0.4-0.6-0.5-1.1-0.8c-0.1-0.1-0.2-0.1-0.4-0.2c0.1,0.5,0.3,1,0.4,1.5
				c0.5,1.9,1.1,3.7,1.6,5.5c0.1,0.4,0.3,0.8,0.4,1.2c0.1,0.2,0.2,0.5,0.3,0.7l0,0c0.5,1.2,0.7,2.1,0.9,2.1c0.2,0,0.6-0.7,1.1-1.6
				l0-0.1c0.4-0.6,0.4-1,0.1-1.6c-0.3-0.6-0.7-1.3-1-1.9C42.4,35.6,41.6,33.9,40.7,32.4z"/>
		</g>
		<g>
			<path class="st9" d="M48.4,20.2c0,0.1,0,0.2,0,0.2c0,0.6,0,1.2,0.1,1.7c0.2,1.1,0.4,2.3,0.7,3.6c0.4,1.7,0.8,3.4,1.4,5
				c0.1,0.2,0.1,0.4,0.2,0.6c0.2,0.7,0.3,1.2,0.6,1.2c0.1,0,0.2,0,0.3-0.1c1.4-0.8,1.4-0.9,1-2.8C51.9,25.3,50.4,21.9,48.4,20.2z"/>
		</g>
		<g>
			<path class="st9" d="M62.2,13.8c-0.2-0.8-0.5-1.2-0.9-1.2c-0.1,0-0.2,0-0.4,0.1c-0.3,0.2-0.5,0.4-0.6,0.8c-0.1,0.3-0.1,0.7,0,1.2
				c0.1,0.6,0.2,1.1,0.3,1.7c0.5,2.6,1,5.3,1.8,7.7c0.3,1,0.6,1.4,1,1.4c0.4,0,0.9-0.3,1.7-1c-0.2-0.9-0.5-1.8-0.7-2.7
				C63.7,19.1,62.9,16.4,62.2,13.8z"/>
		</g>
		<g>
			<path class="st9" d="M74,8.1c-1.1,0.3-0.6,3.6-0.3,5.3c0.1,0.5,0.2,1.1,0.3,1.6c0.2,1.2,0.4,2.3,0.6,3.5c0.1,0.7,0.4,2.4,0.2,3.5
				c0.6-0.1,2.3-0.7,2.9-1C77,12.7,75.1,7.9,74,8.1z"/>
		</g>
		<g>
			<path class="st9" d="M90.8,16.8c0-2-0.1-4-0.3-5.9c-0.3-2.6-1.2-4.8-2.2-6.8c-0.5,1.8-0.6,3.4-0.4,4.9c0.1,0.9,0.3,1.9,0.5,2.8
				c0.2,0.9,0.3,1.8,0.5,2.7c0.1,1,0.2,2.1,0.3,3.2c0,0.4,0.1,0.8,0.1,1.3h1.5C90.8,18.3,90.8,17.6,90.8,16.8z"/>
		</g>
		<g>
			<path class="st9" d="M105.3,8.2l0-0.1c-0.7-7.1-1.9-5.6-1.9-5.4c-0.8,2.3-0.8,4.8-0.7,7.4c0,0.4,0,0.7,0,1.1l0,0.1
				c0,1.1,0,4.9-0.1,6.5c0.9-0.2,2.2-0.3,2.9-0.4C105.5,17.1,105.3,10.3,105.3,8.2z"/>
		</g>
		<g>
			<path class="st9" d="M122.1,5.3c-0.1-0.4-0.1-1-0.3-1.4c-0.3-0.6-0.6-0.9-0.7-0.9c-0.3,0.1-0.7,0.6-0.8,1
				c-0.6,3.2-1.2,6.3-1.8,9.7c-0.2,0.9-0.3,1.9-0.5,2.8c0.1,0,0.3,0,0.4,0.1c0.5,0.1,1.1,0.2,1.6,0.2l0,0.2h0v-0.2
				c0.2,0,0.5-0.2,0.5-0.4C121.6,13.4,122.6,9.7,122.1,5.3z"/>
		</g>
		<g>
			<path class="st9" d="M138.3,11.5c-0.2-0.6-0.4-1.1-0.7-1.7c0-0.1-0.1-0.2-0.1-0.4c-0.1,0.1-0.2,0.2-0.3,0.3
				c-0.3,0.4-0.6,0.7-0.8,1.2c-1.2,3.1-2,5.6-2.8,7.9c-0.5,1.5-0.8,3.2-1.3,4c1,0.6,2.1,1.3,3.1,1.9c0.2,0.1,0.5-1.4,0.6-1.8
				c0.2-0.8,0.5-1.6,0.8-2.4c0.4-1.2,0.8-2.4,1.1-3.7C138.6,13.5,138.3,11.6,138.3,11.5z"/>
		</g>
		<g>
			<path class="st9" d="M150.2,19.5c-0.1-0.5-0.6-1.1-0.9-1.2c0,0,0,0,0,0c-0.2,0-0.7,0.5-0.8,0.9c-0.8,2.4-1.6,4.9-2.4,7.4
				c-0.4,1.1-0.7,2.2-1.1,3.3c-0.1,0.4-0.2,0.7-0.1,0.9c0,0.2,0.2,0.5,0.5,0.7c0.8,0.7,1.4,1.1,1.8,1.1c0.4,0,0.7-0.7,1.4-2.9
				c0.3-1.1,0.7-2.3,1-3.5C149.6,25.6,150.5,20.7,150.2,19.5z"/>
		</g>
		<g>
			<path class="st9" d="M161.2,41.7c1.1-3,2.2-5.8,3.2-8.7c0.1-0.4,0.1-1,0.1-1.6c0-0.2,0-0.4,0-0.6c-0.1,0-0.2,0-0.3,0
				c-0.2,0-0.4-0.1-0.6-0.1c-0.2,0-0.4,0-0.5,0.1c-1.2,0.6-1.9,2.2-2.6,4c-0.3,0.7-0.5,1.4-0.9,2c-0.6,1.1-1,2.6-1.3,4l-0.1,0.4
				c-0.1,0.3,0,1,0.2,1.2c0.3,0.5,0.7,0.9,1.2,1.5c0.2,0.2,0.4,0.4,0.6,0.6C160.6,43.5,160.9,42.6,161.2,41.7z"/>
		</g>
	</g>
	<g>
		<g>
			<path class="st2" d="M167.4,67.2c0,1.9-0.9,3.5-2.1,3.5c-1.1,0-2.1-1.6-2.1-3.5c0-1.9,0.9-3.5,2.1-3.5
				C166.5,63.7,167.4,65.3,167.4,67.2z"/>
		</g>
		<g>
			<path class="st2" d="M172.7,70.3c-0.6,0-1.1-0.4-1.5-1c0-0.1,0-0.1,0.1-0.1c0.5,0.4,1.1,0.8,1.6,0.4c0.5-0.4,0.7-1.5,0.6-2.5
				c0-0.9-0.2-1.8-0.6-2.5c-0.4-0.6-1.3-0.3-1.8,0.1c0,0,0-0.1,0-0.2c0.4-0.7,0.9-1.1,1.5-1.1"/>
		</g>
	</g>
	<g>
		<g>
			<path class="st1" d="M140.3,135.6c0.8-1.8,1.7-6.6,1.6-9.3c-0.5,0.1-0.9,0.2-1,0.4c-0.1,0.2-0.1,0.8-0.2,1.9l0,0.1
				c0,1.2-0.1,2.5-0.2,4.1c-0.1,0.9-0.2,1.8-0.3,2.7c0,0.1,0,0.2,0,0.4C140.2,135.7,140.2,135.7,140.3,135.6z"/>
		</g>
		<g>
			<path class="st1" d="M137.9,137.5c0.1,0,0.2-0.1,0.3-0.5c0.1-0.2,0.1-0.5,0.3-0.7c0.9-1.7,1-3.7,1.1-5.8c0-0.9,0.1-1.8,0.2-2.7
				c0-0.1,0-0.3,0-0.4c0,0,0,0,0,0c-0.3,0-0.4-0.1-0.6-0.1c-0.5,0-0.6,0.2-0.8,1.9c-0.1,1.9-0.3,3.8-0.4,5.9
				c-0.1,0.8-0.1,1.5-0.2,2.3C137.7,137.5,137.8,137.5,137.9,137.5z"/>
		</g>
		<g>
			<path class="st1" d="M135.6,137.6c0.4,0,0.6-0.5,0.7-0.9c0.7-2.6,0.7-5.3,0.7-8.3c-0.1,0-0.2,0-0.3,0c-0.3,0-0.5,0.1-0.7,0.3
				c-0.2,0.3-0.2,0.8-0.2,1.5c0,0.4,0,0.9,0,1.3c0.1,2,0.1,4.1-0.8,5.9C135.3,137.5,135.5,137.6,135.6,137.6z"/>
		</g>
		<g>
			<path class="st1" d="M133.2,134.6c-0.2,0.5-0.2,1-0.1,1.4c0.1,0.3,0.2,0.5,0.5,0.7c0.1,0.1,0.2,0.1,0.3,0.1
				c0.3,0,0.4-0.4,0.5-1.1c0-0.1,0-0.2,0.1-0.2c0.4-1.9,0.3-3.8,0.2-5.8c0-0.1,0-0.2,0-0.2c-0.1,0.4-0.2,0.9-0.4,1.3
				C133.9,131.9,133.5,133.3,133.2,134.6z"/>
		</g>
		<g>
			<path class="st1" d="M67,134.2c0.3,0,0.6-0.3,0.7-0.9c0.4-1.8,0.6-3.6,0.9-5.6c0-0.3,0-0.5,0-0.6c-0.1-0.3-0.5-0.3-0.7-0.3l0,0
				c-0.1,0-0.4,0.5-0.4,0.9c-0.3,1.6-0.5,3.2-0.7,5c-0.1,0.5-0.1,1-0.2,1.5C66.7,134.1,66.9,134.2,67,134.2z"/>
		</g>
		<g>
			<path class="st1" d="M64.9,133.1c0.3-0.3,0.5-0.7,0.6-1.1c0.3-1.6,0.5-3.3,0.6-5c0-0.2,0-0.5,0.1-0.7c0-0.1-0.1-0.4-0.2-0.5
				c-0.1,0-0.3,0.2-0.3,0.2c-0.3,2-0.6,4-0.8,5.9c-0.1,0.5-0.1,0.9-0.2,1.4C64.8,133.3,64.8,133.2,64.9,133.1z"/>
		</g>
		<g>
			<path class="st1" d="M63.6,131.9l0.7-4.6C63.5,128.5,63.2,130,63.6,131.9z"/>
		</g>
	</g>
	<g>
		<g>
			<path class="st1" d="M150.7,120.4c0.2,0,0.4-0.1,0.6-0.2c0.7-0.4,1.3-0.7,2-1c0.2-0.1,0.5-0.2,0.7-0.3c-0.2-1.3-0.4-2.5-0.7-3.7
				c-0.5-2.9-1-5.7-1.4-8.5c-1.4-10.8-1.7-20.4-0.7-29.4c0.6-5.4,1.3-10.8,2.2-15.9c0.3-1.9,1-3.7,1.6-5.5c0.2-0.5,0.4-1.1,0.6-1.7
				c0.5-1.5,1.1-3,1.8-4.5c0.5-1.1,1-2.1,1.5-3.1c0.2-0.4,0.4-0.7,0.6-1.1c-0.2-0.2-0.3-0.4-0.5-0.5c-0.6-0.7-1.3-1.4-2-2.1
				c-0.2-0.1-0.4-0.2-0.6-0.2c-0.1,0-0.2,0-0.2,0.1c-0.4,0.4-0.9,0.9-1.3,1.3c-1.3,1.2-2.6,2.5-3.6,4.1c-2.7,4.2-4.3,9.9-5,17.3
				c-0.7,7.6-1.3,16.6-0.5,25.5c0.9,10.8,2.1,19.5,3.9,27.6C150,119.9,150.3,120.4,150.7,120.4z"/>
		</g>
		<g>
			<path class="st1" d="M109,124.8c0.3,1.8,0.6,3.6,1,5.4c0.1,0.6,0.3,1.3,0.6,1.6c0.3,0.3,0.6,0.2,0.9,0.2
				c5.4-0.8,10.7-1.7,16.1-2.5c0.5-0.1,1.1-0.2,1.5-0.7c0.9-1,0.8-3.2,0.6-4.9c-1.2-12.9-2.8-25.9-2.5-39c0.5-19.9,5.2-39,11.3-56.1
				c-4.6-4.1-9.5-7.1-14.6-8.9c-1.4-0.5-2.8-0.9-4.1-0.6c-3.7,0.8-5.5,7.4-7,12.5c-1.8,6.2-3,12.8-3.9,19.5
				c-1.3,10.3-1.7,20.8-1.9,31.3C106.7,96.7,106.8,111.2,109,124.8z"/>
		</g>
		<g>
			<path class="st1" d="M70.4,124.2c0.1,0.1,0.2,0.3,0.3,0.4c0.7,0.9,1.6,1.1,2.5,1.4c5.1,1.4,10.2,2.6,15.3,3.7
				c-2-18-4-36.2-4-54.6c0-18.4,2.3-37.1,8.1-52.6c-0.2,0.6-7.1-0.9-8-0.9c-2.7,0.1-5.4,0.6-7.9,2.3c-5,3.3-6.4,13.9-7.3,21.8
				c-1.3,10.6-2,21.4-2.4,32.2c-0.6,14.2-0.6,28.8,2.1,42.3C69.4,121.6,69.8,123.2,70.4,124.2z"/>
		</g>
		<g>
			<path class="st1" d="M42.4,101.2c0.5,1.9,1,3.7,1.8,5.3c1.5,3.3,3.8,5.7,6.2,5.9c-2.1-13.3-3.2-27.1-2.6-40.9s2.9-27.4,7.3-39
				c-6.3,1.7-11.7,9.2-13.5,19.5c-0.9,5.2-1.1,10.7-1.2,16.1c-0.2,9.1-0.2,18.3,1,27.1C41.5,97.3,41.9,99.3,42.4,101.2z"/>
		</g>
	</g>
	<g>
		<g>
			<path class="st1" d="M129.7,69.1c2.3-1.3,4.9-0.2,7.2,1.2c2.3,1.4,4.7,3.1,7.2,2.8c0.2,0,0.5-0.1,0.6-0.4
				c0.1-0.2,0.1-0.6,0.1-0.9c0.2-6.2,0.9-12.4,2.6-17.9c1.7-5.5,4.4-10.2,7.8-12.7c-3.3-3-6.8-5.9-10.2-8.4c-1.1-0.8-3.8-3.8-5-3.2
				c-1.2,0.5-2.2,4.8-2.7,6.4c-1.8,5.1-3.3,10.5-4.6,16.1c-0.7,2.8-1.2,5.7-1.8,8.7C130.8,61.7,130.1,68.9,129.7,69.1z"/>
		</g>
		<g>
			<path class="st1" d="M131.1,125.6c0.2,2.2,0.3,2.4,0.7,2.4c0.3,0,0.6-0.1,1.1-0.3c0.9-0.3,1.8-0.7,2.6-1.1
				c0.6-0.3,1.3-0.6,1.9-0.9c0.4-0.2,0.9-0.3,1.3-0.4c0.4-0.1,0.9-0.2,1.3-0.4c1.3-0.5,2.6-1.1,3.8-1.6c1.5-0.6,3-1.3,4.5-1.9
				c0.3-0.1,0.4-0.2,0.5-0.4c0.1-0.2,0-0.6-0.1-1c-1.2-7.3-2.4-14.9-3.6-22.5c-0.2-1-0.2-2.1-0.3-3.3c0-0.4,0-0.8-0.1-1.1
				c-0.4,0.3-0.9,0.6-1.3,0.9c-1.1,0.8-2.1,1.5-3.2,1.9c-1.8,0.7-3.7,1-5.6,1.3l-0.6,0.1c-0.1,0-0.2,0-0.3,0c-1.2,0-2.2-1.3-2.7-3.8
				c-0.6-2.9-1.1-5.9-1.6-8.8c-0.2-1.2-0.4-2.4-0.6-3.6l0,0c0-0.2-0.1-0.3-0.1-0.5c0,0.2,0,0.5,0,0.7c-0.1,1.2-0.1,2.4-0.1,3.6
				c-0.1,6.4,0.2,12.8,0.4,18.3c0.3,6.6,1.1,13.2,1.8,19.6C130.9,123.7,131,124.6,131.1,125.6z"/>
		</g>
		<g>
			<path class="st1" d="M90.3,129.4c0.1,0.1,0.1,0.2,0.2,0.3c0.3,0.5,0.8,0.6,1.3,0.6c5.7,1.1,11.3,1.5,17,1.4
				c-3.1-17.1-3.3-35.2-2.8-53.1c0.3-10.7,0.9-21.4,2.5-31.8s4.2-20.4,8.4-28.6c-4.1-0.4-8.2-0.4-12.3,0.2
				c-5.3,0.8-10.8,2.8-13.6,11.1C88,38,86.9,47.7,86.4,57.2c-1.4,23.5-0.3,47.4,3.4,70.2C89.9,128.1,90,128.8,90.3,129.4z"/>
		</g>
		<g>
			<path class="st1" d="M51.3,109.7c0.4,2,0.8,4,1.7,5.4c1.1,1.9,2.7,2.8,4.2,3.5c3.8,1.9,7.6,3.7,11.3,5.6c-3.1-12-3-25.6-2.7-38.6
				c0.2-10.5,0.4-21,1.4-31.3c1.1-10.3,3.1-20.5,6.6-29.1c-0.1,0.4-3.5-0.2-3.9-0.1c-1.4,0.1-2.8,0.4-4.2,0.8
				c-2.8,0.9-5.6,2.5-8.2,4.8c-4.7,4.1-6.1,14-7,22.1c-2,18.6-2.5,38,0.5,56.1C51.2,109.2,51.2,109.4,51.3,109.7z"/>
		</g>
		<g>
			<path class="st1" d="M36.6,89.7c1,4.3,2,8.1,3.8,11.3c0.3,0.5,0.5,0.9,0.7,1.3c-0.1-0.3-0.1-0.7-0.2-1c-0.2-1.3-0.5-2.5-0.7-3.7
				c-1.1-5.1-1.1-10.6-1.2-15.5c0-6.3,0-12.5,0.2-18.5c0.1-3.2,0.3-6.3,0.6-9.4c0.1-0.9,0.1-1.8,0.2-2.7c-1.4,3.5-2.4,6.7-3,10
				c-0.9,5.2-1.5,10.8-1.7,17C35.3,82.1,35.7,85.8,36.6,89.7z"/>
		</g>
	</g>
	<g>
		<g>
			<path class="st1" d="M20.3,66.5c-1.2-1.2-2.4-2.3-3.6-3.3c-1.9-1.5-3.9-3-5.8-4.3c-0.8-0.6-1.6-1.1-2.4-1.7
				c-1.3-1-2.8-1.4-4.8-1.4c-0.3,0-0.7,0-1.1,0c-0.2,0-0.5,0.3-0.7,0.6c-0.1,0.1-0.1,0.1-0.2,0.2c0,0.1,0.1,0.1,0.1,0.2
				c0.2,0.3,0.4,0.7,0.6,0.8c1.5,0.7,2.9,1.4,4.4,2.1c2,0.9,4.1,1.9,6.1,3c1.8,0.9,3.1,2.4,4.8,3.5c0.8,0.5,1.9,1.1,2.7,1.6
				c0.2,0.1,4.7,2.9,4.9,3C25,70.4,20.7,66.8,20.3,66.5z"/>
		</g>
		<g>
			<path class="st1" d="M3.4,60.5L3.4,60.5c0.1,0.3,0.3,0.6,0.4,0.8c0.4,0.7,0.8,1.5,1.3,2.2l0.2,0.3c0.4,0.7,0.8,1.4,1.3,1.9
				c0.4,0.4,1,1,1.5,1.1c0.8,0.1,1.6,0.2,2.4,0.3c1.1,0.1,2.3,0.2,3.4,0.5c2.1,0.6,4.3,1.9,6.4,2.6c0.6,0.2,5.2,1.8,5.8,2
				C19.7,68.1,9.5,62.9,3.4,60.5z"/>
		</g>
		<g>
			<path class="st1" d="M5.2,70.3l8.6,1.5l11.6,1.5c-2.4-1.5-11.2-3.8-14.3-3.8C9.4,69.5,5.9,69.8,5.2,70.3z"/>
		</g>
		<g>
			<path class="st1" d="M26.7,75.9c-0.2-0.1-0.3-0.2-0.5-0.3c-0.5-0.3-0.9-0.5-1.4-0.6c-2.1-0.3-4.2-0.5-6.3-0.8
				c-1-0.1-2-0.2-2.9-0.3c-0.8-0.1-1.7-0.2-2.5-0.3c-2.3-0.3-4.8-0.5-7.1-1c-0.3-0.1-0.5-0.2-0.8-0.3c-0.3-0.1-0.6-0.3-0.9-0.3
				c-0.3,0-0.5,0.1-0.8,0.4c-0.2,0.3-0.5,0.7-0.7,1c-0.1,0.1-0.1,0.2-0.2,0.3l0,0.1l0,0c0.4,0.1,0.7,0.3,1.1,0.4
				c0.9,0.3,1.8,0.7,2.7,0.9l0.8,0.2c3.2,0.7,6.5,1.4,9.8,1.8c0.4,0.1,0.8,0.1,1.3,0.1c1.2,0,2.4-0.2,3.5-0.3c0.3,0,0.5-0.1,0.8-0.1
				c0.9-0.1,1.8-0.4,2.7-0.6C25.9,76.1,26.3,76,26.7,75.9L26.7,75.9z"/>
		</g>
		<g>
			<path class="st1" d="M1.6,91.8c0.1,0.3,0.4,0.6,0.9,0.8c1.1,0.5,2.3,0.7,3.5,0.7c3,0,5.9-1.7,8.6-3.6C12.1,90.6,9.8,91,7.4,91
				c-1.9,0-3.9-0.3-5.8-0.8C1.5,91,1.5,91.5,1.6,91.8z"/>
		</g>
		<g>
			<path class="st1" d="M2.1,87c0,0-0.1,0.1-0.3,0.4c1.9,0.6,3.9,0.9,5.9,0.9c5.4,0,11-2.3,17.7-7.2l0-0.2c-0.5,0.2-1,0.4-1.5,0.6
				c-1.3,0.5-2.6,1-3.9,1.5l-0.5,0.2c-3.6,1.5-7.4,3-11.3,3.6c-1,0.2-2,0.2-3,0.2C4.1,87.2,3.2,87.2,2.1,87L2.1,87z"/>
		</g>
		<g>
			<path class="st1" d="M3.7,84.5C3.3,84.7,3,85,2.6,85.2l0,0.1l0,0.1c1.3,0.3,2.7,0.4,4.1,0.3c3.3-0.2,6.7-1.3,9.9-2.4
				c1.1-0.4,2.3-0.8,3.4-1.1c-0.3,0.1-0.7,0.1-1,0.2c-0.2,0-0.4,0.1-0.6,0.1c-0.5,0.1-1.1,0.2-1.6,0.4c-1.3,0.5-2.7,0.7-4.2,0.8
				c-2.2,0.1-4.4-0.2-6.1-0.4c-0.1,0-0.2,0-0.3,0C5.3,83.3,4.5,83.9,3.7,84.5z"/>
		</g>
		<g>
			<path class="st1" d="M5.4,80.4c0.3,0.2,0.5,0.4,0.8,0.5c1.3,0.7,2.7,0.7,4,0.7c2.2,0,4.3,0.1,6.5-0.3c3-0.5,6-1.9,8.9-3.4
				c-5.4,0.4-10.7,0-16.1-0.6c-1-0.1-1.9-0.2-2.9-0.4c-1-0.1-2-0.4-3-0.4c-0.3,0-0.3-0.1-0.3,0.3c0,0.2,0.2,0.6,0.2,0.8
				c0.2,0.5,0.4,1,0.7,1.5C4.7,79.6,5,80.1,5.4,80.4z"/>
		</g>
	</g>
	<g>
		<path class="st6" d="M165.9,70.2c-1,0.1-2.3-1.5-2.4-2.9c-0.1-1.3,0.7-3,1.5-3.2c1-0.2,2.1,1.4,2.2,3.2
			C167.2,69.1,166.8,70.2,165.9,70.2z"/>
	</g>
	<g>
		<path class="st1" d="M28.3,71.8c0.3-0.3,0.8-0.5,1.2-0.6c2.4-0.6,4.8-1.7,7.1-3.3c-0.2,5.2-0.4,10.5-0.6,15.7
			c-1.5-0.5-3-0.9-4.5-1.4c-0.7-0.2-1.5-0.5-2.2-0.7c-0.4-0.1-1.4-0.1-1.7-0.7c-0.1-0.1-0.1-0.3-0.1-0.4c-0.3-1.4-0.5-3-0.4-4.5
			c0.1-1.1,0.3-2.2,0.7-3.2C27.9,72.3,28.1,72,28.3,71.8z"/>
	</g>
	<g>
		<path d="M167.4,67.2c0,1.9-0.9,3.5-2.1,3.5c-1.1,0-2.1-1.6-2.1-3.5c0-1.9,0.9-3.5,2.1-3.5C166.5,63.7,167.4,65.3,167.4,67.2z"/>
	</g>
	<g>
		<path class="st1" d="M176.3,95.3c0.5-2.4,1-5.5,1-7.9c0,0,0-0.1,0-0.1c0-4.1-0.8-7.9-1.8-11.5c-0.1-0.4-0.2-0.9-0.4-1.3
			c-1.5,0.9-3.4,0.6-5.1-1.1c-0.6,0.5-1,1-1.5,1.4c-1.8,1.4-5.2,0.7-6.2-1.7c-2.4-5.7-2.4-14,2.8-16.4c0.8-0.4,1.5-0.6,2.1-0.5
			c-1.4-2.4-2.9-4.7-4.6-7c-0.8-1.1-1.5-1.7-2.1-1.7c-0.8,0-1.4,1-2.2,3.1c-0.4,1-0.8,2-1.1,3c-0.5,1.3-1.1,2.6-1.5,4
			c-2.3,7.2-3,15.1-3.4,21.2c-0.3,4.4-0.4,8.7-0.3,12.7c0.1,8,1,15.9,2.6,23.3c0,0.1,0,0.2,0.1,0.3c0,0.1,0.1,0.3,0.1,0.4
			c0.4,2.1,0.5,2.5,0.9,2.5c0.3,0,0.7-0.2,1.3-0.5l0.1-0.1c4.3-2,8.5-4.8,12.7-8.6c2.5-2.3,4.4-5.6,5.7-10.1l0,0
			c0,0,0.1-0.2,0.1-0.6c0.2-0.9,0.4-1.8,0.6-2.7C176.3,95.4,176.3,95.4,176.3,95.3z"/>
	</g>
	<g>
		<path d="M51.9,117.1c-0.4,0-0.9-0.5-1-1.2C50.4,114,40.4,68.3,54,31.6c0.3-0.9,1-1.1,1.5-0.6c0.5,0.5,0.7,1.7,0.4,2.5
			c-13,35.2-3.1,80.7-3,81.1c0.2,0.9-0.1,2-0.6,2.4C52.1,117,52,117.1,51.9,117.1z"/>
	</g>
	<g>
		<path d="M70.1,126.8c-0.5,0-0.9-0.5-1-1.3C68.6,123,57.9,62.4,73.5,23c0.3-0.8,1-1.1,1.5-0.5c0.5,0.6,0.6,1.7,0.3,2.5
			c-15,37.9-4.3,98.8-4.1,99.4c0.2,1-0.2,2-0.7,2.3C70.3,126.8,70.2,126.8,70.1,126.8z"/>
	</g>
	<g>
		<path d="M130.6,129.9c-0.5,0-0.9-0.5-1-1.3c-0.1-0.6-10.7-62.4,8.5-100.6c0.4-0.8,1.1-0.9,1.5-0.2c0.5,0.7,0.5,1.8,0.1,2.6
			c-18.5,36.7-8.2,96.6-8.1,97.2c0.2,1-0.2,2-0.7,2.3C130.8,129.9,130.7,129.9,130.6,129.9z"/>
	</g>
	<g>
		<path d="M89.7,132c-0.5,0-0.9-0.5-1-1.3c-0.5-2.9-11.5-70.3,4.1-109.6c0.3-0.8,1-1.1,1.5-0.5c0.5,0.6,0.6,1.7,0.3,2.5
			C79.6,61,90.6,129,90.8,129.7c0.2,1-0.2,2-0.8,2.3C89.9,132,89.8,132,89.7,132z"/>
	</g>
	<g>
		<path d="M109.9,133.7c-0.5,0-1-0.6-1.1-1.4c-0.4-3.2-9.8-79.9,8-114.9c0.4-0.8,1.1-0.9,1.5-0.2c0.5,0.7,0.5,1.8,0.1,2.6
			c-17.1,33.6-7.6,110.9-7.5,111.7c0.1,1-0.3,2-0.8,2.2C110.1,133.7,110,133.7,109.9,133.7z"/>
	</g>
</g>
<path d="M176.4,75.3c0,0-3.4-11.2-6.2-16.2l-1.4,0.7l6.7,16.2L176.4,75.3z"/>
<path class="st1" d="M175,74.8c0,0-3.4-12.5-7.8-18.6l-4.6-1l-6,6.5l1.1,7l5.6,8.1l7.2,1.9L175,74.8z"/>
<g>
	
		<ellipse transform="matrix(0.1428 -0.9897 0.9897 0.1428 82.9569 228.9208)" class="st10" cx="173.6" cy="66.6" rx="9.4" ry="6.3"/>
	<ellipse transform="matrix(0.1428 -0.9897 0.9897 0.1428 80.0673 229.0367)" cx="172.3" cy="68.3" rx="4.3" ry="2.8"/>
	<ellipse transform="matrix(0.1428 -0.9897 0.9897 0.1428 75.2988 216.9847)" class="st10" cx="162.9" cy="65" rx="9.4" ry="6.3"/>
	<ellipse transform="matrix(0.1428 -0.9897 0.9897 0.1428 72.4092 217.1005)" cx="161.5" cy="66.7" rx="4.3" ry="2.8"/>
</g>
<g>
	<path d="M164.2,86.6c-1.4,0-2.8-0.3-4.1-0.9c-3.3-1.6-5.1-5.3-5.5-11.1c0-0.3,0.2-0.6,0.6-0.7c0.4,0,0.6,0.2,0.7,0.6
		c0.3,5.3,1.9,8.6,4.8,10c6,2.9,15.9-3.8,16-3.8c0.3-0.2,0.7-0.1,0.9,0.2c0.2,0.3,0.1,0.7-0.2,0.9C177,82.1,170.3,86.6,164.2,86.6z"
		/>
</g>
</svg>
