<?xml version="1.0" encoding="utf-8"?>
<!-- Generator: Adobe Illustrator 25.2.1, SVG Export Plug-In . SVG Version: 6.00 Build 0)  -->
<svg version="1.1" id="Layer_1" xmlns="http://www.w3.org/2000/svg" xmlns:xlink="http://www.w3.org/1999/xlink" x="0px" y="0px"
	 viewBox="0 0 180 253.8" style="enable-background:new 0 0 180 253.8;" xml:space="preserve">
<style type="text/css">
	.st0{fill:#FDBB37;}
	.st1{fill:#0092A6;}
	.st2{fill:#FFFFFF;}
	.st3{fill:#E61E25;}
	.st4{fill:#EF3E37;}
	.st5{fill:none;stroke:#000000;stroke-linecap:round;stroke-miterlimit:10;}
	.st6{fill:#010101;}
	.st7{fill:#FFD386;}
	.st8{fill:#FFF0D9;}
	.st9{fill:#004D59;}
	.st10{fill:#FFFFFF;stroke:#000000;stroke-width:0.5;stroke-miterlimit:10;}
</style>
<g>
	<path class="st1" d="M164.4,237.2c-3.6,3.2-8.2,5.4-12.8,7.1c-12.3,4.6-25.3,6.9-38.4,8.2c-30.1,3.1-61.3,0.9-88.9-11.3
		c-3.5-1.6-7.2-3.4-9.5-6.5c-2.9-3.9-3.3-9.1-3.3-14c-0.2-11.4,4.2-29.2,19.4-21.6c4.5,2.3,8,6.1,11.8,9.4
		c20.5,18.2,52.2,22.6,77,10.9c10.9-5.1,20.3-12.9,30.6-19.3c3.5-2.2,7.9-4.3,11.7-2.8c2.7,1,4.5,3.6,5.7,6.2
		c2.1,4.6,3,9.7,3.2,14.7c0.2,4.9-0.3,9.9-2.7,14.2C167.2,234.3,165.9,235.8,164.4,237.2z"/>
</g>
<g>
	<path class="st0" d="M79.6,32.7c-1.2,1.9-2.7,3.3-4.4,3.8c-2.7,0.7-6.5-1.2-8.6-4c0,1.8,0,3.7,0.1,5.7c0,0.6,0,1.2,0,1.8
		c0.1,4.9,0.2,10.4,0.3,16.4v0c0,0.1,0,0.2,0,0.3c0.9,41,3.4,104.7,10.8,142.2c2.4,1,4.4,4.1,5.7,7.4C79,163.7,79.2,76.3,79.6,32.7z
		 M79.6,32.7c-1.2,1.9-2.7,3.3-4.4,3.8c-2.7,0.7-6.5-1.2-8.6-4c0,1.8,0,3.7,0.1,5.7c0,0.6,0,1.2,0,1.8c0.1,4.9,0.2,10.4,0.3,16.4v0
		c0,0.1,0,0.2,0,0.3c0.9,41,3.4,104.7,10.8,142.2c2.4,1,4.4,4.1,5.7,7.4C79,163.7,79.2,76.3,79.6,32.7z M79.6,32.7
		c-1.2,1.9-2.7,3.3-4.4,3.8c-2.7,0.7-6.5-1.2-8.6-4c0,1.8,0,3.7,0.1,5.7c0,0.6,0,1.2,0,1.8c0.1,4.9,0.2,10.4,0.3,16.4v0
		c0,0.1,0,0.2,0,0.3c0.9,41,3.4,104.7,10.8,142.2c2.4,1,4.4,4.1,5.7,7.4C79,163.7,79.2,76.3,79.6,32.7z M79.6,32.7
		c-1.2,1.9-2.7,3.3-4.4,3.8c-2.7,0.7-6.5-1.2-8.6-4c0,1.8,0,3.7,0.1,5.7c0,0.6,0,1.2,0,1.8c0.1,4.9,0.2,10.4,0.3,16.4v0
		c0,0.1,0,0.2,0,0.3c0.9,41,3.4,104.7,10.8,142.2c2.4,1,4.4,4.1,5.7,7.4C79,163.7,79.2,76.3,79.6,32.7z M79.6,32.7
		c-1.2,1.9-2.7,3.3-4.4,3.8c-2.7,0.7-6.5-1.2-8.6-4c0,1.8,0,3.7,0.1,5.7c0,0.6,0,1.2,0,1.8c0.1,4.9,0.2,10.4,0.3,16.4v0
		c0,0.1,0,0.2,0,0.3c0.9,41,3.4,104.7,10.8,142.2c2.4,1,4.4,4.1,5.7,7.4C79,163.7,79.2,76.3,79.6,32.7z M171.9,156.7
		C172,156.8,172,156.8,171.9,156.7c6.3-6.2,8.9-15.8,4.1-23.7c-1.3,2.3-19,33-37.9,59c-0.1-0.2-0.2-0.4-0.3-0.5
		c19.4-26.8,37.5-58.4,37.8-59c0.1-0.1,0.3-0.2,0.4-0.1c0,0,0,0,0,0c4.2-6.3,6.3-15.6-0.1-21.2c-1.7,3.3-22.8,43.4-44.4,76
		c-0.2,0-0.5-0.1-0.7-0.1c1.5-2.3,3-4.6,4.5-7c0.2,0,0.3,0,0.5-0.1c0.5-0.2,0.8-0.8,1.1-1.6c0.1-0.2,0-0.5-0.1-0.7
		c20-31.6,38.3-66.3,38.6-66.9c0.1-0.1,0.2-0.2,0.4-0.1h0c2.2-4.7,4.5-13.2-1-16.4c-1.9,4.1-34.4,74.1-60.4,111.3
		c0-0.3-0.1-0.6-0.2-0.9c26.3-38,59.6-109.7,60-110.7c0-0.1,0.2-0.2,0.3-0.2h0c1.6-6.7,2-17.4-6.2-19.7v0
		c-0.3,0.9-22.3,61.7-44.3,106.8c-0.1-0.2-0.2-0.3-0.4-0.5c22-45,43.8-105.6,44.2-106.6c0-0.1,0.2-0.2,0.3-0.2
		c0.7-6.5-0.6-15.9-8.4-17c0,0,0,0,0,0c-0.1,0.4-10.4,38.8-23.7,78.9c-5.6,16.8-10.8,31.4-15.7,43.7c-0.3,0.1-0.7,0.4-0.9,0.7
		C139.6,129.8,159,58,159.3,56.9c0-0.1,0.2-0.2,0.3-0.2c-0.1-8.1-4.4-17-13.6-16.6v0.1c-0.1,0.4-7.1,42.5-17,86.4
		c-7,31.1-13.7,55.2-19.9,72.3c-0.2-0.1-0.4-0.2-0.6-0.3c19.3-53.3,36.7-157.2,36.9-158.5c0-0.1,0.1-0.2,0.3-0.2
		c-0.2-7.6-5.4-13.1-12.9-13.4c-0.2,0-0.3,0-0.5,0h-0.3c-2.7-8-9.8-11.6-17.5-8.4c-0.1,0-0.2,0.1-0.4,0.2c-0.1,0-0.1,0.1-0.2,0.1
		c-1.1-6.7-6.5-11.2-13.2-10.2c-0.2,0-0.4,0.1-0.5,0.1c0.1-0.4,0.2-0.9,0.2-1.3c0.7-9-19.7-9.2-20-0.4c0,0.5,0,1,0.1,1.5
		c-0.2,0-0.3,0-0.5-0.1c-6.7-1.1-12,3.4-13.6,9.8c-0.1,0.2-0.1,0.5-0.2,0.7c-0.1,0-0.2-0.1-0.3-0.1v0c-7.7-3.7-14.9,0.2-17.7,7.8v0
		c-0.1,0.2-0.1,0.3-0.2,0.5h-0.3c-7.9,0.1-13.4,5.8-13.4,13.7c-0.1,0-0.3,0-0.4,0c-0.2,0-0.4,0-0.6,0c-8.8,0.2-12.9,8.8-12.9,16.8
		c2.2,7.9,21.1,75.5,40.6,123.5c-0.1,0-0.2-0.1-0.3-0.1c-0.1,0-0.3-0.1-0.4-0.1c-5.1-12.5-10.6-27.5-16.4-44.8
		c-12.5-37-22.5-72.7-24-78.3v0c-7.6,1.4-8.8,10.8-8.1,17.2c-0.1,0-0.2,0.1-0.3,0.1v0c3,8,24.5,65.2,45.7,107.5
		c-0.1,0.2-0.2,0.4-0.3,0.5C35.6,140,13.9,82.5,11,74.6v0c-7.3,2.6-7.2,12.5-5.7,19c0,0,0.1,0.1,0.1,0.1c0.4,1,35,74.4,61.7,112.1
		c-0.1,0.3-0.1,0.6-0.1,0.9C41.4,171,8.9,102.4,5.1,94.5c-5.4,3.4-3.1,11.6-0.9,16.4c0.1-0.1,0.3,0,0.4,0.1
		c0.3,0.6,19.3,36.2,39.8,68.1c0,0,0,0.1,0,0.1c0.2,0.8,0.6,1.4,1,1.6c0,0,0,0,0,0c1.6,2.4,3.1,4.8,4.7,7.1c-0.2,0-0.5,0.1-0.7,0.1
		c-22-32.7-43.7-73.5-45.4-76.7c-6.4,5.7-4.4,14.9-0.1,21.2c0,0,0,0,0,0c0.1-0.1,0.3,0,0.4,0.1c0.3,0.5,19.1,32.9,39,59.9
		c-0.1,0.2-0.2,0.3-0.3,0.5c-19.4-26.2-37.7-57.6-39.1-60c-4.7,7.9-2.1,17.4,4.1,23.7c0,0,0,0,0.1-0.1c0.1-0.1,0.3,0,0.4,0.1
		c0.2,0.4,12.9,23.6,28.2,43c-0.2,0-0.4,0.1-0.5,0.2C21.2,181.2,8.9,158.8,8,157.2c-4.3,5-1.4,12.6,1,17.8
		c3.8,7.9,9.1,15.2,14.9,22.1c3.7,4.4,7.7,8.7,11.6,12.8c4.7,4.9,10.5,7.5,16.9,9.8c1.3,0.5,2.7,0.9,4.1,1.4h0
		c0.4,0.1,0.9,0.3,1.3,0.4c0.2,0,0.3,0.1,0.4,0.1c4.3,1.3,8.7,2.2,13.1,2.9c0.4,0.1,0.8,0.1,1.2,0.2c2.6,0.4,5.2,0.7,7.8,0.9
		c0.4,0,0.7,0.1,1.1,0.1h0c0.9,0.1,1.8,0.2,2.7,0.2h0c0.3,0,0.5,0,0.8,0.1c0.1,0,0.2,0,0.2,0h0.2c0,0,0.1,0,0.1,0c0.1,0,0.2,0,0.3,0
		h0.3c0.1,0,0.1,0,0.2,0h0c1.2,0.1,2.4,0.2,3.7,0.2c0.6,0,1.2,0,1.9,0c0.3,0,0.5,0,0.8,0c0.8,0,1.5-0.1,2.3-0.2h0c0.1,0,0.2,0,0.3,0
		h0.1c0.1,0,0.2,0,0.2,0c0.3,0,0.6,0,0.9,0c1-0.1,1.9-0.1,2.7-0.2c0.1,0,0.2,0,0.3,0c0.3,0,0.5,0,0.8-0.1c3.2-0.3,5.7-0.7,8.2-1.1
		c0.2,0,0.4-0.1,0.6-0.1c0.2,0,0.4-0.1,0.6-0.1c4.8-0.9,9.5-2.1,14.2-3.6c0.5-0.2,1.1-0.4,1.6-0.5h0c7.1-2.4,13.7-5,18.9-10.4
		c3.8-3.9,7.4-8,10.9-12.1c1-1.1,1.9-2.3,2.8-3.4c5-6.3,10-13,13.3-20.5c2.2-4.9,4.4-11.9,0.4-16.5c-0.9,1.6-12.6,23.3-27,42.1
		c-0.2-0.1-0.4-0.1-0.6-0.2c14.8-19.3,26.9-41.9,27.1-42.3C171.6,156.7,171.8,156.7,171.9,156.7z M51.5,57.3
		C55.8,95.8,64,160.9,74.6,198.7c-0.2,0-0.4,0.1-0.6,0.2c-5.1-18.1-10.2-44.4-15.1-78.7c-3.4-23-6.1-45.7-8-63
		C51.1,57.2,51.3,57.2,51.5,57.3z M77.1,198.7C77.1,198.7,77.1,198.7,77.1,198.7c-3.9-19.5-6.7-47.9-8.7-85.2
		c-1-19.6-1.6-38.8-2-54.8c0.3-0.6,0.5-1.4,0.5-2c0.9,41,3.4,104.7,10.8,142.2C77.6,198.9,77.3,198.8,77.1,198.7z M83.5,206.4
		C79,163.7,79.2,76.3,79.6,32.7c0.2-0.3,0.4-0.6,0.6-1c-0.4,44.3-0.6,136,4.2,177.7C84.1,208.4,83.8,207.3,83.5,206.4z M51,126.1
		c-5.1-22-9.5-43.5-12.6-59.5c0.2,0.1,0.4,0.2,0.6,0.2c6.9,35.2,19.9,96.4,33.5,132.6c-0.2,0.1-0.4,0.2-0.5,0.3
		C65.4,182.6,58.4,158,51,126.1z M114,60.3c-0.4,15.8-0.9,34.5-2,53.6c-2,36.7-4.8,64.9-8.5,84.3c-0.2,0.1-0.5,0.2-0.7,0.4
		c7-36.6,9.6-97.2,10.6-137.9C113.7,60.6,113.9,60.5,114,60.3z M121.6,120.6c-4.9,33.5-9.8,59.4-14.8,77.5c-0.2-0.1-0.4-0.1-0.6-0.1
		c10.7-38.8,18.9-104.9,23-142.6c0.2-0.1,0.4-0.3,0.6-0.4C127.9,72.5,125.1,96.3,121.6,120.6z M100.5,57.4c0.2-0.1,0.4-0.3,0.6-0.5
		c0.2,57.3-0.5,146.5-7.2,169.1c-0.2,0-0.4,0-0.6,0C99.9,203.9,100.7,114.9,100.5,57.4z M79.6,32.7c-1.2,1.9-2.7,3.3-4.4,3.8
		c-2.7,0.7-6.5-1.2-8.6-4c0,1.8,0,3.7,0.1,5.7c0,0.6,0,1.2,0,1.8c0.1,4.9,0.2,10.4,0.3,16.4v0c0,0.1,0,0.2,0,0.3
		c0.9,41,3.4,104.7,10.8,142.2c2.4,1,4.4,4.1,5.7,7.4C79,163.7,79.2,76.3,79.6,32.7z M79.6,32.7c-1.2,1.9-2.7,3.3-4.4,3.8
		c-2.7,0.7-6.5-1.2-8.6-4c0,1.8,0,3.7,0.1,5.7c0,0.6,0,1.2,0,1.8c0.1,4.9,0.2,10.4,0.3,16.4v0c0,0.1,0,0.2,0,0.3
		c0.9,41,3.4,104.7,10.8,142.2c2.4,1,4.4,4.1,5.7,7.4C79,163.7,79.2,76.3,79.6,32.7z M79.6,32.7c-1.2,1.9-2.7,3.3-4.4,3.8
		c-2.7,0.7-6.5-1.2-8.6-4c0,1.8,0,3.7,0.1,5.7c0,0.6,0,1.2,0,1.8c0.1,4.9,0.2,10.4,0.3,16.4v0c0,0.1,0,0.2,0,0.3
		c0.9,41,3.4,104.7,10.8,142.2c2.4,1,4.4,4.1,5.7,7.4C79,163.7,79.2,76.3,79.6,32.7z M79.6,32.7c-1.2,1.9-2.7,3.3-4.4,3.8
		c-2.7,0.7-6.5-1.2-8.6-4c0,1.8,0,3.7,0.1,5.7c0,0.6,0,1.2,0,1.8c0.1,4.9,0.2,10.4,0.3,16.4v0c0,0.1,0,0.2,0,0.3
		c0.9,41,3.4,104.7,10.8,142.2c2.4,1,4.4,4.1,5.7,7.4C79,163.7,79.2,76.3,79.6,32.7z"/>
</g>
<g>
	<g>
		<g>
			<path class="st4" d="M60.1,202v0.1c0,0.3,0,0.6,0,0.9c-0.2,2.5-1.7,4.6-3.9,5.7c-0.2,0.1-0.4,0.2-0.5,0.2
				c-1.8,0.7-3.9,0.7-6.1-0.2c-3.2-1.3-5.5-5.4-7.2-10.8c-0.5-1.7-0.2-3.4,0.7-4.9c0.1-0.2,0.2-0.4,0.3-0.5c1.4-2.2,3.8-3.9,6.1-4.4
				c0.2-0.1,0.5-0.1,0.7-0.1c0.8-0.1,1.5-0.1,2.2,0.1C56.7,189.1,59.9,196.7,60.1,202z"/>
		</g>
		<g>
			<path class="st4" d="M84.8,212.8v0.2c0,0.7-0.1,1.4-0.3,2c-0.3,1.1-0.9,2.2-1.7,3c-0.2,0.2-0.3,0.3-0.5,0.4
				c-0.2,0.2-0.3,0.3-0.5,0.4c-0.1,0.1-0.3,0.2-0.4,0.3c0,0,0,0-0.1,0c-0.2,0.1-0.3,0.2-0.5,0.2c-0.1,0-0.2,0.1-0.2,0.1
				c-0.2,0.1-0.4,0.2-0.6,0.2c0,0-0.1,0-0.1,0.1c-0.2,0-0.4,0.1-0.6,0.1c-0.2,0.1-0.5,0.1-0.8,0.1c-0.3,0-0.5,0-0.8,0
				c-1,0-2.1-0.2-3.2-0.6h0c-0.1,0-0.2-0.1-0.3-0.1c-0.5-0.2-1-0.5-1.5-0.8c0,0-0.1-0.1-0.1-0.1c-0.9-0.6-1.6-1.5-2.4-2.6
				c0,0,0,0,0,0c-0.5-0.8-1-1.7-1.5-2.6c0,0,0,0,0,0c-0.7-1.4-1.3-2.9-1.8-4.6c-0.2-0.7-0.3-1.3-0.2-2c0-0.3,0-0.6,0.1-0.9
				c0.2-0.9,0.5-1.7,1.1-2.5c0.1-0.2,0.2-0.3,0.4-0.5c0.4-0.5,0.7-0.9,1.2-1.3c0.2-0.2,0.3-0.3,0.5-0.4c0.5-0.5,1.1-0.9,1.7-1.2
				c0.2-0.1,0.4-0.2,0.5-0.3c0.5-0.3,1.1-0.5,1.6-0.6c0.2-0.1,0.4-0.1,0.6-0.2c0.9-0.2,1.7-0.2,2.4,0c0,0,0,0,0.1,0
				c0.2,0.1,0.4,0.1,0.6,0.2c2.4,1,4.4,4.1,5.7,7.4c0.4,1,0.7,2,0.9,3C84.6,210.6,84.8,211.8,84.8,212.8z"/>
		</g>
		<g>
			<path class="st4" d="M64.5,191.9c-0.4-1.3,1.4-2.7,2.5-2.4c1.1,0.3,1.9,2.2,1.9,3.5c0,1.3-1.2,2.2-2.6,1.6
				C65.5,194.2,65,193.2,64.5,191.9z"/>
		</g>
		<g>
			<path class="st4" d="M60.2,211.7c-0.4-1.3,1.4-2.7,2.5-2.4c1.1,0.3,1.9,2.2,1.9,3.5c0,1.3-1.2,2.2-2.6,1.6
				C61.2,214,60.6,213,60.2,211.7z"/>
		</g>
		<g>
			<path class="st4" d="M31,190.3c-0.4-1.3,1.4-2.7,2.5-2.4c1.1,0.3,1.9,2.2,1.9,3.5c0,1.3-1.2,2.2-2.6,1.6
				C32,192.7,31.4,191.7,31,190.3z"/>
		</g>
		<g>
			<path class="st4" d="M47,179.8c0,0.8-0.7,1.3-1.5,1c0,0,0,0,0,0c-0.5-0.2-0.8-0.8-1-1.6c0,0,0-0.1,0-0.1
				c-0.1-0.7,0.9-1.5,1.5-1.3C46.5,177.9,47,179.1,47,179.8z"/>
		</g>
		<g>
			<path class="st4" d="M39.4,184.6c-0.3-1,1.1-2.1,1.9-1.9s1.4,1.7,1.5,2.7s-0.9,1.7-2,1.3C40.1,186.4,39.7,185.7,39.4,184.6z"/>
		</g>
		<g>
			<path class="st4" d="M45.7,213c-0.2-0.8,0.8-1.6,1.5-1.4c0.6,0.2,1.1,1.3,1.1,2.1c0,0.8-0.7,1.3-1.5,1
				C46.3,214.4,46,213.8,45.7,213z"/>
		</g>
		<g>
			<path class="st4" d="M66.3,218.3c-0.2-0.8,0.8-1.6,1.5-1.4c0.6,0.2,1.1,1.3,1.1,2.1c0,0.8-0.7,1.3-1.5,1
				C66.8,219.7,66.5,219.1,66.3,218.3z"/>
		</g>
		<g>
			<path class="st4" d="M78.2,194.2c-0.2-0.8,0.8-1.6,1.5-1.4c0.6,0.2,1.1,1.3,1.1,2.1c0,0.8-0.7,1.3-1.5,1
				C78.8,195.6,78.5,195,78.2,194.2z"/>
		</g>
		<g>
			<path class="st4" d="M63.9,186c0,0.3,0,0.6-0.1,0.9c-0.1,0.3-0.2,0.6-0.4,0.8c-0.5,0.8-1.5,1.3-2.5,1.3c-0.2,0-0.5,0-0.7-0.1
				c-0.2,0-0.4-0.1-0.5-0.2c-1.3-0.5-2.2-2.2-2.9-4.4c-0.2-0.6-0.1-1.3,0.2-1.8c0.1-0.2,0.2-0.4,0.3-0.5c0.8-1,2-1.7,3.1-1.7
				c0.2,0,0.3,0,0.4,0.1c0.1,0,0.2,0.1,0.3,0.1C62.6,181.1,63.8,184,63.9,186z"/>
		</g>
		<g>
			<path class="st4" d="M41,205.6c0,0.1,0,0.3,0,0.4c0,0,0,0,0,0.1c-0.2,1.9-2.1,3.1-4.2,2.2c-1.3-0.5-2.2-2.2-2.9-4.4
				c-0.3-0.9,0-1.7,0.6-2.5c0.5-0.6,1.1-1.1,1.7-1.3c0.2-0.1,0.4-0.2,0.5-0.2c0.4-0.1,0.8-0.1,1.2,0c1.6,0.4,2.9,3.1,3.1,5.2
				C41,205.3,41,205.4,41,205.6z"/>
		</g>
	</g>
	<g>
		<g>
			<path class="st4" d="M139,197.2c-1.7,5.4-4,9.5-7.2,10.8c-2.2,0.9-4.4,0.9-6.1,0.2c-0.2-0.1-0.4-0.2-0.5-0.2
				c-2.2-1.1-3.7-3.2-3.9-5.9c0-0.2,0-0.5,0-0.7c0-0.1,0-0.3,0-0.4c0.3-5.2,3.4-12.5,7.6-13.7c0.6-0.2,1.2-0.2,1.8-0.1h0
				c0.2,0,0.5,0.1,0.7,0.1c2.3,0.5,4.8,2.2,6.3,4.3c0.1,0.2,0.2,0.3,0.3,0.5C139.1,193.7,139.5,195.5,139,197.2z"/>
		</g>
		<g>
			<path class="st4" d="M114.2,207.9c-0.5,1.6-1.1,3.1-1.7,4.5c0,0,0,0,0,0c-0.5,1.1-1.1,2.1-1.6,2.9c0,0,0,0,0,0
				c-0.6,0.8-1.2,1.5-1.9,2.1l0,0c-0.6,0.5-1.2,0.9-1.9,1.2c0,0,0,0,0,0c-1.1,0.5-2.2,0.7-3.3,0.7c-0.3,0-0.5,0-0.8,0
				c-0.3,0-0.6-0.1-0.9-0.2c-0.2,0-0.4-0.1-0.6-0.1c-0.1,0-0.1,0-0.2-0.1c-0.2-0.1-0.4-0.1-0.6-0.2c-0.1,0-0.2-0.1-0.4-0.2
				c-0.2-0.1-0.4-0.2-0.5-0.3c-0.2-0.1-0.3-0.2-0.5-0.3c-0.2-0.2-0.4-0.3-0.6-0.5c-0.2-0.2-0.3-0.3-0.5-0.5c-1.1-1.3-1.7-3-1.7-4.9
				c0.1-4.7,2.7-11.3,6.3-13.5c0.2-0.1,0.5-0.3,0.7-0.4c0.2-0.1,0.4-0.2,0.6-0.2c0.6-0.2,1.3-0.2,2-0.1c0.2,0,0.4,0.1,0.6,0.1
				c0.5,0.1,1.1,0.3,1.6,0.5c0.2,0.1,0.4,0.2,0.6,0.3c0.7,0.3,1.3,0.7,1.9,1.2c0.2,0.1,0.4,0.3,0.5,0.4c0.5,0.4,0.9,0.9,1.3,1.3
				c0.1,0.2,0.2,0.3,0.4,0.5c0.6,0.8,1,1.6,1.2,2.5c0.1,0.3,0.1,0.6,0.2,0.9C114.5,206.5,114.5,207.2,114.2,207.9z"/>
		</g>
		<g>
			<path class="st4" d="M116.8,191.2c0.4-1.3-1.4-2.7-2.5-2.4c-1.1,0.3-1.9,2.2-1.9,3.5s1.2,2.2,2.6,1.6
				C115.8,193.5,116.4,192.5,116.8,191.2z"/>
		</g>
		<g>
			<path class="st4" d="M121.1,211c0.4-1.3-1.4-2.7-2.5-2.4c-1.1,0.3-1.9,2.2-1.9,3.5c0,1.3,1.2,2.2,2.6,1.6
				C120.2,213.4,120.7,212.3,121.1,211z"/>
		</g>
		<g>
			<path class="st4" d="M150.3,189.7c0.4-1.3-1.4-2.7-2.5-2.4c-1.1,0.3-1.9,2.2-1.9,3.5c0,1.3,1.2,2.2,2.6,1.6
				C149.4,192,149.9,191,150.3,189.7z"/>
		</g>
		<g>
			<path class="st4" d="M137,178.5c-0.2,0.8-0.6,1.4-1.1,1.6c-0.2,0.1-0.4,0.1-0.5,0.1c-0.6,0-1-0.5-1-1.1c0-0.8,0.5-1.9,1.1-2.1
				c0.5-0.1,1.1,0.3,1.4,0.8C137,178.1,137,178.3,137,178.5z"/>
		</g>
		<g>
			<path class="st4" d="M142,183.9c0.3-1-1.1-2.1-1.9-1.9c-0.8,0.2-1.4,1.7-1.5,2.7s0.9,1.7,2,1.3C141.2,185.7,141.7,185,142,183.9z
				"/>
		</g>
		<g>
			<path class="st4" d="M135.6,212.4c0.2-0.8-0.8-1.6-1.5-1.4c-0.6,0.2-1.1,1.3-1.1,2.1c0,0.8,0.7,1.3,1.5,1
				C135,213.7,135.4,213.1,135.6,212.4z"/>
		</g>
		<g>
			<path class="st4" d="M115.1,217.6c0.2-0.8-0.8-1.6-1.5-1.4c-0.6,0.2-1.1,1.3-1.1,2.1c0,0.8,0.7,1.3,1.5,1
				C114.5,219,114.8,218.4,115.1,217.6z"/>
		</g>
		<g>
			<path class="st4" d="M103.1,193.5c0.2-0.8-0.8-1.6-1.5-1.4c-0.6,0.2-1.1,1.3-1.1,2.1c0,0.8,0.7,1.3,1.5,1
				C102.5,194.9,102.9,194.3,103.1,193.5z"/>
		</g>
		<g>
			<path class="st4" d="M124.7,183.6c-0.7,2.2-1.6,3.8-2.9,4.4c-0.4,0.2-0.8,0.3-1.2,0.3c-0.2,0-0.4,0-0.6,0c-1.1-0.1-2-0.8-2.3-1.8
				c-0.1-0.3-0.2-0.7-0.2-1.1c0-0.1,0-0.2,0-0.3c0,0,0,0,0,0c0.1-1.6,0.8-3.6,1.9-4.7c0,0,0,0,0,0c0.3-0.3,0.6-0.5,0.9-0.7
				c0.1,0,0.2-0.1,0.2-0.1c0.9-0.3,2.2,0.3,3.1,1.2c0.1,0.2,0.3,0.3,0.4,0.5C124.6,181.9,124.9,182.8,124.7,183.6z"/>
		</g>
		<g>
			<path class="st4" d="M147.5,203.2c-0.7,2.2-1.6,3.8-2.9,4.4c-1.7,0.7-3.3,0.1-3.9-1.2c-0.2-0.4-0.3-0.7-0.3-1.2
				c0-0.1,0-0.2,0-0.3c0-0.2,0-0.4,0.1-0.7c0.3-2.1,1.5-4.6,3.1-5.1c0.3-0.1,0.6-0.1,1,0c0.2,0,0.4,0.1,0.6,0.2c1,0.4,2,1.3,2.4,2.3
				C147.7,202.1,147.7,202.7,147.5,203.2z"/>
		</g>
	</g>
</g>
<g>
	<g>
		<g>
			<path class="st4" d="M61.3,43.1c-0.2,5.3-3.4,12.9-7.7,14.1c-0.6,0.2-1.3,0.2-2.1,0.1c-0.2,0-0.4-0.1-0.6-0.1
				c-4.1-0.9-8.7-5.5-7.3-9.9c1.3-4.3,3-7.7,5.3-9.6c0.2-0.2,0.4-0.3,0.5-0.4c0.4-0.3,0.9-0.6,1.4-0.8
				C56.4,34.2,61.4,37.8,61.3,43.1z"/>
		</g>
		<g>
			<path class="st4" d="M82.9,22.3c-0.1,2.9-1.1,6.5-2.7,9.4c-0.2,0.3-0.4,0.7-0.6,1c-1.2,1.9-2.7,3.3-4.4,3.8
				c-2.7,0.7-6.5-1.2-8.6-4c-0.2-0.3-0.4-0.6-0.6-0.9c-0.9-1.5-1.3-3.3-0.8-5c0.2-0.7,0.5-1.4,0.7-2.1c0.2-0.5,0.4-1,0.6-1.5
				c1.5-3.6,3.4-6.2,5.9-7.3c2.8-1.1,5.4-0.8,7.4,0.5c0.2,0.1,0.4,0.3,0.6,0.4C82,17.9,82.9,19.9,82.9,22.3z"/>
		</g>
		<g>
			<path class="st4" d="M67,56.7L67,56.7c0,0.7-0.2,1.5-0.5,2.1c-0.3,0.7-0.8,1.2-1.3,1.4c-1.1,0.3-2.9-1.1-2.5-2.4
				c0.4-1.3,1-2.4,1.8-2.7c0.8-0.3,1.5-0.2,2,0.2c0.3,0.3,0.6,0.7,0.6,1.1v0C67,56.5,67,56.6,67,56.7z"/>
		</g>
		<g>
			<path class="st4" d="M55.4,24c-0.5,1.3,1.5,2.7,2.7,2.4c1.2-0.3,2-2.2,2.1-3.5c0-1.3-1.3-2.2-2.8-1.6
				C56.5,21.6,55.9,22.7,55.4,24z"/>
		</g>
		<g>
			<path class="st4" d="M29.1,59.2c-0.4,1.3,1.4,2.7,2.5,2.4c1.1-0.3,1.9-2.2,1.9-3.5c0-1.3-1.2-2.2-2.6-1.6
				C30.1,56.9,29.5,57.9,29.1,59.2z"/>
		</g>
		<g>
			<path class="st4" d="M71.6,43.3c-0.2,0.8,0.8,1.6,1.5,1.4c0.6-0.2,1.1-1.3,1.1-2.1c0-0.8-0.7-1.3-1.5-1
				C72.2,41.9,71.9,42.5,71.6,43.3z"/>
		</g>
		<g>
			<path class="st4" d="M40.8,64.1c0,1-0.6,2.5-1.5,2.7c-0.1,0-0.2,0-0.4,0c-0.2,0-0.4-0.1-0.6-0.2c-0.6-0.4-1.1-1-0.9-1.7
				c0.1-0.4,0.2-0.7,0.4-0.9c0.1-0.3,0.3-0.5,0.5-0.7c0.2-0.2,0.3-0.3,0.5-0.4C39.9,62.5,40.8,63.2,40.8,64.1z"/>
		</g>
		<g>
			<path class="st4" d="M44.1,32.8c-0.2,0.8,0.8,1.6,1.5,1.4c0.6-0.2,1.1-1.3,1.1-2.1c0-0.8-0.7-1.3-1.5-1
				C44.7,31.4,44.4,32,44.1,32.8z"/>
		</g>
		<g>
			<path class="st4" d="M64.3,39.5c-0.2,0.8,0.8,1.6,1.5,1.4c0.6-0.2,1.1-1.3,1.1-2.1c0-0.8-0.7-1.3-1.5-1
				C64.9,38.1,64.6,38.7,64.3,39.5z"/>
		</g>
		<g>
			<path class="st4" d="M76.3,55.4c-0.2,0.8,0.8,1.6,1.5,1.4c0.6-0.2,1.1-1.3,1.1-2.1c0-0.8-0.7-1.3-1.5-1
				C76.9,54,76.6,54.6,76.3,55.4z"/>
		</g>
		<g>
			<path class="st4" d="M54.8,65.3c-0.7,2.2,2.3,4.5,4.1,4c1.7-0.5,3.1-3.6,3.1-5.7c0.1-2.1-2-3.6-4.3-2.7
				C56.4,61.4,55.5,63.1,54.8,65.3z"/>
		</g>
		<g>
			<path class="st4" d="M30.7,48.1c-0.7,2.2,2.3,4.5,4.1,4c1.7-0.5,3.1-3.6,3.1-5.7c0.1-2.1-2-3.6-4.3-2.7
				C32.3,44.2,31.4,45.9,30.7,48.1z"/>
		</g>
	</g>
	<g>
		<g>
			<path class="st4" d="M129.9,54.9c-0.2,0.2-0.4,0.3-0.6,0.4c-1.8,1.1-3.9,1.6-5.5,1.2c-4.3-1.2-7.5-8.8-7.7-14.1
				c-0.2-5.3,4.9-8.9,10.5-6.6c1.7,0.7,3.1,2.1,4.3,4.1c0.2,0.3,0.3,0.5,0.5,0.9c0.9,1.7,1.7,3.7,2.4,5.9
				C134.7,49.7,132.6,53,129.9,54.9z"/>
		</g>
		<g>
			<path class="st4" d="M112.3,27.2c1.7,5.4-5.7,11.1-10,9.9c-4.3-1.2-7.5-8.8-7.7-14.1c-0.1-5.3,4.9-8.9,10.5-6.6
				C108.3,17.7,110.6,21.8,112.3,27.2z"/>
		</g>
		<g>
			<path class="st4" d="M114,60.3c-0.2,0.2-0.4,0.3-0.6,0.4c-0.4,0.2-0.7,0.2-1,0.1c-1.1-0.3-1.9-2.2-1.9-3.5c0-1.3,1.2-2.2,2.6-1.6
				c0.2,0.1,0.3,0.2,0.4,0.3c0.2,0.2,0.4,0.4,0.6,0.7c0.3,0.5,0.5,1.1,0.8,1.7C115.1,59.1,114.7,59.9,114,60.3z"/>
		</g>
		<g>
			<path class="st4" d="M122.1,24.7c0.5,1.3-1.5,2.7-2.7,2.4c-1.2-0.3-2-2.2-2.1-3.5c0-1.3,1.3-2.2,2.8-1.6
				C121,22.3,121.7,23.3,122.1,24.7z"/>
		</g>
		<g>
			<path class="st4" d="M148.4,59.9c0.4,1.3-1.4,2.7-2.5,2.4c-1.1-0.3-1.9-2.2-1.9-3.5c0-1.3,1.2-2.2,2.6-1.6
				C147.4,57.6,148,58.6,148.4,59.9z"/>
		</g>
		<g>
			<path class="st4" d="M108.1,44.8c0.2,0.8-0.8,1.6-1.5,1.4c-0.6-0.2-1.1-1.3-1.1-2.1c0-0.8,0.7-1.3,1.5-1
				C107.5,43.4,107.9,44,108.1,44.8z"/>
		</g>
		<g>
			<path class="st4" d="M140.1,65.6c0.3,1-1.1,2.1-1.9,1.9c-0.8-0.2-1.4-1.7-1.5-2.7c0-1,0.9-1.7,2-1.3
				C139.3,63.8,139.7,64.6,140.1,65.6z"/>
		</g>
		<g>
			<path class="st4" d="M132,33.1c0.2,0.8-0.8,1.6-1.5,1.4c-0.6-0.2-1.1-1.3-1.1-2.1c0-0.8,0.7-1.3,1.5-1
				C131.5,31.7,131.8,32.3,132,33.1z"/>
		</g>
		<g>
			<path class="st4" d="M113.2,40.2c0.2,0.8-0.8,1.6-1.5,1.4c-0.6-0.2-1.1-1.3-1.1-2.1c0-0.8,0.7-1.3,1.5-1
				C112.6,38.8,112.9,39.4,113.2,40.2z"/>
		</g>
		<g>
			<path class="st4" d="M101,56.9c-0.1,0.2-0.3,0.4-0.6,0.5c-0.2,0.2-0.5,0.2-0.7,0.2c-0.6-0.2-1.1-1.3-1.1-2.1c0-0.8,0.7-1.3,1.5-1
				c0.1,0,0.2,0.1,0.3,0.2c0.2,0.2,0.4,0.5,0.6,0.9c0,0.1,0.1,0.3,0.2,0.4C101.3,56.4,101.2,56.7,101,56.9z"/>
		</g>
		<g>
			<path class="st4" d="M91.2,7.4c0.2,0.8-0.8,1.6-1.5,1.4c-0.6-0.2-1.1-1.3-1.1-2.1c0-0.8,0.7-1.3,1.5-1C90.6,6,90.9,6.6,91.2,7.4z
				"/>
		</g>
		<g>
			<path class="st4" d="M122.7,66c0.7,2.2-2.3,4.5-4.1,4c-1.7-0.5-3.1-3.6-3.1-5.7c-0.1-2.1,2-3.6,4.3-2.7
				C121.1,62.1,122,63.8,122.7,66z"/>
		</g>
		<g>
			<path class="st4" d="M142.7,42.2c0.7,2.2-2.3,4.5-4.1,4c-1.7-0.5-3.1-3.6-3.1-5.7c-0.1-2.1,2-3.6,4.3-2.7
				C141.1,38.4,142,40.1,142.7,42.2z"/>
		</g>
	</g>
</g>
<g>
	<g>
		<path class="st2" d="M8,156.8c0.1,0.1,0.1,0.1,0.2,0.2c-0.1,0.1-0.1,0.2-0.2,0.2c0-0.1,0-0.1,0-0.1C7.9,157,7.9,156.9,8,156.8z"/>
	</g>
	<g>
		<path class="st2" d="M58.3,221.6c-0.2,0-0.3-0.1-0.4-0.1c-0.4-0.1-0.9-0.3-1.3-0.4c0,0,0,0,0,0h0c-2.7-2-5.4-4.4-8.2-7.1
			c-0.7-0.7-1.4-1.4-2-2.1c-1.7-1.8-3.4-3.7-5.1-5.7c-0.1-0.1-0.1-0.1-0.2-0.2c-1.6-1.9-3.2-3.9-4.8-5.9c0.2-0.1,0.4-0.2,0.5-0.2
			c1.4,1.8,2.8,3.5,4.2,5.2c0.8,1,1.7,2,2.5,2.9s1.7,1.9,2.6,2.8c0.2,0.2,0.5,0.5,0.7,0.7c0.5,0.5,1,1,1.5,1.5
			c0.5,0.5,1,0.9,1.5,1.4C52.6,217.3,55.4,219.7,58.3,221.6z"/>
	</g>
	<g>
		<path class="st2" d="M4,132.5c0,0.1,0.1,0.2,0.2,0.2C4,132.9,4,133,3.9,133.1c0-0.1-0.1-0.1-0.1-0.1C3.8,132.8,3.8,132.6,4,132.5z
			"/>
	</g>
	<g>
		<path class="st2" d="M72.7,224.7c-0.4-0.1-0.8-0.1-1.2-0.2c0,0,0,0-0.1,0c-0.4-0.3-0.9-0.7-1.3-1c0,0,0,0,0,0
			c-4.5-3.5-9.4-8.6-14.4-14.5c-4.1-4.8-8.4-10.3-12.6-15.9c0.1-0.2,0.2-0.4,0.3-0.5c4.3,5.8,8.6,11.3,12.8,16.2
			c5.4,6.3,10.6,11.6,15.2,15.1C71.8,224.1,72.2,224.4,72.7,224.7C72.6,224.7,72.7,224.7,72.7,224.7z"/>
	</g>
	<g>
		<path class="st2" d="M4.2,110.9c0,0.1,0.1,0.2,0.1,0.2c-0.1,0.1-0.2,0.1-0.2,0.2c0,0,0,0,0-0.1C4,111.1,4,110.9,4.2,110.9
			C4.2,110.9,4.2,110.9,4.2,110.9L4.2,110.9z"/>
	</g>
	<g>
		<path class="st2" d="M44.4,179.1c0.4,0.6,0.7,1.2,1.1,1.7c0,0,0,0,0,0c-0.5-0.2-0.8-0.8-1-1.6C44.4,179.2,44.4,179.1,44.4,179.1z"
			/>
	</g>
	<g>
		<path class="st2" d="M81.6,225.7c-0.4,0-0.7-0.1-1.1-0.1c0,0,0,0-0.1,0c-0.1-0.1-0.2-0.2-0.3-0.2c-2.3-1.7-4.7-4-7.3-6.7
			c0,0-0.1-0.1-0.1-0.1c-0.8-0.8-1.6-1.7-2.4-2.6c0,0,0,0,0,0c-3.3-3.7-6.8-8.1-10.3-12.9c-3.5-4.7-7-9.7-10.5-15
			c0.2-0.1,0.5-0.1,0.7-0.1c3.3,4.9,6.6,9.7,9.9,14.1c3,4.1,6,7.9,8.8,11.3c0,0,0,0,0,0c2,2.3,3.9,4.4,5.7,6.3h0
			c2.4,2.4,4.6,4.4,6.7,5.9C81.4,225.6,81.5,225.6,81.6,225.7L81.6,225.7C81.6,225.7,81.6,225.7,81.6,225.7z"/>
	</g>
	<g>
		<path class="st2" d="M5.3,93.6c0.1,0.3,0.1,0.5,0.2,0.7c-0.1,0.1-0.2,0.1-0.3,0.2c-0.1-0.3-0.2-0.5-0.3-0.6
			c-0.1-0.1,0-0.3,0.1-0.4C5.1,93.5,5.2,93.5,5.3,93.6L5.3,93.6z"/>
	</g>
	<g>
		<path class="st2" d="M85.5,226h-0.2c-0.1,0-0.2,0-0.2,0c-0.3,0-0.5,0-0.8,0c0,0,0,0,0,0h0c0,0-0.1-0.1-0.1-0.1
			c-2-1.3-4.1-3.3-6.4-5.6c-3.4-3.6-7.1-8.2-10.9-13.5c0-0.3,0-0.6,0.1-0.9c4.1,5.8,8,10.7,11.5,14.4c1.8,1.9,3.6,3.5,5.2,4.7
			c0.4,0.3,0.9,0.6,1.3,0.9c0.1,0.1,0.2,0.1,0.3,0.2C85.5,225.9,85.5,225.9,85.5,226z"/>
	</g>
	<g>
		<path class="st2" d="M11.2,73.5c0,0.1,0.1,0.4,0.4,0.9c-0.2,0-0.4,0.1-0.5,0.2c-0.2-0.5-0.3-0.8-0.3-0.9c-0.1-0.1,0-0.3,0.2-0.4
			C11,73.3,11.1,73.3,11.2,73.5z"/>
	</g>
	<g>
		<path class="st2" d="M86.1,226L86.1,226c-0.2,0-0.3,0-0.4,0l0,0l0,0h-0.3c-0.1,0-0.2,0-0.2,0c0,0-0.1-0.1-0.1-0.1
			c-0.4-0.3-0.8-0.7-1.2-1.1c-1.4-1.3-2.9-2.9-4.5-4.8c-3.5-4.3-7.3-10-11.2-16.7c-2.6-4.4-5.3-9.3-7.9-14.4
			c-1.1-2.1-2.2-4.2-3.3-6.4c0.1-0.2,0.2-0.4,0.3-0.5c1.2,2.4,2.4,4.8,3.6,7.1c2.6,4.9,5.1,9.6,7.6,13.8c4,6.9,7.9,12.7,11.5,17.1
			c0.4,0.5,0.9,1,1.3,1.5c1.1,1.3,2.2,2.4,3.3,3.4c0,0,0,0,0,0c0.1,0.1,0.2,0.2,0.3,0.3C85.2,225.3,85.6,225.6,86.1,226
			C86,225.9,86.1,226,86.1,226z"/>
	</g>
	<g>
		<path class="st2" d="M20.3,56.2c0,0.1,0.1,0.3,0.2,0.8V57c-0.2,0-0.4,0-0.5,0.1c-0.1-0.5-0.2-0.7-0.2-0.7c0-0.2,0-0.3,0.2-0.4
			C20.1,55.9,20.2,56,20.3,56.2z"/>
	</g>
	<g>
		<path class="st2" d="M86.3,226H86c-0.1,0-0.2,0-0.3,0l0,0l0,0h-0.3c0,0-0.1-0.1-0.1-0.1c-0.1-0.1-0.1-0.1-0.2-0.2
			c-1.2-1.1-2.5-2.6-3.9-4.4c-0.4-0.5-0.8-1-1.1-1.6c-3.2-4.5-6.7-10.6-10.4-18.3c-1.1-2.2-2.1-4.4-3.2-6.8
			c-0.6-1.3-1.1-2.6-1.7-3.9c-0.4-1-0.9-2-1.3-3c-1-2.4-2-4.9-3.1-7.5c0.2,0,0.3,0,0.4,0.1c0.1,0,0.2,0.1,0.3,0.1
			c0.9,2.2,1.8,4.4,2.7,6.5c0.5,1.1,0.9,2.2,1.4,3.3c0.7,1.6,1.4,3.1,2,4.6c1,2.2,2,4.3,2.9,6.3c3.6,7.5,7.1,13.8,10.5,18.5
			c0.7,0.9,1.3,1.8,2,2.6c0.4,0.5,0.9,1,1.3,1.5c0.7,0.7,1.3,1.4,2,2c0,0,0,0,0,0C86,225.7,86.1,225.8,86.3,226
			C86.3,226,86.3,226,86.3,226z"/>
	</g>
	<g>
		<path class="st2" d="M38.3,63.3c0.2,1.1,0.5,2.3,0.7,3.6c-0.2,0-0.4-0.1-0.6-0.2c-0.2-0.9-0.3-1.8-0.5-2.6
			c-0.9-4.7-1.7-8.8-2.3-12.3c-0.6-3.4-1.1-6.1-1.5-8.2c-0.3-1.7-0.5-2.9-0.6-3.5v0c0-0.2,0-0.3,0-0.3c0-0.2,0.1-0.3,0.2-0.3
			c0.2,0,0.3,0.1,0.3,0.2c0,0,0,0.2,0.1,0.4v0c0.1,0.6,0.3,1.7,0.6,3.3c0.4,1.9,0.8,4.6,1.4,7.8C36.6,54.7,37.4,58.7,38.3,63.3z"/>
	</g>
	<g>
		<path class="st2" d="M86.5,226c-0.1,0-0.1,0-0.2,0H86c-0.1,0-0.2,0-0.3,0l0,0l0,0c0,0,0,0,0-0.1c-0.4-0.4-0.7-0.7-1.1-1.2
			c0,0,0,0,0,0c-0.6-0.8-1.3-1.6-1.9-2.6c-0.6-0.8-1.1-1.7-1.7-2.7c-2.9-4.8-5.9-11.4-9-19.7c0.2-0.1,0.4-0.2,0.5-0.3
			c2.8,7.5,5.7,14,8.5,18.9c0.2,0.3,0.3,0.5,0.5,0.8c1.3,2.2,2.5,4,3.8,5.4C85.6,225.1,86,225.5,86.5,226L86.5,226L86.5,226
			C86.5,226,86.5,226,86.5,226C86.5,226,86.5,226,86.5,226z"/>
	</g>
	<g>
		<path class="st2" d="M49.4,37.2c0.5,5.2,1.2,12,2.1,20c-0.2,0-0.4-0.1-0.6-0.1c-0.9-7.7-1.5-14.3-2.1-19.5
			c-0.6-6.2-1-10.2-1.1-11.2c0-0.2,0-0.3,0-0.3c0-0.2,0.1-0.3,0.3-0.3c0.1,0,0.2,0,0.2,0.1v0c0,0,0.1,0.1,0.1,0.2
			C48.4,26.4,48.7,30.4,49.4,37.2z"/>
	</g>
	<g>
		<path class="st2" d="M86.5,226c-0.1,0-0.1,0-0.2,0H86c-0.1,0-0.2,0-0.3,0c0,0,0,0,0-0.1c-0.3-0.3-0.5-0.6-0.8-0.9
			c-0.3-0.4-0.7-0.9-1-1.4c-0.8-1.3-1.7-2.7-2.5-4.4c-0.1-0.3-0.3-0.5-0.4-0.8c-2.3-4.8-4.6-11.3-6.9-19.5c0.2-0.1,0.4-0.1,0.6-0.2
			c2.3,8.2,4.7,15.1,7.2,20.2c1,2.1,2,3.8,3.1,5.3C85.4,224.8,86,225.4,86.5,226L86.5,226C86.5,226,86.5,226,86.5,226
			C86.5,226,86.5,226,86.5,226z"/>
	</g>
	<g>
		<path class="st2" d="M67,56.4c0,0.1,0,0.2,0,0.3c0,0.6-0.2,1.4-0.5,2c0-1.2-0.1-2.4-0.1-3.5c-0.1-5.2-0.2-10.1-0.3-14.4
			c0-1,0-2,0-3c0-2.3,0-4.4-0.1-6.4c0-2.7,0-5.1,0-7.1c0-3.3,0-5.4,0-6.2v-0.3c0-0.2,0.1-0.3,0.3-0.3c0,0,0.1,0,0.1,0
			c0.1,0.1,0.1,0.2,0.1,0.3c0,0.2,0,2,0,5.1c0,2.4,0,5.6,0.1,9.5c0,1.8,0,3.7,0.1,5.7c0,0.6,0,1.2,0,1.8
			C66.7,44.9,66.8,50.4,67,56.4L67,56.4z"/>
	</g>
	<g>
		<path class="st2" d="M86.8,226C86.8,226,86.8,226,86.8,226l-0.3,0c-0.1,0-0.1,0-0.2,0h-0.2c0,0,0,0,0-0.1
			c-0.1-0.1-0.2-0.2-0.2-0.3c0,0,0,0,0,0c-0.2-0.3-0.4-0.6-0.6-1c-0.1-0.2-0.2-0.3-0.3-0.5c-0.9-1.6-1.8-3.4-2.6-5.6
			c-1.9-5-3.7-11.6-5.3-19.8c0,0,0,0,0.1,0c0.2,0.1,0.4,0.1,0.6,0.2c1.5,7.6,3.2,14.1,5.1,19.1c1.2,3.2,2.5,5.8,3.9,7.7
			C86.7,225.9,86.7,225.9,86.8,226C86.8,226,86.8,226,86.8,226z"/>
	</g>
	<g>
		<path class="st2" d="M80.5,6.7C80.5,6.7,80.5,6.7,80.5,6.7c0,0.3-0.1,3.8-0.2,9.9c0,4-0.1,9.1-0.2,15.1c-0.2,0.3-0.4,0.7-0.6,1
			c0.1-6.6,0.1-12.2,0.2-16.5c0.1-4,0.1-6.8,0.1-8.3v0c0-0.7,0-1.1,0-1.1c0-0.2,0.1-0.3,0.3-0.3h0C80.4,6.5,80.5,6.6,80.5,6.7z"/>
	</g>
	<g>
		<path class="st2" d="M87.3,226C87.3,226,87.3,226,87.3,226c-0.2,0-0.3,0-0.5,0c0,0-0.1,0-0.1,0c0,0,0,0,0,0c0-0.1,0-0.1,0-0.2
			c-0.8-2.7-1.5-6.3-2.1-10.7c-0.4-2.6-0.7-5.6-1.1-8.7c0.4,1,0.7,2,0.9,3c0.2,1.3,0.3,2.5,0.5,3.7C85.5,218.5,86.4,223,87.3,226z"
			/>
	</g>
	<g>
		<path class="st2" d="M145,199.3c-1.5,2-3.1,4-4.6,5.8c-1,1.2-2,2.4-3,3.6c-0.7,0.8-1.5,1.7-2.2,2.5c-0.7,0.7-1.4,1.5-2,2.2
			c-2.4,2.5-4.9,4.8-7.4,6.7h0c-0.5,0.2-1.1,0.4-1.6,0.5c3-2.2,6-5,9-8.1c0.5-0.5,1-1.1,1.6-1.6c0.3-0.4,0.6-0.7,0.9-1
			c1.6-1.8,3.3-3.7,4.9-5.7c1.4-1.6,2.7-3.3,4-5.1C144.6,199.2,144.8,199.3,145,199.3z"/>
	</g>
	<g>
		<path class="st2" d="M172,157.1C172,157.1,172,157.2,172,157.1c-0.1,0-0.2-0.1-0.2-0.1c0,0,0.1-0.1,0.2-0.2
			C172.1,156.9,172.1,157,172,157.1z"/>
	</g>
	<g>
		<path class="st2" d="M137.8,191.6c0.1,0.2,0.2,0.3,0.3,0.5c-4.2,5.7-8.4,11.2-12.5,16.1c-4.9,5.8-9.6,10.9-14,14.5
			c-0.6,0.5-1.2,1-1.8,1.5l0,0c-0.2,0-0.4,0.1-0.6,0.1c-0.2,0-0.4,0.1-0.6,0.1c0.6-0.4,1.1-0.9,1.7-1.4c4.5-3.7,9.5-9,14.7-15.1
			C129.3,203,133.6,197.4,137.8,191.6z"/>
	</g>
	<g>
		<path class="st2" d="M176.1,132.9c0,0,0,0.1-0.1,0.1c0-0.1-0.1-0.2-0.2-0.3c0-0.1,0.1-0.2,0.2-0.2
			C176.2,132.6,176.2,132.8,176.1,132.9z"/>
	</g>
	<g>
		<path class="st2" d="M130.8,187.2c0.2,0,0.5,0.1,0.7,0.1c-3.4,5.2-6.9,10.2-10.2,14.8c-3.6,4.9-7.1,9.4-10.5,13.3
			c-0.6,0.7-1.3,1.4-1.9,2.1c-2.8,3.1-5.5,5.8-8.1,7.8c-0.1,0.1-0.2,0.2-0.3,0.3c-0.3,0-0.5,0-0.8,0.1c-0.1,0-0.2,0-0.3,0
			c0,0,0,0,0,0c0.1,0,0.1-0.1,0.2-0.2c2.3-1.7,4.7-4,7.3-6.8c1.8-1.9,3.6-4,5.5-6.3c2.9-3.4,5.8-7.3,8.8-11.5
			C124.5,196.7,127.6,192,130.8,187.2L130.8,187.2z"/>
	</g>
	<g>
		<path class="st2" d="M136.9,177.9c0.1,0.2,0.2,0.4,0.1,0.7c-0.2,0.8-0.6,1.4-1.1,1.6c-0.2,0.1-0.4,0.1-0.5,0.1
			C135.9,179.4,136.4,178.6,136.9,177.9z"/>
	</g>
	<g>
		<path class="st2" d="M176,111.3C175.9,111.3,175.9,111.3,176,111.3c-0.1,0-0.2-0.1-0.3-0.1c0-0.1,0.1-0.2,0.1-0.2h0c0,0,0,0,0,0
			C176,110.9,176,111.1,176,111.3z"/>
	</g>
	<g>
		<path class="st2" d="M114.4,205.7c-3.8,5.4-7.4,10-10.7,13.7c-2.5,2.7-4.8,4.9-6.9,6.4c0,0,0,0-0.1,0.1c-0.3,0-0.6,0-0.9,0
			c-0.1,0-0.2,0-0.2,0c0,0,0,0,0,0h0c0.3-0.2,0.6-0.4,1-0.7c1.9-1.4,4-3.4,6.3-5.8c3.5-3.8,7.4-8.8,11.3-14.6
			C114.3,205.1,114.4,205.4,114.4,205.7z"/>
	</g>
	<g>
		<path class="st2" d="M174.8,94.4C174.8,94.4,174.8,94.4,174.8,94.4c-0.1,0-0.2-0.1-0.3-0.1c0-0.1,0-0.2,0.1-0.3h0c0,0,0,0,0,0
			C174.8,94.1,174.9,94.3,174.8,94.4z"/>
	</g>
	<g>
		<path class="st2" d="M123.7,180.8c0.1,0.2,0.3,0.3,0.4,0.5c-1.2,2.4-2.4,4.7-3.5,7c-2.5,5-5.1,9.7-7.5,14c-3.8,6.7-7.5,12.5-11,17
			c-1.8,2.4-3.6,4.4-5.3,6c-0.3,0.2-0.5,0.5-0.8,0.7c0,0,0,0,0,0c-0.1,0-0.2,0-0.2,0c-0.1,0-0.2,0.1-0.2,0.1c0,0,0.1-0.1,0.2-0.1
			c-0.1,0-0.2,0-0.3,0h0c-0.1,0-0.2,0-0.3,0l0,0c0.2-0.2,0.5-0.4,0.7-0.6c0.1-0.1,0.2-0.2,0.3-0.3c1.1-1,2.2-2.1,3.4-3.4
			c0.7-0.8,1.4-1.6,2.1-2.5c3.5-4.5,7.3-10.5,11.2-17.3c2.4-4.2,4.8-8.8,7.3-13.6C121.2,185.8,122.5,183.3,123.7,180.8z"/>
	</g>
	<g>
		<path class="st2" d="M168.4,74.4c-0.1,0-0.2-0.1-0.3-0.1c0-0.1,0-0.2,0-0.3h0.1C168.4,74.1,168.5,74.2,168.4,74.4z"/>
	</g>
	<g>
		<path class="st2" d="M119.4,180.4c0.3-0.3,0.6-0.5,0.9-0.7c-0.9,2.3-1.8,4.5-2.7,6.7c-0.4,1.1-0.9,2.1-1.3,3.2
			c-0.7,1.5-1.3,3-2,4.5c-1,2.3-2,4.4-2.9,6.5c-3.6,7.7-7,13.9-10.2,18.6c-0.6,0.9-1.3,1.8-1.9,2.6c-1.3,1.7-2.6,3.1-3.8,4.3
			c0,0,0,0,0,0c-0.1,0-0.2,0-0.3,0h0c-0.1,0-0.2,0-0.3,0h-0.2c0,0,0,0,0,0c0.6-0.6,1.3-1.2,1.9-1.9c0.4-0.5,0.8-0.9,1.2-1.5
			c0.9-1.1,1.8-2.4,2.8-3.8c3.3-4.9,6.8-11.3,10.3-18.8c0.9-2,1.9-4,2.8-6.1c0.7-1.6,1.4-3.2,2.1-4.9c0.6-1.3,1.1-2.7,1.7-4.1
			c0,0,0,0,0,0C118.1,183.5,118.8,182,119.4,180.4C119.4,180.4,119.4,180.4,119.4,180.4z"/>
	</g>
	<g>
		<path class="st2" d="M159.8,57l-0.3,0v-0.3c0,0,0,0,0.1,0C159.7,56.7,159.8,56.9,159.8,57z"/>
	</g>
	<g>
		<path class="st2" d="M108.4,198.6c0.2,0.1,0.4,0.2,0.6,0.3c-3,8.2-5.9,14.9-8.7,19.8c-0.8,1.5-1.6,2.8-2.4,3.9
			c-0.6,0.9-1.3,1.8-1.9,2.5c-0.2,0.3-0.5,0.6-0.7,0.9c0,0,0,0,0,0h0c-0.1,0-0.2,0-0.3,0h-0.2c-0.1,0-0.2,0-0.3,0c0,0,0,0,0,0
			c0.3-0.3,0.6-0.6,0.9-0.9c1.5-1.8,3-4,4.5-6.7l0,0c0,0,0,0,0,0C102.7,213.2,105.6,206.4,108.4,198.6z"/>
	</g>
	<g>
		<path class="st2" d="M145.9,40.1c-0.1,0-0.2,0-0.3,0c0-0.1,0-0.2,0-0.3h0.1C145.8,39.8,145.9,40,145.9,40.1z"/>
	</g>
	<g>
		<path class="st2" d="M106.2,197.9c0.2,0,0.4,0.1,0.6,0.1c-2.4,8.5-4.7,15.2-7,20.3c0,0,0,0,0,0l0,0c-1,2.2-2.1,4.1-3.1,5.7
			c-0.3,0.5-0.6,0.9-1,1.3c-0.2,0.2-0.3,0.4-0.5,0.6c0,0,0,0,0,0c-0.1,0-0.2,0-0.3,0h-0.2c-0.1,0-0.2,0-0.3,0c0,0,0,0,0,0
			c0,0,0,0,0,0c0.4-0.4,0.8-0.9,1.1-1.4c1.3-1.7,2.5-3.9,3.7-6.6C101.7,212.8,104,206,106.2,197.9z"/>
	</g>
	<g>
		<path class="st2" d="M132.7,26.6c0,0.2-0.5,5.4-1.4,14.1c-0.4,4-0.9,8.8-1.5,14.2c-0.2,0.2-0.4,0.3-0.6,0.4
			c0.6-5.9,1.2-11.1,1.6-15.4c0.2-2.1,0.4-3.9,0.5-5.5c0.1-0.8,0.2-1.5,0.2-2.2c0.3-3.4,0.5-5.4,0.5-5.6c0,0,0-0.1,0-0.1
			c0-0.1,0.2-0.2,0.3-0.2c0.1,0,0.2,0.1,0.2,0.2C132.7,26.5,132.7,26.5,132.7,26.6z"/>
	</g>
	<g>
		<path class="st2" d="M102.9,198.6c0.2-0.1,0.5-0.3,0.7-0.4c-1.5,7.8-3.1,14.3-4.9,19.3c-1,2.8-2.1,5.2-3.1,7.1
			c-0.1,0.2-0.2,0.3-0.3,0.4c-0.2,0.3-0.4,0.6-0.6,0.9h0c0,0,0,0,0,0c-0.1,0-0.2,0-0.3,0c0,0,0,0,0,0h-0.2c-0.1,0-0.2,0-0.2,0
			c1.5-2.2,3-5.3,4.3-9C100,212,101.5,205.8,102.9,198.6z"/>
	</g>
	<g>
		<path class="st2" d="M114.1,56.6c0,1.2,0,2.5-0.1,3.7c-0.2,0.2-0.4,0.3-0.6,0.4c0-1.6,0.1-3.2,0.1-4.7c0.5-22,0.5-37.1,0.5-37.7
			c0,0,0,0,0-0.1v0c0-0.1,0.2-0.2,0.3-0.2c0,0,0.1,0,0.1,0l0,0c0.1,0,0.2,0.1,0.2,0.2C114.6,18.6,114.6,34.2,114.1,56.6z"/>
	</g>
	<g>
		<path class="st2" d="M101,55.7c0,0.4,0,0.8,0,1.2c-0.1,0.2-0.3,0.4-0.6,0.5v-2.7c0-6.7-0.1-13-0.1-18.6
			c-0.1-8.3-0.2-15.3-0.2-20.3c-0.1-5.3-0.1-8.4-0.1-8.7c0-0.2,0.1-0.3,0.2-0.3c0,0,0,0,0,0h0c0.2,0,0.3,0.1,0.3,0.3
			c0,0.1,0,0.4,0,0.9c0,1.3,0.1,3.9,0.1,7.7c0.1,5.1,0.2,12.2,0.2,20.7C101,42.3,101,48.7,101,55.7z"/>
	</g>
</g>
</svg>
