<?xml version="1.0" encoding="utf-8"?>
<!-- Generator: Adobe Illustrator 25.2.1, SVG Export Plug-In . SVG Version: 6.00 Build 0)  -->
<svg version="1.1" id="Layer_1" xmlns="http://www.w3.org/2000/svg" xmlns:xlink="http://www.w3.org/1999/xlink" x="0px" y="0px"
	 viewBox="0 0 180 182.3" style="enable-background:new 0 0 180 182.3;" xml:space="preserve">
<style type="text/css">
	.st0{fill:#FDBB37;}
	.st1{fill:#0092A6;}
	.st2{fill:#FFFFFF;}
	.st3{fill:#E61E25;}
	.st4{fill:#EF3E37;}
	.st5{fill:none;stroke:#000000;stroke-linecap:round;stroke-miterlimit:10;}
	.st6{fill:#010101;}
	.st7{fill:#FFD386;}
	.st8{fill:#FFF0D9;}
	.st9{fill:#004D59;}
	.st10{fill:#FFFFFF;stroke:#000000;stroke-width:0.5;stroke-miterlimit:10;}
</style>
<path class="st1" d="M180,99.7c0.3,6.3-10.7,9.1-24,10.1c0,0,0,0,0,0c-20.6,1.6-47-1-47-1s9.3,31.7,11.1,53.5
	c0.8,10.3-0.1,18.4-4.5,19.8c-4.2,1.3-9.4-4.6-14.4-13.4c-11.4-19.8-22.5-54.4-22.5-54.4c-6.5,10.9-25.2,25.2-40.3,32.5
	c-9.5,4.6-17.6,6.5-20.1,3c-1.4-1.9-0.4-5.7,2.2-10.3C29.7,122.7,59,93.4,59,93.4S32,81.2,14.6,69.3C6.2,63.6,0,58,0,53.9
	c0-4.1,7.8-3.8,18.4-1.6C40.8,57,75.9,70.7,75.9,70.7s11.6-34.5,22.9-55.3c0,0,0,0,0,0c5.1-9.5,10.1-16.2,13.9-15.3
	c4.3,1,4.6,11,3.3,23.6v0.1c-2.4,22.8-10.3,53.7-10.3,53.7s31.3,2.6,53.3,8.9h0C170.7,89.6,179.8,94.1,180,99.7z"/>
<path class="st9" d="M14.6,69.3C6.2,63.6,0,58,0,53.9c0-4.1,7.8-3.8,18.4-1.6C5.2,50.6,3.4,60,14.6,69.3z"/>
<path class="st9" d="M38.2,146.9c-9.5,4.6-17.6,6.5-20.1,3c-1.4-1.9-0.4-5.7,2.2-10.3C19.3,146.3,25.4,151.2,38.2,146.9z"/>
<path class="st9" d="M115.4,182.1c-4.2,1.3-9.4-4.6-14.4-13.4c6.6,6,19.8,4.7,18.9-6.5c0,0,0,0,0.1,0.1
	C120.8,172.6,119.9,180.7,115.4,182.1z"/>
<path class="st9" d="M180,99.7c0.3,6.3-10.7,9.1-24,10.1c15-3.1,13.3-17.7,3-23.5C170.7,89.6,179.8,94.1,180,99.7z"/>
<path class="st9" d="M115.9,23.6c0-8.5-9.6-16.4-17.2-8.3c5.1-9.5,10.1-16.2,13.9-15.3C116.9,1.1,117.3,11.1,115.9,23.6z"/>
<path class="st0" d="M81.6,104c-8.2,13.8-44,38.9-49.2,31.9c-5.2-7,36.9-44.1,36.9-44.1S18.4,71.4,18.4,61.5
	c0-9.9,61.2,16.2,61.2,16.2s16.9-60.1,26.2-58c9.3,2.2-7.1,64.3-7.1,64.3s58.9,0.5,59.4,13c0.5,12.5-56.9,5.5-56.9,5.5
	s17.5,55.2,6.8,58.5S81.6,104,81.6,104z"/>
<path class="st9" d="M83,92.5c-1.9,3.2-10.4,9.2-11.6,7.5c-1.2-1.6,8.7-10.4,8.7-10.4s-12-4.8-12-7.1c0-2.3,14.4,3.8,14.4,3.8
	s4-14.2,6.2-13.6S87,87.8,87,87.8s13.9,0.1,14,3.1c0.1,2.9-13.4,1.3-13.4,1.3s4.1,13,1.6,13.8C86.7,106.7,83,92.5,83,92.5z"/>
<path class="st1" d="M83.3,91.5c-1.3,2.2-7,6.2-7.8,5.1c-0.8-1.1,5.9-7,5.9-7s-8.1-3.3-8.1-4.8c0-1.6,9.7,2.6,9.7,2.6
	s2.7-9.5,4.2-9.2c1.5,0.3-1.1,10.2-1.1,10.2s9.3,0.1,9.4,2.1c0.1,2-9,0.9-9,0.9s2.8,8.8,1.1,9.3C85.8,101.1,83.3,91.5,83.3,91.5z"/>
</svg>
