<?xml version="1.0" encoding="utf-8"?>
<!-- Generator: Adobe Illustrator 25.2.1, SVG Export Plug-In . SVG Version: 6.00 Build 0)  -->
<svg version="1.1" id="Layer_1" xmlns="http://www.w3.org/2000/svg" xmlns:xlink="http://www.w3.org/1999/xlink" x="0px" y="0px"
	 viewBox="0 0 180 191" style="enable-background:new 0 0 180 191;" xml:space="preserve">
<style type="text/css">
	.st0{fill:#FDBB37;}
	.st1{fill:#0092A6;}
	.st2{fill:#FFFFFF;}
	.st3{fill:#E61E25;}
	.st4{fill:#EF3E37;}
	.st5{fill:none;stroke:#000000;stroke-linecap:round;stroke-miterlimit:10;}
	.st6{fill:#010101;}
	.st7{fill:#FFD386;}
	.st8{fill:#FFF0D9;}
	.st9{fill:#004D59;}
	.st10{fill:#FFFFFF;stroke:#000000;stroke-width:0.5;stroke-miterlimit:10;}
</style>
<g>
	<g>
		<path class="st4" d="M174.8,142c-5.5-3.4-11.5-9.4-15.2-20.4c-1.4-4.2-2.7-8.4-4.1-12.5c0,0,0,0,0,0c0-0.1-0.1-0.3-0.1-0.4
			c-0.5-1.5-1-3.1-1.6-4.6c-0.1-0.2-0.2-0.5-0.3-0.7c-0.6-1.8-1.3-3.6-1.9-5.3c0,0,0-0.1,0-0.1c0,0,0,0,0,0
			c-2-5.3-4.1-10.5-6.4-15.6c0,0,0,0,0,0c-0.1-0.2-0.2-0.3-0.2-0.5c-0.5-1.2-1.1-2.3-1.7-3.5c-0.2-0.4-0.4-0.8-0.6-1.2
			c-0.8-1.5-1.6-3-2.4-4.4c0,0,0-0.1-0.1-0.1c-0.9-1.6-1.8-3.1-2.8-4.7c0,0,0-0.1-0.1-0.1c-0.9-1.4-1.8-2.9-2.8-4.3
			c-0.1-0.1-0.1-0.2-0.2-0.3c0,0,0,0,0,0c-2.6-3.7-5.4-7.4-8.6-10.9c-0.7-0.8-1.5-1.6-2.2-2.4c0,0,0,0,0,0c-0.1-0.1-0.3-0.3-0.4-0.5
			c-0.6-0.6-1.2-1.3-1.8-1.9c-0.5-0.5-1-1-1.5-1.6c-0.6-0.6-1.3-1.3-1.9-1.9c-0.5-0.6-1.1-1.1-1.7-1.6c-0.6-0.6-1.3-1.2-1.9-1.9
			c-0.6-0.6-1.2-1.2-1.8-1.7c-0.6-0.6-1.2-1.2-1.9-1.7c-0.7-0.6-1.3-1.2-2-1.8c-0.6-0.5-1.2-1.1-1.8-1.6c-0.7-0.6-1.4-1.3-2.2-1.9
			c-0.5-0.5-1.1-0.9-1.6-1.4c-0.8-0.7-1.6-1.4-2.5-2c-0.4-0.4-0.9-0.7-1.3-1.1c-1.2-1-2.5-2-3.7-2.9c-0.8-0.6-1.5-1.1-2.3-1.7l0,0
			c-6.7-5-13.5-9.8-20.5-14.3c-1.1-0.7-2.6-1.9-4.3-3.1c0,0,0,0-0.1,0c-0.3-0.2-0.6-0.4-0.9-0.6c0,0-0.1,0-0.1-0.1
			c-0.3-0.2-0.6-0.4-0.9-0.6c-0.1,0-0.1-0.1-0.2-0.1c-0.3-0.2-0.6-0.4-1-0.6c0,0,0,0,0,0c-0.3-0.2-0.6-0.4-1-0.6
			c-0.1,0-0.1-0.1-0.2-0.1c-0.3-0.2-0.6-0.4-1-0.5c0,0-0.1,0-0.1-0.1c-0.3-0.2-0.6-0.3-0.9-0.4c-0.1,0-0.1-0.1-0.2-0.1
			c-0.3-0.1-0.6-0.3-1-0.4c-0.1,0-0.1-0.1-0.2-0.1c-0.3-0.1-0.6-0.2-0.9-0.3c0,0-0.1,0-0.1,0c-0.3-0.1-0.6-0.2-0.9-0.2
			c-0.1,0-0.1,0-0.2,0C58.4,0.1,58.1,0,57.8,0c0,0-0.1,0-0.1,0c-0.3,0-0.6,0-0.8,0c-0.1,0-0.1,0-0.2,0c-0.3,0-0.6,0.1-0.9,0.1
			c-0.1,0-0.1,0-0.2,0c-0.3,0.1-0.5,0.2-0.7,0.3c0,0-0.1,0-0.1,0.1C54.5,0.6,54.2,0.8,54,1c-0.1,0-0.1,0.1-0.2,0.1
			c-0.3,0.2-0.5,0.4-0.7,0.6c-0.7,0.8-1.2,1.7-1.5,2.8c-0.2,0.7-0.3,1.4-0.3,2.1c0,1.1,0.2,2.2,0.6,3.2c1,2.7,2.8,5,4.5,7.3
			c3.7,5.2,6.7,10.9,8.8,16.9c1.1,3,1.9,6.1,2.6,9.2c0.6,3.1,1.1,6.3,1.3,9.5c0,0.5,0.1,1,0.1,1.5c0.3,5,0.8,12-1.7,16.1
			c-0.1,0.2-0.2,0.4-0.4,0.6c-2.5,3.4-7.9,5.6-12.7,7.1c-1.8,0.6-3.5,1-5,1.4c0,0-0.1,0-0.1,0c0,0,0,0,0,0c-0.3,0.1-0.6,0.2-0.9,0.2
			c-0.1,0-0.2,0-0.3,0.1c-0.2,0.1-0.4,0.1-0.7,0.1c-0.1,0-0.2,0-0.3,0.1c-0.2,0-0.5,0.1-0.7,0.1c-0.1,0-0.2,0-0.3,0
			c-0.3,0-0.6,0.1-1,0.1c-0.8,0-1.6,0-2.4-0.2c-3.4-0.9-5.6-4.1-7.5-7.1c-1-1.5-2-3.1-3-4.7v0c0,0,0,0,0,0c-2.4-3.7-4.9-7.5-7.5-11
			c0,0,0,0,0,0v0C19.2,50,13.1,43.4,5.4,38.7c14.7,27.2,12.5,62.7-5.4,87.9c5.1-5,10.7-10.2,17.5-11.9v0c0.5-0.1,1.1-0.3,1.7-0.3
			c0,0,0.1,0,0.1,0c0.6-0.1,1.2-0.2,1.8-0.2c0.5,0,0.9,0,1.4,0c0,0,0.1,0,0.1,0c0.4,0,0.9,0,1.3,0.1c2.6,0.2,5.1,0.9,7.6,1.5
			c1.2,0.3,2.4,0.7,3.6,1l0,0c3.9,1.2,7.7,2.7,10.9,4.8c2.7,1.8,5,4.2,6.3,7.2c0.5,1.1,0.9,2.3,1.1,3.5c0.1,0.6,0.2,1.1,0.3,1.7
			c0,0.1,0,0.3,0.1,0.4c0.1,0.7,0.1,1.4,0.1,2.1c0,3.1-0.7,6.3-1.8,9.3c-0.5,1.2-1,2.4-1.7,3.5c-0.3,0.6-0.7,1.1-1,1.7
			c-2.9,4.3-7,7.6-12,8.8c-0.8,0.2-1.9,0.4-3.1,0.5c-0.4,0.1-0.8,0.1-1.2,0.2c-1.6,0.2-3.4,0.5-5.1,1c-3.3,0.9-6.2,2.4-6.5,5.6
			c0,0.2,0,0.4,0,0.6c0,0.1,0,0.1,0,0.2c0,0.1,0,0.3,0.1,0.4c0,0.1,0,0.2,0.1,0.2c0,0.1,0.1,0.2,0.1,0.4c0,0.1,0.1,0.2,0.1,0.2
			c0.1,0.1,0.1,0.2,0.2,0.3c0,0.1,0.1,0.2,0.2,0.2c0.1,0.1,0.2,0.2,0.2,0.3c0.1,0.1,0.1,0.2,0.2,0.2c0.1,0.1,0.2,0.2,0.3,0.3
			c0.1,0.1,0.1,0.1,0.2,0.2c0.1,0.1,0.3,0.2,0.4,0.4c0.1,0.1,0.1,0.1,0.2,0.2c0.2,0.1,0.3,0.3,0.5,0.4c0,0,0.1,0.1,0.1,0.1
			c0.2,0.2,0.5,0.4,0.7,0.5c0,0,0,0,0,0c0.2,0.2,0.5,0.3,0.8,0.5c0.1,0,0.1,0.1,0.2,0.1c0.2,0.1,0.4,0.3,0.6,0.4
			c0.1,0.1,0.2,0.1,0.3,0.1c0.2,0.1,0.4,0.2,0.6,0.4c0.1,0.1,0.2,0.1,0.3,0.1c0.2,0.1,0.4,0.2,0.7,0.4c0.1,0,0.2,0.1,0.3,0.1
			c0.2,0.1,0.5,0.2,0.7,0.4c0.1,0,0.2,0.1,0.2,0.1c0.3,0.1,0.5,0.2,0.8,0.4c0.1,0,0.1,0.1,0.2,0.1c0.3,0.1,0.6,0.3,0.9,0.4
			c0,0,0,0,0,0l0,0c4.3,1.9,8.8,3.4,10.8,4.1c4,1.5,8.1,2.8,12.2,4v0c0,0,0,0,0,0c1.4,0.4,2.8,0.8,4.2,1.2c0.2,0,0.4,0.1,0.5,0.1
			c1.2,0.3,2.4,0.6,3.6,0.9c0.3,0.1,0.6,0.1,0.9,0.2c1.1,0.3,2.2,0.5,3.3,0.7c0.3,0.1,0.7,0.2,1,0.2c1.4,0.3,2.8,0.6,4.3,0.8
			c0.2,0,0.4,0.1,0.6,0.1c0,0,0,0,0,0c7.9,1.4,16.5,2.3,25.1,2.4c0,0,0,0,0,0c0.2,0,0.4,0,0.6,0c1.3,0,2.7,0,4,0c0.3,0,0.6,0,0.9,0
			c1.7,0,3.3-0.1,5-0.2c0.3,0,0.5,0,0.8-0.1c1.4-0.1,2.8-0.2,4.1-0.4c0.4,0,0.8-0.1,1.2-0.1c1.4-0.2,2.7-0.4,4.1-0.6
			c0.2,0,0.4,0,0.6-0.1c0,0,0,0,0,0c2.9-0.5,5.7-1.1,8.4-1.8c0,0,0,0,0,0c0,0,0,0,0,0c1-0.3,2.1-0.6,3.1-0.9
			c0.2-0.1,0.4-0.1,0.7-0.2c1.2-0.4,2.4-0.8,3.6-1.3c0,0,0.1,0,0.1,0c0,0,0,0,0,0c1.3-0.5,2.5-1.1,3.8-1.6c0.3-0.1,0.5-0.2,0.8-0.4
			c1.2-0.6,2.5-1.2,3.7-1.8c0,0,0,0,0,0l0,0c12.2-6.3,23.1-15,32.9-24.5C181,152.7,180.2,145.2,174.8,142z"/>
	</g>
	<g>
		<path d="M100.5,192c-0.5,0-1.1,0-1.6,0l-0.3,0c-0.1,0-0.3,0-0.4,0l-1,0c-7.7-0.2-15.7-1-23.8-2.3l0,0l-1.1-0.2
			c-1.4-0.3-2.9-0.5-4.3-0.8l-1-0.2c-1.1-0.2-2.2-0.5-3.4-0.8l-0.9-0.2c-1.2-0.3-2.4-0.6-3.6-0.9l-0.5-0.1c-1.4-0.4-2.8-0.8-4.2-1.2
			c-4.1-1.2-8.2-2.5-12.3-4c-0.4-0.1-0.9-0.3-1.5-0.5c-2.3-0.8-5.9-2-9.4-3.6c-0.3-0.2-0.7-0.3-1-0.4l-0.1,0
			c-0.4-0.2-0.6-0.3-0.9-0.4l-0.2-0.1c-0.2-0.1-0.5-0.2-0.7-0.4l-0.3-0.1c-0.2-0.1-0.5-0.2-0.7-0.4l-0.3-0.2
			c-0.2-0.1-0.4-0.2-0.6-0.4l-0.3-0.2c-0.2-0.1-0.4-0.3-0.6-0.4l-0.2-0.1c-0.3-0.2-0.5-0.4-0.8-0.5c-0.3-0.2-0.6-0.4-0.8-0.6
			l-0.1-0.1c-0.2-0.2-0.4-0.3-0.6-0.5l-0.2-0.1c-0.2-0.2-0.3-0.3-0.5-0.5l-0.2-0.2c-0.2-0.2-0.3-0.3-0.4-0.5
			c-0.1-0.1-0.1-0.2-0.2-0.3c-0.1-0.1-0.2-0.3-0.3-0.4c-0.1-0.1-0.1-0.2-0.2-0.3c-0.1-0.1-0.2-0.3-0.2-0.4c-0.1-0.1-0.1-0.2-0.1-0.3
			c-0.1-0.2-0.1-0.3-0.2-0.5c0-0.1-0.1-0.2-0.1-0.3c0-0.2-0.1-0.3-0.1-0.5c0-0.1,0-0.2,0-0.3c0-0.3,0-0.5,0-0.8
			c0.3-3.1,2.7-5.2,7.3-6.4c1.7-0.5,3.5-0.8,5.2-1l1.2-0.2c1.2-0.2,2.2-0.3,3-0.5c4.4-1.1,8.5-4,11.4-8.4c0.3-0.5,0.7-1,1-1.6
			c0.6-1.1,1.2-2.2,1.6-3.4c1.1-2.9,1.8-6,1.8-9c0-0.7,0-1.4-0.1-2l0-0.4c-0.1-0.6-0.1-1.2-0.2-1.6c-0.2-1.2-0.6-2.3-1-3.3
			c-1.2-2.6-3.1-4.9-6-6.8c-2.7-1.8-6.1-3.3-10.7-4.7c-1.2-0.4-2.4-0.7-3.6-1c-2.6-0.7-5-1.3-7.4-1.5c-0.4,0-0.9-0.1-1.3-0.1
			c-0.5,0-1,0-1.4,0c-0.5,0-1.1,0.1-1.7,0.2l-0.1,0c-0.5,0.1-1.1,0.2-1.6,0.3c-6.4,1.6-11.9,6.6-17,11.6l-1.5-1.3
			c17.8-25,19.9-59.9,5.3-86.9l-1.8-3.2l3.2,1.9C12.8,42,19,48,25.5,56.7c2.3,3.1,4.6,6.5,7.5,11l0.2,0.2V68c0.9,1.5,1.9,3,2.8,4.4
			c1.9,2.9,3.9,5.9,6.9,6.6c0.7,0.2,1.4,0.2,2.1,0.2c0.3,0,0.6,0,0.9-0.1l0.2,0c0.3,0,0.5-0.1,0.7-0.1l0.3-0.1
			c0.2,0,0.4-0.1,0.6-0.1l0.3-0.1c0.3-0.1,0.6-0.1,0.8-0.2l0.1,0c1.6-0.4,3.2-0.9,4.9-1.4c6.3-2,10.3-4.2,12.2-6.8
			c0.1-0.1,0.2-0.2,0.2-0.4l0.1-0.1c2.4-3.9,1.9-11.2,1.6-15.5L68,52.8c-0.2-3.1-0.6-6.3-1.3-9.3c-0.6-3.1-1.5-6.1-2.5-9.1
			c-2.1-6-5-11.6-8.7-16.7c-0.3-0.4-0.5-0.7-0.8-1c-1.5-2-3-4.1-3.9-6.5c-0.4-1.1-0.6-2.4-0.6-3.5c0-0.8,0.1-1.6,0.3-2.4
			C50.9,3,51.5,1.9,52.4,1c0.3-0.3,0.5-0.5,0.9-0.7c0.1-0.1,0.2-0.1,0.2-0.2c0.3-0.2,0.6-0.4,0.9-0.5l0.1-0.1
			c0.3-0.1,0.6-0.2,0.9-0.3l0.2-0.1c0.3-0.1,0.7-0.1,1-0.2l0.2,0c0.4,0,0.7,0,1,0l0.1,0c0.3,0,0.7,0.1,1,0.1l0.3,0
			c0.3,0.1,0.7,0.1,1,0.2l0.1,0c0.3,0.1,0.6,0.2,0.9,0.3l0.2,0.1c0.3,0.1,0.7,0.3,1,0.4l0.2,0.1c0.3,0.1,0.6,0.3,0.9,0.4l0.1,0.1
			c0.3,0.2,0.7,0.4,1,0.6L65,1.6c0.3,0.2,0.7,0.4,1,0.6c0.3,0.2,0.7,0.4,1,0.6l-0.5,0.9L67,2.9L67.1,3c0.3,0.2,0.6,0.4,1,0.6v0
			l0.1,0.1c0.3,0.2,0.6,0.4,0.9,0.6c0.6,0.5,1.2,0.9,1.7,1.2c1,0.8,1.9,1.4,2.6,1.9c6.5,4.2,13.2,8.9,20.6,14.4l0.9,0.7
			c0.5,0.3,0.9,0.7,1.4,1c1.2,0.9,2.4,1.8,3.7,2.9c0.3,0.2,0.5,0.4,0.8,0.6l0.5,0.4c0.8,0.7,1.6,1.4,2.5,2c0.4,0.3,0.7,0.6,1.1,0.9
			l0.7,0.6c0.7,0.6,1.4,1.2,2,1.8c0.5,0.5,1,0.9,1.5,1.4l0.3,0.2c0.7,0.6,1.3,1.2,2,1.8c0.6,0.6,1.2,1.2,1.9,1.7
			c0.6,0.6,1.2,1.2,1.8,1.7c0.6,0.6,1.3,1.2,1.9,1.9c0.6,0.6,1.1,1.1,1.7,1.7c0.6,0.6,1.3,1.3,1.9,1.9c0.5,0.5,1,1,1.5,1.6
			c0.6,0.7,1.2,1.3,1.8,2l1.1,1.2l0,0c0.5,0.6,1.1,1.2,1.6,1.7c2.8,3.1,5.3,6.3,7.8,9.8l0,0l1,1.5c1,1.5,2,2.9,2.8,4.3l0.1,0.1
			c1,1.5,1.9,3.1,2.8,4.7l0.1,0.1c0.8,1.4,1.6,2.9,2.4,4.5c0.1,0.2,0.2,0.5,0.4,0.7l0.2,0.5c0.6,1.2,1.2,2.3,1.7,3.5l0.7,1.4l0,0
			c1.9,4.1,3.7,8.5,5.5,13.3l0,0l0.6,1.6c0.6,1.8,1.3,3.5,1.9,5.3l0.3,0.7c0.5,1.5,1.1,3.1,1.6,4.6l0.3,1l0,0c1,3.1,2.1,6.2,3.1,9.4
			l0.8,2.5c3,9,7.9,15.7,14.7,19.9l0,0c2.8,1.7,4.7,4.6,5,7.9c0.4,3.3-0.8,6.5-3.2,8.8c-11.5,11-22.3,19-33,24.5l-0.2,0.2h-0.2
			c-1.1,0.5-2.2,1.1-3.5,1.7l-0.8,0.4c-1.4,0.6-2.6,1.2-3.8,1.6l-0.2,0.1c-1.2,0.5-2.4,0.9-3.6,1.3c-0.1,0-0.3,0.1-0.4,0.1l-0.3,0.1
			c-0.9,0.3-2,0.6-3.1,0.9l-0.1,0c-2.4,0.7-5,1.2-7.6,1.7v0l-0.8,0.1c-0.1,0-0.2,0-0.3,0l-0.2,0c-1.3,0.2-2.7,0.4-4.1,0.6
			c-0.4,0-0.8,0.1-1.2,0.1c-1.4,0.2-2.8,0.3-4.2,0.4l-0.8,0.1c-1.7,0.1-3.3,0.2-5,0.2l-0.9,0C102.1,192,101.3,192,100.5,192z
			 M98.9,190c1.3,0,2.7,0,4,0l0.9,0c1.6,0,3.3-0.1,4.9-0.2l0.8-0.1c1.3-0.1,2.7-0.2,4.1-0.4c0.4,0,0.8-0.1,1.2-0.1
			c1.4-0.2,2.7-0.4,4-0.6c0.1,0,0.2,0,0.3,0l0.3-0.1c3-0.5,5.8-1.1,8.3-1.8l0.1,0c1.1-0.3,2.2-0.6,3-0.9l0.3-0.1
			c0.1,0,0.2-0.1,0.3-0.1c1.2-0.4,2.4-0.8,3.5-1.3l0,0l0.1,0c1.1-0.4,2.3-0.9,3.8-1.6l0.8-0.4c1.3-0.6,2.5-1.2,3.6-1.8l0.1-0.1
			c10.5-5.4,21.2-13.3,32.6-24.2c1.9-1.9,2.9-4.4,2.6-7.1c-0.3-2.7-1.8-5-4.1-6.4l0,0c-7.2-4.4-12.5-11.5-15.6-21l-0.8-2.5
			c-1.1-3.4-2.2-6.7-3.3-10l-0.3-0.9c-0.5-1.4-0.9-2.8-1.4-4.1l-0.3-0.7c-0.6-1.7-1.2-3.3-1.8-5l-0.2-0.5
			c-2.1-5.7-4.2-10.8-6.4-15.5l-0.3-0.7l0,0c-0.5-1.1-1-2.1-1.6-3.2l-0.2-0.5c-0.1-0.2-0.2-0.5-0.3-0.7c-0.8-1.6-1.6-3-2.4-4.4
			l0.8-0.6l-0.9,0.5c-0.9-1.6-1.8-3.1-2.8-4.6l0.8-0.6l-0.8,0.5c-0.8-1.3-1.7-2.6-2.6-3.9l-0.4-0.6c-2.7-3.9-5.5-7.4-8.5-10.8
			c-0.6-0.7-1.2-1.4-1.9-2.1l-1-1.1c-0.5-0.6-1.1-1.1-1.6-1.7c-0.5-0.5-1-1-1.5-1.6c-0.6-0.6-1.3-1.3-1.9-1.9
			c-0.5-0.5-1.1-1.1-1.6-1.6c-0.6-0.6-1.3-1.2-1.9-1.8c-0.6-0.6-1.2-1.2-1.8-1.7c-0.6-0.6-1.2-1.2-1.8-1.7c-0.7-0.6-1.3-1.2-2-1.8
			l-0.3-0.2c-0.5-0.5-1-0.9-1.5-1.4c-0.7-0.6-1.3-1.2-2-1.8l-0.7-0.6c-0.4-0.3-0.7-0.6-1.1-0.9c-0.8-0.7-1.6-1.4-2.4-2l-0.5-0.5
			c-0.3-0.2-0.5-0.4-0.8-0.6c-1.3-1-2.5-2-3.7-2.9c-0.5-0.3-0.9-0.7-1.4-1l-0.9-0.7C85.5,18,78.8,13.3,72.3,9.1
			c-0.8-0.5-1.7-1.2-2.7-1.9C69.1,6.8,68.5,6.4,68,6c-0.3-0.2-0.6-0.5-1-0.7l0.5-0.9l-0.6,0.8c-0.3-0.2-0.6-0.4-0.9-0.6l-0.2-0.1
			c-0.3-0.2-0.6-0.4-0.9-0.6c-0.3-0.2-0.6-0.4-0.9-0.6l-0.2-0.1c-0.3-0.2-0.6-0.4-0.9-0.5l0.3-1l-0.5,0.9c-0.3-0.1-0.6-0.3-0.8-0.4
			l-0.2-0.1C61.3,2,61,1.9,60.7,1.8l-0.1-0.1c-0.3-0.1-0.6-0.2-0.9-0.3l0.2-1l-0.3,1c-0.3-0.1-0.6-0.2-0.9-0.2l-0.2,0
			C58.3,1.1,58,1,57.7,1c-0.3,0-0.6,0-0.8,0l-0.2,0c-0.2,0-0.5,0.1-0.7,0.1l-0.1,0c-0.2,0.1-0.4,0.1-0.6,0.2l-0.5-0.9l0.4,0.9
			c-0.2,0.1-0.4,0.2-0.6,0.4l-0.1,0.1c-0.3,0.2-0.5,0.4-0.7,0.6c-0.6,0.6-1,1.4-1.3,2.3c-0.2,0.6-0.2,1.2-0.2,1.9c0,1,0.2,2,0.5,2.9
			c0.8,2.2,2.1,4,3.6,6c0.3,0.4,0.5,0.7,0.8,1.1c3.7,5.2,6.7,11,8.9,17.2c1.1,3,1.9,6.2,2.6,9.3c0.6,3.2,1.1,6.4,1.3,9.6l0.1,1.5
			c0.3,4.9,0.8,12.3-1.9,16.7L68.1,71c-0.1,0.2-0.2,0.4-0.3,0.5c-2.2,3-6.5,5.4-13.2,7.5c-1.8,0.5-3.4,1-5,1.4l-0.1,0
			c-0.3,0.1-0.6,0.2-0.9,0.2l-0.3,0.1c-0.2,0.1-0.5,0.1-0.7,0.2L47.3,81c-0.3,0-0.5,0.1-0.7,0.1l-0.3,0c-0.4,0-0.7,0.1-1,0.1
			c-1,0-1.9,0-2.7-0.2c-3.7-0.9-6.1-4.2-8.1-7.5c-1-1.5-2-3.1-3-4.7l-0.2-0.2c-2.8-4.4-5.1-7.7-7.4-10.7C18.6,50.7,13.4,45.5,8,41.6
			c11.9,24.8,10.6,55.2-3,79c3.7-3.1,7.7-5.8,12.2-6.9c0.6-0.1,1.1-0.3,1.7-0.4l0.2,0c0.6-0.1,1.2-0.2,1.9-0.2c0.5,0,1,0,1.5,0
			c0.6,0,1,0,1.5,0.1c2.6,0.2,5,0.9,7.8,1.6c1.2,0.3,2.4,0.7,3.6,1c4.8,1.4,8.3,3,11.2,5c3.2,2.1,5.3,4.6,6.7,7.6
			c0.5,1.1,0.9,2.4,1.2,3.8c0.1,0.5,0.2,1.1,0.3,1.8l0,0.1c0,0.1,0,0.2,0,0.3c0.1,0.7,0.1,1.5,0.1,2.2c0,3.2-0.7,6.6-1.9,9.7
			c-0.5,1.3-1.1,2.5-1.7,3.6c-0.3,0.6-0.7,1.2-1.1,1.7c-3.2,4.8-7.7,8.1-12.6,9.3c-0.9,0.2-2,0.4-3.2,0.5l-1.2,0.2
			c-1.6,0.2-3.4,0.5-5,0.9c-3.7,1-5.5,2.5-5.8,4.7c0,0.1,0,0.3,0,0.4l0,0.1c0,0.1,0,0.2,0,0.3l0.1,0.2c0,0.1,0.1,0.2,0.1,0.3
			l0.1,0.1c0.1,0.2,0.1,0.2,0.2,0.3l0.1,0.2c0.1,0.1,0.1,0.2,0.2,0.3c0.1,0.1,0.1,0.1,0.2,0.2c0.1,0.1,0.2,0.2,0.3,0.3l0.2,0.2
			c0.1,0.1,0.2,0.2,0.3,0.3l0.2,0.2c0.2,0.1,0.3,0.3,0.5,0.4l-0.5,0.9l0.6-0.8c0.2,0.2,0.5,0.3,0.7,0.5c0.3,0.2,0.5,0.3,0.7,0.5
			l0.2,0.1c0.2,0.1,0.4,0.2,0.6,0.4l0.2,0.1c0.2,0.1,0.4,0.2,0.6,0.4l0.3,0.1c0.2,0.1,0.4,0.2,0.6,0.3l0.3,0.1
			c0.2,0.1,0.5,0.2,0.7,0.3l0.2,0.1c0.3,0.1,0.5,0.2,0.8,0.4l0.1,0c0.4,0.2,0.7,0.3,1,0.5c3.4,1.5,6.9,2.7,9.2,3.5
			c0.6,0.2,1.1,0.4,1.5,0.5c4,1.5,8.1,2.8,12.2,4c1.4,0.4,2.8,0.8,4.1,1.2l0.5,0.1c1.2,0.3,2.4,0.6,3.6,0.9l0.9,0.2
			c1.1,0.3,2.2,0.5,3.3,0.7l1,0.2c1.4,0.3,2.8,0.6,4.2,0.8l0.1,0l0,0l0.5,0.1c8.5,1.5,16.9,2.3,25,2.4L98.9,190z"/>
	</g>
</g>
<g>
	<g>
		<path class="st0" d="M177,157.1c4.6-4.3,3.7-11.8-1.6-15.1c-5.5-3.4-11.5-9.4-15.2-20.4c-8.4-25.5-15.5-48.8-33.8-69.2
			c-8.4-9.4-20.1-20.4-30.1-28c-7.4-5.6-15-11-22.8-16C69,5.4,59-3.8,53.7,1.7c-2,2.1-2.1,5.4-1.2,8.1c1,2.7,2.8,5,4.5,7.3
			C64.4,27.5,68.8,40,69.6,52.8c0.3,5.1,1.2,13.8-2,18.2c-3.5,4.8-12.4,7.2-17.8,8.6c-2.1,0.6-4.4,1.1-6.5,0.5
			c-3.4-0.9-5.6-4.1-7.5-7.1C27.6,60.1,19,46.6,6,38.7c14.7,27.2,12.5,62.7-5.4,87.9c6-5.8,12.7-12,21-12.4c3.5-0.2,7,0.7,10.4,1.6
			c8.2,2.2,17.4,5.3,20.9,13.1c1.1,2.4,1.5,5.1,1.5,7.8c-0.1,10-6.5,21-16.6,23.4c-4.5,1.1-15.2,1-15.9,7.3
			c-0.7,6.1,16.5,11.4,21.1,13.1c9.8,3.5,19.8,6.4,30.1,8.2c19.7,3.5,43.9,4.3,62.8-3.2C151.5,179.1,165,168.6,177,157.1z"/>
	</g>
</g>
<g>
	<g>
		<path class="st4" d="M75.3,123.9c7.9-27.4,4.4-56.8-1.3-84.8c-2.2-10.9-4.7-22.3-3.9-33.2c-5-3.6-12.1-8.5-16.4-4.1
			c-2,2.1-2.1,5.4-1.2,8.1c1,2.7,2.8,5,4.5,7.3C64.4,27.5,68.8,40,69.6,52.8c0.3,4.9,1.1,13.1-1.6,17.6c0.2,0.6,0.3,1.2,0.4,1.8
			c1,5.5,0.1,11-0.9,16.5c-2.6,14.9-6.1,30.5-13.5,43.5c0.3,1.4,0.4,2.9,0.4,4.4c-0.1,10-6.5,21-16.6,23.4c-4.5,1.1-15.2,1-15.9,7.3
			c-0.4,3.4,4.8,6.6,10.3,9C53.1,167.1,68.8,146.3,75.3,123.9z"/>
	</g>
	<g>
		<path class="st4" d="M100.4,111.2c4.6-21.6,10.6-43.9,23.8-61.3c-8.2-8.8-18.7-18.6-27.9-25.5c-0.8-0.6-1.5-1.1-2.3-1.7
			c2.4,9.9,3,20.2,3.2,30.4c0.4,18.8-0.2,37.8-5.1,56c-7.1,26.2-22.6,49.2-35.7,73c-0.4,0.7-0.8,1.5-1.2,2.2
			c5.9,1.7,11.8,3.1,17.8,4.2c0.2,0,0.4,0.1,0.6,0.1c1.6-2.1,3.1-4.2,4.4-6.4C91.1,160.9,95.3,135.6,100.4,111.2z"/>
	</g>
	<g>
		<path class="st4" d="M154.6,110c0.5-0.4,1-0.7,1.5-1c-1.3-3.8-2.6-7.5-3.9-11.2c-2.3,1.8-4.7,3.7-6.7,5.6
			c-8.9,8.1-14.3,19.4-17,31.1c-2.7,11.7-2.8,23.8-2.4,35.9c0.2,5.9,0.6,11.8,2.4,17.4c2.5-0.7,5-1.5,7.4-2.4
			c2.8-1.1,5.6-2.4,8.3-3.8c-1.7-3.8-3.7-7.6-5.2-11.3C130.4,149.5,136.5,123.1,154.6,110z"/>
	</g>
	<g>
		<path class="st4" d="M18.1,114.7c1.2-0.3,2.3-0.5,3.6-0.6c0.9,0,1.9,0,2.8,0.1c5.9-13.2,6.9-28.9,8.1-43.6
			c0.1-0.8,0.1-1.5,0.2-2.3c-2.4-3.7-4.9-7.5-7.6-11c0.2,1.7,0.3,3.5,0.5,5.2C27.1,80.2,25.8,98.7,18.1,114.7z"/>
	</g>
	<g>
		<path class="st4" d="M119.3,184.1c-3.3-21-5.6-42.8-0.1-63.4c4.1-15.4,13.5-30,26.6-38.5c-3-6.5-6.5-12.9-10.8-19
			c-2.6,2.6-5.4,5.1-7.8,7.8c-7.4,8.6-10.7,19.8-13.8,30.7c-8.2,28.9-16.5,58.5-14.7,88.5c0,0.2,0,0.5,0.1,0.7
			c7.1,0.1,14.3-0.3,21.2-1.5C119.9,187.7,119.6,185.9,119.3,184.1z"/>
	</g>
	<g>
		<path class="st4" d="M46.6,121.6c3.6-6.4,5.6-13.9,6.5-21.2c0.9-7.4,1.1-14.9,1.9-22.4c-1.8,0.6-3.6,1.1-5.1,1.4
			c-1.3,0.4-2.7,0.7-4.1,0.8c-0.5,6.9-2.4,13.8-4.7,20.4c-1.8,5.3-3.8,10.7-5.4,16.1C39.5,117.9,43.4,119.4,46.6,121.6z"/>
	</g>
</g>
<g>
	<g>
		
			<ellipse transform="matrix(0.1428 -0.9897 0.9897 0.1428 7.4505 287.2264)" class="st2" cx="169.5" cy="139.3" rx="10.7" ry="9.8"/>
		<path d="M169.3,150.3c-0.4,0-0.9,0-1.3-0.1c-2.7-0.4-5-1.9-6.6-4.2c-1.6-2.3-2.2-5.2-1.8-8.1c0.4-2.9,1.8-5.5,4-7.3
			c2.2-1.8,4.9-2.6,7.5-2.2c2.7,0.4,5,1.9,6.6,4.2c1.6,2.3,2.2,5.2,1.8,8.1l-0.2,0l0.2,0C178.7,146.3,174.3,150.3,169.3,150.3z
			 M169.8,128.8c-2.1,0-4.1,0.7-5.9,2.2c-2.1,1.7-3.4,4.2-3.8,6.9c-0.4,2.8,0.2,5.5,1.7,7.7c1.5,2.2,3.7,3.6,6.3,4
			c5.2,0.7,10.2-3.3,11-9l0,0c0.4-2.8-0.2-5.5-1.7-7.7c-1.5-2.2-3.7-3.6-6.3-4C170.6,128.9,170.2,128.8,169.8,128.8z"/>
	</g>
	<g>
		<ellipse transform="matrix(0.1428 -0.9897 0.9897 0.1428 3.8206 286.8318)" cx="167.5" cy="141.2" rx="4.9" ry="4.5"/>
	</g>
	<g>
		
			<ellipse transform="matrix(0.1428 -0.9897 0.9897 0.1428 -4.5496 268.5224)" class="st2" cx="152.8" cy="136.9" rx="10.7" ry="9.8"/>
		<path d="M152.5,147.9c-0.4,0-0.9,0-1.3-0.1c-2.7-0.4-5-1.9-6.6-4.2c-1.6-2.3-2.2-5.2-1.8-8.1c0.4-2.9,1.8-5.5,4-7.3
			c2.2-1.8,4.9-2.6,7.5-2.2c2.7,0.4,5,1.9,6.6,4.2c1.6,2.3,2.2,5.2,1.8,8.1l0,0C161.9,143.8,157.5,147.9,152.5,147.9z M153,126.4
			c-2.1,0-4.1,0.7-5.9,2.2c-2.1,1.7-3.4,4.2-3.8,6.9c-0.4,2.8,0.2,5.5,1.7,7.7c1.5,2.2,3.7,3.6,6.3,4c5.2,0.7,10.2-3.3,11-9
			c0.4-2.8-0.2-5.5-1.7-7.7c-1.5-2.2-3.7-3.6-6.3-4C153.8,126.4,153.4,126.4,153,126.4z"/>
	</g>
	<g>
		<ellipse transform="matrix(0.1428 -0.9897 0.9897 0.1428 -8.1796 268.1278)" cx="150.7" cy="138.8" rx="4.9" ry="4.5"/>
	</g>
</g>
<g>
	<path d="M155.5,159.1c-8.7,0-10.1-5.9-10.1-5.9c0-0.2,0.1-0.4,0.3-0.4c0.2,0,0.4,0.1,0.5,0.3c0.1,0.2,1.4,5.6,10,5.4c0,0,0,0,0,0
		c0.2,0,0.4,0.2,0.4,0.4c0,0.2-0.2,0.4-0.4,0.4C155.9,159.1,155.7,159.1,155.5,159.1z"/>
</g>
</svg>
