<?xml version="1.0" encoding="utf-8"?>
<!-- Generator: Adobe Illustrator 25.2.1, SVG Export Plug-In . SVG Version: 6.00 Build 0)  -->
<svg version="1.1" id="Layer_1" xmlns="http://www.w3.org/2000/svg" xmlns:xlink="http://www.w3.org/1999/xlink" x="0px" y="0px"
	 viewBox="0 0 180 178.5" style="enable-background:new 0 0 180 178.5;" xml:space="preserve">
<style type="text/css">
	.st0{fill:#FDBB37;}
	.st1{fill:#0092A6;}
	.st2{fill:#FFFFFF;}
	.st3{fill:#E61E25;}
	.st4{fill:#EF3E37;}
	.st5{fill:none;stroke:#000000;stroke-linecap:round;stroke-miterlimit:10;}
	.st6{fill:#010101;}
	.st7{fill:#FFD386;}
	.st8{fill:#FFF0D9;}
	.st9{fill:#004D59;}
	.st10{fill:#FFFFFF;stroke:#000000;stroke-width:0.5;stroke-miterlimit:10;}
</style>
<path class="st6" d="M146.7,67.3c17.2-7.7,33.3-9.6,33.3-9.6c-16.5-6.7-30.7-7.2-42.2-5c-6.3-6.9-14.8-11.8-25.7-16.6
	C115.2,15.9,124.2,0,124.2,0c-21,4.5-33,19.2-37.9,27.4c-1.2,0-2.4-0.3-3.2-0.5c-1.5-0.2-3-0.6-4.5-0.7c-3.8-0.3-7.9,0.3-11.8,0.4
	c-0.8,0-1.5,0.1-2.3-0.2c-0.7-0.2-1.4-0.7-2-1.1c-3.5-2.2-8.1-2-11.8-0.4c-3.9,1.7-6.3,4.5-9.2,7.4c-2.6,2.6-6.8,3.7-10,5.6
	c-4.5,2.8-8.9,5.9-13.1,9.3c-1.9,1.5-3.8,3.1-5.6,4.8c-3.9,3.5-7.6,7.1-11.1,11c-2.3,2.5-2,6.5,0.7,8.7c0.7,0.5,1.4,1.1,2.1,1.6
	c0.6,0.5,1.3,1,1.9,1.5c0,0,0,0,0,0c0.1,0.1,0.2,0.1,0.3,0.2c1.3,0.9,2.5,1.8,3.7,2.7c0.2,0.1,0.3,0.2,0.5,0.3c0,0,0,0,0,0
	c0.4,0.3,0.8,0.5,1.1,0.8c0,0,0,0,0,0c0.1,0.1,0.2,0.1,0.3,0.2c0.7,0.5,1.4,0.9,2,1.4c0.2,0.1,0.3,0.2,0.5,0.3c0,0,0,0,0,0
	c2,1.3,3.8,2.5,5.6,3.5c0,0,0,0,0,0c0.3,0.2,0.5,0.3,0.8,0.5c0,0,0,0,0,0c1.4,0.8,2.8,1.6,4,2.3c0,0,0,0,0,0
	c0.2,0.1,0.4,0.2,0.6,0.3c0.3,0.2,0.6,0.3,0.9,0.5c0,0,0,0,0,0c0.3,0.1,0.5,0.3,0.8,0.4c0,0,0,0,0,0c0.2,0.1,0.4,0.2,0.6,0.3
	c0,0,0,0,0,0c0.3,0.1,0.5,0.3,0.8,0.4c0,0,0,0,0,0c0.6,0.3,1.2,0.6,1.8,0.9c0,0,0,0,0,0c0.4,0.2,0.8,0.4,1.2,0.5
	c2,0.9,4.2,1.4,6.3,1.5l7.3,5.9l-1-5l8.8,3.1l-1.2-6.2l5.4,2.7l0.2-3.6c0.6,0.8,1.1,1.8,1.3,3.3c0.6,5.7-3.5,12.1,4.2,12.4
	c0.6,0.2,1.1,0.3,1.7,0.5c0.1,0,0.3,0.1,0.4,0.1c0.2,0,0.4,0.1,0.6,0.1c0.6,0.1,1.2,0.2,1.8,0.3c0.1,0,0.3,0.1,0.4,0.1
	c0.1,0,0.1,0,0.2,0c0.6,0.1,1.1,0.2,1.7,0.2c0.1,0,0.2,0,0.3,0c0.2,0,0.3,0,0.5,0.1c0.6,0.1,1.1,0.1,1.7,0.1c0.2,0,0.4,0,0.6,0
	c0.7,0,1.4,0.1,2.1,0.1c0.1,0,0.2,0,0.3,0c0.4,0,0.9,0,1.3,0c0.1,0,0.3,0,0.4,0c0,0,0,0,0,0c-0.8,5.2-1.6,14.1,0.8,21.7
	c0,0,4.8-13,12.2-23.6c0.2,0,0.3-0.1,0.5-0.1c0.3-0.1,0.5-0.1,0.8-0.2c0.8-0.2,1.7-0.4,2.5-0.7c0.1,0,0.2-0.1,0.3-0.1
	c0.7-0.2,1.4-0.4,2.2-0.7c0.3-0.1,0.5-0.2,0.8-0.3c0.5-0.2,1.1-0.4,1.6-0.6c0.1,0,0.3-0.1,0.4-0.1c0.1,0,0.2-0.1,0.4-0.1
	c0.7-0.3,1.5-0.5,2.2-0.8c0.1,0,0.2-0.1,0.2-0.1c0,0,0,0,0.1,0c0.8-0.3,1.6-0.6,2.3-1c0.1,0,0.1-0.1,0.2-0.1
	c0.2-0.1,0.4-0.2,0.6-0.2c0.3-0.1,0.7-0.3,1-0.4c0.3-0.1,0.5-0.2,0.8-0.4c0.3-0.1,0.6-0.3,0.9-0.4c0.3-0.1,0.5-0.2,0.8-0.4
	c0.3-0.1,0.6-0.3,0.9-0.4c0.2-0.1,0.5-0.2,0.7-0.3c0.3-0.1,0.5-0.3,0.8-0.4c0.1-0.1,0.2-0.1,0.3-0.2c4.7-2.4,10.4,0,12,4.9
	c0.1,0.3,0.2,0.6,0.3,1c0,0.2,0.1,0.3,0.1,0.5c0.1,0.5,0.2,1,0.3,1.4c0,0.1,0,0.3,0.1,0.4c0.1,0.4,0.1,0.8,0.2,1.3c0,0,0,0.1,0,0.1
	c0,0.1,0,0.3,0,0.4c0,0.4,0,0.7,0.1,1.1c0,0.2,0,0.3,0,0.5c0,0,0,0,0,0c0,0.4,0,0.8,0,1.2c0,0,0,0.1,0,0.1c0,0.1,0,0.2,0,0.3
	c0,0.5-0.1,1-0.1,1.5c0,0.1,0,0.2,0,0.3c0,0.4-0.1,0.8-0.2,1.2c0,0,0,0.1,0,0.1c0,0.1,0,0.3-0.1,0.4c-0.1,0.4-0.1,0.7-0.2,1.1
	c0,0.2-0.1,0.3-0.1,0.5c-0.1,0.4-0.2,0.8-0.3,1.2c0,0.1-0.1,0.3-0.1,0.4c-0.1,0.4-0.2,0.7-0.3,1.1c0,0.1,0,0.1,0,0.2
	c0,0.1-0.1,0.2-0.1,0.3c-0.1,0.3-0.2,0.7-0.4,1c0,0.1-0.1,0.2-0.1,0.3c0,0.1,0,0.1-0.1,0.2c-0.1,0.3-0.2,0.5-0.3,0.8
	c-0.1,0.2-0.2,0.4-0.3,0.6c-0.1,0.2-0.2,0.5-0.3,0.7c-0.1,0.2-0.2,0.4-0.3,0.6c-0.1,0.2-0.2,0.5-0.3,0.7c-0.1,0.2-0.2,0.4-0.3,0.6
	c-0.2,0.4-0.4,0.7-0.5,1c-0.1,0.2-0.2,0.4-0.3,0.6c-0.1,0.2-0.2,0.4-0.3,0.6c-0.1,0.2-0.2,0.4-0.3,0.5c-0.1,0.2-0.2,0.4-0.3,0.5
	c-0.1,0.2-0.2,0.3-0.3,0.5c-0.1,0.2-0.2,0.3-0.3,0.5c-0.1,0.2-0.2,0.3-0.3,0.5c-0.8,1.3-0.2,0.3-0.3,0.5c-0.1,0.1-0.2,0.3-0.3,0.4
	c-0.1,0.1-0.2,0.3-0.3,0.4c-0.1,0.1-0.2,0.3-0.3,0.4c-0.1,0.1-0.2,0.3-0.3,0.4c-0.1,0.1-0.1,0.2-0.2,0.3c-0.1,0.2-0.2,0.3-0.4,0.5
	c0,0.1-0.1,0.1-0.1,0.2c-0.1,0.2-0.2,0.3-0.3,0.4c0,0.1-0.1,0.1-0.1,0.2c-0.1,0.1-0.1,0.2-0.2,0.2c0,0.1-0.1,0.1-0.1,0.1
	c0,0.1-0.1,0.1-0.1,0.2c0,0-0.1,0.1-0.1,0.1c0.5,1.1-0.2,0.2-0.2,0.2c-16.7-8.1-48.1-2.6-48.1-2.6s37,11.3,41.6,17.3
	s6.2,31.3,6.2,31.3c13.4-15.9,7.7-37.7,7.7-37.7c21.6-11.5,31.8-37.6,28.3-62.1C149.3,74.7,148.2,70.9,146.7,67.3z"/>
<g>
	<g>
		<path class="st1" d="M52.2,86.1c0,0,5.3-0.3,5.9,5.3c0.6,5.6-3.4,11.8,4.1,12.2c7.5,0.3,26.7-15.2,27.4-15.5
			c0.6-0.3,5.5-20.7,5.1-22.2s-8.2-13.4-9.1-13.6C84.8,52,67.7,56.4,67,56.8C66.2,57.1,52.2,86.1,52.2,86.1z"/>
	</g>
	<g>
		<path class="st6" d="M54.8,82.6c0,0,5.4,3.6,6.8,12.4c1.4,8.8,18.8-5.8,22.4-22.2c3.7-16.4-4.3-21.6-4.3-21.6L53.4,66.6L54.8,82.6
			z"/>
	</g>
	<g>
		<path class="st9" d="M76.7,100.7c0,0-3.7,14.2-0.1,25.7c0,0,7.7-21,18.9-31L76.7,100.7z"/>
	</g>
	<g>
		<path class="st9" d="M83.6,33.8c0,0,11.3-26.6,39.7-32.8c0,0-12.4,19.6-13.8,42.4L83.6,33.8z"/>
	</g>
	<g>
		<polygon class="st2" points="36,89.8 44.8,96.8 43.9,91.9 52.5,95 51.4,88.9 56.6,91.6 57,85.4 61.8,87.1 60.8,81.2 66.7,82.4 
			65.4,77.3 71.2,78.5 69.3,73.4 73.5,73.7 72.3,69.5 76.9,70 75.9,65.7 78.9,66.9 76.9,60.2 		"/>
	</g>
	<g>
		<path class="st1" d="M18.4,47.6c4.1-3.3,8.4-6.3,12.9-9.1c3.1-1.9,7.2-3,9.8-5.5c2.9-2.8,5.3-5.6,9.1-7.2
			c3.7-1.6,8.2-1.7,11.6,0.4c0.6,0.4,1.2,0.9,2,1.1c0.7,0.2,1.5,0.2,2.2,0.2c3.8-0.1,7.8-0.7,11.6-0.4c1.4,0.1,3,0.5,4.4,0.7
			c1,0.1,4.1,1.3,4.9,1c36.4,9.4,57.1,25.7,60.5,49.8s-6,50.8-27.2,62c0,0,7.5,21-5.6,36.6c0,0-4.1-25.6-8.6-31.5
			s-37.2-15.1-37.2-15.1s27.2-7.2,43.6,0.7c0,0,19.2-22.6,3.8-39.4c0,0-29.2,19.1-53.8,11.8c0,0,31.5-20,18.5-40.2
			c-1.1-1.8-3.7-1.8-5-0.1c-4.7,6.3-16,19.9-30,26.4c-4.5,2.1-9.8,2.1-14.3,0.1c-6.2-2.8-16.2-8.2-28.8-18.1c-2.7-2.1-3-6-0.7-8.5
			c3.4-3.8,7.1-7.3,10.9-10.7C14.7,50.6,16.5,49.1,18.4,47.6z"/>
	</g>
	<g>
		<path class="st9" d="M141,93.2c-1-13.6-8.7-15.3-25.9-16.6c-17.2-1.3-25.1-11.9-34.2-19.3c-9.1-7.5-12.2,9.9-47.7,7.8
			C-2.4,63,2.7,71.5,2.7,71.5c1.3,1,2.6,2,3.9,3c0,0,0,0,0,0c0.1,0.1,0.2,0.1,0.3,0.2c0.4,0.3,0.8,0.6,1.2,0.9
			C8.3,75.7,8.7,76,9,76.2c0.4,0.3,0.8,0.5,1.1,0.8c0.3,0.2,0.6,0.4,0.9,0.6c0.4,0.3,0.7,0.5,1.1,0.8c0.3,0.2,0.6,0.4,0.8,0.6
			c0.4,0.2,0.7,0.5,1.1,0.7c0.3,0.2,0.5,0.4,0.8,0.5c0.4,0.2,0.7,0.5,1.1,0.7c0.2,0.2,0.5,0.3,0.7,0.5c1.3,0.8,2.5,1.6,3.7,2.3
			c0.2,0.1,0.5,0.3,0.7,0.4c0.3,0.2,0.6,0.3,0.9,0.5c0.3,0.2,0.5,0.3,0.8,0.4c0.3,0.2,0.5,0.3,0.8,0.5c0.3,0.1,0.5,0.3,0.8,0.4
			c0.3,0.1,0.5,0.3,0.8,0.4c0.3,0.1,0.5,0.3,0.8,0.4c0.2,0.1,0.5,0.2,0.7,0.4c0.3,0.1,0.5,0.3,0.8,0.4c0.2,0.1,0.4,0.2,0.6,0.3
			c0.3,0.1,0.5,0.3,0.8,0.4c0.2,0.1,0.4,0.2,0.5,0.3c0.3,0.1,0.6,0.3,0.8,0.4c0.1,0.1,0.3,0.1,0.4,0.2c0.4,0.2,0.8,0.4,1.1,0.5
			c4.6,2.1,9.8,2.1,14.3-0.1c0.8-0.4,1.6-0.8,2.4-1.2c0.2-0.1,0.5-0.3,0.7-0.4c0.5-0.3,1.1-0.6,1.6-0.9c0.3-0.2,0.5-0.3,0.8-0.5
			c0.6-0.3,1.1-0.7,1.7-1.1c0.2-0.1,0.4-0.3,0.6-0.4c0.7-0.5,1.4-1,2.1-1.5c0.1-0.1,0.3-0.2,0.4-0.3c0.6-0.4,1.1-0.9,1.7-1.3
			c0.2-0.2,0.4-0.4,0.7-0.5c0.5-0.4,0.9-0.8,1.4-1.2c0.2-0.2,0.4-0.4,0.6-0.5c0.5-0.4,1-0.9,1.5-1.4c0.1-0.1,0.2-0.2,0.4-0.3
			c0.6-0.6,1.2-1.1,1.8-1.7c0.2-0.2,0.3-0.3,0.5-0.5c0.4-0.4,0.8-0.8,1.2-1.2c0.2-0.2,0.4-0.4,0.6-0.6c0.4-0.4,0.7-0.8,1.1-1.1
			c0.2-0.2,0.4-0.4,0.5-0.6c0.5-0.5,0.9-1,1.3-1.5c0.1-0.1,0.2-0.2,0.3-0.3c0.4-0.5,0.8-0.9,1.2-1.4c0.2-0.2,0.3-0.4,0.5-0.6
			c0.2-0.2,0.3-0.4,0.5-0.5c0,0,0,0,0,0c1.6-1.9,2.9-3.6,3.9-4.9c1.3-1.7,3.8-1.6,5,0.1c2.5,3.9,3.3,7.7,3.1,11.5
			c-0.1,1-0.2,1.9-0.4,2.9c0,0,0,0,0,0c-2.2,10-11.7,18.7-17.2,22.9c0,0,0,0,0,0c-0.5,0.4-1,0.8-1.4,1.1c0,0,0,0,0,0
			c-0.2,0.2-0.4,0.3-0.6,0.4c0,0,0,0,0,0c-0.4,0.3-0.7,0.5-1,0.7c0,0,0,0,0,0c-0.1,0.1-0.3,0.2-0.4,0.2c0,0,0,0,0,0
			c-0.1,0.1-0.2,0.1-0.3,0.2c0,0,0,0,0,0c-0.1,0-0.1,0.1-0.2,0.1c0,0,0,0,0,0c0,0,0,0,0,0c0.5,0.2,1.1,0.3,1.6,0.4
			c1.1,0.3,2.2,0.5,3.3,0.7c0.6,0.1,1.1,0.2,1.7,0.2c2.2,0.3,4.4,0.4,6.7,0.3c3.9-0.1,7.7-0.6,11.4-1.4c3.7-0.8,7.2-1.9,10.5-3
			c0.9-0.3,1.8-0.7,2.7-1c0.9-0.3,1.7-0.7,2.6-1.1c2.5-1.1,4.7-2.1,6.6-3.1c4.7-2.4,10.4,0,11.9,5.1c0.1,0.4,0.2,0.8,0.3,1.3
			c0,0.1,0.1,0.3,0.1,0.4c0.1,0.3,0.1,0.6,0.2,0.8c0,0.2,0,0.3,0.1,0.5c0,0.3,0.1,0.5,0.1,0.8c0,0.2,0,0.3,0,0.5
			c0,0.2,0,0.5,0.1,0.7c0,0.2,0,0.3,0,0.5c0,0.2,0,0.5,0,0.7c0,0.2,0,0.3,0,0.5c0,0.3,0,0.5,0,0.8c0,0.2,0,0.3,0,0.5
			c0,0.3,0,0.6-0.1,0.9c0,0.1,0,0.2,0,0.3c0,0.4-0.1,0.8-0.2,1.2c0,0.2-0.1,0.3-0.1,0.5c0,0.2-0.1,0.5-0.1,0.7
			c0,0.2-0.1,0.4-0.1,0.5c0,0.2-0.1,0.4-0.1,0.6c0,0.2-0.1,0.4-0.1,0.6c-0.1,0.2-0.1,0.4-0.2,0.6c-0.1,0.2-0.1,0.4-0.2,0.6
			c-0.1,0.2-0.1,0.4-0.2,0.6c-0.1,0.2-0.1,0.4-0.2,0.6c-0.1,0.2-0.1,0.4-0.2,0.5c-0.1,0.2-0.1,0.4-0.2,0.6c-0.1,0.2-0.1,0.3-0.2,0.5
			c-0.1,0.2-0.1,0.4-0.2,0.6l0,0c-2.6,6.7-6.6,11.7-7.3,12.6c1.5,10.5,3.9,7.5,11.7,0.4C133.6,122.7,141.9,106.8,141,93.2z"/>
	</g>
	<g>
		<path class="st2" d="M83.9,73.4l-2.3,0l0.8,2.1l-2.6,0.8l0.9,3.1L78,79.7l1,2.6l-3.1,0.5l0.1,2.9l-2.9,0.5l0.3,3l-4-0.5l1.1,3.2
			l-3.9-0.6l0.9,3.1c0,0-3.6-1.4-4.2-1.6c-0.6-0.2,0.9,2.8,0.9,2.8L61,92.2l0,0.1c0.2,0.8,0.4,1.7,0.6,2.7
			C63,103.7,79.9,89.6,83.9,73.4z"/>
	</g>
	<g>
		<path class="st9" d="M114.9,61.1c0,0,28.5-17.2,62.9-3.4c0,0-30.2,3.4-50.2,19.3L114.9,61.1z"/>
	</g>
	<g>
		<g>
			<path class="st2" d="M45,44c-0.1,0.6-0.2,1.1-0.3,1.7c-0.2,3.2,1.2,6.5,3.5,8.7c2.1,2.1,5.2,3.3,8.1,2.5c2.1-0.6,3.9-2.2,5-4.1
				c1.5-2.5,2.2-5.5,1.6-8.4c-0.5-2.9-2.4-5.5-5-6.9C52.7,34.8,46.4,38.6,45,44z"/>
		</g>
		<g>
			<path class="st6" d="M54,50.5c-0.2-0.6-0.2-1.4,0-2c0.5-2,2.9-4.4,5-2.7c0.8,0.6,1.2,1.8,1.1,2.8s-0.7,2-1.5,2.7
				c-0.5,0.4-1.1,0.8-1.8,0.9s-1.4,0-1.9-0.4C54.5,51.5,54.2,51,54,50.5z"/>
		</g>
	</g>
	<g>
		<g>
			<path class="st2" d="M30.5,42.7c-0.1,0.5-0.2,0.9-0.2,1.4c-0.2,2.7,1,5.3,2.9,7.2c1.8,1.7,4.3,2.7,6.7,2.1
				c1.8-0.5,3.2-1.8,4.1-3.4c1.3-2.1,1.8-4.6,1.4-6.9c-0.5-2.4-2-4.5-4.1-5.7C36.8,35.1,31.7,38.2,30.5,42.7z"/>
		</g>
		<g>
			<path class="st6" d="M38,48c-0.2-0.5-0.2-1.1,0-1.7c0.4-1.7,2.4-3.6,4.1-2.2c0.7,0.5,1,1.5,0.9,2.3c-0.1,0.9-0.6,1.6-1.2,2.2
				c-0.4,0.4-0.9,0.6-1.5,0.7c-0.6,0.1-1.1,0-1.6-0.3C38.3,48.8,38.1,48.4,38,48z"/>
		</g>
	</g>
</g>
</svg>
