<?xml version="1.0" encoding="utf-8"?>
<!-- Generator: Adobe Illustrator 25.2.1, SVG Export Plug-In . SVG Version: 6.00 Build 0)  -->
<svg version="1.1" id="Layer_1" xmlns="http://www.w3.org/2000/svg" xmlns:xlink="http://www.w3.org/1999/xlink" x="0px" y="0px"
	 viewBox="0 0 180 268.7" style="enable-background:new 0 0 180 268.7;" xml:space="preserve">
<style type="text/css">
	.st0{fill:#FDBB37;}
	.st1{fill:#0092A6;}
	.st2{fill:#FFFFFF;}
	.st3{fill:#E61E25;}
	.st4{fill:#EF3E37;}
	.st5{fill:none;stroke:#000000;stroke-linecap:round;stroke-miterlimit:10;}
	.st6{fill:#010101;}
	.st7{fill:#FFD386;}
	.st8{fill:#FFF0D9;}
	.st9{fill:#004D59;}
	.st10{fill:#FFFFFF;stroke:#000000;stroke-width:0.5;stroke-miterlimit:10;}
</style>
<g>
	<g>
		<path class="st0" d="M178.1,155.6c0.3,8.7-20.2,25.9-20.2,25.9l6.8,1.4l-0.2,0.8c-21.1,30-63.3,30.5-63.3,30.5l-1.1,0L95.9,61.7
			l0.9,0l42.3-5.7l0.2-9.8l-43.8-0.1l-0.2-6c8.8-2.2,15.4-10.2,15.4-19.7C110.7,9.1,101.6,0,90.4,0C79.1,0,70,9.1,70,20.3
			c0,9.4,6.4,17.4,15.2,19.7l-0.1,6.1L41.8,46l-0.2,9.7l42.8,5.9h0.3l-3.3,152.8l-2.5,0c0,0-42.1-0.5-63.3-30.5l-0.2-0.8l6.8-1.4
			c0,0-20.6-17.2-20.2-25.9c0.3-6.3-6.3,25.1,3.3,40.2l3.7-7.4l0.9-0.7c0,0,7,12.9,20.1,21.8c13.1,8.9,35.5,19.8,38.7,22
			c4,2.9,11.7,5.7,16.1,17.5c4.4,11.8,3.2,19,3.2,19s2.5,1.4,4.1-0.2c0,0-1.2-7.2,3.2-19c4.4-11.8,12-14.6,16.1-17.5
			c3.2-2.2,25.6-13.1,38.7-22c13.1-8.9,20.1-21.7,20.1-21.7l1,0.7l3.7,7.4C184.4,180.7,177.8,149.3,178.1,155.6z M78.6,20.3
			c0-6.5,5.3-11.8,11.8-11.8c6.5,0,11.8,5.3,11.8,11.8c0,6.5-5.3,11.8-11.8,11.8C83.9,32.1,78.6,26.8,78.6,20.3z"/>
	</g>
</g>
</svg>
