<?xml version="1.0" encoding="utf-8"?>
<!-- Generator: Adobe Illustrator 25.2.1, SVG Export Plug-In . SVG Version: 6.00 Build 0)  -->
<svg version="1.1" id="Layer_1" xmlns="http://www.w3.org/2000/svg" xmlns:xlink="http://www.w3.org/1999/xlink" x="0px" y="0px"
	 viewBox="0 0 180 169.2" style="enable-background:new 0 0 180 169.2;" xml:space="preserve">
<style type="text/css">
	.st0{fill:#FDBB37;}
	.st1{fill:#0092A6;}
	.st2{fill:#FFFFFF;}
	.st3{fill:#E61E25;}
	.st4{fill:#EF3E37;}
	.st5{fill:none;stroke:#000000;stroke-linecap:round;stroke-miterlimit:10;}
	.st6{fill:#010101;}
	.st7{fill:#FFD386;}
	.st8{fill:#FFF0D9;}
	.st9{fill:#004D59;}
	.st10{fill:#FFFFFF;stroke:#000000;stroke-width:0.5;stroke-miterlimit:10;}
</style>
<g>
	<path class="st0" d="M70.9,104.5c0.3,0.2,0.7,0.2,1,0.1c0.3-0.1,0.7-0.3,0.9-0.6c0.5-0.6,0.5-1.5,0-2c-0.3-0.3-0.6-0.4-1-0.3
		c-0.4,0.1-0.8,0.3-1.1,0.7c-0.3,0.4-0.4,0.8-0.4,1.2C70.4,104,70.6,104.3,70.9,104.5z"/>
	<path class="st0" d="M76.8,100.7c0.7-0.3,1.1-1.1,0.9-1.8c-0.2-0.7-1.2-1-2-0.6c-0.9,0.5-1.2,1.4-0.8,2
		C75.2,100.9,76.1,101.1,76.8,100.7z"/>
	<path class="st0" d="M68.8,115.5c0.3,0.2,0.7,0.3,1,0.2c0.4-0.1,0.6-0.4,0.8-0.7c0.2-0.3,0.2-0.7,0.1-1.1c-0.2-0.8-0.8-1.4-1.5-1.3
		c-0.7,0-1.3,0.9-1.1,1.8C68.2,114.8,68.5,115.2,68.8,115.5z"/>
	<path class="st0" d="M69.2,109.9c0.7,0.1,1.4-0.5,1.5-1.3c0.1-0.4,0-0.8-0.1-1.1c-0.1-0.3-0.4-0.6-0.8-0.7c-0.3-0.1-0.7,0-1,0.2
		c-0.3,0.2-0.6,0.6-0.7,1.1C68,109.1,68.5,109.9,69.2,109.9z"/>
	<path class="st0" d="M70.3,127.1c0.7,0.1,1.4-0.5,1.5-1.4c0.1-0.9-0.5-1.7-1.2-1.7c-0.7,0-1.4,0.6-1.5,1.4
		C69,126.2,69.5,127,70.3,127.1z"/>
	<path class="st0" d="M70.7,121.3c0.7,0,1.3-0.8,1.3-1.7c-0.1-0.9-0.8-1.6-1.5-1.5c-0.7,0.1-1.2,0.9-1.1,1.7
		C69.3,120.7,69.9,121.3,70.7,121.3z"/>
	<path class="st0" d="M68.8,137.2c0.5-0.8,0.3-1.8-0.4-2.1c-0.7-0.3-1.5,0-1.9,0.7c-0.4,0.7-0.3,1.6,0.3,2
		C67.3,138.3,68.3,138,68.8,137.2z"/>
	<path class="st0" d="M68.4,130.9c0,0.2,0,0.4,0,0.6c0,0.2,0.1,0.4,0.1,0.5c0.2,0.3,0.4,0.6,0.8,0.7c0.4,0.1,0.7,0,1-0.2
		c0.2-0.1,0.3-0.3,0.4-0.4c0.1-0.2,0.2-0.4,0.2-0.6c0.1-0.5,0-0.9-0.2-1.2c-0.2-0.3-0.5-0.6-0.9-0.6c-0.4,0-0.7,0.1-1,0.3
		C68.7,130.2,68.4,130.5,68.4,130.9z"/>
	<path class="st0" d="M59.6,142.7c-0.4-0.1-0.8-0.1-1.1,0.1c-0.7,0.4-1.2,1.1-0.9,1.8c0.3,0.7,1.2,1,2,0.6c0.4-0.2,0.7-0.5,0.9-0.8
		c0.2-0.4,0.1-0.7,0-1.1C60.3,142.9,60,142.7,59.6,142.7z"/>
	<path class="st0" d="M64.1,139.5c-0.2,0-0.4,0.1-0.5,0.1c-0.2,0.1-0.4,0.2-0.5,0.3c-0.3,0.3-0.5,0.6-0.6,1c-0.1,0.3,0,0.7,0.2,1
		c0.2,0.3,0.6,0.5,0.9,0.5c0.4,0,0.8-0.2,1.2-0.4c0.2-0.2,0.3-0.3,0.4-0.5c0.1-0.2,0.2-0.4,0.2-0.6c0-0.4-0.1-0.7-0.3-1
		C64.8,139.6,64.4,139.5,64.1,139.5z"/>
	<path class="st0" d="M47.1,145c-0.8-0.1-1.6,0.4-1.7,1.1c-0.1,0.7,0.5,1.4,1.5,1.5c0.9,0.1,1.7-0.5,1.7-1.2
		C48.5,145.6,47.9,145.1,47.1,145z"/>
	<path class="st0" d="M52.4,144.6c-0.8,0.1-1.4,0.8-1.3,1.5c0.1,0.7,0.9,1.2,1.8,1.1c0.9-0.2,1.5-0.9,1.3-1.6
		C54.1,144.9,53.3,144.5,52.4,144.6z"/>
	<path class="st0" d="M36.6,141.6c-0.8-0.4-1.7-0.2-2,0.5c-0.3,0.7,0,1.5,0.8,1.9c0.8,0.4,1.7,0.2,2-0.5
		C37.8,142.8,37.4,142,36.6,141.6z"/>
	<path class="st0" d="M41.8,143.8c-0.8-0.3-1.6,0-1.9,0.7c-0.3,0.7,0.2,1.5,1.1,1.8c0.9,0.3,1.7-0.1,1.9-0.8
		C43,144.8,42.6,144.1,41.8,143.8z"/>
	<path class="st0" d="M25.9,136.7c-0.5-0.1-1,0-1.4,0.2c-0.3,0.2-0.5,0.6-0.5,1c0,0.4,0.2,0.7,0.4,0.9c0.2,0.2,0.5,0.4,0.9,0.5
		c0.7,0.1,1.5-0.2,1.8-0.9C27.4,137.8,26.9,136.9,25.9,136.7z"/>
	<path class="st0" d="M31.5,139c-0.8-0.4-1.7-0.2-2,0.5c-0.3,0.7,0,1.5,0.8,1.9c0.8,0.4,1.7,0.2,2-0.5
		C32.7,140.3,32.3,139.4,31.5,139z"/>
	<path class="st0" d="M19.4,144c-0.7-0.1-1.4,0.6-1.4,1.5c0,0.9,0.6,1.7,1.4,1.6c0.7-0.1,1.3-0.7,1.3-1.5
		C20.6,144.8,20.1,144.1,19.4,144z"/>
	<path class="st0" d="M20.6,138.5c-0.4,0.1-0.9,0.4-1.1,0.8c-0.6,0.9-0.2,1.9,0.5,2.1c0.7,0.2,1.5-0.2,1.8-0.7
		c0.2-0.3,0.2-0.6,0.2-0.9c0-0.3-0.1-0.7-0.3-1C21.4,138.6,21.1,138.4,20.6,138.5z"/>
	<path class="st0" d="M91,105.3c0-0.4-0.2-0.7-0.4-0.9c-0.2-0.3-0.5-0.5-0.9-0.5c-0.4,0-0.7,0.1-1,0.4c-0.3,0.3-0.4,0.8-0.3,1.3
		c0.1,0.5,0.3,0.9,0.6,1.2c0.3,0.3,0.7,0.3,1,0.2c0.4-0.1,0.6-0.4,0.8-0.7C91,106,91.1,105.6,91,105.3z"/>
	<path class="st0" d="M90.5,101.4c0.3,0.2,0.7,0.2,1,0.1c0.3-0.1,0.7-0.3,0.9-0.6c0.2-0.3,0.4-0.6,0.4-1c0-0.4-0.1-0.7-0.3-1
		c-0.2-0.3-0.6-0.4-1-0.4c-0.4,0.1-0.8,0.2-1.1,0.7c-0.3,0.4-0.5,0.8-0.4,1.3C89.9,100.9,90.1,101.2,90.5,101.4z"/>
	<path class="st0" d="M97.7,115.5c0.5-0.6,0.2-1.5-0.5-2.1c-0.7-0.5-1.6-0.4-2,0.2c-0.5,0.6-0.2,1.5,0.5,2
		C96.3,116.1,97.2,116.1,97.7,115.5z"/>
	<path class="st0" d="M93.2,111.9c0.5-0.5,0.5-1.4,0-2c-0.2-0.3-0.6-0.5-0.9-0.6c-0.3-0.1-0.7-0.1-1,0.1c-0.3,0.2-0.5,0.5-0.5,0.9
		c0,0.4,0.1,0.8,0.4,1.2C91.7,112.2,92.6,112.4,93.2,111.9z"/>
	<polygon class="st0" points="103.5,123.8 103.5,123.8 103.5,123.8 103.5,123.8 103.5,123.8 	"/>
	<path class="st0" d="M103.5,123.8c0-1-0.7-1.5-1.4-1.4c-0.6,0.1-1.1,0.7-1.3,1.2c0,0.1,0,0.2,0,0.2c0,0.1,0,0.2,0,0.2l0,0.1l0,0.2
		l0,0.1c0,0,0,0.1,0,0.1c0,0.1,0.1,0.2,0.1,0.3c0.1,0.2,0.2,0.3,0.4,0.4c0.3,0.2,0.6,0.4,1,0.3c0.4,0,0.7-0.3,0.9-0.6
		c0.1-0.2,0.2-0.4,0.2-0.6c0-0.1,0-0.2,0-0.3C103.5,124,103.5,124,103.5,123.8L103.5,123.8L103.5,123.8L103.5,123.8z"/>
	<path class="st0" d="M100.3,120c0.3,0.1,0.7,0.1,1,0c0.3-0.2,0.5-0.5,0.6-0.9c0-0.4,0-0.9-0.3-1.3c-0.6-0.8-1.6-1-2.1-0.5
		c-0.5,0.5-0.5,1.4-0.1,2C99.7,119.6,100,119.9,100.3,120z"/>
	<path class="st0" d="M101.4,133.8c-0.3-0.1-0.7-0.1-1,0c-0.3,0.1-0.6,0.4-0.8,0.7c-0.4,0.7-0.3,1.6,0.3,2c0.6,0.4,1.5,0.1,2-0.7
		c0.2-0.4,0.3-0.9,0.2-1.3C102,134.3,101.7,134,101.4,133.8z"/>
	<path class="st0" d="M102.6,128.2c-0.4,0-0.7,0.2-1,0.4c-0.3,0.3-0.4,0.6-0.5,1c-0.1,0.4,0,0.8,0.2,1.1c0.2,0.3,0.5,0.6,0.8,0.6
		c0.3,0.1,0.8,0,1-0.3c0.3-0.3,0.5-0.7,0.6-1.1c0.1-0.5-0.1-0.9-0.3-1.2C103.3,128.4,102.9,128.2,102.6,128.2z"/>
	<path class="st0" d="M91.6,142c-0.7,0.4-1.1,1.3-0.7,1.9c0.3,0.6,1.3,0.8,2.1,0.4c0.8-0.5,1.1-1.4,0.7-2
		C93.3,141.7,92.3,141.5,91.6,142z"/>
	<path class="st0" d="M96.1,138.7c-0.6,0.6-0.8,1.4-0.3,2c0.4,0.6,1.4,0.6,2.1,0c0.7-0.6,0.8-1.6,0.3-2.1
		C97.6,138.1,96.7,138.2,96.1,138.7z"/>
	<path class="st0" d="M82.3,147.3c-0.2-0.7-1.1-1.1-1.9-0.8c-0.8,0.2-1.4,1-1.1,1.7c0.2,0.7,1.1,1.1,1.9,0.8
		C81.9,148.8,82.5,148,82.3,147.3z"/>
	<path class="st0" d="M85.8,144.8c-0.8,0.3-1.3,1.1-1.1,1.8c0.2,0.7,1.1,1,2,0.7c0.9-0.3,1.3-1.1,1-1.8
		C87.5,144.8,86.6,144.5,85.8,144.8z"/>
	<path class="st0" d="M69.8,154.3c0.3,0.1,0.7,0.1,1-0.1c0.3-0.1,0.6-0.3,0.8-0.6c0.1-0.1,0.2-0.3,0.2-0.4c0.1-0.2,0.1-0.3,0.1-0.5
		c0-0.3-0.1-0.7-0.3-1c-0.2-0.3-0.6-0.4-1-0.4c-0.2,0-0.4,0.1-0.6,0.2c-0.2,0.1-0.4,0.3-0.5,0.5c-0.3,0.4-0.4,1-0.3,1.4
		C69.2,153.9,69.5,154.2,69.8,154.3z"/>
	<path class="st0" d="M76.7,149c-0.2-0.7-1.1-1-2-0.7c-0.9,0.4-1.3,1.3-0.9,1.9c0.3,0.6,1.2,0.9,2,0.6C76.5,150.5,77,149.7,76.7,149
		z"/>
	<path class="st0" d="M73.8,162.9c-0.1-0.1-0.2-0.3-0.3-0.4c-0.3-0.2-0.6-0.4-0.9-0.4c-0.3-0.1-0.7,0-1,0.2c-0.3,0.2-0.5,0.6-0.5,1
		c0,0.4,0.2,0.9,0.6,1.2c0.2,0.2,0.4,0.3,0.6,0.4c0.2,0.1,0.4,0.1,0.6,0.1c0.4,0,0.7-0.2,0.9-0.5c0.2-0.3,0.2-0.7,0.1-1
		C73.9,163.2,73.9,163.1,73.8,162.9z"/>
	<path class="st0" d="M71.1,158.1c-0.1-0.4-0.3-0.7-0.6-0.9c-0.3-0.2-0.6-0.4-1-0.3c-0.4,0-0.7,0.2-0.9,0.6
		c-0.2,0.4-0.2,0.8-0.1,1.3c0.3,1,1.1,1.5,1.8,1.2c0.3-0.1,0.6-0.4,0.7-0.8C71.1,158.9,71.2,158.5,71.1,158.1z"/>
	<path class="st0" d="M82.9,162.7c-0.7,0.3-1.2,1.1-0.9,1.8c0.2,0.7,1.2,1,2,0.6c0.9-0.4,1.3-1.3,0.9-1.9
		C84.5,162.5,83.7,162.4,82.9,162.7z"/>
	<path class="st0" d="M77.9,164c-0.7,0-1.4,0.5-1.5,1.3c-0.1,0.7,0.6,1.4,1.6,1.4c1,0,1.7-0.8,1.5-1.5C79.3,164.5,78.6,164,77.9,164
		z"/>
	<path class="st0" d="M153.8,6.2c0.2,0.1,0.4,0.2,0.6,0.3c0.2,0.1,0.4,0.2,0.6,0.2c0.4,0,0.8-0.1,1-0.3c0.3-0.3,0.3-0.7,0.2-1.1
		c-0.1-0.2-0.2-0.4-0.3-0.7c-0.2-0.2-0.4-0.4-0.6-0.6c-0.5-0.3-1-0.5-1.4-0.5c-0.5,0-0.8,0.2-1,0.5c-0.2,0.3-0.2,0.7,0,1.1
		C153.1,5.5,153.4,5.9,153.8,6.2z"/>
	<path class="st0" d="M160.3,12.2c0.7-0.3,0.8-1.4,0.2-2.4c-0.6-1-1.7-1.4-2.2-1c-0.6,0.5-0.6,1.5-0.1,2.3
		C158.7,12,159.6,12.5,160.3,12.2z"/>
	<path class="st0" d="M139.6,2.4c0.2,0.1,0.4,0.2,0.6,0.2c0.2,0.1,0.5,0.1,0.7,0.1c0.5,0,1-0.2,1.3-0.4c0.3-0.2,0.6-0.5,0.6-0.9
		c0-0.4-0.2-0.7-0.6-1C142,0.1,141.5,0,140.9,0c-0.3,0-0.6,0.1-0.8,0.1c-0.2,0.1-0.5,0.2-0.6,0.3c-0.3,0.3-0.5,0.6-0.5,1
		C139,1.8,139.3,2.2,139.6,2.4z"/>
	<path class="st0" d="M147.8,3.3c1,0.3,2,0,2.2-0.7c0.3-0.7-0.4-1.5-1.6-1.9c-1.1-0.2-2.2,0.1-2.3,0.9
		C146.1,2.3,146.8,3.1,147.8,3.3z"/>
	<path class="st0" d="M128.1,6.6c0.9-0.5,1.3-1.5,1-2.1c-0.4-0.7-1.4-0.7-2.4-0.1c-1,0.6-1.3,1.7-0.9,2.3
		C126.2,7.2,127.2,7.2,128.1,6.6z"/>
	<path class="st0" d="M134.2,3.8c1-0.3,1.7-1,1.5-1.8c-0.1-0.7-1.2-1.1-2.3-0.8c-1.1,0.3-1.8,1.2-1.5,1.9
		C132.2,3.8,133.2,4.1,134.2,3.8z"/>
	<path class="st0" d="M118.2,13.9c-0.5-0.5-1.6-0.3-2.3,0.5c-0.7,0.8-1,1.8-0.5,2.3c0.5,0.6,1.6,0.4,2.4-0.4
		C118.6,15.4,118.8,14.4,118.2,13.9z"/>
	<path class="st0" d="M122.8,11c0.8-0.7,1-1.8,0.5-2.3c-0.5-0.6-1.6-0.4-2.4,0.4c-0.8,0.8-1,1.9-0.4,2.4C121,12,122,11.8,122.8,11z"
		/>
	<path class="st0" d="M107.8,16.9c0.7,0,1.3-0.8,1.5-1.8c0.1-1-0.2-1.9-0.9-2.1c-0.7-0.2-1.5,0.6-1.7,1.7
		C106.4,15.9,107.1,16.9,107.8,16.9z"/>
	<path class="st0" d="M109.2,20.2c0.1,0.2,0.3,0.4,0.5,0.5c0.5,0.3,1.2,0.3,1.8,0.1c0.6-0.2,1.1-0.6,1.3-1c0.2-0.4,0.3-0.8,0.1-1.1
		c-0.2-0.3-0.5-0.5-0.9-0.6c-0.4-0.1-0.8,0-1.2,0.1c-0.4,0.1-0.7,0.3-0.9,0.5c-0.1,0.1-0.2,0.2-0.3,0.4c-0.1,0.1-0.2,0.3-0.3,0.5
		C109.1,19.8,109.1,20,109.2,20.2z"/>
	<path class="st0" d="M162.5,16.6c0.6-0.1,1-0.8,0.8-1.6c-0.2-0.8-0.8-1.2-1.3-1c-0.6,0.2-0.9,1-0.7,1.6
		C161.4,16.2,161.9,16.7,162.5,16.6z"/>
	<path class="st0" d="M161.9,26.2c0.7,0.2,1.5-0.2,1.6-1c0.2-0.8-0.3-1.5-1-1.6c-0.7-0.1-1.4,0.3-1.6,1
		C160.9,25.2,161.2,25.9,161.9,26.2z"/>
	<path class="st0" d="M161.3,20.1c0,0.3,0.1,0.7,0.4,0.9c0.2,0.2,0.5,0.4,0.9,0.4c0.4,0,0.7-0.1,1-0.3c0.2-0.2,0.4-0.6,0.4-1
		c0-0.8-0.6-1.4-1.4-1.3C161.9,18.8,161.3,19.4,161.3,20.1z"/>
	<path class="st0" d="M158.6,34.1c0.6-0.5,0.6-1.4,0-1.9c-0.6-0.5-1.3-0.4-1.8,0c-0.5,0.5-0.5,1.3-0.1,1.9
		C157.2,34.7,158,34.7,158.6,34.1z"/>
	<path class="st0" d="M159.9,30.4c0.3,0.2,0.7,0.3,1,0.2c0.2,0,0.3-0.1,0.5-0.2c0.1-0.1,0.3-0.3,0.4-0.4c0.2-0.4,0.2-0.7,0.1-1.1
		c-0.1-0.3-0.4-0.6-0.7-0.8c-0.3-0.1-0.7-0.1-1,0c-0.3,0.1-0.6,0.3-0.8,0.6c-0.1,0.2-0.1,0.3-0.1,0.5c0,0.2,0,0.3,0,0.5
		C159.4,29.9,159.6,30.2,159.9,30.4z"/>
	<path class="st0" d="M149.3,38.6c0.8-0.2,1.1-1,0.9-1.7c-0.2-0.7-1-1-1.6-0.9c-0.7,0.2-1.1,0.9-0.9,1.6
		C147.9,38.4,148.6,38.8,149.3,38.6z"/>
	<path class="st0" d="M154.4,37c0.7-0.4,0.9-1.2,0.5-1.8c-0.4-0.6-1.2-0.9-1.8-0.5c-0.6,0.3-0.9,1.1-0.6,1.8
		C152.9,37.1,153.7,37.4,154.4,37z"/>
	<path class="st0" d="M139.6,40.2c0.7-0.1,1.3-0.7,1.2-1.5c-0.1-0.7-0.7-1.3-1.5-1.2c-0.7,0.1-1.3,0.7-1.2,1.5
		C138.2,39.7,138.8,40.3,139.6,40.2z"/>
	<path class="st0" d="M144.5,39.6c0.8-0.1,1.2-0.8,1.1-1.5c-0.1-0.7-0.8-1.2-1.5-1.1c-0.7,0.1-1.2,0.8-1.1,1.5
		C143.1,39.2,143.7,39.7,144.5,39.6z"/>
	<path class="st0" d="M128.4,42.6c0.4,0.6,1.2,0.8,1.8,0.5c0.3-0.1,0.5-0.4,0.6-0.7c0.1-0.3,0.1-0.7,0-1c-0.1-0.3-0.4-0.6-0.7-0.7
		c-0.3-0.1-0.7-0.1-1.1,0.1C128.2,41.1,128,42,128.4,42.6z"/>
	<path class="st0" d="M134.4,41.6c0.7-0.1,1.2-0.8,1.1-1.5c-0.1-0.7-0.8-1.2-1.6-1.1c-0.8,0.2-1.3,0.9-1.1,1.6
		C133.1,41.3,133.8,41.8,134.4,41.6z"/>
	<path class="st0" d="M122.5,47.5c-0.3,0.1-0.7,0.4-0.8,0.7c-0.2,0.4-0.2,0.8-0.1,1.1c0.1,0.3,0.4,0.6,0.7,0.7c0.3,0.1,0.7,0.1,1,0
		c0.3-0.1,0.6-0.3,0.7-0.6c0.1-0.3,0.2-0.6,0.1-1c-0.1-0.3-0.3-0.6-0.6-0.8C123.2,47.4,122.9,47.4,122.5,47.5z"/>
	<path class="st0" d="M125.8,46.1c0.3,0,0.6-0.2,0.9-0.4c0.5-0.5,0.5-1.3,0-1.8c-0.5-0.6-1.4-0.6-1.9,0c-0.3,0.3-0.4,0.7-0.4,1
		c0,0.4,0.2,0.7,0.5,0.9C125.1,46,125.4,46.1,125.8,46.1z"/>
	<path class="st0" d="M121.4,59.7c0.7,0,1.3-0.6,1.3-1.3c0-0.8-0.6-1.4-1.3-1.3c-0.7,0-1.3,0.6-1.3,1.3
		C120,59,120.6,59.6,121.4,59.7z"/>
	<path class="st0" d="M120.2,53.3c-0.1,0.8,0.5,1.5,1.2,1.5c0.7,0,1.3-0.5,1.5-1.1c0.1-0.7-0.4-1.3-1.1-1.5
		C121,51.9,120.3,52.5,120.2,53.3z"/>
	<path class="st0" d="M120.4,68.4c0.1-0.2,0.2-0.4,0.2-0.6c0-0.2,0-0.4-0.1-0.5c-0.1-0.3-0.3-0.6-0.7-0.8c-0.3-0.2-0.7-0.2-1-0.1
		c-0.2,0-0.3,0.1-0.4,0.2c-0.1,0.1-0.2,0.2-0.3,0.3c-0.3,0.6-0.1,1.3,0.4,1.8C119,69.4,120,69.1,120.4,68.4z"/>
	<path class="st0" d="M120.6,64.5c0.7,0.2,1.4-0.2,1.6-1c0.1-0.4,0-0.8-0.2-1.1c-0.2-0.3-0.5-0.5-0.9-0.5c-0.4-0.1-0.7,0-1,0.2
		c-0.3,0.2-0.5,0.5-0.6,0.8C119.4,63.5,119.9,64.3,120.6,64.5z"/>
	<path class="st0" d="M158.8,43.1c0-0.4-0.2-0.7-0.6-0.9c-0.7-0.5-1.5-0.3-1.9,0.3c-0.4,0.6-0.2,1.4,0.4,1.8
		c0.3,0.2,0.6,0.3,0.9,0.2c0.3,0,0.7-0.2,0.9-0.5C158.7,43.8,158.8,43.4,158.8,43.1z"/>
	<path class="st0" d="M152.6,42.2c0.7,0.2,1.4-0.1,1.7-0.8c0.3-0.7-0.1-1.5-0.8-1.8c-0.8-0.3-1.5,0.1-1.7,0.8
		C151.6,41.3,151.9,42,152.6,42.2z"/>
	<path class="st0" d="M162.9,49.7c-0.7,0.3-0.9,1.1-0.6,1.8c0.3,0.6,1,1,1.7,0.7c0.7-0.3,1-1.1,0.7-1.8
		C164.4,49.7,163.6,49.3,162.9,49.7z"/>
	<path class="st0" d="M161.8,47.8c0.6-0.4,0.7-1.3,0.3-1.9c-0.5-0.6-1.4-0.7-1.9-0.2c-0.5,0.5-0.6,1.3-0.2,1.9
		C160.3,48,161.2,48.2,161.8,47.8z"/>
	<path class="st0" d="M164.7,60.6c0.1,0.7,0.7,1.3,1.5,1.2c0.7-0.1,1.3-0.7,1.2-1.5c-0.1-0.8-0.8-1.3-1.5-1.2
		C165.1,59.2,164.6,59.9,164.7,60.6z"/>
	<path class="st0" d="M163.8,55.9c0.2,0.7,0.9,1.1,1.6,1c0.7-0.1,1.2-0.9,1-1.7c-0.2-0.8-1-1.2-1.7-1
		C164,54.5,163.7,55.2,163.8,55.9z"/>
	<path class="st0" d="M167.5,70.5c0.1-0.8-0.5-1.4-1.2-1.5c-0.7,0-1.4,0.5-1.4,1.2c-0.1,0.7,0.5,1.4,1.2,1.5
		C166.8,71.8,167.5,71.2,167.5,70.5z"/>
	<path class="st0" d="M166.3,64c-0.7,0-1.3,0.7-1.3,1.4c0,0.7,0.6,1.3,1.3,1.3c0.7,0,1.3-0.6,1.3-1.4C167.7,64.6,167,64,166.3,64z"
		/>
	<path class="st0" d="M164.6,78.7c-0.7-0.2-1.4,0.2-1.7,0.8c-0.2,0.7,0.1,1.4,0.8,1.7c0.7,0.3,1.5-0.1,1.7-0.8
		C165.7,79.7,165.3,78.9,164.6,78.7z"/>
	<path class="st0" d="M166.8,75.5c0.2-0.8-0.3-1.5-1.1-1.6c-0.7-0.1-1.4,0.4-1.6,1.1c-0.1,0.7,0.3,1.4,1,1.6
		C165.9,76.8,166.7,76.3,166.8,75.5z"/>
	<path class="st0" d="M158.4,90.3c0.3,0,0.7-0.1,1-0.4c0.6-0.6,0.6-1.4,0.1-1.9c-0.5-0.5-1.4-0.5-1.9,0c-0.3,0.2-0.4,0.5-0.4,0.9
		c0,0.3,0,0.7,0.3,1C157.7,90.1,158,90.3,158.4,90.3z"/>
	<path class="st0" d="M162.4,84c-0.7-0.4-1.4-0.1-1.8,0.4c-0.4,0.6-0.2,1.4,0.3,1.8c0.6,0.4,1.5,0.3,1.9-0.4
		C163.3,85.2,163,84.3,162.4,84z"/>
	<path class="st0" d="M149.8,94.1c0.8-0.2,1.3-0.9,1.1-1.6c-0.2-0.7-0.9-1.2-1.6-1c-0.7,0.1-1.2,0.8-1.1,1.5
		C148.3,93.8,149.1,94.3,149.8,94.1z"/>
	<path class="st0" d="M155.6,91c-0.4-0.6-1.1-0.9-1.7-0.6c-0.6,0.3-1,1-0.8,1.7c0.2,0.7,1,1.1,1.8,0.8C155.7,92.5,156,91.6,155.6,91
		z"/>
	<path class="st0" d="M139.9,92c-0.7-0.1-1.4,0.4-1.5,1.2c-0.1,0.7,0.4,1.4,1.2,1.5c0.8,0.1,1.5-0.5,1.5-1.2
		C141.1,92.6,140.6,92,139.9,92z"/>
	<path class="st0" d="M144.6,92.1c-0.7,0-1.3,0.6-1.3,1.4c0,0.7,0.6,1.3,1.4,1.3c0.8-0.1,1.4-0.7,1.3-1.4
		C146,92.6,145.3,92,144.6,92.1z"/>
	<path class="st0" d="M130.9,89.4c-0.6-0.3-1.4-0.1-1.8,0.5c-0.5,0.6-0.2,1.5,0.5,1.9c0.7,0.4,1.6,0.1,1.9-0.6
		C131.8,90.5,131.5,89.7,130.9,89.4z"/>
	<path class="st0" d="M134.5,93.7c0.8,0.2,1.5-0.2,1.7-1c0.2-0.7-0.3-1.4-1-1.6c-0.7-0.2-1.4,0.2-1.7,0.9
		C133.3,92.7,133.7,93.4,134.5,93.7z"/>
	<path class="st0" d="M169.7,67.1c0.1,0.1,0.3,0.2,0.5,0.3c0.2,0,0.4,0,0.5,0c0.2,0,0.4-0.1,0.5-0.1c0.2-0.1,0.3-0.1,0.4-0.2
		c0.1-0.1,0.2-0.2,0.3-0.3c0.4-0.4,0.6-1.1,0.5-1.8c-0.1-0.4-0.4-0.6-0.9-0.7c-0.5,0-1,0.2-1.5,0.6c-0.3,0.2-0.4,0.5-0.5,0.8
		c-0.1,0.3-0.1,0.5-0.1,0.8C169.5,66.7,169.5,66.9,169.7,67.1z"/>
	<path class="st0" d="M176.4,69.1c0.7-0.2,1-1.2,0.6-2.2c-0.2-0.5-0.6-0.9-1-1c-0.4-0.2-0.8-0.1-1.1,0.1c-0.3,0.2-0.4,0.6-0.5,0.9
		c0,0.4,0,0.7,0.2,1.1C175,68.8,175.7,69.3,176.4,69.1z"/>
	<path class="st0" d="M172.3,78.2c0.5,0.8,1.4,1.2,2,0.8c0.6-0.4,0.8-1.3,0.3-2.2c-0.5-0.8-1.4-1.2-2-0.9
		C172,76.4,171.8,77.3,172.3,78.2z"/>
	<path class="st0" d="M171.3,73.5c0.7-0.3,0.9-1.2,0.6-2.1c-0.2-0.4-0.4-0.7-0.7-1c-0.3-0.2-0.7-0.3-1-0.3c-0.4,0.1-0.7,0.3-0.8,0.7
		c-0.2,0.4-0.2,0.9,0,1.4C169.8,73.3,170.7,73.8,171.3,73.5z"/>
	<path class="st0" d="M176.5,88.2c-0.2,0.3-0.3,0.7-0.3,1.2c0.1,0.9,0.6,1.7,1.4,1.7c0.7,0,1.4-0.8,1.3-1.8c0-0.5-0.2-1-0.5-1.3
		c-0.3-0.3-0.6-0.5-1-0.4C177,87.7,176.7,87.9,176.5,88.2z"/>
	<path class="st0" d="M175.7,81.5c-0.7,0.3-0.9,1.2-0.6,2.1c0.2,0.4,0.4,0.8,0.7,1c0.3,0.2,0.7,0.3,1,0.2c0.4-0.1,0.6-0.4,0.8-0.8
		c0.1-0.4,0.1-0.9,0-1.4C177.2,81.7,176.3,81.2,175.7,81.5z"/>
	<path class="st0" d="M177.1,102.2c0.3-1-0.1-1.9-0.8-2.1c-0.7-0.2-1.5,0.4-1.7,1.3c-0.3,0.9,0,1.8,0.7,2
		C176,103.7,176.8,103.2,177.1,102.2z"/>
	<path class="st0" d="M177.4,93.9c-0.7-0.1-1.4,0.6-1.5,1.5c-0.2,0.9,0.3,1.8,1,1.9c0.7,0.1,1.4-0.5,1.6-1.5
		C178.6,94.9,178.1,94,177.4,93.9z"/>
	<path class="st0" d="M170.9,111.5c-0.6-0.4-1.5-0.2-2.1,0.4c-0.3,0.3-0.5,0.7-0.5,1.1c0,0.4,0,0.7,0.3,1c0.3,0.3,0.6,0.4,1,0.3
		c0.4-0.1,0.8-0.3,1.1-0.7C171.5,113,171.5,112,170.9,111.5z"/>
	<path class="st0" d="M172.2,107c-0.4,0.8-0.3,1.7,0.3,2.1c0.6,0.4,1.6,0,2-0.9c0.5-0.9,0.3-1.9-0.4-2.2
		C173.5,105.8,172.7,106.2,172.2,107z"/>
	<path class="st0" d="M159.7,120.3c0.2-0.3,0.3-0.7,0.2-1.1c-0.1-0.4-0.4-0.6-0.8-0.8c-0.4-0.2-0.8-0.1-1.2-0.1
		c-0.9,0.2-1.5,0.9-1.4,1.6c0.1,0.7,1,1.2,2,1C159.1,121,159.5,120.6,159.7,120.3z"/>
	<path class="st0" d="M165.7,117.6c0.2-0.4,0.1-0.8-0.1-1.1c-0.2-0.3-0.5-0.5-0.9-0.5c-0.4-0.1-0.8,0-1.2,0.2
		c-0.8,0.5-1.2,1.3-0.9,2c0.3,0.7,1.3,0.9,2.2,0.4C165.2,118.3,165.5,118,165.7,117.6z"/>
	<path class="st0" d="M146,118.4c-0.4-0.1-0.9,0-1.2,0.1c-0.4,0.2-0.6,0.4-0.7,0.8c-0.1,0.4,0,0.7,0.2,1.1c0.3,0.3,0.7,0.5,1.2,0.6
		c1,0.2,1.9-0.2,2-1C147.5,119.4,146.9,118.6,146,118.4z"/>
	<path class="st0" d="M153.2,119.5c-0.3-0.2-0.7-0.4-1.2-0.4c-0.9,0-1.7,0.6-1.7,1.3c0,0.7,0.7,1.3,1.7,1.3c0.5,0,1-0.1,1.3-0.4
		c0.3-0.3,0.5-0.6,0.5-1C153.7,120,153.5,119.7,153.2,119.5z"/>
	<path class="st0" d="M135.6,115.7c0.2-0.3,0.2-0.7,0.1-1.1c-0.1-0.4-0.4-0.7-0.8-1c-0.8-0.5-1.7-0.5-2.2,0.1
		c-0.4,0.6-0.1,1.5,0.7,2.1c0.4,0.3,0.9,0.4,1.3,0.4C135.1,116.2,135.4,116,135.6,115.7z"/>
	<path class="st0" d="M140.2,116.6c-0.8-0.3-1.8-0.2-2.1,0.5c-0.3,0.6,0.1,1.6,1,2c0.9,0.4,1.9,0.1,2.1-0.6
		C141.5,117.8,141.1,116.9,140.2,116.6z"/>
	<path class="st0" d="M123.6,105c-0.6,0.4-0.6,1.5,0.1,2.2c0.6,0.8,1.6,0.9,2.2,0.4c0.5-0.5,0.5-1.5-0.1-2.2
		C125.1,104.8,124.2,104.6,123.6,105z"/>
	<path class="st0" d="M127.9,109.7c-0.5,0.5-0.3,1.5,0.4,2.2c0.7,0.7,1.7,0.7,2.2,0.1c0.5-0.6,0.3-1.5-0.4-2.1
		C129.3,109.3,128.4,109.2,127.9,109.7z"/>
	<path class="st0" d="M174.4,135.9c-0.2-0.2-0.5-0.4-0.8-0.6c-0.3-0.1-0.6-0.3-0.9-0.3c-0.3,0-0.6,0-0.8,0c-0.5,0.1-0.8,0.4-0.9,0.7
		c-0.1,0.4,0.1,0.7,0.3,1.1c0.1,0.2,0.3,0.3,0.5,0.5c0.2,0.1,0.4,0.3,0.6,0.4c0.2,0.1,0.4,0.2,0.7,0.3c0.2,0.1,0.4,0.1,0.6,0.1
		c0.4,0,0.8-0.1,1.1-0.4c0.2-0.3,0.3-0.7,0.1-1.1C174.8,136.4,174.6,136.1,174.4,135.9z"/>
	<path class="st0" d="M176.8,140.6c-0.4,0.1-0.6,0.4-0.7,0.8c-0.2,0.4-0.2,0.8-0.3,1.2c0,0.4,0,0.7,0.1,1.1c0.1,0.3,0.2,0.7,0.5,1
		c0.3,0.2,0.7,0.2,1.2-0.1c0.4-0.3,0.8-1,0.8-1.8c0.1-0.8-0.2-1.4-0.6-1.8C177.5,140.6,177.1,140.5,176.8,140.6z"/>
	<path class="st0" d="M159.2,141.6c-0.7,1-0.7,2.1-0.1,2.5c0.6,0.4,1.6-0.1,2.3-1c0.7-0.9,0.8-2,0.2-2.5
		C161.1,140.2,160,140.6,159.2,141.6z"/>
	<path class="st0" d="M166.6,135.3c-0.5-0.1-1.1,0.1-1.7,0.5c-1.1,0.7-1.5,1.9-1,2.4c0.5,0.5,1.6,0.4,2.4-0.2c0.4-0.3,0.8-0.6,1-1
		c0.2-0.4,0.3-0.7,0.2-1.1C167.5,135.6,167.1,135.3,166.6,135.3z"/>
	<path class="st0" d="M149.5,152.8c-1,0.6-1.5,1.6-1.1,2.2c0.4,0.6,1.5,0.7,2.5,0c1-0.7,1.5-1.7,1.1-2.3
		C151.6,152.1,150.5,152.2,149.5,152.8z"/>
	<path class="st0" d="M157.3,147.1c-0.3-0.2-0.7-0.2-1.1,0c-0.2,0.1-0.4,0.2-0.6,0.4c-0.1,0.1-0.2,0.2-0.3,0.3
		c-0.1,0.1-0.2,0.2-0.2,0.3c-0.6,0.8-0.8,1.8-0.3,2.4c0.5,0.5,1.7,0.3,2.5-0.8c0.1-0.1,0.2-0.3,0.3-0.4c0.1-0.1,0.1-0.3,0.1-0.4
		c0.1-0.3,0.1-0.5,0.1-0.7C157.7,147.7,157.6,147.3,157.3,147.1z"/>
	<path class="st0" d="M135.8,159c-1.1,0.2-1.9,0.9-1.8,1.6c0.1,0.7,1.1,1.2,2.4,1c1.2-0.2,2-1.1,1.8-1.8
		C138,159.1,136.9,158.7,135.8,159z"/>
	<path class="st0" d="M142.8,156.4c-1,0.5-1.7,1.4-1.3,2.1c0.3,0.7,1.4,0.8,2.5,0.3c1.1-0.5,1.7-1.5,1.3-2.2
		C145,156,143.9,155.9,142.8,156.4z"/>
	<path class="st0" d="M121.6,157.3c-0.5-0.2-1-0.4-1.4-0.4c-0.4,0-0.8,0.1-1,0.5c-0.2,0.3-0.2,0.7,0,1.1c0.2,0.4,0.6,0.9,1.2,1.2
		c0.6,0.3,1.1,0.4,1.6,0.4c0.5-0.1,0.8-0.3,1-0.6c0.1-0.3,0-0.7-0.2-1.1C122.5,157.9,122.1,157.5,121.6,157.3z"/>
	<path class="st0" d="M129.9,159.8c-0.2-0.1-0.4-0.2-0.6-0.3c-0.2-0.1-0.5-0.2-0.8-0.2c-1.1-0.1-2.1,0.3-2.2,1
		c-0.2,0.7,0.7,1.5,2,1.6c0.3,0,0.6,0,0.9,0c0.3-0.1,0.5-0.1,0.7-0.3c0.4-0.2,0.7-0.6,0.7-0.9C130.5,160.4,130.3,160.1,129.9,159.8z
		"/>
	<path class="st0" d="M113.3,144.8c-0.2-1.1-0.9-2-1.7-1.9c-0.7,0.1-1.2,1.2-1,2.4c0.2,1.2,1.1,2,1.8,1.8
		C113.2,147,113.5,146,113.3,144.8z"/>
	<path class="st0" d="M115.2,151.1c-0.2-0.2-0.3-0.3-0.5-0.5c-0.4-0.2-0.8-0.3-1.1-0.2c-0.3,0.1-0.6,0.5-0.6,1c0,0.2,0,0.5,0,0.8
		c0.1,0.3,0.2,0.6,0.3,0.8c0.3,0.6,0.8,1,1.2,1.2c0.5,0.2,0.9,0.2,1.1-0.1c0.3-0.2,0.4-0.6,0.4-1.1c0-0.4-0.2-0.9-0.4-1.4
		C115.5,151.5,115.4,151.3,115.2,151.1z"/>
	<path class="st0" d="M110.8,131.8c0.7,0,1.3-1,1.2-2.2c0-1.2-0.7-2.1-1.4-2.1c-0.7,0-1.3,1-1.2,2.2
		C109.4,130.9,110,131.8,110.8,131.8z"/>
	<path class="st0" d="M112.4,137.3c-0.1-1.2-0.7-2.1-1.5-2c-0.7,0-1.3,1-1.2,2.2c0.1,1.2,0.8,2.1,1.5,2
		C112,139.4,112.5,138.5,112.4,137.3z"/>
	<path class="st0" d="M109.5,116.3c0.7-0.1,1.1-1.2,0.7-2.5c-0.1-0.3-0.2-0.6-0.4-0.8c-0.2-0.2-0.3-0.4-0.5-0.6
		c-0.4-0.3-0.8-0.4-1.1-0.2c-0.3,0.1-0.6,0.5-0.6,0.9c0,0.2,0,0.5,0,0.7c0,0.2,0.1,0.5,0.1,0.8C108,115.7,108.7,116.4,109.5,116.3z"
		/>
	<path class="st0" d="M110.4,124c0.7,0,1.3-1,1.2-2.2c-0.1-1.2-0.8-2.1-1.5-2c-0.7,0.1-1.2,1.1-1.1,2.2
		C109,123.1,109.7,124,110.4,124z"/>
	<path class="st0" d="M102.9,102.3c0.6-0.4,0.6-1.6-0.2-2.5c-0.7-1-1.8-1.4-2.4-0.9c-0.5,0.5-0.4,1.6,0.3,2.5
		C101.3,102.3,102.3,102.7,102.9,102.3z"/>
	<path class="st0" d="M104.8,105.3c-0.6,0.4-0.7,1.5-0.1,2.5c0.5,1,1.5,1.6,2.1,1.3c0.7-0.3,0.8-1.5,0.2-2.5
		C106.4,105.4,105.4,104.9,104.8,105.3z"/>
	<path class="st0" d="M54.2,104.1c-0.7-0.3-1.5,0-1.8,0.8c-0.3,0.8,0,1.6,0.7,1.9c0.7,0.3,1.5-0.1,1.8-0.8
		C55.1,105.2,54.9,104.4,54.2,104.1z"/>
	<path class="st0" d="M57.3,99.9c-0.4-0.6-1.4-0.6-2,0.1c-0.6,0.7-0.5,1.6,0.1,2c0.6,0.4,1.4,0.2,1.9-0.2
		C57.7,101.3,57.8,100.5,57.3,99.9z"/>
	<path class="st0" d="M50.1,113.8c-0.7-0.3-1.5,0-1.8,0.7c-0.3,0.7-0.1,1.5,0.5,1.9c0.6,0.4,1.5,0.1,1.9-0.7
		C51,115,50.8,114.1,50.1,113.8z"/>
	<path class="st0" d="M52.8,110.8c0.3-0.7,0-1.6-0.7-1.8c-0.7-0.3-1.5,0.1-1.8,0.9c-0.3,0.7,0,1.5,0.7,1.8
		C51.7,111.9,52.5,111.5,52.8,110.8z"/>
	<path class="st0" d="M42,122c-0.3,0.2-0.5,0.5-0.6,0.8c-0.1,0.3-0.1,0.7,0.1,1c0.2,0.3,0.5,0.5,0.8,0.6c0.4,0.1,0.8,0,1.1-0.2
		c0.7-0.5,0.9-1.4,0.4-2C43.5,121.7,42.6,121.6,42,122z"/>
	<path class="st0" d="M47.7,120.4c0.5-0.7,0.5-1.6-0.2-2c-0.6-0.4-1.4-0.3-1.9,0.3c-0.5,0.6-0.5,1.4,0.1,1.9
		C46.2,121.1,47.1,121.1,47.7,120.4z"/>
	<path class="st0" d="M32.7,125.3c-0.8,0.1-1.3,0.7-1.3,1.5c0.1,0.7,0.8,1.3,1.6,1.2c0.8-0.1,1.4-0.8,1.3-1.6
		C34.2,125.6,33.5,125.2,32.7,125.3z"/>
	<path class="st0" d="M37.6,124.1c-0.7,0.2-1.1,1-0.9,1.7c0.2,0.7,1,1.1,1.8,0.8c0.8-0.2,1.2-1.1,0.9-1.8
		C39.1,124.2,38.3,123.9,37.6,124.1z"/>
	<path class="st0" d="M22.6,125c-0.7-0.1-1.5,0.3-1.7,1c-0.2,0.7,0.3,1.5,1.2,1.6c0.8,0.2,1.6-0.4,1.7-1.1
		C23.9,125.8,23.4,125.1,22.6,125z"/>
	<path class="st0" d="M27.7,125.5c-0.8,0-1.4,0.5-1.5,1.3c-0.1,0.7,0.6,1.4,1.4,1.4c0.8,0,1.5-0.6,1.5-1.3
		C29.1,126.1,28.4,125.5,27.7,125.5z"/>
	<path class="st0" d="M7.3,116.3c-0.4-0.4-0.8-0.7-1.2-0.9c-0.4-0.2-0.8-0.2-1.1,0c-0.3,0.2-0.4,0.6-0.4,1.1
		c0.1,0.5,0.2,1.1,0.7,1.5c0.4,0.5,0.9,0.8,1.4,0.9c0.5,0.1,0.9,0,1.1-0.2c0.3-0.3,0.3-0.7,0.2-1.1C7.9,117.2,7.7,116.7,7.3,116.3z"
		/>
	<path class="st0" d="M13.1,121c-1-0.6-2.1-0.6-2.5,0c-0.4,0.6,0.1,1.7,1.2,2.3c1.1,0.6,2.3,0.6,2.6-0.1
		C14.7,122.5,14.1,121.5,13.1,121z"/>
	<path class="st0" d="M3.4,100c-0.7-0.2-1.5,0.7-1.8,1.9c-0.2,1.2,0.3,2.3,1,2.4c0.7,0.1,1.4-0.8,1.6-1.9
		C4.5,101.2,4.1,100.2,3.4,100z"/>
	<path class="st0" d="M3.6,108.4c-0.3-0.4-0.6-0.6-1-0.6c-0.4,0-0.7,0.3-0.9,0.7c-0.2,0.4-0.2,1-0.1,1.7c0,0.3,0.2,0.6,0.3,0.9
		c0.1,0.3,0.3,0.5,0.5,0.6c0.3,0.3,0.7,0.5,1.1,0.4c0.3-0.1,0.6-0.5,0.7-0.9c0.1-0.2,0.1-0.4,0.1-0.7c0-0.2,0-0.5-0.1-0.8
		C4.1,109.2,3.8,108.8,3.6,108.4z"/>
	<path class="st0" d="M10.7,88c0.1-0.2,0.2-0.4,0.3-0.7c0.1-0.4,0.1-0.8-0.2-1.1c-0.2-0.3-0.6-0.4-1.1-0.2c-0.2,0.1-0.5,0.2-0.7,0.3
		c-0.1,0.1-0.3,0.2-0.4,0.2c-0.1,0.1-0.2,0.2-0.3,0.3c-0.4,0.5-0.7,1-0.8,1.5c-0.1,0.5,0.1,0.9,0.4,1.1c0.3,0.2,0.7,0.2,1.1,0.1
		c0.4-0.1,0.9-0.4,1.2-0.9c0.1-0.1,0.2-0.2,0.2-0.3C10.5,88.2,10.6,88.1,10.7,88z"/>
	<path class="st0" d="M6.3,94.9c0.2-0.5,0.2-1.1,0.2-1.5c0-0.4-0.2-0.8-0.6-1c-0.3-0.2-0.7-0.1-1.2,0.2c-0.4,0.3-0.7,0.8-1,1.3
		c-0.5,1.2-0.2,2.3,0.5,2.5C5.1,96.7,5.9,96,6.3,94.9z"/>
	<path class="st0" d="M21.4,79.9C21,80.2,20.9,80.6,21,81c0.1,0.4,0.4,0.6,0.8,0.7c0.4,0.1,1,0.2,1.5,0.1c1.1-0.2,2-1,1.9-1.7
		c-0.1-0.7-1.2-1.2-2.4-0.9C22.2,79.3,21.7,79.6,21.4,79.9z"/>
	<path class="st0" d="M16.6,81.5c-0.5-0.1-1.1,0-1.6,0.3c-1.2,0.6-1.7,1.6-1.3,2.3c0.4,0.6,1.5,0.6,2.5,0.1c0.5-0.3,0.9-0.6,1.2-1
		c0.3-0.4,0.4-0.8,0.2-1.1C17.4,81.8,17.1,81.5,16.6,81.5z"/>
	<path class="st0" d="M37.2,75.5c-0.3,0.4-0.6,0.8-0.8,1.2c-0.2,0.4-0.2,0.8,0,1.1c0.2,0.3,0.6,0.5,1.1,0.4c0.5-0.1,1.1-0.3,1.6-0.9
		c0.5-0.5,0.8-1.1,0.8-1.7c0-0.5-0.2-0.9-0.5-1.1C38.7,74.4,37.9,74.8,37.2,75.5z"/>
	<path class="st0" d="M28.8,79.7c0,0.4,0.3,0.7,0.7,0.9c0.2,0.1,0.4,0.2,0.7,0.2c0.3,0,0.6,0,0.9,0c0.6,0,1.2-0.3,1.6-0.6
		c0.4-0.3,0.5-0.7,0.4-1.1c-0.2-0.7-1.2-1.1-2.3-0.9c-0.3,0-0.5,0.1-0.8,0.2c-0.3,0.1-0.5,0.2-0.7,0.3C29,79,28.8,79.3,28.8,79.7z"
		/>
	<path class="st0" d="M46.4,79.6c0.6-0.4,0.7-1.4,0.2-2.3c-0.5-0.9-1.4-1.4-2-1c-0.7,0.3-0.8,1.4-0.3,2.3
		C44.8,79.6,45.8,80,46.4,79.6z"/>
	<path class="st0" d="M49,84.3c1,0.7,2.1,0.5,2.4-0.1c0.3-0.7-0.1-1.5-0.9-2c-0.7-0.5-1.7-0.6-2.2-0.1C47.8,82.5,48,83.6,49,84.3z"
		/>
	<path class="st0" d="M38.7,66c0.5,0.8,1.3,1.4,2,1.1c0.7-0.3,0.9-1.3,0.3-2.3c-0.5-1-1.6-1.4-2.2-1C38.3,64.2,38.2,65.1,38.7,66z"
		/>
	<path class="st0" d="M41.9,69.9c-0.7,0.3-0.9,1.3-0.6,2.2c0.4,1,1.3,1.6,1.9,1.3c0.7-0.3,0.9-1.3,0.5-2.2
		C43.5,70.2,42.6,69.6,41.9,69.9z"/>
	<path class="st0" d="M26.4,62.7c0.3,0.7,1.3,0.9,2.2,0.6c0.9-0.4,1.5-1.2,1.3-1.9c-0.2-0.7-1.2-1-2.3-0.6
		C26.7,61.2,26.1,62,26.4,62.7z"/>
	<path class="st0" d="M33,60.8c0,0.4,0.3,0.7,0.6,0.9c0.3,0.3,0.7,0.4,1.1,0.5c0.4,0.1,0.8,0.1,1.1,0c0.4-0.1,0.7-0.3,0.9-0.6
		c0.2-0.3,0.2-0.7-0.1-1.1c-0.3-0.4-0.8-0.8-1.4-0.9c-0.6-0.1-1.2,0-1.6,0.2C33.2,60.1,33,60.4,33,60.8z"/>
	<path class="st0" d="M13.7,65.4c-0.3,0.2-0.5,0.6-0.5,0.9c0,0.4,0.2,0.7,0.6,0.9c0.4,0.2,0.9,0.3,1.5,0.2c0.6-0.1,1-0.3,1.3-0.6
		c0.3-0.3,0.4-0.7,0.4-1c-0.1-0.4-0.4-0.6-0.7-0.8c-0.4-0.2-0.8-0.2-1.3-0.2C14.4,65,14,65.2,13.7,65.4z"/>
	<path class="st0" d="M19.9,65.1c0.2,0.7,1.2,1,2.2,0.7c1-0.4,1.6-1.2,1.3-1.9c-0.3-0.7-1.3-0.9-2.2-0.6
		C20.3,63.6,19.7,64.4,19.9,65.1z"/>
	<path class="st0" d="M4.2,62.6c0.5-0.5,0.5-1.5,0-2.2c-0.5-0.8-1.3-1.2-2-0.9c-0.7,0.3-0.9,1.4-0.2,2.4C2.6,62.8,3.7,63.1,4.2,62.6
		z"/>
	<path class="st0" d="M7.8,66.7c0.6,0.2,1.1,0.3,1.5,0.1c0.4-0.1,0.7-0.4,0.8-0.8c0.1-0.4,0-0.7-0.3-1c-0.2-0.3-0.6-0.6-1-0.8
		C8.4,64.1,8,64,7.6,64.1c-0.4,0.1-0.7,0.2-0.9,0.5c-0.2,0.3-0.2,0.7,0,1.1C6.8,66.1,7.2,66.5,7.8,66.7z"/>
	<path class="st0" d="M47.2,45.8c0.9,0.3,1.8-0.1,2-0.9c0.1-0.7-0.4-1.4-1.2-1.7c-0.8-0.2-1.7,0.1-2,0.8
		C45.8,44.7,46.3,45.5,47.2,45.8z"/>
	<path class="st0" d="M53.8,46.4c0.3-0.1,0.5-0.2,0.7-0.3c0.2-0.2,0.4-0.3,0.5-0.5c0.2-0.4,0.2-0.8,0-1.1c-0.2-0.3-0.5-0.5-0.8-0.6
		c-0.2-0.1-0.3-0.1-0.5-0.1c-0.2,0-0.3,0-0.5,0c-0.7,0.1-1.4,0.7-1.4,1.4C51.9,46,52.7,46.6,53.8,46.4z"/>
	<path class="st0" d="M36.3,40.2c0.1,0.1,0.2,0.2,0.3,0.2c0.2,0.1,0.4,0.1,0.6,0.1c0.4,0,0.7-0.2,0.9-0.5c0.2-0.3,0.2-0.7,0.1-1
		c0-0.2-0.1-0.4-0.2-0.5c0-0.1-0.1-0.1-0.1-0.2c-0.1-0.1-0.2-0.2-0.3-0.3c-0.8-0.7-1.8-0.6-2.2,0c-0.4,0.6-0.1,1.5,0.5,2
		C36.1,40.1,36.2,40.2,36.3,40.2z"/>
	<path class="st0" d="M41.4,43.4c0.9,0.4,1.8,0.2,2.1-0.5c0.3-0.7-0.1-1.5-0.9-1.9c-0.8-0.4-1.7-0.2-2.1,0.4
		C40.2,42.1,40.6,43,41.4,43.4z"/>
	<path class="st0" d="M25.7,35.8c0.9,0.1,1.7-0.3,1.8-1c0.2-0.7-0.5-1.5-1.4-1.6c-1-0.2-1.8,0.4-1.8,1.1
		C24.2,35,24.8,35.6,25.7,35.8z"/>
	<path class="st0" d="M31.2,37.3c0.8,0.3,1.7,0.1,2-0.6c0.3-0.7-0.1-1.5-1-1.9c-0.9-0.4-1.8,0-2.1,0.7
		C29.9,36.2,30.4,36.9,31.2,37.3z"/>
	<path class="st0" d="M14.3,36.4c0.8-0.2,1.4-1,1.2-1.7c-0.1-0.7-1-1.1-2-0.9c-0.9,0.3-1.5,1.1-1.2,1.8
		C12.6,36.4,13.5,36.7,14.3,36.4z"/>
	<path class="st0" d="M19.9,35.5c0.9,0,1.6-0.6,1.6-1.4c0-0.7-0.8-1.3-1.7-1.3c-1,0.1-1.7,0.7-1.6,1.5
		C18.3,35.1,19.1,35.6,19.9,35.5z"/>
	<path class="st0" d="M3.1,43.2c0.6,0.3,1.5,0.1,2-0.5c0.5-0.7,0.6-1.6,0-2.1C4.6,40,3.6,40.2,3,41C2.4,41.8,2.4,42.8,3.1,43.2z"/>
	<path class="st0" d="M8.1,39.1c0.4,0,0.8-0.1,1.1-0.3c0.7-0.4,1-1.3,0.7-2c-0.4-0.7-1.3-0.8-2.2-0.3c-0.4,0.3-0.7,0.7-0.8,1
		c-0.1,0.4,0,0.8,0.2,1.1C7.4,39,7.7,39.1,8.1,39.1z"/>
</g>
<path d="M180,141.5c-0.4-8.2-9.5-11.7-16.3-8.7c-3.8,1.7-6.3,5.5-9.1,8.5c-3.4,3.7-7.5,6.9-12.2,8.8c-4.5,1.7-8.9,0.6-12.4-2.6
	c-3.6-3.4-4.7-8.2-4.5-13c0.2-4,0.9-7.9,1.2-11.8c0.3-4,0-8-0.9-11.9c-0.4-1.6-0.9-3.2-1.5-4.8c0.8,1,1.7,2,2.6,3
	c3.1,3.3,6.8,6.3,10.8,8.2c7.9,3.8,17.3,5.9,25.4,1.3c6.6-3.8,11.1-11.2,13.2-18.3c1.2-4.1,1.4-8.4,0.8-12.6
	c-0.7-4.6-3-8.6-5.3-12.5c-0.8-1.4-1.3-2.9-1.7-4.5c-0.2-1-0.1-2.5,0.4-3.6c0.6-0.9,1.4-1.4,2.7-1c0.2,0.1,0.4,0.2,0.6,0.3
	c0.3,0.2,0.7,0.6,1.1,0.8c0.1,0,0.1,0.1,0.2,0.1c0.8,0.7,0.9,1.5,0.8,2.6c-0.1,0.4-0.1,0.6,0,1c0,0,0,0,0.1,0.1
	c1.5,0.1,2.2-2.4,2.4-3.6c0.3-2.4-1.1-4.7-3.4-5.5c-2.1-0.8-4.5,0.5-5.9,2c-1,1.2-1.6,2.4-1.9,3.7c-0.2,0.8-0.3,1.6-0.3,2.4
	c0.1,5,1.7,9.9,2.6,14.8c1,4.9,1.2,10.3-1.1,14.8c-2.1,4.2-6.2,7.2-10.7,8.5c-4.8,1.4-10,0.4-14.2-2.1c-3.8-2.2-6.6-5.8-9.1-9.3
	c-1.5-2.2-3.1-4.6-4.9-6.7c6,2.7,12.2,4.7,18.9,4c8.5-0.9,13.6-7.6,15.9-15.2c4.4-14.7,2.1-39.4-17.9-39.4c-3,0-6.1,0.7-8.7,2.3
	c-2.5,1.6-3.8,4.3-4.9,6.9c-0.8,2-1.6,3.9-2.9,5.7c-1.2,1.6-3.5,4.5-5.7,3.8c-0.7-0.2-1.1-0.2-1.3,0c-0.1,0.1-0.1,0.2-0.1,0.3
	c-0.1,0.4,0.1,0.9,0.4,1.3c0.2,0.2,0.4,0.3,0.7,0.4c1.2,0.9,2.9,0.7,4.4,0.4c2.2-0.5,4.1-1.9,5.6-3.7c1.6-1.9,2.2-4.5,3-6.8
	c0.5-1.7,1.1-3.1,2.5-4.3c2-1.8,5.2-2.4,7.8-1.8c0.8,0.2,1.7,0.4,2.5,0.8c4,1.8,7.4,5.5,9.5,9.3c4.9,8.9,0.5,20.1-7.4,25.7
	c-2,1.4-4.4,2.3-6.9,2.3c-2.7,0-5.1-1.4-7.2-3c-3.5-2.7-6.6-6.1-10.5-8.3c-2.5-1.3-5.1-2.1-7.8-2.2c1-2.4,1.6-4.9,1.8-7.6
	c0.3-5-1-9.8,2.5-14c2.8-3.4,7.4-5.4,11.6-6.7c4.7-1.4,9.6-1.4,14.4-2.2c7.8-1.3,12.9-8,13.4-15.7c0.5-7.5-3.6-14.5-9.9-18.2
	C152,3,150.9,2.4,149.7,2c-2.3-0.7-4.6-1.1-7-1c-3.6,0.1-7,0.9-10.4,2c-0.9,0.4-1.8,0.8-2.7,1.2c-4.2,2.1-7.6,5.3-11,8.5
	c-1.7,1.7-3.3,3.6-5,5.2c-1.3,1.2-2.9,2.2-4.5,1.4c-0.9-0.8-0.9-2.6-0.8-3.7c0.1-1,0.8-2.1,0.5-3.1c-0.3-1-2,0.9-2.2,1.1
	c-1,1.5-1.5,2.9-1.7,4.4c0,0,0,0,0,0.1c0,1.6,0.3,3.2,1.1,4.5c0.6,0.7,1.3,1.3,2.2,1.7c0.1,0,0.2,0.1,0.3,0.1c0,0,0,0,0,0
	c2.8,1.3,5.7-0.3,8.2-2.2c4-3,7.5-6.6,11.6-9.3c4.3-2.9,9.2-4.5,14.4-4.3c4.8,0.2,9.7,2.4,12.5,6.3c2.9,4.2,2.5,10.1-1.2,13.7
	c-3.9,3.9-10,2.9-14.8,2.1c-4.5-0.8-9-1.6-13.5-0.4c-8.2,2.2-10.5,10.8-11.5,18.2c-0.7,5-0.8,10.1-3.1,14.7c-0.6,1.2-1.3,2.2-2.2,3
	c-1.5,1-3,1.5-4.9,1.1c-2.1-0.4-3-2.3-3.4-4.1c-0.9-3.5,0.8-7.2,2.4-10.5c0.3-0.5,0.5-1,0.8-1.5c1.8-3.7,2.4-8.2,2.4-12.3
	c0-4.6-0.7-9.1-2.7-13.3c-1.8-3.8-4.8-6.2-8.6-7.9c-7.5-3.3-16.9-1.9-23.6,2.7c-6.6,4.5-10.2,12.3-10.6,20.2
	c-0.2,2.8,0.2,5.6,0.9,8.3c0.8,2.9,2.5,5.4,3.4,8.2c-0.5,0.7-0.9,1.4-1.1,2.1c-1,3.5,0.2,7.2,2.6,9.9c-0.3,0.3-0.6,0.6-0.9,0.9
	c-1.2,1.2-2,0.6-2.8-0.2c-0.9-0.9-1.5-2.1-2.2-3.1c-1.4-2.1-2.6-4.4-4-6.4c-2.5-3.6-5.6-6.8-9.4-8.9c-3.9-2.2-8.1-2.4-12.4-1.5
	c-4.7,1.1-8.8,3.7-13.2,5.6c-4,1.8-9.3,2.6-11-2.4C9,48.6,11,43.3,14.7,40.9c3.3-2.1,7.6-1.5,11.5-0.6c3,1.1,5.7,2.9,8.6,4.4
	c3.4,1.7,7,3.3,10.9,3.8c3.3,0.5,7,0.2,10-1.5c2-1.2,3.4-3.1,3.1-5.4c0-0.3,0-0.5-0.1-0.8c-0.2-0.3-0.5-0.3-0.7-0.1
	c-0.1,1-0.6,2-1.7,2.7c-1,0.7-2.5,1-3.7,1.2c-2.5,0.4-5.1-0.2-7.4-1.1c-4.5-1.7-8.3-4.9-12.6-6.9c-7.4-3.5-16-3.5-23.2,0.6
	c-6.3,3.6-10.2,10.8-9.2,18c0.5,3.7,2.6,7.1,5.7,9.1c3.4,2.2,7.7,2.3,11.5,1.4c2.7-0.7,5.2-1.6,7.8-2.6c2.6-1,5.2-2.3,8.1-2.4
	c4.6-0.2,6.8,4.3,8.6,7.8c0.2,0.3,0.3,0.7,0.5,1c0.5,1.6,1,3.2,1.6,4.7c1,2.5,2.5,4.8,4.2,6.8c0.9,1.1,2,1.9,3.1,2.6
	c-0.5,0.3-1,0.7-1.5,1c-3.2,2.5-5.7,5.9-7.4,9.5c-2,4.3-3.1,8.9-6.2,12.7c-3,3.7-7.6,6.3-12.1,7.6c-4.9,1.4-10.1,0.2-13.3-3.9
	C8,107,8,101.9,9.5,97.8c1-2.8,2.8-5.1,5-6.9c1.2-1.5,2.8-2.7,4.4-3.4c0.4-0.2,0.8-0.3,1.3-0.5c0.7-0.3,1.4-0.5,2-0.8
	c3.9-1.3,8.1-1.7,12-3.2c2.9-1.1,5.1-3,6.4-5.9c0.1-0.3,0.2-0.7,0.3-1c0-0.1,0-0.2,0-0.3c0-0.6-0.1-1.1-0.3-1.6
	c-0.2-0.4-0.7-0.7-0.9-0.4c-0.7,5.4-8.8,5.4-12.9,5.7c-4.4,0.4-8.5,1.4-12.2,3.8C8,87.3,3.6,94.5,2.3,101.9
	c-1.5,8.2,1.9,16,9.1,20.4c7.1,4.4,16.7,5.3,24.8,3.5c3.4-0.8,6.6-2.3,9.2-4.7c2.8-2.6,4.4-6,5.8-9.5c1.8-4.1,3.3-8.4,5.6-12.3
	c0.1-0.2,0.3-0.5,0.4-0.7c-0.3,1.1-0.5,2.3-0.7,3.4c-0.6,3.5,0,7.2,1.2,10.5c0.6,1.5,1.2,3.1,2,4.5c0.4,1.2,0.7,2.4,1.1,3.7
	c1.3,5,1.3,10.8-1.8,15.1c-3,4.2-9.2,6.1-14.1,5.6c-4.5-0.5-8.3-3.3-12.4-5.2c-3.5-1.6-7.6-2.5-11.2-0.8c-3.1,1.5-3.5,5.1-3,8.2
	c0.1,0.8,0.3,1.7,0.5,2.5c0,0,0,0,0,0c0.1,0.6,0.2,1,0.4,1.5c0,0.1,0.2,0,0.2,0c0.6-0.5,0.6-1.4,0.6-2.2c0-0.3,0-0.6,0-0.8
	c0.1-2.5,1.1-5.2,3.6-6.2c2.5-1,5,0.4,7.4,1.7c0.3,0.2,0.6,0.4,0.9,0.6c2.2,1.3,4.4,2.5,6.7,3.6c7.4,3.7,16.7,3.6,23.4-1.6
	c6.4-5,8.7-13.3,8.8-21.1c0-2.4-0.2-4.7-0.5-7.1c-0.4-2.9-0.8-5.8,0.1-8.6c0.8-2.4,2.7-4.4,4.7-5.8c0.2-0.1,0.4-0.2,0.5-0.4
	c-0.3,1.1-0.5,2.3-0.7,3.6c-0.6,4.4,0.3,9,2.5,12.8c0.5,1.2,1.2,2.3,2.2,3.4c3,3.3,7,5.3,8.6,9.6c1.9,5.2-1.3,10.1-5.6,12.9
	c-3.7,2.4-8.3,2.9-12.1,5.3c-3,1.9-5.3,4.7-6,8.2c-1.1,5.4,2.9,10.8,7.9,13c0,0,0,0.1,0,0.1c0.1,0,0.2,0.1,0.3,0.1
	c1.5,0.6,3,0.9,4.5,0.8c1.3-0.2,2.5-0.7,3.7-1.2c1.1-0.5,2.1-1.1,3-1.9c0.1-0.1,0.2-0.2,0.3-0.2c0.8-0.7,1.5-1.5,2-2.4
	c0.4-0.7-0.1-1.1-0.7-0.9c-0.8,0.2-1.7,0.7-2.4,1.2c-1.1,0.7-2.1,1.3-3.4,1.6c-1.4,0.3-2.9-0.2-4.2-0.5c-2.4-0.7-4.1-1.9-5.1-4.2
	c-1.3-3.1,0.2-6,2.4-8.2c3.5-3.4,8.1-4.6,12.6-5.9c4.4-1.3,8.2-3.9,11.6-6.9c1.4-1.2,2.6-2.6,3.7-4.2c1.1-1.7,1.3-3.8,1.5-5.8
	c0.3-4.1,0.3-8.5-2.2-12c-3.4-4.7-14-10.6-9.1-17.6c0.3-0.5,0.8-0.9,1.2-1.3c0.4-0.3,0.8-0.5,1.2-0.7c1.9-1,4.4-0.9,6.4,0.3
	c0.6,0.4,1.1,0.8,1.6,1.3c0.5,0.5,0.9,1,1.4,1.6c1.2,1.6,2.2,3.5,3.3,5.3c0.4,0.9,0.8,1.9,1.1,2.9c0.3,0.7,0.6,1.5,0.9,2.2
	c0.4,1.2,0.7,2.5,1.1,3.7c0.6,2.4,1,4.9,1.2,7.3c0.8,9.3-1.8,19.3,2.9,28c4.1,7.5,12.8,10.8,21,10.4c8.4-0.4,15.7-5,21.3-11
	c2.3-2.5,4.4-5.3,6.5-8.1c1-1.3,2.1-2.6,3.3-3.7c3.7-2.7,9.9-1.7,11,3.4c0.7,3.2-1.7,6.8-5.2,6.4c-1-0.1-3-1.9-3.8-1c0,0,0,0,0,0
	c0,0,0,0,0,0c-0.1-0.2-0.5,0.2-0.3,0.4c1.3,1.5,2.5,3,4.5,3.5c1.6,0.4,3.3-0.2,4.6-1C178.7,147.9,180.2,144.6,180,141.5z"/>
<path class="st4" d="M174.8,149.8c-2.7,1.2-4.7-0.2-6.5-1.9c0,0,0-0.1,0-0.1c-0.5-0.8-1.1-0.9,0-0.5c0.8,0.3,1.6,0.7,2.4,0.9
	c1.3,0.3,2.7-0.4,3.8-1.1c2.2-1.4,2.7-4.3,2.2-6.6c-0.3-1.4-1-2.4-1.9-3.1c-0.7-0.4-1.4-0.8-2.1-1.1c-0.6-0.2-1.2-0.3-1.8-0.3
	c0.1,0,0.3,0,0.4,0c0.1,0,0.1,0,0.1-0.1c-0.4-0.1-0.8-0.1-1.2-0.1c-1.3,0.1-2.6,0.3-3.9,0.8c-1.7,0.9-3,2.5-4.2,4
	c-3.1,3.8-5.8,7.8-9.3,11.2c-7,6.7-16.8,10-26.3,7.7c-4.3-1-8.2-3.4-11-6.8c-3.2-3.7-4.4-8.6-4.7-13.4c-0.3-4.9,0.2-9.9,0.1-14.8
	c-0.1-4.2-0.9-8.2-2.1-12.1c-0.7-3.1-1.8-6.1-3.5-8.8c-1.5-2.4-3.3-5.1-5.8-6.5c-0.6-0.4-1.4-0.6-2.1-0.7c-0.8-0.1-1.9,0-2.7,0.3
	c-1.1,0.4-2.5,1.1-3.3,1.9c-7.2,6.7,3,14,7.3,18.8c3.4,3.8,3.1,9.4,2.6,14.1c-0.6,5.3-5.9,9.4-10.2,12c-4.2,2.5-9,3.1-13.4,5.1
	c-3,1.4-6.4,3.8-7.8,7c-1.2,2.6-0.7,5.7,1.2,7.9c1.8,2.1,6.2,3.4,8.9,2.5c1.2-0.4,2.3-1,3.3-1.7c0.5-0.3,1-0.6,1.5-0.8
	c1.6-0.7,0.2,1.2-0.2,1.7c-2.3,2.6-5.7,3.7-9,3.6c-1.8-0.3-3.6-1.1-5.1-2.1c-4-2.7-6.6-8.1-5.1-12.8c1.6-4.8,6.8-7.1,11.2-8.6
	c3.8-1.3,7.2-2.7,9.9-5.8c2.4-2.8,3.3-6.5,2.3-10c-1-3.9-4.5-6.3-7.4-8.9c-1.2-1-2.2-2.2-3-3.4c-0.1-0.2-0.3-0.5-0.4-0.7
	c-1.4-2-2.4-4.6-2.5-7.1c-0.2-1.4-0.4-2.8-0.3-4.3c0-0.7,0.1-1.4,0.2-2.1c0.1-1.7,0.4-3.3,1.2-4.8c0.2-0.4,0.4-0.8,0.7-1.2
	c0.5-0.9,1.1-1.7,1.8-2.5c0.4-0.5,0.7-0.9,1.1-1.4c-1.1,0.9-2,1.9-2.9,3.2c-0.7,1.1-1.2,2.2-1.5,3.3c-3.1,1.6-5.4,4.6-6.2,7.9
	c-0.5,2.1-0.2,4.4,0.1,6.5c0.3,2.6,0.6,5.1,0.7,7.7c0.1,4.9-0.8,9.9-2.9,14.3c-4.4,9-15.3,12.8-24.6,9.8c-4.5-1.4-8.6-4.2-12.7-6.6
	c-0.6-0.2-1.3-0.4-1.8-0.6c-1.4-0.4-3-0.8-4.4-0.3c-0.8,0.3-1.4,0.7-1.9,1.2c-0.5,0.5-0.9,1.1-1.3,1.7c-0.8,1.4-1.1,3.2-1.1,4.9
	c0,0.1,0,0.2-0.1,0.2c0,0,0,0,0,0c0.1,0.5,0,0.9-0.1,1.4c-0.1-0.1-0.1-0.2-0.1-0.3c-0.1-0.4-0.1-0.8-0.2-1.1c0-0.1-0.1-0.1-0.1-0.2
	c0-0.1,0-0.1,0-0.2c-0.3-1.7-0.6-3.4-0.5-5.2c0.3-3.2,2.9-4.8,5.8-5.1c4.8-0.5,9.4,2.4,13.4,4.6c3.6,1.9,7.8,3,11.9,2
	c3.8-0.9,7.5-2.9,9.9-6.1c2.3-3.2,2.7-7.4,2.5-11.2c-0.1-1-0.3-2.1-0.5-3.1c-0.1-0.5-0.2-1.1-0.3-1.6c-0.7-1.9-1.4-3.8-2.1-5.7
	c-0.1-0.3-0.2-0.6-0.3-0.9c0,0,0,0,0,0c-0.4-1-0.9-2-1.1-3.1c-0.4-1.7-0.7-3.2-0.8-4.9c-0.1-2.5,0.3-5.1,1.1-7.6
	c0.1-0.7,0.4-1.4,0.7-2c0,0,0,0,0,0.1c0.2-0.6,0.5-1.1,0.8-1.7c1.6-3.1,4.8-5.6,7.9-7.1c0.1,0,0.2-0.3,0-0.2
	c-2.9,1.3-5.5,3.3-7.4,5.8c-1.1,1.4-1.8,3-2.3,4.7c-2.1,3.2-3.7,6.7-5.2,10.3c-1.9,4.7-3.6,9.6-7.2,13.2c-3.7,3.6-8.9,4.9-13.9,5.2
	c-8.6,0.6-18.3-1.5-24.3-8.1c-6.6-7.3-5.2-18.1-0.4-26c4.3-7,11.2-11.1,19.3-11.9c3.4-0.3,6.9-0.2,10.1-1.6c2-0.9,3.8-2.5,3.9-4.7
	c0,0,0.1,0.1,0.1,0.1c0.2,0.5,0.3,1.9,0.4,2c-0.1,0.9-0.6,1.9-1,2.7c-0.9,1.5-2.3,2.5-3.8,3.4c-2.9,1.6-6.4,2.1-9.6,2.8
	c-5.7,1.3-10.9,3.6-14.4,8.4c0,0,0,0,0,0.1C9.5,96,8.1,99.4,8,103.1c-0.1,3.7,1.3,7.3,4,9.8c3.1,2.9,7.5,3.2,11.5,2.4
	c3.9-0.8,7.5-2.9,10.5-5.4c3.1-2.6,5.1-6.1,6.6-9.9c1.8-4.5,3.5-8.8,6.8-12.5c1.2-1.4,2.6-2.5,4-3.3c1.5-1.1,3.2-1.9,5-2.4
	c0.1-0.1,0.3-0.2,0.4-0.2c-1.7,0.4-3.3,1-4.8,1.8c-1.4-0.8-2.6-1.9-3.7-3.1c-1.5-1.8-2.7-3.8-3.7-5.9c-0.2-0.3-0.3-0.7-0.5-1.1
	c0-0.1-0.1-0.2-0.1-0.3c-0.2-0.4-0.3-0.8-0.5-1.2c0,0.1,0.1,0.1,0.1,0.2c-0.4-1.1-0.8-2.3-1.2-3.4c-0.2-0.5-0.5-0.9-0.7-1.3
	c-1.4-2.7-3.1-5.6-6.1-6.6c-3.9-1.3-8.6,1.5-12.1,2.8c-4.8,1.8-9.7,3.3-14.8,1.8c-4.3-1.3-7.2-5.4-8.1-9.6
	c-1.9-9.4,5.4-17.5,13.9-20c4.4-1.3,9-1.1,13.4,0.1c4.9,1.4,8.9,4.4,13.3,6.8C45,44.5,49.2,46,53.4,45c1.4-0.3,3-0.9,4-2.1
	c0.3-0.4,0.6-0.8,0.7-1.2c0.8,3.8-5.3,6.1-8.3,6.3c-3.3,0.2-6.5-0.4-9.6-1.5c-3.1-1.1-6-2.7-8.9-4.2c-0.7-0.4-1.5-0.8-2.3-1.2
	c0,0,0,0,0.1,0c-1.2-0.6-2.5-1.2-3.8-1.7c-2.7-0.6-5.4-0.8-7.9-0.2c-3.5,0.9-6,3.4-7.1,6.7c-0.9,2.6-0.7,5.8,0.5,8.2
	c1.7,3.2,5.3,3.2,8.4,2.3c4.7-1.5,8.9-4.4,13.6-5.9c5.1-1.6,10.2-1.3,14.8,1.4c5,2.9,8.4,7.9,11.2,12.8c0.7,1.2,1.4,2.4,2.1,3.6
	c0.5,0.8,1.2,2,2.1,2.5c1.6,0.8,2.7-0.6,3.6-1.8c0.1,0.2,0.3,0.3,0.5,0.5c0.1-0.2,0.2-0.3,0.2-0.5c-0.2-0.2-0.3-0.3-0.5-0.5
	c0,0,0,0,0,0c-1.5-1.6-2.4-3.7-2.8-6c-0.3-1.8,0-3.9,1.1-5.5c0.1,0,0.1-0.1,0.1-0.1c0.2-0.2,0.3-0.4,0.5-0.6
	c1.2-1.1,3.1-1.9,4.7-1.5c0.2-0.1,0.4-0.1,0.7-0.1c-2.1-0.9-4.5,0.3-6,2c-0.6-2-1.5-3.7-2.3-5.6c-1-2.4-1.6-5-1.8-7.6
	c-0.4-4.9,0.7-9.9,2.9-14.4c4.3-8.6,13.2-13.1,22.6-12.8c4.7,0.1,9.6,1.7,13.1,4.9c3.6,3.3,5.1,8.4,5.7,13.1
	c0.6,5,0.2,10.4-1.5,15.1c-0.3,0.9-0.8,1.8-1.2,2.7c-0.4,0.9-0.9,1.8-1.3,2.8c0.1-0.1,0.2-0.3,0.3-0.4c-1.5,3.2-2.5,6.7-1.3,10.2
	c1,2.9,3.8,3.6,6.3,2.9c-0.7,0.3-1.4,0.6-2.2,0.7c-0.4,0.1-0.7,0.1-1,0.1c0.9,0.3,2,0.2,3-0.1c0.2-0.1,0.4-0.2,0.5-0.3
	c3.4-1.8,5.1-5.2,6.1-8.8c2.5-8.7,0.3-20.6,8.7-26.6c8.5-6.1,18.9,1.3,28.1-1.2c7.6-2.1,9.8-11.3,5.6-17.4c-2.6-3.7-7.5-5.6-11.9-6
	c-4.9-0.4-9.7,1-13.9,3.5c-4.5,2.6-8.2,6.4-12.2,9.6c-2.2,1.7-4.6,3.5-7.3,3.1c0,0,0,0,0,0c-1.8,0-3.6-1.2-4.3-2.9
	c-0.6-1.5-0.6-3.2-0.2-4.7c0.1-0.8,0.4-1.5,0.8-2.2c0.4-0.5,1.7-2,1.9-1.4c0.1,0.5-0.5,2.1-0.6,2.8c-0.1,0.7,0,1.4,0.1,2.1
	c0.1,0.3,0.1,0.5,0.2,0.8c0,0,0,0,0,0c0.1,0.2,0.2,0.3,0.3,0.5c0.4,0.6,1,1,1.6,1.2c0.9,0,1.8-0.3,2.5-0.9c1.7-1.2,3-2.7,4.4-4.3
	c1.7-1.9,3.7-3.7,5.6-5.4c1.8-1.5,3.7-2.9,5.7-4.1c1.2-0.8,2.5-1.4,3.8-1.9c5.3-2.3,11.2-3,16.9-1.1c7.8,2.6,13.3,10,13.5,18.2
	c0.1,4.7-1.7,9.5-5.2,12.7c-3.9,3.7-9.2,3.7-14.2,4.3c-7.4,0.8-16.2,3.3-20.7,9.7c-2.2,3.1-1.9,6.9-1.8,10.5
	c0.1,2.7-0.1,5.2-0.8,7.8c-0.2,0.8-0.5,1.6-0.8,2.3c-1.5,0-3.1,0.1-4.7,0.5c-1.3,0.3-2.5,0.7-3.7,1.3c-0.2,0.1-0.3,0.3-0.5,0.4
	c-0.3,0.2-0.5,0.4-0.7,0.7c1.8-1,3.8-1.7,5.9-2.1c0.7-0.1,1.4-0.2,2.1-0.2c1.3-0.4,2.9-0.2,4.3,0.4c2.7,0.6,5.2,1.8,7.4,3.3
	c3.7,2.5,6.6,6.1,10.4,8.4c3.5,2.1,7.4,1.8,10.9,0c6.9-3.5,11.6-12.2,11.5-19.8c-0.1-7.6-6.6-15.7-13.8-17.9
	c-2.8-0.9-5.8-0.2-8.2,1.4c-0.6,0.4-1.4,0.9-1.8,1.5c-1,1.2-1.4,2.7-1.9,4.3c-0.9,2.9-1.9,5.7-4.3,7.8c-1.5,1.3-4.3,2.4-6.5,1.9
	c0,0,0.1,0,0.1,0c-0.7-0.1-1.3-0.4-1.9-0.9c0,0,0,0,0,0c-0.1,0-0.1-0.1-0.2-0.1c-0.3-0.4-0.5-0.8,0.1-0.6c0.6,0.2,1.2,0.5,1.8,0.3
	c1.8-0.5,3.1-2.1,4.3-3.4c3.1-3.4,3.6-8.2,6.5-11.7c3.2-3.8,9.4-4.2,14-3.3c4.5,0.8,8.3,3.5,10.9,7.2c5.5,7.8,5.3,18.4,3.7,27.3
	c-0.9,5-2.7,10-6.3,13.8c-3.4,3.6-8.2,4.9-13.1,4.8c-5.8-0.1-11.2-2.1-16.5-4.4c-3.4-3.8-7.4-6.7-12.8-6.2c-1,0.1-2.1,0.4-3,0.8
	c-0.4,0.2-0.9,0.5-1.3,0.8c2-0.8,4.1-1.3,6.3-1.1c2.4,0.2,4.6,1.3,6.6,2.7c0.4,0.3,0.8,0.6,1.1,0.9c1.8,1.1,3.3,2.8,4.4,4.7
	c1.1,1.4,2,2.8,3,4.2c2.3,3.4,4.7,6.6,7.8,9.2c3.2,2.6,7.3,4,11.4,4.3c7.7,0.4,15.2-4.9,17.6-12.1c3.2-9.3-2.7-18.6-2.5-27.9
	c0-0.5,0.1-1,0.2-1.4c0.2-1,0.5-2,1.1-2.9c-0.1,0-0.1,0.1-0.2,0.1c0.1-0.1,0.1-0.2,0.2-0.3c1.2-1.8,3.3-2.9,5.5-2.6
	c1.5,0.2,2.7,1.4,3.3,2.7c0.4,1,0.4,2.1,0.3,3.1c-0.1,0.8-0.5,1.5-1,2.1c-0.5,0.6-0.5-0.1-0.4-0.6c0,0-0.1-0.1-0.1-0.2
	c0-0.3,0-0.6,0-0.9c-0.7-1.7-2.6-3.8-4.5-3c-1.6,0.6-2,2-2.2,3.4c-0.1,0.8-0.1,1.6,0,2.2c0.3,2,1.2,3.9,2.3,5.6
	c1.3,2.1,2.5,4.4,3.4,6.7c1.9,4.5,2,9.7,1.2,14.4c-1.5,8.6-7.3,17.6-15.4,21.3c-9.1,4.1-20.6-0.1-28.2-5.6c-3.6-2.6-6.5-5.8-9.2-9.2
	c-0.6-1.4-1.3-2.8-2.1-4.1c-0.3-0.5-0.6-1-1-1.4c-1-1-2.1-1.9-3.2-2.6c0.4,0.3,0.8,0.7,1.2,1.1c1.8,1.7,3.1,4.1,4.1,6.3
	c2.1,4.7,3.5,9.6,3.7,14.8c0.2,5-0.7,9.9-1.2,14.9c-0.4,4.2-0.1,8.4,2.1,12.1c1.8,3.1,4.9,5.4,8.4,6.2c4,0.9,8.1-1,11.4-3
	c3.7-2.2,6.8-5.2,9.6-8.4c1.7-1.9,3.3-4,5.4-5.5c2-1.4,4.4-2,6.8-2.1c5.6-0.1,10.1,3.9,10.8,9.5
	C179.9,145.2,177.9,148.5,174.8,149.8z"/>
<path class="st6" d="M96.2,96.7c0.1,0,0.2,0,0.3,0C96.4,96.7,96.3,96.7,96.2,96.7z"/>
<path class="st4" d="M88,18.4c2.9,1.1,5.3,3.3,7.1,5.8c4.7,6.6,5.3,15,3.8,22.7c-0.2,1.2-0.5,2.4-0.8,3.5c-0.2,0.6-0.3,1.3-0.6,1.9
	c-0.4,0.6-1.1,0.5-1.8,0.6c-3.9,0.1-6.8,2.7-7.9,6.1c2-2.4,5.2-4.2,7.9-3c5.1,2.3,2.5,9,0,12.8c1.2-0.7,2.2-1.7,3.3-2.5
	c0.1-0.1,0.3-0.1,0.5,0c1,0.8,2,2,3.3,2.2c0.7,0.1,1.5,0.1,2.2-0.1c-0.5,0-1,0-1.5-0.2c0.3,0,0.7,0,1-0.1c0.8-0.1,1.5-0.4,2.2-0.7
	c-2.5,0.7-5.3,0-6.3-2.9c-1.2-3.5-0.2-6.9,1.3-10.2c-0.1,0.1-0.2,0.3-0.3,0.4c0.4-0.9,0.9-1.9,1.3-2.8c0.5-0.9,0.9-1.7,1.2-2.7
	c1.7-4.7,2.1-10.2,1.5-15.1c-0.6-4.7-2.1-9.8-5.7-13.1c-3.5-3.2-8.4-4.7-13.1-4.9c-4-0.1-7.8,0.6-11.3,2.2c0.7-0.2,1.3-0.4,2-0.6
	C80.8,17.1,84.6,17,88,18.4z"/>
<path class="st4" d="M108.1,18.6C108.1,18.6,108.1,18.6,108.1,18.6c-0.1-0.2-0.2-0.5-0.2-0.7c-0.1-0.7-0.2-1.4-0.1-2.1
	c0.1-0.7,0.7-2.3,0.6-2.8c-0.1-0.4-0.7,0-1.2,0.6c-0.7,2.2-0.5,5,1.1,6.4c3.5,2.9,8.2-1.6,10.8-3.9c3.1-2.8,6-6.1,9.7-8.3
	c3.7-2.2,7.8-3.6,12.1-4c3.2-0.3,6.8-0.3,9.8,1.1c2.4,1.1,4.4,2.8,6.1,4.8c3.4,4.2,5.7,10.5,5.3,16.1c0.5-1.6,0.7-3.3,0.6-5.1
	c-0.2-8.2-5.7-15.6-13.5-18.2c-5.7-1.9-11.6-1.1-16.9,1.1c-1.4,0.5-2.7,1.1-3.8,1.9c-2,1.2-4,2.6-5.7,4.1c-1.9,1.7-3.9,3.5-5.6,5.4
	c-1.4,1.5-2.8,3-4.4,4.3c-0.7,0.6-1.6,0.9-2.5,0.9c-0.6-0.2-1.1-0.6-1.6-1.2C108.3,18.9,108.2,18.7,108.1,18.6z"/>
<path class="st4" d="M152.4,109.1c-4.1-0.2-8.2-1.7-11.4-4.3c-3.2-2.6-5.5-5.8-7.8-9.2c-1-1.4-2-2.9-3-4.2c-1.1-1.9-2.6-3.7-4.4-4.7
	c-0.4-0.3-0.7-0.6-1.1-0.9c-2-1.4-4.2-2.5-6.6-2.7c-1.5-0.2-3,0.1-4.4,0.4c2.3,0.2,4.6,1.1,6.6,2.4c6.3,4.1,9.5,10.4,13.5,16.4
	c4.4,6.7,10.7,12.3,19.3,11.2c8.2-1,15.1-7.4,17.7-15c1.6-4.7,1.9-9.8-0.2-14.3c-0.2-0.5-0.5-1.1-0.8-1.6c1.1,4.8,1.9,9.6,0.2,14.4
	C167.6,104.2,160.1,109.5,152.4,109.1z"/>
<path class="st4" d="M170.9,135.9c0.6,0,1.2,0.1,1.8,0.3c0.7,0.3,1.4,0.7,2.1,1.1c0.9,0.7,1.6,1.8,1.9,3.1c0.5,2.4,0,5.2-2.2,6.6
	c-1,0.7-2.5,1.4-3.8,1.1c-0.9-0.2-1.6-0.6-2.4-0.9c-1.1-0.4-0.5-0.3,0,0.5c0,0,0,0.1,0,0.1c0.4,0.4,0.8,0.8,1.2,1.1
	c0.5,0.1,1,0.2,1.5,0.2c2.6,0.1,5.1-1.2,6.3-3.5c1.6-3.1,1.1-7.3-2.3-9c-1-0.5-2.4-0.8-3.7-0.8c0,0,0,0,0,0
	C171.2,135.9,171.1,135.9,170.9,135.9z"/>
<path class="st4" d="M70.2,121.2c0-2.6-0.3-5.1-0.7-7.7c-0.3-2.1-0.6-4.4-0.1-6.5c0.8-3.3,3.1-6.4,6.2-7.9c0.3-1.1,0.8-2.2,1.5-3.3
	c0.7-1,1.4-1.9,2.3-2.7c-2,0.2-3.9,0.7-5.8,1.5c-3.5,1.4-6.7,3.8-8.7,7c-2.2,3.5-2.8,7.5-2.5,11.6c0.5,7.9,3.7,16.8-1.4,23.9
	c-4.1,5.7-11.3,7.9-18.1,6.3c-4.3-1-7.9-3.6-12.1-5c-1.3-0.4-3-0.8-4.6-0.7c0.6,0.1,1.3,0.3,1.9,0.5c0.5,0.1,1.1,0.3,1.8,0.6
	c4.1,2.4,8.2,5.1,12.7,6.6c9.3,2.9,20.2-0.8,24.6-9.8C69.4,131.1,70.3,126.1,70.2,121.2z"/>
<path class="st4" d="M35.6,81.9c1.5-0.8,2.9-1.8,3.8-3.4c0.4-0.7,0.8-1.5,1-2.3c-2,5.8-12.1,7.3-17.3,8.6c-5.5,1.3-12,3.1-14.6,8.8
	c-1.5,3.3-1.6,6.8-0.6,10c0-0.1,0-0.3,0-0.4c0.1-3.7,1.5-7.1,3.7-9.9c0,0,0-0.1,0-0.1c3.5-4.9,8.7-7.1,14.4-8.4
	C29.3,83.9,32.7,83.5,35.6,81.9z"/>
<path class="st4" d="M58.1,43.5c-2,1.5-4.9,2.3-7.1,2.5c-6.1,0.7-11.6-2.2-16.8-5c-4.2-2.3-8.9-4.8-13.8-4.7
	c-4.3,0.1-8.4,1.8-11.4,4.8C6.1,44,4,47.6,4.2,51.8c0.2,4.1,2.5,8.3,6.8,9.1c4,0.8,8.5-0.5,12-2.6c3.4-2,6.2-4.9,9.6-6.9
	c1.1-0.6,2.2-1.1,3.3-1.5c-1,0.2-2,0.4-3,0.7c-4.7,1.5-8.9,4.5-13.6,5.9c-3,0.9-6.7,0.9-8.4-2.3c-1.3-2.4-1.4-5.6-0.5-8.2
	c1.2-3.4,3.6-5.9,7.1-6.7c2.5-0.6,5.3-0.4,7.9,0.2c1.3,0.5,2.6,1.1,3.8,1.7c0,0,0,0-0.1,0c0.8,0.4,1.5,0.8,2.3,1.2
	c2.9,1.6,5.8,3.1,8.9,4.2c3.1,1.1,6.3,1.7,9.6,1.5C52.4,48,57.1,46.3,58.1,43.5z"/>
<path class="st4" d="M44.6,50.7c3.5,2.3,6.3,5.3,8.7,9.1c1.9,3,3.7,6,6.3,8.4c1,0.9,2,1.9,3.2,2.5c-0.8-0.5-1.3-1.6-1.7-2.3
	c-0.7-1.2-1.4-2.4-2.1-3.6C56,60,52.6,55,47.7,52.1C46.7,51.5,45.7,51,44.6,50.7z"/>
<path class="st4" d="M63.3,71C63.3,71,63.4,71,63.3,71c0.8,0.4,2.7,0.9,2.7-0.6c0-0.1,0-0.3,0-0.4C65.2,70.8,64.4,71.4,63.3,71z"/>
<path class="st4" d="M44.1,72.8c0,0.1,0.1,0.2,0.1,0.3c0.1,0.4,0.3,0.7,0.5,1.1c1,2.1,2.2,4.2,3.7,5.9c1.1,1.2,2.3,2.3,3.7,3.1
	c1.1-0.6,2.3-1.1,3.6-1.5c-2.7-2.7-5.3-11.3-5.9-12.8c-1.6-4.5-5.5-8.8-10.4-9.6c-4.7-0.8-10.1,0.1-13.9,3.2c3.2-1.4,7-3.1,10.2-2
	c3,1,4.7,3.9,6.1,6.6c0.2,0.4,0.5,0.9,0.7,1.3c0.4,1.1,0.8,2.3,1.2,3.4c0-0.1-0.1-0.1-0.1-0.2C43.7,72,43.9,72.4,44.1,72.8z"/>
<path class="st4" d="M31.3,126c5-0.4,10.2-1.6,13.9-5.2c3.7-3.6,5.3-8.5,7.2-13.2c1.5-3.5,3-7.1,5.2-10.3c0.5-1.7,1.3-3.3,2.3-4.7
	c1.7-2.3,3.9-4.1,6.5-5.3c-0.7-0.1-1.4-0.1-2-0.1c-1.8,0-3.6,0.1-5.4,0.6c-4.4,1.4-8.2,4.3-10.7,8.2c-4.1,6.2-5.1,14.3-10,19.9
	c-4.8,5.6-12.5,6-19.3,5.1c-6.2-0.8-11.4-5.4-13.9-11c-1.5-3.4-2-6.9-1.7-10.3c-1.7,6.4-1,13.2,3.7,18.3
	C12.9,124.4,22.7,126.6,31.3,126z"/>
<path class="st4" d="M91.6,98.3c0.9-0.8,2.2-1.5,3.3-1.9c0.8-0.3,1.8-0.4,2.7-0.3c0.7,0.1,1.5,0.4,2.1,0.7c0.5,0.3,1,0.6,1.4,1
	c-0.5-1-1.2-1.9-2-2.6c-2.3-2.1-5.4-2.7-8.4-2c-5.6,1.5-9.9,6.3-9.2,12.3c0.4,4,2.2,7.8,4.4,11.3c2.1,3.4,4.9,6.4,6.5,10.1
	c1.4,3.1,1.7,7.1-0.2,10.1c-1.9,2.8-4.9,4.5-7.9,5.9c-3.7,1.8-7.7,3-11.1,5.5c-3.8,2.8-6.6,7.1-4.8,11.9c1.7,4.5,6.1,7.9,11,6.3
	c2-0.6,4.5-2,6.1-3.8c-0.1,0-0.3,0-0.6,0.2c-0.5,0.2-1,0.5-1.5,0.8c-1.1,0.7-2.1,1.3-3.3,1.7c-2.6,0.8-7-0.5-8.9-2.5
	c-1.9-2.2-2.4-5.2-1.2-7.9c1.4-3.1,4.8-5.6,7.8-7c4.4-2,9.1-2.6,13.4-5.1c4.4-2.6,9.6-6.6,10.2-12c0.6-4.7,0.8-10.3-2.6-14.1
	C94.6,112.4,84.4,105,91.6,98.3z"/>
<path class="st4" d="M121.5,99.9c0.8,1.3,1.5,2.7,2.1,4.1c0.4,0.5,0.7,0.9,1.1,1.4c-1.1-2.6-2.4-5.2-3.9-7.5
	c-1.6-2.2-3.7-3.9-6.3-4.9c-0.9-0.3-1.8-0.7-2.8-1c3.4,3.2,6.1,7.2,7.6,11.8c2.7,8.1,1.6,16.2,0.2,24.5c-0.8,4.6-1.7,9.5-0.6,14.2
	c1,4.1,3.5,8.1,7.4,10.1c6.5,3.2,14.5,0.9,20.1-3c1.8-1.3,3.5-2.9,5.1-4.8c-1.5,1.3-3,2.5-4.7,3.5c-3.3,2-7.4,4-11.4,3
	c-3.5-0.8-6.5-3.2-8.4-6.2c-2.2-3.7-2.5-7.9-2.1-12.1c0.5-5,1.4-9.9,1.2-14.9c-0.2-5.1-1.5-10.1-3.7-14.8c-1-2.2-2.3-4.7-4.1-6.3
	c-0.4-0.4-0.8-0.7-1.2-1.1c1.2,0.8,2.2,1.6,3.2,2.6C120.9,99,121.2,99.4,121.5,99.9z"/>
<path class="st4" d="M129.1,72.2c-2.2-1.6-4.8-2.7-7.4-3.3c-0.8-0.3-1.6-0.5-2.4-0.6c1.6,0.4,3.1,0.8,4.3,2c1.4,1.2,2.4,2.6,3.4,4.1
	c2.1,3,4.5,5.9,7.3,8.3c2.9,2.5,6.5,4.4,10.4,4.2c4.1-0.3,7.8-2.3,10.6-5.2c6.3-6.6,8.9-15.5,6.5-24.4c-1.1-4-3-8.1-6.3-10.7
	c-1.6-1.3-3.7-2.5-5.8-2.9c6.5,2.8,12,10.2,12.1,17.3c0.1,7.6-4.6,16.3-11.5,19.8c-3.5,1.8-7.4,2.1-10.9,0
	C135.7,78.3,132.8,74.7,129.1,72.2z"/>
<path class="st4" d="M143.1,37.7c5-0.5,10.3-0.6,14.2-4.3c0,0,0,0,0,0c0,0,0,0,0,0c-3.3,1.3-6.8,2.1-10.4,2.2
	c-7.2,0.1-15.7-2-22.2,2.1c-7.8,4.9-6.7,14.3-8.3,22.2c-0.5,2.4-1.1,4.8-2.3,7c-0.4,0.7-0.8,1.5-1.4,2.1c0.5-0.2,1-0.3,1.6-0.4
	c1.6-0.4,3.1-0.5,4.7-0.5c0.3-0.8,0.6-1.5,0.8-2.3c0.7-2.6,0.9-5.1,0.8-7.8c-0.1-3.6-0.3-7.4,1.8-10.5C127,41,135.7,38.5,143.1,37.7
	z"/>
<g>
	<path class="st0" d="M103.8,88.3c-0.7-0.3-1.5,0.5-1.8,1c-0.4,0.6-0.7,1.4-0.5,2.1c0.1,0.5,0.5,1,1.1,1.1c0.7,0.1,1.4-0.4,1.9-1
		C105.2,90.5,105.1,88.9,103.8,88.3z"/>
	<path class="st0" d="M105.2,94.7c-0.3-0.1-0.6,0.2-0.7,0.4c-0.2,0.2-0.3,0.6-0.2,0.8c0,0.2,0.2,0.4,0.4,0.4c0.3,0,0.6-0.2,0.7-0.4
		C105.7,95.5,105.7,94.9,105.2,94.7z"/>
	<path class="st0" d="M109.3,90.7c-0.4-0.2-0.8,0.3-1,0.6c-0.3,0.3-0.4,0.8-0.3,1.2c0.1,0.3,0.3,0.6,0.6,0.6
		c0.4,0.1,0.8-0.3,1.1-0.6C110.1,91.9,110,91.1,109.3,90.7z"/>
</g>
<g>
	<path class="st0" d="M63.3,112c-0.4-0.2-0.9,0.3-1.1,0.6c-0.3,0.3-0.4,0.9-0.3,1.2c0.1,0.3,0.3,0.6,0.6,0.7
		c0.4,0.1,0.9-0.3,1.1-0.6C64.2,113.3,64.1,112.3,63.3,112z"/>
	<path class="st0" d="M64.2,115.8c-0.2-0.1-0.3,0.1-0.4,0.2c-0.1,0.1-0.2,0.3-0.1,0.5c0,0.1,0.1,0.2,0.2,0.3c0.2,0,0.3-0.1,0.4-0.2
		C64.5,116.3,64.5,115.9,64.2,115.8z"/>
	<path class="st0" d="M66.6,113.4c-0.2-0.1-0.5,0.2-0.6,0.3c-0.2,0.2-0.2,0.5-0.2,0.7c0,0.2,0.2,0.4,0.4,0.4c0.3,0,0.5-0.2,0.6-0.3
		C67.1,114.2,67.1,113.6,66.6,113.4z"/>
</g>
<g>
	<path class="st0" d="M80.5,99.5c-0.7-0.3-1.4,0.4-1.8,1c-0.4,0.5-0.6,1.4-0.5,2c0.1,0.5,0.5,1,1,1.1c0.7,0.1,1.4-0.4,1.8-1
		C81.9,101.5,81.8,100,80.5,99.5z"/>
	<path class="st0" d="M81.9,105.6c-0.3-0.1-0.5,0.2-0.7,0.4c-0.2,0.2-0.2,0.5-0.2,0.8c0,0.2,0.2,0.4,0.4,0.4c0.3,0,0.5-0.2,0.7-0.4
		C82.4,106.4,82.4,105.8,81.9,105.6z"/>
	<path class="st0" d="M85.8,101.8c-0.4-0.2-0.8,0.2-1,0.5c-0.2,0.3-0.4,0.8-0.3,1.1c0.1,0.3,0.3,0.6,0.6,0.6c0.4,0.1,0.8-0.2,1-0.5
		C86.6,102.9,86.5,102.1,85.8,101.8z"/>
</g>
<g>
	<path class="st0" d="M115.2,100.9c-0.6-0.2-1.1,0.4-1.4,0.8c-0.3,0.4-0.5,1.1-0.4,1.6c0.1,0.4,0.4,0.8,0.8,0.9
		c0.6,0.1,1.1-0.3,1.5-0.8C116.3,102.5,116.3,101.3,115.2,100.9z"/>
	<path class="st0" d="M113.3,110.7c-0.2-0.1-0.4,0.1-0.5,0.3c-0.1,0.2-0.2,0.4-0.2,0.6c0,0.2,0.1,0.3,0.3,0.3c0.2,0,0.4-0.1,0.6-0.3
		C113.8,111.3,113.7,110.9,113.3,110.7z"/>
	<path class="st0" d="M120.9,112.4c-0.3-0.1-0.7,0.2-0.8,0.4c-0.2,0.2-0.3,0.6-0.2,0.9c0.1,0.2,0.2,0.5,0.5,0.5
		c0.3,0.1,0.6-0.2,0.8-0.4C121.5,113.3,121.4,112.6,120.9,112.4z"/>
</g>
<g>
	<path class="st0" d="M119.2,136.6c-0.6-0.2-1.1,0.4-1.4,0.8c-0.3,0.4-0.5,1.1-0.4,1.6c0.1,0.4,0.4,0.8,0.8,0.9
		c0.6,0.1,1.1-0.3,1.5-0.8C120.4,138.3,120.3,137,119.2,136.6z"/>
	<path class="st0" d="M117.4,146.5c-0.2-0.1-0.4,0.1-0.5,0.3c-0.1,0.2-0.2,0.4-0.2,0.6c0,0.2,0.1,0.3,0.3,0.3c0.2,0,0.4-0.1,0.6-0.3
		C117.8,147.1,117.7,146.6,117.4,146.5z"/>
	<path class="st0" d="M124.9,148.1c-0.3-0.1-0.7,0.2-0.8,0.4c-0.2,0.2-0.3,0.6-0.2,0.9c0.1,0.2,0.2,0.5,0.5,0.5
		c0.3,0.1,0.6-0.2,0.8-0.4C125.5,149.1,125.5,148.4,124.9,148.1z"/>
</g>
<g>
	<path class="st0" d="M128.5,94.6c-0.6-0.2-1.1,0.4-1.4,0.8c-0.3,0.4-0.5,1.1-0.4,1.6c0.1,0.4,0.4,0.8,0.8,0.9
		c0.6,0.1,1.1-0.3,1.5-0.8C129.6,96.3,129.5,95.1,128.5,94.6z"/>
	<path class="st0" d="M126.6,104.5c-0.2-0.1-0.4,0.1-0.5,0.3c-0.1,0.2-0.2,0.4-0.2,0.6c0,0.2,0.1,0.3,0.3,0.3c0.2,0,0.4-0.1,0.6-0.3
		C127,105.1,127,104.7,126.6,104.5z"/>
	<path class="st0" d="M134.1,106.2c-0.3-0.1-0.7,0.2-0.8,0.4c-0.2,0.2-0.3,0.6-0.2,0.9c0.1,0.2,0.2,0.5,0.5,0.5
		c0.3,0,0.6-0.2,0.8-0.4C134.7,107.1,134.7,106.4,134.1,106.2z"/>
</g>
<g>
	<path class="st0" d="M131.5,74.7c-0.5-0.2-1.1,0.3-1.3,0.7c-0.3,0.4-0.5,1-0.4,1.5c0.1,0.4,0.4,0.7,0.8,0.8c0.5,0.1,1-0.3,1.4-0.7
		C132.6,76.2,132.5,75.1,131.5,74.7z"/>
	<path class="st0" d="M129.8,83.8c-0.2-0.1-0.4,0.1-0.5,0.3c-0.1,0.2-0.2,0.4-0.1,0.6c0,0.1,0.1,0.3,0.3,0.3c0.2,0,0.4-0.1,0.5-0.3
		C130.2,84.4,130.2,84,129.8,83.8z"/>
	<path class="st0" d="M136.7,85.3c-0.3-0.1-0.6,0.2-0.8,0.4c-0.2,0.2-0.3,0.6-0.2,0.8c0.1,0.2,0.2,0.4,0.4,0.5
		c0.3,0,0.6-0.2,0.8-0.4C137.3,86.2,137.3,85.6,136.7,85.3z"/>
</g>
<g>
	<path class="st0" d="M9.4,111.1c-0.3-0.2-0.7,0.2-0.9,0.5c-0.2,0.3-0.3,0.7-0.3,1c0.1,0.3,0.2,0.5,0.5,0.5c0.4,0.1,0.7-0.2,0.9-0.5
		C10,112.1,10,111.4,9.4,111.1z"/>
	<path class="st0" d="M8.2,117.2c-0.1-0.1-0.3,0.1-0.3,0.2c-0.1,0.1-0.1,0.3-0.1,0.4c0,0.1,0.1,0.2,0.2,0.2c0.1,0,0.3-0.1,0.3-0.2
		C8.4,117.6,8.4,117.3,8.2,117.2z"/>
	<path class="st0" d="M12.9,118.3c-0.2-0.1-0.4,0.1-0.5,0.3c-0.1,0.2-0.2,0.4-0.1,0.6c0,0.1,0.1,0.3,0.3,0.3c0.2,0,0.4-0.1,0.5-0.3
		C13.3,118.9,13.2,118.4,12.9,118.3z"/>
</g>
<g>
	<path class="st0" d="M124.1,73c0.3-0.4,0-0.9-0.3-1.2c-0.2-0.3-0.7-0.6-1.1-0.6c-0.3,0-0.7,0.1-0.8,0.4c-0.2,0.4,0,0.9,0.3,1.2
		C122.6,73.4,123.5,73.6,124.1,73z"/>
	<path class="st0" d="M117.3,69.6c0.1-0.1,0-0.3-0.1-0.5c-0.1-0.1-0.3-0.2-0.4-0.2c-0.1,0-0.3,0-0.3,0.2c-0.1,0.2,0,0.3,0.1,0.5
		C116.8,69.7,117.1,69.8,117.3,69.6z"/>
	<path class="st0" d="M114.6,74.6c0.2-0.2,0-0.5-0.1-0.7c-0.1-0.2-0.4-0.3-0.6-0.4c-0.2,0-0.4,0.1-0.5,0.2c-0.1,0.2,0,0.5,0.1,0.7
		C113.8,74.9,114.3,75,114.6,74.6z"/>
</g>
<g>
	<path class="st0" d="M132.9,33.5c0-0.5-0.6-0.7-0.9-0.8c-0.4-0.1-0.9-0.1-1.2,0.2c-0.3,0.2-0.5,0.5-0.4,0.8
		c0.1,0.4,0.6,0.7,0.9,0.8C132,34.7,132.8,34.3,132.9,33.5z"/>
	<path class="st0" d="M125.5,34.8c0-0.2-0.2-0.3-0.4-0.3c-0.2,0-0.4,0-0.5,0.1c-0.1,0.1-0.2,0.2-0.1,0.3c0,0.2,0.2,0.3,0.4,0.3
		C125.1,35.3,125.5,35.2,125.5,34.8z"/>
	<path class="st0" d="M126.4,40.5c0-0.3-0.3-0.4-0.5-0.5c-0.2-0.1-0.5,0-0.7,0.1c-0.1,0.1-0.3,0.3-0.2,0.5c0.1,0.2,0.3,0.4,0.5,0.5
		C125.9,41.2,126.3,41,126.4,40.5z"/>
</g>
<g>
	<path class="st0" d="M161.7,116c0.3-0.4,0-0.9-0.3-1.2c-0.2-0.3-0.7-0.6-1.1-0.6c-0.3,0-0.7,0.1-0.8,0.4c-0.2,0.4,0,0.9,0.3,1.2
		C160.2,116.4,161.1,116.6,161.7,116z"/>
	<path class="st0" d="M154.9,112.6c0.1-0.1,0-0.3-0.1-0.5c-0.1-0.1-0.3-0.2-0.4-0.2c-0.1,0-0.3,0-0.3,0.2c-0.1,0.2,0,0.3,0.1,0.5
		C154.4,112.8,154.7,112.8,154.9,112.6z"/>
	<path class="st0" d="M152.2,117.7c0.2-0.2,0-0.5-0.1-0.7c-0.1-0.2-0.4-0.3-0.6-0.4c-0.2,0-0.4,0.1-0.5,0.2c-0.1,0.2,0,0.5,0.1,0.7
		C151.4,117.9,151.9,118,152.2,117.7z"/>
</g>
<g>
	<path class="st0" d="M152.6,88.8c0.3-0.4,0-0.9-0.3-1.2c-0.2-0.3-0.7-0.6-1.1-0.6c-0.3,0-0.7,0.1-0.8,0.4c-0.2,0.4,0,0.9,0.3,1.2
		C151.1,89.3,152,89.5,152.6,88.8z"/>
	<path class="st0" d="M145.8,85.4c0.1-0.1,0-0.3-0.1-0.5c-0.1-0.1-0.3-0.2-0.4-0.2c-0.1,0-0.3,0-0.3,0.2c-0.1,0.2,0,0.3,0.1,0.5
		C145.3,85.6,145.6,85.7,145.8,85.4z"/>
	<path class="st0" d="M143.1,90.5c0.2-0.2,0-0.5-0.1-0.7c-0.1-0.2-0.4-0.3-0.6-0.4c-0.2,0-0.4,0.1-0.5,0.2c-0.1,0.2,0,0.5,0.1,0.7
		C142.3,90.8,142.8,90.9,143.1,90.5z"/>
</g>
<g>
	<path class="st0" d="M98.6,125c0.4-0.2,0.4-0.8,0.3-1.2c-0.1-0.4-0.3-0.9-0.7-1.1c-0.3-0.2-0.6-0.2-0.9,0C97,123,97,123.5,97,124
		C97.1,124.7,97.8,125.3,98.6,125z"/>
	<path class="st0" d="M94.2,118.9c0.2-0.1,0.2-0.3,0.1-0.5c0-0.2-0.1-0.3-0.3-0.4c-0.1-0.1-0.2-0.1-0.3,0c-0.1,0.1-0.1,0.3-0.1,0.5
		C93.7,118.8,93.9,119,94.2,118.9z"/>
	<path class="st0" d="M89.4,122.1c0.2-0.1,0.2-0.5,0.2-0.7c0-0.2-0.2-0.5-0.4-0.6c-0.2-0.1-0.4-0.1-0.5,0c-0.2,0.2-0.2,0.5-0.2,0.7
		C88.6,122,89,122.3,89.4,122.1z"/>
</g>
<g>
	<path class="st0" d="M68.5,96.7c-0.2-0.4-0.9-0.3-1.2-0.1c-0.4,0.1-0.8,0.5-0.9,0.8c-0.1,0.3-0.1,0.7,0.1,0.9
		c0.3,0.3,0.8,0.3,1.2,0.2C68.4,98.2,68.9,97.4,68.5,96.7z"/>
	<path class="st0" d="M63,101.9c-0.1-0.2-0.3-0.1-0.5-0.1c-0.2,0-0.3,0.2-0.4,0.3c0,0.1,0,0.3,0,0.3c0.1,0.1,0.3,0.1,0.5,0.1
		C63,102.5,63.2,102.2,63,101.9z"/>
	<path class="st0" d="M66.9,106.2c-0.1-0.2-0.5-0.2-0.7-0.1c-0.2,0.1-0.5,0.3-0.5,0.5c-0.1,0.2-0.1,0.4,0.1,0.5
		c0.2,0.2,0.5,0.2,0.7,0.1C66.9,107.1,67.1,106.6,66.9,106.2z"/>
</g>
<g>
	<path class="st0" d="M44.5,108.1c-0.2-0.4-0.9-0.3-1.2-0.1c-0.4,0.1-0.8,0.5-0.9,0.8c-0.1,0.3-0.1,0.7,0.1,0.9
		c0.3,0.3,0.8,0.3,1.2,0.2C44.4,109.6,44.9,108.9,44.5,108.1z"/>
	<path class="st0" d="M39,113.4c-0.1-0.1-0.3-0.1-0.5-0.1c-0.2,0-0.3,0.2-0.4,0.3c0,0.1,0,0.3,0,0.3c0.1,0.1,0.3,0.1,0.5,0.1
		C39,113.9,39.2,113.6,39,113.4z"/>
	<path class="st0" d="M42.9,117.6c-0.1-0.2-0.5-0.2-0.7-0.1c-0.2,0.1-0.5,0.3-0.5,0.5c-0.1,0.2-0.1,0.4,0.1,0.5
		c0.2,0.2,0.5,0.2,0.7,0.1C42.9,118.5,43.2,118.1,42.9,117.6z"/>
</g>
<g>
	<path class="st0" d="M53.3,92.5c-0.2-0.3-0.7-0.2-1-0.1c-0.3,0.1-0.6,0.4-0.8,0.6c-0.1,0.2-0.1,0.5,0.1,0.7c0.3,0.2,0.7,0.2,1,0.1
		C53.2,93.7,53.6,93.1,53.3,92.5z"/>
	<path class="st0" d="M49,96.6c-0.1-0.1-0.3-0.1-0.4,0c-0.1,0-0.2,0.1-0.3,0.2c0,0.1,0,0.2,0,0.3c0.1,0.1,0.3,0.1,0.4,0
		C48.9,97.1,49.1,96.8,49,96.6z"/>
	<path class="st0" d="M52,100c-0.1-0.2-0.4-0.1-0.5-0.1c-0.2,0.1-0.4,0.2-0.4,0.4c-0.1,0.1-0.1,0.3,0.1,0.4c0.1,0.1,0.4,0.1,0.6,0.1
		C52,100.7,52.2,100.4,52,100z"/>
</g>
<g>
	<path class="st0" d="M27.5,120.8c0.1-0.3-0.2-0.7-0.5-0.8c-0.3-0.2-0.7-0.3-1-0.2c-0.2,0.1-0.5,0.2-0.5,0.5c0,0.3,0.2,0.7,0.5,0.9
		C26.5,121.5,27.2,121.5,27.5,120.8z"/>
	<path class="st0" d="M21.5,119.9c0.1-0.1-0.1-0.3-0.2-0.3c-0.1-0.1-0.3-0.1-0.4-0.1c-0.1,0-0.2,0.1-0.2,0.2c0,0.1,0.1,0.3,0.2,0.3
		C21.2,120.2,21.5,120.2,21.5,119.9z"/>
	<path class="st0" d="M20.7,124.5c0.1-0.2-0.1-0.4-0.3-0.5c-0.2-0.1-0.4-0.2-0.5-0.1c-0.1,0-0.3,0.1-0.3,0.3c0,0.2,0.1,0.4,0.3,0.5
		C20.2,124.9,20.6,124.8,20.7,124.5z"/>
</g>
<g>
	<path class="st0" d="M51.2,77.9c0.4,0,0.6-0.4,0.7-0.7c0.1-0.3,0.1-0.7-0.1-1c-0.1-0.2-0.4-0.4-0.6-0.3c-0.3,0.1-0.6,0.4-0.7,0.7
		C50.3,77.2,50.6,77.8,51.2,77.9z"/>
	<path class="st0" d="M50.4,72c0.1,0,0.2-0.2,0.3-0.3c0-0.1,0-0.3,0-0.4c-0.1-0.1-0.1-0.1-0.2-0.1c-0.1,0-0.2,0.2-0.3,0.3
		C50,71.7,50.2,72,50.4,72z"/>
	<path class="st0" d="M45.8,72.5c0.2,0,0.3-0.2,0.4-0.4c0.1-0.2,0-0.4,0-0.6c-0.1-0.1-0.2-0.2-0.4-0.2c-0.2,0-0.3,0.2-0.4,0.4
		C45.3,72.1,45.5,72.4,45.8,72.5z"/>
</g>
<g>
	<path class="st0" d="M7.8,59.6c0.4,0,0.6-0.4,0.7-0.7c0.1-0.3,0.1-0.7-0.1-1c-0.1-0.2-0.4-0.4-0.6-0.3c-0.3,0.1-0.6,0.4-0.7,0.7
		C6.9,58.9,7.2,59.6,7.8,59.6z"/>
	<path class="st0" d="M7,53.7c0.1,0,0.2-0.2,0.3-0.3c0-0.1,0-0.3,0-0.4C7.2,53,7.1,52.9,7,52.9c-0.1,0-0.2,0.2-0.3,0.3
		C6.7,53.4,6.8,53.7,7,53.7z"/>
	<path class="st0" d="M2.5,54.2c0.2,0,0.3-0.2,0.4-0.4c0.1-0.2,0-0.4,0-0.6C2.7,53.1,2.6,53,2.4,53c-0.2,0-0.3,0.2-0.4,0.4
		C1.9,53.8,2.1,54.2,2.5,54.2z"/>
</g>
<g>
	<path class="st0" d="M66.7,47.7c-0.4-0.2-0.9,0.3-1.1,0.6c-0.3,0.3-0.4,0.9-0.3,1.2c0.1,0.3,0.3,0.6,0.6,0.7
		c0.4,0.1,0.9-0.3,1.1-0.6C67.6,49,67.5,48.1,66.7,47.7z"/>
	<path class="st0" d="M67.6,51.5c-0.2-0.1-0.3,0.1-0.4,0.2C67,51.9,67,52.1,67,52.2c0,0.1,0.1,0.2,0.2,0.3c0.2,0,0.3-0.1,0.4-0.2
		C67.9,52,67.9,51.7,67.6,51.5z"/>
	<path class="st0" d="M70,49.2c-0.2-0.1-0.5,0.2-0.6,0.3c-0.2,0.2-0.2,0.5-0.2,0.7c0,0.2,0.2,0.4,0.4,0.4c0.3,0,0.5-0.2,0.6-0.3
		C70.5,49.9,70.4,49.4,70,49.2z"/>
</g>
<g>
	<path class="st0" d="M96.8,24.9c-0.4-0.2-0.9,0.3-1.1,0.6c-0.3,0.3-0.4,0.9-0.3,1.2c0.1,0.3,0.3,0.6,0.6,0.7
		c0.4,0.1,0.9-0.3,1.1-0.6C97.6,26.2,97.6,25.3,96.8,24.9z"/>
	<path class="st0" d="M97.6,28.7c-0.2-0.1-0.3,0.1-0.4,0.2c-0.1,0.1-0.2,0.3-0.1,0.5c0,0.1,0.1,0.2,0.2,0.3c0.2,0,0.3-0.1,0.4-0.2
		C98,29.2,97.9,28.9,97.6,28.7z"/>
	<path class="st0" d="M100.1,26.4c-0.2-0.1-0.5,0.2-0.6,0.3c-0.2,0.2-0.2,0.5-0.2,0.7c0,0.2,0.2,0.4,0.4,0.4c0.3,0,0.5-0.2,0.6-0.3
		C100.6,27.1,100.5,26.6,100.1,26.4z"/>
</g>
<g>
	<path class="st0" d="M102.4,45.8c0.5-0.1,0.6-0.7,0.6-1.1c0-0.4-0.2-0.9-0.4-1.2c-0.2-0.2-0.6-0.3-0.9-0.2
		c-0.4,0.2-0.6,0.7-0.6,1.1C101,45.3,101.5,46,102.4,45.8z"/>
	<path class="st0" d="M87.7,20.4c0.2-0.4-0.3-0.9-0.7-1.1c-0.3-0.2-0.9-0.3-1.2-0.2c-0.3,0.1-0.6,0.3-0.6,0.7c0,0.4,0.3,0.8,0.7,1.1
		C86.5,21.4,87.4,21.2,87.7,20.4z"/>
	<path class="st0" d="M97.4,47.5c0.2,0,0.2-0.3,0.2-0.4c0-0.2-0.1-0.4-0.2-0.5c-0.1-0.1-0.2-0.1-0.3-0.1c-0.2,0.1-0.2,0.3-0.2,0.4
		C96.9,47.3,97.1,47.6,97.4,47.5z"/>
	<path class="st0" d="M96.7,50.8c0.3,0,0.3-0.4,0.3-0.6c0-0.2-0.1-0.5-0.2-0.7c-0.1-0.1-0.3-0.2-0.5-0.1c-0.2,0.1-0.3,0.4-0.3,0.6
		C95.9,50.5,96.3,50.9,96.7,50.8z"/>
</g>
<g>
	<path class="st4" d="M96.4,57.2c-0.2-0.1-0.6,0.3-0.5,0.5c0.1,0.2,0.3,0.4,0.5,0.4c0.2,0,0.4-0.3,0.4-0.5
		C96.8,57.3,96.6,57.3,96.4,57.2z"/>
	<path class="st4" d="M87.9,90.3c-0.6-0.1-1.3,0.2-1.9,0.3c-0.8,0.1-1.7,0.2-2.5-0.1c-0.2-0.1-0.6,0.4-0.4,0.6
		c1.3,1.2,3.6,0.8,4.7-0.4C88,90.6,88.2,90.3,87.9,90.3z"/>
</g>
<g>
	<path class="st0" d="M8.8,65.1c0.1,0,0.2,0.1,0.4,0.1c-0.9-0.4-1.8-1-2.6-1.6c-5.1-4.2-5.5-11.5-3.1-17.3c2.7-6.6,8.8-11.2,16-11.4
		c4.5-0.1,8.8,1.1,13,2.6c-1.5-0.7-3-1.4-4.6-1.8c-4.4-1.2-9-1.4-13.4-0.1C6.1,38-1.2,46.1,0.7,55.5C1.6,59.8,4.5,63.8,8.8,65.1z"/>
	<path class="st0" d="M55.2,68c-1.6-4.3-3.7-8.9-7.2-12.1c-2.1-1.9-4.7-3.5-7.7-3.7c-2.8-0.1-5.5,0.6-8.1,1.8
		c-2.6,1.2-4.9,3.1-7.3,4.6c3-0.8,5.9-2.6,8.7-3.7c4.3-1.6,9.2-1.1,12.9,1.7c3.3,2.4,4.9,6.4,6.5,9.9c0.8,1.9,1.7,3.8,2.8,5.6
		c0.7,1.1,1.7,2.4,2.9,3.4C57.1,73.3,56.1,70.5,55.2,68z"/>
	<path class="st0" d="M34,109.8c-3,2.5-6.7,4.6-10.5,5.4c-1.2,0.3-2.4,0.4-3.6,0.4c3.3,0.7,7.4,0,10.1-1.1
		c6.3-2.6,9.5-8.2,12.1-14.1c2.2-5,4.4-10.6,8.9-14.1c3-2.4,7.1-4.7,11.2-5c-0.6-0.1-1.1-0.2-1.8-0.2c-1.3,0.1-2.5,0.3-3.8,0.6
		c0,0-0.1,0-0.1,0.1c-1.8,0.5-3.5,1.3-5,2.4c-1.4,0.9-2.8,2-4,3.3c-3.3,3.7-5,7.9-6.8,12.5C39.1,103.7,37.2,107.2,34,109.8z"/>
	<path class="st0" d="M21.9,137.3c3.5-2.3,7.2-1.4,10.8-0.2c-2.7-1.3-5.5-2.2-8.4-2c-3,0.3-5.6,1.8-5.8,5.1c-0.1,0.9,0,1.8,0.1,2.6
		C18.8,140.7,19.9,138.6,21.9,137.3z"/>
	<path class="st0" d="M76.6,144.9c-1.6,0.5-3.3,1.2-4.8,2c3.3-1.3,6.9-2,10.1-3.3c3.4-1.4,7-3.7,8.1-7.3c1.3-4-0.2-8.1-2.5-11.4
		c-2.1-3-4.8-5.6-7-8.5c-2-2.8-3.4-5.8-3.7-9.3c-0.6-5.7,1-12,5.9-15.3c-1.2,0.3-2.3,0.9-3.2,1.6c-0.1,0.2-0.3,0.4-0.4,0.5
		c-0.7,0.8-1.3,1.6-1.8,2.5c-0.2,0.4-0.5,0.8-0.7,1.2c-0.7,1.5-1.1,3.1-1.2,4.8c-0.1,0.7-0.1,1.4-0.2,2.1c0,1.5,0.1,2.9,0.3,4.3
		c0.1,2.4,1.1,5.1,2.5,7.1c0.1,0.2,0.3,0.5,0.4,0.7c0.8,1.3,1.8,2.4,3,3.4c2.9,2.5,6.4,4.9,7.4,8.9c0.9,3.6,0.1,7.2-2.3,10
		C83.8,142.2,80.4,143.6,76.6,144.9z"/>
	<path class="st0" d="M129.7,159.1c-7.2-1-13.2-5.2-15.5-12.2c-2.8-8.4-1.1-17.3-2-25.9c-0.5-5.1-1.4-10.3-4-14.8
		c-1.2-2.1-2.6-4-4.3-5.7c-0.6-0.6-1.3-1.3-2-1.8c1.4,1.4,2.6,3.2,3.6,4.8c1.7,2.7,2.8,5.7,3.5,8.8c1.2,4,1.9,8,2.1,12.1
		c0.1,4.9-0.4,9.9-0.1,14.8c0.3,4.8,1.5,9.7,4.7,13.4c2.9,3.4,6.7,5.8,11,6.8c7.8,1.9,15.8,0,22.2-4.4
		C142.9,157.9,136.4,160,129.7,159.1z"/>
	<path class="st0" d="M149,117.8c-6.3-1.4-12-4.9-16.8-9.1c-2.8-2.4-5.3-5.1-8.1-7.5c-1.4-1.3-2.8-2.6-4.4-3.6
		c-0.2-0.1-0.4-0.2-0.6-0.4c0.5,0.4,1,0.9,1.5,1.3c0.3,0.4,0.7,0.9,1,1.4c0.8,1.3,1.5,2.7,2.1,4.1c2.8,3.4,5.7,6.7,9.2,9.2
		c7.6,5.5,19.1,9.7,28.2,5.6c3.6-1.6,6.7-4.3,9.2-7.5c-1.3,1.3-2.8,2.5-4.4,3.4C160.8,117.8,154.8,119.1,149,117.8z"/>
	<path class="st0" d="M169.6,65c-2.1,3.7-1.3,8.1,0.6,11.7c2.4,4.7,5.8,8.9,6.7,14.3c0,0.1,0,0.2,0,0.3c-0.1-2.8-0.6-5.6-1.7-8.2
		c-1-2.3-2.1-4.6-3.4-6.7c-1-1.7-2-3.6-2.3-5.6c-0.1-0.5-0.1-1.3,0-2.2c0.3-1.4,0.7-2.8,2.2-3.4c1.9-0.7,3.8,1.4,4.5,3
		c0,0.3,0,0.6,0,0.9c0,0.1,0,0.1,0.1,0.2c0,0.1,0,0.2,0,0.4c0.6-1.9,0.1-4.2-1.4-5.5C173.3,62.8,170.8,63,169.6,65z"/>
	<path class="st0" d="M147.8,91.9c-6.9,1-12.9-2.3-18.3-6.1c-3.2-2.2-6.6-4.3-10.7-4.2c-2.1,0-3.8,0.6-5.2,1.6
		c0.8-0.3,1.6-0.5,2.5-0.6c5.4-0.5,9.4,2.4,12.8,6.2c5.3,2.3,10.7,4.4,16.5,4.4c4.8,0.1,9.7-1.2,13.1-4.8c3.6-3.7,5.4-8.8,6.3-13.8
		c0.2-1,0.3-2.1,0.5-3.1C163.4,81.2,158.2,90.3,147.8,91.9z"/>
	<path class="st0" d="M128.6,57.4c2.1-1.3,3.5-3.7,4.6-5.9c2.2-4.2,4-8.5,8.8-10.2c2.7-1,5.8-1.3,8.7-1c-0.2-0.1-0.5-0.1-0.7-0.1
		c-4.5-0.8-10.8-0.5-14,3.3c-2.9,3.5-3.4,8.3-6.5,11.7c-1.2,1.3-2.5,2.9-4.3,3.4c-0.6,0.2-1.2-0.1-1.8-0.3c0,0,0,0,0,0
		C124.8,59.3,127.4,58.2,128.6,57.4z"/>
	<path class="st0" d="M112.7,62.8c1.8-3.4,2.6-7.5,3.2-11.3c0.9-6.4,1.3-14.2,7.6-17.7c6-3.3,12.6-1.1,19-1.2
		c3.2,0,7.6-0.4,10.2-2.5c-0.8,0.5-1.8,1-2.9,1.3c-9.2,2.5-19.6-4.9-28.1,1.2c-8.4,6-6.2,17.8-8.7,26.6c-1,3.5-2.7,7-6.1,8.8
		c0,0,0,0,0,0C109.2,67.5,111.9,64.4,112.7,62.8z"/>
	<path class="st0" d="M110.1,24.2C110.1,24.2,110.1,24.2,110.1,24.2c2.7,0.5,5.1-1.3,7.3-3.1c4-3.2,7.7-7,12.2-9.6
		c4.2-2.5,9-4,13.9-3.5c4.4,0.4,9.3,2.3,11.9,6c0.1,0.1,0.1,0.2,0.2,0.3c-1.8-4-5.5-7-10.2-7.9c-7.6-1.5-14.7,1.6-20.3,6.6
		c-2.8,2.5-5.3,5.2-8.1,7.5c-1.9,1.5-4.7,3.2-7.2,2.4c-4.3-1.3-4.2-5.1-3.3-8.6c0,0,0,0,0,0c-0.4,0.7-0.7,1.4-0.8,2.2
		c-0.5,1.5-0.4,3.2,0.2,4.7C106.5,23,108.3,24.2,110.1,24.2z"/>
	<path class="st0" d="M156.5,139.9c-2.5,2.8-5.2,5.5-8.3,7.6c2.4-1.3,4.5-3.4,6.3-4.9c3.8-3.2,7.8-7.6,12.7-9
		c2.8-0.8,5.5-0.5,7.9,0.7c-1.8-1.3-4-2-6.4-2c-2.4,0-4.8,0.6-6.8,2.1C159.8,135.9,158.2,137.9,156.5,139.9z"/>
	<path class="st0" d="M58.7,136.6c2.4-2.2,4-5.4,4.2-8.6c0.3-3.5-0.3-6.9-1.4-10.3c-1-3.1-2.3-6.2-2.8-9.5
		c-0.8-5.6-0.4-11.8,3.4-16.2c3.3-3.8,7.9-5.1,12.7-5.7c-2.3-0.5-5-0.2-7.4,0.5c0,0.1,0,0.2-0.1,0.2c-3.1,1.5-6.3,4-7.9,7.1
		c-0.3,0.5-0.5,1.1-0.8,1.7c0,0,0,0,0-0.1c-0.3,0.6-0.6,1.3-0.7,2c-0.8,2.5-1.1,5.1-1.1,7.6c0,1.7,0.3,3.2,0.8,4.9
		c0.3,1.1,0.7,2.1,1.1,3.1c0,0,0,0,0,0c0.1,0.3,0.2,0.6,0.3,0.9c0.7,1.9,1.4,3.8,2.1,5.7c0.1,0.5,0.2,1.1,0.3,1.6
		c0.2,1,0.4,2,0.5,3.1c0.3,3.8-0.1,8-2.5,11.2C59.2,136,59,136.3,58.7,136.6z"/>
	<path class="st0" d="M12.1,86.8c4.6-3.7,10-5,15.7-5.7c4.2-0.5,10.8-1.6,11.9-6.4c-0.5,1.7-2.1,3-3.7,3.7
		c-3.2,1.4-6.7,1.3-10.1,1.6c-8.1,0.7-15.1,4.9-19.3,11.9c-1.1,1.7-2,3.7-2.7,5.6c-0.9,6.2,0.5,12.7,4.8,17
		c-2.7-4.2-4.6-9.2-4.1-14.2C5.1,95.1,7.9,90.1,12.1,86.8z"/>
	<path class="st0" d="M62.9,51.1c0.8,1.9,1.7,3.7,2.3,5.6c0.3-0.3,0.6-0.6,0.9-0.9c-2.4-4.3-2.8-10-2.7-14.6
		c0.1-6.1,1.4-12.1,5.6-16.8c4.1-4.6,9.7-7.1,15.6-8c-8.6,0.4-16.6,4.9-20.5,12.8c-2.2,4.4-3.3,9.4-2.9,14.4
		C61.3,46.1,61.9,48.7,62.9,51.1z"/>
</g>
<path class="st4" d="M84.5,48.7L67,58.4L65.3,62L69,74.8l8.7,12.8l10.4,4.2c0,0,10.3-8.6,10.4-9.2C98.6,82,99,71.2,99,70
	c0-1.2-1-9.5-1-9.5s-4.9-6.9-5.5-8C91.8,51.5,84.5,48.7,84.5,48.7z"/>
<g>
	<path class="st2" d="M82.1,49.1c0,0.9-0.1,1.8-0.4,2.6c-0.3,1-0.8,2-1.6,2.6c-1.2,0.8-2.9,0.5-4-0.5c-1.1-1-1.6-2.5-1.6-3.9
		c-0.1-2.2,0.5-5.6,2.9-6.4c1-0.3,2.2-0.1,3,0.5c1,0.8,1.4,2,1.6,3.2C82.1,47.9,82.1,48.5,82.1,49.1z"/>
</g>
<g>
	<path d="M80,52.2c0,0.4-0.1,0.8-0.2,1.2c-0.1,0.5-0.4,0.9-0.8,1.2c-0.6,0.4-1.3,0.2-1.8-0.2c-0.5-0.4-0.7-1.1-0.7-1.8
		c0-1,0.2-2.6,1.3-3c0.5-0.2,1-0.1,1.4,0.2c0.4,0.3,0.7,0.9,0.8,1.5C80,51.6,80,51.9,80,52.2z"/>
</g>
<g>
	<path class="st2" d="M93,49.1c0,0.9-0.1,1.8-0.4,2.6c-0.3,1-0.8,2-1.6,2.6c-1.2,0.8-2.9,0.5-4-0.5c-1.1-1-1.6-2.5-1.6-3.9
		c-0.1-2.2,0.5-5.6,2.9-6.4c1-0.3,2.2-0.1,3,0.5c1,0.8,1.4,2,1.6,3.2C92.9,47.9,93,48.5,93,49.1z"/>
</g>
<g>
	<path d="M86.5,65.6c0,0-0.1,0-0.1,0c-0.1,0.1-0.2,0.2-0.3,0.4c-0.3,0.8-0.5,1.8-1,2.5c-0.4,0.6-1.1,1.1-1.8,1.2
		c-0.7,0.1-1.5-0.2-2-0.8c-0.7-0.8-0.6-2-0.5-3c0-0.2,0-0.4-0.1-0.6c-0.5-0.5-0.9,2.6-0.9,3c0.1,0.9,0.5,1.9,1.2,2.5
		c0.9,0.8,2.3,0.9,3.4,0.5c1.1-0.4,2-1.4,2.5-2.4c0.4-0.9,0.6-1.9,0.1-2.7C87,65.8,86.7,65.6,86.5,65.6z"/>
</g>
<g>
	<path d="M90.9,52.2c0,0.4-0.1,0.8-0.2,1.2c-0.1,0.5-0.4,0.9-0.8,1.2c-0.6,0.4-1.3,0.2-1.8-0.2c-0.5-0.4-0.7-1.1-0.7-1.8
		c0-1,0.2-2.6,1.3-3c0.5-0.2,1-0.1,1.4,0.2c0.4,0.3,0.7,0.9,0.8,1.5C90.9,51.6,90.9,51.9,90.9,52.2z"/>
</g>
</svg>
