<?xml version="1.0" encoding="utf-8"?>
<!-- Generator: Adobe Illustrator 25.2.1, SVG Export Plug-In . SVG Version: 6.00 Build 0)  -->
<svg version="1.1" id="Layer_1" xmlns="http://www.w3.org/2000/svg" xmlns:xlink="http://www.w3.org/1999/xlink" x="0px" y="0px"
	 viewBox="0 0 180 176.8" style="enable-background:new 0 0 180 176.8;" xml:space="preserve">
<style type="text/css">
	.st0{fill:#FDBB37;}
	.st1{fill:#0092A6;}
	.st2{fill:#FFFFFF;}
	.st3{fill:#E61E25;}
	.st4{fill:#EF3E37;}
	.st5{fill:none;stroke:#000000;stroke-linecap:round;stroke-miterlimit:10;}
	.st6{fill:#010101;}
	.st7{fill:#FFD386;}
	.st8{fill:#FFF0D9;}
	.st9{fill:#004D59;}
	.st10{fill:#FFFFFF;stroke:#000000;stroke-width:0.5;stroke-miterlimit:10;}
</style>
<path class="st6" d="M173.7,103.3c0.7,0.9,1.5,2.2,2.5,3.4c2.2,2.6,4.6,5.3,3.6,8.9c-1.1,4.4-4,7.8-8.3,9.7
	c-1.4,0.6-2.9,0.9-4.8,1.5c0.7,4.5,0.6,8.8-1.7,12.8c-2.3,3.9-4.9,7.3-10,8c-1.9,6.1-4,11.8-10,15.2c-5.3,3-10.6,5.4-17.1,3.8
	c-4.7,3.7-10.2,6.3-16.2,6.5c-5.6,0.2-11.3-0.7-17.3-1.1c-8,6.3-17.5,5.4-27.1,3.9c-3.6-0.6-6.7-2.7-9.2-5.4
	c-5.3-6-10.6-12-15.8-18.1c-6.7-7.9-12-16.7-17.2-25.7c-3.1-5.3-6.5-10.5-9.6-15.9c-1.4-2.4-2.8-5-3.5-7.7c-0.8-2.8-2.3-4.4-4.9-5.5
	c-1.4-0.6-2.8-1.3-4.1-2.1c-2.7-1.6-3.5-3.2-2.9-6.5c0.2-1.3,0.6-2.5,1.1-3.7c3.2-7.6,6.6-15.2,9.5-22.9c4.1-10.9,9.9-21,14.5-31.7
	c1.4-3.3,3.4-6.4,5.4-9.4c1.8-2.6,4.3-3.6,7.4-2.3c1,0.4,2,0.7,2.9,1.1c2.5,1.2,4.7,0.8,7.3-0.5c5.3-2.6,10.8-5,16.4-6.9
	C76,8.7,87.4,4.4,99.4,2.2c5.1-0.9,10.2-2,15.3-2.1c9.9-0.3,19.6,1.2,28.5,5.7c4.7,2.3,7.8,6.5,8.9,11.2c1.5,6.1,5,10.4,9.3,14.6
	c4.3,4.2,7.2,9.5,9.5,14.9c2.1,4.8,3.6,9.7,2.5,15c-0.5,2.3,0.1,4.4,1.4,6.6c7,11,6.7,22.1-0.6,33.2
	C174,101.8,174,102.3,173.7,103.3z"/>
<g>
	<path class="st2" d="M33.4,62.7c0,0,0,0.1,0,0.1c30.1,20.3,64.8,32.4,98.4,46.1c8.2,3.3,16.3,6.8,24.4,10.3
		c3.6,1.6,7.4,3.2,11.3,3.1c3.9-0.1,8.1-2.5,8.9-6.4c0.7-3.7-1.7-7.2-4.3-10c-9.8-10.5-22.9-17.5-36.1-23.2
		c-14.5-6.3-29.5-11.5-44.5-16.5c-15.7-5.2-31.4-10.2-47.6-13.7c-2-0.4-6.1-1.2-7.6,0.9c-0.7,1-0.8,2.8-1.2,4
		C34.5,59.3,33.9,61,33.4,62.7z"/>
	<path class="st2" d="M29.3,74.7c-3.6,4.9-3.7,5.3-1.1,8.4c1,1.2,2.1,2.3,3.1,3.4c9.7,10,20.2,19.2,30.7,28.3
		c16,13.8,32,27.7,49.9,39.1c4.6,2.9,9.3,5.6,14,8.3c3.8,2.2,7.9,2.6,11.9,0.8c2.8-1.2,5.8-2.5,8.1-4.4c3.5-2.9,5.5-6.6,4.4-11.8
		c-14-3.6-25.9-11.5-38.2-18.4c-5.6-3.1-11.1-6.6-16.7-9.8c-4.9-2.9-10-5.4-14.7-8.5C68.1,101.6,55.5,93,43,84.4
		C38.5,81.3,34.1,78.1,29.3,74.7z"/>
	<path class="st2" d="M170.1,62.5c1.4-3.1,1.3-6.8,0.3-10.1c-1-3.4-2.8-6.5-4.6-9.6c-3-5.2-6.3-10.6-11.5-13.5
		c-4.5-2.5-9.8-3-15-3.1c-17.6-0.6-35.2,1.1-52.7,2.8c-11.5,1.1-23,2.2-34.6,3.3c-1.8,0.2-3.7,0.4-5.4,1.2c-1.5,0.7-2.9,2.4-1,3.7
		c0.7,0.4,1.5,0.5,2.3,0.6c25.6,2.6,51.3,5.2,76.3,11.1c15.5,3.7,30.6,8.7,45.7,14C170,62.7,170.1,62.6,170.1,62.5z"/>
	<path class="st2" d="M21.1,94.4c-3.7,2.9-7.5,6.2-4.8,10.9c11.9,20.8,23.9,41.9,40.5,59.2c2.7,2.8,5.5,5.5,9,7.1
		c4,1.8,8.5,2,12.9,2c3.4-0.1,6.9-0.3,10-1.7c1.4-0.6,2.8-2,2.4-3.4c-0.2-0.6-0.7-1.1-1.2-1.5C64.5,145.2,41.5,120.9,21.1,94.4z"/>
</g>
<g>
	<path class="st0" d="M171.3,100.7c4-5.4,6.1-12.2,5.7-18.9c-0.3-4.5-1.7-9.2-4.8-12.5c-3.3-3.5-8-5.3-12.6-6.9
		C123.1,50,84.9,42.8,46.4,41.1c-1.3-0.1-2.7-0.1-3.9,0.4c-2,0.9-4.2,5.3-2.4,7.2c1,1,2.5,1.3,3.9,1.6c18.5,3.6,36.5,9.7,54.4,15.7
		c13.9,4.7,27.8,9.4,41.2,15.3c11.4,5.1,22.5,11.1,31.6,19.6C171.2,100.9,171.3,100.8,171.3,100.7z"/>
	<path class="st0" d="M32.1,67c-2.2,2.1-2.2,3.5-0.8,4.7c3.2,2.6,6.3,5.3,9.7,7.7c9.9,7.1,19.8,14,29.8,20.9
		c1.3,0.9,2.6,1.7,3.9,2.5c8.9,5.2,17.8,10.4,26.7,15.7c9.6,5.6,19,11.5,28.6,17c4.5,2.5,9.3,4.6,14.1,6.4c3.1,1.1,6.5,1.5,9.8,2
		c2.5,0.4,4.7-0.5,6.1-2.5c1.3-1.9,2.8-3.8,3.6-5.9c1.9-5.1-0.6-10.7-5.8-12.5c-6.2-2-12-4.7-17.6-7.9c-3.1-1.7-6.6-3-10-4.3
		c-13.5-5.2-27-10.3-40.5-15.4c-15.7-6-30.5-13.8-45.2-22C40.6,71.2,36.4,69.2,32.1,67z"/>
	<path class="st0" d="M25,85.7c-0.8,0.2-1.4,0.9-1.8,1.8c-0.6,1.4-0.2,2.8,0.6,4c3.1,4.7,6,9.6,9.7,13.9
		c7.8,9.2,16.1,18.1,24.2,27.1c11,12.4,23.5,23.1,36.4,33.5c1.4,1.1,2.9,2.3,4.6,2.8c6.6,1.7,13.3,2.1,19.8-0.1
		c2.1-0.7,4.3-1.6,5.3-4.4c-1.4-0.9-2.6-1.8-3.9-2.6c-3.1-1.8-6.3-3.5-9.3-5.4c-14.6-9.7-28.6-20.2-41.6-32
		c-3.8-3.5-7.9-6.5-11.8-9.9c-3.5-3-7-6.1-10.4-9.3c-3.5-3.2-6.9-6.5-10.4-9.7c-1.7-1.6-3.5-3.3-5.2-4.9c-1.5-1.4-3.1-3.4-4.9-4.5
		C25.8,85.7,25.4,85.6,25,85.7z"/>
	<path class="st0" d="M151,23.7c-0.1-5.4-3.2-10.4-7.4-13.7c-4.2-3.3-9.5-5.1-14.8-6c-13.1-2.2-26.6,0.5-39.5,4
		c-12.2,3.3-24.3,7.2-35.7,12.5c-3.5,1.6-5.9,4.2-4.9,8.3c14.1-1.2,28.3-2.4,42.4-3.6C111.1,23.6,131.1,21.9,151,23.7
		C151,23.7,151,23.7,151,23.7z"/>
</g>
<path class="st0" d="M3.1,90.9c0.1,0.4,0.4,0.8,0.7,1.1c1.6,1.8,3.6,3.2,5.8,4.3c1.5,0.7,3.2,1.2,4.7,0.7c1.7-0.6,2.8-2.3,3.6-3.9
	c1.6-3.3,2.9-6.7,4.2-10.1c6.8-18.4,13.9-36.7,22.1-54.5c0.5-1.1,1.1-2.4,0.6-3.6c-0.5-1.2-1.8-1.8-3-2.1c-1.9-0.6-3.9-0.9-5.8-1
	c-0.6,0-1.3,0-1.9,0.2c-0.5,0.2-0.8,0.6-1.2,1c-1.4,1.7-2.4,3.7-3.3,5.7c-3.7,7.4-7.6,14.7-10.9,22.3c-3.4,7.7-6.7,15.5-10,23.2
	C8.2,75.1,7.9,76,7.5,77c-1.7,4.1-3.4,8.3-4.3,12.6C3.1,90,3,90.4,3.1,90.9z"/>
</svg>
