<?xml version="1.0" encoding="utf-8"?>
<!-- Generator: Adobe Illustrator 17.0.0, SVG Export Plug-In . SVG Version: 6.00 Build 0)  -->
<!DOCTYPE svg PUBLIC "-//W3C//DTD SVG 1.1//EN" "http://www.w3.org/Graphics/SVG/1.1/DTD/svg11.dtd">
<svg version="1.1" id="Layer_1" xmlns="http://www.w3.org/2000/svg" xmlns:xlink="http://www.w3.org/1999/xlink" x="0px" y="0px"
	 width="180px" height="179.107px" viewBox="0 0 180 179.107" enable-background="new 0 0 180 179.107" xml:space="preserve">
<path d="M162.758,97.415l0.003-0.001L180,90.428l-22.655-9.241L176.86,67.46l-24.039-2.686l15.669-19.203l-26.055,5.149
	l12.886-23.132l-22.306,7.559l2.969-23.191l-19.158,15.208L114.422,3.43l-14.121,19.635L91.246,0l-8.288,25.237L69.06,2.567
	L66.47,24.991l0,0.002l-20.294-12.91l2.303,20.057l-21.494-9.106l9.471,22.544l-23.496-4.085l15.096,18.898L3.4,62.892
	l22.068,14.784L0,84.915l21.118,10.429L2.617,109.644l24.303,2.79l-0.001,0.002l-14.962,18.333l27.216-0.208l-9.122,21.562
	l22.544-9.479l-4.085,23.496l18.898-15.096l2.5,24.657l14.784-22.06l7.239,25.468l10.424-21.123l14.308,18.504l2.79-24.307
	l18.481,15.089l-3.899-23.876l22.715,9.91L144.763,129.6l25.862,6.198l-17.124-21.602l23.138-2.173L162.758,97.415z M152.948,113.5
	l-5.632-7.098l-0.074-0.089L101.96,92.169l0.067-0.357l0-0.002l71.757,19.735L152.948,113.5L152.948,113.5z M27.603,111.763
	l-22.022-2.527l74.839-19.63l0.001,0.004l0.089,0.484L27.603,111.763z M21.966,95.629l58.428-7.959l-0.003,0.005l-0.238,0.409
	l0.141,0.786L5.242,108.556L21.966,95.629z M69.447,5.715l19.137,73.954l-0.001,0l-1.845,0.67L65.503,39.812l3.943-34.083V5.715z
	 M86.165,81.336l0.446,0.588l-0.595,0.454l-0.588-0.774L86.165,81.336z M64.737,39.954l20.245,38.629l0.031,0.059L47.715,13.945
	l18.658,11.87L64.737,39.954z M84.225,78.768l-0.01-0.013l-0.007-0.007L49.284,32.595l-0.004-0.008l-2.07-18.029L84.225,78.768z
	 M84.967,80.986l-0.9,0.327l-0.058,0.102L29.225,24.793l19.457,8.233L84.967,80.986z M174.652,111.011l-67.326-18.516l0.014,0.002
	h0.007l50.236,6.964l0.097,0.015l4.338-1.756l0.002-0.001L174.652,111.011z M157.583,98.709l-55.422-7.678l0.267-1.513l74.752,1.253
	l0,0L157.583,98.709z M177.016,90.019l0.005,0.004l-74.458-1.248l0.119-0.691l-0.097-0.171l53.941-6.257L177.016,90.019z
	 M156.444,80.919l-54.261,6.294l-0.409-0.699l-0.001-0.001l72.219-17.948l-0.004,0.004L156.444,80.919z M173.741,67.861
	l-72.355,17.982l-0.631-1.092l51.397-19.307L173.741,67.861z M151.876,64.752l-47.52,17.849h-0.004l61.634-35.142l-0.002,0.002
	L151.876,64.752z M165.373,46.947h0.005l-64.347,36.689l36.344-23.84l4.583-8.221L165.373,46.947z M136.817,59.276L99.996,83.434
	l-0.595-1.019l-0.002-0.003l53.589-52.141l-0.011,0.011L136.817,59.276z M153.091,29.133L99.015,81.747l-0.001-0.002l-0.245-0.432
	l-0.32-0.119L132.8,36.01L153.091,29.133z M132.212,35.549l-34.5,45.378l-0.871-0.312l-0.001,0l38.058-66.01l0,0.001L132.212,35.549
	z M134.203,14.319L96.131,80.353L95.1,79.982l21.733-51.865l17.365-13.794L134.203,14.319z M94.401,79.721l-0.87-0.312
	l20.454-72.975l2.165,21.393L94.401,79.721z M113.229,6.372L92.831,79.148l-0.736-0.268l8.459-54.886l12.671-17.618L113.229,6.372z
	 M91.783,75.959L91.652,3.097l8.173,20.786L91.783,75.959z M90.908,3.432L91.033,72.9l-0.003-0.038v-0.104l-2.634-38.57
	l-0.007-0.097l-4.918-8.028L90.908,3.432z M87.66,34.329l3.05,44.567l-1.424,0.519L70.292,6.013L87.66,34.329z M28.786,25.415
	l-0.015-0.015l-0.004-0.01l54.854,56.694l-0.001,0.002l-0.417,0.714l-45.824-36.97L28.786,25.415z M36.911,46.419l45.921,37.03
	l-0.2,0.34L15.717,42.729h0.004L36.911,46.419z M15.48,43.455l66.787,40.982l0,0.001l-0.059,0.097L29.009,60.392L15.48,43.455z
	 M5.535,63.42l23.176-2.351L78.91,83.858l-43.361-9.01l-0.089-0.015l-9.055,2.574L5.535,63.42z M35.49,75.599l46.315,9.62
	l-0.379,0.67L3.541,84.676L35.49,75.599z M80.994,86.626l-0.133,0.23l-58.977,8.034L2.678,85.406L80.994,86.626z M27.863,112.451
	l52.773-21.614l0.528,2.984l0,0.001l-66.976,35.384L27.863,112.451z M14.274,130.002L81.3,94.592l0.215,1.2l1.451,1.22
	l-43.354,32.796L14.274,130.002z M40.043,130.419l43.51-32.915l0.885,0.744l0.003,0.002l-52.62,51.598v-0.003L40.043,130.419z
	 M32.409,150.321h-0.007l-0.001,0l52.615-51.593l0.003,0.002l1.131,0.952l-33.302,42.044L32.409,150.321z M53.428,142.189
	l33.295-42.03l0.438,0.364L49.76,163.308v-0.004L53.428,142.189z M50.407,163.684l-0.009,0.007l37.456-62.877h1.919L67.408,150.09
	l-16.993,13.586L50.407,163.684z M89.78,102.615l-19.441,70.012l-2.254-22.239L89.78,102.615z M71.143,172.515l18.69-67.319
	l-7.968,38.354l-0.015,0.089l2.574,9.055L71.143,172.515z M82.616,143.61l8.891-42.796h1.196l-1.017,74.71l-0.001-0.004v-0.015
	L82.616,143.61z M92.418,176.436l1.029-75.622h0.768l7.693,56.404L92.418,176.436z M94.966,100.814h0.365l0.58-0.491l0.003-0.003
	l19.645,73.532l-12.915-16.716L94.966,100.814z M116.246,173.54L96.544,99.794l0.788-0.662l21.443,52.394L116.246,173.54z
	 M136.133,164.852l-16.666-13.616L97.928,98.634l0.9-0.751l0.002-0.002l37.316,66.982l-0.005-0.004L136.133,164.852z
	 M136.691,164.301v0.007l0.001,0.008L99.408,97.392h0l0.268-0.216l33.533,45.757L136.691,164.301z M133.797,142.487l-31.174-42.55
	l51.657,51.471L133.797,142.487z M154.57,150.648l-49.023-48.852l29.046,25.326l0.067,0.06l9.159,2.195L154.57,150.648z
	 M135.009,126.498l-34.463-30.051l0.774-0.655l0.156-0.871v-0.007l65.912,39.35L135.009,126.498z M168.098,133.822L101.61,94.128
	v-0.003l0.216-1.213l44.976,14.04l21.294,26.866L168.098,133.822z"/>
</svg>
