<?xml version="1.0" encoding="utf-8"?>
<!-- Generator: Adobe Illustrator 17.0.0, SVG Export Plug-In . SVG Version: 6.00 Build 0)  -->
<!DOCTYPE svg PUBLIC "-//W3C//DTD SVG 1.1//EN" "http://www.w3.org/Graphics/SVG/1.1/DTD/svg11.dtd">
<svg version="1.1" id="Layer_1" xmlns="http://www.w3.org/2000/svg" xmlns:xlink="http://www.w3.org/1999/xlink" x="0px" y="0px"
	 width="166.097px" height="180px" viewBox="0 0 166.097 180" enable-background="new 0 0 166.097 180" xml:space="preserve">
<path d="M166.097,50.791l-0.925,0.423l-30.937-19.952l-19.901,6.426l-2.259-17.329l-0.025-0.19L79.592,0l0.013,0.966L48.852,21.202
	l-1.511,14.532l-15.226-4.917L0,51.53l0.879,0.402l5.138,36.452l18.803,11.415l-13.917,17.694l8.29,37.303l0.718-0.721l35.11,7.634
	L82.814,180l0.014-1.017l31.268-19.43l0.782-5.995l3.273,2.074l0.162,0.102l36.268-12.036l-0.75-0.608l4.128-36.581l-9.907-10.16
	l12.713-7.718L166.097,50.791z M111.298,20.653l2.253,17.287l-1.114,0.36c0,0-18.687,33.025-24.58,42.624l-1.233-0.896h-5.157
	l-1.05-78.565L111.298,20.653z M32.231,31.704l15.025,4.852l-0.773,7.429c0,0,22.576,30.329,29.022,39.656l-0.002,0.001
	l-0.425,1.308l-73.4-33.542L32.231,31.704z M11.773,117.692l13.741-17.471l0.082,0.05c0,0,3.237-0.649,8.084-1.61
	c11.79-1.937,32.983-5.459,40.629-6.996l1.193,3.673l1.037,0.754l-56.879,57.091L11.773,117.692z M56.286,161.577l17.535-13.923
	c0,0,5.963-37.86,8.083-48.703h1.19l-1.069,79.564L56.286,161.577z M118.421,154.847l-3.428-2.172l2.065-15.835
	c0,0-21.057-29.881-27.657-39.905l2.198-1.597l0.421-1.296l60.906,49.355L118.421,154.847z M147.472,95.755l-5.506-5.646
	c0,0-38.269-2.087-49.272-3.095l-0.509-1.565l72.907-33.311l-5.075,36.001L147.472,95.755z"/>
</svg>
