<?xml version="1.0" encoding="utf-8"?>
<!-- Generator: Adobe Illustrator 17.0.0, SVG Export Plug-In . SVG Version: 6.00 Build 0)  -->
<!DOCTYPE svg PUBLIC "-//W3C//DTD SVG 1.1//EN" "http://www.w3.org/Graphics/SVG/1.1/DTD/svg11.dtd">
<svg version="1.1" id="Layer_1" xmlns="http://www.w3.org/2000/svg" xmlns:xlink="http://www.w3.org/1999/xlink" x="0px" y="0px"
	 width="139.477px" height="180px" viewBox="0 0 139.477 180" enable-background="new 0 0 139.477 180" xml:space="preserve">
<path d="M139.183,2.656l0.294-1.296l-0.294-0.067V0l-22.119,31.456h-0.117v0.166l-8.96,12.742l-12.45,6.572l-0.435,0.229v0.374
	v0.165l-4.445,11.024l0.016,0.006L71.722,90.214l-0.247,0.173l0.235,0.335l1.559,11.689l-7.115-0.126l1.747-11.423l0,0l0.064-0.088
	l-0.244-0.177L48.805,62.698l-4.431-10.99v-0.168v-0.374l-0.435-0.229l-12.452-6.573l-8.959-12.741l-0.117-0.166L0.293,0v1.294
	L0,1.367l0.293,1.161v36.788l-0.001-0.001v11.608v0.332l0.193,0.151l15.07,11.641l6.477,8.016l21.219,10.814l-0.007,0.026
	l0.141,0.054l12.154,24.911l-0.094,0.13l0.244,0.177l-3.528,4.863l-0.512-0.663l-14.557-19.93l-0.152-0.096l-0.127-0.082
	L22.97,87.114l2.931,8.034l0.063,0.152l0.058,0.179l5.479,15.017l0.059,0.161l7.567,1.451l6.335,7.442l1.728,10.951l0.298-0.047
	l10.91,23.145l-1.366,7.179l-0.449,0.822l0.265,0.144l0.081,0.282l-0.002,0.002l0.003,0.002l3.997,13.842L69.818,180l8.226-4.166
	l4.293-13.559l0.01-0.009l-0.005-0.006l0.081-0.256l0.266-0.141l-0.473-0.89l-1.434-7.17l3.512-7.549l0.085-0.085l-0.031-0.031
	l7.476-16.067l0.299,0.041l1.347-9.737l6.694-8.138l7.25-1.795l5.594-14.57l0.12-0.313l0.083-0.216l3.323-8.655l-13.924,4.405
	l-0.134,0.084l-0.148,0.09l-16.126,20.628l-2.248-4.252l0.247-0.173l-0.102-0.145l11.397-24.94l0.311-0.159l0.098-0.035
	l-0.005-0.013l21.016-10.709l8.299-8.691l0,0l0.294,0.067l0.086-0.381l13.394-11.058l0.193-0.157v-0.32V39.316l-0.003,0.001V2.656z
	 M127.612,50.875l-9.131,0.055l9.543-5.04l0.645,0.33L127.612,50.875z M129.223,46.503l8.422,4.312l-9.415,0.056L129.223,46.503z
	 M125.059,62.116l-7.242-10.583l9.659-0.058L125.059,62.116z M117.551,50.736V40.538l9.815,5.019L117.551,50.736z M128.676,45.545
	l0.166-0.088l-0.035,0.155L128.676,45.545z M128.018,45.213l-9.948-5.092h11.984l-1.037,4.564L128.018,45.213z M117.762,39.517
	l7.931-14.248l6.147,6.995l-1.648,7.254H117.762z M130.673,40.121h6.988l-7.94,4.193L130.673,40.121z M130.81,39.517l1.521-6.694
	l5.883,6.694H130.81z M132.496,32.096l6.083-26.782v33.705L132.496,32.096z M138.579,2.59l-6.575,28.947l-6-6.828l12.575-22.592
	V2.59z M135.824,5.826l-10.243,18.402l-1.498-1.705L135.824,5.826z M117.551,31.813l6.175-8.782l1.544,1.757l-7.719,13.869V31.813z
	 M116.947,32.671v6.874l-3.554-1.82L116.947,32.671z M113.084,38.165l-0.036,0.071l3.327,1.701l-7.214,3.808L113.084,38.165z
	 M108.396,44.833l8.552-4.515v10.491l-12.808,0.077L108.396,44.833z M116.948,51.731v10.318h-20.28L116.948,51.731z M96.822,61.293
	l6.858-9.753h12.313L96.822,61.293z M107.222,45.452l-3.824,5.438l-6.551,0.039L107.222,45.452z M95.706,51.822l0.114-0.283h0.001
	h7.121l-7.236,10.29V51.822z M116.373,62.869l-8.221,5.106l-15.156-5.106H116.373z M107.488,68.388l-13.209,8.204l-2.674-13.555
	L107.488,68.388z M95.103,53.319v8.946h-3.607L95.103,53.319z M91.036,63.272l2.695,13.66l-7.45,4.628l-2.721-7.335l-0.103,0.038
	L91.036,63.272z M73.677,90.099l12.888-4.585l-9.316,12.05l-4.733-6.744L73.677,90.099z M76.093,88.599l9.879-6.136l0.859,2.316
	L76.093,88.599z M87.4,84.576l-0.905-2.439l7.361-4.572l0.869,4.405L87.4,84.576z M83.114,74.759l2.644,7.126l-12.343,7.666
	l-0.666,0.237L83.114,74.759z M72.463,91.795l4.4,6.269l-3.04,3.932L72.463,91.795z M84.183,129.436l-7.534,7.272l9.757-21.79
	L84.183,129.436z M86.297,119.612l6.44,0.703l-3.447,4.19l-4.392,4.238L86.297,119.612z M75.918,136.863l-1.334-5.534l11.774-17.85
	l0.016,0.031L75.918,136.863z M52.77,114.709l9.728,21.725l-7.555-7.536L52.77,114.709z M54.221,128.178l-4.124-4.113l-3.394-3.987
	l6.175-0.674L54.221,128.178z M56.238,107.447l0.044-0.021l11.742,4.86H52.702L56.238,107.447z M69.231,115.27v21.568l-3.68-5.446
	L69.231,115.27z M65.089,130.708L53.05,112.889h16.104L65.089,130.708z M69.835,114.204l4.101,17.012l-4.101,6.217V114.204z
	 M70.139,112.889h15.885L74.39,130.527L70.139,112.889z M53.198,114.186l11.707,17.328l-1.333,5.842L53.198,114.186z
	 M65.368,132.198l3.802,5.628h-5.087L65.368,132.198z M74.129,132.019l1.385,5.746l-0.027,0.061h-5.188L74.129,132.019z
	 M71.293,112.286l12.161-4.3l2.273,4.3H71.293z M77.226,98.581l5.995,8.542l-9.15-4.462L77.226,98.581z M73.423,103.017l9.365,4.566
	l-12.953,4.578h-0.006l-0.29,0.103l-0.217-0.091h-0.006l-12.301-5.094l8.854-4.194L73.423,103.017z M56.409,106.698l5.905-8.137
	l3.022,3.909L56.409,106.698z M65.612,101.84l-2.929-3.788l4.445-6.125L65.612,101.84z M67.025,91.042l-4.727,6.513l-9.162-11.85
	L67.025,91.042z M52.628,84.862l0.915-2.421l11.277,7.106L52.628,84.862z M66.527,89.91L53.76,81.865l2.617-6.925L66.527,89.91z
	 M55.963,74.33l-2.724,7.207l-7.964-5.018l3.386-12.958L55.963,74.33z M44.74,76.181l-12.718-8.014l16.088-4.881L44.74,76.181z
	 M44.374,53.322l3.717,9.218h-3.717V53.322z M46.503,63.143l-15.158,4.599l-7.298-4.599H46.503z M42.808,62.048H22.529V51.731
	L42.808,62.048z M23.483,51.539h12.313l6.858,9.753L23.483,51.539z M43.77,51.825v10.006l-7.237-10.292h7.122L43.77,51.825z
	 M42.623,50.93l-6.546-0.039l-3.823-5.437L42.623,50.93z M35.336,50.886l-12.807-0.077V40.318l8.552,4.516L35.336,50.886z
	 M30.314,43.744l-7.212-3.807l3.327-1.701l-0.033-0.064L30.314,43.744z M22.528,32.671l3.555,5.055l-3.555,1.818V32.671z
	 M13.248,51.483l8.466,0.051l-5.816,10.468L13.248,51.483z M10.386,40.121h11.017l-9.759,4.992L10.386,40.121z M10.234,39.517
	l-1.999-7.935l5.548-6.313l7.931,14.248H10.234z M9.611,39.517H1.262l6.489-7.384L9.611,39.517z M9.763,40.121l1.218,4.835
	l-9.164-4.835H9.763z M12.473,50.879L1.83,50.815l9.413-4.819L12.473,50.879z M11.898,46.125l9.097,4.805l-7.899-0.047
	L11.898,46.125z M12.11,45.557l9.815-5.019v10.198L12.11,45.557z M21.925,31.813v6.844l-7.719-13.869l1.544-1.757L21.925,31.813z
	 M15.392,22.523l-1.498,1.705L3.651,5.826L15.392,22.523z M13.471,24.709l-5.416,6.163L0.896,2.454V2.117L13.471,24.709z
	 M7.572,31.422l-6.675,7.596V4.924L7.572,31.422z M0.895,40.318l9.906,5.227l-9.906,5.07V40.318z M12.624,51.479l2.673,10.609
	L1.486,51.413L12.624,51.479z M21.925,52.407v10.132h-5.636L21.925,52.407z M16.408,63.143h6.508l7.666,4.83l-8.248,2.502
	L16.408,63.143z M23.031,70.895l8.226-2.496l13.322,8.395l-1.172,4.485L23.031,70.895z M45.115,77.131l7.906,4.982l-0.957,2.533
	l-8.099-3.112L45.115,77.131z M44.212,82.275l7.84,3.013l9.878,12.776l-5.989,8.252L44.212,82.275z M51.848,112.67l0.939,6.137
	l-6.472,0.706l-8.611-26.208L51.848,112.67z M23.949,88.038l11.902,3.571l-9.382,3.336L23.949,88.038z M36.63,91.973l4.063,12.365
	L26.965,95.41L36.63,91.973z M32.009,110.129l-4.791-13.131l11.331,14.385L32.009,110.129z M39.522,111.641L27.658,96.581
	l13.335,8.672l4.344,13.221L39.522,111.641z M46.212,120.432l3.318,3.898l-1.882,5.199L46.212,120.432z M63.077,137.96l-0.159,0.53
	l-7.459,7.459l-7.108-15.079L63.077,137.96z M55.623,146.296l0.172,0.169l6.759-6.759l-3.903,13.012L55.623,146.296z
	 M59.006,153.629l4.447-14.823l0.377-0.377h5.399l-11.254,20.62L59.006,153.629z M57.499,161.553l0.109-0.571l11.623-21.295v22.043
	h-11.52L57.499,161.553z M69.447,179.162l-8.016-3.722l-3.671-12.717l11.688,9.78V179.162z M77.545,175.41l-7.368,3.731v-6.638
	l11.296-9.502L77.545,175.41z M69.835,161.73v-22.777l11.807,22.224l0.111,0.553H69.835z M81.229,159.114L70.24,138.43h5.311
	l-0.001,0.01l4.624,15.414l0.002-0.001L81.229,159.114z M80.525,152.924l-4.181-13.937l7.279,7.279L80.525,152.924z M83.894,145.683
	l-7.613-7.613l13.291-6.704l1.268-0.61L83.894,145.683z M91.603,129.474l-1.748-4.703l2.883-3.505L91.603,129.474z M99.68,111.876
	l-5.998,7.292l4.577-13.757l13.258-8.622l-11.866,15.064L99.68,111.876z M106.964,109.932l-6.25,1.548l11.033-14.006
	L106.964,109.932z M115.522,87.642l-2.871,7.477l-9.158-3.672L115.522,87.642z M102.783,91.813l9.452,3.789l-13.67,8.89
	L102.783,91.813z M101.76,92.975l-8.899,26.747l-6.473-0.707l1.214-7.929L101.76,92.975z M83.698,106.752l-6.086-8.671l9.942-12.86
	l-0.052-0.04l7.229-2.572L83.698,106.752z M95.574,81.668L95.3,81.766l-0.896-4.541l13.825-8.587l7.776,2.62L95.574,81.668z
	 M116.695,70.853l-7.802-2.628l8.211-5.1l-0.159-0.256h7.354L116.695,70.853z M117.551,62.265V52.21l6.88,10.055H117.551z
	 M125.815,61.508l2.28-10.036l9.937-0.059L125.815,61.508z M138.582,50.616l-9.22-4.72l0.184-0.809l9.036-4.769V50.616z"/>
</svg>
