<?xml version="1.0" encoding="utf-8"?>
<!-- Generator: Adobe Illustrator 17.0.0, SVG Export Plug-In . SVG Version: 6.00 Build 0)  -->
<!DOCTYPE svg PUBLIC "-//W3C//DTD SVG 1.1//EN" "http://www.w3.org/Graphics/SVG/1.1/DTD/svg11.dtd">
<svg version="1.1" id="Layer_1" xmlns="http://www.w3.org/2000/svg" xmlns:xlink="http://www.w3.org/1999/xlink" x="0px" y="0px"
	 width="180px" height="126.562px" viewBox="0 0 180 126.562" enable-background="new 0 0 180 126.562" xml:space="preserve">
<path d="M172.744,0l-32.59,6.862h-0.006l-0.013,0.006l-0.095,0.019l-0.076,0.013L98.349,39.173l-4.81-6.329l6.278-14.049
	l0.045-0.102l-2.834-9.601l-5.579,23.479H87.96L82.388,9.093l-2.84,9.601l6.456,14.443l-4.448,5.287L40.87,6.945l-0.184-0.14
	l-0.172-0.032L6.996,0.102L6.475,0L6.38,0.362L0,23.981l13.128,13.217l0.21,0.477l7.155,27.876l24.165-0.839L27.113,89.117
	l-0.108,0.153l14.462,29.312l22.062,6.144l6.329,1.766l0.248,0.07L86.74,95.179l3.209,3.812l3.495-4.187l16.063,31.091l0.248-0.07
	l1.023-0.286v0.013l28.092-7.638l0.324-0.089l0.191-0.413l0.216-0.464l13.102-28.447l-19.018-24.889l25.722,2.237l6.78-28.263
	l0.089-0.362l0.121-0.127L180,23.212L172.744,0z M173.055,3.126l0.388,1.226l3.781,12.124l-7.403,4.848l-10.484-5.109l13.089-15.116
	L173.055,3.126z M171.797,0.852l-13.051,15.072l-17.665-8.61L171.797,0.852z M150.733,26.147l4.079-4.715l9.925,14.386
	L150.733,26.147z M165.017,36.778l-24.292,0.921l9.588-11.069L165.017,36.778z M148.992,11.876l9.321,4.543l-3.444,3.978
	L148.992,11.876z M140.42,7.701l7.409,3.609l6.615,9.582l-4.238,4.893l-9.862-6.818L140.42,7.701z M140.337,19.736l9.455,6.526
	l-9.576,11.056L140.337,19.736z M139.785,7.848l-0.07,10.942l-39.669,19.882L139.785,7.848z M132.458,64.05l-10.052,26.942
	l-8.114-12.677L132.458,64.05z M113.949,77.781l-16.343-25.55l34.725,11.12L113.949,77.781z M98.629,51.894l40.787-13.255
	l-6.64,24.19L98.629,51.894z M139.708,19.501l-0.121,18.243l-39.237,1.481L139.708,19.501z M98.584,39.93l39.389-1.493L97.6,51.564
	l-0.032-0.013L98.584,39.93z M97.091,11.558l2.097,7.091l-6.221,13.922h-0.864L97.091,11.558z M80.227,18.65l2.09-7.091
	l4.988,21.013h-0.864L80.227,18.65z M82.369,50.738l-0.057,0.019L43.113,38.214l38.201,0.959L82.369,50.738z M56.755,91.614
	L46.646,65.746L64.99,79.154l-7.6,12.518L56.755,91.614z M57.022,92.275l-0.006,0.006v-0.006H57.022z M65.505,79.535l20.06,14.659
	l-27.469-2.459L65.505,79.535z M65.321,78.614L46.214,64.647l-0.095-0.241l35.596-12.759L65.321,78.614z M45.54,63.942
	l-4.607-25.753l40.393,12.924L45.54,63.942z M40.87,7.746l37.947,29.369L40.87,18.097V7.746z M40.87,18.802l39.319,19.711
	l-39.23-0.985l-0.089-0.032V18.802z M25.162,21.178l4.13,4.581L14.831,35.863L25.162,21.178z M25.099,20.162l-3.546-3.933
	l9.347-4.314L25.099,20.162z M29.725,26.236l10.16,11.266l-25.378-0.635L29.725,26.236z M30.252,25.874l9.982-6.977l0.006,18.046
	L30.252,25.874z M40.234,18.116L29.82,25.391l-4.283-4.747l6.519-9.264L40.234,7.6V18.116z M39.542,7.225l-18.44,8.515L7.708,0.89
	L39.542,7.225z M6.646,1.798l0.235-0.877l13.617,15.091l-9.862,4.556l-6.532-9.36L6.646,1.798z M13.49,36.664l-0.464-0.47
	L0.705,23.79l3.183-11.787l6.532,9.366l10.529-4.861l3.774,4.187L13.706,36.359L13.49,36.664z M13.947,37.49v-0.006l25.995,0.654
	L20.873,64.488L13.947,37.49z M21.375,64.882l18.999-26.255l4.543,25.442L21.375,64.882z M45.369,64.812l0.318,0.235L56.05,91.551
	l-28.092-2.516L45.369,64.812z M27.907,89.67l28.397,2.542l0.299,0.756l-14.939,24.578L27.907,89.67z M56.895,93.711l5.261,13.464
	l-19.78,10.421L56.895,93.711z M63.421,124.039l-20.88-5.814l19.844-10.459l4.48,11.456C64.539,122.279,63.7,123.506,63.421,124.039
	z M64.024,124.211c0.362-0.616,1.487-2.154,3.113-4.289l2.262,5.782L64.024,124.211z M69.978,125.444l-2.389-6.119
	c4.226-5.534,11.336-14.519,17.239-21.896L69.978,125.444z M74.801,109.031c-3.393,4.302-5.789,7.383-7.485,9.601l-4.365-11.164
	L85.47,95.605C83.582,97.968,79.16,103.503,74.801,109.031z M62.722,106.877l-5.414-13.852l0.419-0.686l27.857,2.491L62.722,106.877
	z M65.842,78.988l16.61-27.335l3.844,42.287L65.842,78.988z M82.019,39.879l4.295,5.312l0.038,42.35L82.019,39.879z M82.019,38.868
	l0.146-0.172l7.619-5.49h0.299l6.684,4.937l1.106,1.455l-4.975,5.16h-6.119L82.019,38.868z M93.183,94.118l-0.089,0.102
	l-0.089,0.114l-3.056,3.673l-2.77-3.298l-0.089-0.102l-0.095-0.152v-0.133L86.95,45.394h5.763l0.47,48.552V94.118z M93.349,45.197
	l4.543-4.708L96.862,52.25l-3.107,35.443L93.349,45.197z M97.428,53.133l16.019,25.042L93.882,93.533L97.428,53.133z M113.79,78.709
	l7.981,12.473l-27.215,2.631L113.79,78.709z M122.107,91.786l-5.249,14.068L94.613,94.442L122.107,91.786z M116.637,106.457
	l-4.346,11.647L94.619,95.166L116.637,106.457z M109.736,124.954L95.401,97.218l16.629,21.579L109.736,124.954z M115.69,123.556
	l-5.293,1.436l2.09-5.598l3.203,4.156V123.556z M119.871,122.419l-3.52,0.953l-3.603-4.677l4.454-11.946l20.886,10.713
	L119.871,122.419z M117.431,106.146l5.121-13.738l15.593,24.368L117.431,106.146z M138.94,116.84l-16.076-25.131l28.949-2.796
	L138.94,116.84z M151.737,88.285l-28.676,2.77l10.103-27.081L151.737,88.285z M133.399,62.944l6.634-24.158L158.51,65.13
	L133.399,62.944z M159.019,64.749l-18.522-26.408l25.08-0.947L159.019,64.749z M166.034,36.568l-0.197-0.286l-10.592-15.345
	l3.66-4.225l11.132,5.42l7.39-5.02l1.849,5.928l-12.746,13.02L166.034,36.568z"/>
</svg>
