<?xml version="1.0" encoding="utf-8"?>
<!-- Generator: Adobe Illustrator 25.2.1, SVG Export Plug-In . SVG Version: 6.00 Build 0)  -->
<svg version="1.1" id="Layer_1" xmlns="http://www.w3.org/2000/svg" xmlns:xlink="http://www.w3.org/1999/xlink" x="0px" y="0px"
	 viewBox="0 0 180 95.5" style="enable-background:new 0 0 180 95.5;" xml:space="preserve">
<style type="text/css">
	.st0{fill:#FFC95E;}
	.st1{fill:#F89521;}
	.st2{fill:#EB0D8C;}
	.st3{fill:#F47A50;}
	.st4{fill:#342624;}
	.st5{fill:#BD5F3D;}
	.st6{fill:#F8A282;}
	.st7{fill:#FCB44B;}
	.st8{fill:#E55365;}
	.st9{fill:#85C54E;}
	.st10{fill:#010101;}
	.st11{fill:#FBBF9D;}
	.st12{fill:#F47536;}
	.st13{fill:#209DD8;}
	.st14{fill:#E982B5;}
	.st15{fill:#F7B132;}
	.st16{fill:#FAE807;}
	.st17{fill:#3D3D3C;}
	.st18{fill:#E01F26;}
	.st19{fill:#069848;}
	.st20{fill:#ED247C;}
	.st21{fill:#808285;}
	.st22{fill:#E4215D;}
	.st23{fill:#44C8F5;}
	.st24{fill:#FDB92E;}
	.st25{fill:#FFFFFF;}
	.st26{fill:#9C2E8C;}
	.st27{fill:#61318E;}
	.st28{fill:#1F82C2;}
	.st29{fill:#F3C7D6;}
	.st30{fill:#923D83;}
	.st31{fill:#3F5691;}
	.st32{fill:#EF8032;}
	.st33{fill:#FEFEFE;}
	.st34{fill:#FAF6F2;}
	.st35{fill:#93C04C;}
	.st36{fill:#EE5B27;}
	.st37{fill:none;stroke:#FFE8C2;stroke-miterlimit:10;}
	.st38{fill:none;stroke:#000000;stroke-miterlimit:10;}
</style>
<g>
	<g>
		<path class="st13" d="M163.5,73.4c-0.7-1.2-1.4-2.3-2.2-3.5c0.4-0.5,0.5-1.1,0.2-1.9c-0.1-0.2-0.1-0.3-0.2-0.5
			c0.8-0.3,1.4-1.2,1.2-2.3c0.8-0.8,1-2.2,0.2-3.1c-0.4-0.9-1.2-1.2-2-1.1c-0.5-0.2-1-0.3-1.4-0.4c-1-0.3-1.7,0.2-2.1,1
			c-0.9-0.2-1.7,0.1-2.3,0.8c-1.3,0-2.5,1.2-2,2.6c-1.1,0.2-1.9,1.2-1.7,2.3c-1.1-1.1-2.3-2.1-3.4-3.1c-1.4-1.2-3.3,0.2-3.2,1.7
			c-0.1-0.1-0.1-0.2-0.2-0.3c0-0.1-0.1-0.2-0.1-0.3c0.5-0.9,0.4-2.1-0.7-2.8c-1.9-1.1-3.7,0.4-3.5,2.4c-0.4-0.4-0.9-0.7-1.3-1.1
			c-1.3-1.1-3.2,0-3.3,1.5c-1.5-1.5-3-3-4.8-4.3c-1.9-1.4-4,0.7-2.9,2.7c0.1,0.2,0.2,0.4,0.3,0.6c-0.4-0.3-0.8-0.5-1.3-0.7
			c-1.8-0.9-3.2,1.3-2.4,2.8c0.7,1.2,1.4,2.3,2.1,3.5c-0.7-0.7-1.3-1.4-2-2.1c-1.3-1.3-3.7,0.4-2.9,2.1c0.6,1.2,1.2,2.3,1.9,3.4
			c-1.8-0.8-3.6,1.4-2,2.8c1,0.8,1.8,1.7,2.6,2.7c-0.7,0.5-0.9,1.9,0.1,2.5c1,0.6,2,0.7,3,1.1c0.3,0.1,0.6,0.1,0.8,0
			c0.3,0.4,0.6,0.8,0.9,1.2c1.2,1.6,3.9,0.3,3.2-1.7c-0.1-0.2-0.2-0.5-0.3-0.7c0.7,0.6,1.4,1.2,2.1,1.7c1.4,1.1,3.7-0.3,2.9-2.1
			c-0.4-0.9-0.8-1.8-1.3-2.7c0.3,0.3,0.6,0.7,0.9,1c1.4,1.4,3.8-0.4,3-2.2c-0.5-1-1-2-1.5-3c0.5,0.5,1.1,0.9,1.6,1.3
			c1.3,0.9,2.9,0.2,3.2-1.1c0.1,0.1,0.1,0.2,0.2,0.3c2.1,2.3,4.2,4.7,6,7.3c-0.7-0.5-1.4-1-2.1-1.5c-1.1-0.8-2.5,0.8-1.4,1.7
			c2.2,2,4.4,4,6.9,5.7c1.2,0.8,2.8-0.2,2.3-1.7c-0.4-1.1-0.8-2.1-1.3-3.1c0.7,0.6,1.4,1.1,2,1.7c0.4,0.3,0.7,0.4,1.1,0.5
			c0.4,0.5,0.7,0.9,1.1,1.4c1.3,1.6,4.2,0.3,3.3-1.8c-0.5-1.1-1-2.2-1.6-3.2c0.2,0.1,0.3,0.3,0.5,0.4c1.4,1.2,4.1-0.4,3.2-2.2
			c-0.4-0.9-0.9-1.8-1.4-2.6C163.3,76.4,164.2,74.7,163.5,73.4z"/>
	</g>
	<g>
		<path class="st14" d="M98.9,76.7c-0.7-0.8-1.4-1.5-2.2-2.3c1-0.4,1.6-1.7,0.8-2.6c-0.7-0.9-1.5-1.7-2.3-2.6
			c1.3-0.2,2.1-1.8,0.9-3.1c-0.8-0.8-1.5-1.7-2.3-2.5c0.7-0.5,1-1.5,0.3-2.3c-0.6-0.8-1.2-1.7-1.7-2.6c0.1-0.1,0.2-0.2,0.3-0.4
			c1.7,0,2.2-2.2,0.7-3.1c-0.2-0.1-0.4-0.2-0.6-0.3c-0.2-0.1-0.3-0.1-0.5-0.1c-0.5-0.3-1.1-0.6-1.7-0.6c-1.1-0.1-2.2,0.7-2.1,1.9
			c0,0.2,0,0.3,0.1,0.4c-0.1,0.1-0.2,0.3-0.3,0.5c0,0.1-0.1,0.2-0.1,0.2c-0.1-0.1-0.3-0.2-0.4-0.2c-0.8-0.4-1.6-0.1-2.1,0.5
			c-1.3-0.9-2.6-1.7-4-2.4c-1.5-0.7-3.5,1.2-2.2,2.7c0.6,0.6,1.1,1.3,1.7,1.9c-0.1,0.2-0.2,0.3-0.3,0.5c-0.4-0.2-0.8-0.4-1.2-0.6
			c-1.5-0.7-3.2,1.2-2.1,2.5c0.4,0.5,0.8,1,1.2,1.4c-0.6-0.4-1.2-0.8-1.9-1.2c-1.4-0.9-2.8,1.1-2,2.4c1.8,2.7,3.9,5.2,5.7,7.9
			c-1.6-1.5-3.1-3-4.8-4.4c-1-0.9-3,0.3-2.3,1.6c0.7,1.5,1.5,2.9,2.4,4.3c-0.8-0.3-1.6-0.6-2.5-0.9c-1.2-0.4-2.3,0.7-1.5,1.9
			c1.2,1.8,2.2,3.7,3.2,5.5c0.5,0.9,1.8,0.1,1.5-0.8c-0.4-1-0.8-2-1.2-2.9c1.5,0.7,3,1.4,4.4,2.3c1,0.6,2.1-0.4,2-1.4
			c1,0.9,2.1,1.8,3.2,2.6c1.1,0.8,2.9-0.2,2.3-1.7c-1-2.3-2.2-4.5-3.5-6.6c2.3,2.2,4.5,4.5,6.9,6.6c1.5,1.3,3.3-0.7,2.4-2.2
			c-0.2-0.3-0.4-0.7-0.6-1c1.4,1.4,2.8,2.8,4.3,3.9C98.5,80.7,100.4,78.3,98.9,76.7z"/>
	</g>
	<g>
		<path class="st15" d="M54.3,73c-2.3-2.5-4.6-5-6.9-7.4c-1.3-1.5-2.6-3.1-3.8-4.6c1.9,1.8,3.9,3.5,5.9,5.1c2.4,1.9,5.1-1.5,3-3.6
			c-1.8-1.8-3.6-3.6-5.4-5.4c1.1-0.6,1.7-2,0.8-3.3c-0.9-1.1-1.8-2.3-2.7-3.4c0.7-0.7,1-1.9,0.3-3c-0.3-0.5-0.6-1-0.9-1.5
			c0.7-0.7,1.1-1.9,0.7-2.9c0.1-0.3,0.1-0.6,0-1c-0.5-2.6-1.9-3.7-4.5-3.8c-1.3,0-2,1-2.1,2.1c-1.5,0.5-2.5,2.1-1.3,3.6
			c0.2,0.3,0.4,0.6,0.6,0.8c-0.3,0.2-0.6,0.4-0.8,0.6c-1.4-1.1-2.7-2.2-4.1-3.4c-1.8-1.5-4.4,0.5-3.9,2.4c-0.8-0.4-1.7-0.7-2.5-1
			c-1.6-0.5-3.8,0.9-3.4,2.6c-0.7,0.3-1.3,0.9-1.5,1.6c-0.1-0.1-0.3-0.2-0.4-0.3c-2.1-1.7-4.4,0.9-3.3,3c1.2,2.1,2.4,4.2,3.7,6.3
			c-1-0.8-2.1-1.5-3.3-2.1c-1.6-0.9-3.8,1-2.9,2.7c2.4,4.9,6.1,9.2,9.2,13.8c-2.8-3-5.6-6-8.8-8.7c-1.5-1.2-4.3,0.4-3.3,2.3
			c1.4,2.6,3,5,4.7,7.4c-1.7-1.4-3.5-2.7-5.6-3.5c-1.7-0.7-3.5,1.2-2.3,2.8c0.4,0.6,0.8,1.1,1.2,1.7c-0.4-0.2-0.8-0.5-1.2-0.7
			c-1.1-0.6-2.4,0.9-1.6,1.9c1.4,1.8,2.1,4.1,3.3,6.1c0.5,0.9,2.1,0.1,1.6-0.9c-0.3-0.6-0.6-1.2-0.8-1.9c1,0.9,1.9,1.8,2.7,2.8
			c1.2,1.4,3.4,0.3,2.9-1.5c-0.2-0.8-0.5-1.7-0.9-2.5c2.4,2.1,4.8,4.3,7.6,5.8c1.4,0.8,3.5-0.9,2.7-2.5c-0.2-0.4-0.5-0.8-0.7-1.2
			c1.3,1.2,2.7,2.4,4.1,3.6c1.8,1.4,3.8-0.4,3.3-2.4c-1-3.8-2.9-7-5-10.2c3.3,4,6.5,8.1,10.5,11.2c1.9,1.5,4.7-0.9,3.2-3
			c-1.6-2.3-3.3-4.5-5-6.8c2.2,2.6,4.5,5.1,6.9,7.5c1.9,1.9,4.7-1,3.3-3.1c-2.9-4.2-5.9-8.3-9.1-12.3c1.4,1.5,2.8,2.9,4.2,4.4
			c2.5,3,5.1,5.9,8,8.6C52.9,77.8,56.1,74.9,54.3,73z"/>
	</g>
	<g>
		<path class="st16" d="M79.3,36c-0.4-1.6-2.5-2.2-3.8-2.7c-1.4-0.6-2.9,0.4-2.8,1.9c0,0,0,0.1,0,0.1c-0.6-0.2-1.2-0.3-2.2,0
			c-0.7,0.2-1.2,0.9-1.3,1.6c-1.2-1.4-3.6-0.7-3.5,1.3c0,0.6,0,1.3,0,1.9c-0.3-0.2-0.6-0.5-0.9-0.7c-1.7-1.3-3.7,0.7-2.7,2.5
			c1,1.6,1.7,3.4,2.6,5.1c0.6,1.2,1.3,3.4,3,3.3c0.9-0.1,1.5-1,1.2-1.9c0,0,0-0.1-0.1-0.5c-0.1-0.3-0.2-0.6-0.4-0.9
			c-0.1-0.2-0.2-0.4-0.3-0.6c0.7-0.3,1.3-1,1.3-1.9c0-0.8,0-1.7,0-2.5c0.2,0.1,0.3,0.3,0.4,0.5c1.1,1.3,3.2,1,3.5-0.8
			c0.1-0.6,0.2-1.2,0.2-1.8C73.9,40,74,40,74,40c0.8,0.2,1.8-0.4,2.1-1.1c0.1-0.3,0.2-0.6,0.3-0.9c0.6,0.2,1.3,0.3,1.9,0
			C79.3,37.7,79.5,36.8,79.3,36z"/>
	</g>
	<g>
		<path class="st16" d="M112.1,47.3c-0.4-1-0.9-2-1.5-2.9c-0.8-1.7-1.4-3.5-2.2-5.2c-0.5-1.1-1.6-1.4-2.5-1.2
			c-0.4-0.4-0.8-0.8-1.3-1.2c-1.2-1.1-2.8-0.2-3.3,1c-0.8,0.1-1.4,0.7-1.6,1.5c-0.9-0.7-1.7-1.5-2.4-2.3c-1.1-1.2-3.4-0.3-2.7,1.4
			c0.4,1,1,1.7,1.7,2.3c1.4,1.4,3.1,2.6,4.2,4.2c1,1.6,3.4,0.5,3.3-1.2c0,0,0-0.1,0-0.1c0.5,0.5,1,1,1.4,1.6
			c0.4,0.5,0.8,0.7,1.3,0.8c0.2,0.3,0.4,0.6,0.8,0.7c0.4,0.8,0.8,1.6,1.3,2.4C109.6,51.3,113,49.5,112.1,47.3z"/>
	</g>
	<g>
		<path class="st13" d="M145.3,50.1c-0.6-0.8-1.2-1.6-1.8-2.4c0.8-0.3,1.3-1.4,0.7-2.3c-0.2-0.3-0.3-0.5-0.5-0.8
			c1.2-0.5,1.4-2.6-0.2-2.8c0.8,0.1-0.3-0.1-0.4-0.1c-0.9-0.1-1.8-0.2-2.7-0.3c-1-0.1-1.7,0.6-1.8,1.4c-0.9,0.3-1.6,1.4-0.8,2.3
			c0.9,1.1,1.7,2.4,2.5,3.6c-0.6,0.2-1.2,0.7-1.1,1.4c-0.6,0.2-1.1,0.7-0.9,1.4c0.2,1.1,0.6,2.2,1.1,3.2c-0.2,1,0.1,1.4,1.4,1.8
			c0.5,0.2,0.9,0.1,1.3-0.2c1.1,0.9,3.1,0.1,2.4-1.5c-0.3-0.8-0.6-1.5-1-2.3c0.2,0,0.3,0,0.5,0C145.3,52.6,146,51,145.3,50.1z"/>
	</g>
	<g>
		<g>
			<path class="st17" d="M40.2,28c-0.7,2.4-1.1,4.2-3.6,5.4c-1.8,0.9-4,0.9-6,0.7c-3.1-0.3-9.5-2.3-8-6.6c0.1-0.2-0.1-0.3-0.3-0.2
				c-2.9,4.1,4,6.8,6.9,7.4c4.4,0.9,12.4-0.6,11.5-6.8C40.7,27.7,40.3,27.7,40.2,28z"/>
		</g>
		<g>
			<path class="st17" d="M28.6,17.3c0,0.6,0.1,1.3,0,1.9c-0.1,0-0.2,0.1-0.2,0.2c0,0,0,0.1,0,0.1c-0.1-0.6-0.2-1.2-0.3-1.8
				c-0.1-0.6-0.9-0.5-0.9,0.1c0,0.2,0,0.3,0,0.5c-0.2,0-0.3,0.2-0.3,0.4c0.1,1.5,0.2,2.9,0.4,4.3c0,0.3,0.4,0.4,0.6,0.3
				c0,0.1,0.1,0.2,0.1,0.2c0.1,0.1,0.2,0.1,0.2,0c0.1,0.1,0.2,0.2,0.4,0.2c0,0,0,0,0,0c0.1,0.6,0.9,0.5,0.9-0.1
				c-0.2-2.2,0-4.4-0.2-6.6C29.4,16.7,28.5,16.8,28.6,17.3z"/>
		</g>
		<g>
			<path class="st17" d="M37.9,18.7c-0.1-0.5-0.8-0.5-0.9,0c0,0.1,0,0.3,0,0.4c-0.2-0.3-0.7-0.2-0.8,0.1c-0.3,0.9,0,1.9,0.1,2.8
				c0,0.1,0,0.4,0.1,0.7c0,0.9,0,1.7-0.1,2.6c-0.1,0.5,0.8,0.7,0.8,0.2c0.1-0.8,0.2-1.5,0.2-2.3c0,0.1,0,0.2,0,0.4
				c0,0.5,0.8,0.5,0.9,0C38.5,21.9,38.1,20.3,37.9,18.7z"/>
		</g>
		<g>
			<path class="st17" d="M108,38.8c-3.1-4.3-8.9-5.1-11.2,0.3c-0.1,0.3,0.3,0.5,0.5,0.2c2.5-4.8,7.1-3.9,10,0
				c3.3,4.2,2,9.2-2.4,11.6c1.1-5.1-2.8-10.4-8.1-10.7c-1.1-3.4-3.4-6-6.7-5.8c-4.7-2-8.8,0.9-10.9,5.1c0,0,0,0,0,0
				c-6.3-1-9.4,4.3-9.7,9.9c-2.4-0.7-4.4-2.1-4.6-4.7c-0.2-2.3,1.1-4.5,2.5-6.2c1.5-1.7,3.5-3.1,5.8-3.4c1.1-0.1,2.2,0.2,3.1,0.8
				c1.1,0.7,1.5,2.1,2.5,2.9c0.1,0.1,0.3,0,0.3-0.1c0-2.4-3.3-4.4-5.5-4.4c-2.8,0-5.2,1.7-7,3.7c-1.8,2-3,4.7-2.7,7.4
				c0.4,3,3.1,4.5,5.8,5.1c0.3,0.1,0.5-0.2,0.5-0.5c0-5.2,2.6-10.3,8.5-9.6c-1.9,4.4-1.8,10,1.7,13c-5.2,7.8-6.1,17.4-7.9,26.5
				c0,0.2,0.1,0.5,0.4,0.5c5.8,0.9,11.6,0.7,17.5,0.1c0,0,0,0.1,0,0.1c0.1,3.3-1.3,7.9,0.5,10.9c1.1,1.9,4.1,3.4,6.3,2.3
				c1.5-0.8,1.8-2.5,1-3.9c-1.3-2.2-4.9-1.9-6.8-0.9c-0.3,0.1-0.2,0.6,0.1,0.6c1.9-0.2,4.3-1.1,5.8,0.6c1.3,1.4-0.1,3-1.6,3.1
				c-6.7,0.4-4.4-8.9-4.8-12.8c0,0,0-0.1,0-0.1c3-0.3,5.9-0.7,8.9-1.1c0.2,0,0.4-0.2,0.4-0.5C99.6,70.3,92.5,62,94,53.6
				c0-0.1,0-0.2-0.1-0.3c3.4-2.9,4.2-8,3.2-12.2c4.8,0.9,8.6,5.3,6.9,10.4c-0.1,0.3,0.2,0.7,0.5,0.6C110.2,49.5,111.6,43.8,108,38.8
				z M95.3,64.9c1,2.9,2.1,5.7,3,8.6c0.4,1.4,0.7,2.9,0.9,4.3c0.1,1-5.6,1.3-6.2,1.4c-3.4,0.4-6.8,0.7-10.3,0.8
				c-2.2,0.1-4.3,0-6.5-0.2c-3.1-0.2-2.3-2.1-1.9-4.5c1.4-7.6,2.6-15.1,6.5-21.9c1.6,1.2,3.7,2,6.6,1.9c2.2,0,4.1-0.6,5.5-1.6
				C92.3,57.5,94.1,61.7,95.3,64.9z M96.9,43.9c0.5,5.6-2.9,10.3-8.6,10.7c-14.9,1-10.9-21.4,0.6-20c-0.2,0.1-0.4,0.1-0.6,0.2
				c-0.5,0.2-0.2,0.9,0.3,0.8c3.9-1,6.3,1.6,7.5,4.8c-0.2,0.2-0.1,0.6,0.2,0.7l0,0C96.6,41.9,96.8,43,96.9,43.9z"/>
		</g>
		<g>
			<path class="st17" d="M92.4,47.7c-1.4,1.8-2.1,3.3-4.5,4c-1,0.3-2.1,0.3-3.1-0.1c-1.3-0.5-1.5-1.8-2-3c-0.1-0.2-0.4-0.2-0.4,0
				C81.8,55,92.6,53.1,92.9,48C92.9,47.7,92.6,47.5,92.4,47.7z"/>
		</g>
		<g>
			<path class="st17" d="M90.4,44.8c-0.4-0.5-0.5-1.3-0.5-1.9c0-0.2-0.2-0.3-0.4-0.3c0-0.2,0-0.4,0-0.5c0-0.6-0.9-0.5-0.9,0.1
				c0,0.5,0,1.1,0,1.7c0,0.4-0.1,1,0.2,1.3c0,0,0,0,0,0c0,0.3,0.1,0.6,0.1,0.9c0,0.5,0.9,0.5,0.8-0.1c0-0.3,0-0.6,0-0.9
				c0.1,0.1,0.1,0.2,0.2,0.3C90.3,45.5,90.6,45.1,90.4,44.8z"/>
		</g>
		<g>
			<path class="st17" d="M85.6,43.3c-0.1-0.2-0.3-0.3-0.5-0.2c0-0.1,0-0.1,0-0.2c-0.1-0.5-0.8-0.4-0.7,0.1c0.1,1.2-0.1,2.3,0,3.5
				c0,0.2,0.2,0.3,0.3,0.2c0,0.1,0,0.1,0,0.2c0,0.5,0.8,0.5,0.8-0.1c0-0.5,0-1.1,0-1.6c0-0.3,0-0.7,0-1c0-0.1,0-0.2,0-0.3
				C85.6,43.7,85.7,43.5,85.6,43.3z"/>
		</g>
		<g>
			<path class="st17" d="M151.1,26.2c-1.3,3.5-4.9,4.6-8.4,4.7c-1.4,0.1-6.6-0.2-6.3-2.7c0-0.1-0.1-0.2-0.2-0.1
				c-1.2,2.7,3.6,3.5,5.3,3.6c4,0.3,8.7-1.1,10.3-5.2C152.1,26,151.4,25.7,151.1,26.2z"/>
		</g>
		<g>
			<path class="st17" d="M148.9,18.4c0-0.3,0.1-0.6,0.1-0.8c0.1-0.6-0.7-0.7-0.9-0.2c-0.1,0.2-0.1,0.4-0.1,0.7
				c-0.1,0-0.1,0.1-0.1,0.2c0,0,0,0.1,0,0.1c0,0,0,0,0,0c0,0,0,0,0,0c-0.2,0.5-0.2,1-0.3,1.5c0,0,0,0,0,0c-0.4,0-0.5,0.5-0.1,0.7
				c-0.2-0.1-0.1,0.2-0.1,0.4c0,0.2,0,0.4,0,0.6c0,0.3,0.1,0.5,0.3,0.6c0,0,0.1,0,0.1,0c0,0.1,0,0.2,0,0.3c0,0.3,0.5,0.3,0.5,0
				c0-0.2,0-0.3,0-0.5c0,0,0,0,0,0c0.3,0.1,0.6-0.1,0.5-0.5c0-0.9,0.2-1.8,0.2-2.6C149.1,18.5,149,18.4,148.9,18.4z"/>
		</g>
		<g>
			<path class="st17" d="M140.6,16.9c-0.1-0.6-0.9-0.5-0.9,0.1c0,0.2,0,0.3,0,0.5c-0.2,0-0.3,0.2-0.3,0.4c0.1,1,0.2,2,0.2,3
				c0,0.1,0.1,0.2,0.2,0.3c0,0.2,0,0.4,0.1,0.6c0.1,0.3,0.6,0.3,0.5,0c0-0.2,0-0.4,0-0.6c0.1-0.1,0.1-0.2,0.1-0.3c0-0.1,0-0.2,0-0.3
				c0.2,0,0.4-0.1,0.4-0.3C141,19.1,140.7,17.9,140.6,16.9z"/>
		</g>
		<g>
			<path class="st17" d="M136.5,4.7c-0.1-0.6-0.3-1.2-0.4-1.8c0,0,0-0.1,0-0.1c0-0.3,0-0.9-0.4-1c-0.2,0-0.5,0.1-0.5,0.3
				c0,0.8,0.3,1.7,0.5,2.5c0.2,1,0.5,2,0.6,3c0.1,0.4,0.6,0.3,0.6-0.1C136.9,6.6,136.7,5.6,136.5,4.7z"/>
		</g>
		<g>
			<path class="st17" d="M155,3.5c-0.5,0.5-0.8,1.2-1.1,1.8c-0.5,0.9-0.9,1.9-1.2,2.9c-0.1,0.3,0.4,0.6,0.5,0.2
				c0.4-0.9,0.8-1.7,1.2-2.6c0.3-0.7,0.9-1.4,1-2.1C155.5,3.5,155.2,3.3,155,3.5z"/>
		</g>
		<g>
			<path class="st17" d="M159.5,6.3c0,0.2-0.3,0.5-0.4,0.7c-0.3,0.5-0.6,1-0.9,1.4c-0.3,0.5-0.7,0.9-1.1,1.4
				c-0.2,0.2-0.6,0.7-0.9,0.7c-0.2,0-0.3,0.2-0.1,0.3c0.9,0.4,1.8-0.9,2.3-1.5c0.4-0.6,0.8-1.1,1.2-1.7c0.2-0.3,0.5-0.8,0.5-1.2
				C160.1,5.9,159.5,5.9,159.5,6.3z"/>
		</g>
		<g>
			<path class="st17" d="M170.2,45.4c-4.9-4.1-10.1-8.5-15.8-11.4c5.9-5.1,7.8-13.2,3.5-20.4c-2.3-3.9-5.9-6-9.9-6.7
				c0.1-0.6,0.2-1.1,0.3-1.7c0.2-0.9,0.7-1.7,0.9-2.6c0.1-0.3-0.2-0.4-0.4-0.3c-0.8,0.5-0.9,1.7-1.1,2.5c-0.1,0.7-0.2,1.3-0.3,2
				c-1.7-0.2-3.5-0.2-5.3,0c0,0,0.1-0.1,0.1-0.1c-0.1-1.3,0-2.6,0-3.8c0-0.3,0-0.5,0-0.8c0-0.6-0.1-0.6-0.3-1.2
				c0.2,0.4,0.3,0.7,0.6,1.1c0.2,0.3,0.7,0,0.6-0.3c-0.2-0.5-0.3-1.4-0.8-1.6c-0.1-0.1-0.3-0.1-0.4,0c-0.6,0.6-0.3,1.7-0.3,2.4
				c0,1.4,0,2.8,0.1,4.2c0,0.1,0,0.1,0.1,0.2c-3,0.5-6,1.6-8.6,3.2c-0.5,0.3-0.9,0.6-1.4,1c0,0,0,0,0,0c-0.6-1.3-0.9-3.1-1.8-4.3
				c-0.2-0.2-0.7-0.1-0.6,0.2c0,0.1,0,0.1,0,0.2c-0.1-0.1-0.2-0.3-0.3-0.4c-0.3-0.4-0.9,0-0.6,0.4c1,1.3,1.5,2.9,2.5,4.2
				c0,0.1,0.1,0.1,0.2,0.1c-5.7,5.1-5.3,13.6-1,19.8c1.7,2.5,3.9,4.3,6.3,5.5c0.2,2.7,0.6,5.4,1.5,8c0.1,0.3,0.6,0.3,0.7,0
				c0.2-0.4,0.4-0.8,0.6-1.2c-0.2,1.2,0.1,2.4,0.6,3.6c0.1,0.2,0.2,0.3,0.4,0.3c0.9-0.1,2.3-0.2,3.7-0.5c-0.1,0.1-0.1,0.3,0,0.4
				c0.6,1,1.4,1.8,1.8,2.9c0.4,0.9,0.5,1.9,0.4,2.9c-0.2,1.6-1.1,3.3-2.6,4c-1.8,0.9-3.3-0.7-4-2.2c-0.7-1.4-0.7-3-0.2-4.4
				c0.2-0.6,0.6-1.1,1-1.6c0.4-0.5,1-0.6,1.4-1.1c0.1-0.1,0-0.2-0.1-0.2c-1.1-0.3-2.2,1.1-2.7,2c-0.8,1.3-1.1,3.3-0.6,4.7
				c0.7,2.1,2.2,4.3,4.7,3.9c2-0.3,3.3-2.2,3.8-4c0.7-2.4-0.2-6-2.4-7.4c0,0-0.1,0-0.1-0.1c1.5-0.4,2.7-1.1,3-2.4
				c0.4,0.3,0.9,0.6,1.3,0.9c0.2,0.1,0.5,0,0.6-0.2c1-2.3,1.5-4.9,2.3-7.3c0.1-0.3-0.3-0.6-0.5-0.3c-1,1.2-1.1,3.2-1.6,4.6
				c-0.2,0.7-0.4,1.4-0.7,2.1c-0.1,0.4-2.4-1.5-2.6-1.7c-1.3-1.1-2.5-2.5-3.7-3.8c-0.1-0.2-0.5-0.1-0.6,0.1
				c-1.1,1.7-2.5,3.2-3.5,4.9c-0.8-2.1-1.1-4.4-1.3-6.6c5.2,2.4,11.5,2,16.8-1c0.3-0.2,0-0.6-0.3-0.5c-7.8,4-16.5,2.7-22.2-4.1
				c-4.9-5.8-5-14.1,0.5-19.3c0.1,0,0.2-0.1,0.2-0.2c0.2-0.2,0.5-0.5,0.7-0.7c4.2-3.3,9.7-4.6,14.6-3.6c0,0.2,0,0.5,0,0.7
				c0,0.3,0.5,0.3,0.5,0c0-0.2,0-0.3,0-0.5c3.4,0.8,6.5,2.6,8.8,5.6c5.1,6.8,2.6,15.3-3.3,20.3c-0.1,0-0.1,0.1-0.2,0.1
				c-0.6,0.5-1.3,1-2,1.4c-0.5,0.3,0,1,0.5,0.7c0.7-0.4,1.3-0.9,1.9-1.3c4.4,2.2,8.4,5.4,12.2,8.4c1,0.8,2,1.6,2.9,2.4
				c0.9,0.7-2.5,3.8-2.8,4.1c-3.2,3.5-4.8,3.5-9,1.4c-0.3-0.2-0.8,0.2-0.6,0.6c4.6,8.9,7.2,19.1,7.2,29.1c0,3.8-1.2,3.5-4.3,4.1
				c-2.1,0.4-4.3,0.7-6.4,0.8c-6.7,0.4-6.6-8.6-8.1-13.1c-0.1-0.4-0.6-0.4-0.8,0c-1.9,3.7-2.4,8.7-5.6,11.5c-1.2,1-3,1.2-4.9,0.8
				c0.2-0.3-0.1-0.7-0.4-0.6c-0.2,0.1-0.5,0.2-0.8,0.3c-2.9-0.7-5.9-2.1-7.5-2.7c-1.2-0.5,1.1-14.1,1.3-15.8
				c0.2-1.6,0.4-3.2,0.7-4.8c3.4,3.1,11,2,15.1,1.8c5.9-0.3,12.5-0.6,18.2-2c0.4-0.1,0.2-0.7-0.2-0.7c-11.2-0.4-22.1,4.4-33.2,0.6
				c0,0,0,0,0,0c0.6-3.7,1.4-7.3,2.4-10.9c0.1-0.3-0.3-0.6-0.6-0.5c-4.3,1.5-7.2,2-9.3-1.5c0.1,0,0.3,0,0.3-0.2
				c0.2-0.5-0.3-0.7-0.7-0.5l0,0c-0.2-0.4-0.4-0.8-0.5-1.2c-1.5-4,11.5-9.2,14.4-10.3c0.4-0.1,0.2-0.7-0.2-0.6
				c-5.6,2.1-10.6,5.2-15.6,8.3c-0.2,0.1-0.2,0.3-0.2,0.5c0.4,1.3,0.8,2.6,1.3,3.7c-0.4,0.3-0.9,0.7-1.3,1c-0.8,0.6-1.7,1.3-2.5,1.9
				c-0.2,0.2-0.6,0.4-0.8,0.6c0,0,0,0.1,0,0.1c-0.1,0.1-0.1,0.1-0.1,0.2c-0.1-0.1-0.1-0.2-0.2-0.3c-0.8-1.3-2.4-1.4-3.6-0.8
				c0-0.2-0.1-0.4-0.3-0.3c-2.1,0.8-3.2,3.2-2.2,5.3c0.1,0.2,0.2,0.4,0.3,0.5c0,0,0,0-0.1,0c-1.9-0.1-3.9,0.5-5.7,0.9
				c-2.4,0.5-4.9,1.1-7.3,1.6c-0.4,0.1-0.4,0.8,0.1,0.7c4.3-0.8,8.9-1.3,13-2.5c0.2-0.1,0.2-0.2,0.2-0.4c1.3,1.3,3.8,1.5,5.2,0.2
				c1.2-1.2,1.4-3.1,0.7-4.6c0.6,0.2,2-1.2,2.4-1.5c0.7-0.5,1.4-1,2-1.5c0.2-0.1,0.3-0.2,0.5-0.3c1.3,2.4,3.1,3.7,6.8,3
				c2.4-0.5,2.8-1.1,2,2c-0.8,2.9-1.2,5.9-1.7,8.9c-1,6.5-1.3,13-2.3,19.5c0,0.2,0.1,0.4,0.2,0.5c2.3,0.9,4.9,2,7.5,2.7
				c-4.1,1.6-11.7,5-9.9,8.3c3.5,6.4,13.2-3.7,15-7.1c0.2-0.3-0.3-0.5-0.5-0.2c-1.5,2.4-3.8,4.4-6,6.1c-1.3,1-2.8,1.9-4.5,2.2
				c-1.4,0.3-4-0.7-3.2-2.5c0.9-2.2,4.7-3.6,6.6-4.6c1.2-0.6,2.7-1.1,4-1.7c1.4,0.3,2.8,0.4,4.2,0.2c4.5-0.6,5.6-7.1,6.9-10.5
				c1.2-3.1,1.8,3.7,2.2,5.3c0.4,1.7,1.3,4.2,3,5.2c2.7,1.6,6.3,1.1,9.7,0.4c2.2,0.8,4.2,2,5.7,3.8c0.9,1.1,2,3.3,0.7,4.5
				c-1.6,1.4-4.7-0.3-6.1-1.1c-1.7-0.9-3-2.5-4.1-3.9c-0.5-0.7-1-2.2-2-2.5c0,0,0,0,0,0c-0.4,1.2,1.6,3.2,2.3,4.1
				c1.2,1.5,2.6,2.6,4.3,3.5c1.7,0.8,4.8,2,6.4,0.4c1.3-1.3,0.6-3.4-0.2-4.8c-1.2-2-3.2-3.4-5.4-4.4c1.4-0.3,2.7-0.6,3.9-0.7
				c0.2,0,0.4-0.2,0.4-0.4c0.6-5.7,0.1-11.5-1.2-17.1c-0.8-3.4-1.8-6.7-3-10c-0.6-1.7-1.4-3.4-2.2-5c0.3,0.6,4,1.6,4.7,2
				c0.2,0.1,0.4,0,0.5-0.1c2.3-2.7,4.8-5.4,7.2-8.1C170.4,45.8,170.4,45.5,170.2,45.4z M140,42.6c0.3-0.4,0.6-0.8,0.9-1.2
				c0.7-0.9,0.9-2.1,2.1-0.8c1.2,1.3,2.4,2.4,3.7,3.5l0,0c-0.8,0.9-1.4,1.4-2.6,1.9c-1.2,0.4-2.4,0.6-3.7,0.7
				C140,45.5,139.6,43.9,140,42.6z M112.6,55.4c-1,1.5-3.6,1.2-4.6-0.2c-0.8-1.1-0.4-2.6,0.4-3.7c-0.2,0.3,0.1,0.7,0.5,0.5
				c1.2-0.7,2.5-2,3.7-0.3C113.3,52.7,113.3,54.3,112.6,55.4z"/>
		</g>
		<g>
			<path class="st17" d="M178.6,55.7c-1.4-1.5-3.6-1-4.7,0.6c0-0.2,0-0.3-0.2-0.4c-1.5-0.6-2.7-1.8-4-2.7c-1-0.7-2.2-1.8-3.5-2
				c-0.1,0-0.3,0-0.3,0.1c-0.2,0.4-0.4,0.4-0.2,0.9c0,0.2,0.3,0.1,0.3-0.1c-0.1-0.5-0.3-0.5,0-0.3c0.2,0.1,0.5,0.2,0.7,0.3
				c0.9,0.4,1.7,1.1,2.5,1.7c1.3,1,2.7,2.2,4.2,2.8c0.2,0.1,0.3,0,0.4-0.1c-0.1,0.2,0.2,0.4,0.4,0.3c1.2-0.9,2.4-2.1,3.8-0.8
				c1,0.9,1.4,2.5,1.2,3.8c-0.2,1.6-1.4,2.1-2.9,1.6c-1.2-0.4-2.6-0.9-2.5-2.4c0.1-1.1,1.3-2.2,2.4-2.4c0.2,0,0.2-0.4,0-0.4
				c-2.6,0.2-4.5,3.8-1.8,5.4c1.7,1,4.6,1.6,5.4-0.8C180.4,59.2,179.8,57,178.6,55.7z"/>
		</g>
		<g>
			<path class="st17" d="M81.8,81.2c-0.4,2,0,4.6-0.2,6.9c0,0,0,0-0.1-0.1c-2-0.9-4.6-0.7-6.1,1c-0.9,1-1,2.9,0.2,3.7
				c2,1.2,4.8,0.1,6-1.7c1.7-2.5,0.3-6.9,0.6-9.7C82.4,81,81.9,80.9,81.8,81.2z M78.1,92.3c-1.8,0.3-3.2-1-2-2.7
				c1.2-1.7,3.5-1.3,5.2-0.9c0.1,0,0.1,0,0.2,0C81.2,90.4,80.4,91.8,78.1,92.3z"/>
		</g>
		<g>
			<path class="st17" d="M77,57.1c-0.2,0.6-2.4,1.1-2.9,1.3c-1.4,0.4-2.9,0.7-4.4,1c0.1-0.4,0-0.8-0.2-1.2c-0.7-1.3-2.9-1.4-4.1-1.1
				c0,0,0,0,0,0c-1.1-1.3-2.9-2.1-4.4-1.7c0.2-0.3,0.5-0.7,0.8-0.9c0.2-0.2,0-0.5-0.2-0.3c-0.7,0.4-1.3,1.1-1.7,1.8
				c-0.5,0.4-0.9,1-1.2,1.9c-0.1,0.3,0.2,0.6,0.4,0.5c-0.1,0.9-0.1,1.8,0.1,2.6c0.6,2.3,3.5,2.5,5.4,1.6c0.6,1.9,3.5-0.3,4.3-1.3
				c0.3-0.4,0.6-0.8,0.7-1.3c1.9-0.2,3.7-0.5,5.5-1.1c0.8-0.2,2.5-0.6,2.5-1.6C77.6,56.8,77,56.8,77,57.1z M61.7,62.1
				c-1.2-0.1-1.8-1.1-2-2.2c-0.1-0.9,0-1.8,0.3-2.7c1-1.1,2.2-1.7,3.9-0.6c1.4,0.9,2.4,3,1.2,4.5C64.3,61.9,62.7,62.2,61.7,62.1z
				 M68.3,60.7c-0.5,0.7-2.8,2.8-3.5,1.6c0.2-0.1,0.5-0.3,0.7-0.5c1.3-1.2,1.2-2.8,0.4-4c1,0,2.5-0.2,3,0.8
				C69.3,59.2,68.7,60.1,68.3,60.7z"/>
		</g>
		<g>
			<path class="st17" d="M60.5,54c-2.9-1.2-5.7-2.4-8.6-3.7c-1.8-0.8-3.6-1.6-5.4-2.4c-0.2-0.1-0.4-0.2-0.6-0.3
				c-1.2-2.8-2.3-5.7-3.6-8.5c0-0.1-0.1-0.1-0.2-0.2c0.4-0.2,0.8-0.5,1.2-0.8C57.2,28.1,45.7-4.8,28.3,5.4c-0.2,0.1,0,0.3,0.1,0.3
				c0.7-0.2,1.3-0.4,2-0.5c-4.9,2.1-9.9,4.5-13.7,8.3c-4.2,4.2-4,10.1-2.7,15.4c1.3,4.9,4.7,8.5,8.9,10.7c0,0-0.1,0.1-0.1,0.1
				c-0.5,1.3-0.9,2.5-1.3,3.8c-0.1-0.1-0.2-0.1-0.4,0c-5.2,2.7-9.8,6.5-14.4,10.1c-0.2-0.5-0.5-0.9-0.9-1.2
				c-2.1-1.6-4.9,1.6-5.7,3.2c-0.1,0.3-0.2,0.7,0,1c-0.3,1-0.1,2,1.2,2.8C3.5,60.8,6.2,60,7,57.7c0.4-1,0.4-2.4,0-3.5
				c4.7-3.3,9.1-7.1,14.2-9.7c-1.3,4.4-2.4,8.8-3.9,13.2c-2.4,7.1-6.3,13.8-6.9,21.3c0,0.3,0.1,0.4,0.4,0.5
				c4.5,1.3,9.1,1.3,13.7,1.2c-0.1,0-0.2,0.1-0.2,0.3c0.2,1.4,0.6,3.4,0.7,5.2c-2.3-0.9-5.6,0.4-7.4,1.8c-1.7,1.3-1.6,3,0.4,3.8
				c2.4,1,5.8,0.9,7.2-1.6c1.4-2.6,0.3-6.6-0.3-9.3c0-0.1-0.1-0.2-0.3-0.2c0.4,0,0.8,0,1.2,0c4.8-0.1,9.5,0.1,14.3,0.4
				c-0.2,2.4-0.3,4.9-0.4,7.3c-0.1,2.1-0.3,2.4,1.5,3.5c1.7,1,3.9,1,5.5-0.3c1.1-0.9,1.7-2.5,1-3.8c-1-1.9-3.9-1.4-5.6-1
				c-0.5,0.1-0.2,1,0.3,0.8c1.4-0.3,3.9-0.9,4.6,0.8c0.5,1.1-0.6,2.3-1.4,2.9c-1.6,1-3.7,0.1-5-0.9c-0.7-0.5-0.1-4-0.1-4.8
				c0-1.5,0.1-3,0.1-4.5c0.2,0,0.5,0,0.7,0c4.6,0.3,11.7,1.3,12.4-4.7c0.7-6-2.1-12.9-4-18.5c-1.1-3.1-2.2-6.1-3.4-9.1
				c1.8,0.8,3.5,1.6,5.3,2.5c2.7,1.2,5.8,3.2,8.7,3.6C60.7,54.7,60.9,54.2,60.5,54z M6.4,56.1c0,1.6-0.9,3.2-2.7,3.3
				c-1.3,0-3.3-0.8-3-2.4c0,0,0,0,0,0c0.4,0,0.8-0.2,1.1-0.1c0.3,0,0.5-0.4,0.2-0.5c-0.2-0.1-0.4-0.2-0.7-0.2c-0.1,0-0.1,0-0.2,0
				c0.7-1.1,2.1-1.7,3.2-1.8c0.2,0,0.3-0.4,0-0.4c-0.9-0.1-1.8,0.2-2.5,0.7c0.2-0.2,0.3-0.4,0.5-0.5c0.6-0.6,1.4-1.4,2.3-1.4
				c0.7,0,1.2,0.6,1.5,1.3C6,54.1,6,54.1,5.9,54.2c-0.3,0.2,0,0.7,0.3,0.5c0,0,0,0,0,0C6.4,55.1,6.4,55.7,6.4,56.1z M21.4,91.3
				c-1.2,0.1-2.8-0.2-3.8-0.9c-1.1-0.7,0.6-1.9,1.1-2.3c1.9-1.3,4.1-1.5,6.3-1.3C25,89.1,24.2,91.1,21.4,91.3z M14.9,28.5
				c-4.6-13.3,7.2-17.6,16.3-22.9c0.2-0.1,0.2-0.5,0-0.6c15.3-2.5,23.2,19.7,13.5,30.8C35.9,46,18.9,40.1,14.9,28.5z M49.6,60.1
				c1.4,4,2.5,8.2,3.1,12.4c0.2,1.6,0.3,3.2,0,4.7c-0.6,3.2-4.9,2.9-7.4,3c-5,0.1-10-0.7-15-0.7c-3.1,0-6.2,0.2-9.4,0.2
				c-3.1,0-10,0.9-9.3-3.7c1-6.6,4.8-12.8,6.8-19.2c1.8-5.6,2.9-11.4,4.9-16.9c0-0.1,0-0.1,0-0.2c5.6,2.6,12.6,2.7,18.1-0.3
				c0,0,0,0.1,0,0.1c1.1,2.5,2.2,5.1,3.2,7.6c-0.4-0.1-0.9-0.2-1.2-0.2c-0.1,0-0.1,0.1-0.1,0.2c0.4,0.5,1.1,0.7,1.7,1
				C46.7,52.1,48.3,56.1,49.6,60.1z"/>
		</g>
	</g>
</g>
</svg>
