<?xml version="1.0" encoding="utf-8"?>
<!-- Generator: Adobe Illustrator 25.2.1, SVG Export Plug-In . SVG Version: 6.00 Build 0)  -->
<svg version="1.1" id="Layer_1" xmlns="http://www.w3.org/2000/svg" xmlns:xlink="http://www.w3.org/1999/xlink" x="0px" y="0px"
	 viewBox="0 0 372 325" style="enable-background:new 0 0 372 325;" xml:space="preserve">
<style type="text/css">
	.st0{fill:#3A3634;}
	.st1{fill:#B8B8B8;}
	.st2{fill:#C9C5C2;}
	.st3{fill-rule:evenodd;clip-rule:evenodd;}
	.st4{fill:none;stroke:#000000;stroke-width:0.5;stroke-miterlimit:10;}
	.st5{fill:#2D3843;}
	.st6{clip-path:url(#SVGID_2_);fill:none;stroke:#000000;stroke-miterlimit:10;}
	.st7{clip-path:url(#SVGID_2_);}
	.st8{fill:none;stroke:#000000;stroke-miterlimit:10;}
	.st9{fill:none;stroke:#000000;stroke-linecap:round;stroke-miterlimit:10;}
</style>
<path d="M287.1,12.86c-3.22,0-5.99-0.75-8.45-2.02h-7.07c4.08,3.64,9.01,6.07,15.52,6.07c6.51,0,11.44-2.42,15.52-6.07h-7.07
	C293.09,12.11,290.32,12.86,287.1,12.86z"/>
<path d="M185.99,16.9c6.51,0,11.43-2.42,15.52-6.07h-7.07c-2.46,1.27-5.23,2.02-8.45,2.02s-5.99-0.75-8.45-2.02h-7.07
	C174.56,14.48,179.48,16.9,185.99,16.9z"/>
<path d="M100.4,10.84h-7.07c-2.47,1.27-5.23,2.02-8.45,2.02c-3.22,0-5.98-0.75-8.45-2.02h-7.07c4.08,3.64,9.01,6.07,15.52,6.07
	C91.4,16.9,96.32,14.48,100.4,10.84z"/>
<path d="M310.67,23.92c-6.19,9.91-12.05,19.27-23.56,19.27c-11.52,0-17.37-9.36-23.56-19.27c-2.89-4.61-5.82-9.3-9.38-13.08h-6.01
	c4.71,3.65,8.28,9.33,11.96,15.23c6.51,10.41,13.23,21.17,27,21.17c13.76,0,20.49-10.76,27-21.17c3.68-5.89,7.26-11.58,11.96-15.23
	h-6.01C316.48,14.62,313.55,19.31,310.67,23.92z"/>
<path d="M159,26.07c6.5,10.41,13.23,21.17,26.99,21.17c13.76,0,20.48-10.76,26.99-21.17c3.68-5.89,7.25-11.57,11.96-15.23h-6
	c-3.57,3.79-6.5,8.47-9.38,13.08c-6.19,9.91-12.04,19.27-23.56,19.27c-11.52,0-17.37-9.36-23.56-19.27
	c-2.88-4.62-5.82-9.3-9.38-13.08h-6C151.75,14.49,155.32,20.17,159,26.07z"/>
<path d="M57.9,26.06c6.5,10.41,13.23,21.17,26.99,21.17c13.76,0,20.48-10.76,26.99-21.17c3.68-5.89,7.25-11.58,11.96-15.23h-6
	c-3.57,3.79-6.5,8.47-9.38,13.08c-6.19,9.91-12.04,19.27-23.56,19.27c-11.52,0-17.37-9.36-23.56-19.27
	c-2.89-4.62-5.82-9.3-9.38-13.08h-6C50.64,14.49,54.21,20.17,57.9,26.06z"/>
<path d="M159.86,15.42c6.36,10.17,12.93,20.7,26.13,20.7c13.2,0,19.77-10.52,26.13-20.7c0.97-1.55,1.94-3.09,2.91-4.58h-2.41
	c-0.75,1.16-1.48,2.34-2.22,3.51c-6.35,10.16-12.34,19.75-24.42,19.75c-12.08,0-18.07-9.59-24.42-19.75
	c-0.73-1.17-1.47-2.35-2.22-3.51h-2.41C157.92,12.33,158.89,13.87,159.86,15.42z"/>
<path d="M311.52,14.35c-6.35,10.16-12.34,19.75-24.42,19.75c-12.08,0-18.08-9.59-24.42-19.75c-0.73-1.17-1.47-2.34-2.22-3.51h-2.41
	c0.98,1.49,1.94,3.03,2.91,4.58c6.36,10.17,12.93,20.7,26.14,20.7c13.2,0,19.78-10.52,26.14-20.7c0.97-1.55,1.94-3.09,2.91-4.58
	h-2.41C312.99,12,312.26,13.18,311.52,14.35z"/>
<path d="M84.89,36.11c13.2,0,19.77-10.52,26.13-20.7c0.97-1.55,1.93-3.09,2.91-4.58h-2.41c-0.75,1.16-1.48,2.34-2.21,3.51
	c-6.35,10.15-12.34,19.75-24.42,19.75c-12.08,0-18.07-9.59-24.42-19.75C59.74,13.18,59,12,58.26,10.84h-2.41
	c0.98,1.49,1.94,3.03,2.91,4.58C65.11,25.59,71.69,36.11,84.89,36.11z"/>
<path d="M310.67,54.25c-6.19,9.91-12.05,19.27-23.56,19.27c-11.52,0-17.37-9.36-23.56-19.27c-6.51-10.41-13.24-21.17-27-21.17
	c-13.76,0-20.49,10.76-26.99,21.17c-6.19,9.91-12.04,19.27-23.56,19.27c-11.52,0-17.37-9.36-23.56-19.27
	c-6.5-10.41-13.23-21.17-26.99-21.17c-13.76,0-20.48,10.76-26.99,21.17c-6.19,9.91-12.04,19.27-23.56,19.27
	c-11.52,0-17.37-9.36-23.56-19.27c-6.5-10.41-13.23-21.17-26.99-21.17v4.04c11.52,0,17.37,9.36,23.56,19.27
	c6.5,10.41,13.23,21.17,26.99,21.17c13.76,0,20.48-10.76,26.99-21.17c6.19-9.91,12.04-19.27,23.56-19.27
	c11.52,0,17.37,9.36,23.56,19.27c6.5,10.41,13.23,21.17,26.99,21.17c13.76,0,20.48-10.76,26.99-21.17
	c6.19-9.91,12.04-19.27,23.56-19.27c11.52,0,17.37,9.36,23.57,19.27c6.51,10.41,13.23,21.17,27,21.17c13.76,0,20.49-10.76,27-21.17
	c6.19-9.91,12.05-19.27,23.56-19.27v-4.04C323.9,33.08,317.17,43.84,310.67,54.25z"/>
<path d="M311.52,44.68c-6.35,10.16-12.34,19.75-24.42,19.75c-12.08,0-18.08-9.59-24.42-19.75c-6.36-10.17-12.94-20.7-26.14-20.7
	c-13.2,0-19.78,10.52-26.13,20.7c-6.35,10.16-12.34,19.75-24.42,19.75c-12.08,0-18.07-9.59-24.42-19.75
	c-6.36-10.18-12.93-20.7-26.13-20.7c-13.2,0-19.77,10.52-26.13,20.7c-6.35,10.15-12.34,19.75-24.42,19.75
	c-12.08,0-18.07-9.59-24.42-19.75c-6.36-10.17-12.93-20.7-26.13-20.7V26c12.08,0,18.07,9.59,24.42,19.75
	c6.36,10.17,12.93,20.7,26.13,20.7c13.2,0,19.77-10.52,26.13-20.7C117.37,35.6,123.36,26,135.44,26c12.08,0,18.07,9.59,24.42,19.75
	c6.36,10.17,12.93,20.7,26.13,20.7c13.2,0,19.77-10.52,26.13-20.7C218.47,35.6,224.46,26,236.54,26c12.08,0,18.08,9.59,24.42,19.75
	c6.36,10.17,12.93,20.7,26.14,20.7c13.2,0,19.78-10.52,26.14-20.7C319.59,35.6,325.58,26,337.66,26v-2.02
	C324.46,23.98,317.88,34.5,311.52,44.68z"/>
<path d="M310.67,84.59c-6.19,9.91-12.05,19.27-23.56,19.27c-11.52,0-17.37-9.36-23.56-19.27c-6.51-10.41-13.24-21.17-27-21.17
	c-13.76,0-20.49,10.76-26.99,21.17c-6.19,9.91-12.04,19.27-23.56,19.27c-11.52,0-17.37-9.36-23.56-19.27
	c-6.5-10.41-13.23-21.17-26.99-21.17c-13.76,0-20.48,10.76-26.99,21.17c-6.19,9.91-12.04,19.27-23.56,19.27
	c-11.52,0-17.37-9.36-23.56-19.27c-6.5-10.41-13.23-21.17-26.99-21.17v4.04c11.52,0,17.37,9.36,23.56,19.27
	c6.5,10.41,13.23,21.17,26.99,21.17c13.76,0,20.48-10.76,26.99-21.17c6.19-9.91,12.04-19.27,23.56-19.27
	c11.52,0,17.37,9.36,23.56,19.27c6.5,10.41,13.23,21.17,26.99,21.17c13.76,0,20.48-10.76,26.99-21.17
	c6.19-9.91,12.04-19.27,23.56-19.27c11.52,0,17.37,9.36,23.57,19.27c6.51,10.41,13.23,21.17,27,21.17c13.76,0,20.49-10.76,27-21.17
	c6.19-9.91,12.05-19.27,23.56-19.27v-4.04C323.9,63.41,317.17,74.18,310.67,84.59z"/>
<path d="M311.52,75.01c-6.35,10.16-12.34,19.75-24.42,19.75c-12.08,0-18.08-9.59-24.42-19.75c-6.36-10.17-12.94-20.7-26.14-20.7
	c-13.2,0-19.78,10.52-26.13,20.7c-6.35,10.16-12.34,19.75-24.42,19.75c-12.08,0-18.07-9.59-24.42-19.75
	c-6.36-10.18-12.93-20.7-26.13-20.7c-13.2,0-19.77,10.52-26.13,20.7c-6.35,10.15-12.34,19.75-24.42,19.75
	c-12.08,0-18.07-9.59-24.42-19.75c-6.36-10.17-12.93-20.7-26.13-20.7v2.02c12.08,0,18.07,9.59,24.42,19.75
	c6.36,10.17,12.93,20.7,26.13,20.7c13.2,0,19.77-10.52,26.13-20.7c6.35-10.16,12.34-19.75,24.42-19.75
	c12.08,0,18.07,9.59,24.42,19.75c6.36,10.17,12.93,20.7,26.13,20.7c13.2,0,19.77-10.52,26.13-20.7
	c6.35-10.16,12.34-19.75,24.42-19.75c12.08,0,18.08,9.59,24.42,19.75c6.36,10.17,12.93,20.7,26.14,20.7
	c13.2,0,19.78-10.52,26.14-20.7c6.35-10.16,12.34-19.75,24.42-19.75v-2.02C324.46,54.31,317.88,64.84,311.52,75.01z"/>
<path d="M310.67,114.92c-6.19,9.91-12.05,19.27-23.56,19.27c-11.52,0-17.37-9.36-23.56-19.27c-6.51-10.41-13.24-21.17-27-21.17
	c-13.76,0-20.49,10.76-26.99,21.17c-6.19,9.91-12.04,19.27-23.56,19.27c-11.52,0-17.37-9.36-23.56-19.27
	c-6.5-10.41-13.23-21.17-26.99-21.17c-13.76,0-20.48,10.76-26.99,21.17c-6.19,9.91-12.04,19.27-23.56,19.27
	c-11.52,0-17.37-9.36-23.56-19.27c-6.5-10.41-13.23-21.17-26.99-21.17v4.04c11.52,0,17.37,9.36,23.56,19.27
	c6.5,10.41,13.23,21.17,26.99,21.17c13.76,0,20.48-10.76,26.99-21.17c6.19-9.91,12.04-19.27,23.56-19.27
	c11.52,0,17.37,9.36,23.56,19.27c6.5,10.41,13.23,21.17,26.99,21.17c13.76,0,20.48-10.76,26.99-21.17
	c6.19-9.91,12.04-19.27,23.56-19.27c11.52,0,17.37,9.36,23.57,19.27c6.51,10.41,13.23,21.17,27,21.17c13.76,0,20.49-10.76,27-21.17
	c6.19-9.91,12.05-19.27,23.56-19.27v-4.04C323.9,93.75,317.17,104.51,310.67,114.92z"/>
<path d="M311.52,105.34c-6.35,10.16-12.34,19.75-24.42,19.75c-12.08,0-18.08-9.59-24.42-19.75c-6.36-10.17-12.94-20.7-26.14-20.7
	c-13.2,0-19.78,10.52-26.13,20.7c-6.35,10.16-12.34,19.75-24.42,19.75c-12.08,0-18.07-9.59-24.42-19.75
	c-6.36-10.18-12.93-20.7-26.13-20.7c-13.2,0-19.77,10.52-26.13,20.7c-6.35,10.15-12.34,19.75-24.42,19.75
	c-12.08,0-18.07-9.59-24.42-19.75c-6.36-10.17-12.93-20.7-26.13-20.7v2.02c12.08,0,18.07,9.59,24.42,19.75
	c6.36,10.17,12.93,20.7,26.13,20.7c13.2,0,19.77-10.52,26.13-20.7c6.35-10.16,12.34-19.75,24.42-19.75
	c12.08,0,18.07,9.59,24.42,19.75c6.36,10.17,12.93,20.7,26.13,20.7c13.2,0,19.77-10.52,26.13-20.7
	c6.35-10.16,12.34-19.75,24.42-19.75c12.08,0,18.08,9.59,24.42,19.75c6.36,10.17,12.93,20.7,26.14,20.7
	c13.2,0,19.78-10.52,26.14-20.7c6.35-10.16,12.34-19.75,24.42-19.75v-2.02C324.46,84.65,317.88,95.17,311.52,105.34z"/>
<path d="M310.67,145.25c-6.19,9.91-12.05,19.27-23.56,19.27c-11.52,0-17.37-9.36-23.56-19.27c-6.51-10.41-13.24-21.17-27-21.17
	c-13.76,0-20.49,10.76-26.99,21.17c-6.19,9.91-12.04,19.27-23.56,19.27c-11.52,0-17.37-9.36-23.56-19.27
	c-6.5-10.41-13.23-21.17-26.99-21.17c-13.76,0-20.48,10.76-26.99,21.17c-6.19,9.91-12.04,19.27-23.56,19.27
	c-11.52,0-17.37-9.36-23.56-19.27c-6.5-10.41-13.23-21.17-26.99-21.17v4.04c11.52,0,17.37,9.36,23.56,19.27
	c6.5,10.41,13.23,21.17,26.99,21.17c13.76,0,20.48-10.76,26.99-21.17c6.19-9.91,12.04-19.27,23.56-19.27
	c11.52,0,17.37,9.36,23.56,19.27c6.5,10.41,13.23,21.17,26.99,21.17c13.76,0,20.48-10.76,26.99-21.17
	c6.19-9.91,12.04-19.27,23.56-19.27c11.52,0,17.37,9.36,23.57,19.27c6.51,10.41,13.23,21.17,27,21.17c13.76,0,20.49-10.76,27-21.17
	c6.19-9.91,12.05-19.27,23.56-19.27v-4.04C323.9,124.08,317.17,134.84,310.67,145.25z"/>
<path d="M311.52,135.67c-6.35,10.16-12.34,19.75-24.42,19.75c-12.08,0-18.08-9.59-24.42-19.75c-6.36-10.17-12.94-20.7-26.14-20.7
	c-13.2,0-19.78,10.52-26.13,20.7c-6.35,10.16-12.34,19.75-24.42,19.75c-12.08,0-18.07-9.59-24.42-19.75
	c-6.36-10.18-12.93-20.7-26.13-20.7c-13.2,0-19.77,10.52-26.13,20.7c-6.35,10.15-12.34,19.75-24.42,19.75
	c-12.08,0-18.07-9.59-24.42-19.75c-6.36-10.17-12.93-20.7-26.13-20.7V117c12.08,0,18.07,9.59,24.42,19.75
	c6.36,10.17,12.93,20.7,26.13,20.7c13.2,0,19.77-10.52,26.13-20.7c6.35-10.16,12.34-19.75,24.42-19.75
	c12.08,0,18.07,9.59,24.42,19.75c6.36,10.17,12.93,20.7,26.13,20.7c13.2,0,19.77-10.52,26.13-20.7
	c6.35-10.16,12.34-19.75,24.42-19.75c12.08,0,18.08,9.59,24.42,19.75c6.36,10.17,12.93,20.7,26.14,20.7
	c13.2,0,19.78-10.52,26.14-20.7c6.35-10.16,12.34-19.75,24.42-19.75v-2.02C324.46,114.98,317.88,125.5,311.52,135.67z"/>
<path d="M310.67,175.58c-6.19,9.91-12.05,19.27-23.56,19.27c-11.52,0-17.37-9.36-23.56-19.27c-6.51-10.41-13.24-21.17-27-21.17
	c-13.76,0-20.49,10.76-26.99,21.17c-6.19,9.91-12.04,19.27-23.56,19.27c-11.52,0-17.37-9.36-23.56-19.27
	c-6.5-10.41-13.23-21.17-26.99-21.17c-13.76,0-20.48,10.76-26.99,21.17c-6.19,9.91-12.04,19.27-23.56,19.27
	c-11.52,0-17.37-9.36-23.56-19.27c-6.5-10.41-13.23-21.17-26.99-21.17v4.04c11.52,0,17.37,9.36,23.56,19.27
	c6.5,10.41,13.23,21.17,26.99,21.17c13.76,0,20.48-10.76,26.99-21.17c6.19-9.91,12.04-19.27,23.56-19.27
	c11.52,0,17.37,9.36,23.56,19.27c6.5,10.41,13.23,21.17,26.99,21.17c13.76,0,20.48-10.76,26.99-21.17
	c6.19-9.91,12.04-19.27,23.56-19.27c11.52,0,17.37,9.36,23.57,19.27c6.51,10.41,13.23,21.17,27,21.17c13.76,0,20.49-10.76,27-21.17
	c6.19-9.91,12.05-19.27,23.56-19.27v-4.04C323.9,154.41,317.17,165.17,310.67,175.58z"/>
<path d="M311.52,166.01c-6.35,10.16-12.34,19.75-24.42,19.75c-12.08,0-18.08-9.59-24.42-19.75c-6.36-10.17-12.94-20.7-26.14-20.7
	c-13.2,0-19.78,10.52-26.13,20.7c-6.35,10.16-12.34,19.75-24.42,19.75c-12.08,0-18.07-9.59-24.42-19.75
	c-6.36-10.18-12.93-20.7-26.13-20.7c-13.2,0-19.77,10.52-26.13,20.7c-6.35,10.15-12.34,19.75-24.42,19.75
	c-12.08,0-18.07-9.59-24.42-19.75c-6.36-10.17-12.93-20.7-26.13-20.7v2.02c12.08,0,18.07,9.59,24.42,19.75
	c6.36,10.17,12.93,20.7,26.13,20.7c13.2,0,19.77-10.52,26.13-20.7c6.35-10.16,12.34-19.75,24.42-19.75
	c12.08,0,18.07,9.59,24.42,19.75c6.36,10.17,12.93,20.7,26.13,20.7c13.2,0,19.77-10.52,26.13-20.7
	c6.35-10.16,12.34-19.75,24.42-19.75c12.08,0,18.08,9.59,24.42,19.75c6.36,10.17,12.93,20.7,26.14,20.7
	c13.2,0,19.78-10.52,26.14-20.7c6.35-10.16,12.34-19.75,24.42-19.75v-2.02C324.46,145.31,317.88,155.83,311.52,166.01z"/>
<path d="M310.67,205.92c-6.19,9.91-12.05,19.27-23.56,19.27c-11.52,0-17.37-9.36-23.56-19.27c-6.51-10.41-13.24-21.17-27-21.17
	c-13.76,0-20.49,10.76-26.99,21.17c-6.19,9.91-12.04,19.27-23.56,19.27c-11.52,0-17.37-9.36-23.56-19.27
	c-6.5-10.41-13.23-21.17-26.99-21.17c-13.76,0-20.48,10.76-26.99,21.17c-6.19,9.91-12.04,19.27-23.56,19.27
	c-11.52,0-17.37-9.36-23.56-19.27c-6.5-10.41-13.23-21.17-26.99-21.17v4.04c11.52,0,17.37,9.36,23.56,19.27
	c6.5,10.41,13.23,21.17,26.99,21.17c13.76,0,20.48-10.76,26.99-21.17c6.19-9.91,12.04-19.27,23.56-19.27
	c11.52,0,17.37,9.36,23.56,19.27c6.5,10.41,13.23,21.17,26.99,21.17c13.76,0,20.48-10.76,26.99-21.17
	c6.19-9.91,12.04-19.27,23.56-19.27c11.52,0,17.37,9.36,23.57,19.27c6.51,10.41,13.23,21.17,27,21.17c13.76,0,20.49-10.76,27-21.17
	c6.19-9.91,12.05-19.27,23.56-19.27v-4.04C323.9,184.74,317.17,195.51,310.67,205.92z"/>
<path d="M311.52,196.34c-6.35,10.16-12.34,19.75-24.42,19.75c-12.08,0-18.08-9.59-24.42-19.75c-6.36-10.17-12.94-20.7-26.14-20.7
	c-13.2,0-19.78,10.52-26.13,20.7c-6.35,10.16-12.34,19.75-24.42,19.75c-12.08,0-18.07-9.59-24.42-19.75
	c-6.36-10.18-12.93-20.7-26.13-20.7c-13.2,0-19.77,10.52-26.13,20.7c-6.35,10.15-12.34,19.75-24.42,19.75
	c-12.08,0-18.07-9.59-24.42-19.75c-6.36-10.17-12.93-20.7-26.13-20.7v2.02c12.08,0,18.07,9.59,24.42,19.75
	c6.36,10.17,12.93,20.7,26.13,20.7c13.2,0,19.77-10.52,26.13-20.7c6.35-10.16,12.34-19.75,24.42-19.75
	c12.08,0,18.07,9.59,24.42,19.75c6.36,10.17,12.93,20.7,26.13,20.7c13.2,0,19.77-10.52,26.13-20.7
	c6.35-10.16,12.34-19.75,24.42-19.75c12.08,0,18.08,9.59,24.42,19.75c6.36,10.17,12.93,20.7,26.14,20.7
	c13.2,0,19.78-10.52,26.14-20.7c6.35-10.16,12.34-19.75,24.42-19.75v-2.02C324.46,175.64,317.88,186.17,311.52,196.34z"/>
<path d="M310.67,236.25c-6.19,9.91-12.05,19.27-23.56,19.27c-11.52,0-17.37-9.36-23.56-19.27c-6.51-10.41-13.24-21.17-27-21.17
	c-13.76,0-20.49,10.76-26.99,21.17c-6.19,9.91-12.04,19.27-23.56,19.27c-11.52,0-17.37-9.36-23.56-19.27
	c-6.5-10.41-13.23-21.17-26.99-21.17c-13.76,0-20.48,10.76-26.99,21.17c-6.19,9.91-12.04,19.27-23.56,19.27
	c-11.52,0-17.37-9.36-23.56-19.27c-6.5-10.41-13.23-21.17-26.99-21.17v4.04c11.52,0,17.37,9.36,23.56,19.27
	c6.5,10.41,13.23,21.17,26.99,21.17c13.76,0,20.48-10.76,26.99-21.17c6.19-9.91,12.04-19.27,23.56-19.27
	c11.52,0,17.37,9.36,23.56,19.27c6.5,10.41,13.23,21.17,26.99,21.17c13.76,0,20.48-10.76,26.99-21.17
	c6.19-9.91,12.04-19.27,23.56-19.27c11.52,0,17.37,9.36,23.57,19.27c6.51,10.41,13.23,21.17,27,21.17c13.76,0,20.49-10.76,27-21.17
	c6.19-9.91,12.05-19.27,23.56-19.27v-4.04C323.9,215.08,317.17,225.84,310.67,236.25z"/>
<path d="M311.52,226.67c-6.35,10.16-12.34,19.75-24.42,19.75c-12.08,0-18.08-9.59-24.42-19.75c-6.36-10.17-12.94-20.7-26.14-20.7
	c-13.2,0-19.78,10.52-26.13,20.7c-6.35,10.16-12.34,19.75-24.42,19.75c-12.08,0-18.07-9.59-24.42-19.75
	c-6.36-10.18-12.93-20.7-26.13-20.7c-13.2,0-19.77,10.52-26.13,20.7c-6.35,10.15-12.34,19.75-24.42,19.75
	c-12.08,0-18.07-9.59-24.42-19.75c-6.36-10.17-12.93-20.7-26.13-20.7V208c12.08,0,18.07,9.59,24.42,19.75
	c6.36,10.17,12.93,20.7,26.13,20.7c13.2,0,19.77-10.52,26.13-20.7c6.35-10.16,12.34-19.75,24.42-19.75
	c12.08,0,18.07,9.59,24.42,19.75c6.36,10.17,12.93,20.7,26.13,20.7c13.2,0,19.77-10.52,26.13-20.7
	c6.35-10.16,12.34-19.75,24.42-19.75c12.08,0,18.08,9.59,24.42,19.75c6.36,10.17,12.93,20.7,26.14,20.7
	c13.2,0,19.78-10.52,26.14-20.7c6.35-10.16,12.34-19.75,24.42-19.75v-2.02C324.46,205.98,317.88,216.5,311.52,226.67z"/>
<path d="M310.67,266.58c-6.19,9.91-12.05,19.27-23.56,19.27c-11.52,0-17.37-9.36-23.56-19.27c-6.51-10.41-13.24-21.17-27-21.17
	c-13.76,0-20.49,10.76-26.99,21.17c-6.19,9.91-12.04,19.27-23.56,19.27c-11.52,0-17.37-9.36-23.56-19.27
	c-6.5-10.41-13.23-21.17-26.99-21.17c-13.76,0-20.48,10.76-26.99,21.17c-6.19,9.91-12.04,19.27-23.56,19.27
	c-11.52,0-17.37-9.36-23.56-19.27c-6.5-10.41-13.23-21.17-26.99-21.17v4.04c11.52,0,17.37,9.36,23.56,19.27
	c6.5,10.41,13.23,21.17,26.99,21.17c13.76,0,20.48-10.76,26.99-21.17c6.19-9.91,12.04-19.27,23.56-19.27
	c11.52,0,17.37,9.36,23.56,19.27c6.5,10.41,13.23,21.17,26.99,21.17c13.76,0,20.48-10.76,26.99-21.17
	c6.19-9.91,12.04-19.27,23.56-19.27c11.52,0,17.37,9.36,23.57,19.27c6.51,10.41,13.23,21.17,27,21.17c13.76,0,20.49-10.76,27-21.17
	c6.19-9.91,12.05-19.27,23.56-19.27v-4.04C323.9,245.41,317.17,256.17,310.67,266.58z"/>
<path d="M311.52,257c-6.35,10.16-12.34,19.75-24.42,19.75c-12.08,0-18.08-9.59-24.42-19.75c-6.36-10.17-12.94-20.7-26.14-20.7
	c-13.2,0-19.78,10.52-26.13,20.7c-6.35,10.16-12.34,19.75-24.42,19.75c-12.08,0-18.07-9.59-24.42-19.75
	c-6.36-10.18-12.93-20.7-26.13-20.7c-13.2,0-19.77,10.52-26.13,20.7c-6.35,10.15-12.34,19.75-24.42,19.75
	c-12.08,0-18.07-9.59-24.42-19.75c-6.36-10.17-12.93-20.7-26.13-20.7v2.02c12.08,0,18.07,9.59,24.42,19.75
	c6.36,10.17,12.93,20.7,26.13,20.7c13.2,0,19.77-10.52,26.13-20.7c6.35-10.16,12.34-19.75,24.42-19.75
	c12.08,0,18.07,9.59,24.42,19.75c6.36,10.17,12.93,20.7,26.13,20.7c13.2,0,19.77-10.52,26.13-20.7
	c6.35-10.16,12.34-19.75,24.42-19.75c12.08,0,18.08,9.59,24.42,19.75c6.36,10.17,12.93,20.7,26.14,20.7
	c13.2,0,19.78-10.52,26.14-20.7c6.35-10.16,12.34-19.75,24.42-19.75v-2.02C324.46,236.31,317.88,246.83,311.52,257z"/>
<path d="M263.54,296.91c-6.51-10.41-13.24-21.17-27-21.17c-13.76,0-20.49,10.76-26.99,21.17c-4.46,7.14-8.76,13.97-15.11,17.25h7.07
	c4.55-4.06,8.05-9.62,11.48-15.11c6.19-9.91,12.04-19.27,23.56-19.27c11.52,0,17.37,9.36,23.57,19.27
	c3.43,5.48,6.93,11.05,11.48,15.1h7.07C272.3,310.89,268,304.05,263.54,296.91z"/>
<path d="M162.43,296.91c-6.5-10.41-13.23-21.17-26.99-21.17c-13.76,0-20.48,10.76-26.99,21.17c-4.46,7.14-8.76,13.97-15.11,17.25
	h7.07c4.55-4.06,8.05-9.62,11.47-15.1c6.19-9.91,12.04-19.27,23.56-19.27c11.52,0,17.37,9.36,23.56,19.27
	c3.43,5.48,6.93,11.05,11.47,15.1h7.07C171.19,310.89,166.89,304.05,162.43,296.91z"/>
<path d="M61.33,296.91c-6.5-10.41-13.23-21.17-26.99-21.17v4.04c11.52,0,17.37,9.36,23.56,19.27c3.43,5.49,6.93,11.05,11.47,15.11
	h7.07C70.08,310.89,65.79,304.05,61.33,296.91z"/>
<path d="M310.67,296.91c-4.46,7.14-8.76,13.98-15.11,17.25h7.07c4.55-4.06,8.05-9.62,11.48-15.1c6.19-9.91,12.05-19.27,23.56-19.27
	v-4.04C323.9,275.74,317.17,286.5,310.67,296.91z"/>
<path d="M311.52,287.34c-6.35,10.16-12.34,19.75-24.42,19.75c-12.08,0-18.08-9.59-24.42-19.75c-6.36-10.17-12.94-20.7-26.14-20.7
	c-13.2,0-19.78,10.52-26.13,20.7c-6.35,10.16-12.34,19.75-24.42,19.75c-12.08,0-18.07-9.59-24.42-19.75
	c-6.36-10.18-12.93-20.7-26.13-20.7c-13.2,0-19.77,10.52-26.13,20.7c-6.35,10.15-12.34,19.75-24.42,19.75
	c-12.08,0-18.07-9.59-24.42-19.75c-6.36-10.17-12.93-20.7-26.13-20.7v2.02c12.08,0,18.07,9.59,24.42,19.75
	c6.36,10.17,12.93,20.7,26.13,20.7c13.2,0,19.77-10.52,26.13-20.7c6.35-10.16,12.34-19.75,24.42-19.75
	c12.08,0,18.07,9.59,24.42,19.75c6.36,10.17,12.93,20.7,26.13,20.7c13.2,0,19.77-10.52,26.13-20.7
	c6.35-10.16,12.34-19.75,24.42-19.75c12.08,0,18.08,9.59,24.42,19.75c6.36,10.17,12.93,20.7,26.14,20.7
	c13.2,0,19.78-10.52,26.14-20.7c6.35-10.16,12.34-19.75,24.42-19.75v-2.02C324.46,266.64,317.88,277.16,311.52,287.34z"/>
<path d="M320.05,314.16h6.01c3.21-2.49,6.94-4.04,11.6-4.04v-4.04C330,306.07,324.53,309.41,320.05,314.16z"/>
<path d="M135.44,306.07c-7.66,0-13.13,3.34-17.61,8.09h6c3.21-2.49,6.93-4.04,11.6-4.04s8.4,1.56,11.6,4.04h6
	C148.57,309.41,143.1,306.07,135.44,306.07z"/>
<path d="M236.54,306.07c-7.66,0-13.13,3.34-17.61,8.09h6c3.21-2.49,6.94-4.04,11.6-4.04s8.4,1.56,11.6,4.04h6.01
	C249.68,309.41,244.2,306.07,236.54,306.07z"/>
<path d="M34.34,306.07v4.04c4.67,0,8.4,1.56,11.6,4.04h6C47.47,309.41,41.99,306.07,34.34,306.07z"/>
<path d="M135.44,296.97c-11.68,0-18.17,8.24-23.92,17.19h2.41c5.41-8.28,11.28-15.17,21.51-15.17c10.23,0,16.1,6.89,21.51,15.17
	h2.41C153.61,305.21,147.12,296.97,135.44,296.97z"/>
<path d="M34.34,296.97V299c10.23,0,16.09,6.89,21.51,15.17h2.41C52.51,305.21,46.02,296.97,34.34,296.97z"/>
<path d="M236.54,296.97c-11.68,0-18.17,8.24-23.92,17.19h2.41c5.41-8.28,11.28-15.17,21.51-15.17c10.23,0,16.1,6.89,21.51,15.17
	h2.41C254.72,305.21,248.22,296.97,236.54,296.97z"/>
<path d="M313.74,314.16h2.41c5.41-8.28,11.28-15.17,21.51-15.17v-2.02C325.98,296.97,319.49,305.21,313.74,314.16z"/>
</svg>
