<?xml version="1.0" encoding="utf-8"?>
<!-- Generator: Adobe Illustrator 25.2.1, SVG Export Plug-In . SVG Version: 6.00 Build 0)  -->
<svg version="1.1" id="Layer_1" xmlns="http://www.w3.org/2000/svg" xmlns:xlink="http://www.w3.org/1999/xlink" x="0px" y="0px"
	 viewBox="0 0 372 325" style="enable-background:new 0 0 372 325;" xml:space="preserve">
<style type="text/css">
	.st0{fill:#3A3634;}
	.st1{fill:#B8B8B8;}
	.st2{fill:#C9C5C2;}
	.st3{fill-rule:evenodd;clip-rule:evenodd;}
	.st4{fill:none;stroke:#000000;stroke-width:0.5;stroke-miterlimit:10;}
	.st5{fill:#2D3843;}
	.st6{clip-path:url(#SVGID_2_);fill:none;stroke:#000000;stroke-miterlimit:10;}
	.st7{clip-path:url(#SVGID_2_);}
	.st8{fill:none;stroke:#000000;stroke-miterlimit:10;}
	.st9{fill:none;stroke:#000000;stroke-linecap:round;stroke-miterlimit:10;}
</style>
<g>
	<g>
		<path d="M308.58,189.16c-0.03,0-0.07-0.01-0.1-0.02c-0.15-0.05-0.23-0.22-0.18-0.37l4.34-12.09c0.05-0.15,0.22-0.23,0.37-0.18
			c0.15,0.05,0.23,0.22,0.18,0.37l-4.34,12.09C308.82,189.09,308.7,189.16,308.58,189.16z"/>
	</g>
	<g>
		<path d="M171.02,259.87c-0.12,0-0.23-0.08-0.28-0.2l-1.56-4.55c-0.05-0.15,0.03-0.32,0.18-0.37c0.15-0.05,0.32,0.03,0.37,0.18
			l1.56,4.55c0.05,0.15-0.03,0.32-0.18,0.37C171.08,259.87,171.05,259.87,171.02,259.87z"/>
	</g>
	<g>
		<path d="M303.24,51.3c-0.11,0-0.21-0.06-0.26-0.17c-0.07-0.15-0.01-0.32,0.14-0.39l6.04-2.87c0.14-0.07,0.32-0.01,0.39,0.14
			c0.07,0.15,0.01,0.32-0.14,0.39l-6.04,2.87C303.32,51.3,303.28,51.3,303.24,51.3z"/>
	</g>
	<g>
		<path d="M113.39,24.93c-0.09,0-0.18-0.04-0.24-0.12l-3.58-4.95c-0.09-0.13-0.06-0.31,0.07-0.41c0.13-0.1,0.31-0.07,0.41,0.07
			l3.58,4.95c0.09,0.13,0.06,0.31-0.07,0.41C113.51,24.91,113.45,24.93,113.39,24.93z"/>
	</g>
	<g>
		<path d="M281.78,272.62C281.78,272.62,281.77,272.62,281.78,272.62c-0.17-0.01-0.3-0.14-0.29-0.3l0.59-18.23
			c0.01-0.16,0.14-0.27,0.3-0.28c0.16,0.01,0.29,0.14,0.28,0.3l-0.59,18.23C282.07,272.49,281.94,272.62,281.78,272.62z"/>
	</g>
	<g>
		<path d="M129.7,172.12c-0.1,0-0.19-0.05-0.25-0.14c-0.09-0.14-0.05-0.32,0.09-0.4l14.93-9.43c0.13-0.09,0.32-0.05,0.4,0.09
			c0.09,0.14,0.05,0.32-0.09,0.4l-14.93,9.43C129.81,172.11,129.75,172.12,129.7,172.12z"/>
	</g>
	<g>
		<path d="M347.78,10.27c-0.15,0-0.27-0.11-0.29-0.26l-0.6-6.08c-0.02-0.16,0.1-0.3,0.26-0.32c0.16-0.01,0.3,0.1,0.32,0.26l0.6,6.08
			c0.02,0.16-0.1,0.3-0.26,0.32C347.8,10.27,347.79,10.27,347.78,10.27z"/>
	</g>
	<g>
		<path d="M28.57,250.91c-0.04,0-0.09-0.01-0.13-0.03c-0.14-0.07-0.2-0.25-0.13-0.39l2.68-5.31c0.07-0.14,0.25-0.2,0.39-0.13
			c0.14,0.07,0.2,0.25,0.13,0.39l-2.68,5.31C28.78,250.85,28.67,250.91,28.57,250.91z"/>
	</g>
	<g>
		<path d="M116.94,202.12c0,0-0.01,0-0.01,0l-17.48-0.89c-0.16-0.01-0.28-0.15-0.28-0.31c0.01-0.16,0.13-0.29,0.31-0.28l17.48,0.89
			c0.16,0.01,0.28,0.15,0.28,0.31C117.23,202,117.1,202.12,116.94,202.12z"/>
	</g>
	<g>
		<path d="M255.49,269.4c-0.1,0-0.2-0.05-0.25-0.15c-0.08-0.14-0.03-0.32,0.11-0.4l13.06-7.42c0.14-0.08,0.32-0.03,0.4,0.11
			c0.08,0.14,0.03,0.32-0.11,0.4l-13.06,7.42C255.59,269.39,255.54,269.4,255.49,269.4z"/>
	</g>
	<g>
		<path d="M188.08,160.77c-0.05,0-0.1-0.01-0.14-0.04l-3.45-1.92c-0.14-0.08-0.19-0.26-0.11-0.4c0.08-0.14,0.26-0.19,0.4-0.11
			l3.45,1.92c0.14,0.08,0.19,0.26,0.11,0.4C188.28,160.72,188.18,160.77,188.08,160.77z"/>
	</g>
	<g>
		<path d="M118.77,36.82c-0.14,0-0.26-0.1-0.29-0.23c-0.03-0.16,0.07-0.31,0.23-0.34l4.86-0.99c0.16-0.03,0.31,0.07,0.34,0.23
			c0.03,0.16-0.07,0.31-0.23,0.34l-4.86,0.99C118.81,36.82,118.79,36.82,118.77,36.82z"/>
	</g>
	<g>
		<path d="M218.01,179.62c-0.05,0-0.1-0.01-0.15-0.04c-0.14-0.08-0.19-0.26-0.1-0.4l3.17-5.39c0.08-0.14,0.26-0.19,0.4-0.1
			c0.14,0.08,0.19,0.26,0.1,0.4l-3.17,5.39C218.21,179.57,218.11,179.62,218.01,179.62z"/>
	</g>
	<g>
		<path d="M298.79,256.23c-0.05,0-0.1-0.01-0.15-0.04c-0.14-0.08-0.18-0.26-0.1-0.4l9.12-14.85c0.08-0.14,0.26-0.18,0.4-0.1
			c0.14,0.08,0.18,0.26,0.1,0.4l-9.12,14.85C298.98,256.18,298.89,256.23,298.79,256.23z"/>
	</g>
	<g>
		<path d="M174.69,206.3c-0.05,0-0.11-0.01-0.16-0.05c-0.14-0.09-0.18-0.27-0.09-0.4l9.39-14.77c0.09-0.14,0.27-0.17,0.4-0.09
			c0.14,0.09,0.18,0.27,0.09,0.4l-9.39,14.77C174.88,206.25,174.79,206.3,174.69,206.3z"/>
	</g>
	<g>
		<path d="M51.97,35.13c-0.04,0-0.07-0.01-0.11-0.02c-0.15-0.06-0.22-0.23-0.16-0.38l5.08-12.87c0.06-0.15,0.23-0.23,0.38-0.16
			c0.15,0.06,0.22,0.23,0.16,0.38l-5.08,12.87C52.2,35.06,52.09,35.13,51.97,35.13z"/>
	</g>
	<g>
		<path d="M247.82,144.61c-0.08,0-0.16-0.03-0.21-0.09c-0.11-0.12-0.1-0.3,0.02-0.41l3.49-3.22c0.12-0.11,0.3-0.1,0.41,0.02
			c0.11,0.12,0.1,0.3-0.02,0.41l-3.49,3.22C247.96,144.58,247.89,144.61,247.82,144.61z"/>
	</g>
	<g>
		<path d="M245.43,17.71c-0.06,0-0.13-0.02-0.18-0.06l-11.34-9.02c-0.13-0.1-0.15-0.28-0.05-0.41c0.1-0.13,0.28-0.15,0.41-0.05
			l11.34,9.02c0.13,0.1,0.15,0.28,0.05,0.41C245.6,17.67,245.52,17.71,245.43,17.71z"/>
	</g>
	<g>
		<path d="M197.37,5.93c-0.03,0-0.06,0-0.08-0.01c-0.15-0.05-0.24-0.21-0.2-0.36l1.43-4.78c0.05-0.15,0.21-0.24,0.36-0.2
			c0.15,0.05,0.24,0.21,0.2,0.36l-1.43,4.78C197.61,5.84,197.5,5.93,197.37,5.93z"/>
	</g>
	<g>
		<path d="M347.29,173.59c-0.11,0-0.21-0.06-0.26-0.16l-4.03-7.95c-0.07-0.14-0.01-0.32,0.13-0.39c0.14-0.07,0.32-0.02,0.39,0.13
			l4.03,7.95c0.07,0.14,0.01,0.32-0.13,0.39C347.38,173.57,347.34,173.59,347.29,173.59z"/>
	</g>
	<g>
		<path d="M276.1,49.26c-0.07,0-0.14-0.03-0.2-0.08c-0.12-0.11-0.13-0.29-0.02-0.41l3.93-4.28c0.11-0.12,0.29-0.12,0.41-0.02
			c0.12,0.11,0.13,0.29,0.02,0.41l-3.93,4.28C276.26,49.23,276.18,49.26,276.1,49.26z"/>
	</g>
	<g>
		<path d="M285.47,320.53c-0.08,0-0.16-0.03-0.21-0.09l-14.74-16.05c-0.11-0.12-0.1-0.3,0.02-0.41c0.12-0.11,0.3-0.1,0.41,0.02
			l14.74,16.05c0.11,0.12,0.1,0.3-0.02,0.41C285.61,320.5,285.54,320.53,285.47,320.53z"/>
	</g>
	<g>
		<path d="M286.9,295.18c-0.06,0-0.12-0.02-0.17-0.06l-17.26-12.86c-0.13-0.1-0.16-0.28-0.06-0.41c0.1-0.13,0.28-0.15,0.41-0.06
			l17.26,12.86c0.13,0.1,0.16,0.28,0.06,0.41C287.08,295.14,286.99,295.18,286.9,295.18z"/>
	</g>
	<g>
		<path d="M37.57,24.74c-0.03,0-0.06-0.01-0.09-0.02l-10.73-3.62c-0.15-0.05-0.23-0.22-0.18-0.37c0.05-0.15,0.22-0.23,0.37-0.18
			l10.73,3.62c0.15,0.05,0.23,0.22,0.18,0.37C37.81,24.67,37.7,24.74,37.57,24.74z"/>
	</g>
	<g>
		<path d="M157.88,322.3c-0.04,0-0.09-0.01-0.13-0.03c-0.14-0.07-0.21-0.24-0.13-0.39l8.06-16.56c0.07-0.14,0.25-0.2,0.39-0.13
			c0.14,0.07,0.2,0.24,0.13,0.39l-8.06,16.56C158.09,322.24,157.99,322.3,157.88,322.3z"/>
	</g>
	<g>
		<path d="M209.05,169.81c-0.12,0-0.24-0.08-0.28-0.2l-4.47-14.05c-0.05-0.15,0.04-0.32,0.19-0.37c0.15-0.05,0.32,0.04,0.37,0.19
			l4.47,14.05c0.05,0.15-0.04,0.32-0.19,0.37C209.11,169.81,209.08,169.81,209.05,169.81z"/>
	</g>
	<g>
		<path d="M253.76,252.56c-0.02,0-0.03,0-0.05,0c-0.16-0.03-0.27-0.18-0.24-0.33l0.85-5.29c0.03-0.16,0.17-0.27,0.33-0.24
			c0.16,0.03,0.27,0.18,0.24,0.33l-0.85,5.29C254.02,252.45,253.9,252.56,253.76,252.56z"/>
	</g>
	<g>
		<path d="M66.54,7.1c-0.13,0-0.24-0.08-0.28-0.21l-1.17-3.87c-0.05-0.15,0.04-0.32,0.19-0.36c0.15-0.05,0.32,0.04,0.36,0.19
			l1.17,3.87c0.05,0.15-0.04,0.32-0.19,0.36C66.59,7.1,66.56,7.1,66.54,7.1z"/>
	</g>
	<g>
		<path d="M269.66,152.01c-0.15,0-0.28-0.12-0.29-0.27l-1.67-22.46c-0.01-0.16,0.11-0.3,0.27-0.31c0.16-0.02,0.3,0.11,0.31,0.27
			l1.67,22.46c0.01,0.16-0.11,0.3-0.27,0.31C269.68,152.01,269.67,152.01,269.66,152.01z"/>
	</g>
	<g>
		<path d="M245.19,163.03c-0.14,0-0.27-0.1-0.29-0.25c-0.02-0.16,0.09-0.31,0.25-0.33l15.92-2.3c0.16-0.02,0.31,0.09,0.33,0.25
			c0.02,0.16-0.09,0.31-0.25,0.33l-15.92,2.3C245.22,163.03,245.2,163.03,245.19,163.03z"/>
	</g>
	<g>
		<path d="M194.21,69.79c-0.07,0-0.14-0.02-0.19-0.07l-12.55-11.03c-0.12-0.11-0.13-0.29-0.03-0.41c0.11-0.12,0.29-0.13,0.41-0.03
			l12.55,11.03c0.12,0.11,0.13,0.29,0.03,0.41C194.37,69.76,194.29,69.79,194.21,69.79z"/>
	</g>
	<g>
		<path d="M161.9,111.63c-0.1,0-0.2-0.06-0.26-0.15l-5.05-9.28c-0.08-0.14-0.02-0.32,0.12-0.4c0.14-0.08,0.32-0.02,0.4,0.12
			l5.05,9.28c0.08,0.14,0.02,0.32-0.12,0.4C162,111.61,161.95,111.63,161.9,111.63z"/>
	</g>
	<g>
		<path d="M105.75,238.61c-0.16,0-0.29-0.13-0.29-0.29c0-0.16,0.13-0.29,0.29-0.3l8.35-0.15c0.14-0.02,0.29,0.13,0.3,0.29
			c0,0.16-0.13,0.29-0.29,0.3L105.75,238.61C105.75,238.61,105.75,238.61,105.75,238.61z"/>
	</g>
	<g>
		<path d="M318.8,136.78c-0.1,0-0.21-0.06-0.26-0.15l-2.2-4.16c-0.08-0.14-0.02-0.32,0.12-0.39c0.14-0.08,0.32-0.02,0.39,0.12
			l2.2,4.16c0.08,0.14,0.02,0.32-0.12,0.39C318.89,136.77,318.84,136.78,318.8,136.78z"/>
	</g>
	<g>
		<path d="M96.63,221.65c-0.11,0-0.22-0.07-0.27-0.18c-0.06-0.15,0.01-0.32,0.16-0.38l4.05-1.67c0.15-0.06,0.32,0.01,0.38,0.16
			c0.06,0.15-0.01,0.32-0.16,0.38l-4.05,1.67C96.71,221.65,96.67,221.65,96.63,221.65z"/>
	</g>
	<g>
		<path d="M321.85,89.35c-0.05,0-0.11-0.01-0.16-0.05L302.34,76.9c-0.14-0.09-0.18-0.27-0.09-0.4c0.09-0.14,0.27-0.17,0.4-0.09
			l19.36,12.41c0.14,0.09,0.18,0.27,0.09,0.4C322.04,89.31,321.95,89.35,321.85,89.35z"/>
	</g>
	<g>
		<path d="M144.48,92.31c-0.04,0-0.07-0.01-0.11-0.02l-6.63-2.73c-0.15-0.06-0.22-0.23-0.16-0.38c0.06-0.15,0.23-0.22,0.38-0.16
			l6.63,2.73c0.15,0.06,0.22,0.23,0.16,0.38C144.71,92.24,144.6,92.31,144.48,92.31z"/>
	</g>
	<g>
		<path d="M346.96,274.77c-0.03,0-0.07-0.01-0.1-0.02l-4.38-1.65c-0.15-0.06-0.23-0.22-0.17-0.38c0.06-0.15,0.22-0.23,0.38-0.17
			l4.38,1.65c0.15,0.06,0.23,0.22,0.17,0.38C347.18,274.69,347.07,274.77,346.96,274.77z"/>
	</g>
	<g>
		<path d="M116.28,162.47c-0.07,0-0.13-0.02-0.19-0.07c-0.12-0.1-0.14-0.29-0.03-0.41l3.32-3.92c0.1-0.12,0.29-0.14,0.41-0.03
			c0.12,0.1,0.14,0.29,0.03,0.41l-3.32,3.92C116.44,162.44,116.36,162.47,116.28,162.47z"/>
	</g>
	<g>
		<path d="M326.42,119.6c-0.1,0-0.21-0.06-0.26-0.16l-4.57-8.72c-0.07-0.14-0.02-0.32,0.12-0.39c0.14-0.07,0.32-0.02,0.39,0.12
			l4.57,8.72c0.07,0.14,0.02,0.32-0.12,0.39C326.51,119.58,326.47,119.6,326.42,119.6z"/>
	</g>
	<g>
		<path d="M331.13,308.13c-0.15,0-0.28-0.12-0.29-0.27l-0.82-13.83c-0.01-0.16,0.11-0.3,0.27-0.31c0.17-0.01,0.3,0.11,0.31,0.27
			l0.82,13.83c0.01,0.16-0.11,0.3-0.27,0.31C331.14,308.13,331.14,308.13,331.13,308.13z"/>
	</g>
	<g>
		<path d="M268.83,184.94c-0.05,0-0.11-0.02-0.16-0.05l-12.51-8.15c-0.13-0.09-0.17-0.27-0.08-0.4c0.09-0.14,0.27-0.17,0.4-0.09
			l12.51,8.15c0.13,0.09,0.17,0.27,0.08,0.4C269.01,184.89,268.92,184.94,268.83,184.94z"/>
	</g>
	<g>
		<path d="M30.51,268.85c-0.07,0-0.14-0.02-0.19-0.07l-3.55-3.14c-0.12-0.11-0.13-0.29-0.03-0.41c0.11-0.12,0.29-0.13,0.41-0.03
			l3.55,3.14c0.12,0.11,0.13,0.29,0.03,0.41C30.67,268.81,30.59,268.85,30.51,268.85z"/>
	</g>
	<g>
		<path d="M210.48,120.24c-0.12,0-0.23-0.07-0.27-0.19l-2.54-7c-0.06-0.15,0.02-0.32,0.17-0.37c0.15-0.06,0.32,0.02,0.37,0.17
			l2.54,7c0.06,0.15-0.02,0.32-0.17,0.37C210.55,120.23,210.52,120.24,210.48,120.24z"/>
	</g>
	<g>
		<path d="M232.36,302.8c-0.04,0-0.08-0.01-0.11-0.02l-9.32-3.86c-0.15-0.06-0.22-0.23-0.16-0.38c0.06-0.15,0.23-0.22,0.38-0.16
			l9.32,3.86c0.15,0.06,0.22,0.23,0.16,0.38C232.59,302.73,232.48,302.8,232.36,302.8z"/>
	</g>
	<g>
		<path d="M262.37,18.28c-0.02,0-0.04,0-0.06-0.01c-0.16-0.03-0.26-0.19-0.22-0.35l3.17-14.29c0.03-0.16,0.19-0.26,0.35-0.22
			c0.16,0.03,0.26,0.19,0.22,0.35l-3.17,14.29C262.62,18.19,262.5,18.28,262.37,18.28z"/>
	</g>
	<g>
		<path d="M81,52.17c-0.1,0-0.19-0.05-0.25-0.14c-0.09-0.14-0.04-0.32,0.09-0.4l3.64-2.27c0.14-0.08,0.32-0.04,0.4,0.09
			c0.09,0.14,0.04,0.32-0.09,0.4l-3.64,2.27C81.11,52.16,81.05,52.17,81,52.17z"/>
	</g>
	<g>
		<path d="M328.46,155.31c-0.07,0-0.13-0.02-0.19-0.07l-3.42-2.89c-0.12-0.1-0.14-0.29-0.03-0.41c0.1-0.12,0.29-0.14,0.41-0.03
			l3.42,2.89c0.12,0.1,0.14,0.29,0.03,0.41C328.62,155.28,328.54,155.31,328.46,155.31z"/>
	</g>
	<g>
		<path d="M292.66,280.35c-0.08,0-0.16-0.03-0.22-0.1c-0.11-0.12-0.09-0.31,0.03-0.41l14.41-12.39c0.12-0.1,0.31-0.09,0.41,0.03
			c0.11,0.12,0.09,0.31-0.03,0.41l-14.41,12.39C292.8,280.33,292.73,280.35,292.66,280.35z"/>
	</g>
	<g>
		<path d="M174.41,222.6c-0.13,0-0.25-0.09-0.28-0.22c-0.04-0.16,0.05-0.31,0.21-0.36l4.97-1.3c0.16-0.04,0.31,0.05,0.36,0.21
			c0.04,0.16-0.05,0.31-0.21,0.36l-4.97,1.3C174.45,222.6,174.43,222.6,174.41,222.6z"/>
	</g>
	<g>
		<path d="M168.45,241.29c-0.11,0-0.22-0.06-0.27-0.17c-0.07-0.15,0-0.32,0.15-0.38l3.91-1.74c0.14-0.06,0.32,0,0.38,0.15
			c0.07,0.15,0,0.32-0.15,0.38l-3.91,1.74C168.53,241.28,168.49,241.29,168.45,241.29z"/>
	</g>
	<g>
		<path d="M300.06,320.24c-0.13,0-0.25-0.09-0.28-0.22l-2.84-12.13c-0.04-0.16,0.06-0.31,0.22-0.35c0.16-0.03,0.31,0.06,0.35,0.22
			l2.84,12.13c0.04,0.16-0.06,0.31-0.22,0.35C300.11,320.24,300.09,320.24,300.06,320.24z"/>
	</g>
	<g>
		<path d="M87.71,102.94c-0.05,0-0.11-0.01-0.16-0.05l-4.78-3.05c-0.14-0.09-0.18-0.27-0.09-0.4c0.09-0.14,0.27-0.18,0.4-0.09
			l4.78,3.05c0.14,0.09,0.18,0.27,0.09,0.4C87.9,102.89,87.81,102.94,87.71,102.94z"/>
	</g>
	<g>
		<path d="M220.74,285.25c-0.1,0-0.2-0.05-0.25-0.14c-0.08-0.14-0.04-0.32,0.1-0.4l12.78-7.56c0.14-0.08,0.32-0.04,0.4,0.1
			c0.08,0.14,0.04,0.32-0.1,0.4l-12.78,7.56C220.84,285.24,220.79,285.25,220.74,285.25z"/>
	</g>
	<g>
		<path d="M260.39,40.66c-0.07,0-0.15-0.03-0.2-0.08c-0.11-0.11-0.12-0.3,0-0.41l5.28-5.34c0.11-0.11,0.3-0.12,0.41,0
			c0.11,0.11,0.12,0.3,0,0.41l-5.28,5.34C260.54,40.63,260.47,40.66,260.39,40.66z"/>
	</g>
	<g>
		<path d="M148.76,147.24c-0.05,0-0.1-0.01-0.15-0.04c-0.14-0.08-0.18-0.26-0.1-0.4l2.05-3.38c0.09-0.14,0.26-0.18,0.4-0.1
			c0.14,0.08,0.18,0.26,0.1,0.4l-2.05,3.38C148.96,147.19,148.86,147.24,148.76,147.24z"/>
	</g>
	<g>
		<path d="M166.32,159.07c-0.03,0-0.06,0-0.09-0.01l-4.1-1.34c-0.15-0.05-0.24-0.21-0.19-0.37c0.05-0.15,0.21-0.24,0.37-0.19
			l4.1,1.34c0.15,0.05,0.24,0.21,0.19,0.37C166.56,159,166.44,159.07,166.32,159.07z"/>
	</g>
	<g>
		<path d="M88.09,322.17c-0.05,0-0.1-0.01-0.15-0.04l-3.44-2.05c-0.14-0.08-0.18-0.26-0.1-0.4c0.08-0.14,0.26-0.18,0.4-0.1
			l3.44,2.05c0.14,0.08,0.18,0.26,0.1,0.4C88.28,322.11,88.18,322.17,88.09,322.17z"/>
	</g>
	<g>
		<path d="M216.72,100.8c-0.02,0-0.03,0-0.05,0c-0.16-0.03-0.26-0.18-0.24-0.34l1.21-6.96c0.03-0.16,0.18-0.27,0.34-0.24
			c0.16,0.03,0.26,0.18,0.24,0.34l-1.21,6.96C216.98,100.7,216.86,100.8,216.72,100.8z"/>
	</g>
	<g>
		<path d="M223.98,266.04c-0.07,0-0.14-0.02-0.19-0.07c-0.12-0.11-0.13-0.29-0.03-0.41l11.68-13.19c0.11-0.12,0.29-0.13,0.41-0.03
			c0.12,0.11,0.13,0.29,0.03,0.41l-11.68,13.19C224.14,266,224.06,266.04,223.98,266.04z"/>
	</g>
	<g>
		<path d="M249.78,1.8c-0.01,0-0.02,0-0.04,0l-4.22-0.53c-0.16-0.02-0.27-0.17-0.25-0.33c0.02-0.16,0.16-0.28,0.33-0.25l4.22,0.53
			c0.16,0.02,0.27,0.17,0.25,0.33C250.05,1.69,249.92,1.8,249.78,1.8z"/>
	</g>
	<g>
		<path d="M341.76,198.25c-0.03,0-0.07-0.01-0.1-0.02l-20.88-8.04c-0.15-0.06-0.22-0.23-0.17-0.38c0.06-0.15,0.22-0.22,0.38-0.17
			l20.88,8.04c0.15,0.06,0.22,0.23,0.17,0.38C341.98,198.18,341.87,198.25,341.76,198.25z"/>
	</g>
	<g>
		<path d="M198.46,321.77c-0.07,0-0.13-0.02-0.19-0.07l-6.03-5.05c-0.12-0.1-0.14-0.29-0.04-0.41c0.1-0.12,0.29-0.14,0.41-0.04
			l6.03,5.05c0.12,0.1,0.14,0.29,0.04,0.41C198.63,321.73,198.54,321.77,198.46,321.77z"/>
	</g>
	<g>
		<path d="M262.7,101.82c-0.01,0-0.02,0-0.03,0l-12.74-1.47c-0.16-0.02-0.27-0.16-0.26-0.32c0.02-0.16,0.17-0.28,0.32-0.26
			l12.74,1.47c0.16,0.02,0.27,0.16,0.26,0.32C262.97,101.71,262.85,101.82,262.7,101.82z"/>
	</g>
	<g>
		<path d="M163.7,91.46c-0.13,0-0.25-0.09-0.28-0.22l-5.61-22.34c-0.04-0.16,0.06-0.31,0.21-0.35c0.16-0.04,0.31,0.06,0.35,0.21
			l5.61,22.34c0.04,0.16-0.06,0.31-0.21,0.35C163.75,91.45,163.72,91.46,163.7,91.46z"/>
	</g>
	<g>
		<path d="M117.94,181.84c-0.03,0-0.05,0-0.08-0.01l-17.62-5.18c-0.15-0.05-0.24-0.21-0.2-0.36c0.05-0.15,0.21-0.24,0.36-0.2
			l17.62,5.18c0.15,0.05,0.24,0.21,0.2,0.36C118.19,181.76,118.07,181.84,117.94,181.84z"/>
	</g>
	<g>
		<path d="M198.37,129.07c-0.05,0-0.11-0.01-0.16-0.05l-5.99-3.85c-0.14-0.09-0.17-0.27-0.09-0.4c0.09-0.14,0.27-0.17,0.4-0.09
			l5.99,3.85c0.14,0.09,0.17,0.27,0.09,0.4C198.55,129.02,198.46,129.07,198.37,129.07z"/>
	</g>
	<g>
		<path d="M65.3,158.64c-0.09,0-0.17-0.04-0.23-0.11l-11.41-14.51c-0.1-0.13-0.08-0.31,0.05-0.41c0.12-0.1,0.31-0.08,0.41,0.05
			l11.41,14.51c0.1,0.13,0.08,0.31-0.05,0.41C65.43,158.62,65.36,158.64,65.3,158.64z"/>
	</g>
	<g>
		<path d="M48.39,104.48c-0.03,0-0.06,0-0.08-0.01c-0.15-0.05-0.24-0.21-0.2-0.36l1.57-5.32c0.05-0.15,0.21-0.24,0.36-0.2
			c0.15,0.05,0.24,0.21,0.2,0.36l-1.57,5.32C48.64,104.4,48.52,104.48,48.39,104.48z"/>
	</g>
	<g>
		<path d="M127.4,14.51c-0.07,0-0.15-0.03-0.2-0.08L114.88,2.51c-0.12-0.11-0.12-0.3-0.01-0.41c0.11-0.12,0.3-0.12,0.41-0.01
			l12.32,11.92c0.12,0.11,0.12,0.3,0.01,0.41C127.55,14.48,127.48,14.51,127.4,14.51z"/>
	</g>
	<g>
		<path d="M218.76,66.79c-0.04,0-0.08-0.01-0.12-0.03l-12.79-5.82c-0.15-0.07-0.21-0.24-0.14-0.39c0.07-0.15,0.24-0.21,0.39-0.14
			l12.79,5.82c0.15,0.07,0.21,0.24,0.14,0.39C218.97,66.72,218.87,66.79,218.76,66.79z"/>
	</g>
	<g>
		<path d="M84.07,7.5c-0.12,0-0.24-0.08-0.28-0.2l-1.42-4.28c-0.05-0.15,0.03-0.32,0.19-0.37c0.15-0.05,0.32,0.03,0.37,0.19
			l1.42,4.28c0.05,0.15-0.03,0.32-0.19,0.37C84.13,7.5,84.1,7.5,84.07,7.5z"/>
	</g>
	<g>
		<path d="M321.12,69.37c-0.14,0-0.27-0.1-0.29-0.25c-0.02-0.16,0.08-0.31,0.24-0.33l4.04-0.63c0.17-0.02,0.31,0.08,0.33,0.24
			c0.02,0.16-0.08,0.31-0.24,0.33l-4.04,0.63C321.15,69.37,321.14,69.37,321.12,69.37z"/>
	</g>
	<g>
		<path d="M43.31,302.93c-0.14,0-0.26-0.1-0.29-0.24c-0.03-0.16,0.07-0.31,0.23-0.34l5.9-1.14c0.16-0.03,0.31,0.07,0.34,0.23
			c0.03,0.16-0.07,0.31-0.23,0.34l-5.9,1.14C43.35,302.93,43.33,302.93,43.31,302.93z"/>
	</g>
	<g>
		<path d="M47.81,126.48c-0.05,0-0.09-0.01-0.14-0.03c-0.14-0.08-0.2-0.25-0.12-0.39l2.64-4.96c0.08-0.14,0.26-0.2,0.39-0.12
			c0.14,0.08,0.2,0.25,0.12,0.39l-2.64,4.96C48.02,126.42,47.92,126.48,47.81,126.48z"/>
	</g>
	<g>
		<path d="M212.89,256.19c-0.09,0-0.18-0.04-0.23-0.12l-3.17-4.25c-0.1-0.13-0.07-0.31,0.06-0.41c0.13-0.1,0.31-0.07,0.41,0.06
			l3.17,4.25c0.1,0.13,0.07,0.31-0.06,0.41C213.01,256.17,212.95,256.19,212.89,256.19z"/>
	</g>
	<g>
		<path d="M72.35,186.66c-0.16,0-0.29-0.13-0.29-0.29c0-0.16,0.13-0.29,0.29-0.29l20.33-0.07c0,0,0,0,0,0
			c0.16,0,0.29,0.13,0.29,0.29c0,0.16-0.13,0.29-0.29,0.29L72.35,186.66C72.35,186.66,72.35,186.66,72.35,186.66z"/>
	</g>
	<g>
		<path d="M295.62,200.12c-0.12,0-0.24-0.08-0.28-0.2c-0.05-0.15,0.04-0.32,0.19-0.37l4.38-1.38c0.15-0.05,0.32,0.04,0.37,0.19
			c0.05,0.15-0.04,0.32-0.19,0.37l-4.38,1.38C295.68,200.12,295.65,200.12,295.62,200.12z"/>
	</g>
	<g>
		<path d="M258.57,201.31c-0.13,0-0.25-0.09-0.28-0.21l-1.79-6.56c-0.04-0.16,0.05-0.32,0.2-0.36c0.16-0.04,0.32,0.05,0.36,0.2
			l1.79,6.56c0.04,0.16-0.05,0.32-0.2,0.36C258.62,201.3,258.59,201.31,258.57,201.31z"/>
	</g>
	<g>
		<path d="M130.67,152.02c-0.02,0-0.05,0-0.07-0.01c-0.16-0.04-0.25-0.2-0.21-0.35l1.42-5.73c0.04-0.16,0.2-0.25,0.35-0.21
			c0.16,0.04,0.25,0.2,0.21,0.35l-1.42,5.73C130.92,151.93,130.8,152.02,130.67,152.02z"/>
	</g>
	<g>
		<path d="M265.93,322.69c-0.01,0-0.01,0-0.02,0l-7.61-0.57c-0.16-0.01-0.28-0.15-0.27-0.31c0.01-0.16,0.15-0.28,0.31-0.27
			l7.61,0.57c0.16,0.01,0.28,0.15,0.27,0.31C266.21,322.57,266.08,322.69,265.93,322.69z"/>
	</g>
	<g>
		<path d="M204.79,83.38c-0.02,0-0.03,0-0.05,0c-0.16-0.03-0.27-0.18-0.24-0.33l0.9-5.5c0.03-0.16,0.18-0.27,0.33-0.24
			c0.16,0.03,0.27,0.18,0.24,0.33l-0.9,5.5C205.05,83.28,204.93,83.38,204.79,83.38z"/>
	</g>
	<g>
		<path d="M348.53,86.67c-0.04,0-0.09-0.01-0.13-0.03l-16.02-8c-0.14-0.07-0.2-0.25-0.13-0.39c0.07-0.14,0.25-0.2,0.39-0.13l16.02,8
			c0.14,0.07,0.2,0.25,0.13,0.39C348.74,86.61,348.63,86.67,348.53,86.67z"/>
	</g>
	<g>
		<path d="M212.18,322.28c-0.08,0-0.16-0.03-0.22-0.1c-0.1-0.12-0.09-0.31,0.03-0.41l8.57-7.33c0.12-0.1,0.31-0.09,0.41,0.03
			c0.1,0.12,0.09,0.31-0.03,0.41l-8.57,7.33C212.31,322.26,212.25,322.28,212.18,322.28z"/>
	</g>
	<g>
		<path d="M261.84,293.19c-0.04,0-0.09-0.01-0.13-0.03l-4.2-2.02c-0.15-0.07-0.21-0.24-0.14-0.39c0.07-0.15,0.24-0.21,0.39-0.14
			l4.2,2.02c0.15,0.07,0.21,0.24,0.14,0.39C262.05,293.13,261.94,293.19,261.84,293.19z"/>
	</g>
	<g>
		<path d="M27.18,74.64c-0.15,0-0.28-0.11-0.29-0.27c-0.01-0.16,0.1-0.3,0.26-0.32l4.13-0.37c0.16-0.01,0.3,0.1,0.32,0.26
			c0.01,0.16-0.1,0.3-0.26,0.32l-4.13,0.37C27.2,74.64,27.19,74.64,27.18,74.64z"/>
	</g>
	<g>
		<path d="M324.86,211.09c-0.15,0-0.28-0.11-0.29-0.27c-0.01-0.16,0.1-0.3,0.26-0.32l6.99-0.63c0.16-0.01,0.3,0.1,0.32,0.26
			c0.01,0.16-0.1,0.3-0.26,0.32l-6.99,0.63C324.88,211.09,324.87,211.09,324.86,211.09z"/>
	</g>
	<g>
		<path d="M318.42,291.74c-0.15,0-0.28-0.12-0.29-0.27l-1.35-16.3c-0.01-0.16,0.11-0.3,0.27-0.31c0.15-0.02,0.3,0.1,0.31,0.27
			l1.35,16.3c0.01,0.16-0.11,0.3-0.27,0.31C318.43,291.74,318.43,291.74,318.42,291.74z"/>
	</g>
	<g>
		<path d="M260.7,60.67c-0.12,0-0.23-0.08-0.27-0.2l-1.9-5.45c-0.05-0.15,0.03-0.32,0.18-0.37c0.15-0.05,0.32,0.03,0.37,0.18
			l1.9,5.45c0.05,0.15-0.03,0.32-0.18,0.37C260.76,60.66,260.73,60.67,260.7,60.67z"/>
	</g>
	<g>
		<path d="M337.17,43.4c-0.08,0-0.17-0.04-0.22-0.11l-4.3-5.17c-0.1-0.12-0.09-0.31,0.04-0.41c0.12-0.1,0.31-0.09,0.41,0.04
			l4.3,5.17c0.1,0.12,0.09,0.31-0.04,0.41C337.3,43.37,337.24,43.4,337.17,43.4z"/>
	</g>
	<g>
		<path d="M208.99,279.07c-0.1,0-0.21-0.06-0.26-0.16l-9.03-17.16c-0.08-0.14-0.02-0.32,0.12-0.39c0.14-0.08,0.32-0.02,0.39,0.12
			l9.03,17.16c0.08,0.14,0.02,0.32-0.12,0.39C209.08,279.06,209.03,279.07,208.99,279.07z"/>
	</g>
	<g>
		<path d="M213.45,41.08c-0.12,0-0.23-0.07-0.27-0.19c-0.06-0.15,0.02-0.32,0.17-0.37l3.63-1.34c0.15-0.05,0.32,0.02,0.37,0.17
			c0.06,0.15-0.02,0.32-0.17,0.37l-3.63,1.34C213.52,41.07,213.48,41.08,213.45,41.08z"/>
	</g>
	<g>
		<path d="M189.04,86.94c-0.04,0-0.09-0.01-0.13-0.03l-9.97-4.92c-0.14-0.07-0.2-0.25-0.13-0.39c0.07-0.14,0.25-0.2,0.39-0.13
			l9.98,4.92c0.14,0.07,0.2,0.25,0.13,0.39C189.25,86.88,189.15,86.94,189.04,86.94z"/>
	</g>
	<g>
		<path d="M198.02,51.16c-0.08,0-0.16-0.03-0.21-0.09c-0.11-0.12-0.1-0.3,0.02-0.41l3.05-2.82c0.12-0.11,0.3-0.1,0.41,0.02
			c0.11,0.12,0.1,0.3-0.02,0.41l-3.05,2.82C198.16,51.14,198.09,51.16,198.02,51.16z"/>
	</g>
	<g>
		<path d="M106.06,324.54c-0.09,0-0.18-0.04-0.24-0.13l-3.85-5.66c-0.09-0.13-0.06-0.31,0.08-0.4c0.13-0.09,0.31-0.06,0.4,0.08
			l3.85,5.66c0.09,0.13,0.06,0.31-0.08,0.4C106.18,324.52,106.12,324.54,106.06,324.54z"/>
	</g>
	<g>
		<path d="M45.65,263.57c-0.02,0-0.04,0-0.06-0.01c-0.16-0.04-0.26-0.19-0.22-0.35l4.71-20.91c0.04-0.16,0.19-0.25,0.35-0.22
			c0.16,0.04,0.26,0.19,0.22,0.35l-4.71,20.91C45.9,263.48,45.78,263.57,45.65,263.57z"/>
	</g>
	<g>
		<path d="M29.04,198.31c-0.09,0-0.17-0.04-0.23-0.11l-2.62-3.34c-0.1-0.13-0.08-0.31,0.05-0.41c0.12-0.1,0.31-0.08,0.41,0.05
			l2.62,3.34c0.1,0.13,0.08,0.31-0.05,0.41C29.17,198.29,29.1,198.31,29.04,198.31z"/>
	</g>
	<g>
		<path d="M29.62,309.63c-0.13,0-0.25-0.09-0.28-0.22l-3.43-14.14c-0.04-0.16,0.06-0.31,0.21-0.35c0.16-0.03,0.31,0.06,0.35,0.21
			l3.43,14.14c0.04,0.16-0.06,0.31-0.21,0.35C29.66,309.63,29.64,309.63,29.62,309.63z"/>
	</g>
	<g>
		<path d="M144.96,10.73c-0.09,0-0.17-0.04-0.23-0.11l-7.1-8.89c-0.1-0.13-0.08-0.31,0.05-0.41c0.13-0.1,0.31-0.08,0.41,0.05
			l7.1,8.89c0.1,0.13,0.08,0.31-0.05,0.41C145.09,10.71,145.03,10.73,144.96,10.73z"/>
	</g>
	<g>
		<path d="M187.23,109.54c-0.09,0-0.18-0.04-0.24-0.12c-0.09-0.13-0.06-0.31,0.07-0.41L201.7,98.6c0.13-0.09,0.31-0.06,0.41,0.07
			c0.09,0.13,0.06,0.31-0.07,0.41l-14.64,10.42C187.35,109.53,187.29,109.54,187.23,109.54z"/>
	</g>
	<g>
		<path d="M88.46,128.86c-0.02,0-0.04,0-0.06,0c-1.79-0.02-3.47-0.73-4.72-2c-1.26-1.28-1.94-2.97-1.92-4.76
			c0.02-1.79,0.73-3.47,2-4.72c1.28-1.26,3-1.93,4.76-1.92c3.7,0.03,6.68,3.07,6.65,6.76c-0.02,1.79-0.73,3.47-2,4.72
			C91.89,128.18,90.23,128.86,88.46,128.86z M88.46,116.03c-1.62,0-3.14,0.62-4.29,1.76c-1.17,1.15-1.82,2.68-1.83,4.31
			c-0.01,1.64,0.61,3.18,1.75,4.34c1.15,1.17,2.68,1.82,4.31,1.83c0.02,0,0.04,0,0.06,0c1.61,0,3.14-0.62,4.29-1.75
			c1.17-1.15,1.82-2.68,1.83-4.31l0.29,0l-0.29,0c0.01-1.64-0.61-3.18-1.76-4.35c-1.15-1.17-2.68-1.82-4.31-1.83
			C88.49,116.03,88.47,116.03,88.46,116.03z"/>
	</g>
	<g>
		<path d="M277.65,215.9c-1.74,0-3.41-0.62-4.74-1.77c-1.46-1.27-2.34-3.03-2.48-4.96c-0.14-1.93,0.49-3.8,1.76-5.26
			c1.27-1.46,3.03-2.34,4.96-2.48c3.98-0.28,7.45,2.73,7.73,6.72c0.28,3.98-2.73,7.45-6.72,7.73
			C278,215.89,277.82,215.9,277.65,215.9z M277.67,202c-0.16,0-0.31,0.01-0.47,0.02c-1.77,0.12-3.39,0.93-4.56,2.28
			c-1.17,1.34-1.74,3.06-1.61,4.83s0.93,3.39,2.28,4.56c1.34,1.17,3.06,1.74,4.83,1.61c3.66-0.26,6.43-3.45,6.18-7.11
			C284.06,204.69,281.13,202,277.67,202z"/>
	</g>
	<g>
		<path d="M299.71,113.64c-0.81,0-1.56-0.54-1.79-1.36c-0.27-0.99,0.31-2.01,1.3-2.28c0.48-0.13,0.98-0.07,1.41,0.18
			c0.43,0.24,0.74,0.64,0.87,1.12l0,0c0.13,0.48,0.07,0.98-0.18,1.41c-0.24,0.43-0.64,0.74-1.12,0.87
			C300.04,113.62,299.87,113.64,299.71,113.64z M299.71,110.51c-0.11,0-0.23,0.02-0.34,0.05c-0.68,0.19-1.07,0.89-0.89,1.56
			c0.19,0.68,0.89,1.07,1.56,0.89c0.33-0.09,0.6-0.3,0.77-0.6c0.17-0.29,0.21-0.64,0.12-0.96l0,0c-0.09-0.33-0.3-0.6-0.6-0.77
			C300.15,110.57,299.93,110.51,299.71,110.51z"/>
	</g>
	<g>
		<path d="M331.3,100.06c-0.78,0-1.56-0.31-2.12-0.93c-1.07-1.17-1-3,0.17-4.07c0.57-0.52,1.3-0.79,2.07-0.76
			c0.77,0.03,1.48,0.36,2,0.93c0.52,0.57,0.79,1.3,0.76,2.07c-0.03,0.77-0.36,1.48-0.93,2C332.7,99.81,332,100.06,331.3,100.06z
			 M331.3,94.88c-0.58,0-1.12,0.21-1.55,0.6c-0.45,0.42-0.72,0.98-0.74,1.59c-0.03,0.61,0.19,1.2,0.6,1.65
			c0.42,0.45,0.98,0.72,1.59,0.74c0.61,0.03,1.2-0.19,1.65-0.6c0.45-0.42,0.72-0.98,0.74-1.59c0.03-0.61-0.19-1.2-0.6-1.65
			c-0.42-0.45-0.98-0.72-1.59-0.74C331.37,94.88,331.33,94.88,331.3,94.88z"/>
	</g>
	<g>
		<path d="M48.09,284.61c-0.21,0-0.42-0.02-0.62-0.06c-0.82-0.16-1.53-0.64-1.99-1.34c-0.96-1.44-0.57-3.39,0.87-4.35
			c0.7-0.46,1.53-0.63,2.35-0.46c0.82,0.16,1.53,0.64,1.99,1.34c0.46,0.7,0.63,1.53,0.47,2.35c-0.16,0.82-0.64,1.53-1.34,1.99
			C49.3,284.44,48.7,284.61,48.09,284.61z M48.08,278.93c-0.49,0-0.98,0.14-1.41,0.43c-0.57,0.38-0.95,0.95-1.09,1.62
			c-0.13,0.67,0,1.35,0.38,1.92l0,0c0.78,1.17,2.37,1.49,3.54,0.71c0.57-0.38,0.95-0.95,1.09-1.62c0.13-0.67,0-1.35-0.38-1.92
			C49.72,279.33,48.9,278.93,48.08,278.93z"/>
	</g>
	<g>
		<path d="M199.73,189.58c-0.07,0-0.14,0-0.22,0c-2.78-0.12-4.95-2.48-4.83-5.26c0.12-2.78,2.49-4.93,5.26-4.83
			c1.35,0.06,2.59,0.64,3.5,1.63c0.91,0.99,1.38,2.28,1.33,3.63C204.66,187.45,202.42,189.58,199.73,189.58z M199.72,180.06
			c-1.12,0-2.19,0.41-3.02,1.18c-0.88,0.81-1.39,1.91-1.44,3.1c-0.05,1.19,0.37,2.33,1.17,3.21c0.81,0.88,1.91,1.39,3.1,1.44
			c2.46,0.11,4.55-1.81,4.65-4.27c0.05-1.19-0.37-2.33-1.17-3.21c-0.81-0.88-1.91-1.39-3.1-1.44
			C199.85,180.06,199.79,180.06,199.72,180.06z"/>
	</g>
	<g>
		<path d="M223.51,81.65c-0.01,0-0.02,0-0.03,0c-1.23-0.02-2.22-1.04-2.2-2.27l0,0c0.02-1.22,1.02-2.2,2.23-2.2
			c0.01,0,0.02,0,0.03,0c1.23,0.02,2.22,1.04,2.2,2.27C225.73,80.67,224.73,81.65,223.51,81.65z M221.86,79.39
			c-0.01,0.91,0.71,1.66,1.62,1.68c0.93,0.03,1.66-0.71,1.68-1.62c0.01-0.91-0.71-1.66-1.62-1.68
			C222.63,77.76,221.88,78.48,221.86,79.39L221.86,79.39z"/>
	</g>
	<g>
		<path d="M330.34,177.61c-0.4,0-0.79-0.08-1.16-0.24c-0.72-0.31-1.28-0.88-1.57-1.62c-0.29-0.73-0.28-1.53,0.03-2.25
			c0.31-0.72,0.88-1.28,1.62-1.57c0.73-0.29,1.53-0.28,2.25,0.03c0.72,0.31,1.28,0.88,1.57,1.62c0.29,0.73,0.28,1.53-0.03,2.25
			c-0.31,0.72-0.88,1.28-1.62,1.57C331.08,177.54,330.71,177.61,330.34,177.61z M330.34,172.31c-0.3,0-0.59,0.06-0.87,0.17
			c-0.59,0.23-1.05,0.68-1.3,1.26c-0.25,0.58-0.26,1.22-0.03,1.81c0.23,0.59,0.68,1.05,1.26,1.3c0.58,0.25,1.22,0.26,1.81,0.03
			c0.59-0.23,1.05-0.68,1.3-1.26c0.25-0.58,0.26-1.22,0.03-1.81c-0.23-0.59-0.68-1.05-1.26-1.3
			C330.97,172.37,330.66,172.31,330.34,172.31z"/>
	</g>
	<g>
		<path d="M334.33,24.7c-0.03,0-0.06,0-0.09,0c-2.56-0.05-4.61-2.18-4.56-4.74l0,0c0.05-2.56,2.19-4.62,4.74-4.56
			c2.56,0.05,4.61,2.18,4.56,4.74C338.93,22.67,336.85,24.7,334.33,24.7z M330.26,19.97c-0.04,2.24,1.75,4.1,3.99,4.15
			c2.24,0.04,4.1-1.75,4.15-3.99c0.04-2.24-1.75-4.1-3.99-4.15C332.17,15.94,330.31,17.73,330.26,19.97L330.26,19.97z"/>
	</g>
	<g>
		<path d="M35.33,182.84c-2.7,0-5.21-1.74-6.07-4.45c-0.51-1.62-0.35-3.34,0.43-4.84c0.79-1.5,2.11-2.61,3.73-3.12
			c3.34-1.05,6.91,0.82,7.96,4.16l0,0c0.51,1.62,0.35,3.34-0.43,4.84c-0.79,1.5-2.11,2.61-3.73,3.12
			C36.59,182.75,35.95,182.84,35.33,182.84z M35.32,170.72c-0.57,0-1.15,0.09-1.72,0.27c-1.47,0.46-2.67,1.47-3.39,2.83
			c-0.71,1.37-0.85,2.93-0.39,4.4c0.95,3.04,4.2,4.74,7.23,3.78c1.47-0.46,2.67-1.47,3.39-2.83c0.71-1.37,0.85-2.93,0.39-4.4
			C40.06,172.3,37.77,170.72,35.32,170.72z"/>
	</g>
	<g>
		<path d="M326.39,263.17c-2.23,0-4.44-1-5.9-2.92c-1.2-1.57-1.71-3.52-1.45-5.48c0.26-1.96,1.28-3.7,2.85-4.9
			c1.57-1.2,3.52-1.72,5.48-1.45c1.96,0.26,3.7,1.28,4.9,2.85c1.2,1.57,1.71,3.52,1.45,5.48c-0.26,1.96-1.28,3.7-2.85,4.9
			C329.54,262.68,327.96,263.17,326.39,263.17z M326.38,248.94c-1.44,0-2.89,0.45-4.13,1.39c-2.99,2.28-3.57,6.57-1.29,9.56
			c2.28,2.99,6.57,3.57,9.56,1.29c2.99-2.28,3.57-6.57,1.29-9.56C330.47,249.87,328.43,248.94,326.38,248.94z"/>
	</g>
	<g>
		<path d="M221.31,134.55c-0.34,0-0.69-0.07-1.01-0.21c-1.27-0.56-1.86-2.05-1.3-3.32c0.27-0.62,0.76-1.09,1.39-1.34
			c0.63-0.24,1.31-0.23,1.93,0.04c1.27,0.56,1.86,2.05,1.3,3.32c-0.27,0.62-0.76,1.09-1.39,1.34
			C221.93,134.49,221.62,134.55,221.31,134.55z M221.31,130.08c-0.24,0-0.48,0.04-0.71,0.13c-0.48,0.19-0.86,0.55-1.07,1.03
			c-0.43,0.98,0.02,2.13,1,2.55c0.48,0.21,1,0.22,1.48,0.03c0.48-0.19,0.86-0.55,1.07-1.03c0.43-0.98-0.02-2.13-1-2.56
			C221.84,130.14,221.58,130.08,221.31,130.08z"/>
	</g>
	<g>
		<path d="M140.5,130.45c-0.46,0-0.91-0.18-1.25-0.54c-0.31-0.33-0.48-0.77-0.46-1.23c0.01-0.46,0.21-0.88,0.54-1.19
			c0.33-0.31,0.75-0.48,1.23-0.46c0.46,0.01,0.88,0.21,1.19,0.54c0.31,0.33,0.48,0.77,0.46,1.23c-0.01,0.46-0.21,0.88-0.54,1.19
			C141.34,130.29,140.92,130.45,140.5,130.45z M140.5,127.61c-0.29,0-0.56,0.11-0.77,0.31c-0.22,0.21-0.35,0.49-0.36,0.79
			c-0.01,0.3,0.1,0.59,0.31,0.81c0.21,0.22,0.49,0.35,0.79,0.36c0.3,0.02,0.59-0.1,0.81-0.31c0.22-0.21,0.35-0.49,0.36-0.79
			c0.01-0.3-0.1-0.59-0.31-0.81c-0.21-0.22-0.49-0.35-0.79-0.36C140.53,127.61,140.51,127.61,140.5,127.61z"/>
	</g>
	<g>
		<path d="M279.15,119.74c-2.25,0-4.44-1.18-5.63-3.27c-0.85-1.5-1.07-3.24-0.61-4.9c0.46-1.66,1.54-3.05,3.04-3.9
			c1.5-0.85,3.24-1.07,4.9-0.61c1.66,0.46,3.05,1.54,3.9,3.04c1.76,3.1,0.67,7.05-2.43,8.8l0,0
			C281.32,119.46,280.23,119.74,279.15,119.74z M279.13,107.4c-1,0-2,0.26-2.89,0.77c-1.36,0.78-2.35,2.03-2.76,3.55
			c-0.42,1.51-0.22,3.1,0.56,4.46c1.6,2.82,5.19,3.81,8.01,2.21c2.82-1.6,3.81-5.19,2.21-8.01c-0.78-1.36-2.03-2.35-3.55-2.76
			C280.18,107.47,279.65,107.4,279.13,107.4z M282.18,118.64L282.18,118.64L282.18,118.64z"/>
	</g>
	<g>
		<path d="M241.01,51.02c-0.61,0-1.24-0.11-1.85-0.34c-2.69-1.02-4.04-4.04-3.02-6.73c1.02-2.69,4.04-4.05,6.73-3.02
			c2.69,1.02,4.04,4.04,3.02,6.73l0,0C245.1,49.74,243.11,51.02,241.01,51.02z M241.02,41.18c-1.87,0-3.63,1.14-4.34,2.99
			c-0.91,2.39,0.3,5.07,2.69,5.97c2.39,0.91,5.07-0.3,5.97-2.69c0.91-2.39-0.3-5.07-2.69-5.97
			C242.12,41.27,241.57,41.18,241.02,41.18z M245.62,47.56L245.62,47.56L245.62,47.56z"/>
	</g>
	<g>
		<path d="M131.31,299.49c-0.42,0-0.85-0.06-1.26-0.18c-1.17-0.34-2.13-1.11-2.72-2.17c-0.59-1.06-0.73-2.29-0.39-3.45
			c0.34-1.16,1.1-2.13,2.17-2.72c1.06-0.59,2.29-0.73,3.45-0.39c1.17,0.34,2.13,1.1,2.72,2.17l0,0c0.59,1.06,0.73,2.29,0.39,3.45
			c-0.34,1.17-1.1,2.13-2.17,2.72C132.82,299.3,132.07,299.49,131.31,299.49z M131.3,290.99c-0.66,0-1.31,0.17-1.91,0.5
			c-0.93,0.51-1.6,1.35-1.89,2.37c-0.29,1.02-0.17,2.09,0.34,3.01c1.06,1.91,3.47,2.61,5.38,1.55c0.93-0.51,1.6-1.35,1.89-2.37
			c0.29-1.02,0.17-2.08-0.34-3.01l0,0c-0.51-0.93-1.35-1.6-2.37-1.89C132.04,291.04,131.67,290.99,131.3,290.99z"/>
	</g>
	<g>
		<path d="M274.96,90.62c-0.83,0-1.53-0.64-1.59-1.48c-0.03-0.42,0.11-0.83,0.38-1.15c0.28-0.32,0.66-0.51,1.09-0.54
			c0.87-0.06,1.63,0.6,1.7,1.47c0.06,0.87-0.6,1.64-1.47,1.7C275.04,90.62,275,90.62,274.96,90.62z M274.96,88.03
			c-0.02,0-0.05,0-0.07,0c0,0,0,0,0,0c-0.27,0.02-0.51,0.14-0.69,0.34c-0.18,0.2-0.26,0.46-0.24,0.73c0.04,0.55,0.51,0.97,1.08,0.93
			c0.55-0.04,0.97-0.52,0.93-1.08c-0.02-0.27-0.14-0.51-0.34-0.69C275.44,88.11,275.2,88.03,274.96,88.03z M274.87,87.74
			L274.87,87.74L274.87,87.74z"/>
	</g>
	<g>
		<path d="M29.17,41.95c-0.9,0-1.67-0.67-1.78-1.58c-0.12-0.98,0.59-1.88,1.57-1.99c0.98-0.12,1.88,0.59,1.99,1.57
			c0.06,0.48-0.08,0.95-0.37,1.32c-0.3,0.38-0.72,0.61-1.2,0.67l0,0l0,0v0C29.31,41.95,29.24,41.95,29.17,41.95z M29.17,38.94
			c-0.05,0-0.09,0-0.14,0.01c-0.66,0.08-1.14,0.68-1.06,1.34c0.08,0.66,0.68,1.14,1.35,1.06c0,0,0,0,0,0
			c0.66-0.08,1.14-0.68,1.06-1.34C30.3,39.4,29.78,38.94,29.17,38.94z"/>
	</g>
	<g>
		<path d="M279.94,173.91c-1.02,0-2.03-0.25-2.95-0.75c-1.46-0.79-2.53-2.1-3-3.69c-0.47-1.59-0.3-3.27,0.49-4.74
			c0.79-1.46,2.1-2.53,3.69-3c1.59-0.48,3.27-0.3,4.74,0.49c1.46,0.79,2.53,2.1,3,3.69c0.47,1.59,0.3,3.27-0.49,4.74
			c-0.79,1.46-2.1,2.53-3.69,3C281.14,173.82,280.54,173.91,279.94,173.91z M279.95,162.05c-0.54,0-1.09,0.08-1.62,0.24
			c-2.98,0.89-4.68,4.03-3.79,7.01c0.43,1.44,1.4,2.63,2.72,3.35c1.32,0.72,2.85,0.87,4.29,0.44c1.44-0.43,2.63-1.4,3.35-2.72
			c0.72-1.33,0.87-2.85,0.44-4.29c-0.43-1.44-1.4-2.63-2.72-3.35C281.79,162.28,280.88,162.05,279.95,162.05z"/>
	</g>
	<g>
		<path d="M67.24,321.63c-1.2,0-2.35-0.7-2.85-1.87c-0.68-1.57,0.05-3.4,1.62-4.08c1.57-0.68,3.4,0.05,4.08,1.62
			c0.33,0.76,0.34,1.6,0.04,2.37c-0.31,0.77-0.89,1.38-1.65,1.71l0,0C68.07,321.54,67.65,321.63,67.24,321.63z M67.24,316
			c-0.33,0-0.67,0.07-1,0.21c-1.28,0.55-1.86,2.04-1.31,3.31c0.27,0.62,0.76,1.1,1.39,1.34c0.63,0.25,1.31,0.24,1.93-0.03l0,0
			c1.28-0.55,1.86-2.04,1.31-3.31C69.14,316.57,68.21,316,67.24,316z"/>
	</g>
	<g>
		<path d="M64.36,238.18c-0.16,0-0.32-0.03-0.47-0.08c-0.77-0.26-1.19-1.1-0.93-1.88c0.13-0.37,0.39-0.68,0.75-0.85
			c0.35-0.18,0.76-0.2,1.13-0.08c0.37,0.13,0.68,0.39,0.85,0.75c0.18,0.35,0.2,0.76,0.08,1.13
			C65.56,237.79,64.98,238.18,64.36,238.18z M64.36,235.8c-0.14,0-0.27,0.03-0.4,0.09c-0.21,0.11-0.38,0.29-0.45,0.52
			c-0.16,0.47,0.09,0.98,0.56,1.14c0.47,0.16,0.98-0.09,1.14-0.56l0,0c0.08-0.23,0.06-0.47-0.05-0.69
			c-0.11-0.21-0.29-0.38-0.52-0.45C64.56,235.81,64.46,235.8,64.36,235.8z"/>
	</g>
	<g>
		<path d="M108.72,107.31c-0.11,0-0.22-0.01-0.32-0.02c-1.2-0.18-2.03-1.29-1.85-2.49c0.18-1.2,1.3-2.02,2.49-1.85l0,0
			c1.2,0.18,2.03,1.29,1.85,2.49c-0.09,0.58-0.39,1.09-0.86,1.44C109.65,107.16,109.19,107.31,108.72,107.31z M108.72,103.5
			c-0.78,0-1.47,0.58-1.59,1.38c-0.13,0.88,0.48,1.7,1.36,1.83c0.87,0.13,1.7-0.48,1.83-1.36c0.13-0.88-0.48-1.7-1.36-1.83l0,0
			C108.88,103.51,108.8,103.5,108.72,103.5z"/>
	</g>
	<g>
		<path d="M325.39,235.79c-1.26,0-2.45-0.47-3.37-1.34c-0.96-0.9-1.51-2.12-1.55-3.44l0,0c-0.04-1.31,0.44-2.56,1.34-3.52
			c0.9-0.96,2.12-1.51,3.44-1.55c1.31-0.03,2.56,0.44,3.52,1.34c0.96,0.9,1.51,2.12,1.55,3.44c0.04,1.31-0.44,2.56-1.34,3.52
			c-0.9,0.96-2.12,1.51-3.44,1.55C325.49,235.79,325.44,235.79,325.39,235.79z M325.4,226.53c-0.04,0-0.09,0-0.13,0
			c-1.16,0.03-2.23,0.52-3.03,1.36c-0.79,0.84-1.21,1.95-1.18,3.1c0.03,1.16,0.52,2.23,1.36,3.03c0.84,0.79,1.94,1.23,3.1,1.18
			c1.16-0.03,2.23-0.52,3.03-1.36c0.79-0.84,1.21-1.95,1.18-3.1c-0.03-1.16-0.52-2.23-1.36-3.03
			C327.56,226.94,326.51,226.53,325.4,226.53z"/>
	</g>
	<g>
		<path d="M171.9,143.34c-1.68,0-3.37-0.6-4.71-1.81c-1.39-1.26-2.21-2.99-2.31-4.86c-0.09-1.88,0.55-3.68,1.81-5.07
			c1.26-1.39,2.99-2.21,4.86-2.31c1.88-0.09,3.68,0.55,5.07,1.81c2.88,2.6,3.1,7.06,0.5,9.93l0,0
			C175.73,142.56,173.82,143.34,171.9,143.34z M171.91,129.86c-0.11,0-0.22,0-0.33,0.01c-1.72,0.09-3.3,0.84-4.46,2.12
			c-1.16,1.28-1.75,2.93-1.66,4.65c0.09,1.72,0.84,3.31,2.12,4.46c2.64,2.39,6.73,2.18,9.11-0.46l0,0c1.16-1.28,1.74-2.93,1.66-4.65
			c-0.09-1.72-0.84-3.31-2.12-4.46C175.03,130.45,173.51,129.86,171.91,129.86z M176.9,140.83L176.9,140.83L176.9,140.83z"/>
	</g>
	<g>
		<path d="M31.88,141.21c-0.07,0-0.14,0-0.21-0.01c-0.84-0.06-1.61-0.44-2.17-1.07c-0.56-0.63-0.83-1.45-0.78-2.29l0,0
			c0.11-1.74,1.62-3.06,3.36-2.94c1.74,0.11,3.06,1.62,2.94,3.36c-0.06,0.84-0.44,1.61-1.07,2.17
			C33.38,140.94,32.64,141.21,31.88,141.21z M29.3,137.89c-0.05,0.69,0.18,1.35,0.63,1.87c0.45,0.52,1.08,0.83,1.77,0.87
			c0.68,0.04,1.35-0.18,1.87-0.63c0.52-0.45,0.83-1.08,0.87-1.77c0.09-1.42-0.98-2.65-2.4-2.74
			C30.63,135.38,29.4,136.47,29.3,137.89L29.3,137.89z"/>
	</g>
	<g>
		<path d="M45.06,9.61c-0.95,0-1.91-0.34-2.67-1.02c-1.64-1.47-1.77-4-0.3-5.64h0c0.71-0.79,1.69-1.26,2.76-1.32
			c1.06-0.05,2.09,0.31,2.88,1.02c0.79,0.71,1.26,1.69,1.31,2.76c0.06,1.06-0.31,2.09-1.02,2.88C47.24,9.16,46.16,9.61,45.06,9.61z
			 M42.53,3.34c-1.26,1.4-1.14,3.56,0.25,4.81c1.4,1.26,3.56,1.14,4.81-0.25c0.61-0.68,0.92-1.55,0.87-2.46
			c-0.05-0.91-0.45-1.75-1.12-2.35c-0.68-0.61-1.54-0.92-2.46-0.87C43.98,2.26,43.14,2.66,42.53,3.34L42.53,3.34z"/>
	</g>
	<g>
		<path d="M184.18,274.57c-0.48,0-0.96-0.22-1.28-0.63c-0.54-0.7-0.4-1.71,0.31-2.25c0.34-0.26,0.76-0.37,1.19-0.31
			c0.42,0.06,0.8,0.28,1.06,0.62c0.26,0.34,0.37,0.76,0.31,1.19c-0.06,0.42-0.28,0.8-0.62,1.06
			C184.85,274.46,184.51,274.57,184.18,274.57z M184.17,271.95c-0.22,0-0.44,0.07-0.61,0.21c-0.45,0.34-0.54,0.98-0.2,1.43
			c0.34,0.45,0.98,0.54,1.43,0.19c0.45-0.34,0.54-0.98,0.19-1.43l0,0c-0.16-0.22-0.4-0.36-0.67-0.39
			C184.26,271.95,184.22,271.95,184.17,271.95z"/>
	</g>
	<g>
		<path d="M113.37,75.03c-0.35,0-0.7-0.04-1.05-0.13c-2.28-0.57-3.66-2.89-3.08-5.17c0.28-1.1,0.97-2.03,1.94-2.61
			c0.98-0.58,2.12-0.75,3.22-0.47c1.1,0.28,2.03,0.97,2.61,1.94c0.58,0.98,0.75,2.12,0.47,3.22c-0.28,1.1-0.97,2.03-1.94,2.61
			C114.88,74.82,114.13,75.03,113.37,75.03z M113.37,67.1c-1.64,0-3.14,1.11-3.56,2.77c-0.5,1.96,0.7,3.96,2.66,4.46
			c1.96,0.5,3.96-0.7,4.46-2.66c0.5-1.96-0.7-3.96-2.66-4.46C113.97,67.13,113.66,67.1,113.37,67.1z"/>
	</g>
	<g>
		<path d="M152.73,300.95c-1.06,0-2.06-0.41-2.82-1.15c-0.77-0.75-1.2-1.76-1.22-2.84c-0.01-1.08,0.39-2.1,1.15-2.87
			c0.75-0.77,1.76-1.2,2.84-1.22c0.02,0,0.03,0,0.05,0c1.06,0,2.06,0.41,2.82,1.15c0.77,0.75,1.21,1.76,1.22,2.84
			c0.01,1.08-0.39,2.1-1.15,2.87c-0.75,0.77-1.76,1.21-2.84,1.22l0,0C152.77,300.95,152.75,300.95,152.73,300.95z M152.74,293.45
			c-0.01,0-0.03,0-0.05,0c-1.9,0.02-3.43,1.59-3.41,3.5c0.01,0.92,0.38,1.79,1.04,2.43c0.65,0.63,1.5,0.98,2.41,0.98
			c0.01,0,0.03,0,0.05,0l0,0c0.92-0.01,1.79-0.38,2.43-1.04c0.64-0.66,0.99-1.53,0.98-2.46c-0.01-0.92-0.38-1.79-1.04-2.43
			C154.5,293.8,153.64,293.45,152.74,293.45z"/>
	</g>
	<g>
		<path d="M47.81,81.67c-0.22,0-0.45-0.04-0.66-0.12c-0.98-0.37-1.47-1.46-1.11-2.44c0.18-0.47,0.53-0.85,0.99-1.06
			c0.46-0.21,0.97-0.23,1.45-0.05c0.47,0.18,0.85,0.53,1.06,0.99c0.21,0.46,0.23,0.97,0.05,1.45C49.3,81.2,48.58,81.67,47.81,81.67z
			 M47.81,78.46c-0.18,0-0.37,0.04-0.54,0.12c-0.32,0.14-0.56,0.4-0.69,0.73c-0.25,0.68,0.09,1.43,0.76,1.69
			c0.68,0.26,1.43-0.09,1.69-0.76c0.12-0.33,0.11-0.68-0.03-1c-0.14-0.32-0.4-0.56-0.73-0.69C48.13,78.49,47.97,78.46,47.81,78.46z"
			/>
	</g>
	<g>
		<path d="M67.05,95.31c-1.25,0-2.38-0.86-2.68-2.12c-0.35-1.48,0.57-2.96,2.05-3.31c1.48-0.35,2.96,0.57,3.31,2.05
			c0.35,1.48-0.57,2.96-2.05,3.31C67.47,95.28,67.26,95.31,67.05,95.31z M67.05,90.39c-0.16,0-0.33,0.02-0.5,0.06
			c-1.16,0.27-1.89,1.44-1.61,2.61c0.27,1.16,1.45,1.89,2.61,1.61c1.16-0.27,1.89-1.44,1.61-2.61
			C68.93,91.06,68.04,90.39,67.05,90.39z"/>
	</g>
	<g>
		<path d="M300.22,168.37c-0.46,0-0.92-0.16-1.29-0.5c0,0,0,0,0,0c-0.78-0.71-0.84-1.92-0.13-2.7c0.34-0.38,0.81-0.6,1.33-0.62
			c0.5-0.03,1,0.15,1.38,0.5c0.38,0.34,0.6,0.81,0.62,1.32c0.02,0.51-0.15,1-0.5,1.38C301.26,168.16,300.74,168.37,300.22,168.37z
			 M299.33,167.44c0.54,0.49,1.38,0.45,1.88-0.09c0.24-0.26,0.36-0.6,0.35-0.96c-0.02-0.35-0.17-0.68-0.43-0.92
			c-0.26-0.24-0.6-0.37-0.96-0.35c-0.35,0.02-0.68,0.17-0.92,0.43C298.75,166.11,298.78,166.95,299.33,167.44L299.33,167.44z"/>
	</g>
	<g>
		<path d="M29.78,96.67c-0.14,0-0.28-0.01-0.42-0.04c-1.13-0.23-1.86-1.34-1.63-2.47c0.11-0.55,0.43-1.02,0.9-1.33
			c0.47-0.31,1.03-0.42,1.58-0.3c0.55,0.11,1.02,0.43,1.33,0.9c0.31,0.47,0.42,1.03,0.3,1.57l0,0c-0.11,0.55-0.43,1.02-0.9,1.33
			C30.58,96.55,30.19,96.67,29.78,96.67z M29.77,93.06c-0.29,0-0.58,0.09-0.83,0.25c-0.34,0.22-0.57,0.56-0.65,0.96
			c-0.17,0.82,0.36,1.62,1.18,1.79c0.4,0.08,0.8,0,1.14-0.22c0.34-0.22,0.57-0.56,0.65-0.96l0,0c0.08-0.4,0-0.8-0.22-1.14
			c-0.22-0.34-0.56-0.57-0.96-0.65C29.98,93.07,29.87,93.06,29.77,93.06z"/>
	</g>
	<g>
		<path d="M30.56,118.05c-0.23,0-0.46-0.04-0.68-0.11c-0.56-0.18-1.01-0.57-1.27-1.09c-0.27-0.52-0.31-1.11-0.13-1.67
			c0.18-0.56,0.57-1.01,1.09-1.27l0,0c1.08-0.55,2.4-0.12,2.94,0.95c0.27,0.52,0.31,1.11,0.13,1.67c-0.18,0.56-0.57,1.01-1.09,1.27
			C31.24,117.97,30.9,118.05,30.56,118.05z M29.83,114.43c-0.38,0.2-0.67,0.53-0.8,0.93c-0.13,0.41-0.1,0.84,0.1,1.22
			c0.19,0.38,0.53,0.67,0.93,0.8c0.41,0.13,0.84,0.1,1.22-0.1c0.38-0.19,0.67-0.53,0.8-0.93c0.13-0.41,0.1-0.84-0.1-1.22
			C31.59,114.34,30.62,114.03,29.83,114.43L29.83,114.43z"/>
	</g>
	<g>
		<path d="M239.36,71.12c-0.8,0-1.61-0.29-2.24-0.89l0,0c-0.63-0.6-0.99-1.41-1.02-2.28c-0.02-0.87,0.29-1.7,0.89-2.33
			c0.6-0.63,1.41-0.99,2.28-1.02c0.87-0.01,1.7,0.29,2.33,0.89c1.31,1.24,1.36,3.3,0.13,4.61
			C241.09,70.77,240.23,71.12,239.36,71.12z M237.52,69.8c1.07,1.01,2.77,0.97,3.79-0.11c1.01-1.07,0.97-2.77-0.11-3.79
			c-0.52-0.49-1.18-0.75-1.91-0.73c-0.72,0.02-1.38,0.32-1.87,0.84c-0.49,0.52-0.75,1.2-0.73,1.91
			C236.7,68.65,237,69.31,237.52,69.8L237.52,69.8z"/>
	</g>
	<g>
		<path d="M192.69,241.7c-0.31,0-0.63-0.02-0.94-0.08c-1.56-0.25-2.93-1.09-3.86-2.38c-0.93-1.28-1.3-2.84-1.05-4.4
			c0.52-3.22,3.56-5.42,6.78-4.9c1.56,0.25,2.93,1.09,3.86,2.37c0.93,1.28,1.3,2.84,1.05,4.4
			C198.06,239.62,195.54,241.7,192.69,241.7z M192.67,230.44c-1.11,0-2.19,0.35-3.11,1.01c-1.15,0.83-1.91,2.07-2.14,3.48l0,0
			c-0.47,2.9,1.52,5.65,4.42,6.11c2.91,0.47,5.65-1.52,6.11-4.42c0.23-1.41-0.11-2.82-0.94-3.97c-0.83-1.15-2.07-1.91-3.47-2.14
			C193.24,230.47,192.96,230.44,192.67,230.44z M187.13,234.89L187.13,234.89L187.13,234.89z"/>
	</g>
	<g>
		<path d="M238.12,187c-1.82,0-3.6-0.9-4.65-2.54c-1.64-2.56-0.88-5.98,1.68-7.61c2.56-1.64,5.98-0.88,7.61,1.68
			c0.79,1.24,1.05,2.72,0.74,4.15c-0.32,1.44-1.18,2.67-2.42,3.46C240.16,186.72,239.13,187,238.12,187z M238.1,176.56
			c-0.93,0-1.84,0.26-2.64,0.78c-2.29,1.46-2.96,4.52-1.5,6.81c1.46,2.29,4.52,2.96,6.81,1.5c1.11-0.71,1.88-1.81,2.16-3.09
			c0.28-1.29,0.05-2.6-0.66-3.71c-0.71-1.11-1.81-1.88-3.09-2.16C238.82,176.6,238.46,176.56,238.1,176.56z"/>
	</g>
	<g>
		<path d="M292.72,96.31c-0.11,0-0.21,0-0.32-0.01c-1.39-0.08-2.67-0.71-3.59-1.75c-0.93-1.04-1.39-2.39-1.3-3.78
			c0.08-1.39,0.71-2.67,1.75-3.6c1.04-0.93,2.38-1.39,3.78-1.3c1.39,0.08,2.67,0.71,3.59,1.75c0.93,1.04,1.39,2.39,1.31,3.78
			c-0.08,1.39-0.71,2.67-1.75,3.6C295.22,95.85,294,96.31,292.72,96.31z M292.71,86.44c-1.13,0-2.21,0.41-3.07,1.17
			c-0.93,0.82-1.48,1.96-1.55,3.19c-0.07,1.24,0.34,2.43,1.16,3.36c0.82,0.93,1.96,1.48,3.19,1.55c1.23,0.07,2.43-0.34,3.36-1.16
			c0.93-0.82,1.48-1.96,1.55-3.19l0,0c0.07-1.24-0.34-2.43-1.16-3.36c-0.82-0.93-1.96-1.48-3.19-1.55
			C292.9,86.44,292.8,86.44,292.71,86.44z"/>
	</g>
	<g>
		<path d="M163.36,24.81c-1.3,0-2.53-0.48-3.5-1.36c-2.12-1.93-2.28-5.23-0.35-7.36l0,0c0.94-1.03,2.22-1.63,3.61-1.7
			c1.39-0.07,2.72,0.41,3.75,1.35c2.12,1.93,2.28,5.23,0.35,7.36c-0.94,1.03-2.22,1.63-3.61,1.7
			C163.53,24.81,163.44,24.81,163.36,24.81z M159.94,16.49c-1.72,1.89-1.58,4.82,0.31,6.53c0.91,0.83,2.1,1.27,3.33,1.2
			c1.23-0.06,2.37-0.59,3.2-1.51c1.72-1.89,1.58-4.82-0.31-6.53c-0.91-0.83-2.1-1.26-3.33-1.2
			C161.91,15.04,160.78,15.58,159.94,16.49L159.94,16.49z"/>
	</g>
	<g>
		<path d="M228.66,159.83c-1.03,0-2.03-0.33-2.86-0.96c-1.02-0.77-1.68-1.89-1.86-3.15c-0.18-1.26,0.15-2.52,0.91-3.54
			c0.77-1.02,1.89-1.68,3.15-1.86c1.26-0.18,2.52,0.15,3.54,0.91c1.02,0.77,1.68,1.89,1.86,3.15c0.18,1.26-0.15,2.52-0.91,3.54
			c-0.77,1.02-1.89,1.68-3.15,1.86C229.11,159.82,228.88,159.83,228.66,159.83z M228.68,150.86c-0.2,0-0.4,0.01-0.6,0.04
			c-1.11,0.16-2.09,0.74-2.77,1.63c-0.67,0.9-0.96,2-0.8,3.11c0.16,1.11,0.74,2.09,1.63,2.77c0.9,0.67,2,0.96,3.11,0.8
			c1.11-0.16,2.09-0.74,2.77-1.63c0.67-0.9,0.96-2,0.8-3.11c-0.16-1.11-0.74-2.09-1.63-2.77
			C230.46,151.15,229.58,150.86,228.68,150.86z"/>
	</g>
	<g>
		<path d="M252.13,124.59c-0.81,0-1.61-0.19-2.34-0.58c-1.2-0.63-2.09-1.68-2.49-2.98c-0.41-1.29-0.28-2.66,0.34-3.87
			c0.63-1.2,1.68-2.09,2.98-2.49c2.67-0.84,5.52,0.65,6.36,3.32c0.41,1.29,0.28,2.67-0.34,3.87c-0.63,1.2-1.68,2.09-2.98,2.49
			C253.16,124.51,252.64,124.59,252.13,124.59z M252.13,115.03c-0.44,0-0.9,0.07-1.34,0.21c-1.14,0.36-2.08,1.14-2.63,2.2
			c-0.55,1.06-0.66,2.28-0.3,3.42c0.36,1.14,1.14,2.08,2.2,2.63c1.06,0.55,2.28,0.66,3.42,0.3c1.14-0.36,2.08-1.14,2.63-2.2
			c0.55-1.06,0.66-2.28,0.3-3.42C255.82,116.26,254.04,115.03,252.13,115.03z"/>
	</g>
	<g>
		<path d="M146.6,184.15c-0.2,0-0.4-0.03-0.6-0.09l0,0c-0.5-0.16-0.91-0.51-1.15-0.97c-0.24-0.47-0.29-1-0.13-1.5
			c0.16-0.5,0.51-0.91,0.97-1.15c0.47-0.24,1-0.29,1.5-0.13c0.5,0.16,0.91,0.51,1.15,0.97c0.24,0.47,0.29,1,0.13,1.5
			c-0.16,0.5-0.51,0.91-0.97,1.15C147.22,184.07,146.91,184.15,146.6,184.15z M146.6,180.78c-0.22,0-0.44,0.05-0.64,0.16
			c-0.33,0.17-0.57,0.46-0.69,0.81c-0.11,0.35-0.08,0.73,0.09,1.06c0.17,0.33,0.46,0.57,0.81,0.69l0,0
			c0.35,0.11,0.73,0.08,1.06-0.09c0.33-0.17,0.57-0.46,0.69-0.81c0.11-0.35,0.08-0.73-0.09-1.06c-0.17-0.33-0.46-0.57-0.81-0.69
			C146.88,180.8,146.74,180.78,146.6,180.78z"/>
	</g>
	<g>
		<path d="M229.96,115.96c-0.77,0-1.54-0.21-2.23-0.65c-1.94-1.23-2.52-3.82-1.28-5.76c0.6-0.94,1.53-1.59,2.61-1.83
			c1.09-0.24,2.21-0.05,3.15,0.55c0.94,0.6,1.59,1.53,1.83,2.61c0.24,1.09,0.05,2.21-0.55,3.15
			C232.69,115.28,231.34,115.96,229.96,115.96z M229.97,108.2c-0.26,0-0.53,0.03-0.79,0.09c-0.94,0.21-1.74,0.77-2.25,1.58
			c-0.51,0.81-0.68,1.77-0.47,2.71s0.77,1.73,1.58,2.25c1.67,1.06,3.89,0.57,4.96-1.1c0.51-0.81,0.68-1.77,0.47-2.71
			c-0.21-0.94-0.77-1.73-1.58-2.25C231.31,108.39,230.65,108.2,229.97,108.2z"/>
	</g>
	<g>
		<path d="M153.92,229.21c-1.22,0-2.39-0.67-2.98-1.82l0,0c-0.4-0.79-0.47-1.7-0.2-2.54c0.28-0.85,0.86-1.54,1.66-1.94
			c0.79-0.4,1.7-0.47,2.54-0.2c0.85,0.28,1.54,0.86,1.94,1.66c0.83,1.64,0.18,3.65-1.46,4.48
			C154.94,229.1,154.43,229.21,153.92,229.21z M153.91,223.13c-0.43,0-0.85,0.1-1.25,0.3c-0.65,0.33-1.14,0.9-1.37,1.6
			c-0.23,0.7-0.17,1.44,0.16,2.1l0,0c0.33,0.65,0.9,1.14,1.6,1.37c0.7,0.23,1.45,0.17,2.1-0.16c1.35-0.69,1.89-2.35,1.2-3.7
			c-0.33-0.65-0.9-1.14-1.6-1.37C154.48,223.17,154.2,223.13,153.91,223.13z"/>
	</g>
	<g>
		<path d="M224.47,55.54c-1.13,0-2.07-0.89-2.13-2.03l0,0c-0.03-0.57,0.17-1.11,0.55-1.54c0.38-0.42,0.91-0.67,1.47-0.7
			c0.57-0.03,1.11,0.17,1.53,0.55c0.42,0.38,0.67,0.91,0.7,1.47c0.06,1.17-0.85,2.17-2.02,2.23
			C224.54,55.54,224.51,55.54,224.47,55.54z M222.92,53.49c0.04,0.85,0.76,1.5,1.62,1.47c0.85-0.04,1.51-0.77,1.47-1.62
			c-0.02-0.41-0.2-0.79-0.51-1.07c-0.31-0.28-0.7-0.41-1.11-0.4c-0.41,0.02-0.79,0.2-1.07,0.51
			C223.05,52.68,222.9,53.08,222.92,53.49L222.92,53.49z"/>
	</g>
	<g>
		<path d="M304.43,152.03c-1.58,0-3.14-0.74-4.13-2.12c-1.62-2.27-1.09-5.44,1.18-7.06c2.27-1.62,5.44-1.09,7.06,1.18
			c1.62,2.27,1.09,5.44-1.18,7.06C306.47,151.72,305.44,152.03,304.43,152.03z M304.42,142.49c-0.9,0-1.81,0.27-2.59,0.83
			c-2.01,1.43-2.48,4.23-1.05,6.24c1.43,2.01,4.23,2.48,6.24,1.05c0.97-0.69,1.62-1.73,1.82-2.91c0.2-1.18-0.08-2.36-0.77-3.34
			C307.19,143.15,305.81,142.49,304.42,142.49z"/>
	</g>
	<g>
		<path d="M85.72,205.38c-0.13,0-0.27-0.02-0.4-0.05c-0.87-0.22-1.39-1.11-1.17-1.97c0.11-0.42,0.37-0.77,0.74-0.99
			c0.37-0.22,0.81-0.28,1.23-0.18l0,0c0.87,0.22,1.39,1.11,1.17,1.97c-0.11,0.42-0.37,0.77-0.74,0.99
			C86.29,205.3,86,205.38,85.72,205.38z M85.71,202.71c-0.18,0-0.37,0.05-0.53,0.15c-0.24,0.14-0.41,0.37-0.48,0.64
			c-0.14,0.55,0.19,1.12,0.75,1.26c0.56,0.14,1.12-0.19,1.26-0.75c0.14-0.55-0.19-1.12-0.75-1.26l0,0
			C85.89,202.73,85.8,202.71,85.71,202.71z"/>
	</g>
	<g>
		<path d="M236.61,240.35c-0.81,0-1.62-0.13-2.41-0.39c-1.93-0.64-3.49-2-4.4-3.81c-0.91-1.82-1.06-3.88-0.42-5.81
			c0.64-1.93,2-3.49,3.81-4.4c1.82-0.91,3.88-1.06,5.81-0.42c1.93,0.64,3.49,2,4.4,3.81c1.88,3.75,0.35,8.33-3.4,10.21l0,0
			C238.94,240.08,237.78,240.35,236.61,240.35z M236.6,225.71c-1.08,0-2.15,0.25-3.14,0.75c-1.68,0.84-2.93,2.28-3.52,4.06
			c-0.59,1.78-0.46,3.69,0.38,5.36c0.84,1.68,2.28,2.93,4.07,3.52c1.78,0.59,3.69,0.46,5.36-0.38l0,0c1.68-0.84,2.93-2.28,3.52-4.07
			c0.59-1.78,0.46-3.69-0.38-5.36c-0.84-1.68-2.28-2.93-4.06-3.52C238.1,225.83,237.35,225.71,236.6,225.71z"/>
	</g>
	<g>
		<path d="M236.57,93.26c-1.18,0-2.25-0.83-2.49-2.04l0,0c-0.28-1.37,0.62-2.72,1.99-2.99c0.67-0.13,1.34,0,1.91,0.38
			c0.56,0.38,0.95,0.95,1.08,1.61c0.13,0.67,0,1.34-0.38,1.91c-0.38,0.56-0.95,0.95-1.61,1.08
			C236.9,93.24,236.73,93.26,236.57,93.26z M234.65,91.11c0.1,0.51,0.4,0.95,0.84,1.24c0.43,0.29,0.96,0.39,1.47,0.29
			c0.51-0.1,0.95-0.4,1.24-0.83c0.29-0.44,0.39-0.96,0.29-1.47c-0.1-0.51-0.4-0.95-0.84-1.24c-0.44-0.29-0.96-0.39-1.47-0.29
			C235.12,89.01,234.43,90.05,234.65,91.11L234.65,91.11z"/>
	</g>
	<g>
		<path d="M220.64,10.57c-0.41,0-0.83-0.06-1.24-0.17c-2.41-0.68-3.82-3.2-3.13-5.61c0.68-2.41,3.2-3.81,5.61-3.13
			c2.41,0.68,3.82,3.2,3.13,5.61l0,0C224.45,9.26,222.62,10.57,220.64,10.57z M220.63,2.06c-0.67,0-1.33,0.17-1.92,0.5
			c-0.92,0.52-1.59,1.36-1.88,2.38c-0.6,2.1,0.63,4.3,2.73,4.89c2.1,0.6,4.3-0.63,4.89-2.73l0,0c0.6-2.1-0.63-4.3-2.73-4.89
			C221.36,2.11,221,2.06,220.63,2.06z M224.73,7.18L224.73,7.18L224.73,7.18z"/>
	</g>
	<g>
		<path d="M47.59,215.03c-0.4,0-0.8-0.04-1.21-0.12c-3.35-0.67-5.54-3.93-4.88-7.29c0.67-3.35,3.94-5.54,7.29-4.88
			c3.35,0.67,5.54,3.93,4.88,7.29C53.08,212.98,50.49,215.03,47.59,215.03z M47.58,203.21c-2.63,0-4.98,1.85-5.51,4.53
			c-0.6,3.04,1.38,6,4.42,6.6c3.03,0.6,6-1.38,6.6-4.42c0.6-3.04-1.38-6-4.42-6.6C48.31,203.24,47.94,203.21,47.58,203.21z"/>
	</g>
	<g>
		<path d="M177.92,178.21c-1.42,0-2.72-0.95-3.11-2.39c-0.45-1.71,0.57-3.47,2.28-3.93c0.83-0.22,1.69-0.1,2.44,0.33
			c0.74,0.43,1.27,1.13,1.49,1.95c0.22,0.83,0.1,1.69-0.33,2.44c-0.43,0.74-1.13,1.27-1.95,1.49l0,0
			C178.47,178.18,178.19,178.21,177.92,178.21z M177.92,172.37c-0.23,0-0.45,0.03-0.68,0.09c-1.4,0.37-2.24,1.81-1.87,3.22
			c0.37,1.4,1.81,2.24,3.22,1.87l0,0c0.68-0.18,1.25-0.61,1.6-1.22c0.35-0.61,0.45-1.32,0.27-1.99c-0.18-0.68-0.61-1.25-1.22-1.6
			C178.83,172.49,178.38,172.37,177.92,172.37z"/>
	</g>
	<g>
		<path d="M311.07,33.59c-1.22,0-2.45-0.35-3.54-1.07c-1.43-0.95-2.4-2.4-2.73-4.08c-0.34-1.68,0-3.39,0.95-4.81
			c0.95-1.42,2.4-2.39,4.08-2.73c1.68-0.34,3.39,0,4.81,0.95l0,0c1.43,0.95,2.4,2.4,2.73,4.08c0.34,1.68,0,3.39-0.95,4.81
			C315.19,32.59,313.15,33.59,311.07,33.59z M311.09,21.36c-1.89,0-3.74,0.91-4.86,2.59c-0.86,1.3-1.17,2.85-0.86,4.38
			c0.31,1.53,1.19,2.84,2.48,3.71c2.67,1.78,6.3,1.06,8.08-1.62c0.86-1.3,1.17-2.85,0.86-4.38c-0.31-1.53-1.19-2.84-2.48-3.71l0,0
			C313.33,21.68,312.2,21.36,311.09,21.36z"/>
	</g>
	<g>
		<path d="M178.53,6.31c-0.16,0-0.31-0.02-0.47-0.05c-1.31-0.26-2.16-1.54-1.89-2.84l0,0c0.26-1.31,1.54-2.16,2.84-1.89
			c1.31,0.26,2.16,1.54,1.89,2.84C180.67,5.51,179.66,6.31,178.53,6.31z M176.73,3.53c-0.2,0.99,0.45,1.96,1.44,2.16
			c0.99,0.2,1.96-0.45,2.16-1.44c0.2-0.99-0.45-1.96-1.44-2.16C177.9,1.9,176.93,2.54,176.73,3.53L176.73,3.53z"/>
	</g>
	<g>
		<path d="M257.35,85.84c-0.65,0-1.3-0.13-1.91-0.38c-1.23-0.51-2.19-1.47-2.69-2.7c-0.51-1.23-0.51-2.59,0-3.82
			c0.51-1.23,1.47-2.19,2.7-2.7c2.54-1.05,5.46,0.17,6.51,2.71c0.51,1.23,0.51,2.59,0,3.82c-0.51,1.23-1.47,2.19-2.7,2.69
			C258.64,85.72,257.99,85.84,257.35,85.84z M257.34,76.45c-0.56,0-1.13,0.11-1.67,0.33c-1.09,0.45-1.93,1.29-2.39,2.38
			c-0.45,1.09-0.45,2.28,0,3.37c0.93,2.24,3.51,3.32,5.75,2.39c1.09-0.45,1.93-1.29,2.39-2.38s0.45-2.28,0-3.37
			C260.72,77.48,259.07,76.45,257.34,76.45z"/>
	</g>
	<g>
		<path d="M323.37,53.95c-0.38,0-0.75-0.09-1.1-0.26c-0.61-0.29-1.06-0.81-1.28-1.45c-0.22-0.64-0.18-1.32,0.12-1.93
			c0.29-0.61,0.81-1.06,1.45-1.28c0.64-0.22,1.32-0.18,1.93,0.12c0.61,0.29,1.06,0.81,1.28,1.45c0.22,0.64,0.18,1.32-0.12,1.93
			c-0.29,0.61-0.81,1.06-1.45,1.28C323.93,53.91,323.65,53.95,323.37,53.95z M323.38,49.49c-0.21,0-0.43,0.04-0.63,0.11
			c-0.49,0.17-0.88,0.52-1.11,0.99c-0.47,0.96-0.07,2.13,0.9,2.59c0.96,0.47,2.13,0.07,2.59-0.9c0.23-0.47,0.26-0.99,0.09-1.48
			c-0.17-0.49-0.52-0.88-0.99-1.11C323.95,49.55,323.67,49.49,323.38,49.49z"/>
	</g>
	<g>
		<path d="M301.13,229.57c-0.21,0-0.42-0.01-0.63-0.03c-2.04-0.17-3.89-1.12-5.22-2.68c-1.33-1.56-1.96-3.54-1.8-5.58
			c0.34-4.21,4.04-7.35,8.26-7.02c4.21,0.34,7.36,4.05,7.02,8.26C308.44,226.53,305.08,229.57,301.13,229.57z M301.12,214.83
			c-3.65,0-6.75,2.81-7.05,6.51c-0.15,1.88,0.44,3.72,1.66,5.16c1.22,1.44,2.94,2.32,4.82,2.47h0c3.9,0.31,7.31-2.59,7.63-6.48
			c0.32-3.89-2.59-7.31-6.48-7.63C301.51,214.84,301.32,214.83,301.12,214.83z"/>
	</g>
	<g>
		<path d="M314.13,307.84c-0.4,0-0.8-0.12-1.14-0.38c-0.85-0.63-1.02-1.83-0.39-2.68c0.63-0.85,1.84-1.02,2.68-0.39
			c0.85,0.63,1.02,1.83,0.39,2.68l0,0C315.29,307.57,314.72,307.84,314.13,307.84z M314.14,304.59c-0.41,0-0.81,0.19-1.07,0.54
			c-0.44,0.59-0.32,1.43,0.27,1.87c0.59,0.44,1.43,0.32,1.87-0.27l0,0c0.44-0.59,0.32-1.43-0.27-1.87
			C314.69,304.67,314.41,304.59,314.14,304.59z M315.44,306.89L315.44,306.89L315.44,306.89z"/>
	</g>
	<g>
		<path d="M108.98,287.68c-0.43,0-0.86-0.1-1.26-0.32c-0.63-0.34-1.09-0.9-1.3-1.59c-0.21-0.69-0.13-1.41,0.2-2.04
			c0.34-0.63,0.9-1.09,1.59-1.3c0.69-0.21,1.41-0.13,2.04,0.2l0,0c1.3,0.7,1.79,2.33,1.1,3.63
			C110.86,287.17,109.94,287.68,108.98,287.68z M108.99,282.9c-0.2,0-0.41,0.03-0.61,0.09c-0.54,0.16-0.98,0.52-1.24,1.02
			c-0.26,0.49-0.32,1.06-0.16,1.6c0.16,0.54,0.52,0.98,1.02,1.24c1.02,0.55,2.29,0.16,2.84-0.86c0.55-1.02,0.16-2.29-0.86-2.84l0,0
			C109.67,282.99,109.33,282.9,108.99,282.9z"/>
	</g>
	<g>
		<path d="M48,60.25c-2.13,0-4.19-1.19-5.19-3.23l0,0c-1.4-2.86-0.22-6.32,2.64-7.72c2.86-1.4,6.32-0.22,7.72,2.64
			c1.4,2.86,0.22,6.32-2.64,7.72C49.72,60.06,48.86,60.25,48,60.25z M43.34,56.76c1.26,2.57,4.37,3.64,6.94,2.37
			c2.57-1.26,3.63-4.38,2.37-6.94c-0.61-1.24-1.67-2.18-2.98-2.62c-1.31-0.45-2.72-0.36-3.96,0.25
			C43.14,51.08,42.08,54.19,43.34,56.76L43.34,56.76z"/>
	</g>
	<g>
		<path d="M30.67,324.21c-0.1,0-0.21-0.01-0.31-0.02c-0.55-0.08-1.04-0.37-1.37-0.82c-0.33-0.45-0.47-1-0.39-1.55l0,0
			c0.08-0.55,0.37-1.04,0.82-1.37c0.45-0.33,1-0.47,1.55-0.39c0.55,0.08,1.04,0.37,1.37,0.82c0.33,0.45,0.47,1,0.39,1.55
			c-0.08,0.55-0.37,1.04-0.82,1.37C31.54,324.07,31.11,324.21,30.67,324.21z M29.17,321.91L29.17,321.91
			c-0.06,0.4,0.04,0.79,0.28,1.12c0.24,0.32,0.59,0.53,0.99,0.59c0.4,0.06,0.79-0.04,1.12-0.28c0.32-0.24,0.53-0.59,0.59-0.99
			c0.06-0.4-0.04-0.79-0.28-1.12c-0.24-0.32-0.59-0.53-0.99-0.59c-0.4-0.06-0.79,0.04-1.12,0.28
			C29.44,321.16,29.23,321.51,29.17,321.91z"/>
	</g>
	<g>
		<path d="M85.25,156.83c-1.63,0-3.2-0.54-4.49-1.57c-1.51-1.2-2.47-2.92-2.69-4.85c-0.45-3.97,2.4-7.56,6.37-8.02
			c3.96-0.45,7.56,2.4,8.02,6.37c0.46,3.97-2.4,7.56-6.37,8.02C85.81,156.81,85.53,156.83,85.25,156.83z M85.28,142.93
			c-0.26,0-0.51,0.01-0.77,0.04c-1.77,0.2-3.35,1.08-4.45,2.47c-1.11,1.39-1.6,3.13-1.4,4.9c0.2,1.77,1.08,3.35,2.47,4.45
			c1.39,1.11,3.13,1.6,4.9,1.4c1.77-0.2,3.35-1.08,4.45-2.47c1.11-1.39,1.6-3.13,1.4-4.9c-0.2-1.77-1.08-3.35-2.47-4.45
			C88.22,143.43,86.77,142.93,85.28,142.93z"/>
	</g>
	<g>
		<path d="M212.35,226.67c-0.74,0-1.49-0.11-2.23-0.34c-3.92-1.23-6.11-5.42-4.87-9.34c0.6-1.9,1.9-3.45,3.66-4.37
			c1.76-0.92,3.78-1.1,5.68-0.5l0,0c3.92,1.23,6.11,5.42,4.88,9.34C218.47,224.63,215.52,226.67,212.35,226.67z M212.36,212.35
			c-2.92,0-5.64,1.88-6.56,4.81c-1.13,3.61,0.88,7.48,4.49,8.61c1.75,0.55,3.61,0.38,5.24-0.46c1.63-0.85,2.83-2.28,3.38-4.03
			c1.13-3.61-0.88-7.48-4.49-8.61h0C213.73,212.45,213.04,212.35,212.36,212.35z"/>
	</g>
	<g>
		<path d="M345.33,156.25c-0.75,0-1.48-0.38-1.9-1.06c-0.31-0.51-0.4-1.1-0.26-1.68c0.14-0.58,0.5-1.07,1-1.38
			c1.05-0.64,2.42-0.31,3.06,0.74l0,0c0.64,1.05,0.31,2.42-0.74,3.06C346.12,156.14,345.72,156.25,345.33,156.25z M345.32,152.38
			c-0.29,0-0.59,0.08-0.85,0.24c-0.37,0.23-0.64,0.59-0.74,1.01c-0.1,0.43-0.03,0.87,0.2,1.24c0.47,0.77,1.48,1.02,2.25,0.54
			c0.37-0.23,0.64-0.59,0.74-1.01c0.1-0.43,0.03-0.87-0.19-1.24l0,0C346.42,152.66,345.88,152.38,345.32,152.38z"/>
	</g>
	<g>
		<path d="M90.58,306.51c-0.85,0-1.69-0.22-2.45-0.64c-1.18-0.66-2.03-1.73-2.4-3.03l0,0c-0.76-2.68,0.79-5.48,3.47-6.25
			c2.68-0.77,5.48,0.79,6.24,3.47c0.37,1.3,0.21,2.66-0.44,3.84c-0.66,1.18-1.73,2.03-3.03,2.4
			C91.52,306.45,91.05,306.51,90.58,306.51z M86.29,302.68c0.33,1.15,1.08,2.1,2.13,2.68c1.04,0.58,2.25,0.72,3.4,0.39
			c1.15-0.33,2.1-1.08,2.68-2.13c0.58-1.04,0.72-2.25,0.39-3.4c-0.68-2.37-3.16-3.75-5.52-3.07
			C86.99,297.84,85.62,300.31,86.29,302.68L86.29,302.68z"/>
	</g>
	<g>
		<path d="M92.64,66.86c-0.3,0-0.6-0.08-0.86-0.25c-0.37-0.23-0.63-0.59-0.73-1.02c-0.1-0.43-0.02-0.86,0.21-1.23
			c0.23-0.37,0.59-0.63,1.02-0.73c0.43-0.1,0.86-0.02,1.23,0.21c0.37,0.23,0.63,0.59,0.73,1.02c0.1,0.43,0.02,0.86-0.21,1.24
			c-0.23,0.37-0.59,0.63-1.02,0.73C92.89,66.84,92.77,66.86,92.64,66.86z M92.65,64.17c-0.08,0-0.16,0.01-0.24,0.03
			c-0.27,0.06-0.51,0.23-0.66,0.47c-0.15,0.24-0.2,0.52-0.13,0.79c0.06,0.27,0.23,0.51,0.47,0.66c0.24,0.15,0.52,0.2,0.79,0.13
			c0.27-0.06,0.51-0.23,0.66-0.47c0.15-0.24,0.2-0.52,0.13-0.79c-0.06-0.27-0.23-0.51-0.47-0.66
			C93.04,64.22,92.84,64.17,92.65,64.17z"/>
	</g>
	<g>
		<path d="M248.84,31c-0.37,0-0.74-0.11-1.06-0.34v0c-0.8-0.58-0.97-1.71-0.39-2.51c0.28-0.39,0.7-0.64,1.17-0.72
			c0.47-0.07,0.95,0.04,1.34,0.32c0.8,0.58,0.97,1.71,0.39,2.51C249.95,30.75,249.4,31,248.84,31z M248.13,30.19
			c0.54,0.4,1.3,0.27,1.69-0.26c0.39-0.54,0.28-1.3-0.26-1.7c-0.54-0.39-1.3-0.28-1.69,0.26C247.47,29.03,247.59,29.79,248.13,30.19
			L248.13,30.19z"/>
	</g>
	<g>
		<path d="M250.4,311.04c-1.56,0-3.08-0.78-3.96-2.2c-0.65-1.06-0.86-2.3-0.57-3.51c0.29-1.21,1.02-2.23,2.08-2.89l0,0
			c2.18-1.35,5.05-0.67,6.4,1.51c0.65,1.06,0.86,2.3,0.57,3.51c-0.29,1.21-1.02,2.23-2.08,2.89
			C252.08,310.82,251.24,311.04,250.4,311.04z M250.39,302.33c-0.73,0-1.47,0.2-2.13,0.61l0,0c-0.92,0.57-1.57,1.47-1.82,2.52
			c-0.25,1.06-0.07,2.15,0.5,3.07c1.18,1.91,3.69,2.5,5.6,1.32c1.91-1.18,2.5-3.69,1.32-5.6
			C253.08,303.01,251.75,302.33,250.39,302.33z M248.1,302.69L248.1,302.69L248.1,302.69z"/>
	</g>
	<g>
		<path d="M94.12,89.39c-0.52,0-1.04-0.1-1.55-0.3c-2.14-0.86-3.18-3.29-2.32-5.43c0.86-2.14,3.29-3.18,5.43-2.32
			c2.14,0.86,3.18,3.29,2.32,5.43C97.35,88.4,95.78,89.39,94.12,89.39z M94.13,81.62c-1.43,0-2.78,0.85-3.34,2.25
			c-0.74,1.84,0.16,3.94,2,4.67c1.84,0.74,3.94-0.16,4.67-2c0.74-1.84-0.16-3.94-2-4.67C95.03,81.7,94.58,81.62,94.13,81.62z"/>
	</g>
	<g>
		<path d="M72.52,224.21c-0.56,0-1.12-0.08-1.67-0.25c-1.48-0.44-2.7-1.44-3.43-2.79c-0.73-1.36-0.89-2.92-0.45-4.4
			c0.44-1.48,1.44-2.7,2.79-3.43c1.36-0.73,2.92-0.89,4.4-0.45c1.48,0.44,2.7,1.44,3.43,2.79c0.73,1.36,0.89,2.92,0.45,4.4h0
			c-0.44,1.48-1.44,2.7-2.8,3.43C74.4,223.97,73.46,224.21,72.52,224.21z M72.5,213.22c-0.85,0-1.69,0.21-2.46,0.63
			c-1.22,0.66-2.11,1.75-2.51,3.09c-0.4,1.33-0.26,2.74,0.4,3.96c0.66,1.22,1.75,2.11,3.09,2.51c1.33,0.4,2.74,0.25,3.96-0.4
			c1.22-0.66,2.11-1.75,2.51-3.09h0c0.4-1.33,0.25-2.74-0.4-3.96c-0.66-1.22-1.75-2.11-3.09-2.51
			C73.51,213.29,73,213.22,72.5,213.22z"/>
	</g>
	<g>
		<path d="M103.54,266.4c-0.11,0-0.22-0.01-0.33-0.03c-0.94-0.18-1.56-1.09-1.38-2.03c0.09-0.46,0.35-0.85,0.73-1.11
			c0.38-0.26,0.85-0.35,1.3-0.27c0.94,0.18,1.56,1.09,1.38,2.03c0,0,0,0,0,0c-0.09,0.46-0.35,0.85-0.73,1.11
			C104.22,266.29,103.89,266.4,103.54,266.4z M103.54,263.51c-0.23,0-0.45,0.07-0.65,0.2c-0.25,0.17-0.43,0.43-0.48,0.74
			c-0.12,0.62,0.29,1.23,0.92,1.35c0.3,0.05,0.61-0.01,0.86-0.18c0.25-0.17,0.43-0.43,0.48-0.74c0.12-0.62-0.29-1.23-0.92-1.35
			C103.68,263.52,103.61,263.51,103.54,263.51z M104.95,264.93L104.95,264.93L104.95,264.93z"/>
	</g>
	<g>
		<path d="M343.95,113.1c-1.56,0-3.06-0.84-3.84-2.3c-0.55-1.02-0.66-2.2-0.32-3.31c0.34-1.11,1.09-2.02,2.11-2.57
			c1.02-0.54,2.2-0.66,3.31-0.32c1.11,0.34,2.02,1.09,2.57,2.11c1.13,2.11,0.32,4.75-1.79,5.88l0,0
			C345.34,112.94,344.64,113.1,343.95,113.1z M343.94,104.99c-0.61,0-1.21,0.15-1.76,0.44c-0.89,0.47-1.54,1.26-1.83,2.22
			c-0.29,0.96-0.19,1.98,0.28,2.87c0.97,1.83,3.26,2.53,5.09,1.55l0,0c1.83-0.97,2.53-3.26,1.55-5.09
			c-0.47-0.89-1.26-1.54-2.22-1.83C344.68,105.05,344.31,104.99,343.94,104.99z M345.85,112.33L345.85,112.33L345.85,112.33z"/>
	</g>
	<g>
		<path d="M343.92,228.92c-0.15,0-0.3-0.01-0.46-0.02c-2.55-0.25-4.42-2.53-4.17-5.08c0.25-2.55,2.53-4.41,5.08-4.17
			c1.24,0.12,2.35,0.72,3.14,1.68c0.79,0.96,1.15,2.17,1.03,3.4C348.3,227.12,346.28,228.92,343.92,228.92z M343.91,220.21
			c-0.94,0-1.84,0.32-2.57,0.92c-0.84,0.69-1.36,1.66-1.47,2.74c-0.11,1.08,0.21,2.14,0.9,2.98c0.69,0.84,1.66,1.36,2.74,1.47
			c2.23,0.22,4.22-1.41,4.44-3.64c0.11-1.08-0.21-2.14-0.9-2.98c-0.69-0.84-1.66-1.36-2.74-1.47
			C344.18,220.21,344.04,220.21,343.91,220.21z"/>
	</g>
	<g>
		<path d="M144.98,45.36c-1.79,0-3.51-0.63-4.88-1.81c-1.52-1.31-2.45-3.13-2.6-5.13c-0.15-2,0.48-3.95,1.79-5.47
			c1.31-1.52,3.13-2.45,5.13-2.6c4.14-0.31,7.76,2.79,8.07,6.92l0,0c0.15,2-0.48,3.95-1.79,5.47c-1.31,1.52-3.13,2.45-5.13,2.6
			C145.38,45.35,145.18,45.36,144.98,45.36z M145,30.9c-0.18,0-0.36,0.01-0.54,0.02c-1.85,0.14-3.53,0.99-4.74,2.4
			c-1.21,1.41-1.79,3.2-1.65,5.05c0.14,1.85,0.99,3.53,2.4,4.74c1.41,1.21,3.2,1.79,5.05,1.65c1.85-0.14,3.53-0.99,4.74-2.4
			c1.21-1.41,1.79-3.2,1.65-5.05l0,0C151.63,33.67,148.59,30.9,145,30.9z"/>
	</g>
	<g>
		<path d="M65.88,114.46c-0.04,0-0.08,0-0.12-0.01c-0.42-0.03-0.79-0.22-1.07-0.54c-0.27-0.32-0.4-0.72-0.37-1.14
			c0.03-0.42,0.22-0.79,0.54-1.07c0.32-0.27,0.72-0.4,1.14-0.37c0.42,0.03,0.79,0.22,1.07,0.54c0.27,0.32,0.4,0.72,0.37,1.14
			c-0.03,0.42-0.22,0.79-0.54,1.07C66.61,114.33,66.25,114.46,65.88,114.46z M65.87,111.92c-0.23,0-0.46,0.08-0.63,0.24
			c-0.2,0.17-0.32,0.41-0.34,0.67c-0.02,0.26,0.06,0.51,0.23,0.71c0.17,0.2,0.41,0.32,0.67,0.34c0.26,0.02,0.51-0.06,0.71-0.23
			c0.2-0.17,0.32-0.41,0.34-0.67c0.02-0.26-0.06-0.51-0.23-0.71c-0.17-0.2-0.41-0.32-0.67-0.34
			C65.93,111.92,65.9,111.92,65.87,111.92z"/>
	</g>
	<g>
		<path d="M138.32,74.46c-1.29,0-2.6-0.33-3.8-1.03c-3.59-2.1-4.8-6.73-2.7-10.32c1.02-1.74,2.65-2.98,4.6-3.48
			c1.95-0.51,3.98-0.23,5.72,0.79l0,0c1.74,1.02,2.98,2.65,3.48,4.6c0.51,1.95,0.23,3.98-0.79,5.72
			C143.44,73.12,140.91,74.46,138.32,74.46z M138.35,59.96c-2.39,0-4.72,1.23-6.01,3.44c-1.94,3.31-0.82,7.58,2.49,9.52
			c1.6,0.94,3.48,1.2,5.27,0.73c1.8-0.47,3.3-1.61,4.24-3.21c0.94-1.6,1.2-3.48,0.73-5.27c-0.47-1.8-1.61-3.3-3.21-4.24l0,0
			C140.75,60.27,139.54,59.96,138.35,59.96z"/>
	</g>
	<g>
		<path d="M184.12,25.17c-0.12,0-0.23-0.01-0.35-0.03c-0.5-0.09-0.93-0.37-1.21-0.79c-0.29-0.42-0.39-0.92-0.3-1.41
			c0.09-0.5,0.37-0.93,0.79-1.21c0.42-0.29,0.92-0.39,1.41-0.3c0.5,0.09,0.93,0.37,1.21,0.79c0.29,0.42,0.39,0.92,0.3,1.41
			c-0.09,0.5-0.37,0.93-0.79,1.21C184.87,25.05,184.5,25.17,184.12,25.17z M184.11,21.98c-0.26,0-0.52,0.08-0.74,0.23
			c-0.29,0.2-0.48,0.49-0.54,0.84c-0.06,0.34,0.01,0.69,0.21,0.98c0.2,0.29,0.49,0.48,0.84,0.54c0.34,0.06,0.69-0.01,0.98-0.21
			c0.29-0.2,0.48-0.49,0.54-0.84c0.06-0.34-0.01-0.69-0.21-0.98c-0.2-0.29-0.49-0.48-0.84-0.54
			C184.28,21.98,184.19,21.98,184.11,21.98z"/>
	</g>
	<g>
		<path d="M260.57,230.3c-1.31,0-2.56-0.5-3.51-1.41c-0.98-0.94-1.54-2.2-1.57-3.56c-0.03-1.36,0.47-2.64,1.41-3.63
			c0.94-0.98,2.2-1.54,3.56-1.57c0.04,0,0.08,0,0.12,0c1.31,0,2.56,0.5,3.51,1.41c0.98,0.94,1.54,2.2,1.57,3.56
			c0.03,1.36-0.47,2.64-1.41,3.63c-0.94,0.98-2.2,1.54-3.56,1.57C260.65,230.3,260.61,230.3,260.57,230.3z M260.57,220.72
			c-0.03,0-0.07,0-0.1,0c-1.2,0.03-2.32,0.52-3.15,1.39c-0.83,0.87-1.27,2.01-1.25,3.21c0.03,1.2,0.52,2.32,1.39,3.15
			c0.87,0.83,2.02,1.28,3.21,1.25c1.2-0.03,2.32-0.52,3.15-1.39c0.83-0.87,1.27-2.01,1.25-3.21c-0.03-1.2-0.52-2.32-1.39-3.15
			C262.84,221.16,261.74,220.72,260.57,220.72z"/>
	</g>
	<g>
		<path d="M282.25,5.71c-1.04,0-1.94-0.8-2.03-1.86c-0.1-1.12,0.73-2.12,1.85-2.22l0,0c0.54-0.05,1.07,0.12,1.49,0.46
			c0.42,0.35,0.68,0.84,0.73,1.38c0.05,0.54-0.12,1.07-0.46,1.49c-0.35,0.42-0.84,0.68-1.38,0.73
			C282.38,5.7,282.31,5.71,282.25,5.71z M282.26,2.21c-0.04,0-0.09,0-0.13,0.01l0,0c-0.8,0.07-1.39,0.78-1.32,1.58
			c0.07,0.8,0.78,1.4,1.59,1.32c0.39-0.04,0.74-0.22,0.99-0.52c0.25-0.3,0.37-0.68,0.33-1.07c-0.04-0.39-0.22-0.74-0.52-0.99
			C282.92,2.32,282.6,2.21,282.26,2.21z M282.09,1.92L282.09,1.92L282.09,1.92z"/>
	</g>
	<g>
		<path d="M89.03,282.29c-0.14,0-0.29-0.02-0.43-0.06l0,0c-0.82-0.24-1.3-1.1-1.06-1.93c0.24-0.82,1.1-1.29,1.93-1.06
			c0.4,0.12,0.73,0.38,0.93,0.74c0.2,0.36,0.25,0.78,0.13,1.18C90.33,281.84,89.71,282.29,89.03,282.29z M88.76,281.66
			c0.51,0.15,1.05-0.15,1.2-0.66c0.15-0.51-0.15-1.05-0.66-1.2c-0.51-0.15-1.05,0.15-1.2,0.66
			C87.95,280.98,88.25,281.52,88.76,281.66L88.76,281.66z"/>
	</g>
	<g>
		<path d="M239.35,213.53c-3.44,0-6.33-2.71-6.52-6.19l0,0c-0.09-1.74,0.5-3.42,1.67-4.71c1.17-1.3,2.77-2.06,4.51-2.15
			c3.6-0.18,6.68,2.58,6.87,6.18c0.19,3.6-2.58,6.68-6.18,6.87C239.58,213.53,239.46,213.53,239.35,213.53z M239.35,201.05
			c-0.11,0-0.21,0-0.32,0.01c-1.59,0.08-3.05,0.78-4.11,1.96c-1.06,1.18-1.6,2.71-1.52,4.29l0,0c0.17,3.28,3.01,5.81,6.25,5.63
			c3.28-0.17,5.8-2.98,5.63-6.26C245.12,203.52,242.49,201.05,239.35,201.05z"/>
	</g>
	<g>
		<path d="M125.09,274.59c-0.08,0-0.15,0-0.23-0.01c-0.55-0.06-1.04-0.33-1.38-0.76c-0.34-0.43-0.5-0.97-0.44-1.51
			c0.06-0.55,0.33-1.04,0.76-1.38c0.43-0.35,0.97-0.5,1.51-0.44c0.55,0.06,1.04,0.33,1.38,0.76c0.35,0.43,0.5,0.97,0.44,1.51
			c-0.06,0.55-0.33,1.04-0.76,1.38C126,274.44,125.55,274.59,125.09,274.59z M125.08,271.05c-0.34,0-0.66,0.11-0.92,0.33
			c-0.31,0.25-0.5,0.6-0.54,0.99c-0.04,0.39,0.07,0.78,0.32,1.09c0.25,0.31,0.6,0.5,0.99,0.54c0.4,0.04,0.78-0.07,1.09-0.32
			c0.31-0.25,0.5-0.6,0.54-0.99c0.04-0.39-0.07-0.78-0.32-1.09c-0.25-0.31-0.6-0.5-0.99-0.54
			C125.19,271.06,125.13,271.05,125.08,271.05z"/>
	</g>
	<g>
		<path d="M205.4,26.06c-0.3,0-0.6-0.03-0.9-0.1c-2.29-0.5-3.75-2.76-3.25-5.05l0,0c0.49-2.29,2.76-3.75,5.05-3.25
			c2.29,0.5,3.75,2.76,3.25,5.05C209.12,24.7,207.36,26.06,205.4,26.06z M201.83,21.04c-0.43,1.97,0.83,3.93,2.8,4.35
			c1.97,0.43,3.93-0.83,4.35-2.8c0.43-1.97-0.83-3.93-2.8-4.35C204.2,17.81,202.25,19.07,201.83,21.04L201.83,21.04z"/>
	</g>
	<g>
		<path d="M278.53,26.56c-0.2,0-0.41-0.03-0.61-0.09c-1.14-0.34-1.8-1.54-1.47-2.68c0.34-1.14,1.54-1.8,2.68-1.47
			c1.14,0.34,1.8,1.54,1.46,2.68v0C280.33,25.95,279.47,26.56,278.53,26.56z M278.53,22.82c-0.68,0-1.31,0.45-1.52,1.13
			c-0.24,0.84,0.24,1.72,1.07,1.96c0.83,0.24,1.72-0.23,1.96-1.07v0c0.25-0.84-0.23-1.72-1.07-1.96
			C278.83,22.84,278.68,22.82,278.53,22.82z M280.33,24.92L280.33,24.92L280.33,24.92z"/>
	</g>
	<g>
		<path d="M115.68,313.47c-0.55,0-1.11-0.1-1.64-0.29c-1.19-0.44-2.14-1.31-2.68-2.47c-1.1-2.38-0.06-5.21,2.32-6.31
			c2.38-1.1,5.21-0.06,6.31,2.32c1.1,2.38,0.06,5.21-2.32,6.31C117.04,313.32,116.36,313.47,115.68,313.47z M115.67,304.54
			c-0.59,0-1.18,0.12-1.74,0.39c-2.09,0.96-3,3.45-2.04,5.54c0.47,1.01,1.3,1.78,2.35,2.16c1.05,0.38,2.18,0.34,3.19-0.13
			c2.09-0.97,3-3.45,2.04-5.54C118.76,305.44,117.25,304.54,115.67,304.54z"/>
	</g>
	<g>
		<path d="M338.84,140.69c-0.45,0-0.9-0.04-1.35-0.12c-1.97-0.36-3.69-1.46-4.83-3.11c-2.36-3.4-1.51-8.09,1.89-10.45
			c3.4-2.36,8.09-1.51,10.45,1.89c2.36,3.4,1.51,8.09-1.89,10.45C341.83,140.23,340.36,140.69,338.84,140.69z M338.82,126.26
			c-1.36,0-2.74,0.4-3.94,1.23l0,0c-1.52,1.05-2.54,2.64-2.87,4.46c-0.33,1.82,0.07,3.66,1.13,5.18c2.18,3.14,6.5,3.92,9.64,1.74
			c3.14-2.18,3.92-6.5,1.74-9.64C343.17,127.3,341.01,126.26,338.82,126.26z M334.71,127.25L334.71,127.25L334.71,127.25z"/>
	</g>
	<g>
		<path d="M67.56,302.55c-2.22,0-4.15-1.65-4.44-3.91c-0.32-2.45,1.42-4.71,3.87-5.03l0,0c2.46-0.32,4.71,1.42,5.03,3.87
			c0.32,2.45-1.42,4.71-3.87,5.02C67.94,302.54,67.75,302.55,67.56,302.55z M67.06,294.2c-2.13,0.28-3.64,2.24-3.37,4.37
			c0.28,2.13,2.25,3.64,4.37,3.37c2.13-0.28,3.64-2.24,3.37-4.37C71.15,295.43,69.18,293.92,67.06,294.2L67.06,294.2z"/>
	</g>
	<g>
		<path d="M147.03,279.84c-0.79,0-1.58-0.25-2.26-0.76c-1.63-1.25-1.95-3.59-0.7-5.23c0,0,0,0,0,0c1.25-1.63,3.59-1.95,5.23-0.7
			c1.63,1.25,1.95,3.59,0.7,5.23C149.26,279.33,148.15,279.84,147.03,279.84z M144.53,274.2c-1.05,1.38-0.79,3.36,0.59,4.41
			c1.38,1.05,3.36,0.79,4.41-0.59c1.05-1.38,0.79-3.36-0.59-4.41C147.56,272.55,145.58,272.82,144.53,274.2L144.53,274.2z"/>
	</g>
	<g>
		<path d="M207.08,302.18c-0.56,0-1.13-0.21-1.56-0.64c-0.87-0.86-0.88-2.27-0.02-3.15c0.86-0.87,2.27-0.88,3.15-0.02
			c0.42,0.42,0.66,0.97,0.66,1.57c0,0.59-0.22,1.15-0.64,1.58C208.23,301.96,207.65,302.18,207.08,302.18z M207.08,298.31
			c-0.42,0-0.85,0.16-1.17,0.49c-0.63,0.64-0.63,1.69,0.02,2.32c0.65,0.64,1.69,0.63,2.32-0.02c0.31-0.31,0.48-0.73,0.47-1.16
			c0-0.44-0.18-0.85-0.49-1.16C207.91,298.47,207.5,298.31,207.08,298.31z"/>
	</g>
	<g>
		<path d="M274.59,70.78c-0.5,0-1-0.17-1.41-0.52c-0.91-0.78-1.03-2.16-0.25-3.07l0,0c0.78-0.91,2.16-1.03,3.07-0.25
			c0.44,0.38,0.71,0.9,0.76,1.49c0.05,0.58-0.14,1.14-0.51,1.59C275.82,70.52,275.21,70.78,274.59,70.78z M273.38,67.57
			c-0.57,0.67-0.49,1.68,0.18,2.25c0.67,0.57,1.68,0.49,2.25-0.18c0.28-0.33,0.41-0.74,0.38-1.16c-0.03-0.42-0.23-0.81-0.56-1.09
			C274.96,66.82,273.95,66.9,273.38,67.57L273.38,67.57z"/>
	</g>
	<g>
		<path d="M236.93,323.96c-0.89,0-1.73-0.32-2.4-0.92c-0.71-0.64-1.13-1.52-1.17-2.47c-0.05-0.95,0.28-1.87,0.92-2.58
			c0.64-0.71,1.52-1.13,2.47-1.17c0.96-0.05,1.87,0.28,2.58,0.92c0.71,0.64,1.13,1.52,1.17,2.47c0.1,1.97-1.42,3.65-3.39,3.75l0,0
			C237.06,323.96,237,323.96,236.93,323.96z M237.1,323.67L237.1,323.67L237.1,323.67z M236.94,317.39c-0.05,0-0.1,0-0.15,0
			c-0.8,0.04-1.53,0.39-2.07,0.98c-0.54,0.59-0.81,1.36-0.77,2.16c0.04,0.8,0.39,1.53,0.98,2.07c0.59,0.54,1.37,0.8,2.16,0.77l0,0
			c1.65-0.08,2.92-1.49,2.84-3.14c-0.04-0.8-0.39-1.53-0.98-2.07C238.39,317.66,237.68,317.39,236.94,317.39z"/>
	</g>
	<g>
		<path d="M70.46,76.05c-0.84,0-1.69-0.19-2.5-0.58l0,0c-2.84-1.38-4.03-4.82-2.65-7.66c0.67-1.38,1.84-2.41,3.28-2.91
			c1.45-0.5,3-0.41,4.38,0.26c1.38,0.67,2.41,1.84,2.91,3.28c0.5,1.45,0.41,3-0.26,4.38C74.64,74.86,72.59,76.05,70.46,76.05z
			 M68.22,74.95c2.55,1.24,5.64,0.17,6.88-2.38c0.6-1.24,0.68-2.64,0.24-3.94c-0.45-1.3-1.38-2.35-2.62-2.95
			c-1.24-0.6-2.63-0.68-3.94-0.24c-1.3,0.45-2.35,1.38-2.95,2.62C64.6,70.62,65.66,73.7,68.22,74.95L68.22,74.95z"/>
	</g>
	<g>
		<path d="M290.98,67.8c-1.88,0-3.58-1.33-3.96-3.24l0,0c-0.22-1.06-0.01-2.14,0.59-3.04c0.6-0.9,1.51-1.52,2.57-1.73
			c1.06-0.22,2.14-0.01,3.04,0.59c0.9,0.6,1.52,1.51,1.73,2.57c0.22,1.06,0.01,2.14-0.59,3.04c-0.6,0.9-1.51,1.52-2.57,1.73
			C291.52,67.78,291.25,67.8,290.98,67.8z M290.99,60.29c-0.23,0-0.47,0.02-0.7,0.07c-0.91,0.18-1.69,0.71-2.2,1.48
			c-0.51,0.77-0.69,1.7-0.51,2.6l0,0c0.18,0.91,0.71,1.69,1.48,2.2c0.77,0.51,1.7,0.69,2.6,0.51c0.91-0.18,1.69-0.71,2.2-1.48
			c0.51-0.77,0.69-1.7,0.51-2.6c-0.18-0.91-0.71-1.69-1.48-2.2C292.32,60.49,291.66,60.29,290.99,60.29z"/>
	</g>
	<g>
		<path d="M133.09,239.25c-0.17,0-0.35-0.02-0.52-0.08c-0.46-0.14-0.85-0.45-1.08-0.87c-0.23-0.43-0.28-0.91-0.15-1.38
			c0.14-0.46,0.45-0.85,0.87-1.08c0.43-0.23,0.92-0.28,1.38-0.15c0.46,0.14,0.85,0.45,1.08,0.87c0.23,0.43,0.28,0.92,0.15,1.38
			c-0.14,0.46-0.45,0.85-0.87,1.08C133.68,239.18,133.39,239.25,133.09,239.25z M133.08,236.21c-0.2,0-0.4,0.05-0.59,0.15
			c-0.29,0.16-0.5,0.42-0.59,0.73c-0.09,0.31-0.06,0.65,0.1,0.94c0.16,0.29,0.42,0.5,0.73,0.59c0.31,0.09,0.65,0.06,0.94-0.1
			c0.29-0.16,0.5-0.42,0.59-0.73c0.09-0.31,0.06-0.65-0.1-0.94c-0.16-0.29-0.42-0.5-0.73-0.59l0,0
			C133.32,236.23,133.2,236.21,133.08,236.21z"/>
	</g>
	<g>
		<path d="M131.64,201.24c-0.99,0-1.99-0.28-2.87-0.88c-2.36-1.59-2.98-4.8-1.39-7.16c1.59-2.36,4.8-2.98,7.16-1.39
			c2.36,1.59,2.98,4.8,1.39,7.16C134.93,200.45,133.3,201.24,131.64,201.24z M131.66,191.51c-0.29,0-0.59,0.03-0.88,0.09
			c-1.2,0.23-2.24,0.92-2.92,1.93c-1.41,2.09-0.86,4.94,1.23,6.35c2.09,1.41,4.94,0.86,6.35-1.23c0.68-1.01,0.93-2.23,0.7-3.43
			c-0.23-1.2-0.92-2.24-1.93-2.92C133.45,191.78,132.56,191.51,131.66,191.51z"/>
	</g>
	<g>
		<path d="M109.1,144.49c-0.57,0-1.11-0.19-1.56-0.55c-0.52-0.42-0.84-1.01-0.91-1.67l0,0c-0.15-1.36,0.84-2.59,2.21-2.73
			c0.65-0.07,1.31,0.12,1.82,0.54c0.52,0.42,0.84,1.01,0.91,1.67c0.07,0.66-0.12,1.31-0.54,1.82c-0.42,0.52-1.01,0.84-1.67,0.91
			C109.28,144.48,109.19,144.49,109.1,144.49z M109.11,140.1c-0.07,0-0.14,0-0.2,0.01c-1.04,0.11-1.8,1.05-1.69,2.09l0,0
			c0.05,0.5,0.3,0.96,0.7,1.28c0.39,0.32,0.89,0.46,1.4,0.41c0.51-0.05,0.96-0.3,1.28-0.7c0.32-0.4,0.47-0.89,0.41-1.4
			C110.89,140.83,110.06,140.1,109.11,140.1z"/>
	</g>
	<g>
		<path d="M92.69,251.98c-0.25,0-0.51-0.06-0.75-0.18c-0.39-0.2-0.68-0.54-0.81-0.96c-0.13-0.42-0.09-0.86,0.11-1.25
			c0.42-0.8,1.41-1.12,2.21-0.7c0.39,0.2,0.68,0.54,0.81,0.96c0.13,0.42,0.09,0.86-0.11,1.25
			C93.86,251.66,93.29,251.98,92.69,251.98z M92.7,249.28c-0.38,0-0.75,0.21-0.94,0.57c-0.13,0.25-0.15,0.54-0.07,0.81
			c0.09,0.27,0.27,0.49,0.52,0.62c0.52,0.27,1.16,0.07,1.43-0.45c0.27-0.52,0.07-1.16-0.45-1.43
			C93.03,249.32,92.86,249.28,92.7,249.28z"/>
	</g>
	<g>
		<path d="M93.39,36.1c-1.41,0-2.83-0.49-3.97-1.5c-1.2-1.06-1.92-2.53-2.03-4.13c-0.1-1.6,0.43-3.15,1.49-4.35
			c1.06-1.2,2.53-1.92,4.13-2.03c1.6-0.11,3.15,0.43,4.35,1.49c1.2,1.06,1.92,2.53,2.03,4.13c0.1,1.6-0.43,3.15-1.49,4.35l0,0
			C96.71,35.42,95.05,36.1,93.39,36.1z M93.4,24.67c-0.12,0-0.23,0-0.35,0.01c-1.45,0.09-2.77,0.74-3.73,1.83
			c-1.98,2.25-1.76,5.68,0.49,7.66c2.25,1.98,5.68,1.76,7.66-0.49l0,0c0.96-1.09,1.43-2.48,1.34-3.93
			c-0.09-1.45-0.74-2.77-1.83-3.73C95.98,25.14,94.72,24.67,93.4,24.67z M97.68,33.88L97.68,33.88L97.68,33.88z"/>
	</g>
	<g>
		<path d="M345.66,308.55c-0.6,0-1.2-0.25-1.62-0.74c-0.37-0.43-0.55-0.98-0.5-1.55c0.05-0.57,0.31-1.08,0.74-1.45
			c0.43-0.37,0.98-0.55,1.55-0.5c0.57,0.04,1.08,0.31,1.45,0.74c0.37,0.43,0.55,0.98,0.5,1.55c-0.05,0.57-0.31,1.08-0.74,1.45
			C346.64,308.38,346.15,308.55,345.66,308.55z M345.65,304.88c-0.37,0-0.72,0.13-1,0.37c0,0,0,0,0,0c-0.31,0.27-0.5,0.64-0.54,1.05
			c-0.03,0.41,0.1,0.81,0.37,1.12c0.55,0.65,1.53,0.72,2.18,0.17c0.31-0.27,0.5-0.64,0.54-1.05c0.03-0.41-0.1-0.81-0.37-1.12
			c-0.27-0.31-0.64-0.5-1.05-0.54C345.74,304.88,345.69,304.88,345.65,304.88z M344.46,305.02L344.46,305.02L344.46,305.02z"/>
	</g>
	<g>
		<path d="M343.97,66.41c-1.72,0-3.39-0.91-4.27-2.52l0,0c-1.3-2.35-0.44-5.32,1.91-6.61c1.14-0.63,2.45-0.77,3.7-0.41
			c1.25,0.36,2.28,1.19,2.91,2.33c1.3,2.35,0.44,5.32-1.91,6.61C345.57,66.21,344.76,66.41,343.97,66.41z M340.21,63.61
			c1.14,2.07,3.75,2.82,5.82,1.68c2.07-1.14,2.82-3.75,1.68-5.82c-0.55-1-1.46-1.73-2.56-2.05c-1.1-0.32-2.26-0.19-3.26,0.36
			C339.82,58.93,339.07,61.54,340.21,63.61L340.21,63.61z"/>
	</g>
	<g>
		<path d="M68.23,43.37c-0.1,0-0.21-0.06-0.26-0.16c-0.08-0.14-0.02-0.32,0.12-0.39l1.09-0.57c0.14-0.07,0.32-0.02,0.39,0.12
			c0.08,0.14,0.02,0.32-0.12,0.39l-1.09,0.57C68.32,43.36,68.27,43.37,68.23,43.37z"/>
	</g>
	<g>
		<path d="M334.39,1.73c-0.07,0-0.15-0.03-0.2-0.08l-0.88-0.85c-0.12-0.11-0.12-0.3-0.01-0.41c0.11-0.12,0.3-0.12,0.41-0.01
			l0.88,0.85c0.12,0.11,0.12,0.3,0.01,0.41C334.54,1.7,334.47,1.73,334.39,1.73z"/>
	</g>
	<g>
		<path d="M309.63,64.39c-0.12,0-0.22-0.07-0.27-0.18l-0.19-0.47c-0.06-0.15,0.01-0.32,0.16-0.38c0.15-0.06,0.32,0.01,0.38,0.16
			l0.19,0.47c0.06,0.15-0.01,0.32-0.16,0.38C309.7,64.39,309.66,64.39,309.63,64.39z"/>
	</g>
	<g>
		<path d="M154.87,125.13c-0.1,0-0.2-0.05-0.25-0.15l-0.41-0.71c-0.08-0.14-0.03-0.32,0.11-0.4c0.14-0.08,0.32-0.03,0.4,0.11
			l0.41,0.71c0.08,0.14,0.03,0.32-0.11,0.4C154.97,125.11,154.92,125.13,154.87,125.13z"/>
	</g>
	<g>
		<path d="M26.7,3.6c-0.12,0-0.22-0.07-0.27-0.18c-0.06-0.15,0.01-0.32,0.16-0.38l0.23-0.09c0.15-0.06,0.32,0.01,0.38,0.16
			c0.06,0.15-0.01,0.32-0.16,0.38l-0.23,0.09C26.78,3.6,26.74,3.6,26.7,3.6z"/>
	</g>
	<g>
		<path d="M179.64,308.89C179.64,308.89,179.64,308.89,179.64,308.89c-0.17,0-0.3-0.14-0.29-0.3l0.03-1.07c0-0.16,0.1-0.29,0.3-0.28
			c0.16,0,0.29,0.14,0.28,0.3l-0.03,1.07C179.93,308.76,179.8,308.89,179.64,308.89z"/>
	</g>
	<g>
		<path d="M26.68,156.56c-0.06,0-0.13-0.02-0.18-0.07c-0.12-0.1-0.14-0.29-0.04-0.41l0.22-0.27c0.1-0.13,0.29-0.14,0.41-0.04
			c0.12,0.1,0.14,0.29,0.04,0.41l-0.22,0.27C26.85,156.52,26.76,156.56,26.68,156.56z"/>
	</g>
	<g>
		<path d="M237.1,133.94c-0.12,0-0.24-0.08-0.28-0.2l-0.38-1.18c-0.05-0.15,0.03-0.32,0.19-0.37c0.15-0.05,0.32,0.03,0.37,0.19
			l0.38,1.18c0.05,0.15-0.03,0.32-0.19,0.37C237.16,133.94,237.13,133.94,237.1,133.94z"/>
	</g>
	<g>
		<path d="M149.29,203.92c-0.12,0-0.24-0.08-0.28-0.2l-0.4-1.27c-0.05-0.15,0.04-0.32,0.19-0.37c0.15-0.05,0.32,0.04,0.37,0.19
			l0.4,1.27c0.05,0.15-0.04,0.32-0.19,0.37C149.35,203.92,149.32,203.92,149.29,203.92z"/>
	</g>
	<g>
		<path d="M72.93,251.8c-0.05,0-0.1-0.01-0.15-0.04l-0.38-0.23c-0.14-0.08-0.18-0.26-0.1-0.4c0.08-0.14,0.26-0.18,0.4-0.1l0.38,0.23
			c0.14,0.08,0.18,0.26,0.1,0.4C73.12,251.75,73.02,251.8,72.93,251.8z"/>
	</g>
	<g>
		<path d="M85.38,236.17c-0.02,0-0.03,0-0.05,0l-0.76-0.13c-0.16-0.03-0.26-0.18-0.24-0.34c0.03-0.16,0.18-0.27,0.34-0.24l0.76,0.13
			c0.16,0.03,0.26,0.18,0.24,0.34C85.64,236.07,85.52,236.17,85.38,236.17z"/>
	</g>
	<g>
		<path d="M118.82,220.65c-0.06,0-0.11-0.02-0.16-0.05c-0.13-0.09-0.17-0.27-0.08-0.4l0.2-0.29c0.09-0.13,0.27-0.17,0.4-0.08
			c0.13,0.09,0.17,0.27,0.08,0.4l-0.2,0.29C119,220.61,118.91,220.65,118.82,220.65z"/>
	</g>
	<g>
		<path d="M174.57,292.11c-0.02,0-0.03,0-0.05,0c-0.16-0.03-0.27-0.18-0.24-0.34l0.11-0.64c0.03-0.16,0.18-0.26,0.34-0.24
			c0.16,0.03,0.27,0.18,0.24,0.34l-0.11,0.64C174.83,292.01,174.71,292.11,174.57,292.11z"/>
	</g>
	<g>
		<path d="M136.22,218.3c-0.09,0-0.17-0.04-0.23-0.11l-0.19-0.23c-0.1-0.13-0.08-0.31,0.05-0.41c0.12-0.1,0.31-0.08,0.41,0.04
			l0.19,0.23c0.1,0.13,0.08,0.31-0.05,0.41C136.35,218.28,136.29,218.3,136.22,218.3z"/>
	</g>
	<g>
		<path d="M28.9,282.45c-0.06,0-0.12-0.02-0.17-0.06c-0.13-0.09-0.16-0.28-0.07-0.41l0.23-0.31c0.09-0.13,0.27-0.16,0.41-0.07
			c0.13,0.09,0.16,0.28,0.07,0.41l-0.23,0.31C29.08,282.41,28.99,282.45,28.9,282.45z"/>
	</g>
	<g>
		<path d="M49.42,320.19c-0.02,0-0.04,0-0.07-0.01l-0.24-0.06c-0.16-0.04-0.25-0.19-0.22-0.35c0.04-0.16,0.19-0.26,0.35-0.22
			l0.24,0.06c0.16,0.04,0.25,0.19,0.22,0.35C49.67,320.1,49.55,320.19,49.42,320.19z"/>
	</g>
	<g>
		<path d="M72.8,24.44c-0.12,0-0.23-0.07-0.27-0.19c-0.06-0.15,0.02-0.32,0.17-0.37l0.21-0.08c0.15-0.05,0.32,0.02,0.37,0.17
			c0.06,0.15-0.02,0.32-0.17,0.37l-0.21,0.08C72.87,24.43,72.83,24.44,72.8,24.44z"/>
	</g>
	<g>
		<path d="M228.68,27.7c-0.02,0-0.03,0-0.05,0l-0.92-0.16c-0.16-0.03-0.26-0.18-0.24-0.34c0.03-0.16,0.18-0.27,0.34-0.24l0.92,0.16
			c0.16,0.03,0.26,0.18,0.24,0.34C228.94,27.6,228.82,27.7,228.68,27.7z"/>
	</g>
	<g>
		<path d="M70.15,279.58c-0.15,0-0.27-0.11-0.29-0.26l-0.13-1.16c-0.02-0.16,0.1-0.3,0.26-0.32c0.16-0.01,0.3,0.1,0.32,0.26
			l0.13,1.16c0.02,0.16-0.1,0.3-0.26,0.32C70.17,279.58,70.16,279.58,70.15,279.58z"/>
	</g>
	<g>
		<path d="M195.18,36.29c-0.11,0-0.21-0.06-0.26-0.16c-0.07-0.14-0.02-0.32,0.13-0.39l0.53-0.27c0.14-0.07,0.32-0.02,0.39,0.13
			c0.07,0.14,0.02,0.32-0.13,0.39l-0.53,0.27C195.27,36.28,195.22,36.29,195.18,36.29z"/>
	</g>
	<g>
		<path d="M129.23,102.32c-0.06,0-0.11-0.02-0.16-0.05l-0.92-0.62c-0.13-0.09-0.17-0.27-0.08-0.4c0.09-0.13,0.27-0.17,0.4-0.08
			l0.92,0.62c0.13,0.09,0.17,0.27,0.08,0.4C129.41,102.28,129.32,102.32,129.23,102.32z"/>
	</g>
	<g>
		<path d="M293.15,43.72c-0.01,0-0.02,0-0.04,0l-0.58-0.07c-0.16-0.02-0.27-0.16-0.25-0.32c0.02-0.16,0.17-0.28,0.32-0.25l0.58,0.07
			c0.16,0.02,0.27,0.16,0.25,0.32C293.42,43.61,293.29,43.72,293.15,43.72z"/>
	</g>
	<g>
		<path d="M346.78,187.1c-0.03,0-0.06,0-0.09-0.01c-0.15-0.05-0.24-0.21-0.19-0.37l0.22-0.67c0.05-0.15,0.21-0.24,0.37-0.19
			c0.15,0.05,0.24,0.21,0.19,0.37l-0.22,0.67C347.02,187.02,346.9,187.1,346.78,187.1z"/>
	</g>
	<g>
		<path d="M102.27,50.8c-0.01,0-0.02,0-0.03,0l-0.65-0.06c-0.16-0.02-0.28-0.16-0.26-0.32c0.02-0.16,0.15-0.28,0.32-0.26l0.65,0.06
			c0.16,0.02,0.28,0.16,0.26,0.32C102.55,50.69,102.42,50.8,102.27,50.8z"/>
	</g>
	<g>
		<path d="M345.75,289.39c-0.11,0-0.21-0.06-0.26-0.16c-0.07-0.14-0.02-0.32,0.13-0.39l0.32-0.16c0.14-0.07,0.32-0.01,0.39,0.13
			c0.07,0.14,0.02,0.32-0.13,0.39l-0.32,0.16C345.84,289.38,345.79,289.39,345.75,289.39z"/>
	</g>
	<g>
		<path d="M177.79,322.7C177.79,322.7,177.79,322.7,177.79,322.7l-0.47,0c-0.16,0-0.29-0.13-0.29-0.29c0-0.16,0.12-0.28,0.29-0.29
			l0.46,0c0.16,0,0.29,0.13,0.29,0.29C178.08,322.57,177.95,322.7,177.79,322.7z"/>
	</g>
	<g>
		<path d="M303.36,292.47c-0.14,0-0.27-0.11-0.29-0.25c-0.02-0.16,0.09-0.31,0.25-0.33l0.23-0.03c0.15-0.02,0.31,0.09,0.33,0.25
			c0.02,0.16-0.09,0.31-0.25,0.33l-0.23,0.03C303.39,292.47,303.37,292.47,303.36,292.47z"/>
	</g>
	<g>
		<path d="M208.11,142.21c-0.06,0-0.11-0.02-0.16-0.05c-0.13-0.09-0.17-0.27-0.08-0.4l0.71-1.04c0.09-0.13,0.27-0.17,0.4-0.08
			c0.13,0.09,0.17,0.27,0.08,0.4l-0.71,1.04C208.3,142.17,208.2,142.21,208.11,142.21z"/>
	</g>
	<g>
		<path d="M66.25,133.3c-0.08,0-0.17-0.04-0.22-0.1c-0.1-0.12-0.09-0.31,0.04-0.41l0.31-0.26c0.12-0.1,0.31-0.09,0.41,0.04
			c0.1,0.12,0.09,0.31-0.04,0.41l-0.31,0.26C66.39,133.28,66.32,133.3,66.25,133.3z"/>
	</g>
	<g>
		<path d="M220.59,195.49c-0.05,0-0.11-0.01-0.15-0.04c-0.14-0.09-0.18-0.27-0.09-0.4l0.16-0.26c0.09-0.14,0.27-0.18,0.4-0.09
			c0.14,0.09,0.18,0.27,0.09,0.4l-0.16,0.26C220.78,195.44,220.69,195.49,220.59,195.49z"/>
	</g>
	<g>
		<path d="M42.56,230.07c-0.04,0-0.09-0.01-0.13-0.03c-0.14-0.07-0.2-0.25-0.13-0.39l0.28-0.57c0.07-0.14,0.25-0.2,0.39-0.13
			c0.14,0.07,0.2,0.25,0.13,0.39l-0.28,0.57C42.77,230.01,42.66,230.07,42.56,230.07z"/>
	</g>
	<g>
		<path d="M99.29,4.72c-0.08,0-0.16-0.03-0.21-0.09l-0.24-0.26c-0.11-0.12-0.1-0.3,0.01-0.41c0.12-0.11,0.3-0.1,0.41,0.01l0.24,0.26
			c0.11,0.12,0.1,0.3-0.01,0.41C99.44,4.69,99.36,4.72,99.29,4.72z"/>
	</g>
	<g>
		<path d="M186.16,255.52c0,0-0.01,0-0.01,0c-0.16-0.01-0.29-0.14-0.28-0.3l0.02-0.43c0.01-0.16,0.14-0.3,0.3-0.28
			c0.16,0.01,0.29,0.14,0.28,0.3l-0.02,0.43C186.44,255.4,186.31,255.52,186.16,255.52z"/>
	</g>
	<g>
		<path d="M190.35,300.29c-0.05,0-0.09-0.01-0.13-0.03l-0.31-0.16c-0.14-0.07-0.2-0.25-0.13-0.39c0.07-0.14,0.25-0.2,0.39-0.13
			l0.31,0.16c0.14,0.07,0.2,0.25,0.13,0.39C190.56,300.23,190.45,300.29,190.35,300.29z"/>
	</g>
	<g>
		<path d="M161.9,208.61c-0.07,0-0.13-0.02-0.19-0.07c-0.12-0.1-0.14-0.29-0.04-0.41l0.67-0.8c0.1-0.12,0.29-0.14,0.41-0.04
			c0.12,0.1,0.14,0.29,0.04,0.41l-0.67,0.8C162.07,208.57,161.99,208.61,161.9,208.61z"/>
	</g>
	<g>
		<path d="M156.25,261.85c-0.02,0-0.04,0-0.06-0.01c-0.16-0.03-0.26-0.19-0.22-0.35l0.17-0.82c0.03-0.16,0.19-0.26,0.35-0.22
			c0.16,0.03,0.26,0.19,0.22,0.35l-0.17,0.82C156.51,261.76,156.39,261.85,156.25,261.85z"/>
	</g>
	<g>
		<path d="M118.84,89.38c-0.12,0-0.23-0.08-0.28-0.2l-0.39-1.14c-0.05-0.15,0.03-0.32,0.18-0.37c0.15-0.05,0.32,0.03,0.37,0.18
			l0.39,1.14c0.05,0.15-0.03,0.32-0.18,0.37C118.9,89.38,118.87,89.38,118.84,89.38z"/>
	</g>
	<g>
		<path d="M81.73,265.8c-0.12,0-0.24-0.08-0.28-0.21c-0.05-0.15,0.04-0.32,0.19-0.36l0.28-0.08c0.15-0.05,0.32,0.04,0.36,0.19
			c0.05,0.15-0.04,0.32-0.19,0.36l-0.27,0.08C81.78,265.79,81.76,265.8,81.73,265.8z"/>
	</g>
	<g>
		<path d="M206.44,201.18c-0.08,0-0.16-0.03-0.22-0.1c-0.11-0.12-0.1-0.3,0.02-0.41l0.22-0.2c0.12-0.11,0.3-0.1,0.41,0.02
			c0.11,0.12,0.1,0.3-0.02,0.41l-0.22,0.2C206.58,201.15,206.51,201.18,206.44,201.18z"/>
	</g>
	<g>
		<path d="M158.89,1.35c-0.08,0-0.16-0.03-0.21-0.09l-0.3-0.32c-0.11-0.12-0.1-0.3,0.01-0.41c0.12-0.11,0.3-0.1,0.41,0.01l0.3,0.32
			c0.11,0.12,0.1,0.3-0.01,0.41C159.03,1.32,158.96,1.35,158.89,1.35z"/>
	</g>
	<g>
		<path d="M347.09,259.3c-0.03,0-0.06,0-0.09-0.01c-0.15-0.05-0.24-0.21-0.19-0.37l0.29-0.92c0.05-0.15,0.21-0.24,0.37-0.19
			c0.15,0.05,0.24,0.21,0.19,0.37l-0.29,0.92C347.33,259.23,347.21,259.3,347.09,259.3z"/>
	</g>
	<g>
		<path d="M292.13,29.69c-0.1,0-0.21-0.06-0.26-0.16l-0.17-0.32c-0.07-0.14-0.02-0.32,0.12-0.39c0.14-0.07,0.32-0.02,0.39,0.12
			l0.17,0.32c0.07,0.14,0.02,0.32-0.12,0.39C292.22,29.68,292.17,29.69,292.13,29.69z"/>
	</g>
	<g>
		<path d="M290.55,243.07c-0.13,0-0.25-0.09-0.28-0.22c-0.04-0.16,0.06-0.31,0.21-0.35l0.32-0.08c0.16-0.04,0.31,0.06,0.35,0.21
			c0.04,0.16-0.06,0.31-0.21,0.35l-0.32,0.08C290.6,243.06,290.58,243.07,290.55,243.07z"/>
	</g>
	<g>
		<path d="M194.56,285.95c-0.05,0-0.09-0.01-0.13-0.03l-1.21-0.63c-0.14-0.07-0.2-0.25-0.12-0.39c0.07-0.14,0.25-0.2,0.39-0.12
			l1.21,0.63c0.14,0.07,0.2,0.25,0.12,0.39C194.77,285.89,194.67,285.95,194.56,285.95z"/>
	</g>
	<g>
		<path d="M159.98,174.19c-0.04,0-0.08-0.01-0.11-0.02l-0.87-0.36c-0.15-0.06-0.22-0.23-0.16-0.38c0.06-0.15,0.23-0.22,0.38-0.16
			l0.87,0.36c0.15,0.06,0.22,0.23,0.16,0.38C160.2,174.12,160.09,174.19,159.98,174.19z"/>
	</g>
	<g>
		<path d="M118.67,51.21c-0.04,0-0.08-0.01-0.12-0.03l-0.35-0.16c-0.15-0.07-0.21-0.24-0.14-0.39c0.07-0.15,0.24-0.21,0.39-0.14
			l0.35,0.16c0.15,0.07,0.21,0.24,0.14,0.39C118.89,51.15,118.78,51.21,118.67,51.21z"/>
	</g>
	<g>
		<path d="M250.35,281.87c-0.11,0-0.21-0.06-0.26-0.17c-0.07-0.15-0.01-0.32,0.14-0.39l0.91-0.43c0.14-0.07,0.32-0.01,0.39,0.14
			c0.07,0.15,0.01,0.32-0.14,0.39l-0.91,0.43C250.44,281.87,250.39,281.87,250.35,281.87z"/>
	</g>
	<g>
		<path d="M347.84,34.8c-0.08,0-0.16-0.03-0.22-0.1l-0.8-0.91c-0.11-0.12-0.09-0.31,0.03-0.41c0.12-0.11,0.3-0.09,0.41,0.03
			l0.8,0.91c0.11,0.12,0.09,0.31-0.03,0.41C347.98,34.77,347.91,34.8,347.84,34.8z"/>
	</g>
	<g>
		<path d="M62.25,264.84c-0.03,0-0.07-0.01-0.1-0.02c-0.15-0.06-0.23-0.23-0.17-0.38l0.24-0.63c0.06-0.15,0.23-0.23,0.38-0.17
			c0.15,0.06,0.23,0.23,0.17,0.38l-0.24,0.63C62.48,264.77,62.37,264.84,62.25,264.84z"/>
	</g>
	<g>
		<path d="M137.69,257.6c-0.11,0-0.21-0.06-0.26-0.17l-0.11-0.24c-0.07-0.15-0.01-0.32,0.14-0.39c0.15-0.07,0.32-0.01,0.39,0.14
			l0.11,0.24c0.07,0.15,0.01,0.32-0.14,0.39C137.78,257.6,137.73,257.6,137.69,257.6z"/>
	</g>
	<g>
		<path d="M142.81,318.53c-0.05,0-0.11-0.01-0.16-0.05c-0.14-0.09-0.18-0.27-0.09-0.4l0.2-0.32c0.09-0.14,0.27-0.17,0.4-0.09
			c0.14,0.09,0.18,0.27,0.09,0.4l-0.2,0.32C143,318.49,142.91,318.53,142.81,318.53z"/>
	</g>
	<g>
		<path d="M345.57,243.97c-0.01,0-0.02,0-0.04,0c-0.16-0.02-0.27-0.16-0.25-0.32l0.12-0.96c0.02-0.16,0.17-0.27,0.32-0.25
			c0.16,0.02,0.27,0.16,0.25,0.32l-0.12,0.96C345.84,243.86,345.71,243.97,345.57,243.97z"/>
	</g>
	<g>
		<path d="M169.13,40.84c-0.02,0-0.04,0-0.06-0.01c-0.16-0.03-0.26-0.19-0.22-0.35l0.19-0.87c0.03-0.16,0.19-0.26,0.35-0.22
			c0.16,0.03,0.26,0.19,0.22,0.35l-0.19,0.87C169.38,40.75,169.26,40.84,169.13,40.84z"/>
	</g>
	<g>
		<path d="M26.94,230.07c-0.07,0-0.13-0.02-0.19-0.07l-0.36-0.3c-0.12-0.1-0.14-0.29-0.04-0.41c0.1-0.12,0.29-0.14,0.41-0.04
			l0.36,0.3c0.12,0.1,0.14,0.29,0.04,0.41C27.11,230.04,27.03,230.07,26.94,230.07z"/>
	</g>
	<g>
		<path d="M192.98,144.73c-0.13,0-0.24-0.08-0.28-0.21l-0.12-0.41c-0.05-0.15,0.04-0.32,0.19-0.36c0.16-0.05,0.32,0.04,0.36,0.19
			l0.12,0.41c0.05,0.15-0.04,0.32-0.19,0.36C193.04,144.73,193.01,144.73,192.98,144.73z"/>
	</g>
	<g>
		<path d="M176.83,99.68c-0.09,0-0.17-0.04-0.23-0.11c-0.1-0.13-0.07-0.31,0.05-0.41l0.24-0.19c0.13-0.1,0.31-0.08,0.41,0.05
			c0.1,0.13,0.07,0.31-0.05,0.41l-0.24,0.19C176.96,99.66,176.89,99.68,176.83,99.68z"/>
	</g>
	<g>
		<path d="M284.81,148.77c-0.04,0-0.09-0.01-0.13-0.03c-0.14-0.07-0.21-0.24-0.14-0.39l0.24-0.5c0.07-0.15,0.25-0.21,0.39-0.14
			c0.14,0.07,0.21,0.24,0.14,0.39l-0.24,0.5C285.03,148.71,284.92,148.77,284.81,148.77z"/>
	</g>
	<g>
		<path d="M294.73,184.13c-0.15,0-0.28-0.12-0.29-0.27c-0.01-0.16,0.11-0.3,0.27-0.31l0.84-0.06c0.16-0.01,0.3,0.11,0.31,0.27
			c0.01,0.16-0.11,0.3-0.27,0.31l-0.84,0.06C294.75,184.13,294.74,184.13,294.73,184.13z"/>
	</g>
	<g>
		<path d="M126.46,118.68c-0.1,0-0.19-0.05-0.25-0.14l-0.65-1.05c-0.08-0.14-0.04-0.32,0.09-0.4c0.14-0.08,0.32-0.04,0.4,0.09
			l0.65,1.05c0.08,0.14,0.04,0.32-0.09,0.4C126.57,118.66,126.51,118.68,126.46,118.68z"/>
	</g>
	<g>
		<path d="M311.6,101.67c-0.11,0-0.22-0.07-0.27-0.18c-0.06-0.15,0-0.32,0.15-0.38l0.27-0.12c0.15-0.06,0.32,0,0.38,0.15
			c0.06,0.15,0,0.32-0.15,0.38l-0.27,0.12C311.68,101.66,311.64,101.67,311.6,101.67z"/>
	</g>
	<g>
		<path d="M243.05,267.76c-0.01,0-0.03,0-0.04,0l-0.41-0.05c-0.16-0.02-0.27-0.17-0.25-0.33c0.02-0.16,0.17-0.27,0.33-0.25
			l0.41,0.05c0.16,0.02,0.27,0.17,0.25,0.33C243.32,267.65,243.2,267.76,243.05,267.76z"/>
	</g>
	<g>
		<path d="M80.06,171.12c-0.05,0-0.11-0.01-0.16-0.04l-0.85-0.53c-0.14-0.09-0.18-0.27-0.09-0.4c0.09-0.14,0.27-0.18,0.4-0.09
			l0.85,0.53c0.14,0.09,0.18,0.27,0.09,0.4C80.25,171.07,80.16,171.12,80.06,171.12z"/>
	</g>
	<g>
		<path d="M26.66,213.94c-0.05,0-0.1-0.01-0.14-0.04c-0.14-0.08-0.19-0.26-0.11-0.4l0.37-0.66c0.08-0.14,0.26-0.19,0.4-0.11
			c0.14,0.08,0.19,0.26,0.11,0.4l-0.37,0.66C26.86,213.89,26.76,213.94,26.66,213.94z"/>
	</g>
	<g>
		<path d="M163.49,190.42c-0.07,0-0.14-0.03-0.2-0.08l-0.46-0.42c-0.12-0.11-0.13-0.29-0.02-0.41c0.11-0.12,0.29-0.13,0.41-0.02
			l0.46,0.42c0.12,0.11,0.13,0.29,0.02,0.41C163.65,190.39,163.57,190.42,163.49,190.42z"/>
	</g>
	<g>
		<path d="M347.71,207.33c-0.06,0-0.12-0.02-0.18-0.06l-0.56-0.43c-0.13-0.1-0.15-0.28-0.05-0.41c0.1-0.13,0.28-0.15,0.41-0.05
			l0.56,0.43c0.13,0.1,0.15,0.28,0.05,0.41C347.89,207.29,347.8,207.33,347.71,207.33z"/>
	</g>
	<g>
		<path d="M55.8,187.46c-0.14,0-0.27-0.11-0.29-0.25c-0.02-0.16,0.09-0.31,0.25-0.33l0.37-0.05c0.16-0.02,0.31,0.09,0.33,0.25
			c0.02,0.16-0.09,0.31-0.25,0.33l-0.37,0.05C55.82,187.46,55.81,187.46,55.8,187.46z"/>
	</g>
	<g>
		<path d="M280.07,233.83c-0.07,0-0.15-0.03-0.2-0.08c-0.12-0.11-0.12-0.3-0.01-0.41l0.45-0.47c0.11-0.12,0.3-0.12,0.41-0.01
			c0.12,0.11,0.12,0.3,0.01,0.41l-0.45,0.47C280.22,233.8,280.14,233.83,280.07,233.83z"/>
	</g>
	<g>
		<path d="M143.71,111c-0.05,0-0.11-0.01-0.16-0.05l-0.24-0.15c-0.14-0.09-0.18-0.27-0.09-0.4c0.09-0.14,0.27-0.18,0.4-0.09
			l0.24,0.15c0.14,0.09,0.18,0.27,0.09,0.4C143.9,110.95,143.81,111,143.71,111z"/>
	</g>
	<g>
		<path d="M127.95,321.6c-0.04,0-0.08-0.01-0.12-0.03c-0.15-0.07-0.21-0.24-0.14-0.39l0.16-0.33c0.07-0.15,0.24-0.21,0.39-0.14
			c0.15,0.07,0.21,0.24,0.14,0.39l-0.16,0.33C128.17,321.54,128.06,321.6,127.95,321.6z"/>
	</g>
	<g>
		<path d="M346.29,322.5c-0.02,0-0.04,0-0.06-0.01l-0.47-0.09c-0.16-0.03-0.26-0.18-0.23-0.34c0.03-0.16,0.18-0.26,0.34-0.23
			l0.47,0.09c0.16,0.03,0.26,0.18,0.23,0.34C346.55,322.4,346.42,322.5,346.29,322.5z"/>
	</g>
	<g>
		<path d="M294.59,13.97c-0.02,0-0.05,0-0.07-0.01c-0.16-0.04-0.25-0.2-0.21-0.36l0.06-0.23c0.04-0.15,0.2-0.25,0.36-0.21
			c0.16,0.04,0.25,0.2,0.21,0.36l-0.06,0.23C294.83,13.88,294.71,13.97,294.59,13.97z"/>
	</g>
	<g>
		<path d="M240.35,291.1c-0.12,0-0.23-0.08-0.28-0.2c-0.05-0.15,0.03-0.32,0.18-0.37l0.21-0.07c0.15-0.05,0.32,0.03,0.37,0.18
			c0.05,0.15-0.03,0.32-0.18,0.37l-0.21,0.07C240.41,291.09,240.38,291.1,240.35,291.1z"/>
	</g>
	<g>
		<path d="M315.58,321.85c-0.08,0-0.16-0.03-0.22-0.1c-0.11-0.12-0.1-0.3,0.02-0.41l0.39-0.36c0.12-0.11,0.3-0.1,0.41,0.02
			c0.11,0.12,0.1,0.3-0.02,0.41l-0.39,0.36C315.72,321.83,315.65,321.85,315.58,321.85z"/>
	</g>
	<g>
		<path d="M59.72,171.99c-0.07,0-0.13-0.02-0.19-0.07l-0.28-0.24c-0.12-0.1-0.14-0.29-0.04-0.41c0.1-0.12,0.29-0.14,0.41-0.04
			l0.28,0.24c0.12,0.1,0.14,0.29,0.04,0.41C59.89,171.95,59.8,171.99,59.72,171.99z"/>
	</g>
	<g>
		<path d="M167.24,277.81c-0.09,0-0.19-0.05-0.24-0.13l-0.15-0.22c-0.09-0.13-0.05-0.32,0.08-0.4c0.13-0.09,0.31-0.05,0.4,0.08
			l0.15,0.22c0.09,0.13,0.05,0.32-0.08,0.4C167.35,277.8,167.29,277.81,167.24,277.81z"/>
	</g>
	<g>
		<path d="M44.06,158.12c-0.02,0-0.04,0-0.06-0.01c-0.16-0.03-0.26-0.19-0.22-0.35l0.17-0.81c0.03-0.16,0.19-0.26,0.35-0.22
			c0.16,0.03,0.26,0.19,0.22,0.35l-0.17,0.81C44.31,158.02,44.19,158.12,44.06,158.12z"/>
	</g>
	<g>
		<path d="M269.85,244.99c-0.13,0-0.25-0.09-0.28-0.23c-0.03-0.16,0.07-0.31,0.22-0.35l0.22-0.05c0.16-0.03,0.31,0.07,0.35,0.22
			c0.03,0.16-0.07,0.31-0.22,0.35l-0.22,0.05C269.89,244.99,269.87,244.99,269.85,244.99z"/>
	</g>
	<g>
		<path d="M67.09,199.37c-0.14,0-0.26-0.1-0.29-0.24c-0.03-0.16,0.08-0.31,0.24-0.34l0.26-0.04c0.15-0.03,0.31,0.08,0.34,0.24
			c0.03,0.16-0.08,0.31-0.24,0.34l-0.26,0.04C67.12,199.37,67.11,199.37,67.09,199.37z"/>
	</g>
	<g>
		<path d="M174.83,116.46c-0.07,0-0.13-0.02-0.19-0.07c-0.12-0.1-0.14-0.29-0.04-0.41l0.48-0.57c0.1-0.12,0.29-0.14,0.41-0.04
			c0.12,0.1,0.14,0.29,0.04,0.41l-0.48,0.57C175,116.42,174.91,116.46,174.83,116.46z"/>
	</g>
	<g>
		<path d="M285.12,134.67c-0.1,0-0.19-0.05-0.25-0.14l-0.29-0.49c-0.08-0.14-0.04-0.32,0.1-0.4c0.14-0.08,0.32-0.04,0.4,0.1
			l0.29,0.49c0.08,0.14,0.04,0.32-0.1,0.4C285.22,134.65,285.17,134.67,285.12,134.67z"/>
	</g>
	<g>
		<path d="M182.36,43.58c-0.14,0-0.26-0.1-0.29-0.23c-0.03-0.16,0.07-0.31,0.23-0.34l0.44-0.09c0.16-0.03,0.31,0.07,0.34,0.23
			c0.03,0.16-0.07,0.31-0.23,0.34l-0.44,0.09C182.4,43.58,182.38,43.58,182.36,43.58z"/>
	</g>
	<g>
		<path d="M313.9,204.33c-0.04,0-0.09-0.01-0.13-0.03c-0.14-0.07-0.2-0.25-0.13-0.39l0.12-0.24c0.07-0.14,0.25-0.2,0.39-0.13
			c0.14,0.07,0.2,0.25,0.13,0.39l-0.12,0.24C314.11,204.27,314.01,204.33,313.9,204.33z"/>
	</g>
	<g>
		<path d="M119.34,254.79c-0.16,0-0.29-0.13-0.29-0.29c0-0.16,0.13-0.29,0.29-0.29l1.19-0.01c0,0,0,0,0,0
			c0.16,0,0.29,0.13,0.29,0.29c0,0.16-0.13,0.29-0.29,0.29L119.34,254.79C119.35,254.79,119.34,254.79,119.34,254.79z"/>
	</g>
	<g>
		<path d="M192.06,209.38c-0.06,0-0.13-0.02-0.18-0.06l-0.21-0.16c-0.13-0.1-0.15-0.28-0.05-0.41c0.1-0.13,0.28-0.15,0.41-0.05
			l0.21,0.16c0.13,0.1,0.15,0.28,0.05,0.41C192.24,209.34,192.15,209.38,192.06,209.38z"/>
	</g>
	<g>
		<path d="M316.73,164.08c-0.16,0-0.29-0.13-0.29-0.29l-0.01-0.59c0-0.16,0.13-0.29,0.29-0.3c0.16,0.01,0.29,0.13,0.3,0.29
			l0.01,0.59C317.03,163.94,316.9,164.07,316.73,164.08C316.73,164.08,316.73,164.08,316.73,164.08z"/>
	</g>
	<g>
		<path d="M124.2,133.87c-0.14,0-0.26-0.1-0.29-0.24c-0.03-0.16,0.07-0.31,0.23-0.34l0.39-0.07c0.16-0.03,0.31,0.07,0.34,0.23
			c0.03,0.16-0.07,0.31-0.23,0.34l-0.39,0.07C124.23,133.87,124.21,133.87,124.2,133.87z"/>
	</g>
	<g>
		<path d="M303.9,2.63c-0.01,0-0.02,0-0.03,0l-1.09-0.11c-0.16-0.02-0.28-0.16-0.26-0.32c0.02-0.16,0.16-0.28,0.32-0.26l1.09,0.11
			c0.16,0.02,0.28,0.16,0.26,0.32C304.17,2.52,304.05,2.63,303.9,2.63z"/>
	</g>
	<g>
		<path d="M27.15,58.16c-0.09,0-0.17-0.04-0.23-0.11c-0.1-0.13-0.08-0.31,0.05-0.41l0.46-0.36c0.13-0.1,0.31-0.08,0.41,0.05
			c0.1,0.13,0.08,0.31-0.05,0.41l-0.46,0.36C27.27,58.14,27.21,58.16,27.15,58.16z"/>
	</g>
	<g>
		<path d="M110.78,124.28c-0.02,0-0.04,0-0.06-0.01c-0.16-0.03-0.26-0.19-0.23-0.34l0.17-0.82c0.03-0.16,0.19-0.26,0.34-0.23
			c0.16,0.03,0.26,0.19,0.23,0.34l-0.17,0.82C111.03,124.18,110.91,124.28,110.78,124.28z"/>
	</g>
	<g>
		<path d="M173.23,69.73c-0.08,0-0.16-0.03-0.22-0.1l-0.58-0.66c-0.11-0.12-0.09-0.31,0.03-0.41c0.12-0.11,0.31-0.09,0.41,0.03
			l0.58,0.66c0.11,0.12,0.09,0.31-0.03,0.41C173.37,69.71,173.3,69.73,173.23,69.73z"/>
	</g>
	<g>
		<path d="M163.67,54.62c-0.05,0-0.11-0.01-0.15-0.04l-0.26-0.16c-0.14-0.08-0.18-0.26-0.09-0.4c0.09-0.14,0.27-0.18,0.4-0.09
			l0.26,0.16c0.14,0.08,0.18,0.26,0.09,0.4C163.86,54.57,163.76,54.62,163.67,54.62z"/>
	</g>
	<g>
		<path d="M218.69,242.65c-0.07,0-0.14-0.02-0.19-0.07c-0.12-0.11-0.13-0.29-0.03-0.41l0.32-0.36c0.11-0.12,0.29-0.13,0.41-0.03
			c0.12,0.11,0.13,0.29,0.03,0.41l-0.32,0.36C218.85,242.62,218.77,242.65,218.69,242.65z"/>
	</g>
	<g>
		<path d="M151.36,246.38c-0.03,0-0.07-0.01-0.1-0.02l-0.26-0.09c-0.15-0.06-0.23-0.22-0.17-0.37c0.06-0.15,0.22-0.23,0.37-0.17
			l0.26,0.09c0.15,0.06,0.23,0.22,0.17,0.37C151.59,246.31,151.48,246.38,151.36,246.38z"/>
	</g>
	<g>
		<path d="M330.47,322.01c-0.1,0-0.2-0.06-0.26-0.15c-0.08-0.14-0.02-0.32,0.12-0.4l0.77-0.42c0.14-0.08,0.32-0.02,0.4,0.12
			c0.08,0.14,0.02,0.32-0.12,0.4l-0.77,0.42C330.57,321.99,330.52,322.01,330.47,322.01z"/>
	</g>
	<g>
		<path d="M282.54,189.34c-0.14,0-0.27-0.1-0.29-0.25l-0.08-0.54c-0.02-0.16,0.08-0.31,0.24-0.33c0.16-0.02,0.31,0.08,0.33,0.24
			l0.08,0.54c0.02,0.16-0.08,0.31-0.24,0.33C282.57,189.34,282.56,189.34,282.54,189.34z"/>
	</g>
	<g>
		<path d="M318.48,4.58c-0.05,0-0.1-0.01-0.14-0.04c-0.14-0.08-0.19-0.26-0.11-0.4l0.62-1.12c0.08-0.14,0.26-0.19,0.4-0.11
			c0.14,0.08,0.19,0.26,0.11,0.4l-0.62,1.12C318.68,4.53,318.58,4.58,318.48,4.58z"/>
	</g>
	<g>
		<path d="M299.11,128.75c-0.01,0-0.01,0-0.02,0l-0.88-0.05c-0.16-0.01-0.28-0.15-0.27-0.31c0.01-0.16,0.15-0.28,0.31-0.27
			l0.88,0.05c0.16,0.01,0.28,0.15,0.27,0.31C299.39,128.63,299.26,128.75,299.11,128.75z"/>
	</g>
	<g>
		<path d="M331.99,278.99c-0.03,0-0.07-0.01-0.1-0.02l-0.42-0.16c-0.15-0.06-0.23-0.23-0.17-0.38c0.06-0.15,0.23-0.22,0.38-0.17
			l0.42,0.16c0.15,0.06,0.23,0.23,0.17,0.38C332.22,278.92,332.11,278.99,331.99,278.99z"/>
	</g>
	<g>
		<path d="M102.49,162.25c-0.02,0-0.05,0-0.07-0.01c-0.16-0.04-0.25-0.2-0.21-0.35l0.06-0.23c0.04-0.16,0.2-0.25,0.35-0.21
			c0.16,0.04,0.25,0.2,0.21,0.35l-0.06,0.23C102.74,162.16,102.63,162.25,102.49,162.25z"/>
	</g>
	<g>
		<path d="M311.73,120.15c-0.12,0-0.23-0.08-0.28-0.2l-0.21-0.6c-0.05-0.15,0.03-0.32,0.18-0.37c0.15-0.05,0.32,0.03,0.37,0.18
			l0.21,0.6c0.05,0.15-0.03,0.32-0.18,0.37C311.8,120.15,311.77,120.15,311.73,120.15z"/>
	</g>
</g>
</svg>
