<?xml version="1.0" encoding="utf-8"?>
<!-- Generator: Adobe Illustrator 25.2.1, SVG Export Plug-In . SVG Version: 6.00 Build 0)  -->
<svg version="1.1" id="Layer_1" xmlns="http://www.w3.org/2000/svg" xmlns:xlink="http://www.w3.org/1999/xlink" x="0px" y="0px"
	 viewBox="0 0 372 325" style="enable-background:new 0 0 372 325;" xml:space="preserve">
<style type="text/css">
	.st0{fill:#3A3634;}
	.st1{fill:#B8B8B8;}
	.st2{fill:#C9C5C2;}
	.st3{fill-rule:evenodd;clip-rule:evenodd;}
	.st4{fill:none;stroke:#000000;stroke-width:0.5;stroke-miterlimit:10;}
	.st5{fill:#2D3843;}
	.st6{clip-path:url(#SVGID_2_);fill:none;stroke:#000000;stroke-miterlimit:10;}
	.st7{clip-path:url(#SVGID_2_);}
	.st8{fill:none;stroke:#000000;stroke-miterlimit:10;}
	.st9{fill:none;stroke:#000000;stroke-linecap:round;stroke-miterlimit:10;}
</style>
<g>
	<path d="M360.12,0.48h-0.83h-1.51h-0.48c-10.4,8.59-17.47,21.31-18.85,35.73h-0.05c-0.1,1.17-0.17,2.34-0.19,3.52
		c-4.75-3.95-8.78-8.78-11.85-14.26c3.27-6.08,5.41-12.91,6.1-20.16h0.05c0.12-1.48,0.21-2.97,0.21-4.48c0-0.12,0-0.24-0.01-0.36
		h-1.51c-0.01,1.21-0.06,2.4-0.15,3.59c-0.02,0.31-0.05,0.62-0.08,0.92c-0.63,6.76-2.54,13.14-5.48,18.87
		c-2.94-5.73-4.86-12.1-5.48-18.86c-0.03-0.32-0.05-0.64-0.08-0.97c-0.09-1.17-0.14-2.36-0.14-3.55h-1.51
		c0,0.12-0.01,0.24-0.01,0.36c0,1.51,0.08,3,0.21,4.48h0.05c0.7,7.25,2.83,14.08,6.1,20.16c-3.07,5.48-7.1,10.31-11.85,14.26
		c-0.03-1.18-0.1-2.36-0.19-3.52h-0.05c-1.38-14.42-8.44-27.14-18.85-35.73h-0.48h-1.51h-0.83c-4.72,3.9-8.75,8.64-11.88,14.01
		c-3.13-5.37-7.16-10.12-11.88-14.01h-0.83h-1.51h-0.48c-10.4,8.59-17.47,21.31-18.85,35.73h-0.05c-0.1,1.17-0.17,2.34-0.19,3.52
		c-4.75-3.95-8.78-8.78-11.85-14.26c3.27-6.08,5.41-12.91,6.1-20.16h0.05c0.12-1.48,0.21-2.97,0.21-4.48c0-0.12,0-0.24-0.01-0.36
		h-1.51c-0.01,1.21-0.06,2.4-0.15,3.59c-0.02,0.31-0.05,0.62-0.08,0.92c-0.63,6.76-2.54,13.14-5.48,18.87
		c-2.94-5.73-4.86-12.1-5.48-18.86c-0.03-0.32-0.05-0.64-0.08-0.97c-0.09-1.17-0.14-2.36-0.14-3.55h-1.51
		c0,0.12-0.01,0.24-0.01,0.36c0,1.51,0.08,3,0.21,4.48h0.05c0.7,7.25,2.83,14.08,6.1,20.16c-3.07,5.48-7.1,10.31-11.85,14.26
		c-0.03-1.18-0.1-2.36-0.19-3.52h-0.05c-1.38-14.42-8.44-27.14-18.85-35.73h-0.48h-1.51h-0.83c-4.72,3.9-8.75,8.64-11.88,14.01
		c-3.13-5.37-7.16-10.12-11.88-14.01h-0.83h-1.51h-0.48c-10.4,8.59-17.47,21.31-18.85,35.73h-0.05c-0.1,1.17-0.17,2.34-0.19,3.52
		c-4.75-3.95-8.78-8.78-11.85-14.26c3.27-6.08,5.41-12.91,6.1-20.16h0.05c0.12-1.48,0.21-2.97,0.21-4.48c0-0.12,0-0.24,0-0.36h-1.51
		c-0.01,1.21-0.06,2.4-0.15,3.59c-0.02,0.31-0.05,0.62-0.08,0.92c-0.63,6.76-2.54,13.14-5.48,18.87c-2.94-5.73-4.86-12.1-5.48-18.86
		c-0.03-0.32-0.05-0.64-0.08-0.97c-0.09-1.17-0.14-2.36-0.14-3.55h-1.51c0,0.12,0,0.24,0,0.36c0,1.51,0.08,3,0.21,4.48h0.05
		c0.69,7.25,2.83,14.08,6.1,20.16c-3.07,5.48-7.1,10.31-11.85,14.26c-0.03-1.18-0.1-2.36-0.19-3.52h-0.05
		c-1.38-14.42-8.44-27.14-18.85-35.73h-0.48h-1.51h-0.83C100.16,4.38,96.13,9.13,93,14.5C89.87,9.13,85.84,4.38,81.12,0.48h-0.83
		h-1.51H78.3C67.9,9.08,60.84,21.79,59.45,36.21h-0.05c-0.1,1.17-0.17,2.34-0.19,3.52c-4.75-3.95-8.78-8.78-11.85-14.26
		c3.27-6.08,5.41-12.91,6.1-20.16h0.05c0.12-1.48,0.21-2.97,0.21-4.48c0-0.12,0-0.24,0-0.36h-1.51c-0.01,1.21-0.06,2.4-0.15,3.59
		C52.04,4.38,52.01,4.69,51.98,5c-0.63,6.76-2.54,13.14-5.48,18.87c-2.94-5.73-4.86-12.1-5.48-18.86c-0.03-0.32-0.05-0.64-0.08-0.97
		c-0.09-1.17-0.14-2.36-0.14-3.55h-1.51c0,0.12,0,0.24,0,0.36c0,1.51,0.08,3,0.21,4.48h0.05c0.69,7.25,2.83,14.08,6.1,20.16
		c-3.07,5.48-7.1,10.31-11.85,14.26c-0.03-1.18-0.1-2.36-0.19-3.52h-0.05C32.16,21.79,25.1,9.08,14.7,0.48h-0.48h-1.51h-0.83
		C7.16,4.38,3.13,9.13,0,14.5v0v3.17c2.95,5.73,4.86,12.11,5.48,18.87c0.03,0.31,0.05,0.61,0.08,0.92c0.09,1.19,0.14,2.38,0.15,3.59
		c-0.01,1.21-0.06,2.4-0.15,3.59c-0.02,0.31-0.05,0.62-0.08,0.93C4.86,52.32,2.95,58.7,0,64.43v3.17v0
		c3.13,5.37,7.16,10.12,11.88,14.01h0C7.16,85.51,3.13,90.26,0,95.63v0v3.17c2.95,5.73,4.86,12.11,5.48,18.87
		c0.03,0.31,0.05,0.61,0.08,0.92c0.09,1.19,0.14,2.38,0.15,3.59c-0.01,1.21-0.06,2.4-0.15,3.59c-0.02,0.31-0.05,0.62-0.08,0.93
		c-0.63,6.76-2.54,13.14-5.48,18.87v3.17c3.13,5.37,7.16,10.12,11.88,14.01h0c-4.72,3.9-8.75,8.64-11.88,14.01v0v3.17
		c2.95,5.73,4.86,12.11,5.48,18.87c0.03,0.31,0.05,0.61,0.08,0.92c0.09,1.19,0.14,2.38,0.15,3.59c-0.01,1.21-0.06,2.4-0.15,3.59
		c-0.02,0.31-0.05,0.62-0.08,0.93c-0.63,6.76-2.54,13.14-5.48,18.87v3.17c3.13,5.37,7.16,10.12,11.88,14.01h0
		c-4.72,3.9-8.75,8.65-11.88,14.01v3.17c2.95,5.73,4.86,12.11,5.48,18.87c0.03,0.31,0.05,0.61,0.08,0.92
		c0.09,1.19,0.14,2.38,0.15,3.59c-0.01,1.21-0.06,2.4-0.15,3.59c-0.02,0.31-0.05,0.62-0.08,0.93c-0.63,6.76-2.54,13.14-5.48,18.87
		v3.17c3.13,5.37,7.16,10.12,11.88,14.01h0.83h1.51h0.48c10.4-8.59,17.47-21.31,18.85-35.73h0.05c0.1-1.17,0.17-2.34,0.19-3.52
		c4.75,3.95,8.78,8.78,11.85,14.26c-3.27,6.08-5.41,12.91-6.1,20.16h-0.05c-0.12,1.48-0.21,2.97-0.21,4.48c0,0.12,0,0.24,0,0.36
		h1.51c0.01-1.2,0.06-2.38,0.14-3.56c0.02-0.32,0.05-0.64,0.08-0.96c0.63-6.76,2.54-13.13,5.48-18.86
		c2.95,5.73,4.86,12.11,5.48,18.87c0.03,0.31,0.05,0.61,0.08,0.92c0.09,1.19,0.14,2.38,0.15,3.59h1.51c0-0.12,0-0.24,0-0.36
		c0-1.51-0.08-3-0.21-4.48h-0.05c-0.69-7.25-2.83-14.08-6.1-20.16c3.07-5.48,7.1-10.31,11.85-14.26c0.03,1.18,0.1,2.36,0.19,3.52
		h0.05c1.38,14.42,8.44,27.14,18.85,35.73h0.48h1.51h0.83c4.72-3.9,8.75-8.65,11.88-14.01c3.13,5.37,7.16,10.12,11.88,14.01h0.83
		h1.51h0.48c10.4-8.59,17.47-21.31,18.85-35.73h0.05c0.1-1.17,0.17-2.34,0.19-3.52c4.75,3.95,8.78,8.78,11.85,14.26
		c-3.27,6.08-5.41,12.91-6.1,20.16h-0.05c-0.12,1.48-0.21,2.97-0.21,4.48c0,0.12,0,0.24,0,0.36h1.51c0.01-1.2,0.06-2.38,0.14-3.56
		c0.02-0.32,0.05-0.64,0.08-0.96c0.63-6.76,2.54-13.13,5.48-18.86c2.95,5.73,4.86,12.11,5.48,18.87c0.03,0.31,0.05,0.61,0.08,0.92
		c0.09,1.19,0.14,2.38,0.15,3.59h1.51c0-0.12,0-0.24,0-0.36c0-1.51-0.08-3-0.21-4.48h-0.05c-0.69-7.25-2.83-14.08-6.1-20.16
		c3.07-5.48,7.1-10.31,11.85-14.26c0.03,1.18,0.1,2.36,0.19,3.52h0.05c1.38,14.42,8.44,27.14,18.85,35.73h0.48h1.51h0.83
		c4.72-3.9,8.75-8.65,11.88-14.01c3.13,5.37,7.16,10.12,11.88,14.01h0.83h1.51h0.48c10.4-8.59,17.47-21.31,18.85-35.73h0.05
		c0.1-1.17,0.17-2.34,0.19-3.52c4.75,3.95,8.78,8.78,11.85,14.26c-3.27,6.08-5.41,12.91-6.1,20.16h-0.05
		c-0.12,1.48-0.21,2.97-0.21,4.48c0,0.12,0,0.24,0.01,0.36h1.51c0.01-1.2,0.06-2.38,0.14-3.56c0.02-0.32,0.05-0.64,0.08-0.96
		c0.63-6.76,2.54-13.13,5.48-18.86c2.95,5.73,4.86,12.11,5.48,18.87c0.03,0.31,0.05,0.61,0.08,0.92c0.09,1.19,0.14,2.38,0.15,3.59
		h1.51c0-0.12,0.01-0.24,0.01-0.36c0-1.51-0.08-3-0.21-4.48h-0.05c-0.7-7.25-2.83-14.08-6.1-20.16c3.07-5.48,7.1-10.31,11.85-14.26
		c0.03,1.18,0.1,2.36,0.19,3.52h0.05c1.38,14.42,8.44,27.14,18.85,35.73h0.48h1.51h0.83c4.72-3.9,8.75-8.65,11.88-14.01
		c3.13,5.37,7.16,10.12,11.88,14.01h0.83h1.51h0.48c10.4-8.59,17.47-21.31,18.85-35.73h0.05c0.1-1.17,0.17-2.34,0.19-3.52
		c4.75,3.95,8.78,8.78,11.85,14.26c-3.27,6.08-5.41,12.91-6.1,20.16h-0.05c-0.12,1.48-0.21,2.97-0.21,4.48c0,0.12,0,0.24,0.01,0.36
		h1.51c0.01-1.2,0.06-2.38,0.14-3.56c0.02-0.32,0.05-0.64,0.08-0.96c0.63-6.76,2.54-13.13,5.48-18.86
		c2.95,5.73,4.86,12.11,5.48,18.87c0.03,0.31,0.05,0.61,0.08,0.92c0.09,1.19,0.14,2.38,0.15,3.59h1.51c0-0.12,0.01-0.24,0.01-0.36
		c0-1.51-0.08-3-0.21-4.48h-0.05c-0.7-7.25-2.83-14.08-6.1-20.16c3.07-5.48,7.1-10.31,11.85-14.26c0.03,1.18,0.1,2.36,0.19,3.52
		h0.05c1.38,14.42,8.44,27.14,18.85,35.73h0.48h1.51h0.83c4.72-3.9,8.75-8.65,11.88-14.01v-3.17c-2.94-5.73-4.86-12.1-5.48-18.86
		c-0.03-0.32-0.06-0.65-0.08-0.97c-0.09-1.17-0.14-2.36-0.14-3.55c0.01-1.2,0.06-2.38,0.14-3.56c0.02-0.32,0.05-0.64,0.08-0.96
		c0.63-6.76,2.54-13.13,5.48-18.86v-3.17c-3.13-5.37-7.16-10.12-11.88-14.01c4.72-3.9,8.75-8.64,11.88-14.01v-3.17
		c-2.94-5.73-4.86-12.1-5.48-18.86c-0.03-0.32-0.06-0.65-0.08-0.97c-0.09-1.17-0.14-2.36-0.14-3.55c0.01-1.2,0.06-2.38,0.14-3.56
		c0.02-0.32,0.05-0.64,0.08-0.96c0.63-6.76,2.54-13.13,5.48-18.86v0v-3.17v0c-3.13-5.37-7.16-10.12-11.88-14.01
		c4.72-3.9,8.75-8.64,11.88-14.01v-3.17c-2.94-5.73-4.86-12.1-5.48-18.86c-0.03-0.32-0.06-0.65-0.08-0.97
		c-0.09-1.17-0.14-2.36-0.14-3.55c0.01-1.2,0.06-2.38,0.14-3.56c0.02-0.32,0.05-0.64,0.08-0.96c0.63-6.76,2.54-13.13,5.48-18.86v0
		v-3.17v0c-3.13-5.37-7.16-10.12-11.88-14.01c4.72-3.9,8.75-8.64,11.88-14.01v-3.17c-2.94-5.73-4.86-12.1-5.48-18.86
		c-0.03-0.32-0.06-0.65-0.08-0.97c-0.09-1.17-0.14-2.36-0.14-3.55c0.01-1.2,0.06-2.38,0.14-3.56c0.02-0.32,0.05-0.64,0.08-0.96
		c0.63-6.76,2.54-13.13,5.48-18.86v0V14.5v0C368.87,9.13,364.84,4.38,360.12,0.48z M339.86,37.49c0.02-0.32,0.05-0.64,0.08-0.96
		c1.28-13.82,7.95-26.05,17.81-34.41c-0.02,0.64-0.06,1.28-0.11,1.92c-0.02,0.32-0.05,0.65-0.08,0.97
		c-1.28,13.82-7.95,26.05-17.81,34.41C339.78,38.77,339.81,38.13,339.86,37.49z M357.56,77.09c0.03,0.32,0.05,0.64,0.08,0.96
		c0.05,0.64,0.08,1.28,0.11,1.92c-9.86-8.36-16.53-20.58-17.81-34.41c-0.03-0.32-0.05-0.64-0.08-0.97
		c-0.05-0.64-0.08-1.28-0.11-1.92C349.61,51.05,356.28,63.27,357.56,77.09z M357.75,164.38c-0.02,0.64-0.06,1.28-0.11,1.92
		c-0.02,0.32-0.05,0.65-0.08,0.97c-1.28,13.82-7.95,26.05-17.81,34.41c0.02-0.64,0.06-1.28,0.11-1.92c0.02-0.32,0.05-0.64,0.08-0.96
		C341.22,184.96,347.89,172.74,357.75,164.38z M338.45,198.47h-0.05c-0.1,1.17-0.17,2.34-0.19,3.52
		c-4.75-3.95-8.78-8.78-11.85-14.26c3.27-6.08,5.41-12.91,6.1-20.16h0.05c0.12-1.48,0.21-2.97,0.21-4.48c0-0.12,0-0.24-0.01-0.36
		c0-0.12,0.01-0.24,0.01-0.36c0-1.51-0.08-3-0.21-4.48h-0.05c-0.7-7.25-2.83-14.08-6.1-20.16c3.07-5.48,7.1-10.31,11.85-14.26
		c0.03,1.18,0.1,2.36,0.19,3.52h0.05c1.38,14.42,8.44,27.14,18.85,35.73C346.9,171.33,339.84,184.05,338.45,198.47z M357.56,239.35
		c0.03,0.32,0.05,0.64,0.08,0.96c0.05,0.64,0.08,1.28,0.11,1.92c-9.86-8.36-16.53-20.58-17.81-34.41c-0.03-0.32-0.05-0.64-0.08-0.97
		c-0.05-0.64-0.08-1.28-0.11-1.92C349.61,213.3,356.28,225.53,357.56,239.35z M313.62,203.31c4.72-3.9,8.75-8.65,11.88-14.01
		c3.13,5.37,7.16,10.12,11.88,14.01c-4.72,3.9-8.75,8.65-11.88,14.01C322.37,211.95,318.34,207.2,313.62,203.31z M330.98,239.36
		c0.03,0.31,0.05,0.61,0.08,0.92c0.09,1.19,0.14,2.38,0.15,3.59c-0.01,1.21-0.06,2.4-0.15,3.59c-0.02,0.31-0.05,0.62-0.08,0.92
		c-0.63,6.76-2.54,13.14-5.48,18.87c-2.94-5.73-4.86-12.1-5.48-18.86c-0.03-0.32-0.05-0.64-0.08-0.97
		c-0.09-1.17-0.14-2.36-0.14-3.55c0.01-1.2,0.06-2.38,0.14-3.56c0.02-0.32,0.05-0.64,0.08-0.96c0.63-6.76,2.54-13.13,5.48-18.86
		C328.45,226.22,330.36,232.6,330.98,239.36z M220.62,203.31c4.72-3.9,8.75-8.65,11.88-14.01c3.13,5.37,7.16,10.12,11.88,14.01
		c-4.72,3.9-8.75,8.65-11.88,14.01C229.37,211.95,225.34,207.2,220.62,203.31z M237.98,239.36c0.03,0.31,0.05,0.61,0.08,0.92
		c0.09,1.19,0.14,2.38,0.15,3.59c-0.01,1.21-0.06,2.4-0.15,3.59c-0.02,0.31-0.05,0.62-0.08,0.92c-0.63,6.76-2.54,13.14-5.48,18.87
		c-2.94-5.73-4.86-12.1-5.48-18.86c-0.03-0.32-0.05-0.64-0.08-0.97c-0.09-1.17-0.14-2.36-0.14-3.55c0.01-1.2,0.06-2.38,0.14-3.56
		c0.02-0.32,0.05-0.64,0.08-0.96c0.63-6.76,2.54-13.13,5.48-18.86C235.45,226.22,237.36,232.6,237.98,239.36z M127.62,203.31
		c4.72-3.9,8.75-8.65,11.88-14.01c3.13,5.37,7.16,10.12,11.88,14.01c-4.72,3.9-8.75,8.65-11.88,14.01
		C136.37,211.95,132.34,207.2,127.62,203.31z M144.98,239.36c0.03,0.31,0.05,0.61,0.08,0.92c0.09,1.19,0.14,2.38,0.15,3.59
		c-0.01,1.21-0.06,2.4-0.15,3.59c-0.02,0.31-0.05,0.62-0.08,0.92c-0.63,6.76-2.54,13.14-5.48,18.87c-2.94-5.73-4.86-12.1-5.48-18.86
		c-0.03-0.32-0.05-0.64-0.08-0.97c-0.09-1.17-0.14-2.36-0.14-3.55c0.01-1.2,0.06-2.38,0.14-3.56c0.02-0.32,0.05-0.64,0.08-0.96
		c0.63-6.76,2.54-13.13,5.48-18.86C142.45,226.22,144.36,232.6,144.98,239.36z M34.62,203.31c4.72-3.9,8.75-8.65,11.88-14.01
		c3.13,5.37,7.16,10.12,11.88,14.01c-4.72,3.9-8.75,8.65-11.88,14.01C43.37,211.95,39.34,207.2,34.62,203.31z M51.98,239.36
		c0.03,0.31,0.05,0.61,0.08,0.92c0.09,1.19,0.14,2.38,0.15,3.59c-0.01,1.21-0.06,2.4-0.15,3.59c-0.02,0.31-0.05,0.62-0.08,0.92
		c-0.63,6.76-2.54,13.14-5.48,18.87c-2.94-5.73-4.86-12.1-5.48-18.86c-0.03-0.32-0.05-0.64-0.08-0.97
		c-0.09-1.17-0.14-2.36-0.14-3.55c0.01-1.2,0.06-2.38,0.14-3.56c0.02-0.32,0.05-0.64,0.08-0.96c0.63-6.76,2.54-13.13,5.48-18.86
		C49.45,226.22,51.36,232.6,51.98,239.36z M14.7,162.74c10.4-8.59,17.47-21.31,18.85-35.73h0.05c0.1-1.17,0.17-2.34,0.19-3.52
		c4.75,3.95,8.78,8.78,11.85,14.26c-3.27,6.08-5.41,12.91-6.1,20.16h-0.05c-0.12,1.48-0.21,2.97-0.21,4.48c0,0.12,0,0.24,0,0.36
		c0,0.12,0,0.24,0,0.36c0,1.51,0.08,3,0.21,4.48h0.05c0.69,7.25,2.83,14.08,6.1,20.16c-3.07,5.48-7.1,10.31-11.85,14.26
		c-0.03-1.18-0.1-2.36-0.19-3.52h-0.05C32.16,184.05,25.1,171.33,14.7,162.74z M32.25,201.67c-9.86-8.36-16.53-20.58-17.81-34.41
		c-0.03-0.32-0.05-0.64-0.08-0.97c-0.05-0.64-0.08-1.28-0.11-1.92c9.86,8.36,16.53,20.58,17.81,34.41c0.03,0.32,0.05,0.64,0.08,0.96
		C32.19,200.39,32.22,201.03,32.25,201.67z M14.25,161.11c0.02-0.64,0.06-1.28,0.11-1.92c0.02-0.32,0.05-0.64,0.08-0.96
		c1.28-13.82,7.95-26.05,17.81-34.41c-0.02,0.64-0.06,1.28-0.11,1.92c-0.02,0.32-0.05,0.65-0.08,0.97
		C30.78,140.52,24.11,152.74,14.25,161.11z M14.44,86.13c-0.03-0.32-0.05-0.64-0.08-0.97c-0.05-0.64-0.08-1.28-0.11-1.92
		c9.86,8.36,16.53,20.59,17.81,34.41c0.03,0.32,0.05,0.64,0.08,0.96c0.05,0.64,0.08,1.28,0.11,1.92
		C22.39,112.18,15.72,99.96,14.44,86.13z M58.38,122.18c-4.72,3.9-8.75,8.64-11.88,14.01c-3.13-5.37-7.16-10.12-11.88-14.01
		c4.72-3.9,8.75-8.64,11.88-14.01C49.63,113.53,53.66,118.28,58.38,122.18z M41.02,86.13c-0.03-0.32-0.05-0.64-0.08-0.97
		c-0.09-1.17-0.14-2.36-0.14-3.55c0.01-1.2,0.06-2.38,0.14-3.56c0.02-0.32,0.05-0.64,0.08-0.96c0.63-6.76,2.54-13.13,5.48-18.86
		c2.95,5.73,4.86,12.11,5.48,18.87c0.03,0.31,0.05,0.61,0.08,0.92c0.09,1.19,0.14,2.38,0.15,3.59c-0.01,1.21-0.06,2.4-0.15,3.59
		c-0.02,0.31-0.05,0.62-0.08,0.92c-0.63,6.76-2.54,13.14-5.48,18.87C43.56,99.26,41.64,92.89,41.02,86.13z M51.98,158.23
		c0.03,0.31,0.05,0.61,0.08,0.92c0.09,1.19,0.14,2.38,0.15,3.59c-0.01,1.21-0.06,2.4-0.15,3.59c-0.02,0.31-0.05,0.62-0.08,0.92
		c-0.63,6.76-2.54,13.14-5.48,18.87c-2.94-5.73-4.86-12.1-5.48-18.86c-0.03-0.32-0.05-0.64-0.08-0.97
		c-0.09-1.17-0.14-2.36-0.14-3.55c0.01-1.2,0.06-2.38,0.14-3.56c0.02-0.32,0.05-0.64,0.08-0.96c0.63-6.76,2.54-13.13,5.48-18.86
		C49.45,145.09,51.36,151.47,51.98,158.23z M47.37,187.74c3.27-6.08,5.41-12.91,6.1-20.16h0.05c0.12-1.48,0.21-2.97,0.21-4.48
		c0-0.12,0-0.24,0-0.36c0-0.12,0-0.24,0-0.36c0-1.51-0.08-3-0.21-4.48h-0.05c-0.69-7.25-2.83-14.08-6.1-20.16
		c3.07-5.48,7.1-10.31,11.85-14.26c0.03,1.18,0.1,2.36,0.19,3.52h0.05c1.38,14.42,8.44,27.14,18.85,35.73
		c-10.4,8.59-17.47,21.31-18.85,35.73h-0.05c-0.1,1.17-0.17,2.34-0.19,3.52C54.46,198.05,50.43,193.21,47.37,187.74z M104.88,81.61
		L104.88,81.61c-4.72,3.9-8.75,8.64-11.88,14.01c-3.13-5.37-7.16-10.12-11.88-14.01c4.72-3.9,8.75-8.64,11.88-14.01v0
		C96.13,72.97,100.16,77.71,104.88,81.61z M98.48,117.66c0.03,0.31,0.05,0.61,0.08,0.92c0.09,1.19,0.14,2.38,0.15,3.59
		c-0.01,1.21-0.06,2.4-0.15,3.59c-0.02,0.31-0.05,0.62-0.08,0.93c-0.63,6.76-2.54,13.14-5.48,18.87c-2.94-5.73-4.86-12.1-5.48-18.86
		c-0.03-0.32-0.06-0.65-0.08-0.97c-0.09-1.17-0.14-2.36-0.14-3.55c0.01-1.2,0.06-2.38,0.14-3.56c0.02-0.32,0.05-0.64,0.08-0.96
		c0.63-6.76,2.54-13.13,5.48-18.86v0C95.95,104.53,97.86,110.9,98.48,117.66z M81.12,162.74c4.72-3.9,8.75-8.64,11.88-14.01
		c3.13,5.37,7.16,10.12,11.88,14.01h0c-4.72,3.9-8.75,8.64-11.88,14.01C89.87,171.39,85.84,166.64,81.12,162.74z M105.91,157.91
		c-0.1,1.17-0.17,2.34-0.19,3.52c-4.75-3.95-8.78-8.78-11.85-14.26c3.27-6.08,5.41-12.91,6.1-20.16h0.05
		c0.12-1.48,0.21-2.97,0.21-4.48c0-0.12,0-0.24,0-0.36c0-0.12,0-0.24,0-0.36c0-1.51-0.08-3-0.21-4.48h-0.05
		c-0.69-7.25-2.83-14.08-6.1-20.16c3.07-5.48,7.1-10.31,11.85-14.26c0.03,1.18,0.1,2.36,0.19,3.52h0.05
		c1.38,14.42,8.44,27.14,18.85,35.73c-10.4,8.59-17.47,21.31-18.85,35.73H105.91z M86.03,117.34h-0.05
		c-0.12,1.48-0.21,2.97-0.21,4.48c0,0.12,0,0.24,0.01,0.36c0,0.12-0.01,0.24-0.01,0.36c0,1.51,0.08,3,0.21,4.48h0.05
		c0.69,7.25,2.83,14.08,6.1,20.16c-3.07,5.48-7.1,10.31-11.85,14.26c-0.03-1.18-0.1-2.36-0.19-3.52h-0.05
		c-1.38-14.42-8.44-27.14-18.85-35.73c10.4-8.59,17.47-21.31,18.85-35.73h0.05c0.1-1.17,0.17-2.34,0.19-3.52
		c4.75,3.95,8.78,8.78,11.85,14.26C88.86,103.26,86.73,110.09,86.03,117.34z M80.05,167.58h0.05c0.1-1.17,0.17-2.34,0.19-3.52
		c4.75,3.95,8.78,8.78,11.85,14.26c-3.27,6.08-5.41,12.91-6.1,20.16h-0.05c-0.12,1.48-0.21,2.97-0.21,4.48c0,0.12,0,0.24,0.01,0.36
		c0,0.12-0.01,0.24-0.01,0.36c0,1.51,0.08,3,0.21,4.48h0.05c0.69,7.25,2.83,14.08,6.1,20.16c-3.07,5.48-7.1,10.31-11.85,14.26
		c-0.03-1.18-0.1-2.36-0.19-3.52h-0.05c-1.38-14.42-8.44-27.14-18.85-35.73C71.6,194.71,78.66,182,80.05,167.58z M60.75,201.67
		c0.02-0.64,0.06-1.28,0.11-1.92c0.02-0.32,0.05-0.64,0.08-0.96c1.28-13.82,7.95-26.05,17.81-34.41c-0.02,0.64-0.06,1.28-0.11,1.92
		c-0.02,0.32-0.05,0.65-0.08,0.97C77.28,181.09,70.61,193.31,60.75,201.67z M87.52,207.83c-0.03-0.32-0.06-0.65-0.08-0.97
		c-0.09-1.17-0.14-2.36-0.14-3.55c0.01-1.2,0.06-2.38,0.14-3.56c0.02-0.32,0.05-0.64,0.08-0.96c0.63-6.76,2.54-13.13,5.48-18.86v0
		c2.95,5.73,4.86,12.11,5.48,18.87c0.03,0.31,0.05,0.61,0.08,0.92c0.09,1.19,0.14,2.38,0.15,3.59c-0.01,1.21-0.06,2.4-0.15,3.59
		c-0.02,0.31-0.05,0.62-0.08,0.93c-0.63,6.76-2.54,13.14-5.48,18.87C90.06,220.96,88.14,214.58,87.52,207.83z M99.97,208.14h0.05
		c0.12-1.48,0.21-2.97,0.21-4.48c0-0.12,0-0.24,0-0.36c0-0.12,0-0.24,0-0.36c0-1.51-0.08-3-0.21-4.48h-0.05
		c-0.69-7.25-2.83-14.08-6.1-20.16c3.07-5.48,7.1-10.31,11.85-14.26c0.03,1.18,0.1,2.36,0.19,3.52h0.05
		c1.38,14.42,8.44,27.14,18.85,35.73c-10.4,8.59-17.47,21.31-18.85,35.73h-0.05c-0.1,1.17-0.17,2.34-0.19,3.52
		c-4.75-3.95-8.78-8.78-11.85-14.26C97.14,222.22,99.27,215.4,99.97,208.14z M107.36,159.19c0.02-0.32,0.05-0.64,0.08-0.96
		c1.28-13.82,7.95-26.05,17.81-34.41c-0.02,0.64-0.06,1.28-0.11,1.92c-0.02,0.32-0.05,0.65-0.08,0.97
		c-1.28,13.82-7.95,26.05-17.81,34.41C107.28,160.46,107.31,159.82,107.36,159.19z M107.44,86.13c-0.03-0.32-0.05-0.64-0.08-0.97
		c-0.05-0.64-0.08-1.28-0.11-1.92c9.86,8.36,16.53,20.59,17.81,34.41c0.03,0.32,0.05,0.64,0.08,0.96c0.05,0.64,0.08,1.28,0.11,1.92
		C115.39,112.18,108.72,99.96,107.44,86.13z M78.64,85.17c-0.02,0.32-0.05,0.65-0.08,0.97c-1.28,13.82-7.95,26.05-17.81,34.41
		c0.02-0.64,0.06-1.28,0.11-1.92c0.02-0.32,0.05-0.64,0.08-0.96c1.28-13.82,7.95-26.05,17.81-34.41
		C78.72,83.89,78.69,84.53,78.64,85.17z M78.56,158.22c0.03,0.32,0.05,0.64,0.08,0.96c0.05,0.64,0.08,1.28,0.11,1.92
		c-9.86-8.36-16.53-20.58-17.81-34.41c-0.03-0.32-0.05-0.64-0.08-0.97c-0.05-0.64-0.08-1.28-0.11-1.92
		C70.61,132.17,77.28,144.4,78.56,158.22z M78.56,239.35c0.03,0.32,0.05,0.64,0.08,0.96c0.05,0.64,0.08,1.28,0.11,1.92
		c-9.86-8.36-16.53-20.58-17.81-34.41c-0.03-0.32-0.05-0.64-0.08-0.97c-0.05-0.64-0.08-1.28-0.11-1.92
		C70.61,213.3,77.28,225.53,78.56,239.35z M93,229.86c3.13,5.37,7.16,10.12,11.88,14.01h0c-4.72,3.9-8.75,8.65-11.88,14.01
		c-3.13-5.37-7.16-10.12-11.88-14.01C85.84,239.97,89.87,235.23,93,229.86z M107.36,240.31c0.02-0.32,0.05-0.64,0.08-0.96
		c1.28-13.82,7.95-26.05,17.81-34.41c-0.02,0.64-0.06,1.28-0.11,1.92c-0.02,0.32-0.05,0.65-0.08,0.97
		c-1.28,13.82-7.95,26.05-17.81,34.41C107.28,241.59,107.31,240.95,107.36,240.31z M107.44,167.26c-0.03-0.32-0.05-0.64-0.08-0.97
		c-0.05-0.64-0.08-1.28-0.11-1.92c9.86,8.36,16.53,20.58,17.81,34.41c0.03,0.32,0.05,0.64,0.08,0.96c0.05,0.64,0.08,1.28,0.11,1.92
		C115.39,193.31,108.72,181.09,107.44,167.26z M107.7,162.74L107.7,162.74c10.4-8.59,17.47-21.31,18.85-35.73h0.05
		c0.1-1.17,0.17-2.34,0.19-3.52c4.75,3.95,8.78,8.78,11.85,14.26c-3.27,6.08-5.41,12.91-6.1,20.16h-0.05
		c-0.12,1.48-0.21,2.97-0.21,4.48c0,0.12,0,0.24,0,0.36c0,0.12,0,0.24,0,0.36c0,1.51,0.08,3,0.21,4.48h0.05
		c0.69,7.25,2.83,14.08,6.1,20.16c-3.07,5.48-7.1,10.31-11.85,14.26c-0.03-1.18-0.1-2.36-0.19-3.52h-0.05
		C125.16,184.05,118.1,171.33,107.7,162.74z M151.38,122.18c-4.72,3.9-8.75,8.64-11.88,14.01c-3.13-5.37-7.16-10.12-11.88-14.01
		c4.72-3.9,8.75-8.64,11.88-14.01C142.63,113.53,146.66,118.28,151.38,122.18z M134.02,86.13c-0.03-0.32-0.05-0.64-0.08-0.97
		c-0.09-1.17-0.14-2.36-0.14-3.55c0.01-1.2,0.06-2.38,0.14-3.56c0.02-0.32,0.05-0.64,0.08-0.96c0.63-6.76,2.54-13.13,5.48-18.86
		c2.95,5.73,4.86,12.11,5.48,18.87c0.03,0.31,0.05,0.61,0.08,0.92c0.09,1.19,0.14,2.38,0.15,3.59c-0.01,1.21-0.06,2.4-0.15,3.59
		c-0.02,0.31-0.05,0.62-0.08,0.92c-0.63,6.76-2.54,13.14-5.48,18.87C136.56,99.26,134.64,92.89,134.02,86.13z M144.98,158.23
		c0.03,0.31,0.05,0.61,0.08,0.92c0.09,1.19,0.14,2.38,0.15,3.59c-0.01,1.21-0.06,2.4-0.15,3.59c-0.02,0.31-0.05,0.62-0.08,0.92
		c-0.63,6.76-2.54,13.14-5.48,18.87c-2.94-5.73-4.86-12.1-5.48-18.86c-0.03-0.32-0.05-0.64-0.08-0.97
		c-0.09-1.17-0.14-2.36-0.14-3.55c0.01-1.2,0.06-2.38,0.14-3.56c0.02-0.32,0.05-0.64,0.08-0.96c0.63-6.76,2.54-13.13,5.48-18.86
		C142.45,145.09,144.36,151.47,144.98,158.23z M140.37,187.74c3.27-6.08,5.41-12.91,6.1-20.16h0.05c0.12-1.48,0.21-2.97,0.21-4.48
		c0-0.12,0-0.24,0-0.36c0-0.12,0-0.24,0-0.36c0-1.51-0.08-3-0.21-4.48h-0.05c-0.69-7.25-2.83-14.08-6.1-20.16
		c3.07-5.48,7.1-10.31,11.85-14.26c0.03,1.18,0.1,2.36,0.19,3.52h0.05c1.38,14.42,8.44,27.14,18.85,35.73
		c-10.4,8.59-17.47,21.31-18.85,35.73h-0.05c-0.1,1.17-0.17,2.34-0.19,3.52C147.46,198.05,143.43,193.21,140.37,187.74z
		 M197.88,81.61c-4.72,3.9-8.75,8.64-11.88,14.01c-3.13-5.37-7.16-10.12-11.88-14.01c4.72-3.9,8.75-8.64,11.88-14.01v0
		C189.13,72.97,193.16,77.71,197.88,81.61z M191.48,117.66c0.03,0.31,0.05,0.61,0.08,0.92c0.09,1.19,0.14,2.38,0.15,3.59
		c-0.01,1.21-0.06,2.4-0.15,3.59c-0.02,0.31-0.05,0.62-0.08,0.93c-0.63,6.76-2.54,13.14-5.48,18.87c-2.94-5.73-4.86-12.1-5.48-18.86
		c-0.03-0.32-0.06-0.65-0.08-0.97c-0.09-1.17-0.14-2.36-0.14-3.55c0.01-1.2,0.06-2.38,0.14-3.56c0.02-0.32,0.05-0.64,0.08-0.96
		c0.63-6.76,2.54-13.13,5.48-18.86v0C188.95,104.53,190.86,110.9,191.48,117.66z M174.12,162.74c4.72-3.9,8.75-8.64,11.88-14.01
		c3.13,5.37,7.16,10.12,11.88,14.01c-4.72,3.9-8.75,8.64-11.88,14.01C182.87,171.39,178.84,166.64,174.12,162.74z M198.91,157.91
		c-0.1,1.17-0.17,2.34-0.19,3.52c-4.75-3.95-8.78-8.78-11.85-14.26c3.27-6.08,5.41-12.91,6.1-20.16h0.05
		c0.12-1.48,0.21-2.97,0.21-4.48c0-0.12,0-0.24-0.01-0.36c0-0.12,0.01-0.24,0.01-0.36c0-1.51-0.08-3-0.21-4.48h-0.05
		c-0.7-7.25-2.83-14.08-6.1-20.16c3.07-5.48,7.1-10.31,11.85-14.26c0.03,1.18,0.1,2.36,0.19,3.52h0.05
		c1.38,14.42,8.44,27.14,18.85,35.73c-10.4,8.59-17.47,21.31-18.85,35.73H198.91z M179.03,117.34h-0.05
		c-0.12,1.48-0.21,2.97-0.21,4.48c0,0.12,0,0.24,0,0.36c0,0.12,0,0.24,0,0.36c0,1.51,0.08,3,0.21,4.48h0.05
		c0.69,7.25,2.83,14.08,6.1,20.16c-3.07,5.48-7.1,10.31-11.85,14.26c-0.03-1.18-0.1-2.36-0.19-3.52h-0.05
		c-1.38-14.42-8.44-27.14-18.85-35.73c10.4-8.59,17.47-21.31,18.85-35.73h0.05c0.1-1.17,0.17-2.34,0.19-3.52
		c4.75,3.95,8.78,8.78,11.85,14.26C181.86,103.26,179.73,110.09,179.03,117.34z M173.05,167.58h0.05c0.1-1.17,0.17-2.34,0.19-3.52
		c4.75,3.95,8.78,8.78,11.85,14.26c-3.27,6.08-5.41,12.91-6.1,20.16h-0.05c-0.12,1.48-0.21,2.97-0.21,4.48c0,0.12,0,0.24,0,0.36
		c0,0.12,0,0.24,0,0.36c0,1.51,0.08,3,0.21,4.48h0.05c0.69,7.25,2.83,14.08,6.1,20.16c-3.07,5.48-7.1,10.31-11.85,14.26
		c-0.03-1.18-0.1-2.36-0.19-3.52h-0.05c-1.38-14.42-8.44-27.14-18.85-35.73C164.6,194.71,171.66,182,173.05,167.58z M153.75,201.67
		c0.02-0.64,0.06-1.28,0.11-1.92c0.02-0.32,0.05-0.64,0.08-0.96c1.28-13.82,7.95-26.05,17.81-34.41c-0.02,0.64-0.06,1.28-0.11,1.92
		c-0.02,0.32-0.05,0.65-0.08,0.97C170.28,181.09,163.61,193.31,153.75,201.67z M180.52,207.83c-0.03-0.32-0.06-0.65-0.08-0.97
		c-0.09-1.17-0.14-2.36-0.14-3.55c0.01-1.2,0.06-2.38,0.14-3.56c0.02-0.32,0.05-0.64,0.08-0.96c0.63-6.76,2.54-13.13,5.48-18.86v0
		c2.95,5.73,4.86,12.11,5.48,18.87c0.03,0.31,0.05,0.61,0.08,0.92c0.09,1.19,0.14,2.38,0.15,3.59c-0.01,1.21-0.06,2.4-0.15,3.59
		c-0.02,0.31-0.05,0.62-0.08,0.93c-0.63,6.76-2.54,13.14-5.48,18.87C183.06,220.96,181.14,214.58,180.52,207.83z M192.97,208.14
		h0.05c0.12-1.48,0.21-2.97,0.21-4.48c0-0.12,0-0.24-0.01-0.36c0-0.12,0.01-0.24,0.01-0.36c0-1.51-0.08-3-0.21-4.48h-0.05
		c-0.7-7.25-2.83-14.08-6.1-20.16c3.07-5.48,7.1-10.31,11.85-14.26c0.03,1.18,0.1,2.36,0.19,3.52h0.05
		c1.38,14.42,8.44,27.14,18.85,35.73c-10.4,8.59-17.47,21.31-18.85,35.73h-0.05c-0.1,1.17-0.17,2.34-0.19,3.52
		c-4.75-3.95-8.78-8.78-11.85-14.26C190.14,222.22,192.27,215.4,192.97,208.14z M200.36,159.19c0.02-0.32,0.05-0.64,0.08-0.96
		c1.28-13.82,7.95-26.05,17.81-34.41c-0.02,0.64-0.06,1.28-0.11,1.92c-0.02,0.32-0.05,0.65-0.08,0.97
		c-1.28,13.82-7.95,26.05-17.81,34.41C200.28,160.46,200.31,159.82,200.36,159.19z M200.44,86.13c-0.03-0.32-0.05-0.64-0.08-0.97
		c-0.05-0.64-0.08-1.28-0.11-1.92c9.86,8.36,16.53,20.59,17.81,34.41c0.03,0.32,0.05,0.64,0.08,0.96c0.05,0.64,0.08,1.28,0.11,1.92
		C208.39,112.18,201.72,99.96,200.44,86.13z M171.64,85.17c-0.02,0.32-0.05,0.65-0.08,0.97c-1.28,13.82-7.95,26.05-17.81,34.41
		c0.02-0.64,0.06-1.28,0.11-1.92c0.02-0.32,0.05-0.64,0.08-0.96c1.28-13.82,7.95-26.05,17.81-34.41
		C171.72,83.89,171.69,84.53,171.64,85.17z M171.56,158.22c0.03,0.32,0.05,0.64,0.08,0.96c0.05,0.64,0.08,1.28,0.11,1.92
		c-9.86-8.36-16.53-20.58-17.81-34.41c-0.03-0.32-0.05-0.64-0.08-0.97c-0.05-0.64-0.08-1.28-0.11-1.92
		C163.61,132.17,170.28,144.4,171.56,158.22z M171.56,239.35c0.03,0.32,0.05,0.64,0.08,0.96c0.05,0.64,0.08,1.28,0.11,1.92
		c-9.86-8.36-16.53-20.58-17.81-34.41c-0.03-0.32-0.05-0.64-0.08-0.97c-0.05-0.64-0.08-1.28-0.11-1.92
		C163.61,213.3,170.28,225.53,171.56,239.35z M186,229.86c3.13,5.37,7.16,10.12,11.88,14.01c-4.72,3.9-8.75,8.65-11.88,14.01
		c-3.13-5.37-7.16-10.12-11.88-14.01C178.84,239.97,182.87,235.23,186,229.86z M200.36,240.31c0.02-0.32,0.05-0.64,0.08-0.96
		c1.28-13.82,7.95-26.05,17.81-34.41c-0.02,0.64-0.06,1.28-0.11,1.92c-0.02,0.32-0.05,0.65-0.08,0.97
		c-1.28,13.82-7.95,26.05-17.81,34.41C200.28,241.59,200.31,240.95,200.36,240.31z M200.44,167.26c-0.03-0.32-0.05-0.64-0.08-0.97
		c-0.05-0.64-0.08-1.28-0.11-1.92c9.86,8.36,16.53,20.58,17.81,34.41c0.03,0.32,0.05,0.64,0.08,0.96c0.05,0.64,0.08,1.28,0.11,1.92
		C208.39,193.31,201.72,181.09,200.44,167.26z M200.7,162.74L200.7,162.74c10.4-8.59,17.47-21.31,18.85-35.73h0.05
		c0.1-1.17,0.17-2.34,0.19-3.52c4.75,3.95,8.78,8.78,11.85,14.26c-3.27,6.08-5.41,12.91-6.1,20.16h-0.05
		c-0.12,1.48-0.21,2.97-0.21,4.48c0,0.12,0,0.24,0.01,0.36c0,0.12-0.01,0.24-0.01,0.36c0,1.51,0.08,3,0.21,4.48h0.05
		c0.7,7.25,2.83,14.08,6.1,20.16c-3.07,5.48-7.1,10.31-11.85,14.26c-0.03-1.18-0.1-2.36-0.19-3.52h-0.05
		C218.16,184.05,211.1,171.33,200.7,162.74z M244.38,122.18c-4.72,3.9-8.75,8.64-11.88,14.01c-3.13-5.37-7.16-10.12-11.88-14.01
		c4.72-3.9,8.75-8.64,11.88-14.01C235.63,113.53,239.66,118.28,244.38,122.18z M227.02,86.13c-0.03-0.32-0.05-0.64-0.08-0.97
		c-0.09-1.17-0.14-2.36-0.14-3.55c0.01-1.2,0.06-2.38,0.14-3.56c0.02-0.32,0.05-0.64,0.08-0.96c0.63-6.76,2.54-13.13,5.48-18.86
		c2.95,5.73,4.86,12.11,5.48,18.87c0.03,0.31,0.05,0.61,0.08,0.92c0.09,1.19,0.14,2.38,0.15,3.59c-0.01,1.21-0.06,2.4-0.15,3.59
		c-0.02,0.31-0.05,0.62-0.08,0.92c-0.63,6.76-2.54,13.14-5.48,18.87C229.56,99.26,227.64,92.89,227.02,86.13z M237.98,158.23
		c0.03,0.31,0.05,0.61,0.08,0.92c0.09,1.19,0.14,2.38,0.15,3.59c-0.01,1.21-0.06,2.4-0.15,3.59c-0.02,0.31-0.05,0.62-0.08,0.92
		c-0.63,6.76-2.54,13.14-5.48,18.87c-2.94-5.73-4.86-12.1-5.48-18.86c-0.03-0.32-0.05-0.64-0.08-0.97
		c-0.09-1.17-0.14-2.36-0.14-3.55c0.01-1.2,0.06-2.38,0.14-3.56c0.02-0.32,0.05-0.64,0.08-0.96c0.63-6.76,2.54-13.13,5.48-18.86
		C235.45,145.09,237.36,151.47,237.98,158.23z M233.37,187.74c3.27-6.08,5.41-12.91,6.1-20.16h0.05c0.12-1.48,0.21-2.97,0.21-4.48
		c0-0.12,0-0.24-0.01-0.36c0-0.12,0.01-0.24,0.01-0.36c0-1.51-0.08-3-0.21-4.48h-0.05c-0.7-7.25-2.83-14.08-6.1-20.16
		c3.07-5.48,7.1-10.31,11.85-14.26c0.03,1.18,0.1,2.36,0.19,3.52h0.05c1.38,14.42,8.44,27.14,18.85,35.73
		c-10.4,8.59-17.47,21.31-18.85,35.73h-0.05c-0.1,1.17-0.17,2.34-0.19,3.52C240.46,198.05,236.43,193.21,233.37,187.74z
		 M290.88,81.61c-4.72,3.9-8.75,8.64-11.88,14.01c-3.13-5.37-7.16-10.12-11.88-14.01c4.72-3.9,8.75-8.64,11.88-14.01v0
		C282.13,72.97,286.16,77.71,290.88,81.61z M284.48,117.66c0.03,0.31,0.05,0.61,0.08,0.92c0.09,1.19,0.14,2.38,0.15,3.59
		c-0.01,1.21-0.06,2.4-0.15,3.59c-0.02,0.31-0.05,0.62-0.08,0.93c-0.63,6.76-2.54,13.14-5.48,18.87c-2.94-5.73-4.86-12.1-5.48-18.86
		c-0.03-0.32-0.06-0.65-0.08-0.97c-0.09-1.17-0.14-2.36-0.14-3.55c0.01-1.2,0.06-2.38,0.14-3.56c0.02-0.32,0.05-0.64,0.08-0.96
		c0.63-6.76,2.54-13.13,5.48-18.86v0C281.95,104.53,283.86,110.9,284.48,117.66z M267.12,162.74c4.72-3.9,8.75-8.64,11.88-14.01
		c3.13,5.37,7.16,10.12,11.88,14.01c-4.72,3.9-8.75,8.64-11.88,14.01C275.87,171.39,271.84,166.64,267.12,162.74z M291.91,157.91
		c-0.1,1.17-0.17,2.34-0.19,3.52c-4.75-3.95-8.78-8.78-11.85-14.26c3.27-6.08,5.41-12.91,6.1-20.16h0.05
		c0.12-1.48,0.21-2.97,0.21-4.48c0-0.12,0-0.24-0.01-0.36c0-0.12,0.01-0.24,0.01-0.36c0-1.51-0.08-3-0.21-4.48h-0.05
		c-0.7-7.25-2.83-14.08-6.1-20.16c3.07-5.48,7.1-10.31,11.85-14.26c0.03,1.18,0.1,2.36,0.19,3.52h0.05
		c1.38,14.42,8.44,27.14,18.85,35.73c-10.4,8.59-17.47,21.31-18.85,35.73H291.91z M272.03,117.34h-0.05
		c-0.12,1.48-0.21,2.97-0.21,4.48c0,0.12,0,0.24,0,0.36c0,0.12,0,0.24,0,0.36c0,1.51,0.08,3,0.21,4.48h0.05
		c0.69,7.25,2.83,14.08,6.1,20.16c-3.07,5.48-7.1,10.31-11.85,14.26c-0.03-1.18-0.1-2.36-0.19-3.52h-0.05
		c-1.38-14.42-8.44-27.14-18.85-35.73c10.4-8.59,17.47-21.31,18.85-35.73h0.05c0.1-1.17,0.17-2.34,0.19-3.52
		c4.75,3.95,8.78,8.78,11.85,14.26C274.86,103.26,272.73,110.09,272.03,117.34z M266.05,167.58h0.05c0.1-1.17,0.17-2.34,0.19-3.52
		c4.75,3.95,8.78,8.78,11.85,14.26c-3.27,6.08-5.41,12.91-6.1,20.16h-0.05c-0.12,1.48-0.21,2.97-0.21,4.48c0,0.12,0,0.24,0,0.36
		c0,0.12,0,0.24,0,0.36c0,1.51,0.08,3,0.21,4.48h0.05c0.69,7.25,2.83,14.08,6.1,20.16c-3.07,5.48-7.1,10.31-11.85,14.26
		c-0.03-1.18-0.1-2.36-0.19-3.52h-0.05c-1.38-14.42-8.44-27.14-18.85-35.73C257.6,194.71,264.66,182,266.05,167.58z M246.75,201.67
		c0.02-0.64,0.06-1.28,0.11-1.92c0.02-0.32,0.05-0.64,0.08-0.96c1.28-13.82,7.95-26.05,17.81-34.41c-0.02,0.64-0.06,1.28-0.11,1.92
		c-0.02,0.32-0.05,0.65-0.08,0.97C263.28,181.09,256.61,193.31,246.75,201.67z M273.52,207.83c-0.03-0.32-0.06-0.65-0.08-0.97
		c-0.09-1.17-0.14-2.36-0.14-3.55c0.01-1.2,0.06-2.38,0.14-3.56c0.02-0.32,0.05-0.64,0.08-0.96c0.63-6.76,2.54-13.13,5.48-18.86v0
		c2.95,5.73,4.86,12.11,5.48,18.87c0.03,0.31,0.05,0.61,0.08,0.92c0.09,1.19,0.14,2.38,0.15,3.59c-0.01,1.21-0.06,2.4-0.15,3.59
		c-0.02,0.31-0.05,0.62-0.08,0.93c-0.63,6.76-2.54,13.14-5.48,18.87C276.06,220.96,274.14,214.58,273.52,207.83z M285.97,208.14
		h0.05c0.12-1.48,0.21-2.97,0.21-4.48c0-0.12,0-0.24-0.01-0.36c0-0.12,0.01-0.24,0.01-0.36c0-1.51-0.08-3-0.21-4.48h-0.05
		c-0.7-7.25-2.83-14.08-6.1-20.16c3.07-5.48,7.1-10.31,11.85-14.26c0.03,1.18,0.1,2.36,0.19,3.52h0.05
		c1.38,14.42,8.44,27.14,18.85,35.73c-10.4,8.59-17.47,21.31-18.85,35.73h-0.05c-0.1,1.17-0.17,2.34-0.19,3.52
		c-4.75-3.95-8.78-8.78-11.85-14.26C283.14,222.22,285.27,215.4,285.97,208.14z M293.36,159.19c0.02-0.32,0.05-0.64,0.08-0.96
		c1.28-13.82,7.95-26.05,17.81-34.41c-0.02,0.64-0.06,1.28-0.11,1.92c-0.02,0.32-0.05,0.65-0.08,0.97
		c-1.28,13.82-7.95,26.05-17.81,34.41C293.28,160.46,293.31,159.82,293.36,159.19z M293.44,86.13c-0.03-0.32-0.05-0.64-0.08-0.97
		c-0.05-0.64-0.08-1.28-0.11-1.92c9.86,8.36,16.53,20.59,17.81,34.41c0.03,0.32,0.05,0.64,0.08,0.96c0.05,0.64,0.08,1.28,0.11,1.92
		C301.39,112.18,294.72,99.96,293.44,86.13z M264.64,85.17c-0.02,0.32-0.05,0.65-0.08,0.97c-1.28,13.82-7.95,26.05-17.81,34.41
		c0.02-0.64,0.06-1.28,0.11-1.92c0.02-0.32,0.05-0.64,0.08-0.96c1.28-13.82,7.95-26.05,17.81-34.41
		C264.72,83.89,264.69,84.53,264.64,85.17z M264.56,158.22c0.03,0.32,0.05,0.64,0.08,0.96c0.05,0.64,0.08,1.28,0.11,1.92
		c-9.86-8.36-16.53-20.58-17.81-34.41c-0.03-0.32-0.05-0.64-0.08-0.97c-0.05-0.64-0.08-1.28-0.11-1.92
		C256.61,132.17,263.28,144.4,264.56,158.22z M264.56,239.35c0.03,0.32,0.05,0.64,0.08,0.96c0.05,0.64,0.08,1.28,0.11,1.92
		c-9.86-8.36-16.53-20.58-17.81-34.41c-0.03-0.32-0.05-0.64-0.08-0.97c-0.05-0.64-0.08-1.28-0.11-1.92
		C256.61,213.3,263.28,225.53,264.56,239.35z M279,229.86c3.13,5.37,7.16,10.12,11.88,14.01c-4.72,3.9-8.75,8.65-11.88,14.01
		c-3.13-5.37-7.16-10.12-11.88-14.01C271.84,239.97,275.87,235.23,279,229.86z M293.36,240.31c0.02-0.32,0.05-0.64,0.08-0.96
		c1.28-13.82,7.95-26.05,17.81-34.41c-0.02,0.64-0.06,1.28-0.11,1.92c-0.02,0.32-0.05,0.65-0.08,0.97
		c-1.28,13.82-7.95,26.05-17.81,34.41C293.28,241.59,293.31,240.95,293.36,240.31z M293.44,167.26c-0.03-0.32-0.05-0.64-0.08-0.97
		c-0.05-0.64-0.08-1.28-0.11-1.92c9.86,8.36,16.53,20.58,17.81,34.41c0.03,0.32,0.05,0.64,0.08,0.96c0.05,0.64,0.08,1.28,0.11,1.92
		C301.39,193.31,294.72,181.09,293.44,167.26z M293.7,162.74L293.7,162.74c10.4-8.59,17.47-21.31,18.85-35.73h0.05
		c0.1-1.17,0.17-2.34,0.19-3.52c4.75,3.95,8.78,8.78,11.85,14.26c-3.27,6.08-5.41,12.91-6.1,20.16h-0.05
		c-0.12,1.48-0.21,2.97-0.21,4.48c0,0.12,0,0.24,0.01,0.36c0,0.12-0.01,0.24-0.01,0.36c0,1.51,0.08,3,0.21,4.48h0.05
		c0.7,7.25,2.83,14.08,6.1,20.16c-3.07,5.48-7.1,10.31-11.85,14.26c-0.03-1.18-0.1-2.36-0.19-3.52h-0.05
		C311.16,184.05,304.1,171.33,293.7,162.74z M337.38,122.18c-4.72,3.9-8.75,8.64-11.88,14.01c-3.13-5.37-7.16-10.12-11.88-14.01
		c4.72-3.9,8.75-8.64,11.88-14.01C328.63,113.53,332.66,118.28,337.38,122.18z M320.02,86.13c-0.03-0.32-0.05-0.64-0.08-0.97
		c-0.09-1.17-0.14-2.36-0.14-3.55c0.01-1.2,0.06-2.38,0.14-3.56c0.02-0.32,0.05-0.64,0.08-0.96c0.63-6.76,2.54-13.13,5.48-18.86
		c2.95,5.73,4.86,12.11,5.48,18.87c0.03,0.31,0.05,0.61,0.08,0.92c0.09,1.19,0.14,2.38,0.15,3.59c-0.01,1.21-0.06,2.4-0.15,3.59
		c-0.02,0.31-0.05,0.62-0.08,0.92c-0.63,6.76-2.54,13.14-5.48,18.87C322.56,99.26,320.64,92.89,320.02,86.13z M330.98,158.23
		c0.03,0.31,0.05,0.61,0.08,0.92c0.09,1.19,0.14,2.38,0.15,3.59c-0.01,1.21-0.06,2.4-0.15,3.59c-0.02,0.31-0.05,0.62-0.08,0.92
		c-0.63,6.76-2.54,13.14-5.48,18.87c-2.94-5.73-4.86-12.1-5.48-18.86c-0.03-0.32-0.05-0.64-0.08-0.97
		c-0.09-1.17-0.14-2.36-0.14-3.55c0.01-1.2,0.06-2.38,0.14-3.56c0.02-0.32,0.05-0.64,0.08-0.96c0.63-6.76,2.54-13.13,5.48-18.86
		C328.45,145.09,330.36,151.47,330.98,158.23z M339.94,126.7c-0.03-0.32-0.05-0.64-0.08-0.97c-0.05-0.64-0.08-1.28-0.11-1.92
		c9.86,8.36,16.53,20.58,17.81,34.41c0.03,0.32,0.05,0.64,0.08,0.96c0.05,0.64,0.08,1.28,0.11,1.92
		C347.89,152.74,341.22,140.52,339.94,126.7z M338.41,45.88h0.05c1.38,14.42,8.44,27.14,18.85,35.73
		c-10.4,8.59-17.47,21.31-18.85,35.73h-0.05c-0.1,1.17-0.17,2.34-0.19,3.52c-4.75-3.95-8.78-8.78-11.85-14.26
		c3.27-6.08,5.41-12.91,6.1-20.16h0.05c0.12-1.48,0.21-2.97,0.21-4.48c0-0.12,0-0.24-0.01-0.36c0-0.12,0.01-0.24,0.01-0.36
		c0-1.51-0.08-3-0.21-4.48h-0.05c-0.7-7.25-2.83-14.08-6.1-20.16c3.07-5.48,7.1-10.31,11.85-14.26
		C338.24,43.54,338.31,44.72,338.41,45.88z M357.75,83.25c-0.02,0.64-0.06,1.28-0.11,1.92c-0.02,0.32-0.05,0.65-0.08,0.97
		c-1.28,13.82-7.95,26.05-17.81,34.41c0.02-0.64,0.06-1.28,0.11-1.92c0.02-0.32,0.05-0.64,0.08-0.96
		C341.22,103.83,347.89,91.61,357.75,83.25z M325.5,27.03c3.13,5.37,7.16,10.12,11.88,14.01c-4.72,3.9-8.75,8.64-11.88,14.01
		c-3.13-5.37-7.16-10.12-11.88-14.01C318.34,37.15,322.37,32.4,325.5,27.03z M312.59,45.88c0.1-1.17,0.17-2.34,0.19-3.52
		c4.75,3.95,8.78,8.78,11.85,14.26c-3.27,6.08-5.41,12.91-6.1,20.16h-0.05c-0.12,1.48-0.21,2.97-0.21,4.48c0,0.12,0,0.24,0.01,0.36
		c0,0.12-0.01,0.24-0.01,0.36c0,1.51,0.08,3,0.21,4.48h0.05c0.7,7.25,2.83,14.08,6.1,20.16c-3.07,5.48-7.1,10.31-11.85,14.26
		c-0.03-1.18-0.1-2.36-0.19-3.52h-0.05c-1.38-14.42-8.44-27.14-18.85-35.73h0c10.4-8.59,17.47-21.31,18.85-35.73H312.59z
		 M293.25,79.98c0.02-0.64,0.06-1.28,0.11-1.92c0.02-0.32,0.05-0.64,0.08-0.96c1.28-13.82,7.95-26.05,17.81-34.41
		c-0.02,0.64-0.06,1.28-0.11,1.92c-0.02,0.32-0.05,0.65-0.08,0.97C309.78,59.39,303.11,71.62,293.25,79.98z M311.06,36.53
		c0.03,0.32,0.05,0.64,0.08,0.96c0.05,0.64,0.08,1.28,0.11,1.92c-9.86-8.36-16.53-20.58-17.81-34.41c-0.03-0.32-0.05-0.64-0.08-0.97
		c-0.05-0.64-0.08-1.28-0.11-1.92C303.11,10.48,309.78,22.7,311.06,36.53z M291.71,1.8c0.03,1.18,0.1,2.36,0.19,3.52h0.05
		c1.38,14.42,8.44,27.14,18.85,35.73c-10.4,8.59-17.47,21.31-18.85,35.73h-0.05c-0.1,1.17-0.17,2.34-0.19,3.52
		c-4.75-3.95-8.78-8.78-11.85-14.26c3.27-6.08,5.41-12.91,6.1-20.16h0.05c0.12-1.48,0.21-2.97,0.21-4.48c0-0.12,0-0.24-0.01-0.36
		c0-0.12,0.01-0.24,0.01-0.36c0-1.51-0.08-3-0.21-4.48h-0.05c-0.7-7.25-2.83-14.08-6.1-20.16C282.93,10.57,286.96,5.74,291.71,1.8z
		 M279,17.67c2.95,5.73,4.86,12.11,5.48,18.87c0.03,0.31,0.05,0.61,0.08,0.92c0.09,1.19,0.14,2.38,0.15,3.59
		c-0.01,1.21-0.06,2.4-0.15,3.59c-0.02,0.31-0.05,0.62-0.08,0.93c-0.63,6.76-2.54,13.14-5.48,18.87c-2.94-5.73-4.86-12.1-5.48-18.86
		c-0.03-0.32-0.06-0.65-0.08-0.97c-0.09-1.17-0.14-2.36-0.14-3.55c0.01-1.2,0.06-2.38,0.14-3.56c0.02-0.32,0.05-0.64,0.08-0.96
		C274.14,29.77,276.06,23.4,279,17.67L279,17.67z M266.05,5.32h0.05c0.1-1.17,0.17-2.34,0.19-3.52c4.75,3.95,8.78,8.78,11.85,14.26
		c-3.27,6.08-5.41,12.91-6.1,20.16h-0.05c-0.12,1.48-0.21,2.97-0.21,4.48c0,0.12,0,0.24,0,0.36c0,0.12,0,0.24,0,0.36
		c0,1.51,0.08,3,0.21,4.48h0.05c0.69,7.25,2.83,14.08,6.1,20.16c-3.07,5.48-7.1,10.31-11.85,14.26c-0.03-1.18-0.1-2.36-0.19-3.52
		h-0.05c-1.38-14.42-8.44-27.14-18.85-35.73C257.6,32.46,264.66,19.74,266.05,5.32z M246.86,37.49c0.02-0.32,0.05-0.64,0.08-0.96
		c1.28-13.82,7.95-26.05,17.81-34.41c-0.02,0.64-0.06,1.28-0.11,1.92c-0.02,0.32-0.05,0.65-0.08,0.97
		c-1.28,13.82-7.95,26.05-17.81,34.41C246.78,38.77,246.81,38.13,246.86,37.49z M264.56,77.09c0.03,0.32,0.05,0.64,0.08,0.96
		c0.05,0.64,0.08,1.28,0.11,1.92c-9.86-8.36-16.53-20.58-17.81-34.41c-0.03-0.32-0.05-0.64-0.08-0.97
		c-0.05-0.64-0.08-1.28-0.11-1.92C256.61,51.05,263.28,63.27,264.56,77.09z M245.41,45.88h0.05c1.38,14.42,8.44,27.14,18.85,35.73
		c-10.4,8.59-17.47,21.31-18.85,35.73h-0.05c-0.1,1.17-0.17,2.34-0.19,3.52c-4.75-3.95-8.78-8.78-11.85-14.26
		c3.27-6.08,5.41-12.91,6.1-20.16h0.05c0.12-1.48,0.21-2.97,0.21-4.48c0-0.12,0-0.24-0.01-0.36c0-0.12,0.01-0.24,0.01-0.36
		c0-1.51-0.08-3-0.21-4.48h-0.05c-0.7-7.25-2.83-14.08-6.1-20.16c3.07-5.48,7.1-10.31,11.85-14.26
		C245.24,43.54,245.31,44.72,245.41,45.88z M232.5,27.03c3.13,5.37,7.16,10.12,11.88,14.01c-4.72,3.9-8.75,8.64-11.88,14.01
		c-3.13-5.37-7.16-10.12-11.88-14.01C225.34,37.15,229.37,32.4,232.5,27.03z M219.59,45.88c0.1-1.17,0.17-2.34,0.19-3.52
		c4.75,3.95,8.78,8.78,11.85,14.26c-3.27,6.08-5.41,12.91-6.1,20.16h-0.05c-0.12,1.48-0.21,2.97-0.21,4.48c0,0.12,0,0.24,0.01,0.36
		c0,0.12-0.01,0.24-0.01,0.36c0,1.51,0.08,3,0.21,4.48h0.05c0.7,7.25,2.83,14.08,6.1,20.16c-3.07,5.48-7.1,10.31-11.85,14.26
		c-0.03-1.18-0.1-2.36-0.19-3.52h-0.05c-1.38-14.42-8.44-27.14-18.85-35.73h0c10.4-8.59,17.47-21.31,18.85-35.73H219.59z
		 M200.25,79.98c0.02-0.64,0.06-1.28,0.11-1.92c0.02-0.32,0.05-0.64,0.08-0.96c1.28-13.82,7.95-26.05,17.81-34.41
		c-0.02,0.64-0.06,1.28-0.11,1.92c-0.02,0.32-0.05,0.65-0.08,0.97C216.78,59.39,210.11,71.62,200.25,79.98z M218.06,36.53
		c0.03,0.32,0.05,0.64,0.08,0.96c0.05,0.64,0.08,1.28,0.11,1.92c-9.86-8.36-16.53-20.58-17.81-34.41c-0.03-0.32-0.05-0.64-0.08-0.97
		c-0.05-0.64-0.08-1.28-0.11-1.92C210.11,10.48,216.78,22.7,218.06,36.53z M198.71,1.8c0.03,1.18,0.1,2.36,0.19,3.52h0.05
		c1.38,14.42,8.44,27.14,18.85,35.73c-10.4,8.59-17.47,21.31-18.85,35.73h-0.05c-0.1,1.17-0.17,2.34-0.19,3.52
		c-4.75-3.95-8.78-8.78-11.85-14.26c3.27-6.08,5.41-12.91,6.1-20.16h0.05c0.12-1.48,0.21-2.97,0.21-4.48c0-0.12,0-0.24-0.01-0.36
		c0-0.12,0.01-0.24,0.01-0.36c0-1.51-0.08-3-0.21-4.48h-0.05c-0.7-7.25-2.83-14.08-6.1-20.16C189.93,10.57,193.96,5.74,198.71,1.8z
		 M186,17.67c2.95,5.73,4.86,12.11,5.48,18.87c0.03,0.31,0.05,0.61,0.08,0.92c0.09,1.19,0.14,2.38,0.15,3.59
		c-0.01,1.21-0.06,2.4-0.15,3.59c-0.02,0.31-0.05,0.62-0.08,0.93c-0.63,6.76-2.54,13.14-5.48,18.87c-2.94-5.73-4.86-12.1-5.48-18.86
		c-0.03-0.32-0.06-0.65-0.08-0.97c-0.09-1.17-0.14-2.36-0.14-3.55c0.01-1.2,0.06-2.38,0.14-3.56c0.02-0.32,0.05-0.64,0.08-0.96
		C181.14,29.77,183.06,23.4,186,17.67L186,17.67z M173.05,5.32h0.05c0.1-1.17,0.17-2.34,0.19-3.52c4.75,3.95,8.78,8.78,11.85,14.26
		c-3.27,6.08-5.41,12.91-6.1,20.16h-0.05c-0.12,1.48-0.21,2.97-0.21,4.48c0,0.12,0,0.24,0,0.36c0,0.12,0,0.24,0,0.36
		c0,1.51,0.08,3,0.21,4.48h0.05c0.69,7.25,2.83,14.08,6.1,20.16c-3.07,5.48-7.1,10.31-11.85,14.26c-0.03-1.18-0.1-2.36-0.19-3.52
		h-0.05c-1.38-14.42-8.44-27.14-18.85-35.73C164.6,32.46,171.66,19.74,173.05,5.32z M153.86,37.49c0.02-0.32,0.05-0.64,0.08-0.96
		c1.28-13.82,7.95-26.05,17.81-34.41c-0.02,0.64-0.06,1.28-0.11,1.92c-0.02,0.32-0.05,0.65-0.08,0.97
		c-1.28,13.82-7.95,26.05-17.81,34.41C153.78,38.77,153.81,38.13,153.86,37.49z M171.56,77.09c0.03,0.32,0.05,0.64,0.08,0.96
		c0.05,0.64,0.08,1.28,0.11,1.92c-9.86-8.36-16.53-20.58-17.81-34.41c-0.03-0.32-0.05-0.64-0.08-0.97
		c-0.05-0.64-0.08-1.28-0.11-1.92C163.61,51.05,170.28,63.27,171.56,77.09z M152.41,45.88h0.05c1.38,14.42,8.44,27.14,18.85,35.73
		c-10.4,8.59-17.47,21.31-18.85,35.73h-0.05c-0.1,1.17-0.17,2.34-0.19,3.52c-4.75-3.95-8.78-8.78-11.85-14.26
		c3.27-6.08,5.41-12.91,6.1-20.16h0.05c0.12-1.48,0.21-2.97,0.21-4.48c0-0.12,0-0.24,0-0.36c0-0.12,0-0.24,0-0.36
		c0-1.51-0.08-3-0.21-4.48h-0.05c-0.69-7.25-2.83-14.08-6.1-20.16c3.07-5.48,7.1-10.31,11.85-14.26
		C152.24,43.54,152.31,44.72,152.41,45.88z M139.5,27.03c3.13,5.37,7.16,10.12,11.88,14.01c-4.72,3.9-8.75,8.64-11.88,14.01
		c-3.13-5.37-7.16-10.12-11.88-14.01C132.34,37.15,136.37,32.4,139.5,27.03z M126.59,45.88c0.1-1.17,0.17-2.34,0.19-3.52
		c4.75,3.95,8.78,8.78,11.85,14.26c-3.27,6.08-5.41,12.91-6.1,20.16h-0.05c-0.12,1.48-0.21,2.97-0.21,4.48c0,0.12,0,0.24,0,0.36
		c0,0.12,0,0.24,0,0.36c0,1.51,0.08,3,0.21,4.48h0.05c0.69,7.25,2.83,14.08,6.1,20.16c-3.07,5.48-7.1,10.31-11.85,14.26
		c-0.03-1.18-0.1-2.36-0.19-3.52h-0.05c-1.38-14.42-8.44-27.14-18.85-35.73h0c10.4-8.59,17.47-21.31,18.85-35.73H126.59z
		 M107.25,79.98c0.02-0.64,0.06-1.28,0.11-1.92c0.02-0.32,0.05-0.64,0.08-0.96c1.28-13.82,7.95-26.05,17.81-34.41
		c-0.02,0.64-0.06,1.28-0.11,1.92c-0.02,0.32-0.05,0.65-0.08,0.97C123.78,59.39,117.11,71.62,107.25,79.98z M125.06,36.53
		c0.03,0.32,0.05,0.64,0.08,0.96c0.05,0.64,0.08,1.28,0.11,1.92c-9.86-8.36-16.53-20.58-17.81-34.41c-0.03-0.32-0.05-0.64-0.08-0.97
		c-0.05-0.64-0.08-1.28-0.11-1.92C117.11,10.48,123.78,22.7,125.06,36.53z M105.71,1.8c0.03,1.18,0.1,2.36,0.19,3.52h0.05
		c1.38,14.42,8.44,27.14,18.85,35.73c-10.4,8.59-17.47,21.31-18.85,35.73h-0.05c-0.1,1.17-0.17,2.34-0.19,3.52
		c-4.75-3.95-8.78-8.78-11.85-14.26c3.27-6.08,5.41-12.91,6.1-20.16h0.05c0.12-1.48,0.21-2.97,0.21-4.48c0-0.12,0-0.24,0-0.36
		c0-0.12,0-0.24,0-0.36c0-1.51-0.08-3-0.21-4.48h-0.05c-0.69-7.25-2.83-14.08-6.1-20.16C96.93,10.57,100.96,5.74,105.71,1.8z
		 M93,17.67c2.95,5.73,4.86,12.11,5.48,18.87c0.03,0.31,0.05,0.61,0.08,0.92c0.09,1.19,0.14,2.38,0.15,3.59
		c-0.01,1.21-0.06,2.4-0.15,3.59c-0.02,0.31-0.05,0.62-0.08,0.93C97.86,52.32,95.95,58.7,93,64.43c-2.94-5.73-4.86-12.1-5.48-18.86
		c-0.03-0.32-0.06-0.65-0.08-0.97c-0.09-1.17-0.14-2.36-0.14-3.55c0.01-1.2,0.06-2.38,0.14-3.56c0.02-0.32,0.05-0.64,0.08-0.96
		C88.14,29.77,90.06,23.4,93,17.67L93,17.67z M80.05,5.32h0.05c0.1-1.17,0.17-2.34,0.19-3.52c4.75,3.95,8.78,8.78,11.85,14.26
		c-3.27,6.08-5.41,12.91-6.1,20.16h-0.05c-0.12,1.48-0.21,2.97-0.21,4.48c0,0.12,0,0.24,0.01,0.36c0,0.12-0.01,0.24-0.01,0.36
		c0,1.51,0.08,3,0.21,4.48h0.05c0.69,7.25,2.83,14.08,6.1,20.16c-3.07,5.48-7.1,10.31-11.85,14.26c-0.03-1.18-0.1-2.36-0.19-3.52
		h-0.05C78.66,62.36,71.6,49.64,61.2,41.05C71.6,32.46,78.66,19.74,80.05,5.32z M60.86,37.49c0.02-0.32,0.05-0.64,0.08-0.96
		c1.28-13.82,7.95-26.05,17.81-34.41c-0.02,0.64-0.06,1.28-0.11,1.92C78.62,4.36,78.59,4.68,78.56,5
		c-1.28,13.82-7.95,26.05-17.81,34.41C60.78,38.77,60.81,38.13,60.86,37.49z M78.56,77.09c0.03,0.32,0.05,0.64,0.08,0.96
		c0.05,0.64,0.08,1.28,0.11,1.92c-9.86-8.36-16.53-20.58-17.81-34.41c-0.03-0.32-0.05-0.64-0.08-0.97
		c-0.05-0.64-0.08-1.28-0.11-1.92C70.61,51.05,77.28,63.27,78.56,77.09z M59.41,45.88h0.05C60.84,60.3,67.9,73.02,78.3,81.61
		c-10.4,8.59-17.47,21.31-18.85,35.73h-0.05c-0.1,1.17-0.17,2.34-0.19,3.52c-4.75-3.95-8.78-8.78-11.85-14.26
		c3.27-6.08,5.41-12.91,6.1-20.16h0.05c0.12-1.48,0.21-2.97,0.21-4.48c0-0.12,0-0.24,0-0.36c0-0.12,0-0.24,0-0.36
		c0-1.51-0.08-3-0.21-4.48h-0.05c-0.69-7.25-2.83-14.08-6.1-20.16c3.07-5.48,7.1-10.31,11.85-14.26
		C59.24,43.54,59.31,44.72,59.41,45.88z M46.5,27.03c3.13,5.37,7.16,10.12,11.88,14.01c-4.72,3.9-8.75,8.64-11.88,14.01
		c-3.13-5.37-7.16-10.12-11.88-14.01C39.34,37.15,43.37,32.4,46.5,27.03z M33.59,45.88c0.1-1.17,0.17-2.34,0.19-3.52
		c4.75,3.95,8.78,8.78,11.85,14.26c-3.27,6.08-5.41,12.91-6.1,20.16h-0.05c-0.12,1.48-0.21,2.97-0.21,4.48c0,0.12,0,0.24,0,0.36
		c0,0.12,0,0.24,0,0.36c0,1.51,0.08,3,0.21,4.48h0.05c0.69,7.25,2.83,14.08,6.1,20.16c-3.07,5.48-7.1,10.31-11.85,14.26
		c-0.03-1.18-0.1-2.36-0.19-3.52h-0.05c-1.38-14.42-8.44-27.14-18.85-35.73c10.4-8.59,17.47-21.31,18.85-35.73H33.59z M14.25,79.98
		c0.02-0.64,0.06-1.28,0.11-1.92c0.02-0.32,0.05-0.64,0.08-0.96c1.28-13.82,7.95-26.05,17.81-34.41c-0.02,0.64-0.06,1.28-0.11,1.92
		c-0.02,0.32-0.05,0.65-0.08,0.97C30.78,59.39,24.11,71.62,14.25,79.98z M32.06,36.53c0.03,0.32,0.05,0.64,0.08,0.96
		c0.05,0.64,0.08,1.28,0.11,1.92C22.39,31.05,15.72,18.83,14.44,5c-0.03-0.32-0.05-0.64-0.08-0.97c-0.05-0.64-0.08-1.28-0.11-1.92
		C24.11,10.48,30.78,22.7,32.06,36.53z M0.87,66.04c3.27-6.08,5.41-12.91,6.1-20.16h0.05c0.12-1.48,0.21-2.97,0.21-4.48
		c0-0.12,0-0.24,0-0.36c0-0.12,0-0.24,0-0.36c0-1.51-0.08-3-0.21-4.48H6.97c-0.69-7.25-2.83-14.08-6.1-20.16
		C3.93,10.57,7.96,5.74,12.71,1.8c0.03,1.18,0.1,2.36,0.19,3.52h0.05c1.38,14.42,8.44,27.14,18.85,35.73
		c-10.4,8.59-17.47,21.31-18.85,35.73h-0.05c-0.1,1.17-0.17,2.34-0.19,3.52C7.96,76.35,3.93,71.52,0.87,66.04z M0.87,147.17
		c3.27-6.08,5.41-12.91,6.1-20.16h0.05c0.12-1.48,0.21-2.97,0.21-4.48c0-0.12,0-0.24,0-0.36c0-0.12,0-0.24,0-0.36
		c0-1.51-0.08-3-0.21-4.48H6.97c-0.69-7.25-2.83-14.08-6.1-20.16c3.07-5.48,7.1-10.31,11.85-14.26c0.03,1.18,0.1,2.36,0.19,3.52
		h0.05c1.38,14.42,8.44,27.14,18.85,35.73c-10.4,8.59-17.47,21.31-18.85,35.73h-0.05c-0.1,1.17-0.17,2.34-0.19,3.52
		C7.96,157.48,3.93,152.65,0.87,147.17z M0.87,228.3c3.27-6.08,5.41-12.91,6.1-20.16h0.05c0.12-1.48,0.21-2.97,0.21-4.48
		c0-0.12,0-0.24,0-0.36c0-0.12,0-0.24,0-0.36c0-1.51-0.08-3-0.21-4.48H6.97c-0.69-7.25-2.83-14.08-6.1-20.16
		c3.07-5.48,7.1-10.31,11.85-14.26c0.03,1.18,0.1,2.36,0.19,3.52h0.05c1.38,14.42,8.44,27.14,18.85,35.73
		c-10.4,8.59-17.47,21.31-18.85,35.73h-0.05c-0.1,1.17-0.17,2.34-0.19,3.52C7.96,238.61,3.93,233.78,0.87,228.3z M32.25,204.94
		c-0.02,0.64-0.06,1.28-0.11,1.92c-0.02,0.32-0.05,0.65-0.08,0.97c-1.28,13.82-7.95,26.05-17.81,34.41
		c0.02-0.64,0.06-1.28,0.11-1.92c0.02-0.32,0.05-0.64,0.08-0.96C15.72,225.53,22.39,213.3,32.25,204.94z M12.95,320.16h-0.05
		c-0.1,1.17-0.17,2.34-0.19,3.52c-4.75-3.95-8.78-8.78-11.85-14.26c3.27-6.08,5.41-12.91,6.1-20.16h0.05
		c0.12-1.48,0.21-2.97,0.21-4.48c0-0.12,0-0.24,0-0.36c0-0.12,0-0.24,0-0.36c0-1.51-0.08-3-0.21-4.48H6.97
		c-0.69-7.25-2.83-14.08-6.1-20.16c3.07-5.48,7.1-10.31,11.85-14.26c0.03,1.18,0.1,2.36,0.19,3.52h0.05
		c1.38,14.42,8.44,27.14,18.85,35.73C21.4,293.03,14.34,305.75,12.95,320.16z M32.14,287.99c-0.02,0.32-0.05,0.65-0.08,0.97
		c-1.28,13.82-7.95,26.05-17.81,34.41c0.02-0.64,0.06-1.28,0.11-1.92c0.02-0.32,0.05-0.64,0.08-0.96
		c1.28-13.82,7.95-26.05,17.81-34.41C32.22,286.71,32.19,287.35,32.14,287.99z M14.44,248.39c-0.03-0.32-0.05-0.64-0.08-0.97
		c-0.05-0.64-0.08-1.28-0.11-1.92c9.86,8.36,16.53,20.59,17.81,34.41c0.03,0.32,0.05,0.64,0.08,0.96c0.05,0.64,0.08,1.28,0.11,1.92
		C22.39,274.44,15.72,262.21,14.44,248.39z M33.59,279.6h-0.05c-1.38-14.42-8.44-27.14-18.85-35.73
		c10.4-8.59,17.47-21.31,18.85-35.73h0.05c0.1-1.17,0.17-2.34,0.19-3.52c4.75,3.95,8.78,8.78,11.85,14.26
		c-3.27,6.08-5.41,12.91-6.1,20.16h-0.05c-0.12,1.48-0.21,2.97-0.21,4.48c0,0.12,0,0.24,0,0.36c0,0.12,0,0.24,0,0.36
		c0,1.51,0.08,3,0.21,4.48h0.05c0.69,7.25,2.83,14.08,6.1,20.16c-3.07,5.48-7.1,10.31-11.85,14.26
		C33.76,281.94,33.69,280.77,33.59,279.6z M46.5,298.45c-3.13-5.37-7.16-10.12-11.88-14.01c4.72-3.9,8.75-8.64,11.88-14.01
		c3.13,5.37,7.16,10.12,11.88,14.01C53.66,288.33,49.63,293.08,46.5,298.45z M59.41,279.6c-0.1,1.17-0.17,2.34-0.19,3.52
		c-4.75-3.95-8.78-8.78-11.85-14.26c3.27-6.08,5.41-12.91,6.1-20.16h0.05c0.12-1.48,0.21-2.97,0.21-4.48c0-0.12,0-0.24,0-0.36
		c0-0.12,0-0.24,0-0.36c0-1.51-0.08-3-0.21-4.48h-0.05c-0.69-7.25-2.83-14.08-6.1-20.16c3.07-5.48,7.1-10.31,11.85-14.26
		c0.03,1.18,0.1,2.36,0.19,3.52h0.05c1.38,14.42,8.44,27.14,18.85,35.73c-10.4,8.59-17.47,21.31-18.85,35.73H59.41z M78.75,245.51
		c-0.02,0.64-0.06,1.28-0.11,1.92c-0.02,0.32-0.05,0.65-0.08,0.97c-1.28,13.82-7.95,26.05-17.81,34.41
		c0.02-0.64,0.06-1.28,0.11-1.92c0.02-0.32,0.05-0.64,0.08-0.96C62.22,266.09,68.89,253.87,78.75,245.51z M60.94,288.96
		c-0.03-0.32-0.05-0.64-0.08-0.97c-0.05-0.64-0.08-1.28-0.11-1.92c9.86,8.36,16.53,20.58,17.81,34.41c0.03,0.32,0.05,0.64,0.08,0.96
		c0.05,0.64,0.08,1.28,0.11,1.92C68.89,315,62.22,302.78,60.94,288.96z M80.29,323.69c-0.03-1.18-0.1-2.36-0.19-3.52h-0.05
		c-1.38-14.42-8.44-27.14-18.85-35.73c10.4-8.59,17.47-21.31,18.85-35.73h0.05c0.1-1.17,0.17-2.34,0.19-3.52
		c4.75,3.95,8.78,8.78,11.85,14.26c-3.27,6.08-5.41,12.91-6.1,20.16h-0.05c-0.12,1.48-0.21,2.97-0.21,4.48c0,0.12,0,0.24,0.01,0.36
		c0,0.12-0.01,0.24-0.01,0.36c0,1.51,0.08,3,0.21,4.48h0.05c0.69,7.25,2.83,14.08,6.1,20.16C89.07,314.91,85.04,319.74,80.29,323.69
		z M87.52,288.96c-0.03-0.32-0.06-0.65-0.08-0.97c-0.09-1.17-0.14-2.36-0.14-3.55c0.01-1.2,0.06-2.38,0.14-3.56
		c0.02-0.32,0.05-0.64,0.08-0.96c0.63-6.76,2.54-13.13,5.48-18.86c2.95,5.73,4.86,12.11,5.48,18.87c0.03,0.31,0.05,0.61,0.08,0.92
		c0.09,1.19,0.14,2.38,0.15,3.59c-0.01,1.21-0.06,2.4-0.15,3.59c-0.02,0.31-0.05,0.62-0.08,0.93c-0.63,6.76-2.54,13.14-5.48,18.87
		C90.06,302.09,88.14,295.71,87.52,288.96z M105.95,320.16h-0.05c-0.1,1.17-0.17,2.34-0.19,3.52c-4.75-3.95-8.78-8.78-11.85-14.26
		c3.27-6.08,5.41-12.91,6.1-20.16h0.05c0.12-1.48,0.21-2.97,0.21-4.48c0-0.12,0-0.24,0-0.36c0-0.12,0-0.24,0-0.36
		c0-1.51-0.08-3-0.21-4.48h-0.05c-0.69-7.25-2.83-14.08-6.1-20.16c3.07-5.48,7.1-10.31,11.85-14.26c0.03,1.18,0.1,2.36,0.19,3.52
		h0.05c1.38,14.42,8.44,27.14,18.85,35.73C114.4,293.03,107.34,305.75,105.95,320.16z M125.14,287.99
		c-0.02,0.32-0.05,0.65-0.08,0.97c-1.28,13.82-7.95,26.05-17.81,34.41c0.02-0.64,0.06-1.28,0.11-1.92c0.02-0.32,0.05-0.64,0.08-0.96
		c1.28-13.82,7.95-26.05,17.81-34.41C125.22,286.71,125.19,287.35,125.14,287.99z M107.44,248.39c-0.03-0.32-0.05-0.64-0.08-0.97
		c-0.05-0.64-0.08-1.28-0.11-1.92c9.86,8.36,16.53,20.59,17.81,34.41c0.03,0.32,0.05,0.64,0.08,0.96c0.05,0.64,0.08,1.28,0.11,1.92
		C115.39,274.44,108.72,262.21,107.44,248.39z M126.59,279.6h-0.05c-1.38-14.42-8.44-27.14-18.85-35.73h0
		c10.4-8.59,17.47-21.31,18.85-35.73h0.05c0.1-1.17,0.17-2.34,0.19-3.52c4.75,3.95,8.78,8.78,11.85,14.26
		c-3.27,6.08-5.41,12.91-6.1,20.16h-0.05c-0.12,1.48-0.21,2.97-0.21,4.48c0,0.12,0,0.24,0,0.36c0,0.12,0,0.24,0,0.36
		c0,1.51,0.08,3,0.21,4.48h0.05c0.69,7.25,2.83,14.08,6.1,20.16c-3.07,5.48-7.1,10.31-11.85,14.26
		C126.76,281.94,126.69,280.77,126.59,279.6z M139.5,298.45c-3.13-5.37-7.16-10.12-11.88-14.01c4.72-3.9,8.75-8.64,11.88-14.01
		c3.13,5.37,7.16,10.12,11.88,14.01C146.66,288.33,142.63,293.08,139.5,298.45z M152.41,279.6c-0.1,1.17-0.17,2.34-0.19,3.52
		c-4.75-3.95-8.78-8.78-11.85-14.26c3.27-6.08,5.41-12.91,6.1-20.16h0.05c0.12-1.48,0.21-2.97,0.21-4.48c0-0.12,0-0.24,0-0.36
		c0-0.12,0-0.24,0-0.36c0-1.51-0.08-3-0.21-4.48h-0.05c-0.69-7.25-2.83-14.08-6.1-20.16c3.07-5.48,7.1-10.31,11.85-14.26
		c0.03,1.18,0.1,2.36,0.19,3.52h0.05c1.38,14.42,8.44,27.14,18.85,35.73c-10.4,8.59-17.47,21.31-18.85,35.73H152.41z M171.75,245.51
		c-0.02,0.64-0.06,1.28-0.11,1.92c-0.02,0.32-0.05,0.65-0.08,0.97c-1.28,13.82-7.95,26.05-17.81,34.41
		c0.02-0.64,0.06-1.28,0.11-1.92c0.02-0.32,0.05-0.64,0.08-0.96C155.22,266.09,161.89,253.87,171.75,245.51z M153.94,288.96
		c-0.03-0.32-0.05-0.64-0.08-0.97c-0.05-0.64-0.08-1.28-0.11-1.92c9.86,8.36,16.53,20.58,17.81,34.41c0.03,0.32,0.05,0.64,0.08,0.96
		c0.05,0.64,0.08,1.28,0.11,1.92C161.89,315,155.22,302.78,153.94,288.96z M173.29,323.69c-0.03-1.18-0.1-2.36-0.19-3.52h-0.05
		c-1.38-14.42-8.44-27.14-18.85-35.73c10.4-8.59,17.47-21.31,18.85-35.73h0.05c0.1-1.17,0.17-2.34,0.19-3.52
		c4.75,3.95,8.78,8.78,11.85,14.26c-3.27,6.08-5.41,12.91-6.1,20.16h-0.05c-0.12,1.48-0.21,2.97-0.21,4.48c0,0.12,0,0.24,0,0.36
		c0,0.12,0,0.24,0,0.36c0,1.51,0.08,3,0.21,4.48h0.05c0.69,7.25,2.83,14.08,6.1,20.16C182.07,314.91,178.04,319.74,173.29,323.69z
		 M180.52,288.96c-0.03-0.32-0.06-0.65-0.08-0.97c-0.09-1.17-0.14-2.36-0.14-3.55c0.01-1.2,0.06-2.38,0.14-3.56
		c0.02-0.32,0.05-0.64,0.08-0.96c0.63-6.76,2.54-13.13,5.48-18.86c2.95,5.73,4.86,12.11,5.48,18.87c0.03,0.31,0.05,0.61,0.08,0.92
		c0.09,1.19,0.14,2.38,0.15,3.59c-0.01,1.21-0.06,2.4-0.15,3.59c-0.02,0.31-0.05,0.62-0.08,0.93c-0.63,6.76-2.54,13.14-5.48,18.87
		C183.06,302.09,181.14,295.71,180.52,288.96z M198.95,320.16h-0.05c-0.1,1.17-0.17,2.34-0.19,3.52
		c-4.75-3.95-8.78-8.78-11.85-14.26c3.27-6.08,5.41-12.91,6.1-20.16h0.05c0.12-1.48,0.21-2.97,0.21-4.48c0-0.12,0-0.24-0.01-0.36
		c0-0.12,0.01-0.24,0.01-0.36c0-1.51-0.08-3-0.21-4.48h-0.05c-0.7-7.25-2.83-14.08-6.1-20.16c3.07-5.48,7.1-10.31,11.85-14.26
		c0.03,1.18,0.1,2.36,0.19,3.52h0.05c1.38,14.42,8.44,27.14,18.85,35.73C207.4,293.03,200.34,305.75,198.95,320.16z M218.14,287.99
		c-0.02,0.32-0.05,0.65-0.08,0.97c-1.28,13.82-7.95,26.05-17.81,34.41c0.02-0.64,0.06-1.28,0.11-1.92c0.02-0.32,0.05-0.64,0.08-0.96
		c1.28-13.82,7.95-26.05,17.81-34.41C218.22,286.71,218.19,287.35,218.14,287.99z M200.44,248.39c-0.03-0.32-0.05-0.64-0.08-0.97
		c-0.05-0.64-0.08-1.28-0.11-1.92c9.86,8.36,16.53,20.59,17.81,34.41c0.03,0.32,0.05,0.64,0.08,0.96c0.05,0.64,0.08,1.28,0.11,1.92
		C208.39,274.44,201.72,262.21,200.44,248.39z M219.59,279.6h-0.05c-1.38-14.42-8.44-27.14-18.85-35.73h0
		c10.4-8.59,17.47-21.31,18.85-35.73h0.05c0.1-1.17,0.17-2.34,0.19-3.52c4.75,3.95,8.78,8.78,11.85,14.26
		c-3.27,6.08-5.41,12.91-6.1,20.16h-0.05c-0.12,1.48-0.21,2.97-0.21,4.48c0,0.12,0,0.24,0.01,0.36c0,0.12-0.01,0.24-0.01,0.36
		c0,1.51,0.08,3,0.21,4.48h0.05c0.7,7.25,2.83,14.08,6.1,20.16c-3.07,5.48-7.1,10.31-11.85,14.26
		C219.76,281.94,219.69,280.77,219.59,279.6z M232.5,298.45c-3.13-5.37-7.16-10.12-11.88-14.01c4.72-3.9,8.75-8.64,11.88-14.01
		c3.13,5.37,7.16,10.12,11.88,14.01C239.66,288.33,235.63,293.08,232.5,298.45z M245.41,279.6c-0.1,1.17-0.17,2.34-0.19,3.52
		c-4.75-3.95-8.78-8.78-11.85-14.26c3.27-6.08,5.41-12.91,6.1-20.16h0.05c0.12-1.48,0.21-2.97,0.21-4.48c0-0.12,0-0.24-0.01-0.36
		c0-0.12,0.01-0.24,0.01-0.36c0-1.51-0.08-3-0.21-4.48h-0.05c-0.7-7.25-2.83-14.08-6.1-20.16c3.07-5.48,7.1-10.31,11.85-14.26
		c0.03,1.18,0.1,2.36,0.19,3.52h0.05c1.38,14.42,8.44,27.14,18.85,35.73c-10.4,8.59-17.47,21.31-18.85,35.73H245.41z M264.75,245.51
		c-0.02,0.64-0.06,1.28-0.11,1.92c-0.02,0.32-0.05,0.65-0.08,0.97c-1.28,13.82-7.95,26.05-17.81,34.41
		c0.02-0.64,0.06-1.28,0.11-1.92c0.02-0.32,0.05-0.64,0.08-0.96C248.22,266.09,254.89,253.87,264.75,245.51z M246.94,288.96
		c-0.03-0.32-0.05-0.64-0.08-0.97c-0.05-0.64-0.08-1.28-0.11-1.92c9.86,8.36,16.53,20.58,17.81,34.41c0.03,0.32,0.05,0.64,0.08,0.96
		c0.05,0.64,0.08,1.28,0.11,1.92C254.89,315,248.22,302.78,246.94,288.96z M266.29,323.69c-0.03-1.18-0.1-2.36-0.19-3.52h-0.05
		c-1.38-14.42-8.44-27.14-18.85-35.73c10.4-8.59,17.47-21.31,18.85-35.73h0.05c0.1-1.17,0.17-2.34,0.19-3.52
		c4.75,3.95,8.78,8.78,11.85,14.26c-3.27,6.08-5.41,12.91-6.1,20.16h-0.05c-0.12,1.48-0.21,2.97-0.21,4.48c0,0.12,0,0.24,0,0.36
		c0,0.12,0,0.24,0,0.36c0,1.51,0.08,3,0.21,4.48h0.05c0.69,7.25,2.83,14.08,6.1,20.16C275.07,314.91,271.04,319.74,266.29,323.69z
		 M273.52,288.96c-0.03-0.32-0.06-0.65-0.08-0.97c-0.09-1.17-0.14-2.36-0.14-3.55c0.01-1.2,0.06-2.38,0.14-3.56
		c0.02-0.32,0.05-0.64,0.08-0.96c0.63-6.76,2.54-13.13,5.48-18.86c2.95,5.73,4.86,12.11,5.48,18.87c0.03,0.31,0.05,0.61,0.08,0.92
		c0.09,1.19,0.14,2.38,0.15,3.59c-0.01,1.21-0.06,2.4-0.15,3.59c-0.02,0.31-0.05,0.62-0.08,0.93c-0.63,6.76-2.54,13.14-5.48,18.87
		C276.06,302.09,274.14,295.71,273.52,288.96z M291.95,320.16h-0.05c-0.1,1.17-0.17,2.34-0.19,3.52
		c-4.75-3.95-8.78-8.78-11.85-14.26c3.27-6.08,5.41-12.91,6.1-20.16h0.05c0.12-1.48,0.21-2.97,0.21-4.48c0-0.12,0-0.24-0.01-0.36
		c0-0.12,0.01-0.24,0.01-0.36c0-1.51-0.08-3-0.21-4.48h-0.05c-0.7-7.25-2.83-14.08-6.1-20.16c3.07-5.48,7.1-10.31,11.85-14.26
		c0.03,1.18,0.1,2.36,0.19,3.52h0.05c1.38,14.42,8.44,27.14,18.85,35.73C300.4,293.03,293.34,305.75,291.95,320.16z M311.14,287.99
		c-0.02,0.32-0.05,0.65-0.08,0.97c-1.28,13.82-7.95,26.05-17.81,34.41c0.02-0.64,0.06-1.28,0.11-1.92c0.02-0.32,0.05-0.64,0.08-0.96
		c1.28-13.82,7.95-26.05,17.81-34.41C311.22,286.71,311.19,287.35,311.14,287.99z M293.44,248.39c-0.03-0.32-0.05-0.64-0.08-0.97
		c-0.05-0.64-0.08-1.28-0.11-1.92c9.86,8.36,16.53,20.59,17.81,34.41c0.03,0.32,0.05,0.64,0.08,0.96c0.05,0.64,0.08,1.28,0.11,1.92
		C301.39,274.44,294.72,262.21,293.44,248.39z M312.59,279.6h-0.05c-1.38-14.42-8.44-27.14-18.85-35.73h0
		c10.4-8.59,17.47-21.31,18.85-35.73h0.05c0.1-1.17,0.17-2.34,0.19-3.52c4.75,3.95,8.78,8.78,11.85,14.26
		c-3.27,6.08-5.41,12.91-6.1,20.16h-0.05c-0.12,1.48-0.21,2.97-0.21,4.48c0,0.12,0,0.24,0.01,0.36c0,0.12-0.01,0.24-0.01,0.36
		c0,1.51,0.08,3,0.21,4.48h0.05c0.7,7.25,2.83,14.08,6.1,20.16c-3.07,5.48-7.1,10.31-11.85,14.26
		C312.76,281.94,312.69,280.77,312.59,279.6z M325.5,298.45c-3.13-5.37-7.16-10.12-11.88-14.01c4.72-3.9,8.75-8.64,11.88-14.01
		c3.13,5.37,7.16,10.12,11.88,14.01C332.66,288.33,328.63,293.08,325.5,298.45z M338.41,279.6c-0.1,1.17-0.17,2.34-0.19,3.52
		c-4.75-3.95-8.78-8.78-11.85-14.26c3.27-6.08,5.41-12.91,6.1-20.16h0.05c0.12-1.48,0.21-2.97,0.21-4.48c0-0.12,0-0.24-0.01-0.36
		c0-0.12,0.01-0.24,0.01-0.36c0-1.51-0.08-3-0.21-4.48h-0.05c-0.7-7.25-2.83-14.08-6.1-20.16c3.07-5.48,7.1-10.31,11.85-14.26
		c0.03,1.18,0.1,2.36,0.19,3.52h0.05c1.38,14.42,8.44,27.14,18.85,35.73c-10.4,8.59-17.47,21.31-18.85,35.73H338.41z M357.75,245.51
		c-0.02,0.64-0.06,1.28-0.11,1.92c-0.02,0.32-0.05,0.65-0.08,0.97c-1.28,13.82-7.95,26.05-17.81,34.41
		c0.02-0.64,0.06-1.28,0.11-1.92c0.02-0.32,0.05-0.64,0.08-0.96C341.22,266.09,347.89,253.87,357.75,245.51z M339.94,288.96
		c-0.03-0.32-0.05-0.64-0.08-0.97c-0.05-0.64-0.08-1.28-0.11-1.92c9.86,8.36,16.53,20.58,17.81,34.41c0.03,0.32,0.05,0.64,0.08,0.96
		c0.05,0.64,0.08,1.28,0.11,1.92C347.89,315,341.22,302.78,339.94,288.96z M371.13,259.44c-3.27,6.08-5.41,12.91-6.1,20.16h-0.05
		c-0.12,1.48-0.21,2.97-0.21,4.48c0,0.12,0,0.24,0,0.36c0,0.12,0,0.24,0,0.36c0,1.51,0.08,3,0.21,4.48h0.05
		c0.69,7.25,2.83,14.08,6.1,20.16c-3.07,5.48-7.1,10.31-11.85,14.26c-0.03-1.18-0.1-2.36-0.19-3.52h-0.05
		c-1.38-14.42-8.44-27.14-18.85-35.73c10.4-8.59,17.47-21.31,18.85-35.73h0.05c0.1-1.17,0.17-2.34,0.19-3.52
		C364.04,249.13,368.07,253.96,371.13,259.44z M371.13,178.31c-3.27,6.08-5.41,12.91-6.1,20.16h-0.05
		c-0.12,1.48-0.21,2.97-0.21,4.48c0,0.12,0,0.24,0,0.36c0,0.12,0,0.24,0,0.36c0,1.51,0.08,3,0.21,4.48h0.05
		c0.69,7.25,2.83,14.08,6.1,20.16c-3.07,5.48-7.1,10.31-11.85,14.26c-0.03-1.18-0.1-2.36-0.19-3.52h-0.05
		c-1.38-14.42-8.44-27.14-18.85-35.73c10.4-8.59,17.47-21.31,18.85-35.73h0.05c0.1-1.17,0.17-2.34,0.19-3.52
		C364.04,168,368.07,172.83,371.13,178.31z M371.13,97.18c-3.27,6.08-5.41,12.91-6.1,20.16h-0.05c-0.12,1.48-0.21,2.97-0.21,4.48
		c0,0.12,0,0.24,0,0.36c0,0.12,0,0.24,0,0.36c0,1.51,0.08,3,0.21,4.48h0.05c0.69,7.25,2.83,14.08,6.1,20.16
		c-3.07,5.48-7.1,10.31-11.85,14.26c-0.03-1.18-0.1-2.36-0.19-3.52h-0.05c-1.38-14.42-8.44-27.14-18.85-35.73
		c10.4-8.59,17.47-21.31,18.85-35.73h0.05c0.1-1.17,0.17-2.34,0.19-3.52C364.04,86.87,368.07,91.7,371.13,97.18z M365.03,36.21
		h-0.05c-0.12,1.48-0.21,2.97-0.21,4.48c0,0.12,0,0.24,0,0.36c0,0.12,0,0.24,0,0.36c0,1.51,0.08,3,0.21,4.48h0.05
		c0.69,7.25,2.83,14.08,6.1,20.16c-3.07,5.48-7.1,10.31-11.85,14.26c-0.03-1.18-0.1-2.36-0.19-3.52h-0.05
		c-1.38-14.42-8.44-27.14-18.85-35.73c10.4-8.59,17.47-21.31,18.85-35.73h0.05c0.1-1.17,0.17-2.34,0.19-3.52
		c4.75,3.95,8.78,8.78,11.85,14.26C367.86,22.14,365.73,28.96,365.03,36.21z"/>
</g>
</svg>
