<?xml version="1.0" encoding="utf-8"?>
<!-- Generator: Adobe Illustrator 25.2.1, SVG Export Plug-In . SVG Version: 6.00 Build 0)  -->
<svg version="1.1" id="Layer_1" xmlns="http://www.w3.org/2000/svg" xmlns:xlink="http://www.w3.org/1999/xlink" x="0px" y="0px"
	 viewBox="0 0 372 325" style="enable-background:new 0 0 372 325;" xml:space="preserve">
<style type="text/css">
	.st0{fill:#3A3634;}
	.st1{fill:#B8B8B8;}
	.st2{fill:#C9C5C2;}
	.st3{fill-rule:evenodd;clip-rule:evenodd;}
	.st4{fill:none;stroke:#000000;stroke-width:0.5;stroke-miterlimit:10;}
	.st5{fill:#2D3843;}
	.st6{clip-path:url(#SVGID_2_);fill:none;stroke:#000000;stroke-miterlimit:10;}
	.st7{clip-path:url(#SVGID_2_);}
	.st8{fill:none;stroke:#000000;stroke-miterlimit:10;}
	.st9{fill:none;stroke:#000000;stroke-linecap:round;stroke-miterlimit:10;}
</style>
<g>
	<defs>
		<rect id="SVGID_1_" width="372" height="324.85"/>
	</defs>
	<clipPath id="SVGID_2_">
		<use xlink:href="#SVGID_1_"  style="overflow:visible;"/>
	</clipPath>
	<circle class="st6" cx="8.12" cy="315.68" r="16.12"/>
	<g class="st7">
		<circle class="st8" cx="8.12" cy="315.68" r="12.94"/>
		<circle class="st8" cx="8.12" cy="283.43" r="12.94"/>
		<circle class="st8" cx="8.12" cy="251.18" r="12.94"/>
		<circle class="st8" cx="8.12" cy="218.93" r="12.94"/>
		<circle class="st8" cx="8.12" cy="186.68" r="12.94"/>
		<circle class="st8" cx="8.12" cy="154.43" r="12.94"/>
		<circle class="st8" cx="8.12" cy="122.18" r="12.94"/>
		<circle class="st8" cx="8.12" cy="89.93" r="12.94"/>
		<circle class="st8" cx="8.12" cy="57.68" r="12.94"/>
		<circle class="st8" cx="8.12" cy="25.43" r="12.94"/>
		<circle class="st8" cx="8.12" cy="-6.82" r="12.94"/>
	</g>
	<g class="st7">
		<circle class="st8" cx="40.38" cy="315.68" r="12.94"/>
		<circle class="st8" cx="40.38" cy="283.43" r="12.94"/>
		<circle class="st8" cx="40.38" cy="251.18" r="12.94"/>
		<circle class="st8" cx="40.38" cy="218.93" r="12.94"/>
		<circle class="st8" cx="40.38" cy="186.68" r="12.94"/>
		<circle class="st8" cx="40.38" cy="154.43" r="12.94"/>
		<circle class="st8" cx="40.38" cy="122.18" r="12.94"/>
		<circle class="st8" cx="40.38" cy="89.93" r="12.94"/>
		<circle class="st8" cx="40.38" cy="57.68" r="12.94"/>
		<circle class="st8" cx="40.38" cy="25.43" r="12.94"/>
		<circle class="st8" cx="40.38" cy="-6.82" r="12.94"/>
	</g>
	<g class="st7">
		<circle class="st8" cx="72.62" cy="315.68" r="12.94"/>
		<circle class="st8" cx="72.62" cy="283.43" r="12.94"/>
		<circle class="st8" cx="72.62" cy="251.18" r="12.94"/>
		<circle class="st8" cx="72.62" cy="218.93" r="12.94"/>
		<circle class="st8" cx="72.62" cy="186.68" r="12.94"/>
		<circle class="st8" cx="72.62" cy="154.43" r="12.94"/>
		<circle class="st8" cx="72.62" cy="122.18" r="12.94"/>
		<circle class="st8" cx="72.62" cy="89.93" r="12.94"/>
		<circle class="st8" cx="72.62" cy="57.68" r="12.94"/>
		<circle class="st8" cx="72.62" cy="25.43" r="12.94"/>
		<circle class="st8" cx="72.62" cy="-6.82" r="12.94"/>
	</g>
	<g class="st7">
		<circle class="st8" cx="104.88" cy="315.68" r="12.94"/>
		<circle class="st8" cx="104.88" cy="283.43" r="12.94"/>
		<circle class="st8" cx="104.88" cy="251.18" r="12.94"/>
		<circle class="st8" cx="104.88" cy="218.93" r="12.94"/>
		<circle class="st8" cx="104.88" cy="186.68" r="12.94"/>
		<circle class="st8" cx="104.88" cy="154.43" r="12.94"/>
		<circle class="st8" cx="104.88" cy="122.18" r="12.94"/>
		<circle class="st8" cx="104.88" cy="89.93" r="12.94"/>
		<circle class="st8" cx="104.88" cy="57.68" r="12.94"/>
		<circle class="st8" cx="104.88" cy="25.43" r="12.94"/>
		<circle class="st8" cx="104.88" cy="-6.82" r="12.94"/>
	</g>
	<g class="st7">
		<circle class="st8" cx="137.12" cy="315.68" r="12.94"/>
		<circle class="st8" cx="137.12" cy="283.43" r="12.94"/>
		<circle class="st8" cx="137.12" cy="251.18" r="12.94"/>
		<circle class="st8" cx="137.12" cy="218.93" r="12.94"/>
		<circle class="st8" cx="137.12" cy="186.68" r="12.94"/>
		<circle class="st8" cx="137.12" cy="154.43" r="12.94"/>
		<circle class="st8" cx="137.12" cy="122.18" r="12.94"/>
		<circle class="st8" cx="137.12" cy="89.93" r="12.94"/>
		<circle class="st8" cx="137.12" cy="57.68" r="12.94"/>
		<circle class="st8" cx="137.12" cy="25.43" r="12.94"/>
		<circle class="st8" cx="137.12" cy="-6.82" r="12.94"/>
	</g>
	<g class="st7">
		<circle class="st8" cx="169.38" cy="315.68" r="12.94"/>
		<circle class="st8" cx="169.38" cy="283.43" r="12.94"/>
		<circle class="st8" cx="169.38" cy="251.18" r="12.94"/>
		<circle class="st8" cx="169.38" cy="218.93" r="12.94"/>
		<circle class="st8" cx="169.38" cy="186.68" r="12.94"/>
		<circle class="st8" cx="169.38" cy="154.43" r="12.94"/>
		<circle class="st8" cx="169.38" cy="122.18" r="12.94"/>
		<circle class="st8" cx="169.38" cy="89.93" r="12.94"/>
		<circle class="st8" cx="169.38" cy="57.68" r="12.94"/>
		<circle class="st8" cx="169.38" cy="25.43" r="12.94"/>
		<circle class="st8" cx="169.38" cy="-6.82" r="12.94"/>
	</g>
	<g class="st7">
		<circle class="st8" cx="201.62" cy="315.68" r="12.94"/>
		<circle class="st8" cx="201.62" cy="283.43" r="12.94"/>
		<circle class="st8" cx="201.62" cy="251.18" r="12.94"/>
		<circle class="st8" cx="201.62" cy="218.93" r="12.94"/>
		<circle class="st8" cx="201.62" cy="186.68" r="12.94"/>
		<circle class="st8" cx="201.62" cy="154.43" r="12.94"/>
		<circle class="st8" cx="201.62" cy="122.18" r="12.94"/>
		<circle class="st8" cx="201.62" cy="89.93" r="12.94"/>
		<circle class="st8" cx="201.62" cy="57.68" r="12.94"/>
		<circle class="st8" cx="201.62" cy="25.43" r="12.94"/>
		<circle class="st8" cx="201.62" cy="-6.82" r="12.94"/>
	</g>
	<g class="st7">
		<circle class="st8" cx="233.88" cy="315.68" r="12.94"/>
		<circle class="st8" cx="233.88" cy="283.43" r="12.94"/>
		<circle class="st8" cx="233.88" cy="251.18" r="12.94"/>
		<circle class="st8" cx="233.88" cy="218.93" r="12.94"/>
		<circle class="st8" cx="233.88" cy="186.68" r="12.94"/>
		<circle class="st8" cx="233.88" cy="154.43" r="12.94"/>
		<circle class="st8" cx="233.88" cy="122.18" r="12.94"/>
		<circle class="st8" cx="233.88" cy="89.93" r="12.94"/>
		<circle class="st8" cx="233.88" cy="57.68" r="12.94"/>
		<circle class="st8" cx="233.88" cy="25.43" r="12.94"/>
		<circle class="st8" cx="233.88" cy="-6.82" r="12.94"/>
	</g>
	<g class="st7">
		<circle class="st8" cx="266.12" cy="315.68" r="12.94"/>
		<circle class="st8" cx="266.12" cy="283.43" r="12.94"/>
		<circle class="st8" cx="266.12" cy="251.18" r="12.94"/>
		<circle class="st8" cx="266.12" cy="218.93" r="12.94"/>
		<circle class="st8" cx="266.12" cy="186.68" r="12.94"/>
		<circle class="st8" cx="266.12" cy="154.43" r="12.94"/>
		<circle class="st8" cx="266.12" cy="122.18" r="12.94"/>
		<circle class="st8" cx="266.12" cy="89.93" r="12.94"/>
		<circle class="st8" cx="266.12" cy="57.68" r="12.94"/>
		<circle class="st8" cx="266.12" cy="25.43" r="12.94"/>
		<circle class="st8" cx="266.12" cy="-6.82" r="12.94"/>
	</g>
	<g class="st7">
		<circle class="st8" cx="298.38" cy="315.68" r="12.94"/>
		<circle class="st8" cx="298.38" cy="283.43" r="12.94"/>
		<circle class="st8" cx="298.38" cy="251.18" r="12.94"/>
		<circle class="st8" cx="298.38" cy="218.93" r="12.94"/>
		<circle class="st8" cx="298.38" cy="186.68" r="12.94"/>
		<circle class="st8" cx="298.38" cy="154.43" r="12.94"/>
		<circle class="st8" cx="298.38" cy="122.18" r="12.94"/>
		<circle class="st8" cx="298.38" cy="89.93" r="12.94"/>
		<circle class="st8" cx="298.38" cy="57.68" r="12.94"/>
		<circle class="st8" cx="298.38" cy="25.43" r="12.94"/>
		<circle class="st8" cx="298.38" cy="-6.82" r="12.94"/>
	</g>
	<g class="st7">
		<circle class="st8" cx="330.62" cy="315.68" r="12.94"/>
		<circle class="st8" cx="330.62" cy="283.43" r="12.94"/>
		<circle class="st8" cx="330.62" cy="251.18" r="12.94"/>
		<circle class="st8" cx="330.62" cy="218.93" r="12.94"/>
		<circle class="st8" cx="330.62" cy="186.68" r="12.94"/>
		<circle class="st8" cx="330.62" cy="154.43" r="12.94"/>
		<circle class="st8" cx="330.62" cy="122.18" r="12.94"/>
		<circle class="st8" cx="330.62" cy="89.93" r="12.94"/>
		<circle class="st8" cx="330.62" cy="57.68" r="12.94"/>
		<circle class="st8" cx="330.62" cy="25.43" r="12.94"/>
		<circle class="st8" cx="330.62" cy="-6.82" r="12.94"/>
	</g>
	<g class="st7">
		<circle class="st8" cx="362.88" cy="315.68" r="12.94"/>
		<circle class="st8" cx="362.88" cy="283.43" r="12.94"/>
		<circle class="st8" cx="362.88" cy="251.18" r="12.94"/>
		<circle class="st8" cx="362.88" cy="218.93" r="12.94"/>
		<circle class="st8" cx="362.88" cy="186.68" r="12.94"/>
		<circle class="st8" cx="362.88" cy="154.43" r="12.94"/>
		<circle class="st8" cx="362.88" cy="122.18" r="12.94"/>
		<circle class="st8" cx="362.88" cy="89.93" r="12.94"/>
		<circle class="st8" cx="362.88" cy="57.68" r="12.94"/>
		<circle class="st8" cx="362.88" cy="25.43" r="12.94"/>
		<circle class="st8" cx="362.88" cy="-6.82" r="12.94"/>
	</g>
	<circle class="st6" cx="8.12" cy="283.43" r="16.12"/>
	<circle class="st6" cx="8.12" cy="251.18" r="16.12"/>
	<circle class="st6" cx="8.12" cy="218.93" r="16.12"/>
	<circle class="st6" cx="8.12" cy="186.68" r="16.12"/>
	<circle class="st6" cx="8.12" cy="154.43" r="16.12"/>
	<circle class="st6" cx="8.12" cy="122.18" r="16.12"/>
	<circle class="st6" cx="8.12" cy="89.93" r="16.12"/>
	<circle class="st6" cx="8.12" cy="57.68" r="16.12"/>
	<circle class="st6" cx="8.12" cy="25.43" r="16.12"/>
	<circle class="st6" cx="8.12" cy="-6.82" r="16.12"/>
	<circle class="st6" cx="40.38" cy="315.68" r="16.12"/>
	<circle class="st6" cx="40.38" cy="283.43" r="16.12"/>
	<circle class="st6" cx="40.38" cy="251.18" r="16.12"/>
	<circle class="st6" cx="40.38" cy="218.93" r="16.12"/>
	<circle class="st6" cx="40.38" cy="186.68" r="16.12"/>
	<circle class="st6" cx="40.38" cy="154.43" r="16.12"/>
	<circle class="st6" cx="40.38" cy="122.18" r="16.12"/>
	<circle class="st6" cx="40.38" cy="89.93" r="16.12"/>
	<circle class="st6" cx="40.38" cy="57.68" r="16.12"/>
	<circle class="st6" cx="40.38" cy="25.43" r="16.12"/>
	<circle class="st6" cx="40.38" cy="-6.82" r="16.12"/>
	<circle class="st6" cx="72.62" cy="315.68" r="16.12"/>
	<circle class="st6" cx="72.62" cy="283.43" r="16.12"/>
	<circle class="st6" cx="72.62" cy="251.18" r="16.12"/>
	<circle class="st6" cx="72.62" cy="218.93" r="16.12"/>
	<circle class="st6" cx="72.62" cy="186.68" r="16.12"/>
	<circle class="st6" cx="72.62" cy="154.43" r="16.12"/>
	<circle class="st6" cx="72.62" cy="122.18" r="16.12"/>
	<circle class="st6" cx="72.62" cy="89.93" r="16.12"/>
	<circle class="st6" cx="72.62" cy="57.68" r="16.12"/>
	<circle class="st6" cx="72.62" cy="25.43" r="16.12"/>
	<circle class="st6" cx="72.62" cy="-6.82" r="16.12"/>
	<circle class="st6" cx="104.88" cy="315.68" r="16.12"/>
	<circle class="st6" cx="104.88" cy="283.43" r="16.12"/>
	<circle class="st6" cx="104.88" cy="251.18" r="16.12"/>
	<circle class="st6" cx="104.88" cy="218.93" r="16.12"/>
	<circle class="st6" cx="104.88" cy="186.68" r="16.12"/>
	<circle class="st6" cx="104.88" cy="154.43" r="16.12"/>
	<circle class="st6" cx="104.88" cy="122.18" r="16.12"/>
	<circle class="st6" cx="104.88" cy="89.93" r="16.12"/>
	<circle class="st6" cx="104.88" cy="57.68" r="16.12"/>
	<circle class="st6" cx="104.88" cy="25.43" r="16.12"/>
	<circle class="st6" cx="104.88" cy="-6.82" r="16.12"/>
	<circle class="st6" cx="137.12" cy="315.68" r="16.12"/>
	<circle class="st6" cx="137.12" cy="283.43" r="16.12"/>
	<circle class="st6" cx="137.12" cy="251.18" r="16.12"/>
	<circle class="st6" cx="137.12" cy="218.93" r="16.12"/>
	<circle class="st6" cx="137.12" cy="186.68" r="16.12"/>
	<circle class="st6" cx="137.12" cy="154.43" r="16.12"/>
	<circle class="st6" cx="137.12" cy="122.18" r="16.12"/>
	<circle class="st6" cx="137.12" cy="89.93" r="16.12"/>
	<circle class="st6" cx="137.12" cy="57.68" r="16.12"/>
	<circle class="st6" cx="137.12" cy="25.43" r="16.12"/>
	<circle class="st6" cx="137.12" cy="-6.82" r="16.12"/>
	<circle class="st6" cx="169.38" cy="315.68" r="16.12"/>
	<circle class="st6" cx="169.38" cy="283.43" r="16.12"/>
	<circle class="st6" cx="169.38" cy="251.18" r="16.12"/>
	<circle class="st6" cx="169.38" cy="218.93" r="16.12"/>
	<circle class="st6" cx="169.38" cy="186.68" r="16.12"/>
	<circle class="st6" cx="169.38" cy="154.43" r="16.12"/>
	<circle class="st6" cx="169.38" cy="122.18" r="16.12"/>
	<circle class="st6" cx="169.38" cy="89.93" r="16.12"/>
	<circle class="st6" cx="169.38" cy="57.68" r="16.12"/>
	<circle class="st6" cx="169.38" cy="25.43" r="16.12"/>
	<circle class="st6" cx="169.38" cy="-6.82" r="16.12"/>
	<circle class="st6" cx="201.62" cy="315.68" r="16.12"/>
	<circle class="st6" cx="201.62" cy="283.43" r="16.12"/>
	<circle class="st6" cx="201.62" cy="251.18" r="16.12"/>
	<circle class="st6" cx="201.62" cy="218.93" r="16.12"/>
	<circle class="st6" cx="201.62" cy="186.68" r="16.12"/>
	<circle class="st6" cx="201.62" cy="154.43" r="16.12"/>
	<circle class="st6" cx="201.62" cy="122.18" r="16.12"/>
	<circle class="st6" cx="201.62" cy="89.93" r="16.12"/>
	<circle class="st6" cx="201.62" cy="57.68" r="16.12"/>
	<circle class="st6" cx="201.62" cy="25.43" r="16.12"/>
	<circle class="st6" cx="201.62" cy="-6.82" r="16.12"/>
	<circle class="st6" cx="233.88" cy="315.68" r="16.12"/>
	<circle class="st6" cx="233.88" cy="283.43" r="16.12"/>
	<circle class="st6" cx="233.88" cy="251.18" r="16.12"/>
	<circle class="st6" cx="233.88" cy="218.93" r="16.12"/>
	<circle class="st6" cx="233.88" cy="186.68" r="16.12"/>
	<circle class="st6" cx="233.88" cy="154.43" r="16.12"/>
	<circle class="st6" cx="233.88" cy="122.18" r="16.12"/>
	<circle class="st6" cx="233.88" cy="89.93" r="16.12"/>
	<circle class="st6" cx="233.88" cy="57.68" r="16.12"/>
	<circle class="st6" cx="233.88" cy="25.43" r="16.12"/>
	<circle class="st6" cx="233.88" cy="-6.82" r="16.12"/>
	<circle class="st6" cx="266.12" cy="315.68" r="16.12"/>
	<circle class="st6" cx="266.12" cy="283.43" r="16.12"/>
	<circle class="st6" cx="266.12" cy="251.18" r="16.12"/>
	<circle class="st6" cx="266.12" cy="218.93" r="16.12"/>
	<circle class="st6" cx="266.12" cy="186.68" r="16.12"/>
	<circle class="st6" cx="266.12" cy="154.43" r="16.12"/>
	<circle class="st6" cx="266.12" cy="122.18" r="16.12"/>
	<circle class="st6" cx="266.12" cy="89.93" r="16.12"/>
	<circle class="st6" cx="266.12" cy="57.68" r="16.12"/>
	<circle class="st6" cx="266.12" cy="25.43" r="16.12"/>
	<circle class="st6" cx="266.12" cy="-6.82" r="16.12"/>
	<circle class="st6" cx="298.38" cy="315.68" r="16.12"/>
	<circle class="st6" cx="298.38" cy="283.43" r="16.12"/>
	<circle class="st6" cx="298.38" cy="251.18" r="16.12"/>
	<circle class="st6" cx="298.38" cy="218.93" r="16.12"/>
	<circle class="st6" cx="298.38" cy="186.68" r="16.12"/>
	<circle class="st6" cx="298.38" cy="154.43" r="16.12"/>
	<circle class="st6" cx="298.38" cy="122.18" r="16.12"/>
	<circle class="st6" cx="298.38" cy="89.93" r="16.12"/>
	<circle class="st6" cx="298.38" cy="57.68" r="16.12"/>
	<circle class="st6" cx="298.38" cy="25.43" r="16.12"/>
	<circle class="st6" cx="298.38" cy="-6.82" r="16.12"/>
	<circle class="st6" cx="330.62" cy="315.68" r="16.12"/>
	<circle class="st6" cx="330.62" cy="283.43" r="16.12"/>
	<circle class="st6" cx="330.62" cy="251.18" r="16.12"/>
	<circle class="st6" cx="330.62" cy="218.93" r="16.12"/>
	<circle class="st6" cx="330.62" cy="186.68" r="16.12"/>
	<circle class="st6" cx="330.62" cy="154.43" r="16.12"/>
	<circle class="st6" cx="330.62" cy="122.18" r="16.12"/>
	<circle class="st6" cx="330.62" cy="89.93" r="16.12"/>
	<circle class="st6" cx="330.62" cy="57.68" r="16.12"/>
	<circle class="st6" cx="330.62" cy="25.43" r="16.12"/>
	<circle class="st6" cx="330.62" cy="-6.82" r="16.12"/>
	<circle class="st6" cx="362.88" cy="315.68" r="16.12"/>
	<circle class="st6" cx="362.88" cy="283.43" r="16.12"/>
	<circle class="st6" cx="362.88" cy="251.18" r="16.12"/>
	<circle class="st6" cx="362.88" cy="218.93" r="16.12"/>
	<circle class="st6" cx="362.88" cy="186.68" r="16.12"/>
	<circle class="st6" cx="362.88" cy="154.43" r="16.12"/>
	<circle class="st6" cx="362.88" cy="122.18" r="16.12"/>
	<circle class="st6" cx="362.88" cy="89.93" r="16.12"/>
	<circle class="st6" cx="362.88" cy="57.68" r="16.12"/>
	<circle class="st6" cx="362.88" cy="25.43" r="16.12"/>
	<circle class="st6" cx="362.88" cy="-6.82" r="16.12"/>
</g>
</svg>
