<?xml version="1.0" encoding="utf-8"?>
<!-- Generator: Adobe Illustrator 25.2.1, SVG Export Plug-In . SVG Version: 6.00 Build 0)  -->
<svg version="1.1" id="Layer_1" xmlns="http://www.w3.org/2000/svg" xmlns:xlink="http://www.w3.org/1999/xlink" x="0px" y="0px"
	 viewBox="0 0 180 247.41" style="enable-background:new 0 0 180 247.41;" xml:space="preserve">
<style type="text/css">
	.st0{fill:#FFFFFF;}
	.st1{fill:#1E7357;}
	.st2{fill:#8AB578;}
	.st3{fill:#9AD9E9;}
	.st4{fill:#55A361;}
	.st5{fill:#3D8C59;}
	.st6{fill:#FACA31;}
	.st7{fill:#097B5A;}
	.st8{fill:#F5A0C5;}
	.st9{fill:#009770;}
	.st10{fill:#00724C;}
	.st11{fill:#003E28;}
	.st12{fill:#9DC365;}
	.st13{clip-path:url(#SVGID_4_);}
	.st14{fill:#004B32;}
	.st15{clip-path:url(#SVGID_6_);}
	.st16{clip-path:url(#SVGID_8_);}
	.st17{clip-path:url(#SVGID_10_);}
	.st18{clip-path:url(#SVGID_12_);}
	.st19{clip-path:url(#SVGID_14_);}
	.st20{opacity:0.2;}
	.st21{fill:#005438;}
	.st22{fill:#61BD62;}
	.st23{clip-path:url(#SVGID_18_);}
	.st24{clip-path:url(#SVGID_20_);}
	.st25{clip-path:url(#SVGID_22_);}
	.st26{clip-path:url(#SVGID_24_);}
	.st27{clip-path:url(#SVGID_26_);}
	.st28{fill:none;}
	.st29{clip-path:url(#SVGID_28_);}
	.st30{fill:#003D28;}
	.st31{fill:#005C42;}
	.st32{clip-path:url(#SVGID_30_);}
	.st33{clip-path:url(#SVGID_32_);}
	.st34{clip-path:url(#SVGID_34_);}
	.st35{fill:#56A361;}
	.st36{fill:#1E7358;}
	.st37{fill:#67BF74;}
	.st38{fill:#80B5C1;}
</style>
<g>
	<g>
		<g>
			<g>
				<path class="st1" d="M60.83,147.54c0,0-31.44-21.02-40.91-41.48C10.46,85.61,4.02,58.3,5.91,56.24
					c1.89-2.06,61.58,48.07,75.68,91.56L60.83,147.54z"/>
			</g>
		</g>
		<g>
			<g>
				<path class="st4" d="M9.94,63.11C20.01,77,29.47,91.15,39.4,104.96c4.89,6.95,9.94,13.79,15.16,20.48
					c5.26,6.66,10.58,13.27,16.74,19.24c-7.28-4.63-13.45-10.81-19.23-17.15c-2.96-3.14-5.59-6.54-8.35-9.84
					c-2.61-3.41-5.22-6.82-7.71-10.32c-4.95-7.01-9.67-14.17-14.02-21.56C17.62,78.45,13.49,70.93,9.94,63.11z"/>
			</g>
		</g>
	</g>
	<g>
		<g>
			<g>
				<path class="st1" d="M87.72,147.42c0,0-16.67-49.63-18.56-79.21c-1.89-29.58,4.92-67.07,9.28-68.21
					c4.36-1.14,55.11,90.3,16.48,147.41H87.72z"/>
			</g>
		</g>
		<g>
			<g>
				<path class="st5" d="M80.15,6.85c3.01,11.13,5.46,22.41,7.47,33.76c1.07,5.67,1.88,11.38,2.77,17.07
					c0.77,5.72,1.51,11.44,2.12,17.18c0.62,5.74,1.03,11.5,1.45,17.26c0.24,5.77,0.6,11.54,0.52,17.33
					c0.01,11.55-0.61,23.2-3.12,34.48c0.11-2.89,0.25-5.76,0.44-8.62c0.07-2.87,0.01-5.74,0.02-8.6c0.08-2.86-0.15-5.73-0.21-8.59
					l-0.13-4.29l-0.26-4.29c-0.62-11.43-1.64-22.85-2.87-34.25c-1.13-11.41-2.54-22.8-3.95-34.2L80.15,6.85z"/>
			</g>
		</g>
	</g>
	<g>
		<g>
			<g>
				<path class="st4" d="M87.72,147.42c0,0-9.47-35.68,8.33-63.71s41.15-57.93,43.68-57.37c2.53,0.56-7.7,89.72-44.82,121.08H87.72z
					"/>
			</g>
		</g>
		<g>
			<g>
				<path class="st1" d="M137.56,31.84c-3.59,9.55-7.38,18.98-11.22,28.39l-11.58,28.17l-11.67,28.12
					c-3.88,9.38-7.69,18.79-11.71,28.17c2.37-9.92,5.35-19.69,8.67-29.32c3.32-9.64,6.98-19.15,10.86-28.57
					c3.95-9.39,8.04-18.72,12.47-27.89C127.78,49.73,132.41,40.65,137.56,31.84z"/>
			</g>
		</g>
	</g>
	<g>
		<g>
			<g>
				<path class="st5" d="M90.94,145.83c0,0,13.26-36.48,37.12-49.87c23.86-13.39,48.1-24.3,51.51-22.25
					c3.41,2.05-12.5,46.52-81.43,73.71L90.94,145.83z"/>
			</g>
		</g>
		<g>
			<g>
				<path class="st4" d="M173.91,78.6c-6.43,5.53-12.88,10.96-19.33,16.38c-6.43,5.45-12.91,10.81-19.3,16.3l-19.25,16.36
					c-6.44,5.44-12.79,10.98-19.41,16.3c5.4-6.54,11.16-12.77,17.21-18.69c6-5.99,12.32-11.63,18.75-17.14
					c6.48-5.46,13.12-10.72,20-15.67C159.44,87.46,166.48,82.72,173.91,78.6z"/>
			</g>
		</g>
	</g>
	<g>
		<g>
			<g>
				<path class="st4" d="M103.41,146.47c0,0,13.91-21.47,37.01-24.88c23.1-3.41,35.6-7.2,36.36-5.3
					c0.76,1.89-24.62,27.43-46.97,31.14C107.47,151.13,103.41,146.47,103.41,146.47z"/>
			</g>
		</g>
		<g>
			<g>
				<path class="st4" d="M109.01,145.9c4.7-2.69,9.52-5.03,14.38-7.27c4.85-2.26,9.77-4.33,14.69-6.41c4.95-2,9.89-3.99,14.89-5.86
					c4.99-1.9,10.01-3.69,15.13-5.44c-4.32,3.29-9.04,5.95-13.81,8.41c-4.77,2.49-9.68,4.66-14.63,6.74
					c-4.97,2.01-9.98,3.92-15.09,5.57C119.48,143.32,114.32,144.83,109.01,145.9z"/>
			</g>
		</g>
	</g>
	<g>
		<g>
			<g>
				<path class="st5" d="M79.39,145.45c0,0-25.38-21.77-33.71-55.96c-8.33-34.19-11.74-65.99-9.09-65.81
					c2.65,0.18,53.1,57.89,52.5,122.21L79.39,145.45z"/>
			</g>
		</g>
		<g>
			<g>
				<path class="st1" d="M39.48,31.84c3.85,9.19,7.46,18.43,11.03,27.69l10.66,27.76c3.53,9.25,7.09,18.49,10.76,27.68
					c3.7,9.19,7.43,18.35,11.48,27.45c-5.58-8.27-10.19-17.15-14.47-26.15c-4.31-8.99-8.06-18.22-11.67-27.49
					c-3.54-9.3-6.85-18.69-9.83-28.18C44.46,51.12,41.68,41.56,39.48,31.84z"/>
			</g>
		</g>
	</g>
	<g>
		<g>
			<g>
				<path class="st4" d="M73.39,146.47c0,0-13.91-21.47-37.01-24.88c-23.1-3.41-35.6-7.2-36.36-5.3
					c-0.76,1.89,24.62,27.43,46.97,31.14C69.33,151.13,73.39,146.47,73.39,146.47z"/>
			</g>
		</g>
	</g>
</g>
<g>
	<g>
		<g>
			<g>
				<path class="st6" d="M138.58,151.57v29.04c-14.4-12-32.91-19.2-53.04-19.2s-38.61,7.2-53.01,19.2v-29.04H138.58z"/>
				<path class="st6" d="M85.54,163.3c20.27,0,38.81,7.47,53.04,19.79v8c-13.44-13.85-32.24-22.48-53.04-22.48
					c-20.77,0-39.58,8.63-53.01,22.48v-8C46.76,170.77,65.3,163.3,85.54,163.3z"/>
				<path class="st6" d="M138.58,196.67v16.56c0,18.79-15.38,34.17-34.19,34.17H66.7c-18.79,0-34.17-15.38-34.17-34.17v-16.58
					c12.88-14.85,31.86-24.25,53.01-24.25C106.7,172.4,125.71,181.82,138.58,196.67z"/>
			</g>
		</g>
		<g>
			<defs>
				<path id="SVGID_1_" d="M32.52,151.57v61.66c0,18.8,15.38,34.18,34.18,34.18h37.69c18.8,0,34.18-15.38,34.18-34.18v-61.66H32.52z
					"/>
			</defs>
			<clipPath id="SVGID_2_">
				<use xlink:href="#SVGID_1_"  style="overflow:visible;"/>
			</clipPath>
		</g>
	</g>
</g>
<g>
	<g>
		<rect x="24.31" y="145.16" class="st6" width="122.48" height="12.83"/>
	</g>
</g>
</svg>
