<?xml version="1.0" encoding="utf-8"?>
<!-- Generator: Adobe Illustrator 25.2.1, SVG Export Plug-In . SVG Version: 6.00 Build 0)  -->
<svg version="1.1" id="Layer_1" xmlns="http://www.w3.org/2000/svg" xmlns:xlink="http://www.w3.org/1999/xlink" x="0px" y="0px"
	 viewBox="0 0 180 229.19" style="enable-background:new 0 0 180 229.19;" xml:space="preserve">
<style type="text/css">
	.st0{fill:#FFFFFF;}
	.st1{fill:#1E7357;}
	.st2{fill:#8AB578;}
	.st3{fill:#9AD9E9;}
	.st4{fill:#55A361;}
	.st5{fill:#3D8C59;}
	.st6{fill:#FACA31;}
	.st7{fill:#097B5A;}
	.st8{fill:#F5A0C5;}
	.st9{fill:#009770;}
	.st10{fill:#00724C;}
	.st11{fill:#003E28;}
	.st12{fill:#9DC365;}
	.st13{clip-path:url(#SVGID_4_);}
	.st14{fill:#004B32;}
	.st15{clip-path:url(#SVGID_6_);}
	.st16{clip-path:url(#SVGID_8_);}
	.st17{clip-path:url(#SVGID_10_);}
	.st18{clip-path:url(#SVGID_12_);}
	.st19{clip-path:url(#SVGID_14_);}
	.st20{opacity:0.2;}
	.st21{fill:#005438;}
	.st22{fill:#61BD62;}
	.st23{clip-path:url(#SVGID_18_);}
	.st24{clip-path:url(#SVGID_20_);}
	.st25{clip-path:url(#SVGID_22_);}
	.st26{clip-path:url(#SVGID_24_);}
	.st27{clip-path:url(#SVGID_26_);}
	.st28{fill:none;}
	.st29{clip-path:url(#SVGID_28_);}
	.st30{fill:#003D28;}
	.st31{fill:#005C42;}
	.st32{clip-path:url(#SVGID_30_);}
	.st33{clip-path:url(#SVGID_32_);}
	.st34{clip-path:url(#SVGID_34_);}
	.st35{fill:#56A361;}
	.st36{fill:#1E7358;}
	.st37{fill:#67BF74;}
	.st38{fill:#80B5C1;}
</style>
<g>
	<g>
		<g>
			<path class="st8" d="M14.42,150.48c-4.26,58.64,37.09,83.6,91.15,77.92c41.65,0.33,69.63-38.14,64.7-77.92H14.42z"/>
		</g>
	</g>
	<g>
		<rect x="8.22" y="144.06" class="st8" width="171.78" height="12.84"/>
	</g>
	<g>
		<g>
			<g>
				<path class="st10" d="M84.58,118.67l-3.91-4.12c32.56-30.84,13.76-75.79,13.57-76.24l5.22-2.25
					C99.66,36.55,119.98,85.14,84.58,118.67z"/>
			</g>
		</g>
		<g>
			<g>
				<path class="st10" d="M124.9,142.84l2.57-4.03c-19.97-31.58-7-76.08-6.87-76.52l-3.26-2.36
					C117.2,60.4,103.19,108.51,124.9,142.84z"/>
			</g>
		</g>
		<g>
			<path class="st9" d="M144.24,27.67c-8.89-1.31-16.09,0.24-21.38,4.62c-6.56,5.42-8,13.31-8.24,14.99c-0.01,0-0.02,0.01-0.03,0.01
				c-1.93,0.75-4.45,1.91-8.37,4.55c-2.22,1.5-4.15,3.29-5.73,5.32c-2.63,3.39-3.93,7.28-3.86,11.58
				c0.16,9.13,7.88,17.67,15.27,20.66c7.32,2.96,15.15,1.98,22.73,1.03c2.14-0.27,4.35-0.54,6.49-0.72
				c9.54-0.78,18.88,1.07,29.39,5.84c0.43,0.19,3.64,1.87,5.27,2.73c0.15,0.08,0.32,0.07,0.46-0.03c0,0,0.01-0.01,0.01-0.01
				c0,0,0,0,0,0c0.13-0.1,0.2-0.26,0.19-0.43C176.42,97.15,171.11,31.62,144.24,27.67z"/>
		</g>
		<g>
			<defs>
				<path id="SVGID_27_" d="M96.64,68.74c-0.07-4.3,1.23-8.2,3.86-11.58c1.58-2.03,3.51-3.82,5.73-5.32
					c3.92-2.64,6.44-3.8,8.37-4.55c0.01,0,0.02-0.01,0.03-0.01c0.24-1.68,1.68-9.57,8.24-14.99c5.29-4.38,12.49-5.93,21.38-4.62
					c26.87,3.95,32.18,69.48,32.22,70.14c0.01,0.17-0.06,0.33-0.19,0.43c0,0,0,0,0,0c0,0-0.01,0.01-0.01,0.01
					c-0.14,0.1-0.31,0.11-0.46,0.03c-1.64-0.86-4.85-2.54-5.27-2.73c-10.51-4.77-19.85-6.62-29.39-5.84
					c-2.13,0.18-4.35,0.45-6.49,0.72c-7.58,0.95-15.42,1.93-22.73-1.03C104.52,86.41,96.79,77.87,96.64,68.74z"/>
			</defs>
			<clipPath id="SVGID_2_">
				<use xlink:href="#SVGID_27_"  style="overflow:visible;"/>
			</clipPath>
			<g style="clip-path:url(#SVGID_2_);">
				<g>
					<path class="st30" d="M176.23,98.86c-30.13-45.62-62.5-51.38-62.83-51.43l0.12-0.74c0.33,0.05,33,5.84,63.33,51.76
						L176.23,98.86z"/>
				</g>
			</g>
		</g>
		<g>
			<path class="st31" d="M169.62,104.63c-7.7-6.51-15.47-9.3-23.11-8.25c-9.45,1.28-15.5,7.95-16.72,9.41c-0.01,0-0.02,0-0.03-0.01
				c-2.29-0.43-5.37-0.82-10.67-0.62c-3,0.11-5.9,0.68-8.61,1.68c-4.51,1.67-8.05,4.61-10.53,8.75c-5.25,8.79-2.94,21.5,2.32,28.71
				c5.22,7.15,13.27,10.85,21.05,14.44c2.2,1.01,4.47,2.06,6.6,3.15c9.55,4.9,17.35,12.2,24.55,22.96c0.29,0.44,2.36,3.93,3.41,5.72
				c0.09,0.16,0.27,0.25,0.46,0.24c0.01,0,0.01,0,0.02,0c0,0,0,0,0,0c0.18-0.02,0.35-0.13,0.44-0.29
				C159.17,189.88,192.88,124.3,169.62,104.63z"/>
		</g>
		<g>
			<defs>
				<path id="SVGID_29_" d="M99.96,115.59c2.47-4.14,6.02-7.08,10.53-8.75c2.71-1,5.61-1.56,8.61-1.68c5.3-0.2,8.38,0.19,10.67,0.62
					c0.01,0,0.02,0,0.03,0.01c1.22-1.46,7.26-8.13,16.72-9.41c7.64-1.04,15.41,1.74,23.11,8.25c23.26,19.66-10.45,85.24-10.81,85.89
					c-0.09,0.17-0.25,0.28-0.44,0.29c0,0,0,0,0,0c-0.01,0-0.01,0-0.02,0c-0.19,0.01-0.37-0.08-0.46-0.24
					c-1.05-1.79-3.12-5.29-3.41-5.72c-7.19-10.76-14.99-18.06-24.55-22.96c-2.14-1.1-4.41-2.14-6.6-3.15
					c-7.78-3.58-15.83-7.29-21.05-14.44C97.02,137.09,94.71,124.38,99.96,115.59z"/>
			</defs>
			<clipPath id="SVGID_4_">
				<use xlink:href="#SVGID_29_"  style="overflow:visible;"/>
			</clipPath>
			<g class="st13">
				<g>
					<path class="st30" d="M158.03,191.38c-1.72-61.35-29.16-85.98-29.44-86.22l0.49-0.56c0.28,0.24,27.97,25.08,29.7,86.76
						L158.03,191.38z"/>
				</g>
			</g>
		</g>
		<g>
			<path class="st9" d="M114.01,113.17c-2.94-4.94-7.24-8.39-12.78-10.25c-3.33-1.12-6.91-1.69-10.62-1.72
				c-6.56-0.04-10.4,0.54-13.25,1.15c-0.01,0-0.03,0.01-0.04,0.01c-1.47-1.73-8.75-9.61-20.44-10.81
				c-9.44-0.99-19.16,2.69-28.91,10.89C-1.49,127.2,38.29,205.68,38.71,206.45c0.11,0.2,0.31,0.33,0.53,0.34c0,0,0,0,0.01,0
				c0.01,0,0.02,0,0.02,0c0.23,0.01,0.46-0.11,0.58-0.31c1.36-2.21,4.03-6.55,4.4-7.08c9.25-13.35,19.15-22.51,31.15-28.82
				c2.68-1.41,5.53-2.77,8.29-4.08c9.76-4.65,19.86-9.45,26.55-18.33C116.99,139.2,120.25,123.66,114.01,113.17z"/>
		</g>
		<g>
			<g>
				<path class="st30" d="M39.57,207.49l-0.75-0.04c4.05-75.01,39.12-106.2,39.48-106.51l0.49,0.57
					C78.43,101.81,43.6,132.82,39.57,207.49z"/>
			</g>
		</g>
		<g>
			<path class="st28" d="M114.01,113.17c-2.94-4.94-7.24-8.39-12.78-10.25c-3.33-1.12-6.91-1.69-10.62-1.72
				c-6.56-0.04-10.4,0.54-13.25,1.15c-0.01,0-0.03,0.01-0.04,0.01c-1.47-1.73-8.75-9.61-20.44-10.81
				c-9.44-0.99-19.16,2.69-28.91,10.89C-1.49,127.2,38.29,205.68,38.71,206.45c0.11,0.2,0.31,0.33,0.53,0.34c0,0,0,0,0.01,0
				c0.01,0,0.02,0,0.02,0c0.23,0.01,0.46-0.11,0.58-0.31c1.36-2.21,4.03-6.55,4.4-7.08c9.25-13.35,19.15-22.51,31.15-28.82
				c2.68-1.41,5.53-2.77,8.29-4.08c9.76-4.65,19.86-9.45,26.55-18.33C116.99,139.2,120.25,123.66,114.01,113.17z"/>
		</g>
		<g>
			<path class="st31" d="M87.36,88.87c-0.54-4.66-2.6-8.67-6.1-11.9c-2.11-1.94-4.58-3.57-7.34-4.82
				c-4.87-2.22-7.93-3.07-10.25-3.57c-0.01,0-0.02,0-0.03-0.01c-0.52-1.78-3.31-10.08-11.62-14.88c-6.7-3.88-15.17-4.39-25.17-1.53
				c-30.21,8.62-26.76,80.35-26.71,81.07c0.01,0.18,0.12,0.34,0.28,0.43c0,0,0,0,0,0c0.01,0,0.01,0.01,0.02,0.01
				c0.17,0.08,0.38,0.07,0.53-0.04c1.75-1.2,5.18-3.53,5.64-3.81c11.35-6.86,21.78-10.38,32.82-11.08c2.47-0.16,5.05-0.22,7.54-0.27
				c8.82-0.2,17.94-0.41,25.89-4.8C80.9,109.26,88.51,98.77,87.36,88.87z"/>
		</g>
		<g>
			<defs>
				<path id="SVGID_31_" d="M87.36,88.87c-0.54-4.66-2.6-8.67-6.1-11.9c-2.11-1.94-4.58-3.57-7.34-4.82
					c-4.87-2.22-7.93-3.07-10.25-3.57c-0.01,0-0.02,0-0.03-0.01c-0.52-1.78-3.31-10.08-11.62-14.88c-6.7-3.88-15.17-4.39-25.17-1.53
					c-30.21,8.62-26.76,80.35-26.71,81.07c0.01,0.18,0.12,0.34,0.28,0.43c0,0,0,0,0,0c0.01,0,0.01,0.01,0.02,0.01
					c0.17,0.08,0.38,0.07,0.53-0.04c1.75-1.2,5.18-3.53,5.64-3.81c11.35-6.86,21.78-10.38,32.82-11.08
					c2.47-0.16,5.05-0.22,7.54-0.27c8.82-0.2,17.94-0.41,25.89-4.8C80.9,109.26,88.51,98.77,87.36,88.87z"/>
			</defs>
			<clipPath id="SVGID_6_">
				<use xlink:href="#SVGID_31_"  style="overflow:visible;"/>
			</clipPath>
			<g class="st15">
				<g>
					<path class="st30" d="M0.5,134.33l-0.67-0.34c28.06-54.55,64.62-66.09,64.99-66.2l0.22,0.72C64.67,68.61,28.4,80.08,0.5,134.33
						z"/>
				</g>
			</g>
		</g>
		<g>
			<path class="st9" d="M115.46,24c-0.95-3.48-2.97-6.29-6.01-8.35c-1.83-1.24-3.89-2.19-6.13-2.83c-3.96-1.13-6.38-1.42-8.21-1.54
				c-0.01,0-0.02,0-0.03,0c-0.6-1.29-3.68-7.29-10.54-9.98C79-0.89,72.5-0.3,65.22,3.01C43.23,13.03,54.08,67.2,54.2,67.74
				c0.03,0.14,0.13,0.25,0.26,0.3c0,0,0,0,0,0c0,0,0.01,0,0.01,0c0.14,0.04,0.29,0.01,0.4-0.09c1.2-1.11,3.54-3.28,3.86-3.54
				c7.85-6.52,15.38-10.39,23.7-12.19c1.86-0.4,3.81-0.74,5.7-1.07c6.69-1.17,13.6-2.37,19.15-6.62
				C112.88,40.25,117.47,31.4,115.46,24z"/>
		</g>
		<g>
			<defs>
				<path id="SVGID_33_" d="M115.46,24c-0.95-3.48-2.97-6.29-6.01-8.35c-1.83-1.24-3.89-2.19-6.13-2.83
					c-3.96-1.13-6.38-1.42-8.21-1.54c-0.01,0-0.02,0-0.03,0c-0.6-1.29-3.68-7.29-10.54-9.98C79-0.89,72.5-0.3,65.22,3.01
					C43.23,13.03,54.08,67.2,54.2,67.74c0.03,0.14,0.13,0.25,0.26,0.3c0,0,0,0,0,0c0,0,0.01,0,0.01,0c0.14,0.04,0.29,0.01,0.4-0.09
					c1.2-1.11,3.54-3.28,3.86-3.54c7.85-6.52,15.38-10.39,23.7-12.19c1.86-0.4,3.81-0.74,5.7-1.07c6.69-1.17,13.6-2.37,19.15-6.62
					C112.88,40.25,117.47,31.4,115.46,24z"/>
			</defs>
			<clipPath id="SVGID_8_">
				<use xlink:href="#SVGID_33_"  style="overflow:visible;"/>
			</clipPath>
			<g class="st16">
				<g>
					<path class="st30" d="M54.68,68.56l-0.71-0.24c15.1-44.74,41.62-57.73,41.89-57.86l0.32,0.68
						C95.92,11.26,69.67,24.14,54.68,68.56z"/>
				</g>
			</g>
		</g>
	</g>
</g>
</svg>
