<?xml version="1.0" encoding="utf-8"?>
<!-- Generator: Adobe Illustrator 25.2.1, SVG Export Plug-In . SVG Version: 6.00 Build 0)  -->
<svg version="1.1" id="Layer_1" xmlns="http://www.w3.org/2000/svg" xmlns:xlink="http://www.w3.org/1999/xlink" x="0px" y="0px"
	 viewBox="0 0 180 298.15" style="enable-background:new 0 0 180 298.15;" xml:space="preserve">
<style type="text/css">
	.st0{fill:#FFFFFF;}
	.st1{fill:#1E7357;}
	.st2{fill:#8AB578;}
	.st3{fill:#9AD9E9;}
	.st4{fill:#55A361;}
	.st5{fill:#3D8C59;}
	.st6{fill:#FACA31;}
	.st7{fill:#097B5A;}
	.st8{fill:#F5A0C5;}
	.st9{fill:#009770;}
	.st10{fill:#00724C;}
	.st11{fill:#003E28;}
	.st12{fill:#9DC365;}
	.st13{clip-path:url(#SVGID_4_);}
	.st14{fill:#004B32;}
	.st15{clip-path:url(#SVGID_6_);}
	.st16{clip-path:url(#SVGID_8_);}
	.st17{clip-path:url(#SVGID_10_);}
	.st18{clip-path:url(#SVGID_12_);}
	.st19{clip-path:url(#SVGID_14_);}
	.st20{opacity:0.2;}
	.st21{fill:#005438;}
	.st22{fill:#61BD62;}
	.st23{clip-path:url(#SVGID_18_);}
	.st24{clip-path:url(#SVGID_20_);}
	.st25{clip-path:url(#SVGID_22_);}
	.st26{clip-path:url(#SVGID_24_);}
	.st27{clip-path:url(#SVGID_26_);}
	.st28{fill:none;}
	.st29{clip-path:url(#SVGID_28_);}
	.st30{fill:#003D28;}
	.st31{fill:#005C42;}
	.st32{clip-path:url(#SVGID_30_);}
	.st33{clip-path:url(#SVGID_32_);}
	.st34{clip-path:url(#SVGID_34_);}
	.st35{fill:#56A361;}
	.st36{fill:#1E7358;}
	.st37{fill:#67BF74;}
	.st38{fill:#80B5C1;}
</style>
<g>
	<g>
		<path class="st22" d="M96.71,255.48c9.95-6.54,23.64-5.41,26.26-2.42c2.81,3.21,0.18,14.71-9.77,21.25
			c-9.95,6.54-19.09,0.44-26.26,2.42C72.73,280.65,86.76,262.02,96.71,255.48z"/>
	</g>
	<g>
		<path class="st22" d="M118.88,285.4c-0.52-6.75,4.87-12.56,7.57-12.71c2.91-0.17,8.94,4.98,9.46,11.73
			c0.52,6.75-4.44,17-7.57,12.71C125.81,293.68,119.4,292.15,118.88,285.4z"/>
	</g>
	<g>
		<path class="st22" d="M139.29,259.86c-3.15-7.72,0.94-16.02,4.03-16.97c3.32-1.02,12.3,3.28,15.45,11
			c3.15,7.72-3.04,7.34-4.03,16.97C153.61,281.78,142.44,267.58,139.29,259.86z"/>
	</g>
	<g>
		<path class="st22" d="M158.12,235.73c-6.42-6.02-6.44-15.04-4.02-16.97c2.59-2.07,12.8-1.19,19.21,4.83
			c6.42,6.02,9.14,19.16,4.02,16.97C170.18,237.5,164.54,241.76,158.12,235.73z"/>
	</g>
	<g>
		<path class="st22" d="M123.38,224.41c5.1-4.08,12.75-4.09,14.39-2.56c1.76,1.65,1.01,8.14-4.1,12.21
			c-5.1,4.08-15.37,6.1-14.39,2.56C120.26,233.09,118.27,228.49,123.38,224.41z"/>
	</g>
	<g>
		<path class="st22" d="M140.8,110c-7.64,0.77-14.5-3.53-14.81-5.83c-0.33-2.47,5.22-7.86,12.86-8.63s18.36,3.24,14.81,5.83
			C148.49,105.15,148.44,109.23,140.8,110z"/>
	</g>
	<g>
		<path class="st22" d="M116.82,130.61c0.66-4.29,4.89-7.34,6.61-7.14c1.85,0.21,4.87,4.1,4.21,8.39c-0.66,4.29-4.84,3.79-6.61,7.14
			C119.77,141.38,116.16,134.89,116.82,130.61z"/>
	</g>
	<g>
		<path class="st22" d="M155.75,142.84c-6.8-2.37-10.27-8.68-9.32-10.73c1.02-2.19,8.5-4.51,15.3-2.14
			c6.8,2.37,13.56,9.68,9.32,10.73C160.68,143.26,162.55,145.21,155.75,142.84z"/>
	</g>
	<g>
		<path class="st22" d="M150.42,161.52c-3.39-3.18-3.4-7.95-2.13-8.96c1.37-1.09,6.76-0.63,10.15,2.55
			c3.39,3.18,1.37,6.43,2.13,8.96C161.76,168.09,153.8,164.7,150.42,161.52z"/>
	</g>
	<g>
		<path class="st22" d="M115.75,159.6c2.66-3.67,7.96-4.92,9.43-4.12c1.58,0.86,2.47,5.48-0.19,9.15c-2.66,3.67-6.69,2.42-9.43,4.12
			C113.11,170.27,113.09,163.27,115.75,159.6z"/>
	</g>
	<g>
		<path class="st22" d="M152.85,190.84c-6.8-2.37-10.27-8.68-9.32-10.73c1.02-2.19,8.5-4.51,15.3-2.14
			c6.8,2.37,0.64,6.58,9.32,10.73C172.02,190.55,159.65,193.21,152.85,190.84z"/>
	</g>
	<g>
		<path class="st22" d="M120.5,201.02c2.06-6.17,9.05-9.84,11.52-9.22c2.66,0.67,6.11,6.95,4.05,13.12
			c-2.06,6.17-9.88,13.53-11.52,9.22C123.14,210.46,118.43,207.19,120.5,201.02z"/>
	</g>
	<g>
		<path class="st22" d="M97.64,213.35c2.63-7.87,11.54-12.55,14.69-11.76c3.39,0.85,7.79,8.87,5.16,16.74
			c-2.63,7.87-12.91,15.46-14.69,11.76C100.6,225.51,95.01,221.21,97.64,213.35z"/>
	</g>
	<g>
		<path class="st22" d="M111.05,190.02c-3.99-4.47-3.38-10.67-1.59-11.87c1.92-1.29,8.87-0.15,12.87,4.32
			c3.99,4.47,0.89,8.53,1.59,11.87C125.22,200.66,115.04,194.49,111.05,190.02z"/>
	</g>
	<g>
		<path class="st22" d="M115.78,151.02c-4.88-0.94-8.02-4.85-7.64-6.32c0.41-1.57,5.14-3.85,10.02-2.91
			c4.88,0.94,2.98,2.96,7.64,6.32C128.11,149.78,120.65,151.96,115.78,151.02z"/>
	</g>
	<g>
		<path class="st22" d="M109.59,127.78c-4.25,3.4-10.62,3.41-11.98,2.13c-1.46-1.37-0.84-6.77,3.41-10.17
			c4.25-3.4,12.93-5.04,11.98-2.13C111.08,123.46,113.83,124.39,109.59,127.78z"/>
	</g>
	<g>
		<path class="st22" d="M86.42,147.58c-5.5-0.43-9.58-4.34-9.41-5.99c0.19-1.77,5.01-4.85,10.51-4.41c5.5,0.43,4.02,3.04,9.41,5.99
			C99.73,144.71,91.92,148.02,86.42,147.58z"/>
	</g>
	<g>
		<path class="st22" d="M81.63,124.96c-4.93,2.15-10.78,0.71-11.64-0.77c-0.93-1.59,1.28-6.41,6.22-8.56
			c4.93-2.15,14.34-0.92,11.64,0.77C84.55,118.47,86.56,122.81,81.63,124.96z"/>
	</g>
	<g>
		<path class="st22" d="M31.59,128.99c5.24,2.62,7.23,8.13,6.18,9.7c-1.13,1.69-7.55,2.83-12.79,0.21c-5.24-2.62-3.34-6.55-6.18-9.7
			C16.55,126.71,26.35,126.37,31.59,128.99z"/>
	</g>
	<g>
		<path class="st22" d="M107.09,90.77c-5.06,5.02-13.49,5.81-15.5,4.29c-2.16-1.63-2.22-8.86,2.84-13.87
			c5.06-5.02,12.25-1.42,15.5-4.29C114.89,72.5,112.16,85.76,107.09,90.77z"/>
	</g>
	<g>
		<path class="st22" d="M23.95,102.93c5.69,2.85,7.86,8.83,6.72,10.54c-1.22,1.84-8.21,3.08-13.9,0.23
			c-5.69-2.85-3.51-7.01-6.72-10.54C7.6,100.46,18.26,100.08,23.95,102.93z"/>
	</g>
	<g>
		<path class="st22" d="M63.38,106.85c-5.28,3.39-12.48,2.74-13.84,1.16c-1.46-1.7,0-7.74,5.27-11.14
			c5.28-3.39,16.56-3.65,13.84-1.16C61.56,102.2,68.66,103.46,63.38,106.85z"/>
	</g>
	<g>
		<path class="st22" d="M54.14,89.82c-4.74,5.77-13.55,7.39-15.87,5.97c-2.48-1.53-3.44-9.17,1.3-14.94
			c4.74-5.77,16.86-10.16,15.87-5.97C54.03,80.91,58.88,84.05,54.14,89.82z"/>
	</g>
	<g>
		<g>
			<path class="st4" d="M57.75,100.98c-6.64,3.2-11.63,9.47-13.91,15.6c-1.28,3.44-1.75,7.07-1.62,10.68c0.04,1.14,2.09,1.14,2.05,0
				c-0.32-9.16,4.04-18.16,12.66-23.68c0.6-0.38,1.21-0.76,1.86-1.07C59.94,101.95,58.91,100.42,57.75,100.98L57.75,100.98z"/>
		</g>
	</g>
	<g>
		<g>
			<path class="st4" d="M20.73,109.07c7.47,3.14,13.94,8.99,18.06,15.12c2.23,3.32,3.81,6.89,4.8,10.63
				c0.29,1.11,2.27,0.64,1.97-0.47c-2.8-10.59-10.71-19.82-21.31-25.58c-0.81-0.44-1.63-0.87-2.49-1.23
				C20.58,107.05,19.54,108.58,20.73,109.07L20.73,109.07z"/>
		</g>
	</g>
	<g>
		<g>
			<path class="st4" d="M27.66,134.08c5.96,1.24,11.09,5.84,13.54,10.65c1.53,3,2.19,6.28,2.35,9.54c0.05,1.14,2.1,1.14,2.05,0
				c-0.27-5.54-2.03-11.01-6.13-15.35c-2.42-2.56-5.58-4.6-9.1-5.89c-0.7-0.25-1.42-0.51-2.16-0.66
				C26.93,132.11,26.38,133.81,27.66,134.08L27.66,134.08z"/>
		</g>
	</g>
	<g>
		<g>
			<path class="st4" d="M106.07,266.5c9.23-5.57,18.19-11.88,25.86-19.02c2.68-2.49,5.22-5.15,7.21-8.1
				c0.67-0.99-1.1-1.88-1.77-0.89c-3.66,5.41-9.07,9.93-14.41,14.09c-4.72,3.68-9.68,7.14-14.78,10.41
				c-1.04,0.67-2.08,1.33-3.14,1.97C103.97,265.61,104.99,267.15,106.07,266.5L106.07,266.5z"/>
		</g>
	</g>
	<g>
		<g>
			<path class="st4" d="M151.5,261.61c-2.23-3.79-3.93-7.86-5.29-11.93c-2.43-7.25-3.95-15.42-0.85-22.69
				c0.46-1.07-1.52-1.53-1.97-0.47c-3.16,7.42-1.72,15.8,0.71,23.22c1.43,4.36,3.26,8.73,5.64,12.77
				C150.33,263.53,152.09,262.63,151.5,261.61L151.5,261.61z"/>
		</g>
	</g>
	<g>
		<g>
			<path class="st4" d="M127.71,230.38c7.53-4.27,14.23-10.88,17.5-18.15c1.45-3.22,2.13-6.65,1.93-10.1
				c-0.06-1.14-2.11-1.14-2.05,0c0.42,7.32-3.51,14.02-8.98,19.4c-2.76,2.72-5.93,5.32-9.44,7.32
				C125.58,229.47,126.6,231,127.71,230.38L127.71,230.38z"/>
		</g>
	</g>
	<g>
		<g>
			<path class="st4" d="M168.97,233.68c-2.98-1.62-5.54-4.01-7.79-6.31c-6.22-6.35-10.38-14.03-12.95-22.01
				c-0.35-1.1-2.33-0.63-1.97,0.47c3.38,10.5,9.65,21.1,19.62,28.06c0.66,0.46,1.34,0.93,2.06,1.32
				C169.06,235.81,170.09,234.28,168.97,233.68L168.97,233.68z"/>
		</g>
	</g>
	<g>
		<g>
			<path class="st4" d="M128.08,207.85c5.42-8.97,7.71-20.39,4.79-30.24c-0.33-1.1-2.3-0.64-1.97,0.47
				c2.78,9.37,0.58,20.32-4.58,28.87C125.7,207.96,127.47,208.86,128.08,207.85L128.08,207.85z"/>
		</g>
	</g>
	<g>
		<g>
			<path class="st4" d="M161.37,185.88c-3.26-0.83-6.43-2.04-9.45-3.37c-5.94-2.62-11.79-6.1-15.6-10.94
				c-2.34-2.98-3.72-6.38-3.81-10c-0.03-1.14-2.08-1.14-2.05,0c0.32,12.68,14.28,20.66,26.56,24.85c1.25,0.43,2.51,0.84,3.8,1.17
				C162.09,187.91,162.63,186.2,161.37,185.88L161.37,185.88z"/>
		</g>
	</g>
	<g>
		<g>
			<path class="st4" d="M118.77,163.79c2.57-1.92,4.72-4.38,6.66-6.77c4.97-6.11,8.47-13.07,10.69-20.28
				c0.34-1.1-1.63-1.57-1.97-0.47c-2.17,7.08-5.6,13.85-10.48,19.85c-1.85,2.27-3.9,4.58-6.34,6.41
				C116.33,163.29,117.78,164.54,118.77,163.79L118.77,163.79z"/>
		</g>
	</g>
	<g>
		<g>
			<path class="st4" d="M156.47,159.64c-3.34-2.35-6.2-5.36-8.73-8.34c-6.4-7.53-10.84-16.17-13.31-25.26
				c-0.3-1.11-2.28-0.64-1.97,0.47c2.5,9.23,7.02,18.04,13.51,25.68c2.64,3.1,5.58,6.26,9.05,8.7
				C156.03,161.61,157.49,160.36,156.47,159.64L156.47,159.64z"/>
		</g>
	</g>
	<g>
		<g>
			<path class="st4" d="M123.53,132.07c0.51-3.47,0.33-7.08-0.17-10.54c-0.96-6.61-3.57-13.1-8.85-18.06
				c-0.9-0.84-2.34,0.42-1.45,1.25c7.48,7.02,9.8,18.05,8.43,27.34C121.32,133.2,123.37,133.19,123.53,132.07L123.53,132.07z"/>
		</g>
	</g>
	<g>
		<g>
			<path class="st4" d="M159.14,135.66c-8.34-2.62-16.57-6.84-23.06-12.06c-2.83-2.28-5.33-4.83-7.24-7.74
				c-0.65-0.99-2.42-0.1-1.77,0.89c6.06,9.2,17.46,15.4,28.43,19.52c1.02,0.38,2.05,0.76,3.1,1.09
				C159.83,137.76,160.37,136.05,159.14,135.66L159.14,135.66z"/>
		</g>
	</g>
	<g>
		<g>
			<path class="st4" d="M104.13,101.16c5.18,1.66,10.61,2.89,16.04,3.78c7.43,1.21,17.05,2.41,23.76-1.46
				c1.09-0.63,0.07-2.17-1.03-1.53c-6.56,3.79-16.28,2.33-23.49,1.06c-4.98-0.88-9.95-2.03-14.73-3.55
				C103.44,99.05,102.9,100.76,104.13,101.16L104.13,101.16z"/>
		</g>
	</g>
	<g>
		<g>
			<path class="st4" d="M99.25,85.09c-0.21,1.18-0.76,1.99-1.47,3.02c-2.03,2.98-5.07,5.42-8.26,7.45c-3.07,1.95-6.4,3.58-9.83,5.01
				c-1.19,0.5-0.15,2.03,1.03,1.53c5.48-2.3,10.85-5.12,15.1-8.95c2.07-1.86,3.92-4,4.99-6.43c0.16-0.37,0.33-0.77,0.4-1.17
				C101.42,84.44,99.45,83.96,99.25,85.09L99.25,85.09z"/>
		</g>
	</g>
	<g>
		<g>
			<path class="st4" d="M79.7,118.55c-3,1.15-5.85,2.69-8.54,4.31c-5.69,3.43-10.85,7.64-14.58,12.73
				c-2.44,3.33-4.19,7.03-5.03,10.92c-0.24,1.11,1.73,1.59,1.97,0.47c2.49-11.43,12.88-20.16,24.25-25.6
				c0.97-0.46,1.95-0.92,2.96-1.3C81.93,119.62,80.89,118.1,79.7,118.55L79.7,118.55z"/>
		</g>
	</g>
	<g>
		<g>
			<path class="st4" d="M119,187.65c-2.72-2.24-5.19-4.76-7.44-7.36c-4.06-4.7-7.88-10.2-8.52-16.17c-0.12-1.13-2.17-1.14-2.05,0
				c0.67,6.21,4.39,11.89,8.59,16.82c2.4,2.81,5.03,5.56,7.97,7.97C118.51,189.69,119.96,188.44,119,187.65L119,187.65z"/>
		</g>
	</g>
	<g>
		<g>
			<path class="st4" d="M65.95,149.28c1.18-1.76,3-3.32,4.92-4.56c4.57-2.94,10.17-3.77,15.69-2.72c1.28,0.24,1.83-1.46,0.54-1.71
				c-4.86-0.93-9.86-0.62-14.34,1.33c-2.85,1.24-5.38,3.09-7.35,5.26c-0.43,0.48-0.87,0.97-1.22,1.5
				C63.52,149.37,65.29,150.26,65.95,149.28L65.95,149.28z"/>
		</g>
	</g>
	<g>
		<g>
			<path class="st4" d="M85.04,133.36c1.99-0.15,3.99-0.45,5.94-0.82c3.55-0.67,7.19-1.63,10.26-3.36c1.64-0.92,3.13-2.1,4.05-3.62
				c0.61-1.01-1.16-1.91-1.77-0.89c-1.52,2.52-4.79,3.91-7.74,4.85c-2.89,0.91-5.92,1.5-8.95,1.88c-0.55,0.07-1.12,0.14-1.78,0.19
				C83.74,131.68,83.73,133.46,85.04,133.36L85.04,133.36z"/>
		</g>
	</g>
	<g>
		<g>
			<path class="st4" d="M99.35,137.87c0.88,1.24,1.96,2.4,3.07,3.49c2.16,2.12,4.75,4.08,7.75,5.23c1.85,0.71,3.83,1.12,5.86,1.04
				c1.31-0.05,1.32-1.82,0-1.77c-5.86,0.21-10.83-3.94-14.01-7.73c-0.32-0.38-0.63-0.76-0.91-1.15
				C100.43,136.01,98.66,136.9,99.35,137.87L99.35,137.87z"/>
		</g>
	</g>
	<g>
		<path class="st4" d="M41.96,126.36c1.9,6.81,2.37,13.96,2.12,20.95c-0.14,3.85-0.44,7.76-1.26,11.55h2.06
			c1.93-9.18,1.74-18.97,0.13-28.14c-1.62-9.23-7.49-18.12-6.77-27.6c0.54-7.07,5.09-13.25,10.26-18.51
			c0.85-0.86-0.59-2.12-1.45-1.25c-4.58,4.67-8.71,9.94-10.25,16.02c-1.13,4.46-0.67,8.98,0.58,13.37
			C38.71,117.33,40.68,121.76,41.96,126.36z"/>
	</g>
	<g>
		<path class="st4" d="M149.14,210.94c-0.33-5.61-2.5-10.95-5.36-15.95c-2.77-4.84-6.22-9.35-9.11-14.14
			c-1.22-2.02-2.37-4.06-2.83-6.32c-0.47-2.33-0.39-4.74-0.17-7.09c1.08-11.59,5.58-22.9,4.26-34.64
			c-1.18-10.5-7.99-20.31-17.43-26.87c-10.25-7.12-23.57-9.87-36.2-6.22c-10.46,3.03-18.17,9.38-22.98,17.89
			c-6.76,11.96-8.66,27.72-7.93,40.92c0.01,0.1,0.01,0.21,0.02,0.31h2.05c-0.83-10.94,0.69-23.91,4.73-34.22
			c3.12-7.94,8.36-15.66,16.85-20.1c11.99-6.26,26.55-6.13,38.32,0.38c10.32,5.71,18.39,15.52,20.26,26.09
			c2.03,11.47-2.2,22.89-3.74,34.19c-0.57,4.19-0.9,8.73,0.93,12.73c2.09,4.56,5.31,8.72,8.1,12.97c3.14,4.78,6.04,9.76,7.41,15.16
			c1.4,5.51,0.82,11.02-1.2,16.34c-3.71,9.78-9.54,18.9-13.81,28.51c-4.6,10.35-8.07,21.59-6.17,32.75c0.47,2.74,1.28,5.41,2.4,8
			c0.46,1.06,2.44,0.6,1.97-0.47c-9.82-22.65,7.37-44.87,16.36-65.36C147.98,221.04,149.44,216.11,149.14,210.94z"/>
	</g>
	<g>
		<path class="st4" d="M112.43,198.89c-1.45-4.83-4.6-9.01-7.36-13.33c-2.4-3.76-2.59-8.14-2.6-12.36
			c-0.01-5.08,0.48-10.15,1.06-15.2c0.89-7.79,2.82-16.8-4.27-23.02c-8.19-7.18-21.58-2.98-28.22,3.71
			c-4.81,4.84-9.56,13.44-11.67,20.15h2.15c1.77-5.17,5.24-11.69,8.16-15.61c2.68-3.59,6.23-6.91,10.82-8.67
			c5.17-1.97,11.79-2.37,16.37,0.9c7.49,5.36,5.57,14.44,4.72,21.74c-0.55,4.66-1.02,9.34-1.13,14.03c-0.09,4.01-0.1,8.3,1.28,12.17
			c1.59,4.44,5.36,8.2,7.4,12.52c3.09,6.54,2.49,13.18-1.11,19.48c-0.58,1.02,1.18,1.92,1.77,0.89
			C112.91,210.83,114.23,204.89,112.43,198.89z"/>
	</g>
</g>
<g>
	<g>
		<g>
			<g>
				<g>
					<path class="st3" d="M7.11,161.8v36.89c0,16.23,13.31,29.5,29.58,29.5h32.62c16.27,0,29.58-13.28,29.58-29.5V161.8H7.11z"/>
				</g>
				<g>
					<defs>
						<path id="SVGID_15_" d="M7.11,161.8v36.89c0,16.23,13.31,29.5,29.58,29.5h32.62c16.27,0,29.58-13.28,29.58-29.5V161.8H7.11z"
							/>
					</defs>
					<use xlink:href="#SVGID_15_"  style="overflow:visible;fill:#9AD9E9;"/>
					<clipPath id="SVGID_2_">
						<use xlink:href="#SVGID_15_"  style="overflow:visible;"/>
					</clipPath>
				</g>
			</g>
		</g>
		<g>
			<path class="st6" d="M103.35,167.33H2.65c-1.46,0-2.65-1.19-2.65-2.65l0-5.77c0-1.46,1.19-2.65,2.65-2.65h100.7
				c1.46,0,2.65,1.19,2.65,2.65v5.77C106,166.15,104.81,167.33,103.35,167.33z"/>
		</g>
	</g>
</g>
<g>
	<g>
		<g>
			<path d="M100.38,179.72c-1.47-5.03-2.94-9.47-4.41-14.5c-3.53-12.09-7.06-24.18-10.58-36.27c-4.29-14.71-8.58-29.41-12.87-44.11
				c-3.69-12.66-7.39-25.31-11.08-37.97c-1.22-4.17-2.44-8.35-3.65-12.52c-0.57-1.95-1.01-4.07-1.74-5.96
				c-0.03-0.08-0.05-0.18-0.08-0.27c-0.01-0.03-0.02-0.04-0.03-0.07c-0.03-0.09-0.06-0.16-0.11-0.24c-0.02-0.03-0.03-0.06-0.05-0.08
				c-0.04-0.06-0.09-0.11-0.14-0.16c-0.26-0.23-0.6-0.29-0.9-0.16c-0.27,0.09-0.5,0.31-0.59,0.65c-0.01,0.02-0.02,0.04-0.03,0.06
				c-1.64,5.03-3.28,10.06-4.93,15.09c-3.94,12.08-7.89,24.16-11.83,36.24c-4.75,14.54-9.49,29.09-14.24,43.63
				c-4.12,12.64-8.25,25.28-12.37,37.92c-1.36,4.17-2.72,8.34-4.08,12.51c-0.62,1.9-1.58,3.95-1.94,5.94
				c-0.02,0.09-0.06,0.18-0.09,0.26c0,0.01,0,0.01,0,0.02c-0.04,0.13-0.06,0.26-0.05,0.4c0,0.04,0.01,0.07,0.02,0.1
				c0.02,0.19,0.08,0.37,0.2,0.52c0,0.01,0,0.01,0.01,0.02c7.97,13.88,15.94,27.76,23.91,41.63c1.11,1.94,2.22,3.87,3.34,5.81
				c0.33,0.58,1.35,0.67,1.66,0c6.48-13.94,12.96-27.88,19.44-41.81c0.61-1.31,1.22-2.61,1.82-3.92
				c5.37,13.2,10.73,26.39,16.1,39.59c0.8,1.97,1.6,3.95,2.41,5.92c0.28,0.7,1.34,1.03,1.75,0.23c7.21-13.87,14.41-27.74,21.62-41.6
				c0.97-1.88,1.95-3.75,2.92-5.63C100.23,180.83,100.57,180.37,100.38,179.72z M58.53,43.79c3.53,12.09,7.06,24.18,10.58,36.27
				c4.29,14.7,8.58,29.41,12.87,44.11c3.69,12.66,7.39,25.31,11.08,37.97c1.22,4.17,2.44,8.35,3.65,12.52
				c0.31,1.06,1.01,3.12,1.47,4.47c-10.19,0-20.38,0-30.57,0c-3.87,0-7.74,0-11.61,0c0-4.71,0-9.42,0-14.13c0-12.08,0-24.17,0-36.25
				c0-14.56,0-29.12,0-43.68c0-12.66,0-25.32,0-37.97c0-3.98,0-7.97,0-11.95C56.85,38.03,57.69,40.91,58.53,43.79z M11.43,165.2
				c3.94-12.08,7.89-24.16,11.83-36.24c4.75-14.54,9.49-29.09,14.24-43.63c4.12-12.64,8.25-25.28,12.37-37.92
				c1.36-4.17,2.72-8.34,4.08-12.51c0.05-0.14,0.09-0.29,0.14-0.43c0,2.98,0,5.96,0,8.93c0,12.08,0,24.17,0,36.25
				c0,14.56,0,29.12,0,43.68c0,12.66,0,25.32,0,37.97c0,4.16,0,8.31,0,12.47c0,1.74-0.16,3.61-0.04,5.37c-12.31,0-24.61,0-36.92,0
				c-3.42,0-6.84,0-10.26,0C8.39,174.49,9.91,169.85,11.43,165.2z M34.78,221.43c-0.66,1.41-1.31,2.82-1.97,4.23
				c-7.66-13.35-15.33-26.69-22.99-40.04c-0.87-1.52-1.75-3.04-2.62-4.57c10.04,0,20.07,0,30.11,0c5.42,0,10.83,0,16.25,0
				C47.29,194.51,41.03,207.97,34.78,221.43z M76.62,221.42c-0.7,1.35-1.4,2.69-2.1,4.04c-5.38-13.23-10.76-26.47-16.14-39.7
				c-0.64-1.57-1.28-3.14-1.91-4.71c10.44,0,20.88,0,31.31,0c3.27,0,6.54,0,9.81,0C90.6,194.51,83.61,207.97,76.62,221.42z"/>
		</g>
		<g>
			<g>
				<path d="M8.73,179.96c0,1.56-1.27,2.82-2.83,2.82c-1.56,0-2.83-1.26-2.83-2.82s1.27-2.82,2.83-2.82
					C7.47,177.14,8.73,178.4,8.73,179.96z"/>
			</g>
			<g>
				<path d="M57.82,179.96c0,1.56-1.27,2.82-2.83,2.82c-1.56,0-2.83-1.26-2.83-2.82s1.27-2.82,2.83-2.82
					C56.56,177.14,57.82,178.4,57.82,179.96z"/>
			</g>
			<g>
				<path d="M102.02,179.96c0,1.56-1.27,2.82-2.83,2.82s-2.83-1.26-2.83-2.82s1.27-2.82,2.83-2.82S102.02,178.4,102.02,179.96z"/>
			</g>
			<g>
				<path d="M35.72,227.74c0,1.56-1.27,2.82-2.83,2.82c-1.56,0-2.83-1.26-2.83-2.82s1.27-2.82,2.83-2.82
					C34.46,224.92,35.72,226.18,35.72,227.74z"/>
			</g>
			<g>
				<path d="M77.09,227.74c0,1.56-1.27,2.82-2.83,2.82c-1.56,0-2.83-1.26-2.83-2.82s1.27-2.82,2.83-2.82
					C75.83,224.92,77.09,226.18,77.09,227.74z"/>
			</g>
		</g>
	</g>
	<g>
		<g>
			<ellipse cx="55.27" cy="27.17" rx="4.74" ry="4.73"/>
		</g>
		<g>
			<g>
				<path d="M56.23,27.17c0-7.66,0-15.33,0-23c0-1.08,0-2.17,0-3.25c0-1.23-1.92-1.23-1.92,0c0,7.67,0,15.33,0,23
					c0,1.08,0,2.17,0,3.25C54.31,28.4,56.23,28.4,56.23,27.17L56.23,27.17z"/>
			</g>
		</g>
	</g>
</g>
</svg>
