<?xml version="1.0" encoding="utf-8"?>
<!-- Generator: Adobe Illustrator 25.2.1, SVG Export Plug-In . SVG Version: 6.00 Build 0)  -->
<svg version="1.1" id="Layer_1" xmlns="http://www.w3.org/2000/svg" xmlns:xlink="http://www.w3.org/1999/xlink" x="0px" y="0px"
	 viewBox="0 0 180 323.61" style="enable-background:new 0 0 180 323.61;" xml:space="preserve">
<style type="text/css">
	.st0{fill:#FFFFFF;}
	.st1{fill:#1E7357;}
	.st2{fill:#8AB578;}
	.st3{fill:#9AD9E9;}
	.st4{fill:#55A361;}
	.st5{fill:#3D8C59;}
	.st6{fill:#FACA31;}
	.st7{fill:#097B5A;}
	.st8{fill:#F5A0C5;}
	.st9{fill:#009770;}
	.st10{fill:#00724C;}
	.st11{fill:#003E28;}
	.st12{fill:#9DC365;}
	.st13{clip-path:url(#SVGID_4_);}
	.st14{fill:#004B32;}
	.st15{clip-path:url(#SVGID_6_);}
	.st16{clip-path:url(#SVGID_8_);}
	.st17{clip-path:url(#SVGID_10_);}
	.st18{clip-path:url(#SVGID_12_);}
	.st19{clip-path:url(#SVGID_14_);}
	.st20{opacity:0.2;}
	.st21{fill:#005438;}
	.st22{fill:#61BD62;}
	.st23{clip-path:url(#SVGID_18_);}
	.st24{clip-path:url(#SVGID_20_);}
	.st25{clip-path:url(#SVGID_22_);}
	.st26{clip-path:url(#SVGID_24_);}
	.st27{clip-path:url(#SVGID_26_);}
	.st28{fill:none;}
	.st29{clip-path:url(#SVGID_28_);}
	.st30{fill:#003D28;}
	.st31{fill:#005C42;}
	.st32{clip-path:url(#SVGID_30_);}
	.st33{clip-path:url(#SVGID_32_);}
	.st34{clip-path:url(#SVGID_34_);}
	.st35{fill:#56A361;}
	.st36{fill:#1E7358;}
	.st37{fill:#67BF74;}
	.st38{fill:#80B5C1;}
</style>
<g>
	<g>
		<g>
			<path class="st1" d="M113.39,33.37c-3.8-1.35-8.14-1.67-12.12-1.3c-8.6,0.8-15.75,5.82-20.04,13.24
				c-7.24,12.5-5.76,27.35-4.26,41.12c1.98,18.24,5.46,36.33,9.24,54.27c3.64,17.32,7.7,34.54,12.01,51.7
				c2.21,8.78,4.18,17.73,6.88,26.38c0.04,0.13,0.07,0.26,0.11,0.38c0.36,1.32,2.51,1.05,2.14-0.29
				c-1.89-6.87-3.68-13.78-5.45-20.69c-4.07-15.93-7.92-31.93-11.45-47.99c-3.93-17.87-7.55-35.84-10.08-53.97
				c-1.06-7.58-1.94-15.21-2.29-22.86c-0.24-5.44-0.34-11.09,0.84-16.44c2-9.1,7.61-18.16,16.69-21.43
				c5.06-1.82,10.94-1.83,16.06-0.4c0.3,0.08,0.59,0.17,0.89,0.27C113.87,35.83,114.7,33.83,113.39,33.37L113.39,33.37z"/>
		</g>
	</g>
	<g>
		<g>
			<path class="st1" d="M104.83,61.63c5.21,0.78-1.81,12.84-2.72,22.66c4.53,1.7,9.83,2.84,15.86,3.2c0.76-7.2,2.39-15.27,5.9-15.93
				c4.08-0.77,3.29,7.58,3.94,15.85c4.83-0.35,10.01-1.16,15.51-2.5c-0.75-5.55-0.69-10.72,1.74-12.01c2.97-1.57,4.66,3.5,6.83,9.56
				c3.43-1.12,6.96-2.44,10.6-3.97c-0.38-4.49-0.02-8.32,2.03-9.41c2.35-1.25,3.9,1.68,5.52,5.96c3.25-1.58,6.56-3.29,9.95-5.22
				c-0.96-3.78-2.01-7.35-3.12-10.79c-4.21,1.79-7.4,2.7-8.12,0.14c-0.63-2.23,1.88-5.14,5.39-7.98c-1.41-3.69-2.9-7.15-4.47-10.4
				c-5.88,2.63-10.71,4.92-11.63,1.69c-0.75-2.65,2.94-6.27,7.46-9.57c-2.84-4.9-5.84-9.2-8.93-12.93
				c-6.42,5.25-11.9,11.59-14.17,8.12c-1.95-2.99,2.74-9.75,7.42-15.28c-4.43-4.1-8.92-7.14-13.29-9.23
				c-6.47,7.45-10.31,20.86-14.48,17.64c-3.44-2.65,0.55-13.78,3.64-20.99c-8.7-1.14-15.92,1.83-19.53,7.95
				c-11.08,18.77-1.8,29.37-1.8,29.37S90.31,38.2,84.42,59.18c-1.92,6.84,0.93,14.11,7.78,19.6
				C95.27,71.56,100.54,60.98,104.83,61.63z M141.56,44.95c-1.08-1.19,0.06-3.98,2.54-6.25c2.48-2.27,5.37-3.14,6.46-1.95
				c1.08,1.19-0.06,3.98-2.54,6.25C145.53,45.26,142.64,46.13,141.56,44.95z M154.58,68.38c-0.22-1.85,0.31-3.44,1.2-3.55
				c0.88-0.11,1.78,1.31,2.01,3.16c0.22,1.85-0.31,3.44-1.2,3.55C155.7,71.65,154.8,70.24,154.58,68.38z M111.19,61.39
				c0.23-3.93,1.93-7.03,3.81-6.92c1.88,0.11,3.22,3.38,2.99,7.32c-0.23,3.93-1.93,7.03-3.81,6.92
				C112.3,68.6,110.96,65.32,111.19,61.39z"/>
		</g>
	</g>
</g>
<g>
	<g>
		<g>
			<path class="st4" d="M137.95,104.21c-7.03,3.32-13.31,9.08-18.53,14.7c-13.62,14.66-21.95,33.51-25.81,53.01
				c-3.43,17.3-3.55,35.09-1.73,52.58c0.14,1.37,2.31,1.39,2.16,0c-2.83-27.19-1.01-55.83,11.11-80.75
				c6.33-13.01,15.47-25.04,27.27-33.56c2.09-1.51,4.28-3.02,6.62-4.12C140.3,105.48,139.2,103.62,137.95,104.21L137.95,104.21z"/>
		</g>
	</g>
	<g>
		<g>
			<path class="st4" d="M116.97,107.38c0.41,3.32-8.16,1.09-14.32,2.22c-0.26,3.06-0.05,6.5,0.76,10.25
				c4.53-0.77,9.74-1.16,10.75,0.88c1.17,2.36-4.07,3.31-9.01,5.13c1.04,2.89,2.42,5.92,4.19,9.06c3.27-1.41,6.44-2.26,7.64-0.99
				c1.47,1.54-1.34,3.45-4.68,5.81c1.27,1.9,2.68,3.84,4.25,5.8c2.68-1,5.09-1.44,6.1-0.37c1.16,1.22-0.36,2.67-2.7,4.4
				c1.52,1.72,3.14,3.44,4.89,5.19c2.15-1.23,4.15-2.49,6.07-3.76c-1.82-2.27-2.92-4.06-1.48-4.94c1.25-0.77,3.47,0.27,5.8,1.93
				c2.01-1.49,3.88-3,5.6-4.51c-2.62-3.14-4.84-5.71-3.02-6.82c1.49-0.91,4.33,0.72,7.13,2.92c2.51-2.58,4.62-5.15,6.38-7.68
				c-4.31-3.02-9.13-5.29-7.39-7.27c1.5-1.71,6.43,0.01,10.61,1.92c1.75-3.41,2.84-6.68,3.37-9.71c-5.66-2.68-14.52-2.73-13.27-5.83
				c1.03-2.56,8.52-2.02,13.46-1.37c-0.79-5.52-3.85-9.42-8.21-10.58c-13.38-3.56-18.27,3.93-18.27,3.93s-2.8-8.49-16.64-8.5
				c-4.51,0-8.47,2.99-10.65,8.11C109.26,103.24,116.63,104.65,116.97,107.38z M133.46,126.98c0.54-0.86,2.45-0.65,4.26,0.48
				c1.81,1.13,2.84,2.75,2.3,3.61s-2.45,0.65-4.26-0.48C133.95,129.46,132.92,127.85,133.46,126.98z M121.36,138.96
				c1.09-0.45,2.16-0.4,2.37,0.12c0.22,0.52-0.49,1.31-1.59,1.77c-1.09,0.45-2.16,0.4-2.37-0.12
				C119.56,140.2,120.27,139.41,121.36,138.96z M118.2,111.23c2.44-0.54,4.63-0.02,4.89,1.14c0.26,1.17-1.52,2.55-3.96,3.08
				c-2.44,0.54-4.63,0.02-4.89-1.14C113.99,113.14,115.76,111.77,118.2,111.23z"/>
		</g>
	</g>
</g>
<g>
	<g>
		<g>
			<path class="st1" d="M138.81,170.13c-3.84,1.29-7.38,3.95-10.41,6.55c-8.35,7.18-14.14,16.96-18.07,27.14
				c-3.55,9.2-5.57,18.9-6.75,28.67c-0.17,1.38,2,1.37,2.16,0c2.58-21.35,10.31-47.19,30.34-58.66c1.16-0.66,2.35-1.29,3.3-1.6
				C140.7,171.78,140.13,169.69,138.81,170.13L138.81,170.13z"/>
		</g>
	</g>
	<g>
		<g>
			<path class="st1" d="M155.6,172.63c0.26-1.43,3.58-2.13,6.55-2.45c-0.16-2.47-0.64-4.66-1.33-6.53c-4.04,0.4-9,3.31-9.34,1.15
				c-0.28-1.77,4.08-3.94,7.05-5.22c-2.27-2.83-5.26-3.98-8.09-3.19c-8.62,2.45-8.88,8.24-8.88,8.24s-4.38-3.8-12.09,0.78
				c-2.53,1.49-3.74,4.46-3.27,8.05c2.99-1.27,7.55-2.93,8.64-1.51c1.33,1.71-4.18,3.31-7.25,5.97c0.3,0.62,0.66,1.25,1.06,1.87
				c0.34,0.56,0.74,1.14,1.16,1.69c0.5,0.64,1.04,1.27,1.61,1.89c2.27-1.93,5.06-3.86,6.29-3.07c1.43,0.94-1.17,3.21-3.35,5.85
				c1.55,1.25,3.33,2.49,5.34,3.66c1.37-1.87,2.85-3.41,3.94-3.09c1.33,0.38,0.4,2.37-0.68,4.78c1.33,0.66,2.77,1.25,4.28,1.83
				c1.17-1.43,2.37-2.49,3.29-2.23c1.06,0.3,0.68,1.61-0.06,3.35c1.43,0.46,2.91,0.9,4.46,1.27c0.78-1.39,1.49-2.75,2.13-4.1
				c-1.77-0.66-2.97-1.29-2.45-2.27c0.44-0.84,2.01-1,3.86-0.84c0.64-1.49,1.18-2.97,1.63-4.38c-2.51-0.88-4.6-1.57-3.94-2.79
				c0.52-1.02,2.65-1.04,4.94-0.74c0.54-2.27,0.88-4.4,1.02-6.39C158.73,173.99,155.28,174.33,155.6,172.63z M138.73,175.74
				c-1.18,1.1-2.57,1.53-3.11,0.98c-0.02-0.02-0.04-0.04-0.04-0.06c-0.44-0.58,0.1-1.91,1.23-2.97c1.19-1.12,2.57-1.55,3.11-0.98
				c0.26,0.26,0.26,0.7,0.06,1.21C139.81,174.51,139.37,175.16,138.73,175.74z M148.83,188.9c-0.46,0.62-1.06,0.94-1.35,0.72
				c-0.3-0.22-0.16-0.9,0.3-1.51c0.46-0.62,1.08-0.94,1.35-0.72C149.43,187.61,149.29,188.29,148.83,188.9z M153.03,178.67
				c-1.37-0.02-2.49-0.6-2.47-1.25c0-0.66,1.14-1.18,2.53-1.14c1.37,0.02,2.49,0.6,2.47,1.25
				C155.56,178.19,154.43,178.71,153.03,178.67z"/>
		</g>
		<g class="st20">
			<path class="st21" d="M149.13,187.39c-0.28-0.22-0.9,0.1-1.35,0.72c-0.46,0.62-0.6,1.29-0.3,1.51c0.3,0.22,0.9-0.1,1.35-0.72
				C149.29,188.29,149.43,187.61,149.13,187.39z M139.93,172.71c-0.54-0.58-1.91-0.14-3.11,0.98c-1.14,1.06-1.67,2.39-1.23,2.97
				c0,0.02,0.02,0.04,0.04,0.06c0.54,0.56,1.93,0.12,3.11-0.98c0.64-0.58,1.08-1.23,1.25-1.81
				C140.19,173.41,140.19,172.97,139.93,172.71z"/>
		</g>
	</g>
</g>
<g>
	<g>
		<g>
			<path class="st4" d="M32.06,60.39c1.68,1.07,3.22,2.5,4.9,4.11c4.54,4.35,8.47,9.33,11.98,14.53
				c14.53,21.56,22.44,47.25,27.32,72.56c4.69,24.32,6.48,49.14,6.67,73.88c0.01,1.39,2.17,1.4,2.16,0
				c-0.3-38.74-4.22-78.62-17.98-115.11c-6.29-16.69-14.81-33.52-27.52-46.3c-1.97-1.98-4.08-4.02-6.45-5.53
				C31.98,57.78,30.89,59.65,32.06,60.39L32.06,60.39z"/>
		</g>
	</g>
	<g>
		<g>
			<path class="st4" d="M22.87,53.34C21.5,57,13.82,50.05,6.82,47.88c-1.93,3.03-3.57,6.71-4.76,11.03
				c5.11,1.66,10.72,4.08,10.66,6.73c-0.07,3.08-6.02,1.23-12.12,0.43c-0.49,3.56-0.7,7.45-0.57,11.65
				c4.15,0.31,7.89,1.14,8.46,3.11c0.69,2.4-3.26,2.85-7.99,3.49c0.29,2.66,0.7,5.43,1.26,8.31c3.32,0.41,6.05,1.27,6.52,2.92
				c0.54,1.9-1.82,2.58-5.18,3.1c0.65,2.6,1.38,5.27,2.26,8.03c2.89-0.11,5.65-0.33,8.32-0.61c-0.66-3.34-0.82-5.79,1.15-5.92
				c1.72-0.12,3.45,2.15,4.97,5.14c2.9-0.46,5.64-1.01,8.24-1.65c-1.01-4.67-1.93-8.54,0.56-8.71c2.04-0.14,4.1,3.1,5.8,6.89
				c4-1.31,7.58-2.83,10.77-4.5c-2.83-5.47-6.59-10.43-3.72-11.54c2.47-0.96,6.66,3.49,9.96,7.74c3.66-2.59,6.56-5.39,8.75-8.23
				c-4.42-5.84-13.57-10.7-10.59-13.23c2.45-2.09,9.92,2.52,14.69,5.87c2.17-6.14,1.11-11.85-2.77-15.41
				C49.55,51.59,40.42,56.7,40.42,56.7s1.7-10.32-12.64-17.82c-4.67-2.44-10.39-1.49-15.43,2.64C17.12,44.86,24,50.32,22.87,53.34z
				 M29.34,82.58c1.03-0.6,2.89,0.65,4.15,2.81c1.26,2.15,1.46,4.39,0.43,4.99c-1.03,0.6-2.89-0.65-4.15-2.81
				C28.51,85.42,28.32,83.19,29.34,82.58z M10.32,88.44c1.38,0.12,2.45,0.75,2.39,1.41c-0.06,0.66-1.22,1.09-2.6,0.97
				c-1.38-0.12-2.45-0.75-2.39-1.41C7.77,88.75,8.94,88.31,10.32,88.44z M22.06,57.99c2.82,0.77,4.81,2.48,4.44,3.83
				c-0.37,1.35-2.95,1.82-5.77,1.05c-2.82-0.77-4.81-2.48-4.44-3.83C16.66,57.69,19.24,57.23,22.06,57.99z"/>
		</g>
	</g>
</g>
<g>
	<g>
		<path class="st1" d="M31.25,143.4c5.4,2.37,10.38,6.19,14.76,10.05c11.09,9.77,19.39,22.43,24.41,36.3
			c4.16,11.46,6.11,23.57,6.5,35.72c0.04,1.39,2.21,1.4,2.16,0c-0.64-19.76-5.51-39.51-16.48-56.14
			c-6.42-9.73-14.77-18.35-24.63-24.63c-1.81-1.15-3.68-2.3-5.65-3.16C31.08,140.98,29.98,142.84,31.25,143.4L31.25,143.4z"/>
	</g>
</g>
<g>
	<g>
		<path class="st1" d="M24.57,134.39c1.45,3.24-7.94,3.65-13.85,6.72c0.69,3.19,1.97,6.61,3.96,10.16c4.36-2.2,9.53-4.21,11.19-2.46
			c1.92,2.03-3.1,4.63-7.55,8.01c1.96,2.61,4.31,5.26,7.07,7.89c2.88-2.45,5.83-4.3,7.45-3.39c1.97,1.11-0.28,3.92-2.94,7.36
			c1.89,1.54,3.92,3.06,6.12,4.56c2.41-1.85,4.71-3.04,6.08-2.28c1.56,0.88,0.47,2.82-1.37,5.3c2.08,1.27,4.26,2.52,6.59,3.74
			c1.8-1.92,3.44-3.82,4.99-5.7c-2.55-1.74-4.23-3.21-3.04-4.56c1.03-1.17,3.6-0.81,6.49,0.15c1.58-2.14,3-4.25,4.27-6.33
			c-3.64-2.37-6.69-4.28-5.2-5.98c1.23-1.39,4.62-0.62,8.15,0.75c1.75-3.4,3.09-6.67,4.08-9.78c-5.31-1.73-10.91-2.52-9.77-5.08
			c0.99-2.2,6.53-2,11.37-1.36c0.71-4.01,0.8-7.66,0.39-10.9c-6.58-0.95-15.59,1.75-15.29-1.78c0.25-2.92,8.02-4.71,13.24-5.59
			c-2.52-5.35-6.84-8.36-11.63-8.18c-14.69,0.56-17.32,9.68-17.32,9.68s-5.49-7.75-19.54-3.44c-4.58,1.4-7.66,5.67-8.28,11.56
			C15.45,132.59,23.37,131.72,24.57,134.39z M47.42,149.14c0.28-1.05,2.28-1.42,4.47-0.84c2.19,0.58,3.74,1.9,3.46,2.95
			c-0.28,1.05-2.28,1.42-4.47,0.84C48.69,151.51,47.14,150.19,47.42,149.14z M38.87,165.07c0.97-0.8,2.06-1.08,2.45-0.61
			c0.38,0.46-0.09,1.49-1.06,2.29c-0.97,0.8-2.06,1.08-2.45,0.61C37.43,166.9,37.9,165.87,38.87,165.07z M27.02,137.91
			c2.31-1.3,4.69-1.47,5.32-0.36c0.62,1.1-0.75,3.06-3.06,4.36c-2.31,1.3-4.69,1.47-5.32,0.36
			C23.34,141.17,24.71,139.22,27.02,137.91z"/>
	</g>
</g>
<g>
	<path class="st8" d="M117.74,312.75c0.04-0.02,1.77-1.27,4.38-1.57c-1.83,7.15-8.32,12.43-16.05,12.43H77.35
		c-6.93,0-12.88-4.26-15.33-10.34c1.83,1,3.51,1.33,5,1.33c3.31,0,5.5-1.73,5.7-1.87c0.02-0.02,2.27-1.63,5.48-1.63
		c1.63,0,3.51,0.4,5.46,1.65c2.17,1.39,4.18,1.85,5.89,1.85c3.21,0,5.36-1.61,5.68-1.85c0.08-0.06,5.14-3.66,10.93,0.02
		c2.17,1.39,4.18,1.85,5.89,1.85C115.37,314.62,117.56,312.91,117.74,312.75z"/>
</g>
<g>
	<path class="st8" d="M122.64,217.44v20.95c-1.83-0.08-3.98-0.64-6.29-2.11c-8.36-5.32-15.73-0.02-15.81,0.02v0.02
		c-0.24,0.2-5.72,4.64-13.12-0.08c-8.36-5.32-15.73-0.02-15.81,0.04l-0.04,0.04c-0.06,0.04-4.5,3.72-10.75,1.15v-20.03H122.64z"/>
</g>
<g>
	<path class="st8" d="M122.64,239.92v1.49c-1.83-0.08-3.96-0.66-6.29-2.13c-8.36-5.32-15.73-0.02-15.81,0.04
		c-0.16,0.14-2.57,2.09-6.31,2.09c-1.95,0-4.26-0.54-6.81-2.15c-8.36-5.32-15.73-0.02-15.81,0.02l-0.04,0.04
		c-0.06,0.04-4.5,3.72-10.75,1.16v-1.37c1.57,0.58,3.05,0.8,4.38,0.8c4.26,0,7.09-2.21,7.33-2.39c0.04-0.04,2.93-2.11,7.05-2.11
		c2.09,0,4.52,0.54,7.03,2.13c2.79,1.79,5.38,2.37,7.57,2.37c4.12,0,6.91-2.05,7.29-2.37c0.12-0.08,6.61-4.7,14.08,0.04
		C118.12,239.23,120.53,239.86,122.64,239.92z"/>
</g>
<g>
	<path class="st8" d="M122.64,242.93v1.49c-1.83-0.08-3.98-0.64-6.29-2.11c-8.36-5.32-15.73-0.02-15.81,0.02v0.02
		c-0.24,0.2-5.72,4.64-13.12-0.08c-2.79-1.77-5.48-2.37-7.81-2.37c-4.66,0-7.95,2.37-8.01,2.41l-0.04,0.02
		c-0.06,0.06-4.5,3.74-10.75,1.18v-1.37c1.57,0.58,3.05,0.8,4.38,0.8c4.26,0,7.09-2.21,7.33-2.41c0.04-0.02,2.93-2.09,7.05-2.09
		c2.09,0,4.5,0.54,7.03,2.13c2.79,1.77,5.38,2.37,7.57,2.37c4.12,0,6.91-2.07,7.29-2.37c0.12-0.08,6.61-4.72,14.08,0.02
		C118.12,242.25,120.53,242.87,122.64,242.93z"/>
</g>
<g>
	<path class="st8" d="M122.64,245.96v1.49c-1.83-0.08-3.96-0.66-6.29-2.13c-8.36-5.32-15.73-0.02-15.81,0.04
		c-0.16,0.14-2.57,2.09-6.31,2.09c-1.95,0-4.26-0.54-6.81-2.15c-8.36-5.32-15.73-0.02-15.81,0.02l-0.04,0.04
		c-0.06,0.04-4.5,3.72-10.75,1.16v-1.37c1.57,0.58,3.05,0.8,4.38,0.8c4.26,0,7.09-2.21,7.33-2.39c0.04-0.04,2.93-2.11,7.05-2.11
		c2.09,0,4.52,0.54,7.03,2.13c2.79,1.79,5.38,2.37,7.57,2.37c4.12,0,6.91-2.05,7.29-2.37c0.12-0.08,6.61-4.7,14.08,0.04
		C118.12,245.26,120.53,245.9,122.64,245.96z"/>
</g>
<g>
	<path class="st8" d="M122.64,248.96v1.49c-1.83-0.08-3.98-0.64-6.29-2.11c-8.36-5.32-15.73-0.02-15.81,0.02v0.02
		c-0.24,0.2-5.72,4.64-13.12-0.08c-8.36-5.32-15.73-0.02-15.81,0.04l-0.04,0.02c-0.06,0.06-4.5,3.74-10.75,1.17v-1.37
		c1.57,0.58,3.05,0.8,4.38,0.8c4.26,0,7.09-2.21,7.33-2.41c0.04-0.02,2.93-2.09,7.05-2.09c2.09,0,4.5,0.54,7.03,2.13
		c2.79,1.77,5.38,2.37,7.57,2.37c4.12,0,6.91-2.07,7.29-2.37c0.12-0.08,6.61-4.72,14.08,0.02
		C118.12,248.29,120.53,248.9,122.64,248.96z"/>
</g>
<g>
	<path class="st8" d="M122.64,251.99v1.49c-1.83-0.08-3.96-0.66-6.29-2.13c-8.36-5.32-15.73-0.02-15.81,0.04
		c-0.16,0.14-2.57,2.09-6.31,2.09c-1.95,0-4.26-0.54-6.81-2.15c-2.79-1.77-5.48-2.37-7.81-2.37c-4.66,0-7.95,2.37-8.01,2.39
		l-0.04,0.04c-0.06,0.04-4.5,3.72-10.75,1.16v-1.37c1.57,0.58,3.05,0.8,4.38,0.8c4.26,0,7.09-2.21,7.33-2.39
		c0.04-0.04,2.93-2.11,7.05-2.11c2.09,0,4.52,0.54,7.03,2.13c2.79,1.79,5.38,2.37,7.57,2.37c4.12,0,6.89-2.05,7.29-2.37
		c0.1-0.08,6.61-4.72,14.08,0.04C118.12,251.29,120.53,251.93,122.64,251.99z"/>
</g>
<g>
	<path class="st8" d="M115.53,252.65c2.59,1.67,5,2.29,7.11,2.35v45.51c-3.31,0.2-5.58,1.83-5.6,1.85L117,302.4
		c-0.04,0.02-4.4,3.62-10.22-0.06c-6.49-4.14-12.23-0.02-12.29,0.02c-0.14,0.1-2.01,1.63-4.92,1.63c-1.51,0-3.31-0.42-5.3-1.67
		c-6.49-4.14-12.23-0.02-12.29,0.02l-0.04,0.02c-0.04,0.04-4.4,3.64-10.2-0.04c-0.32-0.2-0.64-0.38-0.96-0.54V254.2
		c1.57,0.58,3.05,0.8,4.38,0.8c4.26,0,7.09-2.21,7.33-2.41c0.04-0.02,2.93-2.09,7.05-2.09c2.09,0,4.5,0.54,7.03,2.13
		c2.79,1.77,5.38,2.37,7.57,2.37c4.12,0,6.89-2.07,7.29-2.37C101.55,252.55,108.06,247.91,115.53,252.65z"/>
</g>
<g>
	<path class="st8" d="M117.74,303.31c0.04-0.02,2.01-1.43,4.9-1.59v3.51c-3.31,0.2-5.58,1.83-5.6,1.85L117,307.1
		c-0.04,0.04-4.4,3.64-10.22-0.04c-6.49-4.14-12.23-0.02-12.29,0.02c-0.14,0.1-2.01,1.63-4.92,1.63c-1.51,0-3.31-0.42-5.3-1.67
		c-6.49-4.14-12.23-0.02-12.29,0.02l-0.04,0.02c-0.04,0.04-4.4,3.64-10.2-0.04c-0.32-0.2-0.64-0.38-0.96-0.54v-3.39
		c0.1,0.06,0.22,0.14,0.32,0.2c2.17,1.39,4.16,1.85,5.89,1.85c3.31,0,5.5-1.71,5.7-1.87c0.02-0.02,2.27-1.63,5.48-1.63
		c1.63,0,3.51,0.4,5.46,1.65c2.17,1.39,4.18,1.85,5.89,1.85c3.21,0,5.36-1.61,5.68-1.85c0.08-0.06,5.14-3.66,10.93,0.04
		c2.17,1.37,4.18,1.83,5.89,1.83C115.37,305.18,117.56,303.47,117.74,303.31z"/>
</g>
<g>
	<path class="st8" d="M117.74,308.03c0.04-0.02,2.01-1.45,4.9-1.61v0.64c0,1-0.08,1.97-0.26,2.91c-3.17,0.26-5.32,1.81-5.34,1.83
		l-0.04,0.02c-0.04,0.04-4.4,3.64-10.22-0.04c-6.49-4.14-12.23-0.02-12.29,0.02c-0.14,0.1-2.01,1.63-4.92,1.63
		c-1.51,0-3.31-0.42-5.3-1.67c-6.21-3.96-11.75-0.36-12.25,0L72,311.78l-0.04,0.02c-0.04,0.04-4.4,3.64-10.2-0.04
		c-0.12-0.08-0.22-0.14-0.34-0.2c-0.34-1.19-0.54-2.43-0.6-3.7c0.1,0.06,0.2,0.12,0.3,0.18c2.17,1.39,4.16,1.85,5.89,1.85
		c3.31,0,5.5-1.73,5.7-1.87c0.02-0.02,2.27-1.63,5.48-1.63c1.63,0,3.51,0.4,5.46,1.65c2.17,1.39,4.18,1.85,5.89,1.85
		c3.21,0,5.36-1.61,5.68-1.85c0.08-0.06,5.14-3.66,10.93,0.04c2.17,1.37,4.18,1.83,5.89,1.83
		C115.37,309.9,117.56,308.19,117.74,308.03z"/>
</g>
<g>
	<rect x="55.73" y="217.44" class="st6" width="71.58" height="8.16"/>
</g>
</svg>
