<?xml version="1.0" encoding="utf-8"?>
<!-- Generator: Adobe Illustrator 25.2.1, SVG Export Plug-In . SVG Version: 6.00 Build 0)  -->
<svg version="1.1" id="Layer_1" xmlns="http://www.w3.org/2000/svg" xmlns:xlink="http://www.w3.org/1999/xlink" x="0px" y="0px"
	 viewBox="0 0 180 403.77" style="enable-background:new 0 0 180 403.77;" xml:space="preserve">
<style type="text/css">
	.st0{fill:#FFFFFF;}
	.st1{fill:#1E7357;}
	.st2{fill:#8AB578;}
	.st3{fill:#9AD9E9;}
	.st4{fill:#55A361;}
	.st5{fill:#3D8C59;}
	.st6{fill:#FACA31;}
	.st7{fill:#097B5A;}
	.st8{fill:#F5A0C5;}
	.st9{fill:#009770;}
	.st10{fill:#00724C;}
	.st11{fill:#003E28;}
	.st12{fill:#9DC365;}
	.st13{clip-path:url(#SVGID_4_);}
	.st14{fill:#004B32;}
	.st15{clip-path:url(#SVGID_6_);}
	.st16{clip-path:url(#SVGID_8_);}
	.st17{clip-path:url(#SVGID_10_);}
	.st18{clip-path:url(#SVGID_12_);}
	.st19{clip-path:url(#SVGID_14_);}
	.st20{opacity:0.2;}
	.st21{fill:#005438;}
	.st22{fill:#61BD62;}
	.st23{clip-path:url(#SVGID_18_);}
	.st24{clip-path:url(#SVGID_20_);}
	.st25{clip-path:url(#SVGID_22_);}
	.st26{clip-path:url(#SVGID_24_);}
	.st27{clip-path:url(#SVGID_26_);}
	.st28{fill:none;}
	.st29{clip-path:url(#SVGID_28_);}
	.st30{fill:#003D28;}
	.st31{fill:#005C42;}
	.st32{clip-path:url(#SVGID_30_);}
	.st33{clip-path:url(#SVGID_32_);}
	.st34{clip-path:url(#SVGID_34_);}
	.st35{fill:#56A361;}
	.st36{fill:#1E7358;}
	.st37{fill:#67BF74;}
	.st38{fill:#80B5C1;}
</style>
<g>
	<path class="st9" d="M72.84,265.8c-0.42-1.57-0.88-3.28-1.38-5.07c0.03,0.1,0.12,0.18,0.23,0.18c0.02,0,0.04-0.01,0.06-0.01
		c0.12-0.03,0.2-0.14,0.18-0.27c-1-5.84-1.94-11.9-2.78-17.99C60.92,199,33.82,137.8,28.47,125.98c-0.04-0.09-0.12-0.14-0.22-0.14
		c-0.02,0-0.04,0-0.06,0.01c-0.11,0.03-0.19,0.13-0.18,0.25c9.34,106.77,39.55,175.02,40.84,177.87c0.04,0.09,0.12,0.13,0.22,0.13
		h5.7c0.09,0,0.16-0.04,0.21-0.1c0.04-0.07,0.05-0.15,0.02-0.22c0.03,0.07,0.06,0.12,0.09,0.19c0.05,0.09,0.12,0.13,0.22,0.13h2.84
		h3.35c0.08,0,0.15-0.03,0.19-0.09c0.05-0.06,0.06-0.13,0.04-0.21C80.95,301.32,76.88,287.81,72.84,265.8z"/>
</g>
<g>
	<path class="st10" d="M26.39,226.47c-0.04-0.08-0.12-0.12-0.21-0.12c-0.02,0-0.03,0-0.05,0.01c-0.1,0.02-0.18,0.11-0.19,0.22
		c-0.41,7.69-0.93,35.98,9.58,77.35c0.02,0.1,0.11,0.17,0.23,0.17h5.46c0.08,0,0.14-0.03,0.19-0.09c0.05-0.06,0.06-0.13,0.04-0.21
		c0.01,0.05,0.03,0.09,0.04,0.14c0.03,0.09,0.12,0.16,0.23,0.16h4.08h2.41c0.07,0,0.13-0.03,0.18-0.09
		c0.04-0.04,0.06-0.09,0.06-0.14c0.01,0.02,0.01,0.04,0.01,0.05c0.03,0.1,0.12,0.18,0.24,0.18h3.47c0.07,0,0.14-0.03,0.18-0.09
		c0.05-0.05,0.07-0.12,0.06-0.19C51.48,299.14,43.25,257.18,26.39,226.47z"/>
</g>
<g>
	<path class="st9" d="M145.75,188.62c0-0.11-0.09-0.21-0.2-0.23h-0.04c-0.09,0-0.19,0.06-0.22,0.15
		c-17.12,46.02-25.35,108.34-26.23,115.3c-0.01,0.07,0.02,0.14,0.06,0.19c0.05,0.05,0.11,0.08,0.18,0.08h3.5
		c0.12,0,0.22-0.09,0.24-0.2c0-0.01,0-0.03,0.01-0.04c0,0.06,0.02,0.11,0.06,0.16c0.05,0.05,0.11,0.08,0.18,0.08h2.83h3.7
		c0.11,0,0.21-0.08,0.23-0.18c0.01-0.04,0.02-0.07,0.02-0.1c-0.01,0.08,0.01,0.14,0.06,0.2c0.04,0.06,0.1,0.09,0.18,0.09h5.53
		c0.11,0,0.21-0.08,0.23-0.19C146.71,242.22,146.17,200.07,145.75,188.62z"/>
</g>
<g>
	<path class="st11" d="M75.27,304.58c-0.09,0-0.18-0.05-0.22-0.14c-25.75-51.86-41.09-154.6-41.24-155.63
		c-0.02-0.13,0.06-0.25,0.19-0.28c0.12-0.04,0.25,0.04,0.3,0.16c0.33,0.9,32.58,90.12,39.93,120.59c0.03,0.13-0.05,0.27-0.18,0.3
		c-0.14,0.03-0.27-0.05-0.3-0.18c-6.66-27.61-33.8-103.54-39.04-118.11c2.55,16.23,17.36,105.72,40.8,152.93
		c0.06,0.12,0.01,0.27-0.11,0.33C75.34,304.58,75.3,304.58,75.27,304.58z"/>
</g>
<g>
	<path class="st11" d="M129.98,304.58c-0.02,0-0.03,0-0.05,0c-0.14-0.03-0.22-0.16-0.19-0.3c10.27-49.75,11.61-84.24,11.78-92.04
		c-9.34,29.69-18.19,91.49-18.28,92.13c-0.02,0.14-0.15,0.23-0.28,0.21c-0.14-0.02-0.23-0.15-0.21-0.28
		c0.09-0.64,9.27-64.76,18.81-93.81c0.04-0.12,0.16-0.18,0.28-0.17c0.12,0.02,0.21,0.12,0.21,0.25c0,0.37-0.14,37.23-11.82,93.82
		C130.2,304.5,130.09,304.58,129.98,304.58z"/>
</g>
<g>
	<path class="st11" d="M41.6,304.59c-0.11,0-0.21-0.07-0.24-0.18c-11.59-38.08-11.72-62.89-11.72-63.14c0-0.12,0.08-0.22,0.19-0.24
		c0.11-0.03,0.23,0.03,0.28,0.13c9.46,19.55,18.57,62.69,18.66,63.12c0.03,0.14-0.06,0.27-0.19,0.3c-0.13,0.02-0.27-0.06-0.3-0.19
		c-0.09-0.43-8.87-42-18.12-61.95c0.18,5.33,1.52,28.47,11.67,61.83c0.04,0.13-0.03,0.27-0.17,0.31
		C41.64,304.59,41.62,304.59,41.6,304.59z"/>
</g>
<g>
	<path class="st10" d="M84.42,0.21C84.39,0.09,84.29,0,84.17,0c-0.01,0-0.01,0-0.01,0c-0.13,0.01-0.23,0.11-0.25,0.25
		c-1.59,9.6-3.42,19.34-5.38,29.65c-7.34,38.87-15.66,82.91-14.43,139.32c1.5,68.42,9.64,128.01,10.56,134.58
		c0.02,0.15,0.13,0.25,0.26,0.25h2.06c0.07,0,0.15-0.03,0.2-0.09c0.03-0.05,0.05-0.12,0.06-0.2v0.05c0.02,0.14,0.14,0.25,0.26,0.25
		h10.81h5.12c0.14,0,0.25-0.12,0.26-0.27c0-0.05,0.01-0.11,0.01-0.16v0.13c-0.01,0.08,0.01,0.15,0.06,0.22
		c0.05,0.06,0.13,0.08,0.19,0.08h2.89c0.14,0,0.25-0.12,0.26-0.26c0.29-3.64,2.88-38.02,6.34-125.66
		C106.77,93.74,88.18,15.11,84.42,0.21z M84.23,23.29c-0.01,0-0.01,0-0.01,0c-0.13,0-0.23,0.11-0.25,0.25
		c0.06-0.53,0.14-1.04,0.2-1.57c0.01,0.06,0.13,0.59,0.31,1.55C84.46,23.39,84.34,23.29,84.23,23.29z"/>
</g>
<g>
	<path class="st11" d="M93.65,304.59c-0.01,0-0.01,0-0.02,0c-0.14-0.01-0.24-0.13-0.23-0.27c0.02-0.29,1.93-30.39,4.56-116.22
		c2.43-79.33-11.5-153.26-13.75-164.59c-1.15,9.02-2.51,18.28-3.94,28.05c-5.26,35.8-11.21,76.37-10.33,128.35
		c1.13,66.23,7.54,123.84,7.6,124.41c0.02,0.14-0.08,0.26-0.22,0.28c-0.14,0.01-0.26-0.08-0.28-0.22
		c-0.06-0.58-6.48-58.21-7.61-124.46C68.57,127.9,74.52,87.3,79.78,51.48c1.51-10.31,2.94-20.05,4.13-29.55
		c0.02-0.12,0.12-0.21,0.24-0.22c0.12,0,0.23,0.08,0.25,0.2c0.17,0.79,16.69,80.33,14.06,166.2c-2.63,85.84-4.54,115.95-4.56,116.24
		C93.89,304.49,93.78,304.59,93.65,304.59z"/>
</g>
<g>
	<path class="st9" d="M100.92,58.88c-0.03-0.09-0.12-0.17-0.23-0.17c-0.01,0-0.01,0-0.01,0c-0.11,0.01-0.21,0.09-0.23,0.2
		c-1.44,7.75-3.11,15.61-4.88,23.93c-6.66,31.37-14.21,66.92-13.09,112.45c1.36,55.22,8.74,103.31,9.58,108.62
		c0.02,0.12,0.11,0.2,0.24,0.2h1.87c0.07,0,0.13-0.03,0.18-0.08c0.03-0.04,0.05-0.1,0.06-0.16v0.04c0.02,0.11,0.12,0.2,0.24,0.2h9.8
		h4.64c0.12,0,0.23-0.09,0.24-0.22c0-0.04,0.01-0.09,0.01-0.13v0.1c-0.01,0.07,0.01,0.12,0.06,0.18c0.05,0.05,0.11,0.07,0.17,0.07
		h2.62c0.12,0,0.23-0.09,0.24-0.21c0.27-2.94,2.61-30.69,5.75-101.42C121.19,134.36,104.33,70.91,100.92,58.88z M100.74,77.51
		C100.74,77.51,100.74,77.51,100.74,77.51c-0.12,0-0.22,0.09-0.24,0.2c0.06-0.43,0.12-0.84,0.18-1.27c0.01,0.05,0.11,0.47,0.28,1.25
		C100.95,77.58,100.85,77.51,100.74,77.51z"/>
</g>
<g>
	<path class="st11" d="M94.47,304.59c-0.12,0-0.23-0.09-0.25-0.22c-0.06-0.46-5.88-46.99-6.9-100.46
		c-0.8-41.99,4.6-74.75,9.37-103.67c1.37-8.32,2.67-16.19,3.75-23.85c0.02-0.12,0.12-0.21,0.24-0.21c0.12,0.01,0.23,0.08,0.25,0.19
		c0.15,0.64,15.14,64.85,12.75,134.16c-2.39,69.29-4.12,93.58-4.14,93.82c-0.01,0.14-0.13,0.25-0.27,0.23
		c-0.14-0.01-0.24-0.13-0.23-0.27c0.02-0.24,1.75-24.53,4.14-93.8c2.2-63.76-10.32-123.19-12.44-132.71
		c-1.04,7.24-2.27,14.67-3.56,22.52c-4.77,28.89-10.17,61.63-9.37,103.57c1.02,53.45,6.84,99.94,6.9,100.41
		c0.02,0.14-0.08,0.26-0.22,0.28C94.49,304.59,94.48,304.59,94.47,304.59z"/>
</g>
<g>
	<g>
		<polygon class="st6" points="180,294.27 130.57,403.77 45.26,403.77 0,294.27 		"/>
	</g>
</g>
<g>
	<g>
		<polygon class="st0" points="10.28,294.27 55.39,403.77 60.82,403.77 15.71,294.27 		"/>
	</g>
	<g>
		<polygon class="st0" points="23.84,294.27 68.95,403.77 74.35,403.77 29.25,294.27 		"/>
	</g>
	<g>
		<polygon class="st0" points="37.38,294.27 82.48,403.77 87.89,403.77 42.78,294.27 		"/>
	</g>
	<g>
		<polygon class="st0" points="94.64,387.28 95.02,387.44 133.81,294.27 128.39,294.27 92.17,381.26 92.16,381.25 88.16,371.57 
			120.34,294.27 118.43,294.27 114.93,294.27 85.46,365.04 81.46,355.31 106.9,294.27 101.47,294.27 78.75,348.76 74.78,339.05 
			93.41,294.27 87.99,294.27 72.08,332.49 56.31,294.27 50.91,294.27 96.02,403.77 101.42,403.77 94.64,387.28 		"/>
	</g>
</g>
</svg>
