<?xml version="1.0" encoding="utf-8"?>
<!-- Generator: Adobe Illustrator 23.0.1, SVG Export Plug-In . SVG Version: 6.00 Build 0)  -->
<svg version="1.1" id="Layer_1" xmlns="http://www.w3.org/2000/svg" xmlns:xlink="http://www.w3.org/1999/xlink" x="0px" y="0px"
	 viewBox="0 0 99.06 180" style="enable-background:new 0 0 99.06 180;" xml:space="preserve">
<style type="text/css">
	.st0{fill:#DCB197;}
	.st1{fill:#779CC7;}
	.st2{fill:#EFEFF0;}
	.st3{fill:#231F20;}
	.st4{fill:#4C3828;}
	.st5{fill:#E5A89C;}
	.st6{fill:#A695CE;}
	.st7{fill:#002D48;}
	.st8{fill-rule:evenodd;clip-rule:evenodd;fill:#002D48;}
	.st9{fill:#484949;}
	.st10{fill:#A3775E;}
	.st11{fill:#E2B89C;}
	.st12{fill:#FFFFFF;}
	.st13{fill:#F4B98F;}
	.st14{fill:#8E2B8A;}
	.st15{fill:#D9E9E9;}
	.st16{fill:#EFD250;}
	.st17{fill:#F2D422;}
	.st18{fill:#4788C8;}
	.st19{fill:#DDA598;}
	.st20{fill:#C98D45;}
	.st21{fill:#E50527;}
	.st22{fill:#FDD9C9;}
	.st23{fill:#B3B5B8;}
	.st24{fill:#4F577E;}
	.st25{fill:#743225;}
	.st26{fill:#E46C58;}
	.st27{fill:#3F4959;}
	.st28{fill:#EEBA80;}
	.st29{fill:#AEC8F9;}
	.st30{fill:#D9A7CD;}
	.st31{fill:#F80302;}
	.st32{fill:#FBD800;}
	.st33{fill:#E8C1A7;}
	.st34{fill:#999B9E;}
	.st35{fill:#F1F1F1;}
	.st36{fill:#3E6FB7;}
	.st37{fill:#25313E;}
	.st38{fill:#552700;}
	.st39{fill:#FFDEBF;}
	.st40{fill:#7FAA68;}
	.st41{fill:#557646;}
	.st42{fill:#599C5F;}
	.st43{fill:#FFAE8F;}
	.st44{fill:#373B5F;}
</style>
<g>
	<path class="st36" d="M63.79,164.58v6.29c0,0,0,1.25-2.43,1.16c-0.57-0.02-1.1,0.28-1.37,0.78c-1.06,1.98-4.08,6.58-8.74,5.55
		c-5.9-1.3-3.18-4.88-3.18-4.88s6.18-6.73,6.51-7.05c0.33-0.33,1.52-5.21,1.52-5.21s5.75-1.08,6.4,0
		C63.15,162.3,63.79,164.58,63.79,164.58z"/>
	<path class="st36" d="M90.88,168.45c0,0,4.82,5.79,4.98,7.98c0.16,2.2-0.41,4.39-4.64,3.25s-5.94-3.44-6.02-5.46
		c-0.05-1.31-1.07-1.53-1.77-1.53c-0.82,0.01-1.57-0.54-1.82-1.32c-0.14-0.44-0.23-1.01-0.23-1.76c0-2.87,2.36-6.28,2.36-6.28
		L90.88,168.45z"/>
	<path class="st37" d="M70.38,107c-3.24,18.87-4.99,37.99-5.23,57.13c-2.66,0.98-5.54,1.36-8.37,1.12c-2.74-0.23-3.31-1.92-3.37-4.3
		c-0.08-3.15-0.12-6.31-0.12-9.46c0-6.31,0.17-12.62,0.5-18.92c0.27-5.1,0.65-10.21,0.65-15.32c0.01-7.9-0.88-15.77-1.77-23.63
		c11.55-2.86,23.09-5.71,34.64-8.57c2.25,4.85,2.25,10.39,2.27,15.74c0.06,12.43,0.53,24.86,1.41,37.27
		c0.69,9.79,1.64,19.66,0.3,29.39c-0.05,0.37-0.12,0.77-0.41,1c-0.27,0.21-0.64,0.21-0.97,0.2c-2.67-0.1-5.33-0.53-7.89-1.27
		c-4.03-17.38-3.05-35.67-7.62-52.91C73.66,111.68,72.66,108.76,70.38,107z"/>
	<path class="st36" d="M81.48,25.05c0,0,1.99,4.99,10.49,7.43s6.98,27.61,6.98,27.61s-3.91,7.7-9.55,10.52l1.28,21.14
		c0,0-0.92-2.55-3.99-3.34c-4.18-1.08-8.46,9.22-21.48,7.59s-13.96-1.08-13.96-1.08l2.57-56.31c0,0,6.4-6.73,12.91-7.38l8.43-0.11
		L81.48,25.05z"/>
	<path class="st35" d="M1.63,33.62c0,0,25.55,18.55,53.22,5.86L70.63,62.1c0,0,10.9,22.46,0,30.43c0,0-10.61-1.14-19.39-4.39
		c-8.77-3.25-22.93-5.21-22.93-5.21L0,32.48L1.63,33.62z"/>
	<path class="st11" d="M62.9,19.14c0,0-0.81,3.17,0.57,5.21c1.38,2.03,3.01,4.57,3.66,6.88c0.65,2.31,2.44,5.81,4.23,5.48
		c1.79-0.33,7.07-8.74,7.94-9.57c0.86-0.83,1.26-10.21-3.46-12.24s-6.59-2.12-6.84-2.12S62.9,19.14,62.9,19.14z"/>
	<path class="st37" d="M75.84,14.91c0,0,4.4,2.26,3.46,12.24l2.18-2.09c0,0,0.64-12.18-0.12-13.07c-0.76-0.9-2.01-2.36-2.01-2.36
		l-4.2,3.99L75.84,14.91z"/>
	<path class="st32" d="M66.18,0.26c0.7-0.21,1.45-0.27,2.19-0.25c3.13,0.08,6.15,1.51,8.4,3.68s3.77,5.04,4.59,8.06
		c-2.91,3.42-6.59,6.25-10.82,7.77c-3.58,1.29-7.58,1.58-11.27,0.58c-0.83-0.23-1.65-0.32-2-1.12c-0.26-0.61-0.2-1.45-0.07-2.08
		c0.3-1.41,1.27-2.72,2.64-3.24c0.24-3.76,0.82-7.66,3-10.73c0.79-1.11,1.81-2.11,3.09-2.57C66.02,0.31,66.1,0.28,66.18,0.26z"/>
	<path class="st11" d="M13.81,59.52c-0.07,0.04-0.13,0.1-0.18,0.17c-0.15,0.22-0.11,0.51-0.03,0.76c0.27,0.92,0.95,1.75,0.87,2.7
		c-0.04,0.49-0.27,1.03,0.01,1.44c0.25,0.37,0.87,0.5,0.89,0.95c0.02,0.41-0.49,0.69-0.41,1.09c0.09,0.44,0.73,0.35,0.86,0.75
		c0.06,0.18-0.04,0.39,0.04,0.56c0.08,0.17,0.29,0.22,0.47,0.25c1.54,0.24,3.1,0.32,4.65,0.22c0.34-0.02,0.76-0.12,0.83-0.45
		c0.06-0.27-0.16-0.52-0.2-0.8c-0.05-0.35,0.21-0.67,0.48-0.89c0.27-0.22,0.6-0.41,0.77-0.72c0.23-0.41,0.14-0.95-0.14-1.34
		c-0.28-0.38-0.71-0.63-1.15-0.8c-1.12-0.43-2.34-0.44-3.52-0.64c-0.19-0.03-0.39-0.07-0.53-0.2c-0.23-0.2-0.27-0.54-0.33-0.83
		c-0.27-1.26-1.43-2.26-2.71-2.35C14.24,59.39,14,59.41,13.81,59.52z"/>
	<path class="st11" d="M72.54,62.15c0.27-0.01,0.54-0.01,0.81-0.01c1.49,0.05,2.99,0.49,4.15,1.42c1.34,1.07,2.13,2.72,2.46,4.41
		c0.27,1.36,0.26,2.75,0.18,4.14c-0.03,0.54-0.51,0.94-1.05,0.89c-2-0.19-4.01-0.21-6.02-0.06c-0.71,0.05-1.42,0.06-2.12-0.02
		c-0.3-0.04-0.61-0.1-0.87-0.26c-0.27-0.16-0.49-0.44-0.51-0.76c-0.03-0.53,0.46-0.92,0.92-1.18c0.08-0.05,0.16-0.1,0.19-0.18
		c0.03-0.09-0.01-0.19-0.05-0.28c-0.18-0.33-0.47-0.59-0.81-0.73c-0.38-0.15-0.86-0.21-1.03-0.58c-0.2-0.43,0.22-0.88,0.62-1.14
		c-0.39-0.33-0.78-0.71-0.91-1.2c-0.13-0.49,0.08-1.11,0.57-1.26c-0.3,0.09-0.91-1.18-0.96-1.4c-0.18-0.66,0.25-0.97,0.84-1.15
		C70.12,62.48,71.33,62.21,72.54,62.15z"/>
	<g>
		<path class="st37" d="M64.8,14.83c-3.04,0-4.92-0.72-4.96-0.73c-0.15-0.06-0.22-0.23-0.16-0.38c0.06-0.15,0.23-0.22,0.38-0.16
			c0.09,0.03,9.12,3.45,19.7-5.18c0.12-0.1,0.31-0.08,0.41,0.04c0.1,0.12,0.08,0.31-0.04,0.41C74.11,13.73,68.57,14.83,64.8,14.83z"
			/>
	</g>
	<g>
		<path class="st37" d="M70.33,14c-0.08,0-0.16-0.05-0.2-0.13c-0.04-0.08-3.68-8.46,1.38-13.28c0.09-0.08,0.22-0.08,0.31,0.01
			c0.08,0.09,0.08,0.22-0.01,0.31c-4.84,4.6-1.32,12.7-1.28,12.78c0.05,0.11,0,0.24-0.11,0.29C70.38,14,70.35,14,70.33,14z"/>
	</g>
	<g>
		<path class="st37" d="M66.39,14.72c-0.04,0-0.09-0.01-0.12-0.04c-0.06-0.05-6.43-4.63-0.63-14.16c0.06-0.1,0.2-0.13,0.3-0.07
			c0.1,0.06,0.13,0.2,0.07,0.3c-5.58,9.17,0.26,13.4,0.51,13.58c0.1,0.07,0.12,0.2,0.05,0.3C66.53,14.68,66.46,14.72,66.39,14.72z"
			/>
	</g>
</g>
</svg>
