<?xml version="1.0" encoding="utf-8"?>
<!-- Generator: Adobe Illustrator 23.0.1, SVG Export Plug-In . SVG Version: 6.00 Build 0)  -->
<svg version="1.1" id="Layer_1" xmlns="http://www.w3.org/2000/svg" xmlns:xlink="http://www.w3.org/1999/xlink" x="0px" y="0px"
	 viewBox="0 0 73.98 180" style="enable-background:new 0 0 73.98 180;" xml:space="preserve">
<style type="text/css">
	.st0{fill:#DCB197;}
	.st1{fill:#779CC7;}
	.st2{fill:#EFEFF0;}
	.st3{fill:#231F20;}
	.st4{fill:#4C3828;}
	.st5{fill:#E5A89C;}
	.st6{fill:#A695CE;}
	.st7{fill:#002D48;}
	.st8{fill-rule:evenodd;clip-rule:evenodd;fill:#002D48;}
	.st9{fill:#484949;}
	.st10{fill:#A3775E;}
	.st11{fill:#E2B89C;}
	.st12{fill:#FFFFFF;}
	.st13{fill:#F4B98F;}
	.st14{fill:#8E2B8A;}
	.st15{fill:#D9E9E9;}
	.st16{fill:#EFD250;}
	.st17{fill:#F2D422;}
	.st18{fill:#4788C8;}
	.st19{fill:#DDA598;}
	.st20{fill:#C98D45;}
	.st21{fill:#E50527;}
	.st22{fill:#FDD9C9;}
	.st23{fill:#B3B5B8;}
	.st24{fill:#4F577E;}
	.st25{fill:#743225;}
	.st26{fill:#E46C58;}
	.st27{fill:#3F4959;}
	.st28{fill:#EEBA80;}
	.st29{fill:#AEC8F9;}
	.st30{fill:#D9A7CD;}
	.st31{fill:#F80302;}
	.st32{fill:#FBD800;}
	.st33{fill:#E8C1A7;}
	.st34{fill:#999B9E;}
	.st35{fill:#F1F1F1;}
	.st36{fill:#3E6FB7;}
	.st37{fill:#25313E;}
	.st38{fill:#552700;}
	.st39{fill:#FFDEBF;}
	.st40{fill:#7FAA68;}
	.st41{fill:#557646;}
	.st42{fill:#599C5F;}
	.st43{fill:#FFAE8F;}
	.st44{fill:#373B5F;}
</style>
<path class="st38" d="M34.58,156.73c-0.32,0.63-0.36,1.37-0.38,2.08c-0.1,4.09,0.2,8.59-2.33,11.8c-1.16,1.48-4.58,3.71-4.24,5.94
	c0.39,2.53,5,3.58,7.05,3.44c2.76-0.19,5.37-1.84,6.73-4.25c1.57-0.08,3.05-1.1,3.67-2.54c0.7,1.48,2.28,2.51,3.91,2.55
	c0.19,1.62,1.59,2.9,3.13,3.45c1.54,0.55,3.22,0.5,4.86,0.45c2.08-0.06,4.69-0.54,5.18-2.56c0.35-1.47-0.7-2.86-1.59-4.08
	c-3.96-5.46-5.67-12.5-4.67-19.17c-3.56-0.22-7.12-0.43-10.68-0.65c0.43,5.86,0.33,11.76-0.3,17.61c-0.2-6-0.41-11.99-0.61-17.99
	c-0.04-1.18-0.2-2.58-1.23-3.16c-2.43,1.93-4.85,3.85-7.28,5.78c-0.42,0.33-0.84,0.67-1.12,1.12
	C34.65,156.61,34.61,156.67,34.58,156.73z"/>
<path class="st38" d="M52.96,9.77c0,0,0.09,4.44-0.96,5.82c0,0-2.76-0.11-2.76-0.81c0-0.69-0.27-3.25,0-3.57
	c0.27-0.32,2.63-1.33,2.94-1.44C52.5,9.66,52.96,9.77,52.96,9.77z"/>
<path class="st38" d="M36.93,9.97c0,0-0.01,3.1,0.66,5.29c0.67,2.19,2.06,2.03,2.16,1.01c0.11-1.01-0.21-1.07,0-2.24
	c0.21-1.17,1-2.91,0.55-3.65C39.85,9.63,36.93,9.97,36.93,9.97z"/>
<path class="st39" d="M51.38,10.88l-1.71-1.87L41.4,7.31l-2.77,3.57c0,0-2.67,7.63,0.53,11.31c0.09,0.1,0.17,0.19,0.25,0.29l0,0
	c0,0,0.66,2.01,0.61,4.14l0,3.2l6.02,0.53l3.08-1.01l1.24-2.92c0,0-0.42-1.76-0.21-3.05c0,0,0,0,0,0c1.08-0.94,1.97-2.19,2.02-3.9
	C52.29,16.17,51.38,10.88,51.38,10.88z"/>
<path class="st40" d="M58.81,49.93l-0.37-1.21l-2.04,2.91l-4.03,1.21l-3.29-1.17l0.43,1.21l4.16,11.55l2.05,1.59l4.22-0.88l0.1,0.51
	c0.01-0.18,0.02-0.36,0.04-0.54c0.18-2.98,0.71-6.12,1.01-7.74v-0.01L58.81,49.93z M58.81,49.93l-0.37-1.21l-2.04,2.91l-4.03,1.21
	l-3.29-1.17l0.43,1.21l4.16,11.55l2.05,1.59l4.22-0.88l0.14-0.03c0.18-2.98,0.71-6.12,1.01-7.74v-0.01L58.81,49.93z M73.76,69.36
	c0-0.29,0.01-0.58,0.02-0.87c0.08-2.19,0.24-4.48-0.61-6.56c-0.25-0.6-0.58-1.18-0.7-1.82c-0.12-0.65-0.02-1.31,0.06-1.97
	c0.58-5.04-0.59-10.13-2.37-14.83c-0.99-2.72-2.42-5.14-3.99-7.57c-1.17-1.81-9.44-5.07-12.33-5.39c-2.88-0.32-3.46-3.94-3.46-3.94
	C47,29.1,45.88,28.81,42.9,28.6c-2.89-0.2-2.94-3.19-2.94-3.38c-0.97,4.45-6.45,6.26-8.11,6.74c-1.65,0.48-6.51,0.48-8.43,0
	c-1.92-0.48-5.12,0.16-7.79-1.17c-2.67-1.34,0-4.16,1.23-4.27s9.87-4.11,9.92-4.48c0.06-0.38,0.11-1.28,0-2.08
	c-0.1-0.8-2.72-6.03-2.72-6.03s-9.87-0.16-15.85,5.49c-5.97,5.66-6.18,9.07-6.61,10.09C1.17,30.52,0,29.61,0,32.76
	s2.08,4.11,2.88,5.93c0.8,1.81,6.56,3.2,6.83,3.2s8.06,2.02,8.86,3.52c0.8,1.49,3.52,3.09,3.52,3.09s-0.39,0.96,0.36,6.57
	c0.29,2.13,0.75,4.92,1.45,8.59c0.18,0.92,0.34,1.81,0.48,2.68c1.98,11.74,1.34,18.87,1.34,18.87l16.96,4.64l17.98,0.16l1.29-1.17
	C65,91,69.2,90.6,69.2,90.6c1.37-2.41,2.18-5.03,2.83-7.7c0.64-2.64,1.53-5.21,1.74-7.93C73.92,73.1,73.75,71.23,73.76,69.36z
	 M62.53,79.88c-0.61-2.42-1.68-6.7-2.29-9.71c-0.23-1.1-0.27-2.52-0.22-4.02c0.01-0.17,0.01-0.33,0.02-0.5
	c0.01-0.18,0.02-0.36,0.04-0.54c0.18-2.98,0.71-6.12,1.01-7.74v-0.01c0.12-0.7,0.21-1.12,0.21-1.12l0.41,1l0.71,1.72
	c0,0-0.21,6.4,0.54,13.66C63.22,75.14,62.97,77.67,62.53,79.88z"/>
<path class="st40" d="M26.61,85.45c-0.31-0.09,0.04,12.96,0.68,15.36c0.64,2.4,0.64,4,0.64,4s0.96,16.89,1.52,22.25
	s0.4,14.17,0.64,17.93s-0.64,9.52,1.68,10.8s10.16,1.92,11.36,0s1.84-4.16,1.84-4.16s0.32,4.96,3.28,4.72
	c2.96-0.24,7.84,1.28,10.4-1.28c2.56-2.56,1.36-27.77,1.36-27.77s2.24-24.33,2.48-26.33c0.24-2,0.56-8.32,0.56-8.32l-5.2-8.09
	l-30.89-0.55L26.61,85.45z"/>
<g>
	<g>
		<path class="st41" d="M25.87,43.9l-3.42,11.17c0.29,2.13,0.75,4.92,1.45,8.59c0.18,0.92,0.34,1.81,0.48,2.68l4.09,0.62l2.63-2.04
			l6.03-16.76L25.87,43.9z M30.26,64.31l-2.07,1.59l-3.46-0.53l-1.6-9.1l1.98-6.46l0.37-1.22l1.04-3.38l9.34,3.53l-1.01,2.81
			l-0.44,1.21L30.26,64.31z"/>
	</g>
	<g>
		<polygon class="st41" points="31.59,53.76 26.9,52.36 24.53,48.96 25.35,48.39 27.52,51.51 31.56,52.71 35.07,51.46 35.41,52.41 
					"/>
	</g>
</g>
<g>
	<g>
		<path class="st41" d="M62.07,57.16l-0.36,0.08l-0.41-1c0,0-0.09,0.42-0.21,1.12l-2.28-7.43l-0.37-1.21l-1.03-3.38l-9.34,3.53
			l1.01,2.8l0.43,1.21l4.16,11.55l2.05,1.59l4.22-0.88l0.14-0.03c-0.02,0.18-0.03,0.36-0.04,0.54c-0.01,0.17-0.01,0.33-0.02,0.5
			l-4.55,0.94l-2.64-2.04l-6.04-16.77l11.26-4.26L62.07,57.16z"/>
	</g>
	<g>
		<polygon class="st41" points="52.34,53.89 48.52,52.53 48.85,51.59 52.37,52.84 56.41,51.63 58.58,48.51 59.4,49.09 57.03,52.49 
					"/>
	</g>
</g>
<path class="st41" d="M36.55,3.5v6.26l2.08,1.12c0,0,2.61-2.45,6.83-1.92c4.22,0.53,5.92,1.92,5.92,1.92l2.19-1.55V3.51
	c0-0.83-0.51-1.58-1.29-1.87L49.8,0.68C48.62,0.23,47.37,0,46.11,0h-2.18c-1.28,0-2.55,0.24-3.75,0.71l-2.36,0.93
	C37.05,1.94,36.55,2.68,36.55,3.5z"/>
<path class="st39" d="M24.3,15.47c0.16-0.37,0.44-0.66,0.81-0.84c0.91-0.44,2.79-1.27,4.58-1.56c2.48-0.4,7.23-3.1,7.23-3.1
	s0.98,0.01,0.4,0.62c0,0,0.81-0.96,1.15-0.29s-5.1,3.92-5.39,3.92s-2.75,2.37-2.75,2.37s2.61-1.49,2.93-0.61
	c0.32,0.88-1.55,1.63-2.24,1.76c-0.53,0.1-1.44,1.12-1.85,1.59c-0.14,0.16-0.33,0.27-0.53,0.31l-1.04,0.19
	c-0.61,0.11-1.39,0.44-2.03,0.23c-0.79-0.26-1.3-1.69-1.7-2.35C23.36,16.89,23.97,16.23,24.3,15.47z"/>
<path class="st41" d="M33.57,89.89c0.54,0.08,1.09,0.08,1.61-0.05c0.82-0.2,1.59-0.77,1.84-1.58c0.07-0.2,0.1-0.42,0.23-0.59
	c0.24-0.31,0.7-0.33,1.08-0.27c0.92,0.14,1.79,0.55,2.49,1.16c0.25,0.22,0.49,0.54,0.39,0.85c-0.06,0.2-0.25,0.33-0.42,0.44
	c-1.39,0.93-2.77,1.85-4.16,2.78c-0.41,0.27-0.84,0.55-1.33,0.59c-0.39,0.03-0.77-0.11-1.14-0.25c-0.71-0.26-5.59-3.29-2.73-3.49
	c0.42-0.03,0.83,0.11,1.24,0.22C32.98,89.78,33.27,89.84,33.57,89.89z"/>
<path class="st41" d="M35.44,135.48c0.36,0.05,0.73,0.05,1.08-0.03c0.55-0.14,1.06-0.52,1.24-1.05c0.04-0.14,0.07-0.28,0.15-0.39
	c0.16-0.21,0.47-0.22,0.73-0.18c0.61,0.09,1.2,0.36,1.66,0.78c0.16,0.15,0.33,0.36,0.26,0.57c-0.04,0.13-0.17,0.22-0.28,0.3
	c-0.93,0.62-1.86,1.24-2.78,1.86c-0.27,0.18-0.56,0.37-0.89,0.39c-0.26,0.02-0.52-0.08-0.76-0.17c-0.47-0.18-3.74-2.2-1.83-2.34
	c0.28-0.02,0.56,0.07,0.83,0.15C35.04,135.4,35.24,135.45,35.44,135.48z"/>
<path class="st41" d="M34.94,106.43c0.36,0.05,0.73,0.05,1.08-0.03c0.55-0.14,1.06-0.52,1.24-1.05c0.04-0.14,0.07-0.28,0.15-0.39
	c0.16-0.21,0.47-0.22,0.73-0.18c0.61,0.09,1.2,0.36,1.66,0.78c0.16,0.15,0.33,0.36,0.26,0.57c-0.04,0.13-0.17,0.22-0.28,0.3
	c-0.93,0.62-1.86,1.24-2.78,1.86c-0.27,0.18-0.56,0.37-0.89,0.39c-0.26,0.02-0.52-0.08-0.76-0.17c-0.47-0.18-3.74-2.2-1.83-2.34
	c0.28-0.02,0.56,0.07,0.83,0.15C34.54,106.36,34.74,106.4,34.94,106.43z"/>
<path class="st41" d="M34.94,66.15c0.36,0.05,0.73,0.05,1.08-0.03c0.55-0.14,1.06-0.52,1.24-1.05c0.04-0.14,0.07-0.28,0.15-0.39
	c0.16-0.21,0.47-0.22,0.73-0.18c0.61,0.09,1.2,0.36,1.66,0.78c0.16,0.15,0.33,0.36,0.26,0.57c-0.04,0.13-0.17,0.22-0.28,0.3
	c-0.93,0.62-1.86,1.24-2.78,1.86c-0.27,0.18-0.56,0.37-0.89,0.39c-0.26,0.02-0.52-0.08-0.76-0.17c-0.47-0.18-3.74-2.2-1.83-2.34
	c0.28-0.02,0.56,0.07,0.83,0.15C34.54,66.08,34.74,66.12,34.94,66.15z"/>
<path class="st41" d="M66.83,80.34c0.36,0.05,0.73,0.05,1.08-0.03c0.55-0.14,1.06-0.52,1.24-1.05c0.04-0.14,0.07-0.28,0.15-0.39
	c0.16-0.21,0.47-0.22,0.73-0.18c0.61,0.09,1.2,0.36,1.66,0.78c0.16,0.15,0.33,0.36,0.26,0.57c-0.04,0.13-0.17,0.22-0.28,0.3
	c-0.93,0.62-1.86,1.24-2.78,1.86c-0.27,0.18-0.56,0.37-0.89,0.39c-0.26,0.02-0.52-0.08-0.76-0.17c-0.47-0.18-3.74-2.2-1.83-2.34
	c0.28-0.02,0.56,0.07,0.83,0.15C66.43,80.27,66.63,80.31,66.83,80.34z"/>
<path class="st41" d="M25.18,35.56c0.36,0.05,0.73,0.05,1.08-0.03c0.55-0.14,1.06-0.52,1.24-1.05c0.04-0.14,0.07-0.28,0.15-0.39
	c0.16-0.21,0.47-0.22,0.73-0.18c0.61,0.09,1.2,0.36,1.66,0.78c0.16,0.15,0.33,0.36,0.26,0.57c-0.04,0.13-0.17,0.22-0.28,0.3
	c-0.93,0.62-1.86,1.24-2.78,1.86c-0.27,0.18-0.56,0.37-0.89,0.39c-0.26,0.02-0.52-0.08-0.76-0.17c-0.47-0.18-3.74-2.2-1.83-2.34
	c0.28-0.02,0.56,0.07,0.83,0.15C24.78,35.49,24.98,35.53,25.18,35.56z"/>
<path class="st41" d="M51.04,39.88c0.36,0.05,0.73,0.05,1.08-0.03c0.55-0.14,1.06-0.52,1.24-1.05c0.04-0.14,0.07-0.28,0.15-0.39
	c0.16-0.21,0.47-0.22,0.73-0.18c0.61,0.09,1.2,0.36,1.66,0.78c0.16,0.15,0.33,0.36,0.26,0.57c-0.04,0.13-0.17,0.22-0.28,0.3
	c-0.93,0.62-1.86,1.24-2.78,1.86c-0.27,0.18-0.56,0.37-0.89,0.39c-0.26,0.02-0.52-0.08-0.76-0.17c-0.47-0.18-3.74-2.2-1.83-2.34
	c0.28-0.02,0.56,0.07,0.83,0.15C50.64,39.81,50.84,39.85,51.04,39.88z"/>
<path class="st42" d="M28.46,93.7c-0.23,0.11-0.45,0.25-0.63,0.44c-1.19,1.23,0.71,2.63,1.93,2.49c0.66-0.08,1.26-0.45,1.93-0.51
	c0.52-0.04,1.05,0.13,1.45,0.46c0.24,0.2,0.51,0.48,0.81,0.39c0.14-0.04,0.25-0.16,0.33-0.29c0.48-0.76,0.25-1.83-0.38-2.48
	c-0.62-0.65-1.54-0.94-2.44-1.01c-0.88-0.07-1.78,0.05-2.61,0.35C28.72,93.59,28.59,93.64,28.46,93.7z"/>
<path class="st42" d="M28.06,71.8c-0.23,0.11-0.45,0.25-0.63,0.44c-1.19,1.23,0.71,2.63,1.93,2.49c0.66-0.08,1.26-0.45,1.93-0.51
	c0.52-0.04,1.05,0.13,1.45,0.46c0.24,0.2,0.51,0.48,0.81,0.39c0.14-0.04,0.25-0.16,0.33-0.29c0.48-0.76,0.25-1.83-0.38-2.48
	c-0.62-0.65-1.54-0.94-2.44-1.01c-0.88-0.07-1.78,0.05-2.61,0.35C28.31,71.69,28.19,71.74,28.06,71.8z"/>
<path class="st42" d="M62.32,43.29c-0.23,0.11-0.45,0.25-0.63,0.44c-1.19,1.23,0.71,2.63,1.93,2.49c0.66-0.08,1.26-0.45,1.93-0.51
	c0.52-0.04,1.05,0.13,1.45,0.46c0.24,0.2,0.51,0.48,0.81,0.39c0.14-0.04,0.25-0.16,0.33-0.29c0.48-0.76,0.25-1.83-0.38-2.48
	s-1.54-0.94-2.44-1.01c-0.88-0.07-1.78,0.05-2.61,0.35C62.57,43.18,62.44,43.23,62.32,43.29z"/>
<path class="st42" d="M18.87,38.83c-0.23,0.11-0.45,0.25-0.63,0.44c-1.19,1.23,0.71,2.63,1.93,2.49c0.66-0.08,1.26-0.45,1.93-0.51
	c0.52-0.04,1.05,0.13,1.45,0.46c0.24,0.2,0.51,0.48,0.81,0.39c0.14-0.04,0.25-0.16,0.33-0.29c0.48-0.76,0.25-1.83-0.38-2.48
	c-0.62-0.65-1.54-0.94-2.44-1.01c-0.88-0.07-1.78,0.05-2.61,0.35C19.12,38.72,18.99,38.77,18.87,38.83z"/>
<path class="st42" d="M33.37,40.92c-0.23,0.11-0.45,0.25-0.63,0.44c-1.19,1.23,0.71,2.63,1.93,2.49c0.66-0.08,1.26-0.45,1.93-0.51
	c0.52-0.04,1.05,0.13,1.45,0.46c0.24,0.2,0.51,0.48,0.81,0.39c0.14-0.04,0.25-0.16,0.33-0.29c0.48-0.76,0.25-1.83-0.38-2.48
	c-0.62-0.65-1.54-0.94-2.44-1.01c-0.88-0.07-1.78,0.05-2.61,0.35C33.62,40.81,33.49,40.86,33.37,40.92z"/>
<path class="st42" d="M37.19,128.47c-0.23,0.11-0.45,0.25-0.63,0.44c-1.19,1.23,0.71,2.63,1.93,2.49c0.66-0.08,1.26-0.45,1.93-0.51
	c0.52-0.04,1.05,0.13,1.45,0.46c0.24,0.2,0.51,0.48,0.81,0.39c0.14-0.04,0.25-0.16,0.33-0.29c0.48-0.76,0.25-1.83-0.38-2.48
	c-0.62-0.65-1.54-0.94-2.44-1.01c-0.88-0.07-1.78,0.05-2.61,0.35C37.44,128.36,37.31,128.41,37.19,128.47z"/>
<path class="st42" d="M37.19,151.15c-0.09,0.24-0.15,0.5-0.14,0.76c0.03,1.71,2.36,1.36,3.12,0.4c0.41-0.52,0.57-1.21,1-1.72
	c0.34-0.4,0.83-0.65,1.35-0.7c0.31-0.03,0.7-0.02,0.85-0.3c0.07-0.13,0.06-0.29,0.03-0.43c-0.2-0.88-1.12-1.47-2.02-1.48
	s-1.75,0.43-2.44,1.01c-0.67,0.58-1.22,1.29-1.6,2.09C37.29,150.89,37.23,151.02,37.19,151.15z"/>
<path class="st42" d="M31.6,115.31c-0.23,0.11-0.45,0.25-0.63,0.44c-1.19,1.23,0.71,2.63,1.93,2.49c0.66-0.08,1.26-0.45,1.93-0.51
	c0.52-0.04,1.05,0.13,1.45,0.46c0.24,0.2,0.51,0.48,0.81,0.39c0.14-0.04,0.25-0.16,0.33-0.29c0.48-0.76,0.25-1.83-0.38-2.48
	c-0.62-0.65-1.54-0.94-2.44-1.01c-0.88-0.07-1.78,0.05-2.61,0.35C31.85,115.2,31.73,115.25,31.6,115.31z"/>
<path class="st41" d="M40.13,96.26c-0.06-0.28-0.15-0.56-0.31-0.8c-1.02-1.6-1.29,0.66-1.45,2.01c-0.09,0.73-0.55,1.67-0.66,2.4
	c-0.09,0.57-1.43,0.34-1.89,0.69c-0.28,0.21-0.65,0.43-0.63,0.78c0.01,0.16,0.11,0.31,0.23,0.43c0.7,0.72,1.91,0.74,2.77,0.23
	c0.86-0.5,1.41-1.42,1.72-2.37c0.3-0.94,0.41-1.94,0.3-2.91C40.18,96.56,40.16,96.41,40.13,96.26z"/>
<path class="st41" d="M38.59,74.53c-0.06-0.28-0.15-0.56-0.31-0.8c-1.02-1.6-1.29,0.66-1.45,2.01c-0.09,0.73-0.55,1.67-0.66,2.4
	c-0.09,0.57-1.43,0.34-1.89,0.69c-0.28,0.21-0.65,0.43-0.63,0.78c0.01,0.16,0.11,0.31,0.23,0.43c0.7,0.72,1.91,0.74,2.77,0.23
	s1.41-1.42,1.72-2.37c0.3-0.94,0.41-1.94,0.3-2.91C38.65,74.83,38.63,74.68,38.59,74.53z"/>
<path class="st41" d="M52.94,80.28c-0.29,0.22-0.55,0.48-0.74,0.79c-0.29,0.48-0.39,1.12-0.13,1.62c0.06,0.13,0.15,0.25,0.17,0.39
	c0.03,0.26-0.18,0.49-0.39,0.64c-0.5,0.37-1.11,0.59-1.73,0.63c-0.22,0.01-0.49-0.02-0.59-0.22c-0.06-0.12-0.04-0.27-0.01-0.41
	c0.22-1.09,0.43-2.19,0.65-3.28c0.06-0.32,0.14-0.66,0.35-0.91c0.17-0.2,0.42-0.31,0.66-0.42c0.46-0.21,4.21-1.09,2.94,0.36
	c-0.19,0.21-0.45,0.34-0.69,0.49C53.27,80.04,53.1,80.15,52.94,80.28z"/>
<path class="st42" d="M49.5,70.35c0.09-0.24,0.15-0.5,0.14-0.76c-0.03-1.71-2.36-1.36-3.12-0.4c-0.41,0.52-0.57,1.21-1,1.72
	c-0.34,0.4-0.83,0.65-1.35,0.7c-0.31,0.03-0.7,0.02-0.85,0.3c-0.07,0.13-0.06,0.29-0.03,0.43c0.2,0.88,1.12,1.47,2.02,1.48
	c0.9,0.02,1.75-0.43,2.44-1.01c0.67-0.58,1.22-1.29,1.6-2.09C49.4,70.6,49.45,70.48,49.5,70.35z"/>
<path class="st41" d="M45.32,59.03c0.24,0.16,0.5,0.29,0.78,0.35c1.86,0.41,0.45-1.38-0.4-2.45c-0.46-0.58-0.79-1.57-1.23-2.16
	c-0.34-0.47,0.77-1.25,0.85-1.83c0.05-0.35,0.16-0.77-0.1-1c-0.12-0.11-0.3-0.14-0.46-0.14c-1-0.01-1.87,0.83-2.12,1.79
	c-0.25,0.97,0.01,2,0.46,2.89c0.45,0.88,1.08,1.66,1.85,2.27C45.07,58.85,45.2,58.94,45.32,59.03z"/>
<path class="st41" d="M59.27,68.91c-0.06-0.28-0.15-0.56-0.31-0.8c-1.02-1.6-1.29,0.66-1.45,2.01c-0.09,0.73-0.55,1.67-0.66,2.4
	c-0.09,0.57-1.43,0.34-1.89,0.69c-0.28,0.21-0.65,0.43-0.63,0.78c0.01,0.16,0.11,0.31,0.23,0.43c0.7,0.72,1.91,0.74,2.77,0.23
	s1.41-1.42,1.72-2.37c0.3-0.94,0.41-1.94,0.3-2.91C59.33,69.21,59.3,69.06,59.27,68.91z"/>
<path class="st41" d="M70.32,49.91c-0.06-0.28-0.15-0.56-0.31-0.8c-1.02-1.6-1.29,0.66-1.45,2.01c-0.09,0.73-0.55,1.67-0.66,2.4
	c-0.09,0.57-1.43,0.34-1.89,0.69c-0.28,0.21-0.65,0.43-0.63,0.78c0.01,0.16,0.11,0.31,0.23,0.43c0.7,0.72,1.91,0.74,2.77,0.23
	c0.86-0.5,1.41-1.42,1.72-2.37c0.3-0.94,0.41-1.94,0.3-2.91C70.37,50.21,70.35,50.06,70.32,49.91z"/>
<path class="st41" d="M50.44,31.71c-0.06-0.28-0.15-0.56-0.31-0.8c-1.02-1.6-1.29,0.66-1.45,2.01c-0.09,0.73-0.55,1.67-0.66,2.4
	c-0.09,0.57-1.43,0.34-1.89,0.69c-0.28,0.21-0.65,0.43-0.63,0.78c0.01,0.16,0.11,0.31,0.23,0.43c0.7,0.72,1.91,0.74,2.77,0.23
	c0.86-0.5,1.41-1.42,1.72-2.37c0.3-0.94,0.41-1.94,0.3-2.91C50.49,32.01,50.47,31.86,50.44,31.71z"/>
<path class="st41" d="M37.6,143.88c-0.06-0.28-0.15-0.56-0.31-0.8c-1.02-1.6-1.29,0.66-1.45,2.01c-0.09,0.73-0.55,1.67-0.66,2.4
	c-0.09,0.57-1.43,0.34-1.89,0.69c-0.28,0.21-0.65,0.43-0.63,0.78c0.01,0.16,0.11,0.31,0.23,0.43c0.7,0.72,1.91,0.74,2.77,0.23
	c0.86-0.5,1.41-1.42,1.72-2.37c0.3-0.94,0.41-1.94,0.3-2.91C37.65,144.18,37.63,144.03,37.6,143.88z"/>
<path class="st41" d="M35.12,121.86c-0.06-0.28-0.15-0.56-0.31-0.8c-1.02-1.6-1.29,0.66-1.45,2.01c-0.09,0.73-0.55,1.67-0.66,2.4
	c-0.09,0.57-1.43,0.34-1.89,0.69c-0.28,0.21-0.65,0.43-0.63,0.78c0.01,0.16,0.11,0.31,0.23,0.43c0.7,0.72,1.91,0.74,2.77,0.23
	s1.41-1.42,1.72-2.37c0.3-0.94,0.41-1.94,0.3-2.91C35.17,122.16,35.15,122.01,35.12,121.86z"/>
<path class="st41" d="M56.56,90.76c-0.36,0.05-0.73,0.05-1.08-0.03c-0.55-0.14-1.06-0.52-1.24-1.05c-0.04-0.14-0.07-0.28-0.15-0.39
	c-0.16-0.21-0.47-0.22-0.73-0.18c-0.61,0.09-1.2,0.36-1.66,0.78c-0.16,0.15-0.33,0.36-0.26,0.57c0.04,0.13,0.17,0.22,0.28,0.3
	c0.93,0.62,1.86,1.24,2.78,1.86c0.27,0.18,0.56,0.37,0.89,0.39c0.26,0.02,0.52-0.08,0.76-0.17c0.47-0.18,3.74-2.2,1.83-2.34
	c-0.28-0.02-0.56,0.07-0.83,0.15C56.96,90.69,56.76,90.74,56.56,90.76z"/>
<path class="st41" d="M54.83,135.48c-0.36,0.05-0.73,0.05-1.08-0.03c-0.55-0.14-1.06-0.52-1.24-1.05c-0.04-0.14-0.07-0.28-0.15-0.39
	c-0.16-0.21-0.47-0.22-0.73-0.18c-0.61,0.09-1.2,0.36-1.66,0.78c-0.16,0.15-0.33,0.36-0.26,0.57c0.04,0.13,0.17,0.22,0.28,0.3
	c0.93,0.62,1.86,1.24,2.78,1.86c0.27,0.18,0.56,0.37,0.89,0.39c0.26,0.02,0.52-0.08,0.76-0.17c0.47-0.18,3.74-2.2,1.83-2.34
	c-0.28-0.02-0.56,0.07-0.83,0.15C55.23,135.4,55.03,135.45,54.83,135.48z"/>
<path class="st41" d="M55.33,106.43c-0.36,0.05-0.73,0.05-1.08-0.03c-0.55-0.14-1.06-0.52-1.24-1.05c-0.04-0.14-0.07-0.28-0.15-0.39
	c-0.16-0.21-0.47-0.22-0.73-0.18c-0.61,0.09-1.2,0.36-1.66,0.78c-0.16,0.15-0.33,0.36-0.26,0.57c0.04,0.13,0.17,0.22,0.28,0.3
	c0.93,0.62,1.86,1.24,2.78,1.86c0.27,0.18,0.56,0.37,0.89,0.39c0.26,0.02,0.52-0.08,0.76-0.17c0.47-0.18,3.74-2.2,1.83-2.34
	c-0.28-0.02-0.56,0.07-0.83,0.15C55.73,106.36,55.53,106.4,55.33,106.43z"/>
<path class="st42" d="M61.8,93.7c0.23,0.11,0.45,0.25,0.63,0.44c1.19,1.23-0.71,2.63-1.93,2.49c-0.66-0.08-1.26-0.45-1.93-0.51
	c-0.52-0.04-1.05,0.13-1.45,0.46c-0.24,0.2-0.51,0.48-0.81,0.39c-0.14-0.04-0.25-0.16-0.33-0.29c-0.48-0.76-0.25-1.83,0.38-2.48
	c0.62-0.65,1.54-0.94,2.44-1.01c0.88-0.07,1.78,0.05,2.61,0.35C61.55,93.59,61.68,93.64,61.8,93.7z"/>
<path class="st42" d="M53.08,128.47c0.23,0.11,0.45,0.25,0.63,0.44c1.19,1.23-0.71,2.63-1.93,2.49c-0.66-0.08-1.26-0.45-1.93-0.51
	c-0.52-0.04-1.05,0.13-1.45,0.46c-0.24,0.2-0.51,0.48-0.81,0.39c-0.14-0.04-0.25-0.16-0.33-0.29c-0.48-0.76-0.25-1.83,0.38-2.48
	c0.62-0.65,1.54-0.94,2.44-1.01c0.88-0.07,1.78,0.05,2.61,0.35C52.83,128.36,52.95,128.41,53.08,128.47z"/>
<path class="st42" d="M53.08,151.15c0.09,0.24,0.15,0.5,0.14,0.76c-0.03,1.71-2.36,1.36-3.12,0.4c-0.41-0.52-0.57-1.21-1-1.72
	c-0.34-0.4-0.83-0.65-1.35-0.7c-0.31-0.03-0.7-0.02-0.85-0.3c-0.07-0.13-0.06-0.29-0.03-0.43c0.2-0.88,1.12-1.47,2.02-1.48
	c0.9-0.02,1.75,0.43,2.44,1.01c0.67,0.58,1.22,1.29,1.6,2.09C52.98,150.89,53.03,151.02,53.08,151.15z"/>
<path class="st42" d="M58.67,115.31c0.23,0.11,0.45,0.25,0.63,0.44c1.19,1.23-0.71,2.63-1.93,2.49c-0.66-0.08-1.26-0.45-1.93-0.51
	c-0.52-0.04-1.05,0.13-1.45,0.46c-0.24,0.2-0.51,0.48-0.81,0.39c-0.14-0.04-0.25-0.16-0.33-0.29c-0.48-0.76-0.25-1.83,0.38-2.48
	c0.62-0.65,1.54-0.94,2.44-1.01c0.88-0.07,1.78,0.05,2.61,0.35C58.41,115.2,58.54,115.25,58.67,115.31z"/>
<path class="st41" d="M50.14,96.26c0.06-0.28,0.15-0.56,0.31-0.8c1.02-1.6,1.29,0.66,1.45,2.01c0.09,0.73,0.55,1.67,0.66,2.4
	c0.09,0.57,1.43,0.34,1.89,0.69c0.28,0.21,0.65,0.43,0.63,0.78c-0.01,0.16-0.11,0.31-0.23,0.43c-0.7,0.72-1.91,0.74-2.77,0.23
	c-0.86-0.5-1.41-1.42-1.72-2.37c-0.3-0.94-0.41-1.94-0.3-2.91C50.09,96.56,50.11,96.41,50.14,96.26z"/>
<path class="st41" d="M52.67,143.88c0.06-0.28,0.15-0.56,0.31-0.8c1.02-1.6,1.29,0.66,1.45,2.01c0.09,0.73,0.55,1.67,0.66,2.4
	c0.09,0.57,1.43,0.34,1.89,0.69c0.28,0.21,0.65,0.43,0.63,0.78c-0.01,0.16-0.11,0.31-0.23,0.43c-0.7,0.72-1.91,0.74-2.77,0.23
	c-0.86-0.5-1.41-1.42-1.72-2.37c-0.3-0.94-0.41-1.94-0.3-2.91C52.61,144.18,52.64,144.03,52.67,143.88z"/>
<path class="st41" d="M55.15,121.86c0.06-0.28,0.15-0.56,0.31-0.8c1.02-1.6,1.29,0.66,1.45,2.01c0.09,0.73,0.55,1.67,0.66,2.4
	c0.09,0.57,1.43,0.34,1.89,0.69c0.28,0.21,0.65,0.43,0.63,0.78c-0.01,0.16-0.11,0.31-0.23,0.43c-0.7,0.72-1.91,0.74-2.77,0.23
	s-1.41-1.42-1.72-2.37c-0.3-0.94-0.41-1.94-0.3-2.91C55.09,122.16,55.12,122.01,55.15,121.86z"/>
<polygon class="st41" points="29.51,127.31 33.62,125.28 32.12,105.06 27.4,104.75 26.73,105.7 28.12,124.53 "/>
<path class="st39" d="M67.89,90.63c0.03,1.28,0,2.57-0.11,3.84c-0.04,0.5-0.1,1-0.28,1.46c-0.4,0.98-1.33,1.64-2.21,2.23
	c-0.41,0.28-0.9,0.57-1.38,0.43c-0.23-0.07-0.43-0.24-0.64-0.35c-0.88-0.46-2.25-0.11-2.71-0.99c0.09,0.18-1.05,0.08-1.17,0
	c-0.63-0.38-0.3-0.99-0.3-1.6c-0.02-1.48,0.55-3.17,1.06-4.54c0.33-0.88,0.77-1.78,1.57-2.25c1.1-0.65,2.49-0.3,3.71,0.06
	c0.66,0.2,1.32,0.39,1.99,0.59c0.14,0.04,0.3,0.09,0.38,0.22c0.07,0.1,0.07,0.22,0.08,0.34C67.87,90.24,67.88,90.43,67.89,90.63z"/>
<polygon class="st41" points="60.03,127.31 55.92,125.28 57.41,105.06 62.13,104.75 62.8,105.7 61.41,124.53 "/>
</svg>
