<?xml version="1.0" encoding="utf-8"?>
<!-- Generator: Adobe Illustrator 23.0.1, SVG Export Plug-In . SVG Version: 6.00 Build 0)  -->
<svg version="1.1" id="Layer_1" xmlns="http://www.w3.org/2000/svg" xmlns:xlink="http://www.w3.org/1999/xlink" x="0px" y="0px"
	 viewBox="0 0 55.05 180" style="enable-background:new 0 0 55.05 180;" xml:space="preserve">
<style type="text/css">
	.st0{fill:#DCB197;}
	.st1{fill:#779CC7;}
	.st2{fill:#EFEFF0;}
	.st3{fill:#231F20;}
	.st4{fill:#4C3828;}
	.st5{fill:#E5A89C;}
	.st6{fill:#A695CE;}
	.st7{fill:#002D48;}
	.st8{fill-rule:evenodd;clip-rule:evenodd;fill:#002D48;}
	.st9{fill:#484949;}
	.st10{fill:#A3775E;}
	.st11{fill:#E2B89C;}
	.st12{fill:#FFFFFF;}
	.st13{fill:#F4B98F;}
	.st14{fill:#8E2B8A;}
	.st15{fill:#D9E9E9;}
	.st16{fill:#EFD250;}
	.st17{fill:#F2D422;}
	.st18{fill:#4788C8;}
	.st19{fill:#DDA598;}
	.st20{fill:#C98D45;}
	.st21{fill:#E50527;}
	.st22{fill:#FDD9C9;}
	.st23{fill:#B3B5B8;}
	.st24{fill:#4F577E;}
	.st25{fill:#743225;}
	.st26{fill:#E46C58;}
	.st27{fill:#3F4959;}
	.st28{fill:#EEBA80;}
	.st29{fill:#AEC8F9;}
	.st30{fill:#D9A7CD;}
	.st31{fill:#F80302;}
	.st32{fill:#FBD800;}
	.st33{fill:#E8C1A7;}
	.st34{fill:#999B9E;}
	.st35{fill:#F1F1F1;}
	.st36{fill:#3E6FB7;}
	.st37{fill:#25313E;}
	.st38{fill:#552700;}
	.st39{fill:#FFDEBF;}
	.st40{fill:#7FAA68;}
	.st41{fill:#557646;}
	.st42{fill:#599C5F;}
	.st43{fill:#FFAE8F;}
	.st44{fill:#373B5F;}
</style>
<g>
	<path class="st38" d="M17.83,12.53c0,0-1.36,4.39,2.79,7.29s6.8,0.08,6.14-1.16c-0.66-1.25-0.88-6.23-1.06-6.56
		C25.52,11.77,17.83,12.53,17.83,12.53z"/>
	<path class="st43" d="M21.12,26.71l-0.43-1.27c-1.34-3.96-1.02-8.3,0.88-12.02l0.52-1.01l5.37-2.16l8.63,1.16
		c0,0,0.5,6.12-0.44,9.33c-0.94,3.21-2.07,5.53-2.49,5.98l-0.42,5.15l-1.13,5.18c0,0-7.8,1.33-7.86,0.89
		c-0.06-0.44-4.54-2.38-4.21-3.76s0.83-6.14,0.83-6.14L21.12,26.71z"/>
	<path class="st38" d="M27.66,167.25v4.61c0,0.98,0.74,1.81,1.71,1.92l4.7,0.55l0.42-0.91c0,0,3.15,2.82,7.31,3.57
		s9.05-0.42,9.13-1.74c0-0.05,0.01-0.1,0.01-0.15c0.11-2.13-1.09-4.1-3.01-5.02c-1.01-0.49-2.11-0.91-2.98-1
		c-2.24-0.22-4.57-4.71-4.57-4.71s-1.99-2.57-2.57-2.57c-0.58,0-10.14,3.82-10.14,3.82V167.25z"/>
	<path class="st38" d="M16.73,168.78v4.08c0,0.49-0.39,0.88-0.88,0.88h-1.13c0,0-4.73,7.22-11.13,6.14s-2.32-8.55-2.32-8.55
		l4.23-4.9l4.4-2.08l6.23,3.15L16.73,168.78z"/>
	<path class="st44" d="M14.89,79.1c0,0-4.65,13.12-3.99,40.68c0,0-0.3,4.23-0.06,7.31c0,0-1.93,4.9-2.26,16.36
		c0,0-0.25,15.19-0.66,17.77c0,0-1.33,1.33-0.91,2.91c0,0-1.83,0.5-1.49,2.32c0,0,4.23-0.91,8.14,1.83s4.9-2.32,3.99-3.07
		c-0.91-0.75,0.58-0.42,0.66-1.33c0.08-0.91,4.73-31.63,4.07-36.53c0,0,3.49-11.13,4.4-18.85c0,0,1.58,12.37,2.32,13.7
		c0,0-0.25,1.91,0,3.57s-0.5,4.15-0.5,4.15s-1.74,6.81-0.58,18.76s-0.42,15.28-0.5,15.53s-1.91,2.32-0.33,2.91s6.56,0.91,8.22-0.91
		c1.66-1.83,4.98-1.83,4.98-1.83s0.17-3.24-0.75-4.65c0,0,2.57-26.57,1.41-33.21c0,0,4.07-14.28,2.82-36.45l0.24-16.6H23.28
		L14.89,79.1z"/>
	<path class="st44" d="M21.12,26.71c0,0-2.57-0.25-3.74,4.23c0,0-4.65,3.07-6.64,3.4c-1.99,0.33-7.06,1.58-7.47,6.23
		s1.74,7.47,1.66,8.63c-0.08,1.16-0.58,5.98,1,7.56c0,0-1.41-3.99,10.46-6.23l-0.66,15.28c0,0,0.83,1.83-0.08,4.32
		c-0.91,2.49-0.83,4.9-0.08,5.56c0.75,0.66,16.27,1.99,17.6,1.74c1.33-0.25,12.01-1.25,10.95-5.56c-1.07-4.32-1.4-2.82-0.9-18.93
		l2.99-1.41c0,0,3.82-2.24,6.56-2.08c2.74,0.17,1.58,1.33,1.58,1.33s1-1.66-0.91-4.32c-1.91-2.66-3.4-2.49-4.23-6.89
		c-0.83-4.4-6.89-5.65-6.89-5.65l-6.23-1.74c0,0-0.75-3.82-3.32-4.98c0,0,0.42,5.4-2.24,7.14l-0.08,1h-1l0.08-1.25
		C29.5,34.1,20.62,31.03,21.12,26.71z"/>
	<path class="st43" d="M5.93,56.77c0,0,2.29,8.22,6.06,8.22c3.77-0.01,13.37-0.17,20.84-5.48s9.53-7.69,12.19-7.42
		c0,0,1.34-1.63-0.49-2.46s-6.81-0.5-8.47,0.91s-11.37,2.49-13.45,2.99c0,0-2.57-3.32-8.39-3.99s-2.57,1.08-2.32,1.16
		s2.49,0.25,2.49,0.25s-5.45,0.5-4.63,1.49C9.76,52.45,5.59,54.11,5.93,56.77z"/>
	<path class="st43" d="M54.61,49.61c0.01,0.31,0.01,0.61,0.06,0.91c0.26,1.52,1,6.7-0.7,8.77c-1.99,2.44-9.13,2.66-9.13,2.66
		l-14-1.88l10.9-9.02l2.32-1.04c3.13-1.41,6.63-1.79,9.99-1.09l0.5,0.16L54.61,49.61z"/>
	<path class="st38" d="M14.95,79.07c-0.12-0.29,0.01-0.75,0.03-1.07c0.02-0.25,0.3-2.85,0.23-2.86c4.75,1.16,9.62,1.78,14.51,1.86
		c4.77,0.08,9.75-0.43,13.81-2.94c0,1.68-0.01,3.35-0.01,5.03c-3.34,1.96-7.15,3.13-11.01,3.37c-3.68,0.23-7.36-0.37-10.91-1.29
		c-1.8-0.46-3.57-1.01-5.33-1.58c-0.28-0.09-1.06-0.19-1.25-0.41C14.99,79.15,14.97,79.11,14.95,79.07z"/>
	<path class="st23" d="M23.99,76.66v3.1c0,0-1.87,0.26-2.08,2.75c0,0-4.36,1.61-3.07,5.56c1.29,3.94,5.52,3.32,5.52,3.32
		s3.86-0.62,3.49-4.44c-0.37-3.82-1.83-3.65-1.83-3.65s0.58-2.96-1-3.54l0.04-2.98L23.99,76.66z"/>
	<circle class="st44" cx="23.23" cy="87.05" r="3.4"/>
	<path class="st44" d="M36.07,12.18l2.01,2.32c0,0-5.92-2.99-11.9-1.16c0,0-2.6,1.99-3.32-0.44c0,0-2.82,0.17-3.65,1.16l-0.83-1.33
		c0,0-3.65-1.16-2.82-2.99c0.83-1.83,1.99-4.93,1.99-4.93s8.75-6.2,11.84-4.54c2.35,1.26,6.14,3.7,7.83,4.81
		c0.49,0.32,0.67,0.96,0.41,1.49l-1.54,3.17L36.07,12.18z"/>
	<path class="st23" d="M28.76,3.19l-1.6,1.62c-0.23,0.23-0.25,0.6-0.04,0.85l1.65,2.04c0.24,0.3,0.69,0.32,0.96,0.03l1.69-1.8
		c0.23-0.24,0.23-0.63,0-0.87L29.68,3.2C29.43,2.94,29.02,2.93,28.76,3.19z"/>
	<path class="st23" d="M21.81,40.69l-2.05,2.07c-0.29,0.29-0.31,0.76-0.05,1.08l2.11,2.6c0.31,0.38,0.88,0.4,1.22,0.04l2.16-2.3
		c0.29-0.31,0.29-0.8,0-1.11l-2.22-2.37C22.66,40.37,22.13,40.36,21.81,40.69z"/>
</g>
</svg>
