<?xml version="1.0" encoding="utf-8"?>
<!-- Generator: Adobe Illustrator 23.0.1, SVG Export Plug-In . SVG Version: 6.00 Build 0)  -->
<svg version="1.1" id="Layer_1" xmlns="http://www.w3.org/2000/svg" xmlns:xlink="http://www.w3.org/1999/xlink" x="0px" y="0px"
	 viewBox="0 0 59.32 180" style="enable-background:new 0 0 59.32 180;" xml:space="preserve">
<style type="text/css">
	.st0{fill:#DCB197;}
	.st1{fill:#779CC7;}
	.st2{fill:#EFEFF0;}
	.st3{fill:#231F20;}
	.st4{fill:#4C3828;}
	.st5{fill:#E5A89C;}
	.st6{fill:#A695CE;}
	.st7{fill:#002D48;}
	.st8{fill-rule:evenodd;clip-rule:evenodd;fill:#002D48;}
	.st9{fill:#484949;}
	.st10{fill:#A3775E;}
	.st11{fill:#E2B89C;}
	.st12{fill:#FFFFFF;}
	.st13{fill:#F4B98F;}
	.st14{fill:#8E2B8A;}
	.st15{fill:#D9E9E9;}
	.st16{fill:#EFD250;}
	.st17{fill:#F2D422;}
	.st18{fill:#4788C8;}
	.st19{fill:#DDA598;}
	.st20{fill:#C98D45;}
	.st21{fill:#E50527;}
	.st22{fill:#FDD9C9;}
	.st23{fill:#B3B5B8;}
	.st24{fill:#4F577E;}
	.st25{fill:#743225;}
	.st26{fill:#E46C58;}
	.st27{fill:#3F4959;}
	.st28{fill:#EEBA80;}
	.st29{fill:#AEC8F9;}
	.st30{fill:#D9A7CD;}
	.st31{fill:#F80302;}
	.st32{fill:#FBD800;}
	.st33{fill:#E8C1A7;}
	.st34{fill:#999B9E;}
	.st35{fill:#F1F1F1;}
	.st36{fill:#3E6FB7;}
	.st37{fill:#25313E;}
	.st38{fill:#552700;}
	.st39{fill:#FFDEBF;}
	.st40{fill:#7FAA68;}
	.st41{fill:#557646;}
	.st42{fill:#599C5F;}
	.st43{fill:#FFAE8F;}
	.st44{fill:#373B5F;}
</style>
<g>
	<path class="st22" d="M38.45,29.48l-0.43-0.75l-0.91-7.93l0,0c0.04-0.24,0.07-0.47,0.1-0.71c0.27-2.14,0.24-4.32-0.15-6.44
		c-0.23-1.24-0.63-2.53-1.6-3.33c0.25-0.83,0.3-1.73,0.15-2.58c-0.05-0.31-0.15-0.65-0.41-0.82c-0.2-0.14-0.46-0.15-0.71-0.16
		c-3.86-0.15-7.76,0.01-11.53,0.88c-0.3,0.07-0.61,0.15-0.86,0.32c-0.5,0.35-0.67,1.01-0.75,1.62c-0.22,1.77,0.07,3.57,0.41,5.32
		c0.2,1.04,0.39,2.21,0.62,3.42c0.45,2.28,1.08,4.68,2.32,6.5l0,0c0,0,0.66,2.64,0,5.1l1.63,5.55l3.36,5.33c0,0,6.08,0.91,6.99,0
		c0.91-0.91,2.03-4.8,2.03-5.01C38.72,35.56,38.45,29.48,38.45,29.48z"/>
	<path class="st23" d="M2.82,168.65c-0.07,0.06-0.14,0.11-0.21,0.18c-0.44,0.41-0.74,0.93-1.02,1.47c-1.34,2.61-3.06,7.81,0.61,9.3
		c0.9,0.37,1.89,0.43,2.87,0.39c1.2-0.05,2.43-0.27,3.47-0.87c1.05-0.6,1.9-1.61,2.1-2.8c0.14-0.82-0.04-1.66-0.09-2.49
		c-0.04-0.79,0.04-1.62,0.41-2.32c0.18-0.34,0.43-0.64,0.59-0.99c0.42-0.86,0.31-1.87,0.2-2.81c-2.37-0.23-4.8-0.46-7.11,0.13
		C3.99,168.01,3.35,168.25,2.82,168.65z"/>
	<path class="st23" d="M40.31,168.26v0.84c0,0.48,0.29,0.92,0.73,1.11c1.25,0.53,3.95,1.83,6.78,4.19c1.12,0.94,2.3,1.96,3.76,2.31
		c1.72,0.42,3.55,0.85,5.34,0.64c0.66-0.08,1.34-0.26,1.79-0.74c0.31-0.33,0.48-0.78,0.56-1.23c0.44-2.37-1.82-3.81-3.34-5.18
		c-1.13-1.02-2.29-2-3.47-2.96c-0.39-0.32-0.77-0.64-1.16-0.96c0,0-6.36,1-6.48,1C44.7,167.29,40.31,168.26,40.31,168.26z"/>
	<path class="st24" d="M47.46,52.3l-3.71,1.76c0,0,0.03,5.08,0,5.28c-0.03,0.2-0.65,2.92,0.87,2.84s5.68-0.36,5.6-1.36
		S47.46,52.3,47.46,52.3z"/>
	<path class="st25" d="M22.2,17.23c0,0-3.15-9.41,2.87-9.73c0,0,4.44,1.04,7.9-0.05c1.06-0.33,2.2,0.36,2.34,1.47
		c0,0.02,0,0.04,0.01,0.05c0.13,1.17,0.49,2.29,0.99,3.36c0.35,0.74,0.71,1.78,1.02,3.26c0,0,0.7-5.16,0.7-7.13
		c0-1.97-3.31-9.07-10.03-8.43c-3.41,0.33-5.49,2.59-6.71,4.74c-1.19,2.1-1.5,4.6-0.91,6.94C20.8,13.4,21.42,15.52,22.2,17.23z"/>
	<path class="st26" d="M25.04,27.86c-3.66,1.69-7.32,3.37-10.99,5.06c-1.23,0.57-2.49,1.15-3.47,2.09C8.3,37.17,8,40.65,7.92,43.8
		c-0.03,1.48-0.07,2.97-0.3,4.43c-0.11,0.72-0.28,1.43-0.52,2.11c-0.2,0.57-0.85,1.38-0.88,1.92c0.3,0.04,1.08-0.75,1.46-0.92
		c0.63-0.28,1.33-0.4,2.01-0.36c1.49,0.08,2.88,0.79,4.11,1.63c0.55,0.37,1.09,0.77,1.72,0.96c0.46,0.13,0.94,0.15,1.42,0.16
		c9.09,0.26,18.17,0.51,27.26,0.77c0.38,0.01,0.78,0.02,1.15-0.08c0.41-0.11,0.78-0.34,1.15-0.55c3.07-1.73,7.02-1.8,10.15-0.16
		c-2.36-4.11-1.43-9.29-2.7-13.85c-0.23-0.83-0.56-1.66-1.16-2.27c-0.52-0.52-1.21-0.84-1.88-1.16c-4.62-2.19-8.96-4.95-12.91-8.2
		c-0.3,3.01-0.87,6.1-2.54,8.63c-0.51,0.78-1.16,1.52-2.03,1.84c-0.76,0.28-1.62,0.2-2.4-0.03c-2.11-0.64-3.77-2.37-4.7-4.37
		C25.4,32.3,25.11,30.06,25.04,27.86z"/>
	<path class="st24" d="M13.02,71.35c0.21,1.06,0.44,2.12,0.44,3.2c0,1.23-0.29,2.43-0.56,3.62c-3.79,16.75-4.05,34.12-7.21,51.01
		c-1.17,6.26-2.71,12.45-3.7,18.74c-0.49,3.14-0.84,6.31-0.92,9.49c-0.07,2.85-0.24,6.4,0.76,9.09c0.26,0.7,0.62,1.38,0.92,2.07
		c3.87-0.36,7.85,0.68,11.05,2.89c7.53-21.45,9.65-44.34,13.85-66.68c0.1-0.5,0.23-1.07,0.68-1.33c0.98-0.56,1.86,0.87,2.08,1.97
		c3.96,19.89,4.05,40.44,8.62,60.2c0.25,1.07,0.58,2.24,1.51,2.82c0.64,0.4,1.43,0.44,2.19,0.42c3.53-0.07,7.05-1,10.15-2.69
		c-4.7-11.31-0.1-24.62-3.72-36.31c-0.54-1.75-1.26-3.46-1.43-5.28c-0.12-1.38,0.09-2.77,0.27-4.15
		c1.76-13.26,1.17-26.83-1.73-39.89c-0.45-2.02-0.96-4.07-0.76-6.14c0.2-2.06,1.25-4.17,3.14-5.03c-1.79-6-5-11.54-6.28-17.66
		c-1.28-6.12-0.04-13.47,5.23-16.84c-0.73-0.47-1.47-0.94-2.2-1.41c-3.47,4.94-5.77,10.7-6.66,16.67
		c-4.53,0.81-9.25,0.52-13.64-0.85c-0.69-0.22-1.4-0.47-1.91-0.99c-0.8-0.81-0.93-2.04-1.07-3.17c-0.47-3.56-1.59-7.03-3.3-10.18
		c-0.48-0.89-1.04-1.79-1.91-2.29c-0.87-0.51-2.13-0.48-2.75,0.32c3.89,2.15,5.51,7.07,5.16,11.49c-0.35,4.43-2.28,8.54-3.97,12.65
		c-1.68,4.11-3.17,8.51-2.55,12.91C12.85,70.46,12.93,70.91,13.02,71.35z"/>
	<path class="st23" d="M41.47,51.26h2.72c0,0,0.16-2.16,1.12-3.08c0.89-0.85,2.81-1.58,0.61-4.69c-0.17-0.24-0.54-0.12-0.54,0.17
		c0.01,1.16-0.25,2.94-1.99,2.72c0,0-1.51-0.33-1.27-2.29c0.03-0.27-0.28-0.45-0.49-0.28c-0.85,0.68-1.98,2.18,0.3,4.37L41.47,51.26
		z"/>
	<path class="st22" d="M54.23,53.05c0,0,0.48,15.85-4.43,16.17c0,0-14.77,2.03-19.52,0c0,0-8.11-1.65-11.47-5.33
		c-0.35-0.87-0.7-1.74-1.04-2.61c-0.67-1.67-1.33-3.34-2-5c-0.24-0.61-0.49-1.22-0.73-1.83c-0.09-0.23-0.18-0.46-0.27-0.69
		c-0.07-0.18-0.3-0.54-0.25-0.71c0.03-0.09,0.1-0.17,0.17-0.24c0.17-0.15,0.36-0.22,0.58-0.25c-0.15-0.33-0.47-0.62-0.69-0.9
		c-0.26-0.33-0.51-0.68-0.68-1.06c-0.13-0.29,0.01-1.04,0.44-1c0,0-0.43-1.44,0.48-1.28s1.39,0.85,1.39,0.85s-0.32-0.82,0.11-0.87
		c0.43-0.04,5.76,7.1,7.52,9.13c1.76,2.03,7.45,4.47,7.45,4.47s2.15,0.71,12.82-2.44c0,0,1.14-5.55,1.64-7.41l7.48-0.43L54.23,53.05
		z"/>
	<path class="st26" d="M54.67,52.93c0,0-4.28-1.24-8.16,0.94c0,0-0.7,0.55-1.35,0.59c-0.65,0.04,0.57-2.41,0.57-2.41l3.14-1.63
		c0,0,3.68,0.24,3.8,0.36C52.78,50.9,54.67,52.93,54.67,52.93z"/>
	<path class="st22" d="M6.67,52.07c0,0-1.18,10.42,3.57,12.5c0,0,1.17-0.43,3.36,0.37c0,0,7.09,2.13,13.23-0.75
		c0,0,7.76-4.29,12.08-3.01l5.63-1.84c0,0-0.11-1.12,0-1.65c0.11-0.53,0.43-1.07,0.37-1.33c-0.05-0.27,0.69-1.76,0.59-2.77
		c0,0,1.51-2.24,0.01-2.08c0,0-1.34-1.97-4.65-1.23c-3.31,0.75-4.48,4.69-4.48,4.69s-9.07,1.76-18.08-0.16c0,0-2.72-0.14-3.2-1.4
		l-1.36-2.14l-3.65-1.16l-2.72,0.65L6.67,52.07z"/>
	<path class="st26" d="M6.41,52.22c0,0,1.3-1.41,3.29-1.24c1.98,0.17,4.78,2.07,4.78,2.07l0.23-0.26V52.3l-1.05-1.52l-1.92-1.49
		c0,0-2.59,0.08-2.75,0c-0.16-0.08-0.88,0.32-0.88,0.32l-1.23,1.55L6.41,52.22z"/>
</g>
</svg>
