<?xml version="1.0" encoding="utf-8"?>
<!-- Generator: Adobe Illustrator 23.0.1, SVG Export Plug-In . SVG Version: 6.00 Build 0)  -->
<svg version="1.1" id="Layer_1" xmlns="http://www.w3.org/2000/svg" xmlns:xlink="http://www.w3.org/1999/xlink" x="0px" y="0px"
	 viewBox="0 0 49.18 180" style="enable-background:new 0 0 49.18 180;" xml:space="preserve">
<style type="text/css">
	.st0{fill:#DCB197;}
	.st1{fill:#779CC7;}
	.st2{fill:#EFEFF0;}
	.st3{fill:#231F20;}
	.st4{fill:#4C3828;}
	.st5{fill:#E5A89C;}
	.st6{fill:#A695CE;}
	.st7{fill:#002D48;}
	.st8{fill-rule:evenodd;clip-rule:evenodd;fill:#002D48;}
	.st9{fill:#484949;}
	.st10{fill:#A3775E;}
	.st11{fill:#E2B89C;}
	.st12{fill:#FFFFFF;}
	.st13{fill:#F4B98F;}
	.st14{fill:#8E2B8A;}
	.st15{fill:#D9E9E9;}
	.st16{fill:#EFD250;}
	.st17{fill:#F2D422;}
	.st18{fill:#4788C8;}
	.st19{fill:#DDA598;}
	.st20{fill:#C98D45;}
	.st21{fill:#E50527;}
	.st22{fill:#FDD9C9;}
	.st23{fill:#B3B5B8;}
	.st24{fill:#4F577E;}
	.st25{fill:#743225;}
	.st26{fill:#E46C58;}
	.st27{fill:#3F4959;}
	.st28{fill:#EEBA80;}
	.st29{fill:#AEC8F9;}
	.st30{fill:#D9A7CD;}
	.st31{fill:#F80302;}
	.st32{fill:#FBD800;}
	.st33{fill:#E8C1A7;}
	.st34{fill:#999B9E;}
	.st35{fill:#F1F1F1;}
	.st36{fill:#3E6FB7;}
	.st37{fill:#25313E;}
	.st38{fill:#552700;}
	.st39{fill:#FFDEBF;}
	.st40{fill:#7FAA68;}
	.st41{fill:#557646;}
	.st42{fill:#599C5F;}
	.st43{fill:#FFAE8F;}
	.st44{fill:#373B5F;}
</style>
<g>
	<path class="st33" d="M21.07,37.47c0,0-1.59-1.3-0.81-5.62c0,0-3.06-2.97-3.83-5.66c-0.77-2.69-0.9-3.75-0.53-5.3
		s0.45-2.08,0.29-2.97c-0.16-0.9,1.26-2.36,1.26-2.36s4.2-1.14,4.48-1.1c0.29,0.04,7.86,1.63,7.86,1.63l2.2,3.38
		c0,0-0.94,5.83-0.57,8.76l-0.65,3.38l-2.4,5.26L21.07,37.47z"/>
	<path class="st3" d="M48.65,170.29v2.81l0.29,0.13l0.24,2.59c0,0.37-0.21,0.7-0.54,0.86c-0.74,0.35-2.14,0.9-3.7,0.9
		c0,0-7.46,3.63-14.34,2c0,0-3.94-1.18-4.18-1.67s0.35-0.45,0.43-0.86c0.02-0.12,0.04-0.3,0.05-0.48c0.04-0.55,0.34-1.04,0.82-1.31
		l5.73-3.22l2.32-1.75l11.57-0.73L48.65,170.29z"/>
	<path class="st3" d="M16.06,165.77c0,0-1.43,3.67-8.72,4.16c0,0-1.47,0-1.47,1.75l-0.03,0.02c-0.35,0.26-0.52,0.71-0.42,1.13
		l0.08,0.31c0,0,1.1,1.4,6.84,1.64s9.74-1.56,9.74-1.56s1.52-0.61,2.57-0.2c0.85,0.33,4.67-0.4,6.11-0.69
		c0.32-0.06,0.54-0.35,0.53-0.67l-0.08-2.88h-0.37v-3.79c0,0-11.73-0.08-12.34,0C17.89,165.07,16.06,165.77,16.06,165.77z"/>
	<path class="st34" d="M41.12,98.34c-0.02,0.71-0.01,1.42,0.08,2.12c0.17,1.33,0.39,2.66,0.53,4c0.26,2.52,0.51,5.04,0.67,7.57
		c0.33,5.32-0.43,7.71,1.2,13.47c1.63,5.76,2.82,24.23,4.24,41.61c0,0,0.45,1.71,1.34,3.26c0,0-6.48,3.1-16.01,1.26
		c0,0,0.16-2.61,0.69-3.46c0.53-0.86-3.18-17.07-3.18-19.31s-0.69-4.93-0.69-4.93s-0.33,13.32,0.86,19.6c0,0,0.33,1.87,0.33,2.4
		c0,0-9.13,3.91-15.56-0.33c0,0,0.86-8.07,0-12.1c-0.86-4.03-4.44-18.86-4.6-24c0,0,25.53-9.76,25.53-10.09
		c0-0.33,1.9-40.27,1.9-40.27s2.85,5.12,2.8,5.83c-0.02,0.31,0.07,0.67,0.1,0.98c0.08,0.91,0.13,1.82,0.17,2.73
		c0.1,2.67-0.18,5.32-0.31,7.99C41.17,97.22,41.13,97.78,41.12,98.34z"/>
	<path class="st35" d="M9.55,77.8c0,0-1.14-2.3-0.3-4.13s1.49-4.79,1.49-4.79S1.51,69.78,0,68.64c0,0-0.16-8.72,1.87-12.67
		c2.04-3.95,7.37-13.2,7.37-13.2s2.77-5.01,9.57-8.07l1.21-0.61c0,0-0.17,2.83,1.41,2.57c0.02,0,0.03-0.01,0.05-0.01
		c0.99-0.17,1.73-1,1.85-2c0.07-0.53,0.24-1.09,0.65-1.38c0.9-0.63,1.14-1.28,3.83-2.55s3.59-2.51,3.59-2.51s1.04,1.94,1.53,2.06
		c0.49,0.12,8.48,5.26,10.6,10.75c2.12,5.49,1.93,8.23,1.39,11c-0.54,2.77-0.9,3.56-0.9,6.55c0,2.99-1.47,6.03-2.23,7.5
		c-0.76,1.47-0.76,3.45-0.27,4.81c0.49,1.36,1.9,2.66,1.09,4.05c-0.81,1.39-3.45,3.8-3.45,3.8s-20.02,2.82-20.14,2.82
		c-0.12,0-7.37-1.22-7.5-1.34c-0.12-0.12-2.24-1.78-2.24-1.78L9.55,77.8z"/>
	<path class="st33" d="M8.4,59.92c0,0-4.03,0.29-5.21,3.54c0,0-2.2,3.5-2.36,4.2s0.24,0.86,2.28,1.02c2.04,0.16,5.17,0.86,8.56,0
		c0,0,3.67-1.67,4.24-1.83l-2.2-5.91L8.4,59.92z"/>
	<path class="st33" d="M22.45,67.05c0,0-4.52-5.01-4.6-6.84c-0.08-1.83,0.69-4.73,0.69-4.73s-2.93,1.51-7.54-1.26
		c-0.45-0.27-1.9,0.47-2.26,0.69c-1.53,0.91-1.81,2.47-1.82,4.11c0,0.12,0.01,0.26,0.09,0.35c0.15,0.18,0.88,0.2,1.12,0.29
		c0.24,0.09,0.48,0.21,0.62,0.42c0.08,0.13,0.12,0.28,0.18,0.42c0.34,0.94,1.16,1.78,1.83,2.51c0.73,0.8,1.51,1.55,2.35,2.23
		c1.56,1.26,3.54,2.53,5.63,2.43C23.23,67.46,22.45,67.05,22.45,67.05z"/>
	<path class="st35" d="M31.14,18.55c-0.56-0.18-1.11-0.46-1.65-0.72c-2-0.96-4.13-1.7-6.33-1.97c-1.07-0.13-2.16-0.16-3.23-0.05
		c-0.55,0.06-1.1,0.14-1.64,0.27c-0.54,0.13-1.1,0.41-1.64,0.48c-0.01-0.82,0.3-1.71,0.35-2.55c0.05-0.87,0.03-1.75-0.08-2.62
		c-0.56-0.09-1.14-0.19-1.64-0.46c-0.5-0.27-0.93-0.74-1.01-1.3c-0.04-0.32,0.03-0.64,0-0.95c-0.07-0.83-0.77-1.52-0.74-2.35
		c0.03-0.74,0.63-1.3,1.18-1.79c0.55-0.48,1.11-0.96,1.66-1.45c0.39-0.34,0.79-0.69,1.21-1c3.45-2.59,8.52-2.79,12.17-0.47
		c0.5,0.32,1.04,0.86,0.84,1.42c2.25,0.09,4.43,1.13,6.01,2.74c1.59,1.6,2.59,3.73,2.99,5.95c0.16,0.91,0.21,1.91-0.28,2.7
		c-0.32,0.51-0.83,0.87-1.33,1.22c-0.88,0.61-1.76,1.22-2.64,1.83c-0.88,0.61-1.83,1.25-2.9,1.29
		C31.99,18.77,31.56,18.69,31.14,18.55z"/>
	<path class="st3" d="M9.59,77.43c0.01-0.02,0.01-0.03,0.02-0.05c-0.28,0.45-0.32,1.01-0.36,1.55C9.07,81.62,8.9,84.31,8.72,87
		c-0.21,3.15-0.41,6.29-0.48,9.45c-0.08,3.64,0.04,7.28,0.04,10.93c0,2.26-0.03,4.51-0.1,6.77c-0.07,2.26-0.17,4.51-0.29,6.76
		c-0.12,2.25-0.27,4.51-0.42,6.76c-0.04,0.56-0.08,1.13-0.12,1.69c-0.01,0.15-0.08,0.39,0.03,0.52c0.14,0.15,0.5,0.21,0.69,0.29
		c1,0.39,2.01,0.78,3.01,1.15c2.02,0.75,4.05,1.44,6.12,2.05c2.06,0.6,4.15,1.12,6.26,1.49c0.01,0,0.02,0,0.03,0.01
		c5.59,0.99,11.45,1,16.87-0.7c-1.21-18.64-0.43-37.36-1.48-56.01c-9.02,0.92-18.1,1.68-27.14,0.99c-0.54-0.04-1.09-0.09-1.55-0.38
		C9.74,78.48,9.43,77.92,9.59,77.43z"/>
</g>
</svg>
