<?xml version="1.0" encoding="utf-8"?>
<!-- Generator: Adobe Illustrator 23.0.1, SVG Export Plug-In . SVG Version: 6.00 Build 0)  -->
<svg version="1.1" id="Layer_1" xmlns="http://www.w3.org/2000/svg" xmlns:xlink="http://www.w3.org/1999/xlink" x="0px" y="0px"
	 viewBox="0 0 69.23 180" style="enable-background:new 0 0 69.23 180;" xml:space="preserve">
<style type="text/css">
	.st0{fill:#DCB197;}
	.st1{fill:#779CC7;}
	.st2{fill:#EFEFF0;}
	.st3{fill:#231F20;}
	.st4{fill:#4C3828;}
	.st5{fill:#E5A89C;}
	.st6{fill:#A695CE;}
	.st7{fill:#002D48;}
	.st8{fill-rule:evenodd;clip-rule:evenodd;fill:#002D48;}
	.st9{fill:#484949;}
	.st10{fill:#A3775E;}
	.st11{fill:#E2B89C;}
	.st12{fill:#FFFFFF;}
	.st13{fill:#F4B98F;}
	.st14{fill:#8E2B8A;}
	.st15{fill:#D9E9E9;}
	.st16{fill:#EFD250;}
	.st17{fill:#F2D422;}
	.st18{fill:#4788C8;}
	.st19{fill:#DDA598;}
	.st20{fill:#C98D45;}
	.st21{fill:#E50527;}
	.st22{fill:#FDD9C9;}
	.st23{fill:#B3B5B8;}
	.st24{fill:#4F577E;}
	.st25{fill:#743225;}
	.st26{fill:#E46C58;}
	.st27{fill:#3F4959;}
	.st28{fill:#EEBA80;}
	.st29{fill:#AEC8F9;}
	.st30{fill:#D9A7CD;}
	.st31{fill:#F80302;}
	.st32{fill:#FBD800;}
	.st33{fill:#E8C1A7;}
	.st34{fill:#999B9E;}
	.st35{fill:#F1F1F1;}
	.st36{fill:#3E6FB7;}
	.st37{fill:#25313E;}
	.st38{fill:#552700;}
	.st39{fill:#FFDEBF;}
	.st40{fill:#7FAA68;}
	.st41{fill:#557646;}
	.st42{fill:#599C5F;}
	.st43{fill:#FFAE8F;}
	.st44{fill:#373B5F;}
</style>
<g>
	<path class="st17" d="M52.81,79.62c0,0,0.22-1.47-4-2.35c-4.22-0.88,0.3,3.84,0.3,3.84L52.81,79.62z"/>
	<path class="st18" d="M50.73,79.76c0,0-0.3-6.74-0.96-7.82c-0.66-1.08-2.16-0.54-2.7-0.3c-0.54,0.24-3.6,1.92-3.6,2.16
		c0,0.24,0.18,4.13,0,4.52s-0.19,1.28,0,1.77c0.19,0.49-0.84,0.78,0.9,1.02c1.74,0.24,4.14,0.12,4.73,0
		C49.71,80.99,50.73,79.76,50.73,79.76z"/>
	<path class="st19" d="M18.3,55.3c-1.24,3.58-2.49,7.17-3.74,10.75c-1.61,4.63-2.27,9.59-2.99,14.43c-0.35,2.37-0.68,4.75-0.91,7.14
		c0,0-5.39,3.33-4.32,6.74c0,0,4.36-2.63,7.69-3.81c3.33-1.17,7.05-14.67,7.05-14.67l2.98-17.84L18.3,55.3z"/>
	<path class="st19" d="M29.26,29.26c0,0,0.4-1.7,0.06-5.07c0,0-2.75-1.63-2.75-4.93c0-3.3,0-8.75,0-8.75s8.47-3.24,14.9,2.1
		c0,0,0.1,4.82-1.26,11.64l-0.16,7.84l-5.27,8.81c0,0-7.37-1.44-7.37-1.86c0-0.42,1.32-4.02,1.32-4.02L29.26,29.26z"/>
	<path class="st17" d="M26.57,12.43c-1.16,0.1-2.24,0.04-1.99-1.65c0.07-0.46,0.97-0.19,0.98-0.27c0,0,0.89-11.09,9.1-10.49
		c0,0,9.17-0.06,8.81,11.21c0.01-0.17,0.99,0.06,1.08,0.15c0.64,0.57,0.05,1.91-0.54,2.29c-0.76,0.49-1.79,0.34-2.58,0.1
		C34.69,11.77,31.61,12.01,26.57,12.43z"/>
	<path class="st20" d="M38.91,166.81c0,0-2.47,0.64-3.22-0.98c0,0-0.66-1.08-2.19,0c-1.53,1.08-5.75,5.35-12.32,3.12
		c0,0-5.3-0.7-2.88-4.56s6.47-1.8,6.47-1.8l3.85-3.99c0,0,2.36-0.6,2.81-0.6c0.45,0,6.29,1.26,6.29,1.26l4.41,1.53
		c0,0-1.98,5.12-1.98,5.39S38.91,166.81,38.91,166.81z"/>
	<path class="st20" d="M51.74,168.89c0.88,0.94,0.96,2.36,0.83,3.64c-0.06,0.61-0.27,1.34-0.87,1.49c-0.2,0.05-0.41,0.02-0.62,0.04
		c-0.7,0.06-1.22,0.69-1.49,1.35c-0.26,0.65-0.35,1.37-0.63,2.01c-0.6,1.37-2.03,2.25-3.51,2.5c-1.48,0.25-2.99-0.06-4.42-0.51
		c-3.58-1.13-4.54-3.37-2.49-6.55c1.81-2.79,3.78-5.73,6.82-7.09c0.23-0.1,0.48-0.2,0.73-0.19c0.29,0.01,0.55,0.16,0.8,0.31
		c1.2,0.7,2.4,1.4,3.6,2.1C50.94,168.25,51.39,168.51,51.74,168.89z"/>
	<path class="st21" d="M65.51,52.65c-3.41,0.9-6.71,2.24-9.77,3.98c-0.2,0.1-0.39,0.22-0.59,0.33c-0.77-1.11-1.55-2.22-2.32-3.33
		c0.87,1.75,0.78,3.8,0.68,5.75c-0.11,2-0.26,5.38-1.46,6.98c-0.81,1.08-1.99,0.53-3.24,1.06c-2.17,0.74-4.17,0.95-5.78,0.95
		c-0.78-0.48-1.52-0.87-2.4-0.2c-8.53-3.07-11.36-4.1-19.89-7.18c-0.35-1.39-0.68-2.77-1.03-4.17c-0.08-0.34-0.43-0.54-0.77-0.45
		c-0.68,0.19-1.66,0.49-1.85,0.35c-0.32-0.23-0.33-2.09-0.36-2.47c-0.1-1.4,0-2.96-0.01-4.36c-0.03-2.88,0.12-5.69,0.46-8.54
		c0.15-1.28,0.84-2.68,1.53-3.78c0.62-0.98,1.83-1.43,2.83-2.05c1.62-1.01,3.37-1.83,4.88-3c1.3-1.01,2.47-2.35,2.9-3.91
		c0.01-0.05,0.09-0.04,0.09,0.01c-0.08,1.47,0.01,2.94,0.35,4.37c0.14,0.57,0.34,1.18,0.82,1.51c0.72,0.5,1.7,0.17,2.47-0.25
		c3.75-2.02,6.47-5.83,7.19-10.02c0-0.02,0.01-0.04,0.01-0.06c0.84,2.45,10.23,7.2,12.49,8.48c3.53,1.98,6.23,5.21,8.21,8.75
		C62.9,44.95,64.21,48.81,65.51,52.65z"/>
	<path class="st21" d="M48.8,67.43c-0.45,0.2-0.9,0.37-1.36,0.53c-0.63,0.22-1.69,1.27-2.36,1.27c-0.77,0-1.43-0.45-2.06-0.85
		C44.63,68.38,46.64,68.17,48.8,67.43z"/>
	<path class="st18" d="M44.78,28.15c0,0-7.42,10.29-6.97,23.68c0,0-6.65,1.17-15.82,0c0,0,0.75-13.79,4.42-19.3
		c0,0-2.02,1.35-2.78,1.79c-0.77,0.44-2.99,10.71-3.26,17.43v25.8L18.3,96.16l1.62,29.31c0,0,4.58,6.38,6.38,14.65
		s0.09,16.99,0.09,16.99s2.43,3.15,11.87,3.15l0.72,7.28c0,0,2.61,1.98,12.86,1.26c0.94-0.07,1.22-14.89,1.23-15.86
		c0.07-5.47-0.17-10.96-0.85-16.38c-0.64-5.11-1.67-9.79-3.02-14.77c-0.24-0.87-0.47-1.74-0.54-2.64c-0.16-2.31,0.84-4.44,1.45-6.61
		c0.66-2.37,0.66-4.87,0.57-7.32c-0.1-2.66-0.29-5.32-0.54-7.98l-6.39-29.2c0,0-4.22-9.19-3.59-15.66c0,0-0.66-10.88,6.68-22.97
		L44.78,28.15z"/>
	<path class="st19" d="M68.47,65.05c-2.79,3.06-10.25,7.01-17.26,7.47c0,0-3.15,0.27-5.31,2.79c-2.16,2.51-5.22,1.53-5.84,2.51
		c-0.63,0.99-2.25,0.27-2.34,0c0,0-0.43-0.49-0.34-0.92c0,0-1.75-0.02-2.14-1.69c0,0-1.82-0.54-1.8-2.02c0,0-1.96-2.14-0.92-3.19
		c1.04-1.05,5.89-1.87,6.92-1.87c0.43,0,1.74,0.26,3.57,0.25c1.6,0,3.61-0.2,5.78-0.95c1.37-0.47,2.82-1.16,4.26-2.15
		c0,0,4.47-3.29,4.97-4.86c0,0-1.18-2.09-2.3-3.79c3.07-1.74,6.36-3.09,9.77-3.98C65.51,52.65,71.25,61.99,68.47,65.05z"/>
	<path class="st18" d="M21.02,101.21c-0.16-2.58-0.7-5.23-2.18-7.35c-1.48-2.13-4.06-3.63-6.62-3.25c-0.18,0.03-0.36,0.06-0.54,0.11
		c-1.77,0.43-3.28,1.66-4.58,2.97c-2.78,2.79-5.06,6.14-6.24,9.9c-1.86,5.9-0.99,14.11,5.36,16.92c2.31,1.02,5.08,1.04,7.34-0.08
		c2.84-1.4,4.6-4.33,5.71-7.3C20.69,109.33,21.27,105.24,21.02,101.21z M16.67,105.14c-1.05,2.79-3.05,5.13-5.33,7.05
		c-0.75,0.63-1.59,1.24-2.57,1.36c-5,0.57-1.94-8.77-0.7-10.68c1.76-2.71,4.36-4.78,7.07-6.55c0.15-0.1,0.32-0.19,0.48-0.21
		c0.07-0.01,0.13,0,0.2,0.02c0.17,0.06,0.29,0.23,0.38,0.39C17.71,99.08,17.71,102.35,16.67,105.14z"/>
	<path class="st20" d="M42.23,80.76c-1.98,0.23-3.96,0.42-5.95,0.47c-5.54,0.13-11.41-0.97-15.53-4.68c-0.8-0.72-1.76-1.6-2.8-1.29
		c-0.46,0.14-0.82,0.49-1.14,0.84c-4.88,5.38-6.44,16.23,1.11,20.09c0.7,0.36,1.52,0.64,2.28,0.4c1.39-0.44,1.73-2.21,2.51-3.44
		c0.96-1.52,2.8-2.31,4.59-2.44s3.58,0.28,5.32,0.71c0.84,0.21,1.78,0.5,2.14,1.28c0.43,0.93-0.2,2.01-0.13,3.03
		c0.08,1.19,1.13,2.12,2.27,2.47c1.14,0.34,2.36,0.21,3.54,0.08c3.4-0.38,6.8-0.77,10.21-1.15c0.49-0.05,1.01-0.13,1.35-0.48
		c0.29-0.3,0.37-0.75,0.43-1.16c0.78-5.24,0.91-10.57,0.39-15.85C49.26,79.79,45.75,80.34,42.23,80.76z"/>
</g>
</svg>
