<?xml version="1.0" encoding="utf-8"?>
<!-- Generator: Adobe Illustrator 17.0.0, SVG Export Plug-In . SVG Version: 6.00 Build 0)  -->
<!DOCTYPE svg PUBLIC "-//W3C//DTD SVG 1.1//EN" "http://www.w3.org/Graphics/SVG/1.1/DTD/svg11.dtd">
<svg version="1.1" id="Layer_1" xmlns="http://www.w3.org/2000/svg" xmlns:xlink="http://www.w3.org/1999/xlink" x="0px" y="0px"
	 width="132.203px" height="180px" viewBox="33.898 10 132.203 180" enable-background="new 33.898 10 132.203 180"
	 xml:space="preserve">
<path fill="#ED1C24" d="M132.725,190l17.329-14.553l-27.574-27.743c27.385-8.714,43.621-33.591,43.621-67.214
	c0-42.821-25.905-70.49-65.997-70.49c-40.218,0-66.206,27.669-66.206,70.49c0,41.567,23.688,68.48,61.875,70.411L132.725,190z
	 M35.779,80.49c0-41.679,25.25-68.611,64.326-68.611c38.95,0,64.117,26.931,64.117,68.611c0,34.193-16.863,58.722-45.305,66.296
	l28.363,28.536l-14.406,12.099l-36.255-38.362C59.068,147.497,35.779,121.29,35.779,80.49z"/>
<path fill="#F26649" d="M133.022,184.842l11.484-9.645l-29.281-29.459c29.544-6.32,47.117-30.577,47.117-65.248
	c0-40.537-24.429-66.731-62.237-66.731c-37.934,0-62.446,26.193-62.446,66.731c0,39.998,22.893,65.523,59.799,66.718
	L133.022,184.842z M39.538,80.49c0-39.396,23.774-64.851,60.567-64.851c36.666,0,60.357,25.455,60.357,64.851
	c0,34.36-17.683,58.189-47.302,63.744l-1.753,0.329l30.326,30.509l-8.562,7.19l-34.885-36.916l-0.352-0.006
	C61.906,144.37,39.538,119.521,39.538,80.49z"/>
<path fill="#FAB49B" d="M99.108,143.48l34.212,36.203l5.639-4.736l-31.392-31.581l5.246-0.978
	c28.659-5.375,45.769-28.514,45.769-61.897c0-38.254-22.953-62.971-58.478-62.971c-35.651,0-58.687,24.718-58.687,62.971
	c0,37.903,21.659,62.031,56.545,62.971L99.108,143.48z M43.298,80.49c0-37.112,22.298-61.092,56.807-61.092
	c34.382,0,56.598,23.98,56.598,61.092c0,32.408-16.538,54.857-44.236,60.052l-8.74,1.628l32.459,32.652l-2.717,2.282L99.93,141.613
	l-1.937-0.03C64.256,140.673,43.298,117.263,43.298,80.49z"/>
</svg>
