<?xml version="1.0" encoding="utf-8"?>
<!-- Generator: Adobe Illustrator 25.2.1, SVG Export Plug-In . SVG Version: 6.00 Build 0)  -->
<svg version="1.1" id="Layer_1" xmlns="http://www.w3.org/2000/svg" xmlns:xlink="http://www.w3.org/1999/xlink" x="0px" y="0px"
	 viewBox="0 0 180 291.4" style="enable-background:new 0 0 180 291.4;" xml:space="preserve">
<style type="text/css">
	.st0{fill:#010101;}
	.st1{fill:#60C5BD;}
	.st2{fill:#F7AF4E;}
	.st3{fill:#EF573E;}
	.st4{fill:#FFFFFF;}
	.st5{fill:#FCE26C;}
	.st6{fill:#F15B44;}
	.st7{fill:none;stroke:#EF573E;stroke-width:2;stroke-linecap:round;stroke-miterlimit:10;}
	.st8{fill:none;stroke:#60C5BD;stroke-width:2;stroke-linecap:round;stroke-miterlimit:10;}
	.st9{fill:#1BA7A7;}
</style>
<path class="st0" d="M71.42,14.08L94.5,37.16c0.62,0.62,0.82,1.48,0.61,2.27c-0.09,0.39-0.3,0.79-0.61,1.09
	c-0.3,0.3-0.7,0.51-1.09,0.61c-0.79,0.21-1.65,0.02-2.27-0.61L68.06,17.44c-0.92-0.92-0.92-2.44,0-3.36S70.49,13.16,71.42,14.08z"/>
<circle class="st3" cx="67.79" cy="13.82" r="5.86"/>
<path class="st0" d="M114.44,17.45L91.36,40.53c-0.62,0.62-1.48,0.82-2.27,0.61c-0.39-0.09-0.79-0.3-1.09-0.61
	c-0.3-0.3-0.51-0.7-0.61-1.09c-0.21-0.79-0.02-1.65,0.61-2.27l23.08-23.08c0.92-0.92,2.44-0.92,3.36,0
	C115.36,15.01,115.36,16.52,114.44,17.45z"/>
<circle class="st3" cx="114.7" cy="13.82" r="5.86"/>
<path class="st1" d="M68.89,278.82c0,4.32-3.04,7.82-6.8,7.82l0,0c-3.76,0-6.8-3.5-6.8-7.82v-57.81c0-4.32,3.04-7.82,6.8-7.82l0,0
	c3.76,0,6.8,3.5,6.8,7.82V278.82z"/>
<circle class="st2" cx="62.09" cy="253.31" r="10.2"/>
<path class="st3" d="M79.77,284.6c0,3.76-3.05,6.8-6.8,6.8H51.21c-3.76,0-6.8-3.04-6.8-6.8l0,0c0-3.76,3.05-6.8,6.8-6.8h21.77
	C76.73,277.8,79.77,280.84,79.77,284.6L79.77,284.6z"/>
<circle class="st3" cx="62.09" cy="253.31" r="4.08"/>
<path class="st1" d="M125.95,278.82c0,4.32-3.04,7.82-6.8,7.82l0,0c-3.76,0-6.8-3.5-6.8-7.82v-57.81c0-4.32,3.04-7.82,6.8-7.82l0,0
	c3.76,0,6.8,3.5,6.8,7.82V278.82z"/>
<circle class="st2" cx="119.15" cy="253.31" r="10.2"/>
<circle class="st3" cx="119.15" cy="253.31" r="4.08"/>
<path class="st3" d="M136.84,284.6c0,3.76-3.04,6.8-6.8,6.8h-21.77c-3.76,0-6.8-3.04-6.8-6.8l0,0c0-3.76,3.04-6.8,6.8-6.8h21.77
	C133.79,277.8,136.84,280.84,136.84,284.6L136.84,284.6z"/>
<path class="st3" d="M73.99,226.25c0,1.78-1.45,3.23-3.23,3.23H53.42c-1.78,0-3.23-1.45-3.23-3.23l0,0c0-1.79,1.45-3.23,3.23-3.23
	h17.34C72.55,223.02,73.99,224.47,73.99,226.25L73.99,226.25z"/>
<path class="st3" d="M131.05,226.25c0,1.78-1.45,3.23-3.23,3.23h-17.34c-1.78,0-3.23-1.45-3.23-3.23l0,0c0-1.79,1.45-3.23,3.23-3.23
	h17.34C129.61,223.02,131.05,224.47,131.05,226.25L131.05,226.25z"/>
<g>
	<g>
		<g>
			<g>
				<path class="st0" d="M44.89,130.81c-11.19-1.27-23.69,1.11-31.19,10.21c-6.91,8.38-9.04,18.84-9.88,29.43
					c-0.43,5.4-0.44,10.81-0.44,16.22c0,4.87,4.29,9.54,9.32,9.32c5.05-0.23,9.32-4.09,9.32-9.32c0-4.38,0.01-8.77,0.24-13.15
					c0.11-2.12,0.27-4.25,0.52-6.36c0.17-1.48,0.14-0.56-0.08,0.49c0.1-0.48,0.14-0.98,0.23-1.47c0.17-1.04,0.37-2.07,0.6-3.1
					c0.42-1.9,0.99-3.75,1.63-5.59c0.09-0.27,0.27-0.57,0.33-0.84c0.02-0.11-0.95,2-0.5,1.2c0.21-0.38,0.37-0.81,0.57-1.2
					c0.42-0.84,0.89-1.66,1.4-2.45c0.22-0.33,0.58-0.69,0.73-1.06c-0.31,0.73-1.41,1.67-0.4,0.55c0.63-0.69,1.28-1.32,1.95-1.96
					c1.2-1.16-1.01,0.65-0.54,0.38c0.37-0.21,0.72-0.51,1.08-0.74c0.75-0.48,1.93-0.8,2.58-1.38c0.04-0.04-2.02,0.74-1.15,0.49
					c0.3-0.09,0.6-0.22,0.9-0.32c0.63-0.21,1.26-0.39,1.9-0.55c0.59-0.15,1.18-0.25,1.77-0.38c1.46-0.32-2.16,0.16-0.04,0
					c3.07-0.23,6.1-0.15,9.16,0.2c4.86,0.55,9.53-4.68,9.32-9.32C53.96,134.61,50.1,131.4,44.89,130.81L44.89,130.81z"/>
			</g>
		</g>
		<g>
			<path class="st0" d="M2.17,200.24L2.17,200.24c-1.13-1.37-0.94-3.39,0.42-4.52l8-6.64l4.1,4.95l-8,6.64
				C5.33,201.8,3.3,201.61,2.17,200.24z"/>
		</g>
		<g>
			<path class="st0" d="M18.7,200.66l-8-6.64l4.1-4.95l8,6.64c1.37,1.13,1.55,3.16,0.42,4.52l0,0
				C22.09,201.61,20.07,201.8,18.7,200.66z"/>
		</g>
		<g>
			<path class="st1" d="M25.29,190.37c0,1.33-1.53,2.41-3.41,2.41H3.41c-1.88,0-3.41-1.08-3.41-2.41l0,0c0-1.33,1.53-2.4,3.41-2.4
				h18.48C23.77,187.96,25.29,189.04,25.29,190.37L25.29,190.37z"/>
		</g>
	</g>
	<g>
		<g>
			<g>
				<path class="st0" d="M135.68,149.45c2.66-0.3,5.34-0.45,8.01-0.29c0.57,0.04,1.13,0.12,1.7,0.15c1.02,0.05-1.16-0.17-1.12-0.15
					c0.22,0.1,0.55,0.09,0.79,0.14c1.15,0.25,2.29,0.5,3.41,0.88c0.37,0.13,1.99,0.77,0.44,0.12c-1.54-0.65,0,0.03,0.35,0.21
					c0.86,0.44,1.64,0.98,2.45,1.5c1.24,0.79-1.56-1.42-0.53-0.39c0.3,0.3,0.64,0.57,0.94,0.87c0.3,0.3,0.6,0.6,0.88,0.92
					c0.28,0.31,1.42,1.73,0.35,0.37c-1.05-1.34-0.08-0.06,0.14,0.27c0.24,0.36,0.47,0.72,0.69,1.1c0.49,0.82,0.88,1.68,1.31,2.52
					c0.69,1.36-0.8-2.17-0.16-0.37c0.15,0.43,0.32,0.85,0.46,1.29c0.32,0.95,0.61,1.92,0.86,2.9c0.51,1.96,0.82,3.95,1.18,5.94
					c0.11,0.6-0.28-2.34-0.07-0.5c0.06,0.5,0.11,1,0.16,1.5c0.11,1.1,0.2,2.2,0.27,3.31c0.33,4.97,0.35,9.96,0.35,14.95
					c0,4.87,4.29,9.54,9.32,9.32c5.05-0.23,9.32-4.09,9.32-9.32c0-19.17-0.34-44.65-21.1-53.41c-6.44-2.72-13.52-3.23-20.41-2.45
					c-4.83,0.55-9.56,3.89-9.32,9.32C126.56,144.71,130.49,150.04,135.68,149.45L135.68,149.45z"/>
			</g>
		</g>
		<g>
			<path class="st0" d="M173.88,200.66l-8-6.64l4.1-4.95l8,6.64c1.37,1.13,1.55,3.16,0.42,4.53h0
				C177.27,201.61,175.24,201.8,173.88,200.66z"/>
		</g>
		<g>
			<path class="st0" d="M157.35,200.24L157.35,200.24c-1.13-1.37-0.95-3.39,0.42-4.53l8-6.64l4.1,4.95l-8,6.64
				C160.5,201.8,158.48,201.61,157.35,200.24z"/>
		</g>
		<g>
			<path class="st1" d="M155.95,190.37c0,1.33,1.45,2.41,3.24,2.41h17.57c1.79,0,3.24-1.08,3.24-2.41l0,0c0-1.33-1.45-2.4-3.24-2.4
				h-17.57C157.4,187.96,155.95,189.04,155.95,190.37L155.95,190.37z"/>
		</g>
	</g>
</g>
<path class="st3" d="M103.52,95.01v32.07c0,3.79-2.02,7.08-5.07,8.83H82.13c-3.04-1.76-5.09-5.04-5.09-8.83V95.01
	c0-3.43,1.69-6.5,4.3-8.34c1.67-1.21,3.73-1.92,5.96-1.92h5.99c2.23,0,4.29,0.71,5.96,1.92C101.83,88.51,103.52,91.58,103.52,95.01z
	"/>
<path class="st0" d="M92.67,8.61v32.65c0,0.88-0.47,1.63-1.18,2.03c-0.09,0.05-0.18,0.1-0.27,0.15c-0.28,0.12-0.61,0.19-0.93,0.19
	s-0.64-0.07-0.93-0.19c-0.09-0.05-0.18-0.1-0.27-0.15c-0.7-0.4-1.18-1.15-1.18-2.03V8.61c0-1.31,1.08-2.38,2.38-2.38
	C91.6,6.23,92.67,7.3,92.67,8.61z"/>
<path class="st3" d="M110.38,28.01c0,1.89-1.53,3.42-3.42,3.42H73.62c-1.89,0-3.42-1.53-3.42-3.42l0,0c0-1.89,1.53-3.42,3.42-3.42
	h33.34C108.85,24.6,110.38,26.13,110.38,28.01L110.38,28.01z"/>
<circle class="st3" cx="90.29" cy="5.86" r="5.86"/>
<path class="st1" d="M115.93,51.52v3.64c0,1.43-2.05,2.57-4.62,2.57H69.26c-2.55,0-4.63-1.14-4.63-2.57v-3.64
	c0-1.44,2.08-2.57,4.63-2.57h42.05C113.88,48.95,115.93,50.08,115.93,51.52z"/>
<path class="st1" d="M90.29,43.63c-0.32,0-0.64-0.07-0.93-0.19c0.29,0.13,0.61,0.2,0.93,0.2s0.64-0.07,0.93-0.2
	C90.94,43.56,90.61,43.63,90.29,43.63z M90.29,43.63c-0.32,0-0.64-0.07-0.93-0.19c0.29,0.13,0.61,0.2,0.93,0.2s0.64-0.07,0.93-0.2
	C90.94,43.56,90.61,43.63,90.29,43.63z M90.29,43.63c-0.32,0-0.64-0.07-0.93-0.19c0.29,0.13,0.61,0.2,0.93,0.2s0.64-0.07,0.93-0.2
	C90.94,43.56,90.61,43.63,90.29,43.63z M90.29,43.63c-0.32,0-0.64-0.07-0.93-0.19c0.29,0.13,0.61,0.2,0.93,0.2s0.64-0.07,0.93-0.2
	C90.94,43.56,90.61,43.63,90.29,43.63z M122.57,30.9H58.01c-5.65,0-10.26,4.58-10.26,10.26V85.6c0,5.67,4.61,10.26,10.26,10.26
	h64.56c5.66,0,10.24-4.59,10.24-10.26V41.16C132.81,35.48,128.23,30.9,122.57,30.9z M114.69,83.85c0,0.52-0.43,0.95-0.95,0.95
	c-0.53,0-0.96-0.43-0.96-0.95v-9.74c0-0.53,0.43-0.95,0.96-0.95c0.52,0,0.95,0.42,0.95,0.95V83.85z M101.06,83.85v-9.74
	c0-0.53,0.43-0.95,0.95-0.95c0.53,0,0.96,0.42,0.96,0.95v9.74c0,0.52-0.43,0.95-0.96,0.95C101.49,84.8,101.06,84.37,101.06,83.85z
	 M106.92,83.85v-9.74c0-0.53,0.43-0.95,0.95-0.95c0.53,0,0.96,0.42,0.96,0.95v9.74c0,0.52-0.43,0.95-0.96,0.95
	C107.35,84.8,106.92,84.37,106.92,83.85z M83.48,83.85v-9.74c0-0.53,0.42-0.95,0.95-0.95c0.52,0,0.93,0.42,0.93,0.95v9.74
	c0,0.52-0.41,0.95-0.93,0.95C83.9,84.8,83.48,84.37,83.48,83.85z M89.34,83.85v-9.74c0-0.53,0.42-0.95,0.95-0.95
	c0.53,0,0.94,0.42,0.94,0.95v9.74c0,0.42-0.28,0.78-0.66,0.9h-0.56C89.62,84.63,89.34,84.27,89.34,83.85z M97.1,83.85
	c0,0.52-0.42,0.95-0.95,0.95c-0.52,0-0.95-0.43-0.95-0.95v-9.74c0-0.53,0.43-0.95,0.95-0.95c0.53,0,0.95,0.42,0.95,0.95V83.85z
	 M65.89,83.85v-9.74c0-0.53,0.43-0.95,0.95-0.95c0.51,0,0.94,0.42,0.94,0.95v9.74c0,0.52-0.43,0.95-0.94,0.95
	C66.32,84.8,65.89,84.37,65.89,83.85z M71.75,83.85v-9.74c0-0.53,0.43-0.95,0.96-0.95c0.5,0,0.93,0.42,0.93,0.95v9.74
	c0,0.52-0.43,0.95-0.93,0.95C72.18,84.8,71.75,84.37,71.75,83.85z M79.5,83.85c0,0.52-0.41,0.95-0.93,0.95
	c-0.53,0-0.96-0.43-0.96-0.95v-9.74c0-0.53,0.43-0.95,0.96-0.95c0.52,0,0.93,0.42,0.93,0.95V83.85z M122.83,57.51
	c0,3.24-2.63,5.88-5.88,5.88H63.63c-3.24,0-5.88-2.64-5.88-5.88v-8.36c0-3.23,2.64-5.86,5.88-5.86h25.46
	c0.09,0.05,0.18,0.1,0.27,0.15c0.29,0.13,0.61,0.2,0.93,0.2s0.64-0.07,0.93-0.2c0.09-0.05,0.18-0.1,0.27-0.15h25.46
	c3.25,0,5.88,2.63,5.88,5.86V57.51z M90.29,43.63c-0.32,0-0.64-0.07-0.93-0.19c0.29,0.13,0.61,0.2,0.93,0.2s0.64-0.07,0.93-0.2
	C90.94,43.56,90.61,43.63,90.29,43.63z M90.29,43.63c-0.32,0-0.64-0.07-0.93-0.19c0.29,0.13,0.61,0.2,0.93,0.2s0.64-0.07,0.93-0.2
	C90.94,43.56,90.61,43.63,90.29,43.63z M90.29,43.63c-0.32,0-0.64-0.07-0.93-0.19c0.29,0.13,0.61,0.2,0.93,0.2s0.64-0.07,0.93-0.2
	C90.94,43.56,90.61,43.63,90.29,43.63z"/>
<g>
	<path class="st4" d="M91.49,43.29c-0.09,0.05-0.18,0.1-0.27,0.15c-0.28,0.12-0.61,0.19-0.93,0.19s-0.64-0.07-0.93-0.19
		c-0.09-0.05-0.18-0.1-0.27-0.15H91.49z"/>
	<path class="st4" d="M115.93,51.52v3.64c0,1.43-2.05,2.57-4.62,2.57H69.26c-2.55,0-4.63-1.14-4.63-2.57v-3.64
		c0-1.44,2.08-2.57,4.63-2.57h42.05C113.88,48.95,115.93,50.08,115.93,51.52z"/>
	<path class="st2" d="M115.93,51.52v3.64c0,1.43-2.05,2.57-4.62,2.57H69.26c-2.55,0-4.63-1.14-4.63-2.57v-3.64
		c0-1.44,2.08-2.57,4.63-2.57h42.05C113.88,48.95,115.93,50.08,115.93,51.52z"/>
</g>
<g>
	<path class="st0" d="M113.59,71.29h-46.6c-2.12,0-4.05,0.87-5.45,2.25c-1.39,1.39-2.25,3.31-2.25,5.43c0,4.25,3.45,7.7,7.7,7.7
		h46.6c4.25,0,7.7-3.45,7.7-7.7C121.29,74.73,117.84,71.29,113.59,71.29z M67.78,83.85c0,0.52-0.43,0.95-0.94,0.95
		c-0.52,0-0.95-0.43-0.95-0.95v-9.74c0-0.53,0.43-0.95,0.95-0.95c0.51,0,0.94,0.42,0.94,0.95V83.85z M73.64,83.85
		c0,0.52-0.43,0.95-0.93,0.95c-0.53,0-0.96-0.43-0.96-0.95v-9.74c0-0.53,0.43-0.95,0.96-0.95c0.5,0,0.93,0.42,0.93,0.95V83.85z
		 M79.5,83.85c0,0.52-0.41,0.95-0.93,0.95c-0.53,0-0.96-0.43-0.96-0.95v-9.74c0-0.53,0.43-0.95,0.96-0.95
		c0.52,0,0.93,0.42,0.93,0.95V83.85z M95.2,74.11c0-0.53,0.43-0.95,0.95-0.95c0.53,0,0.95,0.42,0.95,0.95v9.74
		c0,0.52-0.42,0.95-0.95,0.95c-0.52,0-0.95-0.43-0.95-0.95V74.11z M83.48,74.11c0-0.53,0.42-0.95,0.95-0.95
		c0.52,0,0.93,0.42,0.93,0.95v9.74c0,0.52-0.41,0.95-0.93,0.95c-0.53,0-0.95-0.43-0.95-0.95V74.11z M90.01,84.75
		c-0.39-0.12-0.67-0.48-0.67-0.9v-9.74c0-0.53,0.42-0.95,0.95-0.95c0.53,0,0.94,0.42,0.94,0.95v9.74c0,0.42-0.28,0.78-0.66,0.9
		H90.01z M102.97,83.85c0,0.52-0.43,0.95-0.96,0.95c-0.52,0-0.95-0.43-0.95-0.95v-9.74c0-0.53,0.43-0.95,0.95-0.95
		c0.53,0,0.96,0.42,0.96,0.95V83.85z M108.83,83.85c0,0.52-0.43,0.95-0.96,0.95c-0.52,0-0.95-0.43-0.95-0.95v-9.74
		c0-0.53,0.43-0.95,0.95-0.95c0.53,0,0.96,0.42,0.96,0.95V83.85z M114.69,83.85c0,0.52-0.43,0.95-0.95,0.95
		c-0.53,0-0.96-0.43-0.96-0.95v-9.74c0-0.53,0.43-0.95,0.96-0.95c0.52,0,0.95,0.42,0.95,0.95V83.85z"/>
	<g>
		<path class="st2" d="M90.57,84.75c-0.08,0.03-0.18,0.05-0.28,0.05c-0.1,0-0.18-0.02-0.28-0.05H90.57z"/>
	</g>
</g>
<path class="st3" d="M127.66,214c0,3.24-2.62,5.86-5.86,5.86H58.78c-3.24,0-5.86-2.62-5.86-5.86v-3.3c0-3.24,2.62-5.86,5.86-5.86
	h63.02c3.24,0,5.86,2.62,5.86,5.86V214z"/>
<g>
	<path class="st2" d="M144.12,127.67c0-0.01,0-0.01,0-0.02c-0.37-5.32-4.8-9.56-10.24-9.56h-87.2c-5.41,0-9.87,4.24-10.24,9.56
		c0,0.01,0,0.01,0,0.02c-0.02,0.24-0.02,0.45-0.02,0.69v69.01c0,5.66,4.6,10.24,10.26,10.24h87.2c5.68,0,10.27-4.58,10.27-10.24
		v-69.01C144.15,128.12,144.15,127.91,144.12,127.67z M115.08,135.92c1.05,0,1.88,0.85,1.88,1.88c0,1.05-0.83,1.91-1.88,1.91H80.42
		c-1.05,0-1.91-0.86-1.91-1.91c0-1.03,0.86-1.88,1.91-1.88H115.08z M115.08,169.08H80.42c-1.05,0-1.91-0.84-1.91-1.89
		s0.86-1.88,1.91-1.88h34.66c1.05,0,1.88,0.83,1.88,1.88S116.13,169.08,115.08,169.08z M116.96,174.52c0,1.05-0.83,1.9-1.88,1.9
		H80.42c-1.05,0-1.91-0.85-1.91-1.9c0-1.03,0.86-1.89,1.91-1.89h34.66C116.13,172.63,116.96,173.49,116.96,174.52z M115.08,154.36
		H80.42c-1.05,0-1.91-0.86-1.91-1.88c0-1.05,0.86-1.91,1.91-1.91h34.66c1.05,0,1.88,0.86,1.88,1.91
		C116.96,153.5,116.13,154.36,115.08,154.36z M115.08,147.03H80.42c-1.05,0-1.91-0.85-1.91-1.9c0-1.03,0.86-1.89,1.91-1.89h34.66
		c1.05,0,1.88,0.86,1.88,1.89C116.96,146.18,116.13,147.03,115.08,147.03z M80.42,179.96h34.66c1.05,0,1.88,0.86,1.88,1.88
		c0,1.05-0.83,1.91-1.88,1.91H80.42c-1.05,0-1.91-0.86-1.91-1.91C78.51,180.82,79.37,179.96,80.42,179.96z"/>
</g>
<g>
	<g>
		<path class="st3" d="M38.2,152.38c0,1.76-1.43,3.19-3.19,3.19l0,0c-1.76,0-3.19-1.43-3.19-3.19v-21.89c0-1.76,1.43-3.19,3.19-3.19
			l0,0c1.76,0,3.19,1.43,3.19,3.19V152.38z"/>
		<path class="st3" d="M142.37,152.38c0,1.76,1.43,3.19,3.19,3.19l0,0c1.76,0,3.19-1.43,3.19-3.19v-21.89
			c0-1.76-1.43-3.19-3.19-3.19l0,0c-1.76,0-3.19,1.43-3.19,3.19V152.38z"/>
	</g>
	<g>
		<g>
			<g>
				<path class="st3" d="M68.42,173.71c8.13,0,8.13-12.6,0-12.6S60.29,173.71,68.42,173.71L68.42,173.71z"/>
			</g>
		</g>
		<g>
			<g>
				<path class="st3" d="M68.42,188.37c8.13,0,8.13-12.6,0-12.6S60.29,188.37,68.42,188.37L68.42,188.37z"/>
			</g>
		</g>
	</g>
	<g>
		<g>
			<g>
				<path class="st3" d="M68.42,143.08c8.13,0,8.13-12.6,0-12.6S60.29,143.08,68.42,143.08L68.42,143.08z"/>
			</g>
		</g>
		<g>
			<g>
				<path class="st3" d="M68.42,157.74c8.13,0,8.13-12.6,0-12.6S60.29,157.74,68.42,157.74L68.42,157.74z"/>
			</g>
		</g>
	</g>
</g>
<circle class="st1" cx="167.31" cy="162.71" r="4.49"/>
<circle class="st1" cx="14.69" cy="162.71" r="4.49"/>
</svg>
