<?xml version="1.0" encoding="utf-8"?>
<!-- Generator: Adobe Illustrator 25.2.1, SVG Export Plug-In . SVG Version: 6.00 Build 0)  -->
<svg version="1.1" id="Layer_1" xmlns="http://www.w3.org/2000/svg" xmlns:xlink="http://www.w3.org/1999/xlink" x="0px" y="0px"
	 viewBox="0 0 180 272.54" style="enable-background:new 0 0 180 272.54;" xml:space="preserve">
<style type="text/css">
	.st0{fill:#010101;}
	.st1{fill:#60C5BD;}
	.st2{fill:#F7AF4E;}
	.st3{fill:#EF573E;}
	.st4{fill:#FFFFFF;}
	.st5{fill:#FCE26C;}
	.st6{fill:#F15B44;}
	.st7{fill:none;stroke:#EF573E;stroke-width:2;stroke-linecap:round;stroke-miterlimit:10;}
	.st8{fill:none;stroke:#60C5BD;stroke-width:2;stroke-linecap:round;stroke-miterlimit:10;}
	.st9{fill:#1BA7A7;}
</style>
<g>
	<g>
		
			<rect x="7" y="211.42" transform="matrix(0.418 -0.9084 0.9084 0.418 -171.5927 170.9418)" class="st1" width="81.25" height="15.95"/>
	</g>
	<g>
		<path class="st0" d="M79.47,191.06c-3.51,7.62-12.52,10.95-20.14,7.45l-3.45-1.59c-7.62-3.51-10.95-12.53-7.45-20.14l1.27-2.76
			c3.51-7.62,12.52-10.95,20.14-7.45l3.45,1.59c7.62,3.51,10.95,12.53,7.45,20.14L79.47,191.06z"/>
	</g>
	<g>
		<path class="st2" d="M48.5,268.34c-1.67,3.62-5.95,5.2-9.57,3.54l-25.52-11.74c-3.62-1.67-5.2-5.95-3.54-9.57l0,0
			c1.67-3.62,5.95-5.2,9.57-3.54l25.52,11.74C48.59,260.44,50.17,264.72,48.5,268.34L48.5,268.34z"/>
	</g>
</g>
<g>
	<g>
		
			<rect x="128.44" y="175.61" transform="matrix(0.8275 -0.5614 0.5614 0.8275 -97.8707 113.8719)" class="st3" width="15.95" height="81.25"/>
	</g>
	<g>
		<path class="st0" d="M128.62,174.32c4.71,6.94,2.9,16.38-4.04,21.09l-3.14,2.13c-6.94,4.71-16.39,2.9-21.09-4.04l-1.71-2.52
			c-4.71-6.94-2.9-16.38,4.04-21.09l3.14-2.13c6.94-4.71,16.39-2.9,21.09,4.04L128.62,174.32z"/>
	</g>
	<g>
		<path class="st2" d="M178.76,240.79c2.24,3.3,1.38,7.78-1.92,10.02l-23.25,15.77c-3.3,2.24-7.78,1.38-10.02-1.92l0,0
			c-2.24-3.3-1.38-7.78,1.92-10.02l23.25-15.77C172.03,236.63,176.52,237.49,178.76,240.79L178.76,240.79z"/>
	</g>
</g>
<g>
	<g>
		<path class="st0" d="M22.78,199.32L22.78,199.32c-1.29,0-2.5-0.8-2.87-2.04c-0.89-3.03-3.69-5.25-7-5.25s-6.11,2.22-7,5.25
			c-0.36,1.24-1.57,2.04-2.87,2.04h0c-2.06,0-3.52-2.01-2.9-3.98c1.7-5.44,6.78-9.39,12.77-9.39s11.07,3.96,12.77,9.39
			C26.3,197.31,24.84,199.32,22.78,199.32z"/>
	</g>
	<g>
		<g>
			<path class="st0" d="M31.84,118.13c-12.22-0.78-20.28,8.31-23.88,19.03c-3.41,10.17-3.67,21.49-3.61,32.13
				c0.02,4.71,0.23,9.42,0.23,14.14c0.01,4.24,3.73,8.31,8.11,8.11c4.39-0.2,8.12-3.56,8.11-8.11c-0.01-8.37-0.46-16.72,0-25.09
				c0.13-2.4,0.34-4.8,0.61-7.19c0.23-2.07-0.21,1.27,0.02-0.19c0.08-0.51,0.16-1.03,0.24-1.54c0.21-1.25,0.46-2.5,0.75-3.74
				c0.24-1.03,0.51-2.06,0.82-3.07c0.13-0.44,1.26-2.82,1.08-3.09c0.19,0.28-0.87,1.89-0.01,0.1c0.19-0.39,0.38-0.78,0.59-1.16
				c0.24-0.43,0.48-0.86,0.75-1.27c0.11-0.17,0.23-0.34,0.34-0.52c0.67-1.1,0.19,0.45-0.43,0.49c0.24-0.02,1.85-1.89,2.03-2.12
				c0.4-0.52-0.81,0.67-0.89,0.67c0.21,0,0.61-0.44,0.79-0.54c0.38-0.22,0.8-0.42,1.16-0.66c0.92-0.59-1.91,0.51-0.14,0.1
				c0.17-0.04,1.53-0.3,1.56-0.38c-0.02,0.05-1.89,0.14-1.12,0.15c0.28,0,0.57-0.05,0.86-0.06c0.68-0.03,1.35-0.01,2.03,0.03
				c4.24,0.27,8.3-3.92,8.11-8.11C39.74,121.61,36.39,118.42,31.84,118.13L31.84,118.13z"/>
		</g>
	</g>
	<g>
		<path class="st2" d="M22.15,185.2c0,2.19-1.77,3.96-3.96,3.96H7.63c-2.19,0-3.96-1.77-3.96-3.96l0,0c0-2.19,1.77-3.96,3.96-3.96
			h10.56C20.38,181.24,22.15,183.02,22.15,185.2L22.15,185.2z"/>
	</g>
	<g>
		<path class="st2" d="M54.58,126.64c0,1.54-0.24,3.04-0.73,4.44c-1.85,5.68-7.2,9.77-13.51,9.77c-0.16,0-0.3,0-0.47-0.02
			c-4.7-0.14-8.82-2.58-11.34-6.23c0.02-0.02,0-0.02,0-0.04c-0.04-0.04-0.06-0.08-0.1-0.14c-1.46-2.23-2.31-4.93-2.31-7.79
			c0-3.2,1.03-6.14,2.82-8.52c2.6-3.47,6.73-5.72,11.4-5.72c0.08,0,0.16,0,0.24,0.02c2.23,0.02,4.32,0.57,6.18,1.52
			c-0.95,2.23,0.16,5.43,3.35,5.43c0.85,0,1.54-0.22,2.09-0.61c1.3,1.97,2.13,4.28,2.31,6.75
			C54.56,125.89,54.58,126.25,54.58,126.64z"/>
	</g>
</g>
<g>
	<g>
		<path class="st0" d="M159.31,64.94c-5.99,0-11.07-3.96-12.77-9.39c-0.62-1.97,0.84-3.98,2.9-3.98h0c1.29,0,2.5,0.8,2.87,2.04
			c0.89,3.03,3.69,5.25,7,5.25c3.31,0,6.11-2.22,7-5.25c0.36-1.24,1.57-2.04,2.87-2.04l0,0c2.06,0,3.52,2.01,2.9,3.98
			C170.38,60.99,165.3,64.94,159.31,64.94z"/>
	</g>
	<g>
		<g>
			<path class="st0" d="M140.38,132.77c12.22,0.78,20.28-8.31,23.88-19.03c3.41-10.17,3.67-21.49,3.61-32.13
				c-0.02-4.71-0.23-9.42-0.23-14.14c-0.01-4.24-3.73-8.31-8.11-8.11c-4.39,0.2-8.12,3.56-8.11,8.11c0.01,8.37,0.46,16.72,0,25.09
				c-0.13,2.4-0.34,4.8-0.61,7.19c-0.23,2.07,0.21-1.27-0.02,0.19c-0.08,0.51-0.16,1.03-0.24,1.54c-0.21,1.25-0.46,2.5-0.75,3.74
				c-0.24,1.03-0.51,2.06-0.82,3.07c-0.13,0.44-1.26,2.82-1.08,3.09c-0.19-0.29,0.87-1.89,0.01-0.1c-0.19,0.39-0.38,0.78-0.59,1.16
				c-0.24,0.43-0.48,0.86-0.75,1.27c-0.11,0.17-0.23,0.34-0.34,0.52c-0.67,1.1-0.19-0.45,0.43-0.49c-0.24,0.02-1.85,1.89-2.03,2.12
				c-0.4,0.52,0.81-0.67,0.89-0.67c-0.21,0.01-0.61,0.44-0.79,0.54c-0.38,0.22-0.8,0.42-1.16,0.66c-0.92,0.59,1.91-0.51,0.14-0.1
				c-0.17,0.04-1.53,0.3-1.56,0.38c0.02-0.05,1.89-0.14,1.12-0.15c-0.28,0-0.57,0.05-0.86,0.06c-0.68,0.03-1.35,0.01-2.03-0.03
				c-4.24-0.27-8.3,3.92-8.11,8.11C132.48,129.28,135.84,132.48,140.38,132.77L140.38,132.77z"/>
		</g>
	</g>
	<g>
		<path class="st3" d="M150.07,65.69c0-2.19,1.77-3.96,3.96-3.96h10.56c2.19,0,3.96,1.77,3.96,3.96l0,0c0,2.19-1.77,3.96-3.96,3.96
			h-10.56C151.85,69.65,150.07,67.88,150.07,65.69L150.07,65.69z"/>
	</g>
	<g>
		<path class="st3" d="M146.1,124.27c0,3.18-1.03,6.12-2.84,8.5c-2.58,3.47-6.71,5.72-11.4,5.72c-0.28,0-0.57,0-0.83-0.04
			c-7.46-0.41-13.38-6.61-13.38-14.17c0-1.93,0.39-3.77,1.07-5.45c0.55,0.36,1.22,0.57,2.03,0.57c3.73,0,4.62-4.44,2.64-6.53
			c1.7-1.28,3.69-2.17,5.86-2.58c0.85-0.16,1.72-0.24,2.62-0.24c4.91,0,9.23,2.47,11.8,6.25c0,0.02,0,0.04,0.02,0.04
			c0.02,0.06,0.06,0.1,0.08,0.14C145.25,118.69,146.1,121.39,146.1,124.27z"/>
	</g>
</g>
<path class="st2" d="M68.27,86.76c-3.5,0-6.34,2.84-6.34,6.35c0,0.59,0.48,1.08,1.07,1.08c0.61,0,1.08-0.49,1.08-1.08
	c0-2.31,1.88-4.18,4.19-4.18c2.3,0,4.18,1.87,4.18,4.18c0,0.59,0.49,1.08,1.08,1.08c0.58,0,1.07-0.49,1.07-1.08
	C74.6,89.6,71.76,86.76,68.27,86.76z M106.07,86.76c-3.49,0-6.32,2.84-6.32,6.35c0,0.59,0.48,1.08,1.07,1.08
	c0.59,0,1.07-0.49,1.07-1.08c0-2.31,1.89-4.18,4.18-4.18c2.31,0,4.2,1.87,4.2,4.18c0,0.59,0.47,1.08,1.07,1.08
	c0.59,0,1.08-0.49,1.08-1.08C112.42,89.6,109.58,86.76,106.07,86.76z M68.27,86.76c-3.5,0-6.34,2.84-6.34,6.35
	c0,0.59,0.48,1.08,1.07,1.08c0.61,0,1.08-0.49,1.08-1.08c0-2.31,1.88-4.18,4.19-4.18c2.3,0,4.18,1.87,4.18,4.18
	c0,0.59,0.49,1.08,1.08,1.08c0.58,0,1.07-0.49,1.07-1.08C74.6,89.6,71.76,86.76,68.27,86.76z M106.07,86.76
	c-3.49,0-6.32,2.84-6.32,6.35c0,0.59,0.48,1.08,1.07,1.08c0.59,0,1.07-0.49,1.07-1.08c0-2.31,1.89-4.18,4.18-4.18
	c2.31,0,4.2,1.87,4.2,4.18c0,0.59,0.47,1.08,1.07,1.08c0.59,0,1.08-0.49,1.08-1.08C112.42,89.6,109.58,86.76,106.07,86.76z
	 M131.25,50.97c-0.22-2.02-0.57-4-1.06-5.92c-1.97-7.91-6.08-14.98-11.67-20.56c-8.01-8.03-19.1-12.99-31.35-12.99
	c-20.62,0-37.94,14.06-42.91,33.11c-0.55,2.08-0.94,4.22-1.18,6.41c-0.17,1.58-0.26,3.19-0.26,4.82v86.77
	c0,10.36,3.56,19.9,9.52,27.45c1.08,1.37,2.24,2.68,3.48,3.92c6.73,6.73,15.64,11.32,25.59,12.6c1.89,0.25,3.81,0.38,5.76,0.38
	c3.18,0,6.28-0.33,9.26-0.97c11.1-2.36,20.66-8.87,26.99-17.82c5.1-7.22,8.1-16.04,8.1-25.56V55.84
	C131.52,54.19,131.43,52.57,131.25,50.97z M101.22,152.41v1.42H58.05c-0.99,0-1.8-0.81-1.8-1.83c0-0.99,0.81-1.8,1.8-1.8h58.24
	c1.01,0,1.82,0.81,1.82,1.8c0,1.02-0.81,1.83-1.82,1.83h-2.11v-1.42H101.22z M95.84,90.48c0-5.66,4.59-10.24,10.24-10.24
	c5.66,0,10.24,4.58,10.24,10.24c0,5.65-4.58,10.23-10.24,10.23C100.43,100.71,95.84,96.13,95.84,90.48z M68.36,100.71
	c-5.66,0-10.24-4.58-10.24-10.23c0-5.66,4.58-10.24,10.24-10.24c5.65,0,10.24,4.58,10.24,10.24
	C78.6,96.13,74.01,100.71,68.36,100.71z M110.27,93.11c0,0.59,0.47,1.08,1.07,1.08c0.59,0,1.08-0.49,1.08-1.08
	c0-3.51-2.84-6.35-6.35-6.35c-3.49,0-6.32,2.84-6.32,6.35c0,0.59,0.48,1.08,1.07,1.08c0.59,0,1.07-0.49,1.07-1.08
	c0-2.31,1.89-4.18,4.18-4.18C108.38,88.93,110.27,90.8,110.27,93.11z M68.27,86.76c-3.5,0-6.34,2.84-6.34,6.35
	c0,0.59,0.48,1.08,1.07,1.08c0.61,0,1.08-0.49,1.08-1.08c0-2.31,1.88-4.18,4.19-4.18c2.3,0,4.18,1.87,4.18,4.18
	c0,0.59,0.49,1.08,1.08,1.08c0.58,0,1.07-0.49,1.07-1.08C74.6,89.6,71.76,86.76,68.27,86.76z M106.07,86.76
	c-3.49,0-6.32,2.84-6.32,6.35c0,0.59,0.48,1.08,1.07,1.08c0.59,0,1.07-0.49,1.07-1.08c0-2.31,1.89-4.18,4.18-4.18
	c2.31,0,4.2,1.87,4.2,4.18c0,0.59,0.47,1.08,1.07,1.08c0.59,0,1.08-0.49,1.08-1.08C112.42,89.6,109.58,86.76,106.07,86.76z
	 M106.07,86.76c-3.49,0-6.32,2.84-6.32,6.35c0,0.59,0.48,1.08,1.07,1.08c0.59,0,1.07-0.49,1.07-1.08c0-2.31,1.89-4.18,4.18-4.18
	c2.31,0,4.2,1.87,4.2,4.18c0,0.59,0.47,1.08,1.07,1.08c0.59,0,1.08-0.49,1.08-1.08C112.42,89.6,109.58,86.76,106.07,86.76z"/>
<path class="st6" d="M138.1,53.05c0,8.29-22.6,16.68-50.98,16.68c-28.38,0-51.79-8.39-51.79-16.68s23-15.01,51.38-15.01
	C115.1,38.05,138.1,44.77,138.1,53.05z"/>
<path class="st1" d="M131.33,50.93c0-24.41-19.79-44.2-44.2-44.2c-24.41,0-44.2,19.79-44.2,44.2c0,0,18.36,10.38,44.2,10.38
	C111.61,61.31,131.33,50.93,131.33,50.93z"/>
<path class="st8" d="M137.19,50.07C137.19,22.42,114.77,0,87.13,0C59.48,0,37.06,22.42,37.06,50.07"/>
<path class="st1" d="M115.91,23.81c-5.31-6.64-11.99-10.13-14.92-7.78c-2.93,2.35-1.01,9.63,4.3,16.27
	c5.31,6.64,11.99,10.13,14.92,7.78C123.14,37.74,121.22,30.45,115.91,23.81z"/>
<g>
	<path d="M114.44,143.32H59.9c-2.4,0-4.57,0.98-6.15,2.56c-1.56,1.56-2.53,3.73-2.53,6.12c0,4.81,3.89,8.7,8.68,8.7h54.54
		c4.81,0,8.7-3.89,8.7-8.7C123.14,147.22,119.25,143.32,114.44,143.32z M116.29,153.83h-2.11v-1.42h-12.96v1.42H58.05
		c-0.99,0-1.8-0.81-1.8-1.83c0-0.99,0.81-1.8,1.8-1.8h58.24c1.01,0,1.82,0.81,1.82,1.8C118.11,153.02,117.3,153.83,116.29,153.83z"
		/>
	<g>
		<rect x="101.22" y="152.41" class="st4" width="12.96" height="1.42"/>
	</g>
	<path class="st6" d="M114.18,152.41v10.1c0,0.95-0.2,1.85-0.57,2.66c-1.01,2.26-3.27,3.83-5.9,3.83c-1,0-1.94-0.22-2.78-0.63
		c-2.2-1.03-3.71-3.27-3.71-5.86v-10.1H114.18z"/>
</g>
<path class="st4" d="M74.6,93.11c0,0.59-0.49,1.08-1.07,1.08c-0.59,0-1.08-0.49-1.08-1.08c0-2.31-1.88-4.18-4.18-4.18
	c-2.31,0-4.19,1.87-4.19,4.18c0,0.59-0.47,1.08-1.08,1.08c-0.59,0-1.07-0.49-1.07-1.08c0-3.51,2.84-6.35,6.34-6.35
	C71.76,86.76,74.6,89.6,74.6,93.11z"/>
<path class="st4" d="M112.42,93.11c0,0.59-0.49,1.08-1.08,1.08c-0.6,0-1.07-0.49-1.07-1.08c0-2.31-1.89-4.18-4.2-4.18
	c-2.29,0-4.18,1.87-4.18,4.18c0,0.59-0.48,1.08-1.07,1.08c-0.59,0-1.07-0.49-1.07-1.08c0-3.51,2.83-6.35,6.32-6.35
	C109.58,86.76,112.42,89.6,112.42,93.11z"/>
<g>
	<g>
		<path class="st4" d="M74.6,93.11c0,0.59-0.49,1.08-1.07,1.08c-0.59,0-1.08-0.49-1.08-1.08c0-2.31-1.88-4.18-4.18-4.18
			c-2.31,0-4.19,1.87-4.19,4.18c0,0.59-0.47,1.08-1.08,1.08c-0.59,0-1.07-0.49-1.07-1.08c0-3.51,2.84-6.35,6.34-6.35
			C71.76,86.76,74.6,89.6,74.6,93.11z"/>
	</g>
	<g>
		<path class="st0" d="M74.6,93.11c0,0.59-0.49,1.08-1.07,1.08c-0.59,0-1.08-0.49-1.08-1.08c0-2.31-1.88-4.18-4.18-4.18
			c-2.31,0-4.19,1.87-4.19,4.18c0,0.59-0.47,1.08-1.08,1.08c-0.59,0-1.07-0.49-1.07-1.08c0-3.51,2.84-6.35,6.34-6.35
			C71.76,86.76,74.6,89.6,74.6,93.11z"/>
	</g>
	<g>
		<path class="st4" d="M112.42,93.11c0,0.59-0.49,1.08-1.08,1.08c-0.6,0-1.07-0.49-1.07-1.08c0-2.31-1.89-4.18-4.2-4.18
			c-2.29,0-4.18,1.87-4.18,4.18c0,0.59-0.48,1.08-1.07,1.08c-0.59,0-1.07-0.49-1.07-1.08c0-3.51,2.83-6.35,6.32-6.35
			C109.58,86.76,112.42,89.6,112.42,93.11z"/>
	</g>
	<g>
		<path class="st0" d="M112.42,93.11c0,0.59-0.49,1.08-1.08,1.08c-0.6,0-1.07-0.49-1.07-1.08c0-2.31-1.89-4.18-4.2-4.18
			c-2.29,0-4.18,1.87-4.18,4.18c0,0.59-0.48,1.08-1.07,1.08c-0.59,0-1.07-0.49-1.07-1.08c0-3.51,2.83-6.35,6.32-6.35
			C109.58,86.76,112.42,89.6,112.42,93.11z"/>
	</g>
</g>
</svg>
