<?xml version="1.0" encoding="utf-8"?>
<!-- Generator: Adobe Illustrator 25.2.1, SVG Export Plug-In . SVG Version: 6.00 Build 0)  -->
<svg version="1.1" id="Layer_1" xmlns="http://www.w3.org/2000/svg" xmlns:xlink="http://www.w3.org/1999/xlink" x="0px" y="0px"
	 viewBox="0 0 180 286.06" style="enable-background:new 0 0 180 286.06;" xml:space="preserve">
<style type="text/css">
	.st0{fill:#010101;}
	.st1{fill:#60C5BD;}
	.st2{fill:#F7AF4E;}
	.st3{fill:#EF573E;}
	.st4{fill:#FFFFFF;}
	.st5{fill:#FCE26C;}
	.st6{fill:#F15B44;}
	.st7{fill:none;stroke:#EF573E;stroke-width:2;stroke-linecap:round;stroke-miterlimit:10;}
	.st8{fill:none;stroke:#60C5BD;stroke-width:2;stroke-linecap:round;stroke-miterlimit:10;}
	.st9{fill:#1BA7A7;}
</style>
<g>
	<g>
		<g>
			
				<rect x="30.3" y="233.45" transform="matrix(8.702046e-03 -1 1 8.702046e-03 -174.8048 304.6979)" class="st1" width="71.96" height="14.12"/>
		</g>
	</g>
	<g>
		<g>
			<path class="st2" d="M84.77,279.73c-0.03,3.53-2.92,6.36-6.44,6.33l-24.88-0.22c-3.53-0.03-6.36-2.92-6.33-6.44l0,0
				c0.03-3.53,2.92-6.36,6.44-6.33l24.88,0.22C81.96,273.31,84.8,276.2,84.77,279.73L84.77,279.73z"/>
		</g>
	</g>
</g>
<g>
	<g>
		<g>
			<rect x="105.81" y="204.52" class="st1" width="14.12" height="71.96"/>
		</g>
	</g>
	<g>
		<g>
			<path class="st2" d="M131.7,279.55c0,3.53-2.86,6.39-6.39,6.39h-24.88c-3.53,0-6.39-2.86-6.39-6.39l0,0
				c0-3.53,2.86-6.39,6.39-6.39l24.88,0C128.84,273.16,131.7,276.02,131.7,279.55L131.7,279.55z"/>
		</g>
	</g>
</g>
<g>
	<g>
		<polygon points="73.32,81.61 78.97,77.97 73.32,74.35 106.68,74.35 101.03,77.97 106.68,81.61 		"/>
	</g>
</g>
<g>
	<g>
		<path class="st2" d="M110.7,49.78c0,0.49-0.39,0.88-0.88,0.88s-0.89-0.39-0.89-0.88c0-1.89-1.53-3.42-3.42-3.42
			c-1.89,0-3.42,1.53-3.42,3.42c0,0.49-0.4,0.88-0.88,0.88c-0.49,0-0.89-0.39-0.89-0.88c0-2.86,2.33-5.19,5.19-5.19
			C108.37,44.59,110.7,46.92,110.7,49.78z"/>
		<path class="st2" d="M90,0C70.69,0,55.04,15.65,55.04,34.97V74.7h69.93V34.97C124.97,15.65,109.31,0,90,0z M66.5,49.78
			c0-4.45,3.61-8.06,8.06-8.06c4.46,0,8.06,3.61,8.06,8.06s-3.6,8.06-8.06,8.06C70.11,57.84,66.5,54.23,66.5,49.78z M105.44,57.84
			c-4.45,0-8.06-3.61-8.06-8.06s3.61-8.06,8.06-8.06s8.06,3.61,8.06,8.06S109.89,57.84,105.44,57.84z M77.99,49.78
			c0,0.49,0.39,0.88,0.88,0.88s0.88-0.39,0.88-0.88c0-2.86-2.33-5.19-5.19-5.19s-5.19,2.33-5.19,5.19c0,0.49,0.4,0.88,0.89,0.88
			s0.88-0.39,0.88-0.88c0-1.89,1.54-3.42,3.42-3.42C76.45,46.36,77.99,47.89,77.99,49.78z"/>
	</g>
</g>
<g>
	<g>
		<g>
			<g>
				<polygon class="st9" points="13.57,215.23 4.62,157.48 36.09,101.86 43.72,106.18 13.74,159.15 22.22,213.88 				"/>
			</g>
		</g>
	</g>
	<g>
		<g>
			<ellipse transform="matrix(0.6966 -0.7175 0.7175 0.6966 -62.5225 60.1947)" cx="39.91" cy="104.02" rx="14.11" ry="14.11"/>
		</g>
	</g>
	<g>
		<g>
			<path d="M19.95,158.19c0.06,5.51-4.35,10.03-9.86,10.09c-5.51,0.06-10.03-4.35-10.09-9.86c-0.06-5.51,4.35-10.03,9.86-10.09
				C15.37,148.27,19.89,152.68,19.95,158.19z"/>
		</g>
	</g>
	<g>
		<g>
			<g>
				<polygon points="13.18,234.51 5.93,231.21 16.67,207.64 35.04,226.25 29.38,231.85 19.12,221.47 				"/>
			</g>
		</g>
	</g>
	<g>
		<g>
			
				<ellipse transform="matrix(0.0758 -0.9971 0.9971 0.0758 -197.3982 216.1327)" class="st3" cx="17.9" cy="214.56" rx="9.98" ry="9.98"/>
		</g>
	</g>
</g>
<g>
	<g>
		<g>
			<g>
				<polygon class="st9" points="167.05,215.07 175.37,157.23 143.29,101.96 135.71,106.36 166.27,159 158.38,213.83 				"/>
			</g>
		</g>
	</g>
	<g>
		<g>
			<path d="M125.39,104.15c0,7.79,6.31,14.11,14.1,14.12c7.79,0,14.11-6.31,14.12-14.1c0-7.79-6.31-14.11-14.1-14.12
				C131.72,90.04,125.4,96.36,125.39,104.15z"/>
		</g>
	</g>
	<g>
		<g>
			<path d="M160.05,158.11c0,5.51,4.46,9.98,9.97,9.98s9.98-4.46,9.98-9.97s-4.46-9.98-9.97-9.98
				C164.52,148.14,160.05,152.6,160.05,158.11z"/>
		</g>
	</g>
	<g>
		<g>
			<g>
				<polygon points="167.65,234.35 174.86,230.97 163.87,207.52 145.7,226.33 151.43,231.87 161.57,221.37 				"/>
			</g>
		</g>
	</g>
	<g>
		<g>
			<path class="st3" d="M152.74,214.44c0,5.51,4.46,9.98,9.97,9.98c5.51,0,9.98-4.46,9.98-9.97c0-5.51-4.46-9.98-9.97-9.98
				C157.21,204.47,152.74,208.94,152.74,214.44z"/>
		</g>
	</g>
</g>
<g>
	<g>
		<g>
			<path class="st3" d="M61.51,30.95c0,0.62-0.5,1.12-1.12,1.12c-0.62,0-1.12-0.5-1.12-1.12c0-0.62,0.5-1.12,1.12-1.12
				C61,29.83,61.51,30.33,61.51,30.95z"/>
		</g>
	</g>
	<g>
		<g>
			<path class="st3" d="M81.25,30.95c0,0.62-0.5,1.12-1.12,1.12c-0.62,0-1.12-0.5-1.12-1.12c0-0.62,0.5-1.12,1.12-1.12
				C80.75,29.83,81.25,30.33,81.25,30.95z"/>
		</g>
	</g>
	<g>
		<g>
			<path class="st3" d="M100.99,30.95c0,0.62-0.5,1.12-1.12,1.12c-0.62,0-1.12-0.5-1.12-1.12c0-0.62,0.5-1.12,1.12-1.12
				C100.49,29.83,100.99,30.33,100.99,30.95z"/>
		</g>
	</g>
	<g>
		<g>
			<path class="st3" d="M120.73,30.95c0,0.62-0.5,1.12-1.12,1.12c-0.62,0-1.12-0.5-1.12-1.12c0-0.62,0.5-1.12,1.12-1.12
				C120.23,29.83,120.73,30.33,120.73,30.95z"/>
		</g>
	</g>
</g>
<g>
	<g>
		<g>
			<path class="st3" d="M61.51,24.28c0,0.62-0.5,1.12-1.12,1.12c-0.62,0-1.12-0.5-1.12-1.12c0-0.62,0.5-1.12,1.12-1.12
				C61,23.16,61.51,23.66,61.51,24.28z"/>
		</g>
	</g>
	<g>
		<g>
			<path class="st3" d="M81.25,24.28c0,0.62-0.5,1.12-1.12,1.12c-0.62,0-1.12-0.5-1.12-1.12c0-0.62,0.5-1.12,1.12-1.12
				C80.75,23.16,81.25,23.66,81.25,24.28z"/>
		</g>
	</g>
	<g>
		<g>
			<path class="st3" d="M100.99,24.28c0,0.62-0.5,1.12-1.12,1.12c-0.62,0-1.12-0.5-1.12-1.12c0-0.62,0.5-1.12,1.12-1.12
				C100.49,23.16,100.99,23.66,100.99,24.28z"/>
		</g>
	</g>
	<g>
		<g>
			<path class="st3" d="M120.73,24.28c0,0.62-0.5,1.12-1.12,1.12c-0.62,0-1.12-0.5-1.12-1.12c0-0.62,0.5-1.12,1.12-1.12
				C120.23,23.16,120.73,23.66,120.73,24.28z"/>
		</g>
	</g>
</g>
<g>
	<g>
		<g>
			<path class="st4" d="M79.75,49.78c0,0.49-0.39,0.88-0.88,0.88s-0.88-0.39-0.88-0.88c0-1.89-1.54-3.42-3.43-3.42
				c-1.88,0-3.42,1.53-3.42,3.42c0,0.49-0.39,0.88-0.88,0.88s-0.89-0.39-0.89-0.88c0-2.86,2.33-5.19,5.19-5.19
				S79.75,46.92,79.75,49.78z"/>
		</g>
	</g>
	<g>
		<g>
			<path d="M79.75,49.78c0,0.49-0.39,0.88-0.88,0.88s-0.88-0.39-0.88-0.88c0-1.89-1.54-3.42-3.43-3.42c-1.88,0-3.42,1.53-3.42,3.42
				c0,0.49-0.39,0.88-0.88,0.88s-0.89-0.39-0.89-0.88c0-2.86,2.33-5.19,5.19-5.19S79.75,46.92,79.75,49.78z"/>
		</g>
	</g>
	<g>
		<g>
			<path d="M91.01,64.23c-2.86,0-5.19-2.33-5.19-5.19c0-0.49,0.4-0.88,0.88-0.88c0.49,0,0.88,0.4,0.88,0.88
				c0,1.89,1.54,3.42,3.42,3.42c1.89,0,3.42-1.54,3.42-3.42c0-0.49,0.4-0.88,0.88-0.88c0.49,0,0.88,0.4,0.88,0.88
				C96.2,61.9,93.87,64.23,91.01,64.23z"/>
		</g>
	</g>
	<g>
		<g>
			<path class="st4" d="M110.7,49.78c0,0.49-0.39,0.88-0.88,0.88s-0.89-0.39-0.89-0.88c0-1.89-1.53-3.42-3.42-3.42
				c-1.89,0-3.42,1.53-3.42,3.42c0,0.49-0.4,0.88-0.88,0.88c-0.49,0-0.89-0.39-0.89-0.88c0-2.86,2.33-5.19,5.19-5.19
				C108.37,44.59,110.7,46.92,110.7,49.78z"/>
		</g>
	</g>
	<g>
		<g>
			<path d="M110.7,49.78c0,0.49-0.39,0.88-0.88,0.88s-0.89-0.39-0.89-0.88c0-1.89-1.53-3.42-3.42-3.42c-1.89,0-3.42,1.53-3.42,3.42
				c0,0.49-0.4,0.88-0.88,0.88c-0.49,0-0.89-0.39-0.89-0.88c0-2.86,2.33-5.19,5.19-5.19C108.37,44.59,110.7,46.92,110.7,49.78z"/>
		</g>
	</g>
</g>
<g>
	<g>
		<g>
			<polygon points="76.71,205.75 77.68,194.72 57.32,184.45 54.29,205.75 			"/>
		</g>
	</g>
	<g>
		<g>
			<polygon points="122.68,184.45 102.32,194.72 103.29,205.75 125.71,205.75 			"/>
		</g>
	</g>
</g>
<g>
	<g>
		<polygon class="st1" points="52.06,81.66 127.94,81.66 143.86,196.19 36.14,196.19 		"/>
	</g>
</g>
<g>
	<g>
		<g>
			<polygon class="st3" points="52.06,81.56 30.29,81.56 47.21,116.58 			"/>
		</g>
	</g>
	<g>
		<g>
			<polygon class="st3" points="127.94,81.56 149.71,81.56 132.79,116.58 			"/>
		</g>
	</g>
</g>
<g>
	<rect x="54.02" y="178.53" class="st3" width="73.92" height="5.93"/>
</g>
<g>
	<rect x="57.98" y="168.6" class="st3" width="65.98" height="5.29"/>
</g>
<g>
	<rect x="61.58" y="158.83" class="st3" width="58.79" height="4.71"/>
</g>
<g>
	<g>
		<g>
			<path class="st3" d="M90.98,103.19c-0.47,0-0.85-0.38-0.85-0.85c0-0.47,0.38-0.85,0.85-0.85c0.47,0,0.85,0.38,0.85,0.85
				C91.83,102.81,91.45,103.19,90.98,103.19z"/>
			<path class="st3" d="M90.98,99.46c-1.58,0-2.87,1.29-2.87,2.88c0,1.58,1.29,2.87,2.87,2.87c1.58,0,2.87-1.29,2.87-2.87
				C93.85,100.75,92.56,99.46,90.98,99.46z M90.98,103.5c-0.65,0-1.17-0.52-1.17-1.16c0-0.65,0.52-1.17,1.17-1.17
				c0.64,0,1.17,0.52,1.17,1.17C92.15,102.98,91.62,103.5,90.98,103.5z"/>
		</g>
	</g>
	<g>
		<g>
			<path class="st3" d="M90.98,118.2c-0.47,0-0.85-0.38-0.85-0.85c0-0.47,0.38-0.85,0.85-0.85c0.47,0,0.85,0.38,0.85,0.85
				C91.83,117.82,91.45,118.2,90.98,118.2z"/>
			<path class="st3" d="M90.98,114.48c-1.58,0-2.87,1.29-2.87,2.87s1.29,2.87,2.87,2.87c1.58,0,2.87-1.29,2.87-2.87
				S92.56,114.48,90.98,114.48z M90.98,118.52c-0.65,0-1.17-0.52-1.17-1.17c0-0.64,0.52-1.17,1.17-1.17c0.64,0,1.17,0.53,1.17,1.17
				C92.15,118,91.62,118.52,90.98,118.52z"/>
		</g>
	</g>
	<g>
		<g>
			<path class="st3" d="M90.98,133.22c-0.47,0-0.85-0.38-0.85-0.85c0-0.47,0.38-0.85,0.85-0.85c0.47,0,0.85,0.38,0.85,0.85
				C91.83,132.84,91.45,133.22,90.98,133.22z"/>
			<path class="st3" d="M90.98,129.5c-1.58,0-2.87,1.28-2.87,2.87c0,1.58,1.29,2.87,2.87,2.87c1.58,0,2.87-1.29,2.87-2.87
				C93.85,130.78,92.56,129.5,90.98,129.5z M90.98,133.54c-0.65,0-1.17-0.53-1.17-1.17c0-0.65,0.52-1.17,1.17-1.17
				c0.64,0,1.17,0.52,1.17,1.17C92.15,133.01,91.62,133.54,90.98,133.54z"/>
		</g>
	</g>
	<g>
		<g>
			<path class="st3" d="M90.98,148.24c-0.47,0-0.85-0.38-0.85-0.85c0-0.47,0.38-0.85,0.85-0.85c0.47,0,0.85,0.38,0.85,0.85
				C91.83,147.86,91.45,148.24,90.98,148.24z"/>
			<path class="st3" d="M90.98,144.51c-1.58,0-2.87,1.29-2.87,2.87c0,1.59,1.29,2.88,2.87,2.88c1.58,0,2.87-1.29,2.87-2.88
				C93.85,145.8,92.56,144.51,90.98,144.51z M90.98,148.55c-0.65,0-1.17-0.52-1.17-1.17c0-0.64,0.52-1.16,1.17-1.16
				c0.64,0,1.17,0.52,1.17,1.16C92.15,148.03,91.62,148.55,90.98,148.55z"/>
		</g>
	</g>
</g>
</svg>
