<?xml version="1.0" encoding="utf-8"?>
<!-- Generator: Adobe Illustrator 25.2.1, SVG Export Plug-In . SVG Version: 6.00 Build 0)  -->
<svg version="1.1" id="Layer_1" xmlns="http://www.w3.org/2000/svg" xmlns:xlink="http://www.w3.org/1999/xlink" x="0px" y="0px"
	 viewBox="0 0 180 267.17" style="enable-background:new 0 0 180 267.17;" xml:space="preserve">
<style type="text/css">
	.st0{fill:#010101;}
	.st1{fill:#60C5BD;}
	.st2{fill:#F7AF4E;}
	.st3{fill:#EF573E;}
	.st4{fill:#FFFFFF;}
	.st5{fill:#FCE26C;}
	.st6{fill:#F15B44;}
	.st7{fill:none;stroke:#EF573E;stroke-width:2;stroke-linecap:round;stroke-miterlimit:10;}
	.st8{fill:none;stroke:#60C5BD;stroke-width:2;stroke-linecap:round;stroke-miterlimit:10;}
	.st9{fill:#1BA7A7;}
</style>
<g>
	<g>
		<g>
			<g>
				<path class="st0" d="M52.74,70.25c-4.26,0.07-8.54,0.36-12.8,0.14c-3.36-0.17-6.92-0.85-9.9-2.57
					c-8.98-5.2-12.33-17.05-12.98-26.89c-0.46-7.1-0.04-14.22-0.02-21.32c0.01-5.34-8.29-5.35-8.3,0
					c-0.03,13.66-1.32,27.64,4.42,40.46c2.4,5.36,6.08,10.29,10.86,13.73c3.87,2.79,8.43,4.11,13.11,4.66
					c5.18,0.61,10.41,0.18,15.61,0.09C58.08,78.46,58.09,70.16,52.74,70.25L52.74,70.25z"/>
			</g>
		</g>
		<g>
			<path class="st2" d="M24.23,17.43c0-2.29-2.14-4.15-4.77-4.15H6.73c-2.64,0-4.77,1.86-4.77,4.15l0,0c0,2.29,2.14,4.15,4.77,4.15
				h12.72C22.09,21.58,24.23,19.73,24.23,17.43L24.23,17.43z"/>
		</g>
		<g>
			<path class="st0" d="M13.09,15.77c-6.5,0-11.92-5.57-13.06-12.89C-0.2,1.37,0.94,0,2.46,0h0.05c1.25,0,2.25,0.94,2.44,2.17
				c0.78,4.91,4.13,8.62,8.13,8.62s7.36-3.71,8.13-8.62C21.42,0.94,22.42,0,23.67,0h0.05c1.53,0,2.67,1.37,2.43,2.88
				C25.01,10.21,19.59,15.77,13.09,15.77z"/>
		</g>
	</g>
	<g>
		<path class="st1" d="M48.79,62.41c0-2.29-1.86-4.15-4.15-4.15l0,0c-2.29,0-4.15,1.86-4.15,4.15v24.04c0,2.29,1.86,4.15,4.15,4.15
			l0,0c2.29,0,4.15-1.86,4.15-4.15V62.41z"/>
	</g>
</g>
<g>
	<g>
		<g>
			<polygon class="st3" points="78.01,256.18 63.87,256 64.5,148.96 78.64,149.14 			"/>
		</g>
	</g>
	<g>
		<g>
			<path class="st0" d="M86.71,150.54c-0.06,7.44-6.15,13.41-13.58,13.35l-3.37-0.03c-7.44-0.06-13.41-6.15-13.35-13.58l0.02-2.7
				c0.06-7.44,6.15-13.41,13.58-13.35l3.37,0.03c7.44,0.06,13.41,6.15,13.35,13.58L86.71,150.54z"/>
		</g>
	</g>
	<g>
		<g>
			<path class="st2" d="M89.77,259.28c-0.03,4.4-2.92,7.93-6.45,7.89L58.4,266.9c-3.53-0.04-6.37-3.63-6.34-8.03l0,0
				c0.03-4.4,2.92-7.93,6.45-7.89l24.91,0.27C86.96,251.29,89.8,254.89,89.77,259.28L89.77,259.28z"/>
		</g>
	</g>
	<g>
		<g>
			<rect x="106.79" y="149.03" class="st3" width="14.14" height="107.04"/>
		</g>
	</g>
	<g>
		<g>
			<path class="st0" d="M129.01,150.39c0,7.44-6.03,13.47-13.47,13.47h-3.37c-7.44,0-13.47-6.03-13.47-13.47l0-2.7
				c0-7.44,6.03-13.47,13.47-13.47l3.37,0c7.44,0,13.47,6.03,13.47,13.47V150.39z"/>
		</g>
	</g>
	<g>
		<g>
			<path class="st2" d="M132.72,259.06c0,4.4-2.86,7.96-6.4,7.96H101.4c-3.53,0-6.4-3.56-6.4-7.96l0,0c0-4.4,2.86-7.96,6.4-7.96
				l24.91,0C129.85,251.11,132.72,254.67,132.72,259.06L132.72,259.06z"/>
		</g>
	</g>
</g>
<g>
	<g>
		<path class="st0" d="M127.26,78.55c9.2,0.15,19.07,1.22,27.3-3.8c10.9-6.65,15.46-19.93,16.54-32.02
			c0.68-7.69,0.18-15.42,0.16-23.12c-0.01-5.34-8.31-5.35-8.3,0c0.02,11.85,1.53,24.51-3.07,35.76c-1.77,4.32-4.78,8.93-8.5,11.55
			c-2.92,2.05-6.52,3.08-9.68,3.36c-4.8,0.43-9.64,0.05-14.45-0.03C121.91,70.16,121.91,78.46,127.26,78.55L127.26,78.55z"/>
	</g>
</g>
<g>
	<path class="st2" d="M155.77,17.43c0-2.29,2.14-4.15,4.77-4.15h12.72c2.64,0,4.77,1.86,4.77,4.15l0,0c0,2.29-2.14,4.15-4.77,4.15
		h-12.72C157.91,21.58,155.77,19.73,155.77,17.43L155.77,17.43z"/>
</g>
<g>
	<path class="st0" d="M166.91,15.77c-6.5,0-11.92-5.57-13.06-12.89C153.61,1.37,154.76,0,156.28,0h0.05c1.25,0,2.25,0.94,2.44,2.17
		c0.78,4.91,4.13,8.62,8.13,8.62s7.36-3.71,8.13-8.62c0.19-1.23,1.2-2.17,2.44-2.17h0.05c1.53,0,2.67,1.37,2.43,2.88
		C178.83,10.21,173.4,15.77,166.91,15.77z"/>
</g>
<g>
	<g>
		<path class="st1" d="M103.16,20.28H77.99c-0.5,0-1,0.01-1.5,0.04c-16.3,0.7-29.27,12.86-29.27,27.75v78.97
			c0,7.78,3.53,14.81,9.23,19.85c2.34,2.08,5.05,3.82,8.03,5.13c4.08,1.81,8.67,2.82,13.51,2.82h25.17c1.23,0,2.44-0.06,3.63-0.2
			c5.23-0.55,10.05-2.29,14.14-4.92c2.82-1.79,5.29-4.01,7.29-6.55c3.59-4.55,5.7-10.12,5.7-16.13V48.07
			C133.92,32.72,120.15,20.28,103.16,20.28z M106.36,26.58c3.44,0.22,6.95,1.08,10.14,2.78c3.19,1.67,5.98,4.21,7.86,7.22
			c1.89,3,3.01,6.35,3.25,9.77c-2.17-2.67-4.13-5.19-6.32-7.33c-2.15-2.17-4.54-3.88-7.14-5.27c-2.6-1.39-5.45-2.43-8.46-3.33
			c-3.02-0.92-6.18-1.65-9.46-2.7C99.51,26.71,102.92,26.37,106.36,26.58z"/>
	</g>
</g>
<g>
	<g>
		<path class="st0" d="M94.2,17.72c0,2.44-1.98,4.42-4.42,4.42l0,0c-2.44,0-4.42-1.98-4.42-4.42V8.56c0-2.44,1.98-4.42,4.42-4.42
			l0,0c2.44,0,4.42,1.98,4.42,4.42V17.72z"/>
	</g>
	<g>
		<path class="st2" d="M103.67,18.2c0,2.18-1.77,3.95-3.95,3.95h-19.9c-2.18,0-3.95-1.77-3.95-3.95l0,0c0-2.18,1.77-3.95,3.95-3.95
			h19.9C101.91,14.25,103.67,16.01,103.67,18.2L103.67,18.2z"/>
	</g>
</g>
<g>
	<g>
		<path class="st2" d="M112.2,109.96c0,2.79-2.26,5.05-5.05,5.05H72.4c-2.79,0-5.05-2.26-5.05-5.05V63.21
			c0-2.79,2.26-5.05,5.05-5.05h34.75c2.79,0,5.05,2.26,5.05,5.05V109.96z"/>
	</g>
	<g>
		<g>
			<g>
				<circle class="st0" cx="79.67" cy="74.42" r="3.79"/>
			</g>
			<g>
				<circle class="st0" cx="99.88" cy="74.42" r="3.79"/>
			</g>
		</g>
		<g>
			<path class="st0" d="M96.09,86.15H83.45c-0.46,0-0.83-0.37-0.83-0.83s0.37-0.83,0.83-0.83h12.64c0.46,0,0.83,0.37,0.83,0.83
				S96.55,86.15,96.09,86.15z"/>
		</g>
	</g>
</g>
<g>
	<path class="st1" d="M131.21,62.41c0-2.29,1.86-4.15,4.15-4.15l0,0c2.29,0,4.15,1.86,4.15,4.15v24.04c0,2.29-1.86,4.15-4.15,4.15
		l0,0c-2.29,0-4.15-1.86-4.15-4.15V62.41z"/>
</g>
<g>
	<path class="st3" d="M133.12,99.06c0,2.7-2.19,4.9-4.9,4.9H51.32c-2.7,0-4.9-2.19-4.9-4.9l0,0c0-2.7,2.19-4.9,4.9-4.9h76.91
		C130.93,94.17,133.12,96.36,133.12,99.06L133.12,99.06z"/>
</g>
</svg>
