<?xml version="1.0" encoding="utf-8"?>
<!-- Generator: Adobe Illustrator 17.0.0, SVG Export Plug-In . SVG Version: 6.00 Build 0)  -->
<!DOCTYPE svg PUBLIC "-//W3C//DTD SVG 1.1//EN" "http://www.w3.org/Graphics/SVG/1.1/DTD/svg11.dtd">
<svg version="1.1" id="Layer_1" xmlns="http://www.w3.org/2000/svg" xmlns:xlink="http://www.w3.org/1999/xlink" x="0px" y="0px"
	 width="111.071px" height="180px" viewBox="44.465 10 111.071 180" enable-background="new 44.465 10 111.071 180"
	 xml:space="preserve">
<path fill="#ED1C24" d="M113.357,85.441l-5.989-3.261c-13.632-7.332-27.729-14.91-27.729-26.213
	c0-13.523,11.683-19.683,22.538-19.683c9.008,0,18.066,3.457,26.919,10.274l9.886,7.618l15.036-21.188l-8.705-7.091
	C138.026,19.96,122.884,10,103.377,10C77.86,10,50.739,26.362,50.739,56.687c0,27.833,22.008,39.497,43.303,50.782l0.295,0.155
	c1.653,0.87,3.303,1.746,4.967,2.658c14.954,8.124,27.332,15.825,27.332,27.8c0,15.332-11.643,25.635-28.971,25.635
	c-12.387,0-21.952-6.076-28.07-10.649l-9.833-7.337l-15.297,21.476l9.149,7.056C59.751,178.995,76.234,190,96.705,190
	c38.623,0,58.831-26.117,58.831-51.918C155.536,111.099,134.704,97.283,113.357,85.441z M96.705,187.6
	c-19.731,0-35.682-10.656-41.626-15.239l-7.319-5.644l12.532-17.594l7.867,5.87c6.393,4.777,16.408,11.125,29.506,11.125
	c18.764,0,31.372-11.266,31.372-28.035c0-13.298-12.946-21.413-28.586-29.91c-1.669-0.914-3.331-1.796-4.995-2.672l-0.3-0.157
	C74.496,94.395,53.14,83.078,53.14,56.688c0-28.764,25.884-44.286,50.238-44.286c18.764,0,33.379,9.622,40.421,15.358l6.963,5.673
	l-12.291,17.32l-7.909-6.095c-9.285-7.149-18.834-10.773-28.384-10.773c-12.011,0-24.938,6.91-24.938,22.083
	c0,12.74,14.744,20.665,29.003,28.333c1.052,0.572,4.366,2.372,5.962,3.247c20.717,11.493,40.932,24.859,40.932,50.535
	C153.136,162.689,133.751,187.6,96.705,187.6z"/>
<path fill="#F26649" d="M111.05,89.651c-1.595-0.874-4.904-2.672-5.935-3.232C90.23,78.416,74.838,70.144,74.838,55.967
	c0-16.821,14.171-24.484,27.339-24.484c10.091,0,20.134,3.793,29.849,11.273l5.932,4.571l9.546-13.453l-5.221-4.254
	c-6.794-5.534-20.882-14.819-38.905-14.819c-23.191,0-47.837,14.681-47.837,41.886c0,24.943,20.706,35.918,40.731,46.529
	l0.304,0.159c1.676,0.884,3.35,1.77,5.022,2.686c16.326,8.87,29.84,17.4,29.84,32.02c0,18.204-13.572,30.435-33.772,30.435
	c-13.809,0-24.273-6.62-30.942-11.601l-5.9-4.402l-9.768,13.713l5.49,4.233c5.749,4.433,21.167,14.739,40.16,14.739
	c35.471,0,54.03-23.703,54.03-47.118C150.735,113.708,131.135,100.795,111.05,89.651z M96.705,182.799
	c-18.248,0-33.139-9.958-38.693-14.24l-3.66-2.822l7.003-9.831l3.933,2.935c6.944,5.185,17.855,12.077,32.377,12.077
	c21.636,0,36.172-13.195,36.172-32.836c0-15.94-14.082-24.887-31.094-34.129c-1.677-0.919-3.363-1.812-5.051-2.7l-0.297-0.157
	C77.102,90.34,57.94,80.183,57.94,56.687c0-25.646,23.41-39.486,45.437-39.486c17.282,0,30.843,8.947,37.389,14.28l3.481,2.836
	l-6.801,9.585l-3.954-3.047c-10.144-7.81-20.68-11.772-31.314-11.772c-14.323,0-29.739,8.413-29.739,26.884
	c0,15.609,16.035,24.23,31.54,32.566c0.008,0.005,4.089,2.22,5.918,3.223c19.456,10.794,38.439,23.26,38.439,46.326
	C148.335,160.303,130.6,182.799,96.705,182.799z"/>
<path fill="#FAB49B" d="M96.705,177.999c-16.775,0-30.579-9.245-35.762-13.242l1.473-2.067c8.525,6.364,20.023,13.028,35.249,13.028
	c24.507,0,40.973-15.124,40.973-37.636c0-18.579-15.221-28.361-33.602-38.349c-1.687-0.924-3.394-1.826-5.104-2.728l-0.304-0.159
	C79.834,86.356,62.74,77.298,62.74,56.687c0-22.529,20.937-34.685,40.637-34.685c15.856,0,28.416,8.361,34.356,13.202l-1.313,1.849
	c-11.008-8.476-22.517-12.77-34.243-12.77c-16.636,0-34.54,9.915-34.54,31.685c0,18.476,17.323,27.791,34.067,36.795l0.394,0.213
	c1.815,0.985,3.668,1.992,5.491,2.991c18.188,10.091,35.945,21.654,35.945,42.116C143.534,157.917,127.448,177.999,96.705,177.999z"
	/>
</svg>
