<?xml version="1.0" encoding="utf-8"?>
<!-- Generator: Adobe Illustrator 23.0.1, SVG Export Plug-In . SVG Version: 6.00 Build 0)  -->
<svg version="1.1" id="Layer_1" xmlns="http://www.w3.org/2000/svg" xmlns:xlink="http://www.w3.org/1999/xlink" x="0px" y="0px"
	 viewBox="0 0 180 295.4" style="enable-background:new 0 0 180 295.4;" xml:space="preserve">
<style type="text/css">
	.st0{fill:#2C2B7E;}
	.st1{fill:#00A19F;}
	.st2{fill:#FFD400;}
	.st3{fill:#8E278B;}
	.st4{fill:#EE276C;}
	.st5{fill:#DB2F25;}
	.st6{fill:#A5D1F0;}
	.st7{fill:#F36E21;}
	.st8{fill:#FAA819;}
	.st9{fill:#ED2577;}
	.st10{fill:#F1F2F2;}
	.st11{fill:#59ABB0;}
	.st12{fill:#E2E3E4;}
	.st13{fill:#EFEFF0;}
</style>
<g>
	<path d="M89.81,295.4c-17.73,0-35.06-5.26-50.09-15.39C19.79,266.58,6.28,246.19,1.69,222.6c-4.6-23.59,0.27-47.56,13.7-67.49
		c13.43-19.93,33.82-33.44,57.41-38.03c23.59-4.6,47.56,0.27,67.49,13.7c19.93,13.43,33.44,33.82,38.03,57.41
		s-0.27,47.56-13.7,67.49c-13.43,19.93-33.82,33.44-57.41,38.03C101.41,294.84,95.59,295.4,89.81,295.4z M18.47,157.19
		C5.59,176.3,0.93,199.27,5.33,221.89c4.4,22.62,17.35,42.16,36.46,55.04c19.11,12.88,42.08,17.54,64.7,13.14
		c22.61-4.4,42.16-17.35,55.04-36.46c12.88-19.11,17.54-42.08,13.14-64.7c-4.4-22.62-17.35-42.16-36.46-55.04
		c-19.11-12.88-42.09-17.54-64.7-13.14C50.89,125.14,31.35,138.08,18.47,157.19L18.47,157.19z"/>
</g>
<g>
	<path class="st1" d="M149.03,245.24c-0.75,1.18-1.54,2.34-2.37,3.47c-12.79,17.52-34.1,28.51-55.79,28.77
		c-37.88,0.46-71.02-31.46-72.77-69.15c-0.7-15.19,3.67-30.58,12.26-43.13c10.34,3.76,20.16,8.97,29.07,15.42
		c4.69,3.4,9.63,7.32,15.42,7.3c6.02-0.02,11.12-4.32,16.9-6.02c10.94-3.22,22.2,3.14,33.53,4.5c7.22,0.86,14.68-0.38,21.23-3.54
		c2.11-1.02,4.47-2.27,6.68-1.47c2.17,0.79,3.2,3.22,3.88,5.43C163.02,206.21,159.93,228.15,149.03,245.24z"/>
</g>
<g>
	<path d="M73.83,119.15h-3.71V83.97H54.21c-5.15,0-9.35-4.19-9.35-9.35v-0.86c0-5.15,4.19-9.35,9.35-9.35h68.92
		c5.15,0,9.35,4.19,9.35,9.35s-4.19,9.35-9.35,9.35h-17.62v35.35h-3.71V79.4h21.33c3.11,0,5.63-2.53,5.63-5.63s-2.53-5.63-5.63-5.63
		H54.21c-3.11,0-5.63,2.53-5.63,5.63v0.86c0,3.11,2.53,5.63,5.63,5.63h19.62V119.15z"/>
</g>
<g>
	<circle class="st5" cx="103.97" cy="41.77" r="6.53"/>
</g>
<g>
	<circle class="st5" cx="63.02" cy="17.55" r="5.21"/>
</g>
<g>
	<circle class="st5" cx="102.47" cy="17.55" r="3.71"/>
</g>
<g>
	<circle class="st5" cx="82.21" cy="91.46" r="3.71"/>
</g>
<g>
	<circle class="st5" cx="74.79" cy="168.12" r="4.67"/>
</g>
<g>
	<circle class="st5" cx="101.05" cy="149.43" r="2.57"/>
</g>
<g>
	<circle class="st6" cx="103.15" cy="256.46" r="4.67"/>
</g>
<g>
	<circle class="st6" cx="129.4" cy="237.77" r="2.57"/>
</g>
<g>
	<circle class="st6" cx="102.76" cy="225.77" r="2.57"/>
</g>
<g>
	<circle class="st6" cx="120.88" cy="202.27" r="2.57"/>
</g>
<g>
	<circle class="st6" cx="89.05" cy="197.23" r="2.57"/>
</g>
<g>
	<circle class="st5" cx="83.64" cy="3.71" r="3.71"/>
</g>
<g>
	<circle class="st5" cx="77.36" cy="49.37" r="2.64"/>
</g>
</svg>
