<?xml version="1.0" encoding="utf-8"?>
<!-- Generator: Adobe Illustrator 23.0.1, SVG Export Plug-In . SVG Version: 6.00 Build 0)  -->
<svg version="1.1" id="Layer_1" xmlns="http://www.w3.org/2000/svg" xmlns:xlink="http://www.w3.org/1999/xlink" x="0px" y="0px"
	 viewBox="0 0 180 455.9" style="enable-background:new 0 0 180 455.9;" xml:space="preserve">
<style type="text/css">
	.st0{fill:#2C2B7E;}
	.st1{fill:#00A19F;}
	.st2{fill:#FFD400;}
	.st3{fill:#8E278B;}
	.st4{fill:#EE276C;}
	.st5{fill:#DB2F25;}
	.st6{fill:#A5D1F0;}
	.st7{fill:#F36E21;}
	.st8{fill:#FAA819;}
	.st9{fill:#ED2577;}
	.st10{fill:#F1F2F2;}
	.st11{fill:#59ABB0;}
	.st12{fill:#E2E3E4;}
	.st13{fill:#EFEFF0;}
</style>
<g>
	<g>
		<path d="M91.11,455.9c-19.34,0-34.5-5.7-45.07-16.95c-17.32-18.43-15.88-44.87-15.81-45.99L30.23,54.57h-2.94
			C12.24,54.57,0,42.33,0,27.29C0,12.24,12.24,0,27.29,0h125.43C167.76,0,180,12.24,180,27.29c0,15.04-12.24,27.28-27.28,27.28
			h-2.45l-0.13,316.18c0.12,1.62,2.79,44.88-19.97,69.24C120.3,450.54,107.16,455.9,91.11,455.9z M27.29,6.04
			c-11.72,0-21.25,9.53-21.25,21.25s9.53,21.25,21.25,21.25h8.98v344.61c-0.02,0.43-1.32,25.2,14.21,41.7
			c9.38,9.96,23.05,15.01,40.64,15.01c14.31,0,25.96-4.71,34.63-13.99c20.99-22.47,18.38-64.49,18.35-64.92l0.13-322.42h8.49
			c11.71,0,21.25-9.53,21.25-21.25s-9.53-21.25-21.25-21.25H27.29z"/>
	</g>
</g>
<g>
	<path class="st2" d="M49.15,138.91v244.94c0,0-2.68,42.83,41.49,42.83s40.15-58.89,40.15-58.89l0.1-228.88H49.15z"/>
</g>
<g>
	<g>
		<path d="M149.43,29.46h-41.42c-2.31,0-4.19-1.88-4.19-4.19s1.88-4.19,4.19-4.19h41.42c2.31,0,4.19,1.88,4.19,4.19
			S151.75,29.46,149.43,29.46z"/>
	</g>
</g>
<g>
	<g>
		<g>
			<path d="M91.05,32.1c8.99,0,9.01-13.97,0-13.97C82.06,18.13,82.05,32.1,91.05,32.1L91.05,32.1z"/>
		</g>
	</g>
</g>
<g>
	<circle class="st4" cx="64.29" cy="375.55" r="7.34"/>
</g>
<g>
	<circle class="st4" cx="114.69" cy="388.12" r="5.23"/>
</g>
<g>
	<circle class="st4" cx="76.87" cy="327.22" r="5.23"/>
</g>
<g>
	<circle class="st4" cx="95.23" cy="292.22" r="5.23"/>
</g>
<g>
	<circle class="st4" cx="93.37" cy="356.03" r="5.23"/>
</g>
</svg>
