<?xml version="1.0" encoding="utf-8"?>
<!-- Generator: Adobe Illustrator 23.0.1, SVG Export Plug-In . SVG Version: 6.00 Build 0)  -->
<svg version="1.1" id="Layer_1" xmlns="http://www.w3.org/2000/svg" xmlns:xlink="http://www.w3.org/1999/xlink" x="0px" y="0px"
	 viewBox="0 0 180 118.85" style="enable-background:new 0 0 180 118.85;" xml:space="preserve">
<style type="text/css">
	.st0{fill:#2C2B7E;}
	.st1{fill:#00A19F;}
	.st2{fill:#FFD400;}
	.st3{fill:#8E278B;}
	.st4{fill:#EE276C;}
	.st5{fill:#DB2F25;}
	.st6{fill:#A5D1F0;}
	.st7{fill:#F36E21;}
	.st8{fill:#FAA819;}
	.st9{fill:#ED2577;}
	.st10{fill:#F1F2F2;}
	.st11{fill:#59ABB0;}
	.st12{fill:#E2E3E4;}
	.st13{fill:#EFEFF0;}
</style>
<g>
	<path class="st4" d="M52.69,16.24c-0.01-0.5-0.05-0.95-0.11-1.36c-0.26-1.87-0.94-3.25-2-4.1c-1.08-0.87-2.54-1.17-4.34-0.92
		c-2.43,0.34-4.84,1.53-7.17,3.54c-2.38,2.06-3.66,4.13-3.8,6.25c0.09,6,0.8,14.55,2.11,25.39c0.44,3.5,0.58,4.96,0.62,5.57
		c-6.08,0.85-12.18,1.73-18.42,2.64l-0.05-0.27c-0.24-1.68-0.53-4.88-0.86-9.5c-0.33-4.51-0.62-9.13-0.87-13.73
		c-0.24-4.48-0.36-7.7-0.34-9.66l-0.05-0.63c-0.05-0.39-0.17-0.78-0.39-1.21c-1.26-2.06-3.37-2.9-6.27-2.5
		C9,15.98,7.26,16.63,5.56,17.68c-1.7,1.04-3.1,2.33-4.16,3.84c-1.12,1.59-1.57,3.26-1.34,4.93c2.12,22.19,3.96,38.87,5.45,49.57
		c0.88,6.33,1.96,12.75,3.21,19.07c0.97,4.87,1.64,6.14,2.14,6.73c0.75,0.79,2,1.18,3.79,1.18c0.71,0,1.51-0.06,2.4-0.19
		c2.82-0.47,4.71-1.05,5.77-1.76c1.14-0.76,1.85-1.75,2.11-2.95c0.23-1.08,0.23-2.44,0.01-4.05c-0.14-1.01-0.34-2.13-0.58-3.33
		c-0.65-4.64-1.68-12.98-3.07-24.74c-0.02-0.48-0.09-1.16-0.21-2.04c4.63-0.66,8.91-1.32,12.72-1.97l5.44-0.88
		c0.07-0.01,0.13-0.01,0.17-0.01l0.28,2.03c0.15,1.05,0.33,2.2,0.56,3.41l1.07,7.96c1.35,9.66,2.82,16.48,4.39,20.32
		c1.22,2.5,3.77,3.5,7.57,2.97c1.6-0.22,3.08-0.75,4.38-1.56c1.45-0.9,2.23-2.28,2.32-4.14c-0.05-5.72-1.31-19.07-3.75-39.66
		C54.05,33.45,52.85,21.28,52.69,16.24z"/>
	<path class="st4" d="M115.66,99.53c-4.1-1.7-8.66-1.58-13.57,0.36c-0.77,0.31-1.53,0.65-2.23,1.01l-1.34,0.66
		c0.5-1.43,0.93-2.89,1.29-4.34l0.66-2.4c0.78-2.71,1.48-5.61,2.07-8.61c2.41-9.94,3.62-17.74,3.58-23.2
		c-0.02-4.1-0.72-7.94-2.1-11.43c-2.67-6.75-7.53-11.1-14.47-12.93c-3.13-0.79-6.31-0.56-9.46,0.68c-3.05,1.2-5.68,3.14-7.82,5.76
		c-2.15,2.63-3.48,5.57-3.95,8.76c-0.5,3.79-0.02,7.56,1.43,11.22c0.5,1.27,1.11,2.52,1.79,3.68c0.96,1.81,2.41,3.1,4.36,3.86
		c1.29,0.42,2.9,0.25,4.79-0.49c1.18-0.47,2.09-1.11,2.77-1.99c0.81-1.37,0.95-2.74,0.43-4.05c-0.24-0.62-0.65-1.23-1.19-1.83
		l-0.16-0.14c-0.22-0.14-0.37-0.31-0.45-0.52l-0.69-1.65c-0.88-2.23-1.35-4.18-1.39-5.79c-0.04-1.55,0.2-2.81,0.72-3.74
		c0.51-0.9,1.15-1.49,1.95-1.81c0.83-0.33,1.74-0.34,2.79-0.03c1.08,0.32,2.15,1.01,3.18,2.03c1.05,1.05,1.95,2.5,2.66,4.31
		c0.65,1.66,1.11,3.66,1.35,5.94c0.31,4.07,0.04,8.15-0.84,12.18c-0.59,3.27-1.32,6.76-2.17,10.37c-1.76,8.3-3.79,15.3-6.02,20.8
		c-0.3,0.73-0.62,1.62-0.97,2.64c-0.98,2.81-1.14,4.99-0.47,6.67c0.38,0.97,1.1,1.73,2.12,2.28c0.92,0.49,1.88,0.81,2.83,0.97
		c0.28,0.04,0.56,0.07,0.85,0.07c0.74,0,1.51-0.15,2.3-0.47c1.37-0.68,2.43-1.25,3.19-1.74c3.57-2.65,7.44-4.89,11.48-6.65
		c1.02-0.4,2.06-0.74,3.1-1.01c0.94-0.23,1.94-0.24,2.98-0.01c1.33,0.28,2.53,0.22,3.56-0.18c1.62-0.64,2.75-1.98,3.39-4.04
		c0.2-0.92,0.12-1.87-0.26-2.83C117.33,100.87,116.66,100.09,115.66,99.53z"/>
	<path class="st4" d="M176.88,21.9c-2.09-5.97-5.36-10.97-9.72-14.86c-4.39-3.92-10.07-6.23-16.87-6.89
		c-4.16-0.39-7.87-0.02-10.99,1.17c-5.89,2.35-10.88,6.02-14.84,10.93c-3.92,4.87-6.92,10.56-8.9,16.9
		c-1.97,6.32-2.97,12.83-2.97,19.34c0,6.31,0.95,12.41,2.82,18.12c1.88,5.75,4.76,10.7,8.55,14.73c3.83,4.06,8.69,6.8,14.47,8.14
		c2.2,0.47,4.4,0.71,6.55,0.71c2.99,0,5.98-0.51,8.89-1.51c5.57-2.09,10.36-5.66,14.24-10.61c3.85-4.91,6.82-10.72,8.84-17.26
		c2.01-6.53,3.03-13.25,3.03-19.99C180,34.19,178.95,27.83,176.88,21.9z M163.1,44.49c0,6.62-0.82,12.96-2.44,18.83
		c-1.6,5.78-4.04,10.11-7.17,12.82c-3.07,2-5.84,3.02-8.23,3.02c-4.43,0-7.82-2.96-10.34-9.06c-2.38-5.68-3.58-12.87-3.58-21.38
		c0-3.68,0.25-7.42,0.74-11.11c0.49-3.68,1.23-7.19,2.2-10.44c0.96-3.23,2.17-6.13,3.59-8.64c1.4-2.46,3.03-4.43,4.86-5.84
		c1.76-1.36,3.75-2.05,5.91-2.05c0.59,0,1.21,0.06,1.72,0.14c2.72,0.97,5.04,3.11,6.9,6.35c1.92,3.34,3.39,7.47,4.36,12.26
		C162.6,34.21,163.1,39.29,163.1,44.49z"/>
</g>
</svg>
