<?xml version="1.0" encoding="utf-8"?>
<!-- Generator: Adobe Illustrator 23.0.1, SVG Export Plug-In . SVG Version: 6.00 Build 0)  -->
<svg version="1.1" id="Layer_1" xmlns="http://www.w3.org/2000/svg" xmlns:xlink="http://www.w3.org/1999/xlink" x="0px" y="0px"
	 viewBox="0 0 180 138.31" style="enable-background:new 0 0 180 138.31;" xml:space="preserve">
<style type="text/css">
	.st0{fill:#2C2B7E;}
	.st1{fill:#00A19F;}
	.st2{fill:#FFD400;}
	.st3{fill:#8E278B;}
	.st4{fill:#EE276C;}
	.st5{fill:#DB2F25;}
	.st6{fill:#A5D1F0;}
	.st7{fill:#F36E21;}
	.st8{fill:#FAA819;}
	.st9{fill:#ED2577;}
	.st10{fill:#F1F2F2;}
	.st11{fill:#59ABB0;}
	.st12{fill:#E2E3E4;}
	.st13{fill:#EFEFF0;}
</style>
<g>
	<circle class="st10" cx="52.04" cy="27.37" r="9.99"/>
</g>
<path class="st11" d="M118.27,90.45v10.23L97.85,88.3l-1.29-0.78c1.72-2.18,3.26-4.5,4.62-6.94l1.3,0.75L118.27,90.45z"/>
<g>
	<path d="M54.71,0C24.54,0,0,24.54,0,54.71c0,30.16,24.54,54.71,54.71,54.71c17.51,0,33.13-8.27,43.15-21.12
		c1.72-2.2,3.26-4.52,4.64-6.97c4.41-7.88,6.92-16.96,6.92-26.62C109.41,24.54,84.87,0,54.71,0z M101.19,80.58
		c-1.36,2.44-2.9,4.76-4.62,6.94c-9.75,12.41-24.89,20.4-41.86,20.4c-29.34,0-53.21-23.87-53.21-53.21
		C1.5,25.38,25.36,1.5,54.71,1.5c29.34,0,53.21,23.88,53.21,53.21C107.92,64.1,105.48,72.92,101.19,80.58z"/>
</g>
<circle class="st12" cx="54.7" cy="54.71" r="41.19"/>
<path d="M54.7,96.65c-23.13,0-41.94-18.81-41.94-41.94c0-23.13,18.81-41.94,41.94-41.94s41.94,18.81,41.94,41.94
	C96.64,77.84,77.83,96.65,54.7,96.65z M54.7,14.27c-22.3,0-40.45,18.14-40.45,40.45S32.4,95.16,54.7,95.16s40.45-18.14,40.45-40.45
	S77,14.27,54.7,14.27z"/>
<ellipse transform="matrix(0.568 -0.823 0.823 0.568 -28.7552 169.7467)" class="st4" cx="147.32" cy="112.26" rx="18" ry="37.7"/>
</svg>
