<?xml version="1.0" encoding="utf-8"?>
<!-- Generator: Adobe Illustrator 23.0.1, SVG Export Plug-In . SVG Version: 6.00 Build 0)  -->
<svg version="1.1" id="Layer_1" xmlns="http://www.w3.org/2000/svg" xmlns:xlink="http://www.w3.org/1999/xlink" x="0px" y="0px"
	 viewBox="0 0 180 110.72" style="enable-background:new 0 0 180 110.72;" xml:space="preserve">
<style type="text/css">
	.st0{fill:#2C2B7E;}
	.st1{fill:#00A19F;}
	.st2{fill:#FFD400;}
	.st3{fill:#8E278B;}
	.st4{fill:#EE276C;}
	.st5{fill:#DB2F25;}
	.st6{fill:#A5D1F0;}
	.st7{fill:#F36E21;}
	.st8{fill:#FAA819;}
	.st9{fill:#ED2577;}
	.st10{fill:#F1F2F2;}
	.st11{fill:#59ABB0;}
	.st12{fill:#E2E3E4;}
	.st13{fill:#EFEFF0;}
</style>
<path class="st7" d="M100.74,32.93c-13.68,2.24-26.9-4.37-40.57-3.31c-4.4,0.34-9.28,1.92-11.12,5.93
	c-2.43,5.26,1.52,12.24-1.84,16.96c-1.11,1.56-3.01,2.97-2.66,4.85c0.22,1.17,1.28,1.98,2.33,2.55c8.62,4.75,18.84,1.5,27.97,4.14
	c6.26,1.81,12.17,6.34,18.58,5.16c3.5-0.65,6.44-2.93,9.46-4.82c6.85-4.3,15.04-6.88,23.07-5.87c3.63,0.46,7.33,1.63,10.87,0.69
	c4.6-1.22,7.53-5.58,10.05-9.61c1.84-2.95,3.71-6.65,2.04-9.69c-0.93-1.7-2.78-2.7-4.6-3.38c-4.53-1.68-9.58-1.92-14.25-0.7
	c-1.76,0.46-3.51,1.13-5.33,1.06c-3.01-0.11-5.55-2.21-7.65-4.37c-2.1-2.16-4.12-4.58-6.92-5.69c-5.31-2.1-9.14,2.71-9.72,7.51"/>
<path class="st8" d="M99.18,38.84C91,40.17,83.1,36.22,74.92,36.85c-2.63,0.2-5.55,1.15-6.65,3.55c-1.45,3.15,0.91,7.32-1.1,10.15
	c-0.66,0.93-1.8,1.78-1.59,2.9c0.13,0.7,0.77,1.18,1.39,1.53c5.16,2.84,11.27,0.9,16.73,2.48c3.75,1.08,7.28,3.79,11.12,3.08
	c2.1-0.39,3.85-1.75,5.66-2.88c4.1-2.57,9-4.12,13.8-3.51c2.17,0.27,4.39,0.97,6.5,0.41c2.75-0.73,4.51-3.34,6.01-5.75
	c1.1-1.76,2.22-3.98,1.22-5.8c-0.56-1.02-1.66-1.62-2.75-2.02c-2.71-1-5.73-1.15-8.52-0.42c-1.05,0.28-2.1,0.68-3.19,0.64
	c-1.8-0.07-3.32-1.32-4.58-2.62c-1.25-1.29-2.46-2.74-4.14-3.4c-3.17-1.26-5.47,1.62-5.82,4.49"/>
<path class="st9" d="M90.73,43.73c-4.62,0.76-9.09-1.48-13.71-1.12c-1.49,0.12-3.14,0.65-3.76,2c-0.82,1.78,0.51,4.14-0.62,5.73
	c-0.37,0.53-1.02,1.01-0.9,1.64c0.07,0.4,0.43,0.67,0.79,0.86c2.91,1.61,6.37,0.51,9.45,1.4c2.12,0.61,4.11,2.14,6.28,1.74
	c1.18-0.22,2.18-0.99,3.2-1.63c2.32-1.45,5.08-2.33,7.8-1.98c1.23,0.15,2.48,0.55,3.67,0.23c1.55-0.41,2.55-1.89,3.4-3.25
	c0.62-1,1.25-2.25,0.69-3.28c-0.32-0.58-0.94-0.91-1.55-1.14c-1.53-0.57-3.24-0.65-4.82-0.24c-0.6,0.16-1.19,0.38-1.8,0.36
	c-1.02-0.04-1.88-0.75-2.59-1.48c-0.71-0.73-1.39-1.55-2.34-1.92c-1.79-0.71-3.09,0.91-3.29,2.54"/>
<g>
	<path d="M93.29,110.72c-15.49,0-30.84-2.44-44.2-7.11C28.79,96.52,13.94,84.5,6.14,68.84C3.1,62.72,1.18,56.69,0.43,50.93
		c-0.81-6.2-0.34-12.63,0.28-18.65c0.02-0.19,0.06-0.43,0.1-0.7c0.08-0.55,0.3-2.01,0.09-2.38l0.58-0.47l-0.11-0.05
		C1.93,27.4,16.05-2.73,97.39,0.2c42.57,1.53,62.71,13.74,72.1,23.72c7.43,7.89,9.55,15.57,10.14,19.43l0.37-0.32l-0.13,2.9
		l-0.02,2.25l-0.11-0.07c-3.16,41.6-41.96,59.49-74.69,62.14C101.14,110.56,97.21,110.72,93.29,110.72z M3.28,32.05
		c-0.03,0.19-0.05,0.36-0.07,0.5C2.6,38.41,2.15,44.66,2.92,50.61c0.71,5.48,2.55,11.24,5.47,17.11
		c15.8,31.77,59.84,42.99,96.45,40.02c31.52-2.56,68.85-19.58,72.32-59.06c-6.44,5.02-26.05,19.09-51.96,26.2
		c-29.36,8.06-73.02,8.63-114.33-34.4l-1.09-1.13l0.01,0C7.59,37.01,5.4,34.56,3.28,32.05z M13.79,39.88
		C46.01,72.83,83.26,83.8,124.54,72.46c26.79-7.35,46.69-22.24,51.9-26.41c-5.4-3.18-24.96-13.98-51.38-20.37
		C96.77,18.85,54.63,15.83,13.79,39.88z M85.15,18.29c15.14,0,29,2.17,40.58,4.98c25.75,6.24,45.08,16.62,51.37,20.26
		c-0.61-3.59-2.66-10.76-9.59-18.05c-9.1-9.56-28.66-21.27-70.21-22.77C24.52,0.08,6.65,24.61,4.04,29.02l7.98,8.99
		C37.03,23.14,62.52,18.29,85.15,18.29z"/>
</g>
</svg>
