<?xml version="1.0" encoding="utf-8"?>
<!-- Generator: Adobe Illustrator 23.0.1, SVG Export Plug-In . SVG Version: 6.00 Build 0)  -->
<svg version="1.1" id="Layer_1" xmlns="http://www.w3.org/2000/svg" xmlns:xlink="http://www.w3.org/1999/xlink" x="0px" y="0px"
	 viewBox="0 0 180 173.81" style="enable-background:new 0 0 180 173.81;" xml:space="preserve">
<style type="text/css">
	.st0{fill:#2C2B7E;}
	.st1{fill:#00A19F;}
	.st2{fill:#FFD400;}
	.st3{fill:#8E278B;}
	.st4{fill:#EE276C;}
	.st5{fill:#DB2F25;}
	.st6{fill:#A5D1F0;}
	.st7{fill:#F36E21;}
	.st8{fill:#FAA819;}
	.st9{fill:#ED2577;}
	.st10{fill:#F1F2F2;}
	.st11{fill:#59ABB0;}
	.st12{fill:#E2E3E4;}
	.st13{fill:#EFEFF0;}
</style>
<path class="st4" d="M179.31,65.1l-12.58-10.73c-0.82-0.7-2.05-0.61-2.75,0.2c-0.83,0.96-8.49,9.34-20.36,9.34c0,0,0,0,0,0
	c-4.37,0-8.87-1.14-13.37-3.38c-3.94-1.96-7.4-3.63-10.58-5.07c-0.76-1.81-1.53-3.63-2.3-5.44c-8.48-19.88,6.24-32,7.95-33.31
	c0.86-0.66,1.02-1.89,0.36-2.74l-5-6.57l-4.96-6.61c-0.65-0.87-1.88-1.04-2.75-0.39c-8.87,6.65-22.08,23.68-17.76,46.56
	c-3.95-0.81-7.63-1.21-11.15-1.21c-11.52,0-20.91,4.25-28.7,12.99c-12.42,13.93-11.71,28.74-8.62,41.78
	c-4.78-1.14-9.18-1.71-13.34-1.71c-12.41,0-23.16,4.95-32.87,15.14c-0.36,0.38-0.55,0.88-0.54,1.4c0.01,0.52,0.23,1.02,0.61,1.37
	l11.97,11.4c0.38,0.36,0.87,0.54,1.35,0.54c0.52,0,1.04-0.2,1.42-0.61c5.78-6.06,11.4-8.76,18.23-8.76c5.78,0,12.05,1.87,20.16,4.91
	c1.18,4.28,2.01,8.1,2.3,11.61l-14.01-14.75c-0.75-0.79-1.99-0.82-2.78-0.07l-4.79,4.55c-0.38,0.36-0.6,0.85-0.61,1.37
	c-0.01,0.52,0.18,1.02,0.54,1.4l14.27,15.02c0.39,0.41,0.9,0.61,1.42,0.61c0.49,0,0.97-0.18,1.35-0.54l4.71-4.48
	c-0.11,7.04-2.84,12.87-9.86,18.8c-0.4,0.34-0.65,0.82-0.69,1.34c-0.04,0.52,0.12,1.03,0.46,1.43l10.67,12.62
	c0.39,0.46,0.94,0.7,1.5,0.7c0.45,0,0.9-0.15,1.27-0.46c13.32-11.26,18.67-24.48,16.7-41.39c4.76,1.17,9.11,1.75,13.2,1.75
	c9.23,0,17.46-2.85,25.17-8.71c17.48-13.3,17.05-30.29,14.23-43.07c4.84,1.56,9.74,2.36,14.62,2.36c0,0,0,0,0,0
	c16.39,0,29.7-8.84,36.12-16.42C180.23,67.04,180.13,65.8,179.31,65.1z M107.45,103.17c-0.08,0.14-0.17,0.27-0.25,0.41
	c-0.09,0.13-0.18,0.26-0.27,0.39c-0.09,0.13-0.18,0.26-0.28,0.39c-0.1,0.13-0.2,0.26-0.31,0.39c-0.1,0.13-0.2,0.25-0.3,0.38
	c-0.11,0.13-0.22,0.25-0.33,0.37c-0.11,0.12-0.22,0.25-0.33,0.37c-0.12,0.13-0.24,0.25-0.36,0.37c-0.12,0.12-0.23,0.24-0.35,0.36
	c-0.13,0.13-0.28,0.26-0.42,0.39c-0.12,0.11-0.23,0.22-0.35,0.33c-0.16,0.15-0.34,0.29-0.51,0.43c-0.11,0.09-0.21,0.18-0.32,0.27
	c-0.28,0.23-0.58,0.46-0.88,0.69c-4.04,3.07-8.14,4.5-12.91,4.5c-0.65,0-1.31-0.03-1.98-0.08c-0.03,0-0.07,0-0.1-0.01
	c-0.65-0.05-1.31-0.13-1.98-0.23c-0.06-0.01-0.12-0.02-0.18-0.02c-0.65-0.1-1.32-0.22-1.99-0.36c-0.08-0.02-0.16-0.03-0.24-0.05
	c-0.51-0.11-1.04-0.24-1.57-0.37c0.01,0,0.02,0,0.02,0c0.02,0,0.03,0,0.05,0c0.5,0,0.99-0.19,1.35-0.54l4.79-4.55
	c0.79-0.75,0.82-1.99,0.07-2.78L73.25,89.22c-0.36-0.38-0.85-0.6-1.37-0.61c-0.52-0.02-1.03,0.18-1.4,0.54l-4.37,4.15
	c-0.04-0.2-0.08-0.4-0.11-0.6c-0.03-0.16-0.06-0.32-0.09-0.48c-0.04-0.23-0.08-0.46-0.11-0.69c-0.03-0.16-0.05-0.32-0.08-0.48
	c-0.03-0.22-0.06-0.44-0.09-0.66c-0.02-0.16-0.05-0.33-0.07-0.49c-0.03-0.21-0.04-0.42-0.07-0.63c-0.02-0.16-0.04-0.33-0.05-0.49
	c-0.02-0.21-0.03-0.41-0.04-0.62c-0.01-0.16-0.03-0.32-0.03-0.48c-0.01-0.2-0.01-0.4-0.02-0.61c-0.01-0.16-0.01-0.32-0.02-0.47
	c0-0.2,0-0.39,0-0.59c0-0.16,0-0.31,0-0.47c0-0.2,0.02-0.39,0.03-0.59c0.01-0.15,0.01-0.3,0.02-0.45c0.01-0.19,0.03-0.37,0.05-0.56
	c0.01-0.15,0.02-0.31,0.04-0.46c0.02-0.19,0.05-0.37,0.08-0.55c0.02-0.15,0.04-0.3,0.06-0.45c0.03-0.18,0.07-0.37,0.1-0.55
	c0.03-0.14,0.05-0.29,0.08-0.43c0.04-0.18,0.08-0.35,0.13-0.53c0.04-0.15,0.07-0.3,0.11-0.44c0.05-0.18,0.11-0.35,0.16-0.53
	c0.04-0.14,0.08-0.29,0.13-0.43c0.06-0.18,0.13-0.35,0.19-0.53c0.05-0.14,0.1-0.27,0.15-0.41c0.07-0.17,0.14-0.34,0.22-0.51
	c0.06-0.14,0.11-0.28,0.18-0.42c0.08-0.18,0.17-0.35,0.26-0.53c0.06-0.13,0.12-0.26,0.19-0.39c0.09-0.18,0.19-0.35,0.29-0.53
	c0.07-0.13,0.14-0.25,0.21-0.38c0.1-0.17,0.21-0.34,0.32-0.51c0.08-0.13,0.16-0.26,0.24-0.38c0.13-0.19,0.26-0.38,0.4-0.56
	c0.08-0.11,0.15-0.22,0.23-0.33c0.44-0.59,0.91-1.18,1.43-1.76c3.75-4.21,7.95-6.08,13.61-6.08c0.64,0,1.3,0.03,1.99,0.08
	c0.22,0.02,0.46,0.05,0.69,0.07c0.47,0.05,0.94,0.09,1.43,0.16c0.29,0.04,0.6,0.1,0.89,0.15c0.45,0.07,0.9,0.14,1.37,0.23
	c0.33,0.06,0.68,0.15,1.02,0.22c0.46,0.1,0.92,0.2,1.4,0.31c0.36,0.09,0.75,0.2,1.12,0.3c0.48,0.13,0.95,0.25,1.44,0.39
	c0.39,0.11,0.8,0.25,1.2,0.37c0.5,0.15,1,0.31,1.52,0.48c0.42,0.14,0.85,0.29,1.28,0.44c0.53,0.18,1.06,0.37,1.61,0.57
	c0.44,0.16,0.89,0.33,1.34,0.5c0.42,0.16,0.85,0.32,1.28,0.49c0.07,0.2,0.15,0.39,0.22,0.58c0.13,0.35,0.27,0.7,0.4,1.05
	c0.12,0.33,0.24,0.65,0.36,0.97c0.12,0.33,0.24,0.66,0.36,0.99c0.11,0.32,0.23,0.63,0.34,0.94c0.11,0.32,0.23,0.64,0.33,0.95
	c0.11,0.31,0.21,0.61,0.31,0.91c0.1,0.3,0.21,0.6,0.3,0.9c0.1,0.3,0.19,0.59,0.29,0.89c0.09,0.29,0.19,0.58,0.28,0.86
	c0.09,0.29,0.18,0.57,0.26,0.85c0.08,0.28,0.17,0.55,0.25,0.82c0.08,0.28,0.16,0.55,0.24,0.82c0.08,0.26,0.15,0.53,0.22,0.78
	c0.07,0.27,0.14,0.53,0.21,0.79c0.07,0.25,0.13,0.51,0.2,0.75c0.06,0.26,0.12,0.51,0.19,0.76c0.06,0.24,0.12,0.48,0.17,0.72
	c0.06,0.25,0.11,0.49,0.16,0.73c0.05,0.23,0.1,0.46,0.14,0.69c0.05,0.24,0.09,0.47,0.13,0.7c0.04,0.22,0.08,0.45,0.12,0.67
	c0.04,0.23,0.07,0.45,0.1,0.67c0.03,0.22,0.07,0.43,0.09,0.64c0.03,0.22,0.05,0.43,0.08,0.64c0.02,0.21,0.05,0.42,0.07,0.62
	c0.02,0.21,0.03,0.41,0.05,0.62c0.01,0.2,0.03,0.4,0.04,0.59c0.01,0.2,0.02,0.4,0.02,0.59c0.01,0.19,0.01,0.38,0.02,0.57
	c0,0.19,0,0.38-0.01,0.56c0,0.18,0,0.37-0.01,0.55c-0.01,0.18-0.02,0.36-0.03,0.54c-0.01,0.18-0.02,0.36-0.04,0.53
	c-0.02,0.18-0.04,0.35-0.06,0.52c-0.02,0.17-0.04,0.34-0.06,0.51c-0.03,0.17-0.06,0.33-0.09,0.5c-0.03,0.16-0.06,0.33-0.09,0.49
	c-0.03,0.16-0.07,0.32-0.11,0.48c-0.04,0.16-0.07,0.32-0.12,0.48c-0.04,0.16-0.09,0.31-0.14,0.46c-0.05,0.15-0.09,0.31-0.14,0.46
	c-0.05,0.15-0.11,0.3-0.17,0.44c-0.06,0.15-0.11,0.3-0.17,0.45c-0.06,0.14-0.13,0.29-0.19,0.43c-0.07,0.14-0.13,0.29-0.2,0.43
	c-0.07,0.14-0.15,0.28-0.22,0.41c-0.07,0.14-0.15,0.28-0.23,0.42C107.62,102.91,107.53,103.04,107.45,103.17z M80.49,111.93
	C80.49,111.93,80.49,111.93,80.49,111.93c-0.22-0.1-0.43-0.25-0.6-0.43C80.06,111.68,80.27,111.83,80.49,111.93z M98.33,37.73
	c-0.05,3.59,0.36,7.37,1.36,11.33l0,0l0,0C98.69,45.11,98.28,41.32,98.33,37.73z M72.66,138.37c0-2.79-0.25-5.7-0.75-8.74l0,0l0,0
	C72.41,132.67,72.66,135.58,72.66,138.37z"/>
<path class="st12" d="M124.8,31.52l19.84,20.88c0.36,0.38,0.85,0.6,1.37,0.61c0.02,0,0.03,0,0.05,0c0.5,0,0.99-0.19,1.35-0.54
	l4.79-4.55c0.79-0.75,0.82-1.99,0.07-2.78l-19.84-20.88c-0.36-0.38-0.85-0.6-1.37-0.61c-0.52-0.03-1.03,0.18-1.4,0.54l-4.79,4.55
	C124.09,29.49,124.06,30.73,124.8,31.52z"/>
<path class="st12" d="M122.27,37.3l-4.79,4.55c-0.38,0.36-0.6,0.85-0.61,1.37c-0.01,0.52,0.18,1.02,0.54,1.4l14.27,15.02
	c0.39,0.41,0.9,0.61,1.42,0.61c0.49,0,0.97-0.18,1.35-0.54l4.79-4.55c0.38-0.36,0.6-0.85,0.61-1.37c0.01-0.52-0.18-1.02-0.54-1.4
	l-14.27-15.02C124.3,36.59,123.06,36.56,122.27,37.3z"/>
<path class="st12" d="M80.65,76.11c-0.36-0.38-0.85-0.6-1.37-0.61c-0.51-0.03-1.02,0.18-1.4,0.54l-4.79,4.55
	c-0.79,0.75-0.82,1.99-0.07,2.78l19.84,20.88c0.39,0.41,0.9,0.61,1.42,0.61c0.49,0,0.97-0.18,1.35-0.54l4.79-4.55
	c0.79-0.75,0.82-1.99,0.07-2.78L80.65,76.11z"/>
<path class="st12" d="M92.79,70.36c-0.36-0.38-0.85-0.6-1.37-0.61c-0.53-0.04-1.03,0.18-1.4,0.54l-4.79,4.55
	c-0.79,0.75-0.82,1.99-0.07,2.78l14.27,15.02c0.36,0.38,0.85,0.6,1.37,0.61c0.02,0,0.03,0,0.05,0c0.5,0,0.99-0.19,1.35-0.54
	l4.79-4.55c0.79-0.75,0.82-1.99,0.07-2.78L92.79,70.36z"/>
<path class="st12" d="M73.26,89.22c-0.36-0.38-0.85-0.6-1.37-0.61c-0.53-0.04-1.05,0.14-1.43,0.5l-4.76,4.6
	c-0.79,0.75-0.82,1.99-0.07,2.78l14.27,15.02c0.36,0.38,0.85,0.6,1.37,0.61c0.02,0,0.03,0,0.05,0c0.5,0,0.99-0.19,1.35-0.54
	l4.79-4.55c0.79-0.75,0.82-1.99,0.07-2.78L73.26,89.22z"/>
<path class="st12" d="M42.05,121.03c-0.36-0.38-0.85-0.6-1.37-0.61c-0.53-0.04-1.07,0.17-1.45,0.53l-4.76,4.6
	c-0.79,0.75-0.82,1.99-0.07,2.78l14.27,15.02c0.36,0.38,0.85,0.6,1.37,0.61c0.02,0,0.03,0,0.05,0c0.5,0,0.99-0.19,1.35-0.54
	l4.79-4.55c0.79-0.75,0.82-1.99,0.07-2.78L42.05,121.03z"/>
<path class="st12" d="M49.73,147.69L29.9,126.81c-0.36-0.38-0.85-0.6-1.37-0.61c-0.53-0.03-1.03,0.18-1.4,0.54l-4.79,4.55
	c-0.79,0.75-0.82,1.99-0.07,2.78l19.84,20.88c0.36,0.38,0.85,0.6,1.37,0.61c0.02,0,0.03,0,0.05,0c0.5,0,0.99-0.19,1.35-0.54
	l4.79-4.55C50.45,149.72,50.48,148.48,49.73,147.69z"/>
<path class="st1" d="M54.89,36.99c8.15,0,14.77-6.63,14.77-14.77c0-8.15-6.63-14.78-14.77-14.78c-8.15,0-14.78,6.63-14.78,14.78
	C40.11,30.36,46.74,36.99,54.89,36.99z"/>
<path class="st1" d="M14.15,47.32c6.78,0,12.29-5.52,12.29-12.3c0-6.78-5.52-12.3-12.29-12.3c-6.78,0-12.3,5.52-12.3,12.3
	C1.85,41.81,7.37,47.32,14.15,47.32z"/>
<path class="st1" d="M18.69,69.75c-5.24,0-9.5,4.26-9.5,9.5c0,5.24,4.26,9.5,9.5,9.5s9.5-4.26,9.5-9.5
	C28.19,74.01,23.93,69.75,18.69,69.75z"/>
<path class="st1" d="M153.01,92.16c-7.13,0-12.93,5.8-12.93,12.93c0,7.13,5.8,12.93,12.93,12.93c7.13,0,12.93-5.8,12.93-12.93
	C165.94,97.96,160.14,92.16,153.01,92.16z"/>
<path class="st1" d="M138.54,126.2c-5.1,0-9.26,4.15-9.26,9.26c0,5.1,4.15,9.26,9.26,9.26c5.1,0,9.26-4.15,9.26-9.26
	C147.8,130.35,143.65,126.2,138.54,126.2z"/>
<path class="st1" d="M99.06,138.91c-9.03,0-16.38,7.35-16.38,16.38c0,9.03,7.35,16.38,16.38,16.38c9.03,0,16.38-7.35,16.38-16.38
	C115.44,146.26,108.09,138.91,99.06,138.91z"/>
</svg>
