<?xml version="1.0" encoding="utf-8"?>
<!-- Generator: Adobe Illustrator 23.0.1, SVG Export Plug-In . SVG Version: 6.00 Build 0)  -->
<svg version="1.1" id="Layer_1" xmlns="http://www.w3.org/2000/svg" xmlns:xlink="http://www.w3.org/1999/xlink" x="0px" y="0px"
	 viewBox="0 0 180 154.79" style="enable-background:new 0 0 180 154.79;" xml:space="preserve">
<style type="text/css">
	.st0{fill:#2C2B7E;}
	.st1{fill:#00A19F;}
	.st2{fill:#FFD400;}
	.st3{fill:#8E278B;}
	.st4{fill:#EE276C;}
	.st5{fill:#DB2F25;}
	.st6{fill:#A5D1F0;}
	.st7{fill:#F36E21;}
	.st8{fill:#FAA819;}
	.st9{fill:#ED2577;}
	.st10{fill:#F1F2F2;}
	.st11{fill:#59ABB0;}
	.st12{fill:#E2E3E4;}
	.st13{fill:#EFEFF0;}
</style>
<g>
	<path class="st4" d="M21.1,82.47l-0.18-0.11c-0.25-0.14-0.5-0.21-0.75-0.21c-0.24,0-0.47,0.04-0.69,0.12
		c-0.53,0.17-1.01,0.5-1.43,0.97c-0.28,0.34-0.41,0.71-0.41,1.1c0.03,0.17,0.05,0.35,0.05,0.52c0,0.47-0.14,1.06-0.41,1.76
		c-0.59,1.36-1.46,2.45-2.61,3.27c-0.54,0.39-1.15,0.58-1.81,0.58l-0.29-0.02c-1.1-0.02-2.12-0.34-3.05-0.97
		c-0.97-0.67-1.74-1.53-2.3-2.61C6.78,86,6.5,85.08,6.37,84.13c-0.27-1.25-0.4-2.34-0.4-3.28c0-1.44,0.06-2.63,0.17-3.57
		c0.08-0.52,0.29-1.57,0.63-3.13c0.07-0.25,0.16-0.48,0.25-0.71c0.1-0.23,0.18-0.46,0.24-0.7c0.19-0.73,0.45-1.43,0.77-2.1
		c0.07-0.14,0.14-0.29,0.2-0.44c0.88-1.97,1.83-3.6,2.84-4.88c0.64-0.83,1.41-1.54,2.29-2.15l0.06-0.05
		c0.49-0.37,0.98-0.57,1.46-0.61c0.32,0,0.62,0.11,0.92,0.32c0.3,0.21,0.51,0.48,0.64,0.8c0.25,0.63,0.42,1.28,0.52,1.94
		c0.1,0.66,0.15,1.35,0.15,2.08c-0.02,1-0.1,1.98-0.23,2.93l-0.02,0.21c0,0.34,0.1,0.64,0.31,0.91c0.32,0.44,0.8,0.66,1.46,0.66
		c0.36,0,0.7-0.09,1.03-0.28c0.46-0.25,0.77-0.61,0.94-1.09c0.14-0.53,0.26-1.07,0.34-1.63l0.08-0.49c0.15-0.78,0.23-1.55,0.23-2.32
		c-0.04-1.05-0.12-1.89-0.24-2.5c-0.12-0.61-0.34-1.2-0.65-1.75l-0.2-0.35c-0.18-0.33-0.38-0.65-0.6-0.97
		c-0.28-0.36-0.59-0.65-0.94-0.87c-0.35-0.22-0.72-0.43-1.1-0.61c-0.62-0.3-1.4-0.45-2.33-0.45c-0.33,0-0.65,0.03-0.98,0.08
		c-2.07,0.35-3.96,1.22-5.68,2.63c-1.72,1.41-3.22,3.16-4.5,5.26c-1.27,2.1-2.26,4.37-2.96,6.81C0.35,76.27,0,78.66,0,81
		c0,3.75,0.9,6.79,2.7,9.11c1.98,2.58,4.94,3.87,8.85,3.87c0.52,0,1.06-0.03,1.61-0.08c0.85-0.04,1.66-0.22,2.44-0.55
		c1.17-0.52,2.1-1.14,2.81-1.84l0.51-0.55c0.19-0.21,0.39-0.42,0.6-0.63c0.42-0.43,0.76-0.89,1.01-1.38c0.8-1.3,1.3-2.94,1.5-4.93
		V83.9C22.03,83.27,21.72,82.79,21.1,82.47z"/>
	<path class="st4" d="M77.73,82.47l-0.18-0.11c-0.25-0.14-0.5-0.21-0.75-0.21c-0.24,0-0.47,0.04-0.69,0.12
		c-0.53,0.17-1.01,0.5-1.43,0.97c-0.28,0.34-0.41,0.71-0.41,1.1c0.03,0.17,0.05,0.35,0.05,0.52c0,0.47-0.14,1.06-0.41,1.76
		c-0.59,1.36-1.46,2.45-2.61,3.27c-0.54,0.39-1.15,0.58-1.81,0.58l-0.29-0.02c-1.1-0.02-2.12-0.34-3.05-0.97
		c-0.97-0.67-1.74-1.53-2.3-2.61c-0.42-0.89-0.7-1.81-0.83-2.76c-0.27-1.25-0.4-2.34-0.4-3.28c0-1.44,0.06-2.63,0.17-3.57
		c0.08-0.52,0.29-1.57,0.63-3.13c0.07-0.25,0.16-0.48,0.25-0.71c0.1-0.23,0.18-0.46,0.24-0.7c0.19-0.73,0.45-1.43,0.77-2.1
		c0.07-0.14,0.14-0.29,0.2-0.44c0.88-1.97,1.83-3.6,2.84-4.88c0.64-0.83,1.41-1.54,2.29-2.15l0.06-0.05
		c0.49-0.37,0.98-0.57,1.46-0.61c0.32,0,0.62,0.11,0.92,0.32c0.3,0.21,0.51,0.48,0.64,0.8c0.25,0.63,0.42,1.28,0.52,1.94
		c0.1,0.66,0.15,1.35,0.15,2.08c-0.02,1-0.1,1.98-0.23,2.93l-0.02,0.21c0,0.34,0.1,0.64,0.31,0.91c0.32,0.44,0.8,0.66,1.46,0.66
		c0.36,0,0.7-0.09,1.03-0.28c0.46-0.25,0.77-0.61,0.94-1.09c0.14-0.53,0.26-1.07,0.34-1.63l0.08-0.49c0.15-0.78,0.23-1.55,0.23-2.32
		c-0.04-1.05-0.12-1.89-0.24-2.5c-0.12-0.61-0.34-1.2-0.65-1.75l-0.2-0.35c-0.18-0.33-0.38-0.65-0.6-0.97
		c-0.28-0.36-0.59-0.65-0.94-0.87c-0.35-0.22-0.72-0.43-1.1-0.61c-0.62-0.3-1.4-0.45-2.33-0.45c-0.33,0-0.65,0.03-0.98,0.08
		c-2.07,0.35-3.96,1.22-5.68,2.63c-1.72,1.41-3.22,3.16-4.5,5.26c-1.27,2.1-2.26,4.37-2.96,6.81c-0.7,2.44-1.05,4.83-1.05,7.17
		c0,3.75,0.9,6.79,2.7,9.11c1.98,2.58,4.94,3.87,8.85,3.87c0.52,0,1.06-0.03,1.61-0.08c0.85-0.04,1.66-0.22,2.44-0.55
		c1.17-0.52,2.1-1.14,2.81-1.84l0.51-0.55c0.19-0.21,0.39-0.42,0.6-0.63c0.42-0.43,0.76-0.89,1.01-1.38c0.8-1.3,1.3-2.94,1.5-4.93
		V83.9C78.67,83.27,78.36,82.79,77.73,82.47z"/>
	<path class="st4" d="M143.08,69.64c0-2.57-0.4-5-1.2-7.3c-0.8-2.3-2.04-4.2-3.72-5.69c-1.68-1.49-3.82-2.37-6.43-2.62
		c-0.41-0.04-0.82-0.06-1.22-0.06c-1.09,0-2.07,0.17-2.94,0.5c-2.27,0.9-4.16,2.3-5.68,4.19c-1.52,1.89-2.66,4.06-3.43,6.52
		c-0.77,2.46-1.15,4.95-1.15,7.48c0,2.45,0.36,4.78,1.09,7c0.73,2.22,1.82,4.1,3.28,5.65c1.46,1.55,3.29,2.58,5.5,3.09
		c0.84,0.18,1.68,0.27,2.5,0.27c1.14,0,2.27-0.19,3.37-0.57c2.14-0.8,3.95-2.16,5.44-4.06c1.49-1.9,2.63-4.12,3.41-6.66
		C142.68,74.84,143.08,72.26,143.08,69.64z M136.13,78.56c-0.65,2.34-1.63,4.07-2.94,5.21c-1.26,0.82-2.4,1.23-3.4,1.23
		c-1.87,0-3.32-1.25-4.35-3.75c-0.95-2.28-1.43-5.11-1.43-8.51c0-1.47,0.1-2.93,0.29-4.4c0.2-1.47,0.49-2.85,0.87-4.14
		c0.39-1.29,0.87-2.45,1.44-3.46c0.57-1.01,1.23-1.8,1.99-2.39c0.75-0.58,1.59-0.87,2.51-0.87c0.25,0,0.51,0.03,0.78,0.08
		c1.14,0.41,2.1,1.29,2.87,2.63c0.77,1.34,1.36,2.98,1.75,4.9c0.39,1.92,0.59,3.92,0.59,5.98C137.1,73.73,136.78,76.22,136.13,78.56
		z"/>
	<path class="st4" d="M178.8,118.76c-0.8-2.3-2.04-4.19-3.72-5.69c-1.68-1.49-3.82-2.37-6.43-2.62c-0.41-0.04-0.82-0.06-1.22-0.06
		c-1.09,0-2.07,0.17-2.94,0.5c-2.27,0.9-4.16,2.3-5.68,4.19c-1.52,1.89-2.66,4.06-3.43,6.52c-0.77,2.46-1.15,4.95-1.15,7.48
		c0,2.45,0.36,4.78,1.09,7c0.73,2.22,1.82,4.1,3.28,5.65c1.46,1.55,3.29,2.58,5.5,3.09c0.84,0.18,1.68,0.27,2.5,0.27
		c1.14,0,2.27-0.19,3.37-0.57c2.14-0.8,3.95-2.16,5.44-4.06c1.49-1.9,2.63-4.12,3.41-6.66c0.78-2.54,1.17-5.12,1.17-7.74
		C180,123.49,179.6,121.06,178.8,118.76z M173.05,134.97c-0.65,2.34-1.63,4.07-2.94,5.21c-1.26,0.82-2.4,1.23-3.4,1.23
		c-1.87,0-3.32-1.25-4.35-3.75c-0.95-2.28-1.43-5.11-1.43-8.51c0-1.47,0.1-2.93,0.29-4.4c0.2-1.47,0.49-2.85,0.87-4.14
		c0.39-1.29,0.87-2.45,1.44-3.46c0.57-1.01,1.23-1.8,1.99-2.39c0.75-0.58,1.59-0.87,2.51-0.87c0.25,0,0.51,0.03,0.78,0.08
		c1.14,0.41,2.1,1.29,2.87,2.63c0.77,1.34,1.36,2.98,1.75,4.9c0.39,1.92,0.59,3.92,0.59,5.98
		C174.02,130.15,173.7,132.63,173.05,134.97z"/>
	<path class="st4" d="M76.79,1.92c-0.91,0-1.85,0.31-2.82,0.94c-0.97,0.63-1.53,1.29-1.68,2c-0.29,2.35-0.48,5.68-0.56,9.99
		c-0.02,1.59-0.05,2.41-0.1,2.46c-0.05,0.05-0.12,0.07-0.23,0.07c-2.48,0-4.98,0.01-7.49,0.03c-0.12,0-0.19-0.03-0.21-0.08
		l-0.02-0.36c0-0.69,0.06-1.95,0.18-3.78c0.12-1.83,0.26-3.64,0.41-5.41c0.15-1.78,0.28-3.04,0.39-3.78l0.02-0.23
		c0-0.12-0.02-0.24-0.06-0.36c-0.32-0.75-0.99-1.12-2.01-1.12c-0.65,0-1.31,0.15-1.99,0.45c-0.68,0.3-1.26,0.7-1.73,1.2
		c-0.47,0.5-0.7,1.05-0.7,1.64c-0.38,8.82-0.57,15.37-0.57,19.63c0,2.52,0.07,5.06,0.21,7.6c0.08,1.41,0.22,2.27,0.41,2.57
		c0.28,0.39,0.98,0.59,2.09,0.59c1.07-0.03,1.81-0.14,2.22-0.34c0.41-0.2,0.68-0.48,0.82-0.86c0.14-0.37,0.21-0.86,0.21-1.47
		c0-0.39-0.02-0.84-0.05-1.33c0-1.83,0.05-5.11,0.15-9.85c0.02-0.23,0.03-0.6,0.03-1.11c1.95,0,3.74-0.03,5.39-0.08l2.18-0.05
		c0.26,0,0.39,0.1,0.39,0.29v0.85c0,0.41,0.01,0.87,0.03,1.36l-0.02,3.16c0,3.83,0.2,6.52,0.59,8.07c0.29,0.9,1.12,1.35,2.48,1.35
		c0.6,0,1.15-0.11,1.67-0.34c0.51-0.23,0.83-0.64,0.94-1.23c0.29-2.23,0.52-7.45,0.7-15.65c0.18-7.56,0.38-12.34,0.59-14.34
		c0.02-0.18,0.03-0.35,0.03-0.5C78.67,2.59,78.04,1.92,76.79,1.92z"/>
	<path class="st4" d="M155.05,28.05c0.75,2.41,1.57,4.81,2.45,7.2c0.5,1.33,0.88,2.1,1.15,2.34c0.39,0.29,1.11,0.27,2.17-0.05
		c1.01-0.35,1.69-0.67,2.02-0.98c0.33-0.31,0.51-0.66,0.53-1.06c0.02-0.4-0.06-0.88-0.24-1.46c-0.12-0.38-0.26-0.8-0.44-1.26
		c-0.54-1.74-1.47-4.9-2.77-9.46c-0.05-0.23-0.15-0.58-0.3-1.06c1.86-0.58,3.57-1.13,5.12-1.67l2.07-0.69
		c0.25-0.08,0.4-0.03,0.46,0.16l0.25,0.81c0.12,0.4,0.27,0.83,0.43,1.29l0.92,3.03c1.14,3.66,2.12,6.17,2.95,7.53
		c0.55,0.77,1.47,0.95,2.77,0.55c0.57-0.18,1.07-0.45,1.49-0.82c0.42-0.37,0.6-0.86,0.53-1.46c-0.38-2.22-1.7-7.27-3.97-15.16
		c-2.06-7.27-3.29-11.9-3.68-13.87c-0.03-0.18-0.07-0.34-0.12-0.49c-0.39-1.26-1.18-1.71-2.38-1.34c-0.87,0.27-1.67,0.85-2.41,1.73
		c-0.74,0.88-1.08,1.69-1.01,2.41c0.42,2.33,1.22,5.57,2.42,9.71c0.45,1.53,0.66,2.32,0.63,2.38c-0.03,0.06-0.1,0.1-0.2,0.13
		c-2.37,0.74-4.75,1.49-7.15,2.25c-0.12,0.04-0.19,0.03-0.22-0.01l-0.12-0.34c-0.2-0.66-0.52-1.88-0.94-3.66
		c-0.43-1.79-0.83-3.55-1.21-5.29c-0.38-1.74-0.63-2.99-0.74-3.73l-0.05-0.22c-0.04-0.12-0.09-0.23-0.17-0.33
		c-0.53-0.62-1.28-0.78-2.25-0.47c-0.62,0.19-1.21,0.53-1.77,1.02c-0.56,0.49-0.99,1.04-1.29,1.65c-0.3,0.62-0.36,1.21-0.19,1.78
		C152.03,17.66,153.78,23.97,155.05,28.05z"/>
	<path class="st4" d="M76.79,120.74c-0.91,0-1.85,0.31-2.82,0.94c-0.97,0.63-1.53,1.29-1.68,2c-0.29,2.35-0.48,5.68-0.56,9.99
		c-0.02,1.59-0.05,2.41-0.1,2.46c-0.05,0.05-0.12,0.07-0.23,0.07c-2.48,0-4.98,0.01-7.49,0.03c-0.12,0-0.19-0.03-0.21-0.08
		l-0.02-0.36c0-0.69,0.06-1.95,0.18-3.78c0.12-1.83,0.26-3.64,0.41-5.41c0.15-1.78,0.28-3.04,0.39-3.78l0.02-0.23
		c0-0.12-0.02-0.24-0.06-0.36c-0.32-0.75-0.99-1.12-2.01-1.12c-0.65,0-1.31,0.15-1.99,0.45c-0.68,0.3-1.26,0.7-1.73,1.2
		c-0.47,0.5-0.7,1.05-0.7,1.64c-0.38,8.82-0.57,15.37-0.57,19.63c0,2.52,0.07,5.06,0.21,7.6c0.08,1.41,0.22,2.27,0.41,2.57
		c0.28,0.39,0.98,0.59,2.09,0.59c1.07-0.03,1.81-0.14,2.22-0.34c0.41-0.2,0.68-0.48,0.82-0.86c0.14-0.37,0.21-0.86,0.21-1.47
		c0-0.39-0.02-0.84-0.05-1.33c0-1.83,0.05-5.11,0.15-9.85c0.02-0.23,0.03-0.6,0.03-1.11c1.95,0,3.74-0.03,5.39-0.08l2.18-0.05
		c0.26,0,0.39,0.1,0.39,0.29v0.85c0,0.41,0.01,0.87,0.03,1.36l-0.02,3.16c0,3.83,0.2,6.52,0.59,8.07c0.29,0.9,1.12,1.35,2.48,1.35
		c0.6,0,1.15-0.11,1.67-0.34c0.51-0.23,0.83-0.64,0.94-1.23c0.29-2.23,0.52-7.45,0.7-15.65c0.18-7.56,0.38-12.34,0.59-14.34
		c0.02-0.18,0.03-0.35,0.03-0.5C78.67,121.4,78.04,120.74,76.79,120.74z"/>
	<path class="st4" d="M45.51,71.3H29.88c-0.97,0-1.76,0.79-1.76,1.76s0.79,1.76,1.76,1.76h15.63c0.97,0,1.76-0.79,1.76-1.76
		S46.48,71.3,45.51,71.3z"/>
	<path class="st4" d="M101.82,71.3H86.19c-0.97,0-1.76,0.79-1.76,1.76s0.79,1.76,1.76,1.76h15.63c0.97,0,1.76-0.79,1.76-1.76
		S102.79,71.3,101.82,71.3z"/>
	<path class="st4" d="M65.45,57.08c0.97,0,1.76-0.79,1.76-1.76V39.69c0-0.97-0.79-1.76-1.76-1.76s-1.76,0.79-1.76,1.76v15.63
		C63.69,56.29,64.48,57.08,65.45,57.08z"/>
	<path class="st4" d="M67.21,114.17V98.54c0-0.97-0.79-1.76-1.76-1.76s-1.76,0.79-1.76,1.76v15.63c0,0.97,0.79,1.76,1.76,1.76
		S67.21,115.14,67.21,114.17z"/>
	<path class="st4" d="M155.47,113.12c0.69-0.69,0.69-1.8,0-2.49l-11.05-11.05c-0.69-0.69-1.8-0.69-2.49,0
		c-0.69,0.69-0.69,1.8,0,2.49l11.05,11.05c0.34,0.34,0.79,0.52,1.24,0.52C154.68,113.64,155.13,113.47,155.47,113.12z"/>
	<path class="st4" d="M137.65,50.59c0.45,0,0.9-0.17,1.24-0.52l11.05-11.05c0.69-0.69,0.69-1.8,0-2.49c-0.69-0.69-1.8-0.69-2.49,0
		l-11.05,11.05c-0.69,0.69-0.69,1.8,0,2.49C136.75,50.42,137.2,50.59,137.65,50.59z"/>
</g>
</svg>
