<?xml version="1.0" encoding="utf-8"?>
<!-- Generator: Adobe Illustrator 23.0.1, SVG Export Plug-In . SVG Version: 6.00 Build 0)  -->
<svg version="1.1" id="Layer_1" xmlns="http://www.w3.org/2000/svg" xmlns:xlink="http://www.w3.org/1999/xlink" x="0px" y="0px"
	 viewBox="0 0 180 189.48" style="enable-background:new 0 0 180 189.48;" xml:space="preserve">
<style type="text/css">
	.st0{fill:#2C2B7E;}
	.st1{fill:#00A19F;}
	.st2{fill:#FFD400;}
	.st3{fill:#8E278B;}
	.st4{fill:#EE276C;}
	.st5{fill:#DB2F25;}
	.st6{fill:#A5D1F0;}
	.st7{fill:#F36E21;}
	.st8{fill:#FAA819;}
	.st9{fill:#ED2577;}
	.st10{fill:#F1F2F2;}
	.st11{fill:#59ABB0;}
	.st12{fill:#E2E3E4;}
	.st13{fill:#EFEFF0;}
</style>
<path class="st3" d="M91.32,73.17c12,0.01,21.55,9.61,21.51,21.61c-0.04,11.9-9.68,21.48-21.59,21.44
	c-11.89-0.04-21.48-9.69-21.45-21.59C69.81,82.71,79.4,73.16,91.32,73.17z"/>
<path class="st4" d="M129.57,78.15c1.67,1.33,3.07,2.48,4.5,3.58c0.84,0.64,0.64,1.56,0.67,2.37c0.15,5.35,0.3,10.69,0.14,16.04
	c-0.56,18.31-3.16,36.25-9.42,53.54c-3.18,8.78-7.24,17.11-13.34,24.3c-3.75,4.43-8.09,8.12-13.64,10.13
	c-7.64,2.76-14.65,1.19-21.12-3.37c-5.42-3.82-9.39-8.95-12.79-14.56c-2.28-3.76-4.14-7.72-5.89-11.74
	c-0.36-0.82-0.22-1.14,0.66-1.19c0.3-0.02,0.6-0.09,0.89-0.14c2.9-0.53,2.89-0.52,4.14,2.22c2.96,6.49,6.47,12.65,11.49,17.81
	c3.39,3.49,7.26,6.21,12.15,7.16c5.45,1.06,10.2-0.67,14.52-3.85c5.69-4.18,9.59-9.84,12.89-15.95c5.1-9.46,8.27-19.6,10.56-30.04
	c3.35-15.28,4.51-30.76,4.11-46.37C129.99,84.87,129.76,81.65,129.57,78.15z"/>
<path class="st2" d="M162.13,91.91c-1.09-1.29-2.72-2.38-2.92-3.68c-0.18-1.22,1.52-2.42,2.37-3.65c4.12-5.99,7.69-12.24,9.31-19.41
	c1.24-5.51,1.11-10.89-2.01-15.83c-2.81-4.45-7.11-6.91-11.99-8.45c-5.57-1.76-11.31-2.2-17.12-1.96
	c-18.18,0.75-35.1,6.25-51.49,13.69c-10.27,4.66-20.04,10.24-29.38,16.56c-0.28,0.19-0.57,0.36-1.03,0.65
	c0.3-2.08,0.58-3.98,0.85-5.87c0.08-0.54,0.48-0.8,0.88-1.05c18.54-11.87,38.22-21.15,59.77-26.11c8.34-1.92,16.8-3.01,25.38-2.65
	c7.29,0.31,14.41,1.44,20.74,5.39c7.95,4.96,11.42,12.26,10.8,21.53c-0.58,8.63-4.27,16.12-8.77,23.29
	C165.9,86.94,164.12,89.42,162.13,91.91z"/>
<path class="st1" d="M86.55,136.09c-2,0.77-3.8,1.44-5.58,2.19c-0.49,0.21-0.81,0.02-1.18-0.18c-12.42-6.33-24.14-13.76-35.03-22.47
	c-9.2-7.35-17.69-15.41-24.82-24.83c-5.33-7.04-9.81-14.54-12.11-23.17c-1.55-5.81-1.95-11.66,0.16-17.42
	c2.59-7.07,7.97-11.23,14.82-13.75c5.9-2.17,12.06-2.74,18.3-2.7c3.89,0.03,7.75,0.35,11.6,0.84c0.69,0.09,0.77,0.28,0.55,0.86
	c-0.31,0.8-0.64,1.61-0.81,2.44c-0.27,1.3-0.94,1.47-2.19,1.32c-8.27-1.03-16.52-1.18-24.58,1.38c-5.75,1.83-10.51,4.99-12.96,10.78
	c-2.02,4.77-1.74,9.67-0.48,14.57c1.92,7.46,5.74,13.97,10.24,20.1c8.45,11.51,18.83,21.07,30.22,29.58
	c10.19,7.61,21.03,14.16,32.47,19.72C85.53,135.56,85.91,135.76,86.55,136.09z"/>
<path class="st2" d="M21.34,151.95c1.01-1.16,1.93-2.28,2.61-3.57c0.31-0.6,0.71-0.27,1.09-0.14c8.04,2.63,16.28,2.64,24.56,1.72
	c18.97-2.12,36.48-8.75,53.33-17.39c7.16-3.67,14.05-7.8,20.72-12.3c0.31-0.21,0.64-0.4,1.11-0.69c-0.31,2.12-0.59,4.07-0.88,6.01
	c-0.07,0.49-0.52,0.67-0.87,0.9c-18.57,11.9-38.32,21.11-59.89,26.12c-8.46,1.97-17.04,3.07-25.75,2.68
	c-5.31-0.24-10.52-1.09-15.49-3.07C21.72,152.15,21.57,152.07,21.34,151.95z"/>
<path class="st4" d="M53.03,111.19c-1.02-0.8-1.8-1.59-2.72-2.1c-2.1-1.16-2.48-2.98-2.51-5.17c-0.15-9.19-0.12-18.37,0.73-27.54
	c1.23-13.33,3.64-26.4,8.06-39.07c1.4-4.02,3.05-7.93,4.88-11.77c0.43-0.91,0.71-0.86,1.37-0.23c0.67,0.66,1.43,1.27,2.25,1.72
	c0.75,0.41,0.67,0.76,0.36,1.41c-5.26,11.12-8.42,22.86-10.41,34.96c-1.95,11.86-2.72,23.81-2.51,35.82
	C52.58,103.14,52.85,107.05,53.03,111.19z"/>
<path class="st1" d="M96.1,53.32c2.04-0.81,3.91-1.55,5.77-2.3c0.39-0.16,0.67,0.11,0.96,0.26c19.03,9.82,36.47,21.83,51.34,37.37
	c3.04,3.18,5.89,6.53,8.56,10.03c0.26,0.34,0.49,0.69,0.76,1.07c-1.18,0.6-2.34,1.12-3.26,1.96c-0.66,0.6-0.97,0.43-1.46-0.21
	c-4.23-5.58-8.97-10.71-14.09-15.48c-14.07-13.1-29.94-23.53-47.16-31.98C97.11,53.84,96.71,53.63,96.1,53.32z"/>
<path class="st3" d="M180,113.94c-0.03,5.72-4.94,10.6-10.57,10.51c-5.87-0.1-10.56-4.85-10.53-10.68
	c0.03-5.75,4.86-10.53,10.58-10.47C175.39,103.37,180.03,108.06,180,113.94z"/>
<path class="st3" d="M21.1,141.09c-0.03,5.77-4.77,10.53-10.51,10.56C4.78,151.67-0.03,146.87,0,141.06
	c0.03-5.86,4.86-10.66,10.62-10.56C16.42,130.6,21.12,135.36,21.1,141.09z"/>
<path class="st3" d="M73.17,24.61c-5.88-0.01-10.6-4.73-10.58-10.56C62.6,8.26,67.4,3.55,73.26,3.57
	c5.73,0.02,10.46,4.81,10.46,10.58C83.71,19.88,78.93,24.63,73.17,24.61z"/>
<path class="st1" d="M176.05,127.64c0.44,4.48-0.09,8.61-1.83,12.54c-3.01,6.8-8.51,10.73-15.33,13.05
	c-7.22,2.45-14.69,2.67-22.21,2.2c-2.15-0.13-4.28-0.46-6.43-0.62c-0.85-0.06-1.2-0.24-0.78-1.14c0.3-0.66,0.57-1.36,0.69-2.07
	c0.23-1.44,1.06-1.61,2.34-1.44c6.18,0.81,12.37,0.95,18.54-0.04c5.37-0.86,10.47-2.47,14.63-6.18c4.08-3.64,5.81-8.32,5.65-13.73
	c-0.03-0.89,0.1-1.29,1.11-1.39C173.61,128.71,174.75,128.25,176.05,127.64z"/>
<path class="st4" d="M82.47,1.93c9.16-3.71,17.22-1.91,24.53,4.01c6.39,5.18,10.67,11.98,14.28,19.24c0.97,1.96,1.77,4,2.7,5.98
	c0.31,0.67,0.22,0.87-0.53,0.96c-0.98,0.11-1.97,0.27-2.9,0.58c-0.89,0.3-1.21-0.03-1.52-0.79c-2.02-4.86-4.45-9.49-7.49-13.79
	c-3.31-4.69-7.08-8.89-12.34-11.5c-3.95-1.96-8.06-2.33-12.28-1.14c-0.79,0.22-1.17,0.08-1.58-0.54
	C84.61,3.83,83.58,2.98,82.47,1.93z"/>
<path class="st2" d="M20.42,97.52c1.07,1.19,2.61,2.16,2.95,3.46c0.36,1.37-1.37,2.43-2.19,3.62c-4,5.84-7.48,11.92-9.22,18.86
	c-0.19,0.74-0.12,1.77-0.59,2.16c-0.48,0.4-1.48,0.13-2.24,0.22c-0.81,0.1-1.61,0.27-2.64,0.44
	C8.19,115.21,13.87,106.18,20.42,97.52z"/>
<path class="st1" d="M96.05,145.48c2.02-0.95,3.8-1.77,5.56-2.64c0.39-0.19,0.7-0.14,1.09,0c4.88,1.76,9.82,3.35,14.87,4.57
	c0.87,0.21,0.85,0.57,0.6,1.21c-0.46,1.15-0.59,2.78-1.43,3.34c-0.87,0.57-2.31-0.39-3.5-0.7
	C107.47,149.72,101.86,147.75,96.05,145.48z"/>
<path class="st1" d="M86.57,43.91c-2.03,0.96-3.81,1.78-5.56,2.66c-0.46,0.23-0.84,0.08-1.22-0.06c-4.82-1.8-9.74-3.29-14.72-4.54
	c-0.79-0.2-0.88-0.45-0.61-1.11c0.48-1.18,0.62-2.84,1.48-3.43c0.83-0.56,2.32,0.4,3.51,0.72C75.19,39.69,80.8,41.64,86.57,43.91z"
	/>
<path class="st4" d="M132.91,65.18c-1.84-1.28-3.45-2.41-5.08-3.52c-0.37-0.25-0.46-0.58-0.53-0.97c-0.85-5.08-2.01-10.1-3.44-15.05
	c-0.25-0.87,0.01-1.08,0.74-1.13c1.27-0.09,2.77-1.1,3.69-0.33c0.79,0.66,0.79,2.27,1.11,3.46
	C130.9,53.33,132.02,59.09,132.91,65.18z"/>
<path class="st4" d="M49.79,124.25c1.74,1.2,3.32,2.3,4.9,3.39c0.38,0.26,0.56,0.58,0.64,1.05c0.88,5.08,2.01,10.11,3.44,15.07
	c0.26,0.89-0.06,1.04-0.73,1.15c-0.13,0.02-0.26,0.04-0.38,0.05c-1.14,0.08-2.48,0.99-3.31,0.3c-0.71-0.6-0.76-2.03-1.03-3.11
	c-1.41-5.45-2.51-10.97-3.41-16.53C49.84,125.23,49.84,124.84,49.79,124.25z"/>
<path class="st2" d="M44.95,73.62c-0.18,2.07-0.36,4.1-0.51,6.14c-0.03,0.41-0.33,0.58-0.59,0.79c-3.96,3.33-7.77,6.81-11.34,10.55
	c-0.55,0.58-0.83,0.48-1.26-0.08c-0.6-0.78-1.25-1.54-1.92-2.27c-0.45-0.49-0.52-0.83,0.01-1.37c4.82-4.88,9.91-9.44,15.29-13.69
	C44.68,73.65,44.77,73.66,44.95,73.62z"/>
<path class="st2" d="M137.67,115.97c0.18-2.2,0.36-4.13,0.49-6.06c0.03-0.49,0.26-0.76,0.61-1.05c3.96-3.33,7.78-6.81,11.36-10.55
	c0.54-0.56,0.81-0.53,1.26,0.06c0.65,0.86,1.37,1.66,2.09,2.46c0.3,0.34,0.39,0.58,0.02,0.97
	C148.58,106.82,143.36,111.48,137.67,115.97z"/>
</svg>
