<?xml version="1.0" encoding="utf-8"?>
<!-- Generator: Adobe Illustrator 23.0.1, SVG Export Plug-In . SVG Version: 6.00 Build 0)  -->
<svg version="1.1" id="Layer_1" xmlns="http://www.w3.org/2000/svg" xmlns:xlink="http://www.w3.org/1999/xlink" x="0px" y="0px"
	 viewBox="0 0 180 232.38" style="enable-background:new 0 0 180 232.38;" xml:space="preserve">
<style type="text/css">
	.st0{fill:#D972AD;}
	.st1{fill:#7CAADB;}
	.st2{fill:#FFFFFF;}
	.st3{fill:#010101;}
	.st4{fill:#020202;}
	.st5{fill:#0F0F10;}
	.st6{fill:#040404;}
	.st7{fill:#2E2E2E;}
	.st8{fill:#E5475C;}
</style>
<path class="st1" d="M55.64,68.33c-0.37-0.28-0.77-0.51-1.2-0.67c-5.16-1.92-4.62,6.53-4.37,9.34c0.39,4.42,1.51,9.29-0.64,13.45
	c-0.67,1.29-1.62,2.42-2.22,3.74s-0.76,2.99,0.12,4.15c1.43,1.87,4.94,1.65,5.63,3.9c0.23,0.76,0.03,1.58-0.02,2.37
	c-0.05,0.79,0.12,1.72,0.82,2.1c0.49,0.27,1.1,0.19,1.65,0.09c2.99-0.53,5.92-1.34,8.76-2.42c0.35-0.13,0.72-0.29,0.92-0.61
	c0.19-0.31,0.16-0.69,0.14-1.05c-0.37-4.6-0.73-9.2-1.34-13.78c-0.89-6.65-2.4-13.49-6.49-18.81C56.86,69.48,56.3,68.83,55.64,68.33
	z"/>
<path class="st0" d="M85.81,112.68c0.18,0,0.37,0.01,0.58,0.03c2.2,0.2,4.34,1.47,5.37,3.45c1.11,2.13,0.97,4.68,0.6,7.04
	c-0.37,2.37-0.96,4.76-0.65,7.14c0.3,2.38,1.76,4.81,4.09,5.39c2.17,0.54,4.38-0.65,6.61-0.85c2.47-0.22,5.01,0.86,6.57,2.78
	c0.93,1.15,1.54,2.59,2.74,3.44c1.64,1.17,3.99,0.89,5.71-0.16c1.72-1.06,2.93-2.75,4.05-4.43c0.49-0.75,1.08-1.57,1.97-1.7
	c1.07-0.16,1.97,0.78,2.6,1.66c1.63,2.26,2.97,4.81,3.37,7.57c0.4,2.76-0.23,5.76-2.11,7.82c-1.97,2.15-4.99,3-7.89,3.32
	c-7.3,0.82-14.59-1.03-21.86-2.07c-3.53-0.51-7.2-0.86-10.29-2.64c-3.33-1.92-5.54-5.26-7.58-8.52c-2.32-3.72-4.65-7.81-4.32-12.18
	c0.4-5.32,4.43-9.27,6.78-13.78C83.22,113.92,83.44,112.64,85.81,112.68z"/>
<path class="st5" d="M75.31,151.52c-2.52,9.77-5.23,19.11-7.3,28.58c-3.48,15.91-10.73,30-19.95,43.21
	c-1.82,2.61-3.77,5.13-5.65,7.7c-0.64,0.87-1.34,1.64-2.56,1.28c-1.12-0.32-1.24-1.33-1.36-2.27c-2.62-19.17-2.71-38.15,2.2-57.12
	c5.47-21.12,10.13-42.44,15.18-63.67c0.32-1.36-0.03-2.5-0.46-3.73c-4.8-13.82-5.31-27.51,2.08-40.63
	c4.33-7.68,10.72-12.8,20.01-12.96c9.55-0.17,16.3,5.78,17.8,15.22c1.16,7.28-0.6,14.19-2.43,21.1c-2.63,9.96-5.89,19.74-8.64,29.67
	c-4.48,16.18,8.37,29.15,24.69,26.78c8.93-1.3,15.74-6.16,21.3-12.95c7.11-8.7,11.23-18.84,13.78-29.65
	c2.88-12.22,4.47-24.61,2.52-37.12c-3.23-20.73-15.24-34.19-35.41-39.47c-22.52-5.89-44.07-3.11-62.29,12.2
	C29.93,53.57,22.9,74.34,27.56,98.76c1.03,5.42,3.81,10.13,7.41,14.27c2.15,2.47,2.62,5.01,1.66,8.09
	c-0.97,3.11-1.57,6.33-2.42,9.48c-1.08,4.01-3.55,5.21-7.42,3.54C14.32,128.77,7,118.81,3.4,106.24
	c-8.21-28.69-1.34-54.12,18.25-76.13c14.33-16.1,32.81-24.9,53.91-28.37c17.51-2.88,34.89-2.52,51.68,3.7
	c26.46,9.81,44.06,27.98,50.95,55.75c2.54,10.27,2.02,20.68,0.8,31.07c-1.94,16.44-6.75,31.92-16.16,45.71
	c-10.44,15.28-24.42,25.48-42.85,28.93c-13.37,2.51-26.04,1.08-37.32-7.29C79.79,157.49,77.41,154.92,75.31,151.52z"/>
</svg>
