<?xml version="1.0" encoding="utf-8"?>
<!-- Generator: Adobe Illustrator 23.0.1, SVG Export Plug-In . SVG Version: 6.00 Build 0)  -->
<svg version="1.1" id="Layer_1" xmlns="http://www.w3.org/2000/svg" xmlns:xlink="http://www.w3.org/1999/xlink" x="0px" y="0px"
	 viewBox="0 0 180 180" style="enable-background:new 0 0 180 180;" xml:space="preserve">
<style type="text/css">
	.st0{fill:#D972AD;}
	.st1{fill:#7CAADB;}
	.st2{fill:#FFFFFF;}
	.st3{fill:#010101;}
	.st4{fill:#020202;}
	.st5{fill:#0F0F10;}
	.st6{fill:#040404;}
	.st7{fill:#2E2E2E;}
	.st8{fill:#E5475C;}
</style>
<g>
	<path class="st1" d="M43.65,124.8c-0.16,0.01-0.32,0.01-0.48,0.03c-2.9,0.21-5.63,1.44-8.17,2.87c-1.77,0.99-3.53,2.14-4.65,3.83
		c-1.21,1.83-1.55,4.14-2.82,5.94c-3.84,5.43-11.58,3.15-16.99,2.65c-2.05-0.19-4.47-0.13-6.21,1.12c-1.72,1.24-2.17,3.72-0.52,5.26
		c1.12,1.05,2.71,1.39,4.22,1.67c9.46,1.71,19.2,2.08,28.68,0.52c10.18-1.68,19.88-5.53,29.96-7.75c1.97-0.43,4.28-1.07,4.96-2.96
		c0.4-1.11,0.08-2.39-0.59-3.36c-0.67-0.97-1.66-1.68-2.67-2.29c-4.32-2.58-9.36-3.6-14.15-5.13
		C50.76,126.09,47.26,124.68,43.65,124.8z"/>
	<path class="st0" d="M28.29,39.17c2.08-0.89,4.61-1.12,6.5-0.88c3.76,0.49,7.16,2.58,9.86,5.24c2.36,2.32,4.51,5.23,7.73,5.98
		c2.19,0.51,4.65-0.07,6.64,0.99c2.1,1.12,3,3.74,5.01,5.01c2.52,1.58,5.82,0.55,8.77,0.96c2.76,0.38,5.23,2.06,6.94,4.25
		c1.72,2.19,2.74,4.85,3.4,7.55c0.18,0.73,0.33,1.5,0.11,2.22c-0.5,1.66-2.58,2.19-4.32,2.21c-2.97,0.04-5.91-0.58-8.8-1.28
		c-6.9-1.67-13.67-3.85-20.25-6.51c-8.07-3.26-16.05-7.41-21.77-13.97c-1.97-2.26-4.82-6.4-2.91-9.37
		C25.9,40.51,27.02,39.71,28.29,39.17z"/>
	<path d="M0.19,144.17c0.5-0.49,1.91-0.68,3.24-0.77c1.96-0.12,3.91,0.1,5.86,0.05c4.9-0.13,9.81-0.5,14.65-1.3
		c4.76-0.79,9.46-1.97,13.96-3.73c1.92-0.75,10.63-6.88,11.91-6.54c-11.47-2.99-21.74-10.37-28.22-20.28
		c-1.21-1.85-2.11-4.73-0.26-5.94c0.65-0.43,1.48-0.48,2.26-0.52c2.73-0.14,5.47-0.27,8.2-0.41C18,100.1,7.78,86.41,7.27,71.88
		c-0.02-0.68,0-1.43,0.47-1.92c0.51-0.53,1.33-0.55,2.06-0.51c2.36,0.12,4.7,0.47,6.99,1.05c-2.73-0.69-5.76-9.64-6.57-12.01
		c-1.57-4.57-2.34-9.42-2.28-14.25c0.08-6.67,1.39-24.12,10.69-14.21c17.62,18.77,42.34,30.69,67.99,32.8
		c-2.29-14.43,4.64-29.92,16.93-37.83s29.25-7.81,41.44,0.25c2.47,1.64,4.91,3.62,7.85,4c1.95,0.25,3.91-0.25,5.79-0.84
		c5.28-1.63,10.36-3.93,15.07-6.82c2.23,6.32-2.99,12.63-7.78,17.31c4.81-0.27,9.58-1.29,14.08-2.99c-1.54,5.03-4.54,9.6-8.55,13.02
		c-2.92,2.49-6.49,4.55-8.09,8.04c-0.99,2.17-1.08,4.63-1.23,7.01c-1.26,20.45-8.12,40.62-20.2,57.17
		c-12.08,16.54-29.42,29.33-49.02,35.28c-16.87,5.12-34.89,5.17-52.42,3.3c-13.93-1.49-27.13-5.95-38.95-13.52
		C0,145.23-0.24,144.59,0.19,144.17z"/>
</g>
</svg>
