<?xml version="1.0" encoding="utf-8"?>
<!-- Generator: Adobe Illustrator 23.0.1, SVG Export Plug-In . SVG Version: 6.00 Build 0)  -->
<svg version="1.1" id="Layer_1" xmlns="http://www.w3.org/2000/svg" xmlns:xlink="http://www.w3.org/1999/xlink" x="0px" y="0px"
	 viewBox="0 0 180 368.99" style="enable-background:new 0 0 180 368.99;" xml:space="preserve">
<style type="text/css">
	.st0{fill:#D972AD;}
	.st1{fill:#7CAADB;}
	.st2{fill:#FFFFFF;}
	.st3{fill:#010101;}
	.st4{fill:#020202;}
	.st5{fill:#0F0F10;}
	.st6{fill:#040404;}
	.st7{fill:#2E2E2E;}
	.st8{fill:#E5475C;}
</style>
<path class="st1" d="M45.77,241.67c-4.81-0.9-10.29,1.46-11.48,6.7c-0.76,3.33,0.17,6.82,1.56,9.94c1.38,3.12,3.22,6.04,4.41,9.24
	c1.77,4.76,2.05,10.06,0.77,14.97c-1.18,4.54-3.62,8.72-4.33,13.36c-0.61,3.97,0.14,8.14,2.1,11.65c2.05,3.69,5.42,6.27,5.55,10.48
	c0.08,2.4-1.95,4.6-1.55,7.05c0.47,2.83,4.44,2.24,6.53,2.52c3.28,0.44,6.9,0.19,9.47-1.91c3.5-2.86,3.85-7.99,3.77-12.51
	c-0.36-19.28-3.67-38.37-7.17-57.33c-0.69-3.75-1.46-7.65-3.77-10.69C50.16,243.24,48.03,242.1,45.77,241.67z"/>
<path class="st0" d="M170.97,61.43c0.24,3.34-0.35,6.53-2.67,8.88c-3.11,3.16-8.08,3.33-12.5,3.13c-6.1-0.28-12.17-0.9-18.2-1.86
	c-3.6-0.57-7.28-1.26-10.88-0.66c-3.6,0.61-7.18,2.82-8.26,6.31c-0.99,3.21,0.29,6.61,1.22,9.83c1.54,5.32,2.13,10.91,1.75,16.43
	c-0.18,2.6-0.82,5.55-3.1,6.8c-2.03,1.11-4.56,0.4-6.61-0.66c-9.15-4.75-13.67-15.56-14.43-25.84c-0.64-8.72,0.81-17.46,1.83-26.1
	c0.62-5.18,1.8-4.74,6.85-5.73c4.34-0.85,8.73-1.5,13.13-1.96c8.51-0.89,17.1-1.04,25.64-0.46c2.9,0.2,23.65,1.06,24.48,3.72
	C170.02,55.83,170.77,58.68,170.97,61.43z"/>
<path class="st4" d="M112.47,282.67c0,28.1-0.01,56.2,0.04,84.3c0,1.54-0.25,2.02-1.94,2.02c-20.97-0.07-41.93-0.07-62.9,0
	c-1.69,0.01-1.96-0.48-1.95-2.03c0.04-56.2,0.02-112.4,0.08-168.6c0-1.82-0.46-2.16-2.2-2.15c-13.9,0.08-27.79,0.02-41.69,0.08
	C0.39,196.3,0,195.93,0,194.39c0.06-19.8,0.05-39.6,0.01-59.4c0-1.43,0.32-1.85,1.81-1.84c14.02,0.06,28.04,0.01,42.06,0.07
	c1.49,0.01,1.92-0.29,1.92-1.87c-0.06-17.52-0.18-35.05,0.02-52.57c0.15-13.56,3.17-26.49,9.74-38.48
	c8.89-16.24,22.37-27.09,39.51-33.6c12.25-4.65,25.02-6.52,38.05-6.68c14.95-0.18,29.85,0.67,44.73,2.17
	c1.47,0.15,1.87,0.7,1.82,2.16c-0.53,18.62-1.02,37.24-1.45,55.86c-0.04,1.56-0.93,1.24-1.79,1.24c-12.91-0.07-25.82-0.16-38.74-0.2
	c-4-0.01-7.96,0.33-11.84,1.45c-6.79,1.96-10.79,6.47-12.27,13.3c-0.74,3.43-1.1,6.91-1.1,10.43c0,15,0.02,30.01-0.04,45.01
	c-0.01,1.49,0.43,1.77,1.82,1.77c21.27-0.04,42.55-0.01,63.82-0.08c1.72-0.01,1.99,0.5,1.91,2.05c-0.87,17-1.67,34.01-2.49,51.01
	c-0.13,2.7-0.42,5.4-0.38,8.1c0.02,1.6-0.37,2-2,1.99c-20.11-0.07-40.21-0.01-60.32-0.09c-1.89-0.01-2.37,0.43-2.37,2.35
	C112.49,226.59,112.47,254.63,112.47,282.67z"/>
</svg>
