<?xml version="1.0" encoding="utf-8"?>
<!-- Generator: Adobe Illustrator 23.0.1, SVG Export Plug-In . SVG Version: 6.00 Build 0)  -->
<svg version="1.1" id="Layer_1" xmlns="http://www.w3.org/2000/svg" xmlns:xlink="http://www.w3.org/1999/xlink" x="0px" y="0px"
	 viewBox="0 0 180 114.02" style="enable-background:new 0 0 180 114.02;" xml:space="preserve">
<style type="text/css">
	.st0{fill:#D972AD;}
	.st1{fill:#7CAADB;}
	.st2{fill:#FFFFFF;}
	.st3{fill:#010101;}
	.st4{fill:#020202;}
	.st5{fill:#0F0F10;}
	.st6{fill:#040404;}
	.st7{fill:#2E2E2E;}
	.st8{fill:#E5475C;}
</style>
<path class="st0" d="M145.78,32.68c-0.29-0.45-0.66-0.84-1.15-0.98c-0.77-0.22-1.61,0.25-2.01,0.94c-0.4,0.69-0.45,1.53-0.36,2.32
	c0.23,2.06,1.25,3.99,1.27,6.06c0.01,0.65-0.14,1.39-0.69,1.73c-0.38,0.23-0.85,0.22-1.28,0.35c-0.94,0.28-1.56,1.18-2.42,1.66
	c-0.9,0.5-2,0.49-3,0.26s-1.94-0.65-2.93-0.95c-0.6-0.18-1.24-0.32-1.86-0.2c-1.46,0.28-1.72,1.93-1.77,3.19
	c-0.01,0.19,0,0.39,0.1,0.55c0.09,0.15,0.26,0.24,0.42,0.32c2.12,1.06,4.48,1.52,6.83,1.82c3.49,0.44,7.01,0.55,10.52,0.32
	c0.29-0.02,0.59-0.04,0.83-0.2c0.3-0.19,0.45-0.54,0.57-0.88c1.18-3.38,0.43-7.12-0.64-10.53c-0.57-1.81-1.23-3.6-2.13-5.28
	C145.99,33.01,145.89,32.84,145.78,32.68z"/>
<path class="st1" d="M21.94,52.03c0.41-0.31,1.01-0.3,1.92,0.26c2.42,1.47,4.09,3.89,5.03,6.53c1.03,2.92,0.61,5.71,1.06,8.69
	c0.24,1.6,0.85,3.25,2.2,4.23c2.39,1.74,5.6,1.91,7.87,3.88c2.09,1.81,2.77,4.74,4.36,7c2.57,3.66,7.19,5.2,11.57,6.1
	c4.38,0.9,9,1.43,12.75,3.87c1.53,0.99,2.97,2.55,2.82,4.37c-0.15,1.84-1.89,3.15-3.62,3.8c-2.2,0.82-4.59,0.98-6.94,0.98
	c-11.86-0.03-23.68-4.19-32.95-11.59c-2.83-2.26-5.48-4.88-7.04-8.14c-2.16-4.53-2.02-9.81-1.32-14.78c0.44-3.17,1.09-6.32,1.45-9.5
	C21.25,56.35,20.8,52.9,21.94,52.03z"/>
<g>
	<path d="M83.75,45.61c8.38,0,16.76,0,25.14,0c0.82,0,1.6-0.21,1.8,1.1c3.02,19.87-0.47,37.9-15.08,52.68
		c-7.64,7.73-17.19,11.91-27.76,13.68c-16.59,2.79-31.83-0.52-45.35-10.79c-11.57-8.8-18.88-20.4-21.44-34.66
		c-3.81-21.24,2.59-39.36,18.6-53.65C31.93,3.03,46.71-1.24,63.1,0.31c11.82,1.12,22.08,5.84,31.06,13.53
		c0.92,0.79,0.95,1.19,0.05,2.06c-4.83,4.73-9.59,9.51-14.32,14.34c-0.87,0.89-1.39,1.14-2.46,0.2
		c-12.62-11.06-32.74-9.77-44.56,3.3c-7.8,8.63-10.76,18.72-8.44,30.26c3.09,15.38,17.17,26.91,32.03,26.98
		c9.15,0.05,17.23-2.31,23.81-8.84c3.28-3.25,5.54-7.17,6.8-11.64c0.4-1.42,0.2-2.03-1.55-2.01c-8.96,0.09-17.93,0.01-26.89,0.08
		c-1.46,0.01-1.86-0.36-1.84-1.83c0.09-6.43,0.08-12.86,0-19.29c-0.02-1.44,0.34-1.86,1.83-1.85
		C66.99,45.65,75.37,45.61,83.75,45.61z"/>
	<path d="M160.13,71.94c0,2.79-0.03,5.59,0.02,8.38c0.02,1-0.1,1.5-1.33,1.47c-4.28-0.08-8.57-0.07-12.86,0
		c-1.24,0.02-1.48-0.4-1.47-1.56c0.06-5.58-0.01-11.17,0.05-16.75c0.01-1.25-0.31-1.65-1.62-1.63c-5.52,0.08-11.04-0.02-16.56,0.06
		c-1.37,0.02-1.77-0.33-1.74-1.71c0.09-4.09,0.08-8.18,0-12.27c-0.03-1.27,0.31-1.63,1.6-1.61c5.39,0.08,10.78-0.07,16.17,0.09
		c1.88,0.05,2.19-0.57,2.16-2.25c-0.1-5.32,0.01-10.65-0.07-15.97c-0.02-1.34,0.3-1.76,1.7-1.72c4.15,0.1,8.31,0.09,12.47,0
		c1.23-0.02,1.52,0.34,1.5,1.52c-0.06,5.45,0.03,10.91-0.06,16.36c-0.03,1.55,0.28,2.1,1.97,2.06c5.39-0.12,10.78-0.01,16.17-0.07
		c1.29-0.02,1.8,0.23,1.77,1.66c-0.1,4.09-0.09,8.18-0.01,12.27c0.02,1.27-0.29,1.66-1.61,1.65c-5.52-0.08-11.04,0.01-16.56-0.07
		c-1.37-0.02-1.78,0.35-1.73,1.72C160.2,66.35,160.13,69.15,160.13,71.94z"/>
</g>
</svg>
