<?xml version="1.0" encoding="utf-8"?>
<!-- Generator: Adobe Illustrator 23.0.1, SVG Export Plug-In . SVG Version: 6.00 Build 0)  -->
<svg version="1.1" id="Layer_1" xmlns="http://www.w3.org/2000/svg" xmlns:xlink="http://www.w3.org/1999/xlink" x="0px" y="0px"
	 viewBox="0 0 180 179.87" style="enable-background:new 0 0 180 179.87;" xml:space="preserve">
<style type="text/css">
	.st0{fill:#D972AD;}
	.st1{fill:#7CAADB;}
	.st2{fill:#FFFFFF;}
	.st3{fill:#010101;}
	.st4{fill:#020202;}
	.st5{fill:#0F0F10;}
	.st6{fill:#040404;}
	.st7{fill:#2E2E2E;}
	.st8{fill:#E5475C;}
</style>
<path class="st1" d="M77.77,120.8c-0.01,0.34-0.06,0.68-0.16,1.01c-0.76,2.54-4.15,3.51-6.59,2.48s-4.01-3.43-5.08-5.86
	c-0.55-1.24-1.05-2.6-2.14-3.41c-1.49-1.12-3.88-0.72-4.93,0.82c-0.58,0.84-0.8,1.96-1.61,2.58c-1.41,1.07-3.74,0.03-5.04,1.22
	c-0.86,0.78-0.81,2.17-0.41,3.26c0.46,1.27,1.29,2.38,1.82,3.63s0.7,2.79-0.1,3.88c-0.84,1.15-2.46,1.41-3.87,1.23
	c-1.21-0.16-2.4-0.57-3.37-1.31c-1.88-1.42-2.73-3.89-2.75-6.24c-0.03-5.9,4-14.72,10.04-16.63c2.05-0.65,4.25-0.47,6.39-0.29
	c3,0.25,6,0.51,9,0.76c0.97,0.08,2,0.18,2.79,0.75c0.68,0.48,1.09,1.24,1.48,1.97c1.02,1.89,2.04,3.79,3.06,5.68
	C77.05,117.71,77.82,119.26,77.77,120.8z"/>
<path class="st0" d="M124.82,42.85c-0.3,0.76-0.63,1.5-0.98,2.24c-0.36,0.74-0.77,1.48-1.41,2c-1.42,1.13-3.5,0.78-5.17,0.06
	c-4.42-1.91-7.79-6.01-12.46-7.14c-3.66-0.89-7.48,0.2-11.24,0.36c-4.58,0.19-9.2-0.99-13.71-0.17c-4.39,0.81-8.23,3.45-12.52,4.65
	c-1.59,0.44-3.33,0.68-4.87,0.06c-4.32-1.74-1.38-5.73,0.71-7.91c2.59-2.71,5.93-4.64,9.44-5.91c5.08-1.83,10.52-2.36,15.9-2.89
	c5.89-0.58,11.8-1.17,17.71-0.92c5.91,0.25,11.87,1.37,17.14,4.06c1.34,0.68,2.73,1.59,3.15,3.03c0.24,0.81,0.13,1.68-0.01,2.51
	C126.15,38.91,125.58,40.92,124.82,42.85z"/>
<path class="st6" d="M130.16,179.8c-8.05,0.17-15.05-1.66-21.69-4.89c-1.59-0.77-3.02-0.96-4.85-0.7
	c-26.56,3.71-50.34-2.64-70.43-20.65c-21.3-19.09-30.35-43.36-28.1-71.7c0.42-5.25,0.31-9.77-1.8-14.74
	C-6.01,45.25,4.07,9.04,38,1.44c11.95-2.68,23.24-1.72,34.11,3.77c2.68,1.36,5.15,0.15,7.66-0.1c27.17-2.67,50.74,5.01,70.31,24.25
	c13.12,12.9,21.29,28.45,24.16,46.65c1.44,9.12,1.95,18.3-0.16,27.43c-0.38,1.64-0.17,3.18,0.68,4.69
	c12.57,22.39,3.1,63.47-34.48,70.56C136.73,179.35,133.2,180.11,130.16,179.8z M88.38,144.34c6.62,0.29,11.84-0.09,17.01-0.92
	c3.01-0.48,6-1.2,8.9-2.13c15.78-5.06,24.47-18.49,22.19-34.79C134.87,95.02,127.4,88.32,117,84.4c-7.69-2.9-15.76-4.3-23.75-6.01
	c-5.36-1.14-10.78-2.07-15.84-4.3c-3.5-1.54-6.18-3.97-6.35-8.02c-0.18-4.18,1.73-7.5,5.27-9.75c1.2-0.76,2.58-1.25,3.93-1.72
	c4.19-1.46,8.56-1.3,12.87-1c6.61,0.46,12.44,2.72,16.78,8.08c1.41,1.75,3.02,3.38,4.75,4.81c3.44,2.85,9.3,3.15,13.24,0.86
	c3.64-2.11,5.16-5.74,4.33-10.48c-0.4-2.27-1.49-4.24-2.88-6.04c-3.15-4.08-7.21-7.03-11.79-9.31c-11.41-5.68-23.56-7.12-36.05-5.79
	c-8.22,0.88-16.02,3.3-22.81,8.31c-9.34,6.89-12.1,16.47-10.98,27.46c1.05,10.26,6.97,16.87,16.31,20.71
	c8.61,3.54,17.73,5.24,26.73,7.36c5.42,1.28,10.98,2.09,15.92,4.88c6.51,3.67,7.67,11.14,2.65,16.71c-1.78,1.98-3.92,3.43-6.4,4.4
	c-11.89,4.65-25.09,1.19-33.1-8.65c-1.87-2.31-3.59-4.76-6.08-6.5c-6.04-4.21-14.18-1.95-15.9,4.58c-1.34,5.08-0.34,9.85,2.96,14.01
	c2.84,3.58,6.37,6.34,10.36,8.57C70.06,142.53,79.72,144.21,88.38,144.34z"/>
</svg>
