<?xml version="1.0" encoding="utf-8"?>
<!-- Generator: Adobe Illustrator 23.0.1, SVG Export Plug-In . SVG Version: 6.00 Build 0)  -->
<svg version="1.1" id="Layer_1" xmlns="http://www.w3.org/2000/svg" xmlns:xlink="http://www.w3.org/1999/xlink" x="0px" y="0px"
	 viewBox="0 0 180 262.5" style="enable-background:new 0 0 180 262.5;" xml:space="preserve">
<style type="text/css">
	.st0{fill:#093C49;}
	.st1{fill:#021F2D;}
	.st2{fill:#EDAB97;}
	.st3{fill:#BBA3D8;}
	.st4{fill:#58CCC9;}
	.st5{fill:#F8B39D;}
	.st6{fill:#FFC40C;}
	.st7{fill:#75DBCD;}
	.st8{fill:#C9DBBA;}
	.st9{fill:#DCDBA8;}
	.st10{fill:#F5CDA7;}
	.st11{fill:#FAA381;}
	.st12{fill:#005B94;}
	.st13{fill:#FF0000;}
	.st14{fill:#ADC3E5;}
	.st15{fill:#F46E00;}
	.st16{fill:#7104B7;}
	.st17{fill:#A9E5EA;}
	.st18{fill:#D13A95;}
	.st19{fill:#47043C;}
	.st20{fill:#B2AAD4;}
	.st21{fill:#552625;}
	.st22{fill:#B0D3D6;}
	.st23{fill:#F2800F;}
	.st24{fill:#47B649;}
	.st25{fill:none;stroke:#5D1717;stroke-width:0.4553;stroke-miterlimit:10;}
	.st26{fill:#F8951D;}
	.st27{fill:#FEFEFE;}
	.st28{fill:#00304D;}
	.st29{fill:#D4593B;}
	.st30{fill:#FE6D68;}
	.st31{fill:none;}
	.st32{fill:#FFFFFF;}
	.st33{fill:#13D3EA;}
	.st34{fill:#98D5F1;}
	.st35{fill:#78CBEE;}
	.st36{fill:#002029;}
	.st37{fill:#FF2D09;}
	.st38{fill:#004359;}
	.st39{fill:#C71B05;}
	.st40{fill:none;stroke:#C71B05;stroke-width:0.4738;stroke-miterlimit:10;}
	.st41{fill-rule:evenodd;clip-rule:evenodd;fill:#002029;}
	.st42{fill-rule:evenodd;clip-rule:evenodd;fill:#004359;}
	.st43{fill:#3F0606;}
</style>
<g>
	<path class="st1" d="M90.9,1c-1.4-0.5-3.1-0.8-4.8-1c0,0-0.1,0-0.1,0C85.6,0,85.2,0,84.8,0c-0.1,0-0.1,0-0.2,0c-0.4,0-0.8,0-1.1,0
		c-0.1,0-0.1,0-0.2,0c-0.4,0-0.8,0-1.2,0.1c-0.1,0-0.2,0-0.3,0c-0.3,0-0.7,0.1-1,0.1c-0.2,0-0.4,0.1-0.5,0.1
		c-0.3,0.1-0.5,0.1-0.8,0.2c-0.2,0.1-0.4,0.1-0.6,0.2c-0.2,0.1-0.5,0.1-0.7,0.2C78.1,1,78,1.1,78,1.1c-0.1,0-0.2,0.1-0.3,0.1
		c0,0,0,0-0.1,0c-0.2,0.1-0.4,0.2-0.6,0.3c-0.1,0-0.2,0.1-0.3,0.2c-0.1,0.1-0.3,0.1-0.4,0.2C76.1,1.9,76,2,75.8,2.1
		c-0.1,0.1-0.2,0.2-0.4,0.3c-0.1,0.1-0.3,0.2-0.4,0.3c-0.1,0.1-0.2,0.1-0.3,0.2c-0.1,0.1-0.3,0.3-0.4,0.4c-0.1,0.1-0.3,0.2-0.4,0.3
		c-0.1,0.1-0.1,0.1-0.2,0.1c-0.2,0.2-0.3,0.4-0.5,0.6c-0.1,0.1-0.2,0.2-0.3,0.3c0,0,0,0.1-0.1,0.1c-0.3,0.4-0.5,0.7-0.7,1.1
		c-0.2,0.4-0.4,0.8-0.5,1.2c0,0,0,0,0,0.1c0,0,0,0,0,0c-0.1,0.4-0.2,0.7-0.3,1.1c0,0,0,0.1,0,0.1c0,0,0,0,0,0.1
		c-0.1,0.3-0.1,0.6-0.1,1c0,0.1,0,0.1,0,0.2c0,0,0,0.1,0,0.1c0,0.3,0,0.6,0,0.9c0,0.1,0,0.2,0,0.3c0,0.1,0,0.1,0,0.2c0,0,0,0,0,0
		c0,0,0,0,0,0c0,0.4,0.1,0.7,0.1,1.1c0,0,0,0,0,0.1c0.1,0.4,0.1,0.8,0.3,1.2c0,0-1.2,1-1.1,2.3c0,0-9.8,7.4-19.6,5.1
		c0,0,0.4,2.9,4,3.6c0,0-7.1,1-10.7-1.2c0,0,2.8,8.5,13,7.9c3.5-0.2,6.1-1.3,8.1-2.6c3-2,5-5.1,5.9-8.6l0.6-2.5
		c0.3,0,0.7-0.1,1.2-0.5c0,0,0,0,0,0c1.4,2.7,3.3,4.9,4.8,6.4c2.6-0.2,2.6-0.2,2.6-0.2s15-10,16.7-14.7C97.2,8.5,96.6,3,90.9,1z"/>
	<path class="st2" d="M117.9,69.5l-2.4,0.3v0l0,0l-52,7.2c-4,0.6-7.1,3.6-7.8,7.6l0,0.2c-1,6,4.1,11.3,10.2,10.5l50.3-6.3
		c3-0.4,5.2-2.8,5.4-5.8l0.4-8.4l0.1-1.6C122.1,71,120.2,69.2,117.9,69.5z"/>
	<path class="st3" d="M174.6,22.4c-4.1-4.1-9.8-6-16.2-5.3c-6.3,0.7-12.4,3.7-17.3,8.6c-4.9,4.9-7.9,11-8.6,17.3
		c-0.2,1.5-0.2,2.9-0.1,4.3c-0.1,0.2-0.1,0.4-0.1,0.7c1.1,9.1-6.8,20.8-7.9,22.4l-1-1c-0.3-0.3-0.9-0.3-1.2,0L108.6,83
		c-0.3,0.3-0.3,0.9,0,1.2l4,4c0.3,0.3,0.9,0.3,1.2,0l13.6-13.6c0.3-0.3,0.3-0.9,0-1.2l-1-1c1.6-1.1,13.3-9,22.4-7.9
		c0.1,0,0.3,0,0.4,0c0.7,0.1,1.4,0.1,2.2,0.1c0.8,0,1.7,0,2.5-0.1c6.3-0.7,12.4-3.7,17.3-8.6c4.9-4.9,7.9-11,8.6-17.3
		C180.5,32.3,178.7,26.5,174.6,22.4z M176.2,42.2l-0.6-0.6l1-1C176.5,41.1,176.3,41.7,176.2,42.2z M173.9,47.6l-2.2-2.2l3.6-3.6
		l0.7,0.7C175.6,44.2,174.9,46,173.9,47.6z M162.3,58.9l-2-2l3.6-3.6l2.8,2.8C165.3,57.2,163.8,58.1,162.3,58.9z M156.8,61l-0.3-0.3
		l3.6-3.6l2,2C160.3,59.9,158.6,60.6,156.8,61z M153.7,61.6c-1.4,0.1-2.7,0.2-4,0l-1.2-1.2l3.6-3.6l3.9,3.9l-0.6,0.6
		C154.9,61.4,154.3,61.5,153.7,61.6z M135.9,40.6l0.9,0.9l-1.3,1.3C135.6,42.1,135.7,41.3,135.9,40.6z M137.9,35l2.7,2.7l-3.6,3.6
		l-1-1C136.4,38.4,137.1,36.7,137.9,35z M140.9,30.3l3.5,3.5l-3.6,3.6l-2.8-2.8C138.9,33.2,139.8,31.7,140.9,30.3z M149.1,23.2l3,3
		l-3.6,3.6l-3.6-3.6C146.2,25,147.7,24.1,149.1,23.2z M154.5,20.9l1.5,1.5l-3.6,3.6l-2.9-2.9C151,22.1,152.8,21.4,154.5,20.9z
		 M170.9,23.1l-3.1,3.1l-3.5-3.5l1.9-1.9C167.9,21.3,169.5,22,170.9,23.1z M176.6,32l-1.5,1.5l-3.5-3.5l2.9-2.9
		C175.5,28.5,176.2,30.2,176.6,32z M174.9,33.7l-3.6,3.6l-3.5-3.5l3.6-3.6L174.9,33.7z M152.1,56.4l-3.5-3.5l3.6-3.6l3.5,3.5
		L152.1,56.4z M156,53l3.9,3.9l-3.6,3.6l-3.9-3.9L156,53z M135.5,47.8l1.6,1.6l-1.1,1.1C135.8,49.6,135.6,48.7,135.5,47.8z
		 M135.4,47.3c-0.1-1.3-0.1-2.7,0-4l1.6-1.6l3.9,3.9l-3.6,3.6L135.4,47.3z M160.8,19.9c0.1,0,0.2,0,0.4,0l2.7,2.7l-3.6,3.6l-3.9-3.9
		l2.3-2.3C159.4,20,160.1,19.9,160.8,19.9z M160,26.5l-3.6,3.6l-3.9-3.9l3.6-3.6L160,26.5z M160.2,26.7l3.5,3.5l-3.6,3.6l-3.5-3.5
		L160.2,26.7z M148.9,45.5l3.6-3.6l3.3,3.3l-3.6,3.6L148.9,45.5z M152,49.1l-3.6,3.6l-3.3-3.3l3.6-3.6L152,49.1z M152.7,41.7
		l3.6-3.6l3.3,3.3L156,45L152.7,41.7z M156.5,37.9l3.6-3.6l3.3,3.3l-3.6,3.6L156.5,37.9z M160.4,34l3.6-3.6l3.3,3.3l-3.6,3.6
		L160.4,34z M159.9,34l-3.6,3.6l-3.5-3.5l3.6-3.6L159.9,34z M156.1,37.9l-3.6,3.6l-3.5-3.5l3.6-3.6L156.1,37.9z M152.3,41.7
		l-3.6,3.6l-3.5-3.5l3.6-3.6L152.3,41.7z M148.5,45.5l-3.6,3.6l-3.5-3.5l3.6-3.6L148.5,45.5z M141.1,45.4l-3.9-3.9l3.6-3.6l3.9,3.9
		L141.1,45.4z M141.1,45.8l3.5,3.5l-3.6,3.6l-3.5-3.5L141.1,45.8z M144.8,49.5l3.3,3.3l-3.6,3.6l-3.3-3.3L144.8,49.5z M148.4,53.1
		l3.5,3.5l-3.6,3.6l-3.5-3.5L148.4,53.1z M152.4,49.1l3.6-3.6l3.5,3.5l-3.6,3.6L152.4,49.1z M156.3,45.2l3.6-3.6l3.5,3.5l-3.6,3.6
		L156.3,45.2z M160.1,41.4l3.6-3.6l3.5,3.5l-3.6,3.6L160.1,41.4z M163.9,37.6l3.6-3.6l3.5,3.5l-3.6,3.6L163.9,37.6z M167.5,33.5
		l-3.3-3.3l3.6-3.6l3.3,3.3L167.5,33.5z M164,30l-3.5-3.5l3.6-3.6l3.5,3.5L164,30z M164.1,22.4l-2.5-2.5c1.5,0.1,2.9,0.3,4.3,0.7
		L164.1,22.4z M156.1,22.2l-1.3-1.3c1.1-0.3,2.3-0.6,3.4-0.7L156.1,22.2z M152.3,26.4l3.9,3.9l-3.6,3.6l-3.9-3.9L152.3,26.4z
		 M152.4,34.1l-3.6,3.6l-3.9-3.9l3.6-3.6L152.4,34.1z M148.6,37.9l-3.6,3.6l-3.9-3.9l3.6-3.6L148.6,37.9z M137.3,49.6l3.5,3.5
		l-2.3,2.3c-1-1.4-1.8-3-2.4-4.7L137.3,49.6z M141,53.4l3.3,3.3l-2.3,2.3c-0.8-0.5-1.5-1.1-2.2-1.8c-0.4-0.4-0.8-0.9-1.2-1.4
		L141,53.4z M144.6,56.9l3.5,3.5l-0.8,0.8c-1.8-0.4-3.5-1.1-5-2.1L144.6,56.9z M148.3,60.6l0.9,0.9c-0.5-0.1-1-0.1-1.5-0.3
		L148.3,60.6z M156.2,60.9l0.2,0.2c-0.2,0-0.3,0.1-0.5,0.1L156.2,60.9z M160.1,56.7l-3.9-3.9l3.6-3.6l3.9,3.9L160.1,56.7z M160,49
		l3.6-3.6l3.9,3.9l-3.6,3.6L160,49z M163.8,45.1l3.6-3.6l3.9,3.9l-3.6,3.6L163.8,45.1z M167.6,41.3l3.6-3.6l3.9,3.9l-3.6,3.6
		L167.6,41.3z M176.7,40l-1.3,1.3l-3.9-3.9l3.6-3.6l2,2C177.1,37.2,177,38.6,176.7,40z M175.3,33.7l1.4-1.4c0.2,1,0.3,2,0.4,3.1
		L175.3,33.7z M174.3,26.7l-3,3l-3.3-3.3l3.1-3.1c0.5,0.4,0.9,0.8,1.4,1.2C173.2,25.2,173.8,25.9,174.3,26.7z M144.7,26.4l3.6,3.6
		l-3.6,3.6l-3.6-3.6c0.6-0.8,1.3-1.6,2.1-2.3C143.6,27.3,144.1,26.8,144.7,26.4z M130.1,66.8c1.7-3.2,3.7-7.3,4.7-11.7
		c0.8,1.5,1.8,2.8,3,4.1c1.2,1.2,2.5,2.2,3.9,3C137.4,63.2,133.2,65.1,130.1,66.8z M166.9,55.9l-2.8-2.8l3.6-3.6l2.9,2.9
		c-0.4,0.5-0.9,1-1.4,1.5C168.5,54.6,167.7,55.3,166.9,55.9z M170.8,52.1l-2.9-2.9l3.6-3.6l2.3,2.3C172.9,49.3,172,50.8,170.8,52.1z
		"/>
	<path class="st4" d="M61.3,123.3l34,43.4c3.8,4.9,10.7,6.1,15.9,2.8l0.2-0.1c5.9-3.7,7.5-11.6,3.5-17.3l-31.5-44.2
		c0,0-2.4-5.9-15.9-0.4C56.6,112,61.3,123.3,61.3,123.3z"/>
	<path class="st5" d="M120.6,164.1l-9.3,82.5l-22.2,4.4l8.6-89.3c0.5-5.6,5.1-9.9,10.7-10.3l0.2,0
		C115.7,151.1,121.4,157.1,120.6,164.1z"/>
	<polygon class="st1" points="90.4,237.5 89.6,246.2 111.2,248.2 112.1,239.6 	"/>
	<path class="st4" d="M118.4,183.3l2.2-19.2c0.8-7-4.6-14.2-11.6-13.8l-1.5,0.7c-5.6,0.3-10,5.1-10.5,10.6l-1.1,20L118.4,183.3z"/>
	<path class="st3" d="M88.4,258.9C88.4,258.9,88.5,258.9,88.4,258.9c0.1,0,0.2,0,0.3,0c0,0,0,0,0,0c0.2,0,0.4,0,0.8,0.1
		c0.1,0,0.3,0,0.5,0c0.1,0,0.3,0,0.4,0c0.3,0,0.6,0.1,1,0.1c0.2,0,0.5,0,0.7,0.1c0.2,0,0.4,0,0.7,0.1c0.7,0.1,1.5,0.1,2.4,0.2
		c0.3,0,0.7,0.1,1,0.1c0.1,0,0.3,0,0.4,0c0.5,0,1,0.1,1.5,0.1c0.7,0.1,1.3,0.1,2.1,0.2c5.6,0.5,13.8,1.3,25.8,2.5
		c1.1-11.4-9.7-13.8-9.7-13.8l-26.8-2.6L88.4,258.9C88.4,258.9,88.4,258.9,88.4,258.9C88.4,258.9,88.4,258.9,88.4,258.9
		C88.4,258.9,88.4,258.9,88.4,258.9z"/>
	<path class="st5" d="M83.5,181.6l-53.7,63.4l-20.9-8.7l56.9-69.4c3.6-4.3,9.8-5.4,14.6-2.6l0.2,0.1C86.6,168,88,176.2,83.5,181.6z"
		/>
	<polygon class="st1" points="14,230 8.9,236.3 29.8,244.9 35.2,238.7 	"/>
	<path class="st3" d="M29.8,244.9l-20.9-8.7L0,246.4c0,0,0,0,0,0c0,0,0,0,0,0c0,0,0,0,0.1,0c0,0,0,0,0,0c0,0,0.1,0,0.1,0
		c0.1,0,0.3,0.1,0.5,0.2c0,0,0,0,0,0c0,0,0.1,0,0.1,0.1c0,0,0.1,0,0.1,0c0.1,0,0.2,0.1,0.3,0.1c0.3,0.1,0.7,0.3,1.1,0.5
		c0.2,0.1,0.3,0.1,0.5,0.2c2,0.8,5.4,2.2,11.2,4.6v0c5,2.1,11.8,4.9,20.9,8.7C39.4,250.3,29.8,244.9,29.8,244.9z"/>
	<path class="st4" d="M89,168.5l-7.9-41c1.1-1.4,1.7-2.7,1.5-3.9c-1.3-14.5-2.5-19.7-2.5-19.7l-28-1.2c0,0-3.9,13.5,2.5,27l9.4,39.3
		l-10.9,13.3L71,196.3l12.5-14.7c0.3-0.3,0.5-0.7,0.8-1C87.9,177.9,89.9,173.3,89,168.5z"/>
	<path class="st6" d="M84.6,35.5c0,0,12,26.8,4.3,34.8c-4,3.5-4,3.5-4,3.5s-5.3,15.9-4.4,31.8c-14.7,3.2-27.6-4.7-27.6-4.7
		s7.9-51.7,12.9-58.1c5-6.5,13.1-8.9,13.1-8.9L84.6,35.5z"/>
	<path class="st6" d="M65.5,91.4c0,0,3.5-48.6,9.4-55.9c-2.7,1.4-6.3,3.7-9.1,7.2C62,47.6,56.6,78.3,54.2,93L65.5,91.4z"/>
	<path class="st5" d="M80.5,105.5c-0.3-4.5,0-9.1,0.5-13.2c-15.4-0.1-22.7-1.9-26.1-3.5c-1.2,7-2.7,14-2.7,14S65.8,108.7,80.5,105.5
		z"/>
	<path class="st6" d="M78.4,100.2c0,0.8-0.4,1.5-0.9,1.5c-0.5,0-0.9-0.7-0.9-1.5c0-0.8,0.4-1.5,0.9-1.5
		C78,98.6,78.4,99.3,78.4,100.2z"/>
	<path class="st5" d="M97.2,8.5c-5.4,4.6-14,6.1-14,6.1s-0.4,1.4-1.3,4c-0.7-1.5-2.2-2.4-3.9-2.3c-2.2,0.2-3.9,2.1-3.7,4.3
		c0.1,1.9,1.6,3.4,3.4,3.7L76.1,34c-0.1,0.8,0,1.5,0.3,2.3c0.6,1.5,1.9,4,3.6,5.3c1.5,1.2,3.8,0.1,4-1.9l1.2-11
		c2.5,1.8,5.3,2.8,8.3,2.2C98.6,30.1,97.2,8.5,97.2,8.5z"/>
	<path class="st5" d="M131.1,76.5c0.1-0.3,0.1-0.6,0-1l0,0c-0.2-1.4-1.6-2.4-3-2.1l-1.4,0.3l0,0c-0.7-1.8-2.6-2.7-4.5-2.2l-0.1,0
		c-2.9,0.8-5.6,2.1-7.9,4l-1.4,1.1L84,82.5l-1.2-32.5c-0.2-5-4.7-8.7-9.6-8L73,42c-4.3,0.6-7.5,4.4-7.3,8.7l1.6,42.1
		c0,0.6,0.1,1.2,0.3,1.8c0.9,4.4,5.1,7.6,9.8,6.7l45.8-8.8c0.7-0.1,1.4-0.4,2-0.8l0,0c0,0,4.1-1.4,4.9-5.4
		C130.7,83.1,131,78.5,131.1,76.5z"/>
	<path class="st6" d="M73.1,41.9L73,42c-4.3,0.6-7.5,4.4-7.3,8.7l0.4,10.4c3.8-1.3,10.5-3,17-1.9l-0.3-9.3
		C82.5,45,78.1,41.3,73.1,41.9z"/>
</g>
</svg>
