<?xml version="1.0" encoding="utf-8"?>
<!-- Generator: Adobe Illustrator 23.0.1, SVG Export Plug-In . SVG Version: 6.00 Build 0)  -->
<svg version="1.1" id="Layer_1" xmlns="http://www.w3.org/2000/svg" xmlns:xlink="http://www.w3.org/1999/xlink" x="0px" y="0px"
	 viewBox="0 0 180 161.1" style="enable-background:new 0 0 180 161.1;" xml:space="preserve">
<style type="text/css">
	.st0{fill:#093C49;}
	.st1{fill:#021F2D;}
	.st2{fill:#EDAB97;}
	.st3{fill:#BBA3D8;}
	.st4{fill:#58CCC9;}
	.st5{fill:#F8B39D;}
	.st6{fill:#FFC40C;}
	.st7{fill:#75DBCD;}
	.st8{fill:#C9DBBA;}
	.st9{fill:#DCDBA8;}
	.st10{fill:#F5CDA7;}
	.st11{fill:#FAA381;}
	.st12{fill:#005B94;}
	.st13{fill:#FF0000;}
	.st14{fill:#ADC3E5;}
	.st15{fill:#F46E00;}
	.st16{fill:#7104B7;}
	.st17{fill:#A9E5EA;}
	.st18{fill:#D13A95;}
	.st19{fill:#47043C;}
	.st20{fill:#B2AAD4;}
	.st21{fill:#552625;}
	.st22{fill:#B0D3D6;}
	.st23{fill:#F2800F;}
	.st24{fill:#47B649;}
	.st25{fill:none;stroke:#5D1717;stroke-width:0.4553;stroke-miterlimit:10;}
	.st26{fill:#F8951D;}
	.st27{fill:#FEFEFE;}
	.st28{fill:#00304D;}
	.st29{fill:#D4593B;}
	.st30{fill:#FE6D68;}
	.st31{fill:none;}
	.st32{fill:#FFFFFF;}
	.st33{fill:#13D3EA;}
	.st34{fill:#98D5F1;}
	.st35{fill:#78CBEE;}
	.st36{fill:#002029;}
	.st37{fill:#FF2D09;}
	.st38{fill:#004359;}
	.st39{fill:#C71B05;}
	.st40{fill:none;stroke:#C71B05;stroke-width:0.4738;stroke-miterlimit:10;}
	.st41{fill-rule:evenodd;clip-rule:evenodd;fill:#002029;}
	.st42{fill-rule:evenodd;clip-rule:evenodd;fill:#004359;}
	.st43{fill:#3F0606;}
</style>
<g>
	<path class="st5" d="M107.3,63.8l12.4-14.9c2.4-2.9,1.8-7.3-1.4-9.4l-0.1-0.1c-2.6-1.7-6.1-1.2-8.2,1.1L97.1,55
		c-2.6,3-2.1,7.6,1.1,9.9l0.1,0.1C101.1,66.9,105,66.4,107.3,63.8z"/>
	<line class="st25" x1="120.3" y1="37.4" x2="121.6" y2="35"/>
	<path class="st5" d="M84,103.7c0,0-4,16.1,5.9,21.1c6.2,3.2,20.8,8.8,30.8,12.6c5.6,2.1,11.8-0.6,14.1-6.1l0.1-0.2
		c2.1-5.2,0.1-11.2-4.8-13.9L102.6,102L84,103.7z"/>
	<path class="st26" d="M102.6,102L84,103.7c0,0-4,16.1,5.9,21.1c4.2,2.1,12.1,5.4,19.8,8.4c0.6-13.2,5.9-19.7,8.9-22.4L102.6,102z"
		/>
	<path class="st5" d="M8.9,138.9l43.7-21.6c5.3-2.6,11.8-0.2,14.1,5.3l0.1,0.2c2.1,5-0.1,10.7-4.9,13.2l-43.6,22"/>
	<polygon class="st27" points="8.9,138.9 18.3,157.9 30.4,151.8 21,132.9 	"/>
	
		<rect x="20.3" y="133.8" transform="matrix(0.8961 -0.4438 0.4438 0.8961 -61.8593 24.56)" class="st28" width="2.5" height="21.2"/>
	<g>
		<g>
			<path class="st29" d="M11.8,161.1l-12.3-24.9c3.5-1.7,9.3,2.7,9.3,2.7l9.4,19L11.8,161.1z"/>
			<path class="st29" d="M9.6,143.7c0.2,0.4,0,0.8-0.4,1c-0.4,0.2-0.8,0-1-0.4l-4-8c0.8,0.3,1.5,0.6,2.2,1L9.6,143.7z"/>
		</g>
	</g>
	<path class="st5" d="M103,105.8c0,0-11.9-11.4-22.2-6.3c-6.5,3.2-20.1,11.7-29.3,17.6c-5.2,3.3-6.8,10.1-3.7,15.4l0.1,0.2
		c2.9,5,9.1,6.9,14.4,4.6l16.2-7.2c8.7-3.9,15.9-10.3,20.9-18.4L103,105.8z"/>
	<path class="st26" d="M101,112.1l3.6-4.8c0,0-12.4-13.5-23.7-7.8c-4.3,2.2-11.7,6.1-19.1,11.1c10.5,8.6,12.6,17,12.9,21.1l3.5-1.6
		C87.2,126.2,95,119.9,101,112.1z"/>
	<path class="st28" d="M89.4,98.7c-3.7,3-17.3,12.2-22.6,16.6c1.3,1.4,2.9,4,4.2,5.6c8.7-8.4,22.4-19.9,22.4-19.9s0.1-0.8,0-1.7
		c-1.2-0.4-2.5-0.6-3.7-0.8C89.5,98.6,89.5,98.7,89.4,98.7z"/>
	<path class="st5" d="M127.3,118.1l43.3,19.5c0,0,5.5-4.4,9-2.8l-11.2,24.5l-49.4-22.7c-5.3-2.4-7.4-8.8-4.6-13.9l0.1-0.2
		C116.8,117.8,122.5,115.9,127.3,118.1z"/>
	<path class="st29" d="M168.3,159.2l11.2-24.5c-3.4-1.6-9,2.8-9,2.8l-8.6,18.7L168.3,159.2z"/>
	<polygon class="st27" points="161.9,156.3 170.5,137.6 158.5,132.2 150,150.8 	"/>
	
		<rect x="148.1" y="142.1" transform="matrix(0.4171 -0.9089 0.9089 0.4171 -37.9501 227.4837)" class="st28" width="20.6" height="2.4"/>
	<path class="st27" d="M169.9,142.3c-0.2,0.4,0,0.8,0.4,1c0.4,0.2,0.8,0,1-0.4l3.6-7.9c-0.8,0.3-1.5,0.7-2.1,1L169.9,142.3z"/>
	<line class="st5" x1="124.6" y1="139.2" x2="118.9" y2="136.5"/>
	<path class="st5" d="M82.6,55.6l-17.2,8.9c-3.4,1.7-4.5,6-2.3,9.2l0.1,0.1c1.8,2.6,5.1,3.5,8,2.2l17.5-8.3c3.6-1.7,4.9-6.2,2.8-9.5
		L91.3,58C89.5,55.1,85.7,54,82.6,55.6z"/>
	<g>
		<g>
			<g>
				<path class="st5" d="M40.6,88.3c0,0-1.8,2.3-0.8,4.9c1,2.6,3.3,6.5,3.3,6.5l2.5-4.8L40.6,88.3z"/>
				<path class="st5" d="M64.7,65.4L41.4,87.1c-1.4,1.3-1.6,3.4-0.6,4.9l2.9,4.4l-0.8,1.1c-0.5,0.7-0.4,1.6,0.1,2.2l0,0
					c0.7,0.7,1.8,0.8,2.5,0.1l27.1-25.9c1.8-1.7,2.3-4.5,1.2-6.7l-0.1-0.1C72,63.6,67.5,62.8,64.7,65.4z"/>
				<line class="st5" x1="40.3" y1="94.5" x2="41.4" y2="92.9"/>
				<line class="st5" x1="41.3" y1="96.7" x2="42.6" y2="94.8"/>
				<path class="st5" d="M53.2,92.4l-0.4,1.2c-0.7,1.9-1.7,3.7-3.1,5.1l0,0c-0.9,1-2.4,1.1-3.4,0.3l0,0L53.2,92.4z"/>
			</g>
			<line class="st5" x1="70" y1="76.5" x2="73.7" y2="72.6"/>
		</g>
	</g>
	<g>
		<g>
			<path class="st28" d="M99.8,49.5c0,0,12.6,10,3.7,52.5c-10.2,2.8-15.7,1.7-21.3-1.1c0.8-28.5-0.9-38.3,2.2-43.1
				c3.1-4.8,8.5-9.8,8.5-9.8L99.8,49.5z"/>
			<path class="st28" d="M99.8,49.5L97,49c0,0,10.2,18-1.7,39.6c-6.1,9.4,0.2,8.3,2,4.9c1.8-3.4,6.6-1.9,6.2,8.6
				C112.4,59.6,99.8,49.5,99.8,49.5z"/>
		</g>
		<path class="st28" d="M84.3,57.9c-3.1,4.8-1.4,14.5-2.2,43.1c1.7,0.8,3.5,1.5,5.3,2c0-5.4-0.2-15.9-0.5-26.6
			c-0.5-15.5,5.9-28.2,5.9-28.2S87.5,53.2,84.3,57.9z"/>
	</g>
	<path class="st5" d="M88.6,67.7c3.6-1.7,4.9-6.2,2.8-9.5L91.3,58c-1.8-3-5.6-4-8.7-2.4l-8.8,4.5c4.3,5.3,5.4,9.9,5.7,11.8
		L88.6,67.7z"/>
	<g>
		<path d="M99.7,36C99.7,36,99.7,36,99.7,36C99.7,36,99.7,36,99.7,36C99.7,36,99.7,36,99.7,36c0.2,0,0.5-0.2,0.5-0.4
			c0-0.2-0.2-0.4-0.4-0.5c0,0,0,0,0,0c0,0,0,0,0,0c0,0,0,0,0,0c0.2,0,0.4-0.2,0.4-0.5c0-0.2-0.2-0.4-0.5-0.4c0,0,0,0,0,0
			c0,0,0,0,0,0c0,0,0,0,0,0c0.2,0,0.4-0.3,0.4-0.5c0-0.2-0.3-0.4-0.5-0.4l0,0c0,0,0,0,0,0c0,0,0,0,0,0c0.2-0.1,0.4-0.3,0.3-0.5
			c-0.1-0.2-0.3-0.4-0.5-0.3c0,0,0,0,0,0c0,0,0,0,0,0c0,0,0,0,0,0c0.2-0.1,0.4-0.3,0.3-0.6c-0.1-0.2-0.3-0.4-0.6-0.3c0,0,0,0,0,0
			c0,0,0,0,0,0c0,0,0,0,0,0c0.2-0.1,0.3-0.4,0.3-0.6c-0.1-0.2-0.4-0.3-0.6-0.3c0,0,0,0,0,0c0,0,0,0,0,0c0,0,0,0,0,0
			c0.2-0.1,0.3-0.4,0.2-0.6c-0.1-0.2-0.4-0.3-0.6-0.2c0,0,0,0,0,0c0,0,0,0,0,0c0,0,0,0,0,0c0.2-0.1,0.3-0.4,0.2-0.6
			c-0.1-0.2-0.4-0.3-0.6-0.2c0,0,0,0,0,0c0,0,0,0,0,0c0,0,0,0,0,0c0.2-0.1,0.2-0.4,0.1-0.6c-0.1-0.2-0.4-0.2-0.6-0.1c0,0,0,0,0,0
			c0,0,0,0,0,0c0,0,0,0,0,0c0.2-0.2,0.2-0.4,0.1-0.6s-0.4-0.2-0.6-0.1c0,0,0,0,0,0c0,0,0,0,0,0c0,0,0,0,0,0c0.2-0.2,0.2-0.5,0-0.6
			c-0.2-0.2-0.5-0.2-0.6,0c0,0,0,0,0,0c0,0,0,0,0,0c0,0,0,0,0,0c0.2-0.2,0.1-0.5,0-0.6c-0.2-0.2-0.5-0.1-0.6,0c0,0,0,0,0,0
			c0,0,0,0,0,0c0,0,0,0,0,0c0.1-0.2,0.1-0.5-0.1-0.6c-0.2-0.1-0.5-0.1-0.6,0.1c0,0,0,0,0,0c0,0,0,0,0,0c0,0,0,0,0,0
			c0.1-0.2,0.1-0.5-0.1-0.6c-0.2-0.1-0.5-0.1-0.6,0.1c0,0,0,0,0,0c0,0,0,0,0,0c0,0,0,0,0,0c0.1-0.2,0-0.5-0.2-0.6
			c-0.2-0.1-0.5,0-0.6,0.2c0,0,0,0,0,0c0,0,0,0,0,0c0,0,0,0,0,0c0.1-0.2,0-0.5-0.2-0.6c-0.2-0.1-0.5,0-0.6,0.2c0,0,0,0,0,0
			c0,0,0,0,0,0c0,0,0,0,0,0c0.1-0.2,0-0.5-0.3-0.6c-0.2-0.1-0.5,0-0.6,0.3c0,0,0,0,0,0c0,0,0,0,0,0c0,0,0,0,0,0
			c0.1-0.2-0.1-0.5-0.3-0.5c-0.2-0.1-0.5,0.1-0.5,0.3c0,0,0,0,0,0c0,0,0,0,0,0c0,0,0,0,0,0c0-0.2-0.1-0.5-0.4-0.5
			c-0.2,0-0.5,0.1-0.5,0.4c0,0,0,0,0,0l0,0c0,0,0,0,0,0c0-0.2-0.2-0.5-0.4-0.5c-0.2,0-0.5,0.2-0.5,0.4c0,0,0,0,0,0c0,0,0,0,0,0
			c0,0,0,0,0,0c0-0.2-0.2-0.4-0.4-0.5c-0.2,0-0.4,0.2-0.5,0.4c0,0,0,0,0,0c0,0,0,0,0,0c0,0,0,0,0,0c0-0.2-0.2-0.4-0.5-0.4
			c-0.2,0-0.4,0.2-0.4,0.5c0,0,0,0,0,0l0,0c0,0,0,0,0,0c0-0.2-0.3-0.4-0.5-0.4c-0.2,0-0.4,0.3-0.4,0.5c0,0,0,0,0,0c0,0,0,0,0,0
			c0,0,0,0,0,0c-0.1-0.2-0.3-0.4-0.5-0.3c-0.2,0.1-0.4,0.3-0.3,0.5c0,0,0,0,0,0c0,0,0,0,0,0c0,0,0,0,0,0c-0.1-0.2-0.3-0.4-0.6-0.3
			c-0.2,0.1-0.4,0.3-0.3,0.6c0,0,0,0,0,0c0,0,0,0,0,0c0,0,0,0,0,0c-0.1-0.2-0.4-0.3-0.6-0.2c-0.2,0.1-0.3,0.4-0.2,0.6c0,0,0,0,0,0
			c0,0,0,0,0,0c0,0,0,0,0,0c-0.1-0.2-0.4-0.3-0.6-0.2c-0.2,0.1-0.3,0.4-0.2,0.6c0,0,0,0,0,0c0,0,0,0,0,0c0,0,0,0,0,0
			c-0.1-0.2-0.4-0.3-0.6-0.2c-0.2,0.1-0.3,0.4-0.2,0.6c0,0,0,0,0,0c0,0,0,0,0,0c0,0,0,0,0,0c-0.1-0.2-0.4-0.2-0.6-0.1
			c-0.2,0.1-0.2,0.4-0.1,0.6c0,0,0,0,0,0c0,0,0,0,0,0c0,0,0,0,0,0c-0.2-0.2-0.4-0.2-0.6-0.1c-0.2,0.2-0.2,0.4-0.1,0.6c0,0,0,0,0,0
			c0,0,0,0,0,0c0,0,0,0,0,0c-0.2-0.2-0.5-0.2-0.6,0c-0.2,0.2-0.2,0.5,0,0.6c0,0,0,0,0,0c0,0,0,0,0,0c0,0,0,0,0,0
			c-0.2-0.2-0.5-0.1-0.6,0c-0.2,0.2-0.1,0.5,0,0.6c0,0,0,0,0,0c0,0,0,0,0,0c0,0,0,0,0,0c-0.2-0.1-0.5-0.1-0.6,0.1
			c-0.1,0.2-0.1,0.5,0.1,0.6c0,0,0,0,0,0c0,0,0,0,0,0c0,0,0,0,0,0c-0.2-0.1-0.5-0.1-0.6,0.1c-0.1,0.2-0.1,0.5,0.1,0.6c0,0,0,0,0,0
			c0,0,0,0,0,0c0,0,0,0,0,0c-0.2-0.1-0.5,0-0.6,0.2c-0.1,0.2,0,0.5,0.2,0.6c0,0,0,0,0,0c0,0,0,0,0,0c0,0,0,0,0,0
			c-0.2-0.1-0.5,0-0.6,0.2c-0.1,0.2,0,0.5,0.2,0.6c0,0,0,0,0,0c0,0,0,0,0,0c0,0,0,0,0,0c-0.2-0.1-0.5,0-0.6,0.3
			c-0.1,0.2,0,0.5,0.3,0.6c0,0,0,0,0,0c0,0,0,0,0,0c0,0,0,0,0,0c-0.2-0.1-0.5,0.1-0.5,0.3C76.7,32.7,76.8,33,77,33c0,0,0,0,0,0
			c0,0,0,0,0,0l0,0c-0.2,0-0.5,0.1-0.5,0.4c0,0.2,0.1,0.5,0.4,0.5c0,0,0,0,0,0c0,0,0,0,0,0c0,0,0,0,0,0c-0.2,0-0.5,0.2-0.5,0.4
			c0,0.2,0.2,0.5,0.4,0.5c0,0,0,0,0,0c0,0,0,0,0,0l0,0c-0.2,0-0.4,0.2-0.4,0.4c0,0.2,0.2,0.4,0.4,0.4c0,0,0,0,0,0c0,0,0,0,0,0
			c0,0,0,0,0,0c-0.2,0-0.4,0.2-0.4,0.5c0,0.2,0.2,0.4,0.5,0.4c0,0,0,0,0,0c0,0,0,0,0,0c0,0,0,0,0,0c-0.2,0-0.4,0.3-0.4,0.5
			c0,0.2,0.3,0.4,0.5,0.4l0,0c0,0,0,0,0,0c0,0,0,0,0,0c-0.2,0.1-0.4,0.3-0.3,0.5c0.1,0.2,0.3,0.4,0.5,0.3c0,0,0,0,0,0c0,0,0,0,0,0
			c0,0,0,0,0,0c-0.2,0.1-0.4,0.3-0.3,0.6c0.1,0.2,0.3,0.4,0.6,0.3c0,0,0,0,0,0c0,0,0,0,0,0c0,0,0,0,0,0c-0.2,0.1-0.3,0.4-0.2,0.6
			c0.1,0.2,0.4,0.3,0.6,0.2l0,0c0,0,0,0,0,0c0,0,0,0,0,0c-0.2,0.1-0.3,0.4-0.2,0.6c0.1,0.2,0.4,0.3,0.6,0.2c0,0,0,0,0,0c0,0,0,0,0,0
			c0,0,0,0,0,0c-0.2,0.1-0.3,0.4-0.1,0.6c0.1,0.2,0.4,0.3,0.6,0.1c0,0,0,0,0,0c0,0,0,0,0,0c0,0,0,0,0,0c-0.2,0.1-0.2,0.4-0.1,0.6
			c0.1,0.2,0.4,0.2,0.6,0.1c0,0,0,0,0,0c0,0,0,0,0,0c0,0,0,0,0,0c-0.2,0.2-0.2,0.4-0.1,0.6c0.2,0.2,0.4,0.2,0.6,0.1c0,0,0,0,0,0
			c0,0,0,0,0,0c0,0,0,0,0,0c-0.2,0.2-0.2,0.5,0,0.6c0.2,0.2,0.5,0.2,0.6,0c0,0,0,0,0,0c0,0,0,0,0,0c0,0,0,0,0,0
			c-0.2,0.2-0.1,0.5,0,0.6c0.2,0.2,0.5,0.1,0.6,0c0,0,0,0,0,0c0,0,0,0,0,0c0,0,0,0,0,0c-0.1,0.2-0.1,0.5,0.1,0.6
			c0.2,0.1,0.5,0.1,0.6-0.1c0,0,0,0,0,0c0,0,0,0,0,0c0,0,0,0,0,0c-0.1,0.2-0.1,0.5,0.1,0.6c0.2,0.1,0.5,0.1,0.6-0.1c0,0,0,0,0,0
			c0,0,0,0,0,0c0,0,0,0,0,0c-0.1,0.2,0,0.5,0.2,0.6c0.2,0.1,0.5,0,0.6-0.2c0,0,0,0,0,0c0,0,0,0,0,0c0,0,0,0,0,0
			c-0.1,0.2,0,0.5,0.2,0.6c0.2,0.1,0.5,0,0.6-0.2c0,0,0,0,0,0c0,0,0,0,0,0c0,0,0,0,0,0c-0.1,0.2,0.1,0.5,0.3,0.6
			c0.2,0.1,0.5-0.1,0.6-0.3c0,0,0,0,0,0c0,0,0,0,0,0c0,0,0,0,0,0c-0.1,0.2,0.1,0.5,0.3,0.5c0.2,0.1,0.5-0.1,0.5-0.3c0,0,0,0,0,0
			c0,0,0,0,0,0c0,0,0,0,0,0c0,0.2,0.1,0.5,0.4,0.5c0.2,0,0.5-0.1,0.5-0.4c0,0,0,0,0,0c0,0,0,0,0,0c0,0,0,0,0,0
			c0,0.2,0.2,0.5,0.4,0.5c0.2,0,0.5-0.2,0.5-0.4c0,0,0,0,0,0c0,0,0,0,0,0c0,0,0,0,0,0c0,0.2,0.2,0.4,0.4,0.4c0.1,0,0.2,0,0.3-0.1
			c0.1,0.1,0.2,0.1,0.3,0.1c0.2,0,0.4-0.2,0.4-0.5c0,0,0,0,0,0c0,0,0,0,0,0c0,0,0,0,0,0c0,0.2,0.3,0.4,0.5,0.4
			c0.2,0,0.4-0.3,0.4-0.5c0,0,0,0,0,0c0,0,0,0,0,0c0,0,0,0,0,0c0.1,0.2,0.3,0.4,0.5,0.3c0.2-0.1,0.4-0.3,0.3-0.5c0,0,0,0,0,0
			c0,0,0,0,0,0c0,0,0,0,0,0c0.1,0.2,0.3,0.4,0.6,0.3c0.2-0.1,0.4-0.3,0.3-0.6c0,0,0,0,0,0c0,0,0,0,0,0c0,0,0,0,0,0
			c0.1,0.2,0.3,0.3,0.6,0.3c0.2-0.1,0.3-0.3,0.3-0.6c0,0,0,0,0,0c0,0,0,0,0,0c0,0,0,0,0,0c0.1,0.2,0.4,0.3,0.6,0.2
			c0.2-0.1,0.3-0.4,0.2-0.6c0,0,0,0,0,0c0,0,0,0,0,0c0,0,0,0,0,0c0.1,0.2,0.4,0.3,0.6,0.2c0.2-0.1,0.3-0.4,0.2-0.6c0,0,0,0,0,0
			c0,0,0,0,0,0c0,0,0,0,0,0c0.1,0.2,0.4,0.3,0.6,0.1c0.2-0.1,0.3-0.4,0.1-0.6c0,0,0,0,0,0c0,0,0,0,0,0c0,0,0,0,0,0
			c0.2,0.2,0.4,0.2,0.6,0.1c0.2-0.2,0.2-0.4,0.1-0.6c0,0,0,0,0,0c0,0,0,0,0,0c0,0,0,0,0,0c0.2,0.2,0.5,0.2,0.6,0
			c0.2-0.2,0.2-0.5,0-0.6c0,0,0,0,0,0c0,0,0,0,0,0c0,0,0,0,0,0c0.2,0.2,0.5,0.1,0.6,0s0.1-0.5,0-0.6c0,0,0,0,0,0c0,0,0,0,0,0
			c0,0,0,0,0,0c0.2,0.1,0.5,0.1,0.6-0.1c0.1-0.2,0.1-0.5-0.1-0.6c0,0,0,0,0,0c0,0,0,0,0,0c0,0,0,0,0,0c0.2,0.1,0.5,0.1,0.6-0.1
			c0.1-0.2,0.1-0.5-0.1-0.6c0,0,0,0,0,0c0,0,0,0,0,0c0,0,0,0,0,0c0.2,0.1,0.5,0,0.6-0.2c0.1-0.2,0-0.5-0.2-0.6c0,0,0,0,0,0
			c0,0,0,0,0,0c0,0,0,0,0,0c0.2,0.1,0.5,0,0.6-0.2c0.1-0.2,0-0.5-0.2-0.6c0,0,0,0,0,0c0,0,0,0,0,0c0,0,0,0,0,0
			c0.2,0.1,0.5,0,0.6-0.3c0.1-0.2,0-0.5-0.3-0.6c0,0,0,0,0,0c0,0,0,0,0,0c0,0,0,0,0,0c0.2,0.1,0.5-0.1,0.5-0.3
			c0.1-0.2-0.1-0.5-0.3-0.5c0,0,0,0,0,0c0,0,0,0,0,0c0,0,0,0,0,0c0.2,0,0.5-0.1,0.5-0.4c0-0.2-0.1-0.5-0.4-0.5c0,0,0,0,0,0
			c0,0,0,0,0,0l0,0c0.2,0,0.5-0.2,0.5-0.4C100.1,36.2,100,36,99.7,36z"/>
	</g>
	<path class="st5" d="M97.1,44.8l1.4,6c0,0,5.6,7.6,2.5,5.9C97.9,55,91.3,51,91.3,51l-1.8-8.5L97.1,44.8z"/>
	<path d="M95.4,33.4c-0.4,0.2-1,0.4-1.5,0.8c-0.4,0.3-1,0.3-1.2-0.1l0,0c-0.2-0.2-0.1-0.5,0.1-0.8c0.4-0.3,1-0.8,1.8-1.2
		c0.5-0.2,1.1-0.1,1.3,0.3c0,0,0,0,0,0C96.2,32.8,95.9,33.2,95.4,33.4z"/>
	
		<ellipse transform="matrix(0.4381 -0.8989 0.8989 0.4381 65.3637 131.0165)" class="st29" cx="137.5" cy="13.2" rx="13.2" ry="13.2"/>
	<path class="st5" d="M133.8,25.8c-0.1,0-0.2-0.1-0.4-0.1c-0.3-0.1-0.5-0.2-0.8-0.3c-0.1-0.1-0.3-0.1-0.4-0.2
		c-0.3-0.1-0.6-0.3-0.8-0.4c-0.1-0.1-0.2-0.1-0.4-0.2c-0.3-0.2-0.5-0.3-0.8-0.5c-0.1-0.1-0.3-0.2-0.4-0.3c-0.1-0.1-0.3-0.2-0.4-0.3
		c-0.2-0.1-0.3-0.3-0.5-0.4c-0.1-0.1-0.2-0.1-0.2-0.2c-1.1-1.1-2-2.3-2.7-3.7c0.1-0.6,0.1-1.1,0.1-1.1l-2-4.8c0,0-1.9-1.1-1.6,0.9
		c0.3,2,0.4,3.2,2,5.6l0,0L110.9,41c-1.4,2.1-1.2,4.9,0.5,6.8l0.1,0.1c2.5,2.9,7,2.6,9.1-0.5l14-21.2C134.3,26,134,25.9,133.8,25.8z
		"/>
	<path d="M140.7,10c0.9,0.4,1.9,0.8,2.9,1c0.5,0.1,1,0.2,1.6,0.3c1.8,0.2,3.7,0,5.4-0.5l-0.3-0.9c-2.1,0.6-4.4,0.7-6.5,0.2
		c-0.9-0.2-1.7-0.5-2.5-0.8l4.9-6.1l-0.7-0.6l-5,6.2c-3.1-1.7-5.4-4.7-6.2-8.4l-0.9,0.2c0.9,3.9,3.3,7,6.6,8.9l-2.4,3l-10-8
		l-0.6,0.7l10,8l-2.1,2.6c-1.6-1.3-3.5-2.3-5.6-2.7c-1.7-0.4-3.3-0.5-5-0.2l0.1,0.9c1.5-0.2,3.1-0.2,4.6,0.2c2,0.5,3.7,1.4,5.2,2.6
		l-5.3,6.6l0.7,0.6l5.3-6.6c2.4,2.3,3.9,5.5,4,9.1l0.9,0c0-3.8-1.7-7.3-4.3-9.8l2.1-2.6l10,8l0.6-0.7l-10-8L140.7,10z"/>
	<path class="st5" d="M101.9,44.2l-0.6-2.5c-0.1-0.5-0.3-1.1-0.5-1.6l-0.3-1c-0.6-1.9-1.2-3.9-1.6-5c-0.4-1.4-1.4-2.5-2.2-3.2
		C96,30.2,95,30,94.1,30.2c-2.9,0.8-4.5,2-5.5,3.3c0.8,0.3,1.4,1,1.5,1.9c0.2,1.4-0.7,2.7-2.1,3c-0.1,0-0.2,0-0.3,0
		c0.2,1,0.6,1.6,0.6,1.6s0.2,0.6,0.6,1.6c0.3,0.7,0.9,1.6,1.6,2.4c0,0.1,0.1,0.1,0.1,0.1c0.3,0.4,0.7,0.7,1.1,1.1c0,0,0,0,0.1,0
		c0.8,0.6,2,0.8,3.3,0.8c0,0,0,0,0,0c0.1,0,0.2,0,0.3,0c0.2,0,0.3,0,0.5,0c0,0,0.1,0,0.1,0c0.1,0,0.1,0,0.1,0c0,0,0,0,0,0
		c0,0,0.1,0,0.2,0c1.6-0.2,3.1-0.7,4.2-1c0.2-0.1,0.3-0.1,0.5-0.2c0.1,0,0.2-0.1,0.3-0.1c0,0,0.1,0,0.1-0.1c0.1,0,0.1-0.1,0.2-0.1
		c0.1,0,0.1,0,0.1,0C101.9,44.4,101.9,44.3,101.9,44.2C101.9,44.2,101.9,44.2,101.9,44.2z"/>
	<path d="M100.8,40.1C100.8,40.1,100.8,40.1,100.8,40.1l-2.1,1.4l2.6,0.3l0.6,2.5c0,0,0,0,0,0.1c0,0.1,0,0.1,0,0.1c0,0,0,0-0.1,0
		c0,0-0.1,0-0.2,0.1c0,0-0.1,0-0.1,0.1c-0.1,0-0.2,0.1-0.3,0.1c-0.1,0-0.3,0.1-0.5,0.2c-1,0.3-2.5,0.8-4.2,1c0,0-0.1,0-0.2,0
		c0,0,0,0,0,0s-0.1,0-0.1,0c0,0-0.1,0-0.1,0c-0.1,0-0.3,0-0.5,0c-0.1,0-0.2,0-0.3,0c0,0,0,0,0,0c-0.9,0-2.2-0.1-3.3-0.8
		c0,0,0,0-0.1,0c-0.4-0.3-0.8-0.6-1.1-1.1c0,0,0,0-0.1-0.1c-0.3-0.3-1.5-1.6-1.6-2.4c0,0,1.4-2.8-1.3-3.8c0,0,0,0,0,0l0-0.1l0,0
		c0,0,2.1-0.5,2.8,2c0,0,1.6,1.9,3.5,1.4l6.6-2L100.8,40.1z"/>
	<path d="M90.2,35.4c-0.2-0.9-0.8-1.6-1.5-1.9c-1,1.4-1.2,2.9-1,4.1c0,0,0,0.1,0,0.1c0,0.2,0.1,0.5,0.1,0.7c0.1,0,0.2,0,0.3,0
		C89.5,38.2,90.4,36.8,90.2,35.4z"/>
	<path class="st5" d="M89.3,39.8c0.2,1.4-0.7,2.7-2.1,3c-1.4,0.2-2.7-0.7-3-2.1c-0.2-1.4,0.7-2.7,2.1-3
		C87.7,37.5,89.1,38.4,89.3,39.8z"/>
</g>
</svg>
