<?xml version="1.0" encoding="utf-8"?>
<!-- Generator: Adobe Illustrator 23.0.1, SVG Export Plug-In . SVG Version: 6.00 Build 0)  -->
<svg version="1.1" id="Layer_1" xmlns="http://www.w3.org/2000/svg" xmlns:xlink="http://www.w3.org/1999/xlink" x="0px" y="0px"
	 viewBox="0 0 180 204.5" style="enable-background:new 0 0 180 204.5;" xml:space="preserve">
<style type="text/css">
	.st0{fill:#093C49;}
	.st1{fill:#021F2D;}
	.st2{fill:#EDAB97;}
	.st3{fill:#BBA3D8;}
	.st4{fill:#58CCC9;}
	.st5{fill:#F8B39D;}
	.st6{fill:#FFC40C;}
	.st7{fill:#75DBCD;}
	.st8{fill:#C9DBBA;}
	.st9{fill:#DCDBA8;}
	.st10{fill:#F5CDA7;}
	.st11{fill:#FAA381;}
	.st12{fill:#005B94;}
	.st13{fill:#FF0000;}
	.st14{fill:#ADC3E5;}
	.st15{fill:#F46E00;}
	.st16{fill:#7104B7;}
	.st17{fill:#A9E5EA;}
	.st18{fill:#D13A95;}
	.st19{fill:#47043C;}
	.st20{fill:#B2AAD4;}
	.st21{fill:#552625;}
	.st22{fill:#B0D3D6;}
	.st23{fill:#F2800F;}
	.st24{fill:#47B649;}
	.st25{fill:none;stroke:#5D1717;stroke-width:0.4553;stroke-miterlimit:10;}
	.st26{fill:#F8951D;}
	.st27{fill:#FEFEFE;}
	.st28{fill:#00304D;}
	.st29{fill:#D4593B;}
	.st30{fill:#FE6D68;}
	.st31{fill:none;}
	.st32{fill:#FFFFFF;}
	.st33{fill:#13D3EA;}
	.st34{fill:#98D5F1;}
	.st35{fill:#78CBEE;}
	.st36{fill:#002029;}
	.st37{fill:#FF2D09;}
	.st38{fill:#004359;}
	.st39{fill:#C71B05;}
	.st40{fill:none;stroke:#C71B05;stroke-width:0.4738;stroke-miterlimit:10;}
	.st41{fill-rule:evenodd;clip-rule:evenodd;fill:#002029;}
	.st42{fill-rule:evenodd;clip-rule:evenodd;fill:#004359;}
	.st43{fill:#3F0606;}
</style>
<g>
	<path class="st5" d="M171.2,53.9l-1.5-4.7c-0.2-0.6-0.7-1.1-1.4-1.2c-0.5-0.1-0.9-0.2-0.8-0.3l0.2-0.6c0.2-0.5,0.1-1.1-0.3-1.5
		c-1-1.1-2.6-1.3-3.8-0.5l-1.6,1.1v0l0,0l-31,20.9L115.7,54c-3.9-3.4-9.8-2.6-12.7,1.6l-0.1,0.1c-2.5,3.7-1.8,8.7,1.7,11.6L124,83.1
		c3.2,2.6,7.8,2.3,10.7-0.3c0.1-0.1,0.2-0.1,0.3-0.2l34.3-22.5C171.3,58.7,172.1,56.1,171.2,53.9z"/>
	<path class="st5" d="M57.2,51.3l-0.1-0.1c-3.3-2.4-7.9-1.9-10.6,1.2c0,0-14.9,17.2-14.9,17.2c-1.8,2.1-2.1,4.9-1.7,7.6
		c0.4,2.3,1.3,4.6,2,6.8c0.5,1.7,1.1,3.4,1.6,5.1c1.2,3.9,2.4,7.7,3.6,11.6c1.3,4.3,2.6,8.5,4,12.8c0.2,0.6,0.5,1.1,0.8,1.5
		c0,0,1.5,3.1,4.8,3.4c2.5,0.2,6.1,0,7.7-0.1c0.3,0,0.5,0,0.8-0.1l0,0c1.1-0.3,1.7-1.5,1.4-2.6l-2.2-6.9l1.9,5.8l0,0
		c1.4-0.7,1.9-2.3,1.4-3.8l0-0.1c-0.9-2.2-2.2-4.2-3.9-5.9l-1-1l-8.4-25.8l13.9-15C61.5,59.5,61,54.1,57.2,51.3z"/>
	<path id="XMLID_485_" class="st5" d="M67.2,136.7c0,0-19.7,20.3-34.1,22.3c0.5,0.2-11.4-15.4-8.2-22.1c0.3-0.1,27.3-16.1,29.3-19.6
		C54.3,117.4,67.4,123.6,67.2,136.7z"/>
	<path id="XMLID_132_" class="st1" d="M34.4,131.1c0,0,9.5,23.8,9.5,23.8s-7.9,4.2-10.9,4l-9.3-22.2
		C27.2,136.1,30.2,133.3,34.4,131.1z"/>
	<path id="XMLID_83_" class="st1" d="M98.9,128.8c0,0,3.5,2.5,8.4-12.6c0.1,0.5-3.3-1-3.3-1S97.5,121.9,98.9,128.8z"/>
	<path id="XMLID_488_" class="st5" d="M115.9,98l14.3,7.3c0,0,9.8,3.3,8.5,16.9c0.2,0-3.8,35.5-3.8,35.5l-27.1,0.7l0.3-31.2
		l-7.9-3.5C100.4,123.8,103.5,101,115.9,98z"/>
	<path class="st1" d="M131.7,106c0,0-2.9-1.5-5.1-2.6c-1.2-0.6-2.2-1.1-2.3-1.1c-0.1-0.1-17,24.6-17,24.6l1,0.4l0,4.1l30.2-5.5
		l0.3-3.6c0,0,0-0.1,0-0.1C140.4,110.7,131.7,106,131.7,106z"/>
	<polygon id="XMLID_111_" class="st1" points="108.1,145.7 136.4,145 135,157.8 108,158.5 	"/>
	<path class="st22" d="M36.2,153.6c-1-1.5-2.6-2.1-4.3-2.1c-2.4-3.5-6-10.1-5.4-15.7L5.5,142l4.7,14.9l0,0l0,0l2.5,8.1l0.1-0.1
		c2.3,7.1,5.3,16.3,5.2,16.4c12.5-0.4,9.5-13.9,9.3-14.6c-0.2-0.8-0.5-1.6-0.8-2.3c3-1.4,9.5-4.3,9.6-4.2
		C38.2,158.3,36.4,153.4,36.2,153.6z"/>
	<path id="XMLID_92_" class="st1" d="M5.5,142c0,0-4.4-1.8-5.5,2.1c0.2,0,12,39.2,12,39.2s4.2,1.9,6-1.9C18,181.4,16,160.8,5.5,142z
		"/>
	<path class="st1" d="M67.1,135.4l-0.1-1.6l-0.7-0.7l-14.5-13.6c0,0-5.4,3.9-5.5,4c4.1,5.5,6.6,25.6,6.6,25.6l2.1-1.6l0.1-0.1
		c3.4-2.4,7.7-6.4,12.1-10.7L67.1,135.4z"/>
	<path class="st1" d="M31.7,69.5c0,0,10.8,6.2,14.3,6.7c0,0-0.4,0.5-0.9,1c-0.4,0.4-0.6,0.5-0.6,0.8c0,0.3,0.1,0.5,0.2,0.9
		c0.2,0.6,0.4,1.2,0.4,1.2l-14.6-0.8c-1.8-5.5-0.3-7.6,0.3-8.5c0,0,0-0.1,0.1-0.1L31.7,69.5z"/>
	<path class="st1" d="M132.8,84c0,0-0.9-14.7,0.1-18.1c0,0-0.7,0.5-1.1,0.7c-0.5,0.3-0.5,0.3-0.7,0.3c-0.3,0-0.5-0.3-0.8-0.6
		c-0.5-0.4-0.8-0.6-0.8-0.6l-6.5,16.3c4.3,3.9,7.1,2.7,8.1,2.6c0,0,0.1,0,0.1,0L132.8,84z"/>
	<path class="st22" d="M143.9,169.7c-2.5-0.2-4.7,0-6.6,0.3c1.1-3.7-1.8-14.1-1.9-14.5c-4.1-3.3-8.2-0.9-10.5,0.9
		c-5.1,0.1-19.3,0.4-19.7,0.3l-1,25.5l20.1-0.2c0.1,0,25.7-0.2,25.6,0.1C151.5,171.6,144.6,169.8,143.9,169.7z"/>
	<path id="XMLID_85_" class="st1" d="M104.1,182.3c0,0-2.2,3.6-0.1,6c0.1,0,45.9-0.6,45.9-0.6s2.4-3.2-0.2-5.6
		C149.7,182.1,108.6,178.2,104.1,182.3z"/>
	<path id="XMLID_502_" class="st1" d="M37.3,178.2c0,0,0,9.8,34.4,9.1c0.3,0.2,69.5,0,69.5,0s2.8-0.5,4.8-3.1c0.8-1.1,1.7-2,2.8-2.8
		c2.8-2.1,8.3-5.9,16.2-5.9c0,0.2,9.8-0.7,14,8.3c-0.2,0.3,3.3,6.3-1.5,6.7c-0.3,0.3-105.9,0-105.9,0S30.3,194.4,37.3,178.2z"/>
	<path id="XMLID_506_" class="st23" d="M37.3,178.2c0,0,2.3-9.2,23.4,0c0.7-0.2,14.7,7.6,32.1,9.2C91.7,186.5,39.9,192.4,37.3,178.2
		z"/>
	<g id="XMLID_519_">
		<g id="XMLID_534_">
			<path id="XMLID_536_" class="st23" d="M154.5,190.6l-1.3,0c-0.1,0-0.3,0-0.4,0c-3.3,0-5.9,2.6-5.9,5.9c0,3.3,2.6,5.9,5.9,5.9
				l1.3,0c0.1,0,0.3,0,0.4,0c3.3,0,5.9-2.6,5.9-5.9C160.4,193.2,157.7,190.6,154.5,190.6z"/>
			
				<ellipse id="XMLID_535_" transform="matrix(0.1602 -0.9871 0.9871 0.1602 -65.9298 315.3804)" class="st1" cx="152.4" cy="196.4" rx="3.8" ry="3.8"/>
		</g>
		<path id="XMLID_528_" class="st23" d="M136.5,194.9h14c0.9,0,1.6,0.7,1.6,1.6l0,0c0,0.9-0.7,1.6-1.6,1.6h-13.8L136.5,194.9z"/>
		<g id="XMLID_520_">
			<path id="XMLID_522_" class="st23" d="M139.3,188.5l-1.8-0.1c-0.2,0-0.3,0-0.5,0c-4.4,0-8,3.6-8,8c0,4.4,3.6,8,8,8l1.8,0.1
				c0.2,0,0.3,0,0.5,0c4.4,0,8-3.6,8-8C147.3,192.1,143.7,188.5,139.3,188.5z"/>
			<circle id="XMLID_521_" class="st1" cx="136.5" cy="196.4" r="5.2"/>
		</g>
	</g>
	<g id="XMLID_1_">
		<g id="XMLID_12_">
			<path id="XMLID_14_" class="st23" d="M91.8,190.6l-1.3,0c-0.1,0-0.3,0-0.4,0c-3.3,0-5.9,2.6-5.9,5.9c0,3.3,2.6,5.9,5.9,5.9l1.3,0
				c0.1,0,0.3,0,0.4,0c3.3,0,5.9-2.6,5.9-5.9C97.7,193.2,95.1,190.6,91.8,190.6z"/>
			
				<ellipse id="XMLID_13_" transform="matrix(0.1602 -0.9871 0.9871 0.1602 -118.5518 253.5306)" class="st1" cx="89.7" cy="196.4" rx="3.8" ry="3.8"/>
		</g>
		<path id="XMLID_10_" class="st23" d="M73.8,194.9h14c0.9,0,1.6,0.7,1.6,1.6l0,0c0,0.9-0.7,1.6-1.6,1.6H74.1L73.8,194.9z"/>
		<g id="XMLID_6_">
			<path id="XMLID_8_" class="st23" d="M76.6,188.5l-1.8-0.1c-0.2,0-0.3,0-0.5,0c-4.4,0-8,3.6-8,8c0,4.4,3.6,8,8,8l1.8,0.1
				c0.2,0,0.3,0,0.5,0c4.4,0,8-3.6,8-8C84.6,192.1,81,188.5,76.6,188.5z"/>
			<circle id="XMLID_7_" class="st1" cx="73.8" cy="196.4" r="5.2"/>
		</g>
	</g>
	<g>
		<path class="st23" d="M63,123.6c-0.1,0.1-0.2,0.1-0.2,0.1c0,0-0.1,0-0.1,0c-0.1,0-0.2-0.1-0.2-0.1c0-0.1,0-0.2,0.1-0.3
			c0,0,0,0,0.1,0c-4.4-6.4-8.6-12.7-9.1-13.5c-1.4,2-2.4,3.1-2.4,3.1L70,141c1.3-1.2,2.5-2.3,3.7-3.5C72.2,136.5,67.5,130,63,123.6z
			"/>
		<path class="st23" d="M53.9,109.4C53.9,109.4,54,109.4,53.9,109.4c0.2,0.2,4.6,6.9,9.3,13.6c1.3-0.6,4.8-2.6,8.4-7.1
			c3.2-3.9,7-10.5,9-20.7c-5-4.2-4.3-10.8-4.3-10.9c0-0.1,0.1-0.2,0.2-0.2c0.1,0,0.2,0.1,0.2,0.2c0,0.1-0.7,6.3,4,10.4
			c0.6-3,1-6.3,1.3-9.9c0-0.1,0.1-0.2,0.2-0.2c0.1,0,0.2,0.1,0.2,0.2c-0.2,3.8-0.7,7.1-1.3,10.2c0.5,0.4,1,0.8,1.7,1.1
			c2.1-3,0.3-11.5,0.2-11.6c0-0.1,0-0.2,0.2-0.2c0.1,0,0.2,0,0.2,0.2c0.1,0.4,1.9,8.7-0.3,11.9c2,1.3,16.1,11.2,17.9,12.4
			c0.8-1.3,1.6-2.6,2.4-3.7c4.4-6.4,9-11.2,9.1-11.3c-4.2-3.5-10-8.4-10.3-8.5c-12.6-4.8-39.9-1.6-39.9-1.6
			c-0.9,3.5-1.1,6.7-0.9,9.6C59.8,100.1,56.3,105.9,53.9,109.4z"/>
		<path class="st23" d="M100.7,109.2c-1.7-1.2-17.1-12-18-12.5C82,96.3,81.5,96,81,95.6c-2.1,10.2-5.9,16.7-9.1,20.7
			c-3.6,4.5-7.1,6.5-8.5,7.1c4.5,6.5,9.2,12.9,10.6,13.8c0,0,0,0,0,0c4.5-4.4,8.2-8.6,11.2-12.6l0,0l2.4-2.4l7.2,4.2
			C94.5,121,97.4,114.6,100.7,109.2z"/>
		<path class="st23" d="M112.8,94.1C112.8,94.1,112.8,94.1,112.8,94.1c-0.2,0.2-18.3,19.4-17.6,32.4c0,0,0,0.1,0,0.1l3.8,2.2
			c4.7-18.9,17.9-31.6,17.6-31.6C116.5,97.1,114.9,95.8,112.8,94.1z"/>
	</g>
	<path class="st24" d="M66.4,33.3c-3.4,1.9-6.1,4.8-8.8,7.6c0,0.2-0.6,0.6-0.7,0.8c-0.3,0.3-0.6,0.6-0.9,0.9
		c-0.5,0.6-1.1,1.1-1.6,1.7c-1.1,1.1-2.2,2.3-3.3,3.4c-2.2,2.3-4.4,4.6-6.5,6.9c-0.5,0.5-1.2,1.1-1.6,1.7c-0.4,0.7,0.4,1.1,0.8,1.6
		c1.1,1.1,2.2,2.2,3.3,3.3c2.2,2.2,4.3,4.4,6.4,6.7c1.9,2,3.9,4.1,5.8,6.2c1.2,1.4,2.5,2.8,3.2,4.5c0.7,1.7,0.8,3.8-0.3,5.3
		c13.3,0.5,26.6,1.1,39.9,1.6c0.5-1.7,1-3.5,1.4-5.2c0.7,0.4,1.4,0.7,2,1.1c1-4.3,0.5-9,2.2-13.1c2.3-5.5,8.2-9,10-14.7
		c-5-6.3-10.1-12.6-15.1-18.8c-1.2-1.5-2.4-3-4.1-4c-2.3-1.4-5.1-1.5-7.8-1.5c-4.7,0-9.3,0.4-13.9,1.1c-3.4,0.5-6.7,1.2-9.7,2.7
		C67,33,66.7,33.1,66.4,33.3z"/>
	<path class="st5" d="M91.4,11.3c0-0.1-7.7-5.4-14.7-0.3c0,0-1,2.4-0.6,5.5c-1-0.2-3.2-0.1-3.5,1.9c0,0.1,0,3.9,4.6,1.8
		c0.4,1.1,1.1,2.2,2,3c0.3,0.3,0.7,0.5,1.1,0.8c0.1,0.7,0.2,2,0.2,2l0.1,3.2c0,1.8,1.5,3.2,3.3,3.2c1.8,0,3.2-1.5,3.2-3.3l-0.1-4.7
		c0.2-0.1,0.4-0.2,0.6-0.3c0.4-0.2,0.8-0.5,1.2-0.9c0,0,0.1-0.1,0.1-0.1c1-0.9,1.8-2.3,2.3-4.3c0.1-0.4,0.2-0.9,0.3-1.4
		c0-0.2,0.1-0.4,0.1-0.6v0C91.6,15.2,91.6,13.4,91.4,11.3z"/>
	<g>
		<path class="st1" d="M79.6,2.5C79.6,2.5,79.6,2.5,79.6,2.5C79.6,2.5,79.6,2.5,79.6,2.5z"/>
		<path class="st1" d="M91.2,4.2c-1.2-1.4-2.7-2.4-4.4-3.1c-0.5-0.2-0.9-0.3-1.3-0.5l1,2.3l-2.7-2.8C83,0.1,82.3,0,81.5,0
			C81.7,0.2,84,3.9,84,4c-1.5-1.2-5.7-3.7-5.7-3.7c-0.4,0.1-0.8,0.2-1.3,0.4l2,2.9l-3.9-2.1c-2.3,1.2-3.9,2.9-4.8,4
			c-0.7,0.9-1.2,1.9-1.4,3c-1.3,6.8,4.9,8.9,5,8.9c3.8,0.2,2.8-3.8,2.9-3.8C80.3,7.3,92.4,12,92.4,12C94.1,8.6,92.7,5.9,91.2,4.2z"
			/>
	</g>
</g>
</svg>
