<?xml version="1.0" encoding="utf-8"?>
<!-- Generator: Adobe Illustrator 23.0.1, SVG Export Plug-In . SVG Version: 6.00 Build 0)  -->
<svg version="1.1" id="Layer_1" xmlns="http://www.w3.org/2000/svg" xmlns:xlink="http://www.w3.org/1999/xlink" x="0px" y="0px"
	 viewBox="0 0 180 68.2" style="enable-background:new 0 0 180 68.2;" xml:space="preserve">
<style type="text/css">
	.st0{fill:#F8B39D;}
	.st1{fill:#021F2D;}
	.st2{fill:#FE6D68;}
	.st3{fill:#13D3EA;}
</style>
<path class="st0" d="M124.1,25.6l-0.9-4.7c0,0-0.7-0.8-1.9-1.7c-0.1-0.1-0.3-0.3-0.5-0.4h-0.1c-0.1,0-0.1,0-0.1,0
	c-0.1,0-0.1,0-0.2-0.1c-2-1.5-5.2-3.2-8.8-3.9c-0.1,0-0.1,0-0.2,0c-2.6-0.4-9.5,1.2-17.3,3.4l-0.9,0.3L91,19.1
	c-6.2,1.7-12.6,3.8-17.6,5.4c-0.6,0.2-1.1,0.4-1.6,0.6l0,0l-2.8,1c0,0,0,0-0.1,0c0,0,0,0,0,0l-5.7,2l0,0l0,0l-1.7,0.6c0,0,0,0,0,0
	l-8.1,2.9c3.4-0.7,6.9-1,10.3-1.1c1.2-0.1,2.3-0.1,3.4-0.1c2.6,0,5.1,0.1,7.5,0.3c9,0.7,16,2.4,17.6,2.8c0.2,0.1,0.3,0.1,0.3,0.1
	l15.8,6.6c0,0,0.3,0,0.8,0c5.9-3.7,11.8-10.3,14-13c0.7-0.8,1-1.2,1-1.2L124.1,25.6z"/>
<path class="st0" d="M118.2,31.2l13.7,4.5l-4.1,3.6c0,0-8.2,1.3-9.2,1.3s-2.9,1-4.4,0c-1.6-1-5-2-5.2-3.2S118.2,31.2,118.2,31.2z"/>
<path class="st1" d="M152,17.3c-0.1-0.7-0.3-1.5-0.5-2.2c-1-3.1-2.7-6.1-5.5-7.9c-1-0.7-2.2-1.2-3.4-1.5c0.3-0.7,0.7-1.3,1-1.9
	c0.3-0.6,0.6-1.4,0.5-2.1c-0.1-0.7-0.7-1.4-1.4-1.4c-0.9,0-1.5,0.8-2.3,1.3c-0.8,0.6-1.9,0.7-2.9,0.4c-0.9-0.3-1.6-1.1-2.6-1.2
	c-1.1-0.1-2.1,0.7-2.4,1.8c-0.3,1.1,0.1,2.2,0.8,3.1s1.8,1.3,2.8,1.6c-0.1,0-0.7,0.7-0.8,0.8c-0.3,0.3-0.6,0.6-0.8,0.9
	c-0.5,0.6-1,1.2-1.5,1.9c-0.9,1.3-1.7,2.7-2.2,4.2c-0.2,0.4-0.5,1-0.4,1.4c0.1,0.4,0.3,0.9,0.6,1.2c0.6,0.7,1.5,1.2,2.3,1.7
	c1.3,0.7,2.6,1.3,3.9,1.9c2.1,1,4.3,2,6.5,2.7c1.3,0.5,2.6,0.9,4,1c0.3,0,0.7,0.1,1,0c0.3-0.1,0.5-0.3,0.7-0.5
	c1.2-1.2,2.2-2.7,2.5-4.3C152.2,19.1,152.1,18.2,152,17.3z"/>
<path class="st0" d="M64.5,27.7C64.5,27.7,64.5,27.7,64.5,27.7c0.2,0,0.2,0,0.3-0.1c0.1,0,0.1,0,0.2-0.1c0,0,0.1,0,0.2,0
	s0.2-0.1,0.3-0.1l0,0c0.1,0,0.1,0,0.2-0.1c0.1,0,0.1,0,0.2-0.1"/>
<path class="st0" d="M139,16.9c0,0-1.2,0.2-3.5,0.6c0.8-1.1,0.9-2.6,0.2-3.8c-1-1.6-3-2.1-4.6-1.1c-1.4,0.8-1.9,2.5-1.4,3.9L122,19
	c-0.6,0.2-1.2,0.6-1.6,1.1c-0.8,1-2.2,2.9-2.5,4.7c-0.3,1.6,1.4,2.8,2.9,2.2l8.5-3.4c-0.4,2.6,0,4.9,1.6,7c2.6,3.5,18-5.9,18-5.9
	C143.4,22.7,139,16.9,139,16.9z"/>
<path class="st2" d="M123.2,27.1c-2.2,2.7-8.1,9.3-14,13c-0.5,0-0.8,0-0.8,0l-15.8-6.6c0,0-0.1,0-0.3-0.1C90.5,29,89.1,23.3,91,19.2
	l2.2-0.6l0.9-0.3l9.5,8.2c0,0,0.1,0,0.1,0.1c0,0,1.1,1,3.1,1.7c0.2,0.1,0.3,0.1,0.5,0.2c0.1,0,0.1,0,0.2,0c0.2,0.1,0.5,0.2,0.8,0.2
	c0.2,0.1,0.5,0.1,0.7,0.1c0.1,0,0.3,0,0.4,0.1c3.2,0.4,6.1-1.2,7.2-3.8c0,0,0,0,0-0.1c0.3-0.8,0.5-1.8,0.4-2.8
	c-0.1-1.1-0.4-2.3-1.3-3.4l-1-0.9l0,0l-2.1-2l0,0l-1-1c3.3,0,7.6,3,8.8,3.9c0.1,0.1,0.1,0.1,0.2,0.1c0,0,0,0,0.1,0h0.1
	c0,0-4.4,3.8-3.2,7.1C118.7,29.4,123.2,27.1,123.2,27.1z"/>
<path class="st0" d="M112.8,16L96.3,2c-1.6-1.3-3.6-1.7-5.5-1.5c0,0-0.1,0-0.1,0L53.5,0c-0.6,0-1.2,0.1-1.7,0.3l0,0
	c0,0-3.4,0.5-4.7,3.5c-1.2,3-2.5,8.1-2.5,8.1l0.1,0c0,0,0,0,0,0c0,1.1,0.9,2.1,2,2.1l1.2,0c0.2,1.5,1.6,2.6,3.1,2.5h0.1
	c2.4-0.1,4.7-0.7,6.8-1.8l1.2-0.7l28.4,0.1l16,12.2c3.6,3,9.8,4,12.3,0.1l0.1-0.1C118.1,22.9,116,18.5,112.8,16z"/>
<path class="st2" d="M143.1,27.8c-0.3-0.6-0.8-1.3-1.4-1.7c-0.7-0.5-1.6-0.6-2.3-0.2c-0.4-0.7-0.8-1.3-1.2-2c0.6-0.4,0.9-1.3,0.8-2
	c0-1.6-1.1-3.2-2.7-3.8c0-0.8,0.2-1.5,0.2-2.3c0.1-1,0-2.1-0.8-2.8c-0.2-0.2-0.4-0.3-0.7-0.4c-0.1,0-0.8-0.2-0.6,0s0.6,0.3,0.8,0.5
	c0.4,0.3,0.5,0.8,0.6,1.3c0.2,0.9,0,1.7-0.1,2.6c0,0.2-0.1,0.5-0.1,0.7c0,0.1,0,0.2-0.1,0.3c-0.1,0.1-0.2,0.2-0.4,0.3
	c-0.6,0.4-1,1.1-1,1.8c0,0.7,0.2,1.4,0.5,2.1c0.3,0.6,0.7,1.1,1.2,1.5s1.2,0.6,1.8,0.4c0.4,0.7,0.9,1.4,1.3,2.1
	c-0.4,0.5-0.6,1.2-0.6,1.8s0.2,1.3,0.5,1.9c1.4-0.6,2.8-1.2,4.2-1.9C143.2,28,143.1,27.9,143.1,27.8z"/>
<g>
	<path class="st3" d="M0,39.3c2.4,5.5,7.8,9.2,13.3,11.4c16.1,6.4,34.4,2.8,51.2,7.1c9.8,2.5,18.8,7.6,28.7,9.4
		c9.2,1.7,19,0.4,27.1-4.3c0.6-0.3,2.4-1,1.8-1.8c-0.4-0.6-2.4,0.6-2.9,0.7c-2.3,0.7-4.8,1-7.2,1.1c-5.1,0-10.2-1.2-14.9-3.1
		C88.7,56.3,81,51.1,72.5,48c-7.8-2.8-16.2-3.7-24.4-2.6c-6.5,0.9-12.9,2.9-19.5,3.4C18.4,49.5,7.9,46,0,39.3z"/>
	<path class="st3" d="M14.5,42.2c10.6-1.7,21.1-4.5,31.2-8.3c9.4-3.5,19.5-3.6,29.3-1.3c4.4,1,8.7,2.6,12.9,4.5
		c9.3,4.3,18.3,10.5,28.5,10.7c6.3,0.1,12.4-2.2,18.6-3.8c11.7-2.9,24.4-2.9,35.4,2.1c-7.2-2.1-15-1.7-22,0.9
		c-5.3,2-10.1,5.3-15.3,7.5c-8.8,3.8-18.9,4.5-28.2,2.1c-8.6-2.3-16.2-7.2-24.5-10.5c-9.7-3.9-20.4-5.6-30.8-4.8
		C37.7,42.1,25.6,45.9,14.5,42.2z"/>
	<path class="st3" d="M92.6,33.5c5.5,4.7,12.6,7.8,19.7,9c7.3,1.2,15,0.2,21.6-3.1c7.3-3.7,15.8-4.4,23.8-2.9s15.5,5.1,22.3,9.7
		c-6-5.6-12.9-10.5-20.8-13.1c-7.8-2.6-16.7-2.7-24.1,1c-6.6,3.2-13.9,4.6-21.2,4.4c-3.7-0.1-7.3-0.6-10.9-1.4
		C99.5,36.2,96.1,34.4,92.6,33.5z"/>
</g>
</svg>
