<?xml version="1.0" encoding="utf-8"?>
<!-- Generator: Adobe Illustrator 23.0.1, SVG Export Plug-In . SVG Version: 6.00 Build 0)  -->
<svg version="1.1" id="Layer_1" xmlns="http://www.w3.org/2000/svg" xmlns:xlink="http://www.w3.org/1999/xlink" x="0px" y="0px"
	 viewBox="0 0 180 68.9" style="enable-background:new 0 0 180 68.9;" xml:space="preserve">
<style type="text/css">
	.st0{fill:#021F2D;}
	.st1{fill:#F8B39D;}
	.st2{fill:#13D3EA;}
	.st3{fill:#FE6D68;}
</style>
<path class="st0" d="M147.9,24.2c0,0,4.1,1.5,8-0.2c3.9-1.6-0.2-2.3-1.6-3.1c-1.4-0.8,1.5-2.4,2.8-3.8s0.1-5.1-2.2-2.8
	c-2.3,2.4-3.9-1.5-5.9-4.1c-2.1-2.7-8.4-7.6-17.2,0.6c-1.5,1.7-2.3,6.5-1.9,8.5c6.1-2.1,12.4-3.5,13.7-2.8
	C144.8,17.4,147.9,24.2,147.9,24.2z"/>
<path class="st1" d="M149.8,20.5c-3.6-7.9-8.4-7.9-11.4-7c0.1-0.6,0.1-1.2-0.1-1.8c-0.6-1.8-2.5-2.8-4.3-2.2c-0.2,0-0.3,0.1-0.5,0.2
	c-0.5,0.2-0.8,0.5-1.1,0.9c-0.7,0.9-1,2.1-0.6,3.2c0.3,0.9,1,1.6,1.9,2c-0.4,0.2-0.8,0.5-1.2,0.9l-2.7,1l-8.3,3.1c0,0,0,0,0,0.1
	c-0.4-0.2-6-2.8-12.1-4.6c-0.7-1-1.7-1.8-2.8-2.4L83.9,1.1c-2.1-1.2-4.5-1.4-6.7-0.7L35.1,6.1c-0.7,0.1-1.3,0.3-1.9,0.6l0,0
	c0,0-3.8,1.1-4.7,4.7c-0.7,2.7-1.1,6.6-1.3,8.5C27,20.3,27,20.7,27,21.1c0.1,1.3,1.3,2.2,2.7,2l1.2-0.2c0.6,1.6,2.3,2.6,4,2.2H35
	c2.7-0.5,5.2-1.6,7.4-3.2l1.3-0.9l32.1-4.8l7.6,4.6c0,0,0,0-0.1,0c-7.6,3-17.6,7.1-31.4,12.1c19.1-4.2,40.7,1.7,40.7,1.7l15.8,6.6
	c0,0,2.3-0.1,5.4-0.2c0.1-0.1,0.2-0.2,0.3-0.3c0.6,0.3,1.2,0.6,1.7,0.9c1.5,1,3.4,0,4.4,0s9.2-1.3,9.2-1.3l4.1-3.6l-12-3.4
	c0,0,0,0-0.1,0c1.3-1.9,1.7-3.1,1.8-3.2l6.5-2.5c1,3,2.5,5.5,2.7,5.8c0.2,0.3,5.4-2.3,9.5-4.3c0.2-0.1,0.3-0.1,0.4-0.2
	c1.2-0.7,2.4-1.2,3.2-1.6c0.2-0.1,0.4-0.2,0.6-0.3c0.1-0.1,0.2-0.1,0.3-0.2c1.1-0.6,2-1.6,2.6-2.4c0.1-0.2,0.3-0.4,0.4-0.6
	C150.1,22.8,150.2,21.5,149.8,20.5z"/>
<g>
	<path class="st2" d="M0,40.4c2.4,5.5,7.8,9.2,13.3,11.4c16.1,6.4,34.4,2.8,51.2,7.1c9.8,2.5,18.8,7.6,28.7,9.4
		c9.2,1.7,19,0.4,27.1-4.3c0.6-0.3,2.4-1,1.8-1.8c-0.4-0.6-2.4,0.6-2.9,0.7c-2.3,0.7-4.8,1-7.2,1.1c-5.1,0-10.2-1.2-14.9-3.1
		c-8.4-3.4-16.1-8.6-24.7-11.7c-7.8-2.8-16.2-3.7-24.4-2.6c-6.5,0.8-12.9,2.9-19.5,3.3C18.4,50.5,7.9,47.1,0,40.4z"/>
	<path class="st2" d="M14.5,43.2c10.6-1.7,21.1-4.5,31.2-8.3c9.4-3.5,19.5-3.6,29.3-1.3c4.4,1,8.7,2.6,12.9,4.5
		c9.3,4.3,18.3,10.5,28.5,10.7c6.3,0.1,12.4-2.2,18.6-3.8c11.7-2.9,24.4-2.9,35.4,2.1c-7.2-2.1-15-1.7-22,0.9
		c-5.3,2-10.1,5.3-15.3,7.5c-8.8,3.8-18.9,4.5-28.2,2.1c-8.6-2.3-16.2-7.2-24.5-10.5c-9.7-3.9-20.4-5.6-30.8-4.8
		C37.7,43.1,25.6,46.9,14.5,43.2z"/>
	<path class="st2" d="M92.6,34.6c5.5,4.7,12.6,7.8,19.7,9c7.3,1.2,15,0.2,21.6-3.1c7.3-3.7,15.8-4.4,23.8-2.9s15.5,5.1,22.3,9.7
		c-6-5.6-12.9-10.5-20.8-13.1c-7.8-2.6-16.7-2.7-24.1,1c-6.6,3.2-13.9,4.6-21.2,4.4c-3.7-0.1-7.3-0.6-10.9-1.4
		C99.5,37.3,96.1,35.5,92.6,34.6z"/>
</g>
<path class="st3" d="M146.2,26.7c-0.9-1.8-2.6-2.7-3.9-2c-0.1,0-0.1,0.1-0.2,0.1l-1.4-2.1c1-0.7,1.1-2.5,0.3-4
	c-0.6-1.2-1.6-2-2.6-2.1c0.2-0.7,0.5-2.2,0.4-3.9c0-0.6-0.2-1.2-0.5-1.7c-0.3-0.4-0.7-0.8-1.3-0.9c0.1,0,0.3,0.3,0.3,0.4
	c0.1,0.1,0.2,0.3,0.3,0.5c0.2,0.3,0.3,0.7,0.4,1v0.1c0.1,0.7,0,1.5-0.1,2.2c-0.1,0.8-0.2,1.6-0.5,2.4c-0.1,0-0.2,0.1-0.3,0.1
	c-1.2,0.6-1.4,2.5-0.5,4.2c0.8,1.6,2.3,2.5,3.5,2.1l1.5,2.2c-0.7,0.9-0.8,2.4,0,3.9c0,0.1,0.1,0.1,0.1,0.2c0.1-0.1,0.2-0.1,0.4-0.2
	c1.3-0.6,2.4-1.2,3.2-1.6c0.2-0.1,0.4-0.2,0.6-0.3c0.1-0.1,0.2-0.1,0.3-0.2C146.3,26.9,146.3,26.8,146.2,26.7z"/>
</svg>
