<?xml version="1.0" encoding="utf-8"?>
<!-- Generator: Adobe Illustrator 23.0.1, SVG Export Plug-In . SVG Version: 6.00 Build 0)  -->
<svg version="1.1" id="Layer_1" xmlns="http://www.w3.org/2000/svg" xmlns:xlink="http://www.w3.org/1999/xlink" x="0px" y="0px"
	 viewBox="0 0 180 218.4" style="enable-background:new 0 0 180 218.4;" xml:space="preserve">
<style type="text/css">
	.st0{fill:#093C49;}
	.st1{fill:#021F2D;}
	.st2{fill:#EDAB97;}
	.st3{fill:#BBA3D8;}
	.st4{fill:#58CCC9;}
	.st5{fill:#F8B39D;}
	.st6{fill:#FFC40C;}
	.st7{fill:#75DBCD;}
	.st8{fill:#C9DBBA;}
	.st9{fill:#DCDBA8;}
	.st10{fill:#F5CDA7;}
	.st11{fill:#FAA381;}
	.st12{fill:#005B94;}
	.st13{fill:#FF0000;}
	.st14{fill:#ADC3E5;}
	.st15{fill:#F46E00;}
	.st16{fill:#7104B7;}
	.st17{fill:#A9E5EA;}
	.st18{fill:#D13A95;}
	.st19{fill:#47043C;}
	.st20{fill:#B2AAD4;}
	.st21{fill:#552625;}
	.st22{fill:#B0D3D6;}
	.st23{fill:#F2800F;}
	.st24{fill:#47B649;}
	.st25{fill:none;stroke:#5D1717;stroke-width:0.4553;stroke-miterlimit:10;}
	.st26{fill:#F8951D;}
	.st27{fill:#FEFEFE;}
	.st28{fill:#00304D;}
	.st29{fill:#D4593B;}
	.st30{fill:#FE6D68;}
	.st31{fill:none;}
	.st32{fill:#FFFFFF;}
	.st33{fill:#13D3EA;}
	.st34{fill:#98D5F1;}
	.st35{fill:#78CBEE;}
	.st36{fill:#002029;}
	.st37{fill:#FF2D09;}
	.st38{fill:#004359;}
	.st39{fill:#C71B05;}
	.st40{fill:none;stroke:#C71B05;stroke-width:0.4738;stroke-miterlimit:10;}
	.st41{fill-rule:evenodd;clip-rule:evenodd;fill:#002029;}
	.st42{fill-rule:evenodd;clip-rule:evenodd;fill:#004359;}
	.st43{fill:#3F0606;}
</style>
<g>
	<path class="st5" d="M179.3,46.4l-0.9,0.8l0,0c0.8,1.4,0.5,3.1-0.8,4.1l-0.1,0c-2,1.5-4.3,2.6-6.7,3.2l-1.5,0.4l-25,21.6
		c-2.3,2-5.8,2.3-8.4,0.7l-0.1-0.1c-4-2.5-4.5-8.1-1-11.2L164,40c0.5-0.4,1-0.7,1.6-0.9l0,0c0,0,3.1-2,6.1-0.5
		c2.4,1.2,5.6,3.3,7,4.2c0.2,0.1,0.5,0.3,0.7,0.5l0,0C180.2,44.2,180.2,45.6,179.3,46.4z"/>
	<path class="st5" d="M160.6,139.6l-26.4,62.9l-18.5-1.6l27.4-68.4c1.7-4.3,6.3-6.7,10.8-5.6l0.2,0
		C159.7,128.2,162.8,134.2,160.6,139.6z"/>
	<path class="st5" d="M91.8,169.5l-67,31.9L11,186.7l71.9-35.6c4.5-2.2,9.9-0.8,12.8,3.3l0.1,0.2C99.4,159.7,97.5,166.8,91.8,169.5z
		"/>
	<path class="st12" d="M76.3,176.9l15.6-7.4c5.7-2.7,7.6-9.9,3.9-15l-0.1-0.2c-2.9-4.1-8.3-5.5-12.8-3.3l-16,7.9L76.3,176.9z"/>
	<g>
		<path class="st1" d="M136.4,197.1l-16.6-6.6l-2.7,6.7h0l-3.9,9.7c0,0,0,0,11.6,4.6c3.4-8.5-5.5-13.3-7.4-14.2l16.2,6.5
			L136.4,197.1z"/>
		<polygon class="st1" points="11,186.7 24.8,201.5 31.5,198.4 17.5,183.5 		"/>
		<path class="st1" d="M9.3,201.7c8.1-7.6,1.6-15,1.6-15l-11,5C0,191.7,0,191.7,9.3,201.7z"/>
	</g>
	<path class="st12" d="M94.3,110.1l-17.2,46.2c-1.9,5.2,0.3,11,5.3,13.4l0.2,0.1c5.6,2.8,12.4,0.3,14.8-5.4l19-44.6
		c0,0,3.4-4.6-7.1-12.3C100.8,101.3,94.3,110.1,94.3,110.1z"/>
	<path class="st5" d="M165.9,53.1l-3.4-5.5l-0.7-1.1c-0.9-1.5-3-1.8-4.3-0.6l-25.6,23l-8.5-15.3l0,0l-4.9-8.9
		c-0.4-0.7-0.9-1.3-1.4-1.8c-0.4-0.3-0.8-0.6-1.2-0.9c-0.2-0.1-0.4-0.2-0.6-0.3c-1.8-0.8-3.8-0.9-5.7-0.1c-0.5,0.2-0.9,0.4-1.4,0.7
		l-0.1,0.1c-3,2.1-4,6.1-2.2,9.4l4.4,8l0,0l12.8,23.1c1.1,2,3.2,3.3,5.4,3.6c2.3,0.7,4.9,0.3,6.8-1.4l29.6-25.8
		C166.7,57.6,167.1,55.1,165.9,53.1z"/>
	<path class="st12" d="M156.5,124.8l-42.3-23.1c-0.1-3.5-0.2-4.9-0.2-4.9l-24.7-4.2c0,0-5,11-1.5,23.3c1.1,3.8,4.4,6.6,8.4,7
		c1.9,0.2,3.9,0,5.9-0.4c0.1,0.1,0.2,0.1,0.2,0.1l37.6,18.3l-2.7,6.8l17.4,6.5l5.8-13.9c0,0,0-0.1,0.1-0.1l0.1-0.2
		C163.8,134.7,161.9,127.7,156.5,124.8z"/>
	<path class="st13" d="M117.5,34.1c0,0,10.8,24,3.9,31.1c-3.6,3.1-3.6,3.1-3.6,3.1s-4.8,14.2-3.9,28.4c-13.2,2.9-24.7-4.2-24.7-4.2
		s7-46.2,11.5-52c4.5-5.8,11.7-8,11.7-8L117.5,34.1z"/>
	<path class="st13" d="M116.9,33.9l-2.2,2.9c0,0,7,24.4-2.3,29.2c-4.9,4.8-4.2,21.9-4.2,21.9l5.6,3.4c0.4-12.2,4-23.1,4-23.1
		s0,0,3.6-3.1c6.9-7.1-3.9-31.1-3.9-31.1L116.9,33.9z"/>
	<path class="st5" d="M113.9,96.7c-0.2-4.1,0-8.1,0.4-11.8c-13.7-0.1-20.3-1.7-23.4-3.1c-1.1,6.3-1.7,10.7-1.7,10.7
		S100.8,99.6,113.9,96.7z"/>
	<path class="st13" d="M112,91.9c0,0.7-0.3,1.4-0.8,1.4c-0.4,0-0.8-0.6-0.8-1.4c0-0.7,0.3-1.4,0.8-1.4C111.6,90.6,112,91.2,112,91.9
		z"/>
	<path class="st1" d="M120.9,4.8c0,0-2.5-4.3-7.8-3.9c0,0,0,0,0,0l0,0c0,0,0,0-0.1,0c-1,0.1-2,0.3-3.1,0.6c0,0,0,0-0.1,0
		c-0.4,0.1-0.7,0.2-1.1,0.3c-0.1,0-0.1,0.1-0.2,0.1c-0.3,0.1-0.6,0.2-0.9,0.3c0,0-0.1,0-0.1,0.1c-0.3,0.1-0.6,0.3-1,0.4
		c0,0,0,0-0.1,0c-0.3,0.2-0.7,0.3-1,0.5c-0.1,0-0.1,0.1-0.2,0.1c-0.3,0.2-0.5,0.3-0.8,0.5c-0.1,0.1-0.2,0.1-0.3,0.2
		c-0.2,0.2-0.4,0.3-0.7,0.5c-0.1,0.1-0.3,0.2-0.4,0.3c-0.2,0.1-0.3,0.3-0.5,0.4c0,0-0.1,0.1-0.1,0.1c-0.1-0.2-0.2-0.4-0.2-0.5
		c-2-3.9-6.4-5.7-10.4-4.9c0,0-0.1,0-0.1,0c-0.3,0.1-0.7,0.2-1,0.3c-0.1,0-0.2,0.1-0.3,0.1c-0.4,0.1-0.7,0.3-1.1,0.5
		c-0.3,0.1-0.5,0.3-0.8,0.5c-0.1,0.1-0.2,0.1-0.2,0.2C88.1,1.9,88,2,87.8,2.1c-0.1,0.1-0.2,0.2-0.3,0.2c-0.1,0.1-0.3,0.2-0.4,0.4
		C87,2.8,86.9,2.9,86.9,3c-0.1,0.1-0.2,0.2-0.3,0.4c-0.1,0.1-0.2,0.2-0.3,0.3c-0.1,0.1-0.2,0.3-0.3,0.4c-0.1,0.1-0.2,0.2-0.2,0.3
		c-0.1,0.1-0.2,0.3-0.2,0.4c-0.1,0.1-0.1,0.2-0.2,0.4c-0.1,0.1-0.1,0.3-0.2,0.4C85.1,5.7,85,5.8,85,5.9c0,0,0,0.1,0,0.1
		c-0.2,0.4-0.3,0.8-0.4,1.2c0,0.1,0,0.2-0.1,0.3c0,0.2-0.1,0.4-0.1,0.6c0,0.1,0,0.2,0,0.3c0,0.2,0,0.4-0.1,0.6c0,0.1,0,0.2,0,0.3
		c0,0.2,0,0.4,0,0.6c0,0.1,0,0.2,0,0.3c0,0.2,0,0.4,0,0.6c0,0.1,0,0.2,0,0.3c0,0.2,0.1,0.4,0.1,0.6c0,0.1,0,0.1,0,0.2
		c0.2,0.8,0.5,1.6,0.9,2.3c2.5,4.7,8.3,6.5,12.9,4c0.9-0.5,1.7-1.1,2.3-1.7c0.1,0.3,0.3,0.5,0.4,0.7c0,0,0,0,0.1,0.1
		c0.2,0.3,0.4,0.6,0.6,0.9c0,0,0,0.1,0.1,0.1c0.2,0.3,0.4,0.5,0.7,0.8c0,0,0,0,0,0c0.3,0.3,0.5,0.6,0.8,0.8c0,0,0,0,0,0v0
		c2.3,2.1,5.1,3.6,7.1,4.3c2.1-1.1,2.1-1.1,2.1-1.1S121.2,9.3,120.9,4.8z"/>
	<path class="st14" d="M101.5,7.7l-4.9-0.1c0,0-2,2.1-0.6,4.5c4.4,0.9,4.4,0.9,4.4,0.9L101.5,7.7z"/>
	<path class="st5" d="M120.9,4.8c-4,4.9-7.5,9.7-7.5,9.7s-0.1,1.3-0.5,3.8c-0.8-1.2-2.3-1.8-3.8-1.4c-1.9,0.5-3.1,2.5-2.6,4.4
		c0.4,1.7,1.9,2.7,3.6,2.7l0.1,8.7c0,0.7,0.2,1.4,0.6,1.9c0.8,1.2,2.3,3.2,4,4.1c1.5,0.8,3.4-0.6,3.2-2.3l-0.4-5.7l0,0
		c0-0.6-0.1-1.2-0.1-1.6l0-0.4c-0.1-0.9-0.1-1.5-0.2-2c2.6,1.3,5.2,1.8,7.7,0.5C132.6,23.3,120.9,4.8,120.9,4.8z"/>
	<path class="st5" d="M105.7,52.6l-37.2,6.3c-4.8,0.8-9.1-3.1-8.8-8l0-0.2c0.2-3.5,2.8-6.3,6.3-6.9l37.1-6.3
		c3.8-0.7,7.5,1.7,8.6,5.5l0,0.1C112.9,47.4,110.1,51.8,105.7,52.6z"/>
	<g>
		<line class="st5" x1="80.9" y1="98.8" x2="79.6" y2="96.6"/>
		<line class="st5" x1="84.1" y1="98.7" x2="82.6" y2="96.2"/>
		<g>
			<path class="st5" d="M74.1,48.9c-1.1-3.1-4.1-5.2-7.4-5.1l-0.2,0c-5,0.2-8.5,5.1-6.9,9.9l13.1,39.6c0.2,0.6,0.6,1.2,1,1.7l0,0
				c0,0,1.8,3.5,5.4,3.7c2.8,0.2,6.9-0.1,8.7-0.3c0.3,0,0.6,0,0.9-0.1l0,0c1.2-0.4,1.9-1.7,1.5-2.9L74.1,48.9z"/>
			<path class="st5" d="M91.2,90L91.2,90c-1.1-2.5-2.6-4.7-4.5-6.6l-1.2-1.1l4.1,12l0,0C91.3,93.4,91.9,91.6,91.2,90z"/>
		</g>
	</g>
	<path class="st13" d="M111.7,43.1l0-0.1c-0.7-2.4-2.4-4.3-4.6-5.1c0.6-1.7,1.2-3,1.8-3.8c-1.5,0.8-3.3,1.9-5.1,3.3
		c-0.2,0-0.4,0-0.7,0.1l-9.2,1.6c1.2,2.5,2.8,6.5,3.4,10.9c-2.7,10.4-5.5,26.5-7,35.6l10.1-1.5c0,0,1.2-16.9,3.4-31.2l1.9-0.3
		C110.1,51.8,112.9,47.4,111.7,43.1z"/>
	<path class="st14" d="M24.8,201.5L11,186.7l-11,5c0,0,2,2.1,23.2,24.7C30.7,209.4,24.8,201.5,24.8,201.5z"/>
	<path class="st14" d="M137.7,205.3l-20.6-8.2l-3.9,9.7c0,0,2.5,1,28.9,11.6C145.7,209.6,137.7,205.3,137.7,205.3z"/>
</g>
</svg>
