<?xml version="1.0" encoding="utf-8"?>
<!-- Generator: Adobe Illustrator 23.0.1, SVG Export Plug-In . SVG Version: 6.00 Build 0)  -->
<svg version="1.1" id="Layer_1" xmlns="http://www.w3.org/2000/svg" xmlns:xlink="http://www.w3.org/1999/xlink" x="0px" y="0px"
	 viewBox="0 0 180 323.04" style="enable-background:new 0 0 180 323.04;" xml:space="preserve">
<style type="text/css">
	.st0{fill:#E2559F;}
	.st1{fill:#EDEDEE;}
	.st2{fill:#EF434D;}
	.st3{fill:#CF3B3B;}
	.st4{fill:#F59EB1;}
	.st5{fill:#D5D7D8;}
	.st6{fill:#EC008C;}
	.st7{fill:#F05873;}
	.st8{fill:#FFFFFF;}
	.st9{fill:#FEC776;}
	.st10{fill:#FFE3BD;}
	.st11{fill:#D4EFFC;}
	.st12{fill:#6B2600;}
	.st13{fill:#3E1500;}
	.st14{fill:#F5A2C6;}
	.st15{fill:#EE285B;stroke:#EE285B;stroke-width:0.25;stroke-miterlimit:10;}
	.st16{fill:#E5799A;}
	.st17{fill:#E14097;}
	.st18{fill:#FFEFC1;}
	.st19{fill:#FCCF9D;}
	.st20{fill:#692A11;}
	.st21{fill:#E64141;}
	.st22{fill:#F493AB;}
	.st23{fill:#6A150E;}
	.st24{fill:#6B0F00;}
	.st25{fill:#C7753A;}
</style>
<g>
	<path class="st1" d="M97.19,319.21c0,3.34-4.28,5.68-7.66,1.84v-63.53c0-1.91,1.3-3.68,3.19-3.98c2.4-0.39,4.47,1.45,4.47,3.78
		V319.21z"/>
	<path class="st4" d="M180,173.67c0-6.37-2.52-12.35-7.02-16.89c4.2-6.09,6.49-13.28,6.49-20.62c0-17.38-12.76-32.24-29.78-36.26
		c5.52-6.56,8.57-14.74,8.57-23.36c0-20.6-17.5-37.36-39-37.36c-0.93,0-1.87,0.03-2.8,0.1c0.17-1.59,0.26-3.21,0.26-4.82
		c0-19-11.81-34.46-26.32-34.46C80.37,0,71.43,7.23,66.97,18.67c-0.83-0.06-1.62-0.09-2.4-0.09c-21.05,0-38.25,17.38-38.98,39.04
		C13.28,59.39,3.81,69.61,3.81,81.9c0,6.09,2.31,11.83,6.45,16.29C3.69,105.05,0,114.03,0,123.4c0,9.07,3.33,17.59,9.47,24.36
		c-3.63,4.34-5.66,9.76-5.66,15.37c0,3.53,0.81,7.03,2.35,10.24C2.12,180.51,0,188.51,0,196.67c0,26.97,22.94,48.92,51.13,48.92
		c2.65,0,5.29-0.2,7.9-0.58c7.35,9.56,18.89,15.19,31.36,15.19c17.31,0,32.19-10.64,37.22-26.22c20.56-1.02,36.96-17.37,36.96-37.31
		c0-0.15,0-0.31,0-0.47C173.79,192.36,180,183.49,180,173.67z M32.6,178.37c-3.9,0-7.68-1.35-10.63-3.8
		c-0.81-0.68-0.92-1.88-0.25-2.7c0.68-0.81,1.88-0.92,2.7-0.25c2.26,1.88,5.17,2.92,8.18,2.92c6.84,0,12.4-5.27,12.4-11.75
		c0-1.06,0.86-1.91,1.91-1.91c1.06,0,1.91,0.86,1.91,1.91C48.83,171.38,41.55,178.37,32.6,178.37z M52.42,78.55
		c-0.96-0.44-1.38-1.58-0.94-2.54c0.44-0.96,1.57-1.38,2.54-0.94c2.98,1.37,6.18,2.06,9.52,2.06c10.48,0,19.53-7.09,21.53-16.85
		c0.21-1.04,1.22-1.7,2.26-1.49c1.04,0.21,1.7,1.22,1.49,2.26c-2.36,11.54-12.99,19.91-25.28,19.91
		C59.65,80.96,55.91,80.15,52.42,78.55z M91.18,247.99c-10.83,0-20.34-6.26-23.68-15.58c-0.36-0.99,0.16-2.09,1.16-2.45
		c0.99-0.36,2.09,0.16,2.45,1.16c2.79,7.8,10.86,13.04,20.07,13.04c11.61,0,21.06-8.39,21.06-18.71c0-0.53-0.03-1.06-0.07-1.58
		c-0.1-1.05,0.67-1.99,1.73-2.09c1.05-0.14,1.99,0.67,2.09,1.72c0.06,0.64,0.09,1.29,0.09,1.94
		C116.07,237.88,104.91,247.99,91.18,247.99z M147,190.11c-1.06,0-1.91-0.86-1.91-1.91c0-1.06,0.86-1.91,1.91-1.91
		c8.75,0,15.87-5.81,15.87-12.96c0-1.99-0.54-3.89-1.6-5.67c-0.54-0.91-0.25-2.08,0.66-2.63c0.91-0.54,2.08-0.24,2.62,0.66
		c1.4,2.34,2.14,4.98,2.14,7.63C166.69,182.58,157.86,190.11,147,190.11z M140.94,160.36c-2.91,0-5.76-0.46-8.48-1.37
		c-1-0.33-1.54-1.42-1.21-2.42c0.33-1,1.41-1.55,2.42-1.21c2.33,0.78,4.77,1.17,7.26,1.17c12.09,0,21.93-9.35,21.93-20.84
		c0-9.38-6.64-17.65-16.15-20.11c-1.02-0.27-1.64-1.31-1.37-2.33c0.27-1.02,1.3-1.64,2.33-1.37c11.2,2.9,19.02,12.69,19.02,23.82
		C166.69,149.3,155.14,160.36,140.94,160.36z"/>
</g>
</svg>
