<?xml version="1.0" encoding="utf-8"?>
<!-- Generator: Adobe Illustrator 23.0.1, SVG Export Plug-In . SVG Version: 6.00 Build 0)  -->
<svg version="1.1" id="Layer_1" xmlns="http://www.w3.org/2000/svg" xmlns:xlink="http://www.w3.org/1999/xlink" x="0px" y="0px"
	 viewBox="0 0 180 62.34" style="enable-background:new 0 0 180 62.34;" xml:space="preserve">
<style type="text/css">
	.st0{fill:#E2559F;}
	.st1{fill:#EDEDEE;}
	.st2{fill:#EF434D;}
	.st3{fill:#CF3B3B;}
	.st4{fill:#F59EB1;}
	.st5{fill:#D5D7D8;}
	.st6{fill:#EC008C;}
	.st7{fill:#F05873;}
	.st8{fill:#FFFFFF;}
	.st9{fill:#FEC776;}
	.st10{fill:#FFE3BD;}
	.st11{fill:#D4EFFC;}
	.st12{fill:#6B2600;}
	.st13{fill:#3E1500;}
	.st14{fill:#F5A2C6;}
	.st15{fill:#EE285B;stroke:#EE285B;stroke-width:0.25;stroke-miterlimit:10;}
	.st16{fill:#E5799A;}
	.st17{fill:#E14097;}
	.st18{fill:#FFEFC1;}
	.st19{fill:#FCCF9D;}
	.st20{fill:#692A11;}
	.st21{fill:#E64141;}
	.st22{fill:#F493AB;}
	.st23{fill:#6A150E;}
	.st24{fill:#6B0F00;}
	.st25{fill:#C7753A;}
</style>
<path class="st0" d="M174.44,31.71c-1.01-1.52,0.23-5.38,1.33-8.79c1.41-4.35,3-9.29,1.7-13.5c-0.42-1.35-1.37-2.38-2.75-2.98
	c-6.39-2.74-24.89,5.55-32.21,9.06C137.84,6.32,128.32,0,117.33,0l-50.1,0C55.69,0,45.76,6.96,41.37,16.89
	c-5.93-3.91-22.99-14.64-29.58-13.1c-1.71,0.4-2.59,1.4-3.03,2.17c-1.9,3.32-1.78,7.6-1.67,11.74c0.1,3.61,0.2,7.34-1.25,8.87
	c-2.82,2.97-9.44,9.93-3.31,16.67c1.75,1.93,3.99,2.73,5.96,3.43c3.57,1.27,6.15,2.19,6.51,9.38c0.13,2.6,1.45,4.5,3.63,5.2
	c0.61,0.19,1.26,0.29,1.96,0.29c6.33,0,16.03-7.73,23.77-16.75c5.14,7.1,13.47,11.74,22.89,11.74l50.1,0
	c9.91,0,18.63-5.14,23.68-12.88c8.5,7.65,21.79,18.69,27.74,18.69c0.42,0,0.8-0.05,1.14-0.17c3.93-1.31,4.51-5.54,4.92-8.64
	c0.26-1.95,0.56-4.16,1.48-4.48c2.15-0.74,3.03-2.19,3.4-3.28C180.98,41.99,177.94,36.96,174.44,31.71z M113.78,47.46l-47.21,0
	c-0.91,0-1.64-0.73-1.64-1.64c0-0.9,0.73-1.64,1.64-1.64l47.21,0c10.27,0,17.72-6.69,17.72-15.92c0-0.9,0.73-1.64,1.64-1.64
	c0.9,0,1.64,0.73,1.64,1.64C134.78,39.39,125.95,47.46,113.78,47.46z"/>
</svg>
