<?xml version="1.0" encoding="utf-8"?>
<!-- Generator: Adobe Illustrator 23.0.1, SVG Export Plug-In . SVG Version: 6.00 Build 0)  -->
<svg version="1.1" id="Layer_1" xmlns="http://www.w3.org/2000/svg" xmlns:xlink="http://www.w3.org/1999/xlink" x="0px" y="0px"
	 viewBox="0 0 180 424.23" style="enable-background:new 0 0 180 424.23;" xml:space="preserve">
<style type="text/css">
	.st0{fill:#E2559F;}
	.st1{fill:#EDEDEE;}
	.st2{fill:#EF434D;}
	.st3{fill:#CF3B3B;}
	.st4{fill:#F59EB1;}
	.st5{fill:#D5D7D8;}
	.st6{fill:#EC008C;}
	.st7{fill:#F05873;}
	.st8{fill:#FFFFFF;}
	.st9{fill:#FEC776;}
	.st10{fill:#FFE3BD;}
	.st11{fill:#D4EFFC;}
	.st12{fill:#6B2600;}
	.st13{fill:#3E1500;}
	.st14{fill:#F5A2C6;}
	.st15{fill:#EE285B;stroke:#EE285B;stroke-width:0.25;stroke-miterlimit:10;}
	.st16{fill:#E5799A;}
	.st17{fill:#E14097;}
	.st18{fill:#FFEFC1;}
	.st19{fill:#FCCF9D;}
	.st20{fill:#692A11;}
	.st21{fill:#E64141;}
	.st22{fill:#F493AB;}
	.st23{fill:#6A150E;}
	.st24{fill:#6B0F00;}
	.st25{fill:#C7753A;}
</style>
<path class="st8" d="M111.25,152.27c-0.6,0-1.19-0.32-1.5-0.88c-2.5-4.5-6.31-8.08-10.73-10.06c-0.87-0.39-1.25-1.41-0.86-2.27
	c0.39-0.87,1.41-1.25,2.27-0.86c5.1,2.29,9.47,6.38,12.33,11.53c0.46,0.83,0.16,1.88-0.67,2.34
	C111.82,152.2,111.53,152.27,111.25,152.27z"/>
<g>
	<path class="st9" d="M90,0C40.37,0,0,40.37,0,90v181.49c0,12.11,9.85,21.96,21.96,21.96h136.07c12.11,0,21.96-9.85,21.96-21.96V90
		C180,40.37,139.63,0,90,0z"/>
	<path class="st8" d="M139.94,258.93c0-1.77,1.13-3.25,2.72-4.02c2.51-1.23,4.28-4.09,4.28-7.43V101.75c0-4.15-0.37-8.3-1.1-12.34
		c-0.39-2.16,0.64-4.45,2.7-5.21c2.59-0.96,5.29,0.68,5.77,3.27c0.87,4.67,1.31,9.47,1.31,14.28v145.73
		c0,6.91-3.94,12.86-9.55,15.42C143.2,264.2,139.94,262.08,139.94,258.93L139.94,258.93z"/>
	<rect x="77.23" y="293.45" class="st10" width="31.68" height="130.77"/>
</g>
</svg>
