<?xml version="1.0" encoding="utf-8"?>
<!-- Generator: Adobe Illustrator 23.0.1, SVG Export Plug-In . SVG Version: 6.00 Build 0)  -->
<svg version="1.1" id="Layer_1" xmlns="http://www.w3.org/2000/svg" xmlns:xlink="http://www.w3.org/1999/xlink" x="0px" y="0px"
	 viewBox="0 0 180 222.89" style="enable-background:new 0 0 180 222.89;" xml:space="preserve">
<style type="text/css">
	.st0{fill:#E2559F;}
	.st1{fill:#EDEDEE;}
	.st2{fill:#EF434D;}
	.st3{fill:#CF3B3B;}
	.st4{fill:#F59EB1;}
	.st5{fill:#D5D7D8;}
	.st6{fill:#EC008C;}
	.st7{fill:#F05873;}
	.st8{fill:#FFFFFF;}
	.st9{fill:#FEC776;}
	.st10{fill:#FFE3BD;}
	.st11{fill:#D4EFFC;}
	.st12{fill:#6B2600;}
	.st13{fill:#3E1500;}
	.st14{fill:#F5A2C6;}
	.st15{fill:#EE285B;stroke:#EE285B;stroke-width:0.25;stroke-miterlimit:10;}
	.st16{fill:#E5799A;}
	.st17{fill:#E14097;}
	.st18{fill:#FFEFC1;}
	.st19{fill:#FCCF9D;}
	.st20{fill:#692A11;}
	.st21{fill:#E64141;}
	.st22{fill:#F493AB;}
	.st23{fill:#6A150E;}
	.st24{fill:#6B0F00;}
	.st25{fill:#C7753A;}
</style>
<g>
	<path class="st16" d="M169.4,98.75l-32.69,8.01c0,0-23.17-0.75-25.67-1c-2.5-0.25-24.17-2.63-27.43-3.76
		c-3.26-1.13-15.65-5.8-15.65-5.8s-1.5-1.09,0-1.84c1.5-0.75,30.68-6.01,35.94-6.51c5.26-0.5,34.94-4.01,36.57-4.63
		c1.63-0.63,10.77-3.38,17.53-4.01c6.76-0.63,7.89-1.11,8.39-0.99s2.63,0.74,3.63,3.62C171.02,84.72,169.4,98.75,169.4,98.75z"/>
	<path class="st16" d="M86.87,66.38L88.85,64c0,0,35.31,0.93,55.86-12.84c0,0,13.62,8.89,12.7,15.84s-20.23,11.46-23.03,11.21
		c-2.8-0.25-36.36-4.41-37.24-5.02C96.26,72.57,86.87,66.38,86.87,66.38z"/>
	<path class="st16" d="M133.06,46.37c0,0-57.72-16.37-53.71-21.38s24.28-19.54,24.28-19.54l7.02,7.26l10.77,15.65l12.95,9.14
		l3.84,9.02L133.06,46.37z"/>
	<path class="st16" d="M145.45,47.54c0,0-9.99,22.39-61.58,14.94S49.63,41.02,49.63,41.02l27.49-12.65c0,0,28.42,13.4,31.6,13.9
		S145.45,47.54,145.45,47.54z"/>
	<path class="st16" d="M159.5,71.57l8.77,6.51c0,0-21.51,27.17-121.08,14.96l-25.94-8.2V73.08l9.92-15.53l14.13-7.38
		c0,0,44.47,24.55,62.31,26.36C125.44,78.33,159.5,71.57,159.5,71.57z"/>
	<path class="st16" d="M6.22,122.67h168.4l-3.09-21.54l-26.82,5.51c0,0-60.48,5.51-124.66-22.79C20.05,83.84,0.21,92.36,6.22,122.67
		z"/>
	<path class="st17" d="M175.16,98.82c5.1-15.56-4.71-26.09-12.35-30.56c-0.8-16.93-13.52-23.89-22.4-25.73
		c-1.83-7.35-7.4-11.02-13.25-14.88c-2.97-1.95-6.33-4.17-9.67-7.11c-3.84-3.38-4.01-7.66-4.17-11.43
		c-0.13-3.06-0.27-6.53-3.27-8.29c-2.98-1.74-6.56-0.39-9.99,1.34C88.51,7.98,80.93,18.26,78.18,22.46
		c-21.14,1.92-31.37,17.07-34.3,22.31c-20.34,5.94-26.49,28.77-27.95,35.97C-5.31,91.77,0.72,121.02,1,122.3
		c0.46,2.13,2.55,3.48,4.69,3.02c2.13-0.46,3.49-2.55,3.03-4.68c-0.05-0.25-4.99-24.49,10.84-32.87
		c10.08,4.21,60.62,24.29,107.25,24.29c15.15,0,29.88-2.13,42.68-7.6c2.05,3.06,4.63,8.85,0.21,14.59
		c-1.33,1.73-1.01,4.21,0.71,5.54c0.72,0.56,1.57,0.82,2.41,0.82c1.18,0,2.35-0.53,3.13-1.53
		C183.24,114.43,179.26,104.28,175.16,98.82z M154.87,67.98c-23.11,8.42-47.01,4.5-66.26-2.31c3.93,0.44,8.09,0.72,12.39,0.72
		c14.67,0,30.89-3.18,44.41-13.69C149.79,55.1,154.25,59.61,154.87,67.98z M103.62,9.2c0.72-0.37,1.3-0.63,1.77-0.82
		c0.02,0.36,0.03,0.72,0.05,1.04c0.18,4.27,0.47,11.42,6.84,17.03c3.75,3.31,7.36,5.68,10.54,7.78c4.65,3.07,7.6,5.13,9.1,8.02
		c-16.5-0.5-37.81-12.32-45.93-17.21C88.98,20.86,95.09,13.5,103.62,9.2z M79.43,30.3c5.9,3.74,32.63,19.88,53.7,19.88
		c1.3,0,2.57-0.07,3.82-0.2c0.75,0.09,2.3,0.32,4.21,0.91c-22.9,16.26-54.02,11.48-69.82,7.46c-9.11-4.49-16-8.91-19.6-11.36
		C55,41.87,63.51,31.54,79.43,30.3z M45.77,52.46c7.78,5.59,41.81,28.31,80.7,28.31c10.5,0,21.36-1.69,32.15-5.79
		c1.37,0.8,3.53,2.25,5.5,4.4c-29.69,21.13-92.28,13.72-119.46,9.19c-9.57-3.17-16.88-6-20.69-7.54
		C25.59,74.1,31.04,57.04,45.77,52.46z M70.34,96.08c9.45,0.94,19.88,1.61,30.49,1.61c24.23,0,49.34-3.49,65.65-15.14
		c2.05,3.52,3.1,8.2,1.07,14.13C140.04,109.08,101.14,103.86,70.34,96.08z"/>
	<path class="st18" d="M175.88,118.98c-0.75-0.93-1.88-1.46-3.07-1.46l-72.81,4.36c-8.75,0.52-17.53,0.51-26.28-0.04l-68.85-4.32
		c-1.19,0-2.32,0.54-3.07,1.46c-0.75,0.92-1.04,2.14-0.8,3.3l17.8,84.55c1.32,15.61,62.94,16.07,70.03,16.07
		c7.09,0,68.7-0.46,70.03-16.07l17.8-84.55C176.92,121.11,176.63,119.9,175.88,118.98z"/>
	<g>
		<path d="M41.63,209.32c-0.93,0-1.75-0.54-1.93-1.33l-18.27-77.69c-0.21-0.89,0.49-1.75,1.56-1.93c1.08-0.18,2.11,0.41,2.31,1.3
			l18.27,77.69c0.21,0.89-0.49,1.75-1.56,1.93C41.88,209.31,41.76,209.32,41.63,209.32z"/>
		<path d="M136.91,209.32c-0.13,0-0.25-0.01-0.38-0.03c-1.07-0.17-1.77-1.04-1.56-1.93l18.27-77.69c0.21-0.89,1.24-1.47,2.32-1.3
			c1.07,0.17,1.77,1.04,1.56,1.93l-18.27,77.69C138.67,208.77,137.84,209.32,136.91,209.32z"/>
	</g>
	<g>
		<path d="M57.13,211.1c-0.98,0-1.83-0.6-1.95-1.43L42.85,130.2c-0.14-0.9,0.62-1.72,1.71-1.84c1.07-0.11,2.07,0.52,2.21,1.42
			l12.33,79.47c0.14,0.9-0.62,1.72-1.71,1.84C57.3,211.09,57.21,211.1,57.13,211.1z"/>
		<path d="M121.42,211.1c-0.09,0-0.17,0-0.26-0.01c-1.08-0.12-1.84-0.94-1.7-1.84l12.32-79.47c0.14-0.9,1.13-1.53,2.21-1.42
			c1.08,0.12,1.84,0.94,1.7,1.84l-12.32,79.47C123.24,210.5,122.4,211.1,121.42,211.1z"/>
	</g>
	<g>
		<path d="M76.48,212.06c-1.04,0-1.92-0.68-1.97-1.56l-4.9-80.43c-0.06-0.91,0.78-1.68,1.87-1.72c1.13-0.07,2.02,0.65,2.07,1.56
			l4.9,80.43c0.06,0.91-0.78,1.68-1.87,1.72C76.55,212.06,76.52,212.06,76.48,212.06z"/>
		<path d="M102.06,212.06c-0.03,0-0.07,0-0.1,0c-1.09-0.05-1.93-0.82-1.87-1.72l4.9-80.43c0.05-0.91,0.96-1.62,2.07-1.56
			c1.09,0.05,1.93,0.82,1.87,1.72l-4.9,80.43C103.98,211.38,103.11,212.06,102.06,212.06z"/>
	</g>
</g>
</svg>
