<?xml version="1.0" encoding="utf-8"?>
<!-- Generator: Adobe Illustrator 23.0.1, SVG Export Plug-In . SVG Version: 6.00 Build 0)  -->
<svg version="1.1" id="Layer_1" xmlns="http://www.w3.org/2000/svg" xmlns:xlink="http://www.w3.org/1999/xlink" x="0px" y="0px"
	 viewBox="0 0 180 297.81" style="enable-background:new 0 0 180 297.81;" xml:space="preserve">
<style type="text/css">
	.st0{fill:#E2559F;}
	.st1{fill:#EDEDEE;}
	.st2{fill:#EF434D;}
	.st3{fill:#CF3B3B;}
	.st4{fill:#F59EB1;}
	.st5{fill:#D5D7D8;}
	.st6{fill:#EC008C;}
	.st7{fill:#F05873;}
	.st8{fill:#FFFFFF;}
	.st9{fill:#FEC776;}
	.st10{fill:#FFE3BD;}
	.st11{fill:#D4EFFC;}
	.st12{fill:#6B2600;}
	.st13{fill:#3E1500;}
	.st14{fill:#F5A2C6;}
	.st15{fill:#EE285B;stroke:#EE285B;stroke-width:0.25;stroke-miterlimit:10;}
	.st16{fill:#E5799A;}
	.st17{fill:#E14097;}
	.st18{fill:#FFEFC1;}
	.st19{fill:#FCCF9D;}
	.st20{fill:#692A11;}
	.st21{fill:#E64141;}
	.st22{fill:#F493AB;}
	.st23{fill:#6A150E;}
	.st24{fill:#6B0F00;}
	.st25{fill:#C7753A;}
</style>
<g>
	<path class="st5" d="M90,297.81c-2.41,0-4.36-1.95-4.36-4.35V175.64c0-2.41,1.95-4.36,4.36-4.36c2.4,0,4.35,1.95,4.35,4.36v117.81
		C94.35,295.86,92.41,297.81,90,297.81z"/>
	<path class="st6" d="M90,0C40.37,0,0,40.37,0,90c0,11.28,2.1,22.07,5.91,32.03c0.02,0.07,0.04,0.14,0.06,0.21
		c0.06,0.2,0.16,0.38,0.24,0.56C19.36,156.25,51.95,180,90,180c49.63,0,90-40.37,90-90C180,40.37,139.63,0,90,0z M168.12,67.58
		c-1.71,8.89-6.1,16.83-10.17,22.6c1.83-17.5-4.59-36.17-17.23-50c-0.1-0.11-0.22-0.22-0.32-0.33
		c-5.53-11.48-15.71-20.61-24.69-26.95C140.97,21.35,160.73,41.86,168.12,67.58z M85.18,148.31c-16.5-1.33-29.39-7.39-38.34-18.02
		c-2.07-11.53-0.24-22.54,5.27-32.19c0.39,6.5,2.86,14.42,8.3,21.27c4.85,6.1,13.89,13.53,29.4,14.23c1.53,0.07,3.02,0.06,4.5-0.02
		c3.19,0.67,7.15,1.21,11.68,1.21c7.52,0,16.61-1.5,26.32-6.29C120.99,141.49,104.71,149.88,85.18,148.31z M95.46,27.01
		C110.29,34,119,44.44,124.07,54.5C117.57,48.21,106.77,41.6,90,41.6c-6.63,0-13.36,0.79-19.84,2.38
		c-14.77,1.63-34.97,7.09-51.12,23.33c1.76-3.66,3.83-7.27,6.3-10.73c9.46-13.25,27.98-29.2,62.48-29.86
		C90.4,26.67,92.95,26.78,95.46,27.01z M90.2,124.89c-9.68-0.44-17.63-4.22-22.97-10.94c-5.33-6.71-7.18-15.34-6.24-20.39
		c1.42-7.69,8.28-13.36,15.65-16.4c-1.4,8.05-2.63,22.68,5.13,29.45c2.42,2.11,5.39,3.23,8.86,3.41c2.63,1.61,5.62,2.49,8.96,2.62
		c0.28,0.01,0.55,0.01,0.83,0.01c8.59,0,17.77-4.87,24.5-9.43C118.64,115.65,105.83,125.57,90.2,124.89z M111.87,87.58
		c-0.35-2.14-0.99-4.34-1.9-6.48c1.08-11.06-4.24-22.4-8.42-29.4c8.66,2.22,14.44,6.7,18.03,10.65c6.76,7.43,10.26,17.6,9.36,27.23
		c-0.19,2.03-0.58,4.07-1.13,6.09c-5.87,4.66-17.12,12.41-26.97,12.57c0.83-0.29,1.66-0.58,2.53-0.94
		C110.03,104.55,113.36,96.8,111.87,87.58z M100.03,99.27c-4.15,1.72-9.69,3.26-12.54,0.77c-4.8-4.18-3.15-18.35-1.47-25.29
		c1.29-0.12,2.52-0.15,3.67-0.06c7.83,0.57,12.53,7.8,13.59,14.28C103.95,93.15,103.21,97.95,100.03,99.27z M90,50.31
		c2,0,3.89,0.12,5.69,0.32c3.05,4.57,8.37,13.64,9.74,23.12c-3.64-4.2-8.7-7.28-15.11-7.75c-12.75-0.9-31.94,7.24-37.04,22.66
		c-8.08,9.96-12.02,21.68-11.61,34.2c-6.37-11.19-7.8-23.56-6.77-32.36C38.16,62.74,64.93,50.31,90,50.31z M138.91,119.51
		c-11.39,8.02-22.15,10.67-30.84,11.02c16.91-6.81,28.01-23.76,29.55-40.13c0.74-7.9-0.89-16.08-4.47-23.38
		c-2.99-11.5-9.72-26.45-24.84-37.46c9.98,3.11,18.86,8.7,25.99,16.49c11.04,12.09,16.64,28.33,14.98,43.46
		C148.12,100.01,144.52,110.42,138.91,119.51z M90,8.71c4.16,0,8.25,0.32,12.24,0.92c6.46,3.6,17.15,10.36,25.53,19.56
		c-11.57-7.55-25.35-11.45-40.12-11.19C50.26,18.73,29.69,35.96,18.9,50.66C32.78,25.67,59.44,8.71,90,8.71z M14.15,119.18
		c-3.31-10.58-3.83-25.05,0.26-39.6c9.5-13.38,21.64-21.25,33.4-25.81c-11.36,7.84-19.67,19.61-21.57,35.71
		c-0.48,4.08-0.49,8.83,0.11,13.87c-1.53,9.62-2.68,25.71,2.75,40.41C22.76,136.59,17.66,128.28,14.15,119.18z M39.15,153.35
		c-7.94-10.89-9.77-24.73-9.56-36.1c2.19,6.21,5.44,12.42,10.08,18.07c10.19,12.42,25.32,19.86,43.79,21.56
		c5.8,3.65,17.01,9.43,31.29,10.54c-7.81,2.5-16.12,3.87-24.75,3.87C70.77,171.29,53.09,164.56,39.15,153.35z M125.96,162.88
		c-13.27,1.47-24.85-2.08-32.8-5.76c33.07-1.67,56.6-28.39,63.28-57.86c3.88-4.45,10.03-12.6,13.72-22.72
		c0.73,4.38,1.14,8.87,1.14,13.46C171.29,121.92,152.79,149.58,125.96,162.88z"/>
</g>
</svg>
