<?xml version="1.0" encoding="utf-8"?>
<!-- Generator: Adobe Illustrator 23.0.1, SVG Export Plug-In . SVG Version: 6.00 Build 0)  -->
<svg version="1.1" id="Layer_1" xmlns="http://www.w3.org/2000/svg" xmlns:xlink="http://www.w3.org/1999/xlink" x="0px" y="0px"
	 viewBox="0 0 180 180" style="enable-background:new 0 0 180 180;" xml:space="preserve">
<style type="text/css">
	.st0{fill:#E2559F;}
	.st1{fill:#EDEDEE;}
	.st2{fill:#EF434D;}
	.st3{fill:#CF3B3B;}
	.st4{fill:#F59EB1;}
	.st5{fill:#D5D7D8;}
	.st6{fill:#EC008C;}
	.st7{fill:#F05873;}
	.st8{fill:#FFFFFF;}
	.st9{fill:#FEC776;}
	.st10{fill:#FFE3BD;}
	.st11{fill:#D4EFFC;}
	.st12{fill:#6B2600;}
	.st13{fill:#3E1500;}
	.st14{fill:#F5A2C6;}
	.st15{fill:#EE285B;stroke:#EE285B;stroke-width:0.25;stroke-miterlimit:10;}
	.st16{fill:#E5799A;}
	.st17{fill:#E14097;}
	.st18{fill:#FFEFC1;}
	.st19{fill:#FCCF9D;}
	.st20{fill:#692A11;}
	.st21{fill:#E64141;}
	.st22{fill:#F493AB;}
	.st23{fill:#6A150E;}
	.st24{fill:#6B0F00;}
	.st25{fill:#C7753A;}
</style>
<g>
	<g>
		<circle class="st19" cx="90" cy="90" r="88.05"/>
		<path class="st20" d="M90,180c-49.63,0-90-40.37-90-90S40.37,0,90,0s90,40.37,90,90S139.63,180,90,180z M90,3.89
			C42.52,3.89,3.89,42.52,3.89,90S42.52,176.11,90,176.11c47.48,0,86.11-38.63,86.11-86.11S137.48,3.89,90,3.89z"/>
	</g>
	<circle class="st12" cx="52.98" cy="128.77" r="9.86"/>
	<circle class="st12" cx="87.37" cy="80.58" r="7.67"/>
	<circle class="st12" cx="139.5" cy="84.74" r="5.48"/>
	<circle class="st12" cx="49.04" cy="80.58" r="4.16"/>
	<circle class="st12" cx="101.61" cy="34.03" r="4.71"/>
	<circle class="st12" cx="100.05" cy="128.77" r="3.15"/>
</g>
</svg>
