<?xml version="1.0" encoding="utf-8"?>
<!-- Generator: Adobe Illustrator 23.0.1, SVG Export Plug-In . SVG Version: 6.00 Build 0)  -->
<svg version="1.1" id="Layer_1" xmlns="http://www.w3.org/2000/svg" xmlns:xlink="http://www.w3.org/1999/xlink" x="0px" y="0px"
	 viewBox="0 0 180 232.64" style="enable-background:new 0 0 180 232.64;" xml:space="preserve">
<style type="text/css">
	.st0{fill:#E2559F;}
	.st1{fill:#EDEDEE;}
	.st2{fill:#EF434D;}
	.st3{fill:#CF3B3B;}
	.st4{fill:#F59EB1;}
	.st5{fill:#D5D7D8;}
	.st6{fill:#EC008C;}
	.st7{fill:#F05873;}
	.st8{fill:#FFFFFF;}
	.st9{fill:#FEC776;}
	.st10{fill:#FFE3BD;}
	.st11{fill:#D4EFFC;}
	.st12{fill:#6B2600;}
	.st13{fill:#3E1500;}
	.st14{fill:#F5A2C6;}
	.st15{fill:#EE285B;stroke:#EE285B;stroke-width:0.25;stroke-miterlimit:10;}
	.st16{fill:#E5799A;}
	.st17{fill:#E14097;}
	.st18{fill:#FFEFC1;}
	.st19{fill:#FCCF9D;}
	.st20{fill:#692A11;}
	.st21{fill:#E64141;}
	.st22{fill:#F493AB;}
	.st23{fill:#6A150E;}
	.st24{fill:#6B0F00;}
	.st25{fill:#C7753A;}
</style>
<g>
	<g>
		<path class="st25" d="M178.78,75.53c-3.85-11.05-16-17.04-27.11-13.43l-43.41,14.19c-2.58-0.23-4.36-1.06-5.32-2.49
			c-1.47-2.18-0.73-5.11-0.57-5.68c15.43-5.81,25.76-22,22.13-40.14c-2.74-13.73-14.08-24.85-27.85-27.36
			C74.27-3.48,54.77,13.6,54.77,35.23c0,15.16,9.63,27.98,23.07,32.95c0.18,1.66,0.25,4.1-0.76,5.6c-0.95,1.43-2.75,2.27-5.33,2.5
			L29.76,62.56C18.01,58.72,4.19,64.86,0.82,76.76c-1.46,5.14-0.97,10.56,1.39,15.4c2.57,5.22,7.02,9.12,12.54,10.96l24.4,8.17
			c7.99,2.67,13.38,10.16,13.38,18.58v9.21c0,2.22-0.38,4.42-1.12,6.51l-20.21,57.29c-3.51,9.95-0.04,21.52,9.11,26.77
			c3.48,1.99,7.24,2.99,11,2.99c3.09,0,6.17-0.67,9.07-2.01c5.31-2.45,9.32-6.83,11.3-12.35l16.64-49c0.58-1.72,3.02-1.72,3.6,0.01
			l16.39,49.02c1.97,5.49,5.99,9.87,11.28,12.32c2.9,1.34,5.98,2.01,9.08,2.01c3.35,0,6.73-0.8,9.88-2.39
			c9.9-5.01,13.8-17.25,10.11-27.71l-20.08-56.95c-0.74-2.09-1.11-4.29-1.11-6.51v-9.2c0-8.43,5.39-15.91,13.38-18.59l24.39-8.17
			c5.52-1.85,9.98-5.75,12.54-10.98C180.34,86.92,180.7,81.02,178.78,75.53z"/>
	</g>
	<g>
		<circle class="st13" cx="90" cy="140.69" r="4.19"/>
	</g>
	<g>
		<circle class="st13" cx="90" cy="122.68" r="4.19"/>
	</g>
	<g>
		<circle class="st13" cx="90" cy="104.66" r="4.19"/>
	</g>
	<g>
		<circle class="st13" cx="76.19" cy="29.26" r="4.19"/>
	</g>
	<g>
		<circle class="st13" cx="102.87" cy="29.26" r="4.19"/>
	</g>
	<g>
		<path class="st13" d="M89.5,55.24c-0.12,0-0.23,0-0.35,0c-11-0.17-18.82-8.34-19.15-8.69c-0.57-0.61-0.54-1.56,0.06-2.13
			c0.61-0.57,1.56-0.54,2.13,0.06c0.07,0.08,7.32,7.6,17.03,7.74c5.86,0.09,11.52-2.53,16.77-7.77c0.59-0.59,1.55-0.59,2.13,0
			c0.59,0.59,0.59,1.55,0,2.13C102.36,52.33,96.1,55.24,89.5,55.24z"/>
	</g>
</g>
</svg>
