<?xml version="1.0" encoding="utf-8"?>
<!-- Generator: Adobe Illustrator 23.0.1, SVG Export Plug-In . SVG Version: 6.00 Build 0)  -->
<svg version="1.1" id="Layer_1" xmlns="http://www.w3.org/2000/svg" xmlns:xlink="http://www.w3.org/1999/xlink" x="0px" y="0px"
	 viewBox="0 0 180 239.7" style="enable-background:new 0 0 180 239.7;" xml:space="preserve">
<style type="text/css">
	.st0{fill:#E11B4E;}
	.st1{fill:#EAA820;}
	.st2{fill:none;stroke:#000000;stroke-miterlimit:10;}
	.st3{fill:#EAA820;stroke:#000000;stroke-miterlimit:10;}
	.st4{fill:#FFFFFF;}
	.st5{fill:#0B0B0B;}
	.st6{fill:#222223;}
	.st7{fill:#1C1B1C;}
	.st8{fill:#0E0E0E;}
	.st9{fill:#1A1A1B;}
	.st10{fill:#F1F1F2;}
	.st11{fill:#39383A;}
	.st12{fill:#EDEDEE;}
	.st13{fill:#2E2D2F;}
	.st14{fill:#3F3E40;}
	.st15{fill:#E6E7E8;}
	.st16{fill:#EAEAEB;}
	.st17{fill:#EAEBEC;}
	.st18{fill:#E4E5E6;}
	.st19{fill:#E9EAEB;}
	.st20{fill:#282728;}
	.st21{fill:#424143;}
	.st22{fill:#E6E6E7;}
	.st23{fill:#DDDEE0;}
	.st24{fill:#DDDEDF;}
	.st25{fill:#D8D9DB;}
	.st26{fill:#373738;}
	.st27{fill:#DEDFE1;}
	.st28{fill:#383738;}
	.st29{fill:#171718;}
	.st30{fill:#161616;}
	.st31{fill:#1E1D1E;}
	.st32{fill:#1B1B1C;}
	.st33{fill:#1A191A;}
	.st34{fill:#171617;}
	.st35{fill:#181818;}
	.st36{fill:#161617;}
	.st37{fill:#151516;}
	.st38{fill:#1C1C1D;}
	.st39{fill:#151415;}
	.st40{fill:#121213;}
	.st41{fill:#0F0F10;}
	.st42{fill:#101011;}
	.st43{fill:#141415;}
	.st44{fill:#171717;}
	.st45{fill:#101010;}
	.st46{fill:#111112;}
	.st47{fill:#131314;}
	.st48{fill:#1E1E1F;}
	.st49{fill:#212021;}
	.st50{fill:#232324;}
	.st51{fill:#121112;}
	.st52{fill:#141414;}
	.st53{fill:#262526;}
	.st54{fill:#0E0D0E;}
	.st55{fill:#222222;}
	.st56{fill:#0C0C0D;}
	.st57{fill:#181819;}
	.st58{fill:#1B1A1B;}
	.st59{fill:#1D1D1E;}
	.st60{fill:#0F0F0F;}
	.st61{fill:#131313;}
	.st62{fill:#1F1E1F;}
	.st63{fill:#212122;}
	.st64{fill:#272728;}
	.st65{fill:#2C2B2D;}
	.st66{fill:#2A292A;}
	.st67{fill:#F6F6F7;}
	.st68{fill:#F3F4F4;}
	.st69{fill:#F1F2F2;}
	.st70{fill:#F2F2F3;}
	.st71{fill:#302F31;}
	.st72{fill:#191919;}
	.st73{fill:#323233;}
	.st74{fill:#F5F6F6;}
	.st75{fill:#F0F1F1;}
	.st76{fill:#EFF0F1;}
	.st77{fill:#F5F5F6;}
	.st78{fill:#EFEFF0;}
	.st79{fill:#1C1C1C;}
	.st80{fill:#232223;}
	.st81{fill:#212121;}
	.st82{fill:#F0F1F2;}
	.st83{fill:#3B3A3C;}
	.st84{fill:#343435;}
	.st85{fill:#282829;}
	.st86{fill:#3E3E40;}
	.st87{fill:#F4F5F5;}
	.st88{fill:#EEEFF0;}
	.st89{fill:#48484A;}
	.st90{fill:#3E3D3F;}
	.st91{fill:#464547;}
	.st92{fill:#434345;}
	.st93{fill:#202021;}
	.st94{fill:#151515;}
	.st95{fill:#0D0D0D;}
	.st96{fill:#0B0B0C;}
	.st97{fill:#0B0A0B;}
	.st98{fill:#383739;}
	.st99{fill:#323133;}
	.st100{fill:#2D2D2E;}
	.st101{fill:#242324;}
	.st102{fill:#202020;}
	.st103{fill:#39393A;}
	.st104{fill:#434244;}
	.st105{fill:#474748;}
	.st106{fill:#49494B;}
	.st107{fill:#4F4F51;}
	.st108{fill:#333334;}
	.st109{fill:#242425;}
	.st110{fill:#292829;}
	.st111{fill:#2F2E30;}
	.st112{fill:#363537;}
	.st113{fill:#3D3D3E;}
	.st114{fill:#424244;}
	.st115{fill:#111111;}
	.st116{fill:#414142;}
	.st117{fill:#4D4D4F;}
	.st118{fill:#616264;}
	.st119{fill:#57575A;}
	.st120{fill:#76777A;}
	.st121{fill:#6B6D6F;}
	.st122{fill:#131213;}
	.st123{fill:#F0F0F1;}
	.st124{fill:#F3F3F4;}
	.st125{fill:#E8E9EA;}
	.st126{fill:#ECEDED;}
	.st127{fill:#F5F5F5;}
	.st128{fill:#E7E7E8;}
	.st129{fill:#ECEDEE;}
	.st130{fill:#EBEBEC;}
	.st131{fill:#E8E8E9;}
	.st132{fill:#EEEFEF;}
	.st133{fill:#EFF0F0;}
	.st134{fill:#EBECEC;}
	.st135{fill:#727476;}
	.st136{fill:#6C6D70;}
	.st137{fill:#626366;}
	.st138{fill:#A9ABAD;}
	.st139{fill:#999B9E;}
	.st140{fill:#757779;}
	.st141{fill:#8C8E91;}
	.st142{fill:#848689;}
	.st143{fill:#A7A9AB;}
	.st144{fill:none;}
	.st145{fill:#00BEEC;}
	.st146{fill:#EBAF1F;}
	.st147{clip-path:url(#SVGID_2_);}
	.st148{fill:#F05225;}
	.st149{clip-path:url(#SVGID_4_);}
	.st150{fill:#69CCE7;}
	.st151{fill:#EE2F7A;}
	.st152{fill:none;stroke:#000000;stroke-width:0.5;stroke-linecap:round;stroke-miterlimit:10;}
	.st153{clip-path:url(#SVGID_6_);}
	.st154{clip-path:url(#SVGID_8_);}
	.st155{fill:none;stroke:#000000;stroke-width:4;stroke-miterlimit:10;}
	.st156{clip-path:url(#SVGID_10_);}
	.st157{clip-path:url(#SVGID_12_);}
	.st158{fill:#EBA921;}
	.st159{clip-path:url(#SVGID_14_);}
	.st160{clip-path:url(#SVGID_16_);}
	.st161{clip-path:url(#SVGID_18_);}
	.st162{clip-path:url(#SVGID_20_);}
	.st163{fill:#F16EA1;}
	.st164{clip-path:url(#SVGID_22_);}
	.st165{clip-path:url(#SVGID_24_);}
	.st166{fill:#5ABA47;}
	.st167{fill:#F26522;}
	.st168{fill:#3AC0C7;}
	.st169{fill:#EE4297;}
	.st170{fill:#3B50A3;}
	.st171{fill:#00B9B6;}
	.st172{fill:#FFC214;}
	.st173{clip-path:url(#SVGID_26_);}
	.st174{fill:#FDB92D;}
	.st175{clip-path:url(#SVGID_28_);}
	.st176{fill:#ED1E25;}
	.st177{clip-path:url(#SVGID_30_);}
	.st178{fill:#ED2085;}
	.st179{clip-path:url(#SVGID_32_);}
	.st180{clip-path:url(#SVGID_34_);}
	.st181{fill:#D0DD28;}
	.st182{fill:#E1A225;}
	.st183{fill:#B81F69;}
	.st184{fill:#010101;}
	.st185{fill:#EC2227;}
	.st186{fill:#F26249;}
	.st187{fill:#231F20;}
	.st188{fill:#C4D5DD;}
	.st189{fill:#D5E7F0;}
	.st190{fill:#CC2027;}
	.st191{fill:#9A1E21;}
	.st192{fill:#F26724;}
	.st193{fill:#B92025;}
	.st194{fill:#DCDDDE;}
	.st195{fill:#EAEAEA;}
</style>
<g>
	<path class="st174" d="M170.4,143.4L90,223.8L9.6,143.4c-13-13-13-34,0-47L90,16l80.4,80.4C183.4,109.3,183.4,130.4,170.4,143.4z"
		/>
	<path d="M161.6,152.2c-5.9,6-11.9,12-17.8,18l-17.7,18.1c-5.9,6-11.8,12.1-17.7,18.1l-17.9,17.9l-0.5,0.5l-0.5-0.5L41,175.8
		c-8.1-8.1-16.2-16.1-24.2-24.3c-8-8.4-12.5-20-12.5-31.6c0-11.6,4.5-23.2,12.5-31.6C24.8,80.1,33,72.1,41,64l48.5-48.5L90,15
		l0.5,0.5l61.2,61.2l7.7,7.6c1.3,1.3,2.6,2.5,3.8,3.9l1.8,2c0.6,0.7,1.1,1.5,1.6,2.2c4.3,5.9,7.2,12.8,8.2,20l0.4,2.7
		c0.1,0.9,0.1,1.8,0.1,2.7c0.1,1.8,0,3.6-0.1,5.4c0,0.9-0.2,1.8-0.3,2.7l-0.4,2.7l-0.7,2.6c-0.2,0.9-0.4,1.8-0.8,2.6
		C170.6,140.7,166.7,147.1,161.6,152.2z M161.6,152.2c5-5.1,8.9-11.5,11-18.3c2.2-6.9,2.5-14.2,1.3-21.3c-1.2-7.1-4.2-13.7-8.5-19.4
		c-0.6-0.7-1-1.5-1.6-2.1l-1.8-2c-1.2-1.3-2.5-2.6-3.8-3.9l-7.6-7.7L89.5,16.5h1L42,64.9C34,73,25.8,81.1,17.8,89.2
		c-7.8,8.2-12.2,19.4-12.1,30.7c0,11.3,4.4,22.5,12.1,30.7c7.9,8.2,16.1,16.2,24.2,24.3l48.5,48.5h-1l17.9-17.9
		c5.9-6,12-11.8,18.1-17.7l18.1-17.7C149.7,164.1,155.6,158.1,161.6,152.2z"/>
	<path d="M161.6,160.1c-5.9,6-11.9,12-17.8,18l-17.7,18.1c-5.9,6-11.8,12.1-17.8,18l-17.9,17.9l-0.4,0.4l-0.4-0.4l-48.5-48.5
		c-8.1-8.1-16.2-16.1-24.2-24.3c-8-8.4-12.5-19.9-12.5-31.5c0-11.6,4.5-23.1,12.5-31.5c8-8.2,16.1-16.2,24.2-24.3l48.5-48.5l0.4-0.4
		l0.4,0.4l61.2,61.2l7.6,7.6c1.3,1.3,2.6,2.5,3.8,3.9l1.8,2c0.6,0.7,1.1,1.5,1.6,2.2c4.3,5.9,7.2,12.8,8.2,20l0.4,2.7
		c0.1,0.9,0.1,1.8,0.1,2.7c0.1,1.8,0,3.6-0.1,5.4c0,0.9-0.2,1.8-0.3,2.7l-0.4,2.7l-0.7,2.6c-0.2,0.9-0.4,1.8-0.8,2.6
		C170.6,148.7,166.7,155,161.6,160.1z M161.6,160.1c5.1-5.1,8.9-11.5,11.1-18.3c2.2-6.8,2.6-14.2,1.4-21.3
		c-1.1-7.1-4.1-13.8-8.4-19.5c-0.6-0.7-1-1.5-1.6-2.1l-1.8-2c-1.2-1.3-2.5-2.6-3.8-3.9l-7.6-7.6L89.6,24.3h0.7L41.9,72.8
		c-8,8.1-16.2,16.1-24.2,24.3c-7.8,8.2-12.2,19.5-12.2,30.8c0,11.3,4.4,22.6,12.2,30.8c7.9,8.2,16.1,16.2,24.2,24.3l48.5,48.5h-0.7
		l17.9-17.9c5.9-6,12-11.9,18-17.8l18.1-17.7C149.7,172,155.6,166.1,161.6,160.1z"/>
	<path d="M161.6,167.6l-35.6,36c-5.9,6-11.8,12-17.8,18l-17.9,17.9l-0.2,0.2l-0.2-0.2l-48.5-48.5c-8.1-8.1-16.2-16.1-24.2-24.3
		c-7.9-8.4-12.5-19.8-12.4-31.4c0-11.5,4.5-23,12.4-31.4c8-8.2,16.1-16.2,24.2-24.3l48.5-48.5l0.2-0.2l0.2,0.2l61.2,61.2l7.6,7.6
		c1.3,1.3,2.6,2.5,3.8,3.9l1.8,2c0.6,0.7,1.1,1.4,1.6,2.2c4.3,5.9,7.2,12.7,8.2,19.9l0.4,2.7c0.1,0.9,0.1,1.8,0.1,2.7
		c0.1,1.8,0,3.6-0.1,5.4c0,0.9-0.2,1.8-0.3,2.7l-0.4,2.7l-0.7,2.6c-0.2,0.9-0.4,1.8-0.7,2.6C170.6,156.2,166.7,162.5,161.6,167.6z
		 M161.6,167.6c5.1-5.1,8.9-11.5,11.1-18.3c2.3-6.8,2.6-14.2,1.5-21.3c-1.1-7.1-4.1-13.8-8.4-19.6c-0.6-0.7-1-1.5-1.6-2.1l-1.8-2
		c-1.2-1.4-2.5-2.6-3.8-3.9l-7.6-7.6L89.8,31.6h0.5L41.8,80.1c-8.1,8.1-16.2,16.1-24.2,24.3c-7.8,8.2-12.3,19.5-12.2,30.9
		c0,11.4,4.4,22.7,12.2,30.9c8,8.2,16.1,16.2,24.2,24.3l48.5,48.5h-0.5l17.9-17.9c6-6,12-11.9,18-17.8L161.6,167.6z"/>
	<path d="M161.6,137.2c-5.9,6-11.9,12-17.8,18l-17.7,18.1c-5.9,6-11.8,12.1-17.7,18.1l-17.9,17.9l-0.5,0.5l-0.5-0.5L41,160.8
		c-8.1-8.1-16.2-16.1-24.2-24.3c-8-8.4-12.5-20-12.5-31.6c0-11.6,4.5-23.2,12.5-31.6C24.8,65.1,33,57.1,41,49L89.5,0.5L90,0l0.5,0.5
		l61.2,61.2l7.7,7.6c1.3,1.3,2.6,2.5,3.8,3.9l1.8,2c0.6,0.7,1.1,1.5,1.6,2.2c4.3,5.9,7.2,12.8,8.2,20l0.4,2.7
		c0.1,0.9,0.1,1.8,0.1,2.7c0.1,1.8,0,3.6-0.1,5.4c0,0.9-0.2,1.8-0.3,2.7l-0.4,2.7l-0.7,2.6c-0.2,0.9-0.4,1.8-0.8,2.6
		C170.6,125.7,166.7,132.1,161.6,137.2z M161.6,137.2c5-5.1,8.9-11.5,11-18.3c2.2-6.9,2.5-14.2,1.3-21.3c-1.2-7.1-4.2-13.7-8.5-19.4
		c-0.6-0.7-1-1.5-1.6-2.1l-1.8-2c-1.2-1.3-2.5-2.6-3.8-3.9l-7.6-7.7L89.5,1.5h1L42,49.9C34,58,25.8,66.1,17.8,74.2
		c-7.8,8.2-12.2,19.4-12.1,30.7c0,11.3,4.4,22.5,12.1,30.7c7.9,8.2,16.1,16.2,24.2,24.3l48.5,48.5h-1l17.9-17.9
		c5.9-6,12-11.8,18.1-17.7l18.1-17.7C149.7,149.1,155.6,143.1,161.6,137.2z"/>
	<path d="M161.6,144.6c-5.9,6-11.9,12-17.8,18l-17.7,18.1c-5.9,6-11.8,12.1-17.8,18l-17.9,17.9L90,217l-0.4-0.4l-48.5-48.5
		C33.1,160,24.9,152,17,143.8c-8-8.4-12.5-19.9-12.5-31.5C4.5,100.7,9,89.2,17,80.8c8-8.2,16.1-16.2,24.2-24.3L89.6,8.1L90,7.7
		l0.4,0.4l61.2,61.2l7.6,7.6c1.3,1.3,2.6,2.5,3.8,3.9l1.8,2c0.6,0.7,1.1,1.5,1.6,2.2c4.3,5.9,7.2,12.8,8.2,20l0.4,2.7
		c0.1,0.9,0.1,1.8,0.1,2.7c0.1,1.8,0,3.6-0.1,5.4c0,0.9-0.2,1.8-0.3,2.7l-0.4,2.7l-0.7,2.6c-0.2,0.9-0.4,1.8-0.8,2.6
		C170.6,133.2,166.7,139.5,161.6,144.6z M161.6,144.6c5.1-5.1,8.9-11.5,11.1-18.3c2.2-6.8,2.6-14.2,1.4-21.3
		c-1.1-7.1-4.1-13.8-8.4-19.5c-0.6-0.7-1-1.5-1.6-2.1l-1.8-2c-1.2-1.3-2.5-2.6-3.8-3.9l-7.6-7.6L89.6,8.8h0.7L41.9,57.3
		c-8,8.1-16.2,16.1-24.2,24.3C9.9,89.8,5.5,101,5.5,112.3c0,11.3,4.4,22.6,12.2,30.8c7.9,8.2,16.1,16.2,24.2,24.3l48.5,48.5h-0.7
		l17.9-17.9c5.9-6,12-11.9,18-17.8l18.1-17.7C149.7,156.5,155.6,150.5,161.6,144.6z"/>
</g>
</svg>
