<?xml version="1.0" encoding="utf-8"?>
<!-- Generator: Adobe Illustrator 23.0.1, SVG Export Plug-In . SVG Version: 6.00 Build 0)  -->
<svg version="1.1" id="Layer_1" xmlns="http://www.w3.org/2000/svg" xmlns:xlink="http://www.w3.org/1999/xlink" x="0px" y="0px"
	 viewBox="0 0 180 121.2" style="enable-background:new 0 0 180 121.2;" xml:space="preserve">
<style type="text/css">
	.st0{fill:#E11B4E;}
	.st1{fill:#EAA820;}
	.st2{fill:none;stroke:#000000;stroke-miterlimit:10;}
	.st3{fill:#EAA820;stroke:#000000;stroke-miterlimit:10;}
	.st4{fill:#FFFFFF;}
	.st5{fill:#0B0B0B;}
	.st6{fill:#222223;}
	.st7{fill:#1C1B1C;}
	.st8{fill:#0E0E0E;}
	.st9{fill:#1A1A1B;}
	.st10{fill:#F1F1F2;}
	.st11{fill:#39383A;}
	.st12{fill:#EDEDEE;}
	.st13{fill:#2E2D2F;}
	.st14{fill:#3F3E40;}
	.st15{fill:#E6E7E8;}
	.st16{fill:#EAEAEB;}
	.st17{fill:#EAEBEC;}
	.st18{fill:#E4E5E6;}
	.st19{fill:#E9EAEB;}
	.st20{fill:#282728;}
	.st21{fill:#424143;}
	.st22{fill:#E6E6E7;}
	.st23{fill:#DDDEE0;}
	.st24{fill:#DDDEDF;}
	.st25{fill:#D8D9DB;}
	.st26{fill:#373738;}
	.st27{fill:#DEDFE1;}
	.st28{fill:#383738;}
	.st29{fill:#171718;}
	.st30{fill:#161616;}
	.st31{fill:#1E1D1E;}
	.st32{fill:#1B1B1C;}
	.st33{fill:#1A191A;}
	.st34{fill:#171617;}
	.st35{fill:#181818;}
	.st36{fill:#161617;}
	.st37{fill:#151516;}
	.st38{fill:#1C1C1D;}
	.st39{fill:#151415;}
	.st40{fill:#121213;}
	.st41{fill:#0F0F10;}
	.st42{fill:#101011;}
	.st43{fill:#141415;}
	.st44{fill:#171717;}
	.st45{fill:#101010;}
	.st46{fill:#111112;}
	.st47{fill:#131314;}
	.st48{fill:#1E1E1F;}
	.st49{fill:#212021;}
	.st50{fill:#232324;}
	.st51{fill:#121112;}
	.st52{fill:#141414;}
	.st53{fill:#262526;}
	.st54{fill:#0E0D0E;}
	.st55{fill:#222222;}
	.st56{fill:#0C0C0D;}
	.st57{fill:#181819;}
	.st58{fill:#1B1A1B;}
	.st59{fill:#1D1D1E;}
	.st60{fill:#0F0F0F;}
	.st61{fill:#131313;}
	.st62{fill:#1F1E1F;}
	.st63{fill:#212122;}
	.st64{fill:#272728;}
	.st65{fill:#2C2B2D;}
	.st66{fill:#2A292A;}
	.st67{fill:#F6F6F7;}
	.st68{fill:#F3F4F4;}
	.st69{fill:#F1F2F2;}
	.st70{fill:#F2F2F3;}
	.st71{fill:#302F31;}
	.st72{fill:#191919;}
	.st73{fill:#323233;}
	.st74{fill:#F5F6F6;}
	.st75{fill:#F0F1F1;}
	.st76{fill:#EFF0F1;}
	.st77{fill:#F5F5F6;}
	.st78{fill:#EFEFF0;}
	.st79{fill:#1C1C1C;}
	.st80{fill:#232223;}
	.st81{fill:#212121;}
	.st82{fill:#F0F1F2;}
	.st83{fill:#3B3A3C;}
	.st84{fill:#343435;}
	.st85{fill:#282829;}
	.st86{fill:#3E3E40;}
	.st87{fill:#F4F5F5;}
	.st88{fill:#EEEFF0;}
	.st89{fill:#48484A;}
	.st90{fill:#3E3D3F;}
	.st91{fill:#464547;}
	.st92{fill:#434345;}
	.st93{fill:#202021;}
	.st94{fill:#151515;}
	.st95{fill:#0D0D0D;}
	.st96{fill:#0B0B0C;}
	.st97{fill:#0B0A0B;}
	.st98{fill:#383739;}
	.st99{fill:#323133;}
	.st100{fill:#2D2D2E;}
	.st101{fill:#242324;}
	.st102{fill:#202020;}
	.st103{fill:#39393A;}
	.st104{fill:#434244;}
	.st105{fill:#474748;}
	.st106{fill:#49494B;}
	.st107{fill:#4F4F51;}
	.st108{fill:#333334;}
	.st109{fill:#242425;}
	.st110{fill:#292829;}
	.st111{fill:#2F2E30;}
	.st112{fill:#363537;}
	.st113{fill:#3D3D3E;}
	.st114{fill:#424244;}
	.st115{fill:#111111;}
	.st116{fill:#414142;}
	.st117{fill:#4D4D4F;}
	.st118{fill:#616264;}
	.st119{fill:#57575A;}
	.st120{fill:#76777A;}
	.st121{fill:#6B6D6F;}
	.st122{fill:#131213;}
	.st123{fill:#F0F0F1;}
	.st124{fill:#F3F3F4;}
	.st125{fill:#E8E9EA;}
	.st126{fill:#ECEDED;}
	.st127{fill:#F5F5F5;}
	.st128{fill:#E7E7E8;}
	.st129{fill:#ECEDEE;}
	.st130{fill:#EBEBEC;}
	.st131{fill:#E8E8E9;}
	.st132{fill:#EEEFEF;}
	.st133{fill:#EFF0F0;}
	.st134{fill:#EBECEC;}
	.st135{fill:#727476;}
	.st136{fill:#6C6D70;}
	.st137{fill:#626366;}
	.st138{fill:#A9ABAD;}
	.st139{fill:#999B9E;}
	.st140{fill:#757779;}
	.st141{fill:#8C8E91;}
	.st142{fill:#848689;}
	.st143{fill:#A7A9AB;}
	.st144{fill:none;}
	.st145{fill:#00BEEC;}
	.st146{fill:#EBAF1F;}
	.st147{clip-path:url(#SVGID_2_);}
	.st148{fill:#F05225;}
	.st149{clip-path:url(#SVGID_4_);}
	.st150{fill:#69CCE7;}
	.st151{fill:#EE2F7A;}
	.st152{fill:none;stroke:#000000;stroke-width:0.5;stroke-linecap:round;stroke-miterlimit:10;}
	.st153{clip-path:url(#SVGID_6_);}
	.st154{clip-path:url(#SVGID_8_);}
	.st155{fill:none;stroke:#000000;stroke-width:4;stroke-miterlimit:10;}
	.st156{clip-path:url(#SVGID_10_);}
	.st157{clip-path:url(#SVGID_12_);}
	.st158{fill:#EBA921;}
	.st159{clip-path:url(#SVGID_14_);}
	.st160{clip-path:url(#SVGID_16_);}
	.st161{clip-path:url(#SVGID_18_);}
	.st162{clip-path:url(#SVGID_20_);}
	.st163{fill:#F16EA1;}
	.st164{clip-path:url(#SVGID_22_);}
	.st165{clip-path:url(#SVGID_24_);}
	.st166{fill:#5ABA47;}
	.st167{fill:#F26522;}
	.st168{fill:#3AC0C7;}
	.st169{fill:#EE4297;}
	.st170{fill:#3B50A3;}
	.st171{fill:#00B9B6;}
	.st172{fill:#FFC214;}
	.st173{clip-path:url(#SVGID_26_);}
	.st174{fill:#FDB92D;}
	.st175{clip-path:url(#SVGID_28_);}
	.st176{fill:#ED1E25;}
	.st177{clip-path:url(#SVGID_30_);}
	.st178{fill:#ED2085;}
	.st179{clip-path:url(#SVGID_32_);}
	.st180{clip-path:url(#SVGID_34_);}
	.st181{fill:#D0DD28;}
	.st182{fill:#E1A225;}
	.st183{fill:#B81F69;}
	.st184{fill:#010101;}
	.st185{fill:#EC2227;}
	.st186{fill:#F26249;}
	.st187{fill:#231F20;}
	.st188{fill:#C4D5DD;}
	.st189{fill:#D5E7F0;}
	.st190{fill:#CC2027;}
	.st191{fill:#9A1E21;}
	.st192{fill:#F26724;}
	.st193{fill:#B92025;}
	.st194{fill:#DCDDDE;}
	.st195{fill:#EAEAEA;}
</style>
<g>
	<g>
		<path d="M156.9,117.3H14.3C6.4,117.3,0,110.9,0,103V29.6c0-7.9,6.4-14.3,14.3-14.3h142.6c7.9,0,14.3,6.4,14.3,14.3V103
			C171.2,110.9,164.8,117.3,156.9,117.3z M14.3,19.4C8.7,19.4,4.1,24,4.1,29.6V103c0,5.6,4.6,10.2,10.2,10.2h142.6
			c5.6,0,10.2-4.6,10.2-10.2V29.6c0-5.6-4.6-10.2-10.2-10.2H14.3z"/>
	</g>
	<g>
		<defs>
			<path id="SVGID_21_" d="M12.5,18h72.6c6.6,0,12,5.4,12,12v72.6c0,6.6-5.4,12-12,12H12.5c-6.6,0-12-5.4-12-12V30
				C0.5,23.4,5.9,18,12.5,18z"/>
		</defs>
		<clipPath id="SVGID_2_">
			<use xlink:href="#SVGID_21_"  style="overflow:visible;"/>
		</clipPath>
		<g class="st147">
			<g>
				<path class="st150" d="M22.9,109.7c-0.1-0.4-0.2-0.8-0.3-1.2c0.2-1.2,0.8-1.6,2-1.2l0,0c1.2,0.5,1.4,0.9,1,2.2
					c-0.1,0.1-0.2,0.2-0.3,0.3C24.5,109.7,23.7,109.7,22.9,109.7z"/>
			</g>
			<g>
				<path class="st150" d="M14,109.7c-0.2-0.2-0.3-0.3-0.5-0.5c-0.4-0.6-0.3-1.1,0.2-1.6c0.5-0.4,1-0.4,1.4,0c0.5,0.4,0.7,1,0.2,1.6
					c-0.1,0.2-0.3,0.4-0.5,0.5C14.6,109.7,14.3,109.7,14,109.7z"/>
			</g>
			<g>
				<path class="st150" d="M17.1,108.2c1,0,1.5,0.4,1.5,1.5c-0.8,0-1.6,0-2.4,0C16.1,109,16.4,108.5,17.1,108.2z"/>
			</g>
			<g>
				<path class="st150" d="M6.7,109.7c0-0.7,0-1.4,1-1.4s1,0.7,1,1.4C8,109.7,7.4,109.7,6.7,109.7z"/>
			</g>
			<g>
				<path class="st150" d="M22.7,81.7c-0.1,0.2-0.2,0.5-0.2,0.7c-0.5,0.5-1,0.8-1.7,0.7c-1.4-0.7-1.7-1.4-1-2.4
					c0.4-0.5,1-0.8,1.7-0.7C22.6,80.1,22.6,81,22.7,81.7z"/>
			</g>
			<g>
				<path class="st150" d="M22.7,45.7c-0.1,0.2-0.2,0.5-0.2,0.7c-0.5,0.5-1,0.8-1.7,0.7c-1.4-0.7-1.7-1.4-1-2.4
					c0.4-0.5,1-0.8,1.7-0.7C22.6,44.1,22.6,45,22.7,45.7z"/>
			</g>
			<g>
				<path class="st150" d="M23.2,62.4c-0.1,0.2-0.2,0.5-0.2,0.7c-0.5,0.5-1,0.9-1.8,0.6c0,0-0.1-0.1-0.1-0.1c-0.6-0.5-1.1-1.1-1-2
					c0-0.1,0-0.1,0-0.2c0.7-1.1,1-1.2,2.3-0.8C23,61.1,23.1,61.7,23.2,62.4z"/>
			</g>
			<g>
				<path class="st150" d="M19.8,30.3c-0.5-0.5-0.9-1-0.5-1.8c0.4-0.7,1-0.9,1.7-0.8c1.1,0,1.1,0.9,1.4,1.6c0,0.2,0,0.5-0.2,0.6
					C21.4,30.3,20.8,31.3,19.8,30.3z"/>
			</g>
			<g>
				<path class="st150" d="M19.8,66.3c-0.5-0.5-0.9-1-0.5-1.8c0.3-0.8,1-0.9,1.8-0.9c0,0,0,0,0,0c0.9,0.2,1.2,0.9,1.4,1.7
					c0,0.2,0,0.5-0.2,0.6C21.4,66.3,20.8,67.3,19.8,66.3z"/>
			</g>
			<g>
				<path class="st150" d="M19.8,102.3c-0.5-0.4-0.7-1-0.7-1.6c0.1-1,0.7-1.3,1.6-1.3c0.1,0,0.2,0.1,0.3,0.1c0.8,0.3,1.1,1,1.2,1.8
					c0,0.2,0,0.5-0.2,0.6C21.4,102.3,20.8,103.3,19.8,102.3z"/>
			</g>
			<g>
				<path class="st150" d="M19.8,8.7c0.4-0.5,1-0.7,1.7-0.7c1.2,0.2,1.3,1,1.2,2c0,0.1-0.1,0.2-0.2,0.3c-0.7,0.7-1.5,1-2.4,0.5
					C19.4,10.2,18.9,9.6,19.8,8.7z"/>
			</g>
			<g>
				<path class="st150" d="M19.5,54.4c0.5-0.5,1-0.8,1.7-0.7c1.2,0.1,1.3,1,1.2,1.9c0,0.1-0.1,0.2-0.2,0.3c-0.5,0.6-1.1,0.9-1.9,0.8
					C19,56.1,18.8,55.4,19.5,54.4z"/>
			</g>
			<g>
				<path class="st150" d="M19.5,18.4c0.5-0.5,1-0.8,1.7-0.7c1.2,0.1,1.3,1,1.2,1.9c0,0.1-0.1,0.2-0.2,0.3c-0.5,0.6-1.1,0.9-1.9,0.8
					C19,20.1,18.8,19.4,19.5,18.4z"/>
			</g>
			<g>
				<path class="st150" d="M19.5,90.4c0.5-0.5,1-0.7,1.7-0.7c0,0,0,0,0,0c1,0.3,1.4,1,1.2,2c0,0.1-0.1,0.2-0.2,0.3
					c-0.5,0.6-1.1,0.9-1.9,0.8C19,92.1,18.8,91.4,19.5,90.4z"/>
			</g>
			<g>
				<path class="st150" d="M21.2,53.5c-0.5-0.4-0.7-0.9-0.7-1.5c0.2-1.1,0.4-1.3,1.8-1.4c0.1,0,0.2,0.1,0.4,0.1
					c0.8,0.5,1.3,1.1,0.8,2.1l0,0C22.8,54,22.4,54.2,21.2,53.5z"/>
			</g>
			<g>
				<path class="st150" d="M21.5,79.8c-0.5-0.4-0.7-0.9-0.7-1.5c0.2-1.2,0.6-1.5,2-1.4c1.2,0.7,1.3,1,0.9,2.1l0,0
					C23.1,80.3,22.6,80.5,21.5,79.8z"/>
			</g>
			<g>
				<path class="st150" d="M19.5,3.9c-1.1-1.4-0.8-2.3,0.9-2.7c0.8,0.2,1.3,0.6,1.4,1.5C21.3,4.2,20.7,4.6,19.5,3.9z"/>
			</g>
			<g>
				<path class="st150" d="M19.5,39.9c-0.4-0.4-0.7-0.9-0.7-1.4c0.4-1.3,0.9-1.6,2.2-1.2c0.5,0.4,0.8,0.8,0.8,1.4
					C21.4,40.2,20.6,40.6,19.5,39.9z"/>
			</g>
			<g>
				<path class="st150" d="M19.5,75.9c-0.4-0.4-0.7-0.9-0.7-1.4c0.5-1.3,0.9-1.6,2.2-1.2c0.5,0.4,0.8,0.8,0.8,1.4
					C21.4,76.2,20.6,76.6,19.5,75.9z"/>
			</g>
			<g>
				<path class="st150" d="M20.3,16c-0.5,0.5-1.2,0.9-1.9,0.4c-0.5-0.3-0.7-0.8-0.6-1.3c0.1-0.9,0.8-1.1,1.5-1.2
					C20.6,14.2,20.9,14.8,20.3,16z"/>
			</g>
			<g>
				<path class="st150" d="M20.3,52c-0.5,0.5-1.2,0.9-1.9,0.4c-0.5-0.3-0.7-0.8-0.6-1.3c0.1-0.9,0.8-1.1,1.5-1.2
					C20.6,50.2,20.9,50.8,20.3,52z"/>
			</g>
			<g>
				<path class="st150" d="M19.1,59.2c-0.4-0.4-0.6-0.8-0.7-1.4c0.4-1.3,0.9-1.6,2.2-1.1c0.6,0.3,0.9,0.8,0.9,1.5
					C20.6,59.7,20.1,59.9,19.1,59.2z"/>
			</g>
			<g>
				<path class="st150" d="M19.1,95.3c-0.4-0.4-0.6-0.8-0.7-1.4c0.4-1.3,0.9-1.6,2.2-1.1c0.8,0.5,1.1,1.2,0.6,2.1
					C20.5,95.4,19.9,96.1,19.1,95.3z"/>
			</g>
			<g>
				<path class="st150" d="M18.8,33.1c-1.1-1.4-0.8-2.2,1-2.6c0.9,0.2,1.4,0.7,1.4,1.7C20.4,33.6,19.9,33.8,18.8,33.1z"/>
			</g>
			<g>
				<path class="st150" d="M18.8,69.1c-1.1-1.4-0.8-2.2,1-2.6c0.9,0.2,1.4,0.7,1.4,1.7C20.4,69.6,19.9,69.8,18.8,69.1z"/>
			</g>
			<g>
				<path class="st150" d="M18.8,105.2c-1.1-1.4-0.8-2.2,1-2.6c0.9,0.2,1.4,0.7,1.4,1.7C20.4,105.6,19.9,105.8,18.8,105.2z"/>
			</g>
			<g>
				<path class="st150" d="M20.5,6.3c-0.5,0.5-1.2,0.9-1.9,0.4C18.1,6.4,17.9,6,18,5.4c0.1-0.9,0.8-1.1,1.5-1.2
					C20.9,4.6,21.1,5.1,20.5,6.3z"/>
			</g>
			<g>
				<path class="st150" d="M20.5,42.3c-0.5,0.5-1.2,0.9-1.9,0.4c-0.5-0.3-0.7-0.8-0.6-1.3c0.1-0.9,0.8-1.1,1.5-1.2
					C20.9,40.6,21.1,41.1,20.5,42.3z"/>
			</g>
			<g>
				<path class="st150" d="M20.5,78.3c-0.5,0.5-1.2,0.9-1.9,0.4c-0.5-0.3-0.7-0.8-0.6-1.3c0.1-0.9,0.8-1.1,1.5-1.2
					C20.9,76.6,21.1,77.1,20.5,78.3z"/>
			</g>
			<g>
				<path class="st150" d="M19.3,13.6c-0.4-0.4-0.7-0.9-0.7-1.4c0.2-0.9,0.6-1.5,1.7-1.3c0.8,0.4,1.5,0.7,1.4,1.8
					C20.9,14,20.4,14.2,19.3,13.6z"/>
			</g>
			<g>
				<path class="st150" d="M19.3,49.6c-0.4-0.4-0.7-0.9-0.7-1.4c0.4-1.3,0.9-1.6,2.2-1.1c0.6,0.3,0.9,0.8,0.9,1.5
					C20.9,50,20.4,50.2,19.3,49.6z"/>
			</g>
			<g>
				<path class="st150" d="M19.3,85.6c-0.4-0.4-0.7-0.9-0.7-1.4c0.4-1.3,0.9-1.6,2.2-1.1c0.6,0.3,0.9,0.8,0.9,1.5
					C20.9,86,20.4,86.2,19.3,85.6z"/>
			</g>
			<g>
				<path class="st150" d="M19.1,23.2c-0.4-0.4-0.6-0.8-0.7-1.4c0.4-1.3,0.9-1.6,2.2-1.1c0.6,0.3,0.9,0.8,0.9,1.5
					C20.6,23.7,20.1,23.9,19.1,23.2z"/>
			</g>
			<g>
				<path class="st150" d="M20.3,87c-0.1,0.4-0.2,0.7-0.2,1.1c-0.4,0.6-1.1,0.7-1.7,0.3c-0.5-0.3-0.7-0.7-0.6-1.3
					c0.1-0.9,0.8-1.1,1.5-1.2C19.9,86,20.5,86.1,20.3,87z"/>
			</g>
			<g>
				<path class="st150" d="M20.1,25.4c-0.8,1-1.6,1.1-2.2,0.4c-0.7-0.7-0.5-1.4,0.5-2.2C20,23.5,20.5,24,20.1,25.4z"/>
			</g>
			<g>
				<path class="st150" d="M20.1,61.6c-0.7,0.6-1.5,1-2.2,0.1c-0.6-0.8-0.3-1.6,0.5-2.1C20.1,59.5,20.5,60,20.1,61.6L20.1,61.6z"/>
			</g>
			<g>
				<path class="st150" d="M18.1,98.2c-1.1-1-1.1-1.6,0-2.5c0.8-0.1,1.6-0.2,1.9,0.8C20.1,98.1,19.5,98.6,18.1,98.2z"/>
			</g>
			<g>
				<path class="st150" d="M19.8-0.7c-0.8,0.9-1.6,1.1-2.2,0.4c-0.6-0.6-0.5-1.4,0.4-2.2C19.8-2.6,20.2-2.2,19.8-0.7z"/>
			</g>
			<g>
				<path class="st150" d="M18.9,27.8c-0.1,0.8-0.5,1.3-1.3,1.3c-0.8,0-1.3-0.5-1.2-1.3c0-0.8,0.5-1.2,1.2-1.2
					C18.4,26.6,18.8,27,18.9,27.8z"/>
			</g>
			<g>
				<path class="st150" d="M15.9,22.7c0.7,0.1,1.2,0.5,1.2,1.2c0,0.8-0.4,1.2-1.2,1.2c-0.8,0-1.3-0.4-1.3-1.3
					C14.7,23.1,15.2,22.8,15.9,22.7z"/>
			</g>
			<g>
				<path class="st150" d="M16.3,63.8c0.1-0.8,0.5-1.3,1.3-1.2c0.8,0,1.2,0.6,1.2,1.4c0,0.8-0.5,1.2-1.3,1.2
					C16.8,65.1,16.4,64.6,16.3,63.8z"/>
			</g>
			<g>
				<path class="st150" d="M15.9,58.7c0.8,0.1,1.3,0.5,1.3,1.2c0,0.8-0.4,1.2-1.2,1.2c-0.8,0-1.3-0.4-1.3-1.3
					C14.7,59.1,15.2,58.8,15.9,58.7z"/>
			</g>
			<g>
				<path class="st150" d="M17.6,81.8c-0.9-0.8-1.1-1.7-0.4-2.2c0.8-0.7,1.6-0.4,2.1,0.5C19.5,81.7,19,82.2,17.6,81.8z"/>
			</g>
			<g>
				<path class="st150" d="M18.9,100.3c-0.8,0.9-1.7,1.1-2.2,0.4c-0.6-0.8-0.4-1.6,0.5-2.1C18.9,98.4,19.3,98.9,18.9,100.3z"/>
			</g>
			<g>
				<path class="st150" d="M16.8,101.5c0.8,0.1,1.2,0.6,1.1,1.4c-0.1,0.8-0.6,1.1-1.3,1.1c-0.8-0.1-1.2-0.6-1.1-1.4
					C15.5,101.8,16,101.5,16.8,101.5z"/>
			</g>
			<g>
				<path class="st150" d="M16.5,65.5c0.9,0,1.4,0.4,1.4,1.3c0,0.8-0.4,1.2-1.2,1.2c-0.8,0-1.3-0.4-1.3-1.2
					C15.4,65.9,15.9,65.6,16.5,65.5z"/>
			</g>
			<g>
				<path class="st150" d="M18.6,1.7C18.6,2.6,18.1,3,17.3,3c-0.8,0-1.2-0.5-1.2-1.3c0-0.8,0.5-1.2,1.2-1.2
					C18.2,0.5,18.6,0.9,18.6,1.7z"/>
			</g>
			<g>
				<path class="st150" d="M15.4,30.6c0.1-0.8,0.6-1.2,1.4-1.1c0.8,0.1,1.1,0.6,1.1,1.3c-0.1,0.8-0.6,1.2-1.4,1.1
					C15.7,31.9,15.4,31.4,15.4,30.6z"/>
			</g>
			<g>
				<path class="st150" d="M18.6,38.2c-0.6,0.8-1.3,1.1-2.1,0.4c-0.7-0.5-0.5-1.4,0.4-2.2C18.6,36.3,19.1,36.8,18.6,38.2z"/>
			</g>
			<g>
				<path class="st150" d="M18.6,74c-0.8,0.9-1.7,1.1-2.2,0.4c-0.6-0.8-0.4-1.5,0.5-2.1c0.6-0.2,1.2-0.3,1.6,0.2
					C18.9,72.9,19,73.5,18.6,74z"/>
			</g>
			<g>
				<path class="st150" d="M18.1,93.6c-0.8,0.9-1.6,1-2.2,0.4c-0.6-0.8-0.4-1.5,0.5-2.1C18.1,91.6,18.6,92.1,18.1,93.6z"/>
			</g>
			<g>
				<path class="st150" d="M18.1,57.5c-0.8,0.9-1.6,1-2.2,0.4c-0.6-0.8-0.4-1.5,0.5-2.1C18.1,55.6,18.6,56.1,18.1,57.5z"/>
			</g>
			<g>
				<path class="st150" d="M17.7,76.3c0,0.8-0.4,1.3-1.3,1.3c-0.8,0-1.2-0.4-1.2-1.2c0-0.8,0.4-1.3,1.2-1.3
					C17.2,75.2,17.6,75.6,17.7,76.3z"/>
			</g>
			<g>
				<path class="st150" d="M18.4,11.9c-0.8,0.9-1.6,1-2.2,0.4c-0.6-0.8-0.4-1.5,0.5-2.1C18.4,9.9,18.8,10.4,18.4,11.9z"/>
			</g>
			<g>
				<path class="st150" d="M17.6,45.7c-0.9-0.8-1.1-1.7-0.4-2.2c0.8-0.7,1.6-0.4,2.1,0.5C19.5,45.7,19,46.2,17.6,45.7z"/>
			</g>
			<g>
				<path class="st150" d="M18.4,47.9c-0.8,0.9-1.6,1-2.2,0.4c-0.6-0.8-0.4-1.5,0.5-2.1C18.4,46,18.8,46.4,18.4,47.9z"/>
			</g>
			<g>
				<path class="st150" d="M17.7,40.3c0,0.8-0.4,1.3-1.3,1.3c-0.8,0-1.2-0.4-1.2-1.2c0-0.8,0.4-1.3,1.2-1.3
					C17.2,39.1,17.6,39.6,17.7,40.3z"/>
			</g>
			<g>
				<path class="st150" d="M17.6,9.7c-0.9-0.8-1.1-1.7-0.4-2.2c0.8-0.7,1.6-0.4,2.1,0.5C19.5,9.7,19,10.2,17.6,9.7z"/>
			</g>
			<g>
				<path class="st150" d="M17.4,19.4c-0.9-0.8-1.1-1.7-0.4-2.2c0.8-0.7,1.6-0.4,2.1,0.5C19.3,19.4,18.8,19.9,17.4,19.4z"/>
			</g>
			<g>
				<path class="st150" d="M19.6,107.3c-0.6,0.9-1.3,1-2.2,0.5c-0.5-0.9-0.5-1.7,0.5-2.2C19.6,105.4,20,105.9,19.6,107.3z"/>
			</g>
			<g>
				<path class="st150" d="M17.4,14.3c-0.1,0.7-0.5,1.2-1.2,1.2c-0.8,0-1.3-0.4-1.3-1.3c0-0.8,0.4-1.2,1.2-1.2
					C17,13,17.4,13.5,17.4,14.3z"/>
			</g>
			<g>
				<path class="st150" d="M17.4,55.4c-0.9-0.8-1.1-1.7-0.4-2.2c0.8-0.7,1.6-0.4,2.1,0.5C19.3,55.4,18.8,55.9,17.4,55.4z"/>
			</g>
			<g>
				<path class="st150" d="M15.2,4.4c0.1-0.8,0.5-1.2,1.3-1.2c0.8,0,1.2,0.5,1.2,1.2c0,0.8-0.5,1.3-1.3,1.2
					C15.6,5.6,15.2,5.1,15.2,4.4z"/>
			</g>
			<g>
				<path class="st150" d="M17.4,50.3c-0.1,0.8-0.5,1.3-1.3,1.2c-0.8,0-1.2-0.5-1.2-1.2c0-0.8,0.5-1.3,1.3-1.2
					C17,49.1,17.3,49.5,17.4,50.3z"/>
			</g>
			<g>
				<path class="st150" d="M17.4,71.8c-0.5-0.9-0.5-1.7,0.5-2.2c1.7-0.1,2,0.1,1.9,1.7C19.1,72.5,18.6,72.6,17.4,71.8z"/>
			</g>
			<g>
				<path class="st150" d="M17.4,91.4c-0.9-0.8-1.1-1.7-0.4-2.2c0.8-0.7,1.6-0.4,2.1,0.5C19.3,91.4,18.8,91.9,17.4,91.4z"/>
			</g>
			<g>
				<path class="st150" d="M16,87.5c-0.8-0.1-1.2-0.6-1.1-1.4c0.1-0.8,0.6-1.1,1.3-1.1c0.8,0.1,1.2,0.6,1.1,1.4
					C17.3,87.2,16.8,87.5,16,87.5z"/>
			</g>
			<g>
				<path class="st150" d="M18.4,83.9c-0.8,0.9-1.6,1-2.2,0.4c-0.6-0.8-0.4-1.5,0.5-2.1C18.4,82,18.8,82.4,18.4,83.9z"/>
			</g>
			<g>
				<path class="st150" d="M17.8,36.1c-1.1-1-1.1-1.6,0-2.5c1.7-0.1,2,0.1,1.9,1.7C19.4,36.2,18.8,36.6,17.8,36.1z"/>
			</g>
			<g>
				<path class="st150" d="M18.1,21.5c-0.8,0.9-1.6,1-2.2,0.4c-0.6-0.8-0.4-1.5,0.5-2.1C18.1,19.6,18.6,20.1,18.1,21.5z"/>
			</g>
			<g>
				<path class="st150" d="M16.7,69.6c-0.1,0.7-0.4,1.2-1.2,1.2c-0.8,0-1.3-0.5-1.2-1.3c0-0.8,0.5-1.2,1.2-1.2
					C16.2,68.4,16.6,68.9,16.7,69.6z"/>
			</g>
			<g>
				<path class="st150" d="M14.2,105.7c0-0.8,0.4-1.2,1.1-1.3c0.8,0,1.3,0.4,1.3,1.2c0,0.8-0.4,1.2-1.2,1.2
					C14.7,106.9,14.3,106.4,14.2,105.7z"/>
			</g>
			<g>
				<path class="st150" d="M15.3,42.1c0.7,0.1,1.2,0.5,1.1,1.3c0,0.8-0.5,1.2-1.3,1.2c-0.8,0-1.2-0.5-1.2-1.3
					C14,42.5,14.5,42.1,15.3,42.1z"/>
			</g>
			<g>
				<path class="st150" d="M15.2,78.1c0.7,0.1,1.2,0.4,1.2,1.2c0,0.8-0.4,1.2-1.2,1.2c-0.8,0-1.2-0.4-1.2-1.2
					C14,78.5,14.4,78.2,15.2,78.1z"/>
			</g>
			<g>
				<path class="st150" d="M16.2,17.1c-0.1,0.8-0.5,1.3-1.2,1.3c-0.8,0-1.2-0.4-1.2-1.2c0-0.8,0.4-1.2,1.2-1.2
					C15.7,16,16.1,16.5,16.2,17.1z"/>
			</g>
			<g>
				<path class="st150" d="M15,52c0.7,0.1,1.2,0.5,1.2,1.2c0,0.8-0.4,1.2-1.2,1.2c-0.8,0-1.2-0.4-1.2-1.2C13.8,52.4,14.2,52.1,15,52
					z"/>
			</g>
			<g>
				<path class="st150" d="M13.7,89.3c0.1-0.8,0.4-1.3,1.2-1.3c0.8,0,1.2,0.4,1.2,1.2c0,0.8-0.4,1.2-1.2,1.2
					C14.2,90.4,13.9,90,13.7,89.3z"/>
			</g>
			<g>
				<path class="st150" d="M15.9,26.7c-0.1,0.8-0.4,1.3-1.2,1.3c-0.7,0-1.2-0.4-1.2-1.2c0-0.7,0.4-1.2,1.2-1.2
					C15.4,25.6,15.8,26.1,15.9,26.7z"/>
			</g>
			<g>
				<path class="st150" d="M14.7,61.6c0.7,0.1,1.2,0.4,1.3,1.2c0,0.7-0.4,1.2-1.2,1.2c-0.7,0-1.2-0.4-1.2-1.2
					C13.5,62.1,13.9,61.8,14.7,61.6z"/>
			</g>
			<g>
				<path class="st150" d="M14.6,97.6c0.8,0.1,1.3,0.5,1.3,1.2c0,0.7-0.4,1.2-1.2,1.2c-0.7,0-1.2-0.4-1.2-1.2
					C13.5,98.1,14,97.8,14.6,97.6z"/>
			</g>
			<g>
				<path class="st150" d="M13.2,0.5c0.1-0.8,0.5-1.3,1.3-1.2c0.7,0,1.1,0.5,1.1,1.2c0,0.8-0.4,1.2-1.2,1.2
					C13.7,1.7,13.4,1.2,13.2,0.5z"/>
			</g>
			<g>
				<path class="st150" d="M14.4,35.3c0.7,0.1,1.2,0.4,1.2,1.2c0,0.8-0.4,1.2-1.2,1.2c-0.7,0-1.1-0.4-1.2-1.1
					C13.2,35.8,13.7,35.4,14.4,35.3z"/>
			</g>
			<g>
				<path class="st150" d="M15.7,72.5c-0.1,0.7-0.5,1.2-1.2,1.2c-0.8,0-1.2-0.5-1.2-1.2c0-0.7,0.5-1.1,1.2-1.1
					C15.2,71.3,15.6,71.8,15.7,72.5z"/>
			</g>
			<g>
				<path class="st150" d="M14.2,8.9c0.8,0.1,1.3,0.5,1.2,1.3c0,0.7-0.5,1.1-1.2,1.1c-0.8,0-1.2-0.4-1.2-1.2
					C13,9.4,13.5,9.1,14.2,8.9z"/>
			</g>
			<g>
				<path class="st150" d="M15.5,46.2c-0.1,0.7-0.5,1.2-1.3,1.2c-0.7,0-1.2-0.5-1.2-1.3c0-0.7,0.5-1.1,1.2-1.1
					C15,45,15.4,45.5,15.5,46.2z"/>
			</g>
			<g>
				<path class="st150" d="M14.2,81c0.7,0.1,1.2,0.4,1.2,1.2c0,0.8-0.4,1.2-1.2,1.2c-0.7,0-1.1-0.4-1.2-1.1
					C13,81.5,13.5,81.1,14.2,81z"/>
			</g>
			<g>
				<path class="st150" d="M13.9,18.9c0.8,0.1,1.3,0.5,1.3,1.2c0,0.7-0.5,1.2-1.2,1.2c-0.7,0-1.1-0.5-1.1-1.1
					C12.8,19.4,13.3,19,13.9,18.9z"/>
			</g>
			<g>
				<path class="st150" d="M14,54.9c0.7,0.1,1.2,0.5,1.2,1.2c0,0.7-0.5,1.2-1.2,1.2c-0.7,0-1.1-0.5-1.1-1.1
					C12.8,55.4,13.2,55,14,54.9z"/>
			</g>
			<g>
				<path class="st150" d="M15.2,92c-0.1,0.8-0.5,1.3-1.3,1.3c-0.7,0-1.2-0.5-1.2-1.2c0-0.7,0.5-1.1,1.2-1.1
					C14.7,90.9,15.1,91.4,15.2,92z"/>
			</g>
			<g>
				<path class="st150" d="M15.7,32.4c0.8,0.1,1.2,0.5,1.2,1.3c0,0.8-0.5,1.2-1.2,1.2c-0.8,0-1.3-0.5-1.2-1.3
					C14.5,32.8,15,32.4,15.7,32.4z"/>
			</g>
			<g>
				<path class="st150" d="M15.7,94.7c0.7,0.1,1.2,0.5,1.2,1.2c0,0.8-0.4,1.2-1.2,1.2c-0.8,0-1.3-0.5-1.2-1.3
					C14.5,95.1,15,94.8,15.7,94.7z"/>
			</g>
			<g>
				<path class="st150" d="M14.2,7.3c0.1-0.8,0.5-1.2,1.3-1.2c0.8,0,1.2,0.4,1.2,1.2c0,0.8-0.5,1.3-1.3,1.2
					C14.6,8.5,14.3,8,14.2,7.3z"/>
			</g>
			<g>
				<path class="st150" d="M13.5,74.2c0.7,0.1,1.2,0.5,1.2,1.3c0,0.7-0.5,1.1-1.2,1.1c-0.7,0-1.2-0.5-1.2-1.2
					C12.4,74.7,12.8,74.3,13.5,74.2z"/>
			</g>
			<g>
				<path class="st150" d="M13.5,38.2c0.7,0.1,1.2,0.5,1.2,1.3c0,0.7-0.5,1.1-1.2,1.1c-0.7,0-1.2-0.5-1.2-1.2
					C12.4,38.7,12.8,38.3,13.5,38.2z"/>
			</g>
			<g>
				<path class="st150" d="M13.5,2.2c0.7,0.1,1.2,0.5,1.2,1.2c0,0.7-0.4,1.1-1.1,1.2c-0.7,0-1.2-0.4-1.2-1.2
					C12.3,2.7,12.8,2.3,13.5,2.2z"/>
			</g>
			<g>
				<path class="st150" d="M13.7,100.5c0.8,0.1,1.3,0.5,1.2,1.3c0,0.7-0.5,1.1-1.2,1.1c-0.7,0-1.2-0.5-1.2-1.2
					C12.6,101,13.1,100.7,13.7,100.5z"/>
			</g>
			<g>
				<path class="st150" d="M13.8,64.6c0.7,0.2,1.2,0.6,1.1,1.3c-0.1,0.7-0.5,1.1-1.2,1.1c-0.7,0-1.2-0.5-1.1-1.3
					C12.6,65,13.1,64.6,13.8,64.6z"/>
			</g>
			<g>
				<path class="st150" d="M12.5,29.8c0.1-0.8,0.5-1.3,1.3-1.2c0.7,0,1.1,0.5,1.1,1.2c0,0.7-0.5,1.2-1.2,1.2
					C13,30.9,12.6,30.4,12.5,29.8z"/>
			</g>
			<g>
				<path class="st150" d="M13.1,93.8c0.7,0.1,1.1,0.5,1.1,1.2c0,0.7-0.5,1.2-1.3,1.1c-0.7-0.1-1.1-0.5-1-1.2
					C11.9,94.2,12.4,93.9,13.1,93.8z"/>
			</g>
			<g>
				<path class="st150" d="M11.8,59c0.1-0.7,0.4-1.2,1.1-1.2c0.8,0,1.2,0.4,1.2,1.2c0,0.7-0.5,1.1-1.2,1.1
					C12.3,60.2,12,59.7,11.8,59z"/>
			</g>
			<g>
				<path class="st150" d="M11.8,23c0.1-0.7,0.5-1.2,1.2-1.2c0.7,0,1.2,0.4,1.2,1.1c0,0.8-0.5,1.2-1.2,1.2
					C12.3,24.1,11.9,23.6,11.8,23z"/>
			</g>
			<g>
				<path class="st150" d="M12.1,85.1c0.1-0.7,0.5-1.1,1.1-1.2c0.7,0,1.2,0.4,1.2,1.2c0,0.7-0.5,1.2-1.2,1.2
					C12.5,86.2,12.2,85.8,12.1,85.1z"/>
			</g>
			<g>
				<path class="st150" d="M12.3,77.2c0.7,0.1,1.2,0.4,1.2,1.1c0,0.7-0.4,1.2-1.1,1.2c-0.7,0-1.2-0.4-1.2-1.1
					C11.1,77.7,11.6,77.3,12.3,77.2z"/>
			</g>
			<g>
				<path class="st150" d="M13.2,47.9c0.7,0.1,1.2,0.5,1.2,1.2c0,0.7-0.5,1.1-1.1,1.1c-0.7,0-1.2-0.5-1.2-1.2
					C12.1,48.4,12.6,48,13.2,47.9z"/>
			</g>
			<g>
				<path class="st150" d="M14.5,13.1c-0.1,0.7-0.5,1.2-1.2,1.2c-0.7,0-1.1-0.5-1.1-1.2c0-0.7,0.5-1.2,1.2-1.2
					C14,11.9,14.4,12.4,14.5,13.1z"/>
			</g>
			<g>
				<path class="st150" d="M10.9,88c0.1-0.7,0.5-1.1,1.2-1.1c0.7,0,1.1,0.5,1.1,1.2c0,0.7-0.5,1.1-1.2,1.1
					C11.3,89.1,11,88.6,10.9,88z"/>
			</g>
			<g>
				<path class="st150" d="M12,50.8c0.7,0.1,1.1,0.4,1.2,1.1c0,0.7-0.4,1.2-1.1,1.2c-0.7,0-1.2-0.4-1.2-1.1
					C10.9,51.3,11.3,50.9,12,50.8z"/>
			</g>
			<g>
				<path class="st150" d="M12.1,14.8c0.7,0.1,1.1,0.5,1.1,1.2c0,0.7-0.5,1.1-1.2,1.1c-0.7,0-1.1-0.5-1.1-1.2
					C10.9,15.3,11.4,14.9,12.1,14.8z"/>
			</g>
			<g>
				<path class="st150" d="M11.1,42.3c0.1-0.7,0.5-1.2,1.1-1.2c0.7,0,1.2,0.4,1.2,1.1c0,0.7-0.4,1.2-1.1,1.2
					C11.6,43.5,11.2,43,11.1,42.3z"/>
			</g>
			<g>
				<path class="st150" d="M13.7,104.6c-0.1,0.7-0.4,1.2-1.1,1.2c-0.7,0.1-1.2-0.4-1.2-1.2c0-0.7,0.4-1.1,1.1-1.2
					C13.2,103.5,13.6,103.9,13.7,104.6z"/>
			</g>
			<g>
				<path class="st150" d="M13.7,68.6c-0.1,0.7-0.4,1.2-1.1,1.2c-0.7,0.1-1.2-0.4-1.2-1.2c0-0.7,0.4-1.1,1.1-1.2
					C13.2,67.5,13.6,67.9,13.7,68.6z"/>
			</g>
			<g>
				<path class="st150" d="M11.4,6.3c0.1-0.7,0.5-1.2,1.1-1.2c0.7,0,1.2,0.5,1.2,1.2c0,0.7-0.5,1.1-1.2,1.1
					C11.8,7.5,11.5,7,11.4,6.3z"/>
			</g>
			<g>
				<path class="st150" d="M11.6,32.7c0.1-0.7,0.5-1.2,1.1-1.2c0.7,0,1.2,0.5,1.2,1.2c0,0.7-0.5,1.1-1.2,1.1
					C12.1,33.8,11.7,33.3,11.6,32.7z"/>
			</g>
			<g>
				<path class="st150" d="M12,100.6c-0.1,0.7-0.5,1.1-1.2,1.1c-0.6,0-1-0.5-1-1.1c0-0.7,0.5-1.1,1.2-1.1
					C11.5,99.5,11.9,99.9,12,100.6z"/>
			</g>
			<g>
				<path class="st150" d="M10,18.9c0.1-0.7,0.5-1.1,1.2-1.1c0.7,0,1.1,0.5,1.1,1.2c0,0.6-0.5,1-1.1,1C10.4,20,10,19.5,10,18.9z"/>
			</g>
			<g>
				<path class="st150" d="M10,54.9c0.1-0.7,0.5-1.2,1.2-1.1c0.7,0,1.1,0.5,1.1,1.2c0,0.6-0.5,1-1.1,1C10.4,56,10,55.6,10,54.9z"/>
			</g>
			<g>
				<path class="st150" d="M11.1,89.8c0.7,0.1,1.1,0.5,1.1,1.2c-0.1,0.7-0.5,1.1-1.2,1c-0.6-0.1-1-0.5-1-1.1
					C10,90.2,10.5,89.8,11.1,89.8z"/>
			</g>
			<g>
				<path class="st150" d="M9.7,28.8c0-0.6,0.4-1,1-1.1c0.7-0.1,1.2,0.3,1.2,1c0,0.6-0.4,1.1-1,1.1C10.3,29.9,9.8,29.5,9.7,28.8z"/>
			</g>
			<g>
				<path class="st150" d="M10.9,63.4c0.7,0.1,1.1,0.5,1.1,1.2c0,0.6-0.5,1-1.1,1c-0.7,0-1.1-0.5-1.1-1.2
					C9.8,63.8,10.2,63.5,10.9,63.4z"/>
			</g>
			<g>
				<path class="st150" d="M11.3,80.1c0.7,0.1,1.1,0.5,1.1,1.2c0,0.7-0.5,1.1-1.2,1.1c-0.6,0-1-0.5-1-1.1
					C10.2,80.5,10.7,80.2,11.3,80.1z"/>
			</g>
			<g>
				<path class="st150" d="M9.5,2.4c0.1-0.7,0.4-1.1,1.1-1.1c0.7,0,1.1,0.5,1.1,1.2c0,0.6-0.5,1-1.1,1C9.9,3.5,9.6,3.1,9.5,2.4z"/>
			</g>
			<g>
				<path class="st150" d="M10.6,37.4c0.7,0.1,1.1,0.5,1.1,1.1c0,0.7-0.5,1.1-1.2,1.1c-0.7-0.1-1-0.5-1-1.2
					C9.6,37.7,10,37.4,10.6,37.4z"/>
			</g>
			<g>
				<path class="st150" d="M10.6,73.4c0.7,0.1,1.1,0.4,1.1,1.1c0,0.7-0.5,1.1-1.2,1.1c-0.6,0-1-0.5-1-1.1
					C9.6,73.8,10,73.4,10.6,73.4z"/>
			</g>
			<g>
				<path class="st150" d="M12.5,9.2c-0.1,0.7-0.5,1.2-1.2,1.1c-0.7,0-1.1-0.5-1.1-1.2c0-0.6,0.5-1.1,1.1-1.1
					C12,8.1,12.4,8.5,12.5,9.2z"/>
			</g>
			<g>
				<path class="st150" d="M10.4,47c0.7,0,1.1,0.4,1.1,1c0,0.7-0.4,1.1-1.1,1.1c-0.7,0-1-0.4-1-1.1C9.3,47.4,9.7,47.1,10.4,47z"/>
			</g>
			<g>
				<path class="st150" d="M9.3,84.1c0.1-0.7,0.4-1.1,1.1-1.1c0.7,0,1.1,0.4,1.1,1.1c0,0.7-0.5,1-1.1,1C9.7,85.2,9.3,84.8,9.3,84.1z
					"/>
			</g>
			<g>
				<path class="st150" d="M12.5,45.2c-0.1,0.7-0.5,1.1-1.2,1.1c-0.7,0-1.1-0.5-1-1.2c0.1-0.6,0.5-1,1.1-1
					C12,44.1,12.4,44.6,12.5,45.2z"/>
			</g>
			<g>
				<path class="st150" d="M11.5,12.1c0,0.7-0.4,1.1-1,1.1c-0.7,0-1.1-0.4-1.1-1c0-0.7,0.4-1.1,1.1-1.1C11,11,11.4,11.4,11.5,12.1z"
					/>
			</g>
			<g>
				<path class="st150" d="M11.8,60.7c0.7,0.1,1.1,0.4,1.2,1.1c0,0.7-0.4,1.1-1.1,1.2c-0.7,0-1.1-0.4-1.2-1.1
					C10.7,61.2,11.1,60.8,11.8,60.7z"/>
			</g>
			<g>
				<path class="st150" d="M11.8,24.7c0.7,0.1,1.1,0.5,1.1,1.2c0,0.7-0.5,1.1-1.2,1.1c-0.7,0-1.1-0.5-1.1-1.2
					C10.7,25.2,11.2,24.8,11.8,24.7z"/>
			</g>
			<g>
				<path class="st150" d="M11.8,96.7c0.7,0.1,1.1,0.5,1.1,1.2c0,0.7-0.5,1.1-1.2,1.1c-0.7,0-1.1-0.5-1.1-1.2
					C10.7,97.2,11.2,96.8,11.8,96.7z"/>
			</g>
			<g>
				<path class="st150" d="M10.4-0.4c0.1-0.7,0.4-1.1,1.1-1.2c0.6,0,1.1,0.4,1.1,1c0.1,0.7-0.4,1.2-1,1.2C11,0.7,10.6,0.3,10.4-0.4z
					"/>
			</g>
			<g>
				<path class="st150" d="M11.6,34.4c0.7,0.1,1.1,0.4,1.1,1.1c0,0.7-0.5,1.1-1.2,1.1c-0.6,0-1.1-0.4-1.1-1.1
					C10.4,34.9,10.9,34.5,11.6,34.4z"/>
			</g>
			<g>
				<path class="st150" d="M12.7,71.6c-0.1,0.7-0.5,1.2-1.2,1.1c-0.7-0.1-1.1-0.5-1-1.2c0.1-0.6,0.5-1,1.1-1
					C12.3,70.5,12.7,70.9,12.7,71.6z"/>
			</g>
			<g>
				<path class="st150" d="M11.6,106.5c0.7,0.1,1.1,0.5,1.1,1.2c0,0.6-0.4,1-1.1,1c-0.7,0-1.1-0.4-1.1-1.1
					C10.5,106.9,10.9,106.5,11.6,106.5z"/>
			</g>
			<g>
				<path class="st150" d="M7.9,24.8c0-0.7,0.4-1.1,1-1.1c0.7,0,1,0.4,1,1c0,0.6-0.3,1-1,1C8.3,25.7,8,25.4,7.9,24.8z"/>
			</g>
			<g>
				<path class="st150" d="M7.4,8.3c0-0.7,0.4-1,1-1c0.6,0,1,0.4,1,1c0,0.7-0.3,1.1-1,1C7.8,9.3,7.5,8.9,7.4,8.3z"/>
			</g>
			<g>
				<path class="st150" d="M10.2,87c-0.1,0.7-0.4,1.1-1.1,1c-0.7,0-1-0.4-1-1.1c0-0.6,0.4-1,1-1C9.8,86,10.2,86.4,10.2,87z"/>
			</g>
			<g>
				<path class="st150" d="M8.1,15.1C8.2,14.3,8.5,14,9.2,14c0.7,0,1,0.4,1,1.1c0,0.6-0.4,1-1,1C8.5,16.1,8.2,15.7,8.1,15.1z"/>
			</g>
			<g>
				<path class="st150" d="M9.4,76.3c0.6,0,1.1,0.3,1.1,1c0,0.7-0.4,1.1-1,1.1c-0.6,0-1-0.3-1-1C8.3,76.8,8.7,76.4,9.4,76.3z"/>
			</g>
			<g>
				<path class="st150" d="M9.6,102.4c0.7,0.1,1.1,0.4,1,1.1c0,0.7-0.4,1-1.1,1c-0.7,0-1-0.4-1-1.1C8.6,102.7,9,102.4,9.6,102.4z"/>
			</g>
			<g>
				<path class="st150" d="M9.6,40.3c0.7,0,1.1,0.3,1.1,1c0,0.7-0.3,1.1-1,1.1c-0.7,0-1.1-0.3-1.1-1C8.6,40.7,8.9,40.4,9.6,40.3z"/>
			</g>
			<g>
				<path class="st150" d="M10.7,5.4c-0.1,0.7-0.4,1-1.1,1c-0.7,0-1-0.4-1-1.1c0-0.7,0.4-1,1.1-1C10.4,4.3,10.7,4.7,10.7,5.4z"/>
			</g>
			<g>
				<path class="st150" d="M8.8,67.5c0-0.6,0.4-1.1,1-1.1c0.7,0,1.1,0.3,1.1,1c0,0.7-0.3,1.1-1,1.1C9.3,68.5,8.9,68.2,8.8,67.5z"/>
			</g>
			<g>
				<path class="st150" d="M11.2,21.7c0,0.6-0.3,1.1-1,1.1c-0.7,0-1.1-0.4-1.1-1.1c0-0.7,0.4-1,1-1.1C10.8,20.7,11.1,21.1,11.2,21.7
					z"/>
			</g>
			<g>
				<path class="st150" d="M9.9,30.4c0.7,0.1,1.1,0.4,1,1.1c0,0.7-0.4,1-1.1,1c-0.7,0-1-0.4-1-1.1C8.8,30.8,9.2,30.4,9.9,30.4z"/>
			</g>
			<g>
				<path class="st150" d="M11.2,93.8c0,0.6-0.3,1.1-1,1.1c-0.7,0-1.1-0.4-1.1-1.1c0-0.7,0.4-1,1-1C10.8,92.7,11.1,93.1,11.2,93.8z"
					/>
			</g>
			<g>
				<path class="st150" d="M8.9,59.6c0.7,0.1,1.1,0.4,1.1,1.1c0,0.6-0.4,1-1,1c-0.7,0-1-0.3-1.1-1C7.9,60,8.3,59.7,8.9,59.6z"/>
			</g>
			<g>
				<path class="st150" d="M10.1,56.7c0.7,0.1,1.1,0.4,1,1.1c0,0.7-0.5,1.1-1.2,1.1c-0.7,0-1-0.5-1-1.1C9.1,57.1,9.5,56.7,10.1,56.7
					z"/>
			</g>
			<g>
				<path class="st150" d="M7.4,80.3c0-0.7,0.4-1,1.1-1c0.6,0,1,0.4,1,1c0,0.7-0.4,1-1.1,1C7.8,81.3,7.5,80.9,7.4,80.3z"/>
			</g>
			<g>
				<path class="st150" d="M7.4,44.3c0-0.7,0.4-1,1.1-1c0.6,0,1,0.4,1,1c0,0.7-0.4,1-1,1C7.8,45.2,7.5,44.9,7.4,44.3z"/>
			</g>
			<g>
				<path class="st150" d="M8.6,69.3c0.7,0.1,1.1,0.4,1.1,1c0,0.7-0.4,1.1-1,1.1c-0.6,0-1-0.4-1-1C7.6,69.7,8,69.4,8.6,69.3z"/>
			</g>
			<g>
				<path class="st150" d="M8.6,105.3c0.7,0.1,1,0.4,1,1c0,0.7-0.4,1-1,1c-0.6,0-1-0.4-1-1C7.6,105.7,8.1,105.4,8.6,105.3z"/>
			</g>
			<g>
				<path class="st150" d="M9.7,34.4c0,0.6-0.4,1-1,1c-0.7,0-1.1-0.3-1.1-1c0-0.7,0.4-1,1.1-1C9.4,33.4,9.7,33.7,9.7,34.4z"/>
			</g>
			<g>
				<path class="st150" d="M8.1,51c0.1-0.7,0.5-1.1,1.1-1c0.6,0,1,0.4,1,1c0,0.7-0.4,1.1-1,1C8.5,52,8.2,51.6,8.1,51z"/>
			</g>
			<g>
				<path class="st150" d="M9.9,96.7c-0.1,0.7-0.5,1-1.1,1c-0.6,0-0.9-0.4-0.9-1c0-0.7,0.4-1,1-1C9.6,95.7,9.9,96.1,9.9,96.7z"/>
			</g>
			<g>
				<path class="st150" d="M6.2,56.8c0.1-0.6,0.4-0.9,1-0.9c0.6,0,1,0.4,0.9,1c0,0.6-0.4,1-1,0.9C6.5,57.8,6.3,57.4,6.2,56.8z"/>
			</g>
			<g>
				<path class="st150" d="M7.2,19.8c0.6,0,1,0.3,1,1c0,0.6-0.3,1-1,1c-0.6,0-1-0.3-1-1C6.2,20.2,6.6,19.9,7.2,19.8z"/>
			</g>
			<g>
				<path class="st150" d="M7.4,82.2c0.7,0.1,1.1,0.4,1.1,1c0,0.7-0.4,1-1,1c-0.6,0-0.9-0.4-0.9-1C6.5,82.5,6.9,82.3,7.4,82.2z"/>
			</g>
			<g>
				<path class="st150" d="M6.5,47.1c0.1-0.6,0.4-0.9,1-0.9c0.7,0,1,0.4,1,1.1c0,0.6-0.4,0.9-1,0.9C6.8,48.1,6.5,47.7,6.5,47.1z"/>
			</g>
			<g>
				<path class="st150" d="M7.4,10.2c0.6,0,1,0.3,1.1,0.9c0,0.7-0.3,1.1-1,1.1c-0.6,0-1-0.3-1-1C6.5,10.6,6.8,10.2,7.4,10.2z"/>
			</g>
			<g>
				<path class="st150" d="M8.7,73.2c-0.1,0.7-0.4,1-1,1c-0.7,0-1-0.4-1-1.1c0-0.6,0.4-0.9,1-0.9C8.4,72.3,8.7,72.7,8.7,73.2z"/>
			</g>
			<g>
				<path class="st150" d="M8.7,37.2c0,0.6-0.3,1-0.9,1.1c-0.7,0-1.1-0.3-1.1-1c0-0.6,0.3-1,1-1C8.3,36.2,8.6,36.6,8.7,37.2z"/>
			</g>
			<g>
				<path class="st150" d="M8.7,1.2c-0.1,0.7-0.4,1-1,1c-0.7,0-1-0.4-1-1.1c0-0.6,0.4-0.9,1-0.9C8.4,0.3,8.7,0.7,8.7,1.2z"/>
			</g>
			<g>
				<path class="st150" d="M7.9,98.6c0.6,0,1,0.3,1.1,0.9c0,0.7-0.3,1.1-1,1.1c-0.6,0-1-0.3-1-1C6.9,99,7.3,98.7,7.9,98.6z"/>
			</g>
			<g>
				<path class="st150" d="M9,63.4c0,0.7-0.3,1.1-0.9,1.2c-0.7,0-1.1-0.3-1.1-1c0-0.6,0.3-1,1-1C8.6,62.6,8.8,63,9,63.4z"/>
			</g>
			<g>
				<path class="st150" d="M8,28.6c-0.6,0-1-0.3-1-1c0-0.7,0.4-1.1,1-1c0.6,0,1,0.4,0.9,1C8.9,28.2,8.6,28.5,8,28.6z"/>
			</g>
			<g>
				<path class="st150" d="M8.1,88.9c0.7,0,1.1,0.4,1.1,1.1c0,0.6-0.4,1-1,1c-0.7,0-1-0.4-1-1C7.2,89.3,7.6,89,8.1,88.9z"/>
			</g>
			<g>
				<path class="st150" d="M7.2,54c0-0.7,0.4-1,1-1c0.6,0,1,0.4,1,1c0,0.7-0.3,1-1,1C7.6,54.9,7.2,54.6,7.2,54z"/>
			</g>
			<g>
				<path class="st150" d="M8.2,16.9c0.6,0.1,1,0.4,1,1c0,0.7-0.4,1-1,1c-0.6,0-1-0.4-1-1C7.2,17.3,7.6,16.9,8.2,16.9z"/>
			</g>
			<g>
				<path class="st150" d="M6.6,3.1c0.7,0.1,1.1,0.4,1.1,1c0,0.6-0.4,1-1,1c-0.6,0-1-0.3-1-1C5.8,3.5,6.2,3.3,6.6,3.1z"/>
			</g>
			<g>
				<path class="st150" d="M2.9,39.2c0.1-0.5,0.4-0.9,0.9-0.9c0.6,0,1,0.4,1,1c0,0.5-0.4,0.9-0.9,0.9C3.3,40.1,3,39.7,2.9,39.2z"/>
			</g>
			<g>
				<path class="st150" d="M3.8,2.2c0.6,0,1,0.3,1,0.9c0,0.6-0.3,1-0.9,1c-0.5,0-0.9-0.4-0.9-0.9C2.9,2.6,3.3,2.4,3.8,2.2z"/>
			</g>
			<g>
				<path class="st150" d="M3.1,101.6c0.1-0.6,0.4-1,0.9-1c0.6,0,1,0.4,1,1c0,0.5-0.4,0.9-0.9,0.9C3.5,102.5,3.2,102.1,3.1,101.6z"
					/>
			</g>
			<g>
				<path class="st150" d="M5,65.4c-0.1,0.6-0.3,1-0.9,1c-0.6,0-1-0.3-1-0.9c0-0.5,0.4-0.9,0.9-0.9C4.6,64.6,4.9,65,5,65.4z"/>
			</g>
			<g>
				<path class="st150" d="M5,29.5c-0.1,0.5-0.4,0.9-0.9,0.9c-0.6,0-1-0.4-0.9-1c0-0.5,0.4-0.9,1-0.9C4.7,28.6,5,29,5,29.5z"/>
			</g>
			<g>
				<path class="st150" d="M5.3,91.5c-0.1,0.6-0.4,1-0.9,1c-0.6,0-1-0.3-1-1c0-0.5,0.4-0.9,0.9-0.9C4.9,90.7,5.2,91.1,5.3,91.5z"/>
			</g>
			<g>
				<path class="st150" d="M4.3,54.9c0.6,0,0.9,0.3,1,0.9c0.1,0.6-0.3,1-0.9,1c-0.5,0-0.9-0.4-0.9-0.9C3.4,55.3,3.7,55,4.3,54.9z"/>
			</g>
			<g>
				<path class="st150" d="M4.3,18.9c0.5,0.1,0.9,0.4,0.9,0.9c0,0.6-0.4,1-1,1c-0.5,0-0.9-0.4-0.9-0.9C3.4,19.3,3.8,19,4.3,18.9z"/>
			</g>
			<g>
				<path class="st150" d="M5.5,81.9c0,0.6-0.3,0.9-0.9,1c-0.6,0-1-0.3-1-0.9C3.6,81.4,4,81,4.6,81C5.1,81,5.4,81.4,5.5,81.9z"/>
			</g>
			<g>
				<path class="st150" d="M4.6,46.9C4,46.8,3.6,46.5,3.6,46c0-0.6,0.4-1,1-1c0.5,0,0.9,0.4,0.9,1C5.5,46.5,5.1,46.8,4.6,46.9z"/>
			</g>
			<g>
				<path class="st150" d="M4.5,9c0.6,0,1,0.3,1,0.9c0.1,0.6-0.3,1-0.9,1c-0.6,0-0.9-0.4-0.9-0.9C3.6,9.4,4,9.1,4.5,9z"/>
			</g>
			<g>
				<path class="st150" d="M5.8,108.3c-0.1,0.6-0.4,0.9-0.9,1c-0.5,0-0.9-0.3-0.9-0.9c0-0.6,0.4-1,1-1
					C5.4,107.4,5.7,107.8,5.8,108.3z"/>
			</g>
			<g>
				<path class="st150" d="M4.8,71.3c0.6,0.1,1,0.4,0.9,1c0,0.5-0.4,0.9-0.9,0.9c-0.6,0-1-0.4-1-1C3.9,71.7,4.3,71.4,4.8,71.3z"/>
			</g>
			<g>
				<path class="st150" d="M5.8,36.3c-0.1,0.5-0.4,0.9-0.9,0.9c-0.6,0-1-0.4-1-1c0-0.6,0.4-1,1-0.9C5.4,35.4,5.7,35.8,5.8,36.3z"/>
			</g>
			<g>
				<path class="st150" d="M4.8-0.7c0.6,0.1,1,0.4,1,1c0,0.5-0.4,0.9-0.9,0.9c-0.6,0-1-0.4-1-1C3.9-0.3,4.2-0.6,4.8-0.7z"/>
			</g>
			<g>
				<path class="st150" d="M4.1,98.6c0.1-0.6,0.5-0.9,1.1-0.9c0.5,0.1,0.9,0.4,0.8,1c-0.1,0.6-0.4,1-1.1,0.9
					C4.4,99.5,4.1,99.1,4.1,98.6z"/>
			</g>
			<g>
				<path class="st150" d="M4.1,62.6c0.1-0.6,0.4-1,1-0.9c0.5,0,0.9,0.4,0.9,0.9c0,0.6-0.4,1-1,1C4.5,63.5,4.2,63.2,4.1,62.6z"/>
			</g>
			<g>
				<path class="st150" d="M5.1,25.6c0.6,0.1,1,0.4,0.9,1c0,0.5-0.4,0.9-0.9,0.9c-0.6,0-1-0.4-0.9-1C4.1,26,4.5,25.7,5.1,25.6z"/>
			</g>
			<g>
				<path class="st150" d="M5.2,88c0.6,0.1,1,0.4,1,1c0,0.6-0.3,0.9-0.9,0.9c-0.6,0-1-0.3-1-0.9C4.3,88.4,4.7,88.1,5.2,88z"/>
			</g>
			<g>
				<path class="st150" d="M6.3,52.9c-0.1,0.6-0.4,1-1,1c-0.6,0-0.9-0.3-0.9-0.9c0-0.6,0.3-1,0.9-1C5.9,52,6.2,52.4,6.3,52.9z"/>
			</g>
			<g>
				<path class="st150" d="M5.3,16c0.5,0.1,0.9,0.4,0.9,0.9c0,0.6-0.3,1-1,1c-0.6,0-1-0.4-0.9-1C4.4,16.3,4.8,16,5.3,16z"/>
			</g>
			<g>
				<path class="st150" d="M6.5,79c-0.1,0.6-0.4,1-1,1c-0.6,0-1-0.4-1-1c0-0.6,0.4-1,1-0.9C6.2,78.1,6.4,78.5,6.5,79z"/>
			</g>
			<g>
				<path class="st150" d="M5.6,42.1c0.5,0.1,0.9,0.4,0.9,0.9c0,0.6-0.4,1-1,1c-0.6,0-1-0.4-0.9-1C4.6,42.4,5,42.1,5.6,42.1z"/>
			</g>
			<g>
				<path class="st150" d="M5.5,6.1c0.6,0.1,1,0.4,1,1C6.5,7.6,6.1,8,5.6,8c-0.6,0-1-0.4-1-1C4.6,6.4,5,6.1,5.5,6.1z"/>
			</g>
			<g>
				<path class="st150" d="M6.8,105.3c-0.1,0.7-0.4,1.1-1,1.1c-0.6,0-1-0.4-1-1c0-0.5,0.3-0.9,0.9-0.9
					C6.3,104.4,6.6,104.8,6.8,105.3z"/>
			</g>
			<g>
				<path class="st150" d="M5.8,68.4c0.6,0.1,1,0.4,0.9,1c0,0.6-0.4,0.9-1,0.9c-0.5,0-0.9-0.4-0.9-0.9C4.8,68.8,5.2,68.5,5.8,68.4z"
					/>
			</g>
			<g>
				<path class="st150" d="M5.8,32.4c0.6,0.1,1,0.4,0.9,1c0,0.6-0.4,0.9-1,0.9c-0.5,0-0.9-0.4-0.9-0.9C4.8,32.8,5.2,32.5,5.8,32.4z"
					/>
			</g>
			<g>
				<path class="st150" d="M7,95.7c-0.1,0.6-0.4,1-1,1c-0.6,0-1-0.4-0.9-1c0-0.5,0.4-0.9,0.9-0.9C6.6,94.8,6.9,95.1,7,95.7z"/>
			</g>
			<g>
				<path class="st150" d="M5,59.8c0.1-0.7,0.4-1.1,1-1.1c0.6,0,1,0.4,0.9,1c0,0.6-0.4,0.9-0.9,0.9C5.4,60.7,5.2,60.3,5,59.8z"/>
			</g>
			<g>
				<path class="st150" d="M5,23.8c0.1-0.6,0.4-1,1-1c0.6,0,1,0.4,1,1c0,0.6-0.3,0.9-0.9,0.9C5.5,24.7,5.1,24.3,5,23.8z"/>
			</g>
			<g>
				<path class="st150" d="M7.2,86c0,0.6-0.3,1-1,1c-0.6,0-1-0.4-1-1c0-0.6,0.3-0.9,0.9-0.9C6.8,85.1,7.1,85.4,7.2,86z"/>
			</g>
			<g>
				<path class="st150" d="M5.3,50.1c0.1-0.6,0.4-1,1-1c0.6,0,1,0.4,0.9,1c0,0.6-0.4,0.9-0.9,0.9C5.7,51,5.4,50.7,5.3,50.1z"/>
			</g>
			<g>
				<path class="st150" d="M7.5,76.1c-0.1,0.7-0.4,1-1,1c-0.6,0-1-0.4-0.9-1c0-0.6,0.4-0.9,1-0.9C7.2,75.2,7.4,75.6,7.5,76.1z"/>
			</g>
			<g>
				<path class="st150" d="M7.5,14.1c-0.1,0.6-0.4,1-1,1c-0.6,0-1-0.4-1-1c0-0.6,0.4-1,1-1C7.1,13.1,7.4,13.5,7.5,14.1z"/>
			</g>
			<g>
				<path class="st150" d="M6.7,101.5c0.6,0,1,0.3,1,1c0,0.6-0.3,1-0.9,1c-0.6,0-1-0.3-1-0.9C5.8,101.9,6.1,101.6,6.7,101.5z"/>
			</g>
			<g>
				<path class="st150" d="M5.8,40.2c0-0.6,0.3-1,1-1c0.6,0,1,0.3,1,0.9c0,0.6-0.3,1-0.9,1C6.2,41.1,5.8,40.8,5.8,40.2z"/>
			</g>
			<g>
				<path class="st150" d="M8,66.4c-0.1,0.7-0.4,1.1-1,1.1c-0.6,0-1-0.3-1-1c0-0.6,0.3-1,1-1C7.6,65.5,7.9,65.9,8,66.4z"/>
			</g>
			<g>
				<path class="st150" d="M8,30.3c0,0.7-0.3,1.1-0.9,1.1c-0.6,0-1-0.3-1-0.9c0-0.6,0.3-1,0.9-1C7.6,29.5,7.8,29.9,8,30.3z"/>
			</g>
			<g>
				<path class="st150" d="M7.2,91.8c0.7,0.1,1.1,0.4,1,1c0,0.6-0.4,1-1,1c-0.6,0-1-0.4-1-1C6.2,92.2,6.7,91.9,7.2,91.8z"/>
			</g>
			<g>
				<path class="st150" d="M0.8,81c0-0.5,0.3-0.8,0.8-0.8c0.5,0,0.9,0.3,0.9,0.8c0,0.6-0.3,0.9-0.8,0.9C1.2,81.8,0.9,81.5,0.8,81z"
					/>
			</g>
			<g>
				<path class="st150" d="M0.8,45c0.1-0.5,0.4-0.8,0.9-0.8c0.6,0,0.9,0.4,0.8,0.9c-0.1,0.5-0.4,0.8-0.9,0.7
					C1.1,45.8,0.8,45.4,0.8,45z"/>
			</g>
			<g>
				<path class="st150" d="M2.7,77.2c0.5,0.1,0.9,0.4,0.8,1C3.4,78.7,3.1,79,2.6,79c-0.5,0-0.9-0.4-0.8-1
					C1.8,77.5,2.2,77.2,2.7,77.2z"/>
			</g>
			<g>
				<path class="st150" d="M2.2,94.5c0.1-0.5,0.4-0.9,1-0.9C3.7,93.6,4,94,4,94.5c0,0.5-0.4,0.9-0.9,0.9C2.5,95.4,2.3,95,2.2,94.5z"
					/>
			</g>
			<g>
				<path class="st150" d="M1.7,8.1C2.2,8.2,2.5,8.5,2.5,9c0,0.6-0.4,0.9-0.9,0.8C1.1,9.7,0.8,9.4,0.8,8.9C0.9,8.4,1.2,8.1,1.7,8.1z
					"/>
			</g>
			<g>
				<path class="st150" d="M2.4,50.9c0.5,0,0.8,0.3,0.9,0.8c0,0.5-0.3,0.9-0.9,0.9c-0.5,0-0.9-0.4-0.9-0.9
					C1.5,51.2,1.9,50.9,2.4,50.9z"/>
			</g>
			<g>
				<path class="st150" d="M3.5,42.1c0,0.5-0.3,0.8-0.8,0.9c-0.6,0.1-0.9-0.3-1-0.8c0-0.5,0.3-0.9,0.8-0.9
					C3.1,41.2,3.4,41.5,3.5,42.1z"/>
			</g>
			<g>
				<path class="st150" d="M2.7,5.2c0.5,0.1,0.9,0.4,0.9,1c0,0.5-0.4,0.8-0.9,0.8c-0.6,0-0.9-0.4-0.9-1C1.8,5.5,2.2,5.2,2.7,5.2z"/>
			</g>
			<g>
				<path class="st150" d="M1.9,70.5c0.5,0,0.8,0.3,0.8,0.8c0,0.5-0.3,0.9-0.8,0.9c-0.6,0.1-0.9-0.3-0.9-0.8
					C1,70.8,1.4,70.5,1.9,70.5z"/>
			</g>
			<g>
				<path class="st150" d="M2.2,96.5C2.7,96.6,3,96.9,3,97.4c0,0.6-0.4,0.9-1,0.8c-0.5-0.1-0.8-0.4-0.7-0.9
					C1.3,96.8,1.7,96.6,2.2,96.5z"/>
			</g>
			<g>
				<path class="st150" d="M2,104.4c0.1-0.5,0.4-0.9,0.9-0.9c0.6,0,0.9,0.4,0.9,0.9c0,0.5-0.3,0.8-0.8,0.9
					C2.4,105.4,2.1,105,2,104.4z"/>
			</g>
			<g>
				<path class="st150" d="M2.9,67.5c0.6,0.1,0.9,0.4,0.9,1c-0.1,0.5-0.4,0.9-1,0.8C2.3,69.3,2,68.9,2,68.4
					C2,67.8,2.4,67.6,2.9,67.5z"/>
			</g>
			<g>
				<path class="st150" d="M2.9,31.5c0.6,0.1,1,0.4,0.9,1c0,0.5-0.4,0.9-1,0.8C2.3,33.3,2,32.9,2,32.4C2,31.8,2.4,31.6,2.9,31.5z"/>
			</g>
			<g>
				<path class="st150" d="M2.2,58.5c0.1-0.5,0.4-0.9,0.9-0.9c0.5,0,0.9,0.3,0.9,0.9c0,0.5-0.3,0.9-0.9,0.9
					C2.6,59.4,2.3,59.1,2.2,58.5z"/>
			</g>
			<g>
				<path class="st150" d="M3.3,87.7c-0.1,0.5-0.4,0.9-0.9,0.9c-0.5,0-0.8-0.4-0.8-0.9c0-0.5,0.4-0.9,0.9-0.9
					C2.9,86.9,3.2,87.3,3.3,87.7z"/>
			</g>
			<g>
				<path class="st150" d="M2.2,24.5c0.4,0,0.8,0.3,0.8,0.8c0,0.5-0.3,0.9-0.8,0.9c-0.6,0.1-0.9-0.3-1-0.8
					C1.3,24.9,1.6,24.6,2.2,24.5z"/>
			</g>
			<g>
				<path class="st150" d="M3,61.4c-0.1,0.5-0.3,0.8-0.8,0.8c-0.6,0-0.9-0.4-0.9-0.9c0-0.5,0.4-0.8,0.9-0.8C2.7,60.6,3,60.9,3,61.4z
					"/>
			</g>
			<g>
				<path class="st150" d="M4.5,12.8c-0.1,0.5-0.4,0.9-0.9,0.9c-0.6,0-0.9-0.3-0.9-0.9c0-0.6,0.3-0.9,0.9-0.9
					C4.1,11.9,4.4,12.3,4.5,12.8z"/>
			</g>
			<g>
				<path class="st150" d="M1.9-1.6c0.5,0.1,0.8,0.3,0.9,0.8c0,0.6-0.4,0.9-0.9,0.9C1.3,0.1,1-0.2,1.1-0.7C1.1-1.2,1.4-1.5,1.9-1.6z
					"/>
			</g>
			<g>
				<path class="st150" d="M4.5,75.2c-0.1,0.5-0.4,0.9-0.9,0.9c-0.6,0-0.9-0.3-0.9-0.9c0-0.6,0.3-0.9,0.9-0.9
					C4.1,74.2,4.4,74.6,4.5,75.2z"/>
			</g>
			<g>
				<path class="st150" d="M1,107.3c0.1-0.5,0.3-0.8,0.8-0.9c0.6,0,0.9,0.4,0.9,0.9c0,0.5-0.4,0.8-0.9,0.8
					C1.4,108.2,1.1,107.8,1,107.3z"/>
			</g>
			<g>
				<path class="st150" d="M1.5,15.8c0-0.5,0.3-0.8,0.8-0.9c0.6-0.1,0.9,0.3,1,0.8c0,0.5-0.3,0.8-0.8,0.9
					C1.9,16.7,1.6,16.3,1.5,15.8z"/>
			</g>
			<g>
				<path class="st150" d="M1,35.3c0-0.5,0.3-0.8,0.8-0.9c0.5,0,0.9,0.2,0.9,0.8c0.1,0.6-0.3,0.9-0.8,1C1.4,36.2,1.1,35.9,1,35.3z"
					/>
			</g>
			<g>
				<path class="st150" d="M4.3,48.9c-0.1,0.5-0.4,0.9-1,0.9c-0.5,0-0.9-0.4-0.9-0.9c0-0.5,0.4-0.9,0.9-0.9
					C3.9,48,4.2,48.3,4.3,48.9z"/>
			</g>
			<g>
				<path class="st150" d="M3.3,83.9c0.5,0.1,0.9,0.4,0.9,0.9c0,0.5-0.3,0.9-0.9,0.9c-0.5,0-0.9-0.3-0.9-0.9
					C2.4,84.3,2.8,84,3.3,83.9z"/>
			</g>
			<g>
				<path class="st150" d="M3.1,21.6C3.6,21.6,4,21.9,4,22.5c0,0.5-0.3,0.9-0.9,0.9c-0.5,0-0.9-0.3-0.9-0.9
					C2.2,22,2.6,21.7,3.1,21.6z"/>
			</g>
			<g>
				<path class="st150" d="M-0.3,4.3c0.5,0,0.8,0.2,0.8,0.7c0,0.5-0.3,0.8-0.8,0.8C-0.8,5.9-1,5.6-1,5.1C-1,4.6-0.8,4.4-0.3,4.3z"/>
			</g>
			<g>
				<path class="st150" d="M-1,41.1c0-0.5,0.3-0.8,0.8-0.8c0.5,0,0.8,0.3,0.8,0.9c0,0.5-0.3,0.7-0.8,0.7C-0.8,41.9-1,41.6-1,41.1z"
					/>
			</g>
			<g>
				<path class="st150" d="M-0.3,76.3c0.5,0,0.8,0.2,0.8,0.7c0,0.5-0.2,0.8-0.8,0.8c-0.5,0-0.7-0.3-0.8-0.7
					C-1,76.7-0.8,76.4-0.3,76.3z"/>
			</g>
			<g>
				<path class="st150" d="M-0.4,14c0.5,0,0.7,0.3,0.7,0.8c0,0.6-0.4,0.8-0.9,0.7c-0.5,0-0.7-0.4-0.6-0.8C-1.2,14.2-0.9,14-0.4,14z"
					/>
			</g>
			<g>
				<path class="st150" d="M-1.3,50.7C-1.2,50.2-1,50-0.5,50c0.6,0,0.8,0.4,0.7,0.9c-0.1,0.5-0.4,0.7-0.8,0.6
					C-1.1,51.5-1.3,51.2-1.3,50.7z"/>
			</g>
			<g>
				<path class="st150" d="M0.3,86.8c0,0.5-0.3,0.8-0.7,0.8c-0.5,0-0.8-0.3-0.8-0.8c0-0.5,0.3-0.7,0.8-0.7C0,86,0.2,86.3,0.3,86.8z"
					/>
			</g>
			<g>
				<path class="st150" d="M-0.8,23.7c0.5,0,0.7,0.2,0.8,0.7c0,0.5-0.3,0.8-0.8,0.8c-0.5,0-0.7-0.3-0.7-0.8
					C-1.5,23.9-1.2,23.7-0.8,23.7z"/>
			</g>
			<g>
				<path class="st150" d="M-1.5,60.4c0-0.5,0.3-0.7,0.8-0.7c0.5,0,0.8,0.3,0.7,0.9c0,0.5-0.4,0.7-0.8,0.7
					C-1.3,61.2-1.5,60.9-1.5,60.4z"/>
			</g>
			<g>
				<path class="st150" d="M-1.5,96.5c0-0.5,0.2-0.7,0.7-0.8c0.5,0,0.8,0.3,0.8,0.8c0,0.5-0.3,0.7-0.8,0.7
					C-1.2,97.2-1.5,96.9-1.5,96.5z"/>
			</g>
			<g>
				<path class="st150" d="M0.2,94.3c-0.5,0-0.8-0.3-0.8-0.8c0-0.5,0.3-0.7,0.7-0.8C0.7,92.8,1,93,1,93.6C1,94,0.7,94.3,0.2,94.3z"
					/>
			</g>
			<g>
				<path class="st150" d="M0.3,56.8c0.5,0,0.7,0.3,0.7,0.8c0,0.5-0.3,0.8-0.8,0.8c-0.5,0-0.8-0.4-0.7-0.9
					C-0.5,57-0.2,56.8,0.3,56.8z"/>
			</g>
			<g>
				<path class="st150" d="M0.2,20.7C0.7,20.8,1,21,1,21.6c0,0.5-0.3,0.7-0.7,0.8c-0.5,0-0.8-0.3-0.8-0.8
					C-0.6,21.1-0.3,20.8,0.2,20.7z"/>
			</g>
			<g>
				<path class="st150" d="M0.5,83.1c0.5,0,0.8,0.3,0.8,0.8c0,0.5-0.3,0.7-0.8,0.7c-0.5,0-0.8-0.3-0.8-0.8
					C-0.3,83.4,0,83.1,0.5,83.1z"/>
			</g>
			<g>
				<path class="st150" d="M0.8,31.2c0,0.5-0.2,0.7-0.7,0.8c-0.5,0-0.8-0.2-0.8-0.8c0-0.5,0.3-0.8,0.8-0.8
					C0.5,30.4,0.7,30.7,0.8,31.2z"/>
			</g>
			<g>
				<path class="st150" d="M-0.1,47.9c0-0.5,0.3-0.8,0.9-0.8c0.5,0,0.7,0.3,0.7,0.8c0,0.5-0.3,0.8-0.9,0.8
					C0.2,48.6-0.1,48.3-0.1,47.9z"/>
			</g>
			<g>
				<path class="st150" d="M-0.8,67.2c0-0.5,0.3-0.8,0.8-0.8c0.5,0,0.7,0.3,0.7,0.8c0,0.5-0.3,0.8-0.8,0.8
					C-0.5,68-0.8,67.7-0.8,67.2z"/>
			</g>
			<g>
				<path class="st150" d="M0,102.4c0.5,0,0.7,0.2,0.8,0.7c0,0.5-0.2,0.8-0.8,0.8c-0.5,0-0.8-0.3-0.8-0.8
					C-0.8,102.7-0.5,102.5,0,102.4z"/>
			</g>
			<g>
				<path class="st150" d="M0.7,11.1c0.5,0,0.8,0.3,0.8,0.9c0,0.5-0.3,0.7-0.8,0.7c-0.5,0-0.8-0.3-0.8-0.9
					C-0.1,11.3,0.2,11.1,0.7,11.1z"/>
			</g>
			<g>
				<path class="st150" d="M0.1,74.2c0-0.5,0.3-0.8,0.8-0.8c0.5,0,0.8,0.3,0.8,0.8C1.7,74.7,1.4,75,1,75C0.5,75,0.2,74.7,0.1,74.2z"
					/>
			</g>
			<g>
				<path class="st150" d="M1.7,38.2C1.7,38.8,1.4,39,0.9,39c-0.5,0-0.8-0.4-0.7-0.9c0-0.5,0.3-0.7,0.8-0.7
					C1.5,37.4,1.7,37.7,1.7,38.2z"/>
			</g>
			<g>
				<path class="st150" d="M0.1,2.2c0-0.5,0.3-0.8,0.8-0.8c0.5,0,0.8,0.3,0.8,0.8C1.7,2.7,1.5,3,1,3C0.5,3,0.2,2.8,0.1,2.2z"/>
			</g>
			<g>
				<path class="st150" d="M1.2,101.1c-0.6-0.1-0.9-0.4-0.8-0.9c0-0.5,0.4-0.8,0.9-0.7c0.5,0,0.7,0.4,0.7,0.8
					C2,100.9,1.6,101.1,1.2,101.1z"/>
			</g>
			<g>
				<path class="st150" d="M1.2,63.5C1.8,63.6,2,63.9,2,64.4c0,0.5-0.4,0.8-0.9,0.7c-0.5,0-0.7-0.4-0.7-0.8
					C0.4,63.8,0.7,63.5,1.2,63.5z"/>
			</g>
			<g>
				<path class="st150" d="M1.1,27.5c0.6,0,0.9,0.3,0.8,0.8c0,0.5-0.3,0.8-0.9,0.8c-0.5,0-0.7-0.3-0.7-0.8
					C0.4,27.8,0.7,27.5,1.1,27.5z"/>
			</g>
			<g>
				<path class="st150" d="M2.2,90.6c0,0.5-0.3,0.8-0.8,0.8c-0.5,0-0.8-0.3-0.8-0.8c0-0.5,0.3-0.8,0.7-0.8
					C1.9,89.8,2.2,90.1,2.2,90.6z"/>
			</g>
			<g>
				<path class="st150" d="M1.4,53.8c0.5,0.1,0.8,0.3,0.8,0.9c0,0.5-0.4,0.8-0.9,0.8c-0.5,0-0.7-0.3-0.7-0.8
					C0.6,54.1,0.9,53.9,1.4,53.8z"/>
			</g>
			<g>
				<path class="st150" d="M0.6,18.7c0-0.5,0.3-0.8,0.8-0.8c0.5,0,0.8,0.3,0.8,0.7c0,0.5-0.2,0.9-0.8,0.9C1,19.5,0.7,19.2,0.6,18.7z
					"/>
			</g>
			<g>
				<path class="st150" d="M22.9,57.5c0.2,0,0.4,0,0.5,0.2c0.6,0.4,1,0.9,1,1.7c-0.1,0.2-0.2,0.4-0.2,0.6c-0.5,0.7-1,1.2-1.9,0.7
					c-0.8-0.5-1.2-1.2-0.8-2.2C21.5,57.6,22.3,57.7,22.9,57.5z"/>
			</g>
			<g>
				<path class="st150" d="M22.7,67.2c0.2,0.1,0.3,0.1,0.5,0.2c0.6,0.4,1,0.9,1,1.7c-0.1,0.3-0.5,0.4-0.2,0.8
					c-0.6,0.5-1.1,1-1.9,0.5c-0.8-0.5-1.2-1.2-0.8-2.2C21.5,67.5,22.3,67.7,22.7,67.2z"/>
			</g>
			<g>
				<path class="st150" d="M22.9,93.5c0.2,0,0.4,0,0.5,0.2c0.6,0.4,1,0.9,1,1.7c-0.1,0.2-0.2,0.4-0.2,0.6c-0.8,1.1-1.2,1.2-2.2,0.5
					c-0.6-0.4-0.8-1.1-0.7-1.8C21.4,93.8,22.2,93.6,22.9,93.5z"/>
			</g>
			<g>
				<path class="st150" d="M22.7,103.2c0.2,0.1,0.3,0.1,0.5,0.2c0.6,0.4,1,0.9,1,1.7c-0.1,0.3-0.5,0.4-0.2,0.8
					c-0.6,0.5-1.1,1-1.9,0.4c-0.8-0.5-1.2-1.2-0.8-2.2C21.5,103.5,22.3,103.7,22.7,103.2z"/>
			</g>
			<g>
				<path class="st150" d="M22.5,50.8c-0.8-0.5-1.3-1.2-0.8-2.2c0.1-0.9,0.9-0.8,1.5-1c0.2,0,0.4,0,0.5,0.2c0.6,0.5,1.3,1,0.7,2l0,0
					C23.9,51,23.7,51.1,22.5,50.8L22.5,50.8z"/>
			</g>
			<g>
				<path class="st150" d="M22.4,86.8c-0.8-0.6-1.2-1.2-0.8-2.2c0.1-0.9,0.9-0.8,1.5-1c0.2,0,0.4,0,0.5,0.2c0.6,0.5,1.3,1,0.7,2l0,0
					C23.9,87,23.6,87.1,22.4,86.8z"/>
			</g>
			<g>
				<path class="st150" d="M22,106.6c0.6,0.5,0.8,1.2,0.5,2c-1.4,1.1-2.2,0.8-2.7-0.9C20.2,106.6,20.9,106.2,22,106.6z"/>
			</g>
			<g>
				<path class="st150" d="M22.7,72.8c-0.6-0.1-1,0.6-1.7,0.5c-0.8-0.4-1.3-1-1.2-1.9c0.5-0.8,1.2-1.2,2.1-0.8
					c0.6,0.3,0.5,1.1,1,1.5C22.9,72.3,22.8,72.5,22.7,72.8z"/>
			</g>
			<g>
				<path class="st150" d="M22,74.7c0.5-0.2,0.9-0.5,1.4-0.7c0.2,0,0.4,0,0.5,0.2c0.4,0.6,0.9,1.1,0.7,2c-0.4,0.7-1.1,1-2,1
					C21.8,76.5,21.4,75.7,22,74.7z"/>
			</g>
		</g>
	</g>
	<g>
		<defs>
			<path id="SVGID_23_" d="M69.4,0H168c6.6,0,12,5.4,12,12v96.9c0,6.6-5.4,12-12,12H69.4c-6.6,0-12-5.4-12-12V12
				C57.4,5.4,62.8,0,69.4,0z"/>
		</defs>
		<clipPath id="SVGID_4_">
			<use xlink:href="#SVGID_23_"  style="overflow:visible;"/>
		</clipPath>
		<g class="st149">
			<g>
				<path class="st148" d="M140.6,36c0.1,0.5,0.2,0.9,0.3,1.4c-0.2,1.4-0.9,1.8-2.2,1.3l0,0c-1.4-0.6-1.6-1-1.1-2.4
					c0.1-0.1,0.2-0.2,0.3-0.3C138.8,36,139.7,36,140.6,36z"/>
			</g>
			<g>
				<path class="st148" d="M150.6,36c0.2,0.2,0.4,0.4,0.5,0.6c0.5,0.7,0.3,1.3-0.3,1.8c-0.5,0.4-1.1,0.4-1.6,0
					c-0.6-0.5-0.7-1.1-0.3-1.8c0.2-0.2,0.3-0.4,0.5-0.6C149.9,36,150.3,36,150.6,36z"/>
			</g>
			<g>
				<path class="st148" d="M147.1,37.6c-1.1,0-1.7-0.5-1.6-1.7c0.9,0,1.8,0,2.7,0C148.3,36.8,147.9,37.4,147.1,37.6z"/>
			</g>
			<g>
				<path class="st148" d="M158.8,36c0,0.8,0,1.6-1.1,1.6c-1,0-1.1-0.8-1.1-1.6C157.3,36,158.1,36,158.8,36z"/>
			</g>
			<g>
				<path class="st148" d="M169.4,36c0.2,0.5,0.6,1.1-0.1,1.5c-0.3,0.2-0.6,0.2-0.9,0c-0.7-0.5-0.3-1-0.1-1.5
					C168.7,36,169,36,169.4,36z"/>
			</g>
			<g>
				<path class="st148" d="M140.9,67.5c0.1-0.3,0.2-0.5,0.3-0.8c0.5-0.6,1.2-0.9,2-0.8c1.6,0.7,1.9,1.5,1.1,2.7
					c-0.5,0.6-1.2,0.8-1.9,0.8C141,69.3,141,68.3,140.9,67.5z"/>
			</g>
			<g>
				<path class="st148" d="M140.9,107.9c0.1-0.3,0.2-0.5,0.3-0.8c0.5-0.6,1.2-0.9,2-0.8c1.6,0.7,1.9,1.5,1.1,2.7
					c-0.5,0.6-1.2,0.8-1.9,0.8C141,109.8,141,108.8,140.9,107.9z"/>
			</g>
			<g>
				<path class="st148" d="M140.3,89.2c0.1-0.3,0.2-0.6,0.3-0.8c0.6-0.5,1.2-1,2-0.7c0.1,0,0.1,0.1,0.2,0.1c0.7,0.6,1.2,1.2,1.1,2.2
					c0,0.1,0,0.1,0,0.2c-0.8,1.2-1.1,1.3-2.6,0.9C140.6,90.7,140.4,90,140.3,89.2z"/>
			</g>
			<g>
				<path class="st148" d="M144.1,84.8c0.6,0.6,1,1.1,0.6,2c-0.4,0.9-1.2,1-2,1c0,0,0,0,0,0c-1-0.2-1.3-1-1.5-1.9
					c0-0.3,0-0.5,0.3-0.7C142.3,84.8,143,83.6,144.1,84.8z"/>
			</g>
			<g>
				<path class="st148" d="M144.1,44.4c0.5,0.5,0.8,1.1,0.8,1.8c-0.1,1.2-0.8,1.5-1.9,1.5c-0.1,0-0.3-0.1-0.4-0.1
					c-0.9-0.4-1.2-1.2-1.4-2c0-0.3,0-0.5,0.3-0.7C142.3,44.3,143,43.2,144.1,44.4z"/>
			</g>
			<g>
				<path class="st148" d="M144.4,98.2c-0.5,0.6-1.1,0.9-1.9,0.7c-1.4-0.2-1.4-1.1-1.3-2.2c0-0.1,0.1-0.3,0.2-0.4
					c0.6-0.6,1.2-1,2.1-0.9C145,96.3,145.3,97,144.4,98.2z"/>
			</g>
			<g>
				<path class="st148" d="M144.4,57.7c-0.5,0.6-1.2,0.8-1.9,0.8c0,0,0,0,0,0c-1.1-0.3-1.5-1.1-1.4-2.2c0-0.1,0.1-0.3,0.2-0.4
					c0.5-0.6,1.2-1,2.1-0.9C145,55.8,145.3,56.6,144.4,57.7z"/>
			</g>
			<g>
				<path class="st148" d="M142.5,99.2c0.6,0.4,0.8,1,0.8,1.7c-0.2,1.2-0.5,1.5-2,1.6c-0.1,0-0.3-0.1-0.4-0.1
					c-0.9-0.6-1.5-1.2-0.9-2.3l0,0C140.7,98.6,141.2,98.4,142.5,99.2z"/>
			</g>
			<g>
				<path class="st148" d="M142.2,69.6c0.6,0.4,0.8,1,0.8,1.7c-0.2,1.3-0.7,1.7-2.2,1.5c-1.3-0.8-1.5-1.1-1.1-2.4l0,0
					C140.4,69,140.9,68.8,142.2,69.6z"/>
			</g>
			<g>
				<path class="st148" d="M144.4,114.4c0.5,0.4,0.8,1,0.8,1.6c-0.5,1.5-1.1,1.8-2.5,1.3c-0.5-0.4-0.9-0.9-1-1.6
					C142.4,114.1,143.2,113.7,144.4,114.4z"/>
			</g>
			<g>
				<path class="st148" d="M144.4,74c0.5,0.4,0.8,1,0.8,1.6c-0.5,1.5-1.1,1.8-2.5,1.3c-0.5-0.4-0.9-0.9-1-1.6
					C142.4,73.6,143.2,73.2,144.4,74z"/>
			</g>
			<g>
				<path class="st148" d="M143.6,100.9c0.6-0.6,1.3-1,2.1-0.5c0.5,0.3,0.8,0.8,0.7,1.5c-0.2,1-0.9,1.3-1.7,1.4
					C143.2,102.9,142.9,102.2,143.6,100.9z"/>
			</g>
			<g>
				<path class="st148" d="M144.9,92.7c0.5,0.4,0.7,1,0.8,1.6c-0.4,1.5-1,1.8-2.4,1.2c-0.7-0.4-1-0.9-1-1.7
					C143.2,92.2,143.8,92,144.9,92.7z"/>
			</g>
			<g>
				<path class="st148" d="M144.9,52.2c0.5,0.4,0.7,1,0.8,1.6c-0.4,1.5-1,1.8-2.4,1.2c-0.9-0.6-1.3-1.3-0.7-2.3
					C143.3,52,143.9,51.3,144.9,52.2z"/>
			</g>
			<g>
				<path class="st148" d="M145.2,81.6c1.2,1.5,0.9,2.5-1.1,3c-1-0.2-1.6-0.8-1.5-1.9C143.5,81.1,144.1,80.9,145.2,81.6z"/>
			</g>
			<g>
				<path class="st148" d="M145.2,41.1c1.2,1.5,0.9,2.5-1.1,3c-1-0.2-1.6-0.8-1.5-1.9C143.5,40.6,144.1,40.4,145.2,41.1z"/>
			</g>
			<g>
				<path class="st148" d="M143.3,111.7c0.6-0.6,1.3-1,2.1-0.5c0.5,0.3,0.8,0.8,0.7,1.5c-0.2,1-0.9,1.3-1.7,1.4
					C142.9,113.7,142.6,113.1,143.3,111.7z"/>
			</g>
			<g>
				<path class="st148" d="M143.3,71.3c0.6-0.6,1.3-1,2.1-0.5c0.5,0.3,0.8,0.9,0.7,1.5c-0.2,1-0.9,1.3-1.7,1.4
					C142.9,73.2,142.6,72.6,143.3,71.3z"/>
			</g>
			<g>
				<path class="st148" d="M144.7,103.6c0.5,0.4,0.7,1,0.8,1.6c-0.5,1.5-1,1.8-2.4,1.2c-0.7-0.4-1-0.9-1-1.7
					C142.9,103.1,143.4,102.9,144.7,103.6z"/>
			</g>
			<g>
				<path class="st148" d="M144.7,63.1c0.5,0.4,0.7,1,0.8,1.6c-0.5,1.5-1,1.8-2.4,1.2c-0.7-0.4-1-0.9-1-1.7
					C142.9,62.6,143.5,62.4,144.7,63.1z"/>
			</g>
			<g>
				<path class="st148" d="M143.6,61.5c0.1-0.4,0.2-0.8,0.3-1.2c0.5-0.7,1.2-0.8,1.9-0.4c0.6,0.3,0.8,0.8,0.7,1.5
					c-0.1,1-0.9,1.3-1.7,1.4C144,62.7,143.3,62.5,143.6,61.5z"/>
			</g>
			<g>
				<path class="st148" d="M143.8,90c0.8-0.7,1.7-1.1,2.5-0.1c0.7,0.9,0.3,1.7-0.6,2.3C143.8,92.5,143.3,91.9,143.8,90L143.8,90z"/>
			</g>
			<g>
				<path class="st148" d="M146,48.9c1.2,1.1,1.2,1.8,0,2.8c-0.9,0.1-1.8,0.2-2.2-0.9C143.8,49,144.4,48.5,146,48.9z"/>
			</g>
			<g>
				<path class="st148" d="M148,87.6c-0.1,0.9-0.6,1.4-1.5,1.4c-0.9,0-1.4-0.6-1.3-1.5c0.1-0.9,0.6-1.3,1.4-1.3
					C147.5,86.2,148,86.7,148,87.6z"/>
			</g>
			<g>
				<path class="st148" d="M148.5,93.3c-0.9-0.1-1.4-0.5-1.4-1.4c0-0.9,0.5-1.4,1.3-1.4c0.9,0,1.4,0.5,1.4,1.4
					C149.8,92.8,149.3,93.2,148.5,93.3z"/>
			</g>
			<g>
				<path class="st148" d="M146.6,67.4c1,0.9,1.2,1.9,0.4,2.5c-1,0.7-1.8,0.4-2.4-0.5C144.4,67.5,145,66.9,146.6,67.4z"/>
			</g>
			<g>
				<path class="st148" d="M145.2,46.6c0.9-1,1.9-1.2,2.5-0.4c0.7,0.9,0.4,1.7-0.5,2.4C145.2,48.7,144.7,48.2,145.2,46.6z"/>
			</g>
			<g>
				<path class="st148" d="M147.5,45.2c-0.9-0.1-1.3-0.7-1.2-1.6c0.1-0.9,0.7-1.3,1.5-1.2c0.9,0.1,1.4,0.7,1.3,1.6
					C149,44.9,148.4,45.2,147.5,45.2z"/>
			</g>
			<g>
				<path class="st148" d="M147.8,85.7c-1,0-1.6-0.5-1.6-1.4c0-0.9,0.5-1.4,1.3-1.4c0.9,0,1.4,0.5,1.5,1.4
					C149.1,85.2,148.5,85.6,147.8,85.7z"/>
			</g>
			<g>
				<path class="st148" d="M145.4,116.4c0.6-0.9,1.4-1.2,2.4-0.5c0.8,0.6,0.6,1.6-0.4,2.5C145.4,118.5,144.9,118,145.4,116.4z"/>
			</g>
			<g>
				<path class="st148" d="M145.4,76.2c0.9-1,1.9-1.2,2.5-0.4c0.7,0.9,0.4,1.7-0.5,2.4c-0.6,0.2-1.3,0.4-1.8-0.3
					C145.1,77.3,145,76.8,145.4,76.2z"/>
			</g>
			<g>
				<path class="st148" d="M146,54.2c0.9-1,1.8-1.2,2.4-0.4c0.7,0.9,0.4,1.7-0.5,2.3C146,56.3,145.5,55.8,146,54.2z"/>
			</g>
			<g>
				<path class="st148" d="M146,94.6c0.9-1,1.8-1.2,2.4-0.4c0.7,0.9,0.4,1.7-0.5,2.3C146,96.8,145.5,96.3,146,94.6z"/>
			</g>
			<g>
				<path class="st148" d="M146.5,73.5c0-0.9,0.5-1.4,1.4-1.4c0.9,0,1.4,0.5,1.4,1.3c0,0.9-0.5,1.4-1.4,1.4
					C147.1,74.8,146.6,74.3,146.5,73.5z"/>
			</g>
			<g>
				<path class="st148" d="M146.6,107.9c1,0.9,1.2,1.9,0.4,2.5c-1,0.7-1.8,0.4-2.4-0.5C144.4,107.9,145,107.4,146.6,107.9z"/>
			</g>
			<g>
				<path class="st148" d="M145.7,105.5c0.9-1,1.8-1.2,2.4-0.4c0.7,0.9,0.4,1.7-0.5,2.4C145.7,107.7,145.2,107.1,145.7,105.5z"/>
			</g>
			<g>
				<path class="st148" d="M146.5,114c0.1-0.9,0.5-1.5,1.4-1.4c0.9,0,1.4,0.5,1.4,1.3c0,0.9-0.5,1.4-1.4,1.4
					C147,115.3,146.6,114.8,146.5,114z"/>
			</g>
			<g>
				<path class="st148" d="M144.3,38.7c0.6-1,1.5-1.1,2.5-0.5c0.6,1,0.5,1.9-0.5,2.5C144.3,40.8,143.8,40.3,144.3,38.7z"/>
			</g>
			<g>
				<path class="st148" d="M146.8,97c1,0.9,1.2,1.9,0.4,2.5c-1,0.7-1.8,0.4-2.4-0.5C144.7,97.1,145.2,96.5,146.8,97z"/>
			</g>
			<g>
				<path class="st148" d="M146.8,102.8c0.1-0.9,0.5-1.4,1.5-1.4c0.8,0,1.3,0.5,1.3,1.4c0,0.9-0.5,1.4-1.4,1.4
					C147.3,104.1,146.9,103.6,146.8,102.8z"/>
			</g>
			<g>
				<path class="st148" d="M146.8,78.6c0.6,1,0.5,1.9-0.5,2.5c-1.9,0.2-2.2-0.1-2.2-1.9C144.9,77.9,145.5,77.7,146.8,78.6z"/>
			</g>
			<g>
				<path class="st148" d="M146.8,56.6c1,0.9,1.2,1.9,0.4,2.5c-1,0.7-1.8,0.4-2.4-0.5C144.7,56.6,145.2,56.1,146.8,56.6z"/>
			</g>
			<g>
				<path class="st148" d="M148.4,60.9c0.9,0.1,1.3,0.7,1.2,1.6c-0.1,0.8-0.6,1.3-1.5,1.2c-0.9-0.1-1.4-0.7-1.3-1.6
					C146.9,61.3,147.5,60.9,148.4,60.9z"/>
			</g>
			<g>
				<path class="st148" d="M145.7,65c0.9-1,1.8-1.2,2.4-0.4c0.7,0.9,0.4,1.7-0.5,2.4C145.7,67.2,145.2,66.7,145.7,65z"/>
			</g>
			<g>
				<path class="st148" d="M146.3,118.7c1.2,1.1,1.2,1.8,0,2.8c-1.9,0.2-2.2-0.1-2.2-2C144.6,118.6,145.2,118.2,146.3,118.7z"/>
			</g>
			<g>
				<path class="st148" d="M147.6,81.1c0.1-0.8,0.5-1.4,1.3-1.4c0.9,0,1.4,0.5,1.4,1.4c0,0.8-0.5,1.3-1.4,1.3
					C148.1,82.4,147.7,81.9,147.6,81.1z"/>
			</g>
			<g>
				<path class="st148" d="M150.4,40.5c0,0.9-0.4,1.4-1.3,1.4c-0.9,0-1.4-0.4-1.5-1.4c0-0.8,0.5-1.3,1.3-1.4
					C149.8,39.2,150.3,39.7,150.4,40.5z"/>
			</g>
			<g>
				<path class="st148" d="M149.2,112c-0.8-0.1-1.3-0.6-1.3-1.4c0-0.9,0.6-1.3,1.4-1.3c0.9,0,1.3,0.6,1.3,1.4
					C150.6,111.6,150.1,112,149.2,112z"/>
			</g>
			<g>
				<path class="st148" d="M149.3,71.6c-0.8-0.1-1.4-0.5-1.4-1.4c0-0.9,0.5-1.4,1.3-1.4c0.9,0,1.4,0.5,1.4,1.3
					C150.7,71,150.1,71.5,149.3,71.6z"/>
			</g>
			<g>
				<path class="st148" d="M149.6,100.9c-0.8-0.1-1.4-0.5-1.3-1.4c0-0.8,0.5-1.3,1.4-1.3c0.8,0,1.3,0.5,1.4,1.4
					C150.9,100.4,150.4,100.8,149.6,100.9z"/>
			</g>
			<g>
				<path class="st148" d="M150.9,58.9c-0.1,0.9-0.5,1.5-1.3,1.5c-0.8,0-1.4-0.5-1.4-1.3c0-0.8,0.5-1.4,1.3-1.4
					C150.4,57.7,150.8,58.2,150.9,58.9z"/>
			</g>
			<g>
				<path class="st148" d="M149.9,90c-0.8-0.1-1.4-0.5-1.4-1.3c0-0.8,0.5-1.4,1.3-1.4c0.8,0,1.4,0.5,1.4,1.3
					C151.2,89.5,150.7,89.9,149.9,90z"/>
			</g>
			<g>
				<path class="st148" d="M149.9,49.6c-0.9-0.1-1.5-0.5-1.5-1.4c0-0.8,0.5-1.4,1.3-1.4c0.8,0,1.3,0.5,1.4,1.3
					C151.2,49,150.6,49.4,149.9,49.6z"/>
			</g>
			<g>
				<path class="st148" d="M150.2,119.6c-0.8-0.1-1.4-0.5-1.4-1.4c0-0.8,0.5-1.4,1.4-1.4c0.8,0,1.3,0.5,1.3,1.3
					C151.5,119,151,119.5,150.2,119.6z"/>
			</g>
			<g>
				<path class="st148" d="M148.7,77.8c0.1-0.8,0.5-1.4,1.4-1.3c0.8,0,1.3,0.5,1.3,1.4c0,0.8-0.5,1.3-1.3,1.3
					C149.3,79.2,148.8,78.6,148.7,77.8z"/>
			</g>
			<g>
				<path class="st148" d="M149,107.4c0.1-0.8,0.6-1.4,1.4-1.3c0.8,0,1.3,0.6,1.3,1.4c0,0.8-0.5,1.3-1.3,1.3
					C149.5,108.7,149.1,108.2,149,107.4z"/>
			</g>
			<g>
				<path class="st148" d="M150.4,68.3c-0.8-0.1-1.4-0.5-1.4-1.3c0-0.8,0.5-1.4,1.3-1.4c0.8,0,1.3,0.5,1.3,1.3
					C151.8,67.7,151.2,68.1,150.4,68.3z"/>
			</g>
			<g>
				<path class="st148" d="M150.7,97.6c-0.8-0.1-1.4-0.5-1.4-1.4c0-0.8,0.5-1.3,1.4-1.3c0.8,0,1.3,0.5,1.3,1.3
					C152,97.1,151.5,97.5,150.7,97.6z"/>
			</g>
			<g>
				<path class="st148" d="M149.3,55.9c0.1-0.9,0.6-1.4,1.4-1.4c0.8,0,1.3,0.6,1.3,1.4c0,0.8-0.5,1.2-1.3,1.3
					C149.8,57.2,149.4,56.6,149.3,55.9z"/>
			</g>
			<g>
				<path class="st148" d="M148.7,122.9c-0.9-0.1-1.4-0.6-1.4-1.4c0-0.9,0.5-1.3,1.4-1.3c0.9,0,1.4,0.5,1.4,1.5
					C150.1,122.5,149.5,122.8,148.7,122.9z"/>
			</g>
			<g>
				<path class="st148" d="M148.7,52.8c-0.8-0.1-1.3-0.5-1.3-1.4c0-0.9,0.5-1.3,1.3-1.4c0.9,0,1.4,0.5,1.4,1.4
					C150.1,52.4,149.5,52.8,148.7,52.8z"/>
			</g>
			<g>
				<path class="st148" d="M151.2,75.9c-0.8-0.1-1.4-0.6-1.3-1.4c0-0.8,0.5-1.3,1.3-1.3c0.8,0,1.4,0.5,1.3,1.4
					C152.5,75.4,152,75.8,151.2,75.9z"/>
			</g>
			<g>
				<path class="st148" d="M151.2,116.4c-0.8-0.1-1.4-0.6-1.3-1.4c0-0.8,0.5-1.3,1.3-1.3c0.8,0,1.4,0.5,1.3,1.4
					C152.5,115.8,152,116.2,151.2,116.4z"/>
			</g>
			<g>
				<path class="st148" d="M151,46.3c-0.9-0.1-1.4-0.6-1.4-1.4c0-0.8,0.5-1.3,1.3-1.3c0.8,0,1.4,0.5,1.3,1.4
					C152.2,45.8,151.7,46.2,151,46.3z"/>
			</g>
			<g>
				<path class="st148" d="M150.8,86.8c-0.8-0.2-1.3-0.6-1.2-1.5c0.1-0.8,0.6-1.3,1.4-1.2c0.8,0.1,1.3,0.6,1.3,1.4
					C152.2,86.3,151.6,86.7,150.8,86.8z"/>
			</g>
			<g>
				<path class="st148" d="M151.7,53.9c-0.8-0.2-1.3-0.6-1.2-1.4c0-0.8,0.6-1.4,1.4-1.3c0.8,0.1,1.2,0.6,1.2,1.4
					C153,53.4,152.4,53.8,151.7,53.9z"/>
			</g>
			<g>
				<path class="st148" d="M153.1,93c-0.1,0.8-0.5,1.3-1.3,1.3c-0.8,0-1.4-0.5-1.4-1.3c0-0.8,0.5-1.3,1.3-1.3
					C152.5,91.7,152.9,92.2,153.1,93z"/>
			</g>
			<g>
				<path class="st148" d="M152.8,63.7c-0.1,0.8-0.5,1.3-1.3,1.3c-0.8,0-1.4-0.5-1.4-1.3c0-0.8,0.6-1.3,1.4-1.3
					C152.3,62.4,152.7,62.9,152.8,63.7z"/>
			</g>
			<g>
				<path class="st148" d="M152.6,72.6c-0.8-0.1-1.3-0.5-1.3-1.3c0-0.8,0.5-1.3,1.3-1.3c0.8,0,1.3,0.5,1.3,1.3
					C153.9,72,153.3,72.5,152.6,72.6z"/>
			</g>
			<g>
				<path class="st148" d="M151.5,105.5c-0.8-0.1-1.4-0.5-1.3-1.4c0-0.8,0.5-1.3,1.3-1.3c0.8,0,1.4,0.5,1.4,1.3
					C152.8,104.9,152.2,105.4,151.5,105.5z"/>
			</g>
			<g>
				<path class="st148" d="M154.1,60.4c-0.1,0.8-0.6,1.3-1.4,1.3c-0.8,0-1.3-0.5-1.3-1.3c0-0.8,0.5-1.3,1.3-1.3
					C153.6,59.1,154,59.7,154.1,60.4z"/>
			</g>
			<g>
				<path class="st148" d="M152.8,102.2c-0.8-0.1-1.3-0.5-1.3-1.3c0-0.8,0.5-1.3,1.3-1.3c0.8,0,1.3,0.5,1.3,1.3
					C154.1,101.6,153.6,102.1,152.8,102.2z"/>
			</g>
			<g>
				<path class="st148" d="M153.9,111.7c-0.1,0.8-0.5,1.3-1.3,1.3c-0.8,0-1.3-0.5-1.3-1.3c0-0.8,0.5-1.3,1.3-1.3
					C153.3,110.4,153.7,111,153.9,111.7z"/>
			</g>
			<g>
				<path class="st148" d="M150.9,41.7c0.1-0.8,0.5-1.3,1.2-1.4c0.8-0.1,1.4,0.5,1.4,1.3c0,0.8-0.5,1.3-1.3,1.3
					C151.5,43,151.1,42.5,150.9,41.7z"/>
			</g>
			<g>
				<path class="st148" d="M150.9,82.2c0.1-0.8,0.5-1.3,1.2-1.4c0.8-0.1,1.4,0.5,1.4,1.3c0,0.8-0.5,1.3-1.3,1.3
					C151.5,83.5,151.1,82.9,150.9,82.2z"/>
			</g>
			<g>
				<path class="st148" d="M152.9,46.3c0.1-0.8,0.5-1.3,1.3-1.2c0.7,0,1.2,0.5,1.2,1.2c0,0.8-0.5,1.3-1.3,1.2
					C153.4,47.5,153,47,152.9,46.3z"/>
			</g>
			<g>
				<path class="st148" d="M155.2,97.6c-0.1,0.8-0.5,1.3-1.3,1.3c-0.8,0-1.3-0.6-1.2-1.3c0-0.7,0.5-1.2,1.2-1.2
					C154.7,96.4,155.1,96.9,155.2,97.6z"/>
			</g>
			<g>
				<path class="st148" d="M153.9,58.4c-0.8-0.1-1.3-0.6-1.2-1.4c0.1-0.8,0.6-1.2,1.4-1.2c0.7,0.1,1.2,0.6,1.1,1.3
					C155.1,58,154.6,58.4,153.9,58.4z"/>
			</g>
			<g>
				<path class="st148" d="M154.2,88c-0.8-0.1-1.3-0.6-1.2-1.4c0.1-0.7,0.5-1.2,1.3-1.1c0.8,0,1.2,0.5,1.2,1.3
					C155.3,87.6,154.9,87.9,154.2,88z"/>
			</g>
			<g>
				<path class="st148" d="M153.6,69.3c-0.8-0.1-1.3-0.6-1.2-1.4c0-0.8,0.6-1.3,1.4-1.2c0.7,0.1,1.2,0.5,1.2,1.3
					C154.9,68.8,154.4,69.2,153.6,69.3z"/>
			</g>
			<g>
				<path class="st148" d="M154.4,117.3c-0.8-0.1-1.2-0.5-1.2-1.3c0-0.8,0.5-1.3,1.3-1.2c0.7,0.1,1.1,0.6,1.1,1.3
					C155.6,116.9,155.1,117.3,154.4,117.3z"/>
			</g>
			<g>
				<path class="st148" d="M154.4,76.9c-0.7-0.1-1.2-0.5-1.2-1.2c0-0.8,0.5-1.3,1.3-1.2c0.7,0,1.2,0.5,1.1,1.3
					C155.6,76.4,155.2,76.8,154.4,76.9z"/>
			</g>
			<g>
				<path class="st148" d="M154.7,106.4c-0.7-0.1-1.2-0.4-1.2-1.2c0-0.8,0.5-1.3,1.3-1.3c0.7,0,1.2,0.5,1.2,1.2
					C155.9,106,155.5,106.4,154.7,106.4z"/>
			</g>
			<g>
				<path class="st148" d="M155.9,64.8c-0.1,0.7-0.5,1.2-1.2,1.2c-0.8,0-1.3-0.5-1.2-1.3c0-0.7,0.5-1.2,1.3-1.1
					C155.5,63.6,155.9,64,155.9,64.8z"/>
			</g>
			<g>
				<path class="st148" d="M152.3,108.5c0.1-0.8,0.6-1.3,1.4-1.2c0.8,0.1,1.2,0.6,1.2,1.4c-0.1,0.7-0.6,1.2-1.3,1.1
					C152.8,109.7,152.4,109.2,152.3,108.5z"/>
			</g>
			<g>
				<path class="st148" d="M153.1,91.1c-0.8-0.1-1.3-0.5-1.3-1.3c0-0.8,0.5-1.3,1.2-1.3c0.8,0,1.3,0.5,1.3,1.2
					C154.4,90.5,153.9,90.9,153.1,91.1z"/>
			</g>
			<g>
				<path class="st148" d="M153.1,50.6c-0.8-0.1-1.3-0.6-1.3-1.3c0-0.8,0.5-1.3,1.3-1.2c0.8,0,1.3,0.5,1.2,1.3
					C154.3,50.1,153.8,50.5,153.1,50.6z"/>
			</g>
			<g>
				<path class="st148" d="M153.4,120.6c-0.8-0.1-1.3-0.5-1.3-1.3c0-0.8,0.5-1.3,1.3-1.3c0.7,0,1.2,0.5,1.2,1.2
					C154.7,120.1,154.2,120.5,153.4,120.6z"/>
			</g>
			<g>
				<path class="st148" d="M152.1,78.8c0.1-0.8,0.6-1.3,1.4-1.2c0.8,0.1,1.2,0.6,1.2,1.4c-0.1,0.7-0.6,1.2-1.3,1.1
					C152.5,80.1,152.1,79.6,152.1,78.8z"/>
			</g>
			<g>
				<path class="st148" d="M153.4,39.7c-0.8-0.1-1.3-0.5-1.2-1.3c0-0.7,0.5-1.2,1.2-1.2c0.8,0,1.3,0.5,1.2,1.3
					C154.6,39.2,154.1,39.6,153.4,39.7z"/>
			</g>
			<g>
				<path class="st148" d="M154.9,61.5c0.1-0.8,0.5-1.2,1.2-1.2c0.8,0,1.1,0.5,1.1,1.2c0,0.7-0.5,1.1-1.1,1.1
					C155.3,62.7,155,62.2,154.9,61.5z"/>
			</g>
			<g>
				<path class="st148" d="M155.9,73.5c-0.7,0-1.2-0.4-1.2-1.2c0-0.8,0.4-1.2,1.2-1.2c0.7,0,1.1,0.4,1.2,1.1
					C157,73,156.6,73.4,155.9,73.5z"/>
			</g>
			<g>
				<path class="st148" d="M155.5,44.2c-0.8-0.1-1.2-0.5-1.2-1.2c0-0.7,0.5-1.1,1.2-1.1c0.7,0,1.1,0.5,1.1,1.2
					C156.7,43.8,156.2,44.2,155.5,44.2z"/>
			</g>
			<g>
				<path class="st148" d="M155.6,114c-0.7,0-1.2-0.4-1.2-1.1c0-0.7,0.4-1.2,1.1-1.2c0.7,0,1.2,0.4,1.2,1.1
					C156.7,113.5,156.3,113.9,155.6,114z"/>
			</g>
			<g>
				<path class="st148" d="M156.5,83.5c0,0.7-0.4,1.2-1.1,1.2c-0.7,0-1.2-0.4-1.2-1.1c0-0.7,0.4-1.2,1.1-1.2
					C156,82.3,156.4,82.7,156.5,83.5z"/>
			</g>
			<g>
				<path class="st148" d="M153.8,53.9c0-0.7,0.4-1.2,1.1-1.2c0.8,0,1.3,0.4,1.3,1.2c0,0.7-0.4,1.2-1.2,1.2
					C154.3,55.1,153.9,54.7,153.8,53.9z"/>
			</g>
			<g>
				<path class="st148" d="M156.4,92.3c-0.8-0.1-1.2-0.5-1.2-1.2c0-0.7,0.4-1.1,1.1-1.1c0.7,0,1.2,0.4,1.2,1.1
					C157.5,91.9,157.1,92.2,156.4,92.3z"/>
			</g>
			<g>
				<path class="st148" d="M155,95.6c-0.7-0.1-1.2-0.5-1.2-1.2c0-0.8,0.5-1.2,1.3-1.2c0.7,0.1,1.1,0.5,1.1,1.3
					C156.1,95.2,155.7,95.5,155,95.6z"/>
			</g>
			<g>
				<path class="st148" d="M158,69.1c-0.1,0.7-0.4,1.2-1.2,1.1c-0.7,0-1.1-0.4-1.1-1.1c0-0.8,0.4-1.2,1.2-1.1
					C157.6,68,158,68.4,158,69.1z"/>
			</g>
			<g>
				<path class="st148" d="M158,109.6c0,0.7-0.4,1.2-1.2,1.1c-0.7,0-1.1-0.4-1.1-1.1c0-0.8,0.4-1.2,1.2-1.2
					C157.6,108.5,158,108.9,158,109.6z"/>
			</g>
			<g>
				<path class="st148" d="M156.7,81.4c-0.8-0.1-1.2-0.4-1.2-1.1c0-0.8,0.4-1.2,1.2-1.2c0.7,0,1.1,0.4,1.1,1.1
					C157.8,81,157.3,81.3,156.7,81.4z"/>
			</g>
			<g>
				<path class="st148" d="M156.7,40.9c-0.8-0.1-1.2-0.4-1.2-1.1c0-0.8,0.4-1.2,1.2-1.2c0.7,0,1.1,0.4,1.1,1.1
					C157.8,40.5,157.3,40.9,156.7,40.9z"/>
			</g>
			<g>
				<path class="st148" d="M155.5,120.7c0-0.7,0.4-1.1,1.1-1.1c0.8,0,1.2,0.4,1.2,1.2c0,0.8-0.5,1.2-1.2,1.1
					C155.8,121.8,155.5,121.4,155.5,120.7z"/>
			</g>
			<g>
				<path class="st148" d="M157.3,102c-0.1,0.8-0.5,1.2-1.3,1.2c-0.7,0-1.1-0.5-1.1-1.1c0-0.8,0.4-1.2,1.2-1.2
					C156.9,100.8,157.2,101.3,157.3,102z"/>
			</g>
			<g>
				<path class="st148" d="M155.2,50.6c0.1-0.8,0.5-1.1,1.3-1.1c0.7,0,1.1,0.5,1.1,1.1c0,0.8-0.4,1.2-1.2,1.2
					C155.6,51.8,155.2,51.3,155.2,50.6z"/>
			</g>
			<g>
				<path class="st148" d="M159.4,95.5c-0.1,0.7-0.5,1.1-1.2,1c-0.7,0-1.1-0.5-1-1.2c0-0.7,0.5-1.1,1.2-1
					C159,94.4,159.3,94.8,159.4,95.5z"/>
			</g>
			<g>
				<path class="st148" d="M158.1,67c-0.8-0.1-1.2-0.4-1.2-1.1c0-0.8,0.4-1.2,1.2-1.1c0.7,0,1,0.4,1,1.1
					C159.1,66.6,158.6,66.9,158.1,67z"/>
			</g>
			<g>
				<path class="st148" d="M159.1,106.4c-0.1,0.7-0.4,1.1-1.1,1.1c-0.8,0-1.1-0.5-1.1-1.2c0.1-0.7,0.5-1,1.2-1
					C158.7,105.3,159.1,105.7,159.1,106.4z"/>
			</g>
			<g>
				<path class="st148" d="M156.6,77c0.1-0.8,0.4-1.2,1.1-1.2c0.8,0,1.2,0.5,1.1,1.2c0,0.7-0.5,1-1.2,1
					C156.9,78.1,156.6,77.6,156.6,77z"/>
			</g>
			<g>
				<path class="st148" d="M156.6,117.5c0-0.7,0.3-1.1,1-1.2c0.7,0,1.2,0.4,1.2,1.1c0,0.7-0.4,1.1-1.1,1.1
					C157,118.6,156.7,118.2,156.6,117.5z"/>
			</g>
			<g>
				<path class="st148" d="M157.5,48.5c-0.7,0-1.2-0.3-1.2-1c0-0.8,0.3-1.2,1.1-1.2c0.7,0,1.1,0.4,1.1,1.1
					C158.6,48,158.2,48.4,157.5,48.5z"/>
			</g>
			<g>
				<path class="st148" d="M156.3,88c0-0.8,0.3-1.3,1-1.3c0.8,0,1.2,0.3,1.2,1.1c0,0.7-0.4,1.1-1.1,1.1
					C156.7,89,156.4,88.6,156.3,88z"/>
			</g>
			<g>
				<path class="st148" d="M157.3,59.4c-0.8,0-1.2-0.4-1.2-1.2c0-0.7,0.4-1.1,1.1-1.1c0.8,0,1.2,0.4,1.2,1.2
					C158.3,59,157.9,59.3,157.3,59.4z"/>
			</g>
			<g>
				<path class="st148" d="M158.3,98.7c0,0.7-0.4,1.2-1.2,1.2c-0.7,0-1.1-0.4-1.1-1.1c0-0.7,0.4-1.2,1.1-1.2
					C157.9,97.6,158.2,98,158.3,98.7z"/>
			</g>
			<g>
				<path class="st148" d="M163.1,115.3c-0.1,0.6-0.4,1-1,1c-0.7,0-1.1-0.4-1.1-1.1c0-0.6,0.4-1,1.1-1
					C162.7,114.3,163,114.7,163.1,115.3z"/>
			</g>
			<g>
				<path class="st148" d="M162.9,45.1c-0.1,0.7-0.4,1.1-1,1.1c-0.7,0-1.1-0.4-1.1-1.1c0-0.6,0.4-1,1-1
					C162.4,44.2,162.7,44.6,162.9,45.1z"/>
			</g>
			<g>
				<path class="st148" d="M160.7,85.8c0.1-0.7,0.4-1.1,1-1.1c0.7,0,1.1,0.4,1.1,1.1c0,0.6-0.4,1-1,1
					C161.2,86.7,160.9,86.3,160.7,85.8z"/>
			</g>
			<g>
				<path class="st148" d="M160.4,56.4c0.1-0.7,0.4-1.1,1-1.1c0.7,0,1.1,0.4,1.1,1.1c0,0.6-0.4,1-1,1
					C160.9,57.4,160.6,57,160.4,56.4z"/>
			</g>
			<g>
				<path class="st148" d="M161.6,97.6c-0.6,0-1.1-0.4-1.1-1c-0.1-0.7,0.4-1.1,1-1.1c0.6,0,1,0.4,1,1
					C162.6,97.1,162.2,97.5,161.6,97.6z"/>
			</g>
			<g>
				<path class="st148" d="M160.2,67.2c0.1-0.6,0.4-1.1,1-1.1c0.7,0,1.1,0.4,1.1,1.1c0,0.6-0.4,1-1,1
					C160.6,68.3,160.3,67.9,160.2,67.2z"/>
			</g>
			<g>
				<path class="st148" d="M161.2,106.6c0.6,0.1,1,0.4,1,1c0,0.7-0.4,1.1-1.1,1.1c-0.6,0-1-0.5-1-1.1
					C160.2,107,160.6,106.7,161.2,106.6z"/>
			</g>
			<g>
				<path class="st148" d="M159.9,37.6c0.1-0.7,0.4-1.1,1.1-1.1c0.6,0,1,0.4,1,1c0,0.7-0.4,1.1-1.1,1.1
					C160.3,38.6,160,38.2,159.9,37.6z"/>
			</g>
			<g>
				<path class="st148" d="M161,79.1c-0.6-0.1-1.1-0.4-1.1-1.1c0-0.6,0.4-1,1-1c0.7,0,1.1,0.4,1.1,1.1C162,78.7,161.6,79,161,79.1z"
					/>
			</g>
			<g>
				<path class="st148" d="M159.9,118.5c0.1-0.6,0.4-1,1-1c0.7,0,1.1,0.4,1.1,1.1c0,0.7-0.5,1.1-1.2,1
					C160.3,119.5,159.9,119.1,159.9,118.5z"/>
			</g>
			<g>
				<path class="st148" d="M161.8,48.5c-0.1,0.6-0.5,1.1-1.2,1c-0.6-0.1-1-0.5-0.9-1.1c0.1-0.7,0.5-1.1,1.2-1
					C161.4,47.5,161.7,47.9,161.8,48.5z"/>
			</g>
			<g>
				<path class="st148" d="M161.8,88.9c-0.1,0.7-0.4,1.1-1.1,1.1c-0.6,0-1-0.4-1-1c0-0.7,0.4-1.1,1.1-1.1
					C161.4,87.9,161.7,88.3,161.8,88.9z"/>
			</g>
			<g>
				<path class="st148" d="M160.5,60.4c-0.7-0.1-1.1-0.4-1.1-1.1c0-0.6,0.4-1,1-1.1c0.7,0,1.1,0.4,1.1,1.1
					C161.5,60,161.1,60.3,160.5,60.4z"/>
			</g>
			<g>
				<path class="st148" d="M159.3,99.9c0.1-0.7,0.4-1.1,1.1-1.1c0.6,0,1,0.4,1.1,1c0,0.7-0.4,1.1-1.1,1.1
					C159.8,100.9,159.5,100.5,159.3,99.9z"/>
			</g>
			<g>
				<path class="st148" d="M159,70.5c0.1-0.7,0.4-1.1,1.1-1.1c0.7,0,1.1,0.4,1.1,1.1c0,0.7-0.5,1.1-1.2,1
					C159.4,71.5,159.1,71,159,70.5z"/>
			</g>
			<g>
				<path class="st148" d="M160.1,112c-0.6-0.1-1-0.4-1-1.1c0-0.7,0.4-1.1,1.1-1.1c0.7,0,1.1,0.5,1,1.2
					C161.2,111.6,160.7,112,160.1,112z"/>
			</g>
			<g>
				<path class="st148" d="M158.8,41c0.1-0.8,0.4-1.2,1.1-1.2c0.7,0,1.1,0.4,1.1,1.1c0,0.6-0.4,1-1,1.1
					C159.3,42,158.9,41.5,158.8,41z"/>
			</g>
			<g>
				<path class="st148" d="M159.8,82.4c-0.7-0.1-1.1-0.5-1-1.2c0-0.7,0.5-1.1,1.2-1c0.6,0,1,0.4,1,1.1
					C160.9,82,160.5,82.3,159.8,82.4z"/>
			</g>
			<g>
				<path class="st148" d="M159.8,122.9c-0.7-0.1-1.1-0.5-1-1.2c0-0.7,0.5-1.1,1.2-1c0.6,0,1,0.4,1,1.1
					C160.9,122.5,160.5,122.8,159.8,122.9z"/>
			</g>
			<g>
				<path class="st148" d="M158.5,51.7c0.1-0.7,0.4-1.1,1.1-1.1c0.7,0,1.1,0.5,1,1.1c0,0.6-0.4,1-1,1
					C158.9,52.8,158.6,52.4,158.5,51.7z"/>
			</g>
			<g>
				<path class="st148" d="M160.7,92.1c-0.1,0.8-0.4,1.2-1.1,1.2c-0.7,0-1.1-0.4-1.1-1.1c0-0.6,0.4-1,1-1
					C160.3,91.1,160.6,91.5,160.7,92.1z"/>
			</g>
			<g>
				<path class="st148" d="M158.2,62.6c0-0.7,0.4-1.1,1.1-1.1c0.7,0,1.1,0.4,1.1,1.1c0,0.6-0.4,1-1,1.1
					C158.7,63.7,158.3,63.3,158.2,62.6z"/>
			</g>
			<g>
				<path class="st148" d="M160.4,103c-0.1,0.7-0.4,1.1-1.1,1.1c-0.7,0-1.1-0.4-1.1-1.1c0-0.6,0.4-1,1-1
					C160,101.9,160.3,102.4,160.4,103z"/>
			</g>
			<g>
				<path class="st148" d="M157.9,73.8c0.1-0.7,0.5-1.2,1.2-1.1c0.7,0,1.1,0.4,1,1.1c0,0.7-0.4,1.1-1.1,1
					C158.3,74.8,158,74.3,157.9,73.8z"/>
			</g>
			<g>
				<path class="st148" d="M158.8,45.2c-0.7-0.1-1.1-0.4-1.1-1.1c0-0.7,0.4-1.1,1.1-1.1c0.7,0,1.1,0.4,1.1,1.1
					C159.9,44.8,159.5,45.1,158.8,45.2z"/>
			</g>
			<g>
				<path class="st148" d="M159.9,114.1c0,0.7-0.4,1.1-1.1,1.1c-0.7,0-1.1-0.4-1.1-1c0-0.7,0.4-1.1,1-1.1
					C159.4,113.1,159.8,113.5,159.9,114.1z"/>
			</g>
			<g>
				<path class="st148" d="M157.4,84.7c0.1-0.8,0.4-1.2,1.1-1.2c0.7,0,1.1,0.4,1.1,1.1c0,0.7-0.4,1.1-1.1,1.1
					C157.8,85.7,157.5,85.2,157.4,84.7z"/>
			</g>
			<g>
				<path class="st148" d="M158.3,56.1c-0.8-0.1-1.2-0.5-1.2-1.2c0-0.7,0.4-1.1,1.1-1.1c0.7,0,1.1,0.4,1.1,1.1
					C159.3,55.7,158.9,56,158.3,56.1z"/>
			</g>
			<g>
				<path class="st148" d="M165.5,68.3c0,0.5-0.3,0.9-0.9,0.9c-0.6,0-1-0.3-1-0.9c0-0.6,0.3-1,1-1C165.1,67.3,165.4,67.7,165.5,68.3
					z"/>
			</g>
			<g>
				<path class="st148" d="M165.5,108.8c-0.1,0.6-0.4,0.9-1,0.9c-0.6,0-1-0.4-0.9-1.1c0.1-0.6,0.5-0.9,1-0.8
					C165.1,107.9,165.4,108.2,165.5,108.8z"/>
			</g>
			<g>
				<path class="st148" d="M163.4,72.5c-0.6-0.1-1-0.5-0.9-1.1c0.1-0.5,0.5-0.9,1-0.9c0.6,0.1,1,0.5,0.9,1.1
					C164.3,72.2,163.9,72.5,163.4,72.5z"/>
			</g>
			<g>
				<path class="st148" d="M163.9,53.1c-0.1,0.6-0.5,1-1.1,1c-0.6,0-1-0.4-1-1c0-0.6,0.4-1,1-1C163.5,52.1,163.8,52.5,163.9,53.1z"
					/>
			</g>
			<g>
				<path class="st148" d="M163.7,102.1c-0.6-0.1-0.9-0.4-1-0.9c0-0.6,0.3-1,1-1c0.6,0,1,0.4,1,1
					C164.6,101.8,164.3,102.1,163.7,102.1z"/>
			</g>
			<g>
				<path class="st148" d="M162.4,112c0-0.5,0.3-0.9,0.9-1c0.6-0.1,1,0.3,1.1,0.9c0,0.6-0.3,1-0.9,1
					C162.9,113.1,162.5,112.7,162.4,112z"/>
			</g>
			<g>
				<path class="st148" d="M164.2,80.1c-0.5,0-0.9-0.3-0.9-0.9c0-0.6,0.3-1,0.9-1c0.6-0.1,1,0.3,1.1,0.9
					C165.2,79.7,164.8,80,164.2,80.1z"/>
			</g>
			<g>
				<path class="st148" d="M163.9,50.8c-0.6-0.1-1-0.4-0.9-1c0-0.6,0.4-1,1.1-0.9c0.6,0.1,0.9,0.5,0.8,1
					C164.9,50.5,164.5,50.8,163.9,50.8z"/>
			</g>
			<g>
				<path class="st148" d="M164.2,41.9c-0.1,0.6-0.4,1-1,1c-0.6,0-1-0.4-1-1c0-0.6,0.4-0.9,0.9-1C163.7,40.9,164,41.3,164.2,41.9z"
					/>
			</g>
			<g>
				<path class="st148" d="M163.1,83.4c-0.6-0.1-1-0.5-1-1.1c0.1-0.6,0.5-1,1.1-0.9c0.5,0.1,0.9,0.5,0.9,1
					C164.1,83.1,163.7,83.4,163.1,83.4z"/>
			</g>
			<g>
				<path class="st148" d="M163.9,93.5c-0.1,0.6-0.4,1-1,1c-0.6,0-1-0.4-1-1c0-0.6,0.4-1,1-1C163.4,92.5,163.8,92.9,163.9,93.5z"/>
			</g>
			<g>
				<path class="st148" d="M162.7,60.7c0.1-0.6,0.4-1,1.1-1c0.5,0,0.9,0.4,0.9,1c0,0.6-0.4,1-1,1C163.1,61.6,162.8,61.2,162.7,60.7z
					"/>
			</g>
			<g>
				<path class="st148" d="M163,90.3c0.1-0.6,0.4-0.9,1-0.9c0.6,0,1,0.4,1,1c0,0.6-0.4,0.9-1,0.9C163.3,91.2,163,90.8,163,90.3z"/>
			</g>
			<g>
				<path class="st148" d="M161.3,74.8c0.1-0.6,0.4-1,1-1.1c0.6,0,1,0.4,1.1,1c0,0.6-0.4,1-1,1.1C161.7,75.9,161.4,75.4,161.3,74.8z
					"/>
			</g>
			<g>
				<path class="st148" d="M165.2,38.7c-0.1,0.6-0.4,0.9-0.9,1c-0.6,0-1-0.4-1-1c0-0.6,0.4-0.9,1-0.9
					C164.8,37.7,165.1,38.1,165.2,38.7z"/>
			</g>
			<g>
				<path class="st148" d="M165.2,119.6c0,0.5-0.3,0.9-0.9,1c-0.6,0.1-1-0.3-1-0.8c-0.1-0.6,0.3-1,0.9-1.1
					C164.8,118.6,165.1,119,165.2,119.6z"/>
			</g>
			<g>
				<path class="st148" d="M161.5,104.4c0.1-0.6,0.5-1,1.1-1c0.6,0,1,0.4,1,1.1c0,0.6-0.4,1-1.1,1
					C161.9,105.4,161.6,105,161.5,104.4z"/>
			</g>
			<g>
				<path class="st148" d="M162.6,65c-0.6-0.1-1-0.4-1-1c0-0.6,0.4-1,1-1.1c0.6,0,1,0.4,1.1,1C163.6,64.5,163.2,64.9,162.6,65z"/>
			</g>
			<g>
				<path class="st148" d="M167.5,113.1c0,0.6-0.3,0.9-0.9,0.9c-0.6,0-0.9-0.4-0.9-1c0-0.5,0.4-0.8,0.9-0.8
					C167.3,112.3,167.5,112.6,167.5,113.1z"/>
			</g>
			<g>
				<path class="st148" d="M166.7,73.5c-0.5,0-0.9-0.2-0.9-0.8c0-0.6,0.3-1,0.9-1c0.5,0,0.8,0.3,0.9,0.8
					C167.5,73.1,167.3,73.4,166.7,73.5z"/>
			</g>
			<g>
				<path class="st148" d="M167.8,102.3c-0.1,0.5-0.4,0.8-0.9,0.8c-0.6,0-0.9-0.4-0.8-1c0.1-0.5,0.4-0.8,0.9-0.7
					C167.6,101.4,167.8,101.8,167.8,102.3z"/>
			</g>
			<g>
				<path class="st148" d="M166.1,61.8c0-0.5,0.3-0.8,0.8-0.9c0.6,0,0.9,0.3,0.9,0.9c0,0.5-0.4,0.8-0.9,0.8
					C166.4,62.6,166.1,62.3,166.1,61.8z"/>
			</g>
			<g>
				<path class="st148" d="M168.1,91.4c0,0.5-0.3,0.8-0.9,0.8c-0.6,0-0.9-0.4-0.8-1c0-0.5,0.4-0.8,0.9-0.7
					C167.8,90.6,168.1,90.9,168.1,91.4z"/>
			</g>
			<g>
				<path class="st148" d="M168.1,50.9c0,0.5-0.3,0.8-0.8,0.9c-0.6,0-0.9-0.3-0.9-0.9c0-0.5,0.3-0.8,0.9-0.8
					C167.8,50.1,168,50.4,168.1,50.9z"/>
			</g>
			<g>
				<path class="st148" d="M166.6,121c0-0.5,0.2-0.9,0.8-0.9c0.6,0,0.9,0.2,0.9,0.9c0,0.5-0.3,0.8-0.8,0.8
					C167,121.8,166.7,121.6,166.6,121z"/>
			</g>
			<g>
				<path class="st148" d="M167.5,79.7c0.5,0,0.8,0.3,0.9,0.8c0,0.5-0.2,0.9-0.8,0.9c-0.6,0-0.9-0.3-0.9-0.9
					C166.6,80,167,79.7,167.5,79.7z"/>
			</g>
			<g>
				<path class="st148" d="M167.5,39.2c0.5,0,0.8,0.3,0.9,0.8c0,0.5-0.2,0.9-0.8,0.9c-0.6,0-0.9-0.3-0.9-0.9
					C166.6,39.5,167,39.2,167.5,39.2z"/>
			</g>
			<g>
				<path class="st148" d="M167.8,110.7c-0.5,0-0.9-0.2-0.9-0.8c0-0.5,0.2-0.9,0.8-0.9c0.5,0,0.9,0.2,0.9,0.8
					C168.6,110.3,168.4,110.6,167.8,110.7z"/>
			</g>
			<g>
				<path class="st148" d="M167.8,70.2c-0.5,0-0.9-0.2-0.9-0.8c0-0.5,0.2-0.9,0.8-0.9c0.5,0,0.9,0.2,0.9,0.8
					C168.6,69.8,168.4,70.1,167.8,70.2z"/>
			</g>
			<g>
				<path class="st148" d="M168,99.8c-0.5,0-0.8-0.3-0.9-0.8c0-0.5,0.3-0.8,0.8-0.9c0.5,0,0.8,0.3,0.9,0.8
					C168.9,99.5,168.6,99.8,168,99.8z"/>
			</g>
			<g>
				<path class="st148" d="M168.9,58.6c-0.1,0.5-0.4,0.8-0.9,0.8c-0.5,0-0.8-0.4-0.8-0.9c0-0.5,0.4-0.8,0.9-0.8
					C168.6,57.7,168.9,58.1,168.9,58.6z"/>
			</g>
			<g>
				<path class="st148" d="M168.2,89c-0.5-0.1-0.8-0.4-0.8-0.9c0-0.5,0.4-0.8,0.9-0.8c0.5,0,0.8,0.4,0.8,0.9
					C169.1,88.7,168.8,89,168.2,89z"/>
			</g>
			<g>
				<path class="st148" d="M167.5,47.6c0-0.5,0.3-0.8,0.9-0.8c0.5,0,0.8,0.3,0.8,0.9c0,0.5-0.3,0.8-0.9,0.8
					C167.7,48.5,167.5,48.1,167.5,47.6z"/>
			</g>
			<g>
				<path class="st148" d="M168.7,118.6c-0.6,0-0.9-0.3-0.9-0.8c0-0.5,0.3-0.8,0.8-0.8c0.5,0,0.8,0.3,0.8,0.8
					C169.4,118.2,169.1,118.5,168.7,118.6z"/>
			</g>
			<g>
				<path class="st148" d="M167.7,77.2c0.1-0.5,0.4-0.8,0.9-0.8c0.5,0,0.8,0.4,0.8,0.9c0,0.5-0.4,0.8-0.9,0.8
					C168,78,167.7,77.7,167.7,77.2z"/>
			</g>
			<g>
				<path class="st148" d="M168.8,107.4c-0.5-0.1-0.8-0.4-0.8-0.9c0-0.5,0.4-0.8,0.9-0.8c0.5,0,0.7,0.3,0.7,0.8
					C169.7,107.1,169.3,107.4,168.8,107.4z"/>
			</g>
			<g>
				<path class="st148" d="M168.3,66.4c0.1-0.5,0.3-0.8,0.9-0.8c0.5,0,0.8,0.4,0.8,0.9c0,0.5-0.3,0.7-0.8,0.7
					C168.6,67.2,168.3,66.9,168.3,66.4z"/>
			</g>
			<g>
				<path class="st148" d="M169.4,96.5c-0.5-0.1-0.8-0.4-0.8-0.9c0-0.5,0.4-0.8,0.9-0.8c0.4,0,0.7,0.3,0.7,0.8
					C170.2,96.2,169.9,96.5,169.4,96.5z"/>
			</g>
			<g>
				<path class="st148" d="M168.6,55.4c0-0.6,0.3-0.9,0.8-0.9c0.5,0,0.8,0.3,0.8,0.7c0.1,0.5-0.2,0.9-0.7,0.9
					C168.9,56.1,168.7,55.8,168.6,55.4z"/>
			</g>
			<g>
				<path class="st148" d="M169.7,85.7c-0.5,0-0.8-0.3-0.8-0.7c-0.1-0.5,0.2-0.9,0.8-0.9c0.5,0,0.8,0.3,0.8,0.8
					C170.5,85.4,170.1,85.6,169.7,85.7z"/>
			</g>
			<g>
				<path class="st148" d="M169.6,45.2c-0.5-0.1-0.8-0.4-0.8-0.9c0-0.5,0.3-0.7,0.8-0.7c0.5,0,0.8,0.3,0.8,0.9
					C170.4,44.9,170.1,45.2,169.6,45.2z"/>
			</g>
			<g>
				<path class="st148" d="M169.9,115.3c-0.5-0.1-0.8-0.4-0.8-0.9c0-0.5,0.4-0.7,0.8-0.7c0.5,0,0.8,0.4,0.8,0.9
					C170.7,115,170.4,115.3,169.9,115.3z"/>
			</g>
			<g>
				<path class="st148" d="M169.9,74.8c-0.5-0.1-0.8-0.4-0.8-0.9c0-0.5,0.4-0.7,0.8-0.7c0.5,0,0.8,0.4,0.8,0.9
					C170.7,74.5,170.4,74.8,169.9,74.8z"/>
			</g>
			<g>
				<path class="st148" d="M169.4,103.5c0.1-0.5,0.4-0.8,0.9-0.7c0.4,0.1,0.7,0.4,0.7,0.8c0,0.5-0.4,0.8-0.9,0.8
					C169.7,104.3,169.4,104,169.4,103.5z"/>
			</g>
			<g>
				<path class="st148" d="M170.3,64c-0.6-0.1-0.9-0.3-0.9-0.9c0-0.5,0.3-0.8,0.8-0.8c0.5,0,0.8,0.3,0.8,0.9
					C171,63.7,170.6,63.9,170.3,64z"/>
			</g>
			<g>
				<path class="st148" d="M170.4,93.3c-0.5-0.1-0.8-0.4-0.7-0.9c0.1-0.4,0.4-0.7,0.9-0.7c0.5,0.1,0.8,0.4,0.7,0.9
					C171.2,93,170.9,93.3,170.4,93.3z"/>
			</g>
			<g>
				<path class="st148" d="M171.3,51.9c0,0.5-0.3,0.8-0.7,0.8c-0.5,0.1-0.9-0.2-0.9-0.8c0-0.5,0.3-0.8,0.8-0.8
					C171,51.2,171.2,51.5,171.3,51.9z"/>
			</g>
			<g>
				<path class="st148" d="M166.1,53.3c0.6,0,0.9,0.3,0.9,0.9c0,0.5-0.3,0.8-0.8,0.9c-0.6,0-0.9-0.3-0.9-0.9
					C165.3,53.6,165.6,53.3,166.1,53.3z"/>
			</g>
			<g>
				<path class="st148" d="M171.6,81.6c-0.1,0.5-0.4,0.8-0.9,0.8c-0.4,0-0.7-0.4-0.7-0.8c0-0.5,0.4-0.8,0.9-0.8
					C171.3,80.8,171.5,81.2,171.6,81.6z"/>
			</g>
			<g>
				<path class="st148" d="M170.7,41.9c-0.5-0.1-0.8-0.4-0.7-0.9c0.1-0.4,0.4-0.7,0.8-0.7c0.5,0.1,0.8,0.4,0.7,0.9
					C171.5,41.7,171.1,41.9,170.7,41.9z"/>
			</g>
			<g>
				<path class="st148" d="M171.1,112c-0.6-0.1-0.9-0.4-0.8-0.9c0-0.4,0.3-0.7,0.8-0.7c0.5,0,0.8,0.3,0.8,0.9
					C171.8,111.7,171.4,111.9,171.1,112z"/>
			</g>
			<g>
				<path class="st148" d="M171.8,70.7c-0.1,0.5-0.4,0.8-0.9,0.8c-0.4,0-0.7-0.3-0.7-0.8c0-0.5,0.3-0.8,0.9-0.8
					C171.5,70,171.8,70.3,171.8,70.7z"/>
			</g>
			<g>
				<path class="st148" d="M166.1,95.5c-0.5-0.1-0.8-0.3-0.8-0.9c0-0.6,0.3-0.9,0.9-0.9c0.6,0,0.9,0.4,0.8,1
					C166.9,95.3,166.6,95.5,166.1,95.5z"/>
			</g>
			<g>
				<path class="st148" d="M165.8,65.9c-0.6,0-0.9-0.3-0.9-0.9c0-0.5,0.3-0.8,0.9-0.8c0.6,0,0.9,0.3,0.9,0.9
					C166.7,65.6,166.4,65.9,165.8,65.9z"/>
			</g>
			<g>
				<path class="st148" d="M166.5,105.5c-0.1,0.6-0.4,0.9-1,0.9c-0.5,0-0.8-0.4-0.8-0.9c0-0.6,0.4-0.9,1-0.9
					C166.2,104.6,166.5,105,166.5,105.5z"/>
			</g>
			<g>
				<path class="st148" d="M167.3,83.8c0,0.6-0.3,0.9-0.9,0.9c-0.5,0-0.8-0.3-0.8-0.9c0-0.6,0.3-0.9,0.9-0.9
					C167,82.9,167.2,83.2,167.3,83.8z"/>
			</g>
			<g>
				<path class="st148" d="M166.4,44.2c-0.5,0-0.8-0.3-0.9-0.8c0-0.6,0.2-0.9,0.8-1c0.6,0,0.9,0.3,0.9,0.9
					C167.3,43.9,166.9,44.1,166.4,44.2z"/>
			</g>
			<g>
				<path class="st148" d="M166.2,75.9c0,0.6-0.3,0.9-0.9,0.9c-0.6,0-0.9-0.4-0.9-1c0-0.5,0.3-0.8,0.9-0.8
					C165.9,75,166.2,75.3,166.2,75.9z"/>
			</g>
			<g>
				<path class="st148" d="M164.4,116.3c0.1-0.6,0.4-0.9,1-0.9c0.6,0,0.9,0.4,0.8,1c0,0.5-0.4,0.8-0.9,0.8
					C164.7,117.2,164.4,116.9,164.4,116.3z"/>
			</g>
			<g>
				<path class="st148" d="M165,45.6c0.7,0.1,1,0.4,0.9,1c0,0.6-0.4,0.9-1,0.8c-0.5-0.1-0.8-0.4-0.8-0.9
					C164.2,45.9,164.5,45.7,165,45.6z"/>
			</g>
			<g>
				<path class="st148" d="M165,87.9c-0.6-0.1-0.9-0.4-0.9-1c0-0.6,0.4-0.9,1-0.8c0.5,0.1,0.8,0.4,0.8,0.9
					C165.9,87.6,165.6,87.9,165,87.9z"/>
			</g>
			<g>
				<path class="st148" d="M163.8,57.4c0-0.6,0.3-0.9,0.9-0.9c0.6,0,0.9,0.4,0.9,0.9c0,0.5-0.3,0.9-0.8,0.9
					C164.3,58.4,163.9,58,163.8,57.4z"/>
			</g>
			<g>
				<path class="st148" d="M164.8,98.8c-0.6-0.1-0.9-0.4-0.9-1c0-0.6,0.4-0.9,1-0.9c0.5,0,0.8,0.4,0.8,0.9
					C165.7,98.5,165.3,98.8,164.8,98.8z"/>
			</g>
			<g>
				<path class="st148" d="M171.7,90c-0.5-0.1-0.8-0.3-0.9-0.8c0-0.5,0.3-0.8,0.7-0.8c0.5,0,0.8,0.3,0.8,0.7
					C172.4,89.7,172,89.9,171.7,90z"/>
			</g>
			<g>
				<path class="st148" d="M172.4,48.7c-0.1,0.5-0.4,0.8-0.8,0.8c-0.5,0-0.8-0.3-0.7-0.8c0-0.5,0.3-0.8,0.8-0.7
					C172.1,48,172.3,48.3,172.4,48.7z"/>
			</g>
			<g>
				<path class="st148" d="M171.8,119.6c-0.4-0.1-0.8-0.4-0.7-0.8c0-0.5,0.3-0.8,0.8-0.7c0.4,0,0.8,0.3,0.7,0.8
					C172.6,119.3,172.3,119.5,171.8,119.6z"/>
			</g>
			<g>
				<path class="st148" d="M172.6,78.3c-0.1,0.5-0.4,0.8-0.8,0.8c-0.5,0-0.8-0.3-0.7-0.8c0-0.4,0.3-0.8,0.8-0.7
					C172.3,77.6,172.5,77.9,172.6,78.3z"/>
			</g>
			<g>
				<path class="st148" d="M172.6,37.8c-0.1,0.5-0.4,0.8-0.8,0.8c-0.4,0-0.8-0.4-0.7-0.8c0-0.4,0.3-0.7,0.7-0.7
					C172.3,37.1,172.5,37.5,172.6,37.8z"/>
			</g>
			<g>
				<path class="st148" d="M171.3,108c0-0.5,0.3-0.8,0.7-0.8c0.5-0.1,0.8,0.2,0.9,0.7c0.1,0.5-0.2,0.9-0.7,0.9
					C171.7,108.8,171.4,108.4,171.3,108z"/>
			</g>
			<g>
				<path class="st148" d="M172.1,68.3c-0.4-0.1-0.8-0.3-0.8-0.8c0-0.5,0.3-0.8,0.9-0.8c0.4,0,0.7,0.4,0.7,0.8
					C172.9,68,172.5,68.2,172.1,68.3z"/>
			</g>
			<g>
				<path class="st148" d="M171.9,97.1c0.1-0.5,0.3-0.8,0.8-0.8c0.4,0,0.7,0.3,0.7,0.7c0,0.5-0.3,0.8-0.7,0.8
					C172.2,97.9,172,97.5,171.9,97.1z"/>
			</g>
			<g>
				<path class="st148" d="M172.7,57.4c-0.4-0.1-0.8-0.3-0.8-0.8c0-0.4,0.3-0.7,0.7-0.7c0.5,0,0.8,0.3,0.8,0.7
					C173.4,57,173.1,57.3,172.7,57.4z"/>
			</g>
			<g>
				<path class="st148" d="M172.1,86c0.1-0.5,0.3-0.8,0.8-0.8c0.4,0,0.7,0.3,0.7,0.7c0,0.5-0.3,0.8-0.7,0.8
					C172.5,86.7,172.3,86.4,172.1,86z"/>
			</g>
			<g>
				<path class="st148" d="M172.9,46.2c-0.4-0.1-0.8-0.4-0.7-0.8c0-0.4,0.4-0.7,0.8-0.7c0.4,0,0.7,0.3,0.7,0.7
					C173.7,45.9,173.3,46.2,172.9,46.2z"/>
			</g>
			<g>
				<path class="st148" d="M173.2,116.3c-0.5-0.2-0.8-0.4-0.7-0.9c0.1-0.4,0.4-0.7,0.8-0.6c0.4,0.1,0.7,0.4,0.7,0.9
					C173.8,116.1,173.5,116.3,173.2,116.3z"/>
			</g>
			<g>
				<path class="st148" d="M172.4,75.1c0.1-0.4,0.4-0.8,0.8-0.7c0.4,0,0.7,0.3,0.7,0.7c0,0.5-0.3,0.8-0.8,0.7
					C172.7,75.8,172.5,75.5,172.4,75.1z"/>
			</g>
			<g>
				<path class="st148" d="M172.7,104.7c0.1-0.4,0.4-0.8,0.8-0.7c0.4,0,0.7,0.3,0.6,0.7c0,0.5-0.4,0.8-0.8,0.7
					C173,105.4,172.8,105.1,172.7,104.7z"/>
			</g>
			<g>
				<path class="st148" d="M174.2,64.2c-0.1,0.5-0.4,0.8-0.8,0.7c-0.4,0-0.7-0.3-0.6-0.7c0-0.5,0.3-0.8,0.8-0.7
					C173.9,63.5,174.1,63.8,174.2,64.2z"/>
			</g>
			<g>
				<path class="st148" d="M174.5,93.7c0,0.4-0.2,0.7-0.6,0.8c-0.5,0.1-0.8-0.2-0.8-0.7c-0.1-0.4,0.2-0.7,0.6-0.8
					C174.1,93,174.3,93.3,174.5,93.7z"/>
			</g>
			<g>
				<path class="st148" d="M174.5,53.3c0,0.4-0.3,0.7-0.6,0.8c-0.5,0.1-0.8-0.2-0.8-0.7c0-0.4,0.2-0.7,0.6-0.8
					C174.1,52.6,174.4,52.9,174.5,53.3z"/>
			</g>
			<g>
				<path class="st148" d="M174.1,83.4c-0.4,0-0.7-0.3-0.8-0.6c-0.1-0.5,0.2-0.8,0.7-0.8c0.4,0,0.7,0.2,0.7,0.6
					C174.8,83.1,174.5,83.3,174.1,83.4z"/>
			</g>
			<g>
				<path class="st148" d="M173.3,42.2c0.1-0.4,0.4-0.7,0.8-0.7c0.4,0.1,0.7,0.3,0.6,0.7c0,0.4-0.4,0.7-0.8,0.7
					C173.5,42.9,173.3,42.6,173.3,42.2z"/>
			</g>
			<g>
				<path class="st148" d="M175,112.3c-0.1,0.4-0.3,0.7-0.7,0.7c-0.5,0-0.8-0.3-0.7-0.8c0-0.4,0.3-0.7,0.7-0.6
					C174.7,111.6,174.9,111.9,175,112.3z"/>
			</g>
			<g>
				<path class="st148" d="M175,71.8c-0.1,0.4-0.3,0.7-0.7,0.7c-0.5,0-0.8-0.3-0.7-0.8c0-0.4,0.3-0.7,0.8-0.6
					C174.7,71.2,175,71.4,175,71.8z"/>
			</g>
			<g>
				<path class="st148" d="M175.3,101.4c-0.1,0.4-0.3,0.7-0.7,0.7c-0.5,0-0.8-0.3-0.7-0.8c0-0.4,0.3-0.7,0.8-0.6
					C175,100.8,175.2,101,175.3,101.4z"/>
			</g>
			<g>
				<path class="st148" d="M174.6,61.7c-0.4,0-0.7-0.2-0.7-0.6c-0.1-0.4,0.2-0.7,0.6-0.8c0.5-0.1,0.8,0.2,0.8,0.7
					C175.3,61.3,175,61.6,174.6,61.7z"/>
			</g>
			<g>
				<path class="st148" d="M174.8,91.3c-0.4-0.1-0.7-0.3-0.6-0.7c0-0.5,0.3-0.7,0.8-0.6c0.4,0.1,0.6,0.4,0.6,0.8
					C175.5,91,175.2,91.3,174.8,91.3z"/>
			</g>
			<g>
				<path class="st148" d="M175.5,50.1c0,0.4-0.3,0.7-0.7,0.7c-0.5,0-0.8-0.3-0.7-0.7c0-0.4,0.3-0.6,0.7-0.6
					C175.2,49.4,175.5,49.7,175.5,50.1z"/>
			</g>
			<g>
				<path class="st148" d="M172.1,100.3c-0.1,0.4-0.3,0.8-0.8,0.8c-0.5,0-0.8-0.3-0.8-0.8c0-0.4,0.3-0.7,0.8-0.7
					C171.8,99.6,172,99.9,172.1,100.3z"/>
			</g>
			<g>
				<path class="st148" d="M171.2,60.7c-0.4-0.1-0.7-0.4-0.7-0.8c0-0.5,0.4-0.8,0.9-0.7c0.4,0.1,0.7,0.4,0.7,0.9
					C172,60.4,171.7,60.6,171.2,60.7z"/>
			</g>
			<g>
				<path class="st148" d="M177.8,62.6c-0.4,0-0.6-0.2-0.6-0.6c0-0.4,0.2-0.6,0.6-0.6c0.4,0,0.6,0.2,0.6,0.6
					C178.4,62.4,178.2,62.6,177.8,62.6z"/>
			</g>
			<g>
				<path class="st148" d="M177.2,102.6c0-0.4,0.2-0.7,0.6-0.7c0.4,0,0.6,0.2,0.6,0.6c0,0.4-0.2,0.6-0.6,0.6
					C177.4,103.1,177.3,102.9,177.2,102.6z"/>
			</g>
			<g>
				<path class="st148" d="M177.2,84.6c-0.4,0-0.6-0.2-0.5-0.6c0-0.5,0.3-0.6,0.7-0.6c0.4,0,0.5,0.3,0.5,0.7
					C177.8,84.5,177.6,84.6,177.2,84.6z"/>
			</g>
			<g>
				<path class="st148" d="M177.1,55c-0.5,0-0.7-0.2-0.7-0.6c0-0.4,0.3-0.6,0.7-0.6c0.4,0,0.5,0.3,0.5,0.6
					C177.6,54.9,177.3,55,177.1,55z"/>
			</g>
			<g>
				<path class="st148" d="M177.6,94.9c0,0.4-0.2,0.6-0.5,0.6c-0.4,0-0.6-0.1-0.6-0.5c0-0.4,0.2-0.7,0.6-0.7
					C177.4,94.3,177.6,94.5,177.6,94.9z"/>
			</g>
			<g>
				<path class="st148" d="M178.1,73.2c0,0.4-0.3,0.6-0.6,0.5c-0.4,0-0.6-0.3-0.5-0.6c0-0.4,0.3-0.6,0.6-0.5
					C178,72.6,178.1,72.9,178.1,73.2z"/>
			</g>
			<g>
				<path class="st148" d="M177.5,114.2c-0.4,0-0.6-0.2-0.6-0.6c0-0.4,0.2-0.6,0.6-0.6c0.4,0,0.6,0.2,0.6,0.6
					C178.1,114,177.9,114.2,177.5,114.2z"/>
			</g>
			<g>
				<path class="st148" d="M176.8,65.9c-0.4,0-0.6-0.2-0.6-0.5c0-0.4,0.1-0.6,0.5-0.7c0.4-0.1,0.7,0.1,0.7,0.6
					C177.3,65.7,177.1,65.9,176.8,65.9z"/>
			</g>
			<g>
				<path class="st148" d="M176.7,106.4c-0.4-0.1-0.6-0.3-0.6-0.6c0-0.5,0.3-0.6,0.7-0.6c0.4,0,0.5,0.3,0.5,0.7
					C177.3,106.2,177,106.4,176.7,106.4z"/>
			</g>
			<g>
				<path class="st148" d="M175.8,76.2c0-0.4,0.2-0.6,0.5-0.6c0.4,0,0.6,0.1,0.7,0.5c0.1,0.4-0.1,0.7-0.6,0.7
					C176.1,76.8,175.9,76.6,175.8,76.2z"/>
			</g>
			<g>
				<path class="st148" d="M176.4,117.2c-0.4-0.1-0.6-0.3-0.6-0.6c0-0.4,0.2-0.6,0.6-0.6c0.5,0,0.6,0.3,0.6,0.7
					C177,117.1,176.7,117.2,176.4,117.2z"/>
			</g>
			<g>
				<path class="st148" d="M176.3,47.4c-0.4,0-0.7-0.2-0.7-0.5c0-0.4,0.1-0.7,0.6-0.7c0.4,0,0.6,0.2,0.6,0.5
					C176.8,47.2,176.6,47.4,176.3,47.4z"/>
			</g>
			<g>
				<path class="st148" d="M176.8,87.2c0,0.4-0.2,0.7-0.5,0.7c-0.4,0-0.7-0.1-0.7-0.6c0-0.4,0.2-0.6,0.5-0.6
					C176.5,86.6,176.7,86.9,176.8,87.2z"/>
			</g>
			<g>
				<path class="st148" d="M176.5,57.7c0,0.4-0.2,0.6-0.5,0.6c-0.4,0-0.7-0.1-0.7-0.6c0-0.4,0.1-0.6,0.5-0.6
					C176.2,57,176.5,57.2,176.5,57.7z"/>
			</g>
			<g>
				<path class="st148" d="M179.2,59.3c-0.4,0-0.6-0.3-0.6-0.6c0-0.4,0.3-0.5,0.6-0.5c0.3,0,0.5,0.2,0.5,0.5
					C179.7,59.1,179.5,59.3,179.2,59.3z"/>
			</g>
			<g>
				<path class="st148" d="M177.8,40.3c0-0.4,0.2-0.6,0.6-0.6c0.4,0,0.6,0.2,0.6,0.6c0,0.3-0.2,0.5-0.5,0.5
					C178,40.9,177.8,40.7,177.8,40.3z"/>
			</g>
			<g>
				<path class="st148" d="M175.7,98.8c-0.4,0-0.6-0.1-0.7-0.5c-0.1-0.4,0.1-0.7,0.6-0.7c0.4,0,0.6,0.1,0.7,0.5
					C176.3,98.5,176.1,98.7,175.7,98.8z"/>
			</g>
			<g>
				<path class="st148" d="M175.4,69.2c-0.4,0-0.7-0.3-0.6-0.7c0-0.4,0.3-0.6,0.7-0.6c0.3,0,0.6,0.3,0.6,0.6
					C176,69,175.8,69.2,175.4,69.2z"/>
			</g>
			<g>
				<path class="st148" d="M179.5,99.3c-0.1,0.4-0.3,0.6-0.6,0.5c-0.4,0-0.5-0.3-0.5-0.7c0-0.3,0.3-0.5,0.6-0.5
					C179.3,98.7,179.5,98.9,179.5,99.3z"/>
			</g>
			<g>
				<path class="st148" d="M177.9,43.6c-0.1,0.4-0.3,0.6-0.6,0.6c-0.5,0-0.6-0.3-0.6-0.7c0-0.4,0.3-0.5,0.7-0.5
					C177.7,43,177.9,43.3,177.9,43.6z"/>
			</g>
			<g>
				<path class="st148" d="M178.4,121.8c-0.5-0.1-0.6-0.3-0.6-0.7c0-0.4,0.3-0.5,0.7-0.5c0.3,0.1,0.5,0.3,0.4,0.6
					C178.9,121.7,178.6,121.8,178.4,121.8z"/>
			</g>
			<g>
				<path class="st148" d="M175.7,39c-0.1,0.4-0.3,0.6-0.7,0.6c-0.4-0.1-0.6-0.4-0.5-0.8c0.1-0.3,0.3-0.5,0.7-0.5
					C175.5,38.3,175.7,38.6,175.7,39z"/>
			</g>
			<g>
				<path class="st148" d="M175.7,79.5c-0.1,0.4-0.3,0.6-0.7,0.6c-0.4,0-0.6-0.3-0.6-0.7c0-0.3,0.3-0.5,0.6-0.5
					C175.5,78.8,175.7,79.1,175.7,79.5z"/>
			</g>
			<g>
				<path class="st148" d="M175.1,120.5c-0.5-0.1-0.7-0.3-0.6-0.7c0.1-0.4,0.4-0.6,0.8-0.5c0.3,0.1,0.5,0.3,0.5,0.7
					C175.7,120.3,175.4,120.5,175.1,120.5z"/>
			</g>
			<g>
				<path class="st148" d="M177.5,51.3c0-0.4,0.2-0.7,0.6-0.7c0.4,0,0.6,0.2,0.6,0.6c0,0.4-0.2,0.6-0.6,0.6
					C177.7,51.8,177.5,51.5,177.5,51.3z"/>
			</g>
			<g>
				<path class="st148" d="M174.7,109.1c0.1-0.5,0.3-0.7,0.7-0.7c0.4,0,0.6,0.3,0.6,0.7c0,0.3-0.3,0.5-0.6,0.5
					C174.9,109.7,174.8,109.4,174.7,109.1z"/>
			</g>
			<g>
				<path class="st148" d="M178.6,70.5c-0.5-0.1-0.6-0.3-0.6-0.7c0.1-0.4,0.3-0.5,0.7-0.5c0.3,0.1,0.5,0.3,0.4,0.6
					C179.2,70.3,178.9,70.5,178.6,70.5z"/>
			</g>
			<g>
				<path class="st148" d="M178.1,110.3c0.1-0.4,0.3-0.5,0.7-0.5c0.4,0.1,0.5,0.3,0.5,0.7c-0.1,0.3-0.3,0.5-0.6,0.4
					C178.2,110.9,178,110.7,178.1,110.3z"/>
			</g>
			<g>
				<path class="st148" d="M178,91.1c0.5,0,0.7,0.2,0.7,0.6c0,0.4-0.2,0.6-0.6,0.6c-0.4,0-0.6-0.2-0.6-0.6
					C177.5,91.2,177.8,91.1,178,91.1z"/>
			</g>
			<g>
				<path class="st148" d="M178.4,81.4c-0.4,0-0.6-0.2-0.6-0.6c0-0.4,0.2-0.6,0.6-0.6c0.3,0,0.5,0.2,0.5,0.5
					C178.9,81.1,178.8,81.3,178.4,81.4z"/>
			</g>
			<g>
				<path class="st148" d="M180,88.4c0,0.3-0.2,0.5-0.5,0.5c-0.4,0-0.6-0.2-0.6-0.5c0-0.3,0.2-0.5,0.5-0.5
					C179.7,87.8,180,88,180,88.4z"/>
			</g>
			<g>
				<path class="st148" d="M180,44.6c0-0.3,0.2-0.5,0.5-0.5c0.4,0,0.6,0.2,0.5,0.6c0,0.3-0.3,0.5-0.6,0.4
					C180.2,45.2,180,45,180,44.6z"/>
			</g>
			<g>
				<path class="st148" d="M179.7,55.6c0-0.3,0.2-0.6,0.5-0.6c0.3,0,0.5,0.2,0.5,0.5c0,0.4-0.2,0.6-0.5,0.6
					C179.9,56.1,179.8,55.9,179.7,55.6z"/>
			</g>
			<g>
				<path class="st148" d="M180.3,96.5c-0.3,0-0.6-0.2-0.5-0.6c0-0.3,0.2-0.5,0.5-0.5c0.4,0,0.6,0.2,0.6,0.6
					C180.8,96.3,180.6,96.5,180.3,96.5z"/>
			</g>
			<g>
				<path class="st148" d="M179.4,66.6c0.1-0.4,0.3-0.6,0.6-0.5c0.3,0,0.5,0.2,0.4,0.6c0,0.4-0.3,0.6-0.6,0.5
					C179.6,67.1,179.4,66.9,179.4,66.6z"/>
			</g>
			<g>
				<path class="st148" d="M180,107.7c-0.4-0.1-0.6-0.2-0.6-0.5c0-0.4,0.2-0.6,0.6-0.6c0.4,0,0.5,0.3,0.5,0.6
					C180.5,107.5,180.2,107.6,180,107.7z"/>
			</g>
			<g>
				<path class="st148" d="M179.2,37c0-0.3,0.2-0.6,0.6-0.5c0.3,0,0.5,0.2,0.5,0.5c0,0.4-0.2,0.6-0.6,0.5
					C179.4,37.6,179.2,37.4,179.2,37z"/>
			</g>
			<g>
				<path class="st148" d="M179.7,78.1c-0.3-0.1-0.5-0.2-0.5-0.5c0-0.4,0.2-0.6,0.6-0.5c0.3,0,0.5,0.2,0.5,0.5
					C180.2,77.9,180,78.1,179.7,78.1z"/>
			</g>
			<g>
				<path class="st148" d="M179.2,118c0-0.3,0.2-0.5,0.5-0.5c0.4,0,0.6,0.2,0.6,0.6c0,0.4-0.3,0.6-0.6,0.5
					C179.3,118.5,179.2,118.3,179.2,118z"/>
			</g>
			<g>
				<path class="st148" d="M178.9,47.9c0-0.4,0.2-0.6,0.6-0.5c0.3,0,0.5,0.2,0.5,0.5c0,0.4-0.2,0.6-0.6,0.5
					C179.1,48.4,178.9,48.2,178.9,47.9z"/>
			</g>
			<g>
				<path class="st148" d="M140.6,94.6c-0.2,0-0.4,0-0.5-0.3c-0.7-0.4-1.1-1-1.1-1.9c0.1-0.2,0.2-0.4,0.3-0.6
					c0.5-0.8,1.1-1.3,2.2-0.8c0.9,0.6,1.4,1.4,0.9,2.5C142.2,94.6,141.3,94.5,140.6,94.6z"/>
			</g>
			<g>
				<path class="st148" d="M140.8,83.8c-0.2-0.1-0.3-0.2-0.5-0.2c-0.7-0.4-1.1-1-1.1-1.9c0.1-0.3,0.6-0.5,0.3-0.9
					c0.6-0.6,1.3-1.1,2.2-0.5c0.9,0.6,1.4,1.3,0.9,2.4C142.2,83.4,141.3,83.3,140.8,83.8z"/>
			</g>
			<g>
				<path class="st148" d="M140.6,54.2c-0.2,0-0.4,0-0.5-0.3c-0.7-0.4-1.1-1-1.1-1.9c0.1-0.2,0.2-0.4,0.3-0.6
					c0.9-1.2,1.4-1.3,2.4-0.6c0.7,0.5,0.9,1.2,0.8,2C142.3,53.9,141.5,54.1,140.6,54.2z"/>
			</g>
			<g>
				<path class="st148" d="M140.8,43.3c-0.2-0.1-0.3-0.2-0.5-0.2c-0.7-0.4-1.1-1-1.1-1.9c0.1-0.3,0.6-0.5,0.3-0.9
					c0.6-0.6,1.3-1.1,2.2-0.5c0.9,0.6,1.4,1.3,0.9,2.4C142.2,42.9,141.3,42.8,140.8,43.3z"/>
			</g>
			<g>
				<path class="st148" d="M141.1,102.2c0.9,0.6,1.4,1.3,0.9,2.5c-0.1,1-1,0.9-1.7,1.1c-0.2,0-0.4,0-0.5-0.3
					c-0.7-0.6-1.5-1.1-0.8-2.2l0,0C139.6,102,139.8,101.9,141.1,102.2L141.1,102.2z"/>
			</g>
			<g>
				<path class="st148" d="M141.1,61.8c0.8,0.6,1.4,1.4,0.9,2.5c-0.1,1.1-1,0.9-1.7,1.1c-0.2,0-0.4,0-0.5-0.3
					c-0.7-0.6-1.5-1.1-0.8-2.2l0,0C139.6,61.5,139.8,61.4,141.1,61.8z"/>
			</g>
			<g>
				<path class="st148" d="M141.7,39.5c-0.7-0.6-0.9-1.3-0.6-2.2c1.5-1.2,2.5-0.9,3,1C143.6,39.5,142.9,39.9,141.7,39.5z"/>
			</g>
			<g>
				<path class="st148" d="M140.9,77.5c0.7,0.1,1.2-0.7,1.9-0.6c0.9,0.4,1.5,1.1,1.3,2.2c-0.6,0.9-1.3,1.3-2.4,0.9
					c-0.7-0.4-0.6-1.2-1.1-1.7C140.7,78.1,140.8,77.8,140.9,77.5z"/>
			</g>
			<g>
				<path class="st148" d="M141.6,75.3c-0.5,0.3-1.1,0.6-1.6,0.8c-0.2,0-0.4,0-0.5-0.3c-0.4-0.7-1-1.3-0.8-2.2
					c0.5-0.8,1.2-1.2,2.2-1.1C141.9,73.3,142.3,74.2,141.6,75.3z"/>
			</g>
		</g>
	</g>
	<g>
		<path class="st166" d="M19.2,22.5H152c6.6,0,12,5.4,12,12v63.6c0,6.6-5.4,12-12,12H19.2c-6.6,0-12-5.4-12-12V34.5
			C7.2,27.9,12.6,22.5,19.2,22.5z"/>
	</g>
	<g>
		<g>
			<path d="M27.3,121.2c-0.1,0-0.1,0-0.2-0.1c-0.1-0.1-0.1-0.3,0-0.4L48.5,95c0.1-0.1,0.3-0.1,0.4,0c0.1,0.1,0.1,0.3,0,0.4
				l-21.4,25.7C27.4,121.1,27.3,121.2,27.3,121.2z"/>
		</g>
		<g>
			<path d="M33.1,121.2c-0.1,0-0.1,0-0.2-0.1c-0.1-0.1-0.1-0.3,0-0.4L54.4,95c0.1-0.1,0.3-0.1,0.4,0c0.1,0.1,0.1,0.3,0,0.4
				l-21.4,25.7C33.3,121.1,33.2,121.2,33.1,121.2z"/>
		</g>
		<g>
			<path d="M38,121.2c-0.1,0-0.1,0-0.2-0.1c-0.1-0.1-0.1-0.3,0-0.4L59.3,95c0.1-0.1,0.3-0.1,0.4,0c0.1,0.1,0.1,0.3,0,0.4l-21.4,25.7
				C38.2,121.1,38.1,121.2,38,121.2z"/>
		</g>
		<g>
			<path d="M43.9,121.2c-0.1,0-0.1,0-0.2-0.1c-0.1-0.1-0.1-0.3,0-0.4L65.1,95c0.1-0.1,0.3-0.1,0.4,0c0.1,0.1,0.1,0.3,0,0.4
				l-21.4,25.7C44.1,121.1,44,121.2,43.9,121.2z"/>
		</g>
		<g>
			<path d="M5.8,121.2c-0.1,0-0.1,0-0.2-0.1c-0.1-0.1-0.1-0.3,0-0.4L27.1,95c0.1-0.1,0.3-0.1,0.4,0c0.1,0.1,0.1,0.3,0,0.4L6,121.1
				C6,121.1,5.9,121.2,5.8,121.2z"/>
		</g>
		<g>
			<path d="M11.7,121.2c-0.1,0-0.1,0-0.2-0.1c-0.1-0.1-0.1-0.3,0-0.4L32.9,95c0.1-0.1,0.3-0.1,0.4,0c0.1,0.1,0.1,0.3,0,0.4
				l-21.4,25.7C11.8,121.1,11.8,121.2,11.7,121.2z"/>
		</g>
		<g>
			<path d="M16.6,121.2c-0.1,0-0.1,0-0.2-0.1c-0.1-0.1-0.1-0.3,0-0.4L37.9,95c0.1-0.1,0.3-0.1,0.4,0c0.1,0.1,0.1,0.3,0,0.4
				l-21.4,25.7C16.8,121.1,16.7,121.2,16.6,121.2z"/>
		</g>
		<g>
			<path d="M22.5,121.2c-0.1,0-0.1,0-0.2-0.1c-0.1-0.1-0.1-0.3,0-0.4L43.7,95c0.1-0.1,0.3-0.1,0.4,0c0.1,0.1,0.1,0.3,0,0.4
				l-21.4,25.7C22.6,121.1,22.6,121.2,22.5,121.2z"/>
		</g>
	</g>
	<g>
		<g>
			<path d="M149.2,36.2c-0.1,0-0.1,0-0.2-0.1c-0.1-0.1-0.1-0.3,0-0.4l18.3-21.9c0.1-0.1,0.3-0.1,0.4,0c0.1,0.1,0.1,0.3,0,0.4
				l-18.3,21.9C149.4,36.2,149.3,36.2,149.2,36.2z"/>
		</g>
		<g>
			<path d="M153.8,36.7c-0.1,0-0.1,0-0.2-0.1c-0.1-0.1-0.1-0.3,0-0.4l15.8-18.9c0.1-0.1,0.3-0.1,0.4,0c0.1,0.1,0.1,0.3,0,0.4
				L154,36.7C153.9,36.7,153.9,36.7,153.8,36.7z"/>
		</g>
		<g>
			<path d="M157.4,37.4c-0.1,0-0.1,0-0.2-0.1c-0.1-0.1-0.1-0.3,0-0.4l13-15.6c0.1-0.1,0.3-0.1,0.4,0c0.1,0.1,0.1,0.3,0,0.4l-13,15.6
				C157.6,37.4,157.5,37.4,157.4,37.4z"/>
		</g>
		<g>
			<path d="M161.7,38.3c-0.1,0-0.1,0-0.2-0.1c-0.1-0.1-0.1-0.3,0-0.4l9.9-11.9c0.1-0.1,0.3-0.1,0.4,0c0.1,0.1,0.1,0.3,0,0.4
				l-9.9,11.9C161.8,38.3,161.8,38.3,161.7,38.3z"/>
		</g>
		<g>
			<path d="M141.1,24.1c-0.1,0-0.1,0-0.2-0.1c-0.1-0.1-0.1-0.3,0-0.4l8.1-9.8c0.1-0.1,0.3-0.1,0.4,0c0.1,0.1,0.1,0.3,0,0.4l-8.1,9.8
				C141.2,24,141.2,24.1,141.1,24.1z"/>
		</g>
		<g>
			<path d="M146,24.8c-0.1,0-0.1,0-0.2-0.1c-0.1-0.1-0.1-0.2,0-0.4l7.8-10c0.1-0.1,0.2-0.1,0.4,0c0.1,0.1,0.1,0.2,0,0.4l-7.8,10
				C146.2,24.8,146.1,24.8,146,24.8z"/>
		</g>
		<g>
			<path d="M147.2,27.8c-0.1,0-0.1,0-0.2-0.1c-0.1-0.1-0.1-0.3,0-0.4l11.3-13.5c0.1-0.1,0.3-0.1,0.4,0c0.1,0.1,0.1,0.3,0,0.4
				l-11.3,13.5C147.3,27.8,147.2,27.8,147.2,27.8z"/>
		</g>
		<g>
			<path d="M147.7,33.2c-0.1,0-0.1,0-0.2-0.1c-0.1-0.1-0.1-0.3,0-0.4l15.7-18.9c0.1-0.1,0.3-0.1,0.4,0c0.1,0.1,0.1,0.3,0,0.4
				l-15.7,18.9C147.9,33.1,147.8,33.2,147.7,33.2z"/>
		</g>
	</g>
</g>
</svg>
