<?xml version="1.0" encoding="utf-8"?>
<!-- Generator: Adobe Illustrator 23.0.1, SVG Export Plug-In . SVG Version: 6.00 Build 0)  -->
<svg version="1.1" id="Layer_1" xmlns="http://www.w3.org/2000/svg" xmlns:xlink="http://www.w3.org/1999/xlink" x="0px" y="0px"
	 viewBox="0 0 180 180" style="enable-background:new 0 0 180 180;" xml:space="preserve">
<style type="text/css">
	.st0{fill:#E11B4E;}
	.st1{fill:#EAA820;}
	.st2{fill:none;stroke:#000000;stroke-miterlimit:10;}
	.st3{fill:#EAA820;stroke:#000000;stroke-miterlimit:10;}
	.st4{fill:#FFFFFF;}
	.st5{fill:#0B0B0B;}
	.st6{fill:#222223;}
	.st7{fill:#1C1B1C;}
	.st8{fill:#0E0E0E;}
	.st9{fill:#1A1A1B;}
	.st10{fill:#F1F1F2;}
	.st11{fill:#39383A;}
	.st12{fill:#EDEDEE;}
	.st13{fill:#2E2D2F;}
	.st14{fill:#3F3E40;}
	.st15{fill:#E6E7E8;}
	.st16{fill:#EAEAEB;}
	.st17{fill:#EAEBEC;}
	.st18{fill:#E4E5E6;}
	.st19{fill:#E9EAEB;}
	.st20{fill:#282728;}
	.st21{fill:#424143;}
	.st22{fill:#E6E6E7;}
	.st23{fill:#DDDEE0;}
	.st24{fill:#DDDEDF;}
	.st25{fill:#D8D9DB;}
	.st26{fill:#373738;}
	.st27{fill:#DEDFE1;}
	.st28{fill:#383738;}
	.st29{fill:#171718;}
	.st30{fill:#161616;}
	.st31{fill:#1E1D1E;}
	.st32{fill:#1B1B1C;}
	.st33{fill:#1A191A;}
	.st34{fill:#171617;}
	.st35{fill:#181818;}
	.st36{fill:#161617;}
	.st37{fill:#151516;}
	.st38{fill:#1C1C1D;}
	.st39{fill:#151415;}
	.st40{fill:#121213;}
	.st41{fill:#0F0F10;}
	.st42{fill:#101011;}
	.st43{fill:#141415;}
	.st44{fill:#171717;}
	.st45{fill:#101010;}
	.st46{fill:#111112;}
	.st47{fill:#131314;}
	.st48{fill:#1E1E1F;}
	.st49{fill:#212021;}
	.st50{fill:#232324;}
	.st51{fill:#121112;}
	.st52{fill:#141414;}
	.st53{fill:#262526;}
	.st54{fill:#0E0D0E;}
	.st55{fill:#222222;}
	.st56{fill:#0C0C0D;}
	.st57{fill:#181819;}
	.st58{fill:#1B1A1B;}
	.st59{fill:#1D1D1E;}
	.st60{fill:#0F0F0F;}
	.st61{fill:#131313;}
	.st62{fill:#1F1E1F;}
	.st63{fill:#212122;}
	.st64{fill:#272728;}
	.st65{fill:#2C2B2D;}
	.st66{fill:#2A292A;}
	.st67{fill:#F6F6F7;}
	.st68{fill:#F3F4F4;}
	.st69{fill:#F1F2F2;}
	.st70{fill:#F2F2F3;}
	.st71{fill:#302F31;}
	.st72{fill:#191919;}
	.st73{fill:#323233;}
	.st74{fill:#F5F6F6;}
	.st75{fill:#F0F1F1;}
	.st76{fill:#EFF0F1;}
	.st77{fill:#F5F5F6;}
	.st78{fill:#EFEFF0;}
	.st79{fill:#1C1C1C;}
	.st80{fill:#232223;}
	.st81{fill:#212121;}
	.st82{fill:#F0F1F2;}
	.st83{fill:#3B3A3C;}
	.st84{fill:#343435;}
	.st85{fill:#282829;}
	.st86{fill:#3E3E40;}
	.st87{fill:#F4F5F5;}
	.st88{fill:#EEEFF0;}
	.st89{fill:#48484A;}
	.st90{fill:#3E3D3F;}
	.st91{fill:#464547;}
	.st92{fill:#434345;}
	.st93{fill:#202021;}
	.st94{fill:#151515;}
	.st95{fill:#0D0D0D;}
	.st96{fill:#0B0B0C;}
	.st97{fill:#0B0A0B;}
	.st98{fill:#383739;}
	.st99{fill:#323133;}
	.st100{fill:#2D2D2E;}
	.st101{fill:#242324;}
	.st102{fill:#202020;}
	.st103{fill:#39393A;}
	.st104{fill:#434244;}
	.st105{fill:#474748;}
	.st106{fill:#49494B;}
	.st107{fill:#4F4F51;}
	.st108{fill:#333334;}
	.st109{fill:#242425;}
	.st110{fill:#292829;}
	.st111{fill:#2F2E30;}
	.st112{fill:#363537;}
	.st113{fill:#3D3D3E;}
	.st114{fill:#424244;}
	.st115{fill:#111111;}
	.st116{fill:#414142;}
	.st117{fill:#4D4D4F;}
	.st118{fill:#616264;}
	.st119{fill:#57575A;}
	.st120{fill:#76777A;}
	.st121{fill:#6B6D6F;}
	.st122{fill:#131213;}
	.st123{fill:#F0F0F1;}
	.st124{fill:#F3F3F4;}
	.st125{fill:#E8E9EA;}
	.st126{fill:#ECEDED;}
	.st127{fill:#F5F5F5;}
	.st128{fill:#E7E7E8;}
	.st129{fill:#ECEDEE;}
	.st130{fill:#EBEBEC;}
	.st131{fill:#E8E8E9;}
	.st132{fill:#EEEFEF;}
	.st133{fill:#EFF0F0;}
	.st134{fill:#EBECEC;}
	.st135{fill:#727476;}
	.st136{fill:#6C6D70;}
	.st137{fill:#626366;}
	.st138{fill:#A9ABAD;}
	.st139{fill:#999B9E;}
	.st140{fill:#757779;}
	.st141{fill:#8C8E91;}
	.st142{fill:#848689;}
	.st143{fill:#A7A9AB;}
	.st144{fill:none;}
	.st145{fill:#00BEEC;}
	.st146{fill:#EBAF1F;}
	.st147{clip-path:url(#SVGID_2_);}
	.st148{fill:#F05225;}
	.st149{clip-path:url(#SVGID_4_);}
	.st150{fill:#69CCE7;}
	.st151{fill:#EE2F7A;}
	.st152{fill:none;stroke:#000000;stroke-width:0.5;stroke-linecap:round;stroke-miterlimit:10;}
	.st153{clip-path:url(#SVGID_6_);}
	.st154{clip-path:url(#SVGID_8_);}
	.st155{fill:none;stroke:#000000;stroke-width:4;stroke-miterlimit:10;}
	.st156{clip-path:url(#SVGID_10_);}
	.st157{clip-path:url(#SVGID_12_);}
	.st158{fill:#EBA921;}
	.st159{clip-path:url(#SVGID_14_);}
	.st160{clip-path:url(#SVGID_16_);}
	.st161{clip-path:url(#SVGID_18_);}
	.st162{clip-path:url(#SVGID_20_);}
	.st163{fill:#F16EA1;}
	.st164{clip-path:url(#SVGID_22_);}
	.st165{clip-path:url(#SVGID_24_);}
	.st166{fill:#5ABA47;}
	.st167{fill:#F26522;}
	.st168{fill:#3AC0C7;}
	.st169{fill:#EE4297;}
	.st170{fill:#3B50A3;}
	.st171{fill:#00B9B6;}
	.st172{fill:#FFC214;}
	.st173{clip-path:url(#SVGID_26_);}
	.st174{fill:#FDB92D;}
	.st175{clip-path:url(#SVGID_28_);}
	.st176{fill:#ED1E25;}
	.st177{clip-path:url(#SVGID_30_);}
	.st178{fill:#ED2085;}
	.st179{clip-path:url(#SVGID_32_);}
	.st180{clip-path:url(#SVGID_34_);}
	.st181{fill:#D0DD28;}
	.st182{fill:#E1A225;}
	.st183{fill:#B81F69;}
	.st184{fill:#010101;}
	.st185{fill:#EC2227;}
	.st186{fill:#F26249;}
	.st187{fill:#231F20;}
	.st188{fill:#C4D5DD;}
	.st189{fill:#D5E7F0;}
	.st190{fill:#CC2027;}
	.st191{fill:#9A1E21;}
	.st192{fill:#F26724;}
	.st193{fill:#B92025;}
	.st194{fill:#DCDDDE;}
	.st195{fill:#EAEAEA;}
</style>
<g>
	<path class="st184" d="M73.8,2.9c0.2,0,0.4,0.2,0.4,0.4c0,0.3-0.2,0.4-0.4,0.4c-0.3,0-0.5-0.2-0.4-0.5C73.3,3,73.5,2.9,73.8,2.9z"
		/>
	<path class="st184" d="M105.8,3.1c-0.3-0.1-0.5-0.3-0.4-0.5c0.1-0.2,0.2-0.4,0.5-0.3c0.2,0.1,0.3,0.2,0.3,0.4
		C106.2,2.9,106,3,105.8,3.1z"/>
	<path class="st184" d="M100,1.5c-0.1,0.3-0.2,0.5-0.5,0.5c-0.2,0-0.3-0.2-0.4-0.3c0-0.3,0.1-0.4,0.4-0.5C99.8,1.1,99.9,1.3,100,1.5
		z"/>
	<path class="st184" d="M93.3,0.8c-0.2-0.1-0.4-0.2-0.4-0.5c0-0.2,0.2-0.4,0.5-0.3c0.2,0,0.3,0.2,0.3,0.4
		C93.7,0.7,93.6,0.8,93.3,0.8z"/>
	<path class="st184" d="M112.5,3.7c-0.1,0.3-0.2,0.5-0.4,0.5c-0.2,0-0.3-0.2-0.4-0.3c-0.1-0.3,0.1-0.4,0.4-0.5
		C112.3,3.3,112.4,3.5,112.5,3.7z"/>
	<path class="st184" d="M104,88.9c1.3,0.7,2.1,1.7,2,3.2c-0.1,1.2-0.8,2.1-1.9,2.6c-0.1,0.1-0.3,0-0.4,0.1c-0.6,0.1-1.3,0.3-1.9,0.1
		c-0.8-0.2-1.3-0.7-1.7-1.3c-0.3-0.5-0.4-0.5-0.9-0.2c-0.9,0.6-1.2,1.1-0.4,2c0.2,0.2,0.3,0.6,0.3,0.9c0,0.6,0.1,1.3-0.2,1.9
		c-0.6,1.3-1.6,2-2.9,2c-0.5,0-0.9,0-1.4-0.2c-1-0.3-1.7-1-2.1-1.9c-1.3,0.7-2.2,1.5-0.9,2.9c0.2,0.3,0.1,0.7,0,1.1
		c-0.1,0.3-0.2,0.5-0.4,0.7c-0.5,1.4-1.5,2.2-2.9,2.2c-1.5,0-2.5-0.9-3.2-2.8c-0.9,1.3-2.1,2-3.7,1.6c-1.6-0.5-2.2-1.6-2.3-3.2
		c-0.3-1.2,0.5-2,1.3-2.5c0.5-0.4,0.7-0.6,0.2-1.1c-0.4-0.4-0.6-1-0.6-1.6c0-0.6,0-1.2,0.2-1.8c0.2-0.7,0.7-1.2,1.3-1.6
		c0.4-0.3,0.5-0.6,0.1-0.9c-0.2-0.2-0.4-0.5-0.5-0.7c-0.2-0.4-0.4-0.4-0.8-0.1c-0.7,0.5-1.4,0.9-2.3,0.6c-0.3-0.1-0.5-0.2-0.7-0.4
		c-1.5-0.5-2.4-1.7-2.2-3.3c0.2-1.6,1.4-2.7,3.3-2.8c0.3-0.1,0.5,0,0.8,0c0.8,0.1,1.3,0.6,1.8,1.3c0.7,1,1-0.1,1.5-0.2
		c0.6-0.2,0.4-0.6,0.1-0.9c-0.4-0.6-0.7-1.2-0.6-2c0-0.5,0-0.9,0.2-1.3c0.4-1.3,1.3-1.9,2.6-2.2c0.6,0,1.3-0.1,1.9,0.2
		c1,0.4,1.6,1.1,2,2.2c0.6-0.6,1.3-1.1,2.2-1.3c-0.8-0.6-1.3-1.3-1.3-2.3c0-0.4,0-0.8,0.3-1.2c0.4-1.4,1.4-2.3,2.8-2.4
		c1.3-0.1,2.6,0.8,3,2.1c0.1,0.4,0.2,0.8,0.2,1.2c0.2,1.6-0.9,2.3-2.1,3.1c0.6,0.5,1,1.1,1.3,1.9c0.7-0.7,1.5-1.2,2.5-1.3
		c0.6,0,1.2-0.1,1.6,0.5c1,0.5,1.6,1.3,1.8,2.5c0.3,0.6,0.2,1.1,0,1.7c-0.3,1-1.1,1.6-2.1,2.1c0.6,0.6,1.1,1.2,1.3,2
		C101.8,88.3,102.9,88.1,104,88.9z"/>
	<path class="st184" d="M77.3,90.2c0.3,0,0.5-0.1,0.7,0.2c1.5,0.4,2.2,1.4,2.4,2.9c-0.3,0.7-0.1,1.4-0.2,2.1c-0.5,0-0.6,0.5-0.9,0.7
		c-1.1,0.9-2.3,1-3.3,0.4c-1.5-1-2.2-2.1-1.9-3.4c0.3-1.6,1.3-2.4,2.9-2.6C77.1,90.4,77.2,90.4,77.3,90.2z"/>
	<path class="st184" d="M94.4,99.6c0.5,0.1,1,0.1,1.5,0.2c1,0.6,1.7,1.4,1.9,2.6c0.1,0.6,0.1,1.2-0.4,1.6c-0.7,1.3-1.7,2.1-3.2,1.9
		c-1.2-0.1-2.1-0.8-2.6-2c-0.2-0.4,0-1-0.5-1.3c0-0.3-0.1-0.5,0.2-0.7C91.8,100.5,92.8,99.7,94.4,99.6z"/>
	<path class="st184" d="M79.1,84.4c-0.3,0-0.5,0.1-0.7-0.2C77,83.6,76,82.6,76,80.9c-0.1-0.3,0-0.5,0.2-0.7c0.7-1.7,1.6-2.2,3.6-2.1
		c1.5,0,2.5,1.1,2.7,3c-0.1,0.5-0.1,1-0.2,1.5C81.5,83.7,80.5,84.4,79.1,84.4z"/>
	<path class="st184" d="M101.6,94.5c0.7,0.2,1.4,0.2,2.1,0.2c-0.2,0.1-0.4,0.2-0.6,0.3c1.5,1,2,2.1,1.7,3.5
		c-0.4,1.5-1.4,2.2-3.3,2.4c-1.6-0.1-2.4-0.8-2.8-2.5c0.2-0.6,0.1-1.3,0.2-1.9C99.2,95.1,100.5,94.9,101.6,94.5z"/>
	<path class="st184" d="M83.5,75.1c0.9-1.7,2-2.4,3.5-2.1c1.6,0.3,2.3,1.3,2.5,3.4c0,0.1,0,0.1,0,0.2c-0.3,1.6-0.9,2.2-2.6,2.5
		c-0.6-0.2-1.3-0.1-1.9-0.2C83.4,78.1,82.7,76.4,83.5,75.1z"/>
	<path class="st184" d="M101.3,84.2c0.7-1.2,1.7-1.8,3.1-1.6c1.2,0.2,2,0.9,2.4,2c0.4,1.2,0.1,2.3-0.8,3.2c-0.6,0.6-1.3,0.7-2.1,0.9
		c-2.3-0.3-2.8-0.7-3.2-2.5C101,85.5,100.8,84.8,101.3,84.2z"/>
	<path class="st184" d="M96,77.3c0.6-1.4,1.6-2.2,3.2-2.1c1.5,0.1,2.5,1.2,2.7,2.6c0.2,1.5-0.6,2.7-2.3,3.3c-0.7,0.2-1.3,0.1-2,0
		C96,80.4,95.4,79.1,96,77.3z"/>
	<path class="st184" d="M78.9,100.5c-0.4,1.1-1.1,2-2.4,2.2c-1.5,0.3-2.9-0.6-3.3-2c-0.5-1.4,0.2-2.9,1.5-3.6
		c0.2-0.1,0.4-0.2,0.6-0.3c1.1-0.2,2.1-0.2,3,0.7C79.1,98.4,79.3,99.4,78.9,100.5z"/>
	<path class="st184" d="M74.8,86.2c0,1.6-1.2,2.9-2.8,2.9c-1.6,0-3-1.3-3-2.9c0-1.6,1.3-2.9,2.9-2.9C73.5,83.3,74.8,84.6,74.8,86.2z
		"/>
	<path class="st184" d="M90.2,108.1c0,1.6-1.3,2.9-2.9,2.9c-1.6,0-2.9-1.3-2.9-3c0-1.6,1.3-2.8,2.9-2.8
		C89,105.2,90.2,106.5,90.2,108.1z"/>
	<path class="st184" d="M101.1,101.1c1.7,0.6,2.4,1.5,2.5,2.9c0,1.3-0.7,2.4-2,2.8c-1.7,0.6-3.1-0.3-3.9-2.3
		C97.3,102.2,99.1,100.4,101.1,101.1z"/>
	<path class="st184" d="M79.7,77.8c-1.7-0.6-2.4-1.5-2.5-2.9c0-1.3,0.7-2.4,2-2.8c1.7-0.6,3.1,0.3,3.9,2.3
		C83.5,76.8,81.8,78.4,79.7,77.8z"/>
	<path class="st184" d="M73.7,92.5c0,1.6-1.4,2.9-3,2.8c-1.6,0-2.9-1.4-2.8-3c0.1-1.5,1.4-2.8,2.9-2.8
		C72.4,89.6,73.7,90.9,73.7,92.5z"/>
	<path class="st184" d="M108,79.3c0,1.6-1.3,2.9-2.9,2.9s-2.9-1.3-2.9-2.9s1.3-2.9,2.9-2.9C106.7,76.4,108,77.7,108,79.3z"/>
	<path class="st184" d="M84,106.9c0,1.6-1.3,2.9-2.9,2.9c-1.6,0-2.9-1.4-2.9-2.9c0-1.5,1.3-2.8,2.9-2.8C82.6,104,84,105.4,84,106.9z
		"/>
	<path class="st184" d="M112,92.6c0,1.6-1.3,2.9-2.9,2.9c-1.5,0-2.8-1.3-2.9-2.8c0-1.6,1.3-2.9,2.9-2.9
		C110.7,89.8,112,91.1,112,92.6z"/>
	<path class="st184" d="M93.7,68c1.6,0,2.9,1.3,2.9,2.9c0,1.5-1.3,2.8-2.8,2.9c-1.6,0-2.9-1.3-2.9-2.9C90.9,69.3,92.2,68,93.7,68z"
		/>
	<path class="st184" d="M96.2,109.2c0,1.6-1.4,2.9-2.9,2.9c-1.5,0-2.8-1.4-2.8-2.9c0-1.6,1.4-2.9,2.9-2.9
		C94.9,106.3,96.2,107.6,96.2,109.2z"/>
	<path class="st184" d="M75.8,80.9c-0.7,1.5-2,2.2-3.3,1.9c-1.3-0.3-2.3-1.5-2.2-2.8c0-1.4,1-2.5,2.4-2.8c1.7-0.3,3.2,1,3.4,3.1
		C76.1,80.5,75.9,80.7,75.8,80.9z"/>
	<path class="st184" d="M113.1,86.6c0,1.5-1.3,2.8-2.8,2.9c-1.5,0-2.8-1.3-2.9-2.8c0-1.5,1.3-2.8,2.8-2.9
		C111.8,83.8,113.1,85.1,113.1,86.6z"/>
	<path class="st184" d="M102.9,71.9c0,1.5-1.3,2.8-2.8,2.8c-1.5,0-2.8-1.3-2.8-2.8c0-1.5,1.3-2.8,2.8-2.8
		C101.5,69.1,102.8,70.4,102.9,71.9z"/>
	<path class="st184" d="M90.4,69.7c0,1.5-1.3,2.9-2.8,2.9c-1.5,0-2.9-1.3-2.9-2.8c0-1.5,1.3-2.9,2.8-2.9
		C89,66.8,90.4,68.1,90.4,69.7z"/>
	<path class="st184" d="M110.9,98.9c0,1.5-1.3,2.8-2.8,2.8c-1.5,0-2.8-1.3-2.8-2.8c0-1.5,1.3-2.8,2.8-2.8
		C109.6,96.1,110.9,97.4,110.9,98.9z"/>
	<path class="st184" d="M76.9,73.7c0,1.6-1.2,2.7-2.7,2.7c-1.6,0-2.7-1.2-2.7-2.7c0-1.6,1.2-2.7,2.7-2.7
		C75.7,71,76.9,72.2,76.9,73.7z"/>
	<path class="st184" d="M77.6,105.9c0,1.5-1.3,2.7-2.8,2.7c-1.6,0-2.8-1.3-2.8-2.9c0.1-1.5,1.3-2.7,2.8-2.7
		C76.4,103.1,77.6,104.3,77.6,105.9z"/>
	<path class="st184" d="M69.7,95.9c1.5,0,2.8,1.2,2.8,2.7c0,1.6-1.2,2.8-2.8,2.8c-1.5,0-2.7-1.2-2.7-2.8
		C67,97.1,68.2,95.9,69.7,95.9z"/>
	<path class="st184" d="M111.4,77.7c1.5,0,2.7,1.2,2.6,2.7c0,1.5-1.2,2.7-2.8,2.7c-1.5,0-2.6-1.3-2.6-2.8
		C108.7,78.8,109.9,77.7,111.4,77.7z"/>
	<path class="st184" d="M84,68.6c0,1.6-1.2,2.7-2.7,2.7c-1.6,0-2.7-1.2-2.7-2.8c0-1.5,1.2-2.7,2.7-2.7C82.8,65.9,84,67,84,68.6z"/>
	<path class="st184" d="M109,73.1c0,1.5-1.2,2.7-2.7,2.7c-1.6,0-2.7-1.2-2.7-2.8c0-1.5,1.2-2.6,2.7-2.6
		C107.8,70.4,109,71.6,109,73.1z"/>
	<path class="st184" d="M109.7,105.2c0,1.6-1.2,2.7-2.8,2.7c-1.5,0-2.7-1.2-2.7-2.8c0-1.5,1.2-2.6,2.7-2.6
		C108.5,102.4,109.7,103.6,109.7,105.2z"/>
	<path class="st184" d="M99.5,113c-1.6,0-2.7-1.2-2.7-2.8c0-1.5,1.3-2.7,2.8-2.7c1.5,0,2.6,1.2,2.6,2.7
		C102.3,111.9,101.1,113,99.5,113z"/>
	<circle class="st184" cx="65.7" cy="85.1" r="2.7"/>
	<circle class="st184" cx="86.2" cy="114.3" r="2.7"/>
	<path class="st184" d="M94.9,115.4c0,1.5-1.3,2.7-2.7,2.7c-1.4,0-2.6-1.3-2.6-2.7c0-1.5,1.3-2.7,2.7-2.7
		C93.7,112.8,94.9,114,94.9,115.4z"/>
	<path class="st184" d="M66.8,81.5c-1.5,0-2.7-1.3-2.6-2.8c0.1-1.4,1.3-2.6,2.7-2.6c1.5,0,2.7,1.3,2.6,2.8
		C69.4,80.4,68.2,81.5,66.8,81.5z"/>
	<path class="st184" d="M67.3,91.3c0,1.5-1.3,2.7-2.7,2.7c-1.4,0-2.6-1.3-2.6-2.7c0-1.5,1.3-2.7,2.7-2.7
		C66.1,88.7,67.3,89.9,67.3,91.3z"/>
	<path class="st184" d="M79.9,110.5c1.5,0,2.7,1.2,2.7,2.7c0,1.4-1.2,2.6-2.6,2.7c-1.5,0-2.7-1.2-2.7-2.7
		C77.3,111.8,78.5,110.5,79.9,110.5z"/>
	<path class="st184" d="M112.8,93.8c0-1.4,1.2-2.6,2.6-2.6c1.4,0,2.7,1.3,2.7,2.7c0,1.4-1.3,2.6-2.7,2.6
		C114,96.4,112.8,95.2,112.8,93.8z"/>
	<path class="st184" d="M68.6,107.6c-1.4,0-2.6-1.2-2.6-2.6c0-1.5,1.3-2.7,2.7-2.7c1.4,0,2.6,1.3,2.6,2.7
		C71.2,106.4,70,107.6,68.6,107.6z"/>
	<path class="st184" d="M94.9,67.2c-1.4,0-2.6-1.2-2.7-2.6c0-1.5,1.2-2.7,2.7-2.7c1.4,0,2.6,1.3,2.6,2.7
		C97.5,66,96.3,67.2,94.9,67.2z"/>
	<path class="st184" d="M77.7,67.4c0,1.4-1.2,2.6-2.6,2.7c-1.4,0-2.6-1.2-2.6-2.6c0-1.4,1.2-2.6,2.5-2.6
		C76.4,64.8,77.6,66,77.7,67.4z"/>
	<path class="st184" d="M119.1,87.8c0,1.4-1.2,2.6-2.7,2.6c-1.4,0-2.6-1.3-2.6-2.7c0-1.4,1.2-2.5,2.6-2.5
		C117.9,85.1,119.1,86.4,119.1,87.8z"/>
	<path class="st184" d="M86,63.5c0-1.4,1.2-2.6,2.6-2.6c1.4,0,2.6,1.2,2.6,2.6c0,1.4-1.2,2.6-2.6,2.6C87.2,66.1,86,64.9,86,63.5z"/>
	<path class="st184" d="M103.8,65.7c0,1.4-1.2,2.6-2.6,2.6c-1.4,0-2.6-1.3-2.6-2.7c0-1.4,1.2-2.5,2.6-2.6
		C102.5,63.1,103.8,64.3,103.8,65.7z"/>
	<path class="st184" d="M114.4,97.4c1.4,0.1,2.6,1.3,2.5,2.7c-0.1,1.4-1.3,2.6-2.7,2.5c-1.4-0.1-2.6-1.3-2.5-2.7
		C111.7,98.5,113,97.3,114.4,97.4z"/>
	<path class="st184" d="M105.8,108.8c1.4,0,2.6,1.2,2.6,2.7c0,1.4-1.3,2.6-2.7,2.6c-1.4,0-2.5-1.2-2.5-2.6
		C103.2,110,104.4,108.8,105.8,108.8z"/>
	<path class="st184" d="M76.3,112.1c0,1.4-1.3,2.6-2.7,2.5c-1.4-0.1-2.5-1.2-2.5-2.6c0-1.4,1.3-2.6,2.7-2.5
		C75.2,109.5,76.3,110.7,76.3,112.1z"/>
	<path class="st184" d="M115.1,74.1c0,1.4-1.1,2.6-2.5,2.6c-1.4,0-2.6-1.1-2.6-2.6c0-1.4,1.1-2.5,2.5-2.6
		C113.9,71.6,115.1,72.7,115.1,74.1z"/>
	<path class="st184" d="M63.5,100.2c-1.4,0-2.6-1.2-2.6-2.6c0-1.4,1.1-2.5,2.5-2.6c1.4,0,2.6,1.2,2.6,2.6
		C66.1,99,64.9,100.1,63.5,100.2z"/>
	<path class="st184" d="M101,116.6c0,1.4-1.2,2.5-2.6,2.5c-1.5,0-2.6-1.2-2.5-2.6c0.1-1.4,1.2-2.5,2.6-2.4
		C100,114,101,115.2,101,116.6z"/>
	<path class="st184" d="M70.5,72.6c0,1.4-1.1,2.6-2.5,2.6c-1.5,0-2.6-1.1-2.6-2.6c0-1.4,1.1-2.5,2.5-2.5
		C69.3,70.1,70.5,71.2,70.5,72.6z"/>
	<path class="st184" d="M113.1,108.8c-1.4,0-2.5-1.2-2.5-2.6c0-1.4,1.2-2.5,2.6-2.4c1.4,0.1,2.4,1.2,2.4,2.5
		C115.7,107.7,114.6,108.8,113.1,108.8z"/>
	<path class="st184" d="M84.9,62.4c0,1.4-1.1,2.5-2.5,2.5c-1.4,0-2.5-1.1-2.5-2.6c0-1.4,1.1-2.5,2.5-2.5
		C83.8,59.8,84.9,60.9,84.9,62.4z"/>
	<path class="st184" d="M117.7,79c1.4,0,2.5,1.1,2.5,2.6c0,1.4-1.1,2.4-2.5,2.4c-1.4,0-2.5-1.1-2.5-2.6
		C115.2,80.1,116.3,79,117.7,79z"/>
	<path class="st184" d="M109.9,66.8c0,1.4-1,2.5-2.4,2.5c-1.4,0-2.6-1-2.6-2.5c0-1.4,1.1-2.5,2.5-2.5
		C108.8,64.3,109.9,65.4,109.9,66.8z"/>
	<path class="st184" d="M62.4,101.4c1.4,0,2.4,1.2,2.4,2.5c0,1.4-1.2,2.4-2.6,2.4c-1.3-0.1-2.4-1.1-2.3-2.5
		C59.9,102.4,61,101.3,62.4,101.4z"/>
	<path class="st184" d="M67.5,108.5c1.4,0,2.5,1.1,2.4,2.5c0,1.4-1.2,2.4-2.5,2.4c-1.3,0-2.4-1.1-2.4-2.4
		C65,109.6,66.1,108.5,67.5,108.5z"/>
	<path class="st184" d="M87.5,120.6c0,1.4-1.2,2.4-2.5,2.4c-1.4,0-2.4-1.2-2.4-2.6c0.1-1.3,1.2-2.4,2.5-2.3
		C86.5,118.1,87.6,119.2,87.5,120.6z"/>
	<path class="st184" d="M59.5,81.5c1.4,0,2.5,1.1,2.4,2.5c0,1.4-1.2,2.4-2.5,2.4c-1.3,0-2.4-1.1-2.4-2.5
		C57,82.6,58.1,81.5,59.5,81.5z"/>
	<path class="st184" d="M60.8,90.2c0,1.4-1.1,2.5-2.5,2.5c-1.3,0-2.4-1.1-2.4-2.4c0-1.4,1.1-2.5,2.5-2.5
		C59.7,87.8,60.8,88.9,60.8,90.2z"/>
	<path class="st184" d="M114.5,112.5c0,1.3-1.1,2.4-2.4,2.5c-1.3,0-2.5-1.1-2.5-2.4c0-1.3,1.1-2.4,2.4-2.4
		C113.4,110.1,114.5,111.2,114.5,112.5z"/>
	<path class="st184" d="M76.2,59c1.3,0,2.5,1.1,2.5,2.5c0,1.3-1.1,2.4-2.4,2.4c-1.3,0-2.5-1.1-2.5-2.5C73.8,60.1,74.9,59,76.2,59z"
		/>
	<path class="st184" d="M124.1,94.9c0,1.3-1.2,2.4-2.4,2.4c-1.3,0-2.5-1.2-2.4-2.5c0.1-1.3,1.2-2.4,2.5-2.3
		C123,92.5,124.1,93.7,124.1,94.9z"/>
	<path class="st184" d="M96.1,55.9c1.3,0,2.4,1.2,2.4,2.4c0,1.3-1.2,2.5-2.5,2.4c-1.3-0.1-2.4-1.2-2.3-2.5
		C93.6,57,94.8,55.9,96.1,55.9z"/>
	<path class="st184" d="M60.6,80.2c-1.3,0-2.5-1.1-2.5-2.5c0-1.3,1.1-2.4,2.4-2.4c1.3,0,2.5,1.1,2.5,2.5
		C63,79.1,61.9,80.2,60.6,80.2z"/>
	<path class="st184" d="M91.4,119.2c1.3,0,2.4,1.1,2.4,2.4c0,1.3-1.2,2.5-2.5,2.4c-1.3-0.1-2.4-1.2-2.3-2.5
		C89,120.3,90.1,119.2,91.4,119.2z"/>
	<path class="st184" d="M78.9,117c1.4,0,2.5,1.2,2.4,2.5c0,1.3-1.2,2.4-2.5,2.4c-1.4,0-2.5-1.2-2.4-2.5C76.5,118,77.6,117,78.9,117z
		"/>
	<path class="st184" d="M107.1,117.7c0,1.3-1.2,2.5-2.5,2.4c-1.3,0-2.4-1.2-2.4-2.5c0-1.3,1.2-2.5,2.5-2.4
		C106.1,115.2,107.2,116.4,107.1,117.7z"/>
	<path class="st184" d="M71.5,66.4c0,1.4-1.1,2.5-2.5,2.4c-1.3,0-2.4-1.1-2.4-2.4c0-1.4,1.1-2.5,2.5-2.4
		C70.4,64,71.5,65.1,71.5,66.4z"/>
	<path class="st184" d="M92.2,57.4c0,1.3-1.1,2.4-2.4,2.5c-1.3,0-2.4-1.1-2.5-2.4c0-1.3,1.1-2.4,2.4-2.5C91,55,92.2,56.1,92.2,57.4z
		"/>
	<path class="st184" d="M124.9,88.7c-0.1,1.3-1.2,2.4-2.5,2.3c-1.3-0.1-2.4-1.3-2.3-2.5c0.1-1.3,1.2-2.3,2.5-2.3
		C123.9,86.3,125,87.5,124.9,88.7z"/>
	<path class="st184" d="M113.6,65.5c1.3,0,2.4,1.1,2.4,2.4c0,1.3-1.1,2.4-2.4,2.4c-1.3,0-2.4-1.1-2.4-2.4
		C111.2,66.6,112.3,65.5,113.6,65.5z"/>
	<path class="st184" d="M120.6,103.5c-1.3,0-2.4-1.1-2.4-2.4c0-1.3,1.2-2.4,2.4-2.4c1.3,0,2.3,1.1,2.4,2.4
		C123,102.4,121.9,103.5,120.6,103.5z"/>
	<path class="st184" d="M118.5,72.9c1.3,0,2.4,1.1,2.5,2.4c0,1.3-1.1,2.4-2.4,2.5c-1.3,0-2.4-1.1-2.5-2.4
		C116.1,74,117.2,72.9,118.5,72.9z"/>
	<path class="st184" d="M72.6,120.7c-1.3,0-2.4-1.1-2.4-2.4c0-1.3,1.2-2.4,2.4-2.4c1.3,0,2.3,1.1,2.3,2.4
		C75,119.6,73.9,120.7,72.6,120.7z"/>
	<path class="st184" d="M104.7,59.5c0,1.3-1.2,2.4-2.4,2.4c-1.3,0-2.4-1.2-2.3-2.5c0.1-1.3,1.1-2.3,2.4-2.3
		C103.5,57.1,104.7,58.2,104.7,59.5z"/>
	<path class="st184" d="M59.6,96.4c0,1.3-1.1,2.4-2.4,2.4c-1.3,0-2.4-1.1-2.4-2.4c0-1.2,1.1-2.3,2.3-2.4
		C58.4,94,59.6,95.1,59.6,96.4z"/>
	<path class="st184" d="M64.1,71.5c0,1.3-1.1,2.3-2.3,2.4c-1.3,0-2.4-1.1-2.4-2.4c0-1.3,1.1-2.3,2.4-2.3
		C63,69.2,64.1,70.2,64.1,71.5z"/>
	<path class="st184" d="M99.7,122.8c0,1.3-1.1,2.3-2.4,2.3c-1.3,0-2.4-1.2-2.4-2.5c0.1-1.3,1.2-2.3,2.4-2.3
		C98.7,120.4,99.7,121.5,99.7,122.8z"/>
	<path class="st184" d="M56.1,105c-1.3,0-2.2-1-2.2-2.3c0-1.3,1-2.3,2.3-2.2c1.3,0,2.2,1,2.2,2.3C58.3,104,57.4,105,56.1,105z"/>
	<path class="st184" d="M123.7,80.4c1.3,0,2.3,1.1,2.2,2.4c-0.1,1.3-1.1,2.2-2.4,2.2c-1.3-0.1-2.2-1.1-2.1-2.4
		C121.4,81.3,122.4,80.3,123.7,80.4z"/>
	<path class="st184" d="M64.1,117.1c0-1.3,1-2.2,2.3-2.2c1.3,0,2.3,1.1,2.2,2.4c-0.1,1.3-1.1,2.2-2.4,2.1
		C65,119.4,64.1,118.4,64.1,117.1z"/>
	<path class="st184" d="M119.4,105.1c1.3,0,2.3,1,2.3,2.3c0,1.3-1.1,2.3-2.4,2.3c-1.3,0-2.2-1-2.2-2.3
		C117.1,106.1,118.1,105.1,119.4,105.1z"/>
	<path class="st184" d="M83.6,54c1.3,0,2.3,1,2.3,2.3s-1.1,2.3-2.3,2.3c-1.3,0-2.3-1-2.3-2.3S82.3,54,83.6,54z"/>
	<path class="st184" d="M110.8,60.6c0,1.3-1,2.3-2.3,2.3c-1.3,0-2.2-1-2.3-2.2c0-1.3,0.9-2.3,2.2-2.4
		C109.8,58.3,110.8,59.3,110.8,60.6z"/>
	<path class="st184" d="M62.8,67.7c-1.3,0-2.3-0.9-2.3-2.2c0-1.3,0.9-2.3,2.2-2.3c1.3,0,2.3,0.9,2.3,2.2
		C65.1,66.7,64.1,67.7,62.8,67.7z"/>
	<path class="st184" d="M63.5,109.8c0,1.3-1,2.3-2.3,2.3c-1.3,0-2.3-1-2.3-2.3c0-1.3,1-2.2,2.2-2.3
		C62.5,107.5,63.5,108.5,63.5,109.8z"/>
	<path class="st184" d="M70.1,62.6c-1.3,0-2.3-1-2.2-2.4c0-1.3,1-2.2,2.3-2.2c1.3,0,2.3,1,2.2,2.4C72.4,61.7,71.4,62.6,70.1,62.6z"
		/>
	<path class="st184" d="M113.2,118.9c-0.1,1.3-1.1,2.2-2.4,2.1c-1.3-0.1-2.2-1.1-2.1-2.4c0-1.3,1.1-2.2,2.4-2.1
		C112.4,116.6,113.3,117.6,113.2,118.9z"/>
	<path class="st184" d="M77.3,53c1.3,0,2.2,1,2.2,2.3c0,1.2-1,2.2-2.3,2.2c-1.2,0-2.2-1-2.2-2.2C75.1,54,76.1,53,77.3,53z"/>
	<path class="st184" d="M53.2,80.6c1.2,0,2.3,1,2.3,2.3c0,1.2-1,2.2-2.2,2.2c-1.2,0-2.3-1-2.3-2.3C51,81.6,52,80.7,53.2,80.6z"/>
	<path class="st184" d="M119.6,66.8c1.3,0,2.3,1,2.3,2.2c0,1.3-1,2.2-2.3,2.2c-1.2,0-2.2-1-2.2-2.2
		C117.4,67.8,118.4,66.8,119.6,66.8z"/>
	<path class="st184" d="M84,124.5c1.2,0,2.3,1,2.2,2.3c0,1.2-1,2.2-2.2,2.2c-1.2,0-2.3-1-2.2-2.3C81.8,125.5,82.8,124.6,84,124.5z"
		/>
	<path class="st184" d="M120.5,113.6c0,1.2-1,2.3-2.3,2.2c-1.2,0-2.2-1-2.2-2.2c0-1.2,1-2.3,2.3-2.2
		C119.6,111.4,120.5,112.4,120.5,113.6z"/>
	<path class="st184" d="M52.1,86.9c1.2,0,2.2,1.1,2.2,2.3c0,1.2-1,2.2-2.2,2.2c-1.2,0-2.2-1.1-2.2-2.3
		C49.9,87.9,50.9,86.9,52.1,86.9z"/>
	<path class="st184" d="M103.6,126.1c-1.3,0-2.2-1-2.2-2.3c0-1.3,1.1-2.2,2.3-2.2c1.2,0,2.1,1,2.1,2.2
		C105.8,125.2,104.8,126.1,103.6,126.1z"/>
	<path class="st184" d="M116.7,61.8c-0.1,1.2-1.1,2.2-2.4,2.1c-1.2-0.1-2.1-1.1-2.1-2.3c0.1-1.2,1.1-2.2,2.4-2.1
		C115.8,59.6,116.8,60.6,116.7,61.8z"/>
	<path class="st184" d="M77.8,123.4c1.2,0,2.2,1.1,2.2,2.3c0,1.2-1.1,2.2-2.2,2.1c-1.2,0-2.2-1.1-2.2-2.3
		C75.6,124.4,76.6,123.4,77.8,123.4z"/>
	<path class="st184" d="M124.8,78.6c-1.2,0-2.3-1-2.3-2.2c0-1.2,1-2.2,2.2-2.2c1.2,0,2.3,1,2.3,2.2C127,77.6,126,78.6,124.8,78.6z"
		/>
	<path class="st184" d="M99.3,52.4c0,1.2-1.1,2.2-2.2,2.2c-1.2,0-2.2-1.1-2.2-2.2c0-1.2,1.1-2.2,2.2-2.2
		C98.3,50.1,99.4,51.2,99.3,52.4z"/>
	<path class="st184" d="M90.3,125.7c1.2,0.1,2.2,1.1,2.1,2.3c0,1.2-1.1,2.2-2.4,2.2c-1.2-0.1-2.1-1.2-2.1-2.3
		C88.1,126.6,89.1,125.6,90.3,125.7z"/>
	<path class="st184" d="M56.6,76.7c0,1.2-1.1,2.2-2.2,2.2c-1.2,0-2.3-1.1-2.2-2.3c0.1-1.2,1.1-2.2,2.3-2.1
		C55.6,74.5,56.6,75.5,56.6,76.7z"/>
	<path class="st184" d="M126.6,89.7c0.1-1.2,1.2-2.2,2.3-2.1c1.1,0.1,2.1,1.1,2,2.3c-0.1,1.2-1.2,2.2-2.3,2.1
		C127.5,91.9,126.6,90.8,126.6,89.7z"/>
	<path class="st184" d="M60.2,118.2c-1.2,0-2.2-1-2.2-2.2c0-1.1,1-2.1,2.1-2.1c1.2,0,2.2,1,2.2,2.2
		C62.3,117.2,61.3,118.2,60.2,118.2z"/>
	<path class="st184" d="M71.5,126.7c-1.2,0-2.2-1.1-2.1-2.3c0.1-1.1,1.1-2.1,2.2-2.1c1.2,0,2.2,1.1,2.1,2.3
		C73.6,125.8,72.6,126.7,71.5,126.7z"/>
	<path class="st184" d="M55,106.8c1.2,0,2.2,1.1,2.1,2.2c0,1.1-1,2.1-2.2,2.1c-1.2,0-2.2-1.1-2.1-2.2
		C52.9,107.7,53.9,106.8,55,106.8z"/>
	<path class="st184" d="M98.4,129c0,1.2-1,2.2-2.2,2.2c-1.1,0-2.1-1-2.1-2.1c0-1.2,1-2.2,2.2-2.2C97.4,126.9,98.4,127.9,98.4,129z"
		/>
	<path class="st184" d="M103.4,51.3c1.2,0,2.2,1.1,2.2,2.2c0,1.2-1.1,2.2-2.3,2.1c-1.1,0-2.1-1.1-2.1-2.2
		C101.2,52.3,102.2,51.3,103.4,51.3z"/>
	<path class="st184" d="M57.6,70.4c0,1.2-1.1,2.2-2.2,2.1c-1.1,0-2.1-1-2.1-2.2c0-1.2,1.1-2.2,2.2-2.1
		C56.7,68.3,57.6,69.3,57.6,70.4z"/>
	<path class="st184" d="M128.7,102.2c0,1.2-1,2.2-2.2,2.2c-1.2,0-2.2-1-2.2-2.2c0-1.1,1-2.1,2.1-2.2
		C127.6,100,128.7,101,128.7,102.2z"/>
	<path class="st184" d="M90.9,49c1.2,0,2.2,1.1,2.1,2.3c-0.1,1.2-1.1,2.2-2.3,2.1c-1.1-0.1-2.1-1.1-2.1-2.2C88.7,50,89.8,49,90.9,49
		z"/>
	<path class="st184" d="M129.9,96c0,1.2-1,2.2-2.2,2.2c-1.2,0-2.2-1-2.2-2.2c0-1.2,1-2.2,2.2-2.2C128.8,93.8,129.9,94.8,129.9,96z"
		/>
	<path class="st184" d="M53.2,95.4c0,1.2-1.1,2.2-2.3,2.1c-1.1-0.1-2.1-1.1-2.1-2.2c0-1.2,1.1-2.2,2.3-2.1
		C52.2,93.2,53.2,94.3,53.2,95.4z"/>
	<circle class="st184" cx="63.9" cy="59.2" r="2.1"/>
	<circle class="st184" cx="84.7" cy="50.1" r="2.1"/>
	<path class="st184" d="M49.9,103.6c-1.2,0-2.1-0.8-2.1-2c0-1.2,0.8-2.1,2-2.1c1.2,0,2.1,0.8,2.1,2.1
		C51.9,102.8,51.1,103.6,49.9,103.6z"/>
	<path class="st184" d="M65.2,121.4c1.2,0,2.1,0.8,2.1,2c0,1.2-0.9,2.1-2.1,2.1c-1.2,0-2-0.9-2-2C63.2,122.3,64.1,121.4,65.2,121.4z
		"/>
	<path class="st184" d="M122.8,62.8c0,1.2-0.9,2.1-2.1,2.1c-1.2,0-2-0.9-2-2.1c0-1.2,0.9-2.1,2.1-2.1
		C122,60.8,122.8,61.7,122.8,62.8z"/>
	<path class="st184" d="M109.8,122.9c1.2,0,2.1,0.9,2.1,2.1c0,1.1-0.9,2.1-2,2.1c-1.2,0.1-2.2-0.8-2.2-2
		C107.7,123.9,108.6,122.9,109.8,122.9z"/>
	<path class="st184" d="M132,83.7c0,1.2-0.9,2.1-2.1,2.1s-2.1-0.9-2.1-2.1c0-1.1,0.9-2,2-2.1C131,81.6,132,82.5,132,83.7z"/>
	<path class="st184" d="M71,52c1.2,0,2.1,0.9,2.1,2.1c0,1.2-0.9,2.1-2,2.1c-1.2,0-2.1-0.9-2.2-2.1C68.9,53,69.8,52,71,52z"/>
	<path class="st184" d="M127.8,108.5c0,1.2-0.9,2.1-2.1,2.1c-1.2,0-2.1-0.9-2.1-2c0-1.2,0.9-2.2,2-2.2
		C126.8,106.4,127.7,107.3,127.8,108.5z"/>
	<path class="st184" d="M111.5,54.3c0,1.2-0.9,2.1-2.1,2.1c-1.2,0-2.1-1-2-2.1c0-1.1,0.9-2,2.1-2C110.6,52.2,111.5,53.2,111.5,54.3z
		"/>
	<path class="st184" d="M119.3,119.9c0,1.2-0.9,2.1-2.1,2.1c-1.2,0-2.1-1-2.1-2.2c0-1.1,0.9-2,2.1-2
		C118.4,117.8,119.3,118.7,119.3,119.9z"/>
	<path class="st184" d="M128,70.2c0,1.2-1,2.1-2.2,2c-1.1,0-2-1-2-2.1c0-1.2,1-2.1,2.2-2C127.1,68.1,128,69.1,128,70.2z"/>
	<path class="st184" d="M102.4,132.1c-1.1,0-2-1-1.9-2.1c0-1.1,1-2,2.1-1.9c1.1,0,2,1,1.9,2.1C104.5,131.3,103.6,132.2,102.4,132.1z
		"/>
	<path class="st184" d="M58.6,64.4c0,1.2-0.9,2-2,2.1c-1.2,0-2.1-0.9-2.1-2.1c0-1.1,0.9-2,2.1-2C57.7,62.3,58.6,63.2,58.6,64.4z"/>
	<path class="st184" d="M48.1,73.5c1.1,0,2,0.9,2,2c0,1.1-0.9,2-2,2c-1.1,0-2-0.9-2-2C46.1,74.5,47,73.5,48.1,73.5z"/>
	<path class="st184" d="M80.4,49c0,1.2-0.9,2.1-2,2.1s-2-0.9-2-2c0-1.1,0.9-2,2-2C79.5,46.9,80.4,47.8,80.4,49z"/>
	<path class="st184" d="M47.9,88c0,1.1-0.9,2-1.9,2c-1.1,0-2.1-0.9-2-2c0-1.1,0.9-2,2-2C46.9,86,47.9,86.9,47.9,88z"/>
	<path class="st184" d="M124.5,116.8c-1.1,0-2-1-2-2.1c0-1.1,1-2,2.1-1.9c1.1,0.1,1.9,0.9,1.9,2
		C126.5,115.9,125.6,116.8,124.5,116.8z"/>
	<path class="st184" d="M78.6,131.9c0,1.1-0.9,2-2,2c-1.1,0-2-1-2-2.1c0-1.1,1-1.9,2.1-1.9C77.8,129.9,78.6,130.9,78.6,131.9z"/>
	<path class="st184" d="M55.9,115c0,1.1-0.9,2-2,2c-1.1,0-2-1-2-2.1c0.1-1.1,1-1.9,2.1-1.9C55,113,55.9,113.9,55.9,115z"/>
	<path class="st184" d="M115.7,53.4c1.1,0,2,1,2,2.1c0,1.1-0.9,1.9-2,1.9c-1.1,0-2-1-2-2.1C113.7,54.3,114.6,53.4,115.7,53.4z"/>
	<path class="st184" d="M84.9,133c0,1.1-0.9,2.1-2,2c-1.1,0-2-0.9-2-2c0-1.1,0.9-2.1,2-2C84,131,84.8,131.9,84.9,133z"/>
	<path class="st184" d="M131,75.5c1.1,0,2,0.9,2,2.1c0,1.1-0.9,2-2,2c-1.1,0-2-0.9-2-2.1C129,76.4,129.9,75.5,131,75.5z"/>
	<path class="st184" d="M49,81.8c0,1.1-1,2-2.1,2c-1.1,0-1.9-0.9-1.9-2c0-1.1,1-2,2.1-2C48.1,79.8,49,80.7,49,81.8z"/>
	<path class="st184" d="M89.2,132.1c1.1,0,2,1,1.9,2c0,1.1-1,2-2,1.9c-1.1,0-2-1-1.9-2C87.2,133,88.1,132.1,89.2,132.1z"/>
	<path class="st184" d="M98.3,44.1c1.1,0,2,1,1.9,2c0,1.1-1,2-2,1.9c-1.1,0-2-1-1.9-2C96.3,45,97.2,44.1,98.3,44.1z"/>
	<path class="st184" d="M135.9,97.2c0,1.1-1,2-2,1.9c-1.1,0-2-1-1.9-2.1c0.1-1,1-1.9,2-1.9C135,95.2,135.9,96.1,135.9,97.2z"/>
	<path class="st184" d="M61,122.3c0,1.1-0.9,2-2,2s-2-0.9-2-2c0-1.1,0.9-2,2-2C60.1,120.3,61,121.3,61,122.3z"/>
	<path class="st184" d="M118,126.1c0,1.1-1,2-2,1.9c-1.1,0-2-1-1.9-2.1c0.1-1,1-1.9,2-1.9C117.1,124.1,118.1,125.1,118,126.1z"/>
	<path class="st184" d="M50.7,107.9c0,1.1-1,2-2,1.9c-1.1,0-2-1-1.9-2c0-1.1,1-2,2-1.9C49.9,105.9,50.8,106.8,50.7,107.9z"/>
	<path class="st184" d="M65.1,51c1.1,0,2,0.9,2,2c0,1.1-0.9,2-2,2c-1.1,0-2-0.9-2-2C63.1,51.9,64,51,65.1,51z"/>
	<path class="st184" d="M94,45.1c-0.1,1.1-1,2-2.1,1.9c-1.1-0.1-1.9-1.1-1.9-2.1c0.1-1,1-1.9,2-1.8C93.1,43,94,44,94,45.1z"/>
	<path class="st184" d="M59.6,58.2c0,1.1-1,2-2,1.9c-1-0.1-1.9-1-1.9-2c0-1.1,1-2,2-1.9C58.8,56.2,59.7,57.2,59.6,58.2z"/>
	<path class="st184" d="M70.4,128.8c1.1,0,2,1,1.9,2c-0.1,1-1,1.9-2,1.9c-1.1,0-2-1-1.9-2C68.5,129.7,69.4,128.8,70.4,128.8z"/>
	<path class="st184" d="M108.8,133.2c-1,0-1.9-0.8-2-1.9c0-1,0.9-2,1.9-2c1,0,1.9,0.9,1.9,1.9C110.7,132.2,109.8,133.1,108.8,133.2z
		"/>
	<path class="st184" d="M137,90.8c0,1-0.9,2-2,2c-1,0-1.9-0.9-2-1.9c0-1,0.9-2,2-2C136,88.9,136.9,89.8,137,90.8z"/>
	<path class="st184" d="M104.5,45.3c1.1,0,2,1,2,2c0,1-0.9,1.9-2,1.9c-1.1,0-2-1-2-2C102.6,46.1,103.5,45.3,104.5,45.3z"/>
	<path class="st184" d="M72.2,49.8c-1,0-1.9-0.8-2-1.9c-0.1-1,0.9-2,1.9-2c1,0,1.9,0.9,1.9,1.9C74.1,48.9,73.2,49.8,72.2,49.8z"/>
	<path class="st184" d="M49.3,67.5c1.1,0.1,2,1.1,1.9,2.1c-0.1,1-1,1.9-2,1.8c-1.1-0.1-2-1.1-1.9-2.1C47.4,68.3,48.3,67.5,49.3,67.5
		z"/>
	<path class="st184" d="M128.9,63.9c0,1-0.9,1.9-1.9,1.9c-1.1,0-2-1-2-2c0-1,1-1.9,2-1.9C128.1,62,128.9,62.9,128.9,63.9z"/>
	<path class="st184" d="M46.7,94.2c0,1-0.9,2-2,2c-1,0-1.9-0.9-2-1.9c0-1,0.9-2,2-2C45.8,92.3,46.7,93.2,46.7,94.2z"/>
	<path class="st184" d="M134.8,103.4c0,1.1-1,2-2,2c-1,0-1.9-0.9-1.9-1.9c0-1.1,1-2,2-2C133.9,101.4,134.7,102.4,134.8,103.4z"/>
	<path class="st184" d="M93.4,135.2c0-1,0.9-1.9,1.9-1.9c1.1,0,2,0.9,2,2c0,1-0.9,1.9-2,1.9C94.3,137.2,93.4,136.3,93.4,135.2z"/>
	<path class="st184" d="M131.7,107.7c1,0,1.9,0.9,1.9,1.9c0,1-0.9,1.9-1.9,1.9c-1,0-1.9-0.9-1.9-1.9
		C129.8,108.5,130.7,107.7,131.7,107.7z"/>
	<path class="st184" d="M87.7,43.9c0,1-0.9,1.9-1.9,1.9c-1,0-1.9-0.9-1.9-1.9c0-1,0.9-1.9,1.9-1.9C86.8,42,87.7,42.9,87.7,43.9z"/>
	<path class="st184" d="M123.8,56.6c0,1-0.9,1.9-1.9,1.9c-1,0-1.9-0.9-1.9-1.9c0-1,0.9-1.9,1.9-1.9
		C122.9,54.7,123.8,55.6,123.8,56.6z"/>
	<path class="st184" d="M123.5,122.9c-1,0-1.9-0.8-2-1.8c0-1.1,0.9-2,1.9-2c1,0,1.9,0.9,1.9,1.9C125.4,122,124.5,122.9,123.5,122.9z
		"/>
	<path class="st184" d="M132.1,73.2c-1,0-1.9-0.9-1.9-1.9c0-1,0.9-1.9,1.9-1.9c1,0,1.9,0.9,1.9,1.9C134,72.3,133.1,73.2,132.1,73.2z
		"/>
	<path class="st184" d="M45.7,100.5c0,1.1-0.9,1.9-1.9,1.8c-1,0-1.8-0.8-1.8-1.9c0-1.1,0.9-1.9,1.9-1.8
		C45,98.7,45.7,99.5,45.7,100.5z"/>
	<path class="st184" d="M136.1,82.8c1.1,0,1.9,0.9,1.9,1.9c0,1.1-0.9,1.9-1.9,1.8c-1,0-1.8-0.8-1.8-1.9
		C134.2,83.6,135.1,82.8,136.1,82.8z"/>
	<path class="st184" d="M103.2,136.1c0,1-0.8,1.8-1.8,1.9c-1,0-1.8-0.8-1.9-1.8c0-1,0.8-1.8,1.8-1.9
		C102.4,134.3,103.2,135.1,103.2,136.1z"/>
	<path class="st184" d="M64.1,131.5c-1,0-1.8-0.8-1.8-1.9c0-1.1,0.9-1.9,1.9-1.8c1,0,1.8,0.9,1.7,1.9
		C66,130.8,65.1,131.5,64.1,131.5z"/>
	<path class="st184" d="M108.6,48.3c0-1.1,0.9-1.9,1.9-1.8c1.1,0,1.9,0.9,1.8,2c-0.1,1-0.9,1.8-1.9,1.8
		C109.4,50.2,108.6,49.3,108.6,48.3z"/>
	<path class="st184" d="M50.4,65.1c-1,0-1.8-0.8-1.9-1.8c0-1,0.8-1.8,1.8-1.9c1,0,1.8,0.8,1.9,1.8C52.2,64.3,51.4,65.1,50.4,65.1z"
		/>
	<path class="st184" d="M130.5,114c1,0,1.8,0.8,1.8,1.8c0,1-0.7,1.8-1.7,1.8c-1,0-1.9-0.7-1.9-1.8
		C128.7,114.9,129.5,114.1,130.5,114z"/>
	<path class="st184" d="M79.6,40.9c1,0,1.8,0.8,1.8,1.8c0,1-0.8,1.8-1.8,1.8c-1,0-1.8-0.8-1.8-1.8C77.7,41.7,78.5,40.9,79.6,40.9z"
		/>
	<path class="st184" d="M81.7,141c-1,0-1.8-0.8-1.8-1.8c0-1,0.8-1.8,1.8-1.8c1,0,1.8,0.8,1.8,1.8C83.5,140.2,82.7,141,81.7,141z"/>
	<path class="st184" d="M116.7,51c-1,0-1.8-0.9-1.7-1.9c0.1-1,0.8-1.7,1.8-1.7c1,0,1.8,0.9,1.7,1.9C118.5,50.3,117.7,51,116.7,51z"
		/>
	<path class="st184" d="M77.3,138.1c0,1-0.8,1.8-1.8,1.8c-1,0-1.8-0.8-1.8-1.8c0-1,0.8-1.8,1.8-1.8
		C76.5,136.4,77.3,137.2,77.3,138.1z"/>
	<path class="st184" d="M64.4,46.8c0-1,0.7-1.8,1.7-1.8c1,0,1.9,0.7,1.9,1.8c0,1-0.8,1.8-1.8,1.8C65.2,48.5,64.4,47.8,64.4,46.8z"/>
	<path class="st184" d="M135,65c0,1-0.8,1.8-1.8,1.8c-1,0-1.8-0.8-1.8-1.8c0-1,0.8-1.8,1.8-1.8S135,64.1,135,65z"/>
	<path class="st184" d="M129.9,57.7c0,1-0.9,1.8-1.8,1.7c-1,0-1.8-0.9-1.7-1.8c0-1,0.9-1.8,1.8-1.7
		C129.1,55.9,129.9,56.8,129.9,57.7z"/>
	<path class="st184" d="M44.5,106.7c0,1-0.8,1.8-1.8,1.8c-1,0-1.8-0.8-1.8-1.8c0-1,0.8-1.8,1.8-1.8
		C43.7,104.9,44.5,105.8,44.5,106.7z"/>
	<path class="st184" d="M137.2,76.8c1,0,1.8,0.7,1.8,1.7c0,1-0.8,1.9-1.8,1.9c-1,0-1.8-0.8-1.8-1.8
		C135.5,77.6,136.2,76.8,137.2,76.8z"/>
	<path class="st184" d="M47.9,115.7c-1,0-1.8-0.8-1.8-1.8c0-1,0.8-1.8,1.8-1.8s1.8,0.8,1.8,1.8C49.7,114.9,48.9,115.7,47.9,115.7z"
		/>
	<path class="st184" d="M88,138.4c1,0,1.8,0.8,1.8,1.7c0,1-0.8,1.8-1.7,1.8c-1,0-1.8-0.8-1.8-1.7C86.2,139.2,87,138.4,88,138.4z"/>
	<path class="st184" d="M56.1,128.5c0-1,0.9-1.7,1.9-1.7c1,0.1,1.7,0.9,1.7,1.9c0,1-0.9,1.7-1.9,1.7
		C56.9,130.3,56.1,129.4,56.1,128.5z"/>
	<path class="st184" d="M116.8,132.1c0,1-0.8,1.8-1.8,1.8c-1,0-1.8-0.8-1.8-1.7c0-1,0.8-1.8,1.8-1.8
		C115.9,130.3,116.7,131.1,116.8,132.1z"/>
	<path class="st184" d="M54.6,121.2c0,1-0.8,1.8-1.8,1.8c-1,0-1.8-0.8-1.8-1.9c0-1,0.8-1.7,1.8-1.8
		C53.8,119.4,54.6,120.2,54.6,121.2z"/>
	<path class="st184" d="M122.3,128.8c-1,0-1.8-0.9-1.8-1.9c0-1,0.8-1.7,1.8-1.7c1,0,1.8,0.9,1.8,1.9
		C124.1,128.1,123.3,128.8,122.3,128.8z"/>
	<path class="st184" d="M39.8,88.7c-1-0.1-1.7-0.9-1.7-1.9c0-1,0.9-1.7,1.9-1.7c1,0.1,1.7,0.9,1.7,1.9
		C41.6,87.9,40.7,88.7,39.8,88.7z"/>
	<path class="st184" d="M60.6,51.9c0,1-0.9,1.8-1.9,1.8c-1,0-1.7-0.8-1.7-1.8c0-1,0.9-1.8,1.9-1.8C59.9,50.1,60.6,50.9,60.6,51.9z"
		/>
	<path class="st184" d="M42.5,80.7c0,1-0.8,1.8-1.8,1.8c-1,0-1.8-0.8-1.8-1.8c0-1,0.9-1.7,1.8-1.7C41.8,78.9,42.5,79.7,42.5,80.7z"
		/>
	<path class="st184" d="M43.6,74.6c0,0.9-0.8,1.8-1.8,1.8c-0.9,0-1.8-0.8-1.8-1.8c0-0.9,0.8-1.8,1.8-1.8
		C42.8,72.9,43.6,73.7,43.6,74.6z"/>
	<path class="st184" d="M53.2,57c0,0.9-0.9,1.8-1.8,1.7c-0.9,0-1.8-0.9-1.7-1.8c0-0.9,0.9-1.8,1.8-1.7C52.4,55.3,53.2,56.1,53.2,57z
		"/>
	<path class="st184" d="M73.3,43.4c-0.9,0-1.8-0.8-1.8-1.8c0-0.9,0.9-1.8,1.8-1.8c0.9,0,1.7,0.8,1.7,1.7
		C75.1,42.5,74.2,43.4,73.3,43.4z"/>
	<path class="st184" d="M109.4,137.2c0,0.9-0.8,1.8-1.7,1.8c-0.9,0-1.8-0.8-1.8-1.7c0-0.9,0.8-1.8,1.7-1.8
		C108.5,135.5,109.4,136.3,109.4,137.2z"/>
	<path class="st184" d="M101.1,39.8c0,0.9-0.8,1.8-1.8,1.8c-0.9,0-1.8-0.9-1.8-1.8c0-0.9,0.8-1.7,1.7-1.7
		C100.2,38.1,101.1,38.9,101.1,39.8z"/>
	<path class="st184" d="M123,48.6c0.9,0,1.7,0.8,1.7,1.7c0,0.9-0.8,1.8-1.8,1.8c-0.9,0-1.7-0.9-1.7-1.7
		C121.3,49.4,122.1,48.6,123,48.6z"/>
	<path class="st184" d="M93.1,37c0.9,0,1.8,0.9,1.7,1.8c0,0.9-0.9,1.7-1.8,1.7c-0.9,0-1.8-0.9-1.7-1.8C91.4,37.8,92.3,37,93.1,37z"
		/>
	<path class="st184" d="M143,92c0,0.9-0.8,1.7-1.7,1.7c-0.9,0-1.8-0.8-1.8-1.8c0-0.9,0.9-1.7,1.7-1.7C142.2,90.3,143,91.1,143,92z"
		/>
	<path class="st184" d="M138.4,70.7c0.9,0,1.7,0.8,1.7,1.7c0,0.9-0.9,1.8-1.8,1.7c-0.9-0.1-1.7-0.9-1.6-1.8
		C136.7,71.4,137.5,70.6,138.4,70.7z"/>
	<path class="st184" d="M38.7,94.9C37.8,94.8,37,94,37,93c0-0.9,0.9-1.7,1.8-1.7c0.9,0,1.8,0.9,1.7,1.8
		C40.4,94.1,39.6,94.9,38.7,94.9z"/>
	<path class="st184" d="M44.7,68.4c0,0.9-0.8,1.7-1.7,1.7c-0.9,0-1.8-0.9-1.7-1.8c0-0.9,0.9-1.7,1.8-1.7
		C43.9,66.7,44.7,67.5,44.7,68.4z"/>
	<path class="st184" d="M139,102.7c0.9,0,1.8,0.8,1.8,1.8c0,0.9-0.8,1.7-1.7,1.7c-0.9,0-1.8-0.8-1.8-1.8
		C137.3,103.6,138.1,102.8,139,102.7z"/>
	<path class="st184" d="M71,137.1c0,0.9-0.9,1.8-1.8,1.7c-0.9-0.1-1.7-0.9-1.7-1.8c0-0.9,0.9-1.8,1.8-1.7
		C70.3,135.3,71,136.2,71,137.1z"/>
	<path class="st184" d="M103.6,40.9c0.1-0.9,1-1.7,1.9-1.6c0.9,0.1,1.7,0.9,1.6,1.8c-0.1,0.9-1,1.7-1.9,1.6
		C104.3,42.6,103.6,41.8,103.6,40.9z"/>
	<path class="st184" d="M94.3,139.5c0.9,0,1.7,0.8,1.7,1.7c0,0.9-0.9,1.8-1.8,1.7c-0.9-0.1-1.7-0.9-1.6-1.8
		C92.5,140.3,93.4,139.5,94.3,139.5z"/>
	<path class="st184" d="M140.1,96.5c0.9,0,1.8,0.8,1.8,1.8c0,0.9-0.8,1.7-1.7,1.7c-0.9,0-1.8-0.8-1.8-1.8
		C138.4,97.3,139.2,96.5,140.1,96.5z"/>
	<path class="st184" d="M129.6,120.4c0.9,0,1.8,0.8,1.8,1.7c0,0.9-0.8,1.7-1.7,1.7c-0.9,0-1.8-0.8-1.8-1.7
		C127.9,121.2,128.7,120.4,129.6,120.4z"/>
	<path class="st184" d="M111.6,43.8c-0.9,0-1.7-0.8-1.6-1.8c0-0.9,0.9-1.7,1.8-1.6c0.9,0.1,1.6,0.8,1.6,1.7
		C113.3,43,112.5,43.8,111.6,43.8z"/>
	<path class="st184" d="M48.4,120.1c0,0.9-0.8,1.7-1.7,1.7c-0.9,0-1.7-0.8-1.6-1.8c0-0.9,0.8-1.6,1.7-1.6
		C47.7,118.4,48.5,119.2,48.4,120.1z"/>
	<path class="st184" d="M86.8,35.9c0.9,0,1.7,0.7,1.7,1.7c0,0.9-0.8,1.7-1.7,1.7c-0.9,0-1.6-0.7-1.7-1.6
		C85.2,36.8,85.9,36,86.8,35.9z"/>
	<path class="st184" d="M139.6,110.7c0,0.9-0.8,1.7-1.7,1.7c-0.9,0-1.6-0.7-1.7-1.6c0-0.9,0.7-1.7,1.6-1.8
		C138.8,109,139.6,109.8,139.6,110.7z"/>
	<path class="st184" d="M43.3,113c0,0.9-0.7,1.6-1.6,1.6c-1,0-1.7-0.7-1.7-1.7c0-0.9,0.7-1.6,1.7-1.6C42.6,111.3,43.3,112,43.3,113z
		"/>
	<path class="st184" d="M101.9,142.4c0,0.9-0.7,1.6-1.6,1.6c-0.9,0-1.6-0.6-1.7-1.6c0-1,0.7-1.7,1.6-1.7
		C101.2,140.8,101.9,141.4,101.9,142.4z"/>
	<path class="st184" d="M63,134.3c0.9,0,1.6,0.7,1.6,1.6c0,1-0.7,1.7-1.7,1.7c-0.9,0-1.6-0.7-1.6-1.7C61.4,135,62.1,134.3,63,134.3z
		"/>
	<path class="st184" d="M61.5,45.6c0,0.9-0.6,1.6-1.6,1.7c-0.9,0-1.7-0.6-1.7-1.5c-0.1-1,0.7-1.7,1.6-1.7
		C60.8,44,61.5,44.7,61.5,45.6z"/>
	<path class="st184" d="M122.8,133.2c0,0.9-0.7,1.6-1.6,1.6c-1,0-1.7-0.7-1.7-1.7c0-0.9,0.7-1.6,1.7-1.6
		C122.1,131.6,122.8,132.3,122.8,133.2z"/>
	<path class="st184" d="M51.8,125.8c0.9,0,1.6,0.6,1.7,1.6c0,0.9-0.6,1.7-1.5,1.7c-1,0.1-1.7-0.7-1.7-1.6
		C50.3,126.5,50.9,125.8,51.8,125.8z"/>
	<path class="st184" d="M142.4,84.1c1,0,1.7,0.8,1.6,1.7c0,0.9-0.8,1.6-1.7,1.6c-1,0-1.7-0.8-1.6-1.7
		C140.8,84.8,141.5,84.1,142.4,84.1z"/>
	<path class="st184" d="M37.7,101c-0.9,0-1.6-0.7-1.7-1.6c0-1,0.7-1.7,1.6-1.7c0.9,0,1.6,0.7,1.7,1.6C39.3,100.2,38.6,101,37.7,101z
		"/>
	<path class="st184" d="M44.1,60.5c0.9,0,1.6,0.7,1.6,1.6c0,1-0.7,1.7-1.7,1.6c-0.9,0-1.6-0.8-1.5-1.7
		C42.5,61.2,43.2,60.5,44.1,60.5z"/>
	<path class="st184" d="M136.8,115.4c0.9,0,1.6,0.7,1.6,1.6c0,0.9-0.7,1.6-1.6,1.6c-0.9,0-1.6-0.7-1.6-1.6
		C135.2,116.1,135.9,115.4,136.8,115.4z"/>
	<path class="st184" d="M143.4,78.2c0.9,0,1.6,0.6,1.6,1.6c0,0.9-0.7,1.6-1.6,1.6c-0.9,0-1.5-0.6-1.6-1.5
		C141.9,78.9,142.5,78.2,143.4,78.2z"/>
	<path class="st184" d="M139.5,64.6c0.9,0,1.6,0.7,1.5,1.7c0,0.9-0.7,1.5-1.6,1.5c-0.9,0-1.6-0.7-1.5-1.7
		C137.9,65.2,138.6,64.6,139.5,64.6z"/>
	<path class="st184" d="M54.2,50.8c0,0.9-0.7,1.6-1.6,1.6c-0.9,0-1.6-0.7-1.6-1.6c0-0.9,0.7-1.6,1.6-1.6
		C53.5,49.2,54.2,49.9,54.2,50.8z"/>
	<path class="st184" d="M117.8,41.6c0.9,0,1.6,0.7,1.6,1.6c0,0.9-0.6,1.5-1.5,1.6c-0.9,0-1.6-0.6-1.7-1.5
		C116.2,42.3,116.9,41.6,117.8,41.6z"/>
	<path class="st184" d="M128.5,129.7c-0.9,0-1.6-0.7-1.6-1.6c0-0.9,0.8-1.6,1.7-1.5c0.9,0,1.5,0.7,1.5,1.6
		C130.1,129,129.4,129.7,128.5,129.7z"/>
	<path class="st184" d="M135.9,58.8c0,0.9-0.7,1.6-1.6,1.6c-0.9,0-1.5-0.6-1.6-1.5c0-0.9,0.6-1.6,1.5-1.7
		C135.2,57.2,135.9,57.9,135.9,58.8z"/>
	<path class="st184" d="M115.4,138.4c0,0.9-0.7,1.6-1.6,1.6c-0.9,0-1.6-0.7-1.6-1.6c0-0.9,0.7-1.6,1.6-1.6
		C114.8,136.8,115.4,137.4,115.4,138.4z"/>
	<path class="st184" d="M80.5,38.1c-0.9,0-1.6-0.8-1.5-1.7c0-0.9,0.8-1.6,1.7-1.5c0.9,0,1.6,0.8,1.5,1.7
		C82.2,37.5,81.5,38.2,80.5,38.1z"/>
	<path class="st184" d="M65.4,40.4c0-0.9,0.8-1.6,1.7-1.5c0.9,0,1.6,0.8,1.5,1.7c0,0.9-0.8,1.6-1.7,1.5C66,42.1,65.4,41.4,65.4,40.4
		z"/>
	<path class="st184" d="M130.8,51.5c0,0.9-0.7,1.6-1.6,1.6c-0.9,0-1.5-0.7-1.5-1.6c0-0.9,0.7-1.6,1.6-1.6
		C130.2,49.9,130.8,50.6,130.8,51.5z"/>
	<path class="st184" d="M106.5,145c-0.8,0-1.6-0.7-1.6-1.6c0-0.8,0.7-1.6,1.6-1.6c0.8,0,1.6,0.7,1.6,1.6
		C108,144.3,107.3,145,106.5,145z"/>
	<path class="st184" d="M58.6,134.8c0,0.9-0.7,1.5-1.5,1.6c-0.9,0-1.6-0.7-1.6-1.6c0-0.9,0.7-1.5,1.6-1.5
		C57.9,133.2,58.6,133.9,58.6,134.8z"/>
	<path class="st184" d="M80.7,143.7c0.8,0,1.5,0.8,1.5,1.6c0,0.8-0.8,1.5-1.6,1.5c-0.8,0-1.5-0.8-1.5-1.6
		C79.1,144.4,79.8,143.7,80.7,143.7z"/>
	<path class="st184" d="M36.5,104c0.9,0,1.6,0.6,1.6,1.5c0,0.9-0.7,1.6-1.6,1.6c-0.9,0-1.5-0.7-1.5-1.6
		C34.9,104.8,35.6,104.1,36.5,104z"/>
	<path class="st184" d="M46.8,55.9c0,0.8-0.7,1.6-1.6,1.5c-0.8,0-1.6-0.7-1.5-1.6c0-0.8,0.7-1.6,1.6-1.5
		C46.1,54.3,46.8,55.1,46.8,55.9z"/>
	<path class="st184" d="M34.7,81.1c-0.8,0-1.6-0.7-1.6-1.6c0-0.8,0.7-1.6,1.5-1.6c0.8,0,1.6,0.7,1.6,1.6
		C36.3,80.4,35.6,81.1,34.7,81.1z"/>
	<path class="st184" d="M36.8,65.8c0.8,0,1.5,0.7,1.5,1.5c0,0.8-0.8,1.6-1.6,1.5c-0.8-0.1-1.5-0.8-1.4-1.6
		C35.3,66.4,36,65.7,36.8,65.8z"/>
	<path class="st184" d="M95.7,32.5c0,0.8-0.7,1.5-1.5,1.5c-0.8,0-1.6-0.7-1.5-1.6c0-0.8,0.8-1.5,1.5-1.5
		C95.1,31,95.7,31.7,95.7,32.5z"/>
	<path class="st184" d="M42,118.9c0,0.8-0.7,1.6-1.5,1.6c-0.8,0-1.5-0.7-1.5-1.5c0-0.8,0.7-1.6,1.5-1.6
		C41.3,117.5,42,118.2,42,118.9z"/>
	<path class="st184" d="M147.9,99.4c0,0.8-0.8,1.5-1.6,1.5c-0.8-0.1-1.4-0.8-1.4-1.6c0-0.8,0.8-1.5,1.6-1.5
		C147.3,97.9,147.9,98.6,147.9,99.4z"/>
	<path class="st184" d="M137.2,123c0,0.8-0.8,1.5-1.6,1.5c-0.8,0-1.6-0.8-1.4-1.6c0.1-0.9,0.7-1.4,1.6-1.4
		C136.5,121.4,137.3,122.2,137.2,123z"/>
	<path class="st184" d="M47.2,126.3c0,0.8-0.7,1.6-1.6,1.5c-0.8,0-1.5-0.7-1.5-1.5c0-0.8,0.7-1.6,1.6-1.5
		C46.5,124.8,47.2,125.5,47.2,126.3z"/>
	<path class="st184" d="M35.8,75.1c-0.8,0-1.5-0.7-1.5-1.6c0-0.8,0.7-1.5,1.6-1.5c0.8,0,1.5,0.7,1.5,1.6
		C37.4,74.3,36.7,75.1,35.8,75.1z"/>
	<path class="st184" d="M146.1,73.5c0,0.8-0.8,1.6-1.6,1.5c-0.8,0-1.5-0.7-1.5-1.5c0-0.8,0.8-1.6,1.6-1.5
		C145.4,72,146.1,72.7,146.1,73.5z"/>
	<path class="st184" d="M69.7,143.2c0,0.8-0.6,1.5-1.4,1.6c-0.8,0.1-1.6-0.7-1.6-1.5c0-0.8,0.7-1.5,1.5-1.5
		C68.9,141.7,69.6,142.4,69.7,143.2z"/>
	<path class="st184" d="M147.5,91.6c0.8,0,1.5,0.7,1.5,1.5c0,0.8-0.7,1.6-1.5,1.6c-0.8,0-1.5-0.7-1.5-1.5
		C146,92.3,146.7,91.6,147.5,91.6z"/>
	<path class="st184" d="M72.9,144.1c0.1-0.8,0.8-1.5,1.6-1.5c0.8,0.1,1.5,0.8,1.5,1.6c-0.1,0.8-0.8,1.5-1.6,1.5
		C73.5,145.7,72.8,144.9,72.9,144.1z"/>
	<path class="st184" d="M34,92c0,0.8-0.7,1.6-1.6,1.5c-0.8,0-1.5-0.7-1.5-1.5c0-0.8,0.7-1.6,1.6-1.5C33.3,90.5,34,91.2,34,92z"/>
	<path class="st184" d="M88.4,146.4c0,0.8-0.8,1.5-1.6,1.5c-0.8,0-1.5-0.8-1.5-1.6c0-0.8,0.8-1.5,1.6-1.5
		C87.7,144.9,88.5,145.6,88.4,146.4z"/>
	<path class="st184" d="M146.8,105.6c0,0.8-0.7,1.5-1.5,1.5c-0.8,0-1.6-0.8-1.5-1.6c0.1-0.8,0.8-1.5,1.6-1.4
		C146.1,104.1,146.8,104.8,146.8,105.6z"/>
	<path class="st184" d="M93.1,146c0.8,0,1.5,0.7,1.5,1.5c0,0.8-0.7,1.6-1.5,1.6c-0.8,0-1.5-0.7-1.5-1.5
		C91.6,146.7,92.3,146,93.1,146z"/>
	<path class="st184" d="M35.2,85.8c0,0.8-0.7,1.5-1.6,1.5c-0.8,0-1.5-0.7-1.5-1.6c0-0.8,0.7-1.5,1.6-1.5
		C34.4,84.2,35.2,84.9,35.2,85.8z"/>
	<path class="st184" d="M125.6,44.3c0,0.8-0.7,1.6-1.5,1.6c-0.8,0-1.5-0.7-1.5-1.5c0-0.8,0.7-1.6,1.5-1.6
		C124.9,42.8,125.6,43.5,125.6,44.3z"/>
	<path class="st184" d="M75.9,35.4c0,0.8-0.7,1.6-1.5,1.6c-0.8,0-1.6-0.7-1.5-1.6c0.1-0.9,0.6-1.4,1.5-1.5
		C75.2,33.8,75.9,34.5,75.9,35.4z"/>
	<path class="st184" d="M106.5,33.2c0.8,0,1.5,0.7,1.5,1.5c0,0.8-0.7,1.6-1.5,1.6c-0.8,0-1.5-0.7-1.5-1.5
		C105,33.9,105.7,33.2,106.5,33.2z"/>
	<path class="st184" d="M102,33.6c0,0.8-0.7,1.6-1.5,1.6c-0.8,0-1.5-0.7-1.5-1.5c0-0.8,0.7-1.6,1.5-1.6
		C101.3,32.1,102,32.8,102,33.6z"/>
	<path class="st184" d="M121.6,139.5c0,0.8-0.7,1.5-1.5,1.5c-0.8,0-1.5-0.7-1.5-1.5c0-0.8,0.7-1.5,1.5-1.5
		C120.9,138,121.6,138.7,121.6,139.5z"/>
	<path class="st184" d="M50.7,135.1c-0.8,0-1.5-0.7-1.4-1.5c0-0.8,0.8-1.5,1.6-1.4c0.8,0.1,1.3,0.6,1.4,1.5
		C52.3,134.5,51.5,135.2,50.7,135.1z"/>
	<path class="st184" d="M127.5,135.8c-0.8,0-1.5-0.7-1.5-1.5c0-0.8,0.7-1.5,1.5-1.5c0.8,0,1.5,0.7,1.5,1.5
		C129,135.1,128.3,135.8,127.5,135.8z"/>
	<path class="st184" d="M55.2,44.6c0,0.8-0.7,1.5-1.5,1.5c-0.8,0-1.5-0.7-1.5-1.5c0-0.8,0.7-1.5,1.5-1.5
		C54.5,43.1,55.2,43.8,55.2,44.6z"/>
	<path class="st184" d="M35.4,110.4c0.8,0,1.5,0.6,1.5,1.5c0,0.8-0.7,1.5-1.5,1.5c-0.9,0-1.4-0.5-1.4-1.4
		C33.9,111.1,34.6,110.4,35.4,110.4z"/>
	<path class="st184" d="M114.2,35.8c0,0.8-0.7,1.5-1.5,1.5c-0.8,0-1.5-0.7-1.4-1.5c0.1-0.9,0.5-1.4,1.4-1.4
		C113.5,34.3,114.2,35,114.2,35.8z"/>
	<path class="st184" d="M145.6,111.8c0,0.8-0.7,1.5-1.5,1.5c-0.8,0-1.5-0.7-1.4-1.5c0.1-0.9,0.6-1.3,1.4-1.4
		C144.9,110.3,145.6,111,145.6,111.8z"/>
	<path class="st184" d="M89.5,31.4c0,0.8-0.7,1.5-1.5,1.5s-1.5-0.7-1.4-1.5c0.1-0.9,0.6-1.3,1.4-1.4C88.8,29.9,89.5,30.6,89.5,31.4z
		"/>
	<path class="st184" d="M61.1,40.9c-0.8,0-1.5-0.7-1.5-1.5c0-0.8,0.7-1.5,1.5-1.5c0.8,0,1.5,0.7,1.5,1.5
		C62.5,40.2,61.8,40.9,61.1,40.9z"/>
	<path class="st184" d="M99.3,150c-0.9-0.1-1.4-0.6-1.3-1.5c0-0.9,0.6-1.4,1.4-1.3c0.9,0,1.4,0.6,1.3,1.4
		C100.7,149.6,100.2,150,99.3,150z"/>
	<path class="st184" d="M63.3,142.3c-0.1,0.8-0.6,1.3-1.5,1.3c-0.8,0-1.5-0.7-1.4-1.5c0.1-0.9,0.6-1.3,1.5-1.3
		C62.8,140.7,63.4,141.4,63.3,142.3z"/>
	<path class="st184" d="M69.6,34.3c-0.1,0.9-0.5,1.4-1.4,1.4c-0.9,0-1.4-0.5-1.4-1.4c0-0.9,0.5-1.4,1.4-1.4
		C69.1,32.9,69.5,33.4,69.6,34.3z"/>
	<path class="st184" d="M114.2,144.7c-0.1,0.8-0.5,1.3-1.4,1.4c-0.9,0-1.4-0.5-1.5-1.3c-0.1-0.8,0.6-1.5,1.4-1.5
		C113.5,143.2,114.1,143.8,114.2,144.7z"/>
	<path class="st184" d="M31.5,96.8c0.8,0.1,1.3,0.5,1.3,1.4c0,0.8-0.7,1.5-1.5,1.4c-0.9-0.1-1.3-0.6-1.3-1.5
		C30,97.4,30.6,96.8,31.5,96.8z"/>
	<path class="st184" d="M148.6,88.3c-0.9-0.1-1.4-0.6-1.4-1.5c0-0.8,0.7-1.5,1.5-1.4c0.9,0.1,1.3,0.6,1.3,1.5
		C150,87.8,149.4,88.3,148.6,88.3z"/>
	<path class="st184" d="M135.4,51.1c0.9,0,1.4,0.5,1.5,1.4c0,0.9-0.4,1.4-1.3,1.5c-0.8,0.1-1.5-0.6-1.5-1.4
		C134.1,51.7,134.6,51.2,135.4,51.1z"/>
	<path class="st184" d="M136.2,129.1c-0.1,0.9-0.5,1.5-1.4,1.5c-0.9,0-1.4-0.5-1.4-1.4c0-0.9,0.5-1.4,1.4-1.4
		C135.7,127.8,136.1,128.4,136.2,129.1z"/>
	<path class="st184" d="M47.7,49.7c-0.1,0.9-0.6,1.3-1.5,1.3c-0.8,0-1.5-0.7-1.3-1.6c0.1-0.9,0.7-1.3,1.5-1.3
		C47.3,48.3,47.7,48.9,47.7,49.7z"/>
	<path class="st184" d="M37.8,62.4c-0.9-0.1-1.4-0.5-1.4-1.4c0-0.9,0.5-1.4,1.4-1.4c0.9,0,1.4,0.5,1.4,1.4
		C39.2,61.9,38.7,62.4,37.8,62.4z"/>
	<path class="st184" d="M142,59.9c-0.1,0.9-0.5,1.4-1.4,1.4c-0.8,0-1.5-0.7-1.4-1.5c0.1-0.9,0.6-1.4,1.5-1.3
		C141.5,58.5,142,59.1,142,59.9z"/>
	<path class="st184" d="M130.5,46.6c-1,0-1.6-0.6-1.5-1.4c0.1-0.8,0.5-1.3,1.4-1.3c0.8,0,1.4,0.6,1.3,1.4
		C131.6,46.1,131.1,46.5,130.5,46.6z"/>
	<path class="st184" d="M55.9,142.4c-0.8,0-1.4-0.6-1.4-1.4c0-0.8,0.5-1.3,1.3-1.3c0.8,0,1.4,0.6,1.4,1.4
		C57.2,141.8,56.7,142.4,55.9,142.4z"/>
	<path class="st184" d="M145.8,65.9c0.8,0.1,1.3,0.5,1.3,1.4c0,0.8-0.6,1.4-1.4,1.4c-0.8,0-1.4-0.7-1.3-1.5
		C144.4,66.3,145,65.9,145.8,65.9z"/>
	<path class="st184" d="M105.4,151.1c-0.8-0.1-1.3-0.5-1.4-1.3c-0.1-0.8,0.6-1.4,1.3-1.4c0.8,0,1.3,0.5,1.3,1.3
		C106.7,150.5,106.2,151,105.4,151.1z"/>
	<path class="st184" d="M144.4,118.1c0,0.8-0.6,1.4-1.4,1.4c-0.8,0-1.4-0.6-1.4-1.4c0-0.8,0.5-1.3,1.3-1.3
		C143.8,116.7,144.4,117.3,144.4,118.1z"/>
	<path class="st184" d="M83.1,30.4c0,0.8-0.7,1.3-1.5,1.3c-0.8-0.1-1.4-0.7-1.3-1.5c0.1-0.8,0.6-1.2,1.4-1.2
		C82.6,28.9,83.2,29.6,83.1,30.4z"/>
	<path class="st184" d="M38.9,56.1c-0.8-0.1-1.3-0.5-1.3-1.4c0-0.8,0.7-1.4,1.4-1.3c0.8,0.1,1.3,0.6,1.2,1.4
		C40.3,55.7,39.7,56.1,38.9,56.1z"/>
	<path class="st184" d="M120.3,36.8c0,1-0.6,1.6-1.4,1.5c-0.8-0.1-1.3-0.5-1.3-1.4c0-0.8,0.6-1.4,1.4-1.3
		C119.9,35.7,120.3,36.2,120.3,36.8z"/>
	<path class="st184" d="M39.4,126.6c-0.8-0.1-1.3-0.5-1.4-1.3c-0.1-0.8,0.6-1.4,1.4-1.4c0.8,0,1.3,0.5,1.3,1.3
		C40.7,126.1,40.2,126.5,39.4,126.6z"/>
	<path class="st184" d="M151.1,80.5c0,1-0.6,1.6-1.4,1.5c-0.8-0.1-1.3-0.5-1.3-1.4c0-0.8,0.6-1.4,1.4-1.4
		C150.6,79.3,151,79.8,151.1,80.5z"/>
	<path class="st184" d="M30.3,103.1c0.8,0.1,1.3,0.5,1.3,1.4c0,0.8-0.6,1.4-1.4,1.4c-0.8,0-1.4-0.7-1.3-1.5
		C29,103.6,29.5,103.2,30.3,103.1z"/>
	<path class="st184" d="M62.2,34.5c-0.8-0.1-1.4-0.5-1.3-1.4c0-0.8,0.5-1.3,1.3-1.3c0.8,0,1.3,0.5,1.3,1.3
		C63.4,34,62.9,34.4,62.2,34.5z"/>
	<path class="st184" d="M135,135.4c-0.1,0.8-0.5,1.4-1.3,1.4c-0.8,0-1.3-0.5-1.3-1.3c0-0.8,0.5-1.3,1.3-1.3
		C134.5,134.2,134.9,134.7,135,135.4z"/>
	<path class="st184" d="M141.8,55c-0.8-0.1-1.4-0.5-1.4-1.3c0-0.8,0.5-1.3,1.3-1.3c0.8,0,1.3,0.5,1.3,1.3
		C143,54.5,142.5,54.9,141.8,55z"/>
	<path class="st184" d="M34.3,116.5c0.8,0.1,1.3,0.5,1.3,1.3c0,0.8-0.5,1.3-1.3,1.3c-0.8,0-1.3-0.5-1.3-1.3
		C32.9,117,33.5,116.6,34.3,116.5z"/>
	<path class="st184" d="M153.9,100.5c-0.1,0.8-0.5,1.3-1.3,1.3c-0.8,0-1.2-0.5-1.3-1.2c-0.1-0.7,0.7-1.4,1.3-1.3
		C153.4,99.3,153.8,99.7,153.9,100.5z"/>
	<path class="st184" d="M29.6,73.7c-0.8-0.1-1.4-0.6-1.3-1.4c0-0.8,0.6-1.3,1.4-1.2c0.8,0,1.2,0.5,1.2,1.3
		C30.9,73.2,30.4,73.6,29.6,73.7z"/>
	<path class="st184" d="M96.7,26.2c-0.1,0.7-0.5,1.2-1.2,1.3c-0.7,0.1-1.4-0.6-1.3-1.3c0.1-0.8,0.5-1.2,1.3-1.2
		C96.1,25,96.5,25.5,96.7,26.2z"/>
	<path class="st184" d="M150.9,75.9c-0.8-0.1-1.4-0.5-1.4-1.3c0-0.8,0.5-1.3,1.3-1.3c0.8,0,1.3,0.5,1.3,1.3
		C152.1,75.4,151.6,75.8,150.9,75.9z"/>
	<path class="st184" d="M27.4,86c-0.8-0.1-1.3-0.5-1.3-1.4c0-0.8,0.5-1.3,1.4-1.3c0.8,0,1.2,0.5,1.3,1.3
		C28.7,85.5,28.2,85.9,27.4,86z"/>
	<path class="st184" d="M101.3,28.7c-0.7-0.1-1.2-0.5-1.2-1.3c0-0.8,0.5-1.2,1.2-1.3c0.7-0.1,1.4,0.7,1.3,1.3
		C102.6,28.1,102,28.7,101.3,28.7z"/>
	<path class="st184" d="M143.3,124.1c-0.1,0.8-0.5,1.3-1.3,1.3c-0.8,0-1.3-0.5-1.3-1.3c0-0.8,0.5-1.3,1.3-1.3
		C142.7,122.8,143.2,123.3,143.3,124.1z"/>
	<path class="st184" d="M68.3,149.3c-0.1,0.8-0.5,1.2-1.3,1.3c-0.7,0.1-1.4-0.7-1.3-1.3c0.1-0.8,0.5-1.2,1.3-1.2
		C67.8,148,68.2,148.5,68.3,149.3z"/>
	<path class="st184" d="M47.4,44.8c-0.8-0.1-1.3-0.5-1.3-1.4c0-0.8,0.6-1.3,1.4-1.3c0.8,0,1.2,0.5,1.2,1.3
		C48.7,44.2,48.2,44.7,47.4,44.8z"/>
	<path class="st184" d="M75.5,30.5c-0.8-0.1-1.3-0.5-1.3-1.3c0-0.8,0.5-1.3,1.3-1.3c0.8,0,1.2,0.5,1.3,1.3
		C76.8,29.9,76.3,30.4,75.5,30.5z"/>
	<path class="st184" d="M126.4,141.9c-0.8-0.1-1.4-0.5-1.4-1.4c0-0.8,0.5-1.3,1.4-1.3c0.8,0,1.2,0.5,1.3,1.3
		C127.7,141.4,127.1,141.8,126.4,141.9z"/>
	<path class="st184" d="M74.6,150.3c-0.1,0.9-0.5,1.4-1.4,1.4c-0.8,0-1.3-0.5-1.3-1.4c0-0.8,0.5-1.2,1.3-1.3
		C74.1,149.1,74.5,149.6,74.6,150.3z"/>
	<path class="st184" d="M148.1,61c-0.1,0.8-0.5,1.2-1.3,1.3c-0.7,0.1-1.4-0.7-1.3-1.3c0.1-0.8,0.5-1.2,1.3-1.2
		C147.6,59.8,148,60.3,148.1,61z"/>
	<path class="st184" d="M54.8,39.6c-0.8-0.1-1.3-0.5-1.4-1.3c0-0.8,0.5-1.3,1.3-1.4c0.8,0,1.3,0.5,1.4,1.3
		C56.1,39.1,55.6,39.5,54.8,39.6z"/>
	<path class="st184" d="M32,66.2c-0.1,0.8-0.5,1.2-1.3,1.3c-0.7,0.1-1.4-0.7-1.3-1.3c0.1-0.8,0.5-1.2,1.3-1.2
		C31.5,64.9,31.9,65.4,32,66.2z"/>
	<path class="st184" d="M119,144.4c0.8,0.1,1.3,0.5,1.3,1.4c0,0.8-0.5,1.3-1.3,1.2c-0.8,0-1.3-0.5-1.3-1.3
		C117.7,144.9,118.2,144.5,119,144.4z"/>
	<path class="st184" d="M26.3,92.2c-0.8-0.1-1.4-0.5-1.3-1.4c0-0.8,0.5-1.3,1.3-1.3c0.8,0,1.3,0.5,1.3,1.3
		C27.5,91.7,27,92.1,26.3,92.2z"/>
	<path class="st184" d="M125.2,36.7c0.8,0.1,1.4,0.6,1.3,1.4c0,0.8-0.6,1.3-1.4,1.3c-0.8,0-1.2-0.5-1.2-1.3
		C123.9,37.3,124.4,36.9,125.2,36.7z"/>
	<path class="st184" d="M28.4,77.3c0.9,0.1,1.4,0.5,1.4,1.4c0,0.8-0.5,1.3-1.3,1.3c-0.8,0-1.3-0.5-1.3-1.3
		C27.2,77.8,27.7,77.4,28.4,77.3z"/>
	<path class="st184" d="M45.9,132.7c-0.2,0.8-0.6,1.3-1.4,1.2c-0.8-0.1-1.3-0.6-1.2-1.4c0.1-0.8,0.6-1.3,1.4-1.2
		C45.4,131.3,45.8,131.8,45.9,132.7z"/>
	<path class="st184" d="M79.4,152.9c-0.8-0.2-1.3-0.6-1.2-1.4c0.1-0.8,0.6-1.3,1.4-1.2c0.8,0.1,1.3,0.6,1.2,1.4
		C80.8,152.4,80.2,152.8,79.4,152.9z"/>
	<path class="st184" d="M85.8,151.3c0.8,0.1,1.3,0.6,1.3,1.4c0,0.8-0.6,1.3-1.4,1.2c-0.8,0-1.2-0.5-1.2-1.3
		C84.5,151.8,85,151.4,85.8,151.3z"/>
	<path class="st184" d="M92,155c-0.7-0.1-1.2-0.5-1.3-1.2c-0.1-0.7,0.6-1.4,1.3-1.4c0.8,0.1,1.3,0.5,1.3,1.3
		C93.3,154.5,92.8,154.9,92,155z"/>
	<path class="st184" d="M137.9,46.3c-0.1,0.8-0.6,1.3-1.4,1.2c-0.8-0.1-1.2-0.6-1.2-1.4c0.1-0.7,0.5-1.2,1.3-1.2
		C137.4,45.1,137.8,45.6,137.9,46.3z"/>
	<path class="st184" d="M41.3,48.6c-0.1,0.8-0.5,1.2-1.3,1.2c-0.7,0-1.2-0.5-1.2-1.2c0-0.8,0.5-1.2,1.3-1.2
		C40.9,47.4,41.3,47.8,41.3,48.6z"/>
	<path class="st184" d="M152.8,106.7c-0.1,0.8-0.5,1.3-1.3,1.3c-0.8,0-1.3-0.5-1.2-1.3c0-0.7,0.5-1.2,1.2-1.2
		C152.3,105.4,152.7,105.9,152.8,106.7z"/>
	<path class="st184" d="M153.8,93c0.8,0.1,1.3,0.5,1.2,1.3c0,0.8-0.5,1.2-1.3,1.2c-0.7,0-1.2-0.5-1.2-1.2
		C152.5,93.5,153,93.1,153.8,93z"/>
	<path class="st184" d="M26.4,97.1c-0.1,0.8-0.5,1.2-1.3,1.2c-0.7,0-1.2-0.5-1.2-1.2c0-0.8,0.5-1.2,1.3-1.2
		C25.9,95.9,26.3,96.4,26.4,97.1z"/>
	<path class="st184" d="M27.9,110.8c0.1-0.8,0.5-1.3,1.3-1.3c0.8,0,1.3,0.5,1.3,1.3c0,0.7-0.5,1.2-1.2,1.3
		C28.5,112,28,111.5,27.9,110.8z"/>
	<path class="st184" d="M151.6,113c-0.1,0.8-0.5,1.2-1.3,1.2c-0.7,0-1.2-0.5-1.2-1.2c0-0.8,0.5-1.3,1.3-1.2
		C151.2,111.7,151.6,112.2,151.6,113z"/>
	<path class="st184" d="M140.8,131.6c-0.8-0.1-1.2-0.5-1.2-1.3c0-0.7,0.5-1.2,1.2-1.2c0.8,0,1.2,0.5,1.2,1.3
		C142,131.1,141.5,131.5,140.8,131.6z"/>
	<path class="st184" d="M50.9,139.9c-0.1,0.8-0.5,1.3-1.3,1.3c-0.8,0-1.3-0.5-1.3-1.3c0-0.7,0.5-1.2,1.2-1.2
		C50.4,138.6,50.8,139.1,50.9,139.9z"/>
	<path class="st184" d="M62.3,148.2c-0.1,0.8-0.5,1.2-1.3,1.2c-0.7,0-1.2-0.5-1.2-1.2c0-0.8,0.5-1.2,1.3-1.2
		C61.8,147,62.2,147.5,62.3,148.2z"/>
	<path class="st184" d="M111.6,152.1c-0.8-0.1-1.2-0.5-1.2-1.3c0-0.7,0.5-1.2,1.2-1.2c0.8,0,1.2,0.5,1.2,1.3
		C112.8,151.6,112.3,152,111.6,152.1z"/>
	<path class="st184" d="M90.4,25.2c-0.1,0.8-0.6,1.3-1.3,1.2c-0.7-0.1-1.2-0.5-1.1-1.3c0-0.8,0.5-1.2,1.3-1.2
		C89.9,24,90.3,24.5,90.4,25.2z"/>
	<path class="st184" d="M108.9,28.5c-0.1,0.8-0.5,1.3-1.3,1.3c-0.8,0-1.3-0.5-1.3-1.3c0-0.7,0.5-1.2,1.2-1.3
		C108.3,27.2,108.7,27.7,108.9,28.5z"/>
	<path class="st184" d="M115.1,29.6c-0.1,0.8-0.6,1.2-1.3,1.2c-0.7-0.1-1.2-0.5-1.1-1.3c0-0.8,0.5-1.2,1.3-1.2
		C114.7,28.4,115,28.9,115.1,29.6z"/>
	<path class="st184" d="M70.5,28c0,0.7-0.4,1.2-1.1,1.2c-0.8,0-1.3-0.4-1.2-1.2c0-0.7,0.4-1.2,1.2-1.2C70,26.9,70.4,27.3,70.5,28z"
		/>
	<path class="st184" d="M132.6,39.2c-0.1,0.7-0.4,1.2-1.2,1.2c-0.8,0-1.2-0.5-1.1-1.2c0-0.7,0.4-1.1,1.1-1.1
		C132.2,38,132.6,38.4,132.6,39.2z"/>
	<path class="st184" d="M154.8,89.2c-0.7-0.1-1.2-0.5-1.2-1.2c0-0.8,0.5-1.2,1.3-1.2c0.7,0,1.1,0.5,1.1,1.2
		C156,88.8,155.6,89.2,154.8,89.2z"/>
	<path class="st184" d="M44.6,138.9c-0.1,0.7-0.4,1.1-1.2,1.1c-0.7,0-1.1-0.4-1.1-1.1c0-0.8,0.4-1.2,1.2-1.1
		C44.2,137.7,44.5,138.2,44.6,138.9z"/>
	<path class="st184" d="M33.2,122.9c0.7,0.1,1.2,0.4,1.2,1.2c0,0.8-0.5,1.2-1.2,1.1c-0.7,0-1.1-0.4-1.1-1.1
		C32,123.4,32.4,123,33.2,122.9z"/>
	<path class="st184" d="M38.3,132.6c-0.8-0.1-1.2-0.5-1.2-1.2c0-0.8,0.5-1.2,1.2-1.1c0.7,0,1.1,0.5,1.1,1.2
		C39.5,132.2,39,132.6,38.3,132.6z"/>
	<path class="st184" d="M157.1,81.7c-0.1,0.8-0.4,1.2-1.2,1.2c-0.7,0-1.1-0.4-1.1-1.1c0-0.8,0.4-1.2,1.2-1.2
		C156.7,80.6,157.1,81.1,157.1,81.7z"/>
	<path class="st184" d="M84,24c0,0.7-0.4,1.2-1.2,1.2c-0.8,0-1.2-0.4-1.2-1.2c0-0.7,0.4-1.1,1.1-1.1C83.6,22.8,84,23.2,84,24z"/>
	<path class="st184" d="M153.1,68.4c0,0.7-0.4,1.2-1.2,1.2c-0.8,0-1.2-0.4-1.2-1.2c0-0.7,0.4-1.1,1.1-1.1
		C152.7,67.2,153.1,67.6,153.1,68.4z"/>
	<path class="st184" d="M25.2,103.4c-0.1,0.7-0.4,1.1-1.1,1.1c-0.8,0-1.2-0.4-1.2-1.2c0-0.7,0.4-1.1,1.1-1.1
		C24.8,102.3,25.1,102.7,25.2,103.4z"/>
	<path class="st184" d="M49.7,37.1c0,0.7-0.4,1.2-1.1,1.2c-0.8,0-1.2-0.4-1.2-1.1c0-0.7,0.4-1.1,1.1-1.1
		C49.2,36,49.6,36.4,49.7,37.1z"/>
	<path class="st184" d="M31.9,58.7c0.7,0.1,1.2,0.5,1.2,1.2c0,0.8-0.5,1.2-1.3,1.2c-0.7,0-1.1-0.5-1.1-1.2
		C30.7,59.1,31.1,58.8,31.9,58.7z"/>
	<path class="st184" d="M149.3,117.8c0.8,0.1,1.2,0.5,1.1,1.2c0,0.8-0.5,1.1-1.3,1.1c-0.7,0-1.1-0.5-1.1-1.2
		C148.1,118.2,148.6,117.8,149.3,117.8z"/>
	<path class="st184" d="M99.4,154.9c-0.1,0.7-0.5,1.2-1.2,1.1c-0.8,0-1.2-0.5-1.2-1.3c0.1-0.7,0.5-1.1,1.3-1.1
		C99.1,153.7,99.4,154.2,99.4,154.9z"/>
	<path class="st184" d="M120.1,31.9c-0.7-0.1-1.1-0.4-1.2-1.1c0-0.8,0.4-1.2,1.2-1.2c0.8,0,1.2,0.5,1.1,1.2
		C121.2,31.5,120.7,31.8,120.1,31.9z"/>
	<path class="st184" d="M28.1,115.8c0.7,0.1,1.1,0.5,1.1,1.2c0,0.7-0.4,1.1-1.1,1.1c-0.8,0-1.2-0.4-1.1-1.2
		C26.9,116.2,27.4,115.9,28.1,115.8z"/>
	<path class="st184" d="M55.9,147.2c0,0.7-0.4,1.1-1.1,1.2c-0.8,0-1.2-0.4-1.2-1.2c0-0.7,0.4-1.1,1.1-1.1
		C55.5,146.1,55.9,146.6,55.9,147.2z"/>
	<path class="st184" d="M125.1,145.7c0.8,0.1,1.2,0.4,1.2,1.1c0,0.8-0.4,1.2-1.2,1.2c-0.7,0-1.1-0.4-1.1-1.1
		C124.1,146.1,124.5,145.8,125.1,145.7z"/>
	<path class="st184" d="M132.6,142.9c-0.7,0-1.1-0.4-1.2-1.1c0-0.8,0.4-1.2,1.1-1.2c0.7,0,1.1,0.4,1.1,1.1
		C133.7,142.4,133.3,142.8,132.6,142.9z"/>
	<path class="st184" d="M57.1,32c-0.1,0.7-0.5,1.1-1.2,1.1c-0.7,0-1.1-0.4-1.1-1.1c0-0.8,0.4-1.2,1.2-1.1C56.7,31,57,31.4,57.1,32z"
		/>
	<path class="st184" d="M104.3,157.1c-0.7-0.1-1.1-0.4-1.2-1.1c0-0.7,0.4-1.1,1.1-1.2c0.7,0,1.1,0.4,1.2,1.1
		C105.4,156.6,105,157,104.3,157.1z"/>
	<path class="st184" d="M126.3,30.7c0.7,0.1,1.1,0.4,1.1,1.1c0,0.7-0.4,1.1-1.1,1.1c-0.6,0-1-0.4-1.1-1
		C125.2,31.2,125.6,30.8,126.3,30.7z"/>
	<path class="st184" d="M41.1,43.4c-0.7-0.1-1.1-0.5-1.1-1.2c0-0.7,0.5-1.1,1.2-1.1c0.7,0,1.1,0.5,1.1,1.2
		C42.3,43.1,41.8,43.4,41.1,43.4z"/>
	<path class="st184" d="M149.3,125.1c-0.1,0.7-0.5,1.2-1.2,1.2c-0.7,0-1.1-0.5-1.1-1.2c0-0.6,0.4-1,1.1-1
		C148.9,124.1,149.2,124.6,149.3,125.1z"/>
	<path class="st184" d="M117.9,153.1c-0.7-0.1-1.2-0.5-1.1-1.2c0-0.6,0.4-1,1.1-1c0.7,0,1.1,0.4,1.1,1.1
		C119,152.7,118.5,153,117.9,153.1z"/>
	<path class="st184" d="M23.4,77.5c-0.1,0.7-0.4,1.1-1.1,1.1c-0.7,0-1.1-0.4-1.1-1.1c0-0.6,0.4-1,1-1.1
		C22.9,76.4,23.3,76.8,23.4,77.5z"/>
	<path class="st184" d="M149.1,54.7c-0.1,0.7-0.5,1.2-1.2,1.2c-0.7,0-1.1-0.4-1.1-1.1c0-0.7,0.4-1.1,1.1-1.1
		C148.7,53.7,149,54.1,149.1,54.7z"/>
	<path class="st184" d="M32.6,52.5c0.8,0.1,1.2,0.4,1.2,1.1c0,0.7-0.4,1.1-1.1,1.2c-0.7,0-1.1-0.4-1.2-1.1
		C31.6,53,32,52.7,32.6,52.5z"/>
	<path class="st184" d="M77.8,22.9c-0.1,0.7-0.5,1.1-1.2,1.1c-0.6,0-1-0.4-1.1-1.1c0-0.7,0.4-1.1,1.1-1.1
		C77.3,21.8,77.7,22.3,77.8,22.9z"/>
	<path class="st184" d="M156.9,74.4c0.7,0.1,1.1,0.5,1.1,1.2c0,0.6-0.4,1-1.1,1.1c-0.7,0-1.1-0.4-1.1-1.1
		C155.8,74.8,156.2,74.5,156.9,74.4z"/>
	<path class="st184" d="M63,28.3c-0.7-0.1-1.1-0.4-1.1-1.1c0-0.7,0.5-1.1,1.1-1.1c0.6,0,1,0.4,1.1,1.1C64.2,27.8,63.7,28.2,63,28.3z
		"/>
	<path class="st184" d="M139.7,137.7c-0.7-0.1-1.1-0.5-1.1-1.2c0-0.6,0.4-1,1.1-1.1c0.7,0,1.1,0.4,1.1,1.1
		C140.8,137.3,140.4,137.6,139.7,137.7z"/>
	<path class="st184" d="M144,47.4c-0.1,0.7-0.5,1.2-1.2,1.2c-0.7,0-1.1-0.4-1.1-1.1c0-0.7,0.4-1.1,1.1-1.1
		C143.6,46.3,143.9,46.8,144,47.4z"/>
	<path class="st184" d="M73.3,156.6c-0.1,0.7-0.5,1.1-1.2,1.1c-0.6,0-1-0.4-1-1.1c0-0.7,0.4-1.1,1.1-1.1
		C72.8,155.6,73.2,156,73.3,156.6z"/>
	<path class="st184" d="M23.4,70.2c0.7,0.2,1.1,0.5,1.1,1.2c-0.1,0.6-0.5,1-1.1,1c-0.7,0-1.1-0.5-1-1.2
		C22.3,70.5,22.8,70.2,23.4,70.2z"/>
	<path class="st184" d="M67,155.5c-0.1,0.6-0.4,1.1-1,1.1c-0.7,0-1.1-0.4-1.1-1.1c0-0.6,0.4-1,1.1-1.1
		C66.6,154.4,66.9,154.9,67,155.5z"/>
	<path class="st184" d="M137.7,39.2c0.7,0.1,1.1,0.5,1.1,1.2c0,0.6-0.4,1-1.1,1c-0.7,0-1.1-0.4-1.1-1.1
		C136.6,39.6,137.1,39.3,137.7,39.2z"/>
	<path class="st184" d="M21.2,84.6c-0.7-0.1-1.1-0.4-1.1-1.1c0-0.6,0.4-1.1,1-1.1c0.7,0,1.1,0.4,1.1,1.1
		C22.2,84.2,21.8,84.5,21.2,84.6z"/>
	<path class="st184" d="M79.5,157.7c-0.1,0.7-0.4,1.2-1.1,1.2c-0.6,0-1-0.4-1.1-1.1c0-0.7,0.4-1.1,1.1-1.1
		C79.1,156.7,79.4,157.1,79.5,157.7z"/>
	<path class="st184" d="M152.8,61c0.7,0.1,1.1,0.4,1.1,1.1c0,0.6-0.4,1.1-1,1.1c-0.7,0-1.1-0.4-1.1-1.1
		C151.8,61.5,152.2,61.2,152.8,61z"/>
	<path class="st184" d="M84.6,160c-0.6-0.1-1-0.5-1-1.1c0-0.7,0.4-1.1,1.1-1.1c0.7,0,1.1,0.5,1,1.2C85.7,159.6,85.2,159.9,84.6,160z
		"/>
	<path class="st184" d="M49.6,146.1c-0.1,0.6-0.4,1.1-1,1.1c-0.7,0-1.1-0.4-1.1-1.1c0-0.6,0.4-1,1.1-1
		C49.2,145.1,49.5,145.5,49.6,146.1z"/>
	<path class="st184" d="M25.6,65c-0.1,0.6-0.4,1.1-1,1.1c-0.7,0-1.1-0.4-1.1-1.1c0-0.6,0.4-1,1-1.1C25.1,64,25.4,64.4,25.6,65z"/>
	<path class="st184" d="M21.1,89.8c-0.1,0.6-0.5,1-1.1,1c-0.6,0-1.1-0.4-1.1-1c0-0.7,0.4-1.1,1.1-1.1C20.7,88.7,21,89.2,21.1,89.8z"
		/>
	<path class="st184" d="M102.5,20c0.6,0.1,1,0.5,1,1.1c0,0.7-0.5,1.1-1.2,1c-0.6-0.1-1-0.5-1-1.1C101.5,20.4,101.9,20.1,102.5,20z"
		/>
	<path class="st184" d="M24,109.6c-0.1,0.7-0.4,1.1-1.1,1.1c-0.7,0-1.1-0.4-1.1-1.1c0-0.6,0.5-1,1.1-1C23.6,108.6,23.9,109,24,109.6
		z"/>
	<path class="st184" d="M90.3,19.9c-0.6,0-1-0.3-1-0.9c0-0.6,0.3-1.1,1-1.1c0.6,0,1,0.3,1,0.9C91.3,19.5,90.9,19.8,90.3,19.9z"/>
	<path class="st184" d="M25.6,59.8c-0.6,0-1-0.4-1-0.9c0-0.6,0.3-1.1,1-1.1c0.6,0,1,0.4,1,1C26.6,59.4,26.2,59.8,25.6,59.8z"/>
	<path class="st184" d="M116,23.4c-0.1,0.7-0.5,1-1.1,1c-0.6,0-0.9-0.5-0.9-1c0-0.6,0.5-1,1.1-1C115.7,22.4,115.9,22.8,116,23.4z"/>
	<path class="st184" d="M32.1,131.4c-0.6-0.1-1.1-0.4-1.1-1c0-0.6,0.4-1.1,1-1.1c0.6,0,1.1,0.4,1.1,1
		C33.1,130.9,32.7,131.3,32.1,131.4z"/>
	<path class="st184" d="M71.5,22c-0.1,0.6-0.5,1-1.1,1c-0.6,0-1-0.4-1-1.1c0-0.6,0.4-1,1.1-1C71,21,71.4,21.4,71.5,22z"/>
	<path class="st184" d="M161.1,95.3c-0.1,0.6-0.4,1-1,1.1s-1.1-0.4-1.1-1c0-0.6,0.4-1.1,1-1.1C160.6,94.3,160.9,94.7,161.1,95.3z"/>
	<path class="st184" d="M17.9,96c0-0.6,0.4-1,0.9-1c0.6,0,1.1,0.3,1.1,1c0,0.6-0.3,1-0.9,1C18.3,97.1,18,96.7,17.9,96z"/>
	<path class="st184" d="M92,160c-0.1,0.6-0.5,1-1.1,1c-0.6,0-1-0.4-1-1.1c0-0.6,0.4-1,1.1-1C91.6,159,91.9,159.4,92,160z"/>
	<path class="st184" d="M109.4,157.1c0.1-0.7,0.5-1.1,1.1-1.1c0.6,0,1,0.4,1,1.1c0,0.6-0.4,1-1.1,1
		C109.8,158.1,109.5,157.7,109.4,157.1z"/>
	<path class="st184" d="M132.5,34c-0.6-0.1-1-0.5-1-1.1c0-0.6,0.4-0.9,1-0.9c0.6,0,1,0.4,1,1.1C133.5,33.6,133.1,33.9,132.5,34z"/>
	<path class="st184" d="M157.7,114.1c-0.1,0.6-0.4,1-1.1,1c-0.6,0-1-0.4-1-1c0-0.6,0.4-1,1.1-1C157.3,113.1,157.6,113.5,157.7,114.1
		z"/>
	<path class="st184" d="M159,69.5c0,0.6-0.3,1-0.9,1c-0.6,0-1.1-0.3-1.1-1c0-0.6,0.3-1,0.9-1C158.5,68.5,158.9,68.8,159,69.5z"/>
	<path class="st184" d="M59.9,155.4c-0.5,0-0.9-0.3-1-0.9c-0.1-0.6,0.3-1.1,1-1.1c0.6,0,1,0.4,1,1C60.9,155,60.6,155.4,59.9,155.4z"
		/>
	<path class="st184" d="M50.7,31.1c0,0.6-0.4,1-0.9,1c-0.6,0-1.1-0.3-1.1-1c0-0.6,0.4-1,1-1C50.3,30.2,50.6,30.5,50.7,31.1z"/>
	<path class="st184" d="M96.4,19c0.6,0.1,1.1,0.4,1.1,1c0,0.6-0.4,1.1-1,1.1c-0.6,0-1.1-0.4-1.1-1C95.4,19.4,95.8,19.1,96.4,19z"/>
	<path class="st184" d="M37.2,138.7c-0.6-0.1-1-0.4-1-1.1c0-0.6,0.4-1,1-0.9c0.6,0,1,0.4,1,1.1C38.2,138.3,37.8,138.7,37.2,138.7z"
		/>
	<path class="st184" d="M159.9,101.6c-0.1,0.6-0.5,1-1.1,1c-0.6,0-1-0.4-1-1.1c0-0.6,0.4-1,1.1-1C159.5,100.6,159.9,101,159.9,101.6
		z"/>
	<path class="st184" d="M157.7,108.9c-0.6-0.1-1-0.5-1-1.1c0-0.6,0.4-1,1.1-1c0.6,0,1,0.4,1,1.1
		C158.8,108.5,158.4,108.8,157.7,108.9z"/>
	<path class="st184" d="M147.1,130.4c0.6,0.1,1,0.4,1,1.1c0,0.6-0.4,1-1,1c-0.6,0-1-0.4-1-1C146.1,130.8,146.5,130.5,147.1,130.4z"
		/>
	<path class="st184" d="M33.8,48.5c-0.6-0.1-1-0.5-1-1.1c0-0.6,0.4-1,1.1-1c0.6,0,1,0.4,1,1.1C34.9,48.1,34.4,48.4,33.8,48.5z"/>
	<path class="st184" d="M108.7,21.2c0.6,0.1,1,0.4,1.1,1c0,0.6-0.4,1.1-1,1.1c-0.6,0-1.1-0.4-1.1-1
		C107.7,21.6,108.1,21.3,108.7,21.2z"/>
	<path class="st184" d="M160.9,90.1c-0.6-0.1-1-0.4-1-1.1c0-0.6,0.4-1,1-1c0.6,0,1,0.4,1,1.1C161.9,89.7,161.5,90.1,160.9,90.1z"/>
	<path class="st184" d="M27.9,123c0,0.6-0.4,1-0.9,1c-0.6,0-1.1-0.3-1.1-1c0-0.6,0.4-1,1-1C27.6,122,27.9,122.4,27.9,123z"/>
	<path class="st184" d="M21.8,114.9c0.6,0.1,0.9,0.4,0.9,1c0,0.6-0.4,0.9-0.9,0.9c-0.6,0-1-0.3-1-0.9
		C20.9,115.2,21.2,114.9,21.8,114.9z"/>
	<path class="st184" d="M97.2,162.1c-0.6,0-1-0.3-1-0.9c0-0.6,0.3-1,0.9-1c0.6,0,1,0.3,1,0.9C98.1,161.7,97.8,162,97.2,162.1z"/>
	<path class="st184" d="M154.9,55.9c0,0.6-0.4,1-1,0.9c-0.6,0-0.9-0.4-0.9-1c0-0.6,0.4-0.9,0.9-0.9C154.6,55,154.9,55.3,154.9,55.9z
		"/>
	<path class="st184" d="M156.5,120.1c0,0.6-0.4,1-1,0.9c-0.6,0-0.9-0.4-0.9-1c0-0.6,0.4-0.9,0.9-0.9
		C156.1,119.1,156.4,119.5,156.5,120.1z"/>
	<path class="st184" d="M42.3,35.1c0.6,0.1,1,0.4,1,1c0,0.6-0.4,1-1,1c-0.6,0-1-0.4-1-1C41.3,35.4,41.7,35.1,42.3,35.1z"/>
	<path class="st184" d="M84,19c-0.7-0.1-1-0.4-1-1c0-0.6,0.4-0.9,0.9-0.9c0.6,0,1,0.3,1,0.9C84.9,18.6,84.5,18.9,84,19z"/>
	<path class="st184" d="M132.4,147.9c0,0.6-0.4,1-1,1c-0.6,0-1-0.3-1-1c0-0.6,0.3-1,1-1C132.1,147,132.4,147.3,132.4,147.9z"/>
	<path class="st184" d="M58,26c0,0.6-0.3,1-1,1c-0.6,0-1-0.3-1-1c0-0.6,0.3-1,1-1C57.6,25.1,57.9,25.4,58,26z"/>
	<path class="st184" d="M149.8,48.5c0,0.6-0.4,1-1,0.9c-0.6,0-0.9-0.4-0.9-1c0-0.6,0.4-0.9,0.9-0.9
		C149.4,47.6,149.7,47.9,149.8,48.5z"/>
	<path class="st184" d="M43.3,145c0,0.6-0.4,1-1,0.9c-0.6,0-0.9-0.4-0.9-1c0-0.6,0.3-0.9,0.9-0.9C42.9,144.1,43.2,144.4,43.3,145z"
		/>
	<path class="st184" d="M122.2,24.5c-0.1,0.6-0.4,0.9-1,0.9c-0.6,0-0.9-0.4-0.9-0.9c0-0.6,0.3-1,0.9-1
		C121.8,23.5,122.1,23.9,122.2,24.5z"/>
	<path class="st184" d="M139.8,142.8c0,0.6-0.3,1-0.9,1c-0.6,0-0.9-0.3-0.9-1c0-0.6,0.3-0.9,0.9-0.9
		C139.4,141.9,139.7,142.2,139.8,142.8z"/>
	<path class="st184" d="M162.9,82.9c-0.1,0.6-0.4,0.9-1,0.9c-0.6,0-0.9-0.3-0.9-0.9c0-0.6,0.3-1,0.9-1
		C162.6,81.9,162.9,82.3,162.9,82.9z"/>
	<path class="st184" d="M124.1,154c-0.6,0-1-0.3-1-0.9c0-0.6,0.3-1,0.9-1c0.6,0,1,0.3,1,0.9C125.1,153.6,124.8,154,124.1,154z"/>
	<path class="st184" d="M42.5,30c0.1-0.5,0.3-0.9,0.9-0.9c0.6,0,0.9,0.4,0.9,0.9c0,0.5-0.4,0.8-0.9,0.8C42.9,30.9,42.6,30.5,42.5,30
		z"/>
	<path class="st184" d="M15.8,82.6c0,0.5-0.3,0.9-0.8,0.9c-0.6,0-0.9-0.3-0.9-0.9c0-0.5,0.3-0.8,0.8-0.9
		C15.4,81.8,15.7,82.1,15.8,82.6z"/>
	<path class="st184" d="M128.3,25.6c-0.1,0.5-0.3,0.9-0.9,0.9c-0.6,0-0.9-0.4-0.9-0.9c0-0.5,0.3-0.8,0.8-0.8
		C128,24.7,128.3,25,128.3,25.6z"/>
	<path class="st184" d="M50.8,25.8c-0.5-0.1-0.8-0.4-0.8-0.9c0-0.5,0.3-0.9,0.8-0.9c0.6,0,0.9,0.3,0.9,0.9
		C51.6,25.5,51.3,25.7,50.8,25.8z"/>
	<path class="st184" d="M155.3,126.3c0,0.6-0.3,0.9-0.9,1c-0.6,0-0.9-0.3-0.9-0.8c0-0.6,0.3-0.9,0.8-0.9
		C154.9,125.4,155.2,125.7,155.3,126.3z"/>
	<path class="st184" d="M30.9,137.5c-0.5-0.1-0.9-0.4-0.8-1c0.1-0.5,0.4-0.9,1-0.8c0.5,0.1,0.8,0.4,0.8,0.9
		C31.8,137.2,31.4,137.4,30.9,137.5z"/>
	<path class="st184" d="M17.6,108.5c0,0.5-0.3,0.9-0.8,0.9c-0.6,0-0.9-0.3-0.9-0.9c0-0.5,0.3-0.8,0.9-0.8
		C17.2,107.6,17.5,108,17.6,108.5z"/>
	<path class="st184" d="M159.1,62.4c0.5,0.1,0.9,0.3,0.9,0.9c0,0.6-0.4,0.9-0.9,0.9c-0.5,0-0.8-0.3-0.8-0.8
		C158.2,62.7,158.5,62.4,159.1,62.4z"/>
	<path class="st184" d="M65.1,20.9c0,0.6-0.3,0.9-0.9,1c-0.6,0-0.9-0.3-0.9-0.8c0-0.6,0.3-0.9,0.8-0.9C64.7,20,65,20.3,65.1,20.9z"
		/>
	<path class="st184" d="M26.7,129.2c0,0.6-0.3,0.9-0.9,0.9c-0.6,0-0.9-0.3-0.9-0.9c0-0.5,0.3-0.8,0.8-0.9
		C26.3,128.3,26.6,128.6,26.7,129.2z"/>
	<path class="st184" d="M78.7,16.9c-0.1,0.5-0.4,0.9-0.9,0.9c-0.6,0-0.9-0.4-0.9-0.9c0-0.6,0.4-0.9,0.9-0.9
		C78.3,16,78.6,16.4,78.7,16.9z"/>
	<path class="st184" d="M17.8,103.2c-0.6,0-0.9-0.3-0.9-0.9c0-0.6,0.3-1,1-1c0.6,0,0.9,0.4,0.9,0.9
		C18.7,102.8,18.4,103.1,17.8,103.2z"/>
	<path class="st184" d="M145.8,136.8c0.6,0.1,1,0.3,1,0.9c0,0.6-0.3,0.9-0.9,0.9c-0.6,0-0.9-0.3-0.9-0.9
		C145,137.1,145.4,136.9,145.8,136.8z"/>
	<path class="st184" d="M47.5,153.1c-0.5,0-0.9-0.3-0.9-0.8c0-0.6,0.3-0.9,0.9-0.9c0.5,0,0.8,0.3,0.8,0.9
		C48.3,152.7,48,153,47.5,153.1z"/>
	<path class="st184" d="M163.1,75.7c0.5,0.1,0.9,0.3,0.9,0.9c0,0.6-0.4,0.9-0.9,0.9c-0.5,0-0.8-0.3-0.8-0.8
		C162.2,76.1,162.6,75.8,163.1,75.7z"/>
	<path class="st184" d="M15.9,75.5c0.6,0.1,1,0.4,1,0.9c0,0.6-0.4,0.9-0.9,0.9c-0.5,0-0.8-0.3-0.8-0.8
		C15.1,75.9,15.5,75.6,15.9,75.5z"/>
	<path class="st184" d="M53.6,152.4c0.6,0,0.9,0.3,1,0.9c0,0.6-0.3,1-0.9,1c-0.6,0-0.9-0.3-0.9-0.9
		C52.7,152.7,53.1,152.4,53.6,152.4z"/>
	<path class="st184" d="M117.7,158.2c-0.1,0.6-0.4,0.9-0.9,0.9c-0.6,0-0.9-0.4-0.9-1c0-0.6,0.4-0.9,1-0.8
		C117.4,157.3,117.6,157.7,117.7,158.2z"/>
	<path class="st184" d="M104.3,162.2c-0.1,0.6-0.4,1-0.9,0.9c-0.6,0-1-0.4-0.9-1c0-0.6,0.4-0.9,1-0.8
		C104,161.3,104.3,161.7,104.3,162.2z"/>
	<path class="st184" d="M144,42.1c-0.6,0-0.9-0.3-0.9-0.9c0-0.6,0.3-1,1-1c0.6,0,0.9,0.4,0.9,0.9C144.8,41.8,144.5,42.1,144,42.1z"
		/>
	<path class="st184" d="M71,162c0.5,0.1,0.9,0.3,0.9,0.8c0,0.6-0.3,0.9-0.9,0.9c-0.5,0-0.8-0.4-0.8-0.9
		C70.2,162.4,70.5,162.1,71,162z"/>
	<path class="st184" d="M34,41.2c0-0.6,0.3-0.9,0.9-0.9c0.6,0,1,0.3,0.9,1c0,0.6-0.4,0.9-0.9,0.9C34.4,42.1,34.1,41.8,34,41.2z"/>
	<path class="st184" d="M78.2,164c-0.1,0.6-0.3,0.9-0.9,0.9c-0.6,0-0.9-0.3-0.9-0.9c0-0.5,0.3-0.8,0.8-0.9
		C77.8,163.1,78.1,163.4,78.2,164z"/>
	<path class="st184" d="M26.7,51.6c0.6,0.1,0.9,0.4,0.9,0.9c0,0.6-0.4,0.9-1,0.9c-0.6,0-0.9-0.4-0.8-1
		C25.8,51.9,26.2,51.7,26.7,51.6z"/>
	<path class="st184" d="M84.4,165.1c-0.1,0.5-0.3,0.9-0.9,0.9c-0.6,0-0.9-0.4-0.9-0.9c0-0.5,0.4-0.8,0.9-0.8
		C84.1,164.3,84.3,164.6,84.4,165.1z"/>
	<path class="st184" d="M17.1,71.1c-0.5-0.1-0.9-0.4-0.9-0.9c0-0.5,0.3-0.9,0.8-0.9c0.6,0,0.9,0.3,0.9,0.9
		C18,70.7,17.6,71,17.1,71.1z"/>
	<path class="st184" d="M139.7,34.1c-0.1,0.5-0.4,0.9-0.9,0.9c-0.6,0-0.9-0.4-0.8-0.9c0-0.5,0.3-0.8,0.9-0.8
		C139.4,33.2,139.6,33.5,139.7,34.1z"/>
	<path class="st184" d="M166,102.7c-0.1,0.5-0.3,0.8-0.8,0.9c-0.5,0-0.8-0.3-0.9-0.8c0-0.5,0.3-0.8,0.8-0.9
		C165.6,101.8,165.9,102.2,166,102.7z"/>
	<path class="st184" d="M72.4,15.8c-0.1,0.5-0.3,0.8-0.8,0.9c-0.5,0-0.8-0.3-0.9-0.8c0-0.5,0.3-0.8,0.8-0.9
		C72,14.9,72.3,15.3,72.4,15.8z"/>
	<path class="st184" d="M20.2,57.7c0,0.5-0.3,0.8-0.8,0.8c-0.5,0-0.8-0.3-0.8-0.7c0-0.5,0.3-0.9,0.8-0.9
		C19.8,56.9,20.1,57.2,20.2,57.7z"/>
	<path class="st184" d="M103.6,15.8c-0.5-0.1-0.8-0.3-0.9-0.8c0-0.5,0.3-0.8,0.8-0.9c0.5,0,0.8,0.3,0.9,0.8
		C104.5,15.4,104.1,15.7,103.6,15.8z"/>
	<path class="st184" d="M19.8,121.9c0.1-0.5,0.4-0.8,0.9-0.8c0.5,0,0.8,0.4,0.8,0.9c0,0.5-0.4,0.8-0.9,0.8
		C20.2,122.7,19.9,122.3,19.8,121.9z"/>
	<path class="st184" d="M96,168.1c-0.5-0.1-0.8-0.3-0.8-0.8c0-0.5,0.3-0.8,0.9-0.8c0.5,0,0.8,0.4,0.7,0.8
		C96.8,167.8,96.5,168.1,96,168.1z"/>
	<path class="st184" d="M90.5,12.9c0.1-0.5,0.3-0.8,0.8-0.8c0.5,0,0.8,0.3,0.8,0.9c0,0.5-0.4,0.8-0.8,0.7
		C90.8,13.7,90.6,13.3,90.5,12.9z"/>
	<path class="st184" d="M98.2,14c-0.1,0.5-0.4,0.8-0.9,0.8c-0.5,0-0.8-0.4-0.8-0.9c0-0.5,0.4-0.8,0.9-0.8
		C97.9,13.2,98.2,13.5,98.2,14z"/>
	<path class="st184" d="M90.6,166.2c-0.1,0.5-0.4,0.8-0.9,0.8c-0.5,0-0.8-0.4-0.8-0.9c0-0.5,0.4-0.8,0.9-0.8
		C90.3,165.4,90.6,165.7,90.6,166.2z"/>
	<path class="st184" d="M165,70.6c-0.1,0.5-0.3,0.8-0.8,0.8c-0.5,0-0.8-0.4-0.8-0.9c0-0.5,0.4-0.7,0.8-0.7
		C164.7,69.9,165,70.2,165,70.6z"/>
	<path class="st184" d="M12.7,95.7c-0.5-0.1-0.8-0.3-0.8-0.8c0-0.5,0.4-0.8,0.9-0.8c0.5,0,0.7,0.4,0.7,0.8
		C13.4,95.4,13.1,95.7,12.7,95.7z"/>
	<path class="st184" d="M138.6,149.1c-0.1,0.5-0.4,0.8-0.9,0.8c-0.5,0-0.8-0.4-0.8-0.9c0-0.5,0.4-0.8,0.9-0.8
		C138.2,148.2,138.5,148.6,138.6,149.1z"/>
	<path class="st184" d="M19.1,63.9c-0.1,0.5-0.3,0.8-0.8,0.9c-0.5,0-0.8-0.3-0.9-0.8c0-0.5,0.3-0.8,0.8-0.9
		C18.7,63.1,19,63.4,19.1,63.9z"/>
	<path class="st184" d="M166.9,96.4c-0.1,0.5-0.3,0.8-0.8,0.9c-0.5,0-0.8-0.3-0.9-0.8c0-0.5,0.3-0.8,0.8-0.9
		C166.5,95.6,166.8,95.9,166.9,96.4z"/>
	<path class="st184" d="M14.6,88.6c-0.1,0.5-0.3,0.9-0.8,0.9c-0.5,0-0.8-0.3-0.9-0.8c0-0.5,0.3-0.8,0.8-0.9
		C14.3,87.8,14.5,88.2,14.6,88.6z"/>
	<path class="st184" d="M109.4,162.5c0.5,0.1,0.8,0.4,0.8,0.9c0,0.5-0.4,0.8-0.9,0.8c-0.5,0-0.8-0.4-0.8-0.9
		C108.6,162.8,108.9,162.5,109.4,162.5z"/>
	<path class="st184" d="M57.9,19c0.5,0.1,0.8,0.3,0.8,0.8c0,0.5-0.3,0.8-0.9,0.8c-0.5,0-0.8-0.4-0.7-0.8C57.1,19.3,57.4,19,57.9,19z
		"/>
	<path class="st184" d="M144.8,144.7c-0.5,0-0.8-0.3-0.8-0.8c0-0.5,0.3-0.8,0.7-0.8c0.5,0,0.9,0.3,0.9,0.8
		C145.6,144.4,145.3,144.7,144.8,144.7z"/>
	<path class="st184" d="M65.9,161.7c-0.1,0.5-0.3,0.9-0.8,0.9c-0.5,0-0.8-0.3-0.9-0.8c0-0.5,0.3-0.8,0.8-0.9
		C65.5,160.9,65.8,161.3,65.9,161.7z"/>
	<path class="st184" d="M155.9,49.7c0,0.4-0.3,0.7-0.7,0.8c-0.5,0-0.8-0.2-0.9-0.7c-0.1-0.5,0.3-0.9,0.8-0.9
		C155.5,48.9,155.8,49.2,155.9,49.7z"/>
	<path class="st184" d="M164.9,109c-0.1,0.5-0.4,0.8-0.9,0.8c-0.5,0-0.8-0.4-0.8-0.9c0-0.5,0.4-0.8,0.9-0.8
		C164.5,108.1,164.8,108.5,164.9,109z"/>
	<path class="st184" d="M27.6,47.2c-0.5-0.1-0.8-0.3-0.9-0.8c0-0.5,0.3-0.8,0.8-0.9c0.5,0,0.8,0.3,0.9,0.8
		C28.5,46.8,28.1,47.1,27.6,47.2z"/>
	<path class="st184" d="M59.6,160.7c-0.1,0.5-0.3,0.8-0.8,0.8c-0.5,0-0.8-0.3-0.8-0.8c0-0.5,0.3-0.8,0.8-0.7
		C59.3,159.9,59.5,160.2,59.6,160.7z"/>
	<path class="st184" d="M123,158.5c0.5,0.1,0.8,0.3,0.8,0.8c0,0.5-0.4,0.8-0.9,0.8c-0.5,0-0.7-0.4-0.7-0.8
		C122.2,158.8,122.5,158.6,123,158.5z"/>
	<path class="st184" d="M150.8,42.3c0,0.5-0.3,0.8-0.8,0.8c-0.5,0-0.8-0.3-0.8-0.7c0-0.5,0.3-0.9,0.8-0.9
		C150.4,41.5,150.7,41.8,150.8,42.3z"/>
	<path class="st184" d="M36.9,143.9c-0.1,0.5-0.3,0.8-0.8,0.9c-0.5,0-0.8-0.3-0.9-0.8c0-0.5,0.3-0.8,0.8-0.9
		C36.5,143.1,36.8,143.4,36.9,143.9z"/>
	<path class="st184" d="M167.1,91c-0.5,0-0.8-0.3-0.8-0.8c0-0.5,0.3-0.8,0.7-0.8c0.5,0,0.9,0.3,0.9,0.8
		C167.9,90.7,167.6,91,167.1,91z"/>
	<path class="st184" d="M133.7,27.5c-0.4,0-0.8-0.3-0.8-0.7c0-0.5,0.2-0.8,0.7-0.8c0.5-0.1,0.9,0.3,0.9,0.8
		C134.5,27.2,134.2,27.4,133.7,27.5z"/>
	<path class="st184" d="M163.7,115c-0.1,0.5-0.3,0.8-0.8,0.8c-0.5,0-0.8-0.4-0.8-0.9c0-0.5,0.4-0.7,0.8-0.7
		C163.4,114.2,163.6,114.5,163.7,115z"/>
	<path class="st184" d="M116.1,16.3c0.5,0.1,0.8,0.3,0.8,0.8c0,0.5-0.3,0.8-0.9,0.8c-0.5,0-0.8-0.4-0.7-0.8
		C115.3,16.6,115.6,16.4,116.1,16.3z"/>
	<path class="st184" d="M153.3,131.7c0.5,0.1,0.8,0.4,0.8,0.9c0,0.5-0.4,0.8-0.9,0.8c-0.5,0-0.8-0.4-0.8-0.9
		C152.5,132,152.8,131.8,153.3,131.7z"/>
	<path class="st184" d="M130.3,153.3c0.5,0.1,0.8,0.3,0.9,0.8c0,0.5-0.3,0.8-0.8,0.9c-0.5,0-0.8-0.3-0.9-0.8
		C129.5,153.7,129.8,153.4,130.3,153.3z"/>
	<path class="st184" d="M36,36c-0.5-0.1-0.8-0.4-0.8-0.9c0-0.5,0.4-0.8,0.9-0.8c0.5,0,0.8,0.4,0.8,0.9C36.9,35.7,36.5,36,36,36z"/>
	<path class="st184" d="M110.7,16c-0.1,0.5-0.4,0.8-0.9,0.8c-0.5,0-0.8-0.4-0.8-0.9c0-0.5,0.4-0.8,0.9-0.8
		C110.4,15.2,110.6,15.5,110.7,16z"/>
	<path class="st184" d="M139.9,27.1c0.5,0,0.7,0.2,0.8,0.7c0,0.4-0.2,0.7-0.7,0.7c-0.4,0-0.7-0.2-0.7-0.7
		C139.2,27.4,139.5,27.2,139.9,27.1z"/>
	<path class="st184" d="M85.1,12.5c-0.5,0-0.7-0.3-0.8-0.7c0-0.4,0.2-0.7,0.7-0.7c0.5,0,0.8,0.2,0.8,0.7
		C85.9,12.2,85.6,12.5,85.1,12.5z"/>
	<path class="st184" d="M160.2,57.8c-0.5-0.1-0.7-0.3-0.7-0.8c0-0.5,0.4-0.7,0.8-0.7c0.4,0,0.7,0.3,0.6,0.7
		C160.9,57.5,160.6,57.7,160.2,57.8z"/>
	<path class="st184" d="M152.9,138.8c0,0.4-0.3,0.7-0.7,0.7c-0.5,0-0.7-0.3-0.7-0.8c0-0.4,0.3-0.6,0.8-0.6
		C152.7,138.1,152.9,138.4,152.9,138.8z"/>
	<path class="st184" d="M37.9,29c-0.1,0.4-0.3,0.7-0.7,0.6c-0.4,0-0.6-0.3-0.6-0.7c0-0.4,0.3-0.7,0.7-0.7
		C37.6,28.3,37.8,28.6,37.9,29z"/>
	<path class="st184" d="M129.2,19.4c-0.1,0.5-0.3,0.7-0.8,0.6c-0.4-0.1-0.6-0.3-0.6-0.7c0-0.4,0.3-0.7,0.8-0.6
		C129,18.7,129.2,19,129.2,19.4z"/>
	<path class="st184" d="M116.3,164.4c0,0.4-0.3,0.7-0.7,0.7c-0.5,0-0.7-0.3-0.7-0.8c0-0.4,0.3-0.6,0.8-0.6
		C116.1,163.8,116.3,164,116.3,164.4z"/>
	<path class="st184" d="M21.5,44.5c0.4,0,0.7,0.2,0.7,0.6c0,0.4-0.2,0.7-0.6,0.7c-0.4,0-0.7-0.2-0.7-0.7
		C20.9,44.8,21.2,44.6,21.5,44.5z"/>
	<path class="st184" d="M8.7,82.2C8.2,82.2,8,81.9,8,81.5c0-0.4,0.3-0.6,0.6-0.6c0.4,0,0.7,0.3,0.7,0.7C9.3,82,9,82.1,8.7,82.2z"/>
	<path class="st184" d="M20.4,50.7c0.5,0,0.8,0.2,0.8,0.7c0,0.5-0.3,0.8-0.7,0.7c-0.4,0-0.7-0.3-0.7-0.7C19.8,51,20,50.8,20.4,50.7z
		"/>
	<path class="st184" d="M19.6,128.8c-0.4,0-0.7-0.2-0.7-0.7c0-0.4,0.2-0.7,0.7-0.7c0.4,0,0.7,0.2,0.7,0.7
		C20.3,128.5,20,128.8,19.6,128.8z"/>
	<path class="st184" d="M66,14.7c0,0.4-0.2,0.7-0.7,0.7c-0.5,0-0.8-0.3-0.7-0.8c0-0.4,0.3-0.7,0.7-0.6C65.7,14,65.9,14.2,66,14.7z"
		/>
	<path class="st184" d="M11.1,107.4c-0.1,0.4-0.3,0.7-0.7,0.7c-0.4,0-0.6-0.3-0.6-0.7c0-0.4,0.3-0.7,0.7-0.7
		C10.9,106.7,11.1,107,11.1,107.4z"/>
	<path class="st184" d="M41.2,150.5c0.5,0.1,0.7,0.3,0.7,0.8c0,0.5-0.4,0.7-0.8,0.7c-0.4,0-0.7-0.3-0.6-0.7
		C40.5,150.8,40.8,150.6,41.2,150.5z"/>
	<path class="st184" d="M168.9,83.9c0,0.5-0.2,0.8-0.7,0.8c-0.5,0-0.8-0.2-0.8-0.7c0-0.4,0.3-0.7,0.7-0.7
		C168.7,83.3,168.9,83.5,168.9,83.9z"/>
	<path class="st184" d="M25.4,135.4c0,0.4-0.2,0.7-0.7,0.7c-0.5,0-0.8-0.2-0.8-0.7c0-0.4,0.3-0.7,0.7-0.7
		C25.1,134.8,25.4,135,25.4,135.4z"/>
	<path class="st184" d="M170,77.7c-0.1,0.4-0.3,0.7-0.7,0.7c-0.4,0-0.6-0.3-0.6-0.7c0-0.4,0.3-0.7,0.7-0.7
		C169.8,77.1,170,77.4,170,77.7z"/>
	<path class="st184" d="M53.3,159.6c-0.1,0.5-0.3,0.7-0.7,0.7c-0.5,0-0.7-0.3-0.7-0.8c0-0.4,0.4-0.6,0.8-0.6
		C53.1,158.9,53.3,159.2,53.3,159.6z"/>
	<path class="st184" d="M13.8,121c0-0.4,0.2-0.7,0.6-0.7c0.4,0,0.7,0.2,0.7,0.6c0,0.4-0.2,0.7-0.7,0.7C14,121.6,13.8,121.4,13.8,121
		z"/>
	<path class="st184" d="M29.8,143.5c-0.4-0.1-0.6-0.3-0.6-0.7c0-0.4,0.3-0.7,0.7-0.6c0.4,0,0.7,0.3,0.6,0.7
		C30.5,143.3,30.2,143.5,29.8,143.5z"/>
	<path class="st184" d="M156.9,43.4c0,0.4-0.2,0.6-0.6,0.7c-0.4,0-0.7-0.2-0.7-0.6c0-0.4,0.3-0.7,0.7-0.7
		C156.6,42.8,156.8,43,156.9,43.4z"/>
	<path class="st184" d="M9.7,74.6c0.5,0,0.7,0.2,0.8,0.6c0,0.4-0.2,0.7-0.6,0.7c-0.4,0-0.7-0.2-0.7-0.7C9.1,74.9,9.4,74.7,9.7,74.6z
		"/>
	<path class="st184" d="M143.8,149.5c0.4,0.1,0.7,0.3,0.6,0.8c-0.1,0.4-0.3,0.6-0.7,0.6c-0.4,0-0.7-0.3-0.6-0.8
		C143.1,149.7,143.4,149.5,143.8,149.5z"/>
	<path class="st184" d="M28.7,40.8c-0.5,0-0.7-0.3-0.7-0.7c0-0.5,0.3-0.7,0.8-0.7c0.4,0,0.6,0.3,0.6,0.8
		C29.4,40.6,29.1,40.8,28.7,40.8z"/>
	<path class="st184" d="M79.5,10.6c0,0.4-0.2,0.7-0.6,0.7c-0.4,0-0.7-0.2-0.7-0.6c0-0.4,0.2-0.7,0.6-0.7
		C79.2,9.9,79.5,10.2,79.5,10.6z"/>
	<path class="st184" d="M34.9,149.5c0.4,0,0.6,0.2,0.7,0.6c0,0.4-0.2,0.7-0.6,0.7c-0.4,0-0.7-0.3-0.7-0.7
		C34.3,149.8,34.6,149.6,34.9,149.5z"/>
	<path class="st184" d="M16.3,114.7c0,0.5-0.3,0.7-0.7,0.8c-0.4,0-0.7-0.2-0.7-0.7c0-0.5,0.2-0.8,0.7-0.8
		C16,114,16.2,114.2,16.3,114.7z"/>
	<path class="st184" d="M51.8,19.4c-0.4-0.1-0.7-0.3-0.6-0.8c0.1-0.4,0.3-0.6,0.7-0.6c0.4,0,0.7,0.3,0.6,0.8
		C52.5,19.2,52.2,19.4,51.8,19.4z"/>
	<path class="st184" d="M136.5,156c-0.4-0.1-0.6-0.3-0.6-0.7c0-0.4,0.3-0.7,0.7-0.6c0.4,0,0.7,0.3,0.6,0.7
		C137.2,155.8,137,156,136.5,156z"/>
	<path class="st184" d="M44.5,23.1c0.5,0,0.7,0.2,0.8,0.7c0,0.4-0.2,0.7-0.7,0.7c-0.4,0-0.7-0.2-0.7-0.7
		C43.8,23.4,44.1,23.2,44.5,23.1z"/>
	<path class="st184" d="M122.4,18.9c-0.5,0-0.8-0.2-0.8-0.7c0-0.5,0.2-0.8,0.7-0.8c0.4,0,0.7,0.3,0.7,0.7
		C123,18.7,122.8,18.9,122.4,18.9z"/>
	<path class="st184" d="M46.3,159.1c-0.4-0.1-0.7-0.3-0.6-0.8c0-0.4,0.3-0.6,0.7-0.6c0.4,0,0.7,0.3,0.6,0.7
		C46.9,158.9,46.7,159.1,46.3,159.1z"/>
	<path class="st184" d="M162.5,121.2c0,0.5-0.3,0.7-0.7,0.8c-0.4,0-0.7-0.2-0.7-0.7c0-0.5,0.2-0.8,0.7-0.8
		C162.2,120.4,162.5,120.7,162.5,121.2z"/>
	<path class="st184" d="M161.3,127.4c0,0.4-0.2,0.7-0.7,0.7c-0.4,0-0.7-0.2-0.7-0.7c0-0.4,0.2-0.7,0.7-0.7
		C161.1,126.8,161.3,127,161.3,127.4z"/>
	<path class="st184" d="M76.1,169.6c0.5,0,0.7,0.2,0.8,0.6c0,0.4-0.2,0.7-0.6,0.7c-0.4,0-0.7-0.2-0.7-0.7
		C75.5,169.8,75.8,169.6,76.1,169.6z"/>
	<path class="st184" d="M129.9,160.4c0,0.4-0.2,0.6-0.6,0.7c-0.4,0-0.7-0.2-0.7-0.6c0-0.4,0.3-0.7,0.7-0.7
		C129.6,159.8,129.8,160,129.9,160.4z"/>
	<path class="st184" d="M103,168.4c0,0.4-0.2,0.7-0.7,0.7c-0.5,0-0.8-0.2-0.8-0.7c0-0.4,0.3-0.7,0.7-0.7
		C102.7,167.7,102.9,168,103,168.4z"/>
	<path class="st184" d="M145.6,35.2c0,0.5-0.3,0.8-0.8,0.7c-0.5,0-0.7-0.3-0.7-0.8c0-0.4,0.3-0.7,0.7-0.7
		C145.3,34.4,145.5,34.7,145.6,35.2z"/>
	<path class="st184" d="M165.3,65.1c-0.4,0-0.7-0.2-0.7-0.7c0-0.4,0.2-0.7,0.7-0.7c0.4,0,0.7,0.2,0.7,0.7
		C166,64.8,165.8,65,165.3,65.1z"/>
	<path class="st184" d="M12.3,101.1c0,0.4-0.2,0.7-0.7,0.7c-0.5,0-0.8-0.3-0.7-0.8c0-0.4,0.3-0.7,0.7-0.6
		C12,100.5,12.2,100.7,12.3,101.1z"/>
	<path class="st184" d="M151.8,36.3c-0.1,0.5-0.3,0.7-0.8,0.6c-0.4-0.1-0.6-0.3-0.6-0.7c0-0.4,0.3-0.7,0.8-0.6
		C151.6,35.7,151.7,36,151.8,36.3z"/>
	<path class="st184" d="M169.1,115.5c0.3,0,0.6,0.2,0.6,0.5c0,0.4-0.2,0.6-0.6,0.7c-0.3,0-0.6-0.2-0.6-0.5
		C168.5,115.8,168.7,115.6,169.1,115.5z"/>
	<path class="st184" d="M135.4,20.4c0,0.4-0.2,0.6-0.5,0.6c-0.4,0-0.6-0.2-0.6-0.6c0-0.3,0.2-0.6,0.5-0.6
		C135.1,19.8,135.3,20.1,135.4,20.4z"/>
	<path class="st184" d="M40.7,157.3c-0.1,0.4-0.3,0.6-0.7,0.5c-0.3-0.1-0.5-0.3-0.5-0.6c0-0.4,0.3-0.6,0.7-0.5
		C40.5,156.8,40.7,157,40.7,157.3z"/>
	<path class="st184" d="M9.5,113c0.3,0,0.6,0.2,0.6,0.5c0.1,0.4-0.2,0.6-0.6,0.7c-0.3,0-0.6-0.2-0.6-0.5
		C8.9,113.3,9.2,113.1,9.5,113z"/>
	<path class="st184" d="M122.5,165.5c-0.1,0.4-0.3,0.7-0.6,0.7c-0.4,0-0.6-0.2-0.7-0.6c0-0.4,0.2-0.6,0.6-0.7
		C122.2,164.9,122.4,165.2,122.5,165.5z"/>
	<path class="st184" d="M6.4,94.4c-0.4-0.1-0.6-0.3-0.6-0.7c0.1-0.3,0.3-0.5,0.6-0.5c0.4,0.1,0.6,0.3,0.5,0.7
		C6.9,94.2,6.7,94.4,6.4,94.4z"/>
	<path class="st184" d="M57.7,167.5c-0.4,0-0.6-0.2-0.6-0.5c0-0.4,0.2-0.6,0.6-0.7c0.3,0,0.6,0.2,0.6,0.5
		C58.3,167.2,58,167.4,57.7,167.5z"/>
	<path class="st184" d="M63.9,167.4c0.4,0.1,0.6,0.3,0.6,0.7c0,0.4-0.3,0.6-0.7,0.6c-0.4,0-0.6-0.3-0.6-0.7
		C63.3,167.6,63.6,167.4,63.9,167.4z"/>
	<path class="st184" d="M70,168.5c0.4,0.1,0.6,0.3,0.6,0.7c0,0.4-0.3,0.6-0.7,0.6c-0.4,0-0.6-0.3-0.6-0.7
		C69.3,168.7,69.6,168.5,70,168.5z"/>
	<path class="st184" d="M109.1,169.6c-0.1,0.4-0.3,0.6-0.7,0.6c-0.4,0-0.6-0.3-0.6-0.7c0-0.4,0.3-0.6,0.7-0.6
		C108.9,169,109.1,169.2,109.1,169.6z"/>
	<path class="st184" d="M83.1,171.3c-0.1,0.4-0.3,0.7-0.7,0.6c-0.4,0-0.6-0.3-0.6-0.7c0-0.4,0.3-0.6,0.7-0.6
		C82.8,170.7,83,171,83.1,171.3z"/>
	<path class="st184" d="M89.3,172.5c-0.1,0.4-0.3,0.6-0.7,0.6c-0.4,0-0.6-0.3-0.6-0.7c0-0.4,0.3-0.6,0.7-0.6
		C89.1,171.9,89.3,172.1,89.3,172.5z"/>
	<path class="st184" d="M170.4,72.1c-0.4-0.1-0.6-0.3-0.6-0.7c0-0.3,0.3-0.5,0.6-0.5c0.4,0,0.6,0.3,0.6,0.7
		C171,71.9,170.8,72.1,170.4,72.1z"/>
	<path class="st184" d="M172.8,97.6c0,0.3-0.2,0.6-0.5,0.6c-0.4,0.1-0.6-0.2-0.7-0.6c0-0.3,0.2-0.6,0.5-0.6
		C172.5,96.9,172.8,97.2,172.8,97.6z"/>
	<path class="st184" d="M10.9,69.7c-0.4,0-0.6-0.2-0.6-0.6c0-0.4,0.2-0.6,0.6-0.7c0.4,0,0.6,0.2,0.7,0.6
		C11.5,69.4,11.3,69.6,10.9,69.7z"/>
	<path class="st184" d="M95.5,173.5c0,0.4-0.2,0.6-0.5,0.6c-0.4,0-0.6-0.2-0.7-0.6c0-0.3,0.2-0.6,0.5-0.6
		C95.2,172.9,95.4,173.2,95.5,173.5z"/>
	<path class="st184" d="M174,91.3c0,0.4-0.2,0.6-0.5,0.6c-0.4,0-0.6-0.2-0.7-0.6c0-0.3,0.2-0.6,0.5-0.6
		C173.7,90.7,173.9,91,174,91.3z"/>
	<path class="st184" d="M12.6,62.7c-0.1,0.4-0.3,0.7-0.6,0.7c-0.4,0-0.6-0.2-0.7-0.6c0-0.4,0.2-0.6,0.6-0.7
		C12.4,62.2,12.5,62.5,12.6,62.7z"/>
	<path class="st184" d="M166.4,57.5c0.3,0,0.6,0.2,0.6,0.5c0,0.4-0.2,0.6-0.6,0.6c-0.3,0-0.6-0.2-0.6-0.5
		C165.8,57.8,166.1,57.6,166.4,57.5z"/>
	<path class="st184" d="M171.1,104.5c-0.4-0.1-0.6-0.3-0.6-0.7c0-0.4,0.3-0.6,0.7-0.6c0.4,0,0.6,0.3,0.6,0.7
		C171.7,104.2,171.5,104.4,171.1,104.5z"/>
	<path class="st184" d="M13.7,56.6c-0.1,0.4-0.3,0.6-0.7,0.5c-0.3-0.1-0.5-0.3-0.5-0.6c0.1-0.4,0.3-0.6,0.7-0.5
		C13.5,56,13.7,56.3,13.7,56.6z"/>
	<path class="st184" d="M161.3,51.4c-0.4,0-0.6-0.2-0.6-0.6c0-0.4,0.2-0.6,0.6-0.7c0.4,0,0.6,0.2,0.7,0.6
		C162,51.1,161.7,51.3,161.3,51.4z"/>
	<path class="st184" d="M170.6,110.1c-0.1,0.4-0.3,0.6-0.7,0.5c-0.3-0.1-0.5-0.3-0.5-0.6c0.1-0.4,0.3-0.6,0.7-0.5
		C170.4,109.5,170.6,109.8,170.6,110.1z"/>
	<path class="st184" d="M8.2,87.5c-0.1,0.4-0.3,0.7-0.6,0.7c-0.4,0-0.6-0.2-0.7-0.6c0-0.4,0.2-0.6,0.6-0.7
		C7.9,86.9,8.1,87.2,8.2,87.5z"/>
	<path class="st184" d="M159.6,134.3c-0.4,0-0.6-0.2-0.6-0.6c0-0.4,0.2-0.6,0.6-0.7c0.4,0,0.6,0.2,0.7,0.6
		C160.2,134,159.9,134.2,159.6,134.3z"/>
	<path class="st184" d="M59.7,13.6c-0.1,0.4-0.3,0.6-0.7,0.6c-0.4,0-0.6-0.3-0.6-0.7c0-0.4,0.3-0.6,0.7-0.6
		C59.4,12.9,59.6,13.2,59.7,13.6z"/>
	<path class="st184" d="M117.8,10.8c0,0.3-0.2,0.6-0.5,0.6c-0.4,0.1-0.6-0.2-0.7-0.5c0-0.3,0.2-0.6,0.5-0.6
		C117.5,10.2,117.7,10.5,117.8,10.8z"/>
	<path class="st184" d="M111,10.6c-0.3,0-0.6-0.2-0.6-0.5c-0.1-0.4,0.2-0.6,0.5-0.7c0.3,0,0.6,0.2,0.6,0.5
		C111.6,10.3,111.3,10.5,111,10.6z"/>
	<path class="st184" d="M72.6,8.9C73,9,73.3,9.2,73.2,9.6c0,0.4-0.3,0.6-0.7,0.6c-0.4,0-0.6-0.3-0.6-0.7C72,9.1,72.3,8.9,72.6,8.9z"
		/>
	<path class="st184" d="M104.7,9.5c-0.4,0-0.6-0.2-0.6-0.6c0-0.4,0.2-0.6,0.6-0.7c0.4,0,0.6,0.2,0.7,0.6
		C105.4,9.2,105.1,9.4,104.7,9.5z"/>
	<path class="st184" d="M99.1,7.7c-0.1,0.4-0.3,0.7-0.7,0.6c-0.4,0-0.6-0.3-0.6-0.7c0-0.4,0.3-0.6,0.7-0.6C98.9,7.2,99,7.4,99.1,7.7
		z"/>
	<path class="st184" d="M93.1,6.6c0,0.3-0.2,0.6-0.5,0.6c-0.4,0.1-0.6-0.2-0.7-0.6c0-0.3,0.2-0.6,0.5-0.6C92.7,6,93,6.3,93.1,6.6z"
		/>
	<path class="st184" d="M151,144.4c0.4,0,0.6,0.2,0.6,0.6c0,0.4-0.2,0.6-0.6,0.7c-0.4,0-0.6-0.2-0.7-0.6
		C150.4,144.7,150.7,144.5,151,144.4z"/>
	<path class="st184" d="M146.5,28.9c0,0.3-0.2,0.6-0.5,0.6c-0.4,0.1-0.6-0.2-0.7-0.5c0-0.3,0.2-0.6,0.5-0.6
		C146.2,28.3,146.4,28.5,146.5,28.9z"/>
	<path class="st184" d="M29.8,34.7c-0.4-0.1-0.6-0.3-0.6-0.7c0-0.4,0.3-0.6,0.7-0.6c0.4,0,0.6,0.3,0.6,0.7
		C30.4,34.5,30.2,34.7,29.8,34.7z"/>
	<path class="st184" d="M53,12c0.3,0,0.5,0.2,0.5,0.5c0,0.3-0.2,0.5-0.5,0.5c-0.3,0-0.5-0.2-0.5-0.5C52.5,12.1,52.7,12,53,12z"/>
	<path class="st184" d="M14.1,127c-0.1,0.4-0.3,0.5-0.6,0.5c-0.3,0-0.4-0.3-0.4-0.5c0-0.4,0.3-0.5,0.6-0.5
		C13.9,126.5,14.1,126.8,14.1,127z"/>
	<path class="st184" d="M66.3,7.9c0.3,0,0.5,0.1,0.5,0.4c0,0.3-0.1,0.6-0.5,0.6c-0.3,0-0.5-0.1-0.5-0.4C65.8,8.2,66,8,66.3,7.9z"/>
	<path class="st184" d="M162.4,45c-0.3,0-0.5-0.2-0.5-0.5s0.2-0.5,0.5-0.5c0.3,0,0.5,0.2,0.5,0.5C162.9,44.8,162.8,45,162.4,45z"/>
	<path class="st184" d="M130.1,13.1c0,0.3-0.2,0.5-0.5,0.5c-0.3,0-0.5-0.2-0.5-0.5s0.2-0.5,0.5-0.5C130,12.6,130.1,12.8,130.1,13.1z
		"/>
	<path class="st184" d="M80.4,4.4c0,0.3-0.2,0.5-0.5,0.5c-0.3,0-0.5-0.2-0.5-0.5S79.7,4,80,4C80.3,3.9,80.4,4.1,80.4,4.4z"/>
	<path class="st184" d="M176.1,78.8c0,0.4-0.2,0.5-0.5,0.5c-0.3,0-0.4-0.2-0.4-0.5c0-0.3,0.2-0.4,0.5-0.4
		C175.9,78.4,176.1,78.6,176.1,78.8z"/>
	<path class="st184" d="M141.3,21.6c0,0.3-0.2,0.4-0.5,0.4c-0.3,0-0.4-0.2-0.4-0.5c0-0.3,0.2-0.4,0.5-0.4
		C141.2,21.1,141.3,21.3,141.3,21.6z"/>
	<path class="st184" d="M114.5,171c-0.4-0.1-0.5-0.3-0.5-0.6c0-0.3,0.3-0.4,0.5-0.4c0.4,0,0.5,0.3,0.5,0.6
		C115,170.8,114.8,171,114.5,171z"/>
	<path class="st184" d="M38.8,22.7c0,0.3-0.2,0.5-0.6,0.5c-0.3,0-0.5-0.2-0.4-0.5c0-0.4,0.2-0.5,0.6-0.5
		C38.6,22.2,38.8,22.4,38.8,22.7z"/>
	<path class="st184" d="M157.3,37.7c-0.4,0-0.5-0.2-0.5-0.5c0-0.3,0.2-0.4,0.5-0.4c0.3,0,0.4,0.2,0.4,0.5
		C157.8,37.5,157.6,37.6,157.3,37.7z"/>
	<path class="st184" d="M46.2,17.6c0,0.4-0.3,0.5-0.6,0.5c-0.3,0-0.4-0.2-0.4-0.5c0-0.4,0.3-0.5,0.6-0.5
		C46,17.1,46.2,17.3,46.2,17.6z"/>
	<path class="st184" d="M31,28.3c-0.3,0-0.5-0.1-0.5-0.4c0-0.3,0.1-0.5,0.4-0.5c0.3,0,0.5,0.1,0.5,0.4C31.4,28.1,31.3,28.3,31,28.3z
		"/>
	<path class="st184" d="M152.2,29.6c0.4,0,0.5,0.2,0.5,0.5c0,0.3-0.2,0.4-0.5,0.4c-0.3,0-0.4-0.2-0.4-0.5
		C151.7,29.7,151.9,29.6,152.2,29.6z"/>
	<path class="st184" d="M175,85.1c0,0.3-0.1,0.5-0.4,0.5c-0.3,0-0.6-0.1-0.6-0.5c0-0.3,0.1-0.5,0.4-0.5
		C174.7,84.6,174.9,84.7,175,85.1z"/>
	<path class="st184" d="M150,151.8c-0.3,0-0.5-0.2-0.5-0.5s0.2-0.5,0.5-0.5s0.5,0.2,0.5,0.5C150.4,151.6,150.3,151.7,150,151.8z"/>
	<path class="st184" d="M19,134.3c0,0.4-0.3,0.6-0.6,0.5c-0.3,0-0.4-0.2-0.4-0.5c0-0.4,0.3-0.5,0.6-0.5
		C18.8,133.9,19,134.1,19,134.3z"/>
	<path class="st184" d="M123.4,12.5c-0.4-0.1-0.5-0.3-0.5-0.6c0-0.3,0.3-0.4,0.5-0.4c0.4,0,0.5,0.3,0.5,0.6
		C123.9,12.4,123.7,12.5,123.4,12.5z"/>
	<path class="st184" d="M168,122.8c-0.3,0-0.5-0.2-0.5-0.6c0-0.3,0.2-0.4,0.5-0.4c0.4,0,0.5,0.2,0.5,0.6
		C168.5,122.7,168.3,122.8,168,122.8z"/>
	<path class="st184" d="M101.6,174.5c0,0.3-0.2,0.4-0.5,0.4c-0.3,0-0.4-0.2-0.4-0.5c0-0.3,0.2-0.4,0.5-0.4
		C101.5,174,101.6,174.2,101.6,174.5z"/>
	<path class="st184" d="M143.3,156.4c0,0.4-0.2,0.6-0.6,0.6c-0.3,0-0.5-0.2-0.4-0.5c0-0.4,0.2-0.5,0.6-0.5
		C143.2,155.9,143.3,156.1,143.3,156.4z"/>
	<path class="st184" d="M29.2,149.1c0,0.4-0.3,0.5-0.6,0.5c-0.3,0-0.4-0.2-0.4-0.5c0-0.4,0.3-0.5,0.6-0.5
		C29.1,148.6,29.2,148.8,29.2,149.1z"/>
	<path class="st184" d="M158.9,139.9c0,0.3-0.2,0.5-0.4,0.5c-0.3,0-0.6-0.1-0.6-0.5c0-0.3,0.2-0.5,0.4-0.5
		C158.7,139.4,158.9,139.6,158.9,139.9z"/>
	<path class="st184" d="M22.6,38.7c0.3,0,0.5,0.1,0.6,0.4c0,0.3-0.1,0.6-0.5,0.6c-0.3,0-0.5-0.1-0.5-0.4
		C22.1,39,22.3,38.7,22.6,38.7z"/>
	<path class="st184" d="M171.6,65c0.3,0,0.5,0.2,0.5,0.5c0,0.3-0.2,0.5-0.5,0.5s-0.5-0.2-0.5-0.5C171.1,65.2,171.3,65,171.6,65z"/>
	<path class="st184" d="M14.7,50.3c0,0.3-0.2,0.5-0.5,0.5s-0.5-0.2-0.5-0.5s0.2-0.5,0.5-0.5C14.5,49.9,14.7,50,14.7,50.3z"/>
	<path class="st184" d="M136,161.5c0,0.4-0.2,0.6-0.6,0.6c-0.3,0-0.5-0.2-0.4-0.5c0-0.4,0.2-0.5,0.6-0.5
		C135.8,161.1,136,161.3,136,161.5z"/>
	<path class="st184" d="M166.9,128.1c0.3,0,0.4,0.2,0.4,0.5c0,0.3-0.2,0.4-0.5,0.4c-0.3,0-0.4-0.2-0.4-0.5
		C166.4,128.2,166.6,128.1,166.9,128.1z"/>
	<path class="st184" d="M167.1,52c0-0.4,0.2-0.5,0.5-0.5c0.3,0,0.5,0.2,0.5,0.5c0,0.3-0.2,0.5-0.5,0.5
		C167.2,52.4,167.1,52.2,167.1,52z"/>
	<path class="st184" d="M86.7,5.5c0,0.4-0.2,0.6-0.6,0.6c-0.3,0-0.5-0.2-0.4-0.5c0-0.4,0.2-0.5,0.6-0.5C86.6,5,86.7,5.3,86.7,5.5z"
		/>
	<path class="st184" d="M51.5,166.3c-0.4,0-0.6-0.3-0.5-0.6c0-0.3,0.2-0.4,0.5-0.4c0.4,0,0.5,0.3,0.5,0.6
		C51.9,166.2,51.7,166.3,51.5,166.3z"/>
	<path class="st184" d="M128.6,166.5c0,0.3-0.2,0.5-0.5,0.5c-0.3,0-0.5-0.2-0.5-0.5c0-0.3,0.2-0.5,0.5-0.5
		C128.4,166,128.6,166.2,128.6,166.5z"/>
	<path class="st184" d="M8.9,119.8c0,0.3-0.1,0.5-0.4,0.5c-0.3,0-0.5-0.1-0.5-0.4c0-0.3,0.1-0.5,0.4-0.5
		C8.7,119.4,8.9,119.5,8.9,119.8z"/>
	<path class="st184" d="M5.5,99.5c0.3,0,0.5,0.1,0.5,0.4c0,0.3-0.1,0.6-0.5,0.6c-0.3,0-0.5-0.1-0.5-0.4C5,99.8,5.2,99.6,5.5,99.5z"
		/>
	<path class="st184" d="M23.6,142.2c-0.4-0.1-0.5-0.3-0.5-0.6c0-0.3,0.3-0.4,0.5-0.4c0.4,0,0.5,0.3,0.5,0.6
		C24,142.1,23.8,142.2,23.6,142.2z"/>
	<path class="st184" d="M60.1,6.9c0.2,0,0.4,0.2,0.4,0.4c0,0.3-0.2,0.5-0.5,0.5c-0.2,0-0.4-0.2-0.4-0.4C59.7,7,59.9,6.9,60.1,6.9z"
		/>
	<path class="st184" d="M12.5,133.7c-0.3-0.1-0.5-0.3-0.4-0.5c0.1-0.2,0.2-0.4,0.5-0.3c0.2,0.1,0.3,0.2,0.3,0.4
		C12.8,133.5,12.6,133.6,12.5,133.7z"/>
	<path class="st184" d="M39.8,16.5c-0.1,0.2-0.2,0.4-0.5,0.4c-0.2,0-0.4-0.2-0.3-0.5c0-0.2,0.2-0.3,0.4-0.3
		C39.6,16.1,39.8,16.2,39.8,16.5z"/>
	<path class="st184" d="M32,22c-0.2-0.1-0.4-0.2-0.4-0.5c0.1-0.2,0.2-0.4,0.5-0.3c0.2,0.1,0.3,0.2,0.3,0.4C32.4,21.8,32.3,22,32,22z
		"/>
	<path class="st184" d="M147.5,22.7c-0.1,0.2-0.2,0.4-0.5,0.4c-0.2,0-0.4-0.2-0.3-0.5c0-0.2,0.2-0.3,0.4-0.3
		C147.3,22.3,147.4,22.5,147.5,22.7z"/>
	<path class="st184" d="M27.6,154.9c0.2,0.1,0.4,0.2,0.4,0.5c0,0.2-0.2,0.4-0.5,0.3c-0.2,0-0.3-0.2-0.3-0.4
		C27.2,155.1,27.4,154.9,27.6,154.9z"/>
	<path class="st184" d="M34.3,156.3c0,0.3-0.1,0.5-0.4,0.5c-0.3,0-0.5-0.1-0.5-0.4c0-0.3,0.2-0.4,0.4-0.4
		C34.1,156,34.2,156.2,34.3,156.3z"/>
	<path class="st184" d="M16.9,38c0,0.2-0.1,0.4-0.4,0.4c-0.2,0-0.4-0.1-0.4-0.3c-0.1-0.3,0.1-0.4,0.3-0.5
		C16.6,37.6,16.8,37.8,16.9,38z"/>
	<path class="st184" d="M1.7,86.7c-0.1,0.2-0.2,0.4-0.5,0.4c-0.2,0-0.4-0.2-0.3-0.5c0-0.2,0.2-0.3,0.4-0.3
		C1.5,86.3,1.7,86.4,1.7,86.7z"/>
	<path class="st184" d="M149.3,157.3c-0.1,0.2-0.2,0.4-0.5,0.4c-0.2,0-0.4-0.2-0.3-0.5c0-0.2,0.2-0.3,0.4-0.3
		C149.1,156.9,149.2,157.1,149.3,157.3z"/>
	<path class="st184" d="M176.3,111.4c-0.2,0-0.4-0.2-0.4-0.4c0-0.2,0.2-0.3,0.3-0.4c0.3-0.1,0.4,0.1,0.5,0.4
		C176.7,111.2,176.5,111.3,176.3,111.4z"/>
	<path class="st184" d="M164,38.3c-0.1,0.2-0.2,0.4-0.4,0.4c-0.2,0-0.3-0.2-0.4-0.3c0-0.3,0.1-0.4,0.4-0.5
		C163.8,37.9,163.9,38.1,164,38.3z"/>
	<path class="st184" d="M15.8,44c0,0.3-0.1,0.4-0.4,0.5c-0.3,0-0.5-0.1-0.5-0.4c0-0.3,0.2-0.4,0.4-0.4C15.6,43.6,15.7,43.8,15.8,44z
		"/>
	<path class="st184" d="M179.6,92.9c-0.2-0.1-0.4-0.2-0.4-0.4c0-0.2,0.2-0.3,0.3-0.4c0.3,0,0.4,0.1,0.5,0.4
		C180,92.7,179.8,92.8,179.6,92.9z"/>
	<path class="st184" d="M0.4,92.2c0.3,0.1,0.5,0.2,0.4,0.5c0,0.2-0.2,0.4-0.5,0.3C0.2,93,0,92.9,0,92.7C0,92.4,0.2,92.4,0.4,92.2z"
		/>
	<path class="st184" d="M22.5,147.5c0.2,0.1,0.4,0.2,0.4,0.5c0,0.2-0.2,0.4-0.5,0.3c-0.2,0-0.3-0.2-0.3-0.4
		C22.1,147.7,22.2,147.6,22.5,147.5z"/>
	<path class="st184" d="M3.7,112.5c0,0.2-0.1,0.4-0.4,0.4c-0.2,0-0.3-0.1-0.4-0.3c-0.1-0.3,0.1-0.4,0.3-0.5
		C3.5,112,3.6,112.2,3.7,112.5z"/>
	<path class="st184" d="M2.8,80.4c0,0.2-0.2,0.4-0.4,0.4c-0.3,0-0.5-0.2-0.5-0.5C2,80.1,2.2,80,2.4,80C2.7,80,2.8,80.2,2.8,80.4z"/>
	<path class="st184" d="M3.5,73.7c0.2,0,0.4,0.2,0.4,0.4c0,0.3-0.2,0.5-0.5,0.5c-0.2,0-0.4-0.2-0.4-0.4C3.1,73.9,3.3,73.8,3.5,73.7z
		"/>
	<path class="st184" d="M4.5,106.7c-0.3,0-0.5-0.2-0.5-0.4c0-0.3,0.2-0.5,0.5-0.4c0.2,0,0.4,0.2,0.4,0.5
		C4.8,106.6,4.6,106.7,4.5,106.7z"/>
	<path class="st184" d="M176.7,72.2c0.2,0,0.4,0.1,0.4,0.4c0,0.2-0.1,0.3-0.3,0.4c-0.3,0.1-0.4-0.1-0.5-0.3
		C176.2,72.4,176.4,72.3,176.7,72.2z"/>
	<path class="st184" d="M142.1,162.4c0,0.2-0.1,0.4-0.4,0.4c-0.2,0-0.4-0.1-0.4-0.3c-0.1-0.3,0.1-0.4,0.3-0.5
		C141.9,162,142,162.2,142.1,162.4z"/>
	<path class="st184" d="M4.6,67.5c0.2,0,0.4,0.2,0.4,0.4c0,0.3-0.2,0.5-0.5,0.5c-0.2,0-0.4-0.2-0.4-0.4C4.2,67.7,4.4,67.5,4.6,67.5z
		"/>
	<path class="st184" d="M39.4,163.5c0,0.2-0.2,0.4-0.4,0.4c-0.2,0-0.4-0.1-0.4-0.3c-0.1-0.3,0.1-0.4,0.3-0.5
		C39.1,163.1,39.3,163.3,39.4,163.5z"/>
	<path class="st184" d="M7.3,126.5c-0.2-0.1-0.4-0.2-0.4-0.5c0-0.2,0.2-0.4,0.5-0.3c0.2,0,0.3,0.2,0.3,0.4
		C7.7,126.4,7.5,126.5,7.3,126.5z"/>
	<path class="st184" d="M177.8,104.9c-0.1,0.2-0.2,0.4-0.4,0.4c-0.2,0-0.3-0.2-0.4-0.3c0-0.3,0.1-0.4,0.4-0.5
		C177.6,104.5,177.7,104.7,177.8,104.9z"/>
	<path class="st184" d="M45.3,165.1c-0.3,0-0.4-0.1-0.5-0.4c0-0.3,0.1-0.5,0.4-0.5c0.3,0,0.4,0.2,0.4,0.4
		C45.7,164.9,45.5,165,45.3,165.1z"/>
	<path class="st184" d="M6.9,55.9c-0.3-0.1-0.5-0.2-0.5-0.5c0-0.2,0.2-0.3,0.3-0.4c0.3,0,0.4,0.1,0.5,0.4
		C7.3,55.7,7.1,55.8,6.9,55.9z"/>
	<path class="st184" d="M175.1,116.8c0.2,0.1,0.4,0.2,0.4,0.4c0,0.2-0.2,0.4-0.5,0.4c-0.2,0-0.3-0.2-0.3-0.4
		C174.7,117,174.9,116.8,175.1,116.8z"/>
	<path class="st184" d="M173.1,59.2c0,0.3-0.2,0.4-0.4,0.5c-0.2,0-0.4-0.1-0.4-0.3c-0.1-0.3,0.1-0.4,0.3-0.5
		C172.9,58.8,173,59,173.1,59.2z"/>
	<path class="st184" d="M6.2,61.7c0,0.2-0.2,0.4-0.4,0.4c-0.2,0-0.4-0.1-0.4-0.3c-0.1-0.3,0.1-0.4,0.3-0.5
		C5.9,61.2,6.1,61.4,6.2,61.7z"/>
	<path class="st184" d="M134.8,167.6c-0.1,0.2-0.2,0.4-0.5,0.4c-0.2-0.1-0.4-0.2-0.3-0.5c0.1-0.2,0.2-0.3,0.4-0.3
		C134.6,167.2,134.7,167.3,134.8,167.6z"/>
	<path class="st184" d="M118.7,4.8c-0.1,0.3-0.2,0.5-0.5,0.4c-0.2,0-0.4-0.2-0.3-0.5c0-0.2,0.2-0.3,0.4-0.3
		C118.6,4.5,118.6,4.7,118.7,4.8z"/>
	<path class="st184" d="M165.8,134.3c0.3,0.1,0.4,0.2,0.4,0.5c0,0.3-0.2,0.5-0.5,0.4c-0.2,0-0.4-0.2-0.3-0.5
		C165.4,134.5,165.6,134.4,165.8,134.3z"/>
	<path class="st184" d="M178.9,98.6c-0.1,0.3-0.2,0.5-0.5,0.5c-0.2,0-0.3-0.2-0.4-0.3c0-0.3,0.1-0.4,0.4-0.5
		C178.7,98.3,178.8,98.5,178.9,98.6z"/>
	<path class="st184" d="M136.1,14.2c0,0.2-0.1,0.4-0.4,0.4c-0.2,0-0.4-0.1-0.4-0.3c-0.1-0.3,0.1-0.4,0.3-0.5
		C135.9,13.8,136,14,136.1,14.2z"/>
	<path class="st184" d="M47.2,11.3c-0.1,0.3-0.2,0.5-0.5,0.5c-0.2,0-0.3-0.2-0.4-0.3c0-0.3,0.1-0.4,0.4-0.5
		C47,10.9,47.1,11.1,47.2,11.3z"/>
	<path class="st184" d="M121.2,171.5c-0.1,0.3-0.2,0.5-0.4,0.5c-0.3,0-0.5-0.2-0.4-0.5c0-0.2,0.2-0.4,0.5-0.4
		C121.1,171.2,121.2,171.4,121.2,171.5z"/>
	<path class="st184" d="M24,32.9c0,0.3-0.1,0.4-0.4,0.4c-0.3,0-0.5-0.2-0.5-0.5c0-0.2,0.2-0.4,0.4-0.4C23.8,32.5,24,32.7,24,32.9z"
		/>
	<path class="st184" d="M57,173.1c-0.1,0.3-0.2,0.5-0.4,0.5c-0.2,0-0.3-0.2-0.4-0.3c0-0.3,0.1-0.4,0.4-0.5
		C56.8,172.7,56.9,172.9,57,173.1z"/>
	<path class="st184" d="M157.3,145.7c0.3,0.1,0.4,0.2,0.4,0.5c0,0.3-0.2,0.5-0.5,0.4c-0.2,0-0.4-0.2-0.3-0.5
		C156.9,145.9,157.1,145.7,157.3,145.7z"/>
	<path class="st184" d="M63.2,174.2c-0.1,0.3-0.3,0.5-0.5,0.4c-0.2-0.1-0.4-0.2-0.3-0.5c0.1-0.2,0.2-0.3,0.4-0.3
		C63.1,173.9,63.2,174.1,63.2,174.2z"/>
	<path class="st184" d="M17.6,141c-0.3,0-0.4-0.1-0.5-0.4c0-0.3,0.1-0.5,0.4-0.5c0.2,0,0.4,0.2,0.4,0.4C18,140.8,17.8,141,17.6,141z
		"/>
	<path class="st184" d="M69.2,175.8c-0.3,0-0.5-0.1-0.5-0.4c0-0.3,0.1-0.5,0.4-0.5c0.3,0,0.4,0.2,0.4,0.4
		C69.5,175.6,69.3,175.7,69.2,175.8z"/>
	<path class="st184" d="M107.4,176c-0.2,0-0.4-0.2-0.4-0.4c0-0.3,0.2-0.5,0.5-0.4c0.2,0,0.4,0.2,0.4,0.5
		C107.8,175.9,107.6,176,107.4,176z"/>
	<path class="st184" d="M75.1,176c0.3,0,0.4,0.1,0.4,0.4c0,0.3-0.2,0.5-0.5,0.5c-0.2,0-0.4-0.2-0.4-0.4
		C74.6,176.2,74.8,176.1,75.1,176z"/>
	<path class="st184" d="M113.8,176.7c0,0.2-0.2,0.4-0.4,0.4c-0.2,0-0.3-0.2-0.4-0.3c-0.1-0.3,0.1-0.4,0.4-0.5
		C113.6,176.3,113.7,176.5,113.8,176.7z"/>
	<path class="st184" d="M81.4,178c-0.3-0.1-0.5-0.2-0.5-0.4c0-0.3,0.2-0.5,0.5-0.4c0.2,0,0.4,0.2,0.4,0.5
		C81.7,177.9,81.5,178,81.4,178z"/>
	<path class="st184" d="M87.5,178.1c0.2,0,0.4,0.2,0.4,0.4c0,0.2-0.1,0.4-0.3,0.4c-0.3,0.1-0.4-0.1-0.5-0.3
		C87.1,178.3,87.3,178.2,87.5,178.1z"/>
	<path class="st184" d="M93.8,179.2c0.2,0,0.4,0.2,0.4,0.4c0,0.2-0.1,0.4-0.3,0.4c-0.3,0.1-0.4-0.1-0.5-0.3
		C93.3,179.4,93.5,179.3,93.8,179.2z"/>
	<path class="st184" d="M89.8,76.4c0,0.5,0,1,0,1.4c-0.7-0.4-0.3-0.9-0.2-1.4l0,0C89.6,76.4,89.7,76.4,89.8,76.4z"/>
</g>
<path class="st194" d="M27.5,156.9c6.9-9.2,10.7-16.4,12.8-24.2c0.4-1.7,0.3-1.9-0.6-2.9c-19-21.2-23.8-45.9-13.8-71.5
	c10-25.6,30.1-40.8,58.2-43.8c2.3-0.3,4.7-0.4,7-0.4c20.5,0,40,9.7,53.3,26.5c13.1,16.5,18,37.3,13.3,57
	C150,130.1,123.1,152,90.8,152c0,0,0,0,0,0c-6.8,0-13.8-1-20.6-2.9l-0.7-0.2c-0.3-0.1-0.6-0.2-0.9-0.2
	c-10.6,10.3-23.9,13.6-36.8,15.6L20.6,166L27.5,156.9z"/>
<path class="st195" d="M84.5,19.8c-26.3,2.9-44.9,16.6-54.4,40.9c-9.5,24.4-4.6,47.1,13,66.8c2.1,2.3,2.4,4.2,1.6,7.1
	c-2.4,9.2-7,17.3-13.5,25.9c13.8-2.1,25.3-5.5,34.3-14.4c2.1-2,3.7-1.3,6-0.6c37.3,10.7,72.8-10.4,81.7-48.2
	C162.8,56,126.6,15.2,84.5,19.8z"/>
</svg>
