<?xml version="1.0" encoding="utf-8"?>
<!-- Generator: Adobe Illustrator 23.0.1, SVG Export Plug-In . SVG Version: 6.00 Build 0)  -->
<svg version="1.1" id="Layer_1" xmlns="http://www.w3.org/2000/svg" xmlns:xlink="http://www.w3.org/1999/xlink" x="0px" y="0px"
	 viewBox="0 0 180 150.4" style="enable-background:new 0 0 180 150.4;" xml:space="preserve">
<style type="text/css">
	.st0{fill:#E11B4E;}
	.st1{fill:#EAA820;}
	.st2{fill:none;stroke:#000000;stroke-miterlimit:10;}
	.st3{fill:#EAA820;stroke:#000000;stroke-miterlimit:10;}
	.st4{fill:#FFFFFF;}
	.st5{fill:#0B0B0B;}
	.st6{fill:#222223;}
	.st7{fill:#1C1B1C;}
	.st8{fill:#0E0E0E;}
	.st9{fill:#1A1A1B;}
	.st10{fill:#F1F1F2;}
	.st11{fill:#39383A;}
	.st12{fill:#EDEDEE;}
	.st13{fill:#2E2D2F;}
	.st14{fill:#3F3E40;}
	.st15{fill:#E6E7E8;}
	.st16{fill:#EAEAEB;}
	.st17{fill:#EAEBEC;}
	.st18{fill:#E4E5E6;}
	.st19{fill:#E9EAEB;}
	.st20{fill:#282728;}
	.st21{fill:#424143;}
	.st22{fill:#E6E6E7;}
	.st23{fill:#DDDEE0;}
	.st24{fill:#DDDEDF;}
	.st25{fill:#D8D9DB;}
	.st26{fill:#373738;}
	.st27{fill:#DEDFE1;}
	.st28{fill:#383738;}
	.st29{fill:#171718;}
	.st30{fill:#161616;}
	.st31{fill:#1E1D1E;}
	.st32{fill:#1B1B1C;}
	.st33{fill:#1A191A;}
	.st34{fill:#171617;}
	.st35{fill:#181818;}
	.st36{fill:#161617;}
	.st37{fill:#151516;}
	.st38{fill:#1C1C1D;}
	.st39{fill:#151415;}
	.st40{fill:#121213;}
	.st41{fill:#0F0F10;}
	.st42{fill:#101011;}
	.st43{fill:#141415;}
	.st44{fill:#171717;}
	.st45{fill:#101010;}
	.st46{fill:#111112;}
	.st47{fill:#131314;}
	.st48{fill:#1E1E1F;}
	.st49{fill:#212021;}
	.st50{fill:#232324;}
	.st51{fill:#121112;}
	.st52{fill:#141414;}
	.st53{fill:#262526;}
	.st54{fill:#0E0D0E;}
	.st55{fill:#222222;}
	.st56{fill:#0C0C0D;}
	.st57{fill:#181819;}
	.st58{fill:#1B1A1B;}
	.st59{fill:#1D1D1E;}
	.st60{fill:#0F0F0F;}
	.st61{fill:#131313;}
	.st62{fill:#1F1E1F;}
	.st63{fill:#212122;}
	.st64{fill:#272728;}
	.st65{fill:#2C2B2D;}
	.st66{fill:#2A292A;}
	.st67{fill:#F6F6F7;}
	.st68{fill:#F3F4F4;}
	.st69{fill:#F1F2F2;}
	.st70{fill:#F2F2F3;}
	.st71{fill:#302F31;}
	.st72{fill:#191919;}
	.st73{fill:#323233;}
	.st74{fill:#F5F6F6;}
	.st75{fill:#F0F1F1;}
	.st76{fill:#EFF0F1;}
	.st77{fill:#F5F5F6;}
	.st78{fill:#EFEFF0;}
	.st79{fill:#1C1C1C;}
	.st80{fill:#232223;}
	.st81{fill:#212121;}
	.st82{fill:#F0F1F2;}
	.st83{fill:#3B3A3C;}
	.st84{fill:#343435;}
	.st85{fill:#282829;}
	.st86{fill:#3E3E40;}
	.st87{fill:#F4F5F5;}
	.st88{fill:#EEEFF0;}
	.st89{fill:#48484A;}
	.st90{fill:#3E3D3F;}
	.st91{fill:#464547;}
	.st92{fill:#434345;}
	.st93{fill:#202021;}
	.st94{fill:#151515;}
	.st95{fill:#0D0D0D;}
	.st96{fill:#0B0B0C;}
	.st97{fill:#0B0A0B;}
	.st98{fill:#383739;}
	.st99{fill:#323133;}
	.st100{fill:#2D2D2E;}
	.st101{fill:#242324;}
	.st102{fill:#202020;}
	.st103{fill:#39393A;}
	.st104{fill:#434244;}
	.st105{fill:#474748;}
	.st106{fill:#49494B;}
	.st107{fill:#4F4F51;}
	.st108{fill:#333334;}
	.st109{fill:#242425;}
	.st110{fill:#292829;}
	.st111{fill:#2F2E30;}
	.st112{fill:#363537;}
	.st113{fill:#3D3D3E;}
	.st114{fill:#424244;}
	.st115{fill:#111111;}
	.st116{fill:#414142;}
	.st117{fill:#4D4D4F;}
	.st118{fill:#616264;}
	.st119{fill:#57575A;}
	.st120{fill:#76777A;}
	.st121{fill:#6B6D6F;}
	.st122{fill:#131213;}
	.st123{fill:#F0F0F1;}
	.st124{fill:#F3F3F4;}
	.st125{fill:#E8E9EA;}
	.st126{fill:#ECEDED;}
	.st127{fill:#F5F5F5;}
	.st128{fill:#E7E7E8;}
	.st129{fill:#ECEDEE;}
	.st130{fill:#EBEBEC;}
	.st131{fill:#E8E8E9;}
	.st132{fill:#EEEFEF;}
	.st133{fill:#EFF0F0;}
	.st134{fill:#EBECEC;}
	.st135{fill:#727476;}
	.st136{fill:#6C6D70;}
	.st137{fill:#626366;}
	.st138{fill:#A9ABAD;}
	.st139{fill:#999B9E;}
	.st140{fill:#757779;}
	.st141{fill:#8C8E91;}
	.st142{fill:#848689;}
	.st143{fill:#A7A9AB;}
	.st144{fill:none;}
	.st145{fill:#00BEEC;}
	.st146{fill:#EBAF1F;}
	.st147{clip-path:url(#SVGID_2_);}
	.st148{fill:#F05225;}
	.st149{clip-path:url(#SVGID_4_);}
	.st150{fill:#69CCE7;}
	.st151{fill:#EE2F7A;}
	.st152{fill:none;stroke:#000000;stroke-width:0.5;stroke-linecap:round;stroke-miterlimit:10;}
	.st153{clip-path:url(#SVGID_6_);}
	.st154{clip-path:url(#SVGID_8_);}
	.st155{fill:none;stroke:#000000;stroke-width:4;stroke-miterlimit:10;}
	.st156{clip-path:url(#SVGID_10_);}
	.st157{clip-path:url(#SVGID_12_);}
	.st158{fill:#EBA921;}
	.st159{clip-path:url(#SVGID_14_);}
	.st160{clip-path:url(#SVGID_16_);}
	.st161{clip-path:url(#SVGID_18_);}
	.st162{clip-path:url(#SVGID_20_);}
	.st163{fill:#F16EA1;}
	.st164{clip-path:url(#SVGID_22_);}
	.st165{clip-path:url(#SVGID_24_);}
	.st166{fill:#5ABA47;}
	.st167{fill:#F26522;}
	.st168{fill:#3AC0C7;}
	.st169{fill:#EE4297;}
	.st170{fill:#3B50A3;}
	.st171{fill:#00B9B6;}
	.st172{fill:#FFC214;}
	.st173{clip-path:url(#SVGID_26_);}
	.st174{fill:#FDB92D;}
	.st175{clip-path:url(#SVGID_28_);}
	.st176{fill:#ED1E25;}
	.st177{clip-path:url(#SVGID_30_);}
	.st178{fill:#ED2085;}
	.st179{clip-path:url(#SVGID_32_);}
	.st180{clip-path:url(#SVGID_34_);}
	.st181{fill:#D0DD28;}
	.st182{fill:#E1A225;}
	.st183{fill:#B81F69;}
	.st184{fill:#010101;}
	.st185{fill:#EC2227;}
	.st186{fill:#F26249;}
	.st187{fill:#231F20;}
	.st188{fill:#C4D5DD;}
	.st189{fill:#D5E7F0;}
	.st190{fill:#CC2027;}
	.st191{fill:#9A1E21;}
	.st192{fill:#F26724;}
	.st193{fill:#B92025;}
	.st194{fill:#DCDDDE;}
	.st195{fill:#EAEAEA;}
</style>
<g>
	<g>
		<path class="st167" d="M78.3,67.8c0.3-1.1,0.6-2.1,1.5-2.9c2-2,3.7-0.4,5.4,0.5c0.6,0.5,1,1,1.2,1.8c-1.8,0.7-0.9,2.8-2,3.8
			c-0.6,0.6-1.3,0.7-2,0.7C78.9,71.1,78.1,70.3,78.3,67.8z"/>
		<path class="st167" d="M103.3,74.6c-0.3,1.1-0.6,2.1-1.5,2.9c-1.3,1.6-2.8,0.8-4.3,0.4c-1.2-0.6-1.1-1.7-1.3-2.8
			c-0.2-1.6,0.6-2.8,1.4-4.1c0.5-0.6,1.1-1,1.9-1c0.4,0.3,0.1,1.1,1.2,1.1C102.7,71.2,103.4,72.4,103.3,74.6z"/>
		<path class="st167" d="M93.7,58.9c1.4,0,2.5,0.7,3.4,1.7c1.5,1.9,0.2,3.5-0.7,5.1c-0.6,0.7-1.3,1.2-2.2,1.3c-1-1-0.1-1.1,0.7-1.6
			c-1.8,0.8-3-0.4-4.3-1.1c-0.6-0.5-1.1-1.1-1-1.9c1.1-1,1,0.2,1.3,0.5C90.2,60.4,91.1,59.1,93.7,58.9z"/>
		<path class="st167" d="M81.7,86.5c-3.6-0.6-4.6-2.4-2.8-5.6c0.2-0.3,0.4-0.5,0.1-0.8c0.1-0.8,0.6-1.1,1.4-1.2
			c-0.1,1.4,0.9,0.6,1.4,0.7c0.7,0.1,1.3,0.4,1.8,1c0.5,0.6,1,1.3,1.3,2C84.9,85.6,84.1,86.6,81.7,86.5z"/>
		<path class="st167" d="M99.6,83.5c-0.6,3.9-2.9,4.8-6,2.4c-0.3-0.2-0.4-0.5-0.8-0.2c-0.8-0.1-1.1-0.6-1.2-1.3
			c-0.1-1.1,1.1,0.5,1-0.5c-0.1-1,0.3-1.7,0.9-2.3c0.8-0.7,1.7-1.2,2.8-1.3C99.2,80.9,99.7,81.3,99.6,83.5z"/>
		<path class="st167" d="M91.8,84.2c0.4,0.5,0.7,1.1,1.1,1.6c0.4,3-1.6,4.8-4.3,3.7c-0.5-0.2-0.8-0.8-1.4-0.3
			c-0.7-0.3-0.7-0.9-0.9-1.5c-0.2-1.3,0-2.5,1-3.5c0.6-0.5,1.2-1,2-1.2C90.4,82.9,91.5,82.6,91.8,84.2z"/>
		<path class="st167" d="M80.7,79c-0.6,0.4-1.1,0.8-1.7,1.1c-1,0.5-1.9,0.3-2.6-0.5c-0.6-0.4-1.2-0.8-1.2-1.7
			c-0.7-1.5,0.3-2.5,1.1-3.6c1.4-1.7,2.8-1,4.2,0c0.5,0.6,1,1.3,1.3,2C82,77.5,82.2,78.6,80.7,79z"/>
		<path class="st167" d="M76,73.9c-2.6-0.5-3.9-1.9-3.5-3.9c0.4-1.9,2-2.6,4.6-2.1C80.1,70.6,79.7,72.7,76,73.9z"/>
		<path class="st167" d="M75.2,77.9c0.4,0.6,0.8,1.1,1.2,1.7c-0.4,0.3-1-1.4-1.3,0.2c-0.3,1.8-1.4,2.7-3.1,2.6
			c-1.3-0.1-2.2-0.9-2.6-2.1c-0.3-1.2,0-2.4,1.2-3.1c1.5-1,2.9-0.7,4,0.6C74.7,77.9,75,77.9,75.2,77.9z"/>
		<path class="st167" d="M102,77.8c2.6,0.5,3.9,1.8,3.5,3.8c-0.4,2-2,2.8-4.6,2.3C97.9,80.9,98.3,79.1,102,77.8z"/>
		<path class="st167" d="M105.4,69c1.9-0.2,3.4,0.5,3.8,2.5c0.3,1.5-0.4,2.6-1.8,3.3c-1.1,0.5-2,0.1-3-0.3
			C101.9,72,102.4,69.9,105.4,69z"/>
		<path class="st167" d="M73.5,83.3c1.3-0.6,2.7-0.5,3.7,1c1,1.4,0.6,3.3-0.9,4.1c-1.6,0.8-2.9,0.5-3.9-1
			C71.5,86.1,71.9,84.3,73.5,83.3z"/>
		<path class="st167" d="M97.9,60.8c-0.5-1.9-0.1-3.4,1.9-4c1.5-0.5,2.8,0.1,3.5,1.6c0.6,1.2,0.2,2.3-0.6,3.3
			C100.5,63.7,98.9,63.4,97.9,60.8z"/>
		<path class="st167" d="M102.3,62.9c3.5,0.1,4.5,1.6,3.3,4.9c-2.3,2.3-3.9,2.1-5.8-0.8C99.6,64.3,100,63.6,102.3,62.9z"/>
		<path class="st167" d="M101.7,88.4c0.9,1.5,0.8,2.9-0.6,4.1c-1.3,1.1-3.3,0.7-4.2-0.7c-0.9-1.5-0.7-3,0.8-4
			C99.2,86.7,100.6,87.1,101.7,88.4z"/>
		<path class="st167" d="M95.5,91.3c0.7,1.3,0.6,2.7-0.8,3.8c-1.3,1-3.3,0.7-4.1-0.8c-0.9-1.5-0.6-2.9,0.8-4
			C92.6,89.4,94.4,89.8,95.5,91.3z"/>
		<path class="st167" d="M79.6,64.6c-1.9,0.2-3.4-0.5-3.8-2.5c-0.3-1.5,0.4-2.6,1.8-3.3c1.1-0.5,2-0.1,3,0.3
			C83,61.8,82.7,63.3,79.6,64.6z"/>
		<path class="st167" d="M82.1,59.9c0.1-3.5,1.6-4.5,4.9-3.3c1.7,1.4,2.1,2.9,0.7,4.8C84.9,63.3,83,62.8,82.1,59.9z"/>
		<path class="st167" d="M88.5,57.3c-0.4-1.6-0.2-3,1.4-3.9c1.3-0.7,2.5-0.4,3.5,0.7c1.2,1.4,0.9,2.8-0.1,4.1
			C91,60.2,89.5,59.9,88.5,57.3z"/>
		<path class="st167" d="M86.6,87.6c0.2,0.6,0.4,1.1,0.5,1.7c0.3,1.7-0.8,2.5-2.1,3c-1,0.4-2,0.1-2.8-0.7c-1.3-1.3-1.2-2.7-0.4-4.1
			C84.2,85.4,85.3,85.4,86.6,87.6z"/>
		<path class="st167" d="M89.2,94.2c0.7,1.5,0.6,2.8-0.8,3.9c-1.2,0.9-3.3,0.5-4-0.9c-0.8-1.5-0.5-2.9,0.9-3.8
			C86.8,92.5,88.1,92.9,89.2,94.2z"/>
		<path class="st167" d="M107.2,76c1.6-0.8,3-0.7,4,0.8c1,1.5,0.7,3-0.8,4c-1.5,1-3,0.7-4-0.8C105.5,78.5,105.9,77.1,107.2,76z"/>
		<path class="st167" d="M75.1,63.1c0.7,1.6,0.6,3.1-1,4c-1.5,0.9-3,0.5-3.9-1c-0.8-1.4-0.5-2.9,0.9-3.8
			C72.5,61.3,73.9,61.7,75.1,63.1z"/>
		<path class="st167" d="M107.7,85.3c0.9,1.6,0.8,3.1-0.6,4.1c-1.4,1-3,0.7-4-0.7c-1-1.4-0.7-2.8,0.6-3.8
			C105.1,83.8,106.5,84.2,107.7,85.3z"/>
		<path class="st167" d="M71.6,71.7c0.8,1.6,0.7,3-0.8,4c-1.5,1-3,0.6-3.9-0.8c-0.9-1.4-0.6-2.8,0.7-3.8C69,70,70.4,70.4,71.6,71.7z
			"/>
		<path class="st167" d="M76.3,89.6c1.5-0.7,2.9-0.6,3.8,0.7c1,1.4,0.7,3-0.7,3.9c-1.5,1-3,0.6-3.9-0.9C74.6,92,75,90.7,76.3,89.6z"
			/>
		<path class="st167" d="M99.2,55.7c-1.4,0.8-2.8,0.6-3.8-0.6c-1-1.1-0.6-3.2,0.7-4c1.4-0.8,2.9-0.6,3.8,0.8
			C100.8,53.2,100.4,54.6,99.2,55.7z"/>
		<path class="st167" d="M111.6,61.3c0.7,1.5,0.6,2.9-0.8,3.8c-1.4,0.9-2.9,0.6-3.8-0.8c-0.9-1.4-0.6-2.9,0.8-3.8
			C109.2,59.7,110.6,60.1,111.6,61.3z"/>
		<path class="st167" d="M78.6,54c0.8,1.5,0.7,2.9-0.7,3.8c-1.3,1-2.8,0.7-3.8-0.6c-1-1.3-0.7-2.8,0.6-3.8
			C76.1,52.5,77.5,52.8,78.6,54z"/>
		<path class="st167" d="M84.8,51.1c0.7,1.5,0.6,2.9-0.8,3.8c-1.4,0.9-2.9,0.6-3.7-0.8c-0.9-1.4-0.6-2.9,0.8-3.7
			C82.4,49.5,83.7,49.9,84.8,51.1z"/>
		<path class="st167" d="M65,65.5c1.3-0.8,2.6-0.7,3.6,0.5c1,1.3,0.8,2.8-0.5,3.8c-1.4,1-2.8,0.7-3.7-0.7
			C63.4,67.8,63.7,66.5,65,65.5z"/>
		<path class="st167" d="M113.8,82.6c0.8,1.5,0.5,2.9-0.9,3.8c-1.3,0.8-2.7,0.5-3.6-0.8c-0.9-1.4-0.6-2.9,0.9-3.7
			C111.6,81,112.8,81.4,113.8,82.6z"/>
		<path class="st167" d="M114.6,67.4c0.8,1.4,0.7,2.8-0.7,3.8c-1.4,1-2.8,0.7-3.8-0.7c-0.9-1.3-0.6-2.7,0.6-3.6
			C112,65.8,113.4,66.2,114.6,67.4z"/>
		<path class="st167" d="M73.8,93.5c0.8,1.4,0.7,2.6-0.6,3.5c-1.3,0.8-2.5,0.6-3.3-0.6c-0.9-1.3-0.7-2.6,0.6-3.5
			C71.6,92.1,72.8,92.4,73.8,93.5z"/>
		<path class="st167" d="M71.4,60.4c-1.4,0.8-2.6,0.6-3.5-0.7c-0.9-1.3-0.6-2.6,0.7-3.5c1.3-0.9,2.6-0.6,3.5,0.7
			C73,58.2,72.7,59.4,71.4,60.4z"/>
		<path class="st167" d="M70.2,91c-1.5,0.8-2.7,0.6-3.6-0.7c-0.9-1.4-0.6-2.6,0.8-3.5c1.4-0.9,2.6-0.6,3.5,0.8
			C71.8,88.9,71.3,90.1,70.2,91z"/>
		<path class="st167" d="M110.1,92c0.8,1.4,0.7,2.6-0.6,3.5c-1.3,0.9-2.6,0.7-3.5-0.7c-0.8-1.3-0.6-2.5,0.6-3.4
			C107.9,90.5,109.1,90.8,110.1,92z"/>
		<path class="st167" d="M103.9,94.7c0.8,1.4,0.6,2.7-0.7,3.6c-1.4,1-2.8,0.6-3.7-0.8c-0.8-1.4-0.5-2.7,0.9-3.5
			C101.7,93.1,102.9,93.4,103.9,94.7z"/>
		<path class="st167" d="M87,47.5c1.4-0.8,2.7-0.7,3.6,0.6c1,1.4,0.7,2.8-0.7,3.7c-1.3,0.9-2.6,0.6-3.5-0.8
			C85.5,49.7,85.9,48.5,87,47.5z"/>
		<path class="st167" d="M98.1,97.3c0.8,1.5,0.7,2.7-0.7,3.6c-1.3,0.9-2.6,0.6-3.5-0.7c-0.9-1.3-0.6-2.6,0.7-3.5
			C95.9,95.8,97.1,96.2,98.1,97.3z"/>
		<path class="st167" d="M91.3,103.9c-1.4,0.8-2.6,0.6-3.5-0.8c-0.8-1.3-0.6-2.5,0.7-3.3c1.4-0.9,2.6-0.6,3.5,0.7
			C92.8,101.8,92.4,103,91.3,103.9z"/>
		<path class="st167" d="M117,73.8c0.8,1.3,0.8,2.6-0.5,3.6c-1.3,1-2.6,0.8-3.6-0.5c-1-1.3-0.8-2.6,0.5-3.6
			C114.7,72.4,116,72.6,117,73.8z"/>
		<path class="st167" d="M82.6,96.9c0.8,1.4,0.7,2.6-0.6,3.5c-1.3,0.9-2.6,0.7-3.5-0.6c-0.9-1.3-0.7-2.6,0.6-3.5
			C80.3,95.4,81.5,95.6,82.6,96.9z"/>
		<path class="st167" d="M97,45.6c0.7,1.4,0.6,2.6-0.7,3.5c-1.3,0.8-2.5,0.6-3.4-0.6c-0.9-1.4-0.7-2.6,0.7-3.5
			C95,44.1,96.1,44.5,97,45.6z"/>
		<path class="st167" d="M64.6,80.4c1.4-0.8,2.7-0.8,3.6,0.5c1,1.4,0.8,2.7-0.6,3.7c-1.3,0.9-2.6,0.6-3.5-0.7
			C63.1,82.6,63.4,81.4,64.6,80.4z"/>
		<path class="st167" d="M64.6,78.4c-1.4,0.8-2.6,0.8-3.5-0.6c-0.9-1.3-0.7-2.6,0.6-3.5c1.2-0.9,2.4-0.7,3.4,0.5
			C66,76.1,65.8,77.3,64.6,78.4z"/>
		<path class="st167" d="M108.9,55c0.8,1.4,0.6,2.7-0.7,3.6c-1.4,1-2.8,0.6-3.7-0.8c-0.8-1.4-0.5-2.7,0.9-3.5
			C106.7,53.4,107.9,53.8,108.9,55z"/>
		<path class="st167" d="M105.8,49c0.7,1.3,0.6,2.5-0.7,3.3c-1.3,0.9-2.6,0.7-3.5-0.7c-0.8-1.3-0.6-2.5,0.6-3.3
			C103.6,47.4,104.8,47.8,105.8,49z"/>
		<path class="st167" d="M65.8,59.7c0.8,1.5,0.7,2.6-0.6,3.5c-1.3,0.8-2.5,0.6-3.3-0.6c-0.9-1.3-0.6-2.5,0.6-3.3
			C63.8,58.4,64.9,58.8,65.8,59.7z"/>
		<path class="st167" d="M62.5,68.7c0.6,1.3,0.5,2.5-0.7,3.3c-1.3,0.8-2.5,0.6-3.3-0.7c-0.8-1.2-0.6-2.5,0.7-3.3
			C60.4,67.2,61.6,67.5,62.5,68.7z"/>
		<path class="st167" d="M74.8,51.6c-1.4,0.6-2.6,0.5-3.4-0.8c-0.8-1.3-0.5-2.5,0.8-3.3c1.3-0.8,2.5-0.5,3.3,0.8
			C76.2,49.5,75.7,50.7,74.8,51.6z"/>
		<path class="st167" d="M112.8,88.5c1.3-0.7,2.5-0.6,3.4,0.6c0.9,1.2,0.7,2.5-0.6,3.3c-1.2,0.9-2.5,0.7-3.3-0.6
			C111.3,90.6,111.7,89.5,112.8,88.5z"/>
		<path class="st167" d="M78.1,44.5c1.3-0.6,2.5-0.5,3.3,0.7c0.8,1.2,0.6,2.5-0.7,3.3c-1.2,0.8-2.5,0.6-3.3-0.7
			C76.6,46.6,77,45.4,78.1,44.5z"/>
		<path class="st167" d="M117.7,58.8c0.7,1.3,0.6,2.5-0.6,3.4c-1.2,0.9-2.5,0.7-3.3-0.6c-0.9-1.2-0.7-2.5,0.6-3.3
			C115.5,57.4,116.7,57.8,117.7,58.8z"/>
		<path class="st167" d="M120.7,65c0.6,1.3,0.5,2.5-0.8,3.4c-1.2,0.7-2.4,0.5-3.2-0.6c-0.9-1.2-0.7-2.5,0.6-3.4
			C118.6,63.6,119.8,63.9,120.7,65z"/>
		<path class="st167" d="M120,80.1c0.7,1.5,0.6,2.6-0.7,3.5c-1.3,0.8-2.5,0.5-3.3-0.8c-0.8-1.3-0.5-2.5,0.8-3.3
			C118,78.6,119.1,79.1,120,80.1z"/>
		<path class="st167" d="M82.1,59.9c1.8,2.6,2.8,2.8,5.5,1c0.4,0.1,0.6,0.4,0.6,0.7c-1.4,1.1-2.6,2.3-3.2,3.9
			c-1.7-0.5-3.2-1.9-5.2-0.7c-0.1-0.1-0.1-0.2-0.2-0.3c2.5-1.8,2.7-2.8,1-5.4C81.1,59.4,81.6,59.6,82.1,59.9z"/>
		<path class="st167" d="M76.4,100.1c0.6,1.3,0.5,2.6-0.9,3.3c-1.2,0.7-2.4,0.4-3.1-0.8c-0.8-1.3-0.5-2.5,0.8-3.3
			C74.4,98.6,75.5,99,76.4,100.1z"/>
		<path class="st167" d="M114,56.2c-1.3,0.6-2.5,0.5-3.3-0.7c-0.8-1.2-0.5-2.5,0.8-3.3c1.1-0.7,2.4-0.5,3.1,0.7
			C115.5,54,115.1,55.2,114,56.2z"/>
		<path class="st167" d="M85.5,103.2c0.6,1.3,0.4,2.6-0.9,3.3c-1.2,0.7-2.4,0.4-3.1-0.8c-0.8-1.3-0.5-2.6,0.8-3.3
			C83.5,101.7,84.6,102.1,85.5,103.2z"/>
		<path class="st167" d="M61.7,83.8c0.6,1.2,0.5,2.4-0.6,3.2c-1.2,0.8-2.5,0.6-3.3-0.7c-0.7-1.1-0.4-2.4,0.7-3.1
			C59.6,82.4,60.8,82.8,61.7,83.8z"/>
		<path class="st167" d="M100.2,66.8c1.8,2.6,2.8,2.8,5.5,1c-0.1,0.4-0.2,0.8-0.3,1.2c-2.5,1.8-2.7,2.8-1,5.4c-0.3,0-0.7,0.1-1,0.1
			c-0.4-1.9-1.4-3.2-3.4-3.3c-1.8-0.1,0.2-0.9-0.3-1.2c-0.3-1,0-2,0.1-3C99.8,66.9,100,66.8,100.2,66.8z"/>
		<path class="st167" d="M113,98.2c0.6,1.2,0.6,2.4-0.5,3.2c-1.1,0.8-2.4,0.6-3.2-0.5c-0.8-1.1-0.6-2.4,0.5-3.2
			C110.9,96.9,112,97.3,113,98.2z"/>
		<path class="st167" d="M99.4,42.3c1.2-0.6,2.4-0.5,3.2,0.7c0.8,1.1,0.6,2.4-0.6,3.2c-1.2,0.9-2.5,0.6-3.3-0.7
			C98,44.3,98.4,43.2,99.4,42.3z"/>
		<path class="st167" d="M123,71c0.6,1.3,0.5,2.5-0.6,3.3c-1.2,0.8-2.5,0.6-3.3-0.6c-0.8-1.2-0.5-2.5,0.8-3.3
			C121.1,69.6,122.2,70.1,123,71z"/>
		<path class="st167" d="M63.8,93.4c-1.2,0.7-2.4,0.6-3.2-0.5c-0.9-1.2-0.7-2.5,0.5-3.3c1.1-0.8,2.4-0.5,3.2,0.6
			C65,91.3,64.7,92.4,63.8,93.4z"/>
		<path class="st167" d="M68.3,54.1c-1.2,0.6-2.4,0.5-3.2-0.6c-0.8-1.2-0.6-2.6,0.7-3.3c1.2-0.7,2.4-0.4,3.2,0.7
			C69.7,52.1,69.3,53.2,68.3,54.1z"/>
		<path class="st167" d="M87.8,42.5c0.7,1.3,0.6,2.5-0.6,3.4c-1.2,0.8-2.5,0.6-3.3-0.7c-0.8-1.1-0.5-2.3,0.6-3.2
			C85.6,41.1,86.8,41.5,87.8,42.5z"/>
		<path class="st167" d="M106.1,104.1c-1.3,0.7-2.5,0.6-3.4-0.6c-0.8-1.1-0.6-2.4,0.5-3.2c1.2-0.9,2.5-0.6,3.3,0.6
			C107.4,102,107.1,103.2,106.1,104.1z"/>
		<path class="st167" d="M100.6,104c0.5,1.3,0.4,2.5-0.7,3.2c-1.3,0.8-2.6,0.5-3.3-0.8c-0.7-1.2-0.4-2.4,0.8-3.1
			C98.6,102.5,99.7,102.9,100.6,104z"/>
		<path class="st167" d="M100.2,66.8l-0.1,0.1l-0.1,0.1c-1.3-0.4-2.4-1-3.6-1.6c0.2-1.6,1.6-3,0.8-4.8c0.2,0.1,0.5,0.1,0.7,0.2
			c1.3,1.8,2.9,2.1,4.8,0.9c-0.1,0.4-0.2,0.8-0.3,1.2C100.8,63.7,99.9,64.9,100.2,66.8z"/>
		<path class="st167" d="M88.1,61.7c-0.2-0.2-0.3-0.5-0.5-0.7c0.9-1.6,0.6-3-0.6-4.4c0.5,0.2,1,0.5,1.5,0.7c1.3,1.8,2.9,2.2,4.8,0.9
			c0.2,0.2,0.3,0.4,0.5,0.7c-2,0.7-3,2-2.6,4.3c-0.5-0.3-1-0.5-1.5-0.8C89,62.5,88.3,62.5,88.1,61.7z"/>
		<path class="st167" d="M62.7,53.9c0.6,1.3,0.4,2.4-0.8,3.1c-1.1,0.6-2.2,0.3-2.9-0.8c-0.7-1.2-0.4-2.4,0.8-3
			C60.9,52.6,62,53,62.7,53.9z"/>
		<path class="st167" d="M67.2,96.3c0.6,1.2,0.5,2.4-0.6,3.2c-1.2,0.8-2.4,0.5-3.1-0.7c-0.7-1.1-0.5-2.2,0.6-3
			C65.2,95,66.3,95.3,67.2,96.3z"/>
		<path class="st167" d="M125.9,77.3c0.7,1.2,0.5,2.4-0.7,3.1c-1.1,0.7-2.2,0.4-2.9-0.7c-0.8-1.2-0.5-2.4,0.7-3.1
			C124,75.9,125.1,76.3,125.9,77.3z"/>
		<path class="st167" d="M93.9,39.6c0.6,1.3,0.5,2.4-0.7,3.2c-1.1,0.7-2.4,0.5-3.1-0.7c-0.7-1.1-0.5-2.4,0.7-3.1
			C91.9,38.3,93,38.6,93.9,39.6z"/>
		<path class="st167" d="M59.4,62.6c0.6,1.3,0.4,2.5-0.8,3.2c-1.2,0.7-2.4,0.4-3.1-0.8c-0.6-1.1-0.3-2.3,0.7-2.9
			C57.4,61.3,58.5,61.6,59.4,62.6z"/>
		<path class="st167" d="M118.4,98.4c-1.2,0.7-2.3,0.5-3-0.6c-0.8-1.2-0.5-2.3,0.8-3c1.2-0.7,2.2-0.3,2.9,0.8
			C119.7,96.7,119.3,97.7,118.4,98.4z"/>
		<path class="st167" d="M79.2,106.3c0.7,1.2,0.5,2.3-0.6,3c-1.2,0.8-2.3,0.5-3-0.8c-0.7-1.2-0.3-2.2,0.8-2.9
			C77.4,105,78.4,105.3,79.2,106.3z"/>
		<path class="st167" d="M108.7,45.9c1.2-0.6,2.4-0.5,3.2,0.6c0.8,1.1,0.6,2.4-0.5,3.2c-1.1,0.8-2.3,0.6-3.2-0.5
			C107.4,48,107.7,46.8,108.7,45.9z"/>
		<path class="st167" d="M122.5,86.6c0.6,1.3,0.5,2.4-0.7,3.2c-1.1,0.7-2.4,0.5-3.1-0.7c-0.7-1.1-0.5-2.4,0.7-3.1
			C120.5,85.2,121.6,85.6,122.5,86.6z"/>
		<path class="st167" d="M58.4,81.3c-1.2,0.6-2.4,0.6-3.2-0.5c-0.8-1.1-0.6-2.4,0.5-3.2c1.1-0.8,2.4-0.6,3.2,0.5
			C59.7,79.2,59.3,80.3,58.4,81.3z"/>
		<path class="st167" d="M93.5,109.8c-1.3,0.6-2.4,0.5-3.2-0.7c-0.7-1.1-0.5-2.4,0.7-3.1c1.1-0.7,2.4-0.5,3.1,0.7
			C94.8,107.8,94.5,108.9,93.5,109.8z"/>
		<path class="st167" d="M76,73.9c3.2-1.7,3.5-3.2,1.1-6c0.4-0.1,0.7-0.1,1.1-0.2c0.2,2.5,2.1,3,4,3.6c-0.2,1.1-0.9,2-1.3,3
			c-0.3,0.3-0.5,0.4-0.9,0.2c-1.2-1.1-2.5-0.6-3.8-0.3C76.2,74.2,76.1,74.1,76,73.9z"/>
		<path class="st167" d="M120.5,50c0.6,1.2,0.4,2.2-0.7,2.9c-1,0.6-2,0.4-2.7-0.5c-0.8-1.1-0.6-2.1,0.5-2.9
			C118.8,48.7,119.7,49,120.5,50z"/>
		<path class="st167" d="M108.8,40.6c0.6,1.2,0.4,2.2-0.7,2.9c-1,0.6-2,0.4-2.7-0.6c-0.8-1.1-0.6-2.1,0.5-2.9
			C107.1,39.2,108,39.5,108.8,40.6z"/>
		<path class="st167" d="M123.2,61.9c1.1-0.7,2.1-0.6,2.9,0.5c0.8,1.1,0.6,2.1-0.5,2.9c-1.1,0.8-2.1,0.6-2.9-0.5
			C122,63.8,122.2,62.8,123.2,61.9z"/>
		<path class="st167" d="M72.4,41.9c0.7,1.2,0.6,2.2-0.6,3c-1.1,0.7-2.2,0.5-2.9-0.7c-0.6-1-0.4-2,0.6-2.7
			C70.6,40.7,71.6,41,72.4,41.9z"/>
		<path class="st167" d="M120.6,55.5c1.1-0.7,2.1-0.5,2.9,0.5c0.8,1.1,0.6,2.1-0.5,2.9c-1.1,0.8-2.1,0.6-2.9-0.5
			C119.4,57.4,119.6,56.4,120.6,55.5z"/>
		<path class="st167" d="M87.8,109.6c0.7,1.1,0.6,2.1-0.5,2.9c-1.1,0.8-2.1,0.5-2.9-0.6c-0.7-1-0.5-2,0.5-2.7
			C85.9,108.4,86.9,108.6,87.8,109.6z"/>
		<path class="st167" d="M55.6,74.8c-1.2,0.7-2.2,0.5-3-0.6c-0.7-1.1-0.5-2.2,0.6-2.9c1.1-0.7,2.2-0.5,2.9,0.6
			C56.9,72.9,56.6,74,55.6,74.8z"/>
		<path class="st167" d="M78,41.9c-1.2,0.7-2.2,0.5-2.9-0.6c-0.7-1.1-0.4-2.2,0.7-2.9c1-0.6,2-0.4,2.7,0.6
			C79.3,40.1,79.1,41.1,78,41.9z"/>
		<path class="st167" d="M84.4,39.2c-1.1,0.6-2,0.5-2.7-0.5c-0.8-1.1-0.6-2.1,0.5-2.9c1.1-0.8,2.2-0.5,2.9,0.7
			C85.6,37.6,85.3,38.5,84.4,39.2z"/>
		<path class="st167" d="M69.2,105.7c-1.3,0.7-2.3,0.5-3-0.6c-0.6-1-0.4-2,0.6-2.7c1.1-0.8,2.1-0.6,2.9,0.5
			C70.4,103.9,70.1,104.9,69.2,105.7z"/>
		<path class="st167" d="M99.8,36.7c0.7,1.1,0.5,2.1-0.6,2.9c-1,0.7-2,0.5-2.7-0.6c-0.8-1.1-0.5-2.1,0.6-2.9
			C98.1,35.5,99,35.8,99.8,36.7z"/>
		<path class="st167" d="M102,77.8c-3.2,1.7-3.5,3.3-1.1,6c-0.4-0.1-0.8-0.2-1.2-0.3c-0.4-1.6-1.4-2.5-3-2.7c-0.4,0-0.6-0.2-0.7-0.6
			c0.5-1,0.5-2.3,1.7-2.8c1.4,0.5,2.8,0.8,4.2,0.1C101.9,77.6,101.9,77.7,102,77.8z"/>
		<path class="st167" d="M87.7,33.2c1.1-0.6,2-0.6,2.8,0.4c0.7,1,0.6,2-0.4,2.7c-1,0.7-2,0.6-2.7-0.4C86.7,35,86.9,34,87.7,33.2z"/>
		<path class="st167" d="M66,44.5c0.7,1.2,0.5,2.1-0.5,2.8c-1.1,0.8-2.2,0.5-2.9-0.7c-0.6-1.1-0.3-2,0.7-2.7
			C64.4,43.4,65.3,43.7,66,44.5z"/>
		<path class="st167" d="M132,74.7c0.6,1.1,0.5,2-0.5,2.7c-1,0.7-2,0.4-2.7-0.6c-0.6-0.9-0.4-1.9,0.5-2.5
			C130.3,73.6,131.2,73.8,132,74.7z"/>
		<path class="st167" d="M52.8,68.3c-1.2,0.8-2.2,0.7-3-0.3c-0.7-1-0.6-2,0.4-2.7c1-0.7,2-0.6,2.7,0.4
			C53.7,66.7,53.4,67.6,52.8,68.3z"/>
		<path class="st167" d="M50.3,59.4c0.5,1.1,0.4,2-0.5,2.7c-0.9,0.6-1.9,0.5-2.5-0.4c-0.7-1-0.5-2,0.5-2.7
			C48.7,58.3,49.6,58.7,50.3,59.4z"/>
		<path class="st167" d="M52.8,58.9c-0.6-1-0.5-2,0.5-2.7c1.1-0.8,2.1-0.6,2.8,0.6c0.7,1,0.4,2-0.6,2.7
			C54.5,60.1,53.6,59.8,52.8,58.9z"/>
		<path class="st167" d="M96.9,31.1c0.4,1,0.4,1.9-0.5,2.5c-1,0.7-2,0.5-2.7-0.5c-0.6-1-0.4-2.1,0.7-2.6
			C95.3,30,96.3,30.3,96.9,31.1z"/>
		<path class="st167" d="M69.9,108.5c1.1-0.6,2-0.5,2.7,0.6c0.7,1,0.5,2-0.5,2.7c-1,0.7-2,0.5-2.7-0.5
			C68.7,110.2,69,109.2,69.9,108.5z"/>
		<path class="st167" d="M128.6,71.4c-1.1,0.6-2.1,0.5-2.8-0.7c-0.6-1-0.4-2,0.6-2.7c1.1-0.7,2.1-0.5,2.8,0.6
			C129.8,69.8,129.5,70.7,128.6,71.4z"/>
		<path class="st167" d="M120.9,104.6c-1.1,0.5-2,0.4-2.7-0.6c-0.6-1-0.4-2,0.6-2.7c0.9-0.6,1.9-0.4,2.5,0.5
			C122,102.9,121.8,103.8,120.9,104.6z"/>
		<path class="st167" d="M57.8,93.3c0.7,1.1,0.6,2-0.4,2.8c-1,0.7-2,0.6-2.7-0.4c-0.7-1-0.6-2,0.4-2.7C56,92.2,57,92.4,57.8,93.3z"
			/>
		<path class="st167" d="M112.4,104.5c1.2-0.7,2.2-0.6,2.9,0.4c0.7,1,0.6,2-0.4,2.7c-1,0.7-2,0.5-2.7-0.4
			C111.3,106.1,111.7,105.2,112.4,104.5z"/>
		<path class="st167" d="M106.1,34.2c0.5,1,0.4,1.9-0.5,2.6c-1,0.7-2,0.5-2.7-0.5c-0.7-1-0.4-2.1,0.7-2.7
			C104.5,33.1,105.4,33.4,106.1,34.2z"/>
		<path class="st167" d="M49.1,77.2c-1.1,0.5-2.1,0.4-2.7-0.6c-0.6-0.9-0.4-1.9,0.6-2.5c1-0.7,2-0.5,2.7,0.6
			C50.2,75.6,49.9,76.5,49.1,77.2z"/>
		<path class="st167" d="M109.3,107.2c0.6,1,0.5,2-0.5,2.7c-1.1,0.8-2.1,0.6-2.9-0.6c-0.7-1-0.4-2,0.6-2.7
			C107.7,106,108.6,106.2,109.3,107.2z"/>
		<path class="st167" d="M103.2,110.2c0.6,1,0.5,2-0.5,2.7c-1.1,0.8-2.1,0.6-2.8-0.6c-0.7-1-0.4-2,0.6-2.7
			C101.6,109,102.5,109.3,103.2,110.2z"/>
		<path class="st167" d="M131.2,89.8c0.6,0.9,0.5,1.9-0.3,2.6c-0.9,0.8-2,0.6-2.7-0.4c-0.6-0.9-0.4-1.9,0.4-2.5
			C129.5,88.8,130.4,89.1,131.2,89.8z"/>
		<path class="st167" d="M94.1,112.4c1-0.6,2-0.5,2.7,0.5c0.7,1,0.6,2-0.4,2.7c-1,0.7-2,0.5-2.7-0.4
			C92.9,114.1,93.2,113.1,94.1,112.4z"/>
		<path class="st167" d="M122.3,92.4c1.2-0.7,2.2-0.6,2.9,0.4c0.7,1,0.5,2-0.5,2.7c-1,0.7-2,0.5-2.7-0.5
			C121.2,94,121.6,93.2,122.3,92.4z"/>
		<path class="st167" d="M128.3,83.6c0.7,1,0.6,2-0.4,2.8c-1.1,0.8-2.1,0.7-2.9-0.5c-0.7-1-0.5-2,0.5-2.7
			C126.5,82.5,127.5,82.7,128.3,83.6z"/>
		<path class="st167" d="M114.7,37.5c0.5,1,0.5,1.9-0.4,2.6c-1,0.8-2,0.6-2.7-0.4c-0.6-0.9-0.4-1.9,0.5-2.5
			C113,36.5,113.9,36.7,114.7,37.5z"/>
		<path class="st167" d="M90.7,115.9c0.4,1,0.4,1.9-0.5,2.5c-1,0.7-2,0.5-2.7-0.5c-0.6-1-0.4-2.1,0.7-2.6
			C89.1,114.8,90,115.1,90.7,115.9z"/>
		<path class="st167" d="M52.3,80.9c0.5,1.1,0.4,2-0.6,2.7c-1,0.7-2,0.5-2.7-0.6c-0.7-1-0.5-2,0.6-2.7C50.6,79.7,51.5,80,52.3,80.9z
			"/>
		<path class="st167" d="M131.7,62.1c-1,0.6-1.9,0.5-2.6-0.3c-0.8-1-0.6-2,0.4-2.7c0.9-0.6,1.9-0.4,2.5,0.5
			C132.7,60.4,132.4,61.4,131.7,62.1z"/>
		<path class="st167" d="M60.8,105.4c1-0.4,1.9-0.4,2.6,0.6c0.6,0.9,0.5,1.9-0.4,2.6c-1,0.7-2.1,0.5-2.7-0.6
			C59.7,107,60,106.1,60.8,105.4z"/>
		<path class="st167" d="M117.8,43.6c0.6,1.2,0.4,2.1-0.6,2.8c-1.1,0.6-2,0.4-2.7-0.6c-0.6-1-0.4-2,0.6-2.7
			C116.2,42.4,117.1,42.8,117.8,43.6z"/>
		<path class="st167" d="M126.3,50.1c-1,0.5-1.9,0.5-2.6-0.4c-0.7-1-0.5-2,0.5-2.7c0.9-0.6,1.9-0.4,2.5,0.5
			C127.3,48.4,127.1,49.3,126.3,50.1z"/>
		<path class="st167" d="M58,99.1c1.2-0.7,2.2-0.6,2.9,0.4c0.7,1,0.5,2-0.5,2.7c-1,0.7-2,0.5-2.7-0.5C56.9,100.7,57.3,99.8,58,99.1z
			"/>
		<path class="st167" d="M81.1,115.5c-1.1,0.5-2.1,0.5-2.7-0.6c-0.6-1-0.4-2,0.6-2.7c0.9-0.6,1.9-0.4,2.5,0.5
			C82.3,113.7,82,114.7,81.1,115.5z"/>
		<path class="st167" d="M127.1,53.1c1.1-0.5,2-0.4,2.6,0.5c0.6,0.9,0.5,1.9-0.4,2.5c-1,0.7-2,0.5-2.7-0.5
			C126,54.7,126.4,53.8,127.1,53.1z"/>
		<path class="st167" d="M69.3,36c0.4,1,0.3,1.9-0.6,2.5c-0.9,0.6-1.9,0.4-2.5-0.5c-0.7-1-0.5-2.1,0.6-2.7
			C67.7,34.9,68.7,35.2,69.3,36z"/>
		<path class="st167" d="M75.4,32.9c0.5,1.1,0.4,2-0.5,2.6C74,36.2,73,36,72.3,35.1c-0.7-1-0.5-2,0.5-2.7
			C73.8,31.8,74.7,32.2,75.4,32.9z"/>
		<path class="st167" d="M55.3,87.1c0.5,1.1,0.4,2-0.6,2.7c-1.1,0.7-2.2,0.5-2.8-0.7c-0.6-1.1-0.3-2,0.7-2.6
			C53.7,85.8,54.6,86.1,55.3,87.1z"/>
		<path class="st167" d="M57.1,47.2c1.1-0.6,2-0.5,2.7,0.5c0.7,1,0.4,2-0.6,2.7c-0.9,0.6-1.9,0.4-2.5-0.5C56,48.9,56.2,48,57.1,47.2
			z"/>
		<path class="st167" d="M86.6,87.6c-1.6-1.9-3.2-1.4-4.8-0.1c0-0.3,0-0.6-0.1-0.9c1.8-0.5,2.8-1.8,2.8-3.7c0-0.2,0.2-0.4,0.4-0.4
			c0.9,0.2,1.8,0.7,2.6,1.2c0.3,0.4,0.2,0.8-0.1,1.2C86.6,85.5,86.9,86.6,86.6,87.6z"/>
		<path class="st167" d="M117.7,113.5c-0.9,0.5-1.8,0.4-2.4-0.5c-0.6-0.9-0.4-1.9,0.6-2.5c0.9-0.5,1.8-0.2,2.3,0.6
			C118.7,112.1,118.4,112.9,117.7,113.5z"/>
		<path class="st167" d="M121.6,40.7c1-0.5,1.9-0.3,2.4,0.5c0.6,0.9,0.4,1.9-0.7,2.4c-0.9,0.5-1.8,0.2-2.3-0.7
			C120.6,42.1,120.9,41.3,121.6,40.7z"/>
		<path class="st167" d="M111.4,116.2c-1,0.5-1.9,0.4-2.5-0.5c-0.6-0.9-0.4-1.9,0.5-2.5c0.8-0.5,1.8-0.4,2.4,0.4
			C112.4,114.5,112.2,115.4,111.4,116.2z"/>
		<path class="st167" d="M105.7,116.8c0.4,1,0.3,2-0.7,2.5c-0.9,0.5-1.8,0.2-2.3-0.6c-0.5-0.9-0.3-1.9,0.7-2.4
			C104.3,115.7,105.1,116,105.7,116.8z"/>
		<path class="st167" d="M62.5,41.1c-1,0.5-1.9,0.5-2.6-0.4c-0.6-0.9-0.5-1.9,0.4-2.5c0.9-0.6,1.9-0.5,2.5,0.4
			C63.5,39.5,63.2,40.4,62.5,41.1z"/>
		<path class="st167" d="M74.6,118c-1.1,0.5-2.1,0.3-2.6-0.6c-0.5-0.9-0.3-1.9,0.7-2.5c0.9-0.4,1.8-0.2,2.3,0.6
			C75.7,116.4,75.4,117.3,74.6,118z"/>
		<path class="st167" d="M127.7,99.3c0.5,1.1,0.4,2-0.5,2.6c-0.9,0.6-1.9,0.4-2.5-0.6c-0.6-0.9-0.4-1.9,0.6-2.5
			C126.1,98.2,127,98.6,127.7,99.3z"/>
		<path class="st167" d="M87.8,27.4c0.5,0.9,0.4,1.8-0.5,2.4c-0.9,0.6-1.9,0.4-2.5-0.6c-0.5-0.9-0.2-1.8,0.6-2.3
			C86.3,26.4,87.2,26.7,87.8,27.4z"/>
		<path class="st167" d="M51.3,96.1c0.5,0.9,0.4,1.8-0.4,2.4c-0.8,0.6-1.7,0.5-2.4-0.3c-0.7-0.9-0.5-1.9,0.4-2.5
			C49.7,95.1,50.6,95.3,51.3,96.1z"/>
		<path class="st167" d="M46,71c-1,0.5-1.9,0.4-2.5-0.5c-0.6-0.9-0.4-1.9,0.6-2.5c0.8-0.5,1.8-0.3,2.4,0.5
			C47.1,69.3,46.8,70.2,46,71z"/>
		<path class="st167" d="M81.7,30.3c0.5,1,0.5,1.9-0.4,2.6c-0.9,0.7-1.9,0.5-2.6-0.4c-0.7-0.9-0.5-1.9,0.4-2.6
			C80,29.3,81,29.5,81.7,30.3z"/>
		<path class="st167" d="M49,90.1c0.5,1,0.3,2-0.6,2.5c-0.8,0.5-1.8,0.3-2.3-0.6c-0.6-0.9-0.3-1.9,0.6-2.5
			C47.5,89.1,48.4,89.4,49,90.1z"/>
		<path class="st167" d="M84.1,118.5c0.5,0.8,0.4,1.7-0.3,2.3c-0.9,0.7-1.8,0.6-2.5-0.3c-0.6-0.8-0.5-1.7,0.3-2.3
			C82.4,117.5,83.3,117.7,84.1,118.5z"/>
		<path class="st167" d="M132.4,65.2c1.1-0.5,2-0.4,2.6,0.5c0.6,0.9,0.4,1.9-0.6,2.5c-0.9,0.6-1.9,0.4-2.5-0.6
			C131.4,66.8,131.8,65.9,132.4,65.2z"/>
		<path class="st167" d="M134.6,81.1c0.5,1.1,0.4,2.1-0.6,2.6c-0.9,0.6-1.9,0.4-2.5-0.6c-0.6-0.9-0.4-1.9,0.6-2.5
			C133,80.1,133.9,80.5,134.6,81.1z"/>
		<path class="st167" d="M53,52.9c-1,0.5-1.9,0.4-2.6-0.4c-0.7-0.9-0.5-1.9,0.4-2.5c0.9-0.7,1.9-0.5,2.5,0.4
			C54,51.2,53.7,52.1,53,52.9z"/>
		<path class="st167" d="M45.9,84c0.5,1,0.4,1.8-0.5,2.4c-0.9,0.6-1.9,0.4-2.5-0.6c-0.5-0.9-0.3-1.8,0.6-2.3
			C44.5,83,45.3,83.3,45.9,84z"/>
		<path class="st167" d="M66.3,112.1c0.5,0.9,0.4,1.8-0.4,2.4c-0.9,0.6-1.9,0.4-2.5-0.5c-0.5-0.8-0.3-1.8,0.6-2.3
			C64.8,111.1,65.7,111.4,66.3,112.1z"/>
		<path class="st167" d="M133.6,96.4c0.5,0.8,0.5,1.6-0.4,2.2c-0.8,0.5-1.6,0.4-2.1-0.4c-0.6-0.9-0.5-1.7,0.4-2.3
			C132.2,95.5,132.9,95.7,133.6,96.4z"/>
		<path class="st167" d="M96.4,121.3c-0.5-0.9-0.4-1.7,0.5-2.3c0.8-0.6,1.7-0.4,2.3,0.5c0.6,0.8,0.4,1.7-0.5,2.3
			C97.9,122.3,97.1,122,96.4,121.3z"/>
		<path class="st167" d="M90.8,122.1c0.8-0.5,1.5-0.4,2.1,0.3c0.6,0.8,0.6,1.6-0.3,2.2c-0.9,0.6-1.6,0.4-2.2-0.5
			C89.9,123.3,90.1,122.6,90.8,122.1z"/>
		<path class="st167" d="M86.6,125.2c0.4,0.8,0.3,1.6-0.5,2.1c-0.8,0.5-1.6,0.2-2-0.6c-0.4-0.7-0.2-1.4,0.5-1.9
			C85.3,124.2,86,124.4,86.6,125.2z"/>
		<path class="st167" d="M136.9,89.7c-0.8,0.5-1.6,0.3-2.1-0.5c-0.6-0.9-0.4-1.7,0.5-2.3c0.9-0.6,1.7-0.3,2.2,0.6
			C137.9,88.5,137.7,89.2,136.9,89.7z"/>
		<path class="st167" d="M132.5,44.6c0.6,1,0.4,1.7-0.4,2.2c-0.8,0.5-1.5,0.4-2.1-0.4c-0.5-0.8-0.4-1.5,0.4-2.1
			C131.3,43.7,132,44,132.5,44.6z"/>
		<path class="st167" d="M77.9,121.7c0.5,0.8,0.4,1.5-0.4,2.1c-0.9,0.6-1.7,0.4-2.2-0.5c-0.5-0.8-0.3-1.5,0.5-2
			C76.6,120.8,77.3,121,77.9,121.7z"/>
		<path class="st167" d="M52,101.8c0.9-0.5,1.7-0.3,2.3,0.5c0.5,0.9,0.3,1.7-0.5,2.3c-0.9,0.5-1.7,0.3-2.3-0.5
			C50.9,103.2,51.2,102.4,52,101.8z"/>
		<path class="st167" d="M102.5,30.5c-0.9,0.5-1.7,0.5-2.3-0.3c-0.6-0.8-0.5-1.7,0.3-2.3c0.8-0.6,1.7-0.5,2.3,0.3
			C103.4,29,103.2,29.8,102.5,30.5z"/>
		<path class="st167" d="M38.1,71.3c0.8-0.5,1.6-0.4,2.1,0.4c0.5,0.8,0.4,1.5-0.4,2.1c-0.8,0.5-1.5,0.4-2.1-0.4
			C37.1,72.5,37.3,71.8,38.1,71.3z"/>
		<path class="st167" d="M141.2,84.3c0.9-0.5,1.7-0.5,2.2,0.3c0.5,0.7,0.4,1.4-0.3,1.9c-0.7,0.6-1.5,0.4-2.1-0.3
			C140.5,85.4,140.8,84.8,141.2,84.3z"/>
		<path class="st167" d="M47.9,44.1c0.9-0.6,1.6-0.5,2.2,0.3c0.6,0.9,0.4,1.7-0.5,2.2c-0.8,0.5-1.5,0.3-2-0.5
			C47,45.3,47.3,44.6,47.9,44.1z"/>
		<path class="st167" d="M106.6,25c0.9-0.5,1.7-0.4,2.2,0.4c0.5,0.8,0.4,1.5-0.4,2c-0.8,0.5-1.5,0.3-2-0.4
			C105.8,26.2,106.1,25.5,106.6,25z"/>
		<path class="st167" d="M137.9,71.9c0.5,0.9,0.4,1.7-0.4,2.3c-0.8,0.6-1.7,0.4-2.3-0.4c-0.6-0.8-0.4-1.7,0.4-2.3
			C136.4,70.9,137.2,71.1,137.9,71.9z"/>
		<path class="st167" d="M56.3,110.9c-0.9,0.5-1.7,0.3-2.2-0.6c-0.5-0.8-0.2-1.5,0.6-2c0.9-0.6,1.7-0.3,2.2,0.6
			C57.3,109.7,57,110.4,56.3,110.9z"/>
		<path class="st167" d="M47,53.5c0.5,0.8,0.5,1.6-0.4,2.2c-0.8,0.5-1.5,0.4-2.1-0.4c-0.6-0.9-0.5-1.7,0.4-2.3
			C45.7,52.6,46.4,52.7,47,53.5z"/>
		<path class="st167" d="M93.6,27.1c-0.9,0.5-1.6,0.4-2.2-0.5c-0.5-0.8-0.3-1.5,0.4-2.1c0.9-0.6,1.7-0.4,2.2,0.5
			C94.6,25.8,94.4,26.5,93.6,27.1z"/>
		<path class="st167" d="M129.6,40.3c-1,0.5-1.7,0.3-2.2-0.5c-0.5-0.8-0.2-1.6,0.6-2c0.7-0.4,1.4-0.2,1.9,0.5
			C130.4,39.1,130.1,39.8,129.6,40.3z"/>
		<path class="st167" d="M42.7,80c-0.8,0.5-1.6,0.3-2.1-0.5c-0.6-0.9-0.4-1.7,0.5-2.3c0.9-0.6,1.7-0.3,2.2,0.6
			C43.8,78.7,43.5,79.5,42.7,80z"/>
		<path class="st167" d="M68.7,118.5c0.6,0.9,0.5,1.6-0.3,2.2c-0.8,0.6-1.5,0.5-2.1-0.3c-0.6-0.8-0.5-1.5,0.3-2.1
			C67.4,117.7,68.1,117.9,68.7,118.5z"/>
		<path class="st167" d="M109.2,33.2c-0.5-0.9-0.4-1.7,0.5-2.3c0.8-0.6,1.7-0.4,2.3,0.5c0.6,0.8,0.4,1.7-0.5,2.3
			C110.6,34.2,109.8,34,109.2,33.2z"/>
		<path class="st167" d="M40.7,56.3c0.3,0.8,0.2,1.6-0.7,2c-0.7,0.3-1.5,0.2-1.9-0.6c-0.4-0.8-0.2-1.6,0.6-2
			C39.5,55.4,40.2,55.6,40.7,56.3z"/>
		<path class="st167" d="M84.5,21.5c0.4,0.8,0.4,1.6-0.4,2.1c-0.8,0.5-1.5,0.3-2-0.5c-0.4-0.7-0.3-1.4,0.4-1.9
			C83.2,20.6,83.9,20.7,84.5,21.5z"/>
		<path class="st167" d="M138.2,57.1c0.5,0.9,0.4,1.6-0.4,2.2c-0.9,0.6-1.7,0.3-2.2-0.6c-0.5-0.8-0.2-1.5,0.6-2
			C137,56.2,137.7,56.5,138.2,57.1z"/>
		<path class="st167" d="M100,21.9c0.5,1,0.3,1.7-0.5,2.2c-0.8,0.5-1.6,0.2-2-0.6c-0.4-0.7-0.2-1.4,0.5-1.9
			C98.8,21,99.5,21.3,100,21.9z"/>
		<path class="st167" d="M135.6,50.8c0.5,0.8,0.4,1.5-0.3,2.1c-0.9,0.6-1.6,0.5-2.2-0.4c-0.5-0.8-0.3-1.5,0.5-2
			C134.3,49.8,135,50,135.6,50.8z"/>
		<path class="st167" d="M56.6,41.7c0.5,0.9,0.4,1.7-0.5,2.3c-0.8,0.6-1.7,0.4-2.3-0.5c-0.6-0.8-0.4-1.7,0.5-2.3
			C55.2,40.7,56,41,56.6,41.7z"/>
		<path class="st167" d="M76.3,24.1c0.8-0.5,1.5-0.4,2.1,0.3c0.6,0.8,0.5,1.5-0.3,2.1c-0.8,0.6-1.5,0.5-2.1-0.3
			C75.4,25.4,75.6,24.7,76.3,24.1z"/>
		<path class="st167" d="M43.8,47.3c0.5,0.8,0.5,1.5-0.1,2.1c-0.7,0.6-1.5,0.6-2.1-0.2c-0.6-0.7-0.4-1.5,0.3-2.1
			C42.6,46.6,43.3,46.9,43.8,47.3z"/>
		<path class="st167" d="M70.5,26.3c0.9-0.4,1.6-0.2,2,0.6c0.5,0.8,0.3,1.6-0.6,2c-0.8,0.5-1.6,0.3-2-0.6
			C69.4,27.5,69.7,26.9,70.5,26.3z"/>
		<path class="st167" d="M120.8,35.1c0.5,0.8,0.5,1.6-0.4,2.2c-0.8,0.5-1.5,0.4-2.1-0.4c-0.6-0.8-0.5-1.7,0.4-2.2
			C119.5,34.2,120.2,34.4,120.8,35.1z"/>
		<path class="st167" d="M45,99.3c0.4,0.8,0.4,1.6-0.4,2c-0.8,0.5-1.5,0.3-2-0.5c-0.4-0.7-0.3-1.4,0.4-1.9
			C43.6,98.4,44.3,98.6,45,99.3z"/>
		<path class="st167" d="M141.2,63.3c0.5,1,0.3,1.7-0.5,2.1c-0.8,0.5-1.6,0.3-2-0.6c-0.5-0.8-0.3-1.5,0.5-2
			C140,62.3,140.7,62.6,141.2,63.3z"/>
		<path class="st167" d="M66.3,29.8c0.5,0.8,0.5,1.5-0.3,2.1c-0.8,0.6-1.6,0.5-2.2-0.4c-0.5-0.8-0.4-1.5,0.4-2
			C65,28.9,65.7,29,66.3,29.8z"/>
		<path class="st167" d="M59.6,114.8c0.5,0.9,0.4,1.7-0.4,2.2c-0.8,0.5-1.6,0.3-2-0.5c-0.4-0.7-0.3-1.4,0.4-1.9
			C58.4,113.9,59.1,114.2,59.6,114.8z"/>
		<path class="st167" d="M117.9,30.8c-0.8,0.5-1.5,0.5-2.1-0.3c-0.6-0.8-0.4-1.5,0.4-2.1c0.7-0.5,1.4-0.4,1.9,0.3
			C118.7,29.4,118.5,30.2,117.9,30.8z"/>
		<path class="st167" d="M42.3,92.9c0.5,0.8,0.4,1.5-0.4,2.1c-0.7,0.5-1.4,0.4-1.9-0.3c-0.6-0.7-0.5-1.5,0.2-2.1
			C41,92,41.7,92.2,42.3,92.9z"/>
		<path class="st167" d="M59.9,32.3c0.5,0.8,0.5,1.5-0.2,2.1c-0.7,0.6-1.5,0.5-2.1-0.2c-0.6-0.7-0.5-1.5,0.2-2.1
			C58.5,31.5,59.3,31.6,59.9,32.3z"/>
		<path class="st167" d="M51.8,35c0.8-0.4,1.6-0.3,2,0.6c0.4,0.7,0.2,1.4-0.5,1.9c-0.8,0.5-1.6,0.3-2-0.5C51,36.2,51.2,35.6,51.8,35
			z"/>
		<path class="st167" d="M139.9,93.9c0.4,0.8,0.4,1.6-0.4,2c-0.8,0.5-1.5,0.3-2-0.5c-0.4-0.7-0.3-1.4,0.4-1.9
			C138.6,93,139.3,93.2,139.9,93.9z"/>
		<path class="st167" d="M143.4,71.7c-1,0.4-1.7,0.3-2.1-0.5c-0.4-0.8-0.2-1.6,0.6-2c0.7-0.4,1.4-0.2,1.9,0.5
			C144.3,70.5,144,71.2,143.4,71.7z"/>
		<path class="st167" d="M43.6,62.2c0.6,0.9,0.4,1.7-0.4,2.3c-0.8,0.5-1.5,0.3-2.1-0.4c-0.6-0.9-0.4-1.7,0.5-2.2
			C42.4,61.3,43.1,61.5,43.6,62.2z"/>
		<path class="st167" d="M39.3,86.7c0.5,0.8,0.4,1.5-0.4,2.1c-0.7,0.5-1.4,0.4-1.9-0.3c-0.6-0.7-0.5-1.5,0.3-2.1
			C38,85.9,38.7,86.1,39.3,86.7z"/>
		<path class="st167" d="M48,105.4c0.4,0.8,0.3,1.6-0.5,2.1c-0.7,0.4-1.4,0.3-1.9-0.4c-0.5-0.8-0.4-1.6,0.4-2.1
			C46.7,104.6,47.4,104.8,48,105.4z"/>
		<path class="st167" d="M138.3,78c0.8-0.5,1.5-0.5,2.1,0.3c0.6,0.8,0.5,1.7-0.4,2.2c-0.8,0.5-1.5,0.4-2.1-0.4
			C137.4,79.3,137.5,78.6,138.3,78z"/>
		<path class="st167" d="M37.4,65.3c0.4,0.8,0.4,1.5-0.4,2.1c-0.7,0.5-1.4,0.3-1.9-0.3c-0.6-0.7-0.4-1.5,0.3-2.1
			C36.2,64.5,36.8,64.7,37.4,65.3z"/>
		<path class="st167" d="M124.1,108.1c0.6,1,0.4,1.8-0.5,2.4c-0.9,0.5-1.7,0.3-2.2-0.6c-0.5-0.8-0.3-1.5,0.5-2.1
			C122.8,107.2,123.5,107.4,124.1,108.1z"/>
		<path class="st167" d="M130.4,105.6c0.5,0.8,0.4,1.5-0.4,2.1c-0.8,0.6-1.5,0.4-2.1-0.3c-0.6-0.8-0.4-1.5,0.3-2.1
			C129.1,104.7,129.8,104.9,130.4,105.6z"/>
		<path class="st167" d="M102.1,125.7c0.4,0.8,0.2,1.6-0.6,2c-0.7,0.4-1.4,0.2-1.9-0.5c-0.5-0.8-0.3-1.6,0.6-2
			C100.9,124.8,101.6,125,102.1,125.7z"/>
		<path class="st167" d="M136.5,102.6c0.4,0.7,0.4,1.4-0.2,2c-0.7,0.6-1.5,0.5-2.1-0.2c-0.5-0.7-0.4-1.4,0.2-1.9
			C135.1,101.8,135.8,102,136.5,102.6z"/>
		<path class="st167" d="M108.5,123.1c0.4,0.8,0.3,1.6-0.5,2c-0.8,0.5-1.6,0.2-2-0.6c-0.4-0.7-0.2-1.4,0.5-1.9
			C107.2,122.1,107.9,122.3,108.5,123.1z"/>
		<path class="st167" d="M114.6,120c0.4,0.8,0.3,1.6-0.5,2.1c-0.8,0.5-1.6,0.2-2-0.6c-0.4-0.7-0.2-1.4,0.5-1.9
			C113.3,119.1,114,119.3,114.6,120z"/>
		<path class="st167" d="M118.9,117c0.8-0.4,1.6-0.4,2.1,0.4c0.5,0.8,0.3,1.5-0.5,2c-0.7,0.4-1.4,0.3-1.9-0.4
			C118,118.3,118.2,117.6,118.9,117z"/>
		<path class="st167" d="M81.7,15.2c0.4,0.7,0.3,1.3-0.3,1.7c-0.7,0.5-1.4,0.3-1.8-0.4c-0.3-0.6-0.1-1.3,0.5-1.6
			C80.7,14.5,81.3,14.7,81.7,15.2z"/>
		<path class="st167" d="M90.6,20.8c-0.7,0.4-1.4,0.4-1.9-0.2c-0.6-0.7-0.5-1.5,0.3-2.1c0.7-0.5,1.4-0.3,1.9,0.3
			C91.3,19.5,91.1,20.2,90.6,20.8z"/>
		<path class="st167" d="M96.9,16c0.3,0.7,0.2,1.4-0.5,1.8c-0.6,0.3-1.3,0.2-1.7-0.4c-0.4-0.7-0.3-1.4,0.4-1.8
			C95.8,15.2,96.4,15.4,96.9,16z"/>
		<path class="st167" d="M34,61.1c-0.8,0.3-1.5,0.2-1.9-0.5c-0.3-0.6-0.2-1.3,0.5-1.7c0.7-0.4,1.4-0.2,1.8,0.5
			C34.7,60,34.5,60.7,34,61.1z"/>
		<path class="st167" d="M104.4,19.1c0.7-0.4,1.4-0.3,1.9,0.3c0.5,0.6,0.3,1.3-0.2,1.8c-0.6,0.6-1.4,0.5-1.9-0.1
			C103.6,20.4,103.9,19.7,104.4,19.1z"/>
		<path class="st167" d="M31.7,74.1c0.6-0.4,1.3-0.3,1.8,0.1c0.6,0.6,0.5,1.4-0.1,1.9c-0.5,0.5-1.3,0.4-1.7-0.1
			C31,75.4,31.2,74.7,31.7,74.1z"/>
		<path class="st167" d="M114.7,24.7c-0.7,0.3-1.4,0.3-1.9-0.4c-0.4-0.6-0.3-1.3,0.3-1.7c0.6-0.5,1.4-0.4,1.9,0.2
			C115.5,23.4,115.3,24.1,114.7,24.7z"/>
		<path class="st167" d="M34.7,80.1c0.7-0.3,1.4-0.3,1.9,0.3c0.5,0.8,0.4,1.6-0.4,2c-0.7,0.4-1.4,0.2-1.9-0.5
			C33.9,81.3,34.1,80.6,34.7,80.1z"/>
		<path class="st167" d="M123.8,27.7c-0.8,0.3-1.5,0.3-1.9-0.5c-0.3-0.6-0.2-1.3,0.4-1.7c0.7-0.4,1.4-0.3,1.8,0.4
			C124.5,26.6,124.3,27.2,123.8,27.7z"/>
		<path class="st167" d="M125,31.8c0.7-0.3,1.5-0.2,1.9,0.5c0.5,0.8,0.3,1.6-0.5,2c-0.7,0.3-1.5,0.2-1.8-0.6
			C124.1,33,124.3,32.3,125,31.8z"/>
		<path class="st167" d="M36,96c0.4,0.6,0.3,1.3-0.3,1.7c-0.6,0.5-1.2,0.4-1.7-0.2c-0.5-0.6-0.4-1.4,0.3-1.8
			C35,95.3,35.6,95.5,36,96z"/>
		<path class="st167" d="M137,41.8c0.7-0.3,1.5-0.2,1.9,0.5c0.3,0.6,0.2,1.3-0.4,1.7c-0.7,0.4-1.5,0.3-1.9-0.5
			C136.2,42.9,136.4,42.3,137,41.8z"/>
		<path class="st167" d="M141.6,47.9c0.3,0.8,0.2,1.5-0.5,1.9c-0.7,0.4-1.5,0.2-1.8-0.6c-0.3-0.6-0.2-1.3,0.4-1.7
			C140.4,47.1,141,47.3,141.6,47.9z"/>
		<path class="st167" d="M37.5,51.7C36.7,52,36,52,35.6,51.2c-0.3-0.6-0.2-1.3,0.4-1.7c0.7-0.4,1.4-0.3,1.8,0.4
			C38.2,50.6,38,51.2,37.5,51.7z"/>
		<path class="st167" d="M48.9,111.2c0.7-0.4,1.4-0.3,1.9,0.3c0.5,0.7,0.4,1.4-0.3,1.9c-0.7,0.5-1.4,0.4-1.9-0.3
			C48.2,112.5,48.4,111.8,48.9,111.2z"/>
		<path class="st167" d="M136.1,35.8c0.3,0.7,0.2,1.3-0.4,1.7c-0.7,0.5-1.5,0.3-1.8-0.5c-0.3-0.6-0.2-1.3,0.5-1.7
			C135.1,35.1,135.7,35.3,136.1,35.8z"/>
		<path class="st167" d="M144.1,54.2c0.3,0.7,0.3,1.4-0.4,1.9c-0.6,0.4-1.3,0.3-1.7-0.3c-0.5-0.6-0.4-1.4,0.2-1.9
			C142.9,53.4,143.6,53.7,144.1,54.2z"/>
		<path class="st167" d="M37.3,101.8c0.6-0.3,1.3-0.3,1.7,0.3c0.5,0.7,0.3,1.4-0.4,1.8c-0.6,0.3-1.3,0.2-1.6-0.4
			C36.6,102.9,36.8,102.3,37.3,101.8z"/>
		<path class="st167" d="M51.7,117.6c0.7-0.3,1.4-0.2,1.8,0.5c0.3,0.6,0.2,1.3-0.4,1.7c-0.7,0.4-1.4,0.3-1.8-0.5
			C50.9,118.7,51.1,118.1,51.7,117.6z"/>
		<path class="st167" d="M146.7,62.2c-0.8,0.3-1.5,0.2-1.8-0.5c-0.3-0.6-0.2-1.3,0.5-1.7c0.7-0.4,1.4-0.2,1.8,0.5
			C147.5,61.1,147.3,61.8,146.7,62.2z"/>
		<path class="st167" d="M62.2,123c-0.8,0.3-1.5,0.3-1.9-0.5c-0.4-0.7-0.3-1.5,0.4-1.9c0.7-0.4,1.5-0.3,1.9,0.4
			C63.1,121.8,62.9,122.5,62.2,123z"/>
		<path class="st167" d="M149.6,66.7c0.4,0.6,0.4,1.2-0.1,1.7c-0.5,0.5-1.2,0.5-1.7-0.1c-0.6-0.6-0.5-1.3,0.1-1.8
			C148.5,66.1,149.1,66.2,149.6,66.7z"/>
		<path class="st167" d="M65.1,127.5c0.4,0.7,0.3,1.3-0.3,1.7c-0.7,0.5-1.4,0.3-1.8-0.4c-0.3-0.6-0.1-1.3,0.5-1.6
			C64.1,126.8,64.7,127,65.1,127.5z"/>
		<path class="st167" d="M71.6,124.7c0.4,0.7,0.3,1.4-0.3,1.9c-0.7,0.6-1.5,0.4-2-0.4c-0.4-0.7-0.3-1.4,0.4-1.9
			C70.4,124,71.1,124.2,71.6,124.7z"/>
		<path class="st167" d="M144.8,75.4c0.7-0.3,1.5-0.2,1.9,0.5c0.4,0.7,0.3,1.4-0.4,1.9c-0.7,0.4-1.4,0.3-1.9-0.4
			C144,76.7,144.2,76,144.8,75.4z"/>
		<path class="st167" d="M74.5,131c0.3,0.6,0.3,1.2-0.3,1.7c-0.6,0.5-1.2,0.4-1.7-0.2c-0.5-0.6-0.4-1.4,0.3-1.8
			C73.4,130.3,74,130.4,74.5,131z"/>
		<path class="st167" d="M80.3,128.1c0.4,0.7,0.3,1.4-0.3,1.9c-0.7,0.5-1.4,0.4-1.9-0.3c-0.5-0.6-0.4-1.4,0.3-1.9
			C79.1,127.4,79.7,127.6,80.3,128.1z"/>
		<path class="st167" d="M149.2,83.8c-0.6,0.3-1.3,0.2-1.7-0.4c-0.5-0.7-0.3-1.4,0.4-1.8c0.6-0.3,1.3-0.1,1.6,0.5
			C150,82.8,149.8,83.3,149.2,83.8z"/>
		<path class="st167" d="M145.5,92.9c-0.8,0.2-1.5,0.2-1.8-0.6c-0.3-0.6-0.1-1.3,0.5-1.7c0.7-0.3,1.5-0.2,1.8,0.6
			C146.2,91.8,146,92.4,145.5,92.9z"/>
		<path class="st167" d="M89.4,131.3c0.4,0.6,0.3,1.3-0.2,1.8c-0.6,0.6-1.4,0.4-1.9-0.2c-0.5-0.6-0.3-1.3,0.2-1.7
			C88.1,130.5,88.8,130.7,89.4,131.3z"/>
		<path class="st167" d="M50.7,29.5c0.3,0.7,0.2,1.3-0.4,1.7c-0.7,0.4-1.4,0.3-1.8-0.5c-0.3-0.6-0.1-1.3,0.5-1.6
			C49.7,28.8,50.2,28.9,50.7,29.5z"/>
		<path class="st167" d="M94,128.3c0.8-0.3,1.5-0.3,1.9,0.5c0.4,0.7,0.3,1.5-0.4,1.9c-0.7,0.4-1.5,0.3-1.9-0.4
			C93.1,129.5,93.4,128.8,94,128.3z"/>
		<path class="st167" d="M55,26.1c0.6-0.4,1.3-0.3,1.7,0.2c0.5,0.6,0.4,1.4-0.2,1.9c-0.6,0.5-1.3,0.3-1.7-0.2
			C54.2,27.4,54.4,26.7,55,26.1z"/>
		<path class="st167" d="M63.2,23.7c0.4,0.8,0.4,1.5-0.3,2c-0.6,0.5-1.3,0.3-1.7-0.2c-0.6-0.6-0.5-1.4,0.1-1.9
			C61.8,23,62.6,23.2,63.2,23.7z"/>
		<path class="st167" d="M69,22.6c-0.7,0.3-1.4,0.3-1.9-0.4c-0.4-0.6-0.3-1.3,0.2-1.7c0.6-0.5,1.4-0.4,1.9,0.2
			C69.8,21.3,69.5,22,69,22.6z"/>
		<path class="st167" d="M39.5,40.9c0.6-0.3,1.3-0.2,1.7,0.4c0.5,0.7,0.3,1.4-0.4,1.8c-0.6,0.3-1.3,0.1-1.6-0.5
			C38.7,41.9,38.9,41.3,39.5,40.9z"/>
		<path class="st167" d="M141,99.8c0.7-0.3,1.4-0.2,1.8,0.5c0.3,0.6,0.2,1.3-0.4,1.7c-0.7,0.4-1.4,0.3-1.8-0.5
			C140.2,100.9,140.4,100.2,141,99.8z"/>
		<path class="st167" d="M75.7,18.1c0.3,0.8,0.3,1.6-0.5,1.9c-0.6,0.3-1.3,0.2-1.7-0.4c-0.4-0.7-0.3-1.5,0.5-1.9
			C74.6,17.4,75.2,17.7,75.7,18.1z"/>
		<path class="st167" d="M47.4,38.1c0.3,0.7,0.3,1.4-0.4,1.9c-0.6,0.4-1.3,0.3-1.7-0.3c-0.5-0.6-0.4-1.4,0.2-1.9
			C46.1,37.3,46.8,37.5,47.4,38.1z"/>
		<path class="st167" d="M126.7,116.3c-0.9,0.4-1.6,0.3-2-0.3c-0.5-0.8-0.3-1.6,0.5-2c0.7-0.4,1.4-0.2,1.9,0.5
			C127.4,115.2,127.1,115.8,126.7,116.3z"/>
		<path class="st167" d="M132.9,112.1c0.3,0.8,0.2,1.5-0.5,1.9c-0.7,0.4-1.5,0.2-1.8-0.5c-0.3-0.6-0.2-1.3,0.4-1.7
			C131.7,111.3,132.4,111.5,132.9,112.1z"/>
		<path class="st167" d="M109.2,129.2c0.6-0.3,1.3-0.2,1.7,0.4c0.5,0.7,0.3,1.4-0.4,1.8c-0.6,0.3-1.3,0.1-1.6-0.5
			C108.4,130.2,108.6,129.6,109.2,129.2z"/>
		<path class="st167" d="M116.7,128.2c-0.6,0.4-1.2,0.3-1.7-0.2c-0.5-0.5-0.4-1.2,0.1-1.7c0.6-0.6,1.4-0.5,1.9,0.2
			C117.4,127,117.2,127.7,116.7,128.2z"/>
		<path class="st167" d="M150.2,51.8c0.3,0.5,0.3,1-0.2,1.4c-0.5,0.4-1,0.3-1.4-0.2c-0.4-0.5-0.3-1,0.2-1.4
			C149.3,51.2,149.8,51.3,150.2,51.8z"/>
		<path class="st167" d="M64.7,14.5c0.6-0.3,1.1-0.2,1.4,0.4c0.3,0.6,0.2,1.1-0.4,1.4c-0.6,0.3-1.1,0.2-1.4-0.4
			C64,15.3,64.2,14.9,64.7,14.5z"/>
		<path class="st167" d="M58.6,18.7c-0.3-0.6-0.2-1.1,0.3-1.4c0.6-0.3,1-0.2,1.4,0.3c0.3,0.6,0.2,1-0.3,1.4
			C59.5,19.4,59,19.2,58.6,18.7z"/>
		<path class="st167" d="M52.7,20.4c0.7-0.4,1.2-0.2,1.5,0.4c0.3,0.6,0.1,1.1-0.5,1.4c-0.5,0.2-0.9,0.1-1.2-0.4
			C52.2,21.1,52.4,20.7,52.7,20.4z"/>
		<path class="st167" d="M87.9,12.6c0.4,0.5,0.4,1.1-0.1,1.5c-0.5,0.4-1,0.5-1.5,0c-0.5-0.6-0.5-1.2,0.1-1.6
			C87,12,87.5,12.1,87.9,12.6z"/>
		<path class="st167" d="M29.9,85.2c-0.6,0.3-1.1,0.2-1.4-0.4c-0.3-0.6-0.2-1.1,0.3-1.4c0.7-0.5,1.2-0.2,1.6,0.4
			C30.7,84.4,30.5,84.9,29.9,85.2z"/>
		<path class="st167" d="M119.4,19.7c0.5-0.4,1.1-0.3,1.5,0.2c0.4,0.5,0.4,1.1-0.1,1.5c-0.6,0.5-1.2,0.5-1.6-0.2
			C118.8,20.6,118.9,20.1,119.4,19.7z"/>
		<path class="st167" d="M144.7,39.4c0.3,0.6,0.2,1.1-0.4,1.4c-0.6,0.3-1.1,0.2-1.4-0.4c-0.3-0.6-0.2-1.1,0.4-1.4
			C143.9,38.7,144.3,38.9,144.7,39.4z"/>
		<path class="st167" d="M101.3,14.7c-0.4-0.5-0.3-1.1,0.2-1.5c0.5-0.4,1.1-0.4,1.5,0.1c0.5,0.6,0.5,1.2-0.2,1.6
			C102.2,15.3,101.7,15.2,101.3,14.7z"/>
		<path class="st167" d="M27.7,62c0.4,0.5,0.4,1-0.2,1.4c-0.5,0.4-1,0.4-1.4-0.1c-0.4-0.5-0.4-1,0.1-1.4
			C26.7,61.4,27.2,61.5,27.7,62z"/>
		<path class="st167" d="M25.8,77.3c0.6-0.3,1.1-0.2,1.4,0.3c0.3,0.6,0.2,1-0.3,1.4c-0.6,0.3-1,0.2-1.4-0.3
			C25.2,78.1,25.3,77.7,25.8,77.3z"/>
		<path class="st167" d="M44.3,114.4c0.3,0.6,0.2,1.1-0.3,1.4c-0.7,0.4-1.2,0.2-1.6-0.4c-0.3-0.6-0.1-1.1,0.5-1.4
			C43.5,113.7,44,113.8,44.3,114.4z"/>
		<path class="st167" d="M66.3,134.9c-0.3-0.6-0.2-1.1,0.3-1.4c0.6-0.3,1-0.2,1.4,0.3c0.3,0.6,0.2,1-0.3,1.4
			C67.1,135.5,66.6,135.4,66.3,134.9z"/>
		<path class="st167" d="M151.1,72.7c0.6-0.3,1.1-0.2,1.4,0.3c0.4,0.7,0.2,1.2-0.4,1.6c-0.6,0.3-1.1,0.1-1.4-0.5
			C150.4,73.5,150.6,73.1,151.1,72.7z"/>
		<path class="st167" d="M34.8,44.2c0.4,0.6,0.4,1.1-0.1,1.5c-0.5,0.4-1,0.4-1.5-0.1c-0.4-0.5-0.4-1,0.1-1.5
			C33.9,43.7,34.4,43.7,34.8,44.2z"/>
		<path class="st167" d="M147.7,45.5c0.3,0.6,0.2,1.1-0.4,1.4c-0.6,0.3-1.1,0.2-1.4-0.4c-0.3-0.6-0.2-1.1,0.4-1.4
			C146.9,44.8,147.3,45,147.7,45.5z"/>
		<path class="st167" d="M42.9,32.3c0.5-0.4,1-0.3,1.4,0.2c0.4,0.5,0.4,1-0.1,1.4c-0.6,0.5-1.2,0.5-1.6-0.2
			C42.3,33.2,42.4,32.7,42.9,32.3z"/>
		<path class="st167" d="M31.4,54.4c-0.7,0.4-1.2,0.4-1.6-0.2c-0.4-0.5-0.3-1,0.2-1.4c0.5-0.4,1-0.3,1.4,0.2
			C31.9,53.6,31.7,54,31.4,54.4z"/>
		<path class="st167" d="M94,9.6c0.4,0.6,0.3,1.1-0.2,1.5c-0.6,0.4-1.1,0.2-1.4-0.3c-0.3-0.5-0.2-0.9,0.2-1.3
			C93.1,9.1,93.6,9.2,94,9.6z"/>
		<path class="st167" d="M56.3,124.3c0.3,0.6,0.2,1.1-0.3,1.5c-0.7,0.4-1.2,0.2-1.6-0.4c-0.3-0.6-0.1-1.1,0.5-1.4
			C55.5,123.6,55.9,123.7,56.3,124.3z"/>
		<path class="st167" d="M110.7,16.3c0.6-0.4,1.1-0.3,1.5,0.2c0.5,0.6,0.3,1.2-0.4,1.6c-0.6,0.3-1.1,0.2-1.4-0.4
			C110.1,17.1,110.2,16.7,110.7,16.3z"/>
		<path class="st167" d="M153.3,58c0.3,0.6,0.1,1.1-0.5,1.4c-0.6,0.3-1.1,0-1.4-0.5c-0.2-0.5-0.1-0.9,0.4-1.2
			C152.5,57.3,152.9,57.5,153.3,58z"/>
		<path class="st167" d="M41.3,108.3c0.3,0.7,0.2,1.2-0.5,1.6c-0.6,0.3-1.1,0.2-1.4-0.4c-0.4-0.7-0.2-1.3,0.5-1.6
			C40.4,107.5,41,107.7,41.3,108.3z"/>
		<path class="st167" d="M72.1,13.7c-0.6,0.3-1.1,0.1-1.4-0.5c-0.3-0.6,0-1.1,0.6-1.4c0.5-0.2,0.9-0.1,1.2,0.4
			C72.8,12.9,72.6,13.3,72.1,13.7z"/>
		<path class="st167" d="M30.5,69.7c-0.7,0.3-1.3,0.2-1.6-0.5c-0.3-0.6-0.1-1.1,0.5-1.4c0.7-0.4,1.3-0.2,1.6,0.5
			C31.2,68.8,31,69.4,30.5,69.7z"/>
		<path class="st167" d="M153.8,79.1c0.6-0.3,1.1-0.1,1.4,0.4c0.3,0.6,0.1,1.1-0.5,1.4c-0.5,0.2-0.9,0.1-1.2-0.4
			C153.1,80,153.2,79.5,153.8,79.1z"/>
		<path class="st167" d="M75.2,136.9c0.6-0.4,1.1-0.3,1.5,0.2c0.4,0.6,0.3,1.1-0.3,1.4c-0.5,0.3-0.9,0.2-1.3-0.2
			C74.7,137.8,74.7,137.3,75.2,136.9z"/>
		<path class="st167" d="M82.7,136c-0.6,0.3-1.1,0.2-1.4-0.4c-0.3-0.6-0.2-1.1,0.3-1.4c0.7-0.5,1.2-0.2,1.6,0.4
			C83.5,135.2,83.3,135.7,82.7,136z"/>
		<path class="st167" d="M133,29.8c0.4,0.6,0.3,1.1-0.2,1.5c-0.6,0.5-1.2,0.4-1.6-0.2c-0.4-0.5-0.3-1.1,0.2-1.5
			C131.9,29.1,132.5,29.2,133,29.8z"/>
		<path class="st167" d="M150.6,88.3c0.6-0.3,1.1-0.3,1.4,0.3c0.4,0.6,0.2,1.1-0.3,1.4c-0.6,0.4-1.1,0.2-1.4-0.3
			C149.9,89.1,150.1,88.6,150.6,88.3z"/>
		<path class="st167" d="M128.8,23.2c0.5-0.3,1-0.3,1.4,0.2c0.4,0.5,0.3,1-0.2,1.4c-0.5,0.4-1,0.3-1.4-0.2
			C128.2,24.1,128.3,23.6,128.8,23.2z"/>
		<path class="st167" d="M46.9,120.9c0.3,0.6,0.1,1.1-0.5,1.4c-0.6,0.3-1.1,0-1.4-0.6c-0.2-0.5-0.1-0.9,0.4-1.2
			C46.1,120.1,46.5,120.3,46.9,120.9z"/>
		<path class="st167" d="M146.9,98.4c-0.3-0.6-0.3-1.1,0.3-1.4c0.6-0.4,1.1-0.2,1.4,0.3c0.4,0.6,0.2,1.1-0.3,1.4
			C147.8,99.1,147.3,98.9,146.9,98.4z"/>
		<path class="st167" d="M129.4,121c0.4,0.7,0.2,1.2-0.5,1.6c-0.6,0.3-1.1,0.1-1.4-0.4c-0.4-0.7-0.2-1.2,0.5-1.6
			C128.5,120.3,129,120.5,129.4,121z"/>
		<path class="st167" d="M91.8,137.9c0.3,0.6,0.2,1.1-0.4,1.4c-0.6,0.3-1.1,0.2-1.4-0.4c-0.3-0.6-0.2-1.1,0.4-1.4
			C91,137.2,91.5,137.4,91.8,137.9z"/>
		<path class="st167" d="M32.6,91.6c-0.8,0.4-1.3,0.2-1.7-0.5c-0.3-0.6-0.1-1.1,0.5-1.4c0.7-0.4,1.3-0.1,1.6,0.5
			C33.3,90.8,33.1,91.3,32.6,91.6z"/>
		<path class="st167" d="M97.8,136.8c-0.6,0.3-1.1,0.2-1.4-0.4c-0.3-0.6-0.2-1.1,0.3-1.4c0.7-0.4,1.2-0.2,1.6,0.4
			C98.6,136,98.4,136.4,97.8,136.8z"/>
		<path class="st167" d="M102.7,131.9c0.5-0.4,1.1-0.4,1.5,0.1c0.5,0.5,0.5,1.2-0.1,1.7c-0.5,0.4-1.1,0.4-1.5-0.1
			C102.1,133.1,102.2,132.5,102.7,131.9z"/>
		<path class="st167" d="M138.8,109.1c0.4,0.6,0.4,1.2,0,1.6c-0.6,0.5-1.2,0.5-1.7-0.1c-0.4-0.5-0.4-1.1,0.1-1.5
			C137.7,108.5,138.3,108.6,138.8,109.1z"/>
		<path class="st167" d="M144.9,106.2c0.4,0.5,0.3,1-0.2,1.4c-0.5,0.4-1,0.3-1.4-0.2c-0.4-0.5-0.3-1,0.2-1.4
			C144,105.6,144.5,105.7,144.9,106.2z"/>
		<path class="st167" d="M123.3,124c0.4,0.7,0.2,1.2-0.4,1.6c-0.6,0.3-1.1,0.2-1.5-0.4c-0.4-0.7-0.2-1.3,0.4-1.6
			C122.4,123.3,122.9,123.4,123.3,124z"/>
		<path class="st167" d="M135.4,117.9c0.4,0.5,0.4,1-0.2,1.5c-0.5,0.4-1,0.4-1.5-0.1c-0.4-0.5-0.4-1,0.1-1.5
			C134.4,117.4,134.9,117.4,135.4,117.9z"/>
		<path class="st167" d="M115.3,9.2c-0.6,0.2-1.1,0.2-1.4-0.3c-0.2-0.4-0.2-1,0.3-1.2c0.4-0.2,0.9-0.2,1.2,0.3
			C115.7,8.5,115.4,8.8,115.3,9.2z"/>
		<path class="st167" d="M17.8,75.1c-0.5,0.1-1,0.1-1.2-0.4c-0.2-0.4-0.1-1,0.4-1.2c0.3-0.1,0.8-0.1,1,0.3
			C18.3,74.3,18.2,74.8,17.8,75.1z"/>
		<path class="st167" d="M107.8,10.2c0.5-0.2,0.9-0.2,1.2,0.3c0.4,0.5,0.2,1.1-0.3,1.4c-0.5,0.3-0.9,0.2-1.2-0.3
			C107.2,11.1,107.3,10.6,107.8,10.2z"/>
		<path class="st167" d="M20.3,64.9c0.5-0.1,1-0.2,1.2,0.3c0.2,0.4,0.2,1-0.3,1.2c-0.4,0.2-1,0.2-1.2-0.3
			C19.8,65.6,19.9,65.2,20.3,64.9z"/>
		<path class="st167" d="M106.1,5.4c-0.5,0.1-1,0.1-1.2-0.4c-0.2-0.4-0.1-1,0.5-1.2c0.4-0.1,0.8-0.1,1,0.3
			C106.7,4.7,106.6,5.1,106.1,5.4z"/>
		<path class="st167" d="M98.9,7c0.6-0.4,1.1-0.3,1.4,0.1c0.4,0.5,0.3,1.1-0.2,1.4c-0.5,0.3-0.9,0.2-1.2-0.3
			C98.5,7.7,98.7,7.3,98.9,7z"/>
		<path class="st167" d="M52.3,133.2c0.2,0.6,0.2,1.1-0.2,1.4c-0.4,0.2-0.8,0.1-1.1-0.2c-0.4-0.4-0.3-0.9,0.1-1.3
			C51.5,132.7,51.9,133.1,52.3,133.2z"/>
		<path class="st167" d="M58.8,130.6c0.3,0.6,0.2,1.1-0.2,1.4c-0.6,0.4-1.1,0.2-1.4-0.3c-0.3-0.5-0.2-0.9,0.3-1.2
			C58,130,58.5,130.3,58.8,130.6z"/>
		<path class="st167" d="M25.3,56.1c0.2,0.5,0.2,0.9-0.2,1.2c-0.5,0.4-1.1,0.3-1.4-0.3c-0.2-0.4-0.1-0.9,0.3-1.2
			C24.5,55.6,24.9,55.7,25.3,56.1z"/>
		<path class="st167" d="M155.5,65.7c-0.5,0.2-0.9,0.2-1.2-0.3c-0.4-0.5-0.3-1.1,0.3-1.4c0.6-0.3,1.1-0.1,1.3,0.4
			C156.1,65,156,65.4,155.5,65.7z"/>
		<path class="st167" d="M148.3,30.4c0.2,0.5,0.2,0.9-0.2,1.2c-0.4,0.3-0.8,0.1-1.1-0.1c-0.4-0.4-0.3-0.9,0.1-1.2
			C147.4,29.9,147.9,30.1,148.3,30.4z"/>
		<path class="st167" d="M18.8,58.8c0.2,0.4,0.2,0.8-0.1,1.1c-0.4,0.4-0.9,0.3-1.2-0.1c-0.3-0.3-0.2-0.8,0.1-1.1
			C18,58.3,18.4,58.4,18.8,58.8z"/>
		<path class="st167" d="M161.8,61.3c0.2,0.6,0.2,1.1-0.3,1.3c-0.4,0.2-1,0.1-1.1-0.4c-0.1-0.3,0.1-0.8,0.3-1
			C161.1,60.8,161.5,61.2,161.8,61.3z"/>
		<path class="st167" d="M149.3,36.2c0.5-0.3,0.9-0.2,1.3,0.2c0.3,0.3,0.2,0.8-0.1,1.1c-0.4,0.4-0.9,0.3-1.3,0
			C148.9,37.1,149,36.6,149.3,36.2z"/>
		<path class="st167" d="M96.1,0.9c0.4-0.3,0.8-0.2,1.1,0c0.4,0.4,0.3,0.9,0,1.2c-0.3,0.3-0.8,0.2-1.1,0C95.6,1.8,95.8,1.3,96.1,0.9
			z"/>
		<path class="st167" d="M28.3,48.3c-0.6,0.3-1.1,0.2-1.4-0.2c-0.3-0.5-0.2-1.1,0.4-1.4c0.4-0.2,0.9-0.1,1.2,0.4
			C28.7,47.6,28.5,48,28.3,48.3z"/>
		<path class="st167" d="M90.8,4.9c-0.5,0.3-0.9,0.2-1.2-0.2c-0.3-0.4-0.2-0.9,0.2-1.2c0.4-0.3,0.9-0.2,1.2,0.2
			C91.3,4.1,91.1,4.5,90.8,4.9z"/>
		<path class="st167" d="M22.3,50.1c0.1,0.5,0.1,1-0.4,1.2c-0.4,0.2-1,0.1-1.2-0.4c-0.1-0.3-0.1-0.8,0.3-1
			C21.5,49.6,21.9,49.7,22.3,50.1z"/>
		<path class="st167" d="M83.5,6.4c0.6-0.2,1.1-0.2,1.3,0.3c0.3,0.6,0.2,1.1-0.4,1.4c-0.5,0.2-1,0-1.2-0.5C83,7.1,83.2,6.7,83.5,6.4
			z"/>
		<path class="st167" d="M78.5,9.2c0.3,0.5,0.3,1-0.2,1.4c-0.4,0.3-0.9,0.2-1.3-0.2c-0.4-0.5-0.3-1,0.2-1.4
			C77.6,8.7,78.1,8.8,78.5,9.2z"/>
		<path class="st167" d="M61.8,136.8c0.2,0.5,0.2,1-0.3,1.3c-0.5,0.2-1,0.2-1.2-0.3c-0.3-0.5-0.2-1,0.3-1.2
			C61,136.3,61.5,136.4,61.8,136.8z"/>
		<path class="st167" d="M157.4,70.2c0.6-0.2,1.1-0.2,1.4,0.2c0.3,0.6,0.2,1.1-0.4,1.4c-0.4,0.2-1,0.1-1.2-0.4
			C157,70.9,157.2,70.5,157.4,70.2z"/>
		<path class="st167" d="M37.7,36.6c-0.6,0.3-1,0.2-1.4-0.4c-0.3-0.5-0.2-0.9,0.3-1.2c0.6-0.4,1.1-0.2,1.4,0.3
			C38.2,35.8,38.1,36.2,37.7,36.6z"/>
		<path class="st167" d="M30.5,38c0.5-0.2,1-0.2,1.3,0.3c0.2,0.5,0.2,1-0.3,1.2c-0.5,0.3-1,0.2-1.2-0.3C30,38.8,30.1,38.3,30.5,38z"
			/>
		<path class="st167" d="M152.4,42.2c0.5-0.2,1-0.2,1.2,0.3c0.2,0.4,0.2,1-0.3,1.2c-0.4,0.2-1,0.2-1.2-0.3
			C151.9,43,152,42.6,152.4,42.2z"/>
		<path class="st167" d="M24.5,40.5c0.5-0.3,0.9-0.2,1.2,0.2c0.3,0.3,0.2,0.8-0.1,1.1c-0.4,0.4-0.9,0.3-1.2,0
			C24,41.4,24.2,40.9,24.5,40.5z"/>
		<path class="st167" d="M82.2,0.4c0.1,0.5,0.1,1-0.5,1.2c-0.4,0.1-0.8,0-1-0.4c-0.2-0.5-0.1-1,0.5-1.1C81.6-0.1,82,0.1,82.2,0.4z"
			/>
		<path class="st167" d="M47.8,23.1c0.3,0.7,0.2,1.2-0.4,1.5c-0.5,0.2-0.9,0.1-1.2-0.4c-0.3-0.6-0.2-1.1,0.4-1.4
			C47.1,22.7,47.5,22.9,47.8,23.1z"/>
		<path class="st167" d="M75.7,2.8C76,3.3,76,3.7,75.6,4.1c-0.3,0.3-0.8,0.2-1.1,0c-0.5-0.3-0.3-0.9,0-1.2
			C74.8,2.4,75.3,2.6,75.7,2.8z"/>
		<path class="st167" d="M19.5,95.2c0.5-0.1,1-0.1,1.1,0.5c0.1,0.4,0,0.8-0.4,1c-0.5,0.2-1,0.1-1.1-0.5C19,95.9,19.1,95.5,19.5,95.2
			z"/>
		<path class="st167" d="M41.5,27.5c-0.6,0.3-1.1,0.2-1.4-0.2c-0.3-0.5-0.2-1.1,0.4-1.4c0.4-0.2,0.9-0.1,1.2,0.4
			C42,26.8,41.7,27.2,41.5,27.5z"/>
		<path class="st167" d="M63.1,143.1c0.4-0.3,0.8-0.2,1.1,0.1c0.4,0.4,0.3,0.9-0.1,1.2c-0.3,0.3-0.8,0.2-1.1-0.1
			C62.7,143.9,62.8,143.4,63.1,143.1z"/>
		<path class="st167" d="M69.6,7.1c-0.6,0.2-1.1,0.2-1.4-0.2c-0.2-0.4-0.1-0.8,0.2-1.1c0.4-0.4,0.9-0.3,1.3,0.1
			C70.1,6.3,69.7,6.7,69.6,7.1z"/>
		<path class="st167" d="M161.4,76.9c0.2,0.5,0.2,1-0.3,1.3c-0.4,0.2-0.8,0.1-1.1-0.2c-0.4-0.4-0.3-0.9,0.1-1.3
			C160.5,76.3,161,76.5,161.4,76.9z"/>
		<path class="st167" d="M33.9,28.8c0.5-0.3,1-0.3,1.3,0.1c0.3,0.3,0.2,0.8,0,1.1c-0.4,0.5-0.9,0.3-1.3,0.1
			C33.4,29.7,33.7,29.2,33.9,28.8z"/>
		<path class="st167" d="M69.3,139.9c0.5-0.2,1-0.2,1.3,0.3c0.2,0.5,0.2,1-0.3,1.2c-0.5,0.3-1,0.2-1.2-0.3
			C68.7,140.7,68.8,140.2,69.3,139.9z"/>
		<path class="st167" d="M63.5,10.1c-0.6,0.3-1,0.3-1.4-0.1c-0.3-0.4-0.2-0.9,0.2-1.2c0.4-0.3,0.9-0.2,1.2,0.2
			C64,9.3,63.6,9.7,63.5,10.1z"/>
		<path class="st167" d="M55.9,11.3c0.6-0.2,1.1-0.2,1.4,0.3c0.2,0.4,0.2,1-0.3,1.2C56.5,13,56,13,55.7,12.5
			C55.4,12,55.7,11.6,55.9,11.3z"/>
		<path class="st167" d="M133,15.6c-0.4,0.2-0.8,0.2-1.1-0.1c-0.4-0.4-0.3-0.9,0.1-1.2c0.3-0.3,0.8-0.2,1.1,0.1
			C133.5,14.7,133.4,15.2,133,15.6z"/>
		<path class="st167" d="M138.9,26.8c0.3,0.6,0.2,1.1-0.2,1.4c-0.6,0.4-1.1,0.2-1.4-0.4c-0.2-0.5-0.1-1,0.4-1.2
			C138.2,26.3,138.6,26.6,138.9,26.8z"/>
		<path class="st167" d="M49.7,14.4c0.5-0.3,1-0.3,1.3,0.1c0.3,0.3,0.2,0.8,0,1.1c-0.4,0.5-0.9,0.3-1.3,0.1
			C49.3,15.3,49.6,14.8,49.7,14.4z"/>
		<path class="st167" d="M127.2,17.4c0.2,0.5,0.2,0.9-0.3,1.3c-0.5,0.3-0.9,0.2-1.3-0.2c-0.4-0.5-0.3-1.1,0.3-1.4
			C126.5,16.8,126.9,17,127.2,17.4z"/>
		<path class="st167" d="M154.9,48.6c0.6-0.2,1.1-0.2,1.4,0.3c0.2,0.4,0.2,1-0.3,1.2c-0.4,0.2-0.9,0.2-1.2-0.3
			C154.5,49.4,154.8,49,154.9,48.6z"/>
		<path class="st167" d="M29.2,100.1c-0.5,0.3-1,0.3-1.4-0.2c-0.3-0.4-0.2-0.9,0.2-1.2c0.5-0.4,1-0.3,1.4,0.2
			C29.7,99.3,29.6,99.7,29.2,100.1z"/>
		<path class="st167" d="M23.8,86.4c0.2,0.5,0.2,1-0.3,1.2c-0.6,0.3-1.1,0.2-1.4-0.4c-0.2-0.4-0.1-1,0.4-1.2
			C23.1,85.8,23.5,85.9,23.8,86.4z"/>
		<path class="st167" d="M23.2,103c-0.6,0.3-1,0.2-1.3-0.2c-0.3-0.4-0.1-0.8,0.1-1.1c0.4-0.4,0.9-0.3,1.2,0.1
			C23.6,102.2,23.3,102.7,23.2,103z"/>
		<path class="st167" d="M157.8,86.9c-0.5,0.2-1,0.2-1.2-0.3c-0.3-0.5-0.2-1.1,0.4-1.4c0.4-0.2,1-0.1,1.2,0.4
			C158.3,86.1,158.2,86.6,157.8,86.9z"/>
		<path class="st167" d="M136.3,20.5c0.1,0.5,0.2,1-0.3,1.2c-0.4,0.2-1,0.2-1.2-0.3c-0.2-0.4-0.2-0.9,0.3-1.2
			C135.5,20,136,20.1,136.3,20.5z"/>
		<path class="st167" d="M40.6,123.7c0.2,0.7,0.2,1.2-0.3,1.4c-0.5,0.2-1,0.1-1.2-0.4c-0.1-0.3-0.1-0.8,0.3-1.1
			C39.9,123.3,40.3,123.6,40.6,123.7z"/>
		<path class="st167" d="M164.1,82.6c0.2,0.4,0.2,0.8-0.1,1.1c-0.4,0.4-0.9,0.3-1.2-0.1c-0.3-0.3-0.2-0.8,0.1-1.1
			C163.2,82.1,163.7,82.3,164.1,82.6z"/>
		<path class="st167" d="M124.1,11.2c0.2,0.6,0.2,1.1-0.2,1.4c-0.4,0.2-0.8,0.1-1.1-0.2c-0.4-0.4-0.3-0.9,0.1-1.3
			C123.3,10.7,123.7,11.1,124.1,11.2z"/>
		<path class="st167" d="M38,117.3c0.3,0.6,0.3,1.1-0.2,1.4c-0.5,0.4-1.1,0.2-1.4-0.3c-0.2-0.4-0.1-0.9,0.4-1.2
			C37.3,116.9,37.7,117.1,38,117.3z"/>
		<path class="st167" d="M78.4,143c0.5-0.2,1-0.2,1.2,0.3c0.2,0.4,0.2,1-0.3,1.2c-0.4,0.2-1,0.2-1.2-0.3
			C77.9,143.8,78,143.4,78.4,143z"/>
		<path class="st167" d="M26.3,108c0.2,0.5,0.2,1-0.3,1.2c-0.4,0.2-1,0.1-1.2-0.4c-0.1-0.3,0-0.8,0.3-1
			C25.4,107.5,25.9,107.6,26.3,108z"/>
		<path class="st167" d="M43.6,130c0.2,0.5,0.2,1-0.3,1.2c-0.3,0.2-0.8,0.1-1-0.3c-0.3-0.5-0.2-0.9,0.3-1.2
			C42.9,129.6,43.3,129.7,43.6,130z"/>
		<path class="st167" d="M86.1,140.7c0.2,0.5,0.2,0.9-0.3,1.3c-0.5,0.3-0.9,0.2-1.3-0.2c-0.4-0.5-0.3-1.1,0.3-1.4
			C85.3,140.1,85.7,140.2,86.1,140.7z"/>
		<path class="st167" d="M118.3,13.7c0.2,0.5,0.2,0.9-0.3,1.2c-0.5,0.4-1.1,0.3-1.4-0.3c-0.3-0.6-0.1-1.1,0.4-1.3
			C117.5,13.1,118,13.2,118.3,13.7z"/>
		<path class="st167" d="M28.9,114.4c0.1,0.5,0.1,1-0.4,1.2c-0.4,0.1-0.8,0.1-1-0.4c-0.2-0.5-0.1-1,0.4-1.2
			C28.2,114,28.6,114.1,28.9,114.4z"/>
		<path class="st167" d="M34.8,112.6c-0.5,0.2-0.9,0.2-1.3-0.2c-0.4-0.6-0.2-1.1,0.3-1.4c0.5-0.2,0.9-0.1,1.2,0.4
			C35.3,111.9,35.2,112.3,34.8,112.6z"/>
		<path class="st167" d="M161,91.7c0.3,0.5,0.2,0.9-0.2,1.2c-0.3,0.3-0.8,0.2-1.1-0.1c-0.4-0.4-0.3-0.9,0-1.2
			C160.1,91.2,160.6,91.4,161,91.7z"/>
		<path class="st167" d="M49.8,127c0.2,0.5,0.2,0.9-0.3,1.3c-0.5,0.3-0.9,0.2-1.3-0.2c-0.4-0.5-0.3-1.1,0.3-1.4
			C49,126.4,49.5,126.5,49.8,127z"/>
		<path class="st167" d="M25.5,92.2c0.5-0.3,1-0.2,1.4,0.3c0.3,0.4,0.2,0.9-0.3,1.2c-0.5,0.4-1,0.3-1.4-0.3
			C24.9,93,25.1,92.6,25.5,92.2z"/>
		<path class="st167" d="M44.6,17c0.3,0.6,0.2,1-0.2,1.3c-0.4,0.3-0.8,0.1-1.1-0.1c-0.4-0.4-0.3-0.9,0.1-1.2
			C43.9,16.6,44.3,16.9,44.6,17z"/>
		<path class="st167" d="M20.8,80.3c0.1,0.5,0.2,1-0.3,1.2c-0.4,0.2-1,0.2-1.2-0.3c-0.2-0.4-0.2-0.9,0.3-1.2
			C20,79.7,20.4,79.9,20.8,80.3z"/>
		<path class="st167" d="M141.9,34.2c-0.6,0.4-1.1,0.4-1.5-0.2c-0.3-0.4-0.2-0.9,0.2-1.3c0.5-0.4,1-0.3,1.4,0.2
			C142.3,33.4,142.2,33.9,141.9,34.2z"/>
		<path class="st167" d="M145.3,24.4c0.1,0.5,0.1,1-0.4,1.2c-0.4,0.1-0.8,0.1-1-0.4c-0.2-0.5-0.1-1,0.4-1.2
			C144.6,23.9,145,24,145.3,24.4z"/>
		<path class="st167" d="M32.2,106.3c-0.5,0.3-1,0.2-1.4-0.3c-0.3-0.5-0.2-0.9,0.3-1.2c0.5-0.4,1-0.2,1.4,0.3
			C32.7,105.5,32.6,105.9,32.2,106.3z"/>
		<path class="st167" d="M149.8,103.5c0.6-0.3,1.1-0.3,1.4,0.1c0.4,0.5,0.3,1.1-0.3,1.4c-0.5,0.3-0.9,0.1-1.2-0.3
			C149.3,104.2,149.5,103.8,149.8,103.5z"/>
		<path class="st167" d="M88.6,147.1c0.2,0.5,0.1,1-0.4,1.2c-0.3,0.1-0.8,0.1-1-0.3c-0.2-0.5-0.1-1,0.4-1.2
			C87.9,146.7,88.3,146.8,88.6,147.1z"/>
		<path class="st167" d="M158,54.7c0.5-0.2,1-0.2,1.2,0.3c0.2,0.5,0.1,1-0.4,1.2c-0.4,0.2-0.8,0.1-1.1-0.3
			C157.5,55.6,157.7,55.1,158,54.7z"/>
		<path class="st167" d="M157.3,100.8c0.1,0.5,0.1,1-0.4,1.2c-0.4,0.2-1,0.1-1.2-0.4c-0.1-0.3-0.1-0.8,0.3-1
			C156.5,100.3,156.9,100.4,157.3,100.8z"/>
		<path class="st167" d="M93.4,143.8c0.5-0.3,0.9-0.2,1.3,0.2c0.3,0.4,0.2,0.9-0.2,1.2c-0.4,0.3-0.9,0.2-1.2-0.2
			C92.9,144.7,93.1,144.2,93.4,143.8z"/>
		<path class="st167" d="M154.6,94.1c0.4,0.5,0.4,1,0,1.4c-0.5,0.4-1,0.4-1.4-0.1c-0.3-0.4-0.2-0.9,0.2-1.3
			C153.8,93.7,154.2,93.9,154.6,94.1z"/>
		<path class="st167" d="M101.1,141.5c0.2,0.5,0.2,1-0.3,1.2c-0.5,0.3-1.1,0.2-1.4-0.4c-0.2-0.4-0.1-1,0.4-1.2
			C100.4,140.9,100.8,141,101.1,141.5z"/>
		<path class="st167" d="M23.2,71c0.6-0.3,1-0.2,1.3,0.2c0.4,0.5,0.2,1.1-0.3,1.4c-0.5,0.3-0.9,0.1-1.2-0.3
			C22.6,71.7,22.9,71.3,23.2,71z"/>
		<path class="st167" d="M107.2,138.4c0.3,0.5,0.2,0.9-0.2,1.3c-0.5,0.4-1.1,0.3-1.4-0.3c-0.3-0.5-0.1-0.9,0.3-1.2
			C106.4,137.9,106.9,138,107.2,138.4z"/>
		<path class="st167" d="M141.7,115.3c0.4,0.7,0.3,1.2-0.3,1.5c-0.5,0.3-0.9,0.2-1.2-0.3c-0.4-0.5-0.2-1,0.3-1.4
			C140.9,114.8,141.4,115.1,141.7,115.3z"/>
		<path class="st167" d="M113.3,137.1c-0.5,0.2-0.9,0.2-1.2-0.3c-0.4-0.5-0.3-1.1,0.3-1.4c0.6-0.3,1.1-0.1,1.3,0.4
			C113.9,136.4,113.8,136.9,113.3,137.1z"/>
		<path class="st167" d="M147.7,113.7c-0.6,0.2-1.1,0.2-1.4-0.3c-0.2-0.5-0.2-1,0.3-1.2c0.5-0.3,0.9-0.2,1.2,0.3
			C148.1,113,147.8,113.4,147.7,113.7z"/>
		<path class="st167" d="M118.4,132.5c0.6-0.3,1.1-0.2,1.4,0.2c0.4,0.6,0.2,1.1-0.3,1.4c-0.5,0.3-0.9,0.2-1.2-0.3
			C117.8,133.3,118,132.8,118.4,132.5z"/>
		<path class="st167" d="M154.1,109.8c0.3,0.4,0.2,0.8,0,1.1c-0.4,0.4-0.9,0.3-1.2,0c-0.3-0.3-0.2-0.8,0-1.1
			C153.2,109.4,153.7,109.5,154.1,109.8z"/>
		<path class="st167" d="M124.5,129.5c0.5-0.3,1-0.3,1.4,0.3c0.3,0.4,0.2,0.9-0.2,1.2c-0.5,0.4-1,0.3-1.4-0.2
			C124,130.4,124.1,129.9,124.5,129.5z"/>
		<path class="st167" d="M131,126.9c0.5-0.2,1-0.2,1.2,0.3c0.3,0.6,0.2,1.1-0.4,1.4c-0.4,0.2-1,0.1-1.2-0.4
			C130.4,127.6,130.5,127.2,131,126.9z"/>
		<path class="st167" d="M137,123.9c0.5-0.3,0.9-0.2,1.3,0.2c0.3,0.4,0.2,0.9-0.2,1.3c-0.4,0.4-0.9,0.2-1.3-0.2
			C136.5,124.8,136.6,124.4,137,123.9z"/>
		<path class="st167" d="M109.8,144.9c0.1,0.5,0.1,1-0.4,1.2c-0.4,0.1-0.8,0.1-1-0.4c-0.2-0.5-0.1-1,0.4-1.2
			C109.1,144.4,109.5,144.5,109.8,144.9z"/>
		<path class="st167" d="M144.2,121.8c0.2,0.5,0.2,0.9-0.2,1.2c-0.4,0.3-0.8,0.1-1.1-0.1c-0.4-0.4-0.3-0.9,0.1-1.2
			C143.4,121.3,143.8,121.5,144.2,121.8z"/>
		<path class="st167" d="M115.9,143.4c-0.5,0.1-1,0.1-1.2-0.4c-0.1-0.4-0.1-0.8,0.4-1c0.5-0.2,1-0.1,1.2,0.4
			C116.3,142.8,116.2,143.2,115.9,143.4z"/>
		<path class="st167" d="M122.2,139.1c0.3,0.4,0.2,0.9-0.1,1.2c-0.3,0.3-0.8,0.2-1.1,0c-0.5-0.3-0.3-0.9,0-1.2
			C121.3,138.7,121.8,138.9,122.2,139.1z"/>
		<path class="st167" d="M128.3,136.1c0.3,0.5,0.3,0.9,0,1.2c-0.4,0.4-0.9,0.3-1.2,0c-0.3-0.3-0.2-0.8,0-1.1
			C127.4,135.7,127.9,135.9,128.3,136.1z"/>
		<path class="st167" d="M87.4,83.7c-1,0-1.9-0.3-2.6-1.1c-0.7-0.5-1.1-1.2-1.3-2c0.6-2-1.2-2.9-2-4.2c-0.4-0.7-1.1-1.3-0.7-2.2
			c-0.1-1.2,0.4-2.2,1.4-2.8c0.7-0.2,1.3-0.4,2-0.7c1.2-1,1.9-0.4,2.5,0.5c0-0.8,0.2-1.7,1-2.4c0.7-0.6,1.6-1.1,2.6-1.3
			c1.3-0.1,2.6,0.4,3.8-0.6c0.8-0.5,1.6-1.1,2.3-1.6c1.7-0.5,2.6,0.5,3.6,1.6c0.2,1.1,0.5,2.2-0.3,3.1c-0.7,0.5-1.4,1-2.1,1.5
			c-0.1,0.1-0.2,0.2-0.3,0.3c-0.8,0.6-2.3-0.5-2.6,1c-0.2,1.2,1.6,1,1.9,2c0.7,0.6-0.1,2,1.1,2.4c-0.6,0.9-0.4,2.2-1.4,2.8
			c-0.5,0.7-1.3,1.1-2.2,1.3c-1.1,0.3-2,0-2.7-0.8c-0.1,1.2-0.7,2.1-1.9,2.5C88.8,83.6,88.2,84.2,87.4,83.7z"/>
		<path class="st167" d="M90.7,67.9c-1.1,0.2-1.9,0.8-2.8,1.4c-0.5-0.6-1.4-0.6-1.6-1.5c-0.5-0.7-0.9-1.5-1.4-2.2
			c-0.4-2.4,1-3.5,3.1-3.9c0.5,0.3,1.2,0.1,1.6,0.7c0.5,0.7,1,1.4,1.5,2.1C92.5,65.8,91.4,66.8,90.7,67.9z"/>
		<path class="st167" d="M86.3,67.8c0.2,0.8,1.9,0.1,1.6,1.5c-0.9,0.5-0.7,1.5-1.1,2.2c-0.9-0.4-1.6-1.1-2.6-0.7
			c-0.3-1.3,1.5-2.3,0.4-3.9C85.4,67.3,85.9,67.5,86.3,67.8z"/>
		<path class="st167" d="M96.5,75c-1-0.2-1.7-1.1-2.9-0.9c0.2-0.5,0.5-0.9,0.5-1.2c0.1-1.6,0.8-1.7,2.1-1.1c0.4,0.2,0.9-0.1,1.3-0.1
			C97.4,72.8,96.3,73.7,96.5,75z"/>
		<path class="st167" d="M90.7,67.9c-0.2-1.2,1.2-2.2,0.5-3.5c1.4-0.2,2.4,1.7,4.1,0.5c-0.3,1.1-1.3,1.2-1.3,2
			C93.7,69.7,91.8,67.4,90.7,67.9z"/>
		<path class="st167" d="M81.8,76.6c0.7,0.9,1.7,1.1,2.7,1.2c-0.2,0.9-0.8,1.6-0.7,2.5c-0.1,0.4-0.3,0.6-0.8,0.4
			c-0.6-0.6-1.4-0.6-2.2-0.7c-1.4,0,0.1-0.8-0.2-1.1c0.8-0.6,0.7-1.4,0.8-2.2C81.4,76.4,81.5,76.3,81.8,76.6z"/>
		<path class="st167" d="M83.1,80.7c0.3-0.1,0.5-0.3,0.8-0.4c0.1,0.9,0.4,1.7,0.9,2.3c-0.1,0.1-0.2,0.1-0.3,0.2
			C84,82.1,83.6,81.4,83.1,80.7z"/>
		<path class="st167" d="M89.4,83.1c1-0.6,1.3-1.7,1.7-2.9c0.9,0.4,1.7,1.1,2.7,1c0.6,0.3,0.3,0.6,0,1c-0.7,0.8-0.7,1.7-0.6,2.7
			c-0.7,0.2-0.8-0.7-1.4-0.7c-0.6-0.8-1.5-0.7-2.3-0.8c-0.2,0-0.3,0-0.3-0.1C89.3,83.2,89.3,83.1,89.4,83.1z"/>
		<path class="st167" d="M93.8,82.1c0-0.3,0-0.6,0-1c0.9,0,1.6-0.7,2.4-1c0.1,0.2,0.3,0.4,0.4,0.7C95.5,80.9,94.7,81.6,93.8,82.1z"
			/>
		<path class="st167" d="M89.4,83.1c0.1,0.1,0.2,0.2,0.2,0.3c-0.7,0.5-1.4,0.9-2.1,1.4c0-0.3,0-0.7,0-1C88,83.5,88.7,83.3,89.4,83.1
			z"/>
		<path class="st167" d="M81.8,76.6l-0.2,0.1l-0.2,0.1c-0.5-0.7-0.9-1.4-1.4-2.1c0.3-0.2,0.5-0.3,0.8-0.5
			C80.9,75.1,81.4,75.8,81.8,76.6z"/>
		<path class="st167" d="M86.9,76.5c1-0.6,0.2-2.6,2.6-1.7c2.4,1,0.1,2,0.9,3.3C89.1,77.1,88.1,76.8,86.9,76.5z"/>
	</g>
	<path class="st168" d="M167.5,84.7c-4.8-2.8-10.2-5.2-9.6-11.7c0.6-6.7,6.1-9.2,11.7-11.2c-0.6-0.3-1.1-0.5-1.6-0.7
		c-8.2-3-11.7-9.5-9.6-18c1-3.9,2.9-7.4,5.2-11.3c-2.9,1.1-5.1,2.1-7.4,2.9c-3.6,1.2-7.3,1.8-10.9,0.3c-4.9-2.1-6.1-6.1-5.5-11.5
		c-3.6,2.9-7.2,4.5-11.4,2.9c-4.2-1.7-5.6-5.4-6.5-9.7c-2,3.6-4.4,6.2-7.5,8.2c-6,3.8-10.7,2.1-12.6-3.2c-0.4-1.1-0.3-2.3-1.1-3.2
		c-3.6,9.3-9.1,11.1-13.3,10.7c-6.1-0.6-9.8-4.9-11.8-14c-2.2,5.4-4.6,10.6-10.7,11.6c-6.4,1-9.6-3.8-12.7-8.5
		c-0.3,2.2-0.4,4-0.7,5.9c-1.3,7.6-6.9,12.2-13.5,11.2c-2.8-0.5-5.2-2.1-7.9-2.9c0.8,1.4,1.7,2.7,2.5,4.1
		c6.1,10.3,1.9,21.4-9.5,25.4c-3.5,1.2-7.1,1.3-11.5,0.6c4.6,3.7,5.9,7.8,4.5,12.6c-1.4,4.6-5,7-10,8.8c5.5,1.3,9.6,3.3,11.3,8.1
		c1.8,4.9-0.4,9-3.8,12.8c0.5-0.5,3.9,0.3,4.6,0.4c1.4,0.3,2.7,0.6,4,1.2c2.2,0.9,4.1,2.4,5.4,4.5c3.4,5.5,0.9,12.4-0.5,18.1
		c-0.3,1.2-0.5,2.4-1,3.5c2.8-1.4,5.4-3.1,8.2-4.4c5.4-2.5,11.3-1.6,17.1,1.8c4,2.3,6.4,5.9,7.2,10.8c3.5-5.9,6.8-11.7,14.7-10.4
		c7.1,1.3,9.9,7.1,12.3,13.7c0.6-3.4,1.2-6.1,2.3-8.7c4.4-10,15.7-13.5,22.3-4.4c0.8-3.5,1.4-6.8,3.4-9.8c2.1-3.1,4.9-5.3,8.6-5.7
		c7-0.7,10.5,3.7,12.6,9.9c4.7-14.5,14.5-19.2,29-16.2c-5-4.7-10.3-8.8-8.4-16C156.9,87.2,162.2,85.9,167.5,84.7z"/>
	<path class="st169" d="M171.1,84.9c-2.5-1.4-5.1-2.6-7.2-4.6c-1-1-1.9-2.2-2.4-3.6c-0.5-1.4-0.6-2.9-0.4-4.3
		c0.2-1.4,0.6-2.9,1.3-4.1c0.7-1.3,1.8-2.4,2.9-3.3c2.3-1.8,5.1-2.9,7.7-3.9l0,0.8c-0.7-0.3-1.4-0.6-2.2-0.9c-0.8-0.3-1.5-0.6-2.2-1
		c-1.4-0.8-2.8-1.7-3.9-2.8c-2.4-2.3-3.8-5.5-4.1-8.7c-0.3-3.3,0.4-6.5,1.5-9.5c1.1-3,2.7-5.8,4.3-8.5l1,1.2c-2.6,1-5.1,2.2-7.8,3.1
		c-2.7,0.9-5.7,1.5-8.7,1.1c-1.5-0.2-2.9-0.8-4.3-1.5c-1.3-0.8-2.5-1.8-3.4-3.2c-0.9-1.3-1.3-2.9-1.5-4.4c-0.2-1.5-0.1-3,0-4.4
		l1.7,0.9c-1.7,1.4-3.5,2.7-5.7,3.4c-2.2,0.8-4.8,0.7-6.9-0.2c-2.2-0.8-4.2-2.4-5.3-4.5c-1.2-2-1.8-4.2-2.2-6.3l2.2,0.3
		c-1.3,2.3-2.9,4.6-4.9,6.4c-2,1.8-4.3,3.4-7,4.3c-1.4,0.4-2.9,0.6-4.4,0.4c-1.5-0.2-3-1-4.1-2c-1.1-1-1.9-2.3-2.4-3.7
		c-0.1-0.3-0.3-0.7-0.4-1.1l-0.2-1c-0.1-0.6-0.3-0.9-0.5-1.1l2.3-0.4c-1.2,3.1-2.9,6.3-5.6,8.7c-1.3,1.2-2.9,2.2-4.7,2.7
		c-1.8,0.5-3.7,0.7-5.5,0.4c-1.8-0.3-3.6-0.9-5.1-1.9c-1.6-1-2.8-2.4-3.8-3.9c-2-3-3-6.3-3.7-9.6l3,0.2c-1.1,2.6-2.2,5.4-4,7.8
		c-0.9,1.2-2.1,2.4-3.5,3.3c-1.4,0.9-2.9,1.5-4.5,1.7c-1.6,0.3-3.3,0.3-4.9-0.1c-1.6-0.4-3.1-1.3-4.3-2.3c-2.4-2.1-4-4.6-5.6-6.9
		l3-0.7l-0.5,4.4c-0.1,0.7-0.1,1.4-0.3,2.2c-0.1,0.4-0.2,0.8-0.3,1.2l-0.3,1.1c-1,3-2.8,5.9-5.5,7.8c-1.4,1-2.9,1.7-4.5,2
		c-1.6,0.4-3.3,0.4-4.9,0.1c-3.4-0.6-5.9-2.3-8.4-3l2-2.5l1.6,2.6l0.8,1.3c0.3,0.4,0.5,1,0.8,1.4c0.6,0.9,0.9,2,1.3,3
		c0.3,1.1,0.7,2.1,0.8,3.2c0.9,4.4-0.1,9.2-2.6,13c-1.3,1.9-2.8,3.5-4.6,4.9c-1.8,1.3-3.8,2.3-5.8,3.1c-2.1,0.8-4.3,1.2-6.5,1.3
		c-2.2,0.1-4.4-0.1-6.4-0.4l1.4-3.2c2,1.6,3.9,3.6,5,6.3c0.5,1.3,0.8,2.7,0.8,4.2c0,1.4-0.2,2.8-0.6,4.1c-0.4,1.3-0.9,2.6-1.7,3.8
		c-0.8,1.2-1.8,2.2-2.8,3c-2.1,1.7-4.5,2.7-6.9,3.6l-0.2-3.4c2.4,0.6,5,1.4,7.3,2.8c1.2,0.7,2.3,1.6,3.2,2.7
		c0.9,1.1,1.6,2.4,2.1,3.7c0.5,1.3,0.8,2.7,0.8,4.2c0,1.4-0.2,2.9-0.7,4.2c-1,2.7-2.6,4.8-4.3,6.7l-2.5-2.3c0.2-0.2,0.5-0.4,0.7-0.5
		c0.1-0.1,0.3-0.1,0.4-0.1c0.3-0.1,0.4-0.1,0.6-0.1c0.3,0,0.6,0,0.8,0c0.5,0,0.9,0.1,1.4,0.2c0.8,0.1,1.7,0.3,2.4,0.5
		c1.7,0.3,3.4,0.8,5.1,1.7c1.6,0.8,3.1,1.9,4.4,3.3c1.2,1.4,2.1,3.2,2.6,4.9c1,3.6,0.4,7.2-0.3,10.5c-0.4,1.6-0.8,3.2-1.2,4.8
		c-0.2,0.8-0.4,1.5-0.6,2.3c-0.2,0.8-0.4,1.7-0.8,2.6l-2.3-2.1c3-1.4,5.8-3.4,9.3-4.9c3.6-1.4,7.6-1.5,11.2-0.5
		c1.8,0.5,3.5,1.2,5.2,2c1.6,0.8,3.3,1.8,4.7,3.1c1.4,1.3,2.6,2.9,3.5,4.6c0.9,1.7,1.4,3.6,1.7,5.4l-2.9-0.5
		c1.7-2.8,3.4-5.9,6.1-8.4c1.4-1.2,3.1-2.2,4.9-2.7c1.9-0.5,3.8-0.4,5.6-0.1c1.8,0.3,3.6,1,5.1,2c1.6,1,2.9,2.3,4,3.8
		c2.1,2.9,3.4,6.1,4.5,9.3L86,145c0.6-3.1,1.2-6.4,2.6-9.4c1.4-3,3.6-5.8,6.4-7.8c1.4-0.9,3-1.7,4.7-2.1c1.7-0.4,3.5-0.5,5.2-0.2
		c3.5,0.6,6.4,2.9,8.4,5.6l-2,0.4c0.7-3.2,1.4-6.6,3.3-9.6c0.9-1.5,2-2.8,3.4-4c1.3-1.2,3-2,4.7-2.5c0.9-0.2,1.8-0.4,2.6-0.4
		c0.4,0,0.9,0,1.3,0c0.4,0,0.9,0.1,1.3,0.1c1.8,0.3,3.5,0.9,4.9,2.1c1.4,1.1,2.5,2.5,3.4,4c0.8,1.5,1.5,3.1,2,4.7l-1.6,0
		c1.1-3.1,2.4-6,4.3-8.7c1.9-2.7,4.3-5,7.2-6.5c2.9-1.5,6.2-2.2,9.4-2.4c3.2-0.1,6.5,0.2,9.6,0.9l-0.4,0.7c-2.1-2.1-4.4-4-6.3-6.4
		c-0.9-1.2-1.7-2.5-2.2-4c-0.5-1.5-0.6-3-0.4-4.5c0.2-1.5,0.6-3,1.4-4.3c0.8-1.3,1.9-2.4,3.2-3.2C165.2,86.1,168.2,85.5,171.1,84.9z
		 M171.1,84.9c-2.9,0.7-5.8,1.4-8.3,3c-1.2,0.8-2.3,1.9-3,3.2c-0.7,1.3-1.1,2.7-1.3,4.2c-0.2,1.4,0,2.9,0.5,4.3
		c0.5,1.4,1.3,2.6,2.2,3.7c1.8,2.3,4.1,4.2,6.3,6.2l1.1,1l-1.5-0.3c-3.1-0.6-6.2-0.9-9.4-0.7c-3.1,0.2-6.2,1-8.9,2.4
		c-2.7,1.5-4.9,3.7-6.6,6.3c-1.7,2.6-3,5.4-3.9,8.4l-0.8,2.4l-0.8-2.4c-1-3-2.5-6-4.9-7.8c-2.3-1.9-5.7-2.1-8.6-1.4
		c-2.9,0.8-5.2,3.1-6.8,5.7c-1.6,2.6-2.2,5.8-2.9,9l-0.5,2.4l-1.5-1.9c-1.8-2.4-4.2-4.2-7-4.6c-1.4-0.3-2.8-0.1-4.2,0.2
		c-1.4,0.4-2.7,1-3.9,1.8c-2.4,1.7-4.2,4.1-5.5,6.8c-1.2,2.7-1.8,5.8-2.3,8.9l-0.8,4.8l-1.7-4.6c-1.2-3.1-2.4-6.1-4.2-8.5
		c-0.9-1.2-2-2.3-3.2-3c-1.2-0.8-2.6-1.3-4.1-1.5c-1.5-0.2-2.9-0.2-4.3,0.1c-1.3,0.4-2.6,1.1-3.7,2.1c-2.2,2-3.8,4.9-5.4,7.7
		l-2.2,3.8l-0.7-4.3c-0.5-3.2-1.9-6.1-4.2-8.1c-1.1-1-2.5-1.8-4-2.6c-1.5-0.7-3-1.3-4.5-1.7c-3.1-0.8-6.3-0.7-9.2,0.4
		c-2.9,1.2-5.8,3.2-9.1,4.8l-3.8,1.9l1.5-4c0.2-0.6,0.4-1.3,0.6-2.1c0.2-0.8,0.4-1.6,0.6-2.4c0.4-1.6,0.8-3.1,1.2-4.7
		c0.7-3,1.1-6.1,0.3-8.8c-0.4-1.3-1-2.6-1.9-3.6c-0.9-1-2.1-1.9-3.3-2.5c-1.3-0.6-2.7-1.1-4.2-1.3c-0.9-0.2-1.6-0.3-2.3-0.4
		c-0.4-0.1-0.7-0.1-1.1-0.1c-0.2,0-0.3,0-0.4,0c0,0-0.1,0,0,0c0,0,0.1,0,0.1,0c0.2-0.1,0.4-0.2,0.5-0.3l-2.5-2.3
		c1.6-1.7,2.9-3.5,3.6-5.5c0.7-2,0.6-4-0.1-6c-0.7-2-2.1-3.5-3.9-4.6c-1.8-1.1-4-1.8-6.3-2.3L0,84.3l5.5-2c2.1-0.8,4.2-1.7,5.8-3.1
		c1.6-1.3,2.8-3,3.3-5c0.6-2,0.6-4.1-0.2-5.9c-0.7-1.8-2.2-3.4-3.9-4.8l-5.3-4.3l6.7,1.1c3.9,0.6,7.7,0.7,11.2-0.6
		c1.8-0.6,3.4-1.5,4.9-2.6c1.5-1.1,2.8-2.4,3.8-3.9c1-1.5,1.7-3.2,2-5c0.1-0.4,0.2-0.9,0.2-1.3l0.1-1.4c-0.1-0.9-0.1-1.8-0.2-2.7
		c-0.1-0.9-0.4-1.8-0.7-2.7c-0.4-0.9-0.6-1.8-1.1-2.6c-0.2-0.4-0.4-0.8-0.7-1.3l-0.8-1.3l-1.6-2.6l-2.4-4l4.4,1.4
		c3.1,1,5.5,2.6,7.9,3c2.5,0.4,5-0.1,7-1.6c2-1.4,3.5-3.7,4.3-6.1c0.4-1.2,0.6-2.5,0.8-4l0.5-4.2l0.6-4.4l2.4,3.7
		c1.5,2.3,3,4.6,4.9,6.2c0.9,0.8,2,1.4,3.1,1.6c1.1,0.3,2.3,0.3,3.5,0.1c2.4-0.4,4.5-1.7,6-3.8c1.5-2,2.6-4.5,3.7-7.1l1.9-4.6
		l1.1,4.8c0.7,3.1,1.6,6.1,3.3,8.5c0.8,1.2,1.8,2.3,2.9,3.1c1.1,0.8,2.5,1.3,3.9,1.5c2.8,0.5,5.7-0.3,7.8-2.3
		c2.2-1.9,3.7-4.7,4.9-7.5l0.8-2.1l1.5,1.7c0.7,0.8,1,1.7,1.1,2.4l0.2,0.9c0.1,0.3,0.1,0.4,0.2,0.7c0.4,1.1,1,2,1.7,2.7
		c0.7,0.7,1.7,1.2,2.7,1.4c1,0.2,2.1,0.1,3.2-0.3c2.2-0.7,4.3-2,6-3.6c1.8-1.6,3.2-3.6,4.4-5.7l1.6-2.9l0.6,3.2
		c0.4,2,0.9,3.9,1.9,5.6c0.9,1.6,2.3,2.9,4.1,3.5c1.8,0.7,3.6,0.8,5.4,0.2c1.8-0.6,3.5-1.7,5.1-2.9l2.1-1.7l-0.3,2.6
		c-0.3,2.6-0.3,5.4,1,7.5c0.6,1.1,1.5,1.9,2.6,2.6c1.1,0.6,2.3,1.1,3.6,1.3c2.5,0.5,5.2,0,7.8-0.9c2.6-0.8,5.2-1.9,7.8-2.9l2.2-0.8
		l-1.2,2c-1.6,2.7-3.2,5.3-4.4,8.2c-1.1,2.8-1.8,5.9-1.6,8.9c0.2,3,1.4,5.9,3.6,8.1c1.1,1.1,2.3,2,3.7,2.7c0.7,0.4,1.4,0.7,2.1,1
		c0.7,0.3,1.4,0.6,2.2,1l1,0.4l-1,0.3c-2.7,0.9-5.4,2-7.6,3.6c-1.1,0.8-2.1,1.8-2.8,3c-0.7,1.2-1.2,2.5-1.4,3.9
		c-0.2,1.4-0.2,2.8,0.3,4.1c0.4,1.3,1.2,2.5,2.2,3.5C166,82.1,168.6,83.4,171.1,84.9z"/>
	<path class="st170" d="M8.6,72.2c2.5,1.5,5.2,2.8,7.4,4.8c1.1,1,1.9,2.3,2.4,3.7c0.5,1.4,0.5,2.9,0.3,4.4c-0.2,1.5-0.6,2.9-1.4,4.2
		c-0.8,1.3-1.8,2.4-3,3.3c-2.4,1.8-5.2,2.9-7.9,3.9l0-0.2c0.7,0.3,1.5,0.7,2.2,1c0.8,0.3,1.5,0.6,2.2,1c1.4,0.8,2.8,1.7,3.9,2.9
		c2.4,2.3,3.7,5.5,4,8.7c0.2,3.3-0.4,6.5-1.6,9.6c-1.2,3-2.8,5.9-4.5,8.6l-0.2-0.3c2.7-1.1,5.3-2.2,8.1-3.2c2.7-0.9,5.7-1.5,8.6-1
		c1.5,0.2,2.9,0.8,4.1,1.5c1.3,0.7,2.4,1.8,3.2,3c0.8,1.3,1.2,2.7,1.4,4.2c0.2,1.5,0.1,2.9-0.1,4.4l-0.4-0.2
		c1.7-1.4,3.5-2.6,5.6-3.3c2.1-0.7,4.5-0.6,6.5,0.2c2.1,0.8,3.9,2.3,5,4.2c1.1,1.9,1.7,4.1,2.1,6.2l-0.5-0.1
		c1.3-2.3,2.9-4.5,4.8-6.3c2-1.8,4.2-3.3,6.8-4.1c1.3-0.4,2.7-0.6,4-0.3c1.4,0.2,2.6,0.9,3.6,1.8c1,0.9,1.7,2.1,2.2,3.4
		c0.6,1.3,0.4,2.7,1.2,3.6l-0.5,0.1c1.2-3.1,2.9-6.2,5.5-8.5c1.3-1.1,2.8-2.1,4.4-2.5c1.7-0.5,3.4-0.6,5.1-0.3
		c1.7,0.3,3.4,0.8,4.8,1.8c1.4,1,2.6,2.3,3.6,3.7c1.9,2.9,2.9,6.2,3.7,9.4l-0.6-0.1c1.1-2.7,2.2-5.4,4-7.8c0.9-1.2,2-2.3,3.2-3.1
		c1.3-0.8,2.7-1.3,4.2-1.6c1.5-0.3,3-0.3,4.5,0.1c1.5,0.4,2.8,1.1,3.9,2.1c2.3,1.9,3.9,4.4,5.5,6.8l-0.7,0.2l0.6-4.5
		c0.2-1.5,0.4-3,0.9-4.4c0.9-2.9,2.6-5.6,5.2-7.4c2.5-1.8,5.8-2.5,8.8-2c3.1,0.5,5.7,2.2,8.4,3.1l-0.5,0.6l-1.7-2.7
		c-0.6-0.9-1.1-1.8-1.6-2.7c-0.5-0.9-0.9-1.9-1.3-2.9c-0.3-1-0.7-2-0.8-3.1c-0.8-4.2,0.1-8.8,2.5-12.4c1.2-1.8,2.7-3.3,4.4-4.6
		c1.8-1.2,3.7-2.3,5.7-3c2-0.8,4.2-1.1,6.3-1.2c2.1-0.1,4.3,0.1,6.4,0.4l-0.4,0.8c-1.9-1.6-3.7-3.5-4.7-5.9c-1-2.4-1-5.1-0.2-7.6
		c0.7-2.5,2.2-4.7,4.2-6.3c2-1.6,4.3-2.6,6.7-3.5l0,0.8c-2.5-0.6-4.9-1.3-7.2-2.7c-2.2-1.3-4.1-3.4-4.9-5.9c-1-2.4-1-5.2-0.1-7.7
		c0.9-2.5,2.5-4.5,4.2-6.4l0.6,0.6c-0.1,0.1-0.2,0.1-0.3,0.2l-0.2,0.1c-0.1,0-0.3,0-0.4,0c-0.2,0-0.5,0-0.7,0
		c-0.4,0-0.9-0.1-1.3-0.2c-0.8-0.1-1.7-0.3-2.5-0.5c-1.7-0.3-3.3-0.8-4.9-1.6c-1.5-0.8-3-1.8-4.1-3.1c-1.1-1.3-1.9-2.9-2.4-4.6
		c-0.9-3.4-0.4-6.9,0.3-10.1c0.4-1.6,0.8-3.3,1.3-4.9c0.5-1.6,0.7-3.3,1.3-4.9l0.5,0.5c-3.2,1.5-6.1,3.6-9.5,5
		c-3.4,1.4-7.2,1.4-10.7,0.5c-1.8-0.5-3.4-1.1-5.1-1.9c-1.6-0.8-3.2-1.8-4.5-3c-1.4-1.2-2.5-2.7-3.3-4.3c-0.8-1.6-1.3-3.4-1.6-5.2
		l0.6,0.1c-1.7,2.9-3.4,6-6,8.4c-1.3,1.2-2.8,2.1-4.6,2.5c-1.7,0.5-3.5,0.4-5.2,0.1c-1.7-0.3-3.4-0.9-4.9-1.8
		c-1.5-0.9-2.7-2.2-3.8-3.6c-2.1-2.8-3.3-6-4.5-9.2l0.6,0c-0.6,3.2-1.2,6.5-2.6,9.5c-1.4,3-3.5,5.7-6.2,7.6
		c-1.4,0.9-2.9,1.6-4.5,2.1c-1.6,0.3-3.3,0.5-5,0.2c-3.3-0.6-6.2-2.8-8.1-5.4l0.5-0.1c-0.7,3.3-1.4,6.7-3.2,9.7
		c-0.9,1.5-2,2.8-3.3,3.9c-1.3,1.1-2.9,2-4.5,2.4c-0.8,0.2-1.7,0.4-2.6,0.4c-0.4,0-0.9,0-1.3,0c-0.4,0-0.9,0-1.3-0.1
		c-1.7-0.2-3.4-0.9-4.8-2c-1.4-1.1-2.5-2.4-3.3-3.9c-0.9-1.5-1.5-3.1-2-4.7l0.4,0c-1,3.1-2.4,6.2-4.3,8.9c-1.9,2.7-4.3,5-7.2,6.6
		c-2.9,1.6-6.2,2.3-9.5,2.5c-3.3,0.2-6.6-0.2-9.8-0.8l0.1-0.2c2.2,2.1,4.6,4.1,6.5,6.5c0.9,1.2,1.8,2.5,2.2,4c0.5,1.5,0.6,3,0.4,4.6
		c-0.2,1.5-0.6,3-1.4,4.4c-0.8,1.3-1.9,2.5-3.2,3.3C14.6,70.9,11.5,71.6,8.6,72.2z M8.6,72.2c3-0.7,6-1.4,8.6-3
		c1.3-0.8,2.4-1.9,3.1-3.3c0.8-1.3,1.2-2.8,1.4-4.3c0.2-1.5,0-3.1-0.5-4.5c-0.5-1.4-1.3-2.8-2.2-4c-1.9-2.4-4.3-4.4-6.5-6.5
		l-0.2-0.2l0.3,0.1c3.2,0.6,6.5,1,9.7,0.8c3.2-0.2,6.5-0.9,9.4-2.5c2.9-1.6,5.3-3.9,7.1-6.6c1.8-2.7,3.2-5.7,4.2-8.8l0.2-0.6
		l0.2,0.6c1.1,3.2,2.6,6.3,5.2,8.4c2.6,2.1,6.3,2.4,9.5,1.6c1.6-0.4,3.1-1.3,4.3-2.3c1.3-1.1,2.3-2.4,3.2-3.8
		c1.8-2.9,2.4-6.2,3.1-9.5l0.1-0.6l0.3,0.5c1.9,2.6,4.6,4.6,7.8,5.2c1.6,0.3,3.2,0.2,4.7-0.2c1.5-0.4,3-1.1,4.3-2
		c2.6-1.8,4.7-4.5,6-7.4c1.4-2.9,1.9-6.2,2.5-9.4l0.2-1.1l0.4,1c1.2,3.2,2.5,6.4,4.5,9.1c1,1.3,2.2,2.5,3.6,3.4
		c1.4,0.9,3,1.5,4.7,1.7c1.6,0.3,3.3,0.3,4.9-0.1c1.6-0.4,3.1-1.3,4.3-2.4c2.5-2.3,4.2-5.3,5.9-8.2l0.5-0.8l0.1,0.9
		c0.5,3.5,2.1,6.8,4.7,9.1c1.3,1.2,2.8,2.1,4.4,2.9c1.6,0.8,3.2,1.4,4.9,1.9c3.4,0.9,7.1,0.8,10.3-0.5c3.2-1.3,6.2-3.4,9.4-5
		l0.9-0.4l-0.3,0.9c-0.6,1.5-0.8,3.2-1.3,4.8c-0.4,1.6-0.9,3.2-1.2,4.9c-0.7,3.2-1.2,6.6-0.3,9.7c0.4,1.6,1.2,3,2.2,4.2
		c1.1,1.2,2.4,2.2,3.9,2.9c1.5,0.7,3,1.2,4.7,1.5c0.8,0.2,1.6,0.3,2.5,0.5c0.4,0.1,0.8,0.1,1.2,0.1c0.2,0,0.4,0,0.6,0
		c0.1,0,0.2,0,0.2,0c0,0,0.1,0,0.1,0c0,0,0,0,0,0l0.6,0.6c-1.7,1.8-3.2,3.8-4,6.1c-0.8,2.3-0.7,4.8,0.1,7.1c0.8,2.3,2.5,4.2,4.6,5.4
		c2.1,1.3,4.5,2,6.9,2.6l1.4,0.3l-1.4,0.5c-2.3,0.8-4.5,1.9-6.4,3.4c-1.9,1.5-3.3,3.5-3.9,5.8c-0.7,2.3-0.7,4.8,0.2,7
		c0.9,2.2,2.6,4,4.4,5.6l1.3,1.1l-1.7-0.3c-4.1-0.7-8.3-0.8-12.2,0.7c-1.9,0.7-3.8,1.7-5.5,2.9c-1.6,1.2-3.1,2.7-4.2,4.4
		c-1.1,1.7-1.9,3.6-2.3,5.6c-0.1,0.5-0.2,1-0.2,1.5l-0.1,1.5c0.1,1,0.1,2.1,0.3,3.1c0.1,1,0.5,2,0.7,3c0.4,0.9,0.7,1.9,1.2,2.8
		c0.5,0.9,1,1.8,1.6,2.7l1.7,2.7l0.6,0.9l-1-0.3c-2.9-0.9-5.4-2.6-8.3-3.1c-2.9-0.5-5.9,0.2-8.2,1.8c-2.4,1.6-4,4.2-4.9,7
		c-0.5,1.4-0.7,2.8-0.9,4.3l-0.6,4.4l-0.1,1l-0.6-0.8c-1.6-2.4-3.2-4.9-5.3-6.7c-1.1-0.9-2.3-1.6-3.7-2c-1.3-0.4-2.8-0.4-4.2-0.1
		c-1.4,0.2-2.7,0.7-3.9,1.5c-1.2,0.8-2.2,1.8-3.1,2.9c-1.7,2.3-2.8,5-3.9,7.6l-0.4,1l-0.2-1c-0.8-3.2-1.7-6.5-3.6-9.2
		c-0.9-1.4-2-2.6-3.4-3.5c-1.3-0.9-2.9-1.5-4.5-1.7c-1.6-0.3-3.3-0.2-4.8,0.3c-1.6,0.5-3,1.3-4.2,2.4c-2.5,2.2-4.1,5.2-5.3,8.3
		l-0.2,0.5l-0.3-0.4c-0.5-0.6-0.7-1.3-0.9-1.9c-0.1-0.7-0.2-1.3-0.5-1.9c-0.5-1.2-1.1-2.3-2.1-3.2c-0.9-0.9-2.1-1.5-3.3-1.7
		c-1.2-0.2-2.6-0.1-3.8,0.3c-2.5,0.8-4.7,2.2-6.6,4c-1.9,1.8-3.5,3.9-4.7,6.2l-0.4,0.6l-0.1-0.7c-0.4-2.1-1-4.2-2.1-6
		c-1-1.8-2.7-3.3-4.7-4c-2-0.8-4.2-0.9-6.2-0.2c-2,0.6-3.8,1.9-5.5,3.2l-0.5,0.4l0.1-0.6c0.2-1.4,0.2-2.9,0.1-4.3
		c-0.2-1.4-0.5-2.8-1.3-4c-0.7-1.2-1.8-2.2-3-2.9c-1.2-0.7-2.6-1.2-4-1.4c-2.8-0.5-5.7,0.1-8.4,1c-2.7,0.9-5.4,2.1-8.1,3.1l-0.5,0.2
		l0.3-0.5c1.7-2.8,3.3-5.6,4.5-8.6c1.2-3,1.8-6.2,1.6-9.4c-0.3-3.2-1.6-6.3-3.9-8.6c-1.1-1.1-2.5-2.1-3.9-2.8
		c-0.7-0.4-1.4-0.7-2.2-1c-0.7-0.3-1.5-0.7-2.2-1l-0.2-0.1l0.2-0.1c2.8-1,5.5-2.1,7.9-3.8c1.2-0.9,2.2-2,3-3.2
		c0.8-1.3,1.2-2.7,1.4-4.1c0.2-1.4,0.2-3-0.3-4.3c-0.5-1.4-1.3-2.6-2.4-3.7C13.8,75.1,11.1,73.7,8.6,72.2z"/>
</g>
</svg>
