<?xml version="1.0" encoding="utf-8"?>
<!-- Generator: Adobe Illustrator 23.0.1, SVG Export Plug-In . SVG Version: 6.00 Build 0)  -->
<svg version="1.1" id="Layer_1" xmlns="http://www.w3.org/2000/svg" xmlns:xlink="http://www.w3.org/1999/xlink" x="0px" y="0px"
	 viewBox="0 0 180 162.9" style="enable-background:new 0 0 180 162.9;" xml:space="preserve">
<style type="text/css">
	.st0{fill:#E11B4E;}
	.st1{fill:#EAA820;}
	.st2{fill:none;stroke:#000000;stroke-miterlimit:10;}
	.st3{fill:#EAA820;stroke:#000000;stroke-miterlimit:10;}
	.st4{fill:#FFFFFF;}
	.st5{fill:#0B0B0B;}
	.st6{fill:#222223;}
	.st7{fill:#1C1B1C;}
	.st8{fill:#0E0E0E;}
	.st9{fill:#1A1A1B;}
	.st10{fill:#F1F1F2;}
	.st11{fill:#39383A;}
	.st12{fill:#EDEDEE;}
	.st13{fill:#2E2D2F;}
	.st14{fill:#3F3E40;}
	.st15{fill:#E6E7E8;}
	.st16{fill:#EAEAEB;}
	.st17{fill:#EAEBEC;}
	.st18{fill:#E4E5E6;}
	.st19{fill:#E9EAEB;}
	.st20{fill:#282728;}
	.st21{fill:#424143;}
	.st22{fill:#E6E6E7;}
	.st23{fill:#DDDEE0;}
	.st24{fill:#DDDEDF;}
	.st25{fill:#D8D9DB;}
	.st26{fill:#373738;}
	.st27{fill:#DEDFE1;}
	.st28{fill:#383738;}
	.st29{fill:#171718;}
	.st30{fill:#161616;}
	.st31{fill:#1E1D1E;}
	.st32{fill:#1B1B1C;}
	.st33{fill:#1A191A;}
	.st34{fill:#171617;}
	.st35{fill:#181818;}
	.st36{fill:#161617;}
	.st37{fill:#151516;}
	.st38{fill:#1C1C1D;}
	.st39{fill:#151415;}
	.st40{fill:#121213;}
	.st41{fill:#0F0F10;}
	.st42{fill:#101011;}
	.st43{fill:#141415;}
	.st44{fill:#171717;}
	.st45{fill:#101010;}
	.st46{fill:#111112;}
	.st47{fill:#131314;}
	.st48{fill:#1E1E1F;}
	.st49{fill:#212021;}
	.st50{fill:#232324;}
	.st51{fill:#121112;}
	.st52{fill:#141414;}
	.st53{fill:#262526;}
	.st54{fill:#0E0D0E;}
	.st55{fill:#222222;}
	.st56{fill:#0C0C0D;}
	.st57{fill:#181819;}
	.st58{fill:#1B1A1B;}
	.st59{fill:#1D1D1E;}
	.st60{fill:#0F0F0F;}
	.st61{fill:#131313;}
	.st62{fill:#1F1E1F;}
	.st63{fill:#212122;}
	.st64{fill:#272728;}
	.st65{fill:#2C2B2D;}
	.st66{fill:#2A292A;}
	.st67{fill:#F6F6F7;}
	.st68{fill:#F3F4F4;}
	.st69{fill:#F1F2F2;}
	.st70{fill:#F2F2F3;}
	.st71{fill:#302F31;}
	.st72{fill:#191919;}
	.st73{fill:#323233;}
	.st74{fill:#F5F6F6;}
	.st75{fill:#F0F1F1;}
	.st76{fill:#EFF0F1;}
	.st77{fill:#F5F5F6;}
	.st78{fill:#EFEFF0;}
	.st79{fill:#1C1C1C;}
	.st80{fill:#232223;}
	.st81{fill:#212121;}
	.st82{fill:#F0F1F2;}
	.st83{fill:#3B3A3C;}
	.st84{fill:#343435;}
	.st85{fill:#282829;}
	.st86{fill:#3E3E40;}
	.st87{fill:#F4F5F5;}
	.st88{fill:#EEEFF0;}
	.st89{fill:#48484A;}
	.st90{fill:#3E3D3F;}
	.st91{fill:#464547;}
	.st92{fill:#434345;}
	.st93{fill:#202021;}
	.st94{fill:#151515;}
	.st95{fill:#0D0D0D;}
	.st96{fill:#0B0B0C;}
	.st97{fill:#0B0A0B;}
	.st98{fill:#383739;}
	.st99{fill:#323133;}
	.st100{fill:#2D2D2E;}
	.st101{fill:#242324;}
	.st102{fill:#202020;}
	.st103{fill:#39393A;}
	.st104{fill:#434244;}
	.st105{fill:#474748;}
	.st106{fill:#49494B;}
	.st107{fill:#4F4F51;}
	.st108{fill:#333334;}
	.st109{fill:#242425;}
	.st110{fill:#292829;}
	.st111{fill:#2F2E30;}
	.st112{fill:#363537;}
	.st113{fill:#3D3D3E;}
	.st114{fill:#424244;}
	.st115{fill:#111111;}
	.st116{fill:#414142;}
	.st117{fill:#4D4D4F;}
	.st118{fill:#616264;}
	.st119{fill:#57575A;}
	.st120{fill:#76777A;}
	.st121{fill:#6B6D6F;}
	.st122{fill:#131213;}
	.st123{fill:#F0F0F1;}
	.st124{fill:#F3F3F4;}
	.st125{fill:#E8E9EA;}
	.st126{fill:#ECEDED;}
	.st127{fill:#F5F5F5;}
	.st128{fill:#E7E7E8;}
	.st129{fill:#ECEDEE;}
	.st130{fill:#EBEBEC;}
	.st131{fill:#E8E8E9;}
	.st132{fill:#EEEFEF;}
	.st133{fill:#EFF0F0;}
	.st134{fill:#EBECEC;}
	.st135{fill:#727476;}
	.st136{fill:#6C6D70;}
	.st137{fill:#626366;}
	.st138{fill:#A9ABAD;}
	.st139{fill:#999B9E;}
	.st140{fill:#757779;}
	.st141{fill:#8C8E91;}
	.st142{fill:#848689;}
	.st143{fill:#A7A9AB;}
	.st144{fill:none;}
	.st145{fill:#00BEEC;}
	.st146{fill:#EBAF1F;}
	.st147{clip-path:url(#SVGID_2_);}
	.st148{fill:#F05225;}
	.st149{clip-path:url(#SVGID_4_);}
	.st150{fill:#69CCE7;}
	.st151{fill:#EE2F7A;}
	.st152{fill:none;stroke:#000000;stroke-width:0.5;stroke-linecap:round;stroke-miterlimit:10;}
	.st153{clip-path:url(#SVGID_6_);}
	.st154{clip-path:url(#SVGID_8_);}
	.st155{fill:none;stroke:#000000;stroke-width:4;stroke-miterlimit:10;}
	.st156{clip-path:url(#SVGID_10_);}
	.st157{clip-path:url(#SVGID_12_);}
	.st158{fill:#EBA921;}
	.st159{clip-path:url(#SVGID_14_);}
	.st160{clip-path:url(#SVGID_16_);}
	.st161{clip-path:url(#SVGID_18_);}
	.st162{clip-path:url(#SVGID_20_);}
	.st163{fill:#F16EA1;}
	.st164{clip-path:url(#SVGID_22_);}
	.st165{clip-path:url(#SVGID_24_);}
	.st166{fill:#5ABA47;}
	.st167{fill:#F26522;}
	.st168{fill:#3AC0C7;}
	.st169{fill:#EE4297;}
	.st170{fill:#3B50A3;}
	.st171{fill:#00B9B6;}
	.st172{fill:#FFC214;}
	.st173{clip-path:url(#SVGID_26_);}
	.st174{fill:#FDB92D;}
	.st175{clip-path:url(#SVGID_28_);}
	.st176{fill:#ED1E25;}
	.st177{clip-path:url(#SVGID_30_);}
	.st178{fill:#ED2085;}
	.st179{clip-path:url(#SVGID_32_);}
	.st180{clip-path:url(#SVGID_34_);}
	.st181{fill:#D0DD28;}
	.st182{fill:#E1A225;}
	.st183{fill:#B81F69;}
	.st184{fill:#010101;}
	.st185{fill:#EC2227;}
	.st186{fill:#F26249;}
	.st187{fill:#231F20;}
	.st188{fill:#C4D5DD;}
	.st189{fill:#D5E7F0;}
	.st190{fill:#CC2027;}
	.st191{fill:#9A1E21;}
	.st192{fill:#F26724;}
	.st193{fill:#B92025;}
	.st194{fill:#DCDDDE;}
	.st195{fill:#EAEAEA;}
</style>
<g>
	<g>
		<path class="st184" d="M104.6,76.9c-0.7,1.3-1.9,1.9-3.2,2.5c1.1,0.8,2,1.7,2.3,3.1c0.6,1.1,0.6,2.3,0.1,3.4
			c-0.9,1.6-2.2,2.3-4,2.5c-0.8,0.1-1.6,0.1-2.4-0.3c-0.4-0.2-0.8-0.3-1-0.6c-1.1-1.4-2.3-1.7-3.6-0.3c0.9,0.7,1.4,1.8,1.7,3.1
			c0.2,1.1-0.5,1.7-1.3,2.2c-0.5,1.3-1.6,1.9-2.8,2.4c-1.2,0.4-2.4,0.7-3.3-0.5c-0.9-0.8-1.6-1.7-2-2.8c-0.8-1.5-0.5-3,0.7-4.1
			c1.2-1.2,0.9-2.2-0.1-3.3c-1.1,0.9-2.4,1.5-3.9,1.2c-0.6-0.1-1.1-0.4-1.4-0.9c-2-0.8-2.6-2.4-2.4-4.3c0.2-2.3,1.7-3.4,4-3.9
			c-1.8-1.4-3.1-3-2.3-5.3c0.7-2.1,2.4-3,4.5-3.1c2.6-0.4,3.3,1.5,4.2,3.2c-0.1,0.3,0.4,0.1,0.1,0.1c0-1.9,1.6-2,2.9-2.4
			c1.1-0.1,2.2-0.1,3.3,0.5c1.2,0.7,2.1,1.7,2.2,3.2c1-1.5,2.4-2.3,4.3-2.2c0.6,0.1,1.2,0.3,1.5,0.9c1.6,1,2.4,2.4,2.4,4.3
			C105.4,76.1,105.2,76.6,104.6,76.9z"/>
		<path class="st184" d="M93.2,92.5c0-0.9,1.3-1.4,0.9-2.5c0.2-2,1.5-2.4,3.2-2.4c0.7,0.1,1.4,0.4,2.2,0.1c3.2,1.3,4.1,3.7,2.3,6.1
			C98.7,97.5,96.2,97.1,93.2,92.5z"/>
		<path class="st184" d="M80.4,84.4c0.5,0.2,1,0.3,1.5,0.5c3.1,1.3,3.8,3.1,2.3,6.1c-1,1.4-2.3,2.4-4.1,2.3c-2-0.2-3.4-1.3-3.8-3.3
			c-0.4-2,0.5-3.5,2.1-4.6C79.1,85.1,80.1,85.4,80.4,84.4z"/>
		<path class="st184" d="M104.5,83c2.3-2.1,4.9-2.2,6.5-0.1c1.6,2,0.9,4.4-1.8,6.3c-3.9,0.5-4.7,0.1-5.7-2.9
			C104.1,85.3,103.3,83.9,104.5,83z"/>
		<path class="st184" d="M89.8,63.6c2.5-3.5,5.3-3.5,7.7,0c0.6,3.7,0.1,4.7-2.9,5.6c-0.9-0.3-1.9-0.1-2.8-0.2
			C89.3,67.5,88.8,66.3,89.8,63.6z"/>
		<path class="st184" d="M98.3,65.1c1.7-2.3,3.4-3.1,5.3-2.2c1.9,0.8,2.7,2.4,2.3,4.4c-0.3,1.6-1.4,2.6-2.9,3.1
			c-0.6,0.4-1.3,0.1-2,0.2C98.1,69.7,97.3,68.2,98.3,65.1z"/>
		<path class="st184" d="M105.4,75.4c1.2-2.5,3-3.5,5.2-2.8c1.8,0.6,2.9,2.5,2.5,4.5c-0.3,1.7-1.4,2.8-3.2,3
			c-2.3,0.3-3.7-0.8-4.5-2.9C105.1,76.7,105.2,76.1,105.4,75.4z"/>
		<path class="st184" d="M73.3,83.1c-2.2,0-3.9-1.6-3.9-3.9c0-2.2,1.6-3.9,3.9-3.9c2.2,0,3.9,1.6,3.9,3.9
			C77.2,81.5,75.6,83.1,73.3,83.1z"/>
		<path class="st184" d="M89.5,95.6c1.7,1.1,2.3,2.7,1.8,4.7c-0.4,1.4-1.4,2.4-3,2.6c-1.6,0.3-2.9-0.2-3.9-1.5
			c-1.6-2.1-0.7-4.7,2.2-6.2C87.6,94.8,88.6,94.9,89.5,95.6z"/>
		<path class="st184" d="M84.2,67.5c-2.6-1.4-3.6-3.1-2.7-5.2c0.8-1.9,2.3-2.7,4.4-2.4c1.7,0.3,2.6,1.4,3.1,2.9
			C89.8,66.5,87.9,68.3,84.2,67.5z"/>
		<path class="st184" d="M96,97.2c2.2,0,3.8,1.7,3.8,3.9c0,2.2-1.7,3.8-3.9,3.8c-2.1-0.1-3.7-1.7-3.7-3.8
			C92.2,98.8,93.8,97.2,96,97.2z"/>
		<path class="st184" d="M79,70.7c0,2.2-1.6,3.9-3.8,3.9c-2.1,0-3.8-1.5-3.8-3.6c-0.1-2.2,1.5-4,3.7-4C77.3,66.9,79,68.5,79,70.7z"
			/>
		<path class="st184" d="M75.7,87.7c0,2.1-1.5,3.8-3.6,3.9c-2.2,0.1-3.9-1.6-4-3.7c0-2.2,1.7-3.9,3.8-3.9C74,84,75.7,85.6,75.7,87.7
			z"/>
		<path class="st184" d="M107.4,90c2.6,1.4,3.5,3.2,2.7,5.2c-0.8,1.9-2.3,2.7-4.3,2.4c-1.7-0.2-2.5-1.4-3.1-2.8
			C102,90.9,103.9,89,107.4,90z"/>
		<path class="st184" d="M78.8,101.5c-2.1-0.1-3.6-1.8-3.6-3.9c0-2.2,1.8-3.8,4-3.7c2.2,0.1,3.8,1.9,3.6,4.1
			C82.6,100,80.9,101.6,78.8,101.5z"/>
		<path class="st184" d="M110.6,64.2c2,0,3.8,1.7,3.8,3.7c0,2-1.8,3.8-3.8,3.7c-1.9,0-3.6-1.7-3.7-3.6
			C106.9,66.1,108.6,64.2,110.6,64.2z"/>
		<path class="st184" d="M76.5,65.9c-1.9-0.1-3.6-1.9-3.5-3.8c0.1-2,2-3.7,4-3.5c1.9,0.2,3.5,2,3.4,3.9C80.1,64.4,78.3,66,76.5,65.9
			z"/>
		<path class="st184" d="M98.7,56.5c0,1.9-1.6,3.6-3.6,3.7c-1.9,0-3.6-1.6-3.7-3.6c0-1.9,1.6-3.6,3.6-3.7
			C96.9,52.9,98.6,54.6,98.7,56.5z"/>
		<path class="st184" d="M104.9,106c-1.9,0-3.6-1.8-3.6-3.7c0-1.9,1.8-3.6,3.7-3.6c1.9,0,3.6,1.8,3.6,3.7
			C108.6,104.4,106.8,106.1,104.9,106z"/>
		<path class="st184" d="M74,96.2c0,2-1.6,3.6-3.6,3.5c-2,0-3.5-1.7-3.5-3.6c0.1-1.9,1.6-3.4,3.5-3.4C72.4,92.7,74,94.3,74,96.2z"/>
		<path class="st184" d="M119.9,86.7c0,1.9-1.6,3.6-3.6,3.7c-1.9,0-3.6-1.6-3.7-3.6c0-1.9,1.6-3.6,3.6-3.7
			C118.2,83.2,119.9,84.8,119.9,86.7z"/>
		<path class="st184" d="M103.6,61.5c-1.9,0-3.5-1.4-3.6-3.4c-0.1-2,1.5-3.6,3.5-3.7c1.9,0,3.5,1.4,3.6,3.4
			C107.2,59.8,105.6,61.5,103.6,61.5z"/>
		<path class="st184" d="M89.5,107.7c0,2-1.5,3.4-3.5,3.4c-2,0-3.5-1.6-3.4-3.6c0.1-1.9,1.6-3.3,3.6-3.3
			C88.2,104.2,89.6,105.7,89.5,107.7z"/>
		<path class="st184" d="M86.6,58.6c-1.9,0-3.4-1.4-3.5-3.3c-0.1-2,1.4-3.6,3.4-3.7c2,0,3.6,1.5,3.5,3.5
			C90,57.1,88.6,58.6,86.6,58.6z"/>
		<path class="st184" d="M121.3,78.3c0,2-1.6,3.6-3.7,3.5c-1.9-0.1-3.4-1.6-3.4-3.5c0-2,1.6-3.6,3.7-3.5
			C119.8,74.9,121.3,76.4,121.3,78.3z"/>
		<path class="st184" d="M118.4,95.2c0.1,2-1.3,3.5-3.3,3.6c-2.1,0.1-3.6-1.4-3.6-3.5c0-2,1.5-3.4,3.4-3.4
			C116.8,91.8,118.3,93.3,118.4,95.2z"/>
		<path class="st184" d="M64.8,74.4c2,0,3.4,1.4,3.4,3.4c0,2.1-1.5,3.6-3.5,3.5c-2-0.1-3.4-1.5-3.3-3.5
			C61.4,75.8,62.9,74.4,64.8,74.4z"/>
		<path class="st184" d="M98,109.6c-0.1,1.9-1.5,3.3-3.5,3.3c-1.9-0.1-3.3-1.5-3.3-3.5c0.1-1.9,1.5-3.3,3.5-3.3
			C96.6,106.2,98,107.6,98,109.6z"/>
		<path class="st184" d="M63.5,89.7c-1.9,0-3.4-1.4-3.4-3.3c0-1.9,1.3-3.3,3.2-3.4c2-0.1,3.5,1.3,3.6,3.2
			C66.8,88.2,65.4,89.7,63.5,89.7z"/>
		<path class="st184" d="M77.6,102.8c2,0,3.4,1.5,3.4,3.4c0,2-1.5,3.4-3.5,3.3c-1.9,0-3.2-1.4-3.3-3.3
			C74.2,104.3,75.6,102.8,77.6,102.8z"/>
		<path class="st184" d="M70.1,68.8c0,2-1.4,3.4-3.3,3.5c-2,0-3.4-1.4-3.5-3.3c0-2,1.4-3.4,3.3-3.5C68.6,65.4,70.1,66.8,70.1,68.8z"
			/>
		<path class="st184" d="M113.6,100.5c1.8,0,3.3,1.6,3.2,3.4c0,1.8-1.6,3.3-3.4,3.2c-1.8,0-3.3-1.6-3.2-3.4
			C110.2,102,111.8,100.5,113.6,100.5z"/>
		<path class="st184" d="M122.5,69.2c0,1.8-1.4,3.3-3.2,3.4c-1.9,0.1-3.5-1.4-3.5-3.4c0-1.8,1.5-3.3,3.3-3.3
			C121,66,122.4,67.4,122.5,69.2z"/>
		<path class="st184" d="M81.4,53.3c0,1.8-1.6,3.3-3.4,3.2c-1.8,0-3.3-1.6-3.2-3.4c0-1.8,1.6-3.3,3.4-3.2
			C79.9,50,81.4,51.6,81.4,53.3z"/>
		<path class="st184" d="M109.2,59.2c0.1-1.8,1.6-3.2,3.4-3.1c1.9,0.1,3.3,1.7,3.2,3.6c-0.2,1.8-1.8,3.1-3.6,3
			C110.5,62.6,109.1,61,109.2,59.2z"/>
		<path class="st184" d="M71.4,60.4c0,1.8-1.6,3.3-3.3,3.3c-1.8,0-3.3-1.6-3.2-3.4c0.1-1.7,1.5-3.1,3.2-3.2
			C69.8,57,71.4,58.6,71.4,60.4z"/>
		<path class="st184" d="M72.3,104.8c0,1.8-1.7,3.3-3.4,3.2c-1.7-0.1-3.1-1.6-3.1-3.3c0-1.8,1.7-3.3,3.4-3.2
			C70.9,101.6,72.3,103.1,72.3,104.8z"/>
		<path class="st184" d="M124.8,85c1.7,0,3.2,1.5,3.2,3.1c0,1.8-1.6,3.3-3.3,3.3c-1.7-0.1-3.1-1.6-3.1-3.2
			C121.7,86.5,123.2,85,124.8,85z"/>
		<path class="st184" d="M65.2,94.8c0,1.8-1.6,3.3-3.3,3.3c-1.7-0.1-3.1-1.5-3.2-3.2c0-1.8,1.6-3.3,3.3-3.3
			C63.8,91.6,65.2,93.1,65.2,94.8z"/>
		<path class="st184" d="M99.7,48c0,1.7-1.5,3.2-3.1,3.2c-1.8,0-3.3-1.6-3.3-3.3c0.1-1.7,1.6-3.1,3.2-3.1
			C98.2,44.9,99.7,46.4,99.7,48z"/>
		<path class="st184" d="M106.4,111c-0.1,1.8-1.7,3.3-3.4,3.2c-1.8-0.1-3.2-1.7-3.1-3.5c0.1-1.7,1.6-3.1,3.3-3.1
			C104.9,107.6,106.4,109.2,106.4,111z"/>
		<path class="st184" d="M102.3,49.6c-0.1-1.7,1.4-3.2,3.1-3.2c1.7,0,3.3,1.4,3.2,3.1c-0.1,1.8-1.1,2.9-2.9,3.1
			C104,52.8,102.4,51.3,102.3,49.6z"/>
		<path class="st184" d="M126.5,96.7c0,1.8-1.5,3.3-3.2,3.1c-1.8-0.2-2.9-1.2-2.9-3.1c-0.1-1.7,1.5-3.2,3.2-3
			C125.4,93.8,126.3,94.9,126.5,96.7z"/>
		<path class="st184" d="M91,46.3c0,1.8-1.5,3.2-3.3,3C86,49,85,47.9,84.9,46.1c0-1.8,1.5-3.1,3.3-3C89.8,43.2,91.1,44.6,91,46.3z"
			/>
		<path class="st184" d="M129.4,79.8c0,1.7-1.6,3.1-3.2,3.1c-1.7,0-3.1-1.6-3.1-3.2c0-1.7,1.6-3.1,3.2-3.1
			C128,76.6,129.4,78.1,129.4,79.8z"/>
		<path class="st184" d="M87.7,116.6c-0.1,1.8-1.1,2.9-3,3c-1.8,0.1-3.2-1.3-3.1-3.1c0.1-1.8,1.2-2.9,3-2.9
			C86.6,113.6,87.5,114.7,87.7,116.6z"/>
		<path class="st184" d="M60.7,67.3c-0.1,1.8-1,3-2.9,3.1c-1.9,0.1-3-1-3.1-2.8c-0.1-1.9,1-3,2.8-3.1C59.5,64.4,60.5,65.5,60.7,67.3
			z"/>
		<path class="st184" d="M124.1,60.8c-0.1,1.8-1.1,2.9-2.9,3.1c-1.7,0.2-3.2-1.2-3.2-3s1.4-3.2,3.1-3.1
			C122.9,57.9,123.9,59,124.1,60.8z"/>
		<path class="st184" d="M56.4,72.9c1.8,0.2,2.9,1.2,2.9,3.1c0,1.8-1.5,3.1-3.2,2.9c-1.9-0.2-2.8-1.3-2.8-3.2
			C53.4,73.9,54.6,73,56.4,72.9z"/>
		<path class="st184" d="M96.2,118c-0.2,1.8-1.1,2.9-3,2.9c-1.9,0-2.9-1.1-2.9-3c0-1.9,1.1-2.9,3-2.9C95.1,115.1,96,116.2,96.2,118z
			"/>
		<path class="st184" d="M61,106.2c-2,0-3.4-1.2-3.3-2.9c0.1-1.8,1-2.8,2.8-2.8c1.7-0.1,3,1.2,3,2.9C63.4,105.2,62.4,106.1,61,106.2
			z"/>
		<path class="st184" d="M116.9,51c-0.2,1.8-1.2,2.8-3.1,2.8c-1.7,0-2.9-1.4-2.7-3.1c0.2-1.7,1.2-2.7,2.9-2.7
			C115.9,48,116.8,49.2,116.9,51z"/>
		<path class="st184" d="M76.4,117.7c-2-0.1-3.1-1-3.2-2.9c-0.1-1.8,1-3,2.8-3c1.8-0.1,3,0.9,3,2.8C79.2,116.5,78,117.4,76.4,117.7z
			"/>
		<path class="st184" d="M57.9,84.4c-0.2,2-1.2,3.1-3,3c-1.9,0-2.9-1.1-2.9-3c0-1.9,1.1-2.9,3-2.9C56.8,81.5,57.7,82.7,57.9,84.4z"
			/>
		<path class="st184" d="M82.3,44.4c0,2-1.2,3.3-2.9,3.3c-1.8-0.1-2.7-1-2.8-2.8c-0.1-1.7,1.2-3,2.9-2.9
			C81.3,41.9,82.2,43,82.3,44.4z"/>
		<path class="st184" d="M128.3,68.3c1.9,0.3,2.9,1.3,2.7,3.2c-0.2,1.9-1.3,2.8-3.2,2.6c-1.7-0.2-2.7-1.3-2.6-3
			C125.3,69.2,126.5,68.4,128.3,68.3z"/>
		<path class="st184" d="M101.6,122.3c-1.7-0.2-2.7-1.1-2.7-2.9c0-1.7,1.4-3,3.1-2.8c1.8,0.2,2.7,1.2,2.6,3
			C104.4,121.3,103.3,122.2,101.6,122.3z"/>
		<path class="st184" d="M122.2,108.1c-2,0-3.3-1.4-3.1-3.1c0.2-1.7,1.2-2.7,2.9-2.7c1.7,0,2.9,1.4,2.8,3.1
			C124.7,107.2,123.6,108,122.2,108.1z"/>
		<path class="st184" d="M59.9,56c1.6,0.3,2.6,1.2,2.6,3c0,1.7-1.5,2.9-3.2,2.7c-1.7-0.2-2.7-1.3-2.5-3.1
			C56.9,56.9,58.1,56.1,59.9,56z"/>
		<path class="st184" d="M111.6,109.3c1.8,0.2,2.9,1.1,2.9,3c0,1.9-1.1,2.9-3,2.9c-1.9,0-2.9-1.1-2.9-3
			C108.7,110.4,109.8,109.5,111.6,109.3z"/>
		<path class="st184" d="M69.7,54.8c-2-0.2-3.1-1.2-3-3c0-1.9,1.1-2.9,3-2.9c1.9,0,2.9,1.1,2.9,3C72.5,53.8,71.3,54.6,69.7,54.8z"/>
		<path class="st184" d="M70.5,113.1c-0.1,1.7-1,2.8-2.7,2.9c-1.6,0.1-3.1-1.2-3-2.9c0.1-1.7,1.1-2.8,2.8-2.8
			C69.4,110.4,70.3,111.5,70.5,113.1z"/>
		<path class="st184" d="M101.2,39.5c-0.2,1.6-1.1,2.7-2.7,2.7c-1.7,0-2.8-1-2.8-2.8c0-1.7,1.2-2.8,2.9-2.7
			C100.1,36.9,101,38,101.2,39.5z"/>
		<path class="st184" d="M132.4,62.6c-0.2,1.7-1.1,2.9-2.9,2.8c-1.6,0-2.7-1.1-2.7-2.7c0-1.7,1.1-2.8,2.8-2.8
			C131.3,60,132.1,61.1,132.4,62.6z"/>
		<path class="st184" d="M133.4,92.4c-1.7-0.2-2.8-1.1-2.8-2.8c0-1.6,1-2.7,2.6-2.7c1.7,0,2.8,1,2.8,2.8
			C136.1,91.3,135,92.2,133.4,92.4z"/>
		<path class="st184" d="M132,100.9c-1.6-0.2-2.7-1.1-2.7-2.7c0-1.6,1-2.7,2.6-2.7c1.6,0,2.7,1,2.7,2.6
			C134.6,99.7,133.6,100.6,132,100.9z"/>
		<path class="st184" d="M134.8,83.9c-1.6-0.1-2.6-1-2.8-2.6c-0.2-1.4,1.3-3,2.7-2.9c1.6,0.1,2.7,1.1,2.7,2.7
			C137.5,82.7,136.4,83.6,134.8,83.9z"/>
		<path class="st184" d="M120.6,116.5c-1.7-0.3-2.7-1.2-2.7-2.8c0-1.6,1.1-2.7,2.7-2.6c1.6,0,2.7,1.1,2.6,2.7
			C123.2,115.4,122.1,116.3,120.6,116.5z"/>
		<path class="st184" d="M56.4,93.3c-0.3,1.8-1.1,2.9-2.9,2.9c-1.8,0-2.8-1.1-2.8-2.8c0-1.8,1.1-2.8,2.8-2.8
			C55.3,90.6,56.1,91.8,56.4,93.3z"/>
		<path class="st184" d="M73.7,43.4c-0.3,1.6-1.2,2.7-2.8,2.6c-1.6,0-2.7-1.1-2.6-2.7c0-1.6,1.1-2.7,2.7-2.6
			C72.7,40.7,73.5,41.8,73.7,43.4z"/>
		<path class="st184" d="M110.3,123.6c-1.6-0.2-2.7-1.1-2.8-2.7c0-1.6,1-2.7,2.6-2.7c1.6,0,2.7,1,2.7,2.6
			C112.9,122.4,111.8,123.3,110.3,123.6z"/>
		<path class="st184" d="M109.6,40.9c-0.2,1.6-1,2.6-2.6,2.8c-1.4,0.2-3-1.3-2.8-2.8c0.1-1.6,1.1-2.6,2.7-2.6
			C108.5,38.3,109.4,39.3,109.6,40.9z"/>
		<path class="st184" d="M61,47.7c1.6,0.2,2.7,1.1,2.8,2.7c0,1.6-1,2.7-2.6,2.7c-1.6,0-2.7-1-2.7-2.6C58.3,48.8,59.4,48,61,47.7z"/>
		<path class="st184" d="M122.5,55.1c-1.7-0.2-2.8-1.1-2.8-2.8c0-1.6,1-2.7,2.6-2.7c1.7-0.1,2.8,1,2.8,2.7
			C125.2,53.9,124.2,54.8,122.5,55.1z"/>
		<path class="st184" d="M107.4,90c-3.6,0.1-4.7,1.2-4.8,4.8c-0.3-0.3-0.5-0.6-0.8-0.9c1-2.7-0.2-4.6-2.3-6.1
			c1.6,0.2,2.8-0.7,3.7-1.9c0.5-0.3,0.7,0.1,0.8,0.5c0.8,2.7,2.8,3.3,5.3,2.9C108.6,89.5,108,89.8,107.4,90z"/>
		<path class="st184" d="M54.7,102c-0.2,1.7-1.2,2.7-2.8,2.6c-1.5-0.1-2.5-1.1-2.4-2.7c0.1-1.7,1.1-2.6,2.8-2.5
			C53.8,99.4,54.6,100.5,54.7,102z"/>
		<path class="st184" d="M84.2,67.5c3.6-0.1,4.7-1.2,4.8-4.8c0.3,0.3,0.5,0.6,0.8,0.9c-0.5,2.2,0.3,3.9,2.1,5.2
			c-0.1,0.3-0.4,0.3-0.6,0.4c-1.4,0.2-2.3,1.2-3.2,2.3c-0.7-2-1.9-3.3-3.9-3.8C84.2,67.7,84.2,67.6,84.2,67.5z"/>
		<path class="st184" d="M59.2,114.5c-1.5-0.1-2.5-0.9-2.6-2.4c-0.1-1.7,0.8-2.8,2.5-2.8c1.6-0.1,2.7,1,2.7,2.6
			C61.8,113.4,60.8,114.3,59.2,114.5z"/>
		<path class="st184" d="M83.2,127.7c-1.7-0.2-2.6-1.2-2.5-2.8c0.1-1.5,1.1-2.5,2.7-2.4c1.6,0.1,2.6,1.1,2.5,2.8
			C85.8,126.8,84.7,127.6,83.2,127.7z"/>
		<path class="st184" d="M87.1,37.7c0.3-1.7,1.2-2.7,2.8-2.7c1.6,0,2.6,1.1,2.6,2.7c0,1.6-1.1,2.6-2.7,2.6
			C88.2,40.3,87.4,39.2,87.1,37.7z"/>
		<path class="st184" d="M50.5,74.5c-0.2,1.6-1.1,2.6-2.8,2.6c-1.5-0.1-2.5-1.1-2.5-2.6c0-1.7,1.1-2.7,2.7-2.6
			C49.5,72,50.3,73,50.5,74.5z"/>
		<path class="st184" d="M98.3,65.1c-0.3,2.4,0.2,4.4,2.8,5.3c0,0.1,0,0.2,0,0.3c-1.9-0.1-3.2,0.9-4.4,2.3c-0.4-1.4-1-2.5-2.2-3.2
			c-0.3-0.3-0.3-0.6,0.1-0.9c2.6-1.2,3.1-2.1,2.9-5.3C97.8,64.1,98.1,64.6,98.3,65.1z"/>
		<path class="st184" d="M51.8,66c-0.1,1.5-0.9,2.5-2.5,2.6c-1.7,0-2.7-1-2.6-2.6c0-1.6,1-2.5,2.6-2.5C50.8,63.5,51.7,64.4,51.8,66z
			"/>
		<path class="st184" d="M74.8,125.8c-1.6-0.1-2.6-1-2.6-2.5c0-1.7,1-2.7,2.7-2.6c1.6,0,2.5,1,2.4,2.6
			C77.3,124.8,76.3,125.6,74.8,125.8z"/>
		<path class="st184" d="M117.9,42.4c-0.2,1.6-1,2.6-2.6,2.5c-1.7,0-2.6-1-2.5-2.7c0.1-1.6,1.1-2.4,2.6-2.3
			C117.1,39.9,117.8,40.9,117.9,42.4z"/>
		<path class="st184" d="M68.7,121.9c-0.2,1.4-0.9,2.3-2.4,2.3c-1.6,0-2.5-0.9-2.4-2.5c0.1-1.6,1.1-2.4,2.6-2.3
			C68,119.5,68.7,120.4,68.7,121.9z"/>
		<path class="st184" d="M131,56.2c-1.6-0.1-2.5-0.9-2.4-2.6c0.1-1.5,0.9-2.3,2.4-2.3c1.6,0,2.5,0.9,2.4,2.5
			C133.3,55.3,132.4,56.1,131,56.2z"/>
		<path class="st184" d="M121.1,122.2c-0.2,1.6-1,2.4-2.5,2.4c-1.5,0-2.4-0.9-2.4-2.3c0-1.6,0.9-2.5,2.5-2.4
			C120.3,119.9,121,120.9,121.1,122.2z"/>
		<path class="st184" d="M83.4,36.2c-0.1,1.5-0.8,2.5-2.4,2.6c-1.6,0-2.5-0.8-2.6-2.4c0-1.6,0.8-2.5,2.4-2.6
			C82.4,33.7,83.2,34.6,83.4,36.2z"/>
		<path class="st184" d="M130.5,104.1c1.6,0.1,2.5,0.9,2.5,2.5c0,1.6-0.9,2.5-2.5,2.5c-1.6,0-2.5-0.9-2.5-2.5
			C128,105.1,128.9,104.3,130.5,104.1z"/>
		<path class="st184" d="M94.3,126.5c-0.1,1.5-0.9,2.5-2.5,2.6c-1.7,0-2.7-0.9-2.6-2.6c0-1.6,1-2.5,2.6-2.5
			C93.3,124,94.2,124.9,94.3,126.5z"/>
		<path class="st184" d="M53.6,57.4c-0.1,1.6-0.8,2.5-2.5,2.5c-1.6,0-2.5-0.9-2.5-2.5c0-1.5,0.8-2.3,2.3-2.4
			C52.6,55,53.4,55.9,53.6,57.4z"/>
		<path class="st184" d="M49,83c-0.2,1.6-1,2.5-2.6,2.5c-1.7,0-2.6-1-2.6-2.7c0.1-1.6,1.1-2.4,2.6-2.4C48.1,80.5,48.9,81.5,49,83z"
			/>
		<path class="st184" d="M139.2,72.6c-0.1,1.5-0.9,2.5-2.5,2.5c-1.7,0-2.6-0.9-2.6-2.6c0-1.6,1-2.4,2.5-2.4
			C138.2,70.1,139.1,71.1,139.2,72.6z"/>
		<path class="st184" d="M100.2,125.4c1.6,0.1,2.5,0.8,2.5,2.5c0,1.6-0.9,2.5-2.5,2.5c-1.5,0-2.3-0.8-2.4-2.3
			C97.8,126.5,98.6,125.6,100.2,125.4z"/>
		<path class="st184" d="M45,94c-1.5-0.1-2.5-0.9-2.4-2.5c0-1.5,0.9-2.3,2.4-2.3c1.6,0,2.5,0.9,2.4,2.5C47.4,93.1,46.5,93.9,45,94z"
			/>
		<path class="st184" d="M138.3,66.6c-1.6-0.1-2.5-0.8-2.6-2.3c0-1.6,0.9-2.5,2.4-2.5c1.5,0,2.3,0.9,2.3,2.4
			C140.4,65.6,139.5,66.3,138.3,66.6z"/>
		<path class="st184" d="M74.8,34.7c-0.3,1.6-1,2.5-2.5,2.4c-1.3-0.1-2.2-0.9-2.2-2.3c0-1.5,0.8-2.4,2.3-2.4
			C73.9,32.5,74.5,33.5,74.8,34.7z"/>
		<path class="st184" d="M62.5,39.5c1.5,0.2,2.4,1,2.4,2.5c0,1.5-0.9,2.3-2.4,2.3c-1.6,0-2.4-1-2.4-2.5
			C60.2,40.3,61.2,39.6,62.5,39.5z"/>
		<path class="st184" d="M52.6,110.5c-0.2,1.4-1,2.3-2.5,2.3c-1.3-0.1-2.2-0.9-2.2-2.3c0-1.5,0.8-2.4,2.3-2.4
			C51.6,108.1,52.4,109,52.6,110.5z"/>
		<path class="st184" d="M129,117.5c-1.4-0.3-2.3-1-2.2-2.5c0.1-1.3,0.9-2.2,2.3-2.2c1.5,0,2.4,0.9,2.4,2.3
			C131.4,116.7,130.4,117.4,129,117.5z"/>
		<path class="st184" d="M123.9,41.4c1.4,0.1,2.4,0.9,2.4,2.3c0,1.6-0.9,2.5-2.5,2.4c-1.5,0-2.3-0.9-2.3-2.4
			C121.5,42.3,122.4,41.6,123.9,41.4z"/>
		<path class="st184" d="M99.7,32.9c-1.4-0.3-2.3-1.1-2.2-2.6c0.1-1.3,1-2.2,2.4-2.1c1.4,0.1,2.3,1.1,2.2,2.5
			C102,32.1,101,32.8,99.7,32.9z"/>
		<path class="st184" d="M59.6,120.4c-0.2,1.4-1,2.3-2.4,2.3c-1.3-0.1-2.2-0.9-2.2-2.3c0-1.4,0.9-2.3,2.4-2.3
			C58.7,118.1,59.4,119,59.6,120.4z"/>
		<path class="st184" d="M111.1,129.4c-0.3,1.4-1,2.3-2.5,2.2c-1.4-0.1-2.3-1.1-2.2-2.5c0.1-1.3,1-2.2,2.3-2.1
			C110.2,127,111,128,111.1,129.4z"/>
		<path class="st184" d="M110.6,32.6c-0.3,1.4-1.1,2.3-2.6,2.2c-1.3-0.1-2.2-1-2.1-2.4c0.1-1.4,1-2.3,2.5-2.2
			C109.8,30.3,110.5,31.2,110.6,32.6z"/>
		<path class="st184" d="M81.9,131.3c1.3,0.2,2.2,1,2.2,2.3c0,1.3-0.9,2.2-2.3,2.2c-1.3,0-2.2-0.9-2.2-2.3
			C79.6,132.2,80.6,131.5,81.9,131.3z"/>
		<path class="st184" d="M39.4,70.8c1.3,0.2,2.2,1,2.2,2.3c0,1.3-0.9,2.2-2.3,2.2c-1.3,0-2.2-0.9-2.2-2.3C37.1,71.7,38,71,39.4,70.8
			z"/>
		<path class="st184" d="M52.4,46.6c1.6,0.2,2.5,1,2.5,2.4c0,1.4-0.9,2.3-2.4,2.3c-1.3,0-2.2-0.9-2.2-2.2
			C50.2,47.6,51.2,46.9,52.4,46.6z"/>
		<path class="st184" d="M143.6,80.2c1.5,0.2,2.4,0.9,2.4,2.4c0,1.3-0.9,2.2-2.2,2.3c-1.4,0-2.4-0.9-2.4-2.3
			C141.4,81.2,142.4,80.5,143.6,80.2z"/>
		<path class="st184" d="M144.2,91c-0.2,1.4-0.9,2.4-2.4,2.3c-1.4,0-2.3-1-2.3-2.4c0-1.3,0.9-2.2,2.2-2.2
			C143.2,88.7,144,89.6,144.2,91z"/>
		<path class="st184" d="M93.6,29.1c-0.3,1.4-1,2.3-2.3,2.3c-1.3,0-2.2-0.9-2.3-2.2c0-1.5,0.9-2.4,2.4-2.3
			C92.8,26.9,93.4,27.9,93.6,29.1z"/>
		<path class="st184" d="M142.8,99.5c-0.3,1.5-1,2.4-2.5,2.3c-1.3-0.1-2.2-1-2.2-2.3c0-1.4,1-2.3,2.4-2.3
			C141.9,97.3,142.5,98.3,142.8,99.5z"/>
		<path class="st184" d="M43.5,102.4c-1.3-0.2-2.2-0.9-2.3-2.3c0-1.4,0.9-2.4,2.3-2.4c1.4,0,2.3,1,2.3,2.4
			C45.8,101.5,44.9,102.2,43.5,102.4z"/>
		<path class="st184" d="M84.2,91.1c1-2.7-0.3-4.6-2.3-6.1c1.6,0.2,2.9-0.5,3.9-1.7c0.8,1,1.2,2.1,2.3,2.9c-2.3,1.1-3.3,2.8-3.1,5.3
			C84.8,91.4,84.5,91.2,84.2,91.1z"/>
		<path class="st184" d="M43,64.6c-0.2,1.3-1,2.2-2.3,2.2c-1.3,0-2.2-0.9-2.2-2.3c0-1.3,0.9-2.2,2.3-2.2
			C42.1,62.4,42.8,63.3,43,64.6z"/>
		<path class="st184" d="M132.4,47.4c-1.4-0.2-2.2-1-2.1-2.3c0.1-1.2,0.9-2,2.2-2c1.4,0,2.2,0.9,2.1,2.3
			C134.5,46.6,133.6,47.3,132.4,47.4z"/>
		<path class="st184" d="M139.4,57.9c-1.4-0.2-2.2-1-2.1-2.4c0.1-1.3,1-2.2,2.4-2.1c1.2,0.1,2,1,2,2.2
			C141.6,57,140.8,57.7,139.4,57.9z"/>
		<path class="st184" d="M141.2,108.5c-0.1,1.3-0.8,2.1-2,2.2c-1.4,0.1-2.3-0.7-2.3-2.1c0-1.4,0.8-2.2,2.2-2.2
			C140.3,106.4,141,107.2,141.2,108.5z"/>
		<path class="st184" d="M37.9,83.9c-1.3-0.2-2.2-0.9-2.2-2.2c0-1.3,0.8-2.2,2.2-2.3c1.3,0,2.2,0.8,2.3,2.2
			C40.1,82.9,39.3,83.6,37.9,83.9z"/>
		<path class="st184" d="M92.6,135c-0.2,1.3-1,2.2-2.3,2.2c-1.3,0-2.2-0.9-2.2-2.3c0-1.3,0.9-2.2,2.3-2.2
			C91.7,132.8,92.4,133.7,92.6,135z"/>
		<path class="st184" d="M82.8,30c-1.4-0.2-2.3-1-2.2-2.4c0.1-1.3,1-2.1,2.4-2c1.2,0.1,2,1,2,2.2C84.9,29.2,84,29.8,82.8,30z"/>
		<path class="st184" d="M119.1,33.9c-0.2,1.3-0.9,2.2-2.2,2.2c-1.3,0-2.2-0.8-2.3-2.2c0-1.3,0.8-2.2,2.2-2.3
			C118.1,31.6,118.8,32.5,119.1,33.9z"/>
		<path class="st184" d="M72.8,129.9c1.3,0.1,2.2,0.8,2.2,2.2c0,1.4-0.8,2.2-2.2,2.2c-1.2,0-2.1-0.8-2.2-2
			C70.6,131,71.4,130.2,72.8,129.9z"/>
		<path class="st184" d="M147.4,74c-0.2,1.4-1,2.3-2.3,2.2c-1.3-0.1-2.2-1-2.1-2.3c0.1-1.2,0.9-2,2.1-2.1
			C146.5,71.8,147.2,72.7,147.4,74z"/>
		<path class="st184" d="M127.1,126.2c-1.3-0.1-2.1-0.9-2-2.2c0-1.3,0.9-2,2.2-2c1.3,0,2,0.9,2,2.2
			C129.2,125.5,128.4,126.2,127.1,126.2z"/>
		<path class="st184" d="M100.9,136.5c-0.1,1.3-0.9,2.1-2.2,2c-1.3-0.1-2-0.9-2-2.2c0.1-1.3,0.9-2,2.2-2
			C100.2,134.4,100.9,135.2,100.9,136.5z"/>
		<path class="st184" d="M50.8,118.8c0,1.3-0.6,2.1-2,2.1c-1.3,0-2-0.7-2-2c0-1.2,0.6-1.9,1.8-2C49.9,116.9,50.6,117.5,50.8,118.8z"
			/>
		<path class="st184" d="M42.1,58.2c-1.3-0.1-2.1-0.9-2-2.2c0.1-1.3,0.9-2,2.2-2c1.3,0,2,0.9,2,2.2C44.2,57.5,43.3,58.1,42.1,58.2z"
			/>
		<path class="st184" d="M41.6,107c1.3,0.1,2,0.7,2.1,2c0,1.3-0.7,2-2,2c-1.2,0-1.9-0.7-1.9-1.9C39.6,107.8,40.3,107.1,41.6,107z"/>
		<path class="st184" d="M125.2,37.3c-1.3-0.1-2-0.9-1.9-2.2c0.1-1.2,0.8-1.8,2-1.8c1.3,0,2,0.7,2,2
			C127.3,36.7,126.5,37.3,125.2,37.3z"/>
		<path class="st184" d="M148.6,65.5c-0.1,1.3-0.8,2-2.1,2c-1.3,0-2-0.8-1.9-2.1c0-1.2,0.7-1.9,1.9-1.9
			C147.8,63.5,148.5,64.2,148.6,65.5z"/>
		<path class="st184" d="M66,33.4c-0.1,1.3-0.8,2.1-2.1,2.1c-1.3,0-2.1-0.7-2.1-2c0-1.3,0.7-2.1,2-2.1C65.2,31.3,65.9,32.1,66,33.4z
			"/>
		<path class="st184" d="M117.2,128.7c1.3,0.1,2.1,0.7,2.1,2c0,1.3-0.7,2.1-2,2.2c-1.3,0.1-2.1-0.7-2.2-2
			C115.2,129.5,115.9,128.8,117.2,128.7z"/>
		<path class="st184" d="M66.4,130.3c-0.1,1.3-0.8,2-2.1,2c-1.3,0-2-0.8-2-2.1c0-1.3,0.8-2,2.1-2C65.7,128.2,66.3,129,66.4,130.3z"
			/>
		<path class="st184" d="M38.5,90c-0.1,1.3-0.7,2.1-2,2.1c-1.3,0-2.1-0.7-2.1-2c0-1.3,0.7-2,2-2.1C37.8,88.1,38.4,88.8,38.5,90z"/>
		<path class="st184" d="M56.1,40.4c-0.1,1.3-0.7,2.1-2,2.2c-1.3,0-2.1-0.7-2.2-2c0-1.3,0.7-2.1,2-2.2
			C55.2,38.4,55.9,39.1,56.1,40.4z"/>
		<path class="st184" d="M92.6,22.6c-1.1-0.2-1.9-0.8-1.8-2c0.1-1.2,0.8-1.8,2-1.8c1.1,0.1,1.7,0.8,1.7,1.9
			C94.6,21.9,93.8,22.4,92.6,22.6z"/>
		<path class="st184" d="M36.5,98.5c-0.1,1.2-0.7,1.9-1.9,2c-1.2,0-1.9-0.6-2-1.8c0-1.2,0.6-1.9,1.8-2
			C35.7,96.7,36.3,97.4,36.5,98.5z"/>
		<path class="st184" d="M103.2,22c-0.2,1.3-0.9,2-2.1,1.9c-1.2-0.1-1.8-0.9-1.7-2.1c0.1-1.1,0.8-1.7,1.9-1.7
			C102.5,20.2,103,21,103.2,22z"/>
		<path class="st184" d="M111.6,23.9c-0.1,1.2-0.7,1.9-2,1.9c-1.2,0-1.9-0.8-1.8-2c0-1.1,0.7-1.8,1.8-1.8
			C110.8,22,111.5,22.8,111.6,23.9z"/>
		<path class="st184" d="M67.2,24.7c-0.1,1.2-0.7,1.9-1.7,2c-1.2,0.1-2-0.6-2-1.8c0-1.1,0.7-1.8,1.8-1.8
			C66.4,23,66.9,23.8,67.2,24.7z"/>
		<path class="st184" d="M118.4,27.3c-1.2-0.1-2-0.7-2-1.9c0-1.1,0.7-1.8,1.7-1.8c1.2-0.1,1.9,0.7,1.9,1.8
			C120.1,26.5,119.3,27,118.4,27.3z"/>
		<path class="st184" d="M76.2,26.4c-0.1,1.2-0.7,1.9-2,1.9c-1.3,0-2-0.8-1.9-2.1c0.1-1.2,0.8-1.8,2-1.8
			C75.6,24.4,76.2,25.2,76.2,26.4z"/>
		<path class="st184" d="M81.8,142.1c-0.2,1-0.7,1.8-1.8,1.8c-1.2,0-1.9-0.7-1.9-1.9c0-1.2,0.8-1.9,2-1.8
			C81.1,140.3,81.7,141.1,81.8,142.1z"/>
		<path class="st184" d="M90.3,143.6c-0.2,1.1-0.8,1.8-1.9,1.8c-1.1,0-1.8-0.7-1.8-1.8c0-1.2,0.7-1.9,1.9-1.9
			C89.6,141.7,90.2,142.5,90.3,143.6z"/>
		<path class="st184" d="M69.6,140.8c0.2-1.1,0.7-1.9,1.8-1.9c1.2,0,1.9,0.7,1.9,1.9c-0.1,1-0.8,1.7-1.9,1.7
			C70.3,142.4,69.8,141.7,69.6,140.8z"/>
		<path class="st184" d="M55.4,30.1c1.1,0.2,1.9,0.8,1.8,2c-0.1,1.1-0.8,1.8-1.9,1.7c-1.2,0-1.9-0.8-1.8-2
			C53.6,30.8,54.3,30.2,55.4,30.1z"/>
		<path class="st184" d="M107.5,139.8c-1.2,0-2-0.6-2.1-1.8c-0.1-1.3,0.6-2.1,1.9-2.1c1.2,0,1.9,0.7,1.9,1.9
			C109.3,139,108.6,139.6,107.5,139.8z"/>
		<path class="st184" d="M34.1,63.2c-0.2,1.1-0.8,1.8-1.9,1.8c-1.1,0-1.8-0.7-1.8-1.8c0-1.2,0.7-1.9,1.9-1.9
			C33.4,61.4,34,62.2,34.1,63.2z"/>
		<path class="st184" d="M135.7,36.7c-0.2,1.2-0.8,1.9-2,1.9c-1.1,0-1.8-0.7-1.8-1.8c0-1.2,0.7-1.9,1.9-1.9
			C135,34.9,135.5,35.6,135.7,36.7z"/>
		<path class="st184" d="M29.4,78.3c1.1,0.2,1.8,0.7,1.8,1.8c0,1.2-0.7,1.9-1.9,1.9c-1.1-0.1-1.7-0.8-1.7-1.9
			C27.6,79.1,28.3,78.5,29.4,78.3z"/>
		<path class="st184" d="M150.3,83.9c0.2-1.1,0.9-1.9,2.1-1.7c1.2,0.1,1.8,0.9,1.7,2.1c-0.1,1-0.8,1.7-1.9,1.6
			C151,85.8,150.4,85,150.3,83.9z"/>
		<path class="st184" d="M125.8,130.8c1.1,0.2,1.9,0.8,1.8,2c0,1.1-0.7,1.7-1.8,1.7c-1.2,0-1.9-0.7-1.9-1.9
			C124,131.5,124.7,130.9,125.8,130.8z"/>
		<path class="st184" d="M32.7,71.6c-0.1,1.1-0.7,1.9-1.9,1.9c-1.1,0-1.8-0.7-1.8-1.8c0-1.2,0.7-1.9,1.9-1.9
			C31.9,69.9,32.5,70.6,32.7,71.6z"/>
		<path class="st184" d="M150.3,90.5c1.2,0.1,1.9,0.7,1.9,1.9c0,1.2-0.7,1.9-1.9,1.9c-1.2,0-1.9-0.7-1.9-1.9
			C148.4,91.3,149.2,90.7,150.3,90.5z"/>
		<path class="st184" d="M148.7,99.5c1.3,0.2,2.1,0.8,2.1,2c0,1.2-0.8,1.9-2,1.8c-1.1,0-1.7-0.7-1.8-1.8
			C147,100.3,147.8,99.8,148.7,99.5z"/>
		<path class="st184" d="M44.2,49.5c-1.2,0-2-0.6-2.1-1.8c-0.1-1.3,0.6-2.1,1.9-2.1c1.2,0,1.9,0.7,1.9,1.9
			C46,48.7,45.3,49.4,44.2,49.5z"/>
		<path class="st184" d="M40.3,119.4c-1-0.2-1.8-0.7-1.8-1.8c0-1.2,0.8-1.9,1.9-1.8c1,0.1,1.7,0.8,1.7,1.9
			C42,118.6,41.3,119.2,40.3,119.4z"/>
		<path class="st184" d="M139.6,117c-0.1,1.2-0.7,1.9-1.9,2c-1.3,0-2.1-0.7-2-2c0-1.2,0.8-1.9,2-1.9
			C138.8,115.1,139.5,115.8,139.6,117z"/>
		<path class="st184" d="M55.9,130.8c-1.2-0.1-1.9-0.7-1.9-1.9c0-1.2,0.7-1.9,1.9-1.9s1.9,0.7,1.9,1.9C57.8,130,57,130.7,55.9,130.8
			z"/>
		<path class="st184" d="M149.9,57c-0.2,1.2-0.8,1.9-2,1.9c-1.1,0-1.8-0.7-1.8-1.8c0-1.2,0.7-1.9,1.9-1.9
			C149.1,55.2,149.7,55.9,149.9,57z"/>
		<path class="st184" d="M45.5,40.9c-1-0.1-1.8-0.7-1.9-1.7c-0.1-1.2,0.7-1.9,1.8-1.9c1.1,0,1.7,0.7,1.8,1.8
			C47.3,40.1,46.6,40.7,45.5,40.9z"/>
		<path class="st184" d="M155.5,75.5c-0.2,1.1-0.7,1.8-1.8,1.8c-1.2,0-1.9-0.7-1.9-1.9c0.1-1.1,0.8-1.7,1.9-1.7
			C154.8,73.7,155.4,74.4,155.5,75.5z"/>
		<path class="st184" d="M142.8,47c-0.1,1.2-0.7,2-1.9,2c-1.2,0-1.9-0.7-1.9-1.9c0-1.1,0.7-1.8,1.7-1.8
			C142,45.2,142.6,45.9,142.8,47z"/>
		<path class="st184" d="M147.5,108.1c1,0.1,1.8,0.7,1.8,1.8c0,1.2-0.7,1.9-1.9,1.9c-1,0-1.7-0.8-1.7-1.8
			C145.7,108.9,146.4,108.3,147.5,108.1z"/>
		<path class="st184" d="M84.2,21.1c-1.1-0.2-1.8-0.7-1.8-1.8c0-1.2,0.8-1.9,1.9-1.9c1.1,0.1,1.7,0.8,1.7,1.9
			C86,20.4,85.2,21,84.2,21.1z"/>
		<path class="st184" d="M136.2,123.7c1,0.2,1.8,0.8,1.8,1.8c0,1.1-0.7,1.8-1.7,1.8c-1.2,0-1.9-0.7-1.9-1.9
			C134.4,124.4,135.2,123.8,136.2,123.7z"/>
		<path class="st184" d="M33.1,105.3c1,0.1,1.8,0.7,1.8,1.8c0,1.1-0.7,1.8-1.8,1.8c-1,0-1.6-0.7-1.7-1.6
			C31.3,106.2,32,105.5,33.1,105.3z"/>
		<path class="st184" d="M77.4,17.8c-0.1,1-0.6,1.6-1.6,1.7c-1,0.1-1.7-0.5-1.7-1.5c-0.1-1.1,0.6-1.8,1.7-1.8
			C76.7,16.2,77.3,16.8,77.4,17.8z"/>
		<path class="st184" d="M155.1,68.7c-0.9-0.1-1.6-0.6-1.7-1.5c-0.1-1.1,0.5-1.8,1.6-1.9c1-0.1,1.7,0.6,1.8,1.5
			C156.9,67.9,156.2,68.5,155.1,68.7z"/>
		<path class="st184" d="M27.9,86.9c1,0.1,1.8,0.7,1.8,1.7c0,1-0.6,1.7-1.5,1.8c-1.1,0.1-1.9-0.5-2-1.6
			C26.1,87.8,26.8,87.1,27.9,86.9z"/>
		<path class="st184" d="M115.8,141.5c-1.1-0.2-1.8-0.8-1.7-1.9c0-1.1,0.8-1.8,1.8-1.7c1.1,0,1.8,0.8,1.7,1.8
			C117.6,140.8,116.9,141.4,115.8,141.5z"/>
		<path class="st184" d="M99.2,144.9c-0.2,1.1-0.8,1.8-1.9,1.7c-1.1-0.1-1.7-0.8-1.7-1.9c0.1-0.9,0.8-1.6,1.7-1.6
			C98.5,143.2,99.1,143.9,99.2,144.9z"/>
		<path class="st184" d="M47.3,129.2c-1.1-0.2-1.8-0.8-1.8-1.8c0-1.1,0.8-1.8,1.9-1.7c1,0.1,1.6,0.7,1.6,1.7
			C49.1,128.5,48.4,129.1,47.3,129.2z"/>
		<path class="st184" d="M33.7,56.5c-1.1-0.1-1.8-0.7-1.8-1.8c0-1.1,0.8-1.8,1.8-1.7c1,0,1.6,0.7,1.7,1.7
			C35.4,55.7,34.7,56.3,33.7,56.5z"/>
		<path class="st184" d="M128.4,26.9c-0.2,1.1-0.8,1.7-1.9,1.6c-0.9-0.1-1.6-0.8-1.5-1.7c0.1-1.1,0.8-1.7,1.8-1.6
			C127.8,25.2,128.4,25.9,128.4,26.9z"/>
		<path class="st184" d="M62.9,137c1,0.1,1.8,0.7,1.8,1.8c0,1.1-0.7,1.8-1.8,1.8c-1,0-1.6-0.7-1.7-1.6
			C61.1,137.8,61.8,137.2,62.9,137z"/>
		<path class="st184" d="M56.8,21.5c0.9,0.1,1.5,0.5,1.5,1.5c0,1.1-0.6,1.6-1.6,1.5c-0.9-0.1-1.4-0.6-1.4-1.6
			C55.3,22,55.9,21.6,56.8,21.5z"/>
		<path class="st184" d="M38.9,127.5c-0.9,0-1.5-0.5-1.5-1.4c0-0.9,0.5-1.5,1.4-1.5c0.9,0,1.5,0.5,1.5,1.4
			C40.3,126.9,39.8,127.4,38.9,127.5z"/>
		<path class="st184" d="M146.1,126.7c0,1.1-0.5,1.7-1.4,1.7c-0.9,0-1.5-0.5-1.4-1.5c0-0.8,0.5-1.3,1.3-1.4
			C145.5,125.5,146,126,146.1,126.7z"/>
		<path class="st184" d="M22.3,78.5c0,1.1-0.5,1.6-1.4,1.7c-0.9,0-1.4-0.5-1.5-1.4c0-0.8,0.5-1.3,1.3-1.4
			C21.7,77.3,22.1,77.8,22.3,78.5z"/>
		<path class="st184" d="M134.3,135.6c-0.9,0-1.5-0.4-1.5-1.4c-0.1-1,0.5-1.6,1.5-1.6c0.9,0,1.4,0.6,1.4,1.5
			C135.8,135,135.3,135.5,134.3,135.6z"/>
		<path class="st184" d="M47.4,136c-0.2,1-0.7,1.5-1.6,1.4c-0.8-0.1-1.3-0.7-1.2-1.5c0.1-0.9,0.7-1.4,1.6-1.3
			C46.9,134.7,47.3,135.2,47.4,136z"/>
		<path class="st184" d="M56,137.4c-0.1,1-0.7,1.5-1.7,1.4c-0.9-0.1-1.4-0.7-1.3-1.6c0.1-1.1,0.7-1.5,1.7-1.4
			C55.5,135.9,56,136.5,56,137.4z"/>
		<path class="st184" d="M85.7,12.2c-1-0.1-1.6-0.6-1.5-1.5c0.1-0.9,0.6-1.4,1.5-1.3c0.8,0.1,1.3,0.6,1.3,1.4
			C87.1,11.6,86.4,12,85.7,12.2z"/>
		<path class="st184" d="M95.6,12.3c-0.1,0.9-0.7,1.4-1.6,1.3c-0.9-0.1-1.4-0.6-1.3-1.6c0.1-0.9,0.6-1.4,1.6-1.3
			C95.2,10.8,95.6,11.4,95.6,12.3z"/>
		<path class="st184" d="M102.6,12.1c1,0.1,1.5,0.6,1.5,1.5c0,1.1-0.7,1.5-1.7,1.4c-0.9-0.1-1.3-0.7-1.3-1.6
			C101.2,12.5,101.8,12.1,102.6,12.1z"/>
		<path class="st184" d="M124.2,139.6c1,0,1.6,0.5,1.6,1.4c0,1.1-0.5,1.6-1.6,1.6c-0.9,0-1.4-0.6-1.4-1.5
			C122.9,140.2,123.4,139.7,124.2,139.6z"/>
		<path class="st184" d="M111,13.5c1.1,0.1,1.6,0.6,1.6,1.5c0,0.9-0.6,1.4-1.5,1.4c-0.9,0-1.4-0.6-1.4-1.5
			C109.7,14,110.3,13.6,111,13.5z"/>
		<path class="st184" d="M67.2,14.9c0.9,0,1.5,0.5,1.5,1.4c0,0.9-0.5,1.5-1.4,1.5c-0.9,0-1.5-0.5-1.5-1.4
			C65.7,15.5,66.2,15,67.2,14.9z"/>
		<path class="st184" d="M119.6,18.3c-0.9-0.1-1.5-0.6-1.4-1.5c0.1-0.9,0.6-1.4,1.5-1.3c0.8,0.1,1.3,0.6,1.3,1.4
			C121.1,17.8,120.5,18.2,119.6,18.3z"/>
		<path class="st184" d="M107.5,146.3c-0.1,1.1-0.6,1.7-1.7,1.6c-0.9,0-1.5-0.6-1.5-1.5c0-1,0.6-1.6,1.6-1.6
			C107,144.8,107.4,145.4,107.5,146.3z"/>
		<path class="st184" d="M114.7,149.7c-1-0.1-1.6-0.5-1.6-1.4c0-0.8,0.5-1.3,1.2-1.4c0.9-0.1,1.5,0.4,1.6,1.3
			C116,149,115.3,149.5,114.7,149.7z"/>
		<path class="st184" d="M69.9,150.6c-0.8-0.2-1.4-0.7-1.2-1.6c0.1-0.8,0.7-1.3,1.5-1.2c0.9,0.1,1.4,0.7,1.3,1.6
			C71.3,150.2,70.7,150.6,69.9,150.6z"/>
		<path class="st184" d="M77.1,150.6c0.2-1,0.7-1.5,1.6-1.4c0.9,0.1,1.4,0.7,1.2,1.6c-0.1,0.8-0.6,1.2-1.4,1.2
			C77.5,152,77.2,151.3,77.1,150.6z"/>
		<path class="st184" d="M88.5,152c-0.1,0.9-0.6,1.5-1.5,1.4c-0.9-0.1-1.4-0.6-1.3-1.5c0.1-0.8,0.6-1.3,1.4-1.3
			C87.9,150.6,88.4,151.1,88.5,152z"/>
		<path class="st184" d="M135.6,26.7c1,0,1.6,0.5,1.6,1.4c0,0.9-0.4,1.5-1.3,1.5c-1,0.1-1.6-0.5-1.6-1.5
			C134.2,27.2,134.8,26.8,135.6,26.7z"/>
		<path class="st184" d="M46.9,28.6c0.9,0.1,1.5,0.5,1.5,1.5c0,1.1-0.6,1.6-1.6,1.5c-0.9-0.1-1.4-0.6-1.4-1.6
			C45.4,29.1,46,28.6,46.9,28.6z"/>
		<path class="st184" d="M37.1,38.6c-0.9,0-1.5-0.5-1.5-1.4c0-0.9,0.5-1.5,1.4-1.5c0.8,0,1.3,0.5,1.4,1.3C38.5,38,38,38.5,37.1,38.6
			z"/>
		<path class="st184" d="M143.9,38.2c-0.1,0.9-0.6,1.5-1.5,1.5c-1,0-1.6-0.6-1.6-1.6c0.1-1.1,0.7-1.6,1.8-1.5
			C143.4,36.7,143.9,37.3,143.9,38.2z"/>
		<path class="st184" d="M162.3,78.3c-0.9,0-1.5-0.5-1.5-1.4c0-0.9,0.5-1.4,1.4-1.5c0.8,0,1.3,0.5,1.4,1.3
			C163.7,77.6,163.1,78.2,162.3,78.3z"/>
		<path class="st184" d="M162.2,85.8c-0.1,1.1-0.6,1.6-1.5,1.5c-0.9,0-1.4-0.6-1.4-1.5c0-0.9,0.6-1.4,1.5-1.4
			C161.7,84.4,162.1,85,162.2,85.8z"/>
		<path class="st184" d="M22.3,68.8c0.9,0.1,1.5,0.6,1.4,1.6c-0.1,0.9-0.7,1.4-1.6,1.3c-0.8-0.1-1.3-0.6-1.3-1.4
			C20.9,69.3,21.4,68.9,22.3,68.8z"/>
		<path class="st184" d="M159.2,92.9c1,0,1.6,0.4,1.6,1.4c0,1-0.5,1.6-1.5,1.6c-0.9,0-1.4-0.6-1.4-1.5
			C157.8,93.4,158.4,93,159.2,92.9z"/>
		<path class="st184" d="M27.6,97.2c-0.1,1-0.6,1.5-1.6,1.5c-0.9,0-1.4-0.6-1.4-1.5c0-1,0.6-1.6,1.6-1.5
			C27.1,95.7,27.6,96.3,27.6,97.2z"/>
		<path class="st184" d="M25.2,61.3c-0.1,0.9-0.6,1.4-1.5,1.4c-0.9-0.1-1.4-0.7-1.3-1.6c0.1-0.8,0.6-1.3,1.4-1.3
			C24.6,59.9,25.1,60.4,25.2,61.3z"/>
		<path class="st184" d="M157.6,104.3c-0.9,0-1.5-0.4-1.6-1.4c-0.1-0.9,0.4-1.5,1.3-1.6c0.9-0.1,1.5,0.4,1.6,1.3
			C158.9,103.7,158.5,104.2,157.6,104.3z"/>
		<path class="st184" d="M158,58.5c-0.1,1-0.6,1.5-1.5,1.4c-1.1,0-1.5-0.7-1.4-1.7c0.1-0.9,0.7-1.3,1.6-1.2
			C157.6,57.1,158,57.7,158,58.5z"/>
		<path class="st184" d="M26.1,105.6c-0.1,1-0.6,1.6-1.6,1.5c-0.8-0.1-1.3-0.6-1.3-1.4c0-0.9,0.6-1.4,1.5-1.4
			C25.6,104.3,25.9,104.9,26.1,105.6z"/>
		<path class="st184" d="M157.5,111.4c-0.1,0.9-0.6,1.5-1.5,1.4c-0.9-0.1-1.4-0.6-1.3-1.5c0.1-0.8,0.6-1.3,1.4-1.3
			C156.9,109.9,157.4,110.5,157.5,111.4z"/>
		<path class="st184" d="M149.3,50.1c-0.9-0.1-1.5-0.6-1.5-1.5c0-1,0.6-1.6,1.6-1.6c1.1,0,1.6,0.7,1.4,1.8
			C150.8,49.7,150.2,50.1,149.3,50.1z"/>
		<path class="st184" d="M33.2,115.5c-0.1,1-0.5,1.6-1.4,1.6c-0.9,0-1.5-0.5-1.5-1.4c0-0.9,0.5-1.5,1.4-1.5
			C32.7,114.1,33.1,114.7,33.2,115.5z"/>
		<path class="st184" d="M35.4,47.3c-0.9-0.1-1.5-0.6-1.5-1.5c0-1,0.6-1.6,1.6-1.6c1.1,0,1.6,0.7,1.5,1.8
			C37,46.8,36.4,47.3,35.4,47.3z"/>
		<path class="st184" d="M147.7,118.5c-0.1,1.1-0.7,1.6-1.7,1.5c-1-0.1-1.5-0.8-1.4-1.8c0.1-0.9,0.7-1.4,1.6-1.4
			C147.1,116.9,147.6,117.5,147.7,118.5z"/>
		<path class="st184" d="M49.7,21.6c-0.2,0.9-0.7,1.4-1.5,1.3c-0.8-0.1-1.3-0.7-1.2-1.5c0.1-0.6,0.6-1.1,1.3-1.1
			C49.1,20.3,49.5,20.9,49.7,21.6z"/>
		<path class="st184" d="M152.7,40.1c-0.2,0.8-0.6,1.3-1.4,1.3c-0.8,0-1.3-0.5-1.4-1.3c0-0.9,0.6-1.5,1.5-1.4
			C152.2,38.7,152.6,39.3,152.7,40.1z"/>
		<path class="st184" d="M37.3,133.3c0.7,0,1.2,0.4,1.3,1.1c0.1,0.7-0.3,1.2-1,1.4c-0.8,0.2-1.4-0.4-1.4-1.2
			C36.1,133.9,36.6,133.4,37.3,133.3z"/>
		<path class="st184" d="M31.6,124.5c0,0.7-0.4,1.2-1.1,1.3c-0.8,0.1-1.4-0.4-1.5-1.2c-0.1-0.7,0.4-1.2,1.1-1.3
			C31,123.2,31.4,123.8,31.6,124.5z"/>
		<path class="st184" d="M25.2,54.2c-0.8,0-1.4-0.5-1.5-1.2c-0.1-0.9,0.5-1.5,1.4-1.5c0.8,0,1.3,0.5,1.3,1.3
			C26.5,53.6,26,54,25.2,54.2z"/>
		<path class="st184" d="M77.2,10.7c-0.9-0.2-1.4-0.7-1.3-1.5c0.1-0.8,0.7-1.3,1.5-1.2c0.6,0.1,1.1,0.6,1.1,1.3
			C78.4,10.1,77.8,10.5,77.2,10.7z"/>
		<path class="st184" d="M165.1,61.1c-0.7,0-1.2-0.4-1.3-1.1c-0.1-0.7,0.3-1.2,1-1.4c0.8-0.2,1.4,0.4,1.4,1.2
			C166.3,60.5,165.8,61,165.1,61.1z"/>
		<path class="st184" d="M129.9,18.3c-0.2,0.8-0.6,1.3-1.4,1.2c-0.7-0.1-1.2-0.6-1.1-1.3c0.1-0.8,0.6-1.3,1.4-1.2
			C129.4,17.1,129.8,17.6,129.9,18.3z"/>
		<path class="st184" d="M38.3,30c-0.7-0.2-1.3-0.7-1.1-1.5c0.1-0.7,0.6-1.2,1.3-1c0.8,0.1,1.3,0.6,1.1,1.5C39.5,29.6,39,30,38.3,30
			z"/>
		<path class="st184" d="M27.9,44.2c-0.1,0.7-0.5,1.2-1.2,1.3c-0.8,0.1-1.4-0.4-1.4-1.2c0-0.7,0.5-1.2,1.1-1.3
			C27.2,42.9,27.7,43.5,27.9,44.2z"/>
		<path class="st184" d="M155.9,119.8c-0.1,0.8-0.6,1.3-1.4,1.3c-0.7,0-1.2-0.5-1.3-1.1c-0.1-0.8,0.4-1.4,1.2-1.4
			C155.3,118.5,155.7,119.1,155.9,119.8z"/>
		<path class="st184" d="M62.8,147.7c-0.1,0.7-0.5,1.2-1.1,1.3c-0.7,0.1-1.3-0.4-1.3-1c-0.1-0.8,0.4-1.4,1.2-1.4
			C62.2,146.5,62.6,147,62.8,147.7z"/>
		<path class="st184" d="M105.3,155.3c-0.1,0.7-0.5,1.2-1.2,1.2c-0.8,0-1.3-0.5-1.3-1.4c0.1-0.7,0.6-1.2,1.3-1.1
			C104.8,154.1,105.2,154.6,105.3,155.3z"/>
		<path class="st184" d="M95.5,154.8c-0.8-0.1-1.3-0.6-1.3-1.3c0-0.9,0.6-1.5,1.5-1.4c0.8,0.1,1.3,0.6,1.2,1.4
			C96.8,154.3,96.3,154.7,95.5,154.8z"/>
		<path class="st184" d="M144.2,31c-0.8-0.2-1.3-0.6-1.3-1.4c0.1-0.8,0.6-1.3,1.4-1.3c0.8,0,1.3,0.6,1.3,1.4
			C145.5,30.5,144.9,30.9,144.2,31z"/>
		<path class="st184" d="M157.9,51.3c-0.8-0.2-1.3-0.6-1.3-1.4c0-0.8,0.6-1.3,1.4-1.3c0.8,0,1.3,0.6,1.3,1.4
			C159.2,50.8,158.6,51.2,157.9,51.3z"/>
		<path class="st184" d="M24.5,114.3c-0.2,0.7-0.6,1.2-1.3,1.1c-0.8-0.1-1.3-0.6-1.2-1.4c0.1-0.7,0.7-1.1,1.4-1
			C24.1,113.1,24.5,113.6,24.5,114.3z"/>
		<path class="st184" d="M164.9,68.3c-0.1,0.8-0.5,1.3-1.3,1.4c-0.8,0-1.3-0.5-1.4-1.3c0-0.8,0.5-1.3,1.3-1.4
			C164.3,67,164.8,67.6,164.9,68.3z"/>
		<path class="st184" d="M134.2,142.6c-0.2,0.8-0.6,1.3-1.4,1.2c-0.7-0.1-1.2-0.6-1.1-1.3c0.1-0.8,0.6-1.3,1.4-1.2
			C133.7,141.4,134.1,141.9,134.2,142.6z"/>
		<path class="st184" d="M18.8,95.7c0,0.7-0.5,1.2-1.1,1.3c-0.7,0.1-1.3-0.4-1.4-1c-0.1-0.8,0.4-1.4,1.2-1.4
			C18.3,94.5,18.7,95,18.8,95.7z"/>
		<path class="st184" d="M20.4,87.3c-0.2,0.8-0.6,1.3-1.4,1.3c-0.8,0-1.3-0.6-1.3-1.4c0-0.8,0.6-1.3,1.4-1.3
			C19.8,86,20.3,86.5,20.4,87.3z"/>
		<path class="st184" d="M144.1,135.5c-0.2,0.8-0.6,1.3-1.4,1.3c-0.8-0.1-1.3-0.6-1.2-1.4c0.1-0.7,0.6-1.2,1.3-1.2
			C143.6,134.2,144,134.7,144.1,135.5z"/>
		<path class="st184" d="M95.6,2.6c0.6,0.1,1,0.4,0.9,1.1c0,0.8-0.5,1.1-1.2,1c-0.6-0.1-0.9-0.6-0.8-1.2C94.6,2.9,95,2.6,95.6,2.6z"
			/>
		<path class="st184" d="M105.1,5.1c-0.1,0.7-0.4,1-1,1c-0.6,0-1-0.4-1-1c0-0.6,0.4-1,1-1C104.7,4.1,105,4.5,105.1,5.1z"/>
		<path class="st184" d="M153.7,31.6c-0.1,0.6-0.4,1-1.1,0.9c-0.8,0-1.1-0.5-1-1.2c0.1-0.6,0.6-0.9,1.2-0.8
			C153.5,30.6,153.8,31,153.7,31.6z"/>
		<path class="st184" d="M11.4,77c0.1-0.8,0.4-1.2,1.1-1.1c0.6,0,1,0.4,1,1c0,0.6-0.4,1-1,1C11.7,77.9,11.4,77.4,11.4,77z"/>
		<path class="st184" d="M58.6,15.5c-0.7-0.1-1-0.5-0.9-1.1c0-0.7,0.5-1,1.1-0.9c0.7,0,1,0.5,0.9,1.1C59.6,15.3,59.2,15.5,58.6,15.5
			z"/>
		<path class="st184" d="M145.5,20.1c0.8,0.1,1.1,0.4,1.1,1.1c0,0.7-0.5,1-1.1,0.9c-0.5,0-0.8-0.4-0.9-0.9
			C144.6,20.5,145,20.2,145.5,20.1z"/>
		<path class="st184" d="M136,19.9c0-0.7,0.2-1.1,0.9-1.2c0.7-0.1,1.2,0.2,1.3,1c0.1,0.6-0.2,1.1-0.9,1.2
			C136.6,20.9,136.2,20.6,136,19.9z"/>
		<path class="st184" d="M38.8,20.1c0.1-0.7,0.5-1,1.1-0.9c0.6,0.1,0.9,0.6,0.8,1.2c-0.1,0.5-0.5,0.8-1,0.8
			C39.1,21.1,38.8,20.7,38.8,20.1z"/>
		<path class="st184" d="M167,104.2c0,0.6-0.2,1.1-0.9,1.2c-0.7,0.1-1.2-0.2-1.3-1c-0.1-0.6,0.2-1.1,0.9-1.2
			C166.4,103.1,166.9,103.4,167,104.2z"/>
		<path class="st184" d="M44.5,145.4c-0.6,0-1-0.3-1-1c0-0.6,0.4-1,1-1c0.5,0,0.9,0.3,0.9,0.9C45.5,145,45.2,145.4,44.5,145.4z"/>
		<path class="st184" d="M165.6,112.6c0,0.8-0.4,1.2-1,1.2c-0.8,0-1.1-0.4-1.1-1.2c0.1-0.6,0.5-0.9,1.1-0.9
			C165.3,111.8,165.5,112.2,165.6,112.6z"/>
		<path class="st184" d="M53,144.9c0.6,0,1,0.3,1,1c0,0.6-0.3,1-1,1c-0.6,0-1-0.3-1-1C52,145.2,52.3,144.9,53,144.9z"/>
		<path class="st184" d="M160.8,41.5c-0.1,0.7-0.5,1-1.1,1c-0.6,0-1-0.4-1-1c0-0.8,0.5-1.1,1.2-1C160.6,40.5,160.8,40.9,160.8,41.5z
			"/>
		<path class="st184" d="M167.9,51.3c-0.1,0.8-0.5,1.1-1.2,1c-0.6-0.1-0.9-0.6-0.8-1.2c0.1-0.5,0.5-0.8,1-0.8
			C167.6,50.4,167.8,50.9,167.9,51.3z"/>
		<path class="st184" d="M17.6,51.3c0,0.6-0.3,1-1,1c-0.6,0-1-0.4-1-1c0-0.5,0.3-0.9,0.9-0.9C17.2,50.3,17.5,50.7,17.6,51.3z"/>
		<path class="st184" d="M123,148.7c0.7,0.1,1,0.5,0.9,1.1c-0.1,0.6-0.6,0.9-1.2,0.8c-0.5-0.1-0.8-0.5-0.8-1
			C122,148.9,122.4,148.7,123,148.7z"/>
		<path class="st184" d="M13.6,67.3c0.8,0,1.2,0.4,1.2,1c0,0.8-0.4,1.1-1.2,1.1c-0.6,0-0.9-0.5-0.9-1.1
			C12.8,67.7,13.2,67.4,13.6,67.3z"/>
		<path class="st184" d="M17.2,104.3c-0.1,0.6-0.4,1-1,1c-0.8,0-1.1-0.5-1-1.2c0.1-0.7,0.5-0.9,1.1-0.9
			C16.9,103.3,17.2,103.7,17.2,104.3z"/>
		<path class="st184" d="M170.6,77.7c0.8,0.1,1.1,0.4,1.1,1c0,0.8-0.5,1.1-1.2,1c-0.7-0.1-0.9-0.5-0.9-1.1
			C169.7,78,170.1,77.8,170.6,77.7z"/>
		<path class="st184" d="M22.8,122.7c-0.1,0.7-0.4,1-1.1,1c-0.7,0-1-0.5-0.9-1.1c0.1-0.5,0.4-0.8,0.9-0.8
			C22.4,121.7,22.8,122.1,22.8,122.7z"/>
		<path class="st184" d="M172.2,71.3c-0.8-0.1-1.1-0.4-1.1-1.1c0-0.7,0.5-1,1.1-0.9c0.5,0.1,0.8,0.4,0.8,0.9
			C173.1,70.9,172.7,71.2,172.2,71.3z"/>
		<path class="st184" d="M168.2,87.4c0-0.6,0.2-1.1,0.9-1.2c0.7-0.1,1.2,0.2,1.3,1c0.1,0.6-0.2,1.1-0.9,1.2
			C168.8,88.4,168.3,88.1,168.2,87.4z"/>
		<path class="st184" d="M16.2,59.7c0,0.8-0.3,1.1-1,1.2c-0.6,0-1-0.3-1-1c0-0.6,0.3-1,1-1C15.9,58.8,16.1,59.2,16.2,59.7z"/>
		<path class="st184" d="M86.9,3.2c-0.7-0.1-0.9-0.5-0.9-1.1c0.1-0.6,0.6-0.9,1.2-0.8c0.5,0.1,0.8,0.5,0.8,1
			C88,2.9,87.6,3.2,86.9,3.2z"/>
		<path class="st184" d="M153.1,127.3c0.6,0,1.1,0.3,1.1,0.9c0.1,0.7-0.3,1.2-1,1.2c-0.6,0-1-0.3-1.1-0.9
			C152,127.8,152.4,127.4,153.1,127.3z"/>
		<path class="st184" d="M11.5,85.9c-0.1,0.7-0.4,1-1.1,1c-0.7,0-1-0.5-0.9-1.1c0-0.5,0.4-0.8,0.9-0.8
			C11.1,84.9,11.4,85.2,11.5,85.9z"/>
		<path class="st184" d="M94.1,162.9c-0.6,0-1-0.3-1-1c0-0.6,0.4-1,1-1c0.5,0,0.9,0.3,0.9,0.9C95.1,162.5,94.8,162.8,94.1,162.9z"/>
		<path class="st184" d="M29.9,133c-0.1,0.8-0.4,1.1-1.1,1.1c-0.7,0-1-0.5-0.9-1.1c0.1-0.5,0.4-0.8,0.9-0.8
			C29.6,132.1,29.8,132.5,29.9,133z"/>
		<path class="st184" d="M29.5,35.7c0,0.6-0.2,1.1-0.9,1.2c-0.7,0.1-1.2-0.2-1.3-1c-0.1-0.6,0.2-1.1,0.9-1.2
			C28.9,34.6,29.4,34.9,29.5,35.7z"/>
		<path class="st184" d="M168.9,95.8c-0.1,0.9-0.6,1.2-1.3,1.1c-0.6-0.1-0.9-0.5-0.9-1.1c0.1-0.8,0.5-1.1,1.3-1
			C168.6,94.8,168.9,95.2,168.9,95.8z"/>
		<path class="st184" d="M113.9,6.5c-0.1,0.5-0.4,0.9-1,0.8c-0.5-0.1-0.9-0.4-0.8-0.9c0-0.5,0.4-0.9,0.9-0.8
			C113.6,5.7,113.9,6,113.9,6.5z"/>
		<path class="st184" d="M69.5,7.5c-0.1,0.5-0.4,0.9-1,0.8c-0.5-0.1-0.9-0.4-0.8-0.9c0-0.5,0.4-0.9,0.9-0.8
			C69.2,6.6,69.5,7,69.5,7.5z"/>
		<path class="st184" d="M32.1,18.8c-0.1,0.5-0.4,0.8-0.9,0.8c-0.4-0.1-0.7-0.4-0.7-0.8c0-0.5,0.4-0.9,0.9-0.8
			C31.8,18,32.1,18.3,32.1,18.8z"/>
		<path class="st184" d="M14.7,111.9c0.5,0,0.9,0.3,0.9,0.8c0.1,0.6-0.3,1-1,1c-0.5,0-0.8-0.4-0.8-0.9
			C13.9,112.2,14.2,112,14.7,111.9z"/>
		<path class="st184" d="M173.8,114.2c0,0.5-0.3,0.8-0.7,0.8c-0.5,0.1-0.9-0.3-0.9-0.8c0-0.4,0.3-0.7,0.7-0.8
			C173.4,113.3,173.7,113.7,173.8,114.2z"/>
		<path class="st184" d="M7.7,102c0.5,0.1,0.9,0.4,0.8,0.9c-0.1,0.5-0.4,0.9-1,0.8c-0.4-0.1-0.7-0.4-0.7-0.8
			C6.8,102.4,7.2,102.1,7.7,102z"/>
		<path class="st184" d="M7.5,58.6c-0.2,0.4-0.5,0.8-1,0.7c-0.4-0.1-0.7-0.4-0.6-0.9c0.1-0.5,0.5-0.8,1-0.7
			C7.3,57.8,7.5,58.1,7.5,58.6z"/>
		<path class="st184" d="M5.3,67.8c-0.5-0.2-0.9-0.5-0.7-1c0.1-0.4,0.4-0.7,0.8-0.6c0.5,0.1,0.8,0.4,0.7,1C6,67.5,5.7,67.8,5.3,67.8
			z"/>
		<path class="st184" d="M10,94.3c0,0.5-0.3,0.9-0.8,1c-0.6,0.1-1-0.3-1.1-0.9c0-0.5,0.3-0.8,0.8-0.9C9.6,93.4,9.8,93.8,10,94.3z"/>
		<path class="st184" d="M85.7,159.6c0.5,0.1,0.9,0.4,0.9,0.9c0,0.5-0.3,0.9-0.9,0.9c-0.7,0-1-0.4-1-1
			C84.8,159.9,85.1,159.6,85.7,159.6z"/>
		<path class="st184" d="M175.3,52c0.5,0,0.8,0.3,0.9,0.6c0.1,0.5-0.2,0.9-0.7,1c-0.4,0.1-0.8-0.3-0.8-0.6
			C174.5,52.4,174.8,52.1,175.3,52z"/>
		<path class="st184" d="M161.4,33.9c-0.7-0.1-1-0.4-1-0.9c0-0.5,0.3-0.9,0.8-0.9c0.5-0.1,0.9,0.3,0.9,0.8
			C162.2,33.5,161.7,33.6,161.4,33.9z"/>
		<path class="st184" d="M152.7,136.9c0,0.5-0.3,0.9-0.9,0.9c-0.7,0-1-0.4-1-1c0-0.5,0.4-0.8,1-0.8
			C152.4,136,152.6,136.3,152.7,136.9z"/>
		<path class="st184" d="M4.2,75.4c0,0.5-0.3,0.8-0.7,0.8c-0.5,0.1-0.9-0.2-1-0.7c-0.1-0.4,0.3-0.8,0.6-0.8
			C3.8,74.6,4.1,74.9,4.2,75.4z"/>
		<path class="st184" d="M79.3,0.6c0,0.5-0.2,0.8-0.6,1c-0.5,0.2-0.9-0.2-1-0.7C77.6,0.5,78,0.2,78.3,0C78.9-0.1,79.1,0.3,79.3,0.6z
			"/>
		<path class="st184" d="M180,80.2c-0.2,0.5-0.5,0.9-1,0.7c-0.4-0.1-0.7-0.4-0.6-0.8c0.1-0.5,0.4-0.8,1-0.7
			C179.7,79.5,180,79.8,180,80.2z"/>
		<path class="st184" d="M21.3,131c0,0.6-0.3,0.9-0.8,1c-0.5,0.1-0.7-0.3-0.9-0.6c-0.2-0.6,0.2-0.9,0.7-1
			C20.8,130.2,21,130.7,21.3,131z"/>
		<path class="st184" d="M30.8,27.3c-0.1,0.5-0.4,0.9-0.9,0.9c-0.5,0-0.9-0.3-0.9-0.9c0-0.7,0.4-1,1-1
			C30.5,26.4,30.8,26.8,30.8,27.3z"/>
		<path class="st184" d="M27.1,140.8c0.5,0.1,0.8,0.4,0.8,0.9c-0.1,0.4-0.4,0.7-0.8,0.7c-0.5,0-0.9-0.4-0.8-0.9
			C26.3,141.1,26.6,140.8,27.1,140.8z"/>
		<path class="st184" d="M163.1,120.3c0.6,0.1,1,0.4,0.9,1c-0.1,0.7-0.5,1-1.1,0.9c-0.5-0.1-0.8-0.5-0.7-1.1
			C162.3,120.6,162.7,120.4,163.1,120.3z"/>
		<path class="st184" d="M155,22.5c-0.1,0.5-0.4,0.9-0.9,0.8c-0.4,0-0.7-0.3-0.8-0.7c-0.1-0.5,0.3-0.9,0.8-1
			C154.6,21.6,154.9,22.1,155,22.5z"/>
		<path class="st184" d="M36.1,143.9c-0.5,0-0.9-0.3-1-0.8c-0.1-0.6,0.3-1,0.9-1c0.5,0,0.8,0.4,0.9,0.9
			C36.9,143.5,36.6,143.8,36.1,143.9z"/>
		<path class="st184" d="M141.5,144.9c-0.6,0-0.9-0.3-1-0.8c-0.1-0.6,0.2-1.1,0.9-1.1c0.5,0,0.9,0.3,0.9,0.9
			C142.3,144.5,142,144.8,141.5,144.9z"/>
		<path class="st184" d="M174.4,61.3c-0.1,0.5-0.4,0.9-0.9,0.9c-0.6,0-1-0.4-0.9-1.1c0.1-0.5,0.5-0.8,1-0.7
			C174.1,60.5,174.4,60.8,174.4,61.3z"/>
		<path class="st184" d="M162.6,129.8c-0.1,0.5-0.4,0.9-1,0.8c-0.5-0.1-0.9-0.4-0.8-0.9c0-0.5,0.4-0.9,0.9-0.8
			C162.2,129,162.5,129.3,162.6,129.8z"/>
		<path class="st184" d="M177.2,97.1c0,0.5-0.3,0.9-0.8,0.9c-0.5,0.1-0.7-0.3-0.9-0.6c-0.2-0.6,0.2-0.9,0.7-1
			C176.7,96.2,177,96.6,177.2,97.1z"/>
		<path class="st184" d="M177.6,87.8c0.6,0.1,1,0.3,1,0.9c0,0.4-0.3,0.7-0.7,0.8c-0.5,0.2-0.9-0.2-1-0.7
			C176.8,88.3,177.3,88.1,177.6,87.8z"/>
		<path class="st184" d="M174.9,106.6c-0.5-0.2-0.9-0.5-0.8-1c0.1-0.5,0.5-0.8,1-0.7c0.4,0.1,0.7,0.4,0.7,0.8
			C175.7,106.2,175.4,106.5,174.9,106.6z"/>
		<path class="st184" d="M20.8,34.2c-0.1,0.6-0.3,1-0.9,1c-0.4,0-0.7-0.3-0.8-0.7c-0.2-0.5,0.2-0.9,0.7-1
			C20.3,33.4,20.6,33.9,20.8,34.2z"/>
		<path class="st184" d="M13.4,122.1c-0.5,0-0.8-0.3-0.8-0.7c-0.1-0.5,0.3-0.9,0.8-0.9c0.4,0,0.7,0.3,0.8,0.7
			C14.2,121.7,13.8,122,13.4,122.1z"/>
		<path class="st184" d="M18.1,43.8c-0.5,0-0.9-0.3-1-0.8c-0.1-0.6,0.3-1,0.9-1c0.5,0,0.8,0.4,0.9,0.9C19,43.4,18.6,43.7,18.1,43.8z
			"/>
		<path class="st184" d="M169.2,42.7c0,0.6-0.3,0.9-0.8,1c-0.5,0.1-0.7-0.3-0.9-0.6c-0.2-0.6,0.2-0.9,0.7-1
			C168.7,41.9,168.9,42.4,169.2,42.7z"/>
		<path class="st184" d="M113.9,156.8c-0.2,0.5-0.5,0.9-1,0.8c-0.4-0.1-0.8-0.5-0.7-1c0.1-0.4,0.4-0.7,0.9-0.6
			C113.6,156,113.9,156.3,113.9,156.8z"/>
		<path class="st184" d="M78,158.9c0,0.7-0.3,1-0.9,1.1c-0.5,0-0.9-0.3-0.9-0.8c-0.1-0.5,0.3-0.9,0.8-0.9
			C77.6,158.1,77.8,158.6,78,158.9z"/>
		<path class="st184" d="M89.5,95.6c-0.9-0.5-1.9-0.3-2.9-0.4c0.2-0.3,0.3-0.6,0.5-0.9c1.1,0.5,2.2,0.5,3.3,0.5
			C90.1,95.1,89.8,95.4,89.5,95.6z"/>
		<path class="st184" d="M104,86.4c-0.3-0.2-0.6-0.3-0.8-0.5c0.7-1,0.4-2.2,0.5-3.4c0.3,0.2,0.6,0.4,0.9,0.5
			C103.9,84.1,104.1,85.2,104,86.4z"/>
		<path class="st184" d="M101.2,70.7c0-0.1,0-0.2,0-0.3c0.6,0,1.3,0,1.9,0c-0.1,0.3-0.3,0.5-0.4,0.8C102.2,71,101.7,70.8,101.2,70.7
			z"/>
		<path class="st184" d="M105.4,75.4c0,0.6,0,1.3,0,1.9c-0.3-0.1-0.5-0.3-0.8-0.4c0.2-0.5,0.3-1,0.5-1.5
			C105.2,75.4,105.3,75.4,105.4,75.4z"/>
		<path class="st184" d="M97.3,87.7c-1.2,0.7-2.6,1-3.2,2.4c-0.9-0.8-0.8-2.3-2.2-3c1-0.9,2.3-1.1,2.9-2.5
			C95.5,86.1,96.4,86.9,97.3,87.7z"/>
		<path class="st184" d="M87.7,73.8c0.4,1.6,0.9,2.6,1.8,3.3c-1,0.8-2.1,1.1-2.7,2.3c-0.8-1.1-1.4-2.2-2.7-2.8
			C85.5,75.9,86.9,75.5,87.7,73.8z"/>
		<path class="st184" d="M96.3,75.3c0.5,1.7,1.3,2.7,2.5,3.7c-1.3,0.3-2.3,0.8-3,1.8c-0.8-0.9-1.1-2-2.2-2.7
			C94.5,77.2,95.7,76.9,96.3,75.3z"/>
		<path class="st184" d="M94.6,68.9c0,0.3,0,0.6-0.1,0.9c-1-0.6-2.2-0.4-3.3-0.5c0.2-0.1,0.4-0.3,0.6-0.4
			C92.8,68.9,93.7,68.9,94.6,68.9z"/>
	</g>
	<g>
		<polygon class="st185" points="174.4,82.6 157.9,104.4 141.8,126.6 114,128 88.4,138.6 62.8,128 35.1,126.6 18.9,104.4 2.4,82.6 
			18.9,60.9 35.1,38.7 62.8,37.3 88.4,26.7 114,37.3 141.8,38.7 157.9,60.9 		"/>
		<g>
			<path class="st184" d="M172,82.7c-11,14.6-21.9,29.2-32.6,44c1-0.3,1.9-0.7,2.9-1c-9.4,0.5-19.1,0.2-28.4,1.5
				c-4.3,0.6-8.8,3.4-12.7,5c-4.7,1.9-9.4,3.9-14.2,5.8c1.1,0,2.3-0.1,3.4-0.1c-5.3-2.2-10.6-4.4-15.9-6.6c-3.6-1.5-7.7-4-11.7-4.3
				c-6.9-0.4-13.7-0.7-20.6-1.1c-2-0.1-4-0.2-6-0.3c1.5,0.1,1.1,0.4,0.3-0.9c-0.9-1.3-1.9-2.6-2.8-3.8C26.9,111.6,20,102.2,13,93
				c-2.1-2.8-4.2-5.5-6.3-8.3c-0.6-0.8-1.1-1.5-1.7-2.3c-0.2-0.3-0.2,0.2,0.5-0.7c4.2-5.5,8.4-11.1,12.6-16.6
				c6.6-8.7,13-17.6,19.4-26.5c-1,0.3-1.9,0.7-2.9,1c9.4-0.5,19.1-0.2,28.4-1.5c4.3-0.6,8.8-3.4,12.7-5c4.7-1.9,9.4-3.9,14.2-5.8
				c-1.1,0-2.3,0.1-3.4,0.1c8.5,3.5,17.1,7,25.6,10.5c3.2,1.3,8.1,0.6,11.5,0.8c5.6,0.3,11.2,0.6,16.8,0.9c1.1,0.1-1.2-0.9-0.6,0
				c0.4,0.6,0.9,1.2,1.3,1.8c1.8,2.5,3.6,4.9,5.4,7.4c3.1,4.2,6.1,8.4,9.2,12.6c5.4,7.4,11,14.6,16.5,21.8c0.8,1.1,5.4-0.1,4.6-1.1
				c-6-8-12.1-15.8-18-23.9c-4.2-5.8-8.5-11.6-12.7-17.5c-0.8-1.1-1.5-2.9-3.1-3c-2-0.1-4-0.2-6.1-0.3c-6.9-0.4-13.7-0.7-20.6-1.1
				c-1.2-0.1-0.9-0.2-0.3,0.1c-0.7-0.3-1.4-0.6-2.2-0.9c-3.3-1.4-6.7-2.8-10-4.1c-3.2-1.3-6.5-2.7-9.7-4c-1.5-0.6-3.3-1.7-5-1.7
				c-1.7,0.1-3.2,0.9-4.8,1.5c-3.5,1.4-6.9,2.8-10.4,4.3c-4.1,1.7-8.1,3.4-12.2,5c2.5-1,1.1-0.3-0.8-0.2c-2.7,0.1-5.3,0.3-8,0.4
				c-5.2,0.3-10.5,0.5-15.7,0.8c-2.7,0.1-4,0.6-5.6,2.8C21.1,54.6,10.7,68.7,0.1,82.7C0,82.9,0,83.1,0.1,83.2c6,8,12.1,15.8,18,23.9
				c4.2,5.8,8.5,11.6,12.7,17.5c0.8,1.1,1.5,2.9,3.1,3c2,0.1,4,0.2,6.1,0.3c6.9,0.4,13.7,0.7,20.6,1.1c1.2,0.1,0.9,0.2,0.3-0.1
				c0.7,0.3,1.4,0.6,2.2,0.9c3.3,1.4,6.7,2.8,10,4.1c3.2,1.3,6.5,2.7,9.7,4c1.5,0.6,3.3,1.7,5,1.7c1.7-0.1,3.2-0.9,4.8-1.5
				c3.5-1.4,6.9-2.8,10.4-4.3c4.1-1.7,8.1-3.4,12.2-5c-2.5,1-1.1,0.3,0.8,0.2c2.7-0.1,5.3-0.3,8-0.4c5.2-0.3,10.5-0.5,15.7-0.8
				c2.7-0.1,4-0.6,5.6-2.8c10.4-14.2,20.8-28.3,31.4-42.3C177.3,81.8,172.9,81.6,172,82.7z"/>
		</g>
	</g>
	<polygon class="st185" points="174.9,82.1 158.5,103.9 142.3,126 114.6,127.5 89,138 63.3,127.5 35.6,126 19.5,103.9 3,82.1 
		19.5,60.3 35.6,38.1 63.3,36.7 89,26.1 114.6,36.7 142.3,38.1 158.5,60.3 	"/>
	<polygon class="st186" points="89,128.2 67.1,118.1 43,118.7 28.8,99.6 12.8,82.1 28.8,64.6 43,45.5 67.1,46 89,36 110.8,46 
		134.9,45.5 149.1,64.6 165.1,82.1 149.1,99.6 134.9,118.7 110.8,118.1 	"/>
</g>
</svg>
