<?xml version="1.0" encoding="utf-8"?>
<!-- Generator: Adobe Illustrator 23.0.1, SVG Export Plug-In . SVG Version: 6.00 Build 0)  -->
<svg version="1.1" id="Layer_1" xmlns="http://www.w3.org/2000/svg" xmlns:xlink="http://www.w3.org/1999/xlink" x="0px" y="0px"
	 viewBox="0 0 180 178.3" style="enable-background:new 0 0 180 178.3;" xml:space="preserve">
<style type="text/css">
	.st0{fill:#E11B4E;}
	.st1{fill:#EAA820;}
	.st2{fill:none;stroke:#000000;stroke-miterlimit:10;}
	.st3{fill:#EAA820;stroke:#000000;stroke-miterlimit:10;}
	.st4{fill:#FFFFFF;}
	.st5{fill:#0B0B0B;}
	.st6{fill:#222223;}
	.st7{fill:#1C1B1C;}
	.st8{fill:#0E0E0E;}
	.st9{fill:#1A1A1B;}
	.st10{fill:#F1F1F2;}
	.st11{fill:#39383A;}
	.st12{fill:#EDEDEE;}
	.st13{fill:#2E2D2F;}
	.st14{fill:#3F3E40;}
	.st15{fill:#E6E7E8;}
	.st16{fill:#EAEAEB;}
	.st17{fill:#EAEBEC;}
	.st18{fill:#E4E5E6;}
	.st19{fill:#E9EAEB;}
	.st20{fill:#282728;}
	.st21{fill:#424143;}
	.st22{fill:#E6E6E7;}
	.st23{fill:#DDDEE0;}
	.st24{fill:#DDDEDF;}
	.st25{fill:#D8D9DB;}
	.st26{fill:#373738;}
	.st27{fill:#DEDFE1;}
	.st28{fill:#383738;}
	.st29{fill:#171718;}
	.st30{fill:#161616;}
	.st31{fill:#1E1D1E;}
	.st32{fill:#1B1B1C;}
	.st33{fill:#1A191A;}
	.st34{fill:#171617;}
	.st35{fill:#181818;}
	.st36{fill:#161617;}
	.st37{fill:#151516;}
	.st38{fill:#1C1C1D;}
	.st39{fill:#151415;}
	.st40{fill:#121213;}
	.st41{fill:#0F0F10;}
	.st42{fill:#101011;}
	.st43{fill:#141415;}
	.st44{fill:#171717;}
	.st45{fill:#101010;}
	.st46{fill:#111112;}
	.st47{fill:#131314;}
	.st48{fill:#1E1E1F;}
	.st49{fill:#212021;}
	.st50{fill:#232324;}
	.st51{fill:#121112;}
	.st52{fill:#141414;}
	.st53{fill:#262526;}
	.st54{fill:#0E0D0E;}
	.st55{fill:#222222;}
	.st56{fill:#0C0C0D;}
	.st57{fill:#181819;}
	.st58{fill:#1B1A1B;}
	.st59{fill:#1D1D1E;}
	.st60{fill:#0F0F0F;}
	.st61{fill:#131313;}
	.st62{fill:#1F1E1F;}
	.st63{fill:#212122;}
	.st64{fill:#272728;}
	.st65{fill:#2C2B2D;}
	.st66{fill:#2A292A;}
	.st67{fill:#F6F6F7;}
	.st68{fill:#F3F4F4;}
	.st69{fill:#F1F2F2;}
	.st70{fill:#F2F2F3;}
	.st71{fill:#302F31;}
	.st72{fill:#191919;}
	.st73{fill:#323233;}
	.st74{fill:#F5F6F6;}
	.st75{fill:#F0F1F1;}
	.st76{fill:#EFF0F1;}
	.st77{fill:#F5F5F6;}
	.st78{fill:#EFEFF0;}
	.st79{fill:#1C1C1C;}
	.st80{fill:#232223;}
	.st81{fill:#212121;}
	.st82{fill:#F0F1F2;}
	.st83{fill:#3B3A3C;}
	.st84{fill:#343435;}
	.st85{fill:#282829;}
	.st86{fill:#3E3E40;}
	.st87{fill:#F4F5F5;}
	.st88{fill:#EEEFF0;}
	.st89{fill:#48484A;}
	.st90{fill:#3E3D3F;}
	.st91{fill:#464547;}
	.st92{fill:#434345;}
	.st93{fill:#202021;}
	.st94{fill:#151515;}
	.st95{fill:#0D0D0D;}
	.st96{fill:#0B0B0C;}
	.st97{fill:#0B0A0B;}
	.st98{fill:#383739;}
	.st99{fill:#323133;}
	.st100{fill:#2D2D2E;}
	.st101{fill:#242324;}
	.st102{fill:#202020;}
	.st103{fill:#39393A;}
	.st104{fill:#434244;}
	.st105{fill:#474748;}
	.st106{fill:#49494B;}
	.st107{fill:#4F4F51;}
	.st108{fill:#333334;}
	.st109{fill:#242425;}
	.st110{fill:#292829;}
	.st111{fill:#2F2E30;}
	.st112{fill:#363537;}
	.st113{fill:#3D3D3E;}
	.st114{fill:#424244;}
	.st115{fill:#111111;}
	.st116{fill:#414142;}
	.st117{fill:#4D4D4F;}
	.st118{fill:#616264;}
	.st119{fill:#57575A;}
	.st120{fill:#76777A;}
	.st121{fill:#6B6D6F;}
	.st122{fill:#131213;}
	.st123{fill:#F0F0F1;}
	.st124{fill:#F3F3F4;}
	.st125{fill:#E8E9EA;}
	.st126{fill:#ECEDED;}
	.st127{fill:#F5F5F5;}
	.st128{fill:#E7E7E8;}
	.st129{fill:#ECEDEE;}
	.st130{fill:#EBEBEC;}
	.st131{fill:#E8E8E9;}
	.st132{fill:#EEEFEF;}
	.st133{fill:#EFF0F0;}
	.st134{fill:#EBECEC;}
	.st135{fill:#727476;}
	.st136{fill:#6C6D70;}
	.st137{fill:#626366;}
	.st138{fill:#A9ABAD;}
	.st139{fill:#999B9E;}
	.st140{fill:#757779;}
	.st141{fill:#8C8E91;}
	.st142{fill:#848689;}
	.st143{fill:#A7A9AB;}
	.st144{fill:none;}
	.st145{fill:#00BEEC;}
	.st146{fill:#EBAF1F;}
	.st147{clip-path:url(#SVGID_2_);}
	.st148{fill:#F05225;}
	.st149{clip-path:url(#SVGID_4_);}
	.st150{fill:#69CCE7;}
	.st151{fill:#EE2F7A;}
	.st152{fill:none;stroke:#000000;stroke-width:0.5;stroke-linecap:round;stroke-miterlimit:10;}
	.st153{clip-path:url(#SVGID_6_);}
	.st154{clip-path:url(#SVGID_8_);}
	.st155{fill:none;stroke:#000000;stroke-width:4;stroke-miterlimit:10;}
	.st156{clip-path:url(#SVGID_10_);}
	.st157{clip-path:url(#SVGID_12_);}
	.st158{fill:#EBA921;}
	.st159{clip-path:url(#SVGID_14_);}
	.st160{clip-path:url(#SVGID_16_);}
	.st161{clip-path:url(#SVGID_18_);}
	.st162{clip-path:url(#SVGID_20_);}
	.st163{fill:#F16EA1;}
	.st164{clip-path:url(#SVGID_22_);}
	.st165{clip-path:url(#SVGID_24_);}
	.st166{fill:#5ABA47;}
	.st167{fill:#F26522;}
	.st168{fill:#3AC0C7;}
	.st169{fill:#EE4297;}
	.st170{fill:#3B50A3;}
	.st171{fill:#00B9B6;}
	.st172{fill:#FFC214;}
	.st173{clip-path:url(#SVGID_26_);}
	.st174{fill:#FDB92D;}
	.st175{clip-path:url(#SVGID_28_);}
	.st176{fill:#ED1E25;}
	.st177{clip-path:url(#SVGID_30_);}
	.st178{fill:#ED2085;}
	.st179{clip-path:url(#SVGID_32_);}
	.st180{clip-path:url(#SVGID_34_);}
	.st181{fill:#D0DD28;}
	.st182{fill:#E1A225;}
	.st183{fill:#B81F69;}
	.st184{fill:#010101;}
	.st185{fill:#EC2227;}
	.st186{fill:#F26249;}
	.st187{fill:#231F20;}
	.st188{fill:#C4D5DD;}
	.st189{fill:#D5E7F0;}
	.st190{fill:#CC2027;}
	.st191{fill:#9A1E21;}
	.st192{fill:#F26724;}
	.st193{fill:#B92025;}
	.st194{fill:#DCDDDE;}
	.st195{fill:#EAEAEA;}
</style>
<g>
	<g>
		<path class="st178" d="M83.3,74.6c1-0.9,2.1-1.7,3.4-1.8c3.4-0.6,4,2.1,5.1,4.2c0.3,0.9,0.3,1.8-0.1,2.6c-2.2-0.5-2.7,2.2-4.6,2.4
			c-0.9,0.2-1.7-0.2-2.5-0.7C81.7,78.4,81.4,77,83.3,74.6z"/>
		<path class="st178" d="M103.7,98.5c-1,0.9-2.1,1.7-3.5,1.8c-2.4,0.7-3.4-1.1-4.5-2.6c-0.8-1.4,0.1-2.5,0.6-3.7
			c0.9-1.7,2.5-2.4,4.2-3.1c0.9-0.2,1.8-0.3,2.6,0.3c0.2,0.6-0.7,1.1,0.4,1.9C105.4,94.7,105.2,96.4,103.7,98.5z"/>
		<path class="st178" d="M104.9,76.2c1.5,1,2.1,2.4,2.3,4c0.2,3-2.2,3.7-4.2,4.7c-1.1,0.3-2.1,0.4-3.1-0.2c-0.3-1.7,0.7-1.2,1.7-1.1
			c-2.3-0.4-2.7-2.4-3.6-4c-0.3-0.9-0.3-1.8,0.3-2.6c1.8-0.3,0.8,0.9,0.9,1.4C100.3,75.4,102.1,74.6,104.9,76.2z"/>
		<path class="st178" d="M73.9,95.7c-3.3-3.1-2.9-5.5,1.1-7.5c0.3-0.2,0.7-0.3,0.7-0.8c0.7-0.7,1.4-0.7,2.2-0.3
			c-1.1,1.3,0.5,1.2,0.9,1.6c0.6,0.6,1,1.3,1.1,2.2c0.1,1,0.1,1.9-0.1,2.9C77.8,96.9,76.3,97.4,73.9,95.7z"/>
		<path class="st178" d="M93.9,104.9c-3.2,3.5-6.2,2.9-7.6-1.6c-0.1-0.4-0.1-0.8-0.7-0.7c-0.7-0.6-0.6-1.4-0.3-2.2
			c0.7-1.2,0.8,1.3,1.4,0.2c0.6-1,1.4-1.5,2.5-1.7c1.3-0.1,2.5,0,3.7,0.7C95.3,102,95.5,102.7,93.9,104.9z"/>
		<path class="st178" d="M85.6,100.2c0,0.8,0,1.6,0,2.4c-1.6,3.3-4.8,3.7-6.9,0.8c-0.4-0.5-0.3-1.4-1.3-1.3
			c-0.5-0.8-0.1-1.4,0.2-2.1c0.7-1.4,1.7-2.6,3.4-2.8c0.9-0.1,1.9-0.1,2.8,0.1C85.1,97.9,86.4,98.5,85.6,100.2z"/>
		<path class="st178" d="M78.1,87.4c-0.8,0-1.6,0-2.4,0c-1.3-0.2-2.1-1-2.3-2.3c-0.3-0.8-0.6-1.7,0-2.5c0.3-2,2-2.3,3.5-2.8
			c2.6-0.8,3.5,0.9,4.2,2.9c0.1,1,0.1,2-0.1,2.9C80.4,86.8,79.9,88.1,78.1,87.4z"/>
		<path class="st178" d="M76.9,79.2c-2.3-2.3-2.6-4.6-0.8-6.2c1.7-1.6,3.8-1.2,6,1C83.2,78.7,81.4,80.5,76.9,79.2z"/>
		<path class="st178" d="M73.3,82.6c0,0.8,0,1.7,0,2.5c-0.6,0.1-0.1-2.1-1.4-0.7c-1.5,1.6-3.2,1.7-4.9,0.4c-1.3-1-1.6-2.4-1.1-3.9
			c0.5-1.5,1.6-2.4,3.3-2.3c2.2,0.1,3.3,1.3,3.6,3.4C72.9,82.2,73.2,82.4,73.3,82.6z"/>
		<path class="st178" d="M100.2,100.8c2.3,2.3,2.6,4.5,0.9,6.2c-1.7,1.7-3.9,1.4-6.2-0.9C94,101.2,95.6,99.5,100.2,100.8z"/>
		<path class="st178" d="M109.6,94.3c2,1.1,3,2.8,2.1,5.1c-0.7,1.7-2.2,2.3-4.1,2c-1.4-0.2-2.1-1.3-2.8-2.4
			C104.1,95,106,93.1,109.6,94.3z"/>
		<path class="st178" d="M68,86.8c1.7,0.3,3,1.3,3,3.5c0.1,2-1.7,3.7-3.7,3.5c-2.1-0.2-3.3-1.5-3.3-3.7C64,88.2,65.7,86.8,68,86.8z"
			/>
		<path class="st178" d="M107.7,81c0.8-2.2,2.3-3.4,4.6-2.8c1.9,0.5,2.8,2.1,2.4,4.1c-0.3,1.6-1.4,2.4-2.9,2.9
			C108.4,85.7,106.9,84.3,107.7,81z"/>
		<path class="st178" d="M110.7,86.1c3.4,2.6,3.4,4.7,0,7.2c-3.9,0.8-5.4-0.6-5.3-4.7C107.1,85.7,107.9,85.3,110.7,86.1z"/>
		<path class="st178" d="M92.7,111.2c-0.2,2.1-1.2,3.5-3.4,3.6c-2.1,0.1-3.8-1.5-3.7-3.6c0.1-2.2,1.3-3.4,3.5-3.4
			C91.3,107.8,92.4,109.2,92.7,111.2z"/>
		<path class="st178" d="M84.5,109.9c-0.2,1.7-1.2,3-3.4,3.2c-2,0.1-3.7-1.6-3.6-3.6c0.1-2.1,1.4-3.3,3.5-3.4
			C82.9,106,84.4,107.6,84.5,109.9z"/>
		<path class="st178" d="M86.8,72.3c-2-1.1-3.1-2.8-2.1-5.1c0.7-1.7,2.2-2.3,4.1-2c1.4,0.2,2.1,1.3,2.8,2.4
			C92.2,71.8,90.8,73.2,86.8,72.3z"/>
		<path class="st178" d="M92.5,69.3c2.6-3.4,4.7-3.4,7.2,0c0.8,2.5,0.1,4.3-2.5,5.3C93,74.7,91.4,72.9,92.5,69.3z"/>
		<path class="st178" d="M100.7,71c0.7-1.9,1.9-3.2,4.1-2.9c1.7,0.2,2.8,1.3,3,3c0.3,2.2-1,3.4-2.9,4.1
			C101.2,75.6,99.9,74.3,100.7,71z"/>
		<path class="st178" d="M78.1,100.1c-0.2,0.7-0.4,1.4-0.6,2.1c-0.9,1.9-2.5,2-4.1,1.6c-1.3-0.3-2.1-1.3-2.4-2.6
			c-0.4-2.1,0.6-3.5,2.4-4.4C77.2,96.2,78.3,97,78.1,100.1z"/>
		<path class="st178" d="M76.2,108.5c-0.3,2-1.4,3.2-3.4,3.3c-1.8,0.1-3.6-1.8-3.4-3.6c0.3-2,1.5-3.3,3.5-3.2
			C74.9,105.1,76,106.5,76.2,108.5z"/>
		<path class="st178" d="M106.7,102.5c2.1,0.3,3.5,1.4,3.4,3.6c0,2.1-1.3,3.4-3.5,3.4c-2.1,0-3.4-1.3-3.4-3.5
			C103.2,103.9,104.6,102.8,106.7,102.5z"/>
		<path class="st178" d="M83.3,67.7c-0.4,2.1-1.5,3.5-3.7,3.3c-2.1-0.1-3.4-1.5-3.2-3.7c0.1-2,1.5-3.2,3.5-3.2
			C82,64.2,83.1,65.6,83.3,67.7z"/>
		<path class="st178" d="M100.8,112.2c-0.2,2.3-1.3,3.7-3.5,3.7c-2.1,0-3.5-1.3-3.5-3.4c0-2,1.2-3.3,3.2-3.4
			C99.3,108.9,100.4,110.3,100.8,112.2z"/>
		<path class="st178" d="M73.9,74c-0.3,2.1-1.4,3.5-3.5,3.4c-2.1,0-3.4-1.4-3.4-3.5c0.1-2,1.3-3.3,3.3-3.3
			C72.5,70.5,73.6,71.9,73.9,74z"/>
		<path class="st178" d="M66.4,95c2,0.3,3.3,1.4,3.3,3.4c0,2.1-1.3,3.5-3.4,3.4c-2.1,0-3.4-1.4-3.3-3.6C63.1,96.3,64.4,95.3,66.4,95
			z"/>
		<path class="st178" d="M112.5,76.8c-2-0.2-3.2-1.3-3.4-3.3c-0.2-1.8,1.6-3.6,3.4-3.5c2,0.2,3.3,1.4,3.3,3.4
			C115.8,75.4,114.5,76.5,112.5,76.8z"/>
		<path class="st178" d="M121.1,91c-0.3,2-1.4,3.3-3.5,3.3c-2-0.1-3.3-1.4-3.2-3.4c0-2,1.4-3.3,3.4-3.2
			C119.8,87.6,120.9,89,121.1,91z"/>
		<path class="st178" d="M93.1,61.1c-0.2,2-1.3,3.3-3.3,3.4c-2,0-3.3-1.2-3.4-3.2c0-2,1.2-3.3,3.2-3.4
			C91.6,57.8,92.7,59.1,93.1,61.1z"/>
		<path class="st178" d="M101.2,62.3c-0.3,2-1.4,3.3-3.4,3.2c-2,0-3.3-1.4-3.2-3.4c0-2,1.4-3.3,3.4-3.2
			C99.9,59.1,101,60.4,101.2,62.3z"/>
		<path class="st178" d="M71.6,63.2c1.8,0.1,3.1,1.1,3.2,3c0.1,2-1,3.4-3.1,3.4c-2,0.1-3.3-1.2-3.3-3.2
			C68.4,64.5,69.6,63.4,71.6,63.2z"/>
		<path class="st178" d="M108.7,113.7c-0.3,2-1.4,3.3-3.5,3.1c-1.9-0.1-3.1-1.4-3-3.3c0.1-2,1.4-3.2,3.4-3.1
			C107.6,110.6,108.6,111.8,108.7,113.7z"/>
		<path class="st178" d="M119.9,99c-0.2,2-1.3,3.3-3.3,3.3c-2,0-3.3-1.3-3.3-3.3c0-1.9,1.2-3.1,3.1-3.2
			C118.4,95.7,119.5,97,119.9,99z"/>
		<path class="st178" d="M61.2,97.2c-0.1,1.9-1.1,3.1-3.1,3.1c-1.8,0-2.9-1-2.9-2.9c0-2,1-3.1,3-3.1C60.1,94.3,61,95.4,61.2,97.2z"
			/>
		<path class="st178" d="M81.5,62.5c-1.9-0.2-3.1-1.2-3.1-3.1c0-2,1.1-3.1,3.1-3.1c2,0,3.1,1.1,3.1,3.1
			C84.6,61.4,83.4,62.4,81.5,62.5z"/>
		<path class="st178" d="M59.4,92.3c-2.1-0.2-3.2-1.3-3.1-3.2c0.1-2,1.2-3,3.2-3c2,0.1,3,1.2,3,3.2C62.4,91.2,61.1,92.1,59.4,92.3z"
			/>
		<path class="st178" d="M98.6,120.6c-0.1,1.9-1.1,3.1-3.1,3.1c-2,0-3.1-1.1-3-3.1c0-1.8,1-2.9,2.9-3
			C97.3,117.6,98.4,118.6,98.6,120.6z"/>
		<path class="st178" d="M90.5,119c-0.2,1.9-1.2,3.1-3.2,3.1c-2.1,0-3.2-1.3-3.1-3.3c0.1-1.9,1.4-3,3.3-2.9
			C89.4,115.9,90.4,117.1,90.5,119z"/>
		<path class="st178" d="M106,60.3c2,0.2,3.2,1.1,3.2,3.1c0,2.1-1.2,3.3-3.2,3.2c-1.9,0-3-1.2-3-3.2C102.9,61.5,104.1,60.5,106,60.3
			z"/>
		<path class="st178" d="M82.9,117.7c-0.2,2-1.2,3.2-3.2,3.2c-2,0-3.1-1.2-3.1-3.1c0-2,1.2-3.1,3.1-3.1
			C81.8,114.7,82.7,115.9,82.9,117.7z"/>
		<path class="st178" d="M71.6,119.6c-1.9-0.2-3-1.2-3-3.2c0.1-1.8,1.1-2.9,3-2.8c2,0,3,1.1,3,3.1C74.5,118.6,73.4,119.5,71.6,119.6
			z"/>
		<path class="st178" d="M117.9,107.1c-0.1,1.9-1,3.1-3,3.2c-1.9,0.1-3.2-1-3.2-3c-0.1-1.9,1-3.2,3-3.2
			C116.6,104.1,117.7,105.2,117.9,107.1z"/>
		<path class="st178" d="M67.7,106.6c-0.1,1.9-1.1,3.1-3,3.1c-1.9,0-3.1-1-3.1-3c0-1.9,1-3.1,3-3.1
			C66.5,103.6,67.5,104.7,67.7,106.6z"/>
		<path class="st178" d="M117.2,65.2c-0.2,1.9-1.2,3-3,3c-1.8,0-2.9-1.1-2.9-2.9c0-2,1.1-3.1,3.1-3
			C116.3,62.3,117.1,63.5,117.2,65.2z"/>
		<path class="st178" d="M61,77.8c2,0.1,3.2,1.1,3.2,3c0.1,2.1-1.1,3.3-3.2,3.3c-1.9,0-3-1.2-3-3.1C58,79,59.1,78,61,77.8z"/>
		<path class="st178" d="M62.4,75.9c-1.9-0.1-3.1-1-3.2-3c0-2,1-3.1,3-3.1c1.8,0,2.9,1,3,2.8C65.4,74.5,64.4,75.6,62.4,75.9z"/>
		<path class="st178" d="M122.6,82.8c-0.2,1.9-1.2,3.1-3.2,3.1c-2.1,0-3.2-1.3-3.1-3.3c0.1-1.9,1.3-3,3.3-2.9
			C121.5,79.7,122.5,80.9,122.6,82.8z"/>
		<path class="st178" d="M123.6,74.6c-0.2,1.8-1.1,2.9-2.9,2.9c-2,0-3.1-1.1-3-3c0-1.8,1.1-2.9,2.9-2.9
			C122.5,71.6,123.5,72.7,123.6,74.6z"/>
		<path class="st178" d="M76.4,58c-0.2,2-1.1,3.1-3,3.1c-1.8,0-2.9-1.1-2.9-2.9c0-1.8,1.1-2.9,2.9-2.9C75.2,55.3,76.1,56.5,76.4,58z
			"/>
		<path class="st178" d="M67,64.7c-0.3,1.7-1.2,2.9-3,2.8c-1.8,0-2.9-1.1-2.8-3c0-1.8,1.1-2.9,3-2.8C65.9,61.8,66.8,62.9,67,64.7z"
			/>
		<path class="st178" d="M90.9,56c-1.9-0.3-3-1.3-2.9-3.1c0.1-1.8,1.2-2.8,3-2.8c1.8,0.1,2.8,1.2,2.8,3C93.7,54.9,92.5,55.7,90.9,56
			z"/>
		<path class="st178" d="M103.6,118.9c1.8,0.2,2.9,1.1,3,2.9c0,1.8-1,2.9-2.8,3c-1.8,0-2.9-1-3-2.8
			C100.8,120,101.9,119.1,103.6,118.9z"/>
		<path class="st178" d="M99.1,51.2c1.7,0.3,2.9,1.2,2.8,3c0,1.8-1.1,2.9-2.9,2.8c-1.8,0-2.9-1.1-2.8-2.9
			C96.2,52.3,97.3,51.4,99.1,51.2z"/>
		<path class="st178" d="M128.8,92.6c-0.2,1.8-1.1,2.9-2.9,3c-1.8,0-2.9-1-3-2.8c0-1.8,1-2.9,2.8-3
			C127.7,89.7,128.6,90.8,128.8,92.6z"/>
		<path class="st178" d="M127.7,100.9c-0.3,1.8-1.2,2.9-3.1,2.8c-1.7-0.1-2.7-1.1-2.8-2.8c0-1.8,1-2.9,2.9-3
			C126.5,97.9,127.4,99.1,127.7,100.9z"/>
		<path class="st178" d="M116.6,115.4c-0.3,1.9-1.3,3-3.1,2.9c-1.8-0.1-2.9-1.2-2.8-3c0.1-1.8,1.2-2.9,3-2.8
			C115.6,112.5,116.4,113.8,116.6,115.4z"/>
		<path class="st178" d="M92.5,69.3c0.1,3.8,0.9,4.7,4.8,4.8c0.3,0.4,0.3,0.7,0.1,1.1c-2.1,0.1-4.1,0.5-5.9,1.7
			c-1.3-1.6-2-4.1-4.7-4.2c0-0.1,0-0.3,0-0.4c3.8-0.1,4.6-1,4.7-4.7C91.9,68.1,92.2,68.7,92.5,69.3z"/>
		<path class="st178" d="M59.3,105.6c-0.3,1.7-1.3,2.9-3.1,2.7c-1.6-0.1-2.7-1.2-2.6-2.9c0.1-1.8,1.2-2.9,3.1-2.8
			C58.3,102.8,59.2,103.9,59.3,105.6z"/>
		<path class="st178" d="M127,87.4c-1.7-0.3-2.9-1.2-2.8-3c0.1-1.8,1.2-2.9,3-2.8c1.6,0.1,2.7,1.2,2.7,2.8
			C129.9,86.2,128.8,87.2,127,87.4z"/>
		<path class="st178" d="M66.4,115c-0.3,1.7-1.3,2.9-3.1,2.7c-1.6-0.1-2.7-1.2-2.6-2.9c0.1-1.8,1.3-2.9,3.1-2.8
			C65.3,112.1,66.2,113.3,66.4,115z"/>
		<path class="st178" d="M55.8,79.2C55.6,80.9,54.7,82,53,82c-1.8,0-2.9-1.1-2.9-3c0.1-1.6,1.2-2.7,2.9-2.7
			C54.7,76.5,55.6,77.6,55.8,79.2z"/>
		<path class="st178" d="M105.9,88.6c0.1,3.8,0.9,4.7,4.8,4.8c-0.4,0.3-0.8,0.7-1.1,1c-3.8,0.1-4.7,0.9-4.8,4.7
			c-0.4-0.2-0.8-0.4-1.1-0.6c0.9-2.1,0.8-4.1-1.2-5.6c-1.7-1.3,0.9-0.8,0.6-1.4c0.4-1.2,1.3-2,2.1-2.9
			C105.4,88.4,105.7,88.4,105.9,88.6z"/>
		<path class="st178" d="M97.2,128.7c-0.2,1.7-1.1,2.8-2.8,2.9c-1.7,0-2.8-1-2.8-2.7c-0.1-1.7,1-2.8,2.7-2.8
			C96,126,96.9,127.1,97.2,128.7z"/>
		<path class="st178" d="M121.9,63.5c1.6,0.3,2.7,1.2,2.7,2.9c0,1.7-1.1,2.8-2.7,2.8c-1.8,0-2.9-1.1-2.9-2.9
			C119.1,64.6,120.2,63.7,121.9,63.5z"/>
		<path class="st178" d="M125.9,108.4c-0.3,1.7-1.2,2.9-2.9,2.9c-1.8,0-2.9-1.1-2.9-2.9c0.1-1.8,1.3-2.9,3.1-2.7
			C124.8,105.7,125.6,106.9,125.9,108.4z"/>
		<path class="st178" d="M51.3,90.3c-1.6-0.2-2.8-1-2.9-2.7c-0.1-1.8,1-3,2.8-3c1.6,0,2.7,1.1,2.8,2.7C54,89,52.9,89.9,51.3,90.3z"
			/>
		<path class="st178" d="M82.7,54.1c-1.6-0.3-2.8-1.2-2.8-2.8c0-1.8,1.2-3,3-2.9c1.6,0.1,2.7,1.2,2.6,2.9
			C85.5,53,84.3,53.9,82.7,54.1z"/>
		<path class="st178" d="M110.1,55.8c-0.2,1.7-1.1,2.9-2.9,2.9c-1.8,0-2.9-1.1-2.9-2.9c0-1.6,1.1-2.7,2.7-2.8
			C108.9,52.9,109.8,54.1,110.1,55.8z"/>
		<path class="st178" d="M86.3,130c-1.7-0.2-2.9-1.1-2.9-2.9c0-1.6,1.1-2.7,2.7-2.8c1.8-0.1,2.9,1.1,2.9,2.8
			C89,128.8,87.9,129.7,86.3,130z"/>
		<path class="st178" d="M80.9,126c-0.3,1.6-1.2,2.8-2.9,2.7c-1.8-0.1-2.9-1.2-2.7-3.1c0.1-1.6,1.3-2.7,3-2.5
			C79.9,123.2,80.7,124.4,80.9,126z"/>
		<path class="st178" d="M105.9,88.6l-0.2,0l-0.2,0c-1-1.3-1.7-2.6-2.5-4.1c1.3-1.4,3.7-1.9,4.1-4.2c0.2,0.2,0.4,0.5,0.5,0.7
			c0.1,2.7,1.4,4.1,4.2,4.2c-0.4,0.3-0.8,0.6-1.1,1C108.6,85.9,106.9,86.5,105.9,88.6z"/>
		<path class="st178" d="M97.3,75.2c0-0.4,0-0.7,0-1.1c2-1,2.7-2.6,2.4-4.8c0.3,0.6,0.6,1.1,1,1.7c0.1,2.7,1.4,4.1,4.2,4.2
			c0,0.3,0,0.7,0,1c-2.5-0.7-4.4-0.1-5.5,2.5c-0.3-0.6-0.6-1.2-0.9-1.8C97.6,76.6,97,76.2,97.3,75.2z"/>
		<path class="st178" d="M77.2,50.1c-0.3,1.8-1.2,2.7-2.9,2.6c-1.6-0.1-2.5-1.2-2.4-2.7c0.1-1.7,1.2-2.6,2.9-2.5
			C76.3,47.6,77.1,48.6,77.2,50.1z"/>
		<path class="st178" d="M52.8,95.6c-0.2,1.6-1.1,2.8-2.8,2.7c-1.7,0-2.7-1.1-2.7-2.8c0-1.5,1.1-2.6,2.6-2.6
			C51.6,92.8,52.5,93.9,52.8,95.6z"/>
		<path class="st178" d="M124.5,116.6c-0.2,1.7-1.2,2.7-2.8,2.6c-1.5-0.1-2.5-1.1-2.5-2.7c0-1.7,1.1-2.7,2.8-2.6
			C123.5,114,124.3,115.1,124.5,116.6z"/>
		<path class="st178" d="M118.2,57.1c-0.3,1.7-1.2,2.7-2.9,2.7c-1.6,0-2.7-1.2-2.7-2.8c0-1.6,1.2-2.7,2.8-2.7
			C117.1,54.4,118,55.5,118.2,57.1z"/>
		<path class="st178" d="M67.9,56.5c-0.3,1.7-1.3,2.8-2.9,2.6c-1.6-0.1-2.7-1.3-2.5-3c0.1-1.5,1.2-2.5,2.7-2.4
			C66.9,53.8,67.8,54.9,67.9,56.5z"/>
		<path class="st178" d="M102.5,132.6c-1.7-0.2-2.6-1.1-2.6-2.7c0.1-1.7,1.1-2.6,2.9-2.5c1.6,0.1,2.4,1.2,2.3,2.8
			C105,131.8,104,132.6,102.5,132.6z"/>
		<path class="st178" d="M57.9,113.7c-0.2,1.7-1.1,2.6-2.7,2.6c-1.7-0.1-2.6-1.1-2.5-2.9c0.1-1.6,1.2-2.4,2.8-2.3
			C57.1,111.2,57.8,112.2,57.9,113.7z"/>
		<path class="st178" d="M128.8,73.5c1.6,0.2,2.7,1.1,2.8,2.7c0,1.7-1,2.8-2.7,2.8c-1.7,0-2.8-1-2.8-2.7
			C126,74.7,127.1,73.8,128.8,73.5z"/>
		<path class="st178" d="M114.7,123.6c-0.3,1.7-1.2,2.7-2.9,2.7c-1.6-0.1-2.7-1.2-2.7-2.8c0-1.6,1.2-2.7,2.8-2.7
			C113.6,120.9,114.5,122,114.7,123.6z"/>
		<path class="st178" d="M54.2,74.5c-1.7-0.2-2.8-1.1-2.8-2.7c0-1.7,1-2.8,2.7-2.8c1.7,0,2.8,1,2.8,2.7
			C56.9,73.2,55.8,74.2,54.2,74.5z"/>
		<path class="st178" d="M69.8,127c-1.7-0.3-2.7-1.2-2.7-2.9c0-1.6,1.2-2.7,2.8-2.7c1.6,0,2.7,1.2,2.7,2.8
			C72.5,125.9,71.4,126.8,69.8,127z"/>
		<path class="st178" d="M76.9,79.2c4.4,0.4,5.7-0.9,5.2-5.2c0.4,0.2,0.8,0.4,1.2,0.6c-1.5,2.6,0.1,4.4,1.5,6.3
			c-1,1-2.3,1.4-3.4,2.1c-0.4,0.1-0.8,0-1.1-0.4c-0.4-1.9-2-2.3-3.6-2.8C76.9,79.6,76.9,79.4,76.9,79.2z"/>
		<path class="st178" d="M137.7,85.7c-0.2,1.6-1,2.5-2.6,2.4c-1.5-0.1-2.3-0.9-2.3-2.4c0-1.6,0.8-2.5,2.5-2.5
			C136.8,83.2,137.6,84.1,137.7,85.7z"/>
		<path class="st178" d="M132.5,68.2c-0.2,1.6-1.1,2.5-2.7,2.4c-1.5-0.1-2.3-1-2.3-2.4c0-1.6,0.9-2.5,2.5-2.5
			C131.6,65.7,132.4,66.7,132.5,68.2z"/>
		<path class="st178" d="M132.3,99.4c1.6,0.1,2.5,0.9,2.5,2.5c0,1.6-0.9,2.5-2.5,2.6c-1.6,0-2.5-0.9-2.6-2.5
			C129.8,100.4,130.7,99.6,132.3,99.4z"/>
		<path class="st178" d="M95.2,44.7c-0.1,1.7-1,2.6-2.6,2.6c-1.6,0-2.5-1-2.4-2.6c0.1-1.5,0.9-2.3,2.4-2.4
			C94.2,42.3,95,43.2,95.2,44.7z"/>
		<path class="st178" d="M134,91.3c1.6,0.1,2.5,0.9,2.5,2.5c0,1.6-0.9,2.5-2.5,2.5c-1.6,0-2.5-0.9-2.5-2.5
			C131.5,92.3,132.4,91.4,134,91.3z"/>
		<path class="st178" d="M64.2,122.9c-0.1,1.6-0.9,2.5-2.5,2.5c-1.6,0-2.5-0.9-2.5-2.5c0-1.5,0.9-2.3,2.3-2.4
			C63.1,120.5,64,121.3,64.2,122.9z"/>
		<path class="st178" d="M55.8,66.1c-1.6-0.1-2.6-1-2.5-2.6c0-1.6,1-2.5,2.6-2.5c1.6,0,2.5,1,2.5,2.6C58.4,65.1,57.4,65.9,55.8,66.1
			z"/>
		<path class="st178" d="M100.8,48.5c-1.6-0.1-2.5-1-2.5-2.6c0.1-1.6,1.1-2.5,2.7-2.4c1.5,0.1,2.3,1,2.3,2.5
			C103.3,47.6,102.4,48.4,100.8,48.5z"/>
		<path class="st178" d="M108.9,50.2c-1.5-0.1-2.4-0.9-2.4-2.4c0-1.6,0.8-2.6,2.5-2.6c1.7,0,2.5,1,2.4,2.6
			C111.3,49.4,110.4,50.1,108.9,50.2z"/>
		<path class="st178" d="M48.3,106.3c-1.7-0.2-2.6-1.1-2.5-2.7c0.1-1.5,0.9-2.3,2.4-2.3c1.6,0,2.5,0.9,2.5,2.5
			C50.8,105.4,49.8,106.1,48.3,106.3z"/>
		<path class="st178" d="M126,58.2c-0.1,1.6-0.9,2.5-2.6,2.4c-1.5,0-2.3-0.9-2.3-2.4c0-1.6,0.9-2.5,2.6-2.5
			C125.2,55.8,125.9,56.7,126,58.2z"/>
		<path class="st178" d="M100.2,100.8c-4.4-0.5-5.8,0.9-5.3,5.3c-0.3-0.4-0.7-0.8-1-1.1c0.7-1.9,0.4-3.5-1.2-4.8
			c-0.4-0.3-0.5-0.7-0.3-1.1c1.2-0.7,2.1-1.9,3.7-1.7c1,1.5,2.2,2.7,4.1,2.9C100.2,100.5,100.2,100.6,100.2,100.8z"/>
		<path class="st178" d="M116.4,46.5c1.5,0.1,2.4,0.8,2.5,2.3c0.1,1.5-0.7,2.4-2.2,2.5c-1.5,0.1-2.4-0.7-2.5-2.2
			C114.1,47.5,115,46.7,116.4,46.5z"/>
		<path class="st178" d="M86.9,42.9c-0.2,1.6-0.9,2.5-2.4,2.5c-1.7,0-2.5-1-2.4-2.6c0.1-1.5,1-2.3,2.5-2.2
			C86.1,40.7,86.8,41.7,86.9,42.9z"/>
		<path class="st178" d="M132.3,118.3c-0.2,1.5-0.9,2.4-2.4,2.4c-1.5,0-2.3-0.9-2.3-2.4c0-1.3,0.9-2.2,2.2-2.2
			C131.4,116,132.1,116.9,132.3,118.3z"/>
		<path class="st178" d="M57.4,57.7c-1.8-0.1-2.7-0.8-2.8-2.3c-0.1-1.5,0.7-2.4,2.2-2.5c1.5-0.1,2.4,0.7,2.5,2.2
			C59.5,56.7,58.5,57.4,57.4,57.7z"/>
		<path class="st178" d="M61.1,47.1c-0.2,1.4-1,2.3-2.3,2.3c-1.3,0-2.2-0.8-2.3-2.2c0-1.5,0.9-2.4,2.4-2.3
			C60.2,44.9,60.9,45.9,61.1,47.1z"/>
		<path class="st178" d="M63.9,48.3c0.1-1.5,0.8-2.4,2.3-2.4c1.6,0,2.5,0.9,2.5,2.5c-0.1,1.5-0.9,2.3-2.4,2.3
			C64.8,50.7,64.1,49.8,63.9,48.3z"/>
		<path class="st178" d="M127,50.7c-0.2,1.3-0.9,2.2-2.2,2.2c-1.5,0-2.4-0.9-2.3-2.3c0-1.4,1-2.3,2.5-2.2
			C126.2,48.5,126.9,49.4,127,50.7z"/>
		<path class="st178" d="M47.1,109.5c1.4,0.2,2.3,0.9,2.3,2.4c0,1.5-0.9,2.3-2.3,2.3c-1.5,0-2.3-0.9-2.3-2.3
			C44.8,110.4,45.7,109.7,47.1,109.5z"/>
		<path class="st178" d="M131.1,112.6c-1.6-0.1-2.5-1-2.4-2.6c0.1-1.5,1-2.3,2.4-2.3c1.6,0,2.5,1,2.4,2.6
			C133.5,111.8,132.6,112.5,131.1,112.6z"/>
		<path class="st178" d="M100.8,140.5c-1.4-0.2-2.4-1-2.3-2.4c0.1-1.5,1-2.3,2.5-2.2c1.3,0.1,2.1,0.9,2.2,2.2
			C103.1,139.6,102.2,140.3,100.8,140.5z"/>
		<path class="st178" d="M45.4,86.1c-0.1,1.5-0.8,2.5-2.3,2.5c-1.5,0.1-2.4-0.7-2.5-2.2c-0.1-1.5,0.7-2.4,2.2-2.5
			C44.4,83.8,45.2,84.6,45.4,86.1z"/>
		<path class="st178" d="M92.3,134.6c1.7,0.1,2.6,0.9,2.7,2.4c0,1.5-0.8,2.4-2.3,2.4c-1.5,0-2.3-0.8-2.4-2.3
			C90.2,135.5,91.2,134.9,92.3,134.6z"/>
		<path class="st178" d="M134.1,60.1c-0.2,1.3-0.9,2.2-2.3,2.2c-1.5,0-2.4-0.9-2.4-2.4c0-1.5,1-2.3,2.5-2.2
			C133.3,57.8,134,58.7,134.1,60.1z"/>
		<path class="st178" d="M47.7,64.1c-1.4-0.2-2.4-1-2.3-2.5c0.1-1.3,0.9-2.2,2.3-2.2c1.5,0,2.4,0.9,2.3,2.4
			C49.9,63.2,49,63.9,47.7,64.1z"/>
		<path class="st178" d="M87.5,135.2c-0.1,1.5-0.8,2.4-2.3,2.4c-1.6,0-2.5-0.9-2.5-2.5c0.1-1.5,1-2.3,2.4-2.3
			C86.6,132.9,87.3,133.8,87.5,135.2z"/>
		<path class="st178" d="M79.3,134.1c-0.1,1.5-0.8,2.4-2.3,2.4c-1.6,0-2.5-0.9-2.5-2.5c0.1-1.5,1-2.3,2.4-2.2
			C78.4,131.7,79.1,132.6,79.3,134.1z"/>
		<path class="st178" d="M121.2,132.8c-0.1,1.3-0.8,2.3-2.1,2.4c-1.5,0.1-2.4-0.8-2.5-2.2c0-1.3,0.8-2.2,2.2-2.2
			C120.2,130.6,120.9,131.5,121.2,132.8z"/>
		<path class="st178" d="M68.6,130c1.5,0.1,2.4,0.8,2.4,2.3c0,1.5-0.8,2.4-2.3,2.4c-1.5,0-2.4-0.8-2.4-2.3
			C66.3,130.9,67.2,130.1,68.6,130z"/>
		<path class="st178" d="M110.5,129.3c1.7,0.1,2.6,0.9,2.6,2.4c0,1.5-0.8,2.4-2.3,2.4c-1.5,0-2.3-0.8-2.4-2.3
			C108.3,130.2,109.3,129.6,110.5,129.3z"/>
		<path class="st178" d="M122.5,124.6c-0.1,1.5-0.7,2.4-2.2,2.5c-1.6,0.1-2.6-0.8-2.6-2.4c0-1.5,0.9-2.3,2.3-2.4
			C121.5,122.3,122.3,123.2,122.5,124.6z"/>
		<path class="st178" d="M140.4,69.2c-0.1,1.3-0.8,2.3-2.1,2.4c-1.5,0.1-2.4-0.8-2.4-2.3c0-1.3,0.9-2.2,2.2-2.2
			C139.5,67,140.2,67.9,140.4,69.2z"/>
		<path class="st178" d="M62.8,131.3c-0.2,1.3-0.9,2.2-2.3,2.2c-1.5,0-2.4-0.9-2.3-2.3c0.1-1.4,1-2.3,2.5-2.2
			C62,129,62.7,129.9,62.8,131.3z"/>
		<path class="st178" d="M48.3,70c-0.2,1.4-0.9,2.3-2.4,2.3c-1.5,0-2.3-0.9-2.3-2.4c0-1.5,0.9-2.3,2.4-2.3
			C47.5,67.6,48.2,68.5,48.3,70z"/>
		<path class="st178" d="M140.6,105.5c-1.3-0.1-2.3-0.8-2.4-2.1c-0.1-1.5,0.8-2.4,2.3-2.4c1.3,0,2.2,0.9,2.2,2.2
			C142.8,104.5,141.9,105.2,140.6,105.5z"/>
		<path class="st178" d="M40.2,100.3c1.3,0.2,2.2,1,2.2,2.3c0,1.3-0.9,2.2-2.2,2.2c-1.5,0-2.4-0.9-2.3-2.4
			C37.9,101.1,38.8,100.4,40.2,100.3z"/>
		<path class="st178" d="M139.4,77.5c-0.2,1.6-1,2.4-2.5,2.4c-1.5-0.1-2.3-1-2.2-2.5c0.1-1.5,1-2.3,2.5-2.2
			C138.6,75.2,139.2,76.2,139.4,77.5z"/>
		<path class="st178" d="M143.5,89.7c-1.3-0.1-2.2-0.8-2.3-2.1c-0.1-1.5,0.8-2.4,2.3-2.4c1.3,0,2.2,0.9,2.2,2.2
			C145.6,88.7,144.8,89.4,143.5,89.7z"/>
		<path class="st178" d="M41.6,92c1.7,0.2,2.6,0.9,2.6,2.4c0,1.5-0.8,2.3-2.3,2.3c-1.5,0-2.3-0.8-2.3-2.3
			C39.5,92.9,40.5,92.3,41.6,92z"/>
		<path class="st178" d="M53.5,124.2c-1.5-0.2-2.4-0.9-2.3-2.5c0.1-1.5,1-2.3,2.5-2.2c1.3,0.1,2.1,0.9,2.2,2.3
			C55.9,123.3,55,124,53.5,124.2z"/>
		<path class="st178" d="M142.2,93.3c1.4,0.3,2.3,1,2.3,2.3c0,1.3-0.9,2.2-2.2,2.2c-1.5,0-2.4-0.9-2.3-2.4
			C140,94.1,141,93.5,142.2,93.3z"/>
		<path class="st178" d="M96.1,36.7c-0.3,1.3-1,2.2-2.3,2.1c-1.3,0-2.2-0.9-2.2-2.2c0-1.5,1-2.4,2.4-2.3
			C95.3,34.5,96,35.4,96.1,36.7z"/>
		<path class="st178" d="M104.3,37.7c-0.3,1.4-1,2.3-2.3,2.3c-1.3,0-2.2-0.9-2.2-2.2c0-1.5,0.9-2.4,2.4-2.3
			C103.4,35.6,104.1,36.6,104.3,37.7z"/>
		<path class="st178" d="M47.2,78.2c-0.2,1.4-0.9,2.3-2.4,2.3c-1.6,0-2.5-1-2.3-2.6c0.1-1.5,1.1-2.2,2.5-2.1
			C46.4,75.8,47.1,76.7,47.2,78.2z"/>
		<path class="st178" d="M76.2,39.5c1.5,0.2,2.4,0.9,2.4,2.4c0,1.5-0.9,2.3-2.4,2.3c-1.3,0-2.2-0.9-2.2-2.2
			C73.9,40.5,74.8,39.7,76.2,39.5z"/>
		<path class="st178" d="M78.1,100.1c-0.3-3-2.2-3.6-4.7-3.4c0.2-0.3,0.4-0.6,0.6-1c2.2,0.7,4,0.1,5.3-1.8c0.2-0.2,0.4-0.3,0.7-0.1
			c0.8,0.9,1.3,1.9,1.8,3c0.1,0.6-0.3,0.9-0.9,1.1C79.5,98,79,99.3,78.1,100.1z"/>
		<path class="st178" d="M91.4,147.3c-1.3-0.2-2.1-0.9-2-2.1c0-1.4,0.9-2.2,2.3-2c1.2,0.1,1.9,1,1.8,2.2
			C93.4,146.5,92.6,147.2,91.4,147.3z"/>
		<path class="st178" d="M145.2,77.1c1.3,0.2,2.1,1,2.1,2.2c-0.1,1.3-1,2.2-2.3,2c-1.2-0.1-1.9-1-1.8-2.2
			C143.2,77.8,144.1,77.2,145.2,77.1z"/>
		<path class="st178" d="M83.3,145.6c-1.3-0.2-2.2-0.9-2.2-2.2c0-1.3,0.9-2.2,2.2-2.2c1.2,0,2,0.9,2.1,2
			C85.5,144.6,84.7,145.4,83.3,145.6z"/>
		<path class="st178" d="M77.2,142.3c-0.3,1.3-1,2.2-2.4,2c-1.2-0.1-1.9-1-1.8-2.2c0.1-1.3,1-2.1,2.3-2
			C76.5,140.3,77.2,141.2,77.2,142.3z"/>
		<path class="st178" d="M85.7,37.1c-1.3-0.2-2.2-0.9-2.3-2.2c0-1.3,0.8-2.2,2.1-2.3c1.3-0.1,2.2,0.8,2.3,2.1
			C87.9,36.1,86.9,36.8,85.7,37.1z"/>
		<path class="st178" d="M45.4,122.3c-1.4-0.3-2.3-1.1-2.2-2.4c0.1-1.3,1.1-2.1,2.4-2c1.2,0.1,2,1,1.9,2.2
			C47.5,121.5,46.5,122.1,45.4,122.3z"/>
		<path class="st178" d="M111.2,139.9c-0.3,1.4-1,2.3-2.3,2.2c-1.3-0.1-2.2-0.9-2.1-2.3c0.1-1.3,0.9-2.1,2.3-2.1
			C110.4,137.8,111,138.7,111.2,139.9z"/>
		<path class="st178" d="M120.4,40.7c-0.2,1.3-0.9,2.1-2.1,2c-1.4,0-2.2-0.9-2.1-2.3c0.1-1.2,1-2,2.2-1.9
			C119.6,38.7,120.3,39.6,120.4,40.7z"/>
		<path class="st178" d="M36.9,84.4c-0.1,1.2-0.8,2-2,2.1c-1.2,0.1-2.1-0.7-2.2-1.9c-0.1-1.4,0.7-2.2,2.1-2.2
			C36.1,82.4,36.8,83.2,36.9,84.4z"/>
		<path class="st178" d="M48.9,55.8c-1.3-0.2-2.2-0.9-2.2-2.3c0-1.3,1-2.2,2.3-2.1c1.2,0.1,2,0.9,2,2.1C51,54.8,50.2,55.6,48.9,55.8
			z"/>
		<path class="st178" d="M112.4,39.5c-0.2,1.3-0.9,2.2-2.2,2.3c-1.3,0-2.2-0.8-2.3-2.1c-0.1-1.3,0.8-2.2,2.1-2.3
			C111.4,37.3,112.1,38.2,112.4,39.5z"/>
		<path class="st178" d="M38.7,76.9c-0.2,1.4-1,2.2-2.3,2.1c-1.2-0.1-2-0.9-1.9-2.1c0.1-1.3,1-2.1,2.3-2
			C38,74.9,38.6,75.7,38.7,76.9z"/>
		<path class="st178" d="M54.5,129.4c-0.1,1.2-0.7,2-1.9,2.1c-1.3,0.1-2.2-0.7-2.3-2c-0.1-1.2,0.7-2.1,1.9-2.2
			C53.5,127.2,54.2,128,54.5,129.4z"/>
		<path class="st178" d="M139.2,109.1c1.4,0.3,2.3,1,2.3,2.3c-0.1,1.3-0.9,2.2-2.3,2.1c-1.3-0.1-2.2-0.9-2.1-2.3
			C137.1,109.9,138.1,109.3,139.2,109.1z"/>
		<path class="st178" d="M130.5,126.5c-0.3,1.4-1,2.3-2.4,2.3c-1.3-0.1-2.2-0.9-2.1-2.3c0.1-1.3,0.9-2.2,2.3-2.1
			C129.6,124.3,130.3,125.3,130.5,126.5z"/>
		<path class="st178" d="M68.2,42.4c-1.3-0.2-2.2-0.9-2.3-2.2c0-1.3,0.8-2.2,2.1-2.3c1.3-0.1,2.2,0.8,2.3,2.1
			C70.4,41.4,69.5,42.1,68.2,42.4z"/>
		<path class="st178" d="M39.9,68.7c-0.2,1.3-0.9,2.1-2.1,2.1c-1.4,0-2.2-0.9-2.1-2.3c0.1-1.2,1-1.9,2.2-1.9
			C39.1,66.7,39.7,67.6,39.9,68.7z"/>
		<path class="st178" d="M41,110.8c-0.2,1.2-0.8,2-2.1,2c-1.4,0-2.2-0.9-2.1-2.2c0.1-1.2,0.9-2,2.2-1.9
			C40.2,108.7,40.9,109.5,41,110.8z"/>
		<path class="st178" d="M119.1,141c0,1.2-0.7,2-2,2c-1.1,0-1.8-0.7-1.9-1.8c0-1.3,0.6-2,1.9-2C118.3,139.2,118.9,139.9,119.1,141z"
			/>
		<path class="st178" d="M64.9,140.5c0.1-1.2,0.8-2,2-2c1.2,0,2,0.8,2,2c0,1.2-0.8,2-2,2C65.7,142.5,65,141.7,64.9,140.5z"/>
		<path class="st178" d="M58.8,137.5c1.1,0,1.8,0.6,1.9,1.7c0.1,1.2-0.5,2-1.8,2c-1.3,0-1.9-0.7-1.9-2
			C56.9,138.1,57.6,137.5,58.8,137.5z"/>
		<path class="st178" d="M52.4,137.6c-0.1,1.2-0.8,1.8-1.9,1.7c-1.2-0.1-1.7-0.8-1.6-2c0.1-1,0.7-1.6,1.7-1.6
			C51.8,135.8,52.3,136.5,52.4,137.6z"/>
		<path class="st178" d="M126.9,136.6c-1.1-0.1-1.8-0.7-1.8-1.9c0-1.3,0.7-2,2-1.9c1.3,0.1,1.9,0.9,1.8,2.2
			C128.8,136.1,128.1,136.6,126.9,136.6z"/>
		<path class="st178" d="M153.4,88.4c-0.1,1.3-0.7,2-1.9,1.9c-1.2,0-1.8-0.7-1.8-1.9c0-1.2,0.7-1.8,1.9-1.8
			C152.8,86.8,153.3,87.5,153.4,88.4z"/>
		<path class="st178" d="M46,128.3c-0.1,1.1-0.6,1.8-1.8,1.8c-1.3,0-1.9-0.7-1.9-2c0.1-1.2,0.8-1.7,1.9-1.7
			C45.4,126.5,46,127.1,46,128.3z"/>
		<path class="st178" d="M33.7,90.6c1.2,0.2,2,0.9,1.9,2.1c0,1.2-0.8,2-2.1,1.9c-1.2,0-2-0.8-1.9-2.1C31.7,91.3,32.5,90.7,33.7,90.6
			z"/>
		<path class="st178" d="M133,53.8c-1.3-0.1-2.1-0.7-2.1-1.9c0-1.2,0.7-2,1.9-2.1c1.2,0,2,0.7,2.1,1.9C134.9,53,134.2,53.6,133,53.8
			z"/>
		<path class="st178" d="M40.7,50.6c1.2,0.1,1.8,0.7,1.8,1.9c0,1.2-0.7,1.8-1.8,1.8c-1.2,0-1.8-0.7-1.8-1.8
			C38.9,51.2,39.6,50.6,40.7,50.6z"/>
		<path class="st178" d="M135,134.1c1.3,0.1,2,0.6,2,1.8c0,1-0.6,1.7-1.6,1.7c-1.1,0.1-1.8-0.6-1.9-1.7
			C133.5,134.8,134.2,134.3,135,134.1z"/>
		<path class="st178" d="M69.1,30.1c1.3,0.1,2,0.6,2,1.8c0,1.3-0.7,1.9-2,1.9c-1.2-0.1-1.7-0.8-1.7-1.9
			C67.5,30.7,68.2,30.2,69.1,30.1z"/>
		<path class="st178" d="M140.9,51.2c1.3,0.1,1.9,0.7,1.9,1.9c0,1.1-0.7,1.8-1.8,1.7c-1.1,0-1.8-0.7-1.7-1.8
			C139.3,51.8,140,51.3,140.9,51.2z"/>
		<path class="st178" d="M140.2,119.5c-0.1,1.2-0.8,2-2,2c-1.2,0-2-0.7-2-2c0-1.2,0.7-2,2-2C139.3,117.5,140,118.3,140.2,119.5z"/>
		<path class="st178" d="M31.8,102.7c-1.3-0.1-1.9-0.9-1.7-2.1c0.1-1.1,0.8-1.7,2-1.6c1.3,0.1,1.9,0.9,1.7,2.1
			C33.7,102.2,32.9,102.7,31.8,102.7z"/>
		<path class="st178" d="M61.9,38.9c0,1.2-0.7,2-2,2c-1.1,0-1.8-0.7-1.9-1.8c0-1.3,0.6-2,1.9-2C61.1,37.1,61.7,37.7,61.9,38.9z"/>
		<path class="st178" d="M126.5,44.4c-1.2-0.1-1.9-0.7-1.9-2c0-1.1,0.7-1.8,1.8-1.8c1.3,0,2,0.7,1.9,2
			C128.3,43.7,127.6,44.3,126.5,44.4z"/>
		<path class="st178" d="M153.4,82.2c-1.3-0.2-1.9-0.8-1.8-2c0.1-1.1,0.9-1.7,2-1.6c1,0.1,1.5,0.8,1.5,1.8
			C155.1,81.6,154.3,82.1,153.4,82.2z"/>
		<path class="st178" d="M39.4,62.5c-1.1-0.1-1.8-0.7-1.8-1.9c0-1.3,0.7-2,2-1.9c1.3,0.1,1.9,0.9,1.8,2.2
			C41.3,61.9,40.5,62.5,39.4,62.5z"/>
		<path class="st178" d="M39,118.7c0,1.3-0.6,2-1.8,2c-1.2,0-1.8-0.6-1.9-1.8c0-1.2,0.6-1.8,1.8-1.9C38.3,117.1,38.9,117.7,39,118.7
			z"/>
		<path class="st178" d="M137.9,61.1c0.1-1.2,0.8-2,2-2c1.2,0,2,0.8,2,2c0,1.2-0.8,2-2,2C138.6,63.1,138,62.3,137.9,61.1z"/>
		<path class="st178" d="M53.5,37.4c-0.2,1.1-0.9,1.7-2,1.5c-1-0.1-1.6-0.8-1.5-1.8c0.1-1.1,0.9-1.8,2-1.6
			C53,35.6,53.5,36.3,53.5,37.4z"/>
		<path class="st178" d="M121.3,32.5c-0.1,1.1-0.7,1.8-1.8,1.8c-1.1,0-1.8-0.7-1.7-1.9c0.1-1,0.7-1.6,1.7-1.6
			C120.5,30.7,121.1,31.4,121.3,32.5z"/>
		<path class="st178" d="M150.5,104.9c-0.1,1.3-0.7,1.9-1.9,1.9c-1.3,0-1.9-0.8-1.8-2.1c0.1-1.1,0.9-1.7,2-1.6
			C150,103.2,150.4,103.9,150.5,104.9z"/>
		<path class="st178" d="M136.5,43.6c-0.2,1.3-0.8,1.9-2,1.8c-1.1-0.1-1.7-0.9-1.6-2c0.1-1,0.8-1.5,1.8-1.5
			C135.8,41.9,136.3,42.7,136.5,43.6z"/>
		<path class="st178" d="M152.2,96.7c0,1.1-0.6,1.8-1.7,1.8c-1.3,0-2-0.7-1.9-1.9c0-1.1,0.7-1.7,1.9-1.7
			C151.6,94.9,152.2,95.6,152.2,96.7z"/>
		<path class="st178" d="M79.5,33.7c-0.1,1.2-0.8,2-2,2c-1.2,0-2-0.8-2-2c0-1.2,0.8-2,2-2C78.7,31.7,79.3,32.5,79.5,33.7z"/>
		<path class="st178" d="M111.3,29.5c1.1,0,1.8,0.6,1.9,1.8c0,1.2-0.6,1.8-1.8,1.9c-1.2,0-1.8-0.6-1.9-1.8
			C109.5,30.3,110.1,29.6,111.3,29.5z"/>
		<path class="st178" d="M62.9,30.5c0,1.2-0.5,1.9-1.5,2c-1.1,0.2-1.9-0.5-2-1.6c-0.1-1.1,0.6-1.8,1.7-1.8
			C62.1,29,62.6,29.8,62.9,30.5z"/>
		<path class="st178" d="M103.9,27.8c1.2,0.1,1.7,0.8,1.7,2c-0.1,1.2-0.8,1.7-2,1.7c-1.2-0.1-1.7-0.8-1.7-2
			C102,28.3,102.7,27.8,103.9,27.8z"/>
		<path class="st178" d="M148.2,71c0,1.2-0.7,1.9-1.9,1.9c-1.1,0-1.8-0.6-1.8-1.8c0-1.3,0.6-2,1.9-2C147.5,69.2,148.1,69.8,148.2,71
			z"/>
		<path class="st178" d="M28.5,83.3c-0.1,1.1-0.7,1.8-1.8,1.8c-1.1,0-1.7-0.7-1.7-1.9c0.1-1,0.7-1.6,1.7-1.6
			C27.7,81.5,28.3,82.2,28.5,83.3z"/>
		<path class="st178" d="M149.3,113.1c-0.2,1.3-0.8,1.9-2,1.8c-1.2-0.1-1.7-0.8-1.7-1.9c0.1-1.2,0.8-1.7,1.9-1.7
			C148.8,111.4,149.3,112.1,149.3,113.1z"/>
		<path class="st178" d="M97.4,28.4c0,1.1-0.5,1.8-1.7,1.9c-1.3,0.1-2-0.6-2-1.9c0-1.1,0.7-1.8,1.8-1.8
			C96.7,26.6,97.3,27.2,97.4,28.4z"/>
		<path class="st178" d="M32.6,108.8c-0.1,1.3-0.7,2-1.9,1.9c-1.2,0-1.8-0.7-1.7-1.9c0.1-1,0.7-1.6,1.7-1.6
			C31.9,107.2,32.4,107.9,32.6,108.8z"/>
		<path class="st178" d="M148.2,64.7c-1.1,0-1.9-0.6-1.9-1.7c0-1.1,0.6-1.8,1.8-1.8c1,0,1.6,0.6,1.7,1.6
			C149.9,63.8,149.3,64.5,148.2,64.7z"/>
		<path class="st178" d="M30.2,75.1c-0.1,1.1-0.7,1.8-1.8,1.8c-1,0-1.6-0.6-1.7-1.6c-0.1-1.1,0.5-1.9,1.6-1.9
			C29.4,73.3,30.1,74,30.2,75.1z"/>
		<path class="st178" d="M89.2,26.5c0,1.1-0.5,1.9-1.7,1.9c-1.1,0.1-1.8-0.5-1.9-1.6c-0.1-1.1,0.5-1.8,1.6-1.9
			C88.4,24.8,89,25.4,89.2,26.5z"/>
		<path class="st178" d="M79.3,23.8c1.1,0.2,1.8,0.8,1.7,2c-0.1,1-0.8,1.6-1.8,1.5c-1.1-0.1-1.8-0.8-1.7-1.9
			C77.6,24.4,78.2,23.8,79.3,23.8z"/>
		<path class="st178" d="M127.1,142.8c-0.1,1.1-0.7,1.8-1.8,1.8c-1.1,0-1.7-0.7-1.7-1.9c0.1-1,0.7-1.6,1.7-1.6
			C126.4,141.1,126.9,141.7,127.1,142.8z"/>
		<path class="st178" d="M145.8,123.1c-1.2-0.2-1.9-0.8-1.8-2c0.1-1.1,0.9-1.7,2-1.6c1,0.1,1.5,0.8,1.5,1.8
			C147.5,122.4,146.7,122.9,145.8,123.1z"/>
		<path class="st178" d="M52.5,45.3c-0.1,1.3-0.7,2-2,2c-1.1,0-1.8-0.7-1.8-1.8c0-1.3,0.7-2,2-1.9C51.9,43.5,52.4,44.2,52.5,45.3z"
			/>
		<path class="st178" d="M31.4,66.9c-0.1,1.1-0.6,1.8-1.8,1.9c-1,0-1.7-0.6-1.7-1.6c-0.1-1.1,0.6-1.8,1.7-1.9
			C30.6,65.2,31.2,65.9,31.4,66.9z"/>
		<path class="st178" d="M27.3,91.5c-0.1,1.1-0.7,1.8-1.9,1.7c-1,0-1.6-0.7-1.6-1.7c0-1.1,0.7-1.8,1.8-1.8
			C26.6,89.8,27.1,90.5,27.3,91.5z"/>
		<path class="st178" d="M136.3,125.8c1.1,0,1.8,0.6,1.9,1.7c0.1,1.3-0.6,2-1.9,2c-1.2,0-1.8-0.7-1.8-1.8
			C134.5,126.5,135.2,125.9,136.3,125.8z"/>
		<path class="st178" d="M44.2,44.1c-0.1,1.1-0.7,1.8-1.8,1.8c-1,0-1.6-0.6-1.7-1.6c0-1.1,0.6-1.8,1.8-1.8
			C43.5,42.5,44,43.2,44.2,44.1z"/>
		<path class="st178" d="M101.6,146.2c-0.1,1.4-0.8,2.1-2.1,2c-1.3-0.1-1.9-0.9-1.8-2.1c0.1-1.1,0.8-1.7,1.9-1.7
			C100.9,144.4,101.5,145.2,101.6,146.2z"/>
		<path class="st178" d="M109.6,148.1c-0.1,1.1-0.6,1.8-1.8,1.8c-1.2,0-1.8-0.6-1.8-1.8c0-1.1,0.6-1.8,1.8-1.8
			C108.9,146.3,109.5,146.9,109.6,148.1z"/>
		<path class="st178" d="M67.5,148.8c-0.2,1.1-0.8,1.8-2,1.6c-1-0.1-1.6-0.8-1.5-1.8c0.1-1.1,0.8-1.8,2-1.6
			C67,147.1,67.5,147.7,67.5,148.8z"/>
		<path class="st178" d="M117.7,149.2c-0.1,1-0.6,1.7-1.6,1.8c-1.1,0.1-1.8-0.5-1.9-1.7c-0.1-1,0.6-1.7,1.5-1.8
			C116.9,147.4,117.5,148.1,117.7,149.2z"/>
		<path class="st178" d="M75.7,150.5c-0.2,1.1-0.8,1.8-1.9,1.7c-1.1-0.1-1.7-0.9-1.6-2c0.1-1,0.8-1.6,1.8-1.5
			C75.1,148.7,75.7,149.4,75.7,150.5z"/>
		<path class="st178" d="M83.9,151.6c-0.1,1.2-0.8,1.8-1.9,1.7c-1.2-0.1-1.7-0.8-1.6-2c0.1-1,0.7-1.6,1.7-1.6
			C83.3,149.8,83.8,150.5,83.9,151.6z"/>
		<path class="st178" d="M90.3,151.6c1.1,0.1,1.8,0.7,1.8,1.8c0,1.1-0.7,1.7-1.9,1.7c-1-0.1-1.6-0.7-1.6-1.7
			C88.5,152.3,89.2,151.7,90.3,151.6z"/>
		<path class="st178" d="M122.7,24.3c-0.1,1-0.6,1.5-1.5,1.5c-1,0-1.6-0.7-1.5-1.7c0.1-0.8,0.7-1.4,1.6-1.3
			C122.2,23,122.6,23.6,122.7,24.3z"/>
		<path class="st178" d="M127.8,36c-1-0.1-1.7-0.6-1.8-1.5c-0.1-1.1,0.6-1.8,1.7-1.9c1,0,1.6,0.7,1.7,1.6
			C129.4,35.3,128.7,35.8,127.8,36z"/>
		<path class="st178" d="M137.4,35.5c-0.2,0.9-0.7,1.6-1.7,1.5c-0.8-0.1-1.4-0.7-1.4-1.6c0-1,0.7-1.6,1.7-1.5
			C136.8,34,137.3,34.6,137.4,35.5z"/>
		<path class="st178" d="M43.6,37.6c-1-0.2-1.7-0.8-1.6-1.8c0.1-0.8,0.7-1.4,1.6-1.3c1,0.1,1.6,0.8,1.5,1.7
			C45,37.1,44.4,37.5,43.6,37.6z"/>
		<path class="st178" d="M142.7,43.7c1,0.1,1.7,0.6,1.7,1.6c0.1,0.9-0.6,1.5-1.4,1.6c-1,0.2-1.7-0.5-1.9-1.4
			C141,44.6,141.8,44,142.7,43.7z"/>
		<path class="st178" d="M32.4,49c0.9,0,1.5,0.5,1.7,1.3c0.2,1-0.5,1.7-1.4,1.8c-0.9,0.1-1.5-0.5-1.7-1.3
			C30.8,49.9,31.5,49.3,32.4,49z"/>
		<path class="st178" d="M149.2,56.4c-1-0.2-1.6-0.7-1.6-1.7c0-0.9,0.6-1.5,1.5-1.6c1-0.1,1.7,0.6,1.8,1.5
			C150.9,55.6,150.2,56.2,149.2,56.4z"/>
		<path class="st178" d="M31.3,57.1c1,0.2,1.7,0.7,1.7,1.6c0,1.1-0.7,1.8-1.8,1.7c-0.9-0.1-1.6-0.7-1.5-1.7
			C29.7,57.8,30.4,57.2,31.3,57.1z"/>
		<path class="st178" d="M156.3,65.7c-1-0.2-1.7-0.8-1.6-1.7c0.1-0.8,0.7-1.4,1.6-1.4c1,0,1.6,0.7,1.5,1.7
			C157.7,65,157.1,65.5,156.3,65.7z"/>
		<path class="st178" d="M154.6,70.5c0.9,0.2,1.6,0.8,1.6,1.8c-0.1,1.1-0.8,1.8-1.9,1.6c-0.9-0.1-1.6-0.8-1.4-1.8
			C152.9,71.1,153.6,70.6,154.6,70.5z"/>
		<path class="st178" d="M21.8,73.9c-0.1,0.9-0.6,1.5-1.4,1.5c-0.9,0.1-1.5-0.5-1.6-1.3c-0.1-1,0.5-1.6,1.5-1.6
			C21.2,72.5,21.6,73.1,21.8,73.9z"/>
		<path class="st178" d="M159.8,88.7c1,0.2,1.6,0.8,1.5,1.8c-0.1,0.8-0.7,1.5-1.6,1.4c-1-0.1-1.6-0.7-1.5-1.7
			C158.3,89.3,158.9,88.8,159.8,88.7z"/>
		<path class="st178" d="M160.2,98c-0.3,0.9-0.8,1.7-1.8,1.5c-0.9-0.1-1.6-0.8-1.4-1.8c0.1-0.8,0.7-1.4,1.6-1.4
			C159.6,96.4,160.1,97,160.2,98z"/>
		<path class="st178" d="M53.5,30.6c-0.9-0.2-1.6-0.7-1.5-1.7c0.1-0.8,0.7-1.4,1.6-1.4c1,0,1.6,0.7,1.5,1.7
			C55,30,54.4,30.5,53.5,30.6z"/>
		<path class="st178" d="M24.3,98c1,0.1,1.7,0.6,1.7,1.6c0.1,1-0.6,1.7-1.6,1.7c-1,0.1-1.7-0.6-1.7-1.6C22.6,98.7,23.3,98.2,24.3,98
			z"/>
		<path class="st178" d="M163,82.2c-0.2,0.9-0.7,1.5-1.5,1.5c-1,0-1.7-0.7-1.5-1.7c0.1-0.8,0.7-1.4,1.6-1.3
			C162.5,80.7,163,81.3,163,82.2z"/>
		<path class="st178" d="M158.5,106.1c-0.2,0.9-0.7,1.6-1.7,1.6c-0.9,0-1.5-0.6-1.5-1.4c-0.1-1,0.6-1.7,1.5-1.8
			C157.7,104.4,158.2,105.1,158.5,106.1z"/>
		<path class="st178" d="M19.1,80.6c0.9,0.1,1.4,0.6,1.5,1.5c0,1-0.6,1.6-1.6,1.5c-0.8-0.1-1.4-0.7-1.3-1.6
			C17.7,81.2,18.2,80.7,19.1,80.6z"/>
		<path class="st178" d="M22.6,106.3c0.9,0.2,1.6,0.8,1.5,1.8c-0.1,0.8-0.7,1.4-1.6,1.4c-1-0.1-1.6-0.7-1.5-1.7
			C21.1,106.8,21.8,106.3,22.6,106.3z"/>
		<path class="st178" d="M155.6,115.8c-1-0.2-1.6-0.8-1.5-1.8c0.1-0.8,0.7-1.4,1.6-1.3c1,0.1,1.6,0.8,1.5,1.7
			C157.1,115.2,156.5,115.8,155.6,115.8z"/>
		<path class="st178" d="M29.5,118.9c-1-0.2-1.7-0.8-1.6-1.8c0.1-1,0.7-1.6,1.7-1.6c1,0.1,1.6,0.7,1.6,1.7
			C31.2,118.2,30.5,118.8,29.5,118.9z"/>
		<path class="st178" d="M155.4,122.3c0,0.9-0.5,1.5-1.3,1.6c-0.9,0.1-1.5-0.4-1.6-1.2c-0.2-1,0.4-1.7,1.4-1.7
			C154.7,120.9,155.2,121.4,155.4,122.3z"/>
		<path class="st178" d="M29.4,125.3c-0.1,1-0.6,1.5-1.5,1.5c-1,0-1.6-0.7-1.5-1.7c0.1-0.8,0.7-1.4,1.6-1.3
			C28.8,123.9,29.3,124.5,29.4,125.3z"/>
		<path class="st178" d="M37.7,127c-0.1,1-0.6,1.7-1.6,1.7c-1.1,0.1-1.8-0.6-1.8-1.8c0-1,0.7-1.6,1.7-1.6
			C37,125.4,37.5,126.1,37.7,127z"/>
		<path class="st178" d="M144.6,127.7c0.9,0.2,1.6,0.8,1.6,1.8c-0.1,1-0.7,1.6-1.7,1.6c-1-0.1-1.6-0.7-1.6-1.7
			C143,128.4,143.7,127.9,144.6,127.7z"/>
		<path class="st178" d="M36.3,135.2c-0.1,0.9-0.6,1.4-1.4,1.5c-0.9,0.1-1.5-0.5-1.6-1.3c-0.1-1,0.5-1.6,1.5-1.6
			C35.8,133.8,36.2,134.4,36.3,135.2z"/>
		<path class="st178" d="M44.1,136.4c-0.1,1-0.6,1.6-1.6,1.7c-1,0.1-1.7-0.6-1.7-1.6c-0.1-1,0.6-1.6,1.6-1.7
			C43.4,134.7,43.9,135.4,44.1,136.4z"/>
		<path class="st178" d="M143.3,139.1c-0.9-0.1-1.4-0.6-1.4-1.5c0-1,0.7-1.6,1.7-1.5c0.8,0.1,1.4,0.7,1.3,1.6
			C144.8,138.6,144.2,139,143.3,139.1z"/>
		<path class="st178" d="M133.3,145.6c-0.9-0.3-1.6-0.8-1.4-1.9c0.2-0.8,0.8-1.4,1.7-1.3c0.9,0.1,1.6,0.8,1.4,1.8
			C134.9,145.1,134.2,145.6,133.3,145.6z"/>
		<path class="st178" d="M51,145.7c-0.1,0.9-0.6,1.5-1.4,1.6c-1,0.1-1.7-0.5-1.8-1.5c-0.1-0.9,0.6-1.5,1.4-1.6
			C50.2,144.1,50.8,144.7,51,145.7z"/>
		<path class="st178" d="M81.9,17.4c-0.2,0.9-0.7,1.5-1.5,1.4c-1,0-1.6-0.7-1.4-1.7c0.1-0.8,0.8-1.4,1.6-1.3
			C81.4,16,81.8,16.6,81.9,17.4z"/>
		<path class="st178" d="M57.7,145.8c1,0.2,1.7,0.8,1.6,1.8c-0.1,1-0.7,1.6-1.7,1.6c-1-0.1-1.6-0.7-1.6-1.7
			C56,146.5,56.7,145.9,57.7,145.8z"/>
		<path class="st178" d="M88.5,17c0.9,0.1,1.5,0.6,1.6,1.4c0.1,1-0.5,1.7-1.5,1.7c-0.9,0.1-1.5-0.5-1.6-1.3
			C86.9,17.7,87.5,17.2,88.5,17z"/>
		<path class="st178" d="M98.4,20.1c-0.1,1-0.6,1.7-1.6,1.8c-0.9,0.1-1.5-0.6-1.6-1.3c-0.2-1,0.5-1.7,1.4-1.8
			C97.5,18.5,98,19.3,98.4,20.1z"/>
		<path class="st178" d="M104.9,23.1c-0.9-0.2-1.6-0.7-1.6-1.7c0-0.9,0.6-1.5,1.4-1.6c1-0.1,1.7,0.5,1.8,1.5
			C106.6,22.3,105.9,22.9,104.9,23.1z"/>
		<path class="st178" d="M62.9,21.1c0.9,0.1,1.4,0.6,1.4,1.5c0,1-0.7,1.6-1.7,1.5c-0.8-0.1-1.4-0.7-1.3-1.6
			C61.5,21.6,62,21.2,62.9,21.1z"/>
		<path class="st178" d="M124.2,149.4c0.9,0.2,1.6,0.8,1.5,1.8c-0.1,0.8-0.7,1.4-1.6,1.4c-1-0.1-1.6-0.7-1.5-1.7
			C122.7,150,123.3,149.5,124.2,149.4z"/>
		<path class="st178" d="M114.7,23.2c-0.2,1.1-0.8,1.7-1.8,1.6c-0.8-0.1-1.5-0.7-1.4-1.6c0.1-1,0.7-1.6,1.7-1.5
			C114.1,21.7,114.5,22.4,114.7,23.2z"/>
		<path class="st178" d="M72.7,23.8c-0.2,1-0.7,1.6-1.7,1.6c-0.9,0-1.5-0.6-1.6-1.5c-0.1-1,0.6-1.7,1.5-1.8
			C71.9,22.1,72.5,22.8,72.7,23.8z"/>
		<path class="st178" d="M98.6,156.3c-1.1-0.2-1.8-0.7-1.8-1.7c0-1.1,0.7-1.8,1.9-1.7c0.9,0.1,1.6,0.8,1.5,1.8
			C100.1,155.6,99.3,156,98.6,156.3z"/>
		<path class="st178" d="M107.7,156.3c-0.2,0.9-0.8,1.7-1.8,1.5c-0.9-0.1-1.6-0.8-1.5-1.8c0.1-0.8,0.7-1.4,1.6-1.4
			C107,154.7,107.5,155.4,107.7,156.3z"/>
		<path class="st178" d="M72.2,157.1c0.9,0.1,1.4,0.6,1.4,1.5c0,1-0.7,1.6-1.7,1.5c-0.8-0.1-1.4-0.7-1.3-1.6
			C70.8,157.6,71.4,157.2,72.2,157.1z"/>
		<path class="st178" d="M80.4,161.3c-0.8,0-1.4-0.5-1.6-1.4c-0.1-0.9,0.4-1.5,1.3-1.7c1-0.2,1.7,0.5,1.8,1.4
			C82,160.6,81.3,161.1,80.4,161.3z"/>
		<path class="st178" d="M166.2,107.8c0,0.8-0.4,1.2-1.2,1.3c-0.8,0-1.2-0.4-1.3-1.2c0-0.8,0.4-1.2,1.2-1.3
			C165.7,106.6,166.2,107,166.2,107.8z"/>
		<path class="st178" d="M106.1,12c0.8,0.1,1.2,0.6,1.1,1.3c-0.1,0.8-0.6,1.2-1.3,1.1c-0.8-0.1-1.2-0.6-1.1-1.3
			C104.9,12.4,105.4,12,106.1,12z"/>
		<path class="st178" d="M97.2,12.1c0.1-0.8,0.5-1.2,1.3-1.2c0.8,0,1.2,0.5,1.2,1.3c0,0.8-0.5,1.2-1.3,1.2
			C97.6,13.3,97.2,12.9,97.2,12.1z"/>
		<path class="st178" d="M90.2,9.7c1,0.1,1.4,0.6,1.3,1.4c-0.1,0.8-0.7,1.1-1.4,1c-0.6-0.1-1-0.6-1-1.2C89.1,10.1,89.6,9.8,90.2,9.7
			z"/>
		<path class="st178" d="M130.7,26c0,0.8-0.3,1.3-1.1,1.4c-0.8,0.1-1.4-0.3-1.5-1.1c-0.1-0.9,0.3-1.5,1.3-1.5
			C130.2,24.8,130.6,25.2,130.7,26z"/>
		<path class="st178" d="M23,58.9c-0.8-0.1-1.2-0.6-1.2-1.4c0-0.8,0.5-1.2,1.3-1.2c1,0,1.4,0.6,1.3,1.5C24.4,58.7,23.8,59,23,58.9z"
			/>
		<path class="st178" d="M157.4,54.6c0.8,0,1.3,0.4,1.3,1.2c0.1,0.8-0.3,1.3-1.1,1.4c-0.9,0.1-1.5-0.3-1.5-1.3
			C156.1,55,156.6,54.6,157.4,54.6z"/>
		<path class="st178" d="M169.1,91.6c-0.1,0.8-0.6,1.2-1.3,1.1c-0.8-0.1-1.2-0.6-1.1-1.3c0.1-0.8,0.6-1.2,1.3-1.1
			C168.8,90.3,169.2,90.8,169.1,91.6z"/>
		<path class="st178" d="M142.7,37.2c0-0.8,0.4-1.3,1.2-1.3c0.8-0.1,1.3,0.3,1.4,1.1c0.1,0.9-0.3,1.5-1.3,1.5
			C143.1,38.5,142.7,38,142.7,37.2z"/>
		<path class="st178" d="M36.7,34.2c0,0.8-0.3,1.3-1.1,1.3c-0.8,0.1-1.3-0.3-1.3-1.1c-0.1-0.8,0.3-1.3,1.1-1.3
			C36.1,33,36.6,33.4,36.7,34.2z"/>
		<path class="st178" d="M24.4,48.2c0.8,0.1,1.2,0.5,1.2,1.3c0,0.8-0.5,1.2-1.3,1.2c-0.8,0-1.2-0.5-1.2-1.3
			C23.1,48.6,23.6,48.2,24.4,48.2z"/>
		<path class="st178" d="M17.5,98c-0.1,0.8-0.5,1.2-1.3,1.2c-1,0-1.4-0.6-1.3-1.5c0.1-0.8,0.7-1.1,1.4-1.1
			C17.1,96.7,17.5,97.2,17.5,98z"/>
		<path class="st178" d="M25.4,133.5c0.1-0.8,0.5-1.2,1.3-1.2c0.8,0,1.2,0.5,1.2,1.3c0,0.8-0.5,1.2-1.3,1.2
			C25.8,134.7,25.5,134.3,25.4,133.5z"/>
		<path class="st178" d="M152.8,129.3c0.8,0.1,1.2,0.5,1.2,1.3c0,1-0.6,1.4-1.5,1.3c-0.8-0.1-1.1-0.6-1.1-1.4
			C151.5,129.7,152,129.3,152.8,129.3z"/>
		<path class="st178" d="M55.9,21.3c0,0.8-0.3,1.3-1.1,1.4c-0.8,0.1-1.3-0.3-1.4-1.1c-0.1-0.8,0.3-1.3,1.1-1.4
			C55.4,20.1,55.8,20.5,55.9,21.3z"/>
		<path class="st178" d="M168,99.8c-0.1,0.8-0.6,1.2-1.3,1.1c-0.8-0.1-1.2-0.6-1.1-1.3c0.1-0.8,0.6-1.2,1.3-1.1
			C167.6,98.5,168,99,168,99.8z"/>
		<path class="st178" d="M72.2,14.9c0.8,0,1.3,0.4,1.3,1.2c0.1,0.8-0.3,1.3-1.1,1.4c-0.9,0.1-1.5-0.3-1.5-1.3
			C70.9,15.4,71.4,15,72.2,14.9z"/>
		<path class="st178" d="M45.5,29.1c-1,0-1.4-0.4-1.5-1.2c0-0.8,0.4-1.3,1.2-1.3c0.8,0,1.3,0.4,1.3,1.2C46.6,28.7,46.2,29,45.5,29.1
			z"/>
		<path class="st178" d="M138.8,27.1c0,0.9-0.4,1.4-1.2,1.4c-0.8,0-1.2-0.5-1.2-1.3c0-0.7,0.4-1.1,1.1-1.1
			C138.2,26,138.7,26.4,138.8,27.1z"/>
		<path class="st178" d="M22.7,116.1c-0.1,0.8-0.5,1.2-1.3,1.2c-1,0-1.4-0.6-1.3-1.5c0.1-0.8,0.7-1.2,1.4-1.1
			C22.4,114.8,22.7,115.3,22.7,116.1z"/>
		<path class="st178" d="M151,45.2c0.8,0,1.3,0.5,1.3,1.3c0,1-0.5,1.4-1.5,1.4c-0.8-0.1-1.2-0.6-1.1-1.4
			C149.7,45.7,150.2,45.3,151,45.2z"/>
		<path class="st178" d="M165,116.1c-0.1,0.8-0.6,1.2-1.4,1.1c-0.8-0.1-1.1-0.7-1-1.5c0.1-0.6,0.6-1,1.2-0.9
			C164.7,114.8,165,115.3,165,116.1z"/>
		<path class="st178" d="M18.7,89.8c-0.1,0.9-0.7,1.4-1.6,1.3c-0.8-0.1-1.2-0.6-1.2-1.4c0.1-0.9,0.7-1.4,1.6-1.3
			C18.3,88.5,18.7,89,18.7,89.8z"/>
		<path class="st178" d="M114.1,16.3c-0.8-0.1-1.2-0.7-1.1-1.4c0.1-0.8,0.7-1.1,1.5-1c0.6,0.1,1,0.6,0.9,1.3
			C115.4,15.9,114.9,16.3,114.1,16.3z"/>
		<path class="st178" d="M34.2,43.8c-0.9-0.1-1.4-0.7-1.2-1.6c0.1-0.8,0.7-1.2,1.4-1.1c0.9,0.1,1.4,0.7,1.3,1.6
			C35.5,43.5,35,43.8,34.2,43.8z"/>
		<path class="st178" d="M151.1,137.5c0.8,0.1,1.2,0.6,1.1,1.4c-0.1,0.8-0.7,1.1-1.4,1c-0.6-0.1-1-0.6-1-1.2
			C149.8,137.9,150.3,137.5,151.1,137.5z"/>
		<path class="st178" d="M33,141.6c0.8,0,1.3,0.4,1.3,1.2c0,0.8-0.5,1.2-1.3,1.2c-0.7,0-1.1-0.4-1.1-1.1
			C31.8,142.2,32.2,141.7,33,141.6z"/>
		<path class="st178" d="M41.1,145.9c-0.8-0.1-1.2-0.6-1.2-1.4c0-0.8,0.5-1.2,1.3-1.2c1,0,1.4,0.6,1.3,1.5
			C42.5,145.6,41.9,145.9,41.1,145.9z"/>
		<path class="st178" d="M164,73.9c0,0.8-0.4,1.3-1.2,1.4c-0.9,0.1-1.5-0.4-1.5-1.3c0-0.8,0.4-1.3,1.2-1.3
			C163.4,72.6,163.9,73,164,73.9z"/>
		<path class="st178" d="M141.7,144.5c0.8,0.1,1.3,0.5,1.2,1.3c0,0.8-0.5,1.2-1.3,1.2c-0.8,0-1.2-0.5-1.2-1.3
			C140.4,144.9,140.9,144.5,141.7,144.5z"/>
		<path class="st178" d="M164.4,64.6c0.8,0,1.2,0.4,1.3,1.2c0,0.8-0.4,1.2-1.2,1.3c-0.8,0-1.2-0.4-1.3-1.2
			C163.1,65.1,163.6,64.6,164.4,64.6z"/>
		<path class="st178" d="M15.6,106.2c-0.1,0.8-0.7,1.2-1.4,1.1c-0.8-0.1-1.1-0.7-1-1.5c0.1-0.6,0.6-1,1.3-0.9
			C15.3,104.9,15.7,105.4,15.6,106.2z"/>
		<path class="st178" d="M131,152.2c0.1-0.8,0.5-1.3,1.3-1.2c0.8,0,1.2,0.5,1.2,1.3c0,0.8-0.5,1.2-1.3,1.2
			C131.4,153.4,131.1,152.9,131,152.2z"/>
		<path class="st178" d="M98,162.8c-0.1,0.9-0.7,1.3-1.6,1.2c-0.8-0.1-1.2-0.6-1.1-1.4c0.1-0.9,0.7-1.3,1.6-1.2
			C97.7,161.5,98.1,162,98,162.8z"/>
		<path class="st178" d="M48.9,154c-0.1,0.8-0.6,1.2-1.3,1.1c-0.8-0.1-1.2-0.6-1.1-1.3c0.1-0.8,0.6-1.2,1.3-1.1
			C48.6,152.8,48.9,153.3,48.9,154z"/>
		<path class="st178" d="M21.4,67.2c-1-0.2-1.5-0.8-1.3-1.7c0.1-0.8,0.7-1.2,1.5-1.1c0.9,0.1,1.4,0.7,1.2,1.6
			C22.7,66.8,22.1,67.2,21.4,67.2z"/>
		<path class="st178" d="M55.7,157c-0.8-0.1-1.2-0.6-1.1-1.3c0-0.8,0.5-1.2,1.3-1.2c1,0,1.4,0.6,1.3,1.5C57,156.7,56.5,157,55.7,157
			z"/>
		<path class="st178" d="M63.9,155.5c0.8,0,1.4,0.3,1.5,1.1c0.1,0.9-0.3,1.5-1.2,1.6c-0.8,0.1-1.3-0.3-1.5-1.1
			C62.5,156.2,63,155.6,63.9,155.5z"/>
		<path class="st178" d="M115.6,157.2c0,0.9-0.4,1.5-1.1,1.6c-0.9,0.1-1.5-0.3-1.6-1.3c-0.1-0.8,0.4-1.3,1.1-1.4
			C114.9,155.9,115.4,156.4,115.6,157.2z"/>
		<path class="st178" d="M123.6,158.6c0,0.8-0.4,1.3-1.2,1.3c-0.8,0-1.3-0.4-1.3-1.2c0-0.8,0.4-1.3,1.2-1.3
			C123.2,157.3,123.6,157.8,123.6,158.6z"/>
		<path class="st178" d="M89.9,161.6c-0.1,0.9-0.6,1.4-1.5,1.3c-0.8-0.1-1.2-0.6-1.2-1.4c0-0.9,0.6-1.4,1.5-1.3
			C89.5,160.2,89.9,160.7,89.9,161.6z"/>
		<path class="st178" d="M106.1,163.7c0,0.8-0.3,1.3-1.1,1.4c-0.8,0.1-1.3-0.3-1.4-1.1c-0.1-0.8,0.3-1.3,1.1-1.4
			C105.6,162.6,106,162.9,106.1,163.7z"/>
		<path class="st178" d="M160.4,41.3c-0.8-0.2-1.2-0.6-1.2-1.2c0.1-0.6,0.5-1.1,1.1-1c0.6,0.1,1,0.5,1,1.1
			C161.3,40.9,160.8,41.1,160.4,41.3z"/>
		<path class="st178" d="M17.9,40.6c-0.6-0.2-1.1-0.6-0.9-1.2c0.1-0.6,0.6-1,1.2-0.9c0.4,0.1,0.9,0.5,0.8,1
			C18.9,40.2,18.5,40.5,17.9,40.6z"/>
		<path class="st178" d="M152.2,37.2c0.6,0.1,1.1,0.5,1,1.1c0,0.8-0.5,1.2-1.3,1.2c-0.6,0-1-0.5-1-1.1
			C151,37.6,151.5,37.2,152.2,37.2z"/>
		<path class="st178" d="M27.3,32c0.6,0.2,1.1,0.5,1,1.2c-0.1,0.6-0.5,1.1-1.1,1c-0.6-0.1-1.1-0.5-1-1.1
			C26.2,32.4,26.7,32.1,27.3,32z"/>
		<path class="st178" d="M153.8,31.3c-0.6-0.2-1.1-0.6-0.9-1.3c0.1-0.6,0.6-1.1,1.3-0.8c0.4,0.1,0.9,0.5,0.8,1.1
			C154.9,30.9,154.4,31.2,153.8,31.3z"/>
		<path class="st178" d="M145.5,27.9c0.8,0,1.3,0.4,1.3,1c0.1,0.8-0.4,1.3-1.2,1.2c-0.6,0-1-0.5-1-1.1
			C144.6,28.3,145.1,28.1,145.5,27.9z"/>
		<path class="st178" d="M12.6,122.2c-0.2,0.8-0.5,1.3-1.2,1.2c-0.5,0-0.9-0.4-1-0.9c-0.1-0.7,0.4-1.1,1-1.2
			C12.1,121.3,12.3,121.9,12.6,122.2z"/>
		<path class="st178" d="M20.9,124.1c-0.1,0.8-0.5,1.2-1.2,1.2c-0.8,0-1.2-0.5-1.2-1.3c0-0.7,0.5-1,1.1-1
			C20.5,123,20.8,123.6,20.9,124.1z"/>
		<path class="st178" d="M38.3,26.7c-0.1,0.6-0.4,1.1-1.1,1.1c-0.8,0-1.3-0.5-1.2-1.2c0.1-0.6,0.5-1,1.2-1
			C37.9,25.6,38.2,26.1,38.3,26.7z"/>
		<path class="st178" d="M162,125.3c-0.6-0.1-1-0.5-1-1.1c0-0.8,0.5-1.2,1.2-1.2c0.8,0.1,1.2,0.6,1,1.4
			C163.1,125,162.6,125.3,162,125.3z"/>
		<path class="st178" d="M178.9,85c-0.1,0.6-0.4,1-1.1,1c-0.5,0-0.9-0.4-1-0.8c-0.1-0.6,0.3-1.1,0.9-1.2
			C178.4,84,178.7,84.4,178.9,85z"/>
		<path class="st178" d="M30,24.9c0,0.6-0.4,0.9-0.9,1c-0.6,0.1-1.1-0.3-1.1-1c0-0.5,0.4-0.9,0.8-1C29.5,23.9,29.9,24.3,30,24.9z"/>
		<path class="st178" d="M171.3,125.2c-0.2,0.8-0.6,1.3-1.2,1.1c-0.6-0.1-1.1-0.6-0.9-1.2c0.1-0.4,0.6-0.8,1-0.8
			C170.9,124.2,171.1,124.9,171.3,125.2z"/>
		<path class="st178" d="M176,91.6c0.6,0.1,1.1,0.4,1.1,1c0.1,0.6-0.4,0.9-0.8,1.1c-0.7,0.2-1.1-0.3-1.3-0.9
			C174.9,92.2,175.4,91.8,176,91.6z"/>
		<path class="st178" d="M146.8,19.9c0.6,0,0.9,0.3,1,0.8c0.2,0.6-0.3,1.1-0.9,1.2c-0.5,0.1-0.9-0.3-1-0.8
			C145.8,20.4,146.2,20.1,146.8,19.9z"/>
		<path class="st178" d="M46.6,20.9c-0.8-0.2-1.2-0.5-1.2-1.2c0-0.8,0.5-1.2,1.3-1.1c0.6,0.1,1,0.6,0.9,1.2
			C47.5,20.5,47,20.7,46.6,20.9z"/>
		<path class="st178" d="M138.8,20.2c-0.6-0.1-1.1-0.4-1.1-1c-0.1-0.6,0.4-1.1,1-1.1c0.6-0.1,1.1,0.4,1.1,1
			C139.9,19.7,139.4,20,138.8,20.2z"/>
		<path class="st178" d="M39.4,18.6c-0.2,0.6-0.6,1.1-1.2,0.9c-0.6-0.1-1-0.6-0.9-1.2c0.1-0.4,0.5-0.9,1-0.8
			C39,17.6,39.3,18,39.4,18.6z"/>
		<path class="st178" d="M130.6,16.8c0.7,0.2,1.2,0.5,1.1,1.2c-0.1,0.8-0.6,1.2-1.4,1.1c-0.6-0.1-1-0.6-0.9-1.3
			C129.6,17.1,130,16.8,130.6,16.8z"/>
		<path class="st178" d="M123.6,16.1c0,0.8-0.4,1.2-1.2,1.2c-0.7,0-1.1-0.4-1.1-1c-0.1-0.8,0.4-1.3,1.2-1.3
			C123.1,15,123.4,15.4,123.6,16.1z"/>
		<path class="st178" d="M19.6,132.4c-0.2,0.6-0.5,1.1-1.2,1c-0.6-0.1-1.1-0.5-1-1.2c0.1-0.6,0.5-1.1,1.2-1
			C19.2,131.3,19.6,131.7,19.6,132.4z"/>
		<path class="st178" d="M160.8,131.2c0.8,0.2,1.2,0.5,1.2,1.2c0,0.8-0.6,1.2-1.3,1.1c-0.6-0.1-1-0.6-0.9-1.2
			C159.9,131.6,160.4,131.3,160.8,131.2z"/>
		<path class="st178" d="M64,15.6c-0.8-0.1-1.2-0.5-1.1-1.3c0-0.7,0.5-1,1.1-1c0.8,0,1.2,0.5,1.2,1.3C65.1,15.2,64.7,15.6,64,15.6z"
			/>
		<path class="st178" d="M55.9,12.2c0.6,0.2,1.1,0.5,1,1.2c-0.1,0.6-0.5,1.1-1.2,1c-0.6-0.1-1.1-0.5-1-1.2
			C54.8,12.6,55.3,12.2,55.9,12.2z"/>
		<path class="st178" d="M175,99.7c0.6,0.2,1.1,0.5,1,1.2c-0.1,0.6-0.5,1.1-1.1,1c-0.6-0.1-1.1-0.5-1-1.1
			C173.9,100.1,174.3,99.8,175,99.7z"/>
		<path class="st178" d="M48.2,10.5c0.6,0.1,1,0.4,1.1,1c0.1,0.5-0.4,0.9-0.8,1c-0.7,0.2-1.1-0.3-1.2-0.8
			C47.1,11.1,47.6,10.7,48.2,10.5z"/>
		<path class="st178" d="M133.3,9.9c-0.3,0.6-0.6,1.1-1.3,0.8c-0.4-0.1-0.9-0.5-0.7-1.1c0.1-0.6,0.6-1,1.2-0.8
			C133,9,133.3,9.4,133.3,9.9z"/>
		<path class="st178" d="M83.3,9.1c-0.1,0.9-0.6,1.4-1.4,1.3c-0.6-0.1-1-0.5-0.9-1.2C81,8.4,81.5,8,82.3,8.1
			C82.9,8.1,83.2,8.7,83.3,9.1z"/>
		<path class="st178" d="M125.2,7.9c0,0.6-0.4,1-1,1.1c-0.5,0.1-0.9-0.3-1-0.8c-0.2-0.7,0.3-1.1,0.8-1.3
			C124.6,6.8,124.9,7.4,125.2,7.9z"/>
		<path class="st178" d="M5.8,61.9c0.6,0.2,1,0.6,0.8,1.3c-0.1,0.4-0.5,0.9-1.1,0.7c-0.6-0.1-1-0.6-0.8-1.2
			C4.9,62.2,5.2,61.9,5.8,61.9z"/>
		<path class="st178" d="M74.1,9.2C73.3,9,72.8,8.7,72.8,8c0-0.8,0.5-1.2,1.3-1.1c0.6,0.1,1,0.6,0.9,1.2C75,8.8,74.5,9,74.1,9.2z"/>
		<path class="st178" d="M16.7,139.5c0.6,0,0.9,0.4,1,0.8c0.1,0.6-0.3,1.1-0.9,1.2c-0.5,0.1-0.9-0.4-1-0.8
			C15.6,140.1,16.1,139.7,16.7,139.5z"/>
		<path class="st178" d="M116.1,8c-0.8-0.2-1.3-0.5-1.2-1.2c0-0.5,0.4-0.9,0.9-1c0.7-0.1,1.1,0.4,1.2,1C117.1,7.5,116.5,7.7,116.1,8
			z"/>
		<path class="st178" d="M160.2,140.5c-0.1,0.6-0.5,1.1-1.1,1.1c-0.5,0-0.9-0.4-1-0.9c-0.1-0.7,0.4-1.1,1-1.2
			C159.7,139.4,160.1,139.9,160.2,140.5z"/>
		<path class="st178" d="M65.6,5.2c0.8,0,1.2,0.4,1.3,1c0.1,0.6-0.3,0.9-0.8,1.1c-0.7,0.2-1.1-0.3-1.3-0.8
			C64.5,5.8,65.1,5.5,65.6,5.2z"/>
		<path class="st178" d="M25,140.6c0.6,0.2,1.1,0.5,1,1.2c-0.1,0.6-0.5,1.1-1.2,1c-0.6-0.1-1.1-0.5-1-1.2
			C23.9,141,24.3,140.6,25,140.6z"/>
		<path class="st178" d="M108,6.8c-0.8-0.1-1.2-0.4-1.3-1.1c-0.1-0.6,0.4-1.1,1-1.1c0.6-0.1,1.1,0.4,1.1,1
			C109,6.3,108.3,6.5,108,6.8z"/>
		<path class="st178" d="M99.5,2.8c0.8,0.2,1.2,0.6,1.2,1.2c-0.1,0.6-0.5,1.1-1.1,1c-0.6-0.1-1-0.5-1-1.1C98.6,3.2,99.2,3,99.5,2.8z
			"/>
		<path class="st178" d="M173.8,59.8c-0.6,0-0.9-0.4-1-0.9c-0.1-0.6,0.3-1.1,1-1.1c0.5,0,0.9,0.4,1,0.8
			C174.8,59.3,174.4,59.7,173.8,59.8z"/>
		<path class="st178" d="M172,75c-0.1,0.8-0.5,1.3-1.2,1.2c-0.8,0-1.2-0.5-1.1-1.3c0.1-0.6,0.6-1,1.2-0.9
			C171.6,74.1,171.9,74.6,172,75z"/>
		<path class="st178" d="M91.2,1.7c0.8,0,1.2,0.4,1.3,1c0.1,0.6-0.3,0.9-0.8,1.1C91,4,90.6,3.5,90.4,3C90.2,2.3,90.8,2,91.2,1.7z"/>
		<path class="st178" d="M166.7,57.7c-0.1,0.6-0.5,1.1-1.2,1c-0.7,0-1.1-0.4-1.1-1.1c0-0.8,0.5-1.3,1.3-1.2
			C166.3,56.6,166.7,57,166.7,57.7z"/>
		<path class="st178" d="M173,107.8c0.8,0.2,1.2,0.6,1.2,1.2c-0.1,0.6-0.5,1.1-1.1,1c-0.6-0.1-1-0.5-1-1.1
			C172.1,108.3,172.7,108.1,173,107.8z"/>
		<path class="st178" d="M12.2,73.4c-0.7,0-1.2-0.4-1.2-1.2c0-0.6,0.4-1.1,1-1.1c0.8-0.1,1.2,0.4,1.3,1.2
			C13.2,72.9,12.8,73.3,12.2,73.4z"/>
		<path class="st178" d="M16.1,56C16,56.6,15.6,57,15,57c-0.8,0-1.2-0.6-1.1-1.3c0.1-0.6,0.6-1,1.2-0.9C15.7,54.9,16.1,55.3,16.1,56
			z"/>
		<path class="st178" d="M4.1,72.1C3.3,72,2.9,71.7,2.9,71c0-0.5,0.4-0.9,0.8-1c0.6-0.1,1.1,0.3,1.2,0.9C5,71.6,4.4,71.8,4.1,72.1z"
			/>
		<path class="st178" d="M149.8,148.1c-0.6-0.1-1.1-0.5-1.1-1.1c0-0.8,0.5-1.2,1.3-1.1c0.6,0.1,1,0.6,0.9,1.2
			C150.8,147.7,150.4,148,149.8,148.1z"/>
		<path class="st178" d="M173.7,67c-0.2,0.6-0.5,1.1-1.2,1c-0.6-0.1-1.1-0.5-1-1.1c0.1-0.6,0.5-1.1,1.1-1
			C173.3,66,173.6,66.4,173.7,67z"/>
		<path class="st178" d="M7.4,104.8c-0.3,0.8-0.6,1.3-1.3,1.2c-0.6-0.1-1.1-0.6-0.9-1.2c0.1-0.4,0.5-0.9,1-0.9
			C6.9,103.9,7.1,104.5,7.4,104.8z"/>
		<path class="st178" d="M159,148.1c0,0.6-0.4,0.9-0.9,1c-0.6,0.1-1.1-0.3-1.1-1c0-0.5,0.4-0.9,0.8-1
			C158.5,147,158.8,147.5,159,148.1z"/>
		<path class="st178" d="M167.9,49.3c-0.2,0.8-0.5,1.3-1.2,1.2c-0.5,0-0.9-0.4-1-0.9c-0.1-0.7,0.4-1.1,1-1.2
			C167.4,48.3,167.5,49,167.9,49.3z"/>
		<path class="st178" d="M9.2,96.6C9,97.4,8.7,97.8,8,97.8c-0.8,0-1.2-0.5-1.1-1.3c0.1-0.6,0.5-1,1.2-1C8.7,95.7,9,96.2,9.2,96.6z"
			/>
		<path class="st178" d="M32,149.9c0.6,0.2,1.1,0.5,1,1.2c-0.1,0.6-0.5,1.1-1.1,1c-0.6-0.1-1.1-0.5-1-1.1
			C30.9,150.3,31.3,150,32,149.9z"/>
		<path class="st178" d="M3.8,79.3c-0.2,0.6-0.5,1.1-1.1,1c-0.6-0.1-1.1-0.6-0.9-1.2c0.1-0.4,0.6-0.8,1-0.8
			C3.3,78.1,3.7,78.6,3.8,79.3z"/>
		<path class="st178" d="M6.1,113.1c-0.1,0.6-0.5,1.1-1.2,1c-0.5-0.1-0.9-0.4-0.8-1c0.1-0.6,0.5-1.1,1.1-1
			C5.7,112.2,6,112.6,6.1,113.1z"/>
		<path class="st178" d="M41.2,152.8c-0.1,0.6-0.5,1.1-1.2,1c-0.7,0-1.1-0.4-1.1-1.1c0-0.8,0.5-1.3,1.3-1.2
			C40.9,151.7,41.2,152.2,41.2,152.8z"/>
		<path class="st178" d="M160.3,47.8c-0.1,0.6-0.5,1-1.1,1c-0.8,0-1.2-0.5-1.2-1.2c0.1-0.8,0.6-1.2,1.4-1
			C160,46.7,160.3,47.1,160.3,47.8z"/>
		<path class="st178" d="M2,87.5c-0.2,0.6-0.6,1-1.2,0.9c-0.4-0.1-0.9-0.5-0.8-1c0.1-0.6,0.6-1,1.2-0.9C1.7,86.6,2,86.9,2,87.5z"/>
		<path class="st178" d="M9.1,89.7c-0.7-0.1-1.1-0.4-1.1-1.1c0-0.8,0.5-1.3,1.3-1.2c0.6,0.1,1,0.5,1,1.2
			C10.2,89.3,9.8,89.7,9.1,89.7z"/>
		<path class="st178" d="M149.7,155c-0.1,0.6-0.4,1-1,1.1c-0.5,0.1-0.9-0.4-1-0.8c-0.2-0.7,0.3-1.1,0.8-1.2
			C149.1,153.9,149.5,154.4,149.7,155z"/>
		<path class="st178" d="M14.4,114.3c-0.1,0.6-0.5,1.1-1.2,1c-0.7,0-1.1-0.4-1.1-1.1c0-0.8,0.5-1.3,1.3-1.2
			C14,113.2,14.4,113.7,14.4,114.3z"/>
		<path class="st178" d="M13.8,62.9c0.7,0.1,1.2,0.5,1.1,1.2c0,0.6-0.4,1-1.1,1c-0.8,0-1.2-0.4-1.2-1.2C12.7,63.3,13.1,63,13.8,62.9
			z"/>
		<path class="st178" d="M84.4,0.8C84.2,1.6,83.9,2,83.3,2c-0.5,0-0.9-0.4-1-0.8c-0.1-0.6,0.3-1.1,0.9-1.2
			C83.9-0.1,84.1,0.5,84.4,0.8z"/>
		<path class="st178" d="M17.3,47.8c-0.2,0.6-0.5,1.1-1.2,1c-0.6-0.1-1.1-0.5-1-1.1c0.1-0.6,0.5-1.1,1.1-1
			C16.8,46.7,17.2,47.1,17.3,47.8z"/>
		<path class="st178" d="M169.8,84.5c-0.9,0-1.3-0.4-1.3-1.2c0-0.7,0.4-1.1,1-1.1c0.8-0.1,1.3,0.4,1.3,1.2
			C170.8,84,170.4,84.3,169.8,84.5z"/>
		<path class="st178" d="M180,77c-0.2,0.6-0.6,1-1.2,0.9c-0.4-0.1-0.9-0.5-0.8-1c0.1-0.6,0.6-1,1.2-0.9C179.7,76.1,180,76.4,180,77z
			"/>
		<path class="st178" d="M10.9,81.6c-0.7-0.1-1.2-0.5-1.1-1.3c0.1-0.6,0.5-1,1.1-1c0.8,0,1.2,0.5,1.2,1.3
			C12,81.2,11.6,81.5,10.9,81.6z"/>
		<path class="st178" d="M130.4,159.2c0.8,0.1,1.3,0.4,1.3,1.1c0,0.8-0.5,1.3-1.3,1.2c-0.6-0.1-1-0.5-1-1.2
			C129.5,159.6,130,159.4,130.4,159.2z"/>
		<path class="st178" d="M39.3,161c-0.2,0.6-0.5,1-1.2,0.9c-0.4-0.1-0.9-0.5-0.8-1c0.1-0.6,0.5-1,1.2-0.9
			C39,160.1,39.3,160.4,39.3,161z"/>
		<path class="st178" d="M172,116.1c0.6,0.2,1.1,0.5,1,1.2c-0.1,0.6-0.6,1.1-1.2,0.9c-0.5-0.1-0.9-0.5-0.9-1
			C170.9,116.5,171.4,116.2,172,116.1z"/>
		<path class="st178" d="M139.8,161.6c-0.2,0.6-0.6,1.1-1.2,0.9c-0.6-0.1-1-0.6-0.9-1.2c0.1-0.4,0.5-0.9,1-0.8
			C139.4,160.6,139.7,161,139.8,161.6z"/>
		<path class="st178" d="M46.5,161c0.6,0.1,1.1,0.4,1.1,1c0.1,0.6-0.4,1.1-1,1.1c-0.6,0.1-1.1-0.4-1.1-1
			C45.4,161.5,45.9,161.2,46.5,161z"/>
		<path class="st178" d="M141.6,153.1c0,0.8-0.3,1.3-0.9,1.4c-0.8,0.1-1.3-0.3-1.3-1.1c0-0.7,0.4-1.1,1.1-1.1
			C141.1,152.2,141.4,152.7,141.6,153.1z"/>
		<path class="st178" d="M55.8,163.9c-0.1,0.6-0.5,1.1-1.1,1.1c-0.8,0-1.2-0.5-1.1-1.3c0.1-0.6,0.6-1,1.2-0.9
			C55.4,162.8,55.8,163.3,55.8,163.9z"/>
		<path class="st178" d="M26,40.1c0.8,0.2,1.2,0.5,1.2,1.2c0,0.8-0.5,1.2-1.3,1.2c-0.6,0-1-0.5-1-1.1C24.9,40.5,25.5,40.2,26,40.1z"
			/>
		<path class="st178" d="M64,165c-0.1,0.7-0.4,1.1-1.1,1.1c-0.8,0-1.3-0.5-1.2-1.3c0.1-0.6,0.5-1,1.2-1
			C63.6,163.9,63.9,164.4,64,165z"/>
		<path class="st178" d="M114.2,165.4c-0.1,0.9-0.5,1.4-1.3,1.3c-0.6-0.1-1-0.5-1-1.1c0-0.8,0.5-1.2,1.3-1.2
			C113.8,164.5,114.1,165,114.2,165.4z"/>
		<path class="st178" d="M70.9,167.9c-0.6-0.1-1-0.5-1-1.1c0-0.8,0.5-1.2,1.2-1.2c0.8,0.1,1.2,0.6,1,1.4
			C72.1,167.6,71.6,167.9,70.9,167.9z"/>
		<path class="st178" d="M121.3,167.9c-0.8-0.2-1.3-0.6-1.2-1.2c0.1-0.6,0.5-1.1,1.2-1c0.6,0.1,1.1,0.5,1,1.2
			C122.3,167.5,121.7,167.7,121.3,167.9z"/>
		<path class="st178" d="M79.1,166.7c0.8,0.1,1.2,0.5,1.2,1.2c0,0.8-0.5,1.2-1.3,1.2c-0.7,0-1-0.5-1-1.1
			C78,167.1,78.6,166.8,79.1,166.7z"/>
		<path class="st178" d="M130.4,168.4c0,0.6-0.3,0.9-0.8,1c-0.6,0.2-1.1-0.3-1.2-0.9c-0.1-0.5,0.3-0.9,0.8-1
			C129.8,167.4,130.2,167.9,130.4,168.4z"/>
		<path class="st178" d="M87.3,167.9c0.7,0,1.2,0.4,1.2,1.2c0,0.6-0.4,1.1-1.1,1.1c-0.8,0-1.2-0.4-1.2-1.2
			C86.2,168.4,86.6,168.1,87.3,167.9z"/>
		<path class="st178" d="M95.6,169.7c0.6,0.1,1.1,0.5,1,1.1c0,0.8-0.6,1.2-1.3,1.1c-0.6-0.1-1-0.6-0.9-1.2
			C94.5,170.1,95,169.7,95.6,169.7z"/>
		<path class="st178" d="M103.6,170.9c0.7,0,1.1,0.4,1.1,1.1c0.1,0.7-0.4,1.1-1,1.2c-0.7,0.1-1.1-0.4-1.2-1
			C102.5,171.4,103,171.1,103.6,170.9z"/>
		<path class="st178" d="M62.1,173.3c-0.2,0.6-0.6,1-1.2,0.9c-0.4-0.1-0.9-0.5-0.8-1c0.1-0.6,0.6-1,1.2-0.9
			C61.8,172.3,62.1,172.7,62.1,173.3z"/>
		<path class="st178" d="M112.3,173.7c-0.1,0.6-0.4,1-1.1,1c-0.5,0-0.9-0.4-1-0.8c-0.1-0.6,0.3-1.1,0.9-1.2
			C111.8,172.7,112.2,173.2,112.3,173.7z"/>
		<path class="st178" d="M69.2,175.9c-0.6-0.2-1-0.6-0.9-1.2c0.1-0.4,0.5-0.9,1-0.8c0.6,0.1,1,0.6,0.9,1.2
			C70.1,175.6,69.7,176,69.2,175.9z"/>
		<path class="st178" d="M78.5,176c0,0.6-0.4,1-1,1.1c-0.5,0.1-0.9-0.3-1-0.8c-0.2-0.7,0.3-1.1,0.8-1.3
			C77.9,174.9,78.2,175.4,78.5,176z"/>
		<path class="st178" d="M86.6,177.1c0,0.7-0.3,1.1-0.8,1.2c-0.6,0.2-1.1-0.3-1.2-0.9c-0.1-0.5,0.3-0.9,0.8-1
			C86.1,176.1,86.4,176.7,86.6,177.1z"/>
		<path class="st178" d="M81.5,96.7c-1-0.7-1.7-1.6-1.8-2.9c-0.4-1-0.2-2,0.1-2.9c1.9-1.6,0.7-3.7,0.9-5.6c0-1-0.2-2,0.8-2.7
			c0.8-1.3,1.9-1.9,3.4-1.8c0.8,0.2,1.6,0.5,2.4,0.7c1.9-0.2,2.1,0.9,2.1,2.2c0.6-0.8,1.4-1.6,2.7-1.7c1.2-0.1,2.3,0,3.4,0.5
			c1.3,0.7,2.4,2.2,4.2,1.9c1.1,0,2.3,0,3.4,0c2,0.7,2.3,2.3,2.5,4.1c-0.5,1.2-1,2.5-2.5,2.9c-1,0-2.1,0.1-3.1,0.1
			c-0.2,0.1-0.4,0.1-0.5,0.1c-1.2,0-2-2.1-3.2-0.8c-1.1,1.1,0.9,2.1,0.5,3.3c0.3,1.1-1.4,1.9-0.5,3.1c-1.2,0.5-1.9,1.9-3.4,1.8
			c-1,0.4-2.1,0.1-3.1-0.1c-1.3-0.4-2-1.4-2.2-2.6c-0.9,1.1-2.1,1.6-3.6,1.2C83,97.6,82,97.7,81.5,96.7z"/>
		<path class="st178" d="M95.7,83.3c-1.2-0.5-2.5-0.6-3.7-0.6c-0.1-0.9-1-1.6-0.6-2.6c0-1,0.1-2.1,0.1-3.1c1.3-2.7,3.4-2.8,5.8-1.8
			c0.3,0.7,1.2,0.9,1.2,1.8c0,1,0.1,2.1,0.1,3.1C98.9,82.3,97.1,82.6,95.7,83.3z"/>
		<path class="st178" d="M91.3,80.1c-0.3,1,1.9,1.4,0.6,2.6c-1.2-0.1-1.7,1-2.6,1.4c-0.6-1-0.8-2.2-2.1-2.5c0.6-1.5,3-1.3,3.1-3.7
			C90.8,78.9,91.1,79.5,91.3,80.1z"/>
		<path class="st178" d="M96.7,94.2c-0.9-0.9-0.9-2.2-2.2-2.9c0.6-0.4,1-0.5,1.3-0.9c1.1-1.5,2-1.2,2.8,0.3c0.2,0.4,0.9,0.6,1.4,0.8
			C99,92.7,97.3,92.8,96.7,94.2z"/>
		<path class="st178" d="M95.7,83.3c0.7-1.3,2.8-1.4,2.9-3.2c1.5,0.8,1.2,3.4,3.8,3.3c-1,0.9-2.1,0.3-2.7,1.1
			C97.4,87,97.1,83.4,95.7,83.3z"/>
		<path class="st178" d="M80.9,85.8c0,1.4,1,2.2,1.9,3.1c-0.7,0.7-1.9,1-2.4,2c-0.4,0.3-0.7,0.4-1.1-0.1c-0.2-1-0.9-1.6-1.7-2.2
			c-1.4-1,0.6-0.7,0.5-1.2c1.2,0,1.7-0.9,2.3-1.7C80.6,85.3,80.8,85.4,80.9,85.8z"/>
		<path class="st178" d="M79.3,90.8c0.4,0,0.7,0.1,1.1,0.1c-0.5,0.9-0.7,1.9-0.7,3c-0.2,0-0.3,0-0.5,0
			C79.2,92.8,79.3,91.8,79.3,90.8z"/>
		<path class="st178" d="M84,97.4c1.4,0.1,2.5-0.8,3.6-1.7c0.6,1,0.9,2.3,2,2.8c0.4,0.7-0.2,0.8-0.6,1c-1.3,0.3-1.9,1.2-2.4,2.3
			c-0.8-0.3-0.3-1.3-0.9-1.6c0-1.2-1-1.7-1.7-2.4c-0.2-0.1-0.3-0.2-0.2-0.3C83.8,97.5,83.9,97.4,84,97.4z"/>
		<path class="st178" d="M89,99.5c0.2-0.3,0.4-0.7,0.6-1c0.9,0.6,2.1,0.5,3.1,0.7c0,0.3,0,0.6,0,1C91.6,99.4,90.3,99.6,89,99.5z"/>
		<path class="st178" d="M84,97.4c0.1,0.1,0.1,0.3,0,0.4c-1,0-2,0-3.1,0c0.2-0.3,0.4-0.7,0.7-1C82.3,97,83.1,97.2,84,97.4z"/>
		<path class="st178" d="M80.9,85.8l-0.2,0l-0.2-0.1c0-1,0-2.1,0-3.1c0.4,0,0.7,0,1.1,0.1C80.9,83.7,80.9,84.7,80.9,85.8z"/>
		<path class="st178" d="M85.9,89.2c1.4,0.1,2-2.5,3.7,0.1c1.7,2.6-1.2,2-1.3,3.9C87.8,91.3,87,90.3,85.9,89.2z"/>
	</g>
	<g>
		<defs>
			<circle id="SVGID_31_" cx="88.7" cy="92.5" r="80.2"/>
		</defs>
		<clipPath id="SVGID_2_">
			<use xlink:href="#SVGID_31_"  style="overflow:visible;"/>
		</clipPath>
		<g class="st147">
			<rect x="46.1" y="139.4" transform="matrix(0.7071 -0.7071 0.7071 0.7071 -54.909 149.1742)" width="213.1" height="3"/>
			<rect x="40.3" y="134.4" transform="matrix(0.7071 -0.7071 0.7071 0.7071 -53.0652 143.6385)" width="213.1" height="3"/>
			<rect x="34.6" y="129.4" transform="matrix(0.7071 -0.7071 0.7071 0.7071 -51.2214 138.1028)" width="213.1" height="3"/>
			<rect x="28.8" y="124.4" transform="matrix(0.7071 -0.7071 0.7071 0.7071 -49.3777 132.5671)" width="213.1" height="3"/>
			<rect x="23" y="119.4" transform="matrix(0.7071 -0.7071 0.7071 0.7071 -47.5339 127.0314)" width="213.1" height="3"/>
			<rect x="17.3" y="114.4" transform="matrix(0.7071 -0.7071 0.7071 0.7071 -45.6902 121.4957)" width="213.1" height="3"/>
			<rect x="11.5" y="109.4" transform="matrix(0.7071 -0.7071 0.7071 0.7071 -43.8464 115.96)" width="213.1" height="3"/>
			<rect x="5.8" y="104.4" transform="matrix(0.7071 -0.7071 0.7071 0.7071 -42.0027 110.4243)" width="213.1" height="3"/>
			<rect x="0" y="99.4" transform="matrix(0.7071 -0.7071 0.7071 0.7071 -40.1589 104.8886)" width="213.1" height="3"/>
			<rect x="-5.8" y="94.4" transform="matrix(0.7071 -0.7071 0.7071 0.7071 -38.3152 99.3529)" width="213.1" height="3"/>
			<rect x="-11.5" y="89.4" transform="matrix(0.7071 -0.7071 0.7071 0.7071 -36.4714 93.8172)" width="213.1" height="3"/>
			<rect x="-17.3" y="84.4" transform="matrix(0.7071 -0.7071 0.7071 0.7071 -34.6277 88.2814)" width="213.1" height="3"/>
			<rect x="-23" y="79.4" transform="matrix(0.7071 -0.7071 0.7071 0.7071 -32.7839 82.7458)" width="213.1" height="3"/>
			<rect x="-28.8" y="74.5" transform="matrix(0.7071 -0.7071 0.7071 0.7071 -30.9402 77.21)" width="213.1" height="3"/>
			<rect x="-34.6" y="69.5" transform="matrix(0.7071 -0.7071 0.7071 0.7071 -29.0964 71.6743)" width="213.1" height="3"/>
			<rect x="-40.3" y="64.5" transform="matrix(0.7071 -0.7071 0.7071 0.7071 -27.2527 66.1386)" width="213.1" height="3"/>
			<rect x="-46.1" y="59.5" transform="matrix(0.7071 -0.7071 0.7071 0.7071 -25.4089 60.6029)" width="213.1" height="3"/>
			<rect x="-51.8" y="54.5" transform="matrix(0.7071 -0.7071 0.7071 0.7071 -23.5652 55.0672)" width="213.1" height="3"/>
			<rect x="-57.6" y="49.5" transform="matrix(0.7071 -0.7071 0.7071 0.7071 -21.7214 49.5315)" width="213.1" height="3"/>
			<rect x="-63.4" y="44.5" transform="matrix(0.7071 -0.7071 0.7071 0.7071 -19.8777 43.9958)" width="213.1" height="3"/>
			<rect x="-69.1" y="39.5" transform="matrix(0.7071 -0.7071 0.7071 0.7071 -18.0339 38.4601)" width="213.1" height="3"/>
			<rect x="-74.9" y="34.5" transform="matrix(0.7071 -0.7071 0.7071 0.7071 -16.1902 32.9244)" width="213.1" height="3"/>
		</g>
	</g>
	<g>
		<defs>
			<circle id="SVGID_33_" cx="88.7" cy="92.5" r="70.7"/>
		</defs>
		<use xlink:href="#SVGID_33_"  style="overflow:visible;fill:#D0DD28;"/>
		<clipPath id="SVGID_4_">
			<use xlink:href="#SVGID_33_"  style="overflow:visible;"/>
		</clipPath>
		<g class="st149">
			
				<rect x="51.2" y="133.8" transform="matrix(0.7071 -0.7071 0.7071 0.7071 -53.0604 142.1065)" class="st181" width="187.7" height="2.6"/>
			
				<rect x="46.1" y="129.4" transform="matrix(0.7071 -0.7071 0.7071 0.7071 -51.4363 137.2301)" class="st181" width="187.7" height="2.6"/>
			
				<rect x="41" y="125" transform="matrix(0.7071 -0.7071 0.7071 0.7071 -49.8121 132.3537)" class="st181" width="187.7" height="2.6"/>
			
				<rect x="35.9" y="120.6" transform="matrix(0.7071 -0.7071 0.7071 0.7071 -48.1879 127.4772)" class="st181" width="187.7" height="2.6"/>
			
				<rect x="30.9" y="116.2" transform="matrix(0.7071 -0.7071 0.7071 0.7071 -46.5638 122.6008)" class="st181" width="187.7" height="2.6"/>
			
				<rect x="25.8" y="111.8" transform="matrix(0.7071 -0.7071 0.7071 0.7071 -44.9396 117.7244)" class="st181" width="187.7" height="2.6"/>
			
				<rect x="20.7" y="107.4" transform="matrix(0.7071 -0.7071 0.7071 0.7071 -43.3154 112.848)" class="st181" width="187.7" height="2.6"/>
			
				<rect x="15.6" y="103" transform="matrix(0.7071 -0.7071 0.7071 0.7071 -41.6913 107.9716)" class="st181" width="187.7" height="2.6"/>
			
				<rect x="10.6" y="98.6" transform="matrix(0.7071 -0.7071 0.7071 0.7071 -40.0671 103.0952)" class="st181" width="187.7" height="2.6"/>
			
				<rect x="5.5" y="94.2" transform="matrix(0.7071 -0.7071 0.7071 0.7071 -38.443 98.2188)" class="st181" width="187.7" height="2.6"/>
			
				<rect x="0.4" y="89.8" transform="matrix(0.7071 -0.7071 0.7071 0.7071 -36.8188 93.3424)" class="st181" width="187.7" height="2.6"/>
			
				<rect x="-4.7" y="85.4" transform="matrix(0.7071 -0.7071 0.7071 0.7071 -35.1946 88.466)" class="st181" width="187.7" height="2.6"/>
			
				<rect x="-9.7" y="81" transform="matrix(0.7071 -0.7071 0.7071 0.7071 -33.5705 83.5896)" class="st181" width="187.7" height="2.6"/>
			
				<rect x="-14.8" y="76.6" transform="matrix(0.7071 -0.7071 0.7071 0.7071 -31.9463 78.7132)" class="st181" width="187.7" height="2.6"/>
			
				<rect x="-19.9" y="72.2" transform="matrix(0.7071 -0.7071 0.7071 0.7071 -30.3221 73.8368)" class="st181" width="187.7" height="2.6"/>
			
				<rect x="-25" y="67.8" transform="matrix(0.7071 -0.7071 0.7071 0.7071 -28.698 68.9604)" class="st181" width="187.7" height="2.6"/>
			
				<rect x="-30" y="63.4" transform="matrix(0.7071 -0.7071 0.7071 0.7071 -27.0738 64.084)" class="st181" width="187.7" height="2.6"/>
			
				<rect x="-35.1" y="59" transform="matrix(0.7071 -0.7071 0.7071 0.7071 -25.4497 59.2076)" class="st181" width="187.7" height="2.6"/>
			
				<rect x="-40.2" y="54.6" transform="matrix(0.7071 -0.7071 0.7071 0.7071 -23.8255 54.3311)" class="st181" width="187.7" height="2.6"/>
			
				<rect x="-45.3" y="50.2" transform="matrix(0.7071 -0.7071 0.7071 0.7071 -22.2013 49.4547)" class="st181" width="187.7" height="2.6"/>
			
				<rect x="-50.3" y="45.8" transform="matrix(0.7071 -0.7071 0.7071 0.7071 -20.5772 44.5783)" class="st181" width="187.7" height="2.6"/>
			
				<rect x="-55.4" y="41.4" transform="matrix(0.7071 -0.7071 0.7071 0.7071 -18.953 39.7019)" class="st181" width="187.7" height="2.6"/>
		</g>
	</g>
</g>
</svg>
