<?xml version="1.0" encoding="utf-8"?>
<!-- Generator: Adobe Illustrator 23.0.1, SVG Export Plug-In . SVG Version: 6.00 Build 0)  -->
<svg version="1.1" id="Layer_1" xmlns="http://www.w3.org/2000/svg" xmlns:xlink="http://www.w3.org/1999/xlink" x="0px" y="0px"
	 viewBox="0 0 180 66.1" style="enable-background:new 0 0 180 66.1;" xml:space="preserve">
<style type="text/css">
	.st0{fill:#E11B4E;}
	.st1{fill:#EAA820;}
	.st2{fill:none;stroke:#000000;stroke-miterlimit:10;}
	.st3{fill:#EAA820;stroke:#000000;stroke-miterlimit:10;}
	.st4{fill:#FFFFFF;}
	.st5{fill:#0B0B0B;}
	.st6{fill:#222223;}
	.st7{fill:#1C1B1C;}
	.st8{fill:#0E0E0E;}
	.st9{fill:#1A1A1B;}
	.st10{fill:#F1F1F2;}
	.st11{fill:#39383A;}
	.st12{fill:#EDEDEE;}
	.st13{fill:#2E2D2F;}
	.st14{fill:#3F3E40;}
	.st15{fill:#E6E7E8;}
	.st16{fill:#EAEAEB;}
	.st17{fill:#EAEBEC;}
	.st18{fill:#E4E5E6;}
	.st19{fill:#E9EAEB;}
	.st20{fill:#282728;}
	.st21{fill:#424143;}
	.st22{fill:#E6E6E7;}
	.st23{fill:#DDDEE0;}
	.st24{fill:#DDDEDF;}
	.st25{fill:#D8D9DB;}
	.st26{fill:#373738;}
	.st27{fill:#DEDFE1;}
	.st28{fill:#383738;}
	.st29{fill:#171718;}
	.st30{fill:#161616;}
	.st31{fill:#1E1D1E;}
	.st32{fill:#1B1B1C;}
	.st33{fill:#1A191A;}
	.st34{fill:#171617;}
	.st35{fill:#181818;}
	.st36{fill:#161617;}
	.st37{fill:#151516;}
	.st38{fill:#1C1C1D;}
	.st39{fill:#151415;}
	.st40{fill:#121213;}
	.st41{fill:#0F0F10;}
	.st42{fill:#101011;}
	.st43{fill:#141415;}
	.st44{fill:#171717;}
	.st45{fill:#101010;}
	.st46{fill:#111112;}
	.st47{fill:#131314;}
	.st48{fill:#1E1E1F;}
	.st49{fill:#212021;}
	.st50{fill:#232324;}
	.st51{fill:#121112;}
	.st52{fill:#141414;}
	.st53{fill:#262526;}
	.st54{fill:#0E0D0E;}
	.st55{fill:#222222;}
	.st56{fill:#0C0C0D;}
	.st57{fill:#181819;}
	.st58{fill:#1B1A1B;}
	.st59{fill:#1D1D1E;}
	.st60{fill:#0F0F0F;}
	.st61{fill:#131313;}
	.st62{fill:#1F1E1F;}
	.st63{fill:#212122;}
	.st64{fill:#272728;}
	.st65{fill:#2C2B2D;}
	.st66{fill:#2A292A;}
	.st67{fill:#F6F6F7;}
	.st68{fill:#F3F4F4;}
	.st69{fill:#F1F2F2;}
	.st70{fill:#F2F2F3;}
	.st71{fill:#302F31;}
	.st72{fill:#191919;}
	.st73{fill:#323233;}
	.st74{fill:#F5F6F6;}
	.st75{fill:#F0F1F1;}
	.st76{fill:#EFF0F1;}
	.st77{fill:#F5F5F6;}
	.st78{fill:#EFEFF0;}
	.st79{fill:#1C1C1C;}
	.st80{fill:#232223;}
	.st81{fill:#212121;}
	.st82{fill:#F0F1F2;}
	.st83{fill:#3B3A3C;}
	.st84{fill:#343435;}
	.st85{fill:#282829;}
	.st86{fill:#3E3E40;}
	.st87{fill:#F4F5F5;}
	.st88{fill:#EEEFF0;}
	.st89{fill:#48484A;}
	.st90{fill:#3E3D3F;}
	.st91{fill:#464547;}
	.st92{fill:#434345;}
	.st93{fill:#202021;}
	.st94{fill:#151515;}
	.st95{fill:#0D0D0D;}
	.st96{fill:#0B0B0C;}
	.st97{fill:#0B0A0B;}
	.st98{fill:#383739;}
	.st99{fill:#323133;}
	.st100{fill:#2D2D2E;}
	.st101{fill:#242324;}
	.st102{fill:#202020;}
	.st103{fill:#39393A;}
	.st104{fill:#434244;}
	.st105{fill:#474748;}
	.st106{fill:#49494B;}
	.st107{fill:#4F4F51;}
	.st108{fill:#333334;}
	.st109{fill:#242425;}
	.st110{fill:#292829;}
	.st111{fill:#2F2E30;}
	.st112{fill:#363537;}
	.st113{fill:#3D3D3E;}
	.st114{fill:#424244;}
	.st115{fill:#111111;}
	.st116{fill:#414142;}
	.st117{fill:#4D4D4F;}
	.st118{fill:#616264;}
	.st119{fill:#57575A;}
	.st120{fill:#76777A;}
	.st121{fill:#6B6D6F;}
	.st122{fill:#131213;}
	.st123{fill:#F0F0F1;}
	.st124{fill:#F3F3F4;}
	.st125{fill:#E8E9EA;}
	.st126{fill:#ECEDED;}
	.st127{fill:#F5F5F5;}
	.st128{fill:#E7E7E8;}
	.st129{fill:#ECEDEE;}
	.st130{fill:#EBEBEC;}
	.st131{fill:#E8E8E9;}
	.st132{fill:#EEEFEF;}
	.st133{fill:#EFF0F0;}
	.st134{fill:#EBECEC;}
	.st135{fill:#727476;}
	.st136{fill:#6C6D70;}
	.st137{fill:#626366;}
	.st138{fill:#A9ABAD;}
	.st139{fill:#999B9E;}
	.st140{fill:#757779;}
	.st141{fill:#8C8E91;}
	.st142{fill:#848689;}
	.st143{fill:#A7A9AB;}
	.st144{fill:none;}
	.st145{fill:#00BEEC;}
	.st146{fill:#EBAF1F;}
	.st147{clip-path:url(#SVGID_2_);}
	.st148{fill:#F05225;}
	.st149{clip-path:url(#SVGID_4_);}
	.st150{fill:#69CCE7;}
	.st151{fill:#EE2F7A;}
	.st152{fill:none;stroke:#000000;stroke-width:0.5;stroke-linecap:round;stroke-miterlimit:10;}
	.st153{clip-path:url(#SVGID_6_);}
	.st154{clip-path:url(#SVGID_8_);}
	.st155{fill:none;stroke:#000000;stroke-width:4;stroke-miterlimit:10;}
	.st156{clip-path:url(#SVGID_10_);}
	.st157{clip-path:url(#SVGID_12_);}
	.st158{fill:#EBA921;}
	.st159{clip-path:url(#SVGID_14_);}
	.st160{clip-path:url(#SVGID_16_);}
	.st161{clip-path:url(#SVGID_18_);}
	.st162{clip-path:url(#SVGID_20_);}
	.st163{fill:#F16EA1;}
	.st164{clip-path:url(#SVGID_22_);}
	.st165{clip-path:url(#SVGID_24_);}
	.st166{fill:#5ABA47;}
	.st167{fill:#F26522;}
	.st168{fill:#3AC0C7;}
	.st169{fill:#EE4297;}
	.st170{fill:#3B50A3;}
	.st171{fill:#00B9B6;}
	.st172{fill:#FFC214;}
	.st173{clip-path:url(#SVGID_26_);}
	.st174{fill:#FDB92D;}
	.st175{clip-path:url(#SVGID_28_);}
	.st176{fill:#ED1E25;}
	.st177{clip-path:url(#SVGID_30_);}
	.st178{fill:#ED2085;}
	.st179{clip-path:url(#SVGID_32_);}
	.st180{clip-path:url(#SVGID_34_);}
	.st181{fill:#D0DD28;}
	.st182{fill:#E1A225;}
	.st183{fill:#B81F69;}
	.st184{fill:#010101;}
	.st185{fill:#EC2227;}
	.st186{fill:#F26249;}
	.st187{fill:#231F20;}
	.st188{fill:#C4D5DD;}
	.st189{fill:#D5E7F0;}
	.st190{fill:#CC2027;}
	.st191{fill:#9A1E21;}
	.st192{fill:#F26724;}
	.st193{fill:#B92025;}
	.st194{fill:#DCDDDE;}
	.st195{fill:#EAEAEA;}
</style>
<g>
	<g>
		<defs>
			<rect id="SVGID_27_" y="0" width="180" height="66.1"/>
		</defs>
		<clipPath id="SVGID_2_">
			<use xlink:href="#SVGID_27_"  style="overflow:visible;"/>
		</clipPath>
		<polygon class="st147" points="133.1,-19.3 48,86.5 46.9,85.4 132,-20.4 		"/>
		<g class="st147">
			<polygon points="43.1,-53.8 -42,52 -43.1,50.9 42,-54.9 			"/>
			<polygon points="50.1,-51.2 -35.1,54.6 -36.2,53.5 48.9,-52.3 			"/>
			<polygon points="57,-48.6 -28.2,57.2 -29.3,56.1 55.9,-49.7 			"/>
			<polygon points="63.9,-46 -21.3,59.8 -22.4,58.7 62.8,-47.1 			"/>
			<polygon points="70.8,-43.4 -14.3,62.4 -15.4,61.3 69.7,-44.5 			"/>
			<polygon points="77.7,-40.8 -7.4,65 -8.5,63.9 76.6,-41.9 			"/>
			<polygon points="84.7,-38.2 -0.5,67.6 -1.6,66.5 83.6,-39.3 			"/>
			<polygon points="91.6,-35.6 6.4,70.2 5.3,69.1 90.5,-36.7 			"/>
			<polygon points="98.5,-33 13.4,72.8 12.3,71.7 97.4,-34.1 			"/>
			<polygon points="105.4,-30.4 20.3,75.4 19.2,74.3 104.3,-31.5 			"/>
			<polygon points="112.4,-27.8 27.2,78 26.1,76.9 111.3,-28.9 			"/>
			<polygon points="119.3,-25.2 34.1,80.6 33,79.5 118.2,-26.3 			"/>
			<polygon points="126.2,-22.6 41.1,83.2 39.9,82.1 125.1,-23.7 			"/>
			<polygon points="133.1,-20 48,85.8 46.9,84.7 132,-21.1 			"/>
			<polygon points="140.1,-17.4 54.9,88.4 53.8,87.3 138.9,-18.5 			"/>
			<polygon points="147,-14.8 61.8,91 60.7,89.9 145.9,-15.9 			"/>
			<polygon points="153.9,-12.2 68.7,93.6 67.6,92.5 152.8,-13.3 			"/>
			<polygon points="160.8,-9.6 75.7,96.2 74.6,95.1 159.7,-10.7 			"/>
			<polygon points="167.7,-7 82.6,98.8 81.5,97.7 166.6,-8.1 			"/>
			<polygon points="174.7,-4.4 89.5,101.4 88.4,100.3 173.6,-5.5 			"/>
			<polygon points="181.6,-1.8 96.4,104 95.3,102.9 180.5,-2.9 			"/>
			<polygon points="188.5,0.8 103.4,106.6 102.3,105.5 187.4,-0.3 			"/>
			<polygon points="195.4,3.4 110.3,109.2 109.2,108.1 194.3,2.3 			"/>
			<polygon points="202.4,6 117.2,111.8 116.1,110.7 201.3,4.9 			"/>
			<polygon points="209.3,8.6 124.1,114.4 123,113.3 208.2,7.5 			"/>
			<polygon points="216.2,11.2 131.1,117 129.9,115.9 215.1,10.1 			"/>
			<polygon points="223.1,13.8 138,119.6 136.9,118.5 222,12.7 			"/>
		</g>
	</g>
	<g>
		<path class="st176" d="M182.3,67.5c-21.2-7.8-163.4-7.8-184.6,0c21.2-7.8,21.2-60,0-67.8c21.2,7.8,163.4,7.8,184.6,0
			C161.1,7.5,161.1,59.7,182.3,67.5z"/>
	</g>
	<g>
		<defs>
			<rect id="SVGID_29_" x="8.3" y="3.6" width="163.4" height="60"/>
		</defs>
		<clipPath id="SVGID_4_">
			<use xlink:href="#SVGID_29_"  style="overflow:visible;"/>
		</clipPath>
		<g class="st149">
			<path d="M15.2,67.3c-0.1,0.9-0.6,1.4-1.5,1.3c-0.8-0.1-1.2-0.6-1.2-1.4c0.1-0.8,0.6-1.3,1.4-1.3C14.8,66.1,15.2,66.6,15.2,67.3z"
				/>
			<path d="M27.1,66.5c-0.8-0.1-1.3-0.5-1.2-1.3c0-0.8,0.5-1.2,1.3-1.2c0.7,0,1.2,0.5,1.2,1.2C28.3,66.1,27.8,66.5,27.1,66.5z"/>
			<path d="M31.1,67.4c-0.7-0.1-1.2-0.4-1.2-1.2c0-0.8,0.4-1.3,1.2-1.3c0.8,0,1.2,0.5,1.2,1.3C32.3,67,31.9,67.4,31.1,67.4z"/>
			<path d="M34.9,65.5c0.7,0,1.2,0.4,1.3,1.1c0,0.7-0.4,1.2-1.1,1.2c-0.7,0-1.2-0.4-1.2-1.1C33.7,66,34.2,65.6,34.9,65.5z"/>
			<path d="M7.2,65.8C7,66.5,6.7,67,6,67c-0.7,0-1.1-0.4-1.1-1.1c0-0.7,0.4-1.2,1.2-1.2C6.7,64.8,7,65.2,7.2,65.8z"/>
			<path d="M8.6,66.5c0.1-0.7,0.4-1.2,1.2-1.2c0.8,0,1.3,0.4,1.2,1.3c0,0.7-0.5,1.1-1.2,1.1C9,67.6,8.7,67.2,8.6,66.5z"/>
			<path d="M24.7,60.6c-0.1,0.6-0.5,1.1-1.2,1.1c-0.7,0-1.1-0.4-1.1-1.1c0-0.7,0.5-1.2,1.2-1.1C24.3,59.5,24.6,60,24.7,60.6z"/>
			<path d="M28.8,61.2c-0.1,0.7-0.5,1.2-1.2,1.2c-0.7,0-1.1-0.4-1.1-1.1c0-0.7,0.5-1.2,1.2-1.2C28.4,60.1,28.7,60.6,28.8,61.2z"/>
			<path d="M19.5,60.8c-0.7-0.1-1.1-0.4-1.1-1.1c0-0.7,0.4-1.1,1.1-1.1c0.7,0,1.1,0.4,1.1,1.1C20.6,60.3,20.1,60.7,19.5,60.8z"/>
			<path d="M10.7,63.5c-0.6-0.1-1.1-0.4-1.1-1.1c0-0.7,0.4-1.1,1.1-1.1c0.7,0,1.1,0.4,1.1,1.1C11.8,63,11.4,63.3,10.7,63.5z"/>
			<path d="M11.2,57.3c0.7,0,1,0.3,1,0.9c0,0.7-0.4,1-1,0.9c-0.6,0-0.9-0.4-0.8-1C10.4,57.6,10.7,57.4,11.2,57.3z"/>
			<path d="M7.5,61.7c0,0.6-0.3,1-1,1c-0.6,0-0.9-0.3-0.9-0.9c0-0.6,0.3-1,1-1C7.2,60.8,7.5,61.1,7.5,61.7z"/>
			<path d="M3.4,61c-0.1,0.5-0.4,0.9-1,0.8c-0.5-0.1-0.8-0.4-0.7-0.9c0.1-0.6,0.4-0.9,1-0.8C3.1,60.1,3.4,60.4,3.4,61z"/>
			<path d="M37.3,58.5c-0.1,0.6-0.3,0.9-0.9,0.9c-0.6,0-0.9-0.4-0.9-0.9c0-0.5,0.3-0.8,0.8-0.8C37,57.6,37.3,58,37.3,58.5z"/>
			<path d="M16.4,59.1c-0.1,0.6-0.4,1-1,1c-0.6,0-1-0.4-1-1c0-0.6,0.4-1,1-1C16,58.1,16.3,58.5,16.4,59.1z"/>
			<path d="M32.3,57c0.6,0,0.9,0.3,0.9,0.9c0,0.6-0.3,0.9-0.9,0.9c-0.6,0-0.9-0.3-0.9-0.9C31.4,57.4,31.7,57.1,32.3,57z"/>
			<path d="M8,57.5c0,0.6-0.3,0.9-0.7,1c-0.6,0.1-0.9-0.2-1-0.8c0-0.6,0.3-0.9,0.9-0.9C7.7,56.8,7.9,57.2,8,57.5z"/>
			<path d="M28.6,56.2c0.6,0.1,0.9,0.4,0.8,1c0,0.6-0.4,0.9-1,0.8c-0.6,0-0.9-0.4-0.8-1C27.7,56.4,28,56.2,28.6,56.2z"/>
			<path d="M25.4,56.5c0,0.6-0.3,0.9-0.9,0.9c-0.6,0-1-0.3-1-0.9c0-0.6,0.3-0.9,0.9-0.9C25,55.6,25.3,55.9,25.4,56.5z"/>
			<path d="M21.2,55.5c0,0.6-0.3,0.9-0.8,1c-0.6,0-0.9-0.2-1-0.8c0-0.6,0.2-0.9,0.8-1C20.8,54.7,21.2,55,21.2,55.5z"/>
			<path d="M16.3,54.1c0.5,0.1,0.9,0.4,0.8,1c0,0.5-0.4,0.8-0.9,0.8c-0.6,0-0.9-0.4-0.8-1C15.4,54.4,15.8,54.2,16.3,54.1z"/>
			<path d="M2.9,64.9c0,0.7-0.4,1-1,1C1.3,65.9,1,65.6,1,65c0-0.6,0.4-1,1-1C2.5,64.1,2.8,64.4,2.9,64.9z"/>
			<path d="M38.1,54.4c-0.1,0.5-0.3,0.8-0.8,0.8c-0.5,0-0.8-0.3-0.7-0.8c0-0.4,0.4-0.7,0.8-0.6C37.8,53.7,38,54.1,38.1,54.4z"/>
			<path d="M40.6,60.3c-0.5,0-0.9-0.3-0.9-0.8c-0.1-0.6,0.3-0.9,0.9-0.9c0.5,0,0.8,0.3,0.8,0.8C41.4,59.9,41,60.2,40.6,60.3z"/>
			<path d="M45.4,60c-0.1,0.5-0.4,0.8-0.9,0.8c-0.4,0-0.7-0.3-0.7-0.8c0-0.5,0.4-0.8,0.9-0.8C45.1,59.3,45.3,59.6,45.4,60z"/>
			<path d="M48.1,64.1c0.5,0.1,0.8,0.3,0.9,0.8c0,0.4-0.3,0.7-0.7,0.8c-0.5,0.1-0.9-0.2-0.9-0.7C47.2,64.6,47.6,64.3,48.1,64.1z"/>
			<path d="M3.4,57.6c-0.5-0.1-0.8-0.4-0.8-0.9c0-0.4,0.3-0.7,0.8-0.7c0.5,0,0.8,0.4,0.8,0.9C4.1,57.3,3.8,57.5,3.4,57.6z"/>
			<path d="M17.6,51c-0.1,0.4-0.3,0.7-0.8,0.7c-0.5,0-0.8-0.4-0.7-0.9c0.1-0.4,0.4-0.7,0.8-0.6C17.3,50.2,17.6,50.5,17.6,51z"/>
			<path d="M20.9,50.7c0.4,0,0.7,0.3,0.8,0.7c0.1,0.5-0.3,0.8-0.7,0.9c-0.4,0-0.7-0.3-0.8-0.7C20.1,51.1,20.4,50.8,20.9,50.7z"/>
			<path d="M25.8,52.3c-0.1,0.5-0.3,0.8-0.8,0.9c-0.4,0-0.7-0.3-0.8-0.7c-0.1-0.5,0.2-0.8,0.7-0.9C25.4,51.5,25.7,51.9,25.8,52.3z"
				/>
			<path d="M29.1,53.8c-0.5-0.1-0.8-0.3-0.8-0.8c0-0.4,0.3-0.7,0.7-0.8c0.5-0.1,0.8,0.3,0.9,0.7C30,53.4,29.6,53.7,29.1,53.8z"/>
			<path d="M34,53.8c-0.1,0.5-0.4,0.9-0.9,0.8c-0.4,0-0.7-0.4-0.7-0.8c0-0.5,0.4-0.8,0.9-0.8C33.7,53.1,33.9,53.5,34,53.8z"/>
			<path d="M13,54.1c-0.1,0.5-0.4,0.8-0.9,0.8c-0.4,0-0.7-0.3-0.8-0.7c-0.1-0.5,0.3-0.9,0.8-0.9C12.6,53.3,12.9,53.7,13,54.1z"/>
			<path d="M29.7,48.3c0.4,0,0.6,0.3,0.6,0.7c0,0.4-0.3,0.6-0.7,0.6c-0.4,0-0.6-0.3-0.6-0.7C29.1,48.4,29.4,48.3,29.7,48.3z"/>
			<path d="M25.3,48.3c0-0.4,0.2-0.6,0.6-0.6c0.4,0,0.6,0.2,0.6,0.6c0,0.4-0.2,0.6-0.6,0.6C25.5,48.9,25.3,48.7,25.3,48.3z"/>
			<path d="M21.7,47.1c0.5,0.1,0.7,0.3,0.6,0.7c0,0.4-0.3,0.6-0.7,0.5c-0.3,0-0.5-0.3-0.5-0.6C21.2,47.3,21.5,47.1,21.7,47.1z"/>
			<path d="M42,55.3c0,0.4-0.2,0.7-0.6,0.7c-0.4,0-0.7-0.1-0.7-0.5c-0.1-0.4,0.1-0.8,0.6-0.8C41.8,54.7,42,54.9,42,55.3z"/>
			<path d="M48,60.9c0-0.4,0.2-0.6,0.6-0.7c0.4,0,0.7,0.2,0.7,0.6c0,0.5-0.2,0.7-0.7,0.7C48.3,61.5,48.1,61.3,48,60.9z"/>
			<path d="M4.6,52.9c0,0.4-0.2,0.7-0.6,0.7c-0.4,0-0.6-0.2-0.7-0.6c0-0.4,0.2-0.6,0.6-0.7C4.3,52.3,4.5,52.5,4.6,52.9z"/>
			<path d="M12.7,49.7c0.4,0,0.6,0.2,0.7,0.6c0,0.4-0.1,0.7-0.5,0.7c-0.4,0-0.7-0.2-0.7-0.7C12.1,49.9,12.3,49.7,12.7,49.7z"/>
			<path d="M46.1,55.8c0,0.4-0.2,0.7-0.6,0.7c-0.4,0-0.6-0.2-0.6-0.6c0-0.3,0.2-0.5,0.5-0.6C45.8,55.3,46,55.5,46.1,55.8z"/>
			<path d="M52.2,64.9c0.4,0,0.6,0.2,0.7,0.6c0,0.5-0.3,0.7-0.7,0.7c-0.4,0-0.6-0.3-0.6-0.7C51.6,65.1,51.8,64.9,52.2,64.9z"/>
			<path d="M33.7,50.4c-0.4-0.1-0.6-0.3-0.5-0.7c0.1-0.4,0.4-0.6,0.7-0.5c0.3,0.1,0.5,0.3,0.5,0.6C34.4,50.2,34.1,50.4,33.7,50.4z"
				/>
			<path d="M56.9,62.9c-0.4-0.1-0.6-0.3-0.6-0.6c0-0.3,0.2-0.5,0.6-0.5c0.3,0,0.5,0.2,0.5,0.6C57.4,62.7,57.1,62.8,56.9,62.9z"/>
			<path d="M52.8,60.9c0.3,0.1,0.5,0.2,0.5,0.6c0,0.4-0.2,0.6-0.6,0.6c-0.3,0-0.5-0.2-0.5-0.6C52.2,61.1,52.5,60.9,52.8,60.9z"/>
			<path d="M53.6,57.9c-0.3-0.1-0.6-0.3-0.5-0.6c0.1-0.3,0.3-0.5,0.6-0.4c0.2,0.1,0.4,0.3,0.4,0.5C54.2,57.7,54,57.9,53.6,57.9z"/>
			<path d="M49.5,56.2c0.4,0,0.6,0.2,0.7,0.5c0,0.4-0.2,0.6-0.6,0.6c-0.3,0-0.5-0.2-0.5-0.6C49,56.4,49.3,56.3,49.5,56.2z"/>
			<path d="M50.1,52.2c0.3,0,0.5,0.2,0.5,0.4c0.1,0.3-0.1,0.5-0.4,0.6c-0.3,0.1-0.5-0.2-0.5-0.4C49.6,52.5,49.8,52.3,50.1,52.2z"/>
			<path d="M-0.1,52.7c-0.4-0.1-0.6-0.3-0.6-0.6c0-0.4,0.3-0.6,0.7-0.6c0.3,0,0.5,0.3,0.5,0.6C0.4,52.5,0.1,52.6-0.1,52.7z"/>
			<path d="M46.1,52.4c-0.3,0-0.5-0.2-0.6-0.5c0-0.3,0.2-0.5,0.5-0.6c0.3,0,0.5,0.2,0.6,0.5C46.6,52.1,46.4,52.3,46.1,52.4z"/>
			<path d="M42,50.6c0.4,0.1,0.6,0.3,0.6,0.6c0,0.4-0.3,0.6-0.7,0.5c-0.3-0.1-0.5-0.3-0.4-0.6C41.5,50.8,41.7,50.7,42,50.6z"/>
			<path d="M38.5,50.3c0,0.4-0.2,0.6-0.6,0.6c-0.3,0-0.5-0.2-0.6-0.5c0-0.4,0.2-0.6,0.6-0.6C38.2,49.8,38.4,50,38.5,50.3z"/>
			<path d="M4.6,48.3c0.3,0.1,0.5,0.3,0.5,0.6c0,0.3-0.2,0.5-0.6,0.5c-0.3,0-0.5-0.2-0.5-0.6C4,48.5,4.2,48.4,4.6,48.3z"/>
			<path d="M0.7,47.5c0.3,0,0.5,0.2,0.6,0.5c0,0.3-0.2,0.4-0.4,0.5c-0.3,0.1-0.6-0.1-0.6-0.4C0.2,47.8,0.4,47.6,0.7,47.5z"/>
			<path d="M43.4,47.2c-0.1,0.3-0.3,0.5-0.6,0.4c-0.2-0.1-0.4-0.3-0.4-0.5c0.1-0.3,0.3-0.5,0.6-0.4C43.2,46.7,43.4,46.9,43.4,47.2z"
				/>
			<path d="M18.3,46.8c-0.1,0.5-0.3,0.7-0.7,0.6c-0.3,0-0.5-0.3-0.5-0.6c0-0.4,0.3-0.6,0.7-0.5C18.1,46.3,18.2,46.6,18.3,46.8z"/>
			<path d="M39.3,46.2c0,0.3-0.2,0.5-0.5,0.6c-0.3,0-0.4-0.2-0.5-0.4c-0.1-0.3,0.1-0.6,0.4-0.6C39,45.7,39.2,45.9,39.3,46.2z"/>
			<path d="M13.7,46.8c-0.4-0.1-0.6-0.3-0.6-0.6c0-0.4,0.3-0.6,0.7-0.6c0.3,0,0.5,0.3,0.5,0.6C14.1,46.6,13.9,46.8,13.7,46.8z"/>
			<path d="M34.8,46.2c-0.4-0.1-0.6-0.3-0.6-0.6c0-0.3,0.2-0.5,0.5-0.5c0.3,0,0.6,0.2,0.6,0.5C35.2,46,34.9,46.1,34.8,46.2z"/>
			<path d="M30.7,45.7c-0.4,0-0.6-0.2-0.6-0.5c0-0.3,0.2-0.5,0.5-0.6c0.3,0,0.5,0.2,0.6,0.5C31.2,45.4,30.8,45.5,30.7,45.7z"/>
			<path d="M26.4,43.6c0.4,0.1,0.6,0.3,0.6,0.6c0,0.3-0.2,0.5-0.6,0.5c-0.3,0-0.5-0.2-0.5-0.6C26,43.8,26.2,43.7,26.4,43.6z"/>
			<path d="M22.3,43.1c0.4,0,0.6,0.2,0.6,0.5c0,0.3-0.2,0.5-0.4,0.5c-0.3,0.1-0.6-0.1-0.7-0.4C21.8,43.4,22.1,43.2,22.3,43.1z"/>
			<path d="M56.9,66.2c-0.1,0.3-0.2,0.5-0.6,0.5c-0.4,0-0.6-0.2-0.6-0.6c0-0.4,0.3-0.6,0.7-0.5C56.7,65.6,56.9,65.9,56.9,66.2z"/>
			<path d="M18.8,42.7c-0.1,0.4-0.2,0.6-0.6,0.6c-0.3,0-0.4-0.2-0.5-0.4c-0.1-0.3,0.2-0.5,0.5-0.6C18.6,42.2,18.7,42.5,18.8,42.7z"
				/>
		</g>
	</g>
</g>
</svg>
