<?xml version="1.0" encoding="utf-8"?>
<!-- Generator: Adobe Illustrator 23.0.1, SVG Export Plug-In . SVG Version: 6.00 Build 0)  -->
<svg version="1.1" id="Layer_1" xmlns="http://www.w3.org/2000/svg" xmlns:xlink="http://www.w3.org/1999/xlink" x="0px" y="0px"
	 viewBox="0 0 180 152.5" style="enable-background:new 0 0 180 152.5;" xml:space="preserve">
<style type="text/css">
	.st0{fill:#E11B4E;}
	.st1{fill:#EAA820;}
	.st2{fill:none;stroke:#000000;stroke-miterlimit:10;}
	.st3{fill:#EAA820;stroke:#000000;stroke-miterlimit:10;}
	.st4{fill:#FFFFFF;}
	.st5{fill:#0B0B0B;}
	.st6{fill:#222223;}
	.st7{fill:#1C1B1C;}
	.st8{fill:#0E0E0E;}
	.st9{fill:#1A1A1B;}
	.st10{fill:#F1F1F2;}
	.st11{fill:#39383A;}
	.st12{fill:#EDEDEE;}
	.st13{fill:#2E2D2F;}
	.st14{fill:#3F3E40;}
	.st15{fill:#E6E7E8;}
	.st16{fill:#EAEAEB;}
	.st17{fill:#EAEBEC;}
	.st18{fill:#E4E5E6;}
	.st19{fill:#E9EAEB;}
	.st20{fill:#282728;}
	.st21{fill:#424143;}
	.st22{fill:#E6E6E7;}
	.st23{fill:#DDDEE0;}
	.st24{fill:#DDDEDF;}
	.st25{fill:#D8D9DB;}
	.st26{fill:#373738;}
	.st27{fill:#DEDFE1;}
	.st28{fill:#383738;}
	.st29{fill:#171718;}
	.st30{fill:#161616;}
	.st31{fill:#1E1D1E;}
	.st32{fill:#1B1B1C;}
	.st33{fill:#1A191A;}
	.st34{fill:#171617;}
	.st35{fill:#181818;}
	.st36{fill:#161617;}
	.st37{fill:#151516;}
	.st38{fill:#1C1C1D;}
	.st39{fill:#151415;}
	.st40{fill:#121213;}
	.st41{fill:#0F0F10;}
	.st42{fill:#101011;}
	.st43{fill:#141415;}
	.st44{fill:#171717;}
	.st45{fill:#101010;}
	.st46{fill:#111112;}
	.st47{fill:#131314;}
	.st48{fill:#1E1E1F;}
	.st49{fill:#212021;}
	.st50{fill:#232324;}
	.st51{fill:#121112;}
	.st52{fill:#141414;}
	.st53{fill:#262526;}
	.st54{fill:#0E0D0E;}
	.st55{fill:#222222;}
	.st56{fill:#0C0C0D;}
	.st57{fill:#181819;}
	.st58{fill:#1B1A1B;}
	.st59{fill:#1D1D1E;}
	.st60{fill:#0F0F0F;}
	.st61{fill:#131313;}
	.st62{fill:#1F1E1F;}
	.st63{fill:#212122;}
	.st64{fill:#272728;}
	.st65{fill:#2C2B2D;}
	.st66{fill:#2A292A;}
	.st67{fill:#F6F6F7;}
	.st68{fill:#F3F4F4;}
	.st69{fill:#F1F2F2;}
	.st70{fill:#F2F2F3;}
	.st71{fill:#302F31;}
	.st72{fill:#191919;}
	.st73{fill:#323233;}
	.st74{fill:#F5F6F6;}
	.st75{fill:#F0F1F1;}
	.st76{fill:#EFF0F1;}
	.st77{fill:#F5F5F6;}
	.st78{fill:#EFEFF0;}
	.st79{fill:#1C1C1C;}
	.st80{fill:#232223;}
	.st81{fill:#212121;}
	.st82{fill:#F0F1F2;}
	.st83{fill:#3B3A3C;}
	.st84{fill:#343435;}
	.st85{fill:#282829;}
	.st86{fill:#3E3E40;}
	.st87{fill:#F4F5F5;}
	.st88{fill:#EEEFF0;}
	.st89{fill:#48484A;}
	.st90{fill:#3E3D3F;}
	.st91{fill:#464547;}
	.st92{fill:#434345;}
	.st93{fill:#202021;}
	.st94{fill:#151515;}
	.st95{fill:#0D0D0D;}
	.st96{fill:#0B0B0C;}
	.st97{fill:#0B0A0B;}
	.st98{fill:#383739;}
	.st99{fill:#323133;}
	.st100{fill:#2D2D2E;}
	.st101{fill:#242324;}
	.st102{fill:#202020;}
	.st103{fill:#39393A;}
	.st104{fill:#434244;}
	.st105{fill:#474748;}
	.st106{fill:#49494B;}
	.st107{fill:#4F4F51;}
	.st108{fill:#333334;}
	.st109{fill:#242425;}
	.st110{fill:#292829;}
	.st111{fill:#2F2E30;}
	.st112{fill:#363537;}
	.st113{fill:#3D3D3E;}
	.st114{fill:#424244;}
	.st115{fill:#111111;}
	.st116{fill:#414142;}
	.st117{fill:#4D4D4F;}
	.st118{fill:#616264;}
	.st119{fill:#57575A;}
	.st120{fill:#76777A;}
	.st121{fill:#6B6D6F;}
	.st122{fill:#131213;}
	.st123{fill:#F0F0F1;}
	.st124{fill:#F3F3F4;}
	.st125{fill:#E8E9EA;}
	.st126{fill:#ECEDED;}
	.st127{fill:#F5F5F5;}
	.st128{fill:#E7E7E8;}
	.st129{fill:#ECEDEE;}
	.st130{fill:#EBEBEC;}
	.st131{fill:#E8E8E9;}
	.st132{fill:#EEEFEF;}
	.st133{fill:#EFF0F0;}
	.st134{fill:#EBECEC;}
	.st135{fill:#727476;}
	.st136{fill:#6C6D70;}
	.st137{fill:#626366;}
	.st138{fill:#A9ABAD;}
	.st139{fill:#999B9E;}
	.st140{fill:#757779;}
	.st141{fill:#8C8E91;}
	.st142{fill:#848689;}
	.st143{fill:#A7A9AB;}
	.st144{fill:none;}
	.st145{fill:#00BEEC;}
	.st146{fill:#EBAF1F;}
	.st147{clip-path:url(#SVGID_2_);}
	.st148{fill:#F05225;}
	.st149{clip-path:url(#SVGID_4_);}
	.st150{fill:#69CCE7;}
	.st151{fill:#EE2F7A;}
	.st152{fill:none;stroke:#000000;stroke-width:0.5;stroke-linecap:round;stroke-miterlimit:10;}
	.st153{clip-path:url(#SVGID_6_);}
	.st154{clip-path:url(#SVGID_8_);}
	.st155{fill:none;stroke:#000000;stroke-width:4;stroke-miterlimit:10;}
	.st156{clip-path:url(#SVGID_10_);}
	.st157{clip-path:url(#SVGID_12_);}
	.st158{fill:#EBA921;}
	.st159{clip-path:url(#SVGID_14_);}
	.st160{clip-path:url(#SVGID_16_);}
	.st161{clip-path:url(#SVGID_18_);}
	.st162{clip-path:url(#SVGID_20_);}
	.st163{fill:#F16EA1;}
	.st164{clip-path:url(#SVGID_22_);}
	.st165{clip-path:url(#SVGID_24_);}
	.st166{fill:#5ABA47;}
	.st167{fill:#F26522;}
	.st168{fill:#3AC0C7;}
	.st169{fill:#EE4297;}
	.st170{fill:#3B50A3;}
	.st171{fill:#00B9B6;}
	.st172{fill:#FFC214;}
	.st173{clip-path:url(#SVGID_26_);}
	.st174{fill:#FDB92D;}
	.st175{clip-path:url(#SVGID_28_);}
	.st176{fill:#ED1E25;}
	.st177{clip-path:url(#SVGID_30_);}
	.st178{fill:#ED2085;}
	.st179{clip-path:url(#SVGID_32_);}
	.st180{clip-path:url(#SVGID_34_);}
	.st181{fill:#D0DD28;}
	.st182{fill:#E1A225;}
	.st183{fill:#B81F69;}
	.st184{fill:#010101;}
	.st185{fill:#EC2227;}
	.st186{fill:#F26249;}
	.st187{fill:#231F20;}
	.st188{fill:#C4D5DD;}
	.st189{fill:#D5E7F0;}
	.st190{fill:#CC2027;}
	.st191{fill:#9A1E21;}
	.st192{fill:#F26724;}
	.st193{fill:#B92025;}
	.st194{fill:#DCDDDE;}
	.st195{fill:#EAEAEA;}
</style>
<g>
	<g>
		<path class="st184" d="M96.2,64.5c1.2,0.6,1.5,1.8,2.1,2.8c0.3,0.4,0,0.8-0.1,1.2c-0.3,0.5-0.5,1.1-1,1.4
			c-0.9,0.6-0.6,1.1-0.2,1.8c0.5,0.8,0.9,0.6,1.5,0.3c0.6-0.4,1.2-0.4,1.8-0.3c0.3,0.1,0.7,0.2,1,0.3c1.3,0.5,2,1.4,2.2,2.8
			c0,0.6-0.2,1.2-0.4,1.8c-0.5,1.1-1.3,1.8-2.4,1.9c1.9,1.4,2.2,2.6,1,4.7c-0.8,0.7-1.6,1.5-2.7,1.4c-0.6,0.4-1,0.1-1.4-0.4
			c-0.9-0.4-1.3-1.3-1.8-2.1c-0.4,0.4-0.8,0.8-1.3,1.1c-0.4,0.3-0.9,0.4-1.4,0.7c2,2.4,1.7,4.4-0.7,5.5c-0.6,0.3-1.3,0-2,0.3
			c-1.7-0.1-2.3-1.3-2.7-2.8c-0.2-0.6,0-1.2,0.4-1.7c0.5-1,1.2-1.7,2.2-2c0-0.2-0.1-0.2-0.2-0.3c-0.9-2.2-2.3-0.5-3.4-0.5
			c-0.4,0-0.8,0-1.2,0c-0.7,0-1.4-0.1-1.7-0.7c-0.9-1.4-2-1.2-3.2-0.7c-0.7,0-1.3,0.1-1.8-0.4c-1.6-0.5-2.2-1.7-2-3.2
			c0.2-1.8,1.5-2.6,3.4-2.9c-1.6-1-2.4-2.2-1.9-4c0.5-1.5,1.7-2.3,3.3-2.2c0.3-0.1,0.6,0,0.9,0c0.6,0.1,1,0.5,1.4,0.9
			c0.4,0.5,0.6,0.7,1.2,0.2c0.5-0.5,1-0.8,0.4-1.5c-0.4-0.6-0.6-1.3-0.4-2.1c0.1-0.3,0.4-0.5,0.6-0.8c0.3-1.3,1.3-1.7,2.5-2
			c0.6-0.4,1.2-0.3,1.8,0c1,0.6,1.8,1.4,1.9,2.7c0.6-1.5,1.8-2,3.3-1.9C95.5,63.8,95.9,64,96.2,64.5z"/>
		<path class="st184" d="M85.1,82.1c0.6,0,1.1,0,1.7,0c0.4,1.2,1.8,1.9,1.6,3.3c-0.1,0.4-0.7,0.7-0.3,1.2c-1,2.4-2.7,3-4.5,1.7
			c-1.1-0.8-1.8-1.8-1.7-3.2c-0.2-0.2-0.2-0.5-0.2-0.7C82.2,82.8,83.4,82.1,85.1,82.1z"/>
		<path class="st184" d="M85.6,65.1c0,0.3,0,0.6-0.3,0.8c-0.3,1.7-1.5,2.5-3,2.8c-0.3,0-0.6,0-0.8-0.3c-1.3-0.7-2.4-1.6-2.3-3.3
			c0.1-1.5,0.9-2.5,2.4-2.8c1.5-0.3,2.6,0.3,3.3,1.6C85.1,64.3,84.9,64.9,85.6,65.1z"/>
		<path class="st184" d="M101.1,72.2c-0.3,0-0.6,0-0.8-0.3c-2.2-0.7-2.7-1.4-2.4-3.4c0.1-0.4,0.2-0.8,0.3-1.1c1-1.3,2.2-2,3.9-1.4
			c1.6,0.6,2,1.9,2,3.5C104.1,71.4,102.6,71.8,101.1,72.2z"/>
		<path class="st184" d="M81.8,84.7c0,0.2,0,0.3,0,0.5c-0.5,0-0.6,0.5-0.8,0.8c-0.9,1-2,1.4-3.3,0.9c-1.3-0.4-2-1.4-2-2.8
			c0-1.3,0.6-2.3,1.9-2.8c0.4-0.2,1,0,1-0.7c0.7,0,1.5,0,2.2,0c-0.1,0.7-0.6,0.5-0.8,0.5c0,0-0.3,0-0.2,0
			C81.7,81.6,82.1,82.9,81.8,84.7z"/>
		<path class="st184" d="M98.9,84.8c1.6,0.8,2.3,2,1.8,3.7c-0.4,1.5-1.5,2.2-3,2.1c-1.5-0.1-2.5-0.9-2.8-2.4
			c-0.3-1.5,0.4-2.7,2.2-3.4C97.7,84.5,98.3,84.5,98.9,84.8z"/>
		<path class="st184" d="M93,60c1.3-1.7,2.5-2.3,3.9-1.6c1.4,0.6,2,1.7,1.7,3.3c-0.2,1.2-1,1.9-2.1,2.3C96,64.1,95.5,64,95,64
			C92.8,63.4,92.1,62.1,93,60z"/>
		<path class="st184" d="M88.1,62.7c-1.5-1.4-2-2.7-1.2-4c0.7-1.3,1.8-1.7,3.2-1.5c1.1,0.2,1.6,1,2.2,1.8c0.5,2.7,0.1,3.5-2.2,4.2
			C89.5,62.9,88.7,63.2,88.1,62.7z"/>
		<path class="st184" d="M106.3,79.6c1.7,1.3,2.3,2.5,1.6,3.9c-0.6,1.4-1.8,1.9-3.3,1.7c-1.1-0.2-1.7-1-2.2-1.8
			c-0.6-1.4-0.3-2.6,0.7-3.6C104.1,79,105.2,78.8,106.3,79.6z"/>
		<path class="st184" d="M107.3,73.2c2.6,1.9,2.6,3.8,0,5.6c-2.7,0.5-3.4,0.2-4.2-2.1c0-0.7,0.1-1.4,0.2-2.1
			C104.5,72.8,105.5,72.5,107.3,73.2z"/>
		<path class="st184" d="M86.7,92.5c-1.1,1.9-2.3,2.6-3.9,2c-1.4-0.6-2-1.7-1.8-3.2c0.2-1.2,1-1.9,2.1-2.3
			C86.1,88.6,87.6,90.1,86.7,92.5z"/>
		<path class="st184" d="M86,58.9c0,1.5-1.1,2.8-2.7,2.9c-1.6,0.1-2.9-1.1-3-2.8c0-1.6,1.2-2.9,2.8-2.9C84.8,56.1,86,57.3,86,58.9z"
			/>
		<path class="st184" d="M80.4,90.5c0,1.5-1.3,2.7-2.8,2.7c-1.6,0-2.9-1.4-2.8-2.9c0.1-1.5,1.4-2.7,2.9-2.7
			C79.2,87.7,80.4,89,80.4,90.5z"/>
		<path class="st184" d="M73.3,79.6c-1.6,0-2.8-1.3-2.8-2.9c0-1.6,1.3-2.8,2.9-2.8c1.6,0,2.8,1.3,2.8,2.9
			C76.2,78.5,74.9,79.7,73.3,79.6z"/>
		<path class="st184" d="M102.1,59.3c1.6,0,2.9,1.3,2.8,2.9c0,1.6-1.3,2.7-2.8,2.7c-1.6,0-2.9-1.3-2.8-2.9
			C99.3,60.4,100.5,59.3,102.1,59.3z"/>
		<path class="st184" d="M96.4,91.1c1.5,0,2.8,1.2,2.8,2.7c0,1.6-1.3,2.9-2.8,2.9c-1.5,0-2.8-1.3-2.8-2.8
			C93.7,92.4,94.9,91.1,96.4,91.1z"/>
		<path class="st184" d="M104.5,69.4c0.8-2,2-2.8,3.6-2.4c1.4,0.4,2.3,1.8,2,3.2c-0.2,1.4-1.2,2.1-2.4,2.4
			C105.3,73.1,103.9,71.7,104.5,69.4z"/>
		<path class="st184" d="M90.9,90c1.9,1,2.6,2.3,2,3.9c-0.6,1.4-1.7,2-3.2,1.8c-1.2-0.2-1.9-1-2.3-2.1C86.9,90.6,88.2,89.3,90.9,90z
			"/>
		<path class="st184" d="M69.5,82.9c0.1-1.5,1.4-2.7,2.9-2.7c1.6,0.1,2.8,1.4,2.7,3c-0.1,1.5-1.5,2.7-3,2.6
			C70.6,85.8,69.5,84.4,69.5,82.9z"/>
		<path class="st184" d="M77.3,70.5c0,1.6-1.2,2.9-2.9,2.8c-1.6,0-2.9-1.2-2.8-2.9c0-1.6,1.2-2.9,2.9-2.8
			C76.1,67.6,77.3,68.8,77.3,70.5z"/>
		<path class="st184" d="M75.7,67c-1.5-0.1-2.7-1.3-2.7-2.9c0-1.6,1.3-2.8,2.9-2.8c1.6,0.1,2.8,1.4,2.7,3
			C78.5,65.9,77.2,67.1,75.7,67z"/>
		<path class="st184" d="M107,88.7c0,1.6-1.4,2.8-3,2.7c-1.5-0.1-2.7-1.3-2.7-2.9c0-1.6,1.4-2.8,3-2.7C105.8,85.9,107,87.2,107,88.7
			z"/>
		<path class="st184" d="M99.5,54.7c0,1.4-1.3,2.7-2.7,2.7c-1.5,0-2.8-1.3-2.7-2.8c0.1-1.4,1.4-2.6,2.8-2.6
			C98.3,52.1,99.5,53.3,99.5,54.7z"/>
		<path class="st184" d="M111.1,63.5c0,1.4-1.3,2.7-2.7,2.7c-1.5,0-2.8-1.3-2.7-2.8c0.1-1.4,1.4-2.6,2.8-2.6
			C109.8,60.8,111.1,62.1,111.1,63.5z"/>
		<path class="st184" d="M89,96.5c1.5,0,2.7,1.1,2.7,2.6c0,1.5-1.2,2.7-2.6,2.7c-1.4,0-2.6-1.1-2.6-2.5C86.4,97.8,87.6,96.6,89,96.5
			z"/>
		<path class="st184" d="M111.5,80.7c1.4,0,2.7,1.2,2.7,2.6c0,1.4-1.2,2.7-2.6,2.7c-1.4,0-2.7-1.2-2.7-2.6
			C108.8,82,110.1,80.8,111.5,80.7z"/>
		<path class="st184" d="M79.6,57.9c0,1.4-1.3,2.7-2.7,2.6c-1.4,0-2.7-1.3-2.6-2.7c0-1.4,1.3-2.7,2.7-2.6
			C78.4,55.2,79.6,56.5,79.6,57.9z"/>
		<path class="st184" d="M68,66.8c1.5,0,2.7,1.1,2.7,2.6c0,1.5-1.2,2.7-2.6,2.7c-1.4,0-2.6-1.1-2.6-2.5C65.4,68.1,66.6,66.8,68,66.8
			z"/>
		<path class="st184" d="M112.6,74.4c1.4,0,2.7,1.3,2.6,2.7c0,1.4-1.3,2.7-2.7,2.6c-1.4,0-2.7-1.3-2.6-2.7
			C109.9,75.7,111.2,74.4,112.6,74.4z"/>
		<path class="st184" d="M73.9,89.3c0,1.5-1.2,2.7-2.6,2.6c-1.5,0-2.6-1.2-2.6-2.7c0-1.4,1.2-2.5,2.5-2.6
			C72.7,86.7,73.9,87.9,73.9,89.3z"/>
		<path class="st184" d="M67.2,73.1c1.5,0.1,2.6,1.4,2.5,2.8c-0.1,1.5-1.4,2.6-2.8,2.4c-1.4-0.1-2.5-1.3-2.4-2.7
			C64.5,74.2,65.8,73,67.2,73.1z"/>
		<path class="st184" d="M90.5,51c1.4,0,2.7,1.2,2.7,2.6c0,1.4-1.2,2.7-2.6,2.7c-1.4,0-2.7-1.2-2.7-2.6C87.8,52.3,89.1,51,90.5,51z"
			/>
		<path class="st184" d="M82.9,95.5c1.5,0,2.6,1.2,2.6,2.7c0,1.5-1.3,2.6-2.7,2.5c-1.4-0.1-2.5-1.2-2.5-2.6
			C80.2,96.7,81.4,95.5,82.9,95.5z"/>
		<path class="st184" d="M105.4,94.9c0,1.4-1.2,2.7-2.6,2.7c-1.4,0-2.6-1.1-2.7-2.5c-0.1-1.4,1.1-2.7,2.5-2.8
			C104.1,92.2,105.4,93.5,105.4,94.9z"/>
		<path class="st184" d="M110.4,87.2c1.5,0,2.6,1,2.6,2.4c0.1,1.5-1,2.6-2.4,2.7c-1.5,0.1-2.7-1-2.7-2.5
			C107.9,88.3,109,87.2,110.4,87.2z"/>
		<path class="st184" d="M72.1,63c0,1.5-1,2.6-2.4,2.6c-1.5,0.1-2.7-1-2.7-2.6c0-1.4,1.1-2.5,2.5-2.6C71,60.5,72.1,61.6,72.1,63z"/>
		<path class="st184" d="M86.8,52.7c0,1.5-1.2,2.6-2.7,2.5c-1.4-0.1-2.5-1.2-2.5-2.6c0-1.5,1.2-2.6,2.7-2.5
			C85.8,50.1,86.8,51.2,86.8,52.7z"/>
		<path class="st184" d="M113.7,68.2c1.5,0,2.6,1.2,2.5,2.7c-0.1,1.4-1.2,2.5-2.6,2.5c-1.5,0-2.6-1.2-2.5-2.7
			C111.1,69.3,112.2,68.2,113.7,68.2z"/>
		<path class="st184" d="M100.5,55.6c0.1-1.4,1.2-2.5,2.6-2.4c1.5,0,2.6,1.2,2.5,2.7c-0.1,1.5-1.3,2.6-2.8,2.4
			C101.5,58.2,100.5,57.1,100.5,55.6z"/>
		<path class="st184" d="M95.3,102.7c-1.4-0.1-2.5-1.2-2.4-2.7c0.1-1.4,1.2-2.5,2.7-2.4c1.4,0.1,2.5,1.2,2.4,2.7
			C97.9,101.8,96.8,102.8,95.3,102.7z"/>
		<path class="st184" d="M68.6,82.1c0,1.5-1.1,2.5-2.6,2.5c-1.5,0-2.5-1.1-2.5-2.6c0-1.5,1.1-2.5,2.6-2.5
			C67.5,79.5,68.6,80.6,68.6,82.1z"/>
		<path class="st184" d="M79.1,97c0,1.5-1,2.6-2.5,2.6c-1.5,0-2.6-1-2.6-2.5c0-1.5,1-2.6,2.5-2.6C77.9,94.5,79,95.5,79.1,97z"/>
		<path class="st184" d="M75.5,51.4c0.1-1.3,1.2-2.4,2.5-2.3c1.4,0.1,2.5,1.3,2.4,2.7c-0.1,1.3-1.3,2.3-2.6,2.2
			C76.4,53.9,75.4,52.8,75.5,51.4z"/>
		<path class="st184" d="M112.2,57.1c0,1.4-1,2.5-2.4,2.5c-1.4,0.1-2.6-1.1-2.6-2.5c0-1.4,1.1-2.4,2.4-2.4
			C111.1,54.7,112.2,55.8,112.2,57.1z"/>
		<path class="st184" d="M117.5,64.6c0,1.4-1.1,2.4-2.5,2.4c-1.4,0-2.5-1.2-2.5-2.6c0.1-1.3,1.2-2.4,2.5-2.3
			C116.4,62.1,117.5,63.2,117.5,64.6z"/>
		<path class="st184" d="M70.7,54c1.3,0.1,2.4,1.2,2.3,2.5C73,58,71.7,59,70.4,58.9c-1.3-0.1-2.3-1.3-2.2-2.6
			C68.2,55,69.4,54,70.7,54z"/>
		<path class="st184" d="M111.9,96.1c0,1.3-1.1,2.4-2.5,2.4c-1.4,0-2.5-1.2-2.4-2.6c0.1-1.3,1.2-2.4,2.5-2.3
			C110.8,93.6,111.9,94.7,111.9,96.1z"/>
		<path class="st184" d="M72.7,95.7c0,1.3-1.2,2.4-2.5,2.4c-1.3,0-2.4-1.2-2.4-2.5c0-1.3,1.2-2.4,2.5-2.4
			C71.6,93.2,72.7,94.4,72.7,95.7z"/>
		<path class="st184" d="M101.7,98.8c1.3,0,2.4,1.1,2.4,2.4c0,1.4-1.2,2.5-2.5,2.5c-1.3-0.1-2.4-1.2-2.4-2.5
			C99.3,99.9,100.4,98.8,101.7,98.8z"/>
		<path class="st184" d="M65,90.8c-1.3,0-2.4-1.1-2.5-2.4c0-1.3,1.1-2.4,2.4-2.5c1.3,0,2.4,1.1,2.5,2.4C67.4,89.6,66.3,90.7,65,90.8
			z"/>
		<path class="st184" d="M87.7,46.4c0,1.2-1.2,2.3-2.4,2.3c-1.3,0-2.5-1.3-2.4-2.5c0.1-1.2,1.3-2.3,2.5-2.2
			C86.6,44,87.7,45.2,87.7,46.4z"/>
		<path class="st184" d="M91.6,44.9c1.3,0,2.4,1.1,2.4,2.4c0,1.3-1.1,2.4-2.4,2.4c-1.3,0-2.4-1.1-2.4-2.4
			C89.2,46.1,90.3,44.9,91.6,44.9z"/>
		<path class="st184" d="M116.8,93.1c-1.2,0-2.4-1-2.4-2.3c-0.1-1.3,1.1-2.5,2.4-2.5c1.2,0,2.3,1.1,2.4,2.3
			C119.2,92,118.1,93.1,116.8,93.1z"/>
		<path class="st184" d="M98.4,46c1.3,0.1,2.4,1.3,2.3,2.6c-0.1,1.3-1.4,2.4-2.6,2.2c-1.2-0.1-2.3-1.3-2.2-2.5
			C95.9,47,97.1,45.9,98.4,46z"/>
		<path class="st184" d="M120.2,84.5c0,1.3-1.2,2.4-2.5,2.4c-1.3,0-2.5-1.2-2.3-2.5c0.1-1.4,1-2.2,2.4-2.3
			C119.1,82,120.3,83.2,120.2,84.5z"/>
		<path class="st184" d="M104.5,51.9c-1.2,0-2.3-1.1-2.3-2.4c0-1.3,1.2-2.5,2.5-2.4c1.2,0.1,2.3,1.2,2.3,2.5
			C106.9,50.8,105.7,51.9,104.5,51.9z"/>
		<path class="st184" d="M84.2,104.5c0,1.3-1.3,2.4-2.5,2.4c-1.2-0.1-2.3-1.2-2.3-2.5c0-1.3,1.3-2.4,2.5-2.4
			C83.1,102.1,84.2,103.2,84.2,104.5z"/>
		<path class="st184" d="M88,107.9c-1.3,0-2.4-1.3-2.3-2.6c0.1-1.2,1.2-2.3,2.5-2.2c1.3,0,2.4,1.3,2.3,2.6
			C90.4,106.9,89.2,107.9,88,107.9z"/>
		<path class="st184" d="M119.9,74.3c-1.3,0-2.4-1.3-2.3-2.5c0.1-1.2,1.2-2.3,2.4-2.2c1.3,0,2.4,1.3,2.3,2.5
			C122.2,73.2,121.1,74.3,119.9,74.3z"/>
		<path class="st184" d="M94.4,108.9c-1.2,0-2.3-1.1-2.3-2.3c0-1.3,1.2-2.5,2.5-2.4c1.2,0.1,2.3,1.2,2.3,2.4
			C96.7,107.8,95.6,108.9,94.4,108.9z"/>
		<path class="st184" d="M62.8,64.1c-1.2-0.1-2.3-1.2-2.2-2.4c0.1-1.3,1.3-2.4,2.6-2.3c1.2,0.1,2.2,1.3,2.1,2.5
			C65.1,63.1,64,64.2,62.8,64.1z"/>
		<path class="st184" d="M63.2,74.6c0,1.3-1.2,2.5-2.5,2.4c-1.2,0-2.3-1.1-2.4-2.4c0-1.3,1.2-2.5,2.5-2.4
			C62.1,72.3,63.2,73.4,63.2,74.6z"/>
		<path class="st184" d="M64.3,68.5c0,1.3-1.3,2.4-2.5,2.3c-1.3-0.1-2.4-1.3-2.3-2.6c0.2-1.4,1-2.2,2.4-2.2
			C63.2,65.9,64.3,67.2,64.3,68.5z"/>
		<path class="st184" d="M116.4,78c0.1-1.3,1.3-2.4,2.6-2.3c1.3,0.1,2.4,1.4,2.2,2.6c-0.1,1.2-1.3,2.3-2.5,2.2
			C117.5,80.5,116.4,79.3,116.4,78z"/>
		<path class="st184" d="M73.9,50.2c0,1.3-1.1,2.3-2.4,2.2c-1.3-0.1-2.3-1.2-2.2-2.4c0.1-1.3,0.9-2.1,2.3-2.2
			C72.9,47.8,74,49,73.9,50.2z"/>
		<path class="st184" d="M59.7,78.6c1.2,0,2.4,1.1,2.4,2.3c0,1.2-1.1,2.4-2.3,2.4c-1.2,0-2.4-1.1-2.4-2.3
			C57.4,79.8,58.4,78.6,59.7,78.6z"/>
		<path class="st184" d="M110.3,102.7c0,1.4-1.1,2.4-2.4,2.2c-1.4-0.1-2.1-1-2.1-2.3c0-1.3,1.1-2.3,2.4-2.2
			C109.5,100.6,110.2,101.4,110.3,102.7z"/>
		<path class="st184" d="M116.1,55.9c1.2,0,2.3,1.1,2.3,2.4c0,1.2-1.1,2.3-2.4,2.3c-1.2,0-2.3-1.1-2.3-2.4
			C113.8,56.9,114.9,55.9,116.1,55.9z"/>
		<path class="st184" d="M66.2,94.6c0,1.4-1.1,2.4-2.4,2.3c-1.4-0.1-2.1-0.9-2.2-2.3c0-1.3,1.1-2.4,2.4-2.2
			C65.4,92.5,66.1,93.3,66.2,94.6z"/>
		<path class="st184" d="M77.8,103.5c-0.1,1.2-1.3,2.3-2.5,2.2c-1.2-0.1-2.3-1.3-2.2-2.5c0.1-1.2,1.3-2.3,2.5-2.2
			C76.9,101.1,77.9,102.3,77.8,103.5z"/>
		<path class="st184" d="M79.1,42.7c1.4,0.2,2.1,1,2.1,2.3c0,1.3-1.1,2.3-2.4,2.1c-1.4-0.2-2.1-1-2-2.4
			C76.9,43.4,77.8,42.7,79.1,42.7z"/>
		<path class="st184" d="M100.7,109.8c-1.4-0.1-2.2-0.8-2.2-2.2c0-1.4,0.8-2.2,2.2-2.2c1.4,0,2.2,0.8,2.2,2.2
			C102.9,108.9,102.1,109.6,100.7,109.8z"/>
		<path class="st184" d="M60.9,87.2c-0.1,1.4-0.8,2.2-2.2,2.2c-1.4,0-2.2-0.8-2.2-2.2c0-1.4,0.8-2.2,2.2-2.2
			C60.1,85.1,60.8,85.9,60.9,87.2z"/>
		<path class="st184" d="M113.1,50.5c-0.1,1.4-0.8,2.1-2.2,2.2c-1.3,0.1-2.4-1-2.2-2.3c0.1-1.4,0.9-2.1,2.3-2.1
			C112.3,48.3,113,49.2,113.1,50.5z"/>
		<path class="st184" d="M121.2,67.8c-1.4-0.2-2.1-0.9-2.1-2.3c0-1.3,1.1-2.3,2.4-2.2c1.4,0.1,2.1,1,2,2.3
			C123.5,67.1,122.6,67.7,121.2,67.8z"/>
		<path class="st184" d="M71.4,102c-0.2,1.4-0.9,2.2-2.3,2.2c-1.4-0.1-2.1-0.9-2.1-2.3c0-1.4,0.9-2.1,2.3-2.1
			C70.7,99.8,71.3,100.7,71.4,102z"/>
		<path class="st184" d="M66.5,55.4c-0.1,1.3-0.8,2.2-2.2,2.2c-1.4,0-2.2-0.7-2.3-2.1c-0.1-1.3,0.9-2.4,2.2-2.3
			C65.7,53.3,66.4,54,66.5,55.4z"/>
		<path class="st184" d="M117.9,97.4c-0.1,1.4-0.8,2.2-2.2,2.2c-1.4,0-2.2-0.8-2.2-2.2c0-1.4,0.8-2.2,2.2-2.2
			C117.1,95.2,117.8,96,117.9,97.4z"/>
		<path class="st184" d="M119.3,52c-0.2,1.3-0.8,2-2.1,2.1c-1.2,0-2.2-1-2.1-2.2c0.1-1.3,0.9-2,2.2-2
			C118.5,49.9,119.1,50.7,119.3,52z"/>
		<path class="st184" d="M97.1,42.2c0.1-1.4,1.1-2.3,2.4-2.2c1.3,0.2,1.9,1,1.9,2.3c0,1.2-1.1,2.1-2.4,2
			C97.7,44.1,97.1,43.3,97.1,42.2z"/>
		<path class="st184" d="M125.2,81.4c-1.3,0-2.2-0.9-2.2-2.2c0-1.3,0.8-2,2.1-2.1c1.3-0.1,2.2,0.9,2.2,2.1
			C127.3,80.4,126.4,81.3,125.2,81.4z"/>
		<path class="st184" d="M54.7,71.1c1.1,0.1,1.8,0.7,1.9,2c0.1,1.2-0.9,2.3-2.2,2.2c-1.3-0.1-2-0.8-2.1-2.1
			C52.3,72.1,53.3,71.2,54.7,71.1z"/>
		<path class="st184" d="M107.7,43.1c-0.1,1.3-0.7,2.1-2.1,2.2c-1.2,0.1-2.3-0.9-2.2-2.2c0.1-1.3,0.8-2,2.1-2
			C106.9,41.1,107.5,41.9,107.7,43.1z"/>
		<path class="st184" d="M74.8,44.1c-0.1,1-0.8,1.8-2.1,1.9c-1.2,0.1-2.2-1-2.1-2.2c0.1-1.3,0.8-2,2.1-2
			C73.9,41.8,74.8,42.7,74.8,44.1z"/>
		<path class="st184" d="M126.3,85.6c0,1.5-0.9,2.5-2.2,2.4c-1.3-0.1-2-0.8-2.1-2.1c0-1.3,0.9-2.2,2.2-2.1
			C125.5,83.8,126.1,84.6,126.3,85.6z"/>
		<path class="st184" d="M80.7,112.9c-1.3-0.2-2-0.8-2.1-2.1c0-1.2,1-2.2,2.2-2.1c1.3,0.1,2,0.9,2,2.2
			C82.8,112.1,82,112.7,80.7,112.9z"/>
		<path class="st184" d="M125.2,92.2c-0.1,1.3-0.8,2-2.1,2.1c-1.2,0.1-2.2-1-2.1-2.2c0.1-1.3,0.8-2,2.1-2
			C124.4,90.1,125,90.9,125.2,92.2z"/>
		<path class="st184" d="M89.2,111.9c-0.2,1.2-0.9,2-2.2,2c-1.2,0-2.2-1-2.1-2.3c0.1-1.3,0.9-2,2.2-1.9
			C88.5,109.7,89.1,110.6,89.2,111.9z"/>
		<path class="st184" d="M122.4,61.4c-1.3-0.1-2.1-0.7-2.2-2c-0.1-1.2,0.9-2.3,2.1-2.2c1.3,0.1,2,0.8,2.1,2.1
			C124.5,60.6,123.7,61.2,122.4,61.4z"/>
		<path class="st184" d="M88.8,40.3c-0.1,1-0.8,1.8-2.1,1.9c-1.2,0-2.2-1-2.1-2.2c0.1-1.3,0.9-2,2.2-2
			C87.9,37.9,88.8,38.9,88.8,40.3z"/>
		<path class="st184" d="M114.3,101.6c1.3,0.1,2.1,0.7,2.2,2c0.1,1.2-0.9,2.3-2.1,2.2c-1.3-0.1-2-0.8-2.1-2.1
			C112.2,102.4,113,101.8,114.3,101.6z"/>
		<path class="st184" d="M95.1,40.8c0,1.5-0.9,2.5-2.1,2.4c-1.3,0-2-0.8-2.1-2.1c-0.1-1.3,0.9-2.2,2.1-2.2
			C94.3,39,95,39.7,95.1,40.8z"/>
		<path class="st184" d="M65,51.2c-1-0.2-1.8-0.9-1.8-2.2c0-1.2,1.1-2.2,2.3-2c1.3,0.2,1.9,1,1.9,2.3C67.4,50.5,66.3,51.3,65,51.2z"
			/>
		<path class="st184" d="M126.9,70.8c1,0.2,1.8,0.9,1.8,2.2c0,1.2-1.1,2.2-2.3,2c-1.3-0.2-1.9-1-1.9-2.3
			C124.5,71.6,125.5,70.7,126.9,70.8z"/>
		<path class="st184" d="M55.5,69.1c-1.3-0.1-2-0.8-2.1-2.1c-0.1-1.2,1-2.2,2.2-2.2c1.3,0.1,2,0.9,2,2.2
			C57.6,68.3,56.8,69,55.5,69.1z"/>
		<path class="st184" d="M58.7,60.7c-0.2,1.3-0.9,2.1-2.2,2c-1.3,0-2.1-0.8-2-2.1c0-1.3,0.8-2.1,2.1-2
			C57.9,58.6,58.6,59.5,58.7,60.7z"/>
		<path class="st184" d="M52.4,84.2c1.2,0.2,1.9,0.8,2,2c0.1,1.1-1,2.2-2.1,2.1c-1.2-0.1-2-0.9-1.9-2.1C50.4,85,51.2,84.3,52.4,84.2
			z"/>
		<path class="st184" d="M129.7,66.7c-0.2,1.2-0.9,2.1-2.2,2c-1.2-0.1-1.9-0.9-1.9-2.1c0.1-1.3,0.9-2.1,2.2-2
			C129,64.7,129.6,65.5,129.7,66.7z"/>
		<path class="st184" d="M60.1,54.5c-0.2,1.2-0.9,2-2.2,1.9c-1.2-0.1-1.9-0.9-1.9-2.1c0.1-1.3,0.9-2,2.2-1.9
			C59.3,52.4,59.9,53.3,60.1,54.5z"/>
		<path class="st184" d="M64.7,100.8c-0.1,1.3-0.8,2.1-2.1,2.1c-1.3,0-2.1-0.7-2.1-2c0-1.3,0.7-2.1,2-2.1
			C63.8,98.8,64.4,99.6,64.7,100.8z"/>
		<path class="st184" d="M76.2,109.6c-0.2,1.3-0.8,2.2-2.1,2.2c-1.3,0-2.1-0.8-2.1-2.1c0-1.3,0.8-2.1,2.1-2.1
			C75.4,107.6,76,108.4,76.2,109.6z"/>
		<path class="st184" d="M53.4,77.8c1.3,0.2,2.2,0.8,2.2,2.1c0,1.3-0.8,2.1-2.1,2.1c-1.3,0-2.1-0.8-2.1-2.1
			C51.4,78.6,52.2,78,53.4,77.8z"/>
		<path class="st184" d="M109.1,108.9c-0.1,1.3-0.8,2.1-2.1,2.1c-1.3,0-2.1-0.7-2.1-2c0-1.3,0.7-2.1,2-2.1
			C108.2,106.8,108.9,107.6,109.1,108.9z"/>
		<path class="st184" d="M59.4,93.5c-0.2,1.3-0.8,2.2-2.1,2.1c-1.3,0-2.1-0.8-2.1-2.1c0-1.3,0.8-2.1,2.1-2.1
			C58.6,91.5,59.2,92.3,59.4,93.5z"/>
		<path class="st184" d="M124.1,98.5c-0.2,1.2-0.8,2-2,2c-1.3,0-2.1-0.8-2.1-2.1c0-1.3,0.9-2.1,2.1-2
			C123.3,96.5,124,97.3,124.1,98.5z"/>
		<path class="st184" d="M114,44.3c-0.2,1.2-0.9,2.1-2.2,2c-1.3-0.1-2-0.9-2-2.2c0.1-1.2,0.8-1.9,2-1.9
			C113.1,42.2,113.8,43,114,44.3z"/>
		<path class="st184" d="M80,36.6c1.2,0.2,2.1,0.8,2.1,2.1c0,1.2-0.8,2-2,2c-1.3,0-2.1-0.8-2.1-2.1C78,37.4,78.8,36.7,80,36.6z"/>
		<path class="st184" d="M101.7,114.3c-0.2,1.2-0.9,1.9-2.1,2c-1.1,0-2.2-1.1-2-2.2c0.2-1.2,0.9-1.9,2.2-1.8
			C100.9,112.3,101.6,113.1,101.7,114.3z"/>
		<path class="st184" d="M95.4,112.9c-0.2,1.2-0.9,2-2.2,2c-1.3-0.1-2-0.9-2-2.2c0.1-1.3,0.9-2,2.2-2
			C94.7,110.8,95.3,111.6,95.4,112.9z"/>
		<path class="st184" d="M69.8,108.7c-0.2,1.2-0.9,1.9-2.1,2c-1.1,0-2.1-1.1-2-2.2c0.2-1.2,0.9-1.9,2.1-1.8
			C69.1,106.7,69.7,107.5,69.8,108.7z"/>
		<path class="st184" d="M90.9,90c-2.7,0.1-3.5,0.9-3.6,3.6c-0.2-0.3-0.4-0.7-0.6-1c-0.1-2.7-0.9-3.5-3.6-3.6
			c0.1-0.2,0.2-0.4,0.3-0.6c2,0.8,3.4-0.2,4.5-1.7c0.2,1.3,0.7,2.4,2.1,2.7c0.2,0.2,0.6,0.1,0.8,0.4C90.9,89.9,90.9,89.9,90.9,90z"
			/>
		<path class="st184" d="M103.4,76.8c0.7,1.9,2.1,2.4,3.9,2.1c-0.3,0.2-0.7,0.4-1,0.7c-3-0.2-4,0.8-3.9,3.9
			c-0.2-0.1-0.5-0.2-0.7-0.4c0.6-1.9,0.6-3.6-1.7-4.7c1.3-0.3,2.2-0.9,2.9-1.9C103.2,76.3,103.3,76.5,103.4,76.8z"/>
		<path class="st184" d="M104.5,69.4c0.3,2.3,0.9,2.9,3.2,3.2c-0.1,0.2-0.2,0.4-0.3,0.6c-1.5-0.3-2.8,0.1-3.7,1.5
			c-0.2,0.2-0.3,0.1-0.4-0.1c-0.3-1.1-0.8-2.2-2.1-2.5c1.1-0.8,2.6-1.2,3-2.8C104.2,69.4,104.3,69.4,104.5,69.4z"/>
		<path class="st184" d="M90.2,62.8c1.9-0.7,2.4-2.1,2.1-3.9c0.2,0.3,0.4,0.7,0.7,1c-0.2,1.8,0.2,3.3,2.1,3.9c0,0.1,0,0.1,0,0.2
			c-1.4,0-2.5,0.6-3.3,2c-0.3-1.2-0.9-2.1-1.9-2.7C89.8,63.1,89.9,62.9,90.2,62.8z"/>
		<path class="st184" d="M118.2,47.6c-1.2-0.2-2-0.8-1.9-2.1c0-1.1,0.8-1.9,1.9-1.8c1.2,0,2,0.8,1.9,2
			C120.1,46.9,119.3,47.5,118.2,47.6z"/>
		<path class="st184" d="M132.4,86.9c-0.1,1.2-0.8,1.9-2,1.9c-1.1,0-1.8-0.8-1.8-1.9c0-1.2,0.8-1.9,2-1.9
			C131.6,85,132.3,85.8,132.4,86.9z"/>
		<path class="st184" d="M128.6,62.3c-1.2-0.1-1.9-0.8-1.9-2.1c0.1-1.1,0.8-1.8,1.9-1.8c1.2,0,1.9,0.8,1.9,2
			C130.5,61.6,129.8,62.2,128.6,62.3z"/>
		<path class="st184" d="M125.4,53c-0.2,1.2-0.9,2-2.1,2c-1.2,0-2-0.8-1.9-2c0-1.2,0.8-1.9,2-1.9C124.7,51,125.3,51.9,125.4,53z"/>
		<path class="st184" d="M56.2,101.8c-1.2-0.2-1.9-0.8-1.9-2.1c0.1-1.1,0.8-1.8,1.9-1.8c1.2,0,1.9,0.8,1.9,2
			C58.1,101.1,57.3,101.7,56.2,101.8z"/>
		<path class="st184" d="M68.4,42.9c-0.2,1.2-0.9,2-2.1,1.9c-1.2-0.1-1.9-0.9-1.8-2.1c0.1-1.1,0.9-1.8,2-1.8
			C67.6,40.9,68.3,41.7,68.4,42.9z"/>
		<path class="st184" d="M96,34.8c-0.2,1.2-0.9,1.9-2.1,1.9c-1.1-0.1-1.8-0.8-1.8-2c0.1-1.2,0.8-1.9,2.1-1.8
			C95.3,33,95.9,33.7,96,34.8z"/>
		<path class="st184" d="M113.3,108.1c1.1,0.1,1.9,0.7,1.9,1.8c0.1,1.2-0.7,2-1.9,2c-1.2,0-2-0.8-2-2
			C111.4,108.8,112.1,108.2,113.3,108.1z"/>
		<path class="st184" d="M102.3,35.8c-0.1,1.1-0.7,1.9-1.8,1.9c-1.2,0.1-2-0.6-2.1-1.8c0-1.2,0.7-2,1.9-2
			C101.5,33.9,102.1,34.6,102.3,35.8z"/>
		<path class="st184" d="M131.5,78.7c1.2,0.2,2,0.8,1.9,2.1c-0.1,1.1-0.8,1.8-1.9,1.8c-1.2,0-1.9-0.8-1.9-2
			C129.6,79.4,130.4,78.8,131.5,78.7z"/>
		<path class="st184" d="M61.5,109.1c-1.1-0.1-1.9-0.7-1.9-1.8c0-1.2,0.6-1.9,1.8-1.9c1.2,0,1.9,0.6,1.9,1.8
			C63.4,108.3,62.7,109,61.5,109.1z"/>
		<path class="st184" d="M122.9,104.7c-0.1,1.1-0.6,1.9-1.8,1.9c-1.2,0-2-0.7-2-1.9c0-1.2,0.7-1.8,1.9-1.8
			C122.1,102.9,122.7,103.6,122.9,104.7z"/>
		<path class="st184" d="M50.3,57.8c1.2,0.1,1.9,0.8,1.9,1.9c0,1.2-0.7,1.8-1.9,1.8c-1.2,0-1.8-0.7-1.8-1.9
			C48.5,58.4,49.2,57.8,50.3,57.8z"/>
		<path class="st184" d="M49.2,64c1.1,0,1.9,0.6,1.9,1.8c0.1,1.2-0.6,2-1.9,2c-1.2,0-1.8-0.7-1.9-1.8C47.3,64.8,48,64.2,49.2,64z"/>
		<path class="st184" d="M47.5,84.6c-0.1,1.2-0.6,1.9-1.7,2c-1.2,0-1.9-0.6-1.9-1.8c0-1.1,0.7-1.7,1.8-1.7
			C46.8,83,47.4,83.7,47.5,84.6z"/>
		<path class="st184" d="M135.7,67.9c-0.2,1.1-0.9,1.7-2,1.6c-1.1-0.1-1.6-0.8-1.6-1.9c0.1-1.2,0.8-1.7,2-1.6
			C135.2,66,135.7,66.7,135.7,67.9z"/>
		<path class="st184" d="M50.1,72.2c0,1.1-0.6,1.9-1.8,1.9c-1.2,0.1-2-0.6-2-1.9c0-1.2,0.7-1.8,1.8-1.9C49.3,70.3,49.9,71,50.1,72.2
			z"/>
		<path class="st184" d="M53.1,53.5c-0.2,1.1-0.8,1.7-2,1.6c-1.1-0.1-1.6-0.8-1.6-1.9c0.1-1.2,0.8-1.7,2-1.6
			C52.6,51.7,53.1,52.4,53.1,53.5z"/>
		<path class="st184" d="M124.5,44.9c1.1,0.1,1.7,0.7,1.7,1.8c0,1.2-0.7,1.8-1.8,1.8c-1.1,0-1.7-0.7-1.7-1.8
			C122.7,45.5,123.4,44.9,124.5,44.9z"/>
		<path class="st184" d="M60.9,48c-0.1,1.1-0.7,1.9-1.8,1.9c-1.2,0-2-0.7-2-1.9c0-1.2,0.7-1.8,1.9-1.8C60.2,46.2,60.8,46.9,60.9,48z
			"/>
		<path class="st184" d="M47.2,76.7c1.2,0.1,1.8,0.8,1.8,1.9c0,1.2-0.8,1.8-1.9,1.8c-1.2,0-1.8-0.8-1.8-1.9
			C45.3,77.3,46.1,76.7,47.2,76.7z"/>
		<path class="st184" d="M129.5,55.8c-1.1-0.2-1.7-0.8-1.6-2c0.1-1.1,0.8-1.6,1.9-1.6c1.2,0.1,1.7,0.8,1.6,2
			C131.4,55.3,130.7,55.8,129.5,55.8z"/>
		<path class="st184" d="M134.7,74.3c-0.1,1.1-0.7,1.9-1.8,1.9c-1.2,0-1.9-0.6-1.9-1.8c0-1.2,0.6-1.9,1.8-1.9
			C134,72.4,134.6,73.1,134.7,74.3z"/>
		<path class="st184" d="M83.2,32.3c-0.1,1.1-0.7,1.8-1.9,1.8c-1.1,0-1.7-0.7-1.7-1.8c0-1.2,0.7-1.8,1.9-1.8
			C82.6,30.6,83.2,31.2,83.2,32.3z"/>
		<path class="st184" d="M98.6,118.7c1.1,0.1,1.7,0.7,1.7,1.8c0,1.1-0.6,1.8-1.7,1.8c-1.2,0-1.9-0.6-1.8-1.8
			C96.8,119.3,97.5,118.8,98.6,118.7z"/>
		<path class="st184" d="M87.9,31.5c1.2,0.2,1.8,0.9,1.7,2c-0.1,1.2-0.8,1.8-2,1.7c-1.2-0.1-1.8-0.8-1.7-2
			C86,32.1,86.7,31.5,87.9,31.5z"/>
		<path class="st184" d="M128.3,101.3c-1.1-0.1-1.7-0.7-1.7-1.8c0-1.2,0.6-1.8,1.8-1.8c1.1,0,1.7,0.6,1.7,1.7
			C130.1,100.7,129.4,101.2,128.3,101.3z"/>
		<path class="st184" d="M92.3,117.3c1.2,0.1,1.8,0.7,1.8,1.9c0,1.2-0.7,1.8-1.8,1.8c-1.2,0-1.8-0.7-1.8-1.8
			C90.4,117.9,91.1,117.3,92.3,117.3z"/>
		<path class="st184" d="M131.2,93.3c-0.2,1.2-0.9,1.8-2,1.7c-1.2-0.1-1.8-0.8-1.7-2c0.1-1.2,0.8-1.8,2-1.7
			C130.7,91.4,131.2,92.2,131.2,93.3z"/>
		<path class="st184" d="M85.6,116.2c1.2,0.1,1.9,0.8,1.8,1.9c0,1.2-0.8,1.9-2,1.8c-1.2-0.1-1.8-0.8-1.7-2
			C83.8,116.8,84.6,116.2,85.6,116.2z"/>
		<path class="st184" d="M79.3,118.9c-1.2-0.1-1.8-0.7-1.8-1.9c0-1.2,0.8-1.9,2-1.8c1.2,0.1,1.8,0.8,1.7,2
			C81.1,118.3,80.4,118.8,79.3,118.9z"/>
		<path class="st184" d="M71.2,115.8c0.2-1.2,0.9-1.8,2-1.7c1.2,0.1,1.7,0.9,1.6,2c-0.1,1.1-0.8,1.6-1.9,1.6
			C71.7,117.7,71.2,117,71.2,115.8z"/>
		<path class="st184" d="M107.8,115.2c-0.1,1.1-0.7,1.9-1.8,1.9c-1.2,0-2-0.7-1.9-1.9c0-1.2,0.7-1.8,1.9-1.8
			C107.1,113.4,107.7,114.1,107.8,115.2z"/>
		<path class="st184" d="M67.5,34.7c1.1,0.1,1.7,0.7,1.7,1.8c0,1.1-0.6,1.8-1.7,1.8c-1.2,0-1.8-0.6-1.8-1.8
			C65.7,35.4,66.4,34.8,67.5,34.7z"/>
		<path class="st184" d="M51,90.6c1.1,0.1,1.9,0.7,1.9,1.8c0,1.2-0.6,1.9-1.8,1.9c-1.2,0-1.9-0.6-1.9-1.8
			C49.1,91.4,49.8,90.8,51,90.6z"/>
		<path class="st184" d="M66.7,113.1c1.1,0.1,1.8,0.6,1.8,1.7c0,1.2-0.7,1.8-1.8,1.8c-1.1,0-1.7-0.7-1.7-1.8
			C65,113.8,65.6,113.2,66.7,113.1z"/>
		<path class="st184" d="M106.7,35c1.2,0.1,1.8,0.7,1.8,1.9c0,1.2-0.8,1.9-2,1.9c-1.2-0.1-1.8-0.8-1.7-1.9
			C104.8,35.6,105.5,35.1,106.7,35z"/>
		<path class="st184" d="M75.6,37.5c-0.1,1.1-0.6,1.9-1.8,1.9c-1.2,0.1-2-0.6-2-1.9c0-1.2,0.7-1.9,1.8-1.9
			C74.8,35.7,75.5,36.4,75.6,37.5z"/>
		<path class="st184" d="M114.7,37.9c-0.1,1.2-0.6,1.9-1.8,1.9c-1.1,0-1.7-0.6-1.8-1.7c0-1.2,0.6-1.9,1.8-1.9
			C114.1,36.1,114.6,36.8,114.7,37.9z"/>
		<path class="st184" d="M60.2,43.6c-1.1-0.1-1.8-0.6-1.9-1.7c-0.1-1.2,0.6-1.9,1.8-1.9c1.1,0,1.7,0.6,1.7,1.7
			C61.9,42.9,61.2,43.4,60.2,43.6z"/>
		<path class="st184" d="M76.9,31.1c-0.1,1.2-0.7,1.9-1.8,1.9c-1.1,0-1.7-0.7-1.7-1.8c0-1,0.6-1.6,1.6-1.7
			C76.2,29.5,76.7,30.2,76.9,31.1z"/>
		<path class="st184" d="M121,39c-0.2,1.1-0.7,1.8-1.8,1.7c-1.1,0-1.7-0.7-1.7-1.8c0-1,0.7-1.6,1.7-1.6
			C120.3,37.2,120.8,37.9,121,39z"/>
		<path class="st184" d="M121.4,111.1c-0.1,1.1-0.7,1.7-1.8,1.7c-1.1,0-1.7-0.6-1.8-1.7c0-1.2,0.6-1.8,1.8-1.8
			C120.7,109.3,121.3,110,121.4,111.1z"/>
		<path class="st184" d="M136.7,61.3c-0.2,1.1-0.8,1.8-1.9,1.8c-1-0.1-1.6-0.7-1.6-1.7c0-1.1,0.6-1.8,1.7-1.8
			C136.1,59.6,136.6,60.4,136.7,61.3z"/>
		<path class="st184" d="M51.7,98.7c-0.2,1.2-0.7,1.8-1.8,1.8c-1.1,0-1.7-0.7-1.7-1.8c0-1.1,0.7-1.7,1.8-1.7
			C51.1,97.1,51.6,97.8,51.7,98.7z"/>
		<path class="st184" d="M114,116.2c-0.1,1.1-0.6,1.8-1.7,1.8c-1.2,0-1.9-0.6-1.8-1.8c0-1.1,0.7-1.7,1.7-1.7
			C113.3,114.5,113.9,115.2,114,116.2z"/>
		<path class="st184" d="M55,104.4c1.2,0.1,1.9,0.6,1.9,1.7c0,1.1-0.6,1.8-1.7,1.8s-1.8-0.6-1.8-1.7C53.4,105.1,54.1,104.6,55,104.4
			z"/>
		<path class="st184" d="M44.7,64.9c-0.2,1-0.7,1.7-1.8,1.7c-1,0-1.6-0.7-1.6-1.7c0-1.1,0.7-1.7,1.8-1.7
			C44,63.2,44.5,63.9,44.7,64.9z"/>
		<path class="st184" d="M136.7,86.2c1,0.2,1.7,0.7,1.7,1.8c0,1-0.7,1.6-1.7,1.6c-1.1,0-1.7-0.7-1.7-1.8
			C135,86.9,135.7,86.4,136.7,86.2z"/>
		<path class="st184" d="M120.2,117.3c-0.2,1-0.7,1.7-1.7,1.7c-1,0-1.6-0.7-1.6-1.7c0-1,0.7-1.6,1.7-1.6
			C119.6,115.7,120.1,116.4,120.2,117.3z"/>
		<path class="st184" d="M104.9,119.8c1,0.2,1.7,0.7,1.7,1.8c-0.1,1-0.7,1.6-1.7,1.6c-1.1,0-1.7-0.7-1.7-1.8
			C103.2,120.5,103.9,119.9,104.9,119.8z"/>
		<path class="st184" d="M73.7,122.2c-0.1,1-0.7,1.7-1.7,1.7c-1,0-1.7-0.6-1.7-1.6c0-1,0.6-1.7,1.6-1.7
			C73,120.6,73.5,121.3,73.7,122.2z"/>
		<path class="st184" d="M78.3,125c-1-0.1-1.7-0.6-1.7-1.6c-0.1-1.1,0.6-1.8,1.7-1.8c1,0,1.6,0.7,1.7,1.7
			C80,124.3,79.3,124.8,78.3,125z"/>
		<path class="st184" d="M137.4,94.2c-0.2,1-0.7,1.7-1.7,1.7c-1.1,0-1.8-0.7-1.7-1.8c0-1,0.7-1.6,1.7-1.6
			C136.7,92.6,137.2,93.3,137.4,94.2z"/>
		<path class="st184" d="M86.3,124.3c-0.2,1.1-0.7,1.8-1.8,1.8c-1,0-1.6-0.7-1.6-1.7c0-1.1,0.7-1.7,1.8-1.7
			C85.7,122.7,86.1,123.4,86.3,124.3z"/>
		<path class="st184" d="M54.5,47c-0.2,1-0.7,1.7-1.8,1.7c-1.1,0-1.7-0.7-1.7-1.8c0-1,0.7-1.6,1.7-1.6C53.8,45.3,54.3,46,54.5,47z"
			/>
		<path class="st184" d="M125.5,38.7c1,0.1,1.7,0.6,1.7,1.6c0,1-0.6,1.7-1.6,1.7c-1,0-1.7-0.6-1.7-1.6
			C123.8,39.4,124.5,38.9,125.5,38.7z"/>
		<path class="st184" d="M46.5,91.5c-0.2,1.1-0.8,1.8-1.9,1.7c-1-0.1-1.6-0.8-1.5-1.8c0.1-1.1,0.8-1.7,1.9-1.6
			C45.9,89.9,46.3,90.6,46.5,91.5z"/>
		<path class="st184" d="M42.5,77.5c-0.2,1-0.7,1.6-1.7,1.6c-1,0-1.7-0.6-1.7-1.6c0-1.1,0.7-1.8,1.7-1.7
			C41.9,75.8,42.4,76.5,42.5,77.5z"/>
		<path class="st184" d="M132.5,47.7c-0.2,1-0.7,1.7-1.7,1.7c-1,0-1.6-0.7-1.7-1.6c0-1.1,0.7-1.7,1.8-1.7
			C131.8,46.1,132.3,46.8,132.5,47.7z"/>
		<path class="st184" d="M90.8,127.4c-1-0.2-1.7-0.7-1.6-1.7c0-1,0.7-1.6,1.7-1.6c1,0,1.6,0.7,1.6,1.7
			C92.5,126.8,91.8,127.3,90.8,127.4z"/>
		<path class="st184" d="M103.1,29.5c-0.1,1-0.7,1.8-1.8,1.7c-1.1,0-1.7-0.7-1.7-1.8c0-1,0.7-1.6,1.6-1.7
			C102.4,27.8,103,28.5,103.1,29.5z"/>
		<path class="st184" d="M60.4,115.3c-1-0.2-1.7-0.7-1.7-1.7c0-1.1,0.6-1.8,1.7-1.8c1.1,0,1.7,0.7,1.7,1.8
			C62.1,114.6,61.4,115.1,60.4,115.3z"/>
		<path class="st184" d="M96.8,28.6c-0.2,1-0.8,1.7-1.9,1.6c-1-0.1-1.7-0.8-1.6-1.9c0.1-1,0.7-1.6,1.7-1.5
			C96.2,26.8,96.7,27.5,96.8,28.6z"/>
		<path class="st184" d="M88.7,25.4c1,0.1,1.7,0.6,1.7,1.6c0,1.1-0.6,1.8-1.7,1.8c-1,0-1.6-0.7-1.6-1.7
			C87.1,26.1,87.8,25.5,88.7,25.4z"/>
		<path class="st184" d="M43.6,71.2c-0.2,1-0.7,1.7-1.8,1.7c-1,0-1.6-0.7-1.6-1.7c0-1.1,0.7-1.7,1.8-1.7
			C43,69.5,43.5,70.2,43.6,71.2z"/>
		<path class="st184" d="M140.9,75.4c-0.2,1-0.7,1.6-1.7,1.7c-1,0-1.7-0.6-1.7-1.6c0-1.1,0.7-1.8,1.7-1.7
			C140.2,73.7,140.8,74.4,140.9,75.4z"/>
		<path class="st184" d="M139.9,81.7c-0.2,1-0.7,1.6-1.7,1.6c-1.1,0-1.8-0.7-1.7-1.8c0-1.1,0.8-1.7,1.8-1.6
			C139.2,80,139.8,80.7,139.9,81.7z"/>
		<path class="st184" d="M109.4,30.7c-0.2,1-0.8,1.7-1.9,1.6c-1-0.1-1.6-0.8-1.5-1.8c0.1-1.1,0.8-1.7,1.8-1.6
			C108.8,29,109.3,29.7,109.4,30.7z"/>
		<path class="st184" d="M45.7,58.6c-0.2,1-0.7,1.6-1.7,1.6c-1,0-1.6-0.7-1.6-1.6c0-1.1,0.7-1.7,1.8-1.7
			C45.1,57,45.6,57.7,45.7,58.6z"/>
		<path class="st184" d="M61.1,33.8c1,0.1,1.7,0.7,1.7,1.7c0,1-0.6,1.7-1.6,1.7c-1,0-1.7-0.6-1.7-1.6C59.4,34.5,60.1,34,61.1,33.8z"
			/>
		<path class="st184" d="M129,105.9c-0.2,1-0.8,1.7-1.9,1.6c-1.1-0.1-1.7-0.8-1.6-1.9c0.1-1,0.7-1.6,1.7-1.6
			C128.4,104.1,128.9,104.8,129,105.9z"/>
		<path class="st184" d="M127.5,112.1c-0.2,1-0.7,1.7-1.7,1.6c-1-0.1-1.6-0.7-1.5-1.7c0.1-0.9,0.7-1.5,1.6-1.5
			C126.9,110.5,127.4,111.2,127.5,112.1z"/>
		<path class="st184" d="M55.7,112.5c-0.1,1-0.7,1.6-1.7,1.6c-0.9,0-1.5-0.7-1.5-1.6c0-1,0.7-1.6,1.7-1.6
			C55.1,110.9,55.7,111.5,55.7,112.5z"/>
		<path class="st184" d="M68.5,28.6c1,0.1,1.6,0.6,1.6,1.6c0,1-0.7,1.6-1.7,1.6c-0.9,0-1.5-0.6-1.6-1.5
			C66.8,29.3,67.4,28.7,68.5,28.6z"/>
		<path class="st184" d="M65.7,122.8c-1-0.1-1.6-0.7-1.6-1.7c0.1-0.9,0.7-1.5,1.6-1.5c1,0,1.6,0.7,1.5,1.7
			C67.2,122.3,66.6,122.7,65.7,122.8z"/>
		<path class="st184" d="M98.8,126.8c-0.1,0.9-0.5,1.5-1.5,1.6c-1,0.1-1.7-0.5-1.7-1.5c0-0.9,0.5-1.6,1.4-1.6
			C98,125.2,98.6,125.7,98.8,126.8z"/>
		<path class="st184" d="M115.6,31.6c-0.1,1-0.6,1.7-1.6,1.7c-1,0-1.7-0.6-1.7-1.6c0-1,0.6-1.6,1.6-1.7
			C114.9,30,115.5,30.6,115.6,31.6z"/>
		<path class="st184" d="M82.5,24.4c1,0.1,1.6,0.6,1.7,1.6c0,1-0.6,1.7-1.6,1.7c-1,0-1.6-0.6-1.7-1.6C80.8,25.1,81.5,24.5,82.5,24.4
			z"/>
		<path class="st184" d="M53.7,39.1c1,0.1,1.6,0.6,1.7,1.6c0,1-0.6,1.6-1.6,1.7c-0.9,0-1.5-0.6-1.6-1.5
			C52.1,39.8,52.7,39.3,53.7,39.1z"/>
		<path class="st184" d="M46.7,52.3c-0.1,1-0.6,1.6-1.6,1.6c-1,0-1.6-0.7-1.6-1.7c0-0.9,0.6-1.5,1.5-1.6
			C46,50.6,46.5,51.2,46.7,52.3z"/>
		<path class="st184" d="M136,53.4c1,0.2,1.6,0.7,1.6,1.7c0,1-0.7,1.6-1.7,1.6c-1,0-1.6-0.7-1.6-1.7C134.4,54,135.1,53.5,136,53.4z"
			/>
		<path class="st184" d="M140.2,67.4c1,0.1,1.6,0.6,1.7,1.6c0,1-0.6,1.7-1.6,1.7c-1,0-1.6-0.6-1.7-1.6
			C138.5,68.1,139.2,67.6,140.2,67.4z"/>
		<path class="st184" d="M112.8,122.6c-0.2,1.1-0.8,1.7-1.8,1.6c-1-0.1-1.6-0.8-1.5-1.8c0.1-0.9,0.7-1.5,1.6-1.5
			C112.2,121,112.7,121.7,112.8,122.6z"/>
		<path class="st184" d="M39.4,85.4c-1.1-0.2-1.6-0.8-1.5-1.8c0.1-0.9,0.7-1.5,1.7-1.4c1,0.1,1.6,0.7,1.5,1.7
			C40.9,84.9,40.3,85.3,39.4,85.4z"/>
		<path class="st184" d="M45.3,97.8c-0.2,1.1-0.8,1.6-1.8,1.5c-0.9-0.1-1.5-0.7-1.4-1.7c0.1-1,0.7-1.6,1.7-1.5
			C44.7,96.3,45.2,96.9,45.3,97.8z"/>
		<path class="st184" d="M136.3,100.5c-0.1,1-0.6,1.6-1.7,1.6c-1,0-1.6-0.7-1.6-1.7c0-0.9,0.6-1.5,1.5-1.6
			C135.5,98.9,136.1,99.5,136.3,100.5z"/>
		<path class="st184" d="M48.9,106.8c-1-0.1-1.6-0.6-1.7-1.6c0-1,0.6-1.7,1.6-1.7c1,0,1.6,0.6,1.7,1.6
			C50.6,106.1,49.9,106.6,48.9,106.8z"/>
		<path class="st184" d="M77.7,25c-0.1,1-0.6,1.6-1.6,1.5c-1,0-1.5-0.6-1.4-1.6c0-1,0.6-1.5,1.6-1.4C77.2,23.5,77.7,24.1,77.7,25z"
			/>
		<path class="st184" d="M60.9,120.2c-0.1,1-0.6,1.5-1.6,1.4c-0.9,0-1.4-0.6-1.4-1.4c0-1,0.5-1.5,1.5-1.5
			C60.4,118.7,60.8,119.2,60.9,120.2z"/>
		<path class="st184" d="M48,45.9c0,0.9-0.5,1.5-1.5,1.6c-1,0-1.5-0.5-1.6-1.4c0-1,0.5-1.5,1.4-1.6C47.3,44.4,47.9,45,48,45.9z"/>
		<path class="st184" d="M120.3,34.2c-1-0.1-1.5-0.6-1.5-1.5c0-1,0.6-1.5,1.5-1.5c1,0,1.5,0.6,1.5,1.5
			C121.8,33.7,121.2,34.2,120.3,34.2z"/>
		<path class="st184" d="M103.9,23.1c0,1-0.5,1.6-1.5,1.7c-1,0-1.5-0.5-1.5-1.5c0-0.9,0.5-1.4,1.4-1.5
			C103.3,21.7,103.8,22.2,103.9,23.1z"/>
		<path class="st184" d="M105.3,127.7c0,1-0.5,1.6-1.5,1.6c-1,0-1.5-0.5-1.5-1.5c0-0.9,0.5-1.4,1.4-1.5
			C104.7,126.3,105.2,126.8,105.3,127.7z"/>
		<path class="st184" d="M142.8,62.7c-0.1,1-0.5,1.6-1.5,1.6c-1,0-1.5-0.5-1.5-1.5c0-1,0.5-1.5,1.5-1.5
			C142.2,61.2,142.7,61.8,142.8,62.7z"/>
		<path class="st184" d="M135.1,106.8c0,0.9-0.5,1.5-1.5,1.5c-1,0-1.5-0.6-1.5-1.5c0-0.9,0.5-1.4,1.4-1.5
			C134.4,105.3,135,105.8,135.1,106.8z"/>
		<path class="st184" d="M38.4,91.6c-1-0.1-1.5-0.6-1.4-1.6c0-0.9,0.6-1.4,1.4-1.4c1,0,1.5,0.5,1.5,1.5C39.9,91,39.3,91.5,38.4,91.6
			z"/>
		<path class="st184" d="M137.1,50.3c-0.9,0-1.5-0.5-1.6-1.5c0-1,0.5-1.5,1.5-1.5c0.9,0,1.4,0.5,1.5,1.4
			C138.6,49.6,138.1,50.2,137.1,50.3z"/>
		<path class="st184" d="M143.4,95.1c-0.1,1-0.5,1.6-1.4,1.6c-1,0-1.5-0.5-1.5-1.5c0-0.9,0.6-1.4,1.5-1.4
			C142.9,93.9,143.3,94.5,143.4,95.1z"/>
		<path class="st184" d="M115.4,23.9c0.9,0.1,1.4,0.5,1.4,1.4c0,0.9-0.5,1.4-1.4,1.4c-0.9,0-1.4-0.5-1.4-1.4
			C114,24.5,114.5,24,115.4,23.9z"/>
		<path class="st184" d="M141,103c-0.9,0-1.4-0.5-1.5-1.4c0-0.9,0.4-1.4,1.3-1.5c0.9,0,1.4,0.4,1.5,1.3
			C142.4,102.4,141.8,102.9,141,103z"/>
		<path class="st184" d="M147.9,70.1c-0.1,0.9-0.5,1.4-1.4,1.4c-0.9,0-1.4-0.5-1.4-1.4c0-0.9,0.5-1.4,1.4-1.4
			C147.4,68.7,147.8,69.2,147.9,70.1z"/>
		<path class="st184" d="M66,127.6c-0.2,0.8-0.6,1.4-1.5,1.3c-0.9-0.1-1.4-0.7-1.3-1.5c0.1-0.8,0.6-1.3,1.4-1.2
			C65.5,126.2,66,126.7,66,127.6z"/>
		<path class="st184" d="M121.6,27.8c-0.8-0.1-1.3-0.6-1.3-1.3c0-0.9,0.5-1.4,1.4-1.4c0.9,0,1.4,0.6,1.3,1.5
			C123,27.3,122.4,27.7,121.6,27.8z"/>
		<path class="st184" d="M49.9,32.9c-0.1,0.8-0.5,1.4-1.3,1.4c-0.9,0-1.4-0.5-1.4-1.4c0-0.8,0.6-1.3,1.3-1.3
			C49.3,31.7,49.7,32.3,49.9,32.9z"/>
		<path class="st184" d="M56.3,34.5c-0.1,0.9-0.5,1.4-1.4,1.4c-1,0-1.5-0.5-1.5-1.5c0-0.9,0.5-1.4,1.4-1.4
			C55.8,33,56.3,33.5,56.3,34.5z"/>
		<path class="st184" d="M96.2,23.3c-0.9,0-1.5-0.5-1.5-1.5c0-0.9,0.5-1.4,1.4-1.4c1,0,1.5,0.5,1.5,1.5
			C97.6,22.8,97.1,23.2,96.2,23.3z"/>
		<path class="st184" d="M58.5,127.8c-0.9-0.1-1.4-0.5-1.5-1.3c-0.1-0.9,0.5-1.5,1.4-1.5c0.8,0,1.3,0.5,1.3,1.3
			C59.7,127.2,59.2,127.6,58.5,127.8z"/>
		<path class="st184" d="M55.9,29.2c-0.8-0.1-1.4-0.6-1.4-1.4c0-0.8,0.5-1.3,1.3-1.3c0.9,0,1.4,0.5,1.4,1.4
			C57.2,28.6,56.7,29.1,55.9,29.2z"/>
		<path class="st184" d="M65,22.9c-0.1,0.8-0.5,1.3-1.3,1.4c-0.9,0-1.4-0.5-1.4-1.4c0-0.8,0.6-1.3,1.4-1.3
			C64.4,21.5,64.8,22.1,65,22.9z"/>
		<path class="st184" d="M126.7,32.6c1,0,1.6,0.5,1.7,1.3c0.1,1-0.5,1.5-1.4,1.5c-0.9,0-1.4-0.5-1.4-1.4
			C125.5,33.2,126,32.8,126.7,32.6z"/>
		<path class="st184" d="M70.1,25.4c-1-0.1-1.6-0.5-1.6-1.4c0-0.9,0.5-1.4,1.4-1.5c0.9,0,1.4,0.5,1.5,1.4
			C71.4,24.8,70.8,25.2,70.1,25.4z"/>
		<path class="st184" d="M123.8,126.1c-0.8-0.1-1.4-0.5-1.4-1.4c0-0.8,0.5-1.3,1.3-1.3c0.9,0,1.4,0.5,1.4,1.4
			C125.1,125.5,124.6,126,123.8,126.1z"/>
		<path class="st184" d="M77.3,20.1c-0.8-0.1-1.4-0.5-1.4-1.3c0-0.9,0.5-1.4,1.4-1.4c0.9,0,1.4,0.6,1.3,1.5
			C78.5,19.6,78,20,77.3,20.1z"/>
		<path class="st184" d="M131,118.4c0.8,0.1,1.4,0.5,1.4,1.3c0,0.9-0.5,1.4-1.4,1.4c-0.8,0-1.3-0.6-1.3-1.3
			C129.8,119,130.3,118.6,131,118.4z"/>
		<path class="st184" d="M63.7,29.2c-0.1,0.9-0.5,1.4-1.4,1.4c-1,0-1.5-0.5-1.5-1.5c0-1,0.6-1.5,1.6-1.4
			C63.2,27.8,63.6,28.3,63.7,29.2z"/>
		<path class="st184" d="M83.5,21.2c-0.8-0.1-1.4-0.6-1.3-1.5c0-0.9,0.6-1.4,1.5-1.3c0.9,0,1.4,0.6,1.3,1.5
			C84.9,20.7,84.3,21.1,83.5,21.2z"/>
		<path class="st184" d="M118.9,123.5c0,0.9-0.4,1.5-1.3,1.5c-1,0.1-1.6-0.4-1.6-1.4c0-0.9,0.5-1.4,1.4-1.4
			C118.3,122.2,118.8,122.7,118.9,123.5z"/>
		<path class="st184" d="M48.2,117.6c-0.1,0.8-0.5,1.4-1.3,1.4c-0.9,0-1.4-0.5-1.4-1.4c0-0.8,0.6-1.3,1.4-1.3
			C47.6,116.4,48,117,48.2,117.6z"/>
		<path class="st184" d="M53.2,117.3c0.8,0.1,1.4,0.6,1.3,1.5c0,0.9-0.6,1.4-1.5,1.3c-0.9,0-1.4-0.6-1.3-1.5
			C51.7,117.8,52.3,117.4,53.2,117.3z"/>
		<path class="st184" d="M133.3,36.5c-0.8,0-1.4-0.5-1.4-1.2c-0.1-0.9,0.5-1.5,1.3-1.5c0.8,0,1.3,0.5,1.3,1.3
			C134.6,35.9,134.1,36.3,133.3,36.5z"/>
		<path class="st184" d="M89.8,19.3c0.9,0.1,1.4,0.5,1.4,1.4c0,1-0.5,1.5-1.5,1.5c-0.9,0-1.4-0.6-1.4-1.5
			C88.4,19.8,88.9,19.4,89.8,19.3z"/>
		<path class="st184" d="M126.3,118.3c0,0.9-0.4,1.5-1.3,1.5c-1,0.1-1.6-0.4-1.6-1.4c0-0.9,0.5-1.4,1.4-1.4
			C125.7,116.9,126.2,117.4,126.3,118.3z"/>
		<path class="st184" d="M37,70c0,0.9-0.4,1.5-1.3,1.5c-1,0.1-1.6-0.4-1.6-1.4c0-0.9,0.5-1.4,1.4-1.4C36.5,68.7,36.9,69.2,37,70z"/>
		<path class="st184" d="M117.8,129.9c-0.1,0.8-0.5,1.3-1.3,1.4c-0.9,0-1.4-0.5-1.4-1.4c0-0.8,0.5-1.3,1.3-1.3
			C117.2,128.6,117.6,129.1,117.8,129.9z"/>
		<path class="st184" d="M132.6,111.7c0.9,0.1,1.4,0.6,1.4,1.5c0,0.9-0.6,1.4-1.4,1.4c-0.9,0-1.4-0.5-1.4-1.4
			C131.1,112.2,131.7,111.8,132.6,111.7z"/>
		<path class="st184" d="M33.1,84.1c-0.9-0.1-1.4-0.6-1.4-1.5c0-0.9,0.6-1.4,1.5-1.3c0.8,0,1.3,0.5,1.3,1.3
			C34.5,83.6,34,84,33.1,84.1z"/>
		<path class="st184" d="M145.9,82.7c-0.1,0.9-0.5,1.4-1.4,1.4c-1,0-1.5-0.5-1.5-1.5c0-0.9,0.5-1.4,1.4-1.4
			C145.3,81.2,145.8,81.8,145.9,82.7z"/>
		<path class="st184" d="M38.8,96.4c-0.2,0.9-0.6,1.5-1.5,1.4c-0.9-0.1-1.4-0.6-1.3-1.5s0.6-1.4,1.5-1.3
			C38.3,95,38.7,95.6,38.8,96.4z"/>
		<path class="st184" d="M145.5,75c0.9,0.1,1.4,0.5,1.4,1.4c0,1-0.5,1.5-1.5,1.5c-0.9,0-1.4-0.6-1.4-1.5C144,75.5,144.6,75,145.5,75
			z"/>
		<path class="st184" d="M34.4,77.9c-1-0.1-1.6-0.5-1.6-1.4c0-0.9,0.5-1.4,1.4-1.5c0.9,0,1.4,0.5,1.5,1.4
			C35.7,77.3,35.1,77.7,34.4,77.9z"/>
		<path class="st184" d="M47.8,112.9c-0.9-0.1-1.4-0.5-1.4-1.4c0-1,0.6-1.5,1.5-1.4c0.9,0.1,1.3,0.6,1.3,1.5
			C49.2,112.4,48.7,112.8,47.8,112.9z"/>
		<path class="st184" d="M42.9,110.4c-0.1,0.8-0.5,1.3-1.3,1.4c-0.9,0-1.4-0.5-1.4-1.4c0-0.8,0.6-1.3,1.4-1.3
			C42.4,109,42.8,109.6,42.9,110.4z"/>
		<path class="st184" d="M47.4,40.8c-0.9-0.1-1.4-0.6-1.3-1.5c0-0.9,0.6-1.4,1.5-1.3c0.9,0,1.4,0.6,1.3,1.5
			C48.9,40.3,48.3,40.7,47.4,40.8z"/>
		<path class="st184" d="M147.6,62.4c0.8,0.1,1.3,0.6,1.3,1.4c0,0.9-0.5,1.4-1.4,1.4c-0.9,0-1.4-0.6-1.3-1.5
			C146.3,62.9,146.8,62.5,147.6,62.4z"/>
		<path class="st184" d="M40.2,51.3c-0.1,0.9-0.6,1.4-1.5,1.3c-0.9-0.1-1.4-0.6-1.3-1.5c0.1-0.8,0.6-1.3,1.4-1.3
			C39.6,49.8,40.1,50.4,40.2,51.3z"/>
		<path class="st184" d="M38.1,63.8c-0.1,0.9-0.5,1.4-1.4,1.5c-1,0-1.5-0.5-1.5-1.5c0-0.9,0.6-1.4,1.5-1.4
			C37.6,62.4,38,62.9,38.1,63.8z"/>
		<path class="st184" d="M78.7,129.6c-0.1,0.9-0.5,1.4-1.4,1.4c-1,0-1.5-0.5-1.5-1.5c0-0.9,0.6-1.4,1.5-1.4
			C78.2,128.2,78.6,128.7,78.7,129.6z"/>
		<path class="st184" d="M141.3,107.8c-0.1,0.9-0.5,1.5-1.4,1.5c-0.8,0-1.3-0.5-1.4-1.3c0-0.9,0.5-1.4,1.4-1.4
			C140.7,106.5,141.1,107.1,141.3,107.8z"/>
		<path class="st184" d="M133.6,41.5c-0.1,0.9-0.6,1.4-1.5,1.4c-1,0-1.5-0.6-1.5-1.5c0-1,0.7-1.5,1.6-1.4
			C133.2,40.1,133.6,40.6,133.6,41.5z"/>
		<path class="st184" d="M33.5,88.9c-0.1,0.9-0.5,1.4-1.3,1.5c-0.9,0.1-1.5-0.5-1.5-1.4c0-0.8,0.5-1.3,1.3-1.3
			C32.9,87.6,33.3,88.2,33.5,88.9z"/>
		<path class="st184" d="M143.1,90.5c-1-0.1-1.5-0.5-1.5-1.4c0-1,0.5-1.5,1.5-1.5c1,0,1.5,0.6,1.4,1.6
			C144.4,90,143.9,90.4,143.1,90.5z"/>
		<path class="st184" d="M110.2,127.5c0.8,0.1,1.4,0.6,1.3,1.5c0,0.9-0.6,1.4-1.5,1.3c-0.9,0-1.4-0.6-1.3-1.5
			C108.8,128,109.3,127.5,110.2,127.5z"/>
		<path class="st184" d="M37.7,103c-0.2,0.8-0.6,1.4-1.4,1.3c-0.9-0.1-1.4-0.6-1.3-1.5c0.1-0.8,0.6-1.3,1.4-1.2
			C37.2,101.8,37.6,102.3,37.7,103z"/>
		<path class="st184" d="M108.8,25.7c-0.9,0-1.5-0.4-1.5-1.3c-0.1-1,0.5-1.6,1.4-1.6c0.9,0,1.4,0.5,1.4,1.4
			C110.2,25.2,109.7,25.6,108.8,25.7z"/>
		<path class="st184" d="M139.9,42.4c-0.1,0.8-0.5,1.4-1.4,1.4c-0.8,0-1.3-0.5-1.4-1.3c0-0.9,0.5-1.4,1.4-1.4
			C139.3,41.1,139.7,41.6,139.9,42.4z"/>
		<path class="st184" d="M37.6,59c-0.9-0.1-1.4-0.5-1.4-1.4c0-1,0.6-1.5,1.5-1.4c0.9,0.1,1.3,0.6,1.3,1.5
			C39.1,58.5,38.5,58.9,37.6,59z"/>
		<path class="st184" d="M44,104.1c-0.1,0.9-0.6,1.4-1.5,1.4c-1,0-1.5-0.6-1.4-1.6c0.1-0.9,0.6-1.3,1.5-1.3
			C43.6,102.7,44,103.2,44,104.1z"/>
		<path class="st184" d="M39.8,43.2c0.8,0.2,1.4,0.6,1.3,1.4c0,0.8-0.5,1.3-1.3,1.3c-0.9,0-1.4-0.6-1.4-1.5
			C38.5,43.7,39.1,43.3,39.8,43.2z"/>
		<path class="st184" d="M142.3,57.6c-0.9-0.1-1.4-0.5-1.4-1.4c0-1,0.6-1.5,1.5-1.4c0.9,0.1,1.3,0.6,1.3,1.5
			C143.7,57.1,143.1,57.5,142.3,57.6z"/>
		<path class="st184" d="M145.1,49.7c-0.1,0.9-0.5,1.4-1.3,1.4c-0.9,0-1.4-0.5-1.4-1.4c0-0.8,0.6-1.3,1.4-1.3
			C144.5,48.5,144.9,49.1,145.1,49.7z"/>
		<path class="st184" d="M72.4,128.5c0,0.9-0.5,1.5-1.4,1.5c-0.9,0-1.4-0.4-1.5-1.3c0-0.9,0.4-1.4,1.3-1.5
			C71.8,127.1,72.2,127.6,72.4,128.5z"/>
		<path class="st184" d="M85,130.7c-0.1,0.9-0.5,1.4-1.5,1.4c-1,0-1.5-0.6-1.4-1.6c0.1-0.9,0.6-1.4,1.5-1.3
			C84.5,129.3,84.9,129.8,85,130.7z"/>
		<path class="st184" d="M89.8,130.6c0.9,0.1,1.4,0.5,1.4,1.4c0,0.9-0.5,1.4-1.4,1.4c-0.9,0-1.4-0.5-1.4-1.4
			C88.4,131.2,88.9,130.7,89.8,130.6z"/>
		<path class="st184" d="M96,131.7c1,0.1,1.5,0.6,1.5,1.5c0,0.9-0.6,1.4-1.5,1.3c-0.8,0-1.3-0.6-1.3-1.4
			C94.7,132.2,95.3,131.8,96,131.7z"/>
		<path class="st184" d="M102.4,132.8c0.8,0.1,1.3,0.5,1.4,1.3c0,0.9-0.5,1.4-1.4,1.4c-0.8,0-1.3-0.6-1.3-1.4
			C101.1,133.3,101.6,132.9,102.4,132.8z"/>
		<path class="st184" d="M97.2,14.2c0.8,0.2,1.3,0.6,1.3,1.4c0,0.8-0.6,1.3-1.4,1.3c-0.8,0-1.3-0.6-1.3-1.4
			C95.9,14.7,96.4,14.3,97.2,14.2z"/>
		<path class="st184" d="M53.3,125.1c-0.2,0.8-0.6,1.3-1.4,1.2c-0.7-0.1-1.1-0.6-1.1-1.3c0.1-0.8,0.6-1.3,1.4-1.2
			C52.9,123.9,53.3,124.4,53.3,125.1z"/>
		<path class="st184" d="M27.8,76.6c-0.8-0.2-1.3-0.6-1.2-1.4c0.1-0.7,0.6-1.2,1.3-1.1c0.8,0.1,1.3,0.6,1.2,1.4
			C29.1,76.2,28.5,76.6,27.8,76.6z"/>
		<path class="st184" d="M103.8,15.6c0.8,0.1,1.3,0.5,1.3,1.3c0,0.8-0.5,1.3-1.3,1.4c-0.8,0-1.3-0.5-1.4-1.3
			C102.5,16.2,103,15.7,103.8,15.6z"/>
		<path class="st184" d="M148.3,95c0.8,0.1,1.3,0.6,1.3,1.4c-0.1,0.8-0.6,1.3-1.4,1.2c-0.7-0.1-1.2-0.6-1.2-1.3
			C147,95.6,147.5,95.1,148.3,95z"/>
		<path class="st184" d="M152.1,83.8c-0.2,0.8-0.6,1.3-1.4,1.3c-0.8,0-1.3-0.6-1.3-1.4c0-0.8,0.6-1.3,1.4-1.3
			C151.5,82.5,152,83,152.1,83.8z"/>
		<path class="st184" d="M72.3,17.6c-0.1,0.8-0.5,1.3-1.3,1.4c-0.7,0-1.2-0.5-1.3-1.2c-0.1-0.8,0.4-1.4,1.2-1.4
			C71.6,16.3,72.1,16.8,72.3,17.6z"/>
		<path class="st184" d="M151,90.1c-0.2,0.8-0.6,1.3-1.4,1.3c-0.8,0-1.3-0.6-1.3-1.4c0-0.8,0.6-1.3,1.4-1.3
			C150.5,88.8,150.9,89.3,151,90.1z"/>
		<path class="st184" d="M110.1,16.7c0.8,0.1,1.3,0.5,1.4,1.3c0,0.7-0.4,1.2-1.1,1.3c-0.8,0.1-1.4-0.4-1.5-1.2
			C108.7,17.3,109.3,16.8,110.1,16.7z"/>
		<path class="st184" d="M148.6,58.9c-0.9-0.2-1.4-0.6-1.3-1.4c0.1-0.8,0.6-1.3,1.4-1.2c0.7,0.1,1.2,0.6,1.1,1.3
			C149.9,58.4,149.3,58.8,148.6,58.9z"/>
		<path class="st184" d="M150.4,77.5c0.1-0.8,0.5-1.3,1.3-1.4c0.7,0,1.2,0.4,1.3,1.1c0.1,0.8-0.4,1.4-1.2,1.5
			C151.1,78.9,150.6,78.3,150.4,77.5z"/>
		<path class="st184" d="M42.5,38.3c-0.1,0.7-0.5,1.2-1.2,1.3c-0.8,0.1-1.3-0.4-1.3-1.2c0-0.8,0.5-1.3,1.3-1.3
			C42,37.1,42.4,37.6,42.5,38.3z"/>
		<path class="st184" d="M31.1,94c0.8,0.1,1.3,0.6,1.2,1.4c-0.1,0.7-0.6,1.2-1.3,1.1c-0.8,0-1.3-0.6-1.2-1.4
			C29.9,94.5,30.4,94.1,31.1,94z"/>
		<path class="st184" d="M90.8,13.2c0.8,0.1,1.3,0.5,1.4,1.3c0,0.7-0.4,1.2-1.1,1.3c-0.8,0.1-1.4-0.4-1.5-1.2
			C89.5,13.8,90,13.3,90.8,13.2z"/>
		<path class="st184" d="M31.4,54.8c0.8,0.2,1.3,0.6,1.2,1.4c-0.1,0.7-0.6,1.2-1.3,1.1c-0.8-0.1-1.3-0.6-1.2-1.4
			C30.2,55.3,30.7,54.9,31.4,54.8z"/>
		<path class="st184" d="M154.1,71.2c-0.1,0.8-0.5,1.3-1.3,1.2c-0.8,0-1.3-0.5-1.2-1.4c0.1-0.7,0.6-1.2,1.3-1.1
			C153.6,70,154,70.5,154.1,71.2z"/>
		<path class="st184" d="M140.1,114.5c-0.1,0.7-0.5,1.2-1.1,1.3c-0.8,0.1-1.3-0.4-1.4-1.2c0-0.7,0.4-1.2,1.1-1.3
			C139.5,113.2,140,113.7,140.1,114.5z"/>
		<path class="st184" d="M146,103c0.1-0.7,0.5-1.2,1.2-1.2c0.8,0,1.3,0.5,1.3,1.3c0,0.7-0.5,1.2-1.3,1.1
			C146.4,104.2,146,103.7,146,103z"/>
		<path class="st184" d="M29.3,70.4c-0.9-0.2-1.4-0.6-1.3-1.4c0.1-0.8,0.6-1.3,1.4-1.2c0.7,0.1,1.2,0.6,1.2,1.3
			C30.6,69.9,30,70.3,29.3,70.4z"/>
		<path class="st184" d="M127.9,26.1c0.9,0.2,1.4,0.6,1.3,1.4c-0.1,0.8-0.6,1.3-1.4,1.2c-0.7-0.1-1.2-0.6-1.2-1.3
			C126.7,26.6,127.2,26.2,127.9,26.1z"/>
		<path class="st184" d="M30.4,61.4c0.8,0.1,1.3,0.6,1.3,1.4c-0.1,0.8-0.6,1.3-1.4,1.2C29.5,64,29,63.5,29,62.8
			C29.1,62,29.6,61.6,30.4,61.4z"/>
		<path class="st184" d="M84.6,14.7c-0.7-0.1-1.2-0.5-1.3-1.2c0-0.7,0.4-1.2,1.1-1.3c0.8-0.1,1.3,0.4,1.3,1.2
			C85.8,14.2,85.3,14.6,84.6,14.7z"/>
		<path class="st184" d="M71.2,134.9c-0.1,0.8-0.6,1.3-1.4,1.2c-0.7,0-1.2-0.5-1.2-1.3c0-0.8,0.5-1.3,1.3-1.2
			C70.7,133.6,71.1,134.1,71.2,134.9z"/>
		<path class="st184" d="M110,135.2c-0.1,0.7-0.5,1.2-1.2,1.3c-0.8,0.1-1.3-0.4-1.4-1.2c0-0.7,0.4-1.2,1.1-1.3
			C109.4,133.9,109.9,134.4,110,135.2z"/>
		<path class="st184" d="M77.5,135.9c-0.2,0.8-0.6,1.3-1.4,1.3c-0.8-0.1-1.3-0.6-1.2-1.4c0.1-0.7,0.6-1.2,1.3-1.1
			C77,134.6,77.4,135.2,77.5,135.9z"/>
		<path class="st184" d="M82.5,136c0.7,0.1,1.2,0.5,1.3,1.2c0.1,0.8-0.4,1.3-1.2,1.3c-0.8,0-1.3-0.5-1.3-1.3
			C81.3,136.5,81.7,136.1,82.5,136z"/>
		<path class="st184" d="M90,138.3c-0.1,0.7-0.5,1.2-1.2,1.3c-0.8,0.1-1.3-0.4-1.4-1.2c0-0.7,0.4-1.2,1.1-1.3
			C89.5,137,89.9,137.5,90,138.3z"/>
		<path class="st184" d="M64.4,15.2c0.8,0,1.2,0.3,1.3,1c0,0.7-0.3,1.1-1,1.2c-0.7,0-1.1-0.3-1.2-1C63.5,15.6,63.9,15.3,64.4,15.2z"
			/>
		<path class="st184" d="M46.5,124.1c-0.1,0.7-0.4,1.1-1.1,1.1c-0.8,0-1.2-0.5-1.1-1.2c0.1-0.7,0.5-1,1.2-1
			C46.2,123,46.5,123.4,46.5,124.1z"/>
		<path class="st184" d="M116.4,17.9c0.8,0.1,1.2,0.5,1.2,1.3c0,0.8-0.5,1.2-1.3,1.1c-0.7-0.1-1.1-0.5-1.1-1.2
			C115.3,18.3,115.7,17.9,116.4,17.9z"/>
		<path class="st184" d="M153.9,63.7c0.8,0.1,1.2,0.5,1.1,1.3c0,0.7-0.5,1.1-1.2,1c-0.8,0-1.2-0.5-1.1-1.3
			C152.8,64.1,153.2,63.7,153.9,63.7z"/>
		<path class="st184" d="M158.1,84.7c0,0.8-0.4,1.2-1.1,1.2c-0.7,0-1.1-0.4-1.1-1c0-0.7,0.4-1.1,1-1.1
			C157.7,83.7,158,84.1,158.1,84.7z"/>
		<path class="st184" d="M40.1,123c-0.1,0.6-0.5,1-1.2,0.9c-0.6-0.1-0.9-0.5-0.9-1.1c0.1-0.7,0.5-1.1,1.2-1
			C39.8,122,40.1,122.4,40.1,123z"/>
		<path class="st184" d="M122.8,21.2c-0.7,0-1.1-0.3-1.2-1c-0.1-0.7,0.3-1.2,1.1-1.2c0.7,0,1.1,0.4,1.1,1.1
			C123.8,20.7,123.5,21.1,122.8,21.2z"/>
		<path class="st184" d="M156.3,51.2c0.6,0.1,1.1,0.5,1,1.2c-0.1,0.6-0.5,1-1.1,0.9c-0.7,0-1.1-0.5-1-1.1
			C155.3,51.6,155.7,51.3,156.3,51.2z"/>
		<path class="st184" d="M146.1,110.4c-0.8-0.1-1.1-0.5-1.1-1.3c0.1-0.7,0.5-1,1.2-1c0.8,0,1.1,0.5,1.1,1.3
			C147.2,110.1,146.8,110.4,146.1,110.4z"/>
		<path class="st184" d="M35.3,110.5c-0.8-0.1-1.2-0.5-1.2-1.2c0-0.7,0.4-1.1,1.1-1.1c0.8,0,1.2,0.4,1.2,1.2
			C36.4,110.1,35.9,110.4,35.3,110.5z"/>
		<path class="st184" d="M43.4,32c0,0.7-0.4,1.1-1.2,1.1c-0.7,0-1.1-0.4-1.1-1.1c0-0.8,0.4-1.2,1.2-1.1C43,30.9,43.3,31.3,43.4,32z"
			/>
		<path class="st184" d="M150,52.4c-0.7,0-1.2-0.4-1.2-1.2c0-0.7,0.4-1.1,1.1-1.1c0.8,0,1.2,0.4,1.2,1.1
			C151.1,51.9,150.7,52.3,150,52.4z"/>
		<path class="st184" d="M130.1,21c-0.1,0.8-0.4,1.2-1.1,1.1c-0.7,0-1.1-0.5-1-1.2c0-0.6,0.4-0.9,1-1C129.7,20.1,130,20.5,130.1,21z
			"/>
		<path class="st184" d="M26.2,49.8c-0.7-0.1-1.1-0.4-1.1-1.1c0-0.6,0.4-1,1-1c0.7,0,1.1,0.4,1.1,1.1C27.2,49.4,26.8,49.7,26.2,49.8
			z"/>
		<path class="st184" d="M151.1,45.7c-0.7-0.1-1.1-0.4-1.1-1.1c0-0.7,0.5-1.1,1.2-1c0.6,0,1,0.4,1,1
			C152.1,45.2,151.7,45.6,151.1,45.7z"/>
		<path class="st184" d="M136.4,22.5c-0.1,0.7-0.4,1.1-1.1,1c-0.6,0-1-0.4-1-1c0-0.7,0.4-1.1,1.1-1.1
			C136,21.5,136.3,21.9,136.4,22.5z"/>
		<path class="st184" d="M29.7,107.8c0,0.7-0.4,1.1-1,1.1c-0.7,0-1.1-0.4-1.1-1.1c0-0.6,0.4-1,0.9-1
			C29.2,106.8,29.5,107.2,29.7,107.8z"/>
		<path class="st184" d="M24.1,62.4c-0.7,0-1.1-0.4-1.1-1.1c0-0.7,0.4-1.1,1.1-1.1c0.6,0,1,0.4,1,1C25.2,62,24.8,62.4,24.1,62.4z"/>
		<path class="st184" d="M137.4,122c-0.8-0.1-1.2-0.5-1.1-1.2c0-0.7,0.5-1,1.1-1c0.8,0,1.1,0.5,1.1,1.2
			C138.5,121.6,138.1,122,137.4,122z"/>
		<path class="st184" d="M26.9,87.9c-0.1,0.8-0.4,1.2-1.1,1.2c-0.8,0-1.2-0.5-1.1-1.2c0.1-0.7,0.5-1,1.2-1
			C26.6,86.9,26.9,87.3,26.9,87.9z"/>
		<path class="st184" d="M43.1,24.6c0.8,0,1.2,0.4,1.2,1c0,0.7-0.4,1.1-1.1,1.1c-0.6,0-1-0.4-1-0.9C42.2,25.1,42.6,24.8,43.1,24.6z"
			/>
		<path class="st184" d="M50.8,26.7c-0.1,0.8-0.5,1.3-1.3,1.2c-0.8,0-1.2-0.5-1.1-1.3c0.1-0.7,0.5-1.1,1.2-1.1
			C50.3,25.6,50.7,26,50.8,26.7z"/>
		<path class="st184" d="M134.2,27.7c0.7,0,1.2,0.4,1.2,1.2c0,0.7-0.4,1.1-1.1,1.1c-0.8,0-1.2-0.4-1.2-1.2
			C133.1,28.1,133.5,27.8,134.2,27.7z"/>
		<path class="st184" d="M141.6,30c-0.1,0.7-0.5,1-1.2,1c-0.7-0.1-1-0.5-0.9-1.2c0.1-0.6,0.5-0.9,1.1-0.9
			C141.3,28.9,141.6,29.3,141.6,30z"/>
		<path class="st184" d="M21.7,75.4c-0.8-0.1-1.2-0.4-1.1-1.1c0-0.7,0.4-1,1.1-1c0.6,0,0.9,0.4,1,1C22.7,75,22.2,75.3,21.7,75.4z"/>
		<path class="st184" d="M159.2,71.2c0.7,0.1,1,0.5,1,1.2c-0.1,0.7-0.5,1-1.2,0.9c-0.6-0.1-0.9-0.5-0.9-1.1
			C158.1,71.5,158.5,71.2,159.2,71.2z"/>
		<path class="st184" d="M159.1,78.6c-0.1,0.7-0.5,1.1-1.2,1c-0.7,0-1-0.5-1-1.2c0.1-0.6,0.4-0.9,1-0.9
			C158.8,77.5,159.1,77.9,159.1,78.6z"/>
		<path class="st184" d="M41.3,116.7c-0.1,0.8-0.5,1.1-1.1,1.1c-0.8,0-1.2-0.4-1.2-1.2c0-0.8,0.5-1.1,1.3-1.1
			C41,115.6,41.3,116.1,41.3,116.7z"/>
		<path class="st184" d="M144,115.7c0.1-0.8,0.4-1.2,1.1-1.1s1.1,0.4,1,1.1c0,0.7-0.4,1.1-1.1,1C144.4,116.7,144.1,116.2,144,115.7z
			"/>
		<path class="st184" d="M153.5,103c0.7,0.1,1.1,0.4,1.1,1.1c0,0.7-0.4,1-1.1,1c-0.6,0-1-0.4-1-1C152.4,103.4,152.8,103.1,153.5,103
			z"/>
		<path class="st184" d="M154.2,58.6c0.1-0.7,0.4-1.1,1.1-1s1.1,0.4,1,1.1c0,0.7-0.4,1.1-1.1,1C154.5,59.6,154.2,59.2,154.2,58.6z"
			/>
		<path class="st184" d="M33.5,44.6c-0.7,0-1.1-0.4-1.1-1.1c0-0.8,0.4-1.2,1.2-1.1c0.7,0,1,0.5,1,1.1C34.6,44.3,34.2,44.6,33.5,44.6
			z"/>
		<path class="st184" d="M145.9,43.5c-0.1,0.8-0.5,1.2-1.3,1.2c-0.8,0-1.2-0.5-1.1-1.3c0-0.7,0.5-1.1,1.1-1.1
			C145.5,42.4,145.9,42.8,145.9,43.5z"/>
		<path class="st184" d="M21.6,80.6c0,0.6-0.4,1-0.9,1.1c-0.7,0.1-1.1-0.3-1.2-1c0-0.7,0.4-1.1,1.1-1.1C21.2,79.6,21.5,80,21.6,80.6
			z"/>
		<path class="st184" d="M155.9,90.4c0.7,0,1.1,0.3,1.2,1c0,0.7-0.3,1.1-1,1.2c-0.7,0-1.1-0.3-1.2-1
			C154.8,90.9,155.2,90.5,155.9,90.4z"/>
		<path class="st184" d="M33.7,114.5c0.8,0,1.2,0.4,1.2,1c0,0.7-0.4,1.1-1.1,1.1c-0.6,0-1-0.4-1-0.9C32.7,115,33.2,114.7,33.7,114.5
			z"/>
		<path class="st184" d="M25.8,94.3c-0.1,0.7-0.5,1.1-1.2,1c-0.7-0.1-1-0.5-1-1.2c0.1-0.6,0.5-0.9,1.1-0.9
			C25.5,93.2,25.8,93.6,25.8,94.3z"/>
		<path class="st184" d="M136.4,128.2c-0.7-0.1-1.1-0.4-1-1.1c0-0.7,0.5-1,1.1-1c0.6,0,0.9,0.4,1,1
			C137.4,127.8,137,128.1,136.4,128.2z"/>
		<path class="st184" d="M31.1,101.7c-0.1,0.7-0.4,1.1-1.1,1.1c-0.8,0-1.2-0.5-1.1-1.2c0.1-0.7,0.5-1,1.2-1
			C30.8,100.6,31.1,101,31.1,101.7z"/>
		<path class="st184" d="M86.7,7.1c-0.1,0.8-0.5,1.2-1.2,1.1c-0.7-0.1-1-0.5-0.9-1.2c0.1-0.6,0.5-0.9,1.1-0.9
			C86.3,6.1,86.6,6.6,86.7,7.1z"/>
		<path class="st184" d="M139.5,37.4c-0.7-0.1-1.2-0.5-1.2-1.2c0-0.8,0.5-1.2,1.2-1.1c0.7,0,1.1,0.4,1.1,1.1
			C140.7,36.9,140.3,37.3,139.5,37.4z"/>
		<path class="st184" d="M28,81.7c-0.1,0.7-0.5,1.2-1.2,1.2c-0.8,0-1.2-0.5-1.1-1.2c0-0.7,0.4-1.1,1.1-1.1
			C27.5,80.5,28,80.9,28,81.7z"/>
		<path class="st184" d="M26.2,55.1c-0.1,0.7-0.5,1.1-1.2,1c-0.7,0-1-0.5-1-1.2c0.1-0.6,0.4-0.9,1-0.9C25.8,54,26.1,54.4,26.2,55.1z
			"/>
		<path class="st184" d="M92.4,9.3c-0.7,0-1.1-0.3-1.1-1c0-0.7,0.4-1.1,1.1-1.1c0.6,0,1,0.3,1,0.9C93.4,8.8,93,9.2,92.4,9.3z"/>
		<path class="st184" d="M154.5,96.7c0.8,0.1,1.1,0.5,1.1,1.2c-0.1,0.7-0.5,1-1.2,0.9c-0.6-0.1-0.9-0.5-0.9-1.1
			C153.5,97,154,96.7,154.5,96.7z"/>
		<path class="st184" d="M32.5,51c-0.7,0-1.2-0.4-1.2-1.1c0-0.8,0.4-1.2,1.2-1.2c0.7,0,1.1,0.4,1.2,1C33.7,50.4,33.3,50.9,32.5,51z"
			/>
		<path class="st184" d="M22.7,68.7c-0.7,0-1.1-0.4-1.1-1.1c0-0.7,0.4-1.1,1.1-1.1c0.6,0,1,0.4,1,1C23.8,68.3,23.4,68.7,22.7,68.7z"
			/>
		<path class="st184" d="M123.8,131.4c-0.1,0.7-0.5,1-1.2,1c-0.8,0-1.1-0.5-1.1-1.3c0.1-0.7,0.6-1,1.2-0.9
			C123.5,130.3,123.8,130.8,123.8,131.4z"/>
		<path class="st184" d="M99.7,9.2c0,0.7-0.4,1.1-1.1,1.1c-0.7,0-1.1-0.4-1.1-1c0-0.7,0.4-1.1,1-1.1C99.2,8.1,99.6,8.5,99.7,9.2z"/>
		<path class="st184" d="M58,132.6c0,0.7-0.4,1.1-0.9,1.2c-0.7,0.1-1.1-0.3-1.2-1c0-0.7,0.4-1.1,1.1-1.1
			C57.6,131.7,57.9,132.2,58,132.6z"/>
		<path class="st184" d="M104.9,9.2c0.7,0.1,1.1,0.5,1,1.2c-0.1,0.7-0.5,1-1.2,0.9c-0.6-0.1-0.9-0.5-0.9-1.1
			C103.8,9.6,104.3,9.3,104.9,9.2z"/>
		<path class="st184" d="M64.7,133.8c-0.1,0.8-0.5,1.2-1.2,1.2c-0.7,0-1.1-0.4-1.1-1.1c0-0.8,0.4-1.2,1.2-1.2
			C64.3,132.7,64.7,133.1,64.7,133.8z"/>
		<path class="st184" d="M72,12.4c-0.7-0.1-1.1-0.4-1.1-1.1c0-0.7,0.4-1,1.1-1c0.6,0,0.9,0.4,1,1C73.1,12,72.7,12.3,72,12.4z"/>
		<path class="st184" d="M36,37.2c0,0.7-0.4,1.1-1.1,1.1c-0.7,0-1.1-0.4-1.1-1c0-0.7,0.4-1.1,1-1.1C35.6,36.1,35.9,36.5,36,37.2z"/>
		<path class="st184" d="M146.9,37.3c-0.1,0.7-0.5,1-1.2,1c-0.7,0-1-0.5-1-1.2c0-0.7,0.5-1,1.2-1C146.6,36.2,146.9,36.6,146.9,37.3z
			"/>
		<path class="st184" d="M130.1,127.3c-0.7-0.1-1.2-0.4-1.1-1.2c0-0.7,0.4-1.1,1.1-1.1c0.8,0,1.2,0.4,1.2,1.2
			C131.2,126.9,130.8,127.2,130.1,127.3z"/>
		<path class="st184" d="M116.4,136.3c-0.1,0.7-0.5,1.1-1.1,1c-0.7-0.1-1-0.5-1-1.2c0.1-0.6,0.4-0.9,1-0.9
			C116,135.2,116.4,135.6,116.4,136.3z"/>
		<path class="st184" d="M79.4,12.5c-0.1,0.8-0.5,1.1-1.3,1.1c-0.7-0.1-1-0.5-1-1.2c0-0.8,0.5-1.1,1.3-1.1
			C79.1,11.3,79.4,11.8,79.4,12.5z"/>
		<path class="st184" d="M57,20.3c0.7,0.1,1.1,0.4,1.1,1.1c0,0.8-0.4,1.2-1.2,1.2c-0.8,0-1.1-0.5-1.1-1.3
			C55.9,20.7,56.3,20.3,57,20.3z"/>
		<path class="st184" d="M96.3,139.3c-0.1,0.8-0.4,1.2-1.2,1.2c-0.7,0-1.1-0.4-1.2-1c-0.1-0.7,0.3-1.2,1.1-1.3
			C95.8,138.2,96.2,138.6,96.3,139.3z"/>
		<path class="st184" d="M102.5,140.4c0,0.8-0.4,1.2-1.1,1.2c-0.8,0-1.2-0.4-1.1-1.2c0-0.7,0.5-1,1.1-1
			C102.1,139.4,102.4,139.8,102.5,140.4z"/>
		<path class="st184" d="M108.7,141.4c-0.1,0.7-0.4,1.2-1.1,1.1c-0.6,0-1-0.4-1-1c0-0.7,0.4-1.1,1.1-1.1
			C108.4,140.5,108.6,140.9,108.7,141.4z"/>
		<path class="st184" d="M75.1,143.3c-0.7-0.1-1.1-0.4-1.1-1.1c0-0.7,0.5-1.1,1.2-1c0.6,0,1,0.4,1,1
			C76.2,142.9,75.8,143.2,75.1,143.3z"/>
		<path class="st184" d="M82.5,143.6c-0.1,0.7-0.5,1.1-1.2,1c-0.7,0-1-0.5-1-1.2c0.1-0.6,0.4-0.9,1-0.9
			C82.1,142.5,82.5,143,82.5,143.6z"/>
		<path class="st184" d="M88.8,144.6c-0.1,0.7-0.5,1.1-1.2,1.1c-0.7-0.1-1-0.5-0.9-1.2c0.1-0.6,0.5-0.9,1.1-0.9
			C88.5,143.6,88.7,144.1,88.8,144.6z"/>
		<path class="st184" d="M95.1,145.7c-0.1,0.7-0.5,1.1-1.2,1.1c-0.6-0.1-1-0.5-0.9-1.1c0-0.7,0.5-1.1,1.2-1
			C94.7,144.7,95,145.2,95.1,145.7z"/>
		<path class="st184" d="M157.4,45c0.6,0.2,1,0.5,0.9,1.1c-0.1,0.5-0.5,0.9-1,0.8c-0.6-0.1-1-0.5-0.9-1.1
			C156.5,45.3,156.9,45,157.4,45z"/>
		<path class="st184" d="M27.2,41.5c0.6,0.1,1,0.4,1,1c0,0.6-0.4,1-0.9,1c-0.6,0-1-0.4-1-0.9C26.2,41.9,26.6,41.6,27.2,41.5z"/>
		<path class="st184" d="M22.3,107.8c-0.5-0.1-0.9-0.3-0.9-0.9c-0.1-0.5,0.3-0.9,0.8-1c0.6-0.1,1,0.3,1,0.9
			C23.2,107.4,22.8,107.7,22.3,107.8z"/>
		<path class="st184" d="M152.1,37.3c0.6,0.1,1,0.4,0.9,1c0,0.6-0.5,1-1.1,0.9c-0.5,0-0.9-0.4-0.9-0.9
			C151.1,37.7,151.5,37.4,152.1,37.3z"/>
		<path class="st184" d="M152.4,109.3c0.6,0.1,1,0.4,1,1c0,0.7-0.4,1.1-1.1,1.1c-0.6,0-1-0.4-0.9-1
			C151.5,109.7,151.9,109.4,152.4,109.3z"/>
		<path class="st184" d="M29.2,36.1c0,0.5-0.3,0.9-0.8,1c-0.6,0.1-1-0.3-1.1-0.9c-0.1-0.5,0.3-0.9,0.8-1
			C28.7,35.2,29,35.6,29.2,36.1z"/>
		<path class="st184" d="M27.5,113.6c0.6,0,1,0.3,1,0.8c0.1,0.6-0.3,1-0.9,1.1c-0.5,0.1-0.9-0.3-1-0.8
			C26.5,114.1,27,113.8,27.5,113.6z"/>
		<path class="st184" d="M152.4,116.7c-0.1,0.6-0.5,1-1.1,0.9c-0.5-0.1-0.9-0.4-0.8-1c0-0.6,0.4-1,1-0.9
			C152,115.8,152.3,116.2,152.4,116.7z"/>
		<path class="st184" d="M33.8,121.8c0,0.6-0.3,0.9-0.8,1c-0.6,0.1-1-0.3-1.1-0.9c-0.1-0.5,0.3-0.9,0.8-1
			C33.3,120.9,33.6,121.3,33.8,121.8z"/>
		<path class="st184" d="M144.2,122.9c-0.6,0-1-0.3-1.1-0.9c-0.1-0.7,0.3-1.1,1-1.1c0.6,0,1,0.4,1,1
			C145.1,122.5,144.7,122.8,144.2,122.9z"/>
		<path class="st184" d="M146.8,29.9c0.6,0.2,1.1,0.5,1,1.1c-0.1,0.6-0.5,1-1.1,0.9c-0.5-0.1-0.9-0.4-0.9-0.9
			C145.9,30.3,146.3,30.1,146.8,29.9z"/>
		<path class="st184" d="M35.9,29.9c0.6,0.1,1,0.4,1,1c0,0.7-0.4,1.1-1.1,1.1c-0.6,0-1-0.4-0.9-1C35,30.3,35.4,30,35.9,29.9z"/>
		<path class="st184" d="M142.6,129.2c-0.6-0.1-1-0.4-0.9-1.1c0-0.5,0.4-0.9,0.9-0.8c0.6,0,1,0.4,0.9,1
			C143.6,128.8,143.2,129.1,142.6,129.2z"/>
		<path class="st184" d="M51.6,131.7c-0.1,0.5-0.4,0.9-0.9,0.9c-0.5,0-0.9-0.3-1-0.8c-0.1-0.6,0.3-1,0.9-1
			C51.2,130.8,51.5,131.2,51.6,131.7z"/>
		<path class="st184" d="M80.4,6.1c-0.1,0.6-0.4,1-1,1c-0.7,0-1.1-0.4-1.1-1.1c0-0.6,0.4-1,1-0.9C79.9,5.1,80.3,5.5,80.4,6.1z"/>
		<path class="st184" d="M51.6,20.5c-0.2,0.6-0.5,1-1.1,0.9c-0.5-0.1-0.9-0.4-0.8-1c0.1-0.6,0.5-1,1.1-0.9
			C51.3,19.6,51.6,20,51.6,20.5z"/>
		<path class="st184" d="M142.6,23.6c-0.1,0.6-0.5,1-1.1,0.9c-0.5-0.1-0.9-0.4-0.8-1c0-0.6,0.4-1,1-0.9
			C142.2,22.7,142.5,23.1,142.6,23.6z"/>
		<path class="st184" d="M38,24.6c0,0.5-0.3,0.9-0.8,1c-0.6,0.1-1-0.3-1.1-0.9c-0.1-0.5,0.3-0.9,0.8-1C37.5,23.6,37.8,24,38,24.6z"
			/>
		<path class="st184" d="M165.4,74.2c-0.5-0.1-0.9-0.4-0.9-0.9c0-0.6,0.4-1,1.1-0.9c0.5,0.1,0.8,0.5,0.8,1
			C166.2,73.9,165.9,74.2,165.4,74.2z"/>
		<path class="st184" d="M15.3,72c0.5,0.1,0.9,0.4,0.9,0.9c0,0.6-0.4,1-1,0.9c-0.5,0-0.9-0.4-0.8-1C14.4,72.4,14.8,72.1,15.3,72z"/>
		<path class="st184" d="M16.3,67.6c-0.5-0.1-0.9-0.4-0.8-1c0.1-0.6,0.5-1,1.1-0.9c0.5,0.1,0.8,0.5,0.8,1
			C17.2,67.2,16.8,67.5,16.3,67.6z"/>
		<path class="st184" d="M160.2,64.9c0.6,0.1,1,0.4,1,1c0,0.6-0.4,1-1,1c-0.7,0-1.1-0.4-1-1.1C159.2,65.3,159.6,64.9,160.2,64.9z"/>
		<path class="st184" d="M163.3,87.2c-0.6-0.1-1-0.5-0.9-1.1c0.1-0.5,0.4-0.9,1-0.8c0.6,0.1,1,0.5,0.9,1.1
			C164.2,86.8,163.8,87.1,163.3,87.2z"/>
		<path class="st184" d="M20.5,86.9c-0.1,0.6-0.4,1-1,1c-0.6,0-1-0.4-1-0.9c0-0.6,0.4-1,0.9-1C20.1,85.9,20.4,86.3,20.5,86.9z"/>
		<path class="st184" d="M18.7,60.2c0,0.6-0.4,1-0.8,1c-0.6,0.1-1-0.3-1.1-0.9c0-0.5,0.3-0.9,0.8-1C18.2,59.3,18.6,59.7,18.7,60.2z"
			/>
		<path class="st184" d="M161.6,60.6c-0.6-0.2-1.1-0.5-1-1.1c0.1-0.6,0.5-1,1.1-0.9c0.5,0.1,0.9,0.4,0.8,1
			C162.5,60.2,162.1,60.5,161.6,60.6z"/>
		<path class="st184" d="M162.2,91.6c0.5,0,0.9,0.3,1,0.8c0.1,0.6-0.3,1-0.8,1.1c-0.5,0.1-0.9-0.3-1-0.8
			C161.2,92.1,161.6,91.7,162.2,91.6z"/>
		<path class="st184" d="M69.4,141.2c-0.1,0.5-0.4,0.9-0.9,0.9c-0.6,0-1-0.4-0.9-1c0-0.5,0.4-0.9,1-0.8
			C69.1,140.3,69.3,140.6,69.4,141.2z"/>
		<path class="st184" d="M18.4,94.2c-0.6-0.1-1-0.4-0.9-1.1c0-0.5,0.4-0.9,0.9-0.8c0.6,0,1,0.4,0.9,1C19.3,93.8,19,94.1,18.4,94.2z"
			/>
		<path class="st184" d="M19.7,54c0,0.5-0.3,0.9-0.8,1c-0.5,0.1-0.9-0.3-1-0.8c-0.1-0.6,0.3-1,0.9-1.1C19.3,53.1,19.6,53.5,19.7,54z
			"/>
		<path class="st184" d="M165.3,79.8c-0.1,0.6-0.4,1-0.9,1c-0.6,0.1-1-0.3-1-0.9c0-0.5,0.3-0.9,0.8-0.9
			C164.9,78.9,165.2,79.4,165.3,79.8z"/>
		<path class="st184" d="M161.1,97.9c0.5,0,0.9,0.3,1,0.8c0.1,0.5-0.3,0.9-0.8,1c-0.6,0.1-1-0.3-1.1-0.9
			C160.2,98.3,160.6,98,161.1,97.9z"/>
		<path class="st184" d="M24.7,100.5c-0.1,0.6-0.4,1-1,1c-0.7,0-1.1-0.4-1.1-1.1c0-0.6,0.4-1,1-1C24.3,99.6,24.6,100,24.7,100.5z"/>
		<path class="st184" d="M100.4,147.8c-0.7-0.1-1.1-0.4-1.1-1c0-0.6,0.4-1,0.9-1c0.6,0,1,0.4,1,0.9
			C101.4,147.3,100.9,147.6,100.4,147.8z"/>
		<path class="st184" d="M22.7,35.2c-0.1,0.5-0.3,0.7-0.8,0.7c-0.5,0-0.7-0.3-0.7-0.8c0-0.5,0.3-0.7,0.8-0.7
			C22.5,34.4,22.7,34.7,22.7,35.2z"/>
		<path class="st184" d="M159.4,33.8c-0.5-0.1-0.7-0.4-0.6-0.8c0.1-0.5,0.4-0.7,0.9-0.6c0.4,0.1,0.6,0.4,0.6,0.7
			C160.1,33.6,159.8,33.8,159.4,33.8z"/>
		<path class="st184" d="M154,32c-0.1,0.6-0.4,0.8-0.9,0.7c-0.5-0.1-0.7-0.4-0.7-0.8c0-0.6,0.4-0.8,0.9-0.7
			C153.8,31.3,154,31.6,154,32z"/>
		<path class="st184" d="M158.4,40.5c-0.5,0-0.8-0.4-0.7-0.9c0-0.5,0.4-0.7,0.8-0.7c0.6,0,0.8,0.4,0.8,0.9
			C159.1,40.3,158.8,40.5,158.4,40.5z"/>
		<path class="st184" d="M147.8,23.8c0.6,0,0.9,0.2,0.9,0.7c0.1,0.5-0.2,0.9-0.8,0.9c-0.5,0-0.8-0.2-0.8-0.7
			C147.1,24.2,147.3,23.9,147.8,23.8z"/>
		<path class="st184" d="M12.4,85.9c0-0.5,0.2-0.8,0.7-0.8c0.5,0,0.8,0.2,0.8,0.7c0,0.5-0.2,0.9-0.8,0.9
			C12.7,86.6,12.5,86.4,12.4,85.9z"/>
		<path class="st184" d="M27.3,120.9c0,0.5-0.3,0.7-0.7,0.8c-0.6,0-0.8-0.3-0.8-0.9c0-0.5,0.4-0.7,0.8-0.7
			C27,120.1,27.3,120.4,27.3,120.9z"/>
		<path class="st184" d="M32.5,128.2c-0.1,0.5-0.3,0.7-0.8,0.7c-0.5,0-0.7-0.4-0.6-0.8c0-0.4,0.3-0.6,0.7-0.6
			C32.2,127.5,32.5,127.8,32.5,128.2z"/>
		<path class="st184" d="M17.8,99.4c0,0.6-0.2,0.9-0.7,0.9c-0.5,0-0.9-0.2-0.9-0.8c0-0.5,0.2-0.8,0.7-0.8
			C17.5,98.7,17.8,99,17.8,99.4z"/>
		<path class="st184" d="M164.4,47.1c-0.1,0.5-0.3,0.7-0.8,0.7c-0.5,0-0.7-0.3-0.7-0.8c0-0.5,0.3-0.7,0.8-0.7
			C164.2,46.3,164.4,46.6,164.4,47.1z"/>
		<path class="st184" d="M111,10.9c0.6,0,0.9,0.2,0.9,0.7c0.1,0.5-0.2,0.9-0.8,0.9c-0.5,0-0.8-0.2-0.8-0.7
			C110.3,11.3,110.6,11,111,10.9z"/>
		<path class="st184" d="M15.1,79.1c-0.1,0.6-0.4,1-0.9,0.9c-0.5,0-0.8-0.4-0.8-0.9c0-0.4,0.3-0.7,0.8-0.7
			C14.8,78.4,15,78.7,15.1,79.1z"/>
		<path class="st184" d="M9.3,65.5c0.1-0.5,0.4-0.7,0.8-0.6c0.5,0.1,0.7,0.4,0.6,0.9c-0.1,0.4-0.3,0.6-0.7,0.6
			C9.5,66.3,9.3,66,9.3,65.5z"/>
		<path class="st184" d="M16,106.6c-0.6-0.1-0.8-0.3-0.8-0.8c0-0.5,0.3-0.7,0.8-0.7c0.5,0,0.7,0.3,0.7,0.8
			C16.7,106.4,16.4,106.6,16,106.6z"/>
		<path class="st184" d="M171.8,75.4c-0.5,0-0.8-0.3-0.8-0.7c0-0.5,0.3-0.7,0.8-0.7c0.4,0,0.6,0.2,0.7,0.6
			C172.5,75.1,172.2,75.3,171.8,75.4z"/>
		<path class="st184" d="M158.7,112.2c-0.6-0.1-0.8-0.4-0.7-0.9c0.1-0.5,0.4-0.7,0.8-0.7c0.6,0,0.8,0.4,0.7,0.9
			C159.5,112,159.2,112.2,158.7,112.2z"/>
		<path class="st184" d="M9,71.1c0.5,0,0.8,0.3,0.7,0.8c0,0.5-0.3,0.7-0.8,0.7c-0.4,0-0.6-0.3-0.6-0.7C8.3,71.4,8.5,71.2,9,71.1z"/>
		<path class="st184" d="M168.2,99.9c-0.1,0.5-0.3,0.7-0.8,0.7c-0.5,0-0.7-0.4-0.6-0.8c0-0.4,0.3-0.6,0.7-0.6
			C168,99.1,168.2,99.4,168.2,99.9z"/>
		<path class="st184" d="M166,67.1c0-0.5,0.2-0.8,0.6-0.9c0.5-0.1,0.9,0.1,0.9,0.7c0,0.5-0.2,0.8-0.6,0.9
			C166.4,67.8,166.1,67.6,166,67.1z"/>
		<path class="st184" d="M30.7,24.3c-0.5,0-0.8-0.3-0.7-0.8c0-0.5,0.4-0.7,0.8-0.7c0.4,0,0.6,0.3,0.6,0.7
			C31.4,24,31.2,24.3,30.7,24.3z"/>
		<path class="st184" d="M170.6,80.2c0.5,0,0.7,0.2,0.7,0.7c0,0.5-0.3,0.7-0.8,0.7c-0.4,0-0.6-0.2-0.7-0.6
			C169.9,80.6,170.1,80.3,170.6,80.2z"/>
		<path class="st184" d="M22,113.2c0,0.5-0.3,0.7-0.7,0.8c-0.6,0-0.8-0.3-0.8-0.9c0-0.5,0.4-0.7,0.8-0.7
			C21.8,112.4,22,112.7,22,113.2z"/>
		<path class="st184" d="M154.1,24.9c0.6,0.1,0.8,0.3,0.8,0.8c0,0.5-0.3,0.7-0.8,0.7c-0.4,0-0.6-0.3-0.6-0.7
			C153.5,25.2,153.8,25,154.1,24.9z"/>
		<path class="st184" d="M30.5,29.8c-0.1,0.6-0.4,0.9-0.9,0.9c-0.5,0-0.8-0.4-0.7-0.9c0.1-0.4,0.3-0.7,0.8-0.7
			C30.2,29.1,30.4,29.4,30.5,29.8z"/>
		<path class="st184" d="M157.7,117c0.5,0,0.7,0.2,0.8,0.7c0,0.5-0.2,0.7-0.7,0.8c-0.5,0-0.7-0.2-0.8-0.7
			C157,117.3,157.2,117,157.7,117z"/>
		<path class="st184" d="M151.2,122.9c-0.1,0.6-0.4,0.9-0.9,0.9c-0.5-0.1-0.8-0.4-0.7-1c0.1-0.4,0.4-0.7,0.8-0.7
			C150.9,122.1,151.1,122.5,151.2,122.9z"/>
		<path class="st184" d="M38.1,130c-0.5,0-0.7-0.2-0.8-0.7c0-0.5,0.2-0.7,0.7-0.8c0.5,0,0.7,0.2,0.8,0.7
			C38.8,129.7,38.5,130,38.1,130z"/>
		<path class="st184" d="M149.7,129.2c0,0.5-0.2,0.8-0.7,0.8c-0.5,0-0.8-0.2-0.8-0.7c0-0.5,0.2-0.8,0.7-0.8
			C149.4,128.5,149.7,128.7,149.7,129.2z"/>
		<path class="st184" d="M13.2,53c-0.1,0.5-0.4,0.7-0.8,0.7c-0.5-0.1-0.7-0.4-0.6-0.9c0.1-0.4,0.3-0.6,0.7-0.6
			C13,52.3,13.2,52.6,13.2,53z"/>
		<path class="st184" d="M44.2,129.5c0.5,0,0.8,0.2,0.9,0.6c0.1,0.5-0.1,0.9-0.7,0.9c-0.5,0-0.8-0.2-0.9-0.6
			C43.5,129.9,43.7,129.6,44.2,129.5z"/>
		<path class="st184" d="M169.3,93.5c-0.1,0.6-0.4,0.8-0.9,0.7c-0.5-0.1-0.7-0.4-0.6-0.9c0.1-0.4,0.3-0.6,0.7-0.6
			C169.1,92.9,169.3,93.2,169.3,93.5z"/>
		<path class="st184" d="M163.4,53.4c-0.1,0.5-0.4,0.8-0.9,0.8c-0.5-0.1-0.8-0.4-0.7-1c0.1-0.4,0.4-0.7,0.8-0.7
			C163.2,52.5,163.4,52.8,163.4,53.4z"/>
		<path class="st184" d="M168.8,55.1c-0.5-0.1-0.7-0.4-0.6-0.8c0.1-0.5,0.4-0.7,0.9-0.6c0.4,0.1,0.6,0.4,0.6,0.7
			C169.6,54.9,169.3,55.1,168.8,55.1z"/>
		<path class="st184" d="M12.9,92.2c0,0.5-0.2,0.7-0.7,0.8c-0.5,0-0.7-0.2-0.8-0.7c0-0.5,0.2-0.7,0.7-0.8
			C12.6,91.4,12.9,91.7,12.9,92.2z"/>
		<path class="st184" d="M129.1,133.3c-0.6-0.1-0.9-0.4-0.9-0.9c0-0.5,0.4-0.8,0.9-0.7c0.4,0.1,0.7,0.3,0.7,0.8
			C129.8,133,129.5,133.2,129.1,133.3z"/>
		<path class="st184" d="M20.7,47.8c-0.1,0.5-0.4,0.8-0.9,0.8c-0.5-0.1-0.8-0.4-0.7-1c0.1-0.4,0.4-0.7,0.8-0.7
			C20.4,46.9,20.7,47.2,20.7,47.8z"/>
		<path class="st184" d="M11.8,59.3c0,0.5-0.3,0.8-0.8,0.7c-0.5,0-0.7-0.3-0.7-0.8c0-0.4,0.3-0.6,0.7-0.6
			C11.5,58.5,11.8,58.8,11.8,59.3z"/>
		<path class="st184" d="M160.6,105.2c-0.1,0.5-0.4,0.8-1,0.8c-0.5-0.1-0.8-0.5-0.7-1c0.1-0.4,0.4-0.7,0.9-0.7
			C160.4,104.3,160.6,104.7,160.6,105.2z"/>
		<path class="st184" d="M21.7,41.4c0,0.5-0.2,0.8-0.7,0.8c-0.5,0.1-0.9-0.2-0.9-0.8c0-0.5,0.2-0.8,0.7-0.8
			C21.3,40.6,21.6,40.8,21.7,41.4z"/>
		<path class="st184" d="M166.8,106.1c-0.1,0.6-0.4,0.8-0.9,0.7c-0.5-0.1-0.7-0.4-0.6-0.9c0.1-0.4,0.3-0.6,0.7-0.6
			C166.6,105.5,166.8,105.8,166.8,106.1z"/>
		<path class="st184" d="M167.1,60.7c0-0.5,0.3-0.7,0.8-0.7c0.5,0,0.7,0.3,0.7,0.8c0,0.5-0.3,0.7-0.8,0.7
			C167.3,61.4,167.1,61.1,167.1,60.7z"/>
		<path class="st184" d="M170.4,87.2c0,0.6-0.3,0.9-0.8,0.8c-0.5,0-0.7-0.3-0.7-0.8c0-0.5,0.3-0.7,0.8-0.7
			C170.1,86.5,170.3,86.9,170.4,87.2z"/>
		<path class="st184" d="M1.7,76.5c0.3,0.1,0.6,0.3,0.5,0.8c-0.1,0.3-0.3,0.5-0.6,0.4C1.2,77.6,1,77.4,1.1,77
			C1.2,76.7,1.4,76.5,1.7,76.5z"/>
		<path class="st184" d="M23.3,28.1c0.4,0,0.7,0.2,0.7,0.6c0,0.5-0.2,0.8-0.7,0.8c-0.4,0-0.6-0.3-0.6-0.7
			C22.7,28.4,22.9,28.2,23.3,28.1z"/>
		<path class="st184" d="M13.8,117.8c0.4,0,0.6,0.2,0.7,0.6c0,0.3-0.2,0.6-0.5,0.6c-0.4,0.1-0.7-0.2-0.8-0.5
			C13.2,118.1,13.5,117.9,13.8,117.8z"/>
		<path class="st184" d="M164.7,118.7c0,0.4-0.3,0.6-0.6,0.7c-0.4,0-0.6-0.2-0.7-0.6c0-0.4,0.2-0.6,0.6-0.7
			C164.4,118.1,164.6,118.4,164.7,118.7z"/>
		<path class="st184" d="M17.3,27.4c-0.1,0.4-0.3,0.6-0.7,0.6c-0.3,0-0.5-0.3-0.6-0.5c-0.1-0.4,0.2-0.7,0.6-0.7
			C17.1,26.8,17.2,27.1,17.3,27.4z"/>
		<path class="st184" d="M160.8,27.4c-0.4-0.1-0.7-0.3-0.6-0.7c0-0.4,0.3-0.6,0.7-0.6c0.4,0,0.6,0.3,0.6,0.7
			C161.5,27.1,161.2,27.4,160.8,27.4z"/>
		<path class="st184" d="M179,75.6c0,0.5-0.3,0.7-0.6,0.8c-0.3,0-0.6-0.2-0.6-0.5c-0.1-0.4,0.2-0.7,0.5-0.8
			C178.7,75,178.8,75.4,179,75.6z"/>
		<path class="st184" d="M170,47.4c0.4,0.1,0.7,0.3,0.7,0.7c0,0.5-0.4,0.7-0.8,0.6c-0.4-0.1-0.6-0.4-0.5-0.8
			C169.4,47.6,169.7,47.4,170,47.4z"/>
		<path class="st184" d="M25,22.1c0,0.4-0.2,0.6-0.6,0.7c-0.3,0.1-0.5-0.2-0.6-0.5c-0.1-0.4,0.2-0.7,0.5-0.8
			C24.7,21.5,24.9,21.8,25,22.1z"/>
		<path class="st184" d="M5.1,97.4C5,97.8,4.8,98,4.4,98c-0.3,0-0.5-0.2-0.6-0.5c-0.1-0.4,0.2-0.7,0.6-0.7C4.8,96.7,5,97,5.1,97.4z"
			/>
		<path class="st184" d="M161.9,19.8c0.3,0,0.6,0.2,0.6,0.5c0.1,0.4-0.2,0.6-0.6,0.7c-0.3,0-0.6-0.2-0.6-0.5
			C161.2,20.2,161.5,19.9,161.9,19.8z"/>
		<path class="st184" d="M156.3,19.4c-0.1,0.4-0.3,0.7-0.7,0.6c-0.4,0-0.6-0.3-0.6-0.7c0-0.4,0.3-0.6,0.7-0.6
			C156,18.8,156.2,19,156.3,19.4z"/>
		<path class="st184" d="M45,19.3c0,0.4-0.2,0.7-0.6,0.7c-0.5,0.1-0.8-0.2-0.8-0.7c0-0.4,0.3-0.6,0.6-0.7C44.7,18.7,44.9,19,45,19.3
			z"/>
		<path class="st184" d="M0.5,82.8c0.4,0,0.6,0.2,0.7,0.5C1.3,83.7,1,84,0.6,84c-0.3,0.1-0.6-0.2-0.6-0.5C-0.1,83.1,0.3,83,0.5,82.8
			z"/>
		<path class="st184" d="M149.3,19c-0.4-0.1-0.7-0.3-0.7-0.7c0-0.5,0.3-0.8,0.8-0.7c0.4,0.1,0.6,0.4,0.6,0.8
			C149.9,18.8,149.7,19,149.3,19z"/>
		<path class="st184" d="M142.6,18c-0.4-0.1-0.7-0.3-0.7-0.7c0-0.5,0.3-0.8,0.8-0.7c0.4,0.1,0.6,0.4,0.6,0.8
			C143.3,17.8,143,18,142.6,18z"/>
		<path class="st184" d="M156.8,124.7c-0.5,0-0.8-0.2-0.8-0.6c-0.1-0.5,0.2-0.8,0.7-0.8c0.4,0,0.6,0.3,0.7,0.7
			C157.4,124.4,157.1,124.6,156.8,124.7z"/>
		<path class="st184" d="M137,15.9c-0.2,0.4-0.4,0.7-0.8,0.6c-0.3-0.1-0.6-0.4-0.5-0.8c0.1-0.3,0.3-0.5,0.6-0.5
			C136.8,15.3,136.9,15.6,137,15.9z"/>
		<path class="st184" d="M175,95.3c-0.5-0.1-0.7-0.3-0.7-0.7c0-0.3,0.3-0.5,0.5-0.6c0.4-0.1,0.7,0.2,0.7,0.6
			C175.5,95,175.1,95.1,175,95.3z"/>
		<path class="st184" d="M162.8,124.4c0.4,0,0.7,0.2,0.8,0.6c0.1,0.3-0.2,0.5-0.5,0.6c-0.4,0.1-0.7-0.2-0.8-0.5
			C162.2,124.8,162.6,124.6,162.8,124.4z"/>
		<path class="st184" d="M59,15.2c0,0.4-0.2,0.7-0.6,0.7c-0.5,0-0.8-0.3-0.7-0.8c0-0.4,0.3-0.6,0.7-0.6C58.8,14.5,59,14.8,59,15.2z"
			/>
		<path class="st184" d="M117.4,13.4c-0.3-0.1-0.7-0.4-0.6-0.7c0.1-0.3,0.4-0.6,0.8-0.5c0.3,0.1,0.5,0.3,0.5,0.6
			C118,13.1,117.8,13.4,117.4,13.4z"/>
		<path class="st184" d="M19.2,126.8c-0.4-0.1-0.6-0.3-0.6-0.7c0-0.3,0.2-0.5,0.5-0.6c0.4-0.1,0.7,0.2,0.7,0.6
			C19.8,126.4,19.5,126.6,19.2,126.8z"/>
		<path class="st184" d="M66.3,10c-0.1,0.4-0.3,0.7-0.7,0.6c-0.4-0.1-0.6-0.3-0.6-0.7c0.1-0.3,0.3-0.5,0.6-0.5
			C66.1,9.3,66.3,9.6,66.3,10z"/>
		<path class="st184" d="M73.1,4c0.3,0.1,0.6,0.3,0.6,0.7c0,0.5-0.4,0.7-0.8,0.6c-0.3-0.1-0.6-0.4-0.5-0.8C72.4,4.2,72.7,4,73.1,4z"
			/>
		<path class="st184" d="M25.5,126.5c0.4,0.1,0.6,0.3,0.6,0.7c0,0.4-0.2,0.7-0.6,0.7c-0.5,0-0.8-0.3-0.7-0.8
			C24.8,126.7,25.1,126.5,25.5,126.5z"/>
		<path class="st184" d="M7.9,45.7c-0.1,0.4-0.3,0.7-0.7,0.6c-0.3-0.1-0.6-0.4-0.5-0.7C6.7,45.2,6.9,45,7.3,45
			C7.6,45,7.9,45.3,7.9,45.7z"/>
		<path class="st184" d="M173.8,100.3c0.4,0,0.6,0.2,0.7,0.6c0,0.3-0.2,0.6-0.5,0.6c-0.4,0.1-0.7-0.2-0.8-0.5
			C173.1,100.6,173.4,100.4,173.8,100.3z"/>
		<path class="st184" d="M172.7,107.9c-0.3-0.1-0.7-0.4-0.6-0.8c0.1-0.3,0.4-0.6,0.8-0.5c0.3,0.1,0.5,0.3,0.5,0.6
			C173.3,107.6,173.1,107.8,172.7,107.9z"/>
		<path class="st184" d="M174.3,62.4c-0.5,0-0.7-0.3-0.8-0.6c0-0.4,0.2-0.7,0.6-0.7c0.4,0,0.6,0.2,0.7,0.6
			C174.9,62.1,174.5,62.2,174.3,62.4z"/>
		<path class="st184" d="M14.5,39.7c0.5,0.1,0.7,0.3,0.7,0.7c0,0.5-0.3,0.7-0.8,0.7c-0.3-0.1-0.6-0.4-0.5-0.7
			C14,39.9,14.3,39.8,14.5,39.7z"/>
		<path class="st184" d="M8.2,38.4c0.3,0,0.6,0.2,0.6,0.5c0.1,0.4-0.2,0.6-0.5,0.7c-0.3,0.1-0.6-0.2-0.6-0.5
			C7.6,38.7,7.9,38.5,8.2,38.4z"/>
		<path class="st184" d="M3.8,65.2c-0.4-0.1-0.6-0.3-0.6-0.7c0-0.3,0.3-0.5,0.5-0.6c0.4-0.1,0.7,0.2,0.7,0.6
			C4.4,64.9,4.1,65.1,3.8,65.2z"/>
		<path class="st184" d="M155.7,131c-0.5-0.1-0.8-0.3-0.7-0.7c0-0.4,0.3-0.6,0.7-0.6c0.4,0,0.6,0.3,0.6,0.7
			C156.2,130.8,155.9,130.9,155.7,131z"/>
		<path class="st184" d="M6.9,83.8c0.4,0.1,0.6,0.3,0.6,0.7c0,0.5-0.3,0.7-0.8,0.7c-0.3-0.1-0.6-0.4-0.5-0.7
			C6.3,84,6.5,83.8,6.9,83.8z"/>
		<path class="st184" d="M8.7,111.7c-0.3,0-0.6-0.2-0.6-0.5c-0.1-0.4,0.1-0.7,0.5-0.7c0.3-0.1,0.6,0.2,0.6,0.4
			C9.4,111.3,9.1,111.5,8.7,111.7z"/>
		<path class="st184" d="M167.2,27.5c0.4,0.1,0.6,0.3,0.6,0.7c0,0.3-0.3,0.5-0.6,0.5c-0.4,0-0.6-0.3-0.6-0.7
			C166.6,27.8,166.8,27.6,167.2,27.5z"/>
		<path class="st184" d="M15.6,112.2c-0.1,0.3-0.3,0.6-0.7,0.6c-0.5,0-0.7-0.4-0.6-0.8c0.1-0.3,0.4-0.6,0.8-0.5
			C15.4,111.5,15.6,111.8,15.6,112.2z"/>
		<path class="st184" d="M177.6,82c-0.2,0.5-0.4,0.8-0.8,0.7c-0.3-0.1-0.6-0.4-0.5-0.7c0.1-0.3,0.3-0.5,0.6-0.5
			C177.4,81.4,177.5,81.8,177.6,82z"/>
		<path class="st184" d="M165.7,112.5c0,0.4-0.3,0.6-0.6,0.7c-0.5,0-0.8-0.3-0.7-0.7c0-0.4,0.3-0.6,0.7-0.6
			C165.5,111.8,165.7,112.1,165.7,112.5z"/>
		<path class="st184" d="M175.3,56.1c-0.5-0.2-0.8-0.4-0.7-0.8c0.1-0.3,0.4-0.6,0.7-0.5c0.3,0.1,0.5,0.3,0.5,0.6
			C175.8,55.8,175.5,55.9,175.3,56.1z"/>
		<path class="st184" d="M4.8,58.9c-0.4-0.1-0.7-0.3-0.6-0.7c0.1-0.3,0.4-0.6,0.7-0.5c0.3,0.1,0.5,0.3,0.5,0.6
			C5.4,58.6,5.1,58.8,4.8,58.9z"/>
		<path class="st184" d="M136,133.3c0,0.5-0.3,0.7-0.6,0.8c-0.4,0-0.7-0.2-0.7-0.6c0-0.4,0.2-0.6,0.6-0.7
			C135.7,132.8,135.8,133.1,136,133.3z"/>
		<path class="st184" d="M5.6,91.4c-0.5,0-0.7-0.3-0.8-0.6c0-0.4,0.2-0.7,0.6-0.7c0.4,0,0.6,0.2,0.7,0.6C6.2,91.1,5.8,91.3,5.6,91.4
			z"/>
		<path class="st184" d="M9.8,105.5c-0.5-0.1-0.8-0.3-0.7-0.7c0-0.4,0.3-0.6,0.7-0.6c0.4,0,0.6,0.3,0.6,0.7
			C10.3,105.2,10,105.3,9.8,105.5z"/>
		<path class="st184" d="M172,113.5c0,0.3-0.2,0.6-0.5,0.6c-0.4,0.1-0.6-0.2-0.7-0.6c0-0.3,0.2-0.5,0.5-0.6
			C171.7,112.9,171.9,113.1,172,113.5z"/>
		<path class="st184" d="M170.9,41.2c0.4,0,0.6,0.2,0.7,0.5c0.1,0.4-0.2,0.6-0.5,0.7c-0.3,0.1-0.6-0.2-0.6-0.5
			C170.3,41.5,170.6,41.3,170.9,41.2z"/>
		<path class="st184" d="M122.3,137.6c0,0.4-0.3,0.6-0.6,0.7c-0.4,0-0.7-0.2-0.7-0.6c0-0.4,0.2-0.6,0.6-0.7
			C122,137,122.2,137.3,122.3,137.6z"/>
		<path class="st184" d="M14.2,46.7c0,0.4-0.2,0.7-0.6,0.7c-0.5,0-0.8-0.2-0.8-0.7c0-0.4,0.3-0.6,0.7-0.6C14,46,14.2,46.2,14.2,46.7
			z"/>
		<path class="st184" d="M62.1,140.7c-0.3-0.1-0.7-0.4-0.6-0.8c0.1-0.3,0.4-0.6,0.8-0.5c0.3,0.1,0.5,0.3,0.5,0.6
			C62.8,140.5,62.5,140.7,62.1,140.7z"/>
		<path class="st184" d="M173.2,69.1c-0.4,0-0.7-0.2-0.7-0.6c-0.1-0.5,0.2-0.8,0.7-0.8c0.4,0,0.6,0.3,0.7,0.6
			C173.8,68.7,173.5,68.9,173.2,69.1z"/>
		<path class="st184" d="M20.1,118.8c0.5,0,0.8,0.2,0.8,0.7c0,0.5-0.3,0.8-0.8,0.7c-0.4,0-0.6-0.3-0.6-0.7
			C19.5,119,19.8,118.8,20.1,118.8z"/>
		<path class="st184" d="M6.2,52.6c-0.4-0.1-0.7-0.3-0.6-0.7c0.1-0.3,0.4-0.6,0.7-0.5c0.3,0.1,0.5,0.3,0.5,0.6
			C6.8,52.3,6.5,52.5,6.2,52.6z"/>
		<path class="st184" d="M164.7,41.4c-0.4,0-0.7-0.3-0.7-0.7c0-0.5,0.3-0.8,0.8-0.7c0.4,0,0.6,0.3,0.6,0.7
			C165.4,41.2,165.1,41.4,164.7,41.4z"/>
		<path class="st184" d="M175.9,89c-0.4,0-0.6-0.3-0.7-0.6c0-0.4,0.2-0.7,0.6-0.7c0.4,0,0.6,0.2,0.7,0.6
			C176.6,88.7,176.3,88.9,175.9,89z"/>
		<path class="st184" d="M165.8,33.8c0.4,0.1,0.7,0.3,0.6,0.7c0,0.4-0.3,0.6-0.7,0.6c-0.4,0-0.6-0.3-0.6-0.7
			C165.1,34,165.4,33.8,165.8,33.8z"/>
		<path class="st184" d="M11.4,98.4c0,0.4-0.2,0.7-0.6,0.7c-0.5,0-0.8-0.2-0.8-0.7c0-0.4,0.3-0.6,0.7-0.6
			C11.2,97.8,11.4,98,11.4,98.4z"/>
		<path class="st184" d="M179.4,70c-0.4-0.1-0.7-0.4-0.6-0.7c0.1-0.3,0.3-0.5,0.6-0.5c0.4,0.1,0.6,0.3,0.5,0.7
			C179.9,69.8,179.7,70,179.4,70z"/>
		<path class="st184" d="M106.7,148.5c-0.5-0.1-0.8-0.3-0.7-0.7c0-0.4,0.3-0.6,0.7-0.6c0.4,0,0.6,0.3,0.6,0.7
			C107.2,148.2,106.9,148.4,106.7,148.5z"/>
		<path class="st184" d="M2.8,71.5c-0.5-0.2-0.8-0.4-0.7-0.8c0.1-0.3,0.4-0.6,0.7-0.5c0.3,0.1,0.5,0.3,0.5,0.6
			C3.3,71.2,3,71.3,2.8,71.5z"/>
		<path class="st184" d="M16.3,34c0,0.4-0.3,0.6-0.6,0.7c-0.4,0-0.7-0.2-0.7-0.6c0-0.4,0.2-0.6,0.6-0.7C16,33.4,16.2,33.7,16.3,34z"
			/>
		<path class="st184" d="M8.6,78.2c-0.1,0.4-0.3,0.7-0.7,0.7c-0.5,0-0.8-0.3-0.7-0.8c0.1-0.4,0.4-0.6,0.8-0.6
			C8.4,77.5,8.6,77.8,8.6,78.2z"/>
		<path class="st184" d="M90.2,62.8c-0.1,0.2-0.2,0.4-0.3,0.5c-0.6-0.1-1.2-0.2-1.8-0.3c0-0.1,0-0.3,0.1-0.4
			C88.8,62.7,89.5,62.8,90.2,62.8z"/>
		<path class="st184" d="M98.9,84.8c-0.6,0-1.2,0-1.8-0.1c0.1-0.2,0.3-0.4,0.4-0.6c0.5,0.1,1,0.2,1.4,0.4
			C98.9,84.6,98.9,84.7,98.9,84.8z"/>
		<path class="st184" d="M90.9,89.8c-0.3-0.1-0.5-0.3-0.8-0.4c0.7,0,1.5,0,2.2,0C91.9,89.9,91.4,89.6,90.9,89.8z"/>
		<path class="st184" d="M95.1,64.1c0-0.1,0-0.1,0-0.2c0.5,0,1,0,1.4,0c-0.1,0.2-0.2,0.4-0.3,0.6C95.8,64.3,95.4,64.2,95.1,64.1z"/>
		<path class="st184" d="M81.8,84.7c-0.3-1.6-0.6-3.1-2.6-3.5c0.5-0.4,1.2-0.1,1.6-0.6c0.7,0,1.1-0.7,1.6-1.1c0.7,1,1.2,2.4,2.7,2.5
			C83.7,82.6,82.4,83.2,81.8,84.7z"/>
		<path class="st184" d="M88.4,85.4c-0.7-0.9-0.9-2.1-2.1-2.8c-0.5-0.3,0.5-0.2,0.5-0.6c1,0,1.5-0.7,2.2-1.5c0.5,0.9,0.8,2,1.9,2.6
			C89.9,83.8,88.7,84.1,88.4,85.4z"/>
		<path class="st184" d="M97.9,68.4c0.1,1.6,1,2.7,2.4,3.4c-1.2-0.1-2.2,0.5-3,1.4c-0.4-1-0.8-2-1.8-2.6
			C96.5,70.1,97.3,69.3,97.9,68.4z"/>
		<path class="st184" d="M82.2,68.7c1.1-0.9,2.6-1.3,3-2.8c-0.1,1.2,0.5,2.2,1.4,3.1c-0.9,0.5-1.8,0.9-2.3,1.8
			C83.7,70,83.4,68.8,82.2,68.7z"/>
		<path class="st184" d="M96.1,79.7c-0.4-1.1-0.9-1.9-1.7-2.4c0.7-0.6,1.7-0.8,2.3-1.8c0.5,1.1,1,2.1,2.3,2.6
			C97.7,78.3,96.9,78.8,96.1,79.7z"/>
		<path class="st184" d="M80.4,74.8c1.7-0.1,2.6-0.6,3.2-1.4c2.5,1.8,0.4,2.6-0.7,3.7C82.3,76.3,82,75.3,80.4,74.8z"/>
		<path class="st184" d="M89.6,78.6c-0.8-1.5-2.2-3,0.7-3.7c0.3,0.6,0.8,1.3,1.7,1.9C91,77.2,90.2,77.6,89.6,78.6z"/>
		<path class="st184" d="M91.4,67.4c0.3,1,0.6,1.9,1.5,2.5c-0.8,0.5-1.5,1-2.3,1.5c-0.3-0.8-0.8-1.4-1.6-2
			C90.2,69,90.9,68.4,91.4,67.4z"/>
		<path class="st184" d="M103.2,74.7c0.1,0,0.3,0,0.4,0.1c-0.1,0.7-0.1,1.4-0.2,2c-0.2-0.1-0.4-0.2-0.5-0.3
			C102.7,75.8,103.1,75.3,103.2,74.7z"/>
	</g>
	<g>
		<path class="st193" d="M90.7,139.8c-3.2-10.1-6.4-20.2-9.6-30.3c-0.2-0.7-1.8-0.2-2.1,0.3c-5.2,9.2-10.4,18.5-15.6,27.7
			c0.7-0.1,1.4-0.2,2.1-0.3c-1-10.5-2-21.1-2.9-31.6c-0.1-0.8-1.8,0-2.1,0.3c-7.2,7.8-14.4,15.5-21.6,23.3c0.7,0,1.4-0.1,2.1-0.1
			c1.8-10.4,3.6-20.8,5.4-31.2c0.1-0.8-1.5-0.3-1.7-0.1c-9.2,5.2-18.4,10.4-27.6,15.6c0.6,0.1,1.1,0.2,1.7,0.3
			c5.4-9,10.9-18,16.3-27c0.2-0.4-0.2-0.6-0.6-0.6c-10.5,0.7-21,1.3-31.5,2c0.8-0.1-0.3,1.1,1.4,0.2c1-0.6,2.1-1.2,3.1-1.7
			c3.2-1.7,6.3-3.5,9.5-5.2c4.6-2.5,9.2-5.1,13.8-7.6c0.3-0.2,0.6-0.6,0.2-0.8c-9.2-5.1-18.4-10.2-27.6-15.2
			c-0.4,0.4-0.9,0.7-1.3,1.1c10.5,0.7,21,1.3,31.5,2c0.4,0,1.8-0.3,1.4-1c-5.4-9-10.9-18-16.3-27c-0.6,0.3-1.3,0.6-1.9,0.9
			C26,38.6,35.2,43.8,44.4,49c0.5,0.3,2.1-0.1,2-0.8c-1.8-10.4-3.6-20.8-5.4-31.2c-0.7,0.2-1.4,0.5-2.1,0.7
			c7.2,7.8,14.4,15.5,21.6,23.3c0.4,0.4,2,0.1,2.1-0.6c1-10.5,2-21.1,2.9-31.6C64.7,8.9,64,9,63.3,9.2c5.2,9.2,10.4,18.5,15.6,27.7
			c0.4,0.7,2,0.2,2.2-0.4c3.2-10.1,6.4-20.2,9.6-30.3c-0.7,0.1-1.4,0.3-2.2,0.4c3.2,10.1,6.4,20.2,9.6,30.3c0.2,0.7,1.8,0.2,2.1-0.3
			c5.2-9.2,10.4-18.5,15.6-27.7c-0.7,0.1-1.4,0.2-2.1,0.3c1,10.5,2,21.1,2.9,31.6c0.1,0.8,1.8,0,2.1-0.3
			c7.2-7.8,14.4-15.5,21.6-23.3c-0.7,0-1.4,0.1-2.1,0.1c-1.8,10.4-3.6,20.8-5.4,31.2c-0.1,0.8,1.5,0.3,1.7,0.1
			c9.2-5.2,18.4-10.4,27.6-15.6c-0.6-0.1-1.1-0.2-1.7-0.3c-5.4,9-10.9,18-16.3,27c-0.2,0.4,0.2,0.6,0.6,0.6c10.5-0.7,21-1.3,31.5-2
			c-0.8,0.1,0.3-1.1-1.4-0.2c-1,0.6-2.1,1.2-3.1,1.7c-3.2,1.7-6.3,3.5-9.5,5.2c-4.6,2.5-9.2,5.1-13.8,7.6c-0.3,0.2-0.6,0.6-0.2,0.8
			c9.2,5.1,18.4,10.2,27.6,15.2c0.4-0.4,0.9-0.7,1.3-1.1c-10.5-0.7-21-1.3-31.5-2c-0.4,0-1.8,0.3-1.4,1c5.4,9,10.9,18,16.3,27
			c0.6-0.3,1.3-0.6,1.9-0.9c-9.2-5.2-18.4-10.4-27.6-15.6c-0.5-0.3-2.1,0.1-2,0.8c1.8,10.4,3.6,20.8,5.4,31.2
			c0.7-0.2,1.4-0.5,2.1-0.7c-7.2-7.8-14.4-15.5-21.6-23.3c-0.4-0.4-2-0.1-2.1,0.6c-1,10.5-2,21.1-2.9,31.6c0.7-0.1,1.4-0.3,2.2-0.4
			c-5.2-9.2-10.4-18.5-15.6-27.7c-0.4-0.7-2-0.2-2.2,0.4c-3.2,10.1-6.4,20.2-9.6,30.3c-0.2,0.7,1.9,0.4,2.2-0.3
			c3.2-10.1,6.4-20.2,9.6-30.3c-0.7,0.1-1.4,0.3-2.2,0.4c5.2,9.2,10.4,18.5,15.6,27.7c0.3,0.6,2.1,0.3,2.2-0.4
			c1-10.5,2-21.1,2.9-31.6c-0.7,0.2-1.4,0.4-2.1,0.6c7.2,7.8,14.4,15.5,21.6,23.3c0.4,0.5,2.2,0,2.1-0.7
			c-1.8-10.4-3.6-20.8-5.4-31.2c-0.7,0.3-1.3,0.5-2,0.8c9.2,5.2,18.4,10.4,27.6,15.6c0.5,0.3,2.3-0.2,1.9-0.9
			c-5.4-9-10.9-18-16.3-27c-0.5,0.3-1,0.7-1.4,1c10.5,0.7,21,1.3,31.5,2c0.4,0,2.2-0.6,1.3-1.1c-9.2-5.1-18.4-10.1-27.5-15.2
			c0.5,0.3-0.7,1,0.9,0.1c1-0.6,2.1-1.2,3.1-1.7c3.2-1.7,6.3-3.5,9.5-5.2c4.6-2.5,9.2-5.1,13.8-7.6c0.6-0.3,0.5-0.9-0.2-0.9
			c-10.5,0.7-21,1.3-31.5,2c1-0.1,0.4,0.8,1.2-0.6c0.6-1,1.2-2,1.8-3.1c1.9-3.1,3.7-6.2,5.6-9.3c2.7-4.5,5.4-9,8.2-13.5
			c0.5-0.9-1.4-0.5-1.7-0.3c-9.2,5.2-18.4,10.4-27.6,15.6c0.6,0,1.2,0.1,1.7,0.1c1.8-10.4,3.6-20.8,5.4-31.2
			c0.2-0.9-1.8-0.2-2.1,0.1c-7.2,7.8-14.4,15.5-21.6,23.3c0.7-0.1,1.4-0.2,2.1-0.3c-1-10.5-2-21.1-2.9-31.6
			c-0.1-0.7-1.9-0.1-2.1,0.3c-5.2,9.2-10.4,18.5-15.6,27.7c0.7-0.1,1.4-0.2,2.1-0.3C97.1,26.2,93.9,16.1,90.7,6
			c-0.2-0.7-2-0.1-2.2,0.4c-3.2,10.1-6.4,20.2-9.6,30.3c0.7-0.1,1.4-0.3,2.2-0.4c-5.2-9.2-10.4-18.5-15.6-27.7
			C65.1,8,63.4,8.3,63.3,9c-1,10.5-2,21.1-2.9,31.6c0.7-0.2,1.4-0.4,2.1-0.6C55.2,32.3,48,24.6,40.8,16.8c-0.4-0.5-2.2,0-2.1,0.7
			c1.8,10.4,3.6,20.8,5.4,31.2c0.7-0.3,1.3-0.5,2-0.8c-9.2-5.2-18.4-10.4-27.6-15.6c-0.5-0.3-2.3,0.2-1.9,0.9c5.4,9,10.9,18,16.3,27
			c0.5-0.3,1-0.7,1.4-1c-10.5-0.7-21-1.3-31.5-2c-0.4,0-2.2,0.6-1.3,1.1c9.2,5.1,18.4,10.1,27.5,15.2c-0.5-0.3,0.7-1-0.9-0.1
			c-1,0.6-2.1,1.2-3.1,1.7c-3.2,1.7-6.3,3.5-9.5,5.2c-4.6,2.5-9.2,5.1-13.8,7.6C1.2,88.5,1.3,89.1,2,89c10.5-0.7,21-1.3,31.5-2
			c-1,0.1-0.4-0.8-1.2,0.6c-0.6,1-1.2,2-1.8,3.1c-1.9,3.1-3.7,6.2-5.6,9.3c-2.7,4.5-5.4,9-8.2,13.5c-0.5,0.9,1.4,0.5,1.7,0.3
			c9.2-5.2,18.4-10.4,27.6-15.6c-0.6,0-1.2-0.1-1.7-0.1c-1.8,10.4-3.6,20.8-5.4,31.2c-0.2,0.9,1.8,0.2,2.1-0.1
			c7.2-7.8,14.4-15.5,21.6-23.3c-0.7,0.1-1.4,0.2-2.1,0.3c1,10.5,2,21.1,2.9,31.6c0.1,0.7,1.9,0.1,2.1-0.3
			c5.2-9.2,10.4-18.5,15.6-27.7c-0.7,0.1-1.4,0.2-2.1,0.3c3.2,10.1,6.4,20.2,9.6,30.3C88.7,141.1,90.9,140.5,90.7,139.8z"/>
	</g>
	<polygon class="st185" points="89.6,140.1 80,109.8 64.4,137.5 61.4,105.9 39.8,129.2 45.3,97.9 17.6,113.5 34,86.5 2.4,88.4 
		30,73.2 2.4,58 34,59.9 17.6,32.9 45.3,48.5 39.8,17.2 61.4,40.5 64.4,8.9 80,36.6 89.6,6.3 99.2,36.6 114.8,8.9 117.8,40.5 
		139.4,17.2 133.9,48.5 161.6,32.9 145.2,59.9 176.7,58 149.2,73.2 176.7,88.4 145.2,86.5 161.6,113.5 133.9,97.9 139.4,129.2 
		117.8,105.9 114.8,137.5 99.2,109.8 	"/>
</g>
</svg>
