<?xml version="1.0" encoding="utf-8"?>
<!-- Generator: Adobe Illustrator 23.0.1, SVG Export Plug-In . SVG Version: 6.00 Build 0)  -->
<svg version="1.1" id="Layer_1" xmlns="http://www.w3.org/2000/svg" xmlns:xlink="http://www.w3.org/1999/xlink" x="0px" y="0px"
	 viewBox="0 0 180 136.4" style="enable-background:new 0 0 180 136.4;" xml:space="preserve">
<style type="text/css">
	.st0{fill:#E11B4E;}
	.st1{fill:#EAA820;}
	.st2{fill:none;stroke:#000000;stroke-miterlimit:10;}
	.st3{fill:#EAA820;stroke:#000000;stroke-miterlimit:10;}
	.st4{fill:#FFFFFF;}
	.st5{fill:#0B0B0B;}
	.st6{fill:#222223;}
	.st7{fill:#1C1B1C;}
	.st8{fill:#0E0E0E;}
	.st9{fill:#1A1A1B;}
	.st10{fill:#F1F1F2;}
	.st11{fill:#39383A;}
	.st12{fill:#EDEDEE;}
	.st13{fill:#2E2D2F;}
	.st14{fill:#3F3E40;}
	.st15{fill:#E6E7E8;}
	.st16{fill:#EAEAEB;}
	.st17{fill:#EAEBEC;}
	.st18{fill:#E4E5E6;}
	.st19{fill:#E9EAEB;}
	.st20{fill:#282728;}
	.st21{fill:#424143;}
	.st22{fill:#E6E6E7;}
	.st23{fill:#DDDEE0;}
	.st24{fill:#DDDEDF;}
	.st25{fill:#D8D9DB;}
	.st26{fill:#373738;}
	.st27{fill:#DEDFE1;}
	.st28{fill:#383738;}
	.st29{fill:#171718;}
	.st30{fill:#161616;}
	.st31{fill:#1E1D1E;}
	.st32{fill:#1B1B1C;}
	.st33{fill:#1A191A;}
	.st34{fill:#171617;}
	.st35{fill:#181818;}
	.st36{fill:#161617;}
	.st37{fill:#151516;}
	.st38{fill:#1C1C1D;}
	.st39{fill:#151415;}
	.st40{fill:#121213;}
	.st41{fill:#0F0F10;}
	.st42{fill:#101011;}
	.st43{fill:#141415;}
	.st44{fill:#171717;}
	.st45{fill:#101010;}
	.st46{fill:#111112;}
	.st47{fill:#131314;}
	.st48{fill:#1E1E1F;}
	.st49{fill:#212021;}
	.st50{fill:#232324;}
	.st51{fill:#121112;}
	.st52{fill:#141414;}
	.st53{fill:#262526;}
	.st54{fill:#0E0D0E;}
	.st55{fill:#222222;}
	.st56{fill:#0C0C0D;}
	.st57{fill:#181819;}
	.st58{fill:#1B1A1B;}
	.st59{fill:#1D1D1E;}
	.st60{fill:#0F0F0F;}
	.st61{fill:#131313;}
	.st62{fill:#1F1E1F;}
	.st63{fill:#212122;}
	.st64{fill:#272728;}
	.st65{fill:#2C2B2D;}
	.st66{fill:#2A292A;}
	.st67{fill:#F6F6F7;}
	.st68{fill:#F3F4F4;}
	.st69{fill:#F1F2F2;}
	.st70{fill:#F2F2F3;}
	.st71{fill:#302F31;}
	.st72{fill:#191919;}
	.st73{fill:#323233;}
	.st74{fill:#F5F6F6;}
	.st75{fill:#F0F1F1;}
	.st76{fill:#EFF0F1;}
	.st77{fill:#F5F5F6;}
	.st78{fill:#EFEFF0;}
	.st79{fill:#1C1C1C;}
	.st80{fill:#232223;}
	.st81{fill:#212121;}
	.st82{fill:#F0F1F2;}
	.st83{fill:#3B3A3C;}
	.st84{fill:#343435;}
	.st85{fill:#282829;}
	.st86{fill:#3E3E40;}
	.st87{fill:#F4F5F5;}
	.st88{fill:#EEEFF0;}
	.st89{fill:#48484A;}
	.st90{fill:#3E3D3F;}
	.st91{fill:#464547;}
	.st92{fill:#434345;}
	.st93{fill:#202021;}
	.st94{fill:#151515;}
	.st95{fill:#0D0D0D;}
	.st96{fill:#0B0B0C;}
	.st97{fill:#0B0A0B;}
	.st98{fill:#383739;}
	.st99{fill:#323133;}
	.st100{fill:#2D2D2E;}
	.st101{fill:#242324;}
	.st102{fill:#202020;}
	.st103{fill:#39393A;}
	.st104{fill:#434244;}
	.st105{fill:#474748;}
	.st106{fill:#49494B;}
	.st107{fill:#4F4F51;}
	.st108{fill:#333334;}
	.st109{fill:#242425;}
	.st110{fill:#292829;}
	.st111{fill:#2F2E30;}
	.st112{fill:#363537;}
	.st113{fill:#3D3D3E;}
	.st114{fill:#424244;}
	.st115{fill:#111111;}
	.st116{fill:#414142;}
	.st117{fill:#4D4D4F;}
	.st118{fill:#616264;}
	.st119{fill:#57575A;}
	.st120{fill:#76777A;}
	.st121{fill:#6B6D6F;}
	.st122{fill:#131213;}
	.st123{fill:#F0F0F1;}
	.st124{fill:#F3F3F4;}
	.st125{fill:#E8E9EA;}
	.st126{fill:#ECEDED;}
	.st127{fill:#F5F5F5;}
	.st128{fill:#E7E7E8;}
	.st129{fill:#ECEDEE;}
	.st130{fill:#EBEBEC;}
	.st131{fill:#E8E8E9;}
	.st132{fill:#EEEFEF;}
	.st133{fill:#EFF0F0;}
	.st134{fill:#EBECEC;}
	.st135{fill:#727476;}
	.st136{fill:#6C6D70;}
	.st137{fill:#626366;}
	.st138{fill:#A9ABAD;}
	.st139{fill:#999B9E;}
	.st140{fill:#757779;}
	.st141{fill:#8C8E91;}
	.st142{fill:#848689;}
	.st143{fill:#A7A9AB;}
	.st144{fill:none;}
	.st145{fill:#00BEEC;}
	.st146{fill:#EBAF1F;}
	.st147{clip-path:url(#SVGID_2_);}
	.st148{fill:#F05225;}
	.st149{clip-path:url(#SVGID_4_);}
	.st150{fill:#69CCE7;}
	.st151{fill:#EE2F7A;}
	.st152{fill:none;stroke:#000000;stroke-width:0.5;stroke-linecap:round;stroke-miterlimit:10;}
	.st153{clip-path:url(#SVGID_6_);}
	.st154{clip-path:url(#SVGID_8_);}
	.st155{fill:none;stroke:#000000;stroke-width:4;stroke-miterlimit:10;}
	.st156{clip-path:url(#SVGID_10_);}
	.st157{clip-path:url(#SVGID_12_);}
	.st158{fill:#EBA921;}
	.st159{clip-path:url(#SVGID_14_);}
	.st160{clip-path:url(#SVGID_16_);}
	.st161{clip-path:url(#SVGID_18_);}
	.st162{clip-path:url(#SVGID_20_);}
	.st163{fill:#F16EA1;}
	.st164{clip-path:url(#SVGID_22_);}
	.st165{clip-path:url(#SVGID_24_);}
	.st166{fill:#5ABA47;}
	.st167{fill:#F26522;}
	.st168{fill:#3AC0C7;}
	.st169{fill:#EE4297;}
	.st170{fill:#3B50A3;}
	.st171{fill:#00B9B6;}
	.st172{fill:#FFC214;}
	.st173{clip-path:url(#SVGID_26_);}
	.st174{fill:#FDB92D;}
	.st175{clip-path:url(#SVGID_28_);}
	.st176{fill:#ED1E25;}
	.st177{clip-path:url(#SVGID_30_);}
	.st178{fill:#ED2085;}
	.st179{clip-path:url(#SVGID_32_);}
	.st180{clip-path:url(#SVGID_34_);}
	.st181{fill:#D0DD28;}
	.st182{fill:#E1A225;}
	.st183{fill:#B81F69;}
	.st184{fill:#010101;}
	.st185{fill:#EC2227;}
	.st186{fill:#F26249;}
	.st187{fill:#231F20;}
	.st188{fill:#C4D5DD;}
	.st189{fill:#D5E7F0;}
	.st190{fill:#CC2027;}
	.st191{fill:#9A1E21;}
	.st192{fill:#F26724;}
	.st193{fill:#B92025;}
	.st194{fill:#DCDDDE;}
	.st195{fill:#EAEAEA;}
</style>
<g>
	<g>
		<path class="st184" d="M93,59c0.9,0.4,1.1,1.4,1.6,2.2c0.2,0.3,0,0.6-0.1,0.9c-0.2,0.4-0.4,0.8-0.8,1.1c-0.7,0.4-0.5,0.8-0.1,1.4
			c0.4,0.6,0.7,0.5,1.2,0.2c0.4-0.3,0.9-0.3,1.4-0.2c0.3,0.1,0.5,0.1,0.8,0.2c1,0.4,1.6,1.1,1.7,2.2c0,0.5-0.2,0.9-0.3,1.4
			c-0.4,0.8-1,1.4-1.8,1.4c1.5,1.1,1.7,2,0.8,3.6c-0.6,0.6-1.2,1.1-2.1,1.1c-0.5,0.3-0.8,0.1-1.1-0.3c-0.7-0.3-1-1-1.4-1.6
			c-0.3,0.3-0.6,0.6-1,0.8c-0.3,0.2-0.7,0.3-1.1,0.5c1.5,1.8,1.3,3.3-0.5,4.3c-0.5,0.2-1,0-1.5,0.3c-1.3-0.1-1.8-1-2.1-2.1
			c-0.1-0.5,0-0.9,0.3-1.3c0.4-0.7,0.9-1.3,1.7-1.5c0-0.1-0.1-0.2-0.1-0.2c-0.7-1.7-1.8-0.4-2.6-0.4c-0.3,0-0.6,0-0.9,0
			c-0.5,0-1.1-0.1-1.3-0.5c-0.7-1-1.5-0.9-2.5-0.5c-0.5,0-1,0.1-1.4-0.3c-1.2-0.4-1.7-1.3-1.5-2.5c0.2-1.4,1.2-2,2.6-2.2
			c-1.2-0.7-1.9-1.7-1.4-3.1c0.4-1.2,1.3-1.8,2.6-1.7c0.2,0,0.5,0,0.7,0c0.5,0.1,0.8,0.4,1.1,0.7c0.3,0.4,0.5,0.6,0.9,0.2
			c0.4-0.3,0.7-0.6,0.3-1.2c-0.3-0.5-0.5-1-0.3-1.6c0.1-0.3,0.3-0.4,0.4-0.6c0.3-1,1-1.3,1.9-1.6c0.5-0.3,0.9-0.2,1.4,0
			c0.8,0.5,1.4,1.1,1.5,2.1c0.5-1.2,1.4-1.5,2.5-1.5C92.5,58.5,92.8,58.7,93,59z"/>
		<path class="st184" d="M84.5,72.6c0.4,0,0.9,0,1.3,0c0.3,0.9,1.4,1.5,1.2,2.6c-0.1,0.3-0.5,0.5-0.3,0.9c-0.8,1.8-2.1,2.3-3.5,1.3
			c-0.9-0.6-1.4-1.4-1.3-2.5c-0.2-0.2-0.2-0.3-0.2-0.6C82.2,73.1,83.2,72.6,84.5,72.6z"/>
		<path class="st184" d="M84.8,59.5c0,0.3,0,0.5-0.3,0.6c-0.2,1.3-1.1,1.9-2.3,2.1c-0.2,0-0.5,0-0.6-0.3c-1-0.6-1.9-1.2-1.8-2.5
			c0.1-1.1,0.7-1.9,1.8-2.1c1.1-0.2,2,0.2,2.6,1.2C84.5,58.9,84.3,59.4,84.8,59.5z"/>
		<path class="st184" d="M96.8,64.9c-0.3,0-0.5,0-0.6-0.3c-1.7-0.5-2.1-1.1-1.9-2.6c0.1-0.3,0.2-0.6,0.3-0.9c0.8-1,1.7-1.6,3-1.1
			c1.2,0.5,1.5,1.5,1.5,2.7C99,64.3,97.9,64.6,96.8,64.9z"/>
		<path class="st184" d="M81.9,74.5c0,0.1,0,0.3,0,0.4c-0.4,0-0.4,0.4-0.6,0.6c-0.7,0.8-1.5,1-2.5,0.7c-1-0.3-1.5-1.1-1.5-2.1
			c0-1,0.5-1.8,1.5-2.2c0.3-0.1,0.8,0,0.8-0.5c0.6,0,1.1,0,1.7,0c-0.1,0.6-0.5,0.4-0.7,0.4c0,0-0.2,0-0.1,0
			C81.9,72.2,82.2,73.2,81.9,74.5z"/>
		<path class="st184" d="M95.1,74.6c1.2,0.6,1.7,1.5,1.4,2.8c-0.3,1.1-1.2,1.7-2.3,1.6c-1.1-0.1-1.9-0.7-2.1-1.9
			c-0.2-1.2,0.3-2,1.7-2.6C94.2,74.4,94.6,74.4,95.1,74.6z"/>
		<path class="st184" d="M90.5,55.6c1-1.3,1.9-1.7,3-1.3c1.1,0.5,1.5,1.3,1.3,2.5c-0.2,0.9-0.8,1.5-1.6,1.8
			c-0.4,0.2-0.7,0.1-1.1,0.1C90.4,58.2,89.8,57.2,90.5,55.6z"/>
		<path class="st184" d="M86.8,57.6c-1.2-1.1-1.5-2.1-0.9-3.1c0.5-1,1.4-1.3,2.5-1.1c0.8,0.1,1.3,0.8,1.7,1.4
			c0.4,2.1,0.1,2.7-1.7,3.2C87.8,57.8,87.2,58,86.8,57.6z"/>
		<path class="st184" d="M100.7,70.6c1.3,1,1.7,1.9,1.3,3c-0.5,1.1-1.4,1.5-2.5,1.3c-0.8-0.1-1.3-0.7-1.7-1.4
			c-0.5-1.1-0.2-2,0.6-2.8C99,70.2,99.9,70,100.7,70.6z"/>
		<path class="st184" d="M101.5,65.8c2,1.5,2,2.9,0,4.3c-2.1,0.4-2.6,0.1-3.2-1.6c0-0.5,0.1-1.1,0.2-1.6
			C99.4,65.4,100.1,65.2,101.5,65.8z"/>
		<path class="st184" d="M85.7,80.6c-0.8,1.5-1.8,2-3,1.5c-1.1-0.4-1.5-1.3-1.4-2.5c0.1-0.9,0.8-1.4,1.6-1.8
			C85.3,77.6,86.4,78.7,85.7,80.6z"/>
		<path class="st184" d="M85.2,54.7c0,1.2-0.9,2.1-2.1,2.2c-1.2,0.1-2.2-0.9-2.3-2.1c0-1.2,0.9-2.2,2.2-2.2
			C84.2,52.6,85.1,53.5,85.2,54.7z"/>
		<path class="st184" d="M80.8,79c0,1.2-1,2.1-2.2,2.1c-1.2,0-2.2-1-2.1-2.3c0.1-1.2,1.1-2.1,2.2-2C79.9,76.9,80.9,77.8,80.8,79z"/>
		<path class="st184" d="M75.4,70.7c-1.3,0-2.2-1-2.1-2.3c0-1.3,1-2.2,2.3-2.1c1.3,0,2.2,1,2.1,2.3C77.6,69.8,76.7,70.7,75.4,70.7z"
			/>
		<path class="st184" d="M97.5,55c1.3,0,2.2,1,2.2,2.2c0,1.2-1,2.1-2.2,2.1c-1.3,0-2.2-1-2.2-2.2C95.4,55.9,96.3,55,97.5,55z"/>
		<path class="st184" d="M93.2,79.5c1.2,0,2.1,0.9,2.2,2.1c0,1.2-1,2.2-2.2,2.2c-1.2,0-2.1-1-2.1-2.2C91.1,80.5,92,79.5,93.2,79.5z"
			/>
		<path class="st184" d="M99.3,62.8c0.6-1.5,1.6-2.2,2.8-1.8c1.1,0.3,1.8,1.4,1.6,2.5c-0.2,1-0.9,1.6-1.9,1.8
			C100,65.7,98.9,64.6,99.3,62.8z"/>
		<path class="st184" d="M88.9,78.6c1.5,0.8,2,1.8,1.5,3C90,82.7,89.1,83.2,88,83c-0.9-0.1-1.5-0.8-1.8-1.6
			C85.9,79.1,86.9,78.1,88.9,78.6z"/>
		<path class="st184" d="M72.5,73.2c0.1-1.2,1.1-2.1,2.2-2c1.2,0,2.2,1.1,2.1,2.3c-0.1,1.2-1.1,2-2.3,2
			C73.4,75.4,72.5,74.4,72.5,73.2z"/>
		<path class="st184" d="M78.5,63.6c0,1.3-0.9,2.2-2.2,2.2c-1.3,0-2.2-0.9-2.2-2.2c0-1.3,0.9-2.2,2.2-2.2
			C77.5,61.4,78.5,62.4,78.5,63.6z"/>
		<path class="st184" d="M77.2,61c-1.2-0.1-2.1-1-2.1-2.2c0-1.2,1-2.2,2.3-2.1c1.2,0.1,2.1,1.1,2,2.3C79.4,60.1,78.4,61,77.2,61z"/>
		<path class="st184" d="M101.3,77.7c0,1.2-1,2.2-2.3,2.1c-1.2-0.1-2.1-1-2-2.2c0-1.2,1-2.2,2.3-2.1
			C100.4,75.5,101.3,76.5,101.3,77.7z"/>
		<path class="st184" d="M95.6,51.6c0,1.1-1,2-2.1,2.1c-1.1,0-2.1-1-2.1-2.2c0.1-1.1,1.1-2,2.1-2C94.6,49.5,95.6,50.5,95.6,51.6z"/>
		<path class="st184" d="M104.4,58.3c0,1.1-1,2-2.1,2.1c-1.1,0-2.1-1-2.1-2.2c0.1-1.1,1.1-2,2.1-2C103.5,56.2,104.4,57.2,104.4,58.3
			z"/>
		<path class="st184" d="M87.5,83.7c1.1,0,2.1,0.9,2.1,2c0,1.1-0.9,2.1-2,2.1c-1.1,0-2-0.9-2-1.9C85.5,84.7,86.4,83.7,87.5,83.7z"/>
		<path class="st184" d="M104.7,71.5c1.1,0,2.1,0.9,2.1,2c0,1.1-0.9,2.1-2,2.1c-1.1,0-2.1-0.9-2.1-2
			C102.7,72.5,103.6,71.5,104.7,71.5z"/>
		<path class="st184" d="M80.2,54c0,1.1-1,2-2.1,2c-1.1,0-2-1-2-2.1c0-1.1,1-2,2.1-2C79.3,51.9,80.2,52.9,80.2,54z"/>
		<path class="st184" d="M71.4,60.8c1.1,0,2.1,0.9,2.1,2c0,1.1-0.9,2.1-2,2.1c-1.1,0-2-0.9-2-1.9C69.4,61.8,70.3,60.8,71.4,60.8z"/>
		<path class="st184" d="M105.6,66.7c1.1,0,2.1,1,2,2.1c0,1.1-1,2.1-2.1,2c-1.1,0-2.1-1-2-2.1C103.5,67.6,104.5,66.7,105.6,66.7z"/>
		<path class="st184" d="M75.9,78.1c0,1.1-0.9,2-2,2s-2-0.9-2-2.1c0-1.1,0.9-1.9,2-2C74.9,76.1,75.9,77,75.9,78.1z"/>
		<path class="st184" d="M70.7,65.6c1.1,0.1,2,1,1.9,2.2c-0.1,1.1-1.1,2-2.2,1.9c-1.1-0.1-1.9-1-1.9-2.1
			C68.6,66.5,69.6,65.6,70.7,65.6z"/>
		<path class="st184" d="M88.6,48.7c1.1,0,2.1,0.9,2.1,2c0,1.1-0.9,2.1-2,2.1c-1.1,0-2.1-0.9-2.1-2C86.6,49.7,87.5,48.7,88.6,48.7z"
			/>
		<path class="st184" d="M82.7,82.9c1.1,0,2,0.9,2,2.1c0,1.1-1,2-2.1,2c-1.1,0-1.9-0.9-1.9-2C80.7,83.8,81.6,82.8,82.7,82.9z"/>
		<path class="st184" d="M100.1,82.4c0,1.1-0.9,2.1-2,2.1c-1.1,0-2-0.9-2.1-1.9c-0.1-1.1,0.8-2.1,2-2.2
			C99.1,80.4,100.1,81.3,100.1,82.4z"/>
		<path class="st184" d="M103.9,76.5c1.1,0,2,0.8,2,1.9c0,1.1-0.7,2-1.8,2c-1.2,0.1-2.1-0.8-2.1-1.9C102,77.3,102.8,76.5,103.9,76.5
			z"/>
		<path class="st184" d="M74.5,57.9c0,1.1-0.8,2-1.9,2c-1.2,0-2.1-0.8-2.1-2c0-1.1,0.8-1.9,1.9-2C73.6,56,74.4,56.8,74.5,57.9z"/>
		<path class="st184" d="M85.8,49.9c0,1.1-0.9,2-2.1,2c-1.1,0-1.9-0.9-1.9-2c0-1.1,0.9-2,2.1-2C85,48,85.8,48.8,85.8,49.9z"/>
		<path class="st184" d="M106.4,61.9c1.1,0,2,0.9,1.9,2.1c-0.1,1.1-0.9,1.9-2,1.9c-1.2,0-2-0.9-1.9-2.1
			C104.4,62.7,105.3,61.9,106.4,61.9z"/>
		<path class="st184" d="M96.3,52.2c0.1-1.1,0.9-1.9,2-1.9c1.1,0,2,0.9,1.9,2.1c-0.1,1.1-1,2-2.2,1.9C97,54.2,96.3,53.3,96.3,52.2z"
			/>
		<path class="st184" d="M92.3,88.4c-1.1-0.1-1.9-0.9-1.8-2.1c0.1-1.1,0.9-1.9,2.1-1.8c1.1,0.1,1.9,0.9,1.8,2.1
			C94.3,87.7,93.4,88.5,92.3,88.4z"/>
		<path class="st184" d="M71.8,72.5c0,1.1-0.9,1.9-2,1.9c-1.1,0-1.9-0.9-1.9-2c0-1.1,0.9-1.9,2-1.9C71,70.6,71.8,71.4,71.8,72.5z"/>
		<path class="st184" d="M79.8,84c0,1.1-0.8,2-1.9,2c-1.1,0-2-0.8-2-1.9c0-1.1,0.8-2,1.9-2C79,82.1,79.8,82.9,79.8,84z"/>
		<path class="st184" d="M77.1,49c0.1-1,0.9-1.8,2-1.8c1.1,0,1.9,1,1.8,2.1c-0.1,1-1,1.8-2,1.7C77.8,50.9,77,50,77.1,49z"/>
		<path class="st184" d="M105.3,53.4c0,1-0.8,1.9-1.8,1.9c-1.1,0-2-0.8-2-1.9c0-1,0.8-1.9,1.9-1.9C104.5,51.5,105.3,52.3,105.3,53.4
			z"/>
		<path class="st184" d="M109.3,59.1c0,1-0.8,1.9-1.9,1.9c-1.1,0-1.9-0.9-1.9-2c0-1,0.9-1.8,2-1.8C108.6,57.2,109.4,58.1,109.3,59.1
			z"/>
		<path class="st184" d="M73.4,51c1,0.1,1.8,0.9,1.8,2c0,1.1-1,1.9-2.1,1.8c-1-0.1-1.8-1-1.7-2C71.5,51.7,72.4,50.9,73.4,51z"/>
		<path class="st184" d="M105,83.3c0,1-0.9,1.8-1.9,1.8c-1.1,0-1.9-0.9-1.9-2c0.1-1,0.9-1.8,2-1.8C104.2,81.4,105.1,82.3,105,83.3z"
			/>
		<path class="st184" d="M74.9,83c0,1-0.9,1.9-1.9,1.8c-1,0-1.9-0.9-1.8-1.9c0-1,0.9-1.9,1.9-1.8C74.1,81.1,74.9,82,74.9,83z"/>
		<path class="st184" d="M97.2,85.4c1,0,1.9,0.8,1.9,1.9c0,1.1-0.9,2-2,1.9c-1,0-1.8-0.9-1.8-1.9C95.4,86.2,96.2,85.4,97.2,85.4z"/>
		<path class="st184" d="M69,79.2c-1,0-1.9-0.9-1.9-1.9c0-1,0.9-1.9,1.9-1.9c1,0,1.9,0.9,1.9,1.9C70.9,78.3,70,79.2,69,79.2z"/>
		<path class="st184" d="M86.4,45.1c0,1-0.9,1.8-1.9,1.8c-1,0-1.9-1-1.8-2c0.1-1,1-1.8,1.9-1.7C85.6,43.3,86.5,44.2,86.4,45.1z"/>
		<path class="st184" d="M89.5,44c1,0,1.9,0.9,1.9,1.9c0,1-0.9,1.9-1.9,1.9c-1,0-1.9-0.9-1.9-1.9C87.6,44.9,88.5,44,89.5,44z"/>
		<path class="st184" d="M108.9,81.1c-0.9,0-1.8-0.8-1.9-1.7c-0.1-1,0.8-1.9,1.8-1.9c1,0,1.8,0.8,1.8,1.8
			C110.6,80.2,109.8,81,108.9,81.1z"/>
		<path class="st184" d="M94.7,44.8c1,0.1,1.8,1,1.8,2c-0.1,1-1,1.8-2,1.7c-1-0.1-1.7-1-1.7-1.9C92.7,45.6,93.7,44.8,94.7,44.8z"/>
		<path class="st184" d="M111.5,74.4c0,1-0.9,1.9-1.9,1.8c-1,0-1.9-1-1.8-1.9c0.1-1.1,0.8-1.7,1.8-1.8
			C110.6,72.5,111.5,73.4,111.5,74.4z"/>
		<path class="st184" d="M99.4,49.3c-1,0-1.8-0.9-1.8-1.8c0-1,0.9-1.9,1.9-1.8c1,0.1,1.8,1,1.7,1.9C101.2,48.5,100.3,49.4,99.4,49.3
			z"/>
		<path class="st184" d="M83.8,89.7c0,1-1,1.9-2,1.8c-0.9-0.1-1.8-0.9-1.7-1.9c0-1,1-1.9,2-1.8C83,87.9,83.8,88.8,83.8,89.7z"/>
		<path class="st184" d="M86.7,92.4c-1,0-1.9-1-1.8-2c0.1-1,1-1.8,1.9-1.7c1,0,1.9,1,1.8,2C88.5,91.6,87.6,92.4,86.7,92.4z"/>
		<path class="st184" d="M111.2,66.5c-1,0-1.9-1-1.8-1.9c0.1-0.9,0.9-1.8,1.9-1.7c1,0,1.9,1,1.8,2C113,65.8,112.1,66.6,111.2,66.5z"
			/>
		<path class="st184" d="M91.6,93.1c-0.9,0-1.8-0.8-1.8-1.8c0-1,0.9-1.9,1.9-1.8c0.9,0,1.8,0.9,1.7,1.9
			C93.4,92.3,92.5,93.1,91.6,93.1z"/>
		<path class="st184" d="M67.3,58.7c-0.9-0.1-1.8-0.9-1.7-1.9c0-1,1-1.8,2-1.7c1,0.1,1.7,1,1.6,1.9C69.1,58,68.2,58.8,67.3,58.7z"/>
		<path class="st184" d="M67.6,66.8c0,1-0.9,1.9-1.9,1.9c-0.9,0-1.8-0.9-1.8-1.8c0-1,0.9-1.9,1.9-1.9C66.8,65,67.6,65.9,67.6,66.8z"
			/>
		<path class="st184" d="M68.5,62.1c0,1-1,1.8-2,1.8c-1-0.1-1.9-1-1.7-2c0.1-1.1,0.8-1.7,1.9-1.7C67.6,60.1,68.5,61.1,68.5,62.1z"/>
		<path class="st184" d="M108.6,69.4c0.1-1,1-1.8,2-1.8c1,0.1,1.8,1,1.7,2c-0.1,1-1,1.7-1.9,1.7C109.3,71.4,108.5,70.4,108.6,69.4z"
			/>
		<path class="st184" d="M75.9,48.1c0,1-0.9,1.8-1.8,1.7c-1,0-1.8-0.9-1.7-1.9c0.1-1,0.7-1.6,1.8-1.7C75.1,46.2,75.9,47.1,75.9,48.1
			z"/>
		<path class="st184" d="M65,69.9c1,0,1.8,0.8,1.8,1.8c0,1-0.8,1.8-1.8,1.8c-1,0-1.8-0.8-1.8-1.8C63.2,70.8,64,69.9,65,69.9z"/>
		<path class="st184" d="M103.8,88.4c0,1-0.9,1.8-1.9,1.7c-1-0.1-1.6-0.8-1.6-1.8c0-1,0.9-1.8,1.9-1.7
			C103.3,86.7,103.8,87.4,103.8,88.4z"/>
		<path class="st184" d="M108.3,52.4c1,0,1.8,0.9,1.8,1.8c0,1-0.9,1.8-1.8,1.8c-1,0-1.8-0.9-1.8-1.8
			C106.5,53.2,107.4,52.4,108.3,52.4z"/>
		<path class="st184" d="M70,82.2c0,1-0.8,1.9-1.8,1.8c-1-0.1-1.6-0.7-1.7-1.7c0-1,0.8-1.8,1.8-1.7C69.3,80.5,69.9,81.2,70,82.2z"/>
		<path class="st184" d="M78.9,89c-0.1,1-1,1.8-1.9,1.7c-1-0.1-1.8-1-1.7-1.9c0.1-1,1-1.8,1.9-1.7C78.1,87.2,78.9,88.1,78.9,89z"/>
		<path class="st184" d="M79.9,42.3c1,0.1,1.6,0.7,1.6,1.8c0,1-0.9,1.7-1.9,1.6c-1.1-0.1-1.6-0.8-1.5-1.8
			C78.2,42.8,78.9,42.3,79.9,42.3z"/>
		<path class="st184" d="M96.5,93.8c-1-0.1-1.7-0.6-1.7-1.7c0-1.1,0.6-1.7,1.7-1.7c1.1,0,1.7,0.6,1.7,1.7
			C98.1,93.2,97.5,93.7,96.5,93.8z"/>
		<path class="st184" d="M65.9,76.5c-0.1,1-0.6,1.7-1.7,1.7c-1.1,0-1.7-0.6-1.7-1.7c0-1.1,0.6-1.7,1.7-1.7
			C65.2,74.8,65.8,75.5,65.9,76.5z"/>
		<path class="st184" d="M106,48.3c-0.1,1-0.6,1.7-1.7,1.7c-1,0-1.8-0.8-1.7-1.8c0.1-1.1,0.7-1.6,1.8-1.6
			C105.3,46.6,105.9,47.3,106,48.3z"/>
		<path class="st184" d="M112.2,61.6c-1-0.1-1.6-0.7-1.6-1.8c0-1,0.8-1.8,1.8-1.7c1.1,0.1,1.6,0.8,1.6,1.8
			C113.9,61,113.3,61.5,112.2,61.6z"/>
		<path class="st184" d="M74,87.8c-0.1,1.1-0.7,1.7-1.8,1.7c-1.1,0-1.6-0.7-1.6-1.7c0-1.1,0.7-1.6,1.7-1.6
			C73.4,86.2,73.9,86.9,74,87.8z"/>
		<path class="st184" d="M70.2,52.1c-0.1,1-0.6,1.7-1.7,1.7c-1,0-1.7-0.5-1.8-1.6c-0.1-1,0.7-1.8,1.7-1.8
			C69.5,50.4,70.1,51,70.2,52.1z"/>
		<path class="st184" d="M109.7,84.3c-0.1,1-0.6,1.7-1.7,1.7c-1.1,0-1.7-0.6-1.7-1.7c0-1.1,0.6-1.7,1.7-1.7
			C109,82.6,109.6,83.3,109.7,84.3z"/>
		<path class="st184" d="M110.7,49.4c-0.1,1-0.6,1.6-1.6,1.6c-1,0-1.7-0.8-1.6-1.7c0.1-1,0.7-1.6,1.7-1.5
			C110.1,47.8,110.6,48.4,110.7,49.4z"/>
		<path class="st184" d="M93.7,41.9c0.1-1.1,0.9-1.8,1.8-1.7c1,0.1,1.5,0.7,1.5,1.7c0,1-0.8,1.6-1.8,1.5
			C94.2,43.4,93.7,42.7,93.7,41.9z"/>
		<path class="st184" d="M115.3,72c-1,0-1.7-0.7-1.7-1.7c0-1,0.6-1.6,1.6-1.6c1-0.1,1.7,0.7,1.7,1.7C116.9,71.3,116.2,72,115.3,72z"
			/>
		<path class="st184" d="M61.1,64.2c0.8,0.1,1.4,0.6,1.5,1.6c0.1,1-0.7,1.7-1.7,1.7c-1-0.1-1.6-0.6-1.6-1.6
			C59.3,64.9,60,64.2,61.1,64.2z"/>
		<path class="st184" d="M101.8,42.6c-0.1,1-0.6,1.6-1.6,1.7c-0.9,0.1-1.7-0.7-1.7-1.7c0.1-1,0.6-1.6,1.6-1.6
			C101.2,41.1,101.7,41.7,101.8,42.6z"/>
		<path class="st184" d="M76.5,43.4c-0.1,0.8-0.6,1.4-1.6,1.5c-0.9,0.1-1.7-0.7-1.6-1.7c0.1-1,0.6-1.5,1.6-1.5
			C75.8,41.6,76.5,42.3,76.5,43.4z"/>
		<path class="st184" d="M116.1,75.3c0,1.2-0.7,1.9-1.7,1.8c-1-0.1-1.5-0.6-1.6-1.6c0-1,0.7-1.7,1.7-1.6
			C115.5,73.9,116,74.5,116.1,75.3z"/>
		<path class="st184" d="M81.1,96.2c-1-0.1-1.6-0.6-1.6-1.6c0-1,0.8-1.7,1.7-1.6c1,0.1,1.6,0.7,1.5,1.7
			C82.7,95.6,82.1,96.1,81.1,96.2z"/>
		<path class="st184" d="M115.3,80.3c-0.1,1-0.6,1.6-1.6,1.6c-0.9,0.1-1.7-0.7-1.6-1.7c0.1-1,0.6-1.6,1.6-1.5
			C114.7,78.7,115.2,79.3,115.3,80.3z"/>
		<path class="st184" d="M87.6,95.4c-0.1,0.9-0.7,1.5-1.7,1.5c-1,0-1.7-0.8-1.6-1.8c0.1-1,0.7-1.5,1.7-1.5
			C87.1,93.8,87.5,94.4,87.6,95.4z"/>
		<path class="st184" d="M113.1,56.7c-1-0.1-1.6-0.6-1.7-1.6c-0.1-0.9,0.7-1.7,1.6-1.7c1,0.1,1.6,0.6,1.6,1.6
			C114.7,56,114.1,56.5,113.1,56.7z"/>
		<path class="st184" d="M87.3,40.4c-0.1,0.8-0.6,1.4-1.6,1.4c-0.9,0-1.7-0.8-1.6-1.7c0.1-1,0.7-1.5,1.7-1.5
			C86.6,38.6,87.3,39.4,87.3,40.4z"/>
		<path class="st184" d="M106.9,87.5c1,0.1,1.6,0.6,1.7,1.6c0.1,0.9-0.7,1.7-1.6,1.7c-1-0.1-1.6-0.6-1.6-1.6
			C105.3,88.2,105.9,87.7,106.9,87.5z"/>
		<path class="st184" d="M92.2,40.8c0,1.2-0.7,1.9-1.7,1.9c-1,0-1.6-0.6-1.6-1.6c-0.1-1,0.7-1.7,1.7-1.7
			C91.6,39.4,92.1,40,92.2,40.8z"/>
		<path class="st184" d="M69,48.8c-0.8-0.2-1.4-0.7-1.4-1.7c0-0.9,0.9-1.7,1.8-1.5c1,0.1,1.5,0.8,1.4,1.7
			C70.9,48.3,70.1,48.9,69,48.8z"/>
		<path class="st184" d="M116.6,63.9c0.8,0.2,1.4,0.7,1.4,1.7c0,0.9-0.8,1.7-1.8,1.5c-1-0.1-1.5-0.8-1.4-1.8
			C114.8,64.5,115.5,63.8,116.6,63.9z"/>
		<path class="st184" d="M61.8,62.6c-1-0.1-1.6-0.6-1.6-1.6c0-1,0.7-1.7,1.7-1.7c1,0.1,1.6,0.7,1.5,1.7C63.4,62,62.7,62.5,61.8,62.6
			z"/>
		<path class="st184" d="M64.2,56.2c-0.1,1-0.7,1.6-1.7,1.6c-1,0-1.6-0.6-1.6-1.6c0-1,0.6-1.6,1.6-1.6
			C63.6,54.5,64.1,55.2,64.2,56.2z"/>
		<path class="st184" d="M59.3,74.2c0.9,0.1,1.5,0.6,1.6,1.5c0.1,0.8-0.8,1.7-1.6,1.6c-0.9-0.1-1.5-0.7-1.5-1.6
			C57.8,74.8,58.4,74.3,59.3,74.2z"/>
		<path class="st184" d="M118.7,60.7c-0.2,1-0.7,1.6-1.7,1.5c-0.9-0.1-1.5-0.7-1.5-1.6c0-1,0.7-1.6,1.7-1.5
			C118.2,59.2,118.6,59.8,118.7,60.7z"/>
		<path class="st184" d="M65.2,51.3c-0.2,0.9-0.7,1.6-1.7,1.5c-0.9-0.1-1.5-0.7-1.4-1.6c0.1-1,0.7-1.6,1.7-1.5
			C64.7,49.8,65.1,50.4,65.2,51.3z"/>
		<path class="st184" d="M68.8,87c-0.1,1-0.6,1.6-1.6,1.6c-1,0-1.6-0.6-1.6-1.5c0-1,0.6-1.6,1.5-1.6C68.1,85.4,68.6,86,68.8,87z"/>
		<path class="st184" d="M77.6,93.7c-0.1,1-0.6,1.7-1.6,1.7c-1,0-1.6-0.6-1.6-1.6c0-1,0.6-1.6,1.6-1.6C77,92.1,77.5,92.8,77.6,93.7z
			"/>
		<path class="st184" d="M60.1,69.3c1,0.1,1.7,0.6,1.7,1.6c0,1-0.6,1.6-1.6,1.6c-1,0-1.6-0.6-1.6-1.6C58.5,69.9,59.2,69.4,60.1,69.3
			z"/>
		<path class="st184" d="M102.9,93.2c-0.1,1-0.6,1.6-1.6,1.7c-1,0-1.6-0.6-1.6-1.6c0-1,0.6-1.6,1.5-1.6
			C102.2,91.6,102.8,92.2,102.9,93.2z"/>
		<path class="st184" d="M64.7,81.3c-0.1,1-0.6,1.7-1.6,1.6c-1,0-1.6-0.6-1.6-1.6c0-1,0.6-1.6,1.6-1.6
			C64.1,79.8,64.6,80.4,64.7,81.3z"/>
		<path class="st184" d="M114.4,85.2c-0.1,0.9-0.6,1.5-1.6,1.5c-1,0-1.6-0.6-1.6-1.6c0-1,0.7-1.6,1.6-1.5
			C113.8,83.6,114.3,84.3,114.4,85.2z"/>
		<path class="st184" d="M106.6,43.5c-0.2,1-0.7,1.6-1.7,1.6c-1,0-1.6-0.7-1.5-1.7c0-0.9,0.6-1.5,1.6-1.5
			C106,41.9,106.5,42.5,106.6,43.5z"/>
		<path class="st184" d="M80.6,37.6c1,0.1,1.6,0.6,1.6,1.6c0,0.9-0.6,1.5-1.5,1.5c-1,0-1.6-0.6-1.6-1.6C79,38.2,79.6,37.7,80.6,37.6
			z"/>
		<path class="st184" d="M97.2,97.3c-0.2,0.9-0.7,1.5-1.6,1.5c-0.8,0-1.7-0.9-1.5-1.7c0.1-0.9,0.7-1.5,1.7-1.4
			C96.6,95.8,97.1,96.4,97.2,97.3z"/>
		<path class="st184" d="M92.4,96.2c-0.2,1-0.7,1.6-1.7,1.5c-1,0-1.6-0.7-1.5-1.7c0-1,0.7-1.6,1.7-1.5
			C91.9,94.6,92.3,95.2,92.4,96.2z"/>
		<path class="st184" d="M72.7,93c-0.2,0.9-0.7,1.5-1.6,1.5c-0.8,0-1.7-0.8-1.5-1.7c0.1-0.9,0.7-1.5,1.6-1.4
			C72.2,91.5,72.6,92.1,72.7,93z"/>
		<path class="st184" d="M88.9,78.6c-2.1,0.1-2.7,0.7-2.7,2.7c-0.1-0.3-0.3-0.5-0.4-0.8c-0.1-2.1-0.7-2.7-2.7-2.7
			c0.1-0.1,0.2-0.3,0.3-0.4c1.6,0.6,2.6-0.1,3.5-1.3c0.2,1,0.5,1.8,1.6,2.1c0.2,0.2,0.5,0,0.6,0.3C88.9,78.5,88.9,78.6,88.9,78.6z"
			/>
		<path class="st184" d="M98.5,68.5c0.5,1.5,1.6,1.8,3,1.6c-0.3,0.2-0.5,0.3-0.8,0.5c-2.3-0.1-3.1,0.6-3,3c-0.2-0.1-0.4-0.2-0.6-0.3
			c0.4-1.5,0.4-2.8-1.3-3.6c1-0.2,1.7-0.7,2.2-1.4C98.4,68.1,98.5,68.3,98.5,68.5z"/>
		<path class="st184" d="M99.3,62.8c0.2,1.8,0.7,2.3,2.5,2.5c-0.1,0.2-0.2,0.3-0.3,0.5c-1.2-0.2-2.2,0.1-2.9,1.1
			c-0.1,0.1-0.2,0.1-0.3,0c-0.2-0.9-0.6-1.7-1.6-1.9c0.8-0.6,2-0.9,2.3-2.1C99.2,62.8,99.3,62.8,99.3,62.8z"/>
		<path class="st184" d="M88.4,57.8c1.5-0.5,1.8-1.6,1.6-3c0.2,0.3,0.3,0.5,0.5,0.8c-0.2,1.4,0.1,2.5,1.6,3c0,0.1,0,0.1,0,0.2
			c-1.1,0-1.9,0.5-2.6,1.6c-0.3-0.9-0.7-1.7-1.4-2.1C88.1,58,88.2,57.8,88.4,57.8z"/>
		<path class="st184" d="M109.9,46.1c-0.9-0.1-1.5-0.6-1.5-1.6c0-0.9,0.6-1.4,1.5-1.4c0.9,0,1.5,0.6,1.5,1.6
			C111.3,45.5,110.7,46,109.9,46.1z"/>
		<path class="st184" d="M120.8,76.3c-0.1,0.9-0.6,1.5-1.6,1.5c-0.9,0-1.4-0.6-1.4-1.5c0-0.9,0.6-1.5,1.5-1.5
			C120.2,74.8,120.7,75.4,120.8,76.3z"/>
		<path class="st184" d="M117.9,57.3c-0.9-0.1-1.5-0.6-1.4-1.6c0-0.9,0.6-1.4,1.5-1.4c0.9,0,1.5,0.6,1.4,1.6
			C119.4,56.8,118.8,57.3,117.9,57.3z"/>
		<path class="st184" d="M115.5,50.2c-0.1,1-0.7,1.6-1.6,1.5c-0.9,0-1.5-0.6-1.5-1.5c0-0.9,0.6-1.5,1.5-1.5
			C114.9,48.7,115.3,49.3,115.5,50.2z"/>
		<path class="st184" d="M62.3,87.7c-0.9-0.1-1.5-0.7-1.4-1.6c0-0.9,0.6-1.4,1.5-1.4c0.9,0,1.5,0.6,1.4,1.6
			C63.7,87.2,63.1,87.6,62.3,87.7z"/>
		<path class="st184" d="M71.6,42.4c-0.2,0.9-0.7,1.5-1.6,1.5c-0.9-0.1-1.5-0.7-1.4-1.6c0.1-0.9,0.7-1.4,1.5-1.4
			C71.1,40.9,71.5,41.5,71.6,42.4z"/>
		<path class="st184" d="M92.8,36.3c-0.1,0.9-0.7,1.5-1.6,1.4c-0.9-0.1-1.4-0.6-1.4-1.5c0-0.9,0.6-1.5,1.6-1.4
			C92.3,34.8,92.8,35.4,92.8,36.3z"/>
		<path class="st184" d="M106.1,92.5c0.9,0.1,1.4,0.5,1.5,1.4c0,0.9-0.5,1.6-1.5,1.6s-1.5-0.6-1.5-1.5
			C104.6,93.1,105.2,92.6,106.1,92.5z"/>
		<path class="st184" d="M97.7,37c-0.1,0.8-0.5,1.4-1.4,1.5c-0.9,0.1-1.6-0.5-1.6-1.4c0-0.9,0.5-1.5,1.5-1.5
			C97.1,35.6,97.5,36.1,97.7,37z"/>
		<path class="st184" d="M120.1,69.9c1,0.1,1.5,0.7,1.5,1.6c0,0.9-0.6,1.4-1.5,1.4c-0.9,0-1.5-0.6-1.4-1.6
			C118.7,70.5,119.3,70,120.1,69.9z"/>
		<path class="st184" d="M66.3,93.3c-0.9-0.1-1.4-0.5-1.4-1.4c0-0.9,0.5-1.4,1.4-1.4c0.9,0,1.4,0.5,1.4,1.4
			C67.8,92.7,67.3,93.2,66.3,93.3z"/>
		<path class="st184" d="M113.5,90c-0.1,0.9-0.5,1.4-1.4,1.5c-0.9,0-1.5-0.5-1.5-1.5c0-0.9,0.5-1.4,1.4-1.4
			C112.9,88.5,113.4,89.1,113.5,90z"/>
		<path class="st184" d="M57.7,53.9c1,0.1,1.5,0.6,1.4,1.5c0,0.9-0.6,1.4-1.5,1.4c-0.9,0-1.4-0.6-1.4-1.5
			C56.3,54.3,56.9,53.9,57.7,53.9z"/>
		<path class="st184" d="M56.9,58.7c0.9,0,1.4,0.5,1.5,1.4c0,0.9-0.5,1.5-1.4,1.5c-0.9,0-1.4-0.5-1.4-1.4
			C55.5,59.3,56,58.8,56.9,58.7z"/>
		<path class="st184" d="M55.6,74.5c-0.1,0.9-0.5,1.5-1.3,1.5c-0.9,0-1.4-0.5-1.4-1.4c0-0.8,0.5-1.3,1.3-1.3
			C55.1,73.3,55.5,73.8,55.6,74.5z"/>
		<path class="st184" d="M123.4,61.6c-0.1,0.9-0.7,1.3-1.6,1.2c-0.8-0.1-1.3-0.6-1.2-1.5c0.1-0.9,0.7-1.3,1.5-1.3
			C123,60.2,123.4,60.8,123.4,61.6z"/>
		<path class="st184" d="M57.6,64.9c0,0.9-0.5,1.4-1.4,1.5c-0.9,0-1.5-0.5-1.5-1.4c0-0.9,0.5-1.4,1.4-1.4C57,63.5,57.5,64,57.6,64.9
			z"/>
		<path class="st184" d="M59.9,50.6c-0.1,0.8-0.6,1.3-1.5,1.2c-0.8-0.1-1.3-0.6-1.2-1.5c0.1-0.9,0.6-1.3,1.5-1.3
			C59.5,49.2,59.9,49.7,59.9,50.6z"/>
		<path class="st184" d="M114.8,44c0.8,0.1,1.3,0.5,1.3,1.4c0,0.9-0.5,1.4-1.4,1.4c-0.8,0-1.3-0.5-1.3-1.3
			C113.4,44.5,113.9,44,114.8,44z"/>
		<path class="st184" d="M65.9,46.4c-0.1,0.9-0.5,1.4-1.4,1.5c-1,0-1.5-0.5-1.5-1.5c0-0.9,0.6-1.4,1.4-1.4
			C65.3,45,65.8,45.5,65.9,46.4z"/>
		<path class="st184" d="M55.4,68.4c0.9,0.1,1.4,0.6,1.3,1.5c0,0.9-0.6,1.4-1.5,1.3c-0.9,0-1.4-0.6-1.3-1.5
			C53.9,68.9,54.5,68.4,55.4,68.4z"/>
		<path class="st184" d="M118.6,52.4c-0.8-0.1-1.3-0.6-1.2-1.5c0.1-0.8,0.6-1.3,1.5-1.2c0.9,0.1,1.3,0.6,1.3,1.5
			C120,52,119.5,52.4,118.6,52.4z"/>
		<path class="st184" d="M122.6,66.6c-0.1,0.9-0.5,1.4-1.4,1.4c-0.9,0-1.4-0.5-1.4-1.4c0-0.9,0.5-1.4,1.4-1.4
			C122,65.2,122.5,65.7,122.6,66.6z"/>
		<path class="st184" d="M83,34.3c-0.1,0.9-0.5,1.4-1.4,1.4c-0.8,0-1.3-0.5-1.3-1.4c0-0.9,0.5-1.4,1.4-1.4C82.6,33,83,33.5,83,34.3z
			"/>
		<path class="st184" d="M94.8,100.7c0.8,0.1,1.3,0.5,1.3,1.4c0,0.8-0.5,1.4-1.3,1.4c-0.9,0-1.4-0.5-1.4-1.4
			C93.5,101.2,94,100.8,94.8,100.7z"/>
		<path class="st184" d="M86.6,33.7c0.9,0.1,1.4,0.7,1.3,1.5c-0.1,0.9-0.6,1.4-1.5,1.3c-0.9-0.1-1.4-0.6-1.3-1.5
			C85.1,34.1,85.7,33.7,86.6,33.7z"/>
		<path class="st184" d="M117.6,87.3c-0.8-0.1-1.3-0.5-1.3-1.4c0-0.9,0.5-1.4,1.4-1.4c0.8,0,1.3,0.5,1.3,1.3
			C119.1,86.8,118.5,87.3,117.6,87.3z"/>
		<path class="st184" d="M90,99.6c0.9,0.1,1.4,0.5,1.4,1.4c0,0.9-0.5,1.4-1.4,1.4c-0.9,0-1.4-0.5-1.4-1.4
			C88.6,100.1,89.1,99.6,90,99.6z"/>
		<path class="st184" d="M119.9,81.2c-0.1,0.9-0.7,1.4-1.6,1.3c-0.9-0.1-1.4-0.6-1.3-1.5c0.1-0.9,0.6-1.4,1.5-1.3
			C119.5,79.8,119.9,80.3,119.9,81.2z"/>
		<path class="st184" d="M84.9,98.7c0.9,0.1,1.4,0.6,1.4,1.5c0,1-0.6,1.5-1.6,1.4c-0.9-0.1-1.4-0.6-1.3-1.5
			C83.5,99.2,84.1,98.8,84.9,98.7z"/>
		<path class="st184" d="M80,100.8c-0.9-0.1-1.4-0.6-1.4-1.5c0-1,0.6-1.5,1.5-1.4c0.9,0.1,1.4,0.6,1.3,1.5
			C81.4,100.4,80.9,100.8,80,100.8z"/>
		<path class="st184" d="M73.8,98.5c0.1-0.9,0.7-1.4,1.6-1.3c0.9,0.1,1.3,0.7,1.2,1.6c-0.1,0.9-0.6,1.3-1.5,1.2
			C74.2,99.9,73.8,99.4,73.8,98.5z"/>
		<path class="st184" d="M101.9,98c-0.1,0.9-0.5,1.4-1.4,1.5c-1,0-1.5-0.5-1.5-1.5c0-0.9,0.6-1.4,1.4-1.4
			C101.4,96.6,101.8,97.1,101.9,98z"/>
		<path class="st184" d="M70.9,36.2c0.8,0.1,1.3,0.5,1.3,1.4c0,0.8-0.5,1.3-1.3,1.4c-0.9,0-1.4-0.5-1.4-1.4
			C69.6,36.7,70.1,36.2,70.9,36.2z"/>
		<path class="st184" d="M58.2,79.1c0.9,0.1,1.4,0.5,1.4,1.4c0,0.9-0.5,1.4-1.4,1.4c-0.9,0-1.4-0.5-1.5-1.4
			C56.8,79.7,57.3,79.2,58.2,79.1z"/>
		<path class="st184" d="M70.4,96.4c0.8,0.1,1.4,0.5,1.4,1.3c0,0.9-0.5,1.4-1.4,1.4c-0.8,0-1.3-0.5-1.3-1.4
			C69,96.9,69.5,96.5,70.4,96.4z"/>
		<path class="st184" d="M101,36.4c0.9,0.1,1.4,0.6,1.4,1.5c0,1-0.6,1.5-1.5,1.4c-0.9,0-1.4-0.6-1.3-1.5
			C99.6,36.9,100.2,36.4,101,36.4z"/>
		<path class="st184" d="M77.2,38.3c0,0.9-0.5,1.5-1.4,1.5c-0.9,0-1.5-0.5-1.5-1.4c0-0.9,0.5-1.4,1.4-1.4
			C76.6,36.9,77.1,37.4,77.2,38.3z"/>
		<path class="st184" d="M107.2,38.6c0,0.9-0.5,1.4-1.4,1.4c-0.8,0-1.3-0.5-1.4-1.3c0-0.9,0.5-1.4,1.4-1.4
			C106.7,37.3,107.2,37.7,107.2,38.6z"/>
		<path class="st184" d="M65.3,43c-0.8,0-1.4-0.4-1.4-1.3c0-0.9,0.4-1.4,1.4-1.4c0.8,0,1.3,0.5,1.3,1.3C66.6,42.4,66.1,42.9,65.3,43
			z"/>
		<path class="st184" d="M78.2,33.4c-0.1,0.9-0.5,1.5-1.4,1.4c-0.8,0-1.3-0.5-1.3-1.4c0-0.8,0.5-1.2,1.3-1.3
			C77.6,32.2,78,32.7,78.2,33.4z"/>
		<path class="st184" d="M112,39.5c-0.1,0.8-0.6,1.3-1.4,1.3c-0.8,0-1.3-0.6-1.3-1.4c0-0.8,0.5-1.2,1.3-1.3
			C111.5,38.1,111.9,38.6,112,39.5z"/>
		<path class="st184" d="M112.3,94.8c-0.1,0.8-0.5,1.3-1.3,1.3c-0.8,0-1.3-0.5-1.4-1.3c0-0.9,0.5-1.4,1.4-1.4
			C111.8,93.5,112.2,94,112.3,94.8z"/>
		<path class="st184" d="M124.2,56.6c-0.2,0.9-0.6,1.4-1.4,1.4c-0.8,0-1.2-0.5-1.2-1.3c0-0.8,0.5-1.3,1.3-1.3
			C123.6,55.3,124,55.9,124.2,56.6z"/>
		<path class="st184" d="M58.8,85.4c-0.1,0.9-0.6,1.4-1.4,1.4c-0.8,0-1.3-0.5-1.3-1.4c0-0.8,0.5-1.3,1.4-1.3
			C58.3,84.1,58.7,84.6,58.8,85.4z"/>
		<path class="st184" d="M106.7,98.8c-0.1,0.8-0.5,1.4-1.3,1.4c-0.9,0-1.4-0.5-1.4-1.4c0-0.8,0.5-1.3,1.3-1.3
			C106.1,97.5,106.6,98,106.7,98.8z"/>
		<path class="st184" d="M61.3,89.7c0.9,0.1,1.5,0.5,1.5,1.3c0,0.8-0.4,1.4-1.3,1.4c-0.8,0-1.3-0.4-1.4-1.3
			C60.1,90.2,60.7,89.8,61.3,89.7z"/>
		<path class="st184" d="M53.4,59.3c-0.1,0.8-0.5,1.3-1.4,1.3c-0.8,0-1.3-0.5-1.3-1.3c0-0.8,0.5-1.3,1.3-1.3
			C52.9,58.1,53.3,58.6,53.4,59.3z"/>
		<path class="st184" d="M124.1,75.7c0.8,0.1,1.3,0.5,1.3,1.4c0,0.8-0.5,1.3-1.3,1.3c-0.8,0-1.3-0.5-1.3-1.4
			C122.8,76.3,123.4,75.9,124.1,75.7z"/>
		<path class="st184" d="M111.5,99.6c-0.1,0.8-0.6,1.3-1.3,1.3c-0.8,0-1.3-0.5-1.2-1.3c0-0.8,0.5-1.3,1.3-1.2
			C111,98.4,111.3,98.9,111.5,99.6z"/>
		<path class="st184" d="M99.7,101.5c0.8,0.1,1.3,0.6,1.3,1.4c0,0.8-0.5,1.3-1.3,1.2c-0.8,0-1.3-0.6-1.3-1.4
			C98.4,102,98.9,101.6,99.7,101.5z"/>
		<path class="st184" d="M75.7,103.4c-0.1,0.8-0.5,1.3-1.3,1.3c-0.8,0-1.3-0.5-1.3-1.2c0-0.8,0.5-1.3,1.2-1.3
			C75.1,102.1,75.6,102.6,75.7,103.4z"/>
		<path class="st184" d="M79.3,105.5c-0.8-0.1-1.3-0.5-1.3-1.2c0-0.8,0.5-1.4,1.3-1.4c0.8,0,1.3,0.5,1.3,1.3
			C80.5,105,80,105.4,79.3,105.5z"/>
		<path class="st184" d="M124.6,81.9c-0.1,0.8-0.5,1.3-1.3,1.3c-0.8,0-1.4-0.5-1.3-1.4c0-0.8,0.6-1.2,1.3-1.2
			C124.1,80.6,124.5,81.2,124.6,81.9z"/>
		<path class="st184" d="M85.4,105c-0.1,0.8-0.6,1.4-1.4,1.3c-0.8,0-1.3-0.5-1.2-1.3c0-0.8,0.5-1.3,1.4-1.3
			C84.9,103.8,85.3,104.3,85.4,105z"/>
		<path class="st184" d="M61,45.6c-0.1,0.8-0.6,1.3-1.4,1.3c-0.8,0-1.3-0.6-1.3-1.4c0-0.8,0.5-1.2,1.3-1.2
			C60.4,44.3,60.8,44.8,61,45.6z"/>
		<path class="st184" d="M115.5,39.2c0.7,0.1,1.3,0.5,1.3,1.3s-0.5,1.3-1.2,1.3c-0.8,0-1.3-0.5-1.3-1.2
			C114.2,39.8,114.7,39.4,115.5,39.2z"/>
		<path class="st184" d="M54.8,79.8c-0.2,0.8-0.6,1.4-1.5,1.3c-0.7-0.1-1.2-0.6-1.2-1.4c0.1-0.8,0.6-1.3,1.4-1.2
			C54.3,78.5,54.7,79.1,54.8,79.8z"/>
		<path class="st184" d="M51.8,69c-0.1,0.7-0.5,1.3-1.3,1.3c-0.8,0-1.3-0.5-1.3-1.2c0-0.8,0.5-1.3,1.3-1.3
			C51.3,67.8,51.7,68.3,51.8,69z"/>
		<path class="st184" d="M120.9,46.2c-0.1,0.8-0.6,1.3-1.3,1.3c-0.8,0-1.3-0.5-1.3-1.3c0-0.8,0.5-1.3,1.4-1.3
			C120.4,44.9,120.8,45.5,120.9,46.2z"/>
		<path class="st184" d="M88.9,107.4c-0.8-0.1-1.3-0.6-1.2-1.3c0-0.8,0.5-1.3,1.3-1.2c0.8,0,1.3,0.5,1.2,1.3
			C90.2,106.9,89.6,107.3,88.9,107.4z"/>
		<path class="st184" d="M98.3,32.2c-0.1,0.8-0.5,1.3-1.4,1.3c-0.8,0-1.3-0.5-1.3-1.4c0-0.8,0.5-1.2,1.3-1.3
			C97.8,30.8,98.2,31.4,98.3,32.2z"/>
		<path class="st184" d="M65.5,98c-0.7-0.1-1.3-0.5-1.3-1.3c0-0.8,0.5-1.4,1.3-1.4c0.8,0,1.3,0.6,1.3,1.4
			C66.8,97.5,66.3,97.9,65.5,98z"/>
		<path class="st184" d="M93.5,31.4c-0.2,0.8-0.6,1.3-1.4,1.2c-0.8-0.1-1.3-0.6-1.2-1.4c0.1-0.7,0.6-1.2,1.3-1.2
			C93,30.1,93.4,30.6,93.5,31.4z"/>
		<path class="st184" d="M87.3,29c0.8,0.1,1.3,0.5,1.3,1.3c0,0.8-0.5,1.4-1.3,1.4c-0.8,0-1.3-0.5-1.3-1.3C86,29.5,86.5,29.1,87.3,29
			z"/>
		<path class="st184" d="M52.6,64.2c-0.1,0.8-0.6,1.3-1.4,1.3c-0.8,0-1.2-0.5-1.2-1.3c0-0.8,0.5-1.3,1.4-1.3
			C52.1,62.9,52.5,63.4,52.6,64.2z"/>
		<path class="st184" d="M127.3,67.4c-0.1,0.8-0.5,1.3-1.3,1.3c-0.8,0-1.3-0.5-1.3-1.2c0-0.8,0.5-1.4,1.3-1.3
			C126.8,66.1,127.2,66.7,127.3,67.4z"/>
		<path class="st184" d="M126.5,72.3c-0.1,0.7-0.5,1.3-1.3,1.3c-0.8,0-1.4-0.5-1.3-1.3c0-0.8,0.6-1.3,1.4-1.3
			C126.1,71,126.5,71.5,126.5,72.3z"/>
		<path class="st184" d="M103.1,33.1c-0.2,0.8-0.6,1.3-1.5,1.2c-0.7-0.1-1.2-0.6-1.2-1.3c0.1-0.8,0.6-1.3,1.4-1.2
			C102.7,31.8,103.1,32.3,103.1,33.1z"/>
		<path class="st184" d="M54.2,54.5c-0.1,0.7-0.6,1.3-1.3,1.2c-0.8,0-1.3-0.5-1.3-1.3c0-0.8,0.5-1.3,1.4-1.3
			C53.7,53.3,54.1,53.8,54.2,54.5z"/>
		<path class="st184" d="M66,35.5c0.8,0.1,1.3,0.5,1.3,1.3c0,0.8-0.5,1.3-1.2,1.3c-0.8,0-1.3-0.5-1.3-1.2C64.8,36,65.3,35.6,66,35.5
			z"/>
		<path class="st184" d="M118.2,90.8c-0.2,0.8-0.6,1.3-1.4,1.3c-0.8-0.1-1.3-0.6-1.2-1.4c0.1-0.7,0.6-1.2,1.3-1.2
			C117.7,89.5,118.1,90,118.2,90.8z"/>
		<path class="st184" d="M117.1,95.6c-0.1,0.8-0.6,1.3-1.3,1.2c-0.8,0-1.2-0.6-1.2-1.3c0-0.7,0.5-1.2,1.2-1.1
			C116.6,94.4,117,94.9,117.1,95.6z"/>
		<path class="st184" d="M61.9,95.9c-0.1,0.8-0.5,1.2-1.3,1.2c-0.7,0-1.2-0.5-1.2-1.2c0-0.8,0.5-1.3,1.3-1.2
			C61.5,94.7,61.8,95.2,61.9,95.9z"/>
		<path class="st184" d="M71.7,31.5c0.7,0.1,1.3,0.5,1.3,1.3c0,0.8-0.5,1.3-1.3,1.2c-0.7,0-1.2-0.5-1.2-1.2
			C70.4,32,70.9,31.6,71.7,31.5z"/>
		<path class="st184" d="M69.5,103.9c-0.8-0.1-1.3-0.6-1.2-1.3c0-0.7,0.5-1.2,1.2-1.1c0.8,0,1.2,0.5,1.2,1.3
			C70.7,103.4,70.2,103.8,69.5,103.9z"/>
		<path class="st184" d="M95,106.9c-0.1,0.7-0.4,1.2-1.1,1.2c-0.8,0.1-1.3-0.4-1.3-1.2c0-0.7,0.4-1.2,1.1-1.3
			C94.4,105.6,94.9,106.1,95,106.9z"/>
		<path class="st184" d="M107.9,33.8c-0.1,0.8-0.5,1.3-1.3,1.3c-0.8,0-1.3-0.5-1.3-1.2c0-0.8,0.5-1.3,1.2-1.3
			C107.4,32.5,107.8,33,107.9,33.8z"/>
		<path class="st184" d="M82.4,28.2c0.7,0.1,1.3,0.5,1.3,1.3c0,0.8-0.5,1.3-1.2,1.3c-0.8,0-1.3-0.5-1.3-1.2
			C81.2,28.8,81.7,28.3,82.4,28.2z"/>
		<path class="st184" d="M60.4,39.5c0.7,0.1,1.3,0.5,1.3,1.2c0,0.8-0.5,1.3-1.3,1.3c-0.7,0-1.2-0.5-1.2-1.2
			C59.1,40.1,59.6,39.7,60.4,39.5z"/>
		<path class="st184" d="M55,49.6c-0.1,0.7-0.5,1.3-1.3,1.3c-0.8,0-1.3-0.5-1.2-1.3c0-0.7,0.5-1.2,1.2-1.2
			C54.4,48.4,54.8,48.9,55,49.6z"/>
		<path class="st184" d="M123.6,50.5c0.8,0.1,1.3,0.6,1.2,1.3c0,0.8-0.5,1.2-1.3,1.2c-0.8,0-1.2-0.5-1.2-1.3
			C122.4,51,122.9,50.6,123.6,50.5z"/>
		<path class="st184" d="M126.8,61.3c0.7,0.1,1.3,0.5,1.3,1.3c0,0.8-0.5,1.3-1.2,1.3c-0.8,0-1.3-0.5-1.3-1.2
			C125.5,61.8,126,61.4,126.8,61.3z"/>
		<path class="st184" d="M105.8,103.7c-0.1,0.8-0.6,1.3-1.4,1.2c-0.8-0.1-1.2-0.6-1.1-1.4c0.1-0.7,0.6-1.1,1.3-1.1
			C105.3,102.5,105.7,103,105.8,103.7z"/>
		<path class="st184" d="M49.4,75.1c-0.8-0.1-1.3-0.6-1.2-1.4c0.1-0.7,0.6-1.1,1.3-1.1c0.8,0.1,1.2,0.6,1.1,1.3
			C50.5,74.7,50,75,49.4,75.1z"/>
		<path class="st184" d="M53.9,84.6c-0.1,0.8-0.6,1.3-1.4,1.2c-0.7-0.1-1.1-0.6-1.1-1.3c0.1-0.8,0.6-1.2,1.3-1.1
			C53.5,83.5,53.8,84,53.9,84.6z"/>
		<path class="st184" d="M123.8,86.7c-0.1,0.7-0.5,1.3-1.3,1.3c-0.8,0-1.3-0.5-1.2-1.3c0-0.7,0.5-1.2,1.2-1.2
			C123.2,85.5,123.7,86,123.8,86.7z"/>
		<path class="st184" d="M56.7,91.5c-0.7-0.1-1.3-0.5-1.3-1.3c0-0.8,0.5-1.3,1.2-1.3c0.8,0,1.3,0.5,1.3,1.2
			C57.9,91,57.4,91.4,56.7,91.5z"/>
		<path class="st184" d="M78.8,28.7c-0.1,0.8-0.5,1.2-1.2,1.2c-0.7,0-1.1-0.5-1.1-1.2c0-0.7,0.5-1.1,1.2-1.1
			C78.4,27.6,78.8,28,78.8,28.7z"/>
		<path class="st184" d="M65.9,101.8c-0.1,0.7-0.5,1.1-1.2,1.1c-0.7,0-1.1-0.4-1.1-1.1c0-0.7,0.4-1.2,1.1-1.2
			C65.5,100.7,65.8,101.1,65.9,101.8z"/>
		<path class="st184" d="M55.9,44.8c0,0.7-0.4,1.2-1.1,1.2c-0.7,0-1.2-0.4-1.2-1.1c0-0.7,0.4-1.2,1.1-1.2
			C55.5,43.6,55.9,44,55.9,44.8z"/>
		<path class="st184" d="M111.5,35.8c-0.7-0.1-1.2-0.5-1.2-1.2c0-0.7,0.4-1.2,1.2-1.1c0.7,0,1.2,0.4,1.1,1.2
			C112.6,35.4,112.2,35.7,111.5,35.8z"/>
		<path class="st184" d="M98.9,27.2c0,0.8-0.4,1.3-1.1,1.3c-0.7,0-1.2-0.4-1.2-1.1c0-0.7,0.4-1.1,1-1.1
			C98.4,26.2,98.8,26.6,98.9,27.2z"/>
		<path class="st184" d="M100,107.6c0,0.8-0.4,1.2-1.1,1.2c-0.7,0-1.2-0.4-1.2-1.2c0-0.7,0.4-1.1,1.1-1.1
			C99.5,106.5,99.9,106.9,100,107.6z"/>
		<path class="st184" d="M128.8,57.7c0,0.8-0.4,1.2-1.2,1.2c-0.7,0-1.2-0.4-1.2-1.1c0-0.7,0.4-1.2,1.1-1.2
			C128.3,56.5,128.7,57,128.8,57.7z"/>
		<path class="st184" d="M122.9,91.6c0,0.7-0.4,1.2-1.2,1.2c-0.7,0-1.2-0.4-1.2-1.2c0-0.7,0.4-1.1,1.1-1.1
			C122.4,90.4,122.8,90.8,122.9,91.6z"/>
		<path class="st184" d="M48.6,79.8c-0.7-0.1-1.1-0.5-1.1-1.2c0-0.7,0.4-1.1,1.1-1.1c0.7,0,1.2,0.4,1.2,1.1
			C49.7,79.4,49.3,79.8,48.6,79.8z"/>
		<path class="st184" d="M124.5,48.1c-0.7,0-1.2-0.4-1.2-1.1c0-0.7,0.4-1.2,1.1-1.2c0.7,0,1.1,0.4,1.1,1
			C125.6,47.6,125.2,48,124.5,48.1z"/>
		<path class="st184" d="M129.3,82.6c0,0.8-0.4,1.2-1.1,1.2c-0.8,0-1.2-0.4-1.2-1.2c0-0.7,0.4-1.1,1.1-1.1
			C128.9,81.6,129.2,82.1,129.3,82.6z"/>
		<path class="st184" d="M107.7,27.9c0.7,0.1,1.1,0.4,1.1,1.1c0,0.7-0.4,1.1-1.1,1.1c-0.7,0-1.1-0.4-1.1-1.1
			C106.6,28.3,107.1,27.9,107.7,27.9z"/>
		<path class="st184" d="M127.4,88.7c-0.7,0-1.1-0.4-1.1-1c0-0.7,0.3-1.1,1-1.1c0.7,0,1.1,0.3,1.1,1
			C128.5,88.2,128.1,88.5,127.4,88.7z"/>
		<path class="st184" d="M132.7,63.3c-0.1,0.7-0.4,1.1-1.1,1.1c-0.7,0-1.1-0.4-1.1-1c0-0.7,0.4-1.1,1-1.1
			C132.3,62.3,132.7,62.7,132.7,63.3z"/>
		<path class="st184" d="M69.8,107.5c-0.1,0.6-0.5,1.1-1.2,1c-0.7-0.1-1-0.5-1-1.2c0.1-0.6,0.5-1,1.1-0.9
			C69.4,106.4,69.8,106.8,69.8,107.5z"/>
		<path class="st184" d="M112.5,30.8c-0.6-0.1-1-0.4-1-1c0-0.7,0.4-1.1,1.1-1.1c0.7,0,1.1,0.5,1,1.1
			C113.6,30.5,113.1,30.8,112.5,30.8z"/>
		<path class="st184" d="M57.4,34.8c-0.1,0.6-0.4,1.1-1,1.1c-0.7,0-1.1-0.4-1.1-1.1c0-0.6,0.4-1,1-1C57,33.8,57.3,34.3,57.4,34.8z"
			/>
		<path class="st184" d="M62.4,36c-0.1,0.7-0.4,1.1-1.1,1.1c-0.7,0-1.2-0.4-1.1-1.2c0-0.7,0.4-1.1,1.1-1.1
			C62,34.8,62.3,35.3,62.4,36z"/>
		<path class="st184" d="M93,27.4c-0.7,0-1.2-0.4-1.1-1.2c0-0.7,0.4-1.1,1.1-1.1c0.7,0,1.2,0.4,1.2,1.1C94.1,27,93.7,27.3,93,27.4z"
			/>
		<path class="st184" d="M64,107.7c-0.7,0-1.1-0.4-1.1-1c-0.1-0.7,0.4-1.1,1-1.1c0.6,0,1,0.4,1,1C65,107.3,64.5,107.6,64,107.7z"/>
		<path class="st184" d="M62,31.9c-0.6-0.1-1.1-0.4-1.1-1.1c0-0.6,0.4-1,1-1c0.7,0,1.1,0.4,1.1,1.1C63.1,31.5,62.6,31.8,62,31.9z"/>
		<path class="st184" d="M69,27.1c-0.1,0.6-0.4,1-1,1c-0.7,0-1.1-0.4-1.1-1.1c0-0.6,0.4-1,1-1C68.6,26,68.9,26.5,69,27.1z"/>
		<path class="st184" d="M116.4,34.6c0.8,0,1.2,0.3,1.3,1c0,0.7-0.4,1.2-1.1,1.2c-0.7,0-1.1-0.4-1.1-1.1
			C115.5,35,115.9,34.7,116.4,34.6z"/>
		<path class="st184" d="M72.9,29c-0.8,0-1.2-0.4-1.3-1.1c0-0.7,0.4-1.1,1-1.1c0.7,0,1.1,0.4,1.1,1C73.9,28.6,73.4,28.9,72.9,29z"/>
		<path class="st184" d="M114.2,106.4c-0.6-0.1-1.1-0.4-1.1-1.1c0-0.6,0.4-1,1-1c0.7,0,1.1,0.4,1.1,1.1
			C115.2,105.9,114.8,106.3,114.2,106.4z"/>
		<path class="st184" d="M78.5,24.9c-0.7-0.1-1.1-0.4-1.1-1c0-0.7,0.4-1.1,1.1-1.1c0.7,0,1.1,0.4,1,1.1C79.4,24.5,79,24.8,78.5,24.9
			z"/>
		<path class="st184" d="M119.8,100.5c0.6,0.1,1.1,0.4,1.1,1c0,0.7-0.4,1.1-1.1,1.1c-0.6,0-1-0.4-1-1
			C118.8,100.9,119.2,100.6,119.8,100.5z"/>
		<path class="st184" d="M68,31.9c0,0.7-0.4,1.1-1.1,1.1c-0.7,0-1.2-0.4-1.2-1.1c0-0.8,0.5-1.1,1.2-1.1C67.6,30.8,68,31.3,68,31.9z"
			/>
		<path class="st184" d="M83.2,25.8c-0.7-0.1-1.1-0.5-1-1.1c0-0.7,0.4-1.1,1.1-1c0.7,0,1.1,0.4,1,1.1C84.3,25.4,83.9,25.7,83.2,25.8
			z"/>
		<path class="st184" d="M110.5,104.4c0,0.7-0.3,1.1-1,1.2c-0.7,0-1.2-0.3-1.2-1.1c0-0.7,0.4-1.1,1.1-1.1
			C110,103.4,110.4,103.8,110.5,104.4z"/>
		<path class="st184" d="M56.1,99.9c-0.1,0.6-0.4,1.1-1,1.1c-0.7,0-1.1-0.4-1.1-1.1c0-0.6,0.4-1,1-1C55.7,98.9,56,99.3,56.1,99.9z"
			/>
		<path class="st184" d="M59.9,99.6c0.7,0.1,1.1,0.5,1,1.1c0,0.7-0.4,1.1-1.1,1c-0.7,0-1.1-0.4-1-1.1C58.8,100,59.3,99.7,59.9,99.6z
			"/>
		<path class="st184" d="M121.5,37.5c-0.6,0-1-0.4-1.1-1c-0.1-0.7,0.4-1.1,1-1.1c0.6,0,1,0.4,1,1C122.5,37.1,122.1,37.4,121.5,37.5z
			"/>
		<path class="st184" d="M88.1,24.3c0.7,0,1.1,0.4,1.1,1.1c0,0.8-0.4,1.2-1.2,1.1c-0.7,0-1.1-0.4-1-1.1C87,24.7,87.4,24.4,88.1,24.3
			z"/>
		<path class="st184" d="M116.1,100.4c0,0.7-0.3,1.1-1,1.2c-0.7,0-1.2-0.3-1.2-1.1c0-0.7,0.4-1.1,1.1-1.1
			C115.6,99.3,116,99.7,116.1,100.4z"/>
		<path class="st184" d="M47.6,63.3c0,0.7-0.3,1.1-1,1.2c-0.7,0-1.2-0.3-1.2-1.1c0-0.7,0.4-1.1,1.1-1.1
			C47.1,62.2,47.5,62.6,47.6,63.3z"/>
		<path class="st184" d="M109.6,109.3c-0.1,0.6-0.4,1-1,1.1c-0.7,0-1.1-0.4-1.1-1.1c0-0.6,0.4-1,1-1
			C109.1,108.3,109.5,108.7,109.6,109.3z"/>
		<path class="st184" d="M120.9,95.3c0.7,0.1,1.1,0.4,1.1,1.1c0,0.7-0.4,1.1-1.1,1.1c-0.7,0-1.1-0.4-1.1-1.1
			C119.8,95.7,120.3,95.4,120.9,95.3z"/>
		<path class="st184" d="M44.5,74.1c-0.7-0.1-1.1-0.4-1.1-1.1c0-0.7,0.5-1.1,1.1-1c0.6,0,1,0.4,1,1C45.6,73.7,45.2,74,44.5,74.1z"/>
		<path class="st184" d="M131.2,73.1c-0.1,0.7-0.4,1.1-1.1,1.1c-0.7,0-1.2-0.4-1.2-1.1c0-0.7,0.4-1.1,1.1-1.1
			C130.8,71.9,131.1,72.3,131.2,73.1z"/>
		<path class="st184" d="M48.9,83.5c-0.1,0.7-0.5,1.1-1.2,1.1c-0.7,0-1.1-0.5-1-1.1s0.5-1,1.1-1C48.5,82.5,48.8,82.9,48.9,83.5z"/>
		<path class="st184" d="M130.8,67.1c0.7,0,1.1,0.4,1.1,1.1c0,0.8-0.4,1.2-1.2,1.1c-0.7,0-1.1-0.4-1-1.1
			C129.8,67.5,130.2,67.1,130.8,67.1z"/>
		<path class="st184" d="M45.5,69.3c-0.8,0-1.2-0.4-1.3-1.1c0-0.7,0.4-1.1,1-1.1c0.7,0,1.1,0.4,1.1,1C46.5,68.9,46,69.2,45.5,69.3z"
			/>
		<path class="st184" d="M55.8,96.2c-0.7-0.1-1.1-0.4-1.1-1.1c0-0.8,0.4-1.1,1.2-1.1c0.7,0,1,0.5,1,1.2
			C56.9,95.8,56.5,96.2,55.8,96.2z"/>
		<path class="st184" d="M52.1,94.3c-0.1,0.6-0.4,1-1,1c-0.7,0-1.1-0.4-1.1-1.1c0-0.6,0.4-1,1.1-1C51.6,93.3,52,93.7,52.1,94.3z"/>
		<path class="st184" d="M55.5,40.8c-0.7-0.1-1-0.5-1-1.2c0-0.7,0.5-1.1,1.1-1c0.7,0,1.1,0.5,1,1.1C56.6,40.5,56.2,40.8,55.5,40.8z"
			/>
		<path class="st184" d="M132.5,57.5c0.6,0.1,1,0.4,1,1.1c0,0.7-0.4,1.1-1.1,1.1c-0.7,0-1.1-0.5-1-1.2
			C131.5,57.8,131.9,57.5,132.5,57.5z"/>
		<path class="st184" d="M49.9,48.9c-0.1,0.7-0.5,1.1-1.2,1c-0.7,0-1.1-0.5-1-1.2c0.1-0.6,0.4-1,1.1-1
			C49.6,47.8,49.9,48.2,49.9,48.9z"/>
		<path class="st184" d="M48.4,58.5c0,0.7-0.4,1.1-1.1,1.1c-0.8,0-1.2-0.4-1.2-1.2c0-0.7,0.4-1.1,1.1-1.1
			C48,57.4,48.3,57.8,48.4,58.5z"/>
		<path class="st184" d="M79.5,109.1c0,0.7-0.4,1.1-1.1,1.1c-0.8,0-1.2-0.4-1.1-1.2c0-0.7,0.4-1.1,1.1-1
			C79.1,108,79.5,108.4,79.5,109.1z"/>
		<path class="st184" d="M127.6,92.3c-0.1,0.7-0.4,1.1-1.1,1.2c-0.6,0-1-0.4-1-1c0-0.7,0.4-1.1,1-1.1
			C127.2,91.3,127.5,91.8,127.6,92.3z"/>
		<path class="st184" d="M121.8,41.4c-0.1,0.7-0.4,1.1-1.1,1c-0.8,0-1.2-0.4-1.1-1.2c0-0.8,0.5-1.1,1.2-1.1
			C121.4,40.3,121.7,40.7,121.8,41.4z"/>
		<path class="st184" d="M44.8,77.8c0,0.7-0.4,1.1-1,1.1c-0.7,0.1-1.1-0.4-1.1-1c0-0.6,0.4-1,1-1C44.4,76.8,44.7,77.3,44.8,77.8z"/>
		<path class="st184" d="M129,79c-0.7-0.1-1.2-0.4-1.2-1.1c0-0.7,0.4-1.2,1.1-1.2c0.8,0,1.1,0.5,1.1,1.2C130.1,78.7,129.6,79,129,79
			z"/>
		<path class="st184" d="M103.7,107.4c0.7,0.1,1.1,0.5,1,1.1c0,0.7-0.4,1.1-1.1,1c-0.7,0-1.1-0.4-1-1.1
			C102.6,107.8,103.1,107.5,103.7,107.4z"/>
		<path class="st184" d="M48,88.7c-0.1,0.6-0.5,1-1.1,1c-0.7,0-1.1-0.5-1-1.1c0.1-0.6,0.5-1,1.1-0.9C47.7,87.7,48,88.1,48,88.7z"/>
		<path class="st184" d="M102.7,29.3c-0.7,0-1.1-0.3-1.2-1c0-0.7,0.3-1.2,1.1-1.2c0.7,0,1.1,0.4,1.1,1.1
			C103.7,28.8,103.4,29.2,102.7,29.3z"/>
		<path class="st184" d="M126.5,42.1c-0.1,0.7-0.4,1.1-1.1,1.1c-0.6,0-1-0.4-1-1c0-0.7,0.4-1.1,1-1.1
			C126.1,41.1,126.4,41.5,126.5,42.1z"/>
		<path class="st184" d="M48,54.8c-0.7-0.1-1.1-0.4-1.1-1.1c0-0.8,0.5-1.1,1.2-1.1c0.7,0,1,0.5,1,1.2C49.1,54.4,48.7,54.8,48,54.8z"
			/>
		<path class="st184" d="M52.9,89.5c-0.1,0.7-0.4,1.1-1.1,1c-0.8,0-1.1-0.5-1.1-1.2c0-0.7,0.5-1,1.2-1
			C52.6,88.4,52.9,88.8,52.9,89.5z"/>
		<path class="st184" d="M49.7,42.7c0.6,0.1,1,0.5,1,1.1c0,0.6-0.4,1-1,1c-0.7,0-1.1-0.4-1-1.1C48.7,43,49.1,42.8,49.7,42.7z"/>
		<path class="st184" d="M128.4,53.7c-0.7-0.1-1.1-0.4-1.1-1.1c0-0.8,0.5-1.1,1.2-1.1c0.7,0,1,0.5,1,1.2
			C129.5,53.4,129.1,53.7,128.4,53.7z"/>
		<path class="st184" d="M130.6,47.7c-0.1,0.7-0.4,1.1-1,1.1c-0.7,0-1.1-0.4-1.1-1.1c0-0.6,0.4-1,1-1
			C130.1,46.7,130.4,47.2,130.6,47.7z"/>
		<path class="st184" d="M74.7,108.2c0,0.7-0.4,1.1-1,1.2c-0.7,0-1.1-0.3-1.1-1c0-0.7,0.3-1.1,1-1.1
			C74.2,107.1,74.6,107.5,74.7,108.2z"/>
		<path class="st184" d="M84.4,109.9c-0.1,0.7-0.4,1.1-1.1,1.1c-0.8,0-1.2-0.5-1.1-1.2c0-0.7,0.5-1,1.2-1
			C84,108.8,84.3,109.2,84.4,109.9z"/>
		<path class="st184" d="M88.1,109.8c0.7,0.1,1.1,0.4,1.1,1.1c0,0.7-0.4,1.1-1.1,1.1c-0.7,0-1.1-0.4-1.1-1.1
			C87,110.3,87.4,109.9,88.1,109.8z"/>
		<path class="st184" d="M92.9,110.6c0.8,0.1,1.2,0.5,1.2,1.1c0,0.7-0.5,1.1-1.1,1c-0.6,0-1-0.4-1-1
			C91.9,111.1,92.3,110.8,92.9,110.6z"/>
		<path class="st184" d="M97.8,111.5c0.6,0.1,1,0.4,1.1,1c0,0.7-0.4,1.1-1.1,1.1c-0.6,0-1-0.4-1-1C96.7,111.9,97.2,111.6,97.8,111.5
			z"/>
		<path class="st184" d="M93.8,20.4c0.6,0.1,1,0.5,1,1.1c0,0.6-0.4,1-1,1c-0.6,0-1-0.4-1-1C92.8,20.8,93.2,20.5,93.8,20.4z"/>
		<path class="st184" d="M60,105.6c-0.1,0.6-0.5,1-1.1,0.9c-0.5-0.1-0.9-0.5-0.8-1c0.1-0.6,0.5-1,1.1-0.9
			C59.7,104.7,60,105.1,60,105.6z"/>
		<path class="st184" d="M40.5,68.4c-0.6-0.1-1-0.5-0.9-1.1c0.1-0.5,0.5-0.9,1-0.8c0.6,0.1,1,0.5,0.9,1.1
			C41.4,68.1,41,68.3,40.5,68.4z"/>
		<path class="st184" d="M98.8,21.5c0.6,0.1,1,0.4,1,1c0,0.6-0.4,1-1,1c-0.6,0-1-0.4-1-1C97.8,21.9,98.2,21.6,98.8,21.5z"/>
		<path class="st184" d="M133,82.5c0.6,0.1,1,0.5,1,1.1c0,0.6-0.5,1-1.1,0.9c-0.5,0-0.9-0.4-0.9-1C132,82.9,132.4,82.6,133,82.5z"/>
		<path class="st184" d="M135.9,73.9c-0.1,0.6-0.5,1-1.1,1c-0.6,0-1-0.4-1-1c0-0.6,0.4-1,1-1C135.5,72.9,135.8,73.3,135.9,73.9z"/>
		<path class="st184" d="M74.6,23c-0.1,0.6-0.4,1-1,1c-0.6,0-0.9-0.3-1-0.9c-0.1-0.6,0.3-1,0.9-1.1C74.1,22,74.5,22.4,74.6,23z"/>
		<path class="st184" d="M135.1,78.7c-0.1,0.6-0.5,1-1.1,1c-0.6,0-1-0.4-1-1c0-0.6,0.4-1,1-1C134.7,77.7,135,78.1,135.1,78.7z"/>
		<path class="st184" d="M103.7,22.3c0.6,0.1,1,0.4,1,1c0,0.6-0.3,0.9-0.9,1c-0.6,0.1-1.1-0.3-1.1-0.9
			C102.6,22.8,103,22.4,103.7,22.3z"/>
		<path class="st184" d="M133.3,54.7c-0.7-0.1-1.1-0.5-1-1.1c0.1-0.6,0.5-1,1.1-0.9c0.5,0.1,0.9,0.5,0.9,1
			C134.2,54.3,133.8,54.6,133.3,54.7z"/>
		<path class="st184" d="M134.7,69.1c0.1-0.6,0.4-1,1-1c0.6,0,0.9,0.3,1,0.9c0.1,0.6-0.3,1.1-0.9,1.1
			C135.2,70.1,134.8,69.7,134.7,69.1z"/>
		<path class="st184" d="M51.7,38.9c-0.1,0.6-0.4,0.9-0.9,1c-0.6,0-1-0.3-1-0.9s0.4-1,1-1C51.3,38,51.6,38.3,51.7,38.9z"/>
		<path class="st184" d="M43,81.7c0.6,0.1,1,0.5,0.9,1.1c0,0.5-0.4,0.9-1,0.9c-0.6,0-1-0.4-0.9-1C42,82.1,42.4,81.8,43,81.7z"/>
		<path class="st184" d="M88.9,19.6c0.6,0.1,1,0.4,1,1c0,0.6-0.3,0.9-0.9,1c-0.6,0.1-1.1-0.3-1.1-0.9C87.8,20.1,88.3,19.7,88.9,19.6
			z"/>
		<path class="st184" d="M43.2,51.6c0.6,0.1,1,0.5,1,1.1c-0.1,0.5-0.4,0.9-1,0.9c-0.6,0-1-0.5-0.9-1.1C42.3,52,42.7,51.7,43.2,51.6z
			"/>
		<path class="st184" d="M137.5,64.2c-0.1,0.6-0.4,1-1,1c-0.6,0-1-0.4-0.9-1c0.1-0.6,0.4-0.9,1-0.8
			C137.1,63.3,137.4,63.7,137.5,64.2z"/>
		<path class="st184" d="M126.7,97.5c0,0.6-0.3,0.9-0.9,1c-0.6,0.1-1-0.3-1-0.9c0-0.6,0.3-0.9,0.9-1
			C126.3,96.5,126.6,96.9,126.7,97.5z"/>
		<path class="st184" d="M131.2,88.6c0.1-0.6,0.4-0.9,0.9-0.9c0.6,0,1,0.4,1,1c0,0.6-0.4,0.9-1,0.9
			C131.6,89.6,131.3,89.2,131.2,88.6z"/>
		<path class="st184" d="M41.6,63.6c-0.7-0.1-1.1-0.5-1-1.1c0.1-0.6,0.5-1,1.1-0.9c0.5,0.1,0.9,0.4,0.9,1
			C42.6,63.2,42.1,63.5,41.6,63.6z"/>
		<path class="st184" d="M117.4,29.5c0.7,0.1,1.1,0.5,1,1.1c0,0.6-0.5,1-1.1,0.9c-0.5,0-0.9-0.4-0.9-1
			C116.4,29.9,116.8,29.6,117.4,29.5z"/>
		<path class="st184" d="M42.4,56.7c0.6,0.1,1,0.5,1,1.1c0,0.6-0.5,1-1.1,0.9c-0.5,0-0.9-0.4-0.9-1C41.4,57.1,41.8,56.8,42.4,56.7z"
			/>
		<path class="st184" d="M84.1,20.8c-0.6,0-0.9-0.4-1-0.9c0-0.6,0.3-1,0.9-1c0.6,0,1,0.3,1,1C85,20.4,84.6,20.7,84.1,20.8z"/>
		<path class="st184" d="M73.8,113.1c-0.1,0.6-0.4,1-1,1c-0.5,0-0.9-0.4-0.9-1c0-0.6,0.4-1,1-1C73.4,112.2,73.7,112.6,73.8,113.1z"
			/>
		<path class="st184" d="M103.6,113.3c0,0.6-0.4,0.9-0.9,1c-0.6,0-1-0.3-1-0.9c0-0.6,0.3-0.9,0.9-1
			C103.1,112.4,103.5,112.7,103.6,113.3z"/>
		<path class="st184" d="M78.6,113.9c-0.1,0.6-0.5,1-1.1,1c-0.6-0.1-1-0.5-0.9-1.1c0.1-0.5,0.5-0.9,1-0.9
			C78.3,112.9,78.6,113.3,78.6,113.9z"/>
		<path class="st184" d="M82.4,114c0.6,0.1,0.9,0.4,1,0.9c0,0.6-0.3,1-0.9,1c-0.6,0-1-0.4-1-1C81.5,114.4,81.9,114.1,82.4,114z"/>
		<path class="st184" d="M88.3,115.8c0,0.6-0.4,0.9-0.9,1c-0.6,0-1-0.3-1-0.9c0-0.6,0.3-0.9,0.9-1C87.8,114.8,88.2,115.2,88.3,115.8
			z"/>
		<path class="st184" d="M68.6,21.1c0.6,0,0.9,0.2,1,0.8c0,0.5-0.2,0.9-0.8,0.9c-0.5,0-0.8-0.2-0.9-0.8
			C67.9,21.5,68.2,21.2,68.6,21.1z"/>
		<path class="st184" d="M54.8,104.8c0,0.5-0.3,0.8-0.9,0.8c-0.6,0-0.9-0.4-0.8-1c0-0.5,0.4-0.8,0.9-0.7
			C54.6,104,54.8,104.3,54.8,104.8z"/>
		<path class="st184" d="M108.5,23.2c0.6,0.1,0.9,0.4,0.9,1c0,0.6-0.4,0.9-1,0.8c-0.5,0-0.8-0.4-0.8-0.9
			C107.6,23.5,108,23.2,108.5,23.2z"/>
		<path class="st184" d="M137.3,58.4c0.6,0.1,0.9,0.4,0.9,1c0,0.5-0.4,0.8-0.9,0.8c-0.6,0-0.9-0.4-0.9-1
			C136.5,58.7,136.8,58.5,137.3,58.4z"/>
		<path class="st184" d="M140.6,74.6c0,0.6-0.3,0.9-0.8,0.9c-0.5,0-0.8-0.3-0.8-0.8c0-0.5,0.3-0.8,0.8-0.8
			C140.2,73.8,140.5,74.1,140.6,74.6z"/>
		<path class="st184" d="M49.9,104c-0.1,0.5-0.4,0.8-0.9,0.7c-0.4-0.1-0.7-0.4-0.7-0.8c0-0.5,0.4-0.8,0.9-0.7
			C49.7,103.2,49.9,103.5,49.9,104z"/>
		<path class="st184" d="M113.4,25.8c-0.5,0-0.9-0.2-0.9-0.8c0-0.6,0.2-0.9,0.8-0.9c0.5,0,0.8,0.3,0.8,0.8
			C114.2,25.4,113.9,25.7,113.4,25.8z"/>
		<path class="st184" d="M139.2,48.8c0.5,0.1,0.8,0.4,0.8,0.9c0,0.4-0.3,0.7-0.8,0.7c-0.5,0-0.8-0.4-0.8-0.9
			C138.4,49.1,138.7,48.9,139.2,48.8z"/>
		<path class="st184" d="M131.3,94.3c-0.6-0.1-0.9-0.4-0.8-1c0-0.5,0.4-0.8,0.9-0.8c0.6,0,0.9,0.4,0.8,1
			C132.2,94.1,131.9,94.3,131.3,94.3z"/>
		<path class="st184" d="M46.2,94.4c-0.6,0-0.9-0.3-0.9-0.9c0-0.5,0.3-0.8,0.9-0.8c0.6,0,0.9,0.3,0.9,0.9
			C47,94.1,46.7,94.3,46.2,94.4z"/>
		<path class="st184" d="M52.4,34.1c0,0.6-0.3,0.9-0.9,0.9c-0.5,0-0.8-0.3-0.8-0.8c0-0.6,0.3-0.9,0.9-0.9
			C52.1,33.2,52.4,33.5,52.4,34.1z"/>
		<path class="st184" d="M134.4,49.7c-0.6,0-0.9-0.3-0.9-0.9c0-0.5,0.3-0.8,0.8-0.8c0.6,0,0.9,0.3,0.9,0.9
			C135.2,49.4,134.9,49.7,134.4,49.7z"/>
		<path class="st184" d="M119,25.7c-0.1,0.6-0.3,0.9-0.9,0.9c-0.5,0-0.8-0.4-0.8-0.9c0-0.5,0.3-0.7,0.8-0.7
			C118.7,24.9,119,25.2,119,25.7z"/>
		<path class="st184" d="M39.2,47.8c-0.5,0-0.8-0.3-0.8-0.8c0-0.5,0.3-0.8,0.7-0.8c0.5,0,0.8,0.3,0.8,0.8
			C40,47.4,39.7,47.7,39.2,47.8z"/>
		<path class="st184" d="M135.1,44.6c-0.5-0.1-0.8-0.3-0.8-0.9s0.4-0.8,0.9-0.8c0.5,0,0.7,0.3,0.7,0.8
			C136,44.3,135.7,44.5,135.1,44.6z"/>
		<path class="st184" d="M123.9,26.8c-0.1,0.5-0.3,0.8-0.9,0.8c-0.5,0-0.7-0.3-0.7-0.8c0-0.5,0.3-0.8,0.8-0.8
			C123.6,26,123.8,26.3,123.9,26.8z"/>
		<path class="st184" d="M41.9,92.3c0,0.5-0.3,0.8-0.8,0.9c-0.5,0-0.8-0.3-0.8-0.8c0-0.5,0.3-0.8,0.7-0.8
			C41.5,91.5,41.8,91.8,41.9,92.3z"/>
		<path class="st184" d="M37.6,57.5c-0.5,0-0.9-0.3-0.9-0.8c0-0.5,0.3-0.8,0.8-0.8c0.5,0,0.8,0.3,0.8,0.7
			C38.4,57.1,38.1,57.4,37.6,57.5z"/>
		<path class="st184" d="M124.7,103.2c-0.6,0-0.9-0.4-0.9-1c0-0.5,0.4-0.8,0.9-0.8c0.6,0,0.9,0.4,0.8,0.9
			C125.5,103,125.2,103.2,124.7,103.2z"/>
		<path class="st184" d="M39.8,77c0,0.6-0.3,0.9-0.9,0.9c-0.6,0-0.9-0.4-0.9-0.9c0-0.5,0.4-0.8,0.9-0.8C39.5,76.3,39.7,76.6,39.8,77
			z"/>
		<path class="st184" d="M52.2,28.4c0.6,0,0.9,0.3,0.9,0.8c0,0.5-0.3,0.8-0.8,0.8c-0.5,0-0.7-0.3-0.8-0.7
			C51.5,28.8,51.8,28.5,52.2,28.4z"/>
		<path class="st184" d="M58.1,30c-0.1,0.6-0.4,1-1,0.9c-0.6,0-0.9-0.4-0.8-1c0-0.5,0.4-0.8,0.9-0.8C57.8,29.1,58,29.5,58.1,30z"/>
		<path class="st184" d="M122.2,30.8c0.6,0,0.9,0.3,0.9,0.9c0,0.5-0.3,0.8-0.8,0.9c-0.6,0-0.9-0.3-0.9-0.9
			C121.4,31.1,121.7,30.8,122.2,30.8z"/>
		<path class="st184" d="M127.9,32.5c-0.1,0.5-0.4,0.8-0.9,0.7c-0.5-0.1-0.8-0.4-0.7-0.9c0.1-0.5,0.4-0.7,0.8-0.7
			C127.6,31.7,127.9,32,127.9,32.5z"/>
		<path class="st184" d="M35.8,67.4c-0.6-0.1-0.9-0.3-0.9-0.9c0-0.5,0.3-0.8,0.9-0.8c0.5,0,0.7,0.3,0.7,0.8
			C36.5,67.1,36.2,67.3,35.8,67.4z"/>
		<path class="st184" d="M141.4,64.2c0.5,0.1,0.8,0.4,0.7,0.9c-0.1,0.5-0.4,0.8-0.9,0.7c-0.4-0.1-0.7-0.4-0.7-0.8
			C140.6,64.4,140.9,64.2,141.4,64.2z"/>
		<path class="st184" d="M141.3,69.8c-0.1,0.5-0.4,0.8-0.9,0.8c-0.5,0-0.8-0.4-0.8-0.9c0-0.5,0.3-0.7,0.8-0.7
			C141.1,69,141.3,69.3,141.3,69.8z"/>
		<path class="st184" d="M50.8,99.1c-0.1,0.6-0.4,0.9-0.9,0.9c-0.6,0-0.9-0.3-0.9-0.9c0-0.6,0.4-0.9,1-0.8
			C50.6,98.3,50.8,98.7,50.8,99.1z"/>
		<path class="st184" d="M129.7,98.4c0.1-0.6,0.3-0.9,0.9-0.9c0.5,0,0.8,0.3,0.8,0.8c0,0.5-0.3,0.8-0.8,0.8
			C130,99.1,129.8,98.8,129.7,98.4z"/>
		<path class="st184" d="M137,88.6c0.5,0.1,0.8,0.3,0.8,0.8c0,0.5-0.3,0.8-0.9,0.8c-0.5,0-0.7-0.3-0.7-0.8
			C136.2,89,136.5,88.7,137,88.6z"/>
		<path class="st184" d="M137.5,54.5c0.1-0.5,0.3-0.8,0.9-0.8s0.8,0.3,0.8,0.8c0,0.5-0.3,0.8-0.8,0.8
			C137.8,55.3,137.6,55,137.5,54.5z"/>
		<path class="st184" d="M44.8,43.8c-0.5,0-0.8-0.3-0.8-0.8c0-0.6,0.3-0.9,0.9-0.9c0.5,0,0.8,0.4,0.8,0.9
			C45.7,43.5,45.3,43.8,44.8,43.8z"/>
		<path class="st184" d="M131.2,42.9c-0.1,0.6-0.4,0.9-1,0.9c-0.6,0-0.9-0.4-0.9-1c0-0.5,0.4-0.8,0.9-0.8
			C130.9,42,131.2,42.4,131.2,42.9z"/>
		<path class="st184" d="M35.7,71.4c0,0.5-0.3,0.8-0.7,0.8c-0.5,0.1-0.9-0.2-0.9-0.8c0-0.5,0.3-0.8,0.8-0.8
			C35.4,70.6,35.6,71,35.7,71.4z"/>
		<path class="st184" d="M138.8,78.9c0.5,0,0.9,0.2,0.9,0.8c0,0.5-0.2,0.9-0.8,0.9c-0.5,0-0.9-0.2-0.9-0.8
			C138,79.3,138.3,79,138.8,78.9z"/>
		<path class="st184" d="M44.9,97.5c0.6,0,0.9,0.3,0.9,0.8c0,0.5-0.3,0.8-0.8,0.8c-0.5,0-0.7-0.3-0.8-0.7
			C44.2,97.9,44.6,97.6,44.9,97.5z"/>
		<path class="st184" d="M38.9,82c-0.1,0.5-0.4,0.8-0.9,0.8c-0.5,0-0.8-0.4-0.7-0.9c0-0.5,0.3-0.7,0.8-0.7
			C38.6,81.1,38.9,81.4,38.9,82z"/>
		<path class="st184" d="M123.9,108c-0.5-0.1-0.8-0.3-0.8-0.9c0-0.5,0.4-0.8,0.9-0.8c0.4,0,0.7,0.3,0.7,0.8
			C124.7,107.7,124.4,107.9,123.9,108z"/>
		<path class="st184" d="M43,87.6c0,0.5-0.3,0.8-0.9,0.8c-0.6,0-0.9-0.4-0.8-1c0-0.5,0.4-0.8,0.9-0.7C42.7,86.7,43,87.1,43,87.6z"/>
		<path class="st184" d="M85.7,14.9c-0.1,0.6-0.4,0.9-0.9,0.8c-0.5,0-0.8-0.4-0.7-0.9c0.1-0.4,0.3-0.7,0.8-0.7
			C85.4,14.2,85.6,14.5,85.7,14.9z"/>
		<path class="st184" d="M126.3,38.2c-0.6-0.1-0.9-0.4-0.9-0.9c0-0.6,0.4-0.9,1-0.9c0.5,0,0.8,0.3,0.8,0.9
			C127.2,37.8,126.9,38.1,126.3,38.2z"/>
		<path class="st184" d="M40.6,72.2c-0.1,0.6-0.4,0.9-0.9,0.9c-0.6,0-0.9-0.4-0.9-1c0-0.5,0.3-0.8,0.9-0.8
			C40.3,71.3,40.6,71.7,40.6,72.2z"/>
		<path class="st184" d="M39.2,51.8c-0.1,0.5-0.4,0.8-0.9,0.8c-0.5,0-0.8-0.4-0.8-0.9c0-0.5,0.3-0.7,0.8-0.7
			C38.9,51,39.2,51.3,39.2,51.8z"/>
		<path class="st184" d="M90,16.6c-0.5,0-0.9-0.3-0.9-0.8c0-0.5,0.3-0.8,0.8-0.8c0.5,0,0.8,0.3,0.8,0.7C90.8,16.2,90.6,16.5,90,16.6
			z"/>
		<path class="st184" d="M137.8,83.8c0.6,0.1,0.9,0.4,0.8,0.9c-0.1,0.5-0.4,0.8-0.9,0.7c-0.5-0.1-0.7-0.4-0.7-0.8
			C137,84,137.4,83.8,137.8,83.8z"/>
		<path class="st184" d="M44.1,48.7c-0.6,0-0.9-0.3-0.9-0.9c0-0.6,0.3-0.9,0.9-0.9c0.5,0,0.9,0.3,0.9,0.8
			C45,48.3,44.7,48.6,44.1,48.7z"/>
		<path class="st184" d="M36.5,62.3c-0.5,0-0.9-0.3-0.9-0.8c0-0.5,0.3-0.8,0.8-0.8c0.5,0,0.8,0.3,0.8,0.7
			C37.3,61.9,37.1,62.2,36.5,62.3z"/>
		<path class="st184" d="M114.2,110.5c-0.1,0.5-0.4,0.8-0.9,0.8c-0.6,0-0.9-0.4-0.8-1c0.1-0.5,0.4-0.8,0.9-0.7
			C114,109.6,114.2,110,114.2,110.5z"/>
		<path class="st184" d="M95.7,16.6c0,0.5-0.3,0.8-0.8,0.8c-0.5,0-0.8-0.3-0.8-0.8c0-0.5,0.3-0.8,0.8-0.8
			C95.3,15.8,95.6,16,95.7,16.6z"/>
		<path class="st184" d="M63.6,111.4c0,0.5-0.3,0.9-0.7,0.9c-0.5,0.1-0.9-0.2-0.9-0.8c0-0.5,0.3-0.8,0.8-0.8
			C63.3,110.7,63.5,111,63.6,111.4z"/>
		<path class="st184" d="M99.7,16.6c0.5,0.1,0.8,0.4,0.8,0.9c0,0.5-0.4,0.8-0.9,0.7c-0.4-0.1-0.7-0.3-0.7-0.8
			C98.9,16.9,99.2,16.6,99.7,16.6z"/>
		<path class="st184" d="M68.8,112.3c0,0.6-0.3,0.9-0.9,0.9c-0.5,0-0.8-0.3-0.8-0.9c0-0.6,0.3-0.9,0.9-0.9
			C68.5,111.4,68.8,111.8,68.8,112.3z"/>
		<path class="st184" d="M74.4,19c-0.5-0.1-0.8-0.3-0.8-0.8c0-0.5,0.3-0.8,0.9-0.8c0.5,0,0.7,0.3,0.7,0.8C75.2,18.7,74.9,19,74.4,19
			z"/>
		<path class="st184" d="M46.7,38.1c0,0.5-0.3,0.8-0.8,0.8c-0.5,0-0.8-0.3-0.8-0.8c0-0.5,0.3-0.8,0.8-0.8
			C46.4,37.3,46.7,37.6,46.7,38.1z"/>
		<path class="st184" d="M131.9,38.2c-0.1,0.5-0.4,0.8-0.9,0.8c-0.5,0-0.8-0.4-0.8-0.9c0-0.5,0.4-0.8,0.9-0.8
			C131.7,37.3,131.9,37.6,131.9,38.2z"/>
		<path class="st184" d="M119,107.3c-0.6,0-0.9-0.3-0.9-0.9c0-0.5,0.3-0.8,0.9-0.8c0.6,0,0.9,0.3,0.9,0.9
			C119.9,107,119.6,107.2,119,107.3z"/>
		<path class="st184" d="M108.5,114.2c-0.1,0.5-0.4,0.8-0.9,0.8c-0.5,0-0.8-0.4-0.7-0.9c0-0.4,0.3-0.7,0.8-0.7
			C108.2,113.4,108.5,113.7,108.5,114.2z"/>
		<path class="st184" d="M80.1,19.1c-0.1,0.6-0.4,0.9-1,0.8c-0.5,0-0.8-0.4-0.8-0.9c0-0.6,0.4-0.9,1-0.8
			C79.9,18.2,80.1,18.5,80.1,19.1z"/>
		<path class="st184" d="M62.9,25.1c0.5,0.1,0.8,0.3,0.8,0.9c0,0.6-0.3,0.9-0.9,0.9c-0.6,0-0.9-0.4-0.8-1
			C62,25.4,62.4,25.1,62.9,25.1z"/>
		<path class="st184" d="M93,116.5c0,0.6-0.3,0.9-0.9,1c-0.5,0-0.9-0.3-0.9-0.8c0-0.6,0.3-1,0.8-1C92.7,115.7,93,116,93,116.5z"/>
		<path class="st184" d="M97.8,117.3c0,0.6-0.3,0.9-0.8,0.9c-0.6,0-0.9-0.3-0.9-0.9c0-0.5,0.4-0.8,0.9-0.8
			C97.6,116.6,97.8,116.9,97.8,117.3z"/>
		<path class="st184" d="M102.6,118.1c-0.1,0.6-0.3,0.9-0.9,0.9c-0.5,0-0.7-0.3-0.7-0.8c0-0.5,0.3-0.8,0.8-0.8
			C102.3,117.4,102.5,117.8,102.6,118.1z"/>
		<path class="st184" d="M76.8,119.6c-0.5-0.1-0.8-0.3-0.8-0.9c0-0.5,0.4-0.8,0.9-0.8c0.5,0,0.7,0.3,0.7,0.8
			C77.6,119.3,77.3,119.5,76.8,119.6z"/>
		<path class="st184" d="M82.5,119.8c-0.1,0.5-0.4,0.8-0.9,0.8c-0.5,0-0.8-0.4-0.8-0.9c0-0.5,0.3-0.7,0.8-0.7
			C82.2,119,82.4,119.3,82.5,119.8z"/>
		<path class="st184" d="M87.3,120.6c-0.1,0.6-0.4,0.9-0.9,0.8c-0.5-0.1-0.8-0.4-0.7-0.9c0.1-0.4,0.4-0.7,0.8-0.7
			C87,119.8,87.3,120.2,87.3,120.6z"/>
		<path class="st184" d="M92.2,121.4c-0.1,0.6-0.4,0.9-0.9,0.8c-0.4-0.1-0.7-0.4-0.7-0.8c0-0.5,0.4-0.8,0.9-0.8
			C91.9,120.7,92.1,121,92.2,121.4z"/>
		<path class="st184" d="M140,44.1c0.4,0.1,0.7,0.4,0.7,0.8c-0.1,0.4-0.4,0.7-0.8,0.6c-0.4-0.1-0.7-0.4-0.7-0.8
			C139.3,44.3,139.6,44.1,140,44.1z"/>
		<path class="st184" d="M40,41.4c0.4,0.1,0.8,0.3,0.8,0.7c0,0.5-0.3,0.8-0.7,0.8c-0.5,0-0.8-0.3-0.8-0.7
			C39.2,41.7,39.5,41.5,40,41.4z"/>
		<path class="st184" d="M36.2,92.3c-0.4,0-0.7-0.3-0.7-0.7c0-0.4,0.2-0.7,0.6-0.8c0.5-0.1,0.8,0.2,0.8,0.7
			C36.9,92,36.6,92.2,36.2,92.3z"/>
		<path class="st184" d="M136,38.1c0.4,0.1,0.8,0.3,0.7,0.8c0,0.4-0.4,0.7-0.8,0.7c-0.4,0-0.7-0.3-0.7-0.7
			C135.2,38.5,135.5,38.2,136,38.1z"/>
		<path class="st184" d="M136.2,93.5c0.4,0.1,0.8,0.3,0.8,0.7c0,0.5-0.3,0.8-0.8,0.8c-0.4,0-0.7-0.3-0.7-0.8
			C135.5,93.8,135.8,93.6,136.2,93.5z"/>
		<path class="st184" d="M41.5,37.2c0,0.4-0.3,0.7-0.6,0.8c-0.5,0.1-0.8-0.2-0.8-0.7c-0.1-0.4,0.2-0.7,0.6-0.8
			C41.1,36.5,41.4,36.8,41.5,37.2z"/>
		<path class="st184" d="M40.2,96.8c0.4,0,0.7,0.3,0.8,0.6c0.1,0.5-0.2,0.8-0.7,0.8c-0.4,0-0.7-0.2-0.8-0.6
			C39.5,97.1,39.8,96.9,40.2,96.8z"/>
		<path class="st184" d="M136.2,99.1c-0.1,0.4-0.4,0.7-0.8,0.7c-0.4,0-0.7-0.3-0.6-0.7c0-0.5,0.3-0.8,0.8-0.7
			C135.9,98.4,136.1,98.7,136.2,99.1z"/>
		<path class="st184" d="M45,103.1c0,0.4-0.3,0.7-0.6,0.8c-0.5,0.1-0.8-0.2-0.8-0.7c-0.1-0.4,0.2-0.7,0.6-0.8
			C44.6,102.4,44.9,102.7,45,103.1z"/>
		<path class="st184" d="M129.8,103.9c-0.5,0-0.8-0.3-0.8-0.7c-0.1-0.5,0.3-0.9,0.8-0.9c0.4,0,0.7,0.3,0.8,0.7
			C130.6,103.6,130.3,103.8,129.8,103.9z"/>
		<path class="st184" d="M131.9,32.5c0.5,0.1,0.8,0.4,0.8,0.8c0,0.4-0.4,0.7-0.8,0.7c-0.4,0-0.7-0.3-0.7-0.7
			C131.2,32.8,131.5,32.6,131.9,32.5z"/>
		<path class="st184" d="M46.7,32.5c0.4,0.1,0.8,0.3,0.8,0.7c0,0.5-0.3,0.8-0.8,0.8c-0.4,0-0.7-0.3-0.7-0.8
			C45.9,32.8,46.3,32.5,46.7,32.5z"/>
		<path class="st184" d="M128.7,108.7c-0.4-0.1-0.7-0.3-0.7-0.8c0-0.4,0.3-0.7,0.7-0.6c0.5,0,0.8,0.3,0.7,0.8
			C129.4,108.4,129.1,108.7,128.7,108.7z"/>
		<path class="st184" d="M86,9.4c0.4,0.1,0.7,0.3,0.7,0.7c0,0.5-0.3,0.8-0.8,0.7c-0.4,0-0.7-0.3-0.6-0.7C85.3,9.7,85.6,9.5,86,9.4z"
			/>
		<path class="st184" d="M90.7,11.7c-0.4-0.1-0.7-0.4-0.7-0.9c0.1-0.4,0.4-0.7,0.8-0.6c0.4,0.1,0.7,0.4,0.7,0.8
			C91.4,11.4,91.1,11.7,90.7,11.7z"/>
		<path class="st184" d="M58.7,110.7c-0.1,0.4-0.3,0.7-0.7,0.7c-0.4,0-0.7-0.2-0.7-0.6c0-0.5,0.3-0.8,0.7-0.8
			C58.4,110,58.6,110.3,58.7,110.7z"/>
		<path class="st184" d="M80.8,14.2c-0.1,0.4-0.3,0.8-0.7,0.8c-0.5,0-0.8-0.3-0.8-0.8c0-0.4,0.3-0.7,0.8-0.7
			C80.5,13.4,80.7,13.7,80.8,14.2z"/>
		<path class="st184" d="M58.7,25.2c-0.1,0.4-0.4,0.8-0.8,0.7c-0.4-0.1-0.7-0.3-0.6-0.8c0-0.4,0.4-0.7,0.8-0.7
			C58.5,24.5,58.7,24.8,58.7,25.2z"/>
		<path class="st184" d="M128.6,27.6c-0.1,0.4-0.4,0.7-0.8,0.7c-0.4,0-0.7-0.3-0.6-0.7c0-0.5,0.3-0.8,0.8-0.7
			C128.3,26.9,128.6,27.2,128.6,27.6z"/>
		<path class="st184" d="M48.2,28.4c0,0.4-0.3,0.7-0.6,0.7c-0.5,0.1-0.8-0.2-0.8-0.7c0-0.4,0.2-0.7,0.6-0.8
			C47.9,27.6,48.1,27.9,48.2,28.4z"/>
		<path class="st184" d="M146.1,66.5c-0.4-0.1-0.7-0.3-0.7-0.7c0-0.5,0.3-0.8,0.8-0.7c0.4,0.1,0.7,0.4,0.6,0.8
			C146.8,66.2,146.5,66.5,146.1,66.5z"/>
		<path class="st184" d="M30.9,64.8c0.4,0.1,0.7,0.3,0.7,0.7c0,0.5-0.3,0.8-0.8,0.7c-0.4,0-0.7-0.3-0.6-0.7
			C30.2,65.1,30.4,64.9,30.9,64.8z"/>
		<path class="st184" d="M31.6,61.4c-0.4-0.1-0.7-0.3-0.7-0.7c0-0.5,0.3-0.7,0.8-0.7c0.4,0.1,0.6,0.4,0.6,0.8
			C32.3,61.1,32,61.4,31.6,61.4z"/>
		<path class="st184" d="M142.2,59.3c0.4,0.1,0.7,0.3,0.7,0.8c0,0.5-0.3,0.8-0.7,0.8c-0.5,0-0.8-0.3-0.8-0.8
			C141.4,59.6,141.7,59.4,142.2,59.3z"/>
		<path class="st184" d="M144.5,76.5c-0.4-0.1-0.8-0.4-0.7-0.8c0.1-0.4,0.3-0.7,0.7-0.6c0.4,0,0.7,0.4,0.7,0.8
			C145.2,76.2,144.9,76.4,144.5,76.5z"/>
		<path class="st184" d="M34.8,76.2c-0.1,0.4-0.3,0.8-0.7,0.8c-0.5,0-0.8-0.3-0.8-0.7c0-0.5,0.3-0.8,0.7-0.8
			C34.5,75.5,34.7,75.8,34.8,76.2z"/>
		<path class="st184" d="M33.5,55.8c0,0.4-0.3,0.7-0.6,0.8c-0.5,0.1-0.8-0.2-0.8-0.7c0-0.4,0.3-0.7,0.6-0.7
			C33.1,55.1,33.3,55.4,33.5,55.8z"/>
		<path class="st184" d="M143.2,56.1c-0.5-0.1-0.8-0.4-0.8-0.8c0.1-0.4,0.4-0.7,0.8-0.7c0.4,0.1,0.7,0.3,0.6,0.7
			C143.9,55.8,143.6,56,143.2,56.1z"/>
		<path class="st184" d="M143.7,79.8c0.4,0,0.7,0.2,0.8,0.6c0.1,0.5-0.2,0.8-0.6,0.8c-0.4,0.1-0.7-0.2-0.8-0.6
			C143,80.2,143.3,80,143.7,79.8z"/>
		<path class="st184" d="M72.4,117.9c-0.1,0.4-0.3,0.7-0.7,0.7c-0.5,0-0.8-0.3-0.7-0.8c0-0.4,0.3-0.7,0.7-0.6
			C72.1,117.3,72.4,117.5,72.4,117.9z"/>
		<path class="st184" d="M33.2,81.8c-0.4-0.1-0.7-0.3-0.7-0.8c0-0.4,0.3-0.7,0.7-0.6c0.5,0,0.8,0.3,0.7,0.8
			C33.9,81.6,33.7,81.8,33.2,81.8z"/>
		<path class="st184" d="M34.3,51c0,0.4-0.2,0.7-0.6,0.7c-0.4,0.1-0.7-0.2-0.8-0.6c-0.1-0.5,0.2-0.8,0.7-0.8
			C33.9,50.3,34.1,50.6,34.3,51z"/>
		<path class="st184" d="M146.1,70.8c-0.1,0.5-0.3,0.7-0.7,0.8c-0.5,0-0.8-0.3-0.8-0.7c0-0.4,0.3-0.7,0.6-0.7
			C145.8,70.1,146,70.5,146.1,70.8z"/>
		<path class="st184" d="M142.9,84.7c0.4,0,0.7,0.2,0.7,0.6c0.1,0.4-0.2,0.7-0.6,0.8c-0.5,0.1-0.8-0.2-0.8-0.7
			C142.2,85,142.5,84.8,142.9,84.7z"/>
		<path class="st184" d="M38.1,86.7c0,0.4-0.3,0.8-0.7,0.8c-0.5,0-0.8-0.3-0.8-0.8c0-0.4,0.3-0.7,0.8-0.7C37.8,86,38,86.3,38.1,86.7
			z"/>
		<path class="st184" d="M96.3,123c-0.5-0.1-0.8-0.3-0.8-0.8c0-0.5,0.3-0.8,0.7-0.8c0.5,0,0.8,0.3,0.8,0.7
			C97,122.7,96.6,122.9,96.3,123z"/>
		<path class="st184" d="M86.4,125.5c-0.1,0.4-0.3,0.7-0.7,0.7c-0.4,0-0.7-0.2-0.7-0.6c0-0.5,0.3-0.8,0.7-0.8
			C86.1,124.8,86.3,125.1,86.4,125.5z"/>
		<path class="st184" d="M36.5,36.5c0,0.4-0.3,0.5-0.6,0.5c-0.4,0-0.5-0.3-0.5-0.6c0-0.4,0.3-0.5,0.6-0.5
			C36.4,35.9,36.5,36.2,36.5,36.5z"/>
		<path class="st184" d="M141.5,35.4c-0.4-0.1-0.5-0.3-0.5-0.7c0.1-0.4,0.3-0.5,0.7-0.4c0.3,0.1,0.4,0.3,0.4,0.6
			C142.1,35.3,141.9,35.4,141.5,35.4z"/>
		<path class="st184" d="M137.4,34.1c0,0.4-0.3,0.6-0.7,0.6c-0.4,0-0.5-0.3-0.5-0.6c0-0.4,0.3-0.6,0.7-0.6
			C137.2,33.5,137.4,33.8,137.4,34.1z"/>
		<path class="st184" d="M140.8,40.6c-0.4,0-0.6-0.3-0.6-0.7c0-0.4,0.3-0.5,0.6-0.5c0.4,0,0.6,0.3,0.6,0.7
			C141.4,40.4,141.1,40.6,140.8,40.6z"/>
		<path class="st184" d="M132.6,27.8c0.4,0,0.7,0.2,0.7,0.5c0,0.4-0.1,0.7-0.6,0.7c-0.4,0-0.6-0.2-0.6-0.5
			C132.1,28.1,132.3,27.9,132.6,27.8z"/>
		<path class="st184" d="M28.6,75.5c0-0.4,0.2-0.6,0.5-0.6c0.4,0,0.6,0.1,0.6,0.5c0,0.4-0.1,0.7-0.6,0.7
			C28.9,76,28.7,75.8,28.6,75.5z"/>
		<path class="st184" d="M80.5,9.4c0-0.5,0.2-0.7,0.6-0.6c0.4,0,0.6,0.2,0.6,0.6c0,0.4-0.2,0.6-0.6,0.6C80.7,9.9,80.6,9.7,80.5,9.4z
			"/>
		<path class="st184" d="M40,102.4c0,0.4-0.2,0.6-0.6,0.6c-0.4,0-0.6-0.3-0.6-0.7c0-0.4,0.3-0.5,0.6-0.5C39.9,101.8,40,102,40,102.4
			z"/>
		<path class="st184" d="M44,108c0,0.4-0.3,0.6-0.6,0.5c-0.4,0-0.5-0.3-0.5-0.6c0-0.3,0.2-0.5,0.5-0.5C43.8,107.4,44,107.6,44,108z"
			/>
		<path class="st184" d="M32.8,85.8c0,0.4-0.2,0.7-0.5,0.7c-0.4,0-0.7-0.2-0.7-0.6c0-0.4,0.2-0.6,0.5-0.6
			C32.5,85.3,32.8,85.5,32.8,85.8z"/>
		<path class="st184" d="M145.4,45.7c0,0.4-0.3,0.5-0.6,0.5c-0.4,0-0.5-0.3-0.5-0.6c0-0.4,0.3-0.5,0.6-0.5
			C145.2,45.1,145.4,45.3,145.4,45.7z"/>
		<path class="st184" d="M104.4,17.9c0.4,0,0.7,0.2,0.7,0.5c0,0.4-0.1,0.7-0.6,0.7c-0.4,0-0.6-0.2-0.6-0.5
			C103.9,18.2,104.1,17.9,104.4,17.9z"/>
		<path class="st184" d="M96.3,11.8c-0.1,0.4-0.3,0.6-0.7,0.6c-0.4-0.1-0.6-0.4-0.5-0.8c0.1-0.3,0.3-0.5,0.7-0.5
			C96.1,11.1,96.3,11.4,96.3,11.8z"/>
		<path class="st184" d="M30.7,70.3C30.6,70.8,30.4,71,30,71c-0.4,0-0.6-0.3-0.6-0.7c0-0.3,0.3-0.5,0.6-0.6
			C30.4,69.7,30.6,70,30.7,70.3z"/>
		<path class="st184" d="M26.3,59.8c0.1-0.4,0.3-0.5,0.6-0.5c0.4,0,0.5,0.3,0.5,0.7c-0.1,0.3-0.3,0.5-0.6,0.4
			C26.4,60.4,26.3,60.2,26.3,59.8z"/>
		<path class="st184" d="M31.4,91.4c-0.4-0.1-0.6-0.3-0.6-0.6c0-0.4,0.3-0.5,0.6-0.5c0.4,0,0.5,0.3,0.5,0.6
			C31.9,91.2,31.7,91.4,31.4,91.4z"/>
		<path class="st184" d="M151.1,67.4c-0.4,0-0.6-0.2-0.6-0.6c0-0.4,0.2-0.6,0.6-0.5c0.3,0,0.5,0.2,0.5,0.5
			C151.6,67.2,151.4,67.4,151.1,67.4z"/>
		<path class="st184" d="M141,95.7c-0.4,0-0.6-0.3-0.6-0.7c0-0.4,0.3-0.5,0.6-0.5c0.4,0,0.6,0.3,0.6,0.7
			C141.6,95.6,141.4,95.7,141,95.7z"/>
		<path class="st184" d="M26,64.1c0.4,0,0.6,0.2,0.6,0.6c0,0.4-0.3,0.5-0.6,0.5c-0.3,0-0.5-0.2-0.5-0.5C25.4,64.4,25.6,64.2,26,64.1
			z"/>
		<path class="st184" d="M148.3,86.2c0,0.4-0.3,0.6-0.6,0.5c-0.4,0-0.5-0.3-0.5-0.6c0-0.3,0.2-0.5,0.5-0.5
			C148.1,85.7,148.3,85.9,148.3,86.2z"/>
		<path class="st184" d="M146.6,61c0-0.4,0.1-0.6,0.5-0.7c0.4-0.1,0.7,0.1,0.7,0.5c0,0.3-0.1,0.6-0.5,0.7
			C147,61.6,146.7,61.4,146.6,61z"/>
		<path class="st184" d="M42.7,28.2c-0.4,0-0.6-0.2-0.6-0.6c0-0.4,0.3-0.5,0.6-0.5c0.3,0,0.5,0.2,0.5,0.5C43.2,28,43,28.1,42.7,28.2
			z"/>
		<path class="st184" d="M150.2,71.1c0.4,0,0.6,0.2,0.6,0.6c0,0.4-0.2,0.6-0.6,0.6c-0.3,0-0.5-0.2-0.5-0.5
			C149.6,71.4,149.8,71.2,150.2,71.1z"/>
		<path class="st184" d="M36,96.4c0,0.4-0.2,0.6-0.6,0.6c-0.4,0-0.6-0.3-0.6-0.7c0-0.4,0.3-0.5,0.6-0.5C35.8,95.9,36,96.1,36,96.4z"
			/>
		<path class="st184" d="M137.5,28.7c0.4,0,0.6,0.2,0.6,0.6c0,0.4-0.3,0.5-0.6,0.5c-0.3,0-0.5-0.2-0.5-0.5
			C137,28.9,137.2,28.7,137.5,28.7z"/>
		<path class="st184" d="M42.5,32.4c-0.1,0.5-0.3,0.7-0.7,0.7c-0.4,0-0.6-0.3-0.6-0.7c0-0.3,0.3-0.5,0.6-0.5
			C42.3,31.8,42.4,32.1,42.5,32.4z"/>
		<path class="st184" d="M140.2,99.4c0.4,0,0.6,0.2,0.6,0.6c0,0.4-0.2,0.6-0.6,0.6s-0.6-0.2-0.6-0.5
			C139.7,99.6,139.9,99.4,140.2,99.4z"/>
		<path class="st184" d="M135.3,103.9c-0.1,0.5-0.3,0.7-0.7,0.7c-0.4,0-0.6-0.3-0.6-0.7c0-0.3,0.3-0.5,0.6-0.5
			C135.1,103.3,135.2,103.6,135.3,103.9z"/>
		<path class="st184" d="M48.3,109.4c-0.4,0-0.6-0.2-0.6-0.6c0-0.4,0.2-0.6,0.5-0.6s0.6,0.2,0.6,0.6
			C48.9,109.1,48.7,109.3,48.3,109.4z"/>
		<path class="st184" d="M87.3,5.3c-0.1,0.4-0.3,0.6-0.7,0.6c-0.4-0.1-0.5-0.3-0.5-0.7c0.1-0.3,0.3-0.4,0.6-0.4
			C87.2,4.8,87.3,5,87.3,5.3z"/>
		<path class="st184" d="M134.1,108.7c0,0.4-0.2,0.6-0.5,0.6c-0.4,0-0.6-0.1-0.6-0.5c0-0.4,0.1-0.6,0.5-0.6
			C133.8,108.2,134.1,108.4,134.1,108.7z"/>
		<path class="st184" d="M29.3,50.2c-0.1,0.4-0.3,0.6-0.6,0.5c-0.4,0-0.5-0.3-0.5-0.7c0-0.3,0.3-0.5,0.6-0.4
			C29.1,49.7,29.2,49.9,29.3,50.2z"/>
		<path class="st184" d="M53.1,109c0.4,0,0.6,0.1,0.7,0.5c0.1,0.4-0.1,0.7-0.5,0.7c-0.3,0-0.6-0.1-0.7-0.5
			C52.5,109.3,52.7,109.1,53.1,109z"/>
		<path class="st184" d="M149.2,81.4c-0.1,0.4-0.3,0.6-0.7,0.6c-0.4-0.1-0.5-0.3-0.5-0.7c0.1-0.3,0.3-0.4,0.6-0.4
			C149,80.8,149.1,81.1,149.2,81.4z"/>
		<path class="st184" d="M144.7,50.5c-0.1,0.4-0.3,0.6-0.7,0.6c-0.4,0-0.6-0.3-0.6-0.7c0-0.3,0.3-0.5,0.6-0.5
			C144.4,49.8,144.6,50.1,144.7,50.5z"/>
		<path class="st184" d="M148.8,51.8c-0.4-0.1-0.5-0.3-0.5-0.7c0.1-0.4,0.3-0.5,0.7-0.4c0.3,0.1,0.4,0.3,0.4,0.6
			C149.4,51.7,149.2,51.8,148.8,51.8z"/>
		<path class="st184" d="M29,80.3c0,0.4-0.2,0.6-0.6,0.6c-0.4,0-0.6-0.2-0.6-0.6c0-0.4,0.2-0.6,0.5-0.6C28.8,79.7,29,79.9,29,80.3z"
			/>
		<path class="st184" d="M118.3,111.9c-0.5-0.1-0.7-0.3-0.7-0.7c0-0.4,0.3-0.6,0.7-0.6c0.3,0,0.5,0.3,0.5,0.6
			C118.9,111.6,118.6,111.8,118.3,111.9z"/>
		<path class="st184" d="M35,46.2c-0.1,0.4-0.3,0.6-0.7,0.6c-0.4,0-0.6-0.3-0.6-0.7c0-0.3,0.3-0.5,0.6-0.5
			C34.8,45.5,35,45.8,35,46.2z"/>
		<path class="st184" d="M28.2,55c0,0.4-0.2,0.6-0.6,0.6c-0.4,0-0.5-0.3-0.5-0.6c0-0.3,0.2-0.5,0.5-0.5C28,54.5,28.1,54.7,28.2,55z"
			/>
		<path class="st184" d="M142.5,90.3c-0.1,0.4-0.3,0.6-0.7,0.6c-0.4-0.1-0.6-0.4-0.5-0.8c0.1-0.3,0.3-0.5,0.7-0.5
			C142.3,89.6,142.5,89.9,142.5,90.3z"/>
		<path class="st184" d="M35.8,41.3c0,0.4-0.2,0.6-0.5,0.6c-0.4,0-0.7-0.1-0.7-0.6c0-0.4,0.2-0.6,0.5-0.6
			C35.5,40.7,35.7,40.9,35.8,41.3z"/>
		<path class="st184" d="M147.3,91c-0.1,0.4-0.3,0.6-0.7,0.6c-0.4-0.1-0.5-0.3-0.5-0.7c0.1-0.3,0.3-0.4,0.6-0.4
			C147.1,90.5,147.2,90.8,147.3,91z"/>
		<path class="st184" d="M147.5,56.1c0-0.4,0.2-0.6,0.6-0.6c0.4,0,0.6,0.2,0.6,0.6c0,0.4-0.2,0.6-0.6,0.5
			C147.7,56.7,147.5,56.5,147.5,56.1z"/>
		<path class="st184" d="M81.2,124.7c-0.1,0.4-0.3,0.7-0.7,0.6c-0.4,0-0.6-0.3-0.6-0.7c0-0.3,0.3-0.6,0.6-0.5
			C81,124,81.2,124.3,81.2,124.7z"/>
		<path class="st184" d="M150,76.5c0,0.5-0.2,0.7-0.6,0.6c-0.4,0-0.6-0.2-0.6-0.6c0-0.4,0.2-0.6,0.6-0.6
			C149.8,76,149.9,76.2,150,76.5z"/>
		<path class="st184" d="M91.2,126.2c-0.1,0.5-0.3,0.7-0.7,0.7c-0.4,0-0.6-0.3-0.6-0.7c0-0.3,0.3-0.5,0.6-0.6
			C90.9,125.6,91.1,125.9,91.2,126.2z"/>
		<path class="st184" d="M95.9,127.1c0,0.4-0.3,0.6-0.6,0.5c-0.4,0-0.5-0.3-0.5-0.6c0-0.3,0.2-0.5,0.5-0.5
			C95.7,126.5,95.9,126.7,95.9,127.1z"/>
		<path class="st184" d="M20.4,68.3c0.3,0.1,0.5,0.3,0.4,0.6c-0.1,0.2-0.2,0.4-0.5,0.3c-0.3-0.1-0.5-0.3-0.4-0.6
			C20,68.4,20.2,68.3,20.4,68.3z"/>
		<path class="st184" d="M37,31.1c0.3,0,0.5,0.2,0.5,0.5c0,0.4-0.2,0.6-0.6,0.6c-0.3,0-0.5-0.2-0.5-0.5C36.5,31.3,36.7,31.2,37,31.1
			z"/>
		<path class="st184" d="M29.7,100c0.3,0,0.5,0.2,0.5,0.5c0,0.3-0.2,0.4-0.4,0.5c-0.3,0.1-0.5-0.1-0.6-0.4
			C29.2,100.2,29.5,100.1,29.7,100z"/>
		<path class="st184" d="M145.6,100.7c0,0.3-0.2,0.5-0.5,0.5c-0.3,0-0.5-0.2-0.5-0.5c0-0.3,0.2-0.5,0.5-0.5
			C145.4,100.2,145.5,100.4,145.6,100.7z"/>
		<path class="st184" d="M32.4,30.6c-0.1,0.3-0.2,0.5-0.5,0.5c-0.2,0-0.4-0.2-0.4-0.4c0-0.3,0.2-0.5,0.4-0.5
			C32.2,30.1,32.3,30.3,32.4,30.6z"/>
		<path class="st184" d="M142.6,30.5c-0.3-0.1-0.5-0.2-0.5-0.5c0-0.3,0.2-0.5,0.5-0.5c0.3,0,0.5,0.2,0.5,0.5
			C143.1,30.4,142.9,30.5,142.6,30.5z"/>
		<path class="st184" d="M156.6,67.6c0,0.4-0.2,0.5-0.5,0.6c-0.3,0-0.4-0.2-0.5-0.4c-0.1-0.3,0.1-0.5,0.4-0.6
			C156.3,67.1,156.5,67.4,156.6,67.6z"/>
		<path class="st184" d="M149.7,45.9c0.3,0.1,0.5,0.2,0.5,0.6c0,0.4-0.3,0.6-0.6,0.5c-0.3-0.1-0.5-0.3-0.4-0.6
			C149.2,46.1,149.4,45.9,149.7,45.9z"/>
		<path class="st184" d="M38.3,26.5c0,0.3-0.2,0.5-0.5,0.5c-0.3,0-0.4-0.2-0.5-0.4c-0.1-0.3,0.1-0.5,0.4-0.6
			C38,26,38.2,26.2,38.3,26.5z"/>
		<path class="st184" d="M23,84.3c-0.1,0.3-0.2,0.5-0.5,0.5c-0.2,0-0.4-0.2-0.5-0.4c-0.1-0.3,0.2-0.5,0.4-0.6
			C22.8,83.8,22.9,84,23,84.3z"/>
		<path class="st184" d="M143.5,24.7c0.3,0,0.4,0.2,0.5,0.4c0.1,0.3-0.1,0.5-0.4,0.5c-0.3,0-0.4-0.2-0.5-0.4
			C143,25,143.2,24.8,143.5,24.7z"/>
		<path class="st184" d="M139.2,24.4c-0.1,0.3-0.2,0.5-0.5,0.5c-0.3,0-0.5-0.2-0.5-0.5c0-0.3,0.2-0.5,0.5-0.5
			C139,23.9,139.1,24.1,139.2,24.4z"/>
		<path class="st184" d="M53.7,24.3c0,0.3-0.2,0.5-0.4,0.6c-0.4,0.1-0.6-0.1-0.6-0.5c0-0.3,0.2-0.5,0.5-0.5
			C53.4,23.8,53.6,24.1,53.7,24.3z"/>
		<path class="st184" d="M19.5,73.1c0.3,0,0.5,0.2,0.5,0.4c0.1,0.3-0.1,0.5-0.4,0.5c-0.3,0-0.4-0.2-0.5-0.4
			C19,73.4,19.3,73.2,19.5,73.1z"/>
		<path class="st184" d="M133.8,24.1c-0.3,0-0.5-0.2-0.5-0.5c0-0.4,0.3-0.6,0.6-0.5c0.3,0,0.5,0.3,0.4,0.6
			C134.3,23.9,134.1,24.1,133.8,24.1z"/>
		<path class="st184" d="M128.7,23.3c-0.3,0-0.5-0.2-0.5-0.5c0-0.4,0.3-0.6,0.6-0.5c0.3,0,0.5,0.3,0.4,0.6
			C129.2,23.1,129,23.3,128.7,23.3z"/>
		<path class="st184" d="M139.6,105.3c-0.4,0-0.6-0.2-0.6-0.5c0-0.4,0.2-0.6,0.5-0.6c0.3,0,0.5,0.2,0.5,0.5
			C140,105.1,139.8,105.2,139.6,105.3z"/>
		<path class="st184" d="M124.4,21.7c-0.1,0.3-0.3,0.6-0.6,0.5c-0.3-0.1-0.5-0.3-0.4-0.6c0.1-0.2,0.2-0.4,0.5-0.4
			C124.2,21.2,124.3,21.5,124.4,21.7z"/>
		<path class="st184" d="M153.5,82.7c-0.4-0.1-0.6-0.2-0.6-0.5c0-0.2,0.2-0.4,0.4-0.4c0.3,0,0.5,0.2,0.5,0.4
			C154,82.5,153.7,82.6,153.5,82.7z"/>
		<path class="st184" d="M144.2,105.1c0.3,0,0.5,0.2,0.6,0.5c0,0.3-0.2,0.4-0.4,0.5c-0.3,0.1-0.5-0.1-0.6-0.4
			C143.7,105.4,144,105.2,144.2,105.1z"/>
		<path class="st184" d="M64.4,21.2c0,0.3-0.2,0.5-0.5,0.5c-0.4,0-0.6-0.2-0.6-0.6c0-0.3,0.2-0.5,0.5-0.5
			C64.2,20.7,64.4,20.8,64.4,21.2z"/>
		<path class="st184" d="M109.3,19.8c-0.3-0.1-0.5-0.3-0.4-0.6c0.1-0.3,0.3-0.5,0.6-0.4c0.2,0.1,0.4,0.2,0.4,0.5
			C109.8,19.6,109.6,19.8,109.3,19.8z"/>
		<path class="st184" d="M33.8,106.9c-0.3-0.1-0.5-0.2-0.5-0.5c0-0.2,0.2-0.4,0.4-0.5c0.3-0.1,0.5,0.2,0.6,0.4
			C34.3,106.6,34.1,106.8,33.8,106.9z"/>
		<path class="st184" d="M70,17.1c-0.1,0.3-0.2,0.5-0.5,0.5c-0.3,0-0.5-0.3-0.4-0.6c0-0.2,0.2-0.4,0.5-0.4
			C69.8,16.6,70,16.9,70,17.1z"/>
		<path class="st184" d="M75.3,12.6c0.3,0.1,0.5,0.2,0.5,0.5c0,0.4-0.3,0.6-0.6,0.5c-0.3-0.1-0.5-0.3-0.4-0.6
			C74.7,12.7,74.9,12.6,75.3,12.6z"/>
		<path class="st184" d="M38.7,106.7c0.3,0.1,0.5,0.2,0.5,0.5c0,0.3-0.2,0.5-0.5,0.5c-0.4,0-0.6-0.2-0.5-0.6
			C38.2,106.8,38.4,106.7,38.7,106.7z"/>
		<path class="st184" d="M100.9,12.6c-0.1,0.3-0.3,0.5-0.6,0.4c-0.2-0.1-0.4-0.2-0.3-0.5c0.1-0.3,0.3-0.5,0.6-0.4
			C100.8,12.2,100.9,12.4,100.9,12.6z"/>
		<path class="st184" d="M25.2,44.6c-0.1,0.3-0.3,0.5-0.6,0.4c-0.3-0.1-0.5-0.3-0.4-0.6c0.1-0.2,0.2-0.4,0.5-0.4
			C25,44.1,25.1,44.3,25.2,44.6z"/>
		<path class="st184" d="M152.6,86.5c0.3,0,0.5,0.2,0.5,0.5c0,0.3-0.2,0.4-0.4,0.5c-0.3,0.1-0.5-0.1-0.6-0.4
			C152.1,86.8,152.3,86.6,152.6,86.5z"/>
		<path class="st184" d="M91.7,5.6c0.3,0.1,0.5,0.2,0.5,0.6c0,0.4-0.3,0.6-0.6,0.5C91.2,6.6,91,6.3,91.1,6
			C91.1,5.7,91.3,5.6,91.7,5.6z"/>
		<path class="st184" d="M151.8,92.4c-0.3-0.1-0.5-0.3-0.4-0.6c0.1-0.3,0.3-0.5,0.6-0.4c0.2,0.1,0.4,0.2,0.4,0.5
			C152.3,92.2,152.1,92.3,151.8,92.4z"/>
		<path class="st184" d="M153,57.4c-0.4,0-0.6-0.2-0.6-0.5c0-0.3,0.2-0.5,0.5-0.5c0.3,0,0.5,0.2,0.5,0.5
			C153.4,57.2,153.2,57.3,153,57.4z"/>
		<path class="st184" d="M30.3,40c0.4,0.1,0.6,0.2,0.5,0.5c0,0.4-0.3,0.6-0.6,0.5c-0.3,0-0.5-0.3-0.4-0.6C29.8,40.2,30.1,40,30.3,40
			z"/>
		<path class="st184" d="M25.4,39c0.3,0,0.4,0.2,0.5,0.4c0.1,0.3-0.1,0.5-0.4,0.6c-0.3,0.1-0.4-0.2-0.5-0.4
			C24.9,39.2,25.2,39.1,25.4,39z"/>
		<path class="st184" d="M22,59.6c-0.3-0.1-0.5-0.2-0.5-0.5c0-0.2,0.2-0.4,0.4-0.4c0.3,0,0.5,0.2,0.5,0.4
			C22.5,59.3,22.3,59.5,22,59.6z"/>
		<path class="st184" d="M138.7,110.1c-0.4-0.1-0.6-0.3-0.5-0.6c0-0.3,0.2-0.5,0.5-0.5c0.3,0,0.5,0.2,0.5,0.5
			C139.1,109.9,138.9,110,138.7,110.1z"/>
		<path class="st184" d="M24.4,73.9c0.3,0.1,0.5,0.2,0.5,0.5c0,0.4-0.3,0.6-0.6,0.5c-0.3,0-0.5-0.3-0.4-0.6
			C23.9,74,24.1,73.9,24.4,73.9z"/>
		<path class="st184" d="M25.8,95.3c-0.3,0-0.4-0.1-0.5-0.3c-0.1-0.3,0.1-0.5,0.4-0.6c0.2-0.1,0.4,0.1,0.5,0.3
			C26.3,95,26,95.2,25.8,95.3z"/>
		<path class="st184" d="M147.5,30.6c0.3,0.1,0.5,0.2,0.4,0.5c0,0.2-0.2,0.4-0.5,0.4c-0.3,0-0.5-0.2-0.4-0.5
			C147.1,30.8,147.3,30.7,147.5,30.6z"/>
		<path class="st184" d="M31.1,95.7c-0.1,0.3-0.2,0.5-0.5,0.5c-0.4,0-0.6-0.3-0.5-0.6c0.1-0.3,0.3-0.5,0.6-0.4
			C30.9,95.2,31.1,95.4,31.1,95.7z"/>
		<path class="st184" d="M155.6,72.5c-0.1,0.4-0.3,0.6-0.6,0.5c-0.3-0.1-0.5-0.3-0.4-0.6c0.1-0.2,0.2-0.4,0.5-0.4
			C155.4,72,155.4,72.3,155.6,72.5z"/>
		<path class="st184" d="M146.4,95.9c0,0.3-0.2,0.5-0.5,0.5c-0.4,0-0.6-0.2-0.5-0.6c0-0.3,0.2-0.5,0.5-0.5
			C146.2,95.4,146.4,95.6,146.4,95.9z"/>
		<path class="st184" d="M153.7,52.6c-0.4-0.1-0.6-0.3-0.5-0.6c0.1-0.3,0.3-0.5,0.6-0.4c0.2,0.1,0.4,0.2,0.4,0.5
			C154.2,52.4,153.9,52.5,153.7,52.6z"/>
		<path class="st184" d="M22.7,54.7c-0.3-0.1-0.5-0.3-0.4-0.6c0.1-0.3,0.3-0.5,0.6-0.4c0.2,0.1,0.4,0.2,0.4,0.5
			C23.2,54.5,23,54.7,22.7,54.7z"/>
		<path class="st184" d="M123.6,111.9c0,0.4-0.2,0.6-0.5,0.6c-0.3,0-0.5-0.2-0.5-0.5c0-0.3,0.2-0.5,0.5-0.5
			C123.3,111.5,123.4,111.8,123.6,111.9z"/>
		<path class="st184" d="M23.4,79.7c-0.4,0-0.6-0.2-0.6-0.5c0-0.3,0.2-0.5,0.5-0.5c0.3,0,0.5,0.2,0.5,0.5
			C23.9,79.5,23.6,79.6,23.4,79.7z"/>
		<path class="st184" d="M26.6,90.5c-0.4-0.1-0.6-0.3-0.5-0.6c0-0.3,0.2-0.5,0.5-0.5c0.3,0,0.5,0.2,0.5,0.5
			C27,90.3,26.8,90.4,26.6,90.5z"/>
		<path class="st184" d="M151.2,96.7c0,0.3-0.2,0.4-0.4,0.5c-0.3,0-0.5-0.1-0.5-0.4c0-0.3,0.2-0.4,0.4-0.5
			C151,96.2,151.1,96.4,151.2,96.7z"/>
		<path class="st184" d="M150.4,41.1c0.3,0,0.5,0.2,0.5,0.4c0.1,0.3-0.1,0.5-0.4,0.6c-0.3,0.1-0.4-0.2-0.5-0.4
			C149.9,41.4,150.2,41.2,150.4,41.1z"/>
		<path class="st184" d="M113.1,115.2c0,0.3-0.2,0.5-0.5,0.5c-0.3,0-0.5-0.2-0.5-0.5c0-0.3,0.2-0.5,0.5-0.5
			C112.8,114.7,113,114.9,113.1,115.2z"/>
		<path class="st184" d="M30,45.3c0,0.3-0.2,0.5-0.5,0.5c-0.4,0-0.6-0.2-0.6-0.6c0-0.3,0.2-0.5,0.5-0.5C29.8,44.8,30,45,30,45.3z"/>
		<path class="st184" d="M66.8,117.6c-0.3-0.1-0.5-0.3-0.4-0.6c0.1-0.3,0.3-0.5,0.6-0.4c0.2,0.1,0.4,0.2,0.4,0.5
			C67.3,117.4,67.1,117.6,66.8,117.6z"/>
		<path class="st184" d="M152.1,62.5c-0.3,0-0.5-0.2-0.6-0.4c-0.1-0.4,0.1-0.6,0.5-0.6c0.3,0,0.5,0.2,0.5,0.5
			C152.6,62.3,152.4,62.5,152.1,62.5z"/>
		<path class="st184" d="M34.5,100.7c0.4,0,0.6,0.2,0.6,0.5c0,0.4-0.2,0.6-0.6,0.6c-0.3,0-0.5-0.2-0.5-0.5
			C34.1,100.9,34.3,100.8,34.5,100.7z"/>
		<path class="st184" d="M23.8,49.9c-0.3-0.1-0.5-0.3-0.4-0.6c0.1-0.3,0.3-0.5,0.6-0.4c0.2,0.1,0.4,0.2,0.4,0.5
			C24.3,49.7,24.1,49.9,23.8,49.9z"/>
		<path class="st184" d="M145.6,41.3c-0.3,0-0.5-0.2-0.5-0.5c0-0.4,0.2-0.6,0.6-0.5c0.3,0,0.5,0.3,0.4,0.6
			C146.1,41.1,145.9,41.3,145.6,41.3z"/>
		<path class="st184" d="M154.3,77.9c-0.3,0-0.5-0.2-0.5-0.5c0-0.3,0.2-0.5,0.5-0.5c0.3,0,0.5,0.2,0.5,0.5
			C154.8,77.6,154.5,77.8,154.3,77.9z"/>
		<path class="st184" d="M146.5,35.4c0.3,0.1,0.5,0.2,0.5,0.5c0,0.3-0.2,0.5-0.5,0.5c-0.3,0-0.5-0.2-0.5-0.5
			C146,35.6,146.2,35.5,146.5,35.4z"/>
		<path class="st184" d="M27.9,85.1c0,0.3-0.2,0.5-0.5,0.5c-0.4,0-0.6-0.2-0.6-0.6c0-0.3,0.2-0.5,0.5-0.5
			C27.7,84.6,27.8,84.8,27.9,85.1z"/>
		<path class="st184" d="M156.9,63.3c-0.3-0.1-0.5-0.3-0.4-0.6c0.1-0.2,0.2-0.4,0.5-0.4c0.3,0.1,0.5,0.3,0.4,0.6
			C157.3,63.1,157.1,63.3,156.9,63.3z"/>
		<path class="st184" d="M101.1,123.6c-0.4-0.1-0.6-0.3-0.5-0.6c0-0.3,0.2-0.5,0.5-0.5c0.3,0,0.5,0.2,0.5,0.5
			C101.5,123.4,101.2,123.5,101.1,123.6z"/>
		<path class="st184" d="M76.3,123.8c0,0.4-0.2,0.6-0.5,0.6c-0.3,0-0.5-0.2-0.5-0.5c0-0.3,0.2-0.5,0.5-0.5
			C76,123.3,76.1,123.6,76.3,123.8z"/>
		<path class="st184" d="M88,0.4c0,0.3-0.1,0.4-0.3,0.5c-0.3,0.1-0.5-0.1-0.6-0.4c-0.1-0.2,0.1-0.4,0.3-0.5
			C87.8-0.1,87.9,0.2,88,0.4z"/>
		<path class="st184" d="M21.2,64.4c-0.4-0.1-0.6-0.3-0.5-0.6c0.1-0.3,0.3-0.5,0.6-0.4c0.2,0.1,0.4,0.2,0.4,0.5
			C21.6,64.2,21.4,64.3,21.2,64.4z"/>
		<path class="st184" d="M31.6,35.6c0,0.3-0.2,0.5-0.5,0.5c-0.3,0-0.5-0.2-0.5-0.5c0-0.3,0.2-0.5,0.5-0.5
			C31.4,35.1,31.5,35.4,31.6,35.6z"/>
		<path class="st184" d="M25.7,69.6c0,0.3-0.2,0.5-0.5,0.5c-0.4,0-0.6-0.3-0.5-0.6c0-0.3,0.3-0.5,0.6-0.4
			C25.6,69.1,25.7,69.3,25.7,69.6z"/>
		<path class="st184" d="M85.1,130.3c0,0.3-0.2,0.5-0.5,0.5c-0.4,0-0.6-0.2-0.5-0.6c0-0.3,0.3-0.5,0.6-0.4
			C85,129.8,85.1,130,85.1,130.3z"/>
		<path class="st184" d="M90,131.1c0,0.3-0.2,0.5-0.5,0.5c-0.4,0-0.6-0.2-0.6-0.6c0-0.3,0.2-0.5,0.5-0.5
			C89.8,130.6,90,130.8,90,131.1z"/>
		<path class="st184" d="M88.6,135.5c0.3,0,0.4,0.2,0.5,0.4c0.1,0.3-0.1,0.5-0.4,0.6c-0.3,0.1-0.4-0.2-0.5-0.4
			C88.1,135.7,88.3,135.6,88.6,135.5z"/>
		<path class="st184" d="M88.4,57.8c-0.1,0.1-0.2,0.3-0.3,0.4c-0.5-0.1-0.9-0.2-1.4-0.2c0-0.1,0-0.2,0-0.3
			C87.3,57.7,87.8,57.7,88.4,57.8z"/>
		<path class="st184" d="M95.1,74.6c-0.5,0-0.9,0-1.4-0.1c0.1-0.2,0.2-0.3,0.3-0.5c0.4,0.1,0.7,0.2,1.1,0.3
			C95.1,74.5,95,74.6,95.1,74.6z"/>
		<path class="st184" d="M88.9,78.5c-0.2-0.1-0.4-0.2-0.6-0.3c0.6,0,1.1,0,1.7,0C89.7,78.5,89.3,78.3,88.9,78.5z"/>
		<path class="st184" d="M92.1,58.7c0-0.1,0-0.1,0-0.2c0.4,0,0.7,0,1.1,0c-0.1,0.1-0.2,0.3-0.3,0.4C92.7,58.9,92.4,58.8,92.1,58.7z"
			/>
		<path class="st184" d="M81.9,74.5c-0.2-1.2-0.5-2.4-2-2.7c0.4-0.3,0.9,0,1.2-0.4c0.6,0,0.8-0.5,1.3-0.8c0.6,0.8,0.9,1.9,2.1,1.9
			C83.4,72.9,82.4,73.4,81.9,74.5z"/>
		<path class="st184" d="M87,75.1c-0.5-0.7-0.7-1.6-1.6-2.1c-0.4-0.2,0.4-0.2,0.4-0.4c0.8,0,1.2-0.6,1.7-1.1c0.4,0.7,0.6,1.6,1.4,2
			C88.1,73.9,87.2,74.1,87,75.1z"/>
		<path class="st184" d="M94.3,62.1c0.1,1.3,0.8,2.1,1.9,2.6c-0.9-0.1-1.7,0.4-2.3,1.1c-0.3-0.8-0.6-1.5-1.4-2
			C93.2,63.3,93.8,62.8,94.3,62.1z"/>
		<path class="st184" d="M82.2,62.3c0.8-0.7,2-1,2.3-2.1c-0.1,1,0.3,1.7,1.1,2.3c-0.7,0.4-1.4,0.7-1.8,1.4
			C83.4,63.3,83.2,62.4,82.2,62.3z"/>
		<path class="st184" d="M92.9,70.7c-0.3-0.9-0.7-1.4-1.3-1.9c0.6-0.4,1.3-0.6,1.7-1.4c0.4,0.8,0.8,1.6,1.7,2
			C94.2,69.6,93.5,70,92.9,70.7z"/>
		<path class="st184" d="M80.9,66.9c1.3-0.1,2-0.4,2.5-1.1c2,1.4,0.3,2-0.6,2.9C82.4,68.1,82.1,67.4,80.9,66.9z"/>
		<path class="st184" d="M88,69.9c-0.6-1.2-1.7-2.3,0.6-2.9c0.2,0.5,0.6,1,1.3,1.5C89,68.8,88.4,69.1,88,69.9z"/>
		<path class="st184" d="M89.3,61.3c0.2,0.8,0.5,1.5,1.2,1.9c-0.6,0.4-1.1,0.7-1.7,1.2c-0.2-0.6-0.6-1.1-1.3-1.5
			C88.4,62.5,88.9,62.1,89.3,61.3z"/>
		<path class="st184" d="M98.4,66.9c0.1,0,0.2,0,0.3,0c0,0.5-0.1,1-0.1,1.6c-0.1-0.1-0.3-0.2-0.4-0.3C98,67.7,98.3,67.3,98.4,66.9z"
			/>
	</g>
	<path class="st190" d="M90,127.9c-12.6-27.7-24.3-31-62.8-17.3C48.3,85.4,43.6,77.6,1.8,69.4c41.7-8.6,46.8-16.5,27.1-42.4
		c37.6,14.6,49,11.6,61.1-16.1c9.9,27.7,19.3,29.7,51.8,11c-12.3,28.3-5.3,37.5,36.4,47.6c-41.7,8.8-47.3,17.2-29.1,43.7
		C112.6,97.4,101.6,100.2,90,127.9z"/>
	<g>
		<path class="st191" d="M91.9,127.8c-4.8-10.5-11-21.5-22.8-24.7c-14-3.8-30.1,2.4-43.1,7c1.1,0.3,2.1,0.6,3.2,0.9
			c5.4-6.5,16.6-18.6,10.6-27.8c-2.6-4-7.7-6.2-11.9-7.8c-8.1-3.2-16.8-4.9-25.4-6.6c0.1,0.5,0.3,0.9,0.4,1.4
			c8.4-1.7,16.9-3.6,25-6.7c4.5-1.7,9.3-4,12.2-8c6.5-8.9-4.1-21.8-9.2-28.5c-1.1,0.2-2.2,0.4-3.2,0.6c12.7,4.9,27.9,11.2,41.8,8.2
			c11.9-2.6,18-14.2,22.5-24.5c-1.2-0.1-2.5-0.1-3.7-0.2c3.3,9.2,7.8,21.4,18.7,23.5c12.7,2.4,26.1-6.2,36.5-12.2
			c-1.2-0.2-2.3-0.5-3.5-0.7c-4.1,9.5-9,21.9-1.9,31.2c3.4,4.4,8.6,7.1,13.6,9.3c8.2,3.6,17,5.8,25.6,7.9c0-0.4,0-0.9,0.1-1.3
			c-8.4,1.8-16.9,3.7-24.9,6.8c-4.8,1.9-9.8,4.3-12.9,8.6c-6.5,9,2.8,21.8,7.8,29c1.1-0.2,2.2-0.4,3.2-0.6c-12.2-5.2-27-12-40.6-9.1
			c-11.7,2.4-17.5,14.2-21.7,24.3c-0.5,1.1,3.3,1.5,3.7,0.6c3.8-8.9,8.6-19.8,18.5-23.1c4.9-1.6,10.3-0.7,15.1,0.4
			c7.6,1.8,15,4.9,22.2,7.9c0.4,0.2,3.9,0.4,3.2-0.6c-4.9-7.2-13.6-18.9-8.1-27.8c2.6-4.2,7.7-6.6,12.1-8.4c7.7-3.1,16-4.9,24.1-6.6
			c1.1-0.2,1.2-1,0.1-1.3c-8.1-2-16.3-4.1-24.1-7.3c-5.1-2.1-10.3-4.9-13.7-9.4c-6.7-8.7-1.6-21.2,2.2-30c0.5-1.2-2.9-1.1-3.5-0.7
			c-6,3.4-12,6.8-18.4,9.3c-4.2,1.7-9.2,3.4-13.8,2.3c-9.2-2.1-13.3-14.7-16-22.3c-0.3-0.8-3.3-1-3.7-0.2c-4,9.1-9.2,19.8-19.3,23.3
			c-5.1,1.8-10.9,1-16.1-0.1c-7.7-1.6-15.1-4.4-22.4-7.2c-0.4-0.1-4-0.4-3.2,0.6c5,6.6,14.7,18,9.8,26.9c-2.3,4.2-7.5,6.5-11.7,8.2
			C17.3,65.3,9,67,0.9,68.7c-1.6,0.3-0.7,1.2,0.4,1.4c8,1.6,16.1,3.3,23.7,6.2c4.3,1.6,9.1,3.8,11.5,7.9c5,8.5-6.2,20.4-11.1,26.3
			c-0.8,0.9,2.8,1,3.2,0.9c11.7-4.1,26.5-10.3,39.1-6.8c10.6,2.9,16.3,14.4,20.5,23.6C88.6,129,92.3,128.8,91.9,127.8z"/>
	</g>
	<path class="st192" d="M159.8,69.4c-33,6.7-37.5,12.7-22,32.3c-29.2-11.4-38-9-47.8,12C79.5,92.7,70,89.9,39.3,99.8
		c17.7-18.6,13.9-24.2-19.1-30.4c33-6.4,37.1-12.3,20.4-31.3c30,10.6,39.2,8,49.3-13c8.3,20.9,15.9,22.7,42,8.9
		C121,55,126.8,61.8,159.8,69.4z"/>
</g>
</svg>
