<?xml version="1.0" encoding="utf-8"?>
<!-- Generator: Adobe Illustrator 23.0.1, SVG Export Plug-In . SVG Version: 6.00 Build 0)  -->
<svg version="1.1" id="Layer_1" xmlns="http://www.w3.org/2000/svg" xmlns:xlink="http://www.w3.org/1999/xlink" x="0px" y="0px"
	 viewBox="0 0 180 194.18" style="enable-background:new 0 0 180 194.18;" xml:space="preserve">
<style type="text/css">
	.st0{fill:none;stroke:#ED2027;stroke-miterlimit:10;}
	.st1{fill:#74C044;}
	.st2{fill:#ED2027;}
	.st3{fill:#529A44;}
	.st4{fill:#F0C775;}
	.st5{fill:#7A4880;}
	.st6{fill:#81B846;}
	.st7{fill:#EE8122;}
	.st8{fill:#82C141;}
	.st9{fill:#CF3386;}
	.st10{fill:#F58220;}
	.st11{fill:#7C993C;}
	.st12{fill:#E6E4D6;}
	.st13{fill:#EFCC7A;}
	.st14{fill:#D39765;}
	.st15{fill:#F6E86E;}
	.st16{fill:#76C26A;}
	.st17{fill:#F05241;}
	.st18{fill:#E82025;}
	.st19{fill:#26783C;}
</style>
<path class="st16" d="M74.8,43.99c-0.02-0.02-0.04-0.04-0.06-0.06c-0.23-0.3-0.25-0.71-0.24-1.09c0-8.04,0.92-16.16,3.76-23.68
	c2.54-6.7,13.31-25.73,22.38-16.84c1.63,1.6,2.61,4.09,1.8,6.23c-1,2.63-4.07,3.67-6.39,5.26c-4.93,3.38-6.79,9.86-6.76,15.84
	s1.58,11.86,1.86,17.83c-5.1-1.02-10.2-2.04-15.3-3.06C75.47,44.36,75.06,44.26,74.8,43.99z"/>
<path class="st17" d="M63.94,44.12c-0.28,0.04-0.56,0.05-0.85,0.05c-1.83-0.01-3.54-0.82-5.22-1.53
	c-10.14-4.25-21.91-4.94-32.17-0.99C5.49,49.42,0.31,71.47,0.01,91.02c-0.34,22.74,6.51,45.23,16.82,65.31
	c5.66,11.04,12.51,21.73,21.99,29.73c3.61,3.05,7.73,5.75,12.4,6.53c4.31,0.73,10.61-1.18,14.92-1.89c12.8-2.1,25.96-2,38.74,0.28
	c6.09,1.09,10.41,3.63,16.46,2.37c7.25-1.51,13.05-6.84,18-12.35c26.65-29.68,39.48-72.53,29.06-111.03
	c-1.98-7.31-4.91-14.66-10.37-19.91c-6.42-6.17-15.58-8.68-24.46-9.23c-8.02-0.5-16.89,0.8-22.27,6.76
	c-4.72-6.01-12.14-9.63-19.75-10.41c-7.61-0.78-15.35,1.14-22.12,4.7C67.68,42.82,65.89,43.88,63.94,44.12z"/>
<g>
	<path d="M125.55,194.18c-2.82,0-5.36-0.71-8-1.44c-1.66-0.46-3.37-0.94-5.25-1.27c-12.78-2.28-25.76-2.38-38.57-0.28
		c-1.12,0.18-2.37,0.45-3.7,0.73c-3.8,0.81-8.12,1.71-11.39,1.16c-4.06-0.69-8.07-2.8-12.63-6.64
		c-8.16-6.89-15.19-16.39-22.11-29.88C12.39,134.11,6.72,112.06,7.04,91.02c0.4-26.2,9.38-43.42,25.99-49.81
		c9.99-3.84,21.85-3.48,32.53,1l0.52,0.22c1.46,0.62,2.98,1.27,4.52,1.27c0.28,0.01,0.53-0.02,0.79-0.05l0,0
		c1.63-0.21,3.21-1.05,4.73-1.86l0.61-0.33c7.33-3.86,15.07-5.5,22.39-4.75c7.93,0.81,15.08,4.5,19.73,10.16
		c5.91-6.14,15.33-6.94,22.27-6.51c7.32,0.46,17.57,2.45,24.76,9.37c6.12,5.88,8.92,14.31,10.5,20.13
		c5.04,18.62,4.83,39.05-0.63,59.07c-5.27,19.36-15.14,37.48-28.54,52.4c-4.75,5.29-10.64,10.92-18.26,12.5
		C127.76,194.08,126.63,194.18,125.55,194.18z M92.2,188.72c6.77,0,13.55,0.6,20.26,1.8c1.92,0.34,3.66,0.83,5.34,1.3
		c3.7,1.03,6.89,1.92,10.94,1.08c7.35-1.53,13.09-7.03,17.74-12.21c27.49-30.61,38.86-74.02,28.95-110.58
		c-1.55-5.72-4.29-13.98-10.24-19.69c-6.99-6.71-16.99-8.65-24.16-9.1c-6.88-0.43-16.26,0.37-21.88,6.61l-0.38,0.42l-0.35-0.45
		c-4.47-5.7-11.55-9.43-19.42-10.23c-7.12-0.73-14.68,0.88-21.85,4.65l-0.61,0.32c-1.6,0.85-3.25,1.73-5.06,1.96l0,0
		c-0.29,0.04-0.59,0.06-0.89,0.06c-0.01,0-0.02,0-0.02,0c-1.74-0.01-3.34-0.69-4.89-1.35l-0.52-0.22
		c-10.45-4.38-22.05-4.75-31.82-0.99C12.89,49.98,8.26,73.06,7.99,91.03c-0.31,20.89,5.33,42.79,16.77,65.09
		c6.86,13.38,13.81,22.78,21.88,29.58c4.42,3.73,8.28,5.77,12.17,6.43c3.1,0.52,7.31-0.37,11.03-1.16c1.34-0.28,2.6-0.55,3.74-0.74
		C79.76,189.22,85.98,188.72,92.2,188.72z"/>
</g>
</svg>
