<?xml version="1.0" encoding="utf-8"?>
<!-- Generator: Adobe Illustrator 23.0.1, SVG Export Plug-In . SVG Version: 6.00 Build 0)  -->
<svg version="1.1" id="Layer_1" xmlns="http://www.w3.org/2000/svg" xmlns:xlink="http://www.w3.org/1999/xlink" x="0px" y="0px"
	 viewBox="0 0 180 170.16" style="enable-background:new 0 0 180 170.16;" xml:space="preserve">
<style type="text/css">
	.st0{fill:none;stroke:#ED2027;stroke-miterlimit:10;}
	.st1{fill:#74C044;}
	.st2{fill:#ED2027;}
	.st3{fill:#529A44;}
	.st4{fill:#F0C775;}
	.st5{fill:#7A4880;}
	.st6{fill:#81B846;}
	.st7{fill:#EE8122;}
	.st8{fill:#82C141;}
	.st9{fill:#CF3386;}
	.st10{fill:#F58220;}
	.st11{fill:#7C993C;}
	.st12{fill:#E6E4D6;}
	.st13{fill:#EFCC7A;}
	.st14{fill:#D39765;}
	.st15{fill:#F6E86E;}
	.st16{fill:#76C26A;}
	.st17{fill:#F05241;}
	.st18{fill:#E82025;}
	.st19{fill:#26783C;}
</style>
<g>
	<path class="st1" d="M86.77,2.32l-0.53,29.56c-3.92-1-6.77-4.58-8.01-8.43c-1.25-3.85-1.17-7.98-1.06-12.03
		c-4.81,5.87-3.58,16.16,0.93,22.04c4.2,5.48,12.73,7.78,18.34,3.76c3.29-2.36,5.08-6.4,5.52-10.42s-0.35-8.08-1.34-12.01
		c-1.1,5.23-3.06,10.27-5.8,14.86c-0.58,0.97-1.85,2.04-2.66,1.25c-0.36-0.35-0.39-0.92-0.4-1.42L91.48,2.33
		C91.47,1.05,90.42,0.01,89.14,0l0,0C87.85-0.01,86.79,1.02,86.77,2.32z"/>
</g>
<g>
	<path class="st2" d="M67.67,31.12c-5.17,0.26-10.3,0.69-15.31,1.25C35.59,34.23,16.97,38.92,7,53.8
		c-6.49,9.67-7.96,22.02-6.45,33.57c2.8,21.4,12.22,46.15,28.59,60.82c23.12,20.71,58.49,27.24,87.25,15.36
		c19.01-7.85,33.51-22.91,42.58-41.16c5.55-11.18,9.54-23.58,8.4-36.01c-2.39-26.16-26.25-44.3-49.95-50.81
		C101.62,31.22,84.38,30.27,67.67,31.12z"/>
</g>
<g>
	<path d="M97.5,170.16c-20.63,0-41.37-7.47-57.02-21.49c-14.75-13.21-25.51-36.1-28.8-61.22c-1.71-13.08,0.62-25.16,6.56-34.02
		c10.8-16.1,31.33-20.1,45.84-21.72c5.25-0.58,10.41-1,15.35-1.25l0,0c18.9-0.95,35.7,0.55,49.95,4.46
		c23.35,6.41,47.99,24.79,50.43,51.38c1,10.96-1.77,22.86-8.47,36.36c-9.56,19.27-24.8,34-42.91,41.48
		C118.62,168.19,108.07,170.16,97.5,170.16z M79.49,31.77c-4.91,0.25-10.05,0.67-15.27,1.25c-14.25,1.58-34.4,5.49-44.9,21.14
		c-5.76,8.59-8.02,20.35-6.35,33.12c2.51,19.16,11.28,45.1,28.38,60.42c23.3,20.88,58.09,27,86.57,15.24
		c17.82-7.36,32.82-21.87,42.24-40.85c6.59-13.28,9.32-24.95,8.34-35.66c-2.38-25.97-26.56-43.94-49.47-50.24
		C114.91,32.31,98.24,30.82,79.49,31.77L79.49,31.77z"/>
</g>
</svg>
