<?xml version="1.0" encoding="utf-8"?>
<!-- Generator: Adobe Illustrator 23.0.1, SVG Export Plug-In . SVG Version: 6.00 Build 0)  -->
<svg version="1.1" id="Layer_1" xmlns="http://www.w3.org/2000/svg" xmlns:xlink="http://www.w3.org/1999/xlink" x="0px" y="0px"
	 viewBox="0 0 180 188.29" style="enable-background:new 0 0 180 188.29;" xml:space="preserve">
<style type="text/css">
	.st0{fill:none;stroke:#ED2027;stroke-miterlimit:10;}
	.st1{fill:#74C044;}
	.st2{fill:#ED2027;}
	.st3{fill:#529A44;}
	.st4{fill:#F0C775;}
	.st5{fill:#7A4880;}
	.st6{fill:#81B846;}
	.st7{fill:#EE8122;}
	.st8{fill:#82C141;}
	.st9{fill:#CF3386;}
	.st10{fill:#F58220;}
	.st11{fill:#7C993C;}
	.st12{fill:#E6E4D6;}
	.st13{fill:#EFCC7A;}
	.st14{fill:#D39765;}
	.st15{fill:#F6E86E;}
	.st16{fill:#76C26A;}
	.st17{fill:#F05241;}
	.st18{fill:#E82025;}
	.st19{fill:#26783C;}
</style>
<path class="st4" d="M138.58,20.55c-9.3-7.83-19.05-15.89-30.85-18.79c-16.65-4.09-33.82,2.82-49.56,9.6
	c-17.1,7.37-34.52,14.95-48.38,27.38c-5.46,4.89-10.63,11.5-9.67,18.77c1.01,7.67,8.39,12.79,15.52,15.79
	c12.59,5.3,26.35,7.14,39.99,7.93c0.02,0,0.03,0,0.05,0c1.32,0.08,2.65,0.13,3.97,0.18c-0.7,21.61-2.72,84.81-2.72,89.35
	c0,5.48,0.42,10.12,10.54,14.33c9.96,4.15,24.4,2.75,34.53,0.11c19.84-5.17,16.56-25.12,12.66-40.54c-5.35-21.18-9-43.14-8.84-65.03
	c18.37-2.23,36.52-6.24,54.1-12.03c2.76-0.91,5.62-1.93,7.67-3.99C179.19,52.01,145.99,26.79,138.58,20.55z"/>
<g>
	<path d="M92.39,188.29c-5.63,0-11.15-0.75-15.73-2.66c-10.1-4.21-10.88-8.81-10.88-14.85c0-4.41,1.87-63.12,2.7-88.81l-0.46-0.02
		c-0.99-0.04-1.98-0.08-2.96-0.14c-11.52-0.67-26.45-2.18-40.22-7.98c-6.63-2.79-14.76-7.87-15.86-16.23
		c-0.81-6.19,2.5-12.67,9.86-19.26c14.11-12.64,31.61-20.19,48.54-27.48c13.66-5.89,32.37-13.95,49.92-9.63
		c12.17,2.99,22.21,11.45,31.08,18.9c0.62,0.52,1.42,1.18,2.36,1.94c8.58,7.02,28.68,23.45,29.27,35.16
		c0.14,2.66-0.74,4.95-2.59,6.8c-2.09,2.09-4.93,3.15-7.89,4.12c-17.32,5.7-35.39,9.74-53.72,11.99c-0.09,19.45,2.8,40.52,8.83,64.4
		c4.43,17.54,6.34,36.16-13.07,41.22C105.96,187.22,99.1,188.29,92.39,188.29z M106.83,1.13c-14.04,0-28.15,6.08-39.02,10.76
		c-16.85,7.26-34.26,14.76-48.23,27.28c-7.06,6.33-10.25,12.48-9.49,18.28c1.09,8.24,9.98,13.15,15.18,15.34
		c13.61,5.73,28.42,7.23,39.8,7.89c1.03,0.06,2.01,0.1,2.99,0.14l1.57,0.07l-0.02,0.56c-0.82,25.39-2.72,84.91-2.72,89.33
		c0,4.92,0,9.57,10.19,13.81c9.79,4.08,24.07,2.72,34.17,0.08c18.46-4.81,16.55-22.85,12.26-39.86c-6.1-24.17-9-45.49-8.86-65.18
		l0-0.49l0.49-0.06c18.42-2.23,36.59-6.27,53.99-12c2.83-0.93,5.53-1.93,7.45-3.85c1.64-1.64,2.38-3.59,2.26-5.95
		c-0.57-11.2-20.39-27.42-28.86-34.34c-0.94-0.77-1.75-1.43-2.37-1.95l0,0c-8.77-7.38-18.7-15.74-30.62-18.67
		C113.65,1.48,110.24,1.13,106.83,1.13z"/>
</g>
</svg>
