<?xml version="1.0" encoding="utf-8"?>
<!-- Generator: Adobe Illustrator 23.0.1, SVG Export Plug-In . SVG Version: 6.00 Build 0)  -->
<svg version="1.1" id="Layer_1" xmlns="http://www.w3.org/2000/svg" xmlns:xlink="http://www.w3.org/1999/xlink" x="0px" y="0px"
	 viewBox="0 0 180 232.85" style="enable-background:new 0 0 180 232.85;" xml:space="preserve">
<style type="text/css">
	.st0{fill:none;stroke:#ED2027;stroke-miterlimit:10;}
	.st1{fill:#74C044;}
	.st2{fill:#ED2027;}
	.st3{fill:#529A44;}
	.st4{fill:#F0C775;}
	.st5{fill:#7A4880;}
	.st6{fill:#81B846;}
	.st7{fill:#EE8122;}
	.st8{fill:#82C141;}
	.st9{fill:#CF3386;}
	.st10{fill:#F58220;}
	.st11{fill:#7C993C;}
	.st12{fill:#E6E4D6;}
	.st13{fill:#EFCC7A;}
	.st14{fill:#D39765;}
	.st15{fill:#F6E86E;}
	.st16{fill:#76C26A;}
	.st17{fill:#F05241;}
	.st18{fill:#E82025;}
	.st19{fill:#26783C;}
</style>
<g>
	<path class="st18" d="M94.08,34.45c-3.83,0.92-6.4,3.74-9.78,7.79c-4.56,5.46-8.07,11.72-11.15,18.1
		c-7.53,15.61-12.73,32.24-16.93,49.05c-3.13,12.54-5.78,25.41-12.01,36.73c-6.63,12.04-16.91,21.59-25.05,32.67
		c-9.2,12.51-15.65,27.02-18.76,42.23c-0.51,2.48-0.83,5.36,0.84,7.26c1.14,1.3,2.93,1.78,4.62,2.15
		c29.18,6.27,60.07-4.8,83.42-23.39s40.24-44,55.16-69.84c9.73-16.86,18.88-34.3,23.72-53.15c0.53-2.07,1.01-4.26,0.42-6.31
		c-0.68-2.38-2.64-4.12-4.43-5.82c-8.24-7.82-14.66-17.57-23.81-24.3c-11.85-8.71-26.49-11.15-40.68-13.27
		C97.48,34.02,95.67,34.07,94.08,34.45z"/>
</g>
<g>
	<path d="M29.95,232.85c-5.71,0-11.32-0.57-16.75-1.74c-1.74-0.37-3.71-0.9-5-2.37c-1.87-2.13-1.55-5.17-1-7.87
		c3.13-15.26,9.66-29.95,18.88-42.5c3.05-4.15,6.45-8.14,9.73-12c5.48-6.44,11.15-13.1,15.27-20.59c5.42-9.84,8.15-21.05,10.8-31.9
		c0.38-1.56,0.76-3.11,1.14-4.66c4.93-19.76,10.32-35.39,16.97-49.19c3.72-7.72,7.29-13.52,11.24-18.24
		c3.53-4.23,6.14-7.07,10.16-8.03l0,0c1.72-0.41,3.63-0.45,5.84-0.12c12.74,1.91,28.6,4.28,40.99,13.4
		c5.33,3.92,5.97,4.75,7.15,6.27c0.82,1.05,1.93,2.5,5.41,5.8c0.27,0.26,0.68,0.63,1.18,1.09c3.94,3.61,8.18,7.62,8.76,9.65
		c0.14,0.5,0.42,1.27,0.73,2.17c1.33,3.74,2.39,6.97,1.97,8.59c-4.46,17.37-10.87,39.55-20.9,56.93
		c-13.73,23.78-31.04,50.7-55.33,70.04C76.66,223.94,52.51,232.85,29.95,232.85z M101.73,35.13c-3.59,0.86-6.06,3.55-9.41,7.56
		c-3.87,4.63-7.38,10.34-11.05,17.95c-6.61,13.71-11.97,29.26-16.88,48.92c-0.39,1.55-0.76,3.1-1.14,4.65
		c-2.67,10.93-5.42,22.24-10.93,32.24c-4.19,7.61-9.9,14.32-15.43,20.82c-3.27,3.84-6.65,7.81-9.67,11.92
		c-9.11,12.39-15.55,26.9-18.64,41.96c-0.48,2.36-0.78,5,0.68,6.66c1.01,1.15,2.72,1.6,4.24,1.92c26.44,5.68,57.41-3.01,82.83-23.25
		c24.11-19.19,41.32-45.98,54.99-69.65c9.95-17.24,16.32-39.29,20.76-56.58c0.34-1.34-1.08-5.37-1.94-7.78
		c-0.33-0.93-0.61-1.73-0.76-2.25c-0.52-1.82-6.02-6.85-8.36-9c-0.5-0.46-0.91-0.84-1.19-1.1c-3.55-3.37-4.71-4.87-5.55-5.96
		c-1.1-1.42-1.7-2.2-6.87-6c-12.11-8.91-27.78-11.26-40.37-13.14C105,34.73,103.27,34.76,101.73,35.13L101.73,35.13z"/>
</g>
<path class="st19" d="M87.99,38.61c4.99,0.88,9.92,2.12,14.72,3.73c5.9,1.97,11.97,4.76,15.3,10.02c2.8,4.41,3.24,9.91,5.38,14.67
	c0.48,1.06,1.11,2.15,2.16,2.64c0.78,0.36,1.68,0.34,2.54,0.31c6.23-0.25,12.45-0.81,18.62-1.7c2.18-0.31,4.47-0.65,6.53,0.13
	c1.69,0.64,3.01,1.96,4.27,3.25c5.6,5.69,11.2,11.37,16.8,17.06c0.36-10.29-0.5-20.72-3.74-30.49c-3.24-9.77-8.99-18.88-17.2-25.08
	c-1.03-0.78-2.16-1.58-2.62-2.79c-0.36-0.95-0.25-2-0.12-3c0.72-5.47,2.16-11.25,6.26-14.95c2.8-2.53,6.69-3.8,10.44-3.42
	c2.61,0.27,5.17,1.29,7.78,1.07c2.62-0.22,5.39-2.46,4.79-5.02c-0.42-1.8-2.27-2.85-4.01-3.49c-8.2-3.04-16.54-1.53-23.33,3.83
	c-3.06,2.42-5.64,5.44-7.53,8.85c-0.59,1.07-4.69,9.77-3.35,10.61c-9.46-5.88-21.24-7.89-32.11-5.49s-20.72,9.18-26.83,18.49
	C84.51,38.05,86.25,38.31,87.99,38.61z"/>
</svg>
