<?xml version="1.0" encoding="utf-8"?>
<!-- Generator: Adobe Illustrator 23.0.1, SVG Export Plug-In . SVG Version: 6.00 Build 0)  -->
<svg version="1.1" id="Layer_1" xmlns="http://www.w3.org/2000/svg" xmlns:xlink="http://www.w3.org/1999/xlink" x="0px" y="0px"
	 viewBox="0 0 180 118.31" style="enable-background:new 0 0 180 118.31;" xml:space="preserve">
<style type="text/css">
	.st0{fill:none;stroke:#ED2027;stroke-miterlimit:10;}
	.st1{fill:#74C044;}
	.st2{fill:#ED2027;}
	.st3{fill:#529A44;}
	.st4{fill:#F0C775;}
	.st5{fill:#7A4880;}
	.st6{fill:#81B846;}
	.st7{fill:#EE8122;}
	.st8{fill:#82C141;}
	.st9{fill:#CF3386;}
	.st10{fill:#F58220;}
	.st11{fill:#7C993C;}
	.st12{fill:#E6E4D6;}
	.st13{fill:#EFCC7A;}
	.st14{fill:#D39765;}
	.st15{fill:#F6E86E;}
	.st16{fill:#76C26A;}
	.st17{fill:#F05241;}
	.st18{fill:#E82025;}
	.st19{fill:#26783C;}
</style>
<g>
	<path class="st3" d="M35.67,9.18c1.13,1.32,2.21,2.68,3.29,4.01c19.9,24.48,47.34,44.01,78.48,49.05
		c9.59,1.55,19.4,1.74,28.83,4.08c8.72,2.17,16.99,6.46,22.31,13.88c5.09,7.11,6.85,19.39,2.15,27.1
		c-5.2,8.54-16.65,10.51-26.64,10.54c-36.27,0.12-71.54-14.09-101.25-34.89C28.65,73.01,15.29,61.27,6.71,46.24
		C3.19,40.07,0.5,33.28,0.06,26.19S1.64,11.67,6.53,6.51s12.83-7.58,19.45-5C29.88,3.02,32.91,5.96,35.67,9.18z"/>
	<g>
		<path d="M149.68,118.31c-42.23,0-78.26-19-101.07-34.98C31.31,71.21,19.78,59.5,12.35,46.47c-4.12-7.23-6.32-13.85-6.72-20.25
			c-0.48-7.8,1.92-15.1,6.6-20.03C17.49,0.64,25.7-1.47,32.2,1.06c4.2,1.63,7.35,4.86,9.87,7.81c0.88,1.03,1.74,2.08,2.58,3.13
			l0.72,0.89c21.86,26.89,49.63,44.25,78.19,48.88c3.71,0.6,7.52,1,11.2,1.39c5.83,0.62,11.87,1.25,17.66,2.69
			c9.96,2.47,17.76,7.34,22.58,14.06c4.94,6.89,7.17,19.42,2.17,27.62c-4.33,7.1-13.43,10.73-27.05,10.77
			C149.98,118.31,149.83,118.31,149.68,118.31z M26.36,0.95c-4.83,0-9.85,2.1-13.44,5.89c-4.5,4.75-6.81,11.79-6.34,19.32
			C6.97,32.41,9.12,38.9,13.17,46c7.36,12.9,18.79,24.52,35.98,36.55c22.7,15.9,58.55,34.81,100.53,34.81c0.15,0,0.3,0,0.45,0
			c13.27-0.04,22.1-3.51,26.24-10.31c4.8-7.88,2.63-19.93-2.13-26.58c-4.68-6.54-12.3-11.28-22.04-13.7
			c-5.74-1.43-11.74-2.06-17.54-2.67c-3.7-0.39-7.52-0.79-11.25-1.4c-28.79-4.67-56.77-22.15-78.77-49.22l-0.72-0.89
			c-0.84-1.04-1.69-2.09-2.57-3.11l0,0c-2.45-2.85-5.5-5.98-9.5-7.54C30.12,1.27,28.25,0.95,26.36,0.95z"/>
	</g>
</g>
</svg>
