<?xml version="1.0" encoding="utf-8"?>
<!-- Generator: Adobe Illustrator 23.0.1, SVG Export Plug-In . SVG Version: 6.00 Build 0)  -->
<svg version="1.1" id="Layer_1" xmlns="http://www.w3.org/2000/svg" xmlns:xlink="http://www.w3.org/1999/xlink" x="0px" y="0px"
	 viewBox="0 0 180 188.17" style="enable-background:new 0 0 180 188.17;" xml:space="preserve">
<style type="text/css">
	.st0{fill:none;stroke:#ED2027;stroke-miterlimit:10;}
	.st1{fill:#74C044;}
	.st2{fill:#ED2027;}
	.st3{fill:#529A44;}
	.st4{fill:#F0C775;}
	.st5{fill:#7A4880;}
	.st6{fill:#81B846;}
	.st7{fill:#EE8122;}
	.st8{fill:#82C141;}
	.st9{fill:#CF3386;}
	.st10{fill:#F58220;}
	.st11{fill:#7C993C;}
	.st12{fill:#E6E4D6;}
	.st13{fill:#EFCC7A;}
	.st14{fill:#D39765;}
	.st15{fill:#F6E86E;}
	.st16{fill:#76C26A;}
	.st17{fill:#F05241;}
	.st18{fill:#E82025;}
	.st19{fill:#26783C;}
</style>
<path class="st12" d="M76.5,0.56c0.67,10.79,1.01,22.67,0.72,28.46c-0.68,13.51-1.92,27.13-9.35,38.86
	c-7.9,12.5-21.16,20.39-33.63,28.34c-13.27,8.47-27.45,18.72-32.51,34.4c-5.2,16.13,1.62,33.89,15.17,43.6
	c16.51,11.84,39.01,12.81,58.58,12.94c26.33,0.18,60.33,3.96,82.04-14.4c12.28-10.39,14.96-28.25,12.4-43.61
	c-2.28-13.7-9-23.69-20.52-31.45c-9-6.07-19.1-10.72-26.79-18.39c-9.19-9.18-13.87-21.62-17.25-33.9
	c-1.57-5.7-2.81-11.22-3.37-17.09c-0.24-2.54,0.24-11.61-2.3-13.2C99.7,15.13,76.5,0.55,76.5,0.56z"/>
<g>
	<path d="M109.69,188.17c-4.92,0-9.81-0.12-14.57-0.23c-3.85-0.09-7.49-0.18-11.04-0.21c-19.89-0.14-42.48-1.27-58.9-13.05
		C11,164.52,4.67,146.32,9.79,130.44c5.17-16.05,19.61-26.33,32.74-34.71L45,94.16c11.64-7.39,23.67-15.03,30.99-26.6
		c7.35-11.61,8.57-24.88,9.26-38.59c0.27-5.48-0.02-17.16-0.72-28.39l-0.02-0.31l0.25-0.19c0.32-0.23,0.31-0.23,7.16,4.07l11.63,7.3
		c2.91,1.83,5.01,3.14,5.05,3.17c2.09,1.31,2.36,6.09,2.48,11.28c0.02,0.98,0.04,1.83,0.09,2.35c0.49,5.1,1.52,10.34,3.35,16.99
		c3.11,11.3,7.57,24.14,17.1,33.65c5.2,5.19,11.66,9.07,17.91,12.83c2.92,1.75,5.93,3.57,8.8,5.5
		c11.88,8.01,18.48,18.12,20.76,31.83c3.06,18.38-1.65,34.88-12.6,44.14C151.22,186.11,130.16,188.17,109.69,188.17z M85.74,1.62
		c0.65,10.93,0.92,22.07,0.65,27.41c-0.7,13.87-1.94,27.29-9.43,39.14c-7.46,11.79-19.6,19.5-31.34,26.96l-2.46,1.56
		c-12.96,8.27-27.21,18.41-32.27,34.1c-4.97,15.42,1.18,33.08,14.95,42.96c16.15,11.58,37.63,12.69,58.25,12.83
		c3.56,0.02,7.21,0.11,11.06,0.21c24.37,0.6,52,1.27,70.6-14.47c10.64-9,15.2-25.11,12.21-43.08c-2.23-13.37-8.67-23.25-20.27-31.07
		c-2.84-1.91-5.84-3.72-8.75-5.46c-6.31-3.79-12.83-7.71-18.13-13c-9.71-9.69-14.24-22.71-17.39-34.15
		c-1.85-6.72-2.89-12.02-3.39-17.19c-0.05-0.56-0.07-1.43-0.1-2.43c-0.07-3.23-0.2-9.25-1.94-10.34l0.01-0.02
		c-0.42-0.23-1.56-0.94-5.07-3.15C97.34,8.9,88.6,3.41,85.74,1.62z"/>
</g>
</svg>
