<?xml version="1.0" encoding="utf-8"?>
<!-- Generator: Adobe Illustrator 23.0.1, SVG Export Plug-In . SVG Version: 6.00 Build 0)  -->
<svg version="1.1" id="Layer_1" xmlns="http://www.w3.org/2000/svg" xmlns:xlink="http://www.w3.org/1999/xlink" x="0px" y="0px"
	 viewBox="0 0 180 100.4" style="enable-background:new 0 0 180 100.4;" xml:space="preserve">
<style type="text/css">
	.st0{fill:#FFFFFF;}
	.st1{fill:#FBDE01;}
	.st2{fill:#EC3A24;}
	.st3{fill:#25BECA;}
</style>
<g>
	<g>
		<g>
			<g>
				<path d="M40.93,65.85c-9.54,0-17.28,7.74-17.28,17.28c0,9.54,7.74,17.28,17.28,17.28c9.54,0,17.28-7.73,17.28-17.28
					C58.21,73.59,50.47,65.85,40.93,65.85z M40.93,94.68c-6.38,0-11.56-5.18-11.56-11.56c0-6.38,5.18-11.56,11.56-11.56
					s11.56,5.18,11.56,11.56C52.49,89.51,47.32,94.68,40.93,94.68z"/>
			</g>
			<g>
				<path d="M40.93,73.24c-5.51,0-9.97,4.46-9.97,9.97c0,5.51,4.46,9.97,9.97,9.97s9.97-4.47,9.97-9.97
					C50.9,77.7,46.44,73.24,40.93,73.24z"/>
			</g>
		</g>
		<g>
			
				<rect x="39.89" y="73.07" transform="matrix(0.7071 -0.7071 0.7071 0.7071 -47.1092 53.2355)" class="st0" width="1.63" height="20.84"/>
		</g>
		<path class="st0" d="M51.62,82.74h-7.16c-0.08-0.36-0.22-0.69-0.41-1l5.09-5.09l-1.15-1.15l-5.04,5.04
			c-0.36-0.24-0.77-0.41-1.2-0.51v-7.24h-1.63v7.24c-1.4,0.32-2.48,1.45-2.75,2.87h-7.05v1.63h7.13c0.1,0.38,0.25,0.73,0.47,1.05
			l-4.7,4.7l1.15,1.15l4.75-4.75c0.31,0.18,0.64,0.32,1,0.41v6.82h1.63v-6.82c1.35-0.31,2.4-1.37,2.71-2.71h7.16V82.74z"/>
	</g>
	<g>
		<g>
			<g>
				<path d="M148.53,65.76c-9.54,0-17.28,7.74-17.28,17.28c0,9.54,7.74,17.28,17.28,17.28c9.54,0,17.28-7.73,17.28-17.28
					C165.81,73.5,158.08,65.76,148.53,65.76z M148.53,94.6c-6.38,0-11.56-5.18-11.56-11.56c0-6.38,5.18-11.56,11.56-11.56
					s11.56,5.18,11.56,11.56C160.09,89.42,154.92,94.6,148.53,94.6z"/>
			</g>
			<g>
				<path d="M148.53,73.15c-5.51,0-9.97,4.46-9.97,9.97c0,5.51,4.46,9.97,9.97,9.97s9.97-4.47,9.97-9.97
					C158.51,77.62,154.04,73.15,148.53,73.15z"/>
			</g>
		</g>
		<g>
			
				<rect x="147.49" y="72.98" transform="matrix(0.7071 -0.7071 0.7071 0.7071 -15.5326 129.2964)" class="st0" width="1.63" height="20.84"/>
		</g>
		<path class="st0" d="M159.23,82.66h-7.16c-0.08-0.36-0.22-0.69-0.41-1l5.09-5.09l-1.15-1.15l-5.04,5.04
			c-0.36-0.24-0.77-0.41-1.2-0.51v-7.24h-1.63v7.24c-1.4,0.32-2.48,1.45-2.75,2.87h-7.05v1.63h7.13c0.1,0.38,0.25,0.73,0.47,1.05
			l-4.7,4.7l1.15,1.15l4.75-4.75c0.31,0.18,0.64,0.32,1,0.41v6.82h1.63V87c1.35-0.31,2.4-1.37,2.71-2.71h7.16V82.66z"/>
	</g>
	<path class="st2" d="M179.99,10.63c-0.24-5.94-5.19-10.6-11.13-10.6l-138.78,0c0,0-5.38-0.28-10.3,0.93H6.96
		c-4.52,0.58-4.3,4.18-4.3,4.18v5.03C1.1,10.93,0,12.54,0,14.41L0,26.5c0,2.48,1.81,4.71,4.29,4.95c2.84,0.27,5.23-1.95,5.23-4.73
		V14.41c0-2.35-1.71-4.29-3.95-4.68V5.37c0.23-2.32,5.11-1.97,5.11-1.97h3.61c-1.09,0.86-1.9,1.93-2.25,3.28l0.32,62.9h0l0.02,3.5h0
		l0.01,2.36c0.02,4.21,3.44,7.62,7.66,7.62h1.45c0-3.65,1.02-7.06,2.77-9.98c0.26-0.45,0.69-1.07,0.89-1.35
		c3.53-4.93,9.3-8.16,15.83-8.16c6.56,0,12.34,3.25,15.87,8.22c0.3,0.41,0.57,0.85,0.84,1.29c1.75,2.92,2.77,6.32,2.77,9.98h68.71
		c0-3.65,1.02-7.06,2.77-9.98c0.26-0.44,0.54-0.87,0.84-1.29c3.53-4.97,9.32-8.22,15.87-8.22c6.42,0,12.1,3.12,15.64,7.91
		c0.28,0.4,0.86,1.23,1.07,1.59c1.75,2.92,2.77,6.32,2.77,9.98h4.21c4.23,0,7.66-3.43,7.66-7.66v-2.32v-1.29v-0.53V10.9
		C180,10.9,180,10.8,179.99,10.63z M33.25,50.49H23.17c-4.36,0-7.89-3.53-7.89-7.89V14.3c0-4.36,3.53-7.89,7.89-7.89h10.07V50.49z
		 M63.12,50.49h-27.7V6.41h27.7V50.49z M93.33,50.49H65.28V6.41h28.05V50.49z M125.63,50.49H95.5V6.41h30.14V50.49z M156.55,50.49
		H127.8V6.41h28.74V50.49z M158.72,50.49V6.41h10.89c4.36,0,7.89,3.53,7.89,7.89v28.3c0,4.36-3.53,7.89-7.89,7.89H158.72z"/>
	<g>
		<g>
			<path d="M143.83,56.47H83.95c-0.6,0-1.08-0.48-1.08-1.08s0.48-1.08,1.08-1.08h59.88c0.6,0,1.08,0.48,1.08,1.08
				S144.43,56.47,143.83,56.47z"/>
		</g>
		<g>
			<g>
				<path d="M80.1,56.88c1.74,0,1.74-2.7,0-2.7C78.37,54.18,78.36,56.88,80.1,56.88L80.1,56.88z"/>
			</g>
		</g>
	</g>
</g>
</svg>
