<?xml version="1.0" encoding="utf-8"?>
<!-- Generator: Adobe Illustrator 23.0.1, SVG Export Plug-In . SVG Version: 6.00 Build 0)  -->
<svg version="1.1" id="Layer_1" xmlns="http://www.w3.org/2000/svg" xmlns:xlink="http://www.w3.org/1999/xlink" x="0px" y="0px"
	 viewBox="0 0 180 113.27" style="enable-background:new 0 0 180 113.27;" xml:space="preserve">
<style type="text/css">
	.st0{fill:#FFFFFF;}
	.st1{fill:#FBDE01;}
	.st2{fill:#EC3A24;}
	.st3{fill:#25BECA;}
</style>
<g>
	<g>
		<g>
			<g>
				<path d="M31.41,80.88c-8.94,0-16.19,7.25-16.19,16.19c0,8.95,7.25,16.19,16.19,16.19c8.95,0,16.2-7.25,16.2-16.19
					C47.61,88.13,40.36,80.88,31.41,80.88z M31.41,107.91c-5.98,0-10.84-4.85-10.84-10.84c0-5.98,4.85-10.84,10.84-10.84
					s10.84,4.85,10.84,10.84C42.25,103.06,37.4,107.91,31.41,107.91z"/>
			</g>
			<g>
				<path d="M31.41,87.81c-5.16,0-9.35,4.18-9.35,9.35c0,5.16,4.18,9.35,9.35,9.35s9.35-4.19,9.35-9.35
					C40.76,91.99,36.58,87.81,31.41,87.81z"/>
			</g>
		</g>
		<g>
			
				<rect x="30.44" y="87.64" transform="matrix(0.7071 -0.7071 0.7071 0.7071 -59.7402 50.5915)" class="st0" width="1.53" height="19.53"/>
		</g>
		<path class="st0" d="M41.43,96.72h-6.72c-0.08-0.34-0.21-0.65-0.38-0.94L39.11,91l-1.08-1.08l-4.73,4.73
			c-0.34-0.23-0.72-0.39-1.12-0.48v-6.78h-1.53v6.78c-1.31,0.3-2.33,1.36-2.57,2.69h-6.61v1.53h6.68c0.1,0.35,0.24,0.69,0.44,0.98
			l-4.41,4.41l1.08,1.08l4.45-4.45c0.29,0.17,0.6,0.3,0.94,0.38v6.39h1.53v-6.39c1.26-0.29,2.25-1.28,2.54-2.54h6.72V96.72z"/>
	</g>
	<g>
		<g>
			<g>
				<path d="M140.43,80.88c-8.94,0-16.19,7.25-16.19,16.19c0,8.95,7.25,16.19,16.19,16.19c8.95,0,16.2-7.25,16.2-16.19
					C156.63,88.13,149.37,80.88,140.43,80.88z M140.43,107.91c-5.98,0-10.84-4.85-10.84-10.84c0-5.98,4.85-10.84,10.84-10.84
					s10.84,4.85,10.84,10.84C151.26,103.06,146.41,107.91,140.43,107.91z"/>
			</g>
			<g>
				<path d="M140.43,87.81c-5.16,0-9.35,4.18-9.35,9.35c0,5.16,4.18,9.35,9.35,9.35c5.16,0,9.35-4.19,9.35-9.35
					C149.78,91.99,145.59,87.81,140.43,87.81z"/>
			</g>
		</g>
		<g>
			
				<rect x="139.45" y="87.64" transform="matrix(0.7071 -0.7071 0.7071 0.7071 -27.8096 127.6786)" class="st0" width="1.53" height="19.53"/>
		</g>
		<path class="st0" d="M150.45,96.72h-6.72c-0.08-0.34-0.21-0.65-0.38-0.94l4.77-4.77l-1.08-1.08l-4.73,4.73
			c-0.34-0.23-0.72-0.39-1.12-0.48v-6.78h-1.53v6.78c-1.31,0.3-2.33,1.36-2.57,2.69h-6.61v1.53h6.68c0.1,0.35,0.24,0.69,0.44,0.98
			l-4.41,4.41l1.08,1.08l4.45-4.45c0.29,0.17,0.6,0.3,0.94,0.38v6.39h1.53v-6.39c1.26-0.29,2.25-1.28,2.54-2.54h6.72V96.72z"/>
	</g>
	<path class="st1" d="M179.64,87.84c-1.57-5.73-3.14-11.45-4.71-17.18c3.01-1.45,3.43-5.49,3.43-8.83
		c0.02-18.89,0.05-37.78,0.07-56.67c0-1.21-0.02-2.51-0.74-3.49c-1.07-1.47-3.17-1.61-4.99-1.61C144.15,0.04,115.6,0.02,87.05,0
		c-1.98,0-4.28,0.14-5.45,1.75c-0.75,1.03-0.82,2.39-0.86,3.66c-0.22,7.43-0.44,14.85-0.66,22.28c-2.8-2.8-7.1-3.33-11.06-3.57
		c-12.27-0.75-24.61-0.28-36.78,1.42c-2.27,0.32-5.12,1.29-5.17,3.59c2.79,0.23,5.59,0.46,8.38,0.69c0.8,0.07,1.68,0.17,2.21,0.77
		c0.5,0.56,0.52,1.39,0.52,2.14c0,7.04,0,14.09,0,21.13c0,0.94-0.03,1.95-0.6,2.69c-0.81,1.04-2.33,1.09-3.65,1.06
		c-5.19-0.13-10.38-0.27-15.58-0.4c-5.23-0.13-11.61,0.39-13.9,5.09c-0.83,1.71-0.9,3.55-0.74,5.45c0.39,9.93-2.02,14.59-2.02,14.59
		c-1.19,2.38-2.19,4.73-1.43,7.2c0.97,3.15,4.5,4.78,7.77,5.17c1.72,0.21,3.58,0.13,5.1-0.65c0.96-9.23,8.76-16.43,18.25-16.43
		c9.37,0,17.09,7.03,18.2,16.1c4.52-0.4,8.97,0.49,13.47,0.52c18.03,0.11,36.08-0.1,54.11-0.1c1.82,0.01,3.58-0.02,4.93-1.23
		c1.46-8.67,8.98-15.29,18.07-15.29c8.87,0,16.27,6.29,17.98,14.66c0.96,0.47,2,0.81,3,1.14c5.29,1.7,11.18,1.59,16.35-0.48
		c0.83-0.33,1.68-0.75,2.14-1.51C180.26,90.37,179.96,89.03,179.64,87.84z M70.86,89.36c-1.2,1.04-3.16,1.06-4.66,1.24
		c-4.76,0.59-12.19,1.53-14.67-3.86c-1.41-3.05-1.76-6.99-6-8.13c-1.06-0.28-1.07-1.75-1.07-2.81c-0.01-13.91,0-27.82,0.01-41.72
		c0-2.45,1.29-3.67,3.68-3.68c6.23-0.03,12.45-0.04,18.68-0.02c3.43,0.01,4.95,1.66,4.9,5.2c-0.13,8.34-0.04,16.69-0.03,25.04
		c0,8.48-0.08,16.96,0.04,25.43c0.01,0.9,0.02,2.01-0.46,2.81C71.15,89.07,71.02,89.23,70.86,89.36z"/>
	<g>
		<g>
			<path d="M171.2,7h-57.55c-0.57,0-1.04-0.46-1.04-1.04s0.46-1.04,1.04-1.04h57.55c0.57,0,1.04,0.46,1.04,1.04S171.77,7,171.2,7z"
				/>
		</g>
		<g>
			<g>
				<path d="M109.95,7.39c1.67,0,1.67-2.59,0-2.59C108.28,4.8,108.28,7.39,109.95,7.39L109.95,7.39z"/>
			</g>
		</g>
	</g>
</g>
</svg>
