<?xml version="1.0" encoding="utf-8"?>
<!-- Generator: Adobe Illustrator 23.0.1, SVG Export Plug-In . SVG Version: 6.00 Build 0)  -->
<svg version="1.1" id="Layer_1" xmlns="http://www.w3.org/2000/svg" xmlns:xlink="http://www.w3.org/1999/xlink" x="0px" y="0px"
	 viewBox="0 0 180 73.33" style="enable-background:new 0 0 180 73.33;" xml:space="preserve">
<style type="text/css">
	.st0{fill:#FFFFFF;}
	.st1{fill:#FBDE01;}
	.st2{fill:#EC3A24;}
	.st3{fill:#25BECA;}
</style>
<g>
	<path class="st3" d="M88.57,50.5c-1.89-0.03-0.55-3.94,0.58-4.48c0.99-0.47,2.69-0.14,3.81-0.43c3.76-0.97,9.94-4.5,11.39-8.41
		c1.6-4.32-1.58-9.73-3.36-13.47c-2.02-4.25-4.53-8.26-6.68-12.45c-3.7-7.21-0.85-12.88,6.37-10.84
		c25.55,7.22,52.11,12.55,72.88,31.01c1.47,1.3,8.31,8.32,5.95,10.42c-0.63,0.56-1.56,0.62-2.4,0.58
		c-4.79-0.21-8.72-3.02-13.21-4.33c-5.48-1.6-11.14-2.6-16.85-2.85c-11.86-0.53-23.56,2.33-34.14,7.65
		C105.23,46.76,97.51,50.63,88.57,50.5z"/>
	<path class="st3" d="M31.95,16.99c4.29-0.42,8.77-0.05,10.67,0.46c6.09,1.66,11.69,4.76,17.65,6.86
		c8.73,3.07,18.24,3.92,27.38,2.44c3.71-0.6,8.41-1.17,10.4,2.02c1.87,3.01-0.39,6.9-3.01,9.29c-8.92,8.16-22.28,9.95-34.1,7.44
		s-22.48-8.75-32.75-15.12c-1.98-1.23-4.04-2.56-5.13-4.61C19.94,19.89,25.73,17.61,31.95,16.99z"/>
	<path class="st3" d="M173.86,44.57c-0.56-0.28-1.14-0.51-1.7-0.69c-15.76-5.08-33.15-7.17-48.78-1.68
		c-8.54,3-16.26,8.14-24.99,10.53c-6.54,1.79-13.4,1.96-20.18,2.12c-5.35,0.13-10.7,0.25-16.05,0.38c-2,0.05-4.03,0.09-5.95-0.44
		c-1.79-0.49-3.4-1.45-5.01-2.37c-6.72-3.81-13.93-7.01-21.59-8.09c-10.64-1.5-24.9,1.7-28.97,13.07
		c-1.24,3.47-0.75,7.77,2.01,10.21c3.7,3.28,9.37,2.02,14.23,1.13c19.61-3.59,39.56,2.2,59.42,3.96c17.55,1.56,35.22-0.03,52.7-2.21
		c11.32-1.41,22.93-3.17,32.81-8.87c4.83-2.79,9.09-6.44,13.33-10.06c0.79-0.68,1.63-1.42,1.91-2.43
		C177.59,47.14,175.85,45.56,173.86,44.57z"/>
	<g>
		<g>
			<path d="M33.16,50.72H17.4c-0.45,0-0.81-0.36-0.81-0.81c0-0.45,0.36-0.81,0.81-0.81h15.76c0.45,0,0.81,0.36,0.81,0.81
				C33.97,50.36,33.61,50.72,33.16,50.72z"/>
		</g>
		<g>
			<g>
				<path d="M14.51,51.03c1.3,0,1.31-2.03,0-2.03C13.21,49.01,13.21,51.03,14.51,51.03L14.51,51.03z"/>
			</g>
		</g>
	</g>
</g>
</svg>
