<?xml version="1.0" encoding="utf-8"?>
<!-- Generator: Adobe Illustrator 23.0.1, SVG Export Plug-In . SVG Version: 6.00 Build 0)  -->
<svg version="1.1" id="Layer_1" xmlns="http://www.w3.org/2000/svg" xmlns:xlink="http://www.w3.org/1999/xlink" x="0px" y="0px"
	 viewBox="0 0 180 225.6" style="enable-background:new 0 0 180 225.6;" xml:space="preserve">
<style type="text/css">
	.st0{fill:#FFFFFF;}
	.st1{fill:#FBDE01;}
	.st2{fill:#EC3A24;}
	.st3{fill:#25BECA;}
</style>
<g>
	<path class="st2" d="M94.95,33.23c0.48,4.23,2.32,8.17,5.18,11.33c18.88,20.8,29.77,45.85,37,72.89
		c4.88,18.26,7.78,36.82,9.13,55.66c0.27,3.72-0.73,5.32-4.46,6.07c-14.07,2.79-28.05,6.03-42.13,8.76c-1.54,0.3-3.34,0.62-4.48,1.8
		c-2,2.08-2.05,9.86,0.41,11.63c1.38,0.99,3.18,1.13,4.88,1.24c26.5,1.63,53,3.26,79.51,4.89c-1.73,6.61-6.53,12.35-12.74,15.21
		c-6.08,2.81-13.02,2.86-19.71,2.86c-34.87,0.01-69.75,0.02-104.62,0.03c-5.25,0-10.67-0.03-15.47-2.16
		c-3.44-1.53-6.33-4.04-9.08-6.61C11.71,210.59,5.55,203.8,0,196.55c28.51,1.65,57.02,3.29,85.53,4.94
		c1.27,0.07,2.65,0.12,3.71-0.59c2.06-1.38,1.47-4.83-0.48-6.37c-1.95-1.54-4.6-1.72-7.08-1.89c-21.49-1.46-42.45-6.94-62.47-14.78
		c-5.91-2.31-4.98-6.05-4.14-11.39C22.7,117.99,45.94,78.98,81.2,46.13c2.5-2.9,3.24-3.38,7.99-9.66c2.21-2.92,1.89-7.05,1.84-11.17
		c-0.09-7.52,0.03-15.04-0.01-22.56c-0.02-2.82-0.14-3.5,3.28-1.85l20.67,7.83c0.97,0.37,0.95,1.74-0.02,2.09
		c-6.11,2.18-11.89,4.32-17.78,6.12c-3.95,1.21-3.29,3.11-3.09,8.69L94.95,33.23z M94.64,45.41v140.86
		C105.94,138.53,102.86,92.04,94.64,45.41z M90.34,47.62c-6.14,47.15-7.33,94.29,0,141.42V47.62z"/>
	<g>
		<g>
			<path d="M110.89,222.53H49.54c-0.7,0-1.26-0.56-1.26-1.26s0.56-1.26,1.26-1.26h61.35c0.7,0,1.26,0.56,1.26,1.26
				S111.58,222.53,110.89,222.53z"/>
		</g>
		<g>
			<g>
				<path d="M45.04,223.01c2.03,0,2.03-3.15,0-3.15C43.01,219.86,43.01,223.01,45.04,223.01L45.04,223.01z"/>
			</g>
		</g>
	</g>
</g>
</svg>
