<?xml version="1.0" encoding="utf-8"?>
<!-- Generator: Adobe Illustrator 17.0.0, SVG Export Plug-In . SVG Version: 6.00 Build 0)  -->
<!DOCTYPE svg PUBLIC "-//W3C//DTD SVG 1.1//EN" "http://www.w3.org/Graphics/SVG/1.1/DTD/svg11.dtd">
<svg version="1.1" id="Layer_1" xmlns="http://www.w3.org/2000/svg" xmlns:xlink="http://www.w3.org/1999/xlink" x="0px" y="0px"
	 width="144.388px" height="180px" viewBox="27.806 10 144.388 180" enable-background="new 27.806 10 144.388 180"
	 xml:space="preserve">
<path fill="#ED1C24" d="M138.313,10L100,73.452L61.684,10H27.806l55.253,90l-55.253,90h33.878L100,126.548L138.313,190h33.881
	l-55.255-90l55.255-90H138.313z M167.715,187.494h-27.987L100,121.7l-39.731,65.794H32.285L86,100L32.285,12.506H60.27L100,78.3
	l39.728-65.794h27.987L113.997,100L167.715,187.494z"/>
<path fill="#F26649" d="M141.143,15.013L100,83.149L58.855,15.013H36.764L88.942,100l-52.179,84.987h22.091L100,116.851
	l41.143,68.136h22.094L111.055,100l52.181-84.987C163.236,15.013,141.143,15.013,141.143,15.013z M158.757,182.481h-16.2
	L100,112.003l-42.56,70.479H41.243L91.884,100L41.243,17.519H57.44L100,87.997l42.557-70.479h16.2L108.114,100L158.757,182.481z"/>
<polygon fill="#FAB49B" points="149.799,177.468 145.388,177.468 99.999,102.306 54.611,177.468 50.2,177.468 97.769,100 
	97.769,100 50.2,22.532 54.611,22.532 99.999,97.694 145.388,22.532 149.799,22.532 102.23,100 102.23,100 "/>
</svg>
