<?xml version="1.0" encoding="utf-8"?>
<!-- Generator: Adobe Illustrator 17.0.0, SVG Export Plug-In . SVG Version: 6.00 Build 0)  -->
<!DOCTYPE svg PUBLIC "-//W3C//DTD SVG 1.1//EN" "http://www.w3.org/Graphics/SVG/1.1/DTD/svg11.dtd">
<svg version="1.1" id="Layer_1" xmlns="http://www.w3.org/2000/svg" xmlns:xlink="http://www.w3.org/1999/xlink" x="0px" y="0px"
	 width="137.644px" height="180px" viewBox="31.178 10 137.644 180" enable-background="new 31.178 10 137.644 180"
	 xml:space="preserve">
<path fill="#ED1C24" d="M45.004,10v27.642h73.878L31.178,190h130.188v-27.642H80.644L168.822,10H45.004z M158.887,164.837v22.684
	H35.465l87.704-152.358H47.483V12.479h117.04L76.344,164.837H158.887z"/>
<path fill="#F26649" d="M49.962,14.958v17.726h77.495L39.753,185.042h116.655v-17.726H72.045l88.178-152.358
	C160.223,14.958,49.962,14.958,49.962,14.958z M153.929,169.795v12.768H44.04l87.704-152.358H52.441V17.437h103.483L67.745,169.795
	H153.929z"/>
<polygon fill="#FAB49B" points="148.972,174.754 148.972,177.606 52.614,177.606 140.32,25.247 57.4,25.247 57.4,22.395 
	147.326,22.395 59.148,174.754 "/>
</svg>
