<?xml version="1.0" encoding="utf-8"?>
<!-- Generator: Adobe Illustrator 17.0.0, SVG Export Plug-In . SVG Version: 6.00 Build 0)  -->
<!DOCTYPE svg PUBLIC "-//W3C//DTD SVG 1.1//EN" "http://www.w3.org/Graphics/SVG/1.1/DTD/svg11.dtd">
<svg version="1.1" id="Layer_1" xmlns="http://www.w3.org/2000/svg" xmlns:xlink="http://www.w3.org/1999/xlink" x="0px" y="0px"
	 width="117.774px" height="180px" viewBox="0 0 117.774 180" enable-background="new 0 0 117.774 180" xml:space="preserve">
<g>
	<g>
		<path d="M91.774,142.229c-1.019-0.01-1.959-0.082-2.875-0.223c-3.427-0.521-6.426-2.133-8.229-4.422l0.785-0.619
			c1.648,2.093,4.417,3.569,7.595,4.053c0.869,0.133,1.764,0.202,2.734,0.211L91.774,142.229z M96.841,137.991
			c-1.927-2.664-3.707-5.474-5.292-8.351c-0.351-0.639-0.713-1.323-0.949-2.051l0.951-0.309c0.209,0.645,0.547,1.281,0.875,1.877
			c1.564,2.842,3.322,5.616,5.226,8.247L96.841,137.991z M61.284,135.721l-0.213-0.977c3.879-0.841,7.718-1.991,11.41-3.418
			l0.36,0.934C69.101,133.704,65.212,134.869,61.284,135.721z M53.364,130.572l-0.053-3.515c0-1.293,0.12-2.629,0.986-3.646
			c0.8-0.938,2.035-1.314,3.137-1.56c0.574-0.128,1.152-0.236,1.732-0.336l0.168,0.986c-0.564,0.096-1.125,0.202-1.684,0.326
			c-0.988,0.219-1.986,0.521-2.593,1.231c-0.657,0.771-0.747,1.896-0.747,2.998l0.053,3.499L53.364,130.572z M70.943,119.074
			l-0.588-0.809c1.229-0.892,2.121-1.951,2.652-3.148c0.775-1.747,0.781-3.818,0.787-5.646l0.005-1.619l1,0.002l-0.005,1.621
			c-0.006,1.926-0.012,4.109-0.873,6.049C73.317,116.884,72.315,118.078,70.943,119.074z M97.161,117.975l-0.732-0.682
			c2.641-2.836,5.046-6.026,7.151-9.479l0.854,0.52C102.294,111.845,99.846,115.089,97.161,117.975z M18.549,114.347
			c-3.779,0-6.161-1.05-7.283-3.21c-0.2-0.386-0.35-0.797-0.46-1.257l0.973-0.232c0.091,0.381,0.213,0.717,0.375,1.028
			c0.934,1.797,3.025,2.671,6.396,2.671c0.688,0,1.43-0.036,2.27-0.111c0.196-0.018,0.397-0.038,0.599-0.063l0.122,0.992
			c-0.212,0.026-0.423,0.047-0.63,0.066C20.038,114.309,19.267,114.347,18.549,114.347z M52.561,114.25l-0.017-1
			c0.343-0.006,0.688-0.018,1.031-0.035c1.004-0.052,2.105-0.204,2.664-0.933c0.427-0.557,0.463-1.378,0.463-2.171l0.5-0.117
			l-0.5,0.002l-0.017-4.903l1-0.004l0.018,5.022c0,0.965-0.052,1.975-0.669,2.779c-0.811,1.058-2.246,1.263-3.405,1.322
			C53.273,114.232,52.917,114.244,52.561,114.25z M42.85,109.004c-0.006-0.209-0.008-0.417-0.008-0.622l0.034-11.395l1,0.004
			l-0.034,11.391c0,0.195,0.002,0.394,0.008,0.593L42.85,109.004z M88.703,108.15l-0.676-0.736c3.146-2.892,5.087-6.749,6.426-9.788
			l0.916,0.404C93.99,101.157,91.986,105.134,88.703,108.15z M87.685,105.906c-0.354-3.972-0.568-8.015-0.636-12.016l1-0.018
			c0.067,3.978,0.279,7.996,0.632,11.943L87.685,105.906z M24.371,103.73l-0.08-12l1-0.006l0.08,12L24.371,103.73z M11.74,97.789
			l-1-0.018l0.208-11.998l1,0.018L11.74,97.789z M109.775,97.511l-0.93-0.367c1.402-3.563,2.595-7.393,3.543-11.38l0.973,0.231
			C112.402,90.028,111.196,93.902,109.775,97.511z M74.826,95.854l-1-0.002c0.007-4,0.011-8,0.013-12h1
			C74.837,87.853,74.833,91.854,74.826,95.854z M56.644,93.093l-0.042-12l1-0.003l0.042,12L56.644,93.093z M99.514,86.711
			l-0.957-0.287c1.138-3.797,2.061-7.705,2.743-11.614l0.984,0.172C101.596,78.93,100.664,82.876,99.514,86.711z M43.913,84.99
			l-1-0.003l0.037-12l1,0.003L43.913,84.99z M88.275,81.915l-0.998-0.055c0.13-2.387,0.314-4.811,0.548-7.203
			c0.172-1.737,0.351-3.301,0.547-4.783l0.992,0.132c-0.196,1.471-0.374,3.024-0.543,4.749
			C88.589,77.132,88.405,79.542,88.275,81.915z M24.213,79.731l-0.08-12l1-0.007l0.08,12L24.213,79.731z M115.441,74.122
			l-0.994-0.116c0.452-3.852,0.718-7.862,0.788-11.921l1,0.018C116.164,66.194,115.896,70.238,115.441,74.122z M12.155,73.792
			l-1-0.018l0.095-5.474c0.038-2.172,0.075-4.346,0.098-6.521l1,0.011c-0.023,2.177-0.061,4.353-0.098,6.528L12.155,73.792z
			 M73.838,71.852c-0.003-4-0.008-8-0.015-12l1-0.002c0.007,4,0.012,8,0.015,12L73.838,71.852z M56.561,69.093l-0.042-12l1-0.003
			l0.042,12L56.561,69.093z M103.642,63.006l-0.998-0.052l0.021-0.4c0.063-1.274,0.093-2.424,0.093-3.512
			c0-2.992-0.236-5.58-0.723-7.911l0.979-0.204c0.501,2.399,0.744,5.054,0.744,8.115c0,1.104-0.031,2.271-0.095,3.565
			L103.642,63.006z M42.987,60.987l0.034-11.999l1,0.001l-0.034,11.972L42.987,60.987z M91.746,58.337l-0.959-0.283
			c1.212-4.107,2.761-7.746,4.734-11.124l0.863,0.505C94.452,50.742,92.935,54.308,91.746,58.337z M24.055,55.731
			c-0.003-0.601-0.005-1.201-0.005-1.802c0-3.037,0.045-6.628,0.383-10.236l0.996,0.093c-0.334,3.568-0.379,7.13-0.379,10.144
			c0,0.599,0.002,1.198,0.005,1.796L24.055,55.731z M114.726,50.181c-0.556-4.359-1.572-8.082-3.107-11.381l0.906-0.422
			c1.58,3.394,2.624,7.213,3.193,11.676L114.726,50.181z M11.247,49.804c-0.153-4.354-0.451-8.252-0.911-11.916l0.992-0.125
			c0.464,3.694,0.764,7.621,0.917,12.006L11.247,49.804z M73.794,47.853l-0.026-8.266c-0.005-1.239-0.011-2.482-0.035-3.726l1-0.02
			c0.024,1.248,0.03,2.497,0.035,3.741l0.026,8.267L73.794,47.853z M57.675,45.119l-0.998-0.055
			c0.256-4.667,0.841-8.578,1.787-11.954l0.963,0.27C58.501,36.685,57.928,40.525,57.675,45.119z M42.717,37.028
			c-0.295-4.403-0.841-8.259-1.667-11.788l0.974-0.228c0.838,3.582,1.392,7.49,1.691,11.948L42.717,37.028z M27.871,32.2
			l-0.94-0.341c1.492-4.121,3.575-7.627,6.189-10.419l0.729,0.684C31.328,24.816,29.317,28.206,27.871,32.2z M93.136,31.84
			l-0.576-0.817c2.401-1.694,4.703-2.547,7.036-2.609l0.265-0.003c1.518,0,3.026,0.348,4.484,1.034l-0.426,0.905
			c-1.323-0.623-2.689-0.939-4.059-0.939l-0.236,0.003C97.493,29.469,95.372,30.263,93.136,31.84z M86.993,31.514
			c-0.208-3.949-0.934-7.864-2.158-11.638l0.951-0.309c1.251,3.856,1.993,7.858,2.205,11.894L86.993,31.514z M8.1,26.175
			c-1.058-3.992-2.408-7.76-4.01-11.2l0.906-0.422c1.627,3.493,2.997,7.317,4.071,11.366L8.1,26.175z M72.317,24.107l-0.103-0.358
			c-0.323-1.101-1.286-3.67-3.223-3.72c-0.001,0-0.001,0-0.002,0c-1.088,0-2.029,0.763-2.735,1.427
			c-0.52,0.489-1.019,1.008-1.484,1.543l-0.754-0.656c0.486-0.56,1.009-1.104,1.553-1.615c0.841-0.791,1.982-1.7,3.367-1.7
			c1.907,0.048,3.423,1.666,4.238,4.439l0.105,0.367L72.317,24.107z M20.474,19.041l-0.38-0.891c-0.423-0.99-0.84-1.885-1.275-2.735
			l0.89-0.456c0.313,0.612,0.617,1.245,0.92,1.918c1.339-2.178,2.841-4.547,4.569-6.632l0.771,0.638
			c-1.901,2.294-3.541,4.971-4.987,7.333L20.474,19.041z M52.296,18.683l-0.459-1.134l0.3-0.121l-0.169-0.106
			c1.968-3.147,4.199-6.713,7.087-9.495l0.693,0.72c-2.799,2.696-4.901,6.056-6.933,9.305L52.296,18.683z M79.679,9.264
			c-1.777-2.431-3.692-4.009-5.856-4.823c-1.108-0.416-2.305-0.627-3.555-0.627L70.07,3.815l-0.014-1l0.208-0.002
			c1.374,0,2.688,0.233,3.91,0.691c2.353,0.885,4.417,2.576,6.312,5.169L79.679,9.264z M45.967,7.396
			c-1.376-1.388-2.853-2.324-4.516-2.863C39.614,3.94,37.552,3.9,35.449,4.416l-0.238-0.972c2.281-0.56,4.534-0.514,6.549,0.139
			c1.793,0.581,3.448,1.627,4.918,3.11L45.967,7.396z M11.232,6.722c-2.891-1.61-6.358-2.073-8.95-1.143
			c-0.764,0.274-1.193,0.64-1.311,1.117L0,6.457C0.201,5.64,0.855,5.028,1.944,4.638c2.863-1.027,6.635-0.539,9.774,1.21
			L11.232,6.722z"/>
		<polygon points="11.563,107.781 12.694,110.074 15.225,110.442 13.394,112.227 13.826,114.748 11.563,113.558 9.299,114.748 
			9.731,112.227 7.9,110.442 10.431,110.074 		"/>
		<polygon points="24.798,86.25 25.93,88.544 28.461,88.912 26.629,90.697 27.062,93.218 24.798,92.027 22.534,93.218 
			22.966,90.697 21.135,88.912 23.666,88.544 		"/>
		<polygon points="42.783,99.944 43.915,102.238 46.445,102.606 44.614,104.391 45.046,106.911 42.783,105.721 40.519,106.911 
			40.951,104.391 39.12,102.606 41.651,102.238 		"/>
		<polygon points="74.091,107.781 75.223,110.074 77.754,110.442 75.923,112.227 76.355,114.748 74.091,113.558 71.828,114.748 
			72.26,112.227 70.429,110.442 72.96,110.074 		"/>
		<polygon points="74.091,64.196 75.223,66.49 77.754,66.858 75.923,68.643 76.355,71.163 74.091,69.973 71.828,71.163 
			72.26,68.643 70.429,66.858 72.96,66.49 		"/>
		<polygon points="57.489,43.369 58.621,45.662 61.152,46.03 59.321,47.815 59.753,50.336 57.489,49.146 55.226,50.336 
			55.658,47.815 53.826,46.03 56.357,45.662 		"/>
		<polygon points="24.886,38.409 26.018,40.703 28.549,41.071 26.718,42.856 27.15,45.376 24.886,44.186 22.623,45.376 
			23.055,42.856 21.224,41.071 23.755,40.703 		"/>
		<polygon points="12.12,3.484 13.252,5.777 15.783,6.145 13.951,7.93 14.384,10.451 12.12,9.261 9.856,10.451 10.288,7.93 
			8.457,6.145 10.988,5.777 		"/>
		<polygon points="33.696,0 34.828,2.293 37.359,2.661 35.527,4.446 35.96,6.967 33.696,5.777 31.432,6.967 31.864,4.446 
			30.033,2.661 32.564,2.293 		"/>
		<polygon points="78.042,3.484 79.174,5.777 81.705,6.145 79.873,7.93 80.306,10.451 78.042,9.261 75.778,10.451 76.211,7.93 
			74.379,6.145 76.91,5.777 		"/>
		<polygon points="110.715,33.072 111.847,35.365 114.378,35.733 112.546,37.518 112.979,40.039 110.715,38.849 108.451,40.039 
			108.884,37.518 107.052,35.733 109.583,35.365 		"/>
		<polygon points="114.111,77.223 115.243,79.516 117.774,79.884 115.942,81.669 116.375,84.19 114.111,83 111.847,84.19 
			112.28,81.669 110.448,79.884 112.979,79.516 		"/>
		<polygon points="79.438,130.964 80.57,133.257 83.1,133.625 81.269,135.41 81.701,137.931 79.438,136.741 77.174,137.931 
			77.606,135.41 75.775,133.625 78.306,133.257 		"/>
	</g>
	<g>
		<g>
			<path d="M43.863,157.859c0.065,0.237,0.097,1.604,0.097,4.101c0,3.251-0.109,6.189-0.323,8.816
				c-0.193,2.131-0.42,3.854-0.678,5.167c-0.173,0.862-0.323,1.497-0.452,1.905c-0.215,0.668-0.506,1.174-0.872,1.519
				c-0.28,0.258-0.689,0.42-1.227,0.484c-0.387,0.042-0.754,0.032-1.098-0.032c-0.603-0.086-1.098-0.344-1.485-0.775
				c-0.56-0.602-1.109-2.196-1.647-4.779c-0.323-1.442-0.581-3.239-0.775-5.392c-0.129-1.464-0.205-2.529-0.226-3.197
				c-0.043-0.732-0.032-2.175,0.032-4.327c0.043-2.261,0.162-3.552,0.356-3.875c0.258-0.366,0.829-0.537,1.711-0.517
				c0.603,0.022,1.023,0.162,1.26,0.42c0.172,0.215,0.29,0.722,0.355,1.518c0.086,0.926,0.15,2.594,0.194,5.005
				c0.021,2.433,0.065,3.983,0.129,4.65c0.172,2.627,0.398,4.736,0.678,6.329c0.344,1.873,0.538,2.777,0.581,2.713
				c0.086-0.085,0.226-0.517,0.42-1.292c0.259-1.033,0.527-2.562,0.808-4.585c0.172-1.248,0.279-2.519,0.323-3.811
				c0.022-0.71,0.054-1.421,0.097-2.131c0.022-0.645,0.037-1.711,0.048-3.196c0.011-1.486,0.006-2.401-0.016-2.745
				c-0.043-0.731-0.14-1.271-0.29-1.615c-0.022-0.108-0.032-0.194-0.032-0.259c0-0.064,0.037-0.166,0.113-0.307
				c0.075-0.139,0.145-0.231,0.21-0.274c0.129-0.108,0.307-0.173,0.532-0.194c0.226-0.022,0.415,0.011,0.566,0.097
				c0.107,0.065,0.231,0.161,0.372,0.29C43.76,157.697,43.842,157.795,43.863,157.859z"/>
			<path d="M47.544,160.733c-0.603-0.021-1.023-0.215-1.26-0.581c-0.086-0.172-0.14-0.742-0.161-1.712
				c-0.022-0.537-0.027-0.86-0.017-0.969c0.011-0.107,0.07-0.204,0.177-0.29c0.151-0.15,0.42-0.279,0.808-0.387
				c0.15-0.043,0.43-0.07,0.839-0.081c0.409-0.011,0.7,0.006,0.872,0.049c0.452,0.108,0.753,0.258,0.904,0.452l0.097,0.162v0.678
				c-0.022,0.624-0.119,1.163-0.291,1.615C49.234,160.421,48.577,160.776,47.544,160.733z M50.03,163.64
				c0.043,0.581,0.07,2.077,0.081,4.488c0.01,2.412,0.005,4.155-0.017,5.231c-0.043,1.076-0.108,1.927-0.193,2.551
				c-0.044,0.28-0.065,0.851-0.065,1.712c0,0.624,0,0.996,0,1.114c0,0.119-0.022,0.2-0.065,0.242
				c-0.129,0.237-0.442,0.415-0.936,0.533c-0.496,0.119-0.969,0.134-1.421,0.048c-0.603-0.085-0.979-0.269-1.13-0.549
				c-0.022-0.065-0.032-0.333-0.032-0.807c-0.044-4.198-0.076-6.588-0.097-7.17c-0.022-0.559-0.022-1.066,0-1.518
				c0.021-0.43,0.032-1.146,0.032-2.147c0-1.001-0.012-1.771-0.032-2.309c-0.044-0.99-0.022-1.732,0.065-2.228
				c0.042-0.323,0.139-0.56,0.29-0.711c0.259-0.279,0.726-0.435,1.405-0.468c0.678-0.032,1.189,0.092,1.533,0.372
				C49.751,162.262,49.944,162.8,50.03,163.64z"/>
			<path d="M62.463,160.119c0.085,0.561,0.091,1.243,0.016,2.051c-0.075,0.807-0.21,1.491-0.404,2.05
				c-0.237,0.711-0.377,1.098-0.42,1.163c-0.216,0.323-0.689,0.496-1.421,0.517c-0.302,0.022-0.576,0.006-0.824-0.048
				c-0.248-0.054-0.447-0.134-0.597-0.242c-0.151-0.108-0.226-0.226-0.226-0.356c0-0.042,0.043-0.161,0.129-0.355
				c0.065-0.215,0.107-0.398,0.129-0.549c0.043-0.129,0.086-0.29,0.129-0.484c0.108-0.537,0.182-1.195,0.226-1.97
				c0.021-0.731,0.011-1.334-0.032-1.809l-0.032-0.129l-0.097,0.161c-0.302,0.517-0.614,1.357-0.936,2.519
				c-0.259,0.819-0.452,1.582-0.581,2.293c-0.495,2.433-0.862,5.307-1.098,8.623c-0.086,1.076-0.108,2.11-0.065,3.1
				c0.022,0.904,0.043,1.41,0.065,1.518c0.043,0.258,0.043,0.441,0,0.549c-0.086,0.216-0.367,0.398-0.839,0.549
				c-0.474,0.173-0.98,0.216-1.518,0.129c-0.668-0.085-1.077-0.279-1.227-0.581c-0.043-0.086-0.075-0.264-0.097-0.533
				c-0.022-0.269-0.043-0.543-0.065-0.824c-0.043-0.387-0.065-0.678-0.065-0.872c-0.022-0.259-0.043-0.463-0.065-0.614
				c-0.064-0.624-0.096-3.38-0.096-8.267c0.021-2.261,0.01-3.811-0.032-4.65c-0.044-2.153,0.01-3.778,0.161-4.876
				c0.022-0.301,0.097-0.517,0.226-0.646s0.355-0.236,0.678-0.323c0.688-0.194,1.302-0.15,1.84,0.129
				c0.259,0.129,0.42,0.409,0.484,0.839c0.108,0.732,0.182,2.099,0.226,4.101c0.021,1.206,0.043,1.97,0.065,2.293
				c0,0.323,0.01,0.624,0.032,0.904v0.323l0.032-0.226c0.021-0.108,0.085-0.517,0.193-1.227c0.108-0.861,0.247-1.7,0.42-2.519
				c0.237-1.055,0.441-1.84,0.614-2.357c0.173-0.538,0.42-0.969,0.743-1.292c0.344-0.366,0.861-0.56,1.55-0.581
				c0.43-0.021,0.796,0.022,1.098,0.129c0.409,0.129,0.764,0.387,1.066,0.775C62.151,158.936,62.355,159.474,62.463,160.119z"/>
			<path d="M72.57,157.923c0.279,0.883,0.333,4.253,0.162,10.108c-0.022,0.797-0.032,1.529-0.032,2.196
				c-0.043,1.356-0.108,2.54-0.194,3.552c-0.151,1.572-0.323,2.648-0.517,3.229c-0.173,0.538-0.409,1.023-0.71,1.453
				c-0.173,0.259-0.41,0.496-0.711,0.711c-0.323,0.216-0.711,0.399-1.163,0.549c-0.689,0.236-1.356,0.323-2.002,0.258
				c-0.819-0.086-1.475-0.376-1.97-0.872c-0.194-0.215-0.356-0.463-0.484-0.743c-0.259-0.645-0.248-1.27,0.032-1.873
				c0.107-0.215,0.258-0.42,0.452-0.614c0.387-0.387,0.839-0.742,1.356-1.066c0.581-0.366,1.13-0.614,1.647-0.742l0.097-0.032
				l0.032-0.388c0.021-0.258,0.032-0.829,0.032-1.711v-1.324l-0.129,0.291c-0.216,0.452-0.441,0.786-0.678,1.001
				c-0.173,0.173-0.409,0.302-0.71,0.387c-0.151,0.043-0.404,0.06-0.759,0.048c-0.356-0.01-0.598-0.037-0.727-0.08
				c-0.668-0.172-1.152-0.452-1.453-0.839c-0.367-0.452-0.614-1.184-0.742-2.196c-0.086-0.753-0.097-1.959-0.032-3.617
				c0.085-2.239,0.408-4.026,0.969-5.361c0.258-0.688,0.57-1.243,0.936-1.663c0.366-0.42,0.785-0.727,1.26-0.921
				c0.517-0.215,1.038-0.301,1.566-0.259c0.527,0.044,0.941,0.216,1.243,0.517l0.097,0.065l0.032-0.129
				c0.15-0.43,0.624-0.668,1.421-0.711c0.344-0.022,0.678,0.022,1.001,0.129C72.258,157.386,72.484,157.6,72.57,157.923z
				 M68.534,175.297v-0.129l-0.259,0.129c-0.302,0.151-0.635,0.399-1.001,0.743c-0.151,0.151-0.27,0.302-0.355,0.452
				c-0.108,0.259-0.168,0.522-0.177,0.791c-0.012,0.27,0.07,0.565,0.242,0.888c0.065,0.151,0.167,0.302,0.307,0.452
				c0.139,0.151,0.242,0.226,0.307,0.226c0.021,0,0.075-0.065,0.161-0.194c0.279-0.43,0.474-0.958,0.581-1.582
				C68.469,176.384,68.534,175.793,68.534,175.297z M69.018,163.478c0.085-0.43,0.118-1.174,0.097-2.228
				c0-0.366-0.032-0.667-0.097-0.904c-0.194-0.689-0.452-1.216-0.775-1.582c-0.086-0.086-0.14-0.129-0.161-0.129
				c-0.065,0-0.194,0.355-0.388,1.066c-0.215,0.775-0.366,1.937-0.452,3.487c-0.043,0.711-0.065,1.868-0.065,3.472
				c0,1.604,0.011,2.557,0.032,2.858v0.065l0.065,0.484c0.022,0,0.054-0.042,0.097-0.129v-0.032c0.065-0.129,0.162-0.388,0.29-0.775
				c0.173-0.517,0.42-1.399,0.743-2.648c0.259-1.033,0.43-1.84,0.517-2.422C68.965,163.758,68.997,163.564,69.018,163.478z"/>
			<path d="M83.033,162.832c0.021,0.237,0.027,0.813,0.016,1.728c-0.011,0.916-0.027,1.664-0.048,2.245
				c-0.173,3.014-0.313,5.059-0.42,6.135c-0.108,0.926-0.226,1.723-0.355,2.389c-0.173,0.797-0.377,1.443-0.614,1.938
				c-0.215,0.452-0.452,0.796-0.71,1.033c-0.388,0.387-0.851,0.645-1.389,0.775c-0.43,0.086-0.85,0.108-1.259,0.065
				c-0.775-0.108-1.4-0.387-1.873-0.839c-0.754-0.711-1.227-1.894-1.421-3.553c-0.237-1.83-0.29-3.832-0.162-6.006
				c0.086-1.528,0.226-2.863,0.42-4.005c0.085-0.517,0.139-0.882,0.161-1.097c0.173-1.12,0.409-2.121,0.711-3.004
				c0.236-0.645,0.495-1.173,0.775-1.582c0.216-0.323,0.474-0.602,0.775-0.839c0.474-0.387,1.076-0.581,1.808-0.581
				c0.668,0,1.195,0.183,1.582,0.549c0.086,0.086,0.151,0.134,0.194,0.145c0.043,0.012,0.182,0.135,0.42,0.372
				c0.215,0.216,0.377,0.367,0.484,0.452c0.086,0.065,0.173,0.216,0.259,0.452c0.323,0.84,0.517,1.679,0.581,2.519
				C83.011,162.488,83.033,162.725,83.033,162.832z M80.805,168.225c0.085-0.731,0.139-1.906,0.162-3.52
				c0.021-1.615,0-2.745-0.065-3.391c-0.086-0.775-0.216-1.334-0.388-1.679c-0.129-0.258-0.355-0.527-0.678-0.807l-0.194-0.162
				l-0.065,0.097c-0.193,0.237-0.377,0.711-0.549,1.421c-0.323,1.271-0.517,3.434-0.581,6.491c-0.086,3.186,0.032,6.082,0.356,8.686
				c0.15,1.163,0.258,1.744,0.323,1.744c0.022,0,0.075-0.108,0.162-0.323c0.258-0.537,0.484-1.194,0.678-1.97
				c0.388-1.528,0.657-3.455,0.808-5.78C80.793,168.602,80.805,168.333,80.805,168.225z"/>
		</g>
	</g>
</g>
</svg>
