<?xml version="1.0" encoding="utf-8"?>
<!-- Generator: Adobe Illustrator 17.0.0, SVG Export Plug-In . SVG Version: 6.00 Build 0)  -->
<!DOCTYPE svg PUBLIC "-//W3C//DTD SVG 1.1//EN" "http://www.w3.org/Graphics/SVG/1.1/DTD/svg11.dtd">
<svg version="1.1" id="Layer_1" xmlns="http://www.w3.org/2000/svg" xmlns:xlink="http://www.w3.org/1999/xlink" x="0px" y="0px"
	 width="130.62px" height="180px" viewBox="0 0 130.62 180" enable-background="new 0 0 130.62 180" xml:space="preserve">
<g>
	<g>
		<path d="M64.706,132.987c-3.988-0.084-8.003-0.758-11.934-2.005l0.303-0.953c3.839,1.218,7.759,1.877,11.652,1.958L64.706,132.987
			z M76.705,131.417l-0.273-0.962c3.758-1.067,7.4-2.67,10.825-4.763l0.521,0.854C84.276,128.685,80.551,130.324,76.705,131.417z
			 M41.827,125.829c-3.428-2.203-6.537-4.83-9.24-7.808l0.74-0.672c2.645,2.913,5.686,5.482,9.041,7.638L41.827,125.829z
			 M97.197,118.955l-0.723-0.691c2.772-2.905,5.11-6.125,6.948-9.57l0.883,0.471C102.425,112.689,100.033,115.983,97.197,118.955z
			 M60.313,116.296c-3.953-0.752-7.793-2.431-11.104-4.856l0.591-0.807c3.192,2.338,6.892,3.956,10.7,4.681L60.313,116.296z
			 M72.422,115.819l-0.262-0.965c3.751-1.017,7.323-2.904,10.331-5.458l0.646,0.762C80.019,112.807,76.313,114.764,72.422,115.819z
			 M25.776,108.02c-0.583-1.194-1.111-2.426-1.568-3.661c-0.934-2.521-1.622-5.176-2.045-7.891l0.988-0.154
			c0.413,2.649,1.084,5.238,1.995,7.697c0.446,1.204,0.961,2.405,1.529,3.569L25.776,108.02z M41.173,102.367
			c-2.025-3.615-3.196-7.521-3.479-11.608l0.998-0.069c0.272,3.939,1.4,7.704,3.353,11.189L41.173,102.367z M90.486,100.521
			l-0.906-0.422c1.634-3.52,2.463-7.26,2.463-11.118l-0.001-0.298c-0.011-0.853-0.063-1.708-0.158-2.543l0.994-0.112
			c0.098,0.868,0.153,1.758,0.164,2.645l0.001,0.309C93.043,92.986,92.183,96.868,90.486,100.521z M108.374,97.766l-0.982-0.191
			c0.492-2.531,0.741-5.151,0.74-7.787c0-1.33-0.063-2.682-0.189-4.018l0.996-0.094c0.128,1.368,0.193,2.751,0.193,4.112
			C109.133,92.487,108.878,95.172,108.374,97.766z M22.964,84.49l-0.993-0.119c0.481-4.013,1.487-7.957,2.989-11.722l0.929,0.371
			C24.419,76.704,23.435,80.563,22.964,84.49z M40.539,79.17l-0.926-0.378c1.522-3.728,3.918-7.165,6.931-9.941l0.678,0.735
			C44.316,72.264,42.005,75.577,40.539,79.17z M88.002,75.13c-2.079-3.318-4.9-6.218-8.159-8.384l0.553-0.833
			c3.377,2.245,6.3,5.249,8.454,8.686L88.002,75.13z M105.285,74.238c-1.395-3.737-3.26-7.255-5.546-10.455l0.814-0.581
			c2.336,3.271,4.243,6.867,5.669,10.687L105.285,74.238z M57.312,63.68l-0.309-0.951c2.57-0.834,5.247-1.292,7.958-1.363
			c1.372-0.034,2.749,0.041,4.111,0.225l-0.135,0.991c-1.31-0.178-2.642-0.247-3.951-0.216C62.373,62.433,59.79,62.876,57.312,63.68
			z M31.694,62.713l-0.797-0.604c2.164-2.85,4.646-5.381,7.378-7.524c0.359-0.283,0.768-0.621,1.064-0.982l0.773,0.634
			c-0.358,0.437-0.817,0.819-1.22,1.135C36.227,57.461,33.805,59.931,31.694,62.713z M91.602,55.215
			c-0.93-0.733-1.897-1.425-2.874-2.059L87.9,52.618l0.922-0.35c2.431-0.922,4.646-2.4,6.771-4.519l0.705,0.708
			c-1.969,1.963-4.018,3.404-6.238,4.383c0.732,0.502,1.457,1.033,2.16,1.587L91.602,55.215z M32.293,45.947
			c-1.786-1.854-3.352-3.906-4.656-6.098c-0.801-1.348-1.506-2.751-2.09-3.947l0.898-0.438c0.575,1.177,1.268,2.557,2.051,3.874
			c1.265,2.126,2.785,4.116,4.518,5.916L32.293,45.947z M67.257,45.437l-0.068-0.998c4.024-0.276,7.886-1.441,11.167-3.369
			l0.506,0.862C75.447,43.938,71.435,45.15,67.257,45.437z M55.263,43.678c-3.516-1.339-6.552-3.319-9.026-5.885
			c-0.32-0.333-0.631-0.672-0.934-1.019l0.754-0.657c0.291,0.334,0.591,0.662,0.899,0.981c2.371,2.459,5.285,4.358,8.663,5.645
			L55.263,43.678z M103.423,38.682l-0.861-0.509c0.536-0.905,1.06-1.813,1.579-2.713l0.745-1.288
			c1.389-2.392,2.727-4.422,4.089-6.205l0.795,0.607c-1.337,1.749-2.651,3.744-4.019,6.1l-0.744,1.286
			C104.485,36.863,103.96,37.775,103.423,38.682z M87.633,33.575l-0.805-0.593c1.452-1.971,2.808-4.099,4.118-6.157
			c0.819-1.286,1.639-2.573,2.487-3.834l0.83,0.559c-0.844,1.254-1.659,2.534-2.474,3.813C90.47,29.435,89.105,31.577,87.633,33.575
			z M38.667,26.684c-1.071-1.874-2.128-3.701-3.294-5.44c-1.022-1.526-2.153-3.007-3.36-4.402l0.756-0.654
			c1.234,1.426,2.39,2.939,3.436,4.5c1.184,1.767,2.251,3.61,3.332,5.501L38.667,26.684z M19.527,25.743
			c-2.62-2.849-6.166-4.891-9.984-5.749l0.219-0.976c4.016,0.902,7.745,3.05,10.502,6.047L19.527,25.743z M118.533,20.89
			l-0.43-0.902c1.807-0.861,3.689-1.365,5.599-1.498c0.319-0.022,0.649-0.039,0.984-0.055c1.821-0.09,3.704-0.183,4.724-1.248
			l0.723,0.692c-1.296,1.351-3.475,1.458-5.397,1.554c-0.327,0.016-0.651,0.032-0.965,0.054
			C121.988,19.611,120.227,20.083,118.533,20.89z M-0.117,14.579l-0.097-6.379c-0.004-0.313-0.043-0.708-0.085-1.139
			C-0.356,6.48-0.42,5.821-0.42,5.2c0-0.953,0.15-1.609,0.473-2.064c0.173-0.246,0.39-0.47,0.645-0.664l0.606,0.795
			C1.131,3.4,0.985,3.55,0.87,3.713C0.677,3.985,0.58,4.485,0.58,5.2c0,0.572,0.062,1.205,0.116,1.764
			c0.045,0.461,0.085,0.885,0.09,1.22l0.097,6.381L-0.117,14.579z M101.879,14.452l-0.688-0.727c3.024-2.861,6.308-5.266,9.76-7.146
			l0.479,0.878C108.054,9.296,104.84,11.65,101.879,14.452z M23.16,8.99c-3.351-2.252-6.931-3.98-10.639-5.137l0.298-0.955
			c3.8,1.186,7.467,2.956,10.898,5.262L23.16,8.99z M130.04,7.323l-0.047-2.059c-0.016-0.712-0.056-1.335-0.4-1.746
			c-0.327-0.392-0.923-0.574-1.874-0.574l-0.289,0.005c-1.628,0.047-3.278,0.222-4.906,0.518l-0.18-0.983
			c1.678-0.306,3.379-0.486,5.057-0.535l0.318-0.005c0.799,0,1.942,0.097,2.642,0.933c0.551,0.659,0.614,1.495,0.633,2.366
			L131.04,7.3L130.04,7.323z"/>
		<polygon points="13.105,0 14.418,2.661 17.354,3.087 15.229,5.158 15.731,8.082 13.105,6.702 10.479,8.082 10.98,5.158 
			8.856,3.087 11.792,2.661 		"/>
		<polygon points="113.074,2.318 114.387,4.978 117.323,5.405 115.199,7.476 115.7,10.4 113.074,9.019 110.448,10.4 110.95,7.476 
			108.825,5.405 111.761,4.978 		"/>
		<polygon points="107.657,26.6 108.97,29.261 111.906,29.687 109.781,31.758 110.283,34.682 107.657,33.302 105.031,34.682 
			105.532,31.758 103.408,29.687 106.344,29.261 		"/>
		<polygon points="66.51,41.443 67.823,44.103 70.759,44.53 68.635,46.601 69.136,49.525 66.51,48.144 63.884,49.525 64.386,46.601 
			62.261,44.53 65.197,44.103 		"/>
		<polygon points="23.353,26.6 24.666,29.261 27.602,29.687 25.478,31.758 25.979,34.682 23.353,33.302 20.727,34.682 
			21.229,31.758 19.104,29.687 22.04,29.261 		"/>
		<polygon points="22.368,77.026 23.681,79.687 26.617,80.113 24.493,82.184 24.994,85.108 22.368,83.728 19.742,85.108 
			20.244,82.184 18.119,80.113 21.055,79.687 		"/>
		<polygon points="44.846,101.689 46.159,104.35 49.095,104.776 46.971,106.847 47.472,109.771 44.846,108.391 42.22,109.771 
			42.722,106.847 40.598,104.776 43.533,104.35 		"/>
		<polygon points="101.364,108.474 102.677,111.134 105.613,111.561 103.488,113.631 103.99,116.555 101.364,115.175 
			98.738,116.555 99.239,113.631 97.115,111.561 100.051,111.134 		"/>
		<polygon points="89.397,73.88 90.71,76.54 93.646,76.967 91.522,79.038 92.023,81.962 89.397,80.581 86.771,81.962 87.273,79.038 
			85.148,76.967 88.084,76.54 		"/>
	</g>
	<g>
		<g>
			<path d="M38.738,150.632c0.474,0.125,0.699,0.306,0.674,0.543c-0.025,0.237-0.288,0.431-0.787,0.58
				c-0.175,0.025-0.612,0.051-1.312,0.075l-1.011,0.037v0.075c0.075,0.25,0.125,0.937,0.15,2.061
				c0.05,1.398,0.081,4.246,0.094,8.541c0.012,4.296,0.006,6.93-0.019,7.904c-0.025,0.475-0.05,1.111-0.075,1.91
				c-0.025,1.224-0.063,2.348-0.112,3.371c-0.025,0.4-0.1,0.662-0.225,0.787c-0.275,0.274-0.725,0.462-1.348,0.562
				c-0.45,0.075-0.887,0.075-1.312,0c-0.699-0.1-1.149-0.313-1.348-0.637l-0.113-0.149v-3.709c0.025-2.821,0.075-4.795,0.15-5.919
				c0-0.174,0.012-0.687,0.038-1.535c0.075-2.073,0.15-3.771,0.225-5.095c0-0.3,0.012-0.762,0.038-1.387
				c0.1-1.922,0.188-3.583,0.262-4.981c0.075-0.874,0.15-1.437,0.225-1.686c0.05-0.125,0.069-0.188,0.056-0.188
				s-0.219-0.013-0.618-0.038c-0.75-0.05-1.336-0.137-1.761-0.262c-0.4-0.1-0.6-0.243-0.6-0.431s0.2-0.331,0.6-0.431
				c0.674-0.2,2.01-0.275,4.008-0.226C36.964,150.457,38.338,150.532,38.738,150.632z"/>
			<path d="M49.526,175.43c0.099,0.226,0.131,0.4,0.093,0.524c-0.037,0.126-0.168,0.275-0.393,0.45
				c-0.35,0.274-0.8,0.412-1.349,0.412c-0.475,0-0.937-0.075-1.386-0.225c-0.449-0.15-0.762-0.388-0.936-0.712
				c-0.15-0.274-0.288-0.675-0.412-1.199l-0.075-0.337l-0.15,0.375c-0.425,0.949-0.861,1.561-1.311,1.835
				c-0.524,0.3-1.124,0.375-1.798,0.225c-0.6-0.124-1.112-0.474-1.536-1.049c-0.325-0.424-0.549-0.961-0.674-1.61
				c-0.1-0.549-0.163-1.349-0.187-2.397c-0.025-1.998,0.137-3.621,0.487-4.87c0.274-1.023,0.662-1.785,1.161-2.285
				c0.3-0.274,0.662-0.486,1.086-0.637c1.074-0.35,2.023-0.274,2.847,0.225l0.112,0.075v-0.263c0-1.099,0.075-2.771,0.225-5.02
				c0.025-0.398,0.038-1.11,0.038-2.135c0-1.049-0.013-1.735-0.038-2.061c-0.15-1.049-0.313-1.772-0.487-2.173
				c-0.15-0.3-0.275-0.449-0.375-0.449c-0.05,0-0.144,0.081-0.281,0.243c-0.137,0.163-0.243,0.307-0.318,0.431
				c-0.5,0.75-0.861,1.961-1.086,3.634c-0.05,0.425-0.15,1.124-0.299,2.098c-0.1,0.625-0.175,1.074-0.225,1.349
				c-0.025,0.325-0.063,0.563-0.112,0.712c-0.05,0.15-0.119,0.275-0.206,0.375c-0.088,0.1-0.219,0.175-0.393,0.225
				c-0.15,0.05-0.375,0.088-0.674,0.112c-0.625,0.025-1.037-0.087-1.236-0.337l-0.112-0.112l0.038-0.412
				c0-0.399,0.062-1.012,0.187-1.836c0.125-0.824,0.262-1.648,0.412-2.473c0.15-0.823,0.274-1.423,0.375-1.798
				c0.174-0.549,0.362-1.036,0.562-1.461c0.574-1.148,1.511-1.86,2.81-2.135c0.2-0.024,0.493-0.038,0.88-0.038
				c0.387,0,0.68,0.014,0.88,0.038c1.173,0.25,2.047,0.799,2.622,1.647c0.399,0.6,0.687,1.461,0.861,2.585
				c0.1,0.7,0.137,2.572,0.113,5.619c0,3.272-0.038,5.444-0.113,6.519c-0.025,0.425-0.037,1.517-0.037,3.277s0,2.767,0,3.016
				C49.189,174.182,49.326,174.855,49.526,175.43z M45.068,167.039l0.038-0.6l-0.15-0.188c-0.1-0.149-0.238-0.312-0.412-0.486
				c-0.425-0.425-0.725-0.649-0.899-0.675c-0.125,0-0.288,0.338-0.487,1.012c-0.15,0.5-0.262,1.036-0.337,1.61
				c-0.05,0.325-0.069,0.962-0.056,1.911c0.012,0.949,0.043,1.773,0.094,2.472c0.1,1.499,0.162,2.224,0.187,2.173
				c0.025,0,0.113-0.199,0.262-0.599c0.275-0.75,0.836-2.673,1.686-5.77C45.043,167.701,45.068,167.414,45.068,167.039z"/>
			<path d="M62.899,158.835c0.024,0.25,0.043,0.693,0.056,1.33c0.012,0.637,0.024,1.306,0.037,2.004
				c0.012,0.699,0.025,1.393,0.038,2.079c0.012,0.688,0.006,1.193-0.019,1.518c-0.075,1.823-0.225,3.459-0.45,4.907
				c-0.475,2.747-1.161,4.645-2.06,5.693c-0.425,0.524-1.049,0.874-1.873,1.049c-0.175,0.05-0.487,0.081-0.937,0.094
				c-0.45,0.013-0.774,0.006-0.974-0.019c-0.875-0.149-1.586-0.425-2.135-0.824c-0.45-0.3-0.824-0.687-1.124-1.161
				c-0.549-0.799-0.937-1.873-1.161-3.222c-0.175-1.023-0.3-2.497-0.375-4.42c-0.075-2.197-0.075-4.171,0-5.919
				c0.05-0.824,0.087-1.485,0.112-1.985c0.024-0.499,0.05-0.961,0.075-1.386c0.024-0.649,0.037-1.036,0.037-1.161
				c0.175-3.021,0.462-4.92,0.862-5.694c0.125-0.249,0.3-0.437,0.524-0.562c0.375-0.2,0.824-0.274,1.349-0.226
				c0.599,0.075,0.986,0.288,1.161,0.638c0.15,0.225,0.237,0.587,0.262,1.086c0.024,0.5,0.024,1.536,0,3.109
				c-0.05,2.447-0.025,4.97,0.075,7.566c0,0.226,0.013,0.644,0.038,1.255c0.025,0.612,0.038,1.03,0.038,1.255
				c0.15,4.446,0.412,7.243,0.787,8.392c0.1,0.35,0.244,0.718,0.431,1.105c0.188,0.387,0.306,0.58,0.356,0.58
				c0.05,0,0.188-0.188,0.412-0.562c0.549-0.849,0.974-2.248,1.273-4.196c0.2-1.323,0.35-2.646,0.45-3.971
				c0.1-1.397,0.15-2.771,0.15-4.12c0-3.097-0.038-5.419-0.112-6.968c-0.05-1.099-0.163-2.048-0.337-2.847
				c-0.1-0.549-0.112-0.887-0.037-1.012c0.049-0.075,0.112-0.188,0.187-0.337c0.174-0.35,0.5-0.512,0.974-0.487
				c0.225,0,0.387,0.025,0.487,0.075c0.1,0.05,0.244,0.175,0.431,0.374c0.188,0.2,0.3,0.344,0.337,0.432
				c0.038,0.087,0.081,0.318,0.131,0.692c0.025,0.3,0.05,0.625,0.075,0.975c0.05,0.274,0.075,0.512,0.075,0.711
				c0.05,0.5,0.112,1.137,0.188,1.911c0.024,0.25,0.05,0.649,0.075,1.198C62.836,158.261,62.874,158.61,62.899,158.835z"/>
			<path d="M77.208,154.078c0.1,0.649,0.105,1.441,0.018,2.378s-0.242,1.73-0.467,2.379c-0.275,0.824-0.438,1.273-0.488,1.349
				c-0.25,0.375-0.799,0.575-1.648,0.6c-0.35,0.025-0.668,0.007-0.955-0.057c-0.287-0.062-0.518-0.155-0.693-0.28
				c-0.174-0.125-0.262-0.263-0.262-0.412c0-0.05,0.051-0.188,0.15-0.412c0.074-0.25,0.125-0.462,0.15-0.637
				c0.049-0.15,0.1-0.338,0.148-0.563c0.125-0.624,0.213-1.386,0.264-2.285c0.023-0.849,0.012-1.548-0.039-2.098l-0.037-0.149
				l-0.111,0.188c-0.35,0.599-0.713,1.573-1.086,2.922c-0.301,0.949-0.525,1.835-0.676,2.659c-0.574,2.822-0.998,6.156-1.273,10.002
				c-0.1,1.249-0.125,2.448-0.074,3.597c0.023,1.049,0.049,1.636,0.074,1.76c0.051,0.3,0.051,0.513,0,0.638
				c-0.1,0.25-0.424,0.462-0.975,0.637c-0.549,0.2-1.135,0.25-1.76,0.149c-0.773-0.1-1.248-0.324-1.423-0.674
				c-0.051-0.1-0.088-0.306-0.111-0.618c-0.025-0.313-0.051-0.631-0.076-0.955c-0.049-0.45-0.074-0.787-0.074-1.012
				c-0.025-0.3-0.051-0.537-0.074-0.712c-0.076-0.724-0.113-3.92-0.113-9.59c0.025-2.622,0.012-4.42-0.037-5.395
				c-0.051-2.497,0.012-4.383,0.188-5.656c0.023-0.35,0.111-0.6,0.262-0.749c0.15-0.15,0.412-0.274,0.787-0.375
				c0.799-0.225,1.51-0.174,2.135,0.15c0.299,0.149,0.486,0.475,0.563,0.974c0.125,0.85,0.211,2.435,0.262,4.758
				c0.025,1.398,0.049,2.285,0.074,2.659c0,0.375,0.014,0.725,0.039,1.049v0.375l0.037-0.263c0.023-0.124,0.1-0.599,0.225-1.423
				c0.125-0.999,0.287-1.973,0.486-2.922c0.275-1.224,0.512-2.136,0.713-2.735c0.199-0.623,0.486-1.123,0.861-1.498
				c0.398-0.424,0.998-0.649,1.797-0.674c0.5-0.025,0.924,0.024,1.273,0.149c0.475,0.15,0.887,0.449,1.236,0.899
				C76.845,152.705,77.083,153.328,77.208,154.078z"/>
			<path d="M89.607,158.835c0.025,0.25,0.043,0.693,0.057,1.33c0.012,0.637,0.023,1.306,0.037,2.004
				c0.012,0.699,0.025,1.393,0.037,2.079c0.014,0.688,0.006,1.193-0.018,1.518c-0.076,1.823-0.225,3.459-0.449,4.907
				c-0.477,2.747-1.162,4.645-2.061,5.693c-0.426,0.524-1.049,0.874-1.873,1.049c-0.176,0.05-0.488,0.081-0.938,0.094
				s-0.773,0.006-0.975-0.019c-0.873-0.149-1.586-0.425-2.135-0.824c-0.449-0.3-0.824-0.687-1.123-1.161
				c-0.551-0.799-0.938-1.873-1.162-3.222c-0.174-1.023-0.299-2.497-0.375-4.42c-0.074-2.197-0.074-4.171,0-5.919
				c0.051-0.824,0.088-1.485,0.113-1.985c0.025-0.499,0.051-0.961,0.074-1.386c0.025-0.649,0.039-1.036,0.039-1.161
				c0.174-3.021,0.461-4.92,0.861-5.694c0.125-0.249,0.299-0.437,0.523-0.562c0.375-0.2,0.824-0.274,1.35-0.226
				c0.6,0.075,0.986,0.288,1.16,0.638c0.15,0.225,0.238,0.587,0.264,1.086c0.023,0.5,0.023,1.536,0,3.109
				c-0.051,2.447-0.025,4.97,0.074,7.566c0,0.226,0.012,0.644,0.037,1.255c0.025,0.612,0.037,1.03,0.037,1.255
				c0.15,4.446,0.412,7.243,0.787,8.392c0.1,0.35,0.244,0.718,0.432,1.105c0.186,0.387,0.305,0.58,0.355,0.58
				c0.049,0,0.188-0.188,0.412-0.562c0.549-0.849,0.973-2.248,1.273-4.196c0.199-1.323,0.35-2.646,0.449-3.971
				c0.1-1.397,0.15-2.771,0.15-4.12c0-3.097-0.037-5.419-0.113-6.968c-0.051-1.099-0.162-2.048-0.336-2.847
				c-0.102-0.549-0.113-0.887-0.039-1.012c0.051-0.075,0.113-0.188,0.188-0.337c0.176-0.35,0.5-0.512,0.975-0.487
				c0.225,0,0.387,0.025,0.486,0.075s0.244,0.175,0.432,0.374c0.188,0.2,0.299,0.344,0.336,0.432
				c0.039,0.087,0.082,0.318,0.133,0.692c0.023,0.3,0.049,0.625,0.074,0.975c0.049,0.274,0.074,0.512,0.074,0.711
				c0.051,0.5,0.113,1.137,0.188,1.911c0.025,0.25,0.051,0.649,0.076,1.198C89.544,158.261,89.581,158.61,89.607,158.835z"/>
			<path d="M100.322,170.485c0.199,0.999,0.211,1.973,0.037,2.922c-0.125,0.674-0.338,1.205-0.637,1.592
				c-0.301,0.388-0.75,0.73-1.35,1.03c-0.648,0.325-1.373,0.537-2.172,0.637c-0.225,0.025-0.543,0.032-0.955,0.019
				c-0.412-0.012-0.707-0.03-0.881-0.056c-0.924-0.15-1.611-0.549-2.061-1.199c-0.225-0.324-0.4-0.836-0.523-1.535
				c-0.127-0.574-0.113-1.111,0.037-1.611c0.1-0.374,0.225-0.648,0.375-0.824c0.098-0.149,0.262-0.262,0.486-0.337
				c0.074-0.024,0.15-0.062,0.225-0.112c0.199-0.125,0.449-0.162,0.75-0.112c0.098,0,0.211,0.025,0.336,0.075
				c0.076,0.024,0.213,0.063,0.412,0.112c0.25,0.074,0.424,0.188,0.525,0.337c0.049,0.1,0.037,0.275-0.039,0.524
				c-0.074,0.2-0.125,0.388-0.148,0.562c-0.025,0.226-0.02,0.494,0.018,0.806c0.039,0.313,0.1,0.618,0.188,0.918
				s0.193,0.524,0.318,0.674l0.037,0.112l0.15-0.149c0.199-0.175,0.35-0.474,0.449-0.899c0.125-0.474,0.162-1.035,0.113-1.686
				c-0.125-1.522-0.861-3.908-2.211-7.154c-0.35-0.874-0.699-1.86-1.049-2.96c-0.5-1.473-0.799-2.709-0.898-3.708
				c-0.1-0.699-0.088-1.448,0.037-2.248c0.225-1.772,0.725-3.121,1.498-4.046c0.699-0.824,1.674-1.261,2.922-1.311
				c0.525-0.024,0.986,0.025,1.387,0.149c0.773,0.25,1.273,0.8,1.498,1.648c0.051,0.2,0.063,0.475,0.037,0.824
				c-0.025,0.624-0.148,1.111-0.373,1.461c-0.201,0.325-0.463,0.487-0.787,0.487c-0.125,0-0.213-0.006-0.264-0.02
				c-0.049-0.012-0.1-0.05-0.148-0.112c-0.051-0.062-0.094-0.144-0.131-0.243c-0.039-0.1-0.082-0.249-0.131-0.449
				c-0.076-0.274-0.15-0.512-0.227-0.712c-0.1-0.249-0.219-0.493-0.355-0.73s-0.23-0.356-0.281-0.356c-0.1,0-0.25,0.325-0.449,0.975
				c-0.523,1.573-0.549,3.284-0.074,5.132c0.25,0.899,0.623,1.936,1.123,3.109c0.25,0.574,0.688,1.561,1.313,2.959
				C99.371,167.002,99.996,168.837,100.322,170.485z"/>
		</g>
	</g>
</g>
</svg>
