<?xml version="1.0" encoding="utf-8"?>
<!-- Generator: Adobe Illustrator 17.0.0, SVG Export Plug-In . SVG Version: 6.00 Build 0)  -->
<!DOCTYPE svg PUBLIC "-//W3C//DTD SVG 1.1//EN" "http://www.w3.org/Graphics/SVG/1.1/DTD/svg11.dtd">
<svg version="1.1" id="Layer_1" xmlns="http://www.w3.org/2000/svg" xmlns:xlink="http://www.w3.org/1999/xlink" x="0px" y="0px"
	 width="128.837px" height="180px" viewBox="0 0 128.837 180" enable-background="new 0 0 128.837 180" xml:space="preserve">
<g>
	<g>
		<path d="M108.704,156.275l-0.215-5.762l0.927-0.034l0.14,3.778l3.971-3.59l0.621,0.688L108.704,156.275z M122.395,143.897
			l-0.621-0.688l5.102-4.611c0.515-0.466,0.981-0.928,1.03-1.47l0.005-0.096c0-0.406-0.232-0.833-0.728-1.342l0.663-0.648
			c0.425,0.437,0.992,1.118,0.992,1.99c0,0.06-0.003,0.121-0.008,0.183c-0.079,0.87-0.701,1.499-1.332,2.07L122.395,143.897z
			 M103.273,143.829c-2.899-0.288-7.187-0.861-10.936-2.51l0.373-0.849c3.629,1.596,7.818,2.156,10.655,2.438L103.273,143.829z
			 M84.099,133.735c-1.44-2.809-2.291-6.274-2.679-10.904l0.923-0.078c0.377,4.506,1.197,7.862,2.581,10.559L84.099,133.735z
			 M106.612,131.061c-0.499,0-1.049-0.061-1.732-0.19c-1.814-0.344-3.569-0.72-5.078-1.528l0.438-0.816
			c1.394,0.746,3.072,1.104,4.813,1.434c1.871,0.356,2.859,0.181,3.39-0.521c0.248-0.328,0.372-0.779,0.403-1.46l0.925,0.04
			c-0.025,0.593-0.116,1.354-0.589,1.979C108.648,130.704,107.784,131.061,106.612,131.061z M118.925,128.29l-8.294-7.407
			l0.617-0.691l8.294,7.407L118.925,128.29z M19.364,122.099l-0.144-0.001l0.018-0.927l0.126,0.001c1.141,0,2.408-0.126,3.876-0.385
			c1.049-0.186,1.965-0.387,2.565-0.991c0.728-0.731,0.826-1.927,0.826-3.002l-0.003-0.362l0.927-0.014l0.003,0.378
			c0,1.261-0.13,2.684-1.095,3.653c-0.855,0.861-2.13,1.086-3.061,1.25C21.88,121.968,20.559,122.099,19.364,122.099z
			 M58.629,121.842c-0.23,0-0.459-0.006-0.685-0.014l-5.536-0.195l0.033-0.927l5.537,0.195c0.872,0.033,1.883,0.092,2.666-0.438
			c0.539-0.365,0.885-0.966,1.059-1.838l0.909,0.181c-0.224,1.124-0.697,1.917-1.448,2.424
			C60.361,121.772,59.387,121.842,58.629,121.842z M95.498,119.234l-0.001-0.577l0.015-10.545l0.927,0.002l-0.015,10.68l0.001,0.435
			L95.498,119.234z M11.751,114.952c-0.387-3.507-0.642-7.145-0.778-11.124l0.926-0.033c0.136,3.955,0.389,7.571,0.774,11.055
			L11.751,114.952z M47.146,114.142l-0.927-0.005l0.061-11.12l0.927,0.005L47.146,114.142z M80.968,111.692
			c-0.083-3.493-0.138-7.133-0.165-11.125l0.927-0.006c0.027,3.987,0.081,7.621,0.165,11.11L80.968,111.692z M61.624,107.618
			l-0.262-11.117l0.927-0.022l0.262,11.117L61.624,107.618z M26.421,105.316l-0.205-11.118l0.927-0.016l0.205,11.118L26.421,105.316
			z M96.456,96.994l-0.927-0.002l0.016-11.12l0.927,0.001L96.456,96.994z M11.813,92.7l-0.927-0.013
			c0.056-3.94,0.185-7.835,0.304-11.126l0.926,0.033C11.997,84.881,11.868,88.77,11.813,92.7z M47.267,91.903l-0.927-0.005
			l0.061-11.12l0.927,0.005L47.267,91.903z M81.722,89.446l-0.927-0.004c0.014-3.707,0.043-7.414,0.074-11.121l0.927,0.008
			C81.765,82.034,81.736,85.74,81.722,89.446z M61.1,85.385l-0.262-11.117l0.927-0.021l0.262,11.116L61.1,85.385z M26.01,83.081
			l-0.205-11.118l0.927-0.017l0.205,11.118L26.01,83.081z M96.487,74.754l-0.927-0.001l0.016-11.12l0.927,0.001L96.487,74.754z
			 M12.52,70.481l-0.926-0.03c0.14-4.354,0.208-7.882,0.213-11.104l0.927,0.002C12.728,62.58,12.66,66.117,12.52,70.481z
			 M47.388,69.664l-0.927-0.005l0.058-11.118l0.927,0.003L47.388,69.664z M81.879,67.208l-0.927-0.005
			c0.014-2.608,0.024-5.215,0.024-7.823c0-1.098-0.002-2.195-0.005-3.293l0.927-0.003c0.004,1.099,0.005,2.198,0.005,3.296
			C81.903,61.989,81.893,64.599,81.879,67.208z M61.628,63.141l-0.927-0.005c0.023-4.139,0.16-7.784,0.418-11.143l0.924,0.071
			C61.787,55.401,61.651,59.024,61.628,63.141z M26.656,60.841l-0.927-0.013c0.055-4.153,0.234-7.798,0.547-11.141l0.923,0.086
			C26.889,53.093,26.711,56.713,26.656,60.841z M96.521,52.515l-0.927-0.001l0.015-11.119h0.927L96.521,52.515z M11.534,48.26
			c-0.22-3.928-0.57-7.534-1.069-11.024l0.918-0.131c0.503,3.517,0.855,7.149,1.076,11.104L11.534,48.26z M46.409,47.436
			c-0.116-4.069-0.333-7.689-0.66-11.066l0.922-0.09c0.33,3.398,0.547,7.039,0.665,11.129L46.409,47.436z M80.852,44.975
			c-0.069-3.659-0.173-7.224-0.308-10.595l-0.021-0.508l0.927-0.04l0.021,0.512c0.135,3.376,0.238,6.947,0.308,10.613L80.852,44.975
			z M63.495,41.102l-0.909-0.18c0.762-3.849,1.794-7.468,3.068-10.756l0.863,0.335C65.265,33.738,64.248,37.305,63.495,41.102z
			 M28.917,38.86l-0.902-0.211c0.897-3.838,2.103-7.405,3.583-10.604l0.841,0.389C30.985,31.576,29.8,35.084,28.917,38.86z
			 M95.317,30.313c-0.287-4.113-0.822-7.679-1.635-10.9l0.898-0.227c0.827,3.275,1.371,6.894,1.662,11.063L95.317,30.313z
			 M8.306,26.388c-0.097-0.374-0.197-0.747-0.3-1.12c-0.87-3.166-1.935-6.32-3.165-9.375l0.86-0.347
			c1.244,3.088,2.32,6.276,3.199,9.476c0.104,0.377,0.205,0.755,0.303,1.132L8.306,26.388z M44.133,25.424
			c-0.111-0.54-0.226-1.08-0.347-1.618c-0.604-2.679-2.31-5.543-4.494-4.987c-0.336,0.086-0.658,0.251-0.985,0.503l-0.566-0.733
			c0.428-0.331,0.861-0.549,1.322-0.667c0.272-0.069,0.544-0.104,0.809-0.104c2.428,0,4.169,2.905,4.817,5.785
			c0.123,0.545,0.239,1.09,0.351,1.635L44.133,25.424z M78.778,23.098c-0.194-0.494-0.409-0.975-0.639-1.428
			c-0.544-1.071-1.711-2.871-3.433-2.9h-0.001c-1.093,0-2.102,0.656-3.127,2.006l-0.738-0.561c1.213-1.596,2.464-2.372,3.823-2.372
			c2.267,0.038,3.665,2.151,4.303,3.408c0.243,0.48,0.471,0.987,0.676,1.509L78.778,23.098z M21.016,17.826l-0.101-0.909
			c-0.232-2.095-0.942-4.193-2.054-6.068l0.797-0.472c1.018,1.717,1.719,3.612,2.049,5.531c0.749-0.743,1.507-1.59,2.34-2.612
			l0.719,0.585c-1.101,1.351-2.079,2.407-3.077,3.326L21.016,17.826z M56.018,15.144c-1.291-3.116-2.798-6.37-5.066-9.052
			c-0.117-0.138-0.237-0.275-0.359-0.41l0.688-0.621c0.128,0.143,0.255,0.287,0.378,0.433c2.351,2.78,3.896,6.111,5.215,9.296
			L56.018,15.144z M89.49,9.334c-2.22-3.402-4.971-5.872-7.954-7.144l0.364-0.852c3.153,1.345,6.046,3.935,8.367,7.49L89.49,9.334z
			 M62.702,9.165l-0.721-0.582c0.989-1.225,1.967-2.281,2.992-3.228c1.755-1.62,3.747-2.936,5.762-3.807l0.367,0.851
			c-1.92,0.829-3.822,2.087-5.501,3.636C64.611,6.952,63.662,7.975,62.702,9.165z M0.083,5.787C0.028,5.572,0,5.36,0,5.16
			C0,5.05,0.008,4.941,0.025,4.831c0.007-0.05,0.017-0.099,0.028-0.148C0.535,2.529,3.79,2.484,5.356,2.463l0.37-0.004
			c1.79,0,3.553,0.285,5.24,0.847l-0.293,0.88C9.081,3.655,7.416,3.386,5.726,3.386L5.368,3.39C4.041,3.408,1.279,3.446,0.956,4.886
			c-0.025,0.147-0.03,0.21-0.03,0.274c0,0.123,0.018,0.257,0.054,0.399L0.083,5.787z M31.777,5.337l-0.641-0.67
			c3.088-2.954,6.282-4.52,9.494-4.658C40.781,0.003,40.932,0,41.083,0l0.22,0.002l-0.018,0.927l-0.202-0.002
			c-0.137,0-0.275,0.003-0.412,0.009C37.689,1.063,34.697,2.544,31.777,5.337z"/>
		<polygon points="10.108,31.227 11.343,33.73 14.104,34.131 12.106,36.079 12.578,38.829 10.108,37.531 7.638,38.829 8.109,36.079 
			6.111,34.131 8.873,33.73 		"/>
		<polygon points="47.125,47.739 48.36,50.241 51.121,50.643 49.123,52.59 49.595,55.341 47.125,54.042 44.655,55.341 45.126,52.59 
			43.128,50.643 45.89,50.241 		"/>
		<polygon points="95.903,47.739 97.138,50.241 99.899,50.643 97.901,52.59 98.373,55.341 95.903,54.042 93.433,55.341 
			93.904,52.59 91.906,50.643 94.668,50.241 		"/>
		<polygon points="61.459,88.004 62.694,90.506 65.455,90.908 63.457,92.855 63.929,95.606 61.459,94.307 58.988,95.606 
			59.46,92.855 57.462,90.908 60.223,90.506 		"/>
		<polygon points="96.024,107.13 97.259,109.632 100.02,110.034 98.022,111.982 98.494,114.732 96.024,113.433 93.554,114.732 
			94.025,111.982 92.027,110.034 94.789,109.632 		"/>
		<polygon points="12.974,114.363 14.209,116.866 16.971,117.267 14.973,119.215 15.444,121.965 12.974,120.667 10.504,121.965 
			10.976,119.215 8.978,117.267 11.739,116.866 		"/>
		<polygon points="107.947,140.949 109.182,143.452 111.944,143.853 109.946,145.801 110.417,148.551 107.947,147.253 
			105.477,148.551 105.949,145.801 103.951,143.853 106.712,143.452 		"/>
	</g>
	<g>
		<path d="M36.476,173.88c0.165,0.681,0.247,1.327,0.247,1.937c0,0.494-0.024,0.834-0.071,1.023
			c-0.259,0.939-0.728,1.632-1.41,2.079c-0.399,0.259-0.781,0.458-1.145,0.599c-0.365,0.141-0.805,0.246-1.321,0.317
			c-0.612,0.094-1.186,0.119-1.727,0.071c-0.87-0.093-1.563-0.305-2.079-0.634c-0.47-0.305-0.81-0.833-1.022-1.585
			c-0.118-0.352-0.188-0.751-0.211-1.198c-0.048-0.634,0.034-1.175,0.246-1.621c0.212-0.47,0.646-0.705,1.304-0.705
			c0.47,0,0.786,0.083,0.951,0.247c0.094,0.094,0.094,0.246,0,0.458c-0.188,0.541-0.094,1.375,0.282,2.502
			c0.305,0.893,0.716,1.28,1.232,1.163c0.188-0.047,0.376-0.176,0.565-0.388c0.234-0.234,0.399-0.54,0.493-0.916
			c0.187-0.822-0.035-2.055-0.67-3.7c-0.329-0.916-0.986-2.196-1.974-3.84c-0.634-1.057-1.099-1.903-1.392-2.536
			c-0.294-0.634-0.546-1.351-0.757-2.15c-0.235-0.916-0.352-1.808-0.352-2.678c0-0.681,0.071-1.327,0.211-1.938
			c0.328-1.527,0.869-2.666,1.621-3.418c0.987-0.986,2.221-1.456,3.7-1.409c1.339,0.047,2.302,0.493,2.889,1.338
			c0.281,0.376,0.47,0.905,0.564,1.586c0.141,0.986,0,2.302-0.423,3.946c-0.212,0.916-0.4,1.503-0.564,1.762
			c-0.165,0.259-0.4,0.376-0.705,0.352c-0.259-0.023-0.423-0.117-0.493-0.281c-0.024-0.094-0.035-0.799-0.035-2.115
			c-0.024-1.456-0.071-2.396-0.141-2.819c-0.094-0.493-0.259-0.916-0.493-1.269c-0.047-0.093-0.141-0.211-0.282-0.352
			c-0.14-0.141-0.224-0.212-0.246-0.212c-0.071,0-0.183,0.124-0.335,0.37c-0.153,0.247-0.288,0.488-0.405,0.723
			c-0.493,1.175-0.717,2.36-0.67,3.558c0.024,0.564,0.129,1.211,0.318,1.938c0.211,0.916,0.54,1.844,0.986,2.784
			c0.258,0.54,0.634,1.245,1.128,2.114c0.822,1.457,1.41,2.608,1.762,3.453C36.218,172.859,36.359,173.34,36.476,173.88z"/>
		<path d="M46.166,171.202c0.47,0.048,0.776,0.165,0.916,0.353c0.024,0.071-0.024,0.787-0.14,2.149
			c-0.141,1.48-0.353,2.655-0.634,3.524c-0.212,0.681-0.553,1.269-1.023,1.762c-0.517,0.54-1.28,0.834-2.29,0.88
			c-0.328,0-0.587-0.011-0.775-0.035c-1.198-0.211-2.056-0.763-2.573-1.656c-0.211-0.376-0.423-0.869-0.634-1.48
			c-0.234-0.705-0.376-1.503-0.423-2.396c-0.024-0.423-0.035-1.68-0.035-3.77c0-2.091,0.012-3.477,0.035-4.158
			c0.094-2.302,0.224-3.946,0.387-4.933c0.353-1.95,1.093-3.465,2.221-4.546c0.728-0.68,1.667-1.044,2.819-1.092
			c0.657-0.046,1.221,0.048,1.691,0.282c1.221,0.587,1.691,2.162,1.409,4.722c-0.118,0.963-0.305,1.621-0.564,1.973
			c-0.118,0.165-0.329,0.259-0.634,0.282s-0.528-0.047-0.669-0.212c-0.119-0.118-0.141-0.576-0.071-1.375
			c0.117-1.409,0.117-2.372,0-2.888c-0.071-0.353-0.188-0.646-0.353-0.881c-0.071-0.118-0.176-0.252-0.317-0.405
			c-0.141-0.152-0.224-0.229-0.247-0.229c-0.094,0-0.281,0.2-0.564,0.599c-0.493,0.681-0.852,1.55-1.074,2.608
			c-0.224,1.057-0.383,2.666-0.476,4.827c-0.024,0.423-0.047,1.997-0.071,4.722c-0.024,2.726-0.024,4.287,0,4.687
			c0.024,0.845,0.176,1.632,0.458,2.361c0.094,0.258,0.217,0.534,0.37,0.828c0.153,0.293,0.252,0.44,0.3,0.44
			c0.024,0,0.111-0.128,0.264-0.387c0.153-0.258,0.276-0.493,0.37-0.705c0.564-1.362,0.833-2.925,0.811-4.687
			c0-0.399,0.011-0.64,0.034-0.722c0.024-0.081,0.106-0.158,0.247-0.229C45.261,171.202,45.673,171.132,46.166,171.202z"/>
		<path d="M57.865,161.688c0.023,0.259,0.029,0.887,0.017,1.885c-0.012,0.999-0.03,1.815-0.052,2.45
			c-0.188,3.288-0.341,5.52-0.459,6.695c-0.118,1.01-0.246,1.88-0.387,2.607c-0.188,0.87-0.411,1.575-0.67,2.115
			c-0.234,0.493-0.493,0.869-0.775,1.128c-0.423,0.423-0.928,0.704-1.516,0.845c-0.47,0.094-0.928,0.118-1.374,0.071
			c-0.846-0.118-1.527-0.423-2.044-0.916c-0.823-0.776-1.338-2.067-1.55-3.877c-0.259-1.996-0.317-4.181-0.176-6.553
			c0.094-1.668,0.247-3.124,0.459-4.37c0.093-0.564,0.152-0.963,0.176-1.197c0.188-1.222,0.446-2.314,0.776-3.278
			c0.258-0.704,0.54-1.28,0.845-1.727c0.235-0.352,0.517-0.657,0.846-0.916c0.517-0.423,1.175-0.634,1.973-0.634
			c0.728,0,1.304,0.2,1.727,0.599c0.094,0.094,0.165,0.147,0.212,0.158c0.047,0.013,0.199,0.148,0.458,0.405
			c0.234,0.235,0.411,0.4,0.528,0.493c0.094,0.071,0.188,0.235,0.282,0.493c0.352,0.917,0.564,1.832,0.634,2.748
			C57.841,161.313,57.865,161.572,57.865,161.688z M55.434,167.573c0.093-0.798,0.152-2.079,0.176-3.84
			c0.023-1.762,0-2.995-0.071-3.7c-0.094-0.846-0.235-1.456-0.423-1.832c-0.14-0.281-0.387-0.576-0.739-0.88l-0.212-0.176
			l-0.071,0.106c-0.211,0.259-0.411,0.776-0.599,1.55c-0.352,1.386-0.564,3.747-0.634,7.083c-0.094,3.477,0.035,6.637,0.388,9.478
			c0.164,1.269,0.281,1.903,0.352,1.903c0.024,0,0.082-0.118,0.176-0.353c0.281-0.586,0.528-1.303,0.739-2.149
			c0.423-1.668,0.717-3.77,0.881-6.307C55.421,167.984,55.434,167.691,55.434,167.573z"/>
		<path d="M71.113,158.728c0.093,0.612,0.1,1.356,0.017,2.238c-0.082,0.88-0.229,1.627-0.441,2.237
			c-0.259,0.776-0.411,1.198-0.458,1.269c-0.235,0.353-0.752,0.541-1.55,0.564c-0.329,0.024-0.629,0.006-0.899-0.052
			c-0.271-0.059-0.488-0.147-0.652-0.264c-0.165-0.118-0.247-0.247-0.247-0.388c0-0.046,0.047-0.176,0.141-0.387
			c0.071-0.234,0.117-0.434,0.14-0.599c0.047-0.141,0.094-0.317,0.141-0.528c0.118-0.586,0.199-1.304,0.247-2.149
			c0.023-0.798,0.012-1.456-0.035-1.974l-0.035-0.14l-0.106,0.176c-0.329,0.564-0.67,1.48-1.022,2.748
			c-0.282,0.893-0.493,1.727-0.634,2.502c-0.54,2.655-0.94,5.791-1.198,9.408c-0.094,1.175-0.118,2.302-0.071,3.383
			c0.024,0.986,0.047,1.538,0.071,1.656c0.047,0.281,0.047,0.481,0,0.599c-0.094,0.235-0.4,0.434-0.916,0.599
			c-0.518,0.188-1.07,0.235-1.656,0.14c-0.728-0.093-1.175-0.305-1.339-0.633c-0.047-0.094-0.082-0.288-0.106-0.582
			c-0.024-0.293-0.047-0.593-0.071-0.899c-0.047-0.423-0.071-0.74-0.071-0.951c-0.024-0.282-0.047-0.505-0.071-0.67
			c-0.07-0.681-0.105-3.688-0.105-9.02c0.023-2.467,0.011-4.158-0.035-5.074c-0.048-2.349,0.011-4.123,0.176-5.321
			c0.024-0.328,0.106-0.564,0.247-0.705c0.141-0.141,0.387-0.258,0.74-0.352c0.751-0.212,1.421-0.164,2.008,0.141
			c0.282,0.14,0.458,0.446,0.528,0.916c0.118,0.799,0.199,2.29,0.247,4.475c0.023,1.316,0.047,2.149,0.071,2.502
			c0,0.352,0.011,0.681,0.035,0.986v0.352l0.035-0.246c0.023-0.118,0.093-0.564,0.211-1.339c0.118-0.939,0.27-1.855,0.458-2.748
			c0.259-1.151,0.481-2.008,0.67-2.572c0.188-0.587,0.458-1.058,0.811-1.41c0.376-0.399,0.939-0.611,1.691-0.634
			c0.47-0.023,0.869,0.024,1.198,0.141c0.446,0.141,0.833,0.423,1.163,0.845C70.772,157.437,70.994,158.024,71.113,158.728z"/>
		<path d="M83.974,160.384c0.141,2.279-0.247,3.982-1.163,5.109c-0.4,0.518-0.951,0.893-1.656,1.128
			c-0.4,0.119-0.87,0.176-1.41,0.176c-0.399-0.023-0.722-0.071-0.969-0.141c-0.246-0.07-0.488-0.205-0.722-0.404
			c-0.235-0.2-0.54-0.523-0.916-0.969c-0.071-0.071-0.141-0.141-0.212-0.212c-0.071-0.071-0.141-0.141-0.211-0.211l-0.035,2.255
			c-0.024,1.48-0.048,2.595-0.071,3.347c-0.071,2.514-0.118,4.545-0.141,6.096c0,1.316,0.035,2.079,0.106,2.29
			c0.023,0.094,0.023,0.165,0,0.212c-0.048,0.165-0.188,0.317-0.423,0.458c-0.541,0.281-1.211,0.365-2.009,0.246
			c-0.54-0.093-0.893-0.258-1.057-0.493c-0.141-0.258-0.235-0.586-0.282-0.986c-0.047-0.845-0.094-1.585-0.14-2.22
			c-0.024-0.399-0.048-0.717-0.071-0.951c-0.165-1.432-0.176-3.313-0.035-5.639c0-0.328,0.012-0.857,0.035-1.585
			c0.093-2.983,0.187-5.144,0.281-6.483c0.024-0.259,0.047-0.67,0.071-1.233c0.047-1.198,0.129-2.361,0.247-3.488
			c0.046-0.587,0.199-0.975,0.458-1.163c0.258-0.188,0.64-0.305,1.145-0.353c0.505-0.046,0.946,0,1.322,0.141
			c0.305,0.118,0.505,0.318,0.599,0.599c0.093,0.353,0.128,1.14,0.105,2.361v0.776l0.071-0.212c0.305-0.681,0.646-1.269,1.022-1.762
			c0.634-0.845,1.586-1.244,2.854-1.198c0.587,0.024,1.093,0.188,1.516,0.493c0.493,0.306,0.857,0.728,1.092,1.269
			C83.703,158.294,83.903,159.211,83.974,160.384z M80.133,162.287c0.234-1.903,0.234-3.476,0-4.722
			c-0.094-0.352-0.165-0.528-0.212-0.528l-0.247,0.141c-0.916,0.611-1.727,1.95-2.431,4.017c-0.282,0.845-0.424,1.327-0.424,1.444
			c0,0.048,0.2,0.282,0.599,0.705c0.094,0.118,0.247,0.259,0.459,0.423c0.211,0.189,0.528,0.494,0.951,0.917l0.634,0.634
			l0.035-0.071c0.046-0.071,0.106-0.224,0.176-0.458C79.839,164.32,79.992,163.485,80.133,162.287z"/>
		<path d="M87.003,159.398c-0.658-0.023-1.116-0.234-1.375-0.634c-0.094-0.187-0.153-0.81-0.176-1.868
			c-0.024-0.586-0.03-0.938-0.018-1.057c0.012-0.117,0.076-0.223,0.194-0.317c0.165-0.164,0.459-0.305,0.881-0.423
			c0.164-0.047,0.47-0.076,0.916-0.089c0.446-0.012,0.764,0.006,0.952,0.053c0.493,0.118,0.822,0.281,0.986,0.493l0.106,0.176v0.739
			c-0.024,0.681-0.129,1.269-0.318,1.762C88.847,159.058,88.131,159.445,87.003,159.398z M89.716,162.57
			c0.047,0.633,0.076,2.267,0.089,4.897c0.011,2.631,0.005,4.534-0.018,5.708c-0.047,1.175-0.118,2.103-0.211,2.784
			c-0.048,0.306-0.071,0.928-0.071,1.868c0,0.681,0,1.087,0,1.215c0,0.129-0.024,0.218-0.071,0.264
			c-0.141,0.259-0.482,0.452-1.022,0.582c-0.541,0.129-1.058,0.147-1.551,0.052c-0.658-0.093-1.069-0.293-1.233-0.599
			c-0.024-0.071-0.034-0.364-0.034-0.88c-0.048-4.581-0.083-7.189-0.106-7.823c-0.024-0.61-0.024-1.163,0-1.656
			c0.023-0.47,0.035-1.251,0.035-2.343c0-1.092-0.013-1.932-0.035-2.519c-0.048-1.08-0.024-1.89,0.071-2.432
			c0.046-0.352,0.152-0.611,0.317-0.775c0.282-0.305,0.793-0.475,1.533-0.51s1.298,0.1,1.673,0.405
			C89.411,161.067,89.622,161.653,89.716,162.57z"/>
		<path d="M100.957,161.688c0.023,0.259,0.029,0.887,0.017,1.885c-0.012,0.999-0.03,1.815-0.052,2.45
			c-0.188,3.288-0.341,5.52-0.459,6.695c-0.118,1.01-0.246,1.88-0.387,2.607c-0.188,0.87-0.411,1.575-0.67,2.115
			c-0.234,0.493-0.493,0.869-0.775,1.128c-0.424,0.423-0.928,0.704-1.516,0.845c-0.47,0.094-0.928,0.118-1.374,0.071
			c-0.846-0.118-1.527-0.423-2.044-0.916c-0.823-0.776-1.338-2.067-1.55-3.877c-0.259-1.996-0.317-4.181-0.176-6.553
			c0.094-1.668,0.247-3.124,0.459-4.37c0.093-0.564,0.152-0.963,0.176-1.197c0.188-1.222,0.446-2.314,0.776-3.278
			c0.258-0.704,0.54-1.28,0.845-1.727c0.235-0.352,0.517-0.657,0.846-0.916c0.517-0.423,1.175-0.634,1.973-0.634
			c0.728,0,1.304,0.2,1.727,0.599c0.094,0.094,0.165,0.147,0.212,0.158c0.047,0.013,0.199,0.148,0.458,0.405
			c0.234,0.235,0.411,0.4,0.528,0.493c0.094,0.071,0.188,0.235,0.282,0.493c0.352,0.917,0.564,1.832,0.634,2.748
			C100.933,161.313,100.957,161.572,100.957,161.688z M98.525,167.573c0.093-0.798,0.152-2.079,0.176-3.84
			c0.023-1.762,0-2.995-0.071-3.7c-0.094-0.846-0.235-1.456-0.424-1.832c-0.14-0.281-0.387-0.576-0.739-0.88l-0.212-0.176
			l-0.071,0.106c-0.211,0.259-0.411,0.776-0.599,1.55c-0.352,1.386-0.564,3.747-0.634,7.083c-0.094,3.477,0.035,6.637,0.388,9.478
			c0.164,1.269,0.281,1.903,0.352,1.903c0.024,0,0.082-0.118,0.176-0.353c0.281-0.586,0.528-1.303,0.739-2.149
			c0.424-1.668,0.717-3.77,0.881-6.307C98.513,167.984,98.525,167.691,98.525,167.573z"/>
	</g>
</g>
</svg>
