<?xml version="1.0" encoding="utf-8"?>
<!-- Generator: Adobe Illustrator 17.0.0, SVG Export Plug-In . SVG Version: 6.00 Build 0)  -->
<!DOCTYPE svg PUBLIC "-//W3C//DTD SVG 1.1//EN" "http://www.w3.org/Graphics/SVG/1.1/DTD/svg11.dtd">
<svg version="1.1" id="Layer_1" xmlns="http://www.w3.org/2000/svg" xmlns:xlink="http://www.w3.org/1999/xlink" x="0px" y="0px"
	 width="152.506px" height="180px" viewBox="0 0 152.506 180" enable-background="new 0 0 152.506 180" xml:space="preserve">
<g>
	<g>
		<path d="M72.764,127.904l-0.039-1.168c4.516-0.148,9.201-0.49,13.926-1.017l0.13,1.161
			C82.026,127.41,77.309,127.755,72.764,127.904z M58.705,127.749c-4.73-0.269-9.435-0.769-13.985-1.486l0.182-1.154
			c4.511,0.712,9.178,1.208,13.869,1.474L58.705,127.749z M100.68,124.848l-0.205-1.149c0.904-0.162,1.807-0.328,2.712-0.503
			c3.963-0.758,7.519-1.615,10.874-2.618l0.335,1.12c-3.394,1.014-6.988,1.879-10.99,2.646
			C102.498,124.517,101.588,124.686,100.68,124.848z M30.956,123.342c-4.516-1.213-9.014-2.688-13.369-4.382l0.423-1.088
			c4.316,1.679,8.773,3.141,13.249,4.344L30.956,123.342z M127.49,116.465l-0.541-1.035c4.195-2.187,8.038-4.813,11.422-7.806
			l0.773,0.874C135.691,111.554,131.77,114.235,127.49,116.465z M5.039,112.395c-1.853-2.269-2.166-5.217-2.166-10.968
			c0-0.923,0.007-1.918,0.017-2.993l1.168,0.011c-0.01,1.071-0.017,2.062-0.017,2.982c0,5.462,0.275,8.236,1.902,10.229
			L5.039,112.395z M72.096,108.826c-2.751,0-5.532-0.078-8.266-0.229l0.064-1.165c4.614,0.255,9.326,0.291,13.953,0.116l0.043,1.168
			C75.971,108.787,74.021,108.825,72.096,108.826z M91.901,107.559l-0.144-1.159c0.486-0.06,0.972-0.124,1.459-0.189
			c-1.69-2.644-3.69-5.978-5.179-9.464l1.074-0.458c1.603,3.752,3.825,7.346,5.582,10.058l0.497,0.767l-0.907,0.128
			C93.489,107.354,92.694,107.461,91.901,107.559z M49.842,107.145c-4.609-0.705-9.246-1.646-13.782-2.794l0.287-1.131
			c4.5,1.139,9.1,2.071,13.67,2.771L49.842,107.145z M22.606,100.273c-4.341-1.537-8.727-3.307-13.033-5.264l0.484-1.063
			c4.276,1.942,8.629,3.7,12.94,5.225L22.606,100.273z M147.541,97.112l-1.07-0.47c1.765-4.011,2.697-8.464,2.696-12.88
			l-0.005-0.505l1.168-0.023l0.005,0.527C150.336,88.339,149.37,92.956,147.541,97.112z M117.657,97.08
			c-5.014-0.048-9.577-2.827-11.906-7.255l1.033-0.543c2.129,4.046,6.3,6.587,10.885,6.63L117.657,97.08z M127.976,92.663
			L127.1,91.89c1.926-2.178,2.96-4.961,2.99-8.046l0.585-0.12h-0.584c0-1.505-0.27-2.98-0.803-4.385l1.092-0.414
			c0.583,1.538,0.878,3.152,0.878,4.799l-0.001,0.142C131.225,87.226,130.09,90.271,127.976,92.663z M86.497,82.911l-1.168-0.043
			c0.185-4.924,1.324-9.546,3.383-13.739l1.049,0.515C87.774,73.688,86.675,78.152,86.497,82.911z M107.75,76.644l-0.949-0.68
			c2.634-3.676,6.72-5.872,10.929-5.873l0.234,0.002c0.507,0.01,1.019,0.05,1.527,0.117l-0.155,1.157
			c-0.463-0.062-0.932-0.097-1.392-0.107l-0.213-0.002C113.954,71.26,110.13,73.324,107.75,76.644z M146.054,69.958
			c-0.261-0.547-0.538-1.09-0.832-1.627c-1.9-3.47-4.467-6.519-7.629-9.063l0.732-0.91c3.282,2.64,5.947,5.807,7.921,9.412
			c0.306,0.556,0.592,1.118,0.862,1.685L146.054,69.958z M98.37,59.086l-0.716-0.923c3.666-2.849,7.953-4.919,12.74-6.156
			l0.292,1.13C106.054,54.334,101.91,56.335,98.37,59.086z M125.373,53.175c-4.524-1.143-9.229-1.245-13.619-0.29l-0.249-1.141
			c4.569-0.99,9.456-0.886,14.153,0.299L125.373,53.175z"/>
		<path d="M34.631,81.133c-2.597,0-5.214-0.328-7.781-0.977l0.285-1.132c4.525,1.143,9.229,1.245,13.618,0.29l0.249,1.141
			C38.93,80.905,36.786,81.133,34.631,81.133z M42.112,80.191l-0.292-1.13c4.633-1.197,8.776-3.198,12.315-5.948l0.716,0.923
			C51.186,76.884,46.901,78.955,42.112,80.191z M14.182,73.841c-3.282-2.64-5.947-5.807-7.923-9.413
			c-0.304-0.556-0.591-1.118-0.861-1.684l1.054-0.502c0.261,0.546,0.538,1.088,0.831,1.626c1.901,3.47,4.468,6.52,7.631,9.063
			L14.182,73.841z M63.794,63.071l-1.049-0.515c1.988-4.044,3.087-8.507,3.266-13.267l1.168,0.044
			C66.991,54.257,65.853,58.879,63.794,63.071z M34.775,62.108l-0.238-0.002c-0.505-0.01-1.018-0.05-1.524-0.117l0.155-1.157
			c0.462,0.062,0.931,0.098,1.394,0.107l0.213,0.002c3.776,0,7.599-2.063,9.979-5.384l0.949,0.681
			C43.069,59.913,38.983,62.108,34.775,62.108z M22.124,53.273c-0.583-1.538-0.878-3.152-0.878-4.799l0.002-0.148
			c0.032-3.355,1.168-6.401,3.285-8.793l0.874,0.774c-1.927,2.177-2.961,4.96-2.991,8.047l-0.586,0.119h0.584
			c0,1.504,0.27,2.98,0.803,4.385L22.124,53.273z M2.175,48.963l-0.004-0.526c0-4.578,0.966-9.195,2.794-13.351l1.069,0.47
			c-1.763,4.009-2.695,8.463-2.695,12.881l0.004,0.506L2.175,48.963z M45.722,42.917c-2.129-4.047-6.299-6.588-10.883-6.632
			l0.011-1.168c5.014,0.047,9.576,2.827,11.905,7.255L45.722,42.917z M142.449,38.253c-4.273-1.941-8.627-3.699-12.94-5.226
			l0.39-1.1c4.344,1.537,8.729,3.308,13.033,5.263L142.449,38.253z M63.396,35.91c-1.603-3.751-3.825-7.346-5.582-10.059
			l-0.497-0.769l0.907-0.127c0.795-0.112,1.589-0.217,2.381-0.318l0.146,1.159c-0.486,0.062-0.973,0.125-1.46,0.191
			c1.69,2.645,3.69,5.979,5.179,9.464L63.396,35.91z M149.615,33.765l-1.168-0.011c0.01-1.072,0.018-2.066,0.018-2.987
			c0-5.458-0.275-8.23-1.903-10.224l0.905-0.739c1.853,2.27,2.166,5.217,2.166,10.963C149.634,31.691,149.626,32.688,149.615,33.765
			z M116.159,28.979c-4.508-1.14-9.107-2.073-13.669-2.77l0.176-1.154c4.6,0.704,9.237,1.643,13.781,2.792L116.159,28.979z
			 M88.614,24.768c-4.585-0.254-9.278-0.294-13.953-0.117l-0.043-1.167c4.707-0.177,9.44-0.138,14.061,0.119L88.614,24.768z
			 M14.135,24.574L13.361,23.7c3.456-3.057,7.378-5.737,11.655-7.966l0.541,1.035C21.363,18.954,17.521,21.58,14.135,24.574z
			 M134.494,14.327c-4.317-1.68-8.775-3.142-13.249-4.344l0.303-1.128c4.515,1.213,9.012,2.688,13.369,4.384L134.494,14.327z
			 M38.446,11.621l-0.335-1.119c3.387-1.014,6.981-1.88,10.99-2.647c0.909-0.173,1.818-0.342,2.725-0.505L52.031,8.5
			c-0.903,0.162-1.807,0.33-2.712,0.502C45.351,9.762,41.794,10.619,38.446,11.621z M107.605,7.089
			c-4.512-0.712-9.179-1.207-13.869-1.474l0.066-1.165c4.729,0.269,9.434,0.769,13.985,1.485L107.605,7.089z M65.856,6.479
			l-0.13-1.161c4.755-0.53,9.472-0.874,14.017-1.023l0.039,1.167C75.266,5.61,70.58,5.952,65.856,6.479z"/>
		<polygon points="5.036,106.554 6.593,109.707 10.073,110.213 7.554,112.668 8.149,116.134 5.036,114.497 1.924,116.134 
			2.518,112.668 0,110.213 3.48,109.707 		"/>
		<polygon points="26.467,95.437 28.023,98.591 31.503,99.096 28.985,101.551 29.579,105.017 26.467,103.381 23.354,105.017 
			23.948,101.551 21.43,99.096 24.91,98.591 		"/>
		<polygon points="5.036,53.439 6.593,56.592 10.073,57.098 7.554,59.553 8.149,63.019 5.036,61.382 1.924,63.019 2.518,59.553 
			0,57.098 3.48,56.592 		"/>
		<polygon points="47.684,72.909 49.24,76.063 52.72,76.569 50.202,79.023 50.796,82.489 47.684,80.853 44.571,82.489 
			45.165,79.023 42.647,76.569 46.127,76.063 		"/>
		<polygon points="58.686,20.855 60.242,24.008 63.722,24.514 61.204,26.969 61.798,30.435 58.686,28.798 55.573,30.435 
			56.168,26.969 53.649,24.514 57.129,24.008 		"/>
		<polygon points="33.602,7.773 35.158,10.926 38.638,11.432 36.12,13.886 36.714,17.352 33.602,15.716 30.489,17.352 
			31.083,13.886 28.565,11.432 32.045,10.926 		"/>
		<polygon points="91.954,0 93.511,3.153 96.991,3.659 94.473,6.114 95.067,9.58 91.954,7.943 88.842,9.58 89.436,6.114 
			86.918,3.659 90.398,3.153 		"/>
		<polygon points="147.421,13.56 148.977,16.714 152.458,17.22 149.939,19.674 150.534,23.14 147.421,21.504 144.308,23.14 
			144.903,19.674 142.385,17.22 145.865,16.714 		"/>
		<polygon points="126.039,27.182 127.596,30.335 131.076,30.841 128.558,33.295 129.152,36.762 126.039,35.125 122.927,36.762 
			123.521,33.295 121.003,30.841 124.483,30.335 		"/>
		<polygon points="104.822,49.709 106.379,52.863 109.859,53.369 107.341,55.823 107.935,59.289 104.822,57.653 101.71,59.289 
			102.304,55.823 99.786,53.369 103.266,52.863 		"/>
		<polygon points="147.47,68.613 149.026,71.767 152.506,72.272 149.988,74.727 150.582,78.193 147.47,76.557 144.357,78.193 
			144.952,74.727 142.433,72.272 145.913,71.767 		"/>
		<polygon points="93.82,101.764 95.377,104.918 98.857,105.423 96.338,107.878 96.933,111.344 93.82,109.707 90.708,111.344 
			91.302,107.878 88.784,105.423 92.264,104.918 		"/>
		<polygon points="118.904,114.846 120.461,118 123.941,118.505 121.423,120.96 122.017,124.426 118.904,122.79 115.792,124.426 
			116.386,120.96 113.868,118.505 117.348,118 		"/>
		<polygon points="60.552,122.619 62.108,125.772 65.588,126.278 63.07,128.733 63.664,132.199 60.552,130.562 57.439,132.199 
			58.033,128.733 55.515,126.278 58.995,125.772 		"/>
	</g>
	<g>
		<g>
			<path d="M43.951,167.537c0.029,0.415,0.051,1.051,0.066,1.91c0.015,0.859,0.007,1.451-0.022,1.776
				c-0.06,0.918-0.148,1.658-0.266,2.22c-0.178,0.828-0.4,1.613-0.666,2.353c-0.326,0.977-0.637,1.688-0.932,2.132
				c-0.326,0.474-0.874,0.814-1.643,1.021c-0.267,0.06-0.666,0.09-1.199,0.09c-0.473,0.03-0.77,0.03-0.888,0
				c-0.977-0.178-1.747-0.563-2.309-1.155c-0.385-0.384-0.74-0.902-1.066-1.554c-0.474-0.947-0.844-2.146-1.11-3.596
				c-0.208-1.065-0.37-2.56-0.488-4.485c-0.118-1.776-0.133-3.389-0.044-4.84c0.178-3.73,0.666-6.838,1.465-9.324
				c0.622-1.983,1.436-3.359,2.442-4.13c0.917-0.681,1.968-0.962,3.152-0.843c0.473,0.06,0.903,0.177,1.288,0.354
				c1.006,0.474,1.643,1.481,1.909,3.02c0.207,1.065,0.192,2.486-0.044,4.262c-0.237,1.659-0.488,2.606-0.755,2.842
				c-0.178,0.149-0.37,0.163-0.577,0.045l-0.133-0.045v-0.354c0-0.237,0.014-0.592,0.044-1.066c0.059-0.473,0.089-1.183,0.089-2.131
				c0-0.947-0.015-1.554-0.044-1.821c-0.178-1.183-0.548-2.146-1.11-2.885c-0.296-0.414-0.518-0.622-0.666-0.622
				c-0.089,0-0.237,0.2-0.444,0.599c-0.208,0.4-0.371,0.807-0.489,1.222c-0.326,1.007-0.637,2.471-0.932,4.396
				c-0.207,1.362-0.399,3.241-0.577,5.638c-0.089,1.303-0.089,2.946,0,4.93c0.089,1.983,0.236,3.641,0.444,4.972
				c0.266,1.659,0.695,2.991,1.287,3.997l0.178,0.355c0.089,0,0.296-0.311,0.622-0.933c0.207-0.444,0.429-1.161,0.666-2.154
				c0.236-0.991,0.399-1.932,0.488-2.819c0.029-0.444,0.044-0.992,0.044-1.644c0.029-0.71,0-1.316-0.089-1.82
				c0-0.117,0.044-0.207,0.133-0.267c0.059-0.089,0.162-0.162,0.311-0.222c0.147-0.059,0.399-0.089,0.755-0.089
				c0.473,0,0.799,0.075,0.977,0.222C43.906,167.152,43.951,167.301,43.951,167.537z"/>
			<path d="M58.248,178.105c0.118,0.267,0.155,0.474,0.111,0.621c-0.044,0.149-0.2,0.327-0.466,0.534
				c-0.415,0.326-0.947,0.488-1.598,0.488c-0.563,0-1.11-0.089-1.643-0.266c-0.533-0.178-0.903-0.459-1.11-0.844
				c-0.178-0.326-0.341-0.799-0.489-1.421l-0.089-0.399l-0.178,0.444c-0.503,1.125-1.021,1.85-1.554,2.176
				c-0.622,0.355-1.332,0.444-2.132,0.267c-0.71-0.148-1.317-0.563-1.821-1.244c-0.385-0.503-0.651-1.139-0.799-1.91
				c-0.118-0.65-0.193-1.598-0.222-2.842c-0.03-2.368,0.162-4.291,0.577-5.772c0.325-1.214,0.784-2.117,1.376-2.709
				c0.355-0.326,0.784-0.577,1.288-0.755c1.272-0.414,2.398-0.326,3.375,0.267l0.133,0.089v-0.311c0-1.302,0.089-3.286,0.266-5.95
				c0.029-0.473,0.045-1.317,0.045-2.531c0-1.244-0.015-2.057-0.045-2.442c-0.177-1.244-0.37-2.102-0.577-2.576
				c-0.178-0.354-0.326-0.533-0.444-0.533c-0.06,0-0.171,0.097-0.333,0.289c-0.163,0.193-0.289,0.363-0.377,0.511
				c-0.592,0.888-1.021,2.324-1.288,4.307c-0.06,0.504-0.177,1.332-0.355,2.486c-0.119,0.741-0.208,1.273-0.266,1.599
				c-0.03,0.384-0.074,0.666-0.133,0.843c-0.06,0.177-0.141,0.326-0.244,0.444c-0.105,0.118-0.26,0.207-0.466,0.267
				c-0.178,0.059-0.444,0.104-0.799,0.132c-0.74,0.03-1.229-0.104-1.466-0.399l-0.133-0.133l0.044-0.488
				c0-0.474,0.074-1.2,0.222-2.177c0.148-0.977,0.311-1.954,0.488-2.93c0.178-0.977,0.325-1.688,0.444-2.132
				c0.207-0.65,0.429-1.228,0.666-1.731c0.681-1.361,1.791-2.204,3.33-2.531c0.236-0.029,0.584-0.044,1.043-0.044
				c0.459,0,0.806,0.015,1.043,0.044c1.391,0.297,2.427,0.948,3.108,1.954c0.473,0.711,0.813,1.732,1.021,3.065
				c0.118,0.828,0.162,3.049,0.133,6.66c0,3.878-0.045,6.454-0.133,7.726c-0.03,0.504-0.044,1.798-0.044,3.885s0,3.279,0,3.574
				C57.848,176.625,58.01,177.425,58.248,178.105z M52.964,168.159l0.044-0.711l-0.177-0.222c-0.119-0.177-0.282-0.369-0.489-0.577
				c-0.503-0.503-0.859-0.77-1.065-0.799c-0.148,0-0.341,0.399-0.577,1.199c-0.177,0.592-0.311,1.229-0.399,1.909
				c-0.06,0.385-0.082,1.14-0.067,2.265c0.014,1.125,0.051,2.102,0.111,2.93c0.118,1.776,0.192,2.636,0.222,2.576
				c0.029,0,0.133-0.237,0.311-0.711c0.326-0.888,0.992-3.167,1.998-6.838C52.934,168.944,52.964,168.603,52.964,168.159z"/>
			<path d="M76.808,154.038c0.178,1.007,0.267,2.19,0.267,3.553c0,1.746-0.222,4.366-0.666,7.859
				c-0.06,0.474-0.133,1.125-0.222,1.954c-0.06,0.8-0.104,1.303-0.133,1.51c-0.03,0.266-0.044,0.548-0.044,0.843
				c-0.03,0.327-0.074,0.681-0.133,1.065c-0.03,0.444-0.074,0.948-0.133,1.51c-0.237,2.19-0.444,3.641-0.622,4.351
				c-0.06,0.148-0.104,0.385-0.133,0.711c-0.089,0.444-0.266,0.77-0.533,0.977c-0.799,0.533-1.717,0.696-2.753,0.488
				c-0.533-0.117-0.947-0.311-1.243-0.576c-0.178-0.178-0.237-0.489-0.178-0.933c0.089-0.8,0.207-2.708,0.355-5.728
				c0.059-1.924,0.147-3.433,0.266-4.529c0.059-0.562,0.103-1.05,0.133-1.465c0.029-0.414,0.074-0.873,0.133-1.377
				c0.148-1.184,0.266-2.678,0.355-4.485c0.029-0.622,0.045-1.805,0.045-3.553c0-1.805-0.015-2.915-0.045-3.331
				c-0.029-0.029-0.044-0.073-0.044-0.132l-0.133-0.577l-0.089,0.133l-0.044,0.044c-0.533,0.918-1.051,2.694-1.554,5.329
				c-1.125,5.625-1.909,10.553-2.353,14.786c-0.208,1.984-0.385,3.479-0.533,4.486c-0.03,0.296-0.044,0.666-0.044,1.11
				c0.029,0.533-0.03,0.903-0.178,1.109c-0.208,0.297-0.644,0.526-1.31,0.689c-0.666,0.162-1.325,0.184-1.976,0.067
				c-0.444-0.06-0.8-0.149-1.066-0.267c-0.237-0.147-0.415-0.326-0.533-0.533c-0.06-0.089-0.089-1.05-0.089-2.886
				c-0.03-5.179-0.089-8.288-0.177-9.324c-0.06-0.858-0.089-3.486-0.089-7.882c0-4.396,0.029-6.905,0.089-7.526
				c0.059-0.651,0.17-1.139,0.333-1.466c0.163-0.326,0.437-0.577,0.822-0.755c0.444-0.207,0.977-0.311,1.598-0.311
				c0.622,0.03,1.125,0.133,1.51,0.311c0.326,0.177,0.57,0.437,0.733,0.778c0.162,0.341,0.273,0.865,0.333,1.576
				c0.089,0.977,0.133,3.893,0.133,8.747v4.174l0.133-0.888c0.295-2.131,0.517-3.655,0.666-4.573
				c0.118-0.591,0.222-1.214,0.311-1.865c0.326-2.19,0.666-3.818,1.021-4.885c0.207-0.621,0.503-1.213,0.888-1.776
				c0.266-0.444,0.562-0.739,0.888-0.888c0.562-0.266,1.214-0.377,1.954-0.333c0.739,0.045,1.405,0.244,1.998,0.599
				c0.77,0.444,1.317,1.214,1.643,2.309C76.601,152.943,76.749,153.536,76.808,154.038z"/>
			<path d="M89.108,168.513c0.591,0.06,0.976,0.208,1.155,0.444c0.028,0.089-0.03,0.993-0.179,2.709
				c-0.177,1.865-0.444,3.345-0.799,4.44c-0.267,0.859-0.695,1.599-1.288,2.22c-0.651,0.681-1.613,1.051-2.885,1.11
				c-0.414,0-0.741-0.015-0.978-0.045c-1.509-0.266-2.591-0.961-3.24-2.087c-0.267-0.473-0.534-1.094-0.801-1.865
				c-0.295-0.888-0.474-1.894-0.532-3.019c-0.03-0.533-0.046-2.116-0.046-4.751c0-2.635,0.016-4.381,0.046-5.239
				c0.117-2.901,0.281-4.973,0.488-6.217c0.444-2.456,1.376-4.366,2.798-5.728c0.916-0.858,2.101-1.316,3.553-1.376
				c0.828-0.06,1.537,0.06,2.131,0.354c1.539,0.741,2.131,2.724,1.776,5.95c-0.149,1.215-0.386,2.043-0.711,2.487
				c-0.147,0.207-0.414,0.326-0.799,0.355c-0.386,0.03-0.667-0.06-0.844-0.267c-0.149-0.147-0.177-0.725-0.09-1.731
				c0.149-1.776,0.149-2.99,0-3.641c-0.088-0.444-0.237-0.814-0.444-1.11c-0.088-0.148-0.221-0.318-0.398-0.511
				c-0.177-0.192-0.283-0.289-0.311-0.289c-0.119,0-0.356,0.252-0.711,0.755c-0.621,0.859-1.073,1.955-1.354,3.286
				c-0.283,1.332-0.482,3.36-0.599,6.084c-0.03,0.533-0.06,2.517-0.09,5.95c-0.03,3.434-0.03,5.403,0,5.905
				c0.03,1.066,0.223,2.058,0.577,2.975c0.117,0.327,0.273,0.674,0.466,1.043c0.193,0.37,0.319,0.556,0.378,0.556
				c0.028,0,0.139-0.162,0.333-0.489c0.193-0.326,0.348-0.621,0.466-0.888c0.711-1.717,1.051-3.685,1.022-5.905
				c0-0.503,0.014-0.806,0.044-0.91c0.03-0.104,0.133-0.2,0.311-0.289C87.967,168.513,88.487,168.425,89.108,168.513z"/>
			<path d="M101.629,167.315c0.504-0.059,0.903,0.089,1.199,0.444c0.178,0.178,0.237,0.385,0.178,0.622
				c-0.06,0.177-0.118,0.799-0.178,1.865c-0.118,2.013-0.266,3.493-0.444,4.44c-0.207,1.244-0.459,2.176-0.755,2.798
				c-0.266,0.533-0.621,0.932-1.065,1.199c-0.533,0.355-1.022,0.592-1.466,0.71c-0.237,0.06-0.592,0.097-1.065,0.112
				c-0.474,0.015-0.843-0.007-1.11-0.067c-0.621-0.117-1.287-0.399-1.998-0.843c-0.651-0.414-1.17-1.066-1.554-1.955
				c-0.266-0.65-0.473-1.716-0.621-3.196c-0.03-0.681-0.038-2.516-0.022-5.506c0.014-2.99,0.051-5.344,0.111-7.06
				c0.148-3.967,0.548-6.765,1.199-8.393c0.414-1.006,0.933-1.79,1.554-2.354c0.888-0.769,2.057-1.154,3.508-1.154
				c1.184,0,2.072,0.267,2.664,0.8c0.326,0.326,0.592,0.696,0.8,1.11c0.473,0.887,0.71,2.309,0.71,4.262
				c0,1.509-0.089,3.079-0.266,4.707c-0.178,2.013-0.297,3.064-0.355,3.152c-0.118,0.208-0.415,0.37-0.888,0.489
				c-0.207,0.06-0.651,0.104-1.332,0.133c-0.71,0-1.229,0.015-1.554,0.044h-0.488l-0.045,0.888c-0.03,0.652-0.044,2.117-0.044,4.396
				c0,2.339,0.029,3.775,0.089,4.307c0.117,1.392,0.296,2.591,0.533,3.596c0.059,0.238,0.104,0.4,0.133,0.489
				c0,0.03,0.014,0.045,0.044,0.045c0.148-0.09,0.37-0.534,0.666-1.332c0.326-1.007,0.533-2.161,0.622-3.464
				c0.029-0.473,0.044-1.221,0.044-2.242s-0.015-1.65-0.044-1.887c-0.03-0.326,0.074-0.592,0.311-0.8
				C100.933,167.463,101.244,167.344,101.629,167.315z M98.388,161.809v0.222h0.355c0.117,0,0.369,0.016,0.755,0.045h0.488
				l0.045-0.222c0.177-0.592,0.326-1.672,0.444-3.242c0.266-3.315,0.074-5.52-0.577-6.616l-0.089-0.222l-0.089,0.267
				c-0.148,0.355-0.341,1.065-0.577,2.132c-0.297,1.421-0.504,3.107-0.621,5.062C98.432,160.388,98.388,161.247,98.388,161.809z"/>
			<path d="M119.968,152.795c0.117,0.771,0.125,1.71,0.022,2.82c-0.105,1.11-0.289,2.05-0.556,2.82
				c-0.326,0.977-0.518,1.509-0.576,1.598c-0.297,0.444-0.948,0.682-1.955,0.711c-0.414,0.03-0.792,0.008-1.132-0.067
				c-0.341-0.074-0.614-0.184-0.821-0.333c-0.207-0.148-0.311-0.312-0.311-0.489c0-0.059,0.059-0.222,0.177-0.489
				c0.09-0.295,0.148-0.547,0.178-0.755c0.059-0.177,0.117-0.399,0.177-0.666c0.148-0.739,0.251-1.643,0.311-2.708
				c0.03-1.006,0.015-1.835-0.044-2.486l-0.045-0.178l-0.133,0.222c-0.414,0.711-0.843,1.865-1.287,3.464
				c-0.355,1.125-0.621,2.176-0.8,3.152c-0.681,3.345-1.184,7.297-1.509,11.855c-0.118,1.481-0.148,2.901-0.089,4.263
				c0.029,1.243,0.059,1.939,0.089,2.087c0.059,0.354,0.059,0.606,0,0.755c-0.118,0.296-0.504,0.548-1.154,0.755
				c-0.652,0.237-1.348,0.296-2.088,0.177c-0.917-0.117-1.481-0.384-1.687-0.8c-0.06-0.117-0.105-0.361-0.133-0.732
				c-0.03-0.37-0.06-0.748-0.089-1.133c-0.06-0.533-0.089-0.932-0.089-1.199c-0.03-0.354-0.06-0.636-0.09-0.843
				c-0.089-0.858-0.132-4.647-0.132-11.368c0.029-3.107,0.014-5.239-0.045-6.394c-0.06-2.959,0.015-5.194,0.222-6.705
				c0.029-0.414,0.133-0.71,0.311-0.887c0.178-0.178,0.489-0.326,0.933-0.444c0.947-0.267,1.79-0.207,2.531,0.177
				c0.355,0.177,0.576,0.563,0.666,1.154c0.147,1.008,0.251,2.886,0.311,5.639c0.029,1.659,0.059,2.709,0.089,3.153
				c0,0.443,0.015,0.858,0.045,1.243v0.444l0.044-0.311c0.03-0.147,0.118-0.711,0.267-1.688c0.147-1.183,0.34-2.338,0.577-3.463
				c0.325-1.451,0.606-2.531,0.843-3.242c0.237-0.74,0.577-1.332,1.022-1.776c0.473-0.503,1.183-0.769,2.131-0.799
				c0.592-0.03,1.095,0.03,1.51,0.177c0.562,0.177,1.05,0.533,1.465,1.065C119.538,151.167,119.819,151.907,119.968,152.795z"/>
		</g>
	</g>
</g>
</svg>
