<?xml version="1.0" encoding="utf-8"?>
<!-- Generator: Adobe Illustrator 17.0.0, SVG Export Plug-In . SVG Version: 6.00 Build 0)  -->
<!DOCTYPE svg PUBLIC "-//W3C//DTD SVG 1.1//EN" "http://www.w3.org/Graphics/SVG/1.1/DTD/svg11.dtd">
<svg version="1.1" id="Layer_1" xmlns="http://www.w3.org/2000/svg" xmlns:xlink="http://www.w3.org/1999/xlink" x="0px" y="0px"
	 width="114.957px" height="180px" viewBox="0 0 114.957 180" enable-background="new 0 0 114.957 180" xml:space="preserve">
<g>
	<g>
		<path d="M101.481,134.51h-0.357v-0.997h0.357c1.889,0,3.757-0.027,5.648-0.055c1.946-0.028,3.916-0.057,5.959-0.057v0.197
			l0.476-0.048c0.012,0.107,0.019,0.22,0.022,0.336l0.015,0.512h-0.513c-2.038,0-4.004,0.028-5.944,0.057
			C105.248,134.483,103.375,134.51,101.481,134.51z M19.065,134.489l-0.153-0.002c-2.15-0.058-4.411-0.085-7.334-0.085l-1.61,0.003
			l-0.004-0.997l1.614-0.003c2.933,0,5.201,0.026,7.355,0.085l0.132,0.002c0.911-0.001,1.649-0.262,2.324-0.821l0.637,0.767
			C21.174,134.144,20.206,134.488,19.065,134.489z M3.408,131.765l-0.791-0.61l1.714-2.215c1.943-2.508,3.779-4.877,5.524-7.295
			l0.808,0.584c-1.755,2.432-3.595,4.807-5.544,7.321L3.408,131.765z M90.049,130.285c-0.216-0.271-0.431-0.557-0.646-0.861
			c-2.169-3.057-4.191-6.138-6.011-9.158l0.855-0.514c1.806,2.998,3.815,6.058,5.97,9.097c0.203,0.287,0.406,0.558,0.611,0.815
			L90.049,130.285z M105.596,124.398c-2.417-3.232-4.67-6.588-6.694-9.974l0.855-0.512c2.007,3.358,4.241,6.685,6.638,9.889
			L105.596,124.398z M29.205,123.704l-0.836-0.545c2.216-3.392,4.245-6.848,6.033-10.27l0.884,0.462
			C33.483,116.801,31.437,120.285,29.205,123.704z M17.175,112.133l-0.867-0.495c1.972-3.459,3.756-7.045,5.303-10.657l0.917,0.393
			C20.966,105.02,19.166,108.64,17.175,112.133z M77.686,109.699c-1.753-3.674-3.29-7.413-4.569-11.112l0.943-0.325
			c1.267,3.663,2.79,7.366,4.526,11.008L77.686,109.699z M93.305,103.794c-1.661-3.624-3.14-7.387-4.394-11.183l0.947-0.314
			c1.243,3.762,2.708,7.49,4.353,11.082L93.305,103.794z M40.264,102.417l-0.929-0.362c1.447-3.717,2.676-7.527,3.653-11.325
			l0.966,0.249C42.968,94.814,41.726,98.662,40.264,102.417z M26.617,90.077l-0.956-0.284c1.028-3.446,1.895-7.017,2.577-10.612
			c0.065-0.343,0.111-0.653,0.137-0.934l0.993,0.095c-0.03,0.308-0.08,0.648-0.151,1.024C28.528,82.995,27.654,86.599,26.617,90.077
			z M69.883,87.015c-0.591-2.767-1.063-5.592-1.404-8.397c-0.191-1.563-0.516-2.171-1.291-2.409l0.292-0.953
			c1.379,0.424,1.783,1.555,1.989,3.242c0.338,2.775,0.805,5.571,1.391,8.309L69.883,87.015z M85.707,81.009
			c-0.127-0.735-0.188-1.352-0.188-1.884c-0.001-3.778,3.311-3.986,8.715-4.013l0.006,0.997c-6.353,0.032-7.725,0.567-7.724,3.016
			c0,0.475,0.056,1.036,0.174,1.715L85.707,81.009z M46.226,79.173l-0.989-0.125l0.032-0.253c0.267-2.112,0.7-3.727,3.58-3.727
			l0.28,0.005c2.013,0.061,4.118,0.098,6.256,0.112l-0.006,0.997c-2.145-0.014-4.26-0.052-6.282-0.112l-0.248-0.004
			c-1.922,0-2.315,0.678-2.59,2.856L46.226,79.173z M6.866,76.151l-0.019-0.997c3.024-0.06,6.052-0.046,9.074-0.033l2.903,0.01
			l-0.002,0.997l-2.905-0.01C12.9,76.104,9.883,76.09,6.866,76.151z M106.238,76.021l-0.08-0.994
			c4.586-0.365,5.399-1.538,5.439-7.844l0.997,0.006C112.555,73.541,111.672,75.588,106.238,76.021z M2.046,66.775l0.499-0.004
			l-0.499,0.001l-0.001-0.377c0-6.038,1.34-7.6,6.826-7.955l0.064,0.995c-4.957,0.321-5.893,1.427-5.893,6.964l0.001,0.366
			L2.046,66.775z M57.273,59.584l-0.002-0.997c1.993-0.004,4.037-0.066,6.072-0.184c2.493-0.144,3.897-0.721,4.847-1.991
			l0.799,0.597c-1.424,1.903-3.624,2.275-5.587,2.389C61.346,59.518,59.285,59.58,57.273,59.584z M103.171,59.329
			c-1.331,0-2.663-0.009-3.995-0.017c-1.27-0.008-2.54-0.017-3.81-0.017v-0.997c1.272,0,2.544,0.009,3.816,0.017
			c2.715,0.017,5.427,0.034,8.14-0.02l0.019,0.997C105.953,59.32,104.561,59.329,103.171,59.329z M21.886,59.326h-1.021v-0.997
			h1.021c5.444,0,6.413-0.149,6.413-2.008c0-0.58-0.101-1.344-0.329-2.478l0.978-0.197c0.242,1.201,0.349,2.026,0.349,2.675
			C29.296,59.326,26.973,59.326,21.886,59.326z M45.576,57.254c-0.189-0.519-0.277-1.081-0.336-1.564
			c-0.428-3.438-1.048-6.888-1.843-10.252l0.97-0.23c0.803,3.4,1.431,6.885,1.862,10.359c0.056,0.448,0.129,0.921,0.283,1.344
			L45.576,57.254z M86.519,55.631l-0.986-0.156c0.028-0.177,0.06-0.361,0.096-0.555c0.693-3.757,1.606-7.505,2.709-11.14l0.954,0.29
			c-1.093,3.599-1.996,7.311-2.684,11.032C86.576,55.286,86.546,55.463,86.519,55.631z M71.298,45.176l-0.984-0.169
			c0.107-0.618,0.244-1.29,0.428-2.103c0.709-3.152,1.652-6.347,2.803-9.496l0.937,0.342c-1.136,3.11-2.067,6.263-2.767,9.373
			C71.537,43.916,71.401,44.572,71.298,45.176z M24.94,42.331c-1.218-3.757-2.671-7.488-4.318-11.092l0.908-0.415
			c1.662,3.638,3.129,7.406,4.359,11.199L24.94,42.331z M39.96,34.051c-1.348-3.651-2.948-7.323-4.755-10.912l0.89-0.449
			c1.825,3.623,3.44,7.329,4.8,11.015L39.96,34.051z M93.413,32.908L92.5,32.509c1.578-3.613,3.402-7.221,5.422-10.722l0.863,0.499
			C96.784,25.754,94.976,29.328,93.413,32.908z M79.318,22.886l-0.884-0.463c1.778-3.398,3.781-6.778,6.124-10.333l0.834,0.548
			C83.066,16.166,81.08,19.517,79.318,22.886z M15.081,20.704c-1.999-3.342-4.233-6.668-6.64-9.886l0.799-0.597
			c2.427,3.245,4.68,6.599,6.696,9.97L15.081,20.704z M29.305,12.79c-1.91-2.998-4.02-6.028-6.273-9.007
			c-0.18-0.238-0.353-0.492-0.526-0.747l0.791-0.61l0.033,0.049c0.165,0.242,0.327,0.482,0.498,0.707
			c2.268,3,4.394,6.053,6.318,9.072L29.305,12.79z M105.263,12.291l-0.808-0.583c1.922-2.666,4.018-5.346,6.229-7.965
			c0.219-0.26,0.481-0.491,0.735-0.714c0.219-0.193,0.443-0.389,0.634-0.606l0.748,0.659c-0.218,0.248-0.472,0.473-0.724,0.695
			c-0.237,0.208-0.46,0.405-0.632,0.609C109.251,6.985,107.171,9.645,105.263,12.291z M92.319,2.965l-0.756-0.652
			C92.944,0.714,94.441,0,96.415,0l0.275,0.005c1.927,0.062,4.008,0.092,6.548,0.093v0.997c-2.552-0.001-4.642-0.032-6.581-0.094
			l-0.242-0.004C94.712,0.997,93.524,1.567,92.319,2.965z M0.899,1.576l-1.281-1.501l12.114-0.011l0.043,0.997L1.492,1.071
			L0.899,1.576z"/>
		<polygon points="8.715,118.958 10.112,121.788 13.234,122.242 10.975,124.444 11.508,127.554 8.715,126.086 5.922,127.554 
			6.456,124.444 4.196,122.242 7.319,121.788 		"/>
		<polygon points="100.754,129.714 102.151,132.543 105.273,132.997 103.014,135.2 103.547,138.309 100.754,136.841 97.962,138.309 
			98.495,135.2 96.235,132.997 99.358,132.543 		"/>
		<polygon points="56.894,70.926 58.291,73.756 61.413,74.21 59.154,76.412 59.687,79.522 56.894,78.054 54.101,79.522 
			54.635,76.412 52.375,74.21 55.498,73.756 		"/>
		<polygon points="110.82,55.751 112.216,58.58 115.339,59.034 113.079,61.236 113.613,64.346 110.82,62.878 108.027,64.346 
			108.56,61.236 106.301,59.034 109.423,58.58 		"/>
		<polygon points="84.001,8.828 85.397,11.658 88.52,12.111 86.26,14.314 86.794,17.424 84.001,15.955 81.208,17.424 81.742,14.314 
			79.482,12.111 82.605,11.658 		"/>
		<polygon points="20.649,27.462 22.046,30.291 25.168,30.745 22.909,32.948 23.442,36.058 20.649,34.589 17.857,36.058 
			18.39,32.948 16.13,30.745 19.253,30.291 		"/>
	</g>
	<g>
		<path d="M37.821,157.012c0.319,1.46,0.478,3.134,0.478,5.02c0,1.222-0.106,2.47-0.318,3.745c-0.186,0.957-0.412,1.886-0.677,2.789
			c-0.186,0.558-0.426,1.129-0.717,1.713c-0.266,0.584-0.704,1.249-1.315,1.992c-0.478,0.611-0.956,1.115-1.434,1.514
			c-0.504,0.425-1.05,0.77-1.633,1.035c-0.372,0.16-0.797,0.293-1.275,0.398l-0.359,0.08l-0.04,1.872
			c0,1.249-0.027,1.927-0.079,2.032c-0.16,0.266-0.525,0.478-1.096,0.637c-0.572,0.16-1.162,0.2-1.773,0.12
			c-0.957-0.105-1.474-0.385-1.554-0.837c-0.106-0.425-0.133-2.084-0.08-4.98c0.027-2.417,0.013-4.09-0.039-5.02
			c-0.028-0.824-0.04-4.13-0.04-9.921c0.026-3.958,0.052-6.016,0.079-6.175c0.027-0.265,0.12-0.465,0.279-0.598
			c0.398-0.372,1.049-0.559,1.952-0.559c0.957,0,1.58,0.214,1.872,0.638c0.08,0.133,0.133,0.371,0.16,0.716
			c0.026,0.346,0.04,1.289,0.04,2.829c0.026,1.859,0.053,3.174,0.08,3.944c0.026,0.691,0.04,1.195,0.04,1.514
			c0,0.079,0,0.146,0,0.199c0,0.054,0,0.094,0,0.12c0,0.027,0.012,0.04,0.04,0.04c0-0.027,0.026-0.385,0.079-1.075
			c0.213-2.337,0.479-4.117,0.797-5.339c0.16-0.558,0.333-1.009,0.518-1.355c0.106-0.239,0.253-0.451,0.439-0.637
			c0.265-0.265,0.571-0.451,0.916-0.558c0.16-0.053,0.432-0.08,0.818-0.08c0.385,0,0.67,0.027,0.856,0.08
			c0.717,0.186,1.334,0.624,1.852,1.315C37.204,154.914,37.582,155.844,37.821,157.012z M34.355,161.514
			c0.16-1.834,0.173-3.413,0.04-4.741c-0.053-0.611-0.159-1.182-0.318-1.713c-0.133-0.479-0.293-0.85-0.478-1.116l-0.08-0.08
			l-0.12,0.12c-0.983,0.93-1.687,3.281-2.112,7.052c-0.293,2.498-0.544,5.007-0.757,7.531c-0.079,0.85-0.119,1.686-0.119,2.51
			c0.026,1.567,0.065,2.35,0.119,2.35l0.2-0.2c0.265-0.292,0.584-0.716,0.957-1.275c0.371-0.558,0.65-1.022,0.836-1.394
			c0.451-1.036,0.837-2.457,1.156-4.264c0.052-0.371,0.119-0.743,0.198-1.115C34.09,164.091,34.248,162.868,34.355,161.514z"/>
		<path d="M42.084,156.653c-0.744-0.026-1.262-0.265-1.554-0.717c-0.106-0.212-0.173-0.916-0.198-2.112
			c-0.027-0.663-0.034-1.061-0.02-1.195c0.013-0.132,0.086-0.252,0.219-0.358c0.186-0.185,0.519-0.345,0.997-0.478
			c0.185-0.053,0.531-0.086,1.035-0.1c0.504-0.013,0.864,0.007,1.076,0.06c0.558,0.133,0.929,0.318,1.115,0.558l0.12,0.2v0.836
			c-0.027,0.77-0.146,1.434-0.359,1.992C44.169,156.268,43.359,156.706,42.084,156.653z M45.151,160.239
			c0.053,0.716,0.086,2.563,0.1,5.537c0.012,2.975,0.006,5.126-0.02,6.454c-0.053,1.328-0.133,2.378-0.238,3.147
			c-0.054,0.346-0.08,1.05-0.08,2.112c0,0.77,0,1.229,0,1.374c0,0.146-0.027,0.247-0.08,0.299c-0.16,0.293-0.545,0.512-1.155,0.658
			c-0.612,0.146-1.196,0.166-1.754,0.059c-0.744-0.105-1.208-0.332-1.395-0.677c-0.027-0.08-0.039-0.411-0.039-0.996
			c-0.054-5.179-0.094-8.128-0.12-8.845c-0.027-0.69-0.027-1.315,0-1.872c0.026-0.531,0.04-1.414,0.04-2.649
			s-0.014-2.184-0.04-2.849c-0.054-1.222-0.027-2.137,0.08-2.749c0.052-0.398,0.172-0.691,0.358-0.877
			c0.319-0.345,0.896-0.537,1.733-0.577c0.837-0.04,1.467,0.114,1.892,0.458C44.806,158.54,45.045,159.203,45.151,160.239z"/>
		<path d="M56.665,173.346c0.213,1.063,0.226,2.099,0.04,3.107c-0.133,0.717-0.358,1.282-0.677,1.693
			c-0.318,0.412-0.796,0.778-1.433,1.096c-0.692,0.346-1.461,0.572-2.311,0.677c-0.238,0.027-0.577,0.034-1.016,0.02
			c-0.438-0.013-0.75-0.034-0.936-0.06c-0.982-0.16-1.713-0.584-2.191-1.275c-0.239-0.345-0.426-0.889-0.558-1.633
			c-0.134-0.611-0.12-1.182,0.039-1.714c0.106-0.398,0.239-0.69,0.399-0.876c0.105-0.16,0.278-0.279,0.518-0.359
			c0.08-0.026,0.16-0.065,0.239-0.12c0.212-0.132,0.478-0.172,0.796-0.119c0.106,0,0.226,0.027,0.359,0.079
			c0.08,0.028,0.225,0.068,0.438,0.12c0.265,0.08,0.451,0.2,0.558,0.359c0.053,0.106,0.04,0.293-0.04,0.558
			c-0.079,0.213-0.133,0.412-0.159,0.598c-0.028,0.239-0.02,0.525,0.019,0.856c0.04,0.333,0.106,0.658,0.2,0.976
			c0.092,0.319,0.206,0.558,0.339,0.717l0.04,0.12l0.159-0.16c0.213-0.185,0.372-0.504,0.479-0.956
			c0.132-0.504,0.172-1.102,0.12-1.794c-0.134-1.62-0.917-4.156-2.351-7.609c-0.372-0.929-0.744-1.978-1.115-3.147
			c-0.532-1.566-0.85-2.881-0.957-3.944c-0.106-0.743-0.093-1.54,0.04-2.39c0.239-1.886,0.77-3.32,1.594-4.303
			c0.743-0.876,1.779-1.34,3.107-1.394c0.558-0.027,1.049,0.027,1.474,0.159c0.823,0.266,1.355,0.85,1.593,1.754
			c0.053,0.213,0.067,0.504,0.04,0.876c-0.027,0.664-0.159,1.183-0.398,1.554c-0.213,0.346-0.492,0.518-0.837,0.518
			c-0.133,0-0.226-0.006-0.278-0.019c-0.054-0.013-0.106-0.053-0.16-0.12c-0.053-0.067-0.099-0.152-0.139-0.259
			c-0.04-0.106-0.087-0.266-0.14-0.479c-0.08-0.292-0.159-0.543-0.238-0.756c-0.106-0.266-0.233-0.525-0.379-0.778
			c-0.146-0.252-0.247-0.379-0.299-0.379c-0.106,0-0.266,0.346-0.479,1.036c-0.558,1.673-0.584,3.493-0.079,5.458
			c0.265,0.957,0.663,2.059,1.195,3.307c0.265,0.612,0.73,1.661,1.395,3.147C55.656,169.641,56.32,171.594,56.665,173.346z"/>
		<path d="M67.143,169.999c0.531,0.054,0.877,0.186,1.035,0.399c0.027,0.08-0.027,0.89-0.159,2.43
			c-0.16,1.674-0.399,3.002-0.717,3.984c-0.239,0.77-0.625,1.434-1.156,1.992c-0.584,0.611-1.448,0.943-2.59,0.996
			c-0.371,0-0.664-0.012-0.876-0.04c-1.355-0.238-2.325-0.863-2.909-1.872c-0.238-0.425-0.478-0.982-0.717-1.673
			c-0.265-0.797-0.425-1.699-0.478-2.709c-0.027-0.478-0.04-1.899-0.04-4.263c0-2.365,0.013-3.931,0.04-4.701
			c0.106-2.603,0.253-4.462,0.438-5.577c0.399-2.205,1.236-3.918,2.511-5.14c0.823-0.769,1.885-1.181,3.187-1.235
			c0.743-0.052,1.38,0.054,1.912,0.319c1.38,0.664,1.912,2.444,1.593,5.339c-0.133,1.089-0.345,1.833-0.637,2.231
			c-0.133,0.186-0.372,0.293-0.717,0.319c-0.345,0.027-0.598-0.053-0.756-0.239c-0.134-0.133-0.16-0.651-0.08-1.554
			c0.132-1.593,0.132-2.682,0-3.266c-0.08-0.399-0.213-0.731-0.399-0.997c-0.08-0.133-0.198-0.285-0.358-0.458
			c-0.16-0.172-0.253-0.259-0.279-0.259c-0.106,0-0.318,0.226-0.637,0.677c-0.558,0.77-0.963,1.753-1.215,2.949
			c-0.253,1.195-0.433,3.014-0.538,5.458c-0.027,0.478-0.053,2.258-0.08,5.339c-0.027,3.082-0.027,4.848,0,5.299
			c0.027,0.956,0.2,1.846,0.518,2.669c0.106,0.292,0.246,0.604,0.418,0.936c0.173,0.332,0.285,0.497,0.339,0.497
			c0.027,0,0.126-0.145,0.299-0.438c0.173-0.292,0.312-0.558,0.418-0.797c0.637-1.54,0.942-3.307,0.917-5.299
			c0-0.451,0.012-0.723,0.039-0.816c0.027-0.092,0.12-0.179,0.279-0.259C66.12,169.999,66.586,169.921,67.143,169.999z"/>
		<path d="M78.379,168.924c0.451-0.053,0.809,0.08,1.075,0.399c0.16,0.159,0.213,0.345,0.16,0.558
			c-0.054,0.159-0.106,0.717-0.16,1.673c-0.106,1.807-0.239,3.134-0.398,3.984c-0.186,1.115-0.412,1.952-0.677,2.51
			c-0.239,0.478-0.558,0.837-0.957,1.075c-0.478,0.319-0.916,0.532-1.315,0.637c-0.213,0.054-0.531,0.087-0.956,0.1
			c-0.426,0.013-0.757-0.006-0.997-0.06c-0.558-0.105-1.155-0.358-1.793-0.757c-0.584-0.371-1.05-0.956-1.395-1.753
			c-0.238-0.584-0.425-1.54-0.558-2.868c-0.027-0.611-0.034-2.257-0.019-4.941c0.012-2.682,0.046-4.794,0.099-6.334
			c0.132-3.559,0.491-6.068,1.075-7.53c0.371-0.902,0.837-1.607,1.395-2.112c0.797-0.691,1.846-1.035,3.147-1.035
			c1.062,0,1.859,0.238,2.391,0.716c0.292,0.293,0.531,0.625,0.716,0.997c0.425,0.797,0.637,2.072,0.637,3.825
			c0,1.355-0.079,2.763-0.238,4.223c-0.16,1.807-0.266,2.749-0.319,2.829c-0.106,0.186-0.372,0.333-0.796,0.438
			c-0.186,0.054-0.585,0.094-1.196,0.12c-0.637,0-1.102,0.014-1.394,0.04H75.47l-0.04,0.797c-0.027,0.584-0.04,1.899-0.04,3.944
			c0,2.099,0.027,3.387,0.08,3.865c0.106,1.248,0.265,2.325,0.478,3.227c0.053,0.213,0.093,0.358,0.12,0.438
			c0,0.027,0.013,0.04,0.04,0.04c0.133-0.08,0.333-0.478,0.598-1.195c0.293-0.902,0.479-1.939,0.558-3.107
			c0.027-0.425,0.04-1.096,0.04-2.013c0-0.916-0.013-1.48-0.04-1.692c-0.027-0.293,0.067-0.531,0.279-0.717
			C77.754,169.057,78.033,168.951,78.379,168.924z M75.47,163.984v0.199h0.319c0.105,0,0.332,0.014,0.677,0.04h0.438l0.04-0.199
			c0.16-0.531,0.292-1.501,0.398-2.909c0.239-2.974,0.067-4.953-0.518-5.936l-0.08-0.199l-0.08,0.238
			c-0.133,0.319-0.305,0.957-0.518,1.912c-0.266,1.275-0.452,2.789-0.558,4.542C75.51,162.709,75.47,163.48,75.47,163.984z"/>
		<path d="M91.007,173.346c0.213,1.063,0.226,2.099,0.04,3.107c-0.133,0.717-0.358,1.282-0.677,1.693
			c-0.318,0.412-0.796,0.778-1.433,1.096c-0.692,0.346-1.461,0.572-2.311,0.677c-0.238,0.027-0.577,0.034-1.016,0.02
			c-0.438-0.013-0.75-0.034-0.936-0.06c-0.982-0.16-1.713-0.584-2.191-1.275c-0.239-0.345-0.426-0.889-0.558-1.633
			c-0.134-0.611-0.12-1.182,0.039-1.714c0.106-0.398,0.239-0.69,0.399-0.876c0.105-0.16,0.278-0.279,0.518-0.359
			c0.08-0.026,0.16-0.065,0.239-0.12c0.212-0.132,0.478-0.172,0.796-0.119c0.106,0,0.226,0.027,0.359,0.079
			c0.08,0.028,0.225,0.068,0.438,0.12c0.265,0.08,0.451,0.2,0.558,0.359c0.053,0.106,0.04,0.293-0.04,0.558
			c-0.079,0.213-0.133,0.412-0.159,0.598c-0.028,0.239-0.02,0.525,0.019,0.856c0.04,0.333,0.106,0.658,0.2,0.976
			c0.092,0.319,0.206,0.558,0.339,0.717l0.04,0.12l0.159-0.16c0.213-0.185,0.372-0.504,0.479-0.956
			c0.132-0.504,0.172-1.102,0.12-1.794c-0.134-1.62-0.917-4.156-2.351-7.609c-0.372-0.929-0.744-1.978-1.115-3.147
			c-0.532-1.566-0.85-2.881-0.957-3.944c-0.106-0.743-0.093-1.54,0.04-2.39c0.239-1.886,0.77-3.32,1.594-4.303
			c0.743-0.876,1.779-1.34,3.107-1.394c0.558-0.027,1.049,0.027,1.474,0.159c0.823,0.266,1.355,0.85,1.593,1.754
			c0.053,0.213,0.067,0.504,0.04,0.876c-0.027,0.664-0.159,1.183-0.398,1.554c-0.213,0.346-0.492,0.518-0.837,0.518
			c-0.133,0-0.226-0.006-0.278-0.019c-0.054-0.013-0.106-0.053-0.16-0.12c-0.053-0.067-0.099-0.152-0.139-0.259
			s-0.087-0.266-0.14-0.479c-0.08-0.292-0.159-0.543-0.238-0.756c-0.106-0.266-0.233-0.525-0.379-0.778
			c-0.146-0.252-0.247-0.379-0.299-0.379c-0.106,0-0.266,0.346-0.479,1.036c-0.558,1.673-0.584,3.493-0.079,5.458
			c0.265,0.957,0.663,2.059,1.195,3.307c0.265,0.612,0.73,1.661,1.395,3.147C89.998,169.641,90.662,171.594,91.007,173.346z"/>
	</g>
</g>
</svg>
