<?xml version="1.0" encoding="utf-8"?>
<!-- Generator: Adobe Illustrator 17.0.0, SVG Export Plug-In . SVG Version: 6.00 Build 0)  -->
<!DOCTYPE svg PUBLIC "-//W3C//DTD SVG 1.1//EN" "http://www.w3.org/Graphics/SVG/1.1/DTD/svg11.dtd">
<svg version="1.1" id="Layer_1" xmlns="http://www.w3.org/2000/svg" xmlns:xlink="http://www.w3.org/1999/xlink" x="0px" y="0px"
	 width="147.801px" height="180px" viewBox="0 0 147.801 180" enable-background="new 0 0 147.801 180" xml:space="preserve">
<g>
	<g>
		<path d="M95.271,89.782c-0.933,0-1.912-0.049-2.711-0.631c-0.625-0.454-1.042-1.166-1.275-2.177l0.972-0.224
			c0.179,0.777,0.462,1.283,0.889,1.594c0.558,0.406,1.356,0.44,2.125,0.44l0.137,0.498l-0.002-0.499l7.086-0.024l0.004,0.997
			L95.271,89.782z M18.052,89.746c-3.461,0-6.921-0.004-10.38-0.011c-0.562-0.001-1.157-0.016-1.713-0.175l0.277-0.958
			c0.43,0.124,0.946,0.135,1.438,0.136c3.458,0.007,6.918,0.01,10.378,0.011V89.746z M30.019,89.736l-0.002-0.997
			c3.989-0.007,7.977-0.018,11.966-0.032l0.004,0.997C37.998,89.719,34.008,89.729,30.019,89.736z M114.463,89.718l-0.004-0.997
			l11.967-0.04l0.004,0.997L114.463,89.718z M53.955,89.649l-0.006-0.997l1.542-0.009c1.229-0.007,2.311-0.059,3.115-0.629
			c0.979-0.694,1.343-2.014,1.634-3.307c0.23-1.028,0.4-1.877,0.535-2.673l0.984,0.166c-0.137,0.814-0.311,1.68-0.545,2.726
			c-0.317,1.417-0.763,3.004-2.03,3.902c-1.125,0.798-2.605,0.806-3.686,0.813L53.955,89.649z M138.397,89.637l-0.004-0.997
			l1.956-0.007c1.671-0.005,3.39-0.096,4.449-1.121c0.824-0.798,1.124-2.056,1.324-3.297c0.052-0.322,0.099-0.645,0.144-0.969
			l0.987,0.135c-0.045,0.331-0.094,0.662-0.148,0.992c-0.228,1.411-0.581,2.854-1.615,3.855c-1.324,1.283-3.264,1.396-5.138,1.402
			L138.397,89.637z M4.753,77.899L3.76,77.815c0.043-0.507,0.094-1.014,0.154-1.519c0.173-1.446,0.465-2.935,1.423-4.039
			c1.469-1.69,3.904-1.877,6.072-1.92l0.253-0.005l0.023,0.997l-0.258,0.005c-2.042,0.04-4.137,0.195-5.338,1.577
			c-0.82,0.944-1.042,2.303-1.185,3.502C4.846,76.907,4.795,77.403,4.753,77.899z M92.102,75.089l-0.968-0.238
			c0.181-0.742,0.417-1.456,0.698-2.124c1.275-3.019,3.601-5.375,5.851-7.655l0.209-0.213l0.711,0.7l-0.211,0.213
			c-2.284,2.314-4.441,4.499-5.641,7.342C92.49,73.735,92.272,74.398,92.102,75.089z M145.772,71.854
			c-0.089-0.105-0.183-0.193-0.289-0.268c-0.494-0.351-1.187-0.382-1.976-0.385l-9.096-0.037l0.004-0.997l9.096,0.037
			c0.742,0.003,1.758,0.006,2.551,0.57c0.172,0.123,0.331,0.269,0.472,0.436L145.772,71.854z M23.645,71.149l-0.011-0.997
			c3.339-0.036,6.678-0.059,10.016-0.07c-1.416-3.926-2.527-7.459-3.391-10.781l0.965-0.251c0.905,3.478,2.084,7.193,3.606,11.357
			l0.244,0.668l-0.711,0.002C30.791,71.087,27.218,71.112,23.645,71.149z M122.445,71.114l-4.711-0.019l0.218-0.654
			c0.749-2.237,1.621-4.883,2.411-7.553l0.956,0.283c-0.72,2.428-1.505,4.834-2.203,6.932l3.332,0.014L122.445,71.114z
			 M59.097,70.881c-1.176-1.751-2.787-3.303-4.344-4.803c-1.004-0.967-2.041-1.967-2.972-3.025c-0.265-0.301-0.521-0.608-0.768-0.92
			l0.782-0.618c0.237,0.299,0.482,0.592,0.735,0.88c0.903,1.027,1.926,2.012,2.915,2.965c1.595,1.537,3.244,3.126,4.48,4.965
			L59.097,70.881z M105.499,55.658l-0.929-0.361c1.162-2.989,1.75-6.192,1.749-9.522c0-0.662-0.024-1.338-0.074-2.007l0.995-0.073
			c0.051,0.694,0.076,1.394,0.076,2.08C107.318,49.228,106.706,52.554,105.499,55.658z M124.054,51.46l-0.986-0.152
			c0.432-2.804,0.643-5.397,0.643-7.927c0-1.317-0.059-2.621-0.176-3.877l0.993-0.093c0.12,1.286,0.18,2.622,0.18,3.969
			C124.709,45.963,124.495,48.606,124.054,51.46z M46.065,51.104c-0.331-1.733-0.498-3.517-0.498-5.3
			c0-2.294,0.275-4.577,0.817-6.784l0.968,0.238c-0.522,2.13-0.788,4.333-0.788,6.547c0,1.721,0.162,3.441,0.481,5.113
			L46.065,51.104z M28.118,47.456c-0.145-1.619-0.219-3.221-0.219-4.76c0-2.52,0.198-4.975,0.588-7.296l0.984,0.166
			c-0.381,2.266-0.574,4.665-0.574,7.13c0,1.51,0.072,3.082,0.215,4.672L28.118,47.456z M102.914,32.603
			c-0.078-0.137-0.157-0.275-0.239-0.411c-1.887-3.182-4.432-5.961-7.565-8.264l0.59-0.803c3.242,2.382,5.876,5.261,7.831,8.557
			c0.085,0.141,0.169,0.285,0.251,0.43L102.914,32.603z M52.589,28.861l-0.769-0.635c2.543-3.082,5.705-5.637,9.4-7.595l0.466,0.881
			C58.108,23.408,55.048,25.88,52.589,28.861z M120.63,28.106c-1.52-3.566-3.577-6.957-6.113-10.08l0.773-0.629
			c2.595,3.195,4.7,6.667,6.257,10.318L120.63,28.106z M33.236,24.431l-0.882-0.466c1.862-3.53,4.287-6.786,7.207-9.679l0.702,0.709
			C37.414,17.817,35.05,20.991,33.236,24.431z M84.541,18.875c-3.837-1.027-7.764-1.33-11.674-0.864l-0.118-0.99
			c4.035-0.48,8.092-0.169,12.049,0.891L84.541,18.875z M105.944,9.913c-2.437-1.769-5.039-3.287-7.736-4.512
			c-0.856-0.389-1.745-0.759-2.643-1.1l0.354-0.932c0.917,0.349,1.826,0.727,2.701,1.125c2.758,1.253,5.419,2.805,7.91,4.613
			L105.944,9.913z M49.697,7.918l-0.491-0.869c3.426-1.936,7.164-3.507,11.111-4.672L60.6,3.333
			C56.725,4.476,53.057,6.019,49.697,7.918z M84.086,1.457c-3.857-0.5-7.884-0.593-11.838-0.276l-0.08-0.994
			c4.022-0.323,8.119-0.228,12.047,0.28L84.086,1.457z"/>
		<path d="M16.639,130.54l-0.006-0.997c3.989-0.023,7.979-0.04,11.968-0.051l0.003,0.997
			C24.616,130.501,20.627,130.517,16.639,130.54z M126.926,130.505h-11.968v-0.997h11.968V130.505z M102.994,130.504l-11.967-0.001
			v-0.997l11.967,0.001V130.504z M79.059,130.502l-14.557-0.009l0.001-0.997l14.556,0.009V130.502z M52.536,130.48l-11.966-0.006
			v-0.997l11.967,0.006L52.536,130.48z M138.899,130.48l-0.019-0.997c6.351-0.123,7.462-0.884,7.93-5.433l0.991,0.101
			C147.25,129.511,145.304,130.356,138.899,130.48z M4.853,128.561c-0.354-0.759-0.512-1.759-0.512-3.241l0.004-0.608
			c0.029-3.715,0.051-6.399,0.389-8.327l0.983,0.173c-0.324,1.846-0.345,4.495-0.374,8.162l-0.004,0.6
			c0,1.312,0.133,2.208,0.419,2.82L4.853,128.561z M145.949,112.947c-0.737-0.546-1.92-0.78-3.956-0.78l-0.13-0.498l0.002,0.499
			l-7.42,0.031l-0.004-0.997l7.552-0.032c2.266,0,3.627,0.292,4.55,0.977L145.949,112.947z M74.608,112.293l-11.967-0.003v-0.997
			l11.967,0.003V112.293z M86.575,112.29v-0.997l11.967-0.008v0.997L86.575,112.29z M14.782,112.287l-0.012-0.997
			c1.076-0.013,2.269-0.013,3.591-0.013l8.379,0.001v0.997l-8.379-0.001C17.043,112.275,15.854,112.275,14.782,112.287z
			 M50.674,112.285l-11.967-0.006v-0.997l11.967,0.006V112.285z M110.51,112.265l-0.002-0.997c3.989-0.007,7.978-0.016,11.967-0.026
			l0.002,0.997C118.488,112.249,114.499,112.258,110.51,112.265z"/>
		<polygon points="32.295,19.488 33.778,22.492 37.094,22.974 34.695,25.313 35.261,28.616 32.295,27.057 29.329,28.616 
			29.896,25.313 27.496,22.974 30.812,22.492 		"/>
		<polygon points="119.853,19.488 121.336,22.492 124.652,22.974 122.253,25.313 122.819,28.616 119.853,27.057 116.887,28.616 
			117.453,25.313 115.054,22.974 118.37,22.492 		"/>
		<polygon points="101.498,56.09 102.981,59.095 106.297,59.577 103.897,61.916 104.464,65.219 101.498,63.659 98.532,65.219 
			99.098,61.916 96.699,59.577 100.015,59.095 		"/>
		<polygon points="50.331,56.09 51.814,59.095 55.13,59.577 52.731,61.916 53.297,65.219 50.331,63.659 47.365,65.219 
			47.932,61.916 45.532,59.577 48.848,59.095 		"/>
		<polygon points="30.809,83.938 32.292,86.943 35.608,87.425 33.209,89.764 33.775,93.067 30.809,91.507 27.843,93.067 
			28.41,89.764 26.01,87.425 29.326,86.943 		"/>
		<polygon points="121.049,84.719 122.532,87.724 125.848,88.206 123.448,90.545 124.015,93.848 121.049,92.289 118.083,93.848 
			118.649,90.545 116.25,88.206 119.566,87.724 		"/>
		<polygon points="69.726,107.104 71.209,110.109 74.525,110.591 72.125,112.93 72.692,116.233 69.726,114.673 66.76,116.233 
			67.326,112.93 64.927,110.591 68.243,110.109 		"/>
		<polygon points="135.494,125.529 136.977,128.534 140.293,129.016 137.894,131.355 138.46,134.657 135.494,133.098 
			132.528,134.657 133.095,131.355 130.695,129.016 134.011,128.534 		"/>
		<polygon points="4.799,124.16 6.282,127.165 9.598,127.646 7.199,129.985 7.765,133.288 4.799,131.729 1.833,133.288 
			2.399,129.985 0,127.646 3.316,127.165 		"/>
	</g>
	<g>
		<path d="M54.63,177.983c0.281,0.311,0.17,0.592-0.338,0.846c-0.311,0.141-0.762,0.24-1.354,0.297
			c-0.396,0.028-0.818,0.099-1.269,0.211c-0.227,0.058-0.473,0.113-0.741,0.17c-0.268,0.057-0.522,0.105-0.762,0.148
			c-0.24,0.042-0.459,0.078-0.655,0.106c-0.198,0.027-0.339,0.042-0.424,0.042c-0.226,0.027-0.6,0.049-1.121,0.063
			c-0.522,0.014-0.839,0.022-0.952,0.022c-0.366-0.058-0.705-0.127-1.015-0.212c-0.65-0.197-1.107-0.529-1.376-0.994
			s-0.459-1.249-0.57-2.348c-0.058-0.479-0.071-2.067-0.042-4.76c0.027-2.693,0.07-4.591,0.127-5.691
			c0.055-1.156,0.055-3.159,0-6.008c-0.058-1.693-0.064-3.498-0.022-5.416c0.042-1.918,0.105-3.075,0.19-3.47
			c0.057-0.311,0.184-0.536,0.381-0.677c0.225-0.17,0.536-0.311,0.93-0.424c0.254-0.055,0.606-0.085,1.058-0.085
			c0.649,0,1.17,0.085,1.566,0.254c0.281,0.113,0.457,0.24,0.528,0.38c0.071,0.142,0.12,0.424,0.149,0.846
			c0.027,0.367,0.055,2.525,0.084,6.474c0.028,3.892,0.057,6.234,0.085,7.024c0,0.733,0.014,2.834,0.042,6.303
			c0.028,3.893,0.085,6.094,0.17,6.601v0.253l0.254-0.042c0.197-0.027,0.507-0.07,0.93-0.126c0.733-0.113,1.467-0.184,2.2-0.212
			c0.507-0.028,0.874-0.014,1.1,0.042C54.179,177.688,54.461,177.815,54.63,177.983z"/>
		<path d="M57.761,154.797c-0.79-0.027-1.34-0.281-1.651-0.762c-0.113-0.225-0.184-0.973-0.211-2.243
			c-0.028-0.704-0.036-1.127-0.022-1.269c0.014-0.14,0.091-0.267,0.233-0.38c0.198-0.197,0.551-0.366,1.058-0.507
			c0.197-0.057,0.564-0.091,1.1-0.106c0.536-0.014,0.917,0.008,1.143,0.064c0.592,0.141,0.987,0.338,1.184,0.592l0.127,0.212v0.888
			c-0.028,0.818-0.155,1.523-0.381,2.116C59.976,154.388,59.115,154.854,57.761,154.797z M61.019,158.606
			c0.057,0.761,0.091,2.722,0.106,5.881c0.013,3.16,0.007,5.444-0.022,6.854c-0.057,1.41-0.141,2.525-0.253,3.342
			c-0.058,0.367-0.085,1.115-0.085,2.243c0,0.818,0,1.305,0,1.459c0,0.155-0.028,0.262-0.085,0.317
			c-0.17,0.311-0.579,0.543-1.227,0.699c-0.65,0.155-1.27,0.176-1.862,0.063c-0.79-0.112-1.283-0.352-1.481-0.719
			c-0.028-0.085-0.041-0.437-0.041-1.057c-0.058-5.5-0.1-8.632-0.127-9.394c-0.028-0.732-0.028-1.396,0-1.989
			c0.027-0.564,0.042-1.502,0.042-2.813c0-1.312-0.015-2.32-0.042-3.025c-0.058-1.297-0.028-2.27,0.085-2.92
			c0.055-0.423,0.183-0.733,0.38-0.931c0.339-0.366,0.952-0.57,1.841-0.613c0.889-0.042,1.558,0.121,2.009,0.487
			C60.653,156.801,60.906,157.505,61.019,158.606z"/>
		<path d="M75.996,169.225c0.028,0.959-0.014,1.974-0.126,3.047c-0.113,0.958-0.254,1.665-0.424,2.116
			c-0.423,1.184-0.818,2.144-1.184,2.876c-0.226,0.396-0.465,0.719-0.719,0.974c-0.846,0.903-2.017,1.453-3.512,1.651
			c-0.762,0.112-1.34,0.14-1.734,0.084c-0.085-0.028-0.212-0.041-0.381-0.041c-0.903-0.142-1.622-0.466-2.158-0.974
			c-0.198-0.197-0.353-0.409-0.465-0.635c-0.226-0.451-0.338-0.832-0.338-1.142c0-0.17,0.041-0.297,0.126-0.381
			c0.17-0.197,0.451-0.338,0.846-0.423c0.536-0.141,1.071-0.099,1.608,0.126c0.225,0.114,0.437,0.367,0.635,0.762
			c0.14,0.311,0.253,0.509,0.338,0.593l0.127,0.126l0.085-0.085c0.254-0.225,0.493-0.564,0.719-1.015
			c0.339-0.705,0.578-1.481,0.719-2.328c0.057-0.338,0.112-0.704,0.17-1.1c0.197-1.016,0.31-2.073,0.338-3.173
			c0.028-0.818,0.014-1.707-0.042-2.667l-0.042-0.338l-0.211,0.38c-0.17,0.283-0.311,0.551-0.424,0.804
			c-0.396,0.959-0.705,2.017-0.93,3.174c-0.085,0.394-0.268,1.213-0.551,2.454c-0.141,0.536-0.311,0.889-0.507,1.057
			c-0.423,0.367-1.065,0.544-1.925,0.529c-0.861-0.014-1.459-0.19-1.797-0.529c-0.085-0.112-0.127-0.197-0.127-0.253
			c0-0.028,0-0.366,0-1.016c0-0.592-0.015-1.1-0.042-1.522c-0.028-0.367-0.042-1.376-0.042-3.026c0-1.649,0.014-2.955,0.042-3.913
			c0-0.509,0.027-1.495,0.085-2.962c0.055-3.074,0.098-4.809,0.127-5.204c0.027-0.367,0.055-0.762,0.084-1.185
			c0.028-0.507,0.057-1.015,0.085-1.523c0.028-0.564,0.057-1.282,0.085-2.157c0.028-1.043,0.113-1.679,0.254-1.905
			c0.197-0.338,0.585-0.57,1.164-0.698c0.577-0.127,1.177-0.12,1.797,0.021c0.48,0.113,0.804,0.325,0.974,0.635l0.127,0.254
			l-0.042,0.974c0,0.903-0.071,2.581-0.212,5.034c-0.057,0.931-0.099,1.834-0.127,2.708c-0.028,0.565-0.057,1.523-0.084,2.877
			c-0.029,1.354-0.042,2.538-0.042,3.554c0,1.016,0,1.651,0,1.904l0.042,0.254l0.126-0.254c0.057-0.197,0.184-0.507,0.381-0.93
			c0.338-0.705,0.677-1.228,1.015-1.566c0.339-0.339,0.748-0.564,1.228-0.677c0.197-0.057,0.522-0.085,0.973-0.085
			c0.479,0,0.846,0.042,1.101,0.127c1.127,0.311,1.918,0.988,2.369,2.031C75.855,167.208,75.996,168.069,75.996,169.225z"/>
		<path d="M91.06,153.993c0.112,0.735,0.12,1.629,0.021,2.687c-0.099,1.057-0.275,1.954-0.529,2.686
			c-0.311,0.931-0.493,1.439-0.55,1.523c-0.283,0.424-0.903,0.65-1.861,0.677c-0.396,0.028-0.755,0.008-1.079-0.063
			c-0.325-0.071-0.586-0.176-0.782-0.317c-0.198-0.141-0.297-0.297-0.297-0.466c0-0.055,0.057-0.211,0.17-0.465
			c0.085-0.281,0.14-0.522,0.168-0.719c0.057-0.17,0.113-0.38,0.17-0.635c0.141-0.704,0.239-1.566,0.297-2.581
			c0.027-0.958,0.014-1.748-0.042-2.37l-0.042-0.168l-0.127,0.211c-0.396,0.677-0.804,1.778-1.227,3.3
			c-0.339,1.072-0.592,2.073-0.762,3.005c-0.649,3.188-1.129,6.953-1.439,11.298c-0.113,1.41-0.141,2.764-0.085,4.062
			c0.028,1.184,0.057,1.847,0.085,1.988c0.057,0.338,0.057,0.578,0,0.719c-0.113,0.283-0.48,0.522-1.1,0.719
			c-0.622,0.226-1.284,0.283-1.989,0.168c-0.875-0.112-1.412-0.366-1.608-0.761c-0.057-0.113-0.099-0.346-0.127-0.699
			c-0.028-0.352-0.057-0.712-0.085-1.079c-0.057-0.507-0.085-0.889-0.085-1.142c-0.028-0.339-0.057-0.606-0.085-0.804
			c-0.084-0.818-0.126-4.428-0.126-10.831c0.027-2.962,0.013-4.993-0.042-6.093c-0.058-2.821,0.013-4.951,0.211-6.389
			c0.028-0.394,0.127-0.677,0.297-0.846c0.17-0.17,0.465-0.31,0.889-0.423c0.902-0.254,1.706-0.197,2.411,0.17
			c0.339,0.168,0.55,0.536,0.635,1.1c0.141,0.959,0.239,2.75,0.297,5.373c0.027,1.58,0.057,2.581,0.085,3.004
			c0,0.423,0.013,0.818,0.042,1.184v0.423l0.042-0.296c0.027-0.141,0.112-0.677,0.253-1.608c0.141-1.128,0.324-2.228,0.55-3.3
			c0.311-1.382,0.578-2.411,0.804-3.088c0.226-0.705,0.55-1.27,0.974-1.693c0.451-0.479,1.128-0.733,2.031-0.762
			c0.564-0.027,1.043,0.028,1.439,0.17c0.536,0.17,1.001,0.507,1.396,1.015C90.65,152.442,90.917,153.148,91.06,153.993z"/>
		<path d="M103.837,178.11c0.112,0.254,0.148,0.452,0.105,0.592c-0.042,0.141-0.19,0.311-0.444,0.509
			c-0.396,0.311-0.903,0.465-1.523,0.465c-0.536,0-1.057-0.085-1.565-0.254c-0.509-0.17-0.861-0.437-1.058-0.804
			c-0.168-0.31-0.324-0.761-0.465-1.354l-0.085-0.38l-0.17,0.423c-0.479,1.072-0.973,1.764-1.481,2.073
			c-0.592,0.339-1.269,0.424-2.031,0.254c-0.677-0.141-1.255-0.536-1.734-1.184c-0.367-0.479-0.62-1.086-0.762-1.82
			c-0.113-0.619-0.184-1.522-0.212-2.708c-0.028-2.256,0.155-4.089,0.551-5.5c0.31-1.156,0.746-2.016,1.312-2.581
			c0.338-0.31,0.747-0.55,1.227-0.719c1.213-0.394,2.285-0.31,3.215,0.254l0.127,0.085v-0.297c0-1.241,0.085-3.131,0.254-5.67
			c0.027-0.451,0.042-1.255,0.042-2.411c0-1.185-0.015-1.96-0.042-2.328c-0.17-1.184-0.353-2.003-0.551-2.454
			c-0.168-0.339-0.31-0.509-0.423-0.509c-0.057,0-0.163,0.092-0.317,0.276c-0.155,0.184-0.275,0.346-0.36,0.486
			c-0.565,0.846-0.974,2.216-1.227,4.104c-0.057,0.48-0.17,1.27-0.339,2.37c-0.113,0.705-0.198,1.213-0.253,1.523
			c-0.028,0.366-0.071,0.635-0.127,0.804c-0.057,0.168-0.135,0.311-0.233,0.423c-0.1,0.113-0.248,0.198-0.444,0.254
			c-0.17,0.057-0.423,0.099-0.762,0.126c-0.705,0.029-1.171-0.098-1.396-0.38l-0.127-0.127l0.042-0.465
			c0-0.451,0.071-1.143,0.212-2.073c0.14-0.931,0.296-1.861,0.465-2.793s0.311-1.608,0.424-2.031c0.197-0.62,0.409-1.17,0.635-1.651
			c0.648-1.296,1.706-2.1,3.173-2.411c0.225-0.028,0.556-0.042,0.994-0.042c0.437,0,0.768,0.014,0.994,0.042
			c1.326,0.283,2.312,0.903,2.962,1.861c0.451,0.677,0.775,1.651,0.973,2.92c0.113,0.79,0.155,2.906,0.127,6.347
			c0,3.696-0.042,6.149-0.127,7.362c-0.028,0.48-0.042,1.714-0.042,3.702c0,1.989,0,3.124,0,3.405
			C103.456,176.7,103.611,177.462,103.837,178.11z M98.802,168.633l0.042-0.677l-0.17-0.212c-0.113-0.17-0.268-0.352-0.465-0.55
			c-0.48-0.479-0.818-0.733-1.016-0.762c-0.141,0-0.324,0.381-0.55,1.142c-0.17,0.565-0.296,1.171-0.38,1.82
			c-0.058,0.367-0.078,1.086-0.064,2.158c0.014,1.072,0.049,2.003,0.106,2.793c0.112,1.692,0.183,2.51,0.211,2.454
			c0.028,0,0.127-0.225,0.297-0.677c0.31-0.846,0.944-3.018,1.904-6.515C98.773,169.38,98.802,169.056,98.802,168.633z"/>
	</g>
</g>
</svg>
