<?xml version="1.0" encoding="utf-8"?>
<!-- Generator: Adobe Illustrator 17.0.0, SVG Export Plug-In . SVG Version: 6.00 Build 0)  -->
<!DOCTYPE svg PUBLIC "-//W3C//DTD SVG 1.1//EN" "http://www.w3.org/Graphics/SVG/1.1/DTD/svg11.dtd">
<svg version="1.1" id="Layer_1" xmlns="http://www.w3.org/2000/svg" xmlns:xlink="http://www.w3.org/1999/xlink" x="0px" y="0px"
	 width="142.72px" height="180px" viewBox="0 0 142.72 180" enable-background="new 0 0 142.72 180" xml:space="preserve">
<g>
	<g>
		<path d="M18.237,128.671c-0.101,0-0.201-0.005-0.305-0.014c-1.317-0.128-2.282-1.021-3.235-2.005l-4.833-4.989
			c-0.759-0.784-1.62-1.674-2.126-2.785l1.067-0.485c0.421,0.927,1.208,1.738,1.901,2.455l4.833,4.989
			c0.794,0.82,1.584,1.563,2.505,1.652c0.064,0.007,0.128,0.009,0.192,0.009l0.102,1.17L18.237,128.671z M29.202,119.39
			l-0.829-0.829l9.941-9.953l0.829,0.829L29.202,119.39z M79.649,118.817c-1.26-0.466-2.355-1.422-3.283-2.28
			c-2.519-2.326-5.029-4.71-7.462-7.085l0.82-0.839c2.425,2.369,4.927,4.745,7.438,7.063c0.846,0.782,1.836,1.65,2.895,2.042
			L79.649,118.817z M91.569,111.427l-0.872-0.783c0.274-0.305,0.545-0.614,0.812-0.926c0.457-0.533,0.873-1.059,0.939-1.637
			c0.008-0.063,0.011-0.118,0.011-0.173c0-0.865-0.757-1.689-1.465-2.394l-4.95-4.92l0.827-0.831l4.95,4.92
			c0.941,0.935,1.811,1.972,1.811,3.225c0,0.104-0.006,0.209-0.019,0.315c-0.103,0.899-0.656,1.609-1.212,2.259
			C92.125,110.8,91.849,111.115,91.569,111.427z M15.161,107.518l-0.829-0.829l9.945-9.949l0.829,0.829L15.161,107.518z
			 M49.084,99.485l-0.829-0.829l2.875-2.878c0.593-0.593,1.33-1.331,2.349-1.54c0.188-0.039,0.382-0.059,0.576-0.059
			c1.466,0,2.702,1.114,3.718,2.204c0.694,0.744,1.393,1.487,2.094,2.227l-0.852,0.806c-0.703-0.742-1.402-1.486-2.1-2.233
			c-0.941-1.009-2.102-2.024-3.2-1.797c-0.625,0.128-1.144,0.608-1.757,1.221L49.084,99.485z M76.065,90.676l-7.139-7.095
			c-0.537-0.535-1.349-1.342-1.458-2.409c-0.008-0.09-0.013-0.172-0.013-0.254c0.001-0.519,0.158-1.029,0.48-1.559l1.003,0.608
			c-0.208,0.343-0.309,0.654-0.31,0.953c0,0.045,0.002,0.093,0.007,0.14c0.062,0.593,0.543,1.116,1.118,1.689l7.139,7.095
			L76.065,90.676z M35.051,87.62l-0.829-0.829l2.983-2.984c1.038-1.039,1.999-2.163,1.999-3.331c0-0.098-0.006-0.196-0.019-0.296
			c-0.127-0.915-0.837-1.671-1.682-2.496l-1.129-1.102l0.82-0.838l1.128,1.101c0.774,0.754,1.832,1.786,2.024,3.175
			c0.021,0.155,0.031,0.306,0.031,0.456c0,1.595-1.125,2.942-2.342,4.16L35.051,87.62z M125.965,70.604
			c-1.445-0.01-2.903-0.084-4.334-0.219c-1.57-0.148-3.177-0.436-4.302-1.534c-1.355-1.323-1.527-3.297-1.588-5.206l-0.011-0.375
			l1.172-0.042l0.011,0.383c0.054,1.737,0.19,3.382,1.234,4.401c0.908,0.886,2.331,1.088,3.593,1.207
			c1.398,0.132,2.821,0.203,4.231,0.213L125.965,70.604z M78.612,69.954l-0.836-0.822l9.865-10.028l0.836,0.822L78.612,69.954z
			 M54.033,67.538c-1.197,0-2.117-0.861-2.885-1.669c-2.442-2.568-4.935-5.13-7.412-7.616l0.831-0.828
			c2.483,2.493,4.983,5.062,7.431,7.636c0.627,0.66,1.302,1.304,2.035,1.304c0.147-0.006,0.232-0.019,0.316-0.041l0.293,1.136
			c-0.161,0.041-0.326,0.066-0.491,0.074L54.033,67.538z M26.304,66.759l-7.554-7.371c-0.778-0.76-1.673-1.676-2.399-2.705
			l0.957-0.677c0.673,0.952,1.521,1.82,2.262,2.543l7.554,7.371L26.304,66.759z M133.823,63.025l-0.003-14.067h1.172l0.003,14.067
			H133.823z M65.107,57.699l-0.827-0.831l9.967-9.927l0.827,0.831L65.107,57.699z M98.341,49.897l-0.836-0.822l9.865-10.028
			l0.836,0.822L98.341,49.897z M115.284,49.209l-0.445-14.061l1.172-0.037l0.445,14.061L115.284,49.209z M33.67,48.453
			c-1.088-1.026-2.18-2.047-3.278-3.063c-1.007-0.933-2.007-1.774-3.149-1.81c-0.001,0-0.002,0-0.002,0
			c-1.072,0-2.022,0.613-2.833,1.188c-0.5,0.353-1.026,0.729-1.561,1.126l-0.698-0.942c0.545-0.403,1.077-0.784,1.583-1.141
			c1.03-0.729,2.16-1.404,3.434-1.404c1.661,0.051,2.894,1.077,4.024,2.123c1.1,1.018,2.195,2.042,3.284,3.07L33.67,48.453z
			 M85.04,37.844l-0.827-0.831l9.967-9.927l0.827,0.831L85.04,37.844z M133.815,34.89l-0.003-14.067h1.172l0.003,14.067H133.815z
			 M102.956,19.758L88.89,19.734l0.002-1.172l14.066,0.024L102.956,19.758z M74.822,19.71l-5.607-0.009
			c-0.954-0.002-2.551-0.005-3.545-1.033c-0.749-0.774-0.916-1.849-1.013-2.795c-0.086-0.837-0.147-1.676-0.182-2.516l1.172-0.048
			c0.033,0.816,0.092,1.631,0.175,2.444c0.078,0.751,0.201,1.595,0.69,2.1c0.6,0.62,1.666,0.674,2.705,0.676l5.607,0.009
			L74.822,19.71z M134.98,6.756h-1.172V4.421c0-1.06-0.061-2.237-0.783-2.809c-0.515-0.406-1.29-0.44-2.105-0.44l-5.606,0.008
			l-0.002-1.172L130.866,0c1.043,0,2.077,0.054,2.886,0.693c1.228,0.971,1.228,2.765,1.228,3.728V6.756z M69.21,1.539l-0.288-1.137
			c1.097-0.278,2.3-0.318,3.436-0.32l10.752-0.015l0.002,1.172L72.359,1.254C71.298,1.256,70.183,1.291,69.21,1.539z M97.178,1.22
			l-0.002-1.172l14.067-0.019l0.002,1.172L97.178,1.22z"/>
		<polygon points="7.871,112.284 9.434,115.45 12.927,115.958 10.399,118.422 10.996,121.901 7.871,120.258 4.746,121.901 
			5.343,118.422 2.815,115.958 6.309,115.45 		"/>
		<polygon points="16.548,52.354 18.11,55.519 21.604,56.027 19.076,58.491 19.672,61.971 16.548,60.328 13.423,61.971 
			14.019,58.491 11.491,56.027 14.985,55.519 		"/>
		<polygon points="76.196,83.263 77.759,86.429 81.252,86.936 78.724,89.401 79.321,92.88 76.196,91.237 73.071,92.88 
			73.668,89.401 71.14,86.936 74.634,86.429 		"/>
		<polygon points="106.149,36.301 107.712,39.466 111.205,39.974 108.677,42.438 109.274,45.918 106.149,44.275 103.024,45.918 
			103.621,42.438 101.093,39.974 104.587,39.466 		"/>
		<polygon points="134.481,12.727 136.043,15.893 139.537,16.401 137.009,18.865 137.606,22.344 134.481,20.701 131.356,22.344 
			131.953,18.865 129.425,16.401 132.918,15.893 		"/>
	</g>
	<g>
		<path d="M11,171.279c0.208,0.862,0.313,1.679,0.313,2.451c0,0.625-0.03,1.055-0.089,1.294c-0.327,1.188-0.922,2.065-1.784,2.63
			c-0.505,0.327-0.988,0.579-1.448,0.758c-0.461,0.179-1.019,0.311-1.671,0.401c-0.774,0.119-1.501,0.15-2.184,0.089
			c-1.1-0.118-1.977-0.386-2.631-0.803c-0.594-0.386-1.025-1.054-1.292-2.006c-0.149-0.445-0.238-0.95-0.267-1.516
			c-0.061-0.802,0.044-1.486,0.311-2.05c0.268-0.594,0.817-0.892,1.65-0.892c0.594,0,0.995,0.105,1.203,0.313
			c0.119,0.119,0.119,0.311,0,0.579c-0.238,0.685-0.119,1.739,0.357,3.165c0.386,1.13,0.906,1.62,1.559,1.471
			c0.238-0.06,0.475-0.223,0.714-0.491c0.297-0.296,0.505-0.683,0.624-1.159c0.237-1.039-0.045-2.6-0.847-4.681
			c-0.417-1.159-1.248-2.778-2.497-4.858c-0.802-1.337-1.39-2.408-1.761-3.209c-0.372-0.802-0.69-1.709-0.958-2.72
			c-0.298-1.159-0.445-2.287-0.445-3.387c0-0.862,0.089-1.678,0.267-2.452c0.416-1.931,1.099-3.373,2.05-4.324
			c1.249-1.248,2.809-1.842,4.681-1.782c1.694,0.06,2.912,0.624,3.655,1.693c0.356,0.476,0.594,1.145,0.713,2.007
			c0.179,1.248,0,2.912-0.535,4.992c-0.268,1.159-0.506,1.901-0.713,2.229c-0.208,0.327-0.506,0.475-0.892,0.445
			c-0.327-0.029-0.535-0.148-0.624-0.356c-0.03-0.119-0.045-1.011-0.045-2.675c-0.03-1.842-0.089-3.031-0.179-3.566
			c-0.119-0.624-0.327-1.159-0.624-1.605c-0.06-0.118-0.179-0.267-0.357-0.445c-0.177-0.179-0.283-0.268-0.311-0.268
			c-0.089,0-0.231,0.157-0.424,0.468c-0.193,0.313-0.364,0.617-0.513,0.915c-0.624,1.486-0.907,2.986-0.847,4.501
			c0.03,0.713,0.164,1.532,0.402,2.452c0.267,1.159,0.683,2.333,1.248,3.521c0.326,0.683,0.802,1.575,1.426,2.674
			c1.039,1.843,1.784,3.299,2.229,4.369C10.672,169.986,10.851,170.595,11,171.279z"/>
		<path d="M25.532,177.519c0.118,0.268,0.156,0.476,0.111,0.624c-0.045,0.149-0.2,0.327-0.468,0.536
			c-0.417,0.327-0.951,0.49-1.605,0.49c-0.564,0-1.114-0.089-1.648-0.268c-0.536-0.179-0.907-0.46-1.115-0.847
			c-0.177-0.326-0.341-0.801-0.49-1.426l-0.089-0.401l-0.179,0.445c-0.505,1.13-1.025,1.858-1.56,2.184
			c-0.624,0.357-1.337,0.446-2.14,0.268c-0.713-0.149-1.322-0.564-1.827-1.248c-0.387-0.505-0.654-1.144-0.802-1.918
			c-0.119-0.653-0.193-1.604-0.223-2.853c-0.03-2.377,0.164-4.308,0.58-5.795c0.326-1.218,0.786-2.124,1.382-2.719
			c0.356-0.326,0.786-0.579,1.292-0.758c1.278-0.416,2.407-0.326,3.387,0.268l0.134,0.089v-0.313c0-1.307,0.089-3.298,0.268-5.973
			c0.029-0.475,0.045-1.322,0.045-2.54c0-1.249-0.016-2.065-0.045-2.452c-0.179-1.248-0.372-2.11-0.58-2.585
			c-0.177-0.357-0.326-0.536-0.445-0.536c-0.06,0-0.172,0.097-0.334,0.291c-0.164,0.193-0.29,0.364-0.379,0.512
			c-0.595,0.892-1.026,2.334-1.292,4.324c-0.06,0.506-0.179,1.338-0.357,2.497c-0.119,0.743-0.208,1.278-0.267,1.605
			c-0.03,0.386-0.074,0.669-0.134,0.847c-0.06,0.177-0.142,0.327-0.245,0.445c-0.105,0.119-0.261,0.208-0.468,0.268
			c-0.179,0.06-0.445,0.104-0.802,0.133c-0.743,0.031-1.234-0.103-1.471-0.401l-0.134-0.134l0.045-0.49
			c0-0.475,0.074-1.204,0.223-2.184c0.148-0.981,0.311-1.961,0.49-2.942c0.179-0.981,0.327-1.694,0.446-2.14
			c0.207-0.654,0.43-1.233,0.669-1.739c0.682-1.366,1.797-2.213,3.343-2.54c0.237-0.03,0.586-0.045,1.047-0.045
			c0.46,0,0.809,0.015,1.047,0.045c1.397,0.298,2.436,0.951,3.121,1.961c0.475,0.713,0.816,1.739,1.025,3.076
			c0.119,0.832,0.164,3.061,0.134,6.687c0,3.893-0.045,6.478-0.134,7.756c-0.03,0.506-0.045,1.805-0.045,3.9
			c0,2.095,0,3.291,0,3.588C25.13,176.033,25.294,176.835,25.532,177.519z M20.227,167.534l0.045-0.713l-0.179-0.223
			c-0.119-0.179-0.283-0.371-0.49-0.579c-0.506-0.505-0.862-0.773-1.07-0.803c-0.149,0-0.341,0.402-0.579,1.203
			c-0.179,0.595-0.311,1.234-0.401,1.918c-0.061,0.387-0.082,1.144-0.068,2.274c0.015,1.13,0.052,2.11,0.112,2.942
			c0.118,1.782,0.192,2.644,0.222,2.585c0.03,0,0.134-0.237,0.313-0.713c0.326-0.892,0.995-3.179,2.006-6.864
			C20.197,168.322,20.227,167.979,20.227,167.534z"/>
		<path d="M40.642,149.079c0.386,1.219,0.46,5.87,0.223,13.953c-0.03,1.1-0.045,2.111-0.045,3.031
			c-0.06,1.872-0.149,3.506-0.268,4.903c-0.208,2.169-0.445,3.655-0.713,4.458c-0.238,0.743-0.564,1.412-0.98,2.006
			c-0.239,0.357-0.566,0.685-0.981,0.981c-0.445,0.298-0.981,0.551-1.605,0.758c-0.951,0.326-1.872,0.445-2.764,0.356
			c-1.13-0.119-2.035-0.519-2.719-1.203c-0.268-0.296-0.491-0.639-0.669-1.026c-0.357-0.891-0.342-1.753,0.045-2.585
			c0.148-0.297,0.356-0.579,0.624-0.847c0.535-0.535,1.159-1.025,1.872-1.471c0.802-0.505,1.56-0.847,2.274-1.025l0.134-0.045
			l0.045-0.536c0.029-0.356,0.045-1.144,0.045-2.362v-1.828l-0.179,0.402c-0.298,0.624-0.609,1.085-0.936,1.382
			c-0.238,0.238-0.564,0.417-0.98,0.535c-0.208,0.06-0.558,0.082-1.047,0.066c-0.491-0.014-0.825-0.052-1.004-0.111
			c-0.922-0.237-1.59-0.624-2.006-1.159c-0.506-0.624-0.847-1.635-1.025-3.031c-0.119-1.039-0.134-2.704-0.045-4.992
			c0.118-3.091,0.563-5.557,1.337-7.4c0.356-0.95,0.786-1.716,1.292-2.295c0.505-0.58,1.084-1.003,1.739-1.271
			c0.713-0.297,1.433-0.416,2.161-0.357c0.728,0.061,1.299,0.298,1.716,0.713l0.134,0.089l0.045-0.177
			c0.207-0.594,0.862-0.922,1.961-0.981c0.475-0.03,0.936,0.03,1.382,0.179C40.21,148.337,40.523,148.633,40.642,149.079z
			 M35.07,173.061v-0.177l-0.357,0.177c-0.417,0.208-0.877,0.551-1.382,1.026c-0.208,0.208-0.372,0.417-0.49,0.624
			c-0.149,0.357-0.231,0.721-0.245,1.092c-0.016,0.372,0.096,0.78,0.334,1.226c0.089,0.208,0.23,0.417,0.424,0.624
			c0.192,0.208,0.334,0.313,0.424,0.313c0.029,0,0.103-0.089,0.222-0.268c0.386-0.594,0.654-1.322,0.802-2.184
			C34.981,174.562,35.07,173.746,35.07,173.061z M35.739,156.747c0.118-0.594,0.163-1.62,0.134-3.076
			c0-0.505-0.045-0.92-0.134-1.248c-0.268-0.951-0.624-1.678-1.07-2.184c-0.119-0.119-0.193-0.179-0.222-0.179
			c-0.089,0-0.268,0.49-0.536,1.471c-0.297,1.07-0.505,2.674-0.624,4.814c-0.06,0.981-0.089,2.579-0.089,4.792
			c0,2.214,0.015,3.529,0.045,3.945v0.089l0.089,0.669c0.03,0,0.074-0.058,0.134-0.177v-0.045c0.089-0.179,0.223-0.536,0.401-1.07
			c0.238-0.713,0.58-1.931,1.026-3.655c0.357-1.426,0.594-2.54,0.713-3.343C35.664,157.134,35.709,156.866,35.739,156.747z"/>
		<path d="M46.081,152.957c-0.832-0.029-1.412-0.297-1.739-0.803c-0.119-0.237-0.193-1.025-0.222-2.363
			c-0.03-0.742-0.038-1.187-0.023-1.337c0.015-0.148,0.096-0.282,0.245-0.401c0.208-0.207,0.58-0.386,1.115-0.535
			c0.207-0.06,0.594-0.096,1.159-0.112c0.564-0.015,0.966,0.008,1.204,0.068c0.624,0.149,1.039,0.356,1.248,0.624l0.134,0.223v0.935
			c-0.03,0.862-0.164,1.605-0.402,2.229C48.414,152.527,47.507,153.017,46.081,152.957z M49.513,156.97
			c0.06,0.801,0.096,2.868,0.112,6.196c0.014,3.329,0.007,5.735-0.023,7.221c-0.06,1.486-0.149,2.66-0.267,3.521
			c-0.061,0.387-0.089,1.175-0.089,2.363c0,0.862,0,1.375,0,1.537c0,0.164-0.03,0.276-0.089,0.334
			c-0.179,0.327-0.61,0.572-1.292,0.736c-0.685,0.164-1.338,0.185-1.962,0.066c-0.832-0.118-1.352-0.371-1.56-0.758
			c-0.03-0.089-0.044-0.46-0.044-1.114c-0.061-5.795-0.105-9.094-0.134-9.897c-0.03-0.772-0.03-1.471,0-2.095
			c0.029-0.594,0.045-1.582,0.045-2.964s-0.016-2.444-0.045-3.187c-0.061-1.367-0.03-2.391,0.089-3.076
			c0.058-0.445,0.192-0.773,0.401-0.981c0.357-0.386,1.003-0.601,1.939-0.646s1.642,0.127,2.117,0.513
			C49.127,155.068,49.394,155.81,49.513,156.97z"/>
		<path d="M63.33,173.284c0,0,0.03,0.089,0.089,0.268c0.06,0.177-0.015,0.891-0.223,2.14c-0.119,0.862-0.372,1.59-0.758,2.184
			c-0.238,0.356-0.564,0.654-0.98,0.891c-0.417,0.239-0.892,0.402-1.426,0.491c-0.238,0.058-0.617,0.089-1.137,0.089
			c-0.521,0-0.914-0.031-1.181-0.089c-1.575-0.238-2.69-0.817-3.343-1.739c-0.268-0.356-0.536-0.92-0.802-1.694
			c-0.268-0.801-0.461-1.961-0.58-3.477c-0.03-0.445-0.044-1.485-0.044-3.12s0.014-2.942,0.044-3.923
			c0.06-0.892,0.104-1.961,0.134-3.21c0.03-0.92,0.06-1.916,0.089-2.986c0.03-0.892,0.037-1.345,0.023-1.36
			c-0.016-0.015-0.097-0.022-0.246-0.022c-0.624-0.089-0.935-0.283-0.935-0.58c0-0.207,0.297-0.386,0.892-0.535l0.401-0.134
			l0.089-1.337c0.06-0.862,0.104-1.441,0.134-1.739c0.118-0.891,0.207-1.768,0.267-2.63c0.06-0.92,0.112-1.5,0.157-1.738
			c0.045-0.238,0.14-0.43,0.29-0.58c0.207-0.267,0.564-0.46,1.069-0.579c0.564-0.118,1.085-0.134,1.56-0.045
			c0.892,0.149,1.456,0.521,1.694,1.115c0.416,1.159,0.549,3.253,0.401,6.285c-0.03,0.564-0.03,0.847,0,0.847
			c0.06,0,0.252,0,0.579,0c1.338-0.089,2.199-0.089,2.586,0c0.475,0.119,0.78,0.283,0.914,0.49c0.134,0.208,0.052,0.417-0.245,0.624
			c-0.357,0.208-1.115,0.342-2.274,0.402c-0.654,0.03-1.07,0.06-1.248,0.089h-0.402l-0.045,0.177
			c-0.03,0.268-0.074,1.679-0.133,4.235c-0.031,0.802-0.061,1.798-0.089,2.987c-0.119,2.913-0.134,5.082-0.045,6.508
			c0.058,1.457,0.192,2.541,0.401,3.255c0.149,0.594,0.313,1.055,0.49,1.382l0.045,0.179l0.089-0.134
			c0.238-0.475,0.417-1.278,0.536-2.408c0-0.267,0.103-0.475,0.311-0.624c0.119-0.089,0.179-0.163,0.179-0.223
			c0-0.118,0.118-0.222,0.356-0.311c0.089-0.03,0.298-0.045,0.625-0.045h0.49l0.49,0.268
			C63.092,173.166,63.33,173.284,63.33,173.284z"/>
		<path d="M75.945,173.284c0,0,0.03,0.089,0.089,0.268c0.06,0.177-0.015,0.891-0.223,2.14c-0.119,0.862-0.372,1.59-0.758,2.184
			c-0.238,0.356-0.564,0.654-0.98,0.891c-0.417,0.239-0.892,0.402-1.426,0.491c-0.238,0.058-0.617,0.089-1.137,0.089
			c-0.521,0-0.914-0.031-1.181-0.089c-1.575-0.238-2.69-0.817-3.343-1.739c-0.268-0.356-0.536-0.92-0.802-1.694
			c-0.268-0.801-0.461-1.961-0.58-3.477c-0.03-0.445-0.043-1.485-0.043-3.12s0.014-2.942,0.043-3.923
			c0.06-0.892,0.104-1.961,0.134-3.21c0.03-0.92,0.06-1.916,0.089-2.986c0.03-0.892,0.037-1.345,0.023-1.36
			c-0.016-0.015-0.097-0.022-0.246-0.022c-0.624-0.089-0.935-0.283-0.935-0.58c0-0.207,0.297-0.386,0.892-0.535l0.401-0.134
			l0.089-1.337c0.06-0.862,0.104-1.441,0.134-1.739c0.118-0.891,0.207-1.768,0.267-2.63c0.06-0.92,0.112-1.5,0.157-1.738
			c0.045-0.238,0.14-0.43,0.29-0.58c0.207-0.267,0.564-0.46,1.069-0.579c0.564-0.118,1.085-0.134,1.56-0.045
			c0.892,0.149,1.456,0.521,1.694,1.115c0.416,1.159,0.549,3.253,0.401,6.285c-0.03,0.564-0.03,0.847,0,0.847
			c0.06,0,0.252,0,0.579,0c1.338-0.089,2.199-0.089,2.586,0c0.475,0.119,0.78,0.283,0.914,0.49c0.134,0.208,0.052,0.417-0.245,0.624
			c-0.357,0.208-1.115,0.342-2.274,0.402c-0.654,0.03-1.07,0.06-1.248,0.089h-0.402l-0.045,0.177
			c-0.03,0.268-0.074,1.679-0.133,4.235c-0.031,0.802-0.061,1.798-0.089,2.987c-0.119,2.913-0.134,5.082-0.045,6.508
			c0.058,1.457,0.192,2.541,0.401,3.255c0.149,0.594,0.313,1.055,0.49,1.382l0.045,0.179l0.089-0.134
			c0.238-0.475,0.417-1.278,0.536-2.408c0-0.267,0.103-0.475,0.311-0.624c0.119-0.089,0.179-0.163,0.179-0.223
			c0-0.118,0.118-0.222,0.356-0.311c0.089-0.03,0.298-0.045,0.625-0.045h0.49l0.49,0.268
			C75.707,173.166,75.945,173.284,75.945,173.284z"/>
		<path d="M89.585,177.519c0.118,0.268,0.156,0.476,0.111,0.624c-0.045,0.149-0.2,0.327-0.468,0.536
			c-0.417,0.327-0.951,0.49-1.605,0.49c-0.564,0-1.114-0.089-1.648-0.268c-0.536-0.179-0.907-0.46-1.115-0.847
			c-0.177-0.326-0.341-0.801-0.49-1.426l-0.089-0.401l-0.179,0.445c-0.505,1.13-1.025,1.858-1.56,2.184
			c-0.624,0.357-1.337,0.446-2.14,0.268c-0.713-0.149-1.322-0.564-1.827-1.248c-0.387-0.505-0.654-1.144-0.802-1.918
			c-0.119-0.653-0.193-1.604-0.223-2.853c-0.03-2.377,0.164-4.308,0.58-5.795c0.326-1.218,0.786-2.124,1.382-2.719
			c0.356-0.326,0.786-0.579,1.292-0.758c1.278-0.416,2.407-0.326,3.387,0.268l0.134,0.089v-0.313c0-1.307,0.089-3.298,0.268-5.973
			c0.029-0.475,0.045-1.322,0.045-2.54c0-1.249-0.016-2.065-0.045-2.452c-0.179-1.248-0.372-2.11-0.58-2.585
			c-0.177-0.357-0.326-0.536-0.445-0.536c-0.06,0-0.172,0.097-0.334,0.291c-0.164,0.193-0.29,0.364-0.379,0.512
			c-0.595,0.892-1.026,2.334-1.292,4.324c-0.06,0.506-0.179,1.338-0.357,2.497c-0.119,0.743-0.208,1.278-0.267,1.605
			c-0.03,0.386-0.074,0.669-0.134,0.847c-0.06,0.177-0.142,0.327-0.245,0.445c-0.105,0.119-0.261,0.208-0.468,0.268
			c-0.179,0.06-0.445,0.104-0.802,0.133c-0.743,0.031-1.234-0.103-1.471-0.401l-0.134-0.134l0.045-0.49
			c0-0.475,0.074-1.204,0.223-2.184c0.148-0.981,0.311-1.961,0.49-2.942c0.179-0.981,0.327-1.694,0.446-2.14
			c0.207-0.654,0.43-1.233,0.669-1.739c0.682-1.366,1.797-2.213,3.343-2.54c0.237-0.03,0.586-0.045,1.047-0.045
			c0.46,0,0.809,0.015,1.047,0.045c1.397,0.298,2.436,0.951,3.121,1.961c0.475,0.713,0.816,1.739,1.025,3.076
			c0.119,0.832,0.164,3.061,0.134,6.687c0,3.893-0.045,6.478-0.134,7.756c-0.03,0.506-0.045,1.805-0.045,3.9
			c0,2.095,0,3.291,0,3.588C89.183,176.033,89.347,176.835,89.585,177.519z M84.28,167.534l0.045-0.713l-0.179-0.223
			c-0.119-0.179-0.283-0.371-0.49-0.579c-0.506-0.505-0.862-0.773-1.07-0.803c-0.149,0-0.341,0.402-0.579,1.203
			c-0.179,0.595-0.311,1.234-0.401,1.918c-0.061,0.387-0.082,1.144-0.068,2.274s0.052,2.11,0.112,2.942
			c0.118,1.782,0.192,2.644,0.222,2.585c0.03,0,0.134-0.237,0.313-0.713c0.326-0.892,0.995-3.179,2.006-6.864
			C84.25,168.322,84.28,167.979,84.28,167.534z"/>
		<path d="M106.524,152.11c0.118,0.774,0.126,1.716,0.022,2.831c-0.104,1.114-0.29,2.058-0.558,2.83
			c-0.327,0.981-0.52,1.516-0.579,1.605c-0.298,0.446-0.951,0.685-1.961,0.713c-0.417,0.03-0.796,0.008-1.137-0.066
			c-0.342-0.074-0.617-0.185-0.824-0.334c-0.208-0.149-0.313-0.313-0.313-0.491c0-0.058,0.06-0.222,0.179-0.49
			c0.089-0.296,0.148-0.549,0.177-0.758c0.06-0.179,0.119-0.401,0.179-0.669c0.149-0.742,0.252-1.65,0.313-2.719
			c0.029-1.01,0.015-1.842-0.045-2.497l-0.045-0.177l-0.134,0.222c-0.417,0.713-0.847,1.873-1.292,3.477
			c-0.357,1.13-0.624,2.184-0.802,3.165c-0.683,3.359-1.189,7.326-1.516,11.902c-0.119,1.486-0.149,2.912-0.089,4.279
			c0.03,1.248,0.06,1.946,0.089,2.095c0.06,0.356,0.06,0.609,0,0.758c-0.119,0.298-0.506,0.549-1.159,0.758
			c-0.655,0.238-1.353,0.298-2.095,0.177c-0.922-0.118-1.487-0.386-1.694-0.801c-0.06-0.119-0.104-0.364-0.134-0.736
			c-0.03-0.371-0.06-0.75-0.089-1.137c-0.06-0.535-0.089-0.936-0.089-1.203c-0.03-0.357-0.06-0.639-0.089-0.847
			c-0.088-0.862-0.133-4.665-0.133-11.411c0.029-3.121,0.014-5.26-0.045-6.419c-0.061-2.972,0.014-5.216,0.222-6.731
			c0.03-0.416,0.134-0.713,0.313-0.892s0.49-0.326,0.936-0.445c0.95-0.268,1.797-0.207,2.54,0.179
			c0.357,0.177,0.579,0.564,0.669,1.159c0.149,1.011,0.252,2.897,0.313,5.661c0.029,1.665,0.06,2.719,0.089,3.165
			c0,0.445,0.014,0.862,0.045,1.248v0.445l0.045-0.311c0.029-0.149,0.118-0.713,0.267-1.694c0.149-1.188,0.341-2.347,0.579-3.477
			c0.327-1.456,0.609-2.54,0.847-3.253c0.238-0.743,0.579-1.338,1.026-1.784c0.475-0.505,1.188-0.773,2.14-0.802
			c0.594-0.029,1.099,0.03,1.516,0.179c0.564,0.179,1.054,0.535,1.471,1.069C106.093,150.477,106.374,151.22,106.524,152.11z"/>
		<path d="M110.356,152.957c-0.832-0.029-1.412-0.297-1.739-0.803c-0.119-0.237-0.193-1.025-0.222-2.363
			c-0.03-0.742-0.038-1.187-0.023-1.337c0.015-0.148,0.096-0.282,0.245-0.401c0.208-0.207,0.58-0.386,1.115-0.535
			c0.207-0.06,0.594-0.096,1.159-0.112c0.564-0.015,0.966,0.008,1.204,0.068c0.624,0.149,1.039,0.356,1.248,0.624l0.134,0.223v0.935
			c-0.03,0.862-0.164,1.605-0.402,2.229C112.689,152.527,111.782,153.017,110.356,152.957z M113.788,156.97
			c0.06,0.801,0.096,2.868,0.112,6.196c0.014,3.329,0.007,5.735-0.023,7.221c-0.06,1.486-0.149,2.66-0.267,3.521
			c-0.061,0.387-0.089,1.175-0.089,2.363c0,0.862,0,1.375,0,1.537c0,0.164-0.03,0.276-0.089,0.334
			c-0.179,0.327-0.61,0.572-1.292,0.736c-0.685,0.164-1.338,0.185-1.962,0.066c-0.832-0.118-1.352-0.371-1.56-0.758
			c-0.03-0.089-0.044-0.46-0.044-1.114c-0.061-5.795-0.105-9.094-0.134-9.897c-0.03-0.772-0.03-1.471,0-2.095
			c0.029-0.594,0.045-1.582,0.045-2.964s-0.016-2.444-0.045-3.187c-0.061-1.367-0.03-2.391,0.089-3.076
			c0.058-0.445,0.192-0.773,0.401-0.981c0.357-0.386,1.003-0.601,1.939-0.646c0.936-0.045,1.642,0.127,2.117,0.513
			C113.402,155.068,113.669,155.81,113.788,156.97z"/>
		<path d="M129.925,157.771c0.03,0.298,0.052,0.825,0.066,1.583c0.015,0.758,0.03,1.553,0.045,2.385
			c0.015,0.832,0.03,1.657,0.045,2.474c0.015,0.817,0.007,1.42-0.022,1.805c-0.089,2.169-0.268,4.117-0.535,5.84
			c-0.566,3.27-1.383,5.527-2.452,6.776c-0.506,0.624-1.248,1.039-2.229,1.248c-0.208,0.06-0.579,0.096-1.114,0.111
			c-0.536,0.015-0.922,0.007-1.16-0.022c-1.041-0.179-1.888-0.506-2.54-0.981c-0.536-0.356-0.981-0.817-1.337-1.382
			c-0.655-0.95-1.115-2.229-1.383-3.834c-0.208-1.218-0.356-2.971-0.445-5.259c-0.089-2.615-0.089-4.963,0-7.044
			c0.06-0.98,0.104-1.768,0.134-2.362c0.029-0.594,0.06-1.144,0.089-1.65c0.029-0.773,0.045-1.233,0.045-1.382
			c0.207-3.596,0.549-5.854,1.025-6.776c0.149-0.296,0.357-0.52,0.624-0.669c0.446-0.237,0.981-0.326,1.605-0.268
			c0.713,0.089,1.173,0.342,1.382,0.758c0.179,0.268,0.283,0.699,0.313,1.294c0.029,0.594,0.029,1.827,0,3.699
			c-0.061,2.913-0.03,5.915,0.089,9.005c0,0.268,0.014,0.766,0.045,1.493c0.029,0.729,0.045,1.226,0.045,1.494
			c0.177,5.29,0.49,8.618,0.935,9.985c0.119,0.417,0.29,0.855,0.513,1.315c0.223,0.461,0.364,0.69,0.424,0.69
			c0.06,0,0.223-0.222,0.49-0.669c0.654-1.01,1.16-2.674,1.516-4.992c0.238-1.574,0.416-3.149,0.535-4.725
			c0.119-1.665,0.179-3.299,0.179-4.904c0-3.684-0.045-6.447-0.134-8.291c-0.06-1.307-0.193-2.436-0.401-3.387
			c-0.119-0.654-0.134-1.055-0.045-1.204c0.06-0.089,0.134-0.222,0.223-0.401c0.207-0.416,0.594-0.609,1.159-0.579
			c0.268,0,0.46,0.03,0.579,0.089c0.119,0.06,0.29,0.207,0.513,0.445s0.357,0.409,0.402,0.513c0.044,0.104,0.096,0.379,0.156,0.824
			c0.029,0.357,0.06,0.743,0.089,1.159c0.058,0.327,0.089,0.61,0.089,0.847c0.058,0.595,0.133,1.353,0.222,2.274
			c0.03,0.298,0.06,0.773,0.089,1.426C129.85,157.089,129.895,157.504,129.925,157.771z"/>
		<path d="M142.673,171.635c0.238,1.189,0.253,2.348,0.045,3.477c-0.149,0.802-0.401,1.434-0.758,1.895
			c-0.356,0.461-0.891,0.87-1.604,1.226c-0.774,0.387-1.635,0.64-2.586,0.758c-0.267,0.03-0.646,0.038-1.137,0.023
			c-0.49-0.015-0.839-0.038-1.047-0.068c-1.099-0.179-1.916-0.654-2.451-1.426c-0.268-0.386-0.476-0.995-0.624-1.827
			c-0.15-0.683-0.134-1.322,0.044-1.918c0.119-0.445,0.268-0.772,0.446-0.98c0.118-0.179,0.311-0.313,0.579-0.402
			c0.089-0.029,0.179-0.073,0.268-0.134c0.237-0.148,0.535-0.192,0.891-0.133c0.119,0,0.253,0.03,0.402,0.088
			c0.089,0.031,0.252,0.076,0.49,0.134c0.297,0.089,0.505,0.223,0.624,0.402c0.06,0.119,0.045,0.327-0.045,0.624
			c-0.088,0.238-0.149,0.461-0.177,0.669c-0.031,0.268-0.023,0.587,0.022,0.958c0.045,0.372,0.119,0.736,0.223,1.092
			c0.103,0.357,0.23,0.624,0.379,0.802l0.045,0.134l0.177-0.179c0.238-0.207,0.417-0.564,0.536-1.069
			c0.148-0.564,0.192-1.233,0.134-2.007c-0.15-1.812-1.026-4.65-2.631-8.514c-0.417-1.039-0.832-2.213-1.248-3.521
			c-0.595-1.753-0.951-3.224-1.07-4.413c-0.119-0.831-0.104-1.723,0.045-2.674c0.268-2.11,0.862-3.715,1.784-4.815
			c0.831-0.98,1.991-1.5,3.477-1.559c0.624-0.03,1.173,0.03,1.65,0.177c0.92,0.298,1.516,0.951,1.782,1.962
			c0.06,0.238,0.074,0.564,0.045,0.98c-0.03,0.743-0.177,1.323-0.445,1.739c-0.238,0.387-0.551,0.579-0.936,0.579
			c-0.149,0-0.253-0.007-0.311-0.022c-0.061-0.015-0.119-0.06-0.179-0.134c-0.06-0.074-0.111-0.171-0.156-0.29
			c-0.045-0.119-0.097-0.298-0.157-0.536c-0.089-0.326-0.177-0.608-0.267-0.846c-0.119-0.298-0.261-0.587-0.424-0.87
			c-0.164-0.282-0.276-0.424-0.334-0.424c-0.119,0-0.298,0.387-0.536,1.16c-0.624,1.872-0.654,3.908-0.088,6.106
			c0.296,1.07,0.742,2.303,1.337,3.7c0.296,0.685,0.816,1.858,1.56,3.521C141.544,167.489,142.287,169.674,142.673,171.635z"/>
	</g>
</g>
</svg>
